<?xml version="1.0" encoding="utf-8" standalone="no"?>
<!DOCTYPE svg PUBLIC "-//W3C//DTD SVG 1.1//EN"
  "http://www.w3.org/Graphics/SVG/1.1/DTD/svg11.dtd">
<!-- Created with matplotlib (https://matplotlib.org/) -->
<svg height="288pt" version="1.1" viewBox="0 0 432 288" width="432pt" xmlns="http://www.w3.org/2000/svg" xmlns:xlink="http://www.w3.org/1999/xlink">
 <metadata>
  <rdf:RDF xmlns:cc="http://creativecommons.org/ns#" xmlns:dc="http://purl.org/dc/elements/1.1/" xmlns:rdf="http://www.w3.org/1999/02/22-rdf-syntax-ns#">
   <cc:Work>
    <dc:type rdf:resource="http://purl.org/dc/dcmitype/StillImage"/>
    <dc:date>2021-06-13T21:56:01.832238</dc:date>
    <dc:format>image/svg+xml</dc:format>
    <dc:creator>
     <cc:Agent>
      <dc:title>Matplotlib v3.3.4, https://matplotlib.org/</dc:title>
     </cc:Agent>
    </dc:creator>
   </cc:Work>
  </rdf:RDF>
 </metadata>
 <defs>
  <style type="text/css">*{stroke-linecap:butt;stroke-linejoin:round;}</style>
 </defs>
 <g id="figure_1">
  <g id="patch_1">
   <path d="M 0 288 
L 432 288 
L 432 0 
L 0 0 
z
" style="fill:#ffffff;"/>
  </g>
  <g id="patch_2">
   <path d="M 112.68 252 
L 330.12 252 
L 330.12 34.56 
L 112.68 34.56 
z
" style="fill:#ffffff;"/>
  </g>
  <g id="pane3d_1">
   <g id="patch_3">
    <path d="M 129.09822 198.386264 
L 200.904009 138.197228 
L 199.90584 51.393878 
L 124.663773 106.302111 
" style="fill:#f2f2f2;opacity:0.5;stroke:#f2f2f2;stroke-linejoin:miter;"/>
   </g>
  </g>
  <g id="pane3d_2">
   <g id="patch_4">
    <path d="M 200.904009 138.197228 
L 316.12668 171.68791 
L 320.238571 81.894718 
L 199.90584 51.393878 
" style="fill:#e6e6e6;opacity:0.5;stroke:#e6e6e6;stroke-linejoin:miter;"/>
   </g>
  </g>
  <g id="pane3d_3">
   <g id="patch_5">
    <path d="M 129.09822 198.386264 
L 251.239879 238.27773 
L 316.12668 171.68791 
L 200.904009 138.197228 
" style="fill:#ececec;opacity:0.5;stroke:#ececec;stroke-linejoin:miter;"/>
   </g>
  </g>
  <g id="axis3d_1">
   <g id="line2d_1">
    <path d="M 129.09822 198.386264 
L 251.239879 238.27773 
" style="fill:none;stroke:#000000;stroke-linecap:square;stroke-width:0.8;"/>
   </g>
   <g id="Line3DCollection_1">
    <path d="M 136.495759 200.802301 
L 207.911499 140.234029 
L 207.209612 53.245171 
" style="fill:none;stroke:#b0b0b0;stroke-width:0.8;"/>
    <path d="M 162.23134 209.207541 
L 232.260894 147.311436 
L 232.60309 59.681678 
" style="fill:none;stroke:#b0b0b0;stroke-width:0.8;"/>
    <path d="M 188.559037 217.806167 
L 257.123632 154.538053 
L 258.555303 66.259807 
" style="fill:none;stroke:#b0b0b0;stroke-width:0.8;"/>
    <path d="M 215.499525 226.604931 
L 282.516121 161.918647 
L 285.084894 72.984285 
" style="fill:none;stroke:#b0b0b0;stroke-width:0.8;"/>
    <path d="M 243.074449 235.610901 
L 308.455474 169.458193 
L 312.21135 79.860051 
" style="fill:none;stroke:#b0b0b0;stroke-width:0.8;"/>
   </g>
   <g id="xtick_1">
    <g id="line2d_2">
     <path d="M 137.117644 200.274876 
L 135.249322 201.859414 
" style="fill:none;stroke:#000000;stroke-linecap:square;stroke-width:0.8;"/>
    </g>
    <g id="text_1">
     <!-- 0 -->
     <g transform="translate(125.77919 224.124533)scale(0.1 -0.1)">
      <defs>
       <path d="M 31.78125 66.40625 
Q 24.171875 66.40625 20.328125 58.90625 
Q 16.5 51.421875 16.5 36.375 
Q 16.5 21.390625 20.328125 13.890625 
Q 24.171875 6.390625 31.78125 6.390625 
Q 39.453125 6.390625 43.28125 13.890625 
Q 47.125 21.390625 47.125 36.375 
Q 47.125 51.421875 43.28125 58.90625 
Q 39.453125 66.40625 31.78125 66.40625 
z
M 31.78125 74.21875 
Q 44.046875 74.21875 50.515625 64.515625 
Q 56.984375 54.828125 56.984375 36.375 
Q 56.984375 17.96875 50.515625 8.265625 
Q 44.046875 -1.421875 31.78125 -1.421875 
Q 19.53125 -1.421875 13.0625 8.265625 
Q 6.59375 17.96875 6.59375 36.375 
Q 6.59375 54.828125 13.0625 64.515625 
Q 19.53125 74.21875 31.78125 74.21875 
z
" id="DejaVuSans-48"/>
      </defs>
      <use xlink:href="#DejaVuSans-48"/>
     </g>
    </g>
   </g>
   <g id="xtick_2">
    <g id="line2d_3">
     <path d="M 162.841716 208.668056 
L 161.007937 210.288854 
" style="fill:none;stroke:#000000;stroke-linecap:square;stroke-width:0.8;"/>
    </g>
    <g id="text_2">
     <!-- 2 -->
     <g transform="translate(151.547192 232.748132)scale(0.1 -0.1)">
      <defs>
       <path d="M 19.1875 8.296875 
L 53.609375 8.296875 
L 53.609375 0 
L 7.328125 0 
L 7.328125 8.296875 
Q 12.9375 14.109375 22.625 23.890625 
Q 32.328125 33.6875 34.8125 36.53125 
Q 39.546875 41.84375 41.421875 45.53125 
Q 43.3125 49.21875 43.3125 52.78125 
Q 43.3125 58.59375 39.234375 62.25 
Q 35.15625 65.921875 28.609375 65.921875 
Q 23.96875 65.921875 18.8125 64.3125 
Q 13.671875 62.703125 7.8125 59.421875 
L 7.8125 69.390625 
Q 13.765625 71.78125 18.9375 73 
Q 24.125 74.21875 28.421875 74.21875 
Q 39.75 74.21875 46.484375 68.546875 
Q 53.21875 62.890625 53.21875 53.421875 
Q 53.21875 48.921875 51.53125 44.890625 
Q 49.859375 40.875 45.40625 35.40625 
Q 44.1875 33.984375 37.640625 27.21875 
Q 31.109375 20.453125 19.1875 8.296875 
z
" id="DejaVuSans-50"/>
      </defs>
      <use xlink:href="#DejaVuSans-50"/>
     </g>
    </g>
   </g>
   <g id="xtick_3">
    <g id="line2d_4">
     <path d="M 189.15721 217.254202 
L 187.360066 218.91252 
" style="fill:none;stroke:#000000;stroke-linecap:square;stroke-width:0.8;"/>
    </g>
    <g id="text_3">
     <!-- 4 -->
     <g transform="translate(177.91082 241.571064)scale(0.1 -0.1)">
      <defs>
       <path d="M 37.796875 64.3125 
L 12.890625 25.390625 
L 37.796875 25.390625 
z
M 35.203125 72.90625 
L 47.609375 72.90625 
L 47.609375 25.390625 
L 58.015625 25.390625 
L 58.015625 17.1875 
L 47.609375 17.1875 
L 47.609375 0 
L 37.796875 0 
L 37.796875 17.1875 
L 4.890625 17.1875 
L 4.890625 26.703125 
z
" id="DejaVuSans-52"/>
      </defs>
      <use xlink:href="#DejaVuSans-52"/>
     </g>
    </g>
   </g>
   <g id="xtick_4">
    <g id="line2d_5">
     <path d="M 216.084757 226.040048 
L 214.326462 227.737204 
" style="fill:none;stroke:#000000;stroke-linecap:square;stroke-width:0.8;"/>
    </g>
    <g id="text_4">
     <!-- 6 -->
     <g transform="translate(204.890965 250.600322)scale(0.1 -0.1)">
      <defs>
       <path d="M 33.015625 40.375 
Q 26.375 40.375 22.484375 35.828125 
Q 18.609375 31.296875 18.609375 23.390625 
Q 18.609375 15.53125 22.484375 10.953125 
Q 26.375 6.390625 33.015625 6.390625 
Q 39.65625 6.390625 43.53125 10.953125 
Q 47.40625 15.53125 47.40625 23.390625 
Q 47.40625 31.296875 43.53125 35.828125 
Q 39.65625 40.375 33.015625 40.375 
z
M 52.59375 71.296875 
L 52.59375 62.3125 
Q 48.875 64.0625 45.09375 64.984375 
Q 41.3125 65.921875 37.59375 65.921875 
Q 27.828125 65.921875 22.671875 59.328125 
Q 17.53125 52.734375 16.796875 39.40625 
Q 19.671875 43.65625 24.015625 45.921875 
Q 28.375 48.1875 33.59375 48.1875 
Q 44.578125 48.1875 50.953125 41.515625 
Q 57.328125 34.859375 57.328125 23.390625 
Q 57.328125 12.15625 50.6875 5.359375 
Q 44.046875 -1.421875 33.015625 -1.421875 
Q 20.359375 -1.421875 13.671875 8.265625 
Q 6.984375 17.96875 6.984375 36.375 
Q 6.984375 53.65625 15.1875 63.9375 
Q 23.390625 74.21875 37.203125 74.21875 
Q 40.921875 74.21875 44.703125 73.484375 
Q 48.484375 72.75 52.59375 71.296875 
z
" id="DejaVuSans-54"/>
      </defs>
      <use xlink:href="#DejaVuSans-54"/>
     </g>
    </g>
   </g>
   <g id="xtick_5">
    <g id="line2d_6">
     <path d="M 243.645962 235.032643 
L 241.928856 236.770015 
" style="fill:none;stroke:#000000;stroke-linecap:square;stroke-width:0.8;"/>
    </g>
    <g id="text_5">
     <!-- 8 -->
     <g transform="translate(232.509511 259.84323)scale(0.1 -0.1)">
      <defs>
       <path d="M 31.78125 34.625 
Q 24.75 34.625 20.71875 30.859375 
Q 16.703125 27.09375 16.703125 20.515625 
Q 16.703125 13.921875 20.71875 10.15625 
Q 24.75 6.390625 31.78125 6.390625 
Q 38.8125 6.390625 42.859375 10.171875 
Q 46.921875 13.96875 46.921875 20.515625 
Q 46.921875 27.09375 42.890625 30.859375 
Q 38.875 34.625 31.78125 34.625 
z
M 21.921875 38.8125 
Q 15.578125 40.375 12.03125 44.71875 
Q 8.5 49.078125 8.5 55.328125 
Q 8.5 64.0625 14.71875 69.140625 
Q 20.953125 74.21875 31.78125 74.21875 
Q 42.671875 74.21875 48.875 69.140625 
Q 55.078125 64.0625 55.078125 55.328125 
Q 55.078125 49.078125 51.53125 44.71875 
Q 48 40.375 41.703125 38.8125 
Q 48.828125 37.15625 52.796875 32.3125 
Q 56.78125 27.484375 56.78125 20.515625 
Q 56.78125 9.90625 50.3125 4.234375 
Q 43.84375 -1.421875 31.78125 -1.421875 
Q 19.734375 -1.421875 13.25 4.234375 
Q 6.78125 9.90625 6.78125 20.515625 
Q 6.78125 27.484375 10.78125 32.3125 
Q 14.796875 37.15625 21.921875 38.8125 
z
M 18.3125 54.390625 
Q 18.3125 48.734375 21.84375 45.5625 
Q 25.390625 42.390625 31.78125 42.390625 
Q 38.140625 42.390625 41.71875 45.5625 
Q 45.3125 48.734375 45.3125 54.390625 
Q 45.3125 60.0625 41.71875 63.234375 
Q 38.140625 66.40625 31.78125 66.40625 
Q 25.390625 66.40625 21.84375 63.234375 
Q 18.3125 60.0625 18.3125 54.390625 
z
" id="DejaVuSans-56"/>
      </defs>
      <use xlink:href="#DejaVuSans-56"/>
     </g>
    </g>
   </g>
  </g>
  <g id="axis3d_2">
   <g id="line2d_7">
    <path d="M 316.12668 171.68791 
L 251.239879 238.27773 
" style="fill:none;stroke:#000000;stroke-linecap:square;stroke-width:0.8;"/>
   </g>
   <g id="Line3DCollection_2">
    <path d="M 129.866948 102.505071 
L 134.046245 194.238731 
L 255.729543 233.67023 
" style="fill:none;stroke:#b0b0b0;stroke-width:0.8;"/>
    <path d="M 147.250212 89.819556 
L 150.59591 180.366474 
L 270.72626 218.279909 
" style="fill:none;stroke:#b0b0b0;stroke-width:0.8;"/>
    <path d="M 163.958537 77.626582 
L 166.530371 167.009893 
L 285.136664 203.491289 
" style="fill:none;stroke:#b0b0b0;stroke-width:0.8;"/>
    <path d="M 180.030483 65.898008 
L 181.883306 154.140758 
L 298.994481 189.269761 
" style="fill:none;stroke:#b0b0b0;stroke-width:0.8;"/>
    <path d="M 195.501727 54.607799 
L 196.68598 141.732864 
L 312.330896 175.583317 
" style="fill:none;stroke:#b0b0b0;stroke-width:0.8;"/>
   </g>
   <g id="xtick_6">
    <g id="line2d_8">
     <path d="M 254.704115 233.337939 
L 257.783053 234.33567 
" style="fill:none;stroke:#000000;stroke-linecap:square;stroke-width:0.8;"/>
    </g>
    <g id="text_6">
     <!-- 0 -->
     <g transform="translate(265.430654 254.693759)scale(0.1 -0.1)">
      <use xlink:href="#DejaVuSans-48"/>
     </g>
    </g>
   </g>
   <g id="xtick_7">
    <g id="line2d_9">
     <path d="M 269.71494 217.960734 
L 272.751463 218.919068 
" style="fill:none;stroke:#000000;stroke-linecap:square;stroke-width:0.8;"/>
    </g>
    <g id="text_7">
     <!-- 2 -->
     <g transform="translate(280.181112 239.024526)scale(0.1 -0.1)">
      <use xlink:href="#DejaVuSans-50"/>
     </g>
    </g>
   </g>
   <g id="xtick_8">
    <g id="line2d_10">
     <path d="M 284.139145 203.184468 
L 287.134182 204.105694 
" style="fill:none;stroke:#000000;stroke-linecap:square;stroke-width:0.8;"/>
    </g>
    <g id="text_8">
     <!-- 4 -->
     <g transform="translate(294.35448 223.968328)scale(0.1 -0.1)">
      <use xlink:href="#DejaVuSans-52"/>
     </g>
    </g>
   </g>
   <g id="xtick_9">
    <g id="line2d_11">
     <path d="M 298.010457 188.97459 
L 300.964927 189.860821 
" style="fill:none;stroke:#000000;stroke-linecap:square;stroke-width:0.8;"/>
    </g>
    <g id="text_9">
     <!-- 6 -->
     <g transform="translate(307.983974 209.489882)scale(0.1 -0.1)">
      <use xlink:href="#DejaVuSans-54"/>
     </g>
    </g>
   </g>
   <g id="xtick_10">
    <g id="line2d_12">
     <path d="M 311.360068 175.299146 
L 314.274875 176.15234 
" style="fill:none;stroke:#000000;stroke-linecap:square;stroke-width:0.8;"/>
    </g>
    <g id="text_10">
     <!-- 8 -->
     <g transform="translate(321.10031 195.556556)scale(0.1 -0.1)">
      <use xlink:href="#DejaVuSans-56"/>
     </g>
    </g>
   </g>
  </g>
  <g id="axis3d_3">
   <g id="line2d_13">
    <path d="M 316.12668 171.68791 
L 320.238571 81.894718 
" style="fill:none;stroke:#000000;stroke-linecap:square;stroke-width:0.8;"/>
   </g>
   <g id="Line3DCollection_3">
    <path d="M 316.205459 169.967571 
L 200.884845 136.530725 
L 129.013401 196.624949 
" style="fill:none;stroke:#b0b0b0;stroke-width:0.8;"/>
    <path d="M 316.846519 155.968468 
L 200.728962 122.974714 
L 128.322992 182.288171 
" style="fill:none;stroke:#b0b0b0;stroke-width:0.8;"/>
    <path d="M 317.496588 141.772617 
L 200.570993 109.237299 
L 127.62251 167.742204 
" style="fill:none;stroke:#b0b0b0;stroke-width:0.8;"/>
    <path d="M 318.155858 127.375841 
L 200.410895 95.314812 
L 126.911732 152.982437 
" style="fill:none;stroke:#b0b0b0;stroke-width:0.8;"/>
    <path d="M 318.824526 112.773843 
L 200.248626 81.20349 
L 126.190429 138.004121 
" style="fill:none;stroke:#b0b0b0;stroke-width:0.8;"/>
    <path d="M 319.502794 97.962206 
L 200.084141 66.899463 
L 125.458367 122.802365 
" style="fill:none;stroke:#b0b0b0;stroke-width:0.8;"/>
   </g>
   <g id="xtick_11">
    <g id="line2d_14">
     <path d="M 315.237563 169.686933 
L 318.143556 170.529516 
" style="fill:none;stroke:#000000;stroke-linecap:square;stroke-width:0.8;"/>
    </g>
    <g id="text_11">
     <!-- 0 -->
     <g transform="translate(331.275915 174.966846)scale(0.1 -0.1)">
      <use xlink:href="#DejaVuSans-48"/>
     </g>
    </g>
   </g>
   <g id="xtick_12">
    <g id="line2d_15">
     <path d="M 315.871615 155.691458 
L 318.798663 156.523152 
" style="fill:none;stroke:#000000;stroke-linecap:square;stroke-width:0.8;"/>
    </g>
    <g id="text_12">
     <!-- 5000 -->
     <g transform="translate(322.497747 161.001407)scale(0.1 -0.1)">
      <defs>
       <path d="M 10.796875 72.90625 
L 49.515625 72.90625 
L 49.515625 64.59375 
L 19.828125 64.59375 
L 19.828125 46.734375 
Q 21.96875 47.46875 24.109375 47.828125 
Q 26.265625 48.1875 28.421875 48.1875 
Q 40.625 48.1875 47.75 41.5 
Q 54.890625 34.8125 54.890625 23.390625 
Q 54.890625 11.625 47.5625 5.09375 
Q 40.234375 -1.421875 26.90625 -1.421875 
Q 22.3125 -1.421875 17.546875 -0.640625 
Q 12.796875 0.140625 7.71875 1.703125 
L 7.71875 11.625 
Q 12.109375 9.234375 16.796875 8.0625 
Q 21.484375 6.890625 26.703125 6.890625 
Q 35.15625 6.890625 40.078125 11.328125 
Q 45.015625 15.765625 45.015625 23.390625 
Q 45.015625 31 40.078125 35.4375 
Q 35.15625 39.890625 26.703125 39.890625 
Q 22.75 39.890625 18.8125 39.015625 
Q 14.890625 38.140625 10.796875 36.28125 
z
" id="DejaVuSans-53"/>
      </defs>
      <use xlink:href="#DejaVuSans-53"/>
      <use x="63.623047" xlink:href="#DejaVuSans-48"/>
      <use x="127.246094" xlink:href="#DejaVuSans-48"/>
      <use x="190.869141" xlink:href="#DejaVuSans-48"/>
     </g>
    </g>
   </g>
   <g id="xtick_13">
    <g id="line2d_16">
     <path d="M 316.514575 141.499365 
L 319.462985 142.319779 
" style="fill:none;stroke:#000000;stroke-linecap:square;stroke-width:0.8;"/>
    </g>
    <g id="text_13">
     <!-- 10000 -->
     <g transform="translate(320.0928 146.840423)scale(0.1 -0.1)">
      <defs>
       <path d="M 12.40625 8.296875 
L 28.515625 8.296875 
L 28.515625 63.921875 
L 10.984375 60.40625 
L 10.984375 69.390625 
L 28.421875 72.90625 
L 38.28125 72.90625 
L 38.28125 8.296875 
L 54.390625 8.296875 
L 54.390625 0 
L 12.40625 0 
z
" id="DejaVuSans-49"/>
      </defs>
      <use xlink:href="#DejaVuSans-49"/>
      <use x="63.623047" xlink:href="#DejaVuSans-48"/>
      <use x="127.246094" xlink:href="#DejaVuSans-48"/>
      <use x="190.869141" xlink:href="#DejaVuSans-48"/>
      <use x="254.492188" xlink:href="#DejaVuSans-48"/>
     </g>
    </g>
   </g>
   <g id="xtick_14">
    <g id="line2d_17">
     <path d="M 317.166632 127.106482 
L 320.136716 127.915213 
" style="fill:none;stroke:#000000;stroke-linecap:square;stroke-width:0.8;"/>
    </g>
    <g id="text_14">
     <!-- 15000 -->
     <g transform="translate(320.880048 132.479759)scale(0.1 -0.1)">
      <use xlink:href="#DejaVuSans-49"/>
      <use x="63.623047" xlink:href="#DejaVuSans-53"/>
      <use x="127.246094" xlink:href="#DejaVuSans-48"/>
      <use x="190.869141" xlink:href="#DejaVuSans-48"/>
      <use x="254.492188" xlink:href="#DejaVuSans-48"/>
     </g>
    </g>
   </g>
   <g id="xtick_15">
    <g id="line2d_18">
     <path d="M 317.82798 112.508517 
L 320.820059 113.305146 
" style="fill:none;stroke:#000000;stroke-linecap:square;stroke-width:0.8;"/>
    </g>
    <g id="text_15">
     <!-- 20000 -->
     <g transform="translate(321.678476 117.915161)scale(0.1 -0.1)">
      <use xlink:href="#DejaVuSans-50"/>
      <use x="63.623047" xlink:href="#DejaVuSans-48"/>
      <use x="127.246094" xlink:href="#DejaVuSans-48"/>
      <use x="190.869141" xlink:href="#DejaVuSans-48"/>
      <use x="254.492188" xlink:href="#DejaVuSans-48"/>
     </g>
    </g>
   </g>
   <g id="xtick_16">
    <g id="line2d_19">
     <path d="M 318.498818 97.701055 
L 321.513222 98.485151 
" style="fill:none;stroke:#000000;stroke-linecap:square;stroke-width:0.8;"/>
    </g>
    <g id="text_16">
     <!-- 25000 -->
     <g transform="translate(322.488324 103.142255)scale(0.1 -0.1)">
      <use xlink:href="#DejaVuSans-50"/>
      <use x="63.623047" xlink:href="#DejaVuSans-53"/>
      <use x="127.246094" xlink:href="#DejaVuSans-48"/>
      <use x="190.869141" xlink:href="#DejaVuSans-48"/>
      <use x="254.492188" xlink:href="#DejaVuSans-48"/>
     </g>
    </g>
   </g>
  </g>
  <g id="axes_1">
   <g id="Poly3DCollection_1">
    <path clip-path="url(#peaec05769b)" d="M 203.700438 142.115361 
L 203.692177 141.301256 
L 215.860492 144.850083 
L 215.863902 145.66701 
z
" style="fill:#080339;"/>
    <path clip-path="url(#peaec05769b)" d="M 196.401162 148.290596 
L 196.389879 147.471593 
L 203.692177 141.301256 
L 203.700438 142.115361 
z
" style="fill:#110679;"/>
    <path clip-path="url(#peaec05769b)" d="M 196.401162 148.290596 
L 203.700438 142.115361 
L 215.863902 145.66701 
L 208.637156 151.907182 
z
" style="fill:#0a0449;"/>
    <path clip-path="url(#peaec05769b)" d="M 196.389879 147.471593 
L 208.630781 151.085331 
L 215.860492 144.850083 
L 203.692177 141.301256 
z
" style="fill:#0f0569;"/>
    <path clip-path="url(#peaec05769b)" d="M 215.863902 145.66701 
L 215.835421 138.84324 
L 228.167918 142.40836 
L 228.155024 149.255935 
z
" style="fill:#180240;"/>
    <path clip-path="url(#peaec05769b)" d="M 208.637156 151.907182 
L 215.863902 145.66701 
L 215.860492 144.850083 
L 208.630781 151.085331 
z
" style="fill:#080339;"/>
    <path clip-path="url(#peaec05769b)" d="M 208.637156 151.907182 
L 208.583906 145.042102 
L 215.835421 138.84324 
L 215.863902 145.66701 
z
" style="fill:#330488;"/>
    <path clip-path="url(#peaec05769b)" d="M 196.401162 148.290596 
L 196.391351 147.578505 
L 208.631613 151.192614 
L 208.637156 151.907182 
z
" style="fill:#070339;"/>
    <path clip-path="url(#peaec05769b)" d="M 196.401162 148.290596 
L 208.637156 151.907182 
L 208.630781 151.085331 
L 196.389879 147.471593 
z
" style="fill:#110679;"/>
    <path clip-path="url(#peaec05769b)" d="M 208.637156 151.907182 
L 215.863902 145.66701 
L 228.155024 149.255935 
L 221.002748 155.562072 
z
" style="fill:#1f0252;"/>
    <path clip-path="url(#peaec05769b)" d="M 188.96817 154.578956 
L 188.955636 153.862568 
L 196.391351 147.578505 
L 196.401162 148.290596 
z
" style="fill:#0e0678;"/>
    <path clip-path="url(#peaec05769b)" d="M 208.583906 145.042102 
L 220.991375 148.672974 
L 228.167918 142.40836 
L 215.835421 138.84324 
z
" style="fill:#2d0376;"/>
    <path clip-path="url(#peaec05769b)" d="M 188.96817 154.578956 
L 196.401162 148.290596 
L 208.637156 151.907182 
L 201.27732 158.262275 
z
" style="fill:#090449;"/>
    <path clip-path="url(#peaec05769b)" d="M 188.955636 153.862568 
L 201.269104 157.54339 
L 208.631613 151.192614 
L 196.391351 147.578505 
z
" style="fill:#0c0668;"/>
    <path clip-path="url(#peaec05769b)" d="M 221.002748 155.562072 
L 228.155024 149.255935 
L 228.167918 142.40836 
L 220.991375 148.672974 
z
" style="fill:#180240;"/>
    <path clip-path="url(#peaec05769b)" d="M 221.002748 155.562072 
L 228.155024 149.255935 
L 240.575825 152.882725 
L 233.500008 159.25588 
z
" style="fill:#80442a;"/>
    <path clip-path="url(#peaec05769b)" d="M 208.637156 151.907182 
L 208.586991 145.43984 
L 220.992034 149.072111 
L 221.002748 155.562072 
z
" style="fill:#170240;"/>
    <path clip-path="url(#peaec05769b)" d="M 208.637156 151.907182 
L 221.002748 155.562072 
L 220.991375 148.672974 
L 208.583906 145.042102 
z
" style="fill:#330488;"/>
    <path clip-path="url(#peaec05769b)" d="M 201.27732 158.262275 
L 208.637156 151.907182 
L 208.631613 151.192614 
L 201.269104 157.54339 
z
" style="fill:#070339;"/>
    <path clip-path="url(#peaec05769b)" d="M 201.27732 158.262275 
L 201.202959 151.755681 
L 208.586991 145.43984 
L 208.637156 151.907182 
z
" style="fill:#300487;"/>
    <path clip-path="url(#peaec05769b)" d="M 188.96817 154.578956 
L 188.955785 153.871066 
L 201.269201 157.551916 
L 201.27732 158.262275 
z
" style="fill:#070339;"/>
    <path clip-path="url(#peaec05769b)" d="M 188.96817 154.578956 
L 201.27732 158.262275 
L 201.269104 157.54339 
L 188.955636 153.862568 
z
" style="fill:#0e0678;"/>
    <path clip-path="url(#peaec05769b)" d="M 201.27732 158.262275 
L 208.637156 151.907182 
L 221.002748 155.562072 
L 213.718049 161.984967 
z
" style="fill:#1d0251;"/>
    <path clip-path="url(#peaec05769b)" d="M 181.397755 160.983577 
L 181.382579 160.271404 
L 188.955785 153.871066 
L 188.96817 154.578956 
z
" style="fill:#0e0678;"/>
    <path clip-path="url(#peaec05769b)" d="M 233.500008 159.25588 
L 240.575825 152.882725 
L 253.128369 156.547983 
L 246.131049 162.989229 
z
" style="fill:#866f14;"/>
    <path clip-path="url(#peaec05769b)" d="M 201.202959 151.755681 
L 213.683619 155.455552 
L 220.992034 149.072111 
L 208.586991 145.43984 
z
" style="fill:#2a0375;"/>
    <path clip-path="url(#peaec05769b)" d="M 181.397755 160.983577 
L 188.96817 154.578956 
L 201.27732 158.262275 
L 193.780682 164.735494 
z
" style="fill:#090449;"/>
    <path clip-path="url(#peaec05769b)" d="M 181.382579 160.271404 
L 193.769824 164.020831 
L 201.269201 157.551916 
L 188.955785 153.871066 
z
" style="fill:#0c0668;"/>
    <path clip-path="url(#peaec05769b)" d="M 213.718049 161.984967 
L 221.002748 155.562072 
L 220.992034 149.072111 
L 213.683619 155.455552 
z
" style="fill:#170240;"/>
    <path clip-path="url(#peaec05769b)" d="M 213.718049 161.984967 
L 221.002748 155.562072 
L 233.500008 159.25588 
L 226.292478 165.747667 
z
" style="fill:#844e23;"/>
    <path clip-path="url(#peaec05769b)" d="M 228.155024 149.255935 
L 228.262619 92.117172 
L 241.036056 95.536792 
L 240.575825 152.882725 
z
" style="fill:#643521;"/>
    <path clip-path="url(#peaec05769b)" d="M 201.27732 158.262275 
L 201.211378 152.492359 
L 213.687518 156.194826 
L 213.718049 161.984967 
z
" style="fill:#15023f;"/>
    <path clip-path="url(#peaec05769b)" d="M 201.27732 158.262275 
L 213.718049 161.984967 
L 213.683619 155.455552 
L 201.202959 151.755681 
z
" style="fill:#300487;"/>
    <path clip-path="url(#peaec05769b)" d="M 193.780682 164.735494 
L 201.27732 158.262275 
L 201.269201 157.551916 
L 193.769824 164.020831 
z
" style="fill:#070339;"/>
    <path clip-path="url(#peaec05769b)" d="M 246.131049 162.989229 
L 253.128369 156.547983 
L 265.814761 160.252323 
L 258.898031 166.762758 
z
" style="fill:#857313;"/>
    <path clip-path="url(#peaec05769b)" d="M 221.002748 155.562072 
L 220.907827 98.063742 
L 228.262619 92.117172 
L 228.155024 149.255935 
z
" style="fill:#d47046;"/>
    <path clip-path="url(#peaec05769b)" d="M 193.780682 164.735494 
L 193.69249 158.930482 
L 201.211378 152.492359 
L 201.27732 158.262275 
z
" style="fill:#2d0486;"/>
    <path clip-path="url(#peaec05769b)" d="M 181.397755 160.983577 
L 181.384648 160.3685 
L 193.771305 164.118266 
L 193.780682 164.735494 
z
" style="fill:#070339;"/>
    <path clip-path="url(#peaec05769b)" d="M 181.397755 160.983577 
L 193.780682 164.735494 
L 193.769824 164.020831 
L 181.382579 160.271404 
z
" style="fill:#0e0678;"/>
    <path clip-path="url(#peaec05769b)" d="M 193.780682 164.735494 
L 201.27732 158.262275 
L 213.718049 161.984967 
L 206.297214 168.527892 
z
" style="fill:#1b0251;"/>
    <path clip-path="url(#peaec05769b)" d="M 173.686069 167.507715 
L 173.670464 166.888906 
L 181.384648 160.3685 
L 181.397755 160.983577 
z
" style="fill:#0e0678;"/>
    <path clip-path="url(#peaec05769b)" d="M 226.292478 165.747667 
L 233.500008 159.25588 
L 246.131049 162.989229 
L 239.002775 169.551023 
z
" style="fill:#808512;"/>
    <path clip-path="url(#peaec05769b)" d="M 258.898031 166.762758 
L 265.814761 160.252323 
L 278.637155 163.996376 
L 271.803162 170.57712 
z
" style="fill:#7f412c;"/>
    <path clip-path="url(#peaec05769b)" d="M 193.69249 158.930482 
L 206.244863 162.702476 
L 213.687518 156.194826 
L 201.211378 152.492359 
z
" style="fill:#270374;"/>
    <path clip-path="url(#peaec05769b)" d="M 233.500008 159.25588 
L 240.575825 152.882725 
L 241.036056 95.536792 
L 233.762146 101.548362 
z
" style="fill:#643521;"/>
    <path clip-path="url(#peaec05769b)" d="M 173.686069 167.507715 
L 181.397755 160.983577 
L 193.780682 164.735494 
L 186.143392 171.330164 
z
" style="fill:#090449;"/>
    <path clip-path="url(#peaec05769b)" d="M 206.297214 168.527892 
L 213.718049 161.984967 
L 213.687518 156.194826 
L 206.244863 162.702476 
z
" style="fill:#15023f;"/>
    <path clip-path="url(#peaec05769b)" d="M 173.670464 166.888906 
L 186.131562 170.709186 
L 193.771305 164.118266 
L 181.384648 160.3685 
z
" style="fill:#0c0668;"/>
    <path clip-path="url(#peaec05769b)" d="M 278.637155 163.996376 
L 278.822454 157.129861 
L 291.828518 160.890121 
L 291.597749 167.780781 
z
" style="fill:#180240;"/>
    <path clip-path="url(#peaec05769b)" d="M 206.297214 168.527892 
L 213.718049 161.984967 
L 226.292478 165.747667 
L 218.949524 172.361429 
z
" style="fill:#80442a;"/>
    <path clip-path="url(#peaec05769b)" d="M 221.002748 155.562072 
L 233.500008 159.25588 
L 233.762146 101.548362 
L 220.907827 98.063742 
z
" style="fill:#d47046;"/>
    <path clip-path="url(#peaec05769b)" d="M 193.780682 164.735494 
L 193.70894 160.013266 
L 206.254628 163.78908 
L 206.297214 168.527892 
z
" style="fill:#13023e;"/>
    <path clip-path="url(#peaec05769b)" d="M 193.780682 164.735494 
L 206.297214 168.527892 
L 206.244863 162.702476 
L 193.69249 158.930482 
z
" style="fill:#2d0486;"/>
    <path clip-path="url(#peaec05769b)" d="M 240.575825 152.882725 
L 241.188156 76.584839 
L 254.220044 79.969107 
L 253.128369 156.547983 
z
" style="fill:#69570f;"/>
    <path clip-path="url(#peaec05769b)" d="M 186.143392 171.330164 
L 193.780682 164.735494 
L 193.771305 164.118266 
L 186.131562 170.709186 
z
" style="fill:#070339;"/>
    <path clip-path="url(#peaec05769b)" d="M 239.002775 169.551023 
L 246.131049 162.989229 
L 258.898031 166.762758 
L 251.851153 173.395697 
z
" style="fill:#808413;"/>
    <path clip-path="url(#peaec05769b)" d="M 221.002748 155.562072 
L 220.899475 93.004967 
L 233.785213 96.470346 
L 233.500008 159.25588 
z
" style="fill:#673d1b;"/>
    <path clip-path="url(#peaec05769b)" d="M 271.803162 170.57712 
L 271.966663 163.668706 
L 278.822454 157.129861 
L 278.637155 163.996376 
z
" style="fill:#320488;"/>
    <path clip-path="url(#peaec05769b)" d="M 186.143392 171.330164 
L 186.052876 166.57916 
L 193.70894 160.013266 
L 193.780682 164.735494 
z
" style="fill:#280484;"/>
    <path clip-path="url(#peaec05769b)" d="M 271.803162 170.57712 
L 278.637155 163.996376 
L 291.597749 167.780781 
L 284.848695 174.43298 
z
" style="fill:#1e0252;"/>
    <path clip-path="url(#peaec05769b)" d="M 233.500008 159.25588 
L 233.848809 82.470277 
L 241.188156 76.584839 
L 240.575825 152.882725 
z
" style="fill:#deb821;"/>
    <path clip-path="url(#peaec05769b)" d="M 173.686069 167.507715 
L 173.675637 167.094052 
L 186.135484 170.915052 
L 186.143392 171.330164 
z
" style="fill:#050338;"/>
    <path clip-path="url(#peaec05769b)" d="M 173.686069 167.507715 
L 186.143392 171.330164 
L 186.131562 170.709186 
L 173.670464 166.888906 
z
" style="fill:#0e0678;"/>
    <path clip-path="url(#peaec05769b)" d="M 213.718049 161.984967 
L 213.386099 99.031397 
L 220.899475 93.004967 
L 221.002748 155.562072 
z
" style="fill:#db823a;"/>
    <path clip-path="url(#peaec05769b)" d="M 291.597749 167.780781 
L 291.63687 166.612629 
L 304.745785 170.433949 
L 304.698789 171.606197 
z
" style="fill:#09033a;"/>
    <path clip-path="url(#peaec05769b)" d="M 186.143392 171.330164 
L 193.780682 164.735494 
L 206.297214 168.527892 
L 198.736391 175.194243 
z
" style="fill:#18034f;"/>
    <path clip-path="url(#peaec05769b)" d="M 165.82912 174.154745 
L 165.816957 173.738568 
L 173.675637 167.094052 
L 173.686069 167.507715 
z
" style="fill:#0b0777;"/>
    <path clip-path="url(#peaec05769b)" d="M 218.949524 172.361429 
L 226.292478 165.747667 
L 239.002775 169.551023 
L 231.739835 176.23678 
z
" style="fill:#837b14;"/>
    <path clip-path="url(#peaec05769b)" d="M 284.848695 174.43298 
L 284.884223 173.257721 
L 291.63687 166.612629 
L 291.597749 167.780781 
z
" style="fill:#13067a;"/>
    <path clip-path="url(#peaec05769b)" d="M 186.052876 166.57916 
L 198.675387 170.426513 
L 206.254628 163.78908 
L 193.70894 160.013266 
z
" style="fill:#230472;"/>
    <path clip-path="url(#peaec05769b)" d="M 271.966663 163.668706 
L 285.058272 167.500211 
L 291.828518 160.890121 
L 278.822454 157.129861 
z
" style="fill:#2b0376;"/>
    <path clip-path="url(#peaec05769b)" d="M 253.128369 156.547983 
L 254.245786 78.163361 
L 267.433489 81.578052 
L 265.814761 160.252323 
z
" style="fill:#685a0f;"/>
    <path clip-path="url(#peaec05769b)" d="M 265.814761 160.252323 
L 266.977341 103.747973 
L 280.167534 107.286142 
L 278.637155 163.996376 
z
" style="fill:#633322;"/>
    <path clip-path="url(#peaec05769b)" d="M 251.851153 173.395697 
L 258.898031 166.762758 
L 271.803162 170.57712 
L 264.839875 177.282368 
z
" style="fill:#7f422b;"/>
    <path clip-path="url(#peaec05769b)" d="M 284.848695 174.43298 
L 291.597749 167.780781 
L 291.828518 160.890121 
L 285.058272 167.500211 
z
" style="fill:#180240;"/>
    <path clip-path="url(#peaec05769b)" d="M 198.736391 175.194243 
L 206.297214 168.527892 
L 206.254628 163.78908 
L 198.675387 170.426513 
z
" style="fill:#13023e;"/>
    <path clip-path="url(#peaec05769b)" d="M 165.82912 174.154745 
L 173.686069 167.507715 
L 186.143392 171.330164 
L 178.361455 178.049733 
z
" style="fill:#070448;"/>
    <path clip-path="url(#peaec05769b)" d="M 165.816957 173.738568 
L 178.351845 177.632094 
L 186.135484 170.915052 
L 173.675637 167.094052 
z
" style="fill:#0a0667;"/>
    <path clip-path="url(#peaec05769b)" d="M 284.848695 174.43298 
L 291.597749 167.780781 
L 304.698789 171.606197 
L 298.036935 178.33102 
z
" style="fill:#0c044a;"/>
    <path clip-path="url(#peaec05769b)" d="M 246.131049 162.989229 
L 253.128369 156.547983 
L 254.220044 79.969107 
L 246.965349 85.919828 
z
" style="fill:#69570f;"/>
    <path clip-path="url(#peaec05769b)" d="M 246.131049 162.989229 
L 246.98503 84.101861 
L 254.245786 78.163361 
L 253.128369 156.547983 
z
" style="fill:#ddbf20;"/>
    <path clip-path="url(#peaec05769b)" d="M 258.898031 166.762758 
L 259.876021 109.901086 
L 266.977341 103.747973 
L 265.814761 160.252323 
z
" style="fill:#d26c49;"/>
    <path clip-path="url(#peaec05769b)" d="M 284.884223 173.257721 
L 298.080443 177.151631 
L 304.745785 170.433949 
L 291.63687 166.612629 
z
" style="fill:#11056a;"/>
    <path clip-path="url(#peaec05769b)" d="M 226.292478 165.747667 
L 233.500008 159.25588 
L 233.785213 96.470346 
L 226.353894 102.563443 
z
" style="fill:#673d1b;"/>
    <path clip-path="url(#peaec05769b)" d="M 271.803162 170.57712 
L 271.95281 164.254035 
L 285.040514 168.087613 
L 284.848695 174.43298 
z
" style="fill:#170240;"/>
    <path clip-path="url(#peaec05769b)" d="M 271.803162 170.57712 
L 284.848695 174.43298 
L 285.058272 167.500211 
L 271.966663 163.668706 
z
" style="fill:#320488;"/>
    <path clip-path="url(#peaec05769b)" d="M 186.143392 171.330164 
L 186.090641 168.561324 
L 198.700839 172.415671 
L 198.736391 175.194243 
z
" style="fill:#0e023c;"/>
    <path clip-path="url(#peaec05769b)" d="M 198.736391 175.194243 
L 206.297214 168.527892 
L 218.949524 172.361429 
L 211.467294 179.100638 
z
" style="fill:#7c3c30;"/>
    <path clip-path="url(#peaec05769b)" d="M 220.907827 98.063742 
L 233.762146 101.548362 
L 241.036056 95.536792 
L 228.262619 92.117172 
z
" style="fill:#b8613c;"/>
    <path clip-path="url(#peaec05769b)" d="M 213.718049 161.984967 
L 213.411992 103.94188 
L 226.349102 107.49268 
L 226.292478 165.747667 
z
" style="fill:#643521;"/>
    <path clip-path="url(#peaec05769b)" d="M 186.143392 171.330164 
L 198.736391 175.194243 
L 198.675387 170.426513 
L 186.052876 166.57916 
z
" style="fill:#280484;"/>
    <path clip-path="url(#peaec05769b)" d="M 233.500008 159.25588 
L 246.131049 162.989229 
L 246.965349 85.919828 
L 233.848809 82.470277 
z
" style="fill:#deb821;"/>
    <path clip-path="url(#peaec05769b)" d="M 178.361455 178.049733 
L 186.143392 171.330164 
L 186.135484 170.915052 
L 178.351845 177.632094 
z
" style="fill:#050338;"/>
    <path clip-path="url(#peaec05769b)" d="M 231.739835 176.23678 
L 239.002775 169.551023 
L 251.851153 173.395697 
L 244.670417 180.154631 
z
" style="fill:#837b14;"/>
    <path clip-path="url(#peaec05769b)" d="M 213.718049 161.984967 
L 226.292478 165.747667 
L 226.353894 102.563443 
L 213.386099 99.031397 
z
" style="fill:#db823a;"/>
    <path clip-path="url(#peaec05769b)" d="M 264.839875 177.282368 
L 264.968781 170.920619 
L 271.95281 164.254035 
L 271.803162 170.57712 
z
" style="fill:#300487;"/>
    <path clip-path="url(#peaec05769b)" d="M 298.036935 178.33102 
L 304.698789 171.606197 
L 304.745785 170.433949 
L 298.080443 177.151631 
z
" style="fill:#09033a;"/>
    <path clip-path="url(#peaec05769b)" d="M 178.361455 178.049733 
L 178.297354 175.264005 
L 186.090641 168.561324 
L 186.143392 171.330164 
z
" style="fill:#1e057f;"/>
    <path clip-path="url(#peaec05769b)" d="M 206.297214 168.527892 
L 205.772304 110.117042 
L 213.411992 103.94188 
L 213.718049 161.984967 
z
" style="fill:#d47046;"/>
    <path clip-path="url(#peaec05769b)" d="M 264.839875 177.282368 
L 271.803162 170.57712 
L 284.848695 174.43298 
L 277.971253 181.211726 
z
" style="fill:#1d0251;"/>
    <path clip-path="url(#peaec05769b)" d="M 233.500008 159.25588 
L 233.887451 73.96354 
L 247.057799 77.379717 
L 246.131049 162.989229 
z
" style="fill:#64680e;"/>
    <path clip-path="url(#peaec05769b)" d="M 165.82912 174.154745 
L 165.820665 173.865442 
L 178.354775 177.759414 
L 178.361455 178.049733 
z
" style="fill:#050338;"/>
    <path clip-path="url(#peaec05769b)" d="M 165.82912 174.154745 
L 178.361455 178.049733 
L 178.351845 177.632094 
L 165.816957 173.738568 
z
" style="fill:#0b0777;"/>
    <path clip-path="url(#peaec05769b)" d="M 284.848695 174.43298 
L 284.878542 173.445659 
L 298.073485 177.340229 
L 298.036935 178.33102 
z
" style="fill:#080339;"/>
    <path clip-path="url(#peaec05769b)" d="M 284.848695 174.43298 
L 298.036935 178.33102 
L 298.080443 177.151631 
L 284.884223 173.257721 
z
" style="fill:#13067a;"/>
    <path clip-path="url(#peaec05769b)" d="M 178.361455 178.049733 
L 186.143392 171.330164 
L 198.736391 175.194243 
L 191.031582 181.987547 
z
" style="fill:#12034d;"/>
    <path clip-path="url(#peaec05769b)" d="M 258.898031 166.762758 
L 265.814761 160.252323 
L 267.433489 81.578052 
L 260.259882 87.582849 
z
" style="fill:#685a0f;"/>
    <path clip-path="url(#peaec05769b)" d="M 271.803162 170.57712 
L 278.637155 163.996376 
L 280.167534 107.286142 
L 273.153822 113.507593 
z
" style="fill:#633322;"/>
    <path clip-path="url(#peaec05769b)" d="M 226.292478 165.747667 
L 226.375918 79.904801 
L 233.887451 73.96354 
L 233.500008 159.25588 
z
" style="fill:#d4dc1e;"/>
    <path clip-path="url(#peaec05769b)" d="M 157.822766 180.928173 
L 157.813063 180.637107 
L 165.820665 173.865442 
L 165.82912 174.154745 
z
" style="fill:#0b0777;"/>
    <path clip-path="url(#peaec05769b)" d="M 178.297354 175.264005 
L 190.98489 179.192004 
L 198.700839 172.415671 
L 186.090641 168.561324 
z
" style="fill:#1a046e;"/>
    <path clip-path="url(#peaec05769b)" d="M 211.467294 179.100638 
L 218.949524 172.361429 
L 231.739835 176.23678 
L 224.338378 183.050047 
z
" style="fill:#875a1c;"/>
    <path clip-path="url(#peaec05769b)" d="M 277.971253 181.211726 
L 277.997959 180.218384 
L 284.878542 173.445659 
L 284.848695 174.43298 
z
" style="fill:#110679;"/>
    <path clip-path="url(#peaec05769b)" d="M 264.968781 170.920619 
L 278.142893 174.827505 
L 285.040514 168.087613 
L 271.95281 164.254035 
z
" style="fill:#2a0375;"/>
    <path clip-path="url(#peaec05769b)" d="M 246.131049 162.989229 
L 258.898031 166.762758 
L 260.259882 87.582849 
L 246.98503 84.101861 
z
" style="fill:#ddbf20;"/>
    <path clip-path="url(#peaec05769b)" d="M 258.898031 166.762758 
L 271.803162 170.57712 
L 273.153822 113.507593 
L 259.876021 109.901086 
z
" style="fill:#d26c49;"/>
    <path clip-path="url(#peaec05769b)" d="M 258.898031 166.762758 
L 259.878078 109.781479 
L 273.156664 113.38753 
L 271.803162 170.57712 
z
" style="fill:#633322;"/>
    <path clip-path="url(#peaec05769b)" d="M 244.670417 180.154631 
L 251.851153 173.395697 
L 264.839875 177.282368 
L 257.743589 184.115686 
z
" style="fill:#7b3b30;"/>
    <path clip-path="url(#peaec05769b)" d="M 277.971253 181.211726 
L 284.848695 174.43298 
L 285.040514 168.087613 
L 278.142893 174.827505 
z
" style="fill:#170240;"/>
    <path clip-path="url(#peaec05769b)" d="M 191.031582 181.987547 
L 198.736391 175.194243 
L 198.700839 172.415671 
L 190.98489 179.192004 
z
" style="fill:#0e023c;"/>
    <path clip-path="url(#peaec05769b)" d="M 218.949524 172.361429 
L 226.292478 165.747667 
L 226.349102 107.49268 
L 218.79186 113.736651 
z
" style="fill:#643521;"/>
    <path clip-path="url(#peaec05769b)" d="M 157.822766 180.928173 
L 165.82912 174.154745 
L 178.361455 178.049733 
L 170.430723 184.897786 
z
" style="fill:#070448;"/>
    <path clip-path="url(#peaec05769b)" d="M 157.813063 180.637107 
L 170.422815 184.605696 
L 178.354775 177.759414 
L 165.820665 173.865442 
z
" style="fill:#0a0667;"/>
    <path clip-path="url(#peaec05769b)" d="M 246.131049 162.989229 
L 247.050975 78.010064 
L 260.36507 81.467072 
L 258.898031 166.762758 
z
" style="fill:#64670f;"/>
    <path clip-path="url(#peaec05769b)" d="M 277.971253 181.211726 
L 284.848695 174.43298 
L 298.036935 178.33102 
L 291.24765 185.184478 
z
" style="fill:#0a0449;"/>
    <path clip-path="url(#peaec05769b)" d="M 206.297214 168.527892 
L 205.811749 114.506378 
L 218.803709 118.142706 
L 218.949524 172.361429 
z
" style="fill:#612f25;"/>
    <path clip-path="url(#peaec05769b)" d="M 277.997959 180.218384 
L 291.281151 184.187638 
L 298.073485 177.340229 
L 284.878542 173.445659 
z
" style="fill:#0f0569;"/>
    <path clip-path="url(#peaec05769b)" d="M 264.839875 177.282368 
L 264.942873 172.199194 
L 278.108396 176.110614 
L 277.971253 181.211726 
z
" style="fill:#14023e;"/>
    <path clip-path="url(#peaec05769b)" d="M 251.851153 173.395697 
L 252.638914 116.05289 
L 259.878078 109.781479 
L 258.898031 166.762758 
z
" style="fill:#d26d48;"/>
    <path clip-path="url(#peaec05769b)" d="M 178.361455 178.049733 
L 178.32843 176.614513 
L 191.007526 180.547275 
L 191.031582 181.987547 
z
" style="fill:#09033a;"/>
    <path clip-path="url(#peaec05769b)" d="M 264.839875 177.282368 
L 277.971253 181.211726 
L 278.142893 174.827505 
L 264.968781 170.920619 
z
" style="fill:#300487;"/>
    <path clip-path="url(#peaec05769b)" d="M 178.361455 178.049733 
L 191.031582 181.987547 
L 190.98489 179.192004 
L 178.297354 175.264005 
z
" style="fill:#1e057f;"/>
    <path clip-path="url(#peaec05769b)" d="M 191.031582 181.987547 
L 198.736391 175.194243 
L 211.467294 179.100638 
L 203.841786 185.968896 
z
" style="fill:#6d273f;"/>
    <path clip-path="url(#peaec05769b)" d="M 206.297214 168.527892 
L 218.949524 172.361429 
L 218.79186 113.736651 
L 205.772304 110.117042 
z
" style="fill:#d47046;"/>
    <path clip-path="url(#peaec05769b)" d="M 239.002775 169.551023 
L 239.627837 84.022468 
L 247.050975 78.010064 
L 246.131049 162.989229 
z
" style="fill:#d4da20;"/>
    <path clip-path="url(#peaec05769b)" d="M 239.002775 169.551023 
L 246.131049 162.989229 
L 247.057799 77.379717 
L 239.632475 83.387793 
z
" style="fill:#64680e;"/>
    <path clip-path="url(#peaec05769b)" d="M 198.736391 175.194243 
L 198.040799 120.830473 
L 205.811749 114.506378 
L 206.297214 168.527892 
z
" style="fill:#cd634f;"/>
    <path clip-path="url(#peaec05769b)" d="M 170.430723 184.897786 
L 178.361455 178.049733 
L 178.354775 177.759414 
L 170.422815 184.605696 
z
" style="fill:#050338;"/>
    <path clip-path="url(#peaec05769b)" d="M 257.743589 184.115686 
L 257.829354 179.001387 
L 264.942873 172.199194 
L 264.839875 177.282368 
z
" style="fill:#2a0484;"/>
    <path clip-path="url(#peaec05769b)" d="M 224.338378 183.050047 
L 231.739835 176.23678 
L 244.670417 180.154631 
L 237.351973 187.043183 
z
" style="fill:#875e1a;"/>
    <path clip-path="url(#peaec05769b)" d="M 170.430723 184.897786 
L 170.39163 183.4538 
L 178.32843 176.614513 
L 178.361455 178.049733 
z
" style="fill:#13067a;"/>
    <path clip-path="url(#peaec05769b)" d="M 291.24765 185.184478 
L 298.036935 178.33102 
L 298.073485 177.340229 
L 291.281151 184.187638 
z
" style="fill:#080339;"/>
    <path clip-path="url(#peaec05769b)" d="M 226.292478 165.747667 
L 226.372204 83.725719 
L 239.604441 87.223816 
L 239.002775 169.551023 
z
" style="fill:#666010;"/>
    <path clip-path="url(#peaec05769b)" d="M 213.386099 99.031397 
L 226.353894 102.563443 
L 233.785213 96.470346 
L 220.899475 93.004967 
z
" style="fill:#be7033;"/>
    <path clip-path="url(#peaec05769b)" d="M 257.743589 184.115686 
L 264.839875 177.282368 
L 277.971253 181.211726 
L 270.961723 188.120663 
z
" style="fill:#190350;"/>
    <path clip-path="url(#peaec05769b)" d="M 226.292478 165.747667 
L 239.002775 169.551023 
L 239.632475 83.387793 
L 226.375918 79.904801 
z
" style="fill:#d4dc1e;"/>
    <path clip-path="url(#peaec05769b)" d="M 157.822766 180.928173 
L 170.430723 184.897786 
L 170.422815 184.605696 
L 157.813063 180.637107 
z
" style="fill:#0b0777;"/>
    <path clip-path="url(#peaec05769b)" d="M 157.822766 180.928173 
L 157.808837 180.510344 
L 170.419371 184.478487 
L 170.430723 184.897786 
z
" style="fill:#050338;"/>
    <path clip-path="url(#peaec05769b)" d="M 277.971253 181.211726 
L 277.989647 180.527562 
L 291.270724 184.497906 
L 291.24765 185.184478 
z
" style="fill:#070339;"/>
    <path clip-path="url(#peaec05769b)" d="M 277.971253 181.211726 
L 291.24765 185.184478 
L 291.281151 184.187638 
L 277.997959 180.218384 
z
" style="fill:#110679;"/>
    <path clip-path="url(#peaec05769b)" d="M 170.430723 184.897786 
L 178.361455 178.049733 
L 191.031582 181.987547 
L 183.178635 188.911464 
z
" style="fill:#0c044a;"/>
    <path clip-path="url(#peaec05769b)" d="M 218.949524 172.361429 
L 218.727511 89.809649 
L 226.372204 83.725719 
L 226.292478 165.747667 
z
" style="fill:#d9cd22;"/>
    <path clip-path="url(#peaec05769b)" d="M 170.39163 183.4538 
L 183.148621 187.462385 
L 191.007526 180.547275 
L 178.32843 176.614513 
z
" style="fill:#11056a;"/>
    <path clip-path="url(#peaec05769b)" d="M 264.839875 177.282368 
L 271.803162 170.57712 
L 273.156664 113.38753 
L 266.006052 119.729274 
z
" style="fill:#633322;"/>
    <path clip-path="url(#peaec05769b)" d="M 233.848809 82.470277 
L 246.965349 85.919828 
L 254.220044 79.969107 
L 241.188156 76.584839 
z
" style="fill:#c1a01c;"/>
    <path clip-path="url(#peaec05769b)" d="M 149.662704 187.831639 
L 149.646916 187.411259 
L 157.808837 180.510344 
L 157.822766 180.928173 
z
" style="fill:#0b0777;"/>
    <path clip-path="url(#peaec05769b)" d="M 203.841786 185.968896 
L 211.467294 179.100638 
L 224.338378 183.050047 
L 216.794403 189.994506 
z
" style="fill:#7d3d2f;"/>
    <path clip-path="url(#peaec05769b)" d="M 257.829354 179.001387 
L 271.08209 182.988276 
L 278.108396 176.110614 
L 264.942873 172.199194 
z
" style="fill:#240473;"/>
    <path clip-path="url(#peaec05769b)" d="M 270.961723 188.120663 
L 270.977866 187.432319 
L 277.989647 180.527562 
L 277.971253 181.211726 
z
" style="fill:#0e0678;"/>
    <path clip-path="url(#peaec05769b)" d="M 198.736391 175.194243 
L 198.186767 132.238493 
L 211.189431 135.988941 
L 211.467294 179.100638 
z
" style="fill:#551e32;"/>
    <path clip-path="url(#peaec05769b)" d="M 251.851153 173.395697 
L 252.59286 119.405197 
L 265.937866 123.094369 
L 264.839875 177.282368 
z
" style="fill:#602e26;"/>
    <path clip-path="url(#peaec05769b)" d="M 251.851153 173.395697 
L 258.898031 166.762758 
L 260.36507 81.467072 
L 253.030514 87.547453 
z
" style="fill:#64670f;"/>
    <path clip-path="url(#peaec05769b)" d="M 259.876021 109.901086 
L 273.153822 113.507593 
L 280.167534 107.286142 
L 266.977341 103.747973 
z
" style="fill:#b65d3f;"/>
    <path clip-path="url(#peaec05769b)" d="M 211.467294 179.100638 
L 218.949524 172.361429 
L 218.803709 118.142706 
L 211.115627 124.537802 
z
" style="fill:#612f25;"/>
    <path clip-path="url(#peaec05769b)" d="M 251.851153 173.395697 
L 264.839875 177.282368 
L 266.006052 119.729274 
L 252.638914 116.05289 
z
" style="fill:#d26d48;"/>
    <path clip-path="url(#peaec05769b)" d="M 270.961723 188.120663 
L 277.971253 181.211726 
L 278.108396 176.110614 
L 271.08209 182.988276 
z
" style="fill:#14023e;"/>
    <path clip-path="url(#peaec05769b)" d="M 237.351973 187.043183 
L 244.670417 180.154631 
L 257.743589 184.115686 
L 250.510457 191.080779 
z
" style="fill:#732e3a;"/>
    <path clip-path="url(#peaec05769b)" d="M 183.178635 188.911464 
L 191.031582 181.987547 
L 191.007526 180.547275 
L 183.148621 187.462385 
z
" style="fill:#09033a;"/>
    <path clip-path="url(#peaec05769b)" d="M 239.002775 169.551023 
L 239.60323 87.389469 
L 252.984076 90.927791 
L 251.851153 173.395697 
z
" style="fill:#676010;"/>
    <path clip-path="url(#peaec05769b)" d="M 191.031582 181.987547 
L 190.309595 138.761169 
L 198.186767 132.238493 
L 198.736391 175.194243 
z
" style="fill:#b54069;"/>
    <path clip-path="url(#peaec05769b)" d="M 149.662704 187.831639 
L 157.822766 180.928173 
L 170.430723 184.897786 
L 162.346885 191.878042 
z
" style="fill:#070448;"/>
    <path clip-path="url(#peaec05769b)" d="M 244.670417 180.154631 
L 245.223889 125.821379 
L 252.59286 119.405197 
L 251.851153 173.395697 
z
" style="fill:#cc6250;"/>
    <path clip-path="url(#peaec05769b)" d="M 149.646916 187.411259 
L 162.333705 191.456179 
L 170.419371 184.478487 
L 157.808837 180.510344 
z
" style="fill:#0a0667;"/>
    <path clip-path="url(#peaec05769b)" d="M 218.949524 172.361429 
L 218.763439 103.168907 
L 231.996861 106.788385 
L 231.739835 176.23678 
z
" style="fill:#694716;"/>
    <path clip-path="url(#peaec05769b)" d="M 239.002775 169.551023 
L 251.851153 173.395697 
L 253.030514 87.547453 
L 239.627837 84.022468 
z
" style="fill:#d4da20;"/>
    <path clip-path="url(#peaec05769b)" d="M 270.961723 188.120663 
L 277.971253 181.211726 
L 291.24765 185.184478 
L 284.327244 192.170297 
z
" style="fill:#090449;"/>
    <path clip-path="url(#peaec05769b)" d="M 257.743589 184.115686 
L 257.796506 180.960139 
L 271.03599 184.953973 
L 270.961723 188.120663 
z
" style="fill:#0f023c;"/>
    <path clip-path="url(#peaec05769b)" d="M 198.736391 175.194243 
L 211.467294 179.100638 
L 211.115627 124.537802 
L 198.040799 120.830473 
z
" style="fill:#cd634f;"/>
    <path clip-path="url(#peaec05769b)" d="M 270.977866 187.432319 
L 284.348131 191.479524 
L 291.270724 184.497906 
L 277.989647 180.527562 
z
" style="fill:#0c0668;"/>
    <path clip-path="url(#peaec05769b)" d="M 257.743589 184.115686 
L 270.961723 188.120663 
L 271.08209 182.988276 
L 257.829354 179.001387 
z
" style="fill:#2a0484;"/>
    <path clip-path="url(#peaec05769b)" d="M 170.430723 184.897786 
L 170.406716 184.011053 
L 183.160203 188.021605 
L 183.178635 188.911464 
z
" style="fill:#080339;"/>
    <path clip-path="url(#peaec05769b)" d="M 170.430723 184.897786 
L 183.178635 188.911464 
L 183.148621 187.462385 
L 170.39163 183.4538 
z
" style="fill:#13067a;"/>
    <path clip-path="url(#peaec05769b)" d="M 183.178635 188.911464 
L 191.031582 181.987547 
L 203.841786 185.968896 
L 196.068846 192.969946 
z
" style="fill:#5a1350;"/>
    <path clip-path="url(#peaec05769b)" d="M 231.739835 176.23678 
L 232.04588 93.543501 
L 239.60323 87.389469 
L 239.002775 169.551023 
z
" style="fill:#dacb21;"/>
    <path clip-path="url(#peaec05769b)" d="M 231.739835 176.23678 
L 239.002775 169.551023 
L 239.604441 87.223816 
L 232.046497 93.376712 
z
" style="fill:#666010;"/>
    <path clip-path="url(#peaec05769b)" d="M 205.772304 110.117042 
L 218.79186 113.736651 
L 226.349102 107.49268 
L 213.411992 103.94188 
z
" style="fill:#b8613c;"/>
    <path clip-path="url(#peaec05769b)" d="M 211.467294 179.100638 
L 211.018473 109.464031 
L 218.763439 103.168907 
L 218.949524 172.361429 
z
" style="fill:#df962e;"/>
    <path clip-path="url(#peaec05769b)" d="M 250.510457 191.080779 
L 250.552316 187.905897 
L 257.796506 180.960139 
L 257.743589 184.115686 
z
" style="fill:#200580;"/>
    <path clip-path="url(#peaec05769b)" d="M 162.346885 191.878042 
L 170.430723 184.897786 
L 170.419371 184.478487 
L 162.333705 191.456179 
z
" style="fill:#050338;"/>
    <path clip-path="url(#peaec05769b)" d="M 216.794403 189.994506 
L 224.338378 183.050047 
L 237.351973 187.043183 
L 229.891821 194.06512 
z
" style="fill:#7c3c2f;"/>
    <path clip-path="url(#peaec05769b)" d="M 162.346885 191.878042 
L 162.319012 190.985885 
L 170.406716 184.011053 
L 170.430723 184.897786 
z
" style="fill:#110679;"/>
    <path clip-path="url(#peaec05769b)" d="M 284.327244 192.170297 
L 291.24765 185.184478 
L 291.270724 184.497906 
L 284.348131 191.479524 
z
" style="fill:#070339;"/>
    <path clip-path="url(#peaec05769b)" d="M 246.98503 84.101861 
L 260.259882 87.582849 
L 267.433489 81.578052 
L 254.245786 78.163361 
z
" style="fill:#c0a61c;"/>
    <path clip-path="url(#peaec05769b)" d="M 218.949524 172.361429 
L 231.739835 176.23678 
L 232.046497 93.376712 
L 218.727511 89.809649 
z
" style="fill:#d9cd22;"/>
    <path clip-path="url(#peaec05769b)" d="M 250.510457 191.080779 
L 257.743589 184.115686 
L 270.961723 188.120663 
L 263.816264 195.163579 
z
" style="fill:#13034d;"/>
    <path clip-path="url(#peaec05769b)" d="M 191.031582 181.987547 
L 190.498309 150.059751 
L 203.511773 153.925869 
L 203.841786 185.968896 
z
" style="fill:#470f3e;"/>
    <path clip-path="url(#peaec05769b)" d="M 149.662704 187.831639 
L 149.6548 187.621178 
L 162.340286 191.666839 
L 162.346885 191.878042 
z
" style="fill:#050338;"/>
    <path clip-path="url(#peaec05769b)" d="M 149.662704 187.831639 
L 162.346885 191.878042 
L 162.333705 191.456179 
L 149.646916 187.411259 
z
" style="fill:#0b0777;"/>
    <path clip-path="url(#peaec05769b)" d="M 270.961723 188.120663 
L 270.972171 187.675153 
L 284.340763 191.723215 
L 284.327244 192.170297 
z
" style="fill:#050338;"/>
    <path clip-path="url(#peaec05769b)" d="M 270.961723 188.120663 
L 284.327244 192.170297 
L 284.348131 191.479524 
L 270.977866 187.432319 
z
" style="fill:#0e0678;"/>
    <path clip-path="url(#peaec05769b)" d="M 203.841786 185.968896 
L 211.467294 179.100638 
L 211.189431 135.988941 
L 203.394974 142.585151 
z
" style="fill:#551e32;"/>
    <path clip-path="url(#peaec05769b)" d="M 162.346885 191.878042 
L 170.430723 184.897786 
L 183.178635 188.911464 
L 175.173234 195.969799 
z
" style="fill:#0a0449;"/>
    <path clip-path="url(#peaec05769b)" d="M 257.743589 184.115686 
L 264.839875 177.282368 
L 265.937866 123.094369 
L 258.658086 129.583092 
z
" style="fill:#602e26;"/>
    <path clip-path="url(#peaec05769b)" d="M 244.670417 180.154631 
L 245.151954 132.883101 
L 258.539213 136.671649 
L 257.743589 184.115686 
z
" style="fill:#5a242d;"/>
    <path clip-path="url(#peaec05769b)" d="M 162.319012 190.985885 
L 175.151004 195.074489 
L 183.160203 188.021605 
L 170.406716 184.011053 
z
" style="fill:#0f0569;"/>
    <path clip-path="url(#peaec05769b)" d="M 250.552316 187.905897 
L 263.879759 191.977463 
L 271.03599 184.953973 
L 257.796506 180.960139 
z
" style="fill:#1b046f;"/>
    <path clip-path="url(#peaec05769b)" d="M 231.739835 176.23678 
L 232.00309 105.105374 
L 245.397693 108.759368 
L 244.670417 180.154631 
z
" style="fill:#6a4a14;"/>
    <path clip-path="url(#peaec05769b)" d="M 211.467294 179.100638 
L 211.111087 123.83338 
L 224.338378 127.579961 
L 224.338378 183.050047 
z
" style="fill:#613024;"/>
    <path clip-path="url(#peaec05769b)" d="M 183.178635 188.911464 
L 182.51319 156.783712 
L 190.498309 150.059751 
L 191.031582 181.987547 
z
" style="fill:#961f84;"/>
    <path clip-path="url(#peaec05769b)" d="M 141.344465 194.868925 
L 141.335595 194.657176 
L 149.6548 187.621178 
L 149.662704 187.831639 
z
" style="fill:#0b0777;"/>
    <path clip-path="url(#peaec05769b)" d="M 196.068846 192.969946 
L 203.841786 185.968896 
L 216.794403 189.994506 
L 209.103753 197.073984 
z
" style="fill:#682144;"/>
    <path clip-path="url(#peaec05769b)" d="M 244.670417 180.154631 
L 251.851153 173.395697 
L 252.984076 90.927791 
L 245.515933 97.151975 
z
" style="fill:#676010;"/>
    <path clip-path="url(#peaec05769b)" d="M 263.816264 195.163579 
L 263.825196 194.715342 
L 270.972171 187.675153 
L 270.961723 188.120663 
z
" style="fill:#0b0777;"/>
    <path clip-path="url(#peaec05769b)" d="M 191.031582 181.987547 
L 203.841786 185.968896 
L 203.394974 142.585151 
L 190.309595 138.761169 
z
" style="fill:#b54069;"/>
    <path clip-path="url(#peaec05769b)" d="M 244.670417 180.154631 
L 257.743589 184.115686 
L 258.658086 129.583092 
L 245.223889 125.821379 
z
" style="fill:#cc6250;"/>
    <path clip-path="url(#peaec05769b)" d="M 224.338378 183.050047 
L 231.739835 176.23678 
L 231.996861 106.788385 
L 224.338378 113.155108 
z
" style="fill:#694716;"/>
    <path clip-path="url(#peaec05769b)" d="M 237.351973 187.043183 
L 237.663208 139.472288 
L 245.151954 132.883101 
L 244.670417 180.154631 
z
" style="fill:#be4c60;"/>
    <path clip-path="url(#peaec05769b)" d="M 263.816264 195.163579 
L 270.961723 188.120663 
L 271.03599 184.953973 
L 263.879759 191.977463 
z
" style="fill:#0f023c;"/>
    <path clip-path="url(#peaec05769b)" d="M 252.638914 116.05289 
L 266.006052 119.729274 
L 273.156664 113.38753 
L 259.878078 109.781479 
z
" style="fill:#b65e3e;"/>
    <path clip-path="url(#peaec05769b)" d="M 224.338378 183.050047 
L 224.338378 111.460701 
L 232.00309 105.105374 
L 231.739835 176.23678 
z
" style="fill:#e09c2b;"/>
    <path clip-path="url(#peaec05769b)" d="M 203.841786 185.968896 
L 203.26896 130.349643 
L 211.111087 123.83338 
L 211.467294 179.100638 
z
" style="fill:#ce654d;"/>
    <path clip-path="url(#peaec05769b)" d="M 229.891821 194.06512 
L 237.351973 187.043183 
L 250.510457 191.080779 
L 243.136481 198.181496 
z
" style="fill:#682144;"/>
    <path clip-path="url(#peaec05769b)" d="M 175.173234 195.969799 
L 183.178635 188.911464 
L 183.160203 188.021605 
L 175.151004 195.074489 
z
" style="fill:#080339;"/>
    <path clip-path="url(#peaec05769b)" d="M 231.739835 176.23678 
L 244.670417 180.154631 
L 245.515933 97.151975 
L 232.04588 93.543501 
z
" style="fill:#dacb21;"/>
    <path clip-path="url(#peaec05769b)" d="M 198.040799 120.830473 
L 211.115627 124.537802 
L 218.803709 118.142706 
L 205.811749 114.506378 
z
" style="fill:#b25644;"/>
    <path clip-path="url(#peaec05769b)" d="M 141.344465 194.868925 
L 149.662704 187.831639 
L 162.346885 191.878042 
L 154.105465 198.994368 
z
" style="fill:#070448;"/>
    <path clip-path="url(#peaec05769b)" d="M 141.335595 194.657176 
L 154.097917 198.78187 
L 162.340286 191.666839 
L 149.6548 187.621178 
z
" style="fill:#0a0667;"/>
    <path clip-path="url(#peaec05769b)" d="M 250.510457 191.080779 
L 250.540273 188.819353 
L 263.86149 192.894157 
L 263.816264 195.163579 
z
" style="fill:#0c033b;"/>
    <path clip-path="url(#peaec05769b)" d="M 211.467294 179.100638 
L 224.338378 183.050047 
L 224.338378 113.155108 
L 211.018473 109.464031 
z
" style="fill:#df962e;"/>
    <path clip-path="url(#peaec05769b)" d="M 263.816264 195.163579 
L 270.961723 188.120663 
L 284.327244 192.170297 
L 277.271882 199.292348 
z
" style="fill:#070448;"/>
    <path clip-path="url(#peaec05769b)" d="M 250.510457 191.080779 
L 263.816264 195.163579 
L 263.879759 191.977463 
L 250.552316 187.905897 
z
" style="fill:#200580;"/>
    <path clip-path="url(#peaec05769b)" d="M 263.825196 194.715342 
L 277.283927 198.842527 
L 284.340763 191.723215 
L 270.972171 187.675153 
z
" style="fill:#0a0667;"/>
    <path clip-path="url(#peaec05769b)" d="M 162.346885 191.878042 
L 162.326391 191.222065 
L 175.156889 195.311505 
L 175.173234 195.969799 
z
" style="fill:#070339;"/>
    <path clip-path="url(#peaec05769b)" d="M 162.346885 191.878042 
L 175.173234 195.969799 
L 175.151004 195.074489 
L 162.319012 190.985885 
z
" style="fill:#110679;"/>
    <path clip-path="url(#peaec05769b)" d="M 226.375918 79.904801 
L 239.632475 83.387793 
L 247.057799 77.379717 
L 233.887451 73.96354 
z
" style="fill:#b8bf1a;"/>
    <path clip-path="url(#peaec05769b)" d="M 175.173234 195.969799 
L 183.178635 188.911464 
L 196.068846 192.969946 
L 188.144156 200.107676 
z
" style="fill:#3f015a;"/>
    <path clip-path="url(#peaec05769b)" d="M 183.178635 188.911464 
L 182.767026 169.038945 
L 195.784549 173.026212 
L 196.068846 192.969946 
z
" style="fill:#310046;"/>
    <path clip-path="url(#peaec05769b)" d="M 243.136481 198.181496 
L 243.158106 195.906195 
L 250.540273 188.819353 
L 250.510457 191.080779 
z
" style="fill:#1a057d;"/>
    <path clip-path="url(#peaec05769b)" d="M 224.338378 183.050047 
L 224.338378 127.610573 
L 237.716022 131.399915 
L 237.351973 187.043183 
z
" style="fill:#612f25;"/>
    <path clip-path="url(#peaec05769b)" d="M 203.841786 185.968896 
L 203.431034 146.086457 
L 216.642364 149.967041 
L 216.794403 189.994506 
z
" style="fill:#511a35;"/>
    <path clip-path="url(#peaec05769b)" d="M 196.068846 192.969946 
L 203.841786 185.968896 
L 203.511773 153.925869 
L 195.60921 160.725951 
z
" style="fill:#470f3e;"/>
    <path clip-path="url(#peaec05769b)" d="M 154.105465 198.994368 
L 162.346885 191.878042 
L 162.340286 191.666839 
L 154.097917 198.78187 
z
" style="fill:#050338;"/>
    <path clip-path="url(#peaec05769b)" d="M 154.105465 198.994368 
L 154.08202 198.33437 
L 162.326391 191.222065 
L 162.346885 191.878042 
z
" style="fill:#0e0678;"/>
    <path clip-path="url(#peaec05769b)" d="M 209.103753 197.073984 
L 216.794403 189.994506 
L 229.891821 194.06512 
L 222.285805 201.224351 
z
" style="fill:#661e46;"/>
    <path clip-path="url(#peaec05769b)" d="M 277.271882 199.292348 
L 284.327244 192.170297 
L 284.340763 191.723215 
L 277.283927 198.842527 
z
" style="fill:#050338;"/>
    <path clip-path="url(#peaec05769b)" d="M 175.173234 195.969799 
L 174.676749 175.973712 
L 182.767026 169.038945 
L 183.178635 188.911464 
z
" style="fill:#690195;"/>
    <path clip-path="url(#peaec05769b)" d="M 190.309595 138.761169 
L 203.394974 142.585151 
L 211.189431 135.988941 
L 198.186767 132.238493 
z
" style="fill:#9d385b;"/>
    <path clip-path="url(#peaec05769b)" d="M 250.510457 191.080779 
L 257.743589 184.115686 
L 258.539213 136.671649 
L 251.139961 143.335807 
z
" style="fill:#5a242d;"/>
    <path clip-path="url(#peaec05769b)" d="M 237.351973 187.043183 
L 237.613385 147.087586 
L 251.039177 150.979827 
L 250.510457 191.080779 
z
" style="fill:#511a35;"/>
    <path clip-path="url(#peaec05769b)" d="M 237.351973 187.043183 
L 244.670417 180.154631 
L 245.397693 108.759368 
L 237.822093 115.187452 
z
" style="fill:#6a4a14;"/>
    <path clip-path="url(#peaec05769b)" d="M 216.794403 189.994506 
L 216.582481 134.201363 
L 224.338378 127.610573 
L 224.338378 183.050047 
z
" style="fill:#ce644e;"/>
    <path clip-path="url(#peaec05769b)" d="M 216.794403 189.994506 
L 224.338378 183.050047 
L 224.338378 127.579961 
L 216.582364 134.170548 
z
" style="fill:#613024;"/>
    <path clip-path="url(#peaec05769b)" d="M 243.136481 198.181496 
L 250.510457 191.080779 
L 263.816264 195.163579 
L 256.530882 202.34441 
z
" style="fill:#10034c;"/>
    <path clip-path="url(#peaec05769b)" d="M 196.068846 192.969946 
L 195.496737 152.835843 
L 203.431034 146.086457 
L 203.841786 185.968896 
z
" style="fill:#ac3671;"/>
    <path clip-path="url(#peaec05769b)" d="M 183.178635 188.911464 
L 196.068846 192.969946 
L 195.60921 160.725951 
L 182.51319 156.783712 
z
" style="fill:#961f84;"/>
    <path clip-path="url(#peaec05769b)" d="M 141.344465 194.868925 
L 154.105465 198.994368 
L 154.097917 198.78187 
L 141.335595 194.657176 
z
" style="fill:#0b0777;"/>
    <path clip-path="url(#peaec05769b)" d="M 263.816264 195.163579 
L 263.82355 194.797965 
L 277.281706 198.925441 
L 277.271882 199.292348 
z
" style="fill:#050338;"/>
    <path clip-path="url(#peaec05769b)" d="M 263.816264 195.163579 
L 277.271882 199.292348 
L 277.283927 198.842527 
L 263.825196 194.715342 
z
" style="fill:#0b0777;"/>
    <path clip-path="url(#peaec05769b)" d="M 154.105465 198.994368 
L 162.346885 191.878042 
L 175.173234 195.969799 
L 167.010898 203.166503 
z
" style="fill:#090449;"/>
    <path clip-path="url(#peaec05769b)" d="M 243.158106 195.906195 
L 256.568124 200.061049 
L 263.86149 192.894157 
L 250.540273 188.819353 
z
" style="fill:#17056d;"/>
    <path clip-path="url(#peaec05769b)" d="M 154.08202 198.33437 
L 166.991652 202.50417 
L 175.156889 195.311505 
L 162.326391 191.222065 
z
" style="fill:#0c0668;"/>
    <path clip-path="url(#peaec05769b)" d="M 237.351973 187.043183 
L 250.510457 191.080779 
L 251.139961 143.335807 
L 237.663208 139.472288 
z
" style="fill:#be4c60;"/>
    <path clip-path="url(#peaec05769b)" d="M 229.891821 194.06512 
L 230.004478 153.857291 
L 237.613385 147.087586 
L 237.351973 187.043183 
z
" style="fill:#ac3671;"/>
    <path clip-path="url(#peaec05769b)" d="M 224.338378 183.050047 
L 237.351973 187.043183 
L 237.822093 115.187452 
L 224.338378 111.460701 
z
" style="fill:#e09c2b;"/>
    <path clip-path="url(#peaec05769b)" d="M 203.841786 185.968896 
L 216.794403 189.994506 
L 216.582364 134.170548 
L 203.26896 130.349643 
z
" style="fill:#ce654d;"/>
    <path clip-path="url(#peaec05769b)" d="M 245.223889 125.821379 
L 258.658086 129.583092 
L 265.937866 123.094369 
L 252.59286 119.405197 
z
" style="fill:#b15545;"/>
    <path clip-path="url(#peaec05769b)" d="M 239.627837 84.022468 
L 253.030514 87.547453 
L 260.36507 81.467072 
L 247.050975 78.010064 
z
" style="fill:#b8bd1c;"/>
    <path clip-path="url(#peaec05769b)" d="M 188.144156 200.107676 
L 196.068846 192.969946 
L 209.103753 197.073984 
L 201.262108 204.292457 
z
" style="fill:#480459;"/>
    <path clip-path="url(#peaec05769b)" d="M 256.530882 202.34441 
L 256.536881 201.976553 
L 263.82355 194.797965 
L 263.816264 195.163579 
z
" style="fill:#0b0777;"/>
    <path clip-path="url(#peaec05769b)" d="M 216.794403 189.994506 
L 216.647562 151.335297 
L 230.000533 155.265274 
L 229.891821 194.06512 
z
" style="fill:#501837;"/>
    <path clip-path="url(#peaec05769b)" d="M 182.51319 156.783712 
L 195.60921 160.725951 
L 203.511773 153.925869 
L 190.498309 150.059751 
z
" style="fill:#821b72;"/>
    <path clip-path="url(#peaec05769b)" d="M 256.530882 202.34441 
L 263.816264 195.163579 
L 263.86149 192.894157 
L 256.568124 200.061049 
z
" style="fill:#0c033b;"/>
    <path clip-path="url(#peaec05769b)" d="M 175.173234 195.969799 
L 175.000827 189.026066 
L 188.016516 193.139264 
L 188.144156 200.107676 
z
" style="fill:#180240;"/>
    <path clip-path="url(#peaec05769b)" d="M 196.068846 192.969946 
L 195.733864 169.470544 
L 208.922204 173.490025 
L 209.103753 197.073984 
z
" style="fill:#380345;"/>
    <path clip-path="url(#peaec05769b)" d="M 167.010898 203.166503 
L 175.173234 195.969799 
L 175.156889 195.311505 
L 166.991652 202.50417 
z
" style="fill:#070339;"/>
    <path clip-path="url(#peaec05769b)" d="M 222.285805 201.224351 
L 229.891821 194.06512 
L 243.136481 198.181496 
L 235.617509 205.421836 
z
" style="fill:#520b55;"/>
    <path clip-path="url(#peaec05769b)" d="M 218.727511 89.809649 
L 232.046497 93.376712 
L 239.604441 87.223816 
L 226.372204 83.725719 
z
" style="fill:#bcb21d;"/>
    <path clip-path="url(#peaec05769b)" d="M 188.144156 200.107676 
L 196.068846 192.969946 
L 195.784549 173.026212 
L 187.776574 180.039775 
z
" style="fill:#310046;"/>
    <path clip-path="url(#peaec05769b)" d="M 243.136481 198.181496 
L 243.150731 196.68219 
L 256.555422 200.839796 
L 256.530882 202.34441 
z
" style="fill:#0a033a;"/>
    <path clip-path="url(#peaec05769b)" d="M 243.136481 198.181496 
L 256.530882 202.34441 
L 256.568124 200.061049 
L 243.158106 195.906195 
z
" style="fill:#1a057d;"/>
    <path clip-path="url(#peaec05769b)" d="M 209.103753 197.073984 
L 208.804276 158.170735 
L 216.647562 151.335297 
L 216.794403 189.994506 
z
" style="fill:#a93274;"/>
    <path clip-path="url(#peaec05769b)" d="M 229.891821 194.06512 
L 237.351973 187.043183 
L 237.716022 131.399915 
L 230.048722 138.066309 
z
" style="fill:#612f25;"/>
    <path clip-path="url(#peaec05769b)" d="M 256.530882 202.34441 
L 263.816264 195.163579 
L 277.271882 199.292348 
L 270.077576 206.554656 
z
" style="fill:#070448;"/>
    <path clip-path="url(#peaec05769b)" d="M 167.010898 203.166503 
L 166.807891 196.179952 
L 175.000827 189.026066 
L 175.173234 195.969799 
z
" style="fill:#320488;"/>
    <path clip-path="url(#peaec05769b)" d="M 188.144156 200.107676 
L 187.711032 176.461556 
L 195.733864 169.470544 
L 196.068846 192.969946 
z
" style="fill:#770693;"/>
    <path clip-path="url(#peaec05769b)" d="M 209.103753 197.073984 
L 216.794403 189.994506 
L 216.642364 149.967041 
L 208.793674 156.793571 
z
" style="fill:#511a35;"/>
    <path clip-path="url(#peaec05769b)" d="M 256.536881 201.976553 
L 270.086149 206.185497 
L 277.281706 198.925441 
L 263.82355 194.797965 
z
" style="fill:#0a0667;"/>
    <path clip-path="url(#peaec05769b)" d="M 154.105465 198.994368 
L 167.010898 203.166503 
L 166.991652 202.50417 
L 154.08202 198.33437 
z
" style="fill:#0e0678;"/>
    <path clip-path="url(#peaec05769b)" d="M 229.891821 194.06512 
L 229.970599 165.948815 
L 243.404662 169.963618 
L 243.136481 198.181496 
z
" style="fill:#400942;"/>
    <path clip-path="url(#peaec05769b)" d="M 167.010898 203.166503 
L 175.173234 195.969799 
L 188.144156 200.107676 
L 180.063228 207.386128 
z
" style="fill:#1e0252;"/>
    <path clip-path="url(#peaec05769b)" d="M 175.173234 195.969799 
L 188.144156 200.107676 
L 187.776574 180.039775 
L 174.676749 175.973712 
z
" style="fill:#690195;"/>
    <path clip-path="url(#peaec05769b)" d="M 174.676749 175.973712 
L 187.776574 180.039775 
L 195.784549 173.026212 
L 182.767026 169.038945 
z
" style="fill:#5b0181;"/>
    <path clip-path="url(#peaec05769b)" d="M 243.136481 198.181496 
L 250.510457 191.080779 
L 251.039177 150.979827 
L 243.520008 157.827029 
z
" style="fill:#511a35;"/>
    <path clip-path="url(#peaec05769b)" d="M 235.617509 205.421836 
L 235.626143 203.913321 
L 243.150731 196.68219 
L 243.136481 198.181496 
z
" style="fill:#16067b;"/>
    <path clip-path="url(#peaec05769b)" d="M 216.794403 189.994506 
L 229.891821 194.06512 
L 230.048722 138.066309 
L 216.582481 134.201363 
z
" style="fill:#ce644e;"/>
    <path clip-path="url(#peaec05769b)" d="M 196.068846 192.969946 
L 209.103753 197.073984 
L 208.793674 156.793571 
L 195.496737 152.835843 
z
" style="fill:#ac3671;"/>
    <path clip-path="url(#peaec05769b)" d="M 211.018473 109.464031 
L 224.338378 113.155108 
L 231.996861 106.788385 
L 218.763439 103.168907 
z
" style="fill:#c28228;"/>
    <path clip-path="url(#peaec05769b)" d="M 201.262108 204.292457 
L 209.103753 197.073984 
L 222.285805 201.224351 
L 214.529606 208.524945 
z
" style="fill:#480459;"/>
    <path clip-path="url(#peaec05769b)" d="M 237.663208 139.472288 
L 251.139961 143.335807 
L 258.539213 136.671649 
L 245.151954 132.883101 
z
" style="fill:#a54253;"/>
    <path clip-path="url(#peaec05769b)" d="M 222.285805 201.224351 
L 222.2564 172.931803 
L 229.970599 165.948815 
L 229.891821 194.06512 
z
" style="fill:#87128d;"/>
    <path clip-path="url(#peaec05769b)" d="M 270.077576 206.554656 
L 277.271882 199.292348 
L 277.281706 198.925441 
L 270.086149 206.185497 
z
" style="fill:#050338;"/>
    <path clip-path="url(#peaec05769b)" d="M 229.891821 194.06512 
L 243.136481 198.181496 
L 243.520008 157.827029 
L 230.004478 153.857291 
z
" style="fill:#ac3671;"/>
    <path clip-path="url(#peaec05769b)" d="M 209.103753 197.073984 
L 208.920465 173.264235 
L 222.26097 177.328805 
L 222.285805 201.224351 
z
" style="fill:#380345;"/>
    <path clip-path="url(#peaec05769b)" d="M 188.144156 200.107676 
L 187.981513 191.228293 
L 201.157822 195.381434 
L 201.262108 204.292457 
z
" style="fill:#1c0142;"/>
    <path clip-path="url(#peaec05769b)" d="M 235.617509 205.421836 
L 243.136481 198.181496 
L 256.530882 202.34441 
L 249.101427 209.667246 
z
" style="fill:#0d034a;"/>
    <path clip-path="url(#peaec05769b)" d="M 232.04588 93.543501 
L 245.515933 97.151975 
L 252.984076 90.927791 
L 239.60323 87.389469 
z
" style="fill:#bdb01d;"/>
    <path clip-path="url(#peaec05769b)" d="M 166.807891 196.179952 
L 179.905546 200.374701 
L 188.016516 193.139264 
L 175.000827 189.026066 
z
" style="fill:#2b0376;"/>
    <path clip-path="url(#peaec05769b)" d="M 235.626143 203.913321 
L 249.120491 208.153381 
L 256.555422 200.839796 
L 243.150731 196.68219 
z
" style="fill:#13056b;"/>
    <path clip-path="url(#peaec05769b)" d="M 256.530882 202.34441 
L 270.077576 206.554656 
L 270.086149 206.185497 
L 256.536881 201.976553 
z
" style="fill:#0b0777;"/>
    <path clip-path="url(#peaec05769b)" d="M 256.530882 202.34441 
L 256.537433 201.942716 
L 270.086937 206.15154 
L 270.077576 206.554656 
z
" style="fill:#050338;"/>
    <path clip-path="url(#peaec05769b)" d="M 203.26896 130.349643 
L 216.582364 134.170548 
L 224.338378 127.579961 
L 211.111087 123.83338 
z
" style="fill:#b35843;"/>
    <path clip-path="url(#peaec05769b)" d="M 222.285805 201.224351 
L 229.891821 194.06512 
L 230.000533 155.265274 
L 222.245224 162.179236 
z
" style="fill:#501837;"/>
    <path clip-path="url(#peaec05769b)" d="M 180.063228 207.386128 
L 188.144156 200.107676 
L 188.016516 193.139264 
L 179.905546 200.374701 
z
" style="fill:#180240;"/>
    <path clip-path="url(#peaec05769b)" d="M 201.262108 204.292457 
L 209.103753 197.073984 
L 208.922204 173.490025 
L 200.984379 180.56107 
z
" style="fill:#380345;"/>
    <path clip-path="url(#peaec05769b)" d="M 201.262108 204.292457 
L 200.98172 180.333841 
L 208.920465 173.264235 
L 209.103753 197.073984 
z
" style="fill:#770693;"/>
    <path clip-path="url(#peaec05769b)" d="M 180.063228 207.386128 
L 179.862302 198.451849 
L 187.981513 191.228293 
L 188.144156 200.107676 
z
" style="fill:#3b038b;"/>
    <path clip-path="url(#peaec05769b)" d="M 180.063228 207.386128 
L 188.144156 200.107676 
L 201.262108 204.292457 
L 193.264978 211.654059 
z
" style="fill:#240254;"/>
    <path clip-path="url(#peaec05769b)" d="M 249.101427 209.667246 
L 249.106516 209.263085 
L 256.537433 201.942716 
L 256.530882 202.34441 
z
" style="fill:#0b0777;"/>
    <path clip-path="url(#peaec05769b)" d="M 195.496737 152.835843 
L 208.793674 156.793571 
L 216.642364 149.967041 
L 203.431034 146.086457 
z
" style="fill:#952f62;"/>
    <path clip-path="url(#peaec05769b)" d="M 249.101427 209.667246 
L 256.530882 202.34441 
L 256.555422 200.839796 
L 249.120491 208.153381 
z
" style="fill:#0a033a;"/>
    <path clip-path="url(#peaec05769b)" d="M 222.285805 201.224351 
L 222.268783 184.84626 
L 235.711584 188.985012 
L 235.617509 205.421836 
z
" style="fill:#2a0046;"/>
    <path clip-path="url(#peaec05769b)" d="M 209.103753 197.073984 
L 222.285805 201.224351 
L 222.245224 162.179236 
L 208.804276 158.170735 
z
" style="fill:#a93274;"/>
    <path clip-path="url(#peaec05769b)" d="M 167.010898 203.166503 
L 180.063228 207.386128 
L 179.905546 200.374701 
L 166.807891 196.179952 
z
" style="fill:#320488;"/>
    <path clip-path="url(#peaec05769b)" d="M 188.144156 200.107676 
L 201.262108 204.292457 
L 200.984379 180.56107 
L 187.711032 176.461556 
z
" style="fill:#770693;"/>
    <path clip-path="url(#peaec05769b)" d="M 214.529606 208.524945 
L 222.285805 201.224351 
L 235.617509 205.421836 
L 227.94922 212.80596 
z
" style="fill:#360059;"/>
    <path clip-path="url(#peaec05769b)" d="M 235.617509 205.421836 
L 243.136481 198.181496 
L 243.404662 169.963618 
L 235.780026 177.026856 
z
" style="fill:#400942;"/>
    <path clip-path="url(#peaec05769b)" d="M 230.004478 153.857291 
L 243.520008 157.827029 
L 251.039177 150.979827 
L 237.613385 147.087586 
z
" style="fill:#952f62;"/>
    <path clip-path="url(#peaec05769b)" d="M 187.711032 176.461556 
L 200.984379 180.56107 
L 208.922204 173.490025 
L 195.733864 169.470544 
z
" style="fill:#67057f;"/>
    <path clip-path="url(#peaec05769b)" d="M 224.338378 111.460701 
L 237.822093 115.187452 
L 245.397693 108.759368 
L 232.00309 105.105374 
z
" style="fill:#c28725;"/>
    <path clip-path="url(#peaec05769b)" d="M 235.617509 205.421836 
L 235.622317 204.581845 
L 249.112042 208.824277 
L 249.101427 209.667246 
z
" style="fill:#080339;"/>
    <path clip-path="url(#peaec05769b)" d="M 235.617509 205.421836 
L 249.101427 209.667246 
L 249.120491 208.153381 
L 235.626143 203.913321 
z
" style="fill:#16067b;"/>
    <path clip-path="url(#peaec05769b)" d="M 214.529606 208.524945 
L 214.44745 192.044951 
L 222.268783 184.84626 
L 222.285805 201.224351 
z
" style="fill:#5a0094;"/>
    <path clip-path="url(#peaec05769b)" d="M 201.262108 204.292457 
L 201.161406 195.687686 
L 214.486556 199.889487 
L 214.529606 208.524945 
z
" style="fill:#1b0141;"/>
    <path clip-path="url(#peaec05769b)" d="M 249.101427 209.667246 
L 256.530882 202.34441 
L 270.077576 206.554656 
L 262.740181 213.961405 
z
" style="fill:#070448;"/>
    <path clip-path="url(#peaec05769b)" d="M 249.106516 209.263085 
L 262.748119 213.555811 
L 270.086937 206.15154 
L 256.537433 201.942716 
z
" style="fill:#0a0667;"/>
    <path clip-path="url(#peaec05769b)" d="M 222.285805 201.224351 
L 235.617509 205.421836 
L 235.780026 177.026856 
L 222.2564 172.931803 
z
" style="fill:#87128d;"/>
    <path clip-path="url(#peaec05769b)" d="M 216.582481 134.201363 
L 230.048722 138.066309 
L 237.716022 131.399915 
L 224.338378 127.610573 
z
" style="fill:#b25744;"/>
    <path clip-path="url(#peaec05769b)" d="M 179.862302 198.451849 
L 193.123153 202.687888 
L 201.157822 195.381434 
L 187.981513 191.228293 
z
" style="fill:#330379;"/>
    <path clip-path="url(#peaec05769b)" d="M 227.94922 212.80596 
L 227.950775 211.960803 
L 235.622317 204.581845 
L 235.617509 205.421836 
z
" style="fill:#110679;"/>
    <path clip-path="url(#peaec05769b)" d="M 214.529606 208.524945 
L 222.285805 201.224351 
L 222.26097 177.328805 
L 214.409736 184.47982 
z
" style="fill:#380345;"/>
    <path clip-path="url(#peaec05769b)" d="M 193.264978 211.654059 
L 193.128028 202.996048 
L 201.161406 195.687686 
L 201.262108 204.292457 
z
" style="fill:#39038b;"/>
    <path clip-path="url(#peaec05769b)" d="M 193.264978 211.654059 
L 201.262108 204.292457 
L 201.157822 195.381434 
L 193.123153 202.687888 
z
" style="fill:#1c0142;"/>
    <path clip-path="url(#peaec05769b)" d="M 208.804276 158.170735 
L 222.245224 162.179236 
L 230.000533 155.265274 
L 216.647562 151.335297 
z
" style="fill:#922c65;"/>
    <path clip-path="url(#peaec05769b)" d="M 193.264978 211.654059 
L 201.262108 204.292457 
L 214.529606 208.524945 
L 206.61873 215.971129 
z
" style="fill:#230254;"/>
    <path clip-path="url(#peaec05769b)" d="M 222.2564 172.931803 
L 235.780026 177.026856 
L 243.404662 169.963618 
L 229.970599 165.948815 
z
" style="fill:#75107a;"/>
    <path clip-path="url(#peaec05769b)" d="M 262.740181 213.961405 
L 270.077576 206.554656 
L 270.086937 206.15154 
L 262.748119 213.555811 
z
" style="fill:#050338;"/>
    <path clip-path="url(#peaec05769b)" d="M 201.262108 204.292457 
L 214.529606 208.524945 
L 214.409736 184.47982 
L 200.98172 180.333841 
z
" style="fill:#770693;"/>
    <path clip-path="url(#peaec05769b)" d="M 180.063228 207.386128 
L 193.264978 211.654059 
L 193.123153 202.687888 
L 179.862302 198.451849 
z
" style="fill:#3b038b;"/>
    <path clip-path="url(#peaec05769b)" d="M 227.94922 212.80596 
L 235.617509 205.421836 
L 249.101427 209.667246 
L 241.523583 217.136342 
z
" style="fill:#0a0449;"/>
    <path clip-path="url(#peaec05769b)" d="M 227.950775 211.960803 
L 241.531023 216.288185 
L 249.112042 208.824277 
L 235.622317 204.581845 
z
" style="fill:#0f0569;"/>
    <path clip-path="url(#peaec05769b)" d="M 214.529606 208.524945 
L 214.501417 202.870483 
L 227.959657 207.131363 
L 227.94922 212.80596 
z
" style="fill:#15023f;"/>
    <path clip-path="url(#peaec05769b)" d="M 200.98172 180.333841 
L 214.409736 184.47982 
L 222.26097 177.328805 
L 208.920465 173.264235 
z
" style="fill:#67057f;"/>
    <path clip-path="url(#peaec05769b)" d="M 249.101427 209.667246 
L 249.104362 209.434189 
L 262.744758 213.727522 
L 262.740181 213.961405 
z
" style="fill:#050338;"/>
    <path clip-path="url(#peaec05769b)" d="M 249.101427 209.667246 
L 262.740181 213.961405 
L 262.748119 213.555811 
L 249.106516 209.263085 
z
" style="fill:#0b0777;"/>
    <path clip-path="url(#peaec05769b)" d="M 227.94922 212.80596 
L 235.617509 205.421836 
L 235.711584 188.985012 
L 227.979638 196.266759 
z
" style="fill:#2a0046;"/>
    <path clip-path="url(#peaec05769b)" d="M 214.44745 192.044951 
L 227.979638 196.266759 
L 235.711584 188.985012 
L 222.268783 184.84626 
z
" style="fill:#4e0080;"/>
    <path clip-path="url(#peaec05769b)" d="M 206.61873 215.971129 
L 206.567298 210.281735 
L 214.501417 202.870483 
L 214.529606 208.524945 
z
" style="fill:#2c0485;"/>
    <path clip-path="url(#peaec05769b)" d="M 193.128028 202.996048 
L 206.540182 207.282192 
L 214.486556 199.889487 
L 201.161406 195.687686 
z
" style="fill:#320378;"/>
    <path clip-path="url(#peaec05769b)" d="M 241.523583 217.136342 
L 241.52564 216.901851 
L 249.104362 209.434189 
L 249.101427 209.667246 
z
" style="fill:#0b0777;"/>
    <path clip-path="url(#peaec05769b)" d="M 241.523583 217.136342 
L 249.101427 209.667246 
L 249.112042 208.824277 
L 241.531023 216.288185 
z
" style="fill:#080339;"/>
    <path clip-path="url(#peaec05769b)" d="M 214.529606 208.524945 
L 227.94922 212.80596 
L 227.979638 196.266759 
L 214.44745 192.044951 
z
" style="fill:#5a0094;"/>
    <path clip-path="url(#peaec05769b)" d="M 206.61873 215.971129 
L 214.529606 208.524945 
L 214.486556 199.889487 
L 206.540182 207.282192 
z
" style="fill:#1b0141;"/>
    <path clip-path="url(#peaec05769b)" d="M 206.61873 215.971129 
L 214.529606 208.524945 
L 227.94922 212.80596 
L 220.127123 220.338193 
z
" style="fill:#1a0250;"/>
    <path clip-path="url(#peaec05769b)" d="M 227.94922 212.80596 
L 227.95001 212.376636 
L 241.527362 216.705495 
L 241.523583 217.136342 
z
" style="fill:#050338;"/>
    <path clip-path="url(#peaec05769b)" d="M 227.94922 212.80596 
L 241.523583 217.136342 
L 241.531023 216.288185 
L 227.950775 211.960803 
z
" style="fill:#110679;"/>
    <path clip-path="url(#peaec05769b)" d="M 193.264978 211.654059 
L 206.61873 215.971129 
L 206.540182 207.282192 
L 193.128028 202.996048 
z
" style="fill:#39038b;"/>
    <path clip-path="url(#peaec05769b)" d="M 241.523583 217.136342 
L 249.101427 209.667246 
L 262.740181 213.961405 
L 255.255385 221.516949 
z
" style="fill:#070448;"/>
    <path clip-path="url(#peaec05769b)" d="M 241.52564 216.901851 
L 255.259107 221.281625 
L 262.744758 213.727522 
L 249.104362 209.434189 
z
" style="fill:#0a0667;"/>
    <path clip-path="url(#peaec05769b)" d="M 206.567298 210.281735 
L 220.114828 214.628509 
L 227.959657 207.131363 
L 214.501417 202.870483 
z
" style="fill:#260473;"/>
    <path clip-path="url(#peaec05769b)" d="M 220.127123 220.338193 
L 220.126192 219.906227 
L 227.95001 212.376636 
L 227.94922 212.80596 
z
" style="fill:#0b0777;"/>
    <path clip-path="url(#peaec05769b)" d="M 220.127123 220.338193 
L 227.94922 212.80596 
L 227.959657 207.131363 
L 220.114828 214.628509 
z
" style="fill:#15023f;"/>
    <path clip-path="url(#peaec05769b)" d="M 255.255385 221.516949 
L 262.740181 213.961405 
L 262.744758 213.727522 
L 255.259107 221.281625 
z
" style="fill:#050338;"/>
    <path clip-path="url(#peaec05769b)" d="M 220.127123 220.338193 
L 227.94922 212.80596 
L 241.523583 217.136342 
L 233.792858 224.756123 
z
" style="fill:#070448;"/>
    <path clip-path="url(#peaec05769b)" d="M 220.126192 219.906227 
L 233.794959 224.322622 
L 241.527362 216.705495 
L 227.95001 212.376636 
z
" style="fill:#0a0667;"/>
    <path clip-path="url(#peaec05769b)" d="M 206.61873 215.971129 
L 220.127123 220.338193 
L 220.114828 214.628509 
L 206.567298 210.281735 
z
" style="fill:#2c0485;"/>
    <path clip-path="url(#peaec05769b)" d="M 241.523583 217.136342 
L 241.524821 216.995138 
L 255.257627 221.375243 
L 255.255385 221.516949 
z
" style="fill:#050338;"/>
    <path clip-path="url(#peaec05769b)" d="M 241.523583 217.136342 
L 255.255385 221.516949 
L 255.259107 221.281625 
L 241.52564 216.901851 
z
" style="fill:#0b0777;"/>
    <path clip-path="url(#peaec05769b)" d="M 233.792858 224.756123 
L 233.793547 224.61405 
L 241.524821 216.995138 
L 241.523583 217.136342 
z
" style="fill:#0b0777;"/>
    <path clip-path="url(#peaec05769b)" d="M 233.792858 224.756123 
L 241.523583 217.136342 
L 241.527362 216.705495 
L 233.794959 224.322622 
z
" style="fill:#050338;"/>
    <path clip-path="url(#peaec05769b)" d="M 220.127123 220.338193 
L 233.792858 224.756123 
L 233.794959 224.322622 
L 220.126192 219.906227 
z
" style="fill:#0b0777;"/>
    <path clip-path="url(#peaec05769b)" d="M 233.792858 224.756123 
L 241.523583 217.136342 
L 255.255385 221.516949 
L 247.618703 229.225814 
z
" style="fill:#070448;"/>
    <path clip-path="url(#peaec05769b)" d="M 233.793547 224.61405 
L 247.620407 229.083236 
L 255.257627 221.375243 
L 241.524821 216.995138 
z
" style="fill:#0a0667;"/>
    <path clip-path="url(#peaec05769b)" d="M 247.618703 229.225814 
L 255.255385 221.516949 
L 255.257627 221.375243 
L 247.620407 229.083236 
z
" style="fill:#050338;"/>
    <path clip-path="url(#peaec05769b)" d="M 233.792858 224.756123 
L 247.618703 229.225814 
L 247.620407 229.083236 
L 233.793547 224.61405 
z
" style="fill:#0b0777;"/>
   </g>
   <g id="text_17">
    <!-- W05__H35__A180_bars_extracted.txt -->
    <g transform="translate(110.101875 28.56)scale(0.12 -0.12)">
     <defs>
      <path d="M 3.328125 72.90625 
L 13.28125 72.90625 
L 28.609375 11.28125 
L 43.890625 72.90625 
L 54.984375 72.90625 
L 70.3125 11.28125 
L 85.59375 72.90625 
L 95.609375 72.90625 
L 77.296875 0 
L 64.890625 0 
L 49.515625 63.28125 
L 33.984375 0 
L 21.578125 0 
z
" id="DejaVuSans-87"/>
      <path d="M 50.984375 -16.609375 
L 50.984375 -23.578125 
L -0.984375 -23.578125 
L -0.984375 -16.609375 
z
" id="DejaVuSans-95"/>
      <path d="M 9.8125 72.90625 
L 19.671875 72.90625 
L 19.671875 43.015625 
L 55.515625 43.015625 
L 55.515625 72.90625 
L 65.375 72.90625 
L 65.375 0 
L 55.515625 0 
L 55.515625 34.71875 
L 19.671875 34.71875 
L 19.671875 0 
L 9.8125 0 
z
" id="DejaVuSans-72"/>
      <path d="M 40.578125 39.3125 
Q 47.65625 37.796875 51.625 33 
Q 55.609375 28.21875 55.609375 21.1875 
Q 55.609375 10.40625 48.1875 4.484375 
Q 40.765625 -1.421875 27.09375 -1.421875 
Q 22.515625 -1.421875 17.65625 -0.515625 
Q 12.796875 0.390625 7.625 2.203125 
L 7.625 11.71875 
Q 11.71875 9.328125 16.59375 8.109375 
Q 21.484375 6.890625 26.8125 6.890625 
Q 36.078125 6.890625 40.9375 10.546875 
Q 45.796875 14.203125 45.796875 21.1875 
Q 45.796875 27.640625 41.28125 31.265625 
Q 36.765625 34.90625 28.71875 34.90625 
L 20.21875 34.90625 
L 20.21875 43.015625 
L 29.109375 43.015625 
Q 36.375 43.015625 40.234375 45.921875 
Q 44.09375 48.828125 44.09375 54.296875 
Q 44.09375 59.90625 40.109375 62.90625 
Q 36.140625 65.921875 28.71875 65.921875 
Q 24.65625 65.921875 20.015625 65.03125 
Q 15.375 64.15625 9.8125 62.3125 
L 9.8125 71.09375 
Q 15.4375 72.65625 20.34375 73.4375 
Q 25.25 74.21875 29.59375 74.21875 
Q 40.828125 74.21875 47.359375 69.109375 
Q 53.90625 64.015625 53.90625 55.328125 
Q 53.90625 49.265625 50.4375 45.09375 
Q 46.96875 40.921875 40.578125 39.3125 
z
" id="DejaVuSans-51"/>
      <path d="M 34.1875 63.1875 
L 20.796875 26.90625 
L 47.609375 26.90625 
z
M 28.609375 72.90625 
L 39.796875 72.90625 
L 67.578125 0 
L 57.328125 0 
L 50.6875 18.703125 
L 17.828125 18.703125 
L 11.1875 0 
L 0.78125 0 
z
" id="DejaVuSans-65"/>
      <path d="M 48.6875 27.296875 
Q 48.6875 37.203125 44.609375 42.84375 
Q 40.53125 48.484375 33.40625 48.484375 
Q 26.265625 48.484375 22.1875 42.84375 
Q 18.109375 37.203125 18.109375 27.296875 
Q 18.109375 17.390625 22.1875 11.75 
Q 26.265625 6.109375 33.40625 6.109375 
Q 40.53125 6.109375 44.609375 11.75 
Q 48.6875 17.390625 48.6875 27.296875 
z
M 18.109375 46.390625 
Q 20.953125 51.265625 25.265625 53.625 
Q 29.59375 56 35.59375 56 
Q 45.5625 56 51.78125 48.09375 
Q 58.015625 40.1875 58.015625 27.296875 
Q 58.015625 14.40625 51.78125 6.484375 
Q 45.5625 -1.421875 35.59375 -1.421875 
Q 29.59375 -1.421875 25.265625 0.953125 
Q 20.953125 3.328125 18.109375 8.203125 
L 18.109375 0 
L 9.078125 0 
L 9.078125 75.984375 
L 18.109375 75.984375 
z
" id="DejaVuSans-98"/>
      <path d="M 34.28125 27.484375 
Q 23.390625 27.484375 19.1875 25 
Q 14.984375 22.515625 14.984375 16.5 
Q 14.984375 11.71875 18.140625 8.90625 
Q 21.296875 6.109375 26.703125 6.109375 
Q 34.1875 6.109375 38.703125 11.40625 
Q 43.21875 16.703125 43.21875 25.484375 
L 43.21875 27.484375 
z
M 52.203125 31.203125 
L 52.203125 0 
L 43.21875 0 
L 43.21875 8.296875 
Q 40.140625 3.328125 35.546875 0.953125 
Q 30.953125 -1.421875 24.3125 -1.421875 
Q 15.921875 -1.421875 10.953125 3.296875 
Q 6 8.015625 6 15.921875 
Q 6 25.140625 12.171875 29.828125 
Q 18.359375 34.515625 30.609375 34.515625 
L 43.21875 34.515625 
L 43.21875 35.40625 
Q 43.21875 41.609375 39.140625 45 
Q 35.0625 48.390625 27.6875 48.390625 
Q 23 48.390625 18.546875 47.265625 
Q 14.109375 46.140625 10.015625 43.890625 
L 10.015625 52.203125 
Q 14.9375 54.109375 19.578125 55.046875 
Q 24.21875 56 28.609375 56 
Q 40.484375 56 46.34375 49.84375 
Q 52.203125 43.703125 52.203125 31.203125 
z
" id="DejaVuSans-97"/>
      <path d="M 41.109375 46.296875 
Q 39.59375 47.171875 37.8125 47.578125 
Q 36.03125 48 33.890625 48 
Q 26.265625 48 22.1875 43.046875 
Q 18.109375 38.09375 18.109375 28.8125 
L 18.109375 0 
L 9.078125 0 
L 9.078125 54.6875 
L 18.109375 54.6875 
L 18.109375 46.1875 
Q 20.953125 51.171875 25.484375 53.578125 
Q 30.03125 56 36.53125 56 
Q 37.453125 56 38.578125 55.875 
Q 39.703125 55.765625 41.0625 55.515625 
z
" id="DejaVuSans-114"/>
      <path d="M 44.28125 53.078125 
L 44.28125 44.578125 
Q 40.484375 46.53125 36.375 47.5 
Q 32.28125 48.484375 27.875 48.484375 
Q 21.1875 48.484375 17.84375 46.4375 
Q 14.5 44.390625 14.5 40.28125 
Q 14.5 37.15625 16.890625 35.375 
Q 19.28125 33.59375 26.515625 31.984375 
L 29.59375 31.296875 
Q 39.15625 29.25 43.1875 25.515625 
Q 47.21875 21.78125 47.21875 15.09375 
Q 47.21875 7.46875 41.1875 3.015625 
Q 35.15625 -1.421875 24.609375 -1.421875 
Q 20.21875 -1.421875 15.453125 -0.5625 
Q 10.6875 0.296875 5.421875 2 
L 5.421875 11.28125 
Q 10.40625 8.6875 15.234375 7.390625 
Q 20.0625 6.109375 24.8125 6.109375 
Q 31.15625 6.109375 34.5625 8.28125 
Q 37.984375 10.453125 37.984375 14.40625 
Q 37.984375 18.0625 35.515625 20.015625 
Q 33.0625 21.96875 24.703125 23.78125 
L 21.578125 24.515625 
Q 13.234375 26.265625 9.515625 29.90625 
Q 5.8125 33.546875 5.8125 39.890625 
Q 5.8125 47.609375 11.28125 51.796875 
Q 16.75 56 26.8125 56 
Q 31.78125 56 36.171875 55.265625 
Q 40.578125 54.546875 44.28125 53.078125 
z
" id="DejaVuSans-115"/>
      <path d="M 56.203125 29.59375 
L 56.203125 25.203125 
L 14.890625 25.203125 
Q 15.484375 15.921875 20.484375 11.0625 
Q 25.484375 6.203125 34.421875 6.203125 
Q 39.59375 6.203125 44.453125 7.46875 
Q 49.3125 8.734375 54.109375 11.28125 
L 54.109375 2.78125 
Q 49.265625 0.734375 44.1875 -0.34375 
Q 39.109375 -1.421875 33.890625 -1.421875 
Q 20.796875 -1.421875 13.15625 6.1875 
Q 5.515625 13.8125 5.515625 26.8125 
Q 5.515625 40.234375 12.765625 48.109375 
Q 20.015625 56 32.328125 56 
Q 43.359375 56 49.78125 48.890625 
Q 56.203125 41.796875 56.203125 29.59375 
z
M 47.21875 32.234375 
Q 47.125 39.59375 43.09375 43.984375 
Q 39.0625 48.390625 32.421875 48.390625 
Q 24.90625 48.390625 20.390625 44.140625 
Q 15.875 39.890625 15.1875 32.171875 
z
" id="DejaVuSans-101"/>
      <path d="M 54.890625 54.6875 
L 35.109375 28.078125 
L 55.90625 0 
L 45.3125 0 
L 29.390625 21.484375 
L 13.484375 0 
L 2.875 0 
L 24.125 28.609375 
L 4.6875 54.6875 
L 15.28125 54.6875 
L 29.78125 35.203125 
L 44.28125 54.6875 
z
" id="DejaVuSans-120"/>
      <path d="M 18.3125 70.21875 
L 18.3125 54.6875 
L 36.8125 54.6875 
L 36.8125 47.703125 
L 18.3125 47.703125 
L 18.3125 18.015625 
Q 18.3125 11.328125 20.140625 9.421875 
Q 21.96875 7.515625 27.59375 7.515625 
L 36.8125 7.515625 
L 36.8125 0 
L 27.59375 0 
Q 17.1875 0 13.234375 3.875 
Q 9.28125 7.765625 9.28125 18.015625 
L 9.28125 47.703125 
L 2.6875 47.703125 
L 2.6875 54.6875 
L 9.28125 54.6875 
L 9.28125 70.21875 
z
" id="DejaVuSans-116"/>
      <path d="M 48.78125 52.59375 
L 48.78125 44.1875 
Q 44.96875 46.296875 41.140625 47.34375 
Q 37.3125 48.390625 33.40625 48.390625 
Q 24.65625 48.390625 19.8125 42.84375 
Q 14.984375 37.3125 14.984375 27.296875 
Q 14.984375 17.28125 19.8125 11.734375 
Q 24.65625 6.203125 33.40625 6.203125 
Q 37.3125 6.203125 41.140625 7.25 
Q 44.96875 8.296875 48.78125 10.40625 
L 48.78125 2.09375 
Q 45.015625 0.34375 40.984375 -0.53125 
Q 36.96875 -1.421875 32.421875 -1.421875 
Q 20.0625 -1.421875 12.78125 6.34375 
Q 5.515625 14.109375 5.515625 27.296875 
Q 5.515625 40.671875 12.859375 48.328125 
Q 20.21875 56 33.015625 56 
Q 37.15625 56 41.109375 55.140625 
Q 45.0625 54.296875 48.78125 52.59375 
z
" id="DejaVuSans-99"/>
      <path d="M 45.40625 46.390625 
L 45.40625 75.984375 
L 54.390625 75.984375 
L 54.390625 0 
L 45.40625 0 
L 45.40625 8.203125 
Q 42.578125 3.328125 38.25 0.953125 
Q 33.9375 -1.421875 27.875 -1.421875 
Q 17.96875 -1.421875 11.734375 6.484375 
Q 5.515625 14.40625 5.515625 27.296875 
Q 5.515625 40.1875 11.734375 48.09375 
Q 17.96875 56 27.875 56 
Q 33.9375 56 38.25 53.625 
Q 42.578125 51.265625 45.40625 46.390625 
z
M 14.796875 27.296875 
Q 14.796875 17.390625 18.875 11.75 
Q 22.953125 6.109375 30.078125 6.109375 
Q 37.203125 6.109375 41.296875 11.75 
Q 45.40625 17.390625 45.40625 27.296875 
Q 45.40625 37.203125 41.296875 42.84375 
Q 37.203125 48.484375 30.078125 48.484375 
Q 22.953125 48.484375 18.875 42.84375 
Q 14.796875 37.203125 14.796875 27.296875 
z
" id="DejaVuSans-100"/>
      <path d="M 10.6875 12.40625 
L 21 12.40625 
L 21 0 
L 10.6875 0 
z
" id="DejaVuSans-46"/>
     </defs>
     <use xlink:href="#DejaVuSans-87"/>
     <use x="98.876953" xlink:href="#DejaVuSans-48"/>
     <use x="162.5" xlink:href="#DejaVuSans-53"/>
     <use x="226.123047" xlink:href="#DejaVuSans-95"/>
     <use x="276.123047" xlink:href="#DejaVuSans-95"/>
     <use x="326.123047" xlink:href="#DejaVuSans-72"/>
     <use x="401.318359" xlink:href="#DejaVuSans-51"/>
     <use x="464.941406" xlink:href="#DejaVuSans-53"/>
     <use x="528.564453" xlink:href="#DejaVuSans-95"/>
     <use x="578.564453" xlink:href="#DejaVuSans-95"/>
     <use x="628.564453" xlink:href="#DejaVuSans-65"/>
     <use x="696.972656" xlink:href="#DejaVuSans-49"/>
     <use x="760.595703" xlink:href="#DejaVuSans-56"/>
     <use x="824.21875" xlink:href="#DejaVuSans-48"/>
     <use x="887.841797" xlink:href="#DejaVuSans-95"/>
     <use x="937.841797" xlink:href="#DejaVuSans-98"/>
     <use x="1001.318359" xlink:href="#DejaVuSans-97"/>
     <use x="1062.597656" xlink:href="#DejaVuSans-114"/>
     <use x="1103.710938" xlink:href="#DejaVuSans-115"/>
     <use x="1155.810547" xlink:href="#DejaVuSans-95"/>
     <use x="1205.810547" xlink:href="#DejaVuSans-101"/>
     <use x="1265.583984" xlink:href="#DejaVuSans-120"/>
     <use x="1324.763672" xlink:href="#DejaVuSans-116"/>
     <use x="1363.972656" xlink:href="#DejaVuSans-114"/>
     <use x="1405.085938" xlink:href="#DejaVuSans-97"/>
     <use x="1466.365234" xlink:href="#DejaVuSans-99"/>
     <use x="1521.345703" xlink:href="#DejaVuSans-116"/>
     <use x="1560.554688" xlink:href="#DejaVuSans-101"/>
     <use x="1622.078125" xlink:href="#DejaVuSans-100"/>
     <use x="1685.554688" xlink:href="#DejaVuSans-46"/>
     <use x="1717.341797" xlink:href="#DejaVuSans-116"/>
     <use x="1756.550781" xlink:href="#DejaVuSans-120"/>
     <use x="1815.730469" xlink:href="#DejaVuSans-116"/>
    </g>
   </g>
  </g>
 </g>
 <defs>
  <clipPath id="peaec05769b">
   <rect height="217.44" width="217.44" x="112.68" y="34.56"/>
  </clipPath>
 </defs>
</svg>
