<?xml version="1.0" encoding="utf-8" standalone="no"?>
<!DOCTYPE svg PUBLIC "-//W3C//DTD SVG 1.1//EN"
  "http://www.w3.org/Graphics/SVG/1.1/DTD/svg11.dtd">
<!-- Created with matplotlib (https://matplotlib.org/) -->
<svg height="288pt" version="1.1" viewBox="0 0 432 288" width="432pt" xmlns="http://www.w3.org/2000/svg" xmlns:xlink="http://www.w3.org/1999/xlink">
 <metadata>
  <rdf:RDF xmlns:cc="http://creativecommons.org/ns#" xmlns:dc="http://purl.org/dc/elements/1.1/" xmlns:rdf="http://www.w3.org/1999/02/22-rdf-syntax-ns#">
   <cc:Work>
    <dc:type rdf:resource="http://purl.org/dc/dcmitype/StillImage"/>
    <dc:date>2021-06-13T21:56:37.141331</dc:date>
    <dc:format>image/svg+xml</dc:format>
    <dc:creator>
     <cc:Agent>
      <dc:title>Matplotlib v3.3.4, https://matplotlib.org/</dc:title>
     </cc:Agent>
    </dc:creator>
   </cc:Work>
  </rdf:RDF>
 </metadata>
 <defs>
  <style type="text/css">*{stroke-linecap:butt;stroke-linejoin:round;}</style>
 </defs>
 <g id="figure_1">
  <g id="patch_1">
   <path d="M 0 288 
L 432 288 
L 432 0 
L 0 0 
z
" style="fill:#ffffff;"/>
  </g>
  <g id="patch_2">
   <path d="M 112.68 252 
L 330.12 252 
L 330.12 34.56 
L 112.68 34.56 
z
" style="fill:#ffffff;"/>
  </g>
  <g id="pane3d_1">
   <g id="patch_3">
    <path d="M 129.09822 198.386264 
L 200.904009 138.197228 
L 199.90584 51.393878 
L 124.663773 106.302111 
" style="fill:#f2f2f2;opacity:0.5;stroke:#f2f2f2;stroke-linejoin:miter;"/>
   </g>
  </g>
  <g id="pane3d_2">
   <g id="patch_4">
    <path d="M 200.904009 138.197228 
L 316.12668 171.68791 
L 320.238571 81.894718 
L 199.90584 51.393878 
" style="fill:#e6e6e6;opacity:0.5;stroke:#e6e6e6;stroke-linejoin:miter;"/>
   </g>
  </g>
  <g id="pane3d_3">
   <g id="patch_5">
    <path d="M 129.09822 198.386264 
L 251.239879 238.27773 
L 316.12668 171.68791 
L 200.904009 138.197228 
" style="fill:#ececec;opacity:0.5;stroke:#ececec;stroke-linejoin:miter;"/>
   </g>
  </g>
  <g id="axis3d_1">
   <g id="line2d_1">
    <path d="M 129.09822 198.386264 
L 251.239879 238.27773 
" style="fill:none;stroke:#000000;stroke-linecap:square;stroke-width:0.8;"/>
   </g>
   <g id="Line3DCollection_1">
    <path d="M 136.495759 200.802301 
L 207.911499 140.234029 
L 207.209612 53.245171 
" style="fill:none;stroke:#b0b0b0;stroke-width:0.8;"/>
    <path d="M 162.23134 209.207541 
L 232.260894 147.311436 
L 232.60309 59.681678 
" style="fill:none;stroke:#b0b0b0;stroke-width:0.8;"/>
    <path d="M 188.559037 217.806167 
L 257.123632 154.538053 
L 258.555303 66.259807 
" style="fill:none;stroke:#b0b0b0;stroke-width:0.8;"/>
    <path d="M 215.499525 226.604931 
L 282.516121 161.918647 
L 285.084894 72.984285 
" style="fill:none;stroke:#b0b0b0;stroke-width:0.8;"/>
    <path d="M 243.074449 235.610901 
L 308.455474 169.458193 
L 312.21135 79.860051 
" style="fill:none;stroke:#b0b0b0;stroke-width:0.8;"/>
   </g>
   <g id="xtick_1">
    <g id="line2d_2">
     <path d="M 137.117644 200.274876 
L 135.249322 201.859414 
" style="fill:none;stroke:#000000;stroke-linecap:square;stroke-width:0.8;"/>
    </g>
    <g id="text_1">
     <!-- 0 -->
     <g transform="translate(125.77919 224.124533)scale(0.1 -0.1)">
      <defs>
       <path d="M 31.78125 66.40625 
Q 24.171875 66.40625 20.328125 58.90625 
Q 16.5 51.421875 16.5 36.375 
Q 16.5 21.390625 20.328125 13.890625 
Q 24.171875 6.390625 31.78125 6.390625 
Q 39.453125 6.390625 43.28125 13.890625 
Q 47.125 21.390625 47.125 36.375 
Q 47.125 51.421875 43.28125 58.90625 
Q 39.453125 66.40625 31.78125 66.40625 
z
M 31.78125 74.21875 
Q 44.046875 74.21875 50.515625 64.515625 
Q 56.984375 54.828125 56.984375 36.375 
Q 56.984375 17.96875 50.515625 8.265625 
Q 44.046875 -1.421875 31.78125 -1.421875 
Q 19.53125 -1.421875 13.0625 8.265625 
Q 6.59375 17.96875 6.59375 36.375 
Q 6.59375 54.828125 13.0625 64.515625 
Q 19.53125 74.21875 31.78125 74.21875 
z
" id="DejaVuSans-48"/>
      </defs>
      <use xlink:href="#DejaVuSans-48"/>
     </g>
    </g>
   </g>
   <g id="xtick_2">
    <g id="line2d_3">
     <path d="M 162.841716 208.668056 
L 161.007937 210.288854 
" style="fill:none;stroke:#000000;stroke-linecap:square;stroke-width:0.8;"/>
    </g>
    <g id="text_2">
     <!-- 2 -->
     <g transform="translate(151.547192 232.748132)scale(0.1 -0.1)">
      <defs>
       <path d="M 19.1875 8.296875 
L 53.609375 8.296875 
L 53.609375 0 
L 7.328125 0 
L 7.328125 8.296875 
Q 12.9375 14.109375 22.625 23.890625 
Q 32.328125 33.6875 34.8125 36.53125 
Q 39.546875 41.84375 41.421875 45.53125 
Q 43.3125 49.21875 43.3125 52.78125 
Q 43.3125 58.59375 39.234375 62.25 
Q 35.15625 65.921875 28.609375 65.921875 
Q 23.96875 65.921875 18.8125 64.3125 
Q 13.671875 62.703125 7.8125 59.421875 
L 7.8125 69.390625 
Q 13.765625 71.78125 18.9375 73 
Q 24.125 74.21875 28.421875 74.21875 
Q 39.75 74.21875 46.484375 68.546875 
Q 53.21875 62.890625 53.21875 53.421875 
Q 53.21875 48.921875 51.53125 44.890625 
Q 49.859375 40.875 45.40625 35.40625 
Q 44.1875 33.984375 37.640625 27.21875 
Q 31.109375 20.453125 19.1875 8.296875 
z
" id="DejaVuSans-50"/>
      </defs>
      <use xlink:href="#DejaVuSans-50"/>
     </g>
    </g>
   </g>
   <g id="xtick_3">
    <g id="line2d_4">
     <path d="M 189.15721 217.254202 
L 187.360066 218.91252 
" style="fill:none;stroke:#000000;stroke-linecap:square;stroke-width:0.8;"/>
    </g>
    <g id="text_3">
     <!-- 4 -->
     <g transform="translate(177.91082 241.571064)scale(0.1 -0.1)">
      <defs>
       <path d="M 37.796875 64.3125 
L 12.890625 25.390625 
L 37.796875 25.390625 
z
M 35.203125 72.90625 
L 47.609375 72.90625 
L 47.609375 25.390625 
L 58.015625 25.390625 
L 58.015625 17.1875 
L 47.609375 17.1875 
L 47.609375 0 
L 37.796875 0 
L 37.796875 17.1875 
L 4.890625 17.1875 
L 4.890625 26.703125 
z
" id="DejaVuSans-52"/>
      </defs>
      <use xlink:href="#DejaVuSans-52"/>
     </g>
    </g>
   </g>
   <g id="xtick_4">
    <g id="line2d_5">
     <path d="M 216.084757 226.040048 
L 214.326462 227.737204 
" style="fill:none;stroke:#000000;stroke-linecap:square;stroke-width:0.8;"/>
    </g>
    <g id="text_4">
     <!-- 6 -->
     <g transform="translate(204.890965 250.600322)scale(0.1 -0.1)">
      <defs>
       <path d="M 33.015625 40.375 
Q 26.375 40.375 22.484375 35.828125 
Q 18.609375 31.296875 18.609375 23.390625 
Q 18.609375 15.53125 22.484375 10.953125 
Q 26.375 6.390625 33.015625 6.390625 
Q 39.65625 6.390625 43.53125 10.953125 
Q 47.40625 15.53125 47.40625 23.390625 
Q 47.40625 31.296875 43.53125 35.828125 
Q 39.65625 40.375 33.015625 40.375 
z
M 52.59375 71.296875 
L 52.59375 62.3125 
Q 48.875 64.0625 45.09375 64.984375 
Q 41.3125 65.921875 37.59375 65.921875 
Q 27.828125 65.921875 22.671875 59.328125 
Q 17.53125 52.734375 16.796875 39.40625 
Q 19.671875 43.65625 24.015625 45.921875 
Q 28.375 48.1875 33.59375 48.1875 
Q 44.578125 48.1875 50.953125 41.515625 
Q 57.328125 34.859375 57.328125 23.390625 
Q 57.328125 12.15625 50.6875 5.359375 
Q 44.046875 -1.421875 33.015625 -1.421875 
Q 20.359375 -1.421875 13.671875 8.265625 
Q 6.984375 17.96875 6.984375 36.375 
Q 6.984375 53.65625 15.1875 63.9375 
Q 23.390625 74.21875 37.203125 74.21875 
Q 40.921875 74.21875 44.703125 73.484375 
Q 48.484375 72.75 52.59375 71.296875 
z
" id="DejaVuSans-54"/>
      </defs>
      <use xlink:href="#DejaVuSans-54"/>
     </g>
    </g>
   </g>
   <g id="xtick_5">
    <g id="line2d_6">
     <path d="M 243.645962 235.032643 
L 241.928856 236.770015 
" style="fill:none;stroke:#000000;stroke-linecap:square;stroke-width:0.8;"/>
    </g>
    <g id="text_5">
     <!-- 8 -->
     <g transform="translate(232.509511 259.84323)scale(0.1 -0.1)">
      <defs>
       <path d="M 31.78125 34.625 
Q 24.75 34.625 20.71875 30.859375 
Q 16.703125 27.09375 16.703125 20.515625 
Q 16.703125 13.921875 20.71875 10.15625 
Q 24.75 6.390625 31.78125 6.390625 
Q 38.8125 6.390625 42.859375 10.171875 
Q 46.921875 13.96875 46.921875 20.515625 
Q 46.921875 27.09375 42.890625 30.859375 
Q 38.875 34.625 31.78125 34.625 
z
M 21.921875 38.8125 
Q 15.578125 40.375 12.03125 44.71875 
Q 8.5 49.078125 8.5 55.328125 
Q 8.5 64.0625 14.71875 69.140625 
Q 20.953125 74.21875 31.78125 74.21875 
Q 42.671875 74.21875 48.875 69.140625 
Q 55.078125 64.0625 55.078125 55.328125 
Q 55.078125 49.078125 51.53125 44.71875 
Q 48 40.375 41.703125 38.8125 
Q 48.828125 37.15625 52.796875 32.3125 
Q 56.78125 27.484375 56.78125 20.515625 
Q 56.78125 9.90625 50.3125 4.234375 
Q 43.84375 -1.421875 31.78125 -1.421875 
Q 19.734375 -1.421875 13.25 4.234375 
Q 6.78125 9.90625 6.78125 20.515625 
Q 6.78125 27.484375 10.78125 32.3125 
Q 14.796875 37.15625 21.921875 38.8125 
z
M 18.3125 54.390625 
Q 18.3125 48.734375 21.84375 45.5625 
Q 25.390625 42.390625 31.78125 42.390625 
Q 38.140625 42.390625 41.71875 45.5625 
Q 45.3125 48.734375 45.3125 54.390625 
Q 45.3125 60.0625 41.71875 63.234375 
Q 38.140625 66.40625 31.78125 66.40625 
Q 25.390625 66.40625 21.84375 63.234375 
Q 18.3125 60.0625 18.3125 54.390625 
z
" id="DejaVuSans-56"/>
      </defs>
      <use xlink:href="#DejaVuSans-56"/>
     </g>
    </g>
   </g>
  </g>
  <g id="axis3d_2">
   <g id="line2d_7">
    <path d="M 316.12668 171.68791 
L 251.239879 238.27773 
" style="fill:none;stroke:#000000;stroke-linecap:square;stroke-width:0.8;"/>
   </g>
   <g id="Line3DCollection_2">
    <path d="M 129.866948 102.505071 
L 134.046245 194.238731 
L 255.729543 233.67023 
" style="fill:none;stroke:#b0b0b0;stroke-width:0.8;"/>
    <path d="M 147.250212 89.819556 
L 150.59591 180.366474 
L 270.72626 218.279909 
" style="fill:none;stroke:#b0b0b0;stroke-width:0.8;"/>
    <path d="M 163.958537 77.626582 
L 166.530371 167.009893 
L 285.136664 203.491289 
" style="fill:none;stroke:#b0b0b0;stroke-width:0.8;"/>
    <path d="M 180.030483 65.898008 
L 181.883306 154.140758 
L 298.994481 189.269761 
" style="fill:none;stroke:#b0b0b0;stroke-width:0.8;"/>
    <path d="M 195.501727 54.607799 
L 196.68598 141.732864 
L 312.330896 175.583317 
" style="fill:none;stroke:#b0b0b0;stroke-width:0.8;"/>
   </g>
   <g id="xtick_6">
    <g id="line2d_8">
     <path d="M 254.704115 233.337939 
L 257.783053 234.33567 
" style="fill:none;stroke:#000000;stroke-linecap:square;stroke-width:0.8;"/>
    </g>
    <g id="text_6">
     <!-- 0 -->
     <g transform="translate(265.430654 254.693759)scale(0.1 -0.1)">
      <use xlink:href="#DejaVuSans-48"/>
     </g>
    </g>
   </g>
   <g id="xtick_7">
    <g id="line2d_9">
     <path d="M 269.71494 217.960734 
L 272.751463 218.919068 
" style="fill:none;stroke:#000000;stroke-linecap:square;stroke-width:0.8;"/>
    </g>
    <g id="text_7">
     <!-- 2 -->
     <g transform="translate(280.181112 239.024526)scale(0.1 -0.1)">
      <use xlink:href="#DejaVuSans-50"/>
     </g>
    </g>
   </g>
   <g id="xtick_8">
    <g id="line2d_10">
     <path d="M 284.139145 203.184468 
L 287.134182 204.105694 
" style="fill:none;stroke:#000000;stroke-linecap:square;stroke-width:0.8;"/>
    </g>
    <g id="text_8">
     <!-- 4 -->
     <g transform="translate(294.35448 223.968328)scale(0.1 -0.1)">
      <use xlink:href="#DejaVuSans-52"/>
     </g>
    </g>
   </g>
   <g id="xtick_9">
    <g id="line2d_11">
     <path d="M 298.010457 188.97459 
L 300.964927 189.860821 
" style="fill:none;stroke:#000000;stroke-linecap:square;stroke-width:0.8;"/>
    </g>
    <g id="text_9">
     <!-- 6 -->
     <g transform="translate(307.983974 209.489882)scale(0.1 -0.1)">
      <use xlink:href="#DejaVuSans-54"/>
     </g>
    </g>
   </g>
   <g id="xtick_10">
    <g id="line2d_12">
     <path d="M 311.360068 175.299146 
L 314.274875 176.15234 
" style="fill:none;stroke:#000000;stroke-linecap:square;stroke-width:0.8;"/>
    </g>
    <g id="text_10">
     <!-- 8 -->
     <g transform="translate(321.10031 195.556556)scale(0.1 -0.1)">
      <use xlink:href="#DejaVuSans-56"/>
     </g>
    </g>
   </g>
  </g>
  <g id="axis3d_3">
   <g id="line2d_13">
    <path d="M 316.12668 171.68791 
L 320.238571 81.894718 
" style="fill:none;stroke:#000000;stroke-linecap:square;stroke-width:0.8;"/>
   </g>
   <g id="Line3DCollection_3">
    <path d="M 316.205459 169.967571 
L 200.884845 136.530725 
L 129.013401 196.624949 
" style="fill:none;stroke:#b0b0b0;stroke-width:0.8;"/>
    <path d="M 316.988606 152.865656 
L 200.694425 119.97132 
L 128.169919 179.109496 
" style="fill:none;stroke:#b0b0b0;stroke-width:0.8;"/>
    <path d="M 317.785219 135.469654 
L 200.500888 103.140822 
L 127.311376 161.281305 
" style="fill:none;stroke:#b0b0b0;stroke-width:0.8;"/>
    <path d="M 318.59565 117.771913 
L 200.304156 86.032517 
L 126.437366 143.131924 
" style="fill:none;stroke:#b0b0b0;stroke-width:0.8;"/>
    <path d="M 319.420261 99.764514 
L 200.10415 68.639472 
L 125.547467 124.652596 
" style="fill:none;stroke:#b0b0b0;stroke-width:0.8;"/>
   </g>
   <g id="xtick_11">
    <g id="line2d_14">
     <path d="M 315.237563 169.686933 
L 318.143556 170.529516 
" style="fill:none;stroke:#000000;stroke-linecap:square;stroke-width:0.8;"/>
    </g>
    <g id="text_11">
     <!-- 0 -->
     <g transform="translate(331.275915 174.966846)scale(0.1 -0.1)">
      <use xlink:href="#DejaVuSans-48"/>
     </g>
    </g>
   </g>
   <g id="xtick_12">
    <g id="line2d_15">
     <path d="M 316.012149 152.589461 
L 318.943864 153.41871 
" style="fill:none;stroke:#000000;stroke-linecap:square;stroke-width:0.8;"/>
    </g>
    <g id="text_12">
     <!-- 5000 -->
     <g transform="translate(322.667429 157.906153)scale(0.1 -0.1)">
      <defs>
       <path d="M 10.796875 72.90625 
L 49.515625 72.90625 
L 49.515625 64.59375 
L 19.828125 64.59375 
L 19.828125 46.734375 
Q 21.96875 47.46875 24.109375 47.828125 
Q 26.265625 48.1875 28.421875 48.1875 
Q 40.625 48.1875 47.75 41.5 
Q 54.890625 34.8125 54.890625 23.390625 
Q 54.890625 11.625 47.5625 5.09375 
Q 40.234375 -1.421875 26.90625 -1.421875 
Q 22.3125 -1.421875 17.546875 -0.640625 
Q 12.796875 0.140625 7.71875 1.703125 
L 7.71875 11.625 
Q 12.109375 9.234375 16.796875 8.0625 
Q 21.484375 6.890625 26.703125 6.890625 
Q 35.15625 6.890625 40.078125 11.328125 
Q 45.015625 15.765625 45.015625 23.390625 
Q 45.015625 31 40.078125 35.4375 
Q 35.15625 39.890625 26.703125 39.890625 
Q 22.75 39.890625 18.8125 39.015625 
Q 14.890625 38.140625 10.796875 36.28125 
z
" id="DejaVuSans-53"/>
      </defs>
      <use xlink:href="#DejaVuSans-53"/>
      <use x="63.623047" xlink:href="#DejaVuSans-48"/>
      <use x="127.246094" xlink:href="#DejaVuSans-48"/>
      <use x="190.869141" xlink:href="#DejaVuSans-48"/>
     </g>
    </g>
   </g>
   <g id="xtick_13">
    <g id="line2d_16">
     <path d="M 316.800049 135.198097 
L 319.757946 136.013426 
" style="fill:none;stroke:#000000;stroke-linecap:square;stroke-width:0.8;"/>
    </g>
    <g id="text_13">
     <!-- 10000 -->
     <g transform="translate(320.437465 140.553177)scale(0.1 -0.1)">
      <defs>
       <path d="M 12.40625 8.296875 
L 28.515625 8.296875 
L 28.515625 63.921875 
L 10.984375 60.40625 
L 10.984375 69.390625 
L 28.421875 72.90625 
L 38.28125 72.90625 
L 38.28125 8.296875 
L 54.390625 8.296875 
L 54.390625 0 
L 12.40625 0 
z
" id="DejaVuSans-49"/>
      </defs>
      <use xlink:href="#DejaVuSans-49"/>
      <use x="63.623047" xlink:href="#DejaVuSans-48"/>
      <use x="127.246094" xlink:href="#DejaVuSans-48"/>
      <use x="190.869141" xlink:href="#DejaVuSans-48"/>
      <use x="254.492188" xlink:href="#DejaVuSans-48"/>
     </g>
    </g>
   </g>
   <g id="xtick_14">
    <g id="line2d_17">
     <path d="M 317.601609 117.505197 
L 320.586159 118.305997 
" style="fill:none;stroke:#000000;stroke-linecap:square;stroke-width:0.8;"/>
    </g>
    <g id="text_14">
     <!-- 15000 -->
     <g transform="translate(321.40519 122.900342)scale(0.1 -0.1)">
      <use xlink:href="#DejaVuSans-49"/>
      <use x="63.623047" xlink:href="#DejaVuSans-53"/>
      <use x="127.246094" xlink:href="#DejaVuSans-48"/>
      <use x="190.869141" xlink:href="#DejaVuSans-48"/>
      <use x="254.492188" xlink:href="#DejaVuSans-48"/>
     </g>
    </g>
   </g>
   <g id="xtick_15">
    <g id="line2d_18">
     <path d="M 318.41719 99.502851 
L 321.428876 100.288485 
" style="fill:none;stroke:#000000;stroke-linecap:square;stroke-width:0.8;"/>
    </g>
    <g id="text_15">
     <!-- 20000 -->
     <g transform="translate(322.389783 104.939807)scale(0.1 -0.1)">
      <use xlink:href="#DejaVuSans-50"/>
      <use x="63.623047" xlink:href="#DejaVuSans-48"/>
      <use x="127.246094" xlink:href="#DejaVuSans-48"/>
      <use x="190.869141" xlink:href="#DejaVuSans-48"/>
      <use x="254.492188" xlink:href="#DejaVuSans-48"/>
     </g>
    </g>
   </g>
  </g>
  <g id="axes_1">
   <g id="Poly3DCollection_1">
    <path clip-path="url(#p1bb9bb24cd)" d="M 203.700438 142.115361 
L 203.670722 139.186708 
L 215.851636 142.728187 
L 215.863902 145.66701 
z
" style="fill:#0c033b;"/>
    <path clip-path="url(#p1bb9bb24cd)" d="M 196.401162 148.290596 
L 196.360571 145.344295 
L 203.670722 139.186708 
L 203.700438 142.115361 
z
" style="fill:#1a057d;"/>
    <path clip-path="url(#p1bb9bb24cd)" d="M 196.401162 148.290596 
L 203.700438 142.115361 
L 215.863902 145.66701 
L 208.637156 151.907182 
z
" style="fill:#10034c;"/>
    <path clip-path="url(#p1bb9bb24cd)" d="M 196.360571 145.344295 
L 208.614223 148.95062 
L 215.851636 142.728187 
L 203.670722 139.186708 
z
" style="fill:#17056d;"/>
    <path clip-path="url(#p1bb9bb24cd)" d="M 215.863902 145.66701 
L 215.838506 139.582364 
L 228.166522 143.150074 
L 228.155024 149.255935 
z
" style="fill:#15023f;"/>
    <path clip-path="url(#p1bb9bb24cd)" d="M 208.637156 151.907182 
L 215.863902 145.66701 
L 215.851636 142.728187 
L 208.614223 148.95062 
z
" style="fill:#0c033b;"/>
    <path clip-path="url(#p1bb9bb24cd)" d="M 208.637156 151.907182 
L 208.589674 145.785721 
L 215.838506 139.582364 
L 215.863902 145.66701 
z
" style="fill:#2c0485;"/>
    <path clip-path="url(#p1bb9bb24cd)" d="M 208.637156 151.907182 
L 215.863902 145.66701 
L 228.155024 149.255935 
L 221.002748 155.562072 
z
" style="fill:#1a0250;"/>
    <path clip-path="url(#p1bb9bb24cd)" d="M 196.401162 148.290596 
L 208.637156 151.907182 
L 208.614223 148.95062 
L 196.360571 145.344295 
z
" style="fill:#1a057d;"/>
    <path clip-path="url(#p1bb9bb24cd)" d="M 196.401162 148.290596 
L 196.276397 139.234585 
L 208.566665 142.819487 
L 208.637156 151.907182 
z
" style="fill:#1b0141;"/>
    <path clip-path="url(#p1bb9bb24cd)" d="M 208.589674 145.785721 
L 220.992607 149.419207 
L 228.166522 143.150074 
L 215.838506 139.582364 
z
" style="fill:#260473;"/>
    <path clip-path="url(#p1bb9bb24cd)" d="M 188.96817 154.578956 
L 188.808758 145.467964 
L 196.276397 139.234585 
L 196.401162 148.290596 
z
" style="fill:#39038b;"/>
    <path clip-path="url(#p1bb9bb24cd)" d="M 188.96817 154.578956 
L 196.401162 148.290596 
L 208.637156 151.907182 
L 201.27732 158.262275 
z
" style="fill:#230254;"/>
    <path clip-path="url(#p1bb9bb24cd)" d="M 221.002748 155.562072 
L 228.155024 149.255935 
L 228.166522 143.150074 
L 220.992607 149.419207 
z
" style="fill:#15023f;"/>
    <path clip-path="url(#p1bb9bb24cd)" d="M 228.155024 149.255935 
L 228.184016 133.859504 
L 240.699824 137.432149 
L 240.575825 152.882725 
z
" style="fill:#280045;"/>
    <path clip-path="url(#p1bb9bb24cd)" d="M 221.002748 155.562072 
L 228.155024 149.255935 
L 240.575825 152.882725 
L 233.500008 159.25588 
z
" style="fill:#340059;"/>
    <path clip-path="url(#p1bb9bb24cd)" d="M 208.637156 151.907182 
L 221.002748 155.562072 
L 220.992607 149.419207 
L 208.589674 145.785721 
z
" style="fill:#2c0485;"/>
    <path clip-path="url(#p1bb9bb24cd)" d="M 221.002748 155.562072 
L 220.977176 140.07168 
L 228.184016 133.859504 
L 228.155024 149.255935 
z
" style="fill:#560093;"/>
    <path clip-path="url(#p1bb9bb24cd)" d="M 188.808758 145.467964 
L 201.172829 149.119315 
L 208.566665 142.819487 
L 196.276397 139.234585 
z
" style="fill:#320378;"/>
    <path clip-path="url(#p1bb9bb24cd)" d="M 201.27732 158.262275 
L 208.637156 151.907182 
L 208.566665 142.819487 
L 201.172829 149.119315 
z
" style="fill:#1b0141;"/>
    <path clip-path="url(#p1bb9bb24cd)" d="M 201.27732 158.262275 
L 208.637156 151.907182 
L 221.002748 155.562072 
L 213.718049 161.984967 
z
" style="fill:#560f52;"/>
    <path clip-path="url(#p1bb9bb24cd)" d="M 233.500008 159.25588 
L 240.575825 152.882725 
L 253.128369 156.547983 
L 246.131049 162.989229 
z
" style="fill:#40015a;"/>
    <path clip-path="url(#p1bb9bb24cd)" d="M 188.96817 154.578956 
L 201.27732 158.262275 
L 201.172829 149.119315 
L 188.808758 145.467964 
z
" style="fill:#39038b;"/>
    <path clip-path="url(#p1bb9bb24cd)" d="M 240.575825 152.882725 
L 240.73741 132.748911 
L 253.416402 136.342995 
L 253.128369 156.547983 
z
" style="fill:#320146;"/>
    <path clip-path="url(#p1bb9bb24cd)" d="M 233.500008 159.25588 
L 240.575825 152.882725 
L 240.699824 137.432149 
L 233.570621 143.710852 
z
" style="fill:#280045;"/>
    <path clip-path="url(#p1bb9bb24cd)" d="M 208.637156 151.907182 
L 208.404869 121.960744 
L 220.953135 125.509049 
L 221.002748 155.562072 
z
" style="fill:#440c40;"/>
    <path clip-path="url(#p1bb9bb24cd)" d="M 220.977176 140.07168 
L 233.570621 143.710852 
L 240.699824 137.432149 
L 228.184016 133.859504 
z
" style="fill:#4a0080;"/>
    <path clip-path="url(#p1bb9bb24cd)" d="M 233.500008 159.25588 
L 233.592027 138.998552 
L 240.73741 132.748911 
L 240.575825 152.882725 
z
" style="fill:#6a0195;"/>
    <path clip-path="url(#p1bb9bb24cd)" d="M 181.397755 160.983577 
L 188.96817 154.578956 
L 201.27732 158.262275 
L 193.780682 164.735494 
z
" style="fill:#5c144f;"/>
    <path clip-path="url(#p1bb9bb24cd)" d="M 221.002748 155.562072 
L 233.500008 159.25588 
L 233.570621 143.710852 
L 220.977176 140.07168 
z
" style="fill:#560093;"/>
    <path clip-path="url(#p1bb9bb24cd)" d="M 201.27732 158.262275 
L 200.932962 128.130864 
L 208.404869 121.960744 
L 208.637156 151.907182 
z
" style="fill:#8f1988;"/>
    <path clip-path="url(#p1bb9bb24cd)" d="M 213.718049 161.984967 
L 221.002748 155.562072 
L 233.500008 159.25588 
L 226.292478 165.747667 
z
" style="fill:#743038;"/>
    <path clip-path="url(#p1bb9bb24cd)" d="M 246.131049 162.989229 
L 253.128369 156.547983 
L 265.814761 160.252323 
L 258.898031 166.762758 
z
" style="fill:#3f005a;"/>
    <path clip-path="url(#p1bb9bb24cd)" d="M 253.128369 156.547983 
L 253.405727 137.091823 
L 266.216489 140.727307 
L 265.814761 160.252323 
z
" style="fill:#310046;"/>
    <path clip-path="url(#p1bb9bb24cd)" d="M 188.96817 154.578956 
L 188.400913 122.158228 
L 200.905475 125.725798 
L 201.27732 158.262275 
z
" style="fill:#48103d;"/>
    <path clip-path="url(#p1bb9bb24cd)" d="M 246.131049 162.989229 
L 246.342961 143.413579 
L 253.405727 137.091823 
L 253.128369 156.547983 
z
" style="fill:#680195;"/>
    <path clip-path="url(#p1bb9bb24cd)" d="M 246.131049 162.989229 
L 253.128369 156.547983 
L 253.416402 136.342995 
L 246.351118 142.660081 
z
" style="fill:#320146;"/>
    <path clip-path="url(#p1bb9bb24cd)" d="M 193.780682 164.735494 
L 201.27732 158.262275 
L 213.718049 161.984967 
L 206.297214 168.527892 
z
" style="fill:#845022;"/>
    <path clip-path="url(#p1bb9bb24cd)" d="M 181.397755 160.983577 
L 180.702616 128.361974 
L 188.400913 122.158228 
L 188.96817 154.578956 
z
" style="fill:#982182;"/>
    <path clip-path="url(#p1bb9bb24cd)" d="M 213.718049 161.984967 
L 221.002748 155.562072 
L 220.953135 125.509049 
L 213.558601 131.745983 
z
" style="fill:#440c40;"/>
    <path clip-path="url(#p1bb9bb24cd)" d="M 226.292478 165.747667 
L 233.500008 159.25588 
L 246.131049 162.989229 
L 239.002775 169.551023 
z
" style="fill:#753237;"/>
    <path clip-path="url(#p1bb9bb24cd)" d="M 233.500008 159.25588 
L 246.131049 162.989229 
L 246.351118 142.660081 
L 233.592027 138.998552 
z
" style="fill:#6a0195;"/>
    <path clip-path="url(#p1bb9bb24cd)" d="M 233.592027 138.998552 
L 246.351118 142.660081 
L 253.416402 136.342995 
L 240.73741 132.748911 
z
" style="fill:#5c0181;"/>
    <path clip-path="url(#p1bb9bb24cd)" d="M 201.27732 158.262275 
L 213.718049 161.984967 
L 213.558601 131.745983 
L 200.932962 128.130864 
z
" style="fill:#8f1988;"/>
    <path clip-path="url(#p1bb9bb24cd)" d="M 258.898031 166.762758 
L 265.814761 160.252323 
L 278.637155 163.996376 
L 271.803162 170.57712 
z
" style="fill:#3f005a;"/>
    <path clip-path="url(#p1bb9bb24cd)" d="M 265.814761 160.252323 
L 266.217349 140.685502 
L 279.167056 144.360188 
L 278.637155 163.996376 
z
" style="fill:#310046;"/>
    <path clip-path="url(#p1bb9bb24cd)" d="M 221.002748 155.562072 
L 220.923931 107.818631 
L 233.717667 111.339973 
L 233.500008 159.25588 
z
" style="fill:#5b262c;"/>
    <path clip-path="url(#p1bb9bb24cd)" d="M 173.686069 167.507715 
L 181.397755 160.983577 
L 193.780682 164.735494 
L 186.143392 171.330164 
z
" style="fill:#834d24;"/>
    <path clip-path="url(#p1bb9bb24cd)" d="M 258.898031 166.762758 
L 265.814761 160.252323 
L 266.216489 140.727307 
L 259.235917 147.11763 
z
" style="fill:#310046;"/>
    <path clip-path="url(#p1bb9bb24cd)" d="M 258.898031 166.762758 
L 259.23664 147.075564 
L 266.217349 140.685502 
L 265.814761 160.252323 
z
" style="fill:#680195;"/>
    <path clip-path="url(#p1bb9bb24cd)" d="M 213.718049 161.984967 
L 213.464723 113.942207 
L 220.923931 107.818631 
L 221.002748 155.562072 
z
" style="fill:#c1505c;"/>
    <path clip-path="url(#p1bb9bb24cd)" d="M 206.297214 168.527892 
L 213.718049 161.984967 
L 226.292478 165.747667 
L 218.949524 172.361429 
z
" style="fill:#876517;"/>
    <path clip-path="url(#p1bb9bb24cd)" d="M 193.780682 164.735494 
L 201.27732 158.262275 
L 200.905475 125.725798 
L 193.283305 131.997071 
z
" style="fill:#48103d;"/>
    <path clip-path="url(#p1bb9bb24cd)" d="M 200.932962 128.130864 
L 213.558601 131.745983 
L 220.953135 125.509049 
L 208.404869 121.960744 
z
" style="fill:#7c1676;"/>
    <path clip-path="url(#p1bb9bb24cd)" d="M 239.002775 169.551023 
L 246.131049 162.989229 
L 258.898031 166.762758 
L 251.851153 173.395697 
z
" style="fill:#773535;"/>
    <path clip-path="url(#p1bb9bb24cd)" d="M 246.131049 162.989229 
L 258.898031 166.762758 
L 259.235917 147.11763 
L 246.342961 143.413579 
z
" style="fill:#680195;"/>
    <path clip-path="url(#p1bb9bb24cd)" d="M 246.342961 143.413579 
L 259.235917 147.11763 
L 266.216489 140.727307 
L 253.405727 137.091823 
z
" style="fill:#5a0181;"/>
    <path clip-path="url(#p1bb9bb24cd)" d="M 181.397755 160.983577 
L 193.780682 164.735494 
L 193.283305 131.997071 
L 180.702616 128.361974 
z
" style="fill:#982182;"/>
    <path clip-path="url(#p1bb9bb24cd)" d="M 278.637155 163.996376 
L 279.083857 147.44321 
L 292.154082 151.168975 
L 291.597749 167.780781 
z
" style="fill:#2a0046;"/>
    <path clip-path="url(#p1bb9bb24cd)" d="M 271.803162 170.57712 
L 278.637155 163.996376 
L 291.597749 167.780781 
L 284.848695 174.43298 
z
" style="fill:#360059;"/>
    <path clip-path="url(#p1bb9bb24cd)" d="M 233.500008 159.25588 
L 233.721616 110.470651 
L 246.661077 114.02733 
L 246.131049 162.989229 
z
" style="fill:#5c272b;"/>
    <path clip-path="url(#p1bb9bb24cd)" d="M 186.143392 171.330164 
L 193.780682 164.735494 
L 206.297214 168.527892 
L 198.736391 175.194243 
z
" style="fill:#847914;"/>
    <path clip-path="url(#p1bb9bb24cd)" d="M 271.803162 170.57712 
L 272.197333 153.922196 
L 279.083857 147.44321 
L 278.637155 163.996376 
z
" style="fill:#5a0094;"/>
    <path clip-path="url(#p1bb9bb24cd)" d="M 271.803162 170.57712 
L 278.637155 163.996376 
L 279.167056 144.360188 
L 272.270754 150.819938 
z
" style="fill:#310046;"/>
    <path clip-path="url(#p1bb9bb24cd)" d="M 226.292478 165.747667 
L 233.500008 159.25588 
L 233.717667 111.339973 
L 226.339345 117.530802 
z
" style="fill:#5b262c;"/>
    <path clip-path="url(#p1bb9bb24cd)" d="M 180.702616 128.361974 
L 193.283305 131.997071 
L 200.905475 125.725798 
L 188.400913 122.158228 
z
" style="fill:#841d71;"/>
    <path clip-path="url(#p1bb9bb24cd)" d="M 218.949524 172.361429 
L 226.292478 165.747667 
L 239.002775 169.551023 
L 231.739835 176.23678 
z
" style="fill:#876218;"/>
    <path clip-path="url(#p1bb9bb24cd)" d="M 226.292478 165.747667 
L 226.340196 116.655824 
L 233.721616 110.470651 
L 233.500008 159.25588 
z
" style="fill:#c2525b;"/>
    <path clip-path="url(#p1bb9bb24cd)" d="M 201.27732 158.262275 
L 200.54871 94.508792 
L 213.380651 97.998177 
L 213.718049 161.984967 
z
" style="fill:#673e1b;"/>
    <path clip-path="url(#p1bb9bb24cd)" d="M 291.597749 167.780781 
L 291.89729 158.836628 
L 305.058625 162.630494 
L 304.698789 171.606197 
z
" style="fill:#1a0241;"/>
    <path clip-path="url(#p1bb9bb24cd)" d="M 251.851153 173.395697 
L 258.898031 166.762758 
L 271.803162 170.57712 
L 264.839875 177.282368 
z
" style="fill:#702a3c;"/>
    <path clip-path="url(#p1bb9bb24cd)" d="M 258.898031 166.762758 
L 271.803162 170.57712 
L 272.270754 150.819938 
L 259.23664 147.075564 
z
" style="fill:#680195;"/>
    <path clip-path="url(#p1bb9bb24cd)" d="M 213.718049 161.984967 
L 226.292478 165.747667 
L 226.339345 117.530802 
L 213.464723 113.942207 
z
" style="fill:#c1505c;"/>
    <path clip-path="url(#p1bb9bb24cd)" d="M 259.23664 147.075564 
L 272.270754 150.819938 
L 279.167056 144.360188 
L 266.217349 140.685502 
z
" style="fill:#5a0181;"/>
    <path clip-path="url(#p1bb9bb24cd)" d="M 193.780682 164.735494 
L 192.805959 100.577081 
L 200.54871 94.508792 
L 201.27732 158.262275 
z
" style="fill:#db8439;"/>
    <path clip-path="url(#p1bb9bb24cd)" d="M 284.848695 174.43298 
L 285.12073 165.434083 
L 291.89729 158.836628 
L 291.597749 167.780781 
z
" style="fill:#38038a;"/>
    <path clip-path="url(#p1bb9bb24cd)" d="M 165.82912 174.154745 
L 173.686069 167.507715 
L 186.143392 171.330164 
L 178.361455 178.049733 
z
" style="fill:#876118;"/>
    <path clip-path="url(#p1bb9bb24cd)" d="M 284.848695 174.43298 
L 291.597749 167.780781 
L 304.698789 171.606197 
L 298.036935 178.33102 
z
" style="fill:#220253;"/>
    <path clip-path="url(#p1bb9bb24cd)" d="M 246.131049 162.989229 
L 246.677689 112.492781 
L 259.769697 116.082899 
L 258.898031 166.762758 
z
" style="fill:#5d2929;"/>
    <path clip-path="url(#p1bb9bb24cd)" d="M 181.397755 160.983577 
L 180.068748 98.615661 
L 192.829692 102.139274 
L 193.780682 164.735494 
z
" style="fill:#673c1c;"/>
    <path clip-path="url(#p1bb9bb24cd)" d="M 198.736391 175.194243 
L 206.297214 168.527892 
L 218.949524 172.361429 
L 211.467294 179.100638 
z
" style="fill:#857714;"/>
    <path clip-path="url(#p1bb9bb24cd)" d="M 284.848695 174.43298 
L 291.597749 167.780781 
L 292.154082 151.168975 
L 285.353959 157.718897 
z
" style="fill:#2a0046;"/>
    <path clip-path="url(#p1bb9bb24cd)" d="M 231.739835 176.23678 
L 239.002775 169.551023 
L 251.851153 173.395697 
L 244.670417 180.154631 
z
" style="fill:#875e1a;"/>
    <path clip-path="url(#p1bb9bb24cd)" d="M 239.002775 169.551023 
L 246.131049 162.989229 
L 246.661077 114.02733 
L 239.362852 120.280837 
z
" style="fill:#5c272b;"/>
    <path clip-path="url(#p1bb9bb24cd)" d="M 272.197333 153.922196 
L 285.353959 157.718897 
L 292.154082 151.168975 
L 279.083857 147.44321 
z
" style="fill:#4e0080;"/>
    <path clip-path="url(#p1bb9bb24cd)" d="M 239.002775 169.551023 
L 239.374141 118.736263 
L 246.677689 112.492781 
L 246.131049 162.989229 
z
" style="fill:#c65757;"/>
    <path clip-path="url(#p1bb9bb24cd)" d="M 173.686069 167.507715 
L 172.103302 104.743558 
L 180.068748 98.615661 
L 181.397755 160.983577 
z
" style="fill:#da7f3c;"/>
    <path clip-path="url(#p1bb9bb24cd)" d="M 271.803162 170.57712 
L 284.848695 174.43298 
L 285.353959 157.718897 
L 272.197333 153.922196 
z
" style="fill:#5a0094;"/>
    <path clip-path="url(#p1bb9bb24cd)" d="M 264.839875 177.282368 
L 271.803162 170.57712 
L 284.848695 174.43298 
L 277.971253 181.211726 
z
" style="fill:#641c48;"/>
    <path clip-path="url(#p1bb9bb24cd)" d="M 285.12073 165.434083 
L 298.37008 169.300301 
L 305.058625 162.630494 
L 291.89729 158.836628 
z
" style="fill:#300378;"/>
    <path clip-path="url(#p1bb9bb24cd)" d="M 226.292478 165.747667 
L 239.002775 169.551023 
L 239.362852 120.280837 
L 226.340196 116.655824 
z
" style="fill:#c2525b;"/>
    <path clip-path="url(#p1bb9bb24cd)" d="M 206.297214 168.527892 
L 213.718049 161.984967 
L 213.380651 97.998177 
L 205.718536 104.133903 
z
" style="fill:#673e1b;"/>
    <path clip-path="url(#p1bb9bb24cd)" d="M 298.036935 178.33102 
L 304.698789 171.606197 
L 305.058625 162.630494 
L 298.37008 169.300301 
z
" style="fill:#1a0241;"/>
    <path clip-path="url(#p1bb9bb24cd)" d="M 213.718049 161.984967 
L 213.33378 89.109179 
L 226.363576 92.602935 
L 226.292478 165.747667 
z
" style="fill:#6a4f12;"/>
    <path clip-path="url(#p1bb9bb24cd)" d="M 258.898031 166.762758 
L 259.674935 121.59249 
L 272.876077 125.243161 
L 271.803162 170.57712 
z
" style="fill:#57212f;"/>
    <path clip-path="url(#p1bb9bb24cd)" d="M 178.361455 178.049733 
L 186.143392 171.330164 
L 198.736391 175.194243 
L 191.031582 181.987547 
z
" style="fill:#867213;"/>
    <path clip-path="url(#p1bb9bb24cd)" d="M 213.464723 113.942207 
L 226.339345 117.530802 
L 233.717667 111.339973 
L 220.923931 107.818631 
z
" style="fill:#a74650;"/>
    <path clip-path="url(#p1bb9bb24cd)" d="M 211.467294 179.100638 
L 218.949524 172.361429 
L 231.739835 176.23678 
L 224.338378 183.050047 
z
" style="fill:#808512;"/>
    <path clip-path="url(#p1bb9bb24cd)" d="M 193.780682 164.735494 
L 206.297214 168.527892 
L 205.718536 104.133903 
L 192.805959 100.577081 
z
" style="fill:#db8439;"/>
    <path clip-path="url(#p1bb9bb24cd)" d="M 284.848695 174.43298 
L 298.036935 178.33102 
L 298.37008 169.300301 
L 285.12073 165.434083 
z
" style="fill:#38038a;"/>
    <path clip-path="url(#p1bb9bb24cd)" d="M 206.297214 168.527892 
L 205.63812 95.185312 
L 213.33378 89.109179 
L 213.718049 161.984967 
z
" style="fill:#e0a725;"/>
    <path clip-path="url(#p1bb9bb24cd)" d="M 251.851153 173.395697 
L 252.475593 127.941352 
L 259.674935 121.59249 
L 258.898031 166.762758 
z
" style="fill:#b94664;"/>
    <path clip-path="url(#p1bb9bb24cd)" d="M 244.670417 180.154631 
L 251.851153 173.395697 
L 264.839875 177.282368 
L 257.743589 184.115686 
z
" style="fill:#844e23;"/>
    <path clip-path="url(#p1bb9bb24cd)" d="M 251.851153 173.395697 
L 258.898031 166.762758 
L 259.769697 116.082899 
L 252.551776 122.395796 
z
" style="fill:#5d2929;"/>
    <path clip-path="url(#p1bb9bb24cd)" d="M 186.143392 171.330164 
L 193.780682 164.735494 
L 192.829692 102.139274 
L 184.94322 108.335498 
z
" style="fill:#673c1c;"/>
    <path clip-path="url(#p1bb9bb24cd)" d="M 271.803162 170.57712 
L 272.683009 133.400882 
L 285.976581 137.122614 
L 284.848695 174.43298 
z
" style="fill:#4e1638;"/>
    <path clip-path="url(#p1bb9bb24cd)" d="M 284.848695 174.43298 
L 285.331757 158.453344 
L 298.628523 162.294571 
L 298.036935 178.33102 
z
" style="fill:#290046;"/>
    <path clip-path="url(#p1bb9bb24cd)" d="M 157.822766 180.928173 
L 165.82912 174.154745 
L 178.361455 178.049733 
L 170.430723 184.897786 
z
" style="fill:#86551f;"/>
    <path clip-path="url(#p1bb9bb24cd)" d="M 277.971253 181.211726 
L 284.848695 174.43298 
L 298.036935 178.33102 
L 291.24765 185.184478 
z
" style="fill:#350059;"/>
    <path clip-path="url(#p1bb9bb24cd)" d="M 226.292478 165.747667 
L 226.362675 93.529646 
L 239.532511 97.06614 
L 239.002775 169.551023 
z
" style="fill:#6a4d13;"/>
    <path clip-path="url(#p1bb9bb24cd)" d="M 239.002775 169.551023 
L 251.851153 173.395697 
L 252.551776 122.395796 
L 239.374141 118.736263 
z
" style="fill:#c65757;"/>
    <path clip-path="url(#p1bb9bb24cd)" d="M 173.686069 167.507715 
L 186.143392 171.330164 
L 184.94322 108.335498 
L 172.103302 104.743558 
z
" style="fill:#da7f3c;"/>
    <path clip-path="url(#p1bb9bb24cd)" d="M 264.839875 177.282368 
L 265.597879 139.873365 
L 272.683009 133.400882 
L 271.803162 170.57712 
z
" style="fill:#a52e78;"/>
    <path clip-path="url(#p1bb9bb24cd)" d="M 191.031582 181.987547 
L 198.736391 175.194243 
L 211.467294 179.100638 
L 203.841786 185.968896 
z
" style="fill:#857714;"/>
    <path clip-path="url(#p1bb9bb24cd)" d="M 277.971253 181.211726 
L 278.403516 165.133506 
L 285.331757 158.453344 
L 284.848695 174.43298 
z
" style="fill:#570093;"/>
    <path clip-path="url(#p1bb9bb24cd)" d="M 193.780682 164.735494 
L 192.546979 83.530465 
L 205.564751 87.020968 
L 206.297214 168.527892 
z
" style="fill:#675e10;"/>
    <path clip-path="url(#p1bb9bb24cd)" d="M 226.340196 116.655824 
L 239.362852 120.280837 
L 246.661077 114.02733 
L 233.721616 110.470651 
z
" style="fill:#a9474f;"/>
    <path clip-path="url(#p1bb9bb24cd)" d="M 224.338378 183.050047 
L 231.739835 176.23678 
L 244.670417 180.154631 
L 237.351973 187.043183 
z
" style="fill:#837b14;"/>
    <path clip-path="url(#p1bb9bb24cd)" d="M 218.949524 172.361429 
L 218.754057 99.680237 
L 226.362675 93.529646 
L 226.292478 165.747667 
z
" style="fill:#e0a327;"/>
    <path clip-path="url(#p1bb9bb24cd)" d="M 218.949524 172.361429 
L 226.292478 165.747667 
L 226.363576 92.602935 
L 218.751547 98.747264 
z
" style="fill:#6a4f12;"/>
    <path clip-path="url(#p1bb9bb24cd)" d="M 264.839875 177.282368 
L 271.803162 170.57712 
L 272.876077 125.243161 
L 265.764247 131.662812 
z
" style="fill:#57212f;"/>
    <path clip-path="url(#p1bb9bb24cd)" d="M 173.686069 167.507715 
L 171.876191 95.737544 
L 184.770975 99.294659 
L 186.143392 171.330164 
z
" style="fill:#6a4c13;"/>
    <path clip-path="url(#p1bb9bb24cd)" d="M 186.143392 171.330164 
L 184.586294 89.601141 
L 192.546979 83.530465 
L 193.780682 164.735494 
z
" style="fill:#dbc821;"/>
    <path clip-path="url(#p1bb9bb24cd)" d="M 257.743589 184.115686 
L 264.839875 177.282368 
L 277.971253 181.211726 
L 270.961723 188.120663 
z
" style="fill:#722d3a;"/>
    <path clip-path="url(#p1bb9bb24cd)" d="M 206.297214 168.527892 
L 218.949524 172.361429 
L 218.751547 98.747264 
L 205.63812 95.185312 
z
" style="fill:#e0a725;"/>
    <path clip-path="url(#p1bb9bb24cd)" d="M 251.851153 173.395697 
L 264.839875 177.282368 
L 265.764247 131.662812 
L 252.475593 127.941352 
z
" style="fill:#b94664;"/>
    <path clip-path="url(#p1bb9bb24cd)" d="M 170.430723 184.897786 
L 178.361455 178.049733 
L 191.031582 181.987547 
L 183.178635 188.911464 
z
" style="fill:#86571e;"/>
    <path clip-path="url(#p1bb9bb24cd)" d="M 165.82912 174.154745 
L 163.718102 101.924057 
L 171.876191 95.737544 
L 173.686069 167.507715 
z
" style="fill:#e0a029;"/>
    <path clip-path="url(#p1bb9bb24cd)" d="M 239.002775 169.551023 
L 239.520986 98.643047 
L 252.828871 102.225498 
L 251.851153 173.395697 
z
" style="fill:#6a4a14;"/>
    <path clip-path="url(#p1bb9bb24cd)" d="M 277.971253 181.211726 
L 284.848695 174.43298 
L 285.976581 137.122614 
L 278.980633 143.667375 
z
" style="fill:#4e1638;"/>
    <path clip-path="url(#p1bb9bb24cd)" d="M 203.841786 185.968896 
L 211.467294 179.100638 
L 224.338378 183.050047 
L 216.794403 189.994506 
z
" style="fill:#837b14;"/>
    <path clip-path="url(#p1bb9bb24cd)" d="M 291.24765 185.184478 
L 298.036935 178.33102 
L 298.628523 162.294571 
L 291.789919 169.048955 
z
" style="fill:#290046;"/>
    <path clip-path="url(#p1bb9bb24cd)" d="M 206.297214 168.527892 
L 205.572312 87.862346 
L 218.731776 91.395578 
L 218.949524 172.361429 
z
" style="fill:#685d0f;"/>
    <path clip-path="url(#p1bb9bb24cd)" d="M 231.739835 176.23678 
L 232.003947 104.873691 
L 239.520986 98.643047 
L 239.002775 169.551023 
z
" style="fill:#e09c2b;"/>
    <path clip-path="url(#p1bb9bb24cd)" d="M 278.403516 165.133506 
L 291.789919 169.048955 
L 298.628523 162.294571 
L 285.331757 158.453344 
z
" style="fill:#4c0080;"/>
    <path clip-path="url(#p1bb9bb24cd)" d="M 237.351973 187.043183 
L 244.670417 180.154631 
L 257.743589 184.115686 
L 250.510457 191.080779 
z
" style="fill:#875b1b;"/>
    <path clip-path="url(#p1bb9bb24cd)" d="M 192.805959 100.577081 
L 205.718536 104.133903 
L 213.380651 97.998177 
L 200.54871 94.508792 
z
" style="fill:#be7331;"/>
    <path clip-path="url(#p1bb9bb24cd)" d="M 231.739835 176.23678 
L 239.002775 169.551023 
L 239.532511 97.06614 
L 232.009823 103.286121 
z
" style="fill:#6a4d13;"/>
    <path clip-path="url(#p1bb9bb24cd)" d="M 264.839875 177.282368 
L 277.971253 181.211726 
L 278.980633 143.667375 
L 265.597879 139.873365 
z
" style="fill:#a52e78;"/>
    <path clip-path="url(#p1bb9bb24cd)" d="M 239.374141 118.736263 
L 252.551776 122.395796 
L 259.769697 116.082899 
L 246.677689 112.492781 
z
" style="fill:#ac4c4c;"/>
    <path clip-path="url(#p1bb9bb24cd)" d="M 277.971253 181.211726 
L 291.24765 185.184478 
L 291.789919 169.048955 
L 278.403516 165.133506 
z
" style="fill:#570093;"/>
    <path clip-path="url(#p1bb9bb24cd)" d="M 277.971253 181.211726 
L 278.412632 164.794425 
L 291.801355 168.70865 
L 291.24765 185.184478 
z
" style="fill:#2a0046;"/>
    <path clip-path="url(#p1bb9bb24cd)" d="M 198.736391 175.194243 
L 197.697595 94.00747 
L 205.572312 87.862346 
L 206.297214 168.527892 
z
" style="fill:#dbc520;"/>
    <path clip-path="url(#p1bb9bb24cd)" d="M 198.736391 175.194243 
L 206.297214 168.527892 
L 205.564751 87.020968 
L 197.686756 93.160331 
z
" style="fill:#675e10;"/>
    <path clip-path="url(#p1bb9bb24cd)" d="M 149.662704 187.831639 
L 157.822766 180.928173 
L 170.430723 184.897786 
L 162.346885 191.878042 
z
" style="fill:#80432b;"/>
    <path clip-path="url(#p1bb9bb24cd)" d="M 270.961723 188.120663 
L 277.971253 181.211726 
L 291.24765 185.184478 
L 284.327244 192.170297 
z
" style="fill:#350059;"/>
    <path clip-path="url(#p1bb9bb24cd)" d="M 251.851153 173.395697 
L 252.729012 109.494424 
L 266.139454 113.145609 
L 264.839875 177.282368 
z
" style="fill:#673d1b;"/>
    <path clip-path="url(#p1bb9bb24cd)" d="M 218.949524 172.361429 
L 231.739835 176.23678 
L 232.009823 103.286121 
L 218.754057 99.680237 
z
" style="fill:#e0a327;"/>
    <path clip-path="url(#p1bb9bb24cd)" d="M 186.143392 171.330164 
L 184.63354 92.080973 
L 197.718611 95.64995 
L 198.736391 175.194243 
z
" style="fill:#68590f;"/>
    <path clip-path="url(#p1bb9bb24cd)" d="M 183.178635 188.911464 
L 191.031582 181.987547 
L 203.841786 185.968896 
L 196.068846 192.969946 
z
" style="fill:#876716;"/>
    <path clip-path="url(#p1bb9bb24cd)" d="M 178.361455 178.049733 
L 186.143392 171.330164 
L 184.770975 99.294659 
L 176.693206 105.55113 
z
" style="fill:#6a4c13;"/>
    <path clip-path="url(#p1bb9bb24cd)" d="M 270.961723 188.120663 
L 271.349132 171.601806 
L 278.412632 164.794425 
L 277.971253 181.211726 
z
" style="fill:#590094;"/>
    <path clip-path="url(#p1bb9bb24cd)" d="M 264.839875 177.282368 
L 265.797202 130.036431 
L 279.246091 133.793569 
L 277.971253 181.211726 
z
" style="fill:#59232d;"/>
    <path clip-path="url(#p1bb9bb24cd)" d="M 186.143392 171.330164 
L 198.736391 175.194243 
L 197.686756 93.160331 
L 184.586294 89.601141 
z
" style="fill:#dbc821;"/>
    <path clip-path="url(#p1bb9bb24cd)" d="M 252.475593 127.941352 
L 265.764247 131.662812 
L 272.876077 125.243161 
L 259.674935 121.59249 
z
" style="fill:#a13d57;"/>
    <path clip-path="url(#p1bb9bb24cd)" d="M 172.103302 104.743558 
L 184.94322 108.335498 
L 192.829692 102.139274 
L 180.068748 98.615661 
z
" style="fill:#bd6e34;"/>
    <path clip-path="url(#p1bb9bb24cd)" d="M 165.82912 174.154745 
L 163.864702 106.940119 
L 176.809079 110.586722 
L 178.361455 178.049733 
z
" style="fill:#684218;"/>
    <path clip-path="url(#p1bb9bb24cd)" d="M 244.670417 180.154631 
L 245.325518 115.844665 
L 252.729012 109.494424 
L 251.851153 173.395697 
z
" style="fill:#db823a;"/>
    <path clip-path="url(#p1bb9bb24cd)" d="M 216.794403 189.994506 
L 224.338378 183.050047 
L 237.351973 187.043183 
L 229.891821 194.06512 
z
" style="fill:#867213;"/>
    <path clip-path="url(#p1bb9bb24cd)" d="M 178.361455 178.049733 
L 176.526084 98.288351 
L 184.63354 92.080973 
L 186.143392 171.330164 
z
" style="fill:#ddbe20;"/>
    <path clip-path="url(#p1bb9bb24cd)" d="M 165.82912 174.154745 
L 178.361455 178.049733 
L 176.693206 105.55113 
L 163.718102 101.924057 
z
" style="fill:#e0a029;"/>
    <path clip-path="url(#p1bb9bb24cd)" d="M 265.597879 139.873365 
L 278.980633 143.667375 
L 285.976581 137.122614 
L 272.683009 133.400882 
z
" style="fill:#8f2868;"/>
    <path clip-path="url(#p1bb9bb24cd)" d="M 257.743589 184.115686 
L 258.540902 136.570878 
L 265.797202 130.036431 
L 264.839875 177.282368 
z
" style="fill:#bd4b60;"/>
    <path clip-path="url(#p1bb9bb24cd)" d="M 244.670417 180.154631 
L 251.851153 173.395697 
L 252.828871 102.225498 
L 245.400062 108.52678 
z
" style="fill:#6a4a14;"/>
    <path clip-path="url(#p1bb9bb24cd)" d="M 157.822766 180.928173 
L 155.567585 113.282462 
L 163.864702 106.940119 
L 165.82912 174.154745 
z
" style="fill:#dd8d33;"/>
    <path clip-path="url(#p1bb9bb24cd)" d="M 250.510457 191.080779 
L 257.743589 184.115686 
L 270.961723 188.120663 
L 263.816264 195.163579 
z
" style="fill:#7a3932;"/>
    <path clip-path="url(#p1bb9bb24cd)" d="M 218.949524 172.361429 
L 218.717164 85.962506 
L 232.060792 89.514293 
L 231.739835 176.23678 
z
" style="fill:#64680e;"/>
    <path clip-path="url(#p1bb9bb24cd)" d="M 211.467294 179.100638 
L 218.949524 172.361429 
L 218.731776 91.395578 
L 210.942076 97.610598 
z
" style="fill:#685d0f;"/>
    <path clip-path="url(#p1bb9bb24cd)" d="M 162.346885 191.878042 
L 170.430723 184.897786 
L 183.178635 188.911464 
L 175.173234 195.969799 
z
" style="fill:#834d24;"/>
    <path clip-path="url(#p1bb9bb24cd)" d="M 231.739835 176.23678 
L 244.670417 180.154631 
L 245.400062 108.52678 
L 232.003947 104.873691 
z
" style="fill:#e09c2b;"/>
    <path clip-path="url(#p1bb9bb24cd)" d="M 211.467294 179.100638 
L 210.906818 92.140114 
L 218.717164 85.962506 
L 218.949524 172.361429 
z
" style="fill:#d4dc1e;"/>
    <path clip-path="url(#p1bb9bb24cd)" d="M 196.068846 192.969946 
L 203.841786 185.968896 
L 216.794403 189.994506 
L 209.103753 197.073984 
z
" style="fill:#866f14;"/>
    <path clip-path="url(#p1bb9bb24cd)" d="M 198.736391 175.194243 
L 197.698351 94.066504 
L 210.942458 97.669865 
L 211.467294 179.100638 
z
" style="fill:#685d0f;"/>
    <path clip-path="url(#p1bb9bb24cd)" d="M 284.327244 192.170297 
L 291.24765 185.184478 
L 291.801355 168.70865 
L 284.828514 175.592414 
z
" style="fill:#2a0046;"/>
    <path clip-path="url(#p1bb9bb24cd)" d="M 198.736391 175.194243 
L 211.467294 179.100638 
L 210.942076 97.610598 
L 197.697595 94.00747 
z
" style="fill:#dbc520;"/>
    <path clip-path="url(#p1bb9bb24cd)" d="M 257.743589 184.115686 
L 264.839875 177.282368 
L 266.139454 113.145609 
L 258.826036 119.567997 
z
" style="fill:#673d1b;"/>
    <path clip-path="url(#p1bb9bb24cd)" d="M 178.361455 178.049733 
L 176.790337 109.772238 
L 189.886954 113.457128 
L 191.031582 181.987547 
z
" style="fill:#694417;"/>
    <path clip-path="url(#p1bb9bb24cd)" d="M 229.891821 194.06512 
L 237.351973 187.043183 
L 250.510457 191.080779 
L 243.136481 198.181496 
z
" style="fill:#867014;"/>
    <path clip-path="url(#p1bb9bb24cd)" d="M 271.349132 171.601806 
L 284.828514 175.592414 
L 291.801355 168.70865 
L 278.412632 164.794425 
z
" style="fill:#4d0080;"/>
    <path clip-path="url(#p1bb9bb24cd)" d="M 205.63812 95.185312 
L 218.751547 98.747264 
L 226.363576 92.602935 
L 213.33378 89.109179 
z
" style="fill:#c29121;"/>
    <path clip-path="url(#p1bb9bb24cd)" d="M 191.031582 181.987547 
L 198.736391 175.194243 
L 197.718611 95.64995 
L 189.694392 101.92817 
z
" style="fill:#68590f;"/>
    <path clip-path="url(#p1bb9bb24cd)" d="M 231.739835 176.23678 
L 232.045652 93.605068 
L 245.515304 97.213786 
L 244.670417 180.154631 
z
" style="fill:#676010;"/>
    <path clip-path="url(#p1bb9bb24cd)" d="M 270.961723 188.120663 
L 271.342374 171.889971 
L 284.819769 175.881621 
L 284.327244 192.170297 
z
" style="fill:#290046;"/>
    <path clip-path="url(#p1bb9bb24cd)" d="M 270.961723 188.120663 
L 284.327244 192.170297 
L 284.828514 175.592414 
L 271.349132 171.601806 
z
" style="fill:#590094;"/>
    <path clip-path="url(#p1bb9bb24cd)" d="M 191.031582 181.987547 
L 189.667763 100.333855 
L 197.698351 94.066504 
L 198.736391 175.194243 
z
" style="fill:#dbc520;"/>
    <path clip-path="url(#p1bb9bb24cd)" d="M 270.961723 188.120663 
L 277.971253 181.211726 
L 279.246091 133.793569 
L 272.080844 140.40206 
z
" style="fill:#59232d;"/>
    <path clip-path="url(#p1bb9bb24cd)" d="M 141.344465 194.868925 
L 149.662704 187.831639 
L 162.346885 191.878042 
L 154.105465 198.994368 
z
" style="fill:#6f2a3d;"/>
    <path clip-path="url(#p1bb9bb24cd)" d="M 157.822766 180.928173 
L 155.859389 122.0353 
L 168.830457 125.788033 
L 170.430723 184.897786 
z
" style="fill:#643421;"/>
    <path clip-path="url(#p1bb9bb24cd)" d="M 170.430723 184.897786 
L 178.361455 178.049733 
L 176.809079 110.586722 
L 168.592576 117.001318 
z
" style="fill:#684218;"/>
    <path clip-path="url(#p1bb9bb24cd)" d="M 263.816264 195.163579 
L 270.961723 188.120663 
L 284.327244 192.170297 
L 277.271882 199.292348 
z
" style="fill:#350059;"/>
    <path clip-path="url(#p1bb9bb24cd)" d="M 244.670417 180.154631 
L 257.743589 184.115686 
L 258.826036 119.567997 
L 245.325518 115.844665 
z
" style="fill:#db823a;"/>
    <path clip-path="url(#p1bb9bb24cd)" d="M 170.430723 184.897786 
L 168.570377 116.181333 
L 176.790337 109.772238 
L 178.361455 178.049733 
z
" style="fill:#de9031;"/>
    <path clip-path="url(#p1bb9bb24cd)" d="M 178.361455 178.049733 
L 191.031582 181.987547 
L 189.694392 101.92817 
L 176.526084 98.288351 
z
" style="fill:#ddbe20;"/>
    <path clip-path="url(#p1bb9bb24cd)" d="M 175.173234 195.969799 
L 183.178635 188.911464 
L 196.068846 192.969946 
L 188.144156 200.107676 
z
" style="fill:#875b1b;"/>
    <path clip-path="url(#p1bb9bb24cd)" d="M 224.338378 183.050047 
L 224.338378 99.881794 
L 232.045652 93.605068 
L 231.739835 176.23678 
z
" style="fill:#dacb21;"/>
    <path clip-path="url(#p1bb9bb24cd)" d="M 263.816264 195.163579 
L 264.141727 178.832279 
L 271.342374 171.889971 
L 270.961723 188.120663 
z
" style="fill:#570093;"/>
    <path clip-path="url(#p1bb9bb24cd)" d="M 257.743589 184.115686 
L 270.961723 188.120663 
L 272.080844 140.40206 
L 258.540902 136.570878 
z
" style="fill:#bd4b60;"/>
    <path clip-path="url(#p1bb9bb24cd)" d="M 244.670417 180.154631 
L 245.38671 109.837526 
L 258.927166 113.53748 
L 257.743589 184.115686 
z
" style="fill:#694715;"/>
    <path clip-path="url(#p1bb9bb24cd)" d="M 149.662704 187.831639 
L 147.436672 128.562381 
L 155.859389 122.0353 
L 157.822766 180.928173 
z
" style="fill:#d36f46;"/>
    <path clip-path="url(#p1bb9bb24cd)" d="M 157.822766 180.928173 
L 170.430723 184.897786 
L 168.592576 117.001318 
L 155.567585 113.282462 
z
" style="fill:#dd8d33;"/>
    <path clip-path="url(#p1bb9bb24cd)" d="M 224.338378 183.050047 
L 231.739835 176.23678 
L 232.060792 89.514293 
L 224.338378 95.762755 
z
" style="fill:#64680e;"/>
    <path clip-path="url(#p1bb9bb24cd)" d="M 209.103753 197.073984 
L 216.794403 189.994506 
L 229.891821 194.06512 
L 222.285805 201.224351 
z
" style="fill:#837b14;"/>
    <path clip-path="url(#p1bb9bb24cd)" d="M 257.743589 184.115686 
L 258.643086 130.477545 
L 272.224292 134.28554 
L 270.961723 188.120663 
z
" style="fill:#5f2c27;"/>
    <path clip-path="url(#p1bb9bb24cd)" d="M 211.467294 179.100638 
L 210.929618 95.677729 
L 224.338378 99.31448 
L 224.338378 183.050047 
z
" style="fill:#666010;"/>
    <path clip-path="url(#p1bb9bb24cd)" d="M 237.351973 187.043183 
L 237.814991 116.27293 
L 245.38671 109.837526 
L 244.670417 180.154631 
z
" style="fill:#df972d;"/>
    <path clip-path="url(#p1bb9bb24cd)" d="M 218.754057 99.680237 
L 232.009823 103.286121 
L 239.532511 97.06614 
L 226.362675 93.529646 
z
" style="fill:#c28d22;"/>
    <path clip-path="url(#p1bb9bb24cd)" d="M 243.136481 198.181496 
L 250.510457 191.080779 
L 263.816264 195.163579 
L 256.530882 202.34441 
z
" style="fill:#7a3932;"/>
    <path clip-path="url(#p1bb9bb24cd)" d="M 211.467294 179.100638 
L 224.338378 183.050047 
L 224.338378 95.762755 
L 210.906818 92.140114 
z
" style="fill:#d4dc1e;"/>
    <path clip-path="url(#p1bb9bb24cd)" d="M 203.841786 185.968896 
L 211.467294 179.100638 
L 210.942458 97.669865 
L 202.997678 104.009209 
z
" style="fill:#685d0f;"/>
    <path clip-path="url(#p1bb9bb24cd)" d="M 250.510457 191.080779 
L 251.222168 137.100795 
L 258.643086 130.477545 
L 257.743589 184.115686 
z
" style="fill:#ca5e53;"/>
    <path clip-path="url(#p1bb9bb24cd)" d="M 154.105465 198.994368 
L 162.346885 191.878042 
L 175.173234 195.969799 
L 167.010898 203.166503 
z
" style="fill:#793733;"/>
    <path clip-path="url(#p1bb9bb24cd)" d="M 203.841786 185.968896 
L 202.977019 102.003331 
L 210.929618 95.677729 
L 211.467294 179.100638 
z
" style="fill:#d9cd22;"/>
    <path clip-path="url(#p1bb9bb24cd)" d="M 191.031582 181.987547 
L 189.770802 106.502969 
L 203.061466 110.202738 
L 203.841786 185.968896 
z
" style="fill:#6a5111;"/>
    <path clip-path="url(#p1bb9bb24cd)" d="M 183.178635 188.911464 
L 191.031582 181.987547 
L 189.886954 113.457128 
L 181.75006 119.939684 
z
" style="fill:#694417;"/>
    <path clip-path="url(#p1bb9bb24cd)" d="M 149.662704 187.831639 
L 147.949945 142.228541 
L 160.916943 146.108276 
L 162.346885 191.878042 
z
" style="fill:#572130;"/>
    <path clip-path="url(#p1bb9bb24cd)" d="M 163.718102 101.924057 
L 176.693206 105.55113 
L 184.770975 99.294659 
L 171.876191 95.737544 
z
" style="fill:#c28b23;"/>
    <path clip-path="url(#p1bb9bb24cd)" d="M 170.430723 184.897786 
L 168.695437 120.800741 
L 181.846112 124.577085 
L 183.178635 188.911464 
z
" style="fill:#673c1c;"/>
    <path clip-path="url(#p1bb9bb24cd)" d="M 188.144156 200.107676 
L 196.068846 192.969946 
L 209.103753 197.073984 
L 201.262108 204.292457 
z
" style="fill:#876716;"/>
    <path clip-path="url(#p1bb9bb24cd)" d="M 237.351973 187.043183 
L 244.670417 180.154631 
L 245.515304 97.213786 
L 237.898148 103.562775 
z
" style="fill:#676010;"/>
    <path clip-path="url(#p1bb9bb24cd)" d="M 277.271882 199.292348 
L 284.327244 192.170297 
L 284.819769 175.881621 
L 277.710753 182.902579 
z
" style="fill:#290046;"/>
    <path clip-path="url(#p1bb9bb24cd)" d="M 184.586294 89.601141 
L 197.686756 93.160331 
L 205.564751 87.020968 
L 192.546979 83.530465 
z
" style="fill:#beae1d;"/>
    <path clip-path="url(#p1bb9bb24cd)" d="M 191.031582 181.987547 
L 203.841786 185.968896 
L 202.997678 104.009209 
L 189.667763 100.333855 
z
" style="fill:#dbc520;"/>
    <path clip-path="url(#p1bb9bb24cd)" d="M 183.178635 188.911464 
L 181.605042 112.93819 
L 189.770802 106.502969 
L 191.031582 181.987547 
z
" style="fill:#e0ab24;"/>
    <path clip-path="url(#p1bb9bb24cd)" d="M 162.346885 191.878042 
L 170.430723 184.897786 
L 168.830457 125.788033 
L 160.488352 132.38989 
z
" style="fill:#643421;"/>
    <path clip-path="url(#p1bb9bb24cd)" d="M 170.430723 184.897786 
L 183.178635 188.911464 
L 181.75006 119.939684 
L 168.570377 116.181333 
z
" style="fill:#de9031;"/>
    <path clip-path="url(#p1bb9bb24cd)" d="M 224.338378 183.050047 
L 224.338378 103.097662 
L 237.877025 106.79143 
L 237.351973 187.043183 
z
" style="fill:#68590f;"/>
    <path clip-path="url(#p1bb9bb24cd)" d="M 264.141727 178.832279 
L 277.710753 182.902579 
L 284.819769 175.881621 
L 271.342374 171.889971 
z
" style="fill:#4c0080;"/>
    <path clip-path="url(#p1bb9bb24cd)" d="M 222.285805 201.224351 
L 229.891821 194.06512 
L 243.136481 198.181496 
L 235.617509 205.421836 
z
" style="fill:#867113;"/>
    <path clip-path="url(#p1bb9bb24cd)" d="M 141.344465 194.868925 
L 139.422042 148.976603 
L 147.949945 142.228541 
L 149.662704 187.831639 
z
" style="fill:#b94565;"/>
    <path clip-path="url(#p1bb9bb24cd)" d="M 258.540902 136.570878 
L 272.080844 140.40206 
L 279.246091 133.793569 
L 265.797202 130.036431 
z
" style="fill:#a44154;"/>
    <path clip-path="url(#p1bb9bb24cd)" d="M 263.816264 195.163579 
L 264.11731 180.057462 
L 277.677827 184.132202 
L 277.271882 199.292348 
z
" style="fill:#270045;"/>
    <path clip-path="url(#p1bb9bb24cd)" d="M 162.346885 191.878042 
L 160.331493 127.369112 
L 168.695437 120.800741 
L 170.430723 184.897786 
z
" style="fill:#da7f3c;"/>
    <path clip-path="url(#p1bb9bb24cd)" d="M 224.338378 183.050047 
L 237.351973 187.043183 
L 237.898148 103.562775 
L 224.338378 99.881794 
z
" style="fill:#dacb21;"/>
    <path clip-path="url(#p1bb9bb24cd)" d="M 232.003947 104.873691 
L 245.400062 108.52678 
L 252.828871 102.225498 
L 239.520986 98.643047 
z
" style="fill:#c28725;"/>
    <path clip-path="url(#p1bb9bb24cd)" d="M 263.816264 195.163579 
L 277.271882 199.292348 
L 277.710753 182.902579 
L 264.141727 178.832279 
z
" style="fill:#570093;"/>
    <path clip-path="url(#p1bb9bb24cd)" d="M 250.510457 191.080779 
L 257.743589 184.115686 
L 258.927166 113.53748 
L 251.447019 120.046944 
z
" style="fill:#694715;"/>
    <path clip-path="url(#p1bb9bb24cd)" d="M 149.662704 187.831639 
L 162.346885 191.878042 
L 160.488352 132.38989 
L 147.436672 128.562381 
z
" style="fill:#d36f46;"/>
    <path clip-path="url(#p1bb9bb24cd)" d="M 256.530882 202.34441 
L 263.816264 195.163579 
L 277.271882 199.292348 
L 270.077576 206.554656 
z
" style="fill:#310058;"/>
    <path clip-path="url(#p1bb9bb24cd)" d="M 216.794403 189.994506 
L 216.488742 109.522544 
L 224.338378 103.097662 
L 224.338378 183.050047 
z
" style="fill:#ddbe20;"/>
    <path clip-path="url(#p1bb9bb24cd)" d="M 263.816264 195.163579 
L 270.961723 188.120663 
L 272.224292 134.28554 
L 264.895981 140.984814 
z
" style="fill:#5f2c27;"/>
    <path clip-path="url(#p1bb9bb24cd)" d="M 256.530882 202.34441 
L 256.778794 187.144549 
L 264.11731 180.057462 
L 263.816264 195.163579 
z
" style="fill:#520192;"/>
    <path clip-path="url(#p1bb9bb24cd)" d="M 167.010898 203.166503 
L 175.173234 195.969799 
L 188.144156 200.107676 
L 180.063228 207.386128 
z
" style="fill:#7c3c30;"/>
    <path clip-path="url(#p1bb9bb24cd)" d="M 245.325518 115.844665 
L 258.826036 119.567997 
L 266.139454 113.145609 
L 252.729012 109.494424 
z
" style="fill:#be7033;"/>
    <path clip-path="url(#p1bb9bb24cd)" d="M 216.794403 189.994506 
L 224.338378 183.050047 
L 224.338378 99.31448 
L 216.474273 105.713235 
z
" style="fill:#666010;"/>
    <path clip-path="url(#p1bb9bb24cd)" d="M 237.351973 187.043183 
L 250.510457 191.080779 
L 251.447019 120.046944 
L 237.814991 116.27293 
z
" style="fill:#df972d;"/>
    <path clip-path="url(#p1bb9bb24cd)" d="M 203.841786 185.968896 
L 203.02831 106.983429 
L 216.493264 110.71316 
L 216.794403 189.994506 
z
" style="fill:#69570f;"/>
    <path clip-path="url(#p1bb9bb24cd)" d="M 197.697595 94.00747 
L 210.942076 97.610598 
L 218.731776 91.395578 
L 205.572312 87.862346 
z
" style="fill:#bfab1c;"/>
    <path clip-path="url(#p1bb9bb24cd)" d="M 201.262108 204.292457 
L 209.103753 197.073984 
L 222.285805 201.224351 
L 214.529606 208.524945 
z
" style="fill:#857313;"/>
    <path clip-path="url(#p1bb9bb24cd)" d="M 250.510457 191.080779 
L 251.220639 137.216742 
L 264.893662 141.101205 
L 263.816264 195.163579 
z
" style="fill:#5f2c27;"/>
    <path clip-path="url(#p1bb9bb24cd)" d="M 250.510457 191.080779 
L 263.816264 195.163579 
L 264.895981 140.984814 
L 251.222168 137.100795 
z
" style="fill:#ca5e53;"/>
    <path clip-path="url(#p1bb9bb24cd)" d="M 203.841786 185.968896 
L 216.794403 189.994506 
L 216.474273 105.713235 
L 202.977019 102.003331 
z
" style="fill:#d9cd22;"/>
    <path clip-path="url(#p1bb9bb24cd)" d="M 196.068846 192.969946 
L 203.841786 185.968896 
L 203.061466 110.202738 
L 194.9818 116.712398 
z
" style="fill:#6a5111;"/>
    <path clip-path="url(#p1bb9bb24cd)" d="M 237.351973 187.043183 
L 237.870556 107.780147 
L 251.559436 111.520638 
L 250.510457 191.080779 
z
" style="fill:#69570f;"/>
    <path clip-path="url(#p1bb9bb24cd)" d="M 162.346885 191.878042 
L 160.69024 138.851941 
L 173.851796 142.748519 
L 175.173234 195.969799 
z
" style="fill:#5e2b28;"/>
    <path clip-path="url(#p1bb9bb24cd)" d="M 155.567585 113.282462 
L 168.592576 117.001318 
L 176.809079 110.586722 
L 163.864702 106.940119 
z
" style="fill:#c07a2d;"/>
    <path clip-path="url(#p1bb9bb24cd)" d="M 235.617509 205.421836 
L 243.136481 198.181496 
L 256.530882 202.34441 
L 249.101427 209.667246 
z
" style="fill:#753237;"/>
    <path clip-path="url(#p1bb9bb24cd)" d="M 154.105465 198.994368 
L 162.346885 191.878042 
L 160.916943 146.108276 
L 152.469263 152.933891 
z
" style="fill:#572130;"/>
    <path clip-path="url(#p1bb9bb24cd)" d="M 183.178635 188.911464 
L 181.710777 118.043109 
L 195.054857 121.837439 
L 196.068846 192.969946 
z
" style="fill:#694715;"/>
    <path clip-path="url(#p1bb9bb24cd)" d="M 196.068846 192.969946 
L 194.935593 113.470966 
L 203.02831 106.983429 
L 203.841786 185.968896 
z
" style="fill:#deb821;"/>
    <path clip-path="url(#p1bb9bb24cd)" d="M 175.173234 195.969799 
L 183.178635 188.911464 
L 181.846112 124.577085 
L 173.565586 131.221323 
z
" style="fill:#673c1c;"/>
    <path clip-path="url(#p1bb9bb24cd)" d="M 243.136481 198.181496 
L 243.651673 143.973274 
L 251.220639 137.216742 
L 250.510457 191.080779 
z
" style="fill:#ca5e53;"/>
    <path clip-path="url(#p1bb9bb24cd)" d="M 183.178635 188.911464 
L 196.068846 192.969946 
L 194.9818 116.712398 
L 181.605042 112.93819 
z
" style="fill:#e0ab24;"/>
    <path clip-path="url(#p1bb9bb24cd)" d="M 176.526084 98.288351 
L 189.694392 101.92817 
L 197.718611 95.64995 
L 184.63354 92.080973 
z
" style="fill:#c0a51c;"/>
    <path clip-path="url(#p1bb9bb24cd)" d="M 229.891821 194.06512 
L 230.115351 114.286444 
L 237.870556 107.780147 
L 237.351973 187.043183 
z
" style="fill:#deb920;"/>
    <path clip-path="url(#p1bb9bb24cd)" d="M 154.105465 198.994368 
L 152.209792 145.629565 
L 160.69024 138.851941 
L 162.346885 191.878042 
z
" style="fill:#c85a55;"/>
    <path clip-path="url(#p1bb9bb24cd)" d="M 229.891821 194.06512 
L 237.351973 187.043183 
L 237.877025 106.79143 
L 230.11814 113.290906 
z
" style="fill:#68590f;"/>
    <path clip-path="url(#p1bb9bb24cd)" d="M 141.344465 194.868925 
L 154.105465 198.994368 
L 152.469263 152.933891 
L 139.422042 148.976603 
z
" style="fill:#b94565;"/>
    <path clip-path="url(#p1bb9bb24cd)" d="M 175.173234 195.969799 
L 173.402252 124.643014 
L 181.710777 118.043109 
L 183.178635 188.911464 
z
" style="fill:#df972d;"/>
    <path clip-path="url(#p1bb9bb24cd)" d="M 270.077576 206.554656 
L 277.271882 199.292348 
L 277.677827 184.132202 
L 270.431829 191.300324 
z
" style="fill:#270045;"/>
    <path clip-path="url(#p1bb9bb24cd)" d="M 180.063228 207.386128 
L 188.144156 200.107676 
L 201.262108 204.292457 
L 193.264978 211.654059 
z
" style="fill:#845022;"/>
    <path clip-path="url(#p1bb9bb24cd)" d="M 162.346885 191.878042 
L 175.173234 195.969799 
L 173.565586 131.221323 
L 160.331493 127.369112 
z
" style="fill:#da7f3c;"/>
    <path clip-path="url(#p1bb9bb24cd)" d="M 256.530882 202.34441 
L 256.681889 193.085926 
L 270.293353 197.263152 
L 270.077576 206.554656 
z
" style="fill:#1a0241;"/>
    <path clip-path="url(#p1bb9bb24cd)" d="M 256.778794 187.144549 
L 270.431829 191.300324 
L 277.677827 184.132202 
L 264.11731 180.057462 
z
" style="fill:#47017f;"/>
    <path clip-path="url(#p1bb9bb24cd)" d="M 216.794403 189.994506 
L 229.891821 194.06512 
L 230.11814 113.290906 
L 216.488742 109.522544 
z
" style="fill:#ddbe20;"/>
    <path clip-path="url(#p1bb9bb24cd)" d="M 214.529606 208.524945 
L 222.285805 201.224351 
L 235.617509 205.421836 
L 227.94922 212.80596 
z
" style="fill:#875e1a;"/>
    <path clip-path="url(#p1bb9bb24cd)" d="M 256.530882 202.34441 
L 270.077576 206.554656 
L 270.431829 191.300324 
L 256.778794 187.144549 
z
" style="fill:#520192;"/>
    <path clip-path="url(#p1bb9bb24cd)" d="M 216.794403 189.994506 
L 216.475477 106.030213 
L 230.127964 109.78463 
L 229.891821 194.06512 
z
" style="fill:#676010;"/>
    <path clip-path="url(#p1bb9bb24cd)" d="M 249.101427 209.667246 
L 249.218739 200.351473 
L 256.681889 193.085926 
L 256.530882 202.34441 
z
" style="fill:#38038a;"/>
    <path clip-path="url(#p1bb9bb24cd)" d="M 147.436672 128.562381 
L 160.488352 132.38989 
L 168.830457 125.788033 
L 155.859389 122.0353 
z
" style="fill:#b7603d;"/>
    <path clip-path="url(#p1bb9bb24cd)" d="M 249.101427 209.667246 
L 256.530882 202.34441 
L 270.077576 206.554656 
L 262.740181 213.961405 
z
" style="fill:#220253;"/>
    <path clip-path="url(#p1bb9bb24cd)" d="M 209.103753 197.073984 
L 216.794403 189.994506 
L 216.493264 110.71316 
L 208.48947 117.276297 
z
" style="fill:#69570f;"/>
    <path clip-path="url(#p1bb9bb24cd)" d="M 168.570377 116.181333 
L 181.75006 119.939684 
L 189.886954 113.457128 
L 176.790337 109.772238 
z
" style="fill:#c17d2b;"/>
    <path clip-path="url(#p1bb9bb24cd)" d="M 175.173234 195.969799 
L 173.781153 139.903325 
L 187.113398 143.834066 
L 188.144156 200.107676 
z
" style="fill:#612f25;"/>
    <path clip-path="url(#p1bb9bb24cd)" d="M 210.906818 92.140114 
L 224.338378 95.762755 
L 232.060792 89.514293 
L 218.717164 85.962506 
z
" style="fill:#b8bf1a;"/>
    <path clip-path="url(#p1bb9bb24cd)" d="M 256.530882 202.34441 
L 263.816264 195.163579 
L 264.893662 141.101205 
L 257.418292 147.936065 
z
" style="fill:#5f2c27;"/>
    <path clip-path="url(#p1bb9bb24cd)" d="M 209.103753 197.073984 
L 208.453171 112.560914 
L 216.475477 106.030213 
L 216.794403 189.994506 
z
" style="fill:#dacb21;"/>
    <path clip-path="url(#p1bb9bb24cd)" d="M 196.068846 192.969946 
L 194.982337 116.750098 
L 208.514813 120.568461 
L 209.103753 197.073984 
z
" style="fill:#6a5111;"/>
    <path clip-path="url(#p1bb9bb24cd)" d="M 251.222168 137.100795 
L 264.895981 140.984814 
L 272.224292 134.28554 
L 258.643086 130.477545 
z
" style="fill:#af5148;"/>
    <path clip-path="url(#p1bb9bb24cd)" d="M 243.136481 198.181496 
L 250.510457 191.080779 
L 251.559436 111.520638 
L 243.897543 118.10288 
z
" style="fill:#69570f;"/>
    <path clip-path="url(#p1bb9bb24cd)" d="M 167.010898 203.166503 
L 175.173234 195.969799 
L 173.851796 142.748519 
L 165.454563 149.60477 
z
" style="fill:#5e2b28;"/>
    <path clip-path="url(#p1bb9bb24cd)" d="M 243.136481 198.181496 
L 243.617126 147.608313 
L 257.358777 151.585051 
L 256.530882 202.34441 
z
" style="fill:#5c272b;"/>
    <path clip-path="url(#p1bb9bb24cd)" d="M 196.068846 192.969946 
L 209.103753 197.073984 
L 208.48947 117.276297 
L 194.935593 113.470966 
z
" style="fill:#deb821;"/>
    <path clip-path="url(#p1bb9bb24cd)" d="M 188.144156 200.107676 
L 196.068846 192.969946 
L 195.054857 121.837439 
L 186.832787 128.514267 
z
" style="fill:#694715;"/>
    <path clip-path="url(#p1bb9bb24cd)" d="M 189.667763 100.333855 
L 202.997678 104.009209 
L 210.942458 97.669865 
L 197.698351 94.066504 
z
" style="fill:#bfab1c;"/>
    <path clip-path="url(#p1bb9bb24cd)" d="M 167.010898 203.166503 
L 165.371339 146.74058 
L 173.781153 139.903325 
L 175.173234 195.969799 
z
" style="fill:#cd634f;"/>
    <path clip-path="url(#p1bb9bb24cd)" d="M 193.264978 211.654059 
L 201.262108 204.292457 
L 214.529606 208.524945 
L 206.61873 215.971129 
z
" style="fill:#86561f;"/>
    <path clip-path="url(#p1bb9bb24cd)" d="M 139.422042 148.976603 
L 152.469263 152.933891 
L 160.916943 146.108276 
L 147.949945 142.228541 
z
" style="fill:#a03c58;"/>
    <path clip-path="url(#p1bb9bb24cd)" d="M 243.136481 198.181496 
L 256.530882 202.34441 
L 257.418292 147.936065 
L 243.651673 143.973274 
z
" style="fill:#ca5e53;"/>
    <path clip-path="url(#p1bb9bb24cd)" d="M 188.144156 200.107676 
L 186.738964 123.392041 
L 194.982337 116.750098 
L 196.068846 192.969946 
z
" style="fill:#e0ab24;"/>
    <path clip-path="url(#p1bb9bb24cd)" d="M 229.891821 194.06512 
L 243.136481 198.181496 
L 243.897543 118.10288 
L 230.115351 114.286444 
z
" style="fill:#deb920;"/>
    <path clip-path="url(#p1bb9bb24cd)" d="M 229.891821 194.06512 
L 230.116376 113.92045 
L 243.901036 117.735426 
L 243.136481 198.181496 
z
" style="fill:#69580f;"/>
    <path clip-path="url(#p1bb9bb24cd)" d="M 154.105465 198.994368 
L 167.010898 203.166503 
L 165.454563 149.60477 
L 152.209792 145.629565 
z
" style="fill:#c85a55;"/>
    <path clip-path="url(#p1bb9bb24cd)" d="M 227.94922 212.80596 
L 235.617509 205.421836 
L 249.101427 209.667246 
L 241.523583 217.136342 
z
" style="fill:#520c55;"/>
    <path clip-path="url(#p1bb9bb24cd)" d="M 237.814991 116.27293 
L 251.447019 120.046944 
L 258.927166 113.53748 
L 245.38671 109.837526 
z
" style="fill:#c28327;"/>
    <path clip-path="url(#p1bb9bb24cd)" d="M 235.617509 205.421836 
L 235.908811 154.525586 
L 243.617126 147.608313 
L 243.136481 198.181496 
z
" style="fill:#c2525b;"/>
    <path clip-path="url(#p1bb9bb24cd)" d="M 175.173234 195.969799 
L 188.144156 200.107676 
L 186.832787 128.514267 
L 173.402252 124.643014 
z
" style="fill:#df972d;"/>
    <path clip-path="url(#p1bb9bb24cd)" d="M 224.338378 99.881794 
L 237.898148 103.562775 
L 245.515304 97.213786 
L 232.045652 93.605068 
z
" style="fill:#bdb01d;"/>
    <path clip-path="url(#p1bb9bb24cd)" d="M 249.218739 200.351473 
L 262.923154 204.612352 
L 270.293353 197.263152 
L 256.681889 193.085926 
z
" style="fill:#300378;"/>
    <path clip-path="url(#p1bb9bb24cd)" d="M 262.740181 213.961405 
L 270.077576 206.554656 
L 270.293353 197.263152 
L 262.923154 204.612352 
z
" style="fill:#1a0241;"/>
    <path clip-path="url(#p1bb9bb24cd)" d="M 249.101427 209.667246 
L 249.132112 207.230527 
L 262.78804 211.51603 
L 262.740181 213.961405 
z
" style="fill:#0a033a;"/>
    <path clip-path="url(#p1bb9bb24cd)" d="M 222.285805 201.224351 
L 222.201964 120.5566 
L 230.116376 113.92045 
L 229.891821 194.06512 
z
" style="fill:#debb20;"/>
    <path clip-path="url(#p1bb9bb24cd)" d="M 235.617509 205.421836 
L 235.784096 176.315728 
L 249.469284 180.455576 
L 249.101427 209.667246 
z
" style="fill:#400942;"/>
    <path clip-path="url(#p1bb9bb24cd)" d="M 222.285805 201.224351 
L 229.891821 194.06512 
L 230.127964 109.78463 
L 222.197636 116.392056 
z
" style="fill:#676010;"/>
    <path clip-path="url(#p1bb9bb24cd)" d="M 249.101427 209.667246 
L 262.740181 213.961405 
L 262.923154 204.612352 
L 249.218739 200.351473 
z
" style="fill:#38038a;"/>
    <path clip-path="url(#p1bb9bb24cd)" d="M 241.523583 217.136342 
L 241.545091 214.684606 
L 249.132112 207.230527 
L 249.101427 209.667246 
z
" style="fill:#16067b;"/>
    <path clip-path="url(#p1bb9bb24cd)" d="M 160.331493 127.369112 
L 173.565586 131.221323 
L 181.846112 124.577085 
L 168.695437 120.800741 
z
" style="fill:#bd6e34;"/>
    <path clip-path="url(#p1bb9bb24cd)" d="M 209.103753 197.073984 
L 208.477471 115.717567 
L 222.20093 119.561368 
L 222.285805 201.224351 
z
" style="fill:#685a0f;"/>
    <path clip-path="url(#p1bb9bb24cd)" d="M 180.063228 207.386128 
L 188.144156 200.107676 
L 187.113398 143.834066 
L 178.78955 150.751217 
z
" style="fill:#612f25;"/>
    <path clip-path="url(#p1bb9bb24cd)" d="M 206.61873 215.971129 
L 214.529606 208.524945 
L 227.94922 212.80596 
L 220.127123 220.338193 
z
" style="fill:#6b2441;"/>
    <path clip-path="url(#p1bb9bb24cd)" d="M 188.144156 200.107676 
L 186.934191 134.050351 
L 200.486154 137.988866 
L 201.262108 204.292457 
z
" style="fill:#673e1b;"/>
    <path clip-path="url(#p1bb9bb24cd)" d="M 227.94922 212.80596 
L 228.003088 183.516696 
L 235.784096 176.315728 
L 235.617509 205.421836 
z
" style="fill:#88138c;"/>
    <path clip-path="url(#p1bb9bb24cd)" d="M 209.103753 197.073984 
L 222.285805 201.224351 
L 222.197636 116.392056 
L 208.453171 112.560914 
z
" style="fill:#dacb21;"/>
    <path clip-path="url(#p1bb9bb24cd)" d="M 202.977019 102.003331 
L 216.474273 105.713235 
L 224.338378 99.31448 
L 210.929618 95.677729 
z
" style="fill:#bcb21d;"/>
    <path clip-path="url(#p1bb9bb24cd)" d="M 201.262108 204.292457 
L 209.103753 197.073984 
L 208.514813 120.568461 
L 200.360927 127.288466 
z
" style="fill:#6a5111;"/>
    <path clip-path="url(#p1bb9bb24cd)" d="M 181.605042 112.93819 
L 194.9818 116.712398 
L 203.061466 110.202738 
L 189.770802 106.502969 
z
" style="fill:#c2941f;"/>
    <path clip-path="url(#p1bb9bb24cd)" d="M 241.523583 217.136342 
L 249.101427 209.667246 
L 262.740181 213.961405 
L 255.255385 221.516949 
z
" style="fill:#0d034a;"/>
    <path clip-path="url(#p1bb9bb24cd)" d="M 249.101427 209.667246 
L 256.530882 202.34441 
L 257.358777 151.585051 
L 249.744719 158.583182 
z
" style="fill:#5c272b;"/>
    <path clip-path="url(#p1bb9bb24cd)" d="M 167.010898 203.166503 
L 180.063228 207.386128 
L 178.78955 150.751217 
L 165.371339 146.74058 
z
" style="fill:#cd634f;"/>
    <path clip-path="url(#p1bb9bb24cd)" d="M 201.262108 204.292457 
L 200.303764 122.403995 
L 208.477471 115.717567 
L 209.103753 197.073984 
z
" style="fill:#ddbf20;"/>
    <path clip-path="url(#p1bb9bb24cd)" d="M 180.063228 207.386128 
L 178.568036 140.90144 
L 186.934191 134.050351 
L 188.144156 200.107676 
z
" style="fill:#db8439;"/>
    <path clip-path="url(#p1bb9bb24cd)" d="M 227.94922 212.80596 
L 227.963104 205.256715 
L 241.590045 209.560149 
L 241.523583 217.136342 
z
" style="fill:#170240;"/>
    <path clip-path="url(#p1bb9bb24cd)" d="M 241.545091 214.684606 
L 255.294304 219.056491 
L 262.78804 211.51603 
L 249.132112 207.230527 
z
" style="fill:#13056b;"/>
    <path clip-path="url(#p1bb9bb24cd)" d="M 188.144156 200.107676 
L 201.262108 204.292457 
L 200.360927 127.288466 
L 186.738964 123.392041 
z
" style="fill:#e0ab24;"/>
    <path clip-path="url(#p1bb9bb24cd)" d="M 243.651673 143.973274 
L 257.418292 147.936065 
L 264.893662 141.101205 
L 251.220639 137.216742 
z
" style="fill:#af5148;"/>
    <path clip-path="url(#p1bb9bb24cd)" d="M 235.617509 205.421836 
L 243.136481 198.181496 
L 243.901036 117.735426 
L 236.080948 124.449842 
z
" style="fill:#69580f;"/>
    <path clip-path="url(#p1bb9bb24cd)" d="M 222.285805 201.224351 
L 222.209825 128.119968 
L 236.037487 132.04333 
L 235.617509 205.421836 
z
" style="fill:#6a4a14;"/>
    <path clip-path="url(#p1bb9bb24cd)" d="M 235.617509 205.421836 
L 249.101427 209.667246 
L 249.744719 158.583182 
L 235.908811 154.525586 
z
" style="fill:#c2525b;"/>
    <path clip-path="url(#p1bb9bb24cd)" d="M 152.209792 145.629565 
L 165.454563 149.60477 
L 173.851796 142.748519 
L 160.69024 138.851941 
z
" style="fill:#ad4f4a;"/>
    <path clip-path="url(#p1bb9bb24cd)" d="M 216.488742 109.522544 
L 230.11814 113.290906 
L 237.877025 106.79143 
L 224.338378 103.097662 
z
" style="fill:#c0a51c;"/>
    <path clip-path="url(#p1bb9bb24cd)" d="M 220.127123 220.338193 
L 220.110767 212.742198 
L 227.963104 205.256715 
L 227.94922 212.80596 
z
" style="fill:#300487;"/>
    <path clip-path="url(#p1bb9bb24cd)" d="M 255.255385 221.516949 
L 262.740181 213.961405 
L 262.78804 211.51603 
L 255.294304 219.056491 
z
" style="fill:#0a033a;"/>
    <path clip-path="url(#p1bb9bb24cd)" d="M 222.285805 201.224351 
L 235.617509 205.421836 
L 236.080948 124.449842 
L 222.201964 120.5566 
z
" style="fill:#debb20;"/>
    <path clip-path="url(#p1bb9bb24cd)" d="M 214.529606 208.524945 
L 214.162796 134.944847 
L 222.209825 128.119968 
L 222.285805 201.224351 
z
" style="fill:#e09c2b;"/>
    <path clip-path="url(#p1bb9bb24cd)" d="M 220.127123 220.338193 
L 227.94922 212.80596 
L 241.523583 217.136342 
L 233.792858 224.756123 
z
" style="fill:#1d0251;"/>
    <path clip-path="url(#p1bb9bb24cd)" d="M 214.529606 208.524945 
L 214.313343 165.143834 
L 228.029298 169.265584 
L 227.94922 212.80596 
z
" style="fill:#541c33;"/>
    <path clip-path="url(#p1bb9bb24cd)" d="M 241.523583 217.136342 
L 249.101427 209.667246 
L 249.469284 180.455576 
L 241.781458 187.740649 
z
" style="fill:#400942;"/>
    <path clip-path="url(#p1bb9bb24cd)" d="M 241.523583 217.136342 
L 241.532877 216.076881 
L 255.272203 220.453723 
L 255.255385 221.516949 
z
" style="fill:#050338;"/>
    <path clip-path="url(#p1bb9bb24cd)" d="M 201.262108 204.292457 
L 200.450215 134.917884 
L 214.182466 138.890732 
L 214.529606 208.524945 
z
" style="fill:#694318;"/>
    <path clip-path="url(#p1bb9bb24cd)" d="M 241.523583 217.136342 
L 255.255385 221.516949 
L 255.294304 219.056491 
L 241.545091 214.684606 
z
" style="fill:#16067b;"/>
    <path clip-path="url(#p1bb9bb24cd)" d="M 214.529606 208.524945 
L 222.285805 201.224351 
L 222.20093 119.561368 
L 214.119834 126.327035 
z
" style="fill:#685a0f;"/>
    <path clip-path="url(#p1bb9bb24cd)" d="M 206.61873 215.971129 
L 206.224067 172.313671 
L 214.313343 165.143834 
L 214.529606 208.524945 
z
" style="fill:#b13c6c;"/>
    <path clip-path="url(#p1bb9bb24cd)" d="M 193.264978 211.654059 
L 201.262108 204.292457 
L 200.486154 137.988866 
L 192.209405 144.920875 
z
" style="fill:#673e1b;"/>
    <path clip-path="url(#p1bb9bb24cd)" d="M 227.94922 212.80596 
L 241.523583 217.136342 
L 241.781458 187.740649 
L 228.003088 183.516696 
z
" style="fill:#88138c;"/>
    <path clip-path="url(#p1bb9bb24cd)" d="M 194.935593 113.470966 
L 208.48947 117.276297 
L 216.493264 110.71316 
L 203.02831 106.983429 
z
" style="fill:#c1a01c;"/>
    <path clip-path="url(#p1bb9bb24cd)" d="M 173.402252 124.643014 
L 186.832787 128.514267 
L 195.054857 121.837439 
L 181.710777 118.043109 
z
" style="fill:#c28327;"/>
    <path clip-path="url(#p1bb9bb24cd)" d="M 233.792858 224.756123 
L 233.798023 223.690132 
L 241.532877 216.076881 
L 241.523583 217.136342 
z
" style="fill:#0b0777;"/>
    <path clip-path="url(#p1bb9bb24cd)" d="M 193.264978 211.654059 
L 192.160497 141.828917 
L 200.450215 134.917884 
L 201.262108 204.292457 
z
" style="fill:#de8e33;"/>
    <path clip-path="url(#p1bb9bb24cd)" d="M 220.110767 212.742198 
L 233.829793 217.132976 
L 241.590045 209.560149 
L 227.963104 205.256715 
z
" style="fill:#2a0375;"/>
    <path clip-path="url(#p1bb9bb24cd)" d="M 201.262108 204.292457 
L 214.529606 208.524945 
L 214.119834 126.327035 
L 200.303764 122.403995 
z
" style="fill:#ddbf20;"/>
    <path clip-path="url(#p1bb9bb24cd)" d="M 230.115351 114.286444 
L 243.897543 118.10288 
L 251.559436 111.520638 
L 237.870556 107.780147 
z
" style="fill:#c1a11c;"/>
    <path clip-path="url(#p1bb9bb24cd)" d="M 180.063228 207.386128 
L 193.264978 211.654059 
L 192.209405 144.920875 
L 178.568036 140.90144 
z
" style="fill:#db8439;"/>
    <path clip-path="url(#p1bb9bb24cd)" d="M 228.003088 183.516696 
L 241.781458 187.740649 
L 249.469284 180.455576 
L 235.784096 176.315728 
z
" style="fill:#76117a;"/>
    <path clip-path="url(#p1bb9bb24cd)" d="M 233.792858 224.756123 
L 241.523583 217.136342 
L 241.590045 209.560149 
L 233.829793 217.132976 
z
" style="fill:#170240;"/>
    <path clip-path="url(#p1bb9bb24cd)" d="M 165.371339 146.74058 
L 178.78955 150.751217 
L 187.113398 143.834066 
L 173.781153 139.903325 
z
" style="fill:#b25644;"/>
    <path clip-path="url(#p1bb9bb24cd)" d="M 235.908811 154.525586 
L 249.744719 158.583182 
L 257.358777 151.585051 
L 243.617126 147.608313 
z
" style="fill:#a9474f;"/>
    <path clip-path="url(#p1bb9bb24cd)" d="M 227.94922 212.80596 
L 235.617509 205.421836 
L 236.037487 132.04333 
L 228.085055 138.949228 
z
" style="fill:#6a4a14;"/>
    <path clip-path="url(#p1bb9bb24cd)" d="M 233.792858 224.756123 
L 241.523583 217.136342 
L 255.255385 221.516949 
L 247.618703 229.225814 
z
" style="fill:#070448;"/>
    <path clip-path="url(#p1bb9bb24cd)" d="M 233.798023 223.690132 
L 247.631495 228.156031 
L 255.272203 220.453723 
L 241.532877 216.076881 
z
" style="fill:#0a0667;"/>
    <path clip-path="url(#p1bb9bb24cd)" d="M 220.127123 220.338193 
L 233.792858 224.756123 
L 233.829793 217.132976 
L 220.110767 212.742198 
z
" style="fill:#300487;"/>
    <path clip-path="url(#p1bb9bb24cd)" d="M 214.529606 208.524945 
L 227.94922 212.80596 
L 228.085055 138.949228 
L 214.162796 134.944847 
z
" style="fill:#e09c2b;"/>
    <path clip-path="url(#p1bb9bb24cd)" d="M 220.127123 220.338193 
L 227.94922 212.80596 
L 228.029298 169.265584 
L 220.032772 176.520128 
z
" style="fill:#541c33;"/>
    <path clip-path="url(#p1bb9bb24cd)" d="M 247.618703 229.225814 
L 255.255385 221.516949 
L 255.272203 220.453723 
L 247.631495 228.156031 
z
" style="fill:#050338;"/>
    <path clip-path="url(#p1bb9bb24cd)" d="M 206.61873 215.971129 
L 214.529606 208.524945 
L 214.182466 138.890732 
L 205.985142 145.884004 
z
" style="fill:#694318;"/>
    <path clip-path="url(#p1bb9bb24cd)" d="M 206.61873 215.971129 
L 220.127123 220.338193 
L 220.032772 176.520128 
L 206.224067 172.313671 
z
" style="fill:#b13c6c;"/>
    <path clip-path="url(#p1bb9bb24cd)" d="M 208.453171 112.560914 
L 222.197636 116.392056 
L 230.127964 109.78463 
L 216.475477 106.030213 
z
" style="fill:#bdb01d;"/>
    <path clip-path="url(#p1bb9bb24cd)" d="M 186.738964 123.392041 
L 200.360927 127.288466 
L 208.514813 120.568461 
L 194.982337 116.750098 
z
" style="fill:#c2941f;"/>
    <path clip-path="url(#p1bb9bb24cd)" d="M 233.792858 224.756123 
L 247.618703 229.225814 
L 247.631495 228.156031 
L 233.798023 223.690132 
z
" style="fill:#0b0777;"/>
    <path clip-path="url(#p1bb9bb24cd)" d="M 193.264978 211.654059 
L 206.61873 215.971129 
L 205.985142 145.884004 
L 192.160497 141.828917 
z
" style="fill:#de8e33;"/>
    <path clip-path="url(#p1bb9bb24cd)" d="M 222.201964 120.5566 
L 236.080948 124.449842 
L 243.901036 117.735426 
L 230.116376 113.92045 
z
" style="fill:#c1a21c;"/>
    <path clip-path="url(#p1bb9bb24cd)" d="M 178.568036 140.90144 
L 192.209405 144.920875 
L 200.486154 137.988866 
L 186.934191 134.050351 
z
" style="fill:#be7331;"/>
    <path clip-path="url(#p1bb9bb24cd)" d="M 206.224067 172.313671 
L 220.032772 176.520128 
L 228.029298 169.265584 
L 214.313343 165.143834 
z
" style="fill:#9a345e;"/>
    <path clip-path="url(#p1bb9bb24cd)" d="M 200.303764 122.403995 
L 214.119834 126.327035 
L 222.20093 119.561368 
L 208.477471 115.717567 
z
" style="fill:#c0a61c;"/>
    <path clip-path="url(#p1bb9bb24cd)" d="M 214.162796 134.944847 
L 228.085055 138.949228 
L 236.037487 132.04333 
L 222.209825 128.119968 
z
" style="fill:#c28725;"/>
    <path clip-path="url(#p1bb9bb24cd)" d="M 192.160497 141.828917 
L 205.985142 145.884004 
L 214.182466 138.890732 
L 200.450215 134.917884 
z
" style="fill:#c07b2c;"/>
   </g>
   <g id="text_16">
    <!-- W10__H45__A060_bars_extracted.txt -->
    <g transform="translate(110.101875 28.56)scale(0.12 -0.12)">
     <defs>
      <path d="M 3.328125 72.90625 
L 13.28125 72.90625 
L 28.609375 11.28125 
L 43.890625 72.90625 
L 54.984375 72.90625 
L 70.3125 11.28125 
L 85.59375 72.90625 
L 95.609375 72.90625 
L 77.296875 0 
L 64.890625 0 
L 49.515625 63.28125 
L 33.984375 0 
L 21.578125 0 
z
" id="DejaVuSans-87"/>
      <path d="M 50.984375 -16.609375 
L 50.984375 -23.578125 
L -0.984375 -23.578125 
L -0.984375 -16.609375 
z
" id="DejaVuSans-95"/>
      <path d="M 9.8125 72.90625 
L 19.671875 72.90625 
L 19.671875 43.015625 
L 55.515625 43.015625 
L 55.515625 72.90625 
L 65.375 72.90625 
L 65.375 0 
L 55.515625 0 
L 55.515625 34.71875 
L 19.671875 34.71875 
L 19.671875 0 
L 9.8125 0 
z
" id="DejaVuSans-72"/>
      <path d="M 34.1875 63.1875 
L 20.796875 26.90625 
L 47.609375 26.90625 
z
M 28.609375 72.90625 
L 39.796875 72.90625 
L 67.578125 0 
L 57.328125 0 
L 50.6875 18.703125 
L 17.828125 18.703125 
L 11.1875 0 
L 0.78125 0 
z
" id="DejaVuSans-65"/>
      <path d="M 48.6875 27.296875 
Q 48.6875 37.203125 44.609375 42.84375 
Q 40.53125 48.484375 33.40625 48.484375 
Q 26.265625 48.484375 22.1875 42.84375 
Q 18.109375 37.203125 18.109375 27.296875 
Q 18.109375 17.390625 22.1875 11.75 
Q 26.265625 6.109375 33.40625 6.109375 
Q 40.53125 6.109375 44.609375 11.75 
Q 48.6875 17.390625 48.6875 27.296875 
z
M 18.109375 46.390625 
Q 20.953125 51.265625 25.265625 53.625 
Q 29.59375 56 35.59375 56 
Q 45.5625 56 51.78125 48.09375 
Q 58.015625 40.1875 58.015625 27.296875 
Q 58.015625 14.40625 51.78125 6.484375 
Q 45.5625 -1.421875 35.59375 -1.421875 
Q 29.59375 -1.421875 25.265625 0.953125 
Q 20.953125 3.328125 18.109375 8.203125 
L 18.109375 0 
L 9.078125 0 
L 9.078125 75.984375 
L 18.109375 75.984375 
z
" id="DejaVuSans-98"/>
      <path d="M 34.28125 27.484375 
Q 23.390625 27.484375 19.1875 25 
Q 14.984375 22.515625 14.984375 16.5 
Q 14.984375 11.71875 18.140625 8.90625 
Q 21.296875 6.109375 26.703125 6.109375 
Q 34.1875 6.109375 38.703125 11.40625 
Q 43.21875 16.703125 43.21875 25.484375 
L 43.21875 27.484375 
z
M 52.203125 31.203125 
L 52.203125 0 
L 43.21875 0 
L 43.21875 8.296875 
Q 40.140625 3.328125 35.546875 0.953125 
Q 30.953125 -1.421875 24.3125 -1.421875 
Q 15.921875 -1.421875 10.953125 3.296875 
Q 6 8.015625 6 15.921875 
Q 6 25.140625 12.171875 29.828125 
Q 18.359375 34.515625 30.609375 34.515625 
L 43.21875 34.515625 
L 43.21875 35.40625 
Q 43.21875 41.609375 39.140625 45 
Q 35.0625 48.390625 27.6875 48.390625 
Q 23 48.390625 18.546875 47.265625 
Q 14.109375 46.140625 10.015625 43.890625 
L 10.015625 52.203125 
Q 14.9375 54.109375 19.578125 55.046875 
Q 24.21875 56 28.609375 56 
Q 40.484375 56 46.34375 49.84375 
Q 52.203125 43.703125 52.203125 31.203125 
z
" id="DejaVuSans-97"/>
      <path d="M 41.109375 46.296875 
Q 39.59375 47.171875 37.8125 47.578125 
Q 36.03125 48 33.890625 48 
Q 26.265625 48 22.1875 43.046875 
Q 18.109375 38.09375 18.109375 28.8125 
L 18.109375 0 
L 9.078125 0 
L 9.078125 54.6875 
L 18.109375 54.6875 
L 18.109375 46.1875 
Q 20.953125 51.171875 25.484375 53.578125 
Q 30.03125 56 36.53125 56 
Q 37.453125 56 38.578125 55.875 
Q 39.703125 55.765625 41.0625 55.515625 
z
" id="DejaVuSans-114"/>
      <path d="M 44.28125 53.078125 
L 44.28125 44.578125 
Q 40.484375 46.53125 36.375 47.5 
Q 32.28125 48.484375 27.875 48.484375 
Q 21.1875 48.484375 17.84375 46.4375 
Q 14.5 44.390625 14.5 40.28125 
Q 14.5 37.15625 16.890625 35.375 
Q 19.28125 33.59375 26.515625 31.984375 
L 29.59375 31.296875 
Q 39.15625 29.25 43.1875 25.515625 
Q 47.21875 21.78125 47.21875 15.09375 
Q 47.21875 7.46875 41.1875 3.015625 
Q 35.15625 -1.421875 24.609375 -1.421875 
Q 20.21875 -1.421875 15.453125 -0.5625 
Q 10.6875 0.296875 5.421875 2 
L 5.421875 11.28125 
Q 10.40625 8.6875 15.234375 7.390625 
Q 20.0625 6.109375 24.8125 6.109375 
Q 31.15625 6.109375 34.5625 8.28125 
Q 37.984375 10.453125 37.984375 14.40625 
Q 37.984375 18.0625 35.515625 20.015625 
Q 33.0625 21.96875 24.703125 23.78125 
L 21.578125 24.515625 
Q 13.234375 26.265625 9.515625 29.90625 
Q 5.8125 33.546875 5.8125 39.890625 
Q 5.8125 47.609375 11.28125 51.796875 
Q 16.75 56 26.8125 56 
Q 31.78125 56 36.171875 55.265625 
Q 40.578125 54.546875 44.28125 53.078125 
z
" id="DejaVuSans-115"/>
      <path d="M 56.203125 29.59375 
L 56.203125 25.203125 
L 14.890625 25.203125 
Q 15.484375 15.921875 20.484375 11.0625 
Q 25.484375 6.203125 34.421875 6.203125 
Q 39.59375 6.203125 44.453125 7.46875 
Q 49.3125 8.734375 54.109375 11.28125 
L 54.109375 2.78125 
Q 49.265625 0.734375 44.1875 -0.34375 
Q 39.109375 -1.421875 33.890625 -1.421875 
Q 20.796875 -1.421875 13.15625 6.1875 
Q 5.515625 13.8125 5.515625 26.8125 
Q 5.515625 40.234375 12.765625 48.109375 
Q 20.015625 56 32.328125 56 
Q 43.359375 56 49.78125 48.890625 
Q 56.203125 41.796875 56.203125 29.59375 
z
M 47.21875 32.234375 
Q 47.125 39.59375 43.09375 43.984375 
Q 39.0625 48.390625 32.421875 48.390625 
Q 24.90625 48.390625 20.390625 44.140625 
Q 15.875 39.890625 15.1875 32.171875 
z
" id="DejaVuSans-101"/>
      <path d="M 54.890625 54.6875 
L 35.109375 28.078125 
L 55.90625 0 
L 45.3125 0 
L 29.390625 21.484375 
L 13.484375 0 
L 2.875 0 
L 24.125 28.609375 
L 4.6875 54.6875 
L 15.28125 54.6875 
L 29.78125 35.203125 
L 44.28125 54.6875 
z
" id="DejaVuSans-120"/>
      <path d="M 18.3125 70.21875 
L 18.3125 54.6875 
L 36.8125 54.6875 
L 36.8125 47.703125 
L 18.3125 47.703125 
L 18.3125 18.015625 
Q 18.3125 11.328125 20.140625 9.421875 
Q 21.96875 7.515625 27.59375 7.515625 
L 36.8125 7.515625 
L 36.8125 0 
L 27.59375 0 
Q 17.1875 0 13.234375 3.875 
Q 9.28125 7.765625 9.28125 18.015625 
L 9.28125 47.703125 
L 2.6875 47.703125 
L 2.6875 54.6875 
L 9.28125 54.6875 
L 9.28125 70.21875 
z
" id="DejaVuSans-116"/>
      <path d="M 48.78125 52.59375 
L 48.78125 44.1875 
Q 44.96875 46.296875 41.140625 47.34375 
Q 37.3125 48.390625 33.40625 48.390625 
Q 24.65625 48.390625 19.8125 42.84375 
Q 14.984375 37.3125 14.984375 27.296875 
Q 14.984375 17.28125 19.8125 11.734375 
Q 24.65625 6.203125 33.40625 6.203125 
Q 37.3125 6.203125 41.140625 7.25 
Q 44.96875 8.296875 48.78125 10.40625 
L 48.78125 2.09375 
Q 45.015625 0.34375 40.984375 -0.53125 
Q 36.96875 -1.421875 32.421875 -1.421875 
Q 20.0625 -1.421875 12.78125 6.34375 
Q 5.515625 14.109375 5.515625 27.296875 
Q 5.515625 40.671875 12.859375 48.328125 
Q 20.21875 56 33.015625 56 
Q 37.15625 56 41.109375 55.140625 
Q 45.0625 54.296875 48.78125 52.59375 
z
" id="DejaVuSans-99"/>
      <path d="M 45.40625 46.390625 
L 45.40625 75.984375 
L 54.390625 75.984375 
L 54.390625 0 
L 45.40625 0 
L 45.40625 8.203125 
Q 42.578125 3.328125 38.25 0.953125 
Q 33.9375 -1.421875 27.875 -1.421875 
Q 17.96875 -1.421875 11.734375 6.484375 
Q 5.515625 14.40625 5.515625 27.296875 
Q 5.515625 40.1875 11.734375 48.09375 
Q 17.96875 56 27.875 56 
Q 33.9375 56 38.25 53.625 
Q 42.578125 51.265625 45.40625 46.390625 
z
M 14.796875 27.296875 
Q 14.796875 17.390625 18.875 11.75 
Q 22.953125 6.109375 30.078125 6.109375 
Q 37.203125 6.109375 41.296875 11.75 
Q 45.40625 17.390625 45.40625 27.296875 
Q 45.40625 37.203125 41.296875 42.84375 
Q 37.203125 48.484375 30.078125 48.484375 
Q 22.953125 48.484375 18.875 42.84375 
Q 14.796875 37.203125 14.796875 27.296875 
z
" id="DejaVuSans-100"/>
      <path d="M 10.6875 12.40625 
L 21 12.40625 
L 21 0 
L 10.6875 0 
z
" id="DejaVuSans-46"/>
     </defs>
     <use xlink:href="#DejaVuSans-87"/>
     <use x="98.876953" xlink:href="#DejaVuSans-49"/>
     <use x="162.5" xlink:href="#DejaVuSans-48"/>
     <use x="226.123047" xlink:href="#DejaVuSans-95"/>
     <use x="276.123047" xlink:href="#DejaVuSans-95"/>
     <use x="326.123047" xlink:href="#DejaVuSans-72"/>
     <use x="401.318359" xlink:href="#DejaVuSans-52"/>
     <use x="464.941406" xlink:href="#DejaVuSans-53"/>
     <use x="528.564453" xlink:href="#DejaVuSans-95"/>
     <use x="578.564453" xlink:href="#DejaVuSans-95"/>
     <use x="628.564453" xlink:href="#DejaVuSans-65"/>
     <use x="696.972656" xlink:href="#DejaVuSans-48"/>
     <use x="760.595703" xlink:href="#DejaVuSans-54"/>
     <use x="824.21875" xlink:href="#DejaVuSans-48"/>
     <use x="887.841797" xlink:href="#DejaVuSans-95"/>
     <use x="937.841797" xlink:href="#DejaVuSans-98"/>
     <use x="1001.318359" xlink:href="#DejaVuSans-97"/>
     <use x="1062.597656" xlink:href="#DejaVuSans-114"/>
     <use x="1103.710938" xlink:href="#DejaVuSans-115"/>
     <use x="1155.810547" xlink:href="#DejaVuSans-95"/>
     <use x="1205.810547" xlink:href="#DejaVuSans-101"/>
     <use x="1265.583984" xlink:href="#DejaVuSans-120"/>
     <use x="1324.763672" xlink:href="#DejaVuSans-116"/>
     <use x="1363.972656" xlink:href="#DejaVuSans-114"/>
     <use x="1405.085938" xlink:href="#DejaVuSans-97"/>
     <use x="1466.365234" xlink:href="#DejaVuSans-99"/>
     <use x="1521.345703" xlink:href="#DejaVuSans-116"/>
     <use x="1560.554688" xlink:href="#DejaVuSans-101"/>
     <use x="1622.078125" xlink:href="#DejaVuSans-100"/>
     <use x="1685.554688" xlink:href="#DejaVuSans-46"/>
     <use x="1717.341797" xlink:href="#DejaVuSans-116"/>
     <use x="1756.550781" xlink:href="#DejaVuSans-120"/>
     <use x="1815.730469" xlink:href="#DejaVuSans-116"/>
    </g>
   </g>
  </g>
 </g>
 <defs>
  <clipPath id="p1bb9bb24cd">
   <rect height="217.44" width="217.44" x="112.68" y="34.56"/>
  </clipPath>
 </defs>
</svg>
