<?xml version="1.0" encoding="utf-8" standalone="no"?>
<!DOCTYPE svg PUBLIC "-//W3C//DTD SVG 1.1//EN"
  "http://www.w3.org/Graphics/SVG/1.1/DTD/svg11.dtd">
<!-- Created with matplotlib (https://matplotlib.org/) -->
<svg height="288pt" version="1.1" viewBox="0 0 432 288" width="432pt" xmlns="http://www.w3.org/2000/svg" xmlns:xlink="http://www.w3.org/1999/xlink">
 <metadata>
  <rdf:RDF xmlns:cc="http://creativecommons.org/ns#" xmlns:dc="http://purl.org/dc/elements/1.1/" xmlns:rdf="http://www.w3.org/1999/02/22-rdf-syntax-ns#">
   <cc:Work>
    <dc:type rdf:resource="http://purl.org/dc/dcmitype/StillImage"/>
    <dc:date>2021-06-13T21:56:39.828600</dc:date>
    <dc:format>image/svg+xml</dc:format>
    <dc:creator>
     <cc:Agent>
      <dc:title>Matplotlib v3.3.4, https://matplotlib.org/</dc:title>
     </cc:Agent>
    </dc:creator>
   </cc:Work>
  </rdf:RDF>
 </metadata>
 <defs>
  <style type="text/css">*{stroke-linecap:butt;stroke-linejoin:round;}</style>
 </defs>
 <g id="figure_1">
  <g id="patch_1">
   <path d="M 0 288 
L 432 288 
L 432 0 
L 0 0 
z
" style="fill:#ffffff;"/>
  </g>
  <g id="patch_2">
   <path d="M 112.68 252 
L 330.12 252 
L 330.12 34.56 
L 112.68 34.56 
z
" style="fill:#ffffff;"/>
  </g>
  <g id="pane3d_1">
   <g id="patch_3">
    <path d="M 129.09822 198.386264 
L 200.904009 138.197228 
L 199.90584 51.393878 
L 124.663773 106.302111 
" style="fill:#f2f2f2;opacity:0.5;stroke:#f2f2f2;stroke-linejoin:miter;"/>
   </g>
  </g>
  <g id="pane3d_2">
   <g id="patch_4">
    <path d="M 200.904009 138.197228 
L 316.12668 171.68791 
L 320.238571 81.894718 
L 199.90584 51.393878 
" style="fill:#e6e6e6;opacity:0.5;stroke:#e6e6e6;stroke-linejoin:miter;"/>
   </g>
  </g>
  <g id="pane3d_3">
   <g id="patch_5">
    <path d="M 129.09822 198.386264 
L 251.239879 238.27773 
L 316.12668 171.68791 
L 200.904009 138.197228 
" style="fill:#ececec;opacity:0.5;stroke:#ececec;stroke-linejoin:miter;"/>
   </g>
  </g>
  <g id="axis3d_1">
   <g id="line2d_1">
    <path d="M 129.09822 198.386264 
L 251.239879 238.27773 
" style="fill:none;stroke:#000000;stroke-linecap:square;stroke-width:0.8;"/>
   </g>
   <g id="Line3DCollection_1">
    <path d="M 136.495759 200.802301 
L 207.911499 140.234029 
L 207.209612 53.245171 
" style="fill:none;stroke:#b0b0b0;stroke-width:0.8;"/>
    <path d="M 162.23134 209.207541 
L 232.260894 147.311436 
L 232.60309 59.681678 
" style="fill:none;stroke:#b0b0b0;stroke-width:0.8;"/>
    <path d="M 188.559037 217.806167 
L 257.123632 154.538053 
L 258.555303 66.259807 
" style="fill:none;stroke:#b0b0b0;stroke-width:0.8;"/>
    <path d="M 215.499525 226.604931 
L 282.516121 161.918647 
L 285.084894 72.984285 
" style="fill:none;stroke:#b0b0b0;stroke-width:0.8;"/>
    <path d="M 243.074449 235.610901 
L 308.455474 169.458193 
L 312.21135 79.860051 
" style="fill:none;stroke:#b0b0b0;stroke-width:0.8;"/>
   </g>
   <g id="xtick_1">
    <g id="line2d_2">
     <path d="M 137.117644 200.274876 
L 135.249322 201.859414 
" style="fill:none;stroke:#000000;stroke-linecap:square;stroke-width:0.8;"/>
    </g>
    <g id="text_1">
     <!-- 0 -->
     <g transform="translate(125.77919 224.124533)scale(0.1 -0.1)">
      <defs>
       <path d="M 31.78125 66.40625 
Q 24.171875 66.40625 20.328125 58.90625 
Q 16.5 51.421875 16.5 36.375 
Q 16.5 21.390625 20.328125 13.890625 
Q 24.171875 6.390625 31.78125 6.390625 
Q 39.453125 6.390625 43.28125 13.890625 
Q 47.125 21.390625 47.125 36.375 
Q 47.125 51.421875 43.28125 58.90625 
Q 39.453125 66.40625 31.78125 66.40625 
z
M 31.78125 74.21875 
Q 44.046875 74.21875 50.515625 64.515625 
Q 56.984375 54.828125 56.984375 36.375 
Q 56.984375 17.96875 50.515625 8.265625 
Q 44.046875 -1.421875 31.78125 -1.421875 
Q 19.53125 -1.421875 13.0625 8.265625 
Q 6.59375 17.96875 6.59375 36.375 
Q 6.59375 54.828125 13.0625 64.515625 
Q 19.53125 74.21875 31.78125 74.21875 
z
" id="DejaVuSans-48"/>
      </defs>
      <use xlink:href="#DejaVuSans-48"/>
     </g>
    </g>
   </g>
   <g id="xtick_2">
    <g id="line2d_3">
     <path d="M 162.841716 208.668056 
L 161.007937 210.288854 
" style="fill:none;stroke:#000000;stroke-linecap:square;stroke-width:0.8;"/>
    </g>
    <g id="text_2">
     <!-- 2 -->
     <g transform="translate(151.547192 232.748132)scale(0.1 -0.1)">
      <defs>
       <path d="M 19.1875 8.296875 
L 53.609375 8.296875 
L 53.609375 0 
L 7.328125 0 
L 7.328125 8.296875 
Q 12.9375 14.109375 22.625 23.890625 
Q 32.328125 33.6875 34.8125 36.53125 
Q 39.546875 41.84375 41.421875 45.53125 
Q 43.3125 49.21875 43.3125 52.78125 
Q 43.3125 58.59375 39.234375 62.25 
Q 35.15625 65.921875 28.609375 65.921875 
Q 23.96875 65.921875 18.8125 64.3125 
Q 13.671875 62.703125 7.8125 59.421875 
L 7.8125 69.390625 
Q 13.765625 71.78125 18.9375 73 
Q 24.125 74.21875 28.421875 74.21875 
Q 39.75 74.21875 46.484375 68.546875 
Q 53.21875 62.890625 53.21875 53.421875 
Q 53.21875 48.921875 51.53125 44.890625 
Q 49.859375 40.875 45.40625 35.40625 
Q 44.1875 33.984375 37.640625 27.21875 
Q 31.109375 20.453125 19.1875 8.296875 
z
" id="DejaVuSans-50"/>
      </defs>
      <use xlink:href="#DejaVuSans-50"/>
     </g>
    </g>
   </g>
   <g id="xtick_3">
    <g id="line2d_4">
     <path d="M 189.15721 217.254202 
L 187.360066 218.91252 
" style="fill:none;stroke:#000000;stroke-linecap:square;stroke-width:0.8;"/>
    </g>
    <g id="text_3">
     <!-- 4 -->
     <g transform="translate(177.91082 241.571064)scale(0.1 -0.1)">
      <defs>
       <path d="M 37.796875 64.3125 
L 12.890625 25.390625 
L 37.796875 25.390625 
z
M 35.203125 72.90625 
L 47.609375 72.90625 
L 47.609375 25.390625 
L 58.015625 25.390625 
L 58.015625 17.1875 
L 47.609375 17.1875 
L 47.609375 0 
L 37.796875 0 
L 37.796875 17.1875 
L 4.890625 17.1875 
L 4.890625 26.703125 
z
" id="DejaVuSans-52"/>
      </defs>
      <use xlink:href="#DejaVuSans-52"/>
     </g>
    </g>
   </g>
   <g id="xtick_4">
    <g id="line2d_5">
     <path d="M 216.084757 226.040048 
L 214.326462 227.737204 
" style="fill:none;stroke:#000000;stroke-linecap:square;stroke-width:0.8;"/>
    </g>
    <g id="text_4">
     <!-- 6 -->
     <g transform="translate(204.890965 250.600322)scale(0.1 -0.1)">
      <defs>
       <path d="M 33.015625 40.375 
Q 26.375 40.375 22.484375 35.828125 
Q 18.609375 31.296875 18.609375 23.390625 
Q 18.609375 15.53125 22.484375 10.953125 
Q 26.375 6.390625 33.015625 6.390625 
Q 39.65625 6.390625 43.53125 10.953125 
Q 47.40625 15.53125 47.40625 23.390625 
Q 47.40625 31.296875 43.53125 35.828125 
Q 39.65625 40.375 33.015625 40.375 
z
M 52.59375 71.296875 
L 52.59375 62.3125 
Q 48.875 64.0625 45.09375 64.984375 
Q 41.3125 65.921875 37.59375 65.921875 
Q 27.828125 65.921875 22.671875 59.328125 
Q 17.53125 52.734375 16.796875 39.40625 
Q 19.671875 43.65625 24.015625 45.921875 
Q 28.375 48.1875 33.59375 48.1875 
Q 44.578125 48.1875 50.953125 41.515625 
Q 57.328125 34.859375 57.328125 23.390625 
Q 57.328125 12.15625 50.6875 5.359375 
Q 44.046875 -1.421875 33.015625 -1.421875 
Q 20.359375 -1.421875 13.671875 8.265625 
Q 6.984375 17.96875 6.984375 36.375 
Q 6.984375 53.65625 15.1875 63.9375 
Q 23.390625 74.21875 37.203125 74.21875 
Q 40.921875 74.21875 44.703125 73.484375 
Q 48.484375 72.75 52.59375 71.296875 
z
" id="DejaVuSans-54"/>
      </defs>
      <use xlink:href="#DejaVuSans-54"/>
     </g>
    </g>
   </g>
   <g id="xtick_5">
    <g id="line2d_6">
     <path d="M 243.645962 235.032643 
L 241.928856 236.770015 
" style="fill:none;stroke:#000000;stroke-linecap:square;stroke-width:0.8;"/>
    </g>
    <g id="text_5">
     <!-- 8 -->
     <g transform="translate(232.509511 259.84323)scale(0.1 -0.1)">
      <defs>
       <path d="M 31.78125 34.625 
Q 24.75 34.625 20.71875 30.859375 
Q 16.703125 27.09375 16.703125 20.515625 
Q 16.703125 13.921875 20.71875 10.15625 
Q 24.75 6.390625 31.78125 6.390625 
Q 38.8125 6.390625 42.859375 10.171875 
Q 46.921875 13.96875 46.921875 20.515625 
Q 46.921875 27.09375 42.890625 30.859375 
Q 38.875 34.625 31.78125 34.625 
z
M 21.921875 38.8125 
Q 15.578125 40.375 12.03125 44.71875 
Q 8.5 49.078125 8.5 55.328125 
Q 8.5 64.0625 14.71875 69.140625 
Q 20.953125 74.21875 31.78125 74.21875 
Q 42.671875 74.21875 48.875 69.140625 
Q 55.078125 64.0625 55.078125 55.328125 
Q 55.078125 49.078125 51.53125 44.71875 
Q 48 40.375 41.703125 38.8125 
Q 48.828125 37.15625 52.796875 32.3125 
Q 56.78125 27.484375 56.78125 20.515625 
Q 56.78125 9.90625 50.3125 4.234375 
Q 43.84375 -1.421875 31.78125 -1.421875 
Q 19.734375 -1.421875 13.25 4.234375 
Q 6.78125 9.90625 6.78125 20.515625 
Q 6.78125 27.484375 10.78125 32.3125 
Q 14.796875 37.15625 21.921875 38.8125 
z
M 18.3125 54.390625 
Q 18.3125 48.734375 21.84375 45.5625 
Q 25.390625 42.390625 31.78125 42.390625 
Q 38.140625 42.390625 41.71875 45.5625 
Q 45.3125 48.734375 45.3125 54.390625 
Q 45.3125 60.0625 41.71875 63.234375 
Q 38.140625 66.40625 31.78125 66.40625 
Q 25.390625 66.40625 21.84375 63.234375 
Q 18.3125 60.0625 18.3125 54.390625 
z
" id="DejaVuSans-56"/>
      </defs>
      <use xlink:href="#DejaVuSans-56"/>
     </g>
    </g>
   </g>
  </g>
  <g id="axis3d_2">
   <g id="line2d_7">
    <path d="M 316.12668 171.68791 
L 251.239879 238.27773 
" style="fill:none;stroke:#000000;stroke-linecap:square;stroke-width:0.8;"/>
   </g>
   <g id="Line3DCollection_2">
    <path d="M 129.866948 102.505071 
L 134.046245 194.238731 
L 255.729543 233.67023 
" style="fill:none;stroke:#b0b0b0;stroke-width:0.8;"/>
    <path d="M 147.250212 89.819556 
L 150.59591 180.366474 
L 270.72626 218.279909 
" style="fill:none;stroke:#b0b0b0;stroke-width:0.8;"/>
    <path d="M 163.958537 77.626582 
L 166.530371 167.009893 
L 285.136664 203.491289 
" style="fill:none;stroke:#b0b0b0;stroke-width:0.8;"/>
    <path d="M 180.030483 65.898008 
L 181.883306 154.140758 
L 298.994481 189.269761 
" style="fill:none;stroke:#b0b0b0;stroke-width:0.8;"/>
    <path d="M 195.501727 54.607799 
L 196.68598 141.732864 
L 312.330896 175.583317 
" style="fill:none;stroke:#b0b0b0;stroke-width:0.8;"/>
   </g>
   <g id="xtick_6">
    <g id="line2d_8">
     <path d="M 254.704115 233.337939 
L 257.783053 234.33567 
" style="fill:none;stroke:#000000;stroke-linecap:square;stroke-width:0.8;"/>
    </g>
    <g id="text_6">
     <!-- 0 -->
     <g transform="translate(265.430654 254.693759)scale(0.1 -0.1)">
      <use xlink:href="#DejaVuSans-48"/>
     </g>
    </g>
   </g>
   <g id="xtick_7">
    <g id="line2d_9">
     <path d="M 269.71494 217.960734 
L 272.751463 218.919068 
" style="fill:none;stroke:#000000;stroke-linecap:square;stroke-width:0.8;"/>
    </g>
    <g id="text_7">
     <!-- 2 -->
     <g transform="translate(280.181112 239.024526)scale(0.1 -0.1)">
      <use xlink:href="#DejaVuSans-50"/>
     </g>
    </g>
   </g>
   <g id="xtick_8">
    <g id="line2d_10">
     <path d="M 284.139145 203.184468 
L 287.134182 204.105694 
" style="fill:none;stroke:#000000;stroke-linecap:square;stroke-width:0.8;"/>
    </g>
    <g id="text_8">
     <!-- 4 -->
     <g transform="translate(294.35448 223.968328)scale(0.1 -0.1)">
      <use xlink:href="#DejaVuSans-52"/>
     </g>
    </g>
   </g>
   <g id="xtick_9">
    <g id="line2d_11">
     <path d="M 298.010457 188.97459 
L 300.964927 189.860821 
" style="fill:none;stroke:#000000;stroke-linecap:square;stroke-width:0.8;"/>
    </g>
    <g id="text_9">
     <!-- 6 -->
     <g transform="translate(307.983974 209.489882)scale(0.1 -0.1)">
      <use xlink:href="#DejaVuSans-54"/>
     </g>
    </g>
   </g>
   <g id="xtick_10">
    <g id="line2d_12">
     <path d="M 311.360068 175.299146 
L 314.274875 176.15234 
" style="fill:none;stroke:#000000;stroke-linecap:square;stroke-width:0.8;"/>
    </g>
    <g id="text_10">
     <!-- 8 -->
     <g transform="translate(321.10031 195.556556)scale(0.1 -0.1)">
      <use xlink:href="#DejaVuSans-56"/>
     </g>
    </g>
   </g>
  </g>
  <g id="axis3d_3">
   <g id="line2d_13">
    <path d="M 316.12668 171.68791 
L 320.238571 81.894718 
" style="fill:none;stroke:#000000;stroke-linecap:square;stroke-width:0.8;"/>
   </g>
   <g id="Line3DCollection_3">
    <path d="M 316.205459 169.967571 
L 200.884845 136.530725 
L 129.013401 196.624949 
" style="fill:none;stroke:#b0b0b0;stroke-width:0.8;"/>
    <path d="M 317.050507 151.513884 
L 200.679381 118.662997 
L 128.103225 177.724557 
" style="fill:none;stroke:#b0b0b0;stroke-width:0.8;"/>
    <path d="M 317.911246 132.717549 
L 200.470284 100.479442 
L 127.175501 158.459759 
" style="fill:none;stroke:#b0b0b0;stroke-width:0.8;"/>
    <path d="M 318.788117 113.568933 
L 200.257459 81.971612 
L 126.229715 138.819912 
" style="fill:none;stroke:#b0b0b0;stroke-width:0.8;"/>
    <path d="M 319.681577 94.058039 
L 200.040804 63.130754 
L 125.265336 118.793958 
" style="fill:none;stroke:#b0b0b0;stroke-width:0.8;"/>
   </g>
   <g id="xtick_11">
    <g id="line2d_14">
     <path d="M 315.237563 169.686933 
L 318.143556 170.529516 
" style="fill:none;stroke:#000000;stroke-linecap:square;stroke-width:0.8;"/>
    </g>
    <g id="text_11">
     <!-- 0 -->
     <g transform="translate(331.275915 174.966846)scale(0.1 -0.1)">
      <use xlink:href="#DejaVuSans-48"/>
     </g>
    </g>
   </g>
   <g id="xtick_12">
    <g id="line2d_15">
     <path d="M 316.073373 151.238045 
L 319.007123 152.066225 
" style="fill:none;stroke:#000000;stroke-linecap:square;stroke-width:0.8;"/>
    </g>
    <g id="text_12">
     <!-- 5000 -->
     <g transform="translate(322.741351 156.557685)scale(0.1 -0.1)">
      <defs>
       <path d="M 10.796875 72.90625 
L 49.515625 72.90625 
L 49.515625 64.59375 
L 19.828125 64.59375 
L 19.828125 46.734375 
Q 21.96875 47.46875 24.109375 47.828125 
Q 26.265625 48.1875 28.421875 48.1875 
Q 40.625 48.1875 47.75 41.5 
Q 54.890625 34.8125 54.890625 23.390625 
Q 54.890625 11.625 47.5625 5.09375 
Q 40.234375 -1.421875 26.90625 -1.421875 
Q 22.3125 -1.421875 17.546875 -0.640625 
Q 12.796875 0.140625 7.71875 1.703125 
L 7.71875 11.625 
Q 12.109375 9.234375 16.796875 8.0625 
Q 21.484375 6.890625 26.703125 6.890625 
Q 35.15625 6.890625 40.078125 11.328125 
Q 45.015625 15.765625 45.015625 23.390625 
Q 45.015625 31 40.078125 35.4375 
Q 35.15625 39.890625 26.703125 39.890625 
Q 22.75 39.890625 18.8125 39.015625 
Q 14.890625 38.140625 10.796875 36.28125 
z
" id="DejaVuSans-53"/>
      </defs>
      <use xlink:href="#DejaVuSans-53"/>
      <use x="63.623047" xlink:href="#DejaVuSans-48"/>
      <use x="127.246094" xlink:href="#DejaVuSans-48"/>
      <use x="190.869141" xlink:href="#DejaVuSans-48"/>
     </g>
    </g>
   </g>
   <g id="xtick_13">
    <g id="line2d_16">
     <path d="M 316.924697 132.446736 
L 319.886737 133.25983 
" style="fill:none;stroke:#000000;stroke-linecap:square;stroke-width:0.8;"/>
    </g>
    <g id="text_13">
     <!-- 10000 -->
     <g transform="translate(320.587956 137.80798)scale(0.1 -0.1)">
      <defs>
       <path d="M 12.40625 8.296875 
L 28.515625 8.296875 
L 28.515625 63.921875 
L 10.984375 60.40625 
L 10.984375 69.390625 
L 28.421875 72.90625 
L 38.28125 72.90625 
L 38.28125 8.296875 
L 54.390625 8.296875 
L 54.390625 0 
L 12.40625 0 
z
" id="DejaVuSans-49"/>
      </defs>
      <use xlink:href="#DejaVuSans-49"/>
      <use x="63.623047" xlink:href="#DejaVuSans-48"/>
      <use x="127.246094" xlink:href="#DejaVuSans-48"/>
      <use x="190.869141" xlink:href="#DejaVuSans-48"/>
      <use x="254.492188" xlink:href="#DejaVuSans-48"/>
     </g>
    </g>
   </g>
   <g id="xtick_14">
    <g id="line2d_17">
     <path d="M 317.791969 113.303384 
L 320.782851 114.100679 
" style="fill:none;stroke:#000000;stroke-linecap:square;stroke-width:0.8;"/>
    </g>
    <g id="text_14">
     <!-- 15000 -->
     <g transform="translate(321.635003 118.708194)scale(0.1 -0.1)">
      <use xlink:href="#DejaVuSans-49"/>
      <use x="63.623047" xlink:href="#DejaVuSans-53"/>
      <use x="127.246094" xlink:href="#DejaVuSans-48"/>
      <use x="190.869141" xlink:href="#DejaVuSans-48"/>
      <use x="254.492188" xlink:href="#DejaVuSans-48"/>
     </g>
    </g>
   </g>
   <g id="xtick_15">
    <g id="line2d_18">
     <path d="M 318.675643 93.798003 
L 321.695932 94.578752 
" style="fill:none;stroke:#000000;stroke-linecap:square;stroke-width:0.8;"/>
    </g>
    <g id="text_15">
     <!-- 20000 -->
     <g transform="translate(322.701783 99.24843)scale(0.1 -0.1)">
      <use xlink:href="#DejaVuSans-50"/>
      <use x="63.623047" xlink:href="#DejaVuSans-48"/>
      <use x="127.246094" xlink:href="#DejaVuSans-48"/>
      <use x="190.869141" xlink:href="#DejaVuSans-48"/>
      <use x="254.492188" xlink:href="#DejaVuSans-48"/>
     </g>
    </g>
   </g>
  </g>
  <g id="axes_1">
   <g id="Poly3DCollection_1">
    <path clip-path="url(#p7a94ad6989)" d="M 203.700438 142.115361 
L 203.690563 141.142153 
L 215.859826 144.690428 
L 215.863902 145.66701 
z
" style="fill:#050338;"/>
    <path clip-path="url(#p7a94ad6989)" d="M 196.401162 148.290596 
L 196.387673 147.311533 
L 203.690563 141.142153 
L 203.700438 142.115361 
z
" style="fill:#0b0777;"/>
    <path clip-path="url(#p7a94ad6989)" d="M 196.401162 148.290596 
L 203.700438 142.115361 
L 215.863902 145.66701 
L 208.637156 151.907182 
z
" style="fill:#070448;"/>
    <path clip-path="url(#p7a94ad6989)" d="M 196.387673 147.311533 
L 208.629535 150.924713 
L 215.859826 144.690428 
L 203.690563 141.142153 
z
" style="fill:#0a0667;"/>
    <path clip-path="url(#p7a94ad6989)" d="M 215.863902 145.66701 
L 215.853024 143.060811 
L 228.159949 146.640673 
L 228.155024 149.255935 
z
" style="fill:#0b033b;"/>
    <path clip-path="url(#p7a94ad6989)" d="M 208.637156 151.907182 
L 215.863902 145.66701 
L 215.859826 144.690428 
L 208.629535 150.924713 
z
" style="fill:#050338;"/>
    <path clip-path="url(#p7a94ad6989)" d="M 208.637156 151.907182 
L 208.616819 149.285255 
L 215.853024 143.060811 
L 215.863902 145.66701 
z
" style="fill:#18057c;"/>
    <path clip-path="url(#p7a94ad6989)" d="M 196.401162 148.290596 
L 208.637156 151.907182 
L 208.629535 150.924713 
L 196.387673 147.311533 
z
" style="fill:#0b0777;"/>
    <path clip-path="url(#p7a94ad6989)" d="M 196.401162 148.290596 
L 196.369955 146.025446 
L 208.619525 149.634147 
L 208.637156 151.907182 
z
" style="fill:#0a033a;"/>
    <path clip-path="url(#p7a94ad6989)" d="M 208.637156 151.907182 
L 215.863902 145.66701 
L 228.155024 149.255935 
L 221.002748 155.562072 
z
" style="fill:#0e034b;"/>
    <path clip-path="url(#p7a94ad6989)" d="M 208.616819 149.285255 
L 220.998405 152.931002 
L 228.159949 146.640673 
L 215.853024 143.060811 
z
" style="fill:#15056c;"/>
    <path clip-path="url(#p7a94ad6989)" d="M 188.96817 154.578956 
L 188.928298 152.300123 
L 196.369955 146.025446 
L 196.401162 148.290596 
z
" style="fill:#16067b;"/>
    <path clip-path="url(#p7a94ad6989)" d="M 228.155024 149.255935 
L 228.173261 139.571184 
L 240.653823 143.16406 
L 240.575825 152.882725 
z
" style="fill:#1c0142;"/>
    <path clip-path="url(#p7a94ad6989)" d="M 221.002748 155.562072 
L 228.155024 149.255935 
L 228.159949 146.640673 
L 220.998405 152.931002 
z
" style="fill:#0b033b;"/>
    <path clip-path="url(#p7a94ad6989)" d="M 188.96817 154.578956 
L 196.401162 148.290596 
L 208.637156 151.907182 
L 201.27732 158.262275 
z
" style="fill:#0d034a;"/>
    <path clip-path="url(#p7a94ad6989)" d="M 188.928298 152.300123 
L 201.251185 155.975488 
L 208.619525 149.634147 
L 196.369955 146.025446 
z
" style="fill:#13056b;"/>
    <path clip-path="url(#p7a94ad6989)" d="M 221.002748 155.562072 
L 220.986663 145.818469 
L 228.173261 139.571184 
L 228.155024 149.255935 
z
" style="fill:#3c038c;"/>
    <path clip-path="url(#p7a94ad6989)" d="M 208.637156 151.907182 
L 221.002748 155.562072 
L 220.998405 152.931002 
L 208.616819 149.285255 
z
" style="fill:#18057c;"/>
    <path clip-path="url(#p7a94ad6989)" d="M 221.002748 155.562072 
L 228.155024 149.255935 
L 240.575825 152.882725 
L 233.500008 159.25588 
z
" style="fill:#240254;"/>
    <path clip-path="url(#p7a94ad6989)" d="M 201.27732 158.262275 
L 208.637156 151.907182 
L 208.619525 149.634147 
L 201.251185 155.975488 
z
" style="fill:#0a033a;"/>
    <path clip-path="url(#p7a94ad6989)" d="M 208.637156 151.907182 
L 208.550793 140.773214 
L 220.984303 144.389026 
L 221.002748 155.562072 
z
" style="fill:#200143;"/>
    <path clip-path="url(#p7a94ad6989)" d="M 240.575825 152.882725 
L 240.671321 140.983728 
L 253.298592 144.60718 
L 253.128369 156.547983 
z
" style="fill:#210144;"/>
    <path clip-path="url(#p7a94ad6989)" d="M 188.96817 154.578956 
L 201.27732 158.262275 
L 201.251185 155.975488 
L 188.928298 152.300123 
z
" style="fill:#16067b;"/>
    <path clip-path="url(#p7a94ad6989)" d="M 201.27732 158.262275 
L 208.637156 151.907182 
L 221.002748 155.562072 
L 213.718049 161.984967 
z
" style="fill:#290156;"/>
    <path clip-path="url(#p7a94ad6989)" d="M 201.27732 158.262275 
L 201.1493 147.060494 
L 208.550793 140.773214 
L 208.637156 151.907182 
z
" style="fill:#44028e;"/>
    <path clip-path="url(#p7a94ad6989)" d="M 188.96817 154.578956 
L 188.869731 148.952797 
L 201.212796 152.616427 
L 201.27732 158.262275 
z
" style="fill:#13023e;"/>
    <path clip-path="url(#p7a94ad6989)" d="M 220.986663 145.818469 
L 233.544424 149.478058 
L 240.653823 143.16406 
L 228.173261 139.571184 
z
" style="fill:#340279;"/>
    <path clip-path="url(#p7a94ad6989)" d="M 233.500008 159.25588 
L 240.575825 152.882725 
L 240.653823 143.16406 
L 233.544424 149.478058 
z
" style="fill:#1c0142;"/>
    <path clip-path="url(#p7a94ad6989)" d="M 233.500008 159.25588 
L 240.575825 152.882725 
L 253.128369 156.547983 
L 246.131049 162.989229 
z
" style="fill:#2b0156;"/>
    <path clip-path="url(#p7a94ad6989)" d="M 233.500008 159.25588 
L 233.554389 147.284337 
L 240.671321 140.983728 
L 240.575825 152.882725 
z
" style="fill:#46028f;"/>
    <path clip-path="url(#p7a94ad6989)" d="M 181.397755 160.983577 
L 181.277138 155.323253 
L 188.869731 148.952797 
L 188.96817 154.578956 
z
" style="fill:#280484;"/>
    <path clip-path="url(#p7a94ad6989)" d="M 221.002748 155.562072 
L 233.500008 159.25588 
L 233.544424 149.478058 
L 220.986663 145.818469 
z
" style="fill:#3c038c;"/>
    <path clip-path="url(#p7a94ad6989)" d="M 181.397755 160.983577 
L 188.96817 154.578956 
L 201.27732 158.262275 
L 193.780682 164.735494 
z
" style="fill:#18034f;"/>
    <path clip-path="url(#p7a94ad6989)" d="M 253.128369 156.547983 
L 253.299855 144.518552 
L 266.063138 148.180556 
L 265.814761 160.252323 
z
" style="fill:#210144;"/>
    <path clip-path="url(#p7a94ad6989)" d="M 213.718049 161.984967 
L 221.002748 155.562072 
L 233.500008 159.25588 
L 226.292478 165.747667 
z
" style="fill:#540d54;"/>
    <path clip-path="url(#p7a94ad6989)" d="M 213.718049 161.984967 
L 221.002748 155.562072 
L 220.984303 144.389026 
L 213.658775 150.743757 
z
" style="fill:#200143;"/>
    <path clip-path="url(#p7a94ad6989)" d="M 201.1493 147.060494 
L 213.658775 150.743757 
L 220.984303 144.389026 
L 208.550793 140.773214 
z
" style="fill:#3b027b;"/>
    <path clip-path="url(#p7a94ad6989)" d="M 181.277138 155.323253 
L 193.694386 159.055307 
L 201.212796 152.616427 
L 188.869731 148.952797 
z
" style="fill:#230472;"/>
    <path clip-path="url(#p7a94ad6989)" d="M 246.131049 162.989229 
L 253.128369 156.547983 
L 265.814761 160.252323 
L 258.898031 166.762758 
z
" style="fill:#2b0156;"/>
    <path clip-path="url(#p7a94ad6989)" d="M 246.131049 162.989229 
L 253.128369 156.547983 
L 253.298592 144.60718 
L 246.261101 150.975506 
z
" style="fill:#210144;"/>
    <path clip-path="url(#p7a94ad6989)" d="M 246.131049 162.989229 
L 246.262066 150.886331 
L 253.299855 144.518552 
L 253.128369 156.547983 
z
" style="fill:#46028f;"/>
    <path clip-path="url(#p7a94ad6989)" d="M 233.554389 147.284337 
L 246.261101 150.975506 
L 253.298592 144.60718 
L 240.671321 140.983728 
z
" style="fill:#3d027c;"/>
    <path clip-path="url(#p7a94ad6989)" d="M 201.27732 158.262275 
L 213.718049 161.984967 
L 213.658775 150.743757 
L 201.1493 147.060494 
z
" style="fill:#44028e;"/>
    <path clip-path="url(#p7a94ad6989)" d="M 221.002748 155.562072 
L 220.955483 126.93134 
L 233.630527 130.52317 
L 233.500008 159.25588 
z
" style="fill:#410a42;"/>
    <path clip-path="url(#p7a94ad6989)" d="M 193.780682 164.735494 
L 201.27732 158.262275 
L 201.212796 152.616427 
L 193.694386 159.055307 
z
" style="fill:#13023e;"/>
    <path clip-path="url(#p7a94ad6989)" d="M 233.500008 159.25588 
L 246.131049 162.989229 
L 246.261101 150.975506 
L 233.554389 147.284337 
z
" style="fill:#46028f;"/>
    <path clip-path="url(#p7a94ad6989)" d="M 193.780682 164.735494 
L 201.27732 158.262275 
L 213.718049 161.984967 
L 206.297214 168.527892 
z
" style="fill:#5e164d;"/>
    <path clip-path="url(#p7a94ad6989)" d="M 213.718049 161.984967 
L 213.566148 133.177262 
L 220.955483 126.93134 
L 221.002748 155.562072 
z
" style="fill:#8b158b;"/>
    <path clip-path="url(#p7a94ad6989)" d="M 181.397755 160.983577 
L 193.780682 164.735494 
L 193.694386 159.055307 
L 181.277138 155.323253 
z
" style="fill:#280484;"/>
    <path clip-path="url(#p7a94ad6989)" d="M 265.814761 160.252323 
L 266.023024 150.130205 
L 278.911271 153.838628 
L 278.637155 163.996376 
z
" style="fill:#1d0142;"/>
    <path clip-path="url(#p7a94ad6989)" d="M 226.292478 165.747667 
L 233.500008 159.25588 
L 246.131049 162.989229 
L 239.002775 169.551023 
z
" style="fill:#540d54;"/>
    <path clip-path="url(#p7a94ad6989)" d="M 258.898031 166.762758 
L 259.07319 156.578814 
L 266.023024 150.130205 
L 265.814761 160.252323 
z
" style="fill:#3e038c;"/>
    <path clip-path="url(#p7a94ad6989)" d="M 258.898031 166.762758 
L 265.814761 160.252323 
L 278.637155 163.996376 
L 271.803162 170.57712 
z
" style="fill:#250255;"/>
    <path clip-path="url(#p7a94ad6989)" d="M 258.898031 166.762758 
L 265.814761 160.252323 
L 266.063138 148.180556 
L 259.106929 154.617147 
z
" style="fill:#210144;"/>
    <path clip-path="url(#p7a94ad6989)" d="M 246.262066 150.886331 
L 259.106929 154.617147 
L 266.063138 148.180556 
L 253.299855 144.518552 
z
" style="fill:#3d027c;"/>
    <path clip-path="url(#p7a94ad6989)" d="M 201.27732 158.262275 
L 200.893597 124.686481 
L 213.540372 128.288996 
L 213.718049 161.984967 
z
" style="fill:#49113c;"/>
    <path clip-path="url(#p7a94ad6989)" d="M 181.397755 160.983577 
L 181.009954 142.784787 
L 193.503218 146.472234 
L 193.780682 164.735494 
z
" style="fill:#2e0046;"/>
    <path clip-path="url(#p7a94ad6989)" d="M 233.500008 159.25588 
L 233.629972 130.645303 
L 246.441872 134.27658 
L 246.131049 162.989229 
z
" style="fill:#410a42;"/>
    <path clip-path="url(#p7a94ad6989)" d="M 173.686069 167.507715 
L 181.397755 160.983577 
L 193.780682 164.735494 
L 186.143392 171.330164 
z
" style="fill:#3a005a;"/>
    <path clip-path="url(#p7a94ad6989)" d="M 246.131049 162.989229 
L 258.898031 166.762758 
L 259.106929 154.617147 
L 246.262066 150.886331 
z
" style="fill:#46028f;"/>
    <path clip-path="url(#p7a94ad6989)" d="M 206.297214 168.527892 
L 213.718049 161.984967 
L 226.292478 165.747667 
L 218.949524 172.361429 
z
" style="fill:#753237;"/>
    <path clip-path="url(#p7a94ad6989)" d="M 193.780682 164.735494 
L 193.267415 130.951141 
L 200.893597 124.686481 
L 201.27732 158.262275 
z
" style="fill:#9b2480;"/>
    <path clip-path="url(#p7a94ad6989)" d="M 173.686069 167.507715 
L 173.224316 149.197049 
L 181.009954 142.784787 
L 181.397755 160.983577 
z
" style="fill:#610095;"/>
    <path clip-path="url(#p7a94ad6989)" d="M 226.292478 165.747667 
L 226.32046 136.959954 
L 233.629972 130.645303 
L 233.500008 159.25588 
z
" style="fill:#8b158b;"/>
    <path clip-path="url(#p7a94ad6989)" d="M 226.292478 165.747667 
L 233.500008 159.25588 
L 233.630527 130.52317 
L 226.320579 136.837048 
z
" style="fill:#410a42;"/>
    <path clip-path="url(#p7a94ad6989)" d="M 278.637155 163.996376 
L 278.917551 153.605935 
L 291.946954 157.353704 
L 291.597749 167.780781 
z
" style="fill:#1e0142;"/>
    <path clip-path="url(#p7a94ad6989)" d="M 239.002775 169.551023 
L 246.131049 162.989229 
L 258.898031 166.762758 
L 251.851153 173.395697 
z
" style="fill:#540d54;"/>
    <path clip-path="url(#p7a94ad6989)" d="M 213.718049 161.984967 
L 226.292478 165.747667 
L 226.320579 136.837048 
L 213.566148 133.177262 
z
" style="fill:#8b158b;"/>
    <path clip-path="url(#p7a94ad6989)" d="M 259.07319 156.578814 
L 272.045035 160.357234 
L 278.911271 153.838628 
L 266.023024 150.130205 
z
" style="fill:#36027a;"/>
    <path clip-path="url(#p7a94ad6989)" d="M 271.803162 170.57712 
L 278.637155 163.996376 
L 278.911271 153.838628 
L 272.045035 160.357234 
z
" style="fill:#1d0142;"/>
    <path clip-path="url(#p7a94ad6989)" d="M 271.803162 170.57712 
L 272.050576 160.123106 
L 278.917551 153.605935 
L 278.637155 163.996376 
z
" style="fill:#3f038d;"/>
    <path clip-path="url(#p7a94ad6989)" d="M 271.803162 170.57712 
L 278.637155 163.996376 
L 291.597749 167.780781 
L 284.848695 174.43298 
z
" style="fill:#260255;"/>
    <path clip-path="url(#p7a94ad6989)" d="M 246.131049 162.989229 
L 246.443939 134.085697 
L 259.396933 137.755918 
L 258.898031 166.762758 
z
" style="fill:#410a42;"/>
    <path clip-path="url(#p7a94ad6989)" d="M 186.143392 171.330164 
L 193.780682 164.735494 
L 206.297214 168.527892 
L 198.736391 175.194243 
z
" style="fill:#824a26;"/>
    <path clip-path="url(#p7a94ad6989)" d="M 258.898031 166.762758 
L 271.803162 170.57712 
L 272.045035 160.357234 
L 259.07319 156.578814 
z
" style="fill:#3e038c;"/>
    <path clip-path="url(#p7a94ad6989)" d="M 213.566148 133.177262 
L 226.320579 136.837048 
L 233.630527 130.52317 
L 220.955483 126.93134 
z
" style="fill:#781279;"/>
    <path clip-path="url(#p7a94ad6989)" d="M 218.949524 172.361429 
L 226.292478 165.747667 
L 239.002775 169.551023 
L 231.739835 176.23678 
z
" style="fill:#753237;"/>
    <path clip-path="url(#p7a94ad6989)" d="M 291.597749 167.780781 
L 291.859153 159.975402 
L 305.012809 163.773309 
L 304.698789 171.606197 
z
" style="fill:#180240;"/>
    <path clip-path="url(#p7a94ad6989)" d="M 206.297214 168.527892 
L 213.718049 161.984967 
L 213.540372 128.288996 
L 205.99252 134.622252 
z
" style="fill:#49113c;"/>
    <path clip-path="url(#p7a94ad6989)" d="M 186.143392 171.330164 
L 193.780682 164.735494 
L 193.503218 146.472234 
L 185.793299 152.954452 
z
" style="fill:#2e0046;"/>
    <path clip-path="url(#p7a94ad6989)" d="M 239.002775 169.551023 
L 246.131049 162.989229 
L 246.441872 134.27658 
L 239.213915 140.660305 
z
" style="fill:#410a42;"/>
    <path clip-path="url(#p7a94ad6989)" d="M 239.002775 169.551023 
L 239.215318 140.468213 
L 246.443939 134.085697 
L 246.131049 162.989229 
z
" style="fill:#8b158b;"/>
    <path clip-path="url(#p7a94ad6989)" d="M 251.851153 173.395697 
L 258.898031 166.762758 
L 271.803162 170.57712 
L 264.839875 177.282368 
z
" style="fill:#560f52;"/>
    <path clip-path="url(#p7a94ad6989)" d="M 213.718049 161.984967 
L 213.460313 113.105955 
L 226.340161 116.691411 
L 226.292478 165.747667 
z
" style="fill:#5c272b;"/>
    <path clip-path="url(#p7a94ad6989)" d="M 284.848695 174.43298 
L 285.086093 166.579869 
L 291.859153 159.975402 
L 291.597749 167.780781 
z
" style="fill:#330488;"/>
    <path clip-path="url(#p7a94ad6989)" d="M 173.224316 149.197049 
L 185.793299 152.954452 
L 193.503218 146.472234 
L 181.009954 142.784787 
z
" style="fill:#540081;"/>
    <path clip-path="url(#p7a94ad6989)" d="M 193.780682 164.735494 
L 206.297214 168.527892 
L 205.99252 134.622252 
L 193.267415 130.951141 
z
" style="fill:#9b2480;"/>
    <path clip-path="url(#p7a94ad6989)" d="M 173.686069 167.507715 
L 186.143392 171.330164 
L 185.793299 152.954452 
L 173.224316 149.197049 
z
" style="fill:#610095;"/>
    <path clip-path="url(#p7a94ad6989)" d="M 226.292478 165.747667 
L 239.002775 169.551023 
L 239.213915 140.660305 
L 226.32046 136.959954 
z
" style="fill:#8b158b;"/>
    <path clip-path="url(#p7a94ad6989)" d="M 165.82912 174.154745 
L 173.686069 167.507715 
L 186.143392 171.330164 
L 178.361455 178.049733 
z
" style="fill:#682144;"/>
    <path clip-path="url(#p7a94ad6989)" d="M 272.050576 160.123106 
L 285.165835 163.942009 
L 291.946954 157.353704 
L 278.917551 153.605935 
z
" style="fill:#37027a;"/>
    <path clip-path="url(#p7a94ad6989)" d="M 284.848695 174.43298 
L 291.597749 167.780781 
L 291.946954 157.353704 
L 285.165835 163.942009 
z
" style="fill:#1e0142;"/>
    <path clip-path="url(#p7a94ad6989)" d="M 284.848695 174.43298 
L 291.597749 167.780781 
L 304.698789 171.606197 
L 298.036935 178.33102 
z
" style="fill:#1f0252;"/>
    <path clip-path="url(#p7a94ad6989)" d="M 198.736391 175.194243 
L 206.297214 168.527892 
L 218.949524 172.361429 
L 211.467294 179.100638 
z
" style="fill:#86591d;"/>
    <path clip-path="url(#p7a94ad6989)" d="M 206.297214 168.527892 
L 205.855197 119.341272 
L 213.460313 113.105955 
L 213.718049 161.984967 
z
" style="fill:#c2525b;"/>
    <path clip-path="url(#p7a94ad6989)" d="M 258.898031 166.762758 
L 259.41912 136.465928 
L 272.522764 140.171716 
L 271.803162 170.57712 
z
" style="fill:#440c40;"/>
    <path clip-path="url(#p7a94ad6989)" d="M 271.803162 170.57712 
L 284.848695 174.43298 
L 285.165835 163.942009 
L 272.050576 160.123106 
z
" style="fill:#3f038d;"/>
    <path clip-path="url(#p7a94ad6989)" d="M 226.32046 136.959954 
L 239.213915 140.660305 
L 246.441872 134.27658 
L 233.629972 130.645303 
z
" style="fill:#781279;"/>
    <path clip-path="url(#p7a94ad6989)" d="M 231.739835 176.23678 
L 239.002775 169.551023 
L 251.851153 173.395697 
L 244.670417 180.154631 
z
" style="fill:#783534;"/>
    <path clip-path="url(#p7a94ad6989)" d="M 193.267415 130.951141 
L 205.99252 134.622252 
L 213.540372 128.288996 
L 200.893597 124.686481 
z
" style="fill:#871f6f;"/>
    <path clip-path="url(#p7a94ad6989)" d="M 251.851153 173.395697 
L 258.898031 166.762758 
L 259.396933 137.755918 
L 252.252117 144.208642 
z
" style="fill:#410a42;"/>
    <path clip-path="url(#p7a94ad6989)" d="M 251.851153 173.395697 
L 252.269951 142.910453 
L 259.41912 136.465928 
L 258.898031 166.762758 
z
" style="fill:#8f1988;"/>
    <path clip-path="url(#p7a94ad6989)" d="M 285.086093 166.579869 
L 298.327661 170.450163 
L 305.012809 163.773309 
L 291.859153 159.975402 
z
" style="fill:#2d0376;"/>
    <path clip-path="url(#p7a94ad6989)" d="M 264.839875 177.282368 
L 271.803162 170.57712 
L 284.848695 174.43298 
L 277.971253 181.211726 
z
" style="fill:#500a56;"/>
    <path clip-path="url(#p7a94ad6989)" d="M 226.292478 165.747667 
L 226.340014 116.843169 
L 239.361478 120.468887 
L 239.002775 169.551023 
z
" style="fill:#5c272b;"/>
    <path clip-path="url(#p7a94ad6989)" d="M 298.036935 178.33102 
L 304.698789 171.606197 
L 305.012809 163.773309 
L 298.327661 170.450163 
z
" style="fill:#180240;"/>
    <path clip-path="url(#p7a94ad6989)" d="M 173.686069 167.507715 
L 172.67194 127.292753 
L 185.374451 130.969962 
L 186.143392 171.330164 
z
" style="fill:#521a35;"/>
    <path clip-path="url(#p7a94ad6989)" d="M 239.002775 169.551023 
L 251.851153 173.395697 
L 252.252117 144.208642 
L 239.215318 140.468213 
z
" style="fill:#8b158b;"/>
    <path clip-path="url(#p7a94ad6989)" d="M 178.361455 178.049733 
L 186.143392 171.330164 
L 198.736391 175.194243 
L 191.031582 181.987547 
z
" style="fill:#876c14;"/>
    <path clip-path="url(#p7a94ad6989)" d="M 271.803162 170.57712 
L 272.450335 143.232078 
L 285.678291 146.990012 
L 284.848695 174.43298 
z
" style="fill:#3f0843;"/>
    <path clip-path="url(#p7a94ad6989)" d="M 193.780682 164.735494 
L 192.847895 103.33742 
L 205.743437 106.904834 
L 206.297214 168.527892 
z
" style="fill:#663a1e;"/>
    <path clip-path="url(#p7a94ad6989)" d="M 211.467294 179.100638 
L 218.949524 172.361429 
L 231.739835 176.23678 
L 224.338378 183.050047 
z
" style="fill:#845022;"/>
    <path clip-path="url(#p7a94ad6989)" d="M 218.949524 172.361429 
L 218.817172 123.148645 
L 226.340014 116.843169 
L 226.292478 165.747667 
z
" style="fill:#c2525b;"/>
    <path clip-path="url(#p7a94ad6989)" d="M 218.949524 172.361429 
L 226.292478 165.747667 
L 226.340161 116.691411 
L 218.816761 122.995895 
z
" style="fill:#5c272b;"/>
    <path clip-path="url(#p7a94ad6989)" d="M 284.848695 174.43298 
L 298.036935 178.33102 
L 298.327661 170.450163 
L 285.086093 166.579869 
z
" style="fill:#330488;"/>
    <path clip-path="url(#p7a94ad6989)" d="M 165.82912 174.154745 
L 164.646429 133.687731 
L 172.67194 127.292753 
L 173.686069 167.507715 
z
" style="fill:#ad3770;"/>
    <path clip-path="url(#p7a94ad6989)" d="M 239.215318 140.468213 
L 252.252117 144.208642 
L 259.396933 137.755918 
L 246.443939 134.085697 
z
" style="fill:#781279;"/>
    <path clip-path="url(#p7a94ad6989)" d="M 244.670417 180.154631 
L 251.851153 173.395697 
L 264.839875 177.282368 
L 257.743589 184.115686 
z
" style="fill:#773535;"/>
    <path clip-path="url(#p7a94ad6989)" d="M 264.839875 177.282368 
L 265.397401 149.767392 
L 272.450335 143.232078 
L 271.803162 170.57712 
z
" style="fill:#85108e;"/>
    <path clip-path="url(#p7a94ad6989)" d="M 186.143392 171.330164 
L 184.966199 109.541616 
L 192.847895 103.33742 
L 193.780682 164.735494 
z
" style="fill:#d87a3f;"/>
    <path clip-path="url(#p7a94ad6989)" d="M 206.297214 168.527892 
L 218.949524 172.361429 
L 218.816761 122.995895 
L 205.855197 119.341272 
z
" style="fill:#c2525b;"/>
    <path clip-path="url(#p7a94ad6989)" d="M 264.839875 177.282368 
L 271.803162 170.57712 
L 272.522764 140.171716 
L 265.459806 146.687569 
z
" style="fill:#440c40;"/>
    <path clip-path="url(#p7a94ad6989)" d="M 157.822766 180.928173 
L 165.82912 174.154745 
L 178.361455 178.049733 
L 170.430723 184.897786 
z
" style="fill:#7f422b;"/>
    <path clip-path="url(#p7a94ad6989)" d="M 284.848695 174.43298 
L 285.385919 156.661664 
L 298.694857 160.496434 
L 298.036935 178.33102 
z
" style="fill:#2c0046;"/>
    <path clip-path="url(#p7a94ad6989)" d="M 277.971253 181.211726 
L 284.848695 174.43298 
L 298.036935 178.33102 
L 291.24765 185.184478 
z
" style="fill:#39005a;"/>
    <path clip-path="url(#p7a94ad6989)" d="M 239.002775 169.551023 
L 239.376303 118.440324 
L 252.555857 122.098737 
L 251.851153 173.395697 
z
" style="fill:#5e2a29;"/>
    <path clip-path="url(#p7a94ad6989)" d="M 191.031582 181.987547 
L 198.736391 175.194243 
L 211.467294 179.100638 
L 203.841786 185.968896 
z
" style="fill:#866f14;"/>
    <path clip-path="url(#p7a94ad6989)" d="M 251.851153 173.395697 
L 264.839875 177.282368 
L 265.459806 146.687569 
L 252.269951 142.910453 
z
" style="fill:#8f1988;"/>
    <path clip-path="url(#p7a94ad6989)" d="M 277.971253 181.211726 
L 278.451987 163.330621 
L 285.385919 156.661664 
L 284.848695 174.43298 
z
" style="fill:#5e0094;"/>
    <path clip-path="url(#p7a94ad6989)" d="M 224.338378 183.050047 
L 231.739835 176.23678 
L 244.670417 180.154631 
L 237.351973 187.043183 
z
" style="fill:#875b1b;"/>
    <path clip-path="url(#p7a94ad6989)" d="M 231.739835 176.23678 
L 239.002775 169.551023 
L 239.361478 120.468887 
L 231.922634 126.844694 
z
" style="fill:#5c272b;"/>
    <path clip-path="url(#p7a94ad6989)" d="M 178.361455 178.049733 
L 186.143392 171.330164 
L 185.374451 130.969962 
L 177.426905 137.436144 
z
" style="fill:#521a35;"/>
    <path clip-path="url(#p7a94ad6989)" d="M 231.739835 176.23678 
L 231.93019 124.802829 
L 239.376303 118.440324 
L 239.002775 169.551023 
z
" style="fill:#c75856;"/>
    <path clip-path="url(#p7a94ad6989)" d="M 206.297214 168.527892 
L 205.682254 100.096494 
L 218.764807 103.677543 
L 218.949524 172.361429 
z
" style="fill:#694516;"/>
    <path clip-path="url(#p7a94ad6989)" d="M 257.743589 184.115686 
L 264.839875 177.282368 
L 277.971253 181.211726 
L 270.961723 188.120663 
z
" style="fill:#702a3c;"/>
    <path clip-path="url(#p7a94ad6989)" d="M 277.971253 181.211726 
L 284.848695 174.43298 
L 285.678291 146.990012 
L 278.71365 153.59795 
z
" style="fill:#3f0843;"/>
    <path clip-path="url(#p7a94ad6989)" d="M 252.269951 142.910453 
L 265.459806 146.687569 
L 272.522764 140.171716 
L 259.41912 136.465928 
z
" style="fill:#7c1676;"/>
    <path clip-path="url(#p7a94ad6989)" d="M 198.736391 175.194243 
L 206.297214 168.527892 
L 205.743437 106.904834 
L 197.942892 113.178553 
z
" style="fill:#663a1e;"/>
    <path clip-path="url(#p7a94ad6989)" d="M 218.949524 172.361429 
L 231.739835 176.23678 
L 231.922634 126.844694 
L 218.817172 123.148645 
z
" style="fill:#c2525b;"/>
    <path clip-path="url(#p7a94ad6989)" d="M 165.82912 174.154745 
L 178.361455 178.049733 
L 177.426905 137.436144 
L 164.646429 133.687731 
z
" style="fill:#ad3770;"/>
    <path clip-path="url(#p7a94ad6989)" d="M 170.430723 184.897786 
L 178.361455 178.049733 
L 191.031582 181.987547 
L 183.178635 188.911464 
z
" style="fill:#847a14;"/>
    <path clip-path="url(#p7a94ad6989)" d="M 198.736391 175.194243 
L 197.855195 106.32463 
L 205.682254 100.096494 
L 206.297214 168.527892 
z
" style="fill:#df9330;"/>
    <path clip-path="url(#p7a94ad6989)" d="M 264.839875 177.282368 
L 277.971253 181.211726 
L 278.71365 153.59795 
L 265.397401 149.767392 
z
" style="fill:#85108e;"/>
    <path clip-path="url(#p7a94ad6989)" d="M 186.143392 171.330164 
L 198.736391 175.194243 
L 197.942892 113.178553 
L 184.966199 109.541616 
z
" style="fill:#d87a3f;"/>
    <path clip-path="url(#p7a94ad6989)" d="M 205.855197 119.341272 
L 218.816761 122.995895 
L 226.340161 116.691411 
L 213.460313 113.105955 
z
" style="fill:#a9474f;"/>
    <path clip-path="url(#p7a94ad6989)" d="M 251.851153 173.395697 
L 252.554081 122.228 
L 265.880451 125.927894 
L 264.839875 177.282368 
z
" style="fill:#5d2929;"/>
    <path clip-path="url(#p7a94ad6989)" d="M 203.841786 185.968896 
L 211.467294 179.100638 
L 224.338378 183.050047 
L 216.794403 189.994506 
z
" style="fill:#876a15;"/>
    <path clip-path="url(#p7a94ad6989)" d="M 291.24765 185.184478 
L 298.036935 178.33102 
L 298.694857 160.496434 
L 291.850727 167.239555 
z
" style="fill:#2c0046;"/>
    <path clip-path="url(#p7a94ad6989)" d="M 237.351973 187.043183 
L 244.670417 180.154631 
L 257.743589 184.115686 
L 250.510457 191.080779 
z
" style="fill:#875a1c;"/>
    <path clip-path="url(#p7a94ad6989)" d="M 265.397401 149.767392 
L 278.71365 153.59795 
L 285.678291 146.990012 
L 272.450335 143.232078 
z
" style="fill:#730e7b;"/>
    <path clip-path="url(#p7a94ad6989)" d="M 218.949524 172.361429 
L 218.775664 107.714595 
L 231.979973 111.351686 
L 231.739835 176.23678 
z
" style="fill:#673e1b;"/>
    <path clip-path="url(#p7a94ad6989)" d="M 244.670417 180.154631 
L 245.194944 128.662792 
L 252.554081 122.228 
L 251.851153 173.395697 
z
" style="fill:#c65757;"/>
    <path clip-path="url(#p7a94ad6989)" d="M 244.670417 180.154631 
L 251.851153 173.395697 
L 252.555857 122.098737 
L 245.19627 128.532678 
z
" style="fill:#5e2a29;"/>
    <path clip-path="url(#p7a94ad6989)" d="M 278.451987 163.330621 
L 291.850727 167.239555 
L 298.694857 160.496434 
L 285.385919 156.661664 
z
" style="fill:#520081;"/>
    <path clip-path="url(#p7a94ad6989)" d="M 149.662704 187.831639 
L 157.822766 180.928173 
L 170.430723 184.897786 
L 162.346885 191.878042 
z
" style="fill:#876118;"/>
    <path clip-path="url(#p7a94ad6989)" d="M 277.971253 181.211726 
L 291.24765 185.184478 
L 291.850727 167.239555 
L 278.451987 163.330621 
z
" style="fill:#5e0094;"/>
    <path clip-path="url(#p7a94ad6989)" d="M 165.82912 174.154745 
L 164.133099 116.123602 
L 177.021213 119.805603 
L 178.361455 178.049733 
z
" style="fill:#633422;"/>
    <path clip-path="url(#p7a94ad6989)" d="M 270.961723 188.120663 
L 277.971253 181.211726 
L 291.24765 185.184478 
L 284.327244 192.170297 
z
" style="fill:#430259;"/>
    <path clip-path="url(#p7a94ad6989)" d="M 186.143392 171.330164 
L 184.686032 94.836201 
L 197.754003 98.416012 
L 198.736391 175.194243 
z
" style="fill:#695410;"/>
    <path clip-path="url(#p7a94ad6989)" d="M 164.646429 133.687731 
L 177.426905 137.436144 
L 185.374451 130.969962 
L 172.67194 127.292753 
z
" style="fill:#963061;"/>
    <path clip-path="url(#p7a94ad6989)" d="M 277.971253 181.211726 
L 278.562868 159.206338 
L 291.989836 163.1003 
L 291.24765 185.184478 
z
" style="fill:#350146;"/>
    <path clip-path="url(#p7a94ad6989)" d="M 211.467294 179.100638 
L 211.047968 114.040295 
L 218.775664 107.714595 
L 218.949524 172.361429 
z
" style="fill:#db8439;"/>
    <path clip-path="url(#p7a94ad6989)" d="M 264.839875 177.282368 
L 265.76047 131.849205 
L 279.197171 135.613178 
L 277.971253 181.211726 
z
" style="fill:#57212f;"/>
    <path clip-path="url(#p7a94ad6989)" d="M 231.739835 176.23678 
L 244.670417 180.154631 
L 245.19627 128.532678 
L 231.93019 124.802829 
z
" style="fill:#c75856;"/>
    <path clip-path="url(#p7a94ad6989)" d="M 183.178635 188.911464 
L 191.031582 181.987547 
L 203.841786 185.968896 
L 196.068846 192.969946 
z
" style="fill:#837b14;"/>
    <path clip-path="url(#p7a94ad6989)" d="M 157.822766 180.928173 
L 155.875794 122.527392 
L 164.133099 116.123602 
L 165.82912 174.154745 
z
" style="fill:#d36e47;"/>
    <path clip-path="url(#p7a94ad6989)" d="M 211.467294 179.100638 
L 218.949524 172.361429 
L 218.764807 103.677543 
L 211.021774 109.976098 
z
" style="fill:#694516;"/>
    <path clip-path="url(#p7a94ad6989)" d="M 178.361455 178.049733 
L 176.589917 101.062389 
L 184.686032 94.836201 
L 186.143392 171.330164 
z
" style="fill:#dfb222;"/>
    <path clip-path="url(#p7a94ad6989)" d="M 218.817172 123.148645 
L 231.922634 126.844694 
L 239.361478 120.468887 
L 226.340014 116.843169 
z
" style="fill:#a9474f;"/>
    <path clip-path="url(#p7a94ad6989)" d="M 216.794403 189.994506 
L 224.338378 183.050047 
L 237.351973 187.043183 
L 229.891821 194.06512 
z
" style="fill:#867014;"/>
    <path clip-path="url(#p7a94ad6989)" d="M 270.961723 188.120663 
L 271.481011 165.978556 
L 278.562868 159.206338 
L 277.971253 181.211726 
z
" style="fill:#6f0394;"/>
    <path clip-path="url(#p7a94ad6989)" d="M 257.743589 184.115686 
L 258.510304 138.395516 
L 265.76047 131.849205 
L 264.839875 177.282368 
z
" style="fill:#b94664;"/>
    <path clip-path="url(#p7a94ad6989)" d="M 198.736391 175.194243 
L 211.467294 179.100638 
L 211.021774 109.976098 
L 197.855195 106.32463 
z
" style="fill:#df9330;"/>
    <path clip-path="url(#p7a94ad6989)" d="M 250.510457 191.080779 
L 257.743589 184.115686 
L 270.961723 188.120663 
L 263.816264 195.163579 
z
" style="fill:#7b3b30;"/>
    <path clip-path="url(#p7a94ad6989)" d="M 257.743589 184.115686 
L 264.839875 177.282368 
L 265.880451 125.927894 
L 258.610254 132.435336 
z
" style="fill:#5d2929;"/>
    <path clip-path="url(#p7a94ad6989)" d="M 162.346885 191.878042 
L 170.430723 184.897786 
L 183.178635 188.911464 
L 175.173234 195.969799 
z
" style="fill:#808512;"/>
    <path clip-path="url(#p7a94ad6989)" d="M 231.739835 176.23678 
L 231.99887 106.245614 
L 245.386033 109.904057 
L 244.670417 180.154631 
z
" style="fill:#694715;"/>
    <path clip-path="url(#p7a94ad6989)" d="M 198.736391 175.194243 
L 197.738939 97.238664 
L 210.962984 100.854554 
L 211.467294 179.100638 
z
" style="fill:#69570f;"/>
    <path clip-path="url(#p7a94ad6989)" d="M 224.338378 183.050047 
L 231.739835 176.23678 
L 231.979973 111.351686 
L 224.338378 117.749172 
z
" style="fill:#673e1b;"/>
    <path clip-path="url(#p7a94ad6989)" d="M 244.670417 180.154631 
L 257.743589 184.115686 
L 258.610254 132.435336 
L 245.194944 128.662792 
z
" style="fill:#c65757;"/>
    <path clip-path="url(#p7a94ad6989)" d="M 196.068846 192.969946 
L 203.841786 185.968896 
L 216.794403 189.994506 
L 209.103753 197.073984 
z
" style="fill:#847814;"/>
    <path clip-path="url(#p7a94ad6989)" d="M 184.966199 109.541616 
L 197.942892 113.178553 
L 205.743437 106.904834 
L 192.847895 103.33742 
z
" style="fill:#bc6a36;"/>
    <path clip-path="url(#p7a94ad6989)" d="M 170.430723 184.897786 
L 178.361455 178.049733 
L 177.021213 119.805603 
L 168.84383 126.282018 
z
" style="fill:#633422;"/>
    <path clip-path="url(#p7a94ad6989)" d="M 224.338378 183.050047 
L 224.338378 112.608665 
L 231.99887 106.245614 
L 231.739835 176.23678 
z
" style="fill:#df972d;"/>
    <path clip-path="url(#p7a94ad6989)" d="M 191.031582 181.987547 
L 198.736391 175.194243 
L 197.754003 98.416012 
L 189.740908 104.713162 
z
" style="fill:#695410;"/>
    <path clip-path="url(#p7a94ad6989)" d="M 229.891821 194.06512 
L 237.351973 187.043183 
L 250.510457 191.080779 
L 243.136481 198.181496 
z
" style="fill:#876d14;"/>
    <path clip-path="url(#p7a94ad6989)" d="M 191.031582 181.987547 
L 189.721109 103.527765 
L 197.738939 97.238664 
L 198.736391 175.194243 
z
" style="fill:#deb821;"/>
    <path clip-path="url(#p7a94ad6989)" d="M 284.327244 192.170297 
L 291.24765 185.184478 
L 291.989836 163.1003 
L 284.999164 169.94872 
z
" style="fill:#350146;"/>
    <path clip-path="url(#p7a94ad6989)" d="M 211.467294 179.100638 
L 224.338378 183.050047 
L 224.338378 117.749172 
L 211.047968 114.040295 
z
" style="fill:#db8439;"/>
    <path clip-path="url(#p7a94ad6989)" d="M 270.961723 188.120663 
L 277.971253 181.211726 
L 279.197171 135.613178 
L 272.03789 142.2336 
z
" style="fill:#57212f;"/>
    <path clip-path="url(#p7a94ad6989)" d="M 231.93019 124.802829 
L 245.19627 128.532678 
L 252.555857 122.098737 
L 239.376303 118.440324 
z
" style="fill:#ac4d4b;"/>
    <path clip-path="url(#p7a94ad6989)" d="M 141.344465 194.868925 
L 149.662704 187.831639 
L 162.346885 191.878042 
L 154.105465 198.994368 
z
" style="fill:#855320;"/>
    <path clip-path="url(#p7a94ad6989)" d="M 157.822766 180.928173 
L 170.430723 184.897786 
L 168.84383 126.282018 
L 155.875794 122.527392 
z
" style="fill:#d36e47;"/>
    <path clip-path="url(#p7a94ad6989)" d="M 270.961723 188.120663 
L 271.389851 169.865576 
L 284.881203 173.84989 
L 284.327244 192.170297 
z
" style="fill:#2d0046;"/>
    <path clip-path="url(#p7a94ad6989)" d="M 263.816264 195.163579 
L 270.961723 188.120663 
L 284.327244 192.170297 
L 277.271882 199.292348 
z
" style="fill:#3a005a;"/>
    <path clip-path="url(#p7a94ad6989)" d="M 178.361455 178.049733 
L 191.031582 181.987547 
L 189.740908 104.713162 
L 176.589917 101.062389 
z
" style="fill:#dfb222;"/>
    <path clip-path="url(#p7a94ad6989)" d="M 270.961723 188.120663 
L 284.327244 192.170297 
L 284.999164 169.94872 
L 271.481011 165.978556 
z
" style="fill:#6f0394;"/>
    <path clip-path="url(#p7a94ad6989)" d="M 257.743589 184.115686 
L 270.961723 188.120663 
L 272.03789 142.2336 
L 258.510304 138.395516 
z
" style="fill:#b94664;"/>
    <path clip-path="url(#p7a94ad6989)" d="M 175.173234 195.969799 
L 183.178635 188.911464 
L 196.068846 192.969946 
L 188.144156 200.107676 
z
" style="fill:#818015;"/>
    <path clip-path="url(#p7a94ad6989)" d="M 271.481011 165.978556 
L 284.999164 169.94872 
L 291.989836 163.1003 
L 278.562868 159.206338 
z
" style="fill:#610281;"/>
    <path clip-path="url(#p7a94ad6989)" d="M 244.670417 180.154631 
L 245.381501 110.348927 
L 258.918557 114.050879 
L 257.743589 184.115686 
z
" style="fill:#694716;"/>
    <path clip-path="url(#p7a94ad6989)" d="M 211.467294 179.100638 
L 210.976129 102.894125 
L 224.338378 106.559444 
L 224.338378 183.050047 
z
" style="fill:#695310;"/>
    <path clip-path="url(#p7a94ad6989)" d="M 178.361455 178.049733 
L 176.459458 95.392947 
L 189.64584 99.021288 
L 191.031582 181.987547 
z
" style="fill:#675f10;"/>
    <path clip-path="url(#p7a94ad6989)" d="M 263.816264 195.163579 
L 264.182324 176.795154 
L 271.389851 169.865576 
L 270.961723 188.120663 
z
" style="fill:#5f0094;"/>
    <path clip-path="url(#p7a94ad6989)" d="M 209.103753 197.073984 
L 216.794403 189.994506 
L 229.891821 194.06512 
L 222.285805 201.224351 
z
" style="fill:#818115;"/>
    <path clip-path="url(#p7a94ad6989)" d="M 157.822766 180.928173 
L 155.395052 108.107206 
L 168.45192 111.805831 
L 170.430723 184.897786 
z
" style="fill:#6a4c13;"/>
    <path clip-path="url(#p7a94ad6989)" d="M 257.743589 184.115686 
L 258.664243 129.215937 
L 272.253993 133.019105 
L 270.961723 188.120663 
z
" style="fill:#602e26;"/>
    <path clip-path="url(#p7a94ad6989)" d="M 237.351973 187.043183 
L 237.811623 116.7878 
L 245.381501 110.348927 
L 244.670417 180.154631 
z
" style="fill:#df962e;"/>
    <path clip-path="url(#p7a94ad6989)" d="M 203.841786 185.968896 
L 203.051852 109.269324 
L 210.976129 102.894125 
L 211.467294 179.100638 
z
" style="fill:#e0af22;"/>
    <path clip-path="url(#p7a94ad6989)" d="M 237.351973 187.043183 
L 244.670417 180.154631 
L 245.386033 109.904057 
L 237.814553 116.339913 
z
" style="fill:#694715;"/>
    <path clip-path="url(#p7a94ad6989)" d="M 170.430723 184.897786 
L 168.178432 101.703872 
L 176.459458 95.392947 
L 178.361455 178.049733 
z
" style="fill:#daca21;"/>
    <path clip-path="url(#p7a94ad6989)" d="M 243.136481 198.181496 
L 250.510457 191.080779 
L 263.816264 195.163579 
L 256.530882 202.34441 
z
" style="fill:#793733;"/>
    <path clip-path="url(#p7a94ad6989)" d="M 203.841786 185.968896 
L 211.467294 179.100638 
L 210.962984 100.854554 
L 203.030703 107.215786 
z
" style="fill:#69570f;"/>
    <path clip-path="url(#p7a94ad6989)" d="M 245.194944 128.662792 
L 258.610254 132.435336 
L 265.880451 125.927894 
L 252.554081 122.228 
z
" style="fill:#ac4c4c;"/>
    <path clip-path="url(#p7a94ad6989)" d="M 154.105465 198.994368 
L 162.346885 191.878042 
L 175.173234 195.969799 
L 167.010898 203.166503 
z
" style="fill:#875e1a;"/>
    <path clip-path="url(#p7a94ad6989)" d="M 149.662704 187.831639 
L 146.910033 114.54036 
L 155.395052 108.107206 
L 157.822766 180.928173 
z
" style="fill:#e0a029;"/>
    <path clip-path="url(#p7a94ad6989)" d="M 250.510457 191.080779 
L 251.238913 135.830809 
L 258.664243 129.215937 
L 257.743589 184.115686 
z
" style="fill:#cc6250;"/>
    <path clip-path="url(#p7a94ad6989)" d="M 224.338378 183.050047 
L 237.351973 187.043183 
L 237.814553 116.339913 
L 224.338378 112.608665 
z
" style="fill:#df972d;"/>
    <path clip-path="url(#p7a94ad6989)" d="M 191.031582 181.987547 
L 203.841786 185.968896 
L 203.030703 107.215786 
L 189.721109 103.527765 
z
" style="fill:#deb821;"/>
    <path clip-path="url(#p7a94ad6989)" d="M 197.855195 106.32463 
L 211.021774 109.976098 
L 218.764807 103.677543 
L 205.682254 100.096494 
z
" style="fill:#c18029;"/>
    <path clip-path="url(#p7a94ad6989)" d="M 188.144156 200.107676 
L 196.068846 192.969946 
L 209.103753 197.073984 
L 201.262108 204.292457 
z
" style="fill:#857313;"/>
    <path clip-path="url(#p7a94ad6989)" d="M 263.816264 195.163579 
L 264.013587 185.262141 
L 277.537958 189.355643 
L 277.271882 199.292348 
z
" style="fill:#1c0142;"/>
    <path clip-path="url(#p7a94ad6989)" d="M 191.031582 181.987547 
L 189.638751 98.596847 
L 202.979717 102.26529 
L 203.841786 185.968896 
z
" style="fill:#666010;"/>
    <path clip-path="url(#p7a94ad6989)" d="M 277.271882 199.292348 
L 284.327244 192.170297 
L 284.881203 173.84989 
L 277.765499 180.858055 
z
" style="fill:#2d0046;"/>
    <path clip-path="url(#p7a94ad6989)" d="M 258.510304 138.395516 
L 272.03789 142.2336 
L 279.197171 135.613178 
L 265.76047 131.849205 
z
" style="fill:#a13d57;"/>
    <path clip-path="url(#p7a94ad6989)" d="M 224.338378 183.050047 
L 224.338378 103.971192 
L 237.871287 107.668423 
L 237.351973 187.043183 
z
" style="fill:#69570f;"/>
    <path clip-path="url(#p7a94ad6989)" d="M 222.285805 201.224351 
L 229.891821 194.06512 
L 243.136481 198.181496 
L 235.617509 205.421836 
z
" style="fill:#876b15;"/>
    <path clip-path="url(#p7a94ad6989)" d="M 250.510457 191.080779 
L 257.743589 184.115686 
L 258.918557 114.050879 
L 251.440204 120.563833 
z
" style="fill:#694716;"/>
    <path clip-path="url(#p7a94ad6989)" d="M 264.182324 176.795154 
L 277.765499 180.858055 
L 284.881203 173.84989 
L 271.389851 169.865576 
z
" style="fill:#530081;"/>
    <path clip-path="url(#p7a94ad6989)" d="M 155.875794 122.527392 
L 168.84383 126.282018 
L 177.021213 119.805603 
L 164.133099 116.123602 
z
" style="fill:#b75f3e;"/>
    <path clip-path="url(#p7a94ad6989)" d="M 216.794403 189.994506 
L 224.338378 183.050047 
L 224.338378 106.559444 
L 216.501981 113.00811 
z
" style="fill:#695310;"/>
    <path clip-path="url(#p7a94ad6989)" d="M 183.178635 188.911464 
L 191.031582 181.987547 
L 189.64584 99.021288 
L 181.449013 105.405058 
z
" style="fill:#675f10;"/>
    <path clip-path="url(#p7a94ad6989)" d="M 256.530882 202.34441 
L 256.693374 192.381783 
L 264.013587 185.262141 
L 263.816264 195.163579 
z
" style="fill:#3c038c;"/>
    <path clip-path="url(#p7a94ad6989)" d="M 263.816264 195.163579 
L 277.271882 199.292348 
L 277.765499 180.858055 
L 264.182324 176.795154 
z
" style="fill:#5f0094;"/>
    <path clip-path="url(#p7a94ad6989)" d="M 183.178635 188.911464 
L 181.440161 104.977683 
L 189.638751 98.596847 
L 191.031582 181.987547 
z
" style="fill:#d9cd22;"/>
    <path clip-path="url(#p7a94ad6989)" d="M 256.530882 202.34441 
L 263.816264 195.163579 
L 277.271882 199.292348 
L 270.077576 206.554656 
z
" style="fill:#240254;"/>
    <path clip-path="url(#p7a94ad6989)" d="M 211.047968 114.040295 
L 224.338378 117.749172 
L 231.979973 111.351686 
L 218.775664 107.714595 
z
" style="fill:#be7331;"/>
    <path clip-path="url(#p7a94ad6989)" d="M 216.794403 189.994506 
L 216.492083 110.402086 
L 224.338378 103.971192 
L 224.338378 183.050047 
z
" style="fill:#deb920;"/>
    <path clip-path="url(#p7a94ad6989)" d="M 167.010898 203.166503 
L 175.173234 195.969799 
L 188.144156 200.107676 
L 180.063228 207.386128 
z
" style="fill:#875f19;"/>
    <path clip-path="url(#p7a94ad6989)" d="M 162.346885 191.878042 
L 170.430723 184.897786 
L 168.45192 111.805831 
L 160.048567 118.313191 
z
" style="fill:#6a4c13;"/>
    <path clip-path="url(#p7a94ad6989)" d="M 263.816264 195.163579 
L 270.961723 188.120663 
L 272.253993 133.019105 
L 264.921388 139.709953 
z
" style="fill:#602e26;"/>
    <path clip-path="url(#p7a94ad6989)" d="M 237.351973 187.043183 
L 250.510457 191.080779 
L 251.440204 120.563833 
L 237.811623 116.7878 
z
" style="fill:#df962e;"/>
    <path clip-path="url(#p7a94ad6989)" d="M 203.841786 185.968896 
L 216.794403 189.994506 
L 216.501981 113.00811 
L 203.051852 109.269324 
z
" style="fill:#e0af22;"/>
    <path clip-path="url(#p7a94ad6989)" d="M 170.430723 184.897786 
L 183.178635 188.911464 
L 181.449013 105.405058 
L 168.178432 101.703872 
z
" style="fill:#daca21;"/>
    <path clip-path="url(#p7a94ad6989)" d="M 149.662704 187.831639 
L 147.144051 120.771186 
L 160.243994 124.56845 
L 162.346885 191.878042 
z
" style="fill:#684119;"/>
    <path clip-path="url(#p7a94ad6989)" d="M 201.262108 204.292457 
L 209.103753 197.073984 
L 222.285805 201.224351 
L 214.529606 208.524945 
z
" style="fill:#876d14;"/>
    <path clip-path="url(#p7a94ad6989)" d="M 170.430723 184.897786 
L 168.06349 97.458212 
L 181.360723 101.142412 
L 183.178635 188.911464 
z
" style="fill:#64680e;"/>
    <path clip-path="url(#p7a94ad6989)" d="M 250.510457 191.080779 
L 251.213337 137.7706 
L 264.882582 141.657187 
L 263.816264 195.163579 
z
" style="fill:#5f2b28;"/>
    <path clip-path="url(#p7a94ad6989)" d="M 203.841786 185.968896 
L 202.994548 103.705294 
L 216.480763 107.421989 
L 216.794403 189.994506 
z
" style="fill:#675e0f;"/>
    <path clip-path="url(#p7a94ad6989)" d="M 149.662704 187.831639 
L 162.346885 191.878042 
L 160.048567 118.313191 
L 146.910033 114.54036 
z
" style="fill:#e0a029;"/>
    <path clip-path="url(#p7a94ad6989)" d="M 250.510457 191.080779 
L 263.816264 195.163579 
L 264.921388 139.709953 
L 251.238913 135.830809 
z
" style="fill:#cc6250;"/>
    <path clip-path="url(#p7a94ad6989)" d="M 237.351973 187.043183 
L 237.863205 108.90371 
L 251.544563 112.648659 
L 250.510457 191.080779 
z
" style="fill:#695510;"/>
    <path clip-path="url(#p7a94ad6989)" d="M 141.344465 194.868925 
L 138.5172 127.3761 
L 147.144051 120.771186 
L 149.662704 187.831639 
z
" style="fill:#dd8a35;"/>
    <path clip-path="url(#p7a94ad6989)" d="M 235.617509 205.421836 
L 243.136481 198.181496 
L 256.530882 202.34441 
L 249.101427 209.667246 
z
" style="fill:#6f293d;"/>
    <path clip-path="url(#p7a94ad6989)" d="M 176.589917 101.062389 
L 189.740908 104.713162 
L 197.754003 98.416012 
L 184.686032 94.836201 
z
" style="fill:#c29b1d;"/>
    <path clip-path="url(#p7a94ad6989)" d="M 162.346885 191.878042 
L 159.597227 103.866621 
L 168.06349 97.458212 
L 170.430723 184.897786 
z
" style="fill:#d4dc1e;"/>
    <path clip-path="url(#p7a94ad6989)" d="M 243.136481 198.181496 
L 243.646374 144.530817 
L 251.213337 137.7706 
L 250.510457 191.080779 
z
" style="fill:#c95c54;"/>
    <path clip-path="url(#p7a94ad6989)" d="M 256.693374 192.381783 
L 270.309764 196.556477 
L 277.537958 189.355643 
L 264.013587 185.262141 
z
" style="fill:#340279;"/>
    <path clip-path="url(#p7a94ad6989)" d="M 196.068846 192.969946 
L 194.888541 110.1702 
L 202.994548 103.705294 
L 203.841786 185.968896 
z
" style="fill:#dbc721;"/>
    <path clip-path="url(#p7a94ad6989)" d="M 270.077576 206.554656 
L 277.271882 199.292348 
L 277.537958 189.355643 
L 270.309764 196.556477 
z
" style="fill:#1c0142;"/>
    <path clip-path="url(#p7a94ad6989)" d="M 196.068846 192.969946 
L 203.841786 185.968896 
L 202.979717 102.26529 
L 194.867872 108.720221 
z
" style="fill:#666010;"/>
    <path clip-path="url(#p7a94ad6989)" d="M 229.891821 194.06512 
L 230.112181 115.417747 
L 237.863205 108.90371 
L 237.351973 187.043183 
z
" style="fill:#dfb521;"/>
    <path clip-path="url(#p7a94ad6989)" d="M 229.891821 194.06512 
L 237.351973 187.043183 
L 237.871287 107.668423 
L 230.115666 114.17395 
z
" style="fill:#69570f;"/>
    <path clip-path="url(#p7a94ad6989)" d="M 256.530882 202.34441 
L 256.598726 198.184762 
L 270.174519 202.380234 
L 270.077576 206.554656 
z
" style="fill:#0f023c;"/>
    <path clip-path="url(#p7a94ad6989)" d="M 180.063228 207.386128 
L 188.144156 200.107676 
L 201.262108 204.292457 
L 193.264978 211.654059 
z
" style="fill:#86551f;"/>
    <path clip-path="url(#p7a94ad6989)" d="M 256.530882 202.34441 
L 270.077576 206.554656 
L 270.309764 196.556477 
L 256.693374 192.381783 
z
" style="fill:#3c038c;"/>
    <path clip-path="url(#p7a94ad6989)" d="M 183.178635 188.911464 
L 196.068846 192.969946 
L 194.867872 108.720221 
L 181.440161 104.977683 
z
" style="fill:#d9cd22;"/>
    <path clip-path="url(#p7a94ad6989)" d="M 216.794403 189.994506 
L 229.891821 194.06512 
L 230.115666 114.17395 
L 216.492083 110.402086 
z
" style="fill:#deb920;"/>
    <path clip-path="url(#p7a94ad6989)" d="M 183.178635 188.911464 
L 181.402428 103.155927 
L 194.841799 106.891167 
L 196.068846 192.969946 
z
" style="fill:#656410;"/>
    <path clip-path="url(#p7a94ad6989)" d="M 249.101427 209.667246 
L 249.154131 205.481966 
L 256.598726 198.184762 
L 256.530882 202.34441 
z
" style="fill:#200580;"/>
    <path clip-path="url(#p7a94ad6989)" d="M 214.529606 208.524945 
L 222.285805 201.224351 
L 235.617509 205.421836 
L 227.94922 212.80596 
z
" style="fill:#875a1c;"/>
    <path clip-path="url(#p7a94ad6989)" d="M 224.338378 112.608665 
L 237.814553 116.339913 
L 245.386033 109.904057 
L 231.99887 106.245614 
z
" style="fill:#c28327;"/>
    <path clip-path="url(#p7a94ad6989)" d="M 162.346885 191.878042 
L 160.087488 119.55896 
L 173.370907 123.380569 
L 175.173234 195.969799 
z
" style="fill:#6a4a14;"/>
    <path clip-path="url(#p7a94ad6989)" d="M 216.794403 189.994506 
L 216.466721 103.724986 
L 230.134449 107.47016 
L 229.891821 194.06512 
z
" style="fill:#656510;"/>
    <path clip-path="url(#p7a94ad6989)" d="M 154.105465 198.994368 
L 162.346885 191.878042 
L 160.243994 124.56845 
L 151.698991 131.250084 
z
" style="fill:#684119;"/>
    <path clip-path="url(#p7a94ad6989)" d="M 249.101427 209.667246 
L 256.530882 202.34441 
L 270.077576 206.554656 
L 262.740181 213.961405 
z
" style="fill:#13034d;"/>
    <path clip-path="url(#p7a94ad6989)" d="M 175.173234 195.969799 
L 173.03007 109.653252 
L 181.402428 103.155927 
L 183.178635 188.911464 
z
" style="fill:#d6d422;"/>
    <path clip-path="url(#p7a94ad6989)" d="M 175.173234 195.969799 
L 183.178635 188.911464 
L 181.360723 101.142412 
L 172.979727 107.625694 
z
" style="fill:#64680e;"/>
    <path clip-path="url(#p7a94ad6989)" d="M 256.530882 202.34441 
L 263.816264 195.163579 
L 264.882582 141.657187 
L 257.409164 148.495752 
z
" style="fill:#5f2b28;"/>
    <path clip-path="url(#p7a94ad6989)" d="M 189.721109 103.527765 
L 203.030703 107.215786 
L 210.962984 100.854554 
L 197.738939 97.238664 
z
" style="fill:#c1a01c;"/>
    <path clip-path="url(#p7a94ad6989)" d="M 209.103753 197.073984 
L 216.794403 189.994506 
L 216.480763 107.421989 
L 208.463959 113.962352 
z
" style="fill:#675e0f;"/>
    <path clip-path="url(#p7a94ad6989)" d="M 243.136481 198.181496 
L 243.572473 152.306653 
L 257.281854 156.301305 
L 256.530882 202.34441 
z
" style="fill:#572030;"/>
    <path clip-path="url(#p7a94ad6989)" d="M 154.105465 198.994368 
L 151.519826 126.206451 
L 160.087488 119.55896 
L 162.346885 191.878042 
z
" style="fill:#e09c2b;"/>
    <path clip-path="url(#p7a94ad6989)" d="M 243.136481 198.181496 
L 250.510457 191.080779 
L 251.544563 112.648659 
L 243.886749 119.23869 
z
" style="fill:#695510;"/>
    <path clip-path="url(#p7a94ad6989)" d="M 141.344465 194.868925 
L 154.105465 198.994368 
L 151.698991 131.250084 
L 138.5172 127.3761 
z
" style="fill:#dd8a35;"/>
    <path clip-path="url(#p7a94ad6989)" d="M 209.103753 197.073984 
L 208.435302 110.239639 
L 216.466721 103.724986 
L 216.794403 189.994506 
z
" style="fill:#d6d622;"/>
    <path clip-path="url(#p7a94ad6989)" d="M 249.154131 205.481966 
L 262.822383 209.761236 
L 270.174519 202.380234 
L 256.598726 198.184762 
z
" style="fill:#1b046f;"/>
    <path clip-path="url(#p7a94ad6989)" d="M 251.238913 135.830809 
L 264.921388 139.709953 
L 272.253993 133.019105 
L 258.664243 129.215937 
z
" style="fill:#b15545;"/>
    <path clip-path="url(#p7a94ad6989)" d="M 196.068846 192.969946 
L 194.910681 111.723313 
L 208.475963 115.521675 
L 209.103753 197.073984 
z
" style="fill:#685a0f;"/>
    <path clip-path="url(#p7a94ad6989)" d="M 193.264978 211.654059 
L 201.262108 204.292457 
L 214.529606 208.524945 
L 206.61873 215.971129 
z
" style="fill:#86561f;"/>
    <path clip-path="url(#p7a94ad6989)" d="M 162.346885 191.878042 
L 175.173234 195.969799 
L 172.979727 107.625694 
L 159.597227 103.866621 
z
" style="fill:#d4dc1e;"/>
    <path clip-path="url(#p7a94ad6989)" d="M 243.136481 198.181496 
L 256.530882 202.34441 
L 257.409164 148.495752 
L 243.646374 144.530817 
z
" style="fill:#c95c54;"/>
    <path clip-path="url(#p7a94ad6989)" d="M 196.068846 192.969946 
L 209.103753 197.073984 
L 208.463959 113.962352 
L 194.888541 110.1702 
z
" style="fill:#dbc721;"/>
    <path clip-path="url(#p7a94ad6989)" d="M 235.617509 205.421836 
L 235.881742 159.255018 
L 243.572473 152.306653 
L 243.136481 198.181496 
z
" style="fill:#b84466;"/>
    <path clip-path="url(#p7a94ad6989)" d="M 229.891821 194.06512 
L 230.109546 116.358286 
L 243.877774 120.182969 
L 243.136481 198.181496 
z
" style="fill:#695310;"/>
    <path clip-path="url(#p7a94ad6989)" d="M 229.891821 194.06512 
L 243.136481 198.181496 
L 243.886749 119.23869 
L 230.112181 115.417747 
z
" style="fill:#dfb521;"/>
    <path clip-path="url(#p7a94ad6989)" d="M 262.740181 213.961405 
L 270.077576 206.554656 
L 270.174519 202.380234 
L 262.822383 209.761236 
z
" style="fill:#0f023c;"/>
    <path clip-path="url(#p7a94ad6989)" d="M 237.811623 116.7878 
L 251.440204 120.563833 
L 258.918557 114.050879 
L 245.381501 110.348927 
z
" style="fill:#c28228;"/>
    <path clip-path="url(#p7a94ad6989)" d="M 227.94922 212.80596 
L 235.617509 205.421836 
L 249.101427 209.667246 
L 241.523583 217.136342 
z
" style="fill:#4f0956;"/>
    <path clip-path="url(#p7a94ad6989)" d="M 175.173234 195.969799 
L 173.359291 122.912747 
L 186.800969 126.777171 
L 188.144156 200.107676 
z
" style="fill:#6a4a14;"/>
    <path clip-path="url(#p7a94ad6989)" d="M 188.144156 200.107676 
L 186.646253 118.330534 
L 194.910681 111.723313 
L 196.068846 192.969946 
z
" style="fill:#ddbf20;"/>
    <path clip-path="url(#p7a94ad6989)" d="M 222.285805 201.224351 
L 222.204516 123.011288 
L 230.109546 116.358286 
L 229.891821 194.06512 
z
" style="fill:#dfb122;"/>
    <path clip-path="url(#p7a94ad6989)" d="M 249.101427 209.667246 
L 249.132133 207.228865 
L 262.788072 211.514363 
L 262.740181 213.961405 
z
" style="fill:#0a033a;"/>
    <path clip-path="url(#p7a94ad6989)" d="M 203.051852 109.269324 
L 216.501981 113.00811 
L 224.338378 106.559444 
L 210.976129 102.894125 
z
" style="fill:#c2981e;"/>
    <path clip-path="url(#p7a94ad6989)" d="M 188.144156 200.107676 
L 196.068846 192.969946 
L 194.841799 106.891167 
L 186.557127 113.464775 
z
" style="fill:#656410;"/>
    <path clip-path="url(#p7a94ad6989)" d="M 249.101427 209.667246 
L 262.740181 213.961405 
L 262.822383 209.761236 
L 249.154131 205.481966 
z
" style="fill:#200580;"/>
    <path clip-path="url(#p7a94ad6989)" d="M 235.617509 205.421836 
L 235.77528 177.856078 
L 249.449815 182.001636 
L 249.101427 209.667246 
z
" style="fill:#3e0743;"/>
    <path clip-path="url(#p7a94ad6989)" d="M 146.910033 114.54036 
L 160.048567 118.313191 
L 168.45192 111.805831 
L 155.395052 108.107206 
z
" style="fill:#c28b23;"/>
    <path clip-path="url(#p7a94ad6989)" d="M 167.010898 203.166503 
L 175.173234 195.969799 
L 173.370907 123.380569 
L 164.887989 130.105918 
z
" style="fill:#6a4a14;"/>
    <path clip-path="url(#p7a94ad6989)" d="M 167.010898 203.166503 
L 164.874302 129.634888 
L 173.359291 122.912747 
L 175.173234 195.969799 
z
" style="fill:#e09d2a;"/>
    <path clip-path="url(#p7a94ad6989)" d="M 168.178432 101.703872 
L 181.449013 105.405058 
L 189.64584 99.021288 
L 176.459458 95.392947 
z
" style="fill:#bdaf1d;"/>
    <path clip-path="url(#p7a94ad6989)" d="M 222.285805 201.224351 
L 229.891821 194.06512 
L 230.134449 107.47016 
L 222.195214 114.061436 
z
" style="fill:#656510;"/>
    <path clip-path="url(#p7a94ad6989)" d="M 241.523583 217.136342 
L 241.545105 214.682934 
L 249.132133 207.228865 
L 249.101427 209.667246 
z
" style="fill:#16067b;"/>
    <path clip-path="url(#p7a94ad6989)" d="M 209.103753 197.073984 
L 208.496191 118.149336 
L 222.203467 122.00285 
L 222.285805 201.224351 
z
" style="fill:#695510;"/>
    <path clip-path="url(#p7a94ad6989)" d="M 175.173234 195.969799 
L 188.144156 200.107676 
L 186.557127 113.464775 
L 173.03007 109.653252 
z
" style="fill:#d6d422;"/>
    <path clip-path="url(#p7a94ad6989)" d="M 227.94922 212.80596 
L 228.000237 185.066954 
L 235.77528 177.856078 
L 235.617509 205.421836 
z
" style="fill:#820e8f;"/>
    <path clip-path="url(#p7a94ad6989)" d="M 206.61873 215.971129 
L 214.529606 208.524945 
L 227.94922 212.80596 
L 220.127123 220.338193 
z
" style="fill:#7b3a31;"/>
    <path clip-path="url(#p7a94ad6989)" d="M 154.105465 198.994368 
L 167.010898 203.166503 
L 164.887989 130.105918 
L 151.519826 126.206451 
z
" style="fill:#e09c2b;"/>
    <path clip-path="url(#p7a94ad6989)" d="M 249.101427 209.667246 
L 256.530882 202.34441 
L 257.281854 156.301305 
L 249.684934 163.330701 
z
" style="fill:#572030;"/>
    <path clip-path="url(#p7a94ad6989)" d="M 188.144156 200.107676 
L 186.884154 131.318634 
L 200.454059 135.246423 
L 201.262108 204.292457 
z
" style="fill:#684218;"/>
    <path clip-path="url(#p7a94ad6989)" d="M 209.103753 197.073984 
L 222.285805 201.224351 
L 222.195214 114.061436 
L 208.435302 110.239639 
z
" style="fill:#d6d622;"/>
    <path clip-path="url(#p7a94ad6989)" d="M 201.262108 204.292457 
L 200.33242 124.852627 
L 208.496191 118.149336 
L 209.103753 197.073984 
z
" style="fill:#dfb521;"/>
    <path clip-path="url(#p7a94ad6989)" d="M 241.523583 217.136342 
L 249.101427 209.667246 
L 262.740181 213.961405 
L 255.255385 221.516949 
z
" style="fill:#0d034a;"/>
    <path clip-path="url(#p7a94ad6989)" d="M 201.262108 204.292457 
L 209.103753 197.073984 
L 208.475963 115.521675 
L 200.301455 122.206742 
z
" style="fill:#685a0f;"/>
    <path clip-path="url(#p7a94ad6989)" d="M 235.617509 205.421836 
L 249.101427 209.667246 
L 249.684934 163.330701 
L 235.881742 159.255018 
z
" style="fill:#b84466;"/>
    <path clip-path="url(#p7a94ad6989)" d="M 235.617509 205.421836 
L 243.136481 198.181496 
L 243.877774 120.182969 
L 236.066842 126.914341 
z
" style="fill:#695310;"/>
    <path clip-path="url(#p7a94ad6989)" d="M 241.545105 214.682934 
L 255.29433 219.054813 
L 262.788072 211.514363 
L 249.132133 207.228865 
z
" style="fill:#13056b;"/>
    <path clip-path="url(#p7a94ad6989)" d="M 243.646374 144.530817 
L 257.409164 148.495752 
L 264.882582 141.657187 
L 251.213337 137.7706 
z
" style="fill:#ae4f49;"/>
    <path clip-path="url(#p7a94ad6989)" d="M 180.063228 207.386128 
L 178.506183 138.151106 
L 186.884154 131.318634 
L 188.144156 200.107676 
z
" style="fill:#dd8d33;"/>
    <path clip-path="url(#p7a94ad6989)" d="M 222.285805 201.224351 
L 222.211811 130.031019 
L 236.026506 133.96194 
L 235.617509 205.421836 
z
" style="fill:#694716;"/>
    <path clip-path="url(#p7a94ad6989)" d="M 227.94922 212.80596 
L 227.971448 200.720237 
L 241.629985 205.007316 
L 241.523583 217.136342 
z
" style="fill:#210143;"/>
    <path clip-path="url(#p7a94ad6989)" d="M 188.144156 200.107676 
L 201.262108 204.292457 
L 200.301455 122.206742 
L 186.646253 118.330534 
z
" style="fill:#ddbf20;"/>
    <path clip-path="url(#p7a94ad6989)" d="M 180.063228 207.386128 
L 188.144156 200.107676 
L 186.800969 126.777171 
L 178.403349 133.578526 
z
" style="fill:#6a4a14;"/>
    <path clip-path="url(#p7a94ad6989)" d="M 216.492083 110.402086 
L 230.115666 114.17395 
L 237.871287 107.668423 
L 224.338378 103.971192 
z
" style="fill:#c1a11c;"/>
    <path clip-path="url(#p7a94ad6989)" d="M 181.440161 104.977683 
L 194.867872 108.720221 
L 202.979717 102.26529 
L 189.638751 98.596847 
z
" style="fill:#bcb21d;"/>
    <path clip-path="url(#p7a94ad6989)" d="M 222.285805 201.224351 
L 235.617509 205.421836 
L 236.066842 126.914341 
L 222.204516 123.011288 
z
" style="fill:#dfb122;"/>
    <path clip-path="url(#p7a94ad6989)" d="M 255.255385 221.516949 
L 262.740181 213.961405 
L 262.788072 211.514363 
L 255.29433 219.054813 
z
" style="fill:#0a033a;"/>
    <path clip-path="url(#p7a94ad6989)" d="M 138.5172 127.3761 
L 151.698991 131.250084 
L 160.243994 124.56845 
L 147.144051 120.771186 
z
" style="fill:#c0782e;"/>
    <path clip-path="url(#p7a94ad6989)" d="M 214.529606 208.524945 
L 214.172388 136.869019 
L 222.211811 130.031019 
L 222.285805 201.224351 
z
" style="fill:#df962e;"/>
    <path clip-path="url(#p7a94ad6989)" d="M 241.523583 217.136342 
L 249.101427 209.667246 
L 249.449815 182.001636 
L 241.767808 189.296667 
z
" style="fill:#3e0743;"/>
    <path clip-path="url(#p7a94ad6989)" d="M 220.127123 220.338193 
L 227.94922 212.80596 
L 241.523583 217.136342 
L 233.792858 224.756123 
z
" style="fill:#2a0156;"/>
    <path clip-path="url(#p7a94ad6989)" d="M 220.127123 220.338193 
L 220.100937 208.177345 
L 227.971448 200.720237 
L 227.94922 212.80596 
z
" style="fill:#45028f;"/>
    <path clip-path="url(#p7a94ad6989)" d="M 167.010898 203.166503 
L 180.063228 207.386128 
L 178.403349 133.578526 
L 164.874302 129.634888 
z
" style="fill:#e09d2a;"/>
    <path clip-path="url(#p7a94ad6989)" d="M 201.262108 204.292457 
L 200.453119 135.166078 
L 214.183709 139.139905 
L 214.529606 208.524945 
z
" style="fill:#694318;"/>
    <path clip-path="url(#p7a94ad6989)" d="M 241.523583 217.136342 
L 241.535669 215.758569 
L 255.277256 220.134279 
L 255.255385 221.516949 
z
" style="fill:#070339;"/>
    <path clip-path="url(#p7a94ad6989)" d="M 241.523583 217.136342 
L 255.255385 221.516949 
L 255.29433 219.054813 
L 241.545105 214.682934 
z
" style="fill:#16067b;"/>
    <path clip-path="url(#p7a94ad6989)" d="M 214.529606 208.524945 
L 222.285805 201.224351 
L 222.203467 122.00285 
L 214.13209 128.785484 
z
" style="fill:#695510;"/>
    <path clip-path="url(#p7a94ad6989)" d="M 227.94922 212.80596 
L 241.523583 217.136342 
L 241.767808 189.296667 
L 228.000237 185.066954 
z
" style="fill:#820e8f;"/>
    <path clip-path="url(#p7a94ad6989)" d="M 193.264978 211.654059 
L 201.262108 204.292457 
L 200.454059 135.246423 
L 192.16573 142.159705 
z
" style="fill:#684218;"/>
    <path clip-path="url(#p7a94ad6989)" d="M 193.264978 211.654059 
L 192.16445 142.07881 
L 200.453119 135.166078 
L 201.262108 204.292457 
z
" style="fill:#de8e33;"/>
    <path clip-path="url(#p7a94ad6989)" d="M 233.792858 224.756123 
L 233.799575 223.369856 
L 241.535669 215.758569 
L 241.523583 217.136342 
z
" style="fill:#0e0678;"/>
    <path clip-path="url(#p7a94ad6989)" d="M 235.881742 159.255018 
L 249.684934 163.330701 
L 257.281854 156.301305 
L 243.572473 152.306653 
z
" style="fill:#a03b58;"/>
    <path clip-path="url(#p7a94ad6989)" d="M 214.529606 208.524945 
L 214.252758 152.99085 
L 228.051735 157.066009 
L 227.94922 212.80596 
z
" style="fill:#602d26;"/>
    <path clip-path="url(#p7a94ad6989)" d="M 201.262108 204.292457 
L 214.529606 208.524945 
L 214.13209 128.785484 
L 200.33242 124.852627 
z
" style="fill:#dfb521;"/>
    <path clip-path="url(#p7a94ad6989)" d="M 230.112181 115.417747 
L 243.886749 119.23869 
L 251.544563 112.648659 
L 237.863205 108.90371 
z
" style="fill:#c19d1d;"/>
    <path clip-path="url(#p7a94ad6989)" d="M 228.000237 185.066954 
L 241.767808 189.296667 
L 249.449815 182.001636 
L 235.77528 177.856078 
z
" style="fill:#710d7c;"/>
    <path clip-path="url(#p7a94ad6989)" d="M 194.888541 110.1702 
L 208.463959 113.962352 
L 216.480763 107.421989 
L 202.994548 103.705294 
z
" style="fill:#beac1c;"/>
    <path clip-path="url(#p7a94ad6989)" d="M 159.597227 103.866621 
L 172.979727 107.625694 
L 181.360723 101.142412 
L 168.06349 97.458212 
z
" style="fill:#b8bf1a;"/>
    <path clip-path="url(#p7a94ad6989)" d="M 180.063228 207.386128 
L 193.264978 211.654059 
L 192.16573 142.159705 
L 178.506183 138.151106 
z
" style="fill:#dd8d33;"/>
    <path clip-path="url(#p7a94ad6989)" d="M 227.94922 212.80596 
L 235.617509 205.421836 
L 236.026506 133.96194 
L 228.081502 140.881038 
z
" style="fill:#694716;"/>
    <path clip-path="url(#p7a94ad6989)" d="M 206.61873 215.971129 
L 206.113473 160.079826 
L 214.252758 152.99085 
L 214.529606 208.524945 
z
" style="fill:#cb6051;"/>
    <path clip-path="url(#p7a94ad6989)" d="M 233.792858 224.756123 
L 241.523583 217.136342 
L 255.255385 221.516949 
L 247.618703 229.225814 
z
" style="fill:#090449;"/>
    <path clip-path="url(#p7a94ad6989)" d="M 233.792858 224.756123 
L 241.523583 217.136342 
L 241.629985 205.007316 
L 233.85199 212.55164 
z
" style="fill:#210143;"/>
    <path clip-path="url(#p7a94ad6989)" d="M 220.100937 208.177345 
L 233.85199 212.55164 
L 241.629985 205.007316 
L 227.971448 200.720237 
z
" style="fill:#3c027c;"/>
    <path clip-path="url(#p7a94ad6989)" d="M 233.799575 223.369856 
L 247.635338 227.834615 
L 255.277256 220.134279 
L 241.535669 215.758569 
z
" style="fill:#0c0668;"/>
    <path clip-path="url(#p7a94ad6989)" d="M 214.529606 208.524945 
L 227.94922 212.80596 
L 228.081502 140.881038 
L 214.172388 136.869019 
z
" style="fill:#df962e;"/>
    <path clip-path="url(#p7a94ad6989)" d="M 151.519826 126.206451 
L 164.887989 130.105918 
L 173.370907 123.380569 
L 160.087488 119.55896 
z
" style="fill:#c28725;"/>
    <path clip-path="url(#p7a94ad6989)" d="M 220.127123 220.338193 
L 233.792858 224.756123 
L 233.85199 212.55164 
L 220.100937 208.177345 
z
" style="fill:#45028f;"/>
    <path clip-path="url(#p7a94ad6989)" d="M 206.61873 215.971129 
L 214.529606 208.524945 
L 214.183709 139.139905 
L 205.98741 146.134885 
z
" style="fill:#694318;"/>
    <path clip-path="url(#p7a94ad6989)" d="M 247.618703 229.225814 
L 255.255385 221.516949 
L 255.277256 220.134279 
L 247.635338 227.834615 
z
" style="fill:#070339;"/>
    <path clip-path="url(#p7a94ad6989)" d="M 173.03007 109.653252 
L 186.557127 113.464775 
L 194.841799 106.891167 
L 181.402428 103.155927 
z
" style="fill:#bab81e;"/>
    <path clip-path="url(#p7a94ad6989)" d="M 193.264978 211.654059 
L 206.61873 215.971129 
L 205.98741 146.134885 
L 192.16445 142.07881 
z
" style="fill:#de8e33;"/>
    <path clip-path="url(#p7a94ad6989)" d="M 233.792858 224.756123 
L 247.618703 229.225814 
L 247.635338 227.834615 
L 233.799575 223.369856 
z
" style="fill:#0e0678;"/>
    <path clip-path="url(#p7a94ad6989)" d="M 220.127123 220.338193 
L 227.94922 212.80596 
L 228.051735 157.066009 
L 220.006328 164.23925 
z
" style="fill:#602d26;"/>
    <path clip-path="url(#p7a94ad6989)" d="M 208.435302 110.239639 
L 222.195214 114.061436 
L 230.134449 107.47016 
L 216.466721 103.724986 
z
" style="fill:#bab91e;"/>
    <path clip-path="url(#p7a94ad6989)" d="M 222.204516 123.011288 
L 236.066842 126.914341 
L 243.877774 120.182969 
L 230.109546 116.358286 
z
" style="fill:#c2991e;"/>
    <path clip-path="url(#p7a94ad6989)" d="M 206.61873 215.971129 
L 220.127123 220.338193 
L 220.006328 164.23925 
L 206.113473 160.079826 
z
" style="fill:#cb6051;"/>
    <path clip-path="url(#p7a94ad6989)" d="M 186.646253 118.330534 
L 200.301455 122.206742 
L 208.475963 115.521675 
L 194.910681 111.723313 
z
" style="fill:#c0a61c;"/>
    <path clip-path="url(#p7a94ad6989)" d="M 164.874302 129.634888 
L 178.403349 133.578526 
L 186.800969 126.777171 
L 173.359291 122.912747 
z
" style="fill:#c28924;"/>
    <path clip-path="url(#p7a94ad6989)" d="M 178.506183 138.151106 
L 192.16573 142.159705 
L 200.454059 135.246423 
L 186.884154 131.318634 
z
" style="fill:#c07a2d;"/>
    <path clip-path="url(#p7a94ad6989)" d="M 200.33242 124.852627 
L 214.13209 128.785484 
L 222.203467 122.00285 
L 208.496191 118.149336 
z
" style="fill:#c19d1d;"/>
    <path clip-path="url(#p7a94ad6989)" d="M 214.172388 136.869019 
L 228.081502 140.881038 
L 236.026506 133.96194 
L 222.211811 130.031019 
z
" style="fill:#c28228;"/>
    <path clip-path="url(#p7a94ad6989)" d="M 206.113473 160.079826 
L 220.006328 164.23925 
L 228.051735 157.066009 
L 214.252758 152.99085 
z
" style="fill:#b05346;"/>
    <path clip-path="url(#p7a94ad6989)" d="M 192.16445 142.07881 
L 205.98741 146.134885 
L 214.183709 139.139905 
L 200.453119 135.166078 
z
" style="fill:#c07b2c;"/>
   </g>
   <g id="text_16">
    <!-- W10__H50__A040_bars_extracted.txt -->
    <g transform="translate(110.101875 28.56)scale(0.12 -0.12)">
     <defs>
      <path d="M 3.328125 72.90625 
L 13.28125 72.90625 
L 28.609375 11.28125 
L 43.890625 72.90625 
L 54.984375 72.90625 
L 70.3125 11.28125 
L 85.59375 72.90625 
L 95.609375 72.90625 
L 77.296875 0 
L 64.890625 0 
L 49.515625 63.28125 
L 33.984375 0 
L 21.578125 0 
z
" id="DejaVuSans-87"/>
      <path d="M 50.984375 -16.609375 
L 50.984375 -23.578125 
L -0.984375 -23.578125 
L -0.984375 -16.609375 
z
" id="DejaVuSans-95"/>
      <path d="M 9.8125 72.90625 
L 19.671875 72.90625 
L 19.671875 43.015625 
L 55.515625 43.015625 
L 55.515625 72.90625 
L 65.375 72.90625 
L 65.375 0 
L 55.515625 0 
L 55.515625 34.71875 
L 19.671875 34.71875 
L 19.671875 0 
L 9.8125 0 
z
" id="DejaVuSans-72"/>
      <path d="M 34.1875 63.1875 
L 20.796875 26.90625 
L 47.609375 26.90625 
z
M 28.609375 72.90625 
L 39.796875 72.90625 
L 67.578125 0 
L 57.328125 0 
L 50.6875 18.703125 
L 17.828125 18.703125 
L 11.1875 0 
L 0.78125 0 
z
" id="DejaVuSans-65"/>
      <path d="M 48.6875 27.296875 
Q 48.6875 37.203125 44.609375 42.84375 
Q 40.53125 48.484375 33.40625 48.484375 
Q 26.265625 48.484375 22.1875 42.84375 
Q 18.109375 37.203125 18.109375 27.296875 
Q 18.109375 17.390625 22.1875 11.75 
Q 26.265625 6.109375 33.40625 6.109375 
Q 40.53125 6.109375 44.609375 11.75 
Q 48.6875 17.390625 48.6875 27.296875 
z
M 18.109375 46.390625 
Q 20.953125 51.265625 25.265625 53.625 
Q 29.59375 56 35.59375 56 
Q 45.5625 56 51.78125 48.09375 
Q 58.015625 40.1875 58.015625 27.296875 
Q 58.015625 14.40625 51.78125 6.484375 
Q 45.5625 -1.421875 35.59375 -1.421875 
Q 29.59375 -1.421875 25.265625 0.953125 
Q 20.953125 3.328125 18.109375 8.203125 
L 18.109375 0 
L 9.078125 0 
L 9.078125 75.984375 
L 18.109375 75.984375 
z
" id="DejaVuSans-98"/>
      <path d="M 34.28125 27.484375 
Q 23.390625 27.484375 19.1875 25 
Q 14.984375 22.515625 14.984375 16.5 
Q 14.984375 11.71875 18.140625 8.90625 
Q 21.296875 6.109375 26.703125 6.109375 
Q 34.1875 6.109375 38.703125 11.40625 
Q 43.21875 16.703125 43.21875 25.484375 
L 43.21875 27.484375 
z
M 52.203125 31.203125 
L 52.203125 0 
L 43.21875 0 
L 43.21875 8.296875 
Q 40.140625 3.328125 35.546875 0.953125 
Q 30.953125 -1.421875 24.3125 -1.421875 
Q 15.921875 -1.421875 10.953125 3.296875 
Q 6 8.015625 6 15.921875 
Q 6 25.140625 12.171875 29.828125 
Q 18.359375 34.515625 30.609375 34.515625 
L 43.21875 34.515625 
L 43.21875 35.40625 
Q 43.21875 41.609375 39.140625 45 
Q 35.0625 48.390625 27.6875 48.390625 
Q 23 48.390625 18.546875 47.265625 
Q 14.109375 46.140625 10.015625 43.890625 
L 10.015625 52.203125 
Q 14.9375 54.109375 19.578125 55.046875 
Q 24.21875 56 28.609375 56 
Q 40.484375 56 46.34375 49.84375 
Q 52.203125 43.703125 52.203125 31.203125 
z
" id="DejaVuSans-97"/>
      <path d="M 41.109375 46.296875 
Q 39.59375 47.171875 37.8125 47.578125 
Q 36.03125 48 33.890625 48 
Q 26.265625 48 22.1875 43.046875 
Q 18.109375 38.09375 18.109375 28.8125 
L 18.109375 0 
L 9.078125 0 
L 9.078125 54.6875 
L 18.109375 54.6875 
L 18.109375 46.1875 
Q 20.953125 51.171875 25.484375 53.578125 
Q 30.03125 56 36.53125 56 
Q 37.453125 56 38.578125 55.875 
Q 39.703125 55.765625 41.0625 55.515625 
z
" id="DejaVuSans-114"/>
      <path d="M 44.28125 53.078125 
L 44.28125 44.578125 
Q 40.484375 46.53125 36.375 47.5 
Q 32.28125 48.484375 27.875 48.484375 
Q 21.1875 48.484375 17.84375 46.4375 
Q 14.5 44.390625 14.5 40.28125 
Q 14.5 37.15625 16.890625 35.375 
Q 19.28125 33.59375 26.515625 31.984375 
L 29.59375 31.296875 
Q 39.15625 29.25 43.1875 25.515625 
Q 47.21875 21.78125 47.21875 15.09375 
Q 47.21875 7.46875 41.1875 3.015625 
Q 35.15625 -1.421875 24.609375 -1.421875 
Q 20.21875 -1.421875 15.453125 -0.5625 
Q 10.6875 0.296875 5.421875 2 
L 5.421875 11.28125 
Q 10.40625 8.6875 15.234375 7.390625 
Q 20.0625 6.109375 24.8125 6.109375 
Q 31.15625 6.109375 34.5625 8.28125 
Q 37.984375 10.453125 37.984375 14.40625 
Q 37.984375 18.0625 35.515625 20.015625 
Q 33.0625 21.96875 24.703125 23.78125 
L 21.578125 24.515625 
Q 13.234375 26.265625 9.515625 29.90625 
Q 5.8125 33.546875 5.8125 39.890625 
Q 5.8125 47.609375 11.28125 51.796875 
Q 16.75 56 26.8125 56 
Q 31.78125 56 36.171875 55.265625 
Q 40.578125 54.546875 44.28125 53.078125 
z
" id="DejaVuSans-115"/>
      <path d="M 56.203125 29.59375 
L 56.203125 25.203125 
L 14.890625 25.203125 
Q 15.484375 15.921875 20.484375 11.0625 
Q 25.484375 6.203125 34.421875 6.203125 
Q 39.59375 6.203125 44.453125 7.46875 
Q 49.3125 8.734375 54.109375 11.28125 
L 54.109375 2.78125 
Q 49.265625 0.734375 44.1875 -0.34375 
Q 39.109375 -1.421875 33.890625 -1.421875 
Q 20.796875 -1.421875 13.15625 6.1875 
Q 5.515625 13.8125 5.515625 26.8125 
Q 5.515625 40.234375 12.765625 48.109375 
Q 20.015625 56 32.328125 56 
Q 43.359375 56 49.78125 48.890625 
Q 56.203125 41.796875 56.203125 29.59375 
z
M 47.21875 32.234375 
Q 47.125 39.59375 43.09375 43.984375 
Q 39.0625 48.390625 32.421875 48.390625 
Q 24.90625 48.390625 20.390625 44.140625 
Q 15.875 39.890625 15.1875 32.171875 
z
" id="DejaVuSans-101"/>
      <path d="M 54.890625 54.6875 
L 35.109375 28.078125 
L 55.90625 0 
L 45.3125 0 
L 29.390625 21.484375 
L 13.484375 0 
L 2.875 0 
L 24.125 28.609375 
L 4.6875 54.6875 
L 15.28125 54.6875 
L 29.78125 35.203125 
L 44.28125 54.6875 
z
" id="DejaVuSans-120"/>
      <path d="M 18.3125 70.21875 
L 18.3125 54.6875 
L 36.8125 54.6875 
L 36.8125 47.703125 
L 18.3125 47.703125 
L 18.3125 18.015625 
Q 18.3125 11.328125 20.140625 9.421875 
Q 21.96875 7.515625 27.59375 7.515625 
L 36.8125 7.515625 
L 36.8125 0 
L 27.59375 0 
Q 17.1875 0 13.234375 3.875 
Q 9.28125 7.765625 9.28125 18.015625 
L 9.28125 47.703125 
L 2.6875 47.703125 
L 2.6875 54.6875 
L 9.28125 54.6875 
L 9.28125 70.21875 
z
" id="DejaVuSans-116"/>
      <path d="M 48.78125 52.59375 
L 48.78125 44.1875 
Q 44.96875 46.296875 41.140625 47.34375 
Q 37.3125 48.390625 33.40625 48.390625 
Q 24.65625 48.390625 19.8125 42.84375 
Q 14.984375 37.3125 14.984375 27.296875 
Q 14.984375 17.28125 19.8125 11.734375 
Q 24.65625 6.203125 33.40625 6.203125 
Q 37.3125 6.203125 41.140625 7.25 
Q 44.96875 8.296875 48.78125 10.40625 
L 48.78125 2.09375 
Q 45.015625 0.34375 40.984375 -0.53125 
Q 36.96875 -1.421875 32.421875 -1.421875 
Q 20.0625 -1.421875 12.78125 6.34375 
Q 5.515625 14.109375 5.515625 27.296875 
Q 5.515625 40.671875 12.859375 48.328125 
Q 20.21875 56 33.015625 56 
Q 37.15625 56 41.109375 55.140625 
Q 45.0625 54.296875 48.78125 52.59375 
z
" id="DejaVuSans-99"/>
      <path d="M 45.40625 46.390625 
L 45.40625 75.984375 
L 54.390625 75.984375 
L 54.390625 0 
L 45.40625 0 
L 45.40625 8.203125 
Q 42.578125 3.328125 38.25 0.953125 
Q 33.9375 -1.421875 27.875 -1.421875 
Q 17.96875 -1.421875 11.734375 6.484375 
Q 5.515625 14.40625 5.515625 27.296875 
Q 5.515625 40.1875 11.734375 48.09375 
Q 17.96875 56 27.875 56 
Q 33.9375 56 38.25 53.625 
Q 42.578125 51.265625 45.40625 46.390625 
z
M 14.796875 27.296875 
Q 14.796875 17.390625 18.875 11.75 
Q 22.953125 6.109375 30.078125 6.109375 
Q 37.203125 6.109375 41.296875 11.75 
Q 45.40625 17.390625 45.40625 27.296875 
Q 45.40625 37.203125 41.296875 42.84375 
Q 37.203125 48.484375 30.078125 48.484375 
Q 22.953125 48.484375 18.875 42.84375 
Q 14.796875 37.203125 14.796875 27.296875 
z
" id="DejaVuSans-100"/>
      <path d="M 10.6875 12.40625 
L 21 12.40625 
L 21 0 
L 10.6875 0 
z
" id="DejaVuSans-46"/>
     </defs>
     <use xlink:href="#DejaVuSans-87"/>
     <use x="98.876953" xlink:href="#DejaVuSans-49"/>
     <use x="162.5" xlink:href="#DejaVuSans-48"/>
     <use x="226.123047" xlink:href="#DejaVuSans-95"/>
     <use x="276.123047" xlink:href="#DejaVuSans-95"/>
     <use x="326.123047" xlink:href="#DejaVuSans-72"/>
     <use x="401.318359" xlink:href="#DejaVuSans-53"/>
     <use x="464.941406" xlink:href="#DejaVuSans-48"/>
     <use x="528.564453" xlink:href="#DejaVuSans-95"/>
     <use x="578.564453" xlink:href="#DejaVuSans-95"/>
     <use x="628.564453" xlink:href="#DejaVuSans-65"/>
     <use x="696.972656" xlink:href="#DejaVuSans-48"/>
     <use x="760.595703" xlink:href="#DejaVuSans-52"/>
     <use x="824.21875" xlink:href="#DejaVuSans-48"/>
     <use x="887.841797" xlink:href="#DejaVuSans-95"/>
     <use x="937.841797" xlink:href="#DejaVuSans-98"/>
     <use x="1001.318359" xlink:href="#DejaVuSans-97"/>
     <use x="1062.597656" xlink:href="#DejaVuSans-114"/>
     <use x="1103.710938" xlink:href="#DejaVuSans-115"/>
     <use x="1155.810547" xlink:href="#DejaVuSans-95"/>
     <use x="1205.810547" xlink:href="#DejaVuSans-101"/>
     <use x="1265.583984" xlink:href="#DejaVuSans-120"/>
     <use x="1324.763672" xlink:href="#DejaVuSans-116"/>
     <use x="1363.972656" xlink:href="#DejaVuSans-114"/>
     <use x="1405.085938" xlink:href="#DejaVuSans-97"/>
     <use x="1466.365234" xlink:href="#DejaVuSans-99"/>
     <use x="1521.345703" xlink:href="#DejaVuSans-116"/>
     <use x="1560.554688" xlink:href="#DejaVuSans-101"/>
     <use x="1622.078125" xlink:href="#DejaVuSans-100"/>
     <use x="1685.554688" xlink:href="#DejaVuSans-46"/>
     <use x="1717.341797" xlink:href="#DejaVuSans-116"/>
     <use x="1756.550781" xlink:href="#DejaVuSans-120"/>
     <use x="1815.730469" xlink:href="#DejaVuSans-116"/>
    </g>
   </g>
  </g>
 </g>
 <defs>
  <clipPath id="p7a94ad6989">
   <rect height="217.44" width="217.44" x="112.68" y="34.56"/>
  </clipPath>
 </defs>
</svg>
