<?xml version="1.0" encoding="utf-8" standalone="no"?>
<!DOCTYPE svg PUBLIC "-//W3C//DTD SVG 1.1//EN"
  "http://www.w3.org/Graphics/SVG/1.1/DTD/svg11.dtd">
<!-- Created with matplotlib (https://matplotlib.org/) -->
<svg height="288pt" version="1.1" viewBox="0 0 432 288" width="432pt" xmlns="http://www.w3.org/2000/svg" xmlns:xlink="http://www.w3.org/1999/xlink">
 <metadata>
  <rdf:RDF xmlns:cc="http://creativecommons.org/ns#" xmlns:dc="http://purl.org/dc/elements/1.1/" xmlns:rdf="http://www.w3.org/1999/02/22-rdf-syntax-ns#">
   <cc:Work>
    <dc:type rdf:resource="http://purl.org/dc/dcmitype/StillImage"/>
    <dc:date>2021-06-13T21:56:18.499329</dc:date>
    <dc:format>image/svg+xml</dc:format>
    <dc:creator>
     <cc:Agent>
      <dc:title>Matplotlib v3.3.4, https://matplotlib.org/</dc:title>
     </cc:Agent>
    </dc:creator>
   </cc:Work>
  </rdf:RDF>
 </metadata>
 <defs>
  <style type="text/css">*{stroke-linecap:butt;stroke-linejoin:round;}</style>
 </defs>
 <g id="figure_1">
  <g id="patch_1">
   <path d="M 0 288 
L 432 288 
L 432 0 
L 0 0 
z
" style="fill:#ffffff;"/>
  </g>
  <g id="patch_2">
   <path d="M 112.68 252 
L 330.12 252 
L 330.12 34.56 
L 112.68 34.56 
z
" style="fill:#ffffff;"/>
  </g>
  <g id="pane3d_1">
   <g id="patch_3">
    <path d="M 129.09822 198.386264 
L 200.904009 138.197228 
L 199.90584 51.393878 
L 124.663773 106.302111 
" style="fill:#f2f2f2;opacity:0.5;stroke:#f2f2f2;stroke-linejoin:miter;"/>
   </g>
  </g>
  <g id="pane3d_2">
   <g id="patch_4">
    <path d="M 200.904009 138.197228 
L 316.12668 171.68791 
L 320.238571 81.894718 
L 199.90584 51.393878 
" style="fill:#e6e6e6;opacity:0.5;stroke:#e6e6e6;stroke-linejoin:miter;"/>
   </g>
  </g>
  <g id="pane3d_3">
   <g id="patch_5">
    <path d="M 129.09822 198.386264 
L 251.239879 238.27773 
L 316.12668 171.68791 
L 200.904009 138.197228 
" style="fill:#ececec;opacity:0.5;stroke:#ececec;stroke-linejoin:miter;"/>
   </g>
  </g>
  <g id="axis3d_1">
   <g id="line2d_1">
    <path d="M 129.09822 198.386264 
L 251.239879 238.27773 
" style="fill:none;stroke:#000000;stroke-linecap:square;stroke-width:0.8;"/>
   </g>
   <g id="Line3DCollection_1">
    <path d="M 136.495759 200.802301 
L 207.911499 140.234029 
L 207.209612 53.245171 
" style="fill:none;stroke:#b0b0b0;stroke-width:0.8;"/>
    <path d="M 162.23134 209.207541 
L 232.260894 147.311436 
L 232.60309 59.681678 
" style="fill:none;stroke:#b0b0b0;stroke-width:0.8;"/>
    <path d="M 188.559037 217.806167 
L 257.123632 154.538053 
L 258.555303 66.259807 
" style="fill:none;stroke:#b0b0b0;stroke-width:0.8;"/>
    <path d="M 215.499525 226.604931 
L 282.516121 161.918647 
L 285.084894 72.984285 
" style="fill:none;stroke:#b0b0b0;stroke-width:0.8;"/>
    <path d="M 243.074449 235.610901 
L 308.455474 169.458193 
L 312.21135 79.860051 
" style="fill:none;stroke:#b0b0b0;stroke-width:0.8;"/>
   </g>
   <g id="xtick_1">
    <g id="line2d_2">
     <path d="M 137.117644 200.274876 
L 135.249322 201.859414 
" style="fill:none;stroke:#000000;stroke-linecap:square;stroke-width:0.8;"/>
    </g>
    <g id="text_1">
     <!-- 0 -->
     <g transform="translate(125.77919 224.124533)scale(0.1 -0.1)">
      <defs>
       <path d="M 31.78125 66.40625 
Q 24.171875 66.40625 20.328125 58.90625 
Q 16.5 51.421875 16.5 36.375 
Q 16.5 21.390625 20.328125 13.890625 
Q 24.171875 6.390625 31.78125 6.390625 
Q 39.453125 6.390625 43.28125 13.890625 
Q 47.125 21.390625 47.125 36.375 
Q 47.125 51.421875 43.28125 58.90625 
Q 39.453125 66.40625 31.78125 66.40625 
z
M 31.78125 74.21875 
Q 44.046875 74.21875 50.515625 64.515625 
Q 56.984375 54.828125 56.984375 36.375 
Q 56.984375 17.96875 50.515625 8.265625 
Q 44.046875 -1.421875 31.78125 -1.421875 
Q 19.53125 -1.421875 13.0625 8.265625 
Q 6.59375 17.96875 6.59375 36.375 
Q 6.59375 54.828125 13.0625 64.515625 
Q 19.53125 74.21875 31.78125 74.21875 
z
" id="DejaVuSans-48"/>
      </defs>
      <use xlink:href="#DejaVuSans-48"/>
     </g>
    </g>
   </g>
   <g id="xtick_2">
    <g id="line2d_3">
     <path d="M 162.841716 208.668056 
L 161.007937 210.288854 
" style="fill:none;stroke:#000000;stroke-linecap:square;stroke-width:0.8;"/>
    </g>
    <g id="text_2">
     <!-- 2 -->
     <g transform="translate(151.547192 232.748132)scale(0.1 -0.1)">
      <defs>
       <path d="M 19.1875 8.296875 
L 53.609375 8.296875 
L 53.609375 0 
L 7.328125 0 
L 7.328125 8.296875 
Q 12.9375 14.109375 22.625 23.890625 
Q 32.328125 33.6875 34.8125 36.53125 
Q 39.546875 41.84375 41.421875 45.53125 
Q 43.3125 49.21875 43.3125 52.78125 
Q 43.3125 58.59375 39.234375 62.25 
Q 35.15625 65.921875 28.609375 65.921875 
Q 23.96875 65.921875 18.8125 64.3125 
Q 13.671875 62.703125 7.8125 59.421875 
L 7.8125 69.390625 
Q 13.765625 71.78125 18.9375 73 
Q 24.125 74.21875 28.421875 74.21875 
Q 39.75 74.21875 46.484375 68.546875 
Q 53.21875 62.890625 53.21875 53.421875 
Q 53.21875 48.921875 51.53125 44.890625 
Q 49.859375 40.875 45.40625 35.40625 
Q 44.1875 33.984375 37.640625 27.21875 
Q 31.109375 20.453125 19.1875 8.296875 
z
" id="DejaVuSans-50"/>
      </defs>
      <use xlink:href="#DejaVuSans-50"/>
     </g>
    </g>
   </g>
   <g id="xtick_3">
    <g id="line2d_4">
     <path d="M 189.15721 217.254202 
L 187.360066 218.91252 
" style="fill:none;stroke:#000000;stroke-linecap:square;stroke-width:0.8;"/>
    </g>
    <g id="text_3">
     <!-- 4 -->
     <g transform="translate(177.91082 241.571064)scale(0.1 -0.1)">
      <defs>
       <path d="M 37.796875 64.3125 
L 12.890625 25.390625 
L 37.796875 25.390625 
z
M 35.203125 72.90625 
L 47.609375 72.90625 
L 47.609375 25.390625 
L 58.015625 25.390625 
L 58.015625 17.1875 
L 47.609375 17.1875 
L 47.609375 0 
L 37.796875 0 
L 37.796875 17.1875 
L 4.890625 17.1875 
L 4.890625 26.703125 
z
" id="DejaVuSans-52"/>
      </defs>
      <use xlink:href="#DejaVuSans-52"/>
     </g>
    </g>
   </g>
   <g id="xtick_4">
    <g id="line2d_5">
     <path d="M 216.084757 226.040048 
L 214.326462 227.737204 
" style="fill:none;stroke:#000000;stroke-linecap:square;stroke-width:0.8;"/>
    </g>
    <g id="text_4">
     <!-- 6 -->
     <g transform="translate(204.890965 250.600322)scale(0.1 -0.1)">
      <defs>
       <path d="M 33.015625 40.375 
Q 26.375 40.375 22.484375 35.828125 
Q 18.609375 31.296875 18.609375 23.390625 
Q 18.609375 15.53125 22.484375 10.953125 
Q 26.375 6.390625 33.015625 6.390625 
Q 39.65625 6.390625 43.53125 10.953125 
Q 47.40625 15.53125 47.40625 23.390625 
Q 47.40625 31.296875 43.53125 35.828125 
Q 39.65625 40.375 33.015625 40.375 
z
M 52.59375 71.296875 
L 52.59375 62.3125 
Q 48.875 64.0625 45.09375 64.984375 
Q 41.3125 65.921875 37.59375 65.921875 
Q 27.828125 65.921875 22.671875 59.328125 
Q 17.53125 52.734375 16.796875 39.40625 
Q 19.671875 43.65625 24.015625 45.921875 
Q 28.375 48.1875 33.59375 48.1875 
Q 44.578125 48.1875 50.953125 41.515625 
Q 57.328125 34.859375 57.328125 23.390625 
Q 57.328125 12.15625 50.6875 5.359375 
Q 44.046875 -1.421875 33.015625 -1.421875 
Q 20.359375 -1.421875 13.671875 8.265625 
Q 6.984375 17.96875 6.984375 36.375 
Q 6.984375 53.65625 15.1875 63.9375 
Q 23.390625 74.21875 37.203125 74.21875 
Q 40.921875 74.21875 44.703125 73.484375 
Q 48.484375 72.75 52.59375 71.296875 
z
" id="DejaVuSans-54"/>
      </defs>
      <use xlink:href="#DejaVuSans-54"/>
     </g>
    </g>
   </g>
   <g id="xtick_5">
    <g id="line2d_6">
     <path d="M 243.645962 235.032643 
L 241.928856 236.770015 
" style="fill:none;stroke:#000000;stroke-linecap:square;stroke-width:0.8;"/>
    </g>
    <g id="text_5">
     <!-- 8 -->
     <g transform="translate(232.509511 259.84323)scale(0.1 -0.1)">
      <defs>
       <path d="M 31.78125 34.625 
Q 24.75 34.625 20.71875 30.859375 
Q 16.703125 27.09375 16.703125 20.515625 
Q 16.703125 13.921875 20.71875 10.15625 
Q 24.75 6.390625 31.78125 6.390625 
Q 38.8125 6.390625 42.859375 10.171875 
Q 46.921875 13.96875 46.921875 20.515625 
Q 46.921875 27.09375 42.890625 30.859375 
Q 38.875 34.625 31.78125 34.625 
z
M 21.921875 38.8125 
Q 15.578125 40.375 12.03125 44.71875 
Q 8.5 49.078125 8.5 55.328125 
Q 8.5 64.0625 14.71875 69.140625 
Q 20.953125 74.21875 31.78125 74.21875 
Q 42.671875 74.21875 48.875 69.140625 
Q 55.078125 64.0625 55.078125 55.328125 
Q 55.078125 49.078125 51.53125 44.71875 
Q 48 40.375 41.703125 38.8125 
Q 48.828125 37.15625 52.796875 32.3125 
Q 56.78125 27.484375 56.78125 20.515625 
Q 56.78125 9.90625 50.3125 4.234375 
Q 43.84375 -1.421875 31.78125 -1.421875 
Q 19.734375 -1.421875 13.25 4.234375 
Q 6.78125 9.90625 6.78125 20.515625 
Q 6.78125 27.484375 10.78125 32.3125 
Q 14.796875 37.15625 21.921875 38.8125 
z
M 18.3125 54.390625 
Q 18.3125 48.734375 21.84375 45.5625 
Q 25.390625 42.390625 31.78125 42.390625 
Q 38.140625 42.390625 41.71875 45.5625 
Q 45.3125 48.734375 45.3125 54.390625 
Q 45.3125 60.0625 41.71875 63.234375 
Q 38.140625 66.40625 31.78125 66.40625 
Q 25.390625 66.40625 21.84375 63.234375 
Q 18.3125 60.0625 18.3125 54.390625 
z
" id="DejaVuSans-56"/>
      </defs>
      <use xlink:href="#DejaVuSans-56"/>
     </g>
    </g>
   </g>
  </g>
  <g id="axis3d_2">
   <g id="line2d_7">
    <path d="M 316.12668 171.68791 
L 251.239879 238.27773 
" style="fill:none;stroke:#000000;stroke-linecap:square;stroke-width:0.8;"/>
   </g>
   <g id="Line3DCollection_2">
    <path d="M 129.866948 102.505071 
L 134.046245 194.238731 
L 255.729543 233.67023 
" style="fill:none;stroke:#b0b0b0;stroke-width:0.8;"/>
    <path d="M 147.250212 89.819556 
L 150.59591 180.366474 
L 270.72626 218.279909 
" style="fill:none;stroke:#b0b0b0;stroke-width:0.8;"/>
    <path d="M 163.958537 77.626582 
L 166.530371 167.009893 
L 285.136664 203.491289 
" style="fill:none;stroke:#b0b0b0;stroke-width:0.8;"/>
    <path d="M 180.030483 65.898008 
L 181.883306 154.140758 
L 298.994481 189.269761 
" style="fill:none;stroke:#b0b0b0;stroke-width:0.8;"/>
    <path d="M 195.501727 54.607799 
L 196.68598 141.732864 
L 312.330896 175.583317 
" style="fill:none;stroke:#b0b0b0;stroke-width:0.8;"/>
   </g>
   <g id="xtick_6">
    <g id="line2d_8">
     <path d="M 254.704115 233.337939 
L 257.783053 234.33567 
" style="fill:none;stroke:#000000;stroke-linecap:square;stroke-width:0.8;"/>
    </g>
    <g id="text_6">
     <!-- 0 -->
     <g transform="translate(265.430654 254.693759)scale(0.1 -0.1)">
      <use xlink:href="#DejaVuSans-48"/>
     </g>
    </g>
   </g>
   <g id="xtick_7">
    <g id="line2d_9">
     <path d="M 269.71494 217.960734 
L 272.751463 218.919068 
" style="fill:none;stroke:#000000;stroke-linecap:square;stroke-width:0.8;"/>
    </g>
    <g id="text_7">
     <!-- 2 -->
     <g transform="translate(280.181112 239.024526)scale(0.1 -0.1)">
      <use xlink:href="#DejaVuSans-50"/>
     </g>
    </g>
   </g>
   <g id="xtick_8">
    <g id="line2d_10">
     <path d="M 284.139145 203.184468 
L 287.134182 204.105694 
" style="fill:none;stroke:#000000;stroke-linecap:square;stroke-width:0.8;"/>
    </g>
    <g id="text_8">
     <!-- 4 -->
     <g transform="translate(294.35448 223.968328)scale(0.1 -0.1)">
      <use xlink:href="#DejaVuSans-52"/>
     </g>
    </g>
   </g>
   <g id="xtick_9">
    <g id="line2d_11">
     <path d="M 298.010457 188.97459 
L 300.964927 189.860821 
" style="fill:none;stroke:#000000;stroke-linecap:square;stroke-width:0.8;"/>
    </g>
    <g id="text_9">
     <!-- 6 -->
     <g transform="translate(307.983974 209.489882)scale(0.1 -0.1)">
      <use xlink:href="#DejaVuSans-54"/>
     </g>
    </g>
   </g>
   <g id="xtick_10">
    <g id="line2d_12">
     <path d="M 311.360068 175.299146 
L 314.274875 176.15234 
" style="fill:none;stroke:#000000;stroke-linecap:square;stroke-width:0.8;"/>
    </g>
    <g id="text_10">
     <!-- 8 -->
     <g transform="translate(321.10031 195.556556)scale(0.1 -0.1)">
      <use xlink:href="#DejaVuSans-56"/>
     </g>
    </g>
   </g>
  </g>
  <g id="axis3d_3">
   <g id="line2d_13">
    <path d="M 316.12668 171.68791 
L 320.238571 81.894718 
" style="fill:none;stroke:#000000;stroke-linecap:square;stroke-width:0.8;"/>
   </g>
   <g id="Line3DCollection_3">
    <path d="M 316.205459 169.967571 
L 200.884845 136.530725 
L 129.013401 196.624949 
" style="fill:none;stroke:#b0b0b0;stroke-width:0.8;"/>
    <path d="M 316.828807 156.355251 
L 200.733268 123.349135 
L 128.342073 182.684385 
" style="fill:none;stroke:#b0b0b0;stroke-width:0.8;"/>
    <path d="M 317.460672 142.55694 
L 200.579718 109.996054 
L 127.661222 168.546074 
" style="fill:none;stroke:#b0b0b0;stroke-width:0.8;"/>
    <path d="M 318.101229 128.568802 
L 200.424157 96.468114 
L 126.970644 154.20578 
" style="fill:none;stroke:#b0b0b0;stroke-width:0.8;"/>
    <path d="M 318.75066 114.386891 
L 200.266546 82.761858 
L 126.270129 139.659143 
" style="fill:none;stroke:#b0b0b0;stroke-width:0.8;"/>
    <path d="M 319.40915 100.007153 
L 200.106844 68.873735 
L 125.559462 124.901676 
" style="fill:none;stroke:#b0b0b0;stroke-width:0.8;"/>
    <path d="M 320.07689 85.42542 
L 199.945008 54.800103 
L 124.83842 109.928764 
" style="fill:none;stroke:#b0b0b0;stroke-width:0.8;"/>
   </g>
   <g id="xtick_11">
    <g id="line2d_14">
     <path d="M 315.237563 169.686933 
L 318.143556 170.529516 
" style="fill:none;stroke:#000000;stroke-linecap:square;stroke-width:0.8;"/>
    </g>
    <g id="text_11">
     <!-- 0 -->
     <g transform="translate(331.275915 174.966846)scale(0.1 -0.1)">
      <use xlink:href="#DejaVuSans-48"/>
     </g>
    </g>
   </g>
   <g id="xtick_12">
    <g id="line2d_15">
     <path d="M 315.854097 156.078139 
L 318.780563 156.910138 
" style="fill:none;stroke:#000000;stroke-linecap:square;stroke-width:0.8;"/>
    </g>
    <g id="text_12">
     <!-- 10000 -->
     <g transform="translate(319.295346 161.38725)scale(0.1 -0.1)">
      <defs>
       <path d="M 12.40625 8.296875 
L 28.515625 8.296875 
L 28.515625 63.921875 
L 10.984375 60.40625 
L 10.984375 69.390625 
L 28.421875 72.90625 
L 38.28125 72.90625 
L 38.28125 8.296875 
L 54.390625 8.296875 
L 54.390625 0 
L 12.40625 0 
z
" id="DejaVuSans-49"/>
      </defs>
      <use xlink:href="#DejaVuSans-49"/>
      <use x="63.623047" xlink:href="#DejaVuSans-48"/>
      <use x="127.246094" xlink:href="#DejaVuSans-48"/>
      <use x="190.869141" xlink:href="#DejaVuSans-48"/>
      <use x="254.492188" xlink:href="#DejaVuSans-48"/>
     </g>
    </g>
   </g>
   <g id="xtick_13">
    <g id="line2d_16">
     <path d="M 316.479052 142.283479 
L 319.42628 143.104523 
" style="fill:none;stroke:#000000;stroke-linecap:square;stroke-width:0.8;"/>
    </g>
    <g id="text_13">
     <!-- 20000 -->
     <g transform="translate(320.04991 147.622801)scale(0.1 -0.1)">
      <use xlink:href="#DejaVuSans-50"/>
      <use x="63.623047" xlink:href="#DejaVuSans-48"/>
      <use x="127.246094" xlink:href="#DejaVuSans-48"/>
      <use x="190.869141" xlink:href="#DejaVuSans-48"/>
      <use x="254.492188" xlink:href="#DejaVuSans-48"/>
     </g>
    </g>
   </g>
   <g id="xtick_14">
    <g id="line2d_17">
     <path d="M 317.112601 128.299118 
L 320.080888 129.108826 
" style="fill:none;stroke:#000000;stroke-linecap:square;stroke-width:0.8;"/>
    </g>
    <g id="text_14">
     <!-- 30000 -->
     <g transform="translate(320.814816 133.669699)scale(0.1 -0.1)">
      <defs>
       <path d="M 40.578125 39.3125 
Q 47.65625 37.796875 51.625 33 
Q 55.609375 28.21875 55.609375 21.1875 
Q 55.609375 10.40625 48.1875 4.484375 
Q 40.765625 -1.421875 27.09375 -1.421875 
Q 22.515625 -1.421875 17.65625 -0.515625 
Q 12.796875 0.390625 7.625 2.203125 
L 7.625 11.71875 
Q 11.71875 9.328125 16.59375 8.109375 
Q 21.484375 6.890625 26.8125 6.890625 
Q 36.078125 6.890625 40.9375 10.546875 
Q 45.796875 14.203125 45.796875 21.1875 
Q 45.796875 27.640625 41.28125 31.265625 
Q 36.765625 34.90625 28.71875 34.90625 
L 20.21875 34.90625 
L 20.21875 43.015625 
L 29.109375 43.015625 
Q 36.375 43.015625 40.234375 45.921875 
Q 44.09375 48.828125 44.09375 54.296875 
Q 44.09375 59.90625 40.109375 62.90625 
Q 36.140625 65.921875 28.71875 65.921875 
Q 24.65625 65.921875 20.015625 65.03125 
Q 15.375 64.15625 9.8125 62.3125 
L 9.8125 71.09375 
Q 15.4375 72.65625 20.34375 73.4375 
Q 25.25 74.21875 29.59375 74.21875 
Q 40.828125 74.21875 47.359375 69.109375 
Q 53.90625 64.015625 53.90625 55.328125 
Q 53.90625 49.265625 50.4375 45.09375 
Q 46.96875 40.921875 40.578125 39.3125 
z
" id="DejaVuSans-51"/>
      </defs>
      <use xlink:href="#DejaVuSans-51"/>
      <use x="63.623047" xlink:href="#DejaVuSans-48"/>
      <use x="127.246094" xlink:href="#DejaVuSans-48"/>
      <use x="190.869141" xlink:href="#DejaVuSans-48"/>
      <use x="254.492188" xlink:href="#DejaVuSans-48"/>
     </g>
    </g>
   </g>
   <g id="xtick_15">
    <g id="line2d_18">
     <path d="M 317.754922 114.121115 
L 320.744572 114.919093 
" style="fill:none;stroke:#000000;stroke-linecap:square;stroke-width:0.8;"/>
    </g>
    <g id="text_15">
     <!-- 40000 -->
     <g transform="translate(321.590278 119.524039)scale(0.1 -0.1)">
      <use xlink:href="#DejaVuSans-52"/>
      <use x="63.623047" xlink:href="#DejaVuSans-48"/>
      <use x="127.246094" xlink:href="#DejaVuSans-48"/>
      <use x="190.869141" xlink:href="#DejaVuSans-48"/>
      <use x="254.492188" xlink:href="#DejaVuSans-48"/>
     </g>
    </g>
   </g>
   <g id="xtick_16">
    <g id="line2d_19">
     <path d="M 318.4062 99.745421 
L 321.417521 100.531262 
" style="fill:none;stroke:#000000;stroke-linecap:square;stroke-width:0.8;"/>
    </g>
    <g id="text_16">
     <!-- 50000 -->
     <g transform="translate(322.376516 105.181807)scale(0.1 -0.1)">
      <defs>
       <path d="M 10.796875 72.90625 
L 49.515625 72.90625 
L 49.515625 64.59375 
L 19.828125 64.59375 
L 19.828125 46.734375 
Q 21.96875 47.46875 24.109375 47.828125 
Q 26.265625 48.1875 28.421875 48.1875 
Q 40.625 48.1875 47.75 41.5 
Q 54.890625 34.8125 54.890625 23.390625 
Q 54.890625 11.625 47.5625 5.09375 
Q 40.234375 -1.421875 26.90625 -1.421875 
Q 22.3125 -1.421875 17.546875 -0.640625 
Q 12.796875 0.140625 7.71875 1.703125 
L 7.71875 11.625 
Q 12.109375 9.234375 16.796875 8.0625 
Q 21.484375 6.890625 26.703125 6.890625 
Q 35.15625 6.890625 40.078125 11.328125 
Q 45.015625 15.765625 45.015625 23.390625 
Q 45.015625 31 40.078125 35.4375 
Q 35.15625 39.890625 26.703125 39.890625 
Q 22.75 39.890625 18.8125 39.015625 
Q 14.890625 38.140625 10.796875 36.28125 
z
" id="DejaVuSans-53"/>
      </defs>
      <use xlink:href="#DejaVuSans-53"/>
      <use x="63.623047" xlink:href="#DejaVuSans-48"/>
      <use x="127.246094" xlink:href="#DejaVuSans-48"/>
      <use x="190.869141" xlink:href="#DejaVuSans-48"/>
      <use x="254.492188" xlink:href="#DejaVuSans-48"/>
     </g>
    </g>
   </g>
   <g id="xtick_17">
    <g id="line2d_20">
     <path d="M 319.066623 85.167872 
L 322.09993 85.941155 
" style="fill:none;stroke:#000000;stroke-linecap:square;stroke-width:0.8;"/>
    </g>
    <g id="text_17">
     <!-- 60000 -->
     <g transform="translate(323.173757 90.638877)scale(0.1 -0.1)">
      <use xlink:href="#DejaVuSans-54"/>
      <use x="63.623047" xlink:href="#DejaVuSans-48"/>
      <use x="127.246094" xlink:href="#DejaVuSans-48"/>
      <use x="190.869141" xlink:href="#DejaVuSans-48"/>
      <use x="254.492188" xlink:href="#DejaVuSans-48"/>
     </g>
    </g>
   </g>
  </g>
  <g id="axes_1">
   <g id="Poly3DCollection_1">
    <path clip-path="url(#p8900a6744f)" d="M 203.700438 142.115361 
L 203.698305 141.905155 
L 215.863021 145.456076 
L 215.863902 145.66701 
z
" style="fill:#050338;"/>
    <path clip-path="url(#p8900a6744f)" d="M 196.401162 148.290596 
L 196.398248 148.079126 
L 203.698305 141.905155 
L 203.700438 142.115361 
z
" style="fill:#0b0777;"/>
    <path clip-path="url(#p8900a6744f)" d="M 196.401162 148.290596 
L 203.700438 142.115361 
L 215.863902 145.66701 
L 208.637156 151.907182 
z
" style="fill:#070448;"/>
    <path clip-path="url(#p8900a6744f)" d="M 196.398248 148.079126 
L 208.63551 151.694977 
L 215.863021 145.456076 
L 203.698305 141.905155 
z
" style="fill:#0a0667;"/>
    <path clip-path="url(#p8900a6744f)" d="M 215.863902 145.66701 
L 215.861935 145.195844 
L 228.155915 148.783133 
L 228.155024 149.255935 
z
" style="fill:#070339;"/>
    <path clip-path="url(#p8900a6744f)" d="M 208.637156 151.907182 
L 215.863902 145.66701 
L 215.863021 145.456076 
L 208.63551 151.694977 
z
" style="fill:#050338;"/>
    <path clip-path="url(#p8900a6744f)" d="M 208.637156 151.907182 
L 208.633479 151.433177 
L 215.861935 145.195844 
L 215.863902 145.66701 
z
" style="fill:#0e0678;"/>
    <path clip-path="url(#p8900a6744f)" d="M 196.401162 148.290596 
L 208.637156 151.907182 
L 208.63551 151.694977 
L 196.398248 148.079126 
z
" style="fill:#0b0777;"/>
    <path clip-path="url(#p8900a6744f)" d="M 196.401162 148.290596 
L 196.396217 147.931698 
L 208.634363 151.547036 
L 208.637156 151.907182 
z
" style="fill:#050338;"/>
    <path clip-path="url(#p8900a6744f)" d="M 208.637156 151.907182 
L 215.863902 145.66701 
L 228.155024 149.255935 
L 221.002748 155.562072 
z
" style="fill:#090449;"/>
    <path clip-path="url(#p8900a6744f)" d="M 208.633479 151.433177 
L 221.001963 155.086417 
L 228.155915 148.783133 
L 215.861935 145.195844 
z
" style="fill:#0c0668;"/>
    <path clip-path="url(#p8900a6744f)" d="M 228.155024 149.255935 
L 228.156046 148.713245 
L 240.580196 152.338147 
L 240.575825 152.882725 
z
" style="fill:#070339;"/>
    <path clip-path="url(#p8900a6744f)" d="M 188.96817 154.578956 
L 188.961853 154.217893 
L 196.396217 147.931698 
L 196.401162 148.290596 
z
" style="fill:#0b0777;"/>
    <path clip-path="url(#p8900a6744f)" d="M 221.002748 155.562072 
L 228.155024 149.255935 
L 228.155915 148.783133 
L 221.001963 155.086417 
z
" style="fill:#070339;"/>
    <path clip-path="url(#p8900a6744f)" d="M 221.002748 155.562072 
L 221.001847 155.016107 
L 228.156046 148.713245 
L 228.155024 149.255935 
z
" style="fill:#0e0678;"/>
    <path clip-path="url(#p8900a6744f)" d="M 188.96817 154.578956 
L 196.401162 148.290596 
L 208.637156 151.907182 
L 201.27732 158.262275 
z
" style="fill:#070448;"/>
    <path clip-path="url(#p8900a6744f)" d="M 188.961853 154.217893 
L 201.273179 157.899954 
L 208.634363 151.547036 
L 196.396217 147.931698 
z
" style="fill:#0a0667;"/>
    <path clip-path="url(#p8900a6744f)" d="M 208.637156 151.907182 
L 221.002748 155.562072 
L 221.001963 155.086417 
L 208.633479 151.433177 
z
" style="fill:#0e0678;"/>
    <path clip-path="url(#p8900a6744f)" d="M 208.637156 151.907182 
L 208.631643 151.196422 
L 221.001571 154.848838 
L 221.002748 155.562072 
z
" style="fill:#080339;"/>
    <path clip-path="url(#p8900a6744f)" d="M 221.002748 155.562072 
L 228.155024 149.255935 
L 240.575825 152.882725 
L 233.500008 159.25588 
z
" style="fill:#090449;"/>
    <path clip-path="url(#p8900a6744f)" d="M 221.001847 155.016107 
L 233.502496 158.70801 
L 240.580196 152.338147 
L 228.156046 148.713245 
z
" style="fill:#0c0668;"/>
    <path clip-path="url(#p8900a6744f)" d="M 240.575825 152.882725 
L 240.585154 151.72038 
L 253.144996 155.381586 
L 253.128369 156.547983 
z
" style="fill:#09033a;"/>
    <path clip-path="url(#p8900a6744f)" d="M 201.27732 158.262275 
L 208.637156 151.907182 
L 208.634363 151.547036 
L 201.273179 157.899954 
z
" style="fill:#050338;"/>
    <path clip-path="url(#p8900a6744f)" d="M 201.27732 158.262275 
L 201.269148 157.54722 
L 208.631643 151.196422 
L 208.637156 151.907182 
z
" style="fill:#110679;"/>
    <path clip-path="url(#p8900a6744f)" d="M 233.500008 159.25588 
L 240.575825 152.882725 
L 240.580196 152.338147 
L 233.502496 158.70801 
z
" style="fill:#070339;"/>
    <path clip-path="url(#p8900a6744f)" d="M 233.500008 159.25588 
L 233.505319 158.086505 
L 240.585154 151.72038 
L 240.575825 152.882725 
z
" style="fill:#13067a;"/>
    <path clip-path="url(#p8900a6744f)" d="M 188.96817 154.578956 
L 201.27732 158.262275 
L 201.273179 157.899954 
L 188.961853 154.217893 
z
" style="fill:#0b0777;"/>
    <path clip-path="url(#p8900a6744f)" d="M 188.96817 154.578956 
L 188.955338 153.845519 
L 201.268908 157.526281 
L 201.27732 158.262275 
z
" style="fill:#080339;"/>
    <path clip-path="url(#p8900a6744f)" d="M 201.27732 158.262275 
L 208.637156 151.907182 
L 221.002748 155.562072 
L 213.718049 161.984967 
z
" style="fill:#0a0449;"/>
    <path clip-path="url(#p8900a6744f)" d="M 201.269148 157.54722 
L 213.714265 161.267415 
L 221.001571 154.848838 
L 208.631643 151.196422 
z
" style="fill:#0f0569;"/>
    <path clip-path="url(#p8900a6744f)" d="M 221.002748 155.562072 
L 233.500008 159.25588 
L 233.502496 158.70801 
L 221.001847 155.016107 
z
" style="fill:#0e0678;"/>
    <path clip-path="url(#p8900a6744f)" d="M 221.002748 155.562072 
L 221.000736 154.343094 
L 233.505564 158.032648 
L 233.500008 159.25588 
z
" style="fill:#09033a;"/>
    <path clip-path="url(#p8900a6744f)" d="M 181.397755 160.983577 
L 181.382031 160.245703 
L 188.955338 153.845519 
L 188.96817 154.578956 
z
" style="fill:#110679;"/>
    <path clip-path="url(#p8900a6744f)" d="M 233.500008 159.25588 
L 240.575825 152.882725 
L 253.128369 156.547983 
L 246.131049 162.989229 
z
" style="fill:#0c044a;"/>
    <path clip-path="url(#p8900a6744f)" d="M 233.505319 158.086505 
L 246.143752 161.815768 
L 253.144996 155.381586 
L 240.585154 151.72038 
z
" style="fill:#11056a;"/>
    <path clip-path="url(#p8900a6744f)" d="M 213.718049 161.984967 
L 221.002748 155.562072 
L 221.001571 154.848838 
L 213.714265 161.267415 
z
" style="fill:#080339;"/>
    <path clip-path="url(#p8900a6744f)" d="M 213.718049 161.984967 
L 213.711582 160.758608 
L 221.000736 154.343094 
L 221.002748 155.562072 
z
" style="fill:#13067a;"/>
    <path clip-path="url(#p8900a6744f)" d="M 181.397755 160.983577 
L 188.96817 154.578956 
L 201.27732 158.262275 
L 193.780682 164.735494 
z
" style="fill:#0a0449;"/>
    <path clip-path="url(#p8900a6744f)" d="M 181.382031 160.245703 
L 193.769433 163.99504 
L 201.268908 157.526281 
L 188.955338 153.845519 
z
" style="fill:#0f0569;"/>
    <path clip-path="url(#p8900a6744f)" d="M 253.128369 156.547983 
L 253.253465 147.772688 
L 265.995947 151.446221 
L 265.814761 160.252323 
z
" style="fill:#1c0142;"/>
    <path clip-path="url(#p8900a6744f)" d="M 246.131049 162.989229 
L 253.128369 156.547983 
L 253.144996 155.381586 
L 246.143752 161.815768 
z
" style="fill:#09033a;"/>
    <path clip-path="url(#p8900a6744f)" d="M 201.27732 158.262275 
L 213.718049 161.984967 
L 213.714265 161.267415 
L 201.269148 157.54722 
z
" style="fill:#110679;"/>
    <path clip-path="url(#p8900a6744f)" d="M 201.27732 158.262275 
L 201.263674 157.068228 
L 213.71173 160.786749 
L 213.718049 161.984967 
z
" style="fill:#09033a;"/>
    <path clip-path="url(#p8900a6744f)" d="M 213.718049 161.984967 
L 221.002748 155.562072 
L 233.500008 159.25588 
L 226.292478 165.747667 
z
" style="fill:#0c044a;"/>
    <path clip-path="url(#p8900a6744f)" d="M 213.711582 160.758608 
L 226.293674 164.517017 
L 233.505564 158.032648 
L 221.000736 154.343094 
z
" style="fill:#11056a;"/>
    <path clip-path="url(#p8900a6744f)" d="M 246.131049 162.989229 
L 246.226623 154.160473 
L 253.253465 147.772688 
L 253.128369 156.547983 
z
" style="fill:#3c038c;"/>
    <path clip-path="url(#p8900a6744f)" d="M 233.500008 159.25588 
L 246.131049 162.989229 
L 246.143752 161.815768 
L 233.505319 158.086505 
z
" style="fill:#13067a;"/>
    <path clip-path="url(#p8900a6744f)" d="M 193.780682 164.735494 
L 201.27732 158.262275 
L 201.268908 157.526281 
L 193.769433 163.99504 
z
" style="fill:#080339;"/>
    <path clip-path="url(#p8900a6744f)" d="M 246.131049 162.989229 
L 253.128369 156.547983 
L 265.814761 160.252323 
L 258.898031 166.762758 
z
" style="fill:#240254;"/>
    <path clip-path="url(#p8900a6744f)" d="M 193.780682 164.735494 
L 193.762431 163.534209 
L 201.263674 157.068228 
L 201.27732 158.262275 
z
" style="fill:#13067a;"/>
    <path clip-path="url(#p8900a6744f)" d="M 233.500008 159.25588 
L 233.534144 151.741055 
L 246.212685 155.448016 
L 246.131049 162.989229 
z
" style="fill:#1a0241;"/>
    <path clip-path="url(#p8900a6744f)" d="M 226.292478 165.747667 
L 233.500008 159.25588 
L 233.505564 158.032648 
L 226.293674 164.517017 
z
" style="fill:#09033a;"/>
    <path clip-path="url(#p8900a6744f)" d="M 181.397755 160.983577 
L 193.780682 164.735494 
L 193.769433 163.99504 
L 181.382031 160.245703 
z
" style="fill:#110679;"/>
    <path clip-path="url(#p8900a6744f)" d="M 181.397755 160.983577 
L 181.380419 160.170054 
L 193.768279 163.919126 
L 193.780682 164.735494 
z
" style="fill:#080339;"/>
    <path clip-path="url(#p8900a6744f)" d="M 193.780682 164.735494 
L 201.27732 158.262275 
L 213.718049 161.984967 
L 206.297214 168.527892 
z
" style="fill:#0c044a;"/>
    <path clip-path="url(#p8900a6744f)" d="M 193.762431 163.534209 
L 206.28638 167.322399 
L 213.71173 160.786749 
L 201.263674 157.068228 
z
" style="fill:#11056a;"/>
    <path clip-path="url(#p8900a6744f)" d="M 226.292478 165.747667 
L 226.299827 158.187051 
L 233.534144 151.741055 
L 233.500008 159.25588 
z
" style="fill:#360389;"/>
    <path clip-path="url(#p8900a6744f)" d="M 213.718049 161.984967 
L 226.292478 165.747667 
L 226.293674 164.517017 
L 213.711582 160.758608 
z
" style="fill:#13067a;"/>
    <path clip-path="url(#p8900a6744f)" d="M 265.814761 160.252323 
L 266.069566 147.86816 
L 278.972531 151.568547 
L 278.637155 163.996376 
z
" style="fill:#240144;"/>
    <path clip-path="url(#p8900a6744f)" d="M 226.292478 165.747667 
L 233.500008 159.25588 
L 246.131049 162.989229 
L 239.002775 169.551023 
z
" style="fill:#210253;"/>
    <path clip-path="url(#p8900a6744f)" d="M 173.686069 167.507715 
L 173.665429 166.689256 
L 181.380419 160.170054 
L 181.397755 160.983577 
z
" style="fill:#110679;"/>
    <path clip-path="url(#p8900a6744f)" d="M 213.718049 161.984967 
L 213.699122 158.395571 
L 226.295979 162.14569 
L 226.292478 165.747667 
z
" style="fill:#10023d;"/>
    <path clip-path="url(#p8900a6744f)" d="M 246.226623 154.160473 
L 259.050416 157.902922 
L 265.995947 151.446221 
L 253.253465 147.772688 
z
" style="fill:#340279;"/>
    <path clip-path="url(#p8900a6744f)" d="M 258.898031 166.762758 
L 265.814761 160.252323 
L 265.995947 151.446221 
L 259.050416 157.902922 
z
" style="fill:#1c0142;"/>
    <path clip-path="url(#p8900a6744f)" d="M 258.898031 166.762758 
L 265.814761 160.252323 
L 278.637155 163.996376 
L 271.803162 170.57712 
z
" style="fill:#2e0157;"/>
    <path clip-path="url(#p8900a6744f)" d="M 206.297214 168.527892 
L 213.718049 161.984967 
L 213.71173 160.786749 
L 206.28638 167.322399 
z
" style="fill:#09033a;"/>
    <path clip-path="url(#p8900a6744f)" d="M 258.898031 166.762758 
L 259.112335 154.302823 
L 266.069566 147.86816 
L 265.814761 160.252323 
z
" style="fill:#4c0191;"/>
    <path clip-path="url(#p8900a6744f)" d="M 206.297214 168.527892 
L 206.264761 164.916666 
L 213.699122 158.395571 
L 213.718049 161.984967 
z
" style="fill:#210581;"/>
    <path clip-path="url(#p8900a6744f)" d="M 173.686069 167.507715 
L 181.397755 160.983577 
L 193.780682 164.735494 
L 186.143392 171.330164 
z
" style="fill:#0a0449;"/>
    <path clip-path="url(#p8900a6744f)" d="M 246.131049 162.989229 
L 258.898031 166.762758 
L 259.050416 157.902922 
L 246.226623 154.160473 
z
" style="fill:#3c038c;"/>
    <path clip-path="url(#p8900a6744f)" d="M 173.665429 166.689256 
L 186.127744 170.508836 
L 193.768279 163.919126 
L 181.380419 160.170054 
z
" style="fill:#0f0569;"/>
    <path clip-path="url(#p8900a6744f)" d="M 278.637155 163.996376 
L 278.731196 160.511556 
L 291.714865 164.283739 
L 291.597749 167.780781 
z
" style="fill:#10023d;"/>
    <path clip-path="url(#p8900a6744f)" d="M 193.780682 164.735494 
L 206.297214 168.527892 
L 206.28638 167.322399 
L 193.762431 163.534209 
z
" style="fill:#13067a;"/>
    <path clip-path="url(#p8900a6744f)" d="M 226.299827 158.187051 
L 239.058224 161.963788 
L 246.212685 155.448016 
L 233.534144 151.741055 
z
" style="fill:#2f0377;"/>
    <path clip-path="url(#p8900a6744f)" d="M 193.780682 164.735494 
L 193.742232 162.204608 
L 206.27439 165.988132 
L 206.297214 168.527892 
z
" style="fill:#0d023b;"/>
    <path clip-path="url(#p8900a6744f)" d="M 206.297214 168.527892 
L 213.718049 161.984967 
L 226.292478 165.747667 
L 218.949524 172.361429 
z
" style="fill:#14034e;"/>
    <path clip-path="url(#p8900a6744f)" d="M 239.002775 169.551023 
L 246.131049 162.989229 
L 246.212685 155.448016 
L 239.058224 161.963788 
z
" style="fill:#1a0241;"/>
    <path clip-path="url(#p8900a6744f)" d="M 271.803162 170.57712 
L 271.886139 167.071092 
L 278.731196 160.511556 
L 278.637155 163.996376 
z
" style="fill:#210581;"/>
    <path clip-path="url(#p8900a6744f)" d="M 239.002775 169.551023 
L 246.131049 162.989229 
L 258.898031 166.762758 
L 251.851153 173.395697 
z
" style="fill:#581051;"/>
    <path clip-path="url(#p8900a6744f)" d="M 186.143392 171.330164 
L 193.780682 164.735494 
L 193.768279 163.919126 
L 186.127744 170.508836 
z
" style="fill:#080339;"/>
    <path clip-path="url(#p8900a6744f)" d="M 206.264761 164.916666 
L 218.939778 168.737514 
L 226.295979 162.14569 
L 213.699122 158.395571 
z
" style="fill:#1d0470;"/>
    <path clip-path="url(#p8900a6744f)" d="M 186.143392 171.330164 
L 186.094881 168.78388 
L 193.742232 162.204608 
L 193.780682 164.735494 
z
" style="fill:#1c057e;"/>
    <path clip-path="url(#p8900a6744f)" d="M 226.292478 165.747667 
L 239.002775 169.551023 
L 239.058224 161.963788 
L 226.299827 158.187051 
z
" style="fill:#360389;"/>
    <path clip-path="url(#p8900a6744f)" d="M 271.803162 170.57712 
L 278.637155 163.996376 
L 291.597749 167.780781 
L 284.848695 174.43298 
z
" style="fill:#14034e;"/>
    <path clip-path="url(#p8900a6744f)" d="M 271.803162 170.57712 
L 278.637155 163.996376 
L 278.972531 151.568547 
L 272.099093 158.073133 
z
" style="fill:#240144;"/>
    <path clip-path="url(#p8900a6744f)" d="M 173.686069 167.507715 
L 186.143392 171.330164 
L 186.127744 170.508836 
L 173.665429 166.689256 
z
" style="fill:#110679;"/>
    <path clip-path="url(#p8900a6744f)" d="M 218.949524 172.361429 
L 226.292478 165.747667 
L 226.295979 162.14569 
L 218.939778 168.737514 
z
" style="fill:#10023d;"/>
    <path clip-path="url(#p8900a6744f)" d="M 173.686069 167.507715 
L 173.646918 165.955204 
L 186.11371 169.772208 
L 186.143392 171.330164 
z
" style="fill:#0a033a;"/>
    <path clip-path="url(#p8900a6744f)" d="M 291.597749 167.780781 
L 291.600189 167.707915 
L 304.701721 171.533075 
L 304.698789 171.606197 
z
" style="fill:#050338;"/>
    <path clip-path="url(#p8900a6744f)" d="M 259.112335 154.302823 
L 272.099093 158.073133 
L 278.972531 151.568547 
L 266.069566 147.86816 
z
" style="fill:#42017e;"/>
    <path clip-path="url(#p8900a6744f)" d="M 186.143392 171.330164 
L 193.780682 164.735494 
L 206.297214 168.527892 
L 198.736391 175.194243 
z
" style="fill:#11034c;"/>
    <path clip-path="url(#p8900a6744f)" d="M 246.131049 162.989229 
L 246.458388 132.750955 
L 259.419974 136.416297 
L 258.898031 166.762758 
z
" style="fill:#450d40;"/>
    <path clip-path="url(#p8900a6744f)" d="M 271.886139 167.071092 
L 284.955054 170.914624 
L 291.714865 164.283739 
L 278.731196 160.511556 
z
" style="fill:#1d0470;"/>
    <path clip-path="url(#p8900a6744f)" d="M 186.094881 168.78388 
L 198.703697 172.639011 
L 206.27439 165.988132 
L 193.742232 162.204608 
z
" style="fill:#18046d;"/>
    <path clip-path="url(#p8900a6744f)" d="M 258.898031 166.762758 
L 271.803162 170.57712 
L 272.099093 158.073133 
L 259.112335 154.302823 
z
" style="fill:#4c0191;"/>
    <path clip-path="url(#p8900a6744f)" d="M 218.949524 172.361429 
L 226.292478 165.747667 
L 239.002775 169.551023 
L 231.739835 176.23678 
z
" style="fill:#560f53;"/>
    <path clip-path="url(#p8900a6744f)" d="M 206.297214 168.527892 
L 218.949524 172.361429 
L 218.939778 168.737514 
L 206.264761 164.916666 
z
" style="fill:#210581;"/>
    <path clip-path="url(#p8900a6744f)" d="M 165.82912 174.154745 
L 165.783471 172.592786 
L 173.646918 165.955204 
L 173.686069 167.507715 
z
" style="fill:#16067b;"/>
    <path clip-path="url(#p8900a6744f)" d="M 284.848695 174.43298 
L 284.850911 174.359671 
L 291.600189 167.707915 
L 291.597749 167.780781 
z
" style="fill:#0b0777;"/>
    <path clip-path="url(#p8900a6744f)" d="M 239.002775 169.551023 
L 239.225135 139.125003 
L 246.458388 132.750955 
L 246.131049 162.989229 
z
" style="fill:#911b87;"/>
    <path clip-path="url(#p8900a6744f)" d="M 284.848695 174.43298 
L 291.597749 167.780781 
L 291.714865 164.283739 
L 284.955054 170.914624 
z
" style="fill:#10023d;"/>
    <path clip-path="url(#p8900a6744f)" d="M 251.851153 173.395697 
L 258.898031 166.762758 
L 271.803162 170.57712 
L 264.839875 177.282368 
z
" style="fill:#510a55;"/>
    <path clip-path="url(#p8900a6744f)" d="M 198.736391 175.194243 
L 206.297214 168.527892 
L 206.27439 165.988132 
L 198.703697 172.639011 
z
" style="fill:#0d023b;"/>
    <path clip-path="url(#p8900a6744f)" d="M 206.297214 168.527892 
L 206.20022 157.734685 
L 218.920395 161.530086 
L 218.949524 172.361429 
z
" style="fill:#210143;"/>
    <path clip-path="url(#p8900a6744f)" d="M 165.82912 174.154745 
L 173.686069 167.507715 
L 186.143392 171.330164 
L 178.361455 178.049733 
z
" style="fill:#0d034a;"/>
    <path clip-path="url(#p8900a6744f)" d="M 226.292478 165.747667 
L 226.32101 136.394424 
L 239.218063 140.092707 
L 239.002775 169.551023 
z
" style="fill:#430b41;"/>
    <path clip-path="url(#p8900a6744f)" d="M 271.803162 170.57712 
L 271.864662 167.978539 
L 284.927526 171.825269 
L 284.848695 174.43298 
z
" style="fill:#0d023b;"/>
    <path clip-path="url(#p8900a6744f)" d="M 284.848695 174.43298 
L 291.597749 167.780781 
L 304.698789 171.606197 
L 298.036935 178.33102 
z
" style="fill:#070448;"/>
    <path clip-path="url(#p8900a6744f)" d="M 284.850911 174.359671 
L 298.039649 178.257453 
L 304.701721 171.533075 
L 291.600189 167.707915 
z
" style="fill:#0a0667;"/>
    <path clip-path="url(#p8900a6744f)" d="M 271.803162 170.57712 
L 284.848695 174.43298 
L 284.955054 170.914624 
L 271.886139 167.071092 
z
" style="fill:#210581;"/>
    <path clip-path="url(#p8900a6744f)" d="M 165.783471 172.592786 
L 178.325387 176.482284 
L 186.11371 169.772208 
L 173.646918 165.955204 
z
" style="fill:#13056b;"/>
    <path clip-path="url(#p8900a6744f)" d="M 258.898031 166.762758 
L 259.361824 139.797211 
L 272.443635 143.515181 
L 271.803162 170.57712 
z
" style="fill:#3f0843;"/>
    <path clip-path="url(#p8900a6744f)" d="M 186.143392 171.330164 
L 198.736391 175.194243 
L 198.703697 172.639011 
L 186.094881 168.78388 
z
" style="fill:#1c057e;"/>
    <path clip-path="url(#p8900a6744f)" d="M 198.736391 175.194243 
L 198.597444 164.334861 
L 206.20022 157.734685 
L 206.297214 168.527892 
z
" style="fill:#45028f;"/>
    <path clip-path="url(#p8900a6744f)" d="M 198.736391 175.194243 
L 206.297214 168.527892 
L 218.949524 172.361429 
L 211.467294 179.100638 
z
" style="fill:#2a0156;"/>
    <path clip-path="url(#p8900a6744f)" d="M 186.143392 171.330164 
L 186.044698 166.149874 
L 198.669875 169.99571 
L 198.736391 175.194243 
z
" style="fill:#14023e;"/>
    <path clip-path="url(#p8900a6744f)" d="M 218.949524 172.361429 
L 218.870092 142.825848 
L 226.32101 136.394424 
L 226.292478 165.747667 
z
" style="fill:#8e1889;"/>
    <path clip-path="url(#p8900a6744f)" d="M 264.839875 177.282368 
L 264.89285 174.667944 
L 271.864662 167.978539 
L 271.803162 170.57712 
z
" style="fill:#1c057e;"/>
    <path clip-path="url(#p8900a6744f)" d="M 231.739835 176.23678 
L 239.002775 169.551023 
L 251.851153 173.395697 
L 244.670417 180.154631 
z
" style="fill:#7c3c2f;"/>
    <path clip-path="url(#p8900a6744f)" d="M 251.851153 173.395697 
L 252.223896 146.262877 
L 259.361824 139.797211 
L 258.898031 166.762758 
z
" style="fill:#86118d;"/>
    <path clip-path="url(#p8900a6744f)" d="M 178.361455 178.049733 
L 186.143392 171.330164 
L 186.11371 169.772208 
L 178.325387 176.482284 
z
" style="fill:#0a033a;"/>
    <path clip-path="url(#p8900a6744f)" d="M 298.036935 178.33102 
L 304.698789 171.606197 
L 304.701721 171.533075 
L 298.039649 178.257453 
z
" style="fill:#050338;"/>
    <path clip-path="url(#p8900a6744f)" d="M 251.851153 173.395697 
L 258.898031 166.762758 
L 259.419974 136.416297 
L 252.270637 142.860507 
z
" style="fill:#450d40;"/>
    <path clip-path="url(#p8900a6744f)" d="M 178.361455 178.049733 
L 178.241525 172.837788 
L 186.044698 166.149874 
L 186.143392 171.330164 
z
" style="fill:#2a0484;"/>
    <path clip-path="url(#p8900a6744f)" d="M 264.839875 177.282368 
L 271.803162 170.57712 
L 284.848695 174.43298 
L 277.971253 181.211726 
z
" style="fill:#11034c;"/>
    <path clip-path="url(#p8900a6744f)" d="M 165.82912 174.154745 
L 178.361455 178.049733 
L 178.325387 176.482284 
L 165.783471 172.592786 
z
" style="fill:#16067b;"/>
    <path clip-path="url(#p8900a6744f)" d="M 284.848695 174.43298 
L 298.036935 178.33102 
L 298.039649 178.257453 
L 284.850911 174.359671 
z
" style="fill:#0b0777;"/>
    <path clip-path="url(#p8900a6744f)" d="M 284.848695 174.43298 
L 284.853111 174.286901 
L 298.042342 178.184428 
L 298.036935 178.33102 
z
" style="fill:#050338;"/>
    <path clip-path="url(#p8900a6744f)" d="M 165.82912 174.154745 
L 165.760805 171.817246 
L 178.307479 175.704012 
L 178.361455 178.049733 
z
" style="fill:#0c033b;"/>
    <path clip-path="url(#p8900a6744f)" d="M 178.361455 178.049733 
L 186.143392 171.330164 
L 198.736391 175.194243 
L 191.031582 181.987547 
z
" style="fill:#190350;"/>
    <path clip-path="url(#p8900a6744f)" d="M 264.89285 174.667944 
L 278.041789 178.588093 
L 284.927526 171.825269 
L 271.864662 167.978539 
z
" style="fill:#18046d;"/>
    <path clip-path="url(#p8900a6744f)" d="M 239.002775 169.551023 
L 251.851153 173.395697 
L 252.270637 142.860507 
L 239.225135 139.125003 
z
" style="fill:#911b87;"/>
    <path clip-path="url(#p8900a6744f)" d="M 198.597444 164.334861 
L 211.397055 168.202789 
L 218.920395 161.530086 
L 206.20022 157.734685 
z
" style="fill:#3c027c;"/>
    <path clip-path="url(#p8900a6744f)" d="M 211.467294 179.100638 
L 218.949524 172.361429 
L 218.920395 161.530086 
L 211.397055 168.202789 
z
" style="fill:#210143;"/>
    <path clip-path="url(#p8900a6744f)" d="M 211.467294 179.100638 
L 218.949524 172.361429 
L 231.739835 176.23678 
L 224.338378 183.050047 
z
" style="fill:#7f422b;"/>
    <path clip-path="url(#p8900a6744f)" d="M 277.971253 181.211726 
L 277.975204 181.064756 
L 284.853111 174.286901 
L 284.848695 174.43298 
z
" style="fill:#0b0777;"/>
    <path clip-path="url(#p8900a6744f)" d="M 157.822766 180.928173 
L 157.744363 178.576407 
L 165.760805 171.817246 
L 165.82912 174.154745 
z
" style="fill:#1a057d;"/>
    <path clip-path="url(#p8900a6744f)" d="M 231.739835 176.23678 
L 239.002775 169.551023 
L 239.218063 140.092707 
L 231.849538 146.595176 
z
" style="fill:#430b41;"/>
    <path clip-path="url(#p8900a6744f)" d="M 277.971253 181.211726 
L 284.848695 174.43298 
L 284.927526 171.825269 
L 278.041789 178.588093 
z
" style="fill:#0d023b;"/>
    <path clip-path="url(#p8900a6744f)" d="M 178.241525 172.837788 
L 190.944223 176.757202 
L 198.669875 169.99571 
L 186.044698 166.149874 
z
" style="fill:#240473;"/>
    <path clip-path="url(#p8900a6744f)" d="M 244.670417 180.154631 
L 251.851153 173.395697 
L 264.839875 177.282368 
L 257.743589 184.115686 
z
" style="fill:#540d54;"/>
    <path clip-path="url(#p8900a6744f)" d="M 264.839875 177.282368 
L 271.803162 170.57712 
L 272.443635 143.515181 
L 265.391628 150.05229 
z
" style="fill:#3f0843;"/>
    <path clip-path="url(#p8900a6744f)" d="M 239.225135 139.125003 
L 252.270637 142.860507 
L 259.419974 136.416297 
L 246.458388 132.750955 
z
" style="fill:#7e1875;"/>
    <path clip-path="url(#p8900a6744f)" d="M 198.736391 175.194243 
L 211.467294 179.100638 
L 211.397055 168.202789 
L 198.597444 164.334861 
z
" style="fill:#45028f;"/>
    <path clip-path="url(#p8900a6744f)" d="M 264.839875 177.282368 
L 264.858596 176.35846 
L 277.99618 180.284569 
L 277.971253 181.211726 
z
" style="fill:#080339;"/>
    <path clip-path="url(#p8900a6744f)" d="M 157.822766 180.928173 
L 165.82912 174.154745 
L 178.361455 178.049733 
L 170.430723 184.897786 
z
" style="fill:#10034c;"/>
    <path clip-path="url(#p8900a6744f)" d="M 191.031582 181.987547 
L 198.736391 175.194243 
L 198.669875 169.99571 
L 190.944223 176.757202 
z
" style="fill:#14023e;"/>
    <path clip-path="url(#p8900a6744f)" d="M 218.949524 172.361429 
L 231.739835 176.23678 
L 231.849538 146.595176 
L 218.870092 142.825848 
z
" style="fill:#8e1889;"/>
    <path clip-path="url(#p8900a6744f)" d="M 264.839875 177.282368 
L 277.971253 181.211726 
L 278.041789 178.588093 
L 264.89285 174.667944 
z
" style="fill:#1c057e;"/>
    <path clip-path="url(#p8900a6744f)" d="M 277.971253 181.211726 
L 284.848695 174.43298 
L 298.036935 178.33102 
L 291.24765 185.184478 
z
" style="fill:#070448;"/>
    <path clip-path="url(#p8900a6744f)" d="M 277.975204 181.064756 
L 291.252607 185.036991 
L 298.042342 178.184428 
L 284.853111 174.286901 
z
" style="fill:#0a0667;"/>
    <path clip-path="url(#p8900a6744f)" d="M 251.851153 173.395697 
L 264.839875 177.282368 
L 265.391628 150.05229 
L 252.223896 146.262877 
z
" style="fill:#86118d;"/>
    <path clip-path="url(#p8900a6744f)" d="M 157.744363 178.576407 
L 170.366829 182.537729 
L 178.307479 175.704012 
L 165.760805 171.817246 
z
" style="fill:#17056d;"/>
    <path clip-path="url(#p8900a6744f)" d="M 251.851153 173.395697 
L 252.241931 144.950116 
L 265.418325 148.734721 
L 264.839875 177.282368 
z
" style="fill:#410a42;"/>
    <path clip-path="url(#p8900a6744f)" d="M 191.031582 181.987547 
L 198.736391 175.194243 
L 211.467294 179.100638 
L 203.841786 185.968896 
z
" style="fill:#550e53;"/>
    <path clip-path="url(#p8900a6744f)" d="M 257.743589 184.115686 
L 257.759177 183.18614 
L 264.858596 176.35846 
L 264.839875 177.282368 
z
" style="fill:#110679;"/>
    <path clip-path="url(#p8900a6744f)" d="M 178.361455 178.049733 
L 191.031582 181.987547 
L 190.944223 176.757202 
L 178.241525 172.837788 
z
" style="fill:#2a0484;"/>
    <path clip-path="url(#p8900a6744f)" d="M 239.002775 169.551023 
L 239.401352 115.012935 
L 252.60312 118.65835 
L 251.851153 173.395697 
z
" style="fill:#612f25;"/>
    <path clip-path="url(#p8900a6744f)" d="M 218.870092 142.825848 
L 231.849538 146.595176 
L 239.218063 140.092707 
L 226.32101 136.394424 
z
" style="fill:#7b1577;"/>
    <path clip-path="url(#p8900a6744f)" d="M 252.223896 146.262877 
L 265.391628 150.05229 
L 272.443635 143.515181 
L 259.361824 139.797211 
z
" style="fill:#740f7b;"/>
    <path clip-path="url(#p8900a6744f)" d="M 224.338378 183.050047 
L 231.739835 176.23678 
L 244.670417 180.154631 
L 237.351973 187.043183 
z
" style="fill:#86541f;"/>
    <path clip-path="url(#p8900a6744f)" d="M 291.24765 185.184478 
L 298.036935 178.33102 
L 298.042342 178.184428 
L 291.252607 185.036991 
z
" style="fill:#050338;"/>
    <path clip-path="url(#p8900a6744f)" d="M 178.361455 178.049733 
L 178.132295 168.090887 
L 190.864656 171.993413 
L 191.031582 181.987547 
z
" style="fill:#1f0143;"/>
    <path clip-path="url(#p8900a6744f)" d="M 244.670417 180.154631 
L 244.961985 151.531935 
L 252.241931 144.950116 
L 251.851153 173.395697 
z
" style="fill:#8b158b;"/>
    <path clip-path="url(#p8900a6744f)" d="M 170.430723 184.897786 
L 178.361455 178.049733 
L 178.307479 175.704012 
L 170.366829 182.537729 
z
" style="fill:#0c033b;"/>
    <path clip-path="url(#p8900a6744f)" d="M 198.736391 175.194243 
L 198.362808 145.996938 
L 211.278436 149.798438 
L 211.467294 179.100638 
z
" style="fill:#430b41;"/>
    <path clip-path="url(#p8900a6744f)" d="M 231.739835 176.23678 
L 231.942959 121.352878 
L 239.401352 115.012935 
L 239.002775 169.551023 
z
" style="fill:#ce644e;"/>
    <path clip-path="url(#p8900a6744f)" d="M 257.743589 184.115686 
L 264.839875 177.282368 
L 277.971253 181.211726 
L 270.961723 188.120663 
z
" style="fill:#0a0449;"/>
    <path clip-path="url(#p8900a6744f)" d="M 257.759177 183.18614 
L 270.9836 187.18784 
L 277.99618 180.284569 
L 264.858596 176.35846 
z
" style="fill:#0f0569;"/>
    <path clip-path="url(#p8900a6744f)" d="M 277.971253 181.211726 
L 277.974527 181.089928 
L 291.251758 185.062252 
L 291.24765 185.184478 
z
" style="fill:#050338;"/>
    <path clip-path="url(#p8900a6744f)" d="M 277.971253 181.211726 
L 291.24765 185.184478 
L 291.252607 185.036991 
L 277.975204 181.064756 
z
" style="fill:#0b0777;"/>
    <path clip-path="url(#p8900a6744f)" d="M 170.430723 184.897786 
L 170.159451 174.877711 
L 178.132295 168.090887 
L 178.361455 178.049733 
z
" style="fill:#41028d;"/>
    <path clip-path="url(#p8900a6744f)" d="M 157.822766 180.928173 
L 170.430723 184.897786 
L 170.366829 182.537729 
L 157.744363 178.576407 
z
" style="fill:#1a057d;"/>
    <path clip-path="url(#p8900a6744f)" d="M 170.430723 184.897786 
L 178.361455 178.049733 
L 191.031582 181.987547 
L 183.178635 188.911464 
z
" style="fill:#270155;"/>
    <path clip-path="url(#p8900a6744f)" d="M 157.822766 180.928173 
L 157.689225 176.922495 
L 170.321895 180.877967 
L 170.430723 184.897786 
z
" style="fill:#11023d;"/>
    <path clip-path="url(#p8900a6744f)" d="M 191.031582 181.987547 
L 190.540875 152.608218 
L 198.362808 145.996938 
L 198.736391 175.194243 
z
" style="fill:#8d178a;"/>
    <path clip-path="url(#p8900a6744f)" d="M 203.841786 185.968896 
L 211.467294 179.100638 
L 224.338378 183.050047 
L 216.794403 189.994506 
z
" style="fill:#847814;"/>
    <path clip-path="url(#p8900a6744f)" d="M 218.949524 172.361429 
L 218.793825 114.467288 
L 231.954885 118.130334 
L 231.739835 176.23678 
z
" style="fill:#633422;"/>
    <path clip-path="url(#p8900a6744f)" d="M 270.961723 188.120663 
L 270.964597 187.998122 
L 277.974527 181.089928 
L 277.971253 181.211726 
z
" style="fill:#0b0777;"/>
    <path clip-path="url(#p8900a6744f)" d="M 270.961723 188.120663 
L 277.971253 181.211726 
L 277.99618 180.284569 
L 270.9836 187.18784 
z
" style="fill:#080339;"/>
    <path clip-path="url(#p8900a6744f)" d="M 149.662704 187.831639 
L 149.511338 183.801426 
L 157.689225 176.922495 
L 157.822766 180.928173 
z
" style="fill:#250582;"/>
    <path clip-path="url(#p8900a6744f)" d="M 244.670417 180.154631 
L 244.847403 162.780222 
L 258.035992 166.679313 
L 257.743589 184.115686 
z
" style="fill:#2d0046;"/>
    <path clip-path="url(#p8900a6744f)" d="M 237.351973 187.043183 
L 244.670417 180.154631 
L 257.743589 184.115686 
L 250.510457 191.080779 
z
" style="fill:#3a005a;"/>
    <path clip-path="url(#p8900a6744f)" d="M 257.743589 184.115686 
L 264.839875 177.282368 
L 265.418325 148.734721 
L 258.22531 155.390018 
z
" style="fill:#410a42;"/>
    <path clip-path="url(#p8900a6744f)" d="M 211.467294 179.100638 
L 211.091781 120.838043 
L 218.793825 114.467288 
L 218.949524 172.361429 
z
" style="fill:#d36e47;"/>
    <path clip-path="url(#p8900a6744f)" d="M 257.743589 184.115686 
L 257.756885 183.322787 
L 270.980384 187.324969 
L 270.961723 188.120663 
z
" style="fill:#080339;"/>
    <path clip-path="url(#p8900a6744f)" d="M 257.743589 184.115686 
L 270.961723 188.120663 
L 270.9836 187.18784 
L 257.759177 183.18614 
z
" style="fill:#110679;"/>
    <path clip-path="url(#p8900a6744f)" d="M 149.662704 187.831639 
L 157.822766 180.928173 
L 170.430723 184.897786 
L 162.346885 191.878042 
z
" style="fill:#16034f;"/>
    <path clip-path="url(#p8900a6744f)" d="M 244.670417 180.154631 
L 251.851153 173.395697 
L 252.60312 118.65835 
L 245.231547 125.069596 
z
" style="fill:#612f25;"/>
    <path clip-path="url(#p8900a6744f)" d="M 270.961723 188.120663 
L 277.971253 181.211726 
L 291.24765 185.184478 
L 284.327244 192.170297 
z
" style="fill:#070448;"/>
    <path clip-path="url(#p8900a6744f)" d="M 270.964597 187.998122 
L 284.330963 192.047323 
L 291.251758 185.062252 
L 277.974527 181.089928 
z
" style="fill:#0a0667;"/>
    <path clip-path="url(#p8900a6744f)" d="M 237.351973 187.043183 
L 237.466349 169.561256 
L 244.847403 162.780222 
L 244.670417 180.154631 
z
" style="fill:#5f0094;"/>
    <path clip-path="url(#p8900a6744f)" d="M 170.159451 174.877711 
L 182.970357 178.855803 
L 190.864656 171.993413 
L 178.132295 168.090887 
z
" style="fill:#38027b;"/>
    <path clip-path="url(#p8900a6744f)" d="M 183.178635 188.911464 
L 191.031582 181.987547 
L 190.864656 171.993413 
L 182.970357 178.855803 
z
" style="fill:#1f0143;"/>
    <path clip-path="url(#p8900a6744f)" d="M 244.670417 180.154631 
L 257.743589 184.115686 
L 258.22531 155.390018 
L 244.961985 151.531935 
z
" style="fill:#8b158b;"/>
    <path clip-path="url(#p8900a6744f)" d="M 183.178635 188.911464 
L 191.031582 181.987547 
L 203.841786 185.968896 
L 196.068846 192.969946 
z
" style="fill:#7d3d2f;"/>
    <path clip-path="url(#p8900a6744f)" d="M 250.510457 191.080779 
L 250.520975 190.283031 
L 257.756885 183.322787 
L 257.743589 184.115686 
z
" style="fill:#110679;"/>
    <path clip-path="url(#p8900a6744f)" d="M 203.841786 185.968896 
L 211.467294 179.100638 
L 211.278436 149.798438 
L 203.538117 156.483743 
z
" style="fill:#430b41;"/>
    <path clip-path="url(#p8900a6744f)" d="M 149.511338 183.801426 
L 162.220527 187.83357 
L 170.321895 180.877967 
L 157.689225 176.922495 
z
" style="fill:#200471;"/>
    <path clip-path="url(#p8900a6744f)" d="M 231.739835 176.23678 
L 244.670417 180.154631 
L 245.231547 125.069596 
L 231.942959 121.352878 
z
" style="fill:#ce644e;"/>
    <path clip-path="url(#p8900a6744f)" d="M 216.794403 189.994506 
L 224.338378 183.050047 
L 237.351973 187.043183 
L 229.891821 194.06512 
z
" style="fill:#80442a;"/>
    <path clip-path="url(#p8900a6744f)" d="M 284.327244 192.170297 
L 291.24765 185.184478 
L 291.251758 185.062252 
L 284.330963 192.047323 
z
" style="fill:#050338;"/>
    <path clip-path="url(#p8900a6744f)" d="M 170.430723 184.897786 
L 183.178635 188.911464 
L 182.970357 178.855803 
L 170.159451 174.877711 
z
" style="fill:#41028d;"/>
    <path clip-path="url(#p8900a6744f)" d="M 244.961985 151.531935 
L 258.22531 155.390018 
L 265.418325 148.734721 
L 252.241931 144.950116 
z
" style="fill:#781279;"/>
    <path clip-path="url(#p8900a6744f)" d="M 162.346885 191.878042 
L 170.430723 184.897786 
L 170.321895 180.877967 
L 162.220527 187.83357 
z
" style="fill:#11023d;"/>
    <path clip-path="url(#p8900a6744f)" d="M 191.031582 181.987547 
L 203.841786 185.968896 
L 203.538117 156.483743 
L 190.540875 152.608218 
z
" style="fill:#8d178a;"/>
    <path clip-path="url(#p8900a6744f)" d="M 250.510457 191.080779 
L 257.743589 184.115686 
L 270.961723 188.120663 
L 263.816264 195.163579 
z
" style="fill:#0a0449;"/>
    <path clip-path="url(#p8900a6744f)" d="M 250.520975 190.283031 
L 263.832218 194.363013 
L 270.980384 187.324969 
L 257.756885 183.322787 
z
" style="fill:#0f0569;"/>
    <path clip-path="url(#p8900a6744f)" d="M 224.338378 183.050047 
L 231.739835 176.23678 
L 231.954885 118.130334 
L 224.338378 124.573148 
z
" style="fill:#633422;"/>
    <path clip-path="url(#p8900a6744f)" d="M 270.961723 188.120663 
L 284.327244 192.170297 
L 284.330963 192.047323 
L 270.964597 187.998122 
z
" style="fill:#0b0777;"/>
    <path clip-path="url(#p8900a6744f)" d="M 270.961723 188.120663 
L 270.965225 187.971336 
L 284.331776 192.020444 
L 284.327244 192.170297 
z
" style="fill:#050338;"/>
    <path clip-path="url(#p8900a6744f)" d="M 231.739835 176.23678 
L 231.986865 109.489484 
L 245.35286 113.160546 
L 244.670417 180.154631 
z
" style="fill:#684219;"/>
    <path clip-path="url(#p8900a6744f)" d="M 162.346885 191.878042 
L 170.430723 184.897786 
L 183.178635 188.911464 
L 175.173234 195.969799 
z
" style="fill:#430259;"/>
    <path clip-path="url(#p8900a6744f)" d="M 237.351973 187.043183 
L 237.400238 179.666065 
L 250.608067 183.677498 
L 250.510457 191.080779 
z
" style="fill:#190241;"/>
    <path clip-path="url(#p8900a6744f)" d="M 149.662704 187.831639 
L 162.346885 191.878042 
L 162.220527 187.83357 
L 149.511338 183.801426 
z
" style="fill:#250582;"/>
    <path clip-path="url(#p8900a6744f)" d="M 149.662704 187.831639 
L 149.473744 182.800476 
L 162.189144 186.829066 
L 162.346885 191.878042 
z
" style="fill:#14023e;"/>
    <path clip-path="url(#p8900a6744f)" d="M 250.510457 191.080779 
L 257.743589 184.115686 
L 258.035992 166.679313 
L 250.741775 173.536357 
z
" style="fill:#2d0046;"/>
    <path clip-path="url(#p8900a6744f)" d="M 170.430723 184.897786 
L 169.853018 163.558837 
L 182.735069 167.496055 
L 183.178635 188.911464 
z
" style="fill:#350146;"/>
    <path clip-path="url(#p8900a6744f)" d="M 190.540875 152.608218 
L 203.538117 156.483743 
L 211.278436 149.798438 
L 198.362808 145.996938 
z
" style="fill:#7a1478;"/>
    <path clip-path="url(#p8900a6744f)" d="M 196.068846 192.969946 
L 203.841786 185.968896 
L 216.794403 189.994506 
L 209.103753 197.073984 
z
" style="fill:#808512;"/>
    <path clip-path="url(#p8900a6744f)" d="M 211.467294 179.100638 
L 224.338378 183.050047 
L 224.338378 124.573148 
L 211.091781 120.838043 
z
" style="fill:#d36e47;"/>
    <path clip-path="url(#p8900a6744f)" d="M 263.816264 195.163579 
L 263.819258 195.013339 
L 270.965225 187.971336 
L 270.961723 188.120663 
z
" style="fill:#0b0777;"/>
    <path clip-path="url(#p8900a6744f)" d="M 224.338378 183.050047 
L 224.338378 115.874441 
L 231.986865 109.489484 
L 231.739835 176.23678 
z
" style="fill:#dd8b34;"/>
    <path clip-path="url(#p8900a6744f)" d="M 263.816264 195.163579 
L 270.961723 188.120663 
L 270.980384 187.324969 
L 263.832218 194.363013 
z
" style="fill:#080339;"/>
    <path clip-path="url(#p8900a6744f)" d="M 229.891821 194.06512 
L 229.912618 186.642608 
L 237.400238 179.666065 
L 237.351973 187.043183 
z
" style="fill:#350389;"/>
    <path clip-path="url(#p8900a6744f)" d="M 237.466349 169.561256 
L 250.741775 173.536357 
L 258.035992 166.679313 
L 244.847403 162.780222 
z
" style="fill:#530081;"/>
    <path clip-path="url(#p8900a6744f)" d="M 237.351973 187.043183 
L 250.510457 191.080779 
L 250.741775 173.536357 
L 237.466349 169.561256 
z
" style="fill:#5f0094;"/>
    <path clip-path="url(#p8900a6744f)" d="M 141.344465 194.868925 
L 141.132415 189.806854 
L 149.473744 182.800476 
L 149.662704 187.831639 
z
" style="fill:#2a0484;"/>
    <path clip-path="url(#p8900a6744f)" d="M 162.346885 191.878042 
L 161.676067 170.406422 
L 169.853018 163.558837 
L 170.430723 184.897786 
z
" style="fill:#6f0394;"/>
    <path clip-path="url(#p8900a6744f)" d="M 229.891821 194.06512 
L 237.351973 187.043183 
L 250.510457 191.080779 
L 243.136481 198.181496 
z
" style="fill:#200253;"/>
    <path clip-path="url(#p8900a6744f)" d="M 250.510457 191.080779 
L 250.517988 190.509516 
L 263.827688 194.590299 
L 263.816264 195.163579 
z
" style="fill:#070339;"/>
    <path clip-path="url(#p8900a6744f)" d="M 250.510457 191.080779 
L 263.816264 195.163579 
L 263.832218 194.363013 
L 250.520975 190.283031 
z
" style="fill:#110679;"/>
    <path clip-path="url(#p8900a6744f)" d="M 141.344465 194.868925 
L 149.662704 187.831639 
L 162.346885 191.878042 
L 154.105465 198.994368 
z
" style="fill:#190350;"/>
    <path clip-path="url(#p8900a6744f)" d="M 263.816264 195.163579 
L 270.961723 188.120663 
L 284.327244 192.170297 
L 277.271882 199.292348 
z
" style="fill:#070448;"/>
    <path clip-path="url(#p8900a6744f)" d="M 263.819258 195.013339 
L 277.275919 199.141577 
L 284.331776 192.020444 
L 270.965225 187.971336 
z
" style="fill:#0a0667;"/>
    <path clip-path="url(#p8900a6744f)" d="M 191.031582 181.987547 
L 190.101088 126.277615 
L 203.265917 130.054215 
L 203.841786 185.968896 
z
" style="fill:#613024;"/>
    <path clip-path="url(#p8900a6744f)" d="M 231.942959 121.352878 
L 245.231547 125.069596 
L 252.60312 118.65835 
L 239.401352 115.012935 
z
" style="fill:#b25744;"/>
    <path clip-path="url(#p8900a6744f)" d="M 175.173234 195.969799 
L 183.178635 188.911464 
L 196.068846 192.969946 
L 188.144156 200.107676 
z
" style="fill:#876019;"/>
    <path clip-path="url(#p8900a6744f)" d="M 243.136481 198.181496 
L 243.141944 197.606732 
L 250.517988 190.509516 
L 250.510457 191.080779 
z
" style="fill:#0e0678;"/>
    <path clip-path="url(#p8900a6744f)" d="M 141.132415 189.806854 
L 153.925008 193.914338 
L 162.189144 186.829066 
L 149.473744 182.800476 
z
" style="fill:#240473;"/>
    <path clip-path="url(#p8900a6744f)" d="M 229.912618 186.642608 
L 243.207275 190.732607 
L 250.608067 183.677498 
L 237.400238 179.666065 
z
" style="fill:#2e0377;"/>
    <path clip-path="url(#p8900a6744f)" d="M 209.103753 197.073984 
L 216.794403 189.994506 
L 229.891821 194.06512 
L 222.285805 201.224351 
z
" style="fill:#671f45;"/>
    <path clip-path="url(#p8900a6744f)" d="M 183.178635 188.911464 
L 182.017386 132.846206 
L 190.101088 126.277615 
L 191.031582 181.987547 
z
" style="fill:#ce654d;"/>
    <path clip-path="url(#p8900a6744f)" d="M 277.271882 199.292348 
L 284.327244 192.170297 
L 284.331776 192.020444 
L 277.275919 199.141577 
z
" style="fill:#050338;"/>
    <path clip-path="url(#p8900a6744f)" d="M 237.351973 187.043183 
L 244.670417 180.154631 
L 245.35286 113.160546 
L 237.793103 119.618443 
z
" style="fill:#684219;"/>
    <path clip-path="url(#p8900a6744f)" d="M 211.467294 179.100638 
L 210.940558 97.375039 
L 224.338378 101.018535 
L 224.338378 183.050047 
z
" style="fill:#675e0f;"/>
    <path clip-path="url(#p8900a6744f)" d="M 224.338378 183.050047 
L 224.338378 123.597019 
L 237.742382 127.370942 
L 237.351973 187.043183 
z
" style="fill:#643520;"/>
    <path clip-path="url(#p8900a6744f)" d="M 243.136481 198.181496 
L 250.510457 191.080779 
L 250.608067 183.677498 
L 243.207275 190.732607 
z
" style="fill:#190241;"/>
    <path clip-path="url(#p8900a6744f)" d="M 154.105465 198.994368 
L 162.346885 191.878042 
L 162.189144 186.829066 
L 153.925008 193.914338 
z
" style="fill:#14023e;"/>
    <path clip-path="url(#p8900a6744f)" d="M 175.173234 195.969799 
L 183.178635 188.911464 
L 182.735069 167.496055 
L 174.638198 174.421066 
z
" style="fill:#350146;"/>
    <path clip-path="url(#p8900a6744f)" d="M 243.136481 198.181496 
L 250.510457 191.080779 
L 263.816264 195.163579 
L 256.530882 202.34441 
z
" style="fill:#090449;"/>
    <path clip-path="url(#p8900a6744f)" d="M 229.891821 194.06512 
L 229.900764 190.873247 
L 243.166924 194.978319 
L 243.136481 198.181496 
z
" style="fill:#0f023c;"/>
    <path clip-path="url(#p8900a6744f)" d="M 243.141944 197.606732 
L 256.540289 201.767613 
L 263.827688 194.590299 
L 250.517988 190.509516 
z
" style="fill:#0c0668;"/>
    <path clip-path="url(#p8900a6744f)" d="M 263.816264 195.163579 
L 277.271882 199.292348 
L 277.275919 199.141577 
L 263.819258 195.013339 
z
" style="fill:#0b0777;"/>
    <path clip-path="url(#p8900a6744f)" d="M 263.816264 195.163579 
L 263.819512 195.000602 
L 277.276261 199.128795 
L 277.271882 199.292348 
z
" style="fill:#050338;"/>
    <path clip-path="url(#p8900a6744f)" d="M 224.338378 183.050047 
L 237.351973 187.043183 
L 237.793103 119.618443 
L 224.338378 115.874441 
z
" style="fill:#dd8b34;"/>
    <path clip-path="url(#p8900a6744f)" d="M 203.841786 185.968896 
L 202.994621 103.712352 
L 210.940558 97.375039 
L 211.467294 179.100638 
z
" style="fill:#dbc721;"/>
    <path clip-path="url(#p8900a6744f)" d="M 216.794403 189.994506 
L 216.567134 130.161045 
L 224.338378 123.597019 
L 224.338378 183.050047 
z
" style="fill:#d47145;"/>
    <path clip-path="url(#p8900a6744f)" d="M 154.105465 198.994368 
L 162.346885 191.878042 
L 175.173234 195.969799 
L 167.010898 203.166503 
z
" style="fill:#5b134f;"/>
    <path clip-path="url(#p8900a6744f)" d="M 229.891821 194.06512 
L 243.136481 198.181496 
L 243.207275 190.732607 
L 229.912618 186.642608 
z
" style="fill:#350389;"/>
    <path clip-path="url(#p8900a6744f)" d="M 141.344465 194.868925 
L 154.105465 198.994368 
L 153.925008 193.914338 
L 141.132415 189.806854 
z
" style="fill:#2a0484;"/>
    <path clip-path="url(#p8900a6744f)" d="M 162.346885 191.878042 
L 175.173234 195.969799 
L 174.638198 174.421066 
L 161.676067 170.406422 
z
" style="fill:#6f0394;"/>
    <path clip-path="url(#p8900a6744f)" d="M 222.285805 201.224351 
L 222.282467 198.012866 
L 229.900764 190.873247 
L 229.891821 194.06512 
z
" style="fill:#200580;"/>
    <path clip-path="url(#p8900a6744f)" d="M 161.676067 170.406422 
L 174.638198 174.421066 
L 182.735069 167.496055 
L 169.853018 163.558837 
z
" style="fill:#610281;"/>
    <path clip-path="url(#p8900a6744f)" d="M 211.091781 120.838043 
L 224.338378 124.573148 
L 231.954885 118.130334 
L 218.793825 114.467288 
z
" style="fill:#b75f3e;"/>
    <path clip-path="url(#p8900a6744f)" d="M 188.144156 200.107676 
L 196.068846 192.969946 
L 209.103753 197.073984 
L 201.262108 204.292457 
z
" style="fill:#876218;"/>
    <path clip-path="url(#p8900a6744f)" d="M 256.530882 202.34441 
L 256.533556 202.180433 
L 263.819512 195.000602 
L 263.816264 195.163579 
z
" style="fill:#0b0777;"/>
    <path clip-path="url(#p8900a6744f)" d="M 256.530882 202.34441 
L 263.816264 195.163579 
L 263.827688 194.590299 
L 256.540289 201.767613 
z
" style="fill:#070339;"/>
    <path clip-path="url(#p8900a6744f)" d="M 216.794403 189.994506 
L 216.644857 150.623322 
L 230.002535 154.55063 
L 229.891821 194.06512 
z
" style="fill:#501936;"/>
    <path clip-path="url(#p8900a6744f)" d="M 222.285805 201.224351 
L 229.891821 194.06512 
L 243.136481 198.181496 
L 235.617509 205.421836 
z
" style="fill:#13034d;"/>
    <path clip-path="url(#p8900a6744f)" d="M 196.068846 192.969946 
L 203.841786 185.968896 
L 203.265917 130.054215 
L 195.266694 136.698052 
z
" style="fill:#613024;"/>
    <path clip-path="url(#p8900a6744f)" d="M 162.346885 191.878042 
L 161.324196 159.143677 
L 174.357524 163.116828 
L 175.173234 195.969799 
z
" style="fill:#470f3e;"/>
    <path clip-path="url(#p8900a6744f)" d="M 243.136481 198.181496 
L 243.140715 197.736042 
L 256.538173 201.897381 
L 256.530882 202.34441 
z
" style="fill:#070339;"/>
    <path clip-path="url(#p8900a6744f)" d="M 243.136481 198.181496 
L 256.530882 202.34441 
L 256.540289 201.767613 
L 243.141944 197.606732 
z
" style="fill:#0e0678;"/>
    <path clip-path="url(#p8900a6744f)" d="M 209.103753 197.073984 
L 208.798759 157.454128 
L 216.644857 150.623322 
L 216.794403 189.994506 
z
" style="fill:#aa3473;"/>
    <path clip-path="url(#p8900a6744f)" d="M 256.530882 202.34441 
L 263.816264 195.163579 
L 277.271882 199.292348 
L 270.077576 206.554656 
z
" style="fill:#070448;"/>
    <path clip-path="url(#p8900a6744f)" d="M 256.533556 202.180433 
L 270.081397 206.390099 
L 277.276261 199.128795 
L 263.819512 195.000602 
z
" style="fill:#0a0667;"/>
    <path clip-path="url(#p8900a6744f)" d="M 222.282467 198.012866 
L 235.635955 202.198956 
L 243.166924 194.978319 
L 229.900764 190.873247 
z
" style="fill:#1b046f;"/>
    <path clip-path="url(#p8900a6744f)" d="M 183.178635 188.911464 
L 196.068846 192.969946 
L 195.266694 136.698052 
L 182.017386 132.846206 
z
" style="fill:#ce654d;"/>
    <path clip-path="url(#p8900a6744f)" d="M 216.794403 189.994506 
L 224.338378 183.050047 
L 224.338378 101.018535 
L 216.48079 107.429076 
z
" style="fill:#675e0f;"/>
    <path clip-path="url(#p8900a6744f)" d="M 154.105465 198.994368 
L 152.935334 166.054198 
L 161.324196 159.143677 
L 162.346885 191.878042 
z
" style="fill:#972083;"/>
    <path clip-path="url(#p8900a6744f)" d="M 229.891821 194.06512 
L 237.351973 187.043183 
L 237.742382 127.370942 
L 230.060087 134.010414 
z
" style="fill:#643520;"/>
    <path clip-path="url(#p8900a6744f)" d="M 167.010898 203.166503 
L 175.173234 195.969799 
L 188.144156 200.107676 
L 180.063228 207.386128 
z
" style="fill:#876019;"/>
    <path clip-path="url(#p8900a6744f)" d="M 235.617509 205.421836 
L 235.620074 204.973649 
L 243.140715 197.736042 
L 243.136481 198.181496 
z
" style="fill:#0e0678;"/>
    <path clip-path="url(#p8900a6744f)" d="M 235.617509 205.421836 
L 243.136481 198.181496 
L 243.166924 194.978319 
L 235.635955 202.198956 
z
" style="fill:#0f023c;"/>
    <path clip-path="url(#p8900a6744f)" d="M 209.103753 197.073984 
L 208.957053 178.01715 
L 222.265928 182.099106 
L 222.285805 201.224351 
z
" style="fill:#300046;"/>
    <path clip-path="url(#p8900a6744f)" d="M 201.262108 204.292457 
L 209.103753 197.073984 
L 222.285805 201.224351 
L 214.529606 208.524945 
z
" style="fill:#3d005a;"/>
    <path clip-path="url(#p8900a6744f)" d="M 270.077576 206.554656 
L 277.271882 199.292348 
L 277.276261 199.128795 
L 270.081397 206.390099 
z
" style="fill:#050338;"/>
    <path clip-path="url(#p8900a6744f)" d="M 203.841786 185.968896 
L 216.794403 189.994506 
L 216.48079 107.429076 
L 202.994621 103.712352 
z
" style="fill:#dbc721;"/>
    <path clip-path="url(#p8900a6744f)" d="M 216.794403 189.994506 
L 229.891821 194.06512 
L 230.060087 134.010414 
L 216.567134 130.161045 
z
" style="fill:#d47145;"/>
    <path clip-path="url(#p8900a6744f)" d="M 222.285805 201.224351 
L 222.283584 199.087144 
L 235.629784 203.277053 
L 235.617509 205.421836 
z
" style="fill:#0c033b;"/>
    <path clip-path="url(#p8900a6744f)" d="M 235.617509 205.421836 
L 243.136481 198.181496 
L 256.530882 202.34441 
L 249.101427 209.667246 
z
" style="fill:#090449;"/>
    <path clip-path="url(#p8900a6744f)" d="M 222.285805 201.224351 
L 235.617509 205.421836 
L 235.635955 202.198956 
L 222.282467 198.012866 
z
" style="fill:#200580;"/>
    <path clip-path="url(#p8900a6744f)" d="M 203.841786 185.968896 
L 202.940333 98.441219 
L 216.460688 102.136855 
L 216.794403 189.994506 
z
" style="fill:#64680e;"/>
    <path clip-path="url(#p8900a6744f)" d="M 235.620074 204.973649 
L 249.107091 209.217471 
L 256.538173 201.897381 
L 243.140715 197.736042 
z
" style="fill:#0c0668;"/>
    <path clip-path="url(#p8900a6744f)" d="M 201.262108 204.292457 
L 201.037696 185.116925 
L 208.957053 178.01715 
L 209.103753 197.073984 
z
" style="fill:#650095;"/>
    <path clip-path="url(#p8900a6744f)" d="M 183.178635 188.911464 
L 181.673367 116.236921 
L 195.029008 120.024148 
L 196.068846 192.969946 
z
" style="fill:#6a4b13;"/>
    <path clip-path="url(#p8900a6744f)" d="M 256.530882 202.34441 
L 270.077576 206.554656 
L 270.081397 206.390099 
L 256.533556 202.180433 
z
" style="fill:#0b0777;"/>
    <path clip-path="url(#p8900a6744f)" d="M 256.530882 202.34441 
L 256.533648 202.174809 
L 270.081528 206.384455 
L 270.077576 206.554656 
z
" style="fill:#050338;"/>
    <path clip-path="url(#p8900a6744f)" d="M 222.285805 201.224351 
L 229.891821 194.06512 
L 230.002535 154.55063 
L 222.244477 161.459934 
z
" style="fill:#501936;"/>
    <path clip-path="url(#p8900a6744f)" d="M 214.529606 208.524945 
L 214.518886 206.374594 
L 222.283584 199.087144 
L 222.285805 201.224351 
z
" style="fill:#1a057d;"/>
    <path clip-path="url(#p8900a6744f)" d="M 196.068846 192.969946 
L 194.812981 104.869564 
L 202.940333 98.441219 
L 203.841786 185.968896 
z
" style="fill:#d4dc1e;"/>
    <path clip-path="url(#p8900a6744f)" d="M 167.010898 203.166503 
L 175.173234 195.969799 
L 174.357524 163.116828 
L 166.050285 170.106708 
z
" style="fill:#470f3e;"/>
    <path clip-path="url(#p8900a6744f)" d="M 224.338378 115.874441 
L 237.793103 119.618443 
L 245.35286 113.160546 
L 231.986865 109.489484 
z
" style="fill:#c0792d;"/>
    <path clip-path="url(#p8900a6744f)" d="M 180.063228 207.386128 
L 188.144156 200.107676 
L 201.262108 204.292457 
L 193.264978 211.654059 
z
" style="fill:#732f39;"/>
    <path clip-path="url(#p8900a6744f)" d="M 175.173234 195.969799 
L 173.3571 122.824496 
L 181.673367 116.236921 
L 183.178635 188.911464 
z
" style="fill:#e09f29;"/>
    <path clip-path="url(#p8900a6744f)" d="M 249.101427 209.667246 
L 249.103576 209.496604 
L 256.533648 202.174809 
L 256.530882 202.34441 
z
" style="fill:#0b0777;"/>
    <path clip-path="url(#p8900a6744f)" d="M 249.101427 209.667246 
L 256.530882 202.34441 
L 256.538173 201.897381 
L 249.107091 209.217471 
z
" style="fill:#070339;"/>
    <path clip-path="url(#p8900a6744f)" d="M 209.103753 197.073984 
L 222.285805 201.224351 
L 222.244477 161.459934 
L 208.798759 157.454128 
z
" style="fill:#aa3473;"/>
    <path clip-path="url(#p8900a6744f)" d="M 214.529606 208.524945 
L 222.285805 201.224351 
L 235.617509 205.421836 
L 227.94922 212.80596 
z
" style="fill:#10034c;"/>
    <path clip-path="url(#p8900a6744f)" d="M 154.105465 198.994368 
L 167.010898 203.166503 
L 166.050285 170.106708 
L 152.935334 166.054198 
z
" style="fill:#972083;"/>
    <path clip-path="url(#p8900a6744f)" d="M 235.617509 205.421836 
L 235.620056 204.976846 
L 249.10705 209.220678 
L 249.101427 209.667246 
z
" style="fill:#070339;"/>
    <path clip-path="url(#p8900a6744f)" d="M 235.617509 205.421836 
L 249.101427 209.667246 
L 249.107091 209.217471 
L 235.620074 204.973649 
z
" style="fill:#0e0678;"/>
    <path clip-path="url(#p8900a6744f)" d="M 214.518886 206.374594 
L 227.953189 210.647973 
L 235.629784 203.277053 
L 222.283584 199.087144 
z
" style="fill:#17056d;"/>
    <path clip-path="url(#p8900a6744f)" d="M 201.262108 204.292457 
L 201.170469 196.462094 
L 214.490431 200.666675 
L 214.529606 208.524945 
z
" style="fill:#1a0241;"/>
    <path clip-path="url(#p8900a6744f)" d="M 182.017386 132.846206 
L 195.266694 136.698052 
L 203.265917 130.054215 
L 190.101088 126.277615 
z
" style="fill:#b35843;"/>
    <path clip-path="url(#p8900a6744f)" d="M 249.101427 209.667246 
L 256.530882 202.34441 
L 270.077576 206.554656 
L 262.740181 213.961405 
z
" style="fill:#070448;"/>
    <path clip-path="url(#p8900a6744f)" d="M 249.103576 209.496604 
L 262.743532 213.790158 
L 270.081528 206.384455 
L 256.533648 202.174809 
z
" style="fill:#0a0667;"/>
    <path clip-path="url(#p8900a6744f)" d="M 214.529606 208.524945 
L 222.285805 201.224351 
L 222.265928 182.099106 
L 214.433668 189.280441 
z
" style="fill:#300046;"/>
    <path clip-path="url(#p8900a6744f)" d="M 196.068846 192.969946 
L 195.011441 118.791783 
L 208.530592 122.618229 
L 209.103753 197.073984 
z
" style="fill:#6a4d13;"/>
    <path clip-path="url(#p8900a6744f)" d="M 227.94922 212.80596 
L 227.950044 212.358234 
L 235.620056 204.976846 
L 235.617509 205.421836 
z
" style="fill:#0e0678;"/>
    <path clip-path="url(#p8900a6744f)" d="M 193.264978 211.654059 
L 193.140353 203.775279 
L 201.170469 196.462094 
L 201.262108 204.292457 
z
" style="fill:#360389;"/>
    <path clip-path="url(#p8900a6744f)" d="M 227.94922 212.80596 
L 235.617509 205.421836 
L 235.629784 203.277053 
L 227.953189 210.647973 
z
" style="fill:#0c033b;"/>
    <path clip-path="url(#p8900a6744f)" d="M 152.935334 166.054198 
L 166.050285 170.106708 
L 174.357524 163.116828 
L 161.324196 159.143677 
z
" style="fill:#831c72;"/>
    <path clip-path="url(#p8900a6744f)" d="M 209.103753 197.073984 
L 216.794403 189.994506 
L 216.460688 102.136855 
L 208.422991 108.640423 
z
" style="fill:#64680e;"/>
    <path clip-path="url(#p8900a6744f)" d="M 201.037696 185.116925 
L 214.433668 189.280441 
L 222.265928 182.099106 
L 208.957053 178.01715 
z
" style="fill:#580081;"/>
    <path clip-path="url(#p8900a6744f)" d="M 201.262108 204.292457 
L 214.529606 208.524945 
L 214.433668 189.280441 
L 201.037696 185.116925 
z
" style="fill:#650095;"/>
    <path clip-path="url(#p8900a6744f)" d="M 193.264978 211.654059 
L 201.262108 204.292457 
L 214.529606 208.524945 
L 206.61873 215.971129 
z
" style="fill:#210253;"/>
    <path clip-path="url(#p8900a6744f)" d="M 188.144156 200.107676 
L 196.068846 192.969946 
L 195.029008 120.024148 
L 186.799346 126.688571 
z
" style="fill:#6a4b13;"/>
    <path clip-path="url(#p8900a6744f)" d="M 208.798759 157.454128 
L 222.244477 161.459934 
L 230.002535 154.55063 
L 216.644857 150.623322 
z
" style="fill:#942d64;"/>
    <path clip-path="url(#p8900a6744f)" d="M 262.740181 213.961405 
L 270.077576 206.554656 
L 270.081528 206.384455 
L 262.743532 213.790158 
z
" style="fill:#050338;"/>
    <path clip-path="url(#p8900a6744f)" d="M 188.144156 200.107676 
L 186.776618 125.447758 
L 195.011441 118.791783 
L 196.068846 192.969946 
z
" style="fill:#e0a327;"/>
    <path clip-path="url(#p8900a6744f)" d="M 216.567134 130.161045 
L 230.060087 134.010414 
L 237.742382 127.370942 
L 224.338378 123.597019 
z
" style="fill:#b8623c;"/>
    <path clip-path="url(#p8900a6744f)" d="M 214.529606 208.524945 
L 214.523893 207.378953 
L 227.951335 211.655903 
L 227.94922 212.80596 
z
" style="fill:#09033a;"/>
    <path clip-path="url(#p8900a6744f)" d="M 214.529606 208.524945 
L 227.94922 212.80596 
L 227.953189 210.647973 
L 214.518886 206.374594 
z
" style="fill:#1a057d;"/>
    <path clip-path="url(#p8900a6744f)" d="M 227.94922 212.80596 
L 235.617509 205.421836 
L 249.101427 209.667246 
L 241.523583 217.136342 
z
" style="fill:#090449;"/>
    <path clip-path="url(#p8900a6744f)" d="M 188.144156 200.107676 
L 187.257541 151.703464 
L 200.693549 155.710251 
L 201.262108 204.292457 
z
" style="fill:#5a242d;"/>
    <path clip-path="url(#p8900a6744f)" d="M 196.068846 192.969946 
L 209.103753 197.073984 
L 208.422991 108.640423 
L 194.812981 104.869564 
z
" style="fill:#d4dc1e;"/>
    <path clip-path="url(#p8900a6744f)" d="M 227.950044 212.358234 
L 241.527524 216.687027 
L 249.10705 209.220678 
L 235.620056 204.976846 
z
" style="fill:#0c0668;"/>
    <path clip-path="url(#p8900a6744f)" d="M 175.173234 195.969799 
L 188.144156 200.107676 
L 186.799346 126.688571 
L 173.3571 122.824496 
z
" style="fill:#e09f29;"/>
    <path clip-path="url(#p8900a6744f)" d="M 175.173234 195.969799 
L 173.353905 122.695808 
L 186.796979 126.559375 
L 188.144156 200.107676 
z
" style="fill:#6a4b13;"/>
    <path clip-path="url(#p8900a6744f)" d="M 249.101427 209.667246 
L 249.102809 209.557456 
L 262.742337 213.851227 
L 262.740181 213.961405 
z
" style="fill:#050338;"/>
    <path clip-path="url(#p8900a6744f)" d="M 249.101427 209.667246 
L 262.740181 213.961405 
L 262.743532 213.790158 
L 249.103576 209.496604 
z
" style="fill:#0b0777;"/>
    <path clip-path="url(#p8900a6744f)" d="M 206.61873 215.971129 
L 206.608306 214.818084 
L 214.523893 207.378953 
L 214.529606 208.524945 
z
" style="fill:#13067a;"/>
    <path clip-path="url(#p8900a6744f)" d="M 180.063228 207.386128 
L 178.967707 158.673053 
L 187.257541 151.703464 
L 188.144156 200.107676 
z
" style="fill:#bf4d5f;"/>
    <path clip-path="url(#p8900a6744f)" d="M 193.140353 203.775279 
L 206.547251 208.064224 
L 214.490431 200.666675 
L 201.170469 196.462094 
z
" style="fill:#2f0377;"/>
    <path clip-path="url(#p8900a6744f)" d="M 167.010898 203.166503 
L 164.867955 129.416461 
L 173.353905 122.695808 
L 175.173234 195.969799 
z
" style="fill:#e09f29;"/>
    <path clip-path="url(#p8900a6744f)" d="M 241.523583 217.136342 
L 241.524552 217.025877 
L 249.102809 209.557456 
L 249.101427 209.667246 
z
" style="fill:#0b0777;"/>
    <path clip-path="url(#p8900a6744f)" d="M 241.523583 217.136342 
L 249.101427 209.667246 
L 249.10705 209.220678 
L 241.527524 216.687027 
z
" style="fill:#070339;"/>
    <path clip-path="url(#p8900a6744f)" d="M 206.61873 215.971129 
L 214.529606 208.524945 
L 214.490431 200.666675 
L 206.547251 208.064224 
z
" style="fill:#1a0241;"/>
    <path clip-path="url(#p8900a6744f)" d="M 202.994621 103.712352 
L 216.48079 107.429076 
L 224.338378 101.018535 
L 210.940558 97.375039 
z
" style="fill:#beac1c;"/>
    <path clip-path="url(#p8900a6744f)" d="M 206.61873 215.971129 
L 214.529606 208.524945 
L 227.94922 212.80596 
L 220.127123 220.338193 
z
" style="fill:#0c044a;"/>
    <path clip-path="url(#p8900a6744f)" d="M 201.262108 204.292457 
L 209.103753 197.073984 
L 208.530592 122.618229 
L 200.385081 129.352352 
z
" style="fill:#6a4d13;"/>
    <path clip-path="url(#p8900a6744f)" d="M 206.608306 214.818084 
L 220.124631 219.181051 
L 227.951335 211.655903 
L 214.523893 207.378953 
z
" style="fill:#11056a;"/>
    <path clip-path="url(#p8900a6744f)" d="M 227.94922 212.80596 
L 227.94978 212.501335 
L 241.526264 216.830636 
L 241.523583 217.136342 
z
" style="fill:#050338;"/>
    <path clip-path="url(#p8900a6744f)" d="M 227.94922 212.80596 
L 241.523583 217.136342 
L 241.527524 216.687027 
L 227.950044 212.358234 
z
" style="fill:#0e0678;"/>
    <path clip-path="url(#p8900a6744f)" d="M 193.264978 211.654059 
L 206.61873 215.971129 
L 206.547251 208.064224 
L 193.140353 203.775279 
z
" style="fill:#360389;"/>
    <path clip-path="url(#p8900a6744f)" d="M 241.523583 217.136342 
L 249.101427 209.667246 
L 262.740181 213.961405 
L 255.255385 221.516949 
z
" style="fill:#070448;"/>
    <path clip-path="url(#p8900a6744f)" d="M 241.524552 217.025877 
L 255.257139 221.406091 
L 262.742337 213.851227 
L 249.102809 209.557456 
z
" style="fill:#0a0667;"/>
    <path clip-path="url(#p8900a6744f)" d="M 188.144156 200.107676 
L 201.262108 204.292457 
L 200.385081 129.352352 
L 186.776618 125.447758 
z
" style="fill:#e0a327;"/>
    <path clip-path="url(#p8900a6744f)" d="M 220.127123 220.338193 
L 220.126463 220.031693 
L 227.94978 212.501335 
L 227.94922 212.80596 
z
" style="fill:#0b0777;"/>
    <path clip-path="url(#p8900a6744f)" d="M 220.127123 220.338193 
L 227.94922 212.80596 
L 227.951335 211.655903 
L 220.124631 219.181051 
z
" style="fill:#09033a;"/>
    <path clip-path="url(#p8900a6744f)" d="M 193.264978 211.654059 
L 201.262108 204.292457 
L 200.693549 155.710251 
L 192.491604 162.761438 
z
" style="fill:#5a242d;"/>
    <path clip-path="url(#p8900a6744f)" d="M 180.063228 207.386128 
L 188.144156 200.107676 
L 186.796979 126.559375 
L 178.398417 133.359232 
z
" style="fill:#6a4b13;"/>
    <path clip-path="url(#p8900a6744f)" d="M 255.255385 221.516949 
L 262.740181 213.961405 
L 262.742337 213.851227 
L 255.257139 221.406091 
z
" style="fill:#050338;"/>
    <path clip-path="url(#p8900a6744f)" d="M 206.61873 215.971129 
L 220.127123 220.338193 
L 220.124631 219.181051 
L 206.608306 214.818084 
z
" style="fill:#13067a;"/>
    <path clip-path="url(#p8900a6744f)" d="M 220.127123 220.338193 
L 227.94922 212.80596 
L 241.523583 217.136342 
L 233.792858 224.756123 
z
" style="fill:#070448;"/>
    <path clip-path="url(#p8900a6744f)" d="M 180.063228 207.386128 
L 193.264978 211.654059 
L 192.491604 162.761438 
L 178.967707 158.673053 
z
" style="fill:#bf4d5f;"/>
    <path clip-path="url(#p8900a6744f)" d="M 220.126463 220.031693 
L 233.794349 224.448534 
L 241.526264 216.830636 
L 227.94978 212.501335 
z
" style="fill:#0a0667;"/>
    <path clip-path="url(#p8900a6744f)" d="M 167.010898 203.166503 
L 180.063228 207.386128 
L 178.398417 133.359232 
L 164.867955 129.416461 
z
" style="fill:#e09f29;"/>
    <path clip-path="url(#p8900a6744f)" d="M 241.523583 217.136342 
L 255.255385 221.516949 
L 255.257139 221.406091 
L 241.524552 217.025877 
z
" style="fill:#0b0777;"/>
    <path clip-path="url(#p8900a6744f)" d="M 241.523583 217.136342 
L 241.524808 216.996666 
L 255.257602 221.376777 
L 255.255385 221.516949 
z
" style="fill:#050338;"/>
    <path clip-path="url(#p8900a6744f)" d="M 233.792858 224.756123 
L 233.793539 224.615587 
L 241.524808 216.996666 
L 241.523583 217.136342 
z
" style="fill:#0b0777;"/>
    <path clip-path="url(#p8900a6744f)" d="M 233.792858 224.756123 
L 241.523583 217.136342 
L 241.526264 216.830636 
L 233.794349 224.448534 
z
" style="fill:#050338;"/>
    <path clip-path="url(#p8900a6744f)" d="M 173.3571 122.824496 
L 186.799346 126.688571 
L 195.029008 120.024148 
L 181.673367 116.236921 
z
" style="fill:#c28a24;"/>
    <path clip-path="url(#p8900a6744f)" d="M 220.127123 220.338193 
L 233.792858 224.756123 
L 233.794349 224.448534 
L 220.126463 220.031693 
z
" style="fill:#0b0777;"/>
    <path clip-path="url(#p8900a6744f)" d="M 233.792858 224.756123 
L 241.523583 217.136342 
L 255.255385 221.516949 
L 247.618703 229.225814 
z
" style="fill:#070448;"/>
    <path clip-path="url(#p8900a6744f)" d="M 233.793539 224.615587 
L 247.620389 229.084779 
L 255.257602 221.376777 
L 241.524808 216.996666 
z
" style="fill:#0a0667;"/>
    <path clip-path="url(#p8900a6744f)" d="M 194.812981 104.869564 
L 208.422991 108.640423 
L 216.460688 102.136855 
L 202.940333 98.441219 
z
" style="fill:#b8bf1a;"/>
    <path clip-path="url(#p8900a6744f)" d="M 178.967707 158.673053 
L 192.491604 162.761438 
L 200.693549 155.710251 
L 187.257541 151.703464 
z
" style="fill:#a64352;"/>
    <path clip-path="url(#p8900a6744f)" d="M 247.618703 229.225814 
L 255.255385 221.516949 
L 255.257602 221.376777 
L 247.620389 229.084779 
z
" style="fill:#050338;"/>
    <path clip-path="url(#p8900a6744f)" d="M 186.776618 125.447758 
L 200.385081 129.352352 
L 208.530592 122.618229 
L 195.011441 118.791783 
z
" style="fill:#c28d22;"/>
    <path clip-path="url(#p8900a6744f)" d="M 233.792858 224.756123 
L 247.618703 229.225814 
L 247.620389 229.084779 
L 233.793539 224.615587 
z
" style="fill:#0b0777;"/>
    <path clip-path="url(#p8900a6744f)" d="M 164.867955 129.416461 
L 178.398417 133.359232 
L 186.796979 126.559375 
L 173.353905 122.695808 
z
" style="fill:#c28a24;"/>
   </g>
   <g id="text_18">
    <!-- W10__H15__A040_bars_extracted.txt -->
    <g transform="translate(110.101875 28.56)scale(0.12 -0.12)">
     <defs>
      <path d="M 3.328125 72.90625 
L 13.28125 72.90625 
L 28.609375 11.28125 
L 43.890625 72.90625 
L 54.984375 72.90625 
L 70.3125 11.28125 
L 85.59375 72.90625 
L 95.609375 72.90625 
L 77.296875 0 
L 64.890625 0 
L 49.515625 63.28125 
L 33.984375 0 
L 21.578125 0 
z
" id="DejaVuSans-87"/>
      <path d="M 50.984375 -16.609375 
L 50.984375 -23.578125 
L -0.984375 -23.578125 
L -0.984375 -16.609375 
z
" id="DejaVuSans-95"/>
      <path d="M 9.8125 72.90625 
L 19.671875 72.90625 
L 19.671875 43.015625 
L 55.515625 43.015625 
L 55.515625 72.90625 
L 65.375 72.90625 
L 65.375 0 
L 55.515625 0 
L 55.515625 34.71875 
L 19.671875 34.71875 
L 19.671875 0 
L 9.8125 0 
z
" id="DejaVuSans-72"/>
      <path d="M 34.1875 63.1875 
L 20.796875 26.90625 
L 47.609375 26.90625 
z
M 28.609375 72.90625 
L 39.796875 72.90625 
L 67.578125 0 
L 57.328125 0 
L 50.6875 18.703125 
L 17.828125 18.703125 
L 11.1875 0 
L 0.78125 0 
z
" id="DejaVuSans-65"/>
      <path d="M 48.6875 27.296875 
Q 48.6875 37.203125 44.609375 42.84375 
Q 40.53125 48.484375 33.40625 48.484375 
Q 26.265625 48.484375 22.1875 42.84375 
Q 18.109375 37.203125 18.109375 27.296875 
Q 18.109375 17.390625 22.1875 11.75 
Q 26.265625 6.109375 33.40625 6.109375 
Q 40.53125 6.109375 44.609375 11.75 
Q 48.6875 17.390625 48.6875 27.296875 
z
M 18.109375 46.390625 
Q 20.953125 51.265625 25.265625 53.625 
Q 29.59375 56 35.59375 56 
Q 45.5625 56 51.78125 48.09375 
Q 58.015625 40.1875 58.015625 27.296875 
Q 58.015625 14.40625 51.78125 6.484375 
Q 45.5625 -1.421875 35.59375 -1.421875 
Q 29.59375 -1.421875 25.265625 0.953125 
Q 20.953125 3.328125 18.109375 8.203125 
L 18.109375 0 
L 9.078125 0 
L 9.078125 75.984375 
L 18.109375 75.984375 
z
" id="DejaVuSans-98"/>
      <path d="M 34.28125 27.484375 
Q 23.390625 27.484375 19.1875 25 
Q 14.984375 22.515625 14.984375 16.5 
Q 14.984375 11.71875 18.140625 8.90625 
Q 21.296875 6.109375 26.703125 6.109375 
Q 34.1875 6.109375 38.703125 11.40625 
Q 43.21875 16.703125 43.21875 25.484375 
L 43.21875 27.484375 
z
M 52.203125 31.203125 
L 52.203125 0 
L 43.21875 0 
L 43.21875 8.296875 
Q 40.140625 3.328125 35.546875 0.953125 
Q 30.953125 -1.421875 24.3125 -1.421875 
Q 15.921875 -1.421875 10.953125 3.296875 
Q 6 8.015625 6 15.921875 
Q 6 25.140625 12.171875 29.828125 
Q 18.359375 34.515625 30.609375 34.515625 
L 43.21875 34.515625 
L 43.21875 35.40625 
Q 43.21875 41.609375 39.140625 45 
Q 35.0625 48.390625 27.6875 48.390625 
Q 23 48.390625 18.546875 47.265625 
Q 14.109375 46.140625 10.015625 43.890625 
L 10.015625 52.203125 
Q 14.9375 54.109375 19.578125 55.046875 
Q 24.21875 56 28.609375 56 
Q 40.484375 56 46.34375 49.84375 
Q 52.203125 43.703125 52.203125 31.203125 
z
" id="DejaVuSans-97"/>
      <path d="M 41.109375 46.296875 
Q 39.59375 47.171875 37.8125 47.578125 
Q 36.03125 48 33.890625 48 
Q 26.265625 48 22.1875 43.046875 
Q 18.109375 38.09375 18.109375 28.8125 
L 18.109375 0 
L 9.078125 0 
L 9.078125 54.6875 
L 18.109375 54.6875 
L 18.109375 46.1875 
Q 20.953125 51.171875 25.484375 53.578125 
Q 30.03125 56 36.53125 56 
Q 37.453125 56 38.578125 55.875 
Q 39.703125 55.765625 41.0625 55.515625 
z
" id="DejaVuSans-114"/>
      <path d="M 44.28125 53.078125 
L 44.28125 44.578125 
Q 40.484375 46.53125 36.375 47.5 
Q 32.28125 48.484375 27.875 48.484375 
Q 21.1875 48.484375 17.84375 46.4375 
Q 14.5 44.390625 14.5 40.28125 
Q 14.5 37.15625 16.890625 35.375 
Q 19.28125 33.59375 26.515625 31.984375 
L 29.59375 31.296875 
Q 39.15625 29.25 43.1875 25.515625 
Q 47.21875 21.78125 47.21875 15.09375 
Q 47.21875 7.46875 41.1875 3.015625 
Q 35.15625 -1.421875 24.609375 -1.421875 
Q 20.21875 -1.421875 15.453125 -0.5625 
Q 10.6875 0.296875 5.421875 2 
L 5.421875 11.28125 
Q 10.40625 8.6875 15.234375 7.390625 
Q 20.0625 6.109375 24.8125 6.109375 
Q 31.15625 6.109375 34.5625 8.28125 
Q 37.984375 10.453125 37.984375 14.40625 
Q 37.984375 18.0625 35.515625 20.015625 
Q 33.0625 21.96875 24.703125 23.78125 
L 21.578125 24.515625 
Q 13.234375 26.265625 9.515625 29.90625 
Q 5.8125 33.546875 5.8125 39.890625 
Q 5.8125 47.609375 11.28125 51.796875 
Q 16.75 56 26.8125 56 
Q 31.78125 56 36.171875 55.265625 
Q 40.578125 54.546875 44.28125 53.078125 
z
" id="DejaVuSans-115"/>
      <path d="M 56.203125 29.59375 
L 56.203125 25.203125 
L 14.890625 25.203125 
Q 15.484375 15.921875 20.484375 11.0625 
Q 25.484375 6.203125 34.421875 6.203125 
Q 39.59375 6.203125 44.453125 7.46875 
Q 49.3125 8.734375 54.109375 11.28125 
L 54.109375 2.78125 
Q 49.265625 0.734375 44.1875 -0.34375 
Q 39.109375 -1.421875 33.890625 -1.421875 
Q 20.796875 -1.421875 13.15625 6.1875 
Q 5.515625 13.8125 5.515625 26.8125 
Q 5.515625 40.234375 12.765625 48.109375 
Q 20.015625 56 32.328125 56 
Q 43.359375 56 49.78125 48.890625 
Q 56.203125 41.796875 56.203125 29.59375 
z
M 47.21875 32.234375 
Q 47.125 39.59375 43.09375 43.984375 
Q 39.0625 48.390625 32.421875 48.390625 
Q 24.90625 48.390625 20.390625 44.140625 
Q 15.875 39.890625 15.1875 32.171875 
z
" id="DejaVuSans-101"/>
      <path d="M 54.890625 54.6875 
L 35.109375 28.078125 
L 55.90625 0 
L 45.3125 0 
L 29.390625 21.484375 
L 13.484375 0 
L 2.875 0 
L 24.125 28.609375 
L 4.6875 54.6875 
L 15.28125 54.6875 
L 29.78125 35.203125 
L 44.28125 54.6875 
z
" id="DejaVuSans-120"/>
      <path d="M 18.3125 70.21875 
L 18.3125 54.6875 
L 36.8125 54.6875 
L 36.8125 47.703125 
L 18.3125 47.703125 
L 18.3125 18.015625 
Q 18.3125 11.328125 20.140625 9.421875 
Q 21.96875 7.515625 27.59375 7.515625 
L 36.8125 7.515625 
L 36.8125 0 
L 27.59375 0 
Q 17.1875 0 13.234375 3.875 
Q 9.28125 7.765625 9.28125 18.015625 
L 9.28125 47.703125 
L 2.6875 47.703125 
L 2.6875 54.6875 
L 9.28125 54.6875 
L 9.28125 70.21875 
z
" id="DejaVuSans-116"/>
      <path d="M 48.78125 52.59375 
L 48.78125 44.1875 
Q 44.96875 46.296875 41.140625 47.34375 
Q 37.3125 48.390625 33.40625 48.390625 
Q 24.65625 48.390625 19.8125 42.84375 
Q 14.984375 37.3125 14.984375 27.296875 
Q 14.984375 17.28125 19.8125 11.734375 
Q 24.65625 6.203125 33.40625 6.203125 
Q 37.3125 6.203125 41.140625 7.25 
Q 44.96875 8.296875 48.78125 10.40625 
L 48.78125 2.09375 
Q 45.015625 0.34375 40.984375 -0.53125 
Q 36.96875 -1.421875 32.421875 -1.421875 
Q 20.0625 -1.421875 12.78125 6.34375 
Q 5.515625 14.109375 5.515625 27.296875 
Q 5.515625 40.671875 12.859375 48.328125 
Q 20.21875 56 33.015625 56 
Q 37.15625 56 41.109375 55.140625 
Q 45.0625 54.296875 48.78125 52.59375 
z
" id="DejaVuSans-99"/>
      <path d="M 45.40625 46.390625 
L 45.40625 75.984375 
L 54.390625 75.984375 
L 54.390625 0 
L 45.40625 0 
L 45.40625 8.203125 
Q 42.578125 3.328125 38.25 0.953125 
Q 33.9375 -1.421875 27.875 -1.421875 
Q 17.96875 -1.421875 11.734375 6.484375 
Q 5.515625 14.40625 5.515625 27.296875 
Q 5.515625 40.1875 11.734375 48.09375 
Q 17.96875 56 27.875 56 
Q 33.9375 56 38.25 53.625 
Q 42.578125 51.265625 45.40625 46.390625 
z
M 14.796875 27.296875 
Q 14.796875 17.390625 18.875 11.75 
Q 22.953125 6.109375 30.078125 6.109375 
Q 37.203125 6.109375 41.296875 11.75 
Q 45.40625 17.390625 45.40625 27.296875 
Q 45.40625 37.203125 41.296875 42.84375 
Q 37.203125 48.484375 30.078125 48.484375 
Q 22.953125 48.484375 18.875 42.84375 
Q 14.796875 37.203125 14.796875 27.296875 
z
" id="DejaVuSans-100"/>
      <path d="M 10.6875 12.40625 
L 21 12.40625 
L 21 0 
L 10.6875 0 
z
" id="DejaVuSans-46"/>
     </defs>
     <use xlink:href="#DejaVuSans-87"/>
     <use x="98.876953" xlink:href="#DejaVuSans-49"/>
     <use x="162.5" xlink:href="#DejaVuSans-48"/>
     <use x="226.123047" xlink:href="#DejaVuSans-95"/>
     <use x="276.123047" xlink:href="#DejaVuSans-95"/>
     <use x="326.123047" xlink:href="#DejaVuSans-72"/>
     <use x="401.318359" xlink:href="#DejaVuSans-49"/>
     <use x="464.941406" xlink:href="#DejaVuSans-53"/>
     <use x="528.564453" xlink:href="#DejaVuSans-95"/>
     <use x="578.564453" xlink:href="#DejaVuSans-95"/>
     <use x="628.564453" xlink:href="#DejaVuSans-65"/>
     <use x="696.972656" xlink:href="#DejaVuSans-48"/>
     <use x="760.595703" xlink:href="#DejaVuSans-52"/>
     <use x="824.21875" xlink:href="#DejaVuSans-48"/>
     <use x="887.841797" xlink:href="#DejaVuSans-95"/>
     <use x="937.841797" xlink:href="#DejaVuSans-98"/>
     <use x="1001.318359" xlink:href="#DejaVuSans-97"/>
     <use x="1062.597656" xlink:href="#DejaVuSans-114"/>
     <use x="1103.710938" xlink:href="#DejaVuSans-115"/>
     <use x="1155.810547" xlink:href="#DejaVuSans-95"/>
     <use x="1205.810547" xlink:href="#DejaVuSans-101"/>
     <use x="1265.583984" xlink:href="#DejaVuSans-120"/>
     <use x="1324.763672" xlink:href="#DejaVuSans-116"/>
     <use x="1363.972656" xlink:href="#DejaVuSans-114"/>
     <use x="1405.085938" xlink:href="#DejaVuSans-97"/>
     <use x="1466.365234" xlink:href="#DejaVuSans-99"/>
     <use x="1521.345703" xlink:href="#DejaVuSans-116"/>
     <use x="1560.554688" xlink:href="#DejaVuSans-101"/>
     <use x="1622.078125" xlink:href="#DejaVuSans-100"/>
     <use x="1685.554688" xlink:href="#DejaVuSans-46"/>
     <use x="1717.341797" xlink:href="#DejaVuSans-116"/>
     <use x="1756.550781" xlink:href="#DejaVuSans-120"/>
     <use x="1815.730469" xlink:href="#DejaVuSans-116"/>
    </g>
   </g>
  </g>
 </g>
 <defs>
  <clipPath id="p8900a6744f">
   <rect height="217.44" width="217.44" x="112.68" y="34.56"/>
  </clipPath>
 </defs>
</svg>
