<?xml version="1.0" encoding="utf-8" standalone="no"?>
<!DOCTYPE svg PUBLIC "-//W3C//DTD SVG 1.1//EN"
  "http://www.w3.org/Graphics/SVG/1.1/DTD/svg11.dtd">
<!-- Created with matplotlib (https://matplotlib.org/) -->
<svg height="288pt" version="1.1" viewBox="0 0 432 288" width="432pt" xmlns="http://www.w3.org/2000/svg" xmlns:xlink="http://www.w3.org/1999/xlink">
 <metadata>
  <rdf:RDF xmlns:cc="http://creativecommons.org/ns#" xmlns:dc="http://purl.org/dc/elements/1.1/" xmlns:rdf="http://www.w3.org/1999/02/22-rdf-syntax-ns#">
   <cc:Work>
    <dc:type rdf:resource="http://purl.org/dc/dcmitype/StillImage"/>
    <dc:date>2021-06-13T21:56:42.087416</dc:date>
    <dc:format>image/svg+xml</dc:format>
    <dc:creator>
     <cc:Agent>
      <dc:title>Matplotlib v3.3.4, https://matplotlib.org/</dc:title>
     </cc:Agent>
    </dc:creator>
   </cc:Work>
  </rdf:RDF>
 </metadata>
 <defs>
  <style type="text/css">*{stroke-linecap:butt;stroke-linejoin:round;}</style>
 </defs>
 <g id="figure_1">
  <g id="patch_1">
   <path d="M 0 288 
L 432 288 
L 432 0 
L 0 0 
z
" style="fill:#ffffff;"/>
  </g>
  <g id="patch_2">
   <path d="M 112.68 252 
L 330.12 252 
L 330.12 34.56 
L 112.68 34.56 
z
" style="fill:#ffffff;"/>
  </g>
  <g id="pane3d_1">
   <g id="patch_3">
    <path d="M 129.09822 198.386264 
L 200.904009 138.197228 
L 199.90584 51.393878 
L 124.663773 106.302111 
" style="fill:#f2f2f2;opacity:0.5;stroke:#f2f2f2;stroke-linejoin:miter;"/>
   </g>
  </g>
  <g id="pane3d_2">
   <g id="patch_4">
    <path d="M 200.904009 138.197228 
L 316.12668 171.68791 
L 320.238571 81.894718 
L 199.90584 51.393878 
" style="fill:#e6e6e6;opacity:0.5;stroke:#e6e6e6;stroke-linejoin:miter;"/>
   </g>
  </g>
  <g id="pane3d_3">
   <g id="patch_5">
    <path d="M 129.09822 198.386264 
L 251.239879 238.27773 
L 316.12668 171.68791 
L 200.904009 138.197228 
" style="fill:#ececec;opacity:0.5;stroke:#ececec;stroke-linejoin:miter;"/>
   </g>
  </g>
  <g id="axis3d_1">
   <g id="line2d_1">
    <path d="M 129.09822 198.386264 
L 251.239879 238.27773 
" style="fill:none;stroke:#000000;stroke-linecap:square;stroke-width:0.8;"/>
   </g>
   <g id="Line3DCollection_1">
    <path d="M 136.495759 200.802301 
L 207.911499 140.234029 
L 207.209612 53.245171 
" style="fill:none;stroke:#b0b0b0;stroke-width:0.8;"/>
    <path d="M 162.23134 209.207541 
L 232.260894 147.311436 
L 232.60309 59.681678 
" style="fill:none;stroke:#b0b0b0;stroke-width:0.8;"/>
    <path d="M 188.559037 217.806167 
L 257.123632 154.538053 
L 258.555303 66.259807 
" style="fill:none;stroke:#b0b0b0;stroke-width:0.8;"/>
    <path d="M 215.499525 226.604931 
L 282.516121 161.918647 
L 285.084894 72.984285 
" style="fill:none;stroke:#b0b0b0;stroke-width:0.8;"/>
    <path d="M 243.074449 235.610901 
L 308.455474 169.458193 
L 312.21135 79.860051 
" style="fill:none;stroke:#b0b0b0;stroke-width:0.8;"/>
   </g>
   <g id="xtick_1">
    <g id="line2d_2">
     <path d="M 137.117644 200.274876 
L 135.249322 201.859414 
" style="fill:none;stroke:#000000;stroke-linecap:square;stroke-width:0.8;"/>
    </g>
    <g id="text_1">
     <!-- 0 -->
     <g transform="translate(125.77919 224.124533)scale(0.1 -0.1)">
      <defs>
       <path d="M 31.78125 66.40625 
Q 24.171875 66.40625 20.328125 58.90625 
Q 16.5 51.421875 16.5 36.375 
Q 16.5 21.390625 20.328125 13.890625 
Q 24.171875 6.390625 31.78125 6.390625 
Q 39.453125 6.390625 43.28125 13.890625 
Q 47.125 21.390625 47.125 36.375 
Q 47.125 51.421875 43.28125 58.90625 
Q 39.453125 66.40625 31.78125 66.40625 
z
M 31.78125 74.21875 
Q 44.046875 74.21875 50.515625 64.515625 
Q 56.984375 54.828125 56.984375 36.375 
Q 56.984375 17.96875 50.515625 8.265625 
Q 44.046875 -1.421875 31.78125 -1.421875 
Q 19.53125 -1.421875 13.0625 8.265625 
Q 6.59375 17.96875 6.59375 36.375 
Q 6.59375 54.828125 13.0625 64.515625 
Q 19.53125 74.21875 31.78125 74.21875 
z
" id="DejaVuSans-48"/>
      </defs>
      <use xlink:href="#DejaVuSans-48"/>
     </g>
    </g>
   </g>
   <g id="xtick_2">
    <g id="line2d_3">
     <path d="M 162.841716 208.668056 
L 161.007937 210.288854 
" style="fill:none;stroke:#000000;stroke-linecap:square;stroke-width:0.8;"/>
    </g>
    <g id="text_2">
     <!-- 2 -->
     <g transform="translate(151.547192 232.748132)scale(0.1 -0.1)">
      <defs>
       <path d="M 19.1875 8.296875 
L 53.609375 8.296875 
L 53.609375 0 
L 7.328125 0 
L 7.328125 8.296875 
Q 12.9375 14.109375 22.625 23.890625 
Q 32.328125 33.6875 34.8125 36.53125 
Q 39.546875 41.84375 41.421875 45.53125 
Q 43.3125 49.21875 43.3125 52.78125 
Q 43.3125 58.59375 39.234375 62.25 
Q 35.15625 65.921875 28.609375 65.921875 
Q 23.96875 65.921875 18.8125 64.3125 
Q 13.671875 62.703125 7.8125 59.421875 
L 7.8125 69.390625 
Q 13.765625 71.78125 18.9375 73 
Q 24.125 74.21875 28.421875 74.21875 
Q 39.75 74.21875 46.484375 68.546875 
Q 53.21875 62.890625 53.21875 53.421875 
Q 53.21875 48.921875 51.53125 44.890625 
Q 49.859375 40.875 45.40625 35.40625 
Q 44.1875 33.984375 37.640625 27.21875 
Q 31.109375 20.453125 19.1875 8.296875 
z
" id="DejaVuSans-50"/>
      </defs>
      <use xlink:href="#DejaVuSans-50"/>
     </g>
    </g>
   </g>
   <g id="xtick_3">
    <g id="line2d_4">
     <path d="M 189.15721 217.254202 
L 187.360066 218.91252 
" style="fill:none;stroke:#000000;stroke-linecap:square;stroke-width:0.8;"/>
    </g>
    <g id="text_3">
     <!-- 4 -->
     <g transform="translate(177.91082 241.571064)scale(0.1 -0.1)">
      <defs>
       <path d="M 37.796875 64.3125 
L 12.890625 25.390625 
L 37.796875 25.390625 
z
M 35.203125 72.90625 
L 47.609375 72.90625 
L 47.609375 25.390625 
L 58.015625 25.390625 
L 58.015625 17.1875 
L 47.609375 17.1875 
L 47.609375 0 
L 37.796875 0 
L 37.796875 17.1875 
L 4.890625 17.1875 
L 4.890625 26.703125 
z
" id="DejaVuSans-52"/>
      </defs>
      <use xlink:href="#DejaVuSans-52"/>
     </g>
    </g>
   </g>
   <g id="xtick_4">
    <g id="line2d_5">
     <path d="M 216.084757 226.040048 
L 214.326462 227.737204 
" style="fill:none;stroke:#000000;stroke-linecap:square;stroke-width:0.8;"/>
    </g>
    <g id="text_4">
     <!-- 6 -->
     <g transform="translate(204.890965 250.600322)scale(0.1 -0.1)">
      <defs>
       <path d="M 33.015625 40.375 
Q 26.375 40.375 22.484375 35.828125 
Q 18.609375 31.296875 18.609375 23.390625 
Q 18.609375 15.53125 22.484375 10.953125 
Q 26.375 6.390625 33.015625 6.390625 
Q 39.65625 6.390625 43.53125 10.953125 
Q 47.40625 15.53125 47.40625 23.390625 
Q 47.40625 31.296875 43.53125 35.828125 
Q 39.65625 40.375 33.015625 40.375 
z
M 52.59375 71.296875 
L 52.59375 62.3125 
Q 48.875 64.0625 45.09375 64.984375 
Q 41.3125 65.921875 37.59375 65.921875 
Q 27.828125 65.921875 22.671875 59.328125 
Q 17.53125 52.734375 16.796875 39.40625 
Q 19.671875 43.65625 24.015625 45.921875 
Q 28.375 48.1875 33.59375 48.1875 
Q 44.578125 48.1875 50.953125 41.515625 
Q 57.328125 34.859375 57.328125 23.390625 
Q 57.328125 12.15625 50.6875 5.359375 
Q 44.046875 -1.421875 33.015625 -1.421875 
Q 20.359375 -1.421875 13.671875 8.265625 
Q 6.984375 17.96875 6.984375 36.375 
Q 6.984375 53.65625 15.1875 63.9375 
Q 23.390625 74.21875 37.203125 74.21875 
Q 40.921875 74.21875 44.703125 73.484375 
Q 48.484375 72.75 52.59375 71.296875 
z
" id="DejaVuSans-54"/>
      </defs>
      <use xlink:href="#DejaVuSans-54"/>
     </g>
    </g>
   </g>
   <g id="xtick_5">
    <g id="line2d_6">
     <path d="M 243.645962 235.032643 
L 241.928856 236.770015 
" style="fill:none;stroke:#000000;stroke-linecap:square;stroke-width:0.8;"/>
    </g>
    <g id="text_5">
     <!-- 8 -->
     <g transform="translate(232.509511 259.84323)scale(0.1 -0.1)">
      <defs>
       <path d="M 31.78125 34.625 
Q 24.75 34.625 20.71875 30.859375 
Q 16.703125 27.09375 16.703125 20.515625 
Q 16.703125 13.921875 20.71875 10.15625 
Q 24.75 6.390625 31.78125 6.390625 
Q 38.8125 6.390625 42.859375 10.171875 
Q 46.921875 13.96875 46.921875 20.515625 
Q 46.921875 27.09375 42.890625 30.859375 
Q 38.875 34.625 31.78125 34.625 
z
M 21.921875 38.8125 
Q 15.578125 40.375 12.03125 44.71875 
Q 8.5 49.078125 8.5 55.328125 
Q 8.5 64.0625 14.71875 69.140625 
Q 20.953125 74.21875 31.78125 74.21875 
Q 42.671875 74.21875 48.875 69.140625 
Q 55.078125 64.0625 55.078125 55.328125 
Q 55.078125 49.078125 51.53125 44.71875 
Q 48 40.375 41.703125 38.8125 
Q 48.828125 37.15625 52.796875 32.3125 
Q 56.78125 27.484375 56.78125 20.515625 
Q 56.78125 9.90625 50.3125 4.234375 
Q 43.84375 -1.421875 31.78125 -1.421875 
Q 19.734375 -1.421875 13.25 4.234375 
Q 6.78125 9.90625 6.78125 20.515625 
Q 6.78125 27.484375 10.78125 32.3125 
Q 14.796875 37.15625 21.921875 38.8125 
z
M 18.3125 54.390625 
Q 18.3125 48.734375 21.84375 45.5625 
Q 25.390625 42.390625 31.78125 42.390625 
Q 38.140625 42.390625 41.71875 45.5625 
Q 45.3125 48.734375 45.3125 54.390625 
Q 45.3125 60.0625 41.71875 63.234375 
Q 38.140625 66.40625 31.78125 66.40625 
Q 25.390625 66.40625 21.84375 63.234375 
Q 18.3125 60.0625 18.3125 54.390625 
z
" id="DejaVuSans-56"/>
      </defs>
      <use xlink:href="#DejaVuSans-56"/>
     </g>
    </g>
   </g>
  </g>
  <g id="axis3d_2">
   <g id="line2d_7">
    <path d="M 316.12668 171.68791 
L 251.239879 238.27773 
" style="fill:none;stroke:#000000;stroke-linecap:square;stroke-width:0.8;"/>
   </g>
   <g id="Line3DCollection_2">
    <path d="M 129.866948 102.505071 
L 134.046245 194.238731 
L 255.729543 233.67023 
" style="fill:none;stroke:#b0b0b0;stroke-width:0.8;"/>
    <path d="M 147.250212 89.819556 
L 150.59591 180.366474 
L 270.72626 218.279909 
" style="fill:none;stroke:#b0b0b0;stroke-width:0.8;"/>
    <path d="M 163.958537 77.626582 
L 166.530371 167.009893 
L 285.136664 203.491289 
" style="fill:none;stroke:#b0b0b0;stroke-width:0.8;"/>
    <path d="M 180.030483 65.898008 
L 181.883306 154.140758 
L 298.994481 189.269761 
" style="fill:none;stroke:#b0b0b0;stroke-width:0.8;"/>
    <path d="M 195.501727 54.607799 
L 196.68598 141.732864 
L 312.330896 175.583317 
" style="fill:none;stroke:#b0b0b0;stroke-width:0.8;"/>
   </g>
   <g id="xtick_6">
    <g id="line2d_8">
     <path d="M 254.704115 233.337939 
L 257.783053 234.33567 
" style="fill:none;stroke:#000000;stroke-linecap:square;stroke-width:0.8;"/>
    </g>
    <g id="text_6">
     <!-- 0 -->
     <g transform="translate(265.430654 254.693759)scale(0.1 -0.1)">
      <use xlink:href="#DejaVuSans-48"/>
     </g>
    </g>
   </g>
   <g id="xtick_7">
    <g id="line2d_9">
     <path d="M 269.71494 217.960734 
L 272.751463 218.919068 
" style="fill:none;stroke:#000000;stroke-linecap:square;stroke-width:0.8;"/>
    </g>
    <g id="text_7">
     <!-- 2 -->
     <g transform="translate(280.181112 239.024526)scale(0.1 -0.1)">
      <use xlink:href="#DejaVuSans-50"/>
     </g>
    </g>
   </g>
   <g id="xtick_8">
    <g id="line2d_10">
     <path d="M 284.139145 203.184468 
L 287.134182 204.105694 
" style="fill:none;stroke:#000000;stroke-linecap:square;stroke-width:0.8;"/>
    </g>
    <g id="text_8">
     <!-- 4 -->
     <g transform="translate(294.35448 223.968328)scale(0.1 -0.1)">
      <use xlink:href="#DejaVuSans-52"/>
     </g>
    </g>
   </g>
   <g id="xtick_9">
    <g id="line2d_11">
     <path d="M 298.010457 188.97459 
L 300.964927 189.860821 
" style="fill:none;stroke:#000000;stroke-linecap:square;stroke-width:0.8;"/>
    </g>
    <g id="text_9">
     <!-- 6 -->
     <g transform="translate(307.983974 209.489882)scale(0.1 -0.1)">
      <use xlink:href="#DejaVuSans-54"/>
     </g>
    </g>
   </g>
   <g id="xtick_10">
    <g id="line2d_12">
     <path d="M 311.360068 175.299146 
L 314.274875 176.15234 
" style="fill:none;stroke:#000000;stroke-linecap:square;stroke-width:0.8;"/>
    </g>
    <g id="text_10">
     <!-- 8 -->
     <g transform="translate(321.10031 195.556556)scale(0.1 -0.1)">
      <use xlink:href="#DejaVuSans-56"/>
     </g>
    </g>
   </g>
  </g>
  <g id="axis3d_3">
   <g id="line2d_13">
    <path d="M 316.12668 171.68791 
L 320.238571 81.894718 
" style="fill:none;stroke:#000000;stroke-linecap:square;stroke-width:0.8;"/>
   </g>
   <g id="Line3DCollection_3">
    <path d="M 316.205459 169.967571 
L 200.884845 136.530725 
L 129.013401 196.624949 
" style="fill:none;stroke:#b0b0b0;stroke-width:0.8;"/>
    <path d="M 317.036224 151.825792 
L 200.682852 118.964872 
L 128.118614 178.044124 
" style="fill:none;stroke:#b0b0b0;stroke-width:0.8;"/>
    <path d="M 317.882151 133.352901 
L 200.477349 101.093819 
L 127.20687 159.111168 
" style="fill:none;stroke:#b0b0b0;stroke-width:0.8;"/>
    <path d="M 318.74366 114.539752 
L 200.268245 82.909543 
L 126.277682 139.815976 
" style="fill:none;stroke:#b0b0b0;stroke-width:0.8;"/>
    <path d="M 319.621185 95.376855 
L 200.055443 64.403735 
L 125.330545 120.148052 
" style="fill:none;stroke:#b0b0b0;stroke-width:0.8;"/>
   </g>
   <g id="xtick_11">
    <g id="line2d_14">
     <path d="M 315.237563 169.686933 
L 318.143556 170.529516 
" style="fill:none;stroke:#000000;stroke-linecap:square;stroke-width:0.8;"/>
    </g>
    <g id="text_11">
     <!-- 0 -->
     <g transform="translate(331.275915 174.966846)scale(0.1 -0.1)">
      <use xlink:href="#DejaVuSans-48"/>
     </g>
    </g>
   </g>
   <g id="xtick_12">
    <g id="line2d_15">
     <path d="M 316.059246 151.54987 
L 318.992527 152.378297 
" style="fill:none;stroke:#000000;stroke-linecap:square;stroke-width:0.8;"/>
    </g>
    <g id="text_12">
     <!-- 5000 -->
     <g transform="translate(322.724294 156.868829)scale(0.1 -0.1)">
      <defs>
       <path d="M 10.796875 72.90625 
L 49.515625 72.90625 
L 49.515625 64.59375 
L 19.828125 64.59375 
L 19.828125 46.734375 
Q 21.96875 47.46875 24.109375 47.828125 
Q 26.265625 48.1875 28.421875 48.1875 
Q 40.625 48.1875 47.75 41.5 
Q 54.890625 34.8125 54.890625 23.390625 
Q 54.890625 11.625 47.5625 5.09375 
Q 40.234375 -1.421875 26.90625 -1.421875 
Q 22.3125 -1.421875 17.546875 -0.640625 
Q 12.796875 0.140625 7.71875 1.703125 
L 7.71875 11.625 
Q 12.109375 9.234375 16.796875 8.0625 
Q 21.484375 6.890625 26.703125 6.890625 
Q 35.15625 6.890625 40.078125 11.328125 
Q 45.015625 15.765625 45.015625 23.390625 
Q 45.015625 31 40.078125 35.4375 
Q 35.15625 39.890625 26.703125 39.890625 
Q 22.75 39.890625 18.8125 39.015625 
Q 14.890625 38.140625 10.796875 36.28125 
z
" id="DejaVuSans-53"/>
      </defs>
      <use xlink:href="#DejaVuSans-53"/>
      <use x="63.623047" xlink:href="#DejaVuSans-48"/>
      <use x="127.246094" xlink:href="#DejaVuSans-48"/>
      <use x="190.869141" xlink:href="#DejaVuSans-48"/>
     </g>
    </g>
   </g>
   <g id="xtick_13">
    <g id="line2d_16">
     <path d="M 316.89592 133.081916 
L 319.857004 133.895528 
" style="fill:none;stroke:#000000;stroke-linecap:square;stroke-width:0.8;"/>
    </g>
    <g id="text_13">
     <!-- 10000 -->
     <g transform="translate(320.553214 138.441735)scale(0.1 -0.1)">
      <defs>
       <path d="M 12.40625 8.296875 
L 28.515625 8.296875 
L 28.515625 63.921875 
L 10.984375 60.40625 
L 10.984375 69.390625 
L 28.421875 72.90625 
L 38.28125 72.90625 
L 38.28125 8.296875 
L 54.390625 8.296875 
L 54.390625 0 
L 12.40625 0 
z
" id="DejaVuSans-49"/>
      </defs>
      <use xlink:href="#DejaVuSans-49"/>
      <use x="63.623047" xlink:href="#DejaVuSans-48"/>
      <use x="127.246094" xlink:href="#DejaVuSans-48"/>
      <use x="190.869141" xlink:href="#DejaVuSans-48"/>
      <use x="254.492188" xlink:href="#DejaVuSans-48"/>
     </g>
    </g>
   </g>
   <g id="xtick_14">
    <g id="line2d_17">
     <path d="M 317.747999 114.273933 
L 320.737418 115.072039 
" style="fill:none;stroke:#000000;stroke-linecap:square;stroke-width:0.8;"/>
    </g>
    <g id="text_14">
     <!-- 15000 -->
     <g transform="translate(321.58192 119.676505)scale(0.1 -0.1)">
      <use xlink:href="#DejaVuSans-49"/>
      <use x="63.623047" xlink:href="#DejaVuSans-53"/>
      <use x="127.246094" xlink:href="#DejaVuSans-48"/>
      <use x="190.869141" xlink:href="#DejaVuSans-48"/>
      <use x="254.492188" xlink:href="#DejaVuSans-48"/>
     </g>
    </g>
   </g>
   <g id="xtick_15">
    <g id="line2d_18">
     <path d="M 318.615912 95.116442 
L 321.634213 95.898323 
" style="fill:none;stroke:#000000;stroke-linecap:square;stroke-width:0.8;"/>
    </g>
    <g id="text_15">
     <!-- 20000 -->
     <g transform="translate(322.629677 100.563746)scale(0.1 -0.1)">
      <use xlink:href="#DejaVuSans-50"/>
      <use x="63.623047" xlink:href="#DejaVuSans-48"/>
      <use x="127.246094" xlink:href="#DejaVuSans-48"/>
      <use x="190.869141" xlink:href="#DejaVuSans-48"/>
      <use x="254.492188" xlink:href="#DejaVuSans-48"/>
     </g>
    </g>
   </g>
  </g>
  <g id="axes_1">
   <g id="Poly3DCollection_1">
    <path clip-path="url(#p380b1aacea)" d="M 203.700438 142.115361 
L 203.641559 136.312496 
L 215.839598 139.843951 
L 215.863902 145.66701 
z
" style="fill:#15023f;"/>
    <path clip-path="url(#p380b1aacea)" d="M 196.401162 148.290596 
L 196.320733 142.452688 
L 203.641559 136.312496 
L 203.700438 142.115361 
z
" style="fill:#2d0486;"/>
    <path clip-path="url(#p380b1aacea)" d="M 196.401162 148.290596 
L 203.700438 142.115361 
L 215.863902 145.66701 
L 208.637156 151.907182 
z
" style="fill:#1b0251;"/>
    <path clip-path="url(#p380b1aacea)" d="M 196.320733 142.452688 
L 208.591715 146.048898 
L 215.839598 139.843951 
L 203.641559 136.312496 
z
" style="fill:#270374;"/>
    <path clip-path="url(#p380b1aacea)" d="M 215.863902 145.66701 
L 215.825785 136.53448 
L 228.172281 140.091491 
L 228.155024 149.255935 
z
" style="fill:#1c0142;"/>
    <path clip-path="url(#p380b1aacea)" d="M 208.637156 151.907182 
L 215.863902 145.66701 
L 215.839598 139.843951 
L 208.591715 146.048898 
z
" style="fill:#15023f;"/>
    <path clip-path="url(#p380b1aacea)" d="M 208.637156 151.907182 
L 208.565888 142.71927 
L 215.825785 136.53448 
L 215.863902 145.66701 
z
" style="fill:#3c038c;"/>
    <path clip-path="url(#p380b1aacea)" d="M 208.637156 151.907182 
L 215.863902 145.66701 
L 228.155024 149.255935 
L 221.002748 155.562072 
z
" style="fill:#240254;"/>
    <path clip-path="url(#p380b1aacea)" d="M 196.401162 148.290596 
L 208.637156 151.907182 
L 208.591715 146.048898 
L 196.320733 142.452688 
z
" style="fill:#2d0486;"/>
    <path clip-path="url(#p380b1aacea)" d="M 196.401162 148.290596 
L 196.241709 136.716752 
L 208.547066 140.292769 
L 208.637156 151.907182 
z
" style="fill:#220144;"/>
    <path clip-path="url(#p380b1aacea)" d="M 228.155024 149.255935 
L 228.170384 141.099024 
L 240.641518 144.697283 
L 240.575825 152.882725 
z
" style="fill:#1a0241;"/>
    <path clip-path="url(#p380b1aacea)" d="M 188.96817 154.578956 
L 196.401162 148.290596 
L 208.637156 151.907182 
L 201.27732 158.262275 
z
" style="fill:#2b0157;"/>
    <path clip-path="url(#p380b1aacea)" d="M 188.96817 154.578956 
L 188.764434 142.934712 
L 196.241709 136.716752 
L 196.401162 148.290596 
z
" style="fill:#480290;"/>
    <path clip-path="url(#p380b1aacea)" d="M 208.565888 142.71927 
L 220.987527 146.34196 
L 228.172281 140.091491 
L 215.825785 136.53448 
z
" style="fill:#340279;"/>
    <path clip-path="url(#p380b1aacea)" d="M 221.002748 155.562072 
L 220.9892 147.355651 
L 228.170384 141.099024 
L 228.155024 149.255935 
z
" style="fill:#38038a;"/>
    <path clip-path="url(#p380b1aacea)" d="M 221.002748 155.562072 
L 228.155024 149.255935 
L 228.172281 140.091491 
L 220.987527 146.34196 
z
" style="fill:#1c0142;"/>
    <path clip-path="url(#p380b1aacea)" d="M 221.002748 155.562072 
L 228.155024 149.255935 
L 240.575825 152.882725 
L 233.500008 159.25588 
z
" style="fill:#220253;"/>
    <path clip-path="url(#p380b1aacea)" d="M 208.637156 151.907182 
L 221.002748 155.562072 
L 220.987527 146.34196 
L 208.565888 142.71927 
z
" style="fill:#3c038c;"/>
    <path clip-path="url(#p380b1aacea)" d="M 240.575825 152.882725 
L 240.655643 142.937219 
L 253.270645 146.567585 
L 253.128369 156.547983 
z
" style="fill:#1f0143;"/>
    <path clip-path="url(#p380b1aacea)" d="M 201.27732 158.262275 
L 208.637156 151.907182 
L 221.002748 155.562072 
L 213.718049 161.984967 
z
" style="fill:#4a0558;"/>
    <path clip-path="url(#p380b1aacea)" d="M 220.9892 147.355651 
L 233.537416 151.020672 
L 240.641518 144.697283 
L 228.170384 141.099024 
z
" style="fill:#300378;"/>
    <path clip-path="url(#p380b1aacea)" d="M 201.27732 158.262275 
L 208.637156 151.907182 
L 208.547066 140.292769 
L 201.143775 146.577097 
z
" style="fill:#220144;"/>
    <path clip-path="url(#p380b1aacea)" d="M 188.764434 142.934712 
L 201.143775 146.577097 
L 208.547066 140.292769 
L 196.241709 136.716752 
z
" style="fill:#3e017d;"/>
    <path clip-path="url(#p380b1aacea)" d="M 233.500008 159.25588 
L 240.575825 152.882725 
L 240.641518 144.697283 
L 233.537416 151.020672 
z
" style="fill:#1a0241;"/>
    <path clip-path="url(#p380b1aacea)" d="M 208.637156 151.907182 
L 208.454754 128.391914 
L 220.96379 131.963505 
L 221.002748 155.562072 
z
" style="fill:#390445;"/>
    <path clip-path="url(#p380b1aacea)" d="M 233.500008 159.25588 
L 233.54546 149.249826 
L 240.655643 142.937219 
L 240.575825 152.882725 
z
" style="fill:#41028d;"/>
    <path clip-path="url(#p380b1aacea)" d="M 233.500008 159.25588 
L 240.575825 152.882725 
L 253.128369 156.547983 
L 246.131049 162.989229 
z
" style="fill:#270155;"/>
    <path clip-path="url(#p380b1aacea)" d="M 188.96817 154.578956 
L 201.27732 158.262275 
L 201.143775 146.577097 
L 188.764434 142.934712 
z
" style="fill:#480290;"/>
    <path clip-path="url(#p380b1aacea)" d="M 188.96817 154.578956 
L 188.758364 142.587813 
L 201.139797 146.228968 
L 201.27732 158.262275 
z
" style="fill:#230144;"/>
    <path clip-path="url(#p380b1aacea)" d="M 221.002748 155.562072 
L 233.500008 159.25588 
L 233.537416 151.020672 
L 220.9892 147.355651 
z
" style="fill:#38038a;"/>
    <path clip-path="url(#p380b1aacea)" d="M 201.27732 158.262275 
L 201.006922 134.60245 
L 208.454754 128.391914 
L 208.637156 151.907182 
z
" style="fill:#7a0892;"/>
    <path clip-path="url(#p380b1aacea)" d="M 181.397755 160.983577 
L 188.96817 154.578956 
L 201.27732 158.262275 
L 193.780682 164.735494 
z
" style="fill:#2c0157;"/>
    <path clip-path="url(#p380b1aacea)" d="M 181.397755 160.983577 
L 181.140675 148.919266 
L 188.758364 142.587813 
L 188.96817 154.578956 
z
" style="fill:#490290;"/>
    <path clip-path="url(#p380b1aacea)" d="M 253.128369 156.547983 
L 253.268 146.753097 
L 266.016999 150.423024 
L 265.814761 160.252323 
z
" style="fill:#1e0142;"/>
    <path clip-path="url(#p380b1aacea)" d="M 213.718049 161.984967 
L 221.002748 155.562072 
L 233.500008 159.25588 
L 226.292478 165.747667 
z
" style="fill:#4e0857;"/>
    <path clip-path="url(#p380b1aacea)" d="M 233.54546 149.249826 
L 246.239749 152.947973 
L 253.270645 146.567585 
L 240.655643 142.937219 
z
" style="fill:#38027b;"/>
    <path clip-path="url(#p380b1aacea)" d="M 246.131049 162.989229 
L 246.237728 153.134625 
L 253.268 146.753097 
L 253.128369 156.547983 
z
" style="fill:#3f038d;"/>
    <path clip-path="url(#p380b1aacea)" d="M 246.131049 162.989229 
L 253.128369 156.547983 
L 253.270645 146.567585 
L 246.239749 152.947973 
z
" style="fill:#1f0143;"/>
    <path clip-path="url(#p380b1aacea)" d="M 246.131049 162.989229 
L 253.128369 156.547983 
L 265.814761 160.252323 
L 258.898031 166.762758 
z
" style="fill:#260255;"/>
    <path clip-path="url(#p380b1aacea)" d="M 221.002748 155.562072 
L 220.960671 130.074257 
L 233.616198 133.677493 
L 233.500008 159.25588 
z
" style="fill:#3d0644;"/>
    <path clip-path="url(#p380b1aacea)" d="M 233.500008 159.25588 
L 246.131049 162.989229 
L 246.239749 152.947973 
L 233.54546 149.249826 
z
" style="fill:#41028d;"/>
    <path clip-path="url(#p380b1aacea)" d="M 213.718049 161.984967 
L 221.002748 155.562072 
L 220.96379 131.963505 
L 213.592849 138.24108 
z
" style="fill:#390445;"/>
    <path clip-path="url(#p380b1aacea)" d="M 213.718049 161.984967 
L 213.582824 136.339975 
L 220.960671 130.074257 
L 221.002748 155.562072 
z
" style="fill:#810e90;"/>
    <path clip-path="url(#p380b1aacea)" d="M 193.780682 164.735494 
L 201.27732 158.262275 
L 213.718049 161.984967 
L 206.297214 168.527892 
z
" style="fill:#661f46;"/>
    <path clip-path="url(#p380b1aacea)" d="M 193.780682 164.735494 
L 201.27732 158.262275 
L 201.139797 146.228968 
L 193.596749 152.628643 
z
" style="fill:#230144;"/>
    <path clip-path="url(#p380b1aacea)" d="M 265.814761 160.252323 
L 265.997184 151.386106 
L 278.877259 155.09898 
L 278.637155 163.996376 
z
" style="fill:#1c0142;"/>
    <path clip-path="url(#p380b1aacea)" d="M 181.140675 148.919266 
L 193.596749 152.628643 
L 201.139797 146.228968 
L 188.758364 142.587813 
z
" style="fill:#40017d;"/>
    <path clip-path="url(#p380b1aacea)" d="M 181.397755 160.983577 
L 181.230851 153.151075 
L 193.661269 156.875462 
L 193.780682 164.735494 
z
" style="fill:#1a0241;"/>
    <path clip-path="url(#p380b1aacea)" d="M 201.27732 158.262275 
L 213.718049 161.984967 
L 213.592849 138.24108 
L 201.006922 134.60245 
z
" style="fill:#7a0892;"/>
    <path clip-path="url(#p380b1aacea)" d="M 226.292478 165.747667 
L 233.500008 159.25588 
L 246.131049 162.989229 
L 239.002775 169.551023 
z
" style="fill:#4f0956;"/>
    <path clip-path="url(#p380b1aacea)" d="M 181.397755 160.983577 
L 193.780682 164.735494 
L 193.596749 152.628643 
L 181.140675 148.919266 
z
" style="fill:#490290;"/>
    <path clip-path="url(#p380b1aacea)" d="M 246.237728 153.134625 
L 259.068122 156.873435 
L 266.016999 150.423024 
L 253.268 146.753097 
z
" style="fill:#37027a;"/>
    <path clip-path="url(#p380b1aacea)" d="M 258.898031 166.762758 
L 259.051456 157.842438 
L 265.997184 151.386106 
L 265.814761 160.252323 
z
" style="fill:#3b038b;"/>
    <path clip-path="url(#p380b1aacea)" d="M 201.006922 134.60245 
L 213.592849 138.24108 
L 220.96379 131.963505 
L 208.454754 128.391914 
z
" style="fill:#6a077f;"/>
    <path clip-path="url(#p380b1aacea)" d="M 258.898031 166.762758 
L 265.814761 160.252323 
L 266.016999 150.423024 
L 259.068122 156.873435 
z
" style="fill:#1e0142;"/>
    <path clip-path="url(#p380b1aacea)" d="M 258.898031 166.762758 
L 265.814761 160.252323 
L 278.637155 163.996376 
L 271.803162 170.57712 
z
" style="fill:#240254;"/>
    <path clip-path="url(#p380b1aacea)" d="M 173.686069 167.507715 
L 173.487346 159.627441 
L 181.230851 153.151075 
L 181.397755 160.983577 
z
" style="fill:#360389;"/>
    <path clip-path="url(#p380b1aacea)" d="M 233.500008 159.25588 
L 233.619529 132.94428 
L 246.416895 136.58392 
L 246.131049 162.989229 
z
" style="fill:#3e0743;"/>
    <path clip-path="url(#p380b1aacea)" d="M 173.686069 167.507715 
L 181.397755 160.983577 
L 193.780682 164.735494 
L 186.143392 171.330164 
z
" style="fill:#210253;"/>
    <path clip-path="url(#p380b1aacea)" d="M 278.637155 163.996376 
L 278.680467 162.39139 
L 291.651688 166.170175 
L 291.597749 167.780781 
z
" style="fill:#09033a;"/>
    <path clip-path="url(#p380b1aacea)" d="M 246.131049 162.989229 
L 258.898031 166.762758 
L 259.068122 156.873435 
L 246.237728 153.134625 
z
" style="fill:#3f038d;"/>
    <path clip-path="url(#p380b1aacea)" d="M 201.27732 158.262275 
L 200.841544 120.131833 
L 213.516268 123.717583 
L 213.718049 161.984967 
z
" style="fill:#501837;"/>
    <path clip-path="url(#p380b1aacea)" d="M 226.292478 165.747667 
L 233.500008 159.25588 
L 233.616198 133.677493 
L 226.317494 140.011277 
z
" style="fill:#3d0644;"/>
    <path clip-path="url(#p380b1aacea)" d="M 226.292478 165.747667 
L 226.318211 139.273445 
L 233.619529 132.94428 
L 233.500008 159.25588 
z
" style="fill:#840f8f;"/>
    <path clip-path="url(#p380b1aacea)" d="M 206.297214 168.527892 
L 213.718049 161.984967 
L 226.292478 165.747667 
L 218.949524 172.361429 
z
" style="fill:#6b2441;"/>
    <path clip-path="url(#p380b1aacea)" d="M 271.803162 170.57712 
L 271.841378 168.962381 
L 278.680467 162.39139 
L 278.637155 163.996376 
z
" style="fill:#13067a;"/>
    <path clip-path="url(#p380b1aacea)" d="M 193.780682 164.735494 
L 193.197777 126.367396 
L 200.841544 120.131833 
L 201.27732 158.262275 
z
" style="fill:#a93374;"/>
    <path clip-path="url(#p380b1aacea)" d="M 239.002775 169.551023 
L 246.131049 162.989229 
L 258.898031 166.762758 
L 251.851153 173.395697 
z
" style="fill:#4e0857;"/>
    <path clip-path="url(#p380b1aacea)" d="M 213.718049 161.984967 
L 226.292478 165.747667 
L 226.317494 140.011277 
L 213.582824 136.339975 
z
" style="fill:#810e90;"/>
    <path clip-path="url(#p380b1aacea)" d="M 259.051456 157.842438 
L 272.015023 161.625348 
L 278.877259 155.09898 
L 265.997184 151.386106 
z
" style="fill:#330379;"/>
    <path clip-path="url(#p380b1aacea)" d="M 271.803162 170.57712 
L 278.637155 163.996376 
L 278.877259 155.09898 
L 272.015023 161.625348 
z
" style="fill:#1c0142;"/>
    <path clip-path="url(#p380b1aacea)" d="M 173.487346 159.627441 
L 185.992729 163.422119 
L 193.661269 156.875462 
L 181.230851 153.151075 
z
" style="fill:#2f0377;"/>
    <path clip-path="url(#p380b1aacea)" d="M 271.803162 170.57712 
L 278.637155 163.996376 
L 291.597749 167.780781 
L 284.848695 174.43298 
z
" style="fill:#0c044a;"/>
    <path clip-path="url(#p380b1aacea)" d="M 246.131049 162.989229 
L 246.409222 137.29264 
L 259.341574 140.974545 
L 258.898031 166.762758 
z
" style="fill:#3d0644;"/>
    <path clip-path="url(#p380b1aacea)" d="M 186.143392 171.330164 
L 193.780682 164.735494 
L 193.661269 156.875462 
L 185.992729 163.422119 
z
" style="fill:#1a0241;"/>
    <path clip-path="url(#p380b1aacea)" d="M 213.582824 136.339975 
L 226.317494 140.011277 
L 233.616198 133.677493 
L 220.960671 130.074257 
z
" style="fill:#700c7d;"/>
    <path clip-path="url(#p380b1aacea)" d="M 271.841378 168.962381 
L 284.89768 172.812571 
L 291.651688 166.170175 
L 278.680467 162.39139 
z
" style="fill:#11056a;"/>
    <path clip-path="url(#p380b1aacea)" d="M 291.597749 167.780781 
L 291.611688 167.364549 
L 304.715534 171.188506 
L 304.698789 171.606197 
z
" style="fill:#050338;"/>
    <path clip-path="url(#p380b1aacea)" d="M 186.143392 171.330164 
L 193.780682 164.735494 
L 206.297214 168.527892 
L 198.736391 175.194243 
z
" style="fill:#732e3a;"/>
    <path clip-path="url(#p380b1aacea)" d="M 173.686069 167.507715 
L 173.596638 163.961349 
L 186.07559 167.771342 
L 186.143392 171.330164 
z
" style="fill:#0f023c;"/>
    <path clip-path="url(#p380b1aacea)" d="M 258.898031 166.762758 
L 271.803162 170.57712 
L 272.015023 161.625348 
L 259.051456 157.842438 
z
" style="fill:#3b038b;"/>
    <path clip-path="url(#p380b1aacea)" d="M 239.002775 169.551023 
L 239.191733 143.695433 
L 246.409222 137.29264 
L 246.131049 162.989229 
z
" style="fill:#810e90;"/>
    <path clip-path="url(#p380b1aacea)" d="M 173.686069 167.507715 
L 186.143392 171.330164 
L 185.992729 163.422119 
L 173.487346 159.627441 
z
" style="fill:#360389;"/>
    <path clip-path="url(#p380b1aacea)" d="M 239.002775 169.551023 
L 246.131049 162.989229 
L 246.416895 136.58392 
L 239.196945 142.98224 
z
" style="fill:#3e0743;"/>
    <path clip-path="url(#p380b1aacea)" d="M 218.949524 172.361429 
L 226.292478 165.747667 
L 239.002775 169.551023 
L 231.739835 176.23678 
z
" style="fill:#712c3c;"/>
    <path clip-path="url(#p380b1aacea)" d="M 213.718049 161.984967 
L 213.499687 120.573099 
L 226.332876 124.18646 
L 226.292478 165.747667 
z
" style="fill:#541c33;"/>
    <path clip-path="url(#p380b1aacea)" d="M 284.848695 174.43298 
L 284.861354 174.014217 
L 291.611688 167.364549 
L 291.597749 167.780781 
z
" style="fill:#0b0777;"/>
    <path clip-path="url(#p380b1aacea)" d="M 284.848695 174.43298 
L 291.597749 167.780781 
L 291.651688 166.170175 
L 284.89768 172.812571 
z
" style="fill:#09033a;"/>
    <path clip-path="url(#p380b1aacea)" d="M 165.82912 174.154745 
L 165.724842 170.586765 
L 173.596638 163.961349 
L 173.686069 167.507715 
z
" style="fill:#200580;"/>
    <path clip-path="url(#p380b1aacea)" d="M 206.297214 168.527892 
L 213.718049 161.984967 
L 213.516268 123.717583 
L 205.951176 130.021578 
z
" style="fill:#501837;"/>
    <path clip-path="url(#p380b1aacea)" d="M 251.851153 173.395697 
L 258.898031 166.762758 
L 271.803162 170.57712 
L 264.839875 177.282368 
z
" style="fill:#4f0956;"/>
    <path clip-path="url(#p380b1aacea)" d="M 226.292478 165.747667 
L 239.002775 169.551023 
L 239.196945 142.98224 
L 226.318211 139.273445 
z
" style="fill:#840f8f;"/>
    <path clip-path="url(#p380b1aacea)" d="M 206.297214 168.527892 
L 205.922736 126.856853 
L 213.499687 120.573099 
L 213.718049 161.984967 
z
" style="fill:#b13c6c;"/>
    <path clip-path="url(#p380b1aacea)" d="M 165.82912 174.154745 
L 173.686069 167.507715 
L 186.143392 171.330164 
L 178.361455 178.049733 
z
" style="fill:#13034d;"/>
    <path clip-path="url(#p380b1aacea)" d="M 271.803162 170.57712 
L 284.848695 174.43298 
L 284.89768 172.812571 
L 271.841378 168.962381 
z
" style="fill:#13067a;"/>
    <path clip-path="url(#p380b1aacea)" d="M 284.848695 174.43298 
L 291.597749 167.780781 
L 304.698789 171.606197 
L 298.036935 178.33102 
z
" style="fill:#070448;"/>
    <path clip-path="url(#p380b1aacea)" d="M 284.861354 174.014217 
L 298.052437 177.910786 
L 304.715534 171.188506 
L 291.611688 167.364549 
z
" style="fill:#0a0667;"/>
    <path clip-path="url(#p380b1aacea)" d="M 258.898031 166.762758 
L 259.348425 140.57626 
L 272.42513 144.29707 
L 271.803162 170.57712 
z
" style="fill:#3e0743;"/>
    <path clip-path="url(#p380b1aacea)" d="M 193.780682 164.735494 
L 206.297214 168.527892 
L 205.951176 130.021578 
L 193.197777 126.367396 
z
" style="fill:#a93374;"/>
    <path clip-path="url(#p380b1aacea)" d="M 226.318211 139.273445 
L 239.196945 142.98224 
L 246.416895 136.58392 
L 233.619529 132.94428 
z
" style="fill:#720d7c;"/>
    <path clip-path="url(#p380b1aacea)" d="M 198.736391 175.194243 
L 206.297214 168.527892 
L 218.949524 172.361429 
L 211.467294 179.100638 
z
" style="fill:#80442a;"/>
    <path clip-path="url(#p380b1aacea)" d="M 271.803162 170.57712 
L 272.003623 162.10701 
L 285.105649 165.932973 
L 284.848695 174.43298 
z
" style="fill:#1a0241;"/>
    <path clip-path="url(#p380b1aacea)" d="M 165.724842 170.586765 
L 178.279064 174.469191 
L 186.07559 167.771342 
L 173.596638 163.961349 
z
" style="fill:#1b046f;"/>
    <path clip-path="url(#p380b1aacea)" d="M 251.851153 173.395697 
L 258.898031 166.762758 
L 259.341574 140.974545 
L 252.20762 147.447657 
z
" style="fill:#3d0644;"/>
    <path clip-path="url(#p380b1aacea)" d="M 251.851153 173.395697 
L 252.213126 147.046855 
L 259.348425 140.57626 
L 258.898031 166.762758 
z
" style="fill:#820e8f;"/>
    <path clip-path="url(#p380b1aacea)" d="M 193.780682 164.735494 
L 193.072 118.08849 
L 205.8765 121.711809 
L 206.297214 168.527892 
z
" style="fill:#5a242d;"/>
    <path clip-path="url(#p380b1aacea)" d="M 231.739835 176.23678 
L 239.002775 169.551023 
L 251.851153 173.395697 
L 244.670417 180.154631 
z
" style="fill:#6f293d;"/>
    <path clip-path="url(#p380b1aacea)" d="M 298.036935 178.33102 
L 304.698789 171.606197 
L 304.715534 171.188506 
L 298.052437 177.910786 
z
" style="fill:#050338;"/>
    <path clip-path="url(#p380b1aacea)" d="M 178.361455 178.049733 
L 186.143392 171.330164 
L 186.07559 167.771342 
L 178.279064 174.469191 
z
" style="fill:#0f023c;"/>
    <path clip-path="url(#p380b1aacea)" d="M 264.839875 177.282368 
L 265.012553 168.76038 
L 272.003623 162.10701 
L 271.803162 170.57712 
z
" style="fill:#38038a;"/>
    <path clip-path="url(#p380b1aacea)" d="M 226.292478 165.747667 
L 226.336596 120.358958 
L 239.335687 123.997878 
L 239.002775 169.551023 
z
" style="fill:#58222f;"/>
    <path clip-path="url(#p380b1aacea)" d="M 264.839875 177.282368 
L 271.803162 170.57712 
L 284.848695 174.43298 
L 277.971253 181.211726 
z
" style="fill:#220253;"/>
    <path clip-path="url(#p380b1aacea)" d="M 239.002775 169.551023 
L 251.851153 173.395697 
L 252.20762 147.447657 
L 239.191733 143.695433 
z
" style="fill:#810e90;"/>
    <path clip-path="url(#p380b1aacea)" d="M 186.143392 171.330164 
L 185.249085 124.389728 
L 193.072 118.08849 
L 193.780682 164.735494 
z
" style="fill:#be4c60;"/>
    <path clip-path="url(#p380b1aacea)" d="M 218.949524 172.361429 
L 226.292478 165.747667 
L 226.332876 124.18646 
L 218.837049 130.539663 
z
" style="fill:#541c33;"/>
    <path clip-path="url(#p380b1aacea)" d="M 284.848695 174.43298 
L 298.036935 178.33102 
L 298.052437 177.910786 
L 284.861354 174.014217 
z
" style="fill:#0b0777;"/>
    <path clip-path="url(#p380b1aacea)" d="M 165.82912 174.154745 
L 165.76102 171.824621 
L 178.307649 175.711413 
L 178.361455 178.049733 
z
" style="fill:#0b033b;"/>
    <path clip-path="url(#p380b1aacea)" d="M 284.848695 174.43298 
L 284.8785 173.447025 
L 298.073435 177.3416 
L 298.036935 178.33102 
z
" style="fill:#070339;"/>
    <path clip-path="url(#p380b1aacea)" d="M 178.361455 178.049733 
L 186.143392 171.330164 
L 198.736391 175.194243 
L 191.031582 181.987547 
z
" style="fill:#6f293e;"/>
    <path clip-path="url(#p380b1aacea)" d="M 193.197777 126.367396 
L 205.951176 130.021578 
L 213.516268 123.717583 
L 200.841544 120.131833 
z
" style="fill:#932c64;"/>
    <path clip-path="url(#p380b1aacea)" d="M 165.82912 174.154745 
L 178.361455 178.049733 
L 178.279064 174.469191 
L 165.724842 170.586765 
z
" style="fill:#200580;"/>
    <path clip-path="url(#p380b1aacea)" d="M 218.949524 172.361429 
L 218.826689 126.687348 
L 226.336596 120.358958 
L 226.292478 165.747667 
z
" style="fill:#bb4863;"/>
    <path clip-path="url(#p380b1aacea)" d="M 239.191733 143.695433 
L 252.20762 147.447657 
L 259.341574 140.974545 
L 246.409222 137.29264 
z
" style="fill:#700c7d;"/>
    <path clip-path="url(#p380b1aacea)" d="M 211.467294 179.100638 
L 218.949524 172.361429 
L 231.739835 176.23678 
L 224.338378 183.050047 
z
" style="fill:#814628;"/>
    <path clip-path="url(#p380b1aacea)" d="M 206.297214 168.527892 
L 218.949524 172.361429 
L 218.837049 130.539663 
L 205.922736 126.856853 
z
" style="fill:#b13c6c;"/>
    <path clip-path="url(#p380b1aacea)" d="M 157.822766 180.928173 
L 157.74461 178.583827 
L 165.76102 171.824621 
L 165.82912 174.154745 
z
" style="fill:#18057c;"/>
    <path clip-path="url(#p380b1aacea)" d="M 277.971253 181.211726 
L 277.997922 180.219758 
L 284.8785 173.447025 
L 284.848695 174.43298 
z
" style="fill:#0e0678;"/>
    <path clip-path="url(#p380b1aacea)" d="M 264.839875 177.282368 
L 271.803162 170.57712 
L 272.42513 144.29707 
L 265.375684 150.839134 
z
" style="fill:#3e0743;"/>
    <path clip-path="url(#p380b1aacea)" d="M 244.670417 180.154631 
L 251.851153 173.395697 
L 264.839875 177.282368 
L 257.743589 184.115686 
z
" style="fill:#6d2640;"/>
    <path clip-path="url(#p380b1aacea)" d="M 265.012553 168.76038 
L 278.201177 172.659584 
L 285.105649 165.932973 
L 272.003623 162.10701 
z
" style="fill:#300378;"/>
    <path clip-path="url(#p380b1aacea)" d="M 239.002775 169.551023 
L 239.326064 125.314746 
L 252.461063 128.999038 
L 251.851153 173.395697 
z
" style="fill:#572030;"/>
    <path clip-path="url(#p380b1aacea)" d="M 277.971253 181.211726 
L 284.848695 174.43298 
L 285.105649 165.932973 
L 278.201177 172.659584 
z
" style="fill:#1a0241;"/>
    <path clip-path="url(#p380b1aacea)" d="M 157.822766 180.928173 
L 165.82912 174.154745 
L 178.361455 178.049733 
L 170.430723 184.897786 
z
" style="fill:#0e034b;"/>
    <path clip-path="url(#p380b1aacea)" d="M 277.971253 181.211726 
L 284.848695 174.43298 
L 298.036935 178.33102 
L 291.24765 185.184478 
z
" style="fill:#090449;"/>
    <path clip-path="url(#p380b1aacea)" d="M 251.851153 173.395697 
L 264.839875 177.282368 
L 265.375684 150.839134 
L 252.213126 147.046855 
z
" style="fill:#820e8f;"/>
    <path clip-path="url(#p380b1aacea)" d="M 277.997922 180.219758 
L 291.281105 184.189017 
L 298.073435 177.3416 
L 284.8785 173.447025 
z
" style="fill:#0c0668;"/>
    <path clip-path="url(#p380b1aacea)" d="M 198.736391 175.194243 
L 206.297214 168.527892 
L 205.8765 121.711809 
L 198.133598 128.08315 
z
" style="fill:#5a242d;"/>
    <path clip-path="url(#p380b1aacea)" d="M 157.74461 178.583827 
L 170.367031 182.545175 
L 178.307649 175.711413 
L 165.76102 171.824621 
z
" style="fill:#15056c;"/>
    <path clip-path="url(#p380b1aacea)" d="M 191.031582 181.987547 
L 198.736391 175.194243 
L 211.467294 179.100638 
L 203.841786 185.968896 
z
" style="fill:#875b1b;"/>
    <path clip-path="url(#p380b1aacea)" d="M 206.297214 168.527892 
L 205.773581 110.259137 
L 218.792243 113.879288 
L 218.949524 172.361429 
z
" style="fill:#643521;"/>
    <path clip-path="url(#p380b1aacea)" d="M 231.739835 176.23678 
L 231.904582 131.72217 
L 239.326064 125.314746 
L 239.002775 169.551023 
z
" style="fill:#b84466;"/>
    <path clip-path="url(#p380b1aacea)" d="M 264.839875 177.282368 
L 277.971253 181.211726 
L 278.201177 172.659584 
L 265.012553 168.76038 
z
" style="fill:#38038a;"/>
    <path clip-path="url(#p380b1aacea)" d="M 231.739835 176.23678 
L 239.002775 169.551023 
L 239.335687 123.997878 
L 231.909488 130.396731 
z
" style="fill:#58222f;"/>
    <path clip-path="url(#p380b1aacea)" d="M 186.143392 171.330164 
L 185.304397 127.292963 
L 198.170885 130.997288 
L 198.736391 175.194243 
z
" style="fill:#562030;"/>
    <path clip-path="url(#p380b1aacea)" d="M 252.213126 147.046855 
L 265.375684 150.839134 
L 272.42513 144.29707 
L 259.348425 140.57626 
z
" style="fill:#710d7c;"/>
    <path clip-path="url(#p380b1aacea)" d="M 186.143392 171.330164 
L 198.736391 175.194243 
L 198.133598 128.08315 
L 185.249085 124.389728 
z
" style="fill:#be4c60;"/>
    <path clip-path="url(#p380b1aacea)" d="M 224.338378 183.050047 
L 231.739835 176.23678 
L 244.670417 180.154631 
L 237.351973 187.043183 
z
" style="fill:#814728;"/>
    <path clip-path="url(#p380b1aacea)" d="M 205.922736 126.856853 
L 218.837049 130.539663 
L 226.332876 124.18646 
L 213.499687 120.573099 
z
" style="fill:#9a345e;"/>
    <path clip-path="url(#p380b1aacea)" d="M 170.430723 184.897786 
L 178.361455 178.049733 
L 178.307649 175.711413 
L 170.367031 182.545175 
z
" style="fill:#0b033b;"/>
    <path clip-path="url(#p380b1aacea)" d="M 291.24765 185.184478 
L 298.036935 178.33102 
L 298.073435 177.3416 
L 291.281105 184.189017 
z
" style="fill:#070339;"/>
    <path clip-path="url(#p380b1aacea)" d="M 198.736391 175.194243 
L 197.986096 116.555152 
L 205.773581 110.259137 
L 206.297214 168.527892 
z
" style="fill:#d47046;"/>
    <path clip-path="url(#p380b1aacea)" d="M 218.949524 172.361429 
L 231.739835 176.23678 
L 231.909488 130.396731 
L 218.826689 126.687348 
z
" style="fill:#bb4863;"/>
    <path clip-path="url(#p380b1aacea)" d="M 178.361455 178.049733 
L 177.341746 133.735292 
L 185.304397 127.292963 
L 186.143392 171.330164 
z
" style="fill:#b74367;"/>
    <path clip-path="url(#p380b1aacea)" d="M 257.743589 184.115686 
L 264.839875 177.282368 
L 277.971253 181.211726 
L 270.961723 188.120663 
z
" style="fill:#4b0658;"/>
    <path clip-path="url(#p380b1aacea)" d="M 251.851153 173.395697 
L 252.43567 130.847455 
L 265.705141 134.579816 
L 264.839875 177.282368 
z
" style="fill:#551e32;"/>
    <path clip-path="url(#p380b1aacea)" d="M 157.822766 180.928173 
L 157.770791 179.369142 
L 170.388367 183.333262 
L 170.430723 184.897786 
z
" style="fill:#09033a;"/>
    <path clip-path="url(#p380b1aacea)" d="M 157.822766 180.928173 
L 170.430723 184.897786 
L 170.367031 182.545175 
L 157.74461 178.583827 
z
" style="fill:#18057c;"/>
    <path clip-path="url(#p380b1aacea)" d="M 277.971253 181.211726 
L 291.24765 185.184478 
L 291.281105 184.189017 
L 277.997922 180.219758 
z
" style="fill:#0e0678;"/>
    <path clip-path="url(#p380b1aacea)" d="M 170.430723 184.897786 
L 178.361455 178.049733 
L 191.031582 181.987547 
L 183.178635 188.911464 
z
" style="fill:#641c48;"/>
    <path clip-path="url(#p380b1aacea)" d="M 264.839875 177.282368 
L 265.34201 152.501002 
L 278.639888 156.341562 
L 277.971253 181.211726 
z
" style="fill:#3b0545;"/>
    <path clip-path="url(#p380b1aacea)" d="M 277.971253 181.211726 
L 278.049302 178.30866 
L 291.345558 182.271172 
L 291.24765 185.184478 
z
" style="fill:#0d023b;"/>
    <path clip-path="url(#p380b1aacea)" d="M 244.670417 180.154631 
L 245.106567 137.338601 
L 252.43567 130.847455 
L 251.851153 173.395697 
z
" style="fill:#b43f6a;"/>
    <path clip-path="url(#p380b1aacea)" d="M 203.841786 185.968896 
L 211.467294 179.100638 
L 224.338378 183.050047 
L 216.794403 189.994506 
z
" style="fill:#875e1a;"/>
    <path clip-path="url(#p380b1aacea)" d="M 149.662704 187.831639 
L 149.603792 186.263077 
L 157.770791 179.369142 
L 157.822766 180.928173 
z
" style="fill:#13067a;"/>
    <path clip-path="url(#p380b1aacea)" d="M 244.670417 180.154631 
L 251.851153 173.395697 
L 252.461063 128.999038 
L 245.125519 135.478158 
z
" style="fill:#572030;"/>
    <path clip-path="url(#p380b1aacea)" d="M 218.949524 172.361429 
L 218.788357 112.434262 
L 231.962438 116.08952 
L 231.739835 176.23678 
z
" style="fill:#65371f;"/>
    <path clip-path="url(#p380b1aacea)" d="M 257.743589 184.115686 
L 258.16175 159.180233 
L 265.34201 152.501002 
L 264.839875 177.282368 
z
" style="fill:#7c0a91;"/>
    <path clip-path="url(#p380b1aacea)" d="M 270.961723 188.120663 
L 271.030224 185.199829 
L 278.049302 178.30866 
L 277.971253 181.211726 
z
" style="fill:#1c057e;"/>
    <path clip-path="url(#p380b1aacea)" d="M 237.351973 187.043183 
L 244.670417 180.154631 
L 257.743589 184.115686 
L 250.510457 191.080779 
z
" style="fill:#7e402c;"/>
    <path clip-path="url(#p380b1aacea)" d="M 231.739835 176.23678 
L 244.670417 180.154631 
L 245.125519 135.478158 
L 231.904582 131.72217 
z
" style="fill:#b84466;"/>
    <path clip-path="url(#p380b1aacea)" d="M 211.467294 179.100638 
L 218.949524 172.361429 
L 218.792243 113.879288 
L 211.087966 120.246137 
z
" style="fill:#643521;"/>
    <path clip-path="url(#p380b1aacea)" d="M 149.662704 187.831639 
L 157.822766 180.928173 
L 170.430723 184.897786 
L 162.346885 191.878042 
z
" style="fill:#0c044a;"/>
    <path clip-path="url(#p380b1aacea)" d="M 211.467294 179.100638 
L 211.078591 118.791498 
L 218.788357 112.434262 
L 218.949524 172.361429 
z
" style="fill:#d67543;"/>
    <path clip-path="url(#p380b1aacea)" d="M 185.249085 124.389728 
L 198.133598 128.08315 
L 205.8765 121.711809 
L 193.072 118.08849 
z
" style="fill:#a54253;"/>
    <path clip-path="url(#p380b1aacea)" d="M 191.031582 181.987547 
L 198.736391 175.194243 
L 198.170885 130.997288 
L 190.288728 137.511882 
z
" style="fill:#562030;"/>
    <path clip-path="url(#p380b1aacea)" d="M 270.961723 188.120663 
L 277.971253 181.211726 
L 291.24765 185.184478 
L 284.327244 192.170297 
z
" style="fill:#11034c;"/>
    <path clip-path="url(#p380b1aacea)" d="M 178.361455 178.049733 
L 177.500388 140.629572 
L 190.404311 144.431957 
L 191.031582 181.987547 
z
" style="fill:#4e1638;"/>
    <path clip-path="url(#p380b1aacea)" d="M 149.603792 186.263077 
L 162.297707 190.303942 
L 170.388367 183.333262 
L 157.770791 179.369142 
z
" style="fill:#11056a;"/>
    <path clip-path="url(#p380b1aacea)" d="M 218.826689 126.687348 
L 231.909488 130.396731 
L 239.335687 123.997878 
L 226.336596 120.358958 
z
" style="fill:#a23f56;"/>
    <path clip-path="url(#p380b1aacea)" d="M 183.178635 188.911464 
L 191.031582 181.987547 
L 203.841786 185.968896 
L 196.068846 192.969946 
z
" style="fill:#867213;"/>
    <path clip-path="url(#p380b1aacea)" d="M 198.736391 175.194243 
L 211.467294 179.100638 
L 211.087966 120.246137 
L 197.986096 116.555152 
z
" style="fill:#d47046;"/>
    <path clip-path="url(#p380b1aacea)" d="M 271.030224 185.199829 
L 284.415875 189.239138 
L 291.345558 182.271172 
L 278.049302 178.30866 
z
" style="fill:#18046d;"/>
    <path clip-path="url(#p380b1aacea)" d="M 178.361455 178.049733 
L 191.031582 181.987547 
L 190.288728 137.511882 
L 177.341746 133.735292 
z
" style="fill:#b74367;"/>
    <path clip-path="url(#p380b1aacea)" d="M 170.430723 184.897786 
L 169.411292 147.242611 
L 177.500388 140.629572 
L 178.361455 178.049733 
z
" style="fill:#a62f77;"/>
    <path clip-path="url(#p380b1aacea)" d="M 257.743589 184.115686 
L 264.839875 177.282368 
L 265.705141 134.579816 
L 258.464213 141.143937 
z
" style="fill:#551e32;"/>
    <path clip-path="url(#p380b1aacea)" d="M 216.794403 189.994506 
L 224.338378 183.050047 
L 237.351973 187.043183 
L 229.891821 194.06512 
z
" style="fill:#876616;"/>
    <path clip-path="url(#p380b1aacea)" d="M 162.346885 191.878042 
L 170.430723 184.897786 
L 170.388367 183.333262 
L 162.297707 190.303942 
z
" style="fill:#09033a;"/>
    <path clip-path="url(#p380b1aacea)" d="M 231.739835 176.23678 
L 231.964019 115.662359 
L 245.289736 119.357274 
L 244.670417 180.154631 
z
" style="fill:#65381f;"/>
    <path clip-path="url(#p380b1aacea)" d="M 270.961723 188.120663 
L 277.971253 181.211726 
L 278.639888 156.341562 
L 271.548623 163.095636 
z
" style="fill:#3b0545;"/>
    <path clip-path="url(#p380b1aacea)" d="M 284.327244 192.170297 
L 291.24765 185.184478 
L 291.345558 182.271172 
L 284.415875 189.239138 
z
" style="fill:#0d023b;"/>
    <path clip-path="url(#p380b1aacea)" d="M 250.510457 191.080779 
L 257.743589 184.115686 
L 270.961723 188.120663 
L 263.816264 195.163579 
z
" style="fill:#722d3a;"/>
    <path clip-path="url(#p380b1aacea)" d="M 198.736391 175.194243 
L 197.84606 105.610643 
L 211.017154 109.259332 
L 211.467294 179.100638 
z
" style="fill:#694715;"/>
    <path clip-path="url(#p380b1aacea)" d="M 244.670417 180.154631 
L 257.743589 184.115686 
L 258.464213 141.143937 
L 245.106567 137.338601 
z
" style="fill:#b43f6a;"/>
    <path clip-path="url(#p380b1aacea)" d="M 149.662704 187.831639 
L 149.619454 186.680068 
L 162.31078 190.722406 
L 162.346885 191.878042 
z
" style="fill:#080339;"/>
    <path clip-path="url(#p380b1aacea)" d="M 149.662704 187.831639 
L 162.346885 191.878042 
L 162.297707 190.303942 
L 149.603792 186.263077 
z
" style="fill:#13067a;"/>
    <path clip-path="url(#p380b1aacea)" d="M 162.346885 191.878042 
L 170.430723 184.897786 
L 183.178635 188.911464 
L 175.173234 195.969799 
z
" style="fill:#480459;"/>
    <path clip-path="url(#p380b1aacea)" d="M 224.338378 183.050047 
L 231.739835 176.23678 
L 231.962438 116.08952 
L 224.338378 122.518734 
z
" style="fill:#65371f;"/>
    <path clip-path="url(#p380b1aacea)" d="M 224.338378 183.050047 
L 224.338378 122.088721 
L 231.964019 115.662359 
L 231.739835 176.23678 
z
" style="fill:#d67642;"/>
    <path clip-path="url(#p380b1aacea)" d="M 257.743589 184.115686 
L 270.961723 188.120663 
L 271.548623 163.095636 
L 258.16175 159.180233 
z
" style="fill:#7c0a91;"/>
    <path clip-path="url(#p380b1aacea)" d="M 231.904582 131.72217 
L 245.125519 135.478158 
L 252.461063 128.999038 
L 239.326064 125.314746 
z
" style="fill:#a03b58;"/>
    <path clip-path="url(#p380b1aacea)" d="M 270.961723 188.120663 
L 284.327244 192.170297 
L 284.415875 189.239138 
L 271.030224 185.199829 
z
" style="fill:#1c057e;"/>
    <path clip-path="url(#p380b1aacea)" d="M 191.031582 181.987547 
L 189.861893 111.956684 
L 197.84606 105.610643 
L 198.736391 175.194243 
z
" style="fill:#df972d;"/>
    <path clip-path="url(#p380b1aacea)" d="M 170.430723 184.897786 
L 169.792335 161.317376 
L 182.688473 165.246415 
L 183.178635 188.911464 
z
" style="fill:#380345;"/>
    <path clip-path="url(#p380b1aacea)" d="M 270.961723 188.120663 
L 271.112202 181.704335 
L 284.521944 185.731224 
L 284.327244 192.170297 
z
" style="fill:#16023f;"/>
    <path clip-path="url(#p380b1aacea)" d="M 196.068846 192.969946 
L 203.841786 185.968896 
L 216.794403 189.994506 
L 209.103753 197.073984 
z
" style="fill:#857613;"/>
    <path clip-path="url(#p380b1aacea)" d="M 141.344465 194.868925 
L 141.29593 193.710301 
L 149.619454 186.680068 
L 149.662704 187.831639 
z
" style="fill:#110679;"/>
    <path clip-path="url(#p380b1aacea)" d="M 258.16175 159.180233 
L 271.548623 163.095636 
L 278.639888 156.341562 
L 265.34201 152.501002 
z
" style="fill:#6c087e;"/>
    <path clip-path="url(#p380b1aacea)" d="M 211.467294 179.100638 
L 224.338378 183.050047 
L 224.338378 122.518734 
L 211.078591 118.791498 
z
" style="fill:#d67543;"/>
    <path clip-path="url(#p380b1aacea)" d="M 183.178635 188.911464 
L 191.031582 181.987547 
L 190.404311 144.431957 
L 182.395874 151.119648 
z
" style="fill:#4e1638;"/>
    <path clip-path="url(#p380b1aacea)" d="M 177.341746 133.735292 
L 190.288728 137.511882 
L 198.170885 130.997288 
L 185.304397 127.292963 
z
" style="fill:#9f3a59;"/>
    <path clip-path="url(#p380b1aacea)" d="M 244.670417 180.154631 
L 245.252456 123.01696 
L 258.705295 126.767941 
L 257.743589 184.115686 
z
" style="fill:#633223;"/>
    <path clip-path="url(#p380b1aacea)" d="M 229.891821 194.06512 
L 237.351973 187.043183 
L 250.510457 191.080779 
L 243.136481 198.181496 
z
" style="fill:#875a1c;"/>
    <path clip-path="url(#p380b1aacea)" d="M 162.346885 191.878042 
L 161.605596 168.150767 
L 169.792335 161.317376 
L 170.430723 184.897786 
z
" style="fill:#770693;"/>
    <path clip-path="url(#p380b1aacea)" d="M 263.816264 195.163579 
L 263.94492 188.707788 
L 271.112202 181.704335 
L 270.961723 188.120663 
z
" style="fill:#2f0486;"/>
    <path clip-path="url(#p380b1aacea)" d="M 141.344465 194.868925 
L 149.662704 187.831639 
L 162.346885 191.878042 
L 154.105465 198.994368 
z
" style="fill:#0a0449;"/>
    <path clip-path="url(#p380b1aacea)" d="M 263.816264 195.163579 
L 270.961723 188.120663 
L 284.327244 192.170297 
L 277.271882 199.292348 
z
" style="fill:#1c0251;"/>
    <path clip-path="url(#p380b1aacea)" d="M 170.430723 184.897786 
L 183.178635 188.911464 
L 182.395874 151.119648 
L 169.411292 147.242611 
z
" style="fill:#a62f77;"/>
    <path clip-path="url(#p380b1aacea)" d="M 141.29593 193.710301 
L 154.064162 197.831646 
L 162.31078 190.722406 
L 149.619454 186.680068 
z
" style="fill:#0f0569;"/>
    <path clip-path="url(#p380b1aacea)" d="M 211.467294 179.100638 
L 211.007794 107.806988 
L 224.338378 111.491591 
L 224.338378 183.050047 
z
" style="fill:#6a4a14;"/>
    <path clip-path="url(#p380b1aacea)" d="M 237.351973 187.043183 
L 237.728185 129.54094 
L 245.252456 123.01696 
L 244.670417 180.154631 
z
" style="fill:#d16b49;"/>
    <path clip-path="url(#p380b1aacea)" d="M 245.106567 137.338601 
L 258.464213 141.143937 
L 265.705141 134.579816 
L 252.43567 130.847455 
z
" style="fill:#9c375c;"/>
    <path clip-path="url(#p380b1aacea)" d="M 175.173234 195.969799 
L 183.178635 188.911464 
L 196.068846 192.969946 
L 188.144156 200.107676 
z
" style="fill:#876616;"/>
    <path clip-path="url(#p380b1aacea)" d="M 197.986096 116.555152 
L 211.087966 120.246137 
L 218.792243 113.879288 
L 205.773581 110.259137 
z
" style="fill:#b8613c;"/>
    <path clip-path="url(#p380b1aacea)" d="M 237.351973 187.043183 
L 244.670417 180.154631 
L 245.289736 119.357274 
L 237.752288 125.856826 
z
" style="fill:#65381f;"/>
    <path clip-path="url(#p380b1aacea)" d="M 257.743589 184.115686 
L 258.53414 136.974105 
L 272.071352 140.806814 
L 270.961723 188.120663 
z
" style="fill:#59232d;"/>
    <path clip-path="url(#p380b1aacea)" d="M 203.841786 185.968896 
L 211.467294 179.100638 
L 211.017154 109.259332 
L 203.117854 115.67786 
z
" style="fill:#694715;"/>
    <path clip-path="url(#p380b1aacea)" d="M 203.841786 185.968896 
L 203.102795 114.215664 
L 211.007794 107.806988 
L 211.467294 179.100638 
z
" style="fill:#e09c2b;"/>
    <path clip-path="url(#p380b1aacea)" d="M 209.103753 197.073984 
L 216.794403 189.994506 
L 229.891821 194.06512 
L 222.285805 201.224351 
z
" style="fill:#818015;"/>
    <path clip-path="url(#p380b1aacea)" d="M 154.105465 198.994368 
L 162.346885 191.878042 
L 162.31078 190.722406 
L 154.064162 197.831646 
z
" style="fill:#080339;"/>
    <path clip-path="url(#p380b1aacea)" d="M 162.346885 191.878042 
L 161.985625 180.314798 
L 174.885106 184.365352 
L 175.173234 195.969799 
z
" style="fill:#210143;"/>
    <path clip-path="url(#p380b1aacea)" d="M 263.94492 188.707788 
L 277.445363 192.813626 
L 284.521944 185.731224 
L 271.112202 181.704335 
z
" style="fill:#290375;"/>
    <path clip-path="url(#p380b1aacea)" d="M 224.338378 183.050047 
L 237.351973 187.043183 
L 237.752288 125.856826 
L 224.338378 122.088721 
z
" style="fill:#d67642;"/>
    <path clip-path="url(#p380b1aacea)" d="M 250.510457 191.080779 
L 251.135947 143.640251 
L 258.53414 136.974105 
L 257.743589 184.115686 
z
" style="fill:#bd4b60;"/>
    <path clip-path="url(#p380b1aacea)" d="M 243.136481 198.181496 
L 250.510457 191.080779 
L 263.816264 195.163579 
L 256.530882 202.34441 
z
" style="fill:#845022;"/>
    <path clip-path="url(#p380b1aacea)" d="M 191.031582 181.987547 
L 203.841786 185.968896 
L 203.117854 115.67786 
L 189.861893 111.956684 
z
" style="fill:#df972d;"/>
    <path clip-path="url(#p380b1aacea)" d="M 175.173234 195.969799 
L 183.178635 188.911464 
L 182.688473 165.246415 
L 174.581987 172.157159 
z
" style="fill:#380345;"/>
    <path clip-path="url(#p380b1aacea)" d="M 277.271882 199.292348 
L 284.327244 192.170297 
L 284.521944 185.731224 
L 277.445363 192.813626 
z
" style="fill:#16023f;"/>
    <path clip-path="url(#p380b1aacea)" d="M 169.411292 147.242611 
L 182.395874 151.119648 
L 190.404311 144.431957 
L 177.500388 140.629572 
z
" style="fill:#902967;"/>
    <path clip-path="url(#p380b1aacea)" d="M 141.344465 194.868925 
L 154.105465 198.994368 
L 154.064162 197.831646 
L 141.29593 193.710301 
z
" style="fill:#110679;"/>
    <path clip-path="url(#p380b1aacea)" d="M 154.105465 198.994368 
L 162.346885 191.878042 
L 175.173234 195.969799 
L 167.010898 203.166503 
z
" style="fill:#2a0156;"/>
    <path clip-path="url(#p380b1aacea)" d="M 154.105465 198.994368 
L 153.692166 187.359634 
L 161.985625 180.314798 
L 162.346885 191.878042 
z
" style="fill:#45028f;"/>
    <path clip-path="url(#p380b1aacea)" d="M 250.510457 191.080779 
L 257.743589 184.115686 
L 258.705295 126.767941 
L 251.271404 133.366513 
z
" style="fill:#633223;"/>
    <path clip-path="url(#p380b1aacea)" d="M 162.346885 191.878042 
L 175.173234 195.969799 
L 174.581987 172.157159 
L 161.605596 168.150767 
z
" style="fill:#770693;"/>
    <path clip-path="url(#p380b1aacea)" d="M 263.816264 195.163579 
L 277.271882 199.292348 
L 277.445363 192.813626 
L 263.94492 188.707788 
z
" style="fill:#2f0486;"/>
    <path clip-path="url(#p380b1aacea)" d="M 191.031582 181.987547 
L 189.695557 101.997898 
L 203.014884 105.679859 
L 203.841786 185.968896 
z
" style="fill:#68590f;"/>
    <path clip-path="url(#p380b1aacea)" d="M 188.144156 200.107676 
L 196.068846 192.969946 
L 209.103753 197.073984 
L 201.262108 204.292457 
z
" style="fill:#857513;"/>
    <path clip-path="url(#p380b1aacea)" d="M 224.338378 183.050047 
L 224.338378 108.200466 
L 237.843507 111.914406 
L 237.351973 187.043183 
z
" style="fill:#6a4f11;"/>
    <path clip-path="url(#p380b1aacea)" d="M 161.605596 168.150767 
L 174.581987 172.157159 
L 182.688473 165.246415 
L 169.792335 161.317376 
z
" style="fill:#67057f;"/>
    <path clip-path="url(#p380b1aacea)" d="M 211.078591 118.791498 
L 224.338378 122.518734 
L 231.962438 116.08952 
L 218.788357 112.434262 
z
" style="fill:#ba653a;"/>
    <path clip-path="url(#p380b1aacea)" d="M 216.794403 189.994506 
L 224.338378 183.050047 
L 224.338378 111.491591 
L 216.520843 117.973943 
z
" style="fill:#6a4a14;"/>
    <path clip-path="url(#p380b1aacea)" d="M 237.351973 187.043183 
L 250.510457 191.080779 
L 251.271404 133.366513 
L 237.728185 129.54094 
z
" style="fill:#d16b49;"/>
    <path clip-path="url(#p380b1aacea)" d="M 222.285805 201.224351 
L 229.891821 194.06512 
L 243.136481 198.181496 
L 235.617509 205.421836 
z
" style="fill:#857413;"/>
    <path clip-path="url(#p380b1aacea)" d="M 183.178635 188.911464 
L 181.511091 108.402203 
L 189.695557 101.997898 
L 191.031582 181.987547 
z
" style="fill:#ddbe20;"/>
    <path clip-path="url(#p380b1aacea)" d="M 216.794403 189.994506 
L 216.508257 114.660366 
L 224.338378 108.200466 
L 224.338378 183.050047 
z
" style="fill:#e0a825;"/>
    <path clip-path="url(#p380b1aacea)" d="M 263.816264 195.163579 
L 264.148218 178.506542 
L 277.719507 182.575661 
L 277.271882 199.292348 
z
" style="fill:#2a0046;"/>
    <path clip-path="url(#p380b1aacea)" d="M 263.816264 195.163579 
L 270.961723 188.120663 
L 272.071352 140.806814 
L 264.76516 147.54923 
z
" style="fill:#59232d;"/>
    <path clip-path="url(#p380b1aacea)" d="M 256.530882 202.34441 
L 263.816264 195.163579 
L 277.271882 199.292348 
L 270.077576 206.554656 
z
" style="fill:#360059;"/>
    <path clip-path="url(#p380b1aacea)" d="M 203.841786 185.968896 
L 216.794403 189.994506 
L 216.520843 117.973943 
L 203.102795 114.215664 
z
" style="fill:#e09c2b;"/>
    <path clip-path="url(#p380b1aacea)" d="M 167.010898 203.166503 
L 175.173234 195.969799 
L 188.144156 200.107676 
L 180.063228 207.386128 
z
" style="fill:#7c3c30;"/>
    <path clip-path="url(#p380b1aacea)" d="M 167.010898 203.166503 
L 175.173234 195.969799 
L 174.885106 184.365352 
L 166.671622 191.490229 
z
" style="fill:#210143;"/>
    <path clip-path="url(#p380b1aacea)" d="M 153.692166 187.359634 
L 166.671622 191.490229 
L 174.885106 184.365352 
L 161.985625 180.314798 
z
" style="fill:#3c027c;"/>
    <path clip-path="url(#p380b1aacea)" d="M 256.530882 202.34441 
L 256.804249 185.583876 
L 264.148218 178.506542 
L 263.816264 195.163579 
z
" style="fill:#5a0094;"/>
    <path clip-path="url(#p380b1aacea)" d="M 250.510457 191.080779 
L 263.816264 195.163579 
L 264.76516 147.54923 
L 251.135947 143.640251 
z
" style="fill:#bd4b60;"/>
    <path clip-path="url(#p380b1aacea)" d="M 237.351973 187.043183 
L 237.810624 116.940489 
L 251.438183 120.717121 
L 250.510457 191.080779 
z
" style="fill:#694716;"/>
    <path clip-path="url(#p380b1aacea)" d="M 201.262108 204.292457 
L 209.103753 197.073984 
L 222.285805 201.224351 
L 214.529606 208.524945 
z
" style="fill:#808512;"/>
    <path clip-path="url(#p380b1aacea)" d="M 203.841786 185.968896 
L 203.000033 104.237829 
L 216.482794 107.956646 
L 216.794403 189.994506 
z
" style="fill:#685c0f;"/>
    <path clip-path="url(#p380b1aacea)" d="M 154.105465 198.994368 
L 167.010898 203.166503 
L 166.671622 191.490229 
L 153.692166 187.359634 
z
" style="fill:#45028f;"/>
    <path clip-path="url(#p380b1aacea)" d="M 229.891821 194.06512 
L 230.089509 123.509526 
L 237.810624 116.940489 
L 237.351973 187.043183 
z
" style="fill:#df962e;"/>
    <path clip-path="url(#p380b1aacea)" d="M 224.338378 122.088721 
L 237.752288 125.856826 
L 245.289736 119.357274 
L 231.964019 115.662359 
z
" style="fill:#ba6639;"/>
    <path clip-path="url(#p380b1aacea)" d="M 235.617509 205.421836 
L 243.136481 198.181496 
L 256.530882 202.34441 
L 249.101427 209.667246 
z
" style="fill:#876c14;"/>
    <path clip-path="url(#p380b1aacea)" d="M 196.068846 192.969946 
L 203.841786 185.968896 
L 203.014884 105.679859 
L 194.916883 112.158409 
z
" style="fill:#68590f;"/>
    <path clip-path="url(#p380b1aacea)" d="M 229.891821 194.06512 
L 237.351973 187.043183 
L 237.843507 111.914406 
L 230.103687 118.44912 
z
" style="fill:#6a4f11;"/>
    <path clip-path="url(#p380b1aacea)" d="M 196.068846 192.969946 
L 194.896185 110.706419 
L 203.000033 104.237829 
L 203.841786 185.968896 
z
" style="fill:#dcc420;"/>
    <path clip-path="url(#p380b1aacea)" d="M 183.178635 188.911464 
L 181.610225 113.188421 
L 194.985381 116.963619 
L 196.068846 192.969946 
z
" style="fill:#6a5011;"/>
    <path clip-path="url(#p380b1aacea)" d="M 250.510457 191.080779 
L 251.374299 125.56239 
L 265.126817 129.401779 
L 263.816264 195.163579 
z
" style="fill:#673e1b;"/>
    <path clip-path="url(#p380b1aacea)" d="M 183.178635 188.911464 
L 196.068846 192.969946 
L 194.916883 112.158409 
L 181.511091 108.402203 
z
" style="fill:#ddbe20;"/>
    <path clip-path="url(#p380b1aacea)" d="M 189.861893 111.956684 
L 203.117854 115.67786 
L 211.017154 109.259332 
L 197.84606 105.610643 
z
" style="fill:#c28327;"/>
    <path clip-path="url(#p380b1aacea)" d="M 180.063228 207.386128 
L 188.144156 200.107676 
L 201.262108 204.292457 
L 193.264978 211.654059 
z
" style="fill:#875b1b;"/>
    <path clip-path="url(#p380b1aacea)" d="M 216.794403 189.994506 
L 229.891821 194.06512 
L 230.103687 118.44912 
L 216.508257 114.660366 
z
" style="fill:#e0a825;"/>
    <path clip-path="url(#p380b1aacea)" d="M 270.077576 206.554656 
L 277.271882 199.292348 
L 277.719507 182.575661 
L 270.468204 189.733982 
z
" style="fill:#2a0046;"/>
    <path clip-path="url(#p380b1aacea)" d="M 175.173234 195.969799 
L 173.28089 119.755114 
L 181.610225 113.188421 
L 183.178635 188.911464 
z
" style="fill:#e0aa24;"/>
    <path clip-path="url(#p380b1aacea)" d="M 237.728185 129.54094 
L 251.271404 133.366513 
L 258.705295 126.767941 
L 245.252456 123.01696 
z
" style="fill:#b55c40;"/>
    <path clip-path="url(#p380b1aacea)" d="M 243.136481 198.181496 
L 243.763179 132.240682 
L 251.374299 125.56239 
L 250.510457 191.080779 
z
" style="fill:#db8439;"/>
    <path clip-path="url(#p380b1aacea)" d="M 251.135947 143.640251 
L 264.76516 147.54923 
L 272.071352 140.806814 
L 258.53414 136.974105 
z
" style="fill:#a44154;"/>
    <path clip-path="url(#p380b1aacea)" d="M 214.529606 208.524945 
L 222.285805 201.224351 
L 235.617509 205.421836 
L 227.94922 212.80596 
z
" style="fill:#818214;"/>
    <path clip-path="url(#p380b1aacea)" d="M 256.804249 185.583876 
L 270.468204 189.733982 
L 277.719507 182.575661 
L 264.148218 178.506542 
z
" style="fill:#4e0080;"/>
    <path clip-path="url(#p380b1aacea)" d="M 256.530882 202.34441 
L 270.077576 206.554656 
L 270.468204 189.733982 
L 256.804249 185.583876 
z
" style="fill:#5a0094;"/>
    <path clip-path="url(#p380b1aacea)" d="M 243.136481 198.181496 
L 250.510457 191.080779 
L 251.438183 120.717121 
L 243.809541 127.36249 
z
" style="fill:#694716;"/>
    <path clip-path="url(#p380b1aacea)" d="M 216.794403 189.994506 
L 216.468775 104.265801 
L 230.132928 108.013146 
L 229.891821 194.06512 
z
" style="fill:#656410;"/>
    <path clip-path="url(#p380b1aacea)" d="M 249.101427 209.667246 
L 256.530882 202.34441 
L 270.077576 206.554656 
L 262.740181 213.961405 
z
" style="fill:#5a1350;"/>
    <path clip-path="url(#p380b1aacea)" d="M 175.173234 195.969799 
L 173.790396 140.275588 
L 187.120243 144.207764 
L 188.144156 200.107676 
z
" style="fill:#612f25;"/>
    <path clip-path="url(#p380b1aacea)" d="M 209.103753 197.073984 
L 216.794403 189.994506 
L 216.482794 107.956646 
L 208.468104 114.500717 
z
" style="fill:#685c0f;"/>
    <path clip-path="url(#p380b1aacea)" d="M 229.891821 194.06512 
L 243.136481 198.181496 
L 243.809541 127.36249 
L 230.089509 123.509526 
z
" style="fill:#df962e;"/>
    <path clip-path="url(#p380b1aacea)" d="M 209.103753 197.073984 
L 208.439494 110.784224 
L 216.468775 104.265801 
L 216.794403 189.994506 
z
" style="fill:#d6d422;"/>
    <path clip-path="url(#p380b1aacea)" d="M 167.010898 203.166503 
L 165.382228 147.115333 
L 173.790396 140.275588 
L 175.173234 195.969799 
z
" style="fill:#cd634f;"/>
    <path clip-path="url(#p380b1aacea)" d="M 193.264978 211.654059 
L 201.262108 204.292457 
L 214.529606 208.524945 
L 206.61873 215.971129 
z
" style="fill:#876915;"/>
    <path clip-path="url(#p380b1aacea)" d="M 196.068846 192.969946 
L 194.900542 111.012103 
L 208.470466 114.807623 
L 209.103753 197.073984 
z
" style="fill:#685c0f;"/>
    <path clip-path="url(#p380b1aacea)" d="M 196.068846 192.969946 
L 209.103753 197.073984 
L 208.468104 114.500717 
L 194.896185 110.706419 
z
" style="fill:#dcc420;"/>
    <path clip-path="url(#p380b1aacea)" d="M 203.102795 114.215664 
L 216.520843 117.973943 
L 224.338378 111.491591 
L 211.007794 107.806988 
z
" style="fill:#c28725;"/>
    <path clip-path="url(#p380b1aacea)" d="M 256.530882 202.34441 
L 257.064415 169.632769 
L 270.840002 173.724131 
L 270.077576 206.554656 
z
" style="fill:#470f3e;"/>
    <path clip-path="url(#p380b1aacea)" d="M 188.144156 200.107676 
L 196.068846 192.969946 
L 194.985381 116.963619 
L 186.742902 123.607031 
z
" style="fill:#6a5011;"/>
    <path clip-path="url(#p380b1aacea)" d="M 256.530882 202.34441 
L 263.816264 195.163579 
L 265.126817 129.401779 
L 257.610396 136.15794 
z
" style="fill:#673e1b;"/>
    <path clip-path="url(#p380b1aacea)" d="M 227.94922 212.80596 
L 235.617509 205.421836 
L 249.101427 209.667246 
L 241.523583 217.136342 
z
" style="fill:#867213;"/>
    <path clip-path="url(#p380b1aacea)" d="M 229.891821 194.06512 
L 230.120404 112.482826 
L 243.914753 116.292061 
L 243.136481 198.181496 
z
" style="fill:#685b0f;"/>
    <path clip-path="url(#p380b1aacea)" d="M 188.144156 200.107676 
L 186.633135 117.614391 
L 194.900542 111.012103 
L 196.068846 192.969946 
z
" style="fill:#dcc220;"/>
    <path clip-path="url(#p380b1aacea)" d="M 249.101427 209.667246 
L 249.515956 176.749327 
L 257.064415 169.632769 
L 256.530882 202.34441 
z
" style="fill:#961f84;"/>
    <path clip-path="url(#p380b1aacea)" d="M 175.173234 195.969799 
L 188.144156 200.107676 
L 186.742902 123.607031 
L 173.28089 119.755114 
z
" style="fill:#e0aa24;"/>
    <path clip-path="url(#p380b1aacea)" d="M 243.136481 198.181496 
L 256.530882 202.34441 
L 257.610396 136.15794 
L 243.763179 132.240682 
z
" style="fill:#db8439;"/>
    <path clip-path="url(#p380b1aacea)" d="M 222.285805 201.224351 
L 222.20046 119.10901 
L 230.120404 112.482826 
L 229.891821 194.06512 
z
" style="fill:#ddc120;"/>
    <path clip-path="url(#p380b1aacea)" d="M 222.285805 201.224351 
L 229.891821 194.06512 
L 230.132928 108.013146 
L 222.195782 114.608216 
z
" style="fill:#656410;"/>
    <path clip-path="url(#p380b1aacea)" d="M 180.063228 207.386128 
L 188.144156 200.107676 
L 187.120243 144.207764 
L 178.798011 151.127419 
z
" style="fill:#612f25;"/>
    <path clip-path="url(#p380b1aacea)" d="M 206.61873 215.971129 
L 214.529606 208.524945 
L 227.94922 212.80596 
L 220.127123 220.338193 
z
" style="fill:#876616;"/>
    <path clip-path="url(#p380b1aacea)" d="M 243.136481 198.181496 
L 243.883592 119.570855 
L 257.81786 123.438054 
L 256.530882 202.34441 
z
" style="fill:#695510;"/>
    <path clip-path="url(#p380b1aacea)" d="M 209.103753 197.073984 
L 222.285805 201.224351 
L 222.195782 114.608216 
L 208.439494 110.784224 
z
" style="fill:#d6d422;"/>
    <path clip-path="url(#p380b1aacea)" d="M 241.523583 217.136342 
L 249.101427 209.667246 
L 262.740181 213.961405 
L 255.255385 221.516949 
z
" style="fill:#712c3c;"/>
    <path clip-path="url(#p380b1aacea)" d="M 188.144156 200.107676 
L 186.839032 128.855238 
L 200.425117 132.773319 
L 201.262108 204.292457 
z
" style="fill:#694715;"/>
    <path clip-path="url(#p380b1aacea)" d="M 209.103753 197.073984 
L 208.422991 108.640423 
L 222.193545 112.455764 
L 222.285805 201.224351 
z
" style="fill:#64680e;"/>
    <path clip-path="url(#p380b1aacea)" d="M 167.010898 203.166503 
L 180.063228 207.386128 
L 178.798011 151.127419 
L 165.382228 147.115333 
z
" style="fill:#cd634f;"/>
    <path clip-path="url(#p380b1aacea)" d="M 216.508257 114.660366 
L 230.103687 118.44912 
L 237.843507 111.914406 
L 224.338378 108.200466 
z
" style="fill:#c29220;"/>
    <path clip-path="url(#p380b1aacea)" d="M 201.262108 204.292457 
L 209.103753 197.073984 
L 208.470466 114.807623 
L 200.293041 121.487727 
z
" style="fill:#685c0f;"/>
    <path clip-path="url(#p380b1aacea)" d="M 262.740181 213.961405 
L 270.077576 206.554656 
L 270.840002 173.724131 
L 263.386773 180.923609 
z
" style="fill:#470f3e;"/>
    <path clip-path="url(#p380b1aacea)" d="M 235.617509 205.421836 
L 236.07037 126.297991 
L 243.883592 119.570855 
L 243.136481 198.181496 
z
" style="fill:#dfb321;"/>
    <path clip-path="url(#p380b1aacea)" d="M 181.511091 108.402203 
L 194.916883 112.158409 
L 203.014884 105.679859 
L 189.695557 101.997898 
z
" style="fill:#c0a51c;"/>
    <path clip-path="url(#p380b1aacea)" d="M 180.063228 207.386128 
L 178.450404 135.670857 
L 186.839032 128.855238 
L 188.144156 200.107676 
z
" style="fill:#df972d;"/>
    <path clip-path="url(#p380b1aacea)" d="M 235.617509 205.421836 
L 243.136481 198.181496 
L 243.914753 116.292061 
L 236.089266 122.996449 
z
" style="fill:#685b0f;"/>
    <path clip-path="url(#p380b1aacea)" d="M 201.262108 204.292457 
L 200.220362 115.277443 
L 208.422991 108.640423 
L 209.103753 197.073984 
z
" style="fill:#d4dc1e;"/>
    <path clip-path="url(#p380b1aacea)" d="M 188.144156 200.107676 
L 201.262108 204.292457 
L 200.293041 121.487727 
L 186.633135 117.614391 
z
" style="fill:#dcc220;"/>
    <path clip-path="url(#p380b1aacea)" d="M 249.101427 209.667246 
L 262.740181 213.961405 
L 263.386773 180.923609 
L 249.515956 176.749327 
z
" style="fill:#961f84;"/>
    <path clip-path="url(#p380b1aacea)" d="M 230.089509 123.509526 
L 243.809541 127.36249 
L 251.438183 120.717121 
L 237.810624 116.940489 
z
" style="fill:#c28228;"/>
    <path clip-path="url(#p380b1aacea)" d="M 220.127123 220.338193 
L 227.94922 212.80596 
L 241.523583 217.136342 
L 233.792858 224.756123 
z
" style="fill:#876417;"/>
    <path clip-path="url(#p380b1aacea)" d="M 222.285805 201.224351 
L 235.617509 205.421836 
L 236.089266 122.996449 
L 222.20046 119.10901 
z
" style="fill:#ddc120;"/>
    <path clip-path="url(#p380b1aacea)" d="M 222.285805 201.224351 
L 222.194791 113.654499 
L 236.120611 117.519964 
L 235.617509 205.421836 
z
" style="fill:#656510;"/>
    <path clip-path="url(#p380b1aacea)" d="M 249.515956 176.749327 
L 263.386773 180.923609 
L 270.840002 173.724131 
L 257.064415 169.632769 
z
" style="fill:#821b72;"/>
    <path clip-path="url(#p380b1aacea)" d="M 249.101427 209.667246 
L 249.6976 162.324925 
L 263.670145 166.444676 
L 262.740181 213.961405 
z
" style="fill:#58222f;"/>
    <path clip-path="url(#p380b1aacea)" d="M 249.101427 209.667246 
L 256.530882 202.34441 
L 257.81786 123.438054 
L 250.101577 130.244928 
z
" style="fill:#695510;"/>
    <path clip-path="url(#p380b1aacea)" d="M 243.763179 132.240682 
L 257.610396 136.15794 
L 265.126817 129.401779 
L 251.374299 125.56239 
z
" style="fill:#be7331;"/>
    <path clip-path="url(#p380b1aacea)" d="M 201.262108 204.292457 
L 200.351136 126.451812 
L 214.140094 130.391063 
L 214.529606 208.524945 
z
" style="fill:#6a5210;"/>
    <path clip-path="url(#p380b1aacea)" d="M 214.529606 208.524945 
L 214.090181 120.37887 
L 222.194791 113.654499 
L 222.285805 201.224351 
z
" style="fill:#d5d722;"/>
    <path clip-path="url(#p380b1aacea)" d="M 193.264978 211.654059 
L 201.262108 204.292457 
L 200.425117 132.773319 
L 192.126342 139.669647 
z
" style="fill:#694715;"/>
    <path clip-path="url(#p380b1aacea)" d="M 214.529606 208.524945 
L 222.285805 201.224351 
L 222.193545 112.455764 
L 214.084164 119.171711 
z
" style="fill:#64680e;"/>
    <path clip-path="url(#p380b1aacea)" d="M 194.896185 110.706419 
L 208.468104 114.500717 
L 216.482794 107.956646 
L 203.000033 104.237829 
z
" style="fill:#bfaa1c;"/>
    <path clip-path="url(#p380b1aacea)" d="M 241.523583 217.136342 
L 241.94155 169.491394 
L 249.6976 162.324925 
L 249.101427 209.667246 
z
" style="fill:#bb4863;"/>
    <path clip-path="url(#p380b1aacea)" d="M 235.617509 205.421836 
L 249.101427 209.667246 
L 250.101577 130.244928 
L 236.07037 126.297991 
z
" style="fill:#dfb321;"/>
    <path clip-path="url(#p380b1aacea)" d="M 173.28089 119.755114 
L 186.742902 123.607031 
L 194.985381 116.963619 
L 181.610225 113.188421 
z
" style="fill:#c29320;"/>
    <path clip-path="url(#p380b1aacea)" d="M 165.382228 147.115333 
L 178.798011 151.127419 
L 187.120243 144.207764 
L 173.790396 140.275588 
z
" style="fill:#b25644;"/>
    <path clip-path="url(#p380b1aacea)" d="M 193.264978 211.654059 
L 192.02566 133.304524 
L 200.351136 126.451812 
L 201.262108 204.292457 
z
" style="fill:#e0ae23;"/>
    <path clip-path="url(#p380b1aacea)" d="M 235.617509 205.421836 
L 236.085562 123.643607 
L 250.135138 127.579899 
L 249.101427 209.667246 
z
" style="fill:#68590f;"/>
    <path clip-path="url(#p380b1aacea)" d="M 233.792858 224.756123 
L 241.523583 217.136342 
L 255.255385 221.516949 
L 247.618703 229.225814 
z
" style="fill:#793733;"/>
    <path clip-path="url(#p380b1aacea)" d="M 180.063228 207.386128 
L 193.264978 211.654059 
L 192.126342 139.669647 
L 178.450404 135.670857 
z
" style="fill:#df972d;"/>
    <path clip-path="url(#p380b1aacea)" d="M 201.262108 204.292457 
L 214.529606 208.524945 
L 214.084164 119.171711 
L 200.220362 115.277443 
z
" style="fill:#d4dc1e;"/>
    <path clip-path="url(#p380b1aacea)" d="M 227.94922 212.80596 
L 228.100611 130.491276 
L 236.085562 123.643607 
L 235.617509 205.421836 
z
" style="fill:#ddbe20;"/>
    <path clip-path="url(#p380b1aacea)" d="M 214.529606 208.524945 
L 214.147127 131.801893 
L 228.090858 135.793753 
L 227.94922 212.80596 
z
" style="fill:#6a4f11;"/>
    <path clip-path="url(#p380b1aacea)" d="M 227.94922 212.80596 
L 235.617509 205.421836 
L 236.120611 117.519964 
L 228.111952 124.324733 
z
" style="fill:#656510;"/>
    <path clip-path="url(#p380b1aacea)" d="M 255.255385 221.516949 
L 262.740181 213.961405 
L 263.670145 166.444676 
L 256.011797 173.696115 
z
" style="fill:#58222f;"/>
    <path clip-path="url(#p380b1aacea)" d="M 206.61873 215.971129 
L 205.920617 138.746283 
L 214.147127 131.801893 
L 214.529606 208.524945 
z
" style="fill:#e0a825;"/>
    <path clip-path="url(#p380b1aacea)" d="M 206.61873 215.971129 
L 214.529606 208.524945 
L 214.140094 130.391063 
L 205.907775 137.325662 
z
" style="fill:#6a5210;"/>
    <path clip-path="url(#p380b1aacea)" d="M 214.529606 208.524945 
L 227.94922 212.80596 
L 228.111952 124.324733 
L 214.090181 120.37887 
z
" style="fill:#d5d722;"/>
    <path clip-path="url(#p380b1aacea)" d="M 208.439494 110.784224 
L 222.195782 114.608216 
L 230.132928 108.013146 
L 216.468775 104.265801 
z
" style="fill:#bab81e;"/>
    <path clip-path="url(#p380b1aacea)" d="M 241.523583 217.136342 
L 255.255385 221.516949 
L 256.011797 173.696115 
L 241.94155 169.491394 
z
" style="fill:#bb4863;"/>
    <path clip-path="url(#p380b1aacea)" d="M 193.264978 211.654059 
L 206.61873 215.971129 
L 205.907775 137.325662 
L 192.02566 133.304524 
z
" style="fill:#e0ae23;"/>
    <path clip-path="url(#p380b1aacea)" d="M 241.523583 217.136342 
L 249.101427 209.667246 
L 250.135138 127.579899 
L 242.248429 134.509684 
z
" style="fill:#68590f;"/>
    <path clip-path="url(#p380b1aacea)" d="M 186.633135 117.614391 
L 200.293041 121.487727 
L 208.470466 114.807623 
L 194.900542 111.012103 
z
" style="fill:#bfa81c;"/>
    <path clip-path="url(#p380b1aacea)" d="M 227.94922 212.80596 
L 228.089533 136.514139 
L 242.195381 140.556728 
L 241.523583 217.136342 
z
" style="fill:#6a4e12;"/>
    <path clip-path="url(#p380b1aacea)" d="M 241.523583 217.136342 
L 241.999343 162.903571 
L 256.116402 167.082911 
L 255.255385 221.516949 
z
" style="fill:#5f2b28;"/>
    <path clip-path="url(#p380b1aacea)" d="M 222.20046 119.10901 
L 236.089266 122.996449 
L 243.914753 116.292061 
L 230.120404 112.482826 
z
" style="fill:#c0a71c;"/>
    <path clip-path="url(#p380b1aacea)" d="M 227.94922 212.80596 
L 241.523583 217.136342 
L 242.248429 134.509684 
L 228.100611 130.491276 
z
" style="fill:#ddbe20;"/>
    <path clip-path="url(#p380b1aacea)" d="M 220.127123 220.338193 
L 219.961772 143.546953 
L 228.089533 136.514139 
L 227.94922 212.80596 
z
" style="fill:#e0a626;"/>
    <path clip-path="url(#p380b1aacea)" d="M 220.127123 220.338193 
L 227.94922 212.80596 
L 228.090858 135.793753 
L 219.96021 142.821566 
z
" style="fill:#6a4f11;"/>
    <path clip-path="url(#p380b1aacea)" d="M 233.792858 224.756123 
L 234.057313 170.174125 
L 241.999343 162.903571 
L 241.523583 217.136342 
z
" style="fill:#c95c54;"/>
    <path clip-path="url(#p380b1aacea)" d="M 178.450404 135.670857 
L 192.126342 139.669647 
L 200.425117 132.773319 
L 186.839032 128.855238 
z
" style="fill:#c28327;"/>
    <path clip-path="url(#p380b1aacea)" d="M 206.61873 215.971129 
L 220.127123 220.338193 
L 219.96021 142.821566 
L 205.920617 138.746283 
z
" style="fill:#e0a825;"/>
    <path clip-path="url(#p380b1aacea)" d="M 236.07037 126.297991 
L 250.101577 130.244928 
L 257.81786 123.438054 
L 243.883592 119.570855 
z
" style="fill:#c29c1d;"/>
    <path clip-path="url(#p380b1aacea)" d="M 241.94155 169.491394 
L 256.011797 173.696115 
L 263.670145 166.444676 
L 249.6976 162.324925 
z
" style="fill:#a23f56;"/>
    <path clip-path="url(#p380b1aacea)" d="M 233.792858 224.756123 
L 241.523583 217.136342 
L 242.195381 140.556728 
L 234.166326 147.674508 
z
" style="fill:#6a4e12;"/>
    <path clip-path="url(#p380b1aacea)" d="M 247.618703 229.225814 
L 255.255385 221.516949 
L 256.116402 167.082911 
L 248.273807 174.440852 
z
" style="fill:#5f2b28;"/>
    <path clip-path="url(#p380b1aacea)" d="M 200.220362 115.277443 
L 214.084164 119.171711 
L 222.193545 112.455764 
L 208.422991 108.640423 
z
" style="fill:#b8bf1a;"/>
    <path clip-path="url(#p380b1aacea)" d="M 220.127123 220.338193 
L 233.792858 224.756123 
L 234.166326 147.674508 
L 219.961772 143.546953 
z
" style="fill:#e0a626;"/>
    <path clip-path="url(#p380b1aacea)" d="M 233.792858 224.756123 
L 247.618703 229.225814 
L 248.273807 174.440852 
L 234.057313 170.174125 
z
" style="fill:#c95c54;"/>
    <path clip-path="url(#p380b1aacea)" d="M 192.02566 133.304524 
L 205.907775 137.325662 
L 214.140094 130.391063 
L 200.351136 126.451812 
z
" style="fill:#c2971e;"/>
    <path clip-path="url(#p380b1aacea)" d="M 214.090181 120.37887 
L 228.111952 124.324733 
L 236.120611 117.519964 
L 222.194791 113.654499 
z
" style="fill:#b9bb1d;"/>
    <path clip-path="url(#p380b1aacea)" d="M 228.100611 130.491276 
L 242.248429 134.509684 
L 250.135138 127.579899 
L 236.085562 123.643607 
z
" style="fill:#c0a51c;"/>
    <path clip-path="url(#p380b1aacea)" d="M 205.920617 138.746283 
L 219.96021 142.821566 
L 228.090858 135.793753 
L 214.147127 131.801893 
z
" style="fill:#c29220;"/>
    <path clip-path="url(#p380b1aacea)" d="M 234.057313 170.174125 
L 248.273807 174.440852 
L 256.116402 167.082911 
L 241.999343 162.903571 
z
" style="fill:#ae4f49;"/>
    <path clip-path="url(#p380b1aacea)" d="M 219.961772 143.546953 
L 234.166326 147.674508 
L 242.195381 140.556728 
L 228.089533 136.514139 
z
" style="fill:#c29021;"/>
   </g>
   <g id="text_16">
    <!-- W10__H50__A330_bars_extracted.txt -->
    <g transform="translate(110.101875 28.56)scale(0.12 -0.12)">
     <defs>
      <path d="M 3.328125 72.90625 
L 13.28125 72.90625 
L 28.609375 11.28125 
L 43.890625 72.90625 
L 54.984375 72.90625 
L 70.3125 11.28125 
L 85.59375 72.90625 
L 95.609375 72.90625 
L 77.296875 0 
L 64.890625 0 
L 49.515625 63.28125 
L 33.984375 0 
L 21.578125 0 
z
" id="DejaVuSans-87"/>
      <path d="M 50.984375 -16.609375 
L 50.984375 -23.578125 
L -0.984375 -23.578125 
L -0.984375 -16.609375 
z
" id="DejaVuSans-95"/>
      <path d="M 9.8125 72.90625 
L 19.671875 72.90625 
L 19.671875 43.015625 
L 55.515625 43.015625 
L 55.515625 72.90625 
L 65.375 72.90625 
L 65.375 0 
L 55.515625 0 
L 55.515625 34.71875 
L 19.671875 34.71875 
L 19.671875 0 
L 9.8125 0 
z
" id="DejaVuSans-72"/>
      <path d="M 34.1875 63.1875 
L 20.796875 26.90625 
L 47.609375 26.90625 
z
M 28.609375 72.90625 
L 39.796875 72.90625 
L 67.578125 0 
L 57.328125 0 
L 50.6875 18.703125 
L 17.828125 18.703125 
L 11.1875 0 
L 0.78125 0 
z
" id="DejaVuSans-65"/>
      <path d="M 40.578125 39.3125 
Q 47.65625 37.796875 51.625 33 
Q 55.609375 28.21875 55.609375 21.1875 
Q 55.609375 10.40625 48.1875 4.484375 
Q 40.765625 -1.421875 27.09375 -1.421875 
Q 22.515625 -1.421875 17.65625 -0.515625 
Q 12.796875 0.390625 7.625 2.203125 
L 7.625 11.71875 
Q 11.71875 9.328125 16.59375 8.109375 
Q 21.484375 6.890625 26.8125 6.890625 
Q 36.078125 6.890625 40.9375 10.546875 
Q 45.796875 14.203125 45.796875 21.1875 
Q 45.796875 27.640625 41.28125 31.265625 
Q 36.765625 34.90625 28.71875 34.90625 
L 20.21875 34.90625 
L 20.21875 43.015625 
L 29.109375 43.015625 
Q 36.375 43.015625 40.234375 45.921875 
Q 44.09375 48.828125 44.09375 54.296875 
Q 44.09375 59.90625 40.109375 62.90625 
Q 36.140625 65.921875 28.71875 65.921875 
Q 24.65625 65.921875 20.015625 65.03125 
Q 15.375 64.15625 9.8125 62.3125 
L 9.8125 71.09375 
Q 15.4375 72.65625 20.34375 73.4375 
Q 25.25 74.21875 29.59375 74.21875 
Q 40.828125 74.21875 47.359375 69.109375 
Q 53.90625 64.015625 53.90625 55.328125 
Q 53.90625 49.265625 50.4375 45.09375 
Q 46.96875 40.921875 40.578125 39.3125 
z
" id="DejaVuSans-51"/>
      <path d="M 48.6875 27.296875 
Q 48.6875 37.203125 44.609375 42.84375 
Q 40.53125 48.484375 33.40625 48.484375 
Q 26.265625 48.484375 22.1875 42.84375 
Q 18.109375 37.203125 18.109375 27.296875 
Q 18.109375 17.390625 22.1875 11.75 
Q 26.265625 6.109375 33.40625 6.109375 
Q 40.53125 6.109375 44.609375 11.75 
Q 48.6875 17.390625 48.6875 27.296875 
z
M 18.109375 46.390625 
Q 20.953125 51.265625 25.265625 53.625 
Q 29.59375 56 35.59375 56 
Q 45.5625 56 51.78125 48.09375 
Q 58.015625 40.1875 58.015625 27.296875 
Q 58.015625 14.40625 51.78125 6.484375 
Q 45.5625 -1.421875 35.59375 -1.421875 
Q 29.59375 -1.421875 25.265625 0.953125 
Q 20.953125 3.328125 18.109375 8.203125 
L 18.109375 0 
L 9.078125 0 
L 9.078125 75.984375 
L 18.109375 75.984375 
z
" id="DejaVuSans-98"/>
      <path d="M 34.28125 27.484375 
Q 23.390625 27.484375 19.1875 25 
Q 14.984375 22.515625 14.984375 16.5 
Q 14.984375 11.71875 18.140625 8.90625 
Q 21.296875 6.109375 26.703125 6.109375 
Q 34.1875 6.109375 38.703125 11.40625 
Q 43.21875 16.703125 43.21875 25.484375 
L 43.21875 27.484375 
z
M 52.203125 31.203125 
L 52.203125 0 
L 43.21875 0 
L 43.21875 8.296875 
Q 40.140625 3.328125 35.546875 0.953125 
Q 30.953125 -1.421875 24.3125 -1.421875 
Q 15.921875 -1.421875 10.953125 3.296875 
Q 6 8.015625 6 15.921875 
Q 6 25.140625 12.171875 29.828125 
Q 18.359375 34.515625 30.609375 34.515625 
L 43.21875 34.515625 
L 43.21875 35.40625 
Q 43.21875 41.609375 39.140625 45 
Q 35.0625 48.390625 27.6875 48.390625 
Q 23 48.390625 18.546875 47.265625 
Q 14.109375 46.140625 10.015625 43.890625 
L 10.015625 52.203125 
Q 14.9375 54.109375 19.578125 55.046875 
Q 24.21875 56 28.609375 56 
Q 40.484375 56 46.34375 49.84375 
Q 52.203125 43.703125 52.203125 31.203125 
z
" id="DejaVuSans-97"/>
      <path d="M 41.109375 46.296875 
Q 39.59375 47.171875 37.8125 47.578125 
Q 36.03125 48 33.890625 48 
Q 26.265625 48 22.1875 43.046875 
Q 18.109375 38.09375 18.109375 28.8125 
L 18.109375 0 
L 9.078125 0 
L 9.078125 54.6875 
L 18.109375 54.6875 
L 18.109375 46.1875 
Q 20.953125 51.171875 25.484375 53.578125 
Q 30.03125 56 36.53125 56 
Q 37.453125 56 38.578125 55.875 
Q 39.703125 55.765625 41.0625 55.515625 
z
" id="DejaVuSans-114"/>
      <path d="M 44.28125 53.078125 
L 44.28125 44.578125 
Q 40.484375 46.53125 36.375 47.5 
Q 32.28125 48.484375 27.875 48.484375 
Q 21.1875 48.484375 17.84375 46.4375 
Q 14.5 44.390625 14.5 40.28125 
Q 14.5 37.15625 16.890625 35.375 
Q 19.28125 33.59375 26.515625 31.984375 
L 29.59375 31.296875 
Q 39.15625 29.25 43.1875 25.515625 
Q 47.21875 21.78125 47.21875 15.09375 
Q 47.21875 7.46875 41.1875 3.015625 
Q 35.15625 -1.421875 24.609375 -1.421875 
Q 20.21875 -1.421875 15.453125 -0.5625 
Q 10.6875 0.296875 5.421875 2 
L 5.421875 11.28125 
Q 10.40625 8.6875 15.234375 7.390625 
Q 20.0625 6.109375 24.8125 6.109375 
Q 31.15625 6.109375 34.5625 8.28125 
Q 37.984375 10.453125 37.984375 14.40625 
Q 37.984375 18.0625 35.515625 20.015625 
Q 33.0625 21.96875 24.703125 23.78125 
L 21.578125 24.515625 
Q 13.234375 26.265625 9.515625 29.90625 
Q 5.8125 33.546875 5.8125 39.890625 
Q 5.8125 47.609375 11.28125 51.796875 
Q 16.75 56 26.8125 56 
Q 31.78125 56 36.171875 55.265625 
Q 40.578125 54.546875 44.28125 53.078125 
z
" id="DejaVuSans-115"/>
      <path d="M 56.203125 29.59375 
L 56.203125 25.203125 
L 14.890625 25.203125 
Q 15.484375 15.921875 20.484375 11.0625 
Q 25.484375 6.203125 34.421875 6.203125 
Q 39.59375 6.203125 44.453125 7.46875 
Q 49.3125 8.734375 54.109375 11.28125 
L 54.109375 2.78125 
Q 49.265625 0.734375 44.1875 -0.34375 
Q 39.109375 -1.421875 33.890625 -1.421875 
Q 20.796875 -1.421875 13.15625 6.1875 
Q 5.515625 13.8125 5.515625 26.8125 
Q 5.515625 40.234375 12.765625 48.109375 
Q 20.015625 56 32.328125 56 
Q 43.359375 56 49.78125 48.890625 
Q 56.203125 41.796875 56.203125 29.59375 
z
M 47.21875 32.234375 
Q 47.125 39.59375 43.09375 43.984375 
Q 39.0625 48.390625 32.421875 48.390625 
Q 24.90625 48.390625 20.390625 44.140625 
Q 15.875 39.890625 15.1875 32.171875 
z
" id="DejaVuSans-101"/>
      <path d="M 54.890625 54.6875 
L 35.109375 28.078125 
L 55.90625 0 
L 45.3125 0 
L 29.390625 21.484375 
L 13.484375 0 
L 2.875 0 
L 24.125 28.609375 
L 4.6875 54.6875 
L 15.28125 54.6875 
L 29.78125 35.203125 
L 44.28125 54.6875 
z
" id="DejaVuSans-120"/>
      <path d="M 18.3125 70.21875 
L 18.3125 54.6875 
L 36.8125 54.6875 
L 36.8125 47.703125 
L 18.3125 47.703125 
L 18.3125 18.015625 
Q 18.3125 11.328125 20.140625 9.421875 
Q 21.96875 7.515625 27.59375 7.515625 
L 36.8125 7.515625 
L 36.8125 0 
L 27.59375 0 
Q 17.1875 0 13.234375 3.875 
Q 9.28125 7.765625 9.28125 18.015625 
L 9.28125 47.703125 
L 2.6875 47.703125 
L 2.6875 54.6875 
L 9.28125 54.6875 
L 9.28125 70.21875 
z
" id="DejaVuSans-116"/>
      <path d="M 48.78125 52.59375 
L 48.78125 44.1875 
Q 44.96875 46.296875 41.140625 47.34375 
Q 37.3125 48.390625 33.40625 48.390625 
Q 24.65625 48.390625 19.8125 42.84375 
Q 14.984375 37.3125 14.984375 27.296875 
Q 14.984375 17.28125 19.8125 11.734375 
Q 24.65625 6.203125 33.40625 6.203125 
Q 37.3125 6.203125 41.140625 7.25 
Q 44.96875 8.296875 48.78125 10.40625 
L 48.78125 2.09375 
Q 45.015625 0.34375 40.984375 -0.53125 
Q 36.96875 -1.421875 32.421875 -1.421875 
Q 20.0625 -1.421875 12.78125 6.34375 
Q 5.515625 14.109375 5.515625 27.296875 
Q 5.515625 40.671875 12.859375 48.328125 
Q 20.21875 56 33.015625 56 
Q 37.15625 56 41.109375 55.140625 
Q 45.0625 54.296875 48.78125 52.59375 
z
" id="DejaVuSans-99"/>
      <path d="M 45.40625 46.390625 
L 45.40625 75.984375 
L 54.390625 75.984375 
L 54.390625 0 
L 45.40625 0 
L 45.40625 8.203125 
Q 42.578125 3.328125 38.25 0.953125 
Q 33.9375 -1.421875 27.875 -1.421875 
Q 17.96875 -1.421875 11.734375 6.484375 
Q 5.515625 14.40625 5.515625 27.296875 
Q 5.515625 40.1875 11.734375 48.09375 
Q 17.96875 56 27.875 56 
Q 33.9375 56 38.25 53.625 
Q 42.578125 51.265625 45.40625 46.390625 
z
M 14.796875 27.296875 
Q 14.796875 17.390625 18.875 11.75 
Q 22.953125 6.109375 30.078125 6.109375 
Q 37.203125 6.109375 41.296875 11.75 
Q 45.40625 17.390625 45.40625 27.296875 
Q 45.40625 37.203125 41.296875 42.84375 
Q 37.203125 48.484375 30.078125 48.484375 
Q 22.953125 48.484375 18.875 42.84375 
Q 14.796875 37.203125 14.796875 27.296875 
z
" id="DejaVuSans-100"/>
      <path d="M 10.6875 12.40625 
L 21 12.40625 
L 21 0 
L 10.6875 0 
z
" id="DejaVuSans-46"/>
     </defs>
     <use xlink:href="#DejaVuSans-87"/>
     <use x="98.876953" xlink:href="#DejaVuSans-49"/>
     <use x="162.5" xlink:href="#DejaVuSans-48"/>
     <use x="226.123047" xlink:href="#DejaVuSans-95"/>
     <use x="276.123047" xlink:href="#DejaVuSans-95"/>
     <use x="326.123047" xlink:href="#DejaVuSans-72"/>
     <use x="401.318359" xlink:href="#DejaVuSans-53"/>
     <use x="464.941406" xlink:href="#DejaVuSans-48"/>
     <use x="528.564453" xlink:href="#DejaVuSans-95"/>
     <use x="578.564453" xlink:href="#DejaVuSans-95"/>
     <use x="628.564453" xlink:href="#DejaVuSans-65"/>
     <use x="696.972656" xlink:href="#DejaVuSans-51"/>
     <use x="760.595703" xlink:href="#DejaVuSans-51"/>
     <use x="824.21875" xlink:href="#DejaVuSans-48"/>
     <use x="887.841797" xlink:href="#DejaVuSans-95"/>
     <use x="937.841797" xlink:href="#DejaVuSans-98"/>
     <use x="1001.318359" xlink:href="#DejaVuSans-97"/>
     <use x="1062.597656" xlink:href="#DejaVuSans-114"/>
     <use x="1103.710938" xlink:href="#DejaVuSans-115"/>
     <use x="1155.810547" xlink:href="#DejaVuSans-95"/>
     <use x="1205.810547" xlink:href="#DejaVuSans-101"/>
     <use x="1265.583984" xlink:href="#DejaVuSans-120"/>
     <use x="1324.763672" xlink:href="#DejaVuSans-116"/>
     <use x="1363.972656" xlink:href="#DejaVuSans-114"/>
     <use x="1405.085938" xlink:href="#DejaVuSans-97"/>
     <use x="1466.365234" xlink:href="#DejaVuSans-99"/>
     <use x="1521.345703" xlink:href="#DejaVuSans-116"/>
     <use x="1560.554688" xlink:href="#DejaVuSans-101"/>
     <use x="1622.078125" xlink:href="#DejaVuSans-100"/>
     <use x="1685.554688" xlink:href="#DejaVuSans-46"/>
     <use x="1717.341797" xlink:href="#DejaVuSans-116"/>
     <use x="1756.550781" xlink:href="#DejaVuSans-120"/>
     <use x="1815.730469" xlink:href="#DejaVuSans-116"/>
    </g>
   </g>
  </g>
 </g>
 <defs>
  <clipPath id="p380b1aacea">
   <rect height="217.44" width="217.44" x="112.68" y="34.56"/>
  </clipPath>
 </defs>
</svg>
