<?xml version="1.0" encoding="utf-8" standalone="no"?>
<!DOCTYPE svg PUBLIC "-//W3C//DTD SVG 1.1//EN"
  "http://www.w3.org/Graphics/SVG/1.1/DTD/svg11.dtd">
<!-- Created with matplotlib (https://matplotlib.org/) -->
<svg height="288pt" version="1.1" viewBox="0 0 432 288" width="432pt" xmlns="http://www.w3.org/2000/svg" xmlns:xlink="http://www.w3.org/1999/xlink">
 <metadata>
  <rdf:RDF xmlns:cc="http://creativecommons.org/ns#" xmlns:dc="http://purl.org/dc/elements/1.1/" xmlns:rdf="http://www.w3.org/1999/02/22-rdf-syntax-ns#">
   <cc:Work>
    <dc:type rdf:resource="http://purl.org/dc/dcmitype/StillImage"/>
    <dc:date>2021-06-13T21:56:58.718548</dc:date>
    <dc:format>image/svg+xml</dc:format>
    <dc:creator>
     <cc:Agent>
      <dc:title>Matplotlib v3.3.4, https://matplotlib.org/</dc:title>
     </cc:Agent>
    </dc:creator>
   </cc:Work>
  </rdf:RDF>
 </metadata>
 <defs>
  <style type="text/css">*{stroke-linecap:butt;stroke-linejoin:round;}</style>
 </defs>
 <g id="figure_1">
  <g id="patch_1">
   <path d="M 0 288 
L 432 288 
L 432 0 
L 0 0 
z
" style="fill:#ffffff;"/>
  </g>
  <g id="patch_2">
   <path d="M 112.68 252 
L 330.12 252 
L 330.12 34.56 
L 112.68 34.56 
z
" style="fill:#ffffff;"/>
  </g>
  <g id="pane3d_1">
   <g id="patch_3">
    <path d="M 129.09822 198.386264 
L 200.904009 138.197228 
L 199.90584 51.393878 
L 124.663773 106.302111 
" style="fill:#f2f2f2;opacity:0.5;stroke:#f2f2f2;stroke-linejoin:miter;"/>
   </g>
  </g>
  <g id="pane3d_2">
   <g id="patch_4">
    <path d="M 200.904009 138.197228 
L 316.12668 171.68791 
L 320.238571 81.894718 
L 199.90584 51.393878 
" style="fill:#e6e6e6;opacity:0.5;stroke:#e6e6e6;stroke-linejoin:miter;"/>
   </g>
  </g>
  <g id="pane3d_3">
   <g id="patch_5">
    <path d="M 129.09822 198.386264 
L 251.239879 238.27773 
L 316.12668 171.68791 
L 200.904009 138.197228 
" style="fill:#ececec;opacity:0.5;stroke:#ececec;stroke-linejoin:miter;"/>
   </g>
  </g>
  <g id="axis3d_1">
   <g id="line2d_1">
    <path d="M 129.09822 198.386264 
L 251.239879 238.27773 
" style="fill:none;stroke:#000000;stroke-linecap:square;stroke-width:0.8;"/>
   </g>
   <g id="Line3DCollection_1">
    <path d="M 136.495759 200.802301 
L 207.911499 140.234029 
L 207.209612 53.245171 
" style="fill:none;stroke:#b0b0b0;stroke-width:0.8;"/>
    <path d="M 162.23134 209.207541 
L 232.260894 147.311436 
L 232.60309 59.681678 
" style="fill:none;stroke:#b0b0b0;stroke-width:0.8;"/>
    <path d="M 188.559037 217.806167 
L 257.123632 154.538053 
L 258.555303 66.259807 
" style="fill:none;stroke:#b0b0b0;stroke-width:0.8;"/>
    <path d="M 215.499525 226.604931 
L 282.516121 161.918647 
L 285.084894 72.984285 
" style="fill:none;stroke:#b0b0b0;stroke-width:0.8;"/>
    <path d="M 243.074449 235.610901 
L 308.455474 169.458193 
L 312.21135 79.860051 
" style="fill:none;stroke:#b0b0b0;stroke-width:0.8;"/>
   </g>
   <g id="xtick_1">
    <g id="line2d_2">
     <path d="M 137.117644 200.274876 
L 135.249322 201.859414 
" style="fill:none;stroke:#000000;stroke-linecap:square;stroke-width:0.8;"/>
    </g>
    <g id="text_1">
     <!-- 0 -->
     <g transform="translate(125.77919 224.124533)scale(0.1 -0.1)">
      <defs>
       <path d="M 31.78125 66.40625 
Q 24.171875 66.40625 20.328125 58.90625 
Q 16.5 51.421875 16.5 36.375 
Q 16.5 21.390625 20.328125 13.890625 
Q 24.171875 6.390625 31.78125 6.390625 
Q 39.453125 6.390625 43.28125 13.890625 
Q 47.125 21.390625 47.125 36.375 
Q 47.125 51.421875 43.28125 58.90625 
Q 39.453125 66.40625 31.78125 66.40625 
z
M 31.78125 74.21875 
Q 44.046875 74.21875 50.515625 64.515625 
Q 56.984375 54.828125 56.984375 36.375 
Q 56.984375 17.96875 50.515625 8.265625 
Q 44.046875 -1.421875 31.78125 -1.421875 
Q 19.53125 -1.421875 13.0625 8.265625 
Q 6.59375 17.96875 6.59375 36.375 
Q 6.59375 54.828125 13.0625 64.515625 
Q 19.53125 74.21875 31.78125 74.21875 
z
" id="DejaVuSans-48"/>
      </defs>
      <use xlink:href="#DejaVuSans-48"/>
     </g>
    </g>
   </g>
   <g id="xtick_2">
    <g id="line2d_3">
     <path d="M 162.841716 208.668056 
L 161.007937 210.288854 
" style="fill:none;stroke:#000000;stroke-linecap:square;stroke-width:0.8;"/>
    </g>
    <g id="text_2">
     <!-- 2 -->
     <g transform="translate(151.547192 232.748132)scale(0.1 -0.1)">
      <defs>
       <path d="M 19.1875 8.296875 
L 53.609375 8.296875 
L 53.609375 0 
L 7.328125 0 
L 7.328125 8.296875 
Q 12.9375 14.109375 22.625 23.890625 
Q 32.328125 33.6875 34.8125 36.53125 
Q 39.546875 41.84375 41.421875 45.53125 
Q 43.3125 49.21875 43.3125 52.78125 
Q 43.3125 58.59375 39.234375 62.25 
Q 35.15625 65.921875 28.609375 65.921875 
Q 23.96875 65.921875 18.8125 64.3125 
Q 13.671875 62.703125 7.8125 59.421875 
L 7.8125 69.390625 
Q 13.765625 71.78125 18.9375 73 
Q 24.125 74.21875 28.421875 74.21875 
Q 39.75 74.21875 46.484375 68.546875 
Q 53.21875 62.890625 53.21875 53.421875 
Q 53.21875 48.921875 51.53125 44.890625 
Q 49.859375 40.875 45.40625 35.40625 
Q 44.1875 33.984375 37.640625 27.21875 
Q 31.109375 20.453125 19.1875 8.296875 
z
" id="DejaVuSans-50"/>
      </defs>
      <use xlink:href="#DejaVuSans-50"/>
     </g>
    </g>
   </g>
   <g id="xtick_3">
    <g id="line2d_4">
     <path d="M 189.15721 217.254202 
L 187.360066 218.91252 
" style="fill:none;stroke:#000000;stroke-linecap:square;stroke-width:0.8;"/>
    </g>
    <g id="text_3">
     <!-- 4 -->
     <g transform="translate(177.91082 241.571064)scale(0.1 -0.1)">
      <defs>
       <path d="M 37.796875 64.3125 
L 12.890625 25.390625 
L 37.796875 25.390625 
z
M 35.203125 72.90625 
L 47.609375 72.90625 
L 47.609375 25.390625 
L 58.015625 25.390625 
L 58.015625 17.1875 
L 47.609375 17.1875 
L 47.609375 0 
L 37.796875 0 
L 37.796875 17.1875 
L 4.890625 17.1875 
L 4.890625 26.703125 
z
" id="DejaVuSans-52"/>
      </defs>
      <use xlink:href="#DejaVuSans-52"/>
     </g>
    </g>
   </g>
   <g id="xtick_4">
    <g id="line2d_5">
     <path d="M 216.084757 226.040048 
L 214.326462 227.737204 
" style="fill:none;stroke:#000000;stroke-linecap:square;stroke-width:0.8;"/>
    </g>
    <g id="text_4">
     <!-- 6 -->
     <g transform="translate(204.890965 250.600322)scale(0.1 -0.1)">
      <defs>
       <path d="M 33.015625 40.375 
Q 26.375 40.375 22.484375 35.828125 
Q 18.609375 31.296875 18.609375 23.390625 
Q 18.609375 15.53125 22.484375 10.953125 
Q 26.375 6.390625 33.015625 6.390625 
Q 39.65625 6.390625 43.53125 10.953125 
Q 47.40625 15.53125 47.40625 23.390625 
Q 47.40625 31.296875 43.53125 35.828125 
Q 39.65625 40.375 33.015625 40.375 
z
M 52.59375 71.296875 
L 52.59375 62.3125 
Q 48.875 64.0625 45.09375 64.984375 
Q 41.3125 65.921875 37.59375 65.921875 
Q 27.828125 65.921875 22.671875 59.328125 
Q 17.53125 52.734375 16.796875 39.40625 
Q 19.671875 43.65625 24.015625 45.921875 
Q 28.375 48.1875 33.59375 48.1875 
Q 44.578125 48.1875 50.953125 41.515625 
Q 57.328125 34.859375 57.328125 23.390625 
Q 57.328125 12.15625 50.6875 5.359375 
Q 44.046875 -1.421875 33.015625 -1.421875 
Q 20.359375 -1.421875 13.671875 8.265625 
Q 6.984375 17.96875 6.984375 36.375 
Q 6.984375 53.65625 15.1875 63.9375 
Q 23.390625 74.21875 37.203125 74.21875 
Q 40.921875 74.21875 44.703125 73.484375 
Q 48.484375 72.75 52.59375 71.296875 
z
" id="DejaVuSans-54"/>
      </defs>
      <use xlink:href="#DejaVuSans-54"/>
     </g>
    </g>
   </g>
   <g id="xtick_5">
    <g id="line2d_6">
     <path d="M 243.645962 235.032643 
L 241.928856 236.770015 
" style="fill:none;stroke:#000000;stroke-linecap:square;stroke-width:0.8;"/>
    </g>
    <g id="text_5">
     <!-- 8 -->
     <g transform="translate(232.509511 259.84323)scale(0.1 -0.1)">
      <defs>
       <path d="M 31.78125 34.625 
Q 24.75 34.625 20.71875 30.859375 
Q 16.703125 27.09375 16.703125 20.515625 
Q 16.703125 13.921875 20.71875 10.15625 
Q 24.75 6.390625 31.78125 6.390625 
Q 38.8125 6.390625 42.859375 10.171875 
Q 46.921875 13.96875 46.921875 20.515625 
Q 46.921875 27.09375 42.890625 30.859375 
Q 38.875 34.625 31.78125 34.625 
z
M 21.921875 38.8125 
Q 15.578125 40.375 12.03125 44.71875 
Q 8.5 49.078125 8.5 55.328125 
Q 8.5 64.0625 14.71875 69.140625 
Q 20.953125 74.21875 31.78125 74.21875 
Q 42.671875 74.21875 48.875 69.140625 
Q 55.078125 64.0625 55.078125 55.328125 
Q 55.078125 49.078125 51.53125 44.71875 
Q 48 40.375 41.703125 38.8125 
Q 48.828125 37.15625 52.796875 32.3125 
Q 56.78125 27.484375 56.78125 20.515625 
Q 56.78125 9.90625 50.3125 4.234375 
Q 43.84375 -1.421875 31.78125 -1.421875 
Q 19.734375 -1.421875 13.25 4.234375 
Q 6.78125 9.90625 6.78125 20.515625 
Q 6.78125 27.484375 10.78125 32.3125 
Q 14.796875 37.15625 21.921875 38.8125 
z
M 18.3125 54.390625 
Q 18.3125 48.734375 21.84375 45.5625 
Q 25.390625 42.390625 31.78125 42.390625 
Q 38.140625 42.390625 41.71875 45.5625 
Q 45.3125 48.734375 45.3125 54.390625 
Q 45.3125 60.0625 41.71875 63.234375 
Q 38.140625 66.40625 31.78125 66.40625 
Q 25.390625 66.40625 21.84375 63.234375 
Q 18.3125 60.0625 18.3125 54.390625 
z
" id="DejaVuSans-56"/>
      </defs>
      <use xlink:href="#DejaVuSans-56"/>
     </g>
    </g>
   </g>
  </g>
  <g id="axis3d_2">
   <g id="line2d_7">
    <path d="M 316.12668 171.68791 
L 251.239879 238.27773 
" style="fill:none;stroke:#000000;stroke-linecap:square;stroke-width:0.8;"/>
   </g>
   <g id="Line3DCollection_2">
    <path d="M 129.866948 102.505071 
L 134.046245 194.238731 
L 255.729543 233.67023 
" style="fill:none;stroke:#b0b0b0;stroke-width:0.8;"/>
    <path d="M 147.250212 89.819556 
L 150.59591 180.366474 
L 270.72626 218.279909 
" style="fill:none;stroke:#b0b0b0;stroke-width:0.8;"/>
    <path d="M 163.958537 77.626582 
L 166.530371 167.009893 
L 285.136664 203.491289 
" style="fill:none;stroke:#b0b0b0;stroke-width:0.8;"/>
    <path d="M 180.030483 65.898008 
L 181.883306 154.140758 
L 298.994481 189.269761 
" style="fill:none;stroke:#b0b0b0;stroke-width:0.8;"/>
    <path d="M 195.501727 54.607799 
L 196.68598 141.732864 
L 312.330896 175.583317 
" style="fill:none;stroke:#b0b0b0;stroke-width:0.8;"/>
   </g>
   <g id="xtick_6">
    <g id="line2d_8">
     <path d="M 254.704115 233.337939 
L 257.783053 234.33567 
" style="fill:none;stroke:#000000;stroke-linecap:square;stroke-width:0.8;"/>
    </g>
    <g id="text_6">
     <!-- 0 -->
     <g transform="translate(265.430654 254.693759)scale(0.1 -0.1)">
      <use xlink:href="#DejaVuSans-48"/>
     </g>
    </g>
   </g>
   <g id="xtick_7">
    <g id="line2d_9">
     <path d="M 269.71494 217.960734 
L 272.751463 218.919068 
" style="fill:none;stroke:#000000;stroke-linecap:square;stroke-width:0.8;"/>
    </g>
    <g id="text_7">
     <!-- 2 -->
     <g transform="translate(280.181112 239.024526)scale(0.1 -0.1)">
      <use xlink:href="#DejaVuSans-50"/>
     </g>
    </g>
   </g>
   <g id="xtick_8">
    <g id="line2d_10">
     <path d="M 284.139145 203.184468 
L 287.134182 204.105694 
" style="fill:none;stroke:#000000;stroke-linecap:square;stroke-width:0.8;"/>
    </g>
    <g id="text_8">
     <!-- 4 -->
     <g transform="translate(294.35448 223.968328)scale(0.1 -0.1)">
      <use xlink:href="#DejaVuSans-52"/>
     </g>
    </g>
   </g>
   <g id="xtick_9">
    <g id="line2d_11">
     <path d="M 298.010457 188.97459 
L 300.964927 189.860821 
" style="fill:none;stroke:#000000;stroke-linecap:square;stroke-width:0.8;"/>
    </g>
    <g id="text_9">
     <!-- 6 -->
     <g transform="translate(307.983974 209.489882)scale(0.1 -0.1)">
      <use xlink:href="#DejaVuSans-54"/>
     </g>
    </g>
   </g>
   <g id="xtick_10">
    <g id="line2d_12">
     <path d="M 311.360068 175.299146 
L 314.274875 176.15234 
" style="fill:none;stroke:#000000;stroke-linecap:square;stroke-width:0.8;"/>
    </g>
    <g id="text_10">
     <!-- 8 -->
     <g transform="translate(321.10031 195.556556)scale(0.1 -0.1)">
      <use xlink:href="#DejaVuSans-56"/>
     </g>
    </g>
   </g>
  </g>
  <g id="axis3d_3">
   <g id="line2d_13">
    <path d="M 316.12668 171.68791 
L 320.238571 81.894718 
" style="fill:none;stroke:#000000;stroke-linecap:square;stroke-width:0.8;"/>
   </g>
   <g id="Line3DCollection_3">
    <path d="M 316.205459 169.967571 
L 200.884845 136.530725 
L 129.013401 196.624949 
" style="fill:none;stroke:#b0b0b0;stroke-width:0.8;"/>
    <path d="M 317.276881 146.570455 
L 200.624371 113.879171 
L 127.859297 172.65924 
" style="fill:none;stroke:#b0b0b0;stroke-width:0.8;"/>
    <path d="M 318.37359 122.621149 
L 200.358045 90.71883 
L 126.676906 148.106111 
" style="fill:none;stroke:#b0b0b0;stroke-width:0.8;"/>
    <path d="M 319.49649 98.099873 
L 200.08567 67.032366 
L 125.465173 122.943697 
" style="fill:none;stroke:#b0b0b0;stroke-width:0.8;"/>
   </g>
   <g id="xtick_11">
    <g id="line2d_14">
     <path d="M 315.237563 169.686933 
L 318.143556 170.529516 
" style="fill:none;stroke:#000000;stroke-linecap:square;stroke-width:0.8;"/>
    </g>
    <g id="text_11">
     <!-- 0 -->
     <g transform="translate(331.275915 174.966846)scale(0.1 -0.1)">
      <use xlink:href="#DejaVuSans-48"/>
     </g>
    </g>
   </g>
   <g id="xtick_12">
    <g id="line2d_15">
     <path d="M 316.297272 146.295924 
L 319.23846 147.120177 
" style="fill:none;stroke:#000000;stroke-linecap:square;stroke-width:0.8;"/>
    </g>
    <g id="text_12">
     <!-- 10000 -->
     <g transform="translate(319.830434 151.626394)scale(0.1 -0.1)">
      <defs>
       <path d="M 12.40625 8.296875 
L 28.515625 8.296875 
L 28.515625 63.921875 
L 10.984375 60.40625 
L 10.984375 69.390625 
L 28.421875 72.90625 
L 38.28125 72.90625 
L 38.28125 8.296875 
L 54.390625 8.296875 
L 54.390625 0 
L 12.40625 0 
z
" id="DejaVuSans-49"/>
      </defs>
      <use xlink:href="#DejaVuSans-49"/>
      <use x="63.623047" xlink:href="#DejaVuSans-48"/>
      <use x="127.246094" xlink:href="#DejaVuSans-48"/>
      <use x="190.869141" xlink:href="#DejaVuSans-48"/>
      <use x="254.492188" xlink:href="#DejaVuSans-48"/>
     </g>
    </g>
   </g>
   <g id="xtick_13">
    <g id="line2d_16">
     <path d="M 317.38198 122.353094 
L 320.359225 123.157912 
" style="fill:none;stroke:#000000;stroke-linecap:square;stroke-width:0.8;"/>
    </g>
    <g id="text_13">
     <!-- 20000 -->
     <g transform="translate(321.140037 127.73716)scale(0.1 -0.1)">
      <use xlink:href="#DejaVuSans-50"/>
      <use x="63.623047" xlink:href="#DejaVuSans-48"/>
      <use x="127.246094" xlink:href="#DejaVuSans-48"/>
      <use x="190.869141" xlink:href="#DejaVuSans-48"/>
      <use x="254.492188" xlink:href="#DejaVuSans-48"/>
     </g>
    </g>
   </g>
   <g id="xtick_14">
    <g id="line2d_17">
     <path d="M 318.492583 97.838683 
L 321.506779 98.622896 
" style="fill:none;stroke:#000000;stroke-linecap:square;stroke-width:0.8;"/>
    </g>
    <g id="text_14">
     <!-- 30000 -->
     <g transform="translate(322.480797 103.279558)scale(0.1 -0.1)">
      <defs>
       <path d="M 40.578125 39.3125 
Q 47.65625 37.796875 51.625 33 
Q 55.609375 28.21875 55.609375 21.1875 
Q 55.609375 10.40625 48.1875 4.484375 
Q 40.765625 -1.421875 27.09375 -1.421875 
Q 22.515625 -1.421875 17.65625 -0.515625 
Q 12.796875 0.390625 7.625 2.203125 
L 7.625 11.71875 
Q 11.71875 9.328125 16.59375 8.109375 
Q 21.484375 6.890625 26.8125 6.890625 
Q 36.078125 6.890625 40.9375 10.546875 
Q 45.796875 14.203125 45.796875 21.1875 
Q 45.796875 27.640625 41.28125 31.265625 
Q 36.765625 34.90625 28.71875 34.90625 
L 20.21875 34.90625 
L 20.21875 43.015625 
L 29.109375 43.015625 
Q 36.375 43.015625 40.234375 45.921875 
Q 44.09375 48.828125 44.09375 54.296875 
Q 44.09375 59.90625 40.109375 62.90625 
Q 36.140625 65.921875 28.71875 65.921875 
Q 24.65625 65.921875 20.015625 65.03125 
Q 15.375 64.15625 9.8125 62.3125 
L 9.8125 71.09375 
Q 15.4375 72.65625 20.34375 73.4375 
Q 25.25 74.21875 29.59375 74.21875 
Q 40.828125 74.21875 47.359375 69.109375 
Q 53.90625 64.015625 53.90625 55.328125 
Q 53.90625 49.265625 50.4375 45.09375 
Q 46.96875 40.921875 40.578125 39.3125 
z
" id="DejaVuSans-51"/>
      </defs>
      <use xlink:href="#DejaVuSans-51"/>
      <use x="63.623047" xlink:href="#DejaVuSans-48"/>
      <use x="127.246094" xlink:href="#DejaVuSans-48"/>
      <use x="190.869141" xlink:href="#DejaVuSans-48"/>
      <use x="254.492188" xlink:href="#DejaVuSans-48"/>
     </g>
    </g>
   </g>
  </g>
  <g id="axes_1">
   <g id="Poly3DCollection_1">
    <path clip-path="url(#p94ad3db64a)" d="M 203.700438 142.115361 
L 203.696598 141.736954 
L 215.862317 145.287292 
L 215.863902 145.66701 
z
" style="fill:#050338;"/>
    <path clip-path="url(#p94ad3db64a)" d="M 196.401162 148.290596 
L 196.395917 147.909914 
L 203.696598 141.736954 
L 203.700438 142.115361 
z
" style="fill:#0b0777;"/>
    <path clip-path="url(#p94ad3db64a)" d="M 196.401162 148.290596 
L 203.700438 142.115361 
L 215.863902 145.66701 
L 208.637156 151.907182 
z
" style="fill:#070448;"/>
    <path clip-path="url(#p94ad3db64a)" d="M 196.395917 147.909914 
L 208.634193 151.525176 
L 215.862317 145.287292 
L 203.696598 141.736954 
z
" style="fill:#0a0667;"/>
    <path clip-path="url(#p94ad3db64a)" d="M 215.863902 145.66701 
L 215.85637 143.862371 
L 228.158434 147.445023 
L 228.155024 149.255935 
z
" style="fill:#0b033b;"/>
    <path clip-path="url(#p94ad3db64a)" d="M 208.637156 151.907182 
L 215.863902 145.66701 
L 215.862317 145.287292 
L 208.634193 151.525176 
z
" style="fill:#050338;"/>
    <path clip-path="url(#p94ad3db64a)" d="M 208.637156 151.907182 
L 208.623074 150.091658 
L 215.85637 143.862371 
L 215.863902 145.66701 
z
" style="fill:#18057c;"/>
    <path clip-path="url(#p94ad3db64a)" d="M 196.401162 148.290596 
L 208.637156 151.907182 
L 208.634193 151.525176 
L 196.395917 147.909914 
z
" style="fill:#0b0777;"/>
    <path clip-path="url(#p94ad3db64a)" d="M 196.401162 148.290596 
L 196.395902 147.908798 
L 208.634184 151.524057 
L 208.637156 151.907182 
z
" style="fill:#050338;"/>
    <path clip-path="url(#p94ad3db64a)" d="M 208.637156 151.907182 
L 215.863902 145.66701 
L 228.155024 149.255935 
L 221.002748 155.562072 
z
" style="fill:#0e034b;"/>
    <path clip-path="url(#p94ad3db64a)" d="M 208.623074 150.091658 
L 220.99974 153.740221 
L 228.158434 147.445023 
L 215.85637 143.862371 
z
" style="fill:#15056c;"/>
    <path clip-path="url(#p94ad3db64a)" d="M 188.96817 154.578956 
L 188.96145 154.194855 
L 196.395902 147.908798 
L 196.401162 148.290596 
z
" style="fill:#0b0777;"/>
    <path clip-path="url(#p94ad3db64a)" d="M 221.002748 155.562072 
L 228.155024 149.255935 
L 228.158434 147.445023 
L 220.99974 153.740221 
z
" style="fill:#0b033b;"/>
    <path clip-path="url(#p94ad3db64a)" d="M 188.96817 154.578956 
L 196.401162 148.290596 
L 208.637156 151.907182 
L 201.27732 158.262275 
z
" style="fill:#070448;"/>
    <path clip-path="url(#p94ad3db64a)" d="M 188.96145 154.194855 
L 201.272915 157.876835 
L 208.634184 151.524057 
L 196.395902 147.908798 
z
" style="fill:#0a0667;"/>
    <path clip-path="url(#p94ad3db64a)" d="M 208.637156 151.907182 
L 221.002748 155.562072 
L 220.99974 153.740221 
L 208.623074 150.091658 
z
" style="fill:#18057c;"/>
    <path clip-path="url(#p94ad3db64a)" d="M 208.637156 151.907182 
L 208.620943 149.816976 
L 220.999285 153.46458 
L 221.002748 155.562072 
z
" style="fill:#0c033b;"/>
    <path clip-path="url(#p94ad3db64a)" d="M 221.002748 155.562072 
L 228.155024 149.255935 
L 240.575825 152.882725 
L 233.500008 159.25588 
z
" style="fill:#490458;"/>
    <path clip-path="url(#p94ad3db64a)" d="M 228.155024 149.255935 
L 228.198575 126.128002 
L 240.762096 129.672991 
L 240.575825 152.882725 
z
" style="fill:#390345;"/>
    <path clip-path="url(#p94ad3db64a)" d="M 201.27732 158.262275 
L 208.637156 151.907182 
L 208.634184 151.524057 
L 201.272915 157.876835 
z
" style="fill:#050338;"/>
    <path clip-path="url(#p94ad3db64a)" d="M 201.27732 158.262275 
L 201.253287 156.159425 
L 208.620943 149.816976 
L 208.637156 151.907182 
z
" style="fill:#1a057d;"/>
    <path clip-path="url(#p94ad3db64a)" d="M 221.002748 155.562072 
L 220.964333 132.292181 
L 228.198575 126.128002 
L 228.155024 149.255935 
z
" style="fill:#780792;"/>
    <path clip-path="url(#p94ad3db64a)" d="M 188.96817 154.578956 
L 188.962789 154.271382 
L 201.273792 157.953629 
L 201.27732 158.262275 
z
" style="fill:#050338;"/>
    <path clip-path="url(#p94ad3db64a)" d="M 188.96817 154.578956 
L 201.27732 158.262275 
L 201.272915 157.876835 
L 188.96145 154.194855 
z
" style="fill:#0b0777;"/>
    <path clip-path="url(#p94ad3db64a)" d="M 201.27732 158.262275 
L 208.637156 151.907182 
L 221.002748 155.562072 
L 213.718049 161.984967 
z
" style="fill:#10034c;"/>
    <path clip-path="url(#p94ad3db64a)" d="M 201.253287 156.159425 
L 213.706922 159.874767 
L 220.999285 153.46458 
L 208.620943 149.816976 
z
" style="fill:#17056d;"/>
    <path clip-path="url(#p94ad3db64a)" d="M 181.397755 160.983577 
L 181.391161 160.674143 
L 188.962789 154.271382 
L 188.96817 154.578956 
z
" style="fill:#0b0777;"/>
    <path clip-path="url(#p94ad3db64a)" d="M 233.500008 159.25588 
L 240.575825 152.882725 
L 253.128369 156.547983 
L 246.131049 162.989229 
z
" style="fill:#875b1b;"/>
    <path clip-path="url(#p94ad3db64a)" d="M 213.718049 161.984967 
L 221.002748 155.562072 
L 220.999285 153.46458 
L 213.706922 159.874767 
z
" style="fill:#0c033b;"/>
    <path clip-path="url(#p94ad3db64a)" d="M 181.397755 160.983577 
L 188.96817 154.578956 
L 201.27732 158.262275 
L 193.780682 164.735494 
z
" style="fill:#070448;"/>
    <path clip-path="url(#p94ad3db64a)" d="M 181.391161 160.674143 
L 193.775964 164.424978 
L 201.273792 157.953629 
L 188.962789 154.271382 
z
" style="fill:#0a0667;"/>
    <path clip-path="url(#p94ad3db64a)" d="M 233.500008 159.25588 
L 240.575825 152.882725 
L 240.762096 129.672991 
L 233.606087 135.903435 
z
" style="fill:#390345;"/>
    <path clip-path="url(#p94ad3db64a)" d="M 201.27732 158.262275 
L 201.25649 156.439681 
L 213.708405 160.156004 
L 213.718049 161.984967 
z
" style="fill:#0b033b;"/>
    <path clip-path="url(#p94ad3db64a)" d="M 201.27732 158.262275 
L 213.718049 161.984967 
L 213.706922 159.874767 
L 201.253287 156.159425 
z
" style="fill:#1a057d;"/>
    <path clip-path="url(#p94ad3db64a)" d="M 213.718049 161.984967 
L 221.002748 155.562072 
L 233.500008 159.25588 
L 226.292478 165.747667 
z
" style="fill:#560f52;"/>
    <path clip-path="url(#p94ad3db64a)" d="M 221.002748 155.562072 
L 233.500008 159.25588 
L 233.606087 135.903435 
L 220.964333 132.292181 
z
" style="fill:#780792;"/>
    <path clip-path="url(#p94ad3db64a)" d="M 193.780682 164.735494 
L 201.27732 158.262275 
L 201.273792 157.953629 
L 193.775964 164.424978 
z
" style="fill:#050338;"/>
    <path clip-path="url(#p94ad3db64a)" d="M 246.131049 162.989229 
L 253.128369 156.547983 
L 265.814761 160.252323 
L 258.898031 166.762758 
z
" style="fill:#857313;"/>
    <path clip-path="url(#p94ad3db64a)" d="M 193.780682 164.735494 
L 193.752824 162.901847 
L 201.25649 156.439681 
L 201.27732 158.262275 
z
" style="fill:#18057c;"/>
    <path clip-path="url(#p94ad3db64a)" d="M 220.964333 132.292181 
L 233.606087 135.903435 
L 240.762096 129.672991 
L 228.198575 126.128002 
z
" style="fill:#69067f;"/>
    <path clip-path="url(#p94ad3db64a)" d="M 221.002748 155.562072 
L 220.954164 126.13237 
L 233.634169 129.721292 
L 233.500008 159.25588 
z
" style="fill:#440c40;"/>
    <path clip-path="url(#p94ad3db64a)" d="M 181.397755 160.983577 
L 181.391181 160.675063 
L 193.775978 164.425901 
L 193.780682 164.735494 
z
" style="fill:#050338;"/>
    <path clip-path="url(#p94ad3db64a)" d="M 181.397755 160.983577 
L 193.780682 164.735494 
L 193.775964 164.424978 
L 181.391161 160.674143 
z
" style="fill:#0b0777;"/>
    <path clip-path="url(#p94ad3db64a)" d="M 193.780682 164.735494 
L 201.27732 158.262275 
L 213.718049 161.984967 
L 206.297214 168.527892 
z
" style="fill:#0e034b;"/>
    <path clip-path="url(#p94ad3db64a)" d="M 213.718049 161.984967 
L 213.561908 132.373245 
L 220.954164 126.13237 
L 221.002748 155.562072 
z
" style="fill:#8f1988;"/>
    <path clip-path="url(#p94ad3db64a)" d="M 193.752824 162.901847 
L 206.280678 166.68782 
L 213.708405 160.156004 
L 201.25649 156.439681 
z
" style="fill:#15056c;"/>
    <path clip-path="url(#p94ad3db64a)" d="M 173.686069 167.507715 
L 173.678242 167.197329 
L 181.391181 160.675063 
L 181.397755 160.983577 
z
" style="fill:#0b0777;"/>
    <path clip-path="url(#p94ad3db64a)" d="M 226.292478 165.747667 
L 233.500008 159.25588 
L 246.131049 162.989229 
L 239.002775 169.551023 
z
" style="fill:#867113;"/>
    <path clip-path="url(#p94ad3db64a)" d="M 258.898031 166.762758 
L 265.814761 160.252323 
L 278.637155 163.996376 
L 271.803162 170.57712 
z
" style="fill:#834c25;"/>
    <path clip-path="url(#p94ad3db64a)" d="M 206.297214 168.527892 
L 213.718049 161.984967 
L 213.708405 160.156004 
L 206.280678 166.68782 
z
" style="fill:#0b033b;"/>
    <path clip-path="url(#p94ad3db64a)" d="M 173.686069 167.507715 
L 181.397755 160.983577 
L 193.780682 164.735494 
L 186.143392 171.330164 
z
" style="fill:#070448;"/>
    <path clip-path="url(#p94ad3db64a)" d="M 173.678242 167.197329 
L 186.137458 171.01869 
L 193.775978 164.425901 
L 181.391181 160.675063 
z
" style="fill:#0a0667;"/>
    <path clip-path="url(#p94ad3db64a)" d="M 240.575825 152.882725 
L 241.123609 84.627474 
L 254.104949 88.042805 
L 253.128369 156.547983 
z
" style="fill:#694715;"/>
    <path clip-path="url(#p94ad3db64a)" d="M 193.780682 164.735494 
L 193.753036 162.915782 
L 206.280803 166.701803 
L 206.297214 168.527892 
z
" style="fill:#0b033b;"/>
    <path clip-path="url(#p94ad3db64a)" d="M 193.780682 164.735494 
L 206.297214 168.527892 
L 206.280678 166.68782 
L 193.752824 162.901847 
z
" style="fill:#18057c;"/>
    <path clip-path="url(#p94ad3db64a)" d="M 206.297214 168.527892 
L 213.718049 161.984967 
L 226.292478 165.747667 
L 218.949524 172.361429 
z
" style="fill:#591251;"/>
    <path clip-path="url(#p94ad3db64a)" d="M 278.637155 163.996376 
L 278.86327 155.617383 
L 291.879351 159.37229 
L 291.597749 167.780781 
z
" style="fill:#1b0141;"/>
    <path clip-path="url(#p94ad3db64a)" d="M 226.292478 165.747667 
L 233.500008 159.25588 
L 233.634169 129.721292 
L 226.321364 136.030095 
z
" style="fill:#440c40;"/>
    <path clip-path="url(#p94ad3db64a)" d="M 233.500008 159.25588 
L 233.81203 90.566841 
L 241.123609 84.627474 
L 240.575825 152.882725 
z
" style="fill:#df972d;"/>
    <path clip-path="url(#p94ad3db64a)" d="M 186.143392 171.330164 
L 193.780682 164.735494 
L 193.775978 164.425901 
L 186.137458 171.01869 
z
" style="fill:#050338;"/>
    <path clip-path="url(#p94ad3db64a)" d="M 239.002775 169.551023 
L 246.131049 162.989229 
L 258.898031 166.762758 
L 251.851153 173.395697 
z
" style="fill:#808512;"/>
    <path clip-path="url(#p94ad3db64a)" d="M 186.143392 171.330164 
L 186.108512 169.499387 
L 193.753036 162.915782 
L 193.780682 164.735494 
z
" style="fill:#18057c;"/>
    <path clip-path="url(#p94ad3db64a)" d="M 271.803162 170.57712 
L 272.002678 162.146939 
L 278.86327 155.617383 
L 278.637155 163.996376 
z
" style="fill:#39038b;"/>
    <path clip-path="url(#p94ad3db64a)" d="M 213.718049 161.984967 
L 226.292478 165.747667 
L 226.321364 136.030095 
L 213.561908 132.373245 
z
" style="fill:#8f1988;"/>
    <path clip-path="url(#p94ad3db64a)" d="M 271.803162 170.57712 
L 278.637155 163.996376 
L 291.597749 167.780781 
L 284.848695 174.43298 
z
" style="fill:#230254;"/>
    <path clip-path="url(#p94ad3db64a)" d="M 213.718049 161.984967 
L 213.554799 131.025007 
L 226.322679 134.676926 
L 226.292478 165.747667 
z
" style="fill:#460e3f;"/>
    <path clip-path="url(#p94ad3db64a)" d="M 173.686069 167.507715 
L 173.679709 167.255511 
L 186.138571 171.077077 
L 186.143392 171.330164 
z
" style="fill:#050338;"/>
    <path clip-path="url(#p94ad3db64a)" d="M 173.686069 167.507715 
L 186.143392 171.330164 
L 186.137458 171.01869 
L 173.678242 167.197329 
z
" style="fill:#0b0777;"/>
    <path clip-path="url(#p94ad3db64a)" d="M 291.597749 167.780781 
L 291.629605 166.829556 
L 304.737057 170.651636 
L 304.698789 171.606197 
z
" style="fill:#080339;"/>
    <path clip-path="url(#p94ad3db64a)" d="M 186.143392 171.330164 
L 193.780682 164.735494 
L 206.297214 168.527892 
L 198.736391 175.194243 
z
" style="fill:#0e034b;"/>
    <path clip-path="url(#p94ad3db64a)" d="M 186.108512 169.499387 
L 198.712884 173.357036 
L 206.280803 166.701803 
L 193.753036 162.915782 
z
" style="fill:#15056c;"/>
    <path clip-path="url(#p94ad3db64a)" d="M 206.297214 168.527892 
L 206.017264 137.375684 
L 213.554799 131.025007 
L 213.718049 161.984967 
z
" style="fill:#941d85;"/>
    <path clip-path="url(#p94ad3db64a)" d="M 165.82912 174.154745 
L 165.821705 173.901008 
L 173.679709 167.255511 
L 173.686069 167.507715 
z
" style="fill:#0b0777;"/>
    <path clip-path="url(#p94ad3db64a)" d="M 213.561908 132.373245 
L 226.321364 136.030095 
L 233.634169 129.721292 
L 220.954164 126.13237 
z
" style="fill:#7c1676;"/>
    <path clip-path="url(#p94ad3db64a)" d="M 218.949524 172.361429 
L 226.292478 165.747667 
L 239.002775 169.551023 
L 231.739835 176.23678 
z
" style="fill:#876915;"/>
    <path clip-path="url(#p94ad3db64a)" d="M 284.848695 174.43298 
L 284.877626 173.475968 
L 291.629605 166.829556 
L 291.597749 167.780781 
z
" style="fill:#110679;"/>
    <path clip-path="url(#p94ad3db64a)" d="M 246.131049 162.989229 
L 253.128369 156.547983 
L 254.104949 88.042805 
L 246.877362 94.047798 
z
" style="fill:#694715;"/>
    <path clip-path="url(#p94ad3db64a)" d="M 253.128369 156.547983 
L 254.247356 78.053216 
L 267.435764 81.467477 
L 265.814761 160.252323 
z
" style="fill:#685a0f;"/>
    <path clip-path="url(#p94ad3db64a)" d="M 251.851153 173.395697 
L 258.898031 166.762758 
L 271.803162 170.57712 
L 264.839875 177.282368 
z
" style="fill:#834b25;"/>
    <path clip-path="url(#p94ad3db64a)" d="M 272.002678 162.146939 
L 285.104437 165.973044 
L 291.879351 159.37229 
L 278.86327 155.617383 
z
" style="fill:#320378;"/>
    <path clip-path="url(#p94ad3db64a)" d="M 198.736391 175.194243 
L 206.297214 168.527892 
L 206.280803 166.701803 
L 198.712884 173.357036 
z
" style="fill:#0b033b;"/>
    <path clip-path="url(#p94ad3db64a)" d="M 284.848695 174.43298 
L 291.597749 167.780781 
L 291.879351 159.37229 
L 285.104437 165.973044 
z
" style="fill:#1b0141;"/>
    <path clip-path="url(#p94ad3db64a)" d="M 165.82912 174.154745 
L 173.686069 167.507715 
L 186.143392 171.330164 
L 178.361455 178.049733 
z
" style="fill:#070448;"/>
    <path clip-path="url(#p94ad3db64a)" d="M 165.821705 173.901008 
L 178.355596 177.795106 
L 186.138571 171.077077 
L 173.679709 167.255511 
z
" style="fill:#0a0667;"/>
    <path clip-path="url(#p94ad3db64a)" d="M 265.814761 160.252323 
L 267.089082 98.317063 
L 280.31465 101.834546 
L 278.637155 163.996376 
z
" style="fill:#673b1d;"/>
    <path clip-path="url(#p94ad3db64a)" d="M 284.848695 174.43298 
L 291.597749 167.780781 
L 304.698789 171.606197 
L 298.036935 178.33102 
z
" style="fill:#0a0449;"/>
    <path clip-path="url(#p94ad3db64a)" d="M 233.500008 159.25588 
L 246.131049 162.989229 
L 246.877362 94.047798 
L 233.81203 90.566841 
z
" style="fill:#df972d;"/>
    <path clip-path="url(#p94ad3db64a)" d="M 284.877626 173.475968 
L 298.072363 177.370645 
L 304.737057 170.651636 
L 291.629605 166.829556 
z
" style="fill:#0f0569;"/>
    <path clip-path="url(#p94ad3db64a)" d="M 246.131049 162.989229 
L 246.98623 83.99097 
L 254.247356 78.053216 
L 253.128369 156.547983 
z
" style="fill:#ddbf20;"/>
    <path clip-path="url(#p94ad3db64a)" d="M 186.143392 171.330164 
L 186.121515 170.18186 
L 198.721647 174.041908 
L 198.736391 175.194243 
z
" style="fill:#09033a;"/>
    <path clip-path="url(#p94ad3db64a)" d="M 186.143392 171.330164 
L 198.736391 175.194243 
L 198.712884 173.357036 
L 186.108512 169.499387 
z
" style="fill:#18057c;"/>
    <path clip-path="url(#p94ad3db64a)" d="M 271.803162 170.57712 
L 271.955214 164.152468 
L 285.043596 167.985687 
L 284.848695 174.43298 
z
" style="fill:#170240;"/>
    <path clip-path="url(#p94ad3db64a)" d="M 198.736391 175.194243 
L 206.297214 168.527892 
L 218.949524 172.361429 
L 211.467294 179.100638 
z
" style="fill:#5c144f;"/>
    <path clip-path="url(#p94ad3db64a)" d="M 271.803162 170.57712 
L 284.848695 174.43298 
L 285.104437 165.973044 
L 272.002678 162.146939 
z
" style="fill:#39038b;"/>
    <path clip-path="url(#p94ad3db64a)" d="M 258.898031 166.762758 
L 259.970047 104.434267 
L 267.089082 98.317063 
L 265.814761 160.252323 
z
" style="fill:#d97e3c;"/>
    <path clip-path="url(#p94ad3db64a)" d="M 218.949524 172.361429 
L 226.292478 165.747667 
L 226.322679 134.676926 
L 218.865443 141.09743 
z
" style="fill:#460e3f;"/>
    <path clip-path="url(#p94ad3db64a)" d="M 233.500008 159.25588 
L 233.852664 81.621528 
L 246.974573 85.067766 
L 246.131049 162.989229 
z
" style="fill:#69580f;"/>
    <path clip-path="url(#p94ad3db64a)" d="M 178.361455 178.049733 
L 186.143392 171.330164 
L 186.138571 171.077077 
L 178.355596 177.795106 
z
" style="fill:#050338;"/>
    <path clip-path="url(#p94ad3db64a)" d="M 231.739835 176.23678 
L 239.002775 169.551023 
L 251.851153 173.395697 
L 244.670417 180.154631 
z
" style="fill:#867213;"/>
    <path clip-path="url(#p94ad3db64a)" d="M 178.361455 178.049733 
L 178.334871 176.894434 
L 186.121515 170.18186 
L 186.143392 171.330164 
z
" style="fill:#13067a;"/>
    <path clip-path="url(#p94ad3db64a)" d="M 264.839875 177.282368 
L 264.970851 170.818428 
L 271.955214 164.152468 
L 271.803162 170.57712 
z
" style="fill:#300487;"/>
    <path clip-path="url(#p94ad3db64a)" d="M 298.036935 178.33102 
L 304.698789 171.606197 
L 304.737057 170.651636 
L 298.072363 177.370645 
z
" style="fill:#080339;"/>
    <path clip-path="url(#p94ad3db64a)" d="M 264.839875 177.282368 
L 271.803162 170.57712 
L 284.848695 174.43298 
L 277.971253 181.211726 
z
" style="fill:#1d0251;"/>
    <path clip-path="url(#p94ad3db64a)" d="M 206.297214 168.527892 
L 218.949524 172.361429 
L 218.865443 141.09743 
L 206.017264 137.375684 
z
" style="fill:#941d85;"/>
    <path clip-path="url(#p94ad3db64a)" d="M 226.292478 165.747667 
L 226.368424 87.61498 
L 233.852664 81.621528 
L 233.500008 159.25588 
z
" style="fill:#debb20;"/>
    <path clip-path="url(#p94ad3db64a)" d="M 165.82912 174.154745 
L 165.823567 173.964735 
L 178.357068 177.859056 
L 178.361455 178.049733 
z
" style="fill:#050338;"/>
    <path clip-path="url(#p94ad3db64a)" d="M 165.82912 174.154745 
L 178.361455 178.049733 
L 178.355596 177.795106 
L 165.821705 173.901008 
z
" style="fill:#0b0777;"/>
    <path clip-path="url(#p94ad3db64a)" d="M 206.297214 168.527892 
L 206.007491 136.288229 
L 218.862508 140.005978 
L 218.949524 172.361429 
z
" style="fill:#48103d;"/>
    <path clip-path="url(#p94ad3db64a)" d="M 284.848695 174.43298 
L 284.873153 173.623903 
L 298.066887 177.5191 
L 298.036935 178.33102 
z
" style="fill:#080339;"/>
    <path clip-path="url(#p94ad3db64a)" d="M 284.848695 174.43298 
L 298.036935 178.33102 
L 298.072363 177.370645 
L 284.877626 173.475968 
z
" style="fill:#110679;"/>
    <path clip-path="url(#p94ad3db64a)" d="M 178.361455 178.049733 
L 186.143392 171.330164 
L 198.736391 175.194243 
L 191.031582 181.987547 
z
" style="fill:#0c044a;"/>
    <path clip-path="url(#p94ad3db64a)" d="M 178.334871 176.894434 
L 191.012218 180.828183 
L 198.721647 174.041908 
L 186.121515 170.18186 
z
" style="fill:#11056a;"/>
    <path clip-path="url(#p94ad3db64a)" d="M 258.898031 166.762758 
L 265.814761 160.252323 
L 267.435764 81.467477 
L 260.261797 87.471523 
z
" style="fill:#685a0f;"/>
    <path clip-path="url(#p94ad3db64a)" d="M 157.822766 180.928173 
L 157.816393 180.737005 
L 165.823567 173.964735 
L 165.82912 174.154745 
z
" style="fill:#0b0777;"/>
    <path clip-path="url(#p94ad3db64a)" d="M 198.736391 175.194243 
L 198.321309 142.753645 
L 206.007491 136.288229 
L 206.297214 168.527892 
z
" style="fill:#982182;"/>
    <path clip-path="url(#p94ad3db64a)" d="M 211.467294 179.100638 
L 218.949524 172.361429 
L 231.739835 176.23678 
L 224.338378 183.050047 
z
" style="fill:#86561f;"/>
    <path clip-path="url(#p94ad3db64a)" d="M 277.971253 181.211726 
L 277.993138 180.397716 
L 284.873153 173.623903 
L 284.848695 174.43298 
z
" style="fill:#110679;"/>
    <path clip-path="url(#p94ad3db64a)" d="M 206.017264 137.375684 
L 218.865443 141.09743 
L 226.322679 134.676926 
L 213.554799 131.025007 
z
" style="fill:#801974;"/>
    <path clip-path="url(#p94ad3db64a)" d="M 264.970851 170.818428 
L 278.14565 174.724951 
L 285.043596 167.985687 
L 271.955214 164.152468 
z
" style="fill:#2a0375;"/>
    <path clip-path="url(#p94ad3db64a)" d="M 271.803162 170.57712 
L 278.637155 163.996376 
L 280.31465 101.834546 
L 273.2837 108.019869 
z
" style="fill:#673b1d;"/>
    <path clip-path="url(#p94ad3db64a)" d="M 246.131049 162.989229 
L 258.898031 166.762758 
L 260.261797 87.471523 
L 246.98623 83.99097 
z
" style="fill:#ddbf20;"/>
    <path clip-path="url(#p94ad3db64a)" d="M 244.670417 180.154631 
L 251.851153 173.395697 
L 264.839875 177.282368 
L 257.743589 184.115686 
z
" style="fill:#793832;"/>
    <path clip-path="url(#p94ad3db64a)" d="M 191.031582 181.987547 
L 198.736391 175.194243 
L 198.721647 174.041908 
L 191.012218 180.828183 
z
" style="fill:#09033a;"/>
    <path clip-path="url(#p94ad3db64a)" d="M 277.971253 181.211726 
L 284.848695 174.43298 
L 285.043596 167.985687 
L 278.14565 174.724951 
z
" style="fill:#170240;"/>
    <path clip-path="url(#p94ad3db64a)" d="M 157.822766 180.928173 
L 165.82912 174.154745 
L 178.361455 178.049733 
L 170.430723 184.897786 
z
" style="fill:#070448;"/>
    <path clip-path="url(#p94ad3db64a)" d="M 258.898031 166.762758 
L 259.956999 105.192889 
L 273.265676 108.781402 
L 271.803162 170.57712 
z
" style="fill:#663a1d;"/>
    <path clip-path="url(#p94ad3db64a)" d="M 157.816393 180.737005 
L 170.425529 184.705945 
L 178.357068 177.859056 
L 165.823567 173.964735 
z
" style="fill:#0a0667;"/>
    <path clip-path="url(#p94ad3db64a)" d="M 258.898031 166.762758 
L 271.803162 170.57712 
L 273.2837 108.019869 
L 259.970047 104.434267 
z
" style="fill:#d97e3c;"/>
    <path clip-path="url(#p94ad3db64a)" d="M 277.971253 181.211726 
L 284.848695 174.43298 
L 298.036935 178.33102 
L 291.24765 185.184478 
z
" style="fill:#0a0449;"/>
    <path clip-path="url(#p94ad3db64a)" d="M 246.131049 162.989229 
L 247.057799 77.379717 
L 260.375954 80.834232 
L 258.898031 166.762758 
z
" style="fill:#64680e;"/>
    <path clip-path="url(#p94ad3db64a)" d="M 239.002775 169.551023 
L 246.131049 162.989229 
L 246.974573 85.067766 
L 239.575905 91.128372 
z
" style="fill:#69580f;"/>
    <path clip-path="url(#p94ad3db64a)" d="M 277.993138 180.397716 
L 291.275103 184.367601 
L 298.066887 177.5191 
L 284.873153 173.623903 
z
" style="fill:#0f0569;"/>
    <path clip-path="url(#p94ad3db64a)" d="M 178.361455 178.049733 
L 178.343129 177.253294 
L 191.018233 181.188306 
L 191.031582 181.987547 
z
" style="fill:#080339;"/>
    <path clip-path="url(#p94ad3db64a)" d="M 264.839875 177.282368 
L 264.947865 171.952826 
L 278.115043 175.863373 
L 277.971253 181.211726 
z
" style="fill:#14023e;"/>
    <path clip-path="url(#p94ad3db64a)" d="M 178.361455 178.049733 
L 191.031582 181.987547 
L 191.012218 180.828183 
L 178.334871 176.894434 
z
" style="fill:#13067a;"/>
    <path clip-path="url(#p94ad3db64a)" d="M 264.839875 177.282368 
L 277.971253 181.211726 
L 278.14565 174.724951 
L 264.970851 170.818428 
z
" style="fill:#300487;"/>
    <path clip-path="url(#p94ad3db64a)" d="M 191.031582 181.987547 
L 198.736391 175.194243 
L 211.467294 179.100638 
L 203.841786 185.968896 
z
" style="fill:#560f53;"/>
    <path clip-path="url(#p94ad3db64a)" d="M 226.292478 165.747667 
L 226.365234 90.897015 
L 239.551826 94.423249 
L 239.002775 169.551023 
z
" style="fill:#6a5210;"/>
    <path clip-path="url(#p94ad3db64a)" d="M 251.851153 173.395697 
L 252.702369 111.433855 
L 259.956999 105.192889 
L 258.898031 166.762758 
z
" style="fill:#d97c3e;"/>
    <path clip-path="url(#p94ad3db64a)" d="M 239.002775 169.551023 
L 239.632475 83.387793 
L 247.057799 77.379717 
L 246.131049 162.989229 
z
" style="fill:#d4dc1e;"/>
    <path clip-path="url(#p94ad3db64a)" d="M 226.292478 165.747667 
L 239.002775 169.551023 
L 239.575905 91.128372 
L 226.368424 87.61498 
z
" style="fill:#debb20;"/>
    <path clip-path="url(#p94ad3db64a)" d="M 170.430723 184.897786 
L 178.361455 178.049733 
L 178.357068 177.859056 
L 170.425529 184.705945 
z
" style="fill:#050338;"/>
    <path clip-path="url(#p94ad3db64a)" d="M 211.467294 179.100638 
L 218.949524 172.361429 
L 218.862508 140.005978 
L 211.257455 146.543204 
z
" style="fill:#48103d;"/>
    <path clip-path="url(#p94ad3db64a)" d="M 233.81203 90.566841 
L 246.877362 94.047798 
L 254.104949 88.042805 
L 241.123609 84.627474 
z
" style="fill:#c28327;"/>
    <path clip-path="url(#p94ad3db64a)" d="M 170.430723 184.897786 
L 170.409029 184.096485 
L 178.343129 177.253294 
L 178.361455 178.049733 
z
" style="fill:#110679;"/>
    <path clip-path="url(#p94ad3db64a)" d="M 224.338378 183.050047 
L 231.739835 176.23678 
L 244.670417 180.154631 
L 237.351973 187.043183 
z
" style="fill:#875a1c;"/>
    <path clip-path="url(#p94ad3db64a)" d="M 257.743589 184.115686 
L 257.833511 178.753505 
L 264.947865 171.952826 
L 264.839875 177.282368 
z
" style="fill:#2a0484;"/>
    <path clip-path="url(#p94ad3db64a)" d="M 291.24765 185.184478 
L 298.036935 178.33102 
L 298.066887 177.5191 
L 291.275103 184.367601 
z
" style="fill:#080339;"/>
    <path clip-path="url(#p94ad3db64a)" d="M 218.949524 172.361429 
L 218.746928 97.029795 
L 226.365234 90.897015 
L 226.292478 165.747667 
z
" style="fill:#e0ae23;"/>
    <path clip-path="url(#p94ad3db64a)" d="M 198.736391 175.194243 
L 198.358011 145.62203 
L 211.276011 149.422153 
L 211.467294 179.100638 
z
" style="fill:#430b41;"/>
    <path clip-path="url(#p94ad3db64a)" d="M 257.743589 184.115686 
L 264.839875 177.282368 
L 277.971253 181.211726 
L 270.961723 188.120663 
z
" style="fill:#190350;"/>
    <path clip-path="url(#p94ad3db64a)" d="M 157.822766 180.928173 
L 157.818628 180.804038 
L 170.42735 184.773214 
L 170.430723 184.897786 
z
" style="fill:#050338;"/>
    <path clip-path="url(#p94ad3db64a)" d="M 157.822766 180.928173 
L 170.430723 184.897786 
L 170.425529 184.705945 
L 157.816393 180.737005 
z
" style="fill:#0b0777;"/>
    <path clip-path="url(#p94ad3db64a)" d="M 198.736391 175.194243 
L 211.467294 179.100638 
L 211.257455 146.543204 
L 198.321309 142.753645 
z
" style="fill:#982182;"/>
    <path clip-path="url(#p94ad3db64a)" d="M 277.971253 181.211726 
L 277.992009 180.439683 
L 291.273688 184.409717 
L 291.24765 185.184478 
z
" style="fill:#070339;"/>
    <path clip-path="url(#p94ad3db64a)" d="M 277.971253 181.211726 
L 291.24765 185.184478 
L 291.275103 184.367601 
L 277.993138 180.397716 
z
" style="fill:#110679;"/>
    <path clip-path="url(#p94ad3db64a)" d="M 170.430723 184.897786 
L 178.361455 178.049733 
L 191.031582 181.987547 
L 183.178635 188.911464 
z
" style="fill:#0a0449;"/>
    <path clip-path="url(#p94ad3db64a)" d="M 170.409029 184.096485 
L 183.161979 188.107339 
L 191.018233 181.188306 
L 178.343129 177.253294 
z
" style="fill:#0f0569;"/>
    <path clip-path="url(#p94ad3db64a)" d="M 191.031582 181.987547 
L 190.534573 152.23092 
L 198.358011 145.62203 
L 198.736391 175.194243 
z
" style="fill:#8e1889;"/>
    <path clip-path="url(#p94ad3db64a)" d="M 149.662704 187.831639 
L 149.658014 187.706746 
L 157.818628 180.804038 
L 157.822766 180.928173 
z
" style="fill:#0b0777;"/>
    <path clip-path="url(#p94ad3db64a)" d="M 203.841786 185.968896 
L 211.467294 179.100638 
L 224.338378 183.050047 
L 216.794403 189.994506 
z
" style="fill:#7d3d2f;"/>
    <path clip-path="url(#p94ad3db64a)" d="M 257.833511 178.753505 
L 271.087925 182.739513 
L 278.115043 175.863373 
L 264.947865 171.952826 
z
" style="fill:#240473;"/>
    <path clip-path="url(#p94ad3db64a)" d="M 251.851153 173.395697 
L 252.570639 121.022751 
L 265.904966 124.718072 
L 264.839875 177.282368 
z
" style="fill:#5f2c27;"/>
    <path clip-path="url(#p94ad3db64a)" d="M 270.961723 188.120663 
L 270.97994 187.343903 
L 277.992009 180.439683 
L 277.971253 181.211726 
z
" style="fill:#0e0678;"/>
    <path clip-path="url(#p94ad3db64a)" d="M 264.839875 177.282368 
L 271.803162 170.57712 
L 273.265676 108.781402 
L 266.100005 115.092516 
z
" style="fill:#663a1d;"/>
    <path clip-path="url(#p94ad3db64a)" d="M 251.851153 173.395697 
L 258.898031 166.762758 
L 260.375954 80.834232 
L 253.039268 86.910257 
z
" style="fill:#64680e;"/>
    <path clip-path="url(#p94ad3db64a)" d="M 198.321309 142.753645 
L 211.257455 146.543204 
L 218.862508 140.005978 
L 206.007491 136.288229 
z
" style="fill:#841d71;"/>
    <path clip-path="url(#p94ad3db64a)" d="M 239.002775 169.551023 
L 239.579726 90.605557 
L 252.93972 94.156561 
L 251.851153 173.395697 
z
" style="fill:#68590f;"/>
    <path clip-path="url(#p94ad3db64a)" d="M 183.178635 188.911464 
L 191.031582 181.987547 
L 191.018233 181.188306 
L 183.161979 188.107339 
z
" style="fill:#080339;"/>
    <path clip-path="url(#p94ad3db64a)" d="M 237.351973 187.043183 
L 244.670417 180.154631 
L 257.743589 184.115686 
L 250.510457 191.080779 
z
" style="fill:#6d273f;"/>
    <path clip-path="url(#p94ad3db64a)" d="M 270.961723 188.120663 
L 277.971253 181.211726 
L 278.115043 175.863373 
L 271.087925 182.739513 
z
" style="fill:#14023e;"/>
    <path clip-path="url(#p94ad3db64a)" d="M 244.670417 180.154631 
L 245.207303 127.449606 
L 252.570639 121.022751 
L 251.851153 173.395697 
z
" style="fill:#c95d53;"/>
    <path clip-path="url(#p94ad3db64a)" d="M 231.739835 176.23678 
L 239.002775 169.551023 
L 239.551826 94.423249 
L 232.019671 100.625307 
z
" style="fill:#6a5210;"/>
    <path clip-path="url(#p94ad3db64a)" d="M 218.949524 172.361429 
L 218.76888 105.192069 
L 231.989345 108.819399 
L 231.739835 176.23678 
z
" style="fill:#694318;"/>
    <path clip-path="url(#p94ad3db64a)" d="M 149.662704 187.831639 
L 157.822766 180.928173 
L 170.430723 184.897786 
L 162.346885 191.878042 
z
" style="fill:#070448;"/>
    <path clip-path="url(#p94ad3db64a)" d="M 251.851153 173.395697 
L 264.839875 177.282368 
L 266.100005 115.092516 
L 252.702369 111.433855 
z
" style="fill:#d97c3e;"/>
    <path clip-path="url(#p94ad3db64a)" d="M 149.658014 187.706746 
L 162.342969 191.752708 
L 170.42735 184.773214 
L 157.818628 180.804038 
z
" style="fill:#0a0667;"/>
    <path clip-path="url(#p94ad3db64a)" d="M 270.961723 188.120663 
L 277.971253 181.211726 
L 291.24765 185.184478 
L 284.327244 192.170297 
z
" style="fill:#090449;"/>
    <path clip-path="url(#p94ad3db64a)" d="M 257.743589 184.115686 
L 257.79464 181.071432 
L 271.033371 185.06566 
L 270.961723 188.120663 
z
" style="fill:#0e023c;"/>
    <path clip-path="url(#p94ad3db64a)" d="M 239.002775 169.551023 
L 251.851153 173.395697 
L 253.039268 86.910257 
L 239.632475 83.387793 
z
" style="fill:#d4dc1e;"/>
    <path clip-path="url(#p94ad3db64a)" d="M 231.739835 176.23678 
L 232.033896 96.781607 
L 239.579726 90.605557 
L 239.002775 169.551023 
z
" style="fill:#ddbe20;"/>
    <path clip-path="url(#p94ad3db64a)" d="M 270.97994 187.343903 
L 284.350814 191.390796 
L 291.273688 184.409717 
L 277.992009 180.439683 
z
" style="fill:#0c0668;"/>
    <path clip-path="url(#p94ad3db64a)" d="M 170.430723 184.897786 
L 170.415904 184.350412 
L 183.167257 188.362161 
L 183.178635 188.911464 
z
" style="fill:#070339;"/>
    <path clip-path="url(#p94ad3db64a)" d="M 170.430723 184.897786 
L 183.178635 188.911464 
L 183.161979 188.107339 
L 170.409029 184.096485 
z
" style="fill:#110679;"/>
    <path clip-path="url(#p94ad3db64a)" d="M 257.743589 184.115686 
L 270.961723 188.120663 
L 271.087925 182.739513 
L 257.833511 178.753505 
z
" style="fill:#2a0484;"/>
    <path clip-path="url(#p94ad3db64a)" d="M 259.970047 104.434267 
L 273.2837 108.019869 
L 280.31465 101.834546 
L 267.089082 98.317063 
z
" style="fill:#bd6d34;"/>
    <path clip-path="url(#p94ad3db64a)" d="M 183.178635 188.911464 
L 191.031582 181.987547 
L 203.841786 185.968896 
L 196.068846 192.969946 
z
" style="fill:#4c0658;"/>
    <path clip-path="url(#p94ad3db64a)" d="M 218.949524 172.361429 
L 231.739835 176.23678 
L 232.019671 100.625307 
L 218.746928 97.029795 
z
" style="fill:#e0ae23;"/>
    <path clip-path="url(#p94ad3db64a)" d="M 211.467294 179.100638 
L 211.031601 111.500825 
L 218.76888 105.192069 
L 218.949524 172.361429 
z
" style="fill:#de8e33;"/>
    <path clip-path="url(#p94ad3db64a)" d="M 203.841786 185.968896 
L 211.467294 179.100638 
L 211.276011 149.422153 
L 203.534217 156.105054 
z
" style="fill:#430b41;"/>
    <path clip-path="url(#p94ad3db64a)" d="M 250.510457 191.080779 
L 250.55084 188.017874 
L 257.79464 181.071432 
L 257.743589 184.115686 
z
" style="fill:#1e057f;"/>
    <path clip-path="url(#p94ad3db64a)" d="M 162.346885 191.878042 
L 170.430723 184.897786 
L 170.42735 184.773214 
L 162.342969 191.752708 
z
" style="fill:#050338;"/>
    <path clip-path="url(#p94ad3db64a)" d="M 162.346885 191.878042 
L 162.329679 191.327321 
L 170.415904 184.350412 
L 170.430723 184.897786 
z
" style="fill:#0e0678;"/>
    <path clip-path="url(#p94ad3db64a)" d="M 191.031582 181.987547 
L 190.616064 157.109927 
L 203.58465 161.001979 
L 203.841786 185.968896 
z
" style="fill:#3b0544;"/>
    <path clip-path="url(#p94ad3db64a)" d="M 216.794403 189.994506 
L 224.338378 183.050047 
L 237.351973 187.043183 
L 229.891821 194.06512 
z
" style="fill:#7e402d;"/>
    <path clip-path="url(#p94ad3db64a)" d="M 284.327244 192.170297 
L 291.24765 185.184478 
L 291.273688 184.409717 
L 284.350814 191.390796 
z
" style="fill:#070339;"/>
    <path clip-path="url(#p94ad3db64a)" d="M 246.98623 83.99097 
L 260.261797 87.471523 
L 267.435764 81.467477 
L 254.247356 78.053216 
z
" style="fill:#c0a61c;"/>
    <path clip-path="url(#p94ad3db64a)" d="M 191.031582 181.987547 
L 203.841786 185.968896 
L 203.534217 156.105054 
L 190.534573 152.23092 
z
" style="fill:#8e1889;"/>
    <path clip-path="url(#p94ad3db64a)" d="M 250.510457 191.080779 
L 257.743589 184.115686 
L 270.961723 188.120663 
L 263.816264 195.163579 
z
" style="fill:#12034d;"/>
    <path clip-path="url(#p94ad3db64a)" d="M 149.662704 187.831639 
L 162.346885 191.878042 
L 162.342969 191.752708 
L 149.658014 187.706746 
z
" style="fill:#0b0777;"/>
    <path clip-path="url(#p94ad3db64a)" d="M 149.662704 187.831639 
L 149.655781 187.647311 
L 162.341106 191.693064 
L 162.346885 191.878042 
z
" style="fill:#050338;"/>
    <path clip-path="url(#p94ad3db64a)" d="M 244.670417 180.154631 
L 245.111127 136.890948 
L 258.471749 140.694602 
L 257.743589 184.115686 
z
" style="fill:#551e32;"/>
    <path clip-path="url(#p94ad3db64a)" d="M 183.178635 188.911464 
L 182.660149 163.878893 
L 190.616064 157.109927 
L 191.031582 181.987547 
z
" style="fill:#7e0b91;"/>
    <path clip-path="url(#p94ad3db64a)" d="M 257.743589 184.115686 
L 264.839875 177.282368 
L 265.904966 124.718072 
L 258.630677 131.217531 
z
" style="fill:#5f2c27;"/>
    <path clip-path="url(#p94ad3db64a)" d="M 270.961723 188.120663 
L 270.971539 187.70212 
L 284.339945 191.750277 
L 284.327244 192.170297 
z
" style="fill:#050338;"/>
    <path clip-path="url(#p94ad3db64a)" d="M 270.961723 188.120663 
L 284.327244 192.170297 
L 284.350814 191.390796 
L 270.97994 187.343903 
z
" style="fill:#0e0678;"/>
    <path clip-path="url(#p94ad3db64a)" d="M 162.346885 191.878042 
L 170.430723 184.897786 
L 183.178635 188.911464 
L 175.173234 195.969799 
z
" style="fill:#090449;"/>
    <path clip-path="url(#p94ad3db64a)" d="M 162.329679 191.327321 
L 175.159512 195.417132 
L 183.167257 188.362161 
L 170.415904 184.350412 
z
" style="fill:#0c0668;"/>
    <path clip-path="url(#p94ad3db64a)" d="M 231.739835 176.23678 
L 231.996594 106.860556 
L 245.379744 110.521396 
L 244.670417 180.154631 
z
" style="fill:#694716;"/>
    <path clip-path="url(#p94ad3db64a)" d="M 250.55084 188.017874 
L 263.87752 192.089837 
L 271.033371 185.06566 
L 257.79464 181.071432 
z
" style="fill:#1a046e;"/>
    <path clip-path="url(#p94ad3db64a)" d="M 244.670417 180.154631 
L 251.851153 173.395697 
L 252.93972 94.156561 
L 245.482817 100.402904 
z
" style="fill:#68590f;"/>
    <path clip-path="url(#p94ad3db64a)" d="M 211.467294 179.100638 
L 211.110615 123.760204 
L 224.338378 127.506505 
L 224.338378 183.050047 
z
" style="fill:#613024;"/>
    <path clip-path="url(#p94ad3db64a)" d="M 190.534573 152.23092 
L 203.534217 156.105054 
L 211.276011 149.422153 
L 198.358011 145.62203 
z
" style="fill:#7b1577;"/>
    <path clip-path="url(#p94ad3db64a)" d="M 141.344465 194.868925 
L 141.336696 194.683468 
L 149.655781 187.647311 
L 149.662704 187.831639 
z
" style="fill:#0b0777;"/>
    <path clip-path="url(#p94ad3db64a)" d="M 237.351973 187.043183 
L 237.636815 143.506354 
L 245.111127 136.890948 
L 244.670417 180.154631 
z
" style="fill:#b54069;"/>
    <path clip-path="url(#p94ad3db64a)" d="M 196.068846 192.969946 
L 203.841786 185.968896 
L 216.794403 189.994506 
L 209.103753 197.073984 
z
" style="fill:#6b2441;"/>
    <path clip-path="url(#p94ad3db64a)" d="M 226.368424 87.61498 
L 239.575905 91.128372 
L 246.974573 85.067766 
L 233.852664 81.621528 
z
" style="fill:#c1a21c;"/>
    <path clip-path="url(#p94ad3db64a)" d="M 244.670417 180.154631 
L 257.743589 184.115686 
L 258.630677 131.217531 
L 245.207303 127.449606 
z
" style="fill:#c95d53;"/>
    <path clip-path="url(#p94ad3db64a)" d="M 263.816264 195.163579 
L 263.824656 194.742474 
L 270.971539 187.70212 
L 270.961723 188.120663 
z
" style="fill:#0b0777;"/>
    <path clip-path="url(#p94ad3db64a)" d="M 224.338378 183.050047 
L 231.739835 176.23678 
L 231.989345 108.819399 
L 224.338378 115.199839 
z
" style="fill:#694318;"/>
    <path clip-path="url(#p94ad3db64a)" d="M 224.338378 183.050047 
L 224.338378 113.227768 
L 231.996594 106.860556 
L 231.739835 176.23678 
z
" style="fill:#df962e;"/>
    <path clip-path="url(#p94ad3db64a)" d="M 263.816264 195.163579 
L 270.961723 188.120663 
L 271.033371 185.06566 
L 263.87752 192.089837 
z
" style="fill:#0e023c;"/>
    <path clip-path="url(#p94ad3db64a)" d="M 231.739835 176.23678 
L 244.670417 180.154631 
L 245.482817 100.402904 
L 232.033896 96.781607 
z
" style="fill:#ddbe20;"/>
    <path clip-path="url(#p94ad3db64a)" d="M 175.173234 195.969799 
L 183.178635 188.911464 
L 183.167257 188.362161 
L 175.159512 195.417132 
z
" style="fill:#070339;"/>
    <path clip-path="url(#p94ad3db64a)" d="M 203.841786 185.968896 
L 203.268201 130.275981 
L 211.110615 123.760204 
L 211.467294 179.100638 
z
" style="fill:#ce654d;"/>
    <path clip-path="url(#p94ad3db64a)" d="M 229.891821 194.06512 
L 237.351973 187.043183 
L 250.510457 191.080779 
L 243.136481 198.181496 
z
" style="fill:#581051;"/>
    <path clip-path="url(#p94ad3db64a)" d="M 211.467294 179.100638 
L 224.338378 183.050047 
L 224.338378 115.199839 
L 211.031601 111.500825 
z
" style="fill:#de8e33;"/>
    <path clip-path="url(#p94ad3db64a)" d="M 141.344465 194.868925 
L 149.662704 187.831639 
L 162.346885 191.878042 
L 154.105465 198.994368 
z
" style="fill:#070448;"/>
    <path clip-path="url(#p94ad3db64a)" d="M 250.510457 191.080779 
L 250.532864 189.381298 
L 263.850252 193.458091 
L 263.816264 195.163579 
z
" style="fill:#0a033a;"/>
    <path clip-path="url(#p94ad3db64a)" d="M 141.336696 194.683468 
L 154.098854 198.808256 
L 162.341106 191.693064 
L 149.655781 187.647311 
z
" style="fill:#0a0667;"/>
    <path clip-path="url(#p94ad3db64a)" d="M 263.816264 195.163579 
L 270.961723 188.120663 
L 284.327244 192.170297 
L 277.271882 199.292348 
z
" style="fill:#070448;"/>
    <path clip-path="url(#p94ad3db64a)" d="M 250.510457 191.080779 
L 263.816264 195.163579 
L 263.87752 192.089837 
L 250.55084 188.017874 
z
" style="fill:#1e057f;"/>
    <path clip-path="url(#p94ad3db64a)" d="M 263.824656 194.742474 
L 277.283198 198.869754 
L 284.339945 191.750277 
L 270.971539 187.70212 
z
" style="fill:#0a0667;"/>
    <path clip-path="url(#p94ad3db64a)" d="M 252.702369 111.433855 
L 266.100005 115.092516 
L 273.265676 108.781402 
L 259.956999 105.192889 
z
" style="fill:#bc6b36;"/>
    <path clip-path="url(#p94ad3db64a)" d="M 162.346885 191.878042 
L 162.336063 191.531671 
L 175.164604 195.622204 
L 175.173234 195.969799 
z
" style="fill:#050338;"/>
    <path clip-path="url(#p94ad3db64a)" d="M 183.178635 188.911464 
L 182.833582 172.252253 
L 195.830521 176.251185 
L 196.068846 192.969946 
z
" style="fill:#2c0046;"/>
    <path clip-path="url(#p94ad3db64a)" d="M 162.346885 191.878042 
L 175.173234 195.969799 
L 175.159512 195.417132 
L 162.329679 191.327321 
z
" style="fill:#0e0678;"/>
    <path clip-path="url(#p94ad3db64a)" d="M 196.068846 192.969946 
L 203.841786 185.968896 
L 203.58465 161.001979 
L 195.710724 167.847304 
z
" style="fill:#3b0544;"/>
    <path clip-path="url(#p94ad3db64a)" d="M 175.173234 195.969799 
L 183.178635 188.911464 
L 196.068846 192.969946 
L 188.144156 200.107676 
z
" style="fill:#380059;"/>
    <path clip-path="url(#p94ad3db64a)" d="M 237.351973 187.043183 
L 237.554175 156.137471 
L 250.919412 160.06342 
L 250.510457 191.080779 
z
" style="fill:#450d40;"/>
    <path clip-path="url(#p94ad3db64a)" d="M 243.136481 198.181496 
L 243.152732 196.471592 
L 250.532864 189.381298 
L 250.510457 191.080779 
z
" style="fill:#16067b;"/>
    <path clip-path="url(#p94ad3db64a)" d="M 224.338378 183.050047 
L 224.338378 125.986367 
L 237.726689 129.76948 
L 237.351973 187.043183 
z
" style="fill:#623223;"/>
    <path clip-path="url(#p94ad3db64a)" d="M 154.105465 198.994368 
L 162.346885 191.878042 
L 162.341106 191.693064 
L 154.098854 198.808256 
z
" style="fill:#050338;"/>
    <path clip-path="url(#p94ad3db64a)" d="M 154.105465 198.994368 
L 154.093086 198.645874 
L 162.336063 191.531671 
L 162.346885 191.878042 
z
" style="fill:#0b0777;"/>
    <path clip-path="url(#p94ad3db64a)" d="M 175.173234 195.969799 
L 174.757035 179.207263 
L 182.833582 172.252253 
L 183.178635 188.911464 
z
" style="fill:#5d0094;"/>
    <path clip-path="url(#p94ad3db64a)" d="M 183.178635 188.911464 
L 196.068846 192.969946 
L 195.710724 167.847304 
L 182.660149 163.878893 
z
" style="fill:#7e0b91;"/>
    <path clip-path="url(#p94ad3db64a)" d="M 250.510457 191.080779 
L 257.743589 184.115686 
L 258.471749 140.694602 
L 251.086572 147.385129 
z
" style="fill:#551e32;"/>
    <path clip-path="url(#p94ad3db64a)" d="M 209.103753 197.073984 
L 216.794403 189.994506 
L 229.891821 194.06512 
L 222.285805 201.224351 
z
" style="fill:#6a2243;"/>
    <path clip-path="url(#p94ad3db64a)" d="M 203.841786 185.968896 
L 203.410597 144.102051 
L 216.634799 147.975186 
L 216.794403 189.994506 
z
" style="fill:#541c33;"/>
    <path clip-path="url(#p94ad3db64a)" d="M 277.271882 199.292348 
L 284.327244 192.170297 
L 284.339945 191.750277 
L 277.283198 198.869754 
z
" style="fill:#050338;"/>
    <path clip-path="url(#p94ad3db64a)" d="M 229.891821 194.06512 
L 229.978958 162.965676 
L 237.554175 156.137471 
L 237.351973 187.043183 
z
" style="fill:#911b87;"/>
    <path clip-path="url(#p94ad3db64a)" d="M 237.351973 187.043183 
L 244.670417 180.154631 
L 245.379744 110.521396 
L 237.810487 116.961438 
z
" style="fill:#694716;"/>
    <path clip-path="url(#p94ad3db64a)" d="M 182.660149 163.878893 
L 195.710724 167.847304 
L 203.58465 161.001979 
L 190.616064 157.109927 
z
" style="fill:#6d097e;"/>
    <path clip-path="url(#p94ad3db64a)" d="M 216.794403 189.994506 
L 224.338378 183.050047 
L 224.338378 127.506505 
L 216.582083 134.096603 
z
" style="fill:#613024;"/>
    <path clip-path="url(#p94ad3db64a)" d="M 243.136481 198.181496 
L 250.510457 191.080779 
L 263.816264 195.163579 
L 256.530882 202.34441 
z
" style="fill:#0d034a;"/>
    <path clip-path="url(#p94ad3db64a)" d="M 216.794403 189.994506 
L 216.57627 132.566345 
L 224.338378 125.986367 
L 224.338378 183.050047 
z
" style="fill:#d1694a;"/>
    <path clip-path="url(#p94ad3db64a)" d="M 141.344465 194.868925 
L 154.105465 198.994368 
L 154.098854 198.808256 
L 141.336696 194.683468 
z
" style="fill:#0b0777;"/>
    <path clip-path="url(#p94ad3db64a)" d="M 237.351973 187.043183 
L 250.510457 191.080779 
L 251.086572 147.385129 
L 237.636815 143.506354 
z
" style="fill:#b54069;"/>
    <path clip-path="url(#p94ad3db64a)" d="M 196.068846 192.969946 
L 195.468265 150.838509 
L 203.410597 144.102051 
L 203.841786 185.968896 
z
" style="fill:#b13c6c;"/>
    <path clip-path="url(#p94ad3db64a)" d="M 263.816264 195.163579 
L 263.823608 194.795044 
L 277.281785 198.92251 
L 277.271882 199.292348 
z
" style="fill:#050338;"/>
    <path clip-path="url(#p94ad3db64a)" d="M 263.816264 195.163579 
L 277.271882 199.292348 
L 277.283198 198.869754 
L 263.824656 194.742474 
z
" style="fill:#0b0777;"/>
    <path clip-path="url(#p94ad3db64a)" d="M 243.152732 196.471592 
L 256.558869 200.628452 
L 263.850252 193.458091 
L 250.532864 189.381298 
z
" style="fill:#13056b;"/>
    <path clip-path="url(#p94ad3db64a)" d="M 154.105465 198.994368 
L 162.346885 191.878042 
L 175.173234 195.969799 
L 167.010898 203.166503 
z
" style="fill:#070448;"/>
    <path clip-path="url(#p94ad3db64a)" d="M 218.746928 97.029795 
L 232.019671 100.625307 
L 239.551826 94.423249 
L 226.365234 90.897015 
z
" style="fill:#c2971e;"/>
    <path clip-path="url(#p94ad3db64a)" d="M 154.093086 198.645874 
L 167.000736 202.816776 
L 175.164604 195.622204 
L 162.336063 191.531671 
z
" style="fill:#0a0667;"/>
    <path clip-path="url(#p94ad3db64a)" d="M 245.207303 127.449606 
L 258.630677 131.217531 
L 265.904966 124.718072 
L 252.570639 121.022751 
z
" style="fill:#af5048;"/>
    <path clip-path="url(#p94ad3db64a)" d="M 224.338378 183.050047 
L 237.351973 187.043183 
L 237.810487 116.961438 
L 224.338378 113.227768 
z
" style="fill:#df962e;"/>
    <path clip-path="url(#p94ad3db64a)" d="M 203.841786 185.968896 
L 216.794403 189.994506 
L 216.582083 134.096603 
L 203.268201 130.275981 
z
" style="fill:#ce654d;"/>
    <path clip-path="url(#p94ad3db64a)" d="M 239.632475 83.387793 
L 253.039268 86.910257 
L 260.375954 80.834232 
L 247.057799 77.379717 
z
" style="fill:#b8bf1a;"/>
    <path clip-path="url(#p94ad3db64a)" d="M 188.144156 200.107676 
L 196.068846 192.969946 
L 209.103753 197.073984 
L 201.262108 204.292457 
z
" style="fill:#470359;"/>
    <path clip-path="url(#p94ad3db64a)" d="M 256.530882 202.34441 
L 256.536929 201.973614 
L 263.823608 194.795044 
L 263.816264 195.163579 
z
" style="fill:#0b0777;"/>
    <path clip-path="url(#p94ad3db64a)" d="M 256.530882 202.34441 
L 263.816264 195.163579 
L 263.850252 193.458091 
L 256.558869 200.628452 
z
" style="fill:#0a033a;"/>
    <path clip-path="url(#p94ad3db64a)" d="M 175.173234 195.969799 
L 175.008509 189.335435 
L 188.022203 193.449739 
L 188.144156 200.107676 
z
" style="fill:#170240;"/>
    <path clip-path="url(#p94ad3db64a)" d="M 196.068846 192.969946 
L 195.738297 169.781532 
L 208.924606 173.802153 
L 209.103753 197.073984 
z
" style="fill:#380345;"/>
    <path clip-path="url(#p94ad3db64a)" d="M 216.794403 189.994506 
L 216.637978 148.812266 
L 230.007629 152.732771 
L 229.891821 194.06512 
z
" style="fill:#521b34;"/>
    <path clip-path="url(#p94ad3db64a)" d="M 167.010898 203.166503 
L 175.173234 195.969799 
L 175.164604 195.622204 
L 167.000736 202.816776 
z
" style="fill:#050338;"/>
    <path clip-path="url(#p94ad3db64a)" d="M 188.144156 200.107676 
L 196.068846 192.969946 
L 195.830521 176.251185 
L 187.836018 183.285094 
z
" style="fill:#2c0046;"/>
    <path clip-path="url(#p94ad3db64a)" d="M 222.285805 201.224351 
L 229.891821 194.06512 
L 243.136481 198.181496 
L 235.617509 205.421836 
z
" style="fill:#3f015a;"/>
    <path clip-path="url(#p94ad3db64a)" d="M 229.891821 194.06512 
L 229.9472 174.299956 
L 243.325002 178.345399 
L 243.136481 198.181496 
z
" style="fill:#310046;"/>
    <path clip-path="url(#p94ad3db64a)" d="M 243.136481 198.181496 
L 250.510457 191.080779 
L 250.919412 160.06342 
L 243.433119 166.969438 
z
" style="fill:#450d40;"/>
    <path clip-path="url(#p94ad3db64a)" d="M 243.136481 198.181496 
L 243.144857 197.300236 
L 256.545306 201.460031 
L 256.530882 202.34441 
z
" style="fill:#080339;"/>
    <path clip-path="url(#p94ad3db64a)" d="M 243.136481 198.181496 
L 256.530882 202.34441 
L 256.558869 200.628452 
L 243.152732 196.471592 
z
" style="fill:#16067b;"/>
    <path clip-path="url(#p94ad3db64a)" d="M 174.757035 179.207263 
L 187.836018 183.285094 
L 195.830521 176.251185 
L 182.833582 172.252253 
z
" style="fill:#500081;"/>
    <path clip-path="url(#p94ad3db64a)" d="M 167.010898 203.166503 
L 166.816936 196.49124 
L 175.008509 189.335435 
L 175.173234 195.969799 
z
" style="fill:#300487;"/>
    <path clip-path="url(#p94ad3db64a)" d="M 256.530882 202.34441 
L 263.816264 195.163579 
L 277.271882 199.292348 
L 270.077576 206.554656 
z
" style="fill:#070448;"/>
    <path clip-path="url(#p94ad3db64a)" d="M 188.144156 200.107676 
L 187.716765 176.774521 
L 195.738297 169.781532 
L 196.068846 192.969946 
z
" style="fill:#760693;"/>
    <path clip-path="url(#p94ad3db64a)" d="M 256.536929 201.973614 
L 270.086217 206.182548 
L 277.281785 198.92251 
L 263.823608 194.795044 
z
" style="fill:#0a0667;"/>
    <path clip-path="url(#p94ad3db64a)" d="M 229.891821 194.06512 
L 237.351973 187.043183 
L 237.726689 129.76948 
L 230.053321 136.424999 
z
" style="fill:#623223;"/>
    <path clip-path="url(#p94ad3db64a)" d="M 154.105465 198.994368 
L 167.010898 203.166503 
L 167.000736 202.816776 
L 154.093086 198.645874 
z
" style="fill:#0b0777;"/>
    <path clip-path="url(#p94ad3db64a)" d="M 209.103753 197.073984 
L 208.784727 155.631265 
L 216.637978 148.812266 
L 216.794403 189.994506 
z
" style="fill:#af396f;"/>
    <path clip-path="url(#p94ad3db64a)" d="M 175.173234 195.969799 
L 188.144156 200.107676 
L 187.836018 183.285094 
L 174.757035 179.207263 
z
" style="fill:#5d0094;"/>
    <path clip-path="url(#p94ad3db64a)" d="M 209.103753 197.073984 
L 216.794403 189.994506 
L 216.634799 147.975186 
L 208.778241 154.788717 
z
" style="fill:#541c33;"/>
    <path clip-path="url(#p94ad3db64a)" d="M 222.285805 201.224351 
L 222.265135 181.336112 
L 229.9472 174.299956 
L 229.891821 194.06512 
z
" style="fill:#690195;"/>
    <path clip-path="url(#p94ad3db64a)" d="M 237.636815 143.506354 
L 251.086572 147.385129 
L 258.471749 140.694602 
L 245.111127 136.890948 
z
" style="fill:#9d385b;"/>
    <path clip-path="url(#p94ad3db64a)" d="M 167.010898 203.166503 
L 175.173234 195.969799 
L 188.144156 200.107676 
L 180.063228 207.386128 
z
" style="fill:#1d0251;"/>
    <path clip-path="url(#p94ad3db64a)" d="M 211.031601 111.500825 
L 224.338378 115.199839 
L 231.989345 108.819399 
L 218.76888 105.192069 
z
" style="fill:#c07b2c;"/>
    <path clip-path="url(#p94ad3db64a)" d="M 229.891821 194.06512 
L 243.136481 198.181496 
L 243.433119 166.969438 
L 229.978958 162.965676 
z
" style="fill:#911b87;"/>
    <path clip-path="url(#p94ad3db64a)" d="M 235.617509 205.421836 
L 235.622584 204.535166 
L 243.144857 197.300236 
L 243.136481 198.181496 
z
" style="fill:#110679;"/>
    <path clip-path="url(#p94ad3db64a)" d="M 216.794403 189.994506 
L 229.891821 194.06512 
L 230.053321 136.424999 
L 216.57627 132.566345 
z
" style="fill:#d1694a;"/>
    <path clip-path="url(#p94ad3db64a)" d="M 201.262108 204.292457 
L 209.103753 197.073984 
L 222.285805 201.224351 
L 214.529606 208.524945 
z
" style="fill:#4a0558;"/>
    <path clip-path="url(#p94ad3db64a)" d="M 196.068846 192.969946 
L 209.103753 197.073984 
L 208.778241 154.788717 
L 195.468265 150.838509 
z
" style="fill:#b13c6c;"/>
    <path clip-path="url(#p94ad3db64a)" d="M 270.077576 206.554656 
L 277.271882 199.292348 
L 277.281785 198.92251 
L 270.086217 206.182548 
z
" style="fill:#050338;"/>
    <path clip-path="url(#p94ad3db64a)" d="M 232.033896 96.781607 
L 245.482817 100.402904 
L 252.93972 94.156561 
L 239.579726 90.605557 
z
" style="fill:#c0a51c;"/>
    <path clip-path="url(#p94ad3db64a)" d="M 188.144156 200.107676 
L 187.999011 192.183605 
L 201.169042 196.340172 
L 201.262108 204.292457 
z
" style="fill:#1a0241;"/>
    <path clip-path="url(#p94ad3db64a)" d="M 209.103753 197.073984 
L 208.914861 172.53626 
L 222.26021 176.598156 
L 222.285805 201.224351 
z
" style="fill:#3a0445;"/>
    <path clip-path="url(#p94ad3db64a)" d="M 235.617509 205.421836 
L 243.136481 198.181496 
L 256.530882 202.34441 
L 249.101427 209.667246 
z
" style="fill:#0a0449;"/>
    <path clip-path="url(#p94ad3db64a)" d="M 229.978958 162.965676 
L 243.433119 166.969438 
L 250.919412 160.06342 
L 237.554175 156.137471 
z
" style="fill:#7e1875;"/>
    <path clip-path="url(#p94ad3db64a)" d="M 166.816936 196.49124 
L 179.912572 200.687103 
L 188.022203 193.449739 
L 175.008509 189.335435 
z
" style="fill:#2a0375;"/>
    <path clip-path="url(#p94ad3db64a)" d="M 235.622584 204.535166 
L 249.112632 208.777433 
L 256.545306 201.460031 
L 243.144857 197.300236 
z
" style="fill:#0f0569;"/>
    <path clip-path="url(#p94ad3db64a)" d="M 256.530882 202.34441 
L 256.535054 202.088611 
L 270.083537 206.297952 
L 270.077576 206.554656 
z
" style="fill:#050338;"/>
    <path clip-path="url(#p94ad3db64a)" d="M 256.530882 202.34441 
L 270.077576 206.554656 
L 270.086217 206.182548 
L 256.536929 201.973614 
z
" style="fill:#0b0777;"/>
    <path clip-path="url(#p94ad3db64a)" d="M 203.268201 130.275981 
L 216.582083 134.096603 
L 224.338378 127.506505 
L 211.110615 123.760204 
z
" style="fill:#b35843;"/>
    <path clip-path="url(#p94ad3db64a)" d="M 180.063228 207.386128 
L 188.144156 200.107676 
L 188.022203 193.449739 
L 179.912572 200.687103 
z
" style="fill:#170240;"/>
    <path clip-path="url(#p94ad3db64a)" d="M 201.262108 204.292457 
L 209.103753 197.073984 
L 208.924606 173.802153 
L 200.988055 180.875185 
z
" style="fill:#380345;"/>
    <path clip-path="url(#p94ad3db64a)" d="M 222.285805 201.224351 
L 222.275889 191.683162 
L 235.672312 195.84662 
L 235.617509 205.421836 
z
" style="fill:#1d0142;"/>
    <path clip-path="url(#p94ad3db64a)" d="M 180.063228 207.386128 
L 179.88392 199.413106 
L 187.999011 192.183605 
L 188.144156 200.107676 
z
" style="fill:#360389;"/>
    <path clip-path="url(#p94ad3db64a)" d="M 201.262108 204.292457 
L 200.973146 179.601226 
L 208.914861 172.53626 
L 209.103753 197.073984 
z
" style="fill:#7b0992;"/>
    <path clip-path="url(#p94ad3db64a)" d="M 222.285805 201.224351 
L 229.891821 194.06512 
L 230.007629 152.732771 
L 222.242575 159.630204 
z
" style="fill:#521b34;"/>
    <path clip-path="url(#p94ad3db64a)" d="M 235.617509 205.421836 
L 243.136481 198.181496 
L 243.325002 178.345399 
L 235.731748 185.462075 
z
" style="fill:#310046;"/>
    <path clip-path="url(#p94ad3db64a)" d="M 180.063228 207.386128 
L 188.144156 200.107676 
L 201.262108 204.292457 
L 193.264978 211.654059 
z
" style="fill:#210253;"/>
    <path clip-path="url(#p94ad3db64a)" d="M 249.101427 209.667246 
L 249.104668 209.409876 
L 256.535054 202.088611 
L 256.530882 202.34441 
z
" style="fill:#0b0777;"/>
    <path clip-path="url(#p94ad3db64a)" d="M 249.101427 209.667246 
L 256.530882 202.34441 
L 256.545306 201.460031 
L 249.112632 208.777433 
z
" style="fill:#080339;"/>
    <path clip-path="url(#p94ad3db64a)" d="M 167.010898 203.166503 
L 180.063228 207.386128 
L 179.912572 200.687103 
L 166.816936 196.49124 
z
" style="fill:#300487;"/>
    <path clip-path="url(#p94ad3db64a)" d="M 188.144156 200.107676 
L 201.262108 204.292457 
L 200.988055 180.875185 
L 187.716765 176.774521 
z
" style="fill:#760693;"/>
    <path clip-path="url(#p94ad3db64a)" d="M 214.529606 208.524945 
L 214.481747 198.92472 
L 222.275889 191.683162 
L 222.285805 201.224351 
z
" style="fill:#3e038c;"/>
    <path clip-path="url(#p94ad3db64a)" d="M 224.338378 113.227768 
L 237.810487 116.961438 
L 245.379744 110.521396 
L 231.996594 106.860556 
z
" style="fill:#c28228;"/>
    <path clip-path="url(#p94ad3db64a)" d="M 209.103753 197.073984 
L 222.285805 201.224351 
L 222.242575 159.630204 
L 208.784727 155.631265 
z
" style="fill:#af396f;"/>
    <path clip-path="url(#p94ad3db64a)" d="M 195.468265 150.838509 
L 208.778241 154.788717 
L 216.634799 147.975186 
L 203.410597 144.102051 
z
" style="fill:#9a345e;"/>
    <path clip-path="url(#p94ad3db64a)" d="M 214.529606 208.524945 
L 222.285805 201.224351 
L 235.617509 205.421836 
L 227.94922 212.80596 
z
" style="fill:#250255;"/>
    <path clip-path="url(#p94ad3db64a)" d="M 222.285805 201.224351 
L 235.617509 205.421836 
L 235.731748 185.462075 
L 222.265135 181.336112 
z
" style="fill:#690195;"/>
    <path clip-path="url(#p94ad3db64a)" d="M 222.265135 181.336112 
L 235.731748 185.462075 
L 243.325002 178.345399 
L 229.9472 174.299956 
z
" style="fill:#5b0181;"/>
    <path clip-path="url(#p94ad3db64a)" d="M 187.716765 176.774521 
L 200.988055 180.875185 
L 208.924606 173.802153 
L 195.738297 169.781532 
z
" style="fill:#660580;"/>
    <path clip-path="url(#p94ad3db64a)" d="M 235.617509 205.421836 
L 235.620337 204.927717 
L 249.107671 209.171375 
L 249.101427 209.667246 
z
" style="fill:#070339;"/>
    <path clip-path="url(#p94ad3db64a)" d="M 235.617509 205.421836 
L 249.101427 209.667246 
L 249.112632 208.777433 
L 235.622584 204.535166 
z
" style="fill:#110679;"/>
    <path clip-path="url(#p94ad3db64a)" d="M 249.101427 209.667246 
L 256.530882 202.34441 
L 270.077576 206.554656 
L 262.740181 213.961405 
z
" style="fill:#070448;"/>
    <path clip-path="url(#p94ad3db64a)" d="M 201.262108 204.292457 
L 201.150307 194.739248 
L 214.481811 198.937641 
L 214.529606 208.524945 
z
" style="fill:#1d0142;"/>
    <path clip-path="url(#p94ad3db64a)" d="M 249.104668 209.409876 
L 262.745236 213.703123 
L 270.083537 206.297952 
L 256.535054 202.088611 
z
" style="fill:#0a0667;"/>
    <path clip-path="url(#p94ad3db64a)" d="M 179.88392 199.413106 
L 193.138413 203.652598 
L 201.169042 196.340172 
L 187.999011 192.183605 
z
" style="fill:#2f0377;"/>
    <path clip-path="url(#p94ad3db64a)" d="M 227.94922 212.80596 
L 227.950135 212.308803 
L 235.620337 204.927717 
L 235.617509 205.421836 
z
" style="fill:#0e0678;"/>
    <path clip-path="url(#p94ad3db64a)" d="M 193.264978 211.654059 
L 201.262108 204.292457 
L 201.169042 196.340172 
L 193.138413 203.652598 
z
" style="fill:#1a0241;"/>
    <path clip-path="url(#p94ad3db64a)" d="M 216.57627 132.566345 
L 230.053321 136.424999 
L 237.726689 129.76948 
L 224.338378 125.986367 
z
" style="fill:#b55c40;"/>
    <path clip-path="url(#p94ad3db64a)" d="M 214.529606 208.524945 
L 222.285805 201.224351 
L 222.26021 176.598156 
L 214.406071 183.744507 
z
" style="fill:#3a0445;"/>
    <path clip-path="url(#p94ad3db64a)" d="M 193.264978 211.654059 
L 193.112932 202.041697 
L 201.150307 194.739248 
L 201.262108 204.292457 
z
" style="fill:#3e038c;"/>
    <path clip-path="url(#p94ad3db64a)" d="M 193.264978 211.654059 
L 201.262108 204.292457 
L 214.529606 208.524945 
L 206.61873 215.971129 
z
" style="fill:#250255;"/>
    <path clip-path="url(#p94ad3db64a)" d="M 262.740181 213.961405 
L 270.077576 206.554656 
L 270.083537 206.297952 
L 262.745236 213.703123 
z
" style="fill:#050338;"/>
    <path clip-path="url(#p94ad3db64a)" d="M 214.481747 198.92472 
L 227.96694 203.171438 
L 235.672312 195.84662 
L 222.275889 191.683162 
z
" style="fill:#36027a;"/>
    <path clip-path="url(#p94ad3db64a)" d="M 208.784727 155.631265 
L 222.242575 159.630204 
L 230.007629 152.732771 
L 216.637978 148.812266 
z
" style="fill:#983260;"/>
    <path clip-path="url(#p94ad3db64a)" d="M 227.94922 212.80596 
L 235.617509 205.421836 
L 235.672312 195.84662 
L 227.96694 203.171438 
z
" style="fill:#1d0142;"/>
    <path clip-path="url(#p94ad3db64a)" d="M 180.063228 207.386128 
L 193.264978 211.654059 
L 193.138413 203.652598 
L 179.88392 199.413106 
z
" style="fill:#360389;"/>
    <path clip-path="url(#p94ad3db64a)" d="M 201.262108 204.292457 
L 214.529606 208.524945 
L 214.406071 183.744507 
L 200.973146 179.601226 
z
" style="fill:#7b0992;"/>
    <path clip-path="url(#p94ad3db64a)" d="M 227.94922 212.80596 
L 235.617509 205.421836 
L 249.101427 209.667246 
L 241.523583 217.136342 
z
" style="fill:#090449;"/>
    <path clip-path="url(#p94ad3db64a)" d="M 214.529606 208.524945 
L 214.513887 205.37179 
L 227.95504 209.6416 
L 227.94922 212.80596 
z
" style="fill:#0f023c;"/>
    <path clip-path="url(#p94ad3db64a)" d="M 227.950135 212.308803 
L 241.527959 216.63742 
L 249.107671 209.171375 
L 235.620337 204.927717 
z
" style="fill:#0c0668;"/>
    <path clip-path="url(#p94ad3db64a)" d="M 249.101427 209.667246 
L 249.103758 209.48216 
L 262.743816 213.775664 
L 262.740181 213.961405 
z
" style="fill:#050338;"/>
    <path clip-path="url(#p94ad3db64a)" d="M 249.101427 209.667246 
L 262.740181 213.961405 
L 262.745236 213.703123 
L 249.104668 209.409876 
z
" style="fill:#0b0777;"/>
    <path clip-path="url(#p94ad3db64a)" d="M 200.973146 179.601226 
L 214.406071 183.744507 
L 222.26021 176.598156 
L 208.914861 172.53626 
z
" style="fill:#6b087e;"/>
    <path clip-path="url(#p94ad3db64a)" d="M 214.529606 208.524945 
L 227.94922 212.80596 
L 227.96694 203.171438 
L 214.481747 198.92472 
z
" style="fill:#3e038c;"/>
    <path clip-path="url(#p94ad3db64a)" d="M 206.61873 215.971129 
L 206.59005 212.798535 
L 214.513887 205.37179 
L 214.529606 208.524945 
z
" style="fill:#200580;"/>
    <path clip-path="url(#p94ad3db64a)" d="M 241.523583 217.136342 
L 241.525216 216.950118 
L 249.103758 209.48216 
L 249.101427 209.667246 
z
" style="fill:#0b0777;"/>
    <path clip-path="url(#p94ad3db64a)" d="M 241.523583 217.136342 
L 249.101427 209.667246 
L 249.107671 209.171375 
L 241.527959 216.63742 
z
" style="fill:#070339;"/>
    <path clip-path="url(#p94ad3db64a)" d="M 193.112932 202.041697 
L 206.531523 206.324405 
L 214.481811 198.937641 
L 201.150307 194.739248 
z
" style="fill:#36027a;"/>
    <path clip-path="url(#p94ad3db64a)" d="M 206.61873 215.971129 
L 214.529606 208.524945 
L 214.481811 198.937641 
L 206.531523 206.324405 
z
" style="fill:#1d0142;"/>
    <path clip-path="url(#p94ad3db64a)" d="M 206.61873 215.971129 
L 214.529606 208.524945 
L 227.94922 212.80596 
L 220.127123 220.338193 
z
" style="fill:#13034d;"/>
    <path clip-path="url(#p94ad3db64a)" d="M 227.94922 212.80596 
L 227.949743 212.521736 
L 241.526085 216.851109 
L 241.523583 217.136342 
z
" style="fill:#050338;"/>
    <path clip-path="url(#p94ad3db64a)" d="M 227.94922 212.80596 
L 241.523583 217.136342 
L 241.527959 216.63742 
L 227.950135 212.308803 
z
" style="fill:#0e0678;"/>
    <path clip-path="url(#p94ad3db64a)" d="M 241.523583 217.136342 
L 249.101427 209.667246 
L 262.740181 213.961405 
L 255.255385 221.516949 
z
" style="fill:#070448;"/>
    <path clip-path="url(#p94ad3db64a)" d="M 206.59005 212.798535 
L 220.120267 217.154308 
L 227.95504 209.6416 
L 214.513887 205.37179 
z
" style="fill:#1b046f;"/>
    <path clip-path="url(#p94ad3db64a)" d="M 241.525216 216.950118 
L 255.258341 221.330063 
L 262.743816 213.775664 
L 249.103758 209.48216 
z
" style="fill:#0a0667;"/>
    <path clip-path="url(#p94ad3db64a)" d="M 193.264978 211.654059 
L 206.61873 215.971129 
L 206.531523 206.324405 
L 193.112932 202.041697 
z
" style="fill:#3e038c;"/>
    <path clip-path="url(#p94ad3db64a)" d="M 220.127123 220.338193 
L 220.126507 220.052219 
L 227.949743 212.521736 
L 227.94922 212.80596 
z
" style="fill:#0b0777;"/>
    <path clip-path="url(#p94ad3db64a)" d="M 220.127123 220.338193 
L 227.94922 212.80596 
L 227.95504 209.6416 
L 220.120267 217.154308 
z
" style="fill:#0f023c;"/>
    <path clip-path="url(#p94ad3db64a)" d="M 255.255385 221.516949 
L 262.740181 213.961405 
L 262.743816 213.775664 
L 255.258341 221.330063 
z
" style="fill:#050338;"/>
    <path clip-path="url(#p94ad3db64a)" d="M 220.127123 220.338193 
L 227.94922 212.80596 
L 241.523583 217.136342 
L 233.792858 224.756123 
z
" style="fill:#070448;"/>
    <path clip-path="url(#p94ad3db64a)" d="M 206.61873 215.971129 
L 220.127123 220.338193 
L 220.120267 217.154308 
L 206.59005 212.798535 
z
" style="fill:#200580;"/>
    <path clip-path="url(#p94ad3db64a)" d="M 220.126507 220.052219 
L 233.794249 224.469133 
L 241.526085 216.851109 
L 227.949743 212.521736 
z
" style="fill:#0a0667;"/>
    <path clip-path="url(#p94ad3db64a)" d="M 241.523583 217.136342 
L 241.525082 216.965441 
L 255.258098 221.345441 
L 255.255385 221.516949 
z
" style="fill:#050338;"/>
    <path clip-path="url(#p94ad3db64a)" d="M 241.523583 217.136342 
L 255.255385 221.516949 
L 255.258341 221.330063 
L 241.525216 216.950118 
z
" style="fill:#0b0777;"/>
    <path clip-path="url(#p94ad3db64a)" d="M 233.792858 224.756123 
L 233.793692 224.584171 
L 241.525082 216.965441 
L 241.523583 217.136342 
z
" style="fill:#0b0777;"/>
    <path clip-path="url(#p94ad3db64a)" d="M 233.792858 224.756123 
L 241.523583 217.136342 
L 241.526085 216.851109 
L 233.794249 224.469133 
z
" style="fill:#050338;"/>
    <path clip-path="url(#p94ad3db64a)" d="M 220.127123 220.338193 
L 233.792858 224.756123 
L 233.794249 224.469133 
L 220.126507 220.052219 
z
" style="fill:#0b0777;"/>
    <path clip-path="url(#p94ad3db64a)" d="M 233.792858 224.756123 
L 241.523583 217.136342 
L 255.255385 221.516949 
L 247.618703 229.225814 
z
" style="fill:#070448;"/>
    <path clip-path="url(#p94ad3db64a)" d="M 233.793692 224.584171 
L 247.620766 229.05325 
L 255.258098 221.345441 
L 241.525082 216.965441 
z
" style="fill:#0a0667;"/>
    <path clip-path="url(#p94ad3db64a)" d="M 247.618703 229.225814 
L 255.255385 221.516949 
L 255.258098 221.345441 
L 247.620766 229.05325 
z
" style="fill:#050338;"/>
    <path clip-path="url(#p94ad3db64a)" d="M 233.792858 224.756123 
L 247.618703 229.225814 
L 247.620766 229.05325 
L 233.793692 224.584171 
z
" style="fill:#0b0777;"/>
   </g>
   <g id="text_15">
    <!-- W15__H30__A190_bars_extracted.txt -->
    <g transform="translate(110.101875 28.56)scale(0.12 -0.12)">
     <defs>
      <path d="M 3.328125 72.90625 
L 13.28125 72.90625 
L 28.609375 11.28125 
L 43.890625 72.90625 
L 54.984375 72.90625 
L 70.3125 11.28125 
L 85.59375 72.90625 
L 95.609375 72.90625 
L 77.296875 0 
L 64.890625 0 
L 49.515625 63.28125 
L 33.984375 0 
L 21.578125 0 
z
" id="DejaVuSans-87"/>
      <path d="M 10.796875 72.90625 
L 49.515625 72.90625 
L 49.515625 64.59375 
L 19.828125 64.59375 
L 19.828125 46.734375 
Q 21.96875 47.46875 24.109375 47.828125 
Q 26.265625 48.1875 28.421875 48.1875 
Q 40.625 48.1875 47.75 41.5 
Q 54.890625 34.8125 54.890625 23.390625 
Q 54.890625 11.625 47.5625 5.09375 
Q 40.234375 -1.421875 26.90625 -1.421875 
Q 22.3125 -1.421875 17.546875 -0.640625 
Q 12.796875 0.140625 7.71875 1.703125 
L 7.71875 11.625 
Q 12.109375 9.234375 16.796875 8.0625 
Q 21.484375 6.890625 26.703125 6.890625 
Q 35.15625 6.890625 40.078125 11.328125 
Q 45.015625 15.765625 45.015625 23.390625 
Q 45.015625 31 40.078125 35.4375 
Q 35.15625 39.890625 26.703125 39.890625 
Q 22.75 39.890625 18.8125 39.015625 
Q 14.890625 38.140625 10.796875 36.28125 
z
" id="DejaVuSans-53"/>
      <path d="M 50.984375 -16.609375 
L 50.984375 -23.578125 
L -0.984375 -23.578125 
L -0.984375 -16.609375 
z
" id="DejaVuSans-95"/>
      <path d="M 9.8125 72.90625 
L 19.671875 72.90625 
L 19.671875 43.015625 
L 55.515625 43.015625 
L 55.515625 72.90625 
L 65.375 72.90625 
L 65.375 0 
L 55.515625 0 
L 55.515625 34.71875 
L 19.671875 34.71875 
L 19.671875 0 
L 9.8125 0 
z
" id="DejaVuSans-72"/>
      <path d="M 34.1875 63.1875 
L 20.796875 26.90625 
L 47.609375 26.90625 
z
M 28.609375 72.90625 
L 39.796875 72.90625 
L 67.578125 0 
L 57.328125 0 
L 50.6875 18.703125 
L 17.828125 18.703125 
L 11.1875 0 
L 0.78125 0 
z
" id="DejaVuSans-65"/>
      <path d="M 10.984375 1.515625 
L 10.984375 10.5 
Q 14.703125 8.734375 18.5 7.8125 
Q 22.3125 6.890625 25.984375 6.890625 
Q 35.75 6.890625 40.890625 13.453125 
Q 46.046875 20.015625 46.78125 33.40625 
Q 43.953125 29.203125 39.59375 26.953125 
Q 35.25 24.703125 29.984375 24.703125 
Q 19.046875 24.703125 12.671875 31.3125 
Q 6.296875 37.9375 6.296875 49.421875 
Q 6.296875 60.640625 12.9375 67.421875 
Q 19.578125 74.21875 30.609375 74.21875 
Q 43.265625 74.21875 49.921875 64.515625 
Q 56.59375 54.828125 56.59375 36.375 
Q 56.59375 19.140625 48.40625 8.859375 
Q 40.234375 -1.421875 26.421875 -1.421875 
Q 22.703125 -1.421875 18.890625 -0.6875 
Q 15.09375 0.046875 10.984375 1.515625 
z
M 30.609375 32.421875 
Q 37.25 32.421875 41.125 36.953125 
Q 45.015625 41.5 45.015625 49.421875 
Q 45.015625 57.28125 41.125 61.84375 
Q 37.25 66.40625 30.609375 66.40625 
Q 23.96875 66.40625 20.09375 61.84375 
Q 16.21875 57.28125 16.21875 49.421875 
Q 16.21875 41.5 20.09375 36.953125 
Q 23.96875 32.421875 30.609375 32.421875 
z
" id="DejaVuSans-57"/>
      <path d="M 48.6875 27.296875 
Q 48.6875 37.203125 44.609375 42.84375 
Q 40.53125 48.484375 33.40625 48.484375 
Q 26.265625 48.484375 22.1875 42.84375 
Q 18.109375 37.203125 18.109375 27.296875 
Q 18.109375 17.390625 22.1875 11.75 
Q 26.265625 6.109375 33.40625 6.109375 
Q 40.53125 6.109375 44.609375 11.75 
Q 48.6875 17.390625 48.6875 27.296875 
z
M 18.109375 46.390625 
Q 20.953125 51.265625 25.265625 53.625 
Q 29.59375 56 35.59375 56 
Q 45.5625 56 51.78125 48.09375 
Q 58.015625 40.1875 58.015625 27.296875 
Q 58.015625 14.40625 51.78125 6.484375 
Q 45.5625 -1.421875 35.59375 -1.421875 
Q 29.59375 -1.421875 25.265625 0.953125 
Q 20.953125 3.328125 18.109375 8.203125 
L 18.109375 0 
L 9.078125 0 
L 9.078125 75.984375 
L 18.109375 75.984375 
z
" id="DejaVuSans-98"/>
      <path d="M 34.28125 27.484375 
Q 23.390625 27.484375 19.1875 25 
Q 14.984375 22.515625 14.984375 16.5 
Q 14.984375 11.71875 18.140625 8.90625 
Q 21.296875 6.109375 26.703125 6.109375 
Q 34.1875 6.109375 38.703125 11.40625 
Q 43.21875 16.703125 43.21875 25.484375 
L 43.21875 27.484375 
z
M 52.203125 31.203125 
L 52.203125 0 
L 43.21875 0 
L 43.21875 8.296875 
Q 40.140625 3.328125 35.546875 0.953125 
Q 30.953125 -1.421875 24.3125 -1.421875 
Q 15.921875 -1.421875 10.953125 3.296875 
Q 6 8.015625 6 15.921875 
Q 6 25.140625 12.171875 29.828125 
Q 18.359375 34.515625 30.609375 34.515625 
L 43.21875 34.515625 
L 43.21875 35.40625 
Q 43.21875 41.609375 39.140625 45 
Q 35.0625 48.390625 27.6875 48.390625 
Q 23 48.390625 18.546875 47.265625 
Q 14.109375 46.140625 10.015625 43.890625 
L 10.015625 52.203125 
Q 14.9375 54.109375 19.578125 55.046875 
Q 24.21875 56 28.609375 56 
Q 40.484375 56 46.34375 49.84375 
Q 52.203125 43.703125 52.203125 31.203125 
z
" id="DejaVuSans-97"/>
      <path d="M 41.109375 46.296875 
Q 39.59375 47.171875 37.8125 47.578125 
Q 36.03125 48 33.890625 48 
Q 26.265625 48 22.1875 43.046875 
Q 18.109375 38.09375 18.109375 28.8125 
L 18.109375 0 
L 9.078125 0 
L 9.078125 54.6875 
L 18.109375 54.6875 
L 18.109375 46.1875 
Q 20.953125 51.171875 25.484375 53.578125 
Q 30.03125 56 36.53125 56 
Q 37.453125 56 38.578125 55.875 
Q 39.703125 55.765625 41.0625 55.515625 
z
" id="DejaVuSans-114"/>
      <path d="M 44.28125 53.078125 
L 44.28125 44.578125 
Q 40.484375 46.53125 36.375 47.5 
Q 32.28125 48.484375 27.875 48.484375 
Q 21.1875 48.484375 17.84375 46.4375 
Q 14.5 44.390625 14.5 40.28125 
Q 14.5 37.15625 16.890625 35.375 
Q 19.28125 33.59375 26.515625 31.984375 
L 29.59375 31.296875 
Q 39.15625 29.25 43.1875 25.515625 
Q 47.21875 21.78125 47.21875 15.09375 
Q 47.21875 7.46875 41.1875 3.015625 
Q 35.15625 -1.421875 24.609375 -1.421875 
Q 20.21875 -1.421875 15.453125 -0.5625 
Q 10.6875 0.296875 5.421875 2 
L 5.421875 11.28125 
Q 10.40625 8.6875 15.234375 7.390625 
Q 20.0625 6.109375 24.8125 6.109375 
Q 31.15625 6.109375 34.5625 8.28125 
Q 37.984375 10.453125 37.984375 14.40625 
Q 37.984375 18.0625 35.515625 20.015625 
Q 33.0625 21.96875 24.703125 23.78125 
L 21.578125 24.515625 
Q 13.234375 26.265625 9.515625 29.90625 
Q 5.8125 33.546875 5.8125 39.890625 
Q 5.8125 47.609375 11.28125 51.796875 
Q 16.75 56 26.8125 56 
Q 31.78125 56 36.171875 55.265625 
Q 40.578125 54.546875 44.28125 53.078125 
z
" id="DejaVuSans-115"/>
      <path d="M 56.203125 29.59375 
L 56.203125 25.203125 
L 14.890625 25.203125 
Q 15.484375 15.921875 20.484375 11.0625 
Q 25.484375 6.203125 34.421875 6.203125 
Q 39.59375 6.203125 44.453125 7.46875 
Q 49.3125 8.734375 54.109375 11.28125 
L 54.109375 2.78125 
Q 49.265625 0.734375 44.1875 -0.34375 
Q 39.109375 -1.421875 33.890625 -1.421875 
Q 20.796875 -1.421875 13.15625 6.1875 
Q 5.515625 13.8125 5.515625 26.8125 
Q 5.515625 40.234375 12.765625 48.109375 
Q 20.015625 56 32.328125 56 
Q 43.359375 56 49.78125 48.890625 
Q 56.203125 41.796875 56.203125 29.59375 
z
M 47.21875 32.234375 
Q 47.125 39.59375 43.09375 43.984375 
Q 39.0625 48.390625 32.421875 48.390625 
Q 24.90625 48.390625 20.390625 44.140625 
Q 15.875 39.890625 15.1875 32.171875 
z
" id="DejaVuSans-101"/>
      <path d="M 54.890625 54.6875 
L 35.109375 28.078125 
L 55.90625 0 
L 45.3125 0 
L 29.390625 21.484375 
L 13.484375 0 
L 2.875 0 
L 24.125 28.609375 
L 4.6875 54.6875 
L 15.28125 54.6875 
L 29.78125 35.203125 
L 44.28125 54.6875 
z
" id="DejaVuSans-120"/>
      <path d="M 18.3125 70.21875 
L 18.3125 54.6875 
L 36.8125 54.6875 
L 36.8125 47.703125 
L 18.3125 47.703125 
L 18.3125 18.015625 
Q 18.3125 11.328125 20.140625 9.421875 
Q 21.96875 7.515625 27.59375 7.515625 
L 36.8125 7.515625 
L 36.8125 0 
L 27.59375 0 
Q 17.1875 0 13.234375 3.875 
Q 9.28125 7.765625 9.28125 18.015625 
L 9.28125 47.703125 
L 2.6875 47.703125 
L 2.6875 54.6875 
L 9.28125 54.6875 
L 9.28125 70.21875 
z
" id="DejaVuSans-116"/>
      <path d="M 48.78125 52.59375 
L 48.78125 44.1875 
Q 44.96875 46.296875 41.140625 47.34375 
Q 37.3125 48.390625 33.40625 48.390625 
Q 24.65625 48.390625 19.8125 42.84375 
Q 14.984375 37.3125 14.984375 27.296875 
Q 14.984375 17.28125 19.8125 11.734375 
Q 24.65625 6.203125 33.40625 6.203125 
Q 37.3125 6.203125 41.140625 7.25 
Q 44.96875 8.296875 48.78125 10.40625 
L 48.78125 2.09375 
Q 45.015625 0.34375 40.984375 -0.53125 
Q 36.96875 -1.421875 32.421875 -1.421875 
Q 20.0625 -1.421875 12.78125 6.34375 
Q 5.515625 14.109375 5.515625 27.296875 
Q 5.515625 40.671875 12.859375 48.328125 
Q 20.21875 56 33.015625 56 
Q 37.15625 56 41.109375 55.140625 
Q 45.0625 54.296875 48.78125 52.59375 
z
" id="DejaVuSans-99"/>
      <path d="M 45.40625 46.390625 
L 45.40625 75.984375 
L 54.390625 75.984375 
L 54.390625 0 
L 45.40625 0 
L 45.40625 8.203125 
Q 42.578125 3.328125 38.25 0.953125 
Q 33.9375 -1.421875 27.875 -1.421875 
Q 17.96875 -1.421875 11.734375 6.484375 
Q 5.515625 14.40625 5.515625 27.296875 
Q 5.515625 40.1875 11.734375 48.09375 
Q 17.96875 56 27.875 56 
Q 33.9375 56 38.25 53.625 
Q 42.578125 51.265625 45.40625 46.390625 
z
M 14.796875 27.296875 
Q 14.796875 17.390625 18.875 11.75 
Q 22.953125 6.109375 30.078125 6.109375 
Q 37.203125 6.109375 41.296875 11.75 
Q 45.40625 17.390625 45.40625 27.296875 
Q 45.40625 37.203125 41.296875 42.84375 
Q 37.203125 48.484375 30.078125 48.484375 
Q 22.953125 48.484375 18.875 42.84375 
Q 14.796875 37.203125 14.796875 27.296875 
z
" id="DejaVuSans-100"/>
      <path d="M 10.6875 12.40625 
L 21 12.40625 
L 21 0 
L 10.6875 0 
z
" id="DejaVuSans-46"/>
     </defs>
     <use xlink:href="#DejaVuSans-87"/>
     <use x="98.876953" xlink:href="#DejaVuSans-49"/>
     <use x="162.5" xlink:href="#DejaVuSans-53"/>
     <use x="226.123047" xlink:href="#DejaVuSans-95"/>
     <use x="276.123047" xlink:href="#DejaVuSans-95"/>
     <use x="326.123047" xlink:href="#DejaVuSans-72"/>
     <use x="401.318359" xlink:href="#DejaVuSans-51"/>
     <use x="464.941406" xlink:href="#DejaVuSans-48"/>
     <use x="528.564453" xlink:href="#DejaVuSans-95"/>
     <use x="578.564453" xlink:href="#DejaVuSans-95"/>
     <use x="628.564453" xlink:href="#DejaVuSans-65"/>
     <use x="696.972656" xlink:href="#DejaVuSans-49"/>
     <use x="760.595703" xlink:href="#DejaVuSans-57"/>
     <use x="824.21875" xlink:href="#DejaVuSans-48"/>
     <use x="887.841797" xlink:href="#DejaVuSans-95"/>
     <use x="937.841797" xlink:href="#DejaVuSans-98"/>
     <use x="1001.318359" xlink:href="#DejaVuSans-97"/>
     <use x="1062.597656" xlink:href="#DejaVuSans-114"/>
     <use x="1103.710938" xlink:href="#DejaVuSans-115"/>
     <use x="1155.810547" xlink:href="#DejaVuSans-95"/>
     <use x="1205.810547" xlink:href="#DejaVuSans-101"/>
     <use x="1265.583984" xlink:href="#DejaVuSans-120"/>
     <use x="1324.763672" xlink:href="#DejaVuSans-116"/>
     <use x="1363.972656" xlink:href="#DejaVuSans-114"/>
     <use x="1405.085938" xlink:href="#DejaVuSans-97"/>
     <use x="1466.365234" xlink:href="#DejaVuSans-99"/>
     <use x="1521.345703" xlink:href="#DejaVuSans-116"/>
     <use x="1560.554688" xlink:href="#DejaVuSans-101"/>
     <use x="1622.078125" xlink:href="#DejaVuSans-100"/>
     <use x="1685.554688" xlink:href="#DejaVuSans-46"/>
     <use x="1717.341797" xlink:href="#DejaVuSans-116"/>
     <use x="1756.550781" xlink:href="#DejaVuSans-120"/>
     <use x="1815.730469" xlink:href="#DejaVuSans-116"/>
    </g>
   </g>
  </g>
 </g>
 <defs>
  <clipPath id="p94ad3db64a">
   <rect height="217.44" width="217.44" x="112.68" y="34.56"/>
  </clipPath>
 </defs>
</svg>
