<?xml version="1.0" encoding="utf-8" standalone="no"?>
<!DOCTYPE svg PUBLIC "-//W3C//DTD SVG 1.1//EN"
  "http://www.w3.org/Graphics/SVG/1.1/DTD/svg11.dtd">
<!-- Created with matplotlib (https://matplotlib.org/) -->
<svg height="288pt" version="1.1" viewBox="0 0 432 288" width="432pt" xmlns="http://www.w3.org/2000/svg" xmlns:xlink="http://www.w3.org/1999/xlink">
 <metadata>
  <rdf:RDF xmlns:cc="http://creativecommons.org/ns#" xmlns:dc="http://purl.org/dc/elements/1.1/" xmlns:rdf="http://www.w3.org/1999/02/22-rdf-syntax-ns#">
   <cc:Work>
    <dc:type rdf:resource="http://purl.org/dc/dcmitype/StillImage"/>
    <dc:date>2021-06-13T21:56:51.306217</dc:date>
    <dc:format>image/svg+xml</dc:format>
    <dc:creator>
     <cc:Agent>
      <dc:title>Matplotlib v3.3.4, https://matplotlib.org/</dc:title>
     </cc:Agent>
    </dc:creator>
   </cc:Work>
  </rdf:RDF>
 </metadata>
 <defs>
  <style type="text/css">*{stroke-linecap:butt;stroke-linejoin:round;}</style>
 </defs>
 <g id="figure_1">
  <g id="patch_1">
   <path d="M 0 288 
L 432 288 
L 432 0 
L 0 0 
z
" style="fill:#ffffff;"/>
  </g>
  <g id="patch_2">
   <path d="M 112.68 252 
L 330.12 252 
L 330.12 34.56 
L 112.68 34.56 
z
" style="fill:#ffffff;"/>
  </g>
  <g id="pane3d_1">
   <g id="patch_3">
    <path d="M 129.09822 198.386264 
L 200.904009 138.197228 
L 199.90584 51.393878 
L 124.663773 106.302111 
" style="fill:#f2f2f2;opacity:0.5;stroke:#f2f2f2;stroke-linejoin:miter;"/>
   </g>
  </g>
  <g id="pane3d_2">
   <g id="patch_4">
    <path d="M 200.904009 138.197228 
L 316.12668 171.68791 
L 320.238571 81.894718 
L 199.90584 51.393878 
" style="fill:#e6e6e6;opacity:0.5;stroke:#e6e6e6;stroke-linejoin:miter;"/>
   </g>
  </g>
  <g id="pane3d_3">
   <g id="patch_5">
    <path d="M 129.09822 198.386264 
L 251.239879 238.27773 
L 316.12668 171.68791 
L 200.904009 138.197228 
" style="fill:#ececec;opacity:0.5;stroke:#ececec;stroke-linejoin:miter;"/>
   </g>
  </g>
  <g id="axis3d_1">
   <g id="line2d_1">
    <path d="M 129.09822 198.386264 
L 251.239879 238.27773 
" style="fill:none;stroke:#000000;stroke-linecap:square;stroke-width:0.8;"/>
   </g>
   <g id="Line3DCollection_1">
    <path d="M 136.495759 200.802301 
L 207.911499 140.234029 
L 207.209612 53.245171 
" style="fill:none;stroke:#b0b0b0;stroke-width:0.8;"/>
    <path d="M 162.23134 209.207541 
L 232.260894 147.311436 
L 232.60309 59.681678 
" style="fill:none;stroke:#b0b0b0;stroke-width:0.8;"/>
    <path d="M 188.559037 217.806167 
L 257.123632 154.538053 
L 258.555303 66.259807 
" style="fill:none;stroke:#b0b0b0;stroke-width:0.8;"/>
    <path d="M 215.499525 226.604931 
L 282.516121 161.918647 
L 285.084894 72.984285 
" style="fill:none;stroke:#b0b0b0;stroke-width:0.8;"/>
    <path d="M 243.074449 235.610901 
L 308.455474 169.458193 
L 312.21135 79.860051 
" style="fill:none;stroke:#b0b0b0;stroke-width:0.8;"/>
   </g>
   <g id="xtick_1">
    <g id="line2d_2">
     <path d="M 137.117644 200.274876 
L 135.249322 201.859414 
" style="fill:none;stroke:#000000;stroke-linecap:square;stroke-width:0.8;"/>
    </g>
    <g id="text_1">
     <!-- 0 -->
     <g transform="translate(125.77919 224.124533)scale(0.1 -0.1)">
      <defs>
       <path d="M 31.78125 66.40625 
Q 24.171875 66.40625 20.328125 58.90625 
Q 16.5 51.421875 16.5 36.375 
Q 16.5 21.390625 20.328125 13.890625 
Q 24.171875 6.390625 31.78125 6.390625 
Q 39.453125 6.390625 43.28125 13.890625 
Q 47.125 21.390625 47.125 36.375 
Q 47.125 51.421875 43.28125 58.90625 
Q 39.453125 66.40625 31.78125 66.40625 
z
M 31.78125 74.21875 
Q 44.046875 74.21875 50.515625 64.515625 
Q 56.984375 54.828125 56.984375 36.375 
Q 56.984375 17.96875 50.515625 8.265625 
Q 44.046875 -1.421875 31.78125 -1.421875 
Q 19.53125 -1.421875 13.0625 8.265625 
Q 6.59375 17.96875 6.59375 36.375 
Q 6.59375 54.828125 13.0625 64.515625 
Q 19.53125 74.21875 31.78125 74.21875 
z
" id="DejaVuSans-48"/>
      </defs>
      <use xlink:href="#DejaVuSans-48"/>
     </g>
    </g>
   </g>
   <g id="xtick_2">
    <g id="line2d_3">
     <path d="M 162.841716 208.668056 
L 161.007937 210.288854 
" style="fill:none;stroke:#000000;stroke-linecap:square;stroke-width:0.8;"/>
    </g>
    <g id="text_2">
     <!-- 2 -->
     <g transform="translate(151.547192 232.748132)scale(0.1 -0.1)">
      <defs>
       <path d="M 19.1875 8.296875 
L 53.609375 8.296875 
L 53.609375 0 
L 7.328125 0 
L 7.328125 8.296875 
Q 12.9375 14.109375 22.625 23.890625 
Q 32.328125 33.6875 34.8125 36.53125 
Q 39.546875 41.84375 41.421875 45.53125 
Q 43.3125 49.21875 43.3125 52.78125 
Q 43.3125 58.59375 39.234375 62.25 
Q 35.15625 65.921875 28.609375 65.921875 
Q 23.96875 65.921875 18.8125 64.3125 
Q 13.671875 62.703125 7.8125 59.421875 
L 7.8125 69.390625 
Q 13.765625 71.78125 18.9375 73 
Q 24.125 74.21875 28.421875 74.21875 
Q 39.75 74.21875 46.484375 68.546875 
Q 53.21875 62.890625 53.21875 53.421875 
Q 53.21875 48.921875 51.53125 44.890625 
Q 49.859375 40.875 45.40625 35.40625 
Q 44.1875 33.984375 37.640625 27.21875 
Q 31.109375 20.453125 19.1875 8.296875 
z
" id="DejaVuSans-50"/>
      </defs>
      <use xlink:href="#DejaVuSans-50"/>
     </g>
    </g>
   </g>
   <g id="xtick_3">
    <g id="line2d_4">
     <path d="M 189.15721 217.254202 
L 187.360066 218.91252 
" style="fill:none;stroke:#000000;stroke-linecap:square;stroke-width:0.8;"/>
    </g>
    <g id="text_3">
     <!-- 4 -->
     <g transform="translate(177.91082 241.571064)scale(0.1 -0.1)">
      <defs>
       <path d="M 37.796875 64.3125 
L 12.890625 25.390625 
L 37.796875 25.390625 
z
M 35.203125 72.90625 
L 47.609375 72.90625 
L 47.609375 25.390625 
L 58.015625 25.390625 
L 58.015625 17.1875 
L 47.609375 17.1875 
L 47.609375 0 
L 37.796875 0 
L 37.796875 17.1875 
L 4.890625 17.1875 
L 4.890625 26.703125 
z
" id="DejaVuSans-52"/>
      </defs>
      <use xlink:href="#DejaVuSans-52"/>
     </g>
    </g>
   </g>
   <g id="xtick_4">
    <g id="line2d_5">
     <path d="M 216.084757 226.040048 
L 214.326462 227.737204 
" style="fill:none;stroke:#000000;stroke-linecap:square;stroke-width:0.8;"/>
    </g>
    <g id="text_4">
     <!-- 6 -->
     <g transform="translate(204.890965 250.600322)scale(0.1 -0.1)">
      <defs>
       <path d="M 33.015625 40.375 
Q 26.375 40.375 22.484375 35.828125 
Q 18.609375 31.296875 18.609375 23.390625 
Q 18.609375 15.53125 22.484375 10.953125 
Q 26.375 6.390625 33.015625 6.390625 
Q 39.65625 6.390625 43.53125 10.953125 
Q 47.40625 15.53125 47.40625 23.390625 
Q 47.40625 31.296875 43.53125 35.828125 
Q 39.65625 40.375 33.015625 40.375 
z
M 52.59375 71.296875 
L 52.59375 62.3125 
Q 48.875 64.0625 45.09375 64.984375 
Q 41.3125 65.921875 37.59375 65.921875 
Q 27.828125 65.921875 22.671875 59.328125 
Q 17.53125 52.734375 16.796875 39.40625 
Q 19.671875 43.65625 24.015625 45.921875 
Q 28.375 48.1875 33.59375 48.1875 
Q 44.578125 48.1875 50.953125 41.515625 
Q 57.328125 34.859375 57.328125 23.390625 
Q 57.328125 12.15625 50.6875 5.359375 
Q 44.046875 -1.421875 33.015625 -1.421875 
Q 20.359375 -1.421875 13.671875 8.265625 
Q 6.984375 17.96875 6.984375 36.375 
Q 6.984375 53.65625 15.1875 63.9375 
Q 23.390625 74.21875 37.203125 74.21875 
Q 40.921875 74.21875 44.703125 73.484375 
Q 48.484375 72.75 52.59375 71.296875 
z
" id="DejaVuSans-54"/>
      </defs>
      <use xlink:href="#DejaVuSans-54"/>
     </g>
    </g>
   </g>
   <g id="xtick_5">
    <g id="line2d_6">
     <path d="M 243.645962 235.032643 
L 241.928856 236.770015 
" style="fill:none;stroke:#000000;stroke-linecap:square;stroke-width:0.8;"/>
    </g>
    <g id="text_5">
     <!-- 8 -->
     <g transform="translate(232.509511 259.84323)scale(0.1 -0.1)">
      <defs>
       <path d="M 31.78125 34.625 
Q 24.75 34.625 20.71875 30.859375 
Q 16.703125 27.09375 16.703125 20.515625 
Q 16.703125 13.921875 20.71875 10.15625 
Q 24.75 6.390625 31.78125 6.390625 
Q 38.8125 6.390625 42.859375 10.171875 
Q 46.921875 13.96875 46.921875 20.515625 
Q 46.921875 27.09375 42.890625 30.859375 
Q 38.875 34.625 31.78125 34.625 
z
M 21.921875 38.8125 
Q 15.578125 40.375 12.03125 44.71875 
Q 8.5 49.078125 8.5 55.328125 
Q 8.5 64.0625 14.71875 69.140625 
Q 20.953125 74.21875 31.78125 74.21875 
Q 42.671875 74.21875 48.875 69.140625 
Q 55.078125 64.0625 55.078125 55.328125 
Q 55.078125 49.078125 51.53125 44.71875 
Q 48 40.375 41.703125 38.8125 
Q 48.828125 37.15625 52.796875 32.3125 
Q 56.78125 27.484375 56.78125 20.515625 
Q 56.78125 9.90625 50.3125 4.234375 
Q 43.84375 -1.421875 31.78125 -1.421875 
Q 19.734375 -1.421875 13.25 4.234375 
Q 6.78125 9.90625 6.78125 20.515625 
Q 6.78125 27.484375 10.78125 32.3125 
Q 14.796875 37.15625 21.921875 38.8125 
z
M 18.3125 54.390625 
Q 18.3125 48.734375 21.84375 45.5625 
Q 25.390625 42.390625 31.78125 42.390625 
Q 38.140625 42.390625 41.71875 45.5625 
Q 45.3125 48.734375 45.3125 54.390625 
Q 45.3125 60.0625 41.71875 63.234375 
Q 38.140625 66.40625 31.78125 66.40625 
Q 25.390625 66.40625 21.84375 63.234375 
Q 18.3125 60.0625 18.3125 54.390625 
z
" id="DejaVuSans-56"/>
      </defs>
      <use xlink:href="#DejaVuSans-56"/>
     </g>
    </g>
   </g>
  </g>
  <g id="axis3d_2">
   <g id="line2d_7">
    <path d="M 316.12668 171.68791 
L 251.239879 238.27773 
" style="fill:none;stroke:#000000;stroke-linecap:square;stroke-width:0.8;"/>
   </g>
   <g id="Line3DCollection_2">
    <path d="M 129.866948 102.505071 
L 134.046245 194.238731 
L 255.729543 233.67023 
" style="fill:none;stroke:#b0b0b0;stroke-width:0.8;"/>
    <path d="M 147.250212 89.819556 
L 150.59591 180.366474 
L 270.72626 218.279909 
" style="fill:none;stroke:#b0b0b0;stroke-width:0.8;"/>
    <path d="M 163.958537 77.626582 
L 166.530371 167.009893 
L 285.136664 203.491289 
" style="fill:none;stroke:#b0b0b0;stroke-width:0.8;"/>
    <path d="M 180.030483 65.898008 
L 181.883306 154.140758 
L 298.994481 189.269761 
" style="fill:none;stroke:#b0b0b0;stroke-width:0.8;"/>
    <path d="M 195.501727 54.607799 
L 196.68598 141.732864 
L 312.330896 175.583317 
" style="fill:none;stroke:#b0b0b0;stroke-width:0.8;"/>
   </g>
   <g id="xtick_6">
    <g id="line2d_8">
     <path d="M 254.704115 233.337939 
L 257.783053 234.33567 
" style="fill:none;stroke:#000000;stroke-linecap:square;stroke-width:0.8;"/>
    </g>
    <g id="text_6">
     <!-- 0 -->
     <g transform="translate(265.430654 254.693759)scale(0.1 -0.1)">
      <use xlink:href="#DejaVuSans-48"/>
     </g>
    </g>
   </g>
   <g id="xtick_7">
    <g id="line2d_9">
     <path d="M 269.71494 217.960734 
L 272.751463 218.919068 
" style="fill:none;stroke:#000000;stroke-linecap:square;stroke-width:0.8;"/>
    </g>
    <g id="text_7">
     <!-- 2 -->
     <g transform="translate(280.181112 239.024526)scale(0.1 -0.1)">
      <use xlink:href="#DejaVuSans-50"/>
     </g>
    </g>
   </g>
   <g id="xtick_8">
    <g id="line2d_10">
     <path d="M 284.139145 203.184468 
L 287.134182 204.105694 
" style="fill:none;stroke:#000000;stroke-linecap:square;stroke-width:0.8;"/>
    </g>
    <g id="text_8">
     <!-- 4 -->
     <g transform="translate(294.35448 223.968328)scale(0.1 -0.1)">
      <use xlink:href="#DejaVuSans-52"/>
     </g>
    </g>
   </g>
   <g id="xtick_9">
    <g id="line2d_11">
     <path d="M 298.010457 188.97459 
L 300.964927 189.860821 
" style="fill:none;stroke:#000000;stroke-linecap:square;stroke-width:0.8;"/>
    </g>
    <g id="text_9">
     <!-- 6 -->
     <g transform="translate(307.983974 209.489882)scale(0.1 -0.1)">
      <use xlink:href="#DejaVuSans-54"/>
     </g>
    </g>
   </g>
   <g id="xtick_10">
    <g id="line2d_12">
     <path d="M 311.360068 175.299146 
L 314.274875 176.15234 
" style="fill:none;stroke:#000000;stroke-linecap:square;stroke-width:0.8;"/>
    </g>
    <g id="text_10">
     <!-- 8 -->
     <g transform="translate(321.10031 195.556556)scale(0.1 -0.1)">
      <use xlink:href="#DejaVuSans-56"/>
     </g>
    </g>
   </g>
  </g>
  <g id="axis3d_3">
   <g id="line2d_13">
    <path d="M 316.12668 171.68791 
L 320.238571 81.894718 
" style="fill:none;stroke:#000000;stroke-linecap:square;stroke-width:0.8;"/>
   </g>
   <g id="Line3DCollection_3">
    <path d="M 316.205459 169.967571 
L 200.884845 136.530725 
L 129.013401 196.624949 
" style="fill:none;stroke:#b0b0b0;stroke-width:0.8;"/>
    <path d="M 316.846166 155.97617 
L 200.729048 122.98217 
L 128.323372 182.296061 
" style="fill:none;stroke:#b0b0b0;stroke-width:0.8;"/>
    <path d="M 317.495873 141.788238 
L 200.571167 109.252411 
L 127.623281 167.758216 
" style="fill:none;stroke:#b0b0b0;stroke-width:0.8;"/>
    <path d="M 318.15477 127.399606 
L 200.411159 95.337787 
L 126.912906 153.006808 
" style="fill:none;stroke:#b0b0b0;stroke-width:0.8;"/>
    <path d="M 318.823054 112.805984 
L 200.248983 81.234539 
L 126.192018 138.037098 
" style="fill:none;stroke:#b0b0b0;stroke-width:0.8;"/>
    <path d="M 319.500928 98.00296 
L 200.084594 66.938806 
L 125.460382 122.844204 
" style="fill:none;stroke:#b0b0b0;stroke-width:0.8;"/>
   </g>
   <g id="xtick_11">
    <g id="line2d_14">
     <path d="M 315.237563 169.686933 
L 318.143556 170.529516 
" style="fill:none;stroke:#000000;stroke-linecap:square;stroke-width:0.8;"/>
    </g>
    <g id="text_11">
     <!-- 0 -->
     <g transform="translate(331.275915 174.966846)scale(0.1 -0.1)">
      <use xlink:href="#DejaVuSans-48"/>
     </g>
    </g>
   </g>
   <g id="xtick_12">
    <g id="line2d_15">
     <path d="M 315.871266 155.699158 
L 318.798303 156.530858 
" style="fill:none;stroke:#000000;stroke-linecap:square;stroke-width:0.8;"/>
    </g>
    <g id="text_12">
     <!-- 10000 -->
     <g transform="translate(319.316076 161.00909)scale(0.1 -0.1)">
      <defs>
       <path d="M 12.40625 8.296875 
L 28.515625 8.296875 
L 28.515625 63.921875 
L 10.984375 60.40625 
L 10.984375 69.390625 
L 28.421875 72.90625 
L 38.28125 72.90625 
L 38.28125 8.296875 
L 54.390625 8.296875 
L 54.390625 0 
L 12.40625 0 
z
" id="DejaVuSans-49"/>
      </defs>
      <use xlink:href="#DejaVuSans-49"/>
      <use x="63.623047" xlink:href="#DejaVuSans-48"/>
      <use x="127.246094" xlink:href="#DejaVuSans-48"/>
      <use x="190.869141" xlink:href="#DejaVuSans-48"/>
      <use x="254.492188" xlink:href="#DejaVuSans-48"/>
     </g>
    </g>
   </g>
   <g id="xtick_13">
    <g id="line2d_16">
     <path d="M 316.513868 141.514983 
L 319.462253 142.335409 
" style="fill:none;stroke:#000000;stroke-linecap:square;stroke-width:0.8;"/>
    </g>
    <g id="text_13">
     <!-- 20000 -->
     <g transform="translate(320.091945 146.856006)scale(0.1 -0.1)">
      <use xlink:href="#DejaVuSans-50"/>
      <use x="63.623047" xlink:href="#DejaVuSans-48"/>
      <use x="127.246094" xlink:href="#DejaVuSans-48"/>
      <use x="190.869141" xlink:href="#DejaVuSans-48"/>
      <use x="254.492188" xlink:href="#DejaVuSans-48"/>
     </g>
    </g>
   </g>
   <g id="xtick_14">
    <g id="line2d_17">
     <path d="M 317.165556 127.130241 
L 320.135604 127.938991 
" style="fill:none;stroke:#000000;stroke-linecap:square;stroke-width:0.8;"/>
    </g>
    <g id="text_14">
     <!-- 30000 -->
     <g transform="translate(320.878749 132.503464)scale(0.1 -0.1)">
      <defs>
       <path d="M 40.578125 39.3125 
Q 47.65625 37.796875 51.625 33 
Q 55.609375 28.21875 55.609375 21.1875 
Q 55.609375 10.40625 48.1875 4.484375 
Q 40.765625 -1.421875 27.09375 -1.421875 
Q 22.515625 -1.421875 17.65625 -0.515625 
Q 12.796875 0.390625 7.625 2.203125 
L 7.625 11.71875 
Q 11.71875 9.328125 16.59375 8.109375 
Q 21.484375 6.890625 26.8125 6.890625 
Q 36.078125 6.890625 40.9375 10.546875 
Q 45.796875 14.203125 45.796875 21.1875 
Q 45.796875 27.640625 41.28125 31.265625 
Q 36.765625 34.90625 28.71875 34.90625 
L 20.21875 34.90625 
L 20.21875 43.015625 
L 29.109375 43.015625 
Q 36.375 43.015625 40.234375 45.921875 
Q 44.09375 48.828125 44.09375 54.296875 
Q 44.09375 59.90625 40.109375 62.90625 
Q 36.140625 65.921875 28.71875 65.921875 
Q 24.65625 65.921875 20.015625 65.03125 
Q 15.375 64.15625 9.8125 62.3125 
L 9.8125 71.09375 
Q 15.4375 72.65625 20.34375 73.4375 
Q 25.25 74.21875 29.59375 74.21875 
Q 40.828125 74.21875 47.359375 69.109375 
Q 53.90625 64.015625 53.90625 55.328125 
Q 53.90625 49.265625 50.4375 45.09375 
Q 46.96875 40.921875 40.578125 39.3125 
z
" id="DejaVuSans-51"/>
      </defs>
      <use xlink:href="#DejaVuSans-51"/>
      <use x="63.623047" xlink:href="#DejaVuSans-48"/>
      <use x="127.246094" xlink:href="#DejaVuSans-48"/>
      <use x="190.869141" xlink:href="#DejaVuSans-48"/>
      <use x="254.492188" xlink:href="#DejaVuSans-48"/>
     </g>
    </g>
   </g>
   <g id="xtick_15">
    <g id="line2d_18">
     <path d="M 317.826524 112.540648 
L 320.818555 113.337304 
" style="fill:none;stroke:#000000;stroke-linecap:square;stroke-width:0.8;"/>
    </g>
    <g id="text_15">
     <!-- 40000 -->
     <g transform="translate(321.676719 117.947218)scale(0.1 -0.1)">
      <use xlink:href="#DejaVuSans-52"/>
      <use x="63.623047" xlink:href="#DejaVuSans-48"/>
      <use x="127.246094" xlink:href="#DejaVuSans-48"/>
      <use x="190.869141" xlink:href="#DejaVuSans-48"/>
      <use x="254.492188" xlink:href="#DejaVuSans-48"/>
     </g>
    </g>
   </g>
   <g id="xtick_16">
    <g id="line2d_19">
     <path d="M 318.496972 97.741797 
L 321.511314 98.525928 
" style="fill:none;stroke:#000000;stroke-linecap:square;stroke-width:0.8;"/>
    </g>
    <g id="text_16">
     <!-- 50000 -->
     <g transform="translate(322.486096 103.182901)scale(0.1 -0.1)">
      <defs>
       <path d="M 10.796875 72.90625 
L 49.515625 72.90625 
L 49.515625 64.59375 
L 19.828125 64.59375 
L 19.828125 46.734375 
Q 21.96875 47.46875 24.109375 47.828125 
Q 26.265625 48.1875 28.421875 48.1875 
Q 40.625 48.1875 47.75 41.5 
Q 54.890625 34.8125 54.890625 23.390625 
Q 54.890625 11.625 47.5625 5.09375 
Q 40.234375 -1.421875 26.90625 -1.421875 
Q 22.3125 -1.421875 17.546875 -0.640625 
Q 12.796875 0.140625 7.71875 1.703125 
L 7.71875 11.625 
Q 12.109375 9.234375 16.796875 8.0625 
Q 21.484375 6.890625 26.703125 6.890625 
Q 35.15625 6.890625 40.078125 11.328125 
Q 45.015625 15.765625 45.015625 23.390625 
Q 45.015625 31 40.078125 35.4375 
Q 35.15625 39.890625 26.703125 39.890625 
Q 22.75 39.890625 18.8125 39.015625 
Q 14.890625 38.140625 10.796875 36.28125 
z
" id="DejaVuSans-53"/>
      </defs>
      <use xlink:href="#DejaVuSans-53"/>
      <use x="63.623047" xlink:href="#DejaVuSans-48"/>
      <use x="127.246094" xlink:href="#DejaVuSans-48"/>
      <use x="190.869141" xlink:href="#DejaVuSans-48"/>
      <use x="254.492188" xlink:href="#DejaVuSans-48"/>
     </g>
    </g>
   </g>
  </g>
  <g id="axes_1">
   <g id="Poly3DCollection_1">
    <path clip-path="url(#pce24e63162)" d="M 203.700438 142.115361 
L 203.601432 132.357748 
L 215.823034 135.875342 
L 215.863902 145.66701 
z
" style="fill:#1f0143;"/>
    <path clip-path="url(#pce24e63162)" d="M 196.401162 148.290596 
L 196.265917 138.473885 
L 203.601432 132.357748 
L 203.700438 142.115361 
z
" style="fill:#41028d;"/>
    <path clip-path="url(#pce24e63162)" d="M 196.401162 148.290596 
L 203.700438 142.115361 
L 215.863902 145.66701 
L 208.637156 151.907182 
z
" style="fill:#270155;"/>
    <path clip-path="url(#pce24e63162)" d="M 196.265917 138.473885 
L 208.560744 142.056107 
L 215.823034 135.875342 
L 203.601432 132.357748 
z
" style="fill:#38027b;"/>
    <path clip-path="url(#pce24e63162)" d="M 208.637156 151.907182 
L 215.863902 145.66701 
L 215.823034 135.875342 
L 208.560744 142.056107 
z
" style="fill:#1f0143;"/>
    <path clip-path="url(#pce24e63162)" d="M 208.637156 151.907182 
L 215.863902 145.66701 
L 228.155024 149.255935 
L 221.002748 155.562072 
z
" style="fill:#40015a;"/>
    <path clip-path="url(#pce24e63162)" d="M 215.863902 145.66701 
L 215.782499 126.163234 
L 228.19188 129.683479 
L 228.155024 149.255935 
z
" style="fill:#320146;"/>
    <path clip-path="url(#pce24e63162)" d="M 196.401162 148.290596 
L 208.637156 151.907182 
L 208.560744 142.056107 
L 196.265917 138.473885 
z
" style="fill:#41028d;"/>
    <path clip-path="url(#pce24e63162)" d="M 208.637156 151.907182 
L 208.484946 132.284218 
L 215.782499 126.163234 
L 215.863902 145.66701 
z
" style="fill:#6a0195;"/>
    <path clip-path="url(#pce24e63162)" d="M 196.401162 148.290596 
L 196.223792 135.416229 
L 208.536943 138.987644 
L 208.637156 151.907182 
z
" style="fill:#250145;"/>
    <path clip-path="url(#pce24e63162)" d="M 188.96817 154.578956 
L 196.401162 148.290596 
L 208.637156 151.907182 
L 201.27732 158.262275 
z
" style="fill:#2f0158;"/>
    <path clip-path="url(#pce24e63162)" d="M 188.96817 154.578956 
L 188.741539 141.626202 
L 196.223792 135.416229 
L 196.401162 148.290596 
z
" style="fill:#4d0191;"/>
    <path clip-path="url(#pce24e63162)" d="M 228.155024 149.255935 
L 228.189266 131.071585 
L 240.722279 134.634293 
L 240.575825 152.882725 
z
" style="fill:#300046;"/>
    <path clip-path="url(#pce24e63162)" d="M 221.002748 155.562072 
L 228.155024 149.255935 
L 240.575825 152.882725 
L 233.500008 159.25588 
z
" style="fill:#3d005a;"/>
    <path clip-path="url(#pce24e63162)" d="M 221.002748 155.562072 
L 220.972545 137.266516 
L 228.189266 131.071585 
L 228.155024 149.255935 
z
" style="fill:#650095;"/>
    <path clip-path="url(#pce24e63162)" d="M 221.002748 155.562072 
L 228.155024 149.255935 
L 228.19188 129.683479 
L 220.970239 135.869798 
z
" style="fill:#320146;"/>
    <path clip-path="url(#pce24e63162)" d="M 240.575825 152.882725 
L 240.626694 146.544428 
L 253.219041 150.18751 
L 253.128369 156.547983 
z
" style="fill:#170240;"/>
    <path clip-path="url(#pce24e63162)" d="M 201.27732 158.262275 
L 208.637156 151.907182 
L 221.002748 155.562072 
L 213.718049 161.984967 
z
" style="fill:#6e273f;"/>
    <path clip-path="url(#pce24e63162)" d="M 208.637156 151.907182 
L 221.002748 155.562072 
L 220.970239 135.869798 
L 208.484946 132.284218 
z
" style="fill:#6a0195;"/>
    <path clip-path="url(#pce24e63162)" d="M 188.96817 154.578956 
L 188.894763 150.383495 
L 201.229204 154.052148 
L 201.27732 158.262275 
z
" style="fill:#11023d;"/>
    <path clip-path="url(#pce24e63162)" d="M 233.500008 159.25588 
L 233.528974 152.879101 
L 240.626694 146.544428 
L 240.575825 152.882725 
z
" style="fill:#300487;"/>
    <path clip-path="url(#pce24e63162)" d="M 208.484946 132.284218 
L 220.970239 135.869798 
L 228.19188 129.683479 
L 215.782499 126.163234 
z
" style="fill:#5c0181;"/>
    <path clip-path="url(#pce24e63162)" d="M 201.27732 158.262275 
L 208.637156 151.907182 
L 208.536943 138.987644 
L 201.128768 145.263943 
z
" style="fill:#250145;"/>
    <path clip-path="url(#pce24e63162)" d="M 188.741539 141.626202 
L 201.128768 145.263943 
L 208.536943 138.987644 
L 196.223792 135.416229 
z
" style="fill:#43017e;"/>
    <path clip-path="url(#pce24e63162)" d="M 233.500008 159.25588 
L 240.575825 152.882725 
L 253.128369 156.547983 
L 246.131049 162.989229 
z
" style="fill:#1d0251;"/>
    <path clip-path="url(#pce24e63162)" d="M 181.397755 160.983577 
L 181.307811 156.762667 
L 188.894763 150.383495 
L 188.96817 154.578956 
z
" style="fill:#250582;"/>
    <path clip-path="url(#pce24e63162)" d="M 188.96817 154.578956 
L 201.27732 158.262275 
L 201.128768 145.263943 
L 188.741539 141.626202 
z
" style="fill:#4d0191;"/>
    <path clip-path="url(#pce24e63162)" d="M 253.128369 156.547983 
L 253.175357 153.25187 
L 265.882816 156.944687 
L 265.814761 160.252323 
z
" style="fill:#0f023c;"/>
    <path clip-path="url(#pce24e63162)" d="M 233.500008 159.25588 
L 240.575825 152.882725 
L 240.722279 134.634293 
L 233.583409 140.895659 
z
" style="fill:#300046;"/>
    <path clip-path="url(#pce24e63162)" d="M 181.397755 160.983577 
L 188.96817 154.578956 
L 201.27732 158.262275 
L 193.780682 164.735494 
z
" style="fill:#16034f;"/>
    <path clip-path="url(#pce24e63162)" d="M 233.528974 152.879101 
L 246.200322 156.590078 
L 253.219041 150.18751 
L 240.626694 146.544428 
z
" style="fill:#2a0375;"/>
    <path clip-path="url(#pce24e63162)" d="M 246.131049 162.989229 
L 246.166947 159.67312 
L 253.175357 153.25187 
L 253.128369 156.547983 
z
" style="fill:#200580;"/>
    <path clip-path="url(#pce24e63162)" d="M 220.972545 137.266516 
L 233.583409 140.895659 
L 240.722279 134.634293 
L 228.189266 131.071585 
z
" style="fill:#580081;"/>
    <path clip-path="url(#pce24e63162)" d="M 221.002748 155.562072 
L 233.500008 159.25588 
L 233.583409 140.895659 
L 220.972545 137.266516 
z
" style="fill:#650095;"/>
    <path clip-path="url(#pce24e63162)" d="M 213.718049 161.984967 
L 221.002748 155.562072 
L 233.500008 159.25588 
L 226.292478 165.747667 
z
" style="fill:#7c3c2f;"/>
    <path clip-path="url(#pce24e63162)" d="M 246.131049 162.989229 
L 253.128369 156.547983 
L 253.219041 150.18751 
L 246.200322 156.590078 
z
" style="fill:#170240;"/>
    <path clip-path="url(#pce24e63162)" d="M 208.637156 151.907182 
L 208.309022 109.60416 
L 220.932661 113.107112 
L 221.002748 155.562072 
z
" style="fill:#561f31;"/>
    <path clip-path="url(#pce24e63162)" d="M 181.307811 156.762667 
L 193.716331 160.499789 
L 201.229204 154.052148 
L 188.894763 150.383495 
z
" style="fill:#200471;"/>
    <path clip-path="url(#pce24e63162)" d="M 246.131049 162.989229 
L 253.128369 156.547983 
L 265.814761 160.252323 
L 258.898031 166.762758 
z
" style="fill:#13034d;"/>
    <path clip-path="url(#pce24e63162)" d="M 233.500008 159.25588 
L 246.131049 162.989229 
L 246.200322 156.590078 
L 233.528974 152.879101 
z
" style="fill:#300487;"/>
    <path clip-path="url(#pce24e63162)" d="M 193.780682 164.735494 
L 201.27732 158.262275 
L 201.229204 154.052148 
L 193.716331 160.499789 
z
" style="fill:#11023d;"/>
    <path clip-path="url(#pce24e63162)" d="M 201.27732 158.262275 
L 200.790844 115.695562 
L 208.309022 109.60416 
L 208.637156 151.907182 
z
" style="fill:#b54168;"/>
    <path clip-path="url(#pce24e63162)" d="M 265.814761 160.252323 
L 265.854706 158.310901 
L 278.689729 162.048162 
L 278.637155 163.996376 
z
" style="fill:#0b033b;"/>
    <path clip-path="url(#pce24e63162)" d="M 246.166947 159.67312 
L 258.955267 163.435024 
L 265.882816 156.944687 
L 253.175357 153.25187 
z
" style="fill:#1b046f;"/>
    <path clip-path="url(#pce24e63162)" d="M 181.397755 160.983577 
L 181.376049 159.964971 
L 193.765153 163.713326 
L 193.780682 164.735494 
z
" style="fill:#080339;"/>
    <path clip-path="url(#pce24e63162)" d="M 193.780682 164.735494 
L 201.27732 158.262275 
L 213.718049 161.984967 
L 206.297214 168.527892 
z
" style="fill:#692243;"/>
    <path clip-path="url(#pce24e63162)" d="M 181.397755 160.983577 
L 193.780682 164.735494 
L 193.716331 160.499789 
L 181.307811 156.762667 
z
" style="fill:#250582;"/>
    <path clip-path="url(#pce24e63162)" d="M 258.898031 166.762758 
L 258.931625 164.809552 
L 265.854706 158.310901 
L 265.814761 160.252323 
z
" style="fill:#18057c;"/>
    <path clip-path="url(#pce24e63162)" d="M 258.898031 166.762758 
L 265.814761 160.252323 
L 265.882816 156.944687 
L 258.955267 163.435024 
z
" style="fill:#0f023c;"/>
    <path clip-path="url(#pce24e63162)" d="M 226.292478 165.747667 
L 233.500008 159.25588 
L 246.131049 162.989229 
L 239.002775 169.551023 
z
" style="fill:#621a4a;"/>
    <path clip-path="url(#pce24e63162)" d="M 173.686069 167.507715 
L 173.660226 166.482928 
L 181.376049 159.964971 
L 181.397755 160.983577 
z
" style="fill:#110679;"/>
    <path clip-path="url(#pce24e63162)" d="M 258.898031 166.762758 
L 265.814761 160.252323 
L 278.637155 163.996376 
L 271.803162 170.57712 
z
" style="fill:#0e034b;"/>
    <path clip-path="url(#pce24e63162)" d="M 246.131049 162.989229 
L 258.898031 166.762758 
L 258.955267 163.435024 
L 246.166947 159.67312 
z
" style="fill:#200580;"/>
    <path clip-path="url(#pce24e63162)" d="M 258.931625 164.809552 
L 271.849551 168.617063 
L 278.689729 162.048162 
L 265.854706 158.310901 
z
" style="fill:#15056c;"/>
    <path clip-path="url(#pce24e63162)" d="M 278.637155 163.996376 
L 278.672998 162.668173 
L 291.642386 166.447928 
L 291.597749 167.780781 
z
" style="fill:#09033a;"/>
    <path clip-path="url(#pce24e63162)" d="M 213.718049 161.984967 
L 221.002748 155.562072 
L 220.932661 113.107112 
L 213.492789 119.264878 
z
" style="fill:#561f31;"/>
    <path clip-path="url(#pce24e63162)" d="M 173.686069 167.507715 
L 181.397755 160.983577 
L 193.780682 164.735494 
L 186.143392 171.330164 
z
" style="fill:#0a0449;"/>
    <path clip-path="url(#pce24e63162)" d="M 173.660226 166.482928 
L 186.1238 170.301784 
L 193.765153 163.713326 
L 181.376049 159.964971 
z
" style="fill:#0f0569;"/>
    <path clip-path="url(#pce24e63162)" d="M 246.131049 162.989229 
L 246.242283 152.713812 
L 259.075386 156.451128 
L 258.898031 166.762758 
z
" style="fill:#1f0143;"/>
    <path clip-path="url(#pce24e63162)" d="M 221.002748 155.562072 
L 220.91367 101.603022 
L 233.746008 105.101024 
L 233.500008 159.25588 
z
" style="fill:#612f25;"/>
    <path clip-path="url(#pce24e63162)" d="M 201.27732 158.262275 
L 200.824951 118.679876 
L 213.508583 122.26026 
L 213.718049 161.984967 
z
" style="fill:#521a35;"/>
    <path clip-path="url(#pce24e63162)" d="M 206.297214 168.527892 
L 213.718049 161.984967 
L 226.292478 165.747667 
L 218.949524 172.361429 
z
" style="fill:#876118;"/>
    <path clip-path="url(#pce24e63162)" d="M 233.500008 159.25588 
L 233.661054 123.802793 
L 246.516216 127.409012 
L 246.131049 162.989229 
z
" style="fill:#4c143a;"/>
    <path clip-path="url(#pce24e63162)" d="M 201.27732 158.262275 
L 213.718049 161.984967 
L 213.492789 119.264878 
L 200.790844 115.695562 
z
" style="fill:#b54168;"/>
    <path clip-path="url(#pce24e63162)" d="M 271.803162 170.57712 
L 271.834788 169.240847 
L 278.672998 162.668173 
L 278.637155 163.996376 
z
" style="fill:#13067a;"/>
    <path clip-path="url(#pce24e63162)" d="M 271.803162 170.57712 
L 278.637155 163.996376 
L 278.689729 162.048162 
L 271.849551 168.617063 
z
" style="fill:#0b033b;"/>
    <path clip-path="url(#pce24e63162)" d="M 239.002775 169.551023 
L 239.078329 159.212767 
L 246.242283 152.713812 
L 246.131049 162.989229 
z
" style="fill:#42028e;"/>
    <path clip-path="url(#pce24e63162)" d="M 213.718049 161.984967 
L 213.431735 107.686083 
L 220.91367 101.603022 
L 221.002748 155.562072 
z
" style="fill:#ce644e;"/>
    <path clip-path="url(#pce24e63162)" d="M 239.002775 169.551023 
L 246.131049 162.989229 
L 258.898031 166.762758 
L 251.851153 173.395697 
z
" style="fill:#280156;"/>
    <path clip-path="url(#pce24e63162)" d="M 186.143392 171.330164 
L 193.780682 164.735494 
L 193.765153 163.713326 
L 186.1238 170.301784 
z
" style="fill:#080339;"/>
    <path clip-path="url(#pce24e63162)" d="M 193.780682 164.735494 
L 193.175576 124.906124 
L 200.824951 118.679876 
L 201.27732 158.262275 
z
" style="fill:#ae386f;"/>
    <path clip-path="url(#pce24e63162)" d="M 226.292478 165.747667 
L 226.327153 130.073954 
L 233.661054 123.802793 
L 233.500008 159.25588 
z
" style="fill:#a22b7a;"/>
    <path clip-path="url(#pce24e63162)" d="M 258.898031 166.762758 
L 271.803162 170.57712 
L 271.849551 168.617063 
L 258.931625 164.809552 
z
" style="fill:#18057c;"/>
    <path clip-path="url(#pce24e63162)" d="M 193.780682 164.735494 
L 193.560523 150.244128 
L 206.166526 153.985254 
L 206.297214 168.527892 
z
" style="fill:#280045;"/>
    <path clip-path="url(#pce24e63162)" d="M 271.803162 170.57712 
L 278.637155 163.996376 
L 291.597749 167.780781 
L 284.848695 174.43298 
z
" style="fill:#0c044a;"/>
    <path clip-path="url(#pce24e63162)" d="M 258.898031 166.762758 
L 258.978882 162.061999 
L 271.914806 165.85984 
L 271.803162 170.57712 
z
" style="fill:#12023e;"/>
    <path clip-path="url(#pce24e63162)" d="M 173.686069 167.507715 
L 173.671524 166.930934 
L 186.132365 170.751361 
L 186.143392 171.330164 
z
" style="fill:#070339;"/>
    <path clip-path="url(#pce24e63162)" d="M 173.686069 167.507715 
L 186.143392 171.330164 
L 186.1238 170.301784 
L 173.660226 166.482928 
z
" style="fill:#110679;"/>
    <path clip-path="url(#pce24e63162)" d="M 271.834788 169.240847 
L 284.889232 173.092017 
L 291.642386 166.447928 
L 278.672998 162.668173 
z
" style="fill:#11056a;"/>
    <path clip-path="url(#pce24e63162)" d="M 291.597749 167.780781 
L 291.627116 166.90388 
L 304.734067 170.726221 
L 304.698789 171.606197 
z
" style="fill:#080339;"/>
    <path clip-path="url(#pce24e63162)" d="M 186.143392 171.330164 
L 193.780682 164.735494 
L 206.297214 168.527892 
L 198.736391 175.194243 
z
" style="fill:#330059;"/>
    <path clip-path="url(#pce24e63162)" d="M 186.143392 171.330164 
L 185.865608 156.749827 
L 193.560523 150.244128 
L 193.780682 164.735494 
z
" style="fill:#540193;"/>
    <path clip-path="url(#pce24e63162)" d="M 251.851153 173.395697 
L 251.916124 168.666271 
L 258.978882 162.061999 
L 258.898031 166.762758 
z
" style="fill:#270483;"/>
    <path clip-path="url(#pce24e63162)" d="M 165.82912 174.154745 
L 165.812161 173.574457 
L 173.671524 166.930934 
L 173.686069 167.507715 
z
" style="fill:#0e0678;"/>
    <path clip-path="url(#pce24e63162)" d="M 218.949524 172.361429 
L 226.292478 165.747667 
L 239.002775 169.551023 
L 231.739835 176.23678 
z
" style="fill:#876915;"/>
    <path clip-path="url(#pce24e63162)" d="M 284.848695 174.43298 
L 284.875365 173.550745 
L 291.627116 166.90388 
L 291.597749 167.780781 
z
" style="fill:#110679;"/>
    <path clip-path="url(#pce24e63162)" d="M 284.848695 174.43298 
L 291.597749 167.780781 
L 291.642386 166.447928 
L 284.889232 173.092017 
z
" style="fill:#09033a;"/>
    <path clip-path="url(#pce24e63162)" d="M 200.790844 115.695562 
L 213.492789 119.264878 
L 220.932661 113.107112 
L 208.309022 109.60416 
z
" style="fill:#9d395a;"/>
    <path clip-path="url(#pce24e63162)" d="M 239.078329 159.212767 
L 251.993679 163.020911 
L 259.075386 156.451128 
L 246.242283 152.713812 
z
" style="fill:#39027b;"/>
    <path clip-path="url(#pce24e63162)" d="M 251.851153 173.395697 
L 258.898031 166.762758 
L 259.075386 156.451128 
L 251.993679 163.020911 
z
" style="fill:#1f0143;"/>
    <path clip-path="url(#pce24e63162)" d="M 226.292478 165.747667 
L 233.500008 159.25588 
L 233.746008 105.101024 
L 226.345449 111.251097 
z
" style="fill:#612f25;"/>
    <path clip-path="url(#pce24e63162)" d="M 251.851153 173.395697 
L 258.898031 166.762758 
L 271.803162 170.57712 
L 264.839875 177.282368 
z
" style="fill:#17034f;"/>
    <path clip-path="url(#pce24e63162)" d="M 206.297214 168.527892 
L 213.718049 161.984967 
L 213.508583 122.26026 
L 205.937996 128.554885 
z
" style="fill:#521a35;"/>
    <path clip-path="url(#pce24e63162)" d="M 239.002775 169.551023 
L 246.131049 162.989229 
L 246.516216 127.409012 
L 239.264424 133.749004 
z
" style="fill:#4c143a;"/>
    <path clip-path="url(#pce24e63162)" d="M 271.803162 170.57712 
L 284.848695 174.43298 
L 284.889232 173.092017 
L 271.834788 169.240847 
z
" style="fill:#13067a;"/>
    <path clip-path="url(#pce24e63162)" d="M 165.82912 174.154745 
L 173.686069 167.507715 
L 186.143392 171.330164 
L 178.361455 178.049733 
z
" style="fill:#090449;"/>
    <path clip-path="url(#pce24e63162)" d="M 165.812161 173.574457 
L 178.348056 177.467407 
L 186.132365 170.751361 
L 173.671524 166.930934 
z
" style="fill:#0c0668;"/>
    <path clip-path="url(#pce24e63162)" d="M 271.803162 170.57712 
L 271.869574 167.771024 
L 284.933821 171.617023 
L 284.848695 174.43298 
z
" style="fill:#0e023c;"/>
    <path clip-path="url(#pce24e63162)" d="M 284.848695 174.43298 
L 291.597749 167.780781 
L 304.698789 171.606197 
L 298.036935 178.33102 
z
" style="fill:#0a0449;"/>
    <path clip-path="url(#pce24e63162)" d="M 239.002775 169.551023 
L 251.851153 173.395697 
L 251.993679 163.020911 
L 239.078329 159.212767 
z
" style="fill:#42028e;"/>
    <path clip-path="url(#pce24e63162)" d="M 284.875365 173.550745 
L 298.069595 177.445684 
L 304.734067 170.726221 
L 291.627116 166.90388 
z
" style="fill:#0f0569;"/>
    <path clip-path="url(#pce24e63162)" d="M 213.718049 161.984967 
L 226.292478 165.747667 
L 226.345449 111.251097 
L 213.431735 107.686083 
z
" style="fill:#ce644e;"/>
    <path clip-path="url(#pce24e63162)" d="M 193.780682 164.735494 
L 206.297214 168.527892 
L 205.937996 128.554885 
L 193.175576 124.906124 
z
" style="fill:#ae386f;"/>
    <path clip-path="url(#pce24e63162)" d="M 251.916124 168.666271 
L 264.936043 172.536279 
L 271.914806 165.85984 
L 258.978882 162.061999 
z
" style="fill:#220472;"/>
    <path clip-path="url(#pce24e63162)" d="M 198.736391 175.194243 
L 206.297214 168.527892 
L 218.949524 172.361429 
L 211.467294 179.100638 
z
" style="fill:#824a26;"/>
    <path clip-path="url(#pce24e63162)" d="M 226.292478 165.747667 
L 239.002775 169.551023 
L 239.264424 133.749004 
L 226.327153 130.073954 
z
" style="fill:#a22b7a;"/>
    <path clip-path="url(#pce24e63162)" d="M 186.143392 171.330164 
L 186.066741 167.306861 
L 198.684731 171.156785 
L 198.736391 175.194243 
z
" style="fill:#11023d;"/>
    <path clip-path="url(#pce24e63162)" d="M 264.839875 177.282368 
L 264.89708 174.45916 
L 271.869574 167.771024 
L 271.803162 170.57712 
z
" style="fill:#1e057f;"/>
    <path clip-path="url(#pce24e63162)" d="M 198.736391 175.194243 
L 206.297214 168.527892 
L 206.166526 153.985254 
L 198.549172 160.562185 
z
" style="fill:#280045;"/>
    <path clip-path="url(#pce24e63162)" d="M 264.839875 177.282368 
L 271.803162 170.57712 
L 271.914806 165.85984 
L 264.936043 172.536279 
z
" style="fill:#12023e;"/>
    <path clip-path="url(#pce24e63162)" d="M 178.361455 178.049733 
L 186.143392 171.330164 
L 186.132365 170.751361 
L 178.348056 177.467407 
z
" style="fill:#070339;"/>
    <path clip-path="url(#pce24e63162)" d="M 231.739835 176.23678 
L 239.002775 169.551023 
L 251.851153 173.395697 
L 244.670417 180.154631 
z
" style="fill:#682144;"/>
    <path clip-path="url(#pce24e63162)" d="M 185.865608 156.749827 
L 198.549172 160.562185 
L 206.166526 153.985254 
L 193.560523 150.244128 
z
" style="fill:#49007f;"/>
    <path clip-path="url(#pce24e63162)" d="M 298.036935 178.33102 
L 304.698789 171.606197 
L 304.734067 170.726221 
L 298.069595 177.445684 
z
" style="fill:#080339;"/>
    <path clip-path="url(#pce24e63162)" d="M 178.361455 178.049733 
L 178.268311 174.001867 
L 186.066741 167.306861 
L 186.143392 171.330164 
z
" style="fill:#230581;"/>
    <path clip-path="url(#pce24e63162)" d="M 186.143392 171.330164 
L 198.736391 175.194243 
L 198.549172 160.562185 
L 185.865608 156.749827 
z
" style="fill:#540193;"/>
    <path clip-path="url(#pce24e63162)" d="M 264.839875 177.282368 
L 271.803162 170.57712 
L 284.848695 174.43298 
L 277.971253 181.211726 
z
" style="fill:#12034d;"/>
    <path clip-path="url(#pce24e63162)" d="M 165.82912 174.154745 
L 165.81739 173.75337 
L 178.352187 177.646949 
L 178.361455 178.049733 
z
" style="fill:#050338;"/>
    <path clip-path="url(#pce24e63162)" d="M 251.851153 173.395697 
L 264.839875 177.282368 
L 264.936043 172.536279 
L 251.916124 168.666271 
z
" style="fill:#270483;"/>
    <path clip-path="url(#pce24e63162)" d="M 165.82912 174.154745 
L 178.361455 178.049733 
L 178.348056 177.467407 
L 165.812161 173.574457 
z
" style="fill:#0e0678;"/>
    <path clip-path="url(#pce24e63162)" d="M 213.718049 161.984967 
L 213.340184 90.323752 
L 226.36239 93.822223 
L 226.292478 165.747667 
z
" style="fill:#6a4c13;"/>
    <path clip-path="url(#pce24e63162)" d="M 284.848695 174.43298 
L 298.036935 178.33102 
L 298.069595 177.445684 
L 284.875365 173.550745 
z
" style="fill:#110679;"/>
    <path clip-path="url(#pce24e63162)" d="M 284.848695 174.43298 
L 284.890402 173.053327 
L 298.088009 176.946517 
L 298.036935 178.33102 
z
" style="fill:#09033a;"/>
    <path clip-path="url(#pce24e63162)" d="M 178.361455 178.049733 
L 186.143392 171.330164 
L 198.736391 175.194243 
L 191.031582 181.987547 
z
" style="fill:#15034e;"/>
    <path clip-path="url(#pce24e63162)" d="M 226.327153 130.073954 
L 239.264424 133.749004 
L 246.516216 127.409012 
L 233.661054 123.802793 
z
" style="fill:#8d256a;"/>
    <path clip-path="url(#pce24e63162)" d="M 264.89708 174.45916 
L 278.047422 178.378573 
L 284.933821 171.617023 
L 271.869574 167.771024 
z
" style="fill:#1a046e;"/>
    <path clip-path="url(#pce24e63162)" d="M 193.175576 124.906124 
L 205.937996 128.554885 
L 213.508583 122.26026 
L 200.824951 118.679876 
z
" style="fill:#973161;"/>
    <path clip-path="url(#pce24e63162)" d="M 251.851153 173.395697 
L 252.008202 161.963775 
L 265.072336 165.809959 
L 264.839875 177.282368 
z
" style="fill:#210144;"/>
    <path clip-path="url(#pce24e63162)" d="M 157.822766 180.928173 
L 157.809304 180.524353 
L 165.81739 173.75337 
L 165.82912 174.154745 
z
" style="fill:#0b0777;"/>
    <path clip-path="url(#pce24e63162)" d="M 211.467294 179.100638 
L 218.949524 172.361429 
L 231.739835 176.23678 
L 224.338378 183.050047 
z
" style="fill:#808512;"/>
    <path clip-path="url(#pce24e63162)" d="M 206.297214 168.527892 
L 205.649108 96.408071 
L 213.340184 90.323752 
L 213.718049 161.984967 
z
" style="fill:#e0a128;"/>
    <path clip-path="url(#pce24e63162)" d="M 277.971253 181.211726 
L 278.008571 179.823657 
L 284.890402 173.053327 
L 284.848695 174.43298 
z
" style="fill:#13067a;"/>
    <path clip-path="url(#pce24e63162)" d="M 178.268311 174.001867 
L 190.963735 177.925404 
L 198.684731 171.156785 
L 186.066741 167.306861 
z
" style="fill:#1f0470;"/>
    <path clip-path="url(#pce24e63162)" d="M 277.971253 181.211726 
L 284.848695 174.43298 
L 284.933821 171.617023 
L 278.047422 178.378573 
z
" style="fill:#0e023c;"/>
    <path clip-path="url(#pce24e63162)" d="M 239.002775 169.551023 
L 239.291478 130.047143 
L 252.395808 133.7491 
L 251.851153 173.395697 
z
" style="fill:#511a35;"/>
    <path clip-path="url(#pce24e63162)" d="M 244.670417 180.154631 
L 251.851153 173.395697 
L 264.839875 177.282368 
L 257.743589 184.115686 
z
" style="fill:#2b0156;"/>
    <path clip-path="url(#pce24e63162)" d="M 244.670417 180.154631 
L 244.787585 168.652457 
L 252.008202 161.963775 
L 251.851153 173.395697 
z
" style="fill:#46028f;"/>
    <path clip-path="url(#pce24e63162)" d="M 191.031582 181.987547 
L 198.736391 175.194243 
L 198.684731 171.156785 
L 190.963735 177.925404 
z
" style="fill:#11023d;"/>
    <path clip-path="url(#pce24e63162)" d="M 213.431735 107.686083 
L 226.345449 111.251097 
L 233.746008 105.101024 
L 220.91367 101.603022 
z
" style="fill:#b25744;"/>
    <path clip-path="url(#pce24e63162)" d="M 157.822766 180.928173 
L 165.82912 174.154745 
L 178.361455 178.049733 
L 170.430723 184.897786 
z
" style="fill:#070448;"/>
    <path clip-path="url(#pce24e63162)" d="M 157.809304 180.524353 
L 170.419752 184.492544 
L 178.352187 177.646949 
L 165.81739 173.75337 
z
" style="fill:#0a0667;"/>
    <path clip-path="url(#pce24e63162)" d="M 264.839875 177.282368 
L 277.971253 181.211726 
L 278.047422 178.378573 
L 264.89708 174.45916 
z
" style="fill:#1e057f;"/>
    <path clip-path="url(#pce24e63162)" d="M 277.971253 181.211726 
L 284.848695 174.43298 
L 298.036935 178.33102 
L 291.24765 185.184478 
z
" style="fill:#0c044a;"/>
    <path clip-path="url(#pce24e63162)" d="M 231.739835 176.23678 
L 231.886954 136.485228 
L 239.291478 130.047143 
L 239.002775 169.551023 
z
" style="fill:#ac3671;"/>
    <path clip-path="url(#pce24e63162)" d="M 264.839875 177.282368 
L 264.949978 171.84854 
L 278.117857 175.758717 
L 277.971253 181.211726 
z
" style="fill:#15023f;"/>
    <path clip-path="url(#pce24e63162)" d="M 278.008571 179.823657 
L 291.294464 183.791519 
L 298.088009 176.946517 
L 284.890402 173.053327 
z
" style="fill:#11056a;"/>
    <path clip-path="url(#pce24e63162)" d="M 178.361455 178.049733 
L 178.315814 176.066262 
L 190.998337 179.997091 
L 191.031582 181.987547 
z
" style="fill:#0b033b;"/>
    <path clip-path="url(#pce24e63162)" d="M 191.031582 181.987547 
L 198.736391 175.194243 
L 211.467294 179.100638 
L 203.841786 185.968896 
z
" style="fill:#540d54;"/>
    <path clip-path="url(#pce24e63162)" d="M 178.361455 178.049733 
L 191.031582 181.987547 
L 190.963735 177.925404 
L 178.268311 174.001867 
z
" style="fill:#230581;"/>
    <path clip-path="url(#pce24e63162)" d="M 226.292478 165.747667 
L 226.365163 90.96942 
L 239.551294 94.495937 
L 239.002775 169.551023 
z
" style="fill:#6a5210;"/>
    <path clip-path="url(#pce24e63162)" d="M 206.297214 168.527892 
L 205.746635 107.260645 
L 218.784148 110.869317 
L 218.949524 172.361429 
z
" style="fill:#663a1e;"/>
    <path clip-path="url(#pce24e63162)" d="M 170.430723 184.897786 
L 178.361455 178.049733 
L 178.352187 177.646949 
L 170.419752 184.492544 
z
" style="fill:#050338;"/>
    <path clip-path="url(#pce24e63162)" d="M 224.338378 183.050047 
L 231.739835 176.23678 
L 244.670417 180.154631 
L 237.351973 187.043183 
z
" style="fill:#866e14;"/>
    <path clip-path="url(#pce24e63162)" d="M 257.743589 184.115686 
L 257.835271 178.648577 
L 264.949978 171.84854 
L 264.839875 177.282368 
z
" style="fill:#2c0485;"/>
    <path clip-path="url(#pce24e63162)" d="M 218.949524 172.361429 
L 226.292478 165.747667 
L 226.36239 93.822223 
L 218.754849 99.97479 
z
" style="fill:#6a4c13;"/>
    <path clip-path="url(#pce24e63162)" d="M 170.430723 184.897786 
L 170.376696 182.902196 
L 178.315814 176.066262 
L 178.361455 178.049733 
z
" style="fill:#18057c;"/>
    <path clip-path="url(#pce24e63162)" d="M 291.24765 185.184478 
L 298.036935 178.33102 
L 298.088009 176.946517 
L 291.294464 183.791519 
z
" style="fill:#09033a;"/>
    <path clip-path="url(#pce24e63162)" d="M 218.949524 172.361429 
L 218.747124 97.10269 
L 226.365163 90.96942 
L 226.292478 165.747667 
z
" style="fill:#e0ae23;"/>
    <path clip-path="url(#pce24e63162)" d="M 198.736391 175.194243 
L 198.36621 146.262807 
L 211.280156 150.065284 
L 211.467294 179.100638 
z
" style="fill:#420b41;"/>
    <path clip-path="url(#pce24e63162)" d="M 257.743589 184.115686 
L 264.839875 177.282368 
L 277.971253 181.211726 
L 270.961723 188.120663 
z
" style="fill:#1a0250;"/>
    <path clip-path="url(#pce24e63162)" d="M 198.736391 175.194243 
L 197.947475 113.536734 
L 205.746635 107.260645 
L 206.297214 168.527892 
z
" style="fill:#d87a3f;"/>
    <path clip-path="url(#pce24e63162)" d="M 257.743589 184.115686 
L 264.839875 177.282368 
L 265.072336 165.809959 
L 257.937162 172.572678 
z
" style="fill:#210144;"/>
    <path clip-path="url(#pce24e63162)" d="M 244.787585 168.652457 
L 257.937162 172.572678 
L 265.072336 165.809959 
L 252.008202 161.963775 
z
" style="fill:#3d027c;"/>
    <path clip-path="url(#pce24e63162)" d="M 157.822766 180.928173 
L 157.811811 180.599558 
L 170.421795 184.568014 
L 170.430723 184.897786 
z
" style="fill:#050338;"/>
    <path clip-path="url(#pce24e63162)" d="M 157.822766 180.928173 
L 170.430723 184.897786 
L 170.419752 184.492544 
L 157.809304 180.524353 
z
" style="fill:#0b0777;"/>
    <path clip-path="url(#pce24e63162)" d="M 206.297214 168.527892 
L 218.949524 172.361429 
L 218.754849 99.97479 
L 205.649108 96.408071 
z
" style="fill:#e0a128;"/>
    <path clip-path="url(#pce24e63162)" d="M 277.971253 181.211726 
L 291.24765 185.184478 
L 291.294464 183.791519 
L 278.008571 179.823657 
z
" style="fill:#13067a;"/>
    <path clip-path="url(#pce24e63162)" d="M 170.430723 184.897786 
L 178.361455 178.049733 
L 191.031582 181.987547 
L 183.178635 188.911464 
z
" style="fill:#0e034b;"/>
    <path clip-path="url(#pce24e63162)" d="M 277.971253 181.211726 
L 278.036033 178.802209 
L 291.328913 182.766466 
L 291.24765 185.184478 
z
" style="fill:#0c033b;"/>
    <path clip-path="url(#pce24e63162)" d="M 191.031582 181.987547 
L 190.545344 152.875782 
L 198.36621 146.262807 
L 198.736391 175.194243 
z
" style="fill:#8c168a;"/>
    <path clip-path="url(#pce24e63162)" d="M 244.670417 180.154631 
L 251.851153 173.395697 
L 252.395808 133.7491 
L 245.076818 140.259057 
z
" style="fill:#511a35;"/>
    <path clip-path="url(#pce24e63162)" d="M 170.376696 182.902196 
L 183.137155 186.908832 
L 190.998337 179.997091 
L 178.315814 176.066262 
z
" style="fill:#15056c;"/>
    <path clip-path="url(#pce24e63162)" d="M 244.670417 180.154631 
L 257.743589 184.115686 
L 257.937162 172.572678 
L 244.787585 168.652457 
z
" style="fill:#46028f;"/>
    <path clip-path="url(#pce24e63162)" d="M 149.662704 187.831639 
L 149.650287 187.501017 
L 157.811811 180.599558 
L 157.822766 180.928173 
z
" style="fill:#0b0777;"/>
    <path clip-path="url(#pce24e63162)" d="M 203.841786 185.968896 
L 211.467294 179.100638 
L 224.338378 183.050047 
L 216.794403 189.994506 
z
" style="fill:#876218;"/>
    <path clip-path="url(#pce24e63162)" d="M 257.835271 178.648577 
L 271.090394 182.634212 
L 278.117857 175.758717 
L 264.949978 171.84854 
z
" style="fill:#260473;"/>
    <path clip-path="url(#pce24e63162)" d="M 270.961723 188.120663 
L 271.018578 185.696405 
L 278.036033 178.802209 
L 277.971253 181.211726 
z
" style="fill:#1a057d;"/>
    <path clip-path="url(#pce24e63162)" d="M 231.739835 176.23678 
L 244.670417 180.154631 
L 245.076818 140.259057 
L 231.886954 136.485228 
z
" style="fill:#ac3671;"/>
    <path clip-path="url(#pce24e63162)" d="M 237.351973 187.043183 
L 244.670417 180.154631 
L 257.743589 184.115686 
L 250.510457 191.080779 
z
" style="fill:#5f174c;"/>
    <path clip-path="url(#pce24e63162)" d="M 191.031582 181.987547 
L 190.878718 172.835344 
L 203.747193 176.784241 
L 203.841786 185.968896 
z
" style="fill:#1c0142;"/>
    <path clip-path="url(#pce24e63162)" d="M 270.961723 188.120663 
L 277.971253 181.211726 
L 278.117857 175.758717 
L 271.090394 182.634212 
z
" style="fill:#15023f;"/>
    <path clip-path="url(#pce24e63162)" d="M 183.178635 188.911464 
L 191.031582 181.987547 
L 190.998337 179.997091 
L 183.137155 186.908832 
z
" style="fill:#0b033b;"/>
    <path clip-path="url(#pce24e63162)" d="M 231.739835 176.23678 
L 239.002775 169.551023 
L 239.551294 94.495937 
L 232.0194 100.698488 
z
" style="fill:#6a5210;"/>
    <path clip-path="url(#pce24e63162)" d="M 149.662704 187.831639 
L 157.822766 180.928173 
L 170.430723 184.897786 
L 162.346885 191.878042 
z
" style="fill:#070448;"/>
    <path clip-path="url(#pce24e63162)" d="M 149.650287 187.501017 
L 162.336519 191.546254 
L 170.421795 184.568014 
L 157.811811 180.599558 
z
" style="fill:#0a0667;"/>
    <path clip-path="url(#pce24e63162)" d="M 270.961723 188.120663 
L 277.971253 181.211726 
L 291.24765 185.184478 
L 284.327244 192.170297 
z
" style="fill:#10034c;"/>
    <path clip-path="url(#pce24e63162)" d="M 211.467294 179.100638 
L 218.949524 172.361429 
L 218.784148 110.869317 
L 211.068437 117.21612 
z
" style="fill:#663a1e;"/>
    <path clip-path="url(#pce24e63162)" d="M 170.430723 184.897786 
L 170.402705 183.862886 
L 183.157124 187.872915 
L 183.178635 188.911464 
z
" style="fill:#080339;"/>
    <path clip-path="url(#pce24e63162)" d="M 257.743589 184.115686 
L 270.961723 188.120663 
L 271.090394 182.634212 
L 257.835271 178.648577 
z
" style="fill:#2c0485;"/>
    <path clip-path="url(#pce24e63162)" d="M 183.178635 188.911464 
L 182.987904 179.702954 
L 190.878718 172.835344 
L 191.031582 181.987547 
z
" style="fill:#3c038c;"/>
    <path clip-path="url(#pce24e63162)" d="M 170.430723 184.897786 
L 183.178635 188.911464 
L 183.137155 186.908832 
L 170.376696 182.902196 
z
" style="fill:#18057c;"/>
    <path clip-path="url(#pce24e63162)" d="M 183.178635 188.911464 
L 191.031582 181.987547 
L 203.841786 185.968896 
L 196.068846 192.969946 
z
" style="fill:#240254;"/>
    <path clip-path="url(#pce24e63162)" d="M 271.018578 185.696405 
L 284.400806 189.737473 
L 291.328913 182.766466 
L 278.036033 178.802209 
z
" style="fill:#17056d;"/>
    <path clip-path="url(#pce24e63162)" d="M 218.949524 172.361429 
L 231.739835 176.23678 
L 232.0194 100.698488 
L 218.747124 97.10269 
z
" style="fill:#e0ae23;"/>
    <path clip-path="url(#pce24e63162)" d="M 203.841786 185.968896 
L 211.467294 179.100638 
L 211.280156 150.065284 
L 203.540883 156.752292 
z
" style="fill:#420b41;"/>
    <path clip-path="url(#pce24e63162)" d="M 198.736391 175.194243 
L 211.467294 179.100638 
L 211.068437 117.21612 
L 197.947475 113.536734 
z
" style="fill:#d87a3f;"/>
    <path clip-path="url(#pce24e63162)" d="M 257.743589 184.115686 
L 257.935823 172.652494 
L 271.231519 176.616724 
L 270.961723 188.120663 
z
" style="fill:#210144;"/>
    <path clip-path="url(#pce24e63162)" d="M 244.670417 180.154631 
L 245.01996 145.840625 
L 258.321105 149.677691 
L 257.743589 184.115686 
z
" style="fill:#4a123c;"/>
    <path clip-path="url(#pce24e63162)" d="M 162.346885 191.878042 
L 170.430723 184.897786 
L 170.421795 184.568014 
L 162.336519 191.546254 
z
" style="fill:#050338;"/>
    <path clip-path="url(#pce24e63162)" d="M 216.794403 189.994506 
L 224.338378 183.050047 
L 237.351973 187.043183 
L 229.891821 194.06512 
z
" style="fill:#808512;"/>
    <path clip-path="url(#pce24e63162)" d="M 162.346885 191.878042 
L 162.314355 190.836811 
L 170.402705 183.862886 
L 170.430723 184.897786 
z
" style="fill:#110679;"/>
    <path clip-path="url(#pce24e63162)" d="M 231.886954 136.485228 
L 245.076818 140.259057 
L 252.395808 133.7491 
L 239.291478 130.047143 
z
" style="fill:#952f62;"/>
    <path clip-path="url(#pce24e63162)" d="M 284.327244 192.170297 
L 291.24765 185.184478 
L 291.328913 182.766466 
L 284.400806 189.737473 
z
" style="fill:#0c033b;"/>
    <path clip-path="url(#pce24e63162)" d="M 191.031582 181.987547 
L 203.841786 185.968896 
L 203.540883 156.752292 
L 190.545344 152.875782 
z
" style="fill:#8c168a;"/>
    <path clip-path="url(#pce24e63162)" d="M 250.510457 191.080779 
L 257.743589 184.115686 
L 270.961723 188.120663 
L 263.816264 195.163579 
z
" style="fill:#2b0156;"/>
    <path clip-path="url(#pce24e63162)" d="M 218.949524 172.361429 
L 218.717589 86.120525 
L 232.060205 89.672941 
L 231.739835 176.23678 
z
" style="fill:#64680e;"/>
    <path clip-path="url(#pce24e63162)" d="M 250.510457 191.080779 
L 250.662528 179.546886 
L 257.935823 172.652494 
L 257.743589 184.115686 
z
" style="fill:#46028f;"/>
    <path clip-path="url(#pce24e63162)" d="M 237.351973 187.043183 
L 237.577882 152.51402 
L 245.01996 145.840625 
L 244.670417 180.154631 
z
" style="fill:#9d267e;"/>
    <path clip-path="url(#pce24e63162)" d="M 149.662704 187.831639 
L 149.654287 187.60752 
L 162.339858 191.653132 
L 162.346885 191.878042 
z
" style="fill:#050338;"/>
    <path clip-path="url(#pce24e63162)" d="M 149.662704 187.831639 
L 162.346885 191.878042 
L 162.336519 191.546254 
L 149.650287 187.501017 
z
" style="fill:#0b0777;"/>
    <path clip-path="url(#pce24e63162)" d="M 162.346885 191.878042 
L 170.430723 184.897786 
L 183.178635 188.911464 
L 175.173234 195.969799 
z
" style="fill:#0a0449;"/>
    <path clip-path="url(#pce24e63162)" d="M 270.961723 188.120663 
L 284.327244 192.170297 
L 284.400806 189.737473 
L 271.018578 185.696405 
z
" style="fill:#1a057d;"/>
    <path clip-path="url(#pce24e63162)" d="M 162.314355 190.836811 
L 175.14729 194.924888 
L 183.157124 187.872915 
L 170.402705 183.862886 
z
" style="fill:#0f0569;"/>
    <path clip-path="url(#pce24e63162)" d="M 182.987904 179.702954 
L 195.937113 183.728713 
L 203.747193 176.784241 
L 190.878718 172.835344 
z
" style="fill:#340279;"/>
    <path clip-path="url(#pce24e63162)" d="M 270.961723 188.120663 
L 271.062404 183.82771 
L 284.457511 187.862152 
L 284.327244 192.170297 
z
" style="fill:#11023d;"/>
    <path clip-path="url(#pce24e63162)" d="M 190.545344 152.875782 
L 203.540883 156.752292 
L 211.280156 150.065284 
L 198.36621 146.262807 
z
" style="fill:#791378;"/>
    <path clip-path="url(#pce24e63162)" d="M 196.068846 192.969946 
L 203.841786 185.968896 
L 203.747193 176.784241 
L 195.937113 183.728713 
z
" style="fill:#1c0142;"/>
    <path clip-path="url(#pce24e63162)" d="M 211.467294 179.100638 
L 210.907843 92.299225 
L 218.717589 86.120525 
L 218.949524 172.361429 
z
" style="fill:#d4dc1e;"/>
    <path clip-path="url(#pce24e63162)" d="M 141.344465 194.868925 
L 141.335019 194.643434 
L 149.654287 187.60752 
L 149.662704 187.831639 
z
" style="fill:#0b0777;"/>
    <path clip-path="url(#pce24e63162)" d="M 196.068846 192.969946 
L 203.841786 185.968896 
L 216.794403 189.994506 
L 209.103753 197.073984 
z
" style="fill:#651e47;"/>
    <path clip-path="url(#pce24e63162)" d="M 183.178635 188.911464 
L 183.101641 185.1942 
L 196.015669 189.23953 
L 196.068846 192.969946 
z
" style="fill:#10023d;"/>
    <path clip-path="url(#pce24e63162)" d="M 231.739835 176.23678 
L 232.02703 98.636803 
L 245.463844 102.265421 
L 244.670417 180.154631 
z
" style="fill:#69560f;"/>
    <path clip-path="url(#pce24e63162)" d="M 263.816264 195.163579 
L 263.902342 190.844267 
L 271.062404 183.82771 
L 270.961723 188.120663 
z
" style="fill:#250582;"/>
    <path clip-path="url(#pce24e63162)" d="M 205.649108 96.408071 
L 218.754849 99.97479 
L 226.36239 93.822223 
L 213.340184 90.323752 
z
" style="fill:#c28c23;"/>
    <path clip-path="url(#pce24e63162)" d="M 229.891821 194.06512 
L 237.351973 187.043183 
L 250.510457 191.080779 
L 243.136481 198.181496 
z
" style="fill:#855320;"/>
    <path clip-path="url(#pce24e63162)" d="M 175.173234 195.969799 
L 183.178635 188.911464 
L 183.157124 187.872915 
L 175.14729 194.924888 
z
" style="fill:#080339;"/>
    <path clip-path="url(#pce24e63162)" d="M 183.178635 188.911464 
L 196.068846 192.969946 
L 195.937113 183.728713 
L 182.987904 179.702954 
z
" style="fill:#3c038c;"/>
    <path clip-path="url(#pce24e63162)" d="M 175.173234 195.969799 
L 175.080371 192.229716 
L 183.101641 185.1942 
L 183.178635 188.911464 
z
" style="fill:#210581;"/>
    <path clip-path="url(#pce24e63162)" d="M 141.344465 194.868925 
L 149.662704 187.831639 
L 162.346885 191.878042 
L 154.105465 198.994368 
z
" style="fill:#070448;"/>
    <path clip-path="url(#pce24e63162)" d="M 141.335019 194.643434 
L 154.097427 198.76808 
L 162.339858 191.653132 
L 149.654287 187.60752 
z
" style="fill:#0a0667;"/>
    <path clip-path="url(#pce24e63162)" d="M 224.338378 183.050047 
L 224.338378 104.948076 
L 232.02703 98.636803 
L 231.739835 176.23678 
z
" style="fill:#dfb621;"/>
    <path clip-path="url(#pce24e63162)" d="M 263.816264 195.163579 
L 270.961723 188.120663 
L 284.327244 192.170297 
L 277.271882 199.292348 
z
" style="fill:#16034f;"/>
    <path clip-path="url(#pce24e63162)" d="M 263.816264 195.163579 
L 270.961723 188.120663 
L 271.231519 176.616724 
L 264.046939 183.588598 
z
" style="fill:#210144;"/>
    <path clip-path="url(#pce24e63162)" d="M 250.662528 179.546886 
L 264.046939 183.588598 
L 271.231519 176.616724 
L 257.935823 172.652494 
z
" style="fill:#3d027c;"/>
    <path clip-path="url(#pce24e63162)" d="M 250.510457 191.080779 
L 257.743589 184.115686 
L 258.321105 149.677691 
L 250.967364 156.426528 
z
" style="fill:#4a123c;"/>
    <path clip-path="url(#pce24e63162)" d="M 162.346885 191.878042 
L 162.327724 191.264755 
L 175.157953 195.354345 
L 175.173234 195.969799 
z
" style="fill:#070339;"/>
    <path clip-path="url(#pce24e63162)" d="M 162.346885 191.878042 
L 175.173234 195.969799 
L 175.14729 194.924888 
L 162.314355 190.836811 
z
" style="fill:#110679;"/>
    <path clip-path="url(#pce24e63162)" d="M 211.467294 179.100638 
L 210.995459 105.893212 
L 224.338378 109.570319 
L 224.338378 183.050047 
z
" style="fill:#6a4d13;"/>
    <path clip-path="url(#pce24e63162)" d="M 175.173234 195.969799 
L 183.178635 188.911464 
L 196.068846 192.969946 
L 188.144156 200.107676 
z
" style="fill:#14034e;"/>
    <path clip-path="url(#pce24e63162)" d="M 203.841786 185.968896 
L 203.445362 147.477653 
L 216.647669 151.363446 
L 216.794403 189.994506 
z
" style="fill:#4f1737;"/>
    <path clip-path="url(#pce24e63162)" d="M 250.510457 191.080779 
L 263.816264 195.163579 
L 264.046939 183.588598 
L 250.662528 179.546886 
z
" style="fill:#46028f;"/>
    <path clip-path="url(#pce24e63162)" d="M 224.338378 183.050047 
L 231.739835 176.23678 
L 232.060205 89.672941 
L 224.338378 95.922502 
z
" style="fill:#64680e;"/>
    <path clip-path="url(#pce24e63162)" d="M 263.902342 190.844267 
L 277.387951 194.957721 
L 284.457511 187.862152 
L 271.062404 183.82771 
z
" style="fill:#200471;"/>
    <path clip-path="url(#pce24e63162)" d="M 237.351973 187.043183 
L 250.510457 191.080779 
L 250.967364 156.426528 
L 237.577882 152.51402 
z
" style="fill:#9d267e;"/>
    <path clip-path="url(#pce24e63162)" d="M 154.105465 198.994368 
L 162.346885 191.878042 
L 162.339858 191.653132 
L 154.097427 198.76808 
z
" style="fill:#050338;"/>
    <path clip-path="url(#pce24e63162)" d="M 154.105465 198.994368 
L 154.083546 198.377322 
L 162.327724 191.264755 
L 162.346885 191.878042 
z
" style="fill:#0e0678;"/>
    <path clip-path="url(#pce24e63162)" d="M 209.103753 197.073984 
L 216.794403 189.994506 
L 229.891821 194.06512 
L 222.285805 201.224351 
z
" style="fill:#876218;"/>
    <path clip-path="url(#pce24e63162)" d="M 197.947475 113.536734 
L 211.068437 117.21612 
L 218.784148 110.869317 
L 205.746635 107.260645 
z
" style="fill:#bc6a36;"/>
    <path clip-path="url(#pce24e63162)" d="M 203.841786 185.968896 
L 203.082951 112.288875 
L 210.995459 105.893212 
L 211.467294 179.100638 
z
" style="fill:#e0a327;"/>
    <path clip-path="url(#pce24e63162)" d="M 175.080371 192.229716 
L 188.075406 196.354334 
L 196.015669 189.23953 
L 183.101641 185.1942 
z
" style="fill:#1d0470;"/>
    <path clip-path="url(#pce24e63162)" d="M 277.271882 199.292348 
L 284.327244 192.170297 
L 284.457511 187.862152 
L 277.387951 194.957721 
z
" style="fill:#11023d;"/>
    <path clip-path="url(#pce24e63162)" d="M 196.068846 192.969946 
L 195.516697 154.236079 
L 203.445362 147.477653 
L 203.841786 185.968896 
z
" style="fill:#a83175;"/>
    <path clip-path="url(#pce24e63162)" d="M 243.136481 198.181496 
L 250.510457 191.080779 
L 263.816264 195.163579 
L 256.530882 202.34441 
z
" style="fill:#500a56;"/>
    <path clip-path="url(#pce24e63162)" d="M 211.467294 179.100638 
L 224.338378 183.050047 
L 224.338378 95.922502 
L 210.907843 92.299225 
z
" style="fill:#d4dc1e;"/>
    <path clip-path="url(#pce24e63162)" d="M 141.344465 194.868925 
L 154.105465 198.994368 
L 154.097427 198.76808 
L 141.335019 194.643434 
z
" style="fill:#0b0777;"/>
    <path clip-path="url(#pce24e63162)" d="M 188.144156 200.107676 
L 196.068846 192.969946 
L 196.015669 189.23953 
L 188.075406 196.354334 
z
" style="fill:#10023d;"/>
    <path clip-path="url(#pce24e63162)" d="M 154.105465 198.994368 
L 162.346885 191.878042 
L 175.173234 195.969799 
L 167.010898 203.166503 
z
" style="fill:#090449;"/>
    <path clip-path="url(#pce24e63162)" d="M 218.747124 97.10269 
L 232.0194 100.698488 
L 239.551294 94.495937 
L 226.365163 90.96942 
z
" style="fill:#c2971e;"/>
    <path clip-path="url(#pce24e63162)" d="M 196.068846 192.969946 
L 195.865874 178.73121 
L 208.993752 182.784388 
L 209.103753 197.073984 
z
" style="fill:#270045;"/>
    <path clip-path="url(#pce24e63162)" d="M 154.083546 198.377322 
L 166.992905 202.547273 
L 175.157953 195.354345 
L 162.327724 191.264755 
z
" style="fill:#0c0668;"/>
    <path clip-path="url(#pce24e63162)" d="M 237.351973 187.043183 
L 244.670417 180.154631 
L 245.463844 102.265421 
L 237.86487 108.649175 
z
" style="fill:#69560f;"/>
    <path clip-path="url(#pce24e63162)" d="M 263.816264 195.163579 
L 277.271882 199.292348 
L 277.387951 194.957721 
L 263.902342 190.844267 
z
" style="fill:#250582;"/>
    <path clip-path="url(#pce24e63162)" d="M 237.577882 152.51402 
L 250.967364 156.426528 
L 258.321105 149.677691 
L 245.01996 145.840625 
z
" style="fill:#88216e;"/>
    <path clip-path="url(#pce24e63162)" d="M 250.510457 191.080779 
L 250.871353 163.70849 
L 264.363728 167.692554 
L 263.816264 195.163579 
z
" style="fill:#3f0843;"/>
    <path clip-path="url(#pce24e63162)" d="M 175.173234 195.969799 
L 175.125525 194.048302 
L 188.108835 198.179377 
L 188.144156 200.107676 
z
" style="fill:#0b033b;"/>
    <path clip-path="url(#pce24e63162)" d="M 188.144156 200.107676 
L 196.068846 192.969946 
L 209.103753 197.073984 
L 201.262108 204.292457 
z
" style="fill:#310058;"/>
    <path clip-path="url(#pce24e63162)" d="M 175.173234 195.969799 
L 188.144156 200.107676 
L 188.075406 196.354334 
L 175.080371 192.229716 
z
" style="fill:#210581;"/>
    <path clip-path="url(#pce24e63162)" d="M 263.816264 195.163579 
L 263.994867 186.201494 
L 277.512715 190.298365 
L 277.271882 199.292348 
z
" style="fill:#1c0142;"/>
    <path clip-path="url(#pce24e63162)" d="M 188.144156 200.107676 
L 187.88173 185.780694 
L 195.865874 178.73121 
L 196.068846 192.969946 
z
" style="fill:#520192;"/>
    <path clip-path="url(#pce24e63162)" d="M 224.338378 183.050047 
L 237.351973 187.043183 
L 237.86487 108.649175 
L 224.338378 104.948076 
z
" style="fill:#dfb621;"/>
    <path clip-path="url(#pce24e63162)" d="M 167.010898 203.166503 
L 175.173234 195.969799 
L 175.157953 195.354345 
L 166.992905 202.547273 
z
" style="fill:#070339;"/>
    <path clip-path="url(#pce24e63162)" d="M 243.136481 198.181496 
L 243.398254 170.637881 
L 250.871353 163.70849 
L 250.510457 191.080779 
z
" style="fill:#85108e;"/>
    <path clip-path="url(#pce24e63162)" d="M 222.285805 201.224351 
L 229.891821 194.06512 
L 243.136481 198.181496 
L 235.617509 205.421836 
z
" style="fill:#876616;"/>
    <path clip-path="url(#pce24e63162)" d="M 167.010898 203.166503 
L 166.954722 201.233205 
L 175.125525 194.048302 
L 175.173234 195.969799 
z
" style="fill:#18057c;"/>
    <path clip-path="url(#pce24e63162)" d="M 216.794403 189.994506 
L 224.338378 183.050047 
L 224.338378 109.570319 
L 216.513496 116.039576 
z
" style="fill:#6a4d13;"/>
    <path clip-path="url(#pce24e63162)" d="M 256.530882 202.34441 
L 256.677958 193.326982 
L 263.994867 186.201494 
L 263.816264 195.163579 
z
" style="fill:#3b038b;"/>
    <path clip-path="url(#pce24e63162)" d="M 209.103753 197.073984 
L 216.794403 189.994506 
L 216.647669 151.363446 
L 208.804494 158.199067 
z
" style="fill:#4f1737;"/>
    <path clip-path="url(#pce24e63162)" d="M 256.530882 202.34441 
L 263.816264 195.163579 
L 277.271882 199.292348 
L 270.077576 206.554656 
z
" style="fill:#240254;"/>
    <path clip-path="url(#pce24e63162)" d="M 224.338378 183.050047 
L 224.338378 95.762755 
L 237.925205 99.427272 
L 237.351973 187.043183 
z
" style="fill:#64680e;"/>
    <path clip-path="url(#pce24e63162)" d="M 154.105465 198.994368 
L 167.010898 203.166503 
L 166.992905 202.547273 
L 154.083546 198.377322 
z
" style="fill:#0e0678;"/>
    <path clip-path="url(#pce24e63162)" d="M 237.351973 187.043183 
L 237.791197 119.909863 
L 251.398879 123.698108 
L 250.510457 191.080779 
z
" style="fill:#684119;"/>
    <path clip-path="url(#pce24e63162)" d="M 203.841786 185.968896 
L 216.794403 189.994506 
L 216.513496 116.039576 
L 203.082951 112.288875 
z
" style="fill:#e0a327;"/>
    <path clip-path="url(#pce24e63162)" d="M 167.010898 203.166503 
L 175.173234 195.969799 
L 188.144156 200.107676 
L 180.063228 207.386128 
z
" style="fill:#0e034b;"/>
    <path clip-path="url(#pce24e63162)" d="M 196.068846 192.969946 
L 209.103753 197.073984 
L 208.804494 158.199067 
L 195.516697 154.236079 
z
" style="fill:#a83175;"/>
    <path clip-path="url(#pce24e63162)" d="M 166.954722 201.233205 
L 180.019595 205.445975 
L 188.108835 198.179377 
L 175.125525 194.048302 
z
" style="fill:#15056c;"/>
    <path clip-path="url(#pce24e63162)" d="M 216.794403 189.994506 
L 216.460688 102.136855 
L 224.338378 95.762755 
L 224.338378 183.050047 
z
" style="fill:#d4dc1e;"/>
    <path clip-path="url(#pce24e63162)" d="M 201.262108 204.292457 
L 209.103753 197.073984 
L 222.285805 201.224351 
L 214.529606 208.524945 
z
" style="fill:#6d2640;"/>
    <path clip-path="url(#pce24e63162)" d="M 229.891821 194.06512 
L 230.081132 126.499059 
L 237.791197 119.909863 
L 237.351973 187.043183 
z
" style="fill:#dd8a35;"/>
    <path clip-path="url(#pce24e63162)" d="M 188.144156 200.107676 
L 188.048039 194.860208 
L 201.200479 199.026345 
L 201.262108 204.292457 
z
" style="fill:#14023e;"/>
    <path clip-path="url(#pce24e63162)" d="M 201.262108 204.292457 
L 209.103753 197.073984 
L 208.993752 182.784388 
L 201.093839 189.914197 
z
" style="fill:#270045;"/>
    <path clip-path="url(#pce24e63162)" d="M 256.530882 202.34441 
L 263.816264 195.163579 
L 264.363728 167.692554 
L 256.981748 174.701218 
z
" style="fill:#3f0843;"/>
    <path clip-path="url(#pce24e63162)" d="M 235.617509 205.421836 
L 243.136481 198.181496 
L 256.530882 202.34441 
L 249.101427 209.667246 
z
" style="fill:#783534;"/>
    <path clip-path="url(#pce24e63162)" d="M 187.88173 185.780694 
L 201.093839 189.914197 
L 208.993752 182.784388 
L 195.865874 178.73121 
z
" style="fill:#47017f;"/>
    <path clip-path="url(#pce24e63162)" d="M 180.063228 207.386128 
L 188.144156 200.107676 
L 188.108835 198.179377 
L 180.019595 205.445975 
z
" style="fill:#0b033b;"/>
    <path clip-path="url(#pce24e63162)" d="M 256.677958 193.326982 
L 270.287735 197.505074 
L 277.512715 190.298365 
L 263.994867 186.201494 
z
" style="fill:#330379;"/>
    <path clip-path="url(#pce24e63162)" d="M 270.077576 206.554656 
L 277.271882 199.292348 
L 277.512715 190.298365 
L 270.287735 197.505074 
z
" style="fill:#1c0142;"/>
    <path clip-path="url(#pce24e63162)" d="M 180.063228 207.386128 
L 179.944489 202.106314 
L 188.048039 194.860208 
L 188.144156 200.107676 
z
" style="fill:#2a0484;"/>
    <path clip-path="url(#pce24e63162)" d="M 188.144156 200.107676 
L 201.262108 204.292457 
L 201.093839 189.914197 
L 187.88173 185.780694 
z
" style="fill:#520192;"/>
    <path clip-path="url(#pce24e63162)" d="M 243.136481 198.181496 
L 256.530882 202.34441 
L 256.981748 174.701218 
L 243.398254 170.637881 
z
" style="fill:#85108e;"/>
    <path clip-path="url(#pce24e63162)" d="M 167.010898 203.166503 
L 180.063228 207.386128 
L 180.019595 205.445975 
L 166.954722 201.233205 
z
" style="fill:#18057c;"/>
    <path clip-path="url(#pce24e63162)" d="M 216.794403 189.994506 
L 216.513436 116.023902 
L 230.099852 119.818042 
L 229.891821 194.06512 
z
" style="fill:#6a4d13;"/>
    <path clip-path="url(#pce24e63162)" d="M 195.516697 154.236079 
L 208.804494 158.199067 
L 216.647669 151.363446 
L 203.445362 147.477653 
z
" style="fill:#912b66;"/>
    <path clip-path="url(#pce24e63162)" d="M 180.063228 207.386128 
L 188.144156 200.107676 
L 201.262108 204.292457 
L 193.264978 211.654059 
z
" style="fill:#190350;"/>
    <path clip-path="url(#pce24e63162)" d="M 256.530882 202.34441 
L 270.077576 206.554656 
L 270.287735 197.505074 
L 256.677958 193.326982 
z
" style="fill:#3b038b;"/>
    <path clip-path="url(#pce24e63162)" d="M 229.891821 194.06512 
L 237.351973 187.043183 
L 237.925205 99.427272 
L 230.138917 105.875644 
z
" style="fill:#64680e;"/>
    <path clip-path="url(#pce24e63162)" d="M 243.398254 170.637881 
L 256.981748 174.701218 
L 264.363728 167.692554 
L 250.871353 163.70849 
z
" style="fill:#730e7b;"/>
    <path clip-path="url(#pce24e63162)" d="M 214.529606 208.524945 
L 222.285805 201.224351 
L 235.617509 205.421836 
L 227.94922 212.80596 
z
" style="fill:#845022;"/>
    <path clip-path="url(#pce24e63162)" d="M 243.136481 198.181496 
L 250.510457 191.080779 
L 251.398879 123.698108 
L 243.781017 130.36376 
z
" style="fill:#684119;"/>
    <path clip-path="url(#pce24e63162)" d="M 209.103753 197.073984 
L 208.530633 122.623563 
L 216.513436 116.023902 
L 216.794403 189.994506 
z
" style="fill:#e0a327;"/>
    <path clip-path="url(#pce24e63162)" d="M 209.103753 197.073984 
L 208.76804 153.463627 
L 222.240314 157.454375 
L 222.285805 201.224351 
z
" style="fill:#551e32;"/>
    <path clip-path="url(#pce24e63162)" d="M 179.944489 202.106314 
L 193.181166 206.355454 
L 201.200479 199.026345 
L 188.048039 194.860208 
z
" style="fill:#240473;"/>
    <path clip-path="url(#pce24e63162)" d="M 249.101427 209.667246 
L 256.530882 202.34441 
L 270.077576 206.554656 
L 262.740181 213.961405 
z
" style="fill:#3f015a;"/>
    <path clip-path="url(#pce24e63162)" d="M 216.794403 189.994506 
L 229.891821 194.06512 
L 230.138917 105.875644 
L 216.460688 102.136855 
z
" style="fill:#d4dc1e;"/>
    <path clip-path="url(#pce24e63162)" d="M 256.530882 202.34441 
L 256.859197 182.214961 
L 270.546726 186.352783 
L 270.077576 206.554656 
z
" style="fill:#310046;"/>
    <path clip-path="url(#pce24e63162)" d="M 229.891821 194.06512 
L 243.136481 198.181496 
L 243.781017 130.36376 
L 230.081132 126.499059 
z
" style="fill:#dd8a35;"/>
    <path clip-path="url(#pce24e63162)" d="M 210.907843 92.299225 
L 224.338378 95.922502 
L 232.060205 89.672941 
L 218.717589 86.120525 
z
" style="fill:#b8bf1a;"/>
    <path clip-path="url(#pce24e63162)" d="M 201.262108 204.292457 
L 200.748493 160.405123 
L 208.76804 153.463627 
L 209.103753 197.073984 
z
" style="fill:#b43f6a;"/>
    <path clip-path="url(#pce24e63162)" d="M 193.264978 211.654059 
L 201.262108 204.292457 
L 201.200479 199.026345 
L 193.181166 206.355454 
z
" style="fill:#14023e;"/>
    <path clip-path="url(#pce24e63162)" d="M 201.262108 204.292457 
L 201.071342 187.991894 
L 214.448053 192.165886 
L 214.529606 208.524945 
z
" style="fill:#2a0046;"/>
    <path clip-path="url(#pce24e63162)" d="M 224.338378 104.948076 
L 237.86487 108.649175 
L 245.463844 102.265421 
L 232.02703 98.636803 
z
" style="fill:#c19e1c;"/>
    <path clip-path="url(#pce24e63162)" d="M 249.101427 209.667246 
L 249.356496 189.412139 
L 256.859197 182.214961 
L 256.530882 202.34441 
z
" style="fill:#690195;"/>
    <path clip-path="url(#pce24e63162)" d="M 243.136481 198.181496 
L 243.632378 146.003449 
L 257.385053 149.974038 
L 256.530882 202.34441 
z
" style="fill:#5e2a29;"/>
    <path clip-path="url(#pce24e63162)" d="M 193.264978 211.654059 
L 201.262108 204.292457 
L 214.529606 208.524945 
L 206.61873 215.971129 
z
" style="fill:#360059;"/>
    <path clip-path="url(#pce24e63162)" d="M 229.891821 194.06512 
L 230.104374 118.204177 
L 243.860161 122.036188 
L 243.136481 198.181496 
z
" style="fill:#6a5011;"/>
    <path clip-path="url(#pce24e63162)" d="M 180.063228 207.386128 
L 193.264978 211.654059 
L 193.181166 206.355454 
L 179.944489 202.106314 
z
" style="fill:#2a0484;"/>
    <path clip-path="url(#pce24e63162)" d="M 193.264978 211.654059 
L 193.005534 195.252006 
L 201.071342 187.991894 
L 201.262108 204.292457 
z
" style="fill:#5a0094;"/>
    <path clip-path="url(#pce24e63162)" d="M 203.082951 112.288875 
L 216.513496 116.039576 
L 224.338378 109.570319 
L 210.995459 105.893212 
z
" style="fill:#c28d22;"/>
    <path clip-path="url(#pce24e63162)" d="M 227.94922 212.80596 
L 235.617509 205.421836 
L 249.101427 209.667246 
L 241.523583 217.136342 
z
" style="fill:#824926;"/>
    <path clip-path="url(#pce24e63162)" d="M 222.285805 201.224351 
L 229.891821 194.06512 
L 230.099852 119.818042 
L 222.208136 126.494859 
z
" style="fill:#6a4d13;"/>
    <path clip-path="url(#pce24e63162)" d="M 235.617509 205.421836 
L 235.918057 152.910051 
L 243.632378 146.003449 
L 243.136481 198.181496 
z
" style="fill:#c75856;"/>
    <path clip-path="url(#pce24e63162)" d="M 222.285805 201.224351 
L 222.206447 124.869899 
L 230.104374 118.204177 
L 229.891821 194.06512 
z
" style="fill:#e0aa24;"/>
    <path clip-path="url(#pce24e63162)" d="M 209.103753 197.073984 
L 222.285805 201.224351 
L 222.208136 126.494859 
L 208.530633 122.623563 
z
" style="fill:#e0a327;"/>
    <path clip-path="url(#pce24e63162)" d="M 214.529606 208.524945 
L 222.285805 201.224351 
L 222.240314 157.454375 
L 214.310017 164.476605 
z
" style="fill:#551e32;"/>
    <path clip-path="url(#pce24e63162)" d="M 262.740181 213.961405 
L 270.077576 206.554656 
L 270.546726 186.352783 
L 263.138028 193.633287 
z
" style="fill:#310046;"/>
    <path clip-path="url(#pce24e63162)" d="M 206.61873 215.971129 
L 214.529606 208.524945 
L 227.94922 212.80596 
L 220.127123 220.338193 
z
" style="fill:#661f46;"/>
    <path clip-path="url(#pce24e63162)" d="M 201.262108 204.292457 
L 214.529606 208.524945 
L 214.310017 164.476605 
L 200.748493 160.405123 
z
" style="fill:#b43f6a;"/>
    <path clip-path="url(#pce24e63162)" d="M 206.61873 215.971129 
L 214.529606 208.524945 
L 214.448053 192.165886 
L 206.469922 199.510114 
z
" style="fill:#2a0046;"/>
    <path clip-path="url(#pce24e63162)" d="M 241.523583 217.136342 
L 249.101427 209.667246 
L 262.740181 213.961405 
L 255.255385 221.516949 
z
" style="fill:#60184b;"/>
    <path clip-path="url(#pce24e63162)" d="M 249.101427 209.667246 
L 262.740181 213.961405 
L 263.138028 193.633287 
L 249.356496 189.412139 
z
" style="fill:#690195;"/>
    <path clip-path="url(#pce24e63162)" d="M 222.285805 201.224351 
L 222.217055 135.075709 
L 235.997519 139.026481 
L 235.617509 205.421836 
z
" style="fill:#673e1b;"/>
    <path clip-path="url(#pce24e63162)" d="M 249.356496 189.412139 
L 263.138028 193.633287 
L 270.546726 186.352783 
L 256.859197 182.214961 
z
" style="fill:#5b0181;"/>
    <path clip-path="url(#pce24e63162)" d="M 249.101427 209.667246 
L 256.530882 202.34441 
L 257.385053 149.974038 
L 249.765141 156.961438 
z
" style="fill:#5e2a29;"/>
    <path clip-path="url(#pce24e63162)" d="M 235.617509 205.421836 
L 243.136481 198.181496 
L 243.860161 122.036188 
L 236.056162 128.780359 
z
" style="fill:#6a5011;"/>
    <path clip-path="url(#pce24e63162)" d="M 193.005534 195.252006 
L 206.469922 199.510114 
L 214.448053 192.165886 
L 201.071342 187.991894 
z
" style="fill:#4e0080;"/>
    <path clip-path="url(#pce24e63162)" d="M 193.264978 211.654059 
L 206.61873 215.971129 
L 206.469922 199.510114 
L 193.005534 195.252006 
z
" style="fill:#5a0094;"/>
    <path clip-path="url(#pce24e63162)" d="M 214.529606 208.524945 
L 214.197708 141.948167 
L 222.217055 135.075709 
L 222.285805 201.224351 
z
" style="fill:#db8439;"/>
    <path clip-path="url(#pce24e63162)" d="M 230.081132 126.499059 
L 243.781017 130.36376 
L 251.398879 123.698108 
L 237.791197 119.909863 
z
" style="fill:#c0782e;"/>
    <path clip-path="url(#pce24e63162)" d="M 235.617509 205.421836 
L 249.101427 209.667246 
L 249.765141 156.961438 
L 235.918057 152.910051 
z
" style="fill:#c75856;"/>
    <path clip-path="url(#pce24e63162)" d="M 222.285805 201.224351 
L 235.617509 205.421836 
L 236.056162 128.780359 
L 222.206447 124.869899 
z
" style="fill:#e0aa24;"/>
    <path clip-path="url(#pce24e63162)" d="M 214.529606 208.524945 
L 214.33151 168.787982 
L 228.022571 172.923534 
L 227.94922 212.80596 
z
" style="fill:#501837;"/>
    <path clip-path="url(#pce24e63162)" d="M 249.101427 209.667246 
L 249.556173 173.555645 
L 263.449512 177.717959 
L 262.740181 213.961405 
z
" style="fill:#4b133b;"/>
    <path clip-path="url(#pce24e63162)" d="M 220.127123 220.338193 
L 227.94922 212.80596 
L 241.523583 217.136342 
L 233.792858 224.756123 
z
" style="fill:#743038;"/>
    <path clip-path="url(#pce24e63162)" d="M 200.748493 160.405123 
L 214.310017 164.476605 
L 222.240314 157.454375 
L 208.76804 153.463627 
z
" style="fill:#9c375c;"/>
    <path clip-path="url(#pce24e63162)" d="M 235.617509 205.421836 
L 235.978687 142.316936 
L 249.899056 146.32724 
L 249.101427 209.667246 
z
" style="fill:#66391e;"/>
    <path clip-path="url(#pce24e63162)" d="M 206.61873 215.971129 
L 206.257226 175.981772 
L 214.33151 168.787982 
L 214.529606 208.524945 
z
" style="fill:#a93374;"/>
    <path clip-path="url(#pce24e63162)" d="M 241.523583 217.136342 
L 241.84238 180.795978 
L 249.556173 173.555645 
L 249.101427 209.667246 
z
" style="fill:#9f287d;"/>
    <path clip-path="url(#pce24e63162)" d="M 216.460688 102.136855 
L 230.138917 105.875644 
L 237.925205 99.427272 
L 224.338378 95.762755 
z
" style="fill:#b8bf1a;"/>
    <path clip-path="url(#pce24e63162)" d="M 227.94922 212.80596 
L 228.066031 149.293078 
L 235.978687 142.316936 
L 235.617509 205.421836 
z
" style="fill:#d87940;"/>
    <path clip-path="url(#pce24e63162)" d="M 227.94922 212.80596 
L 235.617509 205.421836 
L 235.997519 139.026481 
L 228.072124 145.980242 
z
" style="fill:#673e1b;"/>
    <path clip-path="url(#pce24e63162)" d="M 208.530633 122.623563 
L 222.208136 126.494859 
L 230.099852 119.818042 
L 216.513436 116.023902 
z
" style="fill:#c28d22;"/>
    <path clip-path="url(#pce24e63162)" d="M 233.792858 224.756123 
L 241.523583 217.136342 
L 255.255385 221.516949 
L 247.618703 229.225814 
z
" style="fill:#682144;"/>
    <path clip-path="url(#pce24e63162)" d="M 214.529606 208.524945 
L 227.94922 212.80596 
L 228.072124 145.980242 
L 214.197708 141.948167 
z
" style="fill:#db8439;"/>
    <path clip-path="url(#pce24e63162)" d="M 235.918057 152.910051 
L 249.765141 156.961438 
L 257.385053 149.974038 
L 243.632378 146.003449 
z
" style="fill:#ac4d4b;"/>
    <path clip-path="url(#pce24e63162)" d="M 220.127123 220.338193 
L 227.94922 212.80596 
L 228.022571 172.923534 
L 220.0407 180.202158 
z
" style="fill:#501837;"/>
    <path clip-path="url(#pce24e63162)" d="M 227.94922 212.80596 
L 228.041059 162.870764 
L 241.96326 167.016657 
L 241.523583 217.136342 
z
" style="fill:#5b262c;"/>
    <path clip-path="url(#pce24e63162)" d="M 255.255385 221.516949 
L 262.740181 213.961405 
L 263.449512 177.717959 
L 255.832306 185.043651 
z
" style="fill:#4b133b;"/>
    <path clip-path="url(#pce24e63162)" d="M 241.523583 217.136342 
L 249.101427 209.667246 
L 249.899056 146.32724 
L 242.082834 153.386266 
z
" style="fill:#66391e;"/>
    <path clip-path="url(#pce24e63162)" d="M 206.61873 215.971129 
L 220.127123 220.338193 
L 220.0407 180.202158 
L 206.257226 175.981772 
z
" style="fill:#a93374;"/>
    <path clip-path="url(#pce24e63162)" d="M 220.127123 220.338193 
L 220.018911 170.082882 
L 228.041059 162.870764 
L 227.94922 212.80596 
z
" style="fill:#c1505c;"/>
    <path clip-path="url(#pce24e63162)" d="M 241.523583 217.136342 
L 255.255385 221.516949 
L 255.832306 185.043651 
L 241.84238 180.795978 
z
" style="fill:#9f287d;"/>
    <path clip-path="url(#pce24e63162)" d="M 227.94922 212.80596 
L 241.523583 217.136342 
L 242.082834 153.386266 
L 228.066031 149.293078 
z
" style="fill:#d87940;"/>
    <path clip-path="url(#pce24e63162)" d="M 241.523583 217.136342 
L 241.883074 176.157204 
L 255.905958 180.387344 
L 255.255385 221.516949 
z
" style="fill:#511a35;"/>
    <path clip-path="url(#pce24e63162)" d="M 222.206447 124.869899 
L 236.056162 128.780359 
L 243.860161 122.036188 
L 230.104374 118.204177 
z
" style="fill:#c29320;"/>
    <path clip-path="url(#pce24e63162)" d="M 233.792858 224.756123 
L 233.992671 183.515919 
L 241.883074 176.157204 
L 241.523583 217.136342 
z
" style="fill:#ac3671;"/>
    <path clip-path="url(#pce24e63162)" d="M 241.84238 180.795978 
L 255.832306 185.043651 
L 263.449512 177.717959 
L 249.556173 173.555645 
z
" style="fill:#8a236c;"/>
    <path clip-path="url(#pce24e63162)" d="M 206.257226 175.981772 
L 220.0407 180.202158 
L 228.022571 172.923534 
L 214.33151 168.787982 
z
" style="fill:#932c64;"/>
    <path clip-path="url(#pce24e63162)" d="M 233.792858 224.756123 
L 241.523583 217.136342 
L 241.96326 167.016657 
L 234.037251 174.314765 
z
" style="fill:#5b262c;"/>
    <path clip-path="url(#pce24e63162)" d="M 214.197708 141.948167 
L 228.072124 145.980242 
L 235.997519 139.026481 
L 222.217055 135.075709 
z
" style="fill:#be7331;"/>
    <path clip-path="url(#pce24e63162)" d="M 220.127123 220.338193 
L 233.792858 224.756123 
L 234.037251 174.314765 
L 220.018911 170.082882 
z
" style="fill:#c1505c;"/>
    <path clip-path="url(#pce24e63162)" d="M 247.618703 229.225814 
L 255.255385 221.516949 
L 255.905958 180.387344 
L 248.113656 187.833916 
z
" style="fill:#511a35;"/>
    <path clip-path="url(#pce24e63162)" d="M 233.792858 224.756123 
L 247.618703 229.225814 
L 248.113656 187.833916 
L 233.992671 183.515919 
z
" style="fill:#ac3671;"/>
    <path clip-path="url(#pce24e63162)" d="M 228.066031 149.293078 
L 242.082834 153.386266 
L 249.899056 146.32724 
L 235.978687 142.316936 
z
" style="fill:#bb6937;"/>
    <path clip-path="url(#pce24e63162)" d="M 220.018911 170.082882 
L 234.037251 174.314765 
L 241.96326 167.016657 
L 228.041059 162.870764 
z
" style="fill:#a74650;"/>
    <path clip-path="url(#pce24e63162)" d="M 233.992671 183.515919 
L 248.113656 187.833916 
L 255.905958 180.387344 
L 241.883074 176.157204 
z
" style="fill:#952f62;"/>
   </g>
   <g id="text_17">
    <!-- W15__H15__A300_bars_extracted.txt -->
    <g transform="translate(110.101875 28.56)scale(0.12 -0.12)">
     <defs>
      <path d="M 3.328125 72.90625 
L 13.28125 72.90625 
L 28.609375 11.28125 
L 43.890625 72.90625 
L 54.984375 72.90625 
L 70.3125 11.28125 
L 85.59375 72.90625 
L 95.609375 72.90625 
L 77.296875 0 
L 64.890625 0 
L 49.515625 63.28125 
L 33.984375 0 
L 21.578125 0 
z
" id="DejaVuSans-87"/>
      <path d="M 50.984375 -16.609375 
L 50.984375 -23.578125 
L -0.984375 -23.578125 
L -0.984375 -16.609375 
z
" id="DejaVuSans-95"/>
      <path d="M 9.8125 72.90625 
L 19.671875 72.90625 
L 19.671875 43.015625 
L 55.515625 43.015625 
L 55.515625 72.90625 
L 65.375 72.90625 
L 65.375 0 
L 55.515625 0 
L 55.515625 34.71875 
L 19.671875 34.71875 
L 19.671875 0 
L 9.8125 0 
z
" id="DejaVuSans-72"/>
      <path d="M 34.1875 63.1875 
L 20.796875 26.90625 
L 47.609375 26.90625 
z
M 28.609375 72.90625 
L 39.796875 72.90625 
L 67.578125 0 
L 57.328125 0 
L 50.6875 18.703125 
L 17.828125 18.703125 
L 11.1875 0 
L 0.78125 0 
z
" id="DejaVuSans-65"/>
      <path d="M 48.6875 27.296875 
Q 48.6875 37.203125 44.609375 42.84375 
Q 40.53125 48.484375 33.40625 48.484375 
Q 26.265625 48.484375 22.1875 42.84375 
Q 18.109375 37.203125 18.109375 27.296875 
Q 18.109375 17.390625 22.1875 11.75 
Q 26.265625 6.109375 33.40625 6.109375 
Q 40.53125 6.109375 44.609375 11.75 
Q 48.6875 17.390625 48.6875 27.296875 
z
M 18.109375 46.390625 
Q 20.953125 51.265625 25.265625 53.625 
Q 29.59375 56 35.59375 56 
Q 45.5625 56 51.78125 48.09375 
Q 58.015625 40.1875 58.015625 27.296875 
Q 58.015625 14.40625 51.78125 6.484375 
Q 45.5625 -1.421875 35.59375 -1.421875 
Q 29.59375 -1.421875 25.265625 0.953125 
Q 20.953125 3.328125 18.109375 8.203125 
L 18.109375 0 
L 9.078125 0 
L 9.078125 75.984375 
L 18.109375 75.984375 
z
" id="DejaVuSans-98"/>
      <path d="M 34.28125 27.484375 
Q 23.390625 27.484375 19.1875 25 
Q 14.984375 22.515625 14.984375 16.5 
Q 14.984375 11.71875 18.140625 8.90625 
Q 21.296875 6.109375 26.703125 6.109375 
Q 34.1875 6.109375 38.703125 11.40625 
Q 43.21875 16.703125 43.21875 25.484375 
L 43.21875 27.484375 
z
M 52.203125 31.203125 
L 52.203125 0 
L 43.21875 0 
L 43.21875 8.296875 
Q 40.140625 3.328125 35.546875 0.953125 
Q 30.953125 -1.421875 24.3125 -1.421875 
Q 15.921875 -1.421875 10.953125 3.296875 
Q 6 8.015625 6 15.921875 
Q 6 25.140625 12.171875 29.828125 
Q 18.359375 34.515625 30.609375 34.515625 
L 43.21875 34.515625 
L 43.21875 35.40625 
Q 43.21875 41.609375 39.140625 45 
Q 35.0625 48.390625 27.6875 48.390625 
Q 23 48.390625 18.546875 47.265625 
Q 14.109375 46.140625 10.015625 43.890625 
L 10.015625 52.203125 
Q 14.9375 54.109375 19.578125 55.046875 
Q 24.21875 56 28.609375 56 
Q 40.484375 56 46.34375 49.84375 
Q 52.203125 43.703125 52.203125 31.203125 
z
" id="DejaVuSans-97"/>
      <path d="M 41.109375 46.296875 
Q 39.59375 47.171875 37.8125 47.578125 
Q 36.03125 48 33.890625 48 
Q 26.265625 48 22.1875 43.046875 
Q 18.109375 38.09375 18.109375 28.8125 
L 18.109375 0 
L 9.078125 0 
L 9.078125 54.6875 
L 18.109375 54.6875 
L 18.109375 46.1875 
Q 20.953125 51.171875 25.484375 53.578125 
Q 30.03125 56 36.53125 56 
Q 37.453125 56 38.578125 55.875 
Q 39.703125 55.765625 41.0625 55.515625 
z
" id="DejaVuSans-114"/>
      <path d="M 44.28125 53.078125 
L 44.28125 44.578125 
Q 40.484375 46.53125 36.375 47.5 
Q 32.28125 48.484375 27.875 48.484375 
Q 21.1875 48.484375 17.84375 46.4375 
Q 14.5 44.390625 14.5 40.28125 
Q 14.5 37.15625 16.890625 35.375 
Q 19.28125 33.59375 26.515625 31.984375 
L 29.59375 31.296875 
Q 39.15625 29.25 43.1875 25.515625 
Q 47.21875 21.78125 47.21875 15.09375 
Q 47.21875 7.46875 41.1875 3.015625 
Q 35.15625 -1.421875 24.609375 -1.421875 
Q 20.21875 -1.421875 15.453125 -0.5625 
Q 10.6875 0.296875 5.421875 2 
L 5.421875 11.28125 
Q 10.40625 8.6875 15.234375 7.390625 
Q 20.0625 6.109375 24.8125 6.109375 
Q 31.15625 6.109375 34.5625 8.28125 
Q 37.984375 10.453125 37.984375 14.40625 
Q 37.984375 18.0625 35.515625 20.015625 
Q 33.0625 21.96875 24.703125 23.78125 
L 21.578125 24.515625 
Q 13.234375 26.265625 9.515625 29.90625 
Q 5.8125 33.546875 5.8125 39.890625 
Q 5.8125 47.609375 11.28125 51.796875 
Q 16.75 56 26.8125 56 
Q 31.78125 56 36.171875 55.265625 
Q 40.578125 54.546875 44.28125 53.078125 
z
" id="DejaVuSans-115"/>
      <path d="M 56.203125 29.59375 
L 56.203125 25.203125 
L 14.890625 25.203125 
Q 15.484375 15.921875 20.484375 11.0625 
Q 25.484375 6.203125 34.421875 6.203125 
Q 39.59375 6.203125 44.453125 7.46875 
Q 49.3125 8.734375 54.109375 11.28125 
L 54.109375 2.78125 
Q 49.265625 0.734375 44.1875 -0.34375 
Q 39.109375 -1.421875 33.890625 -1.421875 
Q 20.796875 -1.421875 13.15625 6.1875 
Q 5.515625 13.8125 5.515625 26.8125 
Q 5.515625 40.234375 12.765625 48.109375 
Q 20.015625 56 32.328125 56 
Q 43.359375 56 49.78125 48.890625 
Q 56.203125 41.796875 56.203125 29.59375 
z
M 47.21875 32.234375 
Q 47.125 39.59375 43.09375 43.984375 
Q 39.0625 48.390625 32.421875 48.390625 
Q 24.90625 48.390625 20.390625 44.140625 
Q 15.875 39.890625 15.1875 32.171875 
z
" id="DejaVuSans-101"/>
      <path d="M 54.890625 54.6875 
L 35.109375 28.078125 
L 55.90625 0 
L 45.3125 0 
L 29.390625 21.484375 
L 13.484375 0 
L 2.875 0 
L 24.125 28.609375 
L 4.6875 54.6875 
L 15.28125 54.6875 
L 29.78125 35.203125 
L 44.28125 54.6875 
z
" id="DejaVuSans-120"/>
      <path d="M 18.3125 70.21875 
L 18.3125 54.6875 
L 36.8125 54.6875 
L 36.8125 47.703125 
L 18.3125 47.703125 
L 18.3125 18.015625 
Q 18.3125 11.328125 20.140625 9.421875 
Q 21.96875 7.515625 27.59375 7.515625 
L 36.8125 7.515625 
L 36.8125 0 
L 27.59375 0 
Q 17.1875 0 13.234375 3.875 
Q 9.28125 7.765625 9.28125 18.015625 
L 9.28125 47.703125 
L 2.6875 47.703125 
L 2.6875 54.6875 
L 9.28125 54.6875 
L 9.28125 70.21875 
z
" id="DejaVuSans-116"/>
      <path d="M 48.78125 52.59375 
L 48.78125 44.1875 
Q 44.96875 46.296875 41.140625 47.34375 
Q 37.3125 48.390625 33.40625 48.390625 
Q 24.65625 48.390625 19.8125 42.84375 
Q 14.984375 37.3125 14.984375 27.296875 
Q 14.984375 17.28125 19.8125 11.734375 
Q 24.65625 6.203125 33.40625 6.203125 
Q 37.3125 6.203125 41.140625 7.25 
Q 44.96875 8.296875 48.78125 10.40625 
L 48.78125 2.09375 
Q 45.015625 0.34375 40.984375 -0.53125 
Q 36.96875 -1.421875 32.421875 -1.421875 
Q 20.0625 -1.421875 12.78125 6.34375 
Q 5.515625 14.109375 5.515625 27.296875 
Q 5.515625 40.671875 12.859375 48.328125 
Q 20.21875 56 33.015625 56 
Q 37.15625 56 41.109375 55.140625 
Q 45.0625 54.296875 48.78125 52.59375 
z
" id="DejaVuSans-99"/>
      <path d="M 45.40625 46.390625 
L 45.40625 75.984375 
L 54.390625 75.984375 
L 54.390625 0 
L 45.40625 0 
L 45.40625 8.203125 
Q 42.578125 3.328125 38.25 0.953125 
Q 33.9375 -1.421875 27.875 -1.421875 
Q 17.96875 -1.421875 11.734375 6.484375 
Q 5.515625 14.40625 5.515625 27.296875 
Q 5.515625 40.1875 11.734375 48.09375 
Q 17.96875 56 27.875 56 
Q 33.9375 56 38.25 53.625 
Q 42.578125 51.265625 45.40625 46.390625 
z
M 14.796875 27.296875 
Q 14.796875 17.390625 18.875 11.75 
Q 22.953125 6.109375 30.078125 6.109375 
Q 37.203125 6.109375 41.296875 11.75 
Q 45.40625 17.390625 45.40625 27.296875 
Q 45.40625 37.203125 41.296875 42.84375 
Q 37.203125 48.484375 30.078125 48.484375 
Q 22.953125 48.484375 18.875 42.84375 
Q 14.796875 37.203125 14.796875 27.296875 
z
" id="DejaVuSans-100"/>
      <path d="M 10.6875 12.40625 
L 21 12.40625 
L 21 0 
L 10.6875 0 
z
" id="DejaVuSans-46"/>
     </defs>
     <use xlink:href="#DejaVuSans-87"/>
     <use x="98.876953" xlink:href="#DejaVuSans-49"/>
     <use x="162.5" xlink:href="#DejaVuSans-53"/>
     <use x="226.123047" xlink:href="#DejaVuSans-95"/>
     <use x="276.123047" xlink:href="#DejaVuSans-95"/>
     <use x="326.123047" xlink:href="#DejaVuSans-72"/>
     <use x="401.318359" xlink:href="#DejaVuSans-49"/>
     <use x="464.941406" xlink:href="#DejaVuSans-53"/>
     <use x="528.564453" xlink:href="#DejaVuSans-95"/>
     <use x="578.564453" xlink:href="#DejaVuSans-95"/>
     <use x="628.564453" xlink:href="#DejaVuSans-65"/>
     <use x="696.972656" xlink:href="#DejaVuSans-51"/>
     <use x="760.595703" xlink:href="#DejaVuSans-48"/>
     <use x="824.21875" xlink:href="#DejaVuSans-48"/>
     <use x="887.841797" xlink:href="#DejaVuSans-95"/>
     <use x="937.841797" xlink:href="#DejaVuSans-98"/>
     <use x="1001.318359" xlink:href="#DejaVuSans-97"/>
     <use x="1062.597656" xlink:href="#DejaVuSans-114"/>
     <use x="1103.710938" xlink:href="#DejaVuSans-115"/>
     <use x="1155.810547" xlink:href="#DejaVuSans-95"/>
     <use x="1205.810547" xlink:href="#DejaVuSans-101"/>
     <use x="1265.583984" xlink:href="#DejaVuSans-120"/>
     <use x="1324.763672" xlink:href="#DejaVuSans-116"/>
     <use x="1363.972656" xlink:href="#DejaVuSans-114"/>
     <use x="1405.085938" xlink:href="#DejaVuSans-97"/>
     <use x="1466.365234" xlink:href="#DejaVuSans-99"/>
     <use x="1521.345703" xlink:href="#DejaVuSans-116"/>
     <use x="1560.554688" xlink:href="#DejaVuSans-101"/>
     <use x="1622.078125" xlink:href="#DejaVuSans-100"/>
     <use x="1685.554688" xlink:href="#DejaVuSans-46"/>
     <use x="1717.341797" xlink:href="#DejaVuSans-116"/>
     <use x="1756.550781" xlink:href="#DejaVuSans-120"/>
     <use x="1815.730469" xlink:href="#DejaVuSans-116"/>
    </g>
   </g>
  </g>
 </g>
 <defs>
  <clipPath id="pce24e63162">
   <rect height="217.44" width="217.44" x="112.68" y="34.56"/>
  </clipPath>
 </defs>
</svg>
