<?xml version="1.0" encoding="utf-8" standalone="no"?>
<!DOCTYPE svg PUBLIC "-//W3C//DTD SVG 1.1//EN"
  "http://www.w3.org/Graphics/SVG/1.1/DTD/svg11.dtd">
<!-- Created with matplotlib (https://matplotlib.org/) -->
<svg height="288pt" version="1.1" viewBox="0 0 432 288" width="432pt" xmlns="http://www.w3.org/2000/svg" xmlns:xlink="http://www.w3.org/1999/xlink">
 <metadata>
  <rdf:RDF xmlns:cc="http://creativecommons.org/ns#" xmlns:dc="http://purl.org/dc/elements/1.1/" xmlns:rdf="http://www.w3.org/1999/02/22-rdf-syntax-ns#">
   <cc:Work>
    <dc:type rdf:resource="http://purl.org/dc/dcmitype/StillImage"/>
    <dc:date>2021-06-13T21:57:05.950616</dc:date>
    <dc:format>image/svg+xml</dc:format>
    <dc:creator>
     <cc:Agent>
      <dc:title>Matplotlib v3.3.4, https://matplotlib.org/</dc:title>
     </cc:Agent>
    </dc:creator>
   </cc:Work>
  </rdf:RDF>
 </metadata>
 <defs>
  <style type="text/css">*{stroke-linecap:butt;stroke-linejoin:round;}</style>
 </defs>
 <g id="figure_1">
  <g id="patch_1">
   <path d="M 0 288 
L 432 288 
L 432 0 
L 0 0 
z
" style="fill:#ffffff;"/>
  </g>
  <g id="patch_2">
   <path d="M 112.68 252 
L 330.12 252 
L 330.12 34.56 
L 112.68 34.56 
z
" style="fill:#ffffff;"/>
  </g>
  <g id="pane3d_1">
   <g id="patch_3">
    <path d="M 129.09822 198.386264 
L 200.904009 138.197228 
L 199.90584 51.393878 
L 124.663773 106.302111 
" style="fill:#f2f2f2;opacity:0.5;stroke:#f2f2f2;stroke-linejoin:miter;"/>
   </g>
  </g>
  <g id="pane3d_2">
   <g id="patch_4">
    <path d="M 200.904009 138.197228 
L 316.12668 171.68791 
L 320.238571 81.894718 
L 199.90584 51.393878 
" style="fill:#e6e6e6;opacity:0.5;stroke:#e6e6e6;stroke-linejoin:miter;"/>
   </g>
  </g>
  <g id="pane3d_3">
   <g id="patch_5">
    <path d="M 129.09822 198.386264 
L 251.239879 238.27773 
L 316.12668 171.68791 
L 200.904009 138.197228 
" style="fill:#ececec;opacity:0.5;stroke:#ececec;stroke-linejoin:miter;"/>
   </g>
  </g>
  <g id="axis3d_1">
   <g id="line2d_1">
    <path d="M 129.09822 198.386264 
L 251.239879 238.27773 
" style="fill:none;stroke:#000000;stroke-linecap:square;stroke-width:0.8;"/>
   </g>
   <g id="Line3DCollection_1">
    <path d="M 136.495759 200.802301 
L 207.911499 140.234029 
L 207.209612 53.245171 
" style="fill:none;stroke:#b0b0b0;stroke-width:0.8;"/>
    <path d="M 162.23134 209.207541 
L 232.260894 147.311436 
L 232.60309 59.681678 
" style="fill:none;stroke:#b0b0b0;stroke-width:0.8;"/>
    <path d="M 188.559037 217.806167 
L 257.123632 154.538053 
L 258.555303 66.259807 
" style="fill:none;stroke:#b0b0b0;stroke-width:0.8;"/>
    <path d="M 215.499525 226.604931 
L 282.516121 161.918647 
L 285.084894 72.984285 
" style="fill:none;stroke:#b0b0b0;stroke-width:0.8;"/>
    <path d="M 243.074449 235.610901 
L 308.455474 169.458193 
L 312.21135 79.860051 
" style="fill:none;stroke:#b0b0b0;stroke-width:0.8;"/>
   </g>
   <g id="xtick_1">
    <g id="line2d_2">
     <path d="M 137.117644 200.274876 
L 135.249322 201.859414 
" style="fill:none;stroke:#000000;stroke-linecap:square;stroke-width:0.8;"/>
    </g>
    <g id="text_1">
     <!-- 0 -->
     <g transform="translate(125.77919 224.124533)scale(0.1 -0.1)">
      <defs>
       <path d="M 31.78125 66.40625 
Q 24.171875 66.40625 20.328125 58.90625 
Q 16.5 51.421875 16.5 36.375 
Q 16.5 21.390625 20.328125 13.890625 
Q 24.171875 6.390625 31.78125 6.390625 
Q 39.453125 6.390625 43.28125 13.890625 
Q 47.125 21.390625 47.125 36.375 
Q 47.125 51.421875 43.28125 58.90625 
Q 39.453125 66.40625 31.78125 66.40625 
z
M 31.78125 74.21875 
Q 44.046875 74.21875 50.515625 64.515625 
Q 56.984375 54.828125 56.984375 36.375 
Q 56.984375 17.96875 50.515625 8.265625 
Q 44.046875 -1.421875 31.78125 -1.421875 
Q 19.53125 -1.421875 13.0625 8.265625 
Q 6.59375 17.96875 6.59375 36.375 
Q 6.59375 54.828125 13.0625 64.515625 
Q 19.53125 74.21875 31.78125 74.21875 
z
" id="DejaVuSans-48"/>
      </defs>
      <use xlink:href="#DejaVuSans-48"/>
     </g>
    </g>
   </g>
   <g id="xtick_2">
    <g id="line2d_3">
     <path d="M 162.841716 208.668056 
L 161.007937 210.288854 
" style="fill:none;stroke:#000000;stroke-linecap:square;stroke-width:0.8;"/>
    </g>
    <g id="text_2">
     <!-- 2 -->
     <g transform="translate(151.547192 232.748132)scale(0.1 -0.1)">
      <defs>
       <path d="M 19.1875 8.296875 
L 53.609375 8.296875 
L 53.609375 0 
L 7.328125 0 
L 7.328125 8.296875 
Q 12.9375 14.109375 22.625 23.890625 
Q 32.328125 33.6875 34.8125 36.53125 
Q 39.546875 41.84375 41.421875 45.53125 
Q 43.3125 49.21875 43.3125 52.78125 
Q 43.3125 58.59375 39.234375 62.25 
Q 35.15625 65.921875 28.609375 65.921875 
Q 23.96875 65.921875 18.8125 64.3125 
Q 13.671875 62.703125 7.8125 59.421875 
L 7.8125 69.390625 
Q 13.765625 71.78125 18.9375 73 
Q 24.125 74.21875 28.421875 74.21875 
Q 39.75 74.21875 46.484375 68.546875 
Q 53.21875 62.890625 53.21875 53.421875 
Q 53.21875 48.921875 51.53125 44.890625 
Q 49.859375 40.875 45.40625 35.40625 
Q 44.1875 33.984375 37.640625 27.21875 
Q 31.109375 20.453125 19.1875 8.296875 
z
" id="DejaVuSans-50"/>
      </defs>
      <use xlink:href="#DejaVuSans-50"/>
     </g>
    </g>
   </g>
   <g id="xtick_3">
    <g id="line2d_4">
     <path d="M 189.15721 217.254202 
L 187.360066 218.91252 
" style="fill:none;stroke:#000000;stroke-linecap:square;stroke-width:0.8;"/>
    </g>
    <g id="text_3">
     <!-- 4 -->
     <g transform="translate(177.91082 241.571064)scale(0.1 -0.1)">
      <defs>
       <path d="M 37.796875 64.3125 
L 12.890625 25.390625 
L 37.796875 25.390625 
z
M 35.203125 72.90625 
L 47.609375 72.90625 
L 47.609375 25.390625 
L 58.015625 25.390625 
L 58.015625 17.1875 
L 47.609375 17.1875 
L 47.609375 0 
L 37.796875 0 
L 37.796875 17.1875 
L 4.890625 17.1875 
L 4.890625 26.703125 
z
" id="DejaVuSans-52"/>
      </defs>
      <use xlink:href="#DejaVuSans-52"/>
     </g>
    </g>
   </g>
   <g id="xtick_4">
    <g id="line2d_5">
     <path d="M 216.084757 226.040048 
L 214.326462 227.737204 
" style="fill:none;stroke:#000000;stroke-linecap:square;stroke-width:0.8;"/>
    </g>
    <g id="text_4">
     <!-- 6 -->
     <g transform="translate(204.890965 250.600322)scale(0.1 -0.1)">
      <defs>
       <path d="M 33.015625 40.375 
Q 26.375 40.375 22.484375 35.828125 
Q 18.609375 31.296875 18.609375 23.390625 
Q 18.609375 15.53125 22.484375 10.953125 
Q 26.375 6.390625 33.015625 6.390625 
Q 39.65625 6.390625 43.53125 10.953125 
Q 47.40625 15.53125 47.40625 23.390625 
Q 47.40625 31.296875 43.53125 35.828125 
Q 39.65625 40.375 33.015625 40.375 
z
M 52.59375 71.296875 
L 52.59375 62.3125 
Q 48.875 64.0625 45.09375 64.984375 
Q 41.3125 65.921875 37.59375 65.921875 
Q 27.828125 65.921875 22.671875 59.328125 
Q 17.53125 52.734375 16.796875 39.40625 
Q 19.671875 43.65625 24.015625 45.921875 
Q 28.375 48.1875 33.59375 48.1875 
Q 44.578125 48.1875 50.953125 41.515625 
Q 57.328125 34.859375 57.328125 23.390625 
Q 57.328125 12.15625 50.6875 5.359375 
Q 44.046875 -1.421875 33.015625 -1.421875 
Q 20.359375 -1.421875 13.671875 8.265625 
Q 6.984375 17.96875 6.984375 36.375 
Q 6.984375 53.65625 15.1875 63.9375 
Q 23.390625 74.21875 37.203125 74.21875 
Q 40.921875 74.21875 44.703125 73.484375 
Q 48.484375 72.75 52.59375 71.296875 
z
" id="DejaVuSans-54"/>
      </defs>
      <use xlink:href="#DejaVuSans-54"/>
     </g>
    </g>
   </g>
   <g id="xtick_5">
    <g id="line2d_6">
     <path d="M 243.645962 235.032643 
L 241.928856 236.770015 
" style="fill:none;stroke:#000000;stroke-linecap:square;stroke-width:0.8;"/>
    </g>
    <g id="text_5">
     <!-- 8 -->
     <g transform="translate(232.509511 259.84323)scale(0.1 -0.1)">
      <defs>
       <path d="M 31.78125 34.625 
Q 24.75 34.625 20.71875 30.859375 
Q 16.703125 27.09375 16.703125 20.515625 
Q 16.703125 13.921875 20.71875 10.15625 
Q 24.75 6.390625 31.78125 6.390625 
Q 38.8125 6.390625 42.859375 10.171875 
Q 46.921875 13.96875 46.921875 20.515625 
Q 46.921875 27.09375 42.890625 30.859375 
Q 38.875 34.625 31.78125 34.625 
z
M 21.921875 38.8125 
Q 15.578125 40.375 12.03125 44.71875 
Q 8.5 49.078125 8.5 55.328125 
Q 8.5 64.0625 14.71875 69.140625 
Q 20.953125 74.21875 31.78125 74.21875 
Q 42.671875 74.21875 48.875 69.140625 
Q 55.078125 64.0625 55.078125 55.328125 
Q 55.078125 49.078125 51.53125 44.71875 
Q 48 40.375 41.703125 38.8125 
Q 48.828125 37.15625 52.796875 32.3125 
Q 56.78125 27.484375 56.78125 20.515625 
Q 56.78125 9.90625 50.3125 4.234375 
Q 43.84375 -1.421875 31.78125 -1.421875 
Q 19.734375 -1.421875 13.25 4.234375 
Q 6.78125 9.90625 6.78125 20.515625 
Q 6.78125 27.484375 10.78125 32.3125 
Q 14.796875 37.15625 21.921875 38.8125 
z
M 18.3125 54.390625 
Q 18.3125 48.734375 21.84375 45.5625 
Q 25.390625 42.390625 31.78125 42.390625 
Q 38.140625 42.390625 41.71875 45.5625 
Q 45.3125 48.734375 45.3125 54.390625 
Q 45.3125 60.0625 41.71875 63.234375 
Q 38.140625 66.40625 31.78125 66.40625 
Q 25.390625 66.40625 21.84375 63.234375 
Q 18.3125 60.0625 18.3125 54.390625 
z
" id="DejaVuSans-56"/>
      </defs>
      <use xlink:href="#DejaVuSans-56"/>
     </g>
    </g>
   </g>
  </g>
  <g id="axis3d_2">
   <g id="line2d_7">
    <path d="M 316.12668 171.68791 
L 251.239879 238.27773 
" style="fill:none;stroke:#000000;stroke-linecap:square;stroke-width:0.8;"/>
   </g>
   <g id="Line3DCollection_2">
    <path d="M 129.866948 102.505071 
L 134.046245 194.238731 
L 255.729543 233.67023 
" style="fill:none;stroke:#b0b0b0;stroke-width:0.8;"/>
    <path d="M 147.250212 89.819556 
L 150.59591 180.366474 
L 270.72626 218.279909 
" style="fill:none;stroke:#b0b0b0;stroke-width:0.8;"/>
    <path d="M 163.958537 77.626582 
L 166.530371 167.009893 
L 285.136664 203.491289 
" style="fill:none;stroke:#b0b0b0;stroke-width:0.8;"/>
    <path d="M 180.030483 65.898008 
L 181.883306 154.140758 
L 298.994481 189.269761 
" style="fill:none;stroke:#b0b0b0;stroke-width:0.8;"/>
    <path d="M 195.501727 54.607799 
L 196.68598 141.732864 
L 312.330896 175.583317 
" style="fill:none;stroke:#b0b0b0;stroke-width:0.8;"/>
   </g>
   <g id="xtick_6">
    <g id="line2d_8">
     <path d="M 254.704115 233.337939 
L 257.783053 234.33567 
" style="fill:none;stroke:#000000;stroke-linecap:square;stroke-width:0.8;"/>
    </g>
    <g id="text_6">
     <!-- 0 -->
     <g transform="translate(265.430654 254.693759)scale(0.1 -0.1)">
      <use xlink:href="#DejaVuSans-48"/>
     </g>
    </g>
   </g>
   <g id="xtick_7">
    <g id="line2d_9">
     <path d="M 269.71494 217.960734 
L 272.751463 218.919068 
" style="fill:none;stroke:#000000;stroke-linecap:square;stroke-width:0.8;"/>
    </g>
    <g id="text_7">
     <!-- 2 -->
     <g transform="translate(280.181112 239.024526)scale(0.1 -0.1)">
      <use xlink:href="#DejaVuSans-50"/>
     </g>
    </g>
   </g>
   <g id="xtick_8">
    <g id="line2d_10">
     <path d="M 284.139145 203.184468 
L 287.134182 204.105694 
" style="fill:none;stroke:#000000;stroke-linecap:square;stroke-width:0.8;"/>
    </g>
    <g id="text_8">
     <!-- 4 -->
     <g transform="translate(294.35448 223.968328)scale(0.1 -0.1)">
      <use xlink:href="#DejaVuSans-52"/>
     </g>
    </g>
   </g>
   <g id="xtick_9">
    <g id="line2d_11">
     <path d="M 298.010457 188.97459 
L 300.964927 189.860821 
" style="fill:none;stroke:#000000;stroke-linecap:square;stroke-width:0.8;"/>
    </g>
    <g id="text_9">
     <!-- 6 -->
     <g transform="translate(307.983974 209.489882)scale(0.1 -0.1)">
      <use xlink:href="#DejaVuSans-54"/>
     </g>
    </g>
   </g>
   <g id="xtick_10">
    <g id="line2d_12">
     <path d="M 311.360068 175.299146 
L 314.274875 176.15234 
" style="fill:none;stroke:#000000;stroke-linecap:square;stroke-width:0.8;"/>
    </g>
    <g id="text_10">
     <!-- 8 -->
     <g transform="translate(321.10031 195.556556)scale(0.1 -0.1)">
      <use xlink:href="#DejaVuSans-56"/>
     </g>
    </g>
   </g>
  </g>
  <g id="axis3d_3">
   <g id="line2d_13">
    <path d="M 316.12668 171.68791 
L 320.238571 81.894718 
" style="fill:none;stroke:#000000;stroke-linecap:square;stroke-width:0.8;"/>
   </g>
   <g id="Line3DCollection_3">
    <path d="M 316.205459 169.967571 
L 200.884845 136.530725 
L 129.013401 196.624949 
" style="fill:none;stroke:#b0b0b0;stroke-width:0.8;"/>
    <path d="M 316.998438 152.650946 
L 200.692036 119.763506 
L 128.159326 178.889523 
" style="fill:none;stroke:#b0b0b0;stroke-width:0.8;"/>
    <path d="M 317.805225 135.032771 
L 200.49603 102.718318 
L 127.289808 160.833417 
" style="fill:none;stroke:#b0b0b0;stroke-width:0.8;"/>
    <path d="M 318.626185 117.105099 
L 200.296747 85.38819 
L 126.404424 142.447857 
" style="fill:none;stroke:#b0b0b0;stroke-width:0.8;"/>
    <path d="M 319.461695 98.859703 
L 200.094105 67.765919 
L 125.502737 123.723742 
" style="fill:none;stroke:#b0b0b0;stroke-width:0.8;"/>
   </g>
   <g id="xtick_11">
    <g id="line2d_14">
     <path d="M 315.237563 169.686933 
L 318.143556 170.529516 
" style="fill:none;stroke:#000000;stroke-linecap:square;stroke-width:0.8;"/>
    </g>
    <g id="text_11">
     <!-- 0 -->
     <g transform="translate(331.275915 174.966846)scale(0.1 -0.1)">
      <use xlink:href="#DejaVuSans-48"/>
     </g>
    </g>
   </g>
   <g id="xtick_12">
    <g id="line2d_15">
     <path d="M 316.021873 152.374807 
L 318.953912 153.203887 
" style="fill:none;stroke:#000000;stroke-linecap:square;stroke-width:0.8;"/>
    </g>
    <g id="text_12">
     <!-- 5000 -->
     <g transform="translate(322.67917 157.691967)scale(0.1 -0.1)">
      <defs>
       <path d="M 10.796875 72.90625 
L 49.515625 72.90625 
L 49.515625 64.59375 
L 19.828125 64.59375 
L 19.828125 46.734375 
Q 21.96875 47.46875 24.109375 47.828125 
Q 26.265625 48.1875 28.421875 48.1875 
Q 40.625 48.1875 47.75 41.5 
Q 54.890625 34.8125 54.890625 23.390625 
Q 54.890625 11.625 47.5625 5.09375 
Q 40.234375 -1.421875 26.90625 -1.421875 
Q 22.3125 -1.421875 17.546875 -0.640625 
Q 12.796875 0.140625 7.71875 1.703125 
L 7.71875 11.625 
Q 12.109375 9.234375 16.796875 8.0625 
Q 21.484375 6.890625 26.703125 6.890625 
Q 35.15625 6.890625 40.078125 11.328125 
Q 45.015625 15.765625 45.015625 23.390625 
Q 45.015625 31 40.078125 35.4375 
Q 35.15625 39.890625 26.703125 39.890625 
Q 22.75 39.890625 18.8125 39.015625 
Q 14.890625 38.140625 10.796875 36.28125 
z
" id="DejaVuSans-53"/>
      </defs>
      <use xlink:href="#DejaVuSans-53"/>
      <use x="63.623047" xlink:href="#DejaVuSans-48"/>
      <use x="127.246094" xlink:href="#DejaVuSans-48"/>
      <use x="190.869141" xlink:href="#DejaVuSans-48"/>
     </g>
    </g>
   </g>
   <g id="xtick_13">
    <g id="line2d_16">
     <path d="M 316.819836 134.761331 
L 319.778391 135.576307 
" style="fill:none;stroke:#000000;stroke-linecap:square;stroke-width:0.8;"/>
    </g>
    <g id="text_13">
     <!-- 10000 -->
     <g transform="translate(320.461355 140.117389)scale(0.1 -0.1)">
      <defs>
       <path d="M 12.40625 8.296875 
L 28.515625 8.296875 
L 28.515625 63.921875 
L 10.984375 60.40625 
L 10.984375 69.390625 
L 28.421875 72.90625 
L 38.28125 72.90625 
L 38.28125 8.296875 
L 54.390625 8.296875 
L 54.390625 0 
L 12.40625 0 
z
" id="DejaVuSans-49"/>
      </defs>
      <use xlink:href="#DejaVuSans-49"/>
      <use x="63.623047" xlink:href="#DejaVuSans-48"/>
      <use x="127.246094" xlink:href="#DejaVuSans-48"/>
      <use x="190.869141" xlink:href="#DejaVuSans-48"/>
      <use x="254.492188" xlink:href="#DejaVuSans-48"/>
     </g>
    </g>
   </g>
   <g id="xtick_14">
    <g id="line2d_17">
     <path d="M 317.631811 116.838568 
L 320.617365 117.638813 
" style="fill:none;stroke:#000000;stroke-linecap:square;stroke-width:0.8;"/>
    </g>
    <g id="text_14">
     <!-- 15000 -->
     <g transform="translate(321.441651 122.235242)scale(0.1 -0.1)">
      <use xlink:href="#DejaVuSans-49"/>
      <use x="63.623047" xlink:href="#DejaVuSans-53"/>
      <use x="127.246094" xlink:href="#DejaVuSans-48"/>
      <use x="190.869141" xlink:href="#DejaVuSans-48"/>
      <use x="254.492188" xlink:href="#DejaVuSans-48"/>
     </g>
    </g>
   </g>
   <g id="xtick_15">
    <g id="line2d_18">
     <path d="M 318.45817 98.598297 
L 321.47122 99.38316 
" style="fill:none;stroke:#000000;stroke-linecap:square;stroke-width:0.8;"/>
    </g>
    <g id="text_15">
     <!-- 20000 -->
     <g transform="translate(322.439253 104.037383)scale(0.1 -0.1)">
      <use xlink:href="#DejaVuSans-50"/>
      <use x="63.623047" xlink:href="#DejaVuSans-48"/>
      <use x="127.246094" xlink:href="#DejaVuSans-48"/>
      <use x="190.869141" xlink:href="#DejaVuSans-48"/>
      <use x="254.492188" xlink:href="#DejaVuSans-48"/>
     </g>
    </g>
   </g>
  </g>
  <g id="axes_1">
   <g id="Poly3DCollection_1">
    <path clip-path="url(#p132231c2c1)" d="M 203.700438 142.115361 
L 203.697957 141.870846 
L 215.862878 145.421648 
L 215.863902 145.66701 
z
" style="fill:#050338;"/>
    <path clip-path="url(#p132231c2c1)" d="M 196.401162 148.290596 
L 196.397773 148.044611 
L 203.697957 141.870846 
L 203.700438 142.115361 
z
" style="fill:#0b0777;"/>
    <path clip-path="url(#p132231c2c1)" d="M 196.401162 148.290596 
L 203.700438 142.115361 
L 215.863902 145.66701 
L 208.637156 151.907182 
z
" style="fill:#070448;"/>
    <path clip-path="url(#p132231c2c1)" d="M 196.397773 148.044611 
L 208.635242 151.660341 
L 215.862878 145.421648 
L 203.697957 141.870846 
z
" style="fill:#0a0667;"/>
    <path clip-path="url(#p132231c2c1)" d="M 215.863902 145.66701 
L 215.85281 143.009367 
L 228.160046 146.589049 
L 228.155024 149.255935 
z
" style="fill:#0d023b;"/>
    <path clip-path="url(#p132231c2c1)" d="M 208.637156 151.907182 
L 215.863902 145.66701 
L 215.862878 145.421648 
L 208.635242 151.660341 
z
" style="fill:#050338;"/>
    <path clip-path="url(#p132231c2c1)" d="M 208.637156 151.907182 
L 208.616417 149.2335 
L 215.85281 143.009367 
L 215.863902 145.66701 
z
" style="fill:#1c057e;"/>
    <path clip-path="url(#p132231c2c1)" d="M 196.401162 148.290596 
L 208.637156 151.907182 
L 208.635242 151.660341 
L 196.397773 148.044611 
z
" style="fill:#0b0777;"/>
    <path clip-path="url(#p132231c2c1)" d="M 196.401162 148.290596 
L 196.397761 148.043725 
L 208.635235 151.659452 
L 208.637156 151.907182 
z
" style="fill:#050338;"/>
    <path clip-path="url(#p132231c2c1)" d="M 208.637156 151.907182 
L 215.863902 145.66701 
L 228.155024 149.255935 
L 221.002748 155.562072 
z
" style="fill:#11034c;"/>
    <path clip-path="url(#p132231c2c1)" d="M 188.96817 154.578956 
L 188.963825 154.330596 
L 196.397761 148.043725 
L 196.401162 148.290596 
z
" style="fill:#0b0777;"/>
    <path clip-path="url(#p132231c2c1)" d="M 208.616417 149.2335 
L 220.998319 152.879066 
L 228.160046 146.589049 
L 215.85281 143.009367 
z
" style="fill:#18046d;"/>
    <path clip-path="url(#p132231c2c1)" d="M 228.155024 149.255935 
L 228.169264 141.694054 
L 240.636726 145.294406 
L 240.575825 152.882725 
z
" style="fill:#1a0241;"/>
    <path clip-path="url(#p132231c2c1)" d="M 221.002748 155.562072 
L 228.155024 149.255935 
L 228.160046 146.589049 
L 220.998319 152.879066 
z
" style="fill:#0d023b;"/>
    <path clip-path="url(#p132231c2c1)" d="M 188.96817 154.578956 
L 196.401162 148.290596 
L 208.637156 151.907182 
L 201.27732 158.262275 
z
" style="fill:#070448;"/>
    <path clip-path="url(#p132231c2c1)" d="M 188.963825 154.330596 
L 201.274472 158.013049 
L 208.635235 151.659452 
L 196.397761 148.043725 
z
" style="fill:#0a0667;"/>
    <path clip-path="url(#p132231c2c1)" d="M 221.002748 155.562072 
L 220.990189 147.954313 
L 228.169264 141.694054 
L 228.155024 149.255935 
z
" style="fill:#360389;"/>
    <path clip-path="url(#p132231c2c1)" d="M 208.637156 151.907182 
L 221.002748 155.562072 
L 220.998319 152.879066 
L 208.616417 149.2335 
z
" style="fill:#1c057e;"/>
    <path clip-path="url(#p132231c2c1)" d="M 221.002748 155.562072 
L 228.155024 149.255935 
L 240.575825 152.882725 
L 233.500008 159.25588 
z
" style="fill:#210253;"/>
    <path clip-path="url(#p132231c2c1)" d="M 208.637156 151.907182 
L 208.588744 145.665845 
L 220.992409 149.298909 
L 221.002748 155.562072 
z
" style="fill:#16023f;"/>
    <path clip-path="url(#p132231c2c1)" d="M 201.27732 158.262275 
L 208.637156 151.907182 
L 208.635235 151.659452 
L 201.274472 158.013049 
z
" style="fill:#050338;"/>
    <path clip-path="url(#p132231c2c1)" d="M 240.575825 152.882725 
L 240.629876 146.147866 
L 253.224714 149.789553 
L 253.128369 156.547983 
z
" style="fill:#180240;"/>
    <path clip-path="url(#p132231c2c1)" d="M 201.27732 158.262275 
L 201.205558 151.983064 
L 208.588744 145.665845 
L 208.637156 151.907182 
z
" style="fill:#2f0486;"/>
    <path clip-path="url(#p132231c2c1)" d="M 188.96817 154.578956 
L 201.27732 158.262275 
L 201.274472 158.013049 
L 188.963825 154.330596 
z
" style="fill:#0b0777;"/>
    <path clip-path="url(#p132231c2c1)" d="M 188.96817 154.578956 
L 188.960776 154.156338 
L 201.272473 157.838184 
L 201.27732 158.262275 
z
" style="fill:#050338;"/>
    <path clip-path="url(#p132231c2c1)" d="M 220.990189 147.954313 
L 233.534687 151.621446 
L 240.636726 145.294406 
L 228.169264 141.694054 
z
" style="fill:#2f0377;"/>
    <path clip-path="url(#p132231c2c1)" d="M 201.27732 158.262275 
L 208.637156 151.907182 
L 221.002748 155.562072 
L 213.718049 161.984967 
z
" style="fill:#1c0251;"/>
    <path clip-path="url(#p132231c2c1)" d="M 233.500008 159.25588 
L 233.530787 152.480118 
L 240.629876 146.147866 
L 240.575825 152.882725 
z
" style="fill:#320488;"/>
    <path clip-path="url(#p132231c2c1)" d="M 233.500008 159.25588 
L 240.575825 152.882725 
L 240.636726 145.294406 
L 233.534687 151.621446 
z
" style="fill:#1a0241;"/>
    <path clip-path="url(#p132231c2c1)" d="M 181.397755 160.983577 
L 181.388695 160.558403 
L 188.960776 154.156338 
L 188.96817 154.578956 
z
" style="fill:#0b0777;"/>
    <path clip-path="url(#p132231c2c1)" d="M 233.500008 159.25588 
L 240.575825 152.882725 
L 253.128369 156.547983 
L 246.131049 162.989229 
z
" style="fill:#1e0252;"/>
    <path clip-path="url(#p132231c2c1)" d="M 221.002748 155.562072 
L 233.500008 159.25588 
L 233.534687 151.621446 
L 220.990189 147.954313 
z
" style="fill:#360389;"/>
    <path clip-path="url(#p132231c2c1)" d="M 201.205558 151.983064 
L 213.684823 155.683736 
L 220.992409 149.298909 
L 208.588744 145.665845 
z
" style="fill:#290375;"/>
    <path clip-path="url(#p132231c2c1)" d="M 181.397755 160.983577 
L 188.96817 154.578956 
L 201.27732 158.262275 
L 193.780682 164.735494 
z
" style="fill:#070448;"/>
    <path clip-path="url(#p132231c2c1)" d="M 181.388695 160.558403 
L 193.7742 164.308834 
L 201.272473 157.838184 
L 188.960776 154.156338 
z
" style="fill:#0a0667;"/>
    <path clip-path="url(#p132231c2c1)" d="M 213.718049 161.984967 
L 221.002748 155.562072 
L 220.992409 149.298909 
L 213.684823 155.683736 
z
" style="fill:#16023f;"/>
    <path clip-path="url(#p132231c2c1)" d="M 253.128369 156.547983 
L 253.251831 147.887323 
L 265.99358 151.561261 
L 265.814761 160.252323 
z
" style="fill:#1c0142;"/>
    <path clip-path="url(#p132231c2c1)" d="M 233.530787 152.480118 
L 246.204656 156.189688 
L 253.224714 149.789553 
L 240.629876 146.147866 
z
" style="fill:#2b0376;"/>
    <path clip-path="url(#p132231c2c1)" d="M 213.718049 161.984967 
L 221.002748 155.562072 
L 233.500008 159.25588 
L 226.292478 165.747667 
z
" style="fill:#460359;"/>
    <path clip-path="url(#p132231c2c1)" d="M 246.131049 162.989229 
L 253.128369 156.547983 
L 253.224714 149.789553 
L 246.204656 156.189688 
z
" style="fill:#180240;"/>
    <path clip-path="url(#p132231c2c1)" d="M 221.002748 155.562072 
L 220.966748 133.754967 
L 233.599418 137.371495 
L 233.500008 159.25588 
z
" style="fill:#360246;"/>
    <path clip-path="url(#p132231c2c1)" d="M 201.27732 158.262275 
L 213.718049 161.984967 
L 213.684823 155.683736 
L 201.205558 151.983064 
z
" style="fill:#2f0486;"/>
    <path clip-path="url(#p132231c2c1)" d="M 246.131049 162.989229 
L 246.225374 154.275812 
L 253.251831 147.887323 
L 253.128369 156.547983 
z
" style="fill:#3b038b;"/>
    <path clip-path="url(#p132231c2c1)" d="M 193.780682 164.735494 
L 201.27732 158.262275 
L 201.272473 157.838184 
L 193.7742 164.308834 
z
" style="fill:#050338;"/>
    <path clip-path="url(#p132231c2c1)" d="M 246.131049 162.989229 
L 253.128369 156.547983 
L 265.814761 160.252323 
L 258.898031 166.762758 
z
" style="fill:#240254;"/>
    <path clip-path="url(#p132231c2c1)" d="M 201.27732 158.262275 
L 201.167117 148.619485 
L 213.667024 152.308276 
L 213.718049 161.984967 
z
" style="fill:#1e0142;"/>
    <path clip-path="url(#p132231c2c1)" d="M 233.500008 159.25588 
L 246.131049 162.989229 
L 246.204656 156.189688 
L 233.530787 152.480118 
z
" style="fill:#320488;"/>
    <path clip-path="url(#p132231c2c1)" d="M 213.718049 161.984967 
L 213.602354 140.043754 
L 220.966748 133.754967 
L 221.002748 155.562072 
z
" style="fill:#730494;"/>
    <path clip-path="url(#p132231c2c1)" d="M 181.397755 160.983577 
L 193.780682 164.735494 
L 193.7742 164.308834 
L 181.388695 160.558403 
z
" style="fill:#0b0777;"/>
    <path clip-path="url(#p132231c2c1)" d="M 181.397755 160.983577 
L 181.376634 159.992434 
L 193.765571 163.740885 
L 193.780682 164.735494 
z
" style="fill:#080339;"/>
    <path clip-path="url(#p132231c2c1)" d="M 193.780682 164.735494 
L 193.633291 155.033876 
L 201.167117 148.619485 
L 201.27732 158.262275 
z
" style="fill:#3f038d;"/>
    <path clip-path="url(#p132231c2c1)" d="M 193.780682 164.735494 
L 201.27732 158.262275 
L 213.718049 161.984967 
L 206.297214 168.527892 
z
" style="fill:#260255;"/>
    <path clip-path="url(#p132231c2c1)" d="M 265.814761 160.252323 
L 265.99664 151.412525 
L 278.876544 155.125492 
L 278.637155 163.996376 
z
" style="fill:#1c0142;"/>
    <path clip-path="url(#p132231c2c1)" d="M 226.292478 165.747667 
L 233.500008 159.25588 
L 246.131049 162.989229 
L 239.002775 169.551023 
z
" style="fill:#42015a;"/>
    <path clip-path="url(#p132231c2c1)" d="M 173.686069 167.507715 
L 173.660923 166.510558 
L 181.376634 159.992434 
L 181.397755 160.983577 
z
" style="fill:#110679;"/>
    <path clip-path="url(#p132231c2c1)" d="M 246.225374 154.275812 
L 259.048425 158.018669 
L 265.99358 151.561261 
L 253.251831 147.887323 
z
" style="fill:#330379;"/>
    <path clip-path="url(#p132231c2c1)" d="M 233.500008 159.25588 
L 233.592485 138.897657 
L 246.352214 142.558822 
L 246.131049 162.989229 
z
" style="fill:#330146;"/>
    <path clip-path="url(#p132231c2c1)" d="M 258.898031 166.762758 
L 265.814761 160.252323 
L 265.99358 151.561261 
L 259.048425 158.018669 
z
" style="fill:#1c0142;"/>
    <path clip-path="url(#p132231c2c1)" d="M 258.898031 166.762758 
L 259.050999 157.869019 
L 265.99664 151.412525 
L 265.814761 160.252323 
z
" style="fill:#3b038b;"/>
    <path clip-path="url(#p132231c2c1)" d="M 258.898031 166.762758 
L 265.814761 160.252323 
L 278.637155 163.996376 
L 271.803162 170.57712 
z
" style="fill:#240254;"/>
    <path clip-path="url(#p132231c2c1)" d="M 226.292478 165.747667 
L 226.312388 145.26418 
L 233.592485 138.897657 
L 233.500008 159.25588 
z
" style="fill:#6d0294;"/>
    <path clip-path="url(#p132231c2c1)" d="M 173.686069 167.507715 
L 181.397755 160.983577 
L 193.780682 164.735494 
L 186.143392 171.330164 
z
" style="fill:#0a0449;"/>
    <path clip-path="url(#p132231c2c1)" d="M 226.292478 165.747667 
L 233.500008 159.25588 
L 233.599418 137.371495 
L 226.313881 143.728473 
z
" style="fill:#360246;"/>
    <path clip-path="url(#p132231c2c1)" d="M 278.637155 163.996376 
L 278.706794 161.415796 
L 291.684476 165.191157 
L 291.597749 167.780781 
z
" style="fill:#0d023b;"/>
    <path clip-path="url(#p132231c2c1)" d="M 246.131049 162.989229 
L 258.898031 166.762758 
L 259.048425 158.018669 
L 246.225374 154.275812 
z
" style="fill:#3b038b;"/>
    <path clip-path="url(#p132231c2c1)" d="M 173.660923 166.510558 
L 186.124328 170.329511 
L 193.765571 163.740885 
L 181.376634 159.992434 
z
" style="fill:#0f0569;"/>
    <path clip-path="url(#p132231c2c1)" d="M 193.633291 155.033876 
L 206.209723 158.792074 
L 213.667024 152.308276 
L 201.167117 148.619485 
z
" style="fill:#37027a;"/>
    <path clip-path="url(#p132231c2c1)" d="M 206.297214 168.527892 
L 213.718049 161.984967 
L 213.667024 152.308276 
L 206.209723 158.792074 
z
" style="fill:#1e0142;"/>
    <path clip-path="url(#p132231c2c1)" d="M 206.297214 168.527892 
L 213.718049 161.984967 
L 226.292478 165.747667 
L 218.949524 172.361429 
z
" style="fill:#661f46;"/>
    <path clip-path="url(#p132231c2c1)" d="M 213.718049 161.984967 
L 226.292478 165.747667 
L 226.313881 143.728473 
L 213.602354 140.043754 
z
" style="fill:#730494;"/>
    <path clip-path="url(#p132231c2c1)" d="M 271.803162 170.57712 
L 271.864608 167.980846 
L 278.706794 161.415796 
L 278.637155 163.996376 
z
" style="fill:#1c057e;"/>
    <path clip-path="url(#p132231c2c1)" d="M 239.002775 169.551023 
L 246.131049 162.989229 
L 258.898031 166.762758 
L 251.851153 173.395697 
z
" style="fill:#480459;"/>
    <path clip-path="url(#p132231c2c1)" d="M 186.143392 171.330164 
L 193.780682 164.735494 
L 193.765571 163.740885 
L 186.124328 170.329511 
z
" style="fill:#080339;"/>
    <path clip-path="url(#p132231c2c1)" d="M 213.602354 140.043754 
L 226.313881 143.728473 
L 233.599418 137.371495 
L 220.966748 133.754967 
z
" style="fill:#640480;"/>
    <path clip-path="url(#p132231c2c1)" d="M 193.780682 164.735494 
L 206.297214 168.527892 
L 206.209723 158.792074 
L 193.633291 155.033876 
z
" style="fill:#3f038d;"/>
    <path clip-path="url(#p132231c2c1)" d="M 259.050999 157.869019 
L 272.014392 161.652023 
L 278.876544 155.125492 
L 265.99664 151.412525 
z
" style="fill:#330379;"/>
    <path clip-path="url(#p132231c2c1)" d="M 271.803162 170.57712 
L 278.637155 163.996376 
L 278.876544 155.125492 
L 272.014392 161.652023 
z
" style="fill:#1c0142;"/>
    <path clip-path="url(#p132231c2c1)" d="M 246.131049 162.989229 
L 246.381551 139.848835 
L 259.29745 143.540013 
L 258.898031 166.762758 
z
" style="fill:#380345;"/>
    <path clip-path="url(#p132231c2c1)" d="M 271.803162 170.57712 
L 278.637155 163.996376 
L 291.597749 167.780781 
L 284.848695 174.43298 
z
" style="fill:#11034c;"/>
    <path clip-path="url(#p132231c2c1)" d="M 193.780682 164.735494 
L 193.553945 149.811189 
L 206.162622 153.550766 
L 206.297214 168.527892 
z
" style="fill:#280045;"/>
    <path clip-path="url(#p132231c2c1)" d="M 173.686069 167.507715 
L 186.143392 171.330164 
L 186.124328 170.329511 
L 173.660923 166.510558 
z
" style="fill:#110679;"/>
    <path clip-path="url(#p132231c2c1)" d="M 173.686069 167.507715 
L 173.654255 166.246147 
L 186.119273 170.064173 
L 186.143392 171.330164 
z
" style="fill:#09033a;"/>
    <path clip-path="url(#p132231c2c1)" d="M 291.597749 167.780781 
L 291.607946 167.476299 
L 304.711039 171.300647 
L 304.698789 171.606197 
z
" style="fill:#050338;"/>
    <path clip-path="url(#p132231c2c1)" d="M 239.002775 169.551023 
L 246.131049 162.989229 
L 246.352214 142.558822 
L 239.153005 148.994704 
z
" style="fill:#330146;"/>
    <path clip-path="url(#p132231c2c1)" d="M 186.143392 171.330164 
L 193.780682 164.735494 
L 206.297214 168.527892 
L 198.736391 175.194243 
z
" style="fill:#340059;"/>
    <path clip-path="url(#p132231c2c1)" d="M 271.864608 167.980846 
L 284.927456 171.827584 
L 291.684476 165.191157 
L 278.706794 161.415796 
z
" style="fill:#18046d;"/>
    <path clip-path="url(#p132231c2c1)" d="M 258.898031 166.762758 
L 271.803162 170.57712 
L 272.014392 161.652023 
L 259.050999 157.869019 
z
" style="fill:#3b038b;"/>
    <path clip-path="url(#p132231c2c1)" d="M 239.002775 169.551023 
L 239.172934 146.267722 
L 246.381551 139.848835 
L 246.131049 162.989229 
z
" style="fill:#770693;"/>
    <path clip-path="url(#p132231c2c1)" d="M 213.718049 161.984967 
L 213.517263 123.906344 
L 226.329624 127.532065 
L 226.292478 165.747667 
z
" style="fill:#501837;"/>
    <path clip-path="url(#p132231c2c1)" d="M 186.143392 171.330164 
L 185.857309 156.3142 
L 193.553945 149.811189 
L 193.780682 164.735494 
z
" style="fill:#560093;"/>
    <path clip-path="url(#p132231c2c1)" d="M 218.949524 172.361429 
L 226.292478 165.747667 
L 239.002775 169.551023 
L 231.739835 176.23678 
z
" style="fill:#651d47;"/>
    <path clip-path="url(#p132231c2c1)" d="M 165.82912 174.154745 
L 165.792025 172.885502 
L 173.654255 166.246147 
L 173.686069 167.507715 
z
" style="fill:#13067a;"/>
    <path clip-path="url(#p132231c2c1)" d="M 284.848695 174.43298 
L 284.857956 174.126647 
L 291.607946 167.476299 
L 291.597749 167.780781 
z
" style="fill:#0b0777;"/>
    <path clip-path="url(#p132231c2c1)" d="M 226.292478 165.747667 
L 239.002775 169.551023 
L 239.153005 148.994704 
L 226.312388 145.26418 
z
" style="fill:#6d0294;"/>
    <path clip-path="url(#p132231c2c1)" d="M 226.312388 145.26418 
L 239.153005 148.994704 
L 246.352214 142.558822 
L 233.592485 138.897657 
z
" style="fill:#5e0281;"/>
    <path clip-path="url(#p132231c2c1)" d="M 284.848695 174.43298 
L 291.597749 167.780781 
L 291.684476 165.191157 
L 284.927456 171.827584 
z
" style="fill:#0d023b;"/>
    <path clip-path="url(#p132231c2c1)" d="M 206.297214 168.527892 
L 205.952883 130.211551 
L 213.517263 123.906344 
L 213.718049 161.984967 
z
" style="fill:#a93374;"/>
    <path clip-path="url(#p132231c2c1)" d="M 251.851153 173.395697 
L 258.898031 166.762758 
L 271.803162 170.57712 
L 264.839875 177.282368 
z
" style="fill:#450259;"/>
    <path clip-path="url(#p132231c2c1)" d="M 258.898031 166.762758 
L 259.270815 145.088614 
L 272.317949 148.825808 
L 271.803162 170.57712 
z
" style="fill:#360246;"/>
    <path clip-path="url(#p132231c2c1)" d="M 165.82912 174.154745 
L 173.686069 167.507715 
L 186.143392 171.330164 
L 178.361455 178.049733 
z
" style="fill:#0c044a;"/>
    <path clip-path="url(#p132231c2c1)" d="M 271.803162 170.57712 
L 284.848695 174.43298 
L 284.927456 171.827584 
L 271.864608 167.980846 
z
" style="fill:#1c057e;"/>
    <path clip-path="url(#p132231c2c1)" d="M 284.848695 174.43298 
L 291.597749 167.780781 
L 304.698789 171.606197 
L 298.036935 178.33102 
z
" style="fill:#070448;"/>
    <path clip-path="url(#p132231c2c1)" d="M 284.857956 174.126647 
L 298.048275 178.023611 
L 304.711039 171.300647 
L 291.607946 167.476299 
z
" style="fill:#0a0667;"/>
    <path clip-path="url(#p132231c2c1)" d="M 165.792025 172.885502 
L 178.332147 176.77603 
L 186.119273 170.064173 
L 173.654255 166.246147 
z
" style="fill:#11056a;"/>
    <path clip-path="url(#p132231c2c1)" d="M 271.803162 170.57712 
L 271.963688 163.794411 
L 285.054458 167.626362 
L 284.848695 174.43298 
z
" style="fill:#180240;"/>
    <path clip-path="url(#p132231c2c1)" d="M 198.736391 175.194243 
L 206.297214 168.527892 
L 218.949524 172.361429 
L 211.467294 179.100638 
z
" style="fill:#7b3b30;"/>
    <path clip-path="url(#p132231c2c1)" d="M 251.851153 173.395697 
L 252.150746 151.587644 
L 259.270815 145.088614 
L 258.898031 166.762758 
z
" style="fill:#720494;"/>
    <path clip-path="url(#p132231c2c1)" d="M 251.851153 173.395697 
L 258.898031 166.762758 
L 259.29745 143.540013 
L 252.172154 150.029306 
z
" style="fill:#380345;"/>
    <path clip-path="url(#p132231c2c1)" d="M 226.292478 165.747667 
L 226.328774 128.40647 
L 239.276655 132.075355 
L 239.002775 169.551023 
z
" style="fill:#4f1738;"/>
    <path clip-path="url(#p132231c2c1)" d="M 198.736391 175.194243 
L 206.297214 168.527892 
L 206.162622 153.550766 
L 198.543578 160.124994 
z
" style="fill:#280045;"/>
    <path clip-path="url(#p132231c2c1)" d="M 231.739835 176.23678 
L 239.002775 169.551023 
L 251.851153 173.395697 
L 244.670417 180.154631 
z
" style="fill:#692243;"/>
    <path clip-path="url(#p132231c2c1)" d="M 178.361455 178.049733 
L 186.143392 171.330164 
L 186.119273 170.064173 
L 178.332147 176.77603 
z
" style="fill:#09033a;"/>
    <path clip-path="url(#p132231c2c1)" d="M 298.036935 178.33102 
L 304.698789 171.606197 
L 304.711039 171.300647 
L 298.048275 178.023611 
z
" style="fill:#050338;"/>
    <path clip-path="url(#p132231c2c1)" d="M 264.839875 177.282368 
L 264.978151 170.45817 
L 271.963688 163.794411 
L 271.803162 170.57712 
z
" style="fill:#320488;"/>
    <path clip-path="url(#p132231c2c1)" d="M 185.857309 156.3142 
L 198.543578 160.124994 
L 206.162622 153.550766 
L 193.553945 149.811189 
z
" style="fill:#4a0080;"/>
    <path clip-path="url(#p132231c2c1)" d="M 239.002775 169.551023 
L 251.851153 173.395697 
L 252.172154 150.029306 
L 239.172934 146.267722 
z
" style="fill:#770693;"/>
    <path clip-path="url(#p132231c2c1)" d="M 218.949524 172.361429 
L 218.848472 134.786871 
L 226.328774 128.40647 
L 226.292478 165.747667 
z
" style="fill:#a73076;"/>
    <path clip-path="url(#p132231c2c1)" d="M 218.949524 172.361429 
L 226.292478 165.747667 
L 226.329624 127.532065 
L 218.846105 133.906843 
z
" style="fill:#501837;"/>
    <path clip-path="url(#p132231c2c1)" d="M 264.839875 177.282368 
L 271.803162 170.57712 
L 284.848695 174.43298 
L 277.971253 181.211726 
z
" style="fill:#1e0252;"/>
    <path clip-path="url(#p132231c2c1)" d="M 186.143392 171.330164 
L 198.736391 175.194243 
L 198.543578 160.124994 
L 185.857309 156.3142 
z
" style="fill:#560093;"/>
    <path clip-path="url(#p132231c2c1)" d="M 165.82912 174.154745 
L 178.361455 178.049733 
L 178.332147 176.77603 
L 165.792025 172.885502 
z
" style="fill:#13067a;"/>
    <path clip-path="url(#p132231c2c1)" d="M 239.172934 146.267722 
L 252.172154 150.029306 
L 259.29745 143.540013 
L 246.381551 139.848835 
z
" style="fill:#67057f;"/>
    <path clip-path="url(#p132231c2c1)" d="M 165.82912 174.154745 
L 165.77751 172.388824 
L 178.320677 176.277604 
L 178.361455 178.049733 
z
" style="fill:#0a033a;"/>
    <path clip-path="url(#p132231c2c1)" d="M 284.848695 174.43298 
L 298.036935 178.33102 
L 298.048275 178.023611 
L 284.857956 174.126647 
z
" style="fill:#0b0777;"/>
    <path clip-path="url(#p132231c2c1)" d="M 284.848695 174.43298 
L 284.861653 174.004329 
L 298.052803 177.900863 
L 298.036935 178.33102 
z
" style="fill:#050338;"/>
    <path clip-path="url(#p132231c2c1)" d="M 178.361455 178.049733 
L 186.143392 171.330164 
L 198.736391 175.194243 
L 191.031582 181.987547 
z
" style="fill:#41015a;"/>
    <path clip-path="url(#p132231c2c1)" d="M 186.143392 171.330164 
L 185.759273 151.168512 
L 198.477501 154.960763 
L 198.736391 175.194243 
z
" style="fill:#330146;"/>
    <path clip-path="url(#p132231c2c1)" d="M 206.297214 168.527892 
L 218.949524 172.361429 
L 218.846105 133.906843 
L 205.952883 130.211551 
z
" style="fill:#a93374;"/>
    <path clip-path="url(#p132231c2c1)" d="M 211.467294 179.100638 
L 218.949524 172.361429 
L 231.739835 176.23678 
L 224.338378 183.050047 
z
" style="fill:#7c3c30;"/>
    <path clip-path="url(#p132231c2c1)" d="M 264.839875 177.282368 
L 271.803162 170.57712 
L 272.317949 148.825808 
L 265.283341 155.396461 
z
" style="fill:#360246;"/>
    <path clip-path="url(#p132231c2c1)" d="M 157.822766 180.928173 
L 157.763535 179.151479 
L 165.77751 172.388824 
L 165.82912 174.154745 
z
" style="fill:#16067b;"/>
    <path clip-path="url(#p132231c2c1)" d="M 277.971253 181.211726 
L 277.982847 180.780462 
L 284.861653 174.004329 
L 284.848695 174.43298 
z
" style="fill:#0b0777;"/>
    <path clip-path="url(#p132231c2c1)" d="M 178.361455 178.049733 
L 177.894652 157.76344 
L 185.759273 151.168512 
L 186.143392 171.330164 
z
" style="fill:#6c0295;"/>
    <path clip-path="url(#p132231c2c1)" d="M 264.978151 170.45817 
L 278.15537 174.363413 
L 285.054458 167.626362 
L 271.963688 163.794411 
z
" style="fill:#2b0376;"/>
    <path clip-path="url(#p132231c2c1)" d="M 239.002775 169.551023 
L 239.294922 129.575846 
L 252.402306 133.27605 
L 251.851153 173.395697 
z
" style="fill:#521a35;"/>
    <path clip-path="url(#p132231c2c1)" d="M 244.670417 180.154631 
L 251.851153 173.395697 
L 264.839875 177.282368 
L 257.743589 184.115686 
z
" style="fill:#641c48;"/>
    <path clip-path="url(#p132231c2c1)" d="M 277.971253 181.211726 
L 284.848695 174.43298 
L 285.054458 167.626362 
L 278.15537 174.363413 
z
" style="fill:#180240;"/>
    <path clip-path="url(#p132231c2c1)" d="M 251.851153 173.395697 
L 264.839875 177.282368 
L 265.283341 155.396461 
L 252.150746 151.587644 
z
" style="fill:#720494;"/>
    <path clip-path="url(#p132231c2c1)" d="M 157.822766 180.928173 
L 165.82912 174.154745 
L 178.361455 178.049733 
L 170.430723 184.897786 
z
" style="fill:#0d034a;"/>
    <path clip-path="url(#p132231c2c1)" d="M 231.739835 176.23678 
L 239.002775 169.551023 
L 239.276655 132.075355 
L 231.8794 138.526517 
z
" style="fill:#4f1738;"/>
    <path clip-path="url(#p132231c2c1)" d="M 252.150746 151.587644 
L 265.283341 155.396461 
L 272.317949 148.825808 
L 259.270815 145.088614 
z
" style="fill:#630380;"/>
    <path clip-path="url(#p132231c2c1)" d="M 277.971253 181.211726 
L 284.848695 174.43298 
L 298.036935 178.33102 
L 291.24765 185.184478 
z
" style="fill:#070448;"/>
    <path clip-path="url(#p132231c2c1)" d="M 277.982847 180.780462 
L 291.262195 184.751696 
L 298.052803 177.900863 
L 284.861653 174.004329 
z
" style="fill:#0a0667;"/>
    <path clip-path="url(#p132231c2c1)" d="M 206.297214 168.527892 
L 205.81148 114.476531 
L 218.803629 118.112746 
L 218.949524 172.361429 
z
" style="fill:#602e26;"/>
    <path clip-path="url(#p132231c2c1)" d="M 231.739835 176.23678 
L 231.88871 136.010888 
L 239.294922 129.575846 
L 239.002775 169.551023 
z
" style="fill:#ae386f;"/>
    <path clip-path="url(#p132231c2c1)" d="M 157.763535 179.151479 
L 170.382453 183.114831 
L 178.320677 176.277604 
L 165.77751 172.388824 
z
" style="fill:#13056b;"/>
    <path clip-path="url(#p132231c2c1)" d="M 264.839875 177.282368 
L 277.971253 181.211726 
L 278.15537 174.363413 
L 264.978151 170.45817 
z
" style="fill:#320488;"/>
    <path clip-path="url(#p132231c2c1)" d="M 191.031582 181.987547 
L 198.736391 175.194243 
L 211.467294 179.100638 
L 203.841786 185.968896 
z
" style="fill:#86581d;"/>
    <path clip-path="url(#p132231c2c1)" d="M 205.952883 130.211551 
L 218.846105 133.906843 
L 226.329624 127.532065 
L 213.517263 123.906344 
z
" style="fill:#932c64;"/>
    <path clip-path="url(#p132231c2c1)" d="M 218.949524 172.361429 
L 231.739835 176.23678 
L 231.8794 138.526517 
L 218.848472 134.786871 
z
" style="fill:#a73076;"/>
    <path clip-path="url(#p132231c2c1)" d="M 264.839875 177.282368 
L 265.072666 165.793664 
L 278.281222 169.682277 
L 277.971253 181.211726 
z
" style="fill:#210144;"/>
    <path clip-path="url(#p132231c2c1)" d="M 198.736391 175.194243 
L 198.040415 120.800429 
L 205.81148 114.476531 
L 206.297214 168.527892 
z
" style="fill:#cc6250;"/>
    <path clip-path="url(#p132231c2c1)" d="M 224.338378 183.050047 
L 231.739835 176.23678 
L 244.670417 180.154631 
L 237.351973 187.043183 
z
" style="fill:#7d3e2e;"/>
    <path clip-path="url(#p132231c2c1)" d="M 170.430723 184.897786 
L 178.361455 178.049733 
L 178.320677 176.277604 
L 170.382453 183.114831 
z
" style="fill:#0a033a;"/>
    <path clip-path="url(#p132231c2c1)" d="M 291.24765 185.184478 
L 298.036935 178.33102 
L 298.052803 177.900863 
L 291.262195 184.751696 
z
" style="fill:#050338;"/>
    <path clip-path="url(#p132231c2c1)" d="M 251.851153 173.395697 
L 252.358253 136.482805 
L 265.590528 140.236173 
L 264.839875 177.282368 
z
" style="fill:#4e1638;"/>
    <path clip-path="url(#p132231c2c1)" d="M 191.031582 181.987547 
L 198.736391 175.194243 
L 198.477501 154.960763 
L 190.691541 161.628795 
z
" style="fill:#330146;"/>
    <path clip-path="url(#p132231c2c1)" d="M 257.743589 184.115686 
L 264.839875 177.282368 
L 277.971253 181.211726 
L 270.961723 188.120663 
z
" style="fill:#2b0156;"/>
    <path clip-path="url(#p132231c2c1)" d="M 257.743589 184.115686 
L 257.937437 172.556282 
L 265.072666 165.793664 
L 264.839875 177.282368 
z
" style="fill:#46028f;"/>
    <path clip-path="url(#p132231c2c1)" d="M 157.822766 180.928173 
L 170.430723 184.897786 
L 170.382453 183.114831 
L 157.763535 179.151479 
z
" style="fill:#16067b;"/>
    <path clip-path="url(#p132231c2c1)" d="M 277.971253 181.211726 
L 291.24765 185.184478 
L 291.262195 184.751696 
L 277.982847 180.780462 
z
" style="fill:#0b0777;"/>
    <path clip-path="url(#p132231c2c1)" d="M 277.971253 181.211726 
L 277.986222 180.654959 
L 291.266427 184.625752 
L 291.24765 185.184478 
z
" style="fill:#050338;"/>
    <path clip-path="url(#p132231c2c1)" d="M 157.822766 180.928173 
L 157.744686 178.586103 
L 170.367093 182.547459 
L 170.430723 184.897786 
z
" style="fill:#0c033b;"/>
    <path clip-path="url(#p132231c2c1)" d="M 244.670417 180.154631 
L 245.048791 143.010411 
L 252.358253 136.482805 
L 251.851153 173.395697 
z
" style="fill:#a52e78;"/>
    <path clip-path="url(#p132231c2c1)" d="M 170.430723 184.897786 
L 178.361455 178.049733 
L 191.031582 181.987547 
L 183.178635 188.911464 
z
" style="fill:#480459;"/>
    <path clip-path="url(#p132231c2c1)" d="M 178.361455 178.049733 
L 191.031582 181.987547 
L 190.691541 161.628795 
L 177.894652 157.76344 
z
" style="fill:#6c0295;"/>
    <path clip-path="url(#p132231c2c1)" d="M 177.894652 157.76344 
L 190.691541 161.628795 
L 198.477501 154.960763 
L 185.759273 151.168512 
z
" style="fill:#5d0181;"/>
    <path clip-path="url(#p132231c2c1)" d="M 244.670417 180.154631 
L 251.851153 173.395697 
L 252.402306 133.27605 
L 245.081668 139.782946 
z
" style="fill:#521a35;"/>
    <path clip-path="url(#p132231c2c1)" d="M 218.949524 172.361429 
L 218.803166 117.940668 
L 231.941981 121.616968 
L 231.739835 176.23678 
z
" style="fill:#612f25;"/>
    <path clip-path="url(#p132231c2c1)" d="M 218.848472 134.786871 
L 231.8794 138.526517 
L 239.276655 132.075355 
L 226.328774 128.40647 
z
" style="fill:#912a66;"/>
    <path clip-path="url(#p132231c2c1)" d="M 178.361455 178.049733 
L 177.820084 154.522884 
L 190.637218 158.376453 
L 191.031582 181.987547 
z
" style="fill:#380345;"/>
    <path clip-path="url(#p132231c2c1)" d="M 203.841786 185.968896 
L 211.467294 179.100638 
L 224.338378 183.050047 
L 216.794403 189.994506 
z
" style="fill:#86581d;"/>
    <path clip-path="url(#p132231c2c1)" d="M 270.961723 188.120663 
L 270.97486 187.560495 
L 277.986222 180.654959 
L 277.971253 181.211726 
z
" style="fill:#0b0777;"/>
    <path clip-path="url(#p132231c2c1)" d="M 149.662704 187.831639 
L 149.574203 185.475242 
L 157.744686 178.586103 
L 157.822766 180.928173 
z
" style="fill:#1a057d;"/>
    <path clip-path="url(#p132231c2c1)" d="M 231.739835 176.23678 
L 244.670417 180.154631 
L 245.081668 139.782946 
L 231.88871 136.010888 
z
" style="fill:#ae386f;"/>
    <path clip-path="url(#p132231c2c1)" d="M 211.467294 179.100638 
L 218.949524 172.361429 
L 218.803629 118.112746 
L 211.115432 124.507644 
z
" style="fill:#602e26;"/>
    <path clip-path="url(#p132231c2c1)" d="M 211.467294 179.100638 
L 211.114316 124.334429 
L 218.803166 117.940668 
L 218.949524 172.361429 
z
" style="fill:#cd634f;"/>
    <path clip-path="url(#p132231c2c1)" d="M 237.351973 187.043183 
L 244.670417 180.154631 
L 257.743589 184.115686 
L 250.510457 191.080779 
z
" style="fill:#7a3931;"/>
    <path clip-path="url(#p132231c2c1)" d="M 170.430723 184.897786 
L 169.789828 161.224752 
L 177.820084 154.522884 
L 178.361455 178.049733 
z
" style="fill:#770693;"/>
    <path clip-path="url(#p132231c2c1)" d="M 149.662704 187.831639 
L 157.822766 180.928173 
L 170.430723 184.897786 
L 162.346885 191.878042 
z
" style="fill:#10034c;"/>
    <path clip-path="url(#p132231c2c1)" d="M 270.961723 188.120663 
L 277.971253 181.211726 
L 291.24765 185.184478 
L 284.327244 192.170297 
z
" style="fill:#070448;"/>
    <path clip-path="url(#p132231c2c1)" d="M 270.961723 188.120663 
L 277.971253 181.211726 
L 278.281222 169.682277 
L 271.233784 176.520167 
z
" style="fill:#210144;"/>
    <path clip-path="url(#p132231c2c1)" d="M 257.937437 172.556282 
L 271.233784 176.520167 
L 278.281222 169.682277 
L 265.072666 165.793664 
z
" style="fill:#3d027c;"/>
    <path clip-path="url(#p132231c2c1)" d="M 270.97486 187.560495 
L 284.344242 191.608153 
L 291.266427 184.625752 
L 277.986222 180.654959 
z
" style="fill:#0a0667;"/>
    <path clip-path="url(#p132231c2c1)" d="M 198.736391 175.194243 
L 211.467294 179.100638 
L 211.115432 124.507644 
L 198.040415 120.800429 
z
" style="fill:#cc6250;"/>
    <path clip-path="url(#p132231c2c1)" d="M 149.574203 185.475242 
L 162.273006 189.51332 
L 170.367093 182.547459 
L 157.744686 178.586103 
z
" style="fill:#17056d;"/>
    <path clip-path="url(#p132231c2c1)" d="M 257.743589 184.115686 
L 264.839875 177.282368 
L 265.590528 140.236173 
L 258.368743 146.836959 
z
" style="fill:#4e1638;"/>
    <path clip-path="url(#p132231c2c1)" d="M 183.178635 188.911464 
L 191.031582 181.987547 
L 203.841786 185.968896 
L 196.068846 192.969946 
z
" style="fill:#867213;"/>
    <path clip-path="url(#p132231c2c1)" d="M 257.743589 184.115686 
L 270.961723 188.120663 
L 271.233784 176.520167 
L 257.937437 172.556282 
z
" style="fill:#46028f;"/>
    <path clip-path="url(#p132231c2c1)" d="M 231.739835 176.23678 
L 231.946957 120.272376 
L 245.242596 123.984967 
L 244.670417 180.154631 
z
" style="fill:#623124;"/>
    <path clip-path="url(#p132231c2c1)" d="M 216.794403 189.994506 
L 224.338378 183.050047 
L 237.351973 187.043183 
L 229.891821 194.06512 
z
" style="fill:#875d1b;"/>
    <path clip-path="url(#p132231c2c1)" d="M 284.327244 192.170297 
L 291.24765 185.184478 
L 291.266427 184.625752 
L 284.344242 191.608153 
z
" style="fill:#050338;"/>
    <path clip-path="url(#p132231c2c1)" d="M 162.346885 191.878042 
L 170.430723 184.897786 
L 170.367093 182.547459 
L 162.273006 189.51332 
z
" style="fill:#0c033b;"/>
    <path clip-path="url(#p132231c2c1)" d="M 244.670417 180.154631 
L 257.743589 184.115686 
L 258.368743 146.836959 
L 245.048791 143.010411 
z
" style="fill:#a52e78;"/>
    <path clip-path="url(#p132231c2c1)" d="M 257.743589 184.115686 
L 258.010423 168.20405 
L 271.336222 172.15227 
L 270.961723 188.120663 
z
" style="fill:#2a0046;"/>
    <path clip-path="url(#p132231c2c1)" d="M 231.88871 136.010888 
L 245.081668 139.782946 
L 252.402306 133.27605 
L 239.294922 129.575846 
z
" style="fill:#973161;"/>
    <path clip-path="url(#p132231c2c1)" d="M 198.736391 175.194243 
L 197.861212 106.794848 
L 211.024816 110.448145 
L 211.467294 179.100638 
z
" style="fill:#694517;"/>
    <path clip-path="url(#p132231c2c1)" d="M 224.338378 183.050047 
L 231.739835 176.23678 
L 231.941981 121.616968 
L 224.338378 128.082925 
z
" style="fill:#612f25;"/>
    <path clip-path="url(#p132231c2c1)" d="M 250.510457 191.080779 
L 257.743589 184.115686 
L 270.961723 188.120663 
L 263.816264 195.163579 
z
" style="fill:#350059;"/>
    <path clip-path="url(#p132231c2c1)" d="M 224.338378 183.050047 
L 224.338378 126.729422 
L 231.946957 120.272376 
L 231.739835 176.23678 
z
" style="fill:#cf674c;"/>
    <path clip-path="url(#p132231c2c1)" d="M 183.178635 188.911464 
L 191.031582 181.987547 
L 190.637218 158.376453 
L 182.686548 165.153453 
z
" style="fill:#380345;"/>
    <path clip-path="url(#p132231c2c1)" d="M 270.961723 188.120663 
L 284.327244 192.170297 
L 284.344242 191.608153 
L 270.97486 187.560495 
z
" style="fill:#0b0777;"/>
    <path clip-path="url(#p132231c2c1)" d="M 149.662704 187.831639 
L 149.581844 185.67869 
L 162.279385 189.717488 
L 162.346885 191.878042 
z
" style="fill:#0b033b;"/>
    <path clip-path="url(#p132231c2c1)" d="M 149.662704 187.831639 
L 162.346885 191.878042 
L 162.273006 189.51332 
L 149.574203 185.475242 
z
" style="fill:#1a057d;"/>
    <path clip-path="url(#p132231c2c1)" d="M 270.961723 188.120663 
L 270.985646 187.10061 
L 284.358197 191.146643 
L 284.327244 192.170297 
z
" style="fill:#080339;"/>
    <path clip-path="url(#p132231c2c1)" d="M 162.346885 191.878042 
L 170.430723 184.897786 
L 183.178635 188.911464 
L 175.173234 195.969799 
z
" style="fill:#4e0857;"/>
    <path clip-path="url(#p132231c2c1)" d="M 250.510457 191.080779 
L 250.721546 175.070661 
L 258.010423 168.20405 
L 257.743589 184.115686 
z
" style="fill:#590094;"/>
    <path clip-path="url(#p132231c2c1)" d="M 191.031582 181.987547 
L 189.881806 113.148889 
L 197.861212 106.794848 
L 198.736391 175.194243 
z
" style="fill:#de9230;"/>
    <path clip-path="url(#p132231c2c1)" d="M 211.467294 179.100638 
L 224.338378 183.050047 
L 224.338378 128.082925 
L 211.114316 124.334429 
z
" style="fill:#cd634f;"/>
    <path clip-path="url(#p132231c2c1)" d="M 170.430723 184.897786 
L 183.178635 188.911464 
L 182.686548 165.153453 
L 169.789828 161.224752 
z
" style="fill:#770693;"/>
    <path clip-path="url(#p132231c2c1)" d="M 196.068846 192.969946 
L 203.841786 185.968896 
L 216.794403 189.994506 
L 209.103753 197.073984 
z
" style="fill:#876d14;"/>
    <path clip-path="url(#p132231c2c1)" d="M 170.430723 184.897786 
L 169.725777 158.858888 
L 182.637366 162.778923 
L 183.178635 188.911464 
z
" style="fill:#3d0644;"/>
    <path clip-path="url(#p132231c2c1)" d="M 141.344465 194.868925 
L 141.253725 192.70278 
L 149.581844 185.67869 
L 149.662704 187.831639 
z
" style="fill:#18057c;"/>
    <path clip-path="url(#p132231c2c1)" d="M 263.816264 195.163579 
L 263.836716 194.137279 
L 270.985646 187.10061 
L 270.961723 188.120663 
z
" style="fill:#110679;"/>
    <path clip-path="url(#p132231c2c1)" d="M 244.670417 180.154631 
L 245.216638 126.533203 
L 258.646103 130.297634 
L 257.743589 184.115686 
z
" style="fill:#602d27;"/>
    <path clip-path="url(#p132231c2c1)" d="M 169.789828 161.224752 
L 182.686548 165.153453 
L 190.637218 158.376453 
L 177.820084 154.522884 
z
" style="fill:#67057f;"/>
    <path clip-path="url(#p132231c2c1)" d="M 245.048791 143.010411 
L 258.368743 146.836959 
L 265.590528 140.236173 
L 252.358253 136.482805 
z
" style="fill:#8f2868;"/>
    <path clip-path="url(#p132231c2c1)" d="M 229.891821 194.06512 
L 237.351973 187.043183 
L 250.510457 191.080779 
L 243.136481 198.181496 
z
" style="fill:#86561f;"/>
    <path clip-path="url(#p132231c2c1)" d="M 198.040415 120.800429 
L 211.115432 124.507644 
L 218.803629 118.112746 
L 205.81148 114.476531 
z
" style="fill:#b15545;"/>
    <path clip-path="url(#p132231c2c1)" d="M 162.346885 191.878042 
L 161.528299 165.676654 
L 169.725777 158.858888 
L 170.430723 184.897786 
z
" style="fill:#810e90;"/>
    <path clip-path="url(#p132231c2c1)" d="M 237.351973 187.043183 
L 237.705027 133.08053 
L 245.216638 126.533203 
L 244.670417 180.154631 
z
" style="fill:#ca5f52;"/>
    <path clip-path="url(#p132231c2c1)" d="M 141.344465 194.868925 
L 149.662704 187.831639 
L 162.346885 191.878042 
L 154.105465 198.994368 
z
" style="fill:#0e034b;"/>
    <path clip-path="url(#p132231c2c1)" d="M 211.467294 179.100638 
L 211.025843 110.607416 
L 224.338378 114.302952 
L 224.338378 183.050047 
z
" style="fill:#694517;"/>
    <path clip-path="url(#p132231c2c1)" d="M 263.816264 195.163579 
L 270.961723 188.120663 
L 284.327244 192.170297 
L 277.271882 199.292348 
z
" style="fill:#0a0449;"/>
    <path clip-path="url(#p132231c2c1)" d="M 237.351973 187.043183 
L 244.670417 180.154631 
L 245.242596 123.984967 
L 237.721809 130.515386 
z
" style="fill:#623124;"/>
    <path clip-path="url(#p132231c2c1)" d="M 263.836716 194.137279 
L 277.29946 198.262419 
L 284.358197 191.146643 
L 270.985646 187.10061 
z
" style="fill:#0f0569;"/>
    <path clip-path="url(#p132231c2c1)" d="M 141.253725 192.70278 
L 154.028245 196.820556 
L 162.279385 189.717488 
L 149.581844 185.67869 
z
" style="fill:#15056c;"/>
    <path clip-path="url(#p132231c2c1)" d="M 175.173234 195.969799 
L 183.178635 188.911464 
L 196.068846 192.969946 
L 188.144156 200.107676 
z
" style="fill:#876d14;"/>
    <path clip-path="url(#p132231c2c1)" d="M 263.816264 195.163579 
L 270.961723 188.120663 
L 271.336222 172.15227 
L 264.136467 179.096225 
z
" style="fill:#2a0046;"/>
    <path clip-path="url(#p132231c2c1)" d="M 203.841786 185.968896 
L 203.131832 117.035071 
L 211.025843 110.607416 
L 211.467294 179.100638 
z
" style="fill:#de9230;"/>
    <path clip-path="url(#p132231c2c1)" d="M 203.841786 185.968896 
L 211.467294 179.100638 
L 211.024816 110.448145 
L 203.130181 116.874722 
z
" style="fill:#694517;"/>
    <path clip-path="url(#p132231c2c1)" d="M 224.338378 183.050047 
L 237.351973 187.043183 
L 237.721809 130.515386 
L 224.338378 126.729422 
z
" style="fill:#cf674c;"/>
    <path clip-path="url(#p132231c2c1)" d="M 250.721546 175.070661 
L 264.136467 179.096225 
L 271.336222 172.15227 
L 258.010423 168.20405 
z
" style="fill:#4d0080;"/>
    <path clip-path="url(#p132231c2c1)" d="M 209.103753 197.073984 
L 216.794403 189.994506 
L 229.891821 194.06512 
L 222.285805 201.224351 
z
" style="fill:#857613;"/>
    <path clip-path="url(#p132231c2c1)" d="M 154.105465 198.994368 
L 162.346885 191.878042 
L 162.279385 189.717488 
L 154.028245 196.820556 
z
" style="fill:#0b033b;"/>
    <path clip-path="url(#p132231c2c1)" d="M 277.271882 199.292348 
L 284.327244 192.170297 
L 284.358197 191.146643 
L 277.29946 198.262419 
z
" style="fill:#080339;"/>
    <path clip-path="url(#p132231c2c1)" d="M 250.510457 191.080779 
L 263.816264 195.163579 
L 264.136467 179.096225 
L 250.721546 175.070661 
z
" style="fill:#590094;"/>
    <path clip-path="url(#p132231c2c1)" d="M 191.031582 181.987547 
L 203.841786 185.968896 
L 203.130181 116.874722 
L 189.881806 113.148889 
z
" style="fill:#de9230;"/>
    <path clip-path="url(#p132231c2c1)" d="M 243.136481 198.181496 
L 250.510457 191.080779 
L 263.816264 195.163579 
L 256.530882 202.34441 
z
" style="fill:#3f015a;"/>
    <path clip-path="url(#p132231c2c1)" d="M 250.510457 191.080779 
L 250.775339 170.990668 
L 264.218071 175.001414 
L 263.816264 195.163579 
z
" style="fill:#310046;"/>
    <path clip-path="url(#p132231c2c1)" d="M 175.173234 195.969799 
L 183.178635 188.911464 
L 182.637366 162.778923 
L 174.520331 169.673961 
z
" style="fill:#3d0644;"/>
    <path clip-path="url(#p132231c2c1)" d="M 211.114316 124.334429 
L 224.338378 128.082925 
L 231.941981 121.616968 
L 218.803166 117.940668 
z
" style="fill:#b25644;"/>
    <path clip-path="url(#p132231c2c1)" d="M 141.344465 194.868925 
L 154.105465 198.994368 
L 154.028245 196.820556 
L 141.253725 192.70278 
z
" style="fill:#18057c;"/>
    <path clip-path="url(#p132231c2c1)" d="M 263.816264 195.163579 
L 277.271882 199.292348 
L 277.29946 198.262419 
L 263.836716 194.137279 
z
" style="fill:#110679;"/>
    <path clip-path="url(#p132231c2c1)" d="M 250.510457 191.080779 
L 257.743589 184.115686 
L 258.646103 130.297634 
L 251.224556 136.919691 
z
" style="fill:#602d27;"/>
    <path clip-path="url(#p132231c2c1)" d="M 154.105465 198.994368 
L 162.346885 191.878042 
L 175.173234 195.969799 
L 167.010898 203.166503 
z
" style="fill:#4a0558;"/>
    <path clip-path="url(#p132231c2c1)" d="M 263.816264 195.163579 
L 263.850339 193.453709 
L 277.317829 197.576428 
L 277.271882 199.292348 
z
" style="fill:#0a033a;"/>
    <path clip-path="url(#p132231c2c1)" d="M 224.338378 183.050047 
L 224.338378 112.196716 
L 237.817259 115.926352 
L 237.351973 187.043183 
z
" style="fill:#694815;"/>
    <path clip-path="url(#p132231c2c1)" d="M 243.136481 198.181496 
L 243.328605 177.966361 
L 250.775339 170.990668 
L 250.510457 191.080779 
z
" style="fill:#690195;"/>
    <path clip-path="url(#p132231c2c1)" d="M 191.031582 181.987547 
L 189.701603 102.35989 
L 203.018627 106.043286 
L 203.841786 185.968896 
z
" style="fill:#69590f;"/>
    <path clip-path="url(#p132231c2c1)" d="M 162.346885 191.878042 
L 161.573983 167.138914 
L 174.556771 171.141594 
L 175.173234 195.969799 
z
" style="fill:#3a0445;"/>
    <path clip-path="url(#p132231c2c1)" d="M 188.144156 200.107676 
L 196.068846 192.969946 
L 209.103753 197.073984 
L 201.262108 204.292457 
z
" style="fill:#827d15;"/>
    <path clip-path="url(#p132231c2c1)" d="M 162.346885 191.878042 
L 175.173234 195.969799 
L 174.520331 169.673961 
L 161.528299 165.676654 
z
" style="fill:#810e90;"/>
    <path clip-path="url(#p132231c2c1)" d="M 237.351973 187.043183 
L 250.510457 191.080779 
L 251.224556 136.919691 
L 237.705027 133.08053 
z
" style="fill:#ca5f52;"/>
    <path clip-path="url(#p132231c2c1)" d="M 256.530882 202.34441 
L 256.558941 200.624042 
L 263.850339 193.453709 
L 263.816264 195.163579 
z
" style="fill:#16067b;"/>
    <path clip-path="url(#p132231c2c1)" d="M 216.794403 189.994506 
L 224.338378 183.050047 
L 224.338378 114.302952 
L 216.531594 120.804399 
z
" style="fill:#694517;"/>
    <path clip-path="url(#p132231c2c1)" d="M 216.794403 189.994506 
L 216.52354 118.683865 
L 224.338378 112.196716 
L 224.338378 183.050047 
z
" style="fill:#df992c;"/>
    <path clip-path="url(#p132231c2c1)" d="M 222.285805 201.224351 
L 229.891821 194.06512 
L 243.136481 198.181496 
L 235.617509 205.421836 
z
" style="fill:#876218;"/>
    <path clip-path="url(#p132231c2c1)" d="M 183.178635 188.911464 
L 181.51864 108.766686 
L 189.701603 102.35989 
L 191.031582 181.987547 
z
" style="fill:#debc20;"/>
    <path clip-path="url(#p132231c2c1)" d="M 161.528299 165.676654 
L 174.520331 169.673961 
L 182.637366 162.778923 
L 169.725777 158.858888 
z
" style="fill:#700c7d;"/>
    <path clip-path="url(#p132231c2c1)" d="M 154.105465 198.994368 
L 153.221169 174.100679 
L 161.573983 167.138914 
L 162.346885 191.878042 
z
" style="fill:#7b0992;"/>
    <path clip-path="url(#p132231c2c1)" d="M 203.841786 185.968896 
L 216.794403 189.994506 
L 216.531594 120.804399 
L 203.131832 117.035071 
z
" style="fill:#de9230;"/>
    <path clip-path="url(#p132231c2c1)" d="M 256.530882 202.34441 
L 263.816264 195.163579 
L 277.271882 199.292348 
L 270.077576 206.554656 
z
" style="fill:#0d034a;"/>
    <path clip-path="url(#p132231c2c1)" d="M 256.558941 200.624042 
L 270.117669 204.828191 
L 277.317829 197.576428 
L 263.850339 193.453709 
z
" style="fill:#13056b;"/>
    <path clip-path="url(#p132231c2c1)" d="M 237.351973 187.043183 
L 237.797213 118.990343 
L 251.41105 122.774997 
L 250.510457 191.080779 
z
" style="fill:#694318;"/>
    <path clip-path="url(#p132231c2c1)" d="M 167.010898 203.166503 
L 175.173234 195.969799 
L 188.144156 200.107676 
L 180.063228 207.386128 
z
" style="fill:#876118;"/>
    <path clip-path="url(#p132231c2c1)" d="M 224.338378 126.729422 
L 237.721809 130.515386 
L 245.242596 123.984967 
L 231.946957 120.272376 
z
" style="fill:#b45a42;"/>
    <path clip-path="url(#p132231c2c1)" d="M 203.841786 185.968896 
L 203.037974 107.921763 
L 216.496842 111.655215 
L 216.794403 189.994506 
z
" style="fill:#695510;"/>
    <path clip-path="url(#p132231c2c1)" d="M 256.530882 202.34441 
L 263.816264 195.163579 
L 264.218071 175.001414 
L 256.86178 182.056617 
z
" style="fill:#310046;"/>
    <path clip-path="url(#p132231c2c1)" d="M 201.262108 204.292457 
L 209.103753 197.073984 
L 222.285805 201.224351 
L 214.529606 208.524945 
z
" style="fill:#808512;"/>
    <path clip-path="url(#p132231c2c1)" d="M 229.891821 194.06512 
L 230.083726 125.573306 
L 237.797213 118.990343 
L 237.351973 187.043183 
z
" style="fill:#de8e33;"/>
    <path clip-path="url(#p132231c2c1)" d="M 270.077576 206.554656 
L 277.271882 199.292348 
L 277.317829 197.576428 
L 270.117669 204.828191 
z
" style="fill:#0a033a;"/>
    <path clip-path="url(#p132231c2c1)" d="M 229.891821 194.06512 
L 237.351973 187.043183 
L 237.817259 115.926352 
L 230.09237 122.488483 
z
" style="fill:#694815;"/>
    <path clip-path="url(#p132231c2c1)" d="M 196.068846 192.969946 
L 194.949061 114.415759 
L 203.037974 107.921763 
L 203.841786 185.968896 
z
" style="fill:#dfb521;"/>
    <path clip-path="url(#p132231c2c1)" d="M 235.617509 205.421836 
L 243.136481 198.181496 
L 256.530882 202.34441 
L 249.101427 209.667246 
z
" style="fill:#490458;"/>
    <path clip-path="url(#p132231c2c1)" d="M 243.136481 198.181496 
L 256.530882 202.34441 
L 256.86178 182.056617 
L 243.328605 177.966361 
z
" style="fill:#690195;"/>
    <path clip-path="url(#p132231c2c1)" d="M 196.068846 192.969946 
L 203.841786 185.968896 
L 203.018627 106.043286 
L 194.922099 112.524343 
z
" style="fill:#69590f;"/>
    <path clip-path="url(#p132231c2c1)" d="M 243.328605 177.966361 
L 256.86178 182.056617 
L 264.218071 175.001414 
L 250.775339 170.990668 
z
" style="fill:#5b0181;"/>
    <path clip-path="url(#p132231c2c1)" d="M 167.010898 203.166503 
L 175.173234 195.969799 
L 174.556771 171.141594 
L 166.284956 178.182986 
z
" style="fill:#3a0445;"/>
    <path clip-path="url(#p132231c2c1)" d="M 243.136481 198.181496 
L 243.365334 174.101719 
L 256.925044 178.177818 
L 256.530882 202.34441 
z
" style="fill:#390345;"/>
    <path clip-path="url(#p132231c2c1)" d="M 256.530882 202.34441 
L 270.077576 206.554656 
L 270.117669 204.828191 
L 256.558941 200.624042 
z
" style="fill:#16067b;"/>
    <path clip-path="url(#p132231c2c1)" d="M 256.530882 202.34441 
L 256.559972 200.560826 
L 270.119143 204.764749 
L 270.077576 206.554656 
z
" style="fill:#0a033a;"/>
    <path clip-path="url(#p132231c2c1)" d="M 216.794403 189.994506 
L 229.891821 194.06512 
L 230.09237 122.488483 
L 216.52354 118.683865 
z
" style="fill:#df992c;"/>
    <path clip-path="url(#p132231c2c1)" d="M 237.705027 133.08053 
L 251.224556 136.919691 
L 258.646103 130.297634 
L 245.216638 126.533203 
z
" style="fill:#b05247;"/>
    <path clip-path="url(#p132231c2c1)" d="M 189.881806 113.148889 
L 203.130181 116.874722 
L 211.024816 110.448145 
L 197.861212 106.794848 
z
" style="fill:#c17e2a;"/>
    <path clip-path="url(#p132231c2c1)" d="M 183.178635 188.911464 
L 181.552847 110.418189 
L 194.945735 114.18241 
L 196.068846 192.969946 
z
" style="fill:#695510;"/>
    <path clip-path="url(#p132231c2c1)" d="M 183.178635 188.911464 
L 196.068846 192.969946 
L 194.922099 112.524343 
L 181.51864 108.766686 
z
" style="fill:#debc20;"/>
    <path clip-path="url(#p132231c2c1)" d="M 154.105465 198.994368 
L 167.010898 203.166503 
L 166.284956 178.182986 
L 153.221169 174.100679 
z
" style="fill:#7b0992;"/>
    <path clip-path="url(#p132231c2c1)" d="M 180.063228 207.386128 
L 188.144156 200.107676 
L 201.262108 204.292457 
L 193.264978 211.654059 
z
" style="fill:#876c14;"/>
    <path clip-path="url(#p132231c2c1)" d="M 235.617509 205.421836 
L 235.75619 181.191427 
L 243.365334 174.101719 
L 243.136481 198.181496 
z
" style="fill:#780792;"/>
    <path clip-path="url(#p132231c2c1)" d="M 249.101427 209.667246 
L 249.124025 207.872692 
L 256.559972 200.560826 
L 256.530882 202.34441 
z
" style="fill:#16067b;"/>
    <path clip-path="url(#p132231c2c1)" d="M 153.221169 174.100679 
L 166.284956 178.182986 
L 174.556771 171.141594 
L 161.573983 167.138914 
z
" style="fill:#6b087e;"/>
    <path clip-path="url(#p132231c2c1)" d="M 175.173234 195.969799 
L 173.211635 116.965827 
L 181.552847 110.418189 
L 183.178635 188.911464 
z
" style="fill:#dfb521;"/>
    <path clip-path="url(#p132231c2c1)" d="M 214.529606 208.524945 
L 222.285805 201.224351 
L 235.617509 205.421836 
L 227.94922 212.80596 
z
" style="fill:#857313;"/>
    <path clip-path="url(#p132231c2c1)" d="M 216.794403 189.994506 
L 216.483388 108.112998 
L 230.122105 111.87574 
L 229.891821 194.06512 
z
" style="fill:#685c0f;"/>
    <path clip-path="url(#p132231c2c1)" d="M 243.136481 198.181496 
L 250.510457 191.080779 
L 251.41105 122.774997 
L 243.789849 129.434377 
z
" style="fill:#694318;"/>
    <path clip-path="url(#p132231c2c1)" d="M 209.103753 197.073984 
L 216.794403 189.994506 
L 216.496842 111.655215 
L 208.496772 118.224851 
z
" style="fill:#695510;"/>
    <path clip-path="url(#p132231c2c1)" d="M 249.101427 209.667246 
L 256.530882 202.34441 
L 270.077576 206.554656 
L 262.740181 213.961405 
z
" style="fill:#0d034a;"/>
    <path clip-path="url(#p132231c2c1)" d="M 209.103753 197.073984 
L 208.469316 114.658152 
L 216.483388 108.112998 
L 216.794403 189.994506 
z
" style="fill:#dcc420;"/>
    <path clip-path="url(#p132231c2c1)" d="M 249.124025 207.872692 
L 262.775427 212.160481 
L 270.119143 204.764749 
L 256.559972 200.560826 
z
" style="fill:#13056b;"/>
    <path clip-path="url(#p132231c2c1)" d="M 229.891821 194.06512 
L 243.136481 198.181496 
L 243.789849 129.434377 
L 230.083726 125.573306 
z
" style="fill:#de8e33;"/>
    <path clip-path="url(#p132231c2c1)" d="M 203.131832 117.035071 
L 216.531594 120.804399 
L 224.338378 114.302952 
L 211.025843 110.607416 
z
" style="fill:#c17e2a;"/>
    <path clip-path="url(#p132231c2c1)" d="M 196.068846 192.969946 
L 209.103753 197.073984 
L 208.496772 118.224851 
L 194.949061 114.415759 
z
" style="fill:#dfb521;"/>
    <path clip-path="url(#p132231c2c1)" d="M 229.891821 194.06512 
L 230.099837 119.82336 
L 243.844712 123.661782 
L 243.136481 198.181496 
z
" style="fill:#6a4d13;"/>
    <path clip-path="url(#p132231c2c1)" d="M 193.264978 211.654059 
L 201.262108 204.292457 
L 214.529606 208.524945 
L 206.61873 215.971129 
z
" style="fill:#857613;"/>
    <path clip-path="url(#p132231c2c1)" d="M 249.101427 209.667246 
L 256.530882 202.34441 
L 256.925044 178.177818 
L 249.407658 185.349302 
z
" style="fill:#390345;"/>
    <path clip-path="url(#p132231c2c1)" d="M 262.740181 213.961405 
L 270.077576 206.554656 
L 270.119143 204.764749 
L 262.775427 212.160481 
z
" style="fill:#0a033a;"/>
    <path clip-path="url(#p132231c2c1)" d="M 196.068846 192.969946 
L 194.856186 107.900469 
L 208.446417 111.683524 
L 209.103753 197.073984 
z
" style="fill:#666210;"/>
    <path clip-path="url(#p132231c2c1)" d="M 188.144156 200.107676 
L 196.068846 192.969946 
L 194.945735 114.18241 
L 186.691607 120.806649 
z
" style="fill:#695510;"/>
    <path clip-path="url(#p132231c2c1)" d="M 227.94922 212.80596 
L 235.617509 205.421836 
L 249.101427 209.667246 
L 241.523583 217.136342 
z
" style="fill:#4f0956;"/>
    <path clip-path="url(#p132231c2c1)" d="M 222.285805 201.224351 
L 222.208142 126.500213 
L 230.099837 119.82336 
L 229.891821 194.06512 
z
" style="fill:#e0a327;"/>
    <path clip-path="url(#p132231c2c1)" d="M 175.173234 195.969799 
L 173.350474 122.557644 
L 186.794439 126.420664 
L 188.144156 200.107676 
z
" style="fill:#6a4c13;"/>
    <path clip-path="url(#p132231c2c1)" d="M 235.617509 205.421836 
L 249.101427 209.667246 
L 249.407658 185.349302 
L 235.75619 181.191427 
z
" style="fill:#780792;"/>
    <path clip-path="url(#p132231c2c1)" d="M 249.101427 209.667246 
L 262.740181 213.961405 
L 262.775427 212.160481 
L 249.124025 207.872692 
z
" style="fill:#16067b;"/>
    <path clip-path="url(#p132231c2c1)" d="M 249.101427 209.667246 
L 249.128127 207.547002 
L 262.781824 211.833631 
L 262.740181 213.961405 
z
" style="fill:#0b033b;"/>
    <path clip-path="url(#p132231c2c1)" d="M 188.144156 200.107676 
L 186.575743 114.481116 
L 194.856186 107.900469 
L 196.068846 192.969946 
z
" style="fill:#d8d022;"/>
    <path clip-path="url(#p132231c2c1)" d="M 235.617509 205.421836 
L 235.771247 178.560681 
L 249.440909 182.708847 
L 249.101427 209.667246 
z
" style="fill:#3e0743;"/>
    <path clip-path="url(#p132231c2c1)" d="M 175.173234 195.969799 
L 188.144156 200.107676 
L 186.691607 120.806649 
L 173.211635 116.965827 
z
" style="fill:#dfb521;"/>
    <path clip-path="url(#p132231c2c1)" d="M 222.285805 201.224351 
L 229.891821 194.06512 
L 230.122105 111.87574 
L 222.199824 118.49771 
z
" style="fill:#685c0f;"/>
    <path clip-path="url(#p132231c2c1)" d="M 235.75619 181.191427 
L 249.407658 185.349302 
L 256.925044 178.177818 
L 243.365334 174.101719 
z
" style="fill:#69067f;"/>
    <path clip-path="url(#p132231c2c1)" d="M 167.010898 203.166503 
L 164.863913 129.277348 
L 173.350474 122.557644 
L 175.173234 195.969799 
z
" style="fill:#e0a029;"/>
    <path clip-path="url(#p132231c2c1)" d="M 241.523583 217.136342 
L 241.542297 215.003034 
L 249.128127 207.547002 
L 249.101427 209.667246 
z
" style="fill:#18057c;"/>
    <path clip-path="url(#p132231c2c1)" d="M 227.94922 212.80596 
L 227.998933 185.776082 
L 235.771247 178.560681 
L 235.617509 205.421836 
z
" style="fill:#820e8f;"/>
    <path clip-path="url(#p132231c2c1)" d="M 206.61873 215.971129 
L 214.529606 208.524945 
L 227.94922 212.80596 
L 220.127123 220.338193 
z
" style="fill:#876a15;"/>
    <path clip-path="url(#p132231c2c1)" d="M 209.103753 197.073984 
L 222.285805 201.224351 
L 222.199824 118.49771 
L 208.469316 114.658152 
z
" style="fill:#dcc420;"/>
    <path clip-path="url(#p132231c2c1)" d="M 216.52354 118.683865 
L 230.09237 122.488483 
L 237.817259 115.926352 
L 224.338378 112.196716 
z
" style="fill:#c28526;"/>
    <path clip-path="url(#p132231c2c1)" d="M 241.523583 217.136342 
L 249.101427 209.667246 
L 262.740181 213.961405 
L 255.255385 221.516949 
z
" style="fill:#0e034b;"/>
    <path clip-path="url(#p132231c2c1)" d="M 209.103753 197.073984 
L 208.422991 108.640423 
L 222.193545 112.455764 
L 222.285805 201.224351 
z
" style="fill:#64680e;"/>
    <path clip-path="url(#p132231c2c1)" d="M 235.617509 205.421836 
L 243.136481 198.181496 
L 243.844712 123.661782 
L 236.046794 130.417152 
z
" style="fill:#6a4d13;"/>
    <path clip-path="url(#p132231c2c1)" d="M 241.542297 215.003034 
L 255.289249 219.376054 
L 262.781824 211.833631 
L 249.128127 207.547002 
z
" style="fill:#15056c;"/>
    <path clip-path="url(#p132231c2c1)" d="M 181.51864 108.766686 
L 194.922099 112.524343 
L 203.018627 106.043286 
L 189.701603 102.35989 
z
" style="fill:#c0a31c;"/>
    <path clip-path="url(#p132231c2c1)" d="M 201.262108 204.292457 
L 209.103753 197.073984 
L 208.446417 111.683524 
L 200.256224 118.34185 
z
" style="fill:#666210;"/>
    <path clip-path="url(#p132231c2c1)" d="M 188.144156 200.107676 
L 186.698377 121.176229 
L 200.334892 125.063822 
L 201.262108 204.292457 
z
" style="fill:#695510;"/>
    <path clip-path="url(#p132231c2c1)" d="M 201.262108 204.292457 
L 200.220362 115.277443 
L 208.422991 108.640423 
L 209.103753 197.073984 
z
" style="fill:#d4dc1e;"/>
    <path clip-path="url(#p132231c2c1)" d="M 222.285805 201.224351 
L 235.617509 205.421836 
L 236.046794 130.417152 
L 222.208142 126.500213 
z
" style="fill:#e0a327;"/>
    <path clip-path="url(#p132231c2c1)" d="M 180.063228 207.386128 
L 188.144156 200.107676 
L 186.794439 126.420664 
L 178.395276 133.219568 
z
" style="fill:#6a4c13;"/>
    <path clip-path="url(#p132231c2c1)" d="M 230.083726 125.573306 
L 243.789849 129.434377 
L 251.41105 122.774997 
L 237.797213 118.990343 
z
" style="fill:#c07b2c;"/>
    <path clip-path="url(#p132231c2c1)" d="M 255.255385 221.516949 
L 262.740181 213.961405 
L 262.781824 211.833631 
L 255.289249 219.376054 
z
" style="fill:#0b033b;"/>
    <path clip-path="url(#p132231c2c1)" d="M 188.144156 200.107676 
L 201.262108 204.292457 
L 200.256224 118.34185 
L 186.575743 114.481116 
z
" style="fill:#d8d022;"/>
    <path clip-path="url(#p132231c2c1)" d="M 241.523583 217.136342 
L 249.101427 209.667246 
L 249.440909 182.708847 
L 241.761564 190.008425 
z
" style="fill:#3e0743;"/>
    <path clip-path="url(#p132231c2c1)" d="M 180.063228 207.386128 
L 178.276519 127.938923 
L 186.698377 121.176229 
L 188.144156 200.107676 
z
" style="fill:#dfb321;"/>
    <path clip-path="url(#p132231c2c1)" d="M 222.285805 201.224351 
L 222.200972 119.60205 
L 236.086433 123.491466 
L 235.617509 205.421836 
z
" style="fill:#685a0f;"/>
    <path clip-path="url(#p132231c2c1)" d="M 220.127123 220.338193 
L 227.94922 212.80596 
L 241.523583 217.136342 
L 233.792858 224.756123 
z
" style="fill:#4d0757;"/>
    <path clip-path="url(#p132231c2c1)" d="M 167.010898 203.166503 
L 180.063228 207.386128 
L 178.395276 133.219568 
L 164.863913 129.277348 
z
" style="fill:#e0a029;"/>
    <path clip-path="url(#p132231c2c1)" d="M 241.523583 217.136342 
L 255.255385 221.516949 
L 255.289249 219.376054 
L 241.542297 215.003034 
z
" style="fill:#18057c;"/>
    <path clip-path="url(#p132231c2c1)" d="M 241.523583 217.136342 
L 241.542893 214.935093 
L 255.290328 219.30787 
L 255.255385 221.516949 
z
" style="fill:#0b033b;"/>
    <path clip-path="url(#p132231c2c1)" d="M 227.94922 212.80596 
L 227.997102 186.771434 
L 241.7528 191.007464 
L 241.523583 217.136342 
z
" style="fill:#3c0544;"/>
    <path clip-path="url(#p132231c2c1)" d="M 227.94922 212.80596 
L 241.523583 217.136342 
L 241.761564 190.008425 
L 227.998933 185.776082 
z
" style="fill:#820e8f;"/>
    <path clip-path="url(#p132231c2c1)" d="M 214.529606 208.524945 
L 214.120038 126.368 
L 222.200972 119.60205 
L 222.285805 201.224351 
z
" style="fill:#ddbf20;"/>
    <path clip-path="url(#p132231c2c1)" d="M 194.949061 114.415759 
L 208.496772 118.224851 
L 216.496842 111.655215 
L 203.037974 107.921763 
z
" style="fill:#c19d1d;"/>
    <path clip-path="url(#p132231c2c1)" d="M 233.792858 224.756123 
L 233.803589 222.541293 
L 241.542893 214.935093 
L 241.523583 217.136342 
z
" style="fill:#18057c;"/>
    <path clip-path="url(#p132231c2c1)" d="M 227.998933 185.776082 
L 241.761564 190.008425 
L 249.440909 182.708847 
L 235.771247 178.560681 
z
" style="fill:#710d7c;"/>
    <path clip-path="url(#p132231c2c1)" d="M 220.127123 220.338193 
L 220.070711 194.139969 
L 227.997102 186.771434 
L 227.94922 212.80596 
z
" style="fill:#7f0c90;"/>
    <path clip-path="url(#p132231c2c1)" d="M 214.529606 208.524945 
L 222.285805 201.224351 
L 222.193545 112.455764 
L 214.084164 119.171711 
z
" style="fill:#64680e;"/>
    <path clip-path="url(#p132231c2c1)" d="M 201.262108 204.292457 
L 200.290596 121.278808 
L 214.114202 125.197325 
L 214.529606 208.524945 
z
" style="fill:#685c0f;"/>
    <path clip-path="url(#p132231c2c1)" d="M 193.264978 211.654059 
L 201.262108 204.292457 
L 200.334892 125.063822 
L 192.003553 131.906903 
z
" style="fill:#695510;"/>
    <path clip-path="url(#p132231c2c1)" d="M 233.792858 224.756123 
L 241.523583 217.136342 
L 255.255385 221.516949 
L 247.618703 229.225814 
z
" style="fill:#0e034b;"/>
    <path clip-path="url(#p132231c2c1)" d="M 201.262108 204.292457 
L 214.529606 208.524945 
L 214.084164 119.171711 
L 200.220362 115.277443 
z
" style="fill:#d4dc1e;"/>
    <path clip-path="url(#p132231c2c1)" d="M 173.211635 116.965827 
L 186.691607 120.806649 
L 194.945735 114.18241 
L 181.552847 110.418189 
z
" style="fill:#c19d1d;"/>
    <path clip-path="url(#p132231c2c1)" d="M 193.264978 211.654059 
L 191.943265 128.095527 
L 200.290596 121.278808 
L 201.262108 204.292457 
z
" style="fill:#dcc420;"/>
    <path clip-path="url(#p132231c2c1)" d="M 233.803589 222.541293 
L 247.645281 227.003098 
L 255.290328 219.30787 
L 241.542893 214.935093 
z
" style="fill:#15056c;"/>
    <path clip-path="url(#p132231c2c1)" d="M 180.063228 207.386128 
L 193.264978 211.654059 
L 192.003553 131.906903 
L 178.276519 127.938923 
z
" style="fill:#dfb321;"/>
    <path clip-path="url(#p132231c2c1)" d="M 227.94922 212.80596 
L 235.617509 205.421836 
L 236.086433 123.491466 
L 228.100892 130.338074 
z
" style="fill:#685a0f;"/>
    <path clip-path="url(#p132231c2c1)" d="M 214.529606 208.524945 
L 214.139503 130.27252 
L 228.093682 134.258265 
L 227.94922 212.80596 
z
" style="fill:#695310;"/>
    <path clip-path="url(#p132231c2c1)" d="M 247.618703 229.225814 
L 255.255385 221.516949 
L 255.290328 219.30787 
L 247.645281 227.003098 
z
" style="fill:#0b033b;"/>
    <path clip-path="url(#p132231c2c1)" d="M 233.792858 224.756123 
L 241.523583 217.136342 
L 241.7528 191.007464 
L 233.920252 198.462796 
z
" style="fill:#3c0544;"/>
    <path clip-path="url(#p132231c2c1)" d="M 208.469316 114.658152 
L 222.199824 118.49771 
L 230.122105 111.87574 
L 216.483388 108.112998 
z
" style="fill:#bfaa1c;"/>
    <path clip-path="url(#p132231c2c1)" d="M 214.529606 208.524945 
L 227.94922 212.80596 
L 228.100892 130.338074 
L 214.120038 126.368 
z
" style="fill:#ddbf20;"/>
    <path clip-path="url(#p132231c2c1)" d="M 206.61873 215.971129 
L 205.906696 137.206296 
L 214.139503 130.27252 
L 214.529606 208.524945 
z
" style="fill:#e0af22;"/>
    <path clip-path="url(#p132231c2c1)" d="M 233.792858 224.756123 
L 247.618703 229.225814 
L 247.645281 227.003098 
L 233.803589 222.541293 
z
" style="fill:#18057c;"/>
    <path clip-path="url(#p132231c2c1)" d="M 222.208142 126.500213 
L 236.046794 130.417152 
L 243.844712 123.661782 
L 230.099837 119.82336 
z
" style="fill:#c28d22;"/>
    <path clip-path="url(#p132231c2c1)" d="M 220.127123 220.338193 
L 233.792858 224.756123 
L 233.920252 198.462796 
L 220.070711 194.139969 
z
" style="fill:#7f0c90;"/>
    <path clip-path="url(#p132231c2c1)" d="M 206.61873 215.971129 
L 214.529606 208.524945 
L 214.114202 125.197325 
L 205.860496 132.09571 
z
" style="fill:#685c0f;"/>
    <path clip-path="url(#p132231c2c1)" d="M 220.070711 194.139969 
L 233.920252 198.462796 
L 241.7528 191.007464 
L 227.997102 186.771434 
z
" style="fill:#6e0a7d;"/>
    <path clip-path="url(#p132231c2c1)" d="M 164.863913 129.277348 
L 178.395276 133.219568 
L 186.794439 126.420664 
L 173.350474 122.557644 
z
" style="fill:#c28b23;"/>
    <path clip-path="url(#p132231c2c1)" d="M 193.264978 211.654059 
L 206.61873 215.971129 
L 205.860496 132.09571 
L 191.943265 128.095527 
z
" style="fill:#dcc420;"/>
    <path clip-path="url(#p132231c2c1)" d="M 186.575743 114.481116 
L 200.256224 118.34185 
L 208.446417 111.683524 
L 194.856186 107.900469 
z
" style="fill:#bcb41e;"/>
    <path clip-path="url(#p132231c2c1)" d="M 220.127123 220.338193 
L 227.94922 212.80596 
L 228.093682 134.258265 
L 219.956881 141.275401 
z
" style="fill:#695310;"/>
    <path clip-path="url(#p132231c2c1)" d="M 206.61873 215.971129 
L 220.127123 220.338193 
L 219.956881 141.275401 
L 205.906696 137.206296 
z
" style="fill:#e0af22;"/>
    <path clip-path="url(#p132231c2c1)" d="M 178.276519 127.938923 
L 192.003553 131.906903 
L 200.334892 125.063822 
L 186.698377 121.176229 
z
" style="fill:#c29c1d;"/>
    <path clip-path="url(#p132231c2c1)" d="M 200.220362 115.277443 
L 214.084164 119.171711 
L 222.193545 112.455764 
L 208.422991 108.640423 
z
" style="fill:#b8bf1a;"/>
    <path clip-path="url(#p132231c2c1)" d="M 214.120038 126.368 
L 228.100892 130.338074 
L 236.086433 123.491466 
L 222.200972 119.60205 
z
" style="fill:#c0a61c;"/>
    <path clip-path="url(#p132231c2c1)" d="M 191.943265 128.095527 
L 205.860496 132.09571 
L 214.114202 125.197325 
L 200.290596 121.278808 
z
" style="fill:#bfaa1c;"/>
    <path clip-path="url(#p132231c2c1)" d="M 205.906696 137.206296 
L 219.956881 141.275401 
L 228.093682 134.258265 
L 214.139503 130.27252 
z
" style="fill:#c2981e;"/>
   </g>
   <g id="text_16">
    <!-- W15__H45__A000_bars_extracted.txt -->
    <g transform="translate(110.101875 28.56)scale(0.12 -0.12)">
     <defs>
      <path d="M 3.328125 72.90625 
L 13.28125 72.90625 
L 28.609375 11.28125 
L 43.890625 72.90625 
L 54.984375 72.90625 
L 70.3125 11.28125 
L 85.59375 72.90625 
L 95.609375 72.90625 
L 77.296875 0 
L 64.890625 0 
L 49.515625 63.28125 
L 33.984375 0 
L 21.578125 0 
z
" id="DejaVuSans-87"/>
      <path d="M 50.984375 -16.609375 
L 50.984375 -23.578125 
L -0.984375 -23.578125 
L -0.984375 -16.609375 
z
" id="DejaVuSans-95"/>
      <path d="M 9.8125 72.90625 
L 19.671875 72.90625 
L 19.671875 43.015625 
L 55.515625 43.015625 
L 55.515625 72.90625 
L 65.375 72.90625 
L 65.375 0 
L 55.515625 0 
L 55.515625 34.71875 
L 19.671875 34.71875 
L 19.671875 0 
L 9.8125 0 
z
" id="DejaVuSans-72"/>
      <path d="M 34.1875 63.1875 
L 20.796875 26.90625 
L 47.609375 26.90625 
z
M 28.609375 72.90625 
L 39.796875 72.90625 
L 67.578125 0 
L 57.328125 0 
L 50.6875 18.703125 
L 17.828125 18.703125 
L 11.1875 0 
L 0.78125 0 
z
" id="DejaVuSans-65"/>
      <path d="M 48.6875 27.296875 
Q 48.6875 37.203125 44.609375 42.84375 
Q 40.53125 48.484375 33.40625 48.484375 
Q 26.265625 48.484375 22.1875 42.84375 
Q 18.109375 37.203125 18.109375 27.296875 
Q 18.109375 17.390625 22.1875 11.75 
Q 26.265625 6.109375 33.40625 6.109375 
Q 40.53125 6.109375 44.609375 11.75 
Q 48.6875 17.390625 48.6875 27.296875 
z
M 18.109375 46.390625 
Q 20.953125 51.265625 25.265625 53.625 
Q 29.59375 56 35.59375 56 
Q 45.5625 56 51.78125 48.09375 
Q 58.015625 40.1875 58.015625 27.296875 
Q 58.015625 14.40625 51.78125 6.484375 
Q 45.5625 -1.421875 35.59375 -1.421875 
Q 29.59375 -1.421875 25.265625 0.953125 
Q 20.953125 3.328125 18.109375 8.203125 
L 18.109375 0 
L 9.078125 0 
L 9.078125 75.984375 
L 18.109375 75.984375 
z
" id="DejaVuSans-98"/>
      <path d="M 34.28125 27.484375 
Q 23.390625 27.484375 19.1875 25 
Q 14.984375 22.515625 14.984375 16.5 
Q 14.984375 11.71875 18.140625 8.90625 
Q 21.296875 6.109375 26.703125 6.109375 
Q 34.1875 6.109375 38.703125 11.40625 
Q 43.21875 16.703125 43.21875 25.484375 
L 43.21875 27.484375 
z
M 52.203125 31.203125 
L 52.203125 0 
L 43.21875 0 
L 43.21875 8.296875 
Q 40.140625 3.328125 35.546875 0.953125 
Q 30.953125 -1.421875 24.3125 -1.421875 
Q 15.921875 -1.421875 10.953125 3.296875 
Q 6 8.015625 6 15.921875 
Q 6 25.140625 12.171875 29.828125 
Q 18.359375 34.515625 30.609375 34.515625 
L 43.21875 34.515625 
L 43.21875 35.40625 
Q 43.21875 41.609375 39.140625 45 
Q 35.0625 48.390625 27.6875 48.390625 
Q 23 48.390625 18.546875 47.265625 
Q 14.109375 46.140625 10.015625 43.890625 
L 10.015625 52.203125 
Q 14.9375 54.109375 19.578125 55.046875 
Q 24.21875 56 28.609375 56 
Q 40.484375 56 46.34375 49.84375 
Q 52.203125 43.703125 52.203125 31.203125 
z
" id="DejaVuSans-97"/>
      <path d="M 41.109375 46.296875 
Q 39.59375 47.171875 37.8125 47.578125 
Q 36.03125 48 33.890625 48 
Q 26.265625 48 22.1875 43.046875 
Q 18.109375 38.09375 18.109375 28.8125 
L 18.109375 0 
L 9.078125 0 
L 9.078125 54.6875 
L 18.109375 54.6875 
L 18.109375 46.1875 
Q 20.953125 51.171875 25.484375 53.578125 
Q 30.03125 56 36.53125 56 
Q 37.453125 56 38.578125 55.875 
Q 39.703125 55.765625 41.0625 55.515625 
z
" id="DejaVuSans-114"/>
      <path d="M 44.28125 53.078125 
L 44.28125 44.578125 
Q 40.484375 46.53125 36.375 47.5 
Q 32.28125 48.484375 27.875 48.484375 
Q 21.1875 48.484375 17.84375 46.4375 
Q 14.5 44.390625 14.5 40.28125 
Q 14.5 37.15625 16.890625 35.375 
Q 19.28125 33.59375 26.515625 31.984375 
L 29.59375 31.296875 
Q 39.15625 29.25 43.1875 25.515625 
Q 47.21875 21.78125 47.21875 15.09375 
Q 47.21875 7.46875 41.1875 3.015625 
Q 35.15625 -1.421875 24.609375 -1.421875 
Q 20.21875 -1.421875 15.453125 -0.5625 
Q 10.6875 0.296875 5.421875 2 
L 5.421875 11.28125 
Q 10.40625 8.6875 15.234375 7.390625 
Q 20.0625 6.109375 24.8125 6.109375 
Q 31.15625 6.109375 34.5625 8.28125 
Q 37.984375 10.453125 37.984375 14.40625 
Q 37.984375 18.0625 35.515625 20.015625 
Q 33.0625 21.96875 24.703125 23.78125 
L 21.578125 24.515625 
Q 13.234375 26.265625 9.515625 29.90625 
Q 5.8125 33.546875 5.8125 39.890625 
Q 5.8125 47.609375 11.28125 51.796875 
Q 16.75 56 26.8125 56 
Q 31.78125 56 36.171875 55.265625 
Q 40.578125 54.546875 44.28125 53.078125 
z
" id="DejaVuSans-115"/>
      <path d="M 56.203125 29.59375 
L 56.203125 25.203125 
L 14.890625 25.203125 
Q 15.484375 15.921875 20.484375 11.0625 
Q 25.484375 6.203125 34.421875 6.203125 
Q 39.59375 6.203125 44.453125 7.46875 
Q 49.3125 8.734375 54.109375 11.28125 
L 54.109375 2.78125 
Q 49.265625 0.734375 44.1875 -0.34375 
Q 39.109375 -1.421875 33.890625 -1.421875 
Q 20.796875 -1.421875 13.15625 6.1875 
Q 5.515625 13.8125 5.515625 26.8125 
Q 5.515625 40.234375 12.765625 48.109375 
Q 20.015625 56 32.328125 56 
Q 43.359375 56 49.78125 48.890625 
Q 56.203125 41.796875 56.203125 29.59375 
z
M 47.21875 32.234375 
Q 47.125 39.59375 43.09375 43.984375 
Q 39.0625 48.390625 32.421875 48.390625 
Q 24.90625 48.390625 20.390625 44.140625 
Q 15.875 39.890625 15.1875 32.171875 
z
" id="DejaVuSans-101"/>
      <path d="M 54.890625 54.6875 
L 35.109375 28.078125 
L 55.90625 0 
L 45.3125 0 
L 29.390625 21.484375 
L 13.484375 0 
L 2.875 0 
L 24.125 28.609375 
L 4.6875 54.6875 
L 15.28125 54.6875 
L 29.78125 35.203125 
L 44.28125 54.6875 
z
" id="DejaVuSans-120"/>
      <path d="M 18.3125 70.21875 
L 18.3125 54.6875 
L 36.8125 54.6875 
L 36.8125 47.703125 
L 18.3125 47.703125 
L 18.3125 18.015625 
Q 18.3125 11.328125 20.140625 9.421875 
Q 21.96875 7.515625 27.59375 7.515625 
L 36.8125 7.515625 
L 36.8125 0 
L 27.59375 0 
Q 17.1875 0 13.234375 3.875 
Q 9.28125 7.765625 9.28125 18.015625 
L 9.28125 47.703125 
L 2.6875 47.703125 
L 2.6875 54.6875 
L 9.28125 54.6875 
L 9.28125 70.21875 
z
" id="DejaVuSans-116"/>
      <path d="M 48.78125 52.59375 
L 48.78125 44.1875 
Q 44.96875 46.296875 41.140625 47.34375 
Q 37.3125 48.390625 33.40625 48.390625 
Q 24.65625 48.390625 19.8125 42.84375 
Q 14.984375 37.3125 14.984375 27.296875 
Q 14.984375 17.28125 19.8125 11.734375 
Q 24.65625 6.203125 33.40625 6.203125 
Q 37.3125 6.203125 41.140625 7.25 
Q 44.96875 8.296875 48.78125 10.40625 
L 48.78125 2.09375 
Q 45.015625 0.34375 40.984375 -0.53125 
Q 36.96875 -1.421875 32.421875 -1.421875 
Q 20.0625 -1.421875 12.78125 6.34375 
Q 5.515625 14.109375 5.515625 27.296875 
Q 5.515625 40.671875 12.859375 48.328125 
Q 20.21875 56 33.015625 56 
Q 37.15625 56 41.109375 55.140625 
Q 45.0625 54.296875 48.78125 52.59375 
z
" id="DejaVuSans-99"/>
      <path d="M 45.40625 46.390625 
L 45.40625 75.984375 
L 54.390625 75.984375 
L 54.390625 0 
L 45.40625 0 
L 45.40625 8.203125 
Q 42.578125 3.328125 38.25 0.953125 
Q 33.9375 -1.421875 27.875 -1.421875 
Q 17.96875 -1.421875 11.734375 6.484375 
Q 5.515625 14.40625 5.515625 27.296875 
Q 5.515625 40.1875 11.734375 48.09375 
Q 17.96875 56 27.875 56 
Q 33.9375 56 38.25 53.625 
Q 42.578125 51.265625 45.40625 46.390625 
z
M 14.796875 27.296875 
Q 14.796875 17.390625 18.875 11.75 
Q 22.953125 6.109375 30.078125 6.109375 
Q 37.203125 6.109375 41.296875 11.75 
Q 45.40625 17.390625 45.40625 27.296875 
Q 45.40625 37.203125 41.296875 42.84375 
Q 37.203125 48.484375 30.078125 48.484375 
Q 22.953125 48.484375 18.875 42.84375 
Q 14.796875 37.203125 14.796875 27.296875 
z
" id="DejaVuSans-100"/>
      <path d="M 10.6875 12.40625 
L 21 12.40625 
L 21 0 
L 10.6875 0 
z
" id="DejaVuSans-46"/>
     </defs>
     <use xlink:href="#DejaVuSans-87"/>
     <use x="98.876953" xlink:href="#DejaVuSans-49"/>
     <use x="162.5" xlink:href="#DejaVuSans-53"/>
     <use x="226.123047" xlink:href="#DejaVuSans-95"/>
     <use x="276.123047" xlink:href="#DejaVuSans-95"/>
     <use x="326.123047" xlink:href="#DejaVuSans-72"/>
     <use x="401.318359" xlink:href="#DejaVuSans-52"/>
     <use x="464.941406" xlink:href="#DejaVuSans-53"/>
     <use x="528.564453" xlink:href="#DejaVuSans-95"/>
     <use x="578.564453" xlink:href="#DejaVuSans-95"/>
     <use x="628.564453" xlink:href="#DejaVuSans-65"/>
     <use x="696.972656" xlink:href="#DejaVuSans-48"/>
     <use x="760.595703" xlink:href="#DejaVuSans-48"/>
     <use x="824.21875" xlink:href="#DejaVuSans-48"/>
     <use x="887.841797" xlink:href="#DejaVuSans-95"/>
     <use x="937.841797" xlink:href="#DejaVuSans-98"/>
     <use x="1001.318359" xlink:href="#DejaVuSans-97"/>
     <use x="1062.597656" xlink:href="#DejaVuSans-114"/>
     <use x="1103.710938" xlink:href="#DejaVuSans-115"/>
     <use x="1155.810547" xlink:href="#DejaVuSans-95"/>
     <use x="1205.810547" xlink:href="#DejaVuSans-101"/>
     <use x="1265.583984" xlink:href="#DejaVuSans-120"/>
     <use x="1324.763672" xlink:href="#DejaVuSans-116"/>
     <use x="1363.972656" xlink:href="#DejaVuSans-114"/>
     <use x="1405.085938" xlink:href="#DejaVuSans-97"/>
     <use x="1466.365234" xlink:href="#DejaVuSans-99"/>
     <use x="1521.345703" xlink:href="#DejaVuSans-116"/>
     <use x="1560.554688" xlink:href="#DejaVuSans-101"/>
     <use x="1622.078125" xlink:href="#DejaVuSans-100"/>
     <use x="1685.554688" xlink:href="#DejaVuSans-46"/>
     <use x="1717.341797" xlink:href="#DejaVuSans-116"/>
     <use x="1756.550781" xlink:href="#DejaVuSans-120"/>
     <use x="1815.730469" xlink:href="#DejaVuSans-116"/>
    </g>
   </g>
  </g>
 </g>
 <defs>
  <clipPath id="p132231c2c1">
   <rect height="217.44" width="217.44" x="112.68" y="34.56"/>
  </clipPath>
 </defs>
</svg>
