<?xml version="1.0" encoding="utf-8" standalone="no"?>
<!DOCTYPE svg PUBLIC "-//W3C//DTD SVG 1.1//EN"
  "http://www.w3.org/Graphics/SVG/1.1/DTD/svg11.dtd">
<!-- Created with matplotlib (https://matplotlib.org/) -->
<svg height="288pt" version="1.1" viewBox="0 0 432 288" width="432pt" xmlns="http://www.w3.org/2000/svg" xmlns:xlink="http://www.w3.org/1999/xlink">
 <metadata>
  <rdf:RDF xmlns:cc="http://creativecommons.org/ns#" xmlns:dc="http://purl.org/dc/elements/1.1/" xmlns:rdf="http://www.w3.org/1999/02/22-rdf-syntax-ns#">
   <cc:Work>
    <dc:type rdf:resource="http://purl.org/dc/dcmitype/StillImage"/>
    <dc:date>2021-06-13T21:57:23.180310</dc:date>
    <dc:format>image/svg+xml</dc:format>
    <dc:creator>
     <cc:Agent>
      <dc:title>Matplotlib v3.3.4, https://matplotlib.org/</dc:title>
     </cc:Agent>
    </dc:creator>
   </cc:Work>
  </rdf:RDF>
 </metadata>
 <defs>
  <style type="text/css">*{stroke-linecap:butt;stroke-linejoin:round;}</style>
 </defs>
 <g id="figure_1">
  <g id="patch_1">
   <path d="M 0 288 
L 432 288 
L 432 0 
L 0 0 
z
" style="fill:#ffffff;"/>
  </g>
  <g id="patch_2">
   <path d="M 112.68 252 
L 330.12 252 
L 330.12 34.56 
L 112.68 34.56 
z
" style="fill:#ffffff;"/>
  </g>
  <g id="pane3d_1">
   <g id="patch_3">
    <path d="M 129.09822 198.386264 
L 200.904009 138.197228 
L 199.90584 51.393878 
L 124.663773 106.302111 
" style="fill:#f2f2f2;opacity:0.5;stroke:#f2f2f2;stroke-linejoin:miter;"/>
   </g>
  </g>
  <g id="pane3d_2">
   <g id="patch_4">
    <path d="M 200.904009 138.197228 
L 316.12668 171.68791 
L 320.238571 81.894718 
L 199.90584 51.393878 
" style="fill:#e6e6e6;opacity:0.5;stroke:#e6e6e6;stroke-linejoin:miter;"/>
   </g>
  </g>
  <g id="pane3d_3">
   <g id="patch_5">
    <path d="M 129.09822 198.386264 
L 251.239879 238.27773 
L 316.12668 171.68791 
L 200.904009 138.197228 
" style="fill:#ececec;opacity:0.5;stroke:#ececec;stroke-linejoin:miter;"/>
   </g>
  </g>
  <g id="axis3d_1">
   <g id="line2d_1">
    <path d="M 129.09822 198.386264 
L 251.239879 238.27773 
" style="fill:none;stroke:#000000;stroke-linecap:square;stroke-width:0.8;"/>
   </g>
   <g id="Line3DCollection_1">
    <path d="M 136.495759 200.802301 
L 207.911499 140.234029 
L 207.209612 53.245171 
" style="fill:none;stroke:#b0b0b0;stroke-width:0.8;"/>
    <path d="M 162.23134 209.207541 
L 232.260894 147.311436 
L 232.60309 59.681678 
" style="fill:none;stroke:#b0b0b0;stroke-width:0.8;"/>
    <path d="M 188.559037 217.806167 
L 257.123632 154.538053 
L 258.555303 66.259807 
" style="fill:none;stroke:#b0b0b0;stroke-width:0.8;"/>
    <path d="M 215.499525 226.604931 
L 282.516121 161.918647 
L 285.084894 72.984285 
" style="fill:none;stroke:#b0b0b0;stroke-width:0.8;"/>
    <path d="M 243.074449 235.610901 
L 308.455474 169.458193 
L 312.21135 79.860051 
" style="fill:none;stroke:#b0b0b0;stroke-width:0.8;"/>
   </g>
   <g id="xtick_1">
    <g id="line2d_2">
     <path d="M 137.117644 200.274876 
L 135.249322 201.859414 
" style="fill:none;stroke:#000000;stroke-linecap:square;stroke-width:0.8;"/>
    </g>
    <g id="text_1">
     <!-- 0 -->
     <g transform="translate(125.77919 224.124533)scale(0.1 -0.1)">
      <defs>
       <path d="M 31.78125 66.40625 
Q 24.171875 66.40625 20.328125 58.90625 
Q 16.5 51.421875 16.5 36.375 
Q 16.5 21.390625 20.328125 13.890625 
Q 24.171875 6.390625 31.78125 6.390625 
Q 39.453125 6.390625 43.28125 13.890625 
Q 47.125 21.390625 47.125 36.375 
Q 47.125 51.421875 43.28125 58.90625 
Q 39.453125 66.40625 31.78125 66.40625 
z
M 31.78125 74.21875 
Q 44.046875 74.21875 50.515625 64.515625 
Q 56.984375 54.828125 56.984375 36.375 
Q 56.984375 17.96875 50.515625 8.265625 
Q 44.046875 -1.421875 31.78125 -1.421875 
Q 19.53125 -1.421875 13.0625 8.265625 
Q 6.59375 17.96875 6.59375 36.375 
Q 6.59375 54.828125 13.0625 64.515625 
Q 19.53125 74.21875 31.78125 74.21875 
z
" id="DejaVuSans-48"/>
      </defs>
      <use xlink:href="#DejaVuSans-48"/>
     </g>
    </g>
   </g>
   <g id="xtick_2">
    <g id="line2d_3">
     <path d="M 162.841716 208.668056 
L 161.007937 210.288854 
" style="fill:none;stroke:#000000;stroke-linecap:square;stroke-width:0.8;"/>
    </g>
    <g id="text_2">
     <!-- 2 -->
     <g transform="translate(151.547192 232.748132)scale(0.1 -0.1)">
      <defs>
       <path d="M 19.1875 8.296875 
L 53.609375 8.296875 
L 53.609375 0 
L 7.328125 0 
L 7.328125 8.296875 
Q 12.9375 14.109375 22.625 23.890625 
Q 32.328125 33.6875 34.8125 36.53125 
Q 39.546875 41.84375 41.421875 45.53125 
Q 43.3125 49.21875 43.3125 52.78125 
Q 43.3125 58.59375 39.234375 62.25 
Q 35.15625 65.921875 28.609375 65.921875 
Q 23.96875 65.921875 18.8125 64.3125 
Q 13.671875 62.703125 7.8125 59.421875 
L 7.8125 69.390625 
Q 13.765625 71.78125 18.9375 73 
Q 24.125 74.21875 28.421875 74.21875 
Q 39.75 74.21875 46.484375 68.546875 
Q 53.21875 62.890625 53.21875 53.421875 
Q 53.21875 48.921875 51.53125 44.890625 
Q 49.859375 40.875 45.40625 35.40625 
Q 44.1875 33.984375 37.640625 27.21875 
Q 31.109375 20.453125 19.1875 8.296875 
z
" id="DejaVuSans-50"/>
      </defs>
      <use xlink:href="#DejaVuSans-50"/>
     </g>
    </g>
   </g>
   <g id="xtick_3">
    <g id="line2d_4">
     <path d="M 189.15721 217.254202 
L 187.360066 218.91252 
" style="fill:none;stroke:#000000;stroke-linecap:square;stroke-width:0.8;"/>
    </g>
    <g id="text_3">
     <!-- 4 -->
     <g transform="translate(177.91082 241.571064)scale(0.1 -0.1)">
      <defs>
       <path d="M 37.796875 64.3125 
L 12.890625 25.390625 
L 37.796875 25.390625 
z
M 35.203125 72.90625 
L 47.609375 72.90625 
L 47.609375 25.390625 
L 58.015625 25.390625 
L 58.015625 17.1875 
L 47.609375 17.1875 
L 47.609375 0 
L 37.796875 0 
L 37.796875 17.1875 
L 4.890625 17.1875 
L 4.890625 26.703125 
z
" id="DejaVuSans-52"/>
      </defs>
      <use xlink:href="#DejaVuSans-52"/>
     </g>
    </g>
   </g>
   <g id="xtick_4">
    <g id="line2d_5">
     <path d="M 216.084757 226.040048 
L 214.326462 227.737204 
" style="fill:none;stroke:#000000;stroke-linecap:square;stroke-width:0.8;"/>
    </g>
    <g id="text_4">
     <!-- 6 -->
     <g transform="translate(204.890965 250.600322)scale(0.1 -0.1)">
      <defs>
       <path d="M 33.015625 40.375 
Q 26.375 40.375 22.484375 35.828125 
Q 18.609375 31.296875 18.609375 23.390625 
Q 18.609375 15.53125 22.484375 10.953125 
Q 26.375 6.390625 33.015625 6.390625 
Q 39.65625 6.390625 43.53125 10.953125 
Q 47.40625 15.53125 47.40625 23.390625 
Q 47.40625 31.296875 43.53125 35.828125 
Q 39.65625 40.375 33.015625 40.375 
z
M 52.59375 71.296875 
L 52.59375 62.3125 
Q 48.875 64.0625 45.09375 64.984375 
Q 41.3125 65.921875 37.59375 65.921875 
Q 27.828125 65.921875 22.671875 59.328125 
Q 17.53125 52.734375 16.796875 39.40625 
Q 19.671875 43.65625 24.015625 45.921875 
Q 28.375 48.1875 33.59375 48.1875 
Q 44.578125 48.1875 50.953125 41.515625 
Q 57.328125 34.859375 57.328125 23.390625 
Q 57.328125 12.15625 50.6875 5.359375 
Q 44.046875 -1.421875 33.015625 -1.421875 
Q 20.359375 -1.421875 13.671875 8.265625 
Q 6.984375 17.96875 6.984375 36.375 
Q 6.984375 53.65625 15.1875 63.9375 
Q 23.390625 74.21875 37.203125 74.21875 
Q 40.921875 74.21875 44.703125 73.484375 
Q 48.484375 72.75 52.59375 71.296875 
z
" id="DejaVuSans-54"/>
      </defs>
      <use xlink:href="#DejaVuSans-54"/>
     </g>
    </g>
   </g>
   <g id="xtick_5">
    <g id="line2d_6">
     <path d="M 243.645962 235.032643 
L 241.928856 236.770015 
" style="fill:none;stroke:#000000;stroke-linecap:square;stroke-width:0.8;"/>
    </g>
    <g id="text_5">
     <!-- 8 -->
     <g transform="translate(232.509511 259.84323)scale(0.1 -0.1)">
      <defs>
       <path d="M 31.78125 34.625 
Q 24.75 34.625 20.71875 30.859375 
Q 16.703125 27.09375 16.703125 20.515625 
Q 16.703125 13.921875 20.71875 10.15625 
Q 24.75 6.390625 31.78125 6.390625 
Q 38.8125 6.390625 42.859375 10.171875 
Q 46.921875 13.96875 46.921875 20.515625 
Q 46.921875 27.09375 42.890625 30.859375 
Q 38.875 34.625 31.78125 34.625 
z
M 21.921875 38.8125 
Q 15.578125 40.375 12.03125 44.71875 
Q 8.5 49.078125 8.5 55.328125 
Q 8.5 64.0625 14.71875 69.140625 
Q 20.953125 74.21875 31.78125 74.21875 
Q 42.671875 74.21875 48.875 69.140625 
Q 55.078125 64.0625 55.078125 55.328125 
Q 55.078125 49.078125 51.53125 44.71875 
Q 48 40.375 41.703125 38.8125 
Q 48.828125 37.15625 52.796875 32.3125 
Q 56.78125 27.484375 56.78125 20.515625 
Q 56.78125 9.90625 50.3125 4.234375 
Q 43.84375 -1.421875 31.78125 -1.421875 
Q 19.734375 -1.421875 13.25 4.234375 
Q 6.78125 9.90625 6.78125 20.515625 
Q 6.78125 27.484375 10.78125 32.3125 
Q 14.796875 37.15625 21.921875 38.8125 
z
M 18.3125 54.390625 
Q 18.3125 48.734375 21.84375 45.5625 
Q 25.390625 42.390625 31.78125 42.390625 
Q 38.140625 42.390625 41.71875 45.5625 
Q 45.3125 48.734375 45.3125 54.390625 
Q 45.3125 60.0625 41.71875 63.234375 
Q 38.140625 66.40625 31.78125 66.40625 
Q 25.390625 66.40625 21.84375 63.234375 
Q 18.3125 60.0625 18.3125 54.390625 
z
" id="DejaVuSans-56"/>
      </defs>
      <use xlink:href="#DejaVuSans-56"/>
     </g>
    </g>
   </g>
  </g>
  <g id="axis3d_2">
   <g id="line2d_7">
    <path d="M 316.12668 171.68791 
L 251.239879 238.27773 
" style="fill:none;stroke:#000000;stroke-linecap:square;stroke-width:0.8;"/>
   </g>
   <g id="Line3DCollection_2">
    <path d="M 129.866948 102.505071 
L 134.046245 194.238731 
L 255.729543 233.67023 
" style="fill:none;stroke:#b0b0b0;stroke-width:0.8;"/>
    <path d="M 147.250212 89.819556 
L 150.59591 180.366474 
L 270.72626 218.279909 
" style="fill:none;stroke:#b0b0b0;stroke-width:0.8;"/>
    <path d="M 163.958537 77.626582 
L 166.530371 167.009893 
L 285.136664 203.491289 
" style="fill:none;stroke:#b0b0b0;stroke-width:0.8;"/>
    <path d="M 180.030483 65.898008 
L 181.883306 154.140758 
L 298.994481 189.269761 
" style="fill:none;stroke:#b0b0b0;stroke-width:0.8;"/>
    <path d="M 195.501727 54.607799 
L 196.68598 141.732864 
L 312.330896 175.583317 
" style="fill:none;stroke:#b0b0b0;stroke-width:0.8;"/>
   </g>
   <g id="xtick_6">
    <g id="line2d_8">
     <path d="M 254.704115 233.337939 
L 257.783053 234.33567 
" style="fill:none;stroke:#000000;stroke-linecap:square;stroke-width:0.8;"/>
    </g>
    <g id="text_6">
     <!-- 0 -->
     <g transform="translate(265.430654 254.693759)scale(0.1 -0.1)">
      <use xlink:href="#DejaVuSans-48"/>
     </g>
    </g>
   </g>
   <g id="xtick_7">
    <g id="line2d_9">
     <path d="M 269.71494 217.960734 
L 272.751463 218.919068 
" style="fill:none;stroke:#000000;stroke-linecap:square;stroke-width:0.8;"/>
    </g>
    <g id="text_7">
     <!-- 2 -->
     <g transform="translate(280.181112 239.024526)scale(0.1 -0.1)">
      <use xlink:href="#DejaVuSans-50"/>
     </g>
    </g>
   </g>
   <g id="xtick_8">
    <g id="line2d_10">
     <path d="M 284.139145 203.184468 
L 287.134182 204.105694 
" style="fill:none;stroke:#000000;stroke-linecap:square;stroke-width:0.8;"/>
    </g>
    <g id="text_8">
     <!-- 4 -->
     <g transform="translate(294.35448 223.968328)scale(0.1 -0.1)">
      <use xlink:href="#DejaVuSans-52"/>
     </g>
    </g>
   </g>
   <g id="xtick_9">
    <g id="line2d_11">
     <path d="M 298.010457 188.97459 
L 300.964927 189.860821 
" style="fill:none;stroke:#000000;stroke-linecap:square;stroke-width:0.8;"/>
    </g>
    <g id="text_9">
     <!-- 6 -->
     <g transform="translate(307.983974 209.489882)scale(0.1 -0.1)">
      <use xlink:href="#DejaVuSans-54"/>
     </g>
    </g>
   </g>
   <g id="xtick_10">
    <g id="line2d_12">
     <path d="M 311.360068 175.299146 
L 314.274875 176.15234 
" style="fill:none;stroke:#000000;stroke-linecap:square;stroke-width:0.8;"/>
    </g>
    <g id="text_10">
     <!-- 8 -->
     <g transform="translate(321.10031 195.556556)scale(0.1 -0.1)">
      <use xlink:href="#DejaVuSans-56"/>
     </g>
    </g>
   </g>
  </g>
  <g id="axis3d_3">
   <g id="line2d_13">
    <path d="M 316.12668 171.68791 
L 320.238571 81.894718 
" style="fill:none;stroke:#000000;stroke-linecap:square;stroke-width:0.8;"/>
   </g>
   <g id="Line3DCollection_3">
    <path d="M 316.205459 169.967571 
L 200.884845 136.530725 
L 129.013401 196.624949 
" style="fill:none;stroke:#b0b0b0;stroke-width:0.8;"/>
    <path d="M 316.964897 153.383399 
L 200.700188 120.472443 
L 128.195462 179.639923 
" style="fill:none;stroke:#b0b0b0;stroke-width:0.8;"/>
    <path d="M 317.736995 136.522748 
L 200.5126 104.15929 
L 127.363365 162.360893 
" style="fill:none;stroke:#b0b0b0;stroke-width:0.8;"/>
    <path d="M 318.522073 119.378646 
L 200.32201 87.58515 
L 126.516739 144.780158 
" style="fill:none;stroke:#b0b0b0;stroke-width:0.8;"/>
    <path d="M 319.320461 101.943886 
L 200.128347 70.743709 
L 125.655201 126.889749 
" style="fill:none;stroke:#b0b0b0;stroke-width:0.8;"/>
    <path d="M 320.132501 84.211013 
L 199.931535 53.628447 
L 124.778352 108.681409 
" style="fill:none;stroke:#b0b0b0;stroke-width:0.8;"/>
   </g>
   <g id="xtick_11">
    <g id="line2d_14">
     <path d="M 315.237563 169.686933 
L 318.143556 170.529516 
" style="fill:none;stroke:#000000;stroke-linecap:square;stroke-width:0.8;"/>
    </g>
    <g id="text_11">
     <!-- 0 -->
     <g transform="translate(331.275915 174.966846)scale(0.1 -0.1)">
      <use xlink:href="#DejaVuSans-48"/>
     </g>
    </g>
   </g>
   <g id="xtick_12">
    <g id="line2d_15">
     <path d="M 315.988699 153.107067 
L 318.919636 153.936725 
" style="fill:none;stroke:#000000;stroke-linecap:square;stroke-width:0.8;"/>
    </g>
    <g id="text_12">
     <!-- 10000 -->
     <g transform="translate(319.457865 158.422632)scale(0.1 -0.1)">
      <defs>
       <path d="M 12.40625 8.296875 
L 28.515625 8.296875 
L 28.515625 63.921875 
L 10.984375 60.40625 
L 10.984375 69.390625 
L 28.421875 72.90625 
L 38.28125 72.90625 
L 38.28125 8.296875 
L 54.390625 8.296875 
L 54.390625 0 
L 12.40625 0 
z
" id="DejaVuSans-49"/>
      </defs>
      <use xlink:href="#DejaVuSans-49"/>
      <use x="63.623047" xlink:href="#DejaVuSans-48"/>
      <use x="127.246094" xlink:href="#DejaVuSans-48"/>
      <use x="190.869141" xlink:href="#DejaVuSans-48"/>
      <use x="254.492188" xlink:href="#DejaVuSans-48"/>
     </g>
    </g>
   </g>
   <g id="xtick_13">
    <g id="line2d_16">
     <path d="M 316.752352 136.250906 
L 319.708664 137.067088 
" style="fill:none;stroke:#000000;stroke-linecap:square;stroke-width:0.8;"/>
    </g>
    <g id="text_13">
     <!-- 20000 -->
     <g transform="translate(320.379879 141.603635)scale(0.1 -0.1)">
      <use xlink:href="#DejaVuSans-50"/>
      <use x="63.623047" xlink:href="#DejaVuSans-48"/>
      <use x="127.246094" xlink:href="#DejaVuSans-48"/>
      <use x="190.869141" xlink:href="#DejaVuSans-48"/>
      <use x="254.492188" xlink:href="#DejaVuSans-48"/>
     </g>
    </g>
   </g>
   <g id="xtick_14">
    <g id="line2d_17">
     <path d="M 317.528838 119.111486 
L 320.510967 119.91362 
" style="fill:none;stroke:#000000;stroke-linecap:square;stroke-width:0.8;"/>
    </g>
    <g id="text_14">
     <!-- 30000 -->
     <g transform="translate(321.317335 124.502951)scale(0.1 -0.1)">
      <defs>
       <path d="M 40.578125 39.3125 
Q 47.65625 37.796875 51.625 33 
Q 55.609375 28.21875 55.609375 21.1875 
Q 55.609375 10.40625 48.1875 4.484375 
Q 40.765625 -1.421875 27.09375 -1.421875 
Q 22.515625 -1.421875 17.65625 -0.515625 
Q 12.796875 0.390625 7.625 2.203125 
L 7.625 11.71875 
Q 11.71875 9.328125 16.59375 8.109375 
Q 21.484375 6.890625 26.8125 6.890625 
Q 36.078125 6.890625 40.9375 10.546875 
Q 45.796875 14.203125 45.796875 21.1875 
Q 45.796875 27.640625 41.28125 31.265625 
Q 36.765625 34.90625 28.71875 34.90625 
L 20.21875 34.90625 
L 20.21875 43.015625 
L 29.109375 43.015625 
Q 36.375 43.015625 40.234375 45.921875 
Q 44.09375 48.828125 44.09375 54.296875 
Q 44.09375 59.90625 40.109375 62.90625 
Q 36.140625 65.921875 28.71875 65.921875 
Q 24.65625 65.921875 20.015625 65.03125 
Q 15.375 64.15625 9.8125 62.3125 
L 9.8125 71.09375 
Q 15.4375 72.65625 20.34375 73.4375 
Q 25.25 74.21875 29.59375 74.21875 
Q 40.828125 74.21875 47.359375 69.109375 
Q 53.90625 64.015625 53.90625 55.328125 
Q 53.90625 49.265625 50.4375 45.09375 
Q 46.96875 40.921875 40.578125 39.3125 
z
" id="DejaVuSans-51"/>
      </defs>
      <use xlink:href="#DejaVuSans-51"/>
      <use x="63.623047" xlink:href="#DejaVuSans-48"/>
      <use x="127.246094" xlink:href="#DejaVuSans-48"/>
      <use x="190.869141" xlink:href="#DejaVuSans-48"/>
      <use x="254.492188" xlink:href="#DejaVuSans-48"/>
     </g>
    </g>
   </g>
   <g id="xtick_15">
    <g id="line2d_18">
     <path d="M 318.318483 101.681605 
L 321.326884 102.469095 
" style="fill:none;stroke:#000000;stroke-linecap:square;stroke-width:0.8;"/>
    </g>
    <g id="text_15">
     <!-- 40000 -->
     <g transform="translate(322.270624 107.113445)scale(0.1 -0.1)">
      <use xlink:href="#DejaVuSans-52"/>
      <use x="63.623047" xlink:href="#DejaVuSans-48"/>
      <use x="127.246094" xlink:href="#DejaVuSans-48"/>
      <use x="190.869141" xlink:href="#DejaVuSans-48"/>
      <use x="254.492188" xlink:href="#DejaVuSans-48"/>
     </g>
    </g>
   </g>
   <g id="xtick_16">
    <g id="line2d_19">
     <path d="M 319.121625 83.953817 
L 322.156764 84.726043 
" style="fill:none;stroke:#000000;stroke-linecap:square;stroke-width:0.8;"/>
    </g>
    <g id="text_16">
     <!-- 50000 -->
     <g transform="translate(323.240151 89.427737)scale(0.1 -0.1)">
      <defs>
       <path d="M 10.796875 72.90625 
L 49.515625 72.90625 
L 49.515625 64.59375 
L 19.828125 64.59375 
L 19.828125 46.734375 
Q 21.96875 47.46875 24.109375 47.828125 
Q 26.265625 48.1875 28.421875 48.1875 
Q 40.625 48.1875 47.75 41.5 
Q 54.890625 34.8125 54.890625 23.390625 
Q 54.890625 11.625 47.5625 5.09375 
Q 40.234375 -1.421875 26.90625 -1.421875 
Q 22.3125 -1.421875 17.546875 -0.640625 
Q 12.796875 0.140625 7.71875 1.703125 
L 7.71875 11.625 
Q 12.109375 9.234375 16.796875 8.0625 
Q 21.484375 6.890625 26.703125 6.890625 
Q 35.15625 6.890625 40.078125 11.328125 
Q 45.015625 15.765625 45.015625 23.390625 
Q 45.015625 31 40.078125 35.4375 
Q 35.15625 39.890625 26.703125 39.890625 
Q 22.75 39.890625 18.8125 39.015625 
Q 14.890625 38.140625 10.796875 36.28125 
z
" id="DejaVuSans-53"/>
      </defs>
      <use xlink:href="#DejaVuSans-53"/>
      <use x="63.623047" xlink:href="#DejaVuSans-48"/>
      <use x="127.246094" xlink:href="#DejaVuSans-48"/>
      <use x="190.869141" xlink:href="#DejaVuSans-48"/>
      <use x="254.492188" xlink:href="#DejaVuSans-48"/>
     </g>
    </g>
   </g>
  </g>
  <g id="axes_1">
   <g id="Poly3DCollection_1">
    <path clip-path="url(#p2fe5538b34)" d="M 203.700438 142.115361 
L 203.69578 141.656296 
L 215.861979 145.206354 
L 215.863902 145.66701 
z
" style="fill:#050338;"/>
    <path clip-path="url(#p2fe5538b34)" d="M 196.401162 148.290596 
L 196.394799 147.82877 
L 203.69578 141.656296 
L 203.700438 142.115361 
z
" style="fill:#0b0777;"/>
    <path clip-path="url(#p2fe5538b34)" d="M 196.401162 148.290596 
L 203.700438 142.115361 
L 215.863902 145.66701 
L 208.637156 151.907182 
z
" style="fill:#070448;"/>
    <path clip-path="url(#p2fe5538b34)" d="M 196.394799 147.82877 
L 208.633561 151.44375 
L 215.861979 145.206354 
L 203.69578 141.656296 
z
" style="fill:#0a0667;"/>
    <path clip-path="url(#p2fe5538b34)" d="M 215.863902 145.66701 
L 215.855852 143.738219 
L 228.158669 147.32044 
L 228.155024 149.255935 
z
" style="fill:#0a033a;"/>
    <path clip-path="url(#p2fe5538b34)" d="M 208.637156 151.907182 
L 215.863902 145.66701 
L 215.861979 145.206354 
L 208.633561 151.44375 
z
" style="fill:#050338;"/>
    <path clip-path="url(#p2fe5538b34)" d="M 208.637156 151.907182 
L 208.622105 149.966757 
L 215.855852 143.738219 
L 215.863902 145.66701 
z
" style="fill:#16067b;"/>
    <path clip-path="url(#p2fe5538b34)" d="M 196.401162 148.290596 
L 208.637156 151.907182 
L 208.633561 151.44375 
L 196.394799 147.82877 
z
" style="fill:#0b0777;"/>
    <path clip-path="url(#p2fe5538b34)" d="M 196.401162 148.290596 
L 196.364399 145.622169 
L 208.616386 149.229463 
L 208.637156 151.907182 
z
" style="fill:#0d023b;"/>
    <path clip-path="url(#p2fe5538b34)" d="M 208.637156 151.907182 
L 215.863902 145.66701 
L 228.155024 149.255935 
L 221.002748 155.562072 
z
" style="fill:#0d034a;"/>
    <path clip-path="url(#p2fe5538b34)" d="M 208.622105 149.966757 
L 220.999534 153.614884 
L 228.158669 147.32044 
L 215.855852 143.738219 
z
" style="fill:#13056b;"/>
    <path clip-path="url(#p2fe5538b34)" d="M 188.96817 154.578956 
L 188.921199 151.894405 
L 196.364399 145.622169 
L 196.401162 148.290596 
z
" style="fill:#1c057e;"/>
    <path clip-path="url(#p2fe5538b34)" d="M 228.155024 149.255935 
L 228.164435 144.258121 
L 240.616076 147.86747 
L 240.575825 152.882725 
z
" style="fill:#13023e;"/>
    <path clip-path="url(#p2fe5538b34)" d="M 221.002748 155.562072 
L 228.155024 149.255935 
L 228.158669 147.32044 
L 220.999534 153.614884 
z
" style="fill:#0a033a;"/>
    <path clip-path="url(#p2fe5538b34)" d="M 188.96817 154.578956 
L 196.401162 148.290596 
L 208.637156 151.907182 
L 201.27732 158.262275 
z
" style="fill:#11034c;"/>
    <path clip-path="url(#p2fe5538b34)" d="M 221.002748 155.562072 
L 220.994447 150.533994 
L 228.164435 144.258121 
L 228.155024 149.255935 
z
" style="fill:#280484;"/>
    <path clip-path="url(#p2fe5538b34)" d="M 208.637156 151.907182 
L 221.002748 155.562072 
L 220.999534 153.614884 
L 208.622105 149.966757 
z
" style="fill:#16067b;"/>
    <path clip-path="url(#p2fe5538b34)" d="M 188.921199 151.894405 
L 201.246532 155.56835 
L 208.616386 149.229463 
L 196.364399 145.622169 
z
" style="fill:#18046d;"/>
    <path clip-path="url(#p2fe5538b34)" d="M 221.002748 155.562072 
L 228.155024 149.255935 
L 240.575825 152.882725 
L 233.500008 159.25588 
z
" style="fill:#18034f;"/>
    <path clip-path="url(#p2fe5538b34)" d="M 208.637156 151.907182 
L 208.555894 141.430809 
L 220.985392 145.048947 
L 221.002748 155.562072 
z
" style="fill:#1f0143;"/>
    <path clip-path="url(#p2fe5538b34)" d="M 201.27732 158.262275 
L 208.637156 151.907182 
L 208.616386 149.229463 
L 201.246532 155.56835 
z
" style="fill:#0d023b;"/>
    <path clip-path="url(#p2fe5538b34)" d="M 240.575825 152.882725 
L 240.630439 146.077696 
L 253.225718 149.719136 
L 253.128369 156.547983 
z
" style="fill:#170240;"/>
    <path clip-path="url(#p2fe5538b34)" d="M 220.994447 150.533994 
L 233.522928 154.210206 
L 240.616076 147.86747 
L 228.164435 144.258121 
z
" style="fill:#230472;"/>
    <path clip-path="url(#p2fe5538b34)" d="M 188.96817 154.578956 
L 201.27732 158.262275 
L 201.246532 155.56835 
L 188.921199 151.894405 
z
" style="fill:#1c057e;"/>
    <path clip-path="url(#p2fe5538b34)" d="M 201.27732 158.262275 
L 201.156861 147.722125 
L 208.555894 141.430809 
L 208.637156 151.907182 
z
" style="fill:#42028e;"/>
    <path clip-path="url(#p2fe5538b34)" d="M 201.27732 158.262275 
L 208.637156 151.907182 
L 221.002748 155.562072 
L 213.718049 161.984967 
z
" style="fill:#280156;"/>
    <path clip-path="url(#p2fe5538b34)" d="M 233.500008 159.25588 
L 240.575825 152.882725 
L 240.616076 147.86747 
L 233.522928 154.210206 
z
" style="fill:#13023e;"/>
    <path clip-path="url(#p2fe5538b34)" d="M 233.500008 159.25588 
L 233.531107 152.40952 
L 240.630439 146.077696 
L 240.575825 152.882725 
z
" style="fill:#300487;"/>
    <path clip-path="url(#p2fe5538b34)" d="M 233.500008 159.25588 
L 240.575825 152.882725 
L 253.128369 156.547983 
L 246.131049 162.989229 
z
" style="fill:#1d0251;"/>
    <path clip-path="url(#p2fe5538b34)" d="M 221.002748 155.562072 
L 233.500008 159.25588 
L 233.522928 154.210206 
L 220.994447 150.533994 
z
" style="fill:#280484;"/>
    <path clip-path="url(#p2fe5538b34)" d="M 188.96817 154.578956 
L 188.741876 141.645449 
L 201.128989 145.283258 
L 201.27732 158.262275 
z
" style="fill:#250145;"/>
    <path clip-path="url(#p2fe5538b34)" d="M 181.397755 160.983577 
L 188.96817 154.578956 
L 201.27732 158.262275 
L 193.780682 164.735494 
z
" style="fill:#2f0158;"/>
    <path clip-path="url(#p2fe5538b34)" d="M 253.128369 156.547983 
L 253.250754 147.96289 
L 265.99202 151.637095 
L 265.814761 160.252323 
z
" style="fill:#1b0141;"/>
    <path clip-path="url(#p2fe5538b34)" d="M 181.397755 160.983577 
L 181.12047 147.971096 
L 188.741876 141.645449 
L 188.96817 154.578956 
z
" style="fill:#4d0191;"/>
    <path clip-path="url(#p2fe5538b34)" d="M 233.531107 152.40952 
L 246.205423 156.118841 
L 253.225718 149.719136 
L 240.630439 146.077696 
z
" style="fill:#2a0375;"/>
    <path clip-path="url(#p2fe5538b34)" d="M 201.156861 147.722125 
L 213.662276 151.407736 
L 220.985392 145.048947 
L 208.555894 141.430809 
z
" style="fill:#39027b;"/>
    <path clip-path="url(#p2fe5538b34)" d="M 213.718049 161.984967 
L 221.002748 155.562072 
L 220.985392 145.048947 
L 213.662276 151.407736 
z
" style="fill:#1f0143;"/>
    <path clip-path="url(#p2fe5538b34)" d="M 213.718049 161.984967 
L 221.002748 155.562072 
L 233.500008 159.25588 
L 226.292478 165.747667 
z
" style="fill:#43015a;"/>
    <path clip-path="url(#p2fe5538b34)" d="M 246.131049 162.989229 
L 253.128369 156.547983 
L 253.225718 149.719136 
L 246.205423 156.118841 
z
" style="fill:#170240;"/>
    <path clip-path="url(#p2fe5538b34)" d="M 221.002748 155.562072 
L 220.968233 134.654895 
L 233.595315 138.274662 
L 233.500008 159.25588 
z
" style="fill:#340146;"/>
    <path clip-path="url(#p2fe5538b34)" d="M 246.131049 162.989229 
L 246.224551 154.351842 
L 253.250754 147.96289 
L 253.128369 156.547983 
z
" style="fill:#39038b;"/>
    <path clip-path="url(#p2fe5538b34)" d="M 246.131049 162.989229 
L 253.128369 156.547983 
L 265.814761 160.252323 
L 258.898031 166.762758 
z
" style="fill:#230254;"/>
    <path clip-path="url(#p2fe5538b34)" d="M 201.27732 158.262275 
L 213.718049 161.984967 
L 213.662276 151.407736 
L 201.156861 147.722125 
z
" style="fill:#42028e;"/>
    <path clip-path="url(#p2fe5538b34)" d="M 233.500008 159.25588 
L 246.131049 162.989229 
L 246.205423 156.118841 
L 233.531107 152.40952 
z
" style="fill:#300487;"/>
    <path clip-path="url(#p2fe5538b34)" d="M 213.718049 161.984967 
L 213.607129 140.949303 
L 220.968233 134.654895 
L 221.002748 155.562072 
z
" style="fill:#6e0294;"/>
    <path clip-path="url(#p2fe5538b34)" d="M 193.780682 164.735494 
L 201.27732 158.262275 
L 213.718049 161.984967 
L 206.297214 168.527892 
z
" style="fill:#671f45;"/>
    <path clip-path="url(#p2fe5538b34)" d="M 265.814761 160.252323 
L 265.99033 151.719246 
L 278.868237 155.433299 
L 278.637155 163.996376 
z
" style="fill:#1b0141;"/>
    <path clip-path="url(#p2fe5538b34)" d="M 193.780682 164.735494 
L 201.27732 158.262275 
L 201.128989 145.283258 
L 193.582293 151.677096 
z
" style="fill:#250145;"/>
    <path clip-path="url(#p2fe5538b34)" d="M 181.12047 147.971096 
L 193.582293 151.677096 
L 201.128989 145.283258 
L 188.741876 141.645449 
z
" style="fill:#43017e;"/>
    <path clip-path="url(#p2fe5538b34)" d="M 226.292478 165.747667 
L 233.500008 159.25588 
L 246.131049 162.989229 
L 239.002775 169.551023 
z
" style="fill:#4d0857;"/>
    <path clip-path="url(#p2fe5538b34)" d="M 246.224551 154.351842 
L 259.047113 158.094969 
L 265.99202 151.637095 
L 253.250754 147.96289 
z
" style="fill:#320378;"/>
    <path clip-path="url(#p2fe5538b34)" d="M 258.898031 166.762758 
L 259.045691 158.177624 
L 265.99033 151.719246 
L 265.814761 160.252323 
z
" style="fill:#39038b;"/>
    <path clip-path="url(#p2fe5538b34)" d="M 258.898031 166.762758 
L 265.814761 160.252323 
L 265.99202 151.637095 
L 259.047113 158.094969 
z
" style="fill:#1b0141;"/>
    <path clip-path="url(#p2fe5538b34)" d="M 181.397755 160.983577 
L 193.780682 164.735494 
L 193.582293 151.677096 
L 181.12047 147.971096 
z
" style="fill:#4d0191;"/>
    <path clip-path="url(#p2fe5538b34)" d="M 258.898031 166.762758 
L 265.814761 160.252323 
L 278.637155 163.996376 
L 271.803162 170.57712 
z
" style="fill:#230254;"/>
    <path clip-path="url(#p2fe5538b34)" d="M 233.500008 159.25588 
L 233.616155 133.686909 
L 246.408826 137.329244 
L 246.131049 162.989229 
z
" style="fill:#3c0644;"/>
    <path clip-path="url(#p2fe5538b34)" d="M 181.397755 160.983577 
L 181.066767 145.450908 
L 193.543868 149.147911 
L 193.780682 164.735494 
z
" style="fill:#290046;"/>
    <path clip-path="url(#p2fe5538b34)" d="M 173.686069 167.507715 
L 181.397755 160.983577 
L 193.780682 164.735494 
L 186.143392 171.330164 
z
" style="fill:#350059;"/>
    <path clip-path="url(#p2fe5538b34)" d="M 226.292478 165.747667 
L 233.500008 159.25588 
L 233.595315 138.274662 
L 226.312997 144.637292 
z
" style="fill:#340146;"/>
    <path clip-path="url(#p2fe5538b34)" d="M 246.131049 162.989229 
L 258.898031 166.762758 
L 259.047113 158.094969 
L 246.224551 154.351842 
z
" style="fill:#39038b;"/>
    <path clip-path="url(#p2fe5538b34)" d="M 201.27732 158.262275 
L 200.835598 119.611548 
L 213.513514 123.195376 
L 213.718049 161.984967 
z
" style="fill:#501936;"/>
    <path clip-path="url(#p2fe5538b34)" d="M 226.292478 165.747667 
L 226.317485 140.020752 
L 233.616155 133.686909 
L 233.500008 159.25588 
z
" style="fill:#800d90;"/>
    <path clip-path="url(#p2fe5538b34)" d="M 173.686069 167.507715 
L 173.291968 151.879753 
L 181.066767 145.450908 
L 181.397755 160.983577 
z
" style="fill:#570093;"/>
    <path clip-path="url(#p2fe5538b34)" d="M 206.297214 168.527892 
L 213.718049 161.984967 
L 226.292478 165.747667 
L 218.949524 172.361429 
z
" style="fill:#814728;"/>
    <path clip-path="url(#p2fe5538b34)" d="M 278.637155 163.996376 
L 278.865308 155.541847 
L 291.88189 159.296487 
L 291.597749 167.780781 
z
" style="fill:#1a0241;"/>
    <path clip-path="url(#p2fe5538b34)" d="M 213.718049 161.984967 
L 226.292478 165.747667 
L 226.312997 144.637292 
L 213.607129 140.949303 
z
" style="fill:#6e0294;"/>
    <path clip-path="url(#p2fe5538b34)" d="M 213.607129 140.949303 
L 226.312997 144.637292 
L 233.595315 138.274662 
L 220.968233 134.654895 
z
" style="fill:#600281;"/>
    <path clip-path="url(#p2fe5538b34)" d="M 239.002775 169.551023 
L 246.131049 162.989229 
L 258.898031 166.762758 
L 251.851153 173.395697 
z
" style="fill:#520b55;"/>
    <path clip-path="url(#p2fe5538b34)" d="M 193.780682 164.735494 
L 193.189822 125.843775 
L 200.835598 119.611548 
L 201.27732 158.262275 
z
" style="fill:#aa3473;"/>
    <path clip-path="url(#p2fe5538b34)" d="M 259.045691 158.177624 
L 272.007062 161.961724 
L 278.868237 155.433299 
L 265.99033 151.719246 
z
" style="fill:#320378;"/>
    <path clip-path="url(#p2fe5538b34)" d="M 271.803162 170.57712 
L 272.004477 162.07094 
L 278.865308 155.541847 
L 278.637155 163.996376 
z
" style="fill:#38038a;"/>
    <path clip-path="url(#p2fe5538b34)" d="M 271.803162 170.57712 
L 278.637155 163.996376 
L 278.868237 155.433299 
L 272.007062 161.961724 
z
" style="fill:#1b0141;"/>
    <path clip-path="url(#p2fe5538b34)" d="M 271.803162 170.57712 
L 278.637155 163.996376 
L 291.597749 167.780781 
L 284.848695 174.43298 
z
" style="fill:#220253;"/>
    <path clip-path="url(#p2fe5538b34)" d="M 246.131049 162.989229 
L 246.429024 135.463429 
L 259.37315 139.138677 
L 258.898031 166.762758 
z
" style="fill:#400942;"/>
    <path clip-path="url(#p2fe5538b34)" d="M 186.143392 171.330164 
L 193.780682 164.735494 
L 206.297214 168.527892 
L 198.736391 175.194243 
z
" style="fill:#712c3c;"/>
    <path clip-path="url(#p2fe5538b34)" d="M 258.898031 166.762758 
L 271.803162 170.57712 
L 272.007062 161.961724 
L 259.045691 158.177624 
z
" style="fill:#39038b;"/>
    <path clip-path="url(#p2fe5538b34)" d="M 239.002775 169.551023 
L 246.131049 162.989229 
L 246.408826 137.329244 
L 239.191464 143.732268 
z
" style="fill:#3c0644;"/>
    <path clip-path="url(#p2fe5538b34)" d="M 186.143392 171.330164 
L 193.780682 164.735494 
L 193.543868 149.147911 
L 185.844594 155.646799 
z
" style="fill:#290046;"/>
    <path clip-path="url(#p2fe5538b34)" d="M 218.949524 172.361429 
L 226.292478 165.747667 
L 239.002775 169.551023 
L 231.739835 176.23678 
z
" style="fill:#86591d;"/>
    <path clip-path="url(#p2fe5538b34)" d="M 291.597749 167.780781 
L 291.858487 159.995282 
L 305.012009 163.793259 
L 304.698789 171.606197 
z
" style="fill:#190241;"/>
    <path clip-path="url(#p2fe5538b34)" d="M 239.002775 169.551023 
L 239.205186 141.854668 
L 246.429024 135.463429 
L 246.131049 162.989229 
z
" style="fill:#87128d;"/>
    <path clip-path="url(#p2fe5538b34)" d="M 173.291968 151.879753 
L 185.844594 155.646799 
L 193.543868 149.147911 
L 181.066767 145.450908 
z
" style="fill:#4c0080;"/>
    <path clip-path="url(#p2fe5538b34)" d="M 173.686069 167.507715 
L 173.337338 153.678896 
L 185.878994 157.452388 
L 186.143392 171.330164 
z
" style="fill:#260045;"/>
    <path clip-path="url(#p2fe5538b34)" d="M 251.851153 173.395697 
L 258.898031 166.762758 
L 271.803162 170.57712 
L 264.839875 177.282368 
z
" style="fill:#4d0757;"/>
    <path clip-path="url(#p2fe5538b34)" d="M 206.297214 168.527892 
L 213.718049 161.984967 
L 213.513514 123.195376 
L 205.946453 129.496016 
z
" style="fill:#501936;"/>
    <path clip-path="url(#p2fe5538b34)" d="M 226.292478 165.747667 
L 239.002775 169.551023 
L 239.191464 143.732268 
L 226.317485 140.020752 
z
" style="fill:#800d90;"/>
    <path clip-path="url(#p2fe5538b34)" d="M 173.686069 167.507715 
L 186.143392 171.330164 
L 185.844594 155.646799 
L 173.291968 151.879753 
z
" style="fill:#570093;"/>
    <path clip-path="url(#p2fe5538b34)" d="M 272.004477 162.07094 
L 285.106743 165.896774 
L 291.88189 159.296487 
L 278.865308 155.541847 
z
" style="fill:#300378;"/>
    <path clip-path="url(#p2fe5538b34)" d="M 284.848695 174.43298 
L 285.085489 166.599871 
L 291.858487 159.995282 
L 291.597749 167.780781 
z
" style="fill:#350389;"/>
    <path clip-path="url(#p2fe5538b34)" d="M 284.848695 174.43298 
L 291.597749 167.780781 
L 291.88189 159.296487 
L 285.106743 165.896774 
z
" style="fill:#1a0241;"/>
    <path clip-path="url(#p2fe5538b34)" d="M 165.82912 174.154745 
L 173.686069 167.507715 
L 186.143392 171.330164 
L 178.361455 178.049733 
z
" style="fill:#300158;"/>
    <path clip-path="url(#p2fe5538b34)" d="M 284.848695 174.43298 
L 291.597749 167.780781 
L 304.698789 171.606197 
L 298.036935 178.33102 
z
" style="fill:#200253;"/>
    <path clip-path="url(#p2fe5538b34)" d="M 258.898031 166.762758 
L 259.335185 141.346004 
L 272.406846 145.069616 
L 271.803162 170.57712 
z
" style="fill:#3c0544;"/>
    <path clip-path="url(#p2fe5538b34)" d="M 165.82912 174.154745 
L 165.422476 160.240974 
L 173.337338 153.678896 
L 173.686069 167.507715 
z
" style="fill:#500192;"/>
    <path clip-path="url(#p2fe5538b34)" d="M 226.317485 140.020752 
L 239.191464 143.732268 
L 246.408826 137.329244 
L 233.616155 133.686909 
z
" style="fill:#6f0b7d;"/>
    <path clip-path="url(#p2fe5538b34)" d="M 193.780682 164.735494 
L 206.297214 168.527892 
L 205.946453 129.496016 
L 193.189822 125.843775 
z
" style="fill:#aa3473;"/>
    <path clip-path="url(#p2fe5538b34)" d="M 198.736391 175.194243 
L 206.297214 168.527892 
L 218.949524 172.361429 
L 211.467294 179.100638 
z
" style="fill:#876317;"/>
    <path clip-path="url(#p2fe5538b34)" d="M 271.803162 170.57712 
L 284.848695 174.43298 
L 285.106743 165.896774 
L 272.004477 162.07094 
z
" style="fill:#38038a;"/>
    <path clip-path="url(#p2fe5538b34)" d="M 213.718049 161.984967 
L 213.403387 102.309994 
L 226.350695 105.854576 
L 226.292478 165.747667 
z
" style="fill:#65381f;"/>
    <path clip-path="url(#p2fe5538b34)" d="M 251.851153 173.395697 
L 252.202485 147.821463 
L 259.335185 141.346004 
L 258.898031 166.762758 
z
" style="fill:#7f0c90;"/>
    <path clip-path="url(#p2fe5538b34)" d="M 193.780682 164.735494 
L 193.092614 119.445373 
L 205.88874 123.073776 
L 206.297214 168.527892 
z
" style="fill:#58222f;"/>
    <path clip-path="url(#p2fe5538b34)" d="M 231.739835 176.23678 
L 239.002775 169.551023 
L 251.851153 173.395697 
L 244.670417 180.154631 
z
" style="fill:#844d24;"/>
    <path clip-path="url(#p2fe5538b34)" d="M 251.851153 173.395697 
L 258.898031 166.762758 
L 259.37315 139.138677 
L 252.233001 145.600172 
z
" style="fill:#400942;"/>
    <path clip-path="url(#p2fe5538b34)" d="M 206.297214 168.527892 
L 205.757542 108.474361 
L 213.403387 102.309994 
L 213.718049 161.984967 
z
" style="fill:#d67642;"/>
    <path clip-path="url(#p2fe5538b34)" d="M 285.085489 166.599871 
L 298.326921 170.470236 
L 305.012009 163.793259 
L 291.858487 159.995282 
z
" style="fill:#2e0377;"/>
    <path clip-path="url(#p2fe5538b34)" d="M 264.839875 177.282368 
L 271.803162 170.57712 
L 284.848695 174.43298 
L 277.971253 181.211726 
z
" style="fill:#4a0558;"/>
    <path clip-path="url(#p2fe5538b34)" d="M 186.143392 171.330164 
L 185.275104 125.755435 
L 193.092614 119.445373 
L 193.780682 164.735494 
z
" style="fill:#bb4863;"/>
    <path clip-path="url(#p2fe5538b34)" d="M 298.036935 178.33102 
L 304.698789 171.606197 
L 305.012009 163.793259 
L 298.326921 170.470236 
z
" style="fill:#190241;"/>
    <path clip-path="url(#p2fe5538b34)" d="M 239.002775 169.551023 
L 251.851153 173.395697 
L 252.233001 145.600172 
L 239.205186 141.854668 
z
" style="fill:#87128d;"/>
    <path clip-path="url(#p2fe5538b34)" d="M 178.361455 178.049733 
L 186.143392 171.330164 
L 198.736391 175.194243 
L 191.031582 181.987547 
z
" style="fill:#6f293e;"/>
    <path clip-path="url(#p2fe5538b34)" d="M 271.803162 170.57712 
L 272.369657 146.640983 
L 285.574865 150.411346 
L 284.848695 174.43298 
z
" style="fill:#390445;"/>
    <path clip-path="url(#p2fe5538b34)" d="M 193.189822 125.843775 
L 205.946453 129.496016 
L 213.513514 123.195376 
L 200.835598 119.611548 
z
" style="fill:#942d64;"/>
    <path clip-path="url(#p2fe5538b34)" d="M 178.361455 178.049733 
L 186.143392 171.330164 
L 185.878994 157.452388 
L 178.040152 164.086579 
z
" style="fill:#260045;"/>
    <path clip-path="url(#p2fe5538b34)" d="M 211.467294 179.100638 
L 218.949524 172.361429 
L 231.739835 176.23678 
L 224.338378 183.050047 
z
" style="fill:#808512;"/>
    <path clip-path="url(#p2fe5538b34)" d="M 165.422476 160.240974 
L 178.040152 164.086579 
L 185.878994 157.452388 
L 173.337338 153.678896 
z
" style="fill:#46017f;"/>
    <path clip-path="url(#p2fe5538b34)" d="M 284.848695 174.43298 
L 298.036935 178.33102 
L 298.326921 170.470236 
L 285.085489 166.599871 
z
" style="fill:#350389;"/>
    <path clip-path="url(#p2fe5538b34)" d="M 239.205186 141.854668 
L 252.233001 145.600172 
L 259.37315 139.138677 
L 246.429024 135.463429 
z
" style="fill:#75107a;"/>
    <path clip-path="url(#p2fe5538b34)" d="M 264.839875 177.282368 
L 265.32789 153.197868 
L 272.369657 146.640983 
L 271.803162 170.57712 
z
" style="fill:#7a0892;"/>
    <path clip-path="url(#p2fe5538b34)" d="M 165.82912 174.154745 
L 165.460501 161.542031 
L 178.070198 165.392299 
L 178.361455 178.049733 
z
" style="fill:#230144;"/>
    <path clip-path="url(#p2fe5538b34)" d="M 264.839875 177.282368 
L 271.803162 170.57712 
L 272.406846 145.069616 
L 265.359931 151.616571 
z
" style="fill:#3c0544;"/>
    <path clip-path="url(#p2fe5538b34)" d="M 165.82912 174.154745 
L 178.361455 178.049733 
L 178.040152 164.086579 
L 165.422476 160.240974 
z
" style="fill:#500192;"/>
    <path clip-path="url(#p2fe5538b34)" d="M 244.670417 180.154631 
L 251.851153 173.395697 
L 264.839875 177.282368 
L 257.743589 184.115686 
z
" style="fill:#7d3e2e;"/>
    <path clip-path="url(#p2fe5538b34)" d="M 157.822766 180.928173 
L 165.82912 174.154745 
L 178.361455 178.049733 
L 170.430723 184.897786 
z
" style="fill:#2d0157;"/>
    <path clip-path="url(#p2fe5538b34)" d="M 218.949524 172.361429 
L 226.292478 165.747667 
L 226.350695 105.854576 
L 218.787425 112.087686 
z
" style="fill:#65381f;"/>
    <path clip-path="url(#p2fe5538b34)" d="M 226.292478 165.747667 
L 226.358761 97.555794 
L 239.502973 101.107906 
L 239.002775 169.551023 
z
" style="fill:#694516;"/>
    <path clip-path="url(#p2fe5538b34)" d="M 277.971253 181.211726 
L 284.848695 174.43298 
L 298.036935 178.33102 
L 291.24765 185.184478 
z
" style="fill:#3f015a;"/>
    <path clip-path="url(#p2fe5538b34)" d="M 157.822766 180.928173 
L 157.399695 168.237859 
L 165.460501 161.542031 
L 165.82912 174.154745 
z
" style="fill:#4b0190;"/>
    <path clip-path="url(#p2fe5538b34)" d="M 251.851153 173.395697 
L 264.839875 177.282368 
L 265.359931 151.616571 
L 252.202485 147.821463 
z
" style="fill:#7f0c90;"/>
    <path clip-path="url(#p2fe5538b34)" d="M 284.848695 174.43298 
L 285.447438 154.626617 
L 298.770202 158.454031 
L 298.036935 178.33102 
z
" style="fill:#310046;"/>
    <path clip-path="url(#p2fe5538b34)" d="M 198.736391 175.194243 
L 206.297214 168.527892 
L 205.88874 123.073776 
L 198.151138 129.453992 
z
" style="fill:#58222f;"/>
    <path clip-path="url(#p2fe5538b34)" d="M 191.031582 181.987547 
L 198.736391 175.194243 
L 211.467294 179.100638 
L 203.841786 185.968896 
z
" style="fill:#875d1a;"/>
    <path clip-path="url(#p2fe5538b34)" d="M 252.202485 147.821463 
L 265.359931 151.616571 
L 272.406846 145.069616 
L 259.335185 141.346004 
z
" style="fill:#6e0a7d;"/>
    <path clip-path="url(#p2fe5538b34)" d="M 206.297214 168.527892 
L 218.949524 172.361429 
L 218.787425 112.087686 
L 205.757542 108.474361 
z
" style="fill:#d67642;"/>
    <path clip-path="url(#p2fe5538b34)" d="M 186.143392 171.330164 
L 185.304003 127.272261 
L 198.170619 130.976509 
L 198.736391 175.194243 
z
" style="fill:#562030;"/>
    <path clip-path="url(#p2fe5538b34)" d="M 218.949524 172.361429 
L 218.764957 103.733499 
L 226.358761 97.555794 
L 226.292478 165.747667 
z
" style="fill:#df9330;"/>
    <path clip-path="url(#p2fe5538b34)" d="M 186.143392 171.330164 
L 198.736391 175.194243 
L 198.151138 129.453992 
L 185.275104 125.755435 
z
" style="fill:#bb4863;"/>
    <path clip-path="url(#p2fe5538b34)" d="M 277.971253 181.211726 
L 278.507042 161.282809 
L 285.447438 154.626617 
L 284.848695 174.43298 
z
" style="fill:#690195;"/>
    <path clip-path="url(#p2fe5538b34)" d="M 224.338378 183.050047 
L 231.739835 176.23678 
L 244.670417 180.154631 
L 237.351973 187.043183 
z
" style="fill:#866f14;"/>
    <path clip-path="url(#p2fe5538b34)" d="M 277.971253 181.211726 
L 284.848695 174.43298 
L 285.574865 150.411346 
L 278.621084 157.040972 
z
" style="fill:#390445;"/>
    <path clip-path="url(#p2fe5538b34)" d="M 178.361455 178.049733 
L 177.341266 133.714455 
L 185.304003 127.272261 
L 186.143392 171.330164 
z
" style="fill:#b74367;"/>
    <path clip-path="url(#p2fe5538b34)" d="M 257.743589 184.115686 
L 264.839875 177.282368 
L 277.971253 181.211726 
L 270.961723 188.120663 
z
" style="fill:#783634;"/>
    <path clip-path="url(#p2fe5538b34)" d="M 239.002775 169.551023 
L 239.465207 106.275405 
L 252.723614 109.887394 
L 251.851153 173.395697 
z
" style="fill:#673d1c;"/>
    <path clip-path="url(#p2fe5538b34)" d="M 206.297214 168.527892 
L 205.642608 95.684762 
L 218.752896 99.248662 
L 218.949524 172.361429 
z
" style="fill:#6a4d12;"/>
    <path clip-path="url(#p2fe5538b34)" d="M 170.430723 184.897786 
L 178.361455 178.049733 
L 191.031582 181.987547 
L 183.178635 188.911464 
z
" style="fill:#651d47;"/>
    <path clip-path="url(#p2fe5538b34)" d="M 157.822766 180.928173 
L 157.718906 177.812796 
L 170.346083 181.771418 
L 170.430723 184.897786 
z
" style="fill:#0e023c;"/>
    <path clip-path="url(#p2fe5538b34)" d="M 264.839875 177.282368 
L 277.971253 181.211726 
L 278.621084 157.040972 
L 265.32789 153.197868 
z
" style="fill:#7a0892;"/>
    <path clip-path="url(#p2fe5538b34)" d="M 170.430723 184.897786 
L 178.361455 178.049733 
L 178.070198 165.392299 
L 170.085939 172.162367 
z
" style="fill:#230144;"/>
    <path clip-path="url(#p2fe5538b34)" d="M 157.399695 168.237859 
L 170.085939 172.162367 
L 178.070198 165.392299 
L 165.460501 161.542031 
z
" style="fill:#41017d;"/>
    <path clip-path="url(#p2fe5538b34)" d="M 231.739835 176.23678 
L 231.975511 112.557325 
L 239.465207 106.275405 
L 239.002775 169.551023 
z
" style="fill:#da803b;"/>
    <path clip-path="url(#p2fe5538b34)" d="M 265.32789 153.197868 
L 278.621084 157.040972 
L 285.574865 150.411346 
L 272.369657 146.640983 
z
" style="fill:#6a077f;"/>
    <path clip-path="url(#p2fe5538b34)" d="M 203.841786 185.968896 
L 211.467294 179.100638 
L 224.338378 183.050047 
L 216.794403 189.994506 
z
" style="fill:#857714;"/>
    <path clip-path="url(#p2fe5538b34)" d="M 198.736391 175.194243 
L 197.798366 101.883127 
L 205.642608 95.684762 
L 206.297214 168.527892 
z
" style="fill:#e0a427;"/>
    <path clip-path="url(#p2fe5538b34)" d="M 149.662704 187.831639 
L 149.544981 184.697193 
L 157.718906 177.812796 
L 157.822766 180.928173 
z
" style="fill:#1e057f;"/>
    <path clip-path="url(#p2fe5538b34)" d="M 231.739835 176.23678 
L 239.002775 169.551023 
L 239.502973 101.107906 
L 231.994764 107.35517 
z
" style="fill:#694516;"/>
    <path clip-path="url(#p2fe5538b34)" d="M 157.822766 180.928173 
L 170.430723 184.897786 
L 170.085939 172.162367 
L 157.399695 168.237859 
z
" style="fill:#4b0190;"/>
    <path clip-path="url(#p2fe5538b34)" d="M 251.851153 173.395697 
L 252.618063 117.570633 
L 265.975181 121.252814 
L 264.839875 177.282368 
z
" style="fill:#623124;"/>
    <path clip-path="url(#p2fe5538b34)" d="M 291.24765 185.184478 
L 298.036935 178.33102 
L 298.770202 158.454031 
L 291.919798 165.18432 
z
" style="fill:#310046;"/>
    <path clip-path="url(#p2fe5538b34)" d="M 237.351973 187.043183 
L 244.670417 180.154631 
L 257.743589 184.115686 
L 250.510457 191.080779 
z
" style="fill:#86561e;"/>
    <path clip-path="url(#p2fe5538b34)" d="M 185.275104 125.755435 
L 198.151138 129.453992 
L 205.88874 123.073776 
L 193.092614 119.445373 
z
" style="fill:#a23f56;"/>
    <path clip-path="url(#p2fe5538b34)" d="M 149.662704 187.831639 
L 157.822766 180.928173 
L 170.430723 184.897786 
L 162.346885 191.878042 
z
" style="fill:#12034d;"/>
    <path clip-path="url(#p2fe5538b34)" d="M 218.949524 172.361429 
L 231.739835 176.23678 
L 231.994764 107.35517 
L 218.764957 103.733499 
z
" style="fill:#df9330;"/>
    <path clip-path="url(#p2fe5538b34)" d="M 191.031582 181.987547 
L 198.736391 175.194243 
L 198.170619 130.976509 
L 190.288379 137.490967 
z
" style="fill:#562030;"/>
    <path clip-path="url(#p2fe5538b34)" d="M 270.961723 188.120663 
L 277.971253 181.211726 
L 291.24765 185.184478 
L 284.327244 192.170297 
z
" style="fill:#631b49;"/>
    <path clip-path="url(#p2fe5538b34)" d="M 244.670417 180.154631 
L 245.2427 123.97468 
L 252.618063 117.570633 
L 251.851153 173.395697 
z
" style="fill:#cf674c;"/>
    <path clip-path="url(#p2fe5538b34)" d="M 277.971253 181.211726 
L 291.24765 185.184478 
L 291.919798 165.18432 
L 278.507042 161.282809 
z
" style="fill:#690195;"/>
    <path clip-path="url(#p2fe5538b34)" d="M 178.361455 178.049733 
L 177.489287 140.147134 
L 190.396223 143.947722 
L 191.031582 181.987547 
z
" style="fill:#4f1738;"/>
    <path clip-path="url(#p2fe5538b34)" d="M 278.507042 161.282809 
L 291.919798 165.18432 
L 298.770202 158.454031 
L 285.447438 154.626617 
z
" style="fill:#5b0181;"/>
    <path clip-path="url(#p2fe5538b34)" d="M 183.178635 188.911464 
L 191.031582 181.987547 
L 203.841786 185.968896 
L 196.068846 192.969946 
z
" style="fill:#7f412c;"/>
    <path clip-path="url(#p2fe5538b34)" d="M 149.544981 184.697193 
L 162.248612 188.732515 
L 170.346083 181.771418 
L 157.718906 177.812796 
z
" style="fill:#1a046e;"/>
    <path clip-path="url(#p2fe5538b34)" d="M 178.361455 178.049733 
L 191.031582 181.987547 
L 190.288379 137.490967 
L 177.341266 133.714455 
z
" style="fill:#b74367;"/>
    <path clip-path="url(#p2fe5538b34)" d="M 244.670417 180.154631 
L 251.851153 173.395697 
L 252.723614 109.887394 
L 245.321488 116.240267 
z
" style="fill:#673d1c;"/>
    <path clip-path="url(#p2fe5538b34)" d="M 205.757542 108.474361 
L 218.787425 112.087686 
L 226.350695 105.854576 
L 213.403387 102.309994 
z
" style="fill:#ba6639;"/>
    <path clip-path="url(#p2fe5538b34)" d="M 170.430723 184.897786 
L 169.398147 146.757055 
L 177.489287 140.147134 
L 178.361455 178.049733 
z
" style="fill:#a73076;"/>
    <path clip-path="url(#p2fe5538b34)" d="M 216.794403 189.994506 
L 224.338378 183.050047 
L 237.351973 187.043183 
L 229.891821 194.06512 
z
" style="fill:#876c14;"/>
    <path clip-path="url(#p2fe5538b34)" d="M 264.839875 177.282368 
L 265.887143 125.597648 
L 279.36588 129.337973 
L 277.971253 181.211726 
z
" style="fill:#5e2a28;"/>
    <path clip-path="url(#p2fe5538b34)" d="M 170.430723 184.897786 
L 170.163069 175.011348 
L 182.973135 178.989919 
L 183.178635 188.911464 
z
" style="fill:#1d0142;"/>
    <path clip-path="url(#p2fe5538b34)" d="M 211.467294 179.100638 
L 218.949524 172.361429 
L 218.752896 99.248662 
L 210.993036 105.51726 
z
" style="fill:#6a4d12;"/>
    <path clip-path="url(#p2fe5538b34)" d="M 162.346885 191.878042 
L 170.430723 184.897786 
L 170.346083 181.771418 
L 162.248612 188.732515 
z
" style="fill:#0e023c;"/>
    <path clip-path="url(#p2fe5538b34)" d="M 250.510457 191.080779 
L 257.743589 184.115686 
L 270.961723 188.120663 
L 263.816264 195.163579 
z
" style="fill:#824927;"/>
    <path clip-path="url(#p2fe5538b34)" d="M 231.739835 176.23678 
L 244.670417 180.154631 
L 245.321488 116.240267 
L 231.975511 112.557325 
z
" style="fill:#da803b;"/>
    <path clip-path="url(#p2fe5538b34)" d="M 218.949524 172.361429 
L 218.717164 85.962506 
L 232.060792 89.514293 
L 231.739835 176.23678 
z
" style="fill:#64680e;"/>
    <path clip-path="url(#p2fe5538b34)" d="M 198.736391 175.194243 
L 197.832811 104.575183 
L 211.010454 108.219836 
L 211.467294 179.100638 
z
" style="fill:#694914;"/>
    <path clip-path="url(#p2fe5538b34)" d="M 277.971253 181.211726 
L 278.967796 144.144868 
L 292.497873 147.98335 
L 291.24765 185.184478 
z
" style="fill:#4d1539;"/>
    <path clip-path="url(#p2fe5538b34)" d="M 149.662704 187.831639 
L 149.642885 187.303951 
L 162.330341 191.348492 
L 162.346885 191.878042 
z
" style="fill:#050338;"/>
    <path clip-path="url(#p2fe5538b34)" d="M 257.743589 184.115686 
L 258.615829 132.102913 
L 265.887143 125.597648 
L 264.839875 177.282368 
z
" style="fill:#c75956;"/>
    <path clip-path="url(#p2fe5538b34)" d="M 162.346885 191.878042 
L 162.036109 181.930689 
L 170.163069 175.011348 
L 170.430723 184.897786 
z
" style="fill:#3e038c;"/>
    <path clip-path="url(#p2fe5538b34)" d="M 198.736391 175.194243 
L 211.467294 179.100638 
L 210.993036 105.51726 
L 197.798366 101.883127 
z
" style="fill:#e0a427;"/>
    <path clip-path="url(#p2fe5538b34)" d="M 162.346885 191.878042 
L 170.430723 184.897786 
L 183.178635 188.911464 
L 175.173234 195.969799 
z
" style="fill:#250255;"/>
    <path clip-path="url(#p2fe5538b34)" d="M 149.662704 187.831639 
L 162.346885 191.878042 
L 162.248612 188.732515 
L 149.544981 184.697193 
z
" style="fill:#1e057f;"/>
    <path clip-path="url(#p2fe5538b34)" d="M 257.743589 184.115686 
L 264.839875 177.282368 
L 265.975181 121.252814 
L 258.689173 127.729331 
z
" style="fill:#623124;"/>
    <path clip-path="url(#p2fe5538b34)" d="M 211.467294 179.100638 
L 210.906818 92.140114 
L 218.717164 85.962506 
L 218.949524 172.361429 
z
" style="fill:#d4dc1e;"/>
    <path clip-path="url(#p2fe5538b34)" d="M 191.031582 181.987547 
L 189.844481 110.914218 
L 197.832811 104.575183 
L 198.736391 175.194243 
z
" style="fill:#e09b2b;"/>
    <path clip-path="url(#p2fe5538b34)" d="M 270.961723 188.120663 
L 271.836499 150.820805 
L 278.967796 144.144868 
L 277.971253 181.211726 
z
" style="fill:#a42d79;"/>
    <path clip-path="url(#p2fe5538b34)" d="M 141.344465 194.868925 
L 141.322225 194.338006 
L 149.642885 187.303951 
L 149.662704 187.831639 
z
" style="fill:#0b0777;"/>
    <path clip-path="url(#p2fe5538b34)" d="M 196.068846 192.969946 
L 203.841786 185.968896 
L 216.794403 189.994506 
L 209.103753 197.073984 
z
" style="fill:#855320;"/>
    <path clip-path="url(#p2fe5538b34)" d="M 231.739835 176.23678 
L 232.028848 98.145548 
L 245.468868 101.772229 
L 244.670417 180.154631 
z
" style="fill:#69570f;"/>
    <path clip-path="url(#p2fe5538b34)" d="M 244.670417 180.154631 
L 257.743589 184.115686 
L 258.689173 127.729331 
L 245.2427 123.97468 
z
" style="fill:#cf674c;"/>
    <path clip-path="url(#p2fe5538b34)" d="M 183.178635 188.911464 
L 191.031582 181.987547 
L 190.396223 143.947722 
L 182.385779 150.632278 
z
" style="fill:#4f1738;"/>
    <path clip-path="url(#p2fe5538b34)" d="M 177.341266 133.714455 
L 190.288379 137.490967 
L 198.170619 130.976509 
L 185.304003 127.272261 
z
" style="fill:#9f3a59;"/>
    <path clip-path="url(#p2fe5538b34)" d="M 229.891821 194.06512 
L 237.351973 187.043183 
L 250.510457 191.080779 
L 243.136481 198.181496 
z
" style="fill:#86581d;"/>
    <path clip-path="url(#p2fe5538b34)" d="M 141.344465 194.868925 
L 149.662704 187.831639 
L 162.346885 191.878042 
L 154.105465 198.994368 
z
" style="fill:#070448;"/>
    <path clip-path="url(#p2fe5538b34)" d="M 141.322225 194.338006 
L 154.086539 198.461572 
L 162.330341 191.348492 
L 149.642885 187.303951 
z
" style="fill:#0a0667;"/>
    <path clip-path="url(#p2fe5538b34)" d="M 263.816264 195.163579 
L 270.961723 188.120663 
L 284.327244 192.170297 
L 277.271882 199.292348 
z
" style="fill:#6f293d;"/>
    <path clip-path="url(#p2fe5538b34)" d="M 224.338378 183.050047 
L 224.338378 104.453459 
L 232.028848 98.145548 
L 231.739835 176.23678 
z
" style="fill:#deb821;"/>
    <path clip-path="url(#p2fe5538b34)" d="M 170.430723 184.897786 
L 183.178635 188.911464 
L 182.385779 150.632278 
L 169.398147 146.757055 
z
" style="fill:#a73076;"/>
    <path clip-path="url(#p2fe5538b34)" d="M 162.036109 181.930689 
L 174.925371 185.987047 
L 182.973135 178.989919 
L 170.163069 175.011348 
z
" style="fill:#36027a;"/>
    <path clip-path="url(#p2fe5538b34)" d="M 270.961723 188.120663 
L 277.971253 181.211726 
L 279.36588 129.337973 
L 272.186028 135.917113 
z
" style="fill:#5e2a28;"/>
    <path clip-path="url(#p2fe5538b34)" d="M 162.346885 191.878042 
L 162.288365 190.004921 
L 175.126562 194.090055 
L 175.173234 195.969799 
z
" style="fill:#0a033a;"/>
    <path clip-path="url(#p2fe5538b34)" d="M 175.173234 195.969799 
L 183.178635 188.911464 
L 182.973135 178.989919 
L 174.925371 185.987047 
z
" style="fill:#1d0142;"/>
    <path clip-path="url(#p2fe5538b34)" d="M 244.670417 180.154631 
L 245.364086 112.058555 
L 258.889775 115.767176 
L 257.743589 184.115686 
z
" style="fill:#694418;"/>
    <path clip-path="url(#p2fe5538b34)" d="M 191.031582 181.987547 
L 190.065439 124.143236 
L 203.243851 127.911648 
L 203.841786 185.968896 
z
" style="fill:#633322;"/>
    <path clip-path="url(#p2fe5538b34)" d="M 175.173234 195.969799 
L 183.178635 188.911464 
L 196.068846 192.969946 
L 188.144156 200.107676 
z
" style="fill:#42015a;"/>
    <path clip-path="url(#p2fe5538b34)" d="M 183.178635 188.911464 
L 182.740591 167.762665 
L 195.76629 171.745282 
L 196.068846 192.969946 
z
" style="fill:#330146;"/>
    <path clip-path="url(#p2fe5538b34)" d="M 218.764957 103.733499 
L 231.994764 107.35517 
L 239.502973 101.107906 
L 226.358761 97.555794 
z
" style="fill:#c18029;"/>
    <path clip-path="url(#p2fe5538b34)" d="M 224.338378 183.050047 
L 231.739835 176.23678 
L 232.060792 89.514293 
L 224.338378 95.762755 
z
" style="fill:#64680e;"/>
    <path clip-path="url(#p2fe5538b34)" d="M 203.841786 185.968896 
L 211.467294 179.100638 
L 211.010454 108.219836 
L 203.107076 114.631315 
z
" style="fill:#694914;"/>
    <path clip-path="url(#p2fe5538b34)" d="M 284.327244 192.170297 
L 291.24765 185.184478 
L 292.497873 147.98335 
L 285.459185 154.734975 
z
" style="fill:#4d1539;"/>
    <path clip-path="url(#p2fe5538b34)" d="M 154.105465 198.994368 
L 162.346885 191.878042 
L 162.330341 191.348492 
L 154.086539 198.461572 
z
" style="fill:#050338;"/>
    <path clip-path="url(#p2fe5538b34)" d="M 209.103753 197.073984 
L 216.794403 189.994506 
L 229.891821 194.06512 
L 222.285805 201.224351 
z
" style="fill:#814629;"/>
    <path clip-path="url(#p2fe5538b34)" d="M 257.743589 184.115686 
L 270.961723 188.120663 
L 272.186028 135.917113 
L 258.615829 132.102913 
z
" style="fill:#c75956;"/>
    <path clip-path="url(#p2fe5538b34)" d="M 162.346885 191.878042 
L 175.173234 195.969799 
L 174.925371 185.987047 
L 162.036109 181.930689 
z
" style="fill:#3e038c;"/>
    <path clip-path="url(#p2fe5538b34)" d="M 154.105465 198.994368 
L 154.038518 197.109755 
L 162.288365 190.004921 
L 162.346885 191.878042 
z
" style="fill:#16067b;"/>
    <path clip-path="url(#p2fe5538b34)" d="M 211.467294 179.100638 
L 210.941945 97.590318 
L 224.338378 101.234669 
L 224.338378 183.050047 
z
" style="fill:#685d0f;"/>
    <path clip-path="url(#p2fe5538b34)" d="M 237.351973 187.043183 
L 237.800362 118.509005 
L 245.364086 112.058555 
L 244.670417 180.154631 
z
" style="fill:#de8f32;"/>
    <path clip-path="url(#p2fe5538b34)" d="M 183.178635 188.911464 
L 181.972883 130.697615 
L 190.065439 124.143236 
L 191.031582 181.987547 
z
" style="fill:#d26c49;"/>
    <path clip-path="url(#p2fe5538b34)" d="M 175.173234 195.969799 
L 174.644859 174.689364 
L 182.740591 167.762665 
L 183.178635 188.911464 
z
" style="fill:#6d0294;"/>
    <path clip-path="url(#p2fe5538b34)" d="M 243.136481 198.181496 
L 250.510457 191.080779 
L 263.816264 195.163579 
L 256.530882 202.34441 
z
" style="fill:#824926;"/>
    <path clip-path="url(#p2fe5538b34)" d="M 211.467294 179.100638 
L 224.338378 183.050047 
L 224.338378 95.762755 
L 210.906818 92.140114 
z
" style="fill:#d4dc1e;"/>
    <path clip-path="url(#p2fe5538b34)" d="M 191.031582 181.987547 
L 203.841786 185.968896 
L 203.107076 114.631315 
L 189.844481 110.914218 
z
" style="fill:#e09b2b;"/>
    <path clip-path="url(#p2fe5538b34)" d="M 270.961723 188.120663 
L 284.327244 192.170297 
L 285.459185 154.734975 
L 271.836499 150.820805 
z
" style="fill:#a42d79;"/>
    <path clip-path="url(#p2fe5538b34)" d="M 141.344465 194.868925 
L 154.105465 198.994368 
L 154.086539 198.461572 
L 141.322225 194.338006 
z
" style="fill:#0b0777;"/>
    <path clip-path="url(#p2fe5538b34)" d="M 169.398147 146.757055 
L 182.385779 150.632278 
L 190.396223 143.947722 
L 177.489287 140.147134 
z
" style="fill:#912a66;"/>
    <path clip-path="url(#p2fe5538b34)" d="M 203.841786 185.968896 
L 202.996853 103.929114 
L 210.941945 97.590318 
L 211.467294 179.100638 
z
" style="fill:#dbc520;"/>
    <path clip-path="url(#p2fe5538b34)" d="M 257.743589 184.115686 
L 258.778826 122.383206 
L 272.414855 126.160079 
L 270.961723 188.120663 
z
" style="fill:#66391e;"/>
    <path clip-path="url(#p2fe5538b34)" d="M 231.975511 112.557325 
L 245.321488 116.240267 
L 252.723614 109.887394 
L 239.465207 106.275405 
z
" style="fill:#bd6f33;"/>
    <path clip-path="url(#p2fe5538b34)" d="M 154.105465 198.994368 
L 162.346885 191.878042 
L 175.173234 195.969799 
L 167.010898 203.166503 
z
" style="fill:#0d034a;"/>
    <path clip-path="url(#p2fe5538b34)" d="M 237.351973 187.043183 
L 244.670417 180.154631 
L 245.468868 101.772229 
L 237.868119 108.152601 
z
" style="fill:#69570f;"/>
    <path clip-path="url(#p2fe5538b34)" d="M 154.038518 197.109755 
L 166.955943 201.275215 
L 175.126562 194.090055 
L 162.288365 190.004921 
z
" style="fill:#13056b;"/>
    <path clip-path="url(#p2fe5538b34)" d="M 270.961723 188.120663 
L 272.021313 142.940441 
L 285.698362 146.824989 
L 284.327244 192.170297 
z
" style="fill:#572030;"/>
    <path clip-path="url(#p2fe5538b34)" d="M 188.144156 200.107676 
L 196.068846 192.969946 
L 209.103753 197.073984 
L 201.262108 204.292457 
z
" style="fill:#4e0857;"/>
    <path clip-path="url(#p2fe5538b34)" d="M 245.2427 123.97468 
L 258.689173 127.729331 
L 265.975181 121.252814 
L 252.618063 117.570633 
z
" style="fill:#b45a42;"/>
    <path clip-path="url(#p2fe5538b34)" d="M 250.510457 191.080779 
L 251.329602 128.952436 
L 258.778826 122.383206 
L 257.743589 184.115686 
z
" style="fill:#d77840;"/>
    <path clip-path="url(#p2fe5538b34)" d="M 175.173234 195.969799 
L 175.051841 191.080665 
L 188.054284 195.201194 
L 188.144156 200.107676 
z
" style="fill:#12023e;"/>
    <path clip-path="url(#p2fe5538b34)" d="M 224.338378 183.050047 
L 224.338378 105.969252 
L 237.858163 109.674389 
L 237.351973 187.043183 
z
" style="fill:#695410;"/>
    <path clip-path="url(#p2fe5538b34)" d="M 224.338378 183.050047 
L 237.351973 187.043183 
L 237.868119 108.152601 
L 224.338378 104.453459 
z
" style="fill:#deb821;"/>
    <path clip-path="url(#p2fe5538b34)" d="M 222.285805 201.224351 
L 229.891821 194.06512 
L 243.136481 198.181496 
L 235.617509 205.421836 
z
" style="fill:#793832;"/>
    <path clip-path="url(#p2fe5538b34)" d="M 197.798366 101.883127 
L 210.993036 105.51726 
L 218.752896 99.248662 
L 205.642608 95.684762 
z
" style="fill:#c28e22;"/>
    <path clip-path="url(#p2fe5538b34)" d="M 167.010898 203.166503 
L 175.173234 195.969799 
L 175.126562 194.090055 
L 166.955943 201.275215 
z
" style="fill:#0a033a;"/>
    <path clip-path="url(#p2fe5538b34)" d="M 196.068846 192.969946 
L 195.689953 166.390136 
L 208.898403 170.398301 
L 209.103753 197.073984 
z
" style="fill:#3d0644;"/>
    <path clip-path="url(#p2fe5538b34)" d="M 263.816264 195.163579 
L 264.72236 149.696881 
L 272.021313 142.940441 
L 270.961723 188.120663 
z
" style="fill:#b84466;"/>
    <path clip-path="url(#p2fe5538b34)" d="M 250.510457 191.080779 
L 257.743589 184.115686 
L 258.889775 115.767176 
L 251.417421 122.291777 
z
" style="fill:#694418;"/>
    <path clip-path="url(#p2fe5538b34)" d="M 196.068846 192.969946 
L 203.841786 185.968896 
L 203.243851 127.911648 
L 195.235948 134.541189 
z
" style="fill:#633322;"/>
    <path clip-path="url(#p2fe5538b34)" d="M 203.841786 185.968896 
L 203.152362 119.028461 
L 216.539196 122.805574 
L 216.794403 189.994506 
z
" style="fill:#684119;"/>
    <path clip-path="url(#p2fe5538b34)" d="M 271.836499 150.820805 
L 285.459185 154.734975 
L 292.497873 147.98335 
L 278.967796 144.144868 
z
" style="fill:#8e2769;"/>
    <path clip-path="url(#p2fe5538b34)" d="M 167.010898 203.166503 
L 166.86796 198.247271 
L 175.051841 191.080665 
L 175.173234 195.969799 
z
" style="fill:#270483;"/>
    <path clip-path="url(#p2fe5538b34)" d="M 188.144156 200.107676 
L 196.068846 192.969946 
L 195.76629 171.745282 
L 187.752963 178.750735 
z
" style="fill:#330146;"/>
    <path clip-path="url(#p2fe5538b34)" d="M 216.794403 189.994506 
L 216.499724 112.413871 
L 224.338378 105.969252 
L 224.338378 183.050047 
z
" style="fill:#dfb222;"/>
    <path clip-path="url(#p2fe5538b34)" d="M 256.530882 202.34441 
L 263.816264 195.163579 
L 277.271882 199.292348 
L 270.077576 206.554656 
z
" style="fill:#6f293d;"/>
    <path clip-path="url(#p2fe5538b34)" d="M 154.105465 198.994368 
L 167.010898 203.166503 
L 166.955943 201.275215 
L 154.038518 197.109755 
z
" style="fill:#16067b;"/>
    <path clip-path="url(#p2fe5538b34)" d="M 258.615829 132.102913 
L 272.186028 135.917113 
L 279.36588 129.337973 
L 265.887143 125.597648 
z
" style="fill:#ad4e4a;"/>
    <path clip-path="url(#p2fe5538b34)" d="M 216.794403 189.994506 
L 224.338378 183.050047 
L 224.338378 101.234669 
L 216.481617 107.646702 
z
" style="fill:#685d0f;"/>
    <path clip-path="url(#p2fe5538b34)" d="M 188.144156 200.107676 
L 187.654249 173.36151 
L 195.689953 166.390136 
L 196.068846 192.969946 
z
" style="fill:#810e90;"/>
    <path clip-path="url(#p2fe5538b34)" d="M 237.351973 187.043183 
L 250.510457 191.080779 
L 251.417421 122.291777 
L 237.800362 118.509005 
z
" style="fill:#de8f32;"/>
    <path clip-path="url(#p2fe5538b34)" d="M 183.178635 188.911464 
L 196.068846 192.969946 
L 195.235948 134.541189 
L 181.972883 130.697615 
z
" style="fill:#d26c49;"/>
    <path clip-path="url(#p2fe5538b34)" d="M 167.010898 203.166503 
L 175.173234 195.969799 
L 188.144156 200.107676 
L 180.063228 207.386128 
z
" style="fill:#17034f;"/>
    <path clip-path="url(#p2fe5538b34)" d="M 237.351973 187.043183 
L 237.804518 117.873812 
L 251.425829 121.654098 
L 250.510457 191.080779 
z
" style="fill:#694517;"/>
    <path clip-path="url(#p2fe5538b34)" d="M 196.068846 192.969946 
L 195.108467 125.59825 
L 203.152362 119.028461 
L 203.841786 185.968896 
z
" style="fill:#dd8a35;"/>
    <path clip-path="url(#p2fe5538b34)" d="M 175.173234 195.969799 
L 188.144156 200.107676 
L 187.752963 178.750735 
L 174.644859 174.689364 
z
" style="fill:#6d0294;"/>
    <path clip-path="url(#p2fe5538b34)" d="M 174.644859 174.689364 
L 187.752963 178.750735 
L 195.76629 171.745282 
L 182.740591 167.762665 
z
" style="fill:#5e0281;"/>
    <path clip-path="url(#p2fe5538b34)" d="M 201.262108 204.292457 
L 209.103753 197.073984 
L 222.285805 201.224351 
L 214.529606 208.524945 
z
" style="fill:#4f0956;"/>
    <path clip-path="url(#p2fe5538b34)" d="M 203.841786 185.968896 
L 216.794403 189.994506 
L 216.481617 107.646702 
L 202.996853 103.929114 
z
" style="fill:#dbc520;"/>
    <path clip-path="url(#p2fe5538b34)" d="M 263.816264 195.163579 
L 270.961723 188.120663 
L 272.414855 126.160079 
L 265.058995 132.805015 
z
" style="fill:#66391e;"/>
    <path clip-path="url(#p2fe5538b34)" d="M 216.794403 189.994506 
L 216.564007 129.337728 
L 230.062402 133.183912 
L 229.891821 194.06512 
z
" style="fill:#653620;"/>
    <path clip-path="url(#p2fe5538b34)" d="M 229.891821 194.06512 
L 230.086876 124.449194 
L 237.804518 117.873812 
L 237.351973 187.043183 
z
" style="fill:#de9230;"/>
    <path clip-path="url(#p2fe5538b34)" d="M 166.86796 198.247271 
L 179.952205 202.44941 
L 188.054284 195.201194 
L 175.051841 191.080665 
z
" style="fill:#220472;"/>
    <path clip-path="url(#p2fe5538b34)" d="M 188.144156 200.107676 
L 188.013926 192.99786 
L 201.178606 197.157342 
L 201.262108 204.292457 
z
" style="fill:#180240;"/>
    <path clip-path="url(#p2fe5538b34)" d="M 235.617509 205.421836 
L 243.136481 198.181496 
L 256.530882 202.34441 
L 249.101427 209.667246 
z
" style="fill:#712c3b;"/>
    <path clip-path="url(#p2fe5538b34)" d="M 277.271882 199.292348 
L 284.327244 192.170297 
L 285.698362 146.824989 
L 278.493809 153.659095 
z
" style="fill:#572030;"/>
    <path clip-path="url(#p2fe5538b34)" d="M 209.103753 197.073984 
L 208.89326 169.730135 
L 222.257283 173.781694 
L 222.285805 201.224351 
z
" style="fill:#3e0743;"/>
    <path clip-path="url(#p2fe5538b34)" d="M 250.510457 191.080779 
L 263.816264 195.163579 
L 265.058995 132.805015 
L 251.329602 128.952436 
z
" style="fill:#d77840;"/>
    <path clip-path="url(#p2fe5538b34)" d="M 250.510457 191.080779 
L 251.334245 128.600315 
L 265.06604 132.451527 
L 263.816264 195.163579 
z
" style="fill:#66391e;"/>
    <path clip-path="url(#p2fe5538b34)" d="M 180.063228 207.386128 
L 188.144156 200.107676 
L 188.054284 195.201194 
L 179.952205 202.44941 
z
" style="fill:#12023e;"/>
    <path clip-path="url(#p2fe5538b34)" d="M 209.103753 197.073984 
L 208.633819 136.02773 
L 216.564007 129.337728 
L 216.794403 189.994506 
z
" style="fill:#d57343;"/>
    <path clip-path="url(#p2fe5538b34)" d="M 229.891821 194.06512 
L 237.351973 187.043183 
L 237.858163 109.674389 
L 230.110007 116.193728 
z
" style="fill:#695410;"/>
    <path clip-path="url(#p2fe5538b34)" d="M 180.063228 207.386128 
L 179.902346 200.232419 
L 188.013926 192.99786 
L 188.144156 200.107676 
z
" style="fill:#320488;"/>
    <path clip-path="url(#p2fe5538b34)" d="M 263.816264 195.163579 
L 264.719698 149.83046 
L 278.490219 153.793179 
L 277.271882 199.292348 
z
" style="fill:#572030;"/>
    <path clip-path="url(#p2fe5538b34)" d="M 201.262108 204.292457 
L 209.103753 197.073984 
L 208.898403 170.398301 
L 200.947965 177.449607 
z
" style="fill:#3d0644;"/>
    <path clip-path="url(#p2fe5538b34)" d="M 263.816264 195.163579 
L 277.271882 199.292348 
L 278.493809 153.659095 
L 264.72236 149.696881 
z
" style="fill:#b84466;"/>
    <path clip-path="url(#p2fe5538b34)" d="M 201.262108 204.292457 
L 200.940096 176.777164 
L 208.89326 169.730135 
L 209.103753 197.073984 
z
" style="fill:#840f8f;"/>
    <path clip-path="url(#p2fe5538b34)" d="M 180.063228 207.386128 
L 188.144156 200.107676 
L 201.262108 204.292457 
L 193.264978 211.654059 
z
" style="fill:#1e0252;"/>
    <path clip-path="url(#p2fe5538b34)" d="M 209.103753 197.073984 
L 216.794403 189.994506 
L 216.539196 122.805574 
L 208.583195 129.45147 
z
" style="fill:#684119;"/>
    <path clip-path="url(#p2fe5538b34)" d="M 229.891821 194.06512 
L 230.041364 140.692668 
L 243.645599 144.612394 
L 243.136481 198.181496 
z
" style="fill:#5f2c27;"/>
    <path clip-path="url(#p2fe5538b34)" d="M 189.844481 110.914218 
L 203.107076 114.631315 
L 211.010454 108.219836 
L 197.832811 104.575183 
z
" style="fill:#c28626;"/>
    <path clip-path="url(#p2fe5538b34)" d="M 167.010898 203.166503 
L 180.063228 207.386128 
L 179.952205 202.44941 
L 166.86796 198.247271 
z
" style="fill:#270483;"/>
    <path clip-path="url(#p2fe5538b34)" d="M 243.136481 198.181496 
L 243.734111 135.299131 
L 251.334245 128.600315 
L 250.510457 191.080779 
z
" style="fill:#d87940;"/>
    <path clip-path="url(#p2fe5538b34)" d="M 216.794403 189.994506 
L 229.891821 194.06512 
L 230.110007 116.193728 
L 216.499724 112.413871 
z
" style="fill:#dfb222;"/>
    <path clip-path="url(#p2fe5538b34)" d="M 214.529606 208.524945 
L 222.285805 201.224351 
L 235.617509 205.421836 
L 227.94922 212.80596 
z
" style="fill:#4b0658;"/>
    <path clip-path="url(#p2fe5538b34)" d="M 188.144156 200.107676 
L 201.262108 204.292457 
L 200.947965 177.449607 
L 187.654249 173.36151 
z
" style="fill:#810e90;"/>
    <path clip-path="url(#p2fe5538b34)" d="M 256.530882 202.34441 
L 257.274973 156.723151 
L 264.719698 149.83046 
L 263.816264 195.163579 
z
" style="fill:#b84466;"/>
    <path clip-path="url(#p2fe5538b34)" d="M 243.136481 198.181496 
L 250.510457 191.080779 
L 251.425829 121.654098 
L 243.800575 128.305852 
z
" style="fill:#694517;"/>
    <path clip-path="url(#p2fe5538b34)" d="M 196.068846 192.969946 
L 209.103753 197.073984 
L 208.583195 129.45147 
L 195.108467 125.59825 
z
" style="fill:#dd8a35;"/>
    <path clip-path="url(#p2fe5538b34)" d="M 222.285805 201.224351 
L 222.229979 147.510648 
L 230.041364 140.692668 
L 229.891821 194.06512 
z
" style="fill:#c95d53;"/>
    <path clip-path="url(#p2fe5538b34)" d="M 222.285805 201.224351 
L 222.259573 175.985096 
L 235.762486 180.091426 
L 235.617509 205.421836 
z
" style="fill:#3b0545;"/>
    <path clip-path="url(#p2fe5538b34)" d="M 201.262108 204.292457 
L 201.158234 195.416632 
L 214.4852 199.617459 
L 214.529606 208.524945 
z
" style="fill:#1b0141;"/>
    <path clip-path="url(#p2fe5538b34)" d="M 249.101427 209.667246 
L 256.530882 202.34441 
L 270.077576 206.554656 
L 262.740181 213.961405 
z
" style="fill:#61194b;"/>
    <path clip-path="url(#p2fe5538b34)" d="M 179.902346 200.232419 
L 193.151419 204.47485 
L 201.178606 197.157342 
L 188.013926 192.99786 
z
" style="fill:#2b0376;"/>
    <path clip-path="url(#p2fe5538b34)" d="M 187.654249 173.36151 
L 200.947965 177.449607 
L 208.898403 170.398301 
L 195.689953 166.390136 
z
" style="fill:#700c7d;"/>
    <path clip-path="url(#p2fe5538b34)" d="M 181.972883 130.697615 
L 195.235948 134.541189 
L 203.243851 127.911648 
L 190.065439 124.143236 
z
" style="fill:#b65d3f;"/>
    <path clip-path="url(#p2fe5538b34)" d="M 210.906818 92.140114 
L 224.338378 95.762755 
L 232.060792 89.514293 
L 218.717164 85.962506 
z
" style="fill:#b8bf1a;"/>
    <path clip-path="url(#p2fe5538b34)" d="M 222.285805 201.224351 
L 229.891821 194.06512 
L 230.062402 133.183912 
L 222.222122 139.951613 
z
" style="fill:#653620;"/>
    <path clip-path="url(#p2fe5538b34)" d="M 229.891821 194.06512 
L 243.136481 198.181496 
L 243.800575 128.305852 
L 230.086876 124.449194 
z
" style="fill:#de9230;"/>
    <path clip-path="url(#p2fe5538b34)" d="M 243.136481 198.181496 
L 243.584784 151.01123 
L 257.303063 155.000956 
L 256.530882 202.34441 
z
" style="fill:#59222e;"/>
    <path clip-path="url(#p2fe5538b34)" d="M 193.264978 211.654059 
L 201.262108 204.292457 
L 201.178606 197.157342 
L 193.151419 204.47485 
z
" style="fill:#180240;"/>
    <path clip-path="url(#p2fe5538b34)" d="M 214.529606 208.524945 
L 214.402995 183.127529 
L 222.259573 175.985096 
L 222.285805 201.224351 
z
" style="fill:#7c0a91;"/>
    <path clip-path="url(#p2fe5538b34)" d="M 193.264978 211.654059 
L 193.123713 202.723305 
L 201.158234 195.416632 
L 201.262108 204.292457 
z
" style="fill:#39038b;"/>
    <path clip-path="url(#p2fe5538b34)" d="M 224.338378 104.453459 
L 237.868119 108.152601 
L 245.468868 101.772229 
L 232.028848 98.145548 
z
" style="fill:#c1a01c;"/>
    <path clip-path="url(#p2fe5538b34)" d="M 214.529606 208.524945 
L 222.285805 201.224351 
L 222.257283 173.781694 
L 214.39194 180.910016 
z
" style="fill:#3e0743;"/>
    <path clip-path="url(#p2fe5538b34)" d="M 193.264978 211.654059 
L 201.262108 204.292457 
L 214.529606 208.524945 
L 206.61873 215.971129 
z
" style="fill:#230254;"/>
    <path clip-path="url(#p2fe5538b34)" d="M 264.72236 149.696881 
L 278.493809 153.659095 
L 285.698362 146.824989 
L 272.021313 142.940441 
z
" style="fill:#a03b58;"/>
    <path clip-path="url(#p2fe5538b34)" d="M 256.530882 202.34441 
L 263.816264 195.163579 
L 265.06604 132.451527 
L 257.560317 139.228334 
z
" style="fill:#66391e;"/>
    <path clip-path="url(#p2fe5538b34)" d="M 237.800362 118.509005 
L 251.417421 122.291777 
L 258.889775 115.767176 
L 245.364086 112.058555 
z
" style="fill:#c17c2b;"/>
    <path clip-path="url(#p2fe5538b34)" d="M 209.103753 197.073984 
L 222.285805 201.224351 
L 222.222122 139.951613 
L 208.633819 136.02773 
z
" style="fill:#d57343;"/>
    <path clip-path="url(#p2fe5538b34)" d="M 235.617509 205.421836 
L 235.889206 157.951045 
L 243.584784 151.01123 
L 243.136481 198.181496 
z
" style="fill:#bc4962;"/>
    <path clip-path="url(#p2fe5538b34)" d="M 180.063228 207.386128 
L 193.264978 211.654059 
L 193.151419 204.47485 
L 179.902346 200.232419 
z
" style="fill:#320488;"/>
    <path clip-path="url(#p2fe5538b34)" d="M 227.94922 212.80596 
L 235.617509 205.421836 
L 249.101427 209.667246 
L 241.523583 217.136342 
z
" style="fill:#460359;"/>
    <path clip-path="url(#p2fe5538b34)" d="M 256.530882 202.34441 
L 257.124503 165.948717 
L 270.925878 170.026302 
L 270.077576 206.554656 
z
" style="fill:#4b133a;"/>
    <path clip-path="url(#p2fe5538b34)" d="M 270.077576 206.554656 
L 277.271882 199.292348 
L 278.490219 153.793179 
L 271.140933 160.765893 
z
" style="fill:#572030;"/>
    <path clip-path="url(#p2fe5538b34)" d="M 201.262108 204.292457 
L 214.529606 208.524945 
L 214.39194 180.910016 
L 200.940096 176.777164 
z
" style="fill:#840f8f;"/>
    <path clip-path="url(#p2fe5538b34)" d="M 235.617509 205.421836 
L 243.136481 198.181496 
L 243.645599 144.612394 
L 235.926072 151.509726 
z
" style="fill:#5f2c27;"/>
    <path clip-path="url(#p2fe5538b34)" d="M 235.617509 205.421836 
L 235.749033 182.442031 
L 249.391852 186.604507 
L 249.101427 209.667246 
z
" style="fill:#360246;"/>
    <path clip-path="url(#p2fe5538b34)" d="M 243.136481 198.181496 
L 256.530882 202.34441 
L 257.560317 139.228334 
L 243.734111 135.299131 
z
" style="fill:#d87940;"/>
    <path clip-path="url(#p2fe5538b34)" d="M 251.329602 128.952436 
L 265.058995 132.805015 
L 272.414855 126.160079 
L 258.778826 122.383206 
z
" style="fill:#bb6838;"/>
    <path clip-path="url(#p2fe5538b34)" d="M 214.529606 208.524945 
L 214.483949 199.366496 
L 227.966124 203.614805 
L 227.94922 212.80596 
z
" style="fill:#1b0141;"/>
    <path clip-path="url(#p2fe5538b34)" d="M 249.101427 209.667246 
L 249.56265 173.041367 
L 257.124503 165.948717 
L 256.530882 202.34441 
z
" style="fill:#a0297c;"/>
    <path clip-path="url(#p2fe5538b34)" d="M 256.530882 202.34441 
L 270.077576 206.554656 
L 271.140933 160.765893 
L 257.274973 156.723151 
z
" style="fill:#b84466;"/>
    <path clip-path="url(#p2fe5538b34)" d="M 200.940096 176.777164 
L 214.39194 180.910016 
L 222.257283 173.781694 
L 208.89326 169.730135 
z
" style="fill:#720d7c;"/>
    <path clip-path="url(#p2fe5538b34)" d="M 222.285805 201.224351 
L 235.617509 205.421836 
L 235.926072 151.509726 
L 222.229979 147.510648 
z
" style="fill:#c95d53;"/>
    <path clip-path="url(#p2fe5538b34)" d="M 227.94922 212.80596 
L 227.991748 189.682263 
L 235.749033 182.442031 
L 235.617509 205.421836 
z
" style="fill:#730494;"/>
    <path clip-path="url(#p2fe5538b34)" d="M 193.123713 202.723305 
L 206.537707 207.008467 
L 214.4852 199.617459 
L 201.158234 195.416632 
z
" style="fill:#320378;"/>
    <path clip-path="url(#p2fe5538b34)" d="M 227.94922 212.80596 
L 235.617509 205.421836 
L 235.762486 180.091426 
L 227.996099 187.316638 
z
" style="fill:#3b0545;"/>
    <path clip-path="url(#p2fe5538b34)" d="M 206.61873 215.971129 
L 214.529606 208.524945 
L 214.4852 199.617459 
L 206.537707 207.008467 
z
" style="fill:#1b0141;"/>
    <path clip-path="url(#p2fe5538b34)" d="M 206.61873 215.971129 
L 206.535425 206.755938 
L 214.483949 199.366496 
L 214.529606 208.524945 
z
" style="fill:#39038b;"/>
    <path clip-path="url(#p2fe5538b34)" d="M 202.996853 103.929114 
L 216.481617 107.646702 
L 224.338378 101.234669 
L 210.941945 97.590318 
z
" style="fill:#bfab1c;"/>
    <path clip-path="url(#p2fe5538b34)" d="M 206.61873 215.971129 
L 214.529606 208.524945 
L 227.94922 212.80596 
L 220.127123 220.338193 
z
" style="fill:#230254;"/>
    <path clip-path="url(#p2fe5538b34)" d="M 249.101427 209.667246 
L 256.530882 202.34441 
L 257.303063 155.000956 
L 249.701418 162.021754 
z
" style="fill:#59222e;"/>
    <path clip-path="url(#p2fe5538b34)" d="M 214.529606 208.524945 
L 227.94922 212.80596 
L 227.996099 187.316638 
L 214.402995 183.127529 
z
" style="fill:#7c0a91;"/>
    <path clip-path="url(#p2fe5538b34)" d="M 193.264978 211.654059 
L 206.61873 215.971129 
L 206.537707 207.008467 
L 193.123713 202.723305 
z
" style="fill:#39038b;"/>
    <path clip-path="url(#p2fe5538b34)" d="M 241.523583 217.136342 
L 249.101427 209.667246 
L 262.740181 213.961405 
L 255.255385 221.516949 
z
" style="fill:#3e005a;"/>
    <path clip-path="url(#p2fe5538b34)" d="M 249.101427 209.667246 
L 249.351731 189.7905 
L 263.130596 194.013034 
L 262.740181 213.961405 
z
" style="fill:#300046;"/>
    <path clip-path="url(#p2fe5538b34)" d="M 195.108467 125.59825 
L 208.583195 129.45147 
L 216.539196 122.805574 
L 203.152362 119.028461 
z
" style="fill:#c0782e;"/>
    <path clip-path="url(#p2fe5538b34)" d="M 235.617509 205.421836 
L 249.101427 209.667246 
L 249.701418 162.021754 
L 235.889206 157.951045 
z
" style="fill:#bc4962;"/>
    <path clip-path="url(#p2fe5538b34)" d="M 214.402995 183.127529 
L 227.996099 187.316638 
L 235.762486 180.091426 
L 222.259573 175.985096 
z
" style="fill:#6c087e;"/>
    <path clip-path="url(#p2fe5538b34)" d="M 227.94922 212.80596 
L 227.965641 203.877764 
L 241.602186 208.176239 
L 241.523583 217.136342 
z
" style="fill:#1b0141;"/>
    <path clip-path="url(#p2fe5538b34)" d="M 216.499724 112.413871 
L 230.110007 116.193728 
L 237.858163 109.674389 
L 224.338378 105.969252 
z
" style="fill:#c29b1d;"/>
    <path clip-path="url(#p2fe5538b34)" d="M 241.523583 217.136342 
L 241.699043 197.135328 
L 249.351731 189.7905 
L 249.101427 209.667246 
z
" style="fill:#660195;"/>
    <path clip-path="url(#p2fe5538b34)" d="M 262.740181 213.961405 
L 270.077576 206.554656 
L 270.925878 170.026302 
L 263.459615 177.201748 
z
" style="fill:#4b133a;"/>
    <path clip-path="url(#p2fe5538b34)" d="M 241.523583 217.136342 
L 249.101427 209.667246 
L 249.391852 186.604507 
L 241.72717 193.929041 
z
" style="fill:#360246;"/>
    <path clip-path="url(#p2fe5538b34)" d="M 257.274973 156.723151 
L 271.140933 160.765893 
L 278.490219 153.793179 
L 264.719698 149.83046 
z
" style="fill:#a03b58;"/>
    <path clip-path="url(#p2fe5538b34)" d="M 206.535425 206.755938 
L 220.107209 211.090042 
L 227.966124 203.614805 
L 214.483949 199.366496 
z
" style="fill:#320378;"/>
    <path clip-path="url(#p2fe5538b34)" d="M 208.633819 136.02773 
L 222.222122 139.951613 
L 230.062402 133.183912 
L 216.564007 129.337728 
z
" style="fill:#b9643a;"/>
    <path clip-path="url(#p2fe5538b34)" d="M 230.086876 124.449194 
L 243.800575 128.305852 
L 251.425829 121.654098 
L 237.804518 117.873812 
z
" style="fill:#c17e2a;"/>
    <path clip-path="url(#p2fe5538b34)" d="M 220.127123 220.338193 
L 220.107779 211.354644 
L 227.965641 203.877764 
L 227.94922 212.80596 
z
" style="fill:#39038b;"/>
    <path clip-path="url(#p2fe5538b34)" d="M 220.127123 220.338193 
L 227.94922 212.80596 
L 227.966124 203.614805 
L 220.107209 211.090042 
z
" style="fill:#1b0141;"/>
    <path clip-path="url(#p2fe5538b34)" d="M 220.127123 220.338193 
L 227.94922 212.80596 
L 241.523583 217.136342 
L 233.792858 224.756123 
z
" style="fill:#230254;"/>
    <path clip-path="url(#p2fe5538b34)" d="M 249.101427 209.667246 
L 262.740181 213.961405 
L 263.459615 177.201748 
L 249.56265 173.041367 
z
" style="fill:#a0297c;"/>
    <path clip-path="url(#p2fe5538b34)" d="M 227.94922 212.80596 
L 241.523583 217.136342 
L 241.72717 193.929041 
L 227.991748 189.682263 
z
" style="fill:#730494;"/>
    <path clip-path="url(#p2fe5538b34)" d="M 222.229979 147.510648 
L 235.926072 151.509726 
L 243.645599 144.612394 
L 230.041364 140.692668 
z
" style="fill:#af5048;"/>
    <path clip-path="url(#p2fe5538b34)" d="M 206.61873 215.971129 
L 220.127123 220.338193 
L 220.107209 211.090042 
L 206.535425 206.755938 
z
" style="fill:#39038b;"/>
    <path clip-path="url(#p2fe5538b34)" d="M 243.734111 135.299131 
L 257.560317 139.228334 
L 265.06604 132.451527 
L 251.334245 128.600315 
z
" style="fill:#bb6937;"/>
    <path clip-path="url(#p2fe5538b34)" d="M 227.991748 189.682263 
L 241.72717 193.929041 
L 249.391852 186.604507 
L 235.749033 182.442031 
z
" style="fill:#640480;"/>
    <path clip-path="url(#p2fe5538b34)" d="M 241.523583 217.136342 
L 241.59209 209.327016 
L 255.379352 213.679718 
L 255.255385 221.516949 
z
" style="fill:#180240;"/>
    <path clip-path="url(#p2fe5538b34)" d="M 255.255385 221.516949 
L 262.740181 213.961405 
L 263.130596 194.013034 
L 255.572896 201.443742 
z
" style="fill:#300046;"/>
    <path clip-path="url(#p2fe5538b34)" d="M 235.889206 157.951045 
L 249.701418 162.021754 
L 257.303063 155.000956 
L 243.584784 151.01123 
z
" style="fill:#a33f55;"/>
    <path clip-path="url(#p2fe5538b34)" d="M 249.56265 173.041367 
L 263.459615 177.201748 
L 270.925878 170.026302 
L 257.124503 165.948717 
z
" style="fill:#8b246c;"/>
    <path clip-path="url(#p2fe5538b34)" d="M 220.107779 211.354644 
L 233.83654 215.740425 
L 241.602186 208.176239 
L 227.965641 203.877764 
z
" style="fill:#320378;"/>
    <path clip-path="url(#p2fe5538b34)" d="M 233.792858 224.756123 
L 233.83093 216.898389 
L 241.59209 209.327016 
L 241.523583 217.136342 
z
" style="fill:#330488;"/>
    <path clip-path="url(#p2fe5538b34)" d="M 233.792858 224.756123 
L 241.523583 217.136342 
L 241.602186 208.176239 
L 233.83654 215.740425 
z
" style="fill:#1b0141;"/>
    <path clip-path="url(#p2fe5538b34)" d="M 233.792858 224.756123 
L 241.523583 217.136342 
L 255.255385 221.516949 
L 247.618703 229.225814 
z
" style="fill:#1f0252;"/>
    <path clip-path="url(#p2fe5538b34)" d="M 241.523583 217.136342 
L 255.255385 221.516949 
L 255.572896 201.443742 
L 241.699043 197.135328 
z
" style="fill:#660195;"/>
    <path clip-path="url(#p2fe5538b34)" d="M 241.699043 197.135328 
L 255.572896 201.443742 
L 263.130596 194.013034 
L 249.351731 189.7905 
z
" style="fill:#590181;"/>
    <path clip-path="url(#p2fe5538b34)" d="M 220.127123 220.338193 
L 233.792858 224.756123 
L 233.83654 215.740425 
L 220.107779 211.354644 
z
" style="fill:#39038b;"/>
    <path clip-path="url(#p2fe5538b34)" d="M 233.83093 216.898389 
L 247.712999 221.339967 
L 255.379352 213.679718 
L 241.59209 209.327016 
z
" style="fill:#2d0376;"/>
    <path clip-path="url(#p2fe5538b34)" d="M 247.618703 229.225814 
L 255.255385 221.516949 
L 255.379352 213.679718 
L 247.712999 221.339967 
z
" style="fill:#180240;"/>
    <path clip-path="url(#p2fe5538b34)" d="M 233.792858 224.756123 
L 247.618703 229.225814 
L 247.712999 221.339967 
L 233.83093 216.898389 
z
" style="fill:#330488;"/>
   </g>
   <g id="text_17">
    <!-- W20__H20__A270_bars_extracted.txt -->
    <g transform="translate(110.101875 28.56)scale(0.12 -0.12)">
     <defs>
      <path d="M 3.328125 72.90625 
L 13.28125 72.90625 
L 28.609375 11.28125 
L 43.890625 72.90625 
L 54.984375 72.90625 
L 70.3125 11.28125 
L 85.59375 72.90625 
L 95.609375 72.90625 
L 77.296875 0 
L 64.890625 0 
L 49.515625 63.28125 
L 33.984375 0 
L 21.578125 0 
z
" id="DejaVuSans-87"/>
      <path d="M 50.984375 -16.609375 
L 50.984375 -23.578125 
L -0.984375 -23.578125 
L -0.984375 -16.609375 
z
" id="DejaVuSans-95"/>
      <path d="M 9.8125 72.90625 
L 19.671875 72.90625 
L 19.671875 43.015625 
L 55.515625 43.015625 
L 55.515625 72.90625 
L 65.375 72.90625 
L 65.375 0 
L 55.515625 0 
L 55.515625 34.71875 
L 19.671875 34.71875 
L 19.671875 0 
L 9.8125 0 
z
" id="DejaVuSans-72"/>
      <path d="M 34.1875 63.1875 
L 20.796875 26.90625 
L 47.609375 26.90625 
z
M 28.609375 72.90625 
L 39.796875 72.90625 
L 67.578125 0 
L 57.328125 0 
L 50.6875 18.703125 
L 17.828125 18.703125 
L 11.1875 0 
L 0.78125 0 
z
" id="DejaVuSans-65"/>
      <path d="M 8.203125 72.90625 
L 55.078125 72.90625 
L 55.078125 68.703125 
L 28.609375 0 
L 18.3125 0 
L 43.21875 64.59375 
L 8.203125 64.59375 
z
" id="DejaVuSans-55"/>
      <path d="M 48.6875 27.296875 
Q 48.6875 37.203125 44.609375 42.84375 
Q 40.53125 48.484375 33.40625 48.484375 
Q 26.265625 48.484375 22.1875 42.84375 
Q 18.109375 37.203125 18.109375 27.296875 
Q 18.109375 17.390625 22.1875 11.75 
Q 26.265625 6.109375 33.40625 6.109375 
Q 40.53125 6.109375 44.609375 11.75 
Q 48.6875 17.390625 48.6875 27.296875 
z
M 18.109375 46.390625 
Q 20.953125 51.265625 25.265625 53.625 
Q 29.59375 56 35.59375 56 
Q 45.5625 56 51.78125 48.09375 
Q 58.015625 40.1875 58.015625 27.296875 
Q 58.015625 14.40625 51.78125 6.484375 
Q 45.5625 -1.421875 35.59375 -1.421875 
Q 29.59375 -1.421875 25.265625 0.953125 
Q 20.953125 3.328125 18.109375 8.203125 
L 18.109375 0 
L 9.078125 0 
L 9.078125 75.984375 
L 18.109375 75.984375 
z
" id="DejaVuSans-98"/>
      <path d="M 34.28125 27.484375 
Q 23.390625 27.484375 19.1875 25 
Q 14.984375 22.515625 14.984375 16.5 
Q 14.984375 11.71875 18.140625 8.90625 
Q 21.296875 6.109375 26.703125 6.109375 
Q 34.1875 6.109375 38.703125 11.40625 
Q 43.21875 16.703125 43.21875 25.484375 
L 43.21875 27.484375 
z
M 52.203125 31.203125 
L 52.203125 0 
L 43.21875 0 
L 43.21875 8.296875 
Q 40.140625 3.328125 35.546875 0.953125 
Q 30.953125 -1.421875 24.3125 -1.421875 
Q 15.921875 -1.421875 10.953125 3.296875 
Q 6 8.015625 6 15.921875 
Q 6 25.140625 12.171875 29.828125 
Q 18.359375 34.515625 30.609375 34.515625 
L 43.21875 34.515625 
L 43.21875 35.40625 
Q 43.21875 41.609375 39.140625 45 
Q 35.0625 48.390625 27.6875 48.390625 
Q 23 48.390625 18.546875 47.265625 
Q 14.109375 46.140625 10.015625 43.890625 
L 10.015625 52.203125 
Q 14.9375 54.109375 19.578125 55.046875 
Q 24.21875 56 28.609375 56 
Q 40.484375 56 46.34375 49.84375 
Q 52.203125 43.703125 52.203125 31.203125 
z
" id="DejaVuSans-97"/>
      <path d="M 41.109375 46.296875 
Q 39.59375 47.171875 37.8125 47.578125 
Q 36.03125 48 33.890625 48 
Q 26.265625 48 22.1875 43.046875 
Q 18.109375 38.09375 18.109375 28.8125 
L 18.109375 0 
L 9.078125 0 
L 9.078125 54.6875 
L 18.109375 54.6875 
L 18.109375 46.1875 
Q 20.953125 51.171875 25.484375 53.578125 
Q 30.03125 56 36.53125 56 
Q 37.453125 56 38.578125 55.875 
Q 39.703125 55.765625 41.0625 55.515625 
z
" id="DejaVuSans-114"/>
      <path d="M 44.28125 53.078125 
L 44.28125 44.578125 
Q 40.484375 46.53125 36.375 47.5 
Q 32.28125 48.484375 27.875 48.484375 
Q 21.1875 48.484375 17.84375 46.4375 
Q 14.5 44.390625 14.5 40.28125 
Q 14.5 37.15625 16.890625 35.375 
Q 19.28125 33.59375 26.515625 31.984375 
L 29.59375 31.296875 
Q 39.15625 29.25 43.1875 25.515625 
Q 47.21875 21.78125 47.21875 15.09375 
Q 47.21875 7.46875 41.1875 3.015625 
Q 35.15625 -1.421875 24.609375 -1.421875 
Q 20.21875 -1.421875 15.453125 -0.5625 
Q 10.6875 0.296875 5.421875 2 
L 5.421875 11.28125 
Q 10.40625 8.6875 15.234375 7.390625 
Q 20.0625 6.109375 24.8125 6.109375 
Q 31.15625 6.109375 34.5625 8.28125 
Q 37.984375 10.453125 37.984375 14.40625 
Q 37.984375 18.0625 35.515625 20.015625 
Q 33.0625 21.96875 24.703125 23.78125 
L 21.578125 24.515625 
Q 13.234375 26.265625 9.515625 29.90625 
Q 5.8125 33.546875 5.8125 39.890625 
Q 5.8125 47.609375 11.28125 51.796875 
Q 16.75 56 26.8125 56 
Q 31.78125 56 36.171875 55.265625 
Q 40.578125 54.546875 44.28125 53.078125 
z
" id="DejaVuSans-115"/>
      <path d="M 56.203125 29.59375 
L 56.203125 25.203125 
L 14.890625 25.203125 
Q 15.484375 15.921875 20.484375 11.0625 
Q 25.484375 6.203125 34.421875 6.203125 
Q 39.59375 6.203125 44.453125 7.46875 
Q 49.3125 8.734375 54.109375 11.28125 
L 54.109375 2.78125 
Q 49.265625 0.734375 44.1875 -0.34375 
Q 39.109375 -1.421875 33.890625 -1.421875 
Q 20.796875 -1.421875 13.15625 6.1875 
Q 5.515625 13.8125 5.515625 26.8125 
Q 5.515625 40.234375 12.765625 48.109375 
Q 20.015625 56 32.328125 56 
Q 43.359375 56 49.78125 48.890625 
Q 56.203125 41.796875 56.203125 29.59375 
z
M 47.21875 32.234375 
Q 47.125 39.59375 43.09375 43.984375 
Q 39.0625 48.390625 32.421875 48.390625 
Q 24.90625 48.390625 20.390625 44.140625 
Q 15.875 39.890625 15.1875 32.171875 
z
" id="DejaVuSans-101"/>
      <path d="M 54.890625 54.6875 
L 35.109375 28.078125 
L 55.90625 0 
L 45.3125 0 
L 29.390625 21.484375 
L 13.484375 0 
L 2.875 0 
L 24.125 28.609375 
L 4.6875 54.6875 
L 15.28125 54.6875 
L 29.78125 35.203125 
L 44.28125 54.6875 
z
" id="DejaVuSans-120"/>
      <path d="M 18.3125 70.21875 
L 18.3125 54.6875 
L 36.8125 54.6875 
L 36.8125 47.703125 
L 18.3125 47.703125 
L 18.3125 18.015625 
Q 18.3125 11.328125 20.140625 9.421875 
Q 21.96875 7.515625 27.59375 7.515625 
L 36.8125 7.515625 
L 36.8125 0 
L 27.59375 0 
Q 17.1875 0 13.234375 3.875 
Q 9.28125 7.765625 9.28125 18.015625 
L 9.28125 47.703125 
L 2.6875 47.703125 
L 2.6875 54.6875 
L 9.28125 54.6875 
L 9.28125 70.21875 
z
" id="DejaVuSans-116"/>
      <path d="M 48.78125 52.59375 
L 48.78125 44.1875 
Q 44.96875 46.296875 41.140625 47.34375 
Q 37.3125 48.390625 33.40625 48.390625 
Q 24.65625 48.390625 19.8125 42.84375 
Q 14.984375 37.3125 14.984375 27.296875 
Q 14.984375 17.28125 19.8125 11.734375 
Q 24.65625 6.203125 33.40625 6.203125 
Q 37.3125 6.203125 41.140625 7.25 
Q 44.96875 8.296875 48.78125 10.40625 
L 48.78125 2.09375 
Q 45.015625 0.34375 40.984375 -0.53125 
Q 36.96875 -1.421875 32.421875 -1.421875 
Q 20.0625 -1.421875 12.78125 6.34375 
Q 5.515625 14.109375 5.515625 27.296875 
Q 5.515625 40.671875 12.859375 48.328125 
Q 20.21875 56 33.015625 56 
Q 37.15625 56 41.109375 55.140625 
Q 45.0625 54.296875 48.78125 52.59375 
z
" id="DejaVuSans-99"/>
      <path d="M 45.40625 46.390625 
L 45.40625 75.984375 
L 54.390625 75.984375 
L 54.390625 0 
L 45.40625 0 
L 45.40625 8.203125 
Q 42.578125 3.328125 38.25 0.953125 
Q 33.9375 -1.421875 27.875 -1.421875 
Q 17.96875 -1.421875 11.734375 6.484375 
Q 5.515625 14.40625 5.515625 27.296875 
Q 5.515625 40.1875 11.734375 48.09375 
Q 17.96875 56 27.875 56 
Q 33.9375 56 38.25 53.625 
Q 42.578125 51.265625 45.40625 46.390625 
z
M 14.796875 27.296875 
Q 14.796875 17.390625 18.875 11.75 
Q 22.953125 6.109375 30.078125 6.109375 
Q 37.203125 6.109375 41.296875 11.75 
Q 45.40625 17.390625 45.40625 27.296875 
Q 45.40625 37.203125 41.296875 42.84375 
Q 37.203125 48.484375 30.078125 48.484375 
Q 22.953125 48.484375 18.875 42.84375 
Q 14.796875 37.203125 14.796875 27.296875 
z
" id="DejaVuSans-100"/>
      <path d="M 10.6875 12.40625 
L 21 12.40625 
L 21 0 
L 10.6875 0 
z
" id="DejaVuSans-46"/>
     </defs>
     <use xlink:href="#DejaVuSans-87"/>
     <use x="98.876953" xlink:href="#DejaVuSans-50"/>
     <use x="162.5" xlink:href="#DejaVuSans-48"/>
     <use x="226.123047" xlink:href="#DejaVuSans-95"/>
     <use x="276.123047" xlink:href="#DejaVuSans-95"/>
     <use x="326.123047" xlink:href="#DejaVuSans-72"/>
     <use x="401.318359" xlink:href="#DejaVuSans-50"/>
     <use x="464.941406" xlink:href="#DejaVuSans-48"/>
     <use x="528.564453" xlink:href="#DejaVuSans-95"/>
     <use x="578.564453" xlink:href="#DejaVuSans-95"/>
     <use x="628.564453" xlink:href="#DejaVuSans-65"/>
     <use x="696.972656" xlink:href="#DejaVuSans-50"/>
     <use x="760.595703" xlink:href="#DejaVuSans-55"/>
     <use x="824.21875" xlink:href="#DejaVuSans-48"/>
     <use x="887.841797" xlink:href="#DejaVuSans-95"/>
     <use x="937.841797" xlink:href="#DejaVuSans-98"/>
     <use x="1001.318359" xlink:href="#DejaVuSans-97"/>
     <use x="1062.597656" xlink:href="#DejaVuSans-114"/>
     <use x="1103.710938" xlink:href="#DejaVuSans-115"/>
     <use x="1155.810547" xlink:href="#DejaVuSans-95"/>
     <use x="1205.810547" xlink:href="#DejaVuSans-101"/>
     <use x="1265.583984" xlink:href="#DejaVuSans-120"/>
     <use x="1324.763672" xlink:href="#DejaVuSans-116"/>
     <use x="1363.972656" xlink:href="#DejaVuSans-114"/>
     <use x="1405.085938" xlink:href="#DejaVuSans-97"/>
     <use x="1466.365234" xlink:href="#DejaVuSans-99"/>
     <use x="1521.345703" xlink:href="#DejaVuSans-116"/>
     <use x="1560.554688" xlink:href="#DejaVuSans-101"/>
     <use x="1622.078125" xlink:href="#DejaVuSans-100"/>
     <use x="1685.554688" xlink:href="#DejaVuSans-46"/>
     <use x="1717.341797" xlink:href="#DejaVuSans-116"/>
     <use x="1756.550781" xlink:href="#DejaVuSans-120"/>
     <use x="1815.730469" xlink:href="#DejaVuSans-116"/>
    </g>
   </g>
  </g>
 </g>
 <defs>
  <clipPath id="p2fe5538b34">
   <rect height="217.44" width="217.44" x="112.68" y="34.56"/>
  </clipPath>
 </defs>
</svg>
