<?xml version="1.0" encoding="utf-8" standalone="no"?>
<!DOCTYPE svg PUBLIC "-//W3C//DTD SVG 1.1//EN"
  "http://www.w3.org/Graphics/SVG/1.1/DTD/svg11.dtd">
<!-- Created with matplotlib (https://matplotlib.org/) -->
<svg height="288pt" version="1.1" viewBox="0 0 432 288" width="432pt" xmlns="http://www.w3.org/2000/svg" xmlns:xlink="http://www.w3.org/1999/xlink">
 <metadata>
  <rdf:RDF xmlns:cc="http://creativecommons.org/ns#" xmlns:dc="http://purl.org/dc/elements/1.1/" xmlns:rdf="http://www.w3.org/1999/02/22-rdf-syntax-ns#">
   <cc:Work>
    <dc:type rdf:resource="http://purl.org/dc/dcmitype/StillImage"/>
    <dc:date>2021-06-13T21:57:16.853246</dc:date>
    <dc:format>image/svg+xml</dc:format>
    <dc:creator>
     <cc:Agent>
      <dc:title>Matplotlib v3.3.4, https://matplotlib.org/</dc:title>
     </cc:Agent>
    </dc:creator>
   </cc:Work>
  </rdf:RDF>
 </metadata>
 <defs>
  <style type="text/css">*{stroke-linecap:butt;stroke-linejoin:round;}</style>
 </defs>
 <g id="figure_1">
  <g id="patch_1">
   <path d="M 0 288 
L 432 288 
L 432 0 
L 0 0 
z
" style="fill:#ffffff;"/>
  </g>
  <g id="patch_2">
   <path d="M 112.68 252 
L 330.12 252 
L 330.12 34.56 
L 112.68 34.56 
z
" style="fill:#ffffff;"/>
  </g>
  <g id="pane3d_1">
   <g id="patch_3">
    <path d="M 129.09822 198.386264 
L 200.904009 138.197228 
L 199.90584 51.393878 
L 124.663773 106.302111 
" style="fill:#f2f2f2;opacity:0.5;stroke:#f2f2f2;stroke-linejoin:miter;"/>
   </g>
  </g>
  <g id="pane3d_2">
   <g id="patch_4">
    <path d="M 200.904009 138.197228 
L 316.12668 171.68791 
L 320.238571 81.894718 
L 199.90584 51.393878 
" style="fill:#e6e6e6;opacity:0.5;stroke:#e6e6e6;stroke-linejoin:miter;"/>
   </g>
  </g>
  <g id="pane3d_3">
   <g id="patch_5">
    <path d="M 129.09822 198.386264 
L 251.239879 238.27773 
L 316.12668 171.68791 
L 200.904009 138.197228 
" style="fill:#ececec;opacity:0.5;stroke:#ececec;stroke-linejoin:miter;"/>
   </g>
  </g>
  <g id="axis3d_1">
   <g id="line2d_1">
    <path d="M 129.09822 198.386264 
L 251.239879 238.27773 
" style="fill:none;stroke:#000000;stroke-linecap:square;stroke-width:0.8;"/>
   </g>
   <g id="Line3DCollection_1">
    <path d="M 136.495759 200.802301 
L 207.911499 140.234029 
L 207.209612 53.245171 
" style="fill:none;stroke:#b0b0b0;stroke-width:0.8;"/>
    <path d="M 162.23134 209.207541 
L 232.260894 147.311436 
L 232.60309 59.681678 
" style="fill:none;stroke:#b0b0b0;stroke-width:0.8;"/>
    <path d="M 188.559037 217.806167 
L 257.123632 154.538053 
L 258.555303 66.259807 
" style="fill:none;stroke:#b0b0b0;stroke-width:0.8;"/>
    <path d="M 215.499525 226.604931 
L 282.516121 161.918647 
L 285.084894 72.984285 
" style="fill:none;stroke:#b0b0b0;stroke-width:0.8;"/>
    <path d="M 243.074449 235.610901 
L 308.455474 169.458193 
L 312.21135 79.860051 
" style="fill:none;stroke:#b0b0b0;stroke-width:0.8;"/>
   </g>
   <g id="xtick_1">
    <g id="line2d_2">
     <path d="M 137.117644 200.274876 
L 135.249322 201.859414 
" style="fill:none;stroke:#000000;stroke-linecap:square;stroke-width:0.8;"/>
    </g>
    <g id="text_1">
     <!-- 0 -->
     <g transform="translate(125.77919 224.124533)scale(0.1 -0.1)">
      <defs>
       <path d="M 31.78125 66.40625 
Q 24.171875 66.40625 20.328125 58.90625 
Q 16.5 51.421875 16.5 36.375 
Q 16.5 21.390625 20.328125 13.890625 
Q 24.171875 6.390625 31.78125 6.390625 
Q 39.453125 6.390625 43.28125 13.890625 
Q 47.125 21.390625 47.125 36.375 
Q 47.125 51.421875 43.28125 58.90625 
Q 39.453125 66.40625 31.78125 66.40625 
z
M 31.78125 74.21875 
Q 44.046875 74.21875 50.515625 64.515625 
Q 56.984375 54.828125 56.984375 36.375 
Q 56.984375 17.96875 50.515625 8.265625 
Q 44.046875 -1.421875 31.78125 -1.421875 
Q 19.53125 -1.421875 13.0625 8.265625 
Q 6.59375 17.96875 6.59375 36.375 
Q 6.59375 54.828125 13.0625 64.515625 
Q 19.53125 74.21875 31.78125 74.21875 
z
" id="DejaVuSans-48"/>
      </defs>
      <use xlink:href="#DejaVuSans-48"/>
     </g>
    </g>
   </g>
   <g id="xtick_2">
    <g id="line2d_3">
     <path d="M 162.841716 208.668056 
L 161.007937 210.288854 
" style="fill:none;stroke:#000000;stroke-linecap:square;stroke-width:0.8;"/>
    </g>
    <g id="text_2">
     <!-- 2 -->
     <g transform="translate(151.547192 232.748132)scale(0.1 -0.1)">
      <defs>
       <path d="M 19.1875 8.296875 
L 53.609375 8.296875 
L 53.609375 0 
L 7.328125 0 
L 7.328125 8.296875 
Q 12.9375 14.109375 22.625 23.890625 
Q 32.328125 33.6875 34.8125 36.53125 
Q 39.546875 41.84375 41.421875 45.53125 
Q 43.3125 49.21875 43.3125 52.78125 
Q 43.3125 58.59375 39.234375 62.25 
Q 35.15625 65.921875 28.609375 65.921875 
Q 23.96875 65.921875 18.8125 64.3125 
Q 13.671875 62.703125 7.8125 59.421875 
L 7.8125 69.390625 
Q 13.765625 71.78125 18.9375 73 
Q 24.125 74.21875 28.421875 74.21875 
Q 39.75 74.21875 46.484375 68.546875 
Q 53.21875 62.890625 53.21875 53.421875 
Q 53.21875 48.921875 51.53125 44.890625 
Q 49.859375 40.875 45.40625 35.40625 
Q 44.1875 33.984375 37.640625 27.21875 
Q 31.109375 20.453125 19.1875 8.296875 
z
" id="DejaVuSans-50"/>
      </defs>
      <use xlink:href="#DejaVuSans-50"/>
     </g>
    </g>
   </g>
   <g id="xtick_3">
    <g id="line2d_4">
     <path d="M 189.15721 217.254202 
L 187.360066 218.91252 
" style="fill:none;stroke:#000000;stroke-linecap:square;stroke-width:0.8;"/>
    </g>
    <g id="text_3">
     <!-- 4 -->
     <g transform="translate(177.91082 241.571064)scale(0.1 -0.1)">
      <defs>
       <path d="M 37.796875 64.3125 
L 12.890625 25.390625 
L 37.796875 25.390625 
z
M 35.203125 72.90625 
L 47.609375 72.90625 
L 47.609375 25.390625 
L 58.015625 25.390625 
L 58.015625 17.1875 
L 47.609375 17.1875 
L 47.609375 0 
L 37.796875 0 
L 37.796875 17.1875 
L 4.890625 17.1875 
L 4.890625 26.703125 
z
" id="DejaVuSans-52"/>
      </defs>
      <use xlink:href="#DejaVuSans-52"/>
     </g>
    </g>
   </g>
   <g id="xtick_4">
    <g id="line2d_5">
     <path d="M 216.084757 226.040048 
L 214.326462 227.737204 
" style="fill:none;stroke:#000000;stroke-linecap:square;stroke-width:0.8;"/>
    </g>
    <g id="text_4">
     <!-- 6 -->
     <g transform="translate(204.890965 250.600322)scale(0.1 -0.1)">
      <defs>
       <path d="M 33.015625 40.375 
Q 26.375 40.375 22.484375 35.828125 
Q 18.609375 31.296875 18.609375 23.390625 
Q 18.609375 15.53125 22.484375 10.953125 
Q 26.375 6.390625 33.015625 6.390625 
Q 39.65625 6.390625 43.53125 10.953125 
Q 47.40625 15.53125 47.40625 23.390625 
Q 47.40625 31.296875 43.53125 35.828125 
Q 39.65625 40.375 33.015625 40.375 
z
M 52.59375 71.296875 
L 52.59375 62.3125 
Q 48.875 64.0625 45.09375 64.984375 
Q 41.3125 65.921875 37.59375 65.921875 
Q 27.828125 65.921875 22.671875 59.328125 
Q 17.53125 52.734375 16.796875 39.40625 
Q 19.671875 43.65625 24.015625 45.921875 
Q 28.375 48.1875 33.59375 48.1875 
Q 44.578125 48.1875 50.953125 41.515625 
Q 57.328125 34.859375 57.328125 23.390625 
Q 57.328125 12.15625 50.6875 5.359375 
Q 44.046875 -1.421875 33.015625 -1.421875 
Q 20.359375 -1.421875 13.671875 8.265625 
Q 6.984375 17.96875 6.984375 36.375 
Q 6.984375 53.65625 15.1875 63.9375 
Q 23.390625 74.21875 37.203125 74.21875 
Q 40.921875 74.21875 44.703125 73.484375 
Q 48.484375 72.75 52.59375 71.296875 
z
" id="DejaVuSans-54"/>
      </defs>
      <use xlink:href="#DejaVuSans-54"/>
     </g>
    </g>
   </g>
   <g id="xtick_5">
    <g id="line2d_6">
     <path d="M 243.645962 235.032643 
L 241.928856 236.770015 
" style="fill:none;stroke:#000000;stroke-linecap:square;stroke-width:0.8;"/>
    </g>
    <g id="text_5">
     <!-- 8 -->
     <g transform="translate(232.509511 259.84323)scale(0.1 -0.1)">
      <defs>
       <path d="M 31.78125 34.625 
Q 24.75 34.625 20.71875 30.859375 
Q 16.703125 27.09375 16.703125 20.515625 
Q 16.703125 13.921875 20.71875 10.15625 
Q 24.75 6.390625 31.78125 6.390625 
Q 38.8125 6.390625 42.859375 10.171875 
Q 46.921875 13.96875 46.921875 20.515625 
Q 46.921875 27.09375 42.890625 30.859375 
Q 38.875 34.625 31.78125 34.625 
z
M 21.921875 38.8125 
Q 15.578125 40.375 12.03125 44.71875 
Q 8.5 49.078125 8.5 55.328125 
Q 8.5 64.0625 14.71875 69.140625 
Q 20.953125 74.21875 31.78125 74.21875 
Q 42.671875 74.21875 48.875 69.140625 
Q 55.078125 64.0625 55.078125 55.328125 
Q 55.078125 49.078125 51.53125 44.71875 
Q 48 40.375 41.703125 38.8125 
Q 48.828125 37.15625 52.796875 32.3125 
Q 56.78125 27.484375 56.78125 20.515625 
Q 56.78125 9.90625 50.3125 4.234375 
Q 43.84375 -1.421875 31.78125 -1.421875 
Q 19.734375 -1.421875 13.25 4.234375 
Q 6.78125 9.90625 6.78125 20.515625 
Q 6.78125 27.484375 10.78125 32.3125 
Q 14.796875 37.15625 21.921875 38.8125 
z
M 18.3125 54.390625 
Q 18.3125 48.734375 21.84375 45.5625 
Q 25.390625 42.390625 31.78125 42.390625 
Q 38.140625 42.390625 41.71875 45.5625 
Q 45.3125 48.734375 45.3125 54.390625 
Q 45.3125 60.0625 41.71875 63.234375 
Q 38.140625 66.40625 31.78125 66.40625 
Q 25.390625 66.40625 21.84375 63.234375 
Q 18.3125 60.0625 18.3125 54.390625 
z
" id="DejaVuSans-56"/>
      </defs>
      <use xlink:href="#DejaVuSans-56"/>
     </g>
    </g>
   </g>
  </g>
  <g id="axis3d_2">
   <g id="line2d_7">
    <path d="M 316.12668 171.68791 
L 251.239879 238.27773 
" style="fill:none;stroke:#000000;stroke-linecap:square;stroke-width:0.8;"/>
   </g>
   <g id="Line3DCollection_2">
    <path d="M 129.866948 102.505071 
L 134.046245 194.238731 
L 255.729543 233.67023 
" style="fill:none;stroke:#b0b0b0;stroke-width:0.8;"/>
    <path d="M 147.250212 89.819556 
L 150.59591 180.366474 
L 270.72626 218.279909 
" style="fill:none;stroke:#b0b0b0;stroke-width:0.8;"/>
    <path d="M 163.958537 77.626582 
L 166.530371 167.009893 
L 285.136664 203.491289 
" style="fill:none;stroke:#b0b0b0;stroke-width:0.8;"/>
    <path d="M 180.030483 65.898008 
L 181.883306 154.140758 
L 298.994481 189.269761 
" style="fill:none;stroke:#b0b0b0;stroke-width:0.8;"/>
    <path d="M 195.501727 54.607799 
L 196.68598 141.732864 
L 312.330896 175.583317 
" style="fill:none;stroke:#b0b0b0;stroke-width:0.8;"/>
   </g>
   <g id="xtick_6">
    <g id="line2d_8">
     <path d="M 254.704115 233.337939 
L 257.783053 234.33567 
" style="fill:none;stroke:#000000;stroke-linecap:square;stroke-width:0.8;"/>
    </g>
    <g id="text_6">
     <!-- 0 -->
     <g transform="translate(265.430654 254.693759)scale(0.1 -0.1)">
      <use xlink:href="#DejaVuSans-48"/>
     </g>
    </g>
   </g>
   <g id="xtick_7">
    <g id="line2d_9">
     <path d="M 269.71494 217.960734 
L 272.751463 218.919068 
" style="fill:none;stroke:#000000;stroke-linecap:square;stroke-width:0.8;"/>
    </g>
    <g id="text_7">
     <!-- 2 -->
     <g transform="translate(280.181112 239.024526)scale(0.1 -0.1)">
      <use xlink:href="#DejaVuSans-50"/>
     </g>
    </g>
   </g>
   <g id="xtick_8">
    <g id="line2d_10">
     <path d="M 284.139145 203.184468 
L 287.134182 204.105694 
" style="fill:none;stroke:#000000;stroke-linecap:square;stroke-width:0.8;"/>
    </g>
    <g id="text_8">
     <!-- 4 -->
     <g transform="translate(294.35448 223.968328)scale(0.1 -0.1)">
      <use xlink:href="#DejaVuSans-52"/>
     </g>
    </g>
   </g>
   <g id="xtick_9">
    <g id="line2d_11">
     <path d="M 298.010457 188.97459 
L 300.964927 189.860821 
" style="fill:none;stroke:#000000;stroke-linecap:square;stroke-width:0.8;"/>
    </g>
    <g id="text_9">
     <!-- 6 -->
     <g transform="translate(307.983974 209.489882)scale(0.1 -0.1)">
      <use xlink:href="#DejaVuSans-54"/>
     </g>
    </g>
   </g>
   <g id="xtick_10">
    <g id="line2d_12">
     <path d="M 311.360068 175.299146 
L 314.274875 176.15234 
" style="fill:none;stroke:#000000;stroke-linecap:square;stroke-width:0.8;"/>
    </g>
    <g id="text_10">
     <!-- 8 -->
     <g transform="translate(321.10031 195.556556)scale(0.1 -0.1)">
      <use xlink:href="#DejaVuSans-56"/>
     </g>
    </g>
   </g>
  </g>
  <g id="axis3d_3">
   <g id="line2d_13">
    <path d="M 316.12668 171.68791 
L 320.238571 81.894718 
" style="fill:none;stroke:#000000;stroke-linecap:square;stroke-width:0.8;"/>
   </g>
   <g id="Line3DCollection_3">
    <path d="M 316.205459 169.967571 
L 200.884845 136.530725 
L 129.013401 196.624949 
" style="fill:none;stroke:#b0b0b0;stroke-width:0.8;"/>
    <path d="M 316.97815 153.093972 
L 200.696967 120.192305 
L 128.181183 179.343407 
" style="fill:none;stroke:#b0b0b0;stroke-width:0.8;"/>
    <path d="M 317.76395 135.934118 
L 200.506053 103.590009 
L 127.334306 161.75746 
" style="fill:none;stroke:#b0b0b0;stroke-width:0.8;"/>
    <path d="M 318.563194 118.480664 
L 200.312032 86.717389 
L 126.472379 143.858994 
" style="fill:none;stroke:#b0b0b0;stroke-width:0.8;"/>
    <path d="M 319.376232 100.726008 
L 200.114825 69.567791 
L 125.594998 125.639604 
" style="fill:none;stroke:#b0b0b0;stroke-width:0.8;"/>
   </g>
   <g id="xtick_11">
    <g id="line2d_14">
     <path d="M 315.237563 169.686933 
L 318.143556 170.529516 
" style="fill:none;stroke:#000000;stroke-linecap:square;stroke-width:0.8;"/>
    </g>
    <g id="text_11">
     <!-- 0 -->
     <g transform="translate(331.275915 174.966846)scale(0.1 -0.1)">
      <use xlink:href="#DejaVuSans-48"/>
     </g>
    </g>
   </g>
   <g id="xtick_12">
    <g id="line2d_15">
     <path d="M 316.001808 152.817717 
L 318.93318 153.647146 
" style="fill:none;stroke:#000000;stroke-linecap:square;stroke-width:0.8;"/>
    </g>
    <g id="text_12">
     <!-- 10000 -->
     <g transform="translate(319.473693 158.133912)scale(0.1 -0.1)">
      <defs>
       <path d="M 12.40625 8.296875 
L 28.515625 8.296875 
L 28.515625 63.921875 
L 10.984375 60.40625 
L 10.984375 69.390625 
L 28.421875 72.90625 
L 38.28125 72.90625 
L 38.28125 8.296875 
L 54.390625 8.296875 
L 54.390625 0 
L 12.40625 0 
z
" id="DejaVuSans-49"/>
      </defs>
      <use xlink:href="#DejaVuSans-49"/>
      <use x="63.623047" xlink:href="#DejaVuSans-48"/>
      <use x="127.246094" xlink:href="#DejaVuSans-48"/>
      <use x="190.869141" xlink:href="#DejaVuSans-48"/>
      <use x="254.492188" xlink:href="#DejaVuSans-48"/>
     </g>
    </g>
   </g>
   <g id="xtick_13">
    <g id="line2d_16">
     <path d="M 316.779012 135.662436 
L 319.73621 136.478141 
" style="fill:none;stroke:#000000;stroke-linecap:square;stroke-width:0.8;"/>
    </g>
    <g id="text_13">
     <!-- 20000 -->
     <g transform="translate(320.412067 141.016478)scale(0.1 -0.1)">
      <use xlink:href="#DejaVuSans-50"/>
      <use x="63.623047" xlink:href="#DejaVuSans-48"/>
      <use x="127.246094" xlink:href="#DejaVuSans-48"/>
      <use x="190.869141" xlink:href="#DejaVuSans-48"/>
      <use x="254.492188" xlink:href="#DejaVuSans-48"/>
     </g>
    </g>
   </g>
   <g id="xtick_14">
    <g id="line2d_17">
     <path d="M 317.569509 118.213751 
L 320.552991 119.01514 
" style="fill:none;stroke:#000000;stroke-linecap:square;stroke-width:0.8;"/>
    </g>
    <g id="text_14">
     <!-- 30000 -->
     <g transform="translate(321.366436 123.607272)scale(0.1 -0.1)">
      <defs>
       <path d="M 40.578125 39.3125 
Q 47.65625 37.796875 51.625 33 
Q 55.609375 28.21875 55.609375 21.1875 
Q 55.609375 10.40625 48.1875 4.484375 
Q 40.765625 -1.421875 27.09375 -1.421875 
Q 22.515625 -1.421875 17.65625 -0.515625 
Q 12.796875 0.390625 7.625 2.203125 
L 7.625 11.71875 
Q 11.71875 9.328125 16.59375 8.109375 
Q 21.484375 6.890625 26.8125 6.890625 
Q 36.078125 6.890625 40.9375 10.546875 
Q 45.796875 14.203125 45.796875 21.1875 
Q 45.796875 27.640625 41.28125 31.265625 
Q 36.765625 34.90625 28.71875 34.90625 
L 20.21875 34.90625 
L 20.21875 43.015625 
L 29.109375 43.015625 
Q 36.375 43.015625 40.234375 45.921875 
Q 44.09375 48.828125 44.09375 54.296875 
Q 44.09375 59.90625 40.109375 62.90625 
Q 36.140625 65.921875 28.71875 65.921875 
Q 24.65625 65.921875 20.015625 65.03125 
Q 15.375 64.15625 9.8125 62.3125 
L 9.8125 71.09375 
Q 15.4375 72.65625 20.34375 73.4375 
Q 25.25 74.21875 29.59375 74.21875 
Q 40.828125 74.21875 47.359375 69.109375 
Q 53.90625 64.015625 53.90625 55.328125 
Q 53.90625 49.265625 50.4375 45.09375 
Q 46.96875 40.921875 40.578125 39.3125 
z
" id="DejaVuSans-51"/>
      </defs>
      <use xlink:href="#DejaVuSans-51"/>
      <use x="63.623047" xlink:href="#DejaVuSans-48"/>
      <use x="127.246094" xlink:href="#DejaVuSans-48"/>
      <use x="190.869141" xlink:href="#DejaVuSans-48"/>
      <use x="254.492188" xlink:href="#DejaVuSans-48"/>
     </g>
    </g>
   </g>
   <g id="xtick_15">
    <g id="line2d_18">
     <path d="M 318.373642 100.464072 
L 321.383879 101.250526 
" style="fill:none;stroke:#000000;stroke-linecap:square;stroke-width:0.8;"/>
    </g>
    <g id="text_15">
     <!-- 40000 -->
     <g transform="translate(322.337213 105.898769)scale(0.1 -0.1)">
      <use xlink:href="#DejaVuSans-52"/>
      <use x="63.623047" xlink:href="#DejaVuSans-48"/>
      <use x="127.246094" xlink:href="#DejaVuSans-48"/>
      <use x="190.869141" xlink:href="#DejaVuSans-48"/>
      <use x="254.492188" xlink:href="#DejaVuSans-48"/>
     </g>
    </g>
   </g>
  </g>
  <g id="axes_1">
   <g id="Poly3DCollection_1">
    <path clip-path="url(#p85a69157e5)" d="M 203.700438 142.115361 
L 203.697769 141.852299 
L 215.8628 145.403036 
L 215.863902 145.66701 
z
" style="fill:#050338;"/>
    <path clip-path="url(#p85a69157e5)" d="M 196.401162 148.290596 
L 196.397516 148.025952 
L 203.697769 141.852299 
L 203.700438 142.115361 
z
" style="fill:#0b0777;"/>
    <path clip-path="url(#p85a69157e5)" d="M 196.401162 148.290596 
L 203.700438 142.115361 
L 215.863902 145.66701 
L 208.637156 151.907182 
z
" style="fill:#070448;"/>
    <path clip-path="url(#p85a69157e5)" d="M 196.397516 148.025952 
L 208.635096 151.641618 
L 215.8628 145.403036 
L 203.697769 141.852299 
z
" style="fill:#0a0667;"/>
    <path clip-path="url(#p85a69157e5)" d="M 215.863902 145.66701 
L 215.86089 144.945523 
L 228.156388 148.531942 
L 228.155024 149.255935 
z
" style="fill:#080339;"/>
    <path clip-path="url(#p85a69157e5)" d="M 208.637156 151.907182 
L 215.863902 145.66701 
L 215.8628 145.403036 
L 208.635096 151.641618 
z
" style="fill:#050338;"/>
    <path clip-path="url(#p85a69157e5)" d="M 208.637156 151.907182 
L 208.631526 151.181347 
L 215.86089 144.945523 
L 215.863902 145.66701 
z
" style="fill:#110679;"/>
    <path clip-path="url(#p85a69157e5)" d="M 196.401162 148.290596 
L 196.397961 148.058273 
L 208.635348 151.674051 
L 208.637156 151.907182 
z
" style="fill:#050338;"/>
    <path clip-path="url(#p85a69157e5)" d="M 196.401162 148.290596 
L 208.637156 151.907182 
L 208.635096 151.641618 
L 196.397516 148.025952 
z
" style="fill:#0b0777;"/>
    <path clip-path="url(#p85a69157e5)" d="M 208.637156 151.907182 
L 215.863902 145.66701 
L 228.155024 149.255935 
L 221.002748 155.562072 
z
" style="fill:#0a0449;"/>
    <path clip-path="url(#p85a69157e5)" d="M 208.631526 151.181347 
L 221.001546 154.833709 
L 228.156388 148.531942 
L 215.86089 144.945523 
z
" style="fill:#0f0569;"/>
    <path clip-path="url(#p85a69157e5)" d="M 188.96817 154.578956 
L 188.964081 154.345232 
L 196.397961 148.058273 
L 196.401162 148.290596 
z
" style="fill:#0b0777;"/>
    <path clip-path="url(#p85a69157e5)" d="M 228.155024 149.255935 
L 228.16714 142.821976 
L 240.627642 146.426291 
L 240.575825 152.882725 
z
" style="fill:#180240;"/>
    <path clip-path="url(#p85a69157e5)" d="M 221.002748 155.562072 
L 228.155024 149.255935 
L 228.156388 148.531942 
L 221.001546 154.833709 
z
" style="fill:#080339;"/>
    <path clip-path="url(#p85a69157e5)" d="M 188.96817 154.578956 
L 196.401162 148.290596 
L 208.637156 151.907182 
L 201.27732 158.262275 
z
" style="fill:#070448;"/>
    <path clip-path="url(#p85a69157e5)" d="M 188.964081 154.345232 
L 201.274639 158.027736 
L 208.635348 151.674051 
L 196.397961 148.058273 
z
" style="fill:#0a0667;"/>
    <path clip-path="url(#p85a69157e5)" d="M 221.002748 155.562072 
L 220.992062 149.089111 
L 228.16714 142.821976 
L 228.155024 149.255935 
z
" style="fill:#320488;"/>
    <path clip-path="url(#p85a69157e5)" d="M 208.637156 151.907182 
L 208.632391 151.292906 
L 221.00173 154.945657 
L 221.002748 155.562072 
z
" style="fill:#070339;"/>
    <path clip-path="url(#p85a69157e5)" d="M 208.637156 151.907182 
L 221.002748 155.562072 
L 221.001546 154.833709 
L 208.631526 151.181347 
z
" style="fill:#110679;"/>
    <path clip-path="url(#p85a69157e5)" d="M 221.002748 155.562072 
L 228.155024 149.255935 
L 240.575825 152.882725 
L 233.500008 159.25588 
z
" style="fill:#1e0252;"/>
    <path clip-path="url(#p85a69157e5)" d="M 201.27732 158.262275 
L 208.637156 151.907182 
L 208.635348 151.674051 
L 201.274639 158.027736 
z
" style="fill:#050338;"/>
    <path clip-path="url(#p85a69157e5)" d="M 201.27732 158.262275 
L 201.270257 157.644287 
L 208.632391 151.292906 
L 208.637156 151.907182 
z
" style="fill:#0e0678;"/>
    <path clip-path="url(#p85a69157e5)" d="M 188.96817 154.578956 
L 188.965152 154.406442 
L 201.275341 158.089159 
L 201.27732 158.262275 
z
" style="fill:#050338;"/>
    <path clip-path="url(#p85a69157e5)" d="M 220.992062 149.089111 
L 233.529514 152.760243 
L 240.627642 146.426291 
L 228.16714 142.821976 
z
" style="fill:#2b0376;"/>
    <path clip-path="url(#p85a69157e5)" d="M 188.96817 154.578956 
L 201.27732 158.262275 
L 201.274639 158.027736 
L 188.964081 154.345232 
z
" style="fill:#0b0777;"/>
    <path clip-path="url(#p85a69157e5)" d="M 201.27732 158.262275 
L 208.637156 151.907182 
L 221.002748 155.562072 
L 213.718049 161.984967 
z
" style="fill:#090449;"/>
    <path clip-path="url(#p85a69157e5)" d="M 201.270257 157.644287 
L 213.714779 161.364821 
L 221.00173 154.945657 
L 208.632391 151.292906 
z
" style="fill:#0c0668;"/>
    <path clip-path="url(#p85a69157e5)" d="M 233.500008 159.25588 
L 240.575825 152.882725 
L 240.627642 146.426291 
L 233.529514 152.760243 
z
" style="fill:#180240;"/>
    <path clip-path="url(#p85a69157e5)" d="M 181.397755 160.983577 
L 181.394057 160.81002 
L 188.965152 154.406442 
L 188.96817 154.578956 
z
" style="fill:#0b0777;"/>
    <path clip-path="url(#p85a69157e5)" d="M 233.500008 159.25588 
L 240.575825 152.882725 
L 253.128369 156.547983 
L 246.131049 162.989229 
z
" style="fill:#857313;"/>
    <path clip-path="url(#p85a69157e5)" d="M 221.002748 155.562072 
L 233.500008 159.25588 
L 233.529514 152.760243 
L 220.992062 149.089111 
z
" style="fill:#320488;"/>
    <path clip-path="url(#p85a69157e5)" d="M 213.718049 161.984967 
L 221.002748 155.562072 
L 221.00173 154.945657 
L 213.714779 161.364821 
z
" style="fill:#070339;"/>
    <path clip-path="url(#p85a69157e5)" d="M 221.002748 155.562072 
L 220.98865 147.022331 
L 233.538936 150.686176 
L 233.500008 159.25588 
z
" style="fill:#1c0142;"/>
    <path clip-path="url(#p85a69157e5)" d="M 181.397755 160.983577 
L 188.96817 154.578956 
L 201.27732 158.262275 
L 193.780682 164.735494 
z
" style="fill:#070448;"/>
    <path clip-path="url(#p85a69157e5)" d="M 181.394057 160.81002 
L 193.778036 164.56133 
L 201.275341 158.089159 
L 188.965152 154.406442 
z
" style="fill:#0a0667;"/>
    <path clip-path="url(#p85a69157e5)" d="M 201.27732 158.262275 
L 201.271426 157.74656 
L 213.71532 161.467451 
L 213.718049 161.984967 
z
" style="fill:#070339;"/>
    <path clip-path="url(#p85a69157e5)" d="M 201.27732 158.262275 
L 213.718049 161.984967 
L 213.714779 161.364821 
L 201.270257 157.644287 
z
" style="fill:#0e0678;"/>
    <path clip-path="url(#p85a69157e5)" d="M 213.718049 161.984967 
L 213.672745 153.393231 
L 220.98865 147.022331 
L 221.002748 155.562072 
z
" style="fill:#3b038b;"/>
    <path clip-path="url(#p85a69157e5)" d="M 213.718049 161.984967 
L 221.002748 155.562072 
L 233.500008 159.25588 
L 226.292478 165.747667 
z
" style="fill:#240254;"/>
    <path clip-path="url(#p85a69157e5)" d="M 193.780682 164.735494 
L 201.27732 158.262275 
L 201.275341 158.089159 
L 193.778036 164.56133 
z
" style="fill:#050338;"/>
    <path clip-path="url(#p85a69157e5)" d="M 193.780682 164.735494 
L 193.772799 164.216655 
L 201.271426 157.74656 
L 201.27732 158.262275 
z
" style="fill:#0e0678;"/>
    <path clip-path="url(#p85a69157e5)" d="M 246.131049 162.989229 
L 253.128369 156.547983 
L 265.814761 160.252323 
L 258.898031 166.762758 
z
" style="fill:#857413;"/>
    <path clip-path="url(#p85a69157e5)" d="M 181.397755 160.983577 
L 193.780682 164.735494 
L 193.778036 164.56133 
L 181.394057 160.81002 
z
" style="fill:#0b0777;"/>
    <path clip-path="url(#p85a69157e5)" d="M 181.397755 160.983577 
L 181.391752 160.70185 
L 193.776387 164.452782 
L 193.780682 164.735494 
z
" style="fill:#050338;"/>
    <path clip-path="url(#p85a69157e5)" d="M 265.814761 160.252323 
L 265.942477 154.044983 
L 278.805254 157.767251 
L 278.637155 163.996376 
z
" style="fill:#170240;"/>
    <path clip-path="url(#p85a69157e5)" d="M 193.780682 164.735494 
L 201.27732 158.262275 
L 213.718049 161.984967 
L 206.297214 168.527892 
z
" style="fill:#090449;"/>
    <path clip-path="url(#p85a69157e5)" d="M 193.772799 164.216655 
L 206.292535 168.007236 
L 213.71532 161.467451 
L 201.271426 157.74656 
z
" style="fill:#0c0668;"/>
    <path clip-path="url(#p85a69157e5)" d="M 213.672745 153.393231 
L 226.300859 157.125703 
L 233.538936 150.686176 
L 220.98865 147.022331 
z
" style="fill:#330379;"/>
    <path clip-path="url(#p85a69157e5)" d="M 226.292478 165.747667 
L 233.500008 159.25588 
L 233.538936 150.686176 
L 226.300859 157.125703 
z
" style="fill:#1c0142;"/>
    <path clip-path="url(#p85a69157e5)" d="M 173.686069 167.507715 
L 173.678921 167.224279 
L 181.391752 160.70185 
L 181.397755 160.983577 
z
" style="fill:#0b0777;"/>
    <path clip-path="url(#p85a69157e5)" d="M 226.292478 165.747667 
L 233.500008 159.25588 
L 246.131049 162.989229 
L 239.002775 169.551023 
z
" style="fill:#808314;"/>
    <path clip-path="url(#p85a69157e5)" d="M 258.898031 166.762758 
L 259.005444 160.517617 
L 265.942477 154.044983 
L 265.814761 160.252323 
z
" style="fill:#300487;"/>
    <path clip-path="url(#p85a69157e5)" d="M 213.718049 161.984967 
L 213.69487 157.589269 
L 226.296766 161.336552 
L 226.292478 165.747667 
z
" style="fill:#12023e;"/>
    <path clip-path="url(#p85a69157e5)" d="M 206.297214 168.527892 
L 213.718049 161.984967 
L 213.71532 161.467451 
L 206.292535 168.007236 
z
" style="fill:#070339;"/>
    <path clip-path="url(#p85a69157e5)" d="M 213.718049 161.984967 
L 226.292478 165.747667 
L 226.300859 157.125703 
L 213.672745 153.393231 
z
" style="fill:#3b038b;"/>
    <path clip-path="url(#p85a69157e5)" d="M 258.898031 166.762758 
L 265.814761 160.252323 
L 278.637155 163.996376 
L 271.803162 170.57712 
z
" style="fill:#1d0251;"/>
    <path clip-path="url(#p85a69157e5)" d="M 206.297214 168.527892 
L 206.257471 164.105443 
L 213.69487 157.589269 
L 213.718049 161.984967 
z
" style="fill:#270483;"/>
    <path clip-path="url(#p85a69157e5)" d="M 278.637155 163.996376 
L 278.660992 163.113048 
L 291.627435 166.894362 
L 291.597749 167.780781 
z
" style="fill:#080339;"/>
    <path clip-path="url(#p85a69157e5)" d="M 173.686069 167.507715 
L 181.397755 160.983577 
L 193.780682 164.735494 
L 186.143392 171.330164 
z
" style="fill:#070448;"/>
    <path clip-path="url(#p85a69157e5)" d="M 173.678921 167.224279 
L 186.137973 171.045735 
L 193.776387 164.452782 
L 181.391752 160.70185 
z
" style="fill:#0a0667;"/>
    <path clip-path="url(#p85a69157e5)" d="M 193.780682 164.735494 
L 193.773534 164.265011 
L 206.292971 168.055762 
L 206.297214 168.527892 
z
" style="fill:#070339;"/>
    <path clip-path="url(#p85a69157e5)" d="M 193.780682 164.735494 
L 206.297214 168.527892 
L 206.292535 168.007236 
L 193.772799 164.216655 
z
" style="fill:#0e0678;"/>
    <path clip-path="url(#p85a69157e5)" d="M 206.297214 168.527892 
L 213.718049 161.984967 
L 226.292478 165.747667 
L 218.949524 172.361429 
z
" style="fill:#17034f;"/>
    <path clip-path="url(#p85a69157e5)" d="M 271.803162 170.57712 
L 271.824195 169.688427 
L 278.660992 163.113048 
L 278.637155 163.996376 
z
" style="fill:#110679;"/>
    <path clip-path="url(#p85a69157e5)" d="M 259.005444 160.517617 
L 271.951485 164.310004 
L 278.805254 157.767251 
L 265.942477 154.044983 
z
" style="fill:#2a0375;"/>
    <path clip-path="url(#p85a69157e5)" d="M 186.143392 171.330164 
L 193.780682 164.735494 
L 193.776387 164.452782 
L 186.137973 171.045735 
z
" style="fill:#050338;"/>
    <path clip-path="url(#p85a69157e5)" d="M 240.575825 152.882725 
L 241.200866 75.001066 
L 254.242709 78.379175 
L 253.128369 156.547983 
z
" style="fill:#685a0f;"/>
    <path clip-path="url(#p85a69157e5)" d="M 186.143392 171.330164 
L 186.134374 170.856823 
L 193.773534 164.265011 
L 193.780682 164.735494 
z
" style="fill:#0e0678;"/>
    <path clip-path="url(#p85a69157e5)" d="M 239.002775 169.551023 
L 246.131049 162.989229 
L 258.898031 166.762758 
L 251.851153 173.395697 
z
" style="fill:#808512;"/>
    <path clip-path="url(#p85a69157e5)" d="M 271.803162 170.57712 
L 278.637155 163.996376 
L 278.805254 157.767251 
L 271.951485 164.310004 
z
" style="fill:#170240;"/>
    <path clip-path="url(#p85a69157e5)" d="M 206.257471 164.105443 
L 218.937589 167.923431 
L 226.296766 161.336552 
L 213.69487 157.589269 
z
" style="fill:#220472;"/>
    <path clip-path="url(#p85a69157e5)" d="M 271.803162 170.57712 
L 278.637155 163.996376 
L 291.597749 167.780781 
L 284.848695 174.43298 
z
" style="fill:#0a0449;"/>
    <path clip-path="url(#p85a69157e5)" d="M 173.686069 167.507715 
L 186.143392 171.330164 
L 186.137973 171.045735 
L 173.678921 167.224279 
z
" style="fill:#0b0777;"/>
    <path clip-path="url(#p85a69157e5)" d="M 173.686069 167.507715 
L 173.677141 167.153688 
L 186.136624 170.974896 
L 186.143392 171.330164 
z
" style="fill:#050338;"/>
    <path clip-path="url(#p85a69157e5)" d="M 233.500008 159.25588 
L 233.856052 80.875814 
L 241.200866 75.001066 
L 240.575825 152.882725 
z
" style="fill:#ddbf20;"/>
    <path clip-path="url(#p85a69157e5)" d="M 271.824195 169.688427 
L 284.875655 173.541169 
L 291.627435 166.894362 
L 278.660992 163.113048 
z
" style="fill:#0f0569;"/>
    <path clip-path="url(#p85a69157e5)" d="M 258.898031 166.762758 
L 259.001322 160.757299 
L 271.945793 164.550533 
L 271.803162 170.57712 
z
" style="fill:#16023f;"/>
    <path clip-path="url(#p85a69157e5)" d="M 291.597749 167.780781 
L 291.608289 167.466056 
L 304.711451 171.290368 
L 304.698789 171.606197 
z
" style="fill:#050338;"/>
    <path clip-path="url(#p85a69157e5)" d="M 258.898031 166.762758 
L 271.803162 170.57712 
L 271.951485 164.310004 
L 259.005444 160.517617 
z
" style="fill:#300487;"/>
    <path clip-path="url(#p85a69157e5)" d="M 218.949524 172.361429 
L 226.292478 165.747667 
L 226.296766 161.336552 
L 218.937589 167.923431 
z
" style="fill:#12023e;"/>
    <path clip-path="url(#p85a69157e5)" d="M 186.143392 171.330164 
L 193.780682 164.735494 
L 206.297214 168.527892 
L 198.736391 175.194243 
z
" style="fill:#090449;"/>
    <path clip-path="url(#p85a69157e5)" d="M 186.134374 170.856823 
L 198.730313 174.719242 
L 206.292971 168.055762 
L 193.773534 164.265011 
z
" style="fill:#0c0668;"/>
    <path clip-path="url(#p85a69157e5)" d="M 165.82912 174.154745 
L 165.818711 173.798565 
L 173.677141 167.153688 
L 173.686069 167.507715 
z
" style="fill:#0b0777;"/>
    <path clip-path="url(#p85a69157e5)" d="M 218.949524 172.361429 
L 226.292478 165.747667 
L 239.002775 169.551023 
L 231.739835 176.23678 
z
" style="fill:#857513;"/>
    <path clip-path="url(#p85a69157e5)" d="M 206.297214 168.527892 
L 206.269981 165.497528 
L 218.941346 169.320422 
L 218.949524 172.361429 
z
" style="fill:#0f023c;"/>
    <path clip-path="url(#p85a69157e5)" d="M 251.851153 173.395697 
L 251.934158 167.353577 
L 259.001322 160.757299 
L 258.898031 166.762758 
z
" style="fill:#2f0486;"/>
    <path clip-path="url(#p85a69157e5)" d="M 284.848695 174.43298 
L 284.858267 174.116341 
L 291.608289 167.466056 
L 291.597749 167.780781 
z
" style="fill:#0b0777;"/>
    <path clip-path="url(#p85a69157e5)" d="M 206.297214 168.527892 
L 218.949524 172.361429 
L 218.937589 167.923431 
L 206.257471 164.105443 
z
" style="fill:#270483;"/>
    <path clip-path="url(#p85a69157e5)" d="M 284.848695 174.43298 
L 291.597749 167.780781 
L 291.627435 166.894362 
L 284.875655 173.541169 
z
" style="fill:#080339;"/>
    <path clip-path="url(#p85a69157e5)" d="M 198.736391 175.194243 
L 206.297214 168.527892 
L 206.292971 168.055762 
L 198.730313 174.719242 
z
" style="fill:#070339;"/>
    <path clip-path="url(#p85a69157e5)" d="M 251.851153 173.395697 
L 258.898031 166.762758 
L 271.803162 170.57712 
L 264.839875 177.282368 
z
" style="fill:#1c0251;"/>
    <path clip-path="url(#p85a69157e5)" d="M 253.128369 156.547983 
L 254.249972 77.869659 
L 267.439555 81.283203 
L 265.814761 160.252323 
z
" style="fill:#685b0f;"/>
    <path clip-path="url(#p85a69157e5)" d="M 198.736391 175.194243 
L 198.697381 172.145411 
L 206.269981 165.497528 
L 206.297214 168.527892 
z
" style="fill:#200580;"/>
    <path clip-path="url(#p85a69157e5)" d="M 271.803162 170.57712 
L 271.820275 169.854041 
L 284.87063 173.707365 
L 284.848695 174.43298 
z
" style="fill:#080339;"/>
    <path clip-path="url(#p85a69157e5)" d="M 271.803162 170.57712 
L 284.848695 174.43298 
L 284.875655 173.541169 
L 271.824195 169.688427 
z
" style="fill:#110679;"/>
    <path clip-path="url(#p85a69157e5)" d="M 165.82912 174.154745 
L 173.686069 167.507715 
L 186.143392 171.330164 
L 178.361455 178.049733 
z
" style="fill:#070448;"/>
    <path clip-path="url(#p85a69157e5)" d="M 165.818711 173.798565 
L 178.353231 177.692303 
L 186.136624 170.974896 
L 173.677141 167.153688 
z
" style="fill:#0a0667;"/>
    <path clip-path="url(#p85a69157e5)" d="M 284.848695 174.43298 
L 291.597749 167.780781 
L 304.698789 171.606197 
L 298.036935 178.33102 
z
" style="fill:#070448;"/>
    <path clip-path="url(#p85a69157e5)" d="M 284.858267 174.116341 
L 298.048657 178.013269 
L 304.711451 171.290368 
L 291.608289 167.466056 
z
" style="fill:#0a0667;"/>
    <path clip-path="url(#p85a69157e5)" d="M 186.143392 171.330164 
L 186.136782 170.983214 
L 198.731936 174.846076 
L 198.736391 175.194243 
z
" style="fill:#050338;"/>
    <path clip-path="url(#p85a69157e5)" d="M 246.131049 162.989229 
L 253.128369 156.547983 
L 254.242709 78.379175 
L 246.982677 84.319138 
z
" style="fill:#685a0f;"/>
    <path clip-path="url(#p85a69157e5)" d="M 186.143392 171.330164 
L 198.736391 175.194243 
L 198.730313 174.719242 
L 186.134374 170.856823 
z
" style="fill:#0e0678;"/>
    <path clip-path="url(#p85a69157e5)" d="M 246.131049 162.989229 
L 246.988231 83.806169 
L 254.249972 77.869659 
L 253.128369 156.547983 
z
" style="fill:#ddc120;"/>
    <path clip-path="url(#p85a69157e5)" d="M 198.736391 175.194243 
L 206.297214 168.527892 
L 218.949524 172.361429 
L 211.467294 179.100638 
z
" style="fill:#13034d;"/>
    <path clip-path="url(#p85a69157e5)" d="M 264.839875 177.282368 
L 264.854616 176.554887 
L 271.820275 169.854041 
L 271.803162 170.57712 
z
" style="fill:#110679;"/>
    <path clip-path="url(#p85a69157e5)" d="M 251.934158 167.353577 
L 264.962736 171.218939 
L 271.945793 164.550533 
L 259.001322 160.757299 
z
" style="fill:#290375;"/>
    <path clip-path="url(#p85a69157e5)" d="M 233.500008 159.25588 
L 246.131049 162.989229 
L 246.982677 84.319138 
L 233.856052 80.875814 
z
" style="fill:#ddbf20;"/>
    <path clip-path="url(#p85a69157e5)" d="M 178.361455 178.049733 
L 178.353423 177.700671 
L 186.136782 170.983214 
L 186.143392 171.330164 
z
" style="fill:#0b0777;"/>
    <path clip-path="url(#p85a69157e5)" d="M 178.361455 178.049733 
L 186.143392 171.330164 
L 186.136624 170.974896 
L 178.353231 177.692303 
z
" style="fill:#050338;"/>
    <path clip-path="url(#p85a69157e5)" d="M 231.739835 176.23678 
L 239.002775 169.551023 
L 251.851153 173.395697 
L 244.670417 180.154631 
z
" style="fill:#847914;"/>
    <path clip-path="url(#p85a69157e5)" d="M 198.697381 172.145411 
L 211.447575 176.041072 
L 218.941346 169.320422 
L 206.269981 165.497528 
z
" style="fill:#1b046f;"/>
    <path clip-path="url(#p85a69157e5)" d="M 264.839875 177.282368 
L 271.803162 170.57712 
L 271.945793 164.550533 
L 264.962736 171.218939 
z
" style="fill:#16023f;"/>
    <path clip-path="url(#p85a69157e5)" d="M 298.036935 178.33102 
L 304.698789 171.606197 
L 304.711451 171.290368 
L 298.048657 178.013269 
z
" style="fill:#050338;"/>
    <path clip-path="url(#p85a69157e5)" d="M 233.500008 159.25588 
L 233.883811 74.764897 
L 247.04909 78.184233 
L 246.131049 162.989229 
z
" style="fill:#646610;"/>
    <path clip-path="url(#p85a69157e5)" d="M 264.839875 177.282368 
L 271.803162 170.57712 
L 284.848695 174.43298 
L 277.971253 181.211726 
z
" style="fill:#0a0449;"/>
    <path clip-path="url(#p85a69157e5)" d="M 165.82912 174.154745 
L 165.825293 174.023784 
L 178.358431 177.918313 
L 178.361455 178.049733 
z
" style="fill:#050338;"/>
    <path clip-path="url(#p85a69157e5)" d="M 264.854616 176.554887 
L 277.99088 180.481686 
L 284.87063 173.707365 
L 271.820275 169.854041 
z
" style="fill:#0f0569;"/>
    <path clip-path="url(#p85a69157e5)" d="M 165.82912 174.154745 
L 178.361455 178.049733 
L 178.353231 177.692303 
L 165.818711 173.798565 
z
" style="fill:#0b0777;"/>
    <path clip-path="url(#p85a69157e5)" d="M 211.467294 179.100638 
L 218.949524 172.361429 
L 218.941346 169.320422 
L 211.447575 176.041072 
z
" style="fill:#0f023c;"/>
    <path clip-path="url(#p85a69157e5)" d="M 251.851153 173.395697 
L 251.923962 168.095738 
L 264.947644 171.963727 
L 264.839875 177.282368 
z
" style="fill:#15023f;"/>
    <path clip-path="url(#p85a69157e5)" d="M 251.851153 173.395697 
L 264.839875 177.282368 
L 264.962736 171.218939 
L 251.934158 167.353577 
z
" style="fill:#2f0486;"/>
    <path clip-path="url(#p85a69157e5)" d="M 284.848695 174.43298 
L 284.856141 174.186669 
L 298.046053 178.083844 
L 298.036935 178.33102 
z
" style="fill:#050338;"/>
    <path clip-path="url(#p85a69157e5)" d="M 284.848695 174.43298 
L 298.036935 178.33102 
L 298.048657 178.013269 
L 284.858267 174.116341 
z
" style="fill:#0b0777;"/>
    <path clip-path="url(#p85a69157e5)" d="M 178.361455 178.049733 
L 186.143392 171.330164 
L 198.736391 175.194243 
L 191.031582 181.987547 
z
" style="fill:#070448;"/>
    <path clip-path="url(#p85a69157e5)" d="M 178.353423 177.700671 
L 191.025732 181.637258 
L 198.731936 174.846076 
L 186.136782 170.983214 
z
" style="fill:#0a0667;"/>
    <path clip-path="url(#p85a69157e5)" d="M 226.292478 165.747667 
L 226.375134 80.711644 
L 233.883811 74.764897 
L 233.500008 159.25588 
z
" style="fill:#d5d921;"/>
    <path clip-path="url(#p85a69157e5)" d="M 258.898031 166.762758 
L 265.814761 160.252323 
L 267.439555 81.283203 
L 260.264988 87.285997 
z
" style="fill:#685b0f;"/>
    <path clip-path="url(#p85a69157e5)" d="M 198.736391 175.194243 
L 198.709578 173.098651 
L 211.45374 176.997673 
L 211.467294 179.100638 
z
" style="fill:#0c033b;"/>
    <path clip-path="url(#p85a69157e5)" d="M 157.822766 180.928173 
L 157.818374 180.796414 
L 165.825293 174.023784 
L 165.82912 174.154745 
z
" style="fill:#0b0777;"/>
    <path clip-path="url(#p85a69157e5)" d="M 211.467294 179.100638 
L 218.949524 172.361429 
L 231.739835 176.23678 
L 224.338378 183.050047 
z
" style="fill:#875c1b;"/>
    <path clip-path="url(#p85a69157e5)" d="M 198.736391 175.194243 
L 211.467294 179.100638 
L 211.447575 176.041072 
L 198.697381 172.145411 
z
" style="fill:#200580;"/>
    <path clip-path="url(#p85a69157e5)" d="M 244.670417 180.154631 
L 244.724736 174.822257 
L 251.923962 168.095738 
L 251.851153 173.395697 
z
" style="fill:#2c0485;"/>
    <path clip-path="url(#p85a69157e5)" d="M 277.971253 181.211726 
L 277.977915 180.963914 
L 284.856141 174.186669 
L 284.848695 174.43298 
z
" style="fill:#0b0777;"/>
    <path clip-path="url(#p85a69157e5)" d="M 277.971253 181.211726 
L 284.848695 174.43298 
L 284.87063 173.707365 
L 277.99088 180.481686 
z
" style="fill:#080339;"/>
    <path clip-path="url(#p85a69157e5)" d="M 191.031582 181.987547 
L 198.736391 175.194243 
L 198.731936 174.846076 
L 191.025732 181.637258 
z
" style="fill:#050338;"/>
    <path clip-path="url(#p85a69157e5)" d="M 244.670417 180.154631 
L 251.851153 173.395697 
L 264.839875 177.282368 
L 257.743589 184.115686 
z
" style="fill:#1a0250;"/>
    <path clip-path="url(#p85a69157e5)" d="M 246.131049 162.989229 
L 258.898031 166.762758 
L 260.264988 87.285997 
L 246.988231 83.806169 
z
" style="fill:#ddc120;"/>
    <path clip-path="url(#p85a69157e5)" d="M 191.031582 181.987547 
L 190.996367 179.879162 
L 198.709578 173.098651 
L 198.736391 175.194243 
z
" style="fill:#1a057d;"/>
    <path clip-path="url(#p85a69157e5)" d="M 264.839875 177.282368 
L 264.853201 176.624703 
L 277.988996 180.551748 
L 277.971253 181.211726 
z
" style="fill:#070339;"/>
    <path clip-path="url(#p85a69157e5)" d="M 264.839875 177.282368 
L 277.971253 181.211726 
L 277.99088 180.481686 
L 264.854616 176.554887 
z
" style="fill:#110679;"/>
    <path clip-path="url(#p85a69157e5)" d="M 157.822766 180.928173 
L 165.82912 174.154745 
L 178.361455 178.049733 
L 170.430723 184.897786 
z
" style="fill:#070448;"/>
    <path clip-path="url(#p85a69157e5)" d="M 157.818374 180.796414 
L 170.427143 184.765563 
L 178.358431 177.918313 
L 165.825293 174.023784 
z
" style="fill:#0a0667;"/>
    <path clip-path="url(#p85a69157e5)" d="M 277.971253 181.211726 
L 284.848695 174.43298 
L 298.036935 178.33102 
L 291.24765 185.184478 
z
" style="fill:#070448;"/>
    <path clip-path="url(#p85a69157e5)" d="M 246.131049 162.989229 
L 247.057799 77.379717 
L 260.375954 80.834232 
L 258.898031 166.762758 
z
" style="fill:#64680e;"/>
    <path clip-path="url(#p85a69157e5)" d="M 277.977915 180.963914 
L 291.256008 184.935794 
L 298.046053 178.083844 
L 284.856141 174.186669 
z
" style="fill:#0a0667;"/>
    <path clip-path="url(#p85a69157e5)" d="M 178.361455 178.049733 
L 178.355632 177.796649 
L 191.02734 181.733573 
L 191.031582 181.987547 
z
" style="fill:#050338;"/>
    <path clip-path="url(#p85a69157e5)" d="M 178.361455 178.049733 
L 191.031582 181.987547 
L 191.025732 181.637258 
L 178.353423 177.700671 
z
" style="fill:#0b0777;"/>
    <path clip-path="url(#p85a69157e5)" d="M 191.031582 181.987547 
L 198.736391 175.194243 
L 211.467294 179.100638 
L 203.841786 185.968896 
z
" style="fill:#10034c;"/>
    <path clip-path="url(#p85a69157e5)" d="M 244.724736 174.822257 
L 257.833327 178.764472 
L 264.947644 171.963727 
L 251.923962 168.095738 
z
" style="fill:#260473;"/>
    <path clip-path="url(#p85a69157e5)" d="M 257.743589 184.115686 
L 257.754685 183.454008 
L 264.853201 176.624703 
L 264.839875 177.282368 
z
" style="fill:#0e0678;"/>
    <path clip-path="url(#p85a69157e5)" d="M 239.002775 169.551023 
L 246.131049 162.989229 
L 247.04909 78.184233 
L 239.626555 84.197832 
z
" style="fill:#646610;"/>
    <path clip-path="url(#p85a69157e5)" d="M 190.996367 179.879162 
L 203.819995 183.853076 
L 211.45374 176.997673 
L 198.709578 173.098651 
z
" style="fill:#17056d;"/>
    <path clip-path="url(#p85a69157e5)" d="M 239.002775 169.551023 
L 239.632475 83.387793 
L 247.057799 77.379717 
L 246.131049 162.989229 
z
" style="fill:#d4dc1e;"/>
    <path clip-path="url(#p85a69157e5)" d="M 170.430723 184.897786 
L 178.361455 178.049733 
L 178.358431 177.918313 
L 170.427143 184.765563 
z
" style="fill:#050338;"/>
    <path clip-path="url(#p85a69157e5)" d="M 170.430723 184.897786 
L 170.423829 184.643158 
L 178.355632 177.796649 
L 178.361455 178.049733 
z
" style="fill:#0b0777;"/>
    <path clip-path="url(#p85a69157e5)" d="M 224.338378 183.050047 
L 231.739835 176.23678 
L 244.670417 180.154631 
L 237.351973 187.043183 
z
" style="fill:#876417;"/>
    <path clip-path="url(#p85a69157e5)" d="M 257.743589 184.115686 
L 264.839875 177.282368 
L 264.947644 171.963727 
L 257.833327 178.764472 
z
" style="fill:#15023f;"/>
    <path clip-path="url(#p85a69157e5)" d="M 226.292478 165.747667 
L 226.369855 86.142983 
L 239.586705 89.650596 
L 239.002775 169.551023 
z
" style="fill:#685c0f;"/>
    <path clip-path="url(#p85a69157e5)" d="M 291.24765 185.184478 
L 298.036935 178.33102 
L 298.046053 178.083844 
L 291.256008 184.935794 
z
" style="fill:#050338;"/>
    <path clip-path="url(#p85a69157e5)" d="M 226.292478 165.747667 
L 239.002775 169.551023 
L 239.626555 84.197832 
L 226.375134 80.711644 
z
" style="fill:#d5d921;"/>
    <path clip-path="url(#p85a69157e5)" d="M 257.743589 184.115686 
L 264.839875 177.282368 
L 277.971253 181.211726 
L 270.961723 188.120663 
z
" style="fill:#090449;"/>
    <path clip-path="url(#p85a69157e5)" d="M 244.670417 180.154631 
L 244.709616 176.306535 
L 257.808348 180.25401 
L 257.743589 184.115686 
z
" style="fill:#11023d;"/>
    <path clip-path="url(#p85a69157e5)" d="M 203.841786 185.968896 
L 211.467294 179.100638 
L 211.45374 176.997673 
L 203.819995 183.853076 
z
" style="fill:#0c033b;"/>
    <path clip-path="url(#p85a69157e5)" d="M 257.754685 183.454008 
L 270.977296 187.456653 
L 277.988996 180.551748 
L 264.853201 176.624703 
z
" style="fill:#0c0668;"/>
    <path clip-path="url(#p85a69157e5)" d="M 157.822766 180.928173 
L 157.818828 180.810048 
L 170.427513 184.779245 
L 170.430723 184.897786 
z
" style="fill:#050338;"/>
    <path clip-path="url(#p85a69157e5)" d="M 157.822766 180.928173 
L 170.430723 184.897786 
L 170.427143 184.765563 
L 157.818374 180.796414 
z
" style="fill:#0b0777;"/>
    <path clip-path="url(#p85a69157e5)" d="M 244.670417 180.154631 
L 257.743589 184.115686 
L 257.833327 178.764472 
L 244.724736 174.822257 
z
" style="fill:#2c0485;"/>
    <path clip-path="url(#p85a69157e5)" d="M 218.949524 172.361429 
L 218.734056 92.243434 
L 226.369855 86.142983 
L 226.292478 165.747667 
z
" style="fill:#dcc220;"/>
    <path clip-path="url(#p85a69157e5)" d="M 277.971253 181.211726 
L 277.976237 181.026339 
L 291.253902 184.998439 
L 291.24765 185.184478 
z
" style="fill:#050338;"/>
    <path clip-path="url(#p85a69157e5)" d="M 277.971253 181.211726 
L 291.24765 185.184478 
L 291.256008 184.935794 
L 277.977915 180.963914 
z
" style="fill:#0b0777;"/>
    <path clip-path="url(#p85a69157e5)" d="M 170.430723 184.897786 
L 178.361455 178.049733 
L 191.031582 181.987547 
L 183.178635 188.911464 
z
" style="fill:#070448;"/>
    <path clip-path="url(#p85a69157e5)" d="M 170.423829 184.643158 
L 183.173342 188.655939 
L 191.02734 181.733573 
L 178.355632 177.796649 
z
" style="fill:#0a0667;"/>
    <path clip-path="url(#p85a69157e5)" d="M 191.031582 181.987547 
L 191.010488 180.724575 
L 203.828733 184.701474 
L 203.841786 185.968896 
z
" style="fill:#09033a;"/>
    <path clip-path="url(#p85a69157e5)" d="M 237.351973 187.043183 
L 237.377303 183.171526 
L 244.709616 176.306535 
L 244.670417 180.154631 
z
" style="fill:#230581;"/>
    <path clip-path="url(#p85a69157e5)" d="M 191.031582 181.987547 
L 203.841786 185.968896 
L 203.819995 183.853076 
L 190.996367 179.879162 
z
" style="fill:#1a057d;"/>
    <path clip-path="url(#p85a69157e5)" d="M 149.662704 187.831639 
L 149.658241 187.712792 
L 157.818828 180.810048 
L 157.822766 180.928173 
z
" style="fill:#0b0777;"/>
    <path clip-path="url(#p85a69157e5)" d="M 203.841786 185.968896 
L 211.467294 179.100638 
L 224.338378 183.050047 
L 216.794403 189.994506 
z
" style="fill:#7e402d;"/>
    <path clip-path="url(#p85a69157e5)" d="M 270.961723 188.120663 
L 270.966097 187.934144 
L 277.976237 181.026339 
L 277.971253 181.211726 
z
" style="fill:#0b0777;"/>
    <path clip-path="url(#p85a69157e5)" d="M 270.961723 188.120663 
L 277.971253 181.211726 
L 277.988996 180.551748 
L 270.977296 187.456653 
z
" style="fill:#070339;"/>
    <path clip-path="url(#p85a69157e5)" d="M 233.856052 80.875814 
L 246.982677 84.319138 
L 254.242709 78.379175 
L 241.200866 75.001066 
z
" style="fill:#c0a61c;"/>
    <path clip-path="url(#p85a69157e5)" d="M 251.851153 173.395697 
L 258.898031 166.762758 
L 260.375954 80.834232 
L 253.039268 86.910257 
z
" style="fill:#64680e;"/>
    <path clip-path="url(#p85a69157e5)" d="M 183.178635 188.911464 
L 191.031582 181.987547 
L 191.02734 181.733573 
L 183.173342 188.655939 
z
" style="fill:#050338;"/>
    <path clip-path="url(#p85a69157e5)" d="M 237.351973 187.043183 
L 244.670417 180.154631 
L 257.743589 184.115686 
L 250.510457 191.080779 
z
" style="fill:#15034e;"/>
    <path clip-path="url(#p85a69157e5)" d="M 183.178635 188.911464 
L 183.152315 187.640771 
L 191.010488 180.724575 
L 191.031582 181.987547 
z
" style="fill:#13067a;"/>
    <path clip-path="url(#p85a69157e5)" d="M 239.002775 169.551023 
L 239.598864 87.986888 
L 252.975836 91.52757 
L 251.851153 173.395697 
z
" style="fill:#675e10;"/>
    <path clip-path="url(#p85a69157e5)" d="M 257.743589 184.115686 
L 257.754606 183.458726 
L 270.977185 187.461388 
L 270.961723 188.120663 
z
" style="fill:#070339;"/>
    <path clip-path="url(#p85a69157e5)" d="M 257.743589 184.115686 
L 270.961723 188.120663 
L 270.977296 187.456653 
L 257.754685 183.454008 
z
" style="fill:#0e0678;"/>
    <path clip-path="url(#p85a69157e5)" d="M 149.662704 187.831639 
L 157.822766 180.928173 
L 170.430723 184.897786 
L 162.346885 191.878042 
z
" style="fill:#070448;"/>
    <path clip-path="url(#p85a69157e5)" d="M 149.658241 187.712792 
L 162.343159 191.758776 
L 170.427513 184.779245 
L 157.818828 180.810048 
z
" style="fill:#0a0667;"/>
    <path clip-path="url(#p85a69157e5)" d="M 270.961723 188.120663 
L 277.971253 181.211726 
L 291.24765 185.184478 
L 284.327244 192.170297 
z
" style="fill:#070448;"/>
    <path clip-path="url(#p85a69157e5)" d="M 270.966097 187.934144 
L 284.332904 191.98312 
L 291.253902 184.998439 
L 277.976237 181.026339 
z
" style="fill:#0a0667;"/>
    <path clip-path="url(#p85a69157e5)" d="M 218.949524 172.361429 
L 218.761716 102.528274 
L 231.999241 106.14526 
L 231.739835 176.23678 
z
" style="fill:#694815;"/>
    <path clip-path="url(#p85a69157e5)" d="M 239.002775 169.551023 
L 251.851153 173.395697 
L 253.039268 86.910257 
L 239.632475 83.387793 
z
" style="fill:#d4dc1e;"/>
    <path clip-path="url(#p85a69157e5)" d="M 170.430723 184.897786 
L 170.425665 184.710981 
L 183.174752 188.724001 
L 183.178635 188.911464 
z
" style="fill:#050338;"/>
    <path clip-path="url(#p85a69157e5)" d="M 170.430723 184.897786 
L 183.178635 188.911464 
L 183.173342 188.655939 
L 170.423829 184.643158 
z
" style="fill:#0b0777;"/>
    <path clip-path="url(#p85a69157e5)" d="M 237.377303 183.171526 
L 250.561684 187.195429 
L 257.808348 180.25401 
L 244.709616 176.306535 
z
" style="fill:#1f0470;"/>
    <path clip-path="url(#p85a69157e5)" d="M 231.739835 176.23678 
L 239.002775 169.551023 
L 239.586705 89.650596 
L 232.037454 95.820118 
z
" style="fill:#685c0f;"/>
    <path clip-path="url(#p85a69157e5)" d="M 231.739835 176.23678 
L 232.043654 94.145018 
L 239.598864 87.986888 
L 239.002775 169.551023 
z
" style="fill:#dbc821;"/>
    <path clip-path="url(#p85a69157e5)" d="M 183.178635 188.911464 
L 191.031582 181.987547 
L 203.841786 185.968896 
L 196.068846 192.969946 
z
" style="fill:#0c044a;"/>
    <path clip-path="url(#p85a69157e5)" d="M 250.510457 191.080779 
L 250.519171 190.419802 
L 257.754606 183.458726 
L 257.743589 184.115686 
z
" style="fill:#0e0678;"/>
    <path clip-path="url(#p85a69157e5)" d="M 183.152315 187.640771 
L 196.050668 191.694765 
L 203.828733 184.701474 
L 191.010488 180.724575 
z
" style="fill:#11056a;"/>
    <path clip-path="url(#p85a69157e5)" d="M 211.467294 179.100638 
L 211.014317 108.819073 
L 218.761716 102.528274 
L 218.949524 172.361429 
z
" style="fill:#df982d;"/>
    <path clip-path="url(#p85a69157e5)" d="M 250.510457 191.080779 
L 257.743589 184.115686 
L 257.808348 180.25401 
L 250.561684 187.195429 
z
" style="fill:#11023d;"/>
    <path clip-path="url(#p85a69157e5)" d="M 162.346885 191.878042 
L 170.430723 184.897786 
L 170.427513 184.779245 
L 162.343159 191.758776 
z
" style="fill:#050338;"/>
    <path clip-path="url(#p85a69157e5)" d="M 162.346885 191.878042 
L 162.341013 191.690095 
L 170.425665 184.710981 
L 170.430723 184.897786 
z
" style="fill:#0b0777;"/>
    <path clip-path="url(#p85a69157e5)" d="M 216.794403 189.994506 
L 224.338378 183.050047 
L 237.351973 187.043183 
L 229.891821 194.06512 
z
" style="fill:#814728;"/>
    <path clip-path="url(#p85a69157e5)" d="M 218.949524 172.361429 
L 231.739835 176.23678 
L 232.037454 95.820118 
L 218.734056 92.243434 
z
" style="fill:#dcc220;"/>
    <path clip-path="url(#p85a69157e5)" d="M 284.327244 192.170297 
L 291.24765 185.184478 
L 291.253902 184.998439 
L 284.332904 191.98312 
z
" style="fill:#050338;"/>
    <path clip-path="url(#p85a69157e5)" d="M 246.988231 83.806169 
L 260.264988 87.285997 
L 267.439555 81.283203 
L 254.249972 77.869659 
z
" style="fill:#c0a71c;"/>
    <path clip-path="url(#p85a69157e5)" d="M 237.351973 187.043183 
L 237.365932 184.909514 
L 250.538688 188.939574 
L 250.510457 191.080779 
z
" style="fill:#0c033b;"/>
    <path clip-path="url(#p85a69157e5)" d="M 250.510457 191.080779 
L 257.743589 184.115686 
L 270.961723 188.120663 
L 263.816264 195.163579 
z
" style="fill:#090449;"/>
    <path clip-path="url(#p85a69157e5)" d="M 196.068846 192.969946 
L 203.841786 185.968896 
L 203.828733 184.701474 
L 196.050668 191.694765 
z
" style="fill:#09033a;"/>
    <path clip-path="url(#p85a69157e5)" d="M 237.351973 187.043183 
L 250.510457 191.080779 
L 250.561684 187.195429 
L 237.377303 183.171526 
z
" style="fill:#230581;"/>
    <path clip-path="url(#p85a69157e5)" d="M 250.519171 190.419802 
L 263.829483 194.500268 
L 270.977185 187.461388 
L 257.754606 183.458726 
z
" style="fill:#0c0668;"/>
    <path clip-path="url(#p85a69157e5)" d="M 149.662704 187.831639 
L 149.658615 187.722759 
L 162.343471 191.768778 
L 162.346885 191.878042 
z
" style="fill:#050338;"/>
    <path clip-path="url(#p85a69157e5)" d="M 149.662704 187.831639 
L 162.346885 191.878042 
L 162.343159 191.758776 
L 149.658241 187.712792 
z
" style="fill:#0b0777;"/>
    <path clip-path="url(#p85a69157e5)" d="M 270.961723 188.120663 
L 270.966005 187.938072 
L 284.332785 191.987061 
L 284.327244 192.170297 
z
" style="fill:#050338;"/>
    <path clip-path="url(#p85a69157e5)" d="M 270.961723 188.120663 
L 284.327244 192.170297 
L 284.332904 191.98312 
L 270.966097 187.934144 
z
" style="fill:#0b0777;"/>
    <path clip-path="url(#p85a69157e5)" d="M 162.346885 191.878042 
L 170.430723 184.897786 
L 183.178635 188.911464 
L 175.173234 195.969799 
z
" style="fill:#070448;"/>
    <path clip-path="url(#p85a69157e5)" d="M 162.341013 191.690095 
L 175.168551 195.781188 
L 183.174752 188.724001 
L 170.425665 184.710981 
z
" style="fill:#0a0667;"/>
    <path clip-path="url(#p85a69157e5)" d="M 229.891821 194.06512 
L 229.897836 191.918376 
L 237.365932 184.909514 
L 237.351973 187.043183 
z
" style="fill:#1a057d;"/>
    <path clip-path="url(#p85a69157e5)" d="M 183.178635 188.911464 
L 183.163796 188.195039 
L 196.058597 192.250992 
L 196.068846 192.969946 
z
" style="fill:#070339;"/>
    <path clip-path="url(#p85a69157e5)" d="M 183.178635 188.911464 
L 196.068846 192.969946 
L 196.050668 191.694765 
L 183.152315 187.640771 
z
" style="fill:#13067a;"/>
    <path clip-path="url(#p85a69157e5)" d="M 211.467294 179.100638 
L 211.101424 122.334185 
L 224.338378 126.075028 
L 224.338378 183.050047 
z
" style="fill:#623223;"/>
    <path clip-path="url(#p85a69157e5)" d="M 141.344465 194.868925 
L 141.339876 194.759378 
L 149.658615 187.722759 
L 149.662704 187.831639 
z
" style="fill:#0b0777;"/>
    <path clip-path="url(#p85a69157e5)" d="M 231.739835 176.23678 
L 232.01173 102.770965 
L 245.421566 106.415828 
L 244.670417 180.154631 
z
" style="fill:#6a4e12;"/>
    <path clip-path="url(#p85a69157e5)" d="M 244.670417 180.154631 
L 251.851153 173.395697 
L 252.975836 91.52757 
L 245.509781 97.755878 
z
" style="fill:#675e10;"/>
    <path clip-path="url(#p85a69157e5)" d="M 196.068846 192.969946 
L 203.841786 185.968896 
L 216.794403 189.994506 
L 209.103753 197.073984 
z
" style="fill:#6a2342;"/>
    <path clip-path="url(#p85a69157e5)" d="M 263.816264 195.163579 
L 263.819925 194.97987 
L 270.966005 187.938072 
L 270.961723 188.120663 
z
" style="fill:#0b0777;"/>
    <path clip-path="url(#p85a69157e5)" d="M 263.816264 195.163579 
L 270.961723 188.120663 
L 270.977185 187.461388 
L 263.829483 194.500268 
z
" style="fill:#070339;"/>
    <path clip-path="url(#p85a69157e5)" d="M 224.338378 183.050047 
L 231.739835 176.23678 
L 231.999241 106.14526 
L 224.338378 112.507632 
z
" style="fill:#694815;"/>
    <path clip-path="url(#p85a69157e5)" d="M 175.173234 195.969799 
L 183.178635 188.911464 
L 183.174752 188.724001 
L 175.168551 195.781188 
z
" style="fill:#050338;"/>
    <path clip-path="url(#p85a69157e5)" d="M 175.173234 195.969799 
L 175.155337 195.248986 
L 183.163796 188.195039 
L 183.178635 188.911464 
z
" style="fill:#0e0678;"/>
    <path clip-path="url(#p85a69157e5)" d="M 229.891821 194.06512 
L 237.351973 187.043183 
L 250.510457 191.080779 
L 243.136481 198.181496 
z
" style="fill:#10034c;"/>
    <path clip-path="url(#p85a69157e5)" d="M 203.841786 185.968896 
L 203.253417 128.840488 
L 211.101424 122.334185 
L 211.467294 179.100638 
z
" style="fill:#d1694a;"/>
    <path clip-path="url(#p85a69157e5)" d="M 224.338378 183.050047 
L 224.338378 109.11044 
L 232.01173 102.770965 
L 231.739835 176.23678 
z
" style="fill:#e0a626;"/>
    <path clip-path="url(#p85a69157e5)" d="M 231.739835 176.23678 
L 244.670417 180.154631 
L 245.509781 97.755878 
L 232.043654 94.145018 
z
" style="fill:#dbc821;"/>
    <path clip-path="url(#p85a69157e5)" d="M 250.510457 191.080779 
L 250.51678 190.601187 
L 263.825855 194.682294 
L 263.816264 195.163579 
z
" style="fill:#070339;"/>
    <path clip-path="url(#p85a69157e5)" d="M 250.510457 191.080779 
L 263.816264 195.163579 
L 263.829483 194.500268 
L 250.519171 190.419802 
z
" style="fill:#0e0678;"/>
    <path clip-path="url(#p85a69157e5)" d="M 229.897836 191.918376 
L 243.156956 196.027155 
L 250.538688 188.939574 
L 237.365932 184.909514 
z
" style="fill:#17056d;"/>
    <path clip-path="url(#p85a69157e5)" d="M 141.344465 194.868925 
L 149.662704 187.831639 
L 162.346885 191.878042 
L 154.105465 198.994368 
z
" style="fill:#070448;"/>
    <path clip-path="url(#p85a69157e5)" d="M 141.339876 194.759378 
L 154.10156 198.884434 
L 162.343471 191.768778 
L 149.658615 187.722759 
z
" style="fill:#0a0667;"/>
    <path clip-path="url(#p85a69157e5)" d="M 263.816264 195.163579 
L 270.961723 188.120663 
L 284.327244 192.170297 
L 277.271882 199.292348 
z
" style="fill:#070448;"/>
    <path clip-path="url(#p85a69157e5)" d="M 263.819925 194.97987 
L 277.276818 199.10799 
L 284.332785 191.987061 
L 270.966005 187.938072 
z
" style="fill:#0a0667;"/>
    <path clip-path="url(#p85a69157e5)" d="M 211.467294 179.100638 
L 224.338378 183.050047 
L 224.338378 112.507632 
L 211.014317 108.819073 
z
" style="fill:#df982d;"/>
    <path clip-path="url(#p85a69157e5)" d="M 162.346885 191.878042 
L 175.173234 195.969799 
L 175.168551 195.781188 
L 162.341013 191.690095 
z
" style="fill:#0b0777;"/>
    <path clip-path="url(#p85a69157e5)" d="M 162.346885 191.878042 
L 162.339775 191.650459 
L 175.167563 195.741411 
L 175.173234 195.969799 
z
" style="fill:#050338;"/>
    <path clip-path="url(#p85a69157e5)" d="M 226.375134 80.711644 
L 239.626555 84.197832 
L 247.04909 78.184233 
L 233.883811 74.764897 
z
" style="fill:#b9bc1d;"/>
    <path clip-path="url(#p85a69157e5)" d="M 175.173234 195.969799 
L 183.178635 188.911464 
L 196.068846 192.969946 
L 188.144156 200.107676 
z
" style="fill:#090449;"/>
    <path clip-path="url(#p85a69157e5)" d="M 243.136481 198.181496 
L 243.141067 197.698965 
L 250.51678 190.601187 
L 250.510457 191.080779 
z
" style="fill:#0e0678;"/>
    <path clip-path="url(#p85a69157e5)" d="M 175.155337 195.248986 
L 188.130906 199.384314 
L 196.058597 192.250992 
L 183.163796 188.195039 
z
" style="fill:#0c0668;"/>
    <path clip-path="url(#p85a69157e5)" d="M 243.136481 198.181496 
L 250.510457 191.080779 
L 250.538688 188.939574 
L 243.156956 196.027155 
z
" style="fill:#0c033b;"/>
    <path clip-path="url(#p85a69157e5)" d="M 154.105465 198.994368 
L 162.346885 191.878042 
L 162.343471 191.768778 
L 154.10156 198.884434 
z
" style="fill:#050338;"/>
    <path clip-path="url(#p85a69157e5)" d="M 154.105465 198.994368 
L 154.097331 198.76539 
L 162.339775 191.650459 
L 162.346885 191.878042 
z
" style="fill:#0b0777;"/>
    <path clip-path="url(#p85a69157e5)" d="M 203.841786 185.968896 
L 203.416986 144.722389 
L 216.637164 148.597855 
L 216.794403 189.994506 
z
" style="fill:#531b34;"/>
    <path clip-path="url(#p85a69157e5)" d="M 209.103753 197.073984 
L 216.794403 189.994506 
L 229.891821 194.06512 
L 222.285805 201.224351 
z
" style="fill:#6a2342;"/>
    <path clip-path="url(#p85a69157e5)" d="M 277.271882 199.292348 
L 284.327244 192.170297 
L 284.332785 191.987061 
L 277.276818 199.10799 
z
" style="fill:#050338;"/>
    <path clip-path="url(#p85a69157e5)" d="M 224.338378 183.050047 
L 224.338378 122.406772 
L 237.750199 126.176105 
L 237.351973 187.043183 
z
" style="fill:#65381f;"/>
    <path clip-path="url(#p85a69157e5)" d="M 229.891821 194.06512 
L 229.895742 192.665539 
L 243.14983 196.776965 
L 243.136481 198.181496 
z
" style="fill:#0a033a;"/>
    <path clip-path="url(#p85a69157e5)" d="M 229.891821 194.06512 
L 243.136481 198.181496 
L 243.156956 196.027155 
L 229.897836 191.918376 
z
" style="fill:#1a057d;"/>
    <path clip-path="url(#p85a69157e5)" d="M 188.144156 200.107676 
L 196.068846 192.969946 
L 196.058597 192.250992 
L 188.130906 199.384314 
z
" style="fill:#070339;"/>
    <path clip-path="url(#p85a69157e5)" d="M 243.136481 198.181496 
L 250.510457 191.080779 
L 263.816264 195.163579 
L 256.530882 202.34441 
z
" style="fill:#090449;"/>
    <path clip-path="url(#p85a69157e5)" d="M 243.141067 197.698965 
L 256.53878 201.860173 
L 263.825855 194.682294 
L 250.51678 190.601187 
z
" style="fill:#0c0668;"/>
    <path clip-path="url(#p85a69157e5)" d="M 216.794403 189.994506 
L 224.338378 183.050047 
L 224.338378 126.075028 
L 216.576609 132.655597 
z
" style="fill:#623223;"/>
    <path clip-path="url(#p85a69157e5)" d="M 141.344465 194.868925 
L 154.105465 198.994368 
L 154.10156 198.884434 
L 141.339876 194.759378 
z
" style="fill:#0b0777;"/>
    <path clip-path="url(#p85a69157e5)" d="M 237.351973 187.043183 
L 244.670417 180.154631 
L 245.421566 106.415828 
L 237.83753 112.827962 
z
" style="fill:#6a4e12;"/>
    <path clip-path="url(#p85a69157e5)" d="M 196.068846 192.969946 
L 195.477166 151.462892 
L 203.416986 144.722389 
L 203.841786 185.968896 
z
" style="fill:#b03a6e;"/>
    <path clip-path="url(#p85a69157e5)" d="M 263.816264 195.163579 
L 263.819696 194.991335 
L 277.27651 199.119495 
L 277.271882 199.292348 
z
" style="fill:#050338;"/>
    <path clip-path="url(#p85a69157e5)" d="M 263.816264 195.163579 
L 277.271882 199.292348 
L 277.276818 199.10799 
L 263.819925 194.97987 
z
" style="fill:#0b0777;"/>
    <path clip-path="url(#p85a69157e5)" d="M 154.105465 198.994368 
L 162.346885 191.878042 
L 175.173234 195.969799 
L 167.010898 203.166503 
z
" style="fill:#070448;"/>
    <path clip-path="url(#p85a69157e5)" d="M 154.097331 198.76539 
L 167.004221 202.936715 
L 175.167563 195.741411 
L 162.339775 191.650459 
z
" style="fill:#0a0667;"/>
    <path clip-path="url(#p85a69157e5)" d="M 216.794403 189.994506 
L 216.562583 128.96283 
L 224.338378 122.406772 
L 224.338378 183.050047 
z
" style="fill:#d67642;"/>
    <path clip-path="url(#p85a69157e5)" d="M 222.285805 201.224351 
L 222.284342 199.816183 
L 229.895742 192.665539 
L 229.891821 194.06512 
z
" style="fill:#16067b;"/>
    <path clip-path="url(#p85a69157e5)" d="M 175.173234 195.969799 
L 175.164989 195.637723 
L 188.138052 199.774426 
L 188.144156 200.107676 
z
" style="fill:#050338;"/>
    <path clip-path="url(#p85a69157e5)" d="M 175.173234 195.969799 
L 188.144156 200.107676 
L 188.130906 199.384314 
L 175.155337 195.248986 
z
" style="fill:#0e0678;"/>
    <path clip-path="url(#p85a69157e5)" d="M 203.841786 185.968896 
L 216.794403 189.994506 
L 216.576609 132.655597 
L 203.253417 128.840488 
z
" style="fill:#d1694a;"/>
    <path clip-path="url(#p85a69157e5)" d="M 239.632475 83.387793 
L 253.039268 86.910257 
L 260.375954 80.834232 
L 247.057799 77.379717 
z
" style="fill:#b8bf1a;"/>
    <path clip-path="url(#p85a69157e5)" d="M 224.338378 183.050047 
L 237.351973 187.043183 
L 237.83753 112.827962 
L 224.338378 109.11044 
z
" style="fill:#e0a626;"/>
    <path clip-path="url(#p85a69157e5)" d="M 188.144156 200.107676 
L 196.068846 192.969946 
L 209.103753 197.073984 
L 201.262108 204.292457 
z
" style="fill:#4a0558;"/>
    <path clip-path="url(#p85a69157e5)" d="M 256.530882 202.34441 
L 256.533708 202.171109 
L 263.819696 194.991335 
L 263.816264 195.163579 
z
" style="fill:#0b0777;"/>
    <path clip-path="url(#p85a69157e5)" d="M 256.530882 202.34441 
L 263.816264 195.163579 
L 263.825855 194.682294 
L 256.53878 201.860173 
z
" style="fill:#070339;"/>
    <path clip-path="url(#p85a69157e5)" d="M 218.734056 92.243434 
L 232.037454 95.820118 
L 239.586705 89.650596 
L 226.369855 86.142983 
z
" style="fill:#bfa81c;"/>
    <path clip-path="url(#p85a69157e5)" d="M 196.068846 192.969946 
L 195.719068 168.432615 
L 208.914184 172.448289 
L 209.103753 197.073984 
z
" style="fill:#3a0445;"/>
    <path clip-path="url(#p85a69157e5)" d="M 167.010898 203.166503 
L 175.173234 195.969799 
L 175.167563 195.741411 
L 167.004221 202.936715 
z
" style="fill:#050338;"/>
    <path clip-path="url(#p85a69157e5)" d="M 167.010898 203.166503 
L 167.001189 202.832391 
L 175.164989 195.637723 
L 175.173234 195.969799 
z
" style="fill:#0b0777;"/>
    <path clip-path="url(#p85a69157e5)" d="M 216.794403 189.994506 
L 216.636923 148.534479 
L 230.00841 152.453939 
L 229.891821 194.06512 
z
" style="fill:#531b34;"/>
    <path clip-path="url(#p85a69157e5)" d="M 222.285805 201.224351 
L 229.891821 194.06512 
L 243.136481 198.181496 
L 235.617509 205.421836 
z
" style="fill:#0d034a;"/>
    <path clip-path="url(#p85a69157e5)" d="M 222.284342 199.816183 
L 235.625597 204.008679 
L 243.14983 196.776965 
L 229.895742 192.665539 
z
" style="fill:#13056b;"/>
    <path clip-path="url(#p85a69157e5)" d="M 243.136481 198.181496 
L 243.138657 197.952612 
L 256.534628 202.114717 
L 256.530882 202.34441 
z
" style="fill:#050338;"/>
    <path clip-path="url(#p85a69157e5)" d="M 243.136481 198.181496 
L 256.530882 202.34441 
L 256.53878 201.860173 
L 243.141067 197.698965 
z
" style="fill:#0e0678;"/>
    <path clip-path="url(#p85a69157e5)" d="M 256.530882 202.34441 
L 263.816264 195.163579 
L 277.271882 199.292348 
L 270.077576 206.554656 
z
" style="fill:#070448;"/>
    <path clip-path="url(#p85a69157e5)" d="M 256.533708 202.171109 
L 270.081614 206.380742 
L 277.27651 199.119495 
L 263.819696 194.991335 
z
" style="fill:#0a0667;"/>
    <path clip-path="url(#p85a69157e5)" d="M 188.144156 200.107676 
L 187.6919 175.417021 
L 195.719068 168.432615 
L 196.068846 192.969946 
z
" style="fill:#7b0992;"/>
    <path clip-path="url(#p85a69157e5)" d="M 154.105465 198.994368 
L 167.010898 203.166503 
L 167.004221 202.936715 
L 154.097331 198.76539 
z
" style="fill:#0b0777;"/>
    <path clip-path="url(#p85a69157e5)" d="M 209.103753 197.073984 
L 216.794403 189.994506 
L 216.637164 148.597855 
L 208.783065 155.415454 
z
" style="fill:#531b34;"/>
    <path clip-path="url(#p85a69157e5)" d="M 209.103753 197.073984 
L 208.782574 155.351664 
L 216.636923 148.534479 
L 216.794403 189.994506 
z
" style="fill:#b03a6e;"/>
    <path clip-path="url(#p85a69157e5)" d="M 167.010898 203.166503 
L 175.173234 195.969799 
L 188.144156 200.107676 
L 180.063228 207.386128 
z
" style="fill:#070448;"/>
    <path clip-path="url(#p85a69157e5)" d="M 229.891821 194.06512 
L 237.351973 187.043183 
L 237.750199 126.176105 
L 230.063457 132.807562 
z
" style="fill:#65381f;"/>
    <path clip-path="url(#p85a69157e5)" d="M 167.001189 202.832391 
L 180.055687 207.050833 
L 188.138052 199.774426 
L 175.164989 195.637723 
z
" style="fill:#0a0667;"/>
    <path clip-path="url(#p85a69157e5)" d="M 235.617509 205.421836 
L 235.618827 205.191549 
L 243.138657 197.952612 
L 243.136481 198.181496 
z
" style="fill:#0b0777;"/>
    <path clip-path="url(#p85a69157e5)" d="M 235.617509 205.421836 
L 243.136481 198.181496 
L 243.14983 196.776965 
L 235.625597 204.008679 
z
" style="fill:#0a033a;"/>
    <path clip-path="url(#p85a69157e5)" d="M 196.068846 192.969946 
L 209.103753 197.073984 
L 208.783065 155.415454 
L 195.477166 151.462892 
z
" style="fill:#b03a6e;"/>
    <path clip-path="url(#p85a69157e5)" d="M 201.262108 204.292457 
L 209.103753 197.073984 
L 222.285805 201.224351 
L 214.529606 208.524945 
z
" style="fill:#490458;"/>
    <path clip-path="url(#p85a69157e5)" d="M 211.014317 108.819073 
L 224.338378 112.507632 
L 231.999241 106.14526 
L 218.761716 102.528274 
z
" style="fill:#c28427;"/>
    <path clip-path="url(#p85a69157e5)" d="M 270.077576 206.554656 
L 277.271882 199.292348 
L 277.27651 199.119495 
L 270.081614 206.380742 
z
" style="fill:#050338;"/>
    <path clip-path="url(#p85a69157e5)" d="M 216.794403 189.994506 
L 229.891821 194.06512 
L 230.063457 132.807562 
L 216.562583 128.96283 
z
" style="fill:#d67642;"/>
    <path clip-path="url(#p85a69157e5)" d="M 222.285805 201.224351 
L 222.285035 200.482747 
L 235.621768 204.677606 
L 235.617509 205.421836 
z
" style="fill:#080339;"/>
    <path clip-path="url(#p85a69157e5)" d="M 222.285805 201.224351 
L 235.617509 205.421836 
L 235.625597 204.008679 
L 222.284342 199.816183 
z
" style="fill:#16067b;"/>
    <path clip-path="url(#p85a69157e5)" d="M 209.103753 197.073984 
L 208.918123 172.959906 
L 222.260652 177.023359 
L 222.285805 201.224351 
z
" style="fill:#390345;"/>
    <path clip-path="url(#p85a69157e5)" d="M 180.063228 207.386128 
L 188.144156 200.107676 
L 188.138052 199.774426 
L 180.055687 207.050833 
z
" style="fill:#050338;"/>
    <path clip-path="url(#p85a69157e5)" d="M 235.617509 205.421836 
L 243.136481 198.181496 
L 256.530882 202.34441 
L 249.101427 209.667246 
z
" style="fill:#070448;"/>
    <path clip-path="url(#p85a69157e5)" d="M 188.144156 200.107676 
L 187.974081 190.822522 
L 201.153056 194.974205 
L 201.262108 204.292457 
z
" style="fill:#1c0142;"/>
    <path clip-path="url(#p85a69157e5)" d="M 235.618827 205.191549 
L 249.104337 209.436142 
L 256.534628 202.114717 
L 243.138657 197.952612 
z
" style="fill:#0a0667;"/>
    <path clip-path="url(#p85a69157e5)" d="M 232.043654 94.145018 
L 245.509781 97.755878 
L 252.975836 91.52757 
L 239.598864 87.986888 
z
" style="fill:#beae1d;"/>
    <path clip-path="url(#p85a69157e5)" d="M 256.530882 202.34441 
L 256.533288 202.196844 
L 270.081015 206.406568 
L 270.077576 206.554656 
z
" style="fill:#050338;"/>
    <path clip-path="url(#p85a69157e5)" d="M 256.530882 202.34441 
L 270.077576 206.554656 
L 270.081614 206.380742 
L 256.533708 202.171109 
z
" style="fill:#0b0777;"/>
    <path clip-path="url(#p85a69157e5)" d="M 214.529606 208.524945 
L 214.525886 207.778785 
L 222.285035 200.482747 
L 222.285805 201.224351 
z
" style="fill:#110679;"/>
    <path clip-path="url(#p85a69157e5)" d="M 201.262108 204.292457 
L 200.978135 180.027574 
L 208.918123 172.959906 
L 209.103753 197.073984 
z
" style="fill:#780792;"/>
    <path clip-path="url(#p85a69157e5)" d="M 203.253417 128.840488 
L 216.576609 132.655597 
L 224.338378 126.075028 
L 211.101424 122.334185 
z
" style="fill:#b55c40;"/>
    <path clip-path="url(#p85a69157e5)" d="M 201.262108 204.292457 
L 209.103753 197.073984 
L 208.914184 172.448289 
L 200.97211 179.512694 
z
" style="fill:#3a0445;"/>
    <path clip-path="url(#p85a69157e5)" d="M 167.010898 203.166503 
L 180.063228 207.386128 
L 180.055687 207.050833 
L 167.001189 202.832391 
z
" style="fill:#0b0777;"/>
    <path clip-path="url(#p85a69157e5)" d="M 222.285805 201.224351 
L 229.891821 194.06512 
L 230.00841 152.453939 
L 222.242283 159.349548 
z
" style="fill:#531b34;"/>
    <path clip-path="url(#p85a69157e5)" d="M 180.063228 207.386128 
L 179.85312 198.04355 
L 187.974081 190.822522 
L 188.144156 200.107676 
z
" style="fill:#3c038c;"/>
    <path clip-path="url(#p85a69157e5)" d="M 180.063228 207.386128 
L 188.144156 200.107676 
L 201.262108 204.292457 
L 193.264978 211.654059 
z
" style="fill:#240254;"/>
    <path clip-path="url(#p85a69157e5)" d="M 249.101427 209.667246 
L 249.103296 209.518774 
L 256.533288 202.196844 
L 256.530882 202.34441 
z
" style="fill:#0b0777;"/>
    <path clip-path="url(#p85a69157e5)" d="M 249.101427 209.667246 
L 256.530882 202.34441 
L 256.534628 202.114717 
L 249.104337 209.436142 
z
" style="fill:#050338;"/>
    <path clip-path="url(#p85a69157e5)" d="M 195.477166 151.462892 
L 208.783065 155.415454 
L 216.637164 148.597855 
L 203.416986 144.722389 
z
" style="fill:#98325f;"/>
    <path clip-path="url(#p85a69157e5)" d="M 188.144156 200.107676 
L 201.262108 204.292457 
L 200.97211 179.512694 
L 187.6919 175.417021 
z
" style="fill:#7b0992;"/>
    <path clip-path="url(#p85a69157e5)" d="M 209.103753 197.073984 
L 222.285805 201.224351 
L 222.242283 159.349548 
L 208.782574 155.351664 
z
" style="fill:#b03a6e;"/>
    <path clip-path="url(#p85a69157e5)" d="M 214.529606 208.524945 
L 222.285805 201.224351 
L 235.617509 205.421836 
L 227.94922 212.80596 
z
" style="fill:#0a0449;"/>
    <path clip-path="url(#p85a69157e5)" d="M 214.525886 207.778785 
L 227.950597 212.057153 
L 235.621768 204.677606 
L 222.285035 200.482747 
z
" style="fill:#0f0569;"/>
    <path clip-path="url(#p85a69157e5)" d="M 235.617509 205.421836 
L 235.618647 205.223009 
L 249.103939 209.467714 
L 249.101427 209.667246 
z
" style="fill:#050338;"/>
    <path clip-path="url(#p85a69157e5)" d="M 235.617509 205.421836 
L 249.101427 209.667246 
L 249.104337 209.436142 
L 235.618827 205.191549 
z
" style="fill:#0b0777;"/>
    <path clip-path="url(#p85a69157e5)" d="M 187.6919 175.417021 
L 200.97211 179.512694 
L 208.914184 172.448289 
L 195.719068 168.432615 
z
" style="fill:#6b087e;"/>
    <path clip-path="url(#p85a69157e5)" d="M 201.262108 204.292457 
L 201.159595 195.532883 
L 214.485782 199.734128 
L 214.529606 208.524945 
z
" style="fill:#1c0142;"/>
    <path clip-path="url(#p85a69157e5)" d="M 249.101427 209.667246 
L 256.530882 202.34441 
L 270.077576 206.554656 
L 262.740181 213.961405 
z
" style="fill:#070448;"/>
    <path clip-path="url(#p85a69157e5)" d="M 249.103296 209.518774 
L 262.743097 213.812407 
L 270.081015 206.406568 
L 256.533288 202.196844 
z
" style="fill:#0a0667;"/>
    <path clip-path="url(#p85a69157e5)" d="M 224.338378 109.11044 
L 237.83753 112.827962 
L 245.421566 106.415828 
L 232.01173 102.770965 
z
" style="fill:#c29021;"/>
    <path clip-path="url(#p85a69157e5)" d="M 227.94922 212.80596 
L 227.949588 212.60591 
L 235.618647 205.223009 
L 235.617509 205.421836 
z
" style="fill:#0b0777;"/>
    <path clip-path="url(#p85a69157e5)" d="M 227.94922 212.80596 
L 235.617509 205.421836 
L 235.621768 204.677606 
L 227.950597 212.057153 
z
" style="fill:#080339;"/>
    <path clip-path="url(#p85a69157e5)" d="M 179.85312 198.04355 
L 193.116672 202.27812 
L 201.153056 194.974205 
L 187.974081 190.822522 
z
" style="fill:#340279;"/>
    <path clip-path="url(#p85a69157e5)" d="M 214.529606 208.524945 
L 222.285805 201.224351 
L 222.260652 177.023359 
L 214.408204 184.172425 
z
" style="fill:#390345;"/>
    <path clip-path="url(#p85a69157e5)" d="M 193.264978 211.654059 
L 193.125564 202.840281 
L 201.159595 195.532883 
L 201.262108 204.292457 
z
" style="fill:#3b038b;"/>
    <path clip-path="url(#p85a69157e5)" d="M 193.264978 211.654059 
L 201.262108 204.292457 
L 201.153056 194.974205 
L 193.116672 202.27812 
z
" style="fill:#1c0142;"/>
    <path clip-path="url(#p85a69157e5)" d="M 193.264978 211.654059 
L 201.262108 204.292457 
L 214.529606 208.524945 
L 206.61873 215.971129 
z
" style="fill:#240254;"/>
    <path clip-path="url(#p85a69157e5)" d="M 262.740181 213.961405 
L 270.077576 206.554656 
L 270.081015 206.406568 
L 262.743097 213.812407 
z
" style="fill:#050338;"/>
    <path clip-path="url(#p85a69157e5)" d="M 214.529606 208.524945 
L 214.528045 208.211932 
L 227.949798 212.491838 
L 227.94922 212.80596 
z
" style="fill:#050338;"/>
    <path clip-path="url(#p85a69157e5)" d="M 214.529606 208.524945 
L 227.94922 212.80596 
L 227.950597 212.057153 
L 214.525886 207.778785 
z
" style="fill:#110679;"/>
    <path clip-path="url(#p85a69157e5)" d="M 216.562583 128.96283 
L 230.063457 132.807562 
L 237.750199 126.176105 
L 224.338378 122.406772 
z
" style="fill:#ba6639;"/>
    <path clip-path="url(#p85a69157e5)" d="M 201.262108 204.292457 
L 214.529606 208.524945 
L 214.408204 184.172425 
L 200.978135 180.027574 
z
" style="fill:#780792;"/>
    <path clip-path="url(#p85a69157e5)" d="M 208.782574 155.351664 
L 222.242283 159.349548 
L 230.00841 152.453939 
L 216.636923 148.534479 
z
" style="fill:#98325f;"/>
    <path clip-path="url(#p85a69157e5)" d="M 227.94922 212.80596 
L 235.617509 205.421836 
L 249.101427 209.667246 
L 241.523583 217.136342 
z
" style="fill:#070448;"/>
    <path clip-path="url(#p85a69157e5)" d="M 180.063228 207.386128 
L 193.264978 211.654059 
L 193.116672 202.27812 
L 179.85312 198.04355 
z
" style="fill:#3c038c;"/>
    <path clip-path="url(#p85a69157e5)" d="M 227.949588 212.60591 
L 241.525344 216.935582 
L 249.103939 209.467714 
L 235.618647 205.223009 
z
" style="fill:#0a0667;"/>
    <path clip-path="url(#p85a69157e5)" d="M 249.101427 209.667246 
L 249.102636 209.571213 
L 262.742067 213.865032 
L 262.740181 213.961405 
z
" style="fill:#050338;"/>
    <path clip-path="url(#p85a69157e5)" d="M 249.101427 209.667246 
L 262.740181 213.961405 
L 262.743097 213.812407 
L 249.103296 209.518774 
z
" style="fill:#0b0777;"/>
    <path clip-path="url(#p85a69157e5)" d="M 200.978135 180.027574 
L 214.408204 184.172425 
L 222.260652 177.023359 
L 208.918123 172.959906 
z
" style="fill:#69067f;"/>
    <path clip-path="url(#p85a69157e5)" d="M 206.61873 215.971129 
L 206.615883 215.656191 
L 214.528045 208.211932 
L 214.529606 208.524945 
z
" style="fill:#0b0777;"/>
    <path clip-path="url(#p85a69157e5)" d="M 241.523583 217.136342 
L 241.52443 217.039718 
L 249.102636 209.571213 
L 249.101427 209.667246 
z
" style="fill:#0b0777;"/>
    <path clip-path="url(#p85a69157e5)" d="M 241.523583 217.136342 
L 249.101427 209.667246 
L 249.103939 209.467714 
L 241.525344 216.935582 
z
" style="fill:#050338;"/>
    <path clip-path="url(#p85a69157e5)" d="M 193.125564 202.840281 
L 206.538769 207.125864 
L 214.485782 199.734128 
L 201.159595 195.532883 
z
" style="fill:#330379;"/>
    <path clip-path="url(#p85a69157e5)" d="M 206.61873 215.971129 
L 214.529606 208.524945 
L 214.485782 199.734128 
L 206.538769 207.125864 
z
" style="fill:#1c0142;"/>
    <path clip-path="url(#p85a69157e5)" d="M 206.61873 215.971129 
L 214.529606 208.524945 
L 227.94922 212.80596 
L 220.127123 220.338193 
z
" style="fill:#070448;"/>
    <path clip-path="url(#p85a69157e5)" d="M 206.615883 215.656191 
L 220.126442 220.022137 
L 227.949798 212.491838 
L 214.528045 208.211932 
z
" style="fill:#0a0667;"/>
    <path clip-path="url(#p85a69157e5)" d="M 227.94922 212.80596 
L 227.949507 212.649831 
L 241.524957 216.979658 
L 241.523583 217.136342 
z
" style="fill:#050338;"/>
    <path clip-path="url(#p85a69157e5)" d="M 227.94922 212.80596 
L 241.523583 217.136342 
L 241.525344 216.935582 
L 227.949588 212.60591 
z
" style="fill:#0b0777;"/>
    <path clip-path="url(#p85a69157e5)" d="M 193.264978 211.654059 
L 206.61873 215.971129 
L 206.538769 207.125864 
L 193.125564 202.840281 
z
" style="fill:#3b038b;"/>
    <path clip-path="url(#p85a69157e5)" d="M 241.523583 217.136342 
L 249.101427 209.667246 
L 262.740181 213.961405 
L 255.255385 221.516949 
z
" style="fill:#070448;"/>
    <path clip-path="url(#p85a69157e5)" d="M 241.52443 217.039718 
L 255.256919 221.419982 
L 262.742067 213.865032 
L 249.102636 209.571213 
z
" style="fill:#0a0667;"/>
    <path clip-path="url(#p85a69157e5)" d="M 220.127123 220.338193 
L 220.126784 220.181103 
L 227.949507 212.649831 
L 227.94922 212.80596 
z
" style="fill:#0b0777;"/>
    <path clip-path="url(#p85a69157e5)" d="M 220.127123 220.338193 
L 227.94922 212.80596 
L 227.949798 212.491838 
L 220.126442 220.022137 
z
" style="fill:#050338;"/>
    <path clip-path="url(#p85a69157e5)" d="M 255.255385 221.516949 
L 262.740181 213.961405 
L 262.742067 213.865032 
L 255.256919 221.419982 
z
" style="fill:#050338;"/>
    <path clip-path="url(#p85a69157e5)" d="M 206.61873 215.971129 
L 220.127123 220.338193 
L 220.126442 220.022137 
L 206.615883 215.656191 
z
" style="fill:#0b0777;"/>
    <path clip-path="url(#p85a69157e5)" d="M 220.127123 220.338193 
L 227.94922 212.80596 
L 241.523583 217.136342 
L 233.792858 224.756123 
z
" style="fill:#070448;"/>
    <path clip-path="url(#p85a69157e5)" d="M 220.126784 220.181103 
L 233.793622 224.598475 
L 241.524957 216.979658 
L 227.949507 212.649831 
z
" style="fill:#0a0667;"/>
    <path clip-path="url(#p85a69157e5)" d="M 241.523583 217.136342 
L 241.524224 217.063274 
L 255.256545 221.443622 
L 255.255385 221.516949 
z
" style="fill:#050338;"/>
    <path clip-path="url(#p85a69157e5)" d="M 241.523583 217.136342 
L 255.255385 221.516949 
L 255.256919 221.419982 
L 241.52443 217.039718 
z
" style="fill:#0b0777;"/>
    <path clip-path="url(#p85a69157e5)" d="M 233.792858 224.756123 
L 233.793215 224.682606 
L 241.524224 217.063274 
L 241.523583 217.136342 
z
" style="fill:#0b0777;"/>
    <path clip-path="url(#p85a69157e5)" d="M 233.792858 224.756123 
L 241.523583 217.136342 
L 241.524957 216.979658 
L 233.793622 224.598475 
z
" style="fill:#050338;"/>
    <path clip-path="url(#p85a69157e5)" d="M 220.127123 220.338193 
L 233.792858 224.756123 
L 233.793622 224.598475 
L 220.126784 220.181103 
z
" style="fill:#0b0777;"/>
    <path clip-path="url(#p85a69157e5)" d="M 233.792858 224.756123 
L 241.523583 217.136342 
L 255.255385 221.516949 
L 247.618703 229.225814 
z
" style="fill:#070448;"/>
    <path clip-path="url(#p85a69157e5)" d="M 233.793215 224.682606 
L 247.619585 229.152036 
L 255.256545 221.443622 
L 241.524224 217.063274 
z
" style="fill:#0a0667;"/>
    <path clip-path="url(#p85a69157e5)" d="M 247.618703 229.225814 
L 255.255385 221.516949 
L 255.256545 221.443622 
L 247.619585 229.152036 
z
" style="fill:#050338;"/>
    <path clip-path="url(#p85a69157e5)" d="M 233.792858 224.756123 
L 247.618703 229.225814 
L 247.619585 229.152036 
L 233.793215 224.682606 
z
" style="fill:#0b0777;"/>
   </g>
   <g id="text_16">
    <!-- W20__H10__A180_bars_extracted.txt -->
    <g transform="translate(110.101875 28.56)scale(0.12 -0.12)">
     <defs>
      <path d="M 3.328125 72.90625 
L 13.28125 72.90625 
L 28.609375 11.28125 
L 43.890625 72.90625 
L 54.984375 72.90625 
L 70.3125 11.28125 
L 85.59375 72.90625 
L 95.609375 72.90625 
L 77.296875 0 
L 64.890625 0 
L 49.515625 63.28125 
L 33.984375 0 
L 21.578125 0 
z
" id="DejaVuSans-87"/>
      <path d="M 50.984375 -16.609375 
L 50.984375 -23.578125 
L -0.984375 -23.578125 
L -0.984375 -16.609375 
z
" id="DejaVuSans-95"/>
      <path d="M 9.8125 72.90625 
L 19.671875 72.90625 
L 19.671875 43.015625 
L 55.515625 43.015625 
L 55.515625 72.90625 
L 65.375 72.90625 
L 65.375 0 
L 55.515625 0 
L 55.515625 34.71875 
L 19.671875 34.71875 
L 19.671875 0 
L 9.8125 0 
z
" id="DejaVuSans-72"/>
      <path d="M 34.1875 63.1875 
L 20.796875 26.90625 
L 47.609375 26.90625 
z
M 28.609375 72.90625 
L 39.796875 72.90625 
L 67.578125 0 
L 57.328125 0 
L 50.6875 18.703125 
L 17.828125 18.703125 
L 11.1875 0 
L 0.78125 0 
z
" id="DejaVuSans-65"/>
      <path d="M 48.6875 27.296875 
Q 48.6875 37.203125 44.609375 42.84375 
Q 40.53125 48.484375 33.40625 48.484375 
Q 26.265625 48.484375 22.1875 42.84375 
Q 18.109375 37.203125 18.109375 27.296875 
Q 18.109375 17.390625 22.1875 11.75 
Q 26.265625 6.109375 33.40625 6.109375 
Q 40.53125 6.109375 44.609375 11.75 
Q 48.6875 17.390625 48.6875 27.296875 
z
M 18.109375 46.390625 
Q 20.953125 51.265625 25.265625 53.625 
Q 29.59375 56 35.59375 56 
Q 45.5625 56 51.78125 48.09375 
Q 58.015625 40.1875 58.015625 27.296875 
Q 58.015625 14.40625 51.78125 6.484375 
Q 45.5625 -1.421875 35.59375 -1.421875 
Q 29.59375 -1.421875 25.265625 0.953125 
Q 20.953125 3.328125 18.109375 8.203125 
L 18.109375 0 
L 9.078125 0 
L 9.078125 75.984375 
L 18.109375 75.984375 
z
" id="DejaVuSans-98"/>
      <path d="M 34.28125 27.484375 
Q 23.390625 27.484375 19.1875 25 
Q 14.984375 22.515625 14.984375 16.5 
Q 14.984375 11.71875 18.140625 8.90625 
Q 21.296875 6.109375 26.703125 6.109375 
Q 34.1875 6.109375 38.703125 11.40625 
Q 43.21875 16.703125 43.21875 25.484375 
L 43.21875 27.484375 
z
M 52.203125 31.203125 
L 52.203125 0 
L 43.21875 0 
L 43.21875 8.296875 
Q 40.140625 3.328125 35.546875 0.953125 
Q 30.953125 -1.421875 24.3125 -1.421875 
Q 15.921875 -1.421875 10.953125 3.296875 
Q 6 8.015625 6 15.921875 
Q 6 25.140625 12.171875 29.828125 
Q 18.359375 34.515625 30.609375 34.515625 
L 43.21875 34.515625 
L 43.21875 35.40625 
Q 43.21875 41.609375 39.140625 45 
Q 35.0625 48.390625 27.6875 48.390625 
Q 23 48.390625 18.546875 47.265625 
Q 14.109375 46.140625 10.015625 43.890625 
L 10.015625 52.203125 
Q 14.9375 54.109375 19.578125 55.046875 
Q 24.21875 56 28.609375 56 
Q 40.484375 56 46.34375 49.84375 
Q 52.203125 43.703125 52.203125 31.203125 
z
" id="DejaVuSans-97"/>
      <path d="M 41.109375 46.296875 
Q 39.59375 47.171875 37.8125 47.578125 
Q 36.03125 48 33.890625 48 
Q 26.265625 48 22.1875 43.046875 
Q 18.109375 38.09375 18.109375 28.8125 
L 18.109375 0 
L 9.078125 0 
L 9.078125 54.6875 
L 18.109375 54.6875 
L 18.109375 46.1875 
Q 20.953125 51.171875 25.484375 53.578125 
Q 30.03125 56 36.53125 56 
Q 37.453125 56 38.578125 55.875 
Q 39.703125 55.765625 41.0625 55.515625 
z
" id="DejaVuSans-114"/>
      <path d="M 44.28125 53.078125 
L 44.28125 44.578125 
Q 40.484375 46.53125 36.375 47.5 
Q 32.28125 48.484375 27.875 48.484375 
Q 21.1875 48.484375 17.84375 46.4375 
Q 14.5 44.390625 14.5 40.28125 
Q 14.5 37.15625 16.890625 35.375 
Q 19.28125 33.59375 26.515625 31.984375 
L 29.59375 31.296875 
Q 39.15625 29.25 43.1875 25.515625 
Q 47.21875 21.78125 47.21875 15.09375 
Q 47.21875 7.46875 41.1875 3.015625 
Q 35.15625 -1.421875 24.609375 -1.421875 
Q 20.21875 -1.421875 15.453125 -0.5625 
Q 10.6875 0.296875 5.421875 2 
L 5.421875 11.28125 
Q 10.40625 8.6875 15.234375 7.390625 
Q 20.0625 6.109375 24.8125 6.109375 
Q 31.15625 6.109375 34.5625 8.28125 
Q 37.984375 10.453125 37.984375 14.40625 
Q 37.984375 18.0625 35.515625 20.015625 
Q 33.0625 21.96875 24.703125 23.78125 
L 21.578125 24.515625 
Q 13.234375 26.265625 9.515625 29.90625 
Q 5.8125 33.546875 5.8125 39.890625 
Q 5.8125 47.609375 11.28125 51.796875 
Q 16.75 56 26.8125 56 
Q 31.78125 56 36.171875 55.265625 
Q 40.578125 54.546875 44.28125 53.078125 
z
" id="DejaVuSans-115"/>
      <path d="M 56.203125 29.59375 
L 56.203125 25.203125 
L 14.890625 25.203125 
Q 15.484375 15.921875 20.484375 11.0625 
Q 25.484375 6.203125 34.421875 6.203125 
Q 39.59375 6.203125 44.453125 7.46875 
Q 49.3125 8.734375 54.109375 11.28125 
L 54.109375 2.78125 
Q 49.265625 0.734375 44.1875 -0.34375 
Q 39.109375 -1.421875 33.890625 -1.421875 
Q 20.796875 -1.421875 13.15625 6.1875 
Q 5.515625 13.8125 5.515625 26.8125 
Q 5.515625 40.234375 12.765625 48.109375 
Q 20.015625 56 32.328125 56 
Q 43.359375 56 49.78125 48.890625 
Q 56.203125 41.796875 56.203125 29.59375 
z
M 47.21875 32.234375 
Q 47.125 39.59375 43.09375 43.984375 
Q 39.0625 48.390625 32.421875 48.390625 
Q 24.90625 48.390625 20.390625 44.140625 
Q 15.875 39.890625 15.1875 32.171875 
z
" id="DejaVuSans-101"/>
      <path d="M 54.890625 54.6875 
L 35.109375 28.078125 
L 55.90625 0 
L 45.3125 0 
L 29.390625 21.484375 
L 13.484375 0 
L 2.875 0 
L 24.125 28.609375 
L 4.6875 54.6875 
L 15.28125 54.6875 
L 29.78125 35.203125 
L 44.28125 54.6875 
z
" id="DejaVuSans-120"/>
      <path d="M 18.3125 70.21875 
L 18.3125 54.6875 
L 36.8125 54.6875 
L 36.8125 47.703125 
L 18.3125 47.703125 
L 18.3125 18.015625 
Q 18.3125 11.328125 20.140625 9.421875 
Q 21.96875 7.515625 27.59375 7.515625 
L 36.8125 7.515625 
L 36.8125 0 
L 27.59375 0 
Q 17.1875 0 13.234375 3.875 
Q 9.28125 7.765625 9.28125 18.015625 
L 9.28125 47.703125 
L 2.6875 47.703125 
L 2.6875 54.6875 
L 9.28125 54.6875 
L 9.28125 70.21875 
z
" id="DejaVuSans-116"/>
      <path d="M 48.78125 52.59375 
L 48.78125 44.1875 
Q 44.96875 46.296875 41.140625 47.34375 
Q 37.3125 48.390625 33.40625 48.390625 
Q 24.65625 48.390625 19.8125 42.84375 
Q 14.984375 37.3125 14.984375 27.296875 
Q 14.984375 17.28125 19.8125 11.734375 
Q 24.65625 6.203125 33.40625 6.203125 
Q 37.3125 6.203125 41.140625 7.25 
Q 44.96875 8.296875 48.78125 10.40625 
L 48.78125 2.09375 
Q 45.015625 0.34375 40.984375 -0.53125 
Q 36.96875 -1.421875 32.421875 -1.421875 
Q 20.0625 -1.421875 12.78125 6.34375 
Q 5.515625 14.109375 5.515625 27.296875 
Q 5.515625 40.671875 12.859375 48.328125 
Q 20.21875 56 33.015625 56 
Q 37.15625 56 41.109375 55.140625 
Q 45.0625 54.296875 48.78125 52.59375 
z
" id="DejaVuSans-99"/>
      <path d="M 45.40625 46.390625 
L 45.40625 75.984375 
L 54.390625 75.984375 
L 54.390625 0 
L 45.40625 0 
L 45.40625 8.203125 
Q 42.578125 3.328125 38.25 0.953125 
Q 33.9375 -1.421875 27.875 -1.421875 
Q 17.96875 -1.421875 11.734375 6.484375 
Q 5.515625 14.40625 5.515625 27.296875 
Q 5.515625 40.1875 11.734375 48.09375 
Q 17.96875 56 27.875 56 
Q 33.9375 56 38.25 53.625 
Q 42.578125 51.265625 45.40625 46.390625 
z
M 14.796875 27.296875 
Q 14.796875 17.390625 18.875 11.75 
Q 22.953125 6.109375 30.078125 6.109375 
Q 37.203125 6.109375 41.296875 11.75 
Q 45.40625 17.390625 45.40625 27.296875 
Q 45.40625 37.203125 41.296875 42.84375 
Q 37.203125 48.484375 30.078125 48.484375 
Q 22.953125 48.484375 18.875 42.84375 
Q 14.796875 37.203125 14.796875 27.296875 
z
" id="DejaVuSans-100"/>
      <path d="M 10.6875 12.40625 
L 21 12.40625 
L 21 0 
L 10.6875 0 
z
" id="DejaVuSans-46"/>
     </defs>
     <use xlink:href="#DejaVuSans-87"/>
     <use x="98.876953" xlink:href="#DejaVuSans-50"/>
     <use x="162.5" xlink:href="#DejaVuSans-48"/>
     <use x="226.123047" xlink:href="#DejaVuSans-95"/>
     <use x="276.123047" xlink:href="#DejaVuSans-95"/>
     <use x="326.123047" xlink:href="#DejaVuSans-72"/>
     <use x="401.318359" xlink:href="#DejaVuSans-49"/>
     <use x="464.941406" xlink:href="#DejaVuSans-48"/>
     <use x="528.564453" xlink:href="#DejaVuSans-95"/>
     <use x="578.564453" xlink:href="#DejaVuSans-95"/>
     <use x="628.564453" xlink:href="#DejaVuSans-65"/>
     <use x="696.972656" xlink:href="#DejaVuSans-49"/>
     <use x="760.595703" xlink:href="#DejaVuSans-56"/>
     <use x="824.21875" xlink:href="#DejaVuSans-48"/>
     <use x="887.841797" xlink:href="#DejaVuSans-95"/>
     <use x="937.841797" xlink:href="#DejaVuSans-98"/>
     <use x="1001.318359" xlink:href="#DejaVuSans-97"/>
     <use x="1062.597656" xlink:href="#DejaVuSans-114"/>
     <use x="1103.710938" xlink:href="#DejaVuSans-115"/>
     <use x="1155.810547" xlink:href="#DejaVuSans-95"/>
     <use x="1205.810547" xlink:href="#DejaVuSans-101"/>
     <use x="1265.583984" xlink:href="#DejaVuSans-120"/>
     <use x="1324.763672" xlink:href="#DejaVuSans-116"/>
     <use x="1363.972656" xlink:href="#DejaVuSans-114"/>
     <use x="1405.085938" xlink:href="#DejaVuSans-97"/>
     <use x="1466.365234" xlink:href="#DejaVuSans-99"/>
     <use x="1521.345703" xlink:href="#DejaVuSans-116"/>
     <use x="1560.554688" xlink:href="#DejaVuSans-101"/>
     <use x="1622.078125" xlink:href="#DejaVuSans-100"/>
     <use x="1685.554688" xlink:href="#DejaVuSans-46"/>
     <use x="1717.341797" xlink:href="#DejaVuSans-116"/>
     <use x="1756.550781" xlink:href="#DejaVuSans-120"/>
     <use x="1815.730469" xlink:href="#DejaVuSans-116"/>
    </g>
   </g>
  </g>
 </g>
 <defs>
  <clipPath id="p85a69157e5">
   <rect height="217.44" width="217.44" x="112.68" y="34.56"/>
  </clipPath>
 </defs>
</svg>
