<?xml version="1.0" encoding="utf-8" standalone="no"?>
<!DOCTYPE svg PUBLIC "-//W3C//DTD SVG 1.1//EN"
  "http://www.w3.org/Graphics/SVG/1.1/DTD/svg11.dtd">
<!-- Created with matplotlib (https://matplotlib.org/) -->
<svg height="288pt" version="1.1" viewBox="0 0 432 288" width="432pt" xmlns="http://www.w3.org/2000/svg" xmlns:xlink="http://www.w3.org/1999/xlink">
 <metadata>
  <rdf:RDF xmlns:cc="http://creativecommons.org/ns#" xmlns:dc="http://purl.org/dc/elements/1.1/" xmlns:rdf="http://www.w3.org/1999/02/22-rdf-syntax-ns#">
   <cc:Work>
    <dc:type rdf:resource="http://purl.org/dc/dcmitype/StillImage"/>
    <dc:date>2021-06-13T21:57:22.930940</dc:date>
    <dc:format>image/svg+xml</dc:format>
    <dc:creator>
     <cc:Agent>
      <dc:title>Matplotlib v3.3.4, https://matplotlib.org/</dc:title>
     </cc:Agent>
    </dc:creator>
   </cc:Work>
  </rdf:RDF>
 </metadata>
 <defs>
  <style type="text/css">*{stroke-linecap:butt;stroke-linejoin:round;}</style>
 </defs>
 <g id="figure_1">
  <g id="patch_1">
   <path d="M 0 288 
L 432 288 
L 432 0 
L 0 0 
z
" style="fill:#ffffff;"/>
  </g>
  <g id="patch_2">
   <path d="M 112.68 252 
L 330.12 252 
L 330.12 34.56 
L 112.68 34.56 
z
" style="fill:#ffffff;"/>
  </g>
  <g id="pane3d_1">
   <g id="patch_3">
    <path d="M 129.09822 198.386264 
L 200.904009 138.197228 
L 199.90584 51.393878 
L 124.663773 106.302111 
" style="fill:#f2f2f2;opacity:0.5;stroke:#f2f2f2;stroke-linejoin:miter;"/>
   </g>
  </g>
  <g id="pane3d_2">
   <g id="patch_4">
    <path d="M 200.904009 138.197228 
L 316.12668 171.68791 
L 320.238571 81.894718 
L 199.90584 51.393878 
" style="fill:#e6e6e6;opacity:0.5;stroke:#e6e6e6;stroke-linejoin:miter;"/>
   </g>
  </g>
  <g id="pane3d_3">
   <g id="patch_5">
    <path d="M 129.09822 198.386264 
L 251.239879 238.27773 
L 316.12668 171.68791 
L 200.904009 138.197228 
" style="fill:#ececec;opacity:0.5;stroke:#ececec;stroke-linejoin:miter;"/>
   </g>
  </g>
  <g id="axis3d_1">
   <g id="line2d_1">
    <path d="M 129.09822 198.386264 
L 251.239879 238.27773 
" style="fill:none;stroke:#000000;stroke-linecap:square;stroke-width:0.8;"/>
   </g>
   <g id="Line3DCollection_1">
    <path d="M 136.495759 200.802301 
L 207.911499 140.234029 
L 207.209612 53.245171 
" style="fill:none;stroke:#b0b0b0;stroke-width:0.8;"/>
    <path d="M 162.23134 209.207541 
L 232.260894 147.311436 
L 232.60309 59.681678 
" style="fill:none;stroke:#b0b0b0;stroke-width:0.8;"/>
    <path d="M 188.559037 217.806167 
L 257.123632 154.538053 
L 258.555303 66.259807 
" style="fill:none;stroke:#b0b0b0;stroke-width:0.8;"/>
    <path d="M 215.499525 226.604931 
L 282.516121 161.918647 
L 285.084894 72.984285 
" style="fill:none;stroke:#b0b0b0;stroke-width:0.8;"/>
    <path d="M 243.074449 235.610901 
L 308.455474 169.458193 
L 312.21135 79.860051 
" style="fill:none;stroke:#b0b0b0;stroke-width:0.8;"/>
   </g>
   <g id="xtick_1">
    <g id="line2d_2">
     <path d="M 137.117644 200.274876 
L 135.249322 201.859414 
" style="fill:none;stroke:#000000;stroke-linecap:square;stroke-width:0.8;"/>
    </g>
    <g id="text_1">
     <!-- 0 -->
     <g transform="translate(125.77919 224.124533)scale(0.1 -0.1)">
      <defs>
       <path d="M 31.78125 66.40625 
Q 24.171875 66.40625 20.328125 58.90625 
Q 16.5 51.421875 16.5 36.375 
Q 16.5 21.390625 20.328125 13.890625 
Q 24.171875 6.390625 31.78125 6.390625 
Q 39.453125 6.390625 43.28125 13.890625 
Q 47.125 21.390625 47.125 36.375 
Q 47.125 51.421875 43.28125 58.90625 
Q 39.453125 66.40625 31.78125 66.40625 
z
M 31.78125 74.21875 
Q 44.046875 74.21875 50.515625 64.515625 
Q 56.984375 54.828125 56.984375 36.375 
Q 56.984375 17.96875 50.515625 8.265625 
Q 44.046875 -1.421875 31.78125 -1.421875 
Q 19.53125 -1.421875 13.0625 8.265625 
Q 6.59375 17.96875 6.59375 36.375 
Q 6.59375 54.828125 13.0625 64.515625 
Q 19.53125 74.21875 31.78125 74.21875 
z
" id="DejaVuSans-48"/>
      </defs>
      <use xlink:href="#DejaVuSans-48"/>
     </g>
    </g>
   </g>
   <g id="xtick_2">
    <g id="line2d_3">
     <path d="M 162.841716 208.668056 
L 161.007937 210.288854 
" style="fill:none;stroke:#000000;stroke-linecap:square;stroke-width:0.8;"/>
    </g>
    <g id="text_2">
     <!-- 2 -->
     <g transform="translate(151.547192 232.748132)scale(0.1 -0.1)">
      <defs>
       <path d="M 19.1875 8.296875 
L 53.609375 8.296875 
L 53.609375 0 
L 7.328125 0 
L 7.328125 8.296875 
Q 12.9375 14.109375 22.625 23.890625 
Q 32.328125 33.6875 34.8125 36.53125 
Q 39.546875 41.84375 41.421875 45.53125 
Q 43.3125 49.21875 43.3125 52.78125 
Q 43.3125 58.59375 39.234375 62.25 
Q 35.15625 65.921875 28.609375 65.921875 
Q 23.96875 65.921875 18.8125 64.3125 
Q 13.671875 62.703125 7.8125 59.421875 
L 7.8125 69.390625 
Q 13.765625 71.78125 18.9375 73 
Q 24.125 74.21875 28.421875 74.21875 
Q 39.75 74.21875 46.484375 68.546875 
Q 53.21875 62.890625 53.21875 53.421875 
Q 53.21875 48.921875 51.53125 44.890625 
Q 49.859375 40.875 45.40625 35.40625 
Q 44.1875 33.984375 37.640625 27.21875 
Q 31.109375 20.453125 19.1875 8.296875 
z
" id="DejaVuSans-50"/>
      </defs>
      <use xlink:href="#DejaVuSans-50"/>
     </g>
    </g>
   </g>
   <g id="xtick_3">
    <g id="line2d_4">
     <path d="M 189.15721 217.254202 
L 187.360066 218.91252 
" style="fill:none;stroke:#000000;stroke-linecap:square;stroke-width:0.8;"/>
    </g>
    <g id="text_3">
     <!-- 4 -->
     <g transform="translate(177.91082 241.571064)scale(0.1 -0.1)">
      <defs>
       <path d="M 37.796875 64.3125 
L 12.890625 25.390625 
L 37.796875 25.390625 
z
M 35.203125 72.90625 
L 47.609375 72.90625 
L 47.609375 25.390625 
L 58.015625 25.390625 
L 58.015625 17.1875 
L 47.609375 17.1875 
L 47.609375 0 
L 37.796875 0 
L 37.796875 17.1875 
L 4.890625 17.1875 
L 4.890625 26.703125 
z
" id="DejaVuSans-52"/>
      </defs>
      <use xlink:href="#DejaVuSans-52"/>
     </g>
    </g>
   </g>
   <g id="xtick_4">
    <g id="line2d_5">
     <path d="M 216.084757 226.040048 
L 214.326462 227.737204 
" style="fill:none;stroke:#000000;stroke-linecap:square;stroke-width:0.8;"/>
    </g>
    <g id="text_4">
     <!-- 6 -->
     <g transform="translate(204.890965 250.600322)scale(0.1 -0.1)">
      <defs>
       <path d="M 33.015625 40.375 
Q 26.375 40.375 22.484375 35.828125 
Q 18.609375 31.296875 18.609375 23.390625 
Q 18.609375 15.53125 22.484375 10.953125 
Q 26.375 6.390625 33.015625 6.390625 
Q 39.65625 6.390625 43.53125 10.953125 
Q 47.40625 15.53125 47.40625 23.390625 
Q 47.40625 31.296875 43.53125 35.828125 
Q 39.65625 40.375 33.015625 40.375 
z
M 52.59375 71.296875 
L 52.59375 62.3125 
Q 48.875 64.0625 45.09375 64.984375 
Q 41.3125 65.921875 37.59375 65.921875 
Q 27.828125 65.921875 22.671875 59.328125 
Q 17.53125 52.734375 16.796875 39.40625 
Q 19.671875 43.65625 24.015625 45.921875 
Q 28.375 48.1875 33.59375 48.1875 
Q 44.578125 48.1875 50.953125 41.515625 
Q 57.328125 34.859375 57.328125 23.390625 
Q 57.328125 12.15625 50.6875 5.359375 
Q 44.046875 -1.421875 33.015625 -1.421875 
Q 20.359375 -1.421875 13.671875 8.265625 
Q 6.984375 17.96875 6.984375 36.375 
Q 6.984375 53.65625 15.1875 63.9375 
Q 23.390625 74.21875 37.203125 74.21875 
Q 40.921875 74.21875 44.703125 73.484375 
Q 48.484375 72.75 52.59375 71.296875 
z
" id="DejaVuSans-54"/>
      </defs>
      <use xlink:href="#DejaVuSans-54"/>
     </g>
    </g>
   </g>
   <g id="xtick_5">
    <g id="line2d_6">
     <path d="M 243.645962 235.032643 
L 241.928856 236.770015 
" style="fill:none;stroke:#000000;stroke-linecap:square;stroke-width:0.8;"/>
    </g>
    <g id="text_5">
     <!-- 8 -->
     <g transform="translate(232.509511 259.84323)scale(0.1 -0.1)">
      <defs>
       <path d="M 31.78125 34.625 
Q 24.75 34.625 20.71875 30.859375 
Q 16.703125 27.09375 16.703125 20.515625 
Q 16.703125 13.921875 20.71875 10.15625 
Q 24.75 6.390625 31.78125 6.390625 
Q 38.8125 6.390625 42.859375 10.171875 
Q 46.921875 13.96875 46.921875 20.515625 
Q 46.921875 27.09375 42.890625 30.859375 
Q 38.875 34.625 31.78125 34.625 
z
M 21.921875 38.8125 
Q 15.578125 40.375 12.03125 44.71875 
Q 8.5 49.078125 8.5 55.328125 
Q 8.5 64.0625 14.71875 69.140625 
Q 20.953125 74.21875 31.78125 74.21875 
Q 42.671875 74.21875 48.875 69.140625 
Q 55.078125 64.0625 55.078125 55.328125 
Q 55.078125 49.078125 51.53125 44.71875 
Q 48 40.375 41.703125 38.8125 
Q 48.828125 37.15625 52.796875 32.3125 
Q 56.78125 27.484375 56.78125 20.515625 
Q 56.78125 9.90625 50.3125 4.234375 
Q 43.84375 -1.421875 31.78125 -1.421875 
Q 19.734375 -1.421875 13.25 4.234375 
Q 6.78125 9.90625 6.78125 20.515625 
Q 6.78125 27.484375 10.78125 32.3125 
Q 14.796875 37.15625 21.921875 38.8125 
z
M 18.3125 54.390625 
Q 18.3125 48.734375 21.84375 45.5625 
Q 25.390625 42.390625 31.78125 42.390625 
Q 38.140625 42.390625 41.71875 45.5625 
Q 45.3125 48.734375 45.3125 54.390625 
Q 45.3125 60.0625 41.71875 63.234375 
Q 38.140625 66.40625 31.78125 66.40625 
Q 25.390625 66.40625 21.84375 63.234375 
Q 18.3125 60.0625 18.3125 54.390625 
z
" id="DejaVuSans-56"/>
      </defs>
      <use xlink:href="#DejaVuSans-56"/>
     </g>
    </g>
   </g>
  </g>
  <g id="axis3d_2">
   <g id="line2d_7">
    <path d="M 316.12668 171.68791 
L 251.239879 238.27773 
" style="fill:none;stroke:#000000;stroke-linecap:square;stroke-width:0.8;"/>
   </g>
   <g id="Line3DCollection_2">
    <path d="M 129.866948 102.505071 
L 134.046245 194.238731 
L 255.729543 233.67023 
" style="fill:none;stroke:#b0b0b0;stroke-width:0.8;"/>
    <path d="M 147.250212 89.819556 
L 150.59591 180.366474 
L 270.72626 218.279909 
" style="fill:none;stroke:#b0b0b0;stroke-width:0.8;"/>
    <path d="M 163.958537 77.626582 
L 166.530371 167.009893 
L 285.136664 203.491289 
" style="fill:none;stroke:#b0b0b0;stroke-width:0.8;"/>
    <path d="M 180.030483 65.898008 
L 181.883306 154.140758 
L 298.994481 189.269761 
" style="fill:none;stroke:#b0b0b0;stroke-width:0.8;"/>
    <path d="M 195.501727 54.607799 
L 196.68598 141.732864 
L 312.330896 175.583317 
" style="fill:none;stroke:#b0b0b0;stroke-width:0.8;"/>
   </g>
   <g id="xtick_6">
    <g id="line2d_8">
     <path d="M 254.704115 233.337939 
L 257.783053 234.33567 
" style="fill:none;stroke:#000000;stroke-linecap:square;stroke-width:0.8;"/>
    </g>
    <g id="text_6">
     <!-- 0 -->
     <g transform="translate(265.430654 254.693759)scale(0.1 -0.1)">
      <use xlink:href="#DejaVuSans-48"/>
     </g>
    </g>
   </g>
   <g id="xtick_7">
    <g id="line2d_9">
     <path d="M 269.71494 217.960734 
L 272.751463 218.919068 
" style="fill:none;stroke:#000000;stroke-linecap:square;stroke-width:0.8;"/>
    </g>
    <g id="text_7">
     <!-- 2 -->
     <g transform="translate(280.181112 239.024526)scale(0.1 -0.1)">
      <use xlink:href="#DejaVuSans-50"/>
     </g>
    </g>
   </g>
   <g id="xtick_8">
    <g id="line2d_10">
     <path d="M 284.139145 203.184468 
L 287.134182 204.105694 
" style="fill:none;stroke:#000000;stroke-linecap:square;stroke-width:0.8;"/>
    </g>
    <g id="text_8">
     <!-- 4 -->
     <g transform="translate(294.35448 223.968328)scale(0.1 -0.1)">
      <use xlink:href="#DejaVuSans-52"/>
     </g>
    </g>
   </g>
   <g id="xtick_9">
    <g id="line2d_11">
     <path d="M 298.010457 188.97459 
L 300.964927 189.860821 
" style="fill:none;stroke:#000000;stroke-linecap:square;stroke-width:0.8;"/>
    </g>
    <g id="text_9">
     <!-- 6 -->
     <g transform="translate(307.983974 209.489882)scale(0.1 -0.1)">
      <use xlink:href="#DejaVuSans-54"/>
     </g>
    </g>
   </g>
   <g id="xtick_10">
    <g id="line2d_12">
     <path d="M 311.360068 175.299146 
L 314.274875 176.15234 
" style="fill:none;stroke:#000000;stroke-linecap:square;stroke-width:0.8;"/>
    </g>
    <g id="text_10">
     <!-- 8 -->
     <g transform="translate(321.10031 195.556556)scale(0.1 -0.1)">
      <use xlink:href="#DejaVuSans-56"/>
     </g>
    </g>
   </g>
  </g>
  <g id="axis3d_3">
   <g id="line2d_13">
    <path d="M 316.12668 171.68791 
L 320.238571 81.894718 
" style="fill:none;stroke:#000000;stroke-linecap:square;stroke-width:0.8;"/>
   </g>
   <g id="Line3DCollection_3">
    <path d="M 316.205459 169.967571 
L 200.884845 136.530725 
L 129.013401 196.624949 
" style="fill:none;stroke:#b0b0b0;stroke-width:0.8;"/>
    <path d="M 316.999386 152.63024 
L 200.691805 119.743465 
L 128.158304 178.868309 
" style="fill:none;stroke:#b0b0b0;stroke-width:0.8;"/>
    <path d="M 317.807155 134.990634 
L 200.495561 102.677569 
L 127.287727 160.790219 
" style="fill:none;stroke:#b0b0b0;stroke-width:0.8;"/>
    <path d="M 318.629131 117.040778 
L 200.296032 85.32604 
L 126.401246 142.381872 
" style="fill:none;stroke:#b0b0b0;stroke-width:0.8;"/>
    <path d="M 319.465692 98.772415 
L 200.093136 67.681648 
L 125.498422 123.634133 
" style="fill:none;stroke:#b0b0b0;stroke-width:0.8;"/>
   </g>
   <g id="xtick_11">
    <g id="line2d_14">
     <path d="M 315.237563 169.686933 
L 318.143556 170.529516 
" style="fill:none;stroke:#000000;stroke-linecap:square;stroke-width:0.8;"/>
    </g>
    <g id="text_11">
     <!-- 0 -->
     <g transform="translate(331.275915 174.966846)scale(0.1 -0.1)">
      <use xlink:href="#DejaVuSans-48"/>
     </g>
    </g>
   </g>
   <g id="xtick_12">
    <g id="line2d_15">
     <path d="M 316.022811 152.354107 
L 318.954881 153.18317 
" style="fill:none;stroke:#000000;stroke-linecap:square;stroke-width:0.8;"/>
    </g>
    <g id="text_12">
     <!-- 10000 -->
     <g transform="translate(319.499053 157.671312)scale(0.1 -0.1)">
      <defs>
       <path d="M 12.40625 8.296875 
L 28.515625 8.296875 
L 28.515625 63.921875 
L 10.984375 60.40625 
L 10.984375 69.390625 
L 28.421875 72.90625 
L 38.28125 72.90625 
L 38.28125 8.296875 
L 54.390625 8.296875 
L 54.390625 0 
L 12.40625 0 
z
" id="DejaVuSans-49"/>
      </defs>
      <use xlink:href="#DejaVuSans-49"/>
      <use x="63.623047" xlink:href="#DejaVuSans-48"/>
      <use x="127.246094" xlink:href="#DejaVuSans-48"/>
      <use x="190.869141" xlink:href="#DejaVuSans-48"/>
      <use x="254.492188" xlink:href="#DejaVuSans-48"/>
     </g>
    </g>
   </g>
   <g id="xtick_13">
    <g id="line2d_16">
     <path d="M 316.821744 134.719206 
L 319.780363 135.534147 
" style="fill:none;stroke:#000000;stroke-linecap:square;stroke-width:0.8;"/>
    </g>
    <g id="text_13">
     <!-- 20000 -->
     <g transform="translate(320.463659 140.075358)scale(0.1 -0.1)">
      <use xlink:href="#DejaVuSans-50"/>
      <use x="63.623047" xlink:href="#DejaVuSans-48"/>
      <use x="127.246094" xlink:href="#DejaVuSans-48"/>
      <use x="190.869141" xlink:href="#DejaVuSans-48"/>
      <use x="254.492188" xlink:href="#DejaVuSans-48"/>
     </g>
    </g>
   </g>
   <g id="xtick_14">
    <g id="line2d_17">
     <path d="M 317.634724 116.774265 
L 320.620375 117.574457 
" style="fill:none;stroke:#000000;stroke-linecap:square;stroke-width:0.8;"/>
    </g>
    <g id="text_14">
     <!-- 30000 -->
     <g transform="translate(321.445167 122.171087)scale(0.1 -0.1)">
      <defs>
       <path d="M 40.578125 39.3125 
Q 47.65625 37.796875 51.625 33 
Q 55.609375 28.21875 55.609375 21.1875 
Q 55.609375 10.40625 48.1875 4.484375 
Q 40.765625 -1.421875 27.09375 -1.421875 
Q 22.515625 -1.421875 17.65625 -0.515625 
Q 12.796875 0.390625 7.625 2.203125 
L 7.625 11.71875 
Q 11.71875 9.328125 16.59375 8.109375 
Q 21.484375 6.890625 26.8125 6.890625 
Q 36.078125 6.890625 40.9375 10.546875 
Q 45.796875 14.203125 45.796875 21.1875 
Q 45.796875 27.640625 41.28125 31.265625 
Q 36.765625 34.90625 28.71875 34.90625 
L 20.21875 34.90625 
L 20.21875 43.015625 
L 29.109375 43.015625 
Q 36.375 43.015625 40.234375 45.921875 
Q 44.09375 48.828125 44.09375 54.296875 
Q 44.09375 59.90625 40.109375 62.90625 
Q 36.140625 65.921875 28.71875 65.921875 
Q 24.65625 65.921875 20.015625 65.03125 
Q 15.375 64.15625 9.8125 62.3125 
L 9.8125 71.09375 
Q 15.4375 72.65625 20.34375 73.4375 
Q 25.25 74.21875 29.59375 74.21875 
Q 40.828125 74.21875 47.359375 69.109375 
Q 53.90625 64.015625 53.90625 55.328125 
Q 53.90625 49.265625 50.4375 45.09375 
Q 46.96875 40.921875 40.578125 39.3125 
z
" id="DejaVuSans-51"/>
      </defs>
      <use xlink:href="#DejaVuSans-51"/>
      <use x="63.623047" xlink:href="#DejaVuSans-48"/>
      <use x="127.246094" xlink:href="#DejaVuSans-48"/>
      <use x="190.869141" xlink:href="#DejaVuSans-48"/>
      <use x="254.492188" xlink:href="#DejaVuSans-48"/>
     </g>
    </g>
   </g>
   <g id="xtick_15">
    <g id="line2d_18">
     <path d="M 318.462123 98.511034 
L 321.475305 99.295822 
" style="fill:none;stroke:#000000;stroke-linecap:square;stroke-width:0.8;"/>
    </g>
    <g id="text_15">
     <!-- 40000 -->
     <g transform="translate(322.444026 103.950325)scale(0.1 -0.1)">
      <use xlink:href="#DejaVuSans-52"/>
      <use x="63.623047" xlink:href="#DejaVuSans-48"/>
      <use x="127.246094" xlink:href="#DejaVuSans-48"/>
      <use x="190.869141" xlink:href="#DejaVuSans-48"/>
      <use x="254.492188" xlink:href="#DejaVuSans-48"/>
     </g>
    </g>
   </g>
  </g>
  <g id="axes_1">
   <g id="Poly3DCollection_1">
    <path clip-path="url(#pf04bab2a21)" d="M 203.700438 142.115361 
L 203.697852 141.86051 
L 215.862834 145.411276 
L 215.863902 145.66701 
z
" style="fill:#050338;"/>
    <path clip-path="url(#pf04bab2a21)" d="M 196.401162 148.290596 
L 196.39763 148.034213 
L 203.697852 141.86051 
L 203.700438 142.115361 
z
" style="fill:#0b0777;"/>
    <path clip-path="url(#pf04bab2a21)" d="M 196.401162 148.290596 
L 203.700438 142.115361 
L 215.863902 145.66701 
L 208.637156 151.907182 
z
" style="fill:#070448;"/>
    <path clip-path="url(#pf04bab2a21)" d="M 196.39763 148.034213 
L 208.635161 151.649907 
L 215.862834 145.411276 
L 203.697852 141.86051 
z
" style="fill:#0a0667;"/>
    <path clip-path="url(#pf04bab2a21)" d="M 215.863902 145.66701 
L 215.860266 144.795819 
L 228.15667 148.381718 
L 228.155024 149.255935 
z
" style="fill:#070339;"/>
    <path clip-path="url(#pf04bab2a21)" d="M 208.637156 151.907182 
L 215.863902 145.66701 
L 215.862834 145.411276 
L 208.635161 151.649907 
z
" style="fill:#050338;"/>
    <path clip-path="url(#pf04bab2a21)" d="M 208.637156 151.907182 
L 208.630358 151.03074 
L 215.860266 144.795819 
L 215.863902 145.66701 
z
" style="fill:#0e0678;"/>
    <path clip-path="url(#pf04bab2a21)" d="M 196.401162 148.290596 
L 208.637156 151.907182 
L 208.635161 151.649907 
L 196.39763 148.034213 
z
" style="fill:#0b0777;"/>
    <path clip-path="url(#pf04bab2a21)" d="M 196.401162 148.290596 
L 196.396115 147.924265 
L 208.634305 151.539577 
L 208.637156 151.907182 
z
" style="fill:#050338;"/>
    <path clip-path="url(#pf04bab2a21)" d="M 208.637156 151.907182 
L 215.863902 145.66701 
L 228.155024 149.255935 
L 221.002748 155.562072 
z
" style="fill:#090449;"/>
    <path clip-path="url(#pf04bab2a21)" d="M 208.630358 151.03074 
L 221.001296 154.682578 
L 228.15667 148.381718 
L 215.860266 144.795819 
z
" style="fill:#0c0668;"/>
    <path clip-path="url(#pf04bab2a21)" d="M 188.96817 154.578956 
L 188.961722 154.210415 
L 196.396115 147.924265 
L 196.401162 148.290596 
z
" style="fill:#0b0777;"/>
    <path clip-path="url(#pf04bab2a21)" d="M 228.155024 149.255935 
L 228.159924 146.653949 
L 240.596781 150.271675 
L 240.575825 152.882725 
z
" style="fill:#0d023b;"/>
    <path clip-path="url(#pf04bab2a21)" d="M 221.002748 155.562072 
L 228.155024 149.255935 
L 228.15667 148.381718 
L 221.001296 154.682578 
z
" style="fill:#070339;"/>
    <path clip-path="url(#pf04bab2a21)" d="M 221.002748 155.562072 
L 220.998427 152.944358 
L 228.159924 146.653949 
L 228.155024 149.255935 
z
" style="fill:#1c057e;"/>
    <path clip-path="url(#pf04bab2a21)" d="M 188.96817 154.578956 
L 196.401162 148.290596 
L 208.637156 151.907182 
L 201.27732 158.262275 
z
" style="fill:#070448;"/>
    <path clip-path="url(#pf04bab2a21)" d="M 188.961722 154.210415 
L 201.273093 157.89245 
L 208.634305 151.539577 
L 196.396115 147.924265 
z
" style="fill:#0a0667;"/>
    <path clip-path="url(#pf04bab2a21)" d="M 208.637156 151.907182 
L 221.002748 155.562072 
L 221.001296 154.682578 
L 208.630358 151.03074 
z
" style="fill:#0e0678;"/>
    <path clip-path="url(#pf04bab2a21)" d="M 208.637156 151.907182 
L 208.625017 150.342256 
L 221.000156 153.991693 
L 221.002748 155.562072 
z
" style="fill:#0a033a;"/>
    <path clip-path="url(#pf04bab2a21)" d="M 221.002748 155.562072 
L 228.155024 149.255935 
L 240.575825 152.882725 
L 233.500008 159.25588 
z
" style="fill:#11034c;"/>
    <path clip-path="url(#pf04bab2a21)" d="M 220.998427 152.944358 
L 233.51194 156.629022 
L 240.596781 150.271675 
L 228.159924 146.653949 
z
" style="fill:#18046d;"/>
    <path clip-path="url(#pf04bab2a21)" d="M 201.27732 158.262275 
L 208.637156 151.907182 
L 208.634305 151.539577 
L 201.273093 157.89245 
z
" style="fill:#050338;"/>
    <path clip-path="url(#pf04bab2a21)" d="M 201.27732 158.262275 
L 201.259327 156.687887 
L 208.625017 150.342256 
L 208.637156 151.907182 
z
" style="fill:#16067b;"/>
    <path clip-path="url(#pf04bab2a21)" d="M 240.575825 152.882725 
L 240.648425 143.836638 
L 253.257778 147.470181 
L 253.128369 156.547983 
z
" style="fill:#1c0142;"/>
    <path clip-path="url(#pf04bab2a21)" d="M 188.96817 154.578956 
L 201.27732 158.262275 
L 201.273093 157.89245 
L 188.961722 154.210415 
z
" style="fill:#0b0777;"/>
    <path clip-path="url(#pf04bab2a21)" d="M 188.96817 154.578956 
L 188.958185 154.008281 
L 201.270775 157.689611 
L 201.27732 158.262275 
z
" style="fill:#050338;"/>
    <path clip-path="url(#pf04bab2a21)" d="M 233.500008 159.25588 
L 240.575825 152.882725 
L 240.596781 150.271675 
L 233.51194 156.629022 
z
" style="fill:#0d023b;"/>
    <path clip-path="url(#pf04bab2a21)" d="M 201.27732 158.262275 
L 208.637156 151.907182 
L 221.002748 155.562072 
L 213.718049 161.984967 
z
" style="fill:#0d034a;"/>
    <path clip-path="url(#pf04bab2a21)" d="M 201.259327 156.687887 
L 213.709718 160.405077 
L 221.000156 153.991693 
L 208.625017 150.342256 
z
" style="fill:#13056b;"/>
    <path clip-path="url(#pf04bab2a21)" d="M 233.500008 159.25588 
L 233.54135 150.154759 
L 240.648425 143.836638 
L 240.575825 152.882725 
z
" style="fill:#3c038c;"/>
    <path clip-path="url(#pf04bab2a21)" d="M 221.002748 155.562072 
L 233.500008 159.25588 
L 233.51194 156.629022 
L 220.998427 152.944358 
z
" style="fill:#1c057e;"/>
    <path clip-path="url(#pf04bab2a21)" d="M 181.397755 160.983577 
L 181.385521 160.40945 
L 188.958185 154.008281 
L 188.96817 154.578956 
z
" style="fill:#0b0777;"/>
    <path clip-path="url(#pf04bab2a21)" d="M 233.500008 159.25588 
L 240.575825 152.882725 
L 253.128369 156.547983 
L 246.131049 162.989229 
z
" style="fill:#240254;"/>
    <path clip-path="url(#pf04bab2a21)" d="M 221.002748 155.562072 
L 220.99279 149.530282 
L 233.527503 153.202966 
L 233.500008 159.25588 
z
" style="fill:#16023f;"/>
    <path clip-path="url(#pf04bab2a21)" d="M 213.718049 161.984967 
L 221.002748 155.562072 
L 221.000156 153.991693 
L 213.709718 160.405077 
z
" style="fill:#0a033a;"/>
    <path clip-path="url(#pf04bab2a21)" d="M 181.397755 160.983577 
L 188.96817 154.578956 
L 201.27732 158.262275 
L 193.780682 164.735494 
z
" style="fill:#070448;"/>
    <path clip-path="url(#pf04bab2a21)" d="M 213.718049 161.984967 
L 213.68605 155.916522 
L 220.99279 149.530282 
L 221.002748 155.562072 
z
" style="fill:#2f0486;"/>
    <path clip-path="url(#pf04bab2a21)" d="M 181.385521 160.40945 
L 193.771929 164.15936 
L 201.270775 157.689611 
L 188.958185 154.008281 
z
" style="fill:#0a0667;"/>
    <path clip-path="url(#pf04bab2a21)" d="M 201.27732 158.262275 
L 213.718049 161.984967 
L 213.709718 160.405077 
L 201.259327 156.687887 
z
" style="fill:#16067b;"/>
    <path clip-path="url(#pf04bab2a21)" d="M 213.718049 161.984967 
L 221.002748 155.562072 
L 233.500008 159.25588 
L 226.292478 165.747667 
z
" style="fill:#1c0251;"/>
    <path clip-path="url(#pf04bab2a21)" d="M 201.27732 158.262275 
L 201.240285 155.021738 
L 213.700902 158.733092 
L 213.718049 161.984967 
z
" style="fill:#0f023c;"/>
    <path clip-path="url(#pf04bab2a21)" d="M 233.54135 150.154759 
L 246.229918 153.856111 
L 253.257778 147.470181 
L 240.648425 143.836638 
z
" style="fill:#340279;"/>
    <path clip-path="url(#pf04bab2a21)" d="M 246.131049 162.989229 
L 253.128369 156.547983 
L 253.257778 147.470181 
L 246.229918 153.856111 
z
" style="fill:#1c0142;"/>
    <path clip-path="url(#pf04bab2a21)" d="M 193.780682 164.735494 
L 201.27732 158.262275 
L 201.270775 157.689611 
L 193.771929 164.15936 
z
" style="fill:#050338;"/>
    <path clip-path="url(#pf04bab2a21)" d="M 246.131049 162.989229 
L 253.128369 156.547983 
L 265.814761 160.252323 
L 258.898031 166.762758 
z
" style="fill:#4f0956;"/>
    <path clip-path="url(#pf04bab2a21)" d="M 193.780682 164.735494 
L 193.731151 161.475284 
L 201.240285 155.021738 
L 201.27732 158.262275 
z
" style="fill:#200580;"/>
    <path clip-path="url(#pf04bab2a21)" d="M 233.500008 159.25588 
L 246.131049 162.989229 
L 246.229918 153.856111 
L 233.54135 150.154759 
z
" style="fill:#3c038c;"/>
    <path clip-path="url(#pf04bab2a21)" d="M 213.68605 155.916522 
L 226.298397 159.657912 
L 233.527503 153.202966 
L 220.99279 149.530282 
z
" style="fill:#290375;"/>
    <path clip-path="url(#pf04bab2a21)" d="M 253.128369 156.547983 
L 253.501879 130.346938 
L 266.355766 133.958083 
L 265.814761 160.252323 
z
" style="fill:#3e0743;"/>
    <path clip-path="url(#pf04bab2a21)" d="M 181.397755 160.983577 
L 193.780682 164.735494 
L 193.771929 164.15936 
L 181.385521 160.40945 
z
" style="fill:#0b0777;"/>
    <path clip-path="url(#pf04bab2a21)" d="M 181.397755 160.983577 
L 181.379404 160.122385 
L 193.767552 163.871291 
L 193.780682 164.735494 
z
" style="fill:#070339;"/>
    <path clip-path="url(#pf04bab2a21)" d="M 193.780682 164.735494 
L 201.27732 158.262275 
L 213.718049 161.984967 
L 206.297214 168.527892 
z
" style="fill:#13034d;"/>
    <path clip-path="url(#pf04bab2a21)" d="M 226.292478 165.747667 
L 233.500008 159.25588 
L 233.527503 153.202966 
L 226.298397 159.657912 
z
" style="fill:#16023f;"/>
    <path clip-path="url(#pf04bab2a21)" d="M 246.131049 162.989229 
L 246.416434 136.626453 
L 253.501879 130.346938 
L 253.128369 156.547983 
z
" style="fill:#840f8f;"/>
    <path clip-path="url(#pf04bab2a21)" d="M 226.292478 165.747667 
L 233.500008 159.25588 
L 246.131049 162.989229 
L 239.002775 169.551023 
z
" style="fill:#4d0757;"/>
    <path clip-path="url(#pf04bab2a21)" d="M 173.686069 167.507715 
L 173.66422 166.641298 
L 181.379404 160.122385 
L 181.397755 160.983577 
z
" style="fill:#0e0678;"/>
    <path clip-path="url(#pf04bab2a21)" d="M 193.731151 161.475284 
L 206.267813 165.256245 
L 213.700902 158.733092 
L 201.240285 155.021738 
z
" style="fill:#1b046f;"/>
    <path clip-path="url(#pf04bab2a21)" d="M 213.718049 161.984967 
L 226.292478 165.747667 
L 226.298397 159.657912 
L 213.68605 155.916522 
z
" style="fill:#2f0486;"/>
    <path clip-path="url(#pf04bab2a21)" d="M 258.898031 166.762758 
L 265.814761 160.252323 
L 278.637155 163.996376 
L 271.803162 170.57712 
z
" style="fill:#743038;"/>
    <path clip-path="url(#pf04bab2a21)" d="M 233.500008 159.25588 
L 233.613749 134.216707 
L 246.40307 137.860963 
L 246.131049 162.989229 
z
" style="fill:#3c0544;"/>
    <path clip-path="url(#pf04bab2a21)" d="M 206.297214 168.527892 
L 213.718049 161.984967 
L 213.700902 158.733092 
L 206.267813 165.256245 
z
" style="fill:#0f023c;"/>
    <path clip-path="url(#pf04bab2a21)" d="M 173.686069 167.507715 
L 181.397755 160.983577 
L 193.780682 164.735494 
L 186.143392 171.330164 
z
" style="fill:#090449;"/>
    <path clip-path="url(#pf04bab2a21)" d="M 173.66422 166.641298 
L 186.126828 170.46071 
L 193.767552 163.871291 
L 181.379404 160.122385 
z
" style="fill:#0c0668;"/>
    <path clip-path="url(#pf04bab2a21)" d="M 226.292478 165.747667 
L 226.316967 140.553885 
L 233.613749 134.216707 
L 233.500008 159.25588 
z
" style="fill:#7f0c90;"/>
    <path clip-path="url(#pf04bab2a21)" d="M 213.718049 161.984967 
L 213.624335 144.21231 
L 226.309814 147.912043 
L 226.292478 165.747667 
z
" style="fill:#2e0046;"/>
    <path clip-path="url(#pf04bab2a21)" d="M 206.297214 168.527892 
L 213.718049 161.984967 
L 226.292478 165.747667 
L 218.949524 172.361429 
z
" style="fill:#3b005a;"/>
    <path clip-path="url(#pf04bab2a21)" d="M 193.780682 164.735494 
L 206.297214 168.527892 
L 206.267813 165.256245 
L 193.731151 161.475284 
z
" style="fill:#200580;"/>
    <path clip-path="url(#pf04bab2a21)" d="M 258.898031 166.762758 
L 265.814761 160.252323 
L 266.355766 133.958083 
L 259.353074 140.305935 
z
" style="fill:#3e0743;"/>
    <path clip-path="url(#pf04bab2a21)" d="M 239.002775 169.551023 
L 246.131049 162.989229 
L 258.898031 166.762758 
L 251.851153 173.395697 
z
" style="fill:#7d3e2e;"/>
    <path clip-path="url(#pf04bab2a21)" d="M 186.143392 171.330164 
L 193.780682 164.735494 
L 193.767552 163.871291 
L 186.126828 170.46071 
z
" style="fill:#070339;"/>
    <path clip-path="url(#pf04bab2a21)" d="M 193.780682 164.735494 
L 193.64546 155.834878 
L 206.216946 159.595919 
L 206.297214 168.527892 
z
" style="fill:#1c0142;"/>
    <path clip-path="url(#pf04bab2a21)" d="M 206.297214 168.527892 
L 206.136518 150.645969 
L 213.624335 144.21231 
L 213.718049 161.984967 
z
" style="fill:#620095;"/>
    <path clip-path="url(#pf04bab2a21)" d="M 271.803162 170.57712 
L 278.637155 163.996376 
L 291.597749 167.780781 
L 284.848695 174.43298 
z
" style="fill:#793733;"/>
    <path clip-path="url(#pf04bab2a21)" d="M 246.131049 162.989229 
L 258.898031 166.762758 
L 259.353074 140.305935 
L 246.416434 136.626453 
z
" style="fill:#840f8f;"/>
    <path clip-path="url(#pf04bab2a21)" d="M 173.686069 167.507715 
L 186.143392 171.330164 
L 186.126828 170.46071 
L 173.66422 166.641298 
z
" style="fill:#0e0678;"/>
    <path clip-path="url(#pf04bab2a21)" d="M 186.143392 171.330164 
L 185.972782 162.375135 
L 193.64546 155.834878 
L 193.780682 164.735494 
z
" style="fill:#3b038b;"/>
    <path clip-path="url(#pf04bab2a21)" d="M 173.686069 167.507715 
L 173.634187 165.450361 
L 186.104058 169.265592 
L 186.143392 171.330164 
z
" style="fill:#0b033b;"/>
    <path clip-path="url(#pf04bab2a21)" d="M 186.143392 171.330164 
L 193.780682 164.735494 
L 206.297214 168.527892 
L 198.736391 175.194243 
z
" style="fill:#240254;"/>
    <path clip-path="url(#pf04bab2a21)" d="M 265.814761 160.252323 
L 266.798293 112.450165 
L 279.931811 116.021152 
L 278.637155 163.996376 
z
" style="fill:#5b262c;"/>
    <path clip-path="url(#pf04bab2a21)" d="M 239.002775 169.551023 
L 246.131049 162.989229 
L 246.40307 137.860963 
L 239.187554 144.26734 
z
" style="fill:#3c0544;"/>
    <path clip-path="url(#pf04bab2a21)" d="M 246.416434 136.626453 
L 259.353074 140.305935 
L 266.355766 133.958083 
L 253.501879 130.346938 
z
" style="fill:#720d7c;"/>
    <path clip-path="url(#pf04bab2a21)" d="M 218.949524 172.361429 
L 226.292478 165.747667 
L 239.002775 169.551023 
L 231.739835 176.23678 
z
" style="fill:#7c3c30;"/>
    <path clip-path="url(#pf04bab2a21)" d="M 165.82912 174.154745 
L 165.768626 172.084866 
L 173.634187 165.450361 
L 173.686069 167.507715 
z
" style="fill:#18057c;"/>
    <path clip-path="url(#pf04bab2a21)" d="M 258.898031 166.762758 
L 259.725368 118.660245 
L 266.798293 112.450165 
L 265.814761 160.252323 
z
" style="fill:#c1505c;"/>
    <path clip-path="url(#pf04bab2a21)" d="M 251.851153 173.395697 
L 258.898031 166.762758 
L 271.803162 170.57712 
L 264.839875 177.282368 
z
" style="fill:#855320;"/>
    <path clip-path="url(#pf04bab2a21)" d="M 226.292478 165.747667 
L 239.002775 169.551023 
L 239.187554 144.26734 
L 226.316967 140.553885 
z
" style="fill:#7f0c90;"/>
    <path clip-path="url(#pf04bab2a21)" d="M 218.949524 172.361429 
L 226.292478 165.747667 
L 226.309814 147.912043 
L 218.901262 154.415979 
z
" style="fill:#2e0046;"/>
    <path clip-path="url(#pf04bab2a21)" d="M 165.82912 174.154745 
L 173.686069 167.507715 
L 186.143392 171.330164 
L 178.361455 178.049733 
z
" style="fill:#0e034b;"/>
    <path clip-path="url(#pf04bab2a21)" d="M 284.848695 174.43298 
L 291.597749 167.780781 
L 304.698789 171.606197 
L 298.036935 178.33102 
z
" style="fill:#6b2441;"/>
    <path clip-path="url(#pf04bab2a21)" d="M 185.972782 162.375135 
L 198.621406 166.207585 
L 206.216946 159.595919 
L 193.64546 155.834878 
z
" style="fill:#330379;"/>
    <path clip-path="url(#pf04bab2a21)" d="M 226.316967 140.553885 
L 239.187554 144.26734 
L 246.40307 137.860963 
L 233.613749 134.216707 
z
" style="fill:#6e0a7d;"/>
    <path clip-path="url(#pf04bab2a21)" d="M 206.136518 150.645969 
L 218.901262 154.415979 
L 226.309814 147.912043 
L 213.624335 144.21231 
z
" style="fill:#550081;"/>
    <path clip-path="url(#pf04bab2a21)" d="M 198.736391 175.194243 
L 206.297214 168.527892 
L 206.216946 159.595919 
L 198.621406 166.207585 
z
" style="fill:#1c0142;"/>
    <path clip-path="url(#pf04bab2a21)" d="M 165.768626 172.084866 
L 178.313658 175.972576 
L 186.104058 169.265592 
L 173.634187 165.450361 
z
" style="fill:#15056c;"/>
    <path clip-path="url(#pf04bab2a21)" d="M 206.297214 168.527892 
L 218.949524 172.361429 
L 218.901262 154.415979 
L 206.136518 150.645969 
z
" style="fill:#620095;"/>
    <path clip-path="url(#pf04bab2a21)" d="M 198.736391 175.194243 
L 206.297214 168.527892 
L 218.949524 172.361429 
L 211.467294 179.100638 
z
" style="fill:#6f2a3d;"/>
    <path clip-path="url(#pf04bab2a21)" d="M 246.131049 162.989229 
L 246.727351 107.905183 
L 259.848899 111.47796 
L 258.898031 166.762758 
z
" style="fill:#623024;"/>
    <path clip-path="url(#pf04bab2a21)" d="M 231.739835 176.23678 
L 239.002775 169.551023 
L 251.851153 173.395697 
L 244.670417 180.154631 
z
" style="fill:#876915;"/>
    <path clip-path="url(#pf04bab2a21)" d="M 186.143392 171.330164 
L 198.736391 175.194243 
L 198.621406 166.207585 
L 185.972782 162.375135 
z
" style="fill:#3b038b;"/>
    <path clip-path="url(#pf04bab2a21)" d="M 278.637155 163.996376 
L 280.017977 112.828155 
L 293.317613 116.426533 
L 291.597749 167.780781 
z
" style="fill:#5e2b28;"/>
    <path clip-path="url(#pf04bab2a21)" d="M 178.361455 178.049733 
L 186.143392 171.330164 
L 186.104058 169.265592 
L 178.313658 175.972576 
z
" style="fill:#0b033b;"/>
    <path clip-path="url(#pf04bab2a21)" d="M 271.803162 170.57712 
L 278.637155 163.996376 
L 279.931811 116.021152 
L 272.945735 122.299909 
z
" style="fill:#5b262c;"/>
    <path clip-path="url(#pf04bab2a21)" d="M 264.839875 177.282368 
L 271.803162 170.57712 
L 284.848695 174.43298 
L 277.971253 181.211726 
z
" style="fill:#834c25;"/>
    <path clip-path="url(#pf04bab2a21)" d="M 239.002775 169.551023 
L 239.407888 114.118564 
L 246.727351 107.905183 
L 246.131049 162.989229 
z
" style="fill:#cf664c;"/>
    <path clip-path="url(#pf04bab2a21)" d="M 271.803162 170.57712 
L 273.021797 119.086048 
L 280.017977 112.828155 
L 278.637155 163.996376 
z
" style="fill:#c85a55;"/>
    <path clip-path="url(#pf04bab2a21)" d="M 165.82912 174.154745 
L 178.361455 178.049733 
L 178.313658 175.972576 
L 165.768626 172.084866 
z
" style="fill:#18057c;"/>
    <path clip-path="url(#pf04bab2a21)" d="M 178.361455 178.049733 
L 186.143392 171.330164 
L 198.736391 175.194243 
L 191.031582 181.987547 
z
" style="fill:#581051;"/>
    <path clip-path="url(#pf04bab2a21)" d="M 291.597749 167.780781 
L 292.981364 126.466761 
L 306.361053 130.142827 
L 304.698789 171.606197 
z
" style="fill:#541c33;"/>
    <path clip-path="url(#pf04bab2a21)" d="M 226.292478 165.747667 
L 226.344931 111.784204 
L 239.39859 115.39081 
L 239.002775 169.551023 
z
" style="fill:#612f25;"/>
    <path clip-path="url(#pf04bab2a21)" d="M 258.898031 166.762758 
L 271.803162 170.57712 
L 272.945735 122.299909 
L 259.725368 118.660245 
z
" style="fill:#c1505c;"/>
    <path clip-path="url(#pf04bab2a21)" d="M 211.467294 179.100638 
L 218.949524 172.361429 
L 231.739835 176.23678 
L 224.338378 183.050047 
z
" style="fill:#876815;"/>
    <path clip-path="url(#pf04bab2a21)" d="M 165.82912 174.154745 
L 165.511937 163.301977 
L 178.110841 167.158537 
L 178.361455 178.049733 
z
" style="fill:#200143;"/>
    <path clip-path="url(#pf04bab2a21)" d="M 206.297214 168.527892 
L 205.898208 124.127353 
L 218.829681 127.799962 
L 218.949524 172.361429 
z
" style="fill:#572130;"/>
    <path clip-path="url(#pf04bab2a21)" d="M 284.848695 174.43298 
L 286.105445 132.859775 
L 292.981364 126.466761 
L 291.597749 167.780781 
z
" style="fill:#b13c6c;"/>
    <path clip-path="url(#pf04bab2a21)" d="M 218.949524 172.361429 
L 218.803477 118.056505 
L 226.344931 111.784204 
L 226.292478 165.747667 
z
" style="fill:#cd634f;"/>
    <path clip-path="url(#pf04bab2a21)" d="M 186.143392 171.330164 
L 185.56246 140.838173 
L 198.344841 144.592763 
L 198.736391 175.194243 
z
" style="fill:#450d40;"/>
    <path clip-path="url(#pf04bab2a21)" d="M 244.670417 180.154631 
L 251.851153 173.395697 
L 264.839875 177.282368 
L 257.743589 184.115686 
z
" style="fill:#876317;"/>
    <path clip-path="url(#pf04bab2a21)" d="M 157.822766 180.928173 
L 157.458733 170.008724 
L 165.511937 163.301977 
L 165.82912 174.154745 
z
" style="fill:#44028e;"/>
    <path clip-path="url(#pf04bab2a21)" d="M 157.822766 180.928173 
L 165.82912 174.154745 
L 178.361455 178.049733 
L 170.430723 184.897786 
z
" style="fill:#290156;"/>
    <path clip-path="url(#pf04bab2a21)" d="M 198.736391 175.194243 
L 198.164707 130.514422 
L 205.898208 124.127353 
L 206.297214 168.527892 
z
" style="fill:#b94565;"/>
    <path clip-path="url(#pf04bab2a21)" d="M 277.971253 181.211726 
L 284.848695 174.43298 
L 298.036935 178.33102 
L 291.24765 185.184478 
z
" style="fill:#6f293e;"/>
    <path clip-path="url(#pf04bab2a21)" d="M 251.851153 173.395697 
L 258.898031 166.762758 
L 259.848899 111.47796 
L 252.615454 117.760576 
z
" style="fill:#623024;"/>
    <path clip-path="url(#pf04bab2a21)" d="M 178.361455 178.049733 
L 177.655439 147.367741 
L 185.56246 140.838173 
L 186.143392 171.330164 
z
" style="fill:#911b87;"/>
    <path clip-path="url(#pf04bab2a21)" d="M 284.848695 174.43298 
L 291.597749 167.780781 
L 293.317613 116.426533 
L 286.410937 122.754125 
z
" style="fill:#5e2b28;"/>
    <path clip-path="url(#pf04bab2a21)" d="M 258.898031 166.762758 
L 260.030495 100.919723 
L 273.367198 104.491801 
L 271.803162 170.57712 
z
" style="fill:#684119;"/>
    <path clip-path="url(#pf04bab2a21)" d="M 191.031582 181.987547 
L 198.736391 175.194243 
L 211.467294 179.100638 
L 203.841786 185.968896 
z
" style="fill:#876517;"/>
    <path clip-path="url(#pf04bab2a21)" d="M 239.002775 169.551023 
L 251.851153 173.395697 
L 252.615454 117.760576 
L 239.407888 114.118564 
z
" style="fill:#cf664c;"/>
    <path clip-path="url(#pf04bab2a21)" d="M 224.338378 183.050047 
L 231.739835 176.23678 
L 244.670417 180.154631 
L 237.351973 187.043183 
z
" style="fill:#857613;"/>
    <path clip-path="url(#pf04bab2a21)" d="M 271.803162 170.57712 
L 284.848695 174.43298 
L 286.410937 122.754125 
L 273.021797 119.086048 
z
" style="fill:#c85a55;"/>
    <path clip-path="url(#pf04bab2a21)" d="M 251.851153 173.395697 
L 252.761464 107.132159 
L 260.030495 100.919723 
L 258.898031 166.762758 
z
" style="fill:#dd8a35;"/>
    <path clip-path="url(#pf04bab2a21)" d="M 259.725368 118.660245 
L 272.945735 122.299909 
L 279.931811 116.021152 
L 266.798293 112.450165 
z
" style="fill:#a74650;"/>
    <path clip-path="url(#pf04bab2a21)" d="M 298.036935 178.33102 
L 304.698789 171.606197 
L 306.361053 130.142827 
L 299.576141 136.607091 
z
" style="fill:#541c33;"/>
    <path clip-path="url(#pf04bab2a21)" d="M 231.739835 176.23678 
L 239.002775 169.551023 
L 239.39859 115.39081 
L 231.941551 121.733246 
z
" style="fill:#612f25;"/>
    <path clip-path="url(#pf04bab2a21)" d="M 257.743589 184.115686 
L 264.839875 177.282368 
L 277.971253 181.211726 
L 270.961723 188.120663 
z
" style="fill:#834c25;"/>
    <path clip-path="url(#pf04bab2a21)" d="M 157.458733 170.008724 
L 170.134053 173.93958 
L 178.110841 167.158537 
L 165.511937 163.301977 
z
" style="fill:#3b027b;"/>
    <path clip-path="url(#pf04bab2a21)" d="M 170.430723 184.897786 
L 178.361455 178.049733 
L 178.110841 167.158537 
L 170.134053 173.93958 
z
" style="fill:#200143;"/>
    <path clip-path="url(#pf04bab2a21)" d="M 170.430723 184.897786 
L 178.361455 178.049733 
L 191.031582 181.987547 
L 183.178635 188.911464 
z
" style="fill:#753137;"/>
    <path clip-path="url(#pf04bab2a21)" d="M 271.803162 170.57712 
L 273.285119 107.959908 
L 286.748562 111.585513 
L 284.848695 174.43298 
z
" style="fill:#673b1d;"/>
    <path clip-path="url(#pf04bab2a21)" d="M 211.467294 179.100638 
L 218.949524 172.361429 
L 218.829681 127.799962 
L 211.178278 134.2584 
z
" style="fill:#572130;"/>
    <path clip-path="url(#pf04bab2a21)" d="M 284.848695 174.43298 
L 298.036935 178.33102 
L 299.576141 136.607091 
L 286.105445 132.859775 
z
" style="fill:#b13c6c;"/>
    <path clip-path="url(#pf04bab2a21)" d="M 218.949524 172.361429 
L 231.739835 176.23678 
L 231.941551 121.733246 
L 218.803477 118.056505 
z
" style="fill:#cd634f;"/>
    <path clip-path="url(#pf04bab2a21)" d="M 191.031582 181.987547 
L 198.736391 175.194243 
L 198.344841 144.592763 
L 190.517272 151.195083 
z
" style="fill:#450d40;"/>
    <path clip-path="url(#pf04bab2a21)" d="M 284.848695 174.43298 
L 286.182764 130.302092 
L 299.670848 134.039825 
L 298.036935 178.33102 
z
" style="fill:#562030;"/>
    <path clip-path="url(#pf04bab2a21)" d="M 203.841786 185.968896 
L 211.467294 179.100638 
L 224.338378 183.050047 
L 216.794403 189.994506 
z
" style="fill:#808512;"/>
    <path clip-path="url(#pf04bab2a21)" d="M 239.002775 169.551023 
L 239.553392 94.208872 
L 252.890024 97.774018 
L 251.851153 173.395697 
z
" style="fill:#6a5210;"/>
    <path clip-path="url(#pf04bab2a21)" d="M 157.822766 180.928173 
L 170.430723 184.897786 
L 170.134053 173.93958 
L 157.458733 170.008724 
z
" style="fill:#44028e;"/>
    <path clip-path="url(#pf04bab2a21)" d="M 264.839875 177.282368 
L 266.116761 114.265539 
L 273.285119 107.959908 
L 271.803162 170.57712 
z
" style="fill:#d97e3c;"/>
    <path clip-path="url(#pf04bab2a21)" d="M 198.736391 175.194243 
L 211.467294 179.100638 
L 211.178278 134.2584 
L 198.164707 130.514422 
z
" style="fill:#b94565;"/>
    <path clip-path="url(#pf04bab2a21)" d="M 178.361455 178.049733 
L 191.031582 181.987547 
L 190.517272 151.195083 
L 177.655439 147.367741 
z
" style="fill:#911b87;"/>
    <path clip-path="url(#pf04bab2a21)" d="M 237.351973 187.043183 
L 244.670417 180.154631 
L 257.743589 184.115686 
L 250.510457 191.080779 
z
" style="fill:#876815;"/>
    <path clip-path="url(#pf04bab2a21)" d="M 264.839875 177.282368 
L 271.803162 170.57712 
L 273.367198 104.491801 
L 266.187505 110.77421 
z
" style="fill:#684119;"/>
    <path clip-path="url(#pf04bab2a21)" d="M 277.971253 181.211726 
L 279.165192 136.802641 
L 286.182764 130.302092 
L 284.848695 174.43298 
z
" style="fill:#b74367;"/>
    <path clip-path="url(#pf04bab2a21)" d="M 157.822766 180.928173 
L 157.232665 163.227684 
L 169.949811 167.134138 
L 170.430723 184.897786 
z
" style="fill:#2e0046;"/>
    <path clip-path="url(#pf04bab2a21)" d="M 231.739835 176.23678 
L 232.020469 100.409473 
L 239.553392 94.208872 
L 239.002775 169.551023 
z
" style="fill:#e0ae23;"/>
    <path clip-path="url(#pf04bab2a21)" d="M 149.662704 187.831639 
L 157.822766 180.928173 
L 170.430723 184.897786 
L 162.346885 191.878042 
z
" style="fill:#3a005a;"/>
    <path clip-path="url(#pf04bab2a21)" d="M 270.961723 188.120663 
L 277.971253 181.211726 
L 291.24765 185.184478 
L 284.327244 192.170297 
z
" style="fill:#560f52;"/>
    <path clip-path="url(#pf04bab2a21)" d="M 251.851153 173.395697 
L 264.839875 177.282368 
L 266.187505 110.77421 
L 252.761464 107.132159 
z
" style="fill:#dd8a35;"/>
    <path clip-path="url(#pf04bab2a21)" d="M 273.021797 119.086048 
L 286.410937 122.754125 
L 293.317613 116.426533 
L 280.017977 112.828155 
z
" style="fill:#ad4f4a;"/>
    <path clip-path="url(#pf04bab2a21)" d="M 183.178635 188.911464 
L 191.031582 181.987547 
L 203.841786 185.968896 
L 196.068846 192.969946 
z
" style="fill:#875d1a;"/>
    <path clip-path="url(#pf04bab2a21)" d="M 177.655439 147.367741 
L 190.517272 151.195083 
L 198.344841 144.592763 
L 185.56246 140.838173 
z
" style="fill:#7e1875;"/>
    <path clip-path="url(#pf04bab2a21)" d="M 149.662704 187.831639 
L 148.993794 170.021558 
L 157.232665 163.227684 
L 157.822766 180.928173 
z
" style="fill:#610095;"/>
    <path clip-path="url(#pf04bab2a21)" d="M 239.407888 114.118564 
L 252.615454 117.760576 
L 259.848899 111.47796 
L 246.727351 107.905183 
z
" style="fill:#b35942;"/>
    <path clip-path="url(#pf04bab2a21)" d="M 218.949524 172.361429 
L 218.747555 97.26287 
L 232.018805 100.859295 
L 231.739835 176.23678 
z
" style="fill:#6a5111;"/>
    <path clip-path="url(#pf04bab2a21)" d="M 286.105445 132.859775 
L 299.576141 136.607091 
L 306.361053 130.142827 
L 292.981364 126.466761 
z
" style="fill:#9a345e;"/>
    <path clip-path="url(#pf04bab2a21)" d="M 251.851153 173.395697 
L 252.856576 100.208741 
L 266.328337 103.823846 
L 264.839875 177.282368 
z
" style="fill:#6a4d12;"/>
    <path clip-path="url(#pf04bab2a21)" d="M 216.794403 189.994506 
L 224.338378 183.050047 
L 237.351973 187.043183 
L 229.891821 194.06512 
z
" style="fill:#837b14;"/>
    <path clip-path="url(#pf04bab2a21)" d="M 277.971253 181.211726 
L 278.782496 151.037169 
L 292.265384 154.901196 
L 291.24765 185.184478 
z
" style="fill:#440c40;"/>
    <path clip-path="url(#pf04bab2a21)" d="M 178.361455 178.049733 
L 177.233142 129.015613 
L 190.2096 132.774393 
L 191.031582 181.987547 
z
" style="fill:#5b262b;"/>
    <path clip-path="url(#pf04bab2a21)" d="M 277.971253 181.211726 
L 284.848695 174.43298 
L 286.748562 111.585513 
L 279.671711 117.962448 
z
" style="fill:#673b1d;"/>
    <path clip-path="url(#pf04bab2a21)" d="M 211.467294 179.100638 
L 210.98015 103.517975 
L 218.747555 97.26287 
L 218.949524 172.361429 
z
" style="fill:#e0ac23;"/>
    <path clip-path="url(#pf04bab2a21)" d="M 250.510457 191.080779 
L 257.743589 184.115686 
L 270.961723 188.120663 
L 263.816264 195.163579 
z
" style="fill:#6e283e;"/>
    <path clip-path="url(#pf04bab2a21)" d="M 198.164707 130.514422 
L 211.178278 134.2584 
L 218.829681 127.799962 
L 205.898208 124.127353 
z
" style="fill:#a03c58;"/>
    <path clip-path="url(#pf04bab2a21)" d="M 291.24765 185.184478 
L 298.036935 178.33102 
L 299.670848 134.039825 
L 292.745548 140.613621 
z
" style="fill:#562030;"/>
    <path clip-path="url(#pf04bab2a21)" d="M 244.670417 180.154631 
L 245.420746 106.496349 
L 252.856576 100.208741 
L 251.851153 173.395697 
z
" style="fill:#e0a427;"/>
    <path clip-path="url(#pf04bab2a21)" d="M 218.803477 118.056505 
L 231.941551 121.733246 
L 239.39859 115.39081 
L 226.344931 111.784204 
z
" style="fill:#b25644;"/>
    <path clip-path="url(#pf04bab2a21)" d="M 270.961723 188.120663 
L 271.673817 157.757438 
L 278.782496 151.037169 
L 277.971253 181.211726 
z
" style="fill:#8f1988;"/>
    <path clip-path="url(#pf04bab2a21)" d="M 244.670417 180.154631 
L 251.851153 173.395697 
L 252.890024 97.774018 
L 245.445716 104.045068 
z
" style="fill:#6a5210;"/>
    <path clip-path="url(#pf04bab2a21)" d="M 170.430723 184.897786 
L 169.094821 135.552969 
L 177.233142 129.015613 
L 178.361455 178.049733 
z
" style="fill:#c2515c;"/>
    <path clip-path="url(#pf04bab2a21)" d="M 198.736391 175.194243 
L 197.791235 101.325813 
L 210.98943 104.957763 
L 211.467294 179.100638 
z
" style="fill:#6a4f12;"/>
    <path clip-path="url(#pf04bab2a21)" d="M 162.346885 191.878042 
L 170.430723 184.897786 
L 183.178635 188.911464 
L 175.173234 195.969799 
z
" style="fill:#6d2640;"/>
    <path clip-path="url(#pf04bab2a21)" d="M 264.839875 177.282368 
L 266.115333 114.336051 
L 279.669808 118.033233 
L 277.971253 181.211726 
z
" style="fill:#673b1d;"/>
    <path clip-path="url(#pf04bab2a21)" d="M 264.839875 177.282368 
L 277.971253 181.211726 
L 279.671711 117.962448 
L 266.116761 114.265539 
z
" style="fill:#d97e3c;"/>
    <path clip-path="url(#pf04bab2a21)" d="M 277.971253 181.211726 
L 291.24765 185.184478 
L 292.745548 140.613621 
L 279.165192 136.802641 
z
" style="fill:#b74367;"/>
    <path clip-path="url(#pf04bab2a21)" d="M 196.068846 192.969946 
L 203.841786 185.968896 
L 216.794403 189.994506 
L 209.103753 197.073984 
z
" style="fill:#876a15;"/>
    <path clip-path="url(#pf04bab2a21)" d="M 162.346885 191.878042 
L 170.430723 184.897786 
L 169.949811 167.134138 
L 161.788471 174.004261 
z
" style="fill:#2e0046;"/>
    <path clip-path="url(#pf04bab2a21)" d="M 149.662704 187.831639 
L 149.277586 177.577661 
L 162.02539 181.587608 
L 162.346885 191.878042 
z
" style="fill:#1f0143;"/>
    <path clip-path="url(#pf04bab2a21)" d="M 231.739835 176.23678 
L 244.670417 180.154631 
L 245.445716 104.045068 
L 232.020469 100.409473 
z
" style="fill:#e0ae23;"/>
    <path clip-path="url(#pf04bab2a21)" d="M 191.031582 181.987547 
L 189.78984 107.642796 
L 197.791235 101.325813 
L 198.736391 175.194243 
z
" style="fill:#e0a725;"/>
    <path clip-path="url(#pf04bab2a21)" d="M 257.743589 184.115686 
L 258.805939 120.766427 
L 266.115333 114.336051 
L 264.839875 177.282368 
z
" style="fill:#d97e3c;"/>
    <path clip-path="url(#pf04bab2a21)" d="M 229.891821 194.06512 
L 237.351973 187.043183 
L 250.510457 191.080779 
L 243.136481 198.181496 
z
" style="fill:#7d3d2f;"/>
    <path clip-path="url(#pf04bab2a21)" d="M 231.739835 176.23678 
L 232.038902 95.429071 
L 245.496649 99.045019 
L 244.670417 180.154631 
z
" style="fill:#685c0f;"/>
    <path clip-path="url(#pf04bab2a21)" d="M 270.961723 188.120663 
L 271.298438 173.763372 
L 284.762918 177.761791 
L 284.327244 192.170297 
z
" style="fill:#270045;"/>
    <path clip-path="url(#pf04bab2a21)" d="M 148.993794 170.021558 
L 161.788471 174.004261 
L 169.949811 167.134138 
L 157.232665 163.227684 
z
" style="fill:#540081;"/>
    <path clip-path="url(#pf04bab2a21)" d="M 149.662704 187.831639 
L 162.346885 191.878042 
L 161.788471 174.004261 
L 148.993794 170.021558 
z
" style="fill:#610095;"/>
    <path clip-path="url(#pf04bab2a21)" d="M 224.338378 183.050047 
L 231.739835 176.23678 
L 232.018805 100.859295 
L 224.338378 107.18575 
z
" style="fill:#6a5111;"/>
    <path clip-path="url(#pf04bab2a21)" d="M 141.344465 194.868925 
L 140.912277 184.551692 
L 149.277586 177.577661 
L 149.662704 187.831639 
z
" style="fill:#41028d;"/>
    <path clip-path="url(#pf04bab2a21)" d="M 141.344465 194.868925 
L 149.662704 187.831639 
L 162.346885 191.878042 
L 154.105465 198.994368 
z
" style="fill:#270155;"/>
    <path clip-path="url(#pf04bab2a21)" d="M 263.816264 195.163579 
L 270.961723 188.120663 
L 284.327244 192.170297 
L 277.271882 199.292348 
z
" style="fill:#310058;"/>
    <path clip-path="url(#pf04bab2a21)" d="M 257.743589 184.115686 
L 264.839875 177.282368 
L 266.328337 103.823846 
L 258.983416 110.183215 
z
" style="fill:#6a4d12;"/>
    <path clip-path="url(#pf04bab2a21)" d="M 257.743589 184.115686 
L 258.48158 140.108335 
L 271.997569 143.952882 
L 270.961723 188.120663 
z
" style="fill:#561f31;"/>
    <path clip-path="url(#pf04bab2a21)" d="M 224.338378 183.050047 
L 224.338378 101.718349 
L 232.038902 95.429071 
L 231.739835 176.23678 
z
" style="fill:#dcc420;"/>
    <path clip-path="url(#pf04bab2a21)" d="M 284.327244 192.170297 
L 291.24765 185.184478 
L 292.265384 154.901196 
L 285.248661 161.697393 
z
" style="fill:#440c40;"/>
    <path clip-path="url(#pf04bab2a21)" d="M 263.816264 195.163579 
L 264.104158 180.717425 
L 271.298438 173.763372 
L 270.961723 188.120663 
z
" style="fill:#520192;"/>
    <path clip-path="url(#pf04bab2a21)" d="M 183.178635 188.911464 
L 191.031582 181.987547 
L 190.2096 132.774393 
L 182.15284 139.385973 
z
" style="fill:#5b262b;"/>
    <path clip-path="url(#pf04bab2a21)" d="M 175.173234 195.969799 
L 183.178635 188.911464 
L 196.068846 192.969946 
L 188.144156 200.107676 
z
" style="fill:#773435;"/>
    <path clip-path="url(#pf04bab2a21)" d="M 211.467294 179.100638 
L 224.338378 183.050047 
L 224.338378 107.18575 
L 210.98015 103.517975 
z
" style="fill:#e0ac23;"/>
    <path clip-path="url(#pf04bab2a21)" d="M 170.430723 184.897786 
L 169.260934 141.688778 
L 182.280409 145.54499 
L 183.178635 188.911464 
z
" style="fill:#551e32;"/>
    <path clip-path="url(#pf04bab2a21)" d="M 252.761464 107.132159 
L 266.187505 110.77421 
L 273.367198 104.491801 
L 260.030495 100.919723 
z
" style="fill:#c0782e;"/>
    <path clip-path="url(#pf04bab2a21)" d="M 244.670417 180.154631 
L 257.743589 184.115686 
L 258.983416 110.183215 
L 245.420746 106.496349 
z
" style="fill:#e0a427;"/>
    <path clip-path="url(#pf04bab2a21)" d="M 209.103753 197.073984 
L 216.794403 189.994506 
L 229.891821 194.06512 
L 222.285805 201.224351 
z
" style="fill:#80442a;"/>
    <path clip-path="url(#pf04bab2a21)" d="M 250.510457 191.080779 
L 251.094352 146.795029 
L 258.48158 140.108335 
L 257.743589 184.115686 
z
" style="fill:#b64267;"/>
    <path clip-path="url(#pf04bab2a21)" d="M 270.961723 188.120663 
L 284.327244 192.170297 
L 285.248661 161.697393 
L 271.673817 157.757438 
z
" style="fill:#8f1988;"/>
    <path clip-path="url(#pf04bab2a21)" d="M 279.165192 136.802641 
L 292.745548 140.613621 
L 299.670848 134.039825 
L 286.182764 130.302092 
z
" style="fill:#9f3a59;"/>
    <path clip-path="url(#pf04bab2a21)" d="M 244.670417 180.154631 
L 245.441883 104.421344 
L 259.018351 108.10005 
L 257.743589 184.115686 
z
" style="fill:#6a5111;"/>
    <path clip-path="url(#pf04bab2a21)" d="M 170.430723 184.897786 
L 183.178635 188.911464 
L 182.15284 139.385973 
L 169.094821 135.552969 
z
" style="fill:#c2515c;"/>
    <path clip-path="url(#pf04bab2a21)" d="M 203.841786 185.968896 
L 211.467294 179.100638 
L 210.98943 104.957763 
L 203.073251 111.347053 
z
" style="fill:#6a4f12;"/>
    <path clip-path="url(#pf04bab2a21)" d="M 270.961723 188.120663 
L 277.971253 181.211726 
L 279.669808 118.033233 
L 272.452919 124.53704 
z
" style="fill:#673b1d;"/>
    <path clip-path="url(#pf04bab2a21)" d="M 162.346885 191.878042 
L 160.988409 148.395778 
L 169.260934 141.688778 
L 170.430723 184.897786 
z
" style="fill:#b43f6a;"/>
    <path clip-path="url(#pf04bab2a21)" d="M 250.510457 191.080779 
L 250.757896 172.313622 
L 264.191611 176.329183 
L 263.816264 195.163579 
z
" style="fill:#2f0046;"/>
    <path clip-path="url(#pf04bab2a21)" d="M 243.136481 198.181496 
L 250.510457 191.080779 
L 263.816264 195.163579 
L 256.530882 202.34441 
z
" style="fill:#3c005a;"/>
    <path clip-path="url(#pf04bab2a21)" d="M 211.467294 179.100638 
L 210.906818 92.140114 
L 224.338378 95.762755 
L 224.338378 183.050047 
z
" style="fill:#64680e;"/>
    <path clip-path="url(#pf04bab2a21)" d="M 191.031582 181.987547 
L 189.84284 110.815975 
L 203.10606 114.532687 
L 203.841786 185.968896 
z
" style="fill:#694914;"/>
    <path clip-path="url(#pf04bab2a21)" d="M 140.912277 184.551692 
L 153.737661 188.640378 
L 162.02539 181.587608 
L 149.277586 177.577661 
z
" style="fill:#38027b;"/>
    <path clip-path="url(#pf04bab2a21)" d="M 154.105465 198.994368 
L 162.346885 191.878042 
L 162.02539 181.587608 
L 153.737661 188.640378 
z
" style="fill:#1f0143;"/>
    <path clip-path="url(#pf04bab2a21)" d="M 237.351973 187.043183 
L 237.850668 110.819861 
L 245.441883 104.421344 
L 244.670417 180.154631 
z
" style="fill:#e0ac23;"/>
    <path clip-path="url(#pf04bab2a21)" d="M 191.031582 181.987547 
L 203.841786 185.968896 
L 203.073251 111.347053 
L 189.78984 107.642796 
z
" style="fill:#e0a725;"/>
    <path clip-path="url(#pf04bab2a21)" d="M 154.105465 198.994368 
L 162.346885 191.878042 
L 175.173234 195.969799 
L 167.010898 203.166503 
z
" style="fill:#3f015a;"/>
    <path clip-path="url(#pf04bab2a21)" d="M 162.346885 191.878042 
L 161.72335 171.919853 
L 174.675912 175.940018 
L 175.173234 195.969799 
z
" style="fill:#310046;"/>
    <path clip-path="url(#pf04bab2a21)" d="M 257.743589 184.115686 
L 270.961723 188.120663 
L 272.452919 124.53704 
L 258.805939 120.766427 
z
" style="fill:#d97e3c;"/>
    <path clip-path="url(#pf04bab2a21)" d="M 271.673817 157.757438 
L 285.248661 161.697393 
L 292.265384 154.901196 
L 278.782496 151.037169 
z
" style="fill:#7c1676;"/>
    <path clip-path="url(#pf04bab2a21)" d="M 243.136481 198.181496 
L 243.315952 179.297671 
L 250.757896 172.313622 
L 250.510457 191.080779 
z
" style="fill:#640095;"/>
    <path clip-path="url(#pf04bab2a21)" d="M 203.841786 185.968896 
L 202.940333 98.441219 
L 210.906818 92.140114 
L 211.467294 179.100638 
z
" style="fill:#d4dc1e;"/>
    <path clip-path="url(#pf04bab2a21)" d="M 237.351973 187.043183 
L 244.670417 180.154631 
L 245.496649 99.045019 
L 237.886085 105.406639 
z
" style="fill:#685c0f;"/>
    <path clip-path="url(#pf04bab2a21)" d="M 266.116761 114.265539 
L 279.671711 117.962448 
L 286.748562 111.585513 
L 273.285119 107.959908 
z
" style="fill:#bd6d34;"/>
    <path clip-path="url(#pf04bab2a21)" d="M 277.271882 199.292348 
L 284.327244 192.170297 
L 284.762918 177.761791 
L 277.660091 184.794552 
z
" style="fill:#270045;"/>
    <path clip-path="url(#pf04bab2a21)" d="M 183.178635 188.911464 
L 181.694984 117.280608 
L 189.84284 110.815975 
L 191.031582 181.987547 
z
" style="fill:#e09b2b;"/>
    <path clip-path="url(#pf04bab2a21)" d="M 263.816264 195.163579 
L 263.945415 188.682924 
L 277.446032 192.788673 
L 277.271882 199.292348 
z
" style="fill:#16023f;"/>
    <path clip-path="url(#pf04bab2a21)" d="M 188.144156 200.107676 
L 196.068846 192.969946 
L 209.103753 197.073984 
L 201.262108 204.292457 
z
" style="fill:#722d3b;"/>
    <path clip-path="url(#pf04bab2a21)" d="M 141.344465 194.868925 
L 154.105465 198.994368 
L 153.737661 188.640378 
L 140.912277 184.551692 
z
" style="fill:#41028d;"/>
    <path clip-path="url(#pf04bab2a21)" d="M 264.104158 180.717425 
L 277.660091 184.794552 
L 284.762918 177.761791 
L 271.298438 173.763372 
z
" style="fill:#47017f;"/>
    <path clip-path="url(#pf04bab2a21)" d="M 154.105465 198.994368 
L 153.39208 178.911959 
L 161.72335 171.919853 
L 162.346885 191.878042 
z
" style="fill:#690195;"/>
    <path clip-path="url(#pf04bab2a21)" d="M 237.351973 187.043183 
L 237.716464 131.332384 
L 251.247693 135.164843 
L 250.510457 191.080779 
z
" style="fill:#613024;"/>
    <path clip-path="url(#pf04bab2a21)" d="M 222.285805 201.224351 
L 229.891821 194.06512 
L 243.136481 198.181496 
L 235.617509 205.421836 
z
" style="fill:#430259;"/>
    <path clip-path="url(#pf04bab2a21)" d="M 263.816264 195.163579 
L 270.961723 188.120663 
L 271.997569 143.952882 
L 264.702051 150.715962 
z
" style="fill:#561f31;"/>
    <path clip-path="url(#pf04bab2a21)" d="M 224.338378 183.050047 
L 237.351973 187.043183 
L 237.886085 105.406639 
L 224.338378 101.718349 
z
" style="fill:#dcc420;"/>
    <path clip-path="url(#pf04bab2a21)" d="M 263.816264 195.163579 
L 277.271882 199.292348 
L 277.660091 184.794552 
L 264.104158 180.717425 
z
" style="fill:#520192;"/>
    <path clip-path="url(#pf04bab2a21)" d="M 256.530882 202.34441 
L 256.637234 195.823815 
L 263.945415 188.682924 
L 263.816264 195.163579 
z
" style="fill:#2f0486;"/>
    <path clip-path="url(#pf04bab2a21)" d="M 224.338378 183.050047 
L 224.338378 99.989229 
L 237.897443 103.670638 
L 237.351973 187.043183 
z
" style="fill:#676010;"/>
    <path clip-path="url(#pf04bab2a21)" d="M 229.891821 194.06512 
L 229.953017 172.223864 
L 243.344805 176.261726 
L 243.136481 198.181496 
z
" style="fill:#350146;"/>
    <path clip-path="url(#pf04bab2a21)" d="M 183.178635 188.911464 
L 182.119151 137.759448 
L 195.337 141.630111 
L 196.068846 192.969946 
z
" style="fill:#5d2929;"/>
    <path clip-path="url(#pf04bab2a21)" d="M 175.173234 195.969799 
L 183.178635 188.911464 
L 182.280409 145.54499 
L 174.089663 152.328662 
z
" style="fill:#551e32;"/>
    <path clip-path="url(#pf04bab2a21)" d="M 229.891821 194.06512 
L 230.048913 137.998328 
L 237.716464 131.332384 
L 237.351973 187.043183 
z
" style="fill:#ce654d;"/>
    <path clip-path="url(#pf04bab2a21)" d="M 256.530882 202.34441 
L 263.816264 195.163579 
L 277.271882 199.292348 
L 270.077576 206.554656 
z
" style="fill:#1c0251;"/>
    <path clip-path="url(#pf04bab2a21)" d="M 250.510457 191.080779 
L 263.816264 195.163579 
L 264.702051 150.715962 
L 251.094352 146.795029 
z
" style="fill:#b64267;"/>
    <path clip-path="url(#pf04bab2a21)" d="M 169.094821 135.552969 
L 182.15284 139.385973 
L 190.2096 132.774393 
L 177.233142 129.015613 
z
" style="fill:#a84650;"/>
    <path clip-path="url(#pf04bab2a21)" d="M 250.510457 191.080779 
L 257.743589 184.115686 
L 259.018351 108.10005 
L 251.519199 114.572397 
z
" style="fill:#6a5111;"/>
    <path clip-path="url(#pf04bab2a21)" d="M 167.010898 203.166503 
L 175.173234 195.969799 
L 188.144156 200.107676 
L 180.063228 207.386128 
z
" style="fill:#42015a;"/>
    <path clip-path="url(#pf04bab2a21)" d="M 216.794403 189.994506 
L 216.476853 106.392655 
L 224.338378 99.989229 
L 224.338378 183.050047 
z
" style="fill:#dacb21;"/>
    <path clip-path="url(#pf04bab2a21)" d="M 222.285805 201.224351 
L 222.262963 179.246866 
L 229.953017 172.223864 
L 229.891821 194.06512 
z
" style="fill:#6f0394;"/>
    <path clip-path="url(#pf04bab2a21)" d="M 243.136481 198.181496 
L 243.211318 190.307185 
L 256.65977 194.442076 
L 256.530882 202.34441 
z
" style="fill:#190241;"/>
    <path clip-path="url(#pf04bab2a21)" d="M 232.020469 100.409473 
L 245.445716 104.045068 
L 252.890024 97.774018 
L 239.553392 94.208872 
z
" style="fill:#c2971e;"/>
    <path clip-path="url(#pf04bab2a21)" d="M 175.173234 195.969799 
L 173.895082 144.491853 
L 182.119151 137.759448 
L 183.178635 188.911464 
z
" style="fill:#c55658;"/>
    <path clip-path="url(#pf04bab2a21)" d="M 175.173234 195.969799 
L 174.652824 175.010135 
L 187.75886 179.072679 
L 188.144156 200.107676 
z
" style="fill:#330146;"/>
    <path clip-path="url(#pf04bab2a21)" d="M 162.346885 191.878042 
L 175.173234 195.969799 
L 174.089663 152.328662 
L 160.988409 148.395778 
z
" style="fill:#b43f6a;"/>
    <path clip-path="url(#pf04bab2a21)" d="M 203.841786 185.968896 
L 203.051931 109.277002 
L 216.502011 113.015818 
L 216.794403 189.994506 
z
" style="fill:#695310;"/>
    <path clip-path="url(#pf04bab2a21)" d="M 256.530882 202.34441 
L 263.816264 195.163579 
L 264.191611 176.329183 
L 256.839986 183.392784 
z
" style="fill:#2f0046;"/>
    <path clip-path="url(#pf04bab2a21)" d="M 216.794403 189.994506 
L 224.338378 183.050047 
L 224.338378 95.762755 
L 216.460688 102.136855 
z
" style="fill:#64680e;"/>
    <path clip-path="url(#pf04bab2a21)" d="M 196.068846 192.969946 
L 203.841786 185.968896 
L 203.10606 114.532687 
L 195.043945 121.071942 
z
" style="fill:#694914;"/>
    <path clip-path="url(#pf04bab2a21)" d="M 201.262108 204.292457 
L 209.103753 197.073984 
L 222.285805 201.224351 
L 214.529606 208.524945 
z
" style="fill:#43015a;"/>
    <path clip-path="url(#pf04bab2a21)" d="M 237.351973 187.043183 
L 250.510457 191.080779 
L 251.519199 114.572397 
L 237.850668 110.819861 
z
" style="fill:#e0ac23;"/>
    <path clip-path="url(#pf04bab2a21)" d="M 216.794403 189.994506 
L 216.56705 130.13891 
L 230.060149 133.988194 
L 229.891821 194.06512 
z
" style="fill:#643520;"/>
    <path clip-path="url(#pf04bab2a21)" d="M 209.103753 197.073984 
L 208.939085 175.683045 
L 222.263493 179.756479 
L 222.285805 201.224351 
z
" style="fill:#340146;"/>
    <path clip-path="url(#pf04bab2a21)" d="M 256.637234 195.823815 
L 270.229543 200.010858 
L 277.446032 192.788673 
L 263.945415 188.682924 
z
" style="fill:#290375;"/>
    <path clip-path="url(#pf04bab2a21)" d="M 235.617509 205.421836 
L 235.662855 197.498905 
L 243.211318 190.307185 
L 243.136481 198.181496 
z
" style="fill:#350389;"/>
    <path clip-path="url(#pf04bab2a21)" d="M 167.010898 203.166503 
L 175.173234 195.969799 
L 174.675912 175.940018 
L 166.425269 183.011905 
z
" style="fill:#310046;"/>
    <path clip-path="url(#pf04bab2a21)" d="M 167.010898 203.166503 
L 166.398078 182.07613 
L 174.652824 175.010135 
L 175.173234 195.969799 
z
" style="fill:#6d0294;"/>
    <path clip-path="url(#pf04bab2a21)" d="M 196.068846 192.969946 
L 194.968513 115.78031 
L 203.051931 109.277002 
L 203.841786 185.968896 
z
" style="fill:#e0af22;"/>
    <path clip-path="url(#pf04bab2a21)" d="M 243.315952 179.297671 
L 256.839986 183.392784 
L 264.191611 176.329183 
L 250.757896 172.313622 
z
" style="fill:#560081;"/>
    <path clip-path="url(#pf04bab2a21)" d="M 196.068846 192.969946 
L 195.397331 145.862395 
L 208.73979 149.793768 
L 209.103753 197.073984 
z
" style="fill:#59232e;"/>
    <path clip-path="url(#pf04bab2a21)" d="M 243.136481 198.181496 
L 256.530882 202.34441 
L 256.839986 183.392784 
L 243.315952 179.297671 
z
" style="fill:#640095;"/>
    <path clip-path="url(#pf04bab2a21)" d="M 235.617509 205.421836 
L 243.136481 198.181496 
L 256.530882 202.34441 
L 249.101427 209.667246 
z
" style="fill:#200253;"/>
    <path clip-path="url(#pf04bab2a21)" d="M 203.841786 185.968896 
L 216.794403 189.994506 
L 216.460688 102.136855 
L 202.940333 98.441219 
z
" style="fill:#d4dc1e;"/>
    <path clip-path="url(#pf04bab2a21)" d="M 183.178635 188.911464 
L 196.068846 192.969946 
L 195.043945 121.071942 
L 181.694984 117.280608 
z
" style="fill:#e09b2b;"/>
    <path clip-path="url(#pf04bab2a21)" d="M 270.077576 206.554656 
L 277.271882 199.292348 
L 277.446032 192.788673 
L 270.229543 200.010858 
z
" style="fill:#16023f;"/>
    <path clip-path="url(#pf04bab2a21)" d="M 188.144156 200.107676 
L 187.923061 188.037118 
L 201.120341 192.178775 
L 201.262108 204.292457 
z
" style="fill:#220144;"/>
    <path clip-path="url(#pf04bab2a21)" d="M 209.103753 197.073984 
L 208.640028 136.834293 
L 216.56705 130.13891 
L 216.794403 189.994506 
z
" style="fill:#d47145;"/>
    <path clip-path="url(#pf04bab2a21)" d="M 201.262108 204.292457 
L 201.010207 182.768033 
L 208.939085 175.683045 
L 209.103753 197.073984 
z
" style="fill:#6e0294;"/>
    <path clip-path="url(#pf04bab2a21)" d="M 222.285805 201.224351 
L 222.278066 193.777965 
L 235.66028 197.948938 
L 235.617509 205.421836 
z
" style="fill:#180240;"/>
    <path clip-path="url(#pf04bab2a21)" d="M 210.98015 103.517975 
L 224.338378 107.18575 
L 232.018805 100.859295 
L 218.747555 97.26287 
z
" style="fill:#c2961f;"/>
    <path clip-path="url(#pf04bab2a21)" d="M 154.105465 198.994368 
L 167.010898 203.166503 
L 166.425269 183.011905 
L 153.39208 178.911959 
z
" style="fill:#690195;"/>
    <path clip-path="url(#pf04bab2a21)" d="M 153.39208 178.911959 
L 166.425269 183.011905 
L 174.675912 175.940018 
L 161.72335 171.919853 
z
" style="fill:#5b0181;"/>
    <path clip-path="url(#pf04bab2a21)" d="M 243.136481 198.181496 
L 250.510457 191.080779 
L 251.247693 135.164843 
L 243.671304 141.907697 
z
" style="fill:#613024;"/>
    <path clip-path="url(#pf04bab2a21)" d="M 256.530882 202.34441 
L 256.586478 198.935735 
L 270.157017 203.133882 
L 270.077576 206.554656 
z
" style="fill:#0f023c;"/>
    <path clip-path="url(#pf04bab2a21)" d="M 245.420746 106.496349 
L 258.983416 110.183215 
L 266.328337 103.823846 
L 252.856576 100.208741 
z
" style="fill:#c28e22;"/>
    <path clip-path="url(#pf04bab2a21)" d="M 188.144156 200.107676 
L 187.275804 152.7005 
L 195.397331 145.862395 
L 196.068846 192.969946 
z
" style="fill:#bc4a61;"/>
    <path clip-path="url(#pf04bab2a21)" d="M 258.805939 120.766427 
L 272.452919 124.53704 
L 279.669808 118.033233 
L 266.115333 114.336051 
z
" style="fill:#bd6d34;"/>
    <path clip-path="url(#pf04bab2a21)" d="M 256.530882 202.34441 
L 270.077576 206.554656 
L 270.229543 200.010858 
L 256.637234 195.823815 
z
" style="fill:#2f0486;"/>
    <path clip-path="url(#pf04bab2a21)" d="M 251.094352 146.795029 
L 264.702051 150.715962 
L 271.997569 143.952882 
L 258.48158 140.108335 
z
" style="fill:#9e395a;"/>
    <path clip-path="url(#pf04bab2a21)" d="M 180.063228 207.386128 
L 188.144156 200.107676 
L 201.262108 204.292457 
L 193.264978 211.654059 
z
" style="fill:#2b0157;"/>
    <path clip-path="url(#pf04bab2a21)" d="M 229.891821 194.06512 
L 237.351973 187.043183 
L 237.897443 103.670638 
L 230.126945 110.148522 
z
" style="fill:#676010;"/>
    <path clip-path="url(#pf04bab2a21)" d="M 235.617509 205.421836 
L 243.136481 198.181496 
L 243.344805 176.261726 
L 235.743749 183.365183 
z
" style="fill:#350146;"/>
    <path clip-path="url(#pf04bab2a21)" d="M 180.063228 207.386128 
L 179.790087 195.240751 
L 187.923061 188.037118 
L 188.144156 200.107676 
z
" style="fill:#480290;"/>
    <path clip-path="url(#pf04bab2a21)" d="M 188.144156 200.107676 
L 196.068846 192.969946 
L 195.337 141.630111 
L 187.197769 148.440221 
z
" style="fill:#5d2929;"/>
    <path clip-path="url(#pf04bab2a21)" d="M 214.529606 208.524945 
L 214.492255 201.032563 
L 222.278066 193.777965 
L 222.285805 201.224351 
z
" style="fill:#330488;"/>
    <path clip-path="url(#pf04bab2a21)" d="M 160.988409 148.395778 
L 174.089663 152.328662 
L 182.280409 145.54499 
L 169.260934 141.688778 
z
" style="fill:#9c375c;"/>
    <path clip-path="url(#pf04bab2a21)" d="M 229.891821 194.06512 
L 243.136481 198.181496 
L 243.671304 141.907697 
L 230.048913 137.998328 
z
" style="fill:#ce654d;"/>
    <path clip-path="url(#pf04bab2a21)" d="M 249.101427 209.667246 
L 249.144616 206.23758 
L 256.586478 198.935735 
L 256.530882 202.34441 
z
" style="fill:#200580;"/>
    <path clip-path="url(#pf04bab2a21)" d="M 235.662855 197.498905 
L 249.201554 201.716068 
L 256.65977 194.442076 
L 243.211318 190.307185 
z
" style="fill:#2e0377;"/>
    <path clip-path="url(#pf04bab2a21)" d="M 214.529606 208.524945 
L 222.285805 201.224351 
L 235.617509 205.421836 
L 227.94922 212.80596 
z
" style="fill:#1f0252;"/>
    <path clip-path="url(#pf04bab2a21)" d="M 189.78984 107.642796 
L 203.073251 111.347053 
L 210.98943 104.957763 
L 197.791235 101.325813 
z
" style="fill:#c29121;"/>
    <path clip-path="url(#pf04bab2a21)" d="M 201.262108 204.292457 
L 201.206457 199.537196 
L 214.505816 203.752778 
L 214.529606 208.524945 
z
" style="fill:#12023e;"/>
    <path clip-path="url(#pf04bab2a21)" d="M 216.794403 189.994506 
L 229.891821 194.06512 
L 230.126945 110.148522 
L 216.476853 106.392655 
z
" style="fill:#dacb21;"/>
    <path clip-path="url(#pf04bab2a21)" d="M 222.285805 201.224351 
L 235.617509 205.421836 
L 235.743749 183.365183 
L 222.262963 179.246866 
z
" style="fill:#6f0394;"/>
    <path clip-path="url(#pf04bab2a21)" d="M 249.101427 209.667246 
L 256.530882 202.34441 
L 256.65977 194.442076 
L 249.201554 201.716068 
z
" style="fill:#190241;"/>
    <path clip-path="url(#pf04bab2a21)" d="M 175.173234 195.969799 
L 188.144156 200.107676 
L 187.197769 148.440221 
L 173.895082 144.491853 
z
" style="fill:#c55658;"/>
    <path clip-path="url(#pf04bab2a21)" d="M 180.063228 207.386128 
L 188.144156 200.107676 
L 187.75886 179.072679 
L 179.587213 186.219799 
z
" style="fill:#330146;"/>
    <path clip-path="url(#pf04bab2a21)" d="M 209.103753 197.073984 
L 216.794403 189.994506 
L 216.502011 113.015818 
L 208.507318 119.594825 
z
" style="fill:#695310;"/>
    <path clip-path="url(#pf04bab2a21)" d="M 222.262963 179.246866 
L 235.743749 183.365183 
L 243.344805 176.261726 
L 229.953017 172.223864 
z
" style="fill:#610281;"/>
    <path clip-path="url(#pf04bab2a21)" d="M 249.101427 209.667246 
L 256.530882 202.34441 
L 270.077576 206.554656 
L 262.740181 213.961405 
z
" style="fill:#13034d;"/>
    <path clip-path="url(#pf04bab2a21)" d="M 235.617509 205.421836 
L 235.637638 201.904866 
L 249.145873 206.137782 
L 249.101427 209.667246 
z
" style="fill:#0f023c;"/>
    <path clip-path="url(#pf04bab2a21)" d="M 222.285805 201.224351 
L 229.891821 194.06512 
L 230.060149 133.988194 
L 222.222964 140.761308 
z
" style="fill:#643520;"/>
    <path clip-path="url(#pf04bab2a21)" d="M 193.264978 211.654059 
L 193.189297 206.869469 
L 201.206457 199.537196 
L 201.262108 204.292457 
z
" style="fill:#270483;"/>
    <path clip-path="url(#pf04bab2a21)" d="M 214.529606 208.524945 
L 222.285805 201.224351 
L 222.263493 179.756479 
L 214.421916 186.922953 
z
" style="fill:#340146;"/>
    <path clip-path="url(#pf04bab2a21)" d="M 235.617509 205.421836 
L 249.101427 209.667246 
L 249.201554 201.716068 
L 235.662855 197.498905 
z
" style="fill:#350389;"/>
    <path clip-path="url(#pf04bab2a21)" d="M 167.010898 203.166503 
L 180.063228 207.386128 
L 179.587213 186.219799 
L 166.398078 182.07613 
z
" style="fill:#6d0294;"/>
    <path clip-path="url(#pf04bab2a21)" d="M 196.068846 192.969946 
L 209.103753 197.073984 
L 208.507318 119.594825 
L 194.968513 115.78031 
z
" style="fill:#e0af22;"/>
    <path clip-path="url(#pf04bab2a21)" d="M 249.144616 206.23758 
L 262.807542 210.519546 
L 270.157017 203.133882 
L 256.586478 198.935735 
z
" style="fill:#1b046f;"/>
    <path clip-path="url(#pf04bab2a21)" d="M 166.398078 182.07613 
L 179.587213 186.219799 
L 187.75886 179.072679 
L 174.652824 175.010135 
z
" style="fill:#5e0281;"/>
    <path clip-path="url(#pf04bab2a21)" d="M 201.262108 204.292457 
L 209.103753 197.073984 
L 208.73979 149.793768 
L 200.705261 156.71109 
z
" style="fill:#59232e;"/>
    <path clip-path="url(#pf04bab2a21)" d="M 227.94922 212.80596 
L 227.955728 209.267315 
L 235.637638 201.904866 
L 235.617509 205.421836 
z
" style="fill:#200580;"/>
    <path clip-path="url(#pf04bab2a21)" d="M 214.492255 201.032563 
L 227.963049 205.286857 
L 235.66028 197.948938 
L 222.278066 193.777965 
z
" style="fill:#2d0376;"/>
    <path clip-path="url(#pf04bab2a21)" d="M 193.264978 211.654059 
L 201.262108 204.292457 
L 214.529606 208.524945 
L 206.61873 215.971129 
z
" style="fill:#17034f;"/>
    <path clip-path="url(#pf04bab2a21)" d="M 193.264978 211.654059 
L 201.262108 204.292457 
L 201.120341 192.178775 
L 193.072177 199.465213 
z
" style="fill:#220144;"/>
    <path clip-path="url(#pf04bab2a21)" d="M 209.103753 197.073984 
L 222.285805 201.224351 
L 222.222964 140.761308 
L 208.640028 136.834293 
z
" style="fill:#d47145;"/>
    <path clip-path="url(#pf04bab2a21)" d="M 179.790087 195.240751 
L 193.072177 199.465213 
L 201.120341 192.178775 
L 187.923061 188.037118 
z
" style="fill:#3e017d;"/>
    <path clip-path="url(#pf04bab2a21)" d="M 201.262108 204.292457 
L 214.529606 208.524945 
L 214.421916 186.922953 
L 201.010207 182.768033 
z
" style="fill:#6e0294;"/>
    <path clip-path="url(#pf04bab2a21)" d="M 227.94922 212.80596 
L 235.617509 205.421836 
L 235.66028 197.948938 
L 227.963049 205.286857 
z
" style="fill:#180240;"/>
    <path clip-path="url(#pf04bab2a21)" d="M 201.010207 182.768033 
L 214.421916 186.922953 
L 222.263493 179.756479 
L 208.939085 175.683045 
z
" style="fill:#600281;"/>
    <path clip-path="url(#pf04bab2a21)" d="M 262.740181 213.961405 
L 270.077576 206.554656 
L 270.157017 203.133882 
L 262.807542 210.519546 
z
" style="fill:#0f023c;"/>
    <path clip-path="url(#pf04bab2a21)" d="M 224.338378 101.718349 
L 237.886085 105.406639 
L 245.496649 99.045019 
L 232.038902 95.429071 
z
" style="fill:#bfaa1c;"/>
    <path clip-path="url(#pf04bab2a21)" d="M 188.144156 200.107676 
L 201.262108 204.292457 
L 200.705261 156.71109 
L 187.275804 152.7005 
z
" style="fill:#bc4a61;"/>
    <path clip-path="url(#pf04bab2a21)" d="M 214.529606 208.524945 
L 214.517617 206.119976 
L 227.953659 210.39245 
L 227.94922 212.80596 
z
" style="fill:#0c033b;"/>
    <path clip-path="url(#pf04bab2a21)" d="M 227.94922 212.80596 
L 235.617509 205.421836 
L 249.101427 209.667246 
L 241.523583 217.136342 
z
" style="fill:#13034d;"/>
    <path clip-path="url(#pf04bab2a21)" d="M 180.063228 207.386128 
L 193.264978 211.654059 
L 193.072177 199.465213 
L 179.790087 195.240751 
z
" style="fill:#480290;"/>
    <path clip-path="url(#pf04bab2a21)" d="M 193.189297 206.869469 
L 206.575323 211.169503 
L 214.505816 203.752778 
L 201.206457 199.537196 
z
" style="fill:#220472;"/>
    <path clip-path="url(#pf04bab2a21)" d="M 214.529606 208.524945 
L 227.94922 212.80596 
L 227.963049 205.286857 
L 214.492255 201.032563 
z
" style="fill:#330488;"/>
    <path clip-path="url(#pf04bab2a21)" d="M 249.101427 209.667246 
L 249.125662 207.742713 
L 262.77798 212.030039 
L 262.740181 213.961405 
z
" style="fill:#0a033a;"/>
    <path clip-path="url(#pf04bab2a21)" d="M 249.101427 209.667246 
L 262.740181 213.961405 
L 262.807542 210.519546 
L 249.144616 206.23758 
z
" style="fill:#200580;"/>
    <path clip-path="url(#pf04bab2a21)" d="M 227.955728 209.267315 
L 241.554736 213.585107 
L 249.145873 206.137782 
L 235.637638 201.904866 
z
" style="fill:#1b046f;"/>
    <path clip-path="url(#pf04bab2a21)" d="M 206.61873 215.971129 
L 206.596855 213.551343 
L 214.517617 206.119976 
L 214.529606 208.524945 
z
" style="fill:#1a057d;"/>
    <path clip-path="url(#pf04bab2a21)" d="M 206.61873 215.971129 
L 214.529606 208.524945 
L 214.505816 203.752778 
L 206.575323 211.169503 
z
" style="fill:#12023e;"/>
    <path clip-path="url(#pf04bab2a21)" d="M 230.048913 137.998328 
L 243.671304 141.907697 
L 251.247693 135.164843 
L 237.716464 131.332384 
z
" style="fill:#b35843;"/>
    <path clip-path="url(#pf04bab2a21)" d="M 237.850668 110.819861 
L 251.519199 114.572397 
L 259.018351 108.10005 
L 245.441883 104.421344 
z
" style="fill:#c2961f;"/>
    <path clip-path="url(#pf04bab2a21)" d="M 173.895082 144.491853 
L 187.197769 148.440221 
L 195.337 141.630111 
L 182.119151 137.759448 
z
" style="fill:#ab4b4c;"/>
    <path clip-path="url(#pf04bab2a21)" d="M 181.694984 117.280608 
L 195.043945 121.071942 
L 203.10606 114.532687 
L 189.84284 110.815975 
z
" style="fill:#c28626;"/>
    <path clip-path="url(#pf04bab2a21)" d="M 241.523583 217.136342 
L 241.54057 215.199953 
L 249.125662 207.742713 
L 249.101427 209.667246 
z
" style="fill:#16067b;"/>
    <path clip-path="url(#pf04bab2a21)" d="M 241.523583 217.136342 
L 249.101427 209.667246 
L 249.145873 206.137782 
L 241.554736 213.585107 
z
" style="fill:#0f023c;"/>
    <path clip-path="url(#pf04bab2a21)" d="M 206.61873 215.971129 
L 214.529606 208.524945 
L 227.94922 212.80596 
L 220.127123 220.338193 
z
" style="fill:#10034c;"/>
    <path clip-path="url(#pf04bab2a21)" d="M 193.264978 211.654059 
L 206.61873 215.971129 
L 206.575323 211.169503 
L 193.189297 206.869469 
z
" style="fill:#270483;"/>
    <path clip-path="url(#pf04bab2a21)" d="M 206.596855 213.551343 
L 220.121894 217.909801 
L 227.953659 210.39245 
L 214.517617 206.119976 
z
" style="fill:#17056d;"/>
    <path clip-path="url(#pf04bab2a21)" d="M 227.94922 212.80596 
L 227.95282 210.848704 
L 241.540814 215.172131 
L 241.523583 217.136342 
z
" style="fill:#0b033b;"/>
    <path clip-path="url(#pf04bab2a21)" d="M 241.523583 217.136342 
L 249.101427 209.667246 
L 262.740181 213.961405 
L 255.255385 221.516949 
z
" style="fill:#0d034a;"/>
    <path clip-path="url(#pf04bab2a21)" d="M 227.94922 212.80596 
L 241.523583 217.136342 
L 241.554736 213.585107 
L 227.955728 209.267315 
z
" style="fill:#200580;"/>
    <path clip-path="url(#pf04bab2a21)" d="M 202.940333 98.441219 
L 216.460688 102.136855 
L 224.338378 95.762755 
L 210.906818 92.140114 
z
" style="fill:#b8bf1a;"/>
    <path clip-path="url(#pf04bab2a21)" d="M 187.275804 152.7005 
L 200.705261 156.71109 
L 208.73979 149.793768 
L 195.397331 145.862395 
z
" style="fill:#a44054;"/>
    <path clip-path="url(#pf04bab2a21)" d="M 241.54057 215.199953 
L 255.286123 219.573675 
L 262.77798 212.030039 
L 249.125662 207.742713 
z
" style="fill:#13056b;"/>
    <path clip-path="url(#pf04bab2a21)" d="M 220.127123 220.338193 
L 220.122882 218.368873 
L 227.95282 210.848704 
L 227.94922 212.80596 
z
" style="fill:#18057c;"/>
    <path clip-path="url(#pf04bab2a21)" d="M 220.127123 220.338193 
L 227.94922 212.80596 
L 227.953659 210.39245 
L 220.121894 217.909801 
z
" style="fill:#0c033b;"/>
    <path clip-path="url(#pf04bab2a21)" d="M 208.640028 136.834293 
L 222.222964 140.761308 
L 230.060149 133.988194 
L 216.56705 130.13891 
z
" style="fill:#b8623c;"/>
    <path clip-path="url(#pf04bab2a21)" d="M 255.255385 221.516949 
L 262.740181 213.961405 
L 262.77798 212.030039 
L 255.286123 219.573675 
z
" style="fill:#0a033a;"/>
    <path clip-path="url(#pf04bab2a21)" d="M 206.61873 215.971129 
L 220.127123 220.338193 
L 220.121894 217.909801 
L 206.596855 213.551343 
z
" style="fill:#1a057d;"/>
    <path clip-path="url(#pf04bab2a21)" d="M 220.127123 220.338193 
L 227.94922 212.80596 
L 241.523583 217.136342 
L 233.792858 224.756123 
z
" style="fill:#0e034b;"/>
    <path clip-path="url(#pf04bab2a21)" d="M 216.476853 106.392655 
L 230.126945 110.148522 
L 237.897443 103.670638 
L 224.338378 99.989229 
z
" style="fill:#bdb01d;"/>
    <path clip-path="url(#pf04bab2a21)" d="M 220.122882 218.368873 
L 233.802434 222.779797 
L 241.540814 215.172131 
L 227.95282 210.848704 
z
" style="fill:#15056c;"/>
    <path clip-path="url(#pf04bab2a21)" d="M 241.523583 217.136342 
L 241.533139 216.046983 
L 255.272677 220.423719 
L 255.255385 221.516949 
z
" style="fill:#080339;"/>
    <path clip-path="url(#pf04bab2a21)" d="M 241.523583 217.136342 
L 255.255385 221.516949 
L 255.286123 219.573675 
L 241.54057 215.199953 
z
" style="fill:#16067b;"/>
    <path clip-path="url(#pf04bab2a21)" d="M 194.968513 115.78031 
L 208.507318 119.594825 
L 216.502011 113.015818 
L 203.051931 109.277002 
z
" style="fill:#c2981e;"/>
    <path clip-path="url(#pf04bab2a21)" d="M 233.792858 224.756123 
L 233.798169 223.66005 
L 241.533139 216.046983 
L 241.523583 217.136342 
z
" style="fill:#110679;"/>
    <path clip-path="url(#pf04bab2a21)" d="M 233.792858 224.756123 
L 241.523583 217.136342 
L 241.540814 215.172131 
L 233.802434 222.779797 
z
" style="fill:#0b033b;"/>
    <path clip-path="url(#pf04bab2a21)" d="M 220.127123 220.338193 
L 233.792858 224.756123 
L 233.802434 222.779797 
L 220.122882 218.368873 
z
" style="fill:#18057c;"/>
    <path clip-path="url(#pf04bab2a21)" d="M 233.792858 224.756123 
L 241.523583 217.136342 
L 255.255385 221.516949 
L 247.618703 229.225814 
z
" style="fill:#0a0449;"/>
    <path clip-path="url(#pf04bab2a21)" d="M 233.798169 223.66005 
L 247.631856 228.125842 
L 255.272677 220.423719 
L 241.533139 216.046983 
z
" style="fill:#0f0569;"/>
    <path clip-path="url(#pf04bab2a21)" d="M 247.618703 229.225814 
L 255.255385 221.516949 
L 255.272677 220.423719 
L 247.631856 228.125842 
z
" style="fill:#080339;"/>
    <path clip-path="url(#pf04bab2a21)" d="M 233.792858 224.756123 
L 247.618703 229.225814 
L 247.631856 228.125842 
L 233.798169 223.66005 
z
" style="fill:#110679;"/>
   </g>
   <g id="text_16">
    <!-- W20__H20__A240_bars_extracted.txt -->
    <g transform="translate(110.101875 28.56)scale(0.12 -0.12)">
     <defs>
      <path d="M 3.328125 72.90625 
L 13.28125 72.90625 
L 28.609375 11.28125 
L 43.890625 72.90625 
L 54.984375 72.90625 
L 70.3125 11.28125 
L 85.59375 72.90625 
L 95.609375 72.90625 
L 77.296875 0 
L 64.890625 0 
L 49.515625 63.28125 
L 33.984375 0 
L 21.578125 0 
z
" id="DejaVuSans-87"/>
      <path d="M 50.984375 -16.609375 
L 50.984375 -23.578125 
L -0.984375 -23.578125 
L -0.984375 -16.609375 
z
" id="DejaVuSans-95"/>
      <path d="M 9.8125 72.90625 
L 19.671875 72.90625 
L 19.671875 43.015625 
L 55.515625 43.015625 
L 55.515625 72.90625 
L 65.375 72.90625 
L 65.375 0 
L 55.515625 0 
L 55.515625 34.71875 
L 19.671875 34.71875 
L 19.671875 0 
L 9.8125 0 
z
" id="DejaVuSans-72"/>
      <path d="M 34.1875 63.1875 
L 20.796875 26.90625 
L 47.609375 26.90625 
z
M 28.609375 72.90625 
L 39.796875 72.90625 
L 67.578125 0 
L 57.328125 0 
L 50.6875 18.703125 
L 17.828125 18.703125 
L 11.1875 0 
L 0.78125 0 
z
" id="DejaVuSans-65"/>
      <path d="M 48.6875 27.296875 
Q 48.6875 37.203125 44.609375 42.84375 
Q 40.53125 48.484375 33.40625 48.484375 
Q 26.265625 48.484375 22.1875 42.84375 
Q 18.109375 37.203125 18.109375 27.296875 
Q 18.109375 17.390625 22.1875 11.75 
Q 26.265625 6.109375 33.40625 6.109375 
Q 40.53125 6.109375 44.609375 11.75 
Q 48.6875 17.390625 48.6875 27.296875 
z
M 18.109375 46.390625 
Q 20.953125 51.265625 25.265625 53.625 
Q 29.59375 56 35.59375 56 
Q 45.5625 56 51.78125 48.09375 
Q 58.015625 40.1875 58.015625 27.296875 
Q 58.015625 14.40625 51.78125 6.484375 
Q 45.5625 -1.421875 35.59375 -1.421875 
Q 29.59375 -1.421875 25.265625 0.953125 
Q 20.953125 3.328125 18.109375 8.203125 
L 18.109375 0 
L 9.078125 0 
L 9.078125 75.984375 
L 18.109375 75.984375 
z
" id="DejaVuSans-98"/>
      <path d="M 34.28125 27.484375 
Q 23.390625 27.484375 19.1875 25 
Q 14.984375 22.515625 14.984375 16.5 
Q 14.984375 11.71875 18.140625 8.90625 
Q 21.296875 6.109375 26.703125 6.109375 
Q 34.1875 6.109375 38.703125 11.40625 
Q 43.21875 16.703125 43.21875 25.484375 
L 43.21875 27.484375 
z
M 52.203125 31.203125 
L 52.203125 0 
L 43.21875 0 
L 43.21875 8.296875 
Q 40.140625 3.328125 35.546875 0.953125 
Q 30.953125 -1.421875 24.3125 -1.421875 
Q 15.921875 -1.421875 10.953125 3.296875 
Q 6 8.015625 6 15.921875 
Q 6 25.140625 12.171875 29.828125 
Q 18.359375 34.515625 30.609375 34.515625 
L 43.21875 34.515625 
L 43.21875 35.40625 
Q 43.21875 41.609375 39.140625 45 
Q 35.0625 48.390625 27.6875 48.390625 
Q 23 48.390625 18.546875 47.265625 
Q 14.109375 46.140625 10.015625 43.890625 
L 10.015625 52.203125 
Q 14.9375 54.109375 19.578125 55.046875 
Q 24.21875 56 28.609375 56 
Q 40.484375 56 46.34375 49.84375 
Q 52.203125 43.703125 52.203125 31.203125 
z
" id="DejaVuSans-97"/>
      <path d="M 41.109375 46.296875 
Q 39.59375 47.171875 37.8125 47.578125 
Q 36.03125 48 33.890625 48 
Q 26.265625 48 22.1875 43.046875 
Q 18.109375 38.09375 18.109375 28.8125 
L 18.109375 0 
L 9.078125 0 
L 9.078125 54.6875 
L 18.109375 54.6875 
L 18.109375 46.1875 
Q 20.953125 51.171875 25.484375 53.578125 
Q 30.03125 56 36.53125 56 
Q 37.453125 56 38.578125 55.875 
Q 39.703125 55.765625 41.0625 55.515625 
z
" id="DejaVuSans-114"/>
      <path d="M 44.28125 53.078125 
L 44.28125 44.578125 
Q 40.484375 46.53125 36.375 47.5 
Q 32.28125 48.484375 27.875 48.484375 
Q 21.1875 48.484375 17.84375 46.4375 
Q 14.5 44.390625 14.5 40.28125 
Q 14.5 37.15625 16.890625 35.375 
Q 19.28125 33.59375 26.515625 31.984375 
L 29.59375 31.296875 
Q 39.15625 29.25 43.1875 25.515625 
Q 47.21875 21.78125 47.21875 15.09375 
Q 47.21875 7.46875 41.1875 3.015625 
Q 35.15625 -1.421875 24.609375 -1.421875 
Q 20.21875 -1.421875 15.453125 -0.5625 
Q 10.6875 0.296875 5.421875 2 
L 5.421875 11.28125 
Q 10.40625 8.6875 15.234375 7.390625 
Q 20.0625 6.109375 24.8125 6.109375 
Q 31.15625 6.109375 34.5625 8.28125 
Q 37.984375 10.453125 37.984375 14.40625 
Q 37.984375 18.0625 35.515625 20.015625 
Q 33.0625 21.96875 24.703125 23.78125 
L 21.578125 24.515625 
Q 13.234375 26.265625 9.515625 29.90625 
Q 5.8125 33.546875 5.8125 39.890625 
Q 5.8125 47.609375 11.28125 51.796875 
Q 16.75 56 26.8125 56 
Q 31.78125 56 36.171875 55.265625 
Q 40.578125 54.546875 44.28125 53.078125 
z
" id="DejaVuSans-115"/>
      <path d="M 56.203125 29.59375 
L 56.203125 25.203125 
L 14.890625 25.203125 
Q 15.484375 15.921875 20.484375 11.0625 
Q 25.484375 6.203125 34.421875 6.203125 
Q 39.59375 6.203125 44.453125 7.46875 
Q 49.3125 8.734375 54.109375 11.28125 
L 54.109375 2.78125 
Q 49.265625 0.734375 44.1875 -0.34375 
Q 39.109375 -1.421875 33.890625 -1.421875 
Q 20.796875 -1.421875 13.15625 6.1875 
Q 5.515625 13.8125 5.515625 26.8125 
Q 5.515625 40.234375 12.765625 48.109375 
Q 20.015625 56 32.328125 56 
Q 43.359375 56 49.78125 48.890625 
Q 56.203125 41.796875 56.203125 29.59375 
z
M 47.21875 32.234375 
Q 47.125 39.59375 43.09375 43.984375 
Q 39.0625 48.390625 32.421875 48.390625 
Q 24.90625 48.390625 20.390625 44.140625 
Q 15.875 39.890625 15.1875 32.171875 
z
" id="DejaVuSans-101"/>
      <path d="M 54.890625 54.6875 
L 35.109375 28.078125 
L 55.90625 0 
L 45.3125 0 
L 29.390625 21.484375 
L 13.484375 0 
L 2.875 0 
L 24.125 28.609375 
L 4.6875 54.6875 
L 15.28125 54.6875 
L 29.78125 35.203125 
L 44.28125 54.6875 
z
" id="DejaVuSans-120"/>
      <path d="M 18.3125 70.21875 
L 18.3125 54.6875 
L 36.8125 54.6875 
L 36.8125 47.703125 
L 18.3125 47.703125 
L 18.3125 18.015625 
Q 18.3125 11.328125 20.140625 9.421875 
Q 21.96875 7.515625 27.59375 7.515625 
L 36.8125 7.515625 
L 36.8125 0 
L 27.59375 0 
Q 17.1875 0 13.234375 3.875 
Q 9.28125 7.765625 9.28125 18.015625 
L 9.28125 47.703125 
L 2.6875 47.703125 
L 2.6875 54.6875 
L 9.28125 54.6875 
L 9.28125 70.21875 
z
" id="DejaVuSans-116"/>
      <path d="M 48.78125 52.59375 
L 48.78125 44.1875 
Q 44.96875 46.296875 41.140625 47.34375 
Q 37.3125 48.390625 33.40625 48.390625 
Q 24.65625 48.390625 19.8125 42.84375 
Q 14.984375 37.3125 14.984375 27.296875 
Q 14.984375 17.28125 19.8125 11.734375 
Q 24.65625 6.203125 33.40625 6.203125 
Q 37.3125 6.203125 41.140625 7.25 
Q 44.96875 8.296875 48.78125 10.40625 
L 48.78125 2.09375 
Q 45.015625 0.34375 40.984375 -0.53125 
Q 36.96875 -1.421875 32.421875 -1.421875 
Q 20.0625 -1.421875 12.78125 6.34375 
Q 5.515625 14.109375 5.515625 27.296875 
Q 5.515625 40.671875 12.859375 48.328125 
Q 20.21875 56 33.015625 56 
Q 37.15625 56 41.109375 55.140625 
Q 45.0625 54.296875 48.78125 52.59375 
z
" id="DejaVuSans-99"/>
      <path d="M 45.40625 46.390625 
L 45.40625 75.984375 
L 54.390625 75.984375 
L 54.390625 0 
L 45.40625 0 
L 45.40625 8.203125 
Q 42.578125 3.328125 38.25 0.953125 
Q 33.9375 -1.421875 27.875 -1.421875 
Q 17.96875 -1.421875 11.734375 6.484375 
Q 5.515625 14.40625 5.515625 27.296875 
Q 5.515625 40.1875 11.734375 48.09375 
Q 17.96875 56 27.875 56 
Q 33.9375 56 38.25 53.625 
Q 42.578125 51.265625 45.40625 46.390625 
z
M 14.796875 27.296875 
Q 14.796875 17.390625 18.875 11.75 
Q 22.953125 6.109375 30.078125 6.109375 
Q 37.203125 6.109375 41.296875 11.75 
Q 45.40625 17.390625 45.40625 27.296875 
Q 45.40625 37.203125 41.296875 42.84375 
Q 37.203125 48.484375 30.078125 48.484375 
Q 22.953125 48.484375 18.875 42.84375 
Q 14.796875 37.203125 14.796875 27.296875 
z
" id="DejaVuSans-100"/>
      <path d="M 10.6875 12.40625 
L 21 12.40625 
L 21 0 
L 10.6875 0 
z
" id="DejaVuSans-46"/>
     </defs>
     <use xlink:href="#DejaVuSans-87"/>
     <use x="98.876953" xlink:href="#DejaVuSans-50"/>
     <use x="162.5" xlink:href="#DejaVuSans-48"/>
     <use x="226.123047" xlink:href="#DejaVuSans-95"/>
     <use x="276.123047" xlink:href="#DejaVuSans-95"/>
     <use x="326.123047" xlink:href="#DejaVuSans-72"/>
     <use x="401.318359" xlink:href="#DejaVuSans-50"/>
     <use x="464.941406" xlink:href="#DejaVuSans-48"/>
     <use x="528.564453" xlink:href="#DejaVuSans-95"/>
     <use x="578.564453" xlink:href="#DejaVuSans-95"/>
     <use x="628.564453" xlink:href="#DejaVuSans-65"/>
     <use x="696.972656" xlink:href="#DejaVuSans-50"/>
     <use x="760.595703" xlink:href="#DejaVuSans-52"/>
     <use x="824.21875" xlink:href="#DejaVuSans-48"/>
     <use x="887.841797" xlink:href="#DejaVuSans-95"/>
     <use x="937.841797" xlink:href="#DejaVuSans-98"/>
     <use x="1001.318359" xlink:href="#DejaVuSans-97"/>
     <use x="1062.597656" xlink:href="#DejaVuSans-114"/>
     <use x="1103.710938" xlink:href="#DejaVuSans-115"/>
     <use x="1155.810547" xlink:href="#DejaVuSans-95"/>
     <use x="1205.810547" xlink:href="#DejaVuSans-101"/>
     <use x="1265.583984" xlink:href="#DejaVuSans-120"/>
     <use x="1324.763672" xlink:href="#DejaVuSans-116"/>
     <use x="1363.972656" xlink:href="#DejaVuSans-114"/>
     <use x="1405.085938" xlink:href="#DejaVuSans-97"/>
     <use x="1466.365234" xlink:href="#DejaVuSans-99"/>
     <use x="1521.345703" xlink:href="#DejaVuSans-116"/>
     <use x="1560.554688" xlink:href="#DejaVuSans-101"/>
     <use x="1622.078125" xlink:href="#DejaVuSans-100"/>
     <use x="1685.554688" xlink:href="#DejaVuSans-46"/>
     <use x="1717.341797" xlink:href="#DejaVuSans-116"/>
     <use x="1756.550781" xlink:href="#DejaVuSans-120"/>
     <use x="1815.730469" xlink:href="#DejaVuSans-116"/>
    </g>
   </g>
  </g>
 </g>
 <defs>
  <clipPath id="pf04bab2a21">
   <rect height="217.44" width="217.44" x="112.68" y="34.56"/>
  </clipPath>
 </defs>
</svg>
