<?xml version="1.0" encoding="utf-8" standalone="no"?>
<!DOCTYPE svg PUBLIC "-//W3C//DTD SVG 1.1//EN"
  "http://www.w3.org/Graphics/SVG/1.1/DTD/svg11.dtd">
<!-- Created with matplotlib (https://matplotlib.org/) -->
<svg height="288pt" version="1.1" viewBox="0 0 432 288" width="432pt" xmlns="http://www.w3.org/2000/svg" xmlns:xlink="http://www.w3.org/1999/xlink">
 <metadata>
  <rdf:RDF xmlns:cc="http://creativecommons.org/ns#" xmlns:dc="http://purl.org/dc/elements/1.1/" xmlns:rdf="http://www.w3.org/1999/02/22-rdf-syntax-ns#">
   <cc:Work>
    <dc:type rdf:resource="http://purl.org/dc/dcmitype/StillImage"/>
    <dc:date>2021-06-13T21:57:36.288813</dc:date>
    <dc:format>image/svg+xml</dc:format>
    <dc:creator>
     <cc:Agent>
      <dc:title>Matplotlib v3.3.4, https://matplotlib.org/</dc:title>
     </cc:Agent>
    </dc:creator>
   </cc:Work>
  </rdf:RDF>
 </metadata>
 <defs>
  <style type="text/css">*{stroke-linecap:butt;stroke-linejoin:round;}</style>
 </defs>
 <g id="figure_1">
  <g id="patch_1">
   <path d="M 0 288 
L 432 288 
L 432 0 
L 0 0 
z
" style="fill:#ffffff;"/>
  </g>
  <g id="patch_2">
   <path d="M 112.68 252 
L 330.12 252 
L 330.12 34.56 
L 112.68 34.56 
z
" style="fill:#ffffff;"/>
  </g>
  <g id="pane3d_1">
   <g id="patch_3">
    <path d="M 129.09822 198.386264 
L 200.904009 138.197228 
L 199.90584 51.393878 
L 124.663773 106.302111 
" style="fill:#f2f2f2;opacity:0.5;stroke:#f2f2f2;stroke-linejoin:miter;"/>
   </g>
  </g>
  <g id="pane3d_2">
   <g id="patch_4">
    <path d="M 200.904009 138.197228 
L 316.12668 171.68791 
L 320.238571 81.894718 
L 199.90584 51.393878 
" style="fill:#e6e6e6;opacity:0.5;stroke:#e6e6e6;stroke-linejoin:miter;"/>
   </g>
  </g>
  <g id="pane3d_3">
   <g id="patch_5">
    <path d="M 129.09822 198.386264 
L 251.239879 238.27773 
L 316.12668 171.68791 
L 200.904009 138.197228 
" style="fill:#ececec;opacity:0.5;stroke:#ececec;stroke-linejoin:miter;"/>
   </g>
  </g>
  <g id="axis3d_1">
   <g id="line2d_1">
    <path d="M 129.09822 198.386264 
L 251.239879 238.27773 
" style="fill:none;stroke:#000000;stroke-linecap:square;stroke-width:0.8;"/>
   </g>
   <g id="Line3DCollection_1">
    <path d="M 136.495759 200.802301 
L 207.911499 140.234029 
L 207.209612 53.245171 
" style="fill:none;stroke:#b0b0b0;stroke-width:0.8;"/>
    <path d="M 162.23134 209.207541 
L 232.260894 147.311436 
L 232.60309 59.681678 
" style="fill:none;stroke:#b0b0b0;stroke-width:0.8;"/>
    <path d="M 188.559037 217.806167 
L 257.123632 154.538053 
L 258.555303 66.259807 
" style="fill:none;stroke:#b0b0b0;stroke-width:0.8;"/>
    <path d="M 215.499525 226.604931 
L 282.516121 161.918647 
L 285.084894 72.984285 
" style="fill:none;stroke:#b0b0b0;stroke-width:0.8;"/>
    <path d="M 243.074449 235.610901 
L 308.455474 169.458193 
L 312.21135 79.860051 
" style="fill:none;stroke:#b0b0b0;stroke-width:0.8;"/>
   </g>
   <g id="xtick_1">
    <g id="line2d_2">
     <path d="M 137.117644 200.274876 
L 135.249322 201.859414 
" style="fill:none;stroke:#000000;stroke-linecap:square;stroke-width:0.8;"/>
    </g>
    <g id="text_1">
     <!-- 0 -->
     <g transform="translate(125.77919 224.124533)scale(0.1 -0.1)">
      <defs>
       <path d="M 31.78125 66.40625 
Q 24.171875 66.40625 20.328125 58.90625 
Q 16.5 51.421875 16.5 36.375 
Q 16.5 21.390625 20.328125 13.890625 
Q 24.171875 6.390625 31.78125 6.390625 
Q 39.453125 6.390625 43.28125 13.890625 
Q 47.125 21.390625 47.125 36.375 
Q 47.125 51.421875 43.28125 58.90625 
Q 39.453125 66.40625 31.78125 66.40625 
z
M 31.78125 74.21875 
Q 44.046875 74.21875 50.515625 64.515625 
Q 56.984375 54.828125 56.984375 36.375 
Q 56.984375 17.96875 50.515625 8.265625 
Q 44.046875 -1.421875 31.78125 -1.421875 
Q 19.53125 -1.421875 13.0625 8.265625 
Q 6.59375 17.96875 6.59375 36.375 
Q 6.59375 54.828125 13.0625 64.515625 
Q 19.53125 74.21875 31.78125 74.21875 
z
" id="DejaVuSans-48"/>
      </defs>
      <use xlink:href="#DejaVuSans-48"/>
     </g>
    </g>
   </g>
   <g id="xtick_2">
    <g id="line2d_3">
     <path d="M 162.841716 208.668056 
L 161.007937 210.288854 
" style="fill:none;stroke:#000000;stroke-linecap:square;stroke-width:0.8;"/>
    </g>
    <g id="text_2">
     <!-- 2 -->
     <g transform="translate(151.547192 232.748132)scale(0.1 -0.1)">
      <defs>
       <path d="M 19.1875 8.296875 
L 53.609375 8.296875 
L 53.609375 0 
L 7.328125 0 
L 7.328125 8.296875 
Q 12.9375 14.109375 22.625 23.890625 
Q 32.328125 33.6875 34.8125 36.53125 
Q 39.546875 41.84375 41.421875 45.53125 
Q 43.3125 49.21875 43.3125 52.78125 
Q 43.3125 58.59375 39.234375 62.25 
Q 35.15625 65.921875 28.609375 65.921875 
Q 23.96875 65.921875 18.8125 64.3125 
Q 13.671875 62.703125 7.8125 59.421875 
L 7.8125 69.390625 
Q 13.765625 71.78125 18.9375 73 
Q 24.125 74.21875 28.421875 74.21875 
Q 39.75 74.21875 46.484375 68.546875 
Q 53.21875 62.890625 53.21875 53.421875 
Q 53.21875 48.921875 51.53125 44.890625 
Q 49.859375 40.875 45.40625 35.40625 
Q 44.1875 33.984375 37.640625 27.21875 
Q 31.109375 20.453125 19.1875 8.296875 
z
" id="DejaVuSans-50"/>
      </defs>
      <use xlink:href="#DejaVuSans-50"/>
     </g>
    </g>
   </g>
   <g id="xtick_3">
    <g id="line2d_4">
     <path d="M 189.15721 217.254202 
L 187.360066 218.91252 
" style="fill:none;stroke:#000000;stroke-linecap:square;stroke-width:0.8;"/>
    </g>
    <g id="text_3">
     <!-- 4 -->
     <g transform="translate(177.91082 241.571064)scale(0.1 -0.1)">
      <defs>
       <path d="M 37.796875 64.3125 
L 12.890625 25.390625 
L 37.796875 25.390625 
z
M 35.203125 72.90625 
L 47.609375 72.90625 
L 47.609375 25.390625 
L 58.015625 25.390625 
L 58.015625 17.1875 
L 47.609375 17.1875 
L 47.609375 0 
L 37.796875 0 
L 37.796875 17.1875 
L 4.890625 17.1875 
L 4.890625 26.703125 
z
" id="DejaVuSans-52"/>
      </defs>
      <use xlink:href="#DejaVuSans-52"/>
     </g>
    </g>
   </g>
   <g id="xtick_4">
    <g id="line2d_5">
     <path d="M 216.084757 226.040048 
L 214.326462 227.737204 
" style="fill:none;stroke:#000000;stroke-linecap:square;stroke-width:0.8;"/>
    </g>
    <g id="text_4">
     <!-- 6 -->
     <g transform="translate(204.890965 250.600322)scale(0.1 -0.1)">
      <defs>
       <path d="M 33.015625 40.375 
Q 26.375 40.375 22.484375 35.828125 
Q 18.609375 31.296875 18.609375 23.390625 
Q 18.609375 15.53125 22.484375 10.953125 
Q 26.375 6.390625 33.015625 6.390625 
Q 39.65625 6.390625 43.53125 10.953125 
Q 47.40625 15.53125 47.40625 23.390625 
Q 47.40625 31.296875 43.53125 35.828125 
Q 39.65625 40.375 33.015625 40.375 
z
M 52.59375 71.296875 
L 52.59375 62.3125 
Q 48.875 64.0625 45.09375 64.984375 
Q 41.3125 65.921875 37.59375 65.921875 
Q 27.828125 65.921875 22.671875 59.328125 
Q 17.53125 52.734375 16.796875 39.40625 
Q 19.671875 43.65625 24.015625 45.921875 
Q 28.375 48.1875 33.59375 48.1875 
Q 44.578125 48.1875 50.953125 41.515625 
Q 57.328125 34.859375 57.328125 23.390625 
Q 57.328125 12.15625 50.6875 5.359375 
Q 44.046875 -1.421875 33.015625 -1.421875 
Q 20.359375 -1.421875 13.671875 8.265625 
Q 6.984375 17.96875 6.984375 36.375 
Q 6.984375 53.65625 15.1875 63.9375 
Q 23.390625 74.21875 37.203125 74.21875 
Q 40.921875 74.21875 44.703125 73.484375 
Q 48.484375 72.75 52.59375 71.296875 
z
" id="DejaVuSans-54"/>
      </defs>
      <use xlink:href="#DejaVuSans-54"/>
     </g>
    </g>
   </g>
   <g id="xtick_5">
    <g id="line2d_6">
     <path d="M 243.645962 235.032643 
L 241.928856 236.770015 
" style="fill:none;stroke:#000000;stroke-linecap:square;stroke-width:0.8;"/>
    </g>
    <g id="text_5">
     <!-- 8 -->
     <g transform="translate(232.509511 259.84323)scale(0.1 -0.1)">
      <defs>
       <path d="M 31.78125 34.625 
Q 24.75 34.625 20.71875 30.859375 
Q 16.703125 27.09375 16.703125 20.515625 
Q 16.703125 13.921875 20.71875 10.15625 
Q 24.75 6.390625 31.78125 6.390625 
Q 38.8125 6.390625 42.859375 10.171875 
Q 46.921875 13.96875 46.921875 20.515625 
Q 46.921875 27.09375 42.890625 30.859375 
Q 38.875 34.625 31.78125 34.625 
z
M 21.921875 38.8125 
Q 15.578125 40.375 12.03125 44.71875 
Q 8.5 49.078125 8.5 55.328125 
Q 8.5 64.0625 14.71875 69.140625 
Q 20.953125 74.21875 31.78125 74.21875 
Q 42.671875 74.21875 48.875 69.140625 
Q 55.078125 64.0625 55.078125 55.328125 
Q 55.078125 49.078125 51.53125 44.71875 
Q 48 40.375 41.703125 38.8125 
Q 48.828125 37.15625 52.796875 32.3125 
Q 56.78125 27.484375 56.78125 20.515625 
Q 56.78125 9.90625 50.3125 4.234375 
Q 43.84375 -1.421875 31.78125 -1.421875 
Q 19.734375 -1.421875 13.25 4.234375 
Q 6.78125 9.90625 6.78125 20.515625 
Q 6.78125 27.484375 10.78125 32.3125 
Q 14.796875 37.15625 21.921875 38.8125 
z
M 18.3125 54.390625 
Q 18.3125 48.734375 21.84375 45.5625 
Q 25.390625 42.390625 31.78125 42.390625 
Q 38.140625 42.390625 41.71875 45.5625 
Q 45.3125 48.734375 45.3125 54.390625 
Q 45.3125 60.0625 41.71875 63.234375 
Q 38.140625 66.40625 31.78125 66.40625 
Q 25.390625 66.40625 21.84375 63.234375 
Q 18.3125 60.0625 18.3125 54.390625 
z
" id="DejaVuSans-56"/>
      </defs>
      <use xlink:href="#DejaVuSans-56"/>
     </g>
    </g>
   </g>
  </g>
  <g id="axis3d_2">
   <g id="line2d_7">
    <path d="M 316.12668 171.68791 
L 251.239879 238.27773 
" style="fill:none;stroke:#000000;stroke-linecap:square;stroke-width:0.8;"/>
   </g>
   <g id="Line3DCollection_2">
    <path d="M 129.866948 102.505071 
L 134.046245 194.238731 
L 255.729543 233.67023 
" style="fill:none;stroke:#b0b0b0;stroke-width:0.8;"/>
    <path d="M 147.250212 89.819556 
L 150.59591 180.366474 
L 270.72626 218.279909 
" style="fill:none;stroke:#b0b0b0;stroke-width:0.8;"/>
    <path d="M 163.958537 77.626582 
L 166.530371 167.009893 
L 285.136664 203.491289 
" style="fill:none;stroke:#b0b0b0;stroke-width:0.8;"/>
    <path d="M 180.030483 65.898008 
L 181.883306 154.140758 
L 298.994481 189.269761 
" style="fill:none;stroke:#b0b0b0;stroke-width:0.8;"/>
    <path d="M 195.501727 54.607799 
L 196.68598 141.732864 
L 312.330896 175.583317 
" style="fill:none;stroke:#b0b0b0;stroke-width:0.8;"/>
   </g>
   <g id="xtick_6">
    <g id="line2d_8">
     <path d="M 254.704115 233.337939 
L 257.783053 234.33567 
" style="fill:none;stroke:#000000;stroke-linecap:square;stroke-width:0.8;"/>
    </g>
    <g id="text_6">
     <!-- 0 -->
     <g transform="translate(265.430654 254.693759)scale(0.1 -0.1)">
      <use xlink:href="#DejaVuSans-48"/>
     </g>
    </g>
   </g>
   <g id="xtick_7">
    <g id="line2d_9">
     <path d="M 269.71494 217.960734 
L 272.751463 218.919068 
" style="fill:none;stroke:#000000;stroke-linecap:square;stroke-width:0.8;"/>
    </g>
    <g id="text_7">
     <!-- 2 -->
     <g transform="translate(280.181112 239.024526)scale(0.1 -0.1)">
      <use xlink:href="#DejaVuSans-50"/>
     </g>
    </g>
   </g>
   <g id="xtick_8">
    <g id="line2d_10">
     <path d="M 284.139145 203.184468 
L 287.134182 204.105694 
" style="fill:none;stroke:#000000;stroke-linecap:square;stroke-width:0.8;"/>
    </g>
    <g id="text_8">
     <!-- 4 -->
     <g transform="translate(294.35448 223.968328)scale(0.1 -0.1)">
      <use xlink:href="#DejaVuSans-52"/>
     </g>
    </g>
   </g>
   <g id="xtick_9">
    <g id="line2d_11">
     <path d="M 298.010457 188.97459 
L 300.964927 189.860821 
" style="fill:none;stroke:#000000;stroke-linecap:square;stroke-width:0.8;"/>
    </g>
    <g id="text_9">
     <!-- 6 -->
     <g transform="translate(307.983974 209.489882)scale(0.1 -0.1)">
      <use xlink:href="#DejaVuSans-54"/>
     </g>
    </g>
   </g>
   <g id="xtick_10">
    <g id="line2d_12">
     <path d="M 311.360068 175.299146 
L 314.274875 176.15234 
" style="fill:none;stroke:#000000;stroke-linecap:square;stroke-width:0.8;"/>
    </g>
    <g id="text_10">
     <!-- 8 -->
     <g transform="translate(321.10031 195.556556)scale(0.1 -0.1)">
      <use xlink:href="#DejaVuSans-56"/>
     </g>
    </g>
   </g>
  </g>
  <g id="axis3d_3">
   <g id="line2d_13">
    <path d="M 316.12668 171.68791 
L 320.238571 81.894718 
" style="fill:none;stroke:#000000;stroke-linecap:square;stroke-width:0.8;"/>
   </g>
   <g id="Line3DCollection_3">
    <path d="M 316.205459 169.967571 
L 200.884845 136.530725 
L 129.013401 196.624949 
" style="fill:none;stroke:#b0b0b0;stroke-width:0.8;"/>
    <path d="M 316.955325 153.592413 
L 200.702514 120.674752 
L 128.205774 179.854055 
" style="fill:none;stroke:#b0b0b0;stroke-width:0.8;"/>
    <path d="M 317.717534 136.947731 
L 200.517326 104.570314 
L 127.384345 162.796556 
" style="fill:none;stroke:#b0b0b0;stroke-width:0.8;"/>
    <path d="M 318.492392 120.026813 
L 200.329213 88.211526 
L 126.548758 145.445039 
" style="fill:none;stroke:#b0b0b0;stroke-width:0.8;"/>
    <path d="M 319.280217 102.822728 
L 200.138105 71.592312 
L 125.698642 127.791839 
" style="fill:none;stroke:#b0b0b0;stroke-width:0.8;"/>
    <path d="M 320.081337 85.328306 
L 199.943931 54.706405 
L 124.833616 109.829017 
" style="fill:none;stroke:#b0b0b0;stroke-width:0.8;"/>
   </g>
   <g id="xtick_11">
    <g id="line2d_14">
     <path d="M 315.237563 169.686933 
L 318.143556 170.529516 
" style="fill:none;stroke:#000000;stroke-linecap:square;stroke-width:0.8;"/>
    </g>
    <g id="text_11">
     <!-- 0 -->
     <g transform="translate(331.275915 174.966846)scale(0.1 -0.1)">
      <use xlink:href="#DejaVuSans-48"/>
     </g>
    </g>
   </g>
   <g id="xtick_12">
    <g id="line2d_15">
     <path d="M 315.979232 153.316027 
L 318.909855 154.14585 
" style="fill:none;stroke:#000000;stroke-linecap:square;stroke-width:0.8;"/>
    </g>
    <g id="text_12">
     <!-- 5000 -->
     <g transform="translate(322.627685 158.631137)scale(0.1 -0.1)">
      <defs>
       <path d="M 10.796875 72.90625 
L 49.515625 72.90625 
L 49.515625 64.59375 
L 19.828125 64.59375 
L 19.828125 46.734375 
Q 21.96875 47.46875 24.109375 47.828125 
Q 26.265625 48.1875 28.421875 48.1875 
Q 40.625 48.1875 47.75 41.5 
Q 54.890625 34.8125 54.890625 23.390625 
Q 54.890625 11.625 47.5625 5.09375 
Q 40.234375 -1.421875 26.90625 -1.421875 
Q 22.3125 -1.421875 17.546875 -0.640625 
Q 12.796875 0.140625 7.71875 1.703125 
L 7.71875 11.625 
Q 12.109375 9.234375 16.796875 8.0625 
Q 21.484375 6.890625 26.703125 6.890625 
Q 35.15625 6.890625 40.078125 11.328125 
Q 45.015625 15.765625 45.015625 23.390625 
Q 45.015625 31 40.078125 35.4375 
Q 35.15625 39.890625 26.703125 39.890625 
Q 22.75 39.890625 18.8125 39.015625 
Q 14.890625 38.140625 10.796875 36.28125 
z
" id="DejaVuSans-53"/>
      </defs>
      <use xlink:href="#DejaVuSans-53"/>
      <use x="63.623047" xlink:href="#DejaVuSans-48"/>
      <use x="127.246094" xlink:href="#DejaVuSans-48"/>
      <use x="190.869141" xlink:href="#DejaVuSans-48"/>
     </g>
    </g>
   </g>
   <g id="xtick_13">
    <g id="line2d_16">
     <path d="M 316.733104 136.675775 
L 319.688776 137.492301 
" style="fill:none;stroke:#000000;stroke-linecap:square;stroke-width:0.8;"/>
    </g>
    <g id="text_13">
     <!-- 10000 -->
     <g transform="translate(320.35664 142.027555)scale(0.1 -0.1)">
      <defs>
       <path d="M 12.40625 8.296875 
L 28.515625 8.296875 
L 28.515625 63.921875 
L 10.984375 60.40625 
L 10.984375 69.390625 
L 28.421875 72.90625 
L 38.28125 72.90625 
L 38.28125 8.296875 
L 54.390625 8.296875 
L 54.390625 0 
L 12.40625 0 
z
" id="DejaVuSans-49"/>
      </defs>
      <use xlink:href="#DejaVuSans-49"/>
      <use x="63.623047" xlink:href="#DejaVuSans-48"/>
      <use x="127.246094" xlink:href="#DejaVuSans-48"/>
      <use x="190.869141" xlink:href="#DejaVuSans-48"/>
      <use x="254.492188" xlink:href="#DejaVuSans-48"/>
     </g>
    </g>
   </g>
   <g id="xtick_14">
    <g id="line2d_17">
     <path d="M 317.499482 119.759474 
L 320.480634 120.562145 
" style="fill:none;stroke:#000000;stroke-linecap:square;stroke-width:0.8;"/>
    </g>
    <g id="text_14">
     <!-- 15000 -->
     <g transform="translate(321.281894 125.149457)scale(0.1 -0.1)">
      <use xlink:href="#DejaVuSans-49"/>
      <use x="63.623047" xlink:href="#DejaVuSans-53"/>
      <use x="127.246094" xlink:href="#DejaVuSans-48"/>
      <use x="190.869141" xlink:href="#DejaVuSans-48"/>
      <use x="254.492188" xlink:href="#DejaVuSans-48"/>
     </g>
    </g>
   </g>
   <g id="xtick_15">
    <g id="line2d_18">
     <path d="M 318.278679 102.560197 
L 321.285756 103.348435 
" style="fill:none;stroke:#000000;stroke-linecap:square;stroke-width:0.8;"/>
    </g>
    <g id="text_15">
     <!-- 20000 -->
     <g transform="translate(322.222573 107.989979)scale(0.1 -0.1)">
      <use xlink:href="#DejaVuSans-50"/>
      <use x="63.623047" xlink:href="#DejaVuSans-48"/>
      <use x="127.246094" xlink:href="#DejaVuSans-48"/>
      <use x="190.869141" xlink:href="#DejaVuSans-48"/>
      <use x="254.492188" xlink:href="#DejaVuSans-48"/>
     </g>
    </g>
   </g>
   <g id="xtick_16">
    <g id="line2d_19">
     <path d="M 319.071021 85.070786 
L 322.104475 85.843985 
" style="fill:none;stroke:#000000;stroke-linecap:square;stroke-width:0.8;"/>
    </g>
    <g id="text_16">
     <!-- 25000 -->
     <g transform="translate(323.179066 90.542024)scale(0.1 -0.1)">
      <use xlink:href="#DejaVuSans-50"/>
      <use x="63.623047" xlink:href="#DejaVuSans-53"/>
      <use x="127.246094" xlink:href="#DejaVuSans-48"/>
      <use x="190.869141" xlink:href="#DejaVuSans-48"/>
      <use x="254.492188" xlink:href="#DejaVuSans-48"/>
     </g>
    </g>
   </g>
  </g>
  <g id="axes_1">
   <g id="Poly3DCollection_1">
    <path clip-path="url(#p66ee191aa8)" d="M 203.700438 142.115361 
L 203.59512 131.735618 
L 215.820428 135.251024 
L 215.863902 145.66701 
z
" style="fill:#1f0143;"/>
    <path clip-path="url(#p66ee191aa8)" d="M 196.401162 148.290596 
L 196.257294 137.847958 
L 203.59512 131.735618 
L 203.700438 142.115361 
z
" style="fill:#41028d;"/>
    <path clip-path="url(#p66ee191aa8)" d="M 196.401162 148.290596 
L 203.700438 142.115361 
L 215.863902 145.66701 
L 208.637156 151.907182 
z
" style="fill:#270155;"/>
    <path clip-path="url(#p66ee191aa8)" d="M 196.257294 137.847958 
L 208.555872 141.427972 
L 215.820428 135.251024 
L 203.59512 131.735618 
z
" style="fill:#38027b;"/>
    <path clip-path="url(#p66ee191aa8)" d="M 208.637156 151.907182 
L 215.863902 145.66701 
L 215.820428 135.251024 
L 208.555872 141.427972 
z
" style="fill:#1f0143;"/>
    <path clip-path="url(#p66ee191aa8)" d="M 208.637156 151.907182 
L 215.863902 145.66701 
L 228.155024 149.255935 
L 221.002748 155.562072 
z
" style="fill:#490458;"/>
    <path clip-path="url(#p66ee191aa8)" d="M 215.863902 145.66701 
L 215.766084 122.230343 
L 228.199312 125.736499 
L 228.155024 149.255935 
z
" style="fill:#390345;"/>
    <path clip-path="url(#p66ee191aa8)" d="M 196.401162 148.290596 
L 208.637156 151.907182 
L 208.555872 141.427972 
L 196.257294 137.847958 
z
" style="fill:#41028d;"/>
    <path clip-path="url(#p66ee191aa8)" d="M 196.401162 148.290596 
L 196.193184 133.194544 
L 208.519648 136.758077 
L 208.637156 151.907182 
z
" style="fill:#280045;"/>
    <path clip-path="url(#p66ee191aa8)" d="M 208.637156 151.907182 
L 208.45425 128.326876 
L 215.766084 122.230343 
L 215.863902 145.66701 
z
" style="fill:#780792;"/>
    <path clip-path="url(#p66ee191aa8)" d="M 188.96817 154.578956 
L 196.401162 148.290596 
L 208.637156 151.907182 
L 201.27732 158.262275 
z
" style="fill:#330059;"/>
    <path clip-path="url(#p66ee191aa8)" d="M 188.96817 154.578956 
L 188.702428 139.390838 
L 196.193184 133.194544 
L 196.401162 148.290596 
z
" style="fill:#540193;"/>
    <path clip-path="url(#p66ee191aa8)" d="M 221.002748 155.562072 
L 228.155024 149.255935 
L 240.575825 152.882725 
L 233.500008 159.25588 
z
" style="fill:#540d54;"/>
    <path clip-path="url(#p66ee191aa8)" d="M 228.155024 149.255935 
L 228.20874 120.729698 
L 240.805576 124.255192 
L 240.575825 152.882725 
z
" style="fill:#410a42;"/>
    <path clip-path="url(#p66ee191aa8)" d="M 221.002748 155.562072 
L 228.155024 149.255935 
L 228.199312 125.736499 
L 220.963683 131.898233 
z
" style="fill:#390345;"/>
    <path clip-path="url(#p66ee191aa8)" d="M 201.27732 158.262275 
L 208.637156 151.907182 
L 221.002748 155.562072 
L 213.718049 161.984967 
z
" style="fill:#6c2541;"/>
    <path clip-path="url(#p66ee191aa8)" d="M 221.002748 155.562072 
L 220.955365 126.860041 
L 228.20874 120.729698 
L 228.155024 149.255935 
z
" style="fill:#8b158b;"/>
    <path clip-path="url(#p66ee191aa8)" d="M 201.27732 158.262275 
L 208.637156 151.907182 
L 208.519648 136.758077 
L 201.10313 143.020623 
z
" style="fill:#280045;"/>
    <path clip-path="url(#p66ee191aa8)" d="M 208.637156 151.907182 
L 221.002748 155.562072 
L 220.963683 131.898233 
L 208.45425 128.326876 
z
" style="fill:#780792;"/>
    <path clip-path="url(#p66ee191aa8)" d="M 233.500008 159.25588 
L 240.575825 152.882725 
L 253.128369 156.547983 
L 246.131049 162.989229 
z
" style="fill:#5b134f;"/>
    <path clip-path="url(#p66ee191aa8)" d="M 188.702428 139.390838 
L 201.10313 143.020623 
L 208.519648 136.758077 
L 196.193184 133.194544 
z
" style="fill:#49007f;"/>
    <path clip-path="url(#p66ee191aa8)" d="M 208.45425 128.326876 
L 220.963683 131.898233 
L 228.199312 125.736499 
L 215.766084 122.230343 
z
" style="fill:#69067f;"/>
    <path clip-path="url(#p66ee191aa8)" d="M 188.96817 154.578956 
L 201.27732 158.262275 
L 201.10313 143.020623 
L 188.702428 139.390838 
z
" style="fill:#540193;"/>
    <path clip-path="url(#p66ee191aa8)" d="M 188.96817 154.578956 
L 188.66928 137.496347 
L 201.081401 141.119369 
L 201.27732 158.262275 
z
" style="fill:#2c0046;"/>
    <path clip-path="url(#p66ee191aa8)" d="M 181.397755 160.983577 
L 188.96817 154.578956 
L 201.27732 158.262275 
L 193.780682 164.735494 
z
" style="fill:#380059;"/>
    <path clip-path="url(#p66ee191aa8)" d="M 240.575825 152.882725 
L 240.832922 120.847802 
L 253.586673 124.398812 
L 253.128369 156.547983 
z
" style="fill:#470f3e;"/>
    <path clip-path="url(#p66ee191aa8)" d="M 213.718049 161.984967 
L 221.002748 155.562072 
L 233.500008 159.25588 
L 226.292478 165.747667 
z
" style="fill:#814728;"/>
    <path clip-path="url(#p66ee191aa8)" d="M 181.397755 160.983577 
L 181.031509 143.796332 
L 188.66928 137.496347 
L 188.96817 154.578956 
z
" style="fill:#5d0094;"/>
    <path clip-path="url(#p66ee191aa8)" d="M 208.637156 151.907182 
L 208.31523 110.404484 
L 220.933987 113.910398 
L 221.002748 155.562072 
z
" style="fill:#541d33;"/>
    <path clip-path="url(#p66ee191aa8)" d="M 233.500008 159.25588 
L 240.575825 152.882725 
L 240.805576 124.255192 
L 233.630852 130.451612 
z
" style="fill:#410a42;"/>
    <path clip-path="url(#p66ee191aa8)" d="M 233.500008 159.25588 
L 233.646428 127.022686 
L 240.832922 120.847802 
L 240.575825 152.882725 
z
" style="fill:#972083;"/>
    <path clip-path="url(#p66ee191aa8)" d="M 246.131049 162.989229 
L 253.128369 156.547983 
L 265.814761 160.252323 
L 258.898031 166.762758 
z
" style="fill:#591251;"/>
    <path clip-path="url(#p66ee191aa8)" d="M 201.27732 158.262275 
L 200.80005 116.501027 
L 208.31523 110.404484 
L 208.637156 151.907182 
z
" style="fill:#b23d6b;"/>
    <path clip-path="url(#p66ee191aa8)" d="M 221.002748 155.562072 
L 233.500008 159.25588 
L 233.630852 130.451612 
L 220.955365 126.860041 
z
" style="fill:#8b158b;"/>
    <path clip-path="url(#p66ee191aa8)" d="M 193.780682 164.735494 
L 201.27732 158.262275 
L 213.718049 161.984967 
L 206.297214 168.527892 
z
" style="fill:#763236;"/>
    <path clip-path="url(#p66ee191aa8)" d="M 253.128369 156.547983 
L 253.574166 125.276179 
L 266.460477 128.868867 
L 265.814761 160.252323 
z
" style="fill:#460e3f;"/>
    <path clip-path="url(#p66ee191aa8)" d="M 220.955365 126.860041 
L 233.630852 130.451612 
L 240.805576 124.255192 
L 228.20874 120.729698 
z
" style="fill:#781279;"/>
    <path clip-path="url(#p66ee191aa8)" d="M 226.292478 165.747667 
L 233.500008 159.25588 
L 246.131049 162.989229 
L 239.002775 169.551023 
z
" style="fill:#87591c;"/>
    <path clip-path="url(#p66ee191aa8)" d="M 193.780682 164.735494 
L 201.27732 158.262275 
L 201.081401 141.119369 
L 193.518641 147.487409 
z
" style="fill:#2c0046;"/>
    <path clip-path="url(#p66ee191aa8)" d="M 246.131049 162.989229 
L 246.471673 131.523661 
L 253.574166 125.276179 
L 253.128369 156.547983 
z
" style="fill:#941d85;"/>
    <path clip-path="url(#p66ee191aa8)" d="M 246.131049 162.989229 
L 253.128369 156.547983 
L 253.586673 124.398812 
L 246.481232 130.640727 
z
" style="fill:#470f3e;"/>
    <path clip-path="url(#p66ee191aa8)" d="M 258.898031 166.762758 
L 265.814761 160.252323 
L 278.637155 163.996376 
L 271.803162 170.57712 
z
" style="fill:#460359;"/>
    <path clip-path="url(#p66ee191aa8)" d="M 181.031509 143.796332 
L 193.518641 147.487409 
L 201.081401 141.119369 
L 188.66928 137.496347 
z
" style="fill:#500081;"/>
    <path clip-path="url(#p66ee191aa8)" d="M 181.397755 160.983577 
L 181.0317 143.805278 
L 193.518778 147.496387 
L 193.780682 164.735494 
z
" style="fill:#2c0046;"/>
    <path clip-path="url(#p66ee191aa8)" d="M 181.397755 160.983577 
L 193.780682 164.735494 
L 193.518641 147.487409 
L 181.031509 143.796332 
z
" style="fill:#5d0094;"/>
    <path clip-path="url(#p66ee191aa8)" d="M 213.718049 161.984967 
L 221.002748 155.562072 
L 220.933987 113.910398 
L 213.497052 120.073335 
z
" style="fill:#541d33;"/>
    <path clip-path="url(#p66ee191aa8)" d="M 265.814761 160.252323 
L 266.282384 137.524632 
L 279.252662 141.187921 
L 278.637155 163.996376 
z
" style="fill:#370245;"/>
    <path clip-path="url(#p66ee191aa8)" d="M 173.686069 167.507715 
L 181.397755 160.983577 
L 193.780682 164.735494 
L 186.143392 171.330164 
z
" style="fill:#380059;"/>
    <path clip-path="url(#p66ee191aa8)" d="M 233.500008 159.25588 
L 246.131049 162.989229 
L 246.481232 130.640727 
L 233.646428 127.022686 
z
" style="fill:#972083;"/>
    <path clip-path="url(#p66ee191aa8)" d="M 206.297214 168.527892 
L 213.718049 161.984967 
L 226.292478 165.747667 
L 218.949524 172.361429 
z
" style="fill:#875d1b;"/>
    <path clip-path="url(#p66ee191aa8)" d="M 173.686069 167.507715 
L 173.250211 150.223894 
L 181.0317 143.805278 
L 181.397755 160.983577 
z
" style="fill:#5d0094;"/>
    <path clip-path="url(#p66ee191aa8)" d="M 201.27732 158.262275 
L 213.718049 161.984967 
L 213.497052 120.073335 
L 200.80005 116.501027 
z
" style="fill:#b23d6b;"/>
    <path clip-path="url(#p66ee191aa8)" d="M 258.898031 166.762758 
L 259.291346 143.894915 
L 266.282384 137.524632 
L 265.814761 160.252323 
z
" style="fill:#750593;"/>
    <path clip-path="url(#p66ee191aa8)" d="M 221.002748 155.562072 
L 220.904463 96.025924 
L 233.771438 99.50281 
L 233.500008 159.25588 
z
" style="fill:#65381f;"/>
    <path clip-path="url(#p66ee191aa8)" d="M 278.637155 163.996376 
L 278.931524 153.088143 
L 291.964356 156.834071 
L 291.597749 167.780781 
z
" style="fill:#1f0143;"/>
    <path clip-path="url(#p66ee191aa8)" d="M 239.002775 169.551023 
L 246.131049 162.989229 
L 258.898031 166.762758 
L 251.851153 173.395697 
z
" style="fill:#86591d;"/>
    <path clip-path="url(#p66ee191aa8)" d="M 201.27732 158.262275 
L 200.717592 109.285991 
L 213.458865 112.831377 
L 213.718049 161.984967 
z
" style="fill:#5c272b;"/>
    <path clip-path="url(#p66ee191aa8)" d="M 258.898031 166.762758 
L 265.814761 160.252323 
L 266.460477 128.868867 
L 259.44116 135.184509 
z
" style="fill:#460e3f;"/>
    <path clip-path="url(#p66ee191aa8)" d="M 233.646428 127.022686 
L 246.481232 130.640727 
L 253.586673 124.398812 
L 240.832922 120.847802 
z
" style="fill:#831c72;"/>
    <path clip-path="url(#p66ee191aa8)" d="M 213.718049 161.984967 
L 213.402134 102.07233 
L 220.904463 96.025924 
L 221.002748 155.562072 
z
" style="fill:#d67642;"/>
    <path clip-path="url(#p66ee191aa8)" d="M 271.803162 170.57712 
L 278.637155 163.996376 
L 291.597749 167.780781 
L 284.848695 174.43298 
z
" style="fill:#280156;"/>
    <path clip-path="url(#p66ee191aa8)" d="M 271.803162 170.57712 
L 272.062907 159.602118 
L 278.931524 153.088143 
L 278.637155 163.996376 
z
" style="fill:#42028e;"/>
    <path clip-path="url(#p66ee191aa8)" d="M 186.143392 171.330164 
L 193.780682 164.735494 
L 206.297214 168.527892 
L 198.736391 175.194243 
z
" style="fill:#753237;"/>
    <path clip-path="url(#p66ee191aa8)" d="M 193.780682 164.735494 
L 193.031937 115.451492 
L 200.717592 109.285991 
L 201.27732 158.262275 
z
" style="fill:#c3535a;"/>
    <path clip-path="url(#p66ee191aa8)" d="M 246.131049 162.989229 
L 258.898031 166.762758 
L 259.44116 135.184509 
L 246.471673 131.523661 
z
" style="fill:#941d85;"/>
    <path clip-path="url(#p66ee191aa8)" d="M 291.597749 167.780781 
L 291.79965 161.752107 
L 304.941329 165.556305 
L 304.698789 171.606197 
z
" style="fill:#14023e;"/>
    <path clip-path="url(#p66ee191aa8)" d="M 218.949524 172.361429 
L 226.292478 165.747667 
L 239.002775 169.551023 
L 231.739835 176.23678 
z
" style="fill:#867213;"/>
    <path clip-path="url(#p66ee191aa8)" d="M 186.143392 171.330164 
L 193.780682 164.735494 
L 193.518778 147.496387 
L 185.812933 153.984994 
z
" style="fill:#2c0046;"/>
    <path clip-path="url(#p66ee191aa8)" d="M 200.80005 116.501027 
L 213.497052 120.073335 
L 220.933987 113.910398 
L 208.31523 110.404484 
z
" style="fill:#9b355d;"/>
    <path clip-path="url(#p66ee191aa8)" d="M 271.803162 170.57712 
L 278.637155 163.996376 
L 279.252662 141.187921 
L 272.346302 147.627785 
z
" style="fill:#370245;"/>
    <path clip-path="url(#p66ee191aa8)" d="M 251.851153 173.395697 
L 258.898031 166.762758 
L 271.803162 170.57712 
L 264.839875 177.282368 
z
" style="fill:#86561e;"/>
    <path clip-path="url(#p66ee191aa8)" d="M 173.686069 167.507715 
L 173.293455 151.938745 
L 185.845721 155.706003 
L 186.143392 171.330164 
z
" style="fill:#280045;"/>
    <path clip-path="url(#p66ee191aa8)" d="M 284.848695 174.43298 
L 285.032054 168.36749 
L 291.79965 161.752107 
L 291.597749 167.780781 
z
" style="fill:#2a0484;"/>
    <path clip-path="url(#p66ee191aa8)" d="M 173.250211 150.223894 
L 185.812933 153.984994 
L 193.518778 147.496387 
L 181.0317 143.805278 
z
" style="fill:#500081;"/>
    <path clip-path="url(#p66ee191aa8)" d="M 173.686069 167.507715 
L 186.143392 171.330164 
L 185.812933 153.984994 
L 173.250211 150.223894 
z
" style="fill:#5d0094;"/>
    <path clip-path="url(#p66ee191aa8)" d="M 246.471673 131.523661 
L 259.44116 135.184509 
L 266.460477 128.868867 
L 253.574166 125.276179 
z
" style="fill:#801974;"/>
    <path clip-path="url(#p66ee191aa8)" d="M 258.898031 166.762758 
L 271.803162 170.57712 
L 272.346302 147.627785 
L 259.291346 143.894915 
z
" style="fill:#750593;"/>
    <path clip-path="url(#p66ee191aa8)" d="M 165.82912 174.154745 
L 173.686069 167.507715 
L 186.143392 171.330164 
L 178.361455 178.049733 
z
" style="fill:#340059;"/>
    <path clip-path="url(#p66ee191aa8)" d="M 226.292478 165.747667 
L 233.500008 159.25588 
L 233.771438 99.50281 
L 226.350927 105.616005 
z
" style="fill:#65381f;"/>
    <path clip-path="url(#p66ee191aa8)" d="M 233.500008 159.25588 
L 233.80977 91.064337 
L 246.871955 94.547212 
L 246.131049 162.989229 
z
" style="fill:#694616;"/>
    <path clip-path="url(#p66ee191aa8)" d="M 284.848695 174.43298 
L 291.597749 167.780781 
L 304.698789 171.606197 
L 298.036935 178.33102 
z
" style="fill:#190350;"/>
    <path clip-path="url(#p66ee191aa8)" d="M 284.848695 174.43298 
L 291.597749 167.780781 
L 291.964356 156.834071 
L 285.181641 163.419165 
z
" style="fill:#1f0143;"/>
    <path clip-path="url(#p66ee191aa8)" d="M 272.062907 159.602118 
L 285.181641 163.419165 
L 291.964356 156.834071 
L 278.931524 153.088143 
z
" style="fill:#39027b;"/>
    <path clip-path="url(#p66ee191aa8)" d="M 259.291346 143.894915 
L 272.346302 147.627785 
L 279.252662 141.187921 
L 266.282384 137.524632 
z
" style="fill:#650480;"/>
    <path clip-path="url(#p66ee191aa8)" d="M 165.82912 174.154745 
L 165.371302 158.490005 
L 173.293455 151.938745 
L 173.686069 167.507715 
z
" style="fill:#560093;"/>
    <path clip-path="url(#p66ee191aa8)" d="M 198.736391 175.194243 
L 206.297214 168.527892 
L 218.949524 172.361429 
L 211.467294 179.100638 
z
" style="fill:#876616;"/>
    <path clip-path="url(#p66ee191aa8)" d="M 206.297214 168.527892 
L 213.718049 161.984967 
L 213.458865 112.831377 
L 205.852714 119.064904 
z
" style="fill:#5c272b;"/>
    <path clip-path="url(#p66ee191aa8)" d="M 213.718049 161.984967 
L 226.292478 165.747667 
L 226.350927 105.616005 
L 213.402134 102.07233 
z
" style="fill:#d67642;"/>
    <path clip-path="url(#p66ee191aa8)" d="M 226.292478 165.747667 
L 226.359184 97.121394 
L 233.80977 91.064337 
L 233.500008 159.25588 
z
" style="fill:#df942f;"/>
    <path clip-path="url(#p66ee191aa8)" d="M 271.803162 170.57712 
L 284.848695 174.43298 
L 285.181641 163.419165 
L 272.062907 159.602118 
z
" style="fill:#42028e;"/>
    <path clip-path="url(#p66ee191aa8)" d="M 231.739835 176.23678 
L 239.002775 169.551023 
L 251.851153 173.395697 
L 244.670417 180.154631 
z
" style="fill:#866f14;"/>
    <path clip-path="url(#p66ee191aa8)" d="M 285.032054 168.36749 
L 298.261482 172.24413 
L 304.941329 165.556305 
L 291.79965 161.752107 
z
" style="fill:#240473;"/>
    <path clip-path="url(#p66ee191aa8)" d="M 193.780682 164.735494 
L 193.038406 115.877263 
L 205.856554 119.492277 
L 206.297214 168.527892 
z
" style="fill:#5c272b;"/>
    <path clip-path="url(#p66ee191aa8)" d="M 193.780682 164.735494 
L 206.297214 168.527892 
L 205.852714 119.064904 
L 193.031937 115.451492 
z
" style="fill:#c3535a;"/>
    <path clip-path="url(#p66ee191aa8)" d="M 264.839875 177.282368 
L 271.803162 170.57712 
L 284.848695 174.43298 
L 277.971253 181.211726 
z
" style="fill:#753137;"/>
    <path clip-path="url(#p66ee191aa8)" d="M 213.718049 161.984967 
L 213.350589 92.296974 
L 226.360465 95.803089 
L 226.292478 165.747667 
z
" style="fill:#694815;"/>
    <path clip-path="url(#p66ee191aa8)" d="M 298.036935 178.33102 
L 304.698789 171.606197 
L 304.941329 165.556305 
L 298.261482 172.24413 
z
" style="fill:#14023e;"/>
    <path clip-path="url(#p66ee191aa8)" d="M 178.361455 178.049733 
L 186.143392 171.330164 
L 198.736391 175.194243 
L 191.031582 181.987547 
z
" style="fill:#773535;"/>
    <path clip-path="url(#p66ee191aa8)" d="M 186.143392 171.330164 
L 185.206682 122.164085 
L 193.038406 115.877263 
L 193.780682 164.735494 
z
" style="fill:#c2525b;"/>
    <path clip-path="url(#p66ee191aa8)" d="M 246.131049 162.989229 
L 246.868478 94.868441 
L 260.073982 98.391323 
L 258.898031 166.762758 
z
" style="fill:#694516;"/>
    <path clip-path="url(#p66ee191aa8)" d="M 284.848695 174.43298 
L 298.036935 178.33102 
L 298.261482 172.24413 
L 285.032054 168.36749 
z
" style="fill:#2a0484;"/>
    <path clip-path="url(#p66ee191aa8)" d="M 178.361455 178.049733 
L 186.143392 171.330164 
L 185.845721 155.706003 
L 177.999716 162.32932 
z
" style="fill:#280045;"/>
    <path clip-path="url(#p66ee191aa8)" d="M 206.297214 168.527892 
L 205.666959 98.394564 
L 213.350589 92.296974 
L 213.718049 161.984967 
z
" style="fill:#df992c;"/>
    <path clip-path="url(#p66ee191aa8)" d="M 211.467294 179.100638 
L 218.949524 172.361429 
L 231.739835 176.23678 
L 224.338378 183.050047 
z
" style="fill:#808512;"/>
    <path clip-path="url(#p66ee191aa8)" d="M 239.002775 169.551023 
L 239.503796 100.995208 
L 246.868478 94.868441 
L 246.131049 162.989229 
z
" style="fill:#df9330;"/>
    <path clip-path="url(#p66ee191aa8)" d="M 239.002775 169.551023 
L 246.131049 162.989229 
L 246.871955 94.547212 
L 239.50616 100.671825 
z
" style="fill:#694616;"/>
    <path clip-path="url(#p66ee191aa8)" d="M 165.371302 158.490005 
L 177.999716 162.32932 
L 185.845721 155.706003 
L 173.293455 151.938745 
z
" style="fill:#4a0080;"/>
    <path clip-path="url(#p66ee191aa8)" d="M 165.82912 174.154745 
L 165.413219 159.924231 
L 178.032838 163.768699 
L 178.361455 178.049733 
z
" style="fill:#260045;"/>
    <path clip-path="url(#p66ee191aa8)" d="M 244.670417 180.154631 
L 251.851153 173.395697 
L 264.839875 177.282368 
L 257.743589 184.115686 
z
" style="fill:#857613;"/>
    <path clip-path="url(#p66ee191aa8)" d="M 165.82912 174.154745 
L 178.361455 178.049733 
L 177.999716 162.32932 
L 165.371302 158.490005 
z
" style="fill:#560093;"/>
    <path clip-path="url(#p66ee191aa8)" d="M 157.822766 180.928173 
L 165.82912 174.154745 
L 178.361455 178.049733 
L 170.430723 184.897786 
z
" style="fill:#300158;"/>
    <path clip-path="url(#p66ee191aa8)" d="M 226.292478 165.747667 
L 239.002775 169.551023 
L 239.50616 100.671825 
L 226.359184 97.121394 
z
" style="fill:#df942f;"/>
    <path clip-path="url(#p66ee191aa8)" d="M 277.971253 181.211726 
L 284.848695 174.43298 
L 298.036935 178.33102 
L 291.24765 185.184478 
z
" style="fill:#41015a;"/>
    <path clip-path="url(#p66ee191aa8)" d="M 157.822766 180.928173 
L 157.345425 166.609995 
L 165.413219 159.924231 
L 165.82912 174.154745 
z
" style="fill:#500192;"/>
    <path clip-path="url(#p66ee191aa8)" d="M 284.848695 174.43298 
L 285.480262 153.540795 
L 298.810403 157.364275 
L 298.036935 178.33102 
z
" style="fill:#330146;"/>
    <path clip-path="url(#p66ee191aa8)" d="M 258.898031 166.762758 
L 260.053635 99.574355 
L 273.399162 103.141238 
L 271.803162 170.57712 
z
" style="fill:#694418;"/>
    <path clip-path="url(#p66ee191aa8)" d="M 193.031937 115.451492 
L 205.852714 119.064904 
L 213.458865 112.831377 
L 200.717592 109.285991 
z
" style="fill:#a9484e;"/>
    <path clip-path="url(#p66ee191aa8)" d="M 191.031582 181.987547 
L 198.736391 175.194243 
L 211.467294 179.100638 
L 203.841786 185.968896 
z
" style="fill:#876c14;"/>
    <path clip-path="url(#p66ee191aa8)" d="M 198.736391 175.194243 
L 206.297214 168.527892 
L 205.856554 119.492277 
L 198.105014 125.849116 
z
" style="fill:#5c272b;"/>
    <path clip-path="url(#p66ee191aa8)" d="M 271.803162 170.57712 
L 272.961325 121.64117 
L 286.333404 125.318907 
L 284.848695 174.43298 
z
" style="fill:#5b262b;"/>
    <path clip-path="url(#p66ee191aa8)" d="M 213.402134 102.07233 
L 226.350927 105.616005 
L 233.771438 99.50281 
L 220.904463 96.025924 
z
" style="fill:#ba6639;"/>
    <path clip-path="url(#p66ee191aa8)" d="M 218.949524 172.361429 
L 226.292478 165.747667 
L 226.360465 95.803089 
L 218.760212 101.96901 
z
" style="fill:#694815;"/>
    <path clip-path="url(#p66ee191aa8)" d="M 226.292478 165.747667 
L 226.369069 86.951216 
L 239.580775 90.462003 
L 239.002775 169.551023 
z
" style="fill:#68590f;"/>
    <path clip-path="url(#p66ee191aa8)" d="M 277.971253 181.211726 
L 278.536418 160.19016 
L 285.480262 153.540795 
L 284.848695 174.43298 
z
" style="fill:#6c0295;"/>
    <path clip-path="url(#p66ee191aa8)" d="M 224.338378 183.050047 
L 231.739835 176.23678 
L 244.670417 180.154631 
L 237.351973 187.043183 
z
" style="fill:#857714;"/>
    <path clip-path="url(#p66ee191aa8)" d="M 251.851153 173.395697 
L 252.78007 105.777773 
L 260.053635 99.574355 
L 258.898031 166.762758 
z
" style="fill:#de8f32;"/>
    <path clip-path="url(#p66ee191aa8)" d="M 186.143392 171.330164 
L 198.736391 175.194243 
L 198.105014 125.849116 
L 185.206682 122.164085 
z
" style="fill:#c2525b;"/>
    <path clip-path="url(#p66ee191aa8)" d="M 251.851153 173.395697 
L 258.898031 166.762758 
L 260.073982 98.391323 
L 252.796432 104.586797 
z
" style="fill:#694516;"/>
    <path clip-path="url(#p66ee191aa8)" d="M 186.143392 171.330164 
L 185.175462 120.525402 
L 198.083967 124.204239 
L 198.736391 175.194243 
z
" style="fill:#5d2929;"/>
    <path clip-path="url(#p66ee191aa8)" d="M 264.839875 177.282368 
L 265.837709 128.037292 
L 272.961325 121.64117 
L 271.803162 170.57712 
z
" style="fill:#c2515c;"/>
    <path clip-path="url(#p66ee191aa8)" d="M 257.743589 184.115686 
L 264.839875 177.282368 
L 277.971253 181.211726 
L 270.961723 188.120663 
z
" style="fill:#857413;"/>
    <path clip-path="url(#p66ee191aa8)" d="M 206.297214 168.527892 
L 218.949524 172.361429 
L 218.760212 101.96901 
L 205.666959 98.394564 
z
" style="fill:#df992c;"/>
    <path clip-path="url(#p66ee191aa8)" d="M 218.949524 172.361429 
L 218.736245 93.057178 
L 226.369069 86.951216 
L 226.292478 165.747667 
z
" style="fill:#ddbe20;"/>
    <path clip-path="url(#p66ee191aa8)" d="M 170.430723 184.897786 
L 178.361455 178.049733 
L 191.031582 181.987547 
L 183.178635 188.911464 
z
" style="fill:#763236;"/>
    <path clip-path="url(#p66ee191aa8)" d="M 206.297214 168.527892 
L 205.632825 94.596205 
L 218.749957 98.155856 
L 218.949524 172.361429 
z
" style="fill:#6a4f11;"/>
    <path clip-path="url(#p66ee191aa8)" d="M 239.002775 169.551023 
L 251.851153 173.395697 
L 252.796432 104.586797 
L 239.503796 100.995208 
z
" style="fill:#df9330;"/>
    <path clip-path="url(#p66ee191aa8)" d="M 157.822766 180.928173 
L 157.680778 176.669129 
L 170.315011 180.623703 
L 170.430723 184.897786 
z
" style="fill:#10023d;"/>
    <path clip-path="url(#p66ee191aa8)" d="M 178.361455 178.049733 
L 177.185001 126.92349 
L 185.175462 120.525402 
L 186.143392 171.330164 
z
" style="fill:#c65757;"/>
    <path clip-path="url(#p66ee191aa8)" d="M 170.430723 184.897786 
L 178.361455 178.049733 
L 178.032838 163.768699 
L 170.04171 170.528652 
z
" style="fill:#260045;"/>
    <path clip-path="url(#p66ee191aa8)" d="M 203.841786 185.968896 
L 211.467294 179.100638 
L 224.338378 183.050047 
L 216.794403 189.994506 
z
" style="fill:#837c14;"/>
    <path clip-path="url(#p66ee191aa8)" d="M 157.345425 166.609995 
L 170.04171 170.528652 
L 178.032838 163.768699 
L 165.413219 159.924231 
z
" style="fill:#46017f;"/>
    <path clip-path="url(#p66ee191aa8)" d="M 198.736391 175.194243 
L 197.784343 100.787195 
L 205.632825 94.596205 
L 206.297214 168.527892 
z
" style="fill:#e0a825;"/>
    <path clip-path="url(#p66ee191aa8)" d="M 149.662704 187.831639 
L 149.501763 183.546502 
L 157.680778 176.669129 
L 157.822766 180.928173 
z
" style="fill:#210581;"/>
    <path clip-path="url(#p66ee191aa8)" d="M 239.002775 169.551023 
L 239.571751 91.696897 
L 252.924668 95.252192 
L 251.851153 173.395697 
z
" style="fill:#69570f;"/>
    <path clip-path="url(#p66ee191aa8)" d="M 157.822766 180.928173 
L 170.430723 184.897786 
L 170.04171 170.528652 
L 157.345425 166.609995 
z
" style="fill:#500192;"/>
    <path clip-path="url(#p66ee191aa8)" d="M 291.24765 185.184478 
L 298.036935 178.33102 
L 298.810403 157.364275 
L 291.956652 164.087701 
z
" style="fill:#330146;"/>
    <path clip-path="url(#p66ee191aa8)" d="M 237.351973 187.043183 
L 244.670417 180.154631 
L 257.743589 184.115686 
L 250.510457 191.080779 
z
" style="fill:#876c14;"/>
    <path clip-path="url(#p66ee191aa8)" d="M 264.839875 177.282368 
L 271.803162 170.57712 
L 273.399162 103.141238 
L 266.215055 109.414574 
z
" style="fill:#694418;"/>
    <path clip-path="url(#p66ee191aa8)" d="M 149.662704 187.831639 
L 157.822766 180.928173 
L 170.430723 184.897786 
L 162.346885 191.878042 
z
" style="fill:#14034e;"/>
    <path clip-path="url(#p66ee191aa8)" d="M 277.971253 181.211726 
L 284.848695 174.43298 
L 286.333404 125.318907 
L 279.300041 131.786871 
z
" style="fill:#5b262b;"/>
    <path clip-path="url(#p66ee191aa8)" d="M 270.961723 188.120663 
L 277.971253 181.211726 
L 291.24765 185.184478 
L 284.327244 192.170297 
z
" style="fill:#7d3e2e;"/>
    <path clip-path="url(#p66ee191aa8)" d="M 231.739835 176.23678 
L 232.029829 97.880396 
L 239.571751 91.696897 
L 239.002775 169.551023 
z
" style="fill:#deb821;"/>
    <path clip-path="url(#p66ee191aa8)" d="M 231.739835 176.23678 
L 239.002775 169.551023 
L 239.580775 90.462003 
L 232.034431 96.637072 
z
" style="fill:#68590f;"/>
    <path clip-path="url(#p66ee191aa8)" d="M 277.971253 181.211726 
L 291.24765 185.184478 
L 291.956652 164.087701 
L 278.536418 160.19016 
z
" style="fill:#6c0295;"/>
    <path clip-path="url(#p66ee191aa8)" d="M 185.206682 122.164085 
L 198.105014 125.849116 
L 205.856554 119.492277 
L 193.038406 115.877263 
z
" style="fill:#a9474f;"/>
    <path clip-path="url(#p66ee191aa8)" d="M 278.536418 160.19016 
L 291.956652 164.087701 
L 298.810403 157.364275 
L 285.480262 153.540795 
z
" style="fill:#5d0181;"/>
    <path clip-path="url(#p66ee191aa8)" d="M 251.851153 173.395697 
L 264.839875 177.282368 
L 266.215055 109.414574 
L 252.78007 105.777773 
z
" style="fill:#de8f32;"/>
    <path clip-path="url(#p66ee191aa8)" d="M 183.178635 188.911464 
L 191.031582 181.987547 
L 203.841786 185.968896 
L 196.068846 192.969946 
z
" style="fill:#876616;"/>
    <path clip-path="url(#p66ee191aa8)" d="M 191.031582 181.987547 
L 198.736391 175.194243 
L 198.083967 124.204239 
L 190.174524 130.674336 
z
" style="fill:#5d2929;"/>
    <path clip-path="url(#p66ee191aa8)" d="M 149.501763 183.546502 
L 162.212535 187.577742 
L 170.315011 180.623703 
L 157.680778 176.669129 
z
" style="fill:#1d0470;"/>
    <path clip-path="url(#p66ee191aa8)" d="M 264.839875 177.282368 
L 277.971253 181.211726 
L 279.300041 131.786871 
L 265.837709 128.037292 
z
" style="fill:#c2515c;"/>
    <path clip-path="url(#p66ee191aa8)" d="M 226.359184 97.121394 
L 239.50616 100.671825 
L 246.871955 94.547212 
L 233.80977 91.064337 
z
" style="fill:#c18129;"/>
    <path clip-path="url(#p66ee191aa8)" d="M 218.949524 172.361429 
L 231.739835 176.23678 
L 232.034431 96.637072 
L 218.736245 93.057178 
z
" style="fill:#ddbe20;"/>
    <path clip-path="url(#p66ee191aa8)" d="M 216.794403 189.994506 
L 224.338378 183.050047 
L 237.351973 187.043183 
L 229.891821 194.06512 
z
" style="fill:#857613;"/>
    <path clip-path="url(#p66ee191aa8)" d="M 211.467294 179.100638 
L 218.949524 172.361429 
L 218.749957 98.155856 
L 210.985945 104.417034 
z
" style="fill:#6a4f11;"/>
    <path clip-path="url(#p66ee191aa8)" d="M 178.361455 178.049733 
L 177.212254 128.107871 
L 190.194381 131.863212 
L 191.031582 181.987547 
z
" style="fill:#5c272b;"/>
    <path clip-path="url(#p66ee191aa8)" d="M 162.346885 191.878042 
L 170.430723 184.897786 
L 170.315011 180.623703 
L 162.212535 187.577742 
z
" style="fill:#10023d;"/>
    <path clip-path="url(#p66ee191aa8)" d="M 178.361455 178.049733 
L 191.031582 181.987547 
L 190.174524 130.674336 
L 177.185001 126.92349 
z
" style="fill:#c65757;"/>
    <path clip-path="url(#p66ee191aa8)" d="M 250.510457 191.080779 
L 257.743589 184.115686 
L 270.961723 188.120663 
L 263.816264 195.163579 
z
" style="fill:#876317;"/>
    <path clip-path="url(#p66ee191aa8)" d="M 218.949524 172.361429 
L 218.717164 85.962506 
L 232.060792 89.514293 
L 231.739835 176.23678 
z
" style="fill:#64680e;"/>
    <path clip-path="url(#p66ee191aa8)" d="M 251.851153 173.395697 
L 252.961595 92.564198 
L 266.483845 96.149246 
L 264.839875 177.282368 
z
" style="fill:#685c0f;"/>
    <path clip-path="url(#p66ee191aa8)" d="M 149.662704 187.831639 
L 149.625457 186.839898 
L 162.315791 190.882801 
L 162.346885 191.878042 
z
" style="fill:#050338;"/>
    <path clip-path="url(#p66ee191aa8)" d="M 162.346885 191.878042 
L 170.430723 184.897786 
L 183.178635 188.911464 
L 175.173234 195.969799 
z
" style="fill:#581051;"/>
    <path clip-path="url(#p66ee191aa8)" d="M 198.736391 175.194243 
L 211.467294 179.100638 
L 210.985945 104.417034 
L 197.784343 100.787195 
z
" style="fill:#e0a825;"/>
    <path clip-path="url(#p66ee191aa8)" d="M 170.430723 184.897786 
L 169.070084 134.639258 
L 177.212254 128.107871 
L 178.361455 178.049733 
z
" style="fill:#c3535a;"/>
    <path clip-path="url(#p66ee191aa8)" d="M 149.662704 187.831639 
L 162.346885 191.878042 
L 162.212535 187.577742 
L 149.501763 183.546502 
z
" style="fill:#210581;"/>
    <path clip-path="url(#p66ee191aa8)" d="M 244.670417 180.154631 
L 251.851153 173.395697 
L 252.924668 95.252192 
L 245.47158 101.506031 
z
" style="fill:#69570f;"/>
    <path clip-path="url(#p66ee191aa8)" d="M 198.736391 175.194243 
L 197.755271 98.515052 
L 210.971243 102.135967 
L 211.467294 179.100638 
z
" style="fill:#695410;"/>
    <path clip-path="url(#p66ee191aa8)" d="M 211.467294 179.100638 
L 210.906818 92.140114 
L 218.717164 85.962506 
L 218.949524 172.361429 
z
" style="fill:#d4dc1e;"/>
    <path clip-path="url(#p66ee191aa8)" d="M 244.670417 180.154631 
L 245.499149 98.799625 
L 252.961595 92.564198 
L 251.851153 173.395697 
z
" style="fill:#dcc420;"/>
    <path clip-path="url(#p66ee191aa8)" d="M 196.068846 192.969946 
L 203.841786 185.968896 
L 216.794403 189.994506 
L 209.103753 197.073984 
z
" style="fill:#818115;"/>
    <path clip-path="url(#p66ee191aa8)" d="M 141.344465 194.868925 
L 141.302667 193.871111 
L 149.625457 186.839898 
L 149.662704 187.831639 
z
" style="fill:#0b0777;"/>
    <path clip-path="url(#p66ee191aa8)" d="M 205.666959 98.394564 
L 218.760212 101.96901 
L 226.360465 95.803089 
L 213.350589 92.296974 
z
" style="fill:#c28526;"/>
    <path clip-path="url(#p66ee191aa8)" d="M 239.503796 100.995208 
L 252.796432 104.586797 
L 260.073982 98.391323 
L 246.868478 94.868441 
z
" style="fill:#c18029;"/>
    <path clip-path="url(#p66ee191aa8)" d="M 231.739835 176.23678 
L 244.670417 180.154631 
L 245.47158 101.506031 
L 232.029829 97.880396 
z
" style="fill:#deb821;"/>
    <path clip-path="url(#p66ee191aa8)" d="M 191.031582 181.987547 
L 189.742574 104.812878 
L 197.755271 98.515052 
L 198.736391 175.194243 
z
" style="fill:#dfb222;"/>
    <path clip-path="url(#p66ee191aa8)" d="M 229.891821 194.06512 
L 237.351973 187.043183 
L 250.510457 191.080779 
L 243.136481 198.181496 
z
" style="fill:#876b15;"/>
    <path clip-path="url(#p66ee191aa8)" d="M 170.430723 184.897786 
L 169.582196 153.55538 
L 182.527112 157.455878 
L 183.178635 188.911464 
z
" style="fill:#450d40;"/>
    <path clip-path="url(#p66ee191aa8)" d="M 231.739835 176.23678 
L 232.040596 94.971329 
L 245.501331 98.585465 
L 244.670417 180.154631 
z
" style="fill:#685d0f;"/>
    <path clip-path="url(#p66ee191aa8)" d="M 141.344465 194.868925 
L 149.662704 187.831639 
L 162.346885 191.878042 
L 154.105465 198.994368 
z
" style="fill:#070448;"/>
    <path clip-path="url(#p66ee191aa8)" d="M 277.971253 181.211726 
L 279.484059 124.942246 
L 293.145656 128.708167 
L 291.24765 185.184478 
z
" style="fill:#623024;"/>
    <path clip-path="url(#p66ee191aa8)" d="M 265.837709 128.037292 
L 279.300041 131.786871 
L 286.333404 125.318907 
L 272.961325 121.64117 
z
" style="fill:#a84650;"/>
    <path clip-path="url(#p66ee191aa8)" d="M 263.816264 195.163579 
L 270.961723 188.120663 
L 284.327244 192.170297 
L 277.271882 199.292348 
z
" style="fill:#86541f;"/>
    <path clip-path="url(#p66ee191aa8)" d="M 264.839875 177.282368 
L 266.466618 96.999437 
L 280.137725 100.628834 
L 277.971253 181.211726 
z
" style="fill:#685b0f;"/>
    <path clip-path="url(#p66ee191aa8)" d="M 141.302667 193.871111 
L 154.069895 197.993025 
L 162.315791 190.882801 
L 149.625457 186.839898 
z
" style="fill:#0a0667;"/>
    <path clip-path="url(#p66ee191aa8)" d="M 162.346885 191.878042 
L 161.361548 160.33924 
L 169.582196 153.55538 
L 170.430723 184.897786 
z
" style="fill:#911b87;"/>
    <path clip-path="url(#p66ee191aa8)" d="M 224.338378 183.050047 
L 224.338378 101.25746 
L 232.040596 94.971329 
L 231.739835 176.23678 
z
" style="fill:#dbc520;"/>
    <path clip-path="url(#p66ee191aa8)" d="M 175.173234 195.969799 
L 183.178635 188.911464 
L 196.068846 192.969946 
L 188.144156 200.107676 
z
" style="fill:#86591d;"/>
    <path clip-path="url(#p66ee191aa8)" d="M 183.178635 188.911464 
L 191.031582 181.987547 
L 190.194381 131.863212 
L 182.133843 138.468787 
z
" style="fill:#5c272b;"/>
    <path clip-path="url(#p66ee191aa8)" d="M 177.185001 126.92349 
L 190.174524 130.674336 
L 198.083967 124.204239 
L 185.175462 120.525402 
z
" style="fill:#ac4c4c;"/>
    <path clip-path="url(#p66ee191aa8)" d="M 270.961723 188.120663 
L 272.289802 131.492241 
L 279.484059 124.942246 
L 277.971253 181.211726 
z
" style="fill:#cf664c;"/>
    <path clip-path="url(#p66ee191aa8)" d="M 162.346885 191.878042 
L 162.147725 185.503308 
L 175.014393 189.572444 
L 175.173234 195.969799 
z
" style="fill:#15023f;"/>
    <path clip-path="url(#p66ee191aa8)" d="M 257.743589 184.115686 
L 259.098643 103.312139 
L 266.466618 96.999437 
L 264.839875 177.282368 
z
" style="fill:#ddc120;"/>
    <path clip-path="url(#p66ee191aa8)" d="M 224.338378 183.050047 
L 231.739835 176.23678 
L 232.060792 89.514293 
L 224.338378 95.762755 
z
" style="fill:#64680e;"/>
    <path clip-path="url(#p66ee191aa8)" d="M 257.743589 184.115686 
L 264.839875 177.282368 
L 266.483845 96.149246 
L 259.112998 102.456104 
z
" style="fill:#685c0f;"/>
    <path clip-path="url(#p66ee191aa8)" d="M 209.103753 197.073984 
L 216.794403 189.994506 
L 229.891821 194.06512 
L 222.285805 201.224351 
z
" style="fill:#837c14;"/>
    <path clip-path="url(#p66ee191aa8)" d="M 154.105465 198.994368 
L 162.346885 191.878042 
L 162.315791 190.882801 
L 154.069895 197.993025 
z
" style="fill:#050338;"/>
    <path clip-path="url(#p66ee191aa8)" d="M 252.78007 105.777773 
L 266.215055 109.414574 
L 273.399162 103.141238 
L 260.053635 99.574355 
z
" style="fill:#c17c2b;"/>
    <path clip-path="url(#p66ee191aa8)" d="M 170.430723 184.897786 
L 183.178635 188.911464 
L 182.133843 138.468787 
L 169.070084 134.639258 
z
" style="fill:#c3535a;"/>
    <path clip-path="url(#p66ee191aa8)" d="M 244.670417 180.154631 
L 245.458675 102.772929 
L 259.046103 106.445135 
L 257.743589 184.115686 
z
" style="fill:#695510;"/>
    <path clip-path="url(#p66ee191aa8)" d="M 211.467294 179.100638 
L 210.927238 95.308403 
L 224.338378 98.943684 
L 224.338378 183.050047 
z
" style="fill:#666110;"/>
    <path clip-path="url(#p66ee191aa8)" d="M 203.841786 185.968896 
L 211.467294 179.100638 
L 210.971243 102.135967 
L 203.043991 108.505979 
z
" style="fill:#695410;"/>
    <path clip-path="url(#p66ee191aa8)" d="M 154.105465 198.994368 
L 153.877622 192.580385 
L 162.147725 185.503308 
L 162.346885 191.878042 
z
" style="fill:#2c0485;"/>
    <path clip-path="url(#p66ee191aa8)" d="M 243.136481 198.181496 
L 250.510457 191.080779 
L 263.816264 195.163579 
L 256.530882 202.34441 
z
" style="fill:#855221;"/>
    <path clip-path="url(#p66ee191aa8)" d="M 211.467294 179.100638 
L 224.338378 183.050047 
L 224.338378 95.762755 
L 210.906818 92.140114 
z
" style="fill:#d4dc1e;"/>
    <path clip-path="url(#p66ee191aa8)" d="M 244.670417 180.154631 
L 257.743589 184.115686 
L 259.112998 102.456104 
L 245.499149 98.799625 
z
" style="fill:#dcc420;"/>
    <path clip-path="url(#p66ee191aa8)" d="M 141.344465 194.868925 
L 154.105465 198.994368 
L 154.069895 197.993025 
L 141.302667 193.871111 
z
" style="fill:#0b0777;"/>
    <path clip-path="url(#p66ee191aa8)" d="M 154.105465 198.994368 
L 162.346885 191.878042 
L 175.173234 195.969799 
L 167.010898 203.166503 
z
" style="fill:#1a0250;"/>
    <path clip-path="url(#p66ee191aa8)" d="M 191.031582 181.987547 
L 189.777252 106.88909 
L 203.065458 110.59038 
L 203.841786 185.968896 
z
" style="fill:#6a5011;"/>
    <path clip-path="url(#p66ee191aa8)" d="M 237.351973 187.043183 
L 237.861527 109.160163 
L 245.458675 102.772929 
L 244.670417 180.154631 
z
" style="fill:#dfb321;"/>
    <path clip-path="url(#p66ee191aa8)" d="M 203.841786 185.968896 
L 202.973189 101.631453 
L 210.927238 95.308403 
L 211.467294 179.100638 
z
" style="fill:#d9ce22;"/>
    <path clip-path="url(#p66ee191aa8)" d="M 191.031582 181.987547 
L 203.841786 185.968896 
L 203.043991 108.505979 
L 189.742574 104.812878 
z
" style="fill:#dfb222;"/>
    <path clip-path="url(#p66ee191aa8)" d="M 175.173234 195.969799 
L 183.178635 188.911464 
L 182.527112 157.455878 
L 174.387319 164.316829 
z
" style="fill:#450d40;"/>
    <path clip-path="url(#p66ee191aa8)" d="M 237.351973 187.043183 
L 244.670417 180.154631 
L 245.501331 98.585465 
L 237.889112 104.943918 
z
" style="fill:#685d0f;"/>
    <path clip-path="url(#p66ee191aa8)" d="M 188.144156 200.107676 
L 196.068846 192.969946 
L 209.103753 197.073984 
L 201.262108 204.292457 
z
" style="fill:#866f14;"/>
    <path clip-path="url(#p66ee191aa8)" d="M 218.736245 93.057178 
L 232.034431 96.637072 
L 239.580775 90.462003 
L 226.369069 86.951216 
z
" style="fill:#c0a51c;"/>
    <path clip-path="url(#p66ee191aa8)" d="M 284.327244 192.170297 
L 291.24765 185.184478 
L 293.145656 128.708167 
L 286.045844 135.333133 
z
" style="fill:#623024;"/>
    <path clip-path="url(#p66ee191aa8)" d="M 183.178635 188.911464 
L 181.613094 113.326951 
L 189.777252 106.88909 
L 191.031582 181.987547 
z
" style="fill:#e0aa24;"/>
    <path clip-path="url(#p66ee191aa8)" d="M 270.961723 188.120663 
L 277.971253 181.211726 
L 280.137725 100.628834 
L 272.863873 107.014238 
z
" style="fill:#685b0f;"/>
    <path clip-path="url(#p66ee191aa8)" d="M 257.743589 184.115686 
L 258.981827 110.278027 
L 272.699859 114.007674 
L 270.961723 188.120663 
z
" style="fill:#6a4d12;"/>
    <path clip-path="url(#p66ee191aa8)" d="M 222.285805 201.224351 
L 229.891821 194.06512 
L 243.136481 198.181496 
L 235.617509 205.421836 
z
" style="fill:#876616;"/>
    <path clip-path="url(#p66ee191aa8)" d="M 162.346885 191.878042 
L 175.173234 195.969799 
L 174.387319 164.316829 
L 161.361548 160.33924 
z
" style="fill:#911b87;"/>
    <path clip-path="url(#p66ee191aa8)" d="M 153.877622 192.580385 
L 166.823865 196.729717 
L 175.014393 189.572444 
L 162.147725 185.503308 
z
" style="fill:#260473;"/>
    <path clip-path="url(#p66ee191aa8)" d="M 224.338378 183.050047 
L 224.338378 101.378571 
L 237.888317 105.06551 
L 237.351973 187.043183 
z
" style="fill:#685c0f;"/>
    <path clip-path="url(#p66ee191aa8)" d="M 224.338378 183.050047 
L 237.351973 187.043183 
L 237.889112 104.943918 
L 224.338378 101.25746 
z
" style="fill:#dbc520;"/>
    <path clip-path="url(#p66ee191aa8)" d="M 197.784343 100.787195 
L 210.985945 104.417034 
L 218.749957 98.155856 
L 205.632825 94.596205 
z
" style="fill:#c29220;"/>
    <path clip-path="url(#p66ee191aa8)" d="M 270.961723 188.120663 
L 284.327244 192.170297 
L 286.045844 135.333133 
L 272.289802 131.492241 
z
" style="fill:#cf664c;"/>
    <path clip-path="url(#p66ee191aa8)" d="M 167.010898 203.166503 
L 175.173234 195.969799 
L 175.014393 189.572444 
L 166.823865 196.729717 
z
" style="fill:#15023f;"/>
    <path clip-path="url(#p66ee191aa8)" d="M 256.530882 202.34441 
L 263.816264 195.163579 
L 277.271882 199.292348 
L 270.077576 206.554656 
z
" style="fill:#844e23;"/>
    <path clip-path="url(#p66ee191aa8)" d="M 257.743589 184.115686 
L 270.961723 188.120663 
L 272.863873 107.014238 
L 259.098643 103.312139 
z
" style="fill:#ddc120;"/>
    <path clip-path="url(#p66ee191aa8)" d="M 250.510457 191.080779 
L 251.490287 116.765276 
L 258.981827 110.278027 
L 257.743589 184.115686 
z
" style="fill:#e0a427;"/>
    <path clip-path="url(#p66ee191aa8)" d="M 216.794403 189.994506 
L 216.482167 107.791597 
L 224.338378 101.378571 
L 224.338378 183.050047 
z
" style="fill:#dcc420;"/>
    <path clip-path="url(#p66ee191aa8)" d="M 169.070084 134.639258 
L 182.133843 138.468787 
L 190.194381 131.863212 
L 177.212254 128.107871 
z
" style="fill:#a9484e;"/>
    <path clip-path="url(#p66ee191aa8)" d="M 167.010898 203.166503 
L 175.173234 195.969799 
L 188.144156 200.107676 
L 180.063228 207.386128 
z
" style="fill:#5d154e;"/>
    <path clip-path="url(#p66ee191aa8)" d="M 250.510457 191.080779 
L 257.743589 184.115686 
L 259.046103 106.445135 
L 251.541168 112.906128 
z
" style="fill:#695510;"/>
    <path clip-path="url(#p66ee191aa8)" d="M 216.794403 189.994506 
L 224.338378 183.050047 
L 224.338378 98.943684 
L 216.472855 105.339871 
z
" style="fill:#666110;"/>
    <path clip-path="url(#p66ee191aa8)" d="M 161.361548 160.33924 
L 174.387319 164.316829 
L 182.527112 157.455878 
L 169.582196 153.55538 
z
" style="fill:#7e1875;"/>
    <path clip-path="url(#p66ee191aa8)" d="M 154.105465 198.994368 
L 167.010898 203.166503 
L 166.823865 196.729717 
L 153.877622 192.580385 
z
" style="fill:#2c0485;"/>
    <path clip-path="url(#p66ee191aa8)" d="M 270.961723 188.120663 
L 272.550608 120.371626 
L 286.383404 124.169405 
L 284.327244 192.170297 
z
" style="fill:#684219;"/>
    <path clip-path="url(#p66ee191aa8)" d="M 232.029829 97.880396 
L 245.47158 101.506031 
L 252.924668 95.252192 
L 239.571751 91.696897 
z
" style="fill:#c1a01c;"/>
    <path clip-path="url(#p66ee191aa8)" d="M 201.262108 204.292457 
L 209.103753 197.073984 
L 222.285805 201.224351 
L 214.529606 208.524945 
z
" style="fill:#857714;"/>
    <path clip-path="url(#p66ee191aa8)" d="M 237.351973 187.043183 
L 237.857935 109.70926 
L 251.5339 113.457401 
L 250.510457 191.080779 
z
" style="fill:#695310;"/>
    <path clip-path="url(#p66ee191aa8)" d="M 196.068846 192.969946 
L 203.841786 185.968896 
L 203.065458 110.59038 
L 194.987363 117.102697 
z
" style="fill:#6a5011;"/>
    <path clip-path="url(#p66ee191aa8)" d="M 237.351973 187.043183 
L 250.510457 191.080779 
L 251.541168 112.906128 
L 237.861527 109.160163 
z
" style="fill:#dfb321;"/>
    <path clip-path="url(#p66ee191aa8)" d="M 203.841786 185.968896 
L 216.794403 189.994506 
L 216.472855 105.339871 
L 202.973189 101.631453 
z
" style="fill:#d9ce22;"/>
    <path clip-path="url(#p66ee191aa8)" d="M 203.841786 185.968896 
L 202.958166 100.172751 
L 216.467292 103.875331 
L 216.794403 189.994506 
z
" style="fill:#656510;"/>
    <path clip-path="url(#p66ee191aa8)" d="M 183.178635 188.911464 
L 181.731687 119.052625 
L 195.069304 122.850916 
L 196.068846 192.969946 
z
" style="fill:#694516;"/>
    <path clip-path="url(#p66ee191aa8)" d="M 235.617509 205.421836 
L 243.136481 198.181496 
L 256.530882 202.34441 
L 249.101427 209.667246 
z
" style="fill:#844f23;"/>
    <path clip-path="url(#p66ee191aa8)" d="M 263.816264 195.163579 
L 265.175131 126.977456 
L 272.550608 120.371626 
L 270.961723 188.120663 
z
" style="fill:#dd8b34;"/>
    <path clip-path="url(#p66ee191aa8)" d="M 175.173234 195.969799 
L 174.315733 161.433707 
L 187.509264 165.446116 
L 188.144156 200.107676 
z
" style="fill:#49113d;"/>
    <path clip-path="url(#p66ee191aa8)" d="M 229.891821 194.06512 
L 230.109908 116.228839 
L 237.857935 109.70926 
L 237.351973 187.043183 
z
" style="fill:#dfb122;"/>
    <path clip-path="url(#p66ee191aa8)" d="M 183.178635 188.911464 
L 196.068846 192.969946 
L 194.987363 117.102697 
L 181.613094 113.326951 
z
" style="fill:#e0aa24;"/>
    <path clip-path="url(#p66ee191aa8)" d="M 196.068846 192.969946 
L 194.837836 106.613151 
L 202.958166 100.172751 
L 203.841786 185.968896 
z
" style="fill:#d6d622;"/>
    <path clip-path="url(#p66ee191aa8)" d="M 263.816264 195.163579 
L 270.961723 188.120663 
L 272.699859 114.007674 
L 265.302822 120.570131 
z
" style="fill:#6a4d12;"/>
    <path clip-path="url(#p66ee191aa8)" d="M 175.173234 195.969799 
L 173.427489 125.659407 
L 181.731687 119.052625 
L 183.178635 188.911464 
z
" style="fill:#df9330;"/>
    <path clip-path="url(#p66ee191aa8)" d="M 250.510457 191.080779 
L 251.388672 124.472247 
L 265.148627 128.30738 
L 263.816264 195.163579 
z
" style="fill:#68401a;"/>
    <path clip-path="url(#p66ee191aa8)" d="M 229.891821 194.06512 
L 237.351973 187.043183 
L 237.888317 105.06551 
L 230.123009 111.553057 
z
" style="fill:#685c0f;"/>
    <path clip-path="url(#p66ee191aa8)" d="M 180.063228 207.386128 
L 188.144156 200.107676 
L 201.262108 204.292457 
L 193.264978 211.654059 
z
" style="fill:#80432b;"/>
    <path clip-path="url(#p66ee191aa8)" d="M 167.010898 203.166503 
L 166.001062 168.412701 
L 174.315733 161.433707 
L 175.173234 195.969799 
z
" style="fill:#9a2381;"/>
    <path clip-path="url(#p66ee191aa8)" d="M 250.510457 191.080779 
L 263.816264 195.163579 
L 265.302822 120.570131 
L 251.490287 116.765276 
z
" style="fill:#e0a427;"/>
    <path clip-path="url(#p66ee191aa8)" d="M 243.136481 198.181496 
L 243.773609 131.143152 
L 251.388672 124.472247 
L 250.510457 191.080779 
z
" style="fill:#dc8836;"/>
    <path clip-path="url(#p66ee191aa8)" d="M 214.529606 208.524945 
L 222.285805 201.224351 
L 235.617509 205.421836 
L 227.94922 212.80596 
z
" style="fill:#875f19;"/>
    <path clip-path="url(#p66ee191aa8)" d="M 216.794403 189.994506 
L 229.891821 194.06512 
L 230.123009 111.553057 
L 216.482167 107.791597 
z
" style="fill:#dcc420;"/>
    <path clip-path="url(#p66ee191aa8)" d="M 272.289802 131.492241 
L 286.045844 135.333133 
L 293.145656 128.708167 
L 279.484059 124.942246 
z
" style="fill:#b35942;"/>
    <path clip-path="url(#p66ee191aa8)" d="M 216.794403 189.994506 
L 216.472779 105.320098 
L 230.129962 109.071671 
L 229.891821 194.06512 
z
" style="fill:#666110;"/>
    <path clip-path="url(#p66ee191aa8)" d="M 245.499149 98.799625 
L 259.112998 102.456104 
L 266.483845 96.149246 
L 252.961595 92.564198 
z
" style="fill:#bfaa1c;"/>
    <path clip-path="url(#p66ee191aa8)" d="M 249.101427 209.667246 
L 256.530882 202.34441 
L 270.077576 206.554656 
L 262.740181 213.961405 
z
" style="fill:#7d3e2e;"/>
    <path clip-path="url(#p66ee191aa8)" d="M 189.742574 104.812878 
L 203.043991 108.505979 
L 210.971243 102.135967 
L 197.755271 98.515052 
z
" style="fill:#c29b1d;"/>
    <path clip-path="url(#p66ee191aa8)" d="M 277.271882 199.292348 
L 284.327244 192.170297 
L 286.383404 124.169405 
L 279.104517 130.852023 
z
" style="fill:#684219;"/>
    <path clip-path="url(#p66ee191aa8)" d="M 210.906818 92.140114 
L 224.338378 95.762755 
L 232.060792 89.514293 
L 218.717164 85.962506 
z
" style="fill:#b8bf1a;"/>
    <path clip-path="url(#p66ee191aa8)" d="M 243.136481 198.181496 
L 250.510457 191.080779 
L 251.5339 113.457401 
L 243.879009 120.053007 
z
" style="fill:#695310;"/>
    <path clip-path="url(#p66ee191aa8)" d="M 209.103753 197.073984 
L 208.447667 111.845861 
L 216.472779 105.320098 
L 216.794403 189.994506 
z
" style="fill:#d9ce22;"/>
    <path clip-path="url(#p66ee191aa8)" d="M 263.816264 195.163579 
L 265.118322 129.828067 
L 279.027887 133.713792 
L 277.271882 199.292348 
z
" style="fill:#673d1b;"/>
    <path clip-path="url(#p66ee191aa8)" d="M 209.103753 197.073984 
L 216.794403 189.994506 
L 216.467292 103.875331 
L 208.436467 110.391033 
z
" style="fill:#656510;"/>
    <path clip-path="url(#p66ee191aa8)" d="M 188.144156 200.107676 
L 196.068846 192.969946 
L 195.069304 122.850916 
L 186.851477 129.534663 
z
" style="fill:#694516;"/>
    <path clip-path="url(#p66ee191aa8)" d="M 196.068846 192.969946 
L 194.935365 113.454951 
L 208.489346 117.260219 
L 209.103753 197.073984 
z
" style="fill:#69570f;"/>
    <path clip-path="url(#p66ee191aa8)" d="M 263.816264 195.163579 
L 277.271882 199.292348 
L 279.104517 130.852023 
L 265.175131 126.977456 
z
" style="fill:#dd8b34;"/>
    <path clip-path="url(#p66ee191aa8)" d="M 193.264978 211.654059 
L 201.262108 204.292457 
L 214.529606 208.524945 
L 206.61873 215.971129 
z
" style="fill:#845022;"/>
    <path clip-path="url(#p66ee191aa8)" d="M 229.891821 194.06512 
L 230.10439 118.198414 
L 243.860216 122.030402 
L 243.136481 198.181496 
z
" style="fill:#6a5011;"/>
    <path clip-path="url(#p66ee191aa8)" d="M 180.063228 207.386128 
L 188.144156 200.107676 
L 187.509264 165.446116 
L 179.278795 172.505787 
z
" style="fill:#49113d;"/>
    <path clip-path="url(#p66ee191aa8)" d="M 229.891821 194.06512 
L 243.136481 198.181496 
L 243.879009 120.053007 
L 230.109908 116.228839 
z
" style="fill:#dfb122;"/>
    <path clip-path="url(#p66ee191aa8)" d="M 256.530882 202.34441 
L 257.603396 136.587119 
L 265.118322 129.828067 
L 263.816264 195.163579 
z
" style="fill:#db823a;"/>
    <path clip-path="url(#p66ee191aa8)" d="M 196.068846 192.969946 
L 209.103753 197.073984 
L 208.436467 110.391033 
L 194.837836 106.613151 
z
" style="fill:#d6d622;"/>
    <path clip-path="url(#p66ee191aa8)" d="M 224.338378 101.25746 
L 237.889112 104.943918 
L 245.501331 98.585465 
L 232.040596 94.971329 
z
" style="fill:#bfab1c;"/>
    <path clip-path="url(#p66ee191aa8)" d="M 175.173234 195.969799 
L 188.144156 200.107676 
L 186.851477 129.534663 
L 173.427489 125.659407 
z
" style="fill:#df9330;"/>
    <path clip-path="url(#p66ee191aa8)" d="M 256.530882 202.34441 
L 263.816264 195.163579 
L 265.148627 128.30738 
L 257.628367 135.05611 
z
" style="fill:#68401a;"/>
    <path clip-path="url(#p66ee191aa8)" d="M 227.94922 212.80596 
L 235.617509 205.421836 
L 249.101427 209.667246 
L 241.523583 217.136342 
z
" style="fill:#834c25;"/>
    <path clip-path="url(#p66ee191aa8)" d="M 188.144156 200.107676 
L 186.67819 120.074161 
L 194.935365 113.454951 
L 196.068846 192.969946 
z
" style="fill:#deb821;"/>
    <path clip-path="url(#p66ee191aa8)" d="M 222.285805 201.224351 
L 222.206441 124.864097 
L 230.10439 118.198414 
L 229.891821 194.06512 
z
" style="fill:#e0aa24;"/>
    <path clip-path="url(#p66ee191aa8)" d="M 167.010898 203.166503 
L 180.063228 207.386128 
L 179.278795 172.505787 
L 166.001062 168.412701 
z
" style="fill:#9a2381;"/>
    <path clip-path="url(#p66ee191aa8)" d="M 259.098643 103.312139 
L 272.863873 107.014238 
L 280.137725 100.628834 
L 266.466618 96.999437 
z
" style="fill:#c0a71c;"/>
    <path clip-path="url(#p66ee191aa8)" d="M 243.136481 198.181496 
L 243.762941 132.265718 
L 257.609986 136.183073 
L 256.530882 202.34441 
z
" style="fill:#673e1b;"/>
    <path clip-path="url(#p66ee191aa8)" d="M 243.136481 198.181496 
L 256.530882 202.34441 
L 257.628367 135.05611 
L 243.773609 131.143152 
z
" style="fill:#dc8836;"/>
    <path clip-path="url(#p66ee191aa8)" d="M 188.144156 200.107676 
L 187.049274 140.333237 
L 200.55997 144.296256 
L 201.262108 204.292457 
z
" style="fill:#643421;"/>
    <path clip-path="url(#p66ee191aa8)" d="M 222.285805 201.224351 
L 229.891821 194.06512 
L 230.129962 109.071671 
L 222.19689 115.674128 
z
" style="fill:#666110;"/>
    <path clip-path="url(#p66ee191aa8)" d="M 237.861527 109.160163 
L 251.541168 112.906128 
L 259.046103 106.445135 
L 245.458675 102.772929 
z
" style="fill:#c29c1d;"/>
    <path clip-path="url(#p66ee191aa8)" d="M 235.617509 205.421836 
L 235.997213 139.07992 
L 243.762941 132.265718 
L 243.136481 198.181496 
z
" style="fill:#db8339;"/>
    <path clip-path="url(#p66ee191aa8)" d="M 206.61873 215.971129 
L 214.529606 208.524945 
L 227.94922 212.80596 
L 220.127123 220.338193 
z
" style="fill:#7e3f2d;"/>
    <path clip-path="url(#p66ee191aa8)" d="M 209.103753 197.073984 
L 208.465312 114.13805 
L 222.199282 117.975523 
L 222.285805 201.224351 
z
" style="fill:#685d0f;"/>
    <path clip-path="url(#p66ee191aa8)" d="M 166.001062 168.412701 
L 179.278795 172.505787 
L 187.509264 165.446116 
L 174.315733 161.433707 
z
" style="fill:#861f70;"/>
    <path clip-path="url(#p66ee191aa8)" d="M 181.613094 113.326951 
L 194.987363 117.102697 
L 203.065458 110.59038 
L 189.777252 106.88909 
z
" style="fill:#c29320;"/>
    <path clip-path="url(#p66ee191aa8)" d="M 180.063228 207.386128 
L 178.71029 147.22686 
L 187.049274 140.333237 
L 188.144156 200.107676 
z
" style="fill:#d36f46;"/>
    <path clip-path="url(#p66ee191aa8)" d="M 209.103753 197.073984 
L 222.285805 201.224351 
L 222.19689 115.674128 
L 208.447667 111.845861 
z
" style="fill:#d9ce22;"/>
    <path clip-path="url(#p66ee191aa8)" d="M 202.973189 101.631453 
L 216.472855 105.339871 
L 224.338378 98.943684 
L 210.927238 95.308403 
z
" style="fill:#bcb31d;"/>
    <path clip-path="url(#p66ee191aa8)" d="M 256.530882 202.34441 
L 257.46336 145.172931 
L 271.410194 149.171356 
L 270.077576 206.554656 
z
" style="fill:#623024;"/>
    <path clip-path="url(#p66ee191aa8)" d="M 270.077576 206.554656 
L 277.271882 199.292348 
L 279.027887 133.713792 
L 271.61036 140.552101 
z
" style="fill:#673d1b;"/>
    <path clip-path="url(#p66ee191aa8)" d="M 241.523583 217.136342 
L 249.101427 209.667246 
L 262.740181 213.961405 
L 255.255385 221.516949 
z
" style="fill:#793733;"/>
    <path clip-path="url(#p66ee191aa8)" d="M 201.262108 204.292457 
L 209.103753 197.073984 
L 208.489346 117.260219 
L 200.321943 123.957351 
z
" style="fill:#69570f;"/>
    <path clip-path="url(#p66ee191aa8)" d="M 235.617509 205.421836 
L 243.136481 198.181496 
L 243.860216 122.030402 
L 236.056196 128.774533 
z
" style="fill:#6a5011;"/>
    <path clip-path="url(#p66ee191aa8)" d="M 201.262108 204.292457 
L 200.28515 120.813494 
L 208.465312 114.13805 
L 209.103753 197.073984 
z
" style="fill:#dbc520;"/>
    <path clip-path="url(#p66ee191aa8)" d="M 251.490287 116.765276 
L 265.302822 120.570131 
L 272.699859 114.007674 
L 258.981827 110.278027 
z
" style="fill:#c28e22;"/>
    <path clip-path="url(#p66ee191aa8)" d="M 249.101427 209.667246 
L 249.826005 152.128195 
L 257.46336 145.172931 
L 256.530882 202.34441 
z
" style="fill:#cf664c;"/>
    <path clip-path="url(#p66ee191aa8)" d="M 256.530882 202.34441 
L 270.077576 206.554656 
L 271.61036 140.552101 
L 257.603396 136.587119 
z
" style="fill:#db823a;"/>
    <path clip-path="url(#p66ee191aa8)" d="M 222.285805 201.224351 
L 222.20944 127.749034 
L 236.039618 131.670927 
L 235.617509 205.421836 
z
" style="fill:#6a4a14;"/>
    <path clip-path="url(#p66ee191aa8)" d="M 188.144156 200.107676 
L 201.262108 204.292457 
L 200.321943 123.957351 
L 186.67819 120.074161 
z
" style="fill:#deb821;"/>
    <path clip-path="url(#p66ee191aa8)" d="M 222.285805 201.224351 
L 235.617509 205.421836 
L 236.056196 128.774533 
L 222.206441 124.864097 
z
" style="fill:#e0aa24;"/>
    <path clip-path="url(#p66ee191aa8)" d="M 249.101427 209.667246 
L 256.530882 202.34441 
L 257.609986 136.183073 
L 249.939979 143.077539 
z
" style="fill:#673e1b;"/>
    <path clip-path="url(#p66ee191aa8)" d="M 216.482167 107.791597 
L 230.123009 111.553057 
L 237.888317 105.06551 
L 224.338378 101.378571 
z
" style="fill:#bfaa1c;"/>
    <path clip-path="url(#p66ee191aa8)" d="M 220.127123 220.338193 
L 227.94922 212.80596 
L 241.523583 217.136342 
L 233.792858 224.756123 
z
" style="fill:#783534;"/>
    <path clip-path="url(#p66ee191aa8)" d="M 214.529606 208.524945 
L 214.160934 134.571362 
L 222.20944 127.749034 
L 222.285805 201.224351 
z
" style="fill:#e09d2a;"/>
    <path clip-path="url(#p66ee191aa8)" d="M 265.175131 126.977456 
L 279.104517 130.852023 
L 286.383404 124.169405 
L 272.550608 120.371626 
z
" style="fill:#c0792d;"/>
    <path clip-path="url(#p66ee191aa8)" d="M 201.262108 204.292457 
L 200.48296 137.715889 
L 214.19647 141.699749 
L 214.529606 208.524945 
z
" style="fill:#673e1b;"/>
    <path clip-path="url(#p66ee191aa8)" d="M 193.264978 211.654059 
L 201.262108 204.292457 
L 200.55997 144.296256 
L 192.309851 151.271048 
z
" style="fill:#643421;"/>
    <path clip-path="url(#p66ee191aa8)" d="M 235.617509 205.421836 
L 235.987308 140.810579 
L 249.918099 144.814988 
L 249.101427 209.667246 
z
" style="fill:#673b1d;"/>
    <path clip-path="url(#p66ee191aa8)" d="M 235.617509 205.421836 
L 249.101427 209.667246 
L 249.939979 143.077539 
L 235.997213 139.07992 
z
" style="fill:#db8339;"/>
    <path clip-path="url(#p66ee191aa8)" d="M 173.427489 125.659407 
L 186.851477 129.534663 
L 195.069304 122.850916 
L 181.731687 119.052625 
z
" style="fill:#c18029;"/>
    <path clip-path="url(#p66ee191aa8)" d="M 214.529606 208.524945 
L 222.285805 201.224351 
L 222.199282 117.975523 
L 214.111873 124.730138 
z
" style="fill:#685d0f;"/>
    <path clip-path="url(#p66ee191aa8)" d="M 193.264978 211.654059 
L 192.205058 144.646037 
L 200.48296 137.715889 
L 201.262108 204.292457 
z
" style="fill:#db8439;"/>
    <path clip-path="url(#p66ee191aa8)" d="M 180.063228 207.386128 
L 193.264978 211.654059 
L 192.309851 151.271048 
L 178.71029 147.22686 
z
" style="fill:#d36f46;"/>
    <path clip-path="url(#p66ee191aa8)" d="M 262.740181 213.961405 
L 270.077576 206.554656 
L 271.410194 149.171356 
L 263.870477 156.208662 
z
" style="fill:#623024;"/>
    <path clip-path="url(#p66ee191aa8)" d="M 230.109908 116.228839 
L 243.879009 120.053007 
L 251.5339 113.457401 
L 237.857935 109.70926 
z
" style="fill:#c2991e;"/>
    <path clip-path="url(#p66ee191aa8)" d="M 227.94922 212.80596 
L 228.06882 147.776489 
L 235.987308 140.810579 
L 235.617509 205.421836 
z
" style="fill:#d97e3c;"/>
    <path clip-path="url(#p66ee191aa8)" d="M 243.773609 131.143152 
L 257.628367 135.05611 
L 265.148627 128.30738 
L 251.388672 124.472247 
z
" style="fill:#bf762f;"/>
    <path clip-path="url(#p66ee191aa8)" d="M 214.529606 208.524945 
L 214.238252 150.080952 
L 228.057108 154.144827 
L 227.94922 212.80596 
z
" style="fill:#623123;"/>
    <path clip-path="url(#p66ee191aa8)" d="M 249.101427 209.667246 
L 249.777121 156.010157 
L 263.794208 160.105652 
L 262.740181 213.961405 
z
" style="fill:#5e2b28;"/>
    <path clip-path="url(#p66ee191aa8)" d="M 201.262108 204.292457 
L 214.529606 208.524945 
L 214.111873 124.730138 
L 200.28515 120.813494 
z
" style="fill:#dbc520;"/>
    <path clip-path="url(#p66ee191aa8)" d="M 249.101427 209.667246 
L 262.740181 213.961405 
L 263.870477 156.208662 
L 249.826005 152.128195 
z
" style="fill:#cf664c;"/>
    <path clip-path="url(#p66ee191aa8)" d="M 233.792858 224.756123 
L 241.523583 217.136342 
L 255.255385 221.516949 
L 247.618703 229.225814 
z
" style="fill:#661f46;"/>
    <path clip-path="url(#p66ee191aa8)" d="M 227.94922 212.80596 
L 235.617509 205.421836 
L 236.039618 131.670927 
L 228.085745 138.574258 
z
" style="fill:#6a4a14;"/>
    <path clip-path="url(#p66ee191aa8)" d="M 194.837836 106.613151 
L 208.436467 110.391033 
L 216.467292 103.875331 
L 202.958166 100.172751 
z
" style="fill:#bab91e;"/>
    <path clip-path="url(#p66ee191aa8)" d="M 206.61873 215.971129 
L 206.08699 157.150344 
L 214.238252 150.080952 
L 214.529606 208.524945 
z
" style="fill:#d0684b;"/>
    <path clip-path="url(#p66ee191aa8)" d="M 241.523583 217.136342 
L 241.997316 163.134528 
L 249.777121 156.010157 
L 249.101427 209.667246 
z
" style="fill:#c85a55;"/>
    <path clip-path="url(#p66ee191aa8)" d="M 214.529606 208.524945 
L 227.94922 212.80596 
L 228.085745 138.574258 
L 214.160934 134.571362 
z
" style="fill:#e09d2a;"/>
    <path clip-path="url(#p66ee191aa8)" d="M 206.61873 215.971129 
L 214.529606 208.524945 
L 214.19647 141.699749 
L 206.01071 148.712249 
z
" style="fill:#673e1b;"/>
    <path clip-path="url(#p66ee191aa8)" d="M 227.94922 212.80596 
L 228.047185 159.540055 
L 241.992592 163.673119 
L 241.523583 217.136342 
z
" style="fill:#5e2a29;"/>
    <path clip-path="url(#p66ee191aa8)" d="M 257.603396 136.587119 
L 271.61036 140.552101 
L 279.027887 133.713792 
L 265.118322 129.828067 
z
" style="fill:#be7033;"/>
    <path clip-path="url(#p66ee191aa8)" d="M 241.523583 217.136342 
L 249.101427 209.667246 
L 249.918099 144.814988 
L 242.09619 151.863722 
z
" style="fill:#673b1d;"/>
    <path clip-path="url(#p66ee191aa8)" d="M 193.264978 211.654059 
L 206.61873 215.971129 
L 206.01071 148.712249 
L 192.205058 144.646037 
z
" style="fill:#db8439;"/>
    <path clip-path="url(#p66ee191aa8)" d="M 220.127123 220.338193 
L 220.011691 166.729908 
L 228.047185 159.540055 
L 227.94922 212.80596 
z
" style="fill:#c75856;"/>
    <path clip-path="url(#p66ee191aa8)" d="M 208.447667 111.845861 
L 222.19689 115.674128 
L 230.129962 109.071671 
L 216.472779 105.320098 
z
" style="fill:#bcb31d;"/>
    <path clip-path="url(#p66ee191aa8)" d="M 241.523583 217.136342 
L 241.880129 176.492949 
L 255.900627 180.724362 
L 255.255385 221.516949 
z
" style="fill:#501837;"/>
    <path clip-path="url(#p66ee191aa8)" d="M 227.94922 212.80596 
L 241.523583 217.136342 
L 242.09619 151.863722 
L 228.06882 147.776489 
z
" style="fill:#d97e3c;"/>
    <path clip-path="url(#p66ee191aa8)" d="M 220.127123 220.338193 
L 227.94922 212.80596 
L 228.057108 154.144827 
L 219.999995 161.298374 
z
" style="fill:#623123;"/>
    <path clip-path="url(#p66ee191aa8)" d="M 255.255385 221.516949 
L 262.740181 213.961405 
L 263.794208 160.105652 
L 256.112735 167.314762 
z
" style="fill:#5e2b28;"/>
    <path clip-path="url(#p66ee191aa8)" d="M 222.206441 124.864097 
L 236.056196 128.774533 
L 243.860216 122.030402 
L 230.10439 118.198414 
z
" style="fill:#c29320;"/>
    <path clip-path="url(#p66ee191aa8)" d="M 186.67819 120.074161 
L 200.321943 123.957351 
L 208.489346 117.260219 
L 194.935365 113.454951 
z
" style="fill:#c1a01c;"/>
    <path clip-path="url(#p66ee191aa8)" d="M 178.71029 147.22686 
L 192.309851 151.271048 
L 200.55997 144.296256 
L 187.049274 140.333237 
z
" style="fill:#b7603d;"/>
    <path clip-path="url(#p66ee191aa8)" d="M 235.997213 139.07992 
L 249.939979 143.077539 
L 257.609986 136.183073 
L 243.762941 132.265718 
z
" style="fill:#be7132;"/>
    <path clip-path="url(#p66ee191aa8)" d="M 233.792858 224.756123 
L 233.991033 183.853873 
L 241.880129 176.492949 
L 241.523583 217.136342 
z
" style="fill:#a93374;"/>
    <path clip-path="url(#p66ee191aa8)" d="M 206.61873 215.971129 
L 220.127123 220.338193 
L 219.999995 161.298374 
L 206.08699 157.150344 
z
" style="fill:#d0684b;"/>
    <path clip-path="url(#p66ee191aa8)" d="M 241.523583 217.136342 
L 255.255385 221.516949 
L 256.112735 167.314762 
L 241.997316 163.134528 
z
" style="fill:#c85a55;"/>
    <path clip-path="url(#p66ee191aa8)" d="M 249.826005 152.128195 
L 263.870477 156.208662 
L 271.410194 149.171356 
L 257.46336 145.172931 
z
" style="fill:#b35942;"/>
    <path clip-path="url(#p66ee191aa8)" d="M 233.792858 224.756123 
L 241.523583 217.136342 
L 241.992592 163.673119 
L 234.053559 170.948842 
z
" style="fill:#5e2a29;"/>
    <path clip-path="url(#p66ee191aa8)" d="M 220.127123 220.338193 
L 233.792858 224.756123 
L 234.053559 170.948842 
L 220.011691 166.729908 
z
" style="fill:#c75856;"/>
    <path clip-path="url(#p66ee191aa8)" d="M 247.618703 229.225814 
L 255.255385 221.516949 
L 255.900627 180.724362 
L 248.109599 188.173155 
z
" style="fill:#501837;"/>
    <path clip-path="url(#p66ee191aa8)" d="M 200.28515 120.813494 
L 214.111873 124.730138 
L 222.199282 117.975523 
L 208.465312 114.13805 
z
" style="fill:#bfab1c;"/>
    <path clip-path="url(#p66ee191aa8)" d="M 214.160934 134.571362 
L 228.085745 138.574258 
L 236.039618 131.670927 
L 222.20944 127.749034 
z
" style="fill:#c28924;"/>
    <path clip-path="url(#p66ee191aa8)" d="M 233.792858 224.756123 
L 247.618703 229.225814 
L 248.109599 188.173155 
L 233.991033 183.853873 
z
" style="fill:#a93374;"/>
    <path clip-path="url(#p66ee191aa8)" d="M 192.205058 144.646037 
L 206.01071 148.712249 
L 214.19647 141.699749 
L 200.48296 137.715889 
z
" style="fill:#be7331;"/>
    <path clip-path="url(#p66ee191aa8)" d="M 228.06882 147.776489 
L 242.09619 151.863722 
L 249.918099 144.814988 
L 235.987308 140.810579 
z
" style="fill:#bd6d34;"/>
    <path clip-path="url(#p66ee191aa8)" d="M 241.997316 163.134528 
L 256.112735 167.314762 
L 263.794208 160.105652 
L 249.777121 156.010157 
z
" style="fill:#ad4f4a;"/>
    <path clip-path="url(#p66ee191aa8)" d="M 206.08699 157.150344 
L 219.999995 161.298374 
L 228.057108 154.144827 
L 214.238252 150.080952 
z
" style="fill:#b55b41;"/>
    <path clip-path="url(#p66ee191aa8)" d="M 233.991033 183.853873 
L 248.109599 188.173155 
L 255.900627 180.724362 
L 241.880129 176.492949 
z
" style="fill:#932c64;"/>
    <path clip-path="url(#p66ee191aa8)" d="M 220.011691 166.729908 
L 234.053559 170.948842 
L 241.992592 163.673119 
L 228.047185 159.540055 
z
" style="fill:#ac4d4b;"/>
   </g>
   <g id="text_17">
    <!-- W20__H40__A290_bars_extracted.txt -->
    <g transform="translate(110.101875 28.56)scale(0.12 -0.12)">
     <defs>
      <path d="M 3.328125 72.90625 
L 13.28125 72.90625 
L 28.609375 11.28125 
L 43.890625 72.90625 
L 54.984375 72.90625 
L 70.3125 11.28125 
L 85.59375 72.90625 
L 95.609375 72.90625 
L 77.296875 0 
L 64.890625 0 
L 49.515625 63.28125 
L 33.984375 0 
L 21.578125 0 
z
" id="DejaVuSans-87"/>
      <path d="M 50.984375 -16.609375 
L 50.984375 -23.578125 
L -0.984375 -23.578125 
L -0.984375 -16.609375 
z
" id="DejaVuSans-95"/>
      <path d="M 9.8125 72.90625 
L 19.671875 72.90625 
L 19.671875 43.015625 
L 55.515625 43.015625 
L 55.515625 72.90625 
L 65.375 72.90625 
L 65.375 0 
L 55.515625 0 
L 55.515625 34.71875 
L 19.671875 34.71875 
L 19.671875 0 
L 9.8125 0 
z
" id="DejaVuSans-72"/>
      <path d="M 34.1875 63.1875 
L 20.796875 26.90625 
L 47.609375 26.90625 
z
M 28.609375 72.90625 
L 39.796875 72.90625 
L 67.578125 0 
L 57.328125 0 
L 50.6875 18.703125 
L 17.828125 18.703125 
L 11.1875 0 
L 0.78125 0 
z
" id="DejaVuSans-65"/>
      <path d="M 10.984375 1.515625 
L 10.984375 10.5 
Q 14.703125 8.734375 18.5 7.8125 
Q 22.3125 6.890625 25.984375 6.890625 
Q 35.75 6.890625 40.890625 13.453125 
Q 46.046875 20.015625 46.78125 33.40625 
Q 43.953125 29.203125 39.59375 26.953125 
Q 35.25 24.703125 29.984375 24.703125 
Q 19.046875 24.703125 12.671875 31.3125 
Q 6.296875 37.9375 6.296875 49.421875 
Q 6.296875 60.640625 12.9375 67.421875 
Q 19.578125 74.21875 30.609375 74.21875 
Q 43.265625 74.21875 49.921875 64.515625 
Q 56.59375 54.828125 56.59375 36.375 
Q 56.59375 19.140625 48.40625 8.859375 
Q 40.234375 -1.421875 26.421875 -1.421875 
Q 22.703125 -1.421875 18.890625 -0.6875 
Q 15.09375 0.046875 10.984375 1.515625 
z
M 30.609375 32.421875 
Q 37.25 32.421875 41.125 36.953125 
Q 45.015625 41.5 45.015625 49.421875 
Q 45.015625 57.28125 41.125 61.84375 
Q 37.25 66.40625 30.609375 66.40625 
Q 23.96875 66.40625 20.09375 61.84375 
Q 16.21875 57.28125 16.21875 49.421875 
Q 16.21875 41.5 20.09375 36.953125 
Q 23.96875 32.421875 30.609375 32.421875 
z
" id="DejaVuSans-57"/>
      <path d="M 48.6875 27.296875 
Q 48.6875 37.203125 44.609375 42.84375 
Q 40.53125 48.484375 33.40625 48.484375 
Q 26.265625 48.484375 22.1875 42.84375 
Q 18.109375 37.203125 18.109375 27.296875 
Q 18.109375 17.390625 22.1875 11.75 
Q 26.265625 6.109375 33.40625 6.109375 
Q 40.53125 6.109375 44.609375 11.75 
Q 48.6875 17.390625 48.6875 27.296875 
z
M 18.109375 46.390625 
Q 20.953125 51.265625 25.265625 53.625 
Q 29.59375 56 35.59375 56 
Q 45.5625 56 51.78125 48.09375 
Q 58.015625 40.1875 58.015625 27.296875 
Q 58.015625 14.40625 51.78125 6.484375 
Q 45.5625 -1.421875 35.59375 -1.421875 
Q 29.59375 -1.421875 25.265625 0.953125 
Q 20.953125 3.328125 18.109375 8.203125 
L 18.109375 0 
L 9.078125 0 
L 9.078125 75.984375 
L 18.109375 75.984375 
z
" id="DejaVuSans-98"/>
      <path d="M 34.28125 27.484375 
Q 23.390625 27.484375 19.1875 25 
Q 14.984375 22.515625 14.984375 16.5 
Q 14.984375 11.71875 18.140625 8.90625 
Q 21.296875 6.109375 26.703125 6.109375 
Q 34.1875 6.109375 38.703125 11.40625 
Q 43.21875 16.703125 43.21875 25.484375 
L 43.21875 27.484375 
z
M 52.203125 31.203125 
L 52.203125 0 
L 43.21875 0 
L 43.21875 8.296875 
Q 40.140625 3.328125 35.546875 0.953125 
Q 30.953125 -1.421875 24.3125 -1.421875 
Q 15.921875 -1.421875 10.953125 3.296875 
Q 6 8.015625 6 15.921875 
Q 6 25.140625 12.171875 29.828125 
Q 18.359375 34.515625 30.609375 34.515625 
L 43.21875 34.515625 
L 43.21875 35.40625 
Q 43.21875 41.609375 39.140625 45 
Q 35.0625 48.390625 27.6875 48.390625 
Q 23 48.390625 18.546875 47.265625 
Q 14.109375 46.140625 10.015625 43.890625 
L 10.015625 52.203125 
Q 14.9375 54.109375 19.578125 55.046875 
Q 24.21875 56 28.609375 56 
Q 40.484375 56 46.34375 49.84375 
Q 52.203125 43.703125 52.203125 31.203125 
z
" id="DejaVuSans-97"/>
      <path d="M 41.109375 46.296875 
Q 39.59375 47.171875 37.8125 47.578125 
Q 36.03125 48 33.890625 48 
Q 26.265625 48 22.1875 43.046875 
Q 18.109375 38.09375 18.109375 28.8125 
L 18.109375 0 
L 9.078125 0 
L 9.078125 54.6875 
L 18.109375 54.6875 
L 18.109375 46.1875 
Q 20.953125 51.171875 25.484375 53.578125 
Q 30.03125 56 36.53125 56 
Q 37.453125 56 38.578125 55.875 
Q 39.703125 55.765625 41.0625 55.515625 
z
" id="DejaVuSans-114"/>
      <path d="M 44.28125 53.078125 
L 44.28125 44.578125 
Q 40.484375 46.53125 36.375 47.5 
Q 32.28125 48.484375 27.875 48.484375 
Q 21.1875 48.484375 17.84375 46.4375 
Q 14.5 44.390625 14.5 40.28125 
Q 14.5 37.15625 16.890625 35.375 
Q 19.28125 33.59375 26.515625 31.984375 
L 29.59375 31.296875 
Q 39.15625 29.25 43.1875 25.515625 
Q 47.21875 21.78125 47.21875 15.09375 
Q 47.21875 7.46875 41.1875 3.015625 
Q 35.15625 -1.421875 24.609375 -1.421875 
Q 20.21875 -1.421875 15.453125 -0.5625 
Q 10.6875 0.296875 5.421875 2 
L 5.421875 11.28125 
Q 10.40625 8.6875 15.234375 7.390625 
Q 20.0625 6.109375 24.8125 6.109375 
Q 31.15625 6.109375 34.5625 8.28125 
Q 37.984375 10.453125 37.984375 14.40625 
Q 37.984375 18.0625 35.515625 20.015625 
Q 33.0625 21.96875 24.703125 23.78125 
L 21.578125 24.515625 
Q 13.234375 26.265625 9.515625 29.90625 
Q 5.8125 33.546875 5.8125 39.890625 
Q 5.8125 47.609375 11.28125 51.796875 
Q 16.75 56 26.8125 56 
Q 31.78125 56 36.171875 55.265625 
Q 40.578125 54.546875 44.28125 53.078125 
z
" id="DejaVuSans-115"/>
      <path d="M 56.203125 29.59375 
L 56.203125 25.203125 
L 14.890625 25.203125 
Q 15.484375 15.921875 20.484375 11.0625 
Q 25.484375 6.203125 34.421875 6.203125 
Q 39.59375 6.203125 44.453125 7.46875 
Q 49.3125 8.734375 54.109375 11.28125 
L 54.109375 2.78125 
Q 49.265625 0.734375 44.1875 -0.34375 
Q 39.109375 -1.421875 33.890625 -1.421875 
Q 20.796875 -1.421875 13.15625 6.1875 
Q 5.515625 13.8125 5.515625 26.8125 
Q 5.515625 40.234375 12.765625 48.109375 
Q 20.015625 56 32.328125 56 
Q 43.359375 56 49.78125 48.890625 
Q 56.203125 41.796875 56.203125 29.59375 
z
M 47.21875 32.234375 
Q 47.125 39.59375 43.09375 43.984375 
Q 39.0625 48.390625 32.421875 48.390625 
Q 24.90625 48.390625 20.390625 44.140625 
Q 15.875 39.890625 15.1875 32.171875 
z
" id="DejaVuSans-101"/>
      <path d="M 54.890625 54.6875 
L 35.109375 28.078125 
L 55.90625 0 
L 45.3125 0 
L 29.390625 21.484375 
L 13.484375 0 
L 2.875 0 
L 24.125 28.609375 
L 4.6875 54.6875 
L 15.28125 54.6875 
L 29.78125 35.203125 
L 44.28125 54.6875 
z
" id="DejaVuSans-120"/>
      <path d="M 18.3125 70.21875 
L 18.3125 54.6875 
L 36.8125 54.6875 
L 36.8125 47.703125 
L 18.3125 47.703125 
L 18.3125 18.015625 
Q 18.3125 11.328125 20.140625 9.421875 
Q 21.96875 7.515625 27.59375 7.515625 
L 36.8125 7.515625 
L 36.8125 0 
L 27.59375 0 
Q 17.1875 0 13.234375 3.875 
Q 9.28125 7.765625 9.28125 18.015625 
L 9.28125 47.703125 
L 2.6875 47.703125 
L 2.6875 54.6875 
L 9.28125 54.6875 
L 9.28125 70.21875 
z
" id="DejaVuSans-116"/>
      <path d="M 48.78125 52.59375 
L 48.78125 44.1875 
Q 44.96875 46.296875 41.140625 47.34375 
Q 37.3125 48.390625 33.40625 48.390625 
Q 24.65625 48.390625 19.8125 42.84375 
Q 14.984375 37.3125 14.984375 27.296875 
Q 14.984375 17.28125 19.8125 11.734375 
Q 24.65625 6.203125 33.40625 6.203125 
Q 37.3125 6.203125 41.140625 7.25 
Q 44.96875 8.296875 48.78125 10.40625 
L 48.78125 2.09375 
Q 45.015625 0.34375 40.984375 -0.53125 
Q 36.96875 -1.421875 32.421875 -1.421875 
Q 20.0625 -1.421875 12.78125 6.34375 
Q 5.515625 14.109375 5.515625 27.296875 
Q 5.515625 40.671875 12.859375 48.328125 
Q 20.21875 56 33.015625 56 
Q 37.15625 56 41.109375 55.140625 
Q 45.0625 54.296875 48.78125 52.59375 
z
" id="DejaVuSans-99"/>
      <path d="M 45.40625 46.390625 
L 45.40625 75.984375 
L 54.390625 75.984375 
L 54.390625 0 
L 45.40625 0 
L 45.40625 8.203125 
Q 42.578125 3.328125 38.25 0.953125 
Q 33.9375 -1.421875 27.875 -1.421875 
Q 17.96875 -1.421875 11.734375 6.484375 
Q 5.515625 14.40625 5.515625 27.296875 
Q 5.515625 40.1875 11.734375 48.09375 
Q 17.96875 56 27.875 56 
Q 33.9375 56 38.25 53.625 
Q 42.578125 51.265625 45.40625 46.390625 
z
M 14.796875 27.296875 
Q 14.796875 17.390625 18.875 11.75 
Q 22.953125 6.109375 30.078125 6.109375 
Q 37.203125 6.109375 41.296875 11.75 
Q 45.40625 17.390625 45.40625 27.296875 
Q 45.40625 37.203125 41.296875 42.84375 
Q 37.203125 48.484375 30.078125 48.484375 
Q 22.953125 48.484375 18.875 42.84375 
Q 14.796875 37.203125 14.796875 27.296875 
z
" id="DejaVuSans-100"/>
      <path d="M 10.6875 12.40625 
L 21 12.40625 
L 21 0 
L 10.6875 0 
z
" id="DejaVuSans-46"/>
     </defs>
     <use xlink:href="#DejaVuSans-87"/>
     <use x="98.876953" xlink:href="#DejaVuSans-50"/>
     <use x="162.5" xlink:href="#DejaVuSans-48"/>
     <use x="226.123047" xlink:href="#DejaVuSans-95"/>
     <use x="276.123047" xlink:href="#DejaVuSans-95"/>
     <use x="326.123047" xlink:href="#DejaVuSans-72"/>
     <use x="401.318359" xlink:href="#DejaVuSans-52"/>
     <use x="464.941406" xlink:href="#DejaVuSans-48"/>
     <use x="528.564453" xlink:href="#DejaVuSans-95"/>
     <use x="578.564453" xlink:href="#DejaVuSans-95"/>
     <use x="628.564453" xlink:href="#DejaVuSans-65"/>
     <use x="696.972656" xlink:href="#DejaVuSans-50"/>
     <use x="760.595703" xlink:href="#DejaVuSans-57"/>
     <use x="824.21875" xlink:href="#DejaVuSans-48"/>
     <use x="887.841797" xlink:href="#DejaVuSans-95"/>
     <use x="937.841797" xlink:href="#DejaVuSans-98"/>
     <use x="1001.318359" xlink:href="#DejaVuSans-97"/>
     <use x="1062.597656" xlink:href="#DejaVuSans-114"/>
     <use x="1103.710938" xlink:href="#DejaVuSans-115"/>
     <use x="1155.810547" xlink:href="#DejaVuSans-95"/>
     <use x="1205.810547" xlink:href="#DejaVuSans-101"/>
     <use x="1265.583984" xlink:href="#DejaVuSans-120"/>
     <use x="1324.763672" xlink:href="#DejaVuSans-116"/>
     <use x="1363.972656" xlink:href="#DejaVuSans-114"/>
     <use x="1405.085938" xlink:href="#DejaVuSans-97"/>
     <use x="1466.365234" xlink:href="#DejaVuSans-99"/>
     <use x="1521.345703" xlink:href="#DejaVuSans-116"/>
     <use x="1560.554688" xlink:href="#DejaVuSans-101"/>
     <use x="1622.078125" xlink:href="#DejaVuSans-100"/>
     <use x="1685.554688" xlink:href="#DejaVuSans-46"/>
     <use x="1717.341797" xlink:href="#DejaVuSans-116"/>
     <use x="1756.550781" xlink:href="#DejaVuSans-120"/>
     <use x="1815.730469" xlink:href="#DejaVuSans-116"/>
    </g>
   </g>
  </g>
 </g>
 <defs>
  <clipPath id="p66ee191aa8">
   <rect height="217.44" width="217.44" x="112.68" y="34.56"/>
  </clipPath>
 </defs>
</svg>
