<?xml version="1.0" encoding="utf-8" standalone="no"?>
<!DOCTYPE svg PUBLIC "-//W3C//DTD SVG 1.1//EN"
  "http://www.w3.org/Graphics/SVG/1.1/DTD/svg11.dtd">
<!-- Created with matplotlib (https://matplotlib.org/) -->
<svg height="288pt" version="1.1" viewBox="0 0 432 288" width="432pt" xmlns="http://www.w3.org/2000/svg" xmlns:xlink="http://www.w3.org/1999/xlink">
 <metadata>
  <rdf:RDF xmlns:cc="http://creativecommons.org/ns#" xmlns:dc="http://purl.org/dc/elements/1.1/" xmlns:rdf="http://www.w3.org/1999/02/22-rdf-syntax-ns#">
   <cc:Work>
    <dc:type rdf:resource="http://purl.org/dc/dcmitype/StillImage"/>
    <dc:date>2021-06-13T21:57:34.333193</dc:date>
    <dc:format>image/svg+xml</dc:format>
    <dc:creator>
     <cc:Agent>
      <dc:title>Matplotlib v3.3.4, https://matplotlib.org/</dc:title>
     </cc:Agent>
    </dc:creator>
   </cc:Work>
  </rdf:RDF>
 </metadata>
 <defs>
  <style type="text/css">*{stroke-linecap:butt;stroke-linejoin:round;}</style>
 </defs>
 <g id="figure_1">
  <g id="patch_1">
   <path d="M 0 288 
L 432 288 
L 432 0 
L 0 0 
z
" style="fill:#ffffff;"/>
  </g>
  <g id="patch_2">
   <path d="M 112.68 252 
L 330.12 252 
L 330.12 34.56 
L 112.68 34.56 
z
" style="fill:#ffffff;"/>
  </g>
  <g id="pane3d_1">
   <g id="patch_3">
    <path d="M 129.09822 198.386264 
L 200.904009 138.197228 
L 199.90584 51.393878 
L 124.663773 106.302111 
" style="fill:#f2f2f2;opacity:0.5;stroke:#f2f2f2;stroke-linejoin:miter;"/>
   </g>
  </g>
  <g id="pane3d_2">
   <g id="patch_4">
    <path d="M 200.904009 138.197228 
L 316.12668 171.68791 
L 320.238571 81.894718 
L 199.90584 51.393878 
" style="fill:#e6e6e6;opacity:0.5;stroke:#e6e6e6;stroke-linejoin:miter;"/>
   </g>
  </g>
  <g id="pane3d_3">
   <g id="patch_5">
    <path d="M 129.09822 198.386264 
L 251.239879 238.27773 
L 316.12668 171.68791 
L 200.904009 138.197228 
" style="fill:#ececec;opacity:0.5;stroke:#ececec;stroke-linejoin:miter;"/>
   </g>
  </g>
  <g id="axis3d_1">
   <g id="line2d_1">
    <path d="M 129.09822 198.386264 
L 251.239879 238.27773 
" style="fill:none;stroke:#000000;stroke-linecap:square;stroke-width:0.8;"/>
   </g>
   <g id="Line3DCollection_1">
    <path d="M 136.495759 200.802301 
L 207.911499 140.234029 
L 207.209612 53.245171 
" style="fill:none;stroke:#b0b0b0;stroke-width:0.8;"/>
    <path d="M 162.23134 209.207541 
L 232.260894 147.311436 
L 232.60309 59.681678 
" style="fill:none;stroke:#b0b0b0;stroke-width:0.8;"/>
    <path d="M 188.559037 217.806167 
L 257.123632 154.538053 
L 258.555303 66.259807 
" style="fill:none;stroke:#b0b0b0;stroke-width:0.8;"/>
    <path d="M 215.499525 226.604931 
L 282.516121 161.918647 
L 285.084894 72.984285 
" style="fill:none;stroke:#b0b0b0;stroke-width:0.8;"/>
    <path d="M 243.074449 235.610901 
L 308.455474 169.458193 
L 312.21135 79.860051 
" style="fill:none;stroke:#b0b0b0;stroke-width:0.8;"/>
   </g>
   <g id="xtick_1">
    <g id="line2d_2">
     <path d="M 137.117644 200.274876 
L 135.249322 201.859414 
" style="fill:none;stroke:#000000;stroke-linecap:square;stroke-width:0.8;"/>
    </g>
    <g id="text_1">
     <!-- 0 -->
     <g transform="translate(125.77919 224.124533)scale(0.1 -0.1)">
      <defs>
       <path d="M 31.78125 66.40625 
Q 24.171875 66.40625 20.328125 58.90625 
Q 16.5 51.421875 16.5 36.375 
Q 16.5 21.390625 20.328125 13.890625 
Q 24.171875 6.390625 31.78125 6.390625 
Q 39.453125 6.390625 43.28125 13.890625 
Q 47.125 21.390625 47.125 36.375 
Q 47.125 51.421875 43.28125 58.90625 
Q 39.453125 66.40625 31.78125 66.40625 
z
M 31.78125 74.21875 
Q 44.046875 74.21875 50.515625 64.515625 
Q 56.984375 54.828125 56.984375 36.375 
Q 56.984375 17.96875 50.515625 8.265625 
Q 44.046875 -1.421875 31.78125 -1.421875 
Q 19.53125 -1.421875 13.0625 8.265625 
Q 6.59375 17.96875 6.59375 36.375 
Q 6.59375 54.828125 13.0625 64.515625 
Q 19.53125 74.21875 31.78125 74.21875 
z
" id="DejaVuSans-48"/>
      </defs>
      <use xlink:href="#DejaVuSans-48"/>
     </g>
    </g>
   </g>
   <g id="xtick_2">
    <g id="line2d_3">
     <path d="M 162.841716 208.668056 
L 161.007937 210.288854 
" style="fill:none;stroke:#000000;stroke-linecap:square;stroke-width:0.8;"/>
    </g>
    <g id="text_2">
     <!-- 2 -->
     <g transform="translate(151.547192 232.748132)scale(0.1 -0.1)">
      <defs>
       <path d="M 19.1875 8.296875 
L 53.609375 8.296875 
L 53.609375 0 
L 7.328125 0 
L 7.328125 8.296875 
Q 12.9375 14.109375 22.625 23.890625 
Q 32.328125 33.6875 34.8125 36.53125 
Q 39.546875 41.84375 41.421875 45.53125 
Q 43.3125 49.21875 43.3125 52.78125 
Q 43.3125 58.59375 39.234375 62.25 
Q 35.15625 65.921875 28.609375 65.921875 
Q 23.96875 65.921875 18.8125 64.3125 
Q 13.671875 62.703125 7.8125 59.421875 
L 7.8125 69.390625 
Q 13.765625 71.78125 18.9375 73 
Q 24.125 74.21875 28.421875 74.21875 
Q 39.75 74.21875 46.484375 68.546875 
Q 53.21875 62.890625 53.21875 53.421875 
Q 53.21875 48.921875 51.53125 44.890625 
Q 49.859375 40.875 45.40625 35.40625 
Q 44.1875 33.984375 37.640625 27.21875 
Q 31.109375 20.453125 19.1875 8.296875 
z
" id="DejaVuSans-50"/>
      </defs>
      <use xlink:href="#DejaVuSans-50"/>
     </g>
    </g>
   </g>
   <g id="xtick_3">
    <g id="line2d_4">
     <path d="M 189.15721 217.254202 
L 187.360066 218.91252 
" style="fill:none;stroke:#000000;stroke-linecap:square;stroke-width:0.8;"/>
    </g>
    <g id="text_3">
     <!-- 4 -->
     <g transform="translate(177.91082 241.571064)scale(0.1 -0.1)">
      <defs>
       <path d="M 37.796875 64.3125 
L 12.890625 25.390625 
L 37.796875 25.390625 
z
M 35.203125 72.90625 
L 47.609375 72.90625 
L 47.609375 25.390625 
L 58.015625 25.390625 
L 58.015625 17.1875 
L 47.609375 17.1875 
L 47.609375 0 
L 37.796875 0 
L 37.796875 17.1875 
L 4.890625 17.1875 
L 4.890625 26.703125 
z
" id="DejaVuSans-52"/>
      </defs>
      <use xlink:href="#DejaVuSans-52"/>
     </g>
    </g>
   </g>
   <g id="xtick_4">
    <g id="line2d_5">
     <path d="M 216.084757 226.040048 
L 214.326462 227.737204 
" style="fill:none;stroke:#000000;stroke-linecap:square;stroke-width:0.8;"/>
    </g>
    <g id="text_4">
     <!-- 6 -->
     <g transform="translate(204.890965 250.600322)scale(0.1 -0.1)">
      <defs>
       <path d="M 33.015625 40.375 
Q 26.375 40.375 22.484375 35.828125 
Q 18.609375 31.296875 18.609375 23.390625 
Q 18.609375 15.53125 22.484375 10.953125 
Q 26.375 6.390625 33.015625 6.390625 
Q 39.65625 6.390625 43.53125 10.953125 
Q 47.40625 15.53125 47.40625 23.390625 
Q 47.40625 31.296875 43.53125 35.828125 
Q 39.65625 40.375 33.015625 40.375 
z
M 52.59375 71.296875 
L 52.59375 62.3125 
Q 48.875 64.0625 45.09375 64.984375 
Q 41.3125 65.921875 37.59375 65.921875 
Q 27.828125 65.921875 22.671875 59.328125 
Q 17.53125 52.734375 16.796875 39.40625 
Q 19.671875 43.65625 24.015625 45.921875 
Q 28.375 48.1875 33.59375 48.1875 
Q 44.578125 48.1875 50.953125 41.515625 
Q 57.328125 34.859375 57.328125 23.390625 
Q 57.328125 12.15625 50.6875 5.359375 
Q 44.046875 -1.421875 33.015625 -1.421875 
Q 20.359375 -1.421875 13.671875 8.265625 
Q 6.984375 17.96875 6.984375 36.375 
Q 6.984375 53.65625 15.1875 63.9375 
Q 23.390625 74.21875 37.203125 74.21875 
Q 40.921875 74.21875 44.703125 73.484375 
Q 48.484375 72.75 52.59375 71.296875 
z
" id="DejaVuSans-54"/>
      </defs>
      <use xlink:href="#DejaVuSans-54"/>
     </g>
    </g>
   </g>
   <g id="xtick_5">
    <g id="line2d_6">
     <path d="M 243.645962 235.032643 
L 241.928856 236.770015 
" style="fill:none;stroke:#000000;stroke-linecap:square;stroke-width:0.8;"/>
    </g>
    <g id="text_5">
     <!-- 8 -->
     <g transform="translate(232.509511 259.84323)scale(0.1 -0.1)">
      <defs>
       <path d="M 31.78125 34.625 
Q 24.75 34.625 20.71875 30.859375 
Q 16.703125 27.09375 16.703125 20.515625 
Q 16.703125 13.921875 20.71875 10.15625 
Q 24.75 6.390625 31.78125 6.390625 
Q 38.8125 6.390625 42.859375 10.171875 
Q 46.921875 13.96875 46.921875 20.515625 
Q 46.921875 27.09375 42.890625 30.859375 
Q 38.875 34.625 31.78125 34.625 
z
M 21.921875 38.8125 
Q 15.578125 40.375 12.03125 44.71875 
Q 8.5 49.078125 8.5 55.328125 
Q 8.5 64.0625 14.71875 69.140625 
Q 20.953125 74.21875 31.78125 74.21875 
Q 42.671875 74.21875 48.875 69.140625 
Q 55.078125 64.0625 55.078125 55.328125 
Q 55.078125 49.078125 51.53125 44.71875 
Q 48 40.375 41.703125 38.8125 
Q 48.828125 37.15625 52.796875 32.3125 
Q 56.78125 27.484375 56.78125 20.515625 
Q 56.78125 9.90625 50.3125 4.234375 
Q 43.84375 -1.421875 31.78125 -1.421875 
Q 19.734375 -1.421875 13.25 4.234375 
Q 6.78125 9.90625 6.78125 20.515625 
Q 6.78125 27.484375 10.78125 32.3125 
Q 14.796875 37.15625 21.921875 38.8125 
z
M 18.3125 54.390625 
Q 18.3125 48.734375 21.84375 45.5625 
Q 25.390625 42.390625 31.78125 42.390625 
Q 38.140625 42.390625 41.71875 45.5625 
Q 45.3125 48.734375 45.3125 54.390625 
Q 45.3125 60.0625 41.71875 63.234375 
Q 38.140625 66.40625 31.78125 66.40625 
Q 25.390625 66.40625 21.84375 63.234375 
Q 18.3125 60.0625 18.3125 54.390625 
z
" id="DejaVuSans-56"/>
      </defs>
      <use xlink:href="#DejaVuSans-56"/>
     </g>
    </g>
   </g>
  </g>
  <g id="axis3d_2">
   <g id="line2d_7">
    <path d="M 316.12668 171.68791 
L 251.239879 238.27773 
" style="fill:none;stroke:#000000;stroke-linecap:square;stroke-width:0.8;"/>
   </g>
   <g id="Line3DCollection_2">
    <path d="M 129.866948 102.505071 
L 134.046245 194.238731 
L 255.729543 233.67023 
" style="fill:none;stroke:#b0b0b0;stroke-width:0.8;"/>
    <path d="M 147.250212 89.819556 
L 150.59591 180.366474 
L 270.72626 218.279909 
" style="fill:none;stroke:#b0b0b0;stroke-width:0.8;"/>
    <path d="M 163.958537 77.626582 
L 166.530371 167.009893 
L 285.136664 203.491289 
" style="fill:none;stroke:#b0b0b0;stroke-width:0.8;"/>
    <path d="M 180.030483 65.898008 
L 181.883306 154.140758 
L 298.994481 189.269761 
" style="fill:none;stroke:#b0b0b0;stroke-width:0.8;"/>
    <path d="M 195.501727 54.607799 
L 196.68598 141.732864 
L 312.330896 175.583317 
" style="fill:none;stroke:#b0b0b0;stroke-width:0.8;"/>
   </g>
   <g id="xtick_6">
    <g id="line2d_8">
     <path d="M 254.704115 233.337939 
L 257.783053 234.33567 
" style="fill:none;stroke:#000000;stroke-linecap:square;stroke-width:0.8;"/>
    </g>
    <g id="text_6">
     <!-- 0 -->
     <g transform="translate(265.430654 254.693759)scale(0.1 -0.1)">
      <use xlink:href="#DejaVuSans-48"/>
     </g>
    </g>
   </g>
   <g id="xtick_7">
    <g id="line2d_9">
     <path d="M 269.71494 217.960734 
L 272.751463 218.919068 
" style="fill:none;stroke:#000000;stroke-linecap:square;stroke-width:0.8;"/>
    </g>
    <g id="text_7">
     <!-- 2 -->
     <g transform="translate(280.181112 239.024526)scale(0.1 -0.1)">
      <use xlink:href="#DejaVuSans-50"/>
     </g>
    </g>
   </g>
   <g id="xtick_8">
    <g id="line2d_10">
     <path d="M 284.139145 203.184468 
L 287.134182 204.105694 
" style="fill:none;stroke:#000000;stroke-linecap:square;stroke-width:0.8;"/>
    </g>
    <g id="text_8">
     <!-- 4 -->
     <g transform="translate(294.35448 223.968328)scale(0.1 -0.1)">
      <use xlink:href="#DejaVuSans-52"/>
     </g>
    </g>
   </g>
   <g id="xtick_9">
    <g id="line2d_11">
     <path d="M 298.010457 188.97459 
L 300.964927 189.860821 
" style="fill:none;stroke:#000000;stroke-linecap:square;stroke-width:0.8;"/>
    </g>
    <g id="text_9">
     <!-- 6 -->
     <g transform="translate(307.983974 209.489882)scale(0.1 -0.1)">
      <use xlink:href="#DejaVuSans-54"/>
     </g>
    </g>
   </g>
   <g id="xtick_10">
    <g id="line2d_12">
     <path d="M 311.360068 175.299146 
L 314.274875 176.15234 
" style="fill:none;stroke:#000000;stroke-linecap:square;stroke-width:0.8;"/>
    </g>
    <g id="text_10">
     <!-- 8 -->
     <g transform="translate(321.10031 195.556556)scale(0.1 -0.1)">
      <use xlink:href="#DejaVuSans-56"/>
     </g>
    </g>
   </g>
  </g>
  <g id="axis3d_3">
   <g id="line2d_13">
    <path d="M 316.12668 171.68791 
L 320.238571 81.894718 
" style="fill:none;stroke:#000000;stroke-linecap:square;stroke-width:0.8;"/>
   </g>
   <g id="Line3DCollection_3">
    <path d="M 316.205459 169.967571 
L 200.884845 136.530725 
L 129.013401 196.624949 
" style="fill:none;stroke:#b0b0b0;stroke-width:0.8;"/>
    <path d="M 316.873677 155.375413 
L 200.722361 122.400628 
L 128.293736 181.680645 
" style="fill:none;stroke:#b0b0b0;stroke-width:0.8;"/>
    <path d="M 317.551686 140.569421 
L 200.557609 108.07338 
L 127.563122 166.508977 
" style="fill:none;stroke:#b0b0b0;stroke-width:0.8;"/>
    <path d="M 318.239704 125.544858 
L 200.390542 93.544826 
L 126.821308 151.104718 
" style="fill:none;stroke:#b0b0b0;stroke-width:0.8;"/>
    <path d="M 318.937955 110.296851 
L 200.221111 78.810693 
L 126.068033 135.462477 
" style="fill:none;stroke:#b0b0b0;stroke-width:0.8;"/>
    <path d="M 319.646668 94.820376 
L 200.049266 63.866587 
L 125.30303 119.576696 
" style="fill:none;stroke:#b0b0b0;stroke-width:0.8;"/>
   </g>
   <g id="xtick_11">
    <g id="line2d_14">
     <path d="M 315.237563 169.686933 
L 318.143556 170.529516 
" style="fill:none;stroke:#000000;stroke-linecap:square;stroke-width:0.8;"/>
    </g>
    <g id="text_11">
     <!-- 0 -->
     <g transform="translate(331.275915 174.966846)scale(0.1 -0.1)">
      <use xlink:href="#DejaVuSans-48"/>
     </g>
    </g>
   </g>
   <g id="xtick_12">
    <g id="line2d_15">
     <path d="M 315.898476 155.098559 
L 318.826416 155.929786 
" style="fill:none;stroke:#000000;stroke-linecap:square;stroke-width:0.8;"/>
    </g>
    <g id="text_12">
     <!-- 5000 -->
     <g transform="translate(322.53018 160.409794)scale(0.1 -0.1)">
      <defs>
       <path d="M 10.796875 72.90625 
L 49.515625 72.90625 
L 49.515625 64.59375 
L 19.828125 64.59375 
L 19.828125 46.734375 
Q 21.96875 47.46875 24.109375 47.828125 
Q 26.265625 48.1875 28.421875 48.1875 
Q 40.625 48.1875 47.75 41.5 
Q 54.890625 34.8125 54.890625 23.390625 
Q 54.890625 11.625 47.5625 5.09375 
Q 40.234375 -1.421875 26.90625 -1.421875 
Q 22.3125 -1.421875 17.546875 -0.640625 
Q 12.796875 0.140625 7.71875 1.703125 
L 7.71875 11.625 
Q 12.109375 9.234375 16.796875 8.0625 
Q 21.484375 6.890625 26.703125 6.890625 
Q 35.15625 6.890625 40.078125 11.328125 
Q 45.015625 15.765625 45.015625 23.390625 
Q 45.015625 31 40.078125 35.4375 
Q 35.15625 39.890625 26.703125 39.890625 
Q 22.75 39.890625 18.8125 39.015625 
Q 14.890625 38.140625 10.796875 36.28125 
z
" id="DejaVuSans-53"/>
      </defs>
      <use xlink:href="#DejaVuSans-53"/>
      <use x="63.623047" xlink:href="#DejaVuSans-48"/>
      <use x="127.246094" xlink:href="#DejaVuSans-48"/>
      <use x="190.869141" xlink:href="#DejaVuSans-48"/>
     </g>
    </g>
   </g>
   <g id="xtick_13">
    <g id="line2d_16">
     <path d="M 316.56907 140.296491 
L 319.519291 141.115939 
" style="fill:none;stroke:#000000;stroke-linecap:square;stroke-width:0.8;"/>
    </g>
    <g id="text_13">
     <!-- 10000 -->
     <g transform="translate(320.158595 145.640216)scale(0.1 -0.1)">
      <defs>
       <path d="M 12.40625 8.296875 
L 28.515625 8.296875 
L 28.515625 63.921875 
L 10.984375 60.40625 
L 10.984375 69.390625 
L 28.421875 72.90625 
L 38.28125 72.90625 
L 38.28125 8.296875 
L 54.390625 8.296875 
L 54.390625 0 
L 12.40625 0 
z
" id="DejaVuSans-49"/>
      </defs>
      <use xlink:href="#DejaVuSans-49"/>
      <use x="63.623047" xlink:href="#DejaVuSans-48"/>
      <use x="127.246094" xlink:href="#DejaVuSans-48"/>
      <use x="190.869141" xlink:href="#DejaVuSans-48"/>
      <use x="254.492188" xlink:href="#DejaVuSans-48"/>
     </g>
    </g>
   </g>
   <g id="xtick_14">
    <g id="line2d_17">
     <path d="M 317.24956 125.276001 
L 320.222402 126.083228 
" style="fill:none;stroke:#000000;stroke-linecap:square;stroke-width:0.8;"/>
    </g>
    <g id="text_14">
     <!-- 15000 -->
     <g transform="translate(320.980168 130.653424)scale(0.1 -0.1)">
      <use xlink:href="#DejaVuSans-49"/>
      <use x="63.623047" xlink:href="#DejaVuSans-53"/>
      <use x="127.246094" xlink:href="#DejaVuSans-48"/>
      <use x="190.869141" xlink:href="#DejaVuSans-48"/>
      <use x="254.492188" xlink:href="#DejaVuSans-48"/>
     </g>
    </g>
   </g>
   <g id="xtick_15">
    <g id="line2d_18">
     <path d="M 317.940166 110.032217 
L 320.935978 110.826768 
" style="fill:none;stroke:#000000;stroke-linecap:square;stroke-width:0.8;"/>
    </g>
    <g id="text_15">
     <!-- 20000 -->
     <g transform="translate(321.813913 115.44459)scale(0.1 -0.1)">
      <use xlink:href="#DejaVuSans-50"/>
      <use x="63.623047" xlink:href="#DejaVuSans-48"/>
      <use x="127.246094" xlink:href="#DejaVuSans-48"/>
      <use x="190.869141" xlink:href="#DejaVuSans-48"/>
      <use x="254.492188" xlink:href="#DejaVuSans-48"/>
     </g>
    </g>
   </g>
   <g id="xtick_16">
    <g id="line2d_19">
     <path d="M 318.641115 94.560122 
L 321.660255 95.341526 
" style="fill:none;stroke:#000000;stroke-linecap:square;stroke-width:0.8;"/>
    </g>
    <g id="text_16">
     <!-- 25000 -->
     <g transform="translate(322.660102 100.008744)scale(0.1 -0.1)">
      <use xlink:href="#DejaVuSans-50"/>
      <use x="63.623047" xlink:href="#DejaVuSans-53"/>
      <use x="127.246094" xlink:href="#DejaVuSans-48"/>
      <use x="190.869141" xlink:href="#DejaVuSans-48"/>
      <use x="254.492188" xlink:href="#DejaVuSans-48"/>
     </g>
    </g>
   </g>
  </g>
  <g id="axes_1">
   <g id="Poly3DCollection_1">
    <path clip-path="url(#p87940ca009)" d="M 203.700438 142.115361 
L 203.693117 141.393847 
L 215.86088 144.942995 
L 215.863902 145.66701 
z
" style="fill:#050338;"/>
    <path clip-path="url(#p87940ca009)" d="M 196.401162 148.290596 
L 196.391162 147.564742 
L 203.693117 141.393847 
L 203.700438 142.115361 
z
" style="fill:#0b0777;"/>
    <path clip-path="url(#p87940ca009)" d="M 196.401162 148.290596 
L 203.700438 142.115361 
L 215.863902 145.66701 
L 208.637156 151.907182 
z
" style="fill:#070448;"/>
    <path clip-path="url(#p87940ca009)" d="M 196.391162 147.564742 
L 208.631506 151.178804 
L 215.86088 144.942995 
L 203.693117 141.393847 
z
" style="fill:#0a0667;"/>
    <path clip-path="url(#p87940ca009)" d="M 215.863902 145.66701 
L 215.858865 144.460173 
L 228.157305 148.044905 
L 228.155024 149.255935 
z
" style="fill:#070339;"/>
    <path clip-path="url(#p87940ca009)" d="M 208.637156 151.907182 
L 215.863902 145.66701 
L 215.86088 144.942995 
L 208.631506 151.178804 
z
" style="fill:#050338;"/>
    <path clip-path="url(#p87940ca009)" d="M 208.637156 151.907182 
L 208.627739 150.693069 
L 215.858865 144.460173 
L 215.863902 145.66701 
z
" style="fill:#0e0678;"/>
    <path clip-path="url(#p87940ca009)" d="M 196.401162 148.290596 
L 208.637156 151.907182 
L 208.631506 151.178804 
L 196.391162 147.564742 
z
" style="fill:#0b0777;"/>
    <path clip-path="url(#p87940ca009)" d="M 196.401162 148.290596 
L 196.38332 146.99553 
L 208.627076 150.607611 
L 208.637156 151.907182 
z
" style="fill:#070339;"/>
    <path clip-path="url(#p87940ca009)" d="M 208.637156 151.907182 
L 215.863902 145.66701 
L 228.155024 149.255935 
L 221.002748 155.562072 
z
" style="fill:#090449;"/>
    <path clip-path="url(#p87940ca009)" d="M 208.627739 150.693069 
L 221.000737 154.34373 
L 228.157305 148.044905 
L 215.858865 144.460173 
z
" style="fill:#0c0668;"/>
    <path clip-path="url(#p87940ca009)" d="M 188.96817 154.578956 
L 188.945374 153.276073 
L 196.38332 146.99553 
L 196.401162 148.290596 
z
" style="fill:#0e0678;"/>
    <path clip-path="url(#p87940ca009)" d="M 228.155024 149.255935 
L 228.165093 143.908833 
L 240.618889 147.516959 
L 240.575825 152.882725 
z
" style="fill:#13023e;"/>
    <path clip-path="url(#p87940ca009)" d="M 221.002748 155.562072 
L 228.155024 149.255935 
L 228.157305 148.044905 
L 221.000737 154.34373 
z
" style="fill:#070339;"/>
    <path clip-path="url(#p87940ca009)" d="M 188.96817 154.578956 
L 196.401162 148.290596 
L 208.637156 151.907182 
L 201.27732 158.262275 
z
" style="fill:#090449;"/>
    <path clip-path="url(#p87940ca009)" d="M 221.002748 155.562072 
L 220.993867 150.182583 
L 228.165093 143.908833 
L 228.155024 149.255935 
z
" style="fill:#280484;"/>
    <path clip-path="url(#p87940ca009)" d="M 188.945374 153.276073 
L 201.262378 156.954847 
L 208.627076 150.607611 
L 196.38332 146.99553 
z
" style="fill:#0c0668;"/>
    <path clip-path="url(#p87940ca009)" d="M 208.637156 151.907182 
L 221.002748 155.562072 
L 221.000737 154.34373 
L 208.627739 150.693069 
z
" style="fill:#0e0678;"/>
    <path clip-path="url(#p87940ca009)" d="M 221.002748 155.562072 
L 228.155024 149.255935 
L 240.575825 152.882725 
L 233.500008 159.25588 
z
" style="fill:#18034f;"/>
    <path clip-path="url(#p87940ca009)" d="M 208.637156 151.907182 
L 208.608345 148.192834 
L 220.996595 151.83476 
L 221.002748 155.562072 
z
" style="fill:#0f023c;"/>
    <path clip-path="url(#p87940ca009)" d="M 201.27732 158.262275 
L 208.637156 151.907182 
L 208.627076 150.607611 
L 201.262378 156.954847 
z
" style="fill:#070339;"/>
    <path clip-path="url(#p87940ca009)" d="M 201.27732 158.262275 
L 201.234613 154.525431 
L 208.608345 148.192834 
L 208.637156 151.907182 
z
" style="fill:#200580;"/>
    <path clip-path="url(#p87940ca009)" d="M 220.993867 150.182583 
L 233.52453 153.85756 
L 240.618889 147.516959 
L 228.165093 143.908833 
z
" style="fill:#230472;"/>
    <path clip-path="url(#p87940ca009)" d="M 240.575825 152.882725 
L 240.661909 142.15649 
L 253.281814 145.784096 
L 253.128369 156.547983 
z
" style="fill:#1f0143;"/>
    <path clip-path="url(#p87940ca009)" d="M 188.96817 154.578956 
L 201.27732 158.262275 
L 201.262378 156.954847 
L 188.945374 153.276073 
z
" style="fill:#0e0678;"/>
    <path clip-path="url(#p87940ca009)" d="M 188.96817 154.578956 
L 188.931966 152.509732 
L 201.253589 156.18583 
L 201.27732 158.262275 
z
" style="fill:#0a033a;"/>
    <path clip-path="url(#p87940ca009)" d="M 201.27732 158.262275 
L 208.637156 151.907182 
L 221.002748 155.562072 
L 213.718049 161.984967 
z
" style="fill:#13034d;"/>
    <path clip-path="url(#p87940ca009)" d="M 233.500008 159.25588 
L 240.575825 152.882725 
L 240.618889 147.516959 
L 233.52453 153.85756 
z
" style="fill:#13023e;"/>
    <path clip-path="url(#p87940ca009)" d="M 233.500008 159.25588 
L 233.549029 148.464307 
L 240.661909 142.15649 
L 240.575825 152.882725 
z
" style="fill:#42028e;"/>
    <path clip-path="url(#p87940ca009)" d="M 233.500008 159.25588 
L 240.575825 152.882725 
L 253.128369 156.547983 
L 246.131049 162.989229 
z
" style="fill:#280156;"/>
    <path clip-path="url(#p87940ca009)" d="M 181.397755 160.983577 
L 181.353394 158.901822 
L 188.931966 152.509732 
L 188.96817 154.578956 
z
" style="fill:#16067b;"/>
    <path clip-path="url(#p87940ca009)" d="M 201.234613 154.525431 
L 213.698276 158.235044 
L 220.996595 151.83476 
L 208.608345 148.192834 
z
" style="fill:#1b046f;"/>
    <path clip-path="url(#p87940ca009)" d="M 221.002748 155.562072 
L 233.500008 159.25588 
L 233.52453 153.85756 
L 220.993867 150.182583 
z
" style="fill:#280484;"/>
    <path clip-path="url(#p87940ca009)" d="M 213.718049 161.984967 
L 221.002748 155.562072 
L 220.996595 151.83476 
L 213.698276 158.235044 
z
" style="fill:#0f023c;"/>
    <path clip-path="url(#p87940ca009)" d="M 181.397755 160.983577 
L 188.96817 154.578956 
L 201.27732 158.262275 
L 193.780682 164.735494 
z
" style="fill:#0d034a;"/>
    <path clip-path="url(#p87940ca009)" d="M 181.353394 158.901822 
L 193.748944 162.646454 
L 201.253589 156.18583 
L 188.931966 152.509732 
z
" style="fill:#13056b;"/>
    <path clip-path="url(#p87940ca009)" d="M 253.128369 156.547983 
L 253.297642 144.673779 
L 266.059933 148.336335 
L 265.814761 160.252323 
z
" style="fill:#220144;"/>
    <path clip-path="url(#p87940ca009)" d="M 213.718049 161.984967 
L 221.002748 155.562072 
L 233.500008 159.25588 
L 226.292478 165.747667 
z
" style="fill:#440259;"/>
    <path clip-path="url(#p87940ca009)" d="M 201.27732 158.262275 
L 213.718049 161.984967 
L 213.698276 158.235044 
L 201.234613 154.525431 
z
" style="fill:#200580;"/>
    <path clip-path="url(#p87940ca009)" d="M 221.002748 155.562072 
L 220.966998 133.906464 
L 233.598727 137.523538 
L 233.500008 159.25588 
z
" style="fill:#350146;"/>
    <path clip-path="url(#p87940ca009)" d="M 233.549029 148.464307 
L 246.248282 152.159667 
L 253.281814 145.784096 
L 240.661909 142.15649 
z
" style="fill:#39027b;"/>
    <path clip-path="url(#p87940ca009)" d="M 246.131049 162.989229 
L 253.128369 156.547983 
L 253.281814 145.784096 
L 246.248282 152.159667 
z
" style="fill:#1f0143;"/>
    <path clip-path="url(#p87940ca009)" d="M 246.131049 162.989229 
L 253.128369 156.547983 
L 265.814761 160.252323 
L 258.898031 166.762758 
z
" style="fill:#2b0157;"/>
    <path clip-path="url(#p87940ca009)" d="M 246.131049 162.989229 
L 246.260376 151.042515 
L 253.297642 144.673779 
L 253.128369 156.547983 
z
" style="fill:#480290;"/>
    <path clip-path="url(#p87940ca009)" d="M 193.780682 164.735494 
L 201.27732 158.262275 
L 201.253589 156.18583 
L 193.748944 162.646454 
z
" style="fill:#0a033a;"/>
    <path clip-path="url(#p87940ca009)" d="M 201.27732 158.262275 
L 201.133385 145.667944 
L 213.651406 149.34626 
L 213.718049 161.984967 
z
" style="fill:#230144;"/>
    <path clip-path="url(#p87940ca009)" d="M 213.718049 161.984967 
L 213.603158 140.196197 
L 220.966998 133.906464 
L 221.002748 155.562072 
z
" style="fill:#710394;"/>
    <path clip-path="url(#p87940ca009)" d="M 233.500008 159.25588 
L 246.131049 162.989229 
L 246.248282 152.159667 
L 233.549029 148.464307 
z
" style="fill:#42028e;"/>
    <path clip-path="url(#p87940ca009)" d="M 181.397755 160.983577 
L 193.780682 164.735494 
L 193.748944 162.646454 
L 181.353394 158.901822 
z
" style="fill:#16067b;"/>
    <path clip-path="url(#p87940ca009)" d="M 193.780682 164.735494 
L 201.27732 158.262275 
L 213.718049 161.984967 
L 206.297214 168.527892 
z
" style="fill:#2d0157;"/>
    <path clip-path="url(#p87940ca009)" d="M 193.780682 164.735494 
L 193.588173 152.064157 
L 201.133385 145.667944 
L 201.27732 158.262275 
z
" style="fill:#4b0190;"/>
    <path clip-path="url(#p87940ca009)" d="M 181.397755 160.983577 
L 181.29111 155.978911 
L 193.704382 159.713275 
L 193.780682 164.735494 
z
" style="fill:#12023e;"/>
    <path clip-path="url(#p87940ca009)" d="M 265.814761 160.252323 
L 266.036584 149.471138 
L 278.92912 153.177223 
L 278.637155 163.996376 
z
" style="fill:#1f0143;"/>
    <path clip-path="url(#p87940ca009)" d="M 226.292478 165.747667 
L 233.500008 159.25588 
L 246.131049 162.989229 
L 239.002775 169.551023 
z
" style="fill:#540d54;"/>
    <path clip-path="url(#p87940ca009)" d="M 173.686069 167.507715 
L 173.559095 162.47259 
L 181.29111 155.978911 
L 181.397755 160.983577 
z
" style="fill:#270483;"/>
    <path clip-path="url(#p87940ca009)" d="M 258.898031 166.762758 
L 259.084595 155.915689 
L 266.036584 149.471138 
L 265.814761 160.252323 
z
" style="fill:#42028e;"/>
    <path clip-path="url(#p87940ca009)" d="M 258.898031 166.762758 
L 265.814761 160.252323 
L 278.637155 163.996376 
L 271.803162 170.57712 
z
" style="fill:#280156;"/>
    <path clip-path="url(#p87940ca009)" d="M 258.898031 166.762758 
L 265.814761 160.252323 
L 266.059933 148.336335 
L 259.104233 154.773888 
z
" style="fill:#220144;"/>
    <path clip-path="url(#p87940ca009)" d="M 246.260376 151.042515 
L 259.104233 154.773888 
L 266.059933 148.336335 
L 253.297642 144.673779 
z
" style="fill:#3e017d;"/>
    <path clip-path="url(#p87940ca009)" d="M 233.500008 159.25588 
L 233.629874 130.666918 
L 246.441637 134.298274 
L 246.131049 162.989229 
z
" style="fill:#410a42;"/>
    <path clip-path="url(#p87940ca009)" d="M 173.686069 167.507715 
L 181.397755 160.983577 
L 193.780682 164.735494 
L 186.143392 171.330164 
z
" style="fill:#17034f;"/>
    <path clip-path="url(#p87940ca009)" d="M 226.292478 165.747667 
L 233.500008 159.25588 
L 233.598727 137.523538 
L 226.313732 143.881468 
z
" style="fill:#350146;"/>
    <path clip-path="url(#p87940ca009)" d="M 246.131049 162.989229 
L 258.898031 166.762758 
L 259.104233 154.773888 
L 246.260376 151.042515 
z
" style="fill:#480290;"/>
    <path clip-path="url(#p87940ca009)" d="M 206.297214 168.527892 
L 213.718049 161.984967 
L 226.292478 165.747667 
L 218.949524 172.361429 
z
" style="fill:#722d3b;"/>
    <path clip-path="url(#p87940ca009)" d="M 206.297214 168.527892 
L 213.718049 161.984967 
L 213.651406 149.34626 
L 206.18294 155.811785 
z
" style="fill:#230144;"/>
    <path clip-path="url(#p87940ca009)" d="M 226.292478 165.747667 
L 226.320439 136.981706 
L 233.629874 130.666918 
L 233.500008 159.25588 
z
" style="fill:#8b158b;"/>
    <path clip-path="url(#p87940ca009)" d="M 213.718049 161.984967 
L 226.292478 165.747667 
L 226.313732 143.881468 
L 213.603158 140.196197 
z
" style="fill:#710394;"/>
    <path clip-path="url(#p87940ca009)" d="M 193.588173 152.064157 
L 206.18294 155.811785 
L 213.651406 149.34626 
L 201.133385 145.667944 
z
" style="fill:#41017d;"/>
    <path clip-path="url(#p87940ca009)" d="M 278.637155 163.996376 
L 278.934878 152.963827 
L 291.968535 156.709313 
L 291.597749 167.780781 
z
" style="fill:#200143;"/>
    <path clip-path="url(#p87940ca009)" d="M 173.559095 162.47259 
L 186.047126 166.277333 
L 193.704382 159.713275 
L 181.29111 155.978911 
z
" style="fill:#220472;"/>
    <path clip-path="url(#p87940ca009)" d="M 239.002775 169.551023 
L 246.131049 162.989229 
L 258.898031 166.762758 
L 251.851153 173.395697 
z
" style="fill:#5a1250;"/>
    <path clip-path="url(#p87940ca009)" d="M 213.603158 140.196197 
L 226.313732 143.881468 
L 233.598727 137.523538 
L 220.966998 133.906464 
z
" style="fill:#620380;"/>
    <path clip-path="url(#p87940ca009)" d="M 193.780682 164.735494 
L 206.297214 168.527892 
L 206.18294 155.811785 
L 193.588173 152.064157 
z
" style="fill:#4b0190;"/>
    <path clip-path="url(#p87940ca009)" d="M 186.143392 171.330164 
L 193.780682 164.735494 
L 193.704382 159.713275 
L 186.047126 166.277333 
z
" style="fill:#12023e;"/>
    <path clip-path="url(#p87940ca009)" d="M 259.084595 155.915689 
L 272.060785 159.691749 
L 278.92912 153.177223 
L 266.036584 149.471138 
z
" style="fill:#39027b;"/>
    <path clip-path="url(#p87940ca009)" d="M 271.803162 170.57712 
L 278.637155 163.996376 
L 278.92912 153.177223 
L 272.060785 159.691749 
z
" style="fill:#1f0143;"/>
    <path clip-path="url(#p87940ca009)" d="M 271.803162 170.57712 
L 278.637155 163.996376 
L 291.597749 167.780781 
L 284.848695 174.43298 
z
" style="fill:#290156;"/>
    <path clip-path="url(#p87940ca009)" d="M 271.803162 170.57712 
L 272.065867 159.477036 
L 278.934878 152.963827 
L 278.637155 163.996376 
z
" style="fill:#44028e;"/>
    <path clip-path="url(#p87940ca009)" d="M 186.143392 171.330164 
L 193.780682 164.735494 
L 206.297214 168.527892 
L 198.736391 175.194243 
z
" style="fill:#5f184c;"/>
    <path clip-path="url(#p87940ca009)" d="M 173.686069 167.507715 
L 186.143392 171.330164 
L 186.047126 166.277333 
L 173.559095 162.47259 
z
" style="fill:#270483;"/>
    <path clip-path="url(#p87940ca009)" d="M 246.131049 162.989229 
L 246.473675 131.338751 
L 259.444352 134.998921 
L 258.898031 166.762758 
z
" style="fill:#460e3f;"/>
    <path clip-path="url(#p87940ca009)" d="M 258.898031 166.762758 
L 271.803162 170.57712 
L 272.060785 159.691749 
L 259.084595 155.915689 
z
" style="fill:#42028e;"/>
    <path clip-path="url(#p87940ca009)" d="M 218.949524 172.361429 
L 226.292478 165.747667 
L 239.002775 169.551023 
L 231.739835 176.23678 
z
" style="fill:#773435;"/>
    <path clip-path="url(#p87940ca009)" d="M 291.597749 167.780781 
L 291.842751 160.46513 
L 304.993106 164.264772 
L 304.698789 171.606197 
z
" style="fill:#180240;"/>
    <path clip-path="url(#p87940ca009)" d="M 239.002775 169.551023 
L 246.131049 162.989229 
L 246.441637 134.298274 
L 239.213755 140.682137 
z
" style="fill:#410a42;"/>
    <path clip-path="url(#p87940ca009)" d="M 173.686069 167.507715 
L 173.372561 155.075673 
L 185.9057 158.854157 
L 186.143392 171.330164 
z
" style="fill:#230144;"/>
    <path clip-path="url(#p87940ca009)" d="M 239.002775 169.551023 
L 239.235521 137.703822 
L 246.473675 131.338751 
L 246.131049 162.989229 
z
" style="fill:#951e85;"/>
    <path clip-path="url(#p87940ca009)" d="M 213.718049 161.984967 
L 213.474521 115.800397 
L 226.337532 119.395956 
L 226.292478 165.747667 
z
" style="fill:#59232e;"/>
    <path clip-path="url(#p87940ca009)" d="M 251.851153 173.395697 
L 258.898031 166.762758 
L 271.803162 170.57712 
L 264.839875 177.282368 
z
" style="fill:#540d54;"/>
    <path clip-path="url(#p87940ca009)" d="M 284.848695 174.43298 
L 285.071198 167.072608 
L 291.842751 160.46513 
L 291.597749 167.780781 
z
" style="fill:#320488;"/>
    <path clip-path="url(#p87940ca009)" d="M 226.292478 165.747667 
L 239.002775 169.551023 
L 239.213755 140.682137 
L 226.320439 136.981706 
z
" style="fill:#8b158b;"/>
    <path clip-path="url(#p87940ca009)" d="M 193.780682 164.735494 
L 193.253966 130.065905 
L 205.984536 133.733756 
L 206.297214 168.527892 
z
" style="fill:#4b123b;"/>
    <path clip-path="url(#p87940ca009)" d="M 165.82912 174.154745 
L 173.686069 167.507715 
L 186.143392 171.330164 
L 178.361455 178.049733 
z
" style="fill:#2c0157;"/>
    <path clip-path="url(#p87940ca009)" d="M 165.82912 174.154745 
L 165.463551 161.646413 
L 173.372561 155.075673 
L 173.686069 167.507715 
z
" style="fill:#490290;"/>
    <path clip-path="url(#p87940ca009)" d="M 284.848695 174.43298 
L 291.597749 167.780781 
L 304.698789 171.606197 
L 298.036935 178.33102 
z
" style="fill:#1e0252;"/>
    <path clip-path="url(#p87940ca009)" d="M 284.848695 174.43298 
L 291.597749 167.780781 
L 291.968535 156.709313 
L 285.185435 163.293636 
z
" style="fill:#200143;"/>
    <path clip-path="url(#p87940ca009)" d="M 272.065867 159.477036 
L 285.185435 163.293636 
L 291.968535 156.709313 
L 278.934878 152.963827 
z
" style="fill:#3b027b;"/>
    <path clip-path="url(#p87940ca009)" d="M 206.297214 168.527892 
L 205.879569 122.053252 
L 213.474521 115.800397 
L 213.718049 161.984967 
z
" style="fill:#bc4a61;"/>
    <path clip-path="url(#p87940ca009)" d="M 258.898031 166.762758 
L 259.38932 138.198524 
L 272.481609 141.910655 
L 271.803162 170.57712 
z
" style="fill:#410a42;"/>
    <path clip-path="url(#p87940ca009)" d="M 198.736391 175.194243 
L 206.297214 168.527892 
L 218.949524 172.361429 
L 211.467294 179.100638 
z
" style="fill:#855320;"/>
    <path clip-path="url(#p87940ca009)" d="M 186.143392 171.330164 
L 185.478751 136.444436 
L 193.253966 130.065905 
L 193.780682 164.735494 
z
" style="fill:#9e277e;"/>
    <path clip-path="url(#p87940ca009)" d="M 226.320439 136.981706 
L 239.213755 140.682137 
L 246.441637 134.298274 
L 233.629874 130.666918 
z
" style="fill:#781279;"/>
    <path clip-path="url(#p87940ca009)" d="M 271.803162 170.57712 
L 284.848695 174.43298 
L 285.185435 163.293636 
L 272.065867 159.477036 
z
" style="fill:#44028e;"/>
    <path clip-path="url(#p87940ca009)" d="M 231.739835 176.23678 
L 239.002775 169.551023 
L 251.851153 173.395697 
L 244.670417 180.154631 
z
" style="fill:#783634;"/>
    <path clip-path="url(#p87940ca009)" d="M 251.851153 173.395697 
L 252.245998 144.654057 
L 259.38932 138.198524 
L 258.898031 166.762758 
z
" style="fill:#8b158b;"/>
    <path clip-path="url(#p87940ca009)" d="M 285.071198 167.072608 
L 298.30942 170.944653 
L 304.993106 164.264772 
L 291.842751 160.46513 
z
" style="fill:#2b0376;"/>
    <path clip-path="url(#p87940ca009)" d="M 251.851153 173.395697 
L 258.898031 166.762758 
L 259.444352 134.998921 
L 252.290233 141.434103 
z
" style="fill:#460e3f;"/>
    <path clip-path="url(#p87940ca009)" d="M 264.839875 177.282368 
L 271.803162 170.57712 
L 284.848695 174.43298 
L 277.971253 181.211726 
z
" style="fill:#4f0956;"/>
    <path clip-path="url(#p87940ca009)" d="M 298.036935 178.33102 
L 304.698789 171.606197 
L 304.993106 164.264772 
L 298.30942 170.944653 
z
" style="fill:#180240;"/>
    <path clip-path="url(#p87940ca009)" d="M 226.292478 165.747667 
L 226.341283 115.53694 
L 239.37106 119.157737 
L 239.002775 169.551023 
z
" style="fill:#5d2929;"/>
    <path clip-path="url(#p87940ca009)" d="M 178.361455 178.049733 
L 186.143392 171.330164 
L 198.736391 175.194243 
L 191.031582 181.987547 
z
" style="fill:#7f422b;"/>
    <path clip-path="url(#p87940ca009)" d="M 178.361455 178.049733 
L 186.143392 171.330164 
L 185.9057 158.854157 
L 178.072609 165.497054 
z
" style="fill:#230144;"/>
    <path clip-path="url(#p87940ca009)" d="M 239.002775 169.551023 
L 251.851153 173.395697 
L 252.290233 141.434103 
L 239.235521 137.703822 
z
" style="fill:#951e85;"/>
    <path clip-path="url(#p87940ca009)" d="M 165.463551 161.646413 
L 178.072609 165.497054 
L 185.9057 158.854157 
L 173.372561 155.075673 
z
" style="fill:#40017d;"/>
    <path clip-path="url(#p87940ca009)" d="M 218.949524 172.361429 
L 226.292478 165.747667 
L 226.337532 119.395956 
L 218.824082 125.718081 
z
" style="fill:#59232e;"/>
    <path clip-path="url(#p87940ca009)" d="M 271.803162 170.57712 
L 272.435319 143.866533 
L 285.659041 147.626785 
L 284.848695 174.43298 
z
" style="fill:#3e0743;"/>
    <path clip-path="url(#p87940ca009)" d="M 211.467294 179.100638 
L 218.949524 172.361429 
L 231.739835 176.23678 
L 224.338378 183.050047 
z
" style="fill:#875a1c;"/>
    <path clip-path="url(#p87940ca009)" d="M 284.848695 174.43298 
L 298.036935 178.33102 
L 298.30942 170.944653 
L 285.071198 167.072608 
z
" style="fill:#320488;"/>
    <path clip-path="url(#p87940ca009)" d="M 218.949524 172.361429 
L 218.813636 121.833874 
L 226.341283 115.53694 
L 226.292478 165.747667 
z
" style="fill:#c55658;"/>
    <path clip-path="url(#p87940ca009)" d="M 198.736391 175.194243 
L 206.297214 168.527892 
L 205.984536 133.733756 
L 198.288415 140.18283 
z
" style="fill:#4b123b;"/>
    <path clip-path="url(#p87940ca009)" d="M 165.82912 174.154745 
L 178.361455 178.049733 
L 178.072609 165.497054 
L 165.463551 161.646413 
z
" style="fill:#490290;"/>
    <path clip-path="url(#p87940ca009)" d="M 206.297214 168.527892 
L 218.949524 172.361429 
L 218.824082 125.718081 
L 205.879569 122.053252 
z
" style="fill:#bc4a61;"/>
    <path clip-path="url(#p87940ca009)" d="M 264.839875 177.282368 
L 265.384463 150.40587 
L 272.435319 143.866533 
L 271.803162 170.57712 
z
" style="fill:#840f8f;"/>
    <path clip-path="url(#p87940ca009)" d="M 244.670417 180.154631 
L 251.851153 173.395697 
L 264.839875 177.282368 
L 257.743589 184.115686 
z
" style="fill:#702a3c;"/>
    <path clip-path="url(#p87940ca009)" d="M 284.848695 174.43298 
L 285.261691 160.771112 
L 298.542713 164.620667 
L 298.036935 178.33102 
z
" style="fill:#250145;"/>
    <path clip-path="url(#p87940ca009)" d="M 264.839875 177.282368 
L 271.803162 170.57712 
L 272.481609 141.910655 
L 265.424346 148.437577 
z
" style="fill:#410a42;"/>
    <path clip-path="url(#p87940ca009)" d="M 239.235521 137.703822 
L 252.290233 141.434103 
L 259.444352 134.998921 
L 246.473675 131.338751 
z
" style="fill:#811a73;"/>
    <path clip-path="url(#p87940ca009)" d="M 186.143392 171.330164 
L 198.736391 175.194243 
L 198.288415 140.18283 
L 185.478751 136.444436 
z
" style="fill:#9e277e;"/>
    <path clip-path="url(#p87940ca009)" d="M 157.822766 180.928173 
L 165.82912 174.154745 
L 178.361455 178.049733 
L 170.430723 184.897786 
z
" style="fill:#500a56;"/>
    <path clip-path="url(#p87940ca009)" d="M 277.971253 181.211726 
L 284.848695 174.43298 
L 298.036935 178.33102 
L 291.24765 185.184478 
z
" style="fill:#2f0158;"/>
    <path clip-path="url(#p87940ca009)" d="M 277.971253 181.211726 
L 278.340814 167.465725 
L 285.261691 160.771112 
L 284.848695 174.43298 
z
" style="fill:#4d0191;"/>
    <path clip-path="url(#p87940ca009)" d="M 251.851153 173.395697 
L 264.839875 177.282368 
L 265.424346 148.437577 
L 252.245998 144.654057 
z
" style="fill:#8b158b;"/>
    <path clip-path="url(#p87940ca009)" d="M 191.031582 181.987547 
L 198.736391 175.194243 
L 211.467294 179.100638 
L 203.841786 185.968896 
z
" style="fill:#876c14;"/>
    <path clip-path="url(#p87940ca009)" d="M 239.002775 169.551023 
L 239.379727 117.971893 
L 252.562317 121.628533 
L 251.851153 173.395697 
z
" style="fill:#5e2a28;"/>
    <path clip-path="url(#p87940ca009)" d="M 165.82912 174.154745 
L 165.031853 146.875399 
L 177.731485 150.672565 
L 178.361455 178.049733 
z
" style="fill:#3f0843;"/>
    <path clip-path="url(#p87940ca009)" d="M 224.338378 183.050047 
L 231.739835 176.23678 
L 244.670417 180.154631 
L 237.351973 187.043183 
z
" style="fill:#86561e;"/>
    <path clip-path="url(#p87940ca009)" d="M 231.739835 176.23678 
L 239.002775 169.551023 
L 239.37106 119.157737 
L 231.927518 125.524951 
z
" style="fill:#5d2929;"/>
    <path clip-path="url(#p87940ca009)" d="M 206.297214 168.527892 
L 205.70901 103.073865 
L 218.772845 106.666428 
L 218.949524 172.361429 
z
" style="fill:#684119;"/>
    <path clip-path="url(#p87940ca009)" d="M 231.739835 176.23678 
L 231.931935 124.331321 
L 239.379727 117.971893 
L 239.002775 169.551023 
z
" style="fill:#c75956;"/>
    <path clip-path="url(#p87940ca009)" d="M 252.245998 144.654057 
L 265.424346 148.437577 
L 272.481609 141.910655 
L 259.38932 138.198524 
z
" style="fill:#781279;"/>
    <path clip-path="url(#p87940ca009)" d="M 185.478751 136.444436 
L 198.288415 140.18283 
L 205.984536 133.733756 
L 193.253966 130.065905 
z
" style="fill:#89226d;"/>
    <path clip-path="url(#p87940ca009)" d="M 157.822766 180.928173 
L 156.907665 153.479077 
L 165.031853 146.875399 
L 165.82912 174.154745 
z
" style="fill:#85108e;"/>
    <path clip-path="url(#p87940ca009)" d="M 277.971253 181.211726 
L 284.848695 174.43298 
L 285.659041 147.626785 
L 278.696421 154.238768 
z
" style="fill:#3e0743;"/>
    <path clip-path="url(#p87940ca009)" d="M 257.743589 184.115686 
L 264.839875 177.282368 
L 277.971253 181.211726 
L 270.961723 188.120663 
z
" style="fill:#692243;"/>
    <path clip-path="url(#p87940ca009)" d="M 218.949524 172.361429 
L 231.739835 176.23678 
L 231.927518 125.524951 
L 218.813636 121.833874 
z
" style="fill:#c55658;"/>
    <path clip-path="url(#p87940ca009)" d="M 251.851153 173.395697 
L 252.471685 128.225787 
L 265.758462 131.948316 
L 264.839875 177.282368 
z
" style="fill:#57212f;"/>
    <path clip-path="url(#p87940ca009)" d="M 205.879569 122.053252 
L 218.824082 125.718081 
L 226.337532 119.395956 
L 213.474521 115.800397 
z
" style="fill:#a44054;"/>
    <path clip-path="url(#p87940ca009)" d="M 170.430723 184.897786 
L 178.361455 178.049733 
L 191.031582 181.987547 
L 183.178635 188.911464 
z
" style="fill:#876118;"/>
    <path clip-path="url(#p87940ca009)" d="M 198.736391 175.194243 
L 197.893547 109.321989 
L 205.70901 103.073865 
L 206.297214 168.527892 
z
" style="fill:#dd8936;"/>
    <path clip-path="url(#p87940ca009)" d="M 186.143392 171.330164 
L 185.039802 113.404857 
L 197.992512 117.056606 
L 198.736391 175.194243 
z
" style="fill:#633422;"/>
    <path clip-path="url(#p87940ca009)" d="M 264.839875 177.282368 
L 277.971253 181.211726 
L 278.696421 154.238768 
L 265.384463 150.40587 
z
" style="fill:#840f8f;"/>
    <path clip-path="url(#p87940ca009)" d="M 291.24765 185.184478 
L 298.036935 178.33102 
L 298.542713 164.620667 
L 291.711257 171.389575 
z
" style="fill:#250145;"/>
    <path clip-path="url(#p87940ca009)" d="M 203.841786 185.968896 
L 211.467294 179.100638 
L 224.338378 183.050047 
L 216.794403 189.994506 
z
" style="fill:#876c14;"/>
    <path clip-path="url(#p87940ca009)" d="M 278.340814 167.465725 
L 291.711257 171.389575 
L 298.542713 164.620667 
L 285.261691 160.771112 
z
" style="fill:#43017e;"/>
    <path clip-path="url(#p87940ca009)" d="M 244.670417 180.154631 
L 245.133447 134.699868 
L 252.471685 128.225787 
L 251.851153 173.395697 
z
" style="fill:#b94664;"/>
    <path clip-path="url(#p87940ca009)" d="M 178.361455 178.049733 
L 177.020069 119.755926 
L 185.039802 113.404857 
L 186.143392 171.330164 
z
" style="fill:#d36e47;"/>
    <path clip-path="url(#p87940ca009)" d="M 277.971253 181.211726 
L 278.253263 170.72225 
L 291.601422 174.65778 
L 291.24765 185.184478 
z
" style="fill:#1f0143;"/>
    <path clip-path="url(#p87940ca009)" d="M 265.384463 150.40587 
L 278.696421 154.238768 
L 285.659041 147.626785 
L 272.435319 143.866533 
z
" style="fill:#720d7c;"/>
    <path clip-path="url(#p87940ca009)" d="M 237.351973 187.043183 
L 244.670417 180.154631 
L 257.743589 184.115686 
L 250.510457 191.080779 
z
" style="fill:#814728;"/>
    <path clip-path="url(#p87940ca009)" d="M 277.971253 181.211726 
L 291.24765 185.184478 
L 291.711257 171.389575 
L 278.340814 167.465725 
z
" style="fill:#4d0191;"/>
    <path clip-path="url(#p87940ca009)" d="M 244.670417 180.154631 
L 251.851153 173.395697 
L 252.562317 121.628533 
L 245.201091 128.059379 
z
" style="fill:#5e2a28;"/>
    <path clip-path="url(#p87940ca009)" d="M 149.662704 187.831639 
L 157.822766 180.928173 
L 170.430723 184.897786 
L 162.346885 191.878042 
z
" style="fill:#702b3c;"/>
    <path clip-path="url(#p87940ca009)" d="M 170.430723 184.897786 
L 178.361455 178.049733 
L 177.731485 150.672565 
L 169.684927 157.350002 
z
" style="fill:#3f0843;"/>
    <path clip-path="url(#p87940ca009)" d="M 264.839875 177.282368 
L 265.663838 136.61817 
L 279.068476 140.400038 
L 277.971253 181.211726 
z
" style="fill:#521a35;"/>
    <path clip-path="url(#p87940ca009)" d="M 270.961723 188.120663 
L 271.209242 177.566602 
L 278.253263 170.72225 
L 277.971253 181.211726 
z
" style="fill:#41028d;"/>
    <path clip-path="url(#p87940ca009)" d="M 218.949524 172.361429 
L 218.763525 103.200748 
L 231.996743 106.82035 
L 231.739835 176.23678 
z
" style="fill:#694716;"/>
    <path clip-path="url(#p87940ca009)" d="M 270.961723 188.120663 
L 277.971253 181.211726 
L 291.24765 185.184478 
L 284.327244 192.170297 
z
" style="fill:#270155;"/>
    <path clip-path="url(#p87940ca009)" d="M 183.178635 188.911464 
L 191.031582 181.987547 
L 203.841786 185.968896 
L 196.068846 192.969946 
z
" style="fill:#808413;"/>
    <path clip-path="url(#p87940ca009)" d="M 211.467294 179.100638 
L 218.949524 172.361429 
L 218.772845 106.666428 
L 211.041167 112.985094 
z
" style="fill:#684119;"/>
    <path clip-path="url(#p87940ca009)" d="M 231.739835 176.23678 
L 244.670417 180.154631 
L 245.201091 128.059379 
L 231.931935 124.331321 
z
" style="fill:#c75956;"/>
    <path clip-path="url(#p87940ca009)" d="M 157.822766 180.928173 
L 170.430723 184.897786 
L 169.684927 157.350002 
L 156.907665 153.479077 
z
" style="fill:#85108e;"/>
    <path clip-path="url(#p87940ca009)" d="M 257.743589 184.115686 
L 258.429809 143.195539 
L 265.663838 136.61817 
L 264.839875 177.282368 
z
" style="fill:#ae386f;"/>
    <path clip-path="url(#p87940ca009)" d="M 211.467294 179.100638 
L 211.01868 109.496087 
L 218.763525 103.200748 
L 218.949524 172.361429 
z
" style="fill:#df962e;"/>
    <path clip-path="url(#p87940ca009)" d="M 216.794403 189.994506 
L 224.338378 183.050047 
L 237.351973 187.043183 
L 229.891821 194.06512 
z
" style="fill:#876317;"/>
    <path clip-path="url(#p87940ca009)" d="M 218.813636 121.833874 
L 231.927518 125.524951 
L 239.37106 119.157737 
L 226.341283 115.53694 
z
" style="fill:#ab4b4c;"/>
    <path clip-path="url(#p87940ca009)" d="M 257.743589 184.115686 
L 264.839875 177.282368 
L 265.758462 131.948316 
L 258.508631 138.495274 
z
" style="fill:#57212f;"/>
    <path clip-path="url(#p87940ca009)" d="M 198.736391 175.194243 
L 211.467294 179.100638 
L 211.041167 112.985094 
L 197.893547 109.321989 
z
" style="fill:#dd8936;"/>
    <path clip-path="url(#p87940ca009)" d="M 191.031582 181.987547 
L 198.736391 175.194243 
L 197.992512 117.056606 
L 190.054351 123.479406 
z
" style="fill:#633422;"/>
    <path clip-path="url(#p87940ca009)" d="M 156.907665 153.479077 
L 169.684927 157.350002 
L 177.731485 150.672565 
L 165.031853 146.875399 
z
" style="fill:#730e7b;"/>
    <path clip-path="url(#p87940ca009)" d="M 250.510457 191.080779 
L 257.743589 184.115686 
L 270.961723 188.120663 
L 263.816264 195.163579 
z
" style="fill:#692243;"/>
    <path clip-path="url(#p87940ca009)" d="M 231.739835 176.23678 
L 231.990393 108.535989 
L 245.362611 112.203348 
L 244.670417 180.154631 
z
" style="fill:#694418;"/>
    <path clip-path="url(#p87940ca009)" d="M 244.670417 180.154631 
L 257.743589 184.115686 
L 258.508631 138.495274 
L 245.133447 134.699868 
z
" style="fill:#b94664;"/>
    <path clip-path="url(#p87940ca009)" d="M 162.346885 191.878042 
L 170.430723 184.897786 
L 183.178635 188.911464 
L 175.173234 195.969799 
z
" style="fill:#876c14;"/>
    <path clip-path="url(#p87940ca009)" d="M 271.209242 177.566602 
L 284.647505 181.5787 
L 291.601422 174.65778 
L 278.253263 170.72225 
z
" style="fill:#38027b;"/>
    <path clip-path="url(#p87940ca009)" d="M 178.361455 178.049733 
L 191.031582 181.987547 
L 190.054351 123.479406 
L 177.020069 119.755926 
z
" style="fill:#d36e47;"/>
    <path clip-path="url(#p87940ca009)" d="M 284.327244 192.170297 
L 291.24765 185.184478 
L 291.601422 174.65778 
L 284.647505 181.5787 
z
" style="fill:#1f0143;"/>
    <path clip-path="url(#p87940ca009)" d="M 270.961723 188.120663 
L 271.046465 184.507339 
L 284.436888 188.544193 
L 284.327244 192.170297 
z
" style="fill:#0e023c;"/>
    <path clip-path="url(#p87940ca009)" d="M 198.736391 175.194243 
L 197.753596 98.384211 
L 210.970396 102.004612 
L 211.467294 179.100638 
z
" style="fill:#695410;"/>
    <path clip-path="url(#p87940ca009)" d="M 157.822766 180.928173 
L 156.298512 135.207094 
L 169.188413 139.010006 
L 170.430723 184.897786 
z
" style="fill:#58222f;"/>
    <path clip-path="url(#p87940ca009)" d="M 196.068846 192.969946 
L 203.841786 185.968896 
L 216.794403 189.994506 
L 209.103753 197.073984 
z
" style="fill:#837c14;"/>
    <path clip-path="url(#p87940ca009)" d="M 224.338378 183.050047 
L 224.338378 114.914517 
L 231.990393 108.535989 
L 231.739835 176.23678 
z
" style="fill:#de8f32;"/>
    <path clip-path="url(#p87940ca009)" d="M 270.961723 188.120663 
L 284.327244 192.170297 
L 284.647505 181.5787 
L 271.209242 177.566602 
z
" style="fill:#41028d;"/>
    <path clip-path="url(#p87940ca009)" d="M 270.961723 188.120663 
L 277.971253 181.211726 
L 279.068476 140.400038 
L 271.924894 147.051694 
z
" style="fill:#521a35;"/>
    <path clip-path="url(#p87940ca009)" d="M 224.338378 183.050047 
L 231.739835 176.23678 
L 231.996743 106.82035 
L 224.338378 113.187289 
z
" style="fill:#694716;"/>
    <path clip-path="url(#p87940ca009)" d="M 263.816264 195.163579 
L 263.888715 191.528082 
L 271.046465 184.507339 
L 270.961723 188.120663 
z
" style="fill:#1e057f;"/>
    <path clip-path="url(#p87940ca009)" d="M 191.031582 181.987547 
L 189.740373 104.681143 
L 197.753596 98.384211 
L 198.736391 175.194243 
z
" style="fill:#dfb222;"/>
    <path clip-path="url(#p87940ca009)" d="M 229.891821 194.06512 
L 237.351973 187.043183 
L 250.510457 191.080779 
L 243.136481 198.181496 
z
" style="fill:#844d24;"/>
    <path clip-path="url(#p87940ca009)" d="M 149.662704 187.831639 
L 147.934649 141.821273 
L 156.298512 135.207094 
L 157.822766 180.928173 
z
" style="fill:#ba4763;"/>
    <path clip-path="url(#p87940ca009)" d="M 244.670417 180.154631 
L 245.288719 119.457108 
L 258.765222 123.194401 
L 257.743589 184.115686 
z
" style="fill:#65381f;"/>
    <path clip-path="url(#p87940ca009)" d="M 178.361455 178.049733 
L 176.683764 105.140814 
L 189.809296 108.807615 
L 191.031582 181.987547 
z
" style="fill:#6a4c13;"/>
    <path clip-path="url(#p87940ca009)" d="M 231.931935 124.331321 
L 245.201091 128.059379 
L 252.562317 121.628533 
L 239.379727 117.971893 
z
" style="fill:#ad4e4a;"/>
    <path clip-path="url(#p87940ca009)" d="M 141.344465 194.868925 
L 149.662704 187.831639 
L 162.346885 191.878042 
L 154.105465 198.994368 
z
" style="fill:#743038;"/>
    <path clip-path="url(#p87940ca009)" d="M 257.743589 184.115686 
L 258.428871 143.251466 
L 271.923577 147.107831 
L 270.961723 188.120663 
z
" style="fill:#521a35;"/>
    <path clip-path="url(#p87940ca009)" d="M 257.743589 184.115686 
L 270.961723 188.120663 
L 271.924894 147.051694 
L 258.429809 143.195539 
z
" style="fill:#ae386f;"/>
    <path clip-path="url(#p87940ca009)" d="M 211.467294 179.100638 
L 224.338378 183.050047 
L 224.338378 113.187289 
L 211.01868 109.496087 
z
" style="fill:#df962e;"/>
    <path clip-path="url(#p87940ca009)" d="M 263.816264 195.163579 
L 270.961723 188.120663 
L 284.327244 192.170297 
L 277.271882 199.292348 
z
" style="fill:#12034d;"/>
    <path clip-path="url(#p87940ca009)" d="M 175.173234 195.969799 
L 183.178635 188.911464 
L 196.068846 192.969946 
L 188.144156 200.107676 
z
" style="fill:#808512;"/>
    <path clip-path="url(#p87940ca009)" d="M 237.351973 187.043183 
L 237.751631 125.957329 
L 245.288719 119.457108 
L 244.670417 180.154631 
z
" style="fill:#d67642;"/>
    <path clip-path="url(#p87940ca009)" d="M 170.430723 184.897786 
L 168.444141 111.518507 
L 176.683764 105.140814 
L 178.361455 178.049733 
z
" style="fill:#e0a128;"/>
    <path clip-path="url(#p87940ca009)" d="M 211.467294 179.100638 
L 210.970932 102.087802 
L 224.338378 105.749943 
L 224.338378 183.050047 
z
" style="fill:#695410;"/>
    <path clip-path="url(#p87940ca009)" d="M 263.888715 191.528082 
L 277.369575 195.643967 
L 284.436888 188.544193 
L 271.046465 184.507339 
z
" style="fill:#1a046e;"/>
    <path clip-path="url(#p87940ca009)" d="M 245.133447 134.699868 
L 258.508631 138.495274 
L 265.758462 131.948316 
L 252.471685 128.225787 
z
" style="fill:#a13d57;"/>
    <path clip-path="url(#p87940ca009)" d="M 250.510457 191.080779 
L 251.052641 149.95867 
L 258.428871 143.251466 
L 257.743589 184.115686 
z
" style="fill:#ae386f;"/>
    <path clip-path="url(#p87940ca009)" d="M 209.103753 197.073984 
L 216.794403 189.994506 
L 229.891821 194.06512 
L 222.285805 201.224351 
z
" style="fill:#866e14;"/>
    <path clip-path="url(#p87940ca009)" d="M 237.351973 187.043183 
L 244.670417 180.154631 
L 245.362611 112.203348 
L 237.799408 118.654777 
z
" style="fill:#694418;"/>
    <path clip-path="url(#p87940ca009)" d="M 277.271882 199.292348 
L 284.327244 192.170297 
L 284.436888 188.544193 
L 277.369575 195.643967 
z
" style="fill:#0e023c;"/>
    <path clip-path="url(#p87940ca009)" d="M 203.841786 185.968896 
L 203.043491 108.457484 
L 210.970932 102.087802 
L 211.467294 179.100638 
z
" style="fill:#dfb222;"/>
    <path clip-path="url(#p87940ca009)" d="M 203.841786 185.968896 
L 211.467294 179.100638 
L 210.970396 102.004612 
L 203.042629 108.373724 
z
" style="fill:#695410;"/>
    <path clip-path="url(#p87940ca009)" d="M 243.136481 198.181496 
L 250.510457 191.080779 
L 263.816264 195.163579 
L 256.530882 202.34441 
z
" style="fill:#540d54;"/>
    <path clip-path="url(#p87940ca009)" d="M 162.346885 191.878042 
L 170.430723 184.897786 
L 169.188413 139.010006 
L 160.904171 145.699466 
z
" style="fill:#58222f;"/>
    <path clip-path="url(#p87940ca009)" d="M 197.893547 109.321989 
L 211.041167 112.985094 
L 218.772845 106.666428 
L 205.70901 103.073865 
z
" style="fill:#bf772f;"/>
    <path clip-path="url(#p87940ca009)" d="M 224.338378 183.050047 
L 237.351973 187.043183 
L 237.799408 118.654777 
L 224.338378 114.914517 
z
" style="fill:#de8f32;"/>
    <path clip-path="url(#p87940ca009)" d="M 177.020069 119.755926 
L 190.054351 123.479406 
L 197.992512 117.056606 
L 185.039802 113.404857 
z
" style="fill:#b75f3e;"/>
    <path clip-path="url(#p87940ca009)" d="M 258.429809 143.195539 
L 271.924894 147.051694 
L 279.068476 140.400038 
L 265.663838 136.61817 
z
" style="fill:#973161;"/>
    <path clip-path="url(#p87940ca009)" d="M 154.105465 198.994368 
L 162.346885 191.878042 
L 175.173234 195.969799 
L 167.010898 203.166503 
z
" style="fill:#86551f;"/>
    <path clip-path="url(#p87940ca009)" d="M 263.816264 195.163579 
L 263.855542 193.192646 
L 277.324844 197.31444 
L 277.271882 199.292348 
z
" style="fill:#09033a;"/>
    <path clip-path="url(#p87940ca009)" d="M 263.816264 195.163579 
L 277.271882 199.292348 
L 277.369575 195.643967 
L 263.888715 191.528082 
z
" style="fill:#1e057f;"/>
    <path clip-path="url(#p87940ca009)" d="M 191.031582 181.987547 
L 203.841786 185.968896 
L 203.042629 108.373724 
L 189.740373 104.681143 
z
" style="fill:#dfb222;"/>
    <path clip-path="url(#p87940ca009)" d="M 149.662704 187.831639 
L 162.346885 191.878042 
L 160.904171 145.699466 
L 147.934649 141.821273 
z
" style="fill:#ba4763;"/>
    <path clip-path="url(#p87940ca009)" d="M 224.338378 183.050047 
L 224.338378 109.173137 
L 237.837119 112.890905 
L 237.351973 187.043183 
z
" style="fill:#6a4d12;"/>
    <path clip-path="url(#p87940ca009)" d="M 250.510457 191.080779 
L 250.901142 161.449089 
L 264.408922 165.424813 
L 263.816264 195.163579 
z
" style="fill:#420b41;"/>
    <path clip-path="url(#p87940ca009)" d="M 188.144156 200.107676 
L 196.068846 192.969946 
L 209.103753 197.073984 
L 201.262108 204.292457 
z
" style="fill:#857413;"/>
    <path clip-path="url(#p87940ca009)" d="M 250.510457 191.080779 
L 257.743589 184.115686 
L 258.765222 123.194401 
L 251.318835 129.769074 
z
" style="fill:#65381f;"/>
    <path clip-path="url(#p87940ca009)" d="M 183.178635 188.911464 
L 191.031582 181.987547 
L 189.809296 108.807615 
L 181.653103 115.258575 
z
" style="fill:#6a4c13;"/>
    <path clip-path="url(#p87940ca009)" d="M 149.662704 187.831639 
L 147.809333 138.484672 
L 160.799533 142.350203 
L 162.346885 191.878042 
z
" style="fill:#5b262c;"/>
    <path clip-path="url(#p87940ca009)" d="M 256.530882 202.34441 
L 256.563225 200.361375 
L 263.855542 193.192646 
L 263.816264 195.163579 
z
" style="fill:#13067a;"/>
    <path clip-path="url(#p87940ca009)" d="M 263.816264 195.163579 
L 270.961723 188.120663 
L 271.923577 147.107831 
L 264.638766 153.891535 
z
" style="fill:#521a35;"/>
    <path clip-path="url(#p87940ca009)" d="M 191.031582 181.987547 
L 189.585091 95.384151 
L 202.946497 99.039764 
L 203.841786 185.968896 
z
" style="fill:#64670f;"/>
    <path clip-path="url(#p87940ca009)" d="M 222.285805 201.224351 
L 229.891821 194.06512 
L 243.136481 198.181496 
L 235.617509 205.421836 
z
" style="fill:#824a26;"/>
    <path clip-path="url(#p87940ca009)" d="M 216.794403 189.994506 
L 216.511977 115.639683 
L 224.338378 109.173137 
L 224.338378 183.050047 
z
" style="fill:#e0a427;"/>
    <path clip-path="url(#p87940ca009)" d="M 243.136481 198.181496 
L 243.419865 168.364008 
L 250.901142 161.449089 
L 250.510457 191.080779 
z
" style="fill:#8c168a;"/>
    <path clip-path="url(#p87940ca009)" d="M 237.351973 187.043183 
L 250.510457 191.080779 
L 251.318835 129.769074 
L 237.751631 125.957329 
z
" style="fill:#d67642;"/>
    <path clip-path="url(#p87940ca009)" d="M 170.430723 184.897786 
L 183.178635 188.911464 
L 181.653103 115.258575 
L 168.444141 111.518507 
z
" style="fill:#e0a128;"/>
    <path clip-path="url(#p87940ca009)" d="M 141.344465 194.868925 
L 139.264179 145.208083 
L 147.809333 138.484672 
L 149.662704 187.831639 
z
" style="fill:#c1505c;"/>
    <path clip-path="url(#p87940ca009)" d="M 216.794403 189.994506 
L 224.338378 183.050047 
L 224.338378 105.749943 
L 216.498885 112.193058 
z
" style="fill:#695410;"/>
    <path clip-path="url(#p87940ca009)" d="M 250.510457 191.080779 
L 263.816264 195.163579 
L 264.638766 153.891535 
L 251.052641 149.95867 
z
" style="fill:#ae386f;"/>
    <path clip-path="url(#p87940ca009)" d="M 256.530882 202.34441 
L 263.816264 195.163579 
L 277.271882 199.292348 
L 270.077576 206.554656 
z
" style="fill:#0c044a;"/>
    <path clip-path="url(#p87940ca009)" d="M 237.351973 187.043183 
L 237.772672 122.741222 
L 251.361403 126.540495 
L 250.510457 191.080779 
z
" style="fill:#673d1c;"/>
    <path clip-path="url(#p87940ca009)" d="M 170.430723 184.897786 
L 168.324355 107.093901 
L 181.561097 110.816507 
L 183.178635 188.911464 
z
" style="fill:#695510;"/>
    <path clip-path="url(#p87940ca009)" d="M 183.178635 188.911464 
L 181.373156 101.742713 
L 189.585091 95.384151 
L 191.031582 181.987547 
z
" style="fill:#d4da20;"/>
    <path clip-path="url(#p87940ca009)" d="M 256.563225 200.361375 
L 270.123791 204.56459 
L 277.324844 197.31444 
L 263.855542 193.192646 
z
" style="fill:#11056a;"/>
    <path clip-path="url(#p87940ca009)" d="M 167.010898 203.166503 
L 175.173234 195.969799 
L 188.144156 200.107676 
L 180.063228 207.386128 
z
" style="fill:#875d1a;"/>
    <path clip-path="url(#p87940ca009)" d="M 203.841786 185.968896 
L 216.794403 189.994506 
L 216.498885 112.193058 
L 203.043491 108.457484 
z
" style="fill:#dfb222;"/>
    <path clip-path="url(#p87940ca009)" d="M 229.891821 194.06512 
L 230.073146 129.349562 
L 237.772672 122.741222 
L 237.351973 187.043183 
z
" style="fill:#da803b;"/>
    <path clip-path="url(#p87940ca009)" d="M 211.01868 109.496087 
L 224.338378 113.187289 
L 231.996743 106.82035 
L 218.763525 103.200748 
z
" style="fill:#c28228;"/>
    <path clip-path="url(#p87940ca009)" d="M 162.346885 191.878042 
L 159.900348 113.568987 
L 168.324355 107.093901 
L 170.430723 184.897786 
z
" style="fill:#dfb321;"/>
    <path clip-path="url(#p87940ca009)" d="M 201.262108 204.292457 
L 209.103753 197.073984 
L 222.285805 201.224351 
L 214.529606 208.524945 
z
" style="fill:#876218;"/>
    <path clip-path="url(#p87940ca009)" d="M 147.934649 141.821273 
L 160.904171 145.699466 
L 169.188413 139.010006 
L 156.298512 135.207094 
z
" style="fill:#a23e56;"/>
    <path clip-path="url(#p87940ca009)" d="M 243.136481 198.181496 
L 243.288096 182.228667 
L 256.792007 186.334438 
L 256.530882 202.34441 
z
" style="fill:#280045;"/>
    <path clip-path="url(#p87940ca009)" d="M 270.077576 206.554656 
L 277.271882 199.292348 
L 277.324844 197.31444 
L 270.123791 204.56459 
z
" style="fill:#09033a;"/>
    <path clip-path="url(#p87940ca009)" d="M 203.841786 185.968896 
L 202.97313 101.625644 
L 216.472832 105.334038 
L 216.794403 189.994506 
z
" style="fill:#666110;"/>
    <path clip-path="url(#p87940ca009)" d="M 235.617509 205.421836 
L 243.136481 198.181496 
L 256.530882 202.34441 
L 249.101427 209.667246 
z
" style="fill:#340059;"/>
    <path clip-path="url(#p87940ca009)" d="M 229.891821 194.06512 
L 237.351973 187.043183 
L 237.837119 112.890905 
L 230.100933 119.432307 
z
" style="fill:#6a4d12;"/>
    <path clip-path="url(#p87940ca009)" d="M 256.530882 202.34441 
L 263.816264 195.163579 
L 264.408922 165.424813 
L 257.018972 172.418929 
z
" style="fill:#420b41;"/>
    <path clip-path="url(#p87940ca009)" d="M 154.105465 198.994368 
L 162.346885 191.878042 
L 160.799533 142.350203 
L 152.334884 149.151029 
z
" style="fill:#5b262c;"/>
    <path clip-path="url(#p87940ca009)" d="M 256.530882 202.34441 
L 256.547827 201.305488 
L 270.101788 205.512054 
L 270.077576 206.554656 
z
" style="fill:#050338;"/>
    <path clip-path="url(#p87940ca009)" d="M 251.052641 149.95867 
L 264.638766 153.891535 
L 271.923577 147.107831 
L 258.428871 143.251466 
z
" style="fill:#973161;"/>
    <path clip-path="url(#p87940ca009)" d="M 235.617509 205.421836 
L 235.709382 189.369863 
L 243.288096 182.228667 
L 243.136481 198.181496 
z
" style="fill:#560093;"/>
    <path clip-path="url(#p87940ca009)" d="M 256.530882 202.34441 
L 270.077576 206.554656 
L 270.123791 204.56459 
L 256.563225 200.361375 
z
" style="fill:#13067a;"/>
    <path clip-path="url(#p87940ca009)" d="M 196.068846 192.969946 
L 194.85869 108.076138 
L 202.97313 101.625644 
L 203.841786 185.968896 
z
" style="fill:#d9ce22;"/>
    <path clip-path="url(#p87940ca009)" d="M 196.068846 192.969946 
L 203.841786 185.968896 
L 202.946497 99.039764 
L 194.821572 105.472279 
z
" style="fill:#64670f;"/>
    <path clip-path="url(#p87940ca009)" d="M 216.794403 189.994506 
L 229.891821 194.06512 
L 230.100933 119.432307 
L 216.511977 115.639683 
z
" style="fill:#e0a427;"/>
    <path clip-path="url(#p87940ca009)" d="M 243.136481 198.181496 
L 256.530882 202.34441 
L 257.018972 172.418929 
L 243.419865 168.364008 
z
" style="fill:#8c168a;"/>
    <path clip-path="url(#p87940ca009)" d="M 180.063228 207.386128 
L 188.144156 200.107676 
L 201.262108 204.292457 
L 193.264978 211.654059 
z
" style="fill:#855320;"/>
    <path clip-path="url(#p87940ca009)" d="M 141.344465 194.868925 
L 154.105465 198.994368 
L 152.334884 149.151029 
L 139.264179 145.208083 
z
" style="fill:#c1505c;"/>
    <path clip-path="url(#p87940ca009)" d="M 224.338378 114.914517 
L 237.799408 118.654777 
L 245.362611 112.203348 
L 231.990393 108.535989 
z
" style="fill:#c17c2b;"/>
    <path clip-path="url(#p87940ca009)" d="M 249.101427 209.667246 
L 249.11459 208.621939 
L 256.547827 201.305488 
L 256.530882 202.34441 
z
" style="fill:#0b0777;"/>
    <path clip-path="url(#p87940ca009)" d="M 162.346885 191.878042 
L 160.219382 123.780669 
L 173.47614 127.618862 
L 175.173234 195.969799 
z
" style="fill:#684218;"/>
    <path clip-path="url(#p87940ca009)" d="M 216.794403 189.994506 
L 216.495366 111.266398 
L 230.113235 115.041699 
L 229.891821 194.06512 
z
" style="fill:#69560f;"/>
    <path clip-path="url(#p87940ca009)" d="M 243.136481 198.181496 
L 250.510457 191.080779 
L 251.361403 126.540495 
L 243.75382 133.225405 
z
" style="fill:#673d1c;"/>
    <path clip-path="url(#p87940ca009)" d="M 175.173234 195.969799 
L 183.178635 188.911464 
L 181.561097 110.816507 
L 173.221593 117.366889 
z
" style="fill:#695510;"/>
    <path clip-path="url(#p87940ca009)" d="M 183.178635 188.911464 
L 196.068846 192.969946 
L 194.821572 105.472279 
L 181.373156 101.742713 
z
" style="fill:#d4da20;"/>
    <path clip-path="url(#p87940ca009)" d="M 214.529606 208.524945 
L 222.285805 201.224351 
L 235.617509 205.421836 
L 227.94922 212.80596 
z
" style="fill:#6f2a3d;"/>
    <path clip-path="url(#p87940ca009)" d="M 183.178635 188.911464 
L 181.360723 101.142412 
L 194.812981 104.869564 
L 196.068846 192.969946 
z
" style="fill:#64680e;"/>
    <path clip-path="url(#p87940ca009)" d="M 243.419865 168.364008 
L 257.018972 172.418929 
L 264.408922 165.424813 
L 250.901142 161.449089 
z
" style="fill:#791378;"/>
    <path clip-path="url(#p87940ca009)" d="M 237.751631 125.957329 
L 251.318835 129.769074 
L 258.765222 123.194401 
L 245.288719 119.457108 
z
" style="fill:#ba6639;"/>
    <path clip-path="url(#p87940ca009)" d="M 229.891821 194.06512 
L 230.06795 131.203844 
L 243.736128 135.086911 
L 243.136481 198.181496 
z
" style="fill:#663a1e;"/>
    <path clip-path="url(#p87940ca009)" d="M 154.105465 198.994368 
L 151.670816 130.45695 
L 160.219382 123.780669 
L 162.346885 191.878042 
z
" style="fill:#dd8d33;"/>
    <path clip-path="url(#p87940ca009)" d="M 209.103753 197.073984 
L 208.493758 117.833353 
L 216.495366 111.266398 
L 216.794403 189.994506 
z
" style="fill:#dfb621;"/>
    <path clip-path="url(#p87940ca009)" d="M 249.101427 209.667246 
L 256.530882 202.34441 
L 270.077576 206.554656 
L 262.740181 213.961405 
z
" style="fill:#070448;"/>
    <path clip-path="url(#p87940ca009)" d="M 229.891821 194.06512 
L 243.136481 198.181496 
L 243.75382 133.225405 
L 230.073146 129.349562 
z
" style="fill:#da803b;"/>
    <path clip-path="url(#p87940ca009)" d="M 189.740373 104.681143 
L 203.042629 108.373724 
L 210.970396 102.004612 
L 197.753596 98.384211 
z
" style="fill:#c29b1d;"/>
    <path clip-path="url(#p87940ca009)" d="M 162.346885 191.878042 
L 175.173234 195.969799 
L 173.221593 117.366889 
L 159.900348 113.568987 
z
" style="fill:#dfb321;"/>
    <path clip-path="url(#p87940ca009)" d="M 249.11459 208.621939 
L 262.760711 212.912389 
L 270.101788 205.512054 
L 256.547827 201.305488 
z
" style="fill:#0a0667;"/>
    <path clip-path="url(#p87940ca009)" d="M 175.173234 195.969799 
L 172.979727 107.625694 
L 181.360723 101.142412 
L 183.178635 188.911464 
z
" style="fill:#d4dc1e;"/>
    <path clip-path="url(#p87940ca009)" d="M 235.617509 205.421836 
L 235.658313 198.292571 
L 249.191524 202.51258 
L 249.101427 209.667246 
z
" style="fill:#170240;"/>
    <path clip-path="url(#p87940ca009)" d="M 249.101427 209.667246 
L 256.530882 202.34441 
L 256.792007 186.334438 
L 249.304292 193.557664 
z
" style="fill:#280045;"/>
    <path clip-path="url(#p87940ca009)" d="M 209.103753 197.073984 
L 216.794403 189.994506 
L 216.472832 105.334038 
L 208.447775 111.859898 
z
" style="fill:#666110;"/>
    <path clip-path="url(#p87940ca009)" d="M 222.285805 201.224351 
L 222.22005 137.958193 
L 230.06795 131.203844 
L 229.891821 194.06512 
z
" style="fill:#d87a3f;"/>
    <path clip-path="url(#p87940ca009)" d="M 235.709382 189.369863 
L 249.304292 193.557664 
L 256.792007 186.334438 
L 243.288096 182.228667 
z
" style="fill:#4a0080;"/>
    <path clip-path="url(#p87940ca009)" d="M 168.444141 111.518507 
L 181.653103 115.258575 
L 189.809296 108.807615 
L 176.683764 105.140814 
z
" style="fill:#c28c23;"/>
    <path clip-path="url(#p87940ca009)" d="M 193.264978 211.654059 
L 201.262108 204.292457 
L 214.529606 208.524945 
L 206.61873 215.971129 
z
" style="fill:#7f412c;"/>
    <path clip-path="url(#p87940ca009)" d="M 196.068846 192.969946 
L 194.906109 111.402626 
L 208.473484 115.199707 
L 209.103753 197.073984 
z
" style="fill:#685b0f;"/>
    <path clip-path="url(#p87940ca009)" d="M 262.740181 213.961405 
L 270.077576 206.554656 
L 270.101788 205.512054 
L 262.760711 212.912389 
z
" style="fill:#050338;"/>
    <path clip-path="url(#p87940ca009)" d="M 227.94922 212.80596 
L 227.962413 205.632627 
L 235.658313 198.292571 
L 235.617509 205.421836 
z
" style="fill:#300487;"/>
    <path clip-path="url(#p87940ca009)" d="M 235.617509 205.421836 
L 249.101427 209.667246 
L 249.304292 193.557664 
L 235.709382 189.369863 
z
" style="fill:#560093;"/>
    <path clip-path="url(#p87940ca009)" d="M 196.068846 192.969946 
L 209.103753 197.073984 
L 208.447775 111.859898 
L 194.85869 108.076138 
z
" style="fill:#d9ce22;"/>
    <path clip-path="url(#p87940ca009)" d="M 227.94922 212.80596 
L 235.617509 205.421836 
L 249.101427 209.667246 
L 241.523583 217.136342 
z
" style="fill:#1d0251;"/>
    <path clip-path="url(#p87940ca009)" d="M 175.173234 195.969799 
L 173.380728 123.776129 
L 186.816846 127.643962 
L 188.144156 200.107676 
z
" style="fill:#694914;"/>
    <path clip-path="url(#p87940ca009)" d="M 139.264179 145.208083 
L 152.334884 149.151029 
L 160.799533 142.350203 
L 147.809333 138.484672 
z
" style="fill:#a74650;"/>
    <path clip-path="url(#p87940ca009)" d="M 188.144156 200.107676 
L 186.640338 118.007624 
L 194.906109 111.402626 
L 196.068846 192.969946 
z
" style="fill:#ddc120;"/>
    <path clip-path="url(#p87940ca009)" d="M 249.101427 209.667246 
L 249.112757 208.767545 
L 262.757851 213.058513 
L 262.740181 213.961405 
z
" style="fill:#050338;"/>
    <path clip-path="url(#p87940ca009)" d="M 222.285805 201.224351 
L 222.237927 155.158307 
L 235.882134 159.186651 
L 235.617509 205.421836 
z
" style="fill:#572130;"/>
    <path clip-path="url(#p87940ca009)" d="M 249.101427 209.667246 
L 262.740181 213.961405 
L 262.760711 212.912389 
L 249.11459 208.621939 
z
" style="fill:#0b0777;"/>
    <path clip-path="url(#p87940ca009)" d="M 167.010898 203.166503 
L 175.173234 195.969799 
L 173.47614 127.618862 
L 165.011982 134.373176 
z
" style="fill:#684218;"/>
    <path clip-path="url(#p87940ca009)" d="M 222.285805 201.224351 
L 229.891821 194.06512 
L 230.113235 115.041699 
L 222.203138 121.685607 
z
" style="fill:#69560f;"/>
    <path clip-path="url(#p87940ca009)" d="M 203.043491 108.457484 
L 216.498885 112.193058 
L 224.338378 105.749943 
L 210.970932 102.087802 
z
" style="fill:#c29b1d;"/>
    <path clip-path="url(#p87940ca009)" d="M 188.144156 200.107676 
L 196.068846 192.969946 
L 194.812981 104.869564 
L 186.519839 111.429039 
z
" style="fill:#64680e;"/>
    <path clip-path="url(#p87940ca009)" d="M 209.103753 197.073984 
L 208.530625 122.622431 
L 222.208135 126.493722 
L 222.285805 201.224351 
z
" style="fill:#6a4d13;"/>
    <path clip-path="url(#p87940ca009)" d="M 167.010898 203.166503 
L 164.899561 130.504189 
L 173.380728 123.776129 
L 175.173234 195.969799 
z
" style="fill:#e09b2b;"/>
    <path clip-path="url(#p87940ca009)" d="M 241.523583 217.136342 
L 241.531524 216.231103 
L 249.112757 208.767545 
L 249.101427 209.667246 
z
" style="fill:#0b0777;"/>
    <path clip-path="url(#p87940ca009)" d="M 214.529606 208.524945 
L 214.298495 162.165403 
L 222.237927 155.158307 
L 222.285805 201.224351 
z
" style="fill:#b94565;"/>
    <path clip-path="url(#p87940ca009)" d="M 235.617509 205.421836 
L 243.136481 198.181496 
L 243.736128 135.086911 
L 235.980957 141.920243 
z
" style="fill:#663a1e;"/>
    <path clip-path="url(#p87940ca009)" d="M 154.105465 198.994368 
L 167.010898 203.166503 
L 165.011982 134.373176 
L 151.670816 130.45695 
z
" style="fill:#dd8d33;"/>
    <path clip-path="url(#p87940ca009)" d="M 209.103753 197.073984 
L 222.285805 201.224351 
L 222.203138 121.685607 
L 208.493758 117.833353 
z
" style="fill:#dfb621;"/>
    <path clip-path="url(#p87940ca009)" d="M 227.962413 205.632627 
L 241.586736 209.937411 
L 249.191524 202.51258 
L 235.658313 198.292571 
z
" style="fill:#2a0375;"/>
    <path clip-path="url(#p87940ca009)" d="M 206.61873 215.971129 
L 214.529606 208.524945 
L 227.94922 212.80596 
L 220.127123 220.338193 
z
" style="fill:#4a0558;"/>
    <path clip-path="url(#p87940ca009)" d="M 175.173234 195.969799 
L 188.144156 200.107676 
L 186.519839 111.429039 
L 172.979727 107.625694 
z
" style="fill:#d4dc1e;"/>
    <path clip-path="url(#p87940ca009)" d="M 201.262108 204.292457 
L 200.38513 129.356582 
L 208.530625 122.622431 
L 209.103753 197.073984 
z
" style="fill:#e0a327;"/>
    <path clip-path="url(#p87940ca009)" d="M 241.523583 217.136342 
L 249.101427 209.667246 
L 249.191524 202.51258 
L 241.586736 209.937411 
z
" style="fill:#170240;"/>
    <path clip-path="url(#p87940ca009)" d="M 188.144156 200.107676 
L 186.903403 132.369492 
L 200.466406 136.301412 
L 201.262108 204.292457 
z
" style="fill:#684119;"/>
    <path clip-path="url(#p87940ca009)" d="M 222.285805 201.224351 
L 235.617509 205.421836 
L 235.980957 141.920243 
L 222.22005 137.958193 
z
" style="fill:#d87a3f;"/>
    <path clip-path="url(#p87940ca009)" d="M 214.529606 208.524945 
L 214.402931 183.11477 
L 227.996123 187.303832 
L 227.94922 212.80596 
z
" style="fill:#3a0445;"/>
    <path clip-path="url(#p87940ca009)" d="M 241.523583 217.136342 
L 249.101427 209.667246 
L 262.740181 213.961405 
L 255.255385 221.516949 
z
" style="fill:#070448;"/>
    <path clip-path="url(#p87940ca009)" d="M 227.94922 212.80596 
L 227.955654 209.30798 
L 241.554378 213.625917 
L 241.523583 217.136342 
z
" style="fill:#0e023c;"/>
    <path clip-path="url(#p87940ca009)" d="M 216.511977 115.639683 
L 230.100933 119.432307 
L 237.837119 112.890905 
L 224.338378 109.173137 
z
" style="fill:#c28e22;"/>
    <path clip-path="url(#p87940ca009)" d="M 241.531524 216.231103 
L 255.269755 220.608494 
L 262.757851 213.058513 
L 249.112757 208.767545 
z
" style="fill:#0a0667;"/>
    <path clip-path="url(#p87940ca009)" d="M 201.262108 204.292457 
L 209.103753 197.073984 
L 208.473484 115.199707 
L 200.297661 121.882537 
z
" style="fill:#685b0f;"/>
    <path clip-path="url(#p87940ca009)" d="M 227.94922 212.80596 
L 241.523583 217.136342 
L 241.586736 209.937411 
L 227.962413 205.632627 
z
" style="fill:#300487;"/>
    <path clip-path="url(#p87940ca009)" d="M 230.073146 129.349562 
L 243.75382 133.225405 
L 251.361403 126.540495 
L 237.772672 122.741222 
z
" style="fill:#bd6f33;"/>
    <path clip-path="url(#p87940ca009)" d="M 180.063228 207.386128 
L 178.529977 139.209134 
L 186.903403 132.369492 
L 188.144156 200.107676 
z
" style="fill:#dd8a35;"/>
    <path clip-path="url(#p87940ca009)" d="M 206.61873 215.971129 
L 206.38758 190.401415 
L 214.402931 183.11477 
L 214.529606 208.524945 
z
" style="fill:#7b0992;"/>
    <path clip-path="url(#p87940ca009)" d="M 220.127123 220.338193 
L 220.119544 216.818624 
L 227.955654 209.30798 
L 227.94922 212.80596 
z
" style="fill:#1e057f;"/>
    <path clip-path="url(#p87940ca009)" d="M 180.063228 207.386128 
L 188.144156 200.107676 
L 186.816846 127.643962 
L 178.422977 134.451272 
z
" style="fill:#694914;"/>
    <path clip-path="url(#p87940ca009)" d="M 201.262108 204.292457 
L 200.57208 145.331025 
L 214.234581 149.344627 
L 214.529606 208.524945 
z
" style="fill:#633322;"/>
    <path clip-path="url(#p87940ca009)" d="M 188.144156 200.107676 
L 201.262108 204.292457 
L 200.297661 121.882537 
L 186.640338 118.007624 
z
" style="fill:#ddc120;"/>
    <path clip-path="url(#p87940ca009)" d="M 255.255385 221.516949 
L 262.740181 213.961405 
L 262.757851 213.058513 
L 255.269755 220.608494 
z
" style="fill:#050338;"/>
    <path clip-path="url(#p87940ca009)" d="M 227.94922 212.80596 
L 235.617509 205.421836 
L 235.882134 159.186651 
L 228.034797 166.275814 
z
" style="fill:#572130;"/>
    <path clip-path="url(#p87940ca009)" d="M 220.127123 220.338193 
L 227.94922 212.80596 
L 241.523583 217.136342 
L 233.792858 224.756123 
z
" style="fill:#12034d;"/>
    <path clip-path="url(#p87940ca009)" d="M 214.529606 208.524945 
L 222.285805 201.224351 
L 222.208135 126.493722 
L 214.154633 133.307407 
z
" style="fill:#6a4d13;"/>
    <path clip-path="url(#p87940ca009)" d="M 167.010898 203.166503 
L 180.063228 207.386128 
L 178.422977 134.451272 
L 164.899561 130.504189 
z
" style="fill:#e09b2b;"/>
    <path clip-path="url(#p87940ca009)" d="M 159.900348 113.568987 
L 173.221593 117.366889 
L 181.561097 110.816507 
L 168.324355 107.093901 
z
" style="fill:#c29c1d;"/>
    <path clip-path="url(#p87940ca009)" d="M 193.264978 211.654059 
L 192.326329 152.312797 
L 200.57208 145.331025 
L 201.262108 204.292457 
z
" style="fill:#d26c49;"/>
    <path clip-path="url(#p87940ca009)" d="M 181.373156 101.742713 
L 194.821572 105.472279 
L 202.946497 99.039764 
L 189.585091 95.384151 
z
" style="fill:#b8bd1c;"/>
    <path clip-path="url(#p87940ca009)" d="M 241.523583 217.136342 
L 241.530121 216.390999 
L 255.267217 220.768958 
L 255.255385 221.516949 
z
" style="fill:#050338;"/>
    <path clip-path="url(#p87940ca009)" d="M 241.523583 217.136342 
L 255.255385 221.516949 
L 255.269755 220.608494 
L 241.531524 216.231103 
z
" style="fill:#0b0777;"/>
    <path clip-path="url(#p87940ca009)" d="M 214.529606 208.524945 
L 227.94922 212.80596 
L 228.034797 166.275814 
L 214.298495 162.165403 
z
" style="fill:#b94565;"/>
    <path clip-path="url(#p87940ca009)" d="M 220.119544 216.818624 
L 233.809972 221.224016 
L 241.554378 213.625917 
L 227.955654 209.30798 
z
" style="fill:#1a046e;"/>
    <path clip-path="url(#p87940ca009)" d="M 201.262108 204.292457 
L 214.529606 208.524945 
L 214.154633 133.307407 
L 200.38513 129.356582 
z
" style="fill:#e0a327;"/>
    <path clip-path="url(#p87940ca009)" d="M 193.264978 211.654059 
L 201.262108 204.292457 
L 200.466406 136.301412 
L 192.182531 143.221907 
z
" style="fill:#684119;"/>
    <path clip-path="url(#p87940ca009)" d="M 233.792858 224.756123 
L 233.796492 224.006188 
L 241.530121 216.390999 
L 241.523583 217.136342 
z
" style="fill:#0b0777;"/>
    <path clip-path="url(#p87940ca009)" d="M 220.127123 220.338193 
L 227.94922 212.80596 
L 227.996123 187.303832 
L 220.071865 194.675785 
z
" style="fill:#3a0445;"/>
    <path clip-path="url(#p87940ca009)" d="M 233.792858 224.756123 
L 241.523583 217.136342 
L 241.554378 213.625917 
L 233.809972 221.224016 
z
" style="fill:#0e023c;"/>
    <path clip-path="url(#p87940ca009)" d="M 180.063228 207.386128 
L 193.264978 211.654059 
L 192.182531 143.221907 
L 178.529977 139.209134 
z
" style="fill:#dd8a35;"/>
    <path clip-path="url(#p87940ca009)" d="M 194.85869 108.076138 
L 208.447775 111.859898 
L 216.472832 105.334038 
L 202.97313 101.625644 
z
" style="fill:#bcb31d;"/>
    <path clip-path="url(#p87940ca009)" d="M 151.670816 130.45695 
L 165.011982 134.373176 
L 173.47614 127.618862 
L 160.219382 123.780669 
z
" style="fill:#c07a2d;"/>
    <path clip-path="url(#p87940ca009)" d="M 206.61873 215.971129 
L 220.127123 220.338193 
L 220.071865 194.675785 
L 206.38758 190.401415 
z
" style="fill:#7b0992;"/>
    <path clip-path="url(#p87940ca009)" d="M 233.792858 224.756123 
L 241.523583 217.136342 
L 255.255385 221.516949 
L 247.618703 229.225814 
z
" style="fill:#070448;"/>
    <path clip-path="url(#p87940ca009)" d="M 220.127123 220.338193 
L 233.792858 224.756123 
L 233.809972 221.224016 
L 220.119544 216.818624 
z
" style="fill:#1e057f;"/>
    <path clip-path="url(#p87940ca009)" d="M 222.22005 137.958193 
L 235.980957 141.920243 
L 243.736128 135.086911 
L 230.06795 131.203844 
z
" style="fill:#bc6a36;"/>
    <path clip-path="url(#p87940ca009)" d="M 233.796492 224.006188 
L 247.627702 228.473212 
L 255.267217 220.768958 
L 241.530121 216.390999 
z
" style="fill:#0a0667;"/>
    <path clip-path="url(#p87940ca009)" d="M 206.61873 215.971129 
L 214.529606 208.524945 
L 214.234581 149.344627 
L 206.080289 156.40905 
z
" style="fill:#633322;"/>
    <path clip-path="url(#p87940ca009)" d="M 206.38758 190.401415 
L 220.071865 194.675785 
L 227.996123 187.303832 
L 214.402931 183.11477 
z
" style="fill:#6b087e;"/>
    <path clip-path="url(#p87940ca009)" d="M 214.298495 162.165403 
L 228.034797 166.275814 
L 235.882134 159.186651 
L 222.237927 155.158307 
z
" style="fill:#a03c58;"/>
    <path clip-path="url(#p87940ca009)" d="M 208.493758 117.833353 
L 222.203138 121.685607 
L 230.113235 115.041699 
L 216.495366 111.266398 
z
" style="fill:#c19e1c;"/>
    <path clip-path="url(#p87940ca009)" d="M 193.264978 211.654059 
L 206.61873 215.971129 
L 206.080289 156.40905 
L 192.326329 152.312797 
z
" style="fill:#d26c49;"/>
    <path clip-path="url(#p87940ca009)" d="M 247.618703 229.225814 
L 255.255385 221.516949 
L 255.267217 220.768958 
L 247.627702 228.473212 
z
" style="fill:#050338;"/>
    <path clip-path="url(#p87940ca009)" d="M 172.979727 107.625694 
L 186.519839 111.429039 
L 194.812981 104.869564 
L 181.360723 101.142412 
z
" style="fill:#b8bf1a;"/>
    <path clip-path="url(#p87940ca009)" d="M 233.792858 224.756123 
L 247.618703 229.225814 
L 247.627702 228.473212 
L 233.796492 224.006188 
z
" style="fill:#0b0777;"/>
    <path clip-path="url(#p87940ca009)" d="M 164.899561 130.504189 
L 178.422977 134.451272 
L 186.816846 127.643962 
L 173.380728 123.776129 
z
" style="fill:#c28626;"/>
    <path clip-path="url(#p87940ca009)" d="M 186.640338 118.007624 
L 200.297661 121.882537 
L 208.473484 115.199707 
L 194.906109 111.402626 
z
" style="fill:#c0a71c;"/>
    <path clip-path="url(#p87940ca009)" d="M 200.38513 129.356582 
L 214.154633 133.307407 
L 222.208135 126.493722 
L 208.530625 122.622431 
z
" style="fill:#c28d22;"/>
    <path clip-path="url(#p87940ca009)" d="M 178.529977 139.209134 
L 192.182531 143.221907 
L 200.466406 136.301412 
L 186.903403 132.369492 
z
" style="fill:#c0782e;"/>
    <path clip-path="url(#p87940ca009)" d="M 192.326329 152.312797 
L 206.080289 156.40905 
L 214.234581 149.344627 
L 200.57208 145.331025 
z
" style="fill:#b65d3f;"/>
   </g>
   <g id="text_17">
    <!-- W20__H40__A040_bars_extracted.txt -->
    <g transform="translate(110.101875 28.56)scale(0.12 -0.12)">
     <defs>
      <path d="M 3.328125 72.90625 
L 13.28125 72.90625 
L 28.609375 11.28125 
L 43.890625 72.90625 
L 54.984375 72.90625 
L 70.3125 11.28125 
L 85.59375 72.90625 
L 95.609375 72.90625 
L 77.296875 0 
L 64.890625 0 
L 49.515625 63.28125 
L 33.984375 0 
L 21.578125 0 
z
" id="DejaVuSans-87"/>
      <path d="M 50.984375 -16.609375 
L 50.984375 -23.578125 
L -0.984375 -23.578125 
L -0.984375 -16.609375 
z
" id="DejaVuSans-95"/>
      <path d="M 9.8125 72.90625 
L 19.671875 72.90625 
L 19.671875 43.015625 
L 55.515625 43.015625 
L 55.515625 72.90625 
L 65.375 72.90625 
L 65.375 0 
L 55.515625 0 
L 55.515625 34.71875 
L 19.671875 34.71875 
L 19.671875 0 
L 9.8125 0 
z
" id="DejaVuSans-72"/>
      <path d="M 34.1875 63.1875 
L 20.796875 26.90625 
L 47.609375 26.90625 
z
M 28.609375 72.90625 
L 39.796875 72.90625 
L 67.578125 0 
L 57.328125 0 
L 50.6875 18.703125 
L 17.828125 18.703125 
L 11.1875 0 
L 0.78125 0 
z
" id="DejaVuSans-65"/>
      <path d="M 48.6875 27.296875 
Q 48.6875 37.203125 44.609375 42.84375 
Q 40.53125 48.484375 33.40625 48.484375 
Q 26.265625 48.484375 22.1875 42.84375 
Q 18.109375 37.203125 18.109375 27.296875 
Q 18.109375 17.390625 22.1875 11.75 
Q 26.265625 6.109375 33.40625 6.109375 
Q 40.53125 6.109375 44.609375 11.75 
Q 48.6875 17.390625 48.6875 27.296875 
z
M 18.109375 46.390625 
Q 20.953125 51.265625 25.265625 53.625 
Q 29.59375 56 35.59375 56 
Q 45.5625 56 51.78125 48.09375 
Q 58.015625 40.1875 58.015625 27.296875 
Q 58.015625 14.40625 51.78125 6.484375 
Q 45.5625 -1.421875 35.59375 -1.421875 
Q 29.59375 -1.421875 25.265625 0.953125 
Q 20.953125 3.328125 18.109375 8.203125 
L 18.109375 0 
L 9.078125 0 
L 9.078125 75.984375 
L 18.109375 75.984375 
z
" id="DejaVuSans-98"/>
      <path d="M 34.28125 27.484375 
Q 23.390625 27.484375 19.1875 25 
Q 14.984375 22.515625 14.984375 16.5 
Q 14.984375 11.71875 18.140625 8.90625 
Q 21.296875 6.109375 26.703125 6.109375 
Q 34.1875 6.109375 38.703125 11.40625 
Q 43.21875 16.703125 43.21875 25.484375 
L 43.21875 27.484375 
z
M 52.203125 31.203125 
L 52.203125 0 
L 43.21875 0 
L 43.21875 8.296875 
Q 40.140625 3.328125 35.546875 0.953125 
Q 30.953125 -1.421875 24.3125 -1.421875 
Q 15.921875 -1.421875 10.953125 3.296875 
Q 6 8.015625 6 15.921875 
Q 6 25.140625 12.171875 29.828125 
Q 18.359375 34.515625 30.609375 34.515625 
L 43.21875 34.515625 
L 43.21875 35.40625 
Q 43.21875 41.609375 39.140625 45 
Q 35.0625 48.390625 27.6875 48.390625 
Q 23 48.390625 18.546875 47.265625 
Q 14.109375 46.140625 10.015625 43.890625 
L 10.015625 52.203125 
Q 14.9375 54.109375 19.578125 55.046875 
Q 24.21875 56 28.609375 56 
Q 40.484375 56 46.34375 49.84375 
Q 52.203125 43.703125 52.203125 31.203125 
z
" id="DejaVuSans-97"/>
      <path d="M 41.109375 46.296875 
Q 39.59375 47.171875 37.8125 47.578125 
Q 36.03125 48 33.890625 48 
Q 26.265625 48 22.1875 43.046875 
Q 18.109375 38.09375 18.109375 28.8125 
L 18.109375 0 
L 9.078125 0 
L 9.078125 54.6875 
L 18.109375 54.6875 
L 18.109375 46.1875 
Q 20.953125 51.171875 25.484375 53.578125 
Q 30.03125 56 36.53125 56 
Q 37.453125 56 38.578125 55.875 
Q 39.703125 55.765625 41.0625 55.515625 
z
" id="DejaVuSans-114"/>
      <path d="M 44.28125 53.078125 
L 44.28125 44.578125 
Q 40.484375 46.53125 36.375 47.5 
Q 32.28125 48.484375 27.875 48.484375 
Q 21.1875 48.484375 17.84375 46.4375 
Q 14.5 44.390625 14.5 40.28125 
Q 14.5 37.15625 16.890625 35.375 
Q 19.28125 33.59375 26.515625 31.984375 
L 29.59375 31.296875 
Q 39.15625 29.25 43.1875 25.515625 
Q 47.21875 21.78125 47.21875 15.09375 
Q 47.21875 7.46875 41.1875 3.015625 
Q 35.15625 -1.421875 24.609375 -1.421875 
Q 20.21875 -1.421875 15.453125 -0.5625 
Q 10.6875 0.296875 5.421875 2 
L 5.421875 11.28125 
Q 10.40625 8.6875 15.234375 7.390625 
Q 20.0625 6.109375 24.8125 6.109375 
Q 31.15625 6.109375 34.5625 8.28125 
Q 37.984375 10.453125 37.984375 14.40625 
Q 37.984375 18.0625 35.515625 20.015625 
Q 33.0625 21.96875 24.703125 23.78125 
L 21.578125 24.515625 
Q 13.234375 26.265625 9.515625 29.90625 
Q 5.8125 33.546875 5.8125 39.890625 
Q 5.8125 47.609375 11.28125 51.796875 
Q 16.75 56 26.8125 56 
Q 31.78125 56 36.171875 55.265625 
Q 40.578125 54.546875 44.28125 53.078125 
z
" id="DejaVuSans-115"/>
      <path d="M 56.203125 29.59375 
L 56.203125 25.203125 
L 14.890625 25.203125 
Q 15.484375 15.921875 20.484375 11.0625 
Q 25.484375 6.203125 34.421875 6.203125 
Q 39.59375 6.203125 44.453125 7.46875 
Q 49.3125 8.734375 54.109375 11.28125 
L 54.109375 2.78125 
Q 49.265625 0.734375 44.1875 -0.34375 
Q 39.109375 -1.421875 33.890625 -1.421875 
Q 20.796875 -1.421875 13.15625 6.1875 
Q 5.515625 13.8125 5.515625 26.8125 
Q 5.515625 40.234375 12.765625 48.109375 
Q 20.015625 56 32.328125 56 
Q 43.359375 56 49.78125 48.890625 
Q 56.203125 41.796875 56.203125 29.59375 
z
M 47.21875 32.234375 
Q 47.125 39.59375 43.09375 43.984375 
Q 39.0625 48.390625 32.421875 48.390625 
Q 24.90625 48.390625 20.390625 44.140625 
Q 15.875 39.890625 15.1875 32.171875 
z
" id="DejaVuSans-101"/>
      <path d="M 54.890625 54.6875 
L 35.109375 28.078125 
L 55.90625 0 
L 45.3125 0 
L 29.390625 21.484375 
L 13.484375 0 
L 2.875 0 
L 24.125 28.609375 
L 4.6875 54.6875 
L 15.28125 54.6875 
L 29.78125 35.203125 
L 44.28125 54.6875 
z
" id="DejaVuSans-120"/>
      <path d="M 18.3125 70.21875 
L 18.3125 54.6875 
L 36.8125 54.6875 
L 36.8125 47.703125 
L 18.3125 47.703125 
L 18.3125 18.015625 
Q 18.3125 11.328125 20.140625 9.421875 
Q 21.96875 7.515625 27.59375 7.515625 
L 36.8125 7.515625 
L 36.8125 0 
L 27.59375 0 
Q 17.1875 0 13.234375 3.875 
Q 9.28125 7.765625 9.28125 18.015625 
L 9.28125 47.703125 
L 2.6875 47.703125 
L 2.6875 54.6875 
L 9.28125 54.6875 
L 9.28125 70.21875 
z
" id="DejaVuSans-116"/>
      <path d="M 48.78125 52.59375 
L 48.78125 44.1875 
Q 44.96875 46.296875 41.140625 47.34375 
Q 37.3125 48.390625 33.40625 48.390625 
Q 24.65625 48.390625 19.8125 42.84375 
Q 14.984375 37.3125 14.984375 27.296875 
Q 14.984375 17.28125 19.8125 11.734375 
Q 24.65625 6.203125 33.40625 6.203125 
Q 37.3125 6.203125 41.140625 7.25 
Q 44.96875 8.296875 48.78125 10.40625 
L 48.78125 2.09375 
Q 45.015625 0.34375 40.984375 -0.53125 
Q 36.96875 -1.421875 32.421875 -1.421875 
Q 20.0625 -1.421875 12.78125 6.34375 
Q 5.515625 14.109375 5.515625 27.296875 
Q 5.515625 40.671875 12.859375 48.328125 
Q 20.21875 56 33.015625 56 
Q 37.15625 56 41.109375 55.140625 
Q 45.0625 54.296875 48.78125 52.59375 
z
" id="DejaVuSans-99"/>
      <path d="M 45.40625 46.390625 
L 45.40625 75.984375 
L 54.390625 75.984375 
L 54.390625 0 
L 45.40625 0 
L 45.40625 8.203125 
Q 42.578125 3.328125 38.25 0.953125 
Q 33.9375 -1.421875 27.875 -1.421875 
Q 17.96875 -1.421875 11.734375 6.484375 
Q 5.515625 14.40625 5.515625 27.296875 
Q 5.515625 40.1875 11.734375 48.09375 
Q 17.96875 56 27.875 56 
Q 33.9375 56 38.25 53.625 
Q 42.578125 51.265625 45.40625 46.390625 
z
M 14.796875 27.296875 
Q 14.796875 17.390625 18.875 11.75 
Q 22.953125 6.109375 30.078125 6.109375 
Q 37.203125 6.109375 41.296875 11.75 
Q 45.40625 17.390625 45.40625 27.296875 
Q 45.40625 37.203125 41.296875 42.84375 
Q 37.203125 48.484375 30.078125 48.484375 
Q 22.953125 48.484375 18.875 42.84375 
Q 14.796875 37.203125 14.796875 27.296875 
z
" id="DejaVuSans-100"/>
      <path d="M 10.6875 12.40625 
L 21 12.40625 
L 21 0 
L 10.6875 0 
z
" id="DejaVuSans-46"/>
     </defs>
     <use xlink:href="#DejaVuSans-87"/>
     <use x="98.876953" xlink:href="#DejaVuSans-50"/>
     <use x="162.5" xlink:href="#DejaVuSans-48"/>
     <use x="226.123047" xlink:href="#DejaVuSans-95"/>
     <use x="276.123047" xlink:href="#DejaVuSans-95"/>
     <use x="326.123047" xlink:href="#DejaVuSans-72"/>
     <use x="401.318359" xlink:href="#DejaVuSans-52"/>
     <use x="464.941406" xlink:href="#DejaVuSans-48"/>
     <use x="528.564453" xlink:href="#DejaVuSans-95"/>
     <use x="578.564453" xlink:href="#DejaVuSans-95"/>
     <use x="628.564453" xlink:href="#DejaVuSans-65"/>
     <use x="696.972656" xlink:href="#DejaVuSans-48"/>
     <use x="760.595703" xlink:href="#DejaVuSans-52"/>
     <use x="824.21875" xlink:href="#DejaVuSans-48"/>
     <use x="887.841797" xlink:href="#DejaVuSans-95"/>
     <use x="937.841797" xlink:href="#DejaVuSans-98"/>
     <use x="1001.318359" xlink:href="#DejaVuSans-97"/>
     <use x="1062.597656" xlink:href="#DejaVuSans-114"/>
     <use x="1103.710938" xlink:href="#DejaVuSans-115"/>
     <use x="1155.810547" xlink:href="#DejaVuSans-95"/>
     <use x="1205.810547" xlink:href="#DejaVuSans-101"/>
     <use x="1265.583984" xlink:href="#DejaVuSans-120"/>
     <use x="1324.763672" xlink:href="#DejaVuSans-116"/>
     <use x="1363.972656" xlink:href="#DejaVuSans-114"/>
     <use x="1405.085938" xlink:href="#DejaVuSans-97"/>
     <use x="1466.365234" xlink:href="#DejaVuSans-99"/>
     <use x="1521.345703" xlink:href="#DejaVuSans-116"/>
     <use x="1560.554688" xlink:href="#DejaVuSans-101"/>
     <use x="1622.078125" xlink:href="#DejaVuSans-100"/>
     <use x="1685.554688" xlink:href="#DejaVuSans-46"/>
     <use x="1717.341797" xlink:href="#DejaVuSans-116"/>
     <use x="1756.550781" xlink:href="#DejaVuSans-120"/>
     <use x="1815.730469" xlink:href="#DejaVuSans-116"/>
    </g>
   </g>
  </g>
 </g>
 <defs>
  <clipPath id="p87940ca009">
   <rect height="217.44" width="217.44" x="112.68" y="34.56"/>
  </clipPath>
 </defs>
</svg>
