<?xml version="1.0" encoding="utf-8" standalone="no"?>
<!DOCTYPE svg PUBLIC "-//W3C//DTD SVG 1.1//EN"
  "http://www.w3.org/Graphics/SVG/1.1/DTD/svg11.dtd">
<!-- Created with matplotlib (https://matplotlib.org/) -->
<svg height="288pt" version="1.1" viewBox="0 0 432 288" width="432pt" xmlns="http://www.w3.org/2000/svg" xmlns:xlink="http://www.w3.org/1999/xlink">
 <metadata>
  <rdf:RDF xmlns:cc="http://creativecommons.org/ns#" xmlns:dc="http://purl.org/dc/elements/1.1/" xmlns:rdf="http://www.w3.org/1999/02/22-rdf-syntax-ns#">
   <cc:Work>
    <dc:type rdf:resource="http://purl.org/dc/dcmitype/StillImage"/>
    <dc:date>2021-06-13T21:57:42.214732</dc:date>
    <dc:format>image/svg+xml</dc:format>
    <dc:creator>
     <cc:Agent>
      <dc:title>Matplotlib v3.3.4, https://matplotlib.org/</dc:title>
     </cc:Agent>
    </dc:creator>
   </cc:Work>
  </rdf:RDF>
 </metadata>
 <defs>
  <style type="text/css">*{stroke-linecap:butt;stroke-linejoin:round;}</style>
 </defs>
 <g id="figure_1">
  <g id="patch_1">
   <path d="M 0 288 
L 432 288 
L 432 0 
L 0 0 
z
" style="fill:#ffffff;"/>
  </g>
  <g id="patch_2">
   <path d="M 112.68 252 
L 330.12 252 
L 330.12 34.56 
L 112.68 34.56 
z
" style="fill:#ffffff;"/>
  </g>
  <g id="pane3d_1">
   <g id="patch_3">
    <path d="M 129.09822 198.386264 
L 200.904009 138.197228 
L 199.90584 51.393878 
L 124.663773 106.302111 
" style="fill:#f2f2f2;opacity:0.5;stroke:#f2f2f2;stroke-linejoin:miter;"/>
   </g>
  </g>
  <g id="pane3d_2">
   <g id="patch_4">
    <path d="M 200.904009 138.197228 
L 316.12668 171.68791 
L 320.238571 81.894718 
L 199.90584 51.393878 
" style="fill:#e6e6e6;opacity:0.5;stroke:#e6e6e6;stroke-linejoin:miter;"/>
   </g>
  </g>
  <g id="pane3d_3">
   <g id="patch_5">
    <path d="M 129.09822 198.386264 
L 251.239879 238.27773 
L 316.12668 171.68791 
L 200.904009 138.197228 
" style="fill:#ececec;opacity:0.5;stroke:#ececec;stroke-linejoin:miter;"/>
   </g>
  </g>
  <g id="axis3d_1">
   <g id="line2d_1">
    <path d="M 129.09822 198.386264 
L 251.239879 238.27773 
" style="fill:none;stroke:#000000;stroke-linecap:square;stroke-width:0.8;"/>
   </g>
   <g id="Line3DCollection_1">
    <path d="M 136.495759 200.802301 
L 207.911499 140.234029 
L 207.209612 53.245171 
" style="fill:none;stroke:#b0b0b0;stroke-width:0.8;"/>
    <path d="M 162.23134 209.207541 
L 232.260894 147.311436 
L 232.60309 59.681678 
" style="fill:none;stroke:#b0b0b0;stroke-width:0.8;"/>
    <path d="M 188.559037 217.806167 
L 257.123632 154.538053 
L 258.555303 66.259807 
" style="fill:none;stroke:#b0b0b0;stroke-width:0.8;"/>
    <path d="M 215.499525 226.604931 
L 282.516121 161.918647 
L 285.084894 72.984285 
" style="fill:none;stroke:#b0b0b0;stroke-width:0.8;"/>
    <path d="M 243.074449 235.610901 
L 308.455474 169.458193 
L 312.21135 79.860051 
" style="fill:none;stroke:#b0b0b0;stroke-width:0.8;"/>
   </g>
   <g id="xtick_1">
    <g id="line2d_2">
     <path d="M 137.117644 200.274876 
L 135.249322 201.859414 
" style="fill:none;stroke:#000000;stroke-linecap:square;stroke-width:0.8;"/>
    </g>
    <g id="text_1">
     <!-- 0 -->
     <g transform="translate(125.77919 224.124533)scale(0.1 -0.1)">
      <defs>
       <path d="M 31.78125 66.40625 
Q 24.171875 66.40625 20.328125 58.90625 
Q 16.5 51.421875 16.5 36.375 
Q 16.5 21.390625 20.328125 13.890625 
Q 24.171875 6.390625 31.78125 6.390625 
Q 39.453125 6.390625 43.28125 13.890625 
Q 47.125 21.390625 47.125 36.375 
Q 47.125 51.421875 43.28125 58.90625 
Q 39.453125 66.40625 31.78125 66.40625 
z
M 31.78125 74.21875 
Q 44.046875 74.21875 50.515625 64.515625 
Q 56.984375 54.828125 56.984375 36.375 
Q 56.984375 17.96875 50.515625 8.265625 
Q 44.046875 -1.421875 31.78125 -1.421875 
Q 19.53125 -1.421875 13.0625 8.265625 
Q 6.59375 17.96875 6.59375 36.375 
Q 6.59375 54.828125 13.0625 64.515625 
Q 19.53125 74.21875 31.78125 74.21875 
z
" id="DejaVuSans-48"/>
      </defs>
      <use xlink:href="#DejaVuSans-48"/>
     </g>
    </g>
   </g>
   <g id="xtick_2">
    <g id="line2d_3">
     <path d="M 162.841716 208.668056 
L 161.007937 210.288854 
" style="fill:none;stroke:#000000;stroke-linecap:square;stroke-width:0.8;"/>
    </g>
    <g id="text_2">
     <!-- 2 -->
     <g transform="translate(151.547192 232.748132)scale(0.1 -0.1)">
      <defs>
       <path d="M 19.1875 8.296875 
L 53.609375 8.296875 
L 53.609375 0 
L 7.328125 0 
L 7.328125 8.296875 
Q 12.9375 14.109375 22.625 23.890625 
Q 32.328125 33.6875 34.8125 36.53125 
Q 39.546875 41.84375 41.421875 45.53125 
Q 43.3125 49.21875 43.3125 52.78125 
Q 43.3125 58.59375 39.234375 62.25 
Q 35.15625 65.921875 28.609375 65.921875 
Q 23.96875 65.921875 18.8125 64.3125 
Q 13.671875 62.703125 7.8125 59.421875 
L 7.8125 69.390625 
Q 13.765625 71.78125 18.9375 73 
Q 24.125 74.21875 28.421875 74.21875 
Q 39.75 74.21875 46.484375 68.546875 
Q 53.21875 62.890625 53.21875 53.421875 
Q 53.21875 48.921875 51.53125 44.890625 
Q 49.859375 40.875 45.40625 35.40625 
Q 44.1875 33.984375 37.640625 27.21875 
Q 31.109375 20.453125 19.1875 8.296875 
z
" id="DejaVuSans-50"/>
      </defs>
      <use xlink:href="#DejaVuSans-50"/>
     </g>
    </g>
   </g>
   <g id="xtick_3">
    <g id="line2d_4">
     <path d="M 189.15721 217.254202 
L 187.360066 218.91252 
" style="fill:none;stroke:#000000;stroke-linecap:square;stroke-width:0.8;"/>
    </g>
    <g id="text_3">
     <!-- 4 -->
     <g transform="translate(177.91082 241.571064)scale(0.1 -0.1)">
      <defs>
       <path d="M 37.796875 64.3125 
L 12.890625 25.390625 
L 37.796875 25.390625 
z
M 35.203125 72.90625 
L 47.609375 72.90625 
L 47.609375 25.390625 
L 58.015625 25.390625 
L 58.015625 17.1875 
L 47.609375 17.1875 
L 47.609375 0 
L 37.796875 0 
L 37.796875 17.1875 
L 4.890625 17.1875 
L 4.890625 26.703125 
z
" id="DejaVuSans-52"/>
      </defs>
      <use xlink:href="#DejaVuSans-52"/>
     </g>
    </g>
   </g>
   <g id="xtick_4">
    <g id="line2d_5">
     <path d="M 216.084757 226.040048 
L 214.326462 227.737204 
" style="fill:none;stroke:#000000;stroke-linecap:square;stroke-width:0.8;"/>
    </g>
    <g id="text_4">
     <!-- 6 -->
     <g transform="translate(204.890965 250.600322)scale(0.1 -0.1)">
      <defs>
       <path d="M 33.015625 40.375 
Q 26.375 40.375 22.484375 35.828125 
Q 18.609375 31.296875 18.609375 23.390625 
Q 18.609375 15.53125 22.484375 10.953125 
Q 26.375 6.390625 33.015625 6.390625 
Q 39.65625 6.390625 43.53125 10.953125 
Q 47.40625 15.53125 47.40625 23.390625 
Q 47.40625 31.296875 43.53125 35.828125 
Q 39.65625 40.375 33.015625 40.375 
z
M 52.59375 71.296875 
L 52.59375 62.3125 
Q 48.875 64.0625 45.09375 64.984375 
Q 41.3125 65.921875 37.59375 65.921875 
Q 27.828125 65.921875 22.671875 59.328125 
Q 17.53125 52.734375 16.796875 39.40625 
Q 19.671875 43.65625 24.015625 45.921875 
Q 28.375 48.1875 33.59375 48.1875 
Q 44.578125 48.1875 50.953125 41.515625 
Q 57.328125 34.859375 57.328125 23.390625 
Q 57.328125 12.15625 50.6875 5.359375 
Q 44.046875 -1.421875 33.015625 -1.421875 
Q 20.359375 -1.421875 13.671875 8.265625 
Q 6.984375 17.96875 6.984375 36.375 
Q 6.984375 53.65625 15.1875 63.9375 
Q 23.390625 74.21875 37.203125 74.21875 
Q 40.921875 74.21875 44.703125 73.484375 
Q 48.484375 72.75 52.59375 71.296875 
z
" id="DejaVuSans-54"/>
      </defs>
      <use xlink:href="#DejaVuSans-54"/>
     </g>
    </g>
   </g>
   <g id="xtick_5">
    <g id="line2d_6">
     <path d="M 243.645962 235.032643 
L 241.928856 236.770015 
" style="fill:none;stroke:#000000;stroke-linecap:square;stroke-width:0.8;"/>
    </g>
    <g id="text_5">
     <!-- 8 -->
     <g transform="translate(232.509511 259.84323)scale(0.1 -0.1)">
      <defs>
       <path d="M 31.78125 34.625 
Q 24.75 34.625 20.71875 30.859375 
Q 16.703125 27.09375 16.703125 20.515625 
Q 16.703125 13.921875 20.71875 10.15625 
Q 24.75 6.390625 31.78125 6.390625 
Q 38.8125 6.390625 42.859375 10.171875 
Q 46.921875 13.96875 46.921875 20.515625 
Q 46.921875 27.09375 42.890625 30.859375 
Q 38.875 34.625 31.78125 34.625 
z
M 21.921875 38.8125 
Q 15.578125 40.375 12.03125 44.71875 
Q 8.5 49.078125 8.5 55.328125 
Q 8.5 64.0625 14.71875 69.140625 
Q 20.953125 74.21875 31.78125 74.21875 
Q 42.671875 74.21875 48.875 69.140625 
Q 55.078125 64.0625 55.078125 55.328125 
Q 55.078125 49.078125 51.53125 44.71875 
Q 48 40.375 41.703125 38.8125 
Q 48.828125 37.15625 52.796875 32.3125 
Q 56.78125 27.484375 56.78125 20.515625 
Q 56.78125 9.90625 50.3125 4.234375 
Q 43.84375 -1.421875 31.78125 -1.421875 
Q 19.734375 -1.421875 13.25 4.234375 
Q 6.78125 9.90625 6.78125 20.515625 
Q 6.78125 27.484375 10.78125 32.3125 
Q 14.796875 37.15625 21.921875 38.8125 
z
M 18.3125 54.390625 
Q 18.3125 48.734375 21.84375 45.5625 
Q 25.390625 42.390625 31.78125 42.390625 
Q 38.140625 42.390625 41.71875 45.5625 
Q 45.3125 48.734375 45.3125 54.390625 
Q 45.3125 60.0625 41.71875 63.234375 
Q 38.140625 66.40625 31.78125 66.40625 
Q 25.390625 66.40625 21.84375 63.234375 
Q 18.3125 60.0625 18.3125 54.390625 
z
" id="DejaVuSans-56"/>
      </defs>
      <use xlink:href="#DejaVuSans-56"/>
     </g>
    </g>
   </g>
  </g>
  <g id="axis3d_2">
   <g id="line2d_7">
    <path d="M 316.12668 171.68791 
L 251.239879 238.27773 
" style="fill:none;stroke:#000000;stroke-linecap:square;stroke-width:0.8;"/>
   </g>
   <g id="Line3DCollection_2">
    <path d="M 129.866948 102.505071 
L 134.046245 194.238731 
L 255.729543 233.67023 
" style="fill:none;stroke:#b0b0b0;stroke-width:0.8;"/>
    <path d="M 147.250212 89.819556 
L 150.59591 180.366474 
L 270.72626 218.279909 
" style="fill:none;stroke:#b0b0b0;stroke-width:0.8;"/>
    <path d="M 163.958537 77.626582 
L 166.530371 167.009893 
L 285.136664 203.491289 
" style="fill:none;stroke:#b0b0b0;stroke-width:0.8;"/>
    <path d="M 180.030483 65.898008 
L 181.883306 154.140758 
L 298.994481 189.269761 
" style="fill:none;stroke:#b0b0b0;stroke-width:0.8;"/>
    <path d="M 195.501727 54.607799 
L 196.68598 141.732864 
L 312.330896 175.583317 
" style="fill:none;stroke:#b0b0b0;stroke-width:0.8;"/>
   </g>
   <g id="xtick_6">
    <g id="line2d_8">
     <path d="M 254.704115 233.337939 
L 257.783053 234.33567 
" style="fill:none;stroke:#000000;stroke-linecap:square;stroke-width:0.8;"/>
    </g>
    <g id="text_6">
     <!-- 0 -->
     <g transform="translate(265.430654 254.693759)scale(0.1 -0.1)">
      <use xlink:href="#DejaVuSans-48"/>
     </g>
    </g>
   </g>
   <g id="xtick_7">
    <g id="line2d_9">
     <path d="M 269.71494 217.960734 
L 272.751463 218.919068 
" style="fill:none;stroke:#000000;stroke-linecap:square;stroke-width:0.8;"/>
    </g>
    <g id="text_7">
     <!-- 2 -->
     <g transform="translate(280.181112 239.024526)scale(0.1 -0.1)">
      <use xlink:href="#DejaVuSans-50"/>
     </g>
    </g>
   </g>
   <g id="xtick_8">
    <g id="line2d_10">
     <path d="M 284.139145 203.184468 
L 287.134182 204.105694 
" style="fill:none;stroke:#000000;stroke-linecap:square;stroke-width:0.8;"/>
    </g>
    <g id="text_8">
     <!-- 4 -->
     <g transform="translate(294.35448 223.968328)scale(0.1 -0.1)">
      <use xlink:href="#DejaVuSans-52"/>
     </g>
    </g>
   </g>
   <g id="xtick_9">
    <g id="line2d_11">
     <path d="M 298.010457 188.97459 
L 300.964927 189.860821 
" style="fill:none;stroke:#000000;stroke-linecap:square;stroke-width:0.8;"/>
    </g>
    <g id="text_9">
     <!-- 6 -->
     <g transform="translate(307.983974 209.489882)scale(0.1 -0.1)">
      <use xlink:href="#DejaVuSans-54"/>
     </g>
    </g>
   </g>
   <g id="xtick_10">
    <g id="line2d_12">
     <path d="M 311.360068 175.299146 
L 314.274875 176.15234 
" style="fill:none;stroke:#000000;stroke-linecap:square;stroke-width:0.8;"/>
    </g>
    <g id="text_10">
     <!-- 8 -->
     <g transform="translate(321.10031 195.556556)scale(0.1 -0.1)">
      <use xlink:href="#DejaVuSans-56"/>
     </g>
    </g>
   </g>
  </g>
  <g id="axis3d_3">
   <g id="line2d_13">
    <path d="M 316.12668 171.68791 
L 320.238571 81.894718 
" style="fill:none;stroke:#000000;stroke-linecap:square;stroke-width:0.8;"/>
   </g>
   <g id="Line3DCollection_3">
    <path d="M 316.205459 169.967571 
L 200.884845 136.530725 
L 129.013401 196.624949 
" style="fill:none;stroke:#b0b0b0;stroke-width:0.8;"/>
    <path d="M 317.039542 151.753344 
L 200.682046 118.894755 
L 128.11504 177.969898 
" style="fill:none;stroke:#b0b0b0;stroke-width:0.8;"/>
    <path d="M 317.888908 133.205345 
L 200.475708 100.951133 
L 127.199585 158.959884 
" style="fill:none;stroke:#b0b0b0;stroke-width:0.8;"/>
    <path d="M 318.753984 114.314313 
L 200.26574 82.691738 
L 126.266544 139.584679 
" style="fill:none;stroke:#b0b0b0;stroke-width:0.8;"/>
    <path d="M 319.635207 95.070645 
L 200.052044 64.10816 
L 125.315404 119.833657 
" style="fill:none;stroke:#b0b0b0;stroke-width:0.8;"/>
   </g>
   <g id="xtick_11">
    <g id="line2d_14">
     <path d="M 315.237563 169.686933 
L 318.143556 170.529516 
" style="fill:none;stroke:#000000;stroke-linecap:square;stroke-width:0.8;"/>
    </g>
    <g id="text_11">
     <!-- 0 -->
     <g transform="translate(331.275915 174.966846)scale(0.1 -0.1)">
      <use xlink:href="#DejaVuSans-48"/>
     </g>
    </g>
   </g>
   <g id="xtick_12">
    <g id="line2d_15">
     <path d="M 316.062528 151.477442 
L 318.995917 152.305812 
" style="fill:none;stroke:#000000;stroke-linecap:square;stroke-width:0.8;"/>
    </g>
    <g id="text_12">
     <!-- 5000 -->
     <g transform="translate(322.728256 156.79656)scale(0.1 -0.1)">
      <defs>
       <path d="M 10.796875 72.90625 
L 49.515625 72.90625 
L 49.515625 64.59375 
L 19.828125 64.59375 
L 19.828125 46.734375 
Q 21.96875 47.46875 24.109375 47.828125 
Q 26.265625 48.1875 28.421875 48.1875 
Q 40.625 48.1875 47.75 41.5 
Q 54.890625 34.8125 54.890625 23.390625 
Q 54.890625 11.625 47.5625 5.09375 
Q 40.234375 -1.421875 26.90625 -1.421875 
Q 22.3125 -1.421875 17.546875 -0.640625 
Q 12.796875 0.140625 7.71875 1.703125 
L 7.71875 11.625 
Q 12.109375 9.234375 16.796875 8.0625 
Q 21.484375 6.890625 26.703125 6.890625 
Q 35.15625 6.890625 40.078125 11.328125 
Q 45.015625 15.765625 45.015625 23.390625 
Q 45.015625 31 40.078125 35.4375 
Q 35.15625 39.890625 26.703125 39.890625 
Q 22.75 39.890625 18.8125 39.015625 
Q 14.890625 38.140625 10.796875 36.28125 
z
" id="DejaVuSans-53"/>
      </defs>
      <use xlink:href="#DejaVuSans-53"/>
      <use x="63.623047" xlink:href="#DejaVuSans-48"/>
      <use x="127.246094" xlink:href="#DejaVuSans-48"/>
      <use x="190.869141" xlink:href="#DejaVuSans-48"/>
     </g>
    </g>
   </g>
   <g id="xtick_13">
    <g id="line2d_16">
     <path d="M 316.902603 132.9344 
L 319.86391 133.747891 
" style="fill:none;stroke:#000000;stroke-linecap:square;stroke-width:0.8;"/>
    </g>
    <g id="text_13">
     <!-- 10000 -->
     <g transform="translate(320.561283 138.29455)scale(0.1 -0.1)">
      <defs>
       <path d="M 12.40625 8.296875 
L 28.515625 8.296875 
L 28.515625 63.921875 
L 10.984375 60.40625 
L 10.984375 69.390625 
L 28.421875 72.90625 
L 38.28125 72.90625 
L 38.28125 8.296875 
L 54.390625 8.296875 
L 54.390625 0 
L 12.40625 0 
z
" id="DejaVuSans-49"/>
      </defs>
      <use xlink:href="#DejaVuSans-49"/>
      <use x="63.623047" xlink:href="#DejaVuSans-48"/>
      <use x="127.246094" xlink:href="#DejaVuSans-48"/>
      <use x="190.869141" xlink:href="#DejaVuSans-48"/>
      <use x="254.492188" xlink:href="#DejaVuSans-48"/>
     </g>
    </g>
   </g>
   <g id="xtick_14">
    <g id="line2d_17">
     <path d="M 317.758209 114.048557 
L 320.747968 114.846475 
" style="fill:none;stroke:#000000;stroke-linecap:square;stroke-width:0.8;"/>
    </g>
    <g id="text_14">
     <!-- 15000 -->
     <g transform="translate(321.594246 119.451649)scale(0.1 -0.1)">
      <use xlink:href="#DejaVuSans-49"/>
      <use x="63.623047" xlink:href="#DejaVuSans-53"/>
      <use x="127.246094" xlink:href="#DejaVuSans-48"/>
      <use x="190.869141" xlink:href="#DejaVuSans-48"/>
      <use x="254.492188" xlink:href="#DejaVuSans-48"/>
     </g>
    </g>
   </g>
   <g id="xtick_15">
    <g id="line2d_18">
     <path d="M 318.62978 94.81032 
L 321.648543 95.591938 
" style="fill:none;stroke:#000000;stroke-linecap:square;stroke-width:0.8;"/>
    </g>
    <g id="text_15">
     <!-- 20000 -->
     <g transform="translate(322.646419 100.258348)scale(0.1 -0.1)">
      <use xlink:href="#DejaVuSans-50"/>
      <use x="63.623047" xlink:href="#DejaVuSans-48"/>
      <use x="127.246094" xlink:href="#DejaVuSans-48"/>
      <use x="190.869141" xlink:href="#DejaVuSans-48"/>
      <use x="254.492188" xlink:href="#DejaVuSans-48"/>
     </g>
    </g>
   </g>
  </g>
  <g id="axes_1">
   <g id="Poly3DCollection_1">
    <path clip-path="url(#pc05c7ed0ef)" d="M 203.700438 142.115361 
L 203.675915 139.698486 
L 215.853779 143.241746 
L 215.863902 145.66701 
z
" style="fill:#0c033b;"/>
    <path clip-path="url(#pc05c7ed0ef)" d="M 196.401162 148.290596 
L 196.367664 145.859163 
L 203.675915 139.698486 
L 203.700438 142.115361 
z
" style="fill:#1a057d;"/>
    <path clip-path="url(#pc05c7ed0ef)" d="M 196.401162 148.290596 
L 203.700438 142.115361 
L 215.863902 145.66701 
L 208.637156 151.907182 
z
" style="fill:#10034c;"/>
    <path clip-path="url(#pc05c7ed0ef)" d="M 196.367664 145.859163 
L 208.618231 149.467284 
L 215.853779 143.241746 
L 203.675915 139.698486 
z
" style="fill:#17056d;"/>
    <path clip-path="url(#pc05c7ed0ef)" d="M 215.863902 145.66701 
L 215.830047 137.555589 
L 228.170352 141.11619 
L 228.155024 149.255935 
z
" style="fill:#1a0241;"/>
    <path clip-path="url(#pc05c7ed0ef)" d="M 208.637156 151.907182 
L 215.863902 145.66701 
L 215.853779 143.241746 
L 208.618231 149.467284 
z
" style="fill:#0c033b;"/>
    <path clip-path="url(#pc05c7ed0ef)" d="M 208.637156 151.907182 
L 208.573857 143.746609 
L 215.830047 137.555589 
L 215.863902 145.66701 
z
" style="fill:#38038a;"/>
    <path clip-path="url(#pc05c7ed0ef)" d="M 196.401162 148.290596 
L 208.637156 151.907182 
L 208.618231 149.467284 
L 196.367664 145.859163 
z
" style="fill:#1a057d;"/>
    <path clip-path="url(#pc05c7ed0ef)" d="M 208.637156 151.907182 
L 215.863902 145.66701 
L 228.155024 149.255935 
L 221.002748 155.562072 
z
" style="fill:#220253;"/>
    <path clip-path="url(#pc05c7ed0ef)" d="M 196.401162 148.290596 
L 196.348464 144.465494 
L 208.607382 148.068749 
L 208.637156 151.907182 
z
" style="fill:#10023d;"/>
    <path clip-path="url(#pc05c7ed0ef)" d="M 188.96817 154.578956 
L 188.900839 150.730721 
L 196.348464 144.465494 
L 196.401162 148.290596 
z
" style="fill:#210581;"/>
    <path clip-path="url(#pc05c7ed0ef)" d="M 228.155024 149.255935 
L 228.171257 140.635238 
L 240.645253 144.231864 
L 240.575825 152.882725 
z
" style="fill:#1b0141;"/>
    <path clip-path="url(#pc05c7ed0ef)" d="M 188.96817 154.578956 
L 196.401162 148.290596 
L 208.637156 151.907182 
L 201.27732 158.262275 
z
" style="fill:#14034e;"/>
    <path clip-path="url(#pc05c7ed0ef)" d="M 208.573857 143.746609 
L 220.989229 147.372921 
L 228.170352 141.11619 
L 215.830047 137.555589 
z
" style="fill:#300378;"/>
    <path clip-path="url(#pc05c7ed0ef)" d="M 221.002748 155.562072 
L 228.155024 149.255935 
L 228.170352 141.11619 
L 220.989229 147.372921 
z
" style="fill:#1a0241;"/>
    <path clip-path="url(#pc05c7ed0ef)" d="M 221.002748 155.562072 
L 220.98843 146.889031 
L 228.171257 140.635238 
L 228.155024 149.255935 
z
" style="fill:#39038b;"/>
    <path clip-path="url(#pc05c7ed0ef)" d="M 221.002748 155.562072 
L 228.155024 149.255935 
L 240.575825 152.882725 
L 233.500008 159.25588 
z
" style="fill:#230254;"/>
    <path clip-path="url(#pc05c7ed0ef)" d="M 188.900839 150.730721 
L 201.233186 154.400592 
L 208.607382 148.068749 
L 196.348464 144.465494 
z
" style="fill:#1d0470;"/>
    <path clip-path="url(#pc05c7ed0ef)" d="M 208.637156 151.907182 
L 221.002748 155.562072 
L 220.989229 147.372921 
L 208.573857 143.746609 
z
" style="fill:#38038a;"/>
    <path clip-path="url(#pc05c7ed0ef)" d="M 201.27732 158.262275 
L 208.637156 151.907182 
L 208.607382 148.068749 
L 201.233186 154.400592 
z
" style="fill:#10023d;"/>
    <path clip-path="url(#pc05c7ed0ef)" d="M 240.575825 152.882725 
L 240.635421 145.456981 
L 253.234598 149.096237 
L 253.128369 156.547983 
z
" style="fill:#180240;"/>
    <path clip-path="url(#pc05c7ed0ef)" d="M 188.96817 154.578956 
L 188.921308 151.900617 
L 201.246603 155.574584 
L 201.27732 158.262275 
z
" style="fill:#0c033b;"/>
    <path clip-path="url(#pc05c7ed0ef)" d="M 201.27732 158.262275 
L 208.637156 151.907182 
L 221.002748 155.562072 
L 213.718049 161.984967 
z
" style="fill:#460359;"/>
    <path clip-path="url(#pc05c7ed0ef)" d="M 188.96817 154.578956 
L 201.27732 158.262275 
L 201.233186 154.400592 
L 188.900839 150.730721 
z
" style="fill:#210581;"/>
    <path clip-path="url(#pc05c7ed0ef)" d="M 220.98843 146.889031 
L 233.539543 150.552405 
L 240.645253 144.231864 
L 228.171257 140.635238 
z
" style="fill:#320378;"/>
    <path clip-path="url(#pc05c7ed0ef)" d="M 233.500008 159.25588 
L 233.533944 151.785014 
L 240.635421 145.456981 
L 240.575825 152.882725 
z
" style="fill:#330488;"/>
    <path clip-path="url(#pc05c7ed0ef)" d="M 208.637156 151.907182 
L 208.465463 129.772452 
L 220.966078 133.349014 
L 221.002748 155.562072 
z
" style="fill:#360246;"/>
    <path clip-path="url(#pc05c7ed0ef)" d="M 233.500008 159.25588 
L 240.575825 152.882725 
L 240.645253 144.231864 
L 233.539543 150.552405 
z
" style="fill:#1b0141;"/>
    <path clip-path="url(#pc05c7ed0ef)" d="M 233.500008 159.25588 
L 240.575825 152.882725 
L 253.128369 156.547983 
L 246.131049 162.989229 
z
" style="fill:#1f0252;"/>
    <path clip-path="url(#pc05c7ed0ef)" d="M 181.397755 160.983577 
L 181.340336 158.28901 
L 188.921308 151.900617 
L 188.96817 154.578956 
z
" style="fill:#1a057d;"/>
    <path clip-path="url(#pc05c7ed0ef)" d="M 201.27732 158.262275 
L 201.022799 135.991614 
L 208.465463 129.772452 
L 208.637156 151.907182 
z
" style="fill:#730494;"/>
    <path clip-path="url(#pc05c7ed0ef)" d="M 221.002748 155.562072 
L 233.500008 159.25588 
L 233.539543 150.552405 
L 220.98843 146.889031 
z
" style="fill:#39038b;"/>
    <path clip-path="url(#pc05c7ed0ef)" d="M 181.397755 160.983577 
L 188.96817 154.578956 
L 201.27732 158.262275 
L 193.780682 164.735494 
z
" style="fill:#10034c;"/>
    <path clip-path="url(#pc05c7ed0ef)" d="M 253.128369 156.547983 
L 253.255102 147.657885 
L 265.998317 151.331011 
L 265.814761 160.252323 
z
" style="fill:#1c0142;"/>
    <path clip-path="url(#pc05c7ed0ef)" d="M 233.533944 151.785014 
L 246.212207 155.492131 
L 253.234598 149.096237 
L 240.635421 145.456981 
z
" style="fill:#2d0376;"/>
    <path clip-path="url(#pc05c7ed0ef)" d="M 181.340336 158.28901 
L 193.739601 162.031493 
L 201.246603 155.574584 
L 188.921308 151.900617 
z
" style="fill:#17056d;"/>
    <path clip-path="url(#pc05c7ed0ef)" d="M 213.718049 161.984967 
L 221.002748 155.562072 
L 233.500008 159.25588 
L 226.292478 165.747667 
z
" style="fill:#480459;"/>
    <path clip-path="url(#pc05c7ed0ef)" d="M 246.131049 162.989229 
L 253.128369 156.547983 
L 253.234598 149.096237 
L 246.212207 155.492131 
z
" style="fill:#180240;"/>
    <path clip-path="url(#pc05c7ed0ef)" d="M 246.131049 162.989229 
L 246.227873 154.044966 
L 253.255102 147.657885 
L 253.128369 156.547983 
z
" style="fill:#3b038b;"/>
    <path clip-path="url(#pc05c7ed0ef)" d="M 221.002748 155.562072 
L 220.964721 132.527578 
L 233.605014 136.139682 
L 233.500008 159.25588 
z
" style="fill:#380345;"/>
    <path clip-path="url(#pc05c7ed0ef)" d="M 246.131049 162.989229 
L 253.128369 156.547983 
L 265.814761 160.252323 
L 258.898031 166.762758 
z
" style="fill:#240254;"/>
    <path clip-path="url(#pc05c7ed0ef)" d="M 193.780682 164.735494 
L 201.27732 158.262275 
L 201.246603 155.574584 
L 193.739601 162.031493 
z
" style="fill:#0c033b;"/>
    <path clip-path="url(#pc05c7ed0ef)" d="M 233.500008 159.25588 
L 246.131049 162.989229 
L 246.212207 155.492131 
L 233.533944 151.785014 
z
" style="fill:#330488;"/>
    <path clip-path="url(#pc05c7ed0ef)" d="M 213.718049 161.984967 
L 221.002748 155.562072 
L 220.966078 133.349014 
L 213.6002 139.635263 
z
" style="fill:#360246;"/>
    <path clip-path="url(#pc05c7ed0ef)" d="M 213.718049 161.984967 
L 213.595842 138.808686 
L 220.964721 132.527578 
L 221.002748 155.562072 
z
" style="fill:#770693;"/>
    <path clip-path="url(#pc05c7ed0ef)" d="M 181.397755 160.983577 
L 181.344236 158.472042 
L 193.742392 162.215166 
L 193.780682 164.735494 
z
" style="fill:#0c033b;"/>
    <path clip-path="url(#pc05c7ed0ef)" d="M 181.397755 160.983577 
L 193.780682 164.735494 
L 193.739601 162.031493 
L 181.340336 158.28901 
z
" style="fill:#1a057d;"/>
    <path clip-path="url(#pc05c7ed0ef)" d="M 193.780682 164.735494 
L 201.27732 158.262275 
L 213.718049 161.984967 
L 206.297214 168.527892 
z
" style="fill:#591251;"/>
    <path clip-path="url(#pc05c7ed0ef)" d="M 265.814761 160.252323 
L 265.985836 151.937663 
L 278.862322 155.652489 
L 278.637155 163.996376 
z
" style="fill:#1a0241;"/>
    <path clip-path="url(#pc05c7ed0ef)" d="M 201.27732 158.262275 
L 213.718049 161.984967 
L 213.6002 139.635263 
L 201.022799 135.991614 
z
" style="fill:#730494;"/>
    <path clip-path="url(#pc05c7ed0ef)" d="M 226.292478 165.747667 
L 233.500008 159.25588 
L 246.131049 162.989229 
L 239.002775 169.551023 
z
" style="fill:#460359;"/>
    <path clip-path="url(#pc05c7ed0ef)" d="M 201.022799 135.991614 
L 213.6002 139.635263 
L 220.966078 133.349014 
L 208.465463 129.772452 
z
" style="fill:#640480;"/>
    <path clip-path="url(#pc05c7ed0ef)" d="M 173.686069 167.507715 
L 173.622349 164.980923 
L 181.344236 158.472042 
L 181.397755 160.983577 
z
" style="fill:#1a057d;"/>
    <path clip-path="url(#pc05c7ed0ef)" d="M 246.227873 154.044966 
L 259.052409 157.787005 
L 265.998317 151.331011 
L 253.255102 147.657885 
z
" style="fill:#330379;"/>
    <path clip-path="url(#pc05c7ed0ef)" d="M 258.898031 166.762758 
L 259.041911 158.397382 
L 265.985836 151.937663 
L 265.814761 160.252323 
z
" style="fill:#38038a;"/>
    <path clip-path="url(#pc05c7ed0ef)" d="M 233.500008 159.25588 
L 233.601882 136.829023 
L 246.374689 140.48273 
L 246.131049 162.989229 
z
" style="fill:#370245;"/>
    <path clip-path="url(#pc05c7ed0ef)" d="M 258.898031 166.762758 
L 265.814761 160.252323 
L 265.998317 151.331011 
L 259.052409 157.787005 
z
" style="fill:#1c0142;"/>
    <path clip-path="url(#pc05c7ed0ef)" d="M 258.898031 166.762758 
L 265.814761 160.252323 
L 278.637155 163.996376 
L 271.803162 170.57712 
z
" style="fill:#220253;"/>
    <path clip-path="url(#pc05c7ed0ef)" d="M 201.27732 158.262275 
L 200.922381 127.205031 
L 213.553701 130.816768 
L 213.718049 161.984967 
z
" style="fill:#460e3f;"/>
    <path clip-path="url(#pc05c7ed0ef)" d="M 173.686069 167.507715 
L 181.397755 160.983577 
L 193.780682 164.735494 
L 186.143392 171.330164 
z
" style="fill:#10034c;"/>
    <path clip-path="url(#pc05c7ed0ef)" d="M 278.637155 163.996376 
L 278.69036 162.024783 
L 291.664009 165.802281 
L 291.597749 167.780781 
z
" style="fill:#0a033a;"/>
    <path clip-path="url(#pc05c7ed0ef)" d="M 226.292478 165.747667 
L 226.314411 143.182603 
L 233.601882 136.829023 
L 233.500008 159.25588 
z
" style="fill:#750593;"/>
    <path clip-path="url(#pc05c7ed0ef)" d="M 246.131049 162.989229 
L 258.898031 166.762758 
L 259.052409 157.787005 
L 246.227873 154.044966 
z
" style="fill:#3b038b;"/>
    <path clip-path="url(#pc05c7ed0ef)" d="M 226.292478 165.747667 
L 233.500008 159.25588 
L 233.605014 136.139682 
L 226.315086 142.48894 
z
" style="fill:#380345;"/>
    <path clip-path="url(#pc05c7ed0ef)" d="M 193.780682 164.735494 
L 193.305921 133.485697 
L 200.922381 127.205031 
L 201.27732 158.262275 
z
" style="fill:#941d85;"/>
    <path clip-path="url(#pc05c7ed0ef)" d="M 173.622349 164.980923 
L 186.095083 168.794504 
L 193.742392 162.215166 
L 181.344236 158.472042 
z
" style="fill:#17056d;"/>
    <path clip-path="url(#pc05c7ed0ef)" d="M 206.297214 168.527892 
L 213.718049 161.984967 
L 226.292478 165.747667 
L 218.949524 172.361429 
z
" style="fill:#661f46;"/>
    <path clip-path="url(#pc05c7ed0ef)" d="M 271.803162 170.57712 
L 271.850107 168.593542 
L 278.69036 162.024783 
L 278.637155 163.996376 
z
" style="fill:#16067b;"/>
    <path clip-path="url(#pc05c7ed0ef)" d="M 213.718049 161.984967 
L 226.292478 165.747667 
L 226.315086 142.48894 
L 213.595842 138.808686 
z
" style="fill:#770693;"/>
    <path clip-path="url(#pc05c7ed0ef)" d="M 239.002775 169.551023 
L 246.131049 162.989229 
L 258.898031 166.762758 
L 251.851153 173.395697 
z
" style="fill:#480459;"/>
    <path clip-path="url(#pc05c7ed0ef)" d="M 259.041911 158.397382 
L 272.001843 162.182261 
L 278.862322 155.652489 
L 265.985836 151.937663 
z
" style="fill:#300378;"/>
    <path clip-path="url(#pc05c7ed0ef)" d="M 186.143392 171.330164 
L 193.780682 164.735494 
L 193.742392 162.215166 
L 186.095083 168.794504 
z
" style="fill:#0c033b;"/>
    <path clip-path="url(#pc05c7ed0ef)" d="M 213.595842 138.808686 
L 226.315086 142.48894 
L 233.605014 136.139682 
L 220.964721 132.527578 
z
" style="fill:#67057f;"/>
    <path clip-path="url(#pc05c7ed0ef)" d="M 271.803162 170.57712 
L 278.637155 163.996376 
L 278.862322 155.652489 
L 272.001843 162.182261 
z
" style="fill:#1a0241;"/>
    <path clip-path="url(#pc05c7ed0ef)" d="M 246.131049 162.989229 
L 246.383771 139.643718 
L 259.30099 143.334153 
L 258.898031 166.762758 
z
" style="fill:#380345;"/>
    <path clip-path="url(#pc05c7ed0ef)" d="M 271.803162 170.57712 
L 278.637155 163.996376 
L 291.597749 167.780781 
L 284.848695 174.43298 
z
" style="fill:#0d034a;"/>
    <path clip-path="url(#pc05c7ed0ef)" d="M 291.597749 167.780781 
L 291.613726 167.30372 
L 304.717982 171.127463 
L 304.698789 171.606197 
z
" style="fill:#050338;"/>
    <path clip-path="url(#pc05c7ed0ef)" d="M 173.686069 167.507715 
L 173.629308 165.256875 
L 186.100359 169.071425 
L 186.143392 171.330164 
z
" style="fill:#0b033b;"/>
    <path clip-path="url(#pc05c7ed0ef)" d="M 173.686069 167.507715 
L 186.143392 171.330164 
L 186.095083 168.794504 
L 173.622349 164.980923 
z
" style="fill:#1a057d;"/>
    <path clip-path="url(#pc05c7ed0ef)" d="M 271.850107 168.593542 
L 284.908869 172.442435 
L 291.664009 165.802281 
L 278.69036 162.024783 
z
" style="fill:#13056b;"/>
    <path clip-path="url(#pc05c7ed0ef)" d="M 186.143392 171.330164 
L 193.780682 164.735494 
L 206.297214 168.527892 
L 198.736391 175.194243 
z
" style="fill:#651d47;"/>
    <path clip-path="url(#pc05c7ed0ef)" d="M 258.898031 166.762758 
L 271.803162 170.57712 
L 272.001843 162.182261 
L 259.041911 158.397382 
z
" style="fill:#38038a;"/>
    <path clip-path="url(#pc05c7ed0ef)" d="M 239.002775 169.551023 
L 246.131049 162.989229 
L 246.374689 140.48273 
L 239.168273 146.905598 
z
" style="fill:#370245;"/>
    <path clip-path="url(#pc05c7ed0ef)" d="M 239.002775 169.551023 
L 239.174443 146.061315 
L 246.383771 139.643718 
L 246.131049 162.989229 
z
" style="fill:#770693;"/>
    <path clip-path="url(#pc05c7ed0ef)" d="M 213.718049 161.984967 
L 213.515882 123.644381 
L 226.32988 127.269132 
L 226.292478 165.747667 
z
" style="fill:#501837;"/>
    <path clip-path="url(#pc05c7ed0ef)" d="M 206.297214 168.527892 
L 213.718049 161.984967 
L 213.553701 130.816768 
L 206.015381 137.166121 
z
" style="fill:#460e3f;"/>
    <path clip-path="url(#pc05c7ed0ef)" d="M 218.949524 172.361429 
L 226.292478 165.747667 
L 239.002775 169.551023 
L 231.739835 176.23678 
z
" style="fill:#641c48;"/>
    <path clip-path="url(#pc05c7ed0ef)" d="M 284.848695 174.43298 
L 284.863204 173.953018 
L 291.613726 167.30372 
L 291.597749 167.780781 
z
" style="fill:#0b0777;"/>
    <path clip-path="url(#pc05c7ed0ef)" d="M 165.82912 174.154745 
L 165.762937 171.8902 
L 173.629308 165.256875 
L 173.686069 167.507715 
z
" style="fill:#18057c;"/>
    <path clip-path="url(#pc05c7ed0ef)" d="M 284.848695 174.43298 
L 291.597749 167.780781 
L 291.664009 165.802281 
L 284.908869 172.442435 
z
" style="fill:#0a033a;"/>
    <path clip-path="url(#pc05c7ed0ef)" d="M 226.292478 165.747667 
L 239.002775 169.551023 
L 239.168273 146.905598 
L 226.314411 143.182603 
z
" style="fill:#750593;"/>
    <path clip-path="url(#pc05c7ed0ef)" d="M 206.297214 168.527892 
L 205.950514 129.947905 
L 213.515882 123.644381 
L 213.718049 161.984967 
z
" style="fill:#a93374;"/>
    <path clip-path="url(#pc05c7ed0ef)" d="M 251.851153 173.395697 
L 258.898031 166.762758 
L 271.803162 170.57712 
L 264.839875 177.282368 
z
" style="fill:#480459;"/>
    <path clip-path="url(#pc05c7ed0ef)" d="M 193.780682 164.735494 
L 206.297214 168.527892 
L 206.015381 137.166121 
L 193.305921 133.485697 
z
" style="fill:#941d85;"/>
    <path clip-path="url(#pc05c7ed0ef)" d="M 226.314411 143.182603 
L 239.168273 146.905598 
L 246.374689 140.48273 
L 233.601882 136.829023 
z
" style="fill:#650480;"/>
    <path clip-path="url(#pc05c7ed0ef)" d="M 165.82912 174.154745 
L 173.686069 167.507715 
L 186.143392 171.330164 
L 178.361455 178.049733 
z
" style="fill:#0e034b;"/>
    <path clip-path="url(#pc05c7ed0ef)" d="M 258.898031 166.762758 
L 259.299883 143.398546 
L 272.358092 147.129616 
L 271.803162 170.57712 
z
" style="fill:#380345;"/>
    <path clip-path="url(#pc05c7ed0ef)" d="M 271.803162 170.57712 
L 284.848695 174.43298 
L 284.908869 172.442435 
L 271.850107 168.593542 
z
" style="fill:#16067b;"/>
    <path clip-path="url(#pc05c7ed0ef)" d="M 284.848695 174.43298 
L 291.597749 167.780781 
L 304.698789 171.606197 
L 298.036935 178.33102 
z
" style="fill:#070448;"/>
    <path clip-path="url(#pc05c7ed0ef)" d="M 193.780682 164.735494 
L 193.214214 127.449327 
L 205.960935 131.107515 
L 206.297214 168.527892 
z
" style="fill:#4f1738;"/>
    <path clip-path="url(#pc05c7ed0ef)" d="M 284.863204 173.953018 
L 298.054703 177.849372 
L 304.717982 171.127463 
L 291.613726 167.30372 
z
" style="fill:#0a0667;"/>
    <path clip-path="url(#pc05c7ed0ef)" d="M 165.762937 171.8902 
L 178.309163 175.777224 
L 186.100359 169.071425 
L 173.629308 165.256875 
z
" style="fill:#15056c;"/>
    <path clip-path="url(#pc05c7ed0ef)" d="M 198.736391 175.194243 
L 206.297214 168.527892 
L 218.949524 172.361429 
L 211.467294 179.100638 
z
" style="fill:#80442a;"/>
    <path clip-path="url(#pc05c7ed0ef)" d="M 271.803162 170.57712 
L 271.977284 163.21995 
L 285.071885 167.049864 
L 284.848695 174.43298 
z
" style="fill:#180240;"/>
    <path clip-path="url(#pc05c7ed0ef)" d="M 226.292478 165.747667 
L 226.328428 128.762077 
L 239.274047 132.432278 
L 239.002775 169.551023 
z
" style="fill:#4e1638;"/>
    <path clip-path="url(#pc05c7ed0ef)" d="M 251.851153 173.395697 
L 252.17411 149.886948 
L 259.299883 143.398546 
L 258.898031 166.762758 
z
" style="fill:#770693;"/>
    <path clip-path="url(#pc05c7ed0ef)" d="M 251.851153 173.395697 
L 258.898031 166.762758 
L 259.30099 143.334153 
L 252.175 149.82215 
z
" style="fill:#380345;"/>
    <path clip-path="url(#pc05c7ed0ef)" d="M 193.305921 133.485697 
L 206.015381 137.166121 
L 213.553701 130.816768 
L 200.922381 127.205031 
z
" style="fill:#801974;"/>
    <path clip-path="url(#pc05c7ed0ef)" d="M 186.143392 171.330164 
L 185.42858 133.811088 
L 193.214214 127.449327 
L 193.780682 164.735494 
z
" style="fill:#a73076;"/>
    <path clip-path="url(#pc05c7ed0ef)" d="M 231.739835 176.23678 
L 239.002775 169.551023 
L 251.851153 173.395697 
L 244.670417 180.154631 
z
" style="fill:#661f46;"/>
    <path clip-path="url(#pc05c7ed0ef)" d="M 298.036935 178.33102 
L 304.698789 171.606197 
L 304.717982 171.127463 
L 298.054703 177.849372 
z
" style="fill:#050338;"/>
    <path clip-path="url(#pc05c7ed0ef)" d="M 178.361455 178.049733 
L 186.143392 171.330164 
L 186.100359 169.071425 
L 178.309163 175.777224 
z
" style="fill:#0b033b;"/>
    <path clip-path="url(#pc05c7ed0ef)" d="M 264.839875 177.282368 
L 264.989863 169.880175 
L 271.977284 163.21995 
L 271.803162 170.57712 
z
" style="fill:#330488;"/>
    <path clip-path="url(#pc05c7ed0ef)" d="M 218.949524 172.361429 
L 218.849434 135.144762 
L 226.328428 128.762077 
L 226.292478 165.747667 
z
" style="fill:#a62f77;"/>
    <path clip-path="url(#pc05c7ed0ef)" d="M 239.002775 169.551023 
L 251.851153 173.395697 
L 252.175 149.82215 
L 239.174443 146.061315 
z
" style="fill:#770693;"/>
    <path clip-path="url(#pc05c7ed0ef)" d="M 218.949524 172.361429 
L 226.292478 165.747667 
L 226.32988 127.269132 
L 218.845393 133.642219 
z
" style="fill:#501837;"/>
    <path clip-path="url(#pc05c7ed0ef)" d="M 264.839875 177.282368 
L 271.803162 170.57712 
L 284.848695 174.43298 
L 277.971253 181.211726 
z
" style="fill:#1f0252;"/>
    <path clip-path="url(#pc05c7ed0ef)" d="M 239.174443 146.061315 
L 252.175 149.82215 
L 259.30099 143.334153 
L 246.383771 139.643718 
z
" style="fill:#67057f;"/>
    <path clip-path="url(#pc05c7ed0ef)" d="M 284.848695 174.43298 
L 298.036935 178.33102 
L 298.054703 177.849372 
L 284.863204 173.953018 
z
" style="fill:#0b0777;"/>
    <path clip-path="url(#pc05c7ed0ef)" d="M 165.82912 174.154745 
L 178.361455 178.049733 
L 178.309163 175.777224 
L 165.762937 171.8902 
z
" style="fill:#18057c;"/>
    <path clip-path="url(#pc05c7ed0ef)" d="M 165.82912 174.154745 
L 165.762017 171.858746 
L 178.308437 175.745659 
L 178.361455 178.049733 
z
" style="fill:#0b033b;"/>
    <path clip-path="url(#pc05c7ed0ef)" d="M 284.848695 174.43298 
L 284.874278 173.586716 
L 298.068263 177.481782 
L 298.036935 178.33102 
z
" style="fill:#070339;"/>
    <path clip-path="url(#pc05c7ed0ef)" d="M 178.361455 178.049733 
L 186.143392 171.330164 
L 198.736391 175.194243 
L 191.031582 181.987547 
z
" style="fill:#641c48;"/>
    <path clip-path="url(#pc05c7ed0ef)" d="M 206.297214 168.527892 
L 218.949524 172.361429 
L 218.845393 133.642219 
L 205.950514 129.947905 
z
" style="fill:#a93374;"/>
    <path clip-path="url(#pc05c7ed0ef)" d="M 211.467294 179.100638 
L 218.949524 172.361429 
L 231.739835 176.23678 
L 224.338378 183.050047 
z
" style="fill:#783634;"/>
    <path clip-path="url(#pc05c7ed0ef)" d="M 157.822766 180.928173 
L 157.745755 178.618162 
L 165.762017 171.858746 
L 165.82912 174.154745 
z
" style="fill:#18057c;"/>
    <path clip-path="url(#pc05c7ed0ef)" d="M 277.971253 181.211726 
L 277.994143 180.360302 
L 284.874278 173.586716 
L 284.848695 174.43298 
z
" style="fill:#0e0678;"/>
    <path clip-path="url(#pc05c7ed0ef)" d="M 264.839875 177.282368 
L 271.803162 170.57712 
L 272.358092 147.129616 
L 265.317927 153.689584 
z
" style="fill:#380345;"/>
    <path clip-path="url(#pc05c7ed0ef)" d="M 239.002775 169.551023 
L 239.283568 131.129479 
L 252.380883 134.83546 
L 251.851153 173.395697 
z
" style="fill:#501837;"/>
    <path clip-path="url(#pc05c7ed0ef)" d="M 198.736391 175.194243 
L 206.297214 168.527892 
L 205.960935 131.107515 
L 198.254597 137.539725 
z
" style="fill:#4f1738;"/>
    <path clip-path="url(#pc05c7ed0ef)" d="M 264.989863 169.880175 
L 278.170965 173.783364 
L 285.071885 167.049864 
L 271.977284 163.21995 
z
" style="fill:#2d0376;"/>
    <path clip-path="url(#pc05c7ed0ef)" d="M 244.670417 180.154631 
L 251.851153 173.395697 
L 264.839875 177.282368 
L 257.743589 184.115686 
z
" style="fill:#672045;"/>
    <path clip-path="url(#pc05c7ed0ef)" d="M 277.971253 181.211726 
L 284.848695 174.43298 
L 285.071885 167.049864 
L 278.170965 173.783364 
z
" style="fill:#180240;"/>
    <path clip-path="url(#pc05c7ed0ef)" d="M 231.739835 176.23678 
L 239.002775 169.551023 
L 239.274047 132.432278 
L 231.87807 138.885737 
z
" style="fill:#4e1638;"/>
    <path clip-path="url(#pc05c7ed0ef)" d="M 157.822766 180.928173 
L 165.82912 174.154745 
L 178.361455 178.049733 
L 170.430723 184.897786 
z
" style="fill:#0e034b;"/>
    <path clip-path="url(#pc05c7ed0ef)" d="M 251.851153 173.395697 
L 264.839875 177.282368 
L 265.317927 153.689584 
L 252.17411 149.886948 
z
" style="fill:#770693;"/>
    <path clip-path="url(#pc05c7ed0ef)" d="M 231.739835 176.23678 
L 231.882923 137.574548 
L 239.283568 131.129479 
L 239.002775 169.551023 
z
" style="fill:#a93374;"/>
    <path clip-path="url(#pc05c7ed0ef)" d="M 277.971253 181.211726 
L 284.848695 174.43298 
L 298.036935 178.33102 
L 291.24765 185.184478 
z
" style="fill:#090449;"/>
    <path clip-path="url(#pc05c7ed0ef)" d="M 186.143392 171.330164 
L 185.43734 134.270871 
L 198.260501 138.001215 
L 198.736391 175.194243 
z
" style="fill:#4e1638;"/>
    <path clip-path="url(#pc05c7ed0ef)" d="M 186.143392 171.330164 
L 198.736391 175.194243 
L 198.254597 137.539725 
L 185.42858 133.811088 
z
" style="fill:#a73076;"/>
    <path clip-path="url(#pc05c7ed0ef)" d="M 277.994143 180.360302 
L 291.276365 184.330056 
L 298.068263 177.481782 
L 284.874278 173.586716 
z
" style="fill:#0c0668;"/>
    <path clip-path="url(#pc05c7ed0ef)" d="M 252.17411 149.886948 
L 265.317927 153.689584 
L 272.358092 147.129616 
L 259.299883 143.398546 
z
" style="fill:#67057f;"/>
    <path clip-path="url(#pc05c7ed0ef)" d="M 157.745755 178.618162 
L 170.367964 182.579631 
L 178.308437 175.745659 
L 165.762017 171.858746 
z
" style="fill:#15056c;"/>
    <path clip-path="url(#pc05c7ed0ef)" d="M 191.031582 181.987547 
L 198.736391 175.194243 
L 211.467294 179.100638 
L 203.841786 185.968896 
z
" style="fill:#86561e;"/>
    <path clip-path="url(#pc05c7ed0ef)" d="M 264.839875 177.282368 
L 277.971253 181.211726 
L 278.170965 173.783364 
L 264.989863 169.880175 
z
" style="fill:#330488;"/>
    <path clip-path="url(#pc05c7ed0ef)" d="M 205.950514 129.947905 
L 218.845393 133.642219 
L 226.32988 127.269132 
L 213.515882 123.644381 
z
" style="fill:#932c64;"/>
    <path clip-path="url(#pc05c7ed0ef)" d="M 206.297214 168.527892 
L 205.773164 110.212729 
L 218.792118 113.832703 
L 218.949524 172.361429 
z
" style="fill:#643521;"/>
    <path clip-path="url(#pc05c7ed0ef)" d="M 218.949524 172.361429 
L 231.739835 176.23678 
L 231.87807 138.885737 
L 218.849434 135.144762 
z
" style="fill:#a62f77;"/>
    <path clip-path="url(#pc05c7ed0ef)" d="M 178.361455 178.049733 
L 177.503352 140.758359 
L 185.43734 134.270871 
L 186.143392 171.330164 
z
" style="fill:#a52e78;"/>
    <path clip-path="url(#pc05c7ed0ef)" d="M 224.338378 183.050047 
L 231.739835 176.23678 
L 244.670417 180.154631 
L 237.351973 187.043183 
z
" style="fill:#7d3d2f;"/>
    <path clip-path="url(#pc05c7ed0ef)" d="M 170.430723 184.897786 
L 178.361455 178.049733 
L 178.308437 175.745659 
L 170.367964 182.579631 
z
" style="fill:#0b033b;"/>
    <path clip-path="url(#pc05c7ed0ef)" d="M 291.24765 185.184478 
L 298.036935 178.33102 
L 298.068263 177.481782 
L 291.276365 184.330056 
z
" style="fill:#070339;"/>
    <path clip-path="url(#pc05c7ed0ef)" d="M 198.736391 175.194243 
L 197.985498 116.508436 
L 205.773164 110.212729 
L 206.297214 168.527892 
z
" style="fill:#d47046;"/>
    <path clip-path="url(#pc05c7ed0ef)" d="M 251.851153 173.395697 
L 252.392589 133.983356 
L 265.641362 137.727429 
L 264.839875 177.282368 
z
" style="fill:#511936;"/>
    <path clip-path="url(#pc05c7ed0ef)" d="M 264.839875 177.282368 
L 265.206371 159.195073 
L 278.459264 163.059953 
L 277.971253 181.211726 
z
" style="fill:#2e0046;"/>
    <path clip-path="url(#pc05c7ed0ef)" d="M 257.743589 184.115686 
L 264.839875 177.282368 
L 277.971253 181.211726 
L 270.961723 188.120663 
z
" style="fill:#3a005a;"/>
    <path clip-path="url(#pc05c7ed0ef)" d="M 185.42858 133.811088 
L 198.254597 137.539725 
L 205.960935 131.107515 
L 193.214214 127.449327 
z
" style="fill:#912a66;"/>
    <path clip-path="url(#pc05c7ed0ef)" d="M 157.822766 180.928173 
L 157.745966 178.624495 
L 170.368136 182.585986 
L 170.430723 184.897786 
z
" style="fill:#0b033b;"/>
    <path clip-path="url(#pc05c7ed0ef)" d="M 157.822766 180.928173 
L 170.430723 184.897786 
L 170.367964 182.579631 
L 157.745755 178.618162 
z
" style="fill:#18057c;"/>
    <path clip-path="url(#pc05c7ed0ef)" d="M 277.971253 181.211726 
L 291.24765 185.184478 
L 291.276365 184.330056 
L 277.994143 180.360302 
z
" style="fill:#0e0678;"/>
    <path clip-path="url(#pc05c7ed0ef)" d="M 277.971253 181.211726 
L 278.009014 179.8072 
L 291.295019 183.775004 
L 291.24765 185.184478 
z
" style="fill:#080339;"/>
    <path clip-path="url(#pc05c7ed0ef)" d="M 170.430723 184.897786 
L 178.361455 178.049733 
L 191.031582 181.987547 
L 183.178635 188.911464 
z
" style="fill:#560f52;"/>
    <path clip-path="url(#pc05c7ed0ef)" d="M 218.949524 172.361429 
L 218.810876 120.807368 
L 231.931331 124.494557 
L 231.739835 176.23678 
z
" style="fill:#5e2a28;"/>
    <path clip-path="url(#pc05c7ed0ef)" d="M 244.670417 180.154631 
L 251.851153 173.395697 
L 252.380883 134.83546 
L 245.06568 141.352439 
z
" style="fill:#501837;"/>
    <path clip-path="url(#pc05c7ed0ef)" d="M 244.670417 180.154631 
L 245.074416 140.494828 
L 252.392589 133.983356 
L 251.851153 173.395697 
z
" style="fill:#ab3572;"/>
    <path clip-path="url(#pc05c7ed0ef)" d="M 257.743589 184.115686 
L 258.048784 165.916509 
L 265.206371 159.195073 
L 264.839875 177.282368 
z
" style="fill:#610095;"/>
    <path clip-path="url(#pc05c7ed0ef)" d="M 218.849434 135.144762 
L 231.87807 138.885737 
L 239.274047 132.432278 
L 226.328428 128.762077 
z
" style="fill:#902967;"/>
    <path clip-path="url(#pc05c7ed0ef)" d="M 203.841786 185.968896 
L 211.467294 179.100638 
L 224.338378 183.050047 
L 216.794403 189.994506 
z
" style="fill:#855022;"/>
    <path clip-path="url(#pc05c7ed0ef)" d="M 149.662704 187.831639 
L 149.575654 185.513869 
L 157.745966 178.624495 
L 157.822766 180.928173 
z
" style="fill:#18057c;"/>
    <path clip-path="url(#pc05c7ed0ef)" d="M 270.961723 188.120663 
L 270.994864 186.707551 
L 278.009014 179.8072 
L 277.971253 181.211726 
z
" style="fill:#110679;"/>
    <path clip-path="url(#pc05c7ed0ef)" d="M 211.467294 179.100638 
L 211.132914 127.220031 
L 218.810876 120.807368 
L 218.949524 172.361429 
z
" style="fill:#c75956;"/>
    <path clip-path="url(#pc05c7ed0ef)" d="M 231.739835 176.23678 
L 244.670417 180.154631 
L 245.06568 141.352439 
L 231.882923 137.574548 
z
" style="fill:#a93374;"/>
    <path clip-path="url(#pc05c7ed0ef)" d="M 191.031582 181.987547 
L 198.736391 175.194243 
L 198.260501 138.001215 
L 190.40647 144.561223 
z
" style="fill:#4e1638;"/>
    <path clip-path="url(#pc05c7ed0ef)" d="M 178.361455 178.049733 
L 177.665791 147.817606 
L 190.524813 151.646606 
L 191.031582 181.987547 
z
" style="fill:#440c40;"/>
    <path clip-path="url(#pc05c7ed0ef)" d="M 237.351973 187.043183 
L 244.670417 180.154631 
L 257.743589 184.115686 
L 250.510457 191.080779 
z
" style="fill:#7d3d2f;"/>
    <path clip-path="url(#pc05c7ed0ef)" d="M 211.467294 179.100638 
L 218.949524 172.361429 
L 218.792118 113.832703 
L 211.087664 120.199242 
z
" style="fill:#643521;"/>
    <path clip-path="url(#pc05c7ed0ef)" d="M 149.662704 187.831639 
L 157.822766 180.928173 
L 170.430723 184.897786 
L 162.346885 191.878042 
z
" style="fill:#0e034b;"/>
    <path clip-path="url(#pc05c7ed0ef)" d="M 270.961723 188.120663 
L 277.971253 181.211726 
L 291.24765 185.184478 
L 284.327244 192.170297 
z
" style="fill:#0a0449;"/>
    <path clip-path="url(#pc05c7ed0ef)" d="M 178.361455 178.049733 
L 191.031582 181.987547 
L 190.40647 144.561223 
L 177.503352 140.758359 
z
" style="fill:#a52e78;"/>
    <path clip-path="url(#pc05c7ed0ef)" d="M 170.430723 184.897786 
L 169.607143 154.476836 
L 177.665791 147.817606 
L 178.361455 178.049733 
z
" style="fill:#8f1988;"/>
    <path clip-path="url(#pc05c7ed0ef)" d="M 270.994864 186.707551 
L 284.370124 190.752196 
L 291.295019 183.775004 
L 278.009014 179.8072 
z
" style="fill:#0f0569;"/>
    <path clip-path="url(#pc05c7ed0ef)" d="M 149.575654 185.513869 
L 162.274217 189.552084 
L 170.368136 182.585986 
L 157.745966 178.624495 
z
" style="fill:#15056c;"/>
    <path clip-path="url(#pc05c7ed0ef)" d="M 183.178635 188.911464 
L 191.031582 181.987547 
L 203.841786 185.968896 
L 196.068846 192.969946 
z
" style="fill:#876218;"/>
    <path clip-path="url(#pc05c7ed0ef)" d="M 198.736391 175.194243 
L 211.467294 179.100638 
L 211.087664 120.199242 
L 197.985498 116.508436 
z
" style="fill:#d47046;"/>
    <path clip-path="url(#pc05c7ed0ef)" d="M 257.743589 184.115686 
L 264.839875 177.282368 
L 265.641362 137.727429 
L 258.411086 144.311991 
z
" style="fill:#511936;"/>
    <path clip-path="url(#pc05c7ed0ef)" d="M 270.961723 188.120663 
L 277.971253 181.211726 
L 278.459264 163.059953 
L 271.390065 169.856453 
z
" style="fill:#2e0046;"/>
    <path clip-path="url(#pc05c7ed0ef)" d="M 231.739835 176.23678 
L 231.945367 120.702151 
L 245.238201 124.416384 
L 244.670417 180.154631 
z
" style="fill:#613024;"/>
    <path clip-path="url(#pc05c7ed0ef)" d="M 216.794403 189.994506 
L 224.338378 183.050047 
L 237.351973 187.043183 
L 229.891821 194.06512 
z
" style="fill:#86571e;"/>
    <path clip-path="url(#pc05c7ed0ef)" d="M 231.882923 137.574548 
L 245.06568 141.352439 
L 252.380883 134.83546 
L 239.283568 131.129479 
z
" style="fill:#932c64;"/>
    <path clip-path="url(#pc05c7ed0ef)" d="M 162.346885 191.878042 
L 170.430723 184.897786 
L 170.368136 182.585986 
L 162.274217 189.552084 
z
" style="fill:#0b033b;"/>
    <path clip-path="url(#pc05c7ed0ef)" d="M 284.327244 192.170297 
L 291.24765 185.184478 
L 291.295019 183.775004 
L 284.370124 190.752196 
z
" style="fill:#080339;"/>
    <path clip-path="url(#pc05c7ed0ef)" d="M 224.338378 183.050047 
L 231.739835 176.23678 
L 231.931331 124.494557 
L 224.338378 130.979527 
z
" style="fill:#5e2a28;"/>
    <path clip-path="url(#pc05c7ed0ef)" d="M 258.048784 165.916509 
L 271.390065 169.856453 
L 278.459264 163.059953 
L 265.206371 159.195073 
z
" style="fill:#540081;"/>
    <path clip-path="url(#pc05c7ed0ef)" d="M 198.736391 175.194243 
L 197.87091 107.552842 
L 211.029721 111.209085 
L 211.467294 179.100638 
z
" style="fill:#694418;"/>
    <path clip-path="url(#pc05c7ed0ef)" d="M 244.670417 180.154631 
L 257.743589 184.115686 
L 258.411086 144.311991 
L 245.074416 140.494828 
z
" style="fill:#ab3572;"/>
    <path clip-path="url(#pc05c7ed0ef)" d="M 257.743589 184.115686 
L 270.961723 188.120663 
L 271.390065 169.856453 
L 258.048784 165.916509 
z
" style="fill:#610095;"/>
    <path clip-path="url(#pc05c7ed0ef)" d="M 250.510457 191.080779 
L 257.743589 184.115686 
L 270.961723 188.120663 
L 263.816264 195.163579 
z
" style="fill:#5a1250;"/>
    <path clip-path="url(#pc05c7ed0ef)" d="M 224.338378 183.050047 
L 224.338378 127.162047 
L 231.945367 120.702151 
L 231.739835 176.23678 
z
" style="fill:#ce654d;"/>
    <path clip-path="url(#pc05c7ed0ef)" d="M 177.503352 140.758359 
L 190.40647 144.561223 
L 198.260501 138.001215 
L 185.43734 134.270871 
z
" style="fill:#8f2868;"/>
    <path clip-path="url(#pc05c7ed0ef)" d="M 149.662704 187.831639 
L 149.602461 186.22763 
L 162.296595 190.26837 
L 162.346885 191.878042 
z
" style="fill:#09033a;"/>
    <path clip-path="url(#pc05c7ed0ef)" d="M 149.662704 187.831639 
L 162.346885 191.878042 
L 162.274217 189.552084 
L 149.575654 185.513869 
z
" style="fill:#18057c;"/>
    <path clip-path="url(#pc05c7ed0ef)" d="M 270.961723 188.120663 
L 284.327244 192.170297 
L 284.370124 190.752196 
L 270.994864 186.707551 
z
" style="fill:#110679;"/>
    <path clip-path="url(#pc05c7ed0ef)" d="M 162.346885 191.878042 
L 170.430723 184.897786 
L 183.178635 188.911464 
L 175.173234 195.969799 
z
" style="fill:#440259;"/>
    <path clip-path="url(#pc05c7ed0ef)" d="M 211.467294 179.100638 
L 224.338378 183.050047 
L 224.338378 130.979527 
L 211.132914 127.220031 
z
" style="fill:#c75956;"/>
    <path clip-path="url(#pc05c7ed0ef)" d="M 270.961723 188.120663 
L 271.032794 185.090244 
L 284.4192 189.129164 
L 284.327244 192.170297 
z
" style="fill:#0d023b;"/>
    <path clip-path="url(#pc05c7ed0ef)" d="M 191.031582 181.987547 
L 189.894552 113.911996 
L 197.87091 107.552842 
L 198.736391 175.194243 
z
" style="fill:#de8f32;"/>
    <path clip-path="url(#pc05c7ed0ef)" d="M 170.430723 184.897786 
L 169.834586 162.877997 
L 182.720916 166.812733 
L 183.178635 188.911464 
z
" style="fill:#350146;"/>
    <path clip-path="url(#pc05c7ed0ef)" d="M 183.178635 188.911464 
L 191.031582 181.987547 
L 190.524813 151.646606 
L 182.546269 158.380739 
z
" style="fill:#440c40;"/>
    <path clip-path="url(#pc05c7ed0ef)" d="M 196.068846 192.969946 
L 203.841786 185.968896 
L 216.794403 189.994506 
L 209.103753 197.073984 
z
" style="fill:#875f19;"/>
    <path clip-path="url(#pc05c7ed0ef)" d="M 141.344465 194.868925 
L 141.276862 193.255089 
L 149.602461 186.22763 
L 149.662704 187.831639 
z
" style="fill:#13067a;"/>
    <path clip-path="url(#pc05c7ed0ef)" d="M 257.743589 184.115686 
L 258.279627 152.151034 
L 271.714082 156.040559 
L 270.961723 188.120663 
z
" style="fill:#460e3f;"/>
    <path clip-path="url(#pc05c7ed0ef)" d="M 244.670417 180.154631 
L 245.236472 124.586143 
L 258.678879 128.343135 
L 257.743589 184.115686 
z
" style="fill:#613024;"/>
    <path clip-path="url(#pc05c7ed0ef)" d="M 263.816264 195.163579 
L 263.877027 192.114572 
L 271.032794 185.090244 
L 270.961723 188.120663 
z
" style="fill:#1c057e;"/>
    <path clip-path="url(#pc05c7ed0ef)" d="M 162.346885 191.878042 
L 161.654662 169.721275 
L 169.834586 162.877997 
L 170.430723 184.897786 
z
" style="fill:#710394;"/>
    <path clip-path="url(#pc05c7ed0ef)" d="M 170.430723 184.897786 
L 183.178635 188.911464 
L 182.546269 158.380739 
L 169.607143 154.476836 
z
" style="fill:#8f1988;"/>
    <path clip-path="url(#pc05c7ed0ef)" d="M 229.891821 194.06512 
L 237.351973 187.043183 
L 250.510457 191.080779 
L 243.136481 198.181496 
z
" style="fill:#876118;"/>
    <path clip-path="url(#pc05c7ed0ef)" d="M 211.467294 179.100638 
L 211.047986 114.043001 
L 224.338378 117.751889 
L 224.338378 183.050047 
z
" style="fill:#683f1a;"/>
    <path clip-path="url(#pc05c7ed0ef)" d="M 245.074416 140.494828 
L 258.411086 144.311991 
L 265.641362 137.727429 
L 252.392589 133.983356 
z
" style="fill:#952e63;"/>
    <path clip-path="url(#pc05c7ed0ef)" d="M 141.344465 194.868925 
L 149.662704 187.831639 
L 162.346885 191.878042 
L 154.105465 198.994368 
z
" style="fill:#0c044a;"/>
    <path clip-path="url(#pc05c7ed0ef)" d="M 250.510457 191.080779 
L 250.934543 158.915788 
L 258.279627 152.151034 
L 257.743589 184.115686 
z
" style="fill:#951e85;"/>
    <path clip-path="url(#pc05c7ed0ef)" d="M 263.816264 195.163579 
L 270.961723 188.120663 
L 284.327244 192.170297 
L 277.271882 199.292348 
z
" style="fill:#11034c;"/>
    <path clip-path="url(#pc05c7ed0ef)" d="M 237.351973 187.043183 
L 237.71785 131.120557 
L 245.236472 124.586143 
L 244.670417 180.154631 
z
" style="fill:#ce654d;"/>
    <path clip-path="url(#pc05c7ed0ef)" d="M 237.351973 187.043183 
L 244.670417 180.154631 
L 245.238201 124.416384 
L 237.718968 130.94967 
z
" style="fill:#613024;"/>
    <path clip-path="url(#pc05c7ed0ef)" d="M 141.276862 193.255089 
L 154.047934 197.374822 
L 162.296595 190.26837 
L 149.602461 186.22763 
z
" style="fill:#11056a;"/>
    <path clip-path="url(#pc05c7ed0ef)" d="M 203.841786 185.968896 
L 203.167454 120.493835 
L 211.047986 114.043001 
L 211.467294 179.100638 
z
" style="fill:#dc8538;"/>
    <path clip-path="url(#pc05c7ed0ef)" d="M 169.607143 154.476836 
L 182.546269 158.380739 
L 190.524813 151.646606 
L 177.665791 147.817606 
z
" style="fill:#7c1676;"/>
    <path clip-path="url(#pc05c7ed0ef)" d="M 175.173234 195.969799 
L 183.178635 188.911464 
L 196.068846 192.969946 
L 188.144156 200.107676 
z
" style="fill:#876317;"/>
    <path clip-path="url(#pc05c7ed0ef)" d="M 197.985498 116.508436 
L 211.087664 120.199242 
L 218.792118 113.832703 
L 205.773164 110.212729 
z
" style="fill:#b8613c;"/>
    <path clip-path="url(#pc05c7ed0ef)" d="M 263.877027 192.114572 
L 277.353815 196.232541 
L 284.4192 189.129164 
L 271.032794 185.090244 
z
" style="fill:#18046d;"/>
    <path clip-path="url(#pc05c7ed0ef)" d="M 203.841786 185.968896 
L 211.467294 179.100638 
L 211.029721 111.209085 
L 203.138071 117.640807 
z
" style="fill:#694418;"/>
    <path clip-path="url(#pc05c7ed0ef)" d="M 224.338378 183.050047 
L 237.351973 187.043183 
L 237.718968 130.94967 
L 224.338378 127.162047 
z
" style="fill:#ce654d;"/>
    <path clip-path="url(#pc05c7ed0ef)" d="M 209.103753 197.073984 
L 216.794403 189.994506 
L 229.891821 194.06512 
L 222.285805 201.224351 
z
" style="fill:#876716;"/>
    <path clip-path="url(#pc05c7ed0ef)" d="M 154.105465 198.994368 
L 162.346885 191.878042 
L 162.296595 190.26837 
L 154.047934 197.374822 
z
" style="fill:#09033a;"/>
    <path clip-path="url(#pc05c7ed0ef)" d="M 211.132914 127.220031 
L 224.338378 130.979527 
L 231.931331 124.494557 
L 218.810876 120.807368 
z
" style="fill:#ad4e4a;"/>
    <path clip-path="url(#pc05c7ed0ef)" d="M 277.271882 199.292348 
L 284.327244 192.170297 
L 284.4192 189.129164 
L 277.353815 196.232541 
z
" style="fill:#0d023b;"/>
    <path clip-path="url(#pc05c7ed0ef)" d="M 191.031582 181.987547 
L 203.841786 185.968896 
L 203.138071 117.640807 
L 189.894552 113.911996 
z
" style="fill:#de8f32;"/>
    <path clip-path="url(#pc05c7ed0ef)" d="M 175.173234 195.969799 
L 183.178635 188.911464 
L 182.720916 166.812733 
L 174.621124 173.733416 
z
" style="fill:#350146;"/>
    <path clip-path="url(#pc05c7ed0ef)" d="M 162.346885 191.878042 
L 161.881932 176.995777 
L 174.8024 181.034364 
L 175.173234 195.969799 
z
" style="fill:#270045;"/>
    <path clip-path="url(#pc05c7ed0ef)" d="M 243.136481 198.181496 
L 250.510457 191.080779 
L 263.816264 195.163579 
L 256.530882 202.34441 
z
" style="fill:#712c3c;"/>
    <path clip-path="url(#pc05c7ed0ef)" d="M 141.344465 194.868925 
L 154.105465 198.994368 
L 154.047934 197.374822 
L 141.276862 193.255089 
z
" style="fill:#13067a;"/>
    <path clip-path="url(#pc05c7ed0ef)" d="M 191.031582 181.987547 
L 189.807596 108.705875 
L 203.084243 112.414311 
L 203.841786 185.968896 
z
" style="fill:#6a4d13;"/>
    <path clip-path="url(#pc05c7ed0ef)" d="M 224.338378 183.050047 
L 224.338378 114.651425 
L 237.801136 118.390658 
L 237.351973 187.043183 
z
" style="fill:#694417;"/>
    <path clip-path="url(#pc05c7ed0ef)" d="M 154.105465 198.994368 
L 162.346885 191.878042 
L 175.173234 195.969799 
L 167.010898 203.166503 
z
" style="fill:#320058;"/>
    <path clip-path="url(#pc05c7ed0ef)" d="M 263.816264 195.163579 
L 270.961723 188.120663 
L 271.714082 156.040559 
L 264.459594 162.882127 
z
" style="fill:#460e3f;"/>
    <path clip-path="url(#pc05c7ed0ef)" d="M 263.816264 195.163579 
L 277.271882 199.292348 
L 277.353815 196.232541 
L 263.877027 192.114572 
z
" style="fill:#1c057e;"/>
    <path clip-path="url(#pc05c7ed0ef)" d="M 250.510457 191.080779 
L 257.743589 184.115686 
L 258.678879 128.343135 
L 251.250497 134.952203 
z
" style="fill:#613024;"/>
    <path clip-path="url(#pc05c7ed0ef)" d="M 162.346885 191.878042 
L 175.173234 195.969799 
L 174.621124 173.733416 
L 161.654662 169.721275 
z
" style="fill:#710394;"/>
    <path clip-path="url(#pc05c7ed0ef)" d="M 263.816264 195.163579 
L 263.904482 190.736918 
L 277.390835 194.849989 
L 277.271882 199.292348 
z
" style="fill:#11023d;"/>
    <path clip-path="url(#pc05c7ed0ef)" d="M 154.105465 198.994368 
L 153.573527 184.019849 
L 161.881932 176.995777 
L 162.346885 191.878042 
z
" style="fill:#530193;"/>
    <path clip-path="url(#pc05c7ed0ef)" d="M 216.794403 189.994506 
L 224.338378 183.050047 
L 224.338378 117.751889 
L 216.544783 124.276657 
z
" style="fill:#683f1a;"/>
    <path clip-path="url(#pc05c7ed0ef)" d="M 161.654662 169.721275 
L 174.621124 173.733416 
L 182.720916 166.812733 
L 169.834586 162.877997 
z
" style="fill:#620380;"/>
    <path clip-path="url(#pc05c7ed0ef)" d="M 188.144156 200.107676 
L 196.068846 192.969946 
L 209.103753 197.073984 
L 201.262108 204.292457 
z
" style="fill:#876815;"/>
    <path clip-path="url(#pc05c7ed0ef)" d="M 183.178635 188.911464 
L 181.650981 115.156141 
L 189.807596 108.705875 
L 191.031582 181.987547 
z
" style="fill:#e0a327;"/>
    <path clip-path="url(#pc05c7ed0ef)" d="M 216.794403 189.994506 
L 216.532927 121.155233 
L 224.338378 114.651425 
L 224.338378 183.050047 
z
" style="fill:#de9031;"/>
    <path clip-path="url(#pc05c7ed0ef)" d="M 250.510457 191.080779 
L 263.816264 195.163579 
L 264.459594 162.882127 
L 250.934543 158.915788 
z
" style="fill:#951e85;"/>
    <path clip-path="url(#pc05c7ed0ef)" d="M 237.351973 187.043183 
L 250.510457 191.080779 
L 251.250497 134.952203 
L 237.71785 131.120557 
z
" style="fill:#ce654d;"/>
    <path clip-path="url(#pc05c7ed0ef)" d="M 256.530882 202.34441 
L 256.603526 197.890513 
L 263.904482 190.736918 
L 263.816264 195.163579 
z
" style="fill:#230581;"/>
    <path clip-path="url(#pc05c7ed0ef)" d="M 222.285805 201.224351 
L 229.891821 194.06512 
L 243.136481 198.181496 
L 235.617509 205.421836 
z
" style="fill:#857513;"/>
    <path clip-path="url(#pc05c7ed0ef)" d="M 203.841786 185.968896 
L 216.794403 189.994506 
L 216.544783 124.276657 
L 203.167454 120.493835 
z
" style="fill:#dc8538;"/>
    <path clip-path="url(#pc05c7ed0ef)" d="M 256.530882 202.34441 
L 263.816264 195.163579 
L 277.271882 199.292348 
L 270.077576 206.554656 
z
" style="fill:#15034e;"/>
    <path clip-path="url(#pc05c7ed0ef)" d="M 203.841786 185.968896 
L 203.097736 113.724405 
L 216.51897 117.480754 
L 216.794403 189.994506 
z
" style="fill:#6a4a14;"/>
    <path clip-path="url(#pc05c7ed0ef)" d="M 250.934543 158.915788 
L 264.459594 162.882127 
L 271.714082 156.040559 
L 258.279627 152.151034 
z
" style="fill:#811a73;"/>
    <path clip-path="url(#pc05c7ed0ef)" d="M 167.010898 203.166503 
L 175.173234 195.969799 
L 188.144156 200.107676 
L 180.063228 207.386128 
z
" style="fill:#844d24;"/>
    <path clip-path="url(#pc05c7ed0ef)" d="M 250.510457 191.080779 
L 251.125845 144.406457 
L 264.749833 148.318344 
L 263.816264 195.163579 
z
" style="fill:#58222f;"/>
    <path clip-path="url(#pc05c7ed0ef)" d="M 224.338378 127.162047 
L 237.718968 130.94967 
L 245.238201 124.416384 
L 231.945367 120.702151 
z
" style="fill:#b35843;"/>
    <path clip-path="url(#pc05c7ed0ef)" d="M 167.010898 203.166503 
L 175.173234 195.969799 
L 174.8024 181.034364 
L 166.574228 188.138376 
z
" style="fill:#270045;"/>
    <path clip-path="url(#pc05c7ed0ef)" d="M 237.351973 187.043183 
L 237.829854 114.001232 
L 251.477088 117.766318 
L 250.510457 191.080779 
z
" style="fill:#6a4c13;"/>
    <path clip-path="url(#pc05c7ed0ef)" d="M 256.603526 197.890513 
L 270.181376 202.084936 
L 277.390835 194.849989 
L 263.904482 190.736918 
z
" style="fill:#1f0470;"/>
    <path clip-path="url(#pc05c7ed0ef)" d="M 196.068846 192.969946 
L 195.032344 120.258149 
L 203.097736 113.724405 
L 203.841786 185.968896 
z
" style="fill:#e09d2a;"/>
    <path clip-path="url(#pc05c7ed0ef)" d="M 201.262108 204.292457 
L 209.103753 197.073984 
L 222.285805 201.224351 
L 214.529606 208.524945 
z
" style="fill:#847814;"/>
    <path clip-path="url(#pc05c7ed0ef)" d="M 196.068846 192.969946 
L 203.841786 185.968896 
L 203.084243 112.414311 
L 195.013541 118.93911 
z
" style="fill:#6a4d13;"/>
    <path clip-path="url(#pc05c7ed0ef)" d="M 153.573527 184.019849 
L 166.574228 188.138376 
L 174.8024 181.034364 
L 161.881932 176.995777 
z
" style="fill:#48017f;"/>
    <path clip-path="url(#pc05c7ed0ef)" d="M 229.891821 194.06512 
L 237.351973 187.043183 
L 237.801136 118.390658 
L 230.085418 124.969551 
z
" style="fill:#694417;"/>
    <path clip-path="url(#pc05c7ed0ef)" d="M 243.136481 198.181496 
L 243.58289 151.210587 
L 251.125845 144.406457 
L 250.510457 191.080779 
z
" style="fill:#bb4863;"/>
    <path clip-path="url(#pc05c7ed0ef)" d="M 270.077576 206.554656 
L 277.271882 199.292348 
L 277.390835 194.849989 
L 270.181376 202.084936 
z
" style="fill:#11023d;"/>
    <path clip-path="url(#pc05c7ed0ef)" d="M 154.105465 198.994368 
L 167.010898 203.166503 
L 166.574228 188.138376 
L 153.573527 184.019849 
z
" style="fill:#530193;"/>
    <path clip-path="url(#pc05c7ed0ef)" d="M 235.617509 205.421836 
L 243.136481 198.181496 
L 256.530882 202.34441 
L 249.101427 209.667246 
z
" style="fill:#824827;"/>
    <path clip-path="url(#pc05c7ed0ef)" d="M 229.891821 194.06512 
L 230.0978 120.550227 
L 237.829854 114.001232 
L 237.351973 187.043183 
z
" style="fill:#e0a029;"/>
    <path clip-path="url(#pc05c7ed0ef)" d="M 183.178635 188.911464 
L 196.068846 192.969946 
L 195.013541 118.93911 
L 181.650981 115.156141 
z
" style="fill:#e0a327;"/>
    <path clip-path="url(#pc05c7ed0ef)" d="M 183.178635 188.911464 
L 181.643675 114.803414 
L 195.008493 118.584991 
L 196.068846 192.969946 
z
" style="fill:#6a4d12;"/>
    <path clip-path="url(#pc05c7ed0ef)" d="M 216.794403 189.994506 
L 229.891821 194.06512 
L 230.085418 124.969551 
L 216.532927 121.155233 
z
" style="fill:#de9031;"/>
    <path clip-path="url(#pc05c7ed0ef)" d="M 189.894552 113.911996 
L 203.138071 117.640807 
L 211.029721 111.209085 
L 197.87091 107.552842 
z
" style="fill:#c17c2b;"/>
    <path clip-path="url(#pc05c7ed0ef)" d="M 256.530882 202.34441 
L 270.077576 206.554656 
L 270.181376 202.084936 
L 256.603526 197.890513 
z
" style="fill:#230581;"/>
    <path clip-path="url(#pc05c7ed0ef)" d="M 180.063228 207.386128 
L 188.144156 200.107676 
L 201.262108 204.292457 
L 193.264978 211.654059 
z
" style="fill:#86571e;"/>
    <path clip-path="url(#pc05c7ed0ef)" d="M 237.71785 131.120557 
L 251.250497 134.952203 
L 258.678879 128.343135 
L 245.236472 124.586143 
z
" style="fill:#b35843;"/>
    <path clip-path="url(#pc05c7ed0ef)" d="M 216.794403 189.994506 
L 216.506259 114.134225 
L 230.105167 117.920898 
L 229.891821 194.06512 
z
" style="fill:#6a5111;"/>
    <path clip-path="url(#pc05c7ed0ef)" d="M 175.173234 195.969799 
L 173.321264 121.381182 
L 181.643675 114.803414 
L 183.178635 188.911464 
z
" style="fill:#e0a427;"/>
    <path clip-path="url(#pc05c7ed0ef)" d="M 256.530882 202.34441 
L 256.703157 191.781957 
L 270.323744 195.954492 
L 270.077576 206.554656 
z
" style="fill:#1f0143;"/>
    <path clip-path="url(#pc05c7ed0ef)" d="M 209.103753 197.073984 
L 216.794403 189.994506 
L 216.51897 117.480754 
L 208.541925 124.090385 
z
" style="fill:#6a4a14;"/>
    <path clip-path="url(#pc05c7ed0ef)" d="M 214.529606 208.524945 
L 222.285805 201.224351 
L 235.617509 205.421836 
L 227.94922 212.80596 
z
" style="fill:#808512;"/>
    <path clip-path="url(#pc05c7ed0ef)" d="M 256.530882 202.34441 
L 263.816264 195.163579 
L 264.749833 148.318344 
L 257.299799 155.201072 
z
" style="fill:#58222f;"/>
    <path clip-path="url(#pc05c7ed0ef)" d="M 209.103753 197.073984 
L 208.515987 120.720922 
L 216.506259 114.134225 
L 216.794403 189.994506 
z
" style="fill:#e0ab24;"/>
    <path clip-path="url(#pc05c7ed0ef)" d="M 249.101427 209.667246 
L 249.235262 199.039366 
L 256.703157 191.781957 
L 256.530882 202.34441 
z
" style="fill:#41028d;"/>
    <path clip-path="url(#pc05c7ed0ef)" d="M 249.101427 209.667246 
L 256.530882 202.34441 
L 270.077576 206.554656 
L 262.740181 213.961405 
z
" style="fill:#270155;"/>
    <path clip-path="url(#pc05c7ed0ef)" d="M 243.136481 198.181496 
L 250.510457 191.080779 
L 251.477088 117.766318 
L 243.837776 124.391523 
z
" style="fill:#6a4c13;"/>
    <path clip-path="url(#pc05c7ed0ef)" d="M 203.167454 120.493835 
L 216.544783 124.276657 
L 224.338378 117.751889 
L 211.047986 114.043001 
z
" style="fill:#bf7431;"/>
    <path clip-path="url(#pc05c7ed0ef)" d="M 196.068846 192.969946 
L 209.103753 197.073984 
L 208.541925 124.090385 
L 195.032344 120.258149 
z
" style="fill:#e09d2a;"/>
    <path clip-path="url(#pc05c7ed0ef)" d="M 243.136481 198.181496 
L 256.530882 202.34441 
L 257.299799 155.201072 
L 243.58289 151.210587 
z
" style="fill:#bb4863;"/>
    <path clip-path="url(#pc05c7ed0ef)" d="M 196.068846 192.969946 
L 194.977161 116.386971 
L 208.512007 120.203894 
L 209.103753 197.073984 
z
" style="fill:#6a5111;"/>
    <path clip-path="url(#pc05c7ed0ef)" d="M 229.891821 194.06512 
L 243.136481 198.181496 
L 243.837776 124.391523 
L 230.0978 120.550227 
z
" style="fill:#e0a029;"/>
    <path clip-path="url(#pc05c7ed0ef)" d="M 193.264978 211.654059 
L 201.262108 204.292457 
L 214.529606 208.524945 
L 206.61873 215.971129 
z
" style="fill:#876616;"/>
    <path clip-path="url(#pc05c7ed0ef)" d="M 175.173234 195.969799 
L 173.563291 131.128878 
L 186.952054 135.025577 
L 188.144156 200.107676 
z
" style="fill:#673d1c;"/>
    <path clip-path="url(#pc05c7ed0ef)" d="M 188.144156 200.107676 
L 196.068846 192.969946 
L 195.008493 118.584991 
L 186.772804 125.239546 
z
" style="fill:#6a4d12;"/>
    <path clip-path="url(#pc05c7ed0ef)" d="M 188.144156 200.107676 
L 186.732267 123.026414 
L 194.977161 116.386971 
L 196.068846 192.969946 
z
" style="fill:#e0ac23;"/>
    <path clip-path="url(#pc05c7ed0ef)" d="M 227.94922 212.80596 
L 235.617509 205.421836 
L 249.101427 209.667246 
L 241.523583 217.136342 
z
" style="fill:#876517;"/>
    <path clip-path="url(#pc05c7ed0ef)" d="M 229.891821 194.06512 
L 230.121601 112.055837 
L 243.918827 115.863366 
L 243.136481 198.181496 
z
" style="fill:#685c0f;"/>
    <path clip-path="url(#pc05c7ed0ef)" d="M 167.010898 203.166503 
L 165.114665 137.907044 
L 173.563291 131.128878 
L 175.173234 195.969799 
z
" style="fill:#da803b;"/>
    <path clip-path="url(#pc05c7ed0ef)" d="M 222.285805 201.224351 
L 229.891821 194.06512 
L 230.105167 117.920898 
L 222.206151 124.58467 
z
" style="fill:#6a5111;"/>
    <path clip-path="url(#pc05c7ed0ef)" d="M 243.136481 198.181496 
L 243.725816 136.171915 
L 257.546027 140.104518 
L 256.530882 202.34441 
z
" style="fill:#65381f;"/>
    <path clip-path="url(#pc05c7ed0ef)" d="M 175.173234 195.969799 
L 188.144156 200.107676 
L 186.772804 125.239546 
L 173.321264 121.381182 
z
" style="fill:#e0a427;"/>
    <path clip-path="url(#pc05c7ed0ef)" d="M 249.235262 199.039366 
L 262.948926 203.295516 
L 270.323744 195.954492 
L 256.703157 191.781957 
z
" style="fill:#38027b;"/>
    <path clip-path="url(#pc05c7ed0ef)" d="M 262.740181 213.961405 
L 270.077576 206.554656 
L 270.323744 195.954492 
L 262.948926 203.295516 
z
" style="fill:#1f0143;"/>
    <path clip-path="url(#pc05c7ed0ef)" d="M 222.285805 201.224351 
L 222.200013 118.679058 
L 230.121601 112.055837 
L 229.891821 194.06512 
z
" style="fill:#dcc220;"/>
    <path clip-path="url(#pc05c7ed0ef)" d="M 209.103753 197.073984 
L 222.285805 201.224351 
L 222.206151 124.58467 
L 208.515987 120.720922 
z
" style="fill:#e0ab24;"/>
    <path clip-path="url(#pc05c7ed0ef)" d="M 235.617509 205.421836 
L 235.974705 143.012583 
L 243.725816 136.171915 
L 243.136481 198.181496 
z
" style="fill:#d77741;"/>
    <path clip-path="url(#pc05c7ed0ef)" d="M 216.532927 121.155233 
L 230.085418 124.969551 
L 237.801136 118.390658 
L 224.338378 114.651425 
z
" style="fill:#c17d2b;"/>
    <path clip-path="url(#pc05c7ed0ef)" d="M 249.101427 209.667246 
L 262.740181 213.961405 
L 262.948926 203.295516 
L 249.235262 199.039366 
z
" style="fill:#41028d;"/>
    <path clip-path="url(#pc05c7ed0ef)" d="M 243.58289 151.210587 
L 257.299799 155.201072 
L 264.749833 148.318344 
L 251.125845 144.406457 
z
" style="fill:#a23f56;"/>
    <path clip-path="url(#pc05c7ed0ef)" d="M 181.650981 115.156141 
L 195.013541 118.93911 
L 203.084243 112.414311 
L 189.807596 108.705875 
z
" style="fill:#c28d22;"/>
    <path clip-path="url(#pc05c7ed0ef)" d="M 206.61873 215.971129 
L 214.529606 208.524945 
L 227.94922 212.80596 
L 220.127123 220.338193 
z
" style="fill:#876915;"/>
    <path clip-path="url(#pc05c7ed0ef)" d="M 209.103753 197.073984 
L 208.462915 113.826635 
L 222.198957 117.66286 
L 222.285805 201.224351 
z
" style="fill:#675e0f;"/>
    <path clip-path="url(#pc05c7ed0ef)" d="M 201.262108 204.292457 
L 209.103753 197.073984 
L 208.512007 120.203894 
L 200.356631 126.921384 
z
" style="fill:#6a5111;"/>
    <path clip-path="url(#pc05c7ed0ef)" d="M 188.144156 200.107676 
L 186.870922 130.596243 
L 200.445572 134.521189 
L 201.262108 204.292457 
z
" style="fill:#694417;"/>
    <path clip-path="url(#pc05c7ed0ef)" d="M 249.101427 209.667246 
L 249.329264 191.574574 
L 263.095552 195.803632 
L 262.740181 213.961405 
z
" style="fill:#2d0046;"/>
    <path clip-path="url(#pc05c7ed0ef)" d="M 241.523583 217.136342 
L 249.101427 209.667246 
L 262.740181 213.961405 
L 255.255385 221.516949 
z
" style="fill:#3a005a;"/>
    <path clip-path="url(#pc05c7ed0ef)" d="M 180.063228 207.386128 
L 188.144156 200.107676 
L 186.952054 135.025577 
L 178.590117 141.883294 
z
" style="fill:#673d1c;"/>
    <path clip-path="url(#pc05c7ed0ef)" d="M 201.262108 204.292457 
L 200.28148 120.499911 
L 208.462915 113.826635 
L 209.103753 197.073984 
z
" style="fill:#dbc721;"/>
    <path clip-path="url(#pc05c7ed0ef)" d="M 188.144156 200.107676 
L 201.262108 204.292457 
L 200.356631 126.921384 
L 186.732267 123.026414 
z
" style="fill:#e0ac23;"/>
    <path clip-path="url(#pc05c7ed0ef)" d="M 180.063228 207.386128 
L 178.489826 137.423779 
L 186.870922 130.596243 
L 188.144156 200.107676 
z
" style="fill:#de9031;"/>
    <path clip-path="url(#pc05c7ed0ef)" d="M 241.523583 217.136342 
L 241.683292 198.930721 
L 249.329264 191.574574 
L 249.101427 209.667246 
z
" style="fill:#5f0094;"/>
    <path clip-path="url(#pc05c7ed0ef)" d="M 235.617509 205.421836 
L 243.136481 198.181496 
L 243.918827 115.863366 
L 236.091737 122.564771 
z
" style="fill:#685c0f;"/>
    <path clip-path="url(#pc05c7ed0ef)" d="M 167.010898 203.166503 
L 180.063228 207.386128 
L 178.590117 141.883294 
L 165.114665 137.907044 
z
" style="fill:#da803b;"/>
    <path clip-path="url(#pc05c7ed0ef)" d="M 249.101427 209.667246 
L 256.530882 202.34441 
L 257.546027 140.104518 
L 249.890261 147.025604 
z
" style="fill:#65381f;"/>
    <path clip-path="url(#pc05c7ed0ef)" d="M 195.032344 120.258149 
L 208.541925 124.090385 
L 216.51897 117.480754 
L 203.097736 113.724405 
z
" style="fill:#c28924;"/>
    <path clip-path="url(#pc05c7ed0ef)" d="M 220.127123 220.338193 
L 227.94922 212.80596 
L 241.523583 217.136342 
L 233.792858 224.756123 
z
" style="fill:#86581d;"/>
    <path clip-path="url(#pc05c7ed0ef)" d="M 222.285805 201.224351 
L 235.617509 205.421836 
L 236.091737 122.564771 
L 222.200013 118.679058 
z
" style="fill:#dcc220;"/>
    <path clip-path="url(#pc05c7ed0ef)" d="M 235.617509 205.421836 
L 249.101427 209.667246 
L 249.890261 147.025604 
L 235.974705 143.012583 
z
" style="fill:#d77741;"/>
    <path clip-path="url(#pc05c7ed0ef)" d="M 230.0978 120.550227 
L 243.837776 124.391523 
L 251.477088 117.766318 
L 237.829854 114.001232 
z
" style="fill:#c28b23;"/>
    <path clip-path="url(#pc05c7ed0ef)" d="M 222.285805 201.224351 
L 222.193545 112.455764 
L 236.127499 116.316377 
L 235.617509 205.421836 
z
" style="fill:#64680e;"/>
    <path clip-path="url(#pc05c7ed0ef)" d="M 214.529606 208.524945 
L 222.285805 201.224351 
L 222.198957 117.66286 
L 214.110304 124.415293 
z
" style="fill:#675e0f;"/>
    <path clip-path="url(#pc05c7ed0ef)" d="M 201.262108 204.292457 
L 200.36661 127.774041 
L 214.146712 131.718567 
L 214.529606 208.524945 
z
" style="fill:#6a5011;"/>
    <path clip-path="url(#pc05c7ed0ef)" d="M 193.264978 211.654059 
L 201.262108 204.292457 
L 200.445572 134.521189 
L 192.154179 141.429505 
z
" style="fill:#694417;"/>
    <path clip-path="url(#pc05c7ed0ef)" d="M 255.255385 221.516949 
L 262.740181 213.961405 
L 263.095552 195.803632 
L 255.544393 203.245713 
z
" style="fill:#2d0046;"/>
    <path clip-path="url(#pc05c7ed0ef)" d="M 214.529606 208.524945 
L 214.084164 119.171711 
L 222.193545 112.455764 
L 222.285805 201.224351 
z
" style="fill:#d4dc1e;"/>
    <path clip-path="url(#pc05c7ed0ef)" d="M 235.617509 205.421836 
L 236.051969 129.51301 
L 250.06093 133.472784 
L 249.101427 209.667246 
z
" style="fill:#6a4f12;"/>
    <path clip-path="url(#pc05c7ed0ef)" d="M 173.321264 121.381182 
L 186.772804 125.239546 
L 195.008493 118.584991 
L 181.643675 114.803414 
z
" style="fill:#c28e22;"/>
    <path clip-path="url(#pc05c7ed0ef)" d="M 201.262108 204.292457 
L 214.529606 208.524945 
L 214.110304 124.415293 
L 200.28148 120.499911 
z
" style="fill:#dbc721;"/>
    <path clip-path="url(#pc05c7ed0ef)" d="M 193.264978 211.654059 
L 192.04672 134.63591 
L 200.36661 127.774041 
L 201.262108 204.292457 
z
" style="fill:#e0aa24;"/>
    <path clip-path="url(#pc05c7ed0ef)" d="M 241.683292 198.930721 
L 255.544393 203.245713 
L 263.095552 195.803632 
L 249.329264 191.574574 
z
" style="fill:#530081;"/>
    <path clip-path="url(#pc05c7ed0ef)" d="M 180.063228 207.386128 
L 193.264978 211.654059 
L 192.154179 141.429505 
L 178.489826 137.423779 
z
" style="fill:#de9031;"/>
    <path clip-path="url(#pc05c7ed0ef)" d="M 241.523583 217.136342 
L 255.255385 221.516949 
L 255.544393 203.245713 
L 241.683292 198.930721 
z
" style="fill:#5f0094;"/>
    <path clip-path="url(#pc05c7ed0ef)" d="M 233.792858 224.756123 
L 241.523583 217.136342 
L 255.255385 221.516949 
L 247.618703 229.225814 
z
" style="fill:#480459;"/>
    <path clip-path="url(#pc05c7ed0ef)" d="M 227.94922 212.80596 
L 228.089741 136.401442 
L 236.051969 129.51301 
L 235.617509 205.421836 
z
" style="fill:#e0a725;"/>
    <path clip-path="url(#pc05c7ed0ef)" d="M 208.515987 120.720922 
L 222.206151 124.58467 
L 230.105167 117.920898 
L 216.506259 114.134225 
z
" style="fill:#c2941f;"/>
    <path clip-path="url(#pc05c7ed0ef)" d="M 241.523583 217.136342 
L 241.736439 192.872435 
L 255.640573 197.165154 
L 255.255385 221.516949 
z
" style="fill:#380345;"/>
    <path clip-path="url(#pc05c7ed0ef)" d="M 214.529606 208.524945 
L 214.140047 130.381544 
L 228.093481 134.367725 
L 227.94922 212.80596 
z
" style="fill:#6a5210;"/>
    <path clip-path="url(#pc05c7ed0ef)" d="M 233.792858 224.756123 
L 233.911158 200.339739 
L 241.736439 192.872435 
L 241.523583 217.136342 
z
" style="fill:#770693;"/>
    <path clip-path="url(#pc05c7ed0ef)" d="M 165.114665 137.907044 
L 178.590117 141.883294 
L 186.952054 135.025577 
L 173.563291 131.128878 
z
" style="fill:#bd6f33;"/>
    <path clip-path="url(#pc05c7ed0ef)" d="M 227.94922 212.80596 
L 235.617509 205.421836 
L 236.127499 116.316377 
L 228.114181 123.112669 
z
" style="fill:#64680e;"/>
    <path clip-path="url(#pc05c7ed0ef)" d="M 206.61873 215.971129 
L 214.529606 208.524945 
L 214.146712 131.718567 
L 205.919859 138.662379 
z
" style="fill:#6a5011;"/>
    <path clip-path="url(#pc05c7ed0ef)" d="M 206.61873 215.971129 
L 205.907688 137.316077 
L 214.140047 130.381544 
L 214.529606 208.524945 
z
" style="fill:#e0ae23;"/>
    <path clip-path="url(#pc05c7ed0ef)" d="M 186.732267 123.026414 
L 200.356631 126.921384 
L 208.512007 120.203894 
L 194.977161 116.386971 
z
" style="fill:#c2961f;"/>
    <path clip-path="url(#pc05c7ed0ef)" d="M 235.974705 143.012583 
L 249.890261 147.025604 
L 257.546027 140.104518 
L 243.725816 136.171915 
z
" style="fill:#ba6738;"/>
    <path clip-path="url(#pc05c7ed0ef)" d="M 214.529606 208.524945 
L 227.94922 212.80596 
L 228.114181 123.112669 
L 214.084164 119.171711 
z
" style="fill:#d4dc1e;"/>
    <path clip-path="url(#pc05c7ed0ef)" d="M 241.523583 217.136342 
L 249.101427 209.667246 
L 250.06093 133.472784 
L 242.196374 140.443581 
z
" style="fill:#6a4f12;"/>
    <path clip-path="url(#pc05c7ed0ef)" d="M 227.94922 212.80596 
L 228.079234 142.114088 
L 242.14606 146.178968 
L 241.523583 217.136342 
z
" style="fill:#694517;"/>
    <path clip-path="url(#pc05c7ed0ef)" d="M 193.264978 211.654059 
L 206.61873 215.971129 
L 205.919859 138.662379 
L 192.04672 134.63591 
z
" style="fill:#e0aa24;"/>
    <path clip-path="url(#pc05c7ed0ef)" d="M 227.94922 212.80596 
L 241.523583 217.136342 
L 242.196374 140.443581 
L 228.089741 136.401442 
z
" style="fill:#e0a725;"/>
    <path clip-path="url(#pc05c7ed0ef)" d="M 247.618703 229.225814 
L 255.255385 221.516949 
L 255.640573 197.165154 
L 247.911726 204.720857 
z
" style="fill:#380345;"/>
    <path clip-path="url(#pc05c7ed0ef)" d="M 220.127123 220.338193 
L 219.973914 149.185596 
L 228.079234 142.114088 
L 227.94922 212.80596 
z
" style="fill:#de9230;"/>
    <path clip-path="url(#pc05c7ed0ef)" d="M 222.200013 118.679058 
L 236.091737 122.564771 
L 243.918827 115.863366 
L 230.121601 112.055837 
z
" style="fill:#bfa81c;"/>
    <path clip-path="url(#pc05c7ed0ef)" d="M 220.127123 220.338193 
L 227.94922 212.80596 
L 228.093481 134.367725 
L 219.957118 141.385623 
z
" style="fill:#6a5210;"/>
    <path clip-path="url(#pc05c7ed0ef)" d="M 233.792858 224.756123 
L 247.618703 229.225814 
L 247.911726 204.720857 
L 233.911158 200.339739 
z
" style="fill:#770693;"/>
    <path clip-path="url(#pc05c7ed0ef)" d="M 178.489826 137.423779 
L 192.154179 141.429505 
L 200.445572 134.521189 
L 186.870922 130.596243 
z
" style="fill:#c17d2b;"/>
    <path clip-path="url(#pc05c7ed0ef)" d="M 233.911158 200.339739 
L 247.911726 204.720857 
L 255.640573 197.165154 
L 241.736439 192.872435 
z
" style="fill:#67057f;"/>
    <path clip-path="url(#pc05c7ed0ef)" d="M 206.61873 215.971129 
L 220.127123 220.338193 
L 219.957118 141.385623 
L 205.907688 137.316077 
z
" style="fill:#e0ae23;"/>
    <path clip-path="url(#pc05c7ed0ef)" d="M 200.28148 120.499911 
L 214.110304 124.415293 
L 222.198957 117.66286 
L 208.462915 113.826635 
z
" style="fill:#beac1c;"/>
    <path clip-path="url(#pc05c7ed0ef)" d="M 233.792858 224.756123 
L 241.523583 217.136342 
L 242.14606 146.178968 
L 234.138897 153.335672 
z
" style="fill:#694517;"/>
    <path clip-path="url(#pc05c7ed0ef)" d="M 220.127123 220.338193 
L 233.792858 224.756123 
L 234.138897 153.335672 
L 219.973914 149.185596 
z
" style="fill:#de9230;"/>
    <path clip-path="url(#pc05c7ed0ef)" d="M 192.04672 134.63591 
L 205.919859 138.662379 
L 214.146712 131.718567 
L 200.36661 127.774041 
z
" style="fill:#c29320;"/>
    <path clip-path="url(#pc05c7ed0ef)" d="M 228.089741 136.401442 
L 242.196374 140.443581 
L 250.06093 133.472784 
L 236.051969 129.51301 
z
" style="fill:#c29121;"/>
    <path clip-path="url(#pc05c7ed0ef)" d="M 214.084164 119.171711 
L 228.114181 123.112669 
L 236.127499 116.316377 
L 222.193545 112.455764 
z
" style="fill:#b8bf1a;"/>
    <path clip-path="url(#pc05c7ed0ef)" d="M 205.907688 137.316077 
L 219.957118 141.385623 
L 228.093481 134.367725 
L 214.140047 130.381544 
z
" style="fill:#c2971e;"/>
    <path clip-path="url(#pc05c7ed0ef)" d="M 219.973914 149.185596 
L 234.138897 153.335672 
L 242.14606 146.178968 
L 228.079234 142.114088 
z
" style="fill:#c17e2a;"/>
   </g>
   <g id="text_16">
    <!-- W20__H50__A340_bars_extracted.txt -->
    <g transform="translate(110.101875 28.56)scale(0.12 -0.12)">
     <defs>
      <path d="M 3.328125 72.90625 
L 13.28125 72.90625 
L 28.609375 11.28125 
L 43.890625 72.90625 
L 54.984375 72.90625 
L 70.3125 11.28125 
L 85.59375 72.90625 
L 95.609375 72.90625 
L 77.296875 0 
L 64.890625 0 
L 49.515625 63.28125 
L 33.984375 0 
L 21.578125 0 
z
" id="DejaVuSans-87"/>
      <path d="M 50.984375 -16.609375 
L 50.984375 -23.578125 
L -0.984375 -23.578125 
L -0.984375 -16.609375 
z
" id="DejaVuSans-95"/>
      <path d="M 9.8125 72.90625 
L 19.671875 72.90625 
L 19.671875 43.015625 
L 55.515625 43.015625 
L 55.515625 72.90625 
L 65.375 72.90625 
L 65.375 0 
L 55.515625 0 
L 55.515625 34.71875 
L 19.671875 34.71875 
L 19.671875 0 
L 9.8125 0 
z
" id="DejaVuSans-72"/>
      <path d="M 34.1875 63.1875 
L 20.796875 26.90625 
L 47.609375 26.90625 
z
M 28.609375 72.90625 
L 39.796875 72.90625 
L 67.578125 0 
L 57.328125 0 
L 50.6875 18.703125 
L 17.828125 18.703125 
L 11.1875 0 
L 0.78125 0 
z
" id="DejaVuSans-65"/>
      <path d="M 40.578125 39.3125 
Q 47.65625 37.796875 51.625 33 
Q 55.609375 28.21875 55.609375 21.1875 
Q 55.609375 10.40625 48.1875 4.484375 
Q 40.765625 -1.421875 27.09375 -1.421875 
Q 22.515625 -1.421875 17.65625 -0.515625 
Q 12.796875 0.390625 7.625 2.203125 
L 7.625 11.71875 
Q 11.71875 9.328125 16.59375 8.109375 
Q 21.484375 6.890625 26.8125 6.890625 
Q 36.078125 6.890625 40.9375 10.546875 
Q 45.796875 14.203125 45.796875 21.1875 
Q 45.796875 27.640625 41.28125 31.265625 
Q 36.765625 34.90625 28.71875 34.90625 
L 20.21875 34.90625 
L 20.21875 43.015625 
L 29.109375 43.015625 
Q 36.375 43.015625 40.234375 45.921875 
Q 44.09375 48.828125 44.09375 54.296875 
Q 44.09375 59.90625 40.109375 62.90625 
Q 36.140625 65.921875 28.71875 65.921875 
Q 24.65625 65.921875 20.015625 65.03125 
Q 15.375 64.15625 9.8125 62.3125 
L 9.8125 71.09375 
Q 15.4375 72.65625 20.34375 73.4375 
Q 25.25 74.21875 29.59375 74.21875 
Q 40.828125 74.21875 47.359375 69.109375 
Q 53.90625 64.015625 53.90625 55.328125 
Q 53.90625 49.265625 50.4375 45.09375 
Q 46.96875 40.921875 40.578125 39.3125 
z
" id="DejaVuSans-51"/>
      <path d="M 48.6875 27.296875 
Q 48.6875 37.203125 44.609375 42.84375 
Q 40.53125 48.484375 33.40625 48.484375 
Q 26.265625 48.484375 22.1875 42.84375 
Q 18.109375 37.203125 18.109375 27.296875 
Q 18.109375 17.390625 22.1875 11.75 
Q 26.265625 6.109375 33.40625 6.109375 
Q 40.53125 6.109375 44.609375 11.75 
Q 48.6875 17.390625 48.6875 27.296875 
z
M 18.109375 46.390625 
Q 20.953125 51.265625 25.265625 53.625 
Q 29.59375 56 35.59375 56 
Q 45.5625 56 51.78125 48.09375 
Q 58.015625 40.1875 58.015625 27.296875 
Q 58.015625 14.40625 51.78125 6.484375 
Q 45.5625 -1.421875 35.59375 -1.421875 
Q 29.59375 -1.421875 25.265625 0.953125 
Q 20.953125 3.328125 18.109375 8.203125 
L 18.109375 0 
L 9.078125 0 
L 9.078125 75.984375 
L 18.109375 75.984375 
z
" id="DejaVuSans-98"/>
      <path d="M 34.28125 27.484375 
Q 23.390625 27.484375 19.1875 25 
Q 14.984375 22.515625 14.984375 16.5 
Q 14.984375 11.71875 18.140625 8.90625 
Q 21.296875 6.109375 26.703125 6.109375 
Q 34.1875 6.109375 38.703125 11.40625 
Q 43.21875 16.703125 43.21875 25.484375 
L 43.21875 27.484375 
z
M 52.203125 31.203125 
L 52.203125 0 
L 43.21875 0 
L 43.21875 8.296875 
Q 40.140625 3.328125 35.546875 0.953125 
Q 30.953125 -1.421875 24.3125 -1.421875 
Q 15.921875 -1.421875 10.953125 3.296875 
Q 6 8.015625 6 15.921875 
Q 6 25.140625 12.171875 29.828125 
Q 18.359375 34.515625 30.609375 34.515625 
L 43.21875 34.515625 
L 43.21875 35.40625 
Q 43.21875 41.609375 39.140625 45 
Q 35.0625 48.390625 27.6875 48.390625 
Q 23 48.390625 18.546875 47.265625 
Q 14.109375 46.140625 10.015625 43.890625 
L 10.015625 52.203125 
Q 14.9375 54.109375 19.578125 55.046875 
Q 24.21875 56 28.609375 56 
Q 40.484375 56 46.34375 49.84375 
Q 52.203125 43.703125 52.203125 31.203125 
z
" id="DejaVuSans-97"/>
      <path d="M 41.109375 46.296875 
Q 39.59375 47.171875 37.8125 47.578125 
Q 36.03125 48 33.890625 48 
Q 26.265625 48 22.1875 43.046875 
Q 18.109375 38.09375 18.109375 28.8125 
L 18.109375 0 
L 9.078125 0 
L 9.078125 54.6875 
L 18.109375 54.6875 
L 18.109375 46.1875 
Q 20.953125 51.171875 25.484375 53.578125 
Q 30.03125 56 36.53125 56 
Q 37.453125 56 38.578125 55.875 
Q 39.703125 55.765625 41.0625 55.515625 
z
" id="DejaVuSans-114"/>
      <path d="M 44.28125 53.078125 
L 44.28125 44.578125 
Q 40.484375 46.53125 36.375 47.5 
Q 32.28125 48.484375 27.875 48.484375 
Q 21.1875 48.484375 17.84375 46.4375 
Q 14.5 44.390625 14.5 40.28125 
Q 14.5 37.15625 16.890625 35.375 
Q 19.28125 33.59375 26.515625 31.984375 
L 29.59375 31.296875 
Q 39.15625 29.25 43.1875 25.515625 
Q 47.21875 21.78125 47.21875 15.09375 
Q 47.21875 7.46875 41.1875 3.015625 
Q 35.15625 -1.421875 24.609375 -1.421875 
Q 20.21875 -1.421875 15.453125 -0.5625 
Q 10.6875 0.296875 5.421875 2 
L 5.421875 11.28125 
Q 10.40625 8.6875 15.234375 7.390625 
Q 20.0625 6.109375 24.8125 6.109375 
Q 31.15625 6.109375 34.5625 8.28125 
Q 37.984375 10.453125 37.984375 14.40625 
Q 37.984375 18.0625 35.515625 20.015625 
Q 33.0625 21.96875 24.703125 23.78125 
L 21.578125 24.515625 
Q 13.234375 26.265625 9.515625 29.90625 
Q 5.8125 33.546875 5.8125 39.890625 
Q 5.8125 47.609375 11.28125 51.796875 
Q 16.75 56 26.8125 56 
Q 31.78125 56 36.171875 55.265625 
Q 40.578125 54.546875 44.28125 53.078125 
z
" id="DejaVuSans-115"/>
      <path d="M 56.203125 29.59375 
L 56.203125 25.203125 
L 14.890625 25.203125 
Q 15.484375 15.921875 20.484375 11.0625 
Q 25.484375 6.203125 34.421875 6.203125 
Q 39.59375 6.203125 44.453125 7.46875 
Q 49.3125 8.734375 54.109375 11.28125 
L 54.109375 2.78125 
Q 49.265625 0.734375 44.1875 -0.34375 
Q 39.109375 -1.421875 33.890625 -1.421875 
Q 20.796875 -1.421875 13.15625 6.1875 
Q 5.515625 13.8125 5.515625 26.8125 
Q 5.515625 40.234375 12.765625 48.109375 
Q 20.015625 56 32.328125 56 
Q 43.359375 56 49.78125 48.890625 
Q 56.203125 41.796875 56.203125 29.59375 
z
M 47.21875 32.234375 
Q 47.125 39.59375 43.09375 43.984375 
Q 39.0625 48.390625 32.421875 48.390625 
Q 24.90625 48.390625 20.390625 44.140625 
Q 15.875 39.890625 15.1875 32.171875 
z
" id="DejaVuSans-101"/>
      <path d="M 54.890625 54.6875 
L 35.109375 28.078125 
L 55.90625 0 
L 45.3125 0 
L 29.390625 21.484375 
L 13.484375 0 
L 2.875 0 
L 24.125 28.609375 
L 4.6875 54.6875 
L 15.28125 54.6875 
L 29.78125 35.203125 
L 44.28125 54.6875 
z
" id="DejaVuSans-120"/>
      <path d="M 18.3125 70.21875 
L 18.3125 54.6875 
L 36.8125 54.6875 
L 36.8125 47.703125 
L 18.3125 47.703125 
L 18.3125 18.015625 
Q 18.3125 11.328125 20.140625 9.421875 
Q 21.96875 7.515625 27.59375 7.515625 
L 36.8125 7.515625 
L 36.8125 0 
L 27.59375 0 
Q 17.1875 0 13.234375 3.875 
Q 9.28125 7.765625 9.28125 18.015625 
L 9.28125 47.703125 
L 2.6875 47.703125 
L 2.6875 54.6875 
L 9.28125 54.6875 
L 9.28125 70.21875 
z
" id="DejaVuSans-116"/>
      <path d="M 48.78125 52.59375 
L 48.78125 44.1875 
Q 44.96875 46.296875 41.140625 47.34375 
Q 37.3125 48.390625 33.40625 48.390625 
Q 24.65625 48.390625 19.8125 42.84375 
Q 14.984375 37.3125 14.984375 27.296875 
Q 14.984375 17.28125 19.8125 11.734375 
Q 24.65625 6.203125 33.40625 6.203125 
Q 37.3125 6.203125 41.140625 7.25 
Q 44.96875 8.296875 48.78125 10.40625 
L 48.78125 2.09375 
Q 45.015625 0.34375 40.984375 -0.53125 
Q 36.96875 -1.421875 32.421875 -1.421875 
Q 20.0625 -1.421875 12.78125 6.34375 
Q 5.515625 14.109375 5.515625 27.296875 
Q 5.515625 40.671875 12.859375 48.328125 
Q 20.21875 56 33.015625 56 
Q 37.15625 56 41.109375 55.140625 
Q 45.0625 54.296875 48.78125 52.59375 
z
" id="DejaVuSans-99"/>
      <path d="M 45.40625 46.390625 
L 45.40625 75.984375 
L 54.390625 75.984375 
L 54.390625 0 
L 45.40625 0 
L 45.40625 8.203125 
Q 42.578125 3.328125 38.25 0.953125 
Q 33.9375 -1.421875 27.875 -1.421875 
Q 17.96875 -1.421875 11.734375 6.484375 
Q 5.515625 14.40625 5.515625 27.296875 
Q 5.515625 40.1875 11.734375 48.09375 
Q 17.96875 56 27.875 56 
Q 33.9375 56 38.25 53.625 
Q 42.578125 51.265625 45.40625 46.390625 
z
M 14.796875 27.296875 
Q 14.796875 17.390625 18.875 11.75 
Q 22.953125 6.109375 30.078125 6.109375 
Q 37.203125 6.109375 41.296875 11.75 
Q 45.40625 17.390625 45.40625 27.296875 
Q 45.40625 37.203125 41.296875 42.84375 
Q 37.203125 48.484375 30.078125 48.484375 
Q 22.953125 48.484375 18.875 42.84375 
Q 14.796875 37.203125 14.796875 27.296875 
z
" id="DejaVuSans-100"/>
      <path d="M 10.6875 12.40625 
L 21 12.40625 
L 21 0 
L 10.6875 0 
z
" id="DejaVuSans-46"/>
     </defs>
     <use xlink:href="#DejaVuSans-87"/>
     <use x="98.876953" xlink:href="#DejaVuSans-50"/>
     <use x="162.5" xlink:href="#DejaVuSans-48"/>
     <use x="226.123047" xlink:href="#DejaVuSans-95"/>
     <use x="276.123047" xlink:href="#DejaVuSans-95"/>
     <use x="326.123047" xlink:href="#DejaVuSans-72"/>
     <use x="401.318359" xlink:href="#DejaVuSans-53"/>
     <use x="464.941406" xlink:href="#DejaVuSans-48"/>
     <use x="528.564453" xlink:href="#DejaVuSans-95"/>
     <use x="578.564453" xlink:href="#DejaVuSans-95"/>
     <use x="628.564453" xlink:href="#DejaVuSans-65"/>
     <use x="696.972656" xlink:href="#DejaVuSans-51"/>
     <use x="760.595703" xlink:href="#DejaVuSans-52"/>
     <use x="824.21875" xlink:href="#DejaVuSans-48"/>
     <use x="887.841797" xlink:href="#DejaVuSans-95"/>
     <use x="937.841797" xlink:href="#DejaVuSans-98"/>
     <use x="1001.318359" xlink:href="#DejaVuSans-97"/>
     <use x="1062.597656" xlink:href="#DejaVuSans-114"/>
     <use x="1103.710938" xlink:href="#DejaVuSans-115"/>
     <use x="1155.810547" xlink:href="#DejaVuSans-95"/>
     <use x="1205.810547" xlink:href="#DejaVuSans-101"/>
     <use x="1265.583984" xlink:href="#DejaVuSans-120"/>
     <use x="1324.763672" xlink:href="#DejaVuSans-116"/>
     <use x="1363.972656" xlink:href="#DejaVuSans-114"/>
     <use x="1405.085938" xlink:href="#DejaVuSans-97"/>
     <use x="1466.365234" xlink:href="#DejaVuSans-99"/>
     <use x="1521.345703" xlink:href="#DejaVuSans-116"/>
     <use x="1560.554688" xlink:href="#DejaVuSans-101"/>
     <use x="1622.078125" xlink:href="#DejaVuSans-100"/>
     <use x="1685.554688" xlink:href="#DejaVuSans-46"/>
     <use x="1717.341797" xlink:href="#DejaVuSans-116"/>
     <use x="1756.550781" xlink:href="#DejaVuSans-120"/>
     <use x="1815.730469" xlink:href="#DejaVuSans-116"/>
    </g>
   </g>
  </g>
 </g>
 <defs>
  <clipPath id="pc05c7ed0ef">
   <rect height="217.44" width="217.44" x="112.68" y="34.56"/>
  </clipPath>
 </defs>
</svg>
