<?xml version="1.0" encoding="utf-8" standalone="no"?>
<!DOCTYPE svg PUBLIC "-//W3C//DTD SVG 1.1//EN"
  "http://www.w3.org/Graphics/SVG/1.1/DTD/svg11.dtd">
<!-- Created with matplotlib (https://matplotlib.org/) -->
<svg height="288pt" version="1.1" viewBox="0 0 432 288" width="432pt" xmlns="http://www.w3.org/2000/svg" xmlns:xlink="http://www.w3.org/1999/xlink">
 <metadata>
  <rdf:RDF xmlns:cc="http://creativecommons.org/ns#" xmlns:dc="http://purl.org/dc/elements/1.1/" xmlns:rdf="http://www.w3.org/1999/02/22-rdf-syntax-ns#">
   <cc:Work>
    <dc:type rdf:resource="http://purl.org/dc/dcmitype/StillImage"/>
    <dc:date>2021-06-13T21:57:23.851619</dc:date>
    <dc:format>image/svg+xml</dc:format>
    <dc:creator>
     <cc:Agent>
      <dc:title>Matplotlib v3.3.4, https://matplotlib.org/</dc:title>
     </cc:Agent>
    </dc:creator>
   </cc:Work>
  </rdf:RDF>
 </metadata>
 <defs>
  <style type="text/css">*{stroke-linecap:butt;stroke-linejoin:round;}</style>
 </defs>
 <g id="figure_1">
  <g id="patch_1">
   <path d="M 0 288 
L 432 288 
L 432 0 
L 0 0 
z
" style="fill:#ffffff;"/>
  </g>
  <g id="patch_2">
   <path d="M 112.68 252 
L 330.12 252 
L 330.12 34.56 
L 112.68 34.56 
z
" style="fill:#ffffff;"/>
  </g>
  <g id="pane3d_1">
   <g id="patch_3">
    <path d="M 129.09822 198.386264 
L 200.904009 138.197228 
L 199.90584 51.393878 
L 124.663773 106.302111 
" style="fill:#f2f2f2;opacity:0.5;stroke:#f2f2f2;stroke-linejoin:miter;"/>
   </g>
  </g>
  <g id="pane3d_2">
   <g id="patch_4">
    <path d="M 200.904009 138.197228 
L 316.12668 171.68791 
L 320.238571 81.894718 
L 199.90584 51.393878 
" style="fill:#e6e6e6;opacity:0.5;stroke:#e6e6e6;stroke-linejoin:miter;"/>
   </g>
  </g>
  <g id="pane3d_3">
   <g id="patch_5">
    <path d="M 129.09822 198.386264 
L 251.239879 238.27773 
L 316.12668 171.68791 
L 200.904009 138.197228 
" style="fill:#ececec;opacity:0.5;stroke:#ececec;stroke-linejoin:miter;"/>
   </g>
  </g>
  <g id="axis3d_1">
   <g id="line2d_1">
    <path d="M 129.09822 198.386264 
L 251.239879 238.27773 
" style="fill:none;stroke:#000000;stroke-linecap:square;stroke-width:0.8;"/>
   </g>
   <g id="Line3DCollection_1">
    <path d="M 136.495759 200.802301 
L 207.911499 140.234029 
L 207.209612 53.245171 
" style="fill:none;stroke:#b0b0b0;stroke-width:0.8;"/>
    <path d="M 162.23134 209.207541 
L 232.260894 147.311436 
L 232.60309 59.681678 
" style="fill:none;stroke:#b0b0b0;stroke-width:0.8;"/>
    <path d="M 188.559037 217.806167 
L 257.123632 154.538053 
L 258.555303 66.259807 
" style="fill:none;stroke:#b0b0b0;stroke-width:0.8;"/>
    <path d="M 215.499525 226.604931 
L 282.516121 161.918647 
L 285.084894 72.984285 
" style="fill:none;stroke:#b0b0b0;stroke-width:0.8;"/>
    <path d="M 243.074449 235.610901 
L 308.455474 169.458193 
L 312.21135 79.860051 
" style="fill:none;stroke:#b0b0b0;stroke-width:0.8;"/>
   </g>
   <g id="xtick_1">
    <g id="line2d_2">
     <path d="M 137.117644 200.274876 
L 135.249322 201.859414 
" style="fill:none;stroke:#000000;stroke-linecap:square;stroke-width:0.8;"/>
    </g>
    <g id="text_1">
     <!-- 0 -->
     <g transform="translate(125.77919 224.124533)scale(0.1 -0.1)">
      <defs>
       <path d="M 31.78125 66.40625 
Q 24.171875 66.40625 20.328125 58.90625 
Q 16.5 51.421875 16.5 36.375 
Q 16.5 21.390625 20.328125 13.890625 
Q 24.171875 6.390625 31.78125 6.390625 
Q 39.453125 6.390625 43.28125 13.890625 
Q 47.125 21.390625 47.125 36.375 
Q 47.125 51.421875 43.28125 58.90625 
Q 39.453125 66.40625 31.78125 66.40625 
z
M 31.78125 74.21875 
Q 44.046875 74.21875 50.515625 64.515625 
Q 56.984375 54.828125 56.984375 36.375 
Q 56.984375 17.96875 50.515625 8.265625 
Q 44.046875 -1.421875 31.78125 -1.421875 
Q 19.53125 -1.421875 13.0625 8.265625 
Q 6.59375 17.96875 6.59375 36.375 
Q 6.59375 54.828125 13.0625 64.515625 
Q 19.53125 74.21875 31.78125 74.21875 
z
" id="DejaVuSans-48"/>
      </defs>
      <use xlink:href="#DejaVuSans-48"/>
     </g>
    </g>
   </g>
   <g id="xtick_2">
    <g id="line2d_3">
     <path d="M 162.841716 208.668056 
L 161.007937 210.288854 
" style="fill:none;stroke:#000000;stroke-linecap:square;stroke-width:0.8;"/>
    </g>
    <g id="text_2">
     <!-- 2 -->
     <g transform="translate(151.547192 232.748132)scale(0.1 -0.1)">
      <defs>
       <path d="M 19.1875 8.296875 
L 53.609375 8.296875 
L 53.609375 0 
L 7.328125 0 
L 7.328125 8.296875 
Q 12.9375 14.109375 22.625 23.890625 
Q 32.328125 33.6875 34.8125 36.53125 
Q 39.546875 41.84375 41.421875 45.53125 
Q 43.3125 49.21875 43.3125 52.78125 
Q 43.3125 58.59375 39.234375 62.25 
Q 35.15625 65.921875 28.609375 65.921875 
Q 23.96875 65.921875 18.8125 64.3125 
Q 13.671875 62.703125 7.8125 59.421875 
L 7.8125 69.390625 
Q 13.765625 71.78125 18.9375 73 
Q 24.125 74.21875 28.421875 74.21875 
Q 39.75 74.21875 46.484375 68.546875 
Q 53.21875 62.890625 53.21875 53.421875 
Q 53.21875 48.921875 51.53125 44.890625 
Q 49.859375 40.875 45.40625 35.40625 
Q 44.1875 33.984375 37.640625 27.21875 
Q 31.109375 20.453125 19.1875 8.296875 
z
" id="DejaVuSans-50"/>
      </defs>
      <use xlink:href="#DejaVuSans-50"/>
     </g>
    </g>
   </g>
   <g id="xtick_3">
    <g id="line2d_4">
     <path d="M 189.15721 217.254202 
L 187.360066 218.91252 
" style="fill:none;stroke:#000000;stroke-linecap:square;stroke-width:0.8;"/>
    </g>
    <g id="text_3">
     <!-- 4 -->
     <g transform="translate(177.91082 241.571064)scale(0.1 -0.1)">
      <defs>
       <path d="M 37.796875 64.3125 
L 12.890625 25.390625 
L 37.796875 25.390625 
z
M 35.203125 72.90625 
L 47.609375 72.90625 
L 47.609375 25.390625 
L 58.015625 25.390625 
L 58.015625 17.1875 
L 47.609375 17.1875 
L 47.609375 0 
L 37.796875 0 
L 37.796875 17.1875 
L 4.890625 17.1875 
L 4.890625 26.703125 
z
" id="DejaVuSans-52"/>
      </defs>
      <use xlink:href="#DejaVuSans-52"/>
     </g>
    </g>
   </g>
   <g id="xtick_4">
    <g id="line2d_5">
     <path d="M 216.084757 226.040048 
L 214.326462 227.737204 
" style="fill:none;stroke:#000000;stroke-linecap:square;stroke-width:0.8;"/>
    </g>
    <g id="text_4">
     <!-- 6 -->
     <g transform="translate(204.890965 250.600322)scale(0.1 -0.1)">
      <defs>
       <path d="M 33.015625 40.375 
Q 26.375 40.375 22.484375 35.828125 
Q 18.609375 31.296875 18.609375 23.390625 
Q 18.609375 15.53125 22.484375 10.953125 
Q 26.375 6.390625 33.015625 6.390625 
Q 39.65625 6.390625 43.53125 10.953125 
Q 47.40625 15.53125 47.40625 23.390625 
Q 47.40625 31.296875 43.53125 35.828125 
Q 39.65625 40.375 33.015625 40.375 
z
M 52.59375 71.296875 
L 52.59375 62.3125 
Q 48.875 64.0625 45.09375 64.984375 
Q 41.3125 65.921875 37.59375 65.921875 
Q 27.828125 65.921875 22.671875 59.328125 
Q 17.53125 52.734375 16.796875 39.40625 
Q 19.671875 43.65625 24.015625 45.921875 
Q 28.375 48.1875 33.59375 48.1875 
Q 44.578125 48.1875 50.953125 41.515625 
Q 57.328125 34.859375 57.328125 23.390625 
Q 57.328125 12.15625 50.6875 5.359375 
Q 44.046875 -1.421875 33.015625 -1.421875 
Q 20.359375 -1.421875 13.671875 8.265625 
Q 6.984375 17.96875 6.984375 36.375 
Q 6.984375 53.65625 15.1875 63.9375 
Q 23.390625 74.21875 37.203125 74.21875 
Q 40.921875 74.21875 44.703125 73.484375 
Q 48.484375 72.75 52.59375 71.296875 
z
" id="DejaVuSans-54"/>
      </defs>
      <use xlink:href="#DejaVuSans-54"/>
     </g>
    </g>
   </g>
   <g id="xtick_5">
    <g id="line2d_6">
     <path d="M 243.645962 235.032643 
L 241.928856 236.770015 
" style="fill:none;stroke:#000000;stroke-linecap:square;stroke-width:0.8;"/>
    </g>
    <g id="text_5">
     <!-- 8 -->
     <g transform="translate(232.509511 259.84323)scale(0.1 -0.1)">
      <defs>
       <path d="M 31.78125 34.625 
Q 24.75 34.625 20.71875 30.859375 
Q 16.703125 27.09375 16.703125 20.515625 
Q 16.703125 13.921875 20.71875 10.15625 
Q 24.75 6.390625 31.78125 6.390625 
Q 38.8125 6.390625 42.859375 10.171875 
Q 46.921875 13.96875 46.921875 20.515625 
Q 46.921875 27.09375 42.890625 30.859375 
Q 38.875 34.625 31.78125 34.625 
z
M 21.921875 38.8125 
Q 15.578125 40.375 12.03125 44.71875 
Q 8.5 49.078125 8.5 55.328125 
Q 8.5 64.0625 14.71875 69.140625 
Q 20.953125 74.21875 31.78125 74.21875 
Q 42.671875 74.21875 48.875 69.140625 
Q 55.078125 64.0625 55.078125 55.328125 
Q 55.078125 49.078125 51.53125 44.71875 
Q 48 40.375 41.703125 38.8125 
Q 48.828125 37.15625 52.796875 32.3125 
Q 56.78125 27.484375 56.78125 20.515625 
Q 56.78125 9.90625 50.3125 4.234375 
Q 43.84375 -1.421875 31.78125 -1.421875 
Q 19.734375 -1.421875 13.25 4.234375 
Q 6.78125 9.90625 6.78125 20.515625 
Q 6.78125 27.484375 10.78125 32.3125 
Q 14.796875 37.15625 21.921875 38.8125 
z
M 18.3125 54.390625 
Q 18.3125 48.734375 21.84375 45.5625 
Q 25.390625 42.390625 31.78125 42.390625 
Q 38.140625 42.390625 41.71875 45.5625 
Q 45.3125 48.734375 45.3125 54.390625 
Q 45.3125 60.0625 41.71875 63.234375 
Q 38.140625 66.40625 31.78125 66.40625 
Q 25.390625 66.40625 21.84375 63.234375 
Q 18.3125 60.0625 18.3125 54.390625 
z
" id="DejaVuSans-56"/>
      </defs>
      <use xlink:href="#DejaVuSans-56"/>
     </g>
    </g>
   </g>
  </g>
  <g id="axis3d_2">
   <g id="line2d_7">
    <path d="M 316.12668 171.68791 
L 251.239879 238.27773 
" style="fill:none;stroke:#000000;stroke-linecap:square;stroke-width:0.8;"/>
   </g>
   <g id="Line3DCollection_2">
    <path d="M 129.866948 102.505071 
L 134.046245 194.238731 
L 255.729543 233.67023 
" style="fill:none;stroke:#b0b0b0;stroke-width:0.8;"/>
    <path d="M 147.250212 89.819556 
L 150.59591 180.366474 
L 270.72626 218.279909 
" style="fill:none;stroke:#b0b0b0;stroke-width:0.8;"/>
    <path d="M 163.958537 77.626582 
L 166.530371 167.009893 
L 285.136664 203.491289 
" style="fill:none;stroke:#b0b0b0;stroke-width:0.8;"/>
    <path d="M 180.030483 65.898008 
L 181.883306 154.140758 
L 298.994481 189.269761 
" style="fill:none;stroke:#b0b0b0;stroke-width:0.8;"/>
    <path d="M 195.501727 54.607799 
L 196.68598 141.732864 
L 312.330896 175.583317 
" style="fill:none;stroke:#b0b0b0;stroke-width:0.8;"/>
   </g>
   <g id="xtick_6">
    <g id="line2d_8">
     <path d="M 254.704115 233.337939 
L 257.783053 234.33567 
" style="fill:none;stroke:#000000;stroke-linecap:square;stroke-width:0.8;"/>
    </g>
    <g id="text_6">
     <!-- 0 -->
     <g transform="translate(265.430654 254.693759)scale(0.1 -0.1)">
      <use xlink:href="#DejaVuSans-48"/>
     </g>
    </g>
   </g>
   <g id="xtick_7">
    <g id="line2d_9">
     <path d="M 269.71494 217.960734 
L 272.751463 218.919068 
" style="fill:none;stroke:#000000;stroke-linecap:square;stroke-width:0.8;"/>
    </g>
    <g id="text_7">
     <!-- 2 -->
     <g transform="translate(280.181112 239.024526)scale(0.1 -0.1)">
      <use xlink:href="#DejaVuSans-50"/>
     </g>
    </g>
   </g>
   <g id="xtick_8">
    <g id="line2d_10">
     <path d="M 284.139145 203.184468 
L 287.134182 204.105694 
" style="fill:none;stroke:#000000;stroke-linecap:square;stroke-width:0.8;"/>
    </g>
    <g id="text_8">
     <!-- 4 -->
     <g transform="translate(294.35448 223.968328)scale(0.1 -0.1)">
      <use xlink:href="#DejaVuSans-52"/>
     </g>
    </g>
   </g>
   <g id="xtick_9">
    <g id="line2d_11">
     <path d="M 298.010457 188.97459 
L 300.964927 189.860821 
" style="fill:none;stroke:#000000;stroke-linecap:square;stroke-width:0.8;"/>
    </g>
    <g id="text_9">
     <!-- 6 -->
     <g transform="translate(307.983974 209.489882)scale(0.1 -0.1)">
      <use xlink:href="#DejaVuSans-54"/>
     </g>
    </g>
   </g>
   <g id="xtick_10">
    <g id="line2d_12">
     <path d="M 311.360068 175.299146 
L 314.274875 176.15234 
" style="fill:none;stroke:#000000;stroke-linecap:square;stroke-width:0.8;"/>
    </g>
    <g id="text_10">
     <!-- 8 -->
     <g transform="translate(321.10031 195.556556)scale(0.1 -0.1)">
      <use xlink:href="#DejaVuSans-56"/>
     </g>
    </g>
   </g>
  </g>
  <g id="axis3d_3">
   <g id="line2d_13">
    <path d="M 316.12668 171.68791 
L 320.238571 81.894718 
" style="fill:none;stroke:#000000;stroke-linecap:square;stroke-width:0.8;"/>
   </g>
   <g id="Line3DCollection_3">
    <path d="M 316.205459 169.967571 
L 200.884845 136.530725 
L 129.013401 196.624949 
" style="fill:none;stroke:#b0b0b0;stroke-width:0.8;"/>
    <path d="M 316.990881 152.815968 
L 200.693872 119.923228 
L 128.167467 179.05859 
" style="fill:none;stroke:#b0b0b0;stroke-width:0.8;"/>
    <path d="M 317.789849 135.368559 
L 200.499764 103.043054 
L 127.306385 161.177665 
" style="fill:none;stroke:#b0b0b0;stroke-width:0.8;"/>
    <path d="M 318.602715 117.617626 
L 200.302442 85.883432 
L 126.429744 142.973646 
" style="fill:none;stroke:#b0b0b0;stroke-width:0.8;"/>
    <path d="M 319.429847 99.555177 
L 200.101826 68.437364 
L 125.537119 124.437699 
" style="fill:none;stroke:#b0b0b0;stroke-width:0.8;"/>
   </g>
   <g id="xtick_11">
    <g id="line2d_14">
     <path d="M 315.237563 169.686933 
L 318.143556 170.529516 
" style="fill:none;stroke:#000000;stroke-linecap:square;stroke-width:0.8;"/>
    </g>
    <g id="text_11">
     <!-- 0 -->
     <g transform="translate(331.275915 174.966846)scale(0.1 -0.1)">
      <use xlink:href="#DejaVuSans-48"/>
     </g>
    </g>
   </g>
   <g id="xtick_12">
    <g id="line2d_15">
     <path d="M 316.014399 152.539786 
L 318.94619 153.368996 
" style="fill:none;stroke:#000000;stroke-linecap:square;stroke-width:0.8;"/>
    </g>
    <g id="text_12">
     <!-- 10000 -->
     <g transform="translate(319.488896 157.856587)scale(0.1 -0.1)">
      <defs>
       <path d="M 12.40625 8.296875 
L 28.515625 8.296875 
L 28.515625 63.921875 
L 10.984375 60.40625 
L 10.984375 69.390625 
L 28.421875 72.90625 
L 38.28125 72.90625 
L 38.28125 8.296875 
L 54.390625 8.296875 
L 54.390625 0 
L 12.40625 0 
z
" id="DejaVuSans-49"/>
      </defs>
      <use xlink:href="#DejaVuSans-49"/>
      <use x="63.623047" xlink:href="#DejaVuSans-48"/>
      <use x="127.246094" xlink:href="#DejaVuSans-48"/>
      <use x="190.869141" xlink:href="#DejaVuSans-48"/>
      <use x="254.492188" xlink:href="#DejaVuSans-48"/>
     </g>
    </g>
   </g>
   <g id="xtick_13">
    <g id="line2d_16">
     <path d="M 316.804627 135.097029 
L 319.762677 135.912277 
" style="fill:none;stroke:#000000;stroke-linecap:square;stroke-width:0.8;"/>
    </g>
    <g id="text_13">
     <!-- 20000 -->
     <g transform="translate(320.442993 140.452336)scale(0.1 -0.1)">
      <use xlink:href="#DejaVuSans-50"/>
      <use x="63.623047" xlink:href="#DejaVuSans-48"/>
      <use x="127.246094" xlink:href="#DejaVuSans-48"/>
      <use x="190.869141" xlink:href="#DejaVuSans-48"/>
      <use x="254.492188" xlink:href="#DejaVuSans-48"/>
     </g>
    </g>
   </g>
   <g id="xtick_14">
    <g id="line2d_17">
     <path d="M 317.608597 117.350952 
L 320.59338 118.151624 
" style="fill:none;stroke:#000000;stroke-linecap:square;stroke-width:0.8;"/>
    </g>
    <g id="text_14">
     <!-- 30000 -->
     <g transform="translate(321.413626 122.746451)scale(0.1 -0.1)">
      <defs>
       <path d="M 40.578125 39.3125 
Q 47.65625 37.796875 51.625 33 
Q 55.609375 28.21875 55.609375 21.1875 
Q 55.609375 10.40625 48.1875 4.484375 
Q 40.765625 -1.421875 27.09375 -1.421875 
Q 22.515625 -1.421875 17.65625 -0.515625 
Q 12.796875 0.390625 7.625 2.203125 
L 7.625 11.71875 
Q 11.71875 9.328125 16.59375 8.109375 
Q 21.484375 6.890625 26.8125 6.890625 
Q 36.078125 6.890625 40.9375 10.546875 
Q 45.796875 14.203125 45.796875 21.1875 
Q 45.796875 27.640625 41.28125 31.265625 
Q 36.765625 34.90625 28.71875 34.90625 
L 20.21875 34.90625 
L 20.21875 43.015625 
L 29.109375 43.015625 
Q 36.375 43.015625 40.234375 45.921875 
Q 44.09375 48.828125 44.09375 54.296875 
Q 44.09375 59.90625 40.109375 62.90625 
Q 36.140625 65.921875 28.71875 65.921875 
Q 24.65625 65.921875 20.015625 65.03125 
Q 15.375 64.15625 9.8125 62.3125 
L 9.8125 71.09375 
Q 15.4375 72.65625 20.34375 73.4375 
Q 25.25 74.21875 29.59375 74.21875 
Q 40.828125 74.21875 47.359375 69.109375 
Q 53.90625 64.015625 53.90625 55.328125 
Q 53.90625 49.265625 50.4375 45.09375 
Q 46.96875 40.921875 40.578125 39.3125 
z
" id="DejaVuSans-51"/>
      </defs>
      <use xlink:href="#DejaVuSans-51"/>
      <use x="63.623047" xlink:href="#DejaVuSans-48"/>
      <use x="127.246094" xlink:href="#DejaVuSans-48"/>
      <use x="190.869141" xlink:href="#DejaVuSans-48"/>
      <use x="254.492188" xlink:href="#DejaVuSans-48"/>
     </g>
    </g>
   </g>
   <g id="xtick_15">
    <g id="line2d_18">
     <path d="M 318.426671 99.293574 
L 321.438673 100.07903 
" style="fill:none;stroke:#000000;stroke-linecap:square;stroke-width:0.8;"/>
    </g>
    <g id="text_15">
     <!-- 40000 -->
     <g transform="translate(322.401228 104.731022)scale(0.1 -0.1)">
      <use xlink:href="#DejaVuSans-52"/>
      <use x="63.623047" xlink:href="#DejaVuSans-48"/>
      <use x="127.246094" xlink:href="#DejaVuSans-48"/>
      <use x="190.869141" xlink:href="#DejaVuSans-48"/>
      <use x="254.492188" xlink:href="#DejaVuSans-48"/>
     </g>
    </g>
   </g>
  </g>
  <g id="axes_1">
   <g id="Poly3DCollection_1">
    <path clip-path="url(#peef3553564)" d="M 203.700438 142.115361 
L 203.699826 142.055079 
L 215.863649 145.606519 
L 215.863902 145.66701 
z
" style="fill:#050338;"/>
    <path clip-path="url(#peef3553564)" d="M 196.401162 148.290596 
L 196.400326 148.229952 
L 203.699826 142.055079 
L 203.700438 142.115361 
z
" style="fill:#0b0777;"/>
    <path clip-path="url(#peef3553564)" d="M 196.401162 148.290596 
L 203.700438 142.115361 
L 215.863902 145.66701 
L 208.637156 151.907182 
z
" style="fill:#070448;"/>
    <path clip-path="url(#peef3553564)" d="M 196.400326 148.229952 
L 208.636684 151.846326 
L 215.863649 145.606519 
L 203.699826 142.055079 
z
" style="fill:#0a0667;"/>
    <path clip-path="url(#peef3553564)" d="M 215.863902 145.66701 
L 215.863314 145.526092 
L 228.155291 149.114528 
L 228.155024 149.255935 
z
" style="fill:#050338;"/>
    <path clip-path="url(#peef3553564)" d="M 208.637156 151.907182 
L 215.863902 145.66701 
L 215.863649 145.606519 
L 208.636684 151.846326 
z
" style="fill:#050338;"/>
    <path clip-path="url(#peef3553564)" d="M 208.637156 151.907182 
L 208.636057 151.765415 
L 215.863314 145.526092 
L 215.863902 145.66701 
z
" style="fill:#0b0777;"/>
    <path clip-path="url(#peef3553564)" d="M 196.401162 148.290596 
L 208.637156 151.907182 
L 208.636684 151.846326 
L 196.400326 148.229952 
z
" style="fill:#0b0777;"/>
    <path clip-path="url(#peef3553564)" d="M 196.401162 148.290596 
L 196.399905 148.199397 
L 208.636446 151.815666 
L 208.637156 151.907182 
z
" style="fill:#050338;"/>
    <path clip-path="url(#peef3553564)" d="M 208.637156 151.907182 
L 215.863902 145.66701 
L 228.155024 149.255935 
L 221.002748 155.562072 
z
" style="fill:#070448;"/>
    <path clip-path="url(#peef3553564)" d="M 208.636057 151.765415 
L 221.002513 155.419812 
L 228.155291 149.114528 
L 215.863314 145.526092 
z
" style="fill:#0a0667;"/>
    <path clip-path="url(#peef3553564)" d="M 188.96817 154.578956 
L 188.966565 154.487207 
L 196.399905 148.199397 
L 196.401162 148.290596 
z
" style="fill:#0b0777;"/>
    <path clip-path="url(#peef3553564)" d="M 228.155024 149.255935 
L 228.159737 146.753255 
L 240.595981 150.371328 
L 240.575825 152.882725 
z
" style="fill:#0d023b;"/>
    <path clip-path="url(#peef3553564)" d="M 221.002748 155.562072 
L 228.155024 149.255935 
L 228.155291 149.114528 
L 221.002513 155.419812 
z
" style="fill:#050338;"/>
    <path clip-path="url(#peef3553564)" d="M 221.002748 155.562072 
L 220.998592 153.044266 
L 228.159737 146.753255 
L 228.155024 149.255935 
z
" style="fill:#1c057e;"/>
    <path clip-path="url(#peef3553564)" d="M 188.96817 154.578956 
L 196.401162 148.290596 
L 208.637156 151.907182 
L 201.27732 158.262275 
z
" style="fill:#070448;"/>
    <path clip-path="url(#peef3553564)" d="M 188.966565 154.487207 
L 201.276268 158.170206 
L 208.636446 151.815666 
L 196.399905 148.199397 
z
" style="fill:#0a0667;"/>
    <path clip-path="url(#peef3553564)" d="M 208.637156 151.907182 
L 221.002748 155.562072 
L 221.002513 155.419812 
L 208.636057 151.765415 
z
" style="fill:#0b0777;"/>
    <path clip-path="url(#peef3553564)" d="M 208.637156 151.907182 
L 208.634868 151.612213 
L 221.002259 155.266076 
L 221.002748 155.562072 
z
" style="fill:#050338;"/>
    <path clip-path="url(#peef3553564)" d="M 221.002748 155.562072 
L 228.155024 149.255935 
L 240.575825 152.882725 
L 233.500008 159.25588 
z
" style="fill:#11034c;"/>
    <path clip-path="url(#peef3553564)" d="M 220.998592 153.044266 
L 233.511485 156.729279 
L 240.595981 150.371328 
L 228.159737 146.753255 
z
" style="fill:#18046d;"/>
    <path clip-path="url(#peef3553564)" d="M 201.27732 158.262275 
L 208.637156 151.907182 
L 208.636446 151.815666 
L 201.276268 158.170206 
z
" style="fill:#050338;"/>
    <path clip-path="url(#peef3553564)" d="M 201.27732 158.262275 
L 201.273928 157.965524 
L 208.634868 151.612213 
L 208.637156 151.907182 
z
" style="fill:#0b0777;"/>
    <path clip-path="url(#peef3553564)" d="M 240.575825 152.882725 
L 240.642582 144.564697 
L 253.247362 148.200808 
L 253.128369 156.547983 
z
" style="fill:#1b0141;"/>
    <path clip-path="url(#peef3553564)" d="M 188.96817 154.578956 
L 201.27732 158.262275 
L 201.276268 158.170206 
L 188.966565 154.487207 
z
" style="fill:#0b0777;"/>
    <path clip-path="url(#peef3553564)" d="M 188.96817 154.578956 
L 188.965266 154.41298 
L 201.275416 158.095721 
L 201.27732 158.262275 
z
" style="fill:#050338;"/>
    <path clip-path="url(#peef3553564)" d="M 233.500008 159.25588 
L 240.575825 152.882725 
L 240.595981 150.371328 
L 233.511485 156.729279 
z
" style="fill:#0d023b;"/>
    <path clip-path="url(#peef3553564)" d="M 201.27732 158.262275 
L 208.637156 151.907182 
L 221.002748 155.562072 
L 213.718049 161.984967 
z
" style="fill:#070448;"/>
    <path clip-path="url(#peef3553564)" d="M 201.273928 157.965524 
L 213.716478 161.68718 
L 221.002259 155.266076 
L 208.634868 151.612213 
z
" style="fill:#0a0667;"/>
    <path clip-path="url(#peef3553564)" d="M 233.500008 159.25588 
L 233.538022 150.887274 
L 240.642582 144.564697 
L 240.575825 152.882725 
z
" style="fill:#39038b;"/>
    <path clip-path="url(#peef3553564)" d="M 181.397755 160.983577 
L 181.394197 160.816598 
L 188.965266 154.41298 
L 188.96817 154.578956 
z
" style="fill:#0b0777;"/>
    <path clip-path="url(#peef3553564)" d="M 221.002748 155.562072 
L 233.500008 159.25588 
L 233.511485 156.729279 
L 220.998592 153.044266 
z
" style="fill:#1c057e;"/>
    <path clip-path="url(#peef3553564)" d="M 233.500008 159.25588 
L 240.575825 152.882725 
L 253.128369 156.547983 
L 246.131049 162.989229 
z
" style="fill:#230254;"/>
    <path clip-path="url(#peef3553564)" d="M 221.002748 155.562072 
L 220.993011 149.664029 
L 233.526893 153.337183 
L 233.500008 159.25588 
z
" style="fill:#16023f;"/>
    <path clip-path="url(#peef3553564)" d="M 213.718049 161.984967 
L 221.002748 155.562072 
L 221.002259 155.266076 
L 213.716478 161.68718 
z
" style="fill:#050338;"/>
    <path clip-path="url(#peef3553564)" d="M 253.128369 156.547983 
L 253.229648 149.443459 
L 265.961449 153.122889 
L 265.814761 160.252323 
z
" style="fill:#190241;"/>
    <path clip-path="url(#peef3553564)" d="M 181.397755 160.983577 
L 188.96817 154.578956 
L 201.27732 158.262275 
L 193.780682 164.735494 
z
" style="fill:#070448;"/>
    <path clip-path="url(#peef3553564)" d="M 181.394197 160.816598 
L 193.778136 164.567931 
L 201.275416 158.095721 
L 188.965266 154.41298 
z
" style="fill:#0a0667;"/>
    <path clip-path="url(#peef3553564)" d="M 213.718049 161.984967 
L 213.68676 156.051085 
L 220.993011 149.664029 
L 221.002748 155.562072 
z
" style="fill:#2f0486;"/>
    <path clip-path="url(#peef3553564)" d="M 201.27732 158.262275 
L 213.718049 161.984967 
L 213.716478 161.68718 
L 201.273928 157.965524 
z
" style="fill:#0b0777;"/>
    <path clip-path="url(#peef3553564)" d="M 201.27732 158.262275 
L 201.272891 157.874777 
L 213.715998 161.596116 
L 213.718049 161.984967 
z
" style="fill:#070339;"/>
    <path clip-path="url(#peef3553564)" d="M 213.718049 161.984967 
L 221.002748 155.562072 
L 233.500008 159.25588 
L 226.292478 165.747667 
z
" style="fill:#1c0251;"/>
    <path clip-path="url(#peef3553564)" d="M 233.538022 150.887274 
L 246.22196 154.591218 
L 253.247362 148.200808 
L 240.642582 144.564697 
z
" style="fill:#320378;"/>
    <path clip-path="url(#peef3553564)" d="M 246.131049 162.989229 
L 246.208425 155.841478 
L 253.229648 149.443459 
L 253.128369 156.547983 
z
" style="fill:#350389;"/>
    <path clip-path="url(#peef3553564)" d="M 246.131049 162.989229 
L 253.128369 156.547983 
L 253.247362 148.200808 
L 246.22196 154.591218 
z
" style="fill:#1b0141;"/>
    <path clip-path="url(#peef3553564)" d="M 193.780682 164.735494 
L 201.27732 158.262275 
L 201.275416 158.095721 
L 193.778136 164.567931 
z
" style="fill:#050338;"/>
    <path clip-path="url(#peef3553564)" d="M 193.780682 164.735494 
L 193.774759 164.345649 
L 201.272891 157.874777 
L 201.27732 158.262275 
z
" style="fill:#0e0678;"/>
    <path clip-path="url(#peef3553564)" d="M 246.131049 162.989229 
L 253.128369 156.547983 
L 265.814761 160.252323 
L 258.898031 166.762758 
z
" style="fill:#200253;"/>
    <path clip-path="url(#peef3553564)" d="M 265.814761 160.252323 
L 265.827609 159.6279 
L 278.654064 163.36977 
L 278.637155 163.996376 
z
" style="fill:#070339;"/>
    <path clip-path="url(#peef3553564)" d="M 233.500008 159.25588 
L 246.131049 162.989229 
L 246.22196 154.591218 
L 233.538022 150.887274 
z
" style="fill:#39038b;"/>
    <path clip-path="url(#peef3553564)" d="M 213.68676 156.051085 
L 226.298266 159.79295 
L 233.526893 153.337183 
L 220.993011 149.664029 
z
" style="fill:#290375;"/>
    <path clip-path="url(#peef3553564)" d="M 181.397755 160.983577 
L 193.780682 164.735494 
L 193.778136 164.567931 
L 181.394197 160.816598 
z
" style="fill:#0b0777;"/>
    <path clip-path="url(#peef3553564)" d="M 181.397755 160.983577 
L 181.393502 160.784 
L 193.777639 164.535219 
L 193.780682 164.735494 
z
" style="fill:#050338;"/>
    <path clip-path="url(#peef3553564)" d="M 193.780682 164.735494 
L 201.27732 158.262275 
L 213.718049 161.984967 
L 206.297214 168.527892 
z
" style="fill:#090449;"/>
    <path clip-path="url(#peef3553564)" d="M 193.774759 164.345649 
L 206.293698 168.136682 
L 213.715998 161.596116 
L 201.272891 157.874777 
z
" style="fill:#0c0668;"/>
    <path clip-path="url(#peef3553564)" d="M 226.292478 165.747667 
L 233.500008 159.25588 
L 233.526893 153.337183 
L 226.298266 159.79295 
z
" style="fill:#16023f;"/>
    <path clip-path="url(#peef3553564)" d="M 258.898031 166.762758 
L 258.908836 166.134548 
L 265.827609 159.6279 
L 265.814761 160.252323 
z
" style="fill:#0e0678;"/>
    <path clip-path="url(#peef3553564)" d="M 246.208425 155.841478 
L 259.021401 159.589877 
L 265.961449 153.122889 
L 253.229648 149.443459 
z
" style="fill:#2e0377;"/>
    <path clip-path="url(#peef3553564)" d="M 173.686069 167.507715 
L 173.681005 167.306927 
L 181.393502 160.784 
L 181.397755 160.983577 
z
" style="fill:#0b0777;"/>
    <path clip-path="url(#peef3553564)" d="M 226.292478 165.747667 
L 233.500008 159.25588 
L 246.131049 162.989229 
L 239.002775 169.551023 
z
" style="fill:#490458;"/>
    <path clip-path="url(#peef3553564)" d="M 258.898031 166.762758 
L 265.814761 160.252323 
L 265.961449 153.122889 
L 259.021401 159.589877 
z
" style="fill:#190241;"/>
    <path clip-path="url(#peef3553564)" d="M 213.718049 161.984967 
L 226.292478 165.747667 
L 226.298266 159.79295 
L 213.68676 156.051085 
z
" style="fill:#2f0486;"/>
    <path clip-path="url(#peef3553564)" d="M 233.500008 159.25588 
L 233.605813 135.963752 
L 246.384089 139.614333 
L 246.131049 162.989229 
z
" style="fill:#390345;"/>
    <path clip-path="url(#peef3553564)" d="M 213.718049 161.984967 
L 213.676261 154.059964 
L 226.300208 157.794796 
L 226.292478 165.747667 
z
" style="fill:#1a0241;"/>
    <path clip-path="url(#peef3553564)" d="M 206.297214 168.527892 
L 213.718049 161.984967 
L 213.715998 161.596116 
L 206.293698 168.136682 
z
" style="fill:#070339;"/>
    <path clip-path="url(#peef3553564)" d="M 258.898031 166.762758 
L 265.814761 160.252323 
L 278.637155 163.996376 
L 271.803162 170.57712 
z
" style="fill:#090449;"/>
    <path clip-path="url(#peef3553564)" d="M 258.908836 166.134548 
L 271.818082 169.946709 
L 278.654064 163.36977 
L 265.827609 159.6279 
z
" style="fill:#0c0668;"/>
    <path clip-path="url(#peef3553564)" d="M 278.637155 163.996376 
L 278.641819 163.823535 
L 291.603557 167.607336 
L 291.597749 167.780781 
z
" style="fill:#050338;"/>
    <path clip-path="url(#peef3553564)" d="M 246.131049 162.989229 
L 258.898031 166.762758 
L 259.021401 159.589877 
L 246.208425 155.841478 
z
" style="fill:#350389;"/>
    <path clip-path="url(#peef3553564)" d="M 173.686069 167.507715 
L 181.397755 160.983577 
L 193.780682 164.735494 
L 186.143392 171.330164 
z
" style="fill:#070448;"/>
    <path clip-path="url(#peef3553564)" d="M 173.681005 167.306927 
L 186.139554 171.128672 
L 193.777639 164.535219 
L 181.393502 160.784 
z
" style="fill:#0a0667;"/>
    <path clip-path="url(#peef3553564)" d="M 226.292478 165.747667 
L 226.315258 142.311906 
L 233.605813 135.963752 
L 233.500008 159.25588 
z
" style="fill:#780792;"/>
    <path clip-path="url(#peef3553564)" d="M 206.297214 168.527892 
L 206.225561 160.554531 
L 213.676261 154.059964 
L 213.718049 161.984967 
z
" style="fill:#38038a;"/>
    <path clip-path="url(#peef3553564)" d="M 193.780682 164.735494 
L 206.297214 168.527892 
L 206.293698 168.136682 
L 193.774759 164.345649 
z
" style="fill:#0e0678;"/>
    <path clip-path="url(#peef3553564)" d="M 193.780682 164.735494 
L 193.773521 164.264161 
L 206.292963 168.054909 
L 206.297214 168.527892 
z
" style="fill:#070339;"/>
    <path clip-path="url(#peef3553564)" d="M 206.297214 168.527892 
L 213.718049 161.984967 
L 226.292478 165.747667 
L 218.949524 172.361429 
z
" style="fill:#220253;"/>
    <path clip-path="url(#peef3553564)" d="M 271.803162 170.57712 
L 271.807278 170.40323 
L 278.641819 163.823535 
L 278.637155 163.996376 
z
" style="fill:#0b0777;"/>
    <path clip-path="url(#peef3553564)" d="M 271.803162 170.57712 
L 278.637155 163.996376 
L 278.654064 163.36977 
L 271.818082 169.946709 
z
" style="fill:#070339;"/>
    <path clip-path="url(#peef3553564)" d="M 186.143392 171.330164 
L 193.780682 164.735494 
L 193.777639 164.535219 
L 186.139554 171.128672 
z
" style="fill:#050338;"/>
    <path clip-path="url(#peef3553564)" d="M 186.143392 171.330164 
L 186.134358 170.855967 
L 193.773521 164.264161 
L 193.780682 164.735494 
z
" style="fill:#0e0678;"/>
    <path clip-path="url(#peef3553564)" d="M 239.002775 169.551023 
L 246.131049 162.989229 
L 258.898031 166.762758 
L 251.851153 173.395697 
z
" style="fill:#41015a;"/>
    <path clip-path="url(#peef3553564)" d="M 246.131049 162.989229 
L 246.345873 143.144567 
L 259.24056 146.847649 
L 258.898031 166.762758 
z
" style="fill:#330146;"/>
    <path clip-path="url(#peef3553564)" d="M 258.898031 166.762758 
L 271.803162 170.57712 
L 271.818082 169.946709 
L 258.908836 166.134548 
z
" style="fill:#0e0678;"/>
    <path clip-path="url(#peef3553564)" d="M 258.898031 166.762758 
L 258.919856 165.493866 
L 271.833298 169.30378 
L 271.803162 170.57712 
z
" style="fill:#09033a;"/>
    <path clip-path="url(#peef3553564)" d="M 271.803162 170.57712 
L 278.637155 163.996376 
L 291.597749 167.780781 
L 284.848695 174.43298 
z
" style="fill:#070448;"/>
    <path clip-path="url(#peef3553564)" d="M 271.807278 170.40323 
L 284.85397 174.258481 
L 291.603557 167.607336 
L 278.641819 163.823535 
z
" style="fill:#0a0667;"/>
    <path clip-path="url(#peef3553564)" d="M 173.686069 167.507715 
L 173.681354 167.320747 
L 186.139818 171.14254 
L 186.143392 171.330164 
z
" style="fill:#050338;"/>
    <path clip-path="url(#peef3553564)" d="M 173.686069 167.507715 
L 186.143392 171.330164 
L 186.139554 171.128672 
L 173.681005 167.306927 
z
" style="fill:#0b0777;"/>
    <path clip-path="url(#peef3553564)" d="M 291.597749 167.780781 
L 291.60045 167.700132 
L 304.702034 171.525265 
L 304.698789 171.606197 
z
" style="fill:#050338;"/>
    <path clip-path="url(#peef3553564)" d="M 239.002775 169.551023 
L 239.148697 149.584112 
L 246.345873 143.144567 
L 246.131049 162.989229 
z
" style="fill:#6c0295;"/>
    <path clip-path="url(#peef3553564)" d="M 186.143392 171.330164 
L 193.780682 164.735494 
L 206.297214 168.527892 
L 198.736391 175.194243 
z
" style="fill:#090449;"/>
    <path clip-path="url(#peef3553564)" d="M 206.225561 160.554531 
L 218.928005 164.359956 
L 226.300208 157.794796 
L 213.676261 154.059964 
z
" style="fill:#300378;"/>
    <path clip-path="url(#peef3553564)" d="M 186.134358 170.855967 
L 198.730303 174.718383 
L 206.292963 168.054909 
L 193.773521 164.264161 
z
" style="fill:#0c0668;"/>
    <path clip-path="url(#peef3553564)" d="M 251.851153 173.395697 
L 251.86869 172.119087 
L 258.919856 165.493866 
L 258.898031 166.762758 
z
" style="fill:#13067a;"/>
    <path clip-path="url(#peef3553564)" d="M 239.002775 169.551023 
L 246.131049 162.989229 
L 246.384089 139.614333 
L 239.174659 146.031746 
z
" style="fill:#390345;"/>
    <path clip-path="url(#peef3553564)" d="M 218.949524 172.361429 
L 226.292478 165.747667 
L 226.300208 157.794796 
L 218.928005 164.359956 
z
" style="fill:#1a0241;"/>
    <path clip-path="url(#peef3553564)" d="M 165.82912 174.154745 
L 165.823623 173.96664 
L 173.681354 167.320747 
L 173.686069 167.507715 
z
" style="fill:#0b0777;"/>
    <path clip-path="url(#peef3553564)" d="M 218.949524 172.361429 
L 226.292478 165.747667 
L 239.002775 169.551023 
L 231.739835 176.23678 
z
" style="fill:#6b2442;"/>
    <path clip-path="url(#peef3553564)" d="M 284.848695 174.43298 
L 284.851148 174.351841 
L 291.60045 167.700132 
L 291.597749 167.780781 
z
" style="fill:#0b0777;"/>
    <path clip-path="url(#peef3553564)" d="M 284.848695 174.43298 
L 291.597749 167.780781 
L 291.603557 167.607336 
L 284.85397 174.258481 
z
" style="fill:#050338;"/>
    <path clip-path="url(#peef3553564)" d="M 226.292478 165.747667 
L 239.002775 169.551023 
L 239.174659 146.031746 
L 226.315258 142.311906 
z
" style="fill:#780792;"/>
    <path clip-path="url(#peef3553564)" d="M 206.297214 168.527892 
L 218.949524 172.361429 
L 218.928005 164.359956 
L 206.225561 160.554531 
z
" style="fill:#38038a;"/>
    <path clip-path="url(#peef3553564)" d="M 206.297214 168.527892 
L 206.224834 160.473691 
L 218.927787 164.27883 
L 218.949524 172.361429 
z
" style="fill:#1a0241;"/>
    <path clip-path="url(#peef3553564)" d="M 198.736391 175.194243 
L 206.297214 168.527892 
L 206.292963 168.054909 
L 198.730303 174.718383 
z
" style="fill:#070339;"/>
    <path clip-path="url(#peef3553564)" d="M 251.851153 173.395697 
L 258.898031 166.762758 
L 271.803162 170.57712 
L 264.839875 177.282368 
z
" style="fill:#0c044a;"/>
    <path clip-path="url(#peef3553564)" d="M 251.86869 172.119087 
L 264.865833 176.001272 
L 271.833298 169.30378 
L 258.919856 165.493866 
z
" style="fill:#11056a;"/>
    <path clip-path="url(#peef3553564)" d="M 271.803162 170.57712 
L 284.848695 174.43298 
L 284.85397 174.258481 
L 271.807278 170.40323 
z
" style="fill:#0b0777;"/>
    <path clip-path="url(#peef3553564)" d="M 271.803162 170.57712 
L 271.808525 170.350509 
L 284.85557 174.205574 
L 284.848695 174.43298 
z
" style="fill:#050338;"/>
    <path clip-path="url(#peef3553564)" d="M 226.315258 142.311906 
L 239.174659 146.031746 
L 246.384089 139.614333 
L 233.605813 135.963752 
z
" style="fill:#69067f;"/>
    <path clip-path="url(#peef3553564)" d="M 165.82912 174.154745 
L 173.686069 167.507715 
L 186.143392 171.330164 
L 178.361455 178.049733 
z
" style="fill:#070448;"/>
    <path clip-path="url(#peef3553564)" d="M 165.823623 173.96664 
L 178.357112 177.860968 
L 186.139818 171.14254 
L 173.681354 167.320747 
z
" style="fill:#0a0667;"/>
    <path clip-path="url(#peef3553564)" d="M 284.848695 174.43298 
L 291.597749 167.780781 
L 304.698789 171.606197 
L 298.036935 178.33102 
z
" style="fill:#070448;"/>
    <path clip-path="url(#peef3553564)" d="M 284.851148 174.351841 
L 298.039938 178.249596 
L 304.702034 171.525265 
L 291.60045 167.700132 
z
" style="fill:#0a0667;"/>
    <path clip-path="url(#peef3553564)" d="M 198.736391 175.194243 
L 198.632706 167.090765 
L 206.224834 160.473691 
L 206.297214 168.527892 
z
" style="fill:#38038a;"/>
    <path clip-path="url(#peef3553564)" d="M 186.143392 171.330164 
L 198.736391 175.194243 
L 198.730303 174.718383 
L 186.134358 170.855967 
z
" style="fill:#0e0678;"/>
    <path clip-path="url(#peef3553564)" d="M 186.143392 171.330164 
L 186.13311 170.790476 
L 198.729462 174.652662 
L 198.736391 175.194243 
z
" style="fill:#070339;"/>
    <path clip-path="url(#peef3553564)" d="M 251.851153 173.395697 
L 258.898031 166.762758 
L 259.24056 146.847649 
L 252.126429 153.357712 
z
" style="fill:#330146;"/>
    <path clip-path="url(#peef3553564)" d="M 198.736391 175.194243 
L 206.297214 168.527892 
L 218.949524 172.361429 
L 211.467294 179.100638 
z
" style="fill:#220253;"/>
    <path clip-path="url(#peef3553564)" d="M 264.839875 177.282368 
L 264.844495 177.054377 
L 271.808525 170.350509 
L 271.803162 170.57712 
z
" style="fill:#0b0777;"/>
    <path clip-path="url(#peef3553564)" d="M 264.839875 177.282368 
L 271.803162 170.57712 
L 271.833298 169.30378 
L 264.865833 176.001272 
z
" style="fill:#09033a;"/>
    <path clip-path="url(#peef3553564)" d="M 178.361455 178.049733 
L 186.143392 171.330164 
L 186.139818 171.14254 
L 178.357112 177.860968 
z
" style="fill:#050338;"/>
    <path clip-path="url(#peef3553564)" d="M 178.361455 178.049733 
L 178.348961 177.50676 
L 186.13311 170.790476 
L 186.143392 171.330164 
z
" style="fill:#0e0678;"/>
    <path clip-path="url(#peef3553564)" d="M 231.739835 176.23678 
L 239.002775 169.551023 
L 251.851153 173.395697 
L 244.670417 180.154631 
z
" style="fill:#621b49;"/>
    <path clip-path="url(#peef3553564)" d="M 226.292478 165.747667 
L 226.332303 124.775394 
L 239.303291 128.430802 
L 239.002775 169.551023 
z
" style="fill:#531c33;"/>
    <path clip-path="url(#peef3553564)" d="M 298.036935 178.33102 
L 304.698789 171.606197 
L 304.702034 171.525265 
L 298.039938 178.249596 
z
" style="fill:#050338;"/>
    <path clip-path="url(#peef3553564)" d="M 239.002775 169.551023 
L 251.851153 173.395697 
L 252.126429 153.357712 
L 239.148697 149.584112 
z
" style="fill:#6c0295;"/>
    <path clip-path="url(#peef3553564)" d="M 239.148697 149.584112 
L 252.126429 153.357712 
L 259.24056 146.847649 
L 246.345873 143.144567 
z
" style="fill:#5d0181;"/>
    <path clip-path="url(#peef3553564)" d="M 251.851153 173.395697 
L 264.839875 177.282368 
L 264.865833 176.001272 
L 251.86869 172.119087 
z
" style="fill:#13067a;"/>
    <path clip-path="url(#peef3553564)" d="M 264.839875 177.282368 
L 271.803162 170.57712 
L 284.848695 174.43298 
L 277.971253 181.211726 
z
" style="fill:#070448;"/>
    <path clip-path="url(#peef3553564)" d="M 264.844495 177.054377 
L 277.977404 180.982934 
L 284.85557 174.205574 
L 271.808525 170.350509 
z
" style="fill:#0a0667;"/>
    <path clip-path="url(#peef3553564)" d="M 251.851153 173.395697 
L 251.898824 169.925629 
L 264.910435 173.800085 
L 264.839875 177.282368 
z
" style="fill:#10023d;"/>
    <path clip-path="url(#peef3553564)" d="M 165.82912 174.154745 
L 178.361455 178.049733 
L 178.357112 177.860968 
L 165.823623 173.96664 
z
" style="fill:#0b0777;"/>
    <path clip-path="url(#peef3553564)" d="M 165.82912 174.154745 
L 165.822685 173.934543 
L 178.356371 177.828759 
L 178.361455 178.049733 
z
" style="fill:#050338;"/>
    <path clip-path="url(#peef3553564)" d="M 218.949524 172.361429 
L 218.838644 131.132403 
L 226.332303 124.775394 
L 226.292478 165.747667 
z
" style="fill:#b03b6d;"/>
    <path clip-path="url(#peef3553564)" d="M 284.848695 174.43298 
L 298.036935 178.33102 
L 298.039938 178.249596 
L 284.851148 174.351841 
z
" style="fill:#0b0777;"/>
    <path clip-path="url(#peef3553564)" d="M 284.848695 174.43298 
L 284.852256 174.315174 
L 298.041296 178.212801 
L 298.036935 178.33102 
z
" style="fill:#050338;"/>
    <path clip-path="url(#peef3553564)" d="M 178.361455 178.049733 
L 186.143392 171.330164 
L 198.736391 175.194243 
L 191.031582 181.987547 
z
" style="fill:#090449;"/>
    <path clip-path="url(#peef3553564)" d="M 198.632706 167.090765 
L 211.414881 170.968517 
L 218.927787 164.27883 
L 206.224834 160.473691 
z
" style="fill:#300378;"/>
    <path clip-path="url(#peef3553564)" d="M 178.348961 177.50676 
L 191.022481 181.442664 
L 198.729462 174.652662 
L 186.13311 170.790476 
z
" style="fill:#0c0668;"/>
    <path clip-path="url(#peef3553564)" d="M 211.467294 179.100638 
L 218.949524 172.361429 
L 218.927787 164.27883 
L 211.414881 170.968517 
z
" style="fill:#1a0241;"/>
    <path clip-path="url(#peef3553564)" d="M 244.670417 180.154631 
L 244.705981 176.66337 
L 251.898824 169.925629 
L 251.851153 173.395697 
z
" style="fill:#210581;"/>
    <path clip-path="url(#peef3553564)" d="M 157.822766 180.928173 
L 157.815381 180.70663 
L 165.822685 173.934543 
L 165.82912 174.154745 
z
" style="fill:#0b0777;"/>
    <path clip-path="url(#peef3553564)" d="M 211.467294 179.100638 
L 218.949524 172.361429 
L 231.739835 176.23678 
L 224.338378 183.050047 
z
" style="fill:#7f412c;"/>
    <path clip-path="url(#peef3553564)" d="M 277.971253 181.211726 
L 277.974439 181.093202 
L 284.852256 174.315174 
L 284.848695 174.43298 
z
" style="fill:#0b0777;"/>
    <path clip-path="url(#peef3553564)" d="M 277.971253 181.211726 
L 284.848695 174.43298 
L 284.85557 174.205574 
L 277.977404 180.982934 
z
" style="fill:#050338;"/>
    <path clip-path="url(#peef3553564)" d="M 239.002775 169.551023 
L 239.266934 133.405619 
L 252.349498 137.12004 
L 251.851153 173.395697 
z
" style="fill:#4d1539;"/>
    <path clip-path="url(#peef3553564)" d="M 198.736391 175.194243 
L 211.467294 179.100638 
L 211.414881 170.968517 
L 198.632706 167.090765 
z
" style="fill:#38038a;"/>
    <path clip-path="url(#peef3553564)" d="M 198.736391 175.194243 
L 198.628378 166.752515 
L 211.412693 170.629063 
L 211.467294 179.100638 
z
" style="fill:#1b0141;"/>
    <path clip-path="url(#peef3553564)" d="M 191.031582 181.987547 
L 198.736391 175.194243 
L 198.729462 174.652662 
L 191.022481 181.442664 
z
" style="fill:#070339;"/>
    <path clip-path="url(#peef3553564)" d="M 244.670417 180.154631 
L 251.851153 173.395697 
L 264.839875 177.282368 
L 257.743589 184.115686 
z
" style="fill:#14034e;"/>
    <path clip-path="url(#peef3553564)" d="M 264.839875 177.282368 
L 277.971253 181.211726 
L 277.977404 180.982934 
L 264.844495 177.054377 
z
" style="fill:#0b0777;"/>
    <path clip-path="url(#peef3553564)" d="M 264.839875 177.282368 
L 264.849181 176.823106 
L 277.983644 180.750849 
L 277.971253 181.211726 
z
" style="fill:#070339;"/>
    <path clip-path="url(#peef3553564)" d="M 231.739835 176.23678 
L 231.874445 139.865336 
L 239.266934 133.405619 
L 239.002775 169.551023 
z
" style="fill:#a32c79;"/>
    <path clip-path="url(#peef3553564)" d="M 157.822766 180.928173 
L 165.82912 174.154745 
L 178.361455 178.049733 
L 170.430723 184.897786 
z
" style="fill:#070448;"/>
    <path clip-path="url(#peef3553564)" d="M 157.815381 180.70663 
L 170.424704 184.675463 
L 178.356371 177.828759 
L 165.822685 173.934543 
z
" style="fill:#0a0667;"/>
    <path clip-path="url(#peef3553564)" d="M 277.971253 181.211726 
L 284.848695 174.43298 
L 298.036935 178.33102 
L 291.24765 185.184478 
z
" style="fill:#070448;"/>
    <path clip-path="url(#peef3553564)" d="M 277.974439 181.093202 
L 291.251647 185.065537 
L 298.041296 178.212801 
L 284.852256 174.315174 
z
" style="fill:#0a0667;"/>
    <path clip-path="url(#peef3553564)" d="M 244.705981 176.66337 
L 257.802343 180.612108 
L 264.910435 173.800085 
L 251.898824 169.925629 
z
" style="fill:#1d0470;"/>
    <path clip-path="url(#peef3553564)" d="M 191.031582 181.987547 
L 190.88972 173.49403 
L 198.628378 166.752515 
L 198.736391 175.194243 
z
" style="fill:#39038b;"/>
    <path clip-path="url(#peef3553564)" d="M 178.361455 178.049733 
L 191.031582 181.987547 
L 191.022481 181.442664 
L 178.348961 177.50676 
z
" style="fill:#0e0678;"/>
    <path clip-path="url(#peef3553564)" d="M 178.361455 178.049733 
L 178.345375 177.350906 
L 191.019869 181.286262 
L 191.031582 181.987547 
z
" style="fill:#070339;"/>
    <path clip-path="url(#peef3553564)" d="M 231.739835 176.23678 
L 239.002775 169.551023 
L 239.303291 128.430802 
L 231.892975 134.858439 
z
" style="fill:#531c33;"/>
    <path clip-path="url(#peef3553564)" d="M 191.031582 181.987547 
L 198.736391 175.194243 
L 211.467294 179.100638 
L 203.841786 185.968896 
z
" style="fill:#230254;"/>
    <path clip-path="url(#peef3553564)" d="M 257.743589 184.115686 
L 257.751337 183.653622 
L 264.849181 176.823106 
L 264.839875 177.282368 
z
" style="fill:#0e0678;"/>
    <path clip-path="url(#peef3553564)" d="M 257.743589 184.115686 
L 264.839875 177.282368 
L 264.910435 173.800085 
L 257.802343 180.612108 
z
" style="fill:#10023d;"/>
    <path clip-path="url(#peef3553564)" d="M 170.430723 184.897786 
L 178.361455 178.049733 
L 178.356371 177.828759 
L 170.424704 184.675463 
z
" style="fill:#050338;"/>
    <path clip-path="url(#peef3553564)" d="M 170.430723 184.897786 
L 170.411688 184.194694 
L 178.345375 177.350906 
L 178.361455 178.049733 
z
" style="fill:#0e0678;"/>
    <path clip-path="url(#peef3553564)" d="M 224.338378 183.050047 
L 231.739835 176.23678 
L 244.670417 180.154631 
L 237.351973 187.043183 
z
" style="fill:#7d3d2f;"/>
    <path clip-path="url(#peef3553564)" d="M 218.949524 172.361429 
L 231.739835 176.23678 
L 231.892975 134.858439 
L 218.838644 131.132403 
z
" style="fill:#b03b6d;"/>
    <path clip-path="url(#peef3553564)" d="M 291.24765 185.184478 
L 298.036935 178.33102 
L 298.041296 178.212801 
L 291.251647 185.065537 
z
" style="fill:#050338;"/>
    <path clip-path="url(#peef3553564)" d="M 257.743589 184.115686 
L 264.839875 177.282368 
L 277.971253 181.211726 
L 270.961723 188.120663 
z
" style="fill:#090449;"/>
    <path clip-path="url(#peef3553564)" d="M 244.670417 180.154631 
L 257.743589 184.115686 
L 257.802343 180.612108 
L 244.705981 176.66337 
z
" style="fill:#210581;"/>
    <path clip-path="url(#peef3553564)" d="M 257.751337 183.653622 
L 270.972598 187.656971 
L 277.983644 180.750849 
L 264.849181 176.823106 
z
" style="fill:#0c0668;"/>
    <path clip-path="url(#peef3553564)" d="M 157.822766 180.928173 
L 170.430723 184.897786 
L 170.424704 184.675463 
L 157.815381 180.70663 
z
" style="fill:#0b0777;"/>
    <path clip-path="url(#peef3553564)" d="M 157.822766 180.928173 
L 157.814367 180.676224 
L 170.423878 184.644951 
L 170.430723 184.897786 
z
" style="fill:#050338;"/>
    <path clip-path="url(#peef3553564)" d="M 277.971253 181.211726 
L 291.24765 185.184478 
L 291.251647 185.065537 
L 277.974439 181.093202 
z
" style="fill:#0b0777;"/>
    <path clip-path="url(#peef3553564)" d="M 277.971253 181.211726 
L 277.977096 180.994374 
L 291.25498 184.966362 
L 291.24765 185.184478 
z
" style="fill:#050338;"/>
    <path clip-path="url(#peef3553564)" d="M 244.670417 180.154631 
L 251.851153 173.395697 
L 252.349498 137.12004 
L 245.042258 143.65175 
z
" style="fill:#4d1539;"/>
    <path clip-path="url(#peef3553564)" d="M 244.670417 180.154631 
L 244.741881 173.139167 
L 257.861652 177.075404 
L 257.743589 184.115686 
z
" style="fill:#180240;"/>
    <path clip-path="url(#peef3553564)" d="M 170.430723 184.897786 
L 178.361455 178.049733 
L 191.031582 181.987547 
L 183.178635 188.911464 
z
" style="fill:#090449;"/>
    <path clip-path="url(#peef3553564)" d="M 190.88972 173.49403 
L 203.754001 177.445279 
L 211.412693 170.629063 
L 198.628378 166.752515 
z
" style="fill:#320378;"/>
    <path clip-path="url(#peef3553564)" d="M 170.411688 184.194694 
L 183.16402 188.205893 
L 191.019869 181.286262 
L 178.345375 177.350906 
z
" style="fill:#0c0668;"/>
    <path clip-path="url(#peef3553564)" d="M 203.841786 185.968896 
L 211.467294 179.100638 
L 211.412693 170.629063 
L 203.754001 177.445279 
z
" style="fill:#1b0141;"/>
    <path clip-path="url(#peef3553564)" d="M 149.662704 187.831639 
L 149.653184 187.578152 
L 157.814367 180.676224 
L 157.822766 180.928173 
z
" style="fill:#0b0777;"/>
    <path clip-path="url(#peef3553564)" d="M 218.949524 172.361429 
L 218.796133 115.325572 
L 231.951696 118.991899 
L 231.739835 176.23678 
z
" style="fill:#633322;"/>
    <path clip-path="url(#peef3553564)" d="M 203.841786 185.968896 
L 211.467294 179.100638 
L 224.338378 183.050047 
L 216.794403 189.994506 
z
" style="fill:#834d24;"/>
    <path clip-path="url(#peef3553564)" d="M 270.961723 188.120663 
L 270.966852 187.901984 
L 277.977096 180.994374 
L 277.971253 181.211726 
z
" style="fill:#0b0777;"/>
    <path clip-path="url(#peef3553564)" d="M 231.739835 176.23678 
L 244.670417 180.154631 
L 245.042258 143.65175 
L 231.874445 139.865336 
z
" style="fill:#a32c79;"/>
    <path clip-path="url(#peef3553564)" d="M 270.961723 188.120663 
L 277.971253 181.211726 
L 277.983644 180.750849 
L 270.972598 187.656971 
z
" style="fill:#070339;"/>
    <path clip-path="url(#peef3553564)" d="M 237.351973 187.043183 
L 237.398153 179.984657 
L 244.741881 173.139167 
L 244.670417 180.154631 
z
" style="fill:#330488;"/>
    <path clip-path="url(#peef3553564)" d="M 191.031582 181.987547 
L 190.889986 173.509998 
L 203.754166 177.461304 
L 203.841786 185.968896 
z
" style="fill:#1b0141;"/>
    <path clip-path="url(#peef3553564)" d="M 191.031582 181.987547 
L 203.841786 185.968896 
L 203.754001 177.445279 
L 190.88972 173.49403 
z
" style="fill:#39038b;"/>
    <path clip-path="url(#peef3553564)" d="M 218.838644 131.132403 
L 231.892975 134.858439 
L 239.303291 128.430802 
L 226.332303 124.775394 
z
" style="fill:#99335f;"/>
    <path clip-path="url(#peef3553564)" d="M 183.178635 188.911464 
L 191.031582 181.987547 
L 191.019869 181.286262 
L 183.16402 188.205893 
z
" style="fill:#070339;"/>
    <path clip-path="url(#peef3553564)" d="M 237.351973 187.043183 
L 244.670417 180.154631 
L 257.743589 184.115686 
L 250.510457 191.080779 
z
" style="fill:#1f0252;"/>
    <path clip-path="url(#peef3553564)" d="M 211.467294 179.100638 
L 211.09735 121.702022 
L 218.796133 115.325572 
L 218.949524 172.361429 
z
" style="fill:#d26c49;"/>
    <path clip-path="url(#peef3553564)" d="M 257.743589 184.115686 
L 270.961723 188.120663 
L 270.972598 187.656971 
L 257.751337 183.653622 
z
" style="fill:#0e0678;"/>
    <path clip-path="url(#peef3553564)" d="M 257.743589 184.115686 
L 257.759135 183.188647 
L 270.983541 187.190356 
L 270.961723 188.120663 
z
" style="fill:#080339;"/>
    <path clip-path="url(#peef3553564)" d="M 149.662704 187.831639 
L 157.822766 180.928173 
L 170.430723 184.897786 
L 162.346885 191.878042 
z
" style="fill:#070448;"/>
    <path clip-path="url(#peef3553564)" d="M 149.653184 187.578152 
L 162.338937 191.623661 
L 170.423878 184.644951 
L 157.814367 180.676224 
z
" style="fill:#0a0667;"/>
    <path clip-path="url(#peef3553564)" d="M 270.961723 188.120663 
L 277.971253 181.211726 
L 291.24765 185.184478 
L 284.327244 192.170297 
z
" style="fill:#070448;"/>
    <path clip-path="url(#peef3553564)" d="M 270.966852 187.901984 
L 284.33388 191.950847 
L 291.25498 184.966362 
L 277.977096 180.994374 
z
" style="fill:#0a0667;"/>
    <path clip-path="url(#peef3553564)" d="M 183.178635 188.911464 
L 183.001964 180.381787 
L 190.889986 173.509998 
L 191.031582 181.987547 
z
" style="fill:#39038b;"/>
    <path clip-path="url(#peef3553564)" d="M 170.430723 184.897786 
L 183.178635 188.911464 
L 183.16402 188.205893 
L 170.411688 184.194694 
z
" style="fill:#0e0678;"/>
    <path clip-path="url(#peef3553564)" d="M 170.430723 184.897786 
L 170.410524 184.151691 
L 183.163127 188.162739 
L 183.178635 188.911464 
z
" style="fill:#080339;"/>
    <path clip-path="url(#peef3553564)" d="M 183.178635 188.911464 
L 191.031582 181.987547 
L 203.841786 185.968896 
L 196.068846 192.969946 
z
" style="fill:#230254;"/>
    <path clip-path="url(#peef3553564)" d="M 250.510457 191.080779 
L 250.522754 190.148069 
L 257.759135 183.188647 
L 257.743589 184.115686 
z
" style="fill:#110679;"/>
    <path clip-path="url(#peef3553564)" d="M 231.874445 139.865336 
L 245.042258 143.65175 
L 252.349498 137.12004 
L 239.266934 133.405619 
z
" style="fill:#8d2669;"/>
    <path clip-path="url(#peef3553564)" d="M 231.739835 176.23678 
L 231.944624 120.902898 
L 245.236148 124.617898 
L 244.670417 180.154631 
z
" style="fill:#613024;"/>
    <path clip-path="url(#peef3553564)" d="M 237.398153 179.984657 
L 250.603851 183.997226 
L 257.861652 177.075404 
L 244.741881 173.139167 
z
" style="fill:#2d0376;"/>
    <path clip-path="url(#peef3553564)" d="M 162.346885 191.878042 
L 170.430723 184.897786 
L 170.423878 184.644951 
L 162.338937 191.623661 
z
" style="fill:#050338;"/>
    <path clip-path="url(#peef3553564)" d="M 162.346885 191.878042 
L 162.323433 191.127383 
L 170.410524 184.151691 
L 170.430723 184.897786 
z
" style="fill:#110679;"/>
    <path clip-path="url(#peef3553564)" d="M 216.794403 189.994506 
L 224.338378 183.050047 
L 237.351973 187.043183 
L 229.891821 194.06512 
z
" style="fill:#875e1a;"/>
    <path clip-path="url(#peef3553564)" d="M 284.327244 192.170297 
L 291.24765 185.184478 
L 291.25498 184.966362 
L 284.33388 191.950847 
z
" style="fill:#050338;"/>
    <path clip-path="url(#peef3553564)" d="M 250.510457 191.080779 
L 257.743589 184.115686 
L 257.861652 177.075404 
L 250.603851 183.997226 
z
" style="fill:#180240;"/>
    <path clip-path="url(#peef3553564)" d="M 250.510457 191.080779 
L 257.743589 184.115686 
L 270.961723 188.120663 
L 263.816264 195.163579 
z
" style="fill:#0a0449;"/>
    <path clip-path="url(#peef3553564)" d="M 224.338378 183.050047 
L 224.338378 127.364125 
L 231.944624 120.902898 
L 231.739835 176.23678 
z
" style="fill:#ce654d;"/>
    <path clip-path="url(#peef3553564)" d="M 149.662704 187.831639 
L 149.655135 187.630097 
L 162.340566 191.675789 
L 162.346885 191.878042 
z
" style="fill:#050338;"/>
    <path clip-path="url(#peef3553564)" d="M 149.662704 187.831639 
L 162.346885 191.878042 
L 162.338937 191.623661 
L 149.653184 187.578152 
z
" style="fill:#0b0777;"/>
    <path clip-path="url(#peef3553564)" d="M 250.522754 190.148069 
L 263.834917 194.227575 
L 270.983541 187.190356 
L 257.759135 183.188647 
z
" style="fill:#0f0569;"/>
    <path clip-path="url(#peef3553564)" d="M 224.338378 183.050047 
L 231.739835 176.23678 
L 231.951696 118.991899 
L 224.338378 125.440443 
z
" style="fill:#633322;"/>
    <path clip-path="url(#peef3553564)" d="M 270.961723 188.120663 
L 284.327244 192.170297 
L 284.33388 191.950847 
L 270.966852 187.901984 
z
" style="fill:#0b0777;"/>
    <path clip-path="url(#peef3553564)" d="M 270.961723 188.120663 
L 270.967766 187.863014 
L 284.335063 191.911739 
L 284.327244 192.170297 
z
" style="fill:#050338;"/>
    <path clip-path="url(#peef3553564)" d="M 237.351973 187.043183 
L 250.510457 191.080779 
L 250.603851 183.997226 
L 237.398153 179.984657 
z
" style="fill:#330488;"/>
    <path clip-path="url(#peef3553564)" d="M 162.346885 191.878042 
L 170.430723 184.897786 
L 183.178635 188.911464 
L 175.173234 195.969799 
z
" style="fill:#0a0449;"/>
    <path clip-path="url(#peef3553564)" d="M 183.001964 180.381787 
L 195.946824 184.409974 
L 203.754166 177.461304 
L 190.889986 173.509998 
z
" style="fill:#320378;"/>
    <path clip-path="url(#peef3553564)" d="M 162.323433 191.127383 
L 175.15453 195.216488 
L 183.163127 188.162739 
L 170.410524 184.151691 
z
" style="fill:#0f0569;"/>
    <path clip-path="url(#peef3553564)" d="M 196.068846 192.969946 
L 203.841786 185.968896 
L 203.754166 177.461304 
L 195.946824 184.409974 
z
" style="fill:#1b0141;"/>
    <path clip-path="url(#peef3553564)" d="M 141.344465 194.868925 
L 141.335971 194.666149 
L 149.655135 187.630097 
L 149.662704 187.831639 
z
" style="fill:#0b0777;"/>
    <path clip-path="url(#peef3553564)" d="M 211.467294 179.100638 
L 224.338378 183.050047 
L 224.338378 125.440443 
L 211.09735 121.702022 
z
" style="fill:#d26c49;"/>
    <path clip-path="url(#peef3553564)" d="M 237.351973 187.043183 
L 237.438848 173.764673 
L 250.686154 177.754957 
L 250.510457 191.080779 
z
" style="fill:#250045;"/>
    <path clip-path="url(#peef3553564)" d="M 196.068846 192.969946 
L 203.841786 185.968896 
L 216.794403 189.994506 
L 209.103753 197.073984 
z
" style="fill:#86551f;"/>
    <path clip-path="url(#peef3553564)" d="M 263.816264 195.163579 
L 263.82143 194.904354 
L 270.967766 187.863014 
L 270.961723 188.120663 
z
" style="fill:#0b0777;"/>
    <path clip-path="url(#peef3553564)" d="M 263.816264 195.163579 
L 270.961723 188.120663 
L 270.983541 187.190356 
L 263.834917 194.227575 
z
" style="fill:#080339;"/>
    <path clip-path="url(#peef3553564)" d="M 183.178635 188.911464 
L 183.011735 180.853511 
L 195.953573 184.883384 
L 196.068846 192.969946 
z
" style="fill:#1a0241;"/>
    <path clip-path="url(#peef3553564)" d="M 183.178635 188.911464 
L 196.068846 192.969946 
L 195.946824 184.409974 
L 183.001964 180.381787 
z
" style="fill:#39038b;"/>
    <path clip-path="url(#peef3553564)" d="M 211.467294 179.100638 
L 211.058168 115.622821 
L 224.338378 119.337827 
L 224.338378 183.050047 
z
" style="fill:#673c1c;"/>
    <path clip-path="url(#peef3553564)" d="M 175.173234 195.969799 
L 183.178635 188.911464 
L 183.163127 188.162739 
L 175.15453 195.216488 
z
" style="fill:#080339;"/>
    <path clip-path="url(#peef3553564)" d="M 229.891821 194.06512 
L 237.351973 187.043183 
L 250.510457 191.080779 
L 243.136481 198.181496 
z
" style="fill:#300158;"/>
    <path clip-path="url(#peef3553564)" d="M 229.891821 194.06512 
L 229.929256 180.704519 
L 237.438848 173.764673 
L 237.351973 187.043183 
z
" style="fill:#4f0192;"/>
    <path clip-path="url(#peef3553564)" d="M 250.510457 191.080779 
L 263.816264 195.163579 
L 263.834917 194.227575 
L 250.522754 190.148069 
z
" style="fill:#110679;"/>
    <path clip-path="url(#peef3553564)" d="M 250.510457 191.080779 
L 250.524985 189.978898 
L 263.8383 194.057806 
L 263.816264 195.163579 
z
" style="fill:#09033a;"/>
    <path clip-path="url(#peef3553564)" d="M 141.344465 194.868925 
L 149.662704 187.831639 
L 162.346885 191.878042 
L 154.105465 198.994368 
z
" style="fill:#070448;"/>
    <path clip-path="url(#peef3553564)" d="M 141.335971 194.666149 
L 154.098237 198.790875 
L 162.340566 191.675789 
L 149.655135 187.630097 
z
" style="fill:#0a0667;"/>
    <path clip-path="url(#peef3553564)" d="M 263.816264 195.163579 
L 270.961723 188.120663 
L 284.327244 192.170297 
L 277.271882 199.292348 
z
" style="fill:#070448;"/>
    <path clip-path="url(#peef3553564)" d="M 237.351973 187.043183 
L 244.670417 180.154631 
L 245.236148 124.617898 
L 237.717641 131.152523 
z
" style="fill:#613024;"/>
    <path clip-path="url(#peef3553564)" d="M 263.82143 194.904354 
L 277.278848 199.032206 
L 284.335063 191.911739 
L 270.967766 187.863014 
z
" style="fill:#0a0667;"/>
    <path clip-path="url(#peef3553564)" d="M 175.173234 195.969799 
L 174.97193 187.862209 
L 183.011735 180.853511 
L 183.178635 188.911464 
z
" style="fill:#38038a;"/>
    <path clip-path="url(#peef3553564)" d="M 162.346885 191.878042 
L 162.326161 191.214706 
L 175.156706 195.30412 
L 175.173234 195.969799 
z
" style="fill:#070339;"/>
    <path clip-path="url(#peef3553564)" d="M 203.841786 185.968896 
L 203.183834 122.084275 
L 211.058168 115.622821 
L 211.467294 179.100638 
z
" style="fill:#da7f3c;"/>
    <path clip-path="url(#peef3553564)" d="M 162.346885 191.878042 
L 175.173234 195.969799 
L 175.15453 195.216488 
L 162.323433 191.127383 
z
" style="fill:#110679;"/>
    <path clip-path="url(#peef3553564)" d="M 175.173234 195.969799 
L 183.178635 188.911464 
L 196.068846 192.969946 
L 188.144156 200.107676 
z
" style="fill:#220253;"/>
    <path clip-path="url(#peef3553564)" d="M 243.136481 198.181496 
L 243.147018 197.072861 
L 250.524985 189.978898 
L 250.510457 191.080779 
z
" style="fill:#13067a;"/>
    <path clip-path="url(#peef3553564)" d="M 224.338378 183.050047 
L 237.351973 187.043183 
L 237.717641 131.152523 
L 224.338378 127.364125 
z
" style="fill:#ce654d;"/>
    <path clip-path="url(#peef3553564)" d="M 154.105465 198.994368 
L 162.346885 191.878042 
L 162.340566 191.675789 
L 154.098237 198.790875 
z
" style="fill:#050338;"/>
    <path clip-path="url(#peef3553564)" d="M 154.105465 198.994368 
L 154.081757 198.326966 
L 162.326161 191.214706 
L 162.346885 191.878042 
z
" style="fill:#0e0678;"/>
    <path clip-path="url(#peef3553564)" d="M 209.103753 197.073984 
L 216.794403 189.994506 
L 229.891821 194.06512 
L 222.285805 201.224351 
z
" style="fill:#866f14;"/>
    <path clip-path="url(#peef3553564)" d="M 277.271882 199.292348 
L 284.327244 192.170297 
L 284.335063 191.911739 
L 277.278848 199.032206 
z
" style="fill:#050338;"/>
    <path clip-path="url(#peef3553564)" d="M 243.136481 198.181496 
L 250.510457 191.080779 
L 263.816264 195.163579 
L 256.530882 202.34441 
z
" style="fill:#0c044a;"/>
    <path clip-path="url(#peef3553564)" d="M 141.344465 194.868925 
L 154.105465 198.994368 
L 154.098237 198.790875 
L 141.335971 194.666149 
z
" style="fill:#0b0777;"/>
    <path clip-path="url(#peef3553564)" d="M 243.136481 198.181496 
L 250.510457 191.080779 
L 250.686154 177.754957 
L 243.263913 184.77319 
z
" style="fill:#250045;"/>
    <path clip-path="url(#peef3553564)" d="M 243.147018 197.072861 
L 256.549028 201.231851 
L 263.8383 194.057806 
L 250.524985 189.978898 
z
" style="fill:#11056a;"/>
    <path clip-path="url(#peef3553564)" d="M 263.816264 195.163579 
L 277.271882 199.292348 
L 277.278848 199.032206 
L 263.82143 194.904354 
z
" style="fill:#0b0777;"/>
    <path clip-path="url(#peef3553564)" d="M 263.816264 195.163579 
L 263.822893 194.8309 
L 277.280821 198.958494 
L 277.271882 199.292348 
z
" style="fill:#050338;"/>
    <path clip-path="url(#peef3553564)" d="M 174.97193 187.862209 
L 187.995122 191.971243 
L 195.953573 184.883384 
L 183.011735 180.853511 
z
" style="fill:#300378;"/>
    <path clip-path="url(#peef3553564)" d="M 154.105465 198.994368 
L 162.346885 191.878042 
L 175.173234 195.969799 
L 167.010898 203.166503 
z
" style="fill:#090449;"/>
    <path clip-path="url(#peef3553564)" d="M 229.929256 180.704519 
L 243.263913 184.77319 
L 250.686154 177.754957 
L 237.438848 173.764673 
z
" style="fill:#44017e;"/>
    <path clip-path="url(#peef3553564)" d="M 154.081757 198.326966 
L 166.991436 202.49674 
L 175.156706 195.30412 
L 162.326161 191.214706 
z
" style="fill:#0c0668;"/>
    <path clip-path="url(#peef3553564)" d="M 188.144156 200.107676 
L 196.068846 192.969946 
L 195.953573 184.883384 
L 187.995122 191.971243 
z
" style="fill:#1a0241;"/>
    <path clip-path="url(#peef3553564)" d="M 224.338378 183.050047 
L 224.338378 111.484408 
L 237.821938 115.211252 
L 237.351973 187.043183 
z
" style="fill:#6a4a14;"/>
    <path clip-path="url(#peef3553564)" d="M 216.794403 189.994506 
L 224.338378 183.050047 
L 224.338378 119.337827 
L 216.550848 125.873279 
z
" style="fill:#673c1c;"/>
    <path clip-path="url(#peef3553564)" d="M 211.09735 121.702022 
L 224.338378 125.440443 
L 231.951696 118.991899 
L 218.796133 115.325572 
z
" style="fill:#b65d3f;"/>
    <path clip-path="url(#peef3553564)" d="M 229.891821 194.06512 
L 243.136481 198.181496 
L 243.263913 184.77319 
L 229.929256 180.704519 
z
" style="fill:#4f0192;"/>
    <path clip-path="url(#peef3553564)" d="M 188.144156 200.107676 
L 196.068846 192.969946 
L 209.103753 197.073984 
L 201.262108 204.292457 
z
" style="fill:#86551f;"/>
    <path clip-path="url(#peef3553564)" d="M 256.530882 202.34441 
L 256.536341 202.009691 
L 263.822893 194.8309 
L 263.816264 195.163579 
z
" style="fill:#0b0777;"/>
    <path clip-path="url(#peef3553564)" d="M 256.530882 202.34441 
L 263.816264 195.163579 
L 263.8383 194.057806 
L 256.549028 201.231851 
z
" style="fill:#09033a;"/>
    <path clip-path="url(#peef3553564)" d="M 175.173234 195.969799 
L 175.0292 190.168804 
L 188.037522 194.286082 
L 188.144156 200.107676 
z
" style="fill:#15023f;"/>
    <path clip-path="url(#peef3553564)" d="M 175.173234 195.969799 
L 188.144156 200.107676 
L 187.995122 191.971243 
L 174.97193 187.862209 
z
" style="fill:#38038a;"/>
    <path clip-path="url(#peef3553564)" d="M 216.794403 189.994506 
L 216.520816 117.96671 
L 224.338378 111.484408 
L 224.338378 183.050047 
z
" style="fill:#e09c2b;"/>
    <path clip-path="url(#peef3553564)" d="M 203.841786 185.968896 
L 216.794403 189.994506 
L 216.550848 125.873279 
L 203.183834 122.084275 
z
" style="fill:#da7f3c;"/>
    <path clip-path="url(#peef3553564)" d="M 167.010898 203.166503 
L 175.173234 195.969799 
L 175.156706 195.30412 
L 166.991436 202.49674 
z
" style="fill:#070339;"/>
    <path clip-path="url(#peef3553564)" d="M 222.285805 201.224351 
L 229.891821 194.06512 
L 243.136481 198.181496 
L 235.617509 205.421836 
z
" style="fill:#42015a;"/>
    <path clip-path="url(#peef3553564)" d="M 229.891821 194.06512 
L 229.950554 173.103021 
L 243.336419 177.144097 
L 243.136481 198.181496 
z
" style="fill:#330146;"/>
    <path clip-path="url(#peef3553564)" d="M 203.841786 185.968896 
L 203.146665 118.4753 
L 216.537086 122.250255 
L 216.794403 189.994506 
z
" style="fill:#684218;"/>
    <path clip-path="url(#peef3553564)" d="M 243.136481 198.181496 
L 256.530882 202.34441 
L 256.549028 201.231851 
L 243.147018 197.072861 
z
" style="fill:#13067a;"/>
    <path clip-path="url(#peef3553564)" d="M 243.136481 198.181496 
L 243.15346 196.39501 
L 256.560123 200.551598 
L 256.530882 202.34441 
z
" style="fill:#0b033b;"/>
    <path clip-path="url(#peef3553564)" d="M 167.010898 203.166503 
L 166.841301 197.32977 
L 175.0292 190.168804 
L 175.173234 195.969799 
z
" style="fill:#2d0486;"/>
    <path clip-path="url(#peef3553564)" d="M 256.530882 202.34441 
L 263.816264 195.163579 
L 277.271882 199.292348 
L 270.077576 206.554656 
z
" style="fill:#070448;"/>
    <path clip-path="url(#peef3553564)" d="M 256.536341 202.009691 
L 270.085376 206.218752 
L 277.280821 198.958494 
L 263.822893 194.8309 
z
" style="fill:#0a0667;"/>
    <path clip-path="url(#peef3553564)" d="M 154.105465 198.994368 
L 167.010898 203.166503 
L 166.991436 202.49674 
L 154.081757 198.326966 
z
" style="fill:#0e0678;"/>
    <path clip-path="url(#peef3553564)" d="M 222.285805 201.224351 
L 222.263883 180.131599 
L 229.950554 173.103021 
L 229.891821 194.06512 
z
" style="fill:#6d0294;"/>
    <path clip-path="url(#peef3553564)" d="M 167.010898 203.166503 
L 175.173234 195.969799 
L 188.144156 200.107676 
L 180.063228 207.386128 
z
" style="fill:#1b0251;"/>
    <path clip-path="url(#peef3553564)" d="M 224.338378 127.364125 
L 237.717641 131.152523 
L 245.236148 124.617898 
L 231.944624 120.902898 
z
" style="fill:#b35843;"/>
    <path clip-path="url(#peef3553564)" d="M 196.068846 192.969946 
L 195.100528 125.041343 
L 203.146665 118.4753 
L 203.841786 185.968896 
z
" style="fill:#dd8d33;"/>
    <path clip-path="url(#peef3553564)" d="M 235.617509 205.421836 
L 235.627797 203.624374 
L 243.15346 196.39501 
L 243.136481 198.181496 
z
" style="fill:#18057c;"/>
    <path clip-path="url(#peef3553564)" d="M 201.262108 204.292457 
L 209.103753 197.073984 
L 222.285805 201.224351 
L 214.529606 208.524945 
z
" style="fill:#808512;"/>
    <path clip-path="url(#peef3553564)" d="M 270.077576 206.554656 
L 277.271882 199.292348 
L 277.280821 198.958494 
L 270.085376 206.218752 
z
" style="fill:#050338;"/>
    <path clip-path="url(#peef3553564)" d="M 229.891821 194.06512 
L 237.351973 187.043183 
L 237.821938 115.211252 
L 230.094387 121.768508 
z
" style="fill:#6a4a14;"/>
    <path clip-path="url(#peef3553564)" d="M 166.841301 197.32977 
L 179.931497 201.528632 
L 188.037522 194.286082 
L 175.0292 190.168804 
z
" style="fill:#270374;"/>
    <path clip-path="url(#peef3553564)" d="M 235.617509 205.421836 
L 243.136481 198.181496 
L 256.530882 202.34441 
L 249.101427 209.667246 
z
" style="fill:#0e034b;"/>
    <path clip-path="url(#peef3553564)" d="M 256.530882 202.34441 
L 270.077576 206.554656 
L 270.085376 206.218752 
L 256.536341 202.009691 
z
" style="fill:#0b0777;"/>
    <path clip-path="url(#peef3553564)" d="M 256.530882 202.34441 
L 256.537897 201.914299 
L 270.087599 206.123022 
L 270.077576 206.554656 
z
" style="fill:#070339;"/>
    <path clip-path="url(#peef3553564)" d="M 235.627797 203.624374 
L 249.124142 207.863408 
L 256.560123 200.551598 
L 243.15346 196.39501 
z
" style="fill:#15056c;"/>
    <path clip-path="url(#peef3553564)" d="M 180.063228 207.386128 
L 188.144156 200.107676 
L 188.037522 194.286082 
L 179.931497 201.528632 
z
" style="fill:#15023f;"/>
    <path clip-path="url(#peef3553564)" d="M 216.794403 189.994506 
L 229.891821 194.06512 
L 230.094387 121.768508 
L 216.520816 117.96671 
z
" style="fill:#e09c2b;"/>
    <path clip-path="url(#peef3553564)" d="M 235.617509 205.421836 
L 243.136481 198.181496 
L 243.336419 177.144097 
L 235.738667 184.253157 
z
" style="fill:#330146;"/>
    <path clip-path="url(#peef3553564)" d="M 180.063228 207.386128 
L 188.144156 200.107676 
L 201.262108 204.292457 
L 193.264978 211.654059 
z
" style="fill:#7e402d;"/>
    <path clip-path="url(#peef3553564)" d="M 209.103753 197.073984 
L 216.794403 189.994506 
L 216.537086 122.250255 
L 208.578891 128.892382 
z
" style="fill:#684218;"/>
    <path clip-path="url(#peef3553564)" d="M 249.101427 209.667246 
L 249.106876 209.234493 
L 256.537897 201.914299 
L 256.530882 202.34441 
z
" style="fill:#0e0678;"/>
    <path clip-path="url(#peef3553564)" d="M 249.101427 209.667246 
L 256.530882 202.34441 
L 256.560123 200.551598 
L 249.124142 207.863408 
z
" style="fill:#0b033b;"/>
    <path clip-path="url(#peef3553564)" d="M 167.010898 203.166503 
L 180.063228 207.386128 
L 179.931497 201.528632 
L 166.841301 197.32977 
z
" style="fill:#2d0486;"/>
    <path clip-path="url(#peef3553564)" d="M 216.794403 189.994506 
L 216.494394 111.010692 
L 230.113954 114.784977 
L 229.891821 194.06512 
z
" style="fill:#69570f;"/>
    <path clip-path="url(#peef3553564)" d="M 214.529606 208.524945 
L 222.285805 201.224351 
L 235.617509 205.421836 
L 227.94922 212.80596 
z
" style="fill:#530c54;"/>
    <path clip-path="url(#peef3553564)" d="M 222.285805 201.224351 
L 235.617509 205.421836 
L 235.738667 184.253157 
L 222.263883 180.131599 
z
" style="fill:#6d0294;"/>
    <path clip-path="url(#peef3553564)" d="M 222.263883 180.131599 
L 235.738667 184.253157 
L 243.336419 177.144097 
L 229.950554 173.103021 
z
" style="fill:#5e0281;"/>
    <path clip-path="url(#peef3553564)" d="M 196.068846 192.969946 
L 195.101717 125.124704 
L 208.579535 128.97607 
L 209.103753 197.073984 
z
" style="fill:#684218;"/>
    <path clip-path="url(#peef3553564)" d="M 196.068846 192.969946 
L 209.103753 197.073984 
L 208.578891 128.892382 
L 195.100528 125.041343 
z
" style="fill:#dd8d33;"/>
    <path clip-path="url(#peef3553564)" d="M 203.183834 122.084275 
L 216.550848 125.873279 
L 224.338378 119.337827 
L 211.058168 115.622821 
z
" style="fill:#bd6e34;"/>
    <path clip-path="url(#peef3553564)" d="M 235.617509 205.421836 
L 249.101427 209.667246 
L 249.124142 207.863408 
L 235.627797 203.624374 
z
" style="fill:#18057c;"/>
    <path clip-path="url(#peef3553564)" d="M 235.617509 205.421836 
L 235.631597 202.960329 
L 249.132534 207.197002 
L 249.101427 209.667246 
z
" style="fill:#0d023b;"/>
    <path clip-path="url(#peef3553564)" d="M 249.101427 209.667246 
L 256.530882 202.34441 
L 270.077576 206.554656 
L 262.740181 213.961405 
z
" style="fill:#090449;"/>
    <path clip-path="url(#peef3553564)" d="M 209.103753 197.073984 
L 208.491776 117.575883 
L 216.494394 111.010692 
L 216.794403 189.994506 
z
" style="fill:#deb821;"/>
    <path clip-path="url(#peef3553564)" d="M 249.106876 209.234493 
L 262.74868 213.527118 
L 270.087599 206.123022 
L 256.537897 201.914299 
z
" style="fill:#0c0668;"/>
    <path clip-path="url(#peef3553564)" d="M 222.285805 201.224351 
L 222.255857 172.409872 
L 235.783024 176.502993 
L 235.617509 205.421836 
z
" style="fill:#410a42;"/>
    <path clip-path="url(#peef3553564)" d="M 188.144156 200.107676 
L 186.89341 131.823937 
L 195.101717 125.124704 
L 196.068846 192.969946 
z
" style="fill:#dd8d33;"/>
    <path clip-path="url(#peef3553564)" d="M 227.94922 212.80596 
L 227.953775 210.329296 
L 235.631597 202.960329 
L 235.617509 205.421836 
z
" style="fill:#1c057e;"/>
    <path clip-path="url(#peef3553564)" d="M 193.264978 211.654059 
L 201.262108 204.292457 
L 214.529606 208.524945 
L 206.61873 215.971129 
z
" style="fill:#867213;"/>
    <path clip-path="url(#peef3553564)" d="M 214.529606 208.524945 
L 214.385058 179.529383 
L 222.255857 172.409872 
L 222.285805 201.224351 
z
" style="fill:#8a148c;"/>
    <path clip-path="url(#peef3553564)" d="M 262.740181 213.961405 
L 270.077576 206.554656 
L 270.087599 206.123022 
L 262.74868 213.527118 
z
" style="fill:#070339;"/>
    <path clip-path="url(#peef3553564)" d="M 227.94922 212.80596 
L 235.617509 205.421836 
L 249.101427 209.667246 
L 241.523583 217.136342 
z
" style="fill:#11034c;"/>
    <path clip-path="url(#peef3553564)" d="M 249.101427 209.667246 
L 262.740181 213.961405 
L 262.74868 213.527118 
L 249.106876 209.234493 
z
" style="fill:#0e0678;"/>
    <path clip-path="url(#peef3553564)" d="M 249.101427 209.667246 
L 249.107107 209.216143 
L 262.749041 213.508703 
L 262.740181 213.961405 
z
" style="fill:#070339;"/>
    <path clip-path="url(#peef3553564)" d="M 227.953775 210.329296 
L 241.545386 214.650874 
L 249.132534 207.197002 
L 235.631597 202.960329 
z
" style="fill:#18046d;"/>
    <path clip-path="url(#peef3553564)" d="M 222.285805 201.224351 
L 229.891821 194.06512 
L 230.113954 114.784977 
L 222.202869 121.427109 
z
" style="fill:#69570f;"/>
    <path clip-path="url(#peef3553564)" d="M 188.144156 200.107676 
L 187.082712 142.158794 
L 200.581417 146.12889 
L 201.262108 204.292457 
z
" style="fill:#623223;"/>
    <path clip-path="url(#peef3553564)" d="M 201.262108 204.292457 
L 209.103753 197.073984 
L 208.579535 128.97607 
L 200.459996 135.753714 
z
" style="fill:#684218;"/>
    <path clip-path="url(#peef3553564)" d="M 241.523583 217.136342 
L 241.527564 216.682463 
L 249.107107 209.216143 
L 249.101427 209.667246 
z
" style="fill:#0e0678;"/>
    <path clip-path="url(#peef3553564)" d="M 241.523583 217.136342 
L 249.101427 209.667246 
L 249.132534 207.197002 
L 241.545386 214.650874 
z
" style="fill:#0d023b;"/>
    <path clip-path="url(#peef3553564)" d="M 209.103753 197.073984 
L 222.285805 201.224351 
L 222.202869 121.427109 
L 208.491776 117.575883 
z
" style="fill:#deb821;"/>
    <path clip-path="url(#peef3553564)" d="M 206.61873 215.971129 
L 214.529606 208.524945 
L 227.94922 212.80596 
L 220.127123 220.338193 
z
" style="fill:#5a1350;"/>
    <path clip-path="url(#peef3553564)" d="M 227.94922 212.80596 
L 235.617509 205.421836 
L 235.783024 176.502993 
L 228.002741 183.705167 
z
" style="fill:#410a42;"/>
    <path clip-path="url(#peef3553564)" d="M 180.063228 207.386128 
L 178.751622 149.064701 
L 187.082712 142.158794 
L 188.144156 200.107676 
z
" style="fill:#d1694a;"/>
    <path clip-path="url(#peef3553564)" d="M 216.520816 117.96671 
L 230.094387 121.768508 
L 237.821938 115.211252 
L 224.338378 111.484408 
z
" style="fill:#c28725;"/>
    <path clip-path="url(#peef3553564)" d="M 188.144156 200.107676 
L 201.262108 204.292457 
L 200.459996 135.753714 
L 186.89341 131.823937 
z
" style="fill:#dd8d33;"/>
    <path clip-path="url(#peef3553564)" d="M 227.94922 212.80596 
L 227.953079 210.708041 
L 241.542052 215.030967 
L 241.523583 217.136342 
z
" style="fill:#0c033b;"/>
    <path clip-path="url(#peef3553564)" d="M 227.94922 212.80596 
L 241.523583 217.136342 
L 241.545386 214.650874 
L 227.953775 210.329296 
z
" style="fill:#1c057e;"/>
    <path clip-path="url(#peef3553564)" d="M 241.523583 217.136342 
L 249.101427 209.667246 
L 262.740181 213.961405 
L 255.255385 221.516949 
z
" style="fill:#090449;"/>
    <path clip-path="url(#peef3553564)" d="M 209.103753 197.073984 
L 208.422991 108.640423 
L 222.193545 112.455764 
L 222.285805 201.224351 
z
" style="fill:#64680e;"/>
    <path clip-path="url(#peef3553564)" d="M 241.527564 216.682463 
L 255.26259 221.061458 
L 262.749041 213.508703 
L 249.107107 209.216143 
z
" style="fill:#0c0668;"/>
    <path clip-path="url(#peef3553564)" d="M 214.529606 208.524945 
L 227.94922 212.80596 
L 228.002741 183.705167 
L 214.385058 179.529383 
z
" style="fill:#8a148c;"/>
    <path clip-path="url(#peef3553564)" d="M 195.100528 125.041343 
L 208.578891 128.892382 
L 216.537086 122.250255 
L 203.146665 118.4753 
z
" style="fill:#c07a2d;"/>
    <path clip-path="url(#peef3553564)" d="M 214.529606 208.524945 
L 214.366243 175.755283 
L 228.009708 179.917008 
L 227.94922 212.80596 
z
" style="fill:#470f3e;"/>
    <path clip-path="url(#peef3553564)" d="M 220.127123 220.338193 
L 220.122577 218.22734 
L 227.953079 210.708041 
L 227.94922 212.80596 
z
" style="fill:#1a057d;"/>
    <path clip-path="url(#peef3553564)" d="M 201.262108 204.292457 
L 200.220362 115.277443 
L 208.422991 108.640423 
L 209.103753 197.073984 
z
" style="fill:#d4dc1e;"/>
    <path clip-path="url(#peef3553564)" d="M 255.255385 221.516949 
L 262.740181 213.961405 
L 262.749041 213.508703 
L 255.26259 221.061458 
z
" style="fill:#070339;"/>
    <path clip-path="url(#peef3553564)" d="M 214.385058 179.529383 
L 228.002741 183.705167 
L 235.783024 176.502993 
L 222.255857 172.409872 
z
" style="fill:#771279;"/>
    <path clip-path="url(#peef3553564)" d="M 206.61873 215.971129 
L 206.320621 182.994491 
L 214.366243 175.755283 
L 214.529606 208.524945 
z
" style="fill:#961f84;"/>
    <path clip-path="url(#peef3553564)" d="M 220.127123 220.338193 
L 227.94922 212.80596 
L 241.523583 217.136342 
L 233.792858 224.756123 
z
" style="fill:#10034c;"/>
    <path clip-path="url(#peef3553564)" d="M 193.264978 211.654059 
L 201.262108 204.292457 
L 200.581417 146.12889 
L 192.339035 153.116037 
z
" style="fill:#623223;"/>
    <path clip-path="url(#peef3553564)" d="M 241.523583 217.136342 
L 255.255385 221.516949 
L 255.26259 221.061458 
L 241.527564 216.682463 
z
" style="fill:#0e0678;"/>
    <path clip-path="url(#peef3553564)" d="M 241.523583 217.136342 
L 241.527917 216.64221 
L 255.263229 221.021062 
L 255.255385 221.516949 
z
" style="fill:#070339;"/>
    <path clip-path="url(#peef3553564)" d="M 220.122577 218.22734 
L 233.803122 222.63776 
L 241.542052 215.030967 
L 227.953079 210.708041 
z
" style="fill:#17056d;"/>
    <path clip-path="url(#peef3553564)" d="M 180.063228 207.386128 
L 193.264978 211.654059 
L 192.339035 153.116037 
L 178.751622 149.064701 
z
" style="fill:#d1694a;"/>
    <path clip-path="url(#peef3553564)" d="M 233.792858 224.756123 
L 233.795267 224.258948 
L 241.527917 216.64221 
L 241.523583 217.136342 
z
" style="fill:#0e0678;"/>
    <path clip-path="url(#peef3553564)" d="M 233.792858 224.756123 
L 241.523583 217.136342 
L 241.542052 215.030967 
L 233.803122 222.63776 
z
" style="fill:#0c033b;"/>
    <path clip-path="url(#peef3553564)" d="M 214.529606 208.524945 
L 222.285805 201.224351 
L 222.193545 112.455764 
L 214.084164 119.171711 
z
" style="fill:#64680e;"/>
    <path clip-path="url(#peef3553564)" d="M 201.262108 204.292457 
L 200.307053 122.68506 
L 214.121241 126.609228 
L 214.529606 208.524945 
z
" style="fill:#68590f;"/>
    <path clip-path="url(#peef3553564)" d="M 220.127123 220.338193 
L 227.94922 212.80596 
L 228.009708 179.917008 
L 220.055857 187.241285 
z
" style="fill:#470f3e;"/>
    <path clip-path="url(#peef3553564)" d="M 220.127123 220.338193 
L 233.792858 224.756123 
L 233.803122 222.63776 
L 220.122577 218.22734 
z
" style="fill:#1a057d;"/>
    <path clip-path="url(#peef3553564)" d="M 233.792858 224.756123 
L 241.523583 217.136342 
L 255.255385 221.516949 
L 247.618703 229.225814 
z
" style="fill:#090449;"/>
    <path clip-path="url(#peef3553564)" d="M 201.262108 204.292457 
L 214.529606 208.524945 
L 214.084164 119.171711 
L 200.220362 115.277443 
z
" style="fill:#d4dc1e;"/>
    <path clip-path="url(#peef3553564)" d="M 233.795267 224.258948 
L 247.624669 228.726871 
L 255.263229 221.021062 
L 241.527917 216.64221 
z
" style="fill:#0c0668;"/>
    <path clip-path="url(#peef3553564)" d="M 193.264978 211.654059 
L 191.965664 129.51159 
L 200.307053 122.68506 
L 201.262108 204.292457 
z
" style="fill:#ddbe20;"/>
    <path clip-path="url(#peef3553564)" d="M 186.89341 131.823937 
L 200.459996 135.753714 
L 208.579535 128.97607 
L 195.101717 125.124704 
z
" style="fill:#c07a2d;"/>
    <path clip-path="url(#peef3553564)" d="M 206.61873 215.971129 
L 220.127123 220.338193 
L 220.055857 187.241285 
L 206.320621 182.994491 
z
" style="fill:#961f84;"/>
    <path clip-path="url(#peef3553564)" d="M 208.491776 117.575883 
L 222.202869 121.427109 
L 230.113954 114.784977 
L 216.494394 111.010692 
z
" style="fill:#c1a01c;"/>
    <path clip-path="url(#peef3553564)" d="M 247.618703 229.225814 
L 255.255385 221.516949 
L 255.263229 221.021062 
L 247.624669 228.726871 
z
" style="fill:#070339;"/>
    <path clip-path="url(#peef3553564)" d="M 206.320621 182.994491 
L 220.055857 187.241285 
L 228.009708 179.917008 
L 214.366243 175.755283 
z
" style="fill:#821b72;"/>
    <path clip-path="url(#peef3553564)" d="M 233.792858 224.756123 
L 247.618703 229.225814 
L 247.624669 228.726871 
L 233.795267 224.258948 
z
" style="fill:#0e0678;"/>
    <path clip-path="url(#peef3553564)" d="M 178.751622 149.064701 
L 192.339035 153.116037 
L 200.581417 146.12889 
L 187.082712 142.158794 
z
" style="fill:#b55c40;"/>
    <path clip-path="url(#peef3553564)" d="M 206.61873 215.971129 
L 214.529606 208.524945 
L 214.121241 126.609228 
L 205.873349 133.517485 
z
" style="fill:#68590f;"/>
    <path clip-path="url(#peef3553564)" d="M 193.264978 211.654059 
L 206.61873 215.971129 
L 205.873349 133.517485 
L 191.965664 129.51159 
z
" style="fill:#ddbe20;"/>
    <path clip-path="url(#peef3553564)" d="M 200.220362 115.277443 
L 214.084164 119.171711 
L 222.193545 112.455764 
L 208.422991 108.640423 
z
" style="fill:#b8bf1a;"/>
    <path clip-path="url(#peef3553564)" d="M 191.965664 129.51159 
L 205.873349 133.517485 
L 214.121241 126.609228 
L 200.307053 122.68506 
z
" style="fill:#c0a51c;"/>
   </g>
   <g id="text_16">
    <!-- W20__H20__A350_bars_extracted.txt -->
    <g transform="translate(110.101875 28.56)scale(0.12 -0.12)">
     <defs>
      <path d="M 3.328125 72.90625 
L 13.28125 72.90625 
L 28.609375 11.28125 
L 43.890625 72.90625 
L 54.984375 72.90625 
L 70.3125 11.28125 
L 85.59375 72.90625 
L 95.609375 72.90625 
L 77.296875 0 
L 64.890625 0 
L 49.515625 63.28125 
L 33.984375 0 
L 21.578125 0 
z
" id="DejaVuSans-87"/>
      <path d="M 50.984375 -16.609375 
L 50.984375 -23.578125 
L -0.984375 -23.578125 
L -0.984375 -16.609375 
z
" id="DejaVuSans-95"/>
      <path d="M 9.8125 72.90625 
L 19.671875 72.90625 
L 19.671875 43.015625 
L 55.515625 43.015625 
L 55.515625 72.90625 
L 65.375 72.90625 
L 65.375 0 
L 55.515625 0 
L 55.515625 34.71875 
L 19.671875 34.71875 
L 19.671875 0 
L 9.8125 0 
z
" id="DejaVuSans-72"/>
      <path d="M 34.1875 63.1875 
L 20.796875 26.90625 
L 47.609375 26.90625 
z
M 28.609375 72.90625 
L 39.796875 72.90625 
L 67.578125 0 
L 57.328125 0 
L 50.6875 18.703125 
L 17.828125 18.703125 
L 11.1875 0 
L 0.78125 0 
z
" id="DejaVuSans-65"/>
      <path d="M 10.796875 72.90625 
L 49.515625 72.90625 
L 49.515625 64.59375 
L 19.828125 64.59375 
L 19.828125 46.734375 
Q 21.96875 47.46875 24.109375 47.828125 
Q 26.265625 48.1875 28.421875 48.1875 
Q 40.625 48.1875 47.75 41.5 
Q 54.890625 34.8125 54.890625 23.390625 
Q 54.890625 11.625 47.5625 5.09375 
Q 40.234375 -1.421875 26.90625 -1.421875 
Q 22.3125 -1.421875 17.546875 -0.640625 
Q 12.796875 0.140625 7.71875 1.703125 
L 7.71875 11.625 
Q 12.109375 9.234375 16.796875 8.0625 
Q 21.484375 6.890625 26.703125 6.890625 
Q 35.15625 6.890625 40.078125 11.328125 
Q 45.015625 15.765625 45.015625 23.390625 
Q 45.015625 31 40.078125 35.4375 
Q 35.15625 39.890625 26.703125 39.890625 
Q 22.75 39.890625 18.8125 39.015625 
Q 14.890625 38.140625 10.796875 36.28125 
z
" id="DejaVuSans-53"/>
      <path d="M 48.6875 27.296875 
Q 48.6875 37.203125 44.609375 42.84375 
Q 40.53125 48.484375 33.40625 48.484375 
Q 26.265625 48.484375 22.1875 42.84375 
Q 18.109375 37.203125 18.109375 27.296875 
Q 18.109375 17.390625 22.1875 11.75 
Q 26.265625 6.109375 33.40625 6.109375 
Q 40.53125 6.109375 44.609375 11.75 
Q 48.6875 17.390625 48.6875 27.296875 
z
M 18.109375 46.390625 
Q 20.953125 51.265625 25.265625 53.625 
Q 29.59375 56 35.59375 56 
Q 45.5625 56 51.78125 48.09375 
Q 58.015625 40.1875 58.015625 27.296875 
Q 58.015625 14.40625 51.78125 6.484375 
Q 45.5625 -1.421875 35.59375 -1.421875 
Q 29.59375 -1.421875 25.265625 0.953125 
Q 20.953125 3.328125 18.109375 8.203125 
L 18.109375 0 
L 9.078125 0 
L 9.078125 75.984375 
L 18.109375 75.984375 
z
" id="DejaVuSans-98"/>
      <path d="M 34.28125 27.484375 
Q 23.390625 27.484375 19.1875 25 
Q 14.984375 22.515625 14.984375 16.5 
Q 14.984375 11.71875 18.140625 8.90625 
Q 21.296875 6.109375 26.703125 6.109375 
Q 34.1875 6.109375 38.703125 11.40625 
Q 43.21875 16.703125 43.21875 25.484375 
L 43.21875 27.484375 
z
M 52.203125 31.203125 
L 52.203125 0 
L 43.21875 0 
L 43.21875 8.296875 
Q 40.140625 3.328125 35.546875 0.953125 
Q 30.953125 -1.421875 24.3125 -1.421875 
Q 15.921875 -1.421875 10.953125 3.296875 
Q 6 8.015625 6 15.921875 
Q 6 25.140625 12.171875 29.828125 
Q 18.359375 34.515625 30.609375 34.515625 
L 43.21875 34.515625 
L 43.21875 35.40625 
Q 43.21875 41.609375 39.140625 45 
Q 35.0625 48.390625 27.6875 48.390625 
Q 23 48.390625 18.546875 47.265625 
Q 14.109375 46.140625 10.015625 43.890625 
L 10.015625 52.203125 
Q 14.9375 54.109375 19.578125 55.046875 
Q 24.21875 56 28.609375 56 
Q 40.484375 56 46.34375 49.84375 
Q 52.203125 43.703125 52.203125 31.203125 
z
" id="DejaVuSans-97"/>
      <path d="M 41.109375 46.296875 
Q 39.59375 47.171875 37.8125 47.578125 
Q 36.03125 48 33.890625 48 
Q 26.265625 48 22.1875 43.046875 
Q 18.109375 38.09375 18.109375 28.8125 
L 18.109375 0 
L 9.078125 0 
L 9.078125 54.6875 
L 18.109375 54.6875 
L 18.109375 46.1875 
Q 20.953125 51.171875 25.484375 53.578125 
Q 30.03125 56 36.53125 56 
Q 37.453125 56 38.578125 55.875 
Q 39.703125 55.765625 41.0625 55.515625 
z
" id="DejaVuSans-114"/>
      <path d="M 44.28125 53.078125 
L 44.28125 44.578125 
Q 40.484375 46.53125 36.375 47.5 
Q 32.28125 48.484375 27.875 48.484375 
Q 21.1875 48.484375 17.84375 46.4375 
Q 14.5 44.390625 14.5 40.28125 
Q 14.5 37.15625 16.890625 35.375 
Q 19.28125 33.59375 26.515625 31.984375 
L 29.59375 31.296875 
Q 39.15625 29.25 43.1875 25.515625 
Q 47.21875 21.78125 47.21875 15.09375 
Q 47.21875 7.46875 41.1875 3.015625 
Q 35.15625 -1.421875 24.609375 -1.421875 
Q 20.21875 -1.421875 15.453125 -0.5625 
Q 10.6875 0.296875 5.421875 2 
L 5.421875 11.28125 
Q 10.40625 8.6875 15.234375 7.390625 
Q 20.0625 6.109375 24.8125 6.109375 
Q 31.15625 6.109375 34.5625 8.28125 
Q 37.984375 10.453125 37.984375 14.40625 
Q 37.984375 18.0625 35.515625 20.015625 
Q 33.0625 21.96875 24.703125 23.78125 
L 21.578125 24.515625 
Q 13.234375 26.265625 9.515625 29.90625 
Q 5.8125 33.546875 5.8125 39.890625 
Q 5.8125 47.609375 11.28125 51.796875 
Q 16.75 56 26.8125 56 
Q 31.78125 56 36.171875 55.265625 
Q 40.578125 54.546875 44.28125 53.078125 
z
" id="DejaVuSans-115"/>
      <path d="M 56.203125 29.59375 
L 56.203125 25.203125 
L 14.890625 25.203125 
Q 15.484375 15.921875 20.484375 11.0625 
Q 25.484375 6.203125 34.421875 6.203125 
Q 39.59375 6.203125 44.453125 7.46875 
Q 49.3125 8.734375 54.109375 11.28125 
L 54.109375 2.78125 
Q 49.265625 0.734375 44.1875 -0.34375 
Q 39.109375 -1.421875 33.890625 -1.421875 
Q 20.796875 -1.421875 13.15625 6.1875 
Q 5.515625 13.8125 5.515625 26.8125 
Q 5.515625 40.234375 12.765625 48.109375 
Q 20.015625 56 32.328125 56 
Q 43.359375 56 49.78125 48.890625 
Q 56.203125 41.796875 56.203125 29.59375 
z
M 47.21875 32.234375 
Q 47.125 39.59375 43.09375 43.984375 
Q 39.0625 48.390625 32.421875 48.390625 
Q 24.90625 48.390625 20.390625 44.140625 
Q 15.875 39.890625 15.1875 32.171875 
z
" id="DejaVuSans-101"/>
      <path d="M 54.890625 54.6875 
L 35.109375 28.078125 
L 55.90625 0 
L 45.3125 0 
L 29.390625 21.484375 
L 13.484375 0 
L 2.875 0 
L 24.125 28.609375 
L 4.6875 54.6875 
L 15.28125 54.6875 
L 29.78125 35.203125 
L 44.28125 54.6875 
z
" id="DejaVuSans-120"/>
      <path d="M 18.3125 70.21875 
L 18.3125 54.6875 
L 36.8125 54.6875 
L 36.8125 47.703125 
L 18.3125 47.703125 
L 18.3125 18.015625 
Q 18.3125 11.328125 20.140625 9.421875 
Q 21.96875 7.515625 27.59375 7.515625 
L 36.8125 7.515625 
L 36.8125 0 
L 27.59375 0 
Q 17.1875 0 13.234375 3.875 
Q 9.28125 7.765625 9.28125 18.015625 
L 9.28125 47.703125 
L 2.6875 47.703125 
L 2.6875 54.6875 
L 9.28125 54.6875 
L 9.28125 70.21875 
z
" id="DejaVuSans-116"/>
      <path d="M 48.78125 52.59375 
L 48.78125 44.1875 
Q 44.96875 46.296875 41.140625 47.34375 
Q 37.3125 48.390625 33.40625 48.390625 
Q 24.65625 48.390625 19.8125 42.84375 
Q 14.984375 37.3125 14.984375 27.296875 
Q 14.984375 17.28125 19.8125 11.734375 
Q 24.65625 6.203125 33.40625 6.203125 
Q 37.3125 6.203125 41.140625 7.25 
Q 44.96875 8.296875 48.78125 10.40625 
L 48.78125 2.09375 
Q 45.015625 0.34375 40.984375 -0.53125 
Q 36.96875 -1.421875 32.421875 -1.421875 
Q 20.0625 -1.421875 12.78125 6.34375 
Q 5.515625 14.109375 5.515625 27.296875 
Q 5.515625 40.671875 12.859375 48.328125 
Q 20.21875 56 33.015625 56 
Q 37.15625 56 41.109375 55.140625 
Q 45.0625 54.296875 48.78125 52.59375 
z
" id="DejaVuSans-99"/>
      <path d="M 45.40625 46.390625 
L 45.40625 75.984375 
L 54.390625 75.984375 
L 54.390625 0 
L 45.40625 0 
L 45.40625 8.203125 
Q 42.578125 3.328125 38.25 0.953125 
Q 33.9375 -1.421875 27.875 -1.421875 
Q 17.96875 -1.421875 11.734375 6.484375 
Q 5.515625 14.40625 5.515625 27.296875 
Q 5.515625 40.1875 11.734375 48.09375 
Q 17.96875 56 27.875 56 
Q 33.9375 56 38.25 53.625 
Q 42.578125 51.265625 45.40625 46.390625 
z
M 14.796875 27.296875 
Q 14.796875 17.390625 18.875 11.75 
Q 22.953125 6.109375 30.078125 6.109375 
Q 37.203125 6.109375 41.296875 11.75 
Q 45.40625 17.390625 45.40625 27.296875 
Q 45.40625 37.203125 41.296875 42.84375 
Q 37.203125 48.484375 30.078125 48.484375 
Q 22.953125 48.484375 18.875 42.84375 
Q 14.796875 37.203125 14.796875 27.296875 
z
" id="DejaVuSans-100"/>
      <path d="M 10.6875 12.40625 
L 21 12.40625 
L 21 0 
L 10.6875 0 
z
" id="DejaVuSans-46"/>
     </defs>
     <use xlink:href="#DejaVuSans-87"/>
     <use x="98.876953" xlink:href="#DejaVuSans-50"/>
     <use x="162.5" xlink:href="#DejaVuSans-48"/>
     <use x="226.123047" xlink:href="#DejaVuSans-95"/>
     <use x="276.123047" xlink:href="#DejaVuSans-95"/>
     <use x="326.123047" xlink:href="#DejaVuSans-72"/>
     <use x="401.318359" xlink:href="#DejaVuSans-50"/>
     <use x="464.941406" xlink:href="#DejaVuSans-48"/>
     <use x="528.564453" xlink:href="#DejaVuSans-95"/>
     <use x="578.564453" xlink:href="#DejaVuSans-95"/>
     <use x="628.564453" xlink:href="#DejaVuSans-65"/>
     <use x="696.972656" xlink:href="#DejaVuSans-51"/>
     <use x="760.595703" xlink:href="#DejaVuSans-53"/>
     <use x="824.21875" xlink:href="#DejaVuSans-48"/>
     <use x="887.841797" xlink:href="#DejaVuSans-95"/>
     <use x="937.841797" xlink:href="#DejaVuSans-98"/>
     <use x="1001.318359" xlink:href="#DejaVuSans-97"/>
     <use x="1062.597656" xlink:href="#DejaVuSans-114"/>
     <use x="1103.710938" xlink:href="#DejaVuSans-115"/>
     <use x="1155.810547" xlink:href="#DejaVuSans-95"/>
     <use x="1205.810547" xlink:href="#DejaVuSans-101"/>
     <use x="1265.583984" xlink:href="#DejaVuSans-120"/>
     <use x="1324.763672" xlink:href="#DejaVuSans-116"/>
     <use x="1363.972656" xlink:href="#DejaVuSans-114"/>
     <use x="1405.085938" xlink:href="#DejaVuSans-97"/>
     <use x="1466.365234" xlink:href="#DejaVuSans-99"/>
     <use x="1521.345703" xlink:href="#DejaVuSans-116"/>
     <use x="1560.554688" xlink:href="#DejaVuSans-101"/>
     <use x="1622.078125" xlink:href="#DejaVuSans-100"/>
     <use x="1685.554688" xlink:href="#DejaVuSans-46"/>
     <use x="1717.341797" xlink:href="#DejaVuSans-116"/>
     <use x="1756.550781" xlink:href="#DejaVuSans-120"/>
     <use x="1815.730469" xlink:href="#DejaVuSans-116"/>
    </g>
   </g>
  </g>
 </g>
 <defs>
  <clipPath id="peef3553564">
   <rect height="217.44" width="217.44" x="112.68" y="34.56"/>
  </clipPath>
 </defs>
</svg>
