<?xml version="1.0" encoding="utf-8" standalone="no"?>
<!DOCTYPE svg PUBLIC "-//W3C//DTD SVG 1.1//EN"
  "http://www.w3.org/Graphics/SVG/1.1/DTD/svg11.dtd">
<!-- Created with matplotlib (https://matplotlib.org/) -->
<svg height="288pt" version="1.1" viewBox="0 0 432 288" width="432pt" xmlns="http://www.w3.org/2000/svg" xmlns:xlink="http://www.w3.org/1999/xlink">
 <metadata>
  <rdf:RDF xmlns:cc="http://creativecommons.org/ns#" xmlns:dc="http://purl.org/dc/elements/1.1/" xmlns:rdf="http://www.w3.org/1999/02/22-rdf-syntax-ns#">
   <cc:Work>
    <dc:type rdf:resource="http://purl.org/dc/dcmitype/StillImage"/>
    <dc:date>2021-06-13T21:57:18.943381</dc:date>
    <dc:format>image/svg+xml</dc:format>
    <dc:creator>
     <cc:Agent>
      <dc:title>Matplotlib v3.3.4, https://matplotlib.org/</dc:title>
     </cc:Agent>
    </dc:creator>
   </cc:Work>
  </rdf:RDF>
 </metadata>
 <defs>
  <style type="text/css">*{stroke-linecap:butt;stroke-linejoin:round;}</style>
 </defs>
 <g id="figure_1">
  <g id="patch_1">
   <path d="M 0 288 
L 432 288 
L 432 0 
L 0 0 
z
" style="fill:#ffffff;"/>
  </g>
  <g id="patch_2">
   <path d="M 112.68 252 
L 330.12 252 
L 330.12 34.56 
L 112.68 34.56 
z
" style="fill:#ffffff;"/>
  </g>
  <g id="pane3d_1">
   <g id="patch_3">
    <path d="M 129.09822 198.386264 
L 200.904009 138.197228 
L 199.90584 51.393878 
L 124.663773 106.302111 
" style="fill:#f2f2f2;opacity:0.5;stroke:#f2f2f2;stroke-linejoin:miter;"/>
   </g>
  </g>
  <g id="pane3d_2">
   <g id="patch_4">
    <path d="M 200.904009 138.197228 
L 316.12668 171.68791 
L 320.238571 81.894718 
L 199.90584 51.393878 
" style="fill:#e6e6e6;opacity:0.5;stroke:#e6e6e6;stroke-linejoin:miter;"/>
   </g>
  </g>
  <g id="pane3d_3">
   <g id="patch_5">
    <path d="M 129.09822 198.386264 
L 251.239879 238.27773 
L 316.12668 171.68791 
L 200.904009 138.197228 
" style="fill:#ececec;opacity:0.5;stroke:#ececec;stroke-linejoin:miter;"/>
   </g>
  </g>
  <g id="axis3d_1">
   <g id="line2d_1">
    <path d="M 129.09822 198.386264 
L 251.239879 238.27773 
" style="fill:none;stroke:#000000;stroke-linecap:square;stroke-width:0.8;"/>
   </g>
   <g id="Line3DCollection_1">
    <path d="M 136.495759 200.802301 
L 207.911499 140.234029 
L 207.209612 53.245171 
" style="fill:none;stroke:#b0b0b0;stroke-width:0.8;"/>
    <path d="M 162.23134 209.207541 
L 232.260894 147.311436 
L 232.60309 59.681678 
" style="fill:none;stroke:#b0b0b0;stroke-width:0.8;"/>
    <path d="M 188.559037 217.806167 
L 257.123632 154.538053 
L 258.555303 66.259807 
" style="fill:none;stroke:#b0b0b0;stroke-width:0.8;"/>
    <path d="M 215.499525 226.604931 
L 282.516121 161.918647 
L 285.084894 72.984285 
" style="fill:none;stroke:#b0b0b0;stroke-width:0.8;"/>
    <path d="M 243.074449 235.610901 
L 308.455474 169.458193 
L 312.21135 79.860051 
" style="fill:none;stroke:#b0b0b0;stroke-width:0.8;"/>
   </g>
   <g id="xtick_1">
    <g id="line2d_2">
     <path d="M 137.117644 200.274876 
L 135.249322 201.859414 
" style="fill:none;stroke:#000000;stroke-linecap:square;stroke-width:0.8;"/>
    </g>
    <g id="text_1">
     <!-- 0 -->
     <g transform="translate(125.77919 224.124533)scale(0.1 -0.1)">
      <defs>
       <path d="M 31.78125 66.40625 
Q 24.171875 66.40625 20.328125 58.90625 
Q 16.5 51.421875 16.5 36.375 
Q 16.5 21.390625 20.328125 13.890625 
Q 24.171875 6.390625 31.78125 6.390625 
Q 39.453125 6.390625 43.28125 13.890625 
Q 47.125 21.390625 47.125 36.375 
Q 47.125 51.421875 43.28125 58.90625 
Q 39.453125 66.40625 31.78125 66.40625 
z
M 31.78125 74.21875 
Q 44.046875 74.21875 50.515625 64.515625 
Q 56.984375 54.828125 56.984375 36.375 
Q 56.984375 17.96875 50.515625 8.265625 
Q 44.046875 -1.421875 31.78125 -1.421875 
Q 19.53125 -1.421875 13.0625 8.265625 
Q 6.59375 17.96875 6.59375 36.375 
Q 6.59375 54.828125 13.0625 64.515625 
Q 19.53125 74.21875 31.78125 74.21875 
z
" id="DejaVuSans-48"/>
      </defs>
      <use xlink:href="#DejaVuSans-48"/>
     </g>
    </g>
   </g>
   <g id="xtick_2">
    <g id="line2d_3">
     <path d="M 162.841716 208.668056 
L 161.007937 210.288854 
" style="fill:none;stroke:#000000;stroke-linecap:square;stroke-width:0.8;"/>
    </g>
    <g id="text_2">
     <!-- 2 -->
     <g transform="translate(151.547192 232.748132)scale(0.1 -0.1)">
      <defs>
       <path d="M 19.1875 8.296875 
L 53.609375 8.296875 
L 53.609375 0 
L 7.328125 0 
L 7.328125 8.296875 
Q 12.9375 14.109375 22.625 23.890625 
Q 32.328125 33.6875 34.8125 36.53125 
Q 39.546875 41.84375 41.421875 45.53125 
Q 43.3125 49.21875 43.3125 52.78125 
Q 43.3125 58.59375 39.234375 62.25 
Q 35.15625 65.921875 28.609375 65.921875 
Q 23.96875 65.921875 18.8125 64.3125 
Q 13.671875 62.703125 7.8125 59.421875 
L 7.8125 69.390625 
Q 13.765625 71.78125 18.9375 73 
Q 24.125 74.21875 28.421875 74.21875 
Q 39.75 74.21875 46.484375 68.546875 
Q 53.21875 62.890625 53.21875 53.421875 
Q 53.21875 48.921875 51.53125 44.890625 
Q 49.859375 40.875 45.40625 35.40625 
Q 44.1875 33.984375 37.640625 27.21875 
Q 31.109375 20.453125 19.1875 8.296875 
z
" id="DejaVuSans-50"/>
      </defs>
      <use xlink:href="#DejaVuSans-50"/>
     </g>
    </g>
   </g>
   <g id="xtick_3">
    <g id="line2d_4">
     <path d="M 189.15721 217.254202 
L 187.360066 218.91252 
" style="fill:none;stroke:#000000;stroke-linecap:square;stroke-width:0.8;"/>
    </g>
    <g id="text_3">
     <!-- 4 -->
     <g transform="translate(177.91082 241.571064)scale(0.1 -0.1)">
      <defs>
       <path d="M 37.796875 64.3125 
L 12.890625 25.390625 
L 37.796875 25.390625 
z
M 35.203125 72.90625 
L 47.609375 72.90625 
L 47.609375 25.390625 
L 58.015625 25.390625 
L 58.015625 17.1875 
L 47.609375 17.1875 
L 47.609375 0 
L 37.796875 0 
L 37.796875 17.1875 
L 4.890625 17.1875 
L 4.890625 26.703125 
z
" id="DejaVuSans-52"/>
      </defs>
      <use xlink:href="#DejaVuSans-52"/>
     </g>
    </g>
   </g>
   <g id="xtick_4">
    <g id="line2d_5">
     <path d="M 216.084757 226.040048 
L 214.326462 227.737204 
" style="fill:none;stroke:#000000;stroke-linecap:square;stroke-width:0.8;"/>
    </g>
    <g id="text_4">
     <!-- 6 -->
     <g transform="translate(204.890965 250.600322)scale(0.1 -0.1)">
      <defs>
       <path d="M 33.015625 40.375 
Q 26.375 40.375 22.484375 35.828125 
Q 18.609375 31.296875 18.609375 23.390625 
Q 18.609375 15.53125 22.484375 10.953125 
Q 26.375 6.390625 33.015625 6.390625 
Q 39.65625 6.390625 43.53125 10.953125 
Q 47.40625 15.53125 47.40625 23.390625 
Q 47.40625 31.296875 43.53125 35.828125 
Q 39.65625 40.375 33.015625 40.375 
z
M 52.59375 71.296875 
L 52.59375 62.3125 
Q 48.875 64.0625 45.09375 64.984375 
Q 41.3125 65.921875 37.59375 65.921875 
Q 27.828125 65.921875 22.671875 59.328125 
Q 17.53125 52.734375 16.796875 39.40625 
Q 19.671875 43.65625 24.015625 45.921875 
Q 28.375 48.1875 33.59375 48.1875 
Q 44.578125 48.1875 50.953125 41.515625 
Q 57.328125 34.859375 57.328125 23.390625 
Q 57.328125 12.15625 50.6875 5.359375 
Q 44.046875 -1.421875 33.015625 -1.421875 
Q 20.359375 -1.421875 13.671875 8.265625 
Q 6.984375 17.96875 6.984375 36.375 
Q 6.984375 53.65625 15.1875 63.9375 
Q 23.390625 74.21875 37.203125 74.21875 
Q 40.921875 74.21875 44.703125 73.484375 
Q 48.484375 72.75 52.59375 71.296875 
z
" id="DejaVuSans-54"/>
      </defs>
      <use xlink:href="#DejaVuSans-54"/>
     </g>
    </g>
   </g>
   <g id="xtick_5">
    <g id="line2d_6">
     <path d="M 243.645962 235.032643 
L 241.928856 236.770015 
" style="fill:none;stroke:#000000;stroke-linecap:square;stroke-width:0.8;"/>
    </g>
    <g id="text_5">
     <!-- 8 -->
     <g transform="translate(232.509511 259.84323)scale(0.1 -0.1)">
      <defs>
       <path d="M 31.78125 34.625 
Q 24.75 34.625 20.71875 30.859375 
Q 16.703125 27.09375 16.703125 20.515625 
Q 16.703125 13.921875 20.71875 10.15625 
Q 24.75 6.390625 31.78125 6.390625 
Q 38.8125 6.390625 42.859375 10.171875 
Q 46.921875 13.96875 46.921875 20.515625 
Q 46.921875 27.09375 42.890625 30.859375 
Q 38.875 34.625 31.78125 34.625 
z
M 21.921875 38.8125 
Q 15.578125 40.375 12.03125 44.71875 
Q 8.5 49.078125 8.5 55.328125 
Q 8.5 64.0625 14.71875 69.140625 
Q 20.953125 74.21875 31.78125 74.21875 
Q 42.671875 74.21875 48.875 69.140625 
Q 55.078125 64.0625 55.078125 55.328125 
Q 55.078125 49.078125 51.53125 44.71875 
Q 48 40.375 41.703125 38.8125 
Q 48.828125 37.15625 52.796875 32.3125 
Q 56.78125 27.484375 56.78125 20.515625 
Q 56.78125 9.90625 50.3125 4.234375 
Q 43.84375 -1.421875 31.78125 -1.421875 
Q 19.734375 -1.421875 13.25 4.234375 
Q 6.78125 9.90625 6.78125 20.515625 
Q 6.78125 27.484375 10.78125 32.3125 
Q 14.796875 37.15625 21.921875 38.8125 
z
M 18.3125 54.390625 
Q 18.3125 48.734375 21.84375 45.5625 
Q 25.390625 42.390625 31.78125 42.390625 
Q 38.140625 42.390625 41.71875 45.5625 
Q 45.3125 48.734375 45.3125 54.390625 
Q 45.3125 60.0625 41.71875 63.234375 
Q 38.140625 66.40625 31.78125 66.40625 
Q 25.390625 66.40625 21.84375 63.234375 
Q 18.3125 60.0625 18.3125 54.390625 
z
" id="DejaVuSans-56"/>
      </defs>
      <use xlink:href="#DejaVuSans-56"/>
     </g>
    </g>
   </g>
  </g>
  <g id="axis3d_2">
   <g id="line2d_7">
    <path d="M 316.12668 171.68791 
L 251.239879 238.27773 
" style="fill:none;stroke:#000000;stroke-linecap:square;stroke-width:0.8;"/>
   </g>
   <g id="Line3DCollection_2">
    <path d="M 129.866948 102.505071 
L 134.046245 194.238731 
L 255.729543 233.67023 
" style="fill:none;stroke:#b0b0b0;stroke-width:0.8;"/>
    <path d="M 147.250212 89.819556 
L 150.59591 180.366474 
L 270.72626 218.279909 
" style="fill:none;stroke:#b0b0b0;stroke-width:0.8;"/>
    <path d="M 163.958537 77.626582 
L 166.530371 167.009893 
L 285.136664 203.491289 
" style="fill:none;stroke:#b0b0b0;stroke-width:0.8;"/>
    <path d="M 180.030483 65.898008 
L 181.883306 154.140758 
L 298.994481 189.269761 
" style="fill:none;stroke:#b0b0b0;stroke-width:0.8;"/>
    <path d="M 195.501727 54.607799 
L 196.68598 141.732864 
L 312.330896 175.583317 
" style="fill:none;stroke:#b0b0b0;stroke-width:0.8;"/>
   </g>
   <g id="xtick_6">
    <g id="line2d_8">
     <path d="M 254.704115 233.337939 
L 257.783053 234.33567 
" style="fill:none;stroke:#000000;stroke-linecap:square;stroke-width:0.8;"/>
    </g>
    <g id="text_6">
     <!-- 0 -->
     <g transform="translate(265.430654 254.693759)scale(0.1 -0.1)">
      <use xlink:href="#DejaVuSans-48"/>
     </g>
    </g>
   </g>
   <g id="xtick_7">
    <g id="line2d_9">
     <path d="M 269.71494 217.960734 
L 272.751463 218.919068 
" style="fill:none;stroke:#000000;stroke-linecap:square;stroke-width:0.8;"/>
    </g>
    <g id="text_7">
     <!-- 2 -->
     <g transform="translate(280.181112 239.024526)scale(0.1 -0.1)">
      <use xlink:href="#DejaVuSans-50"/>
     </g>
    </g>
   </g>
   <g id="xtick_8">
    <g id="line2d_10">
     <path d="M 284.139145 203.184468 
L 287.134182 204.105694 
" style="fill:none;stroke:#000000;stroke-linecap:square;stroke-width:0.8;"/>
    </g>
    <g id="text_8">
     <!-- 4 -->
     <g transform="translate(294.35448 223.968328)scale(0.1 -0.1)">
      <use xlink:href="#DejaVuSans-52"/>
     </g>
    </g>
   </g>
   <g id="xtick_9">
    <g id="line2d_11">
     <path d="M 298.010457 188.97459 
L 300.964927 189.860821 
" style="fill:none;stroke:#000000;stroke-linecap:square;stroke-width:0.8;"/>
    </g>
    <g id="text_9">
     <!-- 6 -->
     <g transform="translate(307.983974 209.489882)scale(0.1 -0.1)">
      <use xlink:href="#DejaVuSans-54"/>
     </g>
    </g>
   </g>
   <g id="xtick_10">
    <g id="line2d_12">
     <path d="M 311.360068 175.299146 
L 314.274875 176.15234 
" style="fill:none;stroke:#000000;stroke-linecap:square;stroke-width:0.8;"/>
    </g>
    <g id="text_10">
     <!-- 8 -->
     <g transform="translate(321.10031 195.556556)scale(0.1 -0.1)">
      <use xlink:href="#DejaVuSans-56"/>
     </g>
    </g>
   </g>
  </g>
  <g id="axis3d_3">
   <g id="line2d_13">
    <path d="M 316.12668 171.68791 
L 320.238571 81.894718 
" style="fill:none;stroke:#000000;stroke-linecap:square;stroke-width:0.8;"/>
   </g>
   <g id="Line3DCollection_3">
    <path d="M 316.205459 169.967571 
L 200.884845 136.530725 
L 129.013401 196.624949 
" style="fill:none;stroke:#b0b0b0;stroke-width:0.8;"/>
    <path d="M 316.84317 156.041592 
L 200.729776 123.045501 
L 128.3266 182.363078 
" style="fill:none;stroke:#b0b0b0;stroke-width:0.8;"/>
    <path d="M 317.489797 141.920922 
L 200.572643 109.380767 
L 127.62983 167.894207 
" style="fill:none;stroke:#b0b0b0;stroke-width:0.8;"/>
    <path d="M 318.145527 127.60145 
L 200.413403 95.532916 
L 126.922874 153.213796 
" style="fill:none;stroke:#b0b0b0;stroke-width:0.8;"/>
    <path d="M 318.810555 113.078947 
L 200.252016 81.498242 
L 126.205505 138.317172 
" style="fill:none;stroke:#b0b0b0;stroke-width:0.8;"/>
    <path d="M 319.485079 98.349066 
L 200.088436 67.272938 
L 125.477492 123.199522 
" style="fill:none;stroke:#b0b0b0;stroke-width:0.8;"/>
   </g>
   <g id="xtick_11">
    <g id="line2d_14">
     <path d="M 315.237563 169.686933 
L 318.143556 170.529516 
" style="fill:none;stroke:#000000;stroke-linecap:square;stroke-width:0.8;"/>
    </g>
    <g id="text_11">
     <!-- 0 -->
     <g transform="translate(331.275915 174.966846)scale(0.1 -0.1)">
      <use xlink:href="#DejaVuSans-48"/>
     </g>
    </g>
   </g>
   <g id="xtick_12">
    <g id="line2d_15">
     <path d="M 315.868303 155.764563 
L 318.795241 156.596314 
" style="fill:none;stroke:#000000;stroke-linecap:square;stroke-width:0.8;"/>
    </g>
    <g id="text_12">
     <!-- 10000 -->
     <g transform="translate(319.312499 161.074353)scale(0.1 -0.1)">
      <defs>
       <path d="M 12.40625 8.296875 
L 28.515625 8.296875 
L 28.515625 63.921875 
L 10.984375 60.40625 
L 10.984375 69.390625 
L 28.421875 72.90625 
L 38.28125 72.90625 
L 38.28125 8.296875 
L 54.390625 8.296875 
L 54.390625 0 
L 12.40625 0 
z
" id="DejaVuSans-49"/>
      </defs>
      <use xlink:href="#DejaVuSans-49"/>
      <use x="63.623047" xlink:href="#DejaVuSans-48"/>
      <use x="127.246094" xlink:href="#DejaVuSans-48"/>
      <use x="190.869141" xlink:href="#DejaVuSans-48"/>
      <use x="254.492188" xlink:href="#DejaVuSans-48"/>
     </g>
    </g>
   </g>
   <g id="xtick_13">
    <g id="line2d_16">
     <path d="M 316.507858 141.647631 
L 319.456044 142.468164 
" style="fill:none;stroke:#000000;stroke-linecap:square;stroke-width:0.8;"/>
    </g>
    <g id="text_13">
     <!-- 20000 -->
     <g transform="translate(320.08469 146.98836)scale(0.1 -0.1)">
      <use xlink:href="#DejaVuSans-50"/>
      <use x="63.623047" xlink:href="#DejaVuSans-48"/>
      <use x="127.246094" xlink:href="#DejaVuSans-48"/>
      <use x="190.869141" xlink:href="#DejaVuSans-48"/>
      <use x="254.492188" xlink:href="#DejaVuSans-48"/>
     </g>
    </g>
   </g>
   <g id="xtick_14">
    <g id="line2d_17">
     <path d="M 317.156414 127.33203 
L 320.126158 128.140945 
" style="fill:none;stroke:#000000;stroke-linecap:square;stroke-width:0.8;"/>
    </g>
    <g id="text_14">
     <!-- 30000 -->
     <g transform="translate(320.867712 132.704796)scale(0.1 -0.1)">
      <defs>
       <path d="M 40.578125 39.3125 
Q 47.65625 37.796875 51.625 33 
Q 55.609375 28.21875 55.609375 21.1875 
Q 55.609375 10.40625 48.1875 4.484375 
Q 40.765625 -1.421875 27.09375 -1.421875 
Q 22.515625 -1.421875 17.65625 -0.515625 
Q 12.796875 0.390625 7.625 2.203125 
L 7.625 11.71875 
Q 11.71875 9.328125 16.59375 8.109375 
Q 21.484375 6.890625 26.8125 6.890625 
Q 36.078125 6.890625 40.9375 10.546875 
Q 45.796875 14.203125 45.796875 21.1875 
Q 45.796875 27.640625 41.28125 31.265625 
Q 36.765625 34.90625 28.71875 34.90625 
L 20.21875 34.90625 
L 20.21875 43.015625 
L 29.109375 43.015625 
Q 36.375 43.015625 40.234375 45.921875 
Q 44.09375 48.828125 44.09375 54.296875 
Q 44.09375 59.90625 40.109375 62.90625 
Q 36.140625 65.921875 28.71875 65.921875 
Q 24.65625 65.921875 20.015625 65.03125 
Q 15.375 64.15625 9.8125 62.3125 
L 9.8125 71.09375 
Q 15.4375 72.65625 20.34375 73.4375 
Q 25.25 74.21875 29.59375 74.21875 
Q 40.828125 74.21875 47.359375 69.109375 
Q 53.90625 64.015625 53.90625 55.328125 
Q 53.90625 49.265625 50.4375 45.09375 
Q 46.96875 40.921875 40.578125 39.3125 
z
" id="DejaVuSans-51"/>
      </defs>
      <use xlink:href="#DejaVuSans-51"/>
      <use x="63.623047" xlink:href="#DejaVuSans-48"/>
      <use x="127.246094" xlink:href="#DejaVuSans-48"/>
      <use x="190.869141" xlink:href="#DejaVuSans-48"/>
      <use x="254.492188" xlink:href="#DejaVuSans-48"/>
     </g>
    </g>
   </g>
   <g id="xtick_15">
    <g id="line2d_18">
     <path d="M 317.814161 112.813536 
L 320.805781 113.61042 
" style="fill:none;stroke:#000000;stroke-linecap:square;stroke-width:0.8;"/>
    </g>
    <g id="text_15">
     <!-- 40000 -->
     <g transform="translate(321.661794 118.219476)scale(0.1 -0.1)">
      <use xlink:href="#DejaVuSans-52"/>
      <use x="63.623047" xlink:href="#DejaVuSans-48"/>
      <use x="127.246094" xlink:href="#DejaVuSans-48"/>
      <use x="190.869141" xlink:href="#DejaVuSans-48"/>
      <use x="254.492188" xlink:href="#DejaVuSans-48"/>
     </g>
    </g>
   </g>
   <g id="xtick_16">
    <g id="line2d_19">
     <path d="M 318.481297 98.087805 
L 321.495117 98.872231 
" style="fill:none;stroke:#000000;stroke-linecap:square;stroke-width:0.8;"/>
    </g>
    <g id="text_16">
     <!-- 50000 -->
     <g transform="translate(322.467172 103.528093)scale(0.1 -0.1)">
      <defs>
       <path d="M 10.796875 72.90625 
L 49.515625 72.90625 
L 49.515625 64.59375 
L 19.828125 64.59375 
L 19.828125 46.734375 
Q 21.96875 47.46875 24.109375 47.828125 
Q 26.265625 48.1875 28.421875 48.1875 
Q 40.625 48.1875 47.75 41.5 
Q 54.890625 34.8125 54.890625 23.390625 
Q 54.890625 11.625 47.5625 5.09375 
Q 40.234375 -1.421875 26.90625 -1.421875 
Q 22.3125 -1.421875 17.546875 -0.640625 
Q 12.796875 0.140625 7.71875 1.703125 
L 7.71875 11.625 
Q 12.109375 9.234375 16.796875 8.0625 
Q 21.484375 6.890625 26.703125 6.890625 
Q 35.15625 6.890625 40.078125 11.328125 
Q 45.015625 15.765625 45.015625 23.390625 
Q 45.015625 31 40.078125 35.4375 
Q 35.15625 39.890625 26.703125 39.890625 
Q 22.75 39.890625 18.8125 39.015625 
Q 14.890625 38.140625 10.796875 36.28125 
z
" id="DejaVuSans-53"/>
      </defs>
      <use xlink:href="#DejaVuSans-53"/>
      <use x="63.623047" xlink:href="#DejaVuSans-48"/>
      <use x="127.246094" xlink:href="#DejaVuSans-48"/>
      <use x="190.869141" xlink:href="#DejaVuSans-48"/>
      <use x="254.492188" xlink:href="#DejaVuSans-48"/>
     </g>
    </g>
   </g>
  </g>
  <g id="axes_1">
   <g id="Poly3DCollection_1">
    <path clip-path="url(#p3eb9094f56)" d="M 203.700438 142.115361 
L 203.540657 126.368018 
L 215.797947 129.864465 
L 215.863902 145.66701 
z
" style="fill:#2a0046;"/>
    <path clip-path="url(#p3eb9094f56)" d="M 196.401162 148.290596 
L 203.700438 142.115361 
L 215.863902 145.66701 
L 208.637156 151.907182 
z
" style="fill:#360059;"/>
    <path clip-path="url(#p3eb9094f56)" d="M 196.401162 148.290596 
L 196.182891 132.447455 
L 203.540657 126.368018 
L 203.700438 142.115361 
z
" style="fill:#5a0094;"/>
    <path clip-path="url(#p3eb9094f56)" d="M 215.863902 145.66701 
L 215.807314 132.10881 
L 228.180644 135.6502 
L 228.155024 149.255935 
z
" style="fill:#260045;"/>
    <path clip-path="url(#p3eb9094f56)" d="M 208.637156 151.907182 
L 215.863902 145.66701 
L 228.155024 149.255935 
L 221.002748 155.562072 
z
" style="fill:#300158;"/>
    <path clip-path="url(#p3eb9094f56)" d="M 208.637156 151.907182 
L 208.531349 138.266492 
L 215.807314 132.10881 
L 215.863902 145.66701 
z
" style="fill:#500192;"/>
    <path clip-path="url(#p3eb9094f56)" d="M 208.637156 151.907182 
L 215.863902 145.66701 
L 215.797947 129.864465 
L 208.513833 136.008331 
z
" style="fill:#2a0046;"/>
    <path clip-path="url(#p3eb9094f56)" d="M 196.182891 132.447455 
L 208.513833 136.008331 
L 215.797947 129.864465 
L 203.540657 126.368018 
z
" style="fill:#4e0080;"/>
    <path clip-path="url(#p3eb9094f56)" d="M 196.401162 148.290596 
L 208.637156 151.907182 
L 208.513833 136.008331 
L 196.182891 132.447455 
z
" style="fill:#5a0094;"/>
    <path clip-path="url(#p3eb9094f56)" d="M 228.155024 149.255935 
L 228.174539 138.892745 
L 240.659287 142.483227 
L 240.575825 152.882725 
z
" style="fill:#1f0143;"/>
    <path clip-path="url(#p3eb9094f56)" d="M 188.96817 154.578956 
L 196.401162 148.290596 
L 208.637156 151.907182 
L 201.27732 158.262275 
z
" style="fill:#5c144f;"/>
    <path clip-path="url(#p3eb9094f56)" d="M 221.002748 155.562072 
L 220.985536 145.135875 
L 228.174539 138.892745 
L 228.155024 149.255935 
z
" style="fill:#42028e;"/>
    <path clip-path="url(#p3eb9094f56)" d="M 221.002748 155.562072 
L 228.155024 149.255935 
L 240.575825 152.882725 
L 233.500008 159.25588 
z
" style="fill:#280156;"/>
    <path clip-path="url(#p3eb9094f56)" d="M 221.002748 155.562072 
L 228.155024 149.255935 
L 228.180644 135.6502 
L 220.98015 141.873416 
z
" style="fill:#260045;"/>
    <path clip-path="url(#p3eb9094f56)" d="M 208.531349 138.266492 
L 220.98015 141.873416 
L 228.180644 135.6502 
L 215.807314 132.10881 
z
" style="fill:#46017f;"/>
    <path clip-path="url(#p3eb9094f56)" d="M 196.401162 148.290596 
L 195.960966 116.339002 
L 208.388434 119.841895 
L 208.637156 151.907182 
z
" style="fill:#48103d;"/>
    <path clip-path="url(#p3eb9094f56)" d="M 240.575825 152.882725 
L 240.632697 145.79639 
L 253.229742 149.43684 
L 253.128369 156.547983 
z
" style="fill:#180240;"/>
    <path clip-path="url(#p3eb9094f56)" d="M 208.637156 151.907182 
L 221.002748 155.562072 
L 220.98015 141.873416 
L 208.531349 138.266492 
z
" style="fill:#500192;"/>
    <path clip-path="url(#p3eb9094f56)" d="M 188.96817 154.578956 
L 188.405669 122.430052 
L 195.960966 116.339002 
L 196.401162 148.290596 
z
" style="fill:#982182;"/>
    <path clip-path="url(#p3eb9094f56)" d="M 201.27732 158.262275 
L 208.637156 151.907182 
L 221.002748 155.562072 
L 213.718049 161.984967 
z
" style="fill:#621a4a;"/>
    <path clip-path="url(#p3eb9094f56)" d="M 233.500008 159.25588 
L 233.532393 152.126497 
L 240.632697 145.79639 
L 240.575825 152.882725 
z
" style="fill:#330488;"/>
    <path clip-path="url(#p3eb9094f56)" d="M 220.985536 145.135875 
L 233.547535 148.793049 
L 240.659287 142.483227 
L 228.174539 138.892745 
z
" style="fill:#39027b;"/>
    <path clip-path="url(#p3eb9094f56)" d="M 233.500008 159.25588 
L 240.575825 152.882725 
L 240.659287 142.483227 
L 233.547535 148.793049 
z
" style="fill:#1f0143;"/>
    <path clip-path="url(#p3eb9094f56)" d="M 233.500008 159.25588 
L 240.575825 152.882725 
L 253.128369 156.547983 
L 246.131049 162.989229 
z
" style="fill:#1f0252;"/>
    <path clip-path="url(#p3eb9094f56)" d="M 253.128369 156.547983 
L 253.184239 152.628819 
L 265.89568 156.319451 
L 265.814761 160.252323 
z
" style="fill:#11023d;"/>
    <path clip-path="url(#p3eb9094f56)" d="M 221.002748 155.562072 
L 233.500008 159.25588 
L 233.547535 148.793049 
L 220.985536 145.135875 
z
" style="fill:#42028e;"/>
    <path clip-path="url(#p3eb9094f56)" d="M 181.397755 160.983577 
L 188.96817 154.578956 
L 201.27732 158.262275 
L 193.780682 164.735494 
z
" style="fill:#6f293e;"/>
    <path clip-path="url(#p3eb9094f56)" d="M 208.637156 151.907182 
L 208.365093 116.832781 
L 220.944638 120.362362 
L 221.002748 155.562072 
z
" style="fill:#4c143a;"/>
    <path clip-path="url(#p3eb9094f56)" d="M 233.532393 152.126497 
L 246.208497 155.834819 
L 253.229742 149.43684 
L 240.632697 145.79639 
z
" style="fill:#2d0376;"/>
    <path clip-path="url(#p3eb9094f56)" d="M 246.131049 162.989229 
L 246.173732 159.046277 
L 253.184239 152.628819 
L 253.128369 156.547983 
z
" style="fill:#230581;"/>
    <path clip-path="url(#p3eb9094f56)" d="M 201.27732 158.262275 
L 208.637156 151.907182 
L 208.388434 119.841895 
L 200.908593 125.998616 
z
" style="fill:#48103d;"/>
    <path clip-path="url(#p3eb9094f56)" d="M 213.718049 161.984967 
L 221.002748 155.562072 
L 233.500008 159.25588 
L 226.292478 165.747667 
z
" style="fill:#591151;"/>
    <path clip-path="url(#p3eb9094f56)" d="M 246.131049 162.989229 
L 253.128369 156.547983 
L 253.229742 149.43684 
L 246.208497 155.834819 
z
" style="fill:#180240;"/>
    <path clip-path="url(#p3eb9094f56)" d="M 201.27732 158.262275 
L 200.873985 122.970403 
L 208.365093 116.832781 
L 208.637156 151.907182 
z
" style="fill:#a22b7a;"/>
    <path clip-path="url(#p3eb9094f56)" d="M 246.131049 162.989229 
L 253.128369 156.547983 
L 265.814761 160.252323 
L 258.898031 166.762758 
z
" style="fill:#15034e;"/>
    <path clip-path="url(#p3eb9094f56)" d="M 188.96817 154.578956 
L 201.27732 158.262275 
L 200.908593 125.998616 
L 188.405669 122.430052 
z
" style="fill:#982182;"/>
    <path clip-path="url(#p3eb9094f56)" d="M 233.500008 159.25588 
L 246.131049 162.989229 
L 246.208497 155.834819 
L 233.532393 152.126497 
z
" style="fill:#330488;"/>
    <path clip-path="url(#p3eb9094f56)" d="M 265.814761 160.252323 
L 265.854904 158.301262 
L 278.68999 162.038489 
L 278.637155 163.996376 
z
" style="fill:#0b033b;"/>
    <path clip-path="url(#p3eb9094f56)" d="M 221.002748 155.562072 
L 220.952702 125.247065 
L 233.638206 128.832762 
L 233.500008 159.25588 
z
" style="fill:#450d3f;"/>
    <path clip-path="url(#p3eb9094f56)" d="M 246.173732 159.046277 
L 258.966086 162.805978 
L 265.89568 156.319451 
L 253.184239 152.628819 
z
" style="fill:#1f0470;"/>
    <path clip-path="url(#p3eb9094f56)" d="M 193.780682 164.735494 
L 201.27732 158.262275 
L 213.718049 161.984967 
L 206.297214 168.527892 
z
" style="fill:#7b3b30;"/>
    <path clip-path="url(#p3eb9094f56)" d="M 258.898031 166.762758 
L 258.931792 164.799854 
L 265.854904 158.301262 
L 265.814761 160.252323 
z
" style="fill:#18057c;"/>
    <path clip-path="url(#p3eb9094f56)" d="M 188.96817 154.578956 
L 188.209804 111.235657 
L 200.780186 114.762982 
L 201.27732 158.262275 
z
" style="fill:#562030;"/>
    <path clip-path="url(#p3eb9094f56)" d="M 213.718049 161.984967 
L 213.557211 131.482342 
L 220.952702 125.247065 
L 221.002748 155.562072 
z
" style="fill:#931c86;"/>
    <path clip-path="url(#p3eb9094f56)" d="M 258.898031 166.762758 
L 265.814761 160.252323 
L 265.89568 156.319451 
L 258.966086 162.805978 
z
" style="fill:#11023d;"/>
    <path clip-path="url(#p3eb9094f56)" d="M 188.405669 122.430052 
L 200.908593 125.998616 
L 208.388434 119.841895 
L 195.960966 116.339002 
z
" style="fill:#841d71;"/>
    <path clip-path="url(#p3eb9094f56)" d="M 226.292478 165.747667 
L 233.500008 159.25588 
L 246.131049 162.989229 
L 239.002775 169.551023 
z
" style="fill:#470359;"/>
    <path clip-path="url(#p3eb9094f56)" d="M 213.718049 161.984967 
L 221.002748 155.562072 
L 220.944638 120.362362 
L 213.53129 126.566614 
z
" style="fill:#4c143a;"/>
    <path clip-path="url(#p3eb9094f56)" d="M 233.500008 159.25588 
L 233.602929 136.598553 
L 246.377193 140.251428 
L 246.131049 162.989229 
z
" style="fill:#380345;"/>
    <path clip-path="url(#p3eb9094f56)" d="M 181.397755 160.983577 
L 180.468377 117.36955 
L 188.209804 111.235657 
L 188.96817 154.578956 
z
" style="fill:#b74367;"/>
    <path clip-path="url(#p3eb9094f56)" d="M 258.898031 166.762758 
L 265.814761 160.252323 
L 278.637155 163.996376 
L 271.803162 170.57712 
z
" style="fill:#0e034b;"/>
    <path clip-path="url(#p3eb9094f56)" d="M 246.131049 162.989229 
L 258.898031 166.762758 
L 258.966086 162.805978 
L 246.173732 159.046277 
z
" style="fill:#230581;"/>
    <path clip-path="url(#p3eb9094f56)" d="M 278.637155 163.996376 
L 278.655267 163.325188 
L 291.620306 167.107245 
L 291.597749 167.780781 
z
" style="fill:#070339;"/>
    <path clip-path="url(#p3eb9094f56)" d="M 258.931792 164.799854 
L 271.849781 168.607332 
L 278.68999 162.038489 
L 265.854904 158.301262 
z
" style="fill:#15056c;"/>
    <path clip-path="url(#p3eb9094f56)" d="M 173.686069 167.507715 
L 181.397755 160.983577 
L 193.780682 164.735494 
L 186.143392 171.330164 
z
" style="fill:#6a2342;"/>
    <path clip-path="url(#p3eb9094f56)" d="M 201.27732 158.262275 
L 213.718049 161.984967 
L 213.53129 126.566614 
L 200.873985 122.970403 
z
" style="fill:#a22b7a;"/>
    <path clip-path="url(#p3eb9094f56)" d="M 226.292478 165.747667 
L 226.314637 142.950688 
L 233.602929 136.598553 
L 233.500008 159.25588 
z
" style="fill:#760693;"/>
    <path clip-path="url(#p3eb9094f56)" d="M 206.297214 168.527892 
L 213.718049 161.984967 
L 226.292478 165.747667 
L 218.949524 172.361429 
z
" style="fill:#824926;"/>
    <path clip-path="url(#p3eb9094f56)" d="M 246.131049 162.989229 
L 246.282171 149.029179 
L 259.138985 152.753372 
L 258.898031 166.762758 
z
" style="fill:#270045;"/>
    <path clip-path="url(#p3eb9094f56)" d="M 271.803162 170.57712 
L 271.819143 169.901856 
L 278.655267 163.325188 
L 278.637155 163.996376 
z
" style="fill:#0e0678;"/>
    <path clip-path="url(#p3eb9094f56)" d="M 271.803162 170.57712 
L 278.637155 163.996376 
L 278.68999 162.038489 
L 271.849781 168.607332 
z
" style="fill:#0b033b;"/>
    <path clip-path="url(#p3eb9094f56)" d="M 226.292478 165.747667 
L 233.500008 159.25588 
L 233.638206 128.832762 
L 226.322233 135.135934 
z
" style="fill:#450d3f;"/>
    <path clip-path="url(#p3eb9094f56)" d="M 239.002775 169.551023 
L 246.131049 162.989229 
L 258.898031 166.762758 
L 251.851153 173.395697 
z
" style="fill:#310058;"/>
    <path clip-path="url(#p3eb9094f56)" d="M 239.002775 169.551023 
L 239.105424 155.50536 
L 246.282171 149.029179 
L 246.131049 162.989229 
z
" style="fill:#520192;"/>
    <path clip-path="url(#p3eb9094f56)" d="M 258.898031 166.762758 
L 271.803162 170.57712 
L 271.849781 168.607332 
L 258.931792 164.799854 
z
" style="fill:#18057c;"/>
    <path clip-path="url(#p3eb9094f56)" d="M 200.873985 122.970403 
L 213.53129 126.566614 
L 220.944638 120.362362 
L 208.365093 116.832781 
z
" style="fill:#8d256a;"/>
    <path clip-path="url(#p3eb9094f56)" d="M 193.780682 164.735494 
L 201.27732 158.262275 
L 200.780186 114.762982 
L 193.115686 120.964 
z
" style="fill:#562030;"/>
    <path clip-path="url(#p3eb9094f56)" d="M 271.803162 170.57712 
L 278.637155 163.996376 
L 291.597749 167.780781 
L 284.848695 174.43298 
z
" style="fill:#090449;"/>
    <path clip-path="url(#p3eb9094f56)" d="M 213.718049 161.984967 
L 226.292478 165.747667 
L 226.322233 135.135934 
L 213.557211 131.482342 
z
" style="fill:#931c86;"/>
    <path clip-path="url(#p3eb9094f56)" d="M 201.27732 158.262275 
L 200.668553 104.995022 
L 213.436154 108.524267 
L 213.718049 161.984967 
z
" style="fill:#602e26;"/>
    <path clip-path="url(#p3eb9094f56)" d="M 271.819143 169.901856 
L 284.86918 173.755348 
L 291.620306 167.107245 
L 278.655267 163.325188 
z
" style="fill:#0c0668;"/>
    <path clip-path="url(#p3eb9094f56)" d="M 258.898031 166.762758 
L 259.001833 160.727577 
L 271.946499 164.520706 
L 271.803162 170.57712 
z
" style="fill:#15023f;"/>
    <path clip-path="url(#p3eb9094f56)" d="M 291.597749 167.780781 
L 291.608864 167.448879 
L 304.712142 171.273132 
L 304.698789 171.606197 
z
" style="fill:#050338;"/>
    <path clip-path="url(#p3eb9094f56)" d="M 181.397755 160.983577 
L 180.535764 120.531916 
L 193.163909 124.138126 
L 193.780682 164.735494 
z
" style="fill:#531b34;"/>
    <path clip-path="url(#p3eb9094f56)" d="M 186.143392 171.330164 
L 193.780682 164.735494 
L 206.297214 168.527892 
L 198.736391 175.194243 
z
" style="fill:#7e3f2d;"/>
    <path clip-path="url(#p3eb9094f56)" d="M 239.002775 169.551023 
L 246.131049 162.989229 
L 246.377193 140.251428 
L 239.169974 146.672843 
z
" style="fill:#380345;"/>
    <path clip-path="url(#p3eb9094f56)" d="M 181.397755 160.983577 
L 193.780682 164.735494 
L 193.115686 120.964 
L 180.468377 117.36955 
z
" style="fill:#b74367;"/>
    <path clip-path="url(#p3eb9094f56)" d="M 193.780682 164.735494 
L 192.966321 111.132504 
L 200.668553 104.995022 
L 201.27732 158.262275 
z
" style="fill:#cc6250;"/>
    <path clip-path="url(#p3eb9094f56)" d="M 218.949524 172.361429 
L 226.292478 165.747667 
L 239.002775 169.551023 
L 231.739835 176.23678 
z
" style="fill:#7f422b;"/>
    <path clip-path="url(#p3eb9094f56)" d="M 251.851153 173.395697 
L 251.934569 167.323673 
L 259.001833 160.727577 
L 258.898031 166.762758 
z
" style="fill:#2d0486;"/>
    <path clip-path="url(#p3eb9094f56)" d="M 284.848695 174.43298 
L 284.85879 174.09906 
L 291.608864 167.448879 
L 291.597749 167.780781 
z
" style="fill:#0b0777;"/>
    <path clip-path="url(#p3eb9094f56)" d="M 213.557211 131.482342 
L 226.322233 135.135934 
L 233.638206 128.832762 
L 220.952702 125.247065 
z
" style="fill:#7f1874;"/>
    <path clip-path="url(#p3eb9094f56)" d="M 284.848695 174.43298 
L 291.597749 167.780781 
L 291.620306 167.107245 
L 284.86918 173.755348 
z
" style="fill:#070339;"/>
    <path clip-path="url(#p3eb9094f56)" d="M 173.686069 167.507715 
L 172.659595 126.803185 
L 180.535764 120.531916 
L 181.397755 160.983577 
z
" style="fill:#b03a6e;"/>
    <path clip-path="url(#p3eb9094f56)" d="M 226.292478 165.747667 
L 239.002775 169.551023 
L 239.169974 146.672843 
L 226.314637 142.950688 
z
" style="fill:#760693;"/>
    <path clip-path="url(#p3eb9094f56)" d="M 251.851153 173.395697 
L 258.898031 166.762758 
L 271.803162 170.57712 
L 264.839875 177.282368 
z
" style="fill:#1b0251;"/>
    <path clip-path="url(#p3eb9094f56)" d="M 226.314637 142.950688 
L 239.169974 146.672843 
L 246.377193 140.251428 
L 233.602929 136.598553 
z
" style="fill:#660580;"/>
    <path clip-path="url(#p3eb9094f56)" d="M 251.851153 173.395697 
L 258.898031 166.762758 
L 259.138985 152.753372 
L 252.044792 159.300263 
z
" style="fill:#270045;"/>
    <path clip-path="url(#p3eb9094f56)" d="M 271.803162 170.57712 
L 284.848695 174.43298 
L 284.86918 173.755348 
L 271.819143 169.901856 
z
" style="fill:#0e0678;"/>
    <path clip-path="url(#p3eb9094f56)" d="M 165.82912 174.154745 
L 173.686069 167.507715 
L 186.143392 171.330164 
L 178.361455 178.049733 
z
" style="fill:#4d0757;"/>
    <path clip-path="url(#p3eb9094f56)" d="M 271.803162 170.57712 
L 271.848702 168.652904 
L 284.907068 172.502007 
L 284.848695 174.43298 
z
" style="fill:#0a033a;"/>
    <path clip-path="url(#p3eb9094f56)" d="M 284.848695 174.43298 
L 291.597749 167.780781 
L 304.698789 171.606197 
L 298.036935 178.33102 
z
" style="fill:#070448;"/>
    <path clip-path="url(#p3eb9094f56)" d="M 239.105424 155.50536 
L 252.044792 159.300263 
L 259.138985 152.753372 
L 246.282171 149.029179 
z
" style="fill:#47017f;"/>
    <path clip-path="url(#p3eb9094f56)" d="M 284.85879 174.09906 
L 298.049296 177.995927 
L 304.712142 171.273132 
L 291.608864 167.448879 
z
" style="fill:#0a0667;"/>
    <path clip-path="url(#p3eb9094f56)" d="M 198.736391 175.194243 
L 206.297214 168.527892 
L 218.949524 172.361429 
L 211.467294 179.100638 
z
" style="fill:#875e1a;"/>
    <path clip-path="url(#p3eb9094f56)" d="M 173.686069 167.507715 
L 173.051083 142.327554 
L 185.661948 146.060087 
L 186.143392 171.330164 
z
" style="fill:#3c0544;"/>
    <path clip-path="url(#p3eb9094f56)" d="M 239.002775 169.551023 
L 251.851153 173.395697 
L 252.044792 159.300263 
L 239.105424 155.50536 
z
" style="fill:#520192;"/>
    <path clip-path="url(#p3eb9094f56)" d="M 251.934569 167.323673 
L 264.963344 171.188928 
L 271.946499 164.520706 
L 259.001833 160.727577 
z
" style="fill:#270374;"/>
    <path clip-path="url(#p3eb9094f56)" d="M 264.839875 177.282368 
L 264.879102 175.346426 
L 271.848702 168.652904 
L 271.803162 170.57712 
z
" style="fill:#16067b;"/>
    <path clip-path="url(#p3eb9094f56)" d="M 213.718049 161.984967 
L 213.39853 101.388925 
L 226.351593 104.929991 
L 226.292478 165.747667 
z
" style="fill:#66391e;"/>
    <path clip-path="url(#p3eb9094f56)" d="M 206.297214 168.527892 
L 213.718049 161.984967 
L 213.436154 108.524267 
L 205.813755 114.729607 
z
" style="fill:#602e26;"/>
    <path clip-path="url(#p3eb9094f56)" d="M 180.468377 117.36955 
L 193.115686 120.964 
L 200.780186 114.762982 
L 188.209804 111.235657 
z
" style="fill:#9f3a59;"/>
    <path clip-path="url(#p3eb9094f56)" d="M 231.739835 176.23678 
L 239.002775 169.551023 
L 251.851153 173.395697 
L 244.670417 180.154631 
z
" style="fill:#712c3c;"/>
    <path clip-path="url(#p3eb9094f56)" d="M 264.839875 177.282368 
L 271.803162 170.57712 
L 271.946499 164.520706 
L 264.963344 171.188928 
z
" style="fill:#15023f;"/>
    <path clip-path="url(#p3eb9094f56)" d="M 298.036935 178.33102 
L 304.698789 171.606197 
L 304.712142 171.273132 
L 298.049296 177.995927 
z
" style="fill:#050338;"/>
    <path clip-path="url(#p3eb9094f56)" d="M 186.143392 171.330164 
L 193.780682 164.735494 
L 193.163909 124.138126 
L 185.365089 130.478572 
z
" style="fill:#531b34;"/>
    <path clip-path="url(#p3eb9094f56)" d="M 165.82912 174.154745 
L 165.088643 148.818551 
L 173.051083 142.327554 
L 173.686069 167.507715 
z
" style="fill:#7f0c90;"/>
    <path clip-path="url(#p3eb9094f56)" d="M 264.839875 177.282368 
L 271.803162 170.57712 
L 284.848695 174.43298 
L 277.971253 181.211726 
z
" style="fill:#0d034a;"/>
    <path clip-path="url(#p3eb9094f56)" d="M 206.297214 168.527892 
L 205.74921 107.547189 
L 213.39853 101.388925 
L 213.718049 161.984967 
z
" style="fill:#d87940;"/>
    <path clip-path="url(#p3eb9094f56)" d="M 193.780682 164.735494 
L 206.297214 168.527892 
L 205.813755 114.729607 
L 192.966321 111.132504 
z
" style="fill:#cc6250;"/>
    <path clip-path="url(#p3eb9094f56)" d="M 251.851153 173.395697 
L 264.839875 177.282368 
L 264.963344 171.188928 
L 251.934569 167.323673 
z
" style="fill:#2d0486;"/>
    <path clip-path="url(#p3eb9094f56)" d="M 193.780682 164.735494 
L 192.932907 108.933082 
L 205.793914 112.521841 
L 206.297214 168.527892 
z
" style="fill:#623123;"/>
    <path clip-path="url(#p3eb9094f56)" d="M 284.848695 174.43298 
L 298.036935 178.33102 
L 298.049296 177.995927 
L 284.85879 174.09906 
z
" style="fill:#0b0777;"/>
    <path clip-path="url(#p3eb9094f56)" d="M 284.848695 174.43298 
L 284.861744 174.00132 
L 298.052915 177.897843 
L 298.036935 178.33102 
z
" style="fill:#050338;"/>
    <path clip-path="url(#p3eb9094f56)" d="M 264.879102 175.346426 
L 278.023484 179.268969 
L 284.907068 172.502007 
L 271.848702 168.652904 
z
" style="fill:#13056b;"/>
    <path clip-path="url(#p3eb9094f56)" d="M 173.686069 167.507715 
L 186.143392 171.330164 
L 185.365089 130.478572 
L 172.659595 126.803185 
z
" style="fill:#b03a6e;"/>
    <path clip-path="url(#p3eb9094f56)" d="M 178.361455 178.049733 
L 186.143392 171.330164 
L 198.736391 175.194243 
L 191.031582 181.987547 
z
" style="fill:#692243;"/>
    <path clip-path="url(#p3eb9094f56)" d="M 211.467294 179.100638 
L 218.949524 172.361429 
L 231.739835 176.23678 
L 224.338378 183.050047 
z
" style="fill:#876c14;"/>
    <path clip-path="url(#p3eb9094f56)" d="M 226.292478 165.747667 
L 226.348102 108.521505 
L 239.422525 112.115712 
L 239.002775 169.551023 
z
" style="fill:#633322;"/>
    <path clip-path="url(#p3eb9094f56)" d="M 186.143392 171.330164 
L 185.073514 115.17433 
L 192.932907 108.933082 
L 193.780682 164.735494 
z
" style="fill:#d0684b;"/>
    <path clip-path="url(#p3eb9094f56)" d="M 277.971253 181.211726 
L 277.982929 180.777434 
L 284.861744 174.00132 
L 284.848695 174.43298 
z
" style="fill:#0b0777;"/>
    <path clip-path="url(#p3eb9094f56)" d="M 277.971253 181.211726 
L 284.848695 174.43298 
L 284.907068 172.502007 
L 278.023484 179.268969 
z
" style="fill:#0a033a;"/>
    <path clip-path="url(#p3eb9094f56)" d="M 165.82912 174.154745 
L 165.477769 162.132903 
L 178.083843 165.985284 
L 178.361455 178.049733 
z
" style="fill:#220144;"/>
    <path clip-path="url(#p3eb9094f56)" d="M 244.670417 180.154631 
L 251.851153 173.395697 
L 264.839875 177.282368 
L 257.743589 184.115686 
z
" style="fill:#4b0658;"/>
    <path clip-path="url(#p3eb9094f56)" d="M 218.949524 172.361429 
L 218.794645 114.772283 
L 226.348102 108.521505 
L 226.292478 165.747667 
z
" style="fill:#d26d48;"/>
    <path clip-path="url(#p3eb9094f56)" d="M 178.361455 178.049733 
L 186.143392 171.330164 
L 185.661948 146.060087 
L 177.776362 152.622821 
z
" style="fill:#3c0544;"/>
    <path clip-path="url(#p3eb9094f56)" d="M 157.822766 180.928173 
L 165.82912 174.154745 
L 178.361455 178.049733 
L 170.430723 184.897786 
z
" style="fill:#2b0157;"/>
    <path clip-path="url(#p3eb9094f56)" d="M 239.002775 169.551023 
L 239.335082 124.080697 
L 252.478079 127.760362 
L 251.851153 173.395697 
z
" style="fill:#58222f;"/>
    <path clip-path="url(#p3eb9094f56)" d="M 264.839875 177.282368 
L 277.971253 181.211726 
L 278.023484 179.268969 
L 264.879102 175.346426 
z
" style="fill:#16067b;"/>
    <path clip-path="url(#p3eb9094f56)" d="M 157.822766 180.928173 
L 157.419516 168.8324 
L 165.477769 162.132903 
L 165.82912 174.154745 
z
" style="fill:#480290;"/>
    <path clip-path="url(#p3eb9094f56)" d="M 251.851153 173.395697 
L 252.19191 148.591247 
L 265.344277 152.389164 
L 264.839875 177.282368 
z
" style="fill:#3b0545;"/>
    <path clip-path="url(#p3eb9094f56)" d="M 277.971253 181.211726 
L 284.848695 174.43298 
L 298.036935 178.33102 
L 291.24765 185.184478 
z
" style="fill:#070448;"/>
    <path clip-path="url(#p3eb9094f56)" d="M 218.949524 172.361429 
L 226.292478 165.747667 
L 226.351593 104.929991 
L 218.784922 111.156961 
z
" style="fill:#66391e;"/>
    <path clip-path="url(#p3eb9094f56)" d="M 277.982929 180.777434 
L 291.262297 184.748658 
L 298.052915 177.897843 
L 284.861744 174.00132 
z
" style="fill:#0a0667;"/>
    <path clip-path="url(#p3eb9094f56)" d="M 172.659595 126.803185 
L 185.365089 130.478572 
L 193.163909 124.138126 
L 180.535764 120.531916 
z
" style="fill:#98325f;"/>
    <path clip-path="url(#p3eb9094f56)" d="M 186.143392 171.330164 
L 185.378964 131.206817 
L 198.221151 134.925768 
L 198.736391 175.194243 
z
" style="fill:#521a35;"/>
    <path clip-path="url(#p3eb9094f56)" d="M 264.839875 177.282368 
L 264.986921 170.02536 
L 278.167047 173.929065 
L 277.971253 181.211726 
z
" style="fill:#180240;"/>
    <path clip-path="url(#p3eb9094f56)" d="M 191.031582 181.987547 
L 198.736391 175.194243 
L 211.467294 179.100638 
L 203.841786 185.968896 
z
" style="fill:#7f422b;"/>
    <path clip-path="url(#p3eb9094f56)" d="M 165.82912 174.154745 
L 178.361455 178.049733 
L 177.776362 152.622821 
L 165.088643 148.818551 
z
" style="fill:#7f0c90;"/>
    <path clip-path="url(#p3eb9094f56)" d="M 231.739835 176.23678 
L 231.909179 130.48009 
L 239.335082 124.080697 
L 239.002775 169.551023 
z
" style="fill:#bb4863;"/>
    <path clip-path="url(#p3eb9094f56)" d="M 244.670417 180.154631 
L 244.924659 155.196169 
L 252.19191 148.591247 
L 251.851153 173.395697 
z
" style="fill:#7c0a91;"/>
    <path clip-path="url(#p3eb9094f56)" d="M 206.297214 168.527892 
L 218.949524 172.361429 
L 218.784922 111.156961 
L 205.74921 107.547189 
z
" style="fill:#d87940;"/>
    <path clip-path="url(#p3eb9094f56)" d="M 224.338378 183.050047 
L 231.739835 176.23678 
L 244.670417 180.154631 
L 237.351973 187.043183 
z
" style="fill:#857714;"/>
    <path clip-path="url(#p3eb9094f56)" d="M 165.088643 148.818551 
L 177.776362 152.622821 
L 185.661948 146.060087 
L 173.051083 142.327554 
z
" style="fill:#6e0a7d;"/>
    <path clip-path="url(#p3eb9094f56)" d="M 198.736391 175.194243 
L 206.297214 168.527892 
L 205.793914 112.521841 
L 198.015239 118.832836 
z
" style="fill:#623123;"/>
    <path clip-path="url(#p3eb9094f56)" d="M 291.24765 185.184478 
L 298.036935 178.33102 
L 298.052915 177.897843 
L 291.262297 184.748658 
z
" style="fill:#050338;"/>
    <path clip-path="url(#p3eb9094f56)" d="M 178.361455 178.049733 
L 177.432391 137.674532 
L 185.378964 131.206817 
L 186.143392 171.330164 
z
" style="fill:#ae386f;"/>
    <path clip-path="url(#p3eb9094f56)" d="M 257.743589 184.115686 
L 257.866033 176.814167 
L 264.986921 170.02536 
L 264.839875 177.282368 
z
" style="fill:#330488;"/>
    <path clip-path="url(#p3eb9094f56)" d="M 192.966321 111.132504 
L 205.813755 114.729607 
L 213.436154 108.524267 
L 200.668553 104.995022 
z
" style="fill:#b15545;"/>
    <path clip-path="url(#p3eb9094f56)" d="M 257.743589 184.115686 
L 264.839875 177.282368 
L 277.971253 181.211726 
L 270.961723 188.120663 
z
" style="fill:#1f0252;"/>
    <path clip-path="url(#p3eb9094f56)" d="M 206.297214 168.527892 
L 205.662388 97.885899 
L 218.758839 101.458368 
L 218.949524 172.361429 
z
" style="fill:#6a4a14;"/>
    <path clip-path="url(#p3eb9094f56)" d="M 231.739835 176.23678 
L 239.002775 169.551023 
L 239.422525 112.115712 
L 231.953752 118.436495 
z
" style="fill:#633322;"/>
    <path clip-path="url(#p3eb9094f56)" d="M 178.361455 178.049733 
L 177.963579 160.758874 
L 190.741753 164.63507 
L 191.031582 181.987547 
z
" style="fill:#2c0046;"/>
    <path clip-path="url(#p3eb9094f56)" d="M 186.143392 171.330164 
L 198.736391 175.194243 
L 198.015239 118.832836 
L 185.073514 115.17433 
z
" style="fill:#d0684b;"/>
    <path clip-path="url(#p3eb9094f56)" d="M 277.971253 181.211726 
L 291.24765 185.184478 
L 291.262297 184.748658 
L 277.982929 180.777434 
z
" style="fill:#0b0777;"/>
    <path clip-path="url(#p3eb9094f56)" d="M 277.971253 181.211726 
L 277.996799 180.26152 
L 291.279696 184.230926 
L 291.24765 185.184478 
z
" style="fill:#070339;"/>
    <path clip-path="url(#p3eb9094f56)" d="M 170.430723 184.897786 
L 178.361455 178.049733 
L 191.031582 181.987547 
L 183.178635 188.911464 
z
" style="fill:#39005a;"/>
    <path clip-path="url(#p3eb9094f56)" d="M 170.430723 184.897786 
L 178.361455 178.049733 
L 178.083843 165.985284 
L 170.102093 172.759041 
z
" style="fill:#220144;"/>
    <path clip-path="url(#p3eb9094f56)" d="M 157.419516 168.8324 
L 170.102093 172.759041 
L 178.083843 165.985284 
L 165.477769 162.132903 
z
" style="fill:#3e017d;"/>
    <path clip-path="url(#p3eb9094f56)" d="M 157.822766 180.928173 
L 157.642017 175.506465 
L 170.283423 179.456917 
L 170.430723 184.897786 
z
" style="fill:#14023e;"/>
    <path clip-path="url(#p3eb9094f56)" d="M 198.736391 175.194243 
L 197.82672 104.09914 
L 205.662388 97.885899 
L 206.297214 168.527892 
z
" style="fill:#e09c2b;"/>
    <path clip-path="url(#p3eb9094f56)" d="M 203.841786 185.968896 
L 211.467294 179.100638 
L 224.338378 183.050047 
L 216.794403 189.994506 
z
" style="fill:#876616;"/>
    <path clip-path="url(#p3eb9094f56)" d="M 218.949524 172.361429 
L 231.739835 176.23678 
L 231.953752 118.436495 
L 218.794645 114.772283 
z
" style="fill:#d26d48;"/>
    <path clip-path="url(#p3eb9094f56)" d="M 170.430723 184.897786 
L 169.959716 167.500009 
L 177.963579 160.758874 
L 178.361455 178.049733 
z
" style="fill:#5e0094;"/>
    <path clip-path="url(#p3eb9094f56)" d="M 270.961723 188.120663 
L 270.984144 187.16465 
L 277.996799 180.26152 
L 277.971253 181.211726 
z
" style="fill:#0e0678;"/>
    <path clip-path="url(#p3eb9094f56)" d="M 244.670417 180.154631 
L 251.851153 173.395697 
L 252.478079 127.760362 
L 245.138219 134.231406 
z
" style="fill:#58222f;"/>
    <path clip-path="url(#p3eb9094f56)" d="M 157.822766 180.928173 
L 170.430723 184.897786 
L 170.102093 172.759041 
L 157.419516 168.8324 
z
" style="fill:#480290;"/>
    <path clip-path="url(#p3eb9094f56)" d="M 257.743589 184.115686 
L 264.839875 177.282368 
L 265.344277 152.389164 
L 258.163637 159.067687 
z
" style="fill:#3b0545;"/>
    <path clip-path="url(#p3eb9094f56)" d="M 257.866033 176.814167 
L 271.133569 180.793275 
L 278.167047 173.929065 
L 264.986921 170.02536 
z
" style="fill:#2d0376;"/>
    <path clip-path="url(#p3eb9094f56)" d="M 149.662704 187.831639 
L 149.457827 182.376685 
L 157.642017 175.506465 
L 157.822766 180.928173 
z
" style="fill:#2a0484;"/>
    <path clip-path="url(#p3eb9094f56)" d="M 237.351973 187.043183 
L 244.670417 180.154631 
L 257.743589 184.115686 
L 250.510457 191.080779 
z
" style="fill:#86551f;"/>
    <path clip-path="url(#p3eb9094f56)" d="M 191.031582 181.987547 
L 198.736391 175.194243 
L 198.221151 134.925768 
L 190.35477 141.465893 
z
" style="fill:#521a35;"/>
    <path clip-path="url(#p3eb9094f56)" d="M 270.961723 188.120663 
L 277.971253 181.211726 
L 278.167047 173.929065 
L 271.133569 180.793275 
z
" style="fill:#180240;"/>
    <path clip-path="url(#p3eb9094f56)" d="M 149.662704 187.831639 
L 157.822766 180.928173 
L 170.430723 184.897786 
L 162.346885 191.878042 
z
" style="fill:#190350;"/>
    <path clip-path="url(#p3eb9094f56)" d="M 231.739835 176.23678 
L 244.670417 180.154631 
L 245.138219 134.231406 
L 231.909179 130.48009 
z
" style="fill:#bb4863;"/>
    <path clip-path="url(#p3eb9094f56)" d="M 244.670417 180.154631 
L 257.743589 184.115686 
L 258.163637 159.067687 
L 244.924659 155.196169 
z
" style="fill:#7c0a91;"/>
    <path clip-path="url(#p3eb9094f56)" d="M 270.961723 188.120663 
L 277.971253 181.211726 
L 291.24765 185.184478 
L 284.327244 192.170297 
z
" style="fill:#090449;"/>
    <path clip-path="url(#p3eb9094f56)" d="M 270.984144 187.16465 
L 284.356254 191.21091 
L 291.279696 184.230926 
L 277.996799 180.26152 
z
" style="fill:#0c0668;"/>
    <path clip-path="url(#p3eb9094f56)" d="M 178.361455 178.049733 
L 191.031582 181.987547 
L 190.35477 141.465893 
L 177.432391 137.674532 
z
" style="fill:#ae386f;"/>
    <path clip-path="url(#p3eb9094f56)" d="M 257.743589 184.115686 
L 270.961723 188.120663 
L 271.133569 180.793275 
L 257.866033 176.814167 
z
" style="fill:#330488;"/>
    <path clip-path="url(#p3eb9094f56)" d="M 183.178635 188.911464 
L 191.031582 181.987547 
L 203.841786 185.968896 
L 196.068846 192.969946 
z
" style="fill:#4e0857;"/>
    <path clip-path="url(#p3eb9094f56)" d="M 198.736391 175.194243 
L 197.993627 117.143763 
L 211.091774 120.837004 
L 211.467294 179.100638 
z
" style="fill:#633422;"/>
    <path clip-path="url(#p3eb9094f56)" d="M 244.924659 155.196169 
L 258.163637 159.067687 
L 265.344277 152.389164 
L 252.19191 148.591247 
z
" style="fill:#6c087e;"/>
    <path clip-path="url(#p3eb9094f56)" d="M 218.949524 172.361429 
L 218.742673 95.447567 
L 232.025549 99.036869 
L 231.739835 176.23678 
z
" style="fill:#695510;"/>
    <path clip-path="url(#p3eb9094f56)" d="M 170.430723 184.897786 
L 170.216182 176.973185 
L 183.013915 180.958766 
L 183.178635 188.911464 
z
" style="fill:#1a0241;"/>
    <path clip-path="url(#p3eb9094f56)" d="M 149.457827 182.376685 
L 162.175857 186.403767 
L 170.283423 179.456917 
L 157.642017 175.506465 
z
" style="fill:#240473;"/>
    <path clip-path="url(#p3eb9094f56)" d="M 211.467294 179.100638 
L 218.949524 172.361429 
L 218.758839 101.458368 
L 211.007374 107.741936 
z
" style="fill:#6a4a14;"/>
    <path clip-path="url(#p3eb9094f56)" d="M 216.794403 189.994506 
L 224.338378 183.050047 
L 237.351973 187.043183 
L 229.891821 194.06512 
z
" style="fill:#808512;"/>
    <path clip-path="url(#p3eb9094f56)" d="M 205.74921 107.547189 
L 218.784922 111.156961 
L 226.351593 104.929991 
L 213.39853 101.388925 
z
" style="fill:#bb6937;"/>
    <path clip-path="url(#p3eb9094f56)" d="M 183.178635 188.911464 
L 191.031582 181.987547 
L 190.741753 164.63507 
L 182.816997 171.451541 
z
" style="fill:#2c0046;"/>
    <path clip-path="url(#p3eb9094f56)" d="M 191.031582 181.987547 
L 190.591699 155.651138 
L 203.569571 159.537846 
L 203.841786 185.968896 
z
" style="fill:#3d0644;"/>
    <path clip-path="url(#p3eb9094f56)" d="M 284.327244 192.170297 
L 291.24765 185.184478 
L 291.279696 184.230926 
L 284.356254 191.21091 
z
" style="fill:#070339;"/>
    <path clip-path="url(#p3eb9094f56)" d="M 191.031582 181.987547 
L 190.055817 123.567143 
L 197.993627 117.143763 
L 198.736391 175.194243 
z
" style="fill:#d36e47;"/>
    <path clip-path="url(#p3eb9094f56)" d="M 162.346885 191.878042 
L 170.430723 184.897786 
L 170.283423 179.456917 
L 162.175857 186.403767 
z
" style="fill:#14023e;"/>
    <path clip-path="url(#p3eb9094f56)" d="M 211.467294 179.100638 
L 210.96837 101.690305 
L 218.742673 95.447567 
L 218.949524 172.361429 
z
" style="fill:#dfb321;"/>
    <path clip-path="url(#p3eb9094f56)" d="M 250.510457 191.080779 
L 257.743589 184.115686 
L 270.961723 188.120663 
L 263.816264 195.163579 
z
" style="fill:#621b49;"/>
    <path clip-path="url(#p3eb9094f56)" d="M 185.073514 115.17433 
L 198.015239 118.832836 
L 205.793914 112.521841 
L 192.932907 108.933082 
z
" style="fill:#b55b41;"/>
    <path clip-path="url(#p3eb9094f56)" d="M 169.959716 167.500009 
L 182.816997 171.451541 
L 190.741753 164.63507 
L 177.963579 160.758874 
z
" style="fill:#520081;"/>
    <path clip-path="url(#p3eb9094f56)" d="M 162.346885 191.878042 
L 162.097781 183.90469 
L 170.216182 176.973185 
L 170.430723 184.897786 
z
" style="fill:#360389;"/>
    <path clip-path="url(#p3eb9094f56)" d="M 198.736391 175.194243 
L 211.467294 179.100638 
L 211.007374 107.741936 
L 197.82672 104.09914 
z
" style="fill:#e09c2b;"/>
    <path clip-path="url(#p3eb9094f56)" d="M 170.430723 184.897786 
L 183.178635 188.911464 
L 182.816997 171.451541 
L 169.959716 167.500009 
z
" style="fill:#5e0094;"/>
    <path clip-path="url(#p3eb9094f56)" d="M 183.178635 188.911464 
L 182.629742 162.410831 
L 190.591699 155.651138 
L 191.031582 181.987547 
z
" style="fill:#810e90;"/>
    <path clip-path="url(#p3eb9094f56)" d="M 270.961723 188.120663 
L 284.327244 192.170297 
L 284.356254 191.21091 
L 270.984144 187.16465 
z
" style="fill:#0e0678;"/>
    <path clip-path="url(#p3eb9094f56)" d="M 149.662704 187.831639 
L 149.560754 185.11717 
L 162.261779 189.15398 
L 162.346885 191.878042 
z
" style="fill:#0d023b;"/>
    <path clip-path="url(#p3eb9094f56)" d="M 162.346885 191.878042 
L 170.430723 184.897786 
L 183.178635 188.911464 
L 175.173234 195.969799 
z
" style="fill:#210253;"/>
    <path clip-path="url(#p3eb9094f56)" d="M 149.662704 187.831639 
L 162.346885 191.878042 
L 162.175857 186.403767 
L 149.457827 182.376685 
z
" style="fill:#2a0484;"/>
    <path clip-path="url(#p3eb9094f56)" d="M 177.432391 137.674532 
L 190.35477 141.465893 
L 198.221151 134.925768 
L 185.378964 131.206817 
z
" style="fill:#973161;"/>
    <path clip-path="url(#p3eb9094f56)" d="M 231.909179 130.48009 
L 245.138219 134.231406 
L 252.478079 127.760362 
L 239.335082 124.080697 
z
" style="fill:#a23f56;"/>
    <path clip-path="url(#p3eb9094f56)" d="M 218.794645 114.772283 
L 231.953752 118.436495 
L 239.422525 112.115712 
L 226.348102 108.521505 
z
" style="fill:#b65e3e;"/>
    <path clip-path="url(#p3eb9094f56)" d="M 196.068846 192.969946 
L 203.841786 185.968896 
L 216.794403 189.994506 
L 209.103753 197.073984 
z
" style="fill:#6c2640;"/>
    <path clip-path="url(#p3eb9094f56)" d="M 270.961723 188.120663 
L 271.136577 180.664992 
L 284.553483 184.688175 
L 284.327244 192.170297 
z
" style="fill:#180240;"/>
    <path clip-path="url(#p3eb9094f56)" d="M 141.344465 194.868925 
L 141.230059 192.137811 
L 149.560754 185.11717 
L 149.662704 187.831639 
z
" style="fill:#1c057e;"/>
    <path clip-path="url(#p3eb9094f56)" d="M 229.891821 194.06512 
L 237.351973 187.043183 
L 250.510457 191.080779 
L 243.136481 198.181496 
z
" style="fill:#866f14;"/>
    <path clip-path="url(#p3eb9094f56)" d="M 257.743589 184.115686 
L 258.358365 147.455787 
L 271.824607 151.327873 
L 270.961723 188.120663 
z
" style="fill:#4d1539;"/>
    <path clip-path="url(#p3eb9094f56)" d="M 231.739835 176.23678 
L 232.041074 94.84218 
L 245.502652 98.455803 
L 244.670417 180.154631 
z
" style="fill:#685d0f;"/>
    <path clip-path="url(#p3eb9094f56)" d="M 183.178635 188.911464 
L 182.965125 178.6032 
L 195.92138 182.625019 
L 196.068846 192.969946 
z
" style="fill:#1f0143;"/>
    <path clip-path="url(#p3eb9094f56)" d="M 263.816264 195.163579 
L 263.965761 187.662014 
L 271.136577 180.664992 
L 270.961723 188.120663 
z
" style="fill:#330488;"/>
    <path clip-path="url(#p3eb9094f56)" d="M 203.841786 185.968896 
L 211.467294 179.100638 
L 211.091774 120.837004 
L 203.237895 127.33334 
z
" style="fill:#633422;"/>
    <path clip-path="url(#p3eb9094f56)" d="M 162.097781 183.90469 
L 174.974559 187.968116 
L 183.013915 180.958766 
L 170.216182 176.973185 
z
" style="fill:#2f0377;"/>
    <path clip-path="url(#p3eb9094f56)" d="M 141.344465 194.868925 
L 149.662704 187.831639 
L 162.346885 191.878042 
L 154.105465 198.994368 
z
" style="fill:#11034c;"/>
    <path clip-path="url(#p3eb9094f56)" d="M 224.338378 183.050047 
L 231.739835 176.23678 
L 232.025549 99.036869 
L 224.338378 105.350878 
z
" style="fill:#695510;"/>
    <path clip-path="url(#p3eb9094f56)" d="M 263.816264 195.163579 
L 270.961723 188.120663 
L 284.327244 192.170297 
L 277.271882 199.292348 
z
" style="fill:#1f0252;"/>
    <path clip-path="url(#p3eb9094f56)" d="M 175.173234 195.969799 
L 183.178635 188.911464 
L 183.013915 180.958766 
L 174.974559 187.968116 
z
" style="fill:#1a0241;"/>
    <path clip-path="url(#p3eb9094f56)" d="M 244.670417 180.154631 
L 245.354247 113.02442 
L 258.873515 116.736801 
L 257.743589 184.115686 
z
" style="fill:#684218;"/>
    <path clip-path="url(#p3eb9094f56)" d="M 250.510457 191.080779 
L 250.996848 154.190275 
L 258.358365 147.455787 
L 257.743589 184.115686 
z
" style="fill:#a32c79;"/>
    <path clip-path="url(#p3eb9094f56)" d="M 224.338378 183.050047 
L 224.338378 101.127422 
L 232.041074 94.84218 
L 231.739835 176.23678 
z
" style="fill:#dbc520;"/>
    <path clip-path="url(#p3eb9094f56)" d="M 196.068846 192.969946 
L 203.841786 185.968896 
L 203.569571 159.537846 
L 195.68972 166.37385 
z
" style="fill:#3d0644;"/>
    <path clip-path="url(#p3eb9094f56)" d="M 175.173234 195.969799 
L 174.915709 185.597923 
L 182.965125 178.6032 
L 183.178635 188.911464 
z
" style="fill:#41028d;"/>
    <path clip-path="url(#p3eb9094f56)" d="M 141.230059 192.137811 
L 154.008105 196.253583 
L 162.261779 189.15398 
L 149.560754 185.11717 
z
" style="fill:#18046d;"/>
    <path clip-path="url(#p3eb9094f56)" d="M 175.173234 195.969799 
L 183.178635 188.911464 
L 196.068846 192.969946 
L 188.144156 200.107676 
z
" style="fill:#270155;"/>
    <path clip-path="url(#p3eb9094f56)" d="M 211.467294 179.100638 
L 210.986081 104.438227 
L 224.338378 108.109622 
L 224.338378 183.050047 
z
" style="fill:#6a4f11;"/>
    <path clip-path="url(#p3eb9094f56)" d="M 191.031582 181.987547 
L 203.841786 185.968896 
L 203.237895 127.33334 
L 190.055817 123.567143 
z
" style="fill:#d36e47;"/>
    <path clip-path="url(#p3eb9094f56)" d="M 162.346885 191.878042 
L 162.222854 187.908053 
L 175.074314 191.985749 
L 175.173234 195.969799 
z
" style="fill:#11023d;"/>
    <path clip-path="url(#p3eb9094f56)" d="M 211.467294 179.100638 
L 224.338378 183.050047 
L 224.338378 105.350878 
L 210.96837 101.690305 
z
" style="fill:#dfb321;"/>
    <path clip-path="url(#p3eb9094f56)" d="M 162.346885 191.878042 
L 175.173234 195.969799 
L 174.974559 187.968116 
L 162.097781 183.90469 
z
" style="fill:#360389;"/>
    <path clip-path="url(#p3eb9094f56)" d="M 209.103753 197.073984 
L 216.794403 189.994506 
L 229.891821 194.06512 
L 222.285805 201.224351 
z
" style="fill:#814628;"/>
    <path clip-path="url(#p3eb9094f56)" d="M 237.351973 187.043183 
L 237.794 119.481397 
L 245.354247 113.02442 
L 244.670417 180.154631 
z
" style="fill:#dd8d33;"/>
    <path clip-path="url(#p3eb9094f56)" d="M 183.178635 188.911464 
L 196.068846 192.969946 
L 195.68972 166.37385 
L 182.629742 162.410831 
z
" style="fill:#810e90;"/>
    <path clip-path="url(#p3eb9094f56)" d="M 203.841786 185.968896 
L 203.399932 143.066501 
L 216.63085 146.93574 
L 216.794403 189.994506 
z
" style="fill:#541d32;"/>
    <path clip-path="url(#p3eb9094f56)" d="M 154.105465 198.994368 
L 162.346885 191.878042 
L 162.261779 189.15398 
L 154.008105 196.253583 
z
" style="fill:#0d023b;"/>
    <path clip-path="url(#p3eb9094f56)" d="M 203.841786 185.968896 
L 203.067864 110.823973 
L 210.986081 104.438227 
L 211.467294 179.100638 
z
" style="fill:#e0a825;"/>
    <path clip-path="url(#p3eb9094f56)" d="M 154.105465 198.994368 
L 153.963573 194.999983 
L 162.222854 187.908053 
L 162.346885 191.878042 
z
" style="fill:#230581;"/>
    <path clip-path="url(#p3eb9094f56)" d="M 263.965761 187.662014 
L 277.473466 191.764115 
L 284.553483 184.688175 
L 271.136577 180.664992 
z
" style="fill:#2d0376;"/>
    <path clip-path="url(#p3eb9094f56)" d="M 243.136481 198.181496 
L 250.510457 191.080779 
L 263.816264 195.163579 
L 256.530882 202.34441 
z
" style="fill:#773435;"/>
    <path clip-path="url(#p3eb9094f56)" d="M 182.629742 162.410831 
L 195.68972 166.37385 
L 203.569571 159.537846 
L 190.591699 155.651138 
z
" style="fill:#700c7d;"/>
    <path clip-path="url(#p3eb9094f56)" d="M 277.271882 199.292348 
L 284.327244 192.170297 
L 284.553483 184.688175 
L 277.473466 191.764115 
z
" style="fill:#180240;"/>
    <path clip-path="url(#p3eb9094f56)" d="M 196.068846 192.969946 
L 195.453407 149.796197 
L 203.399932 143.066501 
L 203.841786 185.968896 
z
" style="fill:#b33e6b;"/>
    <path clip-path="url(#p3eb9094f56)" d="M 141.344465 194.868925 
L 154.105465 198.994368 
L 154.008105 196.253583 
L 141.230059 192.137811 
z
" style="fill:#1c057e;"/>
    <path clip-path="url(#p3eb9094f56)" d="M 154.105465 198.994368 
L 162.346885 191.878042 
L 175.173234 195.969799 
L 167.010898 203.166503 
z
" style="fill:#15034e;"/>
    <path clip-path="url(#p3eb9094f56)" d="M 196.068846 192.969946 
L 195.864817 178.65709 
L 208.993179 182.71 
L 209.103753 197.073984 
z
" style="fill:#270045;"/>
    <path clip-path="url(#p3eb9094f56)" d="M 174.915709 185.597923 
L 187.953498 189.698835 
L 195.92138 182.625019 
L 182.965125 178.6032 
z
" style="fill:#38027b;"/>
    <path clip-path="url(#p3eb9094f56)" d="M 263.816264 195.163579 
L 270.961723 188.120663 
L 271.824607 151.327873 
L 264.554119 158.13901 
z
" style="fill:#4d1539;"/>
    <path clip-path="url(#p3eb9094f56)" d="M 237.351973 187.043183 
L 244.670417 180.154631 
L 245.502652 98.455803 
L 237.889966 104.813363 
z
" style="fill:#685d0f;"/>
    <path clip-path="url(#p3eb9094f56)" d="M 188.144156 200.107676 
L 196.068846 192.969946 
L 195.92138 182.625019 
L 187.953498 189.698835 
z
" style="fill:#1f0143;"/>
    <path clip-path="url(#p3eb9094f56)" d="M 188.144156 200.107676 
L 196.068846 192.969946 
L 209.103753 197.073984 
L 201.262108 204.292457 
z
" style="fill:#310058;"/>
    <path clip-path="url(#p3eb9094f56)" d="M 263.816264 195.163579 
L 277.271882 199.292348 
L 277.473466 191.764115 
L 263.965761 187.662014 
z
" style="fill:#330488;"/>
    <path clip-path="url(#p3eb9094f56)" d="M 175.173234 195.969799 
L 175.068689 191.759219 
L 188.066758 195.882164 
L 188.144156 200.107676 
z
" style="fill:#11023d;"/>
    <path clip-path="url(#p3eb9094f56)" d="M 153.963573 194.999983 
L 166.894422 199.157945 
L 175.074314 191.985749 
L 162.222854 187.908053 
z
" style="fill:#1f0470;"/>
    <path clip-path="url(#p3eb9094f56)" d="M 197.82672 104.09914 
L 211.007374 107.741936 
L 218.758839 101.458368 
L 205.662388 97.885899 
z
" style="fill:#c28725;"/>
    <path clip-path="url(#p3eb9094f56)" d="M 188.144156 200.107676 
L 187.880364 185.706109 
L 195.864817 178.65709 
L 196.068846 192.969946 
z
" style="fill:#520192;"/>
    <path clip-path="url(#p3eb9094f56)" d="M 222.285805 201.224351 
L 229.891821 194.06512 
L 243.136481 198.181496 
L 235.617509 205.421836 
z
" style="fill:#86541f;"/>
    <path clip-path="url(#p3eb9094f56)" d="M 250.510457 191.080779 
L 257.743589 184.115686 
L 258.873515 116.736801 
L 251.40455 123.267969 
z
" style="fill:#684218;"/>
    <path clip-path="url(#p3eb9094f56)" d="M 250.510457 191.080779 
L 263.816264 195.163579 
L 264.554119 158.13901 
L 250.996848 154.190275 
z
" style="fill:#a32c79;"/>
    <path clip-path="url(#p3eb9094f56)" d="M 224.338378 183.050047 
L 237.351973 187.043183 
L 237.889966 104.813363 
L 224.338378 101.127422 
z
" style="fill:#dbc520;"/>
    <path clip-path="url(#p3eb9094f56)" d="M 175.173234 195.969799 
L 188.144156 200.107676 
L 187.953498 189.698835 
L 174.915709 185.597923 
z
" style="fill:#41028d;"/>
    <path clip-path="url(#p3eb9094f56)" d="M 216.794403 189.994506 
L 224.338378 183.050047 
L 224.338378 108.109622 
L 216.50791 114.568901 
z
" style="fill:#6a4f11;"/>
    <path clip-path="url(#p3eb9094f56)" d="M 263.816264 195.163579 
L 264.146189 178.608352 
L 277.716771 182.67784 
L 277.271882 199.292348 
z
" style="fill:#2a0046;"/>
    <path clip-path="url(#p3eb9094f56)" d="M 167.010898 203.166503 
L 175.173234 195.969799 
L 175.074314 191.985749 
L 166.894422 199.157945 
z
" style="fill:#11023d;"/>
    <path clip-path="url(#p3eb9094f56)" d="M 167.010898 203.166503 
L 166.887799 198.930016 
L 175.068689 191.759219 
L 175.173234 195.969799 
z
" style="fill:#230581;"/>
    <path clip-path="url(#p3eb9094f56)" d="M 256.530882 202.34441 
L 263.816264 195.163579 
L 277.271882 199.292348 
L 270.077576 206.554656 
z
" style="fill:#360059;"/>
    <path clip-path="url(#p3eb9094f56)" d="M 224.338378 183.050047 
L 224.338378 95.762755 
L 237.925205 99.427272 
L 237.351973 187.043183 
z
" style="fill:#64680e;"/>
    <path clip-path="url(#p3eb9094f56)" d="M 237.351973 187.043183 
L 250.510457 191.080779 
L 251.40455 123.267969 
L 237.794 119.481397 
z
" style="fill:#dd8d33;"/>
    <path clip-path="url(#p3eb9094f56)" d="M 209.103753 197.073984 
L 216.794403 189.994506 
L 216.63085 146.93574 
L 208.770187 153.742472 
z
" style="fill:#541d32;"/>
    <path clip-path="url(#p3eb9094f56)" d="M 190.055817 123.567143 
L 203.237895 127.33334 
L 211.091774 120.837004 
L 197.993627 117.143763 
z
" style="fill:#b75f3e;"/>
    <path clip-path="url(#p3eb9094f56)" d="M 167.010898 203.166503 
L 175.173234 195.969799 
L 188.144156 200.107676 
L 180.063228 207.386128 
z
" style="fill:#15034e;"/>
    <path clip-path="url(#p3eb9094f56)" d="M 203.841786 185.968896 
L 216.794403 189.994506 
L 216.50791 114.568901 
L 203.067864 110.823973 
z
" style="fill:#e0a825;"/>
    <path clip-path="url(#p3eb9094f56)" d="M 154.105465 198.994368 
L 167.010898 203.166503 
L 166.894422 199.157945 
L 153.963573 194.999983 
z
" style="fill:#230581;"/>
    <path clip-path="url(#p3eb9094f56)" d="M 256.530882 202.34441 
L 256.802578 185.686327 
L 264.146189 178.608352 
L 263.816264 195.163579 
z
" style="fill:#5a0094;"/>
    <path clip-path="url(#p3eb9094f56)" d="M 216.794403 189.994506 
L 216.460688 102.136855 
L 224.338378 95.762755 
L 224.338378 183.050047 
z
" style="fill:#d4dc1e;"/>
    <path clip-path="url(#p3eb9094f56)" d="M 250.510457 191.080779 
L 251.188289 139.670395 
L 264.844576 143.564251 
L 263.816264 195.163579 
z
" style="fill:#5d2929;"/>
    <path clip-path="url(#p3eb9094f56)" d="M 209.103753 197.073984 
L 208.957303 178.04961 
L 222.265962 182.131685 
L 222.285805 201.224351 
z
" style="fill:#300046;"/>
    <path clip-path="url(#p3eb9094f56)" d="M 201.262108 204.292457 
L 209.103753 197.073984 
L 222.285805 201.224351 
L 214.529606 208.524945 
z
" style="fill:#3d005a;"/>
    <path clip-path="url(#p3eb9094f56)" d="M 196.068846 192.969946 
L 209.103753 197.073984 
L 208.770187 153.742472 
L 195.453407 149.796197 
z
" style="fill:#b33e6b;"/>
    <path clip-path="url(#p3eb9094f56)" d="M 188.144156 200.107676 
L 188.06143 195.591318 
L 201.209066 199.760062 
L 201.262108 204.292457 
z
" style="fill:#11023d;"/>
    <path clip-path="url(#p3eb9094f56)" d="M 250.996848 154.190275 
L 264.554119 158.13901 
L 271.824607 151.327873 
L 258.358365 147.455787 
z
" style="fill:#8d2669;"/>
    <path clip-path="url(#p3eb9094f56)" d="M 166.887799 198.930016 
L 179.967614 203.134591 
L 188.066758 195.882164 
L 175.068689 191.759219 
z
" style="fill:#1f0470;"/>
    <path clip-path="url(#p3eb9094f56)" d="M 216.794403 189.994506 
L 216.563035 129.081854 
L 230.063122 132.927047 
L 229.891821 194.06512 
z
" style="fill:#65371f;"/>
    <path clip-path="url(#p3eb9094f56)" d="M 201.262108 204.292457 
L 209.103753 197.073984 
L 208.993179 182.71 
L 201.092963 189.839342 
z
" style="fill:#270045;"/>
    <path clip-path="url(#p3eb9094f56)" d="M 237.351973 187.043183 
L 237.869015 108.015718 
L 251.556317 111.757144 
L 250.510457 191.080779 
z
" style="fill:#69570f;"/>
    <path clip-path="url(#p3eb9094f56)" d="M 235.617509 205.421836 
L 243.136481 198.181496 
L 256.530882 202.34441 
L 249.101427 209.667246 
z
" style="fill:#753237;"/>
    <path clip-path="url(#p3eb9094f56)" d="M 187.880364 185.706109 
L 201.092963 189.839342 
L 208.993179 182.71 
L 195.864817 178.65709 
z
" style="fill:#47017f;"/>
    <path clip-path="url(#p3eb9094f56)" d="M 243.136481 198.181496 
L 243.628198 146.443229 
L 251.188289 139.670395 
L 250.510457 191.080779 
z
" style="fill:#c55658;"/>
    <path clip-path="url(#p3eb9094f56)" d="M 201.262108 204.292457 
L 201.038078 185.149591 
L 208.957303 178.04961 
L 209.103753 197.073984 
z
" style="fill:#650095;"/>
    <path clip-path="url(#p3eb9094f56)" d="M 180.063228 207.386128 
L 188.144156 200.107676 
L 188.066758 195.882164 
L 179.967614 203.134591 
z
" style="fill:#11023d;"/>
    <path clip-path="url(#p3eb9094f56)" d="M 180.063228 207.386128 
L 179.961033 202.841947 
L 188.06143 195.591318 
L 188.144156 200.107676 
z
" style="fill:#250582;"/>
    <path clip-path="url(#p3eb9094f56)" d="M 209.103753 197.073984 
L 208.631836 135.770136 
L 216.563035 129.081854 
L 216.794403 189.994506 
z
" style="fill:#d67543;"/>
    <path clip-path="url(#p3eb9094f56)" d="M 188.144156 200.107676 
L 201.262108 204.292457 
L 201.092963 189.839342 
L 187.880364 185.706109 
z
" style="fill:#520192;"/>
    <path clip-path="url(#p3eb9094f56)" d="M 229.891821 194.06512 
L 230.114686 114.523639 
L 237.869015 108.015718 
L 237.351973 187.043183 
z
" style="fill:#deb821;"/>
    <path clip-path="url(#p3eb9094f56)" d="M 210.96837 101.690305 
L 224.338378 105.350878 
L 232.025549 99.036869 
L 218.742673 95.447567 
z
" style="fill:#c29c1d;"/>
    <path clip-path="url(#p3eb9094f56)" d="M 180.063228 207.386128 
L 188.144156 200.107676 
L 201.262108 204.292457 
L 193.264978 211.654059 
z
" style="fill:#16034f;"/>
    <path clip-path="url(#p3eb9094f56)" d="M 270.077576 206.554656 
L 277.271882 199.292348 
L 277.716771 182.67784 
L 270.465816 189.836806 
z
" style="fill:#2a0046;"/>
    <path clip-path="url(#p3eb9094f56)" d="M 167.010898 203.166503 
L 180.063228 207.386128 
L 179.967614 203.134591 
L 166.887799 198.930016 
z
" style="fill:#230581;"/>
    <path clip-path="url(#p3eb9094f56)" d="M 229.891821 194.06512 
L 237.351973 187.043183 
L 237.925205 99.427272 
L 230.138917 105.875644 
z
" style="fill:#64680e;"/>
    <path clip-path="url(#p3eb9094f56)" d="M 214.529606 208.524945 
L 222.285805 201.224351 
L 235.617509 205.421836 
L 227.94922 212.80596 
z
" style="fill:#4b0658;"/>
    <path clip-path="url(#p3eb9094f56)" d="M 256.802578 185.686327 
L 270.465816 189.836806 
L 277.716771 182.67784 
L 264.146189 178.608352 
z
" style="fill:#4e0080;"/>
    <path clip-path="url(#p3eb9094f56)" d="M 195.453407 149.796197 
L 208.770187 153.742472 
L 216.63085 146.93574 
L 203.399932 143.066501 
z
" style="fill:#9b365c;"/>
    <path clip-path="url(#p3eb9094f56)" d="M 201.262108 204.292457 
L 201.199255 198.921745 
L 214.502737 203.135131 
L 214.529606 208.524945 
z
" style="fill:#14023e;"/>
    <path clip-path="url(#p3eb9094f56)" d="M 179.961033 202.841947 
L 193.192844 207.093715 
L 201.209066 199.760062 
L 188.06143 195.591318 
z
" style="fill:#200471;"/>
    <path clip-path="url(#p3eb9094f56)" d="M 256.530882 202.34441 
L 270.077576 206.554656 
L 270.465816 189.836806 
L 256.802578 185.686327 
z
" style="fill:#5a0094;"/>
    <path clip-path="url(#p3eb9094f56)" d="M 256.530882 202.34441 
L 256.811424 185.143987 
L 270.478457 189.292494 
L 270.077576 206.554656 
z
" style="fill:#2c0046;"/>
    <path clip-path="url(#p3eb9094f56)" d="M 222.285805 201.224351 
L 222.259389 175.807428 
L 235.763507 179.913103 
L 235.617509 205.421836 
z
" style="fill:#3b0545;"/>
    <path clip-path="url(#p3eb9094f56)" d="M 249.101427 209.667246 
L 256.530882 202.34441 
L 270.077576 206.554656 
L 262.740181 213.961405 
z
" style="fill:#380059;"/>
    <path clip-path="url(#p3eb9094f56)" d="M 216.794403 189.994506 
L 229.891821 194.06512 
L 230.138917 105.875644 
L 216.460688 102.136855 
z
" style="fill:#d4dc1e;"/>
    <path clip-path="url(#p3eb9094f56)" d="M 256.530882 202.34441 
L 263.816264 195.163579 
L 264.844576 143.564251 
L 257.377852 150.415505 
z
" style="fill:#5d2929;"/>
    <path clip-path="url(#p3eb9094f56)" d="M 214.529606 208.524945 
L 222.285805 201.224351 
L 222.265962 182.131685 
L 214.433832 189.313226 
z
" style="fill:#300046;"/>
    <path clip-path="url(#p3eb9094f56)" d="M 229.891821 194.06512 
L 230.081725 126.287436 
L 243.783036 130.151307 
L 243.136481 198.181496 
z
" style="fill:#684219;"/>
    <path clip-path="url(#p3eb9094f56)" d="M 193.264978 211.654059 
L 201.262108 204.292457 
L 201.209066 199.760062 
L 193.192844 207.093715 
z
" style="fill:#11023d;"/>
    <path clip-path="url(#p3eb9094f56)" d="M 193.264978 211.654059 
L 193.179501 206.250206 
L 201.199255 198.921745 
L 201.262108 204.292457 
z
" style="fill:#2a0484;"/>
    <path clip-path="url(#p3eb9094f56)" d="M 222.285805 201.224351 
L 229.891821 194.06512 
L 230.063122 132.927047 
L 222.221853 139.693018 
z
" style="fill:#65371f;"/>
    <path clip-path="url(#p3eb9094f56)" d="M 249.101427 209.667246 
L 249.319377 192.359704 
L 256.811424 185.143987 
L 256.530882 202.34441 
z
" style="fill:#5d0094;"/>
    <path clip-path="url(#p3eb9094f56)" d="M 243.136481 198.181496 
L 250.510457 191.080779 
L 251.556317 111.757144 
L 243.89528 118.34102 
z
" style="fill:#69570f;"/>
    <path clip-path="url(#p3eb9094f56)" d="M 243.136481 198.181496 
L 243.612547 148.090031 
L 257.35089 152.068612 
L 256.530882 202.34441 
z
" style="fill:#5c272b;"/>
    <path clip-path="url(#p3eb9094f56)" d="M 214.529606 208.524945 
L 214.402104 182.948725 
L 222.259389 175.807428 
L 222.285805 201.224351 
z
" style="fill:#7c0a91;"/>
    <path clip-path="url(#p3eb9094f56)" d="M 243.136481 198.181496 
L 256.530882 202.34441 
L 257.377852 150.415505 
L 243.628198 146.443229 
z
" style="fill:#c55658;"/>
    <path clip-path="url(#p3eb9094f56)" d="M 201.038078 185.149591 
L 214.433832 189.313226 
L 222.265962 182.131685 
L 208.957303 178.04961 
z
" style="fill:#580081;"/>
    <path clip-path="url(#p3eb9094f56)" d="M 201.262108 204.292457 
L 214.529606 208.524945 
L 214.433832 189.313226 
L 201.038078 185.149591 
z
" style="fill:#650095;"/>
    <path clip-path="url(#p3eb9094f56)" d="M 193.264978 211.654059 
L 201.262108 204.292457 
L 214.529606 208.524945 
L 206.61873 215.971129 
z
" style="fill:#190350;"/>
    <path clip-path="url(#p3eb9094f56)" d="M 237.794 119.481397 
L 251.40455 123.267969 
L 258.873515 116.736801 
L 245.354247 113.02442 
z
" style="fill:#c07a2d;"/>
    <path clip-path="url(#p3eb9094f56)" d="M 222.285805 201.224351 
L 222.214906 133.008464 
L 230.081725 126.287436 
L 229.891821 194.06512 
z
" style="fill:#dd8b34;"/>
    <path clip-path="url(#p3eb9094f56)" d="M 180.063228 207.386128 
L 193.264978 211.654059 
L 193.192844 207.093715 
L 179.961033 202.841947 
z
" style="fill:#250582;"/>
    <path clip-path="url(#p3eb9094f56)" d="M 209.103753 197.073984 
L 222.285805 201.224351 
L 222.221853 139.693018 
L 208.631836 135.770136 
z
" style="fill:#d67543;"/>
    <path clip-path="url(#p3eb9094f56)" d="M 229.891821 194.06512 
L 243.136481 198.181496 
L 243.89528 118.34102 
L 230.114686 114.523639 
z
" style="fill:#deb821;"/>
    <path clip-path="url(#p3eb9094f56)" d="M 224.338378 101.127422 
L 237.889966 104.813363 
L 245.502652 98.455803 
L 232.041074 94.84218 
z
" style="fill:#bfab1c;"/>
    <path clip-path="url(#p3eb9094f56)" d="M 235.617509 205.421836 
L 235.906036 155.010503 
L 243.612547 148.090031 
L 243.136481 198.181496 
z
" style="fill:#c2525b;"/>
    <path clip-path="url(#p3eb9094f56)" d="M 227.94922 212.80596 
L 235.617509 205.421836 
L 249.101427 209.667246 
L 241.523583 217.136342 
z
" style="fill:#4d0757;"/>
    <path clip-path="url(#p3eb9094f56)" d="M 203.067864 110.823973 
L 216.50791 114.568901 
L 224.338378 108.109622 
L 210.986081 104.438227 
z
" style="fill:#c29220;"/>
    <path clip-path="url(#p3eb9094f56)" d="M 214.529606 208.524945 
L 214.500882 202.763165 
L 227.959855 207.023661 
L 227.94922 212.80596 
z
" style="fill:#15023f;"/>
    <path clip-path="url(#p3eb9094f56)" d="M 193.179501 206.250206 
L 206.569705 210.548025 
L 214.502737 203.135131 
L 201.199255 198.921745 
z
" style="fill:#240473;"/>
    <path clip-path="url(#p3eb9094f56)" d="M 235.617509 205.421836 
L 235.765753 179.520598 
L 249.428776 183.672311 
L 249.101427 209.667246 
z
" style="fill:#3c0544;"/>
    <path clip-path="url(#p3eb9094f56)" d="M 206.61873 215.971129 
L 214.529606 208.524945 
L 214.502737 203.135131 
L 206.569705 210.548025 
z
" style="fill:#14023e;"/>
    <path clip-path="url(#p3eb9094f56)" d="M 206.61873 215.971129 
L 206.566322 210.173751 
L 214.500882 202.763165 
L 214.529606 208.524945 
z
" style="fill:#2c0485;"/>
    <path clip-path="url(#p3eb9094f56)" d="M 262.740181 213.961405 
L 270.077576 206.554656 
L 270.478457 189.292494 
L 263.08013 196.591626 
z
" style="fill:#2c0046;"/>
    <path clip-path="url(#p3eb9094f56)" d="M 227.94922 212.80596 
L 235.617509 205.421836 
L 235.763507 179.913103 
L 227.996429 187.137174 
z
" style="fill:#3b0545;"/>
    <path clip-path="url(#p3eb9094f56)" d="M 227.94922 212.80596 
L 227.997156 186.742154 
L 235.765753 179.520598 
L 235.617509 205.421836 
z
" style="fill:#7f0c90;"/>
    <path clip-path="url(#p3eb9094f56)" d="M 249.101427 209.667246 
L 249.271864 196.132728 
L 263.006018 200.378368 
L 262.740181 213.961405 
z
" style="fill:#250145;"/>
    <path clip-path="url(#p3eb9094f56)" d="M 206.61873 215.971129 
L 214.529606 208.524945 
L 227.94922 212.80596 
L 220.127123 220.338193 
z
" style="fill:#1a0250;"/>
    <path clip-path="url(#p3eb9094f56)" d="M 235.617509 205.421836 
L 243.136481 198.181496 
L 243.783036 130.151307 
L 236.009398 136.95112 
z
" style="fill:#684219;"/>
    <path clip-path="url(#p3eb9094f56)" d="M 249.319377 192.359704 
L 263.08013 196.591626 
L 270.478457 189.292494 
L 256.811424 185.143987 
z
" style="fill:#500081;"/>
    <path clip-path="url(#p3eb9094f56)" d="M 193.264978 211.654059 
L 206.61873 215.971129 
L 206.569705 210.548025 
L 193.179501 206.250206 
z
" style="fill:#2a0484;"/>
    <path clip-path="url(#p3eb9094f56)" d="M 249.101427 209.667246 
L 262.740181 213.961405 
L 263.08013 196.591626 
L 249.319377 192.359704 
z
" style="fill:#5d0094;"/>
    <path clip-path="url(#p3eb9094f56)" d="M 249.101427 209.667246 
L 256.530882 202.34441 
L 257.35089 152.068612 
L 249.738589 159.069959 
z
" style="fill:#5c272b;"/>
    <path clip-path="url(#p3eb9094f56)" d="M 214.529606 208.524945 
L 227.94922 212.80596 
L 227.996429 187.137174 
L 214.402104 182.948725 
z
" style="fill:#7c0a91;"/>
    <path clip-path="url(#p3eb9094f56)" d="M 241.523583 217.136342 
L 249.101427 209.667246 
L 262.740181 213.961405 
L 255.255385 221.516949 
z
" style="fill:#2f0158;"/>
    <path clip-path="url(#p3eb9094f56)" d="M 227.94922 212.80596 
L 227.955732 209.265263 
L 241.554754 213.583048 
L 241.523583 217.136342 
z
" style="fill:#0f023c;"/>
    <path clip-path="url(#p3eb9094f56)" d="M 243.628198 146.443229 
L 257.377852 150.415505 
L 264.844576 143.564251 
L 251.188289 139.670395 
z
" style="fill:#ab4b4c;"/>
    <path clip-path="url(#p3eb9094f56)" d="M 241.523583 217.136342 
L 241.643053 203.517646 
L 249.271864 196.132728 
L 249.101427 209.667246 
z
" style="fill:#4d0191;"/>
    <path clip-path="url(#p3eb9094f56)" d="M 222.285805 201.224351 
L 235.617509 205.421836 
L 236.009398 136.95112 
L 222.214906 133.008464 
z
" style="fill:#dd8b34;"/>
    <path clip-path="url(#p3eb9094f56)" d="M 206.566322 210.173751 
L 220.114595 214.520138 
L 227.959855 207.023661 
L 214.500882 202.763165 
z
" style="fill:#260473;"/>
    <path clip-path="url(#p3eb9094f56)" d="M 214.402104 182.948725 
L 227.996429 187.137174 
L 235.763507 179.913103 
L 222.259389 175.807428 
z
" style="fill:#6c087e;"/>
    <path clip-path="url(#p3eb9094f56)" d="M 235.617509 205.421836 
L 249.101427 209.667246 
L 249.738589 159.069959 
L 235.906036 155.010503 
z
" style="fill:#c2525b;"/>
    <path clip-path="url(#p3eb9094f56)" d="M 220.127123 220.338193 
L 220.119452 216.775643 
L 227.955732 209.265263 
L 227.94922 212.80596 
z
" style="fill:#200580;"/>
    <path clip-path="url(#p3eb9094f56)" d="M 220.127123 220.338193 
L 227.94922 212.80596 
L 227.959855 207.023661 
L 220.114595 214.520138 
z
" style="fill:#15023f;"/>
    <path clip-path="url(#p3eb9094f56)" d="M 208.631836 135.770136 
L 222.221853 139.693018 
L 230.063122 132.927047 
L 216.563035 129.081854 
z
" style="fill:#ba653a;"/>
    <path clip-path="url(#p3eb9094f56)" d="M 241.523583 217.136342 
L 249.101427 209.667246 
L 249.428776 183.672311 
L 241.753057 190.978076 
z
" style="fill:#3c0544;"/>
    <path clip-path="url(#p3eb9094f56)" d="M 220.127123 220.338193 
L 227.94922 212.80596 
L 241.523583 217.136342 
L 233.792858 224.756123 
z
" style="fill:#13034d;"/>
    <path clip-path="url(#p3eb9094f56)" d="M 206.61873 215.971129 
L 220.127123 220.338193 
L 220.114595 214.520138 
L 206.566322 210.173751 
z
" style="fill:#2c0485;"/>
    <path clip-path="url(#p3eb9094f56)" d="M 241.523583 217.136342 
L 241.537015 215.605184 
L 255.279691 219.980348 
L 255.255385 221.516949 
z
" style="fill:#09033a;"/>
    <path clip-path="url(#p3eb9094f56)" d="M 227.94922 212.80596 
L 241.523583 217.136342 
L 241.753057 190.978076 
L 227.997156 186.742154 
z
" style="fill:#7f0c90;"/>
    <path clip-path="url(#p3eb9094f56)" d="M 220.119452 216.775643 
L 233.810181 221.180882 
L 241.554754 213.583048 
L 227.955732 209.265263 
z
" style="fill:#1b046f;"/>
    <path clip-path="url(#p3eb9094f56)" d="M 255.255385 221.516949 
L 262.740181 213.961405 
L 263.006018 200.378368 
L 255.471574 207.849355 
z
" style="fill:#250145;"/>
    <path clip-path="url(#p3eb9094f56)" d="M 216.460688 102.136855 
L 230.138917 105.875644 
L 237.925205 99.427272 
L 224.338378 95.762755 
z
" style="fill:#b8bf1a;"/>
    <path clip-path="url(#p3eb9094f56)" d="M 241.643053 203.517646 
L 255.471574 207.849355 
L 263.006018 200.378368 
L 249.271864 196.132728 
z
" style="fill:#43017e;"/>
    <path clip-path="url(#p3eb9094f56)" d="M 227.997156 186.742154 
L 241.753057 190.978076 
L 249.428776 183.672311 
L 235.765753 179.520598 
z
" style="fill:#6e0a7d;"/>
    <path clip-path="url(#p3eb9094f56)" d="M 233.792858 224.756123 
L 233.800323 223.215524 
L 241.537015 215.605184 
L 241.523583 217.136342 
z
" style="fill:#13067a;"/>
    <path clip-path="url(#p3eb9094f56)" d="M 233.792858 224.756123 
L 241.523583 217.136342 
L 241.554754 213.583048 
L 233.810181 221.180882 
z
" style="fill:#0f023c;"/>
    <path clip-path="url(#p3eb9094f56)" d="M 230.114686 114.523639 
L 243.89528 118.34102 
L 251.556317 111.757144 
L 237.869015 108.015718 
z
" style="fill:#c1a01c;"/>
    <path clip-path="url(#p3eb9094f56)" d="M 241.523583 217.136342 
L 255.255385 221.516949 
L 255.471574 207.849355 
L 241.643053 203.517646 
z
" style="fill:#4d0191;"/>
    <path clip-path="url(#p3eb9094f56)" d="M 235.906036 155.010503 
L 249.738589 159.069959 
L 257.35089 152.068612 
L 243.612547 148.090031 
z
" style="fill:#a9474f;"/>
    <path clip-path="url(#p3eb9094f56)" d="M 233.792858 224.756123 
L 241.523583 217.136342 
L 255.255385 221.516949 
L 247.618703 229.225814 
z
" style="fill:#0c044a;"/>
    <path clip-path="url(#p3eb9094f56)" d="M 220.127123 220.338193 
L 233.792858 224.756123 
L 233.810181 221.180882 
L 220.119452 216.775643 
z
" style="fill:#200580;"/>
    <path clip-path="url(#p3eb9094f56)" d="M 233.800323 223.215524 
L 247.63719 227.679732 
L 255.279691 219.980348 
L 241.537015 215.605184 
z
" style="fill:#11056a;"/>
    <path clip-path="url(#p3eb9094f56)" d="M 222.214906 133.008464 
L 236.009398 136.95112 
L 243.783036 130.151307 
L 230.081725 126.287436 
z
" style="fill:#c0792d;"/>
    <path clip-path="url(#p3eb9094f56)" d="M 247.618703 229.225814 
L 255.255385 221.516949 
L 255.279691 219.980348 
L 247.63719 227.679732 
z
" style="fill:#09033a;"/>
    <path clip-path="url(#p3eb9094f56)" d="M 233.792858 224.756123 
L 247.618703 229.225814 
L 247.63719 227.679732 
L 233.800323 223.215524 
z
" style="fill:#13067a;"/>
   </g>
   <g id="text_17">
    <!-- W20__H15__A100_bars_extracted.txt -->
    <g transform="translate(110.101875 28.56)scale(0.12 -0.12)">
     <defs>
      <path d="M 3.328125 72.90625 
L 13.28125 72.90625 
L 28.609375 11.28125 
L 43.890625 72.90625 
L 54.984375 72.90625 
L 70.3125 11.28125 
L 85.59375 72.90625 
L 95.609375 72.90625 
L 77.296875 0 
L 64.890625 0 
L 49.515625 63.28125 
L 33.984375 0 
L 21.578125 0 
z
" id="DejaVuSans-87"/>
      <path d="M 50.984375 -16.609375 
L 50.984375 -23.578125 
L -0.984375 -23.578125 
L -0.984375 -16.609375 
z
" id="DejaVuSans-95"/>
      <path d="M 9.8125 72.90625 
L 19.671875 72.90625 
L 19.671875 43.015625 
L 55.515625 43.015625 
L 55.515625 72.90625 
L 65.375 72.90625 
L 65.375 0 
L 55.515625 0 
L 55.515625 34.71875 
L 19.671875 34.71875 
L 19.671875 0 
L 9.8125 0 
z
" id="DejaVuSans-72"/>
      <path d="M 34.1875 63.1875 
L 20.796875 26.90625 
L 47.609375 26.90625 
z
M 28.609375 72.90625 
L 39.796875 72.90625 
L 67.578125 0 
L 57.328125 0 
L 50.6875 18.703125 
L 17.828125 18.703125 
L 11.1875 0 
L 0.78125 0 
z
" id="DejaVuSans-65"/>
      <path d="M 48.6875 27.296875 
Q 48.6875 37.203125 44.609375 42.84375 
Q 40.53125 48.484375 33.40625 48.484375 
Q 26.265625 48.484375 22.1875 42.84375 
Q 18.109375 37.203125 18.109375 27.296875 
Q 18.109375 17.390625 22.1875 11.75 
Q 26.265625 6.109375 33.40625 6.109375 
Q 40.53125 6.109375 44.609375 11.75 
Q 48.6875 17.390625 48.6875 27.296875 
z
M 18.109375 46.390625 
Q 20.953125 51.265625 25.265625 53.625 
Q 29.59375 56 35.59375 56 
Q 45.5625 56 51.78125 48.09375 
Q 58.015625 40.1875 58.015625 27.296875 
Q 58.015625 14.40625 51.78125 6.484375 
Q 45.5625 -1.421875 35.59375 -1.421875 
Q 29.59375 -1.421875 25.265625 0.953125 
Q 20.953125 3.328125 18.109375 8.203125 
L 18.109375 0 
L 9.078125 0 
L 9.078125 75.984375 
L 18.109375 75.984375 
z
" id="DejaVuSans-98"/>
      <path d="M 34.28125 27.484375 
Q 23.390625 27.484375 19.1875 25 
Q 14.984375 22.515625 14.984375 16.5 
Q 14.984375 11.71875 18.140625 8.90625 
Q 21.296875 6.109375 26.703125 6.109375 
Q 34.1875 6.109375 38.703125 11.40625 
Q 43.21875 16.703125 43.21875 25.484375 
L 43.21875 27.484375 
z
M 52.203125 31.203125 
L 52.203125 0 
L 43.21875 0 
L 43.21875 8.296875 
Q 40.140625 3.328125 35.546875 0.953125 
Q 30.953125 -1.421875 24.3125 -1.421875 
Q 15.921875 -1.421875 10.953125 3.296875 
Q 6 8.015625 6 15.921875 
Q 6 25.140625 12.171875 29.828125 
Q 18.359375 34.515625 30.609375 34.515625 
L 43.21875 34.515625 
L 43.21875 35.40625 
Q 43.21875 41.609375 39.140625 45 
Q 35.0625 48.390625 27.6875 48.390625 
Q 23 48.390625 18.546875 47.265625 
Q 14.109375 46.140625 10.015625 43.890625 
L 10.015625 52.203125 
Q 14.9375 54.109375 19.578125 55.046875 
Q 24.21875 56 28.609375 56 
Q 40.484375 56 46.34375 49.84375 
Q 52.203125 43.703125 52.203125 31.203125 
z
" id="DejaVuSans-97"/>
      <path d="M 41.109375 46.296875 
Q 39.59375 47.171875 37.8125 47.578125 
Q 36.03125 48 33.890625 48 
Q 26.265625 48 22.1875 43.046875 
Q 18.109375 38.09375 18.109375 28.8125 
L 18.109375 0 
L 9.078125 0 
L 9.078125 54.6875 
L 18.109375 54.6875 
L 18.109375 46.1875 
Q 20.953125 51.171875 25.484375 53.578125 
Q 30.03125 56 36.53125 56 
Q 37.453125 56 38.578125 55.875 
Q 39.703125 55.765625 41.0625 55.515625 
z
" id="DejaVuSans-114"/>
      <path d="M 44.28125 53.078125 
L 44.28125 44.578125 
Q 40.484375 46.53125 36.375 47.5 
Q 32.28125 48.484375 27.875 48.484375 
Q 21.1875 48.484375 17.84375 46.4375 
Q 14.5 44.390625 14.5 40.28125 
Q 14.5 37.15625 16.890625 35.375 
Q 19.28125 33.59375 26.515625 31.984375 
L 29.59375 31.296875 
Q 39.15625 29.25 43.1875 25.515625 
Q 47.21875 21.78125 47.21875 15.09375 
Q 47.21875 7.46875 41.1875 3.015625 
Q 35.15625 -1.421875 24.609375 -1.421875 
Q 20.21875 -1.421875 15.453125 -0.5625 
Q 10.6875 0.296875 5.421875 2 
L 5.421875 11.28125 
Q 10.40625 8.6875 15.234375 7.390625 
Q 20.0625 6.109375 24.8125 6.109375 
Q 31.15625 6.109375 34.5625 8.28125 
Q 37.984375 10.453125 37.984375 14.40625 
Q 37.984375 18.0625 35.515625 20.015625 
Q 33.0625 21.96875 24.703125 23.78125 
L 21.578125 24.515625 
Q 13.234375 26.265625 9.515625 29.90625 
Q 5.8125 33.546875 5.8125 39.890625 
Q 5.8125 47.609375 11.28125 51.796875 
Q 16.75 56 26.8125 56 
Q 31.78125 56 36.171875 55.265625 
Q 40.578125 54.546875 44.28125 53.078125 
z
" id="DejaVuSans-115"/>
      <path d="M 56.203125 29.59375 
L 56.203125 25.203125 
L 14.890625 25.203125 
Q 15.484375 15.921875 20.484375 11.0625 
Q 25.484375 6.203125 34.421875 6.203125 
Q 39.59375 6.203125 44.453125 7.46875 
Q 49.3125 8.734375 54.109375 11.28125 
L 54.109375 2.78125 
Q 49.265625 0.734375 44.1875 -0.34375 
Q 39.109375 -1.421875 33.890625 -1.421875 
Q 20.796875 -1.421875 13.15625 6.1875 
Q 5.515625 13.8125 5.515625 26.8125 
Q 5.515625 40.234375 12.765625 48.109375 
Q 20.015625 56 32.328125 56 
Q 43.359375 56 49.78125 48.890625 
Q 56.203125 41.796875 56.203125 29.59375 
z
M 47.21875 32.234375 
Q 47.125 39.59375 43.09375 43.984375 
Q 39.0625 48.390625 32.421875 48.390625 
Q 24.90625 48.390625 20.390625 44.140625 
Q 15.875 39.890625 15.1875 32.171875 
z
" id="DejaVuSans-101"/>
      <path d="M 54.890625 54.6875 
L 35.109375 28.078125 
L 55.90625 0 
L 45.3125 0 
L 29.390625 21.484375 
L 13.484375 0 
L 2.875 0 
L 24.125 28.609375 
L 4.6875 54.6875 
L 15.28125 54.6875 
L 29.78125 35.203125 
L 44.28125 54.6875 
z
" id="DejaVuSans-120"/>
      <path d="M 18.3125 70.21875 
L 18.3125 54.6875 
L 36.8125 54.6875 
L 36.8125 47.703125 
L 18.3125 47.703125 
L 18.3125 18.015625 
Q 18.3125 11.328125 20.140625 9.421875 
Q 21.96875 7.515625 27.59375 7.515625 
L 36.8125 7.515625 
L 36.8125 0 
L 27.59375 0 
Q 17.1875 0 13.234375 3.875 
Q 9.28125 7.765625 9.28125 18.015625 
L 9.28125 47.703125 
L 2.6875 47.703125 
L 2.6875 54.6875 
L 9.28125 54.6875 
L 9.28125 70.21875 
z
" id="DejaVuSans-116"/>
      <path d="M 48.78125 52.59375 
L 48.78125 44.1875 
Q 44.96875 46.296875 41.140625 47.34375 
Q 37.3125 48.390625 33.40625 48.390625 
Q 24.65625 48.390625 19.8125 42.84375 
Q 14.984375 37.3125 14.984375 27.296875 
Q 14.984375 17.28125 19.8125 11.734375 
Q 24.65625 6.203125 33.40625 6.203125 
Q 37.3125 6.203125 41.140625 7.25 
Q 44.96875 8.296875 48.78125 10.40625 
L 48.78125 2.09375 
Q 45.015625 0.34375 40.984375 -0.53125 
Q 36.96875 -1.421875 32.421875 -1.421875 
Q 20.0625 -1.421875 12.78125 6.34375 
Q 5.515625 14.109375 5.515625 27.296875 
Q 5.515625 40.671875 12.859375 48.328125 
Q 20.21875 56 33.015625 56 
Q 37.15625 56 41.109375 55.140625 
Q 45.0625 54.296875 48.78125 52.59375 
z
" id="DejaVuSans-99"/>
      <path d="M 45.40625 46.390625 
L 45.40625 75.984375 
L 54.390625 75.984375 
L 54.390625 0 
L 45.40625 0 
L 45.40625 8.203125 
Q 42.578125 3.328125 38.25 0.953125 
Q 33.9375 -1.421875 27.875 -1.421875 
Q 17.96875 -1.421875 11.734375 6.484375 
Q 5.515625 14.40625 5.515625 27.296875 
Q 5.515625 40.1875 11.734375 48.09375 
Q 17.96875 56 27.875 56 
Q 33.9375 56 38.25 53.625 
Q 42.578125 51.265625 45.40625 46.390625 
z
M 14.796875 27.296875 
Q 14.796875 17.390625 18.875 11.75 
Q 22.953125 6.109375 30.078125 6.109375 
Q 37.203125 6.109375 41.296875 11.75 
Q 45.40625 17.390625 45.40625 27.296875 
Q 45.40625 37.203125 41.296875 42.84375 
Q 37.203125 48.484375 30.078125 48.484375 
Q 22.953125 48.484375 18.875 42.84375 
Q 14.796875 37.203125 14.796875 27.296875 
z
" id="DejaVuSans-100"/>
      <path d="M 10.6875 12.40625 
L 21 12.40625 
L 21 0 
L 10.6875 0 
z
" id="DejaVuSans-46"/>
     </defs>
     <use xlink:href="#DejaVuSans-87"/>
     <use x="98.876953" xlink:href="#DejaVuSans-50"/>
     <use x="162.5" xlink:href="#DejaVuSans-48"/>
     <use x="226.123047" xlink:href="#DejaVuSans-95"/>
     <use x="276.123047" xlink:href="#DejaVuSans-95"/>
     <use x="326.123047" xlink:href="#DejaVuSans-72"/>
     <use x="401.318359" xlink:href="#DejaVuSans-49"/>
     <use x="464.941406" xlink:href="#DejaVuSans-53"/>
     <use x="528.564453" xlink:href="#DejaVuSans-95"/>
     <use x="578.564453" xlink:href="#DejaVuSans-95"/>
     <use x="628.564453" xlink:href="#DejaVuSans-65"/>
     <use x="696.972656" xlink:href="#DejaVuSans-49"/>
     <use x="760.595703" xlink:href="#DejaVuSans-48"/>
     <use x="824.21875" xlink:href="#DejaVuSans-48"/>
     <use x="887.841797" xlink:href="#DejaVuSans-95"/>
     <use x="937.841797" xlink:href="#DejaVuSans-98"/>
     <use x="1001.318359" xlink:href="#DejaVuSans-97"/>
     <use x="1062.597656" xlink:href="#DejaVuSans-114"/>
     <use x="1103.710938" xlink:href="#DejaVuSans-115"/>
     <use x="1155.810547" xlink:href="#DejaVuSans-95"/>
     <use x="1205.810547" xlink:href="#DejaVuSans-101"/>
     <use x="1265.583984" xlink:href="#DejaVuSans-120"/>
     <use x="1324.763672" xlink:href="#DejaVuSans-116"/>
     <use x="1363.972656" xlink:href="#DejaVuSans-114"/>
     <use x="1405.085938" xlink:href="#DejaVuSans-97"/>
     <use x="1466.365234" xlink:href="#DejaVuSans-99"/>
     <use x="1521.345703" xlink:href="#DejaVuSans-116"/>
     <use x="1560.554688" xlink:href="#DejaVuSans-101"/>
     <use x="1622.078125" xlink:href="#DejaVuSans-100"/>
     <use x="1685.554688" xlink:href="#DejaVuSans-46"/>
     <use x="1717.341797" xlink:href="#DejaVuSans-116"/>
     <use x="1756.550781" xlink:href="#DejaVuSans-120"/>
     <use x="1815.730469" xlink:href="#DejaVuSans-116"/>
    </g>
   </g>
  </g>
 </g>
 <defs>
  <clipPath id="p3eb9094f56">
   <rect height="217.44" width="217.44" x="112.68" y="34.56"/>
  </clipPath>
 </defs>
</svg>
