<?xml version="1.0" encoding="utf-8" standalone="no"?>
<!DOCTYPE svg PUBLIC "-//W3C//DTD SVG 1.1//EN"
  "http://www.w3.org/Graphics/SVG/1.1/DTD/svg11.dtd">
<!-- Created with matplotlib (https://matplotlib.org/) -->
<svg height="288pt" version="1.1" viewBox="0 0 432 288" width="432pt" xmlns="http://www.w3.org/2000/svg" xmlns:xlink="http://www.w3.org/1999/xlink">
 <metadata>
  <rdf:RDF xmlns:cc="http://creativecommons.org/ns#" xmlns:dc="http://purl.org/dc/elements/1.1/" xmlns:rdf="http://www.w3.org/1999/02/22-rdf-syntax-ns#">
   <cc:Work>
    <dc:type rdf:resource="http://purl.org/dc/dcmitype/StillImage"/>
    <dc:date>2021-06-13T21:57:39.632727</dc:date>
    <dc:format>image/svg+xml</dc:format>
    <dc:creator>
     <cc:Agent>
      <dc:title>Matplotlib v3.3.4, https://matplotlib.org/</dc:title>
     </cc:Agent>
    </dc:creator>
   </cc:Work>
  </rdf:RDF>
 </metadata>
 <defs>
  <style type="text/css">*{stroke-linecap:butt;stroke-linejoin:round;}</style>
 </defs>
 <g id="figure_1">
  <g id="patch_1">
   <path d="M 0 288 
L 432 288 
L 432 0 
L 0 0 
z
" style="fill:#ffffff;"/>
  </g>
  <g id="patch_2">
   <path d="M 112.68 252 
L 330.12 252 
L 330.12 34.56 
L 112.68 34.56 
z
" style="fill:#ffffff;"/>
  </g>
  <g id="pane3d_1">
   <g id="patch_3">
    <path d="M 129.09822 198.386264 
L 200.904009 138.197228 
L 199.90584 51.393878 
L 124.663773 106.302111 
" style="fill:#f2f2f2;opacity:0.5;stroke:#f2f2f2;stroke-linejoin:miter;"/>
   </g>
  </g>
  <g id="pane3d_2">
   <g id="patch_4">
    <path d="M 200.904009 138.197228 
L 316.12668 171.68791 
L 320.238571 81.894718 
L 199.90584 51.393878 
" style="fill:#e6e6e6;opacity:0.5;stroke:#e6e6e6;stroke-linejoin:miter;"/>
   </g>
  </g>
  <g id="pane3d_3">
   <g id="patch_5">
    <path d="M 129.09822 198.386264 
L 251.239879 238.27773 
L 316.12668 171.68791 
L 200.904009 138.197228 
" style="fill:#ececec;opacity:0.5;stroke:#ececec;stroke-linejoin:miter;"/>
   </g>
  </g>
  <g id="axis3d_1">
   <g id="line2d_1">
    <path d="M 129.09822 198.386264 
L 251.239879 238.27773 
" style="fill:none;stroke:#000000;stroke-linecap:square;stroke-width:0.8;"/>
   </g>
   <g id="Line3DCollection_1">
    <path d="M 136.495759 200.802301 
L 207.911499 140.234029 
L 207.209612 53.245171 
" style="fill:none;stroke:#b0b0b0;stroke-width:0.8;"/>
    <path d="M 162.23134 209.207541 
L 232.260894 147.311436 
L 232.60309 59.681678 
" style="fill:none;stroke:#b0b0b0;stroke-width:0.8;"/>
    <path d="M 188.559037 217.806167 
L 257.123632 154.538053 
L 258.555303 66.259807 
" style="fill:none;stroke:#b0b0b0;stroke-width:0.8;"/>
    <path d="M 215.499525 226.604931 
L 282.516121 161.918647 
L 285.084894 72.984285 
" style="fill:none;stroke:#b0b0b0;stroke-width:0.8;"/>
    <path d="M 243.074449 235.610901 
L 308.455474 169.458193 
L 312.21135 79.860051 
" style="fill:none;stroke:#b0b0b0;stroke-width:0.8;"/>
   </g>
   <g id="xtick_1">
    <g id="line2d_2">
     <path d="M 137.117644 200.274876 
L 135.249322 201.859414 
" style="fill:none;stroke:#000000;stroke-linecap:square;stroke-width:0.8;"/>
    </g>
    <g id="text_1">
     <!-- 0 -->
     <g transform="translate(125.77919 224.124533)scale(0.1 -0.1)">
      <defs>
       <path d="M 31.78125 66.40625 
Q 24.171875 66.40625 20.328125 58.90625 
Q 16.5 51.421875 16.5 36.375 
Q 16.5 21.390625 20.328125 13.890625 
Q 24.171875 6.390625 31.78125 6.390625 
Q 39.453125 6.390625 43.28125 13.890625 
Q 47.125 21.390625 47.125 36.375 
Q 47.125 51.421875 43.28125 58.90625 
Q 39.453125 66.40625 31.78125 66.40625 
z
M 31.78125 74.21875 
Q 44.046875 74.21875 50.515625 64.515625 
Q 56.984375 54.828125 56.984375 36.375 
Q 56.984375 17.96875 50.515625 8.265625 
Q 44.046875 -1.421875 31.78125 -1.421875 
Q 19.53125 -1.421875 13.0625 8.265625 
Q 6.59375 17.96875 6.59375 36.375 
Q 6.59375 54.828125 13.0625 64.515625 
Q 19.53125 74.21875 31.78125 74.21875 
z
" id="DejaVuSans-48"/>
      </defs>
      <use xlink:href="#DejaVuSans-48"/>
     </g>
    </g>
   </g>
   <g id="xtick_2">
    <g id="line2d_3">
     <path d="M 162.841716 208.668056 
L 161.007937 210.288854 
" style="fill:none;stroke:#000000;stroke-linecap:square;stroke-width:0.8;"/>
    </g>
    <g id="text_2">
     <!-- 2 -->
     <g transform="translate(151.547192 232.748132)scale(0.1 -0.1)">
      <defs>
       <path d="M 19.1875 8.296875 
L 53.609375 8.296875 
L 53.609375 0 
L 7.328125 0 
L 7.328125 8.296875 
Q 12.9375 14.109375 22.625 23.890625 
Q 32.328125 33.6875 34.8125 36.53125 
Q 39.546875 41.84375 41.421875 45.53125 
Q 43.3125 49.21875 43.3125 52.78125 
Q 43.3125 58.59375 39.234375 62.25 
Q 35.15625 65.921875 28.609375 65.921875 
Q 23.96875 65.921875 18.8125 64.3125 
Q 13.671875 62.703125 7.8125 59.421875 
L 7.8125 69.390625 
Q 13.765625 71.78125 18.9375 73 
Q 24.125 74.21875 28.421875 74.21875 
Q 39.75 74.21875 46.484375 68.546875 
Q 53.21875 62.890625 53.21875 53.421875 
Q 53.21875 48.921875 51.53125 44.890625 
Q 49.859375 40.875 45.40625 35.40625 
Q 44.1875 33.984375 37.640625 27.21875 
Q 31.109375 20.453125 19.1875 8.296875 
z
" id="DejaVuSans-50"/>
      </defs>
      <use xlink:href="#DejaVuSans-50"/>
     </g>
    </g>
   </g>
   <g id="xtick_3">
    <g id="line2d_4">
     <path d="M 189.15721 217.254202 
L 187.360066 218.91252 
" style="fill:none;stroke:#000000;stroke-linecap:square;stroke-width:0.8;"/>
    </g>
    <g id="text_3">
     <!-- 4 -->
     <g transform="translate(177.91082 241.571064)scale(0.1 -0.1)">
      <defs>
       <path d="M 37.796875 64.3125 
L 12.890625 25.390625 
L 37.796875 25.390625 
z
M 35.203125 72.90625 
L 47.609375 72.90625 
L 47.609375 25.390625 
L 58.015625 25.390625 
L 58.015625 17.1875 
L 47.609375 17.1875 
L 47.609375 0 
L 37.796875 0 
L 37.796875 17.1875 
L 4.890625 17.1875 
L 4.890625 26.703125 
z
" id="DejaVuSans-52"/>
      </defs>
      <use xlink:href="#DejaVuSans-52"/>
     </g>
    </g>
   </g>
   <g id="xtick_4">
    <g id="line2d_5">
     <path d="M 216.084757 226.040048 
L 214.326462 227.737204 
" style="fill:none;stroke:#000000;stroke-linecap:square;stroke-width:0.8;"/>
    </g>
    <g id="text_4">
     <!-- 6 -->
     <g transform="translate(204.890965 250.600322)scale(0.1 -0.1)">
      <defs>
       <path d="M 33.015625 40.375 
Q 26.375 40.375 22.484375 35.828125 
Q 18.609375 31.296875 18.609375 23.390625 
Q 18.609375 15.53125 22.484375 10.953125 
Q 26.375 6.390625 33.015625 6.390625 
Q 39.65625 6.390625 43.53125 10.953125 
Q 47.40625 15.53125 47.40625 23.390625 
Q 47.40625 31.296875 43.53125 35.828125 
Q 39.65625 40.375 33.015625 40.375 
z
M 52.59375 71.296875 
L 52.59375 62.3125 
Q 48.875 64.0625 45.09375 64.984375 
Q 41.3125 65.921875 37.59375 65.921875 
Q 27.828125 65.921875 22.671875 59.328125 
Q 17.53125 52.734375 16.796875 39.40625 
Q 19.671875 43.65625 24.015625 45.921875 
Q 28.375 48.1875 33.59375 48.1875 
Q 44.578125 48.1875 50.953125 41.515625 
Q 57.328125 34.859375 57.328125 23.390625 
Q 57.328125 12.15625 50.6875 5.359375 
Q 44.046875 -1.421875 33.015625 -1.421875 
Q 20.359375 -1.421875 13.671875 8.265625 
Q 6.984375 17.96875 6.984375 36.375 
Q 6.984375 53.65625 15.1875 63.9375 
Q 23.390625 74.21875 37.203125 74.21875 
Q 40.921875 74.21875 44.703125 73.484375 
Q 48.484375 72.75 52.59375 71.296875 
z
" id="DejaVuSans-54"/>
      </defs>
      <use xlink:href="#DejaVuSans-54"/>
     </g>
    </g>
   </g>
   <g id="xtick_5">
    <g id="line2d_6">
     <path d="M 243.645962 235.032643 
L 241.928856 236.770015 
" style="fill:none;stroke:#000000;stroke-linecap:square;stroke-width:0.8;"/>
    </g>
    <g id="text_5">
     <!-- 8 -->
     <g transform="translate(232.509511 259.84323)scale(0.1 -0.1)">
      <defs>
       <path d="M 31.78125 34.625 
Q 24.75 34.625 20.71875 30.859375 
Q 16.703125 27.09375 16.703125 20.515625 
Q 16.703125 13.921875 20.71875 10.15625 
Q 24.75 6.390625 31.78125 6.390625 
Q 38.8125 6.390625 42.859375 10.171875 
Q 46.921875 13.96875 46.921875 20.515625 
Q 46.921875 27.09375 42.890625 30.859375 
Q 38.875 34.625 31.78125 34.625 
z
M 21.921875 38.8125 
Q 15.578125 40.375 12.03125 44.71875 
Q 8.5 49.078125 8.5 55.328125 
Q 8.5 64.0625 14.71875 69.140625 
Q 20.953125 74.21875 31.78125 74.21875 
Q 42.671875 74.21875 48.875 69.140625 
Q 55.078125 64.0625 55.078125 55.328125 
Q 55.078125 49.078125 51.53125 44.71875 
Q 48 40.375 41.703125 38.8125 
Q 48.828125 37.15625 52.796875 32.3125 
Q 56.78125 27.484375 56.78125 20.515625 
Q 56.78125 9.90625 50.3125 4.234375 
Q 43.84375 -1.421875 31.78125 -1.421875 
Q 19.734375 -1.421875 13.25 4.234375 
Q 6.78125 9.90625 6.78125 20.515625 
Q 6.78125 27.484375 10.78125 32.3125 
Q 14.796875 37.15625 21.921875 38.8125 
z
M 18.3125 54.390625 
Q 18.3125 48.734375 21.84375 45.5625 
Q 25.390625 42.390625 31.78125 42.390625 
Q 38.140625 42.390625 41.71875 45.5625 
Q 45.3125 48.734375 45.3125 54.390625 
Q 45.3125 60.0625 41.71875 63.234375 
Q 38.140625 66.40625 31.78125 66.40625 
Q 25.390625 66.40625 21.84375 63.234375 
Q 18.3125 60.0625 18.3125 54.390625 
z
" id="DejaVuSans-56"/>
      </defs>
      <use xlink:href="#DejaVuSans-56"/>
     </g>
    </g>
   </g>
  </g>
  <g id="axis3d_2">
   <g id="line2d_7">
    <path d="M 316.12668 171.68791 
L 251.239879 238.27773 
" style="fill:none;stroke:#000000;stroke-linecap:square;stroke-width:0.8;"/>
   </g>
   <g id="Line3DCollection_2">
    <path d="M 129.866948 102.505071 
L 134.046245 194.238731 
L 255.729543 233.67023 
" style="fill:none;stroke:#b0b0b0;stroke-width:0.8;"/>
    <path d="M 147.250212 89.819556 
L 150.59591 180.366474 
L 270.72626 218.279909 
" style="fill:none;stroke:#b0b0b0;stroke-width:0.8;"/>
    <path d="M 163.958537 77.626582 
L 166.530371 167.009893 
L 285.136664 203.491289 
" style="fill:none;stroke:#b0b0b0;stroke-width:0.8;"/>
    <path d="M 180.030483 65.898008 
L 181.883306 154.140758 
L 298.994481 189.269761 
" style="fill:none;stroke:#b0b0b0;stroke-width:0.8;"/>
    <path d="M 195.501727 54.607799 
L 196.68598 141.732864 
L 312.330896 175.583317 
" style="fill:none;stroke:#b0b0b0;stroke-width:0.8;"/>
   </g>
   <g id="xtick_6">
    <g id="line2d_8">
     <path d="M 254.704115 233.337939 
L 257.783053 234.33567 
" style="fill:none;stroke:#000000;stroke-linecap:square;stroke-width:0.8;"/>
    </g>
    <g id="text_6">
     <!-- 0 -->
     <g transform="translate(265.430654 254.693759)scale(0.1 -0.1)">
      <use xlink:href="#DejaVuSans-48"/>
     </g>
    </g>
   </g>
   <g id="xtick_7">
    <g id="line2d_9">
     <path d="M 269.71494 217.960734 
L 272.751463 218.919068 
" style="fill:none;stroke:#000000;stroke-linecap:square;stroke-width:0.8;"/>
    </g>
    <g id="text_7">
     <!-- 2 -->
     <g transform="translate(280.181112 239.024526)scale(0.1 -0.1)">
      <use xlink:href="#DejaVuSans-50"/>
     </g>
    </g>
   </g>
   <g id="xtick_8">
    <g id="line2d_10">
     <path d="M 284.139145 203.184468 
L 287.134182 204.105694 
" style="fill:none;stroke:#000000;stroke-linecap:square;stroke-width:0.8;"/>
    </g>
    <g id="text_8">
     <!-- 4 -->
     <g transform="translate(294.35448 223.968328)scale(0.1 -0.1)">
      <use xlink:href="#DejaVuSans-52"/>
     </g>
    </g>
   </g>
   <g id="xtick_9">
    <g id="line2d_11">
     <path d="M 298.010457 188.97459 
L 300.964927 189.860821 
" style="fill:none;stroke:#000000;stroke-linecap:square;stroke-width:0.8;"/>
    </g>
    <g id="text_9">
     <!-- 6 -->
     <g transform="translate(307.983974 209.489882)scale(0.1 -0.1)">
      <use xlink:href="#DejaVuSans-54"/>
     </g>
    </g>
   </g>
   <g id="xtick_10">
    <g id="line2d_12">
     <path d="M 311.360068 175.299146 
L 314.274875 176.15234 
" style="fill:none;stroke:#000000;stroke-linecap:square;stroke-width:0.8;"/>
    </g>
    <g id="text_10">
     <!-- 8 -->
     <g transform="translate(321.10031 195.556556)scale(0.1 -0.1)">
      <use xlink:href="#DejaVuSans-56"/>
     </g>
    </g>
   </g>
  </g>
  <g id="axis3d_3">
   <g id="line2d_13">
    <path d="M 316.12668 171.68791 
L 320.238571 81.894718 
" style="fill:none;stroke:#000000;stroke-linecap:square;stroke-width:0.8;"/>
   </g>
   <g id="Line3DCollection_3">
    <path d="M 316.205459 169.967571 
L 200.884845 136.530725 
L 129.013401 196.624949 
" style="fill:none;stroke:#b0b0b0;stroke-width:0.8;"/>
    <path d="M 317.006606 152.472576 
L 200.690051 119.590866 
L 128.150525 178.706779 
" style="fill:none;stroke:#b0b0b0;stroke-width:0.8;"/>
    <path d="M 317.821849 134.669759 
L 200.491993 102.367261 
L 127.271886 160.461257 
" style="fill:none;stroke:#b0b0b0;stroke-width:0.8;"/>
    <path d="M 318.651563 116.550923 
L 200.29059 84.852719 
L 126.377046 141.87933 
" style="fill:none;stroke:#b0b0b0;stroke-width:0.8;"/>
    <path d="M 319.496137 98.10758 
L 200.085755 67.039806 
L 125.465554 122.951609 
" style="fill:none;stroke:#b0b0b0;stroke-width:0.8;"/>
   </g>
   <g id="xtick_11">
    <g id="line2d_14">
     <path d="M 315.237563 169.686933 
L 318.143556 170.529516 
" style="fill:none;stroke:#000000;stroke-linecap:square;stroke-width:0.8;"/>
    </g>
    <g id="text_11">
     <!-- 0 -->
     <g transform="translate(331.275915 174.966846)scale(0.1 -0.1)">
      <use xlink:href="#DejaVuSans-48"/>
     </g>
    </g>
   </g>
   <g id="xtick_12">
    <g id="line2d_15">
     <path d="M 316.029952 152.196484 
L 318.962259 153.025423 
" style="fill:none;stroke:#000000;stroke-linecap:square;stroke-width:0.8;"/>
    </g>
    <g id="text_12">
     <!-- 5000 -->
     <g transform="translate(322.688925 157.514033)scale(0.1 -0.1)">
      <defs>
       <path d="M 10.796875 72.90625 
L 49.515625 72.90625 
L 49.515625 64.59375 
L 19.828125 64.59375 
L 19.828125 46.734375 
Q 21.96875 47.46875 24.109375 47.828125 
Q 26.265625 48.1875 28.421875 48.1875 
Q 40.625 48.1875 47.75 41.5 
Q 54.890625 34.8125 54.890625 23.390625 
Q 54.890625 11.625 47.5625 5.09375 
Q 40.234375 -1.421875 26.90625 -1.421875 
Q 22.3125 -1.421875 17.546875 -0.640625 
Q 12.796875 0.140625 7.71875 1.703125 
L 7.71875 11.625 
Q 12.109375 9.234375 16.796875 8.0625 
Q 21.484375 6.890625 26.703125 6.890625 
Q 35.15625 6.890625 40.078125 11.328125 
Q 45.015625 15.765625 45.015625 23.390625 
Q 45.015625 31 40.078125 35.4375 
Q 35.15625 39.890625 26.703125 39.890625 
Q 22.75 39.890625 18.8125 39.015625 
Q 14.890625 38.140625 10.796875 36.28125 
z
" id="DejaVuSans-53"/>
      </defs>
      <use xlink:href="#DejaVuSans-53"/>
      <use x="63.623047" xlink:href="#DejaVuSans-48"/>
      <use x="127.246094" xlink:href="#DejaVuSans-48"/>
      <use x="190.869141" xlink:href="#DejaVuSans-48"/>
     </g>
    </g>
   </g>
   <g id="xtick_13">
    <g id="line2d_16">
     <path d="M 316.836277 134.398418 
L 319.795379 135.213099 
" style="fill:none;stroke:#000000;stroke-linecap:square;stroke-width:0.8;"/>
    </g>
    <g id="text_13">
     <!-- 10000 -->
     <g transform="translate(320.481205 139.755287)scale(0.1 -0.1)">
      <defs>
       <path d="M 12.40625 8.296875 
L 28.515625 8.296875 
L 28.515625 63.921875 
L 10.984375 60.40625 
L 10.984375 69.390625 
L 28.421875 72.90625 
L 38.28125 72.90625 
L 38.28125 8.296875 
L 54.390625 8.296875 
L 54.390625 0 
L 12.40625 0 
z
" id="DejaVuSans-49"/>
      </defs>
      <use xlink:href="#DejaVuSans-49"/>
      <use x="63.623047" xlink:href="#DejaVuSans-48"/>
      <use x="127.246094" xlink:href="#DejaVuSans-48"/>
      <use x="190.869141" xlink:href="#DejaVuSans-48"/>
      <use x="254.492188" xlink:href="#DejaVuSans-48"/>
     </g>
    </g>
   </g>
   <g id="xtick_14">
    <g id="line2d_17">
     <path d="M 317.65691 116.284546 
L 320.643299 117.08433 
" style="fill:none;stroke:#000000;stroke-linecap:square;stroke-width:0.8;"/>
    </g>
    <g id="text_14">
     <!-- 15000 -->
     <g transform="translate(321.471952 121.682492)scale(0.1 -0.1)">
      <use xlink:href="#DejaVuSans-49"/>
      <use x="63.623047" xlink:href="#DejaVuSans-53"/>
      <use x="127.246094" xlink:href="#DejaVuSans-48"/>
      <use x="190.869141" xlink:href="#DejaVuSans-48"/>
      <use x="254.492188" xlink:href="#DejaVuSans-48"/>
     </g>
    </g>
   </g>
   <g id="xtick_15">
    <g id="line2d_18">
     <path d="M 318.492234 97.846388 
L 321.506418 98.630607 
" style="fill:none;stroke:#000000;stroke-linecap:square;stroke-width:0.8;"/>
    </g>
    <g id="text_15">
     <!-- 20000 -->
     <g transform="translate(322.480376 103.287245)scale(0.1 -0.1)">
      <use xlink:href="#DejaVuSans-50"/>
      <use x="63.623047" xlink:href="#DejaVuSans-48"/>
      <use x="127.246094" xlink:href="#DejaVuSans-48"/>
      <use x="190.869141" xlink:href="#DejaVuSans-48"/>
      <use x="254.492188" xlink:href="#DejaVuSans-48"/>
     </g>
    </g>
   </g>
  </g>
  <g id="axes_1">
   <g id="Poly3DCollection_1">
    <path clip-path="url(#pfd53dc4512)" d="M 203.700438 142.115361 
L 203.698608 141.935 
L 215.863146 145.486025 
L 215.863902 145.66701 
z
" style="fill:#050338;"/>
    <path clip-path="url(#pfd53dc4512)" d="M 196.401162 148.290596 
L 196.398662 148.109151 
L 203.698608 141.935 
L 203.700438 142.115361 
z
" style="fill:#0b0777;"/>
    <path clip-path="url(#pfd53dc4512)" d="M 196.401162 148.290596 
L 203.700438 142.115361 
L 215.863902 145.66701 
L 208.637156 151.907182 
z
" style="fill:#070448;"/>
    <path clip-path="url(#pfd53dc4512)" d="M 196.398662 148.109151 
L 208.635744 151.725106 
L 215.863146 145.486025 
L 203.698608 141.935 
z
" style="fill:#0a0667;"/>
    <path clip-path="url(#pfd53dc4512)" d="M 215.863902 145.66701 
L 215.853182 143.09859 
L 228.159877 146.678584 
L 228.155024 149.255935 
z
" style="fill:#0d023b;"/>
    <path clip-path="url(#pfd53dc4512)" d="M 208.637156 151.907182 
L 215.863902 145.66701 
L 215.863146 145.486025 
L 208.635744 151.725106 
z
" style="fill:#050338;"/>
    <path clip-path="url(#pfd53dc4512)" d="M 208.637156 151.907182 
L 208.617113 149.323263 
L 215.853182 143.09859 
L 215.863902 145.66701 
z
" style="fill:#1c057e;"/>
    <path clip-path="url(#pfd53dc4512)" d="M 196.401162 148.290596 
L 208.637156 151.907182 
L 208.635744 151.725106 
L 196.398662 148.109151 
z
" style="fill:#0b0777;"/>
    <path clip-path="url(#pfd53dc4512)" d="M 196.401162 148.290596 
L 196.396322 147.939302 
L 208.634422 151.554667 
L 208.637156 151.907182 
z
" style="fill:#050338;"/>
    <path clip-path="url(#pfd53dc4512)" d="M 208.637156 151.907182 
L 215.863902 145.66701 
L 228.155024 149.255935 
L 221.002748 155.562072 
z
" style="fill:#11034c;"/>
    <path clip-path="url(#pfd53dc4512)" d="M 208.617113 149.323263 
L 220.998468 152.969143 
L 228.159877 146.678584 
L 215.853182 143.09859 
z
" style="fill:#18046d;"/>
    <path clip-path="url(#pfd53dc4512)" d="M 188.96817 154.578956 
L 188.961987 154.225543 
L 196.396322 147.939302 
L 196.401162 148.290596 
z
" style="fill:#0b0777;"/>
    <path clip-path="url(#pfd53dc4512)" d="M 228.155024 149.255935 
L 228.17051 141.032047 
L 240.642057 144.63007 
L 240.575825 152.882725 
z
" style="fill:#1b0141;"/>
    <path clip-path="url(#pfd53dc4512)" d="M 221.002748 155.562072 
L 228.155024 149.255935 
L 228.159877 146.678584 
L 220.998468 152.969143 
z
" style="fill:#0d023b;"/>
    <path clip-path="url(#pfd53dc4512)" d="M 188.96817 154.578956 
L 196.401162 148.290596 
L 208.637156 151.907182 
L 201.27732 158.262275 
z
" style="fill:#070448;"/>
    <path clip-path="url(#pfd53dc4512)" d="M 188.961987 154.225543 
L 201.273267 157.90763 
L 208.634422 151.554667 
L 196.396322 147.939302 
z
" style="fill:#0a0667;"/>
    <path clip-path="url(#pfd53dc4512)" d="M 221.002748 155.562072 
L 220.989089 147.288264 
L 228.17051 141.032047 
L 228.155024 149.255935 
z
" style="fill:#39038b;"/>
    <path clip-path="url(#pfd53dc4512)" d="M 208.637156 151.907182 
L 221.002748 155.562072 
L 220.998468 152.969143 
L 208.617113 149.323263 
z
" style="fill:#1c057e;"/>
    <path clip-path="url(#pfd53dc4512)" d="M 221.002748 155.562072 
L 228.155024 149.255935 
L 240.575825 152.882725 
L 233.500008 159.25588 
z
" style="fill:#230254;"/>
    <path clip-path="url(#pfd53dc4512)" d="M 208.637156 151.907182 
L 208.587233 145.471145 
L 220.992086 149.103526 
L 221.002748 155.562072 
z
" style="fill:#170240;"/>
    <path clip-path="url(#pfd53dc4512)" d="M 201.27732 158.262275 
L 208.637156 151.907182 
L 208.634422 151.554667 
L 201.273267 157.90763 
z
" style="fill:#050338;"/>
    <path clip-path="url(#pfd53dc4512)" d="M 240.575825 152.882725 
L 240.641381 144.714322 
L 253.245222 148.350961 
L 253.128369 156.547983 
z
" style="fill:#1b0141;"/>
    <path clip-path="url(#pfd53dc4512)" d="M 201.27732 158.262275 
L 201.203319 151.787177 
L 208.587233 145.471145 
L 208.637156 151.907182 
z
" style="fill:#300487;"/>
    <path clip-path="url(#pfd53dc4512)" d="M 188.96817 154.578956 
L 201.27732 158.262275 
L 201.273267 157.90763 
L 188.961987 154.225543 
z
" style="fill:#0b0777;"/>
    <path clip-path="url(#pfd53dc4512)" d="M 188.96817 154.578956 
L 188.957524 153.970495 
L 201.270342 157.651692 
L 201.27732 158.262275 
z
" style="fill:#070339;"/>
    <path clip-path="url(#pfd53dc4512)" d="M 201.27732 158.262275 
L 208.637156 151.907182 
L 221.002748 155.562072 
L 213.718049 161.984967 
z
" style="fill:#1d0251;"/>
    <path clip-path="url(#pfd53dc4512)" d="M 220.989089 147.288264 
L 233.537723 150.953047 
L 240.642057 144.63007 
L 228.17051 141.032047 
z
" style="fill:#320378;"/>
    <path clip-path="url(#pfd53dc4512)" d="M 233.500008 159.25588 
L 233.537338 151.037815 
L 240.641381 144.714322 
L 240.575825 152.882725 
z
" style="fill:#39038b;"/>
    <path clip-path="url(#pfd53dc4512)" d="M 233.500008 159.25588 
L 240.575825 152.882725 
L 240.642057 144.63007 
L 233.537723 150.953047 
z
" style="fill:#1b0141;"/>
    <path clip-path="url(#pfd53dc4512)" d="M 181.397755 160.983577 
L 181.384711 160.371435 
L 188.957524 153.970495 
L 188.96817 154.578956 
z
" style="fill:#0e0678;"/>
    <path clip-path="url(#pfd53dc4512)" d="M 233.500008 159.25588 
L 240.575825 152.882725 
L 253.128369 156.547983 
L 246.131049 162.989229 
z
" style="fill:#230254;"/>
    <path clip-path="url(#pfd53dc4512)" d="M 221.002748 155.562072 
L 233.500008 159.25588 
L 233.537723 150.953047 
L 220.989089 147.288264 
z
" style="fill:#39038b;"/>
    <path clip-path="url(#pfd53dc4512)" d="M 201.203319 151.787177 
L 213.683786 155.487159 
L 220.992086 149.103526 
L 208.587233 145.471145 
z
" style="fill:#2a0375;"/>
    <path clip-path="url(#pfd53dc4512)" d="M 181.397755 160.983577 
L 188.96817 154.578956 
L 201.27732 158.262275 
L 193.780682 164.735494 
z
" style="fill:#090449;"/>
    <path clip-path="url(#pfd53dc4512)" d="M 253.128369 156.547983 
L 253.247952 148.159438 
L 265.987962 151.834337 
L 265.814761 160.252323 
z
" style="fill:#1b0141;"/>
    <path clip-path="url(#pfd53dc4512)" d="M 181.384711 160.371435 
L 193.771349 164.121212 
L 201.270342 157.651692 
L 188.957524 153.970495 
z
" style="fill:#0c0668;"/>
    <path clip-path="url(#pfd53dc4512)" d="M 213.718049 161.984967 
L 221.002748 155.562072 
L 220.992086 149.103526 
L 213.683786 155.487159 
z
" style="fill:#170240;"/>
    <path clip-path="url(#pfd53dc4512)" d="M 213.718049 161.984967 
L 221.002748 155.562072 
L 233.500008 159.25588 
L 226.292478 165.747667 
z
" style="fill:#450259;"/>
    <path clip-path="url(#pfd53dc4512)" d="M 233.537338 151.037815 
L 246.220324 154.742291 
L 253.245222 148.350961 
L 240.641381 144.714322 
z
" style="fill:#320378;"/>
    <path clip-path="url(#pfd53dc4512)" d="M 221.002748 155.562072 
L 220.96744 134.174269 
L 233.597507 137.792307 
L 233.500008 159.25588 
z
" style="fill:#360246;"/>
    <path clip-path="url(#pfd53dc4512)" d="M 246.131049 162.989229 
L 253.128369 156.547983 
L 253.245222 148.350961 
L 246.220324 154.742291 
z
" style="fill:#1b0141;"/>
    <path clip-path="url(#pfd53dc4512)" d="M 246.131049 162.989229 
L 246.22241 154.549594 
L 253.247952 148.159438 
L 253.128369 156.547983 
z
" style="fill:#39038b;"/>
    <path clip-path="url(#pfd53dc4512)" d="M 201.27732 158.262275 
L 213.718049 161.984967 
L 213.683786 155.487159 
L 201.203319 151.787177 
z
" style="fill:#300487;"/>
    <path clip-path="url(#pfd53dc4512)" d="M 193.780682 164.735494 
L 201.27732 158.262275 
L 201.270342 157.651692 
L 193.771349 164.121212 
z
" style="fill:#070339;"/>
    <path clip-path="url(#pfd53dc4512)" d="M 246.131049 162.989229 
L 253.128369 156.547983 
L 265.814761 160.252323 
L 258.898031 166.762758 
z
" style="fill:#230254;"/>
    <path clip-path="url(#pfd53dc4512)" d="M 201.27732 158.262275 
L 201.150404 147.157129 
L 213.659286 150.840736 
L 213.718049 161.984967 
z
" style="fill:#210144;"/>
    <path clip-path="url(#pfd53dc4512)" d="M 213.718049 161.984967 
L 213.604579 140.465675 
L 220.96744 134.174269 
L 221.002748 155.562072 
z
" style="fill:#720494;"/>
    <path clip-path="url(#pfd53dc4512)" d="M 233.500008 159.25588 
L 246.131049 162.989229 
L 246.220324 154.742291 
L 233.537338 151.037815 
z
" style="fill:#39038b;"/>
    <path clip-path="url(#pfd53dc4512)" d="M 181.397755 160.983577 
L 193.780682 164.735494 
L 193.771349 164.121212 
L 181.384711 160.371435 
z
" style="fill:#0e0678;"/>
    <path clip-path="url(#pfd53dc4512)" d="M 181.397755 160.983577 
L 181.383743 160.326004 
L 193.770657 164.075622 
L 193.780682 164.735494 
z
" style="fill:#070339;"/>
    <path clip-path="url(#pfd53dc4512)" d="M 193.780682 164.735494 
L 201.27732 158.262275 
L 213.718049 161.984967 
L 206.297214 168.527892 
z
" style="fill:#2b0156;"/>
    <path clip-path="url(#pfd53dc4512)" d="M 193.780682 164.735494 
L 193.610937 153.562524 
L 201.150404 147.157129 
L 201.27732 158.262275 
z
" style="fill:#46028f;"/>
    <path clip-path="url(#pfd53dc4512)" d="M 265.814761 160.252323 
L 265.982672 152.091415 
L 278.858159 155.806784 
L 278.637155 163.996376 
z
" style="fill:#1a0241;"/>
    <path clip-path="url(#pfd53dc4512)" d="M 173.686069 167.507715 
L 173.669386 166.846153 
L 181.383743 160.326004 
L 181.397755 160.983577 
z
" style="fill:#0e0678;"/>
    <path clip-path="url(#pfd53dc4512)" d="M 226.292478 165.747667 
L 233.500008 159.25588 
L 246.131049 162.989229 
L 239.002775 169.551023 
z
" style="fill:#4a0558;"/>
    <path clip-path="url(#pfd53dc4512)" d="M 246.22241 154.549594 
L 259.043699 158.293422 
L 265.987962 151.834337 
L 253.247952 148.159438 
z
" style="fill:#320378;"/>
    <path clip-path="url(#pfd53dc4512)" d="M 258.898031 166.762758 
L 259.039251 158.552078 
L 265.982672 152.091415 
L 265.814761 160.252323 
z
" style="fill:#38038a;"/>
    <path clip-path="url(#pfd53dc4512)" d="M 258.898031 166.762758 
L 265.814761 160.252323 
L 265.987962 151.834337 
L 259.043699 158.293422 
z
" style="fill:#1b0141;"/>
    <path clip-path="url(#pfd53dc4512)" d="M 233.500008 159.25588 
L 233.608258 135.425369 
L 246.389939 139.074003 
L 246.131049 162.989229 
z
" style="fill:#3a0445;"/>
    <path clip-path="url(#pfd53dc4512)" d="M 258.898031 166.762758 
L 265.814761 160.252323 
L 278.637155 163.996376 
L 271.803162 170.57712 
z
" style="fill:#220253;"/>
    <path clip-path="url(#pfd53dc4512)" d="M 173.686069 167.507715 
L 181.397755 160.983577 
L 193.780682 164.735494 
L 186.143392 171.330164 
z
" style="fill:#090449;"/>
    <path clip-path="url(#pfd53dc4512)" d="M 226.292478 165.747667 
L 233.500008 159.25588 
L 233.597507 137.792307 
L 226.313469 144.151919 
z
" style="fill:#360246;"/>
    <path clip-path="url(#pfd53dc4512)" d="M 278.637155 163.996376 
L 278.697615 161.75593 
L 291.673045 165.532485 
L 291.597749 167.780781 
z
" style="fill:#0c033b;"/>
    <path clip-path="url(#pfd53dc4512)" d="M 246.131049 162.989229 
L 258.898031 166.762758 
L 259.043699 158.293422 
L 246.22241 154.549594 
z
" style="fill:#39038b;"/>
    <path clip-path="url(#pfd53dc4512)" d="M 173.669386 166.846153 
L 186.130744 170.666283 
L 193.770657 164.075622 
L 181.383743 160.326004 
z
" style="fill:#0c0668;"/>
    <path clip-path="url(#pfd53dc4512)" d="M 226.292478 165.747667 
L 226.315784 141.770143 
L 233.608258 135.425369 
L 233.500008 159.25588 
z
" style="fill:#7b0992;"/>
    <path clip-path="url(#pfd53dc4512)" d="M 206.297214 168.527892 
L 213.718049 161.984967 
L 226.292478 165.747667 
L 218.949524 172.361429 
z
" style="fill:#661e46;"/>
    <path clip-path="url(#pfd53dc4512)" d="M 206.297214 168.527892 
L 213.718049 161.984967 
L 213.659286 150.840736 
L 206.196453 157.31549 
z
" style="fill:#210144;"/>
    <path clip-path="url(#pfd53dc4512)" d="M 193.610937 153.562524 
L 206.196453 157.31549 
L 213.659286 150.840736 
L 201.150404 147.157129 
z
" style="fill:#3d027c;"/>
    <path clip-path="url(#pfd53dc4512)" d="M 213.718049 161.984967 
L 226.292478 165.747667 
L 226.313469 144.151919 
L 213.604579 140.465675 
z
" style="fill:#720494;"/>
    <path clip-path="url(#pfd53dc4512)" d="M 271.803162 170.57712 
L 271.856509 168.323052 
L 278.697615 161.75593 
L 278.637155 163.996376 
z
" style="fill:#1a057d;"/>
    <path clip-path="url(#pfd53dc4512)" d="M 213.604579 140.465675 
L 226.313469 144.151919 
L 233.597507 137.792307 
L 220.96744 134.174269 
z
" style="fill:#630380;"/>
    <path clip-path="url(#pfd53dc4512)" d="M 186.143392 171.330164 
L 193.780682 164.735494 
L 193.770657 164.075622 
L 186.130744 170.666283 
z
" style="fill:#070339;"/>
    <path clip-path="url(#pfd53dc4512)" d="M 239.002775 169.551023 
L 246.131049 162.989229 
L 258.898031 166.762758 
L 251.851153 173.395697 
z
" style="fill:#460359;"/>
    <path clip-path="url(#pfd53dc4512)" d="M 259.039251 158.552078 
L 271.998168 162.337505 
L 278.858159 155.806784 
L 265.982672 152.091415 
z
" style="fill:#300378;"/>
    <path clip-path="url(#pfd53dc4512)" d="M 193.780682 164.735494 
L 206.297214 168.527892 
L 206.196453 157.31549 
L 193.610937 153.562524 
z
" style="fill:#46028f;"/>
    <path clip-path="url(#pfd53dc4512)" d="M 271.803162 170.57712 
L 278.637155 163.996376 
L 278.858159 155.806784 
L 271.998168 162.337505 
z
" style="fill:#1a0241;"/>
    <path clip-path="url(#pfd53dc4512)" d="M 246.131049 162.989229 
L 246.372965 140.641916 
L 259.28376 144.335964 
L 258.898031 166.762758 
z
" style="fill:#370245;"/>
    <path clip-path="url(#pfd53dc4512)" d="M 271.803162 170.57712 
L 278.637155 163.996376 
L 291.597749 167.780781 
L 284.848695 174.43298 
z
" style="fill:#10034c;"/>
    <path clip-path="url(#pfd53dc4512)" d="M 193.780682 164.735494 
L 193.536172 148.641349 
L 206.152071 152.376735 
L 206.297214 168.527892 
z
" style="fill:#2b0046;"/>
    <path clip-path="url(#pfd53dc4512)" d="M 173.686069 167.507715 
L 186.143392 171.330164 
L 186.130744 170.666283 
L 173.669386 166.846153 
z
" style="fill:#0e0678;"/>
    <path clip-path="url(#pfd53dc4512)" d="M 173.686069 167.507715 
L 173.653475 166.215219 
L 186.118681 170.033136 
L 186.143392 171.330164 
z
" style="fill:#09033a;"/>
    <path clip-path="url(#pfd53dc4512)" d="M 291.597749 167.780781 
L 291.604895 167.567407 
L 304.707373 171.392074 
L 304.698789 171.606197 
z
" style="fill:#050338;"/>
    <path clip-path="url(#pfd53dc4512)" d="M 186.143392 171.330164 
L 193.780682 164.735494 
L 206.297214 168.527892 
L 198.736391 175.194243 
z
" style="fill:#370059;"/>
    <path clip-path="url(#pfd53dc4512)" d="M 271.856509 168.323052 
L 284.917075 172.170994 
L 291.673045 165.532485 
L 278.697615 161.75593 
z
" style="fill:#17056d;"/>
    <path clip-path="url(#pfd53dc4512)" d="M 258.898031 166.762758 
L 271.803162 170.57712 
L 271.998168 162.337505 
L 259.039251 158.552078 
z
" style="fill:#38038a;"/>
    <path clip-path="url(#pfd53dc4512)" d="M 239.002775 169.551023 
L 239.167102 147.065783 
L 246.372965 140.641916 
L 246.131049 162.989229 
z
" style="fill:#750593;"/>
    <path clip-path="url(#pfd53dc4512)" d="M 239.002775 169.551023 
L 246.131049 162.989229 
L 246.389939 139.074003 
L 239.178633 145.488017 
z
" style="fill:#3a0445;"/>
    <path clip-path="url(#pfd53dc4512)" d="M 213.718049 161.984967 
L 213.51844 124.12963 
L 226.329406 127.756177 
L 226.292478 165.747667 
z
" style="fill:#501837;"/>
    <path clip-path="url(#pfd53dc4512)" d="M 186.143392 171.330164 
L 185.834882 155.137086 
L 193.536172 148.641349 
L 193.780682 164.735494 
z
" style="fill:#5b0094;"/>
    <path clip-path="url(#pfd53dc4512)" d="M 218.949524 172.361429 
L 226.292478 165.747667 
L 239.002775 169.551023 
L 231.739835 176.23678 
z
" style="fill:#692243;"/>
    <path clip-path="url(#pfd53dc4512)" d="M 165.82912 174.154745 
L 165.791116 172.854386 
L 173.653475 166.215219 
L 173.686069 167.507715 
z
" style="fill:#13067a;"/>
    <path clip-path="url(#pfd53dc4512)" d="M 284.848695 174.43298 
L 284.855185 174.218308 
L 291.604895 167.567407 
L 291.597749 167.780781 
z
" style="fill:#0b0777;"/>
    <path clip-path="url(#pfd53dc4512)" d="M 284.848695 174.43298 
L 291.597749 167.780781 
L 291.673045 165.532485 
L 284.917075 172.170994 
z
" style="fill:#0c033b;"/>
    <path clip-path="url(#pfd53dc4512)" d="M 226.292478 165.747667 
L 239.002775 169.551023 
L 239.178633 145.488017 
L 226.315784 141.770143 
z
" style="fill:#7b0992;"/>
    <path clip-path="url(#pfd53dc4512)" d="M 206.297214 168.527892 
L 205.954903 130.436271 
L 213.51844 124.12963 
L 213.718049 161.984967 
z
" style="fill:#a93274;"/>
    <path clip-path="url(#pfd53dc4512)" d="M 251.851153 173.395697 
L 258.898031 166.762758 
L 271.803162 170.57712 
L 264.839875 177.282368 
z
" style="fill:#450259;"/>
    <path clip-path="url(#pfd53dc4512)" d="M 258.898031 166.762758 
L 259.270099 145.130203 
L 272.316961 148.867548 
L 271.803162 170.57712 
z
" style="fill:#360246;"/>
    <path clip-path="url(#pfd53dc4512)" d="M 226.315784 141.770143 
L 239.178633 145.488017 
L 246.389939 139.074003 
L 233.608258 135.425369 
z
" style="fill:#6b087e;"/>
    <path clip-path="url(#pfd53dc4512)" d="M 165.82912 174.154745 
L 173.686069 167.507715 
L 186.143392 171.330164 
L 178.361455 178.049733 
z
" style="fill:#0c044a;"/>
    <path clip-path="url(#pfd53dc4512)" d="M 271.803162 170.57712 
L 284.848695 174.43298 
L 284.917075 172.170994 
L 271.856509 168.323052 
z
" style="fill:#1a057d;"/>
    <path clip-path="url(#pfd53dc4512)" d="M 284.848695 174.43298 
L 291.597749 167.780781 
L 304.698789 171.606197 
L 298.036935 178.33102 
z
" style="fill:#070448;"/>
    <path clip-path="url(#pfd53dc4512)" d="M 284.855185 174.218308 
L 298.044882 178.115594 
L 304.707373 171.392074 
L 291.604895 167.567407 
z
" style="fill:#0a0667;"/>
    <path clip-path="url(#pfd53dc4512)" d="M 165.791116 172.854386 
L 178.331428 176.744804 
L 186.118681 170.033136 
L 173.653475 166.215219 
z
" style="fill:#11056a;"/>
    <path clip-path="url(#pfd53dc4512)" d="M 271.803162 170.57712 
L 271.930329 165.203929 
L 285.011698 169.040869 
L 284.848695 174.43298 
z
" style="fill:#15023f;"/>
    <path clip-path="url(#pfd53dc4512)" d="M 198.736391 175.194243 
L 206.297214 168.527892 
L 218.949524 172.361429 
L 211.467294 179.100638 
z
" style="fill:#793832;"/>
    <path clip-path="url(#pfd53dc4512)" d="M 251.851153 173.395697 
L 252.150171 151.629494 
L 259.270099 145.130203 
L 258.898031 166.762758 
z
" style="fill:#720494;"/>
    <path clip-path="url(#pfd53dc4512)" d="M 251.851153 173.395697 
L 258.898031 166.762758 
L 259.28376 144.335964 
L 252.161151 150.830264 
z
" style="fill:#370245;"/>
    <path clip-path="url(#pfd53dc4512)" d="M 226.292478 165.747667 
L 226.331147 125.965335 
L 239.294562 129.625167 
L 239.002775 169.551023 
z
" style="fill:#521a35;"/>
    <path clip-path="url(#pfd53dc4512)" d="M 198.736391 175.194243 
L 206.297214 168.527892 
L 206.152071 152.376735 
L 198.528463 158.943651 
z
" style="fill:#2b0046;"/>
    <path clip-path="url(#pfd53dc4512)" d="M 231.739835 176.23678 
L 239.002775 169.551023 
L 251.851153 173.395697 
L 244.670417 180.154631 
z
" style="fill:#661e46;"/>
    <path clip-path="url(#pfd53dc4512)" d="M 264.839875 177.282368 
L 264.949415 171.876346 
L 271.930329 165.203929 
L 271.803162 170.57712 
z
" style="fill:#2c0485;"/>
    <path clip-path="url(#pfd53dc4512)" d="M 178.361455 178.049733 
L 186.143392 171.330164 
L 186.118681 170.033136 
L 178.331428 176.744804 
z
" style="fill:#09033a;"/>
    <path clip-path="url(#pfd53dc4512)" d="M 298.036935 178.33102 
L 304.698789 171.606197 
L 304.707373 171.392074 
L 298.044882 178.115594 
z
" style="fill:#050338;"/>
    <path clip-path="url(#pfd53dc4512)" d="M 239.002775 169.551023 
L 251.851153 173.395697 
L 252.161151 150.830264 
L 239.167102 147.065783 
z
" style="fill:#750593;"/>
    <path clip-path="url(#pfd53dc4512)" d="M 185.834882 155.137086 
L 198.528463 158.943651 
L 206.152071 152.376735 
L 193.536172 148.641349 
z
" style="fill:#4f0080;"/>
    <path clip-path="url(#pfd53dc4512)" d="M 218.949524 172.361429 
L 226.292478 165.747667 
L 226.329406 127.756177 
L 218.846712 134.132397 
z
" style="fill:#501837;"/>
    <path clip-path="url(#pfd53dc4512)" d="M 264.839875 177.282368 
L 271.803162 170.57712 
L 284.848695 174.43298 
L 277.971253 181.211726 
z
" style="fill:#1a0250;"/>
    <path clip-path="url(#pfd53dc4512)" d="M 239.167102 147.065783 
L 252.161151 150.830264 
L 259.28376 144.335964 
L 246.372965 140.641916 
z
" style="fill:#650480;"/>
    <path clip-path="url(#pfd53dc4512)" d="M 218.949524 172.361429 
L 218.841864 132.330023 
L 226.331147 125.965335 
L 226.292478 165.747667 
z
" style="fill:#ae386f;"/>
    <path clip-path="url(#pfd53dc4512)" d="M 186.143392 171.330164 
L 198.736391 175.194243 
L 198.528463 158.943651 
L 185.834882 155.137086 
z
" style="fill:#5b0094;"/>
    <path clip-path="url(#pfd53dc4512)" d="M 165.82912 174.154745 
L 178.361455 178.049733 
L 178.331428 176.744804 
L 165.791116 172.854386 
z
" style="fill:#13067a;"/>
    <path clip-path="url(#pfd53dc4512)" d="M 284.848695 174.43298 
L 298.036935 178.33102 
L 298.044882 178.115594 
L 284.855185 174.218308 
z
" style="fill:#0b0777;"/>
    <path clip-path="url(#pfd53dc4512)" d="M 165.82912 174.154745 
L 165.776846 172.366108 
L 178.320153 176.254808 
L 178.361455 178.049733 
z
" style="fill:#0a033a;"/>
    <path clip-path="url(#pfd53dc4512)" d="M 284.848695 174.43298 
L 284.859914 174.061866 
L 298.050673 177.958603 
L 298.036935 178.33102 
z
" style="fill:#050338;"/>
    <path clip-path="url(#pfd53dc4512)" d="M 178.361455 178.049733 
L 186.143392 171.330164 
L 198.736391 175.194243 
L 191.031582 181.987547 
z
" style="fill:#460359;"/>
    <path clip-path="url(#pfd53dc4512)" d="M 206.297214 168.527892 
L 218.949524 172.361429 
L 218.846712 134.132397 
L 205.954903 130.436271 
z
" style="fill:#a93274;"/>
    <path clip-path="url(#pfd53dc4512)" d="M 186.143392 171.330164 
L 185.722694 149.248513 
L 198.452845 153.033809 
L 198.736391 175.194243 
z
" style="fill:#360246;"/>
    <path clip-path="url(#pfd53dc4512)" d="M 211.467294 179.100638 
L 218.949524 172.361429 
L 231.739835 176.23678 
L 224.338378 183.050047 
z
" style="fill:#7e402c;"/>
    <path clip-path="url(#pfd53dc4512)" d="M 264.839875 177.282368 
L 271.803162 170.57712 
L 272.316961 148.867548 
L 265.28249 155.438463 
z
" style="fill:#360246;"/>
    <path clip-path="url(#pfd53dc4512)" d="M 264.949415 171.876346 
L 278.117107 175.786622 
L 285.011698 169.040869 
L 271.930329 165.203929 
z
" style="fill:#260473;"/>
    <path clip-path="url(#pfd53dc4512)" d="M 157.822766 180.928173 
L 157.762773 179.128624 
L 165.776846 172.366108 
L 165.82912 174.154745 
z
" style="fill:#16067b;"/>
    <path clip-path="url(#pfd53dc4512)" d="M 277.971253 181.211726 
L 277.981291 180.83835 
L 284.859914 174.061866 
L 284.848695 174.43298 
z
" style="fill:#0b0777;"/>
    <path clip-path="url(#pfd53dc4512)" d="M 239.002775 169.551023 
L 239.280499 131.549382 
L 252.375093 135.256921 
L 251.851153 173.395697 
z
" style="fill:#501837;"/>
    <path clip-path="url(#pfd53dc4512)" d="M 178.361455 178.049733 
L 177.850194 155.83137 
L 185.722694 149.248513 
L 186.143392 171.330164 
z
" style="fill:#730494;"/>
    <path clip-path="url(#pfd53dc4512)" d="M 244.670417 180.154631 
L 251.851153 173.395697 
L 264.839875 177.282368 
L 257.743589 184.115686 
z
" style="fill:#621a4a;"/>
    <path clip-path="url(#pfd53dc4512)" d="M 277.971253 181.211726 
L 284.848695 174.43298 
L 285.011698 169.040869 
L 278.117107 175.786622 
z
" style="fill:#15023f;"/>
    <path clip-path="url(#pfd53dc4512)" d="M 251.851153 173.395697 
L 264.839875 177.282368 
L 265.28249 155.438463 
L 252.150171 151.629494 
z
" style="fill:#720494;"/>
    <path clip-path="url(#pfd53dc4512)" d="M 157.822766 180.928173 
L 165.82912 174.154745 
L 178.361455 178.049733 
L 170.430723 184.897786 
z
" style="fill:#0d034a;"/>
    <path clip-path="url(#pfd53dc4512)" d="M 231.739835 176.23678 
L 231.881359 137.997156 
L 239.280499 131.549382 
L 239.002775 169.551023 
z
" style="fill:#a93274;"/>
    <path clip-path="url(#pfd53dc4512)" d="M 206.297214 168.527892 
L 205.827614 116.271803 
L 218.808475 119.914826 
L 218.949524 172.361429 
z
" style="fill:#5f2c27;"/>
    <path clip-path="url(#pfd53dc4512)" d="M 252.150171 151.629494 
L 265.28249 155.438463 
L 272.316961 148.867548 
L 259.270099 145.130203 
z
" style="fill:#630380;"/>
    <path clip-path="url(#pfd53dc4512)" d="M 277.971253 181.211726 
L 284.848695 174.43298 
L 298.036935 178.33102 
L 291.24765 185.184478 
z
" style="fill:#070448;"/>
    <path clip-path="url(#pfd53dc4512)" d="M 277.981291 180.83835 
L 291.260242 184.809788 
L 298.050673 177.958603 
L 284.859914 174.061866 
z
" style="fill:#0a0667;"/>
    <path clip-path="url(#pfd53dc4512)" d="M 231.739835 176.23678 
L 239.002775 169.551023 
L 239.294562 129.625167 
L 231.888526 136.060527 
z
" style="fill:#521a35;"/>
    <path clip-path="url(#pfd53dc4512)" d="M 157.762773 179.128624 
L 170.381832 183.091896 
L 178.320153 176.254808 
L 165.776846 172.366108 
z
" style="fill:#13056b;"/>
    <path clip-path="url(#pfd53dc4512)" d="M 264.839875 177.282368 
L 277.971253 181.211726 
L 278.117107 175.786622 
L 264.949415 171.876346 
z
" style="fill:#2c0485;"/>
    <path clip-path="url(#pfd53dc4512)" d="M 205.954903 130.436271 
L 218.846712 134.132397 
L 226.329406 127.756177 
L 213.51844 124.12963 
z
" style="fill:#922c65;"/>
    <path clip-path="url(#pfd53dc4512)" d="M 191.031582 181.987547 
L 198.736391 175.194243 
L 211.467294 179.100638 
L 203.841786 185.968896 
z
" style="fill:#855121;"/>
    <path clip-path="url(#pfd53dc4512)" d="M 198.736391 175.194243 
L 198.063537 122.607519 
L 205.827614 116.271803 
L 206.297214 168.527892 
z
" style="fill:#c95d53;"/>
    <path clip-path="url(#pfd53dc4512)" d="M 264.839875 177.282368 
L 265.060429 166.397585 
L 278.264928 170.288357 
L 277.971253 181.211726 
z
" style="fill:#200143;"/>
    <path clip-path="url(#pfd53dc4512)" d="M 218.949524 172.361429 
L 231.739835 176.23678 
L 231.888526 136.060527 
L 218.841864 132.330023 
z
" style="fill:#ae386f;"/>
    <path clip-path="url(#pfd53dc4512)" d="M 224.338378 183.050047 
L 231.739835 176.23678 
L 244.670417 180.154631 
L 237.351973 187.043183 
z
" style="fill:#7b3b30;"/>
    <path clip-path="url(#pfd53dc4512)" d="M 251.851153 173.395697 
L 252.342508 137.62887 
L 265.56722 141.386489 
L 264.839875 177.282368 
z
" style="fill:#4c143a;"/>
    <path clip-path="url(#pfd53dc4512)" d="M 170.430723 184.897786 
L 178.361455 178.049733 
L 178.320153 176.254808 
L 170.381832 183.091896 
z
" style="fill:#0a033a;"/>
    <path clip-path="url(#pfd53dc4512)" d="M 291.24765 185.184478 
L 298.036935 178.33102 
L 298.050673 177.958603 
L 291.260242 184.809788 
z
" style="fill:#050338;"/>
    <path clip-path="url(#pfd53dc4512)" d="M 191.031582 181.987547 
L 198.736391 175.194243 
L 198.452845 153.033809 
L 190.659153 159.689705 
z
" style="fill:#360246;"/>
    <path clip-path="url(#pfd53dc4512)" d="M 257.743589 184.115686 
L 257.927246 173.163951 
L 265.060429 166.397585 
L 264.839875 177.282368 
z
" style="fill:#44028e;"/>
    <path clip-path="url(#pfd53dc4512)" d="M 257.743589 184.115686 
L 264.839875 177.282368 
L 277.971253 181.211726 
L 270.961723 188.120663 
z
" style="fill:#290156;"/>
    <path clip-path="url(#pfd53dc4512)" d="M 244.670417 180.154631 
L 245.037041 144.163854 
L 252.342508 137.62887 
L 251.851153 173.395697 
z
" style="fill:#a22b7a;"/>
    <path clip-path="url(#pfd53dc4512)" d="M 157.822766 180.928173 
L 170.430723 184.897786 
L 170.381832 183.091896 
L 157.762773 179.128624 
z
" style="fill:#16067b;"/>
    <path clip-path="url(#pfd53dc4512)" d="M 157.822766 180.928173 
L 157.758761 179.008272 
L 170.378562 182.971119 
L 170.430723 184.897786 
z
" style="fill:#0b033b;"/>
    <path clip-path="url(#pfd53dc4512)" d="M 277.971253 181.211726 
L 291.24765 185.184478 
L 291.260242 184.809788 
L 277.981291 180.83835 
z
" style="fill:#0b0777;"/>
    <path clip-path="url(#pfd53dc4512)" d="M 277.971253 181.211726 
L 277.985215 180.69241 
L 291.265164 184.663334 
L 291.24765 185.184478 
z
" style="fill:#070339;"/>
    <path clip-path="url(#pfd53dc4512)" d="M 170.430723 184.897786 
L 178.361455 178.049733 
L 191.031582 181.987547 
L 183.178635 188.911464 
z
" style="fill:#4d0857;"/>
    <path clip-path="url(#pfd53dc4512)" d="M 244.670417 180.154631 
L 251.851153 173.395697 
L 252.375093 135.256921 
L 245.061359 141.776622 
z
" style="fill:#501837;"/>
    <path clip-path="url(#pfd53dc4512)" d="M 178.361455 178.049733 
L 191.031582 181.987547 
L 190.659153 159.689705 
L 177.850194 155.83137 
z
" style="fill:#730494;"/>
    <path clip-path="url(#pfd53dc4512)" d="M 218.949524 172.361429 
L 218.79674 115.551203 
L 231.950858 119.218393 
L 231.739835 176.23678 
z
" style="fill:#633223;"/>
    <path clip-path="url(#pfd53dc4512)" d="M 203.841786 185.968896 
L 211.467294 179.100638 
L 224.338378 183.050047 
L 216.794403 189.994506 
z
" style="fill:#876218;"/>
    <path clip-path="url(#pfd53dc4512)" d="M 177.850194 155.83137 
L 190.659153 159.689705 
L 198.452845 153.033809 
L 185.722694 149.248513 
z
" style="fill:#640480;"/>
    <path clip-path="url(#pfd53dc4512)" d="M 178.361455 178.049733 
L 177.772603 152.459425 
L 190.602628 156.30546 
L 191.031582 181.987547 
z
" style="fill:#3c0644;"/>
    <path clip-path="url(#pfd53dc4512)" d="M 149.662704 187.831639 
L 149.590156 185.899998 
L 157.758761 179.008272 
L 157.822766 180.928173 
z
" style="fill:#18057c;"/>
    <path clip-path="url(#pfd53dc4512)" d="M 270.961723 188.120663 
L 270.973977 187.598175 
L 277.985215 180.69241 
L 277.971253 181.211726 
z
" style="fill:#0e0678;"/>
    <path clip-path="url(#pfd53dc4512)" d="M 231.739835 176.23678 
L 244.670417 180.154631 
L 245.061359 141.776622 
L 231.881359 137.997156 
z
" style="fill:#a93274;"/>
    <path clip-path="url(#pfd53dc4512)" d="M 218.841864 132.330023 
L 231.888526 136.060527 
L 239.294562 129.625167 
L 226.331147 125.965335 
z
" style="fill:#973161;"/>
    <path clip-path="url(#pfd53dc4512)" d="M 211.467294 179.100638 
L 218.949524 172.361429 
L 218.808475 119.914826 
L 211.127124 126.321612 
z
" style="fill:#5f2c27;"/>
    <path clip-path="url(#pfd53dc4512)" d="M 237.351973 187.043183 
L 244.670417 180.154631 
L 257.743589 184.115686 
L 250.510457 191.080779 
z
" style="fill:#783534;"/>
    <path clip-path="url(#pfd53dc4512)" d="M 211.467294 179.100638 
L 211.098813 121.92915 
L 218.79674 115.551203 
L 218.949524 172.361429 
z
" style="fill:#d16b49;"/>
    <path clip-path="url(#pfd53dc4512)" d="M 170.430723 184.897786 
L 169.73361 159.148218 
L 177.772603 152.459425 
L 178.361455 178.049733 
z
" style="fill:#800d90;"/>
    <path clip-path="url(#pfd53dc4512)" d="M 149.662704 187.831639 
L 157.822766 180.928173 
L 170.430723 184.897786 
L 162.346885 191.878042 
z
" style="fill:#0e034b;"/>
    <path clip-path="url(#pfd53dc4512)" d="M 198.736391 175.194243 
L 211.467294 179.100638 
L 211.127124 126.321612 
L 198.063537 122.607519 
z
" style="fill:#c95d53;"/>
    <path clip-path="url(#pfd53dc4512)" d="M 257.927246 173.163951 
L 271.219481 177.130014 
L 278.264928 170.288357 
L 265.060429 166.397585 
z
" style="fill:#3b027b;"/>
    <path clip-path="url(#pfd53dc4512)" d="M 270.961723 188.120663 
L 277.971253 181.211726 
L 278.264928 170.288357 
L 271.219481 177.130014 
z
" style="fill:#200143;"/>
    <path clip-path="url(#pfd53dc4512)" d="M 270.961723 188.120663 
L 277.971253 181.211726 
L 291.24765 185.184478 
L 284.327244 192.170297 
z
" style="fill:#090449;"/>
    <path clip-path="url(#pfd53dc4512)" d="M 270.973977 187.598175 
L 284.343099 191.645965 
L 291.265164 184.663334 
L 277.985215 180.69241 
z
" style="fill:#0c0668;"/>
    <path clip-path="url(#pfd53dc4512)" d="M 149.590156 185.899998 
L 162.286323 189.939579 
L 170.378562 182.971119 
L 157.758761 179.008272 
z
" style="fill:#15056c;"/>
    <path clip-path="url(#pfd53dc4512)" d="M 257.743589 184.115686 
L 264.839875 177.282368 
L 265.56722 141.386489 
L 258.349328 147.994694 
z
" style="fill:#4c143a;"/>
    <path clip-path="url(#pfd53dc4512)" d="M 183.178635 188.911464 
L 191.031582 181.987547 
L 203.841786 185.968896 
L 196.068846 192.969946 
z
" style="fill:#876915;"/>
    <path clip-path="url(#pfd53dc4512)" d="M 231.739835 176.23678 
L 231.940277 122.07733 
L 245.224139 125.796811 
L 244.670417 180.154631 
z
" style="fill:#602e26;"/>
    <path clip-path="url(#pfd53dc4512)" d="M 257.743589 184.115686 
L 270.961723 188.120663 
L 271.219481 177.130014 
L 257.927246 173.163951 
z
" style="fill:#44028e;"/>
    <path clip-path="url(#pfd53dc4512)" d="M 231.881359 137.997156 
L 245.061359 141.776622 
L 252.375093 135.256921 
L 239.280499 131.549382 
z
" style="fill:#922c65;"/>
    <path clip-path="url(#pfd53dc4512)" d="M 216.794403 189.994506 
L 224.338378 183.050047 
L 237.351973 187.043183 
L 229.891821 194.06512 
z
" style="fill:#875c1b;"/>
    <path clip-path="url(#pfd53dc4512)" d="M 244.670417 180.154631 
L 257.743589 184.115686 
L 258.349328 147.994694 
L 245.037041 144.163854 
z
" style="fill:#a22b7a;"/>
    <path clip-path="url(#pfd53dc4512)" d="M 162.346885 191.878042 
L 170.430723 184.897786 
L 170.378562 182.971119 
L 162.286323 189.939579 
z
" style="fill:#0b033b;"/>
    <path clip-path="url(#pfd53dc4512)" d="M 284.327244 192.170297 
L 291.24765 185.184478 
L 291.265164 184.663334 
L 284.343099 191.645965 
z
" style="fill:#070339;"/>
    <path clip-path="url(#pfd53dc4512)" d="M 198.736391 175.194243 
L 197.901183 109.918773 
L 211.045029 113.584189 
L 211.467294 179.100638 
z
" style="fill:#683f1a;"/>
    <path clip-path="url(#pfd53dc4512)" d="M 257.743589 184.115686 
L 258.030786 166.989729 
L 271.364804 170.93356 
L 270.961723 188.120663 
z
" style="fill:#2c0046;"/>
    <path clip-path="url(#pfd53dc4512)" d="M 224.338378 183.050047 
L 224.338378 128.546334 
L 231.940277 122.07733 
L 231.739835 176.23678 
z
" style="fill:#cc6250;"/>
    <path clip-path="url(#pfd53dc4512)" d="M 250.510457 191.080779 
L 257.743589 184.115686 
L 270.961723 188.120663 
L 263.816264 195.163579 
z
" style="fill:#39005a;"/>
    <path clip-path="url(#pfd53dc4512)" d="M 224.338378 183.050047 
L 231.739835 176.23678 
L 231.950858 119.218393 
L 224.338378 125.668441 
z
" style="fill:#633223;"/>
    <path clip-path="url(#pfd53dc4512)" d="M 183.178635 188.911464 
L 191.031582 181.987547 
L 190.602628 156.30546 
L 182.64338 163.069315 
z
" style="fill:#3c0644;"/>
    <path clip-path="url(#pfd53dc4512)" d="M 149.662704 187.831639 
L 162.346885 191.878042 
L 162.286323 189.939579 
L 149.590156 185.899998 
z
" style="fill:#18057c;"/>
    <path clip-path="url(#pfd53dc4512)" d="M 149.662704 187.831639 
L 149.588247 185.84918 
L 162.28473 189.888581 
L 162.346885 191.878042 
z
" style="fill:#0b033b;"/>
    <path clip-path="url(#pfd53dc4512)" d="M 270.961723 188.120663 
L 284.327244 192.170297 
L 284.343099 191.645965 
L 270.973977 187.598175 
z
" style="fill:#0e0678;"/>
    <path clip-path="url(#pfd53dc4512)" d="M 270.961723 188.120663 
L 270.980493 187.320313 
L 284.35153 191.367123 
L 284.327244 192.170297 
z
" style="fill:#070339;"/>
    <path clip-path="url(#pfd53dc4512)" d="M 191.031582 181.987547 
L 189.934335 116.293852 
L 197.901183 109.918773 
L 198.736391 175.194243 
z
" style="fill:#dc8637;"/>
    <path clip-path="url(#pfd53dc4512)" d="M 162.346885 191.878042 
L 170.430723 184.897786 
L 183.178635 188.911464 
L 175.173234 195.969799 
z
" style="fill:#530c54;"/>
    <path clip-path="url(#pfd53dc4512)" d="M 250.510457 191.080779 
L 250.737657 173.848723 
L 258.030786 166.989729 
L 257.743589 184.115686 
z
" style="fill:#5e0094;"/>
    <path clip-path="url(#pfd53dc4512)" d="M 211.467294 179.100638 
L 224.338378 183.050047 
L 224.338378 125.668441 
L 211.098813 121.92915 
z
" style="fill:#d16b49;"/>
    <path clip-path="url(#pfd53dc4512)" d="M 244.670417 180.154631 
L 245.192634 128.889602 
L 258.606436 132.663009 
L 257.743589 184.115686 
z
" style="fill:#5e2a29;"/>
    <path clip-path="url(#pfd53dc4512)" d="M 196.068846 192.969946 
L 203.841786 185.968896 
L 216.794403 189.994506 
L 209.103753 197.073984 
z
" style="fill:#847914;"/>
    <path clip-path="url(#pfd53dc4512)" d="M 170.430723 184.897786 
L 183.178635 188.911464 
L 182.64338 163.069315 
L 169.73361 159.148218 
z
" style="fill:#800d90;"/>
    <path clip-path="url(#pfd53dc4512)" d="M 245.037041 144.163854 
L 258.349328 147.994694 
L 265.56722 141.386489 
L 252.342508 137.62887 
z
" style="fill:#8d256a;"/>
    <path clip-path="url(#pfd53dc4512)" d="M 141.344465 194.868925 
L 141.260911 192.874316 
L 149.588247 185.84918 
L 149.662704 187.831639 
z
" style="fill:#18057c;"/>
    <path clip-path="url(#pfd53dc4512)" d="M 263.816264 195.163579 
L 263.832311 194.358329 
L 270.980493 187.320313 
L 270.961723 188.120663 
z
" style="fill:#0e0678;"/>
    <path clip-path="url(#pfd53dc4512)" d="M 170.430723 184.897786 
L 169.65877 156.383833 
L 182.585913 160.294771 
L 183.178635 188.911464 
z
" style="fill:#410a42;"/>
    <path clip-path="url(#pfd53dc4512)" d="M 198.063537 122.607519 
L 211.127124 126.321612 
L 218.808475 119.914826 
L 205.827614 116.271803 
z
" style="fill:#af5048;"/>
    <path clip-path="url(#pfd53dc4512)" d="M 229.891821 194.06512 
L 237.351973 187.043183 
L 250.510457 191.080779 
L 243.136481 198.181496 
z
" style="fill:#824a26;"/>
    <path clip-path="url(#pfd53dc4512)" d="M 169.73361 159.148218 
L 182.64338 163.069315 
L 190.602628 156.30546 
L 177.772603 152.459425 
z
" style="fill:#6f0b7d;"/>
    <path clip-path="url(#pfd53dc4512)" d="M 237.351973 187.043183 
L 237.689508 135.452509 
L 245.192634 128.889602 
L 244.670417 180.154631 
z
" style="fill:#c75856;"/>
    <path clip-path="url(#pfd53dc4512)" d="M 141.344465 194.868925 
L 149.662704 187.831639 
L 162.346885 191.878042 
L 154.105465 198.994368 
z
" style="fill:#0e034b;"/>
    <path clip-path="url(#pfd53dc4512)" d="M 237.351973 187.043183 
L 244.670417 180.154631 
L 245.224139 125.796811 
L 237.709876 132.339258 
z
" style="fill:#602e26;"/>
    <path clip-path="url(#pfd53dc4512)" d="M 162.346885 191.878042 
L 161.45048 163.18581 
L 169.65877 156.383833 
L 170.430723 184.897786 
z
" style="fill:#8a148c;"/>
    <path clip-path="url(#pfd53dc4512)" d="M 263.816264 195.163579 
L 270.961723 188.120663 
L 284.327244 192.170297 
L 277.271882 199.292348 
z
" style="fill:#090449;"/>
    <path clip-path="url(#pfd53dc4512)" d="M 263.832311 194.358329 
L 277.29352 198.484251 
L 284.35153 191.367123 
L 270.980493 187.320313 
z
" style="fill:#0c0668;"/>
    <path clip-path="url(#pfd53dc4512)" d="M 141.260911 192.874316 
L 154.03436 196.9927 
L 162.28473 189.888581 
L 149.588247 185.84918 
z
" style="fill:#15056c;"/>
    <path clip-path="url(#pfd53dc4512)" d="M 211.467294 179.100638 
L 210.996744 106.092618 
L 224.338378 109.770507 
L 224.338378 183.050047 
z
" style="fill:#6a4d13;"/>
    <path clip-path="url(#pfd53dc4512)" d="M 203.841786 185.968896 
L 211.467294 179.100638 
L 211.045029 113.584189 
L 203.162697 120.031934 
z
" style="fill:#683f1a;"/>
    <path clip-path="url(#pfd53dc4512)" d="M 175.173234 195.969799 
L 183.178635 188.911464 
L 196.068846 192.969946 
L 188.144156 200.107676 
z
" style="fill:#857613;"/>
    <path clip-path="url(#pfd53dc4512)" d="M 263.816264 195.163579 
L 270.961723 188.120663 
L 271.364804 170.93356 
L 264.160907 177.869859 
z
" style="fill:#2c0046;"/>
    <path clip-path="url(#pfd53dc4512)" d="M 224.338378 183.050047 
L 237.351973 187.043183 
L 237.709876 132.339258 
L 224.338378 128.546334 
z
" style="fill:#cc6250;"/>
    <path clip-path="url(#pfd53dc4512)" d="M 209.103753 197.073984 
L 216.794403 189.994506 
L 229.891821 194.06512 
L 222.285805 201.224351 
z
" style="fill:#857613;"/>
    <path clip-path="url(#pfd53dc4512)" d="M 203.841786 185.968896 
L 203.085019 112.489639 
L 210.996744 106.092618 
L 211.467294 179.100638 
z
" style="fill:#e0a327;"/>
    <path clip-path="url(#pfd53dc4512)" d="M 154.105465 198.994368 
L 162.346885 191.878042 
L 162.28473 189.888581 
L 154.03436 196.9927 
z
" style="fill:#0b033b;"/>
    <path clip-path="url(#pfd53dc4512)" d="M 277.271882 199.292348 
L 284.327244 192.170297 
L 284.35153 191.367123 
L 277.29352 198.484251 
z
" style="fill:#070339;"/>
    <path clip-path="url(#pfd53dc4512)" d="M 191.031582 181.987547 
L 203.841786 185.968896 
L 203.162697 120.031934 
L 189.934335 116.293852 
z
" style="fill:#dc8637;"/>
    <path clip-path="url(#pfd53dc4512)" d="M 250.737657 173.848723 
L 264.160907 177.869859 
L 271.364804 170.93356 
L 258.030786 166.989729 
z
" style="fill:#520081;"/>
    <path clip-path="url(#pfd53dc4512)" d="M 250.510457 191.080779 
L 263.816264 195.163579 
L 264.160907 177.869859 
L 250.737657 173.848723 
z
" style="fill:#5e0094;"/>
    <path clip-path="url(#pfd53dc4512)" d="M 243.136481 198.181496 
L 250.510457 191.080779 
L 263.816264 195.163579 
L 256.530882 202.34441 
z
" style="fill:#3f015a;"/>
    <path clip-path="url(#pfd53dc4512)" d="M 250.510457 191.080779 
L 250.772313 171.220232 
L 264.21348 175.231814 
L 263.816264 195.163579 
z
" style="fill:#310046;"/>
    <path clip-path="url(#pfd53dc4512)" d="M 250.510457 191.080779 
L 257.743589 184.115686 
L 258.606436 132.663009 
L 251.193163 139.300736 
z
" style="fill:#5e2a29;"/>
    <path clip-path="url(#pfd53dc4512)" d="M 141.344465 194.868925 
L 154.105465 198.994368 
L 154.03436 196.9927 
L 141.260911 192.874316 
z
" style="fill:#18057c;"/>
    <path clip-path="url(#pfd53dc4512)" d="M 263.816264 195.163579 
L 277.271882 199.292348 
L 277.29352 198.484251 
L 263.832311 194.358329 
z
" style="fill:#0e0678;"/>
    <path clip-path="url(#pfd53dc4512)" d="M 263.816264 195.163579 
L 263.843425 193.800667 
L 277.308506 197.924615 
L 277.271882 199.292348 
z
" style="fill:#09033a;"/>
    <path clip-path="url(#pfd53dc4512)" d="M 154.105465 198.994368 
L 162.346885 191.878042 
L 175.173234 195.969799 
L 167.010898 203.166503 
z
" style="fill:#4e0857;"/>
    <path clip-path="url(#pfd53dc4512)" d="M 175.173234 195.969799 
L 183.178635 188.911464 
L 182.585913 160.294771 
L 174.458258 167.173936 
z
" style="fill:#410a42;"/>
    <path clip-path="url(#pfd53dc4512)" d="M 191.031582 181.987547 
L 189.763349 106.056724 
L 203.056852 109.754734 
L 203.841786 185.968896 
z
" style="fill:#6a5210;"/>
    <path clip-path="url(#pfd53dc4512)" d="M 224.338378 183.050047 
L 224.338378 112.324807 
L 237.816418 116.054944 
L 237.351973 187.043183 
z
" style="fill:#694815;"/>
    <path clip-path="url(#pfd53dc4512)" d="M 211.098813 121.92915 
L 224.338378 125.668441 
L 231.950858 119.218393 
L 218.79674 115.551203 
z
" style="fill:#b55c40;"/>
    <path clip-path="url(#pfd53dc4512)" d="M 243.136481 198.181496 
L 243.326409 178.197376 
L 250.772313 171.220232 
L 250.510457 191.080779 
z
" style="fill:#690195;"/>
    <path clip-path="url(#pfd53dc4512)" d="M 237.351973 187.043183 
L 250.510457 191.080779 
L 251.193163 139.300736 
L 237.689508 135.452509 
z
" style="fill:#c75856;"/>
    <path clip-path="url(#pfd53dc4512)" d="M 188.144156 200.107676 
L 196.068846 192.969946 
L 209.103753 197.073984 
L 201.262108 204.292457 
z
" style="fill:#808512;"/>
    <path clip-path="url(#pfd53dc4512)" d="M 162.346885 191.878042 
L 161.523324 165.51739 
L 174.516362 169.514111 
L 175.173234 195.969799 
z
" style="fill:#3d0644;"/>
    <path clip-path="url(#pfd53dc4512)" d="M 256.530882 202.34441 
L 256.553247 200.973133 
L 263.843425 193.800667 
L 263.816264 195.163579 
z
" style="fill:#13067a;"/>
    <path clip-path="url(#pfd53dc4512)" d="M 162.346885 191.878042 
L 175.173234 195.969799 
L 174.458258 167.173936 
L 161.45048 163.18581 
z
" style="fill:#8a148c;"/>
    <path clip-path="url(#pfd53dc4512)" d="M 183.178635 188.911464 
L 181.595736 112.488891 
L 189.763349 106.056724 
L 191.031582 181.987547 
z
" style="fill:#e0ae23;"/>
    <path clip-path="url(#pfd53dc4512)" d="M 216.794403 189.994506 
L 216.52403 118.812826 
L 224.338378 112.324807 
L 224.338378 183.050047 
z
" style="fill:#df982d;"/>
    <path clip-path="url(#pfd53dc4512)" d="M 222.285805 201.224351 
L 229.891821 194.06512 
L 243.136481 198.181496 
L 235.617509 205.421836 
z
" style="fill:#875a1c;"/>
    <path clip-path="url(#pfd53dc4512)" d="M 216.794403 189.994506 
L 224.338378 183.050047 
L 224.338378 109.770507 
L 216.514261 116.241131 
z
" style="fill:#6a4d13;"/>
    <path clip-path="url(#pfd53dc4512)" d="M 154.105465 198.994368 
L 153.1632 172.468813 
L 161.523324 165.51739 
L 162.346885 191.878042 
z
" style="fill:#810e90;"/>
    <path clip-path="url(#pfd53dc4512)" d="M 237.351973 187.043183 
L 237.760425 124.613145 
L 251.336626 128.419684 
L 250.510457 191.080779 
z
" style="fill:#663a1e;"/>
    <path clip-path="url(#pfd53dc4512)" d="M 256.530882 202.34441 
L 263.816264 195.163579 
L 277.271882 199.292348 
L 270.077576 206.554656 
z
" style="fill:#0c044a;"/>
    <path clip-path="url(#pfd53dc4512)" d="M 161.45048 163.18581 
L 174.458258 167.173936 
L 182.585913 160.294771 
L 169.65877 156.383833 
z
" style="fill:#771279;"/>
    <path clip-path="url(#pfd53dc4512)" d="M 224.338378 128.546334 
L 237.709876 132.339258 
L 245.224139 125.796811 
L 231.940277 122.07733 
z
" style="fill:#b15545;"/>
    <path clip-path="url(#pfd53dc4512)" d="M 256.553247 200.973133 
L 270.109534 205.17852 
L 277.308506 197.924615 
L 263.843425 193.800667 
z
" style="fill:#11056a;"/>
    <path clip-path="url(#pfd53dc4512)" d="M 203.841786 185.968896 
L 216.794403 189.994506 
L 216.514261 116.241131 
L 203.085019 112.489639 
z
" style="fill:#e0a327;"/>
    <path clip-path="url(#pfd53dc4512)" d="M 167.010898 203.166503 
L 175.173234 195.969799 
L 188.144156 200.107676 
L 180.063228 207.386128 
z
" style="fill:#876616;"/>
    <path clip-path="url(#pfd53dc4512)" d="M 229.891821 194.06512 
L 230.067865 131.234098 
L 237.760425 124.613145 
L 237.351973 187.043183 
z
" style="fill:#d87a3f;"/>
    <path clip-path="url(#pfd53dc4512)" d="M 256.530882 202.34441 
L 263.816264 195.163579 
L 264.21348 175.231814 
L 256.857998 182.288476 
z
" style="fill:#310046;"/>
    <path clip-path="url(#pfd53dc4512)" d="M 201.262108 204.292457 
L 209.103753 197.073984 
L 222.285805 201.224351 
L 214.529606 208.524945 
z
" style="fill:#847914;"/>
    <path clip-path="url(#pfd53dc4512)" d="M 203.841786 185.968896 
L 202.9887 103.137468 
L 216.478598 106.851899 
L 216.794403 189.994506 
z
" style="fill:#675e10;"/>
    <path clip-path="url(#pfd53dc4512)" d="M 270.077576 206.554656 
L 277.271882 199.292348 
L 277.308506 197.924615 
L 270.109534 205.17852 
z
" style="fill:#09033a;"/>
    <path clip-path="url(#pfd53dc4512)" d="M 196.068846 192.969946 
L 203.841786 185.968896 
L 203.056852 109.754734 
L 194.97537 116.261321 
z
" style="fill:#6a5210;"/>
    <path clip-path="url(#pfd53dc4512)" d="M 229.891821 194.06512 
L 237.351973 187.043183 
L 237.816418 116.054944 
L 230.092007 122.617951 
z
" style="fill:#694815;"/>
    <path clip-path="url(#pfd53dc4512)" d="M 235.617509 205.421836 
L 243.136481 198.181496 
L 256.530882 202.34441 
L 249.101427 209.667246 
z
" style="fill:#460359;"/>
    <path clip-path="url(#pfd53dc4512)" d="M 243.136481 198.181496 
L 256.530882 202.34441 
L 256.857998 182.288476 
L 243.326409 178.197376 
z
" style="fill:#690195;"/>
    <path clip-path="url(#pfd53dc4512)" d="M 243.326409 178.197376 
L 256.857998 182.288476 
L 264.21348 175.231814 
L 250.772313 171.220232 
z
" style="fill:#5b0181;"/>
    <path clip-path="url(#pfd53dc4512)" d="M 189.934335 116.293852 
L 203.162697 120.031934 
L 211.045029 113.584189 
L 197.901183 109.918773 
z
" style="fill:#bf7530;"/>
    <path clip-path="url(#pfd53dc4512)" d="M 237.689508 135.452509 
L 251.193163 139.300736 
L 258.606436 132.663009 
L 245.192634 128.889602 
z
" style="fill:#ac4d4b;"/>
    <path clip-path="url(#pfd53dc4512)" d="M 167.010898 203.166503 
L 175.173234 195.969799 
L 174.516362 169.514111 
L 166.237364 176.545108 
z
" style="fill:#3d0644;"/>
    <path clip-path="url(#pfd53dc4512)" d="M 243.136481 198.181496 
L 243.357206 174.956945 
L 256.911043 179.036184 
L 256.530882 202.34441 
z
" style="fill:#370245;"/>
    <path clip-path="url(#pfd53dc4512)" d="M 196.068846 192.969946 
L 194.880391 109.598442 
L 202.9887 103.137468 
L 203.841786 185.968896 
z
" style="fill:#dbc821;"/>
    <path clip-path="url(#pfd53dc4512)" d="M 256.530882 202.34441 
L 270.077576 206.554656 
L 270.109534 205.17852 
L 256.553247 200.973133 
z
" style="fill:#13067a;"/>
    <path clip-path="url(#pfd53dc4512)" d="M 256.530882 202.34441 
L 256.556415 200.778945 
L 270.114059 204.983643 
L 270.077576 206.554656 
z
" style="fill:#0a033a;"/>
    <path clip-path="url(#pfd53dc4512)" d="M 183.178635 188.911464 
L 196.068846 192.969946 
L 194.97537 116.261321 
L 181.595736 112.488891 
z
" style="fill:#e0ae23;"/>
    <path clip-path="url(#pfd53dc4512)" d="M 216.794403 189.994506 
L 229.891821 194.06512 
L 230.092007 122.617951 
L 216.52403 118.812826 
z
" style="fill:#df982d;"/>
    <path clip-path="url(#pfd53dc4512)" d="M 180.063228 207.386128 
L 188.144156 200.107676 
L 201.262108 204.292457 
L 193.264978 211.654059 
z
" style="fill:#866e14;"/>
    <path clip-path="url(#pfd53dc4512)" d="M 183.178635 188.911464 
L 181.484861 107.13585 
L 194.898759 110.887009 
L 196.068846 192.969946 
z
" style="fill:#685c0f;"/>
    <path clip-path="url(#pfd53dc4512)" d="M 154.105465 198.994368 
L 167.010898 203.166503 
L 166.237364 176.545108 
L 153.1632 172.468813 
z
" style="fill:#810e90;"/>
    <path clip-path="url(#pfd53dc4512)" d="M 235.617509 205.421836 
L 235.751264 182.052102 
L 243.357206 174.956945 
L 243.136481 198.181496 
z
" style="fill:#750593;"/>
    <path clip-path="url(#pfd53dc4512)" d="M 243.136481 198.181496 
L 250.510457 191.080779 
L 251.336626 128.419684 
L 243.73584 135.117282 
z
" style="fill:#663a1e;"/>
    <path clip-path="url(#pfd53dc4512)" d="M 249.101427 209.667246 
L 249.121262 208.092155 
L 256.556415 200.778945 
L 256.530882 202.34441 
z
" style="fill:#16067b;"/>
    <path clip-path="url(#pfd53dc4512)" d="M 214.529606 208.524945 
L 222.285805 201.224351 
L 235.617509 205.421836 
L 227.94922 212.80596 
z
" style="fill:#867113;"/>
    <path clip-path="url(#pfd53dc4512)" d="M 216.794403 189.994506 
L 216.482803 107.959063 
L 230.122538 111.721191 
L 229.891821 194.06512 
z
" style="fill:#685c0f;"/>
    <path clip-path="url(#pfd53dc4512)" d="M 153.1632 172.468813 
L 166.237364 176.545108 
L 174.516362 169.514111 
L 161.523324 165.51739 
z
" style="fill:#700c7d;"/>
    <path clip-path="url(#pfd53dc4512)" d="M 175.173234 195.969799 
L 173.129574 113.660812 
L 181.484861 107.13585 
L 183.178635 188.911464 
z
" style="fill:#dcc420;"/>
    <path clip-path="url(#pfd53dc4512)" d="M 229.891821 194.06512 
L 243.136481 198.181496 
L 243.73584 135.117282 
L 230.067865 131.234098 
z
" style="fill:#d87a3f;"/>
    <path clip-path="url(#pfd53dc4512)" d="M 249.101427 209.667246 
L 256.530882 202.34441 
L 270.077576 206.554656 
L 262.740181 213.961405 
z
" style="fill:#0d034a;"/>
    <path clip-path="url(#pfd53dc4512)" d="M 209.103753 197.073984 
L 208.468122 114.503149 
L 216.482803 107.959063 
L 216.794403 189.994506 
z
" style="fill:#dcc420;"/>
    <path clip-path="url(#pfd53dc4512)" d="M 249.121262 208.092155 
L 262.771117 212.380724 
L 270.114059 204.983643 
L 256.556415 200.778945 
z
" style="fill:#13056b;"/>
    <path clip-path="url(#pfd53dc4512)" d="M 209.103753 197.073984 
L 216.794403 189.994506 
L 216.478598 106.851899 
L 208.45954 113.388306 
z
" style="fill:#675e10;"/>
    <path clip-path="url(#pfd53dc4512)" d="M 229.891821 194.06512 
L 230.089928 123.3598 
L 243.810969 127.212175 
L 243.136481 198.181496 
z
" style="fill:#694716;"/>
    <path clip-path="url(#pfd53dc4512)" d="M 193.264978 211.654059 
L 201.262108 204.292457 
L 214.529606 208.524945 
L 206.61873 215.971129 
z
" style="fill:#876d14;"/>
    <path clip-path="url(#pfd53dc4512)" d="M 249.101427 209.667246 
L 256.530882 202.34441 
L 256.911043 179.036184 
L 249.39678 186.213145 
z
" style="fill:#370245;"/>
    <path clip-path="url(#pfd53dc4512)" d="M 196.068846 192.969946 
L 209.103753 197.073984 
L 208.45954 113.388306 
L 194.880391 109.598442 
z
" style="fill:#dbc821;"/>
    <path clip-path="url(#pfd53dc4512)" d="M 262.740181 213.961405 
L 270.077576 206.554656 
L 270.114059 204.983643 
L 262.771117 212.380724 
z
" style="fill:#0a033a;"/>
    <path clip-path="url(#pfd53dc4512)" d="M 222.285805 201.224351 
L 222.211842 130.060872 
L 230.089928 123.3598 
L 229.891821 194.06512 
z
" style="fill:#df962e;"/>
    <path clip-path="url(#pfd53dc4512)" d="M 203.085019 112.489639 
L 216.514261 116.241131 
L 224.338378 109.770507 
L 210.996744 106.092618 
z
" style="fill:#c28d22;"/>
    <path clip-path="url(#pfd53dc4512)" d="M 227.94922 212.80596 
L 235.617509 205.421836 
L 249.101427 209.667246 
L 241.523583 217.136342 
z
" style="fill:#4d0857;"/>
    <path clip-path="url(#pfd53dc4512)" d="M 196.068846 192.969946 
L 194.812981 104.869564 
L 208.422991 108.640423 
L 209.103753 197.073984 
z
" style="fill:#64680e;"/>
    <path clip-path="url(#pfd53dc4512)" d="M 188.144156 200.107676 
L 196.068846 192.969946 
L 194.898759 110.887009 
L 186.630828 117.488429 
z
" style="fill:#685c0f;"/>
    <path clip-path="url(#pfd53dc4512)" d="M 235.617509 205.421836 
L 249.101427 209.667246 
L 249.39678 186.213145 
L 235.751264 182.052102 
z
" style="fill:#750593;"/>
    <path clip-path="url(#pfd53dc4512)" d="M 249.101427 209.667246 
L 262.740181 213.961405 
L 262.771117 212.380724 
L 249.121262 208.092155 
z
" style="fill:#16067b;"/>
    <path clip-path="url(#pfd53dc4512)" d="M 249.101427 209.667246 
L 249.123391 207.923043 
L 262.774438 212.21101 
L 262.740181 213.961405 
z
" style="fill:#0a033a;"/>
    <path clip-path="url(#pfd53dc4512)" d="M 175.173234 195.969799 
L 173.292252 120.212713 
L 186.751317 124.066446 
L 188.144156 200.107676 
z
" style="fill:#6a4f11;"/>
    <path clip-path="url(#pfd53dc4512)" d="M 235.617509 205.421836 
L 235.767828 179.158188 
L 249.433357 183.308562 
L 249.101427 209.667246 
z
" style="fill:#3c0644;"/>
    <path clip-path="url(#pfd53dc4512)" d="M 235.751264 182.052102 
L 249.39678 186.213145 
L 256.911043 179.036184 
L 243.357206 174.956945 
z
" style="fill:#650480;"/>
    <path clip-path="url(#pfd53dc4512)" d="M 188.144156 200.107676 
L 186.519839 111.429039 
L 194.812981 104.869564 
L 196.068846 192.969946 
z
" style="fill:#d4dc1e;"/>
    <path clip-path="url(#pfd53dc4512)" d="M 222.285805 201.224351 
L 229.891821 194.06512 
L 230.122538 111.721191 
L 222.199663 118.342087 
z
" style="fill:#685c0f;"/>
    <path clip-path="url(#pfd53dc4512)" d="M 175.173234 195.969799 
L 188.144156 200.107676 
L 186.630828 117.488429 
L 173.129574 113.660812 
z
" style="fill:#dcc420;"/>
    <path clip-path="url(#pfd53dc4512)" d="M 241.523583 217.136342 
L 241.538978 215.381396 
L 249.123391 207.923043 
L 249.101427 209.667246 
z
" style="fill:#16067b;"/>
    <path clip-path="url(#pfd53dc4512)" d="M 167.010898 203.166503 
L 164.795308 126.916296 
L 173.292252 120.212713 
L 175.173234 195.969799 
z
" style="fill:#e0a825;"/>
    <path clip-path="url(#pfd53dc4512)" d="M 227.94922 212.80596 
L 227.997827 186.377421 
L 235.767828 179.158188 
L 235.617509 205.421836 
z
" style="fill:#800d90;"/>
    <path clip-path="url(#pfd53dc4512)" d="M 206.61873 215.971129 
L 214.529606 208.524945 
L 227.94922 212.80596 
L 220.127123 220.338193 
z
" style="fill:#875c1b;"/>
    <path clip-path="url(#pfd53dc4512)" d="M 216.52403 118.812826 
L 230.092007 122.617951 
L 237.816418 116.054944 
L 224.338378 112.324807 
z
" style="fill:#c28427;"/>
    <path clip-path="url(#pfd53dc4512)" d="M 209.103753 197.073984 
L 222.285805 201.224351 
L 222.199663 118.342087 
L 208.468122 114.503149 
z
" style="fill:#dcc420;"/>
    <path clip-path="url(#pfd53dc4512)" d="M 209.103753 197.073984 
L 208.46083 113.555802 
L 222.198674 117.39094 
L 222.285805 201.224351 
z
" style="fill:#675e10;"/>
    <path clip-path="url(#pfd53dc4512)" d="M 235.617509 205.421836 
L 243.136481 198.181496 
L 243.810969 127.212175 
L 236.026334 133.991911 
z
" style="fill:#694716;"/>
    <path clip-path="url(#pfd53dc4512)" d="M 181.595736 112.488891 
L 194.97537 116.261321 
L 203.056852 109.754734 
L 189.763349 106.056724 
z
" style="fill:#c2971e;"/>
    <path clip-path="url(#pfd53dc4512)" d="M 241.523583 217.136342 
L 249.101427 209.667246 
L 262.740181 213.961405 
L 255.255385 221.516949 
z
" style="fill:#0d034a;"/>
    <path clip-path="url(#pfd53dc4512)" d="M 230.067865 131.234098 
L 243.73584 135.117282 
L 251.336626 128.419684 
L 237.760425 124.613145 
z
" style="fill:#bc6a36;"/>
    <path clip-path="url(#pfd53dc4512)" d="M 241.538978 215.381396 
L 255.283243 219.755763 
L 262.774438 212.21101 
L 249.123391 207.923043 
z
" style="fill:#13056b;"/>
    <path clip-path="url(#pfd53dc4512)" d="M 201.262108 204.292457 
L 200.278289 120.227192 
L 208.46083 113.555802 
L 209.103753 197.073984 
z
" style="fill:#dbc821;"/>
    <path clip-path="url(#pfd53dc4512)" d="M 222.285805 201.224351 
L 235.617509 205.421836 
L 236.026334 133.991911 
L 222.211842 130.060872 
z
" style="fill:#df962e;"/>
    <path clip-path="url(#pfd53dc4512)" d="M 188.144156 200.107676 
L 186.688878 120.657639 
L 200.328799 124.54316 
L 201.262108 204.292457 
z
" style="fill:#69560f;"/>
    <path clip-path="url(#pfd53dc4512)" d="M 201.262108 204.292457 
L 209.103753 197.073984 
L 208.422991 108.640423 
L 200.220362 115.277443 
z
" style="fill:#64680e;"/>
    <path clip-path="url(#pfd53dc4512)" d="M 255.255385 221.516949 
L 262.740181 213.961405 
L 262.774438 212.21101 
L 255.283243 219.755763 
z
" style="fill:#0a033a;"/>
    <path clip-path="url(#pfd53dc4512)" d="M 180.063228 207.386128 
L 188.144156 200.107676 
L 186.751317 124.066446 
L 178.341967 130.84913 
z
" style="fill:#6a4f11;"/>
    <path clip-path="url(#pfd53dc4512)" d="M 241.523583 217.136342 
L 249.101427 209.667246 
L 249.433357 183.308562 
L 241.756269 190.611992 
z
" style="fill:#3c0644;"/>
    <path clip-path="url(#pfd53dc4512)" d="M 222.285805 201.224351 
L 222.20184 120.437236 
L 236.081634 124.33 
L 235.617509 205.421836 
z
" style="fill:#69580f;"/>
    <path clip-path="url(#pfd53dc4512)" d="M 180.063228 207.386128 
L 178.264775 127.416737 
L 186.688878 120.657639 
L 188.144156 200.107676 
z
" style="fill:#dfb621;"/>
    <path clip-path="url(#pfd53dc4512)" d="M 220.127123 220.338193 
L 227.94922 212.80596 
L 241.523583 217.136342 
L 233.792858 224.756123 
z
" style="fill:#4a0558;"/>
    <path clip-path="url(#pfd53dc4512)" d="M 188.144156 200.107676 
L 201.262108 204.292457 
L 200.220362 115.277443 
L 186.519839 111.429039 
z
" style="fill:#d4dc1e;"/>
    <path clip-path="url(#pfd53dc4512)" d="M 241.523583 217.136342 
L 255.255385 221.516949 
L 255.283243 219.755763 
L 241.538978 215.381396 
z
" style="fill:#16067b;"/>
    <path clip-path="url(#pfd53dc4512)" d="M 167.010898 203.166503 
L 180.063228 207.386128 
L 178.341967 130.84913 
L 164.795308 126.916296 
z
" style="fill:#e0a825;"/>
    <path clip-path="url(#pfd53dc4512)" d="M 241.523583 217.136342 
L 241.540436 215.215145 
L 255.285882 219.588921 
L 255.255385 221.516949 
z
" style="fill:#0b033b;"/>
    <path clip-path="url(#pfd53dc4512)" d="M 227.94922 212.80596 
L 227.994606 188.128462 
L 241.740851 192.369508 
L 241.523583 217.136342 
z
" style="fill:#390445;"/>
    <path clip-path="url(#pfd53dc4512)" d="M 227.94922 212.80596 
L 241.523583 217.136342 
L 241.756269 190.611992 
L 227.997827 186.377421 
z
" style="fill:#800d90;"/>
    <path clip-path="url(#pfd53dc4512)" d="M 214.529606 208.524945 
L 214.124231 127.208997 
L 222.20184 120.437236 
L 222.285805 201.224351 
z
" style="fill:#debb20;"/>
    <path clip-path="url(#pfd53dc4512)" d="M 214.529606 208.524945 
L 222.285805 201.224351 
L 222.198674 117.39094 
L 214.108939 124.141475 
z
" style="fill:#675e10;"/>
    <path clip-path="url(#pfd53dc4512)" d="M 233.792858 224.756123 
L 233.802224 222.823076 
L 241.540436 215.215145 
L 241.523583 217.136342 
z
" style="fill:#18057c;"/>
    <path clip-path="url(#pfd53dc4512)" d="M 227.997827 186.377421 
L 241.756269 190.611992 
L 249.433357 183.308562 
L 235.767828 179.158188 
z
" style="fill:#6f0b7d;"/>
    <path clip-path="url(#pfd53dc4512)" d="M 220.127123 220.338193 
L 220.073652 195.505702 
L 227.994606 188.128462 
L 227.94922 212.80596 
z
" style="fill:#7a0892;"/>
    <path clip-path="url(#pfd53dc4512)" d="M 201.262108 204.292457 
L 200.333435 124.939335 
L 214.132524 128.872539 
L 214.529606 208.524945 
z
" style="fill:#695510;"/>
    <path clip-path="url(#pfd53dc4512)" d="M 194.880391 109.598442 
L 208.45954 113.388306 
L 216.478598 106.851899 
L 202.9887 103.137468 
z
" style="fill:#beae1d;"/>
    <path clip-path="url(#pfd53dc4512)" d="M 201.262108 204.292457 
L 214.529606 208.524945 
L 214.108939 124.141475 
L 200.278289 120.227192 
z
" style="fill:#dbc821;"/>
    <path clip-path="url(#pfd53dc4512)" d="M 193.264978 211.654059 
L 192.00157 131.781551 
L 200.333435 124.939335 
L 201.262108 204.292457 
z
" style="fill:#dfb521;"/>
    <path clip-path="url(#pfd53dc4512)" d="M 193.264978 211.654059 
L 201.262108 204.292457 
L 200.328799 124.54316 
L 191.99526 131.382623 
z
" style="fill:#69560f;"/>
    <path clip-path="url(#pfd53dc4512)" d="M 233.792858 224.756123 
L 241.523583 217.136342 
L 255.255385 221.516949 
L 247.618703 229.225814 
z
" style="fill:#0e034b;"/>
    <path clip-path="url(#pfd53dc4512)" d="M 233.802224 222.823076 
L 247.6419 227.285886 
L 255.285882 219.588921 
L 241.540436 215.215145 
z
" style="fill:#15056c;"/>
    <path clip-path="url(#pfd53dc4512)" d="M 214.529606 208.524945 
L 214.169579 136.305507 
L 228.082543 140.315291 
L 227.94922 212.80596 
z
" style="fill:#694815;"/>
    <path clip-path="url(#pfd53dc4512)" d="M 227.94922 212.80596 
L 235.617509 205.421836 
L 236.081634 124.33 
L 228.099339 131.182455 
z
" style="fill:#69580f;"/>
    <path clip-path="url(#pfd53dc4512)" d="M 180.063228 207.386128 
L 193.264978 211.654059 
L 191.99526 131.382623 
L 178.264775 127.416737 
z
" style="fill:#dfb621;"/>
    <path clip-path="url(#pfd53dc4512)" d="M 173.129574 113.660812 
L 186.630828 117.488429 
L 194.898759 110.887009 
L 181.484861 107.13585 
z
" style="fill:#bfaa1c;"/>
    <path clip-path="url(#pfd53dc4512)" d="M 247.618703 229.225814 
L 255.255385 221.516949 
L 255.285882 219.588921 
L 247.6419 227.285886 
z
" style="fill:#0b033b;"/>
    <path clip-path="url(#pfd53dc4512)" d="M 233.792858 224.756123 
L 241.523583 217.136342 
L 241.740851 192.369508 
L 233.91361 199.833588 
z
" style="fill:#390445;"/>
    <path clip-path="url(#pfd53dc4512)" d="M 206.61873 215.971129 
L 205.961611 143.281011 
L 214.169579 136.305507 
L 214.529606 208.524945 
z
" style="fill:#df982d;"/>
    <path clip-path="url(#pfd53dc4512)" d="M 208.468122 114.503149 
L 222.199663 118.342087 
L 230.122538 111.721191 
L 216.482803 107.959063 
z
" style="fill:#bfaa1c;"/>
    <path clip-path="url(#pfd53dc4512)" d="M 214.529606 208.524945 
L 227.94922 212.80596 
L 228.099339 131.182455 
L 214.124231 127.208997 
z
" style="fill:#debb20;"/>
    <path clip-path="url(#pfd53dc4512)" d="M 222.211842 130.060872 
L 236.026334 133.991911 
L 243.810969 127.212175 
L 230.089928 123.3598 
z
" style="fill:#c28228;"/>
    <path clip-path="url(#pfd53dc4512)" d="M 233.792858 224.756123 
L 247.618703 229.225814 
L 247.6419 227.285886 
L 233.802224 222.823076 
z
" style="fill:#18057c;"/>
    <path clip-path="url(#pfd53dc4512)" d="M 220.127123 220.338193 
L 233.792858 224.756123 
L 233.91361 199.833588 
L 220.073652 195.505702 
z
" style="fill:#7a0892;"/>
    <path clip-path="url(#pfd53dc4512)" d="M 206.61873 215.971129 
L 214.529606 208.524945 
L 214.132524 128.872539 
L 205.893952 135.796579 
z
" style="fill:#695510;"/>
    <path clip-path="url(#pfd53dc4512)" d="M 220.073652 195.505702 
L 233.91361 199.833588 
L 241.740851 192.369508 
L 227.994606 188.128462 
z
" style="fill:#6a077f;"/>
    <path clip-path="url(#pfd53dc4512)" d="M 193.264978 211.654059 
L 206.61873 215.971129 
L 205.893952 135.796579 
L 192.00157 131.781551 
z
" style="fill:#dfb521;"/>
    <path clip-path="url(#pfd53dc4512)" d="M 164.795308 126.916296 
L 178.341967 130.84913 
L 186.751317 124.066446 
L 173.292252 120.212713 
z
" style="fill:#c29220;"/>
    <path clip-path="url(#pfd53dc4512)" d="M 220.127123 220.338193 
L 227.94922 212.80596 
L 228.082543 140.315291 
L 219.970014 147.374405 
z
" style="fill:#694815;"/>
    <path clip-path="url(#pfd53dc4512)" d="M 186.519839 111.429039 
L 200.220362 115.277443 
L 208.422991 108.640423 
L 194.812981 104.869564 
z
" style="fill:#b8bf1a;"/>
    <path clip-path="url(#pfd53dc4512)" d="M 206.61873 215.971129 
L 220.127123 220.338193 
L 219.970014 147.374405 
L 205.961611 143.281011 
z
" style="fill:#df982d;"/>
    <path clip-path="url(#pfd53dc4512)" d="M 200.278289 120.227192 
L 214.108939 124.141475 
L 222.198674 117.39094 
L 208.46083 113.555802 
z
" style="fill:#beae1d;"/>
    <path clip-path="url(#pfd53dc4512)" d="M 178.264775 127.416737 
L 191.99526 131.382623 
L 200.328799 124.54316 
L 186.688878 120.657639 
z
" style="fill:#c19e1c;"/>
    <path clip-path="url(#pfd53dc4512)" d="M 214.124231 127.208997 
L 228.099339 131.182455 
L 236.081634 124.33 
L 222.20184 120.437236 
z
" style="fill:#c1a21c;"/>
    <path clip-path="url(#pfd53dc4512)" d="M 192.00157 131.781551 
L 205.893952 135.796579 
L 214.132524 128.872539 
L 200.333435 124.939335 
z
" style="fill:#c19d1d;"/>
    <path clip-path="url(#pfd53dc4512)" d="M 205.961611 143.281011 
L 219.970014 147.374405 
L 228.082543 140.315291 
L 214.169579 136.305507 
z
" style="fill:#c28427;"/>
   </g>
   <g id="text_16">
    <!-- W20__H45__A360_bars_extracted.txt -->
    <g transform="translate(110.101875 28.56)scale(0.12 -0.12)">
     <defs>
      <path d="M 3.328125 72.90625 
L 13.28125 72.90625 
L 28.609375 11.28125 
L 43.890625 72.90625 
L 54.984375 72.90625 
L 70.3125 11.28125 
L 85.59375 72.90625 
L 95.609375 72.90625 
L 77.296875 0 
L 64.890625 0 
L 49.515625 63.28125 
L 33.984375 0 
L 21.578125 0 
z
" id="DejaVuSans-87"/>
      <path d="M 50.984375 -16.609375 
L 50.984375 -23.578125 
L -0.984375 -23.578125 
L -0.984375 -16.609375 
z
" id="DejaVuSans-95"/>
      <path d="M 9.8125 72.90625 
L 19.671875 72.90625 
L 19.671875 43.015625 
L 55.515625 43.015625 
L 55.515625 72.90625 
L 65.375 72.90625 
L 65.375 0 
L 55.515625 0 
L 55.515625 34.71875 
L 19.671875 34.71875 
L 19.671875 0 
L 9.8125 0 
z
" id="DejaVuSans-72"/>
      <path d="M 34.1875 63.1875 
L 20.796875 26.90625 
L 47.609375 26.90625 
z
M 28.609375 72.90625 
L 39.796875 72.90625 
L 67.578125 0 
L 57.328125 0 
L 50.6875 18.703125 
L 17.828125 18.703125 
L 11.1875 0 
L 0.78125 0 
z
" id="DejaVuSans-65"/>
      <path d="M 40.578125 39.3125 
Q 47.65625 37.796875 51.625 33 
Q 55.609375 28.21875 55.609375 21.1875 
Q 55.609375 10.40625 48.1875 4.484375 
Q 40.765625 -1.421875 27.09375 -1.421875 
Q 22.515625 -1.421875 17.65625 -0.515625 
Q 12.796875 0.390625 7.625 2.203125 
L 7.625 11.71875 
Q 11.71875 9.328125 16.59375 8.109375 
Q 21.484375 6.890625 26.8125 6.890625 
Q 36.078125 6.890625 40.9375 10.546875 
Q 45.796875 14.203125 45.796875 21.1875 
Q 45.796875 27.640625 41.28125 31.265625 
Q 36.765625 34.90625 28.71875 34.90625 
L 20.21875 34.90625 
L 20.21875 43.015625 
L 29.109375 43.015625 
Q 36.375 43.015625 40.234375 45.921875 
Q 44.09375 48.828125 44.09375 54.296875 
Q 44.09375 59.90625 40.109375 62.90625 
Q 36.140625 65.921875 28.71875 65.921875 
Q 24.65625 65.921875 20.015625 65.03125 
Q 15.375 64.15625 9.8125 62.3125 
L 9.8125 71.09375 
Q 15.4375 72.65625 20.34375 73.4375 
Q 25.25 74.21875 29.59375 74.21875 
Q 40.828125 74.21875 47.359375 69.109375 
Q 53.90625 64.015625 53.90625 55.328125 
Q 53.90625 49.265625 50.4375 45.09375 
Q 46.96875 40.921875 40.578125 39.3125 
z
" id="DejaVuSans-51"/>
      <path d="M 48.6875 27.296875 
Q 48.6875 37.203125 44.609375 42.84375 
Q 40.53125 48.484375 33.40625 48.484375 
Q 26.265625 48.484375 22.1875 42.84375 
Q 18.109375 37.203125 18.109375 27.296875 
Q 18.109375 17.390625 22.1875 11.75 
Q 26.265625 6.109375 33.40625 6.109375 
Q 40.53125 6.109375 44.609375 11.75 
Q 48.6875 17.390625 48.6875 27.296875 
z
M 18.109375 46.390625 
Q 20.953125 51.265625 25.265625 53.625 
Q 29.59375 56 35.59375 56 
Q 45.5625 56 51.78125 48.09375 
Q 58.015625 40.1875 58.015625 27.296875 
Q 58.015625 14.40625 51.78125 6.484375 
Q 45.5625 -1.421875 35.59375 -1.421875 
Q 29.59375 -1.421875 25.265625 0.953125 
Q 20.953125 3.328125 18.109375 8.203125 
L 18.109375 0 
L 9.078125 0 
L 9.078125 75.984375 
L 18.109375 75.984375 
z
" id="DejaVuSans-98"/>
      <path d="M 34.28125 27.484375 
Q 23.390625 27.484375 19.1875 25 
Q 14.984375 22.515625 14.984375 16.5 
Q 14.984375 11.71875 18.140625 8.90625 
Q 21.296875 6.109375 26.703125 6.109375 
Q 34.1875 6.109375 38.703125 11.40625 
Q 43.21875 16.703125 43.21875 25.484375 
L 43.21875 27.484375 
z
M 52.203125 31.203125 
L 52.203125 0 
L 43.21875 0 
L 43.21875 8.296875 
Q 40.140625 3.328125 35.546875 0.953125 
Q 30.953125 -1.421875 24.3125 -1.421875 
Q 15.921875 -1.421875 10.953125 3.296875 
Q 6 8.015625 6 15.921875 
Q 6 25.140625 12.171875 29.828125 
Q 18.359375 34.515625 30.609375 34.515625 
L 43.21875 34.515625 
L 43.21875 35.40625 
Q 43.21875 41.609375 39.140625 45 
Q 35.0625 48.390625 27.6875 48.390625 
Q 23 48.390625 18.546875 47.265625 
Q 14.109375 46.140625 10.015625 43.890625 
L 10.015625 52.203125 
Q 14.9375 54.109375 19.578125 55.046875 
Q 24.21875 56 28.609375 56 
Q 40.484375 56 46.34375 49.84375 
Q 52.203125 43.703125 52.203125 31.203125 
z
" id="DejaVuSans-97"/>
      <path d="M 41.109375 46.296875 
Q 39.59375 47.171875 37.8125 47.578125 
Q 36.03125 48 33.890625 48 
Q 26.265625 48 22.1875 43.046875 
Q 18.109375 38.09375 18.109375 28.8125 
L 18.109375 0 
L 9.078125 0 
L 9.078125 54.6875 
L 18.109375 54.6875 
L 18.109375 46.1875 
Q 20.953125 51.171875 25.484375 53.578125 
Q 30.03125 56 36.53125 56 
Q 37.453125 56 38.578125 55.875 
Q 39.703125 55.765625 41.0625 55.515625 
z
" id="DejaVuSans-114"/>
      <path d="M 44.28125 53.078125 
L 44.28125 44.578125 
Q 40.484375 46.53125 36.375 47.5 
Q 32.28125 48.484375 27.875 48.484375 
Q 21.1875 48.484375 17.84375 46.4375 
Q 14.5 44.390625 14.5 40.28125 
Q 14.5 37.15625 16.890625 35.375 
Q 19.28125 33.59375 26.515625 31.984375 
L 29.59375 31.296875 
Q 39.15625 29.25 43.1875 25.515625 
Q 47.21875 21.78125 47.21875 15.09375 
Q 47.21875 7.46875 41.1875 3.015625 
Q 35.15625 -1.421875 24.609375 -1.421875 
Q 20.21875 -1.421875 15.453125 -0.5625 
Q 10.6875 0.296875 5.421875 2 
L 5.421875 11.28125 
Q 10.40625 8.6875 15.234375 7.390625 
Q 20.0625 6.109375 24.8125 6.109375 
Q 31.15625 6.109375 34.5625 8.28125 
Q 37.984375 10.453125 37.984375 14.40625 
Q 37.984375 18.0625 35.515625 20.015625 
Q 33.0625 21.96875 24.703125 23.78125 
L 21.578125 24.515625 
Q 13.234375 26.265625 9.515625 29.90625 
Q 5.8125 33.546875 5.8125 39.890625 
Q 5.8125 47.609375 11.28125 51.796875 
Q 16.75 56 26.8125 56 
Q 31.78125 56 36.171875 55.265625 
Q 40.578125 54.546875 44.28125 53.078125 
z
" id="DejaVuSans-115"/>
      <path d="M 56.203125 29.59375 
L 56.203125 25.203125 
L 14.890625 25.203125 
Q 15.484375 15.921875 20.484375 11.0625 
Q 25.484375 6.203125 34.421875 6.203125 
Q 39.59375 6.203125 44.453125 7.46875 
Q 49.3125 8.734375 54.109375 11.28125 
L 54.109375 2.78125 
Q 49.265625 0.734375 44.1875 -0.34375 
Q 39.109375 -1.421875 33.890625 -1.421875 
Q 20.796875 -1.421875 13.15625 6.1875 
Q 5.515625 13.8125 5.515625 26.8125 
Q 5.515625 40.234375 12.765625 48.109375 
Q 20.015625 56 32.328125 56 
Q 43.359375 56 49.78125 48.890625 
Q 56.203125 41.796875 56.203125 29.59375 
z
M 47.21875 32.234375 
Q 47.125 39.59375 43.09375 43.984375 
Q 39.0625 48.390625 32.421875 48.390625 
Q 24.90625 48.390625 20.390625 44.140625 
Q 15.875 39.890625 15.1875 32.171875 
z
" id="DejaVuSans-101"/>
      <path d="M 54.890625 54.6875 
L 35.109375 28.078125 
L 55.90625 0 
L 45.3125 0 
L 29.390625 21.484375 
L 13.484375 0 
L 2.875 0 
L 24.125 28.609375 
L 4.6875 54.6875 
L 15.28125 54.6875 
L 29.78125 35.203125 
L 44.28125 54.6875 
z
" id="DejaVuSans-120"/>
      <path d="M 18.3125 70.21875 
L 18.3125 54.6875 
L 36.8125 54.6875 
L 36.8125 47.703125 
L 18.3125 47.703125 
L 18.3125 18.015625 
Q 18.3125 11.328125 20.140625 9.421875 
Q 21.96875 7.515625 27.59375 7.515625 
L 36.8125 7.515625 
L 36.8125 0 
L 27.59375 0 
Q 17.1875 0 13.234375 3.875 
Q 9.28125 7.765625 9.28125 18.015625 
L 9.28125 47.703125 
L 2.6875 47.703125 
L 2.6875 54.6875 
L 9.28125 54.6875 
L 9.28125 70.21875 
z
" id="DejaVuSans-116"/>
      <path d="M 48.78125 52.59375 
L 48.78125 44.1875 
Q 44.96875 46.296875 41.140625 47.34375 
Q 37.3125 48.390625 33.40625 48.390625 
Q 24.65625 48.390625 19.8125 42.84375 
Q 14.984375 37.3125 14.984375 27.296875 
Q 14.984375 17.28125 19.8125 11.734375 
Q 24.65625 6.203125 33.40625 6.203125 
Q 37.3125 6.203125 41.140625 7.25 
Q 44.96875 8.296875 48.78125 10.40625 
L 48.78125 2.09375 
Q 45.015625 0.34375 40.984375 -0.53125 
Q 36.96875 -1.421875 32.421875 -1.421875 
Q 20.0625 -1.421875 12.78125 6.34375 
Q 5.515625 14.109375 5.515625 27.296875 
Q 5.515625 40.671875 12.859375 48.328125 
Q 20.21875 56 33.015625 56 
Q 37.15625 56 41.109375 55.140625 
Q 45.0625 54.296875 48.78125 52.59375 
z
" id="DejaVuSans-99"/>
      <path d="M 45.40625 46.390625 
L 45.40625 75.984375 
L 54.390625 75.984375 
L 54.390625 0 
L 45.40625 0 
L 45.40625 8.203125 
Q 42.578125 3.328125 38.25 0.953125 
Q 33.9375 -1.421875 27.875 -1.421875 
Q 17.96875 -1.421875 11.734375 6.484375 
Q 5.515625 14.40625 5.515625 27.296875 
Q 5.515625 40.1875 11.734375 48.09375 
Q 17.96875 56 27.875 56 
Q 33.9375 56 38.25 53.625 
Q 42.578125 51.265625 45.40625 46.390625 
z
M 14.796875 27.296875 
Q 14.796875 17.390625 18.875 11.75 
Q 22.953125 6.109375 30.078125 6.109375 
Q 37.203125 6.109375 41.296875 11.75 
Q 45.40625 17.390625 45.40625 27.296875 
Q 45.40625 37.203125 41.296875 42.84375 
Q 37.203125 48.484375 30.078125 48.484375 
Q 22.953125 48.484375 18.875 42.84375 
Q 14.796875 37.203125 14.796875 27.296875 
z
" id="DejaVuSans-100"/>
      <path d="M 10.6875 12.40625 
L 21 12.40625 
L 21 0 
L 10.6875 0 
z
" id="DejaVuSans-46"/>
     </defs>
     <use xlink:href="#DejaVuSans-87"/>
     <use x="98.876953" xlink:href="#DejaVuSans-50"/>
     <use x="162.5" xlink:href="#DejaVuSans-48"/>
     <use x="226.123047" xlink:href="#DejaVuSans-95"/>
     <use x="276.123047" xlink:href="#DejaVuSans-95"/>
     <use x="326.123047" xlink:href="#DejaVuSans-72"/>
     <use x="401.318359" xlink:href="#DejaVuSans-52"/>
     <use x="464.941406" xlink:href="#DejaVuSans-53"/>
     <use x="528.564453" xlink:href="#DejaVuSans-95"/>
     <use x="578.564453" xlink:href="#DejaVuSans-95"/>
     <use x="628.564453" xlink:href="#DejaVuSans-65"/>
     <use x="696.972656" xlink:href="#DejaVuSans-51"/>
     <use x="760.595703" xlink:href="#DejaVuSans-54"/>
     <use x="824.21875" xlink:href="#DejaVuSans-48"/>
     <use x="887.841797" xlink:href="#DejaVuSans-95"/>
     <use x="937.841797" xlink:href="#DejaVuSans-98"/>
     <use x="1001.318359" xlink:href="#DejaVuSans-97"/>
     <use x="1062.597656" xlink:href="#DejaVuSans-114"/>
     <use x="1103.710938" xlink:href="#DejaVuSans-115"/>
     <use x="1155.810547" xlink:href="#DejaVuSans-95"/>
     <use x="1205.810547" xlink:href="#DejaVuSans-101"/>
     <use x="1265.583984" xlink:href="#DejaVuSans-120"/>
     <use x="1324.763672" xlink:href="#DejaVuSans-116"/>
     <use x="1363.972656" xlink:href="#DejaVuSans-114"/>
     <use x="1405.085938" xlink:href="#DejaVuSans-97"/>
     <use x="1466.365234" xlink:href="#DejaVuSans-99"/>
     <use x="1521.345703" xlink:href="#DejaVuSans-116"/>
     <use x="1560.554688" xlink:href="#DejaVuSans-101"/>
     <use x="1622.078125" xlink:href="#DejaVuSans-100"/>
     <use x="1685.554688" xlink:href="#DejaVuSans-46"/>
     <use x="1717.341797" xlink:href="#DejaVuSans-116"/>
     <use x="1756.550781" xlink:href="#DejaVuSans-120"/>
     <use x="1815.730469" xlink:href="#DejaVuSans-116"/>
    </g>
   </g>
  </g>
 </g>
 <defs>
  <clipPath id="pfd53dc4512">
   <rect height="217.44" width="217.44" x="112.68" y="34.56"/>
  </clipPath>
 </defs>
</svg>
