<?xml version="1.0" encoding="utf-8" standalone="no"?>
<!DOCTYPE svg PUBLIC "-//W3C//DTD SVG 1.1//EN"
  "http://www.w3.org/Graphics/SVG/1.1/DTD/svg11.dtd">
<!-- Created with matplotlib (https://matplotlib.org/) -->
<svg height="288pt" version="1.1" viewBox="0 0 432 288" width="432pt" xmlns="http://www.w3.org/2000/svg" xmlns:xlink="http://www.w3.org/1999/xlink">
 <metadata>
  <rdf:RDF xmlns:cc="http://creativecommons.org/ns#" xmlns:dc="http://purl.org/dc/elements/1.1/" xmlns:rdf="http://www.w3.org/1999/02/22-rdf-syntax-ns#">
   <cc:Work>
    <dc:type rdf:resource="http://purl.org/dc/dcmitype/StillImage"/>
    <dc:date>2021-06-13T21:57:33.989771</dc:date>
    <dc:format>image/svg+xml</dc:format>
    <dc:creator>
     <cc:Agent>
      <dc:title>Matplotlib v3.3.4, https://matplotlib.org/</dc:title>
     </cc:Agent>
    </dc:creator>
   </cc:Work>
  </rdf:RDF>
 </metadata>
 <defs>
  <style type="text/css">*{stroke-linecap:butt;stroke-linejoin:round;}</style>
 </defs>
 <g id="figure_1">
  <g id="patch_1">
   <path d="M 0 288 
L 432 288 
L 432 0 
L 0 0 
z
" style="fill:#ffffff;"/>
  </g>
  <g id="patch_2">
   <path d="M 112.68 252 
L 330.12 252 
L 330.12 34.56 
L 112.68 34.56 
z
" style="fill:#ffffff;"/>
  </g>
  <g id="pane3d_1">
   <g id="patch_3">
    <path d="M 129.09822 198.386264 
L 200.904009 138.197228 
L 199.90584 51.393878 
L 124.663773 106.302111 
" style="fill:#f2f2f2;opacity:0.5;stroke:#f2f2f2;stroke-linejoin:miter;"/>
   </g>
  </g>
  <g id="pane3d_2">
   <g id="patch_4">
    <path d="M 200.904009 138.197228 
L 316.12668 171.68791 
L 320.238571 81.894718 
L 199.90584 51.393878 
" style="fill:#e6e6e6;opacity:0.5;stroke:#e6e6e6;stroke-linejoin:miter;"/>
   </g>
  </g>
  <g id="pane3d_3">
   <g id="patch_5">
    <path d="M 129.09822 198.386264 
L 251.239879 238.27773 
L 316.12668 171.68791 
L 200.904009 138.197228 
" style="fill:#ececec;opacity:0.5;stroke:#ececec;stroke-linejoin:miter;"/>
   </g>
  </g>
  <g id="axis3d_1">
   <g id="line2d_1">
    <path d="M 129.09822 198.386264 
L 251.239879 238.27773 
" style="fill:none;stroke:#000000;stroke-linecap:square;stroke-width:0.8;"/>
   </g>
   <g id="Line3DCollection_1">
    <path d="M 136.495759 200.802301 
L 207.911499 140.234029 
L 207.209612 53.245171 
" style="fill:none;stroke:#b0b0b0;stroke-width:0.8;"/>
    <path d="M 162.23134 209.207541 
L 232.260894 147.311436 
L 232.60309 59.681678 
" style="fill:none;stroke:#b0b0b0;stroke-width:0.8;"/>
    <path d="M 188.559037 217.806167 
L 257.123632 154.538053 
L 258.555303 66.259807 
" style="fill:none;stroke:#b0b0b0;stroke-width:0.8;"/>
    <path d="M 215.499525 226.604931 
L 282.516121 161.918647 
L 285.084894 72.984285 
" style="fill:none;stroke:#b0b0b0;stroke-width:0.8;"/>
    <path d="M 243.074449 235.610901 
L 308.455474 169.458193 
L 312.21135 79.860051 
" style="fill:none;stroke:#b0b0b0;stroke-width:0.8;"/>
   </g>
   <g id="xtick_1">
    <g id="line2d_2">
     <path d="M 137.117644 200.274876 
L 135.249322 201.859414 
" style="fill:none;stroke:#000000;stroke-linecap:square;stroke-width:0.8;"/>
    </g>
    <g id="text_1">
     <!-- 0 -->
     <g transform="translate(125.77919 224.124533)scale(0.1 -0.1)">
      <defs>
       <path d="M 31.78125 66.40625 
Q 24.171875 66.40625 20.328125 58.90625 
Q 16.5 51.421875 16.5 36.375 
Q 16.5 21.390625 20.328125 13.890625 
Q 24.171875 6.390625 31.78125 6.390625 
Q 39.453125 6.390625 43.28125 13.890625 
Q 47.125 21.390625 47.125 36.375 
Q 47.125 51.421875 43.28125 58.90625 
Q 39.453125 66.40625 31.78125 66.40625 
z
M 31.78125 74.21875 
Q 44.046875 74.21875 50.515625 64.515625 
Q 56.984375 54.828125 56.984375 36.375 
Q 56.984375 17.96875 50.515625 8.265625 
Q 44.046875 -1.421875 31.78125 -1.421875 
Q 19.53125 -1.421875 13.0625 8.265625 
Q 6.59375 17.96875 6.59375 36.375 
Q 6.59375 54.828125 13.0625 64.515625 
Q 19.53125 74.21875 31.78125 74.21875 
z
" id="DejaVuSans-48"/>
      </defs>
      <use xlink:href="#DejaVuSans-48"/>
     </g>
    </g>
   </g>
   <g id="xtick_2">
    <g id="line2d_3">
     <path d="M 162.841716 208.668056 
L 161.007937 210.288854 
" style="fill:none;stroke:#000000;stroke-linecap:square;stroke-width:0.8;"/>
    </g>
    <g id="text_2">
     <!-- 2 -->
     <g transform="translate(151.547192 232.748132)scale(0.1 -0.1)">
      <defs>
       <path d="M 19.1875 8.296875 
L 53.609375 8.296875 
L 53.609375 0 
L 7.328125 0 
L 7.328125 8.296875 
Q 12.9375 14.109375 22.625 23.890625 
Q 32.328125 33.6875 34.8125 36.53125 
Q 39.546875 41.84375 41.421875 45.53125 
Q 43.3125 49.21875 43.3125 52.78125 
Q 43.3125 58.59375 39.234375 62.25 
Q 35.15625 65.921875 28.609375 65.921875 
Q 23.96875 65.921875 18.8125 64.3125 
Q 13.671875 62.703125 7.8125 59.421875 
L 7.8125 69.390625 
Q 13.765625 71.78125 18.9375 73 
Q 24.125 74.21875 28.421875 74.21875 
Q 39.75 74.21875 46.484375 68.546875 
Q 53.21875 62.890625 53.21875 53.421875 
Q 53.21875 48.921875 51.53125 44.890625 
Q 49.859375 40.875 45.40625 35.40625 
Q 44.1875 33.984375 37.640625 27.21875 
Q 31.109375 20.453125 19.1875 8.296875 
z
" id="DejaVuSans-50"/>
      </defs>
      <use xlink:href="#DejaVuSans-50"/>
     </g>
    </g>
   </g>
   <g id="xtick_3">
    <g id="line2d_4">
     <path d="M 189.15721 217.254202 
L 187.360066 218.91252 
" style="fill:none;stroke:#000000;stroke-linecap:square;stroke-width:0.8;"/>
    </g>
    <g id="text_3">
     <!-- 4 -->
     <g transform="translate(177.91082 241.571064)scale(0.1 -0.1)">
      <defs>
       <path d="M 37.796875 64.3125 
L 12.890625 25.390625 
L 37.796875 25.390625 
z
M 35.203125 72.90625 
L 47.609375 72.90625 
L 47.609375 25.390625 
L 58.015625 25.390625 
L 58.015625 17.1875 
L 47.609375 17.1875 
L 47.609375 0 
L 37.796875 0 
L 37.796875 17.1875 
L 4.890625 17.1875 
L 4.890625 26.703125 
z
" id="DejaVuSans-52"/>
      </defs>
      <use xlink:href="#DejaVuSans-52"/>
     </g>
    </g>
   </g>
   <g id="xtick_4">
    <g id="line2d_5">
     <path d="M 216.084757 226.040048 
L 214.326462 227.737204 
" style="fill:none;stroke:#000000;stroke-linecap:square;stroke-width:0.8;"/>
    </g>
    <g id="text_4">
     <!-- 6 -->
     <g transform="translate(204.890965 250.600322)scale(0.1 -0.1)">
      <defs>
       <path d="M 33.015625 40.375 
Q 26.375 40.375 22.484375 35.828125 
Q 18.609375 31.296875 18.609375 23.390625 
Q 18.609375 15.53125 22.484375 10.953125 
Q 26.375 6.390625 33.015625 6.390625 
Q 39.65625 6.390625 43.53125 10.953125 
Q 47.40625 15.53125 47.40625 23.390625 
Q 47.40625 31.296875 43.53125 35.828125 
Q 39.65625 40.375 33.015625 40.375 
z
M 52.59375 71.296875 
L 52.59375 62.3125 
Q 48.875 64.0625 45.09375 64.984375 
Q 41.3125 65.921875 37.59375 65.921875 
Q 27.828125 65.921875 22.671875 59.328125 
Q 17.53125 52.734375 16.796875 39.40625 
Q 19.671875 43.65625 24.015625 45.921875 
Q 28.375 48.1875 33.59375 48.1875 
Q 44.578125 48.1875 50.953125 41.515625 
Q 57.328125 34.859375 57.328125 23.390625 
Q 57.328125 12.15625 50.6875 5.359375 
Q 44.046875 -1.421875 33.015625 -1.421875 
Q 20.359375 -1.421875 13.671875 8.265625 
Q 6.984375 17.96875 6.984375 36.375 
Q 6.984375 53.65625 15.1875 63.9375 
Q 23.390625 74.21875 37.203125 74.21875 
Q 40.921875 74.21875 44.703125 73.484375 
Q 48.484375 72.75 52.59375 71.296875 
z
" id="DejaVuSans-54"/>
      </defs>
      <use xlink:href="#DejaVuSans-54"/>
     </g>
    </g>
   </g>
   <g id="xtick_5">
    <g id="line2d_6">
     <path d="M 243.645962 235.032643 
L 241.928856 236.770015 
" style="fill:none;stroke:#000000;stroke-linecap:square;stroke-width:0.8;"/>
    </g>
    <g id="text_5">
     <!-- 8 -->
     <g transform="translate(232.509511 259.84323)scale(0.1 -0.1)">
      <defs>
       <path d="M 31.78125 34.625 
Q 24.75 34.625 20.71875 30.859375 
Q 16.703125 27.09375 16.703125 20.515625 
Q 16.703125 13.921875 20.71875 10.15625 
Q 24.75 6.390625 31.78125 6.390625 
Q 38.8125 6.390625 42.859375 10.171875 
Q 46.921875 13.96875 46.921875 20.515625 
Q 46.921875 27.09375 42.890625 30.859375 
Q 38.875 34.625 31.78125 34.625 
z
M 21.921875 38.8125 
Q 15.578125 40.375 12.03125 44.71875 
Q 8.5 49.078125 8.5 55.328125 
Q 8.5 64.0625 14.71875 69.140625 
Q 20.953125 74.21875 31.78125 74.21875 
Q 42.671875 74.21875 48.875 69.140625 
Q 55.078125 64.0625 55.078125 55.328125 
Q 55.078125 49.078125 51.53125 44.71875 
Q 48 40.375 41.703125 38.8125 
Q 48.828125 37.15625 52.796875 32.3125 
Q 56.78125 27.484375 56.78125 20.515625 
Q 56.78125 9.90625 50.3125 4.234375 
Q 43.84375 -1.421875 31.78125 -1.421875 
Q 19.734375 -1.421875 13.25 4.234375 
Q 6.78125 9.90625 6.78125 20.515625 
Q 6.78125 27.484375 10.78125 32.3125 
Q 14.796875 37.15625 21.921875 38.8125 
z
M 18.3125 54.390625 
Q 18.3125 48.734375 21.84375 45.5625 
Q 25.390625 42.390625 31.78125 42.390625 
Q 38.140625 42.390625 41.71875 45.5625 
Q 45.3125 48.734375 45.3125 54.390625 
Q 45.3125 60.0625 41.71875 63.234375 
Q 38.140625 66.40625 31.78125 66.40625 
Q 25.390625 66.40625 21.84375 63.234375 
Q 18.3125 60.0625 18.3125 54.390625 
z
" id="DejaVuSans-56"/>
      </defs>
      <use xlink:href="#DejaVuSans-56"/>
     </g>
    </g>
   </g>
  </g>
  <g id="axis3d_2">
   <g id="line2d_7">
    <path d="M 316.12668 171.68791 
L 251.239879 238.27773 
" style="fill:none;stroke:#000000;stroke-linecap:square;stroke-width:0.8;"/>
   </g>
   <g id="Line3DCollection_2">
    <path d="M 129.866948 102.505071 
L 134.046245 194.238731 
L 255.729543 233.67023 
" style="fill:none;stroke:#b0b0b0;stroke-width:0.8;"/>
    <path d="M 147.250212 89.819556 
L 150.59591 180.366474 
L 270.72626 218.279909 
" style="fill:none;stroke:#b0b0b0;stroke-width:0.8;"/>
    <path d="M 163.958537 77.626582 
L 166.530371 167.009893 
L 285.136664 203.491289 
" style="fill:none;stroke:#b0b0b0;stroke-width:0.8;"/>
    <path d="M 180.030483 65.898008 
L 181.883306 154.140758 
L 298.994481 189.269761 
" style="fill:none;stroke:#b0b0b0;stroke-width:0.8;"/>
    <path d="M 195.501727 54.607799 
L 196.68598 141.732864 
L 312.330896 175.583317 
" style="fill:none;stroke:#b0b0b0;stroke-width:0.8;"/>
   </g>
   <g id="xtick_6">
    <g id="line2d_8">
     <path d="M 254.704115 233.337939 
L 257.783053 234.33567 
" style="fill:none;stroke:#000000;stroke-linecap:square;stroke-width:0.8;"/>
    </g>
    <g id="text_6">
     <!-- 0 -->
     <g transform="translate(265.430654 254.693759)scale(0.1 -0.1)">
      <use xlink:href="#DejaVuSans-48"/>
     </g>
    </g>
   </g>
   <g id="xtick_7">
    <g id="line2d_9">
     <path d="M 269.71494 217.960734 
L 272.751463 218.919068 
" style="fill:none;stroke:#000000;stroke-linecap:square;stroke-width:0.8;"/>
    </g>
    <g id="text_7">
     <!-- 2 -->
     <g transform="translate(280.181112 239.024526)scale(0.1 -0.1)">
      <use xlink:href="#DejaVuSans-50"/>
     </g>
    </g>
   </g>
   <g id="xtick_8">
    <g id="line2d_10">
     <path d="M 284.139145 203.184468 
L 287.134182 204.105694 
" style="fill:none;stroke:#000000;stroke-linecap:square;stroke-width:0.8;"/>
    </g>
    <g id="text_8">
     <!-- 4 -->
     <g transform="translate(294.35448 223.968328)scale(0.1 -0.1)">
      <use xlink:href="#DejaVuSans-52"/>
     </g>
    </g>
   </g>
   <g id="xtick_9">
    <g id="line2d_11">
     <path d="M 298.010457 188.97459 
L 300.964927 189.860821 
" style="fill:none;stroke:#000000;stroke-linecap:square;stroke-width:0.8;"/>
    </g>
    <g id="text_9">
     <!-- 6 -->
     <g transform="translate(307.983974 209.489882)scale(0.1 -0.1)">
      <use xlink:href="#DejaVuSans-54"/>
     </g>
    </g>
   </g>
   <g id="xtick_10">
    <g id="line2d_12">
     <path d="M 311.360068 175.299146 
L 314.274875 176.15234 
" style="fill:none;stroke:#000000;stroke-linecap:square;stroke-width:0.8;"/>
    </g>
    <g id="text_10">
     <!-- 8 -->
     <g transform="translate(321.10031 195.556556)scale(0.1 -0.1)">
      <use xlink:href="#DejaVuSans-56"/>
     </g>
    </g>
   </g>
  </g>
  <g id="axis3d_3">
   <g id="line2d_13">
    <path d="M 316.12668 171.68791 
L 320.238571 81.894718 
" style="fill:none;stroke:#000000;stroke-linecap:square;stroke-width:0.8;"/>
   </g>
   <g id="Line3DCollection_3">
    <path d="M 316.205459 169.967571 
L 200.884845 136.530725 
L 129.013401 196.624949 
" style="fill:none;stroke:#b0b0b0;stroke-width:0.8;"/>
    <path d="M 316.81752 156.601742 
L 200.736012 123.587752 
L 128.354232 182.936883 
" style="fill:none;stroke:#b0b0b0;stroke-width:0.8;"/>
    <path d="M 317.43779 143.05662 
L 200.585277 110.47946 
L 127.685884 169.058195 
" style="fill:none;stroke:#b0b0b0;stroke-width:0.8;"/>
    <path d="M 318.066437 129.328574 
L 200.432604 97.202662 
L 127.008162 154.984873 
" style="fill:none;stroke:#b0b0b0;stroke-width:0.8;"/>
    <path d="M 318.703632 115.413871 
L 200.277956 83.754087 
L 126.32087 140.712795 
" style="fill:none;stroke:#b0b0b0;stroke-width:0.8;"/>
    <path d="M 319.349549 101.30868 
L 200.121294 70.130379 
L 125.623801 126.23772 
" style="fill:none;stroke:#b0b0b0;stroke-width:0.8;"/>
    <path d="M 320.00437 87.009062 
L 199.962579 56.328096 
L 124.916747 111.555287 
" style="fill:none;stroke:#b0b0b0;stroke-width:0.8;"/>
   </g>
   <g id="xtick_11">
    <g id="line2d_14">
     <path d="M 315.237563 169.686933 
L 318.143556 170.529516 
" style="fill:none;stroke:#000000;stroke-linecap:square;stroke-width:0.8;"/>
    </g>
    <g id="text_11">
     <!-- 0 -->
     <g transform="translate(331.275915 174.966846)scale(0.1 -0.1)">
      <use xlink:href="#DejaVuSans-48"/>
     </g>
    </g>
   </g>
   <g id="xtick_12">
    <g id="line2d_15">
     <path d="M 315.842933 156.324567 
L 318.769028 157.156758 
" style="fill:none;stroke:#000000;stroke-linecap:square;stroke-width:0.8;"/>
    </g>
    <g id="text_12">
     <!-- 5000 -->
     <g transform="translate(322.463116 161.633143)scale(0.1 -0.1)">
      <defs>
       <path d="M 10.796875 72.90625 
L 49.515625 72.90625 
L 49.515625 64.59375 
L 19.828125 64.59375 
L 19.828125 46.734375 
Q 21.96875 47.46875 24.109375 47.828125 
Q 26.265625 48.1875 28.421875 48.1875 
Q 40.625 48.1875 47.75 41.5 
Q 54.890625 34.8125 54.890625 23.390625 
Q 54.890625 11.625 47.5625 5.09375 
Q 40.234375 -1.421875 26.90625 -1.421875 
Q 22.3125 -1.421875 17.546875 -0.640625 
Q 12.796875 0.140625 7.71875 1.703125 
L 7.71875 11.625 
Q 12.109375 9.234375 16.796875 8.0625 
Q 21.484375 6.890625 26.703125 6.890625 
Q 35.15625 6.890625 40.078125 11.328125 
Q 45.015625 15.765625 45.015625 23.390625 
Q 45.015625 31 40.078125 35.4375 
Q 35.15625 39.890625 26.703125 39.890625 
Q 22.75 39.890625 18.8125 39.015625 
Q 14.890625 38.140625 10.796875 36.28125 
z
" id="DejaVuSans-53"/>
      </defs>
      <use xlink:href="#DejaVuSans-53"/>
      <use x="63.623047" xlink:href="#DejaVuSans-48"/>
      <use x="127.246094" xlink:href="#DejaVuSans-48"/>
      <use x="190.869141" xlink:href="#DejaVuSans-48"/>
     </g>
    </g>
   </g>
   <g id="xtick_13">
    <g id="line2d_16">
     <path d="M 316.45642 142.783026 
L 319.402897 143.60447 
" style="fill:none;stroke:#000000;stroke-linecap:square;stroke-width:0.8;"/>
    </g>
    <g id="text_13">
     <!-- 10000 -->
     <g transform="translate(320.022585 148.121243)scale(0.1 -0.1)">
      <defs>
       <path d="M 12.40625 8.296875 
L 28.515625 8.296875 
L 28.515625 63.921875 
L 10.984375 60.40625 
L 10.984375 69.390625 
L 28.421875 72.90625 
L 38.28125 72.90625 
L 38.28125 8.296875 
L 54.390625 8.296875 
L 54.390625 0 
L 12.40625 0 
z
" id="DejaVuSans-49"/>
      </defs>
      <use xlink:href="#DejaVuSans-49"/>
      <use x="63.623047" xlink:href="#DejaVuSans-48"/>
      <use x="127.246094" xlink:href="#DejaVuSans-48"/>
      <use x="190.869141" xlink:href="#DejaVuSans-48"/>
      <use x="254.492188" xlink:href="#DejaVuSans-48"/>
     </g>
    </g>
   </g>
   <g id="xtick_14">
    <g id="line2d_17">
     <path d="M 317.078189 129.058682 
L 320.045333 129.869012 
" style="fill:none;stroke:#000000;stroke-linecap:square;stroke-width:0.8;"/>
    </g>
    <g id="text_14">
     <!-- 15000 -->
     <g transform="translate(320.773271 134.427549)scale(0.1 -0.1)">
      <use xlink:href="#DejaVuSans-49"/>
      <use x="63.623047" xlink:href="#DejaVuSans-53"/>
      <use x="127.246094" xlink:href="#DejaVuSans-48"/>
      <use x="190.869141" xlink:href="#DejaVuSans-48"/>
      <use x="254.492188" xlink:href="#DejaVuSans-48"/>
     </g>
    </g>
   </g>
   <g id="xtick_15">
    <g id="line2d_18">
     <path d="M 317.708409 115.147809 
L 320.696511 115.946645 
" style="fill:none;stroke:#000000;stroke-linecap:square;stroke-width:0.8;"/>
    </g>
    <g id="text_15">
     <!-- 20000 -->
     <g transform="translate(321.534125 120.548369)scale(0.1 -0.1)">
      <use xlink:href="#DejaVuSans-50"/>
      <use x="63.623047" xlink:href="#DejaVuSans-48"/>
      <use x="127.246094" xlink:href="#DejaVuSans-48"/>
      <use x="190.869141" xlink:href="#DejaVuSans-48"/>
      <use x="254.492188" xlink:href="#DejaVuSans-48"/>
     </g>
    </g>
   </g>
   <g id="xtick_16">
    <g id="line2d_19">
     <path d="M 318.347252 101.046578 
L 321.356611 101.833528 
" style="fill:none;stroke:#000000;stroke-linecap:square;stroke-width:0.8;"/>
    </g>
    <g id="text_16">
     <!-- 25000 -->
     <g transform="translate(322.305355 106.479908)scale(0.1 -0.1)">
      <use xlink:href="#DejaVuSans-50"/>
      <use x="63.623047" xlink:href="#DejaVuSans-53"/>
      <use x="127.246094" xlink:href="#DejaVuSans-48"/>
      <use x="190.869141" xlink:href="#DejaVuSans-48"/>
      <use x="254.492188" xlink:href="#DejaVuSans-48"/>
     </g>
    </g>
   </g>
   <g id="xtick_17">
    <g id="line2d_20">
     <path d="M 318.994898 86.751055 
L 322.025817 87.525715 
" style="fill:none;stroke:#000000;stroke-linecap:square;stroke-width:0.8;"/>
    </g>
    <g id="text_17">
     <!-- 30000 -->
     <g transform="translate(323.087175 92.218267)scale(0.1 -0.1)">
      <defs>
       <path d="M 40.578125 39.3125 
Q 47.65625 37.796875 51.625 33 
Q 55.609375 28.21875 55.609375 21.1875 
Q 55.609375 10.40625 48.1875 4.484375 
Q 40.765625 -1.421875 27.09375 -1.421875 
Q 22.515625 -1.421875 17.65625 -0.515625 
Q 12.796875 0.390625 7.625 2.203125 
L 7.625 11.71875 
Q 11.71875 9.328125 16.59375 8.109375 
Q 21.484375 6.890625 26.8125 6.890625 
Q 36.078125 6.890625 40.9375 10.546875 
Q 45.796875 14.203125 45.796875 21.1875 
Q 45.796875 27.640625 41.28125 31.265625 
Q 36.765625 34.90625 28.71875 34.90625 
L 20.21875 34.90625 
L 20.21875 43.015625 
L 29.109375 43.015625 
Q 36.375 43.015625 40.234375 45.921875 
Q 44.09375 48.828125 44.09375 54.296875 
Q 44.09375 59.90625 40.109375 62.90625 
Q 36.140625 65.921875 28.71875 65.921875 
Q 24.65625 65.921875 20.015625 65.03125 
Q 15.375 64.15625 9.8125 62.3125 
L 9.8125 71.09375 
Q 15.4375 72.65625 20.34375 73.4375 
Q 25.25 74.21875 29.59375 74.21875 
Q 40.828125 74.21875 47.359375 69.109375 
Q 53.90625 64.015625 53.90625 55.328125 
Q 53.90625 49.265625 50.4375 45.09375 
Q 46.96875 40.921875 40.578125 39.3125 
z
" id="DejaVuSans-51"/>
      </defs>
      <use xlink:href="#DejaVuSans-51"/>
      <use x="63.623047" xlink:href="#DejaVuSans-48"/>
      <use x="127.246094" xlink:href="#DejaVuSans-48"/>
      <use x="190.869141" xlink:href="#DejaVuSans-48"/>
      <use x="254.492188" xlink:href="#DejaVuSans-48"/>
     </g>
    </g>
   </g>
  </g>
  <g id="axes_1">
   <g id="Poly3DCollection_1">
    <path clip-path="url(#pdea5b45d33)" d="M 203.700438 142.115361 
L 203.699252 141.998482 
L 215.863412 145.549727 
L 215.863902 145.66701 
z
" style="fill:#050338;"/>
    <path clip-path="url(#pdea5b45d33)" d="M 196.401162 148.290596 
L 196.399542 148.173015 
L 203.699252 141.998482 
L 203.700438 142.115361 
z
" style="fill:#0b0777;"/>
    <path clip-path="url(#pdea5b45d33)" d="M 196.401162 148.290596 
L 203.700438 142.115361 
L 215.863902 145.66701 
L 208.637156 151.907182 
z
" style="fill:#070448;"/>
    <path clip-path="url(#pdea5b45d33)" d="M 196.399542 148.173015 
L 208.636241 151.789192 
L 215.863412 145.549727 
L 203.699252 141.998482 
z
" style="fill:#0a0667;"/>
    <path clip-path="url(#pdea5b45d33)" d="M 215.863902 145.66701 
L 215.859818 144.688681 
L 228.156873 148.274207 
L 228.155024 149.255935 
z
" style="fill:#080339;"/>
    <path clip-path="url(#pdea5b45d33)" d="M 208.637156 151.907182 
L 215.863902 145.66701 
L 215.863412 145.549727 
L 208.636241 151.789192 
z
" style="fill:#050338;"/>
    <path clip-path="url(#pdea5b45d33)" d="M 208.637156 151.907182 
L 208.629522 150.922956 
L 215.859818 144.688681 
L 215.863902 145.66701 
z
" style="fill:#110679;"/>
    <path clip-path="url(#pdea5b45d33)" d="M 196.401162 148.290596 
L 208.637156 151.907182 
L 208.636241 151.789192 
L 196.399542 148.173015 
z
" style="fill:#0b0777;"/>
    <path clip-path="url(#pdea5b45d33)" d="M 196.401162 148.290596 
L 196.397412 148.018439 
L 208.635038 151.634078 
L 208.637156 151.907182 
z
" style="fill:#050338;"/>
    <path clip-path="url(#pdea5b45d33)" d="M 208.637156 151.907182 
L 215.863902 145.66701 
L 228.155024 149.255935 
L 221.002748 155.562072 
z
" style="fill:#0a0449;"/>
    <path clip-path="url(#pdea5b45d33)" d="M 208.629522 150.922956 
L 221.001118 154.574418 
L 228.156873 148.274207 
L 215.859818 144.688681 
z
" style="fill:#0f0569;"/>
    <path clip-path="url(#pdea5b45d33)" d="M 188.96817 154.578956 
L 188.96338 154.305157 
L 196.397412 148.018439 
L 196.401162 148.290596 
z
" style="fill:#0b0777;"/>
    <path clip-path="url(#pdea5b45d33)" d="M 228.155024 149.255935 
L 228.170264 141.162676 
L 240.641005 144.761158 
L 240.575825 152.882725 
z
" style="fill:#1b0141;"/>
    <path clip-path="url(#pdea5b45d33)" d="M 221.002748 155.562072 
L 228.155024 149.255935 
L 228.156873 148.274207 
L 221.001118 154.574418 
z
" style="fill:#080339;"/>
    <path clip-path="url(#pdea5b45d33)" d="M 188.96817 154.578956 
L 196.401162 148.290596 
L 208.637156 151.907182 
L 201.27732 158.262275 
z
" style="fill:#070448;"/>
    <path clip-path="url(#pdea5b45d33)" d="M 188.96338 154.305157 
L 201.27418 157.987522 
L 208.635038 151.634078 
L 196.397412 148.018439 
z
" style="fill:#0a0667;"/>
    <path clip-path="url(#pdea5b45d33)" d="M 221.002748 155.562072 
L 220.989306 147.419691 
L 228.170264 141.162676 
L 228.155024 149.255935 
z
" style="fill:#39038b;"/>
    <path clip-path="url(#pdea5b45d33)" d="M 208.637156 151.907182 
L 221.002748 155.562072 
L 221.001118 154.574418 
L 208.629522 150.922956 
z
" style="fill:#110679;"/>
    <path clip-path="url(#pdea5b45d33)" d="M 208.637156 151.907182 
L 208.624891 150.325924 
L 221.000129 153.975304 
L 221.002748 155.562072 
z
" style="fill:#0a033a;"/>
    <path clip-path="url(#pdea5b45d33)" d="M 221.002748 155.562072 
L 228.155024 149.255935 
L 240.575825 152.882725 
L 233.500008 159.25588 
z
" style="fill:#230254;"/>
    <path clip-path="url(#pdea5b45d33)" d="M 201.27732 158.262275 
L 208.637156 151.907182 
L 208.635038 151.634078 
L 201.27418 157.987522 
z
" style="fill:#050338;"/>
    <path clip-path="url(#pdea5b45d33)" d="M 201.27732 158.262275 
L 201.259139 156.671456 
L 208.624891 150.325924 
L 208.637156 151.907182 
z
" style="fill:#16067b;"/>
    <path clip-path="url(#pdea5b45d33)" d="M 240.575825 152.882725 
L 240.649904 143.652375 
L 253.260414 147.285267 
L 253.128369 156.547983 
z
" style="fill:#1d0142;"/>
    <path clip-path="url(#pdea5b45d33)" d="M 188.96817 154.578956 
L 201.27732 158.262275 
L 201.27418 157.987522 
L 188.96338 154.305157 
z
" style="fill:#0b0777;"/>
    <path clip-path="url(#pdea5b45d33)" d="M 188.96817 154.578956 
L 188.961162 154.178397 
L 201.272726 157.86032 
L 201.27732 158.262275 
z
" style="fill:#050338;"/>
    <path clip-path="url(#pdea5b45d33)" d="M 201.27732 158.262275 
L 208.637156 151.907182 
L 221.002748 155.562072 
L 213.718049 161.984967 
z
" style="fill:#0d034a;"/>
    <path clip-path="url(#pdea5b45d33)" d="M 220.989306 147.419691 
L 233.537124 151.084938 
L 240.641005 144.761158 
L 228.170264 141.162676 
z
" style="fill:#320378;"/>
    <path clip-path="url(#pdea5b45d33)" d="M 233.500008 159.25588 
L 240.575825 152.882725 
L 240.641005 144.761158 
L 233.537124 151.084938 
z
" style="fill:#1b0141;"/>
    <path clip-path="url(#pdea5b45d33)" d="M 201.259139 156.671456 
L 213.709631 160.388589 
L 221.000129 153.975304 
L 208.624891 150.325924 
z
" style="fill:#13056b;"/>
    <path clip-path="url(#pdea5b45d33)" d="M 233.500008 159.25588 
L 233.542192 149.969366 
L 240.649904 143.652375 
L 240.575825 152.882725 
z
" style="fill:#3e038c;"/>
    <path clip-path="url(#pdea5b45d33)" d="M 181.397755 160.983577 
L 181.389168 160.580596 
L 188.961162 154.178397 
L 188.96817 154.578956 
z
" style="fill:#0b0777;"/>
    <path clip-path="url(#pdea5b45d33)" d="M 233.500008 159.25588 
L 240.575825 152.882725 
L 253.128369 156.547983 
L 246.131049 162.989229 
z
" style="fill:#250255;"/>
    <path clip-path="url(#pdea5b45d33)" d="M 221.002748 155.562072 
L 233.500008 159.25588 
L 233.537124 151.084938 
L 220.989306 147.419691 
z
" style="fill:#39038b;"/>
    <path clip-path="url(#pdea5b45d33)" d="M 213.718049 161.984967 
L 221.002748 155.562072 
L 221.000129 153.975304 
L 213.709631 160.388589 
z
" style="fill:#0a033a;"/>
    <path clip-path="url(#pdea5b45d33)" d="M 181.397755 160.983577 
L 188.96817 154.578956 
L 201.27732 158.262275 
L 193.780682 164.735494 
z
" style="fill:#070448;"/>
    <path clip-path="url(#pdea5b45d33)" d="M 181.389168 160.580596 
L 193.774538 164.331104 
L 201.272726 157.86032 
L 188.961162 154.178397 
z
" style="fill:#0a0667;"/>
    <path clip-path="url(#pdea5b45d33)" d="M 253.128369 156.547983 
L 253.249386 148.058866 
L 265.990038 151.73341 
L 265.814761 160.252323 
z
" style="fill:#1c0142;"/>
    <path clip-path="url(#pdea5b45d33)" d="M 201.27732 158.262275 
L 213.718049 161.984967 
L 213.709631 160.388589 
L 201.259139 156.671456 
z
" style="fill:#16067b;"/>
    <path clip-path="url(#pdea5b45d33)" d="M 201.27732 158.262275 
L 201.256167 156.411385 
L 213.708255 160.127608 
L 213.718049 161.984967 
z
" style="fill:#0b033b;"/>
    <path clip-path="url(#pdea5b45d33)" d="M 213.718049 161.984967 
L 221.002748 155.562072 
L 233.500008 159.25588 
L 226.292478 165.747667 
z
" style="fill:#40015a;"/>
    <path clip-path="url(#pdea5b45d33)" d="M 221.002748 155.562072 
L 220.970668 136.129542 
L 233.588593 139.754607 
L 233.500008 159.25588 
z
" style="fill:#320146;"/>
    <path clip-path="url(#pdea5b45d33)" d="M 233.542192 149.969366 
L 246.231932 153.670062 
L 253.260414 147.285267 
L 240.649904 143.652375 
z
" style="fill:#36027a;"/>
    <path clip-path="url(#pdea5b45d33)" d="M 246.131049 162.989229 
L 246.223506 154.448406 
L 253.249386 148.058866 
L 253.128369 156.547983 
z
" style="fill:#3b038b;"/>
    <path clip-path="url(#pdea5b45d33)" d="M 246.131049 162.989229 
L 253.128369 156.547983 
L 253.260414 147.285267 
L 246.231932 153.670062 
z
" style="fill:#1d0142;"/>
    <path clip-path="url(#pdea5b45d33)" d="M 193.780682 164.735494 
L 201.27732 158.262275 
L 201.272726 157.86032 
L 193.774538 164.331104 
z
" style="fill:#050338;"/>
    <path clip-path="url(#pdea5b45d33)" d="M 246.131049 162.989229 
L 253.128369 156.547983 
L 265.814761 160.252323 
L 258.898031 166.762758 
z
" style="fill:#240254;"/>
    <path clip-path="url(#pdea5b45d33)" d="M 193.780682 164.735494 
L 193.752392 162.87338 
L 201.256167 156.411385 
L 201.27732 158.262275 
z
" style="fill:#18057c;"/>
    <path clip-path="url(#pdea5b45d33)" d="M 213.718049 161.984967 
L 213.614953 142.433144 
L 220.970668 136.129542 
L 221.002748 155.562072 
z
" style="fill:#6a0195;"/>
    <path clip-path="url(#pdea5b45d33)" d="M 233.500008 159.25588 
L 246.131049 162.989229 
L 246.231932 153.670062 
L 233.542192 149.969366 
z
" style="fill:#3e038c;"/>
    <path clip-path="url(#pdea5b45d33)" d="M 265.814761 160.252323 
L 265.902471 155.989373 
L 278.752598 159.718487 
L 278.637155 163.996376 
z
" style="fill:#11023d;"/>
    <path clip-path="url(#pdea5b45d33)" d="M 181.397755 160.983577 
L 181.390003 160.619792 
L 193.775136 164.370438 
L 193.780682 164.735494 
z
" style="fill:#050338;"/>
    <path clip-path="url(#pdea5b45d33)" d="M 181.397755 160.983577 
L 193.780682 164.735494 
L 193.774538 164.331104 
L 181.389168 160.580596 
z
" style="fill:#0b0777;"/>
    <path clip-path="url(#pdea5b45d33)" d="M 193.780682 164.735494 
L 201.27732 158.262275 
L 213.718049 161.984967 
L 206.297214 168.527892 
z
" style="fill:#0e034b;"/>
    <path clip-path="url(#pdea5b45d33)" d="M 193.752392 162.87338 
L 206.280421 166.659252 
L 213.708255 160.127608 
L 201.256167 156.411385 
z
" style="fill:#15056c;"/>
    <path clip-path="url(#pdea5b45d33)" d="M 258.898031 166.762758 
L 258.971798 162.473887 
L 265.902471 155.989373 
L 265.814761 160.252323 
z
" style="fill:#250582;"/>
    <path clip-path="url(#pdea5b45d33)" d="M 173.686069 167.507715 
L 173.676839 167.141724 
L 181.390003 160.619792 
L 181.397755 160.983577 
z
" style="fill:#0b0777;"/>
    <path clip-path="url(#pdea5b45d33)" d="M 226.292478 165.747667 
L 233.500008 159.25588 
L 246.131049 162.989229 
L 239.002775 169.551023 
z
" style="fill:#490458;"/>
    <path clip-path="url(#pdea5b45d33)" d="M 246.223506 154.448406 
L 259.045446 158.191875 
L 265.990038 151.73341 
L 253.249386 148.058866 
z
" style="fill:#330379;"/>
    <path clip-path="url(#pdea5b45d33)" d="M 258.898031 166.762758 
L 265.814761 160.252323 
L 265.990038 151.73341 
L 259.045446 158.191875 
z
" style="fill:#1c0142;"/>
    <path clip-path="url(#pdea5b45d33)" d="M 233.500008 159.25588 
L 233.604762 136.195088 
L 246.381576 139.846505 
L 246.131049 162.989229 
z
" style="fill:#390345;"/>
    <path clip-path="url(#pdea5b45d33)" d="M 258.898031 166.762758 
L 265.814761 160.252323 
L 278.637155 163.996376 
L 271.803162 170.57712 
z
" style="fill:#16034f;"/>
    <path clip-path="url(#pdea5b45d33)" d="M 206.297214 168.527892 
L 213.718049 161.984967 
L 213.708255 160.127608 
L 206.280421 166.659252 
z
" style="fill:#0b033b;"/>
    <path clip-path="url(#pdea5b45d33)" d="M 226.292478 165.747667 
L 233.500008 159.25588 
L 233.588593 139.754607 
L 226.31155 146.126481 
z
" style="fill:#320146;"/>
    <path clip-path="url(#pdea5b45d33)" d="M 278.637155 163.996376 
L 278.647723 163.604738 
L 291.610911 167.387773 
L 291.597749 167.780781 
z
" style="fill:#050338;"/>
    <path clip-path="url(#pdea5b45d33)" d="M 173.686069 167.507715 
L 181.397755 160.983577 
L 193.780682 164.735494 
L 186.143392 171.330164 
z
" style="fill:#070448;"/>
    <path clip-path="url(#pdea5b45d33)" d="M 173.676839 167.141724 
L 186.136395 170.96289 
L 193.775136 164.370438 
L 181.390003 160.619792 
z
" style="fill:#0a0667;"/>
    <path clip-path="url(#pdea5b45d33)" d="M 246.131049 162.989229 
L 258.898031 166.762758 
L 259.045446 158.191875 
L 246.223506 154.448406 
z
" style="fill:#3b038b;"/>
    <path clip-path="url(#pdea5b45d33)" d="M 226.292478 165.747667 
L 226.315031 142.544694 
L 233.604762 136.195088 
L 233.500008 159.25588 
z
" style="fill:#780792;"/>
    <path clip-path="url(#pdea5b45d33)" d="M 258.971798 162.473887 
L 271.905023 166.27318 
L 278.752598 159.718487 
L 265.902471 155.989373 
z
" style="fill:#200471;"/>
    <path clip-path="url(#pdea5b45d33)" d="M 193.780682 164.735494 
L 206.297214 168.527892 
L 206.280421 166.659252 
L 193.752392 162.87338 
z
" style="fill:#18057c;"/>
    <path clip-path="url(#pdea5b45d33)" d="M 193.780682 164.735494 
L 193.741262 162.140772 
L 206.273814 165.924072 
L 206.297214 168.527892 
z
" style="fill:#0d023b;"/>
    <path clip-path="url(#pdea5b45d33)" d="M 206.297214 168.527892 
L 213.718049 161.984967 
L 226.292478 165.747667 
L 218.949524 172.361429 
z
" style="fill:#5c144f;"/>
    <path clip-path="url(#pdea5b45d33)" d="M 213.718049 161.984967 
L 226.292478 165.747667 
L 226.31155 146.126481 
L 213.614953 142.433144 
z
" style="fill:#6a0195;"/>
    <path clip-path="url(#pdea5b45d33)" d="M 271.803162 170.57712 
L 271.812487 170.183104 
L 278.647723 163.604738 
L 278.637155 163.996376 
z
" style="fill:#0b0777;"/>
    <path clip-path="url(#pdea5b45d33)" d="M 213.614953 142.433144 
L 226.31155 146.126481 
L 233.588593 139.754607 
L 220.970668 136.129542 
z
" style="fill:#5c0181;"/>
    <path clip-path="url(#pdea5b45d33)" d="M 271.803162 170.57712 
L 278.637155 163.996376 
L 278.752598 159.718487 
L 271.905023 166.27318 
z
" style="fill:#11023d;"/>
    <path clip-path="url(#pdea5b45d33)" d="M 186.143392 171.330164 
L 193.780682 164.735494 
L 193.775136 164.370438 
L 186.136395 170.96289 
z
" style="fill:#050338;"/>
    <path clip-path="url(#pdea5b45d33)" d="M 239.002775 169.551023 
L 246.131049 162.989229 
L 258.898031 166.762758 
L 251.851153 173.395697 
z
" style="fill:#470359;"/>
    <path clip-path="url(#pdea5b45d33)" d="M 186.143392 171.330164 
L 186.093657 168.719656 
L 193.741262 162.140772 
L 193.780682 164.735494 
z
" style="fill:#1c057e;"/>
    <path clip-path="url(#pdea5b45d33)" d="M 246.131049 162.989229 
L 246.37513 140.441941 
L 259.287212 144.135266 
L 258.898031 166.762758 
z
" style="fill:#380345;"/>
    <path clip-path="url(#pdea5b45d33)" d="M 271.803162 170.57712 
L 278.637155 163.996376 
L 291.597749 167.780781 
L 284.848695 174.43298 
z
" style="fill:#070448;"/>
    <path clip-path="url(#pdea5b45d33)" d="M 271.812487 170.183104 
L 284.860648 174.037583 
L 291.610911 167.387773 
L 278.647723 163.604738 
z
" style="fill:#0a0667;"/>
    <path clip-path="url(#pdea5b45d33)" d="M 258.898031 166.762758 
L 271.803162 170.57712 
L 271.905023 166.27318 
L 258.971798 162.473887 
z
" style="fill:#250582;"/>
    <path clip-path="url(#pdea5b45d33)" d="M 173.686069 167.507715 
L 186.143392 171.330164 
L 186.136395 170.96289 
L 173.676839 167.141724 
z
" style="fill:#0b0777;"/>
    <path clip-path="url(#pdea5b45d33)" d="M 173.686069 167.507715 
L 173.67457 167.051726 
L 186.134674 170.872577 
L 186.143392 171.330164 
z
" style="fill:#070339;"/>
    <path clip-path="url(#pdea5b45d33)" d="M 213.718049 161.984967 
L 213.547734 129.685121 
L 226.323986 133.332129 
L 226.292478 165.747667 
z
" style="fill:#48103d;"/>
    <path clip-path="url(#pdea5b45d33)" d="M 291.597749 167.780781 
L 291.602978 167.624625 
L 304.705071 171.449493 
L 304.698789 171.606197 
z
" style="fill:#050338;"/>
    <path clip-path="url(#pdea5b45d33)" d="M 186.143392 171.330164 
L 193.780682 164.735494 
L 206.297214 168.527892 
L 198.736391 175.194243 
z
" style="fill:#11034c;"/>
    <path clip-path="url(#pdea5b45d33)" d="M 239.002775 169.551023 
L 239.168573 146.864553 
L 246.37513 140.441941 
L 246.131049 162.989229 
z
" style="fill:#760693;"/>
    <path clip-path="url(#pdea5b45d33)" d="M 239.002775 169.551023 
L 246.131049 162.989229 
L 246.381576 139.846505 
L 239.172951 146.265377 
z
" style="fill:#390345;"/>
    <path clip-path="url(#pdea5b45d33)" d="M 186.093657 168.719656 
L 198.702872 172.57456 
L 206.273814 165.924072 
L 193.741262 162.140772 
z
" style="fill:#18046d;"/>
    <path clip-path="url(#pdea5b45d33)" d="M 165.82912 174.154745 
L 165.815713 173.695983 
L 173.67457 167.051726 
L 173.686069 167.507715 
z
" style="fill:#0e0678;"/>
    <path clip-path="url(#pdea5b45d33)" d="M 206.297214 168.527892 
L 206.005146 136.027275 
L 213.547734 129.685121 
L 213.718049 161.984967 
z
" style="fill:#982182;"/>
    <path clip-path="url(#pdea5b45d33)" d="M 258.898031 166.762758 
L 259.121859 153.749097 
L 272.112245 157.51743 
L 271.803162 170.57712 
z
" style="fill:#250145;"/>
    <path clip-path="url(#pdea5b45d33)" d="M 218.949524 172.361429 
L 226.292478 165.747667 
L 239.002775 169.551023 
L 231.739835 176.23678 
z
" style="fill:#682144;"/>
    <path clip-path="url(#pdea5b45d33)" d="M 284.848695 174.43298 
L 284.853444 174.275875 
L 291.602978 167.624625 
L 291.597749 167.780781 
z
" style="fill:#0b0777;"/>
    <path clip-path="url(#pdea5b45d33)" d="M 284.848695 174.43298 
L 291.597749 167.780781 
L 291.610911 167.387773 
L 284.860648 174.037583 
z
" style="fill:#050338;"/>
    <path clip-path="url(#pdea5b45d33)" d="M 226.292478 165.747667 
L 239.002775 169.551023 
L 239.172951 146.265377 
L 226.315031 142.544694 
z
" style="fill:#780792;"/>
    <path clip-path="url(#pdea5b45d33)" d="M 251.851153 173.395697 
L 258.898031 166.762758 
L 271.803162 170.57712 
L 264.839875 177.282368 
z
" style="fill:#2f0158;"/>
    <path clip-path="url(#pdea5b45d33)" d="M 198.736391 175.194243 
L 206.297214 168.527892 
L 206.273814 165.924072 
L 198.702872 172.57456 
z
" style="fill:#0d023b;"/>
    <path clip-path="url(#pdea5b45d33)" d="M 251.851153 173.395697 
L 252.031028 160.302165 
L 259.121859 153.749097 
L 258.898031 166.762758 
z
" style="fill:#4d0191;"/>
    <path clip-path="url(#pdea5b45d33)" d="M 226.315031 142.544694 
L 239.172951 146.265377 
L 246.381576 139.846505 
L 233.604762 136.195088 
z
" style="fill:#69067f;"/>
    <path clip-path="url(#pdea5b45d33)" d="M 271.803162 170.57712 
L 284.848695 174.43298 
L 284.860648 174.037583 
L 271.812487 170.183104 
z
" style="fill:#0b0777;"/>
    <path clip-path="url(#pdea5b45d33)" d="M 271.803162 170.57712 
L 271.819511 169.886346 
L 284.86965 173.739782 
L 284.848695 174.43298 
z
" style="fill:#070339;"/>
    <path clip-path="url(#pdea5b45d33)" d="M 165.82912 174.154745 
L 173.686069 167.507715 
L 186.143392 171.330164 
L 178.361455 178.049733 
z
" style="fill:#090449;"/>
    <path clip-path="url(#pdea5b45d33)" d="M 165.815713 173.695983 
L 178.350862 177.589361 
L 186.134674 170.872577 
L 173.67457 167.051726 
z
" style="fill:#0c0668;"/>
    <path clip-path="url(#pdea5b45d33)" d="M 284.848695 174.43298 
L 291.597749 167.780781 
L 304.698789 171.606197 
L 298.036935 178.33102 
z
" style="fill:#070448;"/>
    <path clip-path="url(#pdea5b45d33)" d="M 284.853444 174.275875 
L 298.042751 178.173363 
L 304.705071 171.449493 
L 291.602978 167.624625 
z
" style="fill:#0a0667;"/>
    <path clip-path="url(#pdea5b45d33)" d="M 186.143392 171.330164 
L 198.736391 175.194243 
L 198.702872 172.57456 
L 186.093657 168.719656 
z
" style="fill:#1c057e;"/>
    <path clip-path="url(#pdea5b45d33)" d="M 186.143392 171.330164 
L 186.089875 168.521118 
L 198.700323 172.375323 
L 198.736391 175.194243 
z
" style="fill:#0e023c;"/>
    <path clip-path="url(#pdea5b45d33)" d="M 198.736391 175.194243 
L 206.297214 168.527892 
L 218.949524 172.361429 
L 211.467294 179.100638 
z
" style="fill:#6e283e;"/>
    <path clip-path="url(#pdea5b45d33)" d="M 264.839875 177.282368 
L 264.853957 176.587388 
L 271.819511 169.886346 
L 271.803162 170.57712 
z
" style="fill:#0e0678;"/>
    <path clip-path="url(#pdea5b45d33)" d="M 251.851153 173.395697 
L 258.898031 166.762758 
L 259.287212 144.135266 
L 252.163925 150.628304 
z
" style="fill:#380345;"/>
    <path clip-path="url(#pdea5b45d33)" d="M 226.292478 165.747667 
L 226.330617 126.510387 
L 239.290564 130.172243 
L 239.002775 169.551023 
z
" style="fill:#511a35;"/>
    <path clip-path="url(#pdea5b45d33)" d="M 178.361455 178.049733 
L 186.143392 171.330164 
L 186.134674 170.872577 
L 178.350862 177.589361 
z
" style="fill:#070339;"/>
    <path clip-path="url(#pdea5b45d33)" d="M 218.949524 172.361429 
L 226.292478 165.747667 
L 226.323986 133.332129 
L 218.861804 139.744063 
z
" style="fill:#48103d;"/>
    <path clip-path="url(#pdea5b45d33)" d="M 231.739835 176.23678 
L 239.002775 169.551023 
L 251.851153 173.395697 
L 244.670417 180.154631 
z
" style="fill:#651e47;"/>
    <path clip-path="url(#pdea5b45d33)" d="M 298.036935 178.33102 
L 304.698789 171.606197 
L 304.705071 171.449493 
L 298.042751 178.173363 
z
" style="fill:#050338;"/>
    <path clip-path="url(#pdea5b45d33)" d="M 178.361455 178.049733 
L 178.296423 175.223554 
L 186.089875 168.521118 
L 186.143392 171.330164 
z
" style="fill:#1e057f;"/>
    <path clip-path="url(#pdea5b45d33)" d="M 239.002775 169.551023 
L 251.851153 173.395697 
L 252.163925 150.628304 
L 239.168573 146.864553 
z
" style="fill:#760693;"/>
    <path clip-path="url(#pdea5b45d33)" d="M 264.839875 177.282368 
L 271.803162 170.57712 
L 284.848695 174.43298 
L 277.971253 181.211726 
z
" style="fill:#090449;"/>
    <path clip-path="url(#pdea5b45d33)" d="M 218.949524 172.361429 
L 218.84334 132.878588 
L 226.330617 126.510387 
L 226.292478 165.747667 
z
" style="fill:#ac3671;"/>
    <path clip-path="url(#pdea5b45d33)" d="M 264.853957 176.587388 
L 277.990003 180.514302 
L 284.86965 173.739782 
L 271.819511 169.886346 
z
" style="fill:#0c0668;"/>
    <path clip-path="url(#pdea5b45d33)" d="M 239.168573 146.864553 
L 252.163925 150.628304 
L 259.287212 144.135266 
L 246.37513 140.441941 
z
" style="fill:#660580;"/>
    <path clip-path="url(#pdea5b45d33)" d="M 165.82912 174.154745 
L 178.361455 178.049733 
L 178.350862 177.589361 
L 165.815713 173.695983 
z
" style="fill:#0e0678;"/>
    <path clip-path="url(#pdea5b45d33)" d="M 206.297214 168.527892 
L 218.949524 172.361429 
L 218.861804 139.744063 
L 206.005146 136.027275 
z
" style="fill:#982182;"/>
    <path clip-path="url(#pdea5b45d33)" d="M 165.82912 174.154745 
L 165.811606 173.555483 
L 178.347618 177.448366 
L 178.361455 178.049733 
z
" style="fill:#070339;"/>
    <path clip-path="url(#pdea5b45d33)" d="M 264.839875 177.282368 
L 271.803162 170.57712 
L 272.112245 157.51743 
L 265.106125 164.142405 
z
" style="fill:#250145;"/>
    <path clip-path="url(#pdea5b45d33)" d="M 284.848695 174.43298 
L 298.036935 178.33102 
L 298.042751 178.173363 
L 284.853444 174.275875 
z
" style="fill:#0b0777;"/>
    <path clip-path="url(#pdea5b45d33)" d="M 284.848695 174.43298 
L 284.855134 174.219978 
L 298.04482 178.11727 
L 298.036935 178.33102 
z
" style="fill:#050338;"/>
    <path clip-path="url(#pdea5b45d33)" d="M 252.031028 160.302165 
L 265.106125 164.142405 
L 272.112245 157.51743 
L 259.121859 153.749097 
z
" style="fill:#43017e;"/>
    <path clip-path="url(#pdea5b45d33)" d="M 178.361455 178.049733 
L 186.143392 171.330164 
L 198.736391 175.194243 
L 191.031582 181.987547 
z
" style="fill:#12034d;"/>
    <path clip-path="url(#pdea5b45d33)" d="M 157.822766 180.928173 
L 157.802666 180.325258 
L 165.811606 173.555483 
L 165.82912 174.154745 
z
" style="fill:#0e0678;"/>
    <path clip-path="url(#pdea5b45d33)" d="M 178.296423 175.223554 
L 190.984212 179.151409 
L 198.700323 172.375323 
L 186.089875 168.521118 
z
" style="fill:#1a046e;"/>
    <path clip-path="url(#pdea5b45d33)" d="M 251.851153 173.395697 
L 264.839875 177.282368 
L 265.106125 164.142405 
L 252.031028 160.302165 
z
" style="fill:#4d0191;"/>
    <path clip-path="url(#pdea5b45d33)" d="M 211.467294 179.100638 
L 218.949524 172.361429 
L 231.739835 176.23678 
L 224.338378 183.050047 
z
" style="fill:#7c3c2f;"/>
    <path clip-path="url(#pdea5b45d33)" d="M 277.971253 181.211726 
L 277.977014 180.997425 
L 284.855134 174.219978 
L 284.848695 174.43298 
z
" style="fill:#0b0777;"/>
    <path clip-path="url(#pdea5b45d33)" d="M 277.971253 181.211726 
L 284.848695 174.43298 
L 284.86965 173.739782 
L 277.990003 180.514302 
z
" style="fill:#070339;"/>
    <path clip-path="url(#pdea5b45d33)" d="M 206.297214 168.527892 
L 205.908787 125.304606 
L 218.832859 128.98162 
L 218.949524 172.361429 
z
" style="fill:#561f31;"/>
    <path clip-path="url(#pdea5b45d33)" d="M 239.002775 169.551023 
L 239.277655 131.938564 
L 252.369727 135.647548 
L 251.851153 173.395697 
z
" style="fill:#4f1737;"/>
    <path clip-path="url(#pdea5b45d33)" d="M 206.005146 136.027275 
L 218.861804 139.744063 
L 226.323986 133.332129 
L 213.547734 129.685121 
z
" style="fill:#841d71;"/>
    <path clip-path="url(#pdea5b45d33)" d="M 244.670417 180.154631 
L 251.851153 173.395697 
L 264.839875 177.282368 
L 257.743589 184.115686 
z
" style="fill:#4e0857;"/>
    <path clip-path="url(#pdea5b45d33)" d="M 191.031582 181.987547 
L 198.736391 175.194243 
L 198.700323 172.375323 
L 190.984212 179.151409 
z
" style="fill:#0e023c;"/>
    <path clip-path="url(#pdea5b45d33)" d="M 264.839875 177.282368 
L 277.971253 181.211726 
L 277.990003 180.514302 
L 264.853957 176.587388 
z
" style="fill:#0e0678;"/>
    <path clip-path="url(#pdea5b45d33)" d="M 157.822766 180.928173 
L 165.82912 174.154745 
L 178.361455 178.049733 
L 170.430723 184.897786 
z
" style="fill:#090449;"/>
    <path clip-path="url(#pdea5b45d33)" d="M 264.839875 177.282368 
L 264.870451 175.773371 
L 278.011965 179.697419 
L 277.971253 181.211726 
z
" style="fill:#0a033a;"/>
    <path clip-path="url(#pdea5b45d33)" d="M 198.736391 175.194243 
L 198.179868 131.699321 
L 205.908787 125.304606 
L 206.297214 168.527892 
z
" style="fill:#b64267;"/>
    <path clip-path="url(#pdea5b45d33)" d="M 231.739835 176.23678 
L 231.879909 138.388845 
L 239.277655 131.938564 
L 239.002775 169.551023 
z
" style="fill:#a83175;"/>
    <path clip-path="url(#pdea5b45d33)" d="M 157.802666 180.325258 
L 170.414342 184.292749 
L 178.347618 177.448366 
L 165.811606 173.555483 
z
" style="fill:#0c0668;"/>
    <path clip-path="url(#pdea5b45d33)" d="M 277.971253 181.211726 
L 284.848695 174.43298 
L 298.036935 178.33102 
L 291.24765 185.184478 
z
" style="fill:#070448;"/>
    <path clip-path="url(#pdea5b45d33)" d="M 277.977014 180.997425 
L 291.254878 184.969424 
L 298.04482 178.11727 
L 284.855134 174.219978 
z
" style="fill:#0a0667;"/>
    <path clip-path="url(#pdea5b45d33)" d="M 231.739835 176.23678 
L 239.002775 169.551023 
L 239.290564 130.172243 
L 231.886488 136.611137 
z
" style="fill:#511a35;"/>
    <path clip-path="url(#pdea5b45d33)" d="M 251.851153 173.395697 
L 252.205468 147.604336 
L 265.364347 151.398652 
L 264.839875 177.282368 
z
" style="fill:#3d0644;"/>
    <path clip-path="url(#pdea5b45d33)" d="M 178.361455 178.049733 
L 191.031582 181.987547 
L 190.984212 179.151409 
L 178.296423 175.223554 
z
" style="fill:#1e057f;"/>
    <path clip-path="url(#pdea5b45d33)" d="M 191.031582 181.987547 
L 198.736391 175.194243 
L 211.467294 179.100638 
L 203.841786 185.968896 
z
" style="fill:#743038;"/>
    <path clip-path="url(#pdea5b45d33)" d="M 178.361455 178.049733 
L 178.285982 174.769808 
L 190.976606 178.696061 
L 191.031582 181.987547 
z
" style="fill:#0f023c;"/>
    <path clip-path="url(#pdea5b45d33)" d="M 257.743589 184.115686 
L 257.769049 182.597476 
L 264.870451 175.773371 
L 264.839875 177.282368 
z
" style="fill:#16067b;"/>
    <path clip-path="url(#pdea5b45d33)" d="M 218.949524 172.361429 
L 231.739835 176.23678 
L 231.886488 136.611137 
L 218.84334 132.878588 
z
" style="fill:#ac3671;"/>
    <path clip-path="url(#pdea5b45d33)" d="M 244.670417 180.154631 
L 244.934776 154.203008 
L 252.205468 147.604336 
L 251.851153 173.395697 
z
" style="fill:#810e90;"/>
    <path clip-path="url(#pdea5b45d33)" d="M 170.430723 184.897786 
L 178.361455 178.049733 
L 178.347618 177.448366 
L 170.414342 184.292749 
z
" style="fill:#070339;"/>
    <path clip-path="url(#pdea5b45d33)" d="M 224.338378 183.050047 
L 231.739835 176.23678 
L 244.670417 180.154631 
L 237.351973 187.043183 
z
" style="fill:#793733;"/>
    <path clip-path="url(#pdea5b45d33)" d="M 291.24765 185.184478 
L 298.036935 178.33102 
L 298.04482 178.11727 
L 291.254878 184.969424 
z
" style="fill:#050338;"/>
    <path clip-path="url(#pdea5b45d33)" d="M 170.430723 184.897786 
L 170.341383 181.597801 
L 178.285982 174.769808 
L 178.361455 178.049733 
z
" style="fill:#200580;"/>
    <path clip-path="url(#pdea5b45d33)" d="M 257.743589 184.115686 
L 264.839875 177.282368 
L 277.971253 181.211726 
L 270.961723 188.120663 
z
" style="fill:#0d034a;"/>
    <path clip-path="url(#pdea5b45d33)" d="M 157.822766 180.928173 
L 157.803463 180.349138 
L 170.414991 184.316713 
L 170.430723 184.897786 
z
" style="fill:#070339;"/>
    <path clip-path="url(#pdea5b45d33)" d="M 157.822766 180.928173 
L 170.430723 184.897786 
L 170.414342 184.292749 
L 157.802666 180.325258 
z
" style="fill:#0e0678;"/>
    <path clip-path="url(#pdea5b45d33)" d="M 257.769049 182.597476 
L 270.997455 186.597098 
L 278.011965 179.697419 
L 264.870451 175.773371 
z
" style="fill:#13056b;"/>
    <path clip-path="url(#pdea5b45d33)" d="M 277.971253 181.211726 
L 291.24765 185.184478 
L 291.254878 184.969424 
L 277.977014 180.997425 
z
" style="fill:#0b0777;"/>
    <path clip-path="url(#pdea5b45d33)" d="M 277.971253 181.211726 
L 277.978812 180.930551 
L 291.257133 184.902313 
L 291.24765 185.184478 
z
" style="fill:#050338;"/>
    <path clip-path="url(#pdea5b45d33)" d="M 170.430723 184.897786 
L 178.361455 178.049733 
L 191.031582 181.987547 
L 183.178635 188.911464 
z
" style="fill:#13034d;"/>
    <path clip-path="url(#pdea5b45d33)" d="M 211.467294 179.100638 
L 218.949524 172.361429 
L 218.832859 128.98162 
L 211.185943 135.447747 
z
" style="fill:#561f31;"/>
    <path clip-path="url(#pdea5b45d33)" d="M 244.670417 180.154631 
L 251.851153 173.395697 
L 252.369727 135.647548 
L 245.057354 142.169769 
z
" style="fill:#4f1737;"/>
    <path clip-path="url(#pdea5b45d33)" d="M 218.949524 172.361429 
L 218.802521 117.700754 
L 231.942872 121.37614 
L 231.739835 176.23678 
z
" style="fill:#612f25;"/>
    <path clip-path="url(#pdea5b45d33)" d="M 149.662704 187.831639 
L 149.640824 187.249067 
L 157.803463 180.349138 
L 157.822766 180.928173 
z
" style="fill:#0e0678;"/>
    <path clip-path="url(#pdea5b45d33)" d="M 203.841786 185.968896 
L 211.467294 179.100638 
L 224.338378 183.050047 
L 216.794403 189.994506 
z
" style="fill:#86561f;"/>
    <path clip-path="url(#pdea5b45d33)" d="M 170.341383 181.597801 
L 183.110042 185.599822 
L 190.976606 178.696061 
L 178.285982 174.769808 
z
" style="fill:#1b046f;"/>
    <path clip-path="url(#pdea5b45d33)" d="M 270.961723 188.120663 
L 270.968358 187.83777 
L 277.978812 180.930551 
L 277.971253 181.211726 
z
" style="fill:#0b0777;"/>
    <path clip-path="url(#pdea5b45d33)" d="M 218.84334 132.878588 
L 231.886488 136.611137 
L 239.290564 130.172243 
L 226.330617 126.510387 
z
" style="fill:#952f62;"/>
    <path clip-path="url(#pdea5b45d33)" d="M 270.961723 188.120663 
L 277.971253 181.211726 
L 278.011965 179.697419 
L 270.997455 186.597098 
z
" style="fill:#0a033a;"/>
    <path clip-path="url(#pdea5b45d33)" d="M 198.736391 175.194243 
L 211.467294 179.100638 
L 211.185943 135.447747 
L 198.179868 131.699321 
z
" style="fill:#b64267;"/>
    <path clip-path="url(#pdea5b45d33)" d="M 231.739835 176.23678 
L 244.670417 180.154631 
L 245.057354 142.169769 
L 231.879909 138.388845 
z
" style="fill:#a83175;"/>
    <path clip-path="url(#pdea5b45d33)" d="M 257.743589 184.115686 
L 264.839875 177.282368 
L 265.364347 151.398652 
L 258.180353 158.070892 
z
" style="fill:#3d0644;"/>
    <path clip-path="url(#pdea5b45d33)" d="M 211.467294 179.100638 
L 211.112759 124.092929 
L 218.802521 117.700754 
L 218.949524 172.361429 
z
" style="fill:#ce644e;"/>
    <path clip-path="url(#pdea5b45d33)" d="M 237.351973 187.043183 
L 244.670417 180.154631 
L 257.743589 184.115686 
L 250.510457 191.080779 
z
" style="fill:#672045;"/>
    <path clip-path="url(#pdea5b45d33)" d="M 198.736391 175.194243 
L 198.123057 127.259308 
L 211.157219 130.991024 
L 211.467294 179.100638 
z
" style="fill:#5b252c;"/>
    <path clip-path="url(#pdea5b45d33)" d="M 183.178635 188.911464 
L 191.031582 181.987547 
L 190.976606 178.696061 
L 183.110042 185.599822 
z
" style="fill:#0f023c;"/>
    <path clip-path="url(#pdea5b45d33)" d="M 149.662704 187.831639 
L 157.822766 180.928173 
L 170.430723 184.897786 
L 162.346885 191.878042 
z
" style="fill:#090449;"/>
    <path clip-path="url(#pdea5b45d33)" d="M 257.743589 184.115686 
L 270.961723 188.120663 
L 270.997455 186.597098 
L 257.769049 182.597476 
z
" style="fill:#16067b;"/>
    <path clip-path="url(#pdea5b45d33)" d="M 149.640824 187.249067 
L 162.32862 191.293415 
L 170.414991 184.316713 
L 157.803463 180.349138 
z
" style="fill:#0c0668;"/>
    <path clip-path="url(#pdea5b45d33)" d="M 270.961723 188.120663 
L 277.971253 181.211726 
L 291.24765 185.184478 
L 284.327244 192.170297 
z
" style="fill:#070448;"/>
    <path clip-path="url(#pdea5b45d33)" d="M 257.743589 184.115686 
L 257.803277 180.556424 
L 271.045492 184.548828 
L 270.961723 188.120663 
z
" style="fill:#10023d;"/>
    <path clip-path="url(#pdea5b45d33)" d="M 270.968358 187.83777 
L 284.335829 191.886406 
L 291.257133 184.902313 
L 277.978812 180.930551 
z
" style="fill:#0a0667;"/>
    <path clip-path="url(#pdea5b45d33)" d="M 244.670417 180.154631 
L 257.743589 184.115686 
L 258.180353 158.070892 
L 244.934776 154.203008 
z
" style="fill:#810e90;"/>
    <path clip-path="url(#pdea5b45d33)" d="M 191.031582 181.987547 
L 190.225887 133.749471 
L 198.123057 127.259308 
L 198.736391 175.194243 
z
" style="fill:#c04f5d;"/>
    <path clip-path="url(#pdea5b45d33)" d="M 183.178635 188.911464 
L 191.031582 181.987547 
L 203.841786 185.968896 
L 196.068846 192.969946 
z
" style="fill:#763236;"/>
    <path clip-path="url(#pdea5b45d33)" d="M 170.430723 184.897786 
L 183.178635 188.911464 
L 183.110042 185.599822 
L 170.341383 181.597801 
z
" style="fill:#200580;"/>
    <path clip-path="url(#pdea5b45d33)" d="M 231.739835 176.23678 
L 231.932944 124.058709 
L 245.203879 127.785731 
L 244.670417 180.154631 
z
" style="fill:#5f2b28;"/>
    <path clip-path="url(#pdea5b45d33)" d="M 170.430723 184.897786 
L 170.330805 181.207086 
L 183.101921 185.207722 
L 183.178635 188.911464 
z
" style="fill:#10023d;"/>
    <path clip-path="url(#pdea5b45d33)" d="M 244.934776 154.203008 
L 258.180353 158.070892 
L 265.364347 151.398652 
L 252.205468 147.604336 
z
" style="fill:#700c7d;"/>
    <path clip-path="url(#pdea5b45d33)" d="M 250.510457 191.080779 
L 250.557672 187.499702 
L 257.803277 180.556424 
L 257.743589 184.115686 
z
" style="fill:#210581;"/>
    <path clip-path="url(#pdea5b45d33)" d="M 231.879909 138.388845 
L 245.057354 142.169769 
L 252.369727 135.647548 
L 239.277655 131.938564 
z
" style="fill:#912b66;"/>
    <path clip-path="url(#pdea5b45d33)" d="M 162.346885 191.878042 
L 170.430723 184.897786 
L 170.414991 184.316713 
L 162.32862 191.293415 
z
" style="fill:#070339;"/>
    <path clip-path="url(#pdea5b45d33)" d="M 216.794403 189.994506 
L 224.338378 183.050047 
L 237.351973 187.043183 
L 229.891821 194.06512 
z
" style="fill:#855022;"/>
    <path clip-path="url(#pdea5b45d33)" d="M 284.327244 192.170297 
L 291.24765 185.184478 
L 291.257133 184.902313 
L 284.335829 191.886406 
z
" style="fill:#050338;"/>
    <path clip-path="url(#pdea5b45d33)" d="M 224.338378 183.050047 
L 224.338378 130.540804 
L 231.932944 124.058709 
L 231.739835 176.23678 
z
" style="fill:#c95c54;"/>
    <path clip-path="url(#pdea5b45d33)" d="M 162.346885 191.878042 
L 162.230873 188.164714 
L 170.330805 181.207086 
L 170.430723 184.897786 
z
" style="fill:#210581;"/>
    <path clip-path="url(#pdea5b45d33)" d="M 198.179868 131.699321 
L 211.185943 135.447747 
L 218.832859 128.98162 
L 205.908787 125.304606 
z
" style="fill:#9e395a;"/>
    <path clip-path="url(#pdea5b45d33)" d="M 244.670417 180.154631 
L 245.071956 140.736366 
L 258.40702 144.554431 
L 257.743589 184.115686 
z
" style="fill:#511936;"/>
    <path clip-path="url(#pdea5b45d33)" d="M 224.338378 183.050047 
L 231.739835 176.23678 
L 231.942872 121.37614 
L 224.338378 127.840502 
z
" style="fill:#612f25;"/>
    <path clip-path="url(#pdea5b45d33)" d="M 250.510457 191.080779 
L 257.743589 184.115686 
L 270.961723 188.120663 
L 263.816264 195.163579 
z
" style="fill:#14034e;"/>
    <path clip-path="url(#pdea5b45d33)" d="M 149.662704 187.831639 
L 162.346885 191.878042 
L 162.32862 191.293415 
L 149.640824 187.249067 
z
" style="fill:#0e0678;"/>
    <path clip-path="url(#pdea5b45d33)" d="M 149.662704 187.831639 
L 149.63646 187.132862 
L 162.324976 191.176799 
L 162.346885 191.878042 
z
" style="fill:#070339;"/>
    <path clip-path="url(#pdea5b45d33)" d="M 270.961723 188.120663 
L 284.327244 192.170297 
L 284.335829 191.886406 
L 270.968358 187.83777 
z
" style="fill:#0b0777;"/>
    <path clip-path="url(#pdea5b45d33)" d="M 270.961723 188.120663 
L 270.973295 187.627247 
L 284.342217 191.67514 
L 284.327244 192.170297 
z
" style="fill:#070339;"/>
    <path clip-path="url(#pdea5b45d33)" d="M 162.346885 191.878042 
L 170.430723 184.897786 
L 183.178635 188.911464 
L 175.173234 195.969799 
z
" style="fill:#14034e;"/>
    <path clip-path="url(#pdea5b45d33)" d="M 237.351973 187.043183 
L 237.611492 147.376783 
L 245.071956 140.736366 
L 244.670417 180.154631 
z
" style="fill:#ab3572;"/>
    <path clip-path="url(#pdea5b45d33)" d="M 250.557672 187.499702 
L 263.887883 191.569826 
L 271.045492 184.548828 
L 257.803277 180.556424 
z
" style="fill:#1d0470;"/>
    <path clip-path="url(#pdea5b45d33)" d="M 211.467294 179.100638 
L 224.338378 183.050047 
L 224.338378 127.840502 
L 211.112759 124.092929 
z
" style="fill:#ce644e;"/>
    <path clip-path="url(#pdea5b45d33)" d="M 203.841786 185.968896 
L 211.467294 179.100638 
L 211.157219 130.991024 
L 203.343164 137.554535 
z
" style="fill:#5b252c;"/>
    <path clip-path="url(#pdea5b45d33)" d="M 141.344465 194.868925 
L 141.315014 194.165869 
L 149.63646 187.132862 
L 149.662704 187.831639 
z
" style="fill:#0e0678;"/>
    <path clip-path="url(#pdea5b45d33)" d="M 196.068846 192.969946 
L 203.841786 185.968896 
L 216.794403 189.994506 
L 209.103753 197.073984 
z
" style="fill:#866e14;"/>
    <path clip-path="url(#pdea5b45d33)" d="M 263.816264 195.163579 
L 263.826157 194.667143 
L 270.973295 187.627247 
L 270.961723 188.120663 
z
" style="fill:#0e0678;"/>
    <path clip-path="url(#pdea5b45d33)" d="M 162.230873 188.164714 
L 175.080709 192.243321 
L 183.101921 185.207722 
L 170.330805 181.207086 
z
" style="fill:#1d0470;"/>
    <path clip-path="url(#pdea5b45d33)" d="M 263.816264 195.163579 
L 270.961723 188.120663 
L 271.045492 184.548828 
L 263.887883 191.569826 
z
" style="fill:#10023d;"/>
    <path clip-path="url(#pdea5b45d33)" d="M 229.891821 194.06512 
L 237.351973 187.043183 
L 250.510457 191.080779 
L 243.136481 198.181496 
z
" style="fill:#793733;"/>
    <path clip-path="url(#pdea5b45d33)" d="M 191.031582 181.987547 
L 203.841786 185.968896 
L 203.343164 137.554535 
L 190.225887 133.749471 
z
" style="fill:#c04f5d;"/>
    <path clip-path="url(#pdea5b45d33)" d="M 191.031582 181.987547 
L 190.201319 132.278563 
L 203.327957 136.078048 
L 203.841786 185.968896 
z
" style="fill:#5c272b;"/>
    <path clip-path="url(#pdea5b45d33)" d="M 237.351973 187.043183 
L 244.670417 180.154631 
L 245.203879 127.785731 
L 237.696778 134.341346 
z
" style="fill:#5f2b28;"/>
    <path clip-path="url(#pdea5b45d33)" d="M 175.173234 195.969799 
L 183.178635 188.911464 
L 183.101921 185.207722 
L 175.080709 192.243321 
z
" style="fill:#10023d;"/>
    <path clip-path="url(#pdea5b45d33)" d="M 211.467294 179.100638 
L 211.031862 111.541322 
L 224.338378 115.240493 
L 224.338378 183.050047 
z
" style="fill:#694318;"/>
    <path clip-path="url(#pdea5b45d33)" d="M 141.344465 194.868925 
L 149.662704 187.831639 
L 162.346885 191.878042 
L 154.105465 198.994368 
z
" style="fill:#090449;"/>
    <path clip-path="url(#pdea5b45d33)" d="M 141.315014 194.165869 
L 154.080402 198.288826 
L 162.324976 191.176799 
L 149.63646 187.132862 
z
" style="fill:#0c0668;"/>
    <path clip-path="url(#pdea5b45d33)" d="M 263.816264 195.163579 
L 270.961723 188.120663 
L 284.327244 192.170297 
L 277.271882 199.292348 
z
" style="fill:#090449;"/>
    <path clip-path="url(#pdea5b45d33)" d="M 250.510457 191.080779 
L 263.816264 195.163579 
L 263.887883 191.569826 
L 250.557672 187.499702 
z
" style="fill:#210581;"/>
    <path clip-path="url(#pdea5b45d33)" d="M 263.826157 194.667143 
L 277.285222 198.794157 
L 284.342217 191.67514 
L 270.973295 187.627247 
z
" style="fill:#0c0668;"/>
    <path clip-path="url(#pdea5b45d33)" d="M 250.510457 191.080779 
L 250.596668 184.542034 
L 263.947035 188.601634 
L 263.816264 195.163579 
z
" style="fill:#170240;"/>
    <path clip-path="url(#pdea5b45d33)" d="M 175.173234 195.969799 
L 183.178635 188.911464 
L 196.068846 192.969946 
L 188.144156 200.107676 
z
" style="fill:#702a3c;"/>
    <path clip-path="url(#pdea5b45d33)" d="M 183.178635 188.911464 
L 182.142503 138.886877 
L 190.201319 132.278563 
L 191.031582 181.987547 
z
" style="fill:#c3535a;"/>
    <path clip-path="url(#pdea5b45d33)" d="M 224.338378 183.050047 
L 237.351973 187.043183 
L 237.696778 134.341346 
L 224.338378 130.540804 
z
" style="fill:#c95c54;"/>
    <path clip-path="url(#pdea5b45d33)" d="M 162.346885 191.878042 
L 175.173234 195.969799 
L 175.080709 192.243321 
L 162.230873 188.164714 
z
" style="fill:#210581;"/>
    <path clip-path="url(#pdea5b45d33)" d="M 162.346885 191.878042 
L 162.228715 188.09565 
L 175.078988 192.174012 
L 175.173234 195.969799 
z
" style="fill:#11023d;"/>
    <path clip-path="url(#pdea5b45d33)" d="M 203.841786 185.968896 
L 203.141516 117.975288 
L 211.031862 111.541322 
L 211.467294 179.100638 
z
" style="fill:#de8e33;"/>
    <path clip-path="url(#pdea5b45d33)" d="M 250.510457 191.080779 
L 257.743589 184.115686 
L 258.40702 144.554431 
L 251.03535 151.270108 
z
" style="fill:#511936;"/>
    <path clip-path="url(#pdea5b45d33)" d="M 154.105465 198.994368 
L 162.346885 191.878042 
L 162.324976 191.176799 
L 154.080402 198.288826 
z
" style="fill:#070339;"/>
    <path clip-path="url(#pdea5b45d33)" d="M 209.103753 197.073984 
L 216.794403 189.994506 
L 229.891821 194.06512 
L 222.285805 201.224351 
z
" style="fill:#876d14;"/>
    <path clip-path="url(#pdea5b45d33)" d="M 277.271882 199.292348 
L 284.327244 192.170297 
L 284.342217 191.67514 
L 277.285222 198.794157 
z
" style="fill:#070339;"/>
    <path clip-path="url(#pdea5b45d33)" d="M 243.136481 198.181496 
L 243.199008 191.602497 
L 250.596668 184.542034 
L 250.510457 191.080779 
z
" style="fill:#300487;"/>
    <path clip-path="url(#pdea5b45d33)" d="M 154.105465 198.994368 
L 153.970278 195.188736 
L 162.228715 188.09565 
L 162.346885 191.878042 
z
" style="fill:#230581;"/>
    <path clip-path="url(#pdea5b45d33)" d="M 237.351973 187.043183 
L 250.510457 191.080779 
L 251.03535 151.270108 
L 237.611492 147.376783 
z
" style="fill:#ab3572;"/>
    <path clip-path="url(#pdea5b45d33)" d="M 243.136481 198.181496 
L 250.510457 191.080779 
L 263.816264 195.163579 
L 256.530882 202.34441 
z
" style="fill:#1d0251;"/>
    <path clip-path="url(#pdea5b45d33)" d="M 224.338378 183.050047 
L 224.338378 117.691261 
L 237.78117 121.442332 
L 237.351973 187.043183 
z
" style="fill:#683f1a;"/>
    <path clip-path="url(#pdea5b45d33)" d="M 141.344465 194.868925 
L 154.105465 198.994368 
L 154.080402 198.288826 
L 141.315014 194.165869 
z
" style="fill:#0e0678;"/>
    <path clip-path="url(#pdea5b45d33)" d="M 263.816264 195.163579 
L 277.271882 199.292348 
L 277.285222 198.794157 
L 263.826157 194.667143 
z
" style="fill:#0e0678;"/>
    <path clip-path="url(#pdea5b45d33)" d="M 263.816264 195.163579 
L 263.830009 194.473853 
L 277.290416 198.600184 
L 277.271882 199.292348 
z
" style="fill:#070339;"/>
    <path clip-path="url(#pdea5b45d33)" d="M 211.112759 124.092929 
L 224.338378 127.840502 
L 231.942872 121.37614 
L 218.802521 117.700754 
z
" style="fill:#b25744;"/>
    <path clip-path="url(#pdea5b45d33)" d="M 154.105465 198.994368 
L 162.346885 191.878042 
L 175.173234 195.969799 
L 167.010898 203.166503 
z
" style="fill:#15034e;"/>
    <path clip-path="url(#pdea5b45d33)" d="M 190.225887 133.749471 
L 203.343164 137.554535 
L 211.157219 130.991024 
L 198.123057 127.259308 
z
" style="fill:#a74551;"/>
    <path clip-path="url(#pdea5b45d33)" d="M 216.794403 189.994506 
L 216.544551 124.215619 
L 224.338378 117.691261 
L 224.338378 183.050047 
z
" style="fill:#dc8538;"/>
    <path clip-path="url(#pdea5b45d33)" d="M 188.144156 200.107676 
L 196.068846 192.969946 
L 209.103753 197.073984 
L 201.262108 204.292457 
z
" style="fill:#857313;"/>
    <path clip-path="url(#pdea5b45d33)" d="M 196.068846 192.969946 
L 203.841786 185.968896 
L 203.327957 136.078048 
L 195.353133 142.761838 
z
" style="fill:#5c272b;"/>
    <path clip-path="url(#pdea5b45d33)" d="M 237.351973 187.043183 
L 237.695651 134.513504 
L 251.20559 138.358146 
L 250.510457 191.080779 
z
" style="fill:#5e2b28;"/>
    <path clip-path="url(#pdea5b45d33)" d="M 256.530882 202.34441 
L 256.5422 201.650453 
L 263.830009 194.473853 
L 263.816264 195.163579 
z
" style="fill:#0e0678;"/>
    <path clip-path="url(#pdea5b45d33)" d="M 216.794403 189.994506 
L 224.338378 183.050047 
L 224.338378 115.240493 
L 216.53518 121.748291 
z
" style="fill:#694318;"/>
    <path clip-path="url(#pdea5b45d33)" d="M 153.970278 195.188736 
L 166.899926 199.34737 
L 175.078988 192.174012 
L 162.228715 188.09565 
z
" style="fill:#1f0470;"/>
    <path clip-path="url(#pdea5b45d33)" d="M 243.199008 191.602497 
L 256.638568 195.742022 
L 263.947035 188.601634 
L 250.596668 184.542034 
z
" style="fill:#2a0375;"/>
    <path clip-path="url(#pdea5b45d33)" d="M 183.178635 188.911464 
L 182.233948 143.301855 
L 195.416307 147.193581 
L 196.068846 192.969946 
z
" style="fill:#57212f;"/>
    <path clip-path="url(#pdea5b45d33)" d="M 222.285805 201.224351 
L 229.891821 194.06512 
L 243.136481 198.181496 
L 235.617509 205.421836 
z
" style="fill:#844d24;"/>
    <path clip-path="url(#pdea5b45d33)" d="M 256.530882 202.34441 
L 263.816264 195.163579 
L 263.947035 188.601634 
L 256.638568 195.742022 
z
" style="fill:#170240;"/>
    <path clip-path="url(#pdea5b45d33)" d="M 237.611492 147.376783 
L 251.03535 151.270108 
L 258.40702 144.554431 
L 245.071956 140.736366 
z
" style="fill:#952e63;"/>
    <path clip-path="url(#pdea5b45d33)" d="M 183.178635 188.911464 
L 196.068846 192.969946 
L 195.353133 142.761838 
L 182.142503 138.886877 
z
" style="fill:#c3535a;"/>
    <path clip-path="url(#pdea5b45d33)" d="M 229.891821 194.06512 
L 230.039941 141.200594 
L 237.695651 134.513504 
L 237.351973 187.043183 
z
" style="fill:#c85a55;"/>
    <path clip-path="url(#pdea5b45d33)" d="M 167.010898 203.166503 
L 175.173234 195.969799 
L 175.078988 192.174012 
L 166.899926 199.34737 
z
" style="fill:#11023d;"/>
    <path clip-path="url(#pdea5b45d33)" d="M 203.841786 185.968896 
L 216.794403 189.994506 
L 216.53518 121.748291 
L 203.141516 117.975288 
z
" style="fill:#de8e33;"/>
    <path clip-path="url(#pdea5b45d33)" d="M 224.338378 130.540804 
L 237.696778 134.341346 
L 245.203879 127.785731 
L 231.932944 124.058709 
z
" style="fill:#ae4f49;"/>
    <path clip-path="url(#pdea5b45d33)" d="M 256.530882 202.34441 
L 263.816264 195.163579 
L 277.271882 199.292348 
L 270.077576 206.554656 
z
" style="fill:#090449;"/>
    <path clip-path="url(#pdea5b45d33)" d="M 175.173234 195.969799 
L 174.033602 150.070817 
L 182.233948 143.301855 
L 183.178635 188.911464 
z
" style="fill:#b94664;"/>
    <path clip-path="url(#pdea5b45d33)" d="M 256.5422 201.650453 
L 270.093748 205.858242 
L 277.290416 198.600184 
L 263.830009 194.473853 
z
" style="fill:#0c0668;"/>
    <path clip-path="url(#pdea5b45d33)" d="M 243.136481 198.181496 
L 256.530882 202.34441 
L 256.638568 195.742022 
L 243.199008 191.602497 
z
" style="fill:#300487;"/>
    <path clip-path="url(#pdea5b45d33)" d="M 167.010898 203.166503 
L 175.173234 195.969799 
L 188.144156 200.107676 
L 180.063228 207.386128 
z
" style="fill:#651d47;"/>
    <path clip-path="url(#pdea5b45d33)" d="M 154.105465 198.994368 
L 167.010898 203.166503 
L 166.899926 199.34737 
L 153.970278 195.188736 
z
" style="fill:#230581;"/>
    <path clip-path="url(#pdea5b45d33)" d="M 243.136481 198.181496 
L 243.232356 188.093581 
L 256.696004 192.22053 
L 256.530882 202.34441 
z
" style="fill:#1e0142;"/>
    <path clip-path="url(#pdea5b45d33)" d="M 203.841786 185.968896 
L 203.031764 107.318796 
L 216.494543 111.049858 
L 216.794403 189.994506 
z
" style="fill:#69560f;"/>
    <path clip-path="url(#pdea5b45d33)" d="M 229.891821 194.06512 
L 237.351973 187.043183 
L 237.78117 121.442332 
L 230.07681 128.041899 
z
" style="fill:#683f1a;"/>
    <path clip-path="url(#pdea5b45d33)" d="M 201.262108 204.292457 
L 209.103753 197.073984 
L 222.285805 201.224351 
L 214.529606 208.524945 
z
" style="fill:#808512;"/>
    <path clip-path="url(#pdea5b45d33)" d="M 270.077576 206.554656 
L 277.271882 199.292348 
L 277.290416 198.600184 
L 270.093748 205.858242 
z
" style="fill:#070339;"/>
    <path clip-path="url(#pdea5b45d33)" d="M 235.617509 205.421836 
L 235.675604 195.271522 
L 243.232356 188.093581 
L 243.136481 198.181496 
z
" style="fill:#3f038d;"/>
    <path clip-path="url(#pdea5b45d33)" d="M 235.617509 205.421836 
L 243.136481 198.181496 
L 256.530882 202.34441 
L 249.101427 209.667246 
z
" style="fill:#260255;"/>
    <path clip-path="url(#pdea5b45d33)" d="M 196.068846 192.969946 
L 194.940407 113.808643 
L 203.031764 107.318796 
L 203.841786 185.968896 
z
" style="fill:#dfb621;"/>
    <path clip-path="url(#pdea5b45d33)" d="M 216.794403 189.994506 
L 229.891821 194.06512 
L 230.07681 128.041899 
L 216.544551 124.215619 
z
" style="fill:#dc8538;"/>
    <path clip-path="url(#pdea5b45d33)" d="M 243.136481 198.181496 
L 250.510457 191.080779 
L 251.20559 138.358146 
L 243.640753 145.122268 
z
" style="fill:#5e2b28;"/>
    <path clip-path="url(#pdea5b45d33)" d="M 256.530882 202.34441 
L 270.077576 206.554656 
L 270.093748 205.858242 
L 256.5422 201.650453 
z
" style="fill:#0e0678;"/>
    <path clip-path="url(#pdea5b45d33)" d="M 256.530882 202.34441 
L 256.546491 201.387366 
L 270.09988 205.594222 
L 270.077576 206.554656 
z
" style="fill:#080339;"/>
    <path clip-path="url(#pdea5b45d33)" d="M 188.144156 200.107676 
L 196.068846 192.969946 
L 195.416307 147.193581 
L 187.300347 154.040455 
z
" style="fill:#57212f;"/>
    <path clip-path="url(#pdea5b45d33)" d="M 175.173234 195.969799 
L 174.220293 157.589849 
L 187.438593 161.587872 
L 188.144156 200.107676 
z
" style="fill:#4f1738;"/>
    <path clip-path="url(#pdea5b45d33)" d="M 182.142503 138.886877 
L 195.353133 142.761838 
L 203.327957 136.078048 
L 190.201319 132.278563 
z
" style="fill:#a9484e;"/>
    <path clip-path="url(#pdea5b45d33)" d="M 180.063228 207.386128 
L 188.144156 200.107676 
L 201.262108 204.292457 
L 193.264978 211.654059 
z
" style="fill:#876517;"/>
    <path clip-path="url(#pdea5b45d33)" d="M 229.891821 194.06512 
L 243.136481 198.181496 
L 243.640753 145.122268 
L 230.039941 141.200594 
z
" style="fill:#c85a55;"/>
    <path clip-path="url(#pdea5b45d33)" d="M 249.101427 209.667246 
L 249.113553 208.70432 
L 256.546491 201.387366 
L 256.530882 202.34441 
z
" style="fill:#110679;"/>
    <path clip-path="url(#pdea5b45d33)" d="M 216.794403 189.994506 
L 216.49654 111.575479 
L 230.112365 115.352007 
L 229.891821 194.06512 
z
" style="fill:#695510;"/>
    <path clip-path="url(#pdea5b45d33)" d="M 175.173234 195.969799 
L 188.144156 200.107676 
L 187.300347 154.040455 
L 174.033602 150.070817 
z
" style="fill:#b94664;"/>
    <path clip-path="url(#pdea5b45d33)" d="M 167.010898 203.166503 
L 165.888647 164.543878 
L 174.220293 157.589849 
L 175.173234 195.969799 
z
" style="fill:#a73076;"/>
    <path clip-path="url(#pdea5b45d33)" d="M 214.529606 208.524945 
L 222.285805 201.224351 
L 235.617509 205.421836 
L 227.94922 212.80596 
z
" style="fill:#86591d;"/>
    <path clip-path="url(#pdea5b45d33)" d="M 235.675604 195.271522 
L 249.229704 199.480679 
L 256.696004 192.22053 
L 243.232356 188.093581 
z
" style="fill:#37027a;"/>
    <path clip-path="url(#pdea5b45d33)" d="M 249.101427 209.667246 
L 256.530882 202.34441 
L 256.696004 192.22053 
L 249.229704 199.480679 
z
" style="fill:#1e0142;"/>
    <path clip-path="url(#pdea5b45d33)" d="M 209.103753 197.073984 
L 208.496154 118.144565 
L 216.49654 111.575479 
L 216.794403 189.994506 
z
" style="fill:#dfb521;"/>
    <path clip-path="url(#pdea5b45d33)" d="M 229.891821 194.06512 
L 230.072374 129.62482 
L 243.751194 133.501736 
L 243.136481 198.181496 
z
" style="fill:#673d1c;"/>
    <path clip-path="url(#pdea5b45d33)" d="M 249.101427 209.667246 
L 256.530882 202.34441 
L 270.077576 206.554656 
L 262.740181 213.961405 
z
" style="fill:#0a0449;"/>
    <path clip-path="url(#pdea5b45d33)" d="M 209.103753 197.073984 
L 216.794403 189.994506 
L 216.494543 111.049858 
L 208.49208 117.615319 
z
" style="fill:#69560f;"/>
    <path clip-path="url(#pdea5b45d33)" d="M 249.113553 208.70432 
L 262.759093 212.995063 
L 270.09988 205.594222 
L 256.546491 201.387366 
z
" style="fill:#0f0569;"/>
    <path clip-path="url(#pdea5b45d33)" d="M 203.141516 117.975288 
L 216.53518 121.748291 
L 224.338378 115.240493 
L 211.031862 111.541322 
z
" style="fill:#c07b2c;"/>
    <path clip-path="url(#pdea5b45d33)" d="M 235.617509 205.421836 
L 249.101427 209.667246 
L 249.229704 199.480679 
L 235.675604 195.271522 
z
" style="fill:#3f038d;"/>
    <path clip-path="url(#pdea5b45d33)" d="M 222.285805 201.224351 
L 222.218398 136.368493 
L 230.072374 129.62482 
L 229.891821 194.06512 
z
" style="fill:#da803b;"/>
    <path clip-path="url(#pdea5b45d33)" d="M 196.068846 192.969946 
L 209.103753 197.073984 
L 208.49208 117.615319 
L 194.940407 113.808643 
z
" style="fill:#dfb621;"/>
    <path clip-path="url(#pdea5b45d33)" d="M 235.617509 205.421836 
L 235.692747 192.276249 
L 249.267559 196.474592 
L 249.101427 209.667246 
z
" style="fill:#240144;"/>
    <path clip-path="url(#pdea5b45d33)" d="M 196.068846 192.969946 
L 194.910746 111.727896 
L 208.475998 115.526276 
L 209.103753 197.073984 
z
" style="fill:#685a0f;"/>
    <path clip-path="url(#pdea5b45d33)" d="M 193.264978 211.654059 
L 201.262108 204.292457 
L 214.529606 208.524945 
L 206.61873 215.971129 
z
" style="fill:#867213;"/>
    <path clip-path="url(#pdea5b45d33)" d="M 262.740181 213.961405 
L 270.077576 206.554656 
L 270.09988 205.594222 
L 262.759093 212.995063 
z
" style="fill:#080339;"/>
    <path clip-path="url(#pdea5b45d33)" d="M 180.063228 207.386128 
L 188.144156 200.107676 
L 187.438593 161.587872 
L 179.191461 168.622445 
z
" style="fill:#4f1738;"/>
    <path clip-path="url(#pdea5b45d33)" d="M 227.94922 212.80596 
L 235.617509 205.421836 
L 249.101427 209.667246 
L 241.523583 217.136342 
z
" style="fill:#2e0157;"/>
    <path clip-path="url(#pdea5b45d33)" d="M 174.033602 150.070817 
L 187.300347 154.040455 
L 195.416307 147.193581 
L 182.233948 143.301855 
z
" style="fill:#a13d57;"/>
    <path clip-path="url(#pdea5b45d33)" d="M 227.94922 212.80596 
L 227.973547 199.578715 
L 235.692747 192.276249 
L 235.617509 205.421836 
z
" style="fill:#4c0191;"/>
    <path clip-path="url(#pdea5b45d33)" d="M 188.144156 200.107676 
L 186.646337 118.335149 
L 194.910746 111.727896 
L 196.068846 192.969946 
z
" style="fill:#ddbf20;"/>
    <path clip-path="url(#pdea5b45d33)" d="M 249.101427 209.667246 
L 262.740181 213.961405 
L 262.759093 212.995063 
L 249.113553 208.70432 
z
" style="fill:#110679;"/>
    <path clip-path="url(#pdea5b45d33)" d="M 230.039941 141.200594 
L 243.640753 145.122268 
L 251.20559 138.358146 
L 237.695651 134.513504 
z
" style="fill:#ad4f4a;"/>
    <path clip-path="url(#pdea5b45d33)" d="M 249.101427 209.667246 
L 249.120455 208.156201 
L 262.769859 212.444997 
L 262.740181 213.961405 
z
" style="fill:#0a033a;"/>
    <path clip-path="url(#pdea5b45d33)" d="M 222.285805 201.224351 
L 229.891821 194.06512 
L 230.112365 115.352007 
L 222.203462 121.99806 
z
" style="fill:#695510;"/>
    <path clip-path="url(#pdea5b45d33)" d="M 216.544551 124.215619 
L 230.07681 128.041899 
L 237.78117 121.442332 
L 224.338378 117.691261 
z
" style="fill:#bf7431;"/>
    <path clip-path="url(#pdea5b45d33)" d="M 167.010898 203.166503 
L 180.063228 207.386128 
L 179.191461 168.622445 
L 165.888647 164.543878 
z
" style="fill:#a73076;"/>
    <path clip-path="url(#pdea5b45d33)" d="M 241.523583 217.136342 
L 241.53692 215.615991 
L 249.120455 208.156201 
L 249.101427 209.667246 
z
" style="fill:#16067b;"/>
    <path clip-path="url(#pdea5b45d33)" d="M 209.103753 197.073984 
L 222.285805 201.224351 
L 222.203462 121.99806 
L 208.496154 118.144565 
z
" style="fill:#dfb521;"/>
    <path clip-path="url(#pdea5b45d33)" d="M 235.617509 205.421836 
L 243.136481 198.181496 
L 243.751194 133.501736 
L 235.990091 140.324329 
z
" style="fill:#673d1c;"/>
    <path clip-path="url(#pdea5b45d33)" d="M 206.61873 215.971129 
L 214.529606 208.524945 
L 227.94922 212.80596 
L 220.127123 220.338193 
z
" style="fill:#855320;"/>
    <path clip-path="url(#pdea5b45d33)" d="M 222.285805 201.224351 
L 235.617509 205.421836 
L 235.990091 140.324329 
L 222.218398 136.368493 
z
" style="fill:#da803b;"/>
    <path clip-path="url(#pdea5b45d33)" d="M 241.523583 217.136342 
L 249.101427 209.667246 
L 262.740181 213.961405 
L 255.255385 221.516949 
z
" style="fill:#0d034a;"/>
    <path clip-path="url(#pdea5b45d33)" d="M 209.103753 197.073984 
L 208.422991 108.640423 
L 222.193545 112.455764 
L 222.285805 201.224351 
z
" style="fill:#64680e;"/>
    <path clip-path="url(#pdea5b45d33)" d="M 241.523583 217.136342 
L 249.101427 209.667246 
L 249.267559 196.474592 
L 241.640035 203.861659 
z
" style="fill:#240144;"/>
    <path clip-path="url(#pdea5b45d33)" d="M 201.262108 204.292457 
L 209.103753 197.073984 
L 208.475998 115.526276 
L 200.30151 122.211376 
z
" style="fill:#685a0f;"/>
    <path clip-path="url(#pdea5b45d33)" d="M 165.888647 164.543878 
L 179.191461 168.622445 
L 187.438593 161.587872 
L 174.220293 157.589849 
z
" style="fill:#912a66;"/>
    <path clip-path="url(#pdea5b45d33)" d="M 241.53692 215.615991 
L 255.279519 219.991194 
L 262.769859 212.444997 
L 249.120455 208.156201 
z
" style="fill:#13056b;"/>
    <path clip-path="url(#pdea5b45d33)" d="M 227.973547 199.578715 
L 241.640035 203.861659 
L 249.267559 196.474592 
L 235.692747 192.276249 
z
" style="fill:#42017e;"/>
    <path clip-path="url(#pdea5b45d33)" d="M 188.144156 200.107676 
L 186.76119 124.605472 
L 200.375184 128.506722 
L 201.262108 204.292457 
z
" style="fill:#6a4f12;"/>
    <path clip-path="url(#pdea5b45d33)" d="M 222.285805 201.224351 
L 222.212743 130.927795 
L 236.021353 134.862256 
L 235.617509 205.421836 
z
" style="fill:#694516;"/>
    <path clip-path="url(#pdea5b45d33)" d="M 201.262108 204.292457 
L 200.220362 115.277443 
L 208.422991 108.640423 
L 209.103753 197.073984 
z
" style="fill:#d4dc1e;"/>
    <path clip-path="url(#pdea5b45d33)" d="M 227.94922 212.80596 
L 241.523583 217.136342 
L 241.640035 203.861659 
L 227.973547 199.578715 
z
" style="fill:#4c0191;"/>
    <path clip-path="url(#pdea5b45d33)" d="M 188.144156 200.107676 
L 201.262108 204.292457 
L 200.30151 122.211376 
L 186.646337 118.335149 
z
" style="fill:#ddbf20;"/>
    <path clip-path="url(#pdea5b45d33)" d="M 227.94922 212.80596 
L 227.976335 198.062872 
L 241.653382 202.340314 
L 241.523583 217.136342 
z
" style="fill:#270045;"/>
    <path clip-path="url(#pdea5b45d33)" d="M 180.063228 207.386128 
L 178.354173 131.391875 
L 186.76119 124.605472 
L 188.144156 200.107676 
z
" style="fill:#e0a725;"/>
    <path clip-path="url(#pdea5b45d33)" d="M 255.255385 221.516949 
L 262.740181 213.961405 
L 262.769859 212.444997 
L 255.279519 219.991194 
z
" style="fill:#0a033a;"/>
    <path clip-path="url(#pdea5b45d33)" d="M 214.529606 208.524945 
L 214.176889 137.771939 
L 222.212743 130.927795 
L 222.285805 201.224351 
z
" style="fill:#df9330;"/>
    <path clip-path="url(#pdea5b45d33)" d="M 220.127123 220.338193 
L 227.94922 212.80596 
L 241.523583 217.136342 
L 233.792858 224.756123 
z
" style="fill:#320058;"/>
    <path clip-path="url(#pdea5b45d33)" d="M 220.127123 220.338193 
L 220.095179 205.50326 
L 227.976335 198.062872 
L 227.94922 212.80596 
z
" style="fill:#530193;"/>
    <path clip-path="url(#pdea5b45d33)" d="M 241.523583 217.136342 
L 241.533883 215.962138 
L 255.274024 220.338572 
L 255.255385 221.516949 
z
" style="fill:#09033a;"/>
    <path clip-path="url(#pdea5b45d33)" d="M 241.523583 217.136342 
L 255.255385 221.516949 
L 255.279519 219.991194 
L 241.53692 215.615991 
z
" style="fill:#16067b;"/>
    <path clip-path="url(#pdea5b45d33)" d="M 194.940407 113.808643 
L 208.49208 117.615319 
L 216.494543 111.049858 
L 203.031764 107.318796 
z
" style="fill:#c19e1c;"/>
    <path clip-path="url(#pdea5b45d33)" d="M 233.792858 224.756123 
L 233.798583 223.574681 
L 241.533883 215.962138 
L 241.523583 217.136342 
z
" style="fill:#13067a;"/>
    <path clip-path="url(#pdea5b45d33)" d="M 214.529606 208.524945 
L 222.285805 201.224351 
L 222.193545 112.455764 
L 214.084164 119.171711 
z
" style="fill:#64680e;"/>
    <path clip-path="url(#pdea5b45d33)" d="M 201.262108 204.292457 
L 200.308613 122.818379 
L 214.121908 126.743083 
L 214.529606 208.524945 
z
" style="fill:#68590f;"/>
    <path clip-path="url(#pdea5b45d33)" d="M 193.264978 211.654059 
L 201.262108 204.292457 
L 200.375184 128.506722 
L 192.058389 135.373657 
z
" style="fill:#6a4f12;"/>
    <path clip-path="url(#pdea5b45d33)" d="M 227.94922 212.80596 
L 235.617509 205.421836 
L 236.021353 134.862256 
L 228.079835 141.787534 
z
" style="fill:#694516;"/>
    <path clip-path="url(#pdea5b45d33)" d="M 233.792858 224.756123 
L 241.523583 217.136342 
L 255.255385 221.516949 
L 247.618703 229.225814 
z
" style="fill:#0c044a;"/>
    <path clip-path="url(#pdea5b45d33)" d="M 201.262108 204.292457 
L 214.529606 208.524945 
L 214.084164 119.171711 
L 200.220362 115.277443 
z
" style="fill:#d4dc1e;"/>
    <path clip-path="url(#pdea5b45d33)" d="M 193.264978 211.654059 
L 191.967787 129.645838 
L 200.308613 122.818379 
L 201.262108 204.292457 
z
" style="fill:#ddbe20;"/>
    <path clip-path="url(#pdea5b45d33)" d="M 214.529606 208.524945 
L 214.191309 140.664422 
L 228.074494 144.691442 
L 227.94922 212.80596 
z
" style="fill:#684119;"/>
    <path clip-path="url(#pdea5b45d33)" d="M 233.798583 223.574681 
L 247.63288 228.040169 
L 255.274024 220.338572 
L 241.533883 215.962138 
z
" style="fill:#11056a;"/>
    <path clip-path="url(#pdea5b45d33)" d="M 233.792858 224.756123 
L 241.523583 217.136342 
L 241.653382 202.340314 
L 233.864993 209.867842 
z
" style="fill:#270045;"/>
    <path clip-path="url(#pdea5b45d33)" d="M 222.218398 136.368493 
L 235.990091 140.324329 
L 243.751194 133.501736 
L 230.072374 129.62482 
z
" style="fill:#bd6f33;"/>
    <path clip-path="url(#pdea5b45d33)" d="M 180.063228 207.386128 
L 193.264978 211.654059 
L 192.058389 135.373657 
L 178.354173 131.391875 
z
" style="fill:#e0a725;"/>
    <path clip-path="url(#pdea5b45d33)" d="M 214.529606 208.524945 
L 227.94922 212.80596 
L 228.079835 141.787534 
L 214.176889 137.771939 
z
" style="fill:#df9330;"/>
    <path clip-path="url(#pdea5b45d33)" d="M 220.095179 205.50326 
L 233.864993 209.867842 
L 241.653382 202.340314 
L 227.976335 198.062872 
z
" style="fill:#48017f;"/>
    <path clip-path="url(#pdea5b45d33)" d="M 208.496154 118.144565 
L 222.203462 121.99806 
L 230.112365 115.352007 
L 216.49654 111.575479 
z
" style="fill:#c19d1d;"/>
    <path clip-path="url(#pdea5b45d33)" d="M 206.61873 215.971129 
L 206.001286 147.669844 
L 214.191309 140.664422 
L 214.529606 208.524945 
z
" style="fill:#dd8936;"/>
    <path clip-path="url(#pdea5b45d33)" d="M 220.127123 220.338193 
L 233.792858 224.756123 
L 233.864993 209.867842 
L 220.095179 205.50326 
z
" style="fill:#530193;"/>
    <path clip-path="url(#pdea5b45d33)" d="M 247.618703 229.225814 
L 255.255385 221.516949 
L 255.274024 220.338572 
L 247.63288 228.040169 
z
" style="fill:#09033a;"/>
    <path clip-path="url(#pdea5b45d33)" d="M 233.792858 224.756123 
L 247.618703 229.225814 
L 247.63288 228.040169 
L 233.798583 223.574681 
z
" style="fill:#13067a;"/>
    <path clip-path="url(#pdea5b45d33)" d="M 206.61873 215.971129 
L 214.529606 208.524945 
L 214.121908 126.743083 
L 205.874568 133.652275 
z
" style="fill:#68590f;"/>
    <path clip-path="url(#pdea5b45d33)" d="M 186.646337 118.335149 
L 200.30151 122.211376 
L 208.475998 115.526276 
L 194.910746 111.727896 
z
" style="fill:#c0a61c;"/>
    <path clip-path="url(#pdea5b45d33)" d="M 193.264978 211.654059 
L 206.61873 215.971129 
L 205.874568 133.652275 
L 191.967787 129.645838 
z
" style="fill:#ddbe20;"/>
    <path clip-path="url(#pdea5b45d33)" d="M 220.127123 220.338193 
L 227.94922 212.80596 
L 228.074494 144.691442 
L 219.979501 151.780651 
z
" style="fill:#684119;"/>
    <path clip-path="url(#pdea5b45d33)" d="M 206.61873 215.971129 
L 220.127123 220.338193 
L 219.979501 151.780651 
L 206.001286 147.669844 
z
" style="fill:#dd8936;"/>
    <path clip-path="url(#pdea5b45d33)" d="M 214.176889 137.771939 
L 228.079835 141.787534 
L 236.021353 134.862256 
L 222.212743 130.927795 
z
" style="fill:#c18029;"/>
    <path clip-path="url(#pdea5b45d33)" d="M 178.354173 131.391875 
L 192.058389 135.373657 
L 200.375184 128.506722 
L 186.76119 124.605472 
z
" style="fill:#c29121;"/>
    <path clip-path="url(#pdea5b45d33)" d="M 200.220362 115.277443 
L 214.084164 119.171711 
L 222.193545 112.455764 
L 208.422991 108.640423 
z
" style="fill:#b8bf1a;"/>
    <path clip-path="url(#pdea5b45d33)" d="M 206.001286 147.669844 
L 219.979501 151.780651 
L 228.074494 144.691442 
L 214.191309 140.664422 
z
" style="fill:#bf772f;"/>
    <path clip-path="url(#pdea5b45d33)" d="M 191.967787 129.645838 
L 205.874568 133.652275 
L 214.121908 126.743083 
L 200.308613 122.818379 
z
" style="fill:#c0a51c;"/>
   </g>
   <g id="text_18">
    <!-- W20__H35__A350_bars_extracted.txt -->
    <g transform="translate(110.101875 28.56)scale(0.12 -0.12)">
     <defs>
      <path d="M 3.328125 72.90625 
L 13.28125 72.90625 
L 28.609375 11.28125 
L 43.890625 72.90625 
L 54.984375 72.90625 
L 70.3125 11.28125 
L 85.59375 72.90625 
L 95.609375 72.90625 
L 77.296875 0 
L 64.890625 0 
L 49.515625 63.28125 
L 33.984375 0 
L 21.578125 0 
z
" id="DejaVuSans-87"/>
      <path d="M 50.984375 -16.609375 
L 50.984375 -23.578125 
L -0.984375 -23.578125 
L -0.984375 -16.609375 
z
" id="DejaVuSans-95"/>
      <path d="M 9.8125 72.90625 
L 19.671875 72.90625 
L 19.671875 43.015625 
L 55.515625 43.015625 
L 55.515625 72.90625 
L 65.375 72.90625 
L 65.375 0 
L 55.515625 0 
L 55.515625 34.71875 
L 19.671875 34.71875 
L 19.671875 0 
L 9.8125 0 
z
" id="DejaVuSans-72"/>
      <path d="M 34.1875 63.1875 
L 20.796875 26.90625 
L 47.609375 26.90625 
z
M 28.609375 72.90625 
L 39.796875 72.90625 
L 67.578125 0 
L 57.328125 0 
L 50.6875 18.703125 
L 17.828125 18.703125 
L 11.1875 0 
L 0.78125 0 
z
" id="DejaVuSans-65"/>
      <path d="M 48.6875 27.296875 
Q 48.6875 37.203125 44.609375 42.84375 
Q 40.53125 48.484375 33.40625 48.484375 
Q 26.265625 48.484375 22.1875 42.84375 
Q 18.109375 37.203125 18.109375 27.296875 
Q 18.109375 17.390625 22.1875 11.75 
Q 26.265625 6.109375 33.40625 6.109375 
Q 40.53125 6.109375 44.609375 11.75 
Q 48.6875 17.390625 48.6875 27.296875 
z
M 18.109375 46.390625 
Q 20.953125 51.265625 25.265625 53.625 
Q 29.59375 56 35.59375 56 
Q 45.5625 56 51.78125 48.09375 
Q 58.015625 40.1875 58.015625 27.296875 
Q 58.015625 14.40625 51.78125 6.484375 
Q 45.5625 -1.421875 35.59375 -1.421875 
Q 29.59375 -1.421875 25.265625 0.953125 
Q 20.953125 3.328125 18.109375 8.203125 
L 18.109375 0 
L 9.078125 0 
L 9.078125 75.984375 
L 18.109375 75.984375 
z
" id="DejaVuSans-98"/>
      <path d="M 34.28125 27.484375 
Q 23.390625 27.484375 19.1875 25 
Q 14.984375 22.515625 14.984375 16.5 
Q 14.984375 11.71875 18.140625 8.90625 
Q 21.296875 6.109375 26.703125 6.109375 
Q 34.1875 6.109375 38.703125 11.40625 
Q 43.21875 16.703125 43.21875 25.484375 
L 43.21875 27.484375 
z
M 52.203125 31.203125 
L 52.203125 0 
L 43.21875 0 
L 43.21875 8.296875 
Q 40.140625 3.328125 35.546875 0.953125 
Q 30.953125 -1.421875 24.3125 -1.421875 
Q 15.921875 -1.421875 10.953125 3.296875 
Q 6 8.015625 6 15.921875 
Q 6 25.140625 12.171875 29.828125 
Q 18.359375 34.515625 30.609375 34.515625 
L 43.21875 34.515625 
L 43.21875 35.40625 
Q 43.21875 41.609375 39.140625 45 
Q 35.0625 48.390625 27.6875 48.390625 
Q 23 48.390625 18.546875 47.265625 
Q 14.109375 46.140625 10.015625 43.890625 
L 10.015625 52.203125 
Q 14.9375 54.109375 19.578125 55.046875 
Q 24.21875 56 28.609375 56 
Q 40.484375 56 46.34375 49.84375 
Q 52.203125 43.703125 52.203125 31.203125 
z
" id="DejaVuSans-97"/>
      <path d="M 41.109375 46.296875 
Q 39.59375 47.171875 37.8125 47.578125 
Q 36.03125 48 33.890625 48 
Q 26.265625 48 22.1875 43.046875 
Q 18.109375 38.09375 18.109375 28.8125 
L 18.109375 0 
L 9.078125 0 
L 9.078125 54.6875 
L 18.109375 54.6875 
L 18.109375 46.1875 
Q 20.953125 51.171875 25.484375 53.578125 
Q 30.03125 56 36.53125 56 
Q 37.453125 56 38.578125 55.875 
Q 39.703125 55.765625 41.0625 55.515625 
z
" id="DejaVuSans-114"/>
      <path d="M 44.28125 53.078125 
L 44.28125 44.578125 
Q 40.484375 46.53125 36.375 47.5 
Q 32.28125 48.484375 27.875 48.484375 
Q 21.1875 48.484375 17.84375 46.4375 
Q 14.5 44.390625 14.5 40.28125 
Q 14.5 37.15625 16.890625 35.375 
Q 19.28125 33.59375 26.515625 31.984375 
L 29.59375 31.296875 
Q 39.15625 29.25 43.1875 25.515625 
Q 47.21875 21.78125 47.21875 15.09375 
Q 47.21875 7.46875 41.1875 3.015625 
Q 35.15625 -1.421875 24.609375 -1.421875 
Q 20.21875 -1.421875 15.453125 -0.5625 
Q 10.6875 0.296875 5.421875 2 
L 5.421875 11.28125 
Q 10.40625 8.6875 15.234375 7.390625 
Q 20.0625 6.109375 24.8125 6.109375 
Q 31.15625 6.109375 34.5625 8.28125 
Q 37.984375 10.453125 37.984375 14.40625 
Q 37.984375 18.0625 35.515625 20.015625 
Q 33.0625 21.96875 24.703125 23.78125 
L 21.578125 24.515625 
Q 13.234375 26.265625 9.515625 29.90625 
Q 5.8125 33.546875 5.8125 39.890625 
Q 5.8125 47.609375 11.28125 51.796875 
Q 16.75 56 26.8125 56 
Q 31.78125 56 36.171875 55.265625 
Q 40.578125 54.546875 44.28125 53.078125 
z
" id="DejaVuSans-115"/>
      <path d="M 56.203125 29.59375 
L 56.203125 25.203125 
L 14.890625 25.203125 
Q 15.484375 15.921875 20.484375 11.0625 
Q 25.484375 6.203125 34.421875 6.203125 
Q 39.59375 6.203125 44.453125 7.46875 
Q 49.3125 8.734375 54.109375 11.28125 
L 54.109375 2.78125 
Q 49.265625 0.734375 44.1875 -0.34375 
Q 39.109375 -1.421875 33.890625 -1.421875 
Q 20.796875 -1.421875 13.15625 6.1875 
Q 5.515625 13.8125 5.515625 26.8125 
Q 5.515625 40.234375 12.765625 48.109375 
Q 20.015625 56 32.328125 56 
Q 43.359375 56 49.78125 48.890625 
Q 56.203125 41.796875 56.203125 29.59375 
z
M 47.21875 32.234375 
Q 47.125 39.59375 43.09375 43.984375 
Q 39.0625 48.390625 32.421875 48.390625 
Q 24.90625 48.390625 20.390625 44.140625 
Q 15.875 39.890625 15.1875 32.171875 
z
" id="DejaVuSans-101"/>
      <path d="M 54.890625 54.6875 
L 35.109375 28.078125 
L 55.90625 0 
L 45.3125 0 
L 29.390625 21.484375 
L 13.484375 0 
L 2.875 0 
L 24.125 28.609375 
L 4.6875 54.6875 
L 15.28125 54.6875 
L 29.78125 35.203125 
L 44.28125 54.6875 
z
" id="DejaVuSans-120"/>
      <path d="M 18.3125 70.21875 
L 18.3125 54.6875 
L 36.8125 54.6875 
L 36.8125 47.703125 
L 18.3125 47.703125 
L 18.3125 18.015625 
Q 18.3125 11.328125 20.140625 9.421875 
Q 21.96875 7.515625 27.59375 7.515625 
L 36.8125 7.515625 
L 36.8125 0 
L 27.59375 0 
Q 17.1875 0 13.234375 3.875 
Q 9.28125 7.765625 9.28125 18.015625 
L 9.28125 47.703125 
L 2.6875 47.703125 
L 2.6875 54.6875 
L 9.28125 54.6875 
L 9.28125 70.21875 
z
" id="DejaVuSans-116"/>
      <path d="M 48.78125 52.59375 
L 48.78125 44.1875 
Q 44.96875 46.296875 41.140625 47.34375 
Q 37.3125 48.390625 33.40625 48.390625 
Q 24.65625 48.390625 19.8125 42.84375 
Q 14.984375 37.3125 14.984375 27.296875 
Q 14.984375 17.28125 19.8125 11.734375 
Q 24.65625 6.203125 33.40625 6.203125 
Q 37.3125 6.203125 41.140625 7.25 
Q 44.96875 8.296875 48.78125 10.40625 
L 48.78125 2.09375 
Q 45.015625 0.34375 40.984375 -0.53125 
Q 36.96875 -1.421875 32.421875 -1.421875 
Q 20.0625 -1.421875 12.78125 6.34375 
Q 5.515625 14.109375 5.515625 27.296875 
Q 5.515625 40.671875 12.859375 48.328125 
Q 20.21875 56 33.015625 56 
Q 37.15625 56 41.109375 55.140625 
Q 45.0625 54.296875 48.78125 52.59375 
z
" id="DejaVuSans-99"/>
      <path d="M 45.40625 46.390625 
L 45.40625 75.984375 
L 54.390625 75.984375 
L 54.390625 0 
L 45.40625 0 
L 45.40625 8.203125 
Q 42.578125 3.328125 38.25 0.953125 
Q 33.9375 -1.421875 27.875 -1.421875 
Q 17.96875 -1.421875 11.734375 6.484375 
Q 5.515625 14.40625 5.515625 27.296875 
Q 5.515625 40.1875 11.734375 48.09375 
Q 17.96875 56 27.875 56 
Q 33.9375 56 38.25 53.625 
Q 42.578125 51.265625 45.40625 46.390625 
z
M 14.796875 27.296875 
Q 14.796875 17.390625 18.875 11.75 
Q 22.953125 6.109375 30.078125 6.109375 
Q 37.203125 6.109375 41.296875 11.75 
Q 45.40625 17.390625 45.40625 27.296875 
Q 45.40625 37.203125 41.296875 42.84375 
Q 37.203125 48.484375 30.078125 48.484375 
Q 22.953125 48.484375 18.875 42.84375 
Q 14.796875 37.203125 14.796875 27.296875 
z
" id="DejaVuSans-100"/>
      <path d="M 10.6875 12.40625 
L 21 12.40625 
L 21 0 
L 10.6875 0 
z
" id="DejaVuSans-46"/>
     </defs>
     <use xlink:href="#DejaVuSans-87"/>
     <use x="98.876953" xlink:href="#DejaVuSans-50"/>
     <use x="162.5" xlink:href="#DejaVuSans-48"/>
     <use x="226.123047" xlink:href="#DejaVuSans-95"/>
     <use x="276.123047" xlink:href="#DejaVuSans-95"/>
     <use x="326.123047" xlink:href="#DejaVuSans-72"/>
     <use x="401.318359" xlink:href="#DejaVuSans-51"/>
     <use x="464.941406" xlink:href="#DejaVuSans-53"/>
     <use x="528.564453" xlink:href="#DejaVuSans-95"/>
     <use x="578.564453" xlink:href="#DejaVuSans-95"/>
     <use x="628.564453" xlink:href="#DejaVuSans-65"/>
     <use x="696.972656" xlink:href="#DejaVuSans-51"/>
     <use x="760.595703" xlink:href="#DejaVuSans-53"/>
     <use x="824.21875" xlink:href="#DejaVuSans-48"/>
     <use x="887.841797" xlink:href="#DejaVuSans-95"/>
     <use x="937.841797" xlink:href="#DejaVuSans-98"/>
     <use x="1001.318359" xlink:href="#DejaVuSans-97"/>
     <use x="1062.597656" xlink:href="#DejaVuSans-114"/>
     <use x="1103.710938" xlink:href="#DejaVuSans-115"/>
     <use x="1155.810547" xlink:href="#DejaVuSans-95"/>
     <use x="1205.810547" xlink:href="#DejaVuSans-101"/>
     <use x="1265.583984" xlink:href="#DejaVuSans-120"/>
     <use x="1324.763672" xlink:href="#DejaVuSans-116"/>
     <use x="1363.972656" xlink:href="#DejaVuSans-114"/>
     <use x="1405.085938" xlink:href="#DejaVuSans-97"/>
     <use x="1466.365234" xlink:href="#DejaVuSans-99"/>
     <use x="1521.345703" xlink:href="#DejaVuSans-116"/>
     <use x="1560.554688" xlink:href="#DejaVuSans-101"/>
     <use x="1622.078125" xlink:href="#DejaVuSans-100"/>
     <use x="1685.554688" xlink:href="#DejaVuSans-46"/>
     <use x="1717.341797" xlink:href="#DejaVuSans-116"/>
     <use x="1756.550781" xlink:href="#DejaVuSans-120"/>
     <use x="1815.730469" xlink:href="#DejaVuSans-116"/>
    </g>
   </g>
  </g>
 </g>
 <defs>
  <clipPath id="pdea5b45d33">
   <rect height="217.44" width="217.44" x="112.68" y="34.56"/>
  </clipPath>
 </defs>
</svg>
