<?xml version="1.0" encoding="utf-8" standalone="no"?>
<!DOCTYPE svg PUBLIC "-//W3C//DTD SVG 1.1//EN"
  "http://www.w3.org/Graphics/SVG/1.1/DTD/svg11.dtd">
<!-- Created with matplotlib (https://matplotlib.org/) -->
<svg height="288pt" version="1.1" viewBox="0 0 432 288" width="432pt" xmlns="http://www.w3.org/2000/svg" xmlns:xlink="http://www.w3.org/1999/xlink">
 <metadata>
  <rdf:RDF xmlns:cc="http://creativecommons.org/ns#" xmlns:dc="http://purl.org/dc/elements/1.1/" xmlns:rdf="http://www.w3.org/1999/02/22-rdf-syntax-ns#">
   <cc:Work>
    <dc:type rdf:resource="http://purl.org/dc/dcmitype/StillImage"/>
    <dc:date>2021-06-13T21:57:45.287823</dc:date>
    <dc:format>image/svg+xml</dc:format>
    <dc:creator>
     <cc:Agent>
      <dc:title>Matplotlib v3.3.4, https://matplotlib.org/</dc:title>
     </cc:Agent>
    </dc:creator>
   </cc:Work>
  </rdf:RDF>
 </metadata>
 <defs>
  <style type="text/css">*{stroke-linecap:butt;stroke-linejoin:round;}</style>
 </defs>
 <g id="figure_1">
  <g id="patch_1">
   <path d="M 0 288 
L 432 288 
L 432 0 
L 0 0 
z
" style="fill:#ffffff;"/>
  </g>
  <g id="patch_2">
   <path d="M 112.68 252 
L 330.12 252 
L 330.12 34.56 
L 112.68 34.56 
z
" style="fill:#ffffff;"/>
  </g>
  <g id="pane3d_1">
   <g id="patch_3">
    <path d="M 129.09822 198.386264 
L 200.904009 138.197228 
L 199.90584 51.393878 
L 124.663773 106.302111 
" style="fill:#f2f2f2;opacity:0.5;stroke:#f2f2f2;stroke-linejoin:miter;"/>
   </g>
  </g>
  <g id="pane3d_2">
   <g id="patch_4">
    <path d="M 200.904009 138.197228 
L 316.12668 171.68791 
L 320.238571 81.894718 
L 199.90584 51.393878 
" style="fill:#e6e6e6;opacity:0.5;stroke:#e6e6e6;stroke-linejoin:miter;"/>
   </g>
  </g>
  <g id="pane3d_3">
   <g id="patch_5">
    <path d="M 129.09822 198.386264 
L 251.239879 238.27773 
L 316.12668 171.68791 
L 200.904009 138.197228 
" style="fill:#ececec;opacity:0.5;stroke:#ececec;stroke-linejoin:miter;"/>
   </g>
  </g>
  <g id="axis3d_1">
   <g id="line2d_1">
    <path d="M 129.09822 198.386264 
L 251.239879 238.27773 
" style="fill:none;stroke:#000000;stroke-linecap:square;stroke-width:0.8;"/>
   </g>
   <g id="Line3DCollection_1">
    <path d="M 136.495759 200.802301 
L 207.911499 140.234029 
L 207.209612 53.245171 
" style="fill:none;stroke:#b0b0b0;stroke-width:0.8;"/>
    <path d="M 162.23134 209.207541 
L 232.260894 147.311436 
L 232.60309 59.681678 
" style="fill:none;stroke:#b0b0b0;stroke-width:0.8;"/>
    <path d="M 188.559037 217.806167 
L 257.123632 154.538053 
L 258.555303 66.259807 
" style="fill:none;stroke:#b0b0b0;stroke-width:0.8;"/>
    <path d="M 215.499525 226.604931 
L 282.516121 161.918647 
L 285.084894 72.984285 
" style="fill:none;stroke:#b0b0b0;stroke-width:0.8;"/>
    <path d="M 243.074449 235.610901 
L 308.455474 169.458193 
L 312.21135 79.860051 
" style="fill:none;stroke:#b0b0b0;stroke-width:0.8;"/>
   </g>
   <g id="xtick_1">
    <g id="line2d_2">
     <path d="M 137.117644 200.274876 
L 135.249322 201.859414 
" style="fill:none;stroke:#000000;stroke-linecap:square;stroke-width:0.8;"/>
    </g>
    <g id="text_1">
     <!-- 0 -->
     <g transform="translate(125.77919 224.124533)scale(0.1 -0.1)">
      <defs>
       <path d="M 31.78125 66.40625 
Q 24.171875 66.40625 20.328125 58.90625 
Q 16.5 51.421875 16.5 36.375 
Q 16.5 21.390625 20.328125 13.890625 
Q 24.171875 6.390625 31.78125 6.390625 
Q 39.453125 6.390625 43.28125 13.890625 
Q 47.125 21.390625 47.125 36.375 
Q 47.125 51.421875 43.28125 58.90625 
Q 39.453125 66.40625 31.78125 66.40625 
z
M 31.78125 74.21875 
Q 44.046875 74.21875 50.515625 64.515625 
Q 56.984375 54.828125 56.984375 36.375 
Q 56.984375 17.96875 50.515625 8.265625 
Q 44.046875 -1.421875 31.78125 -1.421875 
Q 19.53125 -1.421875 13.0625 8.265625 
Q 6.59375 17.96875 6.59375 36.375 
Q 6.59375 54.828125 13.0625 64.515625 
Q 19.53125 74.21875 31.78125 74.21875 
z
" id="DejaVuSans-48"/>
      </defs>
      <use xlink:href="#DejaVuSans-48"/>
     </g>
    </g>
   </g>
   <g id="xtick_2">
    <g id="line2d_3">
     <path d="M 162.841716 208.668056 
L 161.007937 210.288854 
" style="fill:none;stroke:#000000;stroke-linecap:square;stroke-width:0.8;"/>
    </g>
    <g id="text_2">
     <!-- 2 -->
     <g transform="translate(151.547192 232.748132)scale(0.1 -0.1)">
      <defs>
       <path d="M 19.1875 8.296875 
L 53.609375 8.296875 
L 53.609375 0 
L 7.328125 0 
L 7.328125 8.296875 
Q 12.9375 14.109375 22.625 23.890625 
Q 32.328125 33.6875 34.8125 36.53125 
Q 39.546875 41.84375 41.421875 45.53125 
Q 43.3125 49.21875 43.3125 52.78125 
Q 43.3125 58.59375 39.234375 62.25 
Q 35.15625 65.921875 28.609375 65.921875 
Q 23.96875 65.921875 18.8125 64.3125 
Q 13.671875 62.703125 7.8125 59.421875 
L 7.8125 69.390625 
Q 13.765625 71.78125 18.9375 73 
Q 24.125 74.21875 28.421875 74.21875 
Q 39.75 74.21875 46.484375 68.546875 
Q 53.21875 62.890625 53.21875 53.421875 
Q 53.21875 48.921875 51.53125 44.890625 
Q 49.859375 40.875 45.40625 35.40625 
Q 44.1875 33.984375 37.640625 27.21875 
Q 31.109375 20.453125 19.1875 8.296875 
z
" id="DejaVuSans-50"/>
      </defs>
      <use xlink:href="#DejaVuSans-50"/>
     </g>
    </g>
   </g>
   <g id="xtick_3">
    <g id="line2d_4">
     <path d="M 189.15721 217.254202 
L 187.360066 218.91252 
" style="fill:none;stroke:#000000;stroke-linecap:square;stroke-width:0.8;"/>
    </g>
    <g id="text_3">
     <!-- 4 -->
     <g transform="translate(177.91082 241.571064)scale(0.1 -0.1)">
      <defs>
       <path d="M 37.796875 64.3125 
L 12.890625 25.390625 
L 37.796875 25.390625 
z
M 35.203125 72.90625 
L 47.609375 72.90625 
L 47.609375 25.390625 
L 58.015625 25.390625 
L 58.015625 17.1875 
L 47.609375 17.1875 
L 47.609375 0 
L 37.796875 0 
L 37.796875 17.1875 
L 4.890625 17.1875 
L 4.890625 26.703125 
z
" id="DejaVuSans-52"/>
      </defs>
      <use xlink:href="#DejaVuSans-52"/>
     </g>
    </g>
   </g>
   <g id="xtick_4">
    <g id="line2d_5">
     <path d="M 216.084757 226.040048 
L 214.326462 227.737204 
" style="fill:none;stroke:#000000;stroke-linecap:square;stroke-width:0.8;"/>
    </g>
    <g id="text_4">
     <!-- 6 -->
     <g transform="translate(204.890965 250.600322)scale(0.1 -0.1)">
      <defs>
       <path d="M 33.015625 40.375 
Q 26.375 40.375 22.484375 35.828125 
Q 18.609375 31.296875 18.609375 23.390625 
Q 18.609375 15.53125 22.484375 10.953125 
Q 26.375 6.390625 33.015625 6.390625 
Q 39.65625 6.390625 43.53125 10.953125 
Q 47.40625 15.53125 47.40625 23.390625 
Q 47.40625 31.296875 43.53125 35.828125 
Q 39.65625 40.375 33.015625 40.375 
z
M 52.59375 71.296875 
L 52.59375 62.3125 
Q 48.875 64.0625 45.09375 64.984375 
Q 41.3125 65.921875 37.59375 65.921875 
Q 27.828125 65.921875 22.671875 59.328125 
Q 17.53125 52.734375 16.796875 39.40625 
Q 19.671875 43.65625 24.015625 45.921875 
Q 28.375 48.1875 33.59375 48.1875 
Q 44.578125 48.1875 50.953125 41.515625 
Q 57.328125 34.859375 57.328125 23.390625 
Q 57.328125 12.15625 50.6875 5.359375 
Q 44.046875 -1.421875 33.015625 -1.421875 
Q 20.359375 -1.421875 13.671875 8.265625 
Q 6.984375 17.96875 6.984375 36.375 
Q 6.984375 53.65625 15.1875 63.9375 
Q 23.390625 74.21875 37.203125 74.21875 
Q 40.921875 74.21875 44.703125 73.484375 
Q 48.484375 72.75 52.59375 71.296875 
z
" id="DejaVuSans-54"/>
      </defs>
      <use xlink:href="#DejaVuSans-54"/>
     </g>
    </g>
   </g>
   <g id="xtick_5">
    <g id="line2d_6">
     <path d="M 243.645962 235.032643 
L 241.928856 236.770015 
" style="fill:none;stroke:#000000;stroke-linecap:square;stroke-width:0.8;"/>
    </g>
    <g id="text_5">
     <!-- 8 -->
     <g transform="translate(232.509511 259.84323)scale(0.1 -0.1)">
      <defs>
       <path d="M 31.78125 34.625 
Q 24.75 34.625 20.71875 30.859375 
Q 16.703125 27.09375 16.703125 20.515625 
Q 16.703125 13.921875 20.71875 10.15625 
Q 24.75 6.390625 31.78125 6.390625 
Q 38.8125 6.390625 42.859375 10.171875 
Q 46.921875 13.96875 46.921875 20.515625 
Q 46.921875 27.09375 42.890625 30.859375 
Q 38.875 34.625 31.78125 34.625 
z
M 21.921875 38.8125 
Q 15.578125 40.375 12.03125 44.71875 
Q 8.5 49.078125 8.5 55.328125 
Q 8.5 64.0625 14.71875 69.140625 
Q 20.953125 74.21875 31.78125 74.21875 
Q 42.671875 74.21875 48.875 69.140625 
Q 55.078125 64.0625 55.078125 55.328125 
Q 55.078125 49.078125 51.53125 44.71875 
Q 48 40.375 41.703125 38.8125 
Q 48.828125 37.15625 52.796875 32.3125 
Q 56.78125 27.484375 56.78125 20.515625 
Q 56.78125 9.90625 50.3125 4.234375 
Q 43.84375 -1.421875 31.78125 -1.421875 
Q 19.734375 -1.421875 13.25 4.234375 
Q 6.78125 9.90625 6.78125 20.515625 
Q 6.78125 27.484375 10.78125 32.3125 
Q 14.796875 37.15625 21.921875 38.8125 
z
M 18.3125 54.390625 
Q 18.3125 48.734375 21.84375 45.5625 
Q 25.390625 42.390625 31.78125 42.390625 
Q 38.140625 42.390625 41.71875 45.5625 
Q 45.3125 48.734375 45.3125 54.390625 
Q 45.3125 60.0625 41.71875 63.234375 
Q 38.140625 66.40625 31.78125 66.40625 
Q 25.390625 66.40625 21.84375 63.234375 
Q 18.3125 60.0625 18.3125 54.390625 
z
" id="DejaVuSans-56"/>
      </defs>
      <use xlink:href="#DejaVuSans-56"/>
     </g>
    </g>
   </g>
  </g>
  <g id="axis3d_2">
   <g id="line2d_7">
    <path d="M 316.12668 171.68791 
L 251.239879 238.27773 
" style="fill:none;stroke:#000000;stroke-linecap:square;stroke-width:0.8;"/>
   </g>
   <g id="Line3DCollection_2">
    <path d="M 129.866948 102.505071 
L 134.046245 194.238731 
L 255.729543 233.67023 
" style="fill:none;stroke:#b0b0b0;stroke-width:0.8;"/>
    <path d="M 147.250212 89.819556 
L 150.59591 180.366474 
L 270.72626 218.279909 
" style="fill:none;stroke:#b0b0b0;stroke-width:0.8;"/>
    <path d="M 163.958537 77.626582 
L 166.530371 167.009893 
L 285.136664 203.491289 
" style="fill:none;stroke:#b0b0b0;stroke-width:0.8;"/>
    <path d="M 180.030483 65.898008 
L 181.883306 154.140758 
L 298.994481 189.269761 
" style="fill:none;stroke:#b0b0b0;stroke-width:0.8;"/>
    <path d="M 195.501727 54.607799 
L 196.68598 141.732864 
L 312.330896 175.583317 
" style="fill:none;stroke:#b0b0b0;stroke-width:0.8;"/>
   </g>
   <g id="xtick_6">
    <g id="line2d_8">
     <path d="M 254.704115 233.337939 
L 257.783053 234.33567 
" style="fill:none;stroke:#000000;stroke-linecap:square;stroke-width:0.8;"/>
    </g>
    <g id="text_6">
     <!-- 0 -->
     <g transform="translate(265.430654 254.693759)scale(0.1 -0.1)">
      <use xlink:href="#DejaVuSans-48"/>
     </g>
    </g>
   </g>
   <g id="xtick_7">
    <g id="line2d_9">
     <path d="M 269.71494 217.960734 
L 272.751463 218.919068 
" style="fill:none;stroke:#000000;stroke-linecap:square;stroke-width:0.8;"/>
    </g>
    <g id="text_7">
     <!-- 2 -->
     <g transform="translate(280.181112 239.024526)scale(0.1 -0.1)">
      <use xlink:href="#DejaVuSans-50"/>
     </g>
    </g>
   </g>
   <g id="xtick_8">
    <g id="line2d_10">
     <path d="M 284.139145 203.184468 
L 287.134182 204.105694 
" style="fill:none;stroke:#000000;stroke-linecap:square;stroke-width:0.8;"/>
    </g>
    <g id="text_8">
     <!-- 4 -->
     <g transform="translate(294.35448 223.968328)scale(0.1 -0.1)">
      <use xlink:href="#DejaVuSans-52"/>
     </g>
    </g>
   </g>
   <g id="xtick_9">
    <g id="line2d_11">
     <path d="M 298.010457 188.97459 
L 300.964927 189.860821 
" style="fill:none;stroke:#000000;stroke-linecap:square;stroke-width:0.8;"/>
    </g>
    <g id="text_9">
     <!-- 6 -->
     <g transform="translate(307.983974 209.489882)scale(0.1 -0.1)">
      <use xlink:href="#DejaVuSans-54"/>
     </g>
    </g>
   </g>
   <g id="xtick_10">
    <g id="line2d_12">
     <path d="M 311.360068 175.299146 
L 314.274875 176.15234 
" style="fill:none;stroke:#000000;stroke-linecap:square;stroke-width:0.8;"/>
    </g>
    <g id="text_10">
     <!-- 8 -->
     <g transform="translate(321.10031 195.556556)scale(0.1 -0.1)">
      <use xlink:href="#DejaVuSans-56"/>
     </g>
    </g>
   </g>
  </g>
  <g id="axis3d_3">
   <g id="line2d_13">
    <path d="M 316.12668 171.68791 
L 320.238571 81.894718 
" style="fill:none;stroke:#000000;stroke-linecap:square;stroke-width:0.8;"/>
   </g>
   <g id="Line3DCollection_3">
    <path d="M 316.205459 169.967571 
L 200.884845 136.530725 
L 129.013401 196.624949 
" style="fill:none;stroke:#b0b0b0;stroke-width:0.8;"/>
    <path d="M 317.23931 147.390915 
L 200.6335 114.673065 
L 127.899785 173.499995 
" style="fill:none;stroke:#b0b0b0;stroke-width:0.8;"/>
    <path d="M 318.296695 124.300331 
L 200.376709 92.341845 
L 126.759842 149.828349 
" style="fill:none;stroke:#b0b0b0;stroke-width:0.8;"/>
    <path d="M 319.378427 100.678068 
L 200.114293 69.521504 
L 125.592628 125.590393 
" style="fill:none;stroke:#b0b0b0;stroke-width:0.8;"/>
   </g>
   <g id="xtick_11">
    <g id="line2d_14">
     <path d="M 315.237563 169.686933 
L 318.143556 170.529516 
" style="fill:none;stroke:#000000;stroke-linecap:square;stroke-width:0.8;"/>
    </g>
    <g id="text_11">
     <!-- 0 -->
     <g transform="translate(331.275915 174.966846)scale(0.1 -0.1)">
      <use xlink:href="#DejaVuSans-48"/>
     </g>
    </g>
   </g>
   <g id="xtick_12">
    <g id="line2d_15">
     <path d="M 316.260111 147.116167 
L 319.200065 147.941074 
" style="fill:none;stroke:#000000;stroke-linecap:square;stroke-width:0.8;"/>
    </g>
    <g id="text_12">
     <!-- 20000 -->
     <g transform="translate(319.785567 152.444834)scale(0.1 -0.1)">
      <use xlink:href="#DejaVuSans-50"/>
      <use x="63.623047" xlink:href="#DejaVuSans-48"/>
      <use x="127.246094" xlink:href="#DejaVuSans-48"/>
      <use x="190.869141" xlink:href="#DejaVuSans-48"/>
      <use x="254.492188" xlink:href="#DejaVuSans-48"/>
     </g>
    </g>
   </g>
   <g id="xtick_13">
    <g id="line2d_16">
     <path d="M 317.305927 124.031815 
L 320.280643 124.838018 
" style="fill:none;stroke:#000000;stroke-linecap:square;stroke-width:0.8;"/>
    </g>
    <g id="text_13">
     <!-- 40000 -->
     <g transform="translate(321.048219 129.412062)scale(0.1 -0.1)">
      <use xlink:href="#DejaVuSans-52"/>
      <use x="63.623047" xlink:href="#DejaVuSans-48"/>
      <use x="127.246094" xlink:href="#DejaVuSans-48"/>
      <use x="190.869141" xlink:href="#DejaVuSans-48"/>
      <use x="254.492188" xlink:href="#DejaVuSans-48"/>
     </g>
    </g>
   </g>
   <g id="xtick_14">
    <g id="line2d_17">
     <path d="M 318.375814 100.416145 
L 321.386123 101.202559 
" style="fill:none;stroke:#000000;stroke-linecap:square;stroke-width:0.8;"/>
    </g>
    <g id="text_14">
     <!-- 60000 -->
     <g transform="translate(322.339834 105.850955)scale(0.1 -0.1)">
      <use xlink:href="#DejaVuSans-54"/>
      <use x="63.623047" xlink:href="#DejaVuSans-48"/>
      <use x="127.246094" xlink:href="#DejaVuSans-48"/>
      <use x="190.869141" xlink:href="#DejaVuSans-48"/>
      <use x="254.492188" xlink:href="#DejaVuSans-48"/>
     </g>
    </g>
   </g>
  </g>
  <g id="axes_1">
   <g id="Poly3DCollection_1">
    <path clip-path="url(#p7a742c0e2a)" d="M 203.700438 142.115361 
L 203.699773 142.049868 
L 215.863627 145.601291 
L 215.863902 145.66701 
z
" style="fill:#050338;"/>
    <path clip-path="url(#p7a742c0e2a)" d="M 196.401162 148.290596 
L 196.400254 148.22471 
L 203.699773 142.049868 
L 203.700438 142.115361 
z
" style="fill:#0b0777;"/>
    <path clip-path="url(#p7a742c0e2a)" d="M 196.401162 148.290596 
L 203.700438 142.115361 
L 215.863902 145.66701 
L 208.637156 151.907182 
z
" style="fill:#070448;"/>
    <path clip-path="url(#p7a742c0e2a)" d="M 196.400254 148.22471 
L 208.636643 151.841067 
L 215.863627 145.601291 
L 203.699773 142.049868 
z
" style="fill:#0a0667;"/>
    <path clip-path="url(#p7a742c0e2a)" d="M 215.863902 145.66701 
L 215.86314 145.484527 
L 228.155369 149.072818 
L 228.155024 149.255935 
z
" style="fill:#050338;"/>
    <path clip-path="url(#p7a742c0e2a)" d="M 208.637156 151.907182 
L 215.863902 145.66701 
L 215.863627 145.601291 
L 208.636643 151.841067 
z
" style="fill:#050338;"/>
    <path clip-path="url(#p7a742c0e2a)" d="M 208.637156 151.907182 
L 208.635732 151.7236 
L 215.86314 145.484527 
L 215.863902 145.66701 
z
" style="fill:#0b0777;"/>
    <path clip-path="url(#p7a742c0e2a)" d="M 196.401162 148.290596 
L 208.637156 151.907182 
L 208.636643 151.841067 
L 196.400254 148.22471 
z
" style="fill:#0b0777;"/>
    <path clip-path="url(#p7a742c0e2a)" d="M 196.401162 148.290596 
L 196.399829 148.193864 
L 208.636403 151.810113 
L 208.637156 151.907182 
z
" style="fill:#050338;"/>
    <path clip-path="url(#p7a742c0e2a)" d="M 208.637156 151.907182 
L 215.863902 145.66701 
L 228.155024 149.255935 
L 221.002748 155.562072 
z
" style="fill:#070448;"/>
    <path clip-path="url(#p7a742c0e2a)" d="M 208.635732 151.7236 
L 221.002444 155.377851 
L 228.155369 149.072818 
L 215.86314 145.484527 
z
" style="fill:#0a0667;"/>
    <path clip-path="url(#p7a742c0e2a)" d="M 228.155024 149.255935 
L 228.155625 148.937073 
L 240.578393 152.562754 
L 240.575825 152.882725 
z
" style="fill:#050338;"/>
    <path clip-path="url(#p7a742c0e2a)" d="M 188.96817 154.578956 
L 188.966468 154.48164 
L 196.399829 148.193864 
L 196.401162 148.290596 
z
" style="fill:#0b0777;"/>
    <path clip-path="url(#p7a742c0e2a)" d="M 221.002748 155.562072 
L 228.155024 149.255935 
L 228.155369 149.072818 
L 221.002444 155.377851 
z
" style="fill:#050338;"/>
    <path clip-path="url(#p7a742c0e2a)" d="M 221.002748 155.562072 
L 221.002219 155.241286 
L 228.155625 148.937073 
L 228.155024 149.255935 
z
" style="fill:#0b0777;"/>
    <path clip-path="url(#p7a742c0e2a)" d="M 188.96817 154.578956 
L 196.401162 148.290596 
L 208.637156 151.907182 
L 201.27732 158.262275 
z
" style="fill:#070448;"/>
    <path clip-path="url(#p7a742c0e2a)" d="M 188.966468 154.48164 
L 201.276204 158.16462 
L 208.636403 151.810113 
L 196.399829 148.193864 
z
" style="fill:#0a0667;"/>
    <path clip-path="url(#p7a742c0e2a)" d="M 208.637156 151.907182 
L 221.002748 155.562072 
L 221.002444 155.377851 
L 208.635732 151.7236 
z
" style="fill:#0b0777;"/>
    <path clip-path="url(#p7a742c0e2a)" d="M 208.637156 151.907182 
L 208.635399 151.680599 
L 221.002373 155.334701 
L 221.002748 155.562072 
z
" style="fill:#050338;"/>
    <path clip-path="url(#p7a742c0e2a)" d="M 221.002748 155.562072 
L 228.155024 149.255935 
L 240.575825 152.882725 
L 233.500008 159.25588 
z
" style="fill:#070448;"/>
    <path clip-path="url(#p7a742c0e2a)" d="M 221.002219 155.241286 
L 233.50147 158.933975 
L 240.578393 152.562754 
L 228.155625 148.937073 
z
" style="fill:#0a0667;"/>
    <path clip-path="url(#p7a742c0e2a)" d="M 240.575825 152.882725 
L 240.584862 151.75675 
L 253.144476 155.418084 
L 253.128369 156.547983 
z
" style="fill:#09033a;"/>
    <path clip-path="url(#p7a742c0e2a)" d="M 201.27732 158.262275 
L 208.637156 151.907182 
L 208.636403 151.810113 
L 201.276204 158.16462 
z
" style="fill:#050338;"/>
    <path clip-path="url(#p7a742c0e2a)" d="M 201.27732 158.262275 
L 201.274715 158.034324 
L 208.635399 151.680599 
L 208.637156 151.907182 
z
" style="fill:#0b0777;"/>
    <path clip-path="url(#p7a742c0e2a)" d="M 233.500008 159.25588 
L 240.575825 152.882725 
L 240.578393 152.562754 
L 233.50147 158.933975 
z
" style="fill:#050338;"/>
    <path clip-path="url(#p7a742c0e2a)" d="M 233.500008 159.25588 
L 233.505153 158.123096 
L 240.584862 151.75675 
L 240.575825 152.882725 
z
" style="fill:#13067a;"/>
    <path clip-path="url(#p7a742c0e2a)" d="M 188.96817 154.578956 
L 201.27732 158.262275 
L 201.276204 158.16462 
L 188.966468 154.48164 
z
" style="fill:#0b0777;"/>
    <path clip-path="url(#p7a742c0e2a)" d="M 188.96817 154.578956 
L 188.965608 154.432503 
L 201.27564 158.115312 
L 201.27732 158.262275 
z
" style="fill:#050338;"/>
    <path clip-path="url(#p7a742c0e2a)" d="M 201.27732 158.262275 
L 208.637156 151.907182 
L 221.002748 155.562072 
L 213.718049 161.984967 
z
" style="fill:#070448;"/>
    <path clip-path="url(#p7a742c0e2a)" d="M 201.274715 158.034324 
L 213.716842 161.75622 
L 221.002373 155.334701 
L 208.635399 151.680599 
z
" style="fill:#0a0667;"/>
    <path clip-path="url(#p7a742c0e2a)" d="M 221.002748 155.562072 
L 233.500008 159.25588 
L 233.50147 158.933975 
L 221.002219 155.241286 
z
" style="fill:#0b0777;"/>
    <path clip-path="url(#p7a742c0e2a)" d="M 221.002748 155.562072 
L 221.001851 155.01853 
L 233.502485 158.710442 
L 233.500008 159.25588 
z
" style="fill:#070339;"/>
    <path clip-path="url(#p7a742c0e2a)" d="M 181.397755 160.983577 
L 181.394615 160.836239 
L 188.965608 154.432503 
L 188.96817 154.578956 
z
" style="fill:#0b0777;"/>
    <path clip-path="url(#p7a742c0e2a)" d="M 233.500008 159.25588 
L 240.575825 152.882725 
L 253.128369 156.547983 
L 246.131049 162.989229 
z
" style="fill:#0c044a;"/>
    <path clip-path="url(#p7a742c0e2a)" d="M 233.505153 158.123096 
L 246.143354 161.852487 
L 253.144476 155.418084 
L 240.584862 151.75675 
z
" style="fill:#11056a;"/>
    <path clip-path="url(#p7a742c0e2a)" d="M 213.718049 161.984967 
L 221.002748 155.562072 
L 221.002373 155.334701 
L 213.716842 161.75622 
z
" style="fill:#050338;"/>
    <path clip-path="url(#p7a742c0e2a)" d="M 213.718049 161.984967 
L 213.715165 161.438135 
L 221.001851 155.01853 
L 221.002748 155.562072 
z
" style="fill:#0e0678;"/>
    <path clip-path="url(#p7a742c0e2a)" d="M 181.397755 160.983577 
L 188.96817 154.578956 
L 201.27732 158.262275 
L 193.780682 164.735494 
z
" style="fill:#070448;"/>
    <path clip-path="url(#p7a742c0e2a)" d="M 181.394615 160.836239 
L 193.778436 164.587641 
L 201.27564 158.115312 
L 188.965608 154.432503 
z
" style="fill:#0a0667;"/>
    <path clip-path="url(#p7a742c0e2a)" d="M 246.131049 162.989229 
L 253.128369 156.547983 
L 253.144476 155.418084 
L 246.143354 161.852487 
z
" style="fill:#09033a;"/>
    <path clip-path="url(#p7a742c0e2a)" d="M 201.27732 158.262275 
L 213.718049 161.984967 
L 213.716842 161.75622 
L 201.274715 158.034324 
z
" style="fill:#0b0777;"/>
    <path clip-path="url(#p7a742c0e2a)" d="M 201.27732 158.262275 
L 201.27374 157.949036 
L 213.716391 161.670634 
L 213.718049 161.984967 
z
" style="fill:#050338;"/>
    <path clip-path="url(#p7a742c0e2a)" d="M 253.128369 156.547983 
L 253.286426 145.460575 
L 266.043687 149.125922 
L 265.814761 160.252323 
z
" style="fill:#210144;"/>
    <path clip-path="url(#p7a742c0e2a)" d="M 213.718049 161.984967 
L 221.002748 155.562072 
L 233.500008 159.25588 
L 226.292478 165.747667 
z
" style="fill:#090449;"/>
    <path clip-path="url(#p7a742c0e2a)" d="M 213.715165 161.438135 
L 226.293011 165.198923 
L 233.502485 158.710442 
L 221.001851 155.01853 
z
" style="fill:#0c0668;"/>
    <path clip-path="url(#p7a742c0e2a)" d="M 233.500008 159.25588 
L 246.131049 162.989229 
L 246.143354 161.852487 
L 233.505153 158.123096 
z
" style="fill:#13067a;"/>
    <path clip-path="url(#p7a742c0e2a)" d="M 193.780682 164.735494 
L 201.27732 158.262275 
L 201.27564 158.115312 
L 193.778436 164.587641 
z
" style="fill:#050338;"/>
    <path clip-path="url(#p7a742c0e2a)" d="M 193.780682 164.735494 
L 193.775894 164.420357 
L 201.27374 157.949036 
L 201.27732 158.262275 
z
" style="fill:#0b0777;"/>
    <path clip-path="url(#p7a742c0e2a)" d="M 246.131049 162.989229 
L 253.128369 156.547983 
L 265.814761 160.252323 
L 258.898031 166.762758 
z
" style="fill:#2b0156;"/>
    <path clip-path="url(#p7a742c0e2a)" d="M 246.131049 162.989229 
L 246.251806 151.834156 
L 253.286426 145.460575 
L 253.128369 156.547983 
z
" style="fill:#46028f;"/>
    <path clip-path="url(#p7a742c0e2a)" d="M 233.500008 159.25588 
L 233.529841 152.688279 
L 246.202395 156.398583 
L 246.131049 162.989229 
z
" style="fill:#180240;"/>
    <path clip-path="url(#p7a742c0e2a)" d="M 265.814761 160.252323 
L 265.850639 158.508554 
L 278.684377 162.246508 
L 278.637155 163.996376 
z
" style="fill:#0b033b;"/>
    <path clip-path="url(#p7a742c0e2a)" d="M 226.292478 165.747667 
L 233.500008 159.25588 
L 233.502485 158.710442 
L 226.293011 165.198923 
z
" style="fill:#070339;"/>
    <path clip-path="url(#p7a742c0e2a)" d="M 181.397755 160.983577 
L 193.780682 164.735494 
L 193.778436 164.587641 
L 181.394615 160.836239 
z
" style="fill:#0b0777;"/>
    <path clip-path="url(#p7a742c0e2a)" d="M 181.397755 160.983577 
L 181.392233 160.724452 
L 193.776731 164.475463 
L 193.780682 164.735494 
z
" style="fill:#050338;"/>
    <path clip-path="url(#p7a742c0e2a)" d="M 193.780682 164.735494 
L 201.27732 158.262275 
L 213.718049 161.984967 
L 206.297214 168.527892 
z
" style="fill:#070448;"/>
    <path clip-path="url(#p7a742c0e2a)" d="M 193.775894 164.420357 
L 206.294372 168.211652 
L 213.716391 161.670634 
L 201.27374 157.949036 
z
" style="fill:#0a0667;"/>
    <path clip-path="url(#p7a742c0e2a)" d="M 226.292478 165.747667 
L 226.298901 159.140077 
L 233.529841 152.688279 
L 233.500008 159.25588 
z
" style="fill:#320488;"/>
    <path clip-path="url(#p7a742c0e2a)" d="M 258.898031 166.762758 
L 258.928205 165.008407 
L 265.850639 158.508554 
L 265.814761 160.252323 
z
" style="fill:#18057c;"/>
    <path clip-path="url(#p7a742c0e2a)" d="M 213.718049 161.984967 
L 226.292478 165.747667 
L 226.293011 165.198923 
L 213.715165 161.438135 
z
" style="fill:#0e0678;"/>
    <path clip-path="url(#p7a742c0e2a)" d="M 213.718049 161.984967 
L 213.713041 161.035275 
L 226.293404 164.794653 
L 226.292478 165.747667 
z
" style="fill:#080339;"/>
    <path clip-path="url(#p7a742c0e2a)" d="M 173.686069 167.507715 
L 173.679495 167.247018 
L 181.392233 160.724452 
L 181.397755 160.983577 
z
" style="fill:#0b0777;"/>
    <path clip-path="url(#p7a742c0e2a)" d="M 226.292478 165.747667 
L 233.500008 159.25588 
L 246.131049 162.989229 
L 239.002775 169.551023 
z
" style="fill:#1e0252;"/>
    <path clip-path="url(#p7a742c0e2a)" d="M 206.297214 168.527892 
L 213.718049 161.984967 
L 213.716391 161.670634 
L 206.294372 168.211652 
z
" style="fill:#050338;"/>
    <path clip-path="url(#p7a742c0e2a)" d="M 258.898031 166.762758 
L 265.814761 160.252323 
L 278.637155 163.996376 
L 271.803162 170.57712 
z
" style="fill:#0e034b;"/>
    <path clip-path="url(#p7a742c0e2a)" d="M 206.297214 168.527892 
L 206.288627 167.572436 
L 213.713041 161.035275 
L 213.718049 161.984967 
z
" style="fill:#110679;"/>
    <path clip-path="url(#p7a742c0e2a)" d="M 258.898031 166.762758 
L 265.814761 160.252323 
L 266.043687 149.125922 
L 259.090569 155.568346 
z
" style="fill:#210144;"/>
    <path clip-path="url(#p7a742c0e2a)" d="M 246.251806 151.834156 
L 259.090569 155.568346 
L 266.043687 149.125922 
L 253.286426 145.460575 
z
" style="fill:#3d027c;"/>
    <path clip-path="url(#p7a742c0e2a)" d="M 278.637155 163.996376 
L 278.640891 163.857933 
L 291.602401 167.641855 
L 291.597749 167.780781 
z
" style="fill:#050338;"/>
    <path clip-path="url(#p7a742c0e2a)" d="M 258.928205 165.008407 
L 271.844828 168.816617 
L 278.684377 162.246508 
L 265.850639 158.508554 
z
" style="fill:#15056c;"/>
    <path clip-path="url(#p7a742c0e2a)" d="M 173.686069 167.507715 
L 181.397755 160.983577 
L 193.780682 164.735494 
L 186.143392 171.330164 
z
" style="fill:#070448;"/>
    <path clip-path="url(#p7a742c0e2a)" d="M 173.679495 167.247018 
L 186.138408 171.068554 
L 193.776731 164.475463 
L 181.392233 160.724452 
z
" style="fill:#0a0667;"/>
    <path clip-path="url(#p7a742c0e2a)" d="M 193.780682 164.735494 
L 206.297214 168.527892 
L 206.294372 168.211652 
L 193.775894 164.420357 
z
" style="fill:#0b0777;"/>
    <path clip-path="url(#p7a742c0e2a)" d="M 226.298901 159.140077 
L 239.051234 162.920185 
L 246.202395 156.398583 
L 233.529841 152.688279 
z
" style="fill:#2b0376;"/>
    <path clip-path="url(#p7a742c0e2a)" d="M 193.780682 164.735494 
L 193.77134 164.120562 
L 206.291668 167.910807 
L 206.297214 168.527892 
z
" style="fill:#070339;"/>
    <path clip-path="url(#p7a742c0e2a)" d="M 246.131049 162.989229 
L 258.898031 166.762758 
L 259.090569 155.568346 
L 246.251806 151.834156 
z
" style="fill:#46028f;"/>
    <path clip-path="url(#p7a742c0e2a)" d="M 206.297214 168.527892 
L 213.718049 161.984967 
L 226.292478 165.747667 
L 218.949524 172.361429 
z
" style="fill:#0a0449;"/>
    <path clip-path="url(#p7a742c0e2a)" d="M 271.803162 170.57712 
L 271.806458 170.437837 
L 278.640891 163.857933 
L 278.637155 163.996376 
z
" style="fill:#0b0777;"/>
    <path clip-path="url(#p7a742c0e2a)" d="M 239.002775 169.551023 
L 246.131049 162.989229 
L 246.202395 156.398583 
L 239.051234 162.920185 
z
" style="fill:#180240;"/>
    <path clip-path="url(#p7a742c0e2a)" d="M 206.288627 167.572436 
L 218.946946 171.402623 
L 226.293404 164.794653 
L 213.713041 161.035275 
z
" style="fill:#0f0569;"/>
    <path clip-path="url(#p7a742c0e2a)" d="M 271.803162 170.57712 
L 278.637155 163.996376 
L 278.684377 162.246508 
L 271.844828 168.816617 
z
" style="fill:#0b033b;"/>
    <path clip-path="url(#p7a742c0e2a)" d="M 186.143392 171.330164 
L 193.780682 164.735494 
L 193.776731 164.475463 
L 186.138408 171.068554 
z
" style="fill:#050338;"/>
    <path clip-path="url(#p7a742c0e2a)" d="M 186.143392 171.330164 
L 186.131606 170.711496 
L 193.77134 164.120562 
L 193.780682 164.735494 
z
" style="fill:#0e0678;"/>
    <path clip-path="url(#p7a742c0e2a)" d="M 239.002775 169.551023 
L 246.131049 162.989229 
L 258.898031 166.762758 
L 251.851153 173.395697 
z
" style="fill:#560f52;"/>
    <path clip-path="url(#p7a742c0e2a)" d="M 226.292478 165.747667 
L 239.002775 169.551023 
L 239.051234 162.920185 
L 226.298901 159.140077 
z
" style="fill:#320488;"/>
    <path clip-path="url(#p7a742c0e2a)" d="M 258.898031 166.762758 
L 258.927716 165.036871 
L 271.844152 168.84518 
L 271.803162 170.57712 
z
" style="fill:#0b033b;"/>
    <path clip-path="url(#p7a742c0e2a)" d="M 258.898031 166.762758 
L 271.803162 170.57712 
L 271.844828 168.816617 
L 258.928205 165.008407 
z
" style="fill:#18057c;"/>
    <path clip-path="url(#p7a742c0e2a)" d="M 271.803162 170.57712 
L 278.637155 163.996376 
L 291.597749 167.780781 
L 284.848695 174.43298 
z
" style="fill:#070448;"/>
    <path clip-path="url(#p7a742c0e2a)" d="M 218.949524 172.361429 
L 226.292478 165.747667 
L 226.293404 164.794653 
L 218.946946 171.402623 
z
" style="fill:#080339;"/>
    <path clip-path="url(#p7a742c0e2a)" d="M 271.806458 170.437837 
L 284.85292 174.293209 
L 291.602401 167.641855 
L 278.640891 163.857933 
z
" style="fill:#0a0667;"/>
    <path clip-path="url(#p7a742c0e2a)" d="M 173.686069 167.507715 
L 186.143392 171.330164 
L 186.138408 171.068554 
L 173.679495 167.247018 
z
" style="fill:#0b0777;"/>
    <path clip-path="url(#p7a742c0e2a)" d="M 173.686069 167.507715 
L 173.677064 167.150617 
L 186.136565 170.971815 
L 186.143392 171.330164 
z
" style="fill:#050338;"/>
    <path clip-path="url(#p7a742c0e2a)" d="M 291.597749 167.780781 
L 291.599193 167.737649 
L 304.700524 171.562913 
L 304.698789 171.606197 
z
" style="fill:#050338;"/>
    <path clip-path="url(#p7a742c0e2a)" d="M 186.143392 171.330164 
L 193.780682 164.735494 
L 206.297214 168.527892 
L 198.736391 175.194243 
z
" style="fill:#090449;"/>
    <path clip-path="url(#p7a742c0e2a)" d="M 246.131049 162.989229 
L 246.451853 133.354623 
L 259.409553 137.022173 
L 258.898031 166.762758 
z
" style="fill:#440c40;"/>
    <path clip-path="url(#p7a742c0e2a)" d="M 186.131606 170.711496 
L 198.728447 174.573405 
L 206.291668 167.910807 
L 193.77134 164.120562 
z
" style="fill:#0c0668;"/>
    <path clip-path="url(#p7a742c0e2a)" d="M 251.851153 173.395697 
L 251.875007 171.659309 
L 258.927716 165.036871 
L 258.898031 166.762758 
z
" style="fill:#18057c;"/>
    <path clip-path="url(#p7a742c0e2a)" d="M 206.297214 168.527892 
L 218.949524 172.361429 
L 218.946946 171.402623 
L 206.288627 167.572436 
z
" style="fill:#110679;"/>
    <path clip-path="url(#p7a742c0e2a)" d="M 206.297214 168.527892 
L 206.274386 165.98764 
L 218.942669 169.812259 
L 218.949524 172.361429 
z
" style="fill:#0d023b;"/>
    <path clip-path="url(#p7a742c0e2a)" d="M 165.82912 174.154745 
L 165.81862 173.795476 
L 173.677064 167.150617 
L 173.686069 167.507715 
z
" style="fill:#0b0777;"/>
    <path clip-path="url(#p7a742c0e2a)" d="M 218.949524 172.361429 
L 226.292478 165.747667 
L 239.002775 169.551023 
L 231.739835 176.23678 
z
" style="fill:#40015a;"/>
    <path clip-path="url(#p7a742c0e2a)" d="M 226.292478 165.747667 
L 226.311483 146.19545 
L 239.146174 149.929334 
L 239.002775 169.551023 
z
" style="fill:#320146;"/>
    <path clip-path="url(#p7a742c0e2a)" d="M 284.848695 174.43298 
L 284.850007 174.389585 
L 291.599193 167.737649 
L 291.597749 167.780781 
z
" style="fill:#0b0777;"/>
    <path clip-path="url(#p7a742c0e2a)" d="M 284.848695 174.43298 
L 291.597749 167.780781 
L 291.602401 167.641855 
L 284.85292 174.293209 
z
" style="fill:#050338;"/>
    <path clip-path="url(#p7a742c0e2a)" d="M 239.002775 169.551023 
L 239.220695 139.732503 
L 246.451853 133.354623 
L 246.131049 162.989229 
z
" style="fill:#8f1988;"/>
    <path clip-path="url(#p7a742c0e2a)" d="M 198.736391 175.194243 
L 206.297214 168.527892 
L 206.291668 167.910807 
L 198.728447 174.573405 
z
" style="fill:#070339;"/>
    <path clip-path="url(#p7a742c0e2a)" d="M 251.851153 173.395697 
L 258.898031 166.762758 
L 271.803162 170.57712 
L 264.839875 177.282368 
z
" style="fill:#0e034b;"/>
    <path clip-path="url(#p7a742c0e2a)" d="M 198.736391 175.194243 
L 198.70369 172.638516 
L 206.274386 165.98764 
L 206.297214 168.527892 
z
" style="fill:#1c057e;"/>
    <path clip-path="url(#p7a742c0e2a)" d="M 218.949524 172.361429 
L 218.896617 152.688658 
L 226.311483 146.19545 
L 226.292478 165.747667 
z
" style="fill:#6a0195;"/>
    <path clip-path="url(#p7a742c0e2a)" d="M 271.803162 170.57712 
L 284.848695 174.43298 
L 284.85292 174.293209 
L 271.806458 170.437837 
z
" style="fill:#0b0777;"/>
    <path clip-path="url(#p7a742c0e2a)" d="M 271.803162 170.57712 
L 271.806689 170.428092 
L 284.853216 174.28343 
L 284.848695 174.43298 
z
" style="fill:#050338;"/>
    <path clip-path="url(#p7a742c0e2a)" d="M 251.875007 171.659309 
L 264.875182 175.539876 
L 271.844152 168.84518 
L 258.927716 165.036871 
z
" style="fill:#15056c;"/>
    <path clip-path="url(#p7a742c0e2a)" d="M 165.82912 174.154745 
L 173.686069 167.507715 
L 186.143392 171.330164 
L 178.361455 178.049733 
z
" style="fill:#070448;"/>
    <path clip-path="url(#p7a742c0e2a)" d="M 165.81862 173.795476 
L 178.353159 177.689203 
L 186.136565 170.971815 
L 173.677064 167.150617 
z
" style="fill:#0a0667;"/>
    <path clip-path="url(#p7a742c0e2a)" d="M 284.848695 174.43298 
L 291.597749 167.780781 
L 304.698789 171.606197 
L 298.036935 178.33102 
z
" style="fill:#070448;"/>
    <path clip-path="url(#p7a742c0e2a)" d="M 284.850007 174.389585 
L 298.038541 178.287473 
L 304.700524 171.562913 
L 291.599193 167.737649 
z
" style="fill:#0a0667;"/>
    <path clip-path="url(#p7a742c0e2a)" d="M 186.143392 171.330164 
L 198.736391 175.194243 
L 198.728447 174.573405 
L 186.131606 170.711496 
z
" style="fill:#0e0678;"/>
    <path clip-path="url(#p7a742c0e2a)" d="M 186.143392 171.330164 
L 186.124452 170.336033 
L 198.723627 174.196623 
L 198.736391 175.194243 
z
" style="fill:#080339;"/>
    <path clip-path="url(#p7a742c0e2a)" d="M 198.736391 175.194243 
L 206.297214 168.527892 
L 218.949524 172.361429 
L 211.467294 179.100638 
z
" style="fill:#11034c;"/>
    <path clip-path="url(#p7a742c0e2a)" d="M 264.839875 177.282368 
L 264.842913 177.132433 
L 271.806689 170.428092 
L 271.803162 170.57712 
z
" style="fill:#0b0777;"/>
    <path clip-path="url(#p7a742c0e2a)" d="M 264.839875 177.282368 
L 271.803162 170.57712 
L 271.844152 168.84518 
L 264.875182 175.539876 
z
" style="fill:#0b033b;"/>
    <path clip-path="url(#p7a742c0e2a)" d="M 198.70369 172.638516 
L 211.450764 176.535916 
L 218.942669 169.812259 
L 206.274386 165.98764 
z
" style="fill:#18046d;"/>
    <path clip-path="url(#p7a742c0e2a)" d="M 178.361455 178.049733 
L 186.143392 171.330164 
L 186.136565 170.971815 
L 178.353159 177.689203 
z
" style="fill:#050338;"/>
    <path clip-path="url(#p7a742c0e2a)" d="M 231.739835 176.23678 
L 239.002775 169.551023 
L 251.851153 173.395697 
L 244.670417 180.154631 
z
" style="fill:#6a2342;"/>
    <path clip-path="url(#p7a742c0e2a)" d="M 178.361455 178.049733 
L 178.33844 177.049548 
L 186.124452 170.336033 
L 186.143392 171.330164 
z
" style="fill:#110679;"/>
    <path clip-path="url(#p7a742c0e2a)" d="M 298.036935 178.33102 
L 304.698789 171.606197 
L 304.700524 171.562913 
L 298.038541 178.287473 
z
" style="fill:#050338;"/>
    <path clip-path="url(#p7a742c0e2a)" d="M 251.851153 173.395697 
L 258.898031 166.762758 
L 259.409553 137.022173 
L 252.262261 143.470236 
z
" style="fill:#440c40;"/>
    <path clip-path="url(#p7a742c0e2a)" d="M 251.851153 173.395697 
L 251.870793 171.966069 
L 264.868945 175.847715 
L 264.839875 177.282368 
z
" style="fill:#0a033a;"/>
    <path clip-path="url(#p7a742c0e2a)" d="M 251.851153 173.395697 
L 264.839875 177.282368 
L 264.875182 175.539876 
L 251.875007 171.659309 
z
" style="fill:#18057c;"/>
    <path clip-path="url(#p7a742c0e2a)" d="M 264.839875 177.282368 
L 271.803162 170.57712 
L 284.848695 174.43298 
L 277.971253 181.211726 
z
" style="fill:#070448;"/>
    <path clip-path="url(#p7a742c0e2a)" d="M 264.842913 177.132433 
L 277.975298 181.061264 
L 284.853216 174.28343 
L 271.806689 170.428092 
z
" style="fill:#0a0667;"/>
    <path clip-path="url(#p7a742c0e2a)" d="M 165.82912 174.154745 
L 165.819926 173.840152 
L 178.354191 177.734036 
L 178.361455 178.049733 
z
" style="fill:#050338;"/>
    <path clip-path="url(#p7a742c0e2a)" d="M 165.82912 174.154745 
L 178.361455 178.049733 
L 178.353159 177.689203 
L 165.81862 173.795476 
z
" style="fill:#0b0777;"/>
    <path clip-path="url(#p7a742c0e2a)" d="M 211.467294 179.100638 
L 218.949524 172.361429 
L 218.942669 169.812259 
L 211.450764 176.535916 
z
" style="fill:#0d023b;"/>
    <path clip-path="url(#p7a742c0e2a)" d="M 231.739835 176.23678 
L 239.002775 169.551023 
L 239.146174 149.929334 
L 231.812903 156.49392 
z
" style="fill:#320146;"/>
    <path clip-path="url(#p7a742c0e2a)" d="M 284.848695 174.43298 
L 298.036935 178.33102 
L 298.038541 178.287473 
L 284.850007 174.389585 
z
" style="fill:#0b0777;"/>
    <path clip-path="url(#p7a742c0e2a)" d="M 284.848695 174.43298 
L 284.850409 174.376273 
L 298.039034 178.274113 
L 298.036935 178.33102 
z
" style="fill:#050338;"/>
    <path clip-path="url(#p7a742c0e2a)" d="M 178.361455 178.049733 
L 186.143392 171.330164 
L 198.736391 175.194243 
L 191.031582 181.987547 
z
" style="fill:#0a0449;"/>
    <path clip-path="url(#p7a742c0e2a)" d="M 239.002775 169.551023 
L 251.851153 173.395697 
L 252.262261 143.470236 
L 239.220695 139.732503 
z
" style="fill:#8f1988;"/>
    <path clip-path="url(#p7a742c0e2a)" d="M 178.33844 177.049548 
L 191.014818 180.983842 
L 198.723627 174.196623 
L 186.124452 170.336033 
z
" style="fill:#0f0569;"/>
    <path clip-path="url(#p7a742c0e2a)" d="M 244.670417 180.154631 
L 244.685069 178.716285 
L 251.870793 171.966069 
L 251.851153 173.395697 
z
" style="fill:#16067b;"/>
    <path clip-path="url(#p7a742c0e2a)" d="M 157.822766 180.928173 
L 157.812215 180.611663 
L 165.819926 173.840152 
L 165.82912 174.154745 
z
" style="fill:#0b0777;"/>
    <path clip-path="url(#p7a742c0e2a)" d="M 198.736391 175.194243 
L 211.467294 179.100638 
L 211.450764 176.535916 
L 198.70369 172.638516 
z
" style="fill:#1c057e;"/>
    <path clip-path="url(#p7a742c0e2a)" d="M 211.467294 179.100638 
L 218.949524 172.361429 
L 231.739835 176.23678 
L 224.338378 183.050047 
z
" style="fill:#671f45;"/>
    <path clip-path="url(#p7a742c0e2a)" d="M 218.949524 172.361429 
L 231.739835 176.23678 
L 231.812903 156.49392 
L 218.896617 152.688658 
z
" style="fill:#6a0195;"/>
    <path clip-path="url(#p7a742c0e2a)" d="M 277.971253 181.211726 
L 277.972787 181.154672 
L 284.850409 174.376273 
L 284.848695 174.43298 
z
" style="fill:#0b0777;"/>
    <path clip-path="url(#p7a742c0e2a)" d="M 277.971253 181.211726 
L 284.848695 174.43298 
L 284.853216 174.28343 
L 277.975298 181.061264 
z
" style="fill:#050338;"/>
    <path clip-path="url(#p7a742c0e2a)" d="M 218.896617 152.688658 
L 231.812903 156.49392 
L 239.146174 149.929334 
L 226.311483 146.19545 
z
" style="fill:#5c0181;"/>
    <path clip-path="url(#p7a742c0e2a)" d="M 198.736391 175.194243 
L 198.671653 170.134634 
L 211.434569 174.023187 
L 211.467294 179.100638 
z
" style="fill:#14023e;"/>
    <path clip-path="url(#p7a742c0e2a)" d="M 239.220695 139.732503 
L 252.262261 143.470236 
L 259.409553 137.022173 
L 246.451853 133.354623 
z
" style="fill:#7c1676;"/>
    <path clip-path="url(#p7a742c0e2a)" d="M 239.002775 169.551023 
L 239.300211 128.852133 
L 252.412285 132.549641 
L 251.851153 173.395697 
z
" style="fill:#531b34;"/>
    <path clip-path="url(#p7a742c0e2a)" d="M 244.670417 180.154631 
L 251.851153 173.395697 
L 264.839875 177.282368 
L 257.743589 184.115686 
z
" style="fill:#0d034a;"/>
    <path clip-path="url(#p7a742c0e2a)" d="M 191.031582 181.987547 
L 198.736391 175.194243 
L 198.723627 174.196623 
L 191.014818 180.983842 
z
" style="fill:#080339;"/>
    <path clip-path="url(#p7a742c0e2a)" d="M 244.685069 178.716285 
L 257.767794 182.672274 
L 264.868945 175.847715 
L 251.870793 171.966069 
z
" style="fill:#13056b;"/>
    <path clip-path="url(#p7a742c0e2a)" d="M 264.839875 177.282368 
L 277.971253 181.211726 
L 277.975298 181.061264 
L 264.842913 177.132433 
z
" style="fill:#0b0777;"/>
    <path clip-path="url(#p7a742c0e2a)" d="M 264.839875 177.282368 
L 264.842923 177.131959 
L 277.975311 181.060788 
L 277.971253 181.211726 
z
" style="fill:#050338;"/>
    <path clip-path="url(#p7a742c0e2a)" d="M 191.031582 181.987547 
L 190.946557 176.89698 
L 198.671653 170.134634 
L 198.736391 175.194243 
z
" style="fill:#2a0484;"/>
    <path clip-path="url(#p7a742c0e2a)" d="M 157.822766 180.928173 
L 165.82912 174.154745 
L 178.361455 178.049733 
L 170.430723 184.897786 
z
" style="fill:#070448;"/>
    <path clip-path="url(#p7a742c0e2a)" d="M 157.812215 180.611663 
L 170.422124 184.580163 
L 178.354191 177.734036 
L 165.819926 173.840152 
z
" style="fill:#0a0667;"/>
    <path clip-path="url(#p7a742c0e2a)" d="M 277.971253 181.211726 
L 284.848695 174.43298 
L 298.036935 178.33102 
L 291.24765 185.184478 
z
" style="fill:#070448;"/>
    <path clip-path="url(#p7a742c0e2a)" d="M 277.972787 181.154672 
L 291.249574 185.127224 
L 298.039034 178.274113 
L 284.850409 174.376273 
z
" style="fill:#0a0667;"/>
    <path clip-path="url(#p7a742c0e2a)" d="M 231.739835 176.23678 
L 231.891406 135.282496 
L 239.300211 128.852133 
L 239.002775 169.551023 
z
" style="fill:#b03a6e;"/>
    <path clip-path="url(#p7a742c0e2a)" d="M 178.361455 178.049733 
L 191.031582 181.987547 
L 191.014818 180.983842 
L 178.33844 177.049548 
z
" style="fill:#110679;"/>
    <path clip-path="url(#p7a742c0e2a)" d="M 178.361455 178.049733 
L 178.335107 176.904702 
L 191.01239 180.838487 
L 191.031582 181.987547 
z
" style="fill:#09033a;"/>
    <path clip-path="url(#p7a742c0e2a)" d="M 191.031582 181.987547 
L 198.736391 175.194243 
L 211.467294 179.100638 
L 203.841786 185.968896 
z
" style="fill:#190350;"/>
    <path clip-path="url(#p7a742c0e2a)" d="M 257.743589 184.115686 
L 257.746126 183.964359 
L 264.842923 177.131959 
L 264.839875 177.282368 
z
" style="fill:#0b0777;"/>
    <path clip-path="url(#p7a742c0e2a)" d="M 257.743589 184.115686 
L 264.839875 177.282368 
L 264.868945 175.847715 
L 257.767794 182.672274 
z
" style="fill:#0a033a;"/>
    <path clip-path="url(#p7a742c0e2a)" d="M 218.949524 172.361429 
L 218.845591 133.715629 
L 231.883379 137.451293 
L 231.739835 176.23678 
z
" style="fill:#501936;"/>
    <path clip-path="url(#p7a742c0e2a)" d="M 170.430723 184.897786 
L 178.361455 178.049733 
L 178.354191 177.734036 
L 170.422124 184.580163 
z
" style="fill:#050338;"/>
    <path clip-path="url(#p7a742c0e2a)" d="M 224.338378 183.050047 
L 231.739835 176.23678 
L 244.670417 180.154631 
L 237.351973 187.043183 
z
" style="fill:#712c3b;"/>
    <path clip-path="url(#p7a742c0e2a)" d="M 170.430723 184.897786 
L 170.399534 183.745764 
L 178.335107 176.904702 
L 178.361455 178.049733 
z
" style="fill:#13067a;"/>
    <path clip-path="url(#p7a742c0e2a)" d="M 291.24765 185.184478 
L 298.036935 178.33102 
L 298.039034 178.274113 
L 291.249574 185.127224 
z
" style="fill:#050338;"/>
    <path clip-path="url(#p7a742c0e2a)" d="M 190.946557 176.89698 
L 203.789173 180.860337 
L 211.434569 174.023187 
L 198.671653 170.134634 
z
" style="fill:#240473;"/>
    <path clip-path="url(#p7a742c0e2a)" d="M 244.670417 180.154631 
L 257.743589 184.115686 
L 257.767794 182.672274 
L 244.685069 178.716285 
z
" style="fill:#16067b;"/>
    <path clip-path="url(#p7a742c0e2a)" d="M 244.670417 180.154631 
L 244.68912 178.318594 
L 257.774487 182.27318 
L 257.743589 184.115686 
z
" style="fill:#0b033b;"/>
    <path clip-path="url(#p7a742c0e2a)" d="M 211.467294 179.100638 
L 211.216652 140.212429 
L 218.845591 133.715629 
L 218.949524 172.361429 
z
" style="fill:#aa3473;"/>
    <path clip-path="url(#p7a742c0e2a)" d="M 257.743589 184.115686 
L 264.839875 177.282368 
L 277.971253 181.211726 
L 270.961723 188.120663 
z
" style="fill:#070448;"/>
    <path clip-path="url(#p7a742c0e2a)" d="M 257.746126 183.964359 
L 270.965285 187.968803 
L 277.975311 181.060788 
L 264.842923 177.131959 
z
" style="fill:#0a0667;"/>
    <path clip-path="url(#p7a742c0e2a)" d="M 157.822766 180.928173 
L 170.430723 184.897786 
L 170.422124 184.580163 
L 157.812215 180.611663 
z
" style="fill:#0b0777;"/>
    <path clip-path="url(#p7a742c0e2a)" d="M 157.822766 180.928173 
L 157.809988 180.544859 
L 170.420309 184.513123 
L 170.430723 184.897786 
z
" style="fill:#070339;"/>
    <path clip-path="url(#p7a742c0e2a)" d="M 277.971253 181.211726 
L 291.24765 185.184478 
L 291.249574 185.127224 
L 277.972787 181.154672 
z
" style="fill:#0b0777;"/>
    <path clip-path="url(#p7a742c0e2a)" d="M 277.971253 181.211726 
L 277.973019 181.146033 
L 291.249866 185.118554 
L 291.24765 185.184478 
z
" style="fill:#050338;"/>
    <path clip-path="url(#p7a742c0e2a)" d="M 203.841786 185.968896 
L 211.467294 179.100638 
L 211.434569 174.023187 
L 203.789173 180.860337 
z
" style="fill:#14023e;"/>
    <path clip-path="url(#p7a742c0e2a)" d="M 170.430723 184.897786 
L 178.361455 178.049733 
L 191.031582 181.987547 
L 183.178635 188.911464 
z
" style="fill:#0c044a;"/>
    <path clip-path="url(#p7a742c0e2a)" d="M 170.399534 183.745764 
L 183.154689 187.755379 
L 191.01239 180.838487 
L 178.335107 176.904702 
z
" style="fill:#11056a;"/>
    <path clip-path="url(#p7a742c0e2a)" d="M 237.351973 187.043183 
L 237.364058 185.195923 
L 244.68912 178.318594 
L 244.670417 180.154631 
z
" style="fill:#18057c;"/>
    <path clip-path="url(#p7a742c0e2a)" d="M 244.670417 180.154631 
L 251.851153 173.395697 
L 252.412285 132.549641 
L 245.089115 139.051832 
z
" style="fill:#531b34;"/>
    <path clip-path="url(#p7a742c0e2a)" d="M 149.662704 187.831639 
L 149.64822 187.445984 
L 157.809988 180.544859 
L 157.822766 180.928173 
z
" style="fill:#0e0678;"/>
    <path clip-path="url(#p7a742c0e2a)" d="M 203.841786 185.968896 
L 211.467294 179.100638 
L 224.338378 183.050047 
L 216.794403 189.994506 
z
" style="fill:#80442a;"/>
    <path clip-path="url(#p7a742c0e2a)" d="M 270.961723 188.120663 
L 270.963273 188.054569 
L 277.973019 181.146033 
L 277.971253 181.211726 
z
" style="fill:#0b0777;"/>
    <path clip-path="url(#p7a742c0e2a)" d="M 270.961723 188.120663 
L 277.971253 181.211726 
L 277.975311 181.060788 
L 270.965285 187.968803 
z
" style="fill:#050338;"/>
    <path clip-path="url(#p7a742c0e2a)" d="M 191.031582 181.987547 
L 203.841786 185.968896 
L 203.789173 180.860337 
L 190.946557 176.89698 
z
" style="fill:#2a0484;"/>
    <path clip-path="url(#p7a742c0e2a)" d="M 231.739835 176.23678 
L 244.670417 180.154631 
L 245.089115 139.051832 
L 231.891406 135.282496 
z
" style="fill:#b03a6e;"/>
    <path clip-path="url(#p7a742c0e2a)" d="M 237.351973 187.043183 
L 244.670417 180.154631 
L 257.743589 184.115686 
L 250.510457 191.080779 
z
" style="fill:#0e034b;"/>
    <path clip-path="url(#p7a742c0e2a)" d="M 183.178635 188.911464 
L 191.031582 181.987547 
L 191.01239 180.838487 
L 183.154689 187.755379 
z
" style="fill:#09033a;"/>
    <path clip-path="url(#p7a742c0e2a)" d="M 191.031582 181.987547 
L 190.851814 171.224568 
L 203.730544 175.167706 
L 203.841786 185.968896 
z
" style="fill:#200143;"/>
    <path clip-path="url(#p7a742c0e2a)" d="M 257.743589 184.115686 
L 270.961723 188.120663 
L 270.965285 187.968803 
L 257.746126 183.964359 
z
" style="fill:#0b0777;"/>
    <path clip-path="url(#p7a742c0e2a)" d="M 257.743589 184.115686 
L 257.747718 183.869471 
L 270.967518 187.873581 
L 270.961723 188.120663 
z
" style="fill:#050338;"/>
    <path clip-path="url(#p7a742c0e2a)" d="M 237.364058 185.195923 
L 250.534898 189.226995 
L 257.774487 182.27318 
L 244.68912 178.318594 
z
" style="fill:#15056c;"/>
    <path clip-path="url(#p7a742c0e2a)" d="M 149.662704 187.831639 
L 157.822766 180.928173 
L 170.430723 184.897786 
L 162.346885 191.878042 
z
" style="fill:#090449;"/>
    <path clip-path="url(#p7a742c0e2a)" d="M 231.739835 176.23678 
L 231.910008 130.256184 
L 245.140509 134.006656 
L 244.670417 180.154631 
z
" style="fill:#59222e;"/>
    <path clip-path="url(#p7a742c0e2a)" d="M 149.64822 187.445984 
L 162.334794 191.491027 
L 170.420309 184.513123 
L 157.809988 180.544859 
z
" style="fill:#0c0668;"/>
    <path clip-path="url(#p7a742c0e2a)" d="M 224.338378 183.050047 
L 231.739835 176.23678 
L 231.883379 137.451293 
L 224.338378 144.020883 
z
" style="fill:#501936;"/>
    <path clip-path="url(#p7a742c0e2a)" d="M 270.961723 188.120663 
L 277.971253 181.211726 
L 291.24765 185.184478 
L 284.327244 192.170297 
z
" style="fill:#070448;"/>
    <path clip-path="url(#p7a742c0e2a)" d="M 270.963273 188.054569 
L 284.32925 192.10397 
L 291.249866 185.118554 
L 277.973019 181.146033 
z
" style="fill:#0a0667;"/>
    <path clip-path="url(#p7a742c0e2a)" d="M 170.430723 184.897786 
L 183.178635 188.911464 
L 183.154689 187.755379 
L 170.399534 183.745764 
z
" style="fill:#13067a;"/>
    <path clip-path="url(#p7a742c0e2a)" d="M 170.430723 184.897786 
L 170.37533 182.851718 
L 183.136106 186.858175 
L 183.178635 188.911464 
z
" style="fill:#0c033b;"/>
    <path clip-path="url(#p7a742c0e2a)" d="M 183.178635 188.911464 
L 182.954334 178.082184 
L 190.851814 171.224568 
L 191.031582 181.987547 
z
" style="fill:#44028e;"/>
    <path clip-path="url(#p7a742c0e2a)" d="M 183.178635 188.911464 
L 191.031582 181.987547 
L 203.841786 185.968896 
L 196.068846 192.969946 
z
" style="fill:#290156;"/>
    <path clip-path="url(#p7a742c0e2a)" d="M 250.510457 191.080779 
L 250.513723 190.833059 
L 257.747718 183.869471 
L 257.743589 184.115686 
z
" style="fill:#0b0777;"/>
    <path clip-path="url(#p7a742c0e2a)" d="M 250.510457 191.080779 
L 257.743589 184.115686 
L 257.774487 182.27318 
L 250.534898 189.226995 
z
" style="fill:#0b033b;"/>
    <path clip-path="url(#p7a742c0e2a)" d="M 224.338378 183.050047 
L 224.338378 136.778982 
L 231.910008 130.256184 
L 231.739835 176.23678 
z
" style="fill:#bc4962;"/>
    <path clip-path="url(#p7a742c0e2a)" d="M 211.467294 179.100638 
L 224.338378 183.050047 
L 224.338378 144.020883 
L 211.216652 140.212429 
z
" style="fill:#aa3473;"/>
    <path clip-path="url(#p7a742c0e2a)" d="M 162.346885 191.878042 
L 170.430723 184.897786 
L 170.420309 184.513123 
L 162.334794 191.491027 
z
" style="fill:#070339;"/>
    <path clip-path="url(#p7a742c0e2a)" d="M 216.794403 189.994506 
L 224.338378 183.050047 
L 237.351973 187.043183 
L 229.891821 194.06512 
z
" style="fill:#6e273f;"/>
    <path clip-path="url(#p7a742c0e2a)" d="M 284.327244 192.170297 
L 291.24765 185.184478 
L 291.249866 185.118554 
L 284.32925 192.10397 
z
" style="fill:#050338;"/>
    <path clip-path="url(#p7a742c0e2a)" d="M 162.346885 191.878042 
L 162.28257 189.819445 
L 170.37533 182.851718 
L 170.430723 184.897786 
z
" style="fill:#1a057d;"/>
    <path clip-path="url(#p7a742c0e2a)" d="M 237.351973 187.043183 
L 237.363926 185.216169 
L 250.53463 189.247314 
L 250.510457 191.080779 
z
" style="fill:#0b033b;"/>
    <path clip-path="url(#p7a742c0e2a)" d="M 237.351973 187.043183 
L 250.510457 191.080779 
L 250.534898 189.226995 
L 237.364058 185.195923 
z
" style="fill:#18057c;"/>
    <path clip-path="url(#p7a742c0e2a)" d="M 231.891406 135.282496 
L 245.089115 139.051832 
L 252.412285 132.549641 
L 239.300211 128.852133 
z
" style="fill:#98325f;"/>
    <path clip-path="url(#p7a742c0e2a)" d="M 250.510457 191.080779 
L 257.743589 184.115686 
L 270.961723 188.120663 
L 263.816264 195.163579 
z
" style="fill:#070448;"/>
    <path clip-path="url(#p7a742c0e2a)" d="M 250.513723 190.833059 
L 263.821218 194.914985 
L 270.967518 187.873581 
L 257.747718 183.869471 
z
" style="fill:#0a0667;"/>
    <path clip-path="url(#p7a742c0e2a)" d="M 149.662704 187.831639 
L 162.346885 191.878042 
L 162.334794 191.491027 
L 149.64822 187.445984 
z
" style="fill:#0e0678;"/>
    <path clip-path="url(#p7a742c0e2a)" d="M 149.662704 187.831639 
L 149.643662 187.324637 
L 162.330989 191.369251 
L 162.346885 191.878042 
z
" style="fill:#070339;"/>
    <path clip-path="url(#p7a742c0e2a)" d="M 270.961723 188.120663 
L 284.327244 192.170297 
L 284.32925 192.10397 
L 270.963273 188.054569 
z
" style="fill:#0b0777;"/>
    <path clip-path="url(#p7a742c0e2a)" d="M 270.961723 188.120663 
L 270.963275 188.05449 
L 284.329252 192.10389 
L 284.327244 192.170297 
z
" style="fill:#050338;"/>
    <path clip-path="url(#p7a742c0e2a)" d="M 162.346885 191.878042 
L 170.430723 184.897786 
L 183.178635 188.911464 
L 175.173234 195.969799 
z
" style="fill:#10034c;"/>
    <path clip-path="url(#p7a742c0e2a)" d="M 229.891821 194.06512 
L 229.896971 192.226913 
L 237.363926 185.216169 
L 237.351973 187.043183 
z
" style="fill:#18057c;"/>
    <path clip-path="url(#p7a742c0e2a)" d="M 162.28257 189.819445 
L 175.12194 193.903922 
L 183.136106 186.858175 
L 170.37533 182.851718 
z
" style="fill:#17056d;"/>
    <path clip-path="url(#p7a742c0e2a)" d="M 182.954334 178.082184 
L 195.913926 182.102134 
L 203.730544 175.167706 
L 190.851814 171.224568 
z
" style="fill:#3b027b;"/>
    <path clip-path="url(#p7a742c0e2a)" d="M 141.344465 194.868925 
L 141.323097 194.358819 
L 149.643662 187.324637 
L 149.662704 187.831639 
z
" style="fill:#0e0678;"/>
    <path clip-path="url(#p7a742c0e2a)" d="M 196.068846 192.969946 
L 203.841786 185.968896 
L 203.730544 175.167706 
L 195.913926 182.102134 
z
" style="fill:#200143;"/>
    <path clip-path="url(#p7a742c0e2a)" d="M 196.068846 192.969946 
L 203.841786 185.968896 
L 216.794403 189.994506 
L 209.103753 197.073984 
z
" style="fill:#876c14;"/>
    <path clip-path="url(#p7a742c0e2a)" d="M 211.216652 140.212429 
L 224.338378 144.020883 
L 231.883379 137.451293 
L 218.845591 133.715629 
z
" style="fill:#942d64;"/>
    <path clip-path="url(#p7a742c0e2a)" d="M 263.816264 195.163579 
L 263.81759 195.097001 
L 270.963275 188.05449 
L 270.961723 188.120663 
z
" style="fill:#0b0777;"/>
    <path clip-path="url(#p7a742c0e2a)" d="M 263.816264 195.163579 
L 270.961723 188.120663 
L 270.967518 187.873581 
L 263.821218 194.914985 
z
" style="fill:#050338;"/>
    <path clip-path="url(#p7a742c0e2a)" d="M 211.467294 179.100638 
L 211.087973 120.247148 
L 224.338378 123.979983 
L 224.338378 183.050047 
z
" style="fill:#643521;"/>
    <path clip-path="url(#p7a742c0e2a)" d="M 237.351973 187.043183 
L 244.670417 180.154631 
L 245.140509 134.006656 
L 237.655809 140.603209 
z
" style="fill:#59222e;"/>
    <path clip-path="url(#p7a742c0e2a)" d="M 229.891821 194.06512 
L 237.351973 187.043183 
L 250.510457 191.080779 
L 243.136481 198.181496 
z
" style="fill:#0e034b;"/>
    <path clip-path="url(#p7a742c0e2a)" d="M 175.173234 195.969799 
L 183.178635 188.911464 
L 183.136106 186.858175 
L 175.12194 193.903922 
z
" style="fill:#0c033b;"/>
    <path clip-path="url(#p7a742c0e2a)" d="M 183.178635 188.911464 
L 196.068846 192.969946 
L 195.913926 182.102134 
L 182.954334 178.082184 
z
" style="fill:#44028e;"/>
    <path clip-path="url(#p7a742c0e2a)" d="M 224.338378 183.050047 
L 224.338378 139.52419 
L 237.637781 143.358772 
L 237.351973 187.043183 
z
" style="fill:#561f31;"/>
    <path clip-path="url(#p7a742c0e2a)" d="M 250.510457 191.080779 
L 250.513297 190.865356 
L 263.820572 194.947396 
L 263.816264 195.163579 
z
" style="fill:#050338;"/>
    <path clip-path="url(#p7a742c0e2a)" d="M 250.510457 191.080779 
L 263.816264 195.163579 
L 263.821218 194.914985 
L 250.513723 190.833059 
z
" style="fill:#0b0777;"/>
    <path clip-path="url(#p7a742c0e2a)" d="M 203.841786 185.968896 
L 203.231779 126.739551 
L 211.087973 120.247148 
L 211.467294 179.100638 
z
" style="fill:#d47046;"/>
    <path clip-path="url(#p7a742c0e2a)" d="M 229.896971 192.226913 
L 243.154013 196.336786 
L 250.53463 189.247314 
L 237.363926 185.216169 
z
" style="fill:#15056c;"/>
    <path clip-path="url(#p7a742c0e2a)" d="M 141.344465 194.868925 
L 149.662704 187.831639 
L 162.346885 191.878042 
L 154.105465 198.994368 
z
" style="fill:#090449;"/>
    <path clip-path="url(#p7a742c0e2a)" d="M 224.338378 183.050047 
L 237.351973 187.043183 
L 237.655809 140.603209 
L 224.338378 136.778982 
z
" style="fill:#bc4962;"/>
    <path clip-path="url(#p7a742c0e2a)" d="M 141.323097 194.358819 
L 154.087281 198.482458 
L 162.330989 191.369251 
L 149.643662 187.324637 
z
" style="fill:#0c0668;"/>
    <path clip-path="url(#p7a742c0e2a)" d="M 263.816264 195.163579 
L 270.961723 188.120663 
L 284.327244 192.170297 
L 277.271882 199.292348 
z
" style="fill:#070448;"/>
    <path clip-path="url(#p7a742c0e2a)" d="M 263.81759 195.097001 
L 277.273671 199.225535 
L 284.329252 192.10389 
L 270.963275 188.05449 
z
" style="fill:#0a0667;"/>
    <path clip-path="url(#p7a742c0e2a)" d="M 162.346885 191.878042 
L 175.173234 195.969799 
L 175.12194 193.903922 
L 162.28257 189.819445 
z
" style="fill:#1a057d;"/>
    <path clip-path="url(#p7a742c0e2a)" d="M 162.346885 191.878042 
L 162.269724 189.408277 
L 175.111695 193.491297 
L 175.173234 195.969799 
z
" style="fill:#0d023b;"/>
    <path clip-path="url(#p7a742c0e2a)" d="M 216.794403 189.994506 
L 216.628031 146.193503 
L 224.338378 139.52419 
L 224.338378 183.050047 
z
" style="fill:#b54168;"/>
    <path clip-path="url(#p7a742c0e2a)" d="M 183.178635 188.911464 
L 182.779675 169.649656 
L 195.793287 173.639144 
L 196.068846 192.969946 
z
" style="fill:#300046;"/>
    <path clip-path="url(#p7a742c0e2a)" d="M 175.173234 195.969799 
L 183.178635 188.911464 
L 196.068846 192.969946 
L 188.144156 200.107676 
z
" style="fill:#3e005a;"/>
    <path clip-path="url(#p7a742c0e2a)" d="M 243.136481 198.181496 
L 243.138541 197.964754 
L 250.513297 190.865356 
L 250.510457 191.080779 
z
" style="fill:#0b0777;"/>
    <path clip-path="url(#p7a742c0e2a)" d="M 243.136481 198.181496 
L 250.510457 191.080779 
L 250.53463 189.247314 
L 243.154013 196.336786 
z
" style="fill:#0b033b;"/>
    <path clip-path="url(#p7a742c0e2a)" d="M 154.105465 198.994368 
L 162.346885 191.878042 
L 162.330989 191.369251 
L 154.087281 198.482458 
z
" style="fill:#070339;"/>
    <path clip-path="url(#p7a742c0e2a)" d="M 209.103753 197.073984 
L 216.794403 189.994506 
L 229.891821 194.06512 
L 222.285805 201.224351 
z
" style="fill:#621a4a;"/>
    <path clip-path="url(#p7a742c0e2a)" d="M 277.271882 199.292348 
L 284.327244 192.170297 
L 284.329252 192.10389 
L 277.273671 199.225535 
z
" style="fill:#050338;"/>
    <path clip-path="url(#p7a742c0e2a)" d="M 154.105465 198.994368 
L 154.017194 196.509444 
L 162.269724 189.408277 
L 162.346885 191.878042 
z
" style="fill:#1c057e;"/>
    <path clip-path="url(#p7a742c0e2a)" d="M 175.173234 195.969799 
L 174.692008 176.588278 
L 182.779675 169.649656 
L 183.178635 188.911464 
z
" style="fill:#660195;"/>
    <path clip-path="url(#p7a742c0e2a)" d="M 229.891821 194.06512 
L 229.896723 192.315396 
L 243.153169 196.425582 
L 243.136481 198.181496 
z
" style="fill:#0b033b;"/>
    <path clip-path="url(#p7a742c0e2a)" d="M 229.891821 194.06512 
L 243.136481 198.181496 
L 243.154013 196.336786 
L 229.896971 192.226913 
z
" style="fill:#18057c;"/>
    <path clip-path="url(#p7a742c0e2a)" d="M 243.136481 198.181496 
L 250.510457 191.080779 
L 263.816264 195.163579 
L 256.530882 202.34441 
z
" style="fill:#070448;"/>
    <path clip-path="url(#p7a742c0e2a)" d="M 243.138541 197.964754 
L 256.534429 202.126901 
L 263.820572 194.947396 
L 250.513297 190.865356 
z
" style="fill:#0a0667;"/>
    <path clip-path="url(#p7a742c0e2a)" d="M 141.344465 194.868925 
L 154.105465 198.994368 
L 154.087281 198.482458 
L 141.323097 194.358819 
z
" style="fill:#0e0678;"/>
    <path clip-path="url(#p7a742c0e2a)" d="M 263.816264 195.163579 
L 277.271882 199.292348 
L 277.273671 199.225535 
L 263.81759 195.097001 
z
" style="fill:#0b0777;"/>
    <path clip-path="url(#p7a742c0e2a)" d="M 263.816264 195.163579 
L 263.818564 195.048134 
L 277.274984 199.176495 
L 277.271882 199.292348 
z
" style="fill:#050338;"/>
    <path clip-path="url(#p7a742c0e2a)" d="M 216.794403 189.994506 
L 224.338378 183.050047 
L 224.338378 123.979983 
L 216.568599 130.546569 
z
" style="fill:#643521;"/>
    <path clip-path="url(#p7a742c0e2a)" d="M 154.105465 198.994368 
L 162.346885 191.878042 
L 175.173234 195.969799 
L 167.010898 203.166503 
z
" style="fill:#11034c;"/>
    <path clip-path="url(#p7a742c0e2a)" d="M 222.285805 201.224351 
L 222.283976 199.463889 
L 229.896723 192.315396 
L 229.891821 194.06512 
z
" style="fill:#18057c;"/>
    <path clip-path="url(#p7a742c0e2a)" d="M 224.338378 136.778982 
L 237.655809 140.603209 
L 245.140509 134.006656 
L 231.910008 130.256184 
z
" style="fill:#a33f55;"/>
    <path clip-path="url(#p7a742c0e2a)" d="M 154.017194 196.509444 
L 166.938438 200.672773 
L 175.111695 193.491297 
L 162.269724 189.408277 
z
" style="fill:#18046d;"/>
    <path clip-path="url(#p7a742c0e2a)" d="M 229.891821 194.06512 
L 237.351973 187.043183 
L 237.637781 143.358772 
L 230.014994 150.104139 
z
" style="fill:#561f31;"/>
    <path clip-path="url(#p7a742c0e2a)" d="M 188.144156 200.107676 
L 196.068846 192.969946 
L 209.103753 197.073984 
L 201.262108 204.292457 
z
" style="fill:#808512;"/>
    <path clip-path="url(#p7a742c0e2a)" d="M 216.794403 189.994506 
L 216.656876 153.787646 
L 229.993636 157.726796 
L 229.891821 194.06512 
z
" style="fill:#4c143a;"/>
    <path clip-path="url(#p7a742c0e2a)" d="M 256.530882 202.34441 
L 256.532776 202.228257 
L 263.818564 195.048134 
L 263.816264 195.163579 
z
" style="fill:#0b0777;"/>
    <path clip-path="url(#p7a742c0e2a)" d="M 256.530882 202.34441 
L 263.816264 195.163579 
L 263.820572 194.947396 
L 256.534429 202.126901 
z
" style="fill:#050338;"/>
    <path clip-path="url(#p7a742c0e2a)" d="M 203.841786 185.968896 
L 216.794403 189.994506 
L 216.568599 130.546569 
L 203.231779 126.739551 
z
" style="fill:#d47046;"/>
    <path clip-path="url(#p7a742c0e2a)" d="M 222.285805 201.224351 
L 229.891821 194.06512 
L 243.136481 198.181496 
L 235.617509 205.421836 
z
" style="fill:#0e034b;"/>
    <path clip-path="url(#p7a742c0e2a)" d="M 167.010898 203.166503 
L 175.173234 195.969799 
L 175.111695 193.491297 
L 166.938438 200.672773 
z
" style="fill:#0d023b;"/>
    <path clip-path="url(#p7a742c0e2a)" d="M 216.794403 189.994506 
L 229.891821 194.06512 
L 230.014994 150.104139 
L 216.628031 146.193503 
z
" style="fill:#b54168;"/>
    <path clip-path="url(#p7a742c0e2a)" d="M 188.144156 200.107676 
L 196.068846 192.969946 
L 195.793287 173.639144 
L 187.787872 180.656582 
z
" style="fill:#300046;"/>
    <path clip-path="url(#p7a742c0e2a)" d="M 209.103753 197.073984 
L 208.823276 160.639002 
L 216.656876 153.787646 
L 216.794403 189.994506 
z
" style="fill:#a22b7a;"/>
    <path clip-path="url(#p7a742c0e2a)" d="M 243.136481 198.181496 
L 256.530882 202.34441 
L 256.534429 202.126901 
L 243.138541 197.964754 
z
" style="fill:#0b0777;"/>
    <path clip-path="url(#p7a742c0e2a)" d="M 243.136481 198.181496 
L 243.138568 197.961948 
L 256.534475 202.124086 
L 256.530882 202.34441 
z
" style="fill:#050338;"/>
    <path clip-path="url(#p7a742c0e2a)" d="M 222.283976 199.463889 
L 235.627621 203.655135 
L 243.153169 196.425582 
L 229.896723 192.315396 
z
" style="fill:#15056c;"/>
    <path clip-path="url(#p7a742c0e2a)" d="M 256.530882 202.34441 
L 263.816264 195.163579 
L 277.271882 199.292348 
L 270.077576 206.554656 
z
" style="fill:#070448;"/>
    <path clip-path="url(#p7a742c0e2a)" d="M 256.532776 202.228257 
L 270.080283 206.438092 
L 277.274984 199.176495 
L 263.818564 195.048134 
z
" style="fill:#0a0667;"/>
    <path clip-path="url(#p7a742c0e2a)" d="M 154.105465 198.994368 
L 167.010898 203.166503 
L 166.938438 200.672773 
L 154.017194 196.509444 
z
" style="fill:#1c057e;"/>
    <path clip-path="url(#p7a742c0e2a)" d="M 174.692008 176.588278 
L 187.787872 180.656582 
L 195.793287 173.639144 
L 182.779675 169.649656 
z
" style="fill:#590181;"/>
    <path clip-path="url(#p7a742c0e2a)" d="M 175.173234 195.969799 
L 188.144156 200.107676 
L 187.787872 180.656582 
L 174.692008 176.588278 
z
" style="fill:#660195;"/>
    <path clip-path="url(#p7a742c0e2a)" d="M 167.010898 203.166503 
L 175.173234 195.969799 
L 188.144156 200.107676 
L 180.063228 207.386128 
z
" style="fill:#500a56;"/>
    <path clip-path="url(#p7a742c0e2a)" d="M 235.617509 205.421836 
L 235.618773 205.200942 
L 243.138568 197.961948 
L 243.136481 198.181496 
z
" style="fill:#0b0777;"/>
    <path clip-path="url(#p7a742c0e2a)" d="M 235.617509 205.421836 
L 243.136481 198.181496 
L 243.153169 196.425582 
L 235.627621 203.655135 
z
" style="fill:#0b033b;"/>
    <path clip-path="url(#p7a742c0e2a)" d="M 203.841786 185.968896 
L 203.04235 108.346715 
L 216.498463 112.08185 
L 216.794403 189.994506 
z
" style="fill:#695510;"/>
    <path clip-path="url(#p7a742c0e2a)" d="M 201.262108 204.292457 
L 209.103753 197.073984 
L 222.285805 201.224351 
L 214.529606 208.524945 
z
" style="fill:#4c0658;"/>
    <path clip-path="url(#p7a742c0e2a)" d="M 270.077576 206.554656 
L 277.271882 199.292348 
L 277.274984 199.176495 
L 270.080283 206.438092 
z
" style="fill:#050338;"/>
    <path clip-path="url(#p7a742c0e2a)" d="M 175.173234 195.969799 
L 174.498587 168.798181 
L 187.644659 172.837916 
L 188.144156 200.107676 
z
" style="fill:#3f0843;"/>
    <path clip-path="url(#p7a742c0e2a)" d="M 222.285805 201.224351 
L 222.284008 199.494946 
L 235.627442 203.686302 
L 235.617509 205.421836 
z
" style="fill:#0b033b;"/>
    <path clip-path="url(#p7a742c0e2a)" d="M 222.285805 201.224351 
L 235.617509 205.421836 
L 235.627621 203.655135 
L 222.283976 199.463889 
z
" style="fill:#18057c;"/>
    <path clip-path="url(#p7a742c0e2a)" d="M 196.068846 192.969946 
L 194.95516 114.843633 
L 203.04235 108.346715 
L 203.841786 185.968896 
z
" style="fill:#dfb321;"/>
    <path clip-path="url(#p7a742c0e2a)" d="M 235.617509 205.421836 
L 243.136481 198.181496 
L 256.530882 202.34441 
L 249.101427 209.667246 
z
" style="fill:#070448;"/>
    <path clip-path="url(#p7a742c0e2a)" d="M 209.103753 197.073984 
L 208.907682 171.603605 
L 222.259237 175.662071 
L 222.285805 201.224351 
z
" style="fill:#3b0544;"/>
    <path clip-path="url(#p7a742c0e2a)" d="M 235.618773 205.200942 
L 249.104218 209.445569 
L 256.534475 202.124086 
L 243.138568 197.961948 
z
" style="fill:#0a0667;"/>
    <path clip-path="url(#p7a742c0e2a)" d="M 222.285805 201.224351 
L 229.891821 194.06512 
L 229.993636 157.726796 
L 222.247799 164.656762 
z
" style="fill:#4c143a;"/>
    <path clip-path="url(#p7a742c0e2a)" d="M 256.530882 202.34441 
L 256.532463 202.247452 
L 270.079835 206.457355 
L 270.077576 206.554656 
z
" style="fill:#050338;"/>
    <path clip-path="url(#p7a742c0e2a)" d="M 256.530882 202.34441 
L 270.077576 206.554656 
L 270.080283 206.438092 
L 256.532776 202.228257 
z
" style="fill:#0b0777;"/>
    <path clip-path="url(#p7a742c0e2a)" d="M 216.628031 146.193503 
L 230.014994 150.104139 
L 237.637781 143.358772 
L 224.338378 139.52419 
z
" style="fill:#9d395a;"/>
    <path clip-path="url(#p7a742c0e2a)" d="M 167.010898 203.166503 
L 166.216429 175.824596 
L 174.498587 168.798181 
L 175.173234 195.969799 
z
" style="fill:#85108e;"/>
    <path clip-path="url(#p7a742c0e2a)" d="M 214.529606 208.524945 
L 214.520931 206.784907 
L 222.284008 199.494946 
L 222.285805 201.224351 
z
" style="fill:#18057c;"/>
    <path clip-path="url(#p7a742c0e2a)" d="M 201.262108 204.292457 
L 200.962161 178.662618 
L 208.907682 171.603605 
L 209.103753 197.073984 
z
" style="fill:#7e0b91;"/>
    <path clip-path="url(#p7a742c0e2a)" d="M 180.063228 207.386128 
L 188.144156 200.107676 
L 201.262108 204.292457 
L 193.264978 211.654059 
z
" style="fill:#876d14;"/>
    <path clip-path="url(#p7a742c0e2a)" d="M 209.103753 197.073984 
L 222.285805 201.224351 
L 222.247799 164.656762 
L 208.823276 160.639002 
z
" style="fill:#a22b7a;"/>
    <path clip-path="url(#p7a742c0e2a)" d="M 203.231779 126.739551 
L 216.568599 130.546569 
L 224.338378 123.979983 
L 211.087973 120.247148 
z
" style="fill:#b8613c;"/>
    <path clip-path="url(#p7a742c0e2a)" d="M 249.101427 209.667246 
L 249.102655 209.569693 
L 256.532463 202.247452 
L 256.530882 202.34441 
z
" style="fill:#0b0777;"/>
    <path clip-path="url(#p7a742c0e2a)" d="M 249.101427 209.667246 
L 256.530882 202.34441 
L 256.534475 202.124086 
L 249.104218 209.445569 
z
" style="fill:#050338;"/>
    <path clip-path="url(#p7a742c0e2a)" d="M 214.529606 208.524945 
L 222.285805 201.224351 
L 235.617509 205.421836 
L 227.94922 212.80596 
z
" style="fill:#0e034b;"/>
    <path clip-path="url(#p7a742c0e2a)" d="M 235.617509 205.421836 
L 249.101427 209.667246 
L 249.104218 209.445569 
L 235.618773 205.200942 
z
" style="fill:#0b0777;"/>
    <path clip-path="url(#p7a742c0e2a)" d="M 235.617509 205.421836 
L 235.619005 205.160409 
L 249.104731 209.404893 
L 249.101427 209.667246 
z
" style="fill:#050338;"/>
    <path clip-path="url(#p7a742c0e2a)" d="M 214.520931 206.784907 
L 227.952432 211.059746 
L 235.627442 203.686302 
L 222.284008 199.494946 
z
" style="fill:#15056c;"/>
    <path clip-path="url(#p7a742c0e2a)" d="M 209.103753 197.073984 
L 216.794403 189.994506 
L 216.498463 112.08185 
L 208.500079 118.654427 
z
" style="fill:#695510;"/>
    <path clip-path="url(#p7a742c0e2a)" d="M 249.101427 209.667246 
L 256.530882 202.34441 
L 270.077576 206.554656 
L 262.740181 213.961405 
z
" style="fill:#070448;"/>
    <path clip-path="url(#p7a742c0e2a)" d="M 249.102655 209.569693 
L 262.742097 213.863506 
L 270.079835 206.457355 
L 256.532463 202.247452 
z
" style="fill:#0a0667;"/>
    <path clip-path="url(#p7a742c0e2a)" d="M 180.063228 207.386128 
L 188.144156 200.107676 
L 187.644659 172.837916 
L 179.446103 179.945256 
z
" style="fill:#3f0843;"/>
    <path clip-path="url(#p7a742c0e2a)" d="M 208.823276 160.639002 
L 222.247799 164.656762 
L 229.993636 157.726796 
L 216.656876 153.787646 
z
" style="fill:#8d256a;"/>
    <path clip-path="url(#p7a742c0e2a)" d="M 227.94922 212.80596 
L 227.949704 212.542926 
L 235.619005 205.160409 
L 235.617509 205.421836 
z
" style="fill:#0b0777;"/>
    <path clip-path="url(#p7a742c0e2a)" d="M 201.262108 204.292457 
L 201.086434 189.281469 
L 214.454505 193.460145 
L 214.529606 208.524945 
z
" style="fill:#280045;"/>
    <path clip-path="url(#p7a742c0e2a)" d="M 227.94922 212.80596 
L 235.617509 205.421836 
L 235.627442 203.686302 
L 227.952432 211.059746 
z
" style="fill:#0b033b;"/>
    <path clip-path="url(#p7a742c0e2a)" d="M 196.068846 192.969946 
L 209.103753 197.073984 
L 208.500079 118.654427 
L 194.95516 114.843633 
z
" style="fill:#dfb321;"/>
    <path clip-path="url(#p7a742c0e2a)" d="M 214.529606 208.524945 
L 222.285805 201.224351 
L 222.259237 175.662071 
L 214.401374 182.802438 
z
" style="fill:#3b0544;"/>
    <path clip-path="url(#p7a742c0e2a)" d="M 193.264978 211.654059 
L 201.262108 204.292457 
L 214.529606 208.524945 
L 206.61873 215.971129 
z
" style="fill:#330059;"/>
    <path clip-path="url(#p7a742c0e2a)" d="M 262.740181 213.961405 
L 270.077576 206.554656 
L 270.079835 206.457355 
L 262.742097 213.863506 
z
" style="fill:#050338;"/>
    <path clip-path="url(#p7a742c0e2a)" d="M 167.010898 203.166503 
L 180.063228 207.386128 
L 179.446103 179.945256 
L 166.216429 175.824596 
z
" style="fill:#85108e;"/>
    <path clip-path="url(#p7a742c0e2a)" d="M 193.264978 211.654059 
L 193.026061 196.549709 
L 201.086434 189.281469 
L 201.262108 204.292457 
z
" style="fill:#540193;"/>
    <path clip-path="url(#p7a742c0e2a)" d="M 214.529606 208.524945 
L 214.523454 207.290996 
L 227.951498 211.567633 
L 227.94922 212.80596 
z
" style="fill:#09033a;"/>
    <path clip-path="url(#p7a742c0e2a)" d="M 214.529606 208.524945 
L 227.94922 212.80596 
L 227.952432 211.059746 
L 214.520931 206.784907 
z
" style="fill:#18057c;"/>
    <path clip-path="url(#p7a742c0e2a)" d="M 227.94922 212.80596 
L 235.617509 205.421836 
L 249.101427 209.667246 
L 241.523583 217.136342 
z
" style="fill:#070448;"/>
    <path clip-path="url(#p7a742c0e2a)" d="M 201.262108 204.292457 
L 214.529606 208.524945 
L 214.401374 182.802438 
L 200.962161 178.662618 
z
" style="fill:#7e0b91;"/>
    <path clip-path="url(#p7a742c0e2a)" d="M 196.068846 192.969946 
L 194.812981 104.869564 
L 208.422991 108.640423 
L 209.103753 197.073984 
z
" style="fill:#64680e;"/>
    <path clip-path="url(#p7a742c0e2a)" d="M 227.949704 212.542926 
L 241.525898 216.872374 
L 249.104731 209.404893 
L 235.619005 205.160409 
z
" style="fill:#0a0667;"/>
    <path clip-path="url(#p7a742c0e2a)" d="M 249.101427 209.667246 
L 262.740181 213.961405 
L 262.742097 213.863506 
L 249.102655 209.569693 
z
" style="fill:#0b0777;"/>
    <path clip-path="url(#p7a742c0e2a)" d="M 249.101427 209.667246 
L 249.102989 209.543198 
L 262.742617 213.836918 
L 262.740181 213.961405 
z
" style="fill:#050338;"/>
    <path clip-path="url(#p7a742c0e2a)" d="M 166.216429 175.824596 
L 179.446103 179.945256 
L 187.644659 172.837916 
L 174.498587 168.798181 
z
" style="fill:#730e7b;"/>
    <path clip-path="url(#p7a742c0e2a)" d="M 200.962161 178.662618 
L 214.401374 182.802438 
L 222.259237 175.662071 
L 208.907682 171.603605 
z
" style="fill:#6d097e;"/>
    <path clip-path="url(#p7a742c0e2a)" d="M 206.61873 215.971129 
L 206.607506 214.729585 
L 214.523454 207.290996 
L 214.529606 208.524945 
z
" style="fill:#13067a;"/>
    <path clip-path="url(#p7a742c0e2a)" d="M 188.144156 200.107676 
L 186.519839 111.429039 
L 194.812981 104.869564 
L 196.068846 192.969946 
z
" style="fill:#d4dc1e;"/>
    <path clip-path="url(#p7a742c0e2a)" d="M 241.523583 217.136342 
L 241.524677 217.011531 
L 249.102989 209.543198 
L 249.101427 209.667246 
z
" style="fill:#0b0777;"/>
    <path clip-path="url(#p7a742c0e2a)" d="M 241.523583 217.136342 
L 249.101427 209.667246 
L 249.104731 209.404893 
L 241.525898 216.872374 
z
" style="fill:#050338;"/>
    <path clip-path="url(#p7a742c0e2a)" d="M 206.61873 215.971129 
L 214.529606 208.524945 
L 227.94922 212.80596 
L 220.127123 220.338193 
z
" style="fill:#0c044a;"/>
    <path clip-path="url(#p7a742c0e2a)" d="M 206.607506 214.729585 
L 220.12444 219.092237 
L 227.951498 211.567633 
L 214.523454 207.290996 
z
" style="fill:#11056a;"/>
    <path clip-path="url(#p7a742c0e2a)" d="M 227.94922 212.80596 
L 241.523583 217.136342 
L 241.525898 216.872374 
L 227.949704 212.542926 
z
" style="fill:#0b0777;"/>
    <path clip-path="url(#p7a742c0e2a)" d="M 227.94922 212.80596 
L 227.949718 212.535221 
L 241.525966 216.864642 
L 241.523583 217.136342 
z
" style="fill:#050338;"/>
    <path clip-path="url(#p7a742c0e2a)" d="M 206.61873 215.971129 
L 214.529606 208.524945 
L 214.454505 193.460145 
L 206.481696 200.812539 
z
" style="fill:#280045;"/>
    <path clip-path="url(#p7a742c0e2a)" d="M 241.523583 217.136342 
L 249.101427 209.667246 
L 262.740181 213.961405 
L 255.255385 221.516949 
z
" style="fill:#070448;"/>
    <path clip-path="url(#p7a742c0e2a)" d="M 241.524677 217.011531 
L 255.257366 221.391695 
L 262.742617 213.836918 
L 249.102989 209.543198 
z
" style="fill:#0a0667;"/>
    <path clip-path="url(#p7a742c0e2a)" d="M 193.026061 196.549709 
L 206.481696 200.812539 
L 214.454505 193.460145 
L 201.086434 189.281469 
z
" style="fill:#49007f;"/>
    <path clip-path="url(#p7a742c0e2a)" d="M 220.127123 220.338193 
L 220.126536 220.065788 
L 227.949718 212.535221 
L 227.94922 212.80596 
z
" style="fill:#0b0777;"/>
    <path clip-path="url(#p7a742c0e2a)" d="M 193.264978 211.654059 
L 206.61873 215.971129 
L 206.481696 200.812539 
L 193.026061 196.549709 
z
" style="fill:#540193;"/>
    <path clip-path="url(#p7a742c0e2a)" d="M 220.127123 220.338193 
L 227.94922 212.80596 
L 227.951498 211.567633 
L 220.12444 219.092237 
z
" style="fill:#09033a;"/>
    <path clip-path="url(#p7a742c0e2a)" d="M 188.144156 200.107676 
L 186.696773 121.088665 
L 200.333863 124.975908 
L 201.262108 204.292457 
z
" style="fill:#695510;"/>
    <path clip-path="url(#p7a742c0e2a)" d="M 201.262108 204.292457 
L 209.103753 197.073984 
L 208.422991 108.640423 
L 200.220362 115.277443 
z
" style="fill:#64680e;"/>
    <path clip-path="url(#p7a742c0e2a)" d="M 255.255385 221.516949 
L 262.740181 213.961405 
L 262.742617 213.836918 
L 255.257366 221.391695 
z
" style="fill:#050338;"/>
    <path clip-path="url(#p7a742c0e2a)" d="M 206.61873 215.971129 
L 220.127123 220.338193 
L 220.12444 219.092237 
L 206.607506 214.729585 
z
" style="fill:#13067a;"/>
    <path clip-path="url(#p7a742c0e2a)" d="M 180.063228 207.386128 
L 178.274536 127.850752 
L 186.696773 121.088665 
L 188.144156 200.107676 
z
" style="fill:#dfb521;"/>
    <path clip-path="url(#p7a742c0e2a)" d="M 220.127123 220.338193 
L 227.94922 212.80596 
L 241.523583 217.136342 
L 233.792858 224.756123 
z
" style="fill:#070448;"/>
    <path clip-path="url(#p7a742c0e2a)" d="M 188.144156 200.107676 
L 201.262108 204.292457 
L 200.220362 115.277443 
L 186.519839 111.429039 
z
" style="fill:#d4dc1e;"/>
    <path clip-path="url(#p7a742c0e2a)" d="M 220.126536 220.065788 
L 233.794183 224.48275 
L 241.525966 216.864642 
L 227.949718 212.535221 
z
" style="fill:#0a0667;"/>
    <path clip-path="url(#p7a742c0e2a)" d="M 241.523583 217.136342 
L 241.524264 217.058631 
L 255.256619 221.438962 
L 255.255385 221.516949 
z
" style="fill:#050338;"/>
    <path clip-path="url(#p7a742c0e2a)" d="M 241.523583 217.136342 
L 255.255385 221.516949 
L 255.257366 221.391695 
L 241.524677 217.011531 
z
" style="fill:#0b0777;"/>
    <path clip-path="url(#p7a742c0e2a)" d="M 194.95516 114.843633 
L 208.500079 118.654427 
L 216.498463 112.08185 
L 203.04235 108.346715 
z
" style="fill:#c29c1d;"/>
    <path clip-path="url(#p7a742c0e2a)" d="M 233.792858 224.756123 
L 233.793237 224.677935 
L 241.524264 217.058631 
L 241.523583 217.136342 
z
" style="fill:#0b0777;"/>
    <path clip-path="url(#p7a742c0e2a)" d="M 233.792858 224.756123 
L 241.523583 217.136342 
L 241.525966 216.864642 
L 233.794183 224.48275 
z
" style="fill:#050338;"/>
    <path clip-path="url(#p7a742c0e2a)" d="M 220.127123 220.338193 
L 233.792858 224.756123 
L 233.794183 224.48275 
L 220.126536 220.065788 
z
" style="fill:#0b0777;"/>
    <path clip-path="url(#p7a742c0e2a)" d="M 193.264978 211.654059 
L 201.262108 204.292457 
L 200.333863 124.975908 
L 192.002152 131.818379 
z
" style="fill:#695510;"/>
    <path clip-path="url(#p7a742c0e2a)" d="M 233.792858 224.756123 
L 241.523583 217.136342 
L 255.255385 221.516949 
L 247.618703 229.225814 
z
" style="fill:#070448;"/>
    <path clip-path="url(#p7a742c0e2a)" d="M 233.793237 224.677935 
L 247.619641 229.147348 
L 255.256619 221.438962 
L 241.524264 217.058631 
z
" style="fill:#0a0667;"/>
    <path clip-path="url(#p7a742c0e2a)" d="M 180.063228 207.386128 
L 193.264978 211.654059 
L 192.002152 131.818379 
L 178.274536 127.850752 
z
" style="fill:#dfb521;"/>
    <path clip-path="url(#p7a742c0e2a)" d="M 247.618703 229.225814 
L 255.255385 221.516949 
L 255.256619 221.438962 
L 247.619641 229.147348 
z
" style="fill:#050338;"/>
    <path clip-path="url(#p7a742c0e2a)" d="M 233.792858 224.756123 
L 247.618703 229.225814 
L 247.619641 229.147348 
L 233.793237 224.677935 
z
" style="fill:#0b0777;"/>
    <path clip-path="url(#p7a742c0e2a)" d="M 186.519839 111.429039 
L 200.220362 115.277443 
L 208.422991 108.640423 
L 194.812981 104.869564 
z
" style="fill:#b8bf1a;"/>
    <path clip-path="url(#p7a742c0e2a)" d="M 178.274536 127.850752 
L 192.002152 131.818379 
L 200.333863 124.975908 
L 186.696773 121.088665 
z
" style="fill:#c19d1d;"/>
   </g>
   <g id="text_15">
    <!-- W25__H10__A020_bars_extracted.txt -->
    <g transform="translate(110.101875 28.56)scale(0.12 -0.12)">
     <defs>
      <path d="M 3.328125 72.90625 
L 13.28125 72.90625 
L 28.609375 11.28125 
L 43.890625 72.90625 
L 54.984375 72.90625 
L 70.3125 11.28125 
L 85.59375 72.90625 
L 95.609375 72.90625 
L 77.296875 0 
L 64.890625 0 
L 49.515625 63.28125 
L 33.984375 0 
L 21.578125 0 
z
" id="DejaVuSans-87"/>
      <path d="M 10.796875 72.90625 
L 49.515625 72.90625 
L 49.515625 64.59375 
L 19.828125 64.59375 
L 19.828125 46.734375 
Q 21.96875 47.46875 24.109375 47.828125 
Q 26.265625 48.1875 28.421875 48.1875 
Q 40.625 48.1875 47.75 41.5 
Q 54.890625 34.8125 54.890625 23.390625 
Q 54.890625 11.625 47.5625 5.09375 
Q 40.234375 -1.421875 26.90625 -1.421875 
Q 22.3125 -1.421875 17.546875 -0.640625 
Q 12.796875 0.140625 7.71875 1.703125 
L 7.71875 11.625 
Q 12.109375 9.234375 16.796875 8.0625 
Q 21.484375 6.890625 26.703125 6.890625 
Q 35.15625 6.890625 40.078125 11.328125 
Q 45.015625 15.765625 45.015625 23.390625 
Q 45.015625 31 40.078125 35.4375 
Q 35.15625 39.890625 26.703125 39.890625 
Q 22.75 39.890625 18.8125 39.015625 
Q 14.890625 38.140625 10.796875 36.28125 
z
" id="DejaVuSans-53"/>
      <path d="M 50.984375 -16.609375 
L 50.984375 -23.578125 
L -0.984375 -23.578125 
L -0.984375 -16.609375 
z
" id="DejaVuSans-95"/>
      <path d="M 9.8125 72.90625 
L 19.671875 72.90625 
L 19.671875 43.015625 
L 55.515625 43.015625 
L 55.515625 72.90625 
L 65.375 72.90625 
L 65.375 0 
L 55.515625 0 
L 55.515625 34.71875 
L 19.671875 34.71875 
L 19.671875 0 
L 9.8125 0 
z
" id="DejaVuSans-72"/>
      <path d="M 12.40625 8.296875 
L 28.515625 8.296875 
L 28.515625 63.921875 
L 10.984375 60.40625 
L 10.984375 69.390625 
L 28.421875 72.90625 
L 38.28125 72.90625 
L 38.28125 8.296875 
L 54.390625 8.296875 
L 54.390625 0 
L 12.40625 0 
z
" id="DejaVuSans-49"/>
      <path d="M 34.1875 63.1875 
L 20.796875 26.90625 
L 47.609375 26.90625 
z
M 28.609375 72.90625 
L 39.796875 72.90625 
L 67.578125 0 
L 57.328125 0 
L 50.6875 18.703125 
L 17.828125 18.703125 
L 11.1875 0 
L 0.78125 0 
z
" id="DejaVuSans-65"/>
      <path d="M 48.6875 27.296875 
Q 48.6875 37.203125 44.609375 42.84375 
Q 40.53125 48.484375 33.40625 48.484375 
Q 26.265625 48.484375 22.1875 42.84375 
Q 18.109375 37.203125 18.109375 27.296875 
Q 18.109375 17.390625 22.1875 11.75 
Q 26.265625 6.109375 33.40625 6.109375 
Q 40.53125 6.109375 44.609375 11.75 
Q 48.6875 17.390625 48.6875 27.296875 
z
M 18.109375 46.390625 
Q 20.953125 51.265625 25.265625 53.625 
Q 29.59375 56 35.59375 56 
Q 45.5625 56 51.78125 48.09375 
Q 58.015625 40.1875 58.015625 27.296875 
Q 58.015625 14.40625 51.78125 6.484375 
Q 45.5625 -1.421875 35.59375 -1.421875 
Q 29.59375 -1.421875 25.265625 0.953125 
Q 20.953125 3.328125 18.109375 8.203125 
L 18.109375 0 
L 9.078125 0 
L 9.078125 75.984375 
L 18.109375 75.984375 
z
" id="DejaVuSans-98"/>
      <path d="M 34.28125 27.484375 
Q 23.390625 27.484375 19.1875 25 
Q 14.984375 22.515625 14.984375 16.5 
Q 14.984375 11.71875 18.140625 8.90625 
Q 21.296875 6.109375 26.703125 6.109375 
Q 34.1875 6.109375 38.703125 11.40625 
Q 43.21875 16.703125 43.21875 25.484375 
L 43.21875 27.484375 
z
M 52.203125 31.203125 
L 52.203125 0 
L 43.21875 0 
L 43.21875 8.296875 
Q 40.140625 3.328125 35.546875 0.953125 
Q 30.953125 -1.421875 24.3125 -1.421875 
Q 15.921875 -1.421875 10.953125 3.296875 
Q 6 8.015625 6 15.921875 
Q 6 25.140625 12.171875 29.828125 
Q 18.359375 34.515625 30.609375 34.515625 
L 43.21875 34.515625 
L 43.21875 35.40625 
Q 43.21875 41.609375 39.140625 45 
Q 35.0625 48.390625 27.6875 48.390625 
Q 23 48.390625 18.546875 47.265625 
Q 14.109375 46.140625 10.015625 43.890625 
L 10.015625 52.203125 
Q 14.9375 54.109375 19.578125 55.046875 
Q 24.21875 56 28.609375 56 
Q 40.484375 56 46.34375 49.84375 
Q 52.203125 43.703125 52.203125 31.203125 
z
" id="DejaVuSans-97"/>
      <path d="M 41.109375 46.296875 
Q 39.59375 47.171875 37.8125 47.578125 
Q 36.03125 48 33.890625 48 
Q 26.265625 48 22.1875 43.046875 
Q 18.109375 38.09375 18.109375 28.8125 
L 18.109375 0 
L 9.078125 0 
L 9.078125 54.6875 
L 18.109375 54.6875 
L 18.109375 46.1875 
Q 20.953125 51.171875 25.484375 53.578125 
Q 30.03125 56 36.53125 56 
Q 37.453125 56 38.578125 55.875 
Q 39.703125 55.765625 41.0625 55.515625 
z
" id="DejaVuSans-114"/>
      <path d="M 44.28125 53.078125 
L 44.28125 44.578125 
Q 40.484375 46.53125 36.375 47.5 
Q 32.28125 48.484375 27.875 48.484375 
Q 21.1875 48.484375 17.84375 46.4375 
Q 14.5 44.390625 14.5 40.28125 
Q 14.5 37.15625 16.890625 35.375 
Q 19.28125 33.59375 26.515625 31.984375 
L 29.59375 31.296875 
Q 39.15625 29.25 43.1875 25.515625 
Q 47.21875 21.78125 47.21875 15.09375 
Q 47.21875 7.46875 41.1875 3.015625 
Q 35.15625 -1.421875 24.609375 -1.421875 
Q 20.21875 -1.421875 15.453125 -0.5625 
Q 10.6875 0.296875 5.421875 2 
L 5.421875 11.28125 
Q 10.40625 8.6875 15.234375 7.390625 
Q 20.0625 6.109375 24.8125 6.109375 
Q 31.15625 6.109375 34.5625 8.28125 
Q 37.984375 10.453125 37.984375 14.40625 
Q 37.984375 18.0625 35.515625 20.015625 
Q 33.0625 21.96875 24.703125 23.78125 
L 21.578125 24.515625 
Q 13.234375 26.265625 9.515625 29.90625 
Q 5.8125 33.546875 5.8125 39.890625 
Q 5.8125 47.609375 11.28125 51.796875 
Q 16.75 56 26.8125 56 
Q 31.78125 56 36.171875 55.265625 
Q 40.578125 54.546875 44.28125 53.078125 
z
" id="DejaVuSans-115"/>
      <path d="M 56.203125 29.59375 
L 56.203125 25.203125 
L 14.890625 25.203125 
Q 15.484375 15.921875 20.484375 11.0625 
Q 25.484375 6.203125 34.421875 6.203125 
Q 39.59375 6.203125 44.453125 7.46875 
Q 49.3125 8.734375 54.109375 11.28125 
L 54.109375 2.78125 
Q 49.265625 0.734375 44.1875 -0.34375 
Q 39.109375 -1.421875 33.890625 -1.421875 
Q 20.796875 -1.421875 13.15625 6.1875 
Q 5.515625 13.8125 5.515625 26.8125 
Q 5.515625 40.234375 12.765625 48.109375 
Q 20.015625 56 32.328125 56 
Q 43.359375 56 49.78125 48.890625 
Q 56.203125 41.796875 56.203125 29.59375 
z
M 47.21875 32.234375 
Q 47.125 39.59375 43.09375 43.984375 
Q 39.0625 48.390625 32.421875 48.390625 
Q 24.90625 48.390625 20.390625 44.140625 
Q 15.875 39.890625 15.1875 32.171875 
z
" id="DejaVuSans-101"/>
      <path d="M 54.890625 54.6875 
L 35.109375 28.078125 
L 55.90625 0 
L 45.3125 0 
L 29.390625 21.484375 
L 13.484375 0 
L 2.875 0 
L 24.125 28.609375 
L 4.6875 54.6875 
L 15.28125 54.6875 
L 29.78125 35.203125 
L 44.28125 54.6875 
z
" id="DejaVuSans-120"/>
      <path d="M 18.3125 70.21875 
L 18.3125 54.6875 
L 36.8125 54.6875 
L 36.8125 47.703125 
L 18.3125 47.703125 
L 18.3125 18.015625 
Q 18.3125 11.328125 20.140625 9.421875 
Q 21.96875 7.515625 27.59375 7.515625 
L 36.8125 7.515625 
L 36.8125 0 
L 27.59375 0 
Q 17.1875 0 13.234375 3.875 
Q 9.28125 7.765625 9.28125 18.015625 
L 9.28125 47.703125 
L 2.6875 47.703125 
L 2.6875 54.6875 
L 9.28125 54.6875 
L 9.28125 70.21875 
z
" id="DejaVuSans-116"/>
      <path d="M 48.78125 52.59375 
L 48.78125 44.1875 
Q 44.96875 46.296875 41.140625 47.34375 
Q 37.3125 48.390625 33.40625 48.390625 
Q 24.65625 48.390625 19.8125 42.84375 
Q 14.984375 37.3125 14.984375 27.296875 
Q 14.984375 17.28125 19.8125 11.734375 
Q 24.65625 6.203125 33.40625 6.203125 
Q 37.3125 6.203125 41.140625 7.25 
Q 44.96875 8.296875 48.78125 10.40625 
L 48.78125 2.09375 
Q 45.015625 0.34375 40.984375 -0.53125 
Q 36.96875 -1.421875 32.421875 -1.421875 
Q 20.0625 -1.421875 12.78125 6.34375 
Q 5.515625 14.109375 5.515625 27.296875 
Q 5.515625 40.671875 12.859375 48.328125 
Q 20.21875 56 33.015625 56 
Q 37.15625 56 41.109375 55.140625 
Q 45.0625 54.296875 48.78125 52.59375 
z
" id="DejaVuSans-99"/>
      <path d="M 45.40625 46.390625 
L 45.40625 75.984375 
L 54.390625 75.984375 
L 54.390625 0 
L 45.40625 0 
L 45.40625 8.203125 
Q 42.578125 3.328125 38.25 0.953125 
Q 33.9375 -1.421875 27.875 -1.421875 
Q 17.96875 -1.421875 11.734375 6.484375 
Q 5.515625 14.40625 5.515625 27.296875 
Q 5.515625 40.1875 11.734375 48.09375 
Q 17.96875 56 27.875 56 
Q 33.9375 56 38.25 53.625 
Q 42.578125 51.265625 45.40625 46.390625 
z
M 14.796875 27.296875 
Q 14.796875 17.390625 18.875 11.75 
Q 22.953125 6.109375 30.078125 6.109375 
Q 37.203125 6.109375 41.296875 11.75 
Q 45.40625 17.390625 45.40625 27.296875 
Q 45.40625 37.203125 41.296875 42.84375 
Q 37.203125 48.484375 30.078125 48.484375 
Q 22.953125 48.484375 18.875 42.84375 
Q 14.796875 37.203125 14.796875 27.296875 
z
" id="DejaVuSans-100"/>
      <path d="M 10.6875 12.40625 
L 21 12.40625 
L 21 0 
L 10.6875 0 
z
" id="DejaVuSans-46"/>
     </defs>
     <use xlink:href="#DejaVuSans-87"/>
     <use x="98.876953" xlink:href="#DejaVuSans-50"/>
     <use x="162.5" xlink:href="#DejaVuSans-53"/>
     <use x="226.123047" xlink:href="#DejaVuSans-95"/>
     <use x="276.123047" xlink:href="#DejaVuSans-95"/>
     <use x="326.123047" xlink:href="#DejaVuSans-72"/>
     <use x="401.318359" xlink:href="#DejaVuSans-49"/>
     <use x="464.941406" xlink:href="#DejaVuSans-48"/>
     <use x="528.564453" xlink:href="#DejaVuSans-95"/>
     <use x="578.564453" xlink:href="#DejaVuSans-95"/>
     <use x="628.564453" xlink:href="#DejaVuSans-65"/>
     <use x="696.972656" xlink:href="#DejaVuSans-48"/>
     <use x="760.595703" xlink:href="#DejaVuSans-50"/>
     <use x="824.21875" xlink:href="#DejaVuSans-48"/>
     <use x="887.841797" xlink:href="#DejaVuSans-95"/>
     <use x="937.841797" xlink:href="#DejaVuSans-98"/>
     <use x="1001.318359" xlink:href="#DejaVuSans-97"/>
     <use x="1062.597656" xlink:href="#DejaVuSans-114"/>
     <use x="1103.710938" xlink:href="#DejaVuSans-115"/>
     <use x="1155.810547" xlink:href="#DejaVuSans-95"/>
     <use x="1205.810547" xlink:href="#DejaVuSans-101"/>
     <use x="1265.583984" xlink:href="#DejaVuSans-120"/>
     <use x="1324.763672" xlink:href="#DejaVuSans-116"/>
     <use x="1363.972656" xlink:href="#DejaVuSans-114"/>
     <use x="1405.085938" xlink:href="#DejaVuSans-97"/>
     <use x="1466.365234" xlink:href="#DejaVuSans-99"/>
     <use x="1521.345703" xlink:href="#DejaVuSans-116"/>
     <use x="1560.554688" xlink:href="#DejaVuSans-101"/>
     <use x="1622.078125" xlink:href="#DejaVuSans-100"/>
     <use x="1685.554688" xlink:href="#DejaVuSans-46"/>
     <use x="1717.341797" xlink:href="#DejaVuSans-116"/>
     <use x="1756.550781" xlink:href="#DejaVuSans-120"/>
     <use x="1815.730469" xlink:href="#DejaVuSans-116"/>
    </g>
   </g>
  </g>
 </g>
 <defs>
  <clipPath id="p7a742c0e2a">
   <rect height="217.44" width="217.44" x="112.68" y="34.56"/>
  </clipPath>
 </defs>
</svg>
