<?xml version="1.0" encoding="utf-8" standalone="no"?>
<!DOCTYPE svg PUBLIC "-//W3C//DTD SVG 1.1//EN"
  "http://www.w3.org/Graphics/SVG/1.1/DTD/svg11.dtd">
<!-- Created with matplotlib (https://matplotlib.org/) -->
<svg height="288pt" version="1.1" viewBox="0 0 432 288" width="432pt" xmlns="http://www.w3.org/2000/svg" xmlns:xlink="http://www.w3.org/1999/xlink">
 <metadata>
  <rdf:RDF xmlns:cc="http://creativecommons.org/ns#" xmlns:dc="http://purl.org/dc/elements/1.1/" xmlns:rdf="http://www.w3.org/1999/02/22-rdf-syntax-ns#">
   <cc:Work>
    <dc:type rdf:resource="http://purl.org/dc/dcmitype/StillImage"/>
    <dc:date>2021-06-13T21:58:33.240826</dc:date>
    <dc:format>image/svg+xml</dc:format>
    <dc:creator>
     <cc:Agent>
      <dc:title>Matplotlib v3.3.4, https://matplotlib.org/</dc:title>
     </cc:Agent>
    </dc:creator>
   </cc:Work>
  </rdf:RDF>
 </metadata>
 <defs>
  <style type="text/css">*{stroke-linecap:butt;stroke-linejoin:round;}</style>
 </defs>
 <g id="figure_1">
  <g id="patch_1">
   <path d="M 0 288 
L 432 288 
L 432 0 
L 0 0 
z
" style="fill:#ffffff;"/>
  </g>
  <g id="patch_2">
   <path d="M 112.68 252 
L 330.12 252 
L 330.12 34.56 
L 112.68 34.56 
z
" style="fill:#ffffff;"/>
  </g>
  <g id="pane3d_1">
   <g id="patch_3">
    <path d="M 129.09822 198.386264 
L 200.904009 138.197228 
L 199.90584 51.393878 
L 124.663773 106.302111 
" style="fill:#f2f2f2;opacity:0.5;stroke:#f2f2f2;stroke-linejoin:miter;"/>
   </g>
  </g>
  <g id="pane3d_2">
   <g id="patch_4">
    <path d="M 200.904009 138.197228 
L 316.12668 171.68791 
L 320.238571 81.894718 
L 199.90584 51.393878 
" style="fill:#e6e6e6;opacity:0.5;stroke:#e6e6e6;stroke-linejoin:miter;"/>
   </g>
  </g>
  <g id="pane3d_3">
   <g id="patch_5">
    <path d="M 129.09822 198.386264 
L 251.239879 238.27773 
L 316.12668 171.68791 
L 200.904009 138.197228 
" style="fill:#ececec;opacity:0.5;stroke:#ececec;stroke-linejoin:miter;"/>
   </g>
  </g>
  <g id="axis3d_1">
   <g id="line2d_1">
    <path d="M 129.09822 198.386264 
L 251.239879 238.27773 
" style="fill:none;stroke:#000000;stroke-linecap:square;stroke-width:0.8;"/>
   </g>
   <g id="Line3DCollection_1">
    <path d="M 136.495759 200.802301 
L 207.911499 140.234029 
L 207.209612 53.245171 
" style="fill:none;stroke:#b0b0b0;stroke-width:0.8;"/>
    <path d="M 162.23134 209.207541 
L 232.260894 147.311436 
L 232.60309 59.681678 
" style="fill:none;stroke:#b0b0b0;stroke-width:0.8;"/>
    <path d="M 188.559037 217.806167 
L 257.123632 154.538053 
L 258.555303 66.259807 
" style="fill:none;stroke:#b0b0b0;stroke-width:0.8;"/>
    <path d="M 215.499525 226.604931 
L 282.516121 161.918647 
L 285.084894 72.984285 
" style="fill:none;stroke:#b0b0b0;stroke-width:0.8;"/>
    <path d="M 243.074449 235.610901 
L 308.455474 169.458193 
L 312.21135 79.860051 
" style="fill:none;stroke:#b0b0b0;stroke-width:0.8;"/>
   </g>
   <g id="xtick_1">
    <g id="line2d_2">
     <path d="M 137.117644 200.274876 
L 135.249322 201.859414 
" style="fill:none;stroke:#000000;stroke-linecap:square;stroke-width:0.8;"/>
    </g>
    <g id="text_1">
     <!-- 0 -->
     <g transform="translate(125.77919 224.124533)scale(0.1 -0.1)">
      <defs>
       <path d="M 31.78125 66.40625 
Q 24.171875 66.40625 20.328125 58.90625 
Q 16.5 51.421875 16.5 36.375 
Q 16.5 21.390625 20.328125 13.890625 
Q 24.171875 6.390625 31.78125 6.390625 
Q 39.453125 6.390625 43.28125 13.890625 
Q 47.125 21.390625 47.125 36.375 
Q 47.125 51.421875 43.28125 58.90625 
Q 39.453125 66.40625 31.78125 66.40625 
z
M 31.78125 74.21875 
Q 44.046875 74.21875 50.515625 64.515625 
Q 56.984375 54.828125 56.984375 36.375 
Q 56.984375 17.96875 50.515625 8.265625 
Q 44.046875 -1.421875 31.78125 -1.421875 
Q 19.53125 -1.421875 13.0625 8.265625 
Q 6.59375 17.96875 6.59375 36.375 
Q 6.59375 54.828125 13.0625 64.515625 
Q 19.53125 74.21875 31.78125 74.21875 
z
" id="DejaVuSans-48"/>
      </defs>
      <use xlink:href="#DejaVuSans-48"/>
     </g>
    </g>
   </g>
   <g id="xtick_2">
    <g id="line2d_3">
     <path d="M 162.841716 208.668056 
L 161.007937 210.288854 
" style="fill:none;stroke:#000000;stroke-linecap:square;stroke-width:0.8;"/>
    </g>
    <g id="text_2">
     <!-- 2 -->
     <g transform="translate(151.547192 232.748132)scale(0.1 -0.1)">
      <defs>
       <path d="M 19.1875 8.296875 
L 53.609375 8.296875 
L 53.609375 0 
L 7.328125 0 
L 7.328125 8.296875 
Q 12.9375 14.109375 22.625 23.890625 
Q 32.328125 33.6875 34.8125 36.53125 
Q 39.546875 41.84375 41.421875 45.53125 
Q 43.3125 49.21875 43.3125 52.78125 
Q 43.3125 58.59375 39.234375 62.25 
Q 35.15625 65.921875 28.609375 65.921875 
Q 23.96875 65.921875 18.8125 64.3125 
Q 13.671875 62.703125 7.8125 59.421875 
L 7.8125 69.390625 
Q 13.765625 71.78125 18.9375 73 
Q 24.125 74.21875 28.421875 74.21875 
Q 39.75 74.21875 46.484375 68.546875 
Q 53.21875 62.890625 53.21875 53.421875 
Q 53.21875 48.921875 51.53125 44.890625 
Q 49.859375 40.875 45.40625 35.40625 
Q 44.1875 33.984375 37.640625 27.21875 
Q 31.109375 20.453125 19.1875 8.296875 
z
" id="DejaVuSans-50"/>
      </defs>
      <use xlink:href="#DejaVuSans-50"/>
     </g>
    </g>
   </g>
   <g id="xtick_3">
    <g id="line2d_4">
     <path d="M 189.15721 217.254202 
L 187.360066 218.91252 
" style="fill:none;stroke:#000000;stroke-linecap:square;stroke-width:0.8;"/>
    </g>
    <g id="text_3">
     <!-- 4 -->
     <g transform="translate(177.91082 241.571064)scale(0.1 -0.1)">
      <defs>
       <path d="M 37.796875 64.3125 
L 12.890625 25.390625 
L 37.796875 25.390625 
z
M 35.203125 72.90625 
L 47.609375 72.90625 
L 47.609375 25.390625 
L 58.015625 25.390625 
L 58.015625 17.1875 
L 47.609375 17.1875 
L 47.609375 0 
L 37.796875 0 
L 37.796875 17.1875 
L 4.890625 17.1875 
L 4.890625 26.703125 
z
" id="DejaVuSans-52"/>
      </defs>
      <use xlink:href="#DejaVuSans-52"/>
     </g>
    </g>
   </g>
   <g id="xtick_4">
    <g id="line2d_5">
     <path d="M 216.084757 226.040048 
L 214.326462 227.737204 
" style="fill:none;stroke:#000000;stroke-linecap:square;stroke-width:0.8;"/>
    </g>
    <g id="text_4">
     <!-- 6 -->
     <g transform="translate(204.890965 250.600322)scale(0.1 -0.1)">
      <defs>
       <path d="M 33.015625 40.375 
Q 26.375 40.375 22.484375 35.828125 
Q 18.609375 31.296875 18.609375 23.390625 
Q 18.609375 15.53125 22.484375 10.953125 
Q 26.375 6.390625 33.015625 6.390625 
Q 39.65625 6.390625 43.53125 10.953125 
Q 47.40625 15.53125 47.40625 23.390625 
Q 47.40625 31.296875 43.53125 35.828125 
Q 39.65625 40.375 33.015625 40.375 
z
M 52.59375 71.296875 
L 52.59375 62.3125 
Q 48.875 64.0625 45.09375 64.984375 
Q 41.3125 65.921875 37.59375 65.921875 
Q 27.828125 65.921875 22.671875 59.328125 
Q 17.53125 52.734375 16.796875 39.40625 
Q 19.671875 43.65625 24.015625 45.921875 
Q 28.375 48.1875 33.59375 48.1875 
Q 44.578125 48.1875 50.953125 41.515625 
Q 57.328125 34.859375 57.328125 23.390625 
Q 57.328125 12.15625 50.6875 5.359375 
Q 44.046875 -1.421875 33.015625 -1.421875 
Q 20.359375 -1.421875 13.671875 8.265625 
Q 6.984375 17.96875 6.984375 36.375 
Q 6.984375 53.65625 15.1875 63.9375 
Q 23.390625 74.21875 37.203125 74.21875 
Q 40.921875 74.21875 44.703125 73.484375 
Q 48.484375 72.75 52.59375 71.296875 
z
" id="DejaVuSans-54"/>
      </defs>
      <use xlink:href="#DejaVuSans-54"/>
     </g>
    </g>
   </g>
   <g id="xtick_5">
    <g id="line2d_6">
     <path d="M 243.645962 235.032643 
L 241.928856 236.770015 
" style="fill:none;stroke:#000000;stroke-linecap:square;stroke-width:0.8;"/>
    </g>
    <g id="text_5">
     <!-- 8 -->
     <g transform="translate(232.509511 259.84323)scale(0.1 -0.1)">
      <defs>
       <path d="M 31.78125 34.625 
Q 24.75 34.625 20.71875 30.859375 
Q 16.703125 27.09375 16.703125 20.515625 
Q 16.703125 13.921875 20.71875 10.15625 
Q 24.75 6.390625 31.78125 6.390625 
Q 38.8125 6.390625 42.859375 10.171875 
Q 46.921875 13.96875 46.921875 20.515625 
Q 46.921875 27.09375 42.890625 30.859375 
Q 38.875 34.625 31.78125 34.625 
z
M 21.921875 38.8125 
Q 15.578125 40.375 12.03125 44.71875 
Q 8.5 49.078125 8.5 55.328125 
Q 8.5 64.0625 14.71875 69.140625 
Q 20.953125 74.21875 31.78125 74.21875 
Q 42.671875 74.21875 48.875 69.140625 
Q 55.078125 64.0625 55.078125 55.328125 
Q 55.078125 49.078125 51.53125 44.71875 
Q 48 40.375 41.703125 38.8125 
Q 48.828125 37.15625 52.796875 32.3125 
Q 56.78125 27.484375 56.78125 20.515625 
Q 56.78125 9.90625 50.3125 4.234375 
Q 43.84375 -1.421875 31.78125 -1.421875 
Q 19.734375 -1.421875 13.25 4.234375 
Q 6.78125 9.90625 6.78125 20.515625 
Q 6.78125 27.484375 10.78125 32.3125 
Q 14.796875 37.15625 21.921875 38.8125 
z
M 18.3125 54.390625 
Q 18.3125 48.734375 21.84375 45.5625 
Q 25.390625 42.390625 31.78125 42.390625 
Q 38.140625 42.390625 41.71875 45.5625 
Q 45.3125 48.734375 45.3125 54.390625 
Q 45.3125 60.0625 41.71875 63.234375 
Q 38.140625 66.40625 31.78125 66.40625 
Q 25.390625 66.40625 21.84375 63.234375 
Q 18.3125 60.0625 18.3125 54.390625 
z
" id="DejaVuSans-56"/>
      </defs>
      <use xlink:href="#DejaVuSans-56"/>
     </g>
    </g>
   </g>
  </g>
  <g id="axis3d_2">
   <g id="line2d_7">
    <path d="M 316.12668 171.68791 
L 251.239879 238.27773 
" style="fill:none;stroke:#000000;stroke-linecap:square;stroke-width:0.8;"/>
   </g>
   <g id="Line3DCollection_2">
    <path d="M 129.866948 102.505071 
L 134.046245 194.238731 
L 255.729543 233.67023 
" style="fill:none;stroke:#b0b0b0;stroke-width:0.8;"/>
    <path d="M 147.250212 89.819556 
L 150.59591 180.366474 
L 270.72626 218.279909 
" style="fill:none;stroke:#b0b0b0;stroke-width:0.8;"/>
    <path d="M 163.958537 77.626582 
L 166.530371 167.009893 
L 285.136664 203.491289 
" style="fill:none;stroke:#b0b0b0;stroke-width:0.8;"/>
    <path d="M 180.030483 65.898008 
L 181.883306 154.140758 
L 298.994481 189.269761 
" style="fill:none;stroke:#b0b0b0;stroke-width:0.8;"/>
    <path d="M 195.501727 54.607799 
L 196.68598 141.732864 
L 312.330896 175.583317 
" style="fill:none;stroke:#b0b0b0;stroke-width:0.8;"/>
   </g>
   <g id="xtick_6">
    <g id="line2d_8">
     <path d="M 254.704115 233.337939 
L 257.783053 234.33567 
" style="fill:none;stroke:#000000;stroke-linecap:square;stroke-width:0.8;"/>
    </g>
    <g id="text_6">
     <!-- 0 -->
     <g transform="translate(265.430654 254.693759)scale(0.1 -0.1)">
      <use xlink:href="#DejaVuSans-48"/>
     </g>
    </g>
   </g>
   <g id="xtick_7">
    <g id="line2d_9">
     <path d="M 269.71494 217.960734 
L 272.751463 218.919068 
" style="fill:none;stroke:#000000;stroke-linecap:square;stroke-width:0.8;"/>
    </g>
    <g id="text_7">
     <!-- 2 -->
     <g transform="translate(280.181112 239.024526)scale(0.1 -0.1)">
      <use xlink:href="#DejaVuSans-50"/>
     </g>
    </g>
   </g>
   <g id="xtick_8">
    <g id="line2d_10">
     <path d="M 284.139145 203.184468 
L 287.134182 204.105694 
" style="fill:none;stroke:#000000;stroke-linecap:square;stroke-width:0.8;"/>
    </g>
    <g id="text_8">
     <!-- 4 -->
     <g transform="translate(294.35448 223.968328)scale(0.1 -0.1)">
      <use xlink:href="#DejaVuSans-52"/>
     </g>
    </g>
   </g>
   <g id="xtick_9">
    <g id="line2d_11">
     <path d="M 298.010457 188.97459 
L 300.964927 189.860821 
" style="fill:none;stroke:#000000;stroke-linecap:square;stroke-width:0.8;"/>
    </g>
    <g id="text_9">
     <!-- 6 -->
     <g transform="translate(307.983974 209.489882)scale(0.1 -0.1)">
      <use xlink:href="#DejaVuSans-54"/>
     </g>
    </g>
   </g>
   <g id="xtick_10">
    <g id="line2d_12">
     <path d="M 311.360068 175.299146 
L 314.274875 176.15234 
" style="fill:none;stroke:#000000;stroke-linecap:square;stroke-width:0.8;"/>
    </g>
    <g id="text_10">
     <!-- 8 -->
     <g transform="translate(321.10031 195.556556)scale(0.1 -0.1)">
      <use xlink:href="#DejaVuSans-56"/>
     </g>
    </g>
   </g>
  </g>
  <g id="axis3d_3">
   <g id="line2d_13">
    <path d="M 316.12668 171.68791 
L 320.238571 81.894718 
" style="fill:none;stroke:#000000;stroke-linecap:square;stroke-width:0.8;"/>
   </g>
   <g id="Line3DCollection_3">
    <path d="M 316.205459 169.967571 
L 200.884845 136.530725 
L 129.013401 196.624949 
" style="fill:none;stroke:#b0b0b0;stroke-width:0.8;"/>
    <path d="M 316.920607 154.350567 
L 200.710953 121.408598 
L 128.243177 180.630759 
" style="fill:none;stroke:#b0b0b0;stroke-width:0.8;"/>
    <path d="M 317.646977 138.488511 
L 200.534463 106.060555 
L 127.460406 164.375997 
" style="fill:none;stroke:#b0b0b0;stroke-width:0.8;"/>
    <path d="M 318.384834 122.375589 
L 200.355316 90.481495 
L 126.664777 147.854245 
" style="fill:none;stroke:#b0b0b0;stroke-width:0.8;"/>
    <path d="M 319.134454 106.005804 
L 200.173452 74.666163 
L 125.855971 131.05887 
" style="fill:none;stroke:#b0b0b0;stroke-width:0.8;"/>
    <path d="M 319.896121 89.372963 
L 199.988809 58.609142 
L 125.033658 113.983017 
" style="fill:none;stroke:#b0b0b0;stroke-width:0.8;"/>
   </g>
   <g id="xtick_11">
    <g id="line2d_14">
     <path d="M 315.237563 169.686933 
L 318.143556 170.529516 
" style="fill:none;stroke:#000000;stroke-linecap:square;stroke-width:0.8;"/>
    </g>
    <g id="text_11">
     <!-- 0 -->
     <g transform="translate(331.275915 174.966846)scale(0.1 -0.1)">
      <use xlink:href="#DejaVuSans-48"/>
     </g>
    </g>
   </g>
   <g id="xtick_12">
    <g id="line2d_15">
     <path d="M 315.944894 154.073981 
L 318.874375 154.904402 
" style="fill:none;stroke:#000000;stroke-linecap:square;stroke-width:0.8;"/>
    </g>
    <g id="text_12">
     <!-- 5000 -->
     <g transform="translate(322.586225 159.387442)scale(0.1 -0.1)">
      <defs>
       <path d="M 10.796875 72.90625 
L 49.515625 72.90625 
L 49.515625 64.59375 
L 19.828125 64.59375 
L 19.828125 46.734375 
Q 21.96875 47.46875 24.109375 47.828125 
Q 26.265625 48.1875 28.421875 48.1875 
Q 40.625 48.1875 47.75 41.5 
Q 54.890625 34.8125 54.890625 23.390625 
Q 54.890625 11.625 47.5625 5.09375 
Q 40.234375 -1.421875 26.90625 -1.421875 
Q 22.3125 -1.421875 17.546875 -0.640625 
Q 12.796875 0.140625 7.71875 1.703125 
L 7.71875 11.625 
Q 12.109375 9.234375 16.796875 8.0625 
Q 21.484375 6.890625 26.703125 6.890625 
Q 35.15625 6.890625 40.078125 11.328125 
Q 45.015625 15.765625 45.015625 23.390625 
Q 45.015625 31 40.078125 35.4375 
Q 35.15625 39.890625 26.703125 39.890625 
Q 22.75 39.890625 18.8125 39.015625 
Q 14.890625 38.140625 10.796875 36.28125 
z
" id="DejaVuSans-53"/>
      </defs>
      <use xlink:href="#DejaVuSans-53"/>
      <use x="63.623047" xlink:href="#DejaVuSans-48"/>
      <use x="127.246094" xlink:href="#DejaVuSans-48"/>
      <use x="190.869141" xlink:href="#DejaVuSans-48"/>
     </g>
    </g>
   </g>
   <g id="xtick_13">
    <g id="line2d_16">
     <path d="M 316.663319 138.21614 
L 319.616671 139.033911 
" style="fill:none;stroke:#000000;stroke-linecap:square;stroke-width:0.8;"/>
    </g>
    <g id="text_13">
     <!-- 10000 -->
     <g transform="translate(320.272386 143.564488)scale(0.1 -0.1)">
      <defs>
       <path d="M 12.40625 8.296875 
L 28.515625 8.296875 
L 28.515625 63.921875 
L 10.984375 60.40625 
L 10.984375 69.390625 
L 28.421875 72.90625 
L 38.28125 72.90625 
L 38.28125 8.296875 
L 54.390625 8.296875 
L 54.390625 0 
L 12.40625 0 
z
" id="DejaVuSans-49"/>
      </defs>
      <use xlink:href="#DejaVuSans-49"/>
      <use x="63.623047" xlink:href="#DejaVuSans-48"/>
      <use x="127.246094" xlink:href="#DejaVuSans-48"/>
      <use x="190.869141" xlink:href="#DejaVuSans-48"/>
      <use x="254.492188" xlink:href="#DejaVuSans-48"/>
     </g>
    </g>
   </g>
   <g id="xtick_14">
    <g id="line2d_17">
     <path d="M 317.393102 122.107602 
L 320.370717 122.912217 
" style="fill:none;stroke:#000000;stroke-linecap:square;stroke-width:0.8;"/>
    </g>
    <g id="text_14">
     <!-- 15000 -->
     <g transform="translate(321.153464 127.492227)scale(0.1 -0.1)">
      <use xlink:href="#DejaVuSans-49"/>
      <use x="63.623047" xlink:href="#DejaVuSans-53"/>
      <use x="127.246094" xlink:href="#DejaVuSans-48"/>
      <use x="190.869141" xlink:href="#DejaVuSans-48"/>
      <use x="254.492188" xlink:href="#DejaVuSans-48"/>
     </g>
    </g>
   </g>
   <g id="xtick_15">
    <g id="line2d_18">
     <path d="M 318.134514 105.742375 
L 321.136792 106.533309 
" style="fill:none;stroke:#000000;stroke-linecap:square;stroke-width:0.8;"/>
    </g>
    <g id="text_15">
     <!-- 20000 -->
     <g transform="translate(322.048534 111.16472)scale(0.1 -0.1)">
      <use xlink:href="#DejaVuSans-50"/>
      <use x="63.623047" xlink:href="#DejaVuSans-48"/>
      <use x="127.246094" xlink:href="#DejaVuSans-48"/>
      <use x="190.869141" xlink:href="#DejaVuSans-48"/>
      <use x="254.492188" xlink:href="#DejaVuSans-48"/>
     </g>
    </g>
   </g>
   <g id="xtick_16">
    <g id="line2d_19">
     <path d="M 318.887835 89.114274 
L 321.915189 89.890982 
" style="fill:none;stroke:#000000;stroke-linecap:square;stroke-width:0.8;"/>
    </g>
    <g id="text_16">
     <!-- 25000 -->
     <g transform="translate(322.957933 94.575839)scale(0.1 -0.1)">
      <use xlink:href="#DejaVuSans-50"/>
      <use x="63.623047" xlink:href="#DejaVuSans-53"/>
      <use x="127.246094" xlink:href="#DejaVuSans-48"/>
      <use x="190.869141" xlink:href="#DejaVuSans-48"/>
      <use x="254.492188" xlink:href="#DejaVuSans-48"/>
     </g>
    </g>
   </g>
  </g>
  <g id="axes_1">
   <g id="Poly3DCollection_1">
    <path clip-path="url(#p8e5742eb8c)" d="M 203.700438 142.115361 
L 203.69375 141.45625 
L 215.861141 145.005615 
L 215.863902 145.66701 
z
" style="fill:#070339;"/>
    <path clip-path="url(#p8e5742eb8c)" d="M 196.401162 148.290596 
L 196.392027 147.627521 
L 203.69375 141.45625 
L 203.700438 142.115361 
z
" style="fill:#0e0678;"/>
    <path clip-path="url(#p8e5742eb8c)" d="M 196.401162 148.290596 
L 203.700438 142.115361 
L 215.863902 145.66701 
L 208.637156 151.907182 
z
" style="fill:#090449;"/>
    <path clip-path="url(#p8e5742eb8c)" d="M 196.392027 147.627521 
L 208.631995 151.241801 
L 215.861141 145.005615 
L 203.69375 141.45625 
z
" style="fill:#0c0668;"/>
    <path clip-path="url(#p8e5742eb8c)" d="M 215.863902 145.66701 
L 215.846299 141.44955 
L 228.162994 145.02379 
L 228.155024 149.255935 
z
" style="fill:#11023d;"/>
    <path clip-path="url(#p8e5742eb8c)" d="M 208.637156 151.907182 
L 215.863902 145.66701 
L 215.861141 145.005615 
L 208.631995 151.241801 
z
" style="fill:#070339;"/>
    <path clip-path="url(#p8e5742eb8c)" d="M 208.637156 151.907182 
L 208.604245 147.66424 
L 215.846299 141.44955 
L 215.863902 145.66701 
z
" style="fill:#250582;"/>
    <path clip-path="url(#p8e5742eb8c)" d="M 196.401162 148.290596 
L 196.392901 147.690998 
L 208.632489 151.305498 
L 208.637156 151.907182 
z
" style="fill:#070339;"/>
    <path clip-path="url(#p8e5742eb8c)" d="M 196.401162 148.290596 
L 208.637156 151.907182 
L 208.631995 151.241801 
L 196.392027 147.627521 
z
" style="fill:#0e0678;"/>
    <path clip-path="url(#p8e5742eb8c)" d="M 208.637156 151.907182 
L 215.863902 145.66701 
L 228.155024 149.255935 
L 221.002748 155.562072 
z
" style="fill:#16034f;"/>
    <path clip-path="url(#p8e5742eb8c)" d="M 188.96817 154.578956 
L 188.957616 153.97574 
L 196.392901 147.690998 
L 196.401162 148.290596 
z
" style="fill:#0e0678;"/>
    <path clip-path="url(#p8e5742eb8c)" d="M 208.604245 147.66424 
L 220.995719 151.304315 
L 228.162994 145.02379 
L 215.846299 141.44955 
z
" style="fill:#200471;"/>
    <path clip-path="url(#p8e5742eb8c)" d="M 221.002748 155.562072 
L 228.155024 149.255935 
L 228.162994 145.02379 
L 220.995719 151.304315 
z
" style="fill:#11023d;"/>
    <path clip-path="url(#p8e5742eb8c)" d="M 188.96817 154.578956 
L 196.401162 148.290596 
L 208.637156 151.907182 
L 201.27732 158.262275 
z
" style="fill:#090449;"/>
    <path clip-path="url(#p8e5742eb8c)" d="M 188.957616 153.97574 
L 201.270402 157.656956 
L 208.632489 151.305498 
L 196.392901 147.690998 
z
" style="fill:#0c0668;"/>
    <path clip-path="url(#p8e5742eb8c)" d="M 221.002748 155.562072 
L 228.155024 149.255935 
L 240.575825 152.882725 
L 233.500008 159.25588 
z
" style="fill:#6b2441;"/>
    <path clip-path="url(#p8e5742eb8c)" d="M 208.637156 151.907182 
L 221.002748 155.562072 
L 220.995719 151.304315 
L 208.604245 147.66424 
z
" style="fill:#250582;"/>
    <path clip-path="url(#p8e5742eb8c)" d="M 208.637156 151.907182 
L 208.601001 147.246067 
L 220.995026 150.884677 
L 221.002748 155.562072 
z
" style="fill:#13023e;"/>
    <path clip-path="url(#p8e5742eb8c)" d="M 201.27732 158.262275 
L 208.637156 151.907182 
L 208.632489 151.305498 
L 201.270402 157.656956 
z
" style="fill:#070339;"/>
    <path clip-path="url(#p8e5742eb8c)" d="M 201.27732 158.262275 
L 201.223727 153.572909 
L 208.601001 147.246067 
L 208.637156 151.907182 
z
" style="fill:#280484;"/>
    <path clip-path="url(#p8e5742eb8c)" d="M 188.96817 154.578956 
L 188.958004 153.997937 
L 201.270656 157.67923 
L 201.27732 158.262275 
z
" style="fill:#070339;"/>
    <path clip-path="url(#p8e5742eb8c)" d="M 188.96817 154.578956 
L 201.27732 158.262275 
L 201.270402 157.656956 
L 188.957616 153.97574 
z
" style="fill:#0e0678;"/>
    <path clip-path="url(#p8e5742eb8c)" d="M 201.27732 158.262275 
L 208.637156 151.907182 
L 221.002748 155.562072 
L 213.718049 161.984967 
z
" style="fill:#18034f;"/>
    <path clip-path="url(#p8e5742eb8c)" d="M 181.397755 160.983577 
L 181.385299 160.399043 
L 188.958004 153.997937 
L 188.96817 154.578956 
z
" style="fill:#0e0678;"/>
    <path clip-path="url(#p8e5742eb8c)" d="M 233.500008 159.25588 
L 240.575825 152.882725 
L 253.128369 156.547983 
L 246.131049 162.989229 
z
" style="fill:#857413;"/>
    <path clip-path="url(#p8e5742eb8c)" d="M 228.155024 149.255935 
L 228.231608 108.585712 
L 240.903395 112.066792 
L 240.575825 152.882725 
z
" style="fill:#541c33;"/>
    <path clip-path="url(#p8e5742eb8c)" d="M 201.223727 153.572909 
L 213.693235 157.279176 
L 220.995026 150.884677 
L 208.601001 147.246067 
z
" style="fill:#230472;"/>
    <path clip-path="url(#p8e5742eb8c)" d="M 221.002748 155.562072 
L 220.93519 114.638967 
L 228.231608 108.585712 
L 228.155024 149.255935 
z
" style="fill:#b13c6c;"/>
    <path clip-path="url(#p8e5742eb8c)" d="M 213.718049 161.984967 
L 221.002748 155.562072 
L 220.995026 150.884677 
L 213.693235 157.279176 
z
" style="fill:#13023e;"/>
    <path clip-path="url(#p8e5742eb8c)" d="M 181.397755 160.983577 
L 188.96817 154.578956 
L 201.27732 158.262275 
L 193.780682 164.735494 
z
" style="fill:#090449;"/>
    <path clip-path="url(#p8e5742eb8c)" d="M 181.385299 160.399043 
L 193.77177 164.148917 
L 201.270656 157.67923 
L 188.958004 153.997937 
z
" style="fill:#0c0668;"/>
    <path clip-path="url(#p8e5742eb8c)" d="M 213.718049 161.984967 
L 221.002748 155.562072 
L 233.500008 159.25588 
L 226.292478 165.747667 
z
" style="fill:#793733;"/>
    <path clip-path="url(#p8e5742eb8c)" d="M 201.27732 158.262275 
L 213.718049 161.984967 
L 213.693235 157.279176 
L 201.223727 153.572909 
z
" style="fill:#280484;"/>
    <path clip-path="url(#p8e5742eb8c)" d="M 201.27732 158.262275 
L 201.199832 151.482071 
L 213.682172 155.180978 
L 213.718049 161.984967 
z
" style="fill:#180240;"/>
    <path clip-path="url(#p8e5742eb8c)" d="M 193.780682 164.735494 
L 201.27732 158.262275 
L 201.270656 157.67923 
L 193.77177 164.148917 
z
" style="fill:#070339;"/>
    <path clip-path="url(#p8e5742eb8c)" d="M 246.131049 162.989229 
L 253.128369 156.547983 
L 265.814761 160.252323 
L 258.898031 166.762758 
z
" style="fill:#866e14;"/>
    <path clip-path="url(#p8e5742eb8c)" d="M 193.780682 164.735494 
L 193.677047 157.914017 
L 201.199832 151.482071 
L 201.27732 158.262275 
z
" style="fill:#320488;"/>
    <path clip-path="url(#p8e5742eb8c)" d="M 181.397755 160.983577 
L 193.780682 164.735494 
L 193.77177 164.148917 
L 181.385299 160.399043 
z
" style="fill:#0e0678;"/>
    <path clip-path="url(#p8e5742eb8c)" d="M 181.397755 160.983577 
L 181.382141 160.250851 
L 193.769511 164.000207 
L 193.780682 164.735494 
z
" style="fill:#070339;"/>
    <path clip-path="url(#p8e5742eb8c)" d="M 233.500008 159.25588 
L 240.575825 152.882725 
L 240.903395 112.066792 
L 233.68657 118.185684 
z
" style="fill:#541c33;"/>
    <path clip-path="url(#p8e5742eb8c)" d="M 193.780682 164.735494 
L 201.27732 158.262275 
L 213.718049 161.984967 
L 206.297214 168.527892 
z
" style="fill:#1e0252;"/>
    <path clip-path="url(#p8e5742eb8c)" d="M 173.686069 167.507715 
L 173.667479 166.770544 
L 181.382141 160.250851 
L 181.397755 160.983577 
z
" style="fill:#0e0678;"/>
    <path clip-path="url(#p8e5742eb8c)" d="M 226.292478 165.747667 
L 233.500008 159.25588 
L 246.131049 162.989229 
L 239.002775 169.551023 
z
" style="fill:#827e15;"/>
    <path clip-path="url(#p8e5742eb8c)" d="M 221.002748 155.562072 
L 233.500008 159.25588 
L 233.68657 118.185684 
L 220.93519 114.638967 
z
" style="fill:#b13c6c;"/>
    <path clip-path="url(#p8e5742eb8c)" d="M 258.898031 166.762758 
L 265.814761 160.252323 
L 278.637155 163.996376 
L 271.803162 170.57712 
z
" style="fill:#866f14;"/>
    <path clip-path="url(#p8e5742eb8c)" d="M 193.677047 157.914017 
L 206.235697 161.68242 
L 213.682172 155.180978 
L 201.199832 151.482071 
z
" style="fill:#2b0376;"/>
    <path clip-path="url(#p8e5742eb8c)" d="M 173.686069 167.507715 
L 181.397755 160.983577 
L 193.780682 164.735494 
L 186.143392 171.330164 
z
" style="fill:#090449;"/>
    <path clip-path="url(#p8e5742eb8c)" d="M 221.002748 155.562072 
L 220.918086 104.278167 
L 233.73381 107.786239 
L 233.500008 159.25588 
z
" style="fill:#5f2b28;"/>
    <path clip-path="url(#p8e5742eb8c)" d="M 173.667479 166.770544 
L 186.129299 170.590409 
L 193.769511 164.000207 
L 181.382141 160.250851 
z
" style="fill:#0c0668;"/>
    <path clip-path="url(#p8e5742eb8c)" d="M 206.297214 168.527892 
L 213.718049 161.984967 
L 213.682172 155.180978 
L 206.235697 161.68242 
z
" style="fill:#180240;"/>
    <path clip-path="url(#p8e5742eb8c)" d="M 206.297214 168.527892 
L 213.718049 161.984967 
L 226.292478 165.747667 
L 218.949524 172.361429 
z
" style="fill:#824926;"/>
    <path clip-path="url(#p8e5742eb8c)" d="M 213.718049 161.984967 
L 213.445933 110.378709 
L 220.918086 104.278167 
L 221.002748 155.562072 
z
" style="fill:#c95c54;"/>
    <path clip-path="url(#p8e5742eb8c)" d="M 193.780682 164.735494 
L 206.297214 168.527892 
L 206.235697 161.68242 
L 193.677047 157.914017 
z
" style="fill:#320488;"/>
    <path clip-path="url(#p8e5742eb8c)" d="M 186.143392 171.330164 
L 193.780682 164.735494 
L 193.769511 164.000207 
L 186.129299 170.590409 
z
" style="fill:#070339;"/>
    <path clip-path="url(#p8e5742eb8c)" d="M 239.002775 169.551023 
L 246.131049 162.989229 
L 258.898031 166.762758 
L 251.851153 173.395697 
z
" style="fill:#818214;"/>
    <path clip-path="url(#p8e5742eb8c)" d="M 240.575825 152.882725 
L 241.206322 74.321298 
L 254.252437 77.696761 
L 253.128369 156.547983 
z
" style="fill:#685b0f;"/>
    <path clip-path="url(#p8e5742eb8c)" d="M 220.93519 114.638967 
L 233.68657 118.185684 
L 240.903395 112.066792 
L 228.231608 108.585712 
z
" style="fill:#9a345e;"/>
    <path clip-path="url(#p8e5742eb8c)" d="M 193.780682 164.735494 
L 193.615237 153.845576 
L 206.199006 157.59955 
L 206.297214 168.527892 
z
" style="fill:#210143;"/>
    <path clip-path="url(#p8e5742eb8c)" d="M 271.803162 170.57712 
L 278.637155 163.996376 
L 291.597749 167.780781 
L 284.848695 174.43298 
z
" style="fill:#793733;"/>
    <path clip-path="url(#p8e5742eb8c)" d="M 173.686069 167.507715 
L 186.143392 171.330164 
L 186.129299 170.590409 
L 173.667479 166.770544 
z
" style="fill:#0e0678;"/>
    <path clip-path="url(#p8e5742eb8c)" d="M 173.686069 167.507715 
L 173.665894 166.707691 
L 186.128097 170.527336 
L 186.143392 171.330164 
z
" style="fill:#070339;"/>
    <path clip-path="url(#p8e5742eb8c)" d="M 233.500008 159.25588 
L 233.85916 80.191451 
L 241.206322 74.321298 
L 240.575825 152.882725 
z
" style="fill:#ddc120;"/>
    <path clip-path="url(#p8e5742eb8c)" d="M 186.143392 171.330164 
L 193.780682 164.735494 
L 206.297214 168.527892 
L 198.736391 175.194243 
z
" style="fill:#2a0156;"/>
    <path clip-path="url(#p8e5742eb8c)" d="M 186.143392 171.330164 
L 185.934648 160.373571 
L 193.615237 153.845576 
L 193.780682 164.735494 
z
" style="fill:#45028f;"/>
    <path clip-path="url(#p8e5742eb8c)" d="M 291.597749 167.780781 
L 291.837826 160.612205 
L 304.987189 164.412369 
L 304.698789 171.606197 
z
" style="fill:#180240;"/>
    <path clip-path="url(#p8e5742eb8c)" d="M 165.82912 174.154745 
L 165.805597 173.349856 
L 173.665894 166.707691 
L 173.686069 167.507715 
z
" style="fill:#0e0678;"/>
    <path clip-path="url(#p8e5742eb8c)" d="M 218.949524 172.361429 
L 226.292478 165.747667 
L 239.002775 169.551023 
L 231.739835 176.23678 
z
" style="fill:#837b14;"/>
    <path clip-path="url(#p8e5742eb8c)" d="M 226.292478 165.747667 
L 233.500008 159.25588 
L 233.73381 107.786239 
L 226.342822 113.953898 
z
" style="fill:#5f2b28;"/>
    <path clip-path="url(#p8e5742eb8c)" d="M 253.128369 156.547983 
L 254.214802 80.336761 
L 267.388596 83.759922 
L 265.814761 160.252323 
z
" style="fill:#69560f;"/>
    <path clip-path="url(#p8e5742eb8c)" d="M 251.851153 173.395697 
L 258.898031 166.762758 
L 271.803162 170.57712 
L 264.839875 177.282368 
z
" style="fill:#808512;"/>
    <path clip-path="url(#p8e5742eb8c)" d="M 284.848695 174.43298 
L 285.066724 167.220587 
L 291.837826 160.612205 
L 291.597749 167.780781 
z
" style="fill:#330488;"/>
    <path clip-path="url(#p8e5742eb8c)" d="M 165.82912 174.154745 
L 173.686069 167.507715 
L 186.143392 171.330164 
L 178.361455 178.049733 
z
" style="fill:#090449;"/>
    <path clip-path="url(#p8e5742eb8c)" d="M 213.718049 161.984967 
L 226.292478 165.747667 
L 226.342822 113.953898 
L 213.445933 110.378709 
z
" style="fill:#c95c54;"/>
    <path clip-path="url(#p8e5742eb8c)" d="M 246.131049 162.989229 
L 246.961343 86.289966 
L 254.214802 80.336761 
L 253.128369 156.547983 
z
" style="fill:#dfb621;"/>
    <path clip-path="url(#p8e5742eb8c)" d="M 284.848695 174.43298 
L 291.597749 167.780781 
L 304.698789 171.606197 
L 298.036935 178.33102 
z
" style="fill:#1f0252;"/>
    <path clip-path="url(#p8e5742eb8c)" d="M 165.805597 173.349856 
L 178.342869 177.242017 
L 186.128097 170.527336 
L 173.665894 166.707691 
z
" style="fill:#0c0668;"/>
    <path clip-path="url(#p8e5742eb8c)" d="M 246.131049 162.989229 
L 253.128369 156.547983 
L 254.252437 77.696761 
L 246.990115 83.632098 
z
" style="fill:#685b0f;"/>
    <path clip-path="url(#p8e5742eb8c)" d="M 198.736391 175.194243 
L 206.297214 168.527892 
L 218.949524 172.361429 
L 211.467294 179.100638 
z
" style="fill:#814629;"/>
    <path clip-path="url(#p8e5742eb8c)" d="M 198.736391 175.194243 
L 206.297214 168.527892 
L 206.199006 157.59955 
L 198.595704 164.198891 
z
" style="fill:#210143;"/>
    <path clip-path="url(#p8e5742eb8c)" d="M 185.934648 160.373571 
L 198.595704 164.198891 
L 206.199006 157.59955 
L 193.615237 153.845576 
z
" style="fill:#3c027c;"/>
    <path clip-path="url(#p8e5742eb8c)" d="M 213.718049 161.984967 
L 213.398059 101.299601 
L 226.351681 104.840326 
L 226.292478 165.747667 
z
" style="fill:#66391e;"/>
    <path clip-path="url(#p8e5742eb8c)" d="M 178.361455 178.049733 
L 186.143392 171.330164 
L 186.128097 170.527336 
L 178.342869 177.242017 
z
" style="fill:#070339;"/>
    <path clip-path="url(#p8e5742eb8c)" d="M 231.739835 176.23678 
L 239.002775 169.551023 
L 251.851153 173.395697 
L 244.670417 180.154631 
z
" style="fill:#837b14;"/>
    <path clip-path="url(#p8e5742eb8c)" d="M 233.500008 159.25588 
L 246.131049 162.989229 
L 246.990115 83.632098 
L 233.85916 80.191451 
z
" style="fill:#ddc120;"/>
    <path clip-path="url(#p8e5742eb8c)" d="M 278.637155 163.996376 
L 280.021631 112.692753 
L 293.322165 116.29062 
L 291.597749 167.780781 
z
" style="fill:#5e2b28;"/>
    <path clip-path="url(#p8e5742eb8c)" d="M 186.143392 171.330164 
L 198.736391 175.194243 
L 198.595704 164.198891 
L 185.934648 160.373571 
z
" style="fill:#45028f;"/>
    <path clip-path="url(#p8e5742eb8c)" d="M 265.814761 160.252323 
L 267.394541 83.470998 
L 280.716833 86.931129 
L 278.637155 163.996376 
z
" style="fill:#69570f;"/>
    <path clip-path="url(#p8e5742eb8c)" d="M 233.500008 159.25588 
L 233.876249 76.429607 
L 247.030998 79.855498 
L 246.131049 162.989229 
z
" style="fill:#666310;"/>
    <path clip-path="url(#p8e5742eb8c)" d="M 285.066724 167.220587 
L 298.303941 171.093158 
L 304.987189 164.412369 
L 291.837826 160.612205 
z
" style="fill:#2d0376;"/>
    <path clip-path="url(#p8e5742eb8c)" d="M 186.143392 171.330164 
L 185.866542 156.798809 
L 198.549801 160.611342 
L 198.736391 175.194243 
z
" style="fill:#280045;"/>
    <path clip-path="url(#p8e5742eb8c)" d="M 264.839875 177.282368 
L 271.803162 170.57712 
L 284.848695 174.43298 
L 277.971253 181.211726 
z
" style="fill:#702b3c;"/>
    <path clip-path="url(#p8e5742eb8c)" d="M 206.297214 168.527892 
L 205.748402 107.457273 
L 213.398059 101.299601 
L 213.718049 161.984967 
z
" style="fill:#d87940;"/>
    <path clip-path="url(#p8e5742eb8c)" d="M 165.82912 174.154745 
L 165.818049 173.775935 
L 178.352708 177.669593 
L 178.361455 178.049733 
z
" style="fill:#050338;"/>
    <path clip-path="url(#p8e5742eb8c)" d="M 165.82912 174.154745 
L 178.361455 178.049733 
L 178.342869 177.242017 
L 165.805597 173.349856 
z
" style="fill:#0e0678;"/>
    <path clip-path="url(#p8e5742eb8c)" d="M 298.036935 178.33102 
L 304.698789 171.606197 
L 304.987189 164.412369 
L 298.303941 171.093158 
z
" style="fill:#180240;"/>
    <path clip-path="url(#p8e5742eb8c)" d="M 271.803162 170.57712 
L 273.025023 118.949758 
L 280.021631 112.692753 
L 278.637155 163.996376 
z
" style="fill:#c85a55;"/>
    <path clip-path="url(#p8e5742eb8c)" d="M 178.361455 178.049733 
L 186.143392 171.330164 
L 198.736391 175.194243 
L 191.031582 181.987547 
z
" style="fill:#330059;"/>
    <path clip-path="url(#p8e5742eb8c)" d="M 258.898031 166.762758 
L 265.814761 160.252323 
L 267.388596 83.759922 
L 260.2221 89.779518 
z
" style="fill:#69560f;"/>
    <path clip-path="url(#p8e5742eb8c)" d="M 258.898031 166.762758 
L 260.227103 89.488638 
L 267.394541 83.470998 
L 265.814761 160.252323 
z
" style="fill:#deb821;"/>
    <path clip-path="url(#p8e5742eb8c)" d="M 226.292478 165.747667 
L 226.373505 82.387734 
L 233.876249 76.429607 
L 233.500008 159.25588 
z
" style="fill:#d8d122;"/>
    <path clip-path="url(#p8e5742eb8c)" d="M 178.361455 178.049733 
L 178.025019 163.428933 
L 185.866542 156.798809 
L 186.143392 171.330164 
z
" style="fill:#540193;"/>
    <path clip-path="url(#p8e5742eb8c)" d="M 284.848695 174.43298 
L 285.01287 169.0021 
L 298.237988 172.880989 
L 298.036935 178.33102 
z
" style="fill:#15023f;"/>
    <path clip-path="url(#p8e5742eb8c)" d="M 157.822766 180.928173 
L 157.810061 180.547055 
L 165.818049 173.775935 
L 165.82912 174.154745 
z
" style="fill:#0b0777;"/>
    <path clip-path="url(#p8e5742eb8c)" d="M 284.848695 174.43298 
L 298.036935 178.33102 
L 298.303941 171.093158 
L 285.066724 167.220587 
z
" style="fill:#330488;"/>
    <path clip-path="url(#p8e5742eb8c)" d="M 211.467294 179.100638 
L 218.949524 172.361429 
L 231.739835 176.23678 
L 224.338378 183.050047 
z
" style="fill:#876815;"/>
    <path clip-path="url(#p8e5742eb8c)" d="M 246.131049 162.989229 
L 258.898031 166.762758 
L 260.2221 89.779518 
L 246.961343 86.289966 
z
" style="fill:#dfb621;"/>
    <path clip-path="url(#p8e5742eb8c)" d="M 213.445933 110.378709 
L 226.342822 113.953898 
L 233.73381 107.786239 
L 220.918086 104.278167 
z
" style="fill:#ae4f49;"/>
    <path clip-path="url(#p8e5742eb8c)" d="M 244.670417 180.154631 
L 251.851153 173.395697 
L 264.839875 177.282368 
L 257.743589 184.115686 
z
" style="fill:#847a14;"/>
    <path clip-path="url(#p8e5742eb8c)" d="M 277.971253 181.211726 
L 278.118156 175.747615 
L 285.01287 169.0021 
L 284.848695 174.43298 
z
" style="fill:#2c0485;"/>
    <path clip-path="url(#p8e5742eb8c)" d="M 157.822766 180.928173 
L 165.82912 174.154745 
L 178.361455 178.049733 
L 170.430723 184.897786 
z
" style="fill:#070448;"/>
    <path clip-path="url(#p8e5742eb8c)" d="M 157.810061 180.547055 
L 170.420368 184.515326 
L 178.352708 177.669593 
L 165.818049 173.775935 
z
" style="fill:#0a0667;"/>
    <path clip-path="url(#p8e5742eb8c)" d="M 246.131049 162.989229 
L 247.044615 78.597611 
L 260.354924 82.056941 
L 258.898031 166.762758 
z
" style="fill:#656510;"/>
    <path clip-path="url(#p8e5742eb8c)" d="M 277.971253 181.211726 
L 284.848695 174.43298 
L 298.036935 178.33102 
L 291.24765 185.184478 
z
" style="fill:#1a0250;"/>
    <path clip-path="url(#p8e5742eb8c)" d="M 218.949524 172.361429 
L 226.292478 165.747667 
L 226.351681 104.840326 
L 218.784679 111.0667 
z
" style="fill:#66391e;"/>
    <path clip-path="url(#p8e5742eb8c)" d="M 284.848695 174.43298 
L 291.597749 167.780781 
L 293.322165 116.29062 
L 286.415073 122.61732 
z
" style="fill:#5e2b28;"/>
    <path clip-path="url(#p8e5742eb8c)" d="M 271.803162 170.57712 
L 272.870445 125.481128 
L 286.216886 129.173313 
L 284.848695 174.43298 
z
" style="fill:#58222f;"/>
    <path clip-path="url(#p8e5742eb8c)" d="M 191.031582 181.987547 
L 198.736391 175.194243 
L 211.467294 179.100638 
L 203.841786 185.968896 
z
" style="fill:#7b3b30;"/>
    <path clip-path="url(#p8e5742eb8c)" d="M 271.803162 170.57712 
L 278.637155 163.996376 
L 280.716833 86.931129 
L 273.638789 93.016265 
z
" style="fill:#69570f;"/>
    <path clip-path="url(#p8e5742eb8c)" d="M 239.002775 169.551023 
L 246.131049 162.989229 
L 247.030998 79.855498 
L 239.614258 85.88055 
z
" style="fill:#666310;"/>
    <path clip-path="url(#p8e5742eb8c)" d="M 206.297214 168.527892 
L 205.763124 109.095544 
L 218.789102 112.711247 
L 218.949524 172.361429 
z
" style="fill:#653620;"/>
    <path clip-path="url(#p8e5742eb8c)" d="M 239.002775 169.551023 
L 239.623514 84.614046 
L 247.044615 78.597611 
L 246.131049 162.989229 
z
" style="fill:#d5d722;"/>
    <path clip-path="url(#p8e5742eb8c)" d="M 191.031582 181.987547 
L 198.736391 175.194243 
L 198.549801 160.611342 
L 190.78651 167.314753 
z
" style="fill:#280045;"/>
    <path clip-path="url(#p8e5742eb8c)" d="M 206.297214 168.527892 
L 218.949524 172.361429 
L 218.784679 111.0667 
L 205.748402 107.457273 
z
" style="fill:#d87940;"/>
    <path clip-path="url(#p8e5742eb8c)" d="M 170.430723 184.897786 
L 178.361455 178.049733 
L 178.352708 177.669593 
L 170.420368 184.515326 
z
" style="fill:#050338;"/>
    <path clip-path="url(#p8e5742eb8c)" d="M 224.338378 183.050047 
L 231.739835 176.23678 
L 244.670417 180.154631 
L 237.351973 187.043183 
z
" style="fill:#876417;"/>
    <path clip-path="url(#p8e5742eb8c)" d="M 271.803162 170.57712 
L 284.848695 174.43298 
L 286.415073 122.61732 
L 273.025023 118.949758 
z
" style="fill:#c85a55;"/>
    <path clip-path="url(#p8e5742eb8c)" d="M 278.118156 175.747615 
L 291.431932 179.701054 
L 298.237988 172.880989 
L 285.01287 169.0021 
z
" style="fill:#260473;"/>
    <path clip-path="url(#p8e5742eb8c)" d="M 178.025019 163.428933 
L 190.78651 167.314753 
L 198.549801 160.611342 
L 185.866542 156.798809 
z
" style="fill:#49007f;"/>
    <path clip-path="url(#p8e5742eb8c)" d="M 264.839875 177.282368 
L 265.759394 131.902329 
L 272.870445 125.481128 
L 271.803162 170.57712 
z
" style="fill:#ba4763;"/>
    <path clip-path="url(#p8e5742eb8c)" d="M 226.292478 165.747667 
L 226.371971 83.965421 
L 239.602682 87.464463 
L 239.002775 169.551023 
z
" style="fill:#676010;"/>
    <path clip-path="url(#p8e5742eb8c)" d="M 258.898031 166.762758 
L 271.803162 170.57712 
L 273.638789 93.016265 
L 260.227103 89.488638 
z
" style="fill:#deb821;"/>
    <path clip-path="url(#p8e5742eb8c)" d="M 226.292478 165.747667 
L 239.002775 169.551023 
L 239.614258 85.88055 
L 226.373505 82.387734 
z
" style="fill:#d8d122;"/>
    <path clip-path="url(#p8e5742eb8c)" d="M 198.736391 175.194243 
L 197.971109 115.383837 
L 205.763124 109.095544 
L 206.297214 168.527892 
z
" style="fill:#d57343;"/>
    <path clip-path="url(#p8e5742eb8c)" d="M 178.361455 178.049733 
L 191.031582 181.987547 
L 190.78651 167.314753 
L 178.025019 163.428933 
z
" style="fill:#540193;"/>
    <path clip-path="url(#p8e5742eb8c)" d="M 257.743589 184.115686 
L 264.839875 177.282368 
L 277.971253 181.211726 
L 270.961723 188.120663 
z
" style="fill:#5f174c;"/>
    <path clip-path="url(#p8e5742eb8c)" d="M 178.361455 178.049733 
L 178.016019 163.037783 
L 190.779954 166.922196 
L 191.031582 181.987547 
z
" style="fill:#280045;"/>
    <path clip-path="url(#p8e5742eb8c)" d="M 291.24765 185.184478 
L 298.036935 178.33102 
L 298.237988 172.880989 
L 291.431932 179.701054 
z
" style="fill:#15023f;"/>
    <path clip-path="url(#p8e5742eb8c)" d="M 157.822766 180.928173 
L 157.81236 180.616021 
L 170.422242 184.584536 
L 170.430723 184.897786 
z
" style="fill:#050338;"/>
    <path clip-path="url(#p8e5742eb8c)" d="M 157.822766 180.928173 
L 170.430723 184.897786 
L 170.420368 184.515326 
L 157.810061 180.547055 
z
" style="fill:#0b0777;"/>
    <path clip-path="url(#p8e5742eb8c)" d="M 170.430723 184.897786 
L 178.361455 178.049733 
L 191.031582 181.987547 
L 183.178635 188.911464 
z
" style="fill:#340059;"/>
    <path clip-path="url(#p8e5742eb8c)" d="M 218.949524 172.361429 
L 218.72816 90.050992 
L 226.371971 83.965421 
L 226.292478 165.747667 
z
" style="fill:#dacb21;"/>
    <path clip-path="url(#p8e5742eb8c)" d="M 277.971253 181.211726 
L 278.060203 177.903186 
L 291.359233 181.864265 
L 291.24765 185.184478 
z
" style="fill:#0f023c;"/>
    <path clip-path="url(#p8e5742eb8c)" d="M 258.898031 166.762758 
L 260.375954 80.834232 
L 273.844419 84.327735 
L 271.803162 170.57712 
z
" style="fill:#64680e;"/>
    <path clip-path="url(#p8e5742eb8c)" d="M 277.971253 181.211726 
L 291.24765 185.184478 
L 291.431932 179.701054 
L 278.118156 175.747615 
z
" style="fill:#2c0485;"/>
    <path clip-path="url(#p8e5742eb8c)" d="M 170.430723 184.897786 
L 170.021799 169.793175 
L 178.016019 163.037783 
L 178.361455 178.049733 
z
" style="fill:#560093;"/>
    <path clip-path="url(#p8e5742eb8c)" d="M 149.662704 187.831639 
L 149.650909 187.517581 
L 157.81236 180.616021 
L 157.822766 180.928173 
z
" style="fill:#0b0777;"/>
    <path clip-path="url(#p8e5742eb8c)" d="M 203.841786 185.968896 
L 211.467294 179.100638 
L 224.338378 183.050047 
L 216.794403 189.994506 
z
" style="fill:#824a26;"/>
    <path clip-path="url(#p8e5742eb8c)" d="M 251.851153 173.395697 
L 258.898031 166.762758 
L 260.354924 82.056941 
L 253.022355 88.141379 
z
" style="fill:#656510;"/>
    <path clip-path="url(#p8e5742eb8c)" d="M 233.85916 80.191451 
L 246.990115 83.632098 
L 254.252437 77.696761 
L 241.206322 74.321298 
z
" style="fill:#c0a71c;"/>
    <path clip-path="url(#p8e5742eb8c)" d="M 270.961723 188.120663 
L 271.039792 184.791867 
L 278.060203 177.903186 
L 277.971253 181.211726 
z
" style="fill:#200580;"/>
    <path clip-path="url(#p8e5742eb8c)" d="M 251.851153 173.395697 
L 253.039268 86.910257 
L 260.375954 80.834232 
L 258.898031 166.762758 
z
" style="fill:#d4dc1e;"/>
    <path clip-path="url(#p8e5742eb8c)" d="M 264.839875 177.282368 
L 265.533648 143.043306 
L 278.895093 146.849085 
L 277.971253 181.211726 
z
" style="fill:#4a123c;"/>
    <path clip-path="url(#p8e5742eb8c)" d="M 237.351973 187.043183 
L 244.670417 180.154631 
L 257.743589 184.115686 
L 250.510457 191.080779 
z
" style="fill:#875e1a;"/>
    <path clip-path="url(#p8e5742eb8c)" d="M 277.971253 181.211726 
L 284.848695 174.43298 
L 286.216886 129.173313 
L 279.195737 135.666502 
z
" style="fill:#58222f;"/>
    <path clip-path="url(#p8e5742eb8c)" d="M 239.002775 169.551023 
L 239.606571 86.932281 
L 252.990381 90.468796 
L 251.851153 173.395697 
z
" style="fill:#666010;"/>
    <path clip-path="url(#p8e5742eb8c)" d="M 149.662704 187.831639 
L 157.822766 180.928173 
L 170.430723 184.897786 
L 162.346885 191.878042 
z
" style="fill:#070448;"/>
    <path clip-path="url(#p8e5742eb8c)" d="M 211.467294 179.100638 
L 218.949524 172.361429 
L 218.789102 112.711247 
L 211.080388 119.070327 
z
" style="fill:#653620;"/>
    <path clip-path="url(#p8e5742eb8c)" d="M 149.650909 187.517581 
L 162.337038 191.562877 
L 170.422242 184.584536 
L 157.81236 180.616021 
z
" style="fill:#0a0667;"/>
    <path clip-path="url(#p8e5742eb8c)" d="M 239.002775 169.551023 
L 251.851153 173.395697 
L 253.022355 88.141379 
L 239.623514 84.614046 
z
" style="fill:#d5d722;"/>
    <path clip-path="url(#p8e5742eb8c)" d="M 270.961723 188.120663 
L 277.971253 181.211726 
L 291.24765 185.184478 
L 284.327244 192.170297 
z
" style="fill:#13034d;"/>
    <path clip-path="url(#p8e5742eb8c)" d="M 198.736391 175.194243 
L 198.043146 121.013833 
L 211.116813 124.721861 
L 211.467294 179.100638 
z
" style="fill:#602e26;"/>
    <path clip-path="url(#p8e5742eb8c)" d="M 257.743589 184.115686 
L 258.321365 149.662175 
L 265.533648 143.043306 
L 264.839875 177.282368 
z
" style="fill:#9d267e;"/>
    <path clip-path="url(#p8e5742eb8c)" d="M 273.025023 118.949758 
L 286.415073 122.61732 
L 293.322165 116.29062 
L 280.021631 112.692753 
z
" style="fill:#ad4f4a;"/>
    <path clip-path="url(#p8e5742eb8c)" d="M 264.839875 177.282368 
L 277.971253 181.211726 
L 279.195737 135.666502 
L 265.759394 131.902329 
z
" style="fill:#ba4763;"/>
    <path clip-path="url(#p8e5742eb8c)" d="M 183.178635 188.911464 
L 191.031582 181.987547 
L 203.841786 185.968896 
L 196.068846 192.969946 
z
" style="fill:#6b2441;"/>
    <path clip-path="url(#p8e5742eb8c)" d="M 231.739835 176.23678 
L 239.002775 169.551023 
L 239.602682 87.464463 
L 232.045601 93.61901 
z
" style="fill:#676010;"/>
    <path clip-path="url(#p8e5742eb8c)" d="M 231.739835 176.23678 
L 232.047584 93.083176 
L 239.606571 86.932281 
L 239.002775 169.551023 
z
" style="fill:#d9cd22;"/>
    <path clip-path="url(#p8e5742eb8c)" d="M 218.949524 172.361429 
L 218.747374 97.195321 
L 232.019056 100.791482 
L 231.739835 176.23678 
z
" style="fill:#6a5111;"/>
    <path clip-path="url(#p8e5742eb8c)" d="M 198.736391 175.194243 
L 211.467294 179.100638 
L 211.080388 119.070327 
L 197.971109 115.383837 
z
" style="fill:#d57343;"/>
    <path clip-path="url(#p8e5742eb8c)" d="M 271.039792 184.791867 
L 284.428254 188.82973 
L 291.359233 181.864265 
L 278.060203 177.903186 
z
" style="fill:#1b046f;"/>
    <path clip-path="url(#p8e5742eb8c)" d="M 183.178635 188.911464 
L 191.031582 181.987547 
L 190.779954 166.922196 
L 182.864666 173.752995 
z
" style="fill:#280045;"/>
    <path clip-path="url(#p8e5742eb8c)" d="M 246.961343 86.289966 
L 260.2221 89.779518 
L 267.388596 83.759922 
L 254.214802 80.336761 
z
" style="fill:#c19e1c;"/>
    <path clip-path="url(#p8e5742eb8c)" d="M 191.031582 181.987547 
L 190.120885 127.462879 
L 198.043146 121.013833 
L 198.736391 175.194243 
z
" style="fill:#cc6250;"/>
    <path clip-path="url(#p8e5742eb8c)" d="M 162.346885 191.878042 
L 170.430723 184.897786 
L 170.422242 184.584536 
L 162.337038 191.562877 
z
" style="fill:#050338;"/>
    <path clip-path="url(#p8e5742eb8c)" d="M 216.794403 189.994506 
L 224.338378 183.050047 
L 237.351973 187.043183 
L 229.891821 194.06512 
z
" style="fill:#80442a;"/>
    <path clip-path="url(#p8e5742eb8c)" d="M 205.748402 107.457273 
L 218.784679 111.0667 
L 226.351681 104.840326 
L 213.398059 101.299601 
z
" style="fill:#bb6937;"/>
    <path clip-path="url(#p8e5742eb8c)" d="M 170.021799 169.793175 
L 182.864666 173.752995 
L 190.779954 166.922196 
L 178.016019 163.037783 
z
" style="fill:#4a0080;"/>
    <path clip-path="url(#p8e5742eb8c)" d="M 218.949524 172.361429 
L 231.739835 176.23678 
L 232.045601 93.61901 
L 218.72816 90.050992 
z
" style="fill:#dacb21;"/>
    <path clip-path="url(#p8e5742eb8c)" d="M 211.467294 179.100638 
L 210.979712 103.449966 
L 218.747374 97.195321 
L 218.949524 172.361429 
z
" style="fill:#e0ac23;"/>
    <path clip-path="url(#p8e5742eb8c)" d="M 170.430723 184.897786 
L 170.090629 172.335579 
L 182.917515 176.304554 
L 183.178635 188.911464 
z
" style="fill:#230144;"/>
    <path clip-path="url(#p8e5742eb8c)" d="M 284.327244 192.170297 
L 291.24765 185.184478 
L 291.359233 181.864265 
L 284.428254 188.82973 
z
" style="fill:#0f023c;"/>
    <path clip-path="url(#p8e5742eb8c)" d="M 264.839875 177.282368 
L 271.803162 170.57712 
L 273.844419 84.327735 
L 266.598863 90.472868 
z
" style="fill:#64680e;"/>
    <path clip-path="url(#p8e5742eb8c)" d="M 250.510457 191.080779 
L 257.743589 184.115686 
L 270.961723 188.120663 
L 263.816264 195.163579 
z
" style="fill:#440259;"/>
    <path clip-path="url(#p8e5742eb8c)" d="M 170.430723 184.897786 
L 183.178635 188.911464 
L 182.864666 173.752995 
L 170.021799 169.793175 
z
" style="fill:#560093;"/>
    <path clip-path="url(#p8e5742eb8c)" d="M 149.662704 187.831639 
L 149.654507 187.613385 
L 162.340042 191.659019 
L 162.346885 191.878042 
z
" style="fill:#050338;"/>
    <path clip-path="url(#p8e5742eb8c)" d="M 149.662704 187.831639 
L 162.346885 191.878042 
L 162.337038 191.562877 
L 149.650909 187.517581 
z
" style="fill:#0b0777;"/>
    <path clip-path="url(#p8e5742eb8c)" d="M 251.851153 173.395697 
L 252.976793 91.457936 
L 266.506349 95.038607 
L 264.839875 177.282368 
z
" style="fill:#675f10;"/>
    <path clip-path="url(#p8e5742eb8c)" d="M 257.743589 184.115686 
L 258.107465 162.417297 
L 271.472428 166.344524 
L 270.961723 188.120663 
z
" style="fill:#350146;"/>
    <path clip-path="url(#p8e5742eb8c)" d="M 162.346885 191.878042 
L 170.430723 184.897786 
L 183.178635 188.911464 
L 175.173234 195.969799 
z
" style="fill:#2d0157;"/>
    <path clip-path="url(#p8e5742eb8c)" d="M 270.961723 188.120663 
L 271.012684 185.947703 
L 284.393181 189.98966 
L 284.327244 192.170297 
z
" style="fill:#0b033b;"/>
    <path clip-path="url(#p8e5742eb8c)" d="M 162.346885 191.878042 
L 161.951992 179.23827 
L 170.090629 172.335579 
L 170.430723 184.897786 
z
" style="fill:#4b0190;"/>
    <path clip-path="url(#p8e5742eb8c)" d="M 270.961723 188.120663 
L 284.327244 192.170297 
L 284.428254 188.82973 
L 271.039792 184.791867 
z
" style="fill:#200580;"/>
    <path clip-path="url(#p8e5742eb8c)" d="M 251.851153 173.395697 
L 264.839875 177.282368 
L 266.598863 90.472868 
L 253.039268 86.910257 
z
" style="fill:#d4dc1e;"/>
    <path clip-path="url(#p8e5742eb8c)" d="M 270.961723 188.120663 
L 277.971253 181.211726 
L 278.895093 146.849085 
L 271.772669 153.542471 
z
" style="fill:#4a123c;"/>
    <path clip-path="url(#p8e5742eb8c)" d="M 141.344465 194.868925 
L 141.335266 194.649335 
L 149.654507 187.613385 
L 149.662704 187.831639 
z
" style="fill:#0b0777;"/>
    <path clip-path="url(#p8e5742eb8c)" d="M 231.739835 176.23678 
L 232.011689 102.782017 
L 245.421453 106.426923 
L 244.670417 180.154631 
z
" style="fill:#6a4e12;"/>
    <path clip-path="url(#p8e5742eb8c)" d="M 244.670417 180.154631 
L 245.510496 97.685765 
L 252.976793 91.457936 
L 251.851153 173.395697 
z
" style="fill:#daca21;"/>
    <path clip-path="url(#p8e5742eb8c)" d="M 196.068846 192.969946 
L 203.841786 185.968896 
L 216.794403 189.994506 
L 209.103753 197.073984 
z
" style="fill:#6f293e;"/>
    <path clip-path="url(#p8e5742eb8c)" d="M 250.510457 191.080779 
L 250.798323 169.247479 
L 258.107465 162.417297 
L 257.743589 184.115686 
z
" style="fill:#710394;"/>
    <path clip-path="url(#p8e5742eb8c)" d="M 191.031582 181.987547 
L 190.329298 139.940817 
L 203.407169 143.769232 
L 203.841786 185.968896 
z
" style="fill:#541c33;"/>
    <path clip-path="url(#p8e5742eb8c)" d="M 244.670417 180.154631 
L 251.851153 173.395697 
L 252.990381 90.468796 
L 245.520641 96.689822 
z
" style="fill:#666010;"/>
    <path clip-path="url(#p8e5742eb8c)" d="M 263.816264 195.163579 
L 263.859834 192.977299 
L 271.012684 185.947703 
L 270.961723 188.120663 
z
" style="fill:#18057c;"/>
    <path clip-path="url(#p8e5742eb8c)" d="M 265.759394 131.902329 
L 279.195737 135.666502 
L 286.216886 129.173313 
L 272.870445 125.481128 
z
" style="fill:#a23e56;"/>
    <path clip-path="url(#p8e5742eb8c)" d="M 211.467294 179.100638 
L 211.067121 117.011905 
L 224.338378 120.732279 
L 224.338378 183.050047 
z
" style="fill:#663a1e;"/>
    <path clip-path="url(#p8e5742eb8c)" d="M 203.841786 185.968896 
L 211.467294 179.100638 
L 211.116813 124.721861 
L 203.278171 131.244015 
z
" style="fill:#602e26;"/>
    <path clip-path="url(#p8e5742eb8c)" d="M 257.743589 184.115686 
L 270.961723 188.120663 
L 271.772669 153.542471 
L 258.321365 149.662175 
z
" style="fill:#9d267e;"/>
    <path clip-path="url(#p8e5742eb8c)" d="M 260.227103 89.488638 
L 273.638789 93.016265 
L 280.716833 86.931129 
L 267.394541 83.470998 
z
" style="fill:#c1a01c;"/>
    <path clip-path="url(#p8e5742eb8c)" d="M 229.891821 194.06512 
L 237.351973 187.043183 
L 250.510457 191.080779 
L 243.136481 198.181496 
z
" style="fill:#7c3c30;"/>
    <path clip-path="url(#p8e5742eb8c)" d="M 224.338378 183.050047 
L 224.338378 109.121567 
L 232.011689 102.782017 
L 231.739835 176.23678 
z
" style="fill:#e0a626;"/>
    <path clip-path="url(#p8e5742eb8c)" d="M 183.178635 188.911464 
L 182.302247 146.599342 
L 190.329298 139.940817 
L 191.031582 181.987547 
z
" style="fill:#b13c6c;"/>
    <path clip-path="url(#p8e5742eb8c)" d="M 231.739835 176.23678 
L 244.670417 180.154631 
L 245.520641 96.689822 
L 232.047584 93.083176 
z
" style="fill:#d9cd22;"/>
    <path clip-path="url(#p8e5742eb8c)" d="M 224.338378 183.050047 
L 231.739835 176.23678 
L 232.019056 100.791482 
L 224.338378 107.117474 
z
" style="fill:#6a5111;"/>
    <path clip-path="url(#p8e5742eb8c)" d="M 141.344465 194.868925 
L 149.662704 187.831639 
L 162.346885 191.878042 
L 154.105465 198.994368 
z
" style="fill:#070448;"/>
    <path clip-path="url(#p8e5742eb8c)" d="M 226.373505 82.387734 
L 239.614258 85.88055 
L 247.030998 79.855498 
L 233.876249 76.429607 
z
" style="fill:#bbb51e;"/>
    <path clip-path="url(#p8e5742eb8c)" d="M 141.335266 194.649335 
L 154.097637 198.774002 
L 162.340042 191.659019 
L 149.654507 187.613385 
z
" style="fill:#0a0667;"/>
    <path clip-path="url(#p8e5742eb8c)" d="M 263.816264 195.163579 
L 270.961723 188.120663 
L 284.327244 192.170297 
L 277.271882 199.292348 
z
" style="fill:#0e034b;"/>
    <path clip-path="url(#p8e5742eb8c)" d="M 203.841786 185.968896 
L 203.198237 123.482677 
L 211.067121 117.011905 
L 211.467294 179.100638 
z
" style="fill:#d87a3f;"/>
    <path clip-path="url(#p8e5742eb8c)" d="M 191.031582 181.987547 
L 203.841786 185.968896 
L 203.278171 131.244015 
L 190.120885 127.462879 
z
" style="fill:#cc6250;"/>
    <path clip-path="url(#p8e5742eb8c)" d="M 175.173234 195.969799 
L 183.178635 188.911464 
L 196.068846 192.969946 
L 188.144156 200.107676 
z
" style="fill:#4c0658;"/>
    <path clip-path="url(#p8e5742eb8c)" d="M 263.859834 192.977299 
L 277.330631 197.098329 
L 284.393181 189.98966 
L 271.012684 185.947703 
z
" style="fill:#15056c;"/>
    <path clip-path="url(#p8e5742eb8c)" d="M 211.467294 179.100638 
L 224.338378 183.050047 
L 224.338378 107.117474 
L 210.979712 103.449966 
z
" style="fill:#e0ac23;"/>
    <path clip-path="url(#p8e5742eb8c)" d="M 175.173234 195.969799 
L 183.178635 188.911464 
L 182.917515 176.304554 
L 174.85828 183.284949 
z
" style="fill:#230144;"/>
    <path clip-path="url(#p8e5742eb8c)" d="M 250.510457 191.080779 
L 250.645561 180.833715 
L 264.021202 184.880049 
L 263.816264 195.163579 
z
" style="fill:#1f0143;"/>
    <path clip-path="url(#p8e5742eb8c)" d="M 197.971109 115.383837 
L 211.080388 119.070327 
L 218.789102 112.711247 
L 205.763124 109.095544 
z
" style="fill:#b9643a;"/>
    <path clip-path="url(#p8e5742eb8c)" d="M 161.951992 179.23827 
L 174.85828 183.284949 
L 182.917515 176.304554 
L 170.090629 172.335579 
z
" style="fill:#41017d;"/>
    <path clip-path="url(#p8e5742eb8c)" d="M 162.346885 191.878042 
L 162.152208 185.646788 
L 175.017968 189.716435 
L 175.173234 195.969799 
z
" style="fill:#16023f;"/>
    <path clip-path="url(#p8e5742eb8c)" d="M 244.670417 180.154631 
L 245.399265 108.605016 
L 258.947916 112.300149 
L 257.743589 184.115686 
z
" style="fill:#6a4a14;"/>
    <path clip-path="url(#p8e5742eb8c)" d="M 258.321365 149.662175 
L 271.772669 153.542471 
L 278.895093 146.849085 
L 265.533648 143.043306 
z
" style="fill:#88216e;"/>
    <path clip-path="url(#p8e5742eb8c)" d="M 154.105465 198.994368 
L 162.346885 191.878042 
L 162.340042 191.659019 
L 154.097637 198.774002 
z
" style="fill:#050338;"/>
    <path clip-path="url(#p8e5742eb8c)" d="M 257.743589 184.115686 
L 264.839875 177.282368 
L 266.506349 95.038607 
L 259.131751 101.337819 
z
" style="fill:#675f10;"/>
    <path clip-path="url(#p8e5742eb8c)" d="M 209.103753 197.073984 
L 216.794403 189.994506 
L 229.891821 194.06512 
L 222.285805 201.224351 
z
" style="fill:#6b2441;"/>
    <path clip-path="url(#p8e5742eb8c)" d="M 183.178635 188.911464 
L 182.652236 163.496864 
L 195.705259 167.463873 
L 196.068846 192.969946 
z
" style="fill:#3b0544;"/>
    <path clip-path="url(#p8e5742eb8c)" d="M 263.816264 195.163579 
L 270.961723 188.120663 
L 271.472428 166.344524 
L 264.252938 173.251865 
z
" style="fill:#350146;"/>
    <path clip-path="url(#p8e5742eb8c)" d="M 224.338378 183.050047 
L 224.338378 124.049356 
L 237.739411 127.825021 
L 237.351973 187.043183 
z
" style="fill:#643521;"/>
    <path clip-path="url(#p8e5742eb8c)" d="M 203.841786 185.968896 
L 203.384838 141.600967 
L 216.625263 145.464682 
L 216.794403 189.994506 
z
" style="fill:#562030;"/>
    <path clip-path="url(#p8e5742eb8c)" d="M 277.271882 199.292348 
L 284.327244 192.170297 
L 284.393181 189.98966 
L 277.330631 197.098329 
z
" style="fill:#0b033b;"/>
    <path clip-path="url(#p8e5742eb8c)" d="M 162.346885 191.878042 
L 175.173234 195.969799 
L 174.85828 183.284949 
L 161.951992 179.23827 
z
" style="fill:#4b0190;"/>
    <path clip-path="url(#p8e5742eb8c)" d="M 243.136481 198.181496 
L 243.23447 187.871161 
L 250.645561 180.833715 
L 250.510457 191.080779 
z
" style="fill:#41028d;"/>
    <path clip-path="url(#p8e5742eb8c)" d="M 154.105465 198.994368 
L 153.88275 192.724752 
L 162.152208 185.646788 
L 162.346885 191.878042 
z
" style="fill:#2f0486;"/>
    <path clip-path="url(#p8e5742eb8c)" d="M 237.351973 187.043183 
L 237.82311 115.032051 
L 245.399265 108.605016 
L 244.670417 180.154631 
z
" style="fill:#e09c2b;"/>
    <path clip-path="url(#p8e5742eb8c)" d="M 243.136481 198.181496 
L 250.510457 191.080779 
L 263.816264 195.163579 
L 256.530882 202.34441 
z
" style="fill:#270155;"/>
    <path clip-path="url(#p8e5742eb8c)" d="M 141.344465 194.868925 
L 154.105465 198.994368 
L 154.097637 198.774002 
L 141.335266 194.649335 
z
" style="fill:#0b0777;"/>
    <path clip-path="url(#p8e5742eb8c)" d="M 237.351973 187.043183 
L 244.670417 180.154631 
L 245.421453 106.426923 
L 237.837457 112.839132 
z
" style="fill:#6a4e12;"/>
    <path clip-path="url(#p8e5742eb8c)" d="M 244.670417 180.154631 
L 257.743589 184.115686 
L 259.131751 101.337819 
L 245.510496 97.685765 
z
" style="fill:#daca21;"/>
    <path clip-path="url(#p8e5742eb8c)" d="M 175.173234 195.969799 
L 174.538271 170.396478 
L 182.652236 163.496864 
L 183.178635 188.911464 
z
" style="fill:#7e0b91;"/>
    <path clip-path="url(#p8e5742eb8c)" d="M 250.510457 191.080779 
L 263.816264 195.163579 
L 264.252938 173.251865 
L 250.798323 169.247479 
z
" style="fill:#710394;"/>
    <path clip-path="url(#p8e5742eb8c)" d="M 196.068846 192.969946 
L 203.841786 185.968896 
L 203.407169 143.769232 
L 195.46349 150.503517 
z
" style="fill:#541c33;"/>
    <path clip-path="url(#p8e5742eb8c)" d="M 216.794403 189.994506 
L 216.568864 130.616406 
L 224.338378 124.049356 
L 224.338378 183.050047 
z
" style="fill:#d47046;"/>
    <path clip-path="url(#p8e5742eb8c)" d="M 154.105465 198.994368 
L 162.346885 191.878042 
L 175.173234 195.969799 
L 167.010898 203.166503 
z
" style="fill:#1c0251;"/>
    <path clip-path="url(#p8e5742eb8c)" d="M 263.816264 195.163579 
L 263.847766 193.582836 
L 277.314359 197.706013 
L 277.271882 199.292348 
z
" style="fill:#0a033a;"/>
    <path clip-path="url(#p8e5742eb8c)" d="M 250.798323 169.247479 
L 264.252938 173.251865 
L 271.472428 166.344524 
L 258.107465 162.417297 
z
" style="fill:#620380;"/>
    <path clip-path="url(#p8e5742eb8c)" d="M 196.068846 192.969946 
L 195.432379 148.321076 
L 203.384838 141.600967 
L 203.841786 185.968896 
z
" style="fill:#b74367;"/>
    <path clip-path="url(#p8e5742eb8c)" d="M 263.816264 195.163579 
L 277.271882 199.292348 
L 277.330631 197.098329 
L 263.859834 192.977299 
z
" style="fill:#18057c;"/>
    <path clip-path="url(#p8e5742eb8c)" d="M 216.794403 189.994506 
L 224.338378 183.050047 
L 224.338378 120.732279 
L 216.55618 127.277106 
z
" style="fill:#663a1e;"/>
    <path clip-path="url(#p8e5742eb8c)" d="M 239.623514 84.614046 
L 253.022355 88.141379 
L 260.354924 82.056941 
L 247.044615 78.597611 
z
" style="fill:#b9bb1d;"/>
    <path clip-path="url(#p8e5742eb8c)" d="M 224.338378 183.050047 
L 237.351973 187.043183 
L 237.837457 112.839132 
L 224.338378 109.121567 
z
" style="fill:#e0a626;"/>
    <path clip-path="url(#p8e5742eb8c)" d="M 188.144156 200.107676 
L 196.068846 192.969946 
L 209.103753 197.073984 
L 201.262108 204.292457 
z
" style="fill:#4e0857;"/>
    <path clip-path="url(#p8e5742eb8c)" d="M 183.178635 188.911464 
L 196.068846 192.969946 
L 195.46349 150.503517 
L 182.302247 146.599342 
z
" style="fill:#b13c6c;"/>
    <path clip-path="url(#p8e5742eb8c)" d="M 256.530882 202.34441 
L 256.556822 200.753964 
L 263.847766 193.582836 
L 263.816264 195.163579 
z
" style="fill:#16067b;"/>
    <path clip-path="url(#p8e5742eb8c)" d="M 237.351973 187.043183 
L 237.712779 131.895588 
L 251.240239 135.730208 
L 250.510457 191.080779 
z
" style="fill:#612f25;"/>
    <path clip-path="url(#p8e5742eb8c)" d="M 203.841786 185.968896 
L 216.794403 189.994506 
L 216.55618 127.277106 
L 203.198237 123.482677 
z
" style="fill:#d87a3f;"/>
    <path clip-path="url(#p8e5742eb8c)" d="M 222.285805 201.224351 
L 229.891821 194.06512 
L 243.136481 198.181496 
L 235.617509 205.421836 
z
" style="fill:#5c154e;"/>
    <path clip-path="url(#p8e5742eb8c)" d="M 175.173234 195.969799 
L 174.937432 186.472814 
L 187.969581 190.576868 
L 188.144156 200.107676 
z
" style="fill:#1d0142;"/>
    <path clip-path="url(#p8e5742eb8c)" d="M 153.88275 192.724752 
L 166.828075 196.8746 
L 175.017968 189.716435 
L 162.152208 185.646788 
z
" style="fill:#290375;"/>
    <path clip-path="url(#p8e5742eb8c)" d="M 216.794403 189.994506 
L 216.63336 147.596355 
L 230.011049 151.512283 
L 229.891821 194.06512 
z
" style="fill:#541c33;"/>
    <path clip-path="url(#p8e5742eb8c)" d="M 196.068846 192.969946 
L 195.691523 166.500319 
L 208.899255 170.508889 
L 209.103753 197.073984 
z
" style="fill:#3d0644;"/>
    <path clip-path="url(#p8e5742eb8c)" d="M 218.72816 90.050992 
L 232.045601 93.61901 
L 239.602682 87.464463 
L 226.371971 83.965421 
z
" style="fill:#bdb01d;"/>
    <path clip-path="url(#p8e5742eb8c)" d="M 190.120885 127.462879 
L 203.278171 131.244015 
L 211.116813 124.721861 
L 198.043146 121.013833 
z
" style="fill:#b15545;"/>
    <path clip-path="url(#p8e5742eb8c)" d="M 243.23447 187.871161 
L 256.699645 191.99731 
L 264.021202 184.880049 
L 250.645561 180.833715 
z
" style="fill:#38027b;"/>
    <path clip-path="url(#p8e5742eb8c)" d="M 256.530882 202.34441 
L 263.816264 195.163579 
L 264.021202 184.880049 
L 256.699645 191.99731 
z
" style="fill:#1f0143;"/>
    <path clip-path="url(#p8e5742eb8c)" d="M 229.891821 194.06512 
L 230.047324 138.565284 
L 237.712779 131.895588 
L 237.351973 187.043183 
z
" style="fill:#cd634f;"/>
    <path clip-path="url(#p8e5742eb8c)" d="M 167.010898 203.166503 
L 175.173234 195.969799 
L 175.017968 189.716435 
L 166.828075 196.8746 
z
" style="fill:#16023f;"/>
    <path clip-path="url(#p8e5742eb8c)" d="M 250.510457 191.080779 
L 257.743589 184.115686 
L 258.947916 112.300149 
L 251.463444 118.801192 
z
" style="fill:#6a4a14;"/>
    <path clip-path="url(#p8e5742eb8c)" d="M 256.530882 202.34441 
L 263.816264 195.163579 
L 277.271882 199.292348 
L 270.077576 206.554656 
z
" style="fill:#0d034a;"/>
    <path clip-path="url(#p8e5742eb8c)" d="M 243.136481 198.181496 
L 243.173209 194.316986 
L 256.594136 198.466191 
L 256.530882 202.34441 
z
" style="fill:#11023d;"/>
    <path clip-path="url(#p8e5742eb8c)" d="M 188.144156 200.107676 
L 196.068846 192.969946 
L 195.705259 167.463873 
L 187.674042 174.442103 
z
" style="fill:#3b0544;"/>
    <path clip-path="url(#p8e5742eb8c)" d="M 167.010898 203.166503 
L 166.73324 193.610835 
L 174.937432 186.472814 
L 175.173234 195.969799 
z
" style="fill:#3e038c;"/>
    <path clip-path="url(#p8e5742eb8c)" d="M 209.103753 197.073984 
L 208.775305 154.407409 
L 216.63336 147.596355 
L 216.794403 189.994506 
z
" style="fill:#b13c6c;"/>
    <path clip-path="url(#p8e5742eb8c)" d="M 256.556822 200.753964 
L 270.114642 204.958573 
L 277.314359 197.706013 
L 263.847766 193.582836 
z
" style="fill:#13056b;"/>
    <path clip-path="url(#p8e5742eb8c)" d="M 229.891821 194.06512 
L 237.351973 187.043183 
L 237.739411 127.825021 
L 230.058806 134.467536 
z
" style="fill:#643521;"/>
    <path clip-path="url(#p8e5742eb8c)" d="M 188.144156 200.107676 
L 187.65628 173.472397 
L 195.691523 166.500319 
L 196.068846 192.969946 
z
" style="fill:#810e90;"/>
    <path clip-path="url(#p8e5742eb8c)" d="M 167.010898 203.166503 
L 175.173234 195.969799 
L 188.144156 200.107676 
L 180.063228 207.386128 
z
" style="fill:#250255;"/>
    <path clip-path="url(#p8e5742eb8c)" d="M 209.103753 197.073984 
L 216.794403 189.994506 
L 216.625263 145.464682 
L 208.758788 152.261773 
z
" style="fill:#562030;"/>
    <path clip-path="url(#p8e5742eb8c)" d="M 243.136481 198.181496 
L 256.530882 202.34441 
L 256.699645 191.99731 
L 243.23447 187.871161 
z
" style="fill:#41028d;"/>
    <path clip-path="url(#p8e5742eb8c)" d="M 154.105465 198.994368 
L 167.010898 203.166503 
L 166.828075 196.8746 
L 153.88275 192.724752 
z
" style="fill:#2f0486;"/>
    <path clip-path="url(#p8e5742eb8c)" d="M 237.351973 187.043183 
L 250.510457 191.080779 
L 251.463444 118.801192 
L 237.82311 115.032051 
z
" style="fill:#e09c2b;"/>
    <path clip-path="url(#p8e5742eb8c)" d="M 229.891821 194.06512 
L 229.985378 160.674263 
L 243.454977 164.66951 
L 243.136481 198.181496 
z
" style="fill:#48103d;"/>
    <path clip-path="url(#p8e5742eb8c)" d="M 235.617509 205.421836 
L 235.639763 201.533542 
L 243.173209 194.316986 
L 243.136481 198.181496 
z
" style="fill:#230581;"/>
    <path clip-path="url(#p8e5742eb8c)" d="M 253.039268 86.910257 
L 266.598863 90.472868 
L 273.844419 84.327735 
L 260.375954 80.834232 
z
" style="fill:#b8bf1a;"/>
    <path clip-path="url(#p8e5742eb8c)" d="M 201.262108 204.292457 
L 209.103753 197.073984 
L 222.285805 201.224351 
L 214.529606 208.524945 
z
" style="fill:#510a55;"/>
    <path clip-path="url(#p8e5742eb8c)" d="M 175.173234 195.969799 
L 188.144156 200.107676 
L 187.674042 174.442103 
L 174.538271 170.396478 
z
" style="fill:#7e0b91;"/>
    <path clip-path="url(#p8e5742eb8c)" d="M 182.302247 146.599342 
L 195.46349 150.503517 
L 203.407169 143.769232 
L 190.329298 139.940817 
z
" style="fill:#9a345e;"/>
    <path clip-path="url(#p8e5742eb8c)" d="M 216.794403 189.994506 
L 229.891821 194.06512 
L 230.058806 134.467536 
L 216.568864 130.616406 
z
" style="fill:#d47046;"/>
    <path clip-path="url(#p8e5742eb8c)" d="M 270.077576 206.554656 
L 277.271882 199.292348 
L 277.314359 197.706013 
L 270.114642 204.958573 
z
" style="fill:#0a033a;"/>
    <path clip-path="url(#p8e5742eb8c)" d="M 196.068846 192.969946 
L 209.103753 197.073984 
L 208.758788 152.261773 
L 195.432379 148.321076 
z
" style="fill:#b74367;"/>
    <path clip-path="url(#p8e5742eb8c)" d="M 222.285805 201.224351 
L 222.250882 167.623313 
L 229.985378 160.674263 
L 229.891821 194.06512 
z
" style="fill:#992282;"/>
    <path clip-path="url(#p8e5742eb8c)" d="M 235.617509 205.421836 
L 243.136481 198.181496 
L 256.530882 202.34441 
L 249.101427 209.667246 
z
" style="fill:#15034e;"/>
    <path clip-path="url(#p8e5742eb8c)" d="M 174.538271 170.396478 
L 187.674042 174.442103 
L 195.705259 167.463873 
L 182.652236 163.496864 
z
" style="fill:#6d097e;"/>
    <path clip-path="url(#p8e5742eb8c)" d="M 188.144156 200.107676 
L 187.969772 190.58728 
L 201.150293 194.738118 
L 201.262108 204.292457 
z
" style="fill:#1c0142;"/>
    <path clip-path="url(#p8e5742eb8c)" d="M 209.103753 197.073984 
L 208.888666 169.133376 
L 222.256661 173.182731 
L 222.285805 201.224351 
z
" style="fill:#3f0843;"/>
    <path clip-path="url(#p8e5742eb8c)" d="M 232.047584 93.083176 
L 245.520641 96.689822 
L 252.990381 90.468796 
L 239.606571 86.932281 
z
" style="fill:#bcb21d;"/>
    <path clip-path="url(#p8e5742eb8c)" d="M 256.530882 202.34441 
L 256.544794 201.49142 
L 270.097455 205.698645 
L 270.077576 206.554656 
z
" style="fill:#070339;"/>
    <path clip-path="url(#p8e5742eb8c)" d="M 256.530882 202.34441 
L 270.077576 206.554656 
L 270.114642 204.958573 
L 256.556822 200.753964 
z
" style="fill:#16067b;"/>
    <path clip-path="url(#p8e5742eb8c)" d="M 210.979712 103.449966 
L 224.338378 107.117474 
L 232.019056 100.791482 
L 218.747374 97.195321 
z
" style="fill:#c2961f;"/>
    <path clip-path="url(#p8e5742eb8c)" d="M 243.136481 198.181496 
L 250.510457 191.080779 
L 251.240239 135.730208 
L 243.665895 142.476836 
z
" style="fill:#612f25;"/>
    <path clip-path="url(#p8e5742eb8c)" d="M 166.73324 193.610835 
L 179.847561 197.796366 
L 187.969581 190.576868 
L 174.937432 186.472814 
z
" style="fill:#36027a;"/>
    <path clip-path="url(#p8e5742eb8c)" d="M 235.639763 201.533542 
L 249.150565 205.765135 
L 256.594136 198.466191 
L 243.173209 194.316986 
z
" style="fill:#1f0470;"/>
    <path clip-path="url(#p8e5742eb8c)" d="M 180.063228 207.386128 
L 179.847797 197.806842 
L 187.969772 190.58728 
L 188.144156 200.107676 
z
" style="fill:#3c038c;"/>
    <path clip-path="url(#p8e5742eb8c)" d="M 180.063228 207.386128 
L 188.144156 200.107676 
L 187.969581 190.576868 
L 179.847561 197.796366 
z
" style="fill:#1d0142;"/>
    <path clip-path="url(#p8e5742eb8c)" d="M 222.285805 201.224351 
L 229.891821 194.06512 
L 230.011049 151.512283 
L 222.241298 158.401727 
z
" style="fill:#541c33;"/>
    <path clip-path="url(#p8e5742eb8c)" d="M 201.262108 204.292457 
L 209.103753 197.073984 
L 208.899255 170.508889 
L 200.949268 177.560903 
z
" style="fill:#3d0644;"/>
    <path clip-path="url(#p8e5742eb8c)" d="M 180.063228 207.386128 
L 188.144156 200.107676 
L 201.262108 204.292457 
L 193.264978 211.654059 
z
" style="fill:#240254;"/>
    <path clip-path="url(#p8e5742eb8c)" d="M 201.262108 204.292457 
L 200.933067 176.176579 
L 208.888666 169.133376 
L 209.103753 197.073984 
z
" style="fill:#86118d;"/>
    <path clip-path="url(#p8e5742eb8c)" d="M 249.101427 209.667246 
L 249.112234 208.809014 
L 256.544794 201.49142 
L 256.530882 202.34441 
z
" style="fill:#0e0678;"/>
    <path clip-path="url(#p8e5742eb8c)" d="M 229.891821 194.06512 
L 243.136481 198.181496 
L 243.665895 142.476836 
L 230.047324 138.565284 
z
" style="fill:#cd634f;"/>
    <path clip-path="url(#p8e5742eb8c)" d="M 222.285805 201.224351 
L 222.267681 183.785697 
L 235.717676 187.920593 
L 235.617509 205.421836 
z
" style="fill:#2c0046;"/>
    <path clip-path="url(#p8e5742eb8c)" d="M 249.101427 209.667246 
L 256.530882 202.34441 
L 256.594136 198.466191 
L 249.150565 205.765135 
z
" style="fill:#11023d;"/>
    <path clip-path="url(#p8e5742eb8c)" d="M 214.529606 208.524945 
L 222.285805 201.224351 
L 235.617509 205.421836 
L 227.94922 212.80596 
z
" style="fill:#39005a;"/>
    <path clip-path="url(#p8e5742eb8c)" d="M 167.010898 203.166503 
L 180.063228 207.386128 
L 179.847561 197.796366 
L 166.73324 193.610835 
z
" style="fill:#3e038c;"/>
    <path clip-path="url(#p8e5742eb8c)" d="M 209.103753 197.073984 
L 222.285805 201.224351 
L 222.241298 158.401727 
L 208.775305 154.407409 
z
" style="fill:#b13c6c;"/>
    <path clip-path="url(#p8e5742eb8c)" d="M 203.198237 123.482677 
L 216.55618 127.277106 
L 224.338378 120.732279 
L 211.067121 117.011905 
z
" style="fill:#bc6a36;"/>
    <path clip-path="url(#p8e5742eb8c)" d="M 188.144156 200.107676 
L 201.262108 204.292457 
L 200.949268 177.560903 
L 187.65628 173.472397 
z
" style="fill:#810e90;"/>
    <path clip-path="url(#p8e5742eb8c)" d="M 235.617509 205.421836 
L 235.624572 204.187756 
L 249.117022 208.428789 
L 249.101427 209.667246 
z
" style="fill:#09033a;"/>
    <path clip-path="url(#p8e5742eb8c)" d="M 195.432379 148.321076 
L 208.758788 152.261773 
L 216.625263 145.464682 
L 203.384838 141.600967 
z
" style="fill:#9f3a59;"/>
    <path clip-path="url(#p8e5742eb8c)" d="M 235.617509 205.421836 
L 243.136481 198.181496 
L 243.454977 164.66951 
L 235.810522 171.698633 
z
" style="fill:#48103d;"/>
    <path clip-path="url(#p8e5742eb8c)" d="M 249.101427 209.667246 
L 256.530882 202.34441 
L 270.077576 206.554656 
L 262.740181 213.961405 
z
" style="fill:#090449;"/>
    <path clip-path="url(#p8e5742eb8c)" d="M 214.529606 208.524945 
L 214.44213 190.977697 
L 222.267681 183.785697 
L 222.285805 201.224351 
z
" style="fill:#5e0094;"/>
    <path clip-path="url(#p8e5742eb8c)" d="M 201.262108 204.292457 
L 201.150485 194.754468 
L 214.481887 198.952915 
L 214.529606 208.524945 
z
" style="fill:#1c0142;"/>
    <path clip-path="url(#p8e5742eb8c)" d="M 224.338378 109.121567 
L 237.837457 112.839132 
L 245.421453 106.426923 
L 232.011689 102.782017 
z
" style="fill:#c29021;"/>
    <path clip-path="url(#p8e5742eb8c)" d="M 235.617509 205.421836 
L 249.101427 209.667246 
L 249.150565 205.765135 
L 235.639763 201.533542 
z
" style="fill:#230581;"/>
    <path clip-path="url(#p8e5742eb8c)" d="M 245.510496 97.685765 
L 259.131751 101.337819 
L 266.506349 95.038607 
L 252.976793 91.457936 
z
" style="fill:#bdaf1d;"/>
    <path clip-path="url(#p8e5742eb8c)" d="M 249.112234 208.809014 
L 262.757037 213.100129 
L 270.097455 205.698645 
L 256.544794 201.49142 
z
" style="fill:#0c0668;"/>
    <path clip-path="url(#p8e5742eb8c)" d="M 187.65628 173.472397 
L 200.949268 177.560903 
L 208.899255 170.508889 
L 195.691523 166.500319 
z
" style="fill:#700c7d;"/>
    <path clip-path="url(#p8e5742eb8c)" d="M 227.94922 212.80596 
L 227.951504 211.564288 
L 235.624572 204.187756 
L 235.617509 205.421836 
z
" style="fill:#13067a;"/>
    <path clip-path="url(#p8e5742eb8c)" d="M 179.847797 197.806842 
L 193.112914 202.040559 
L 201.150293 194.738118 
L 187.969772 190.58728 
z
" style="fill:#340279;"/>
    <path clip-path="url(#p8e5742eb8c)" d="M 222.285805 201.224351 
L 235.617509 205.421836 
L 235.810522 171.698633 
L 222.250882 167.623313 
z
" style="fill:#992282;"/>
    <path clip-path="url(#p8e5742eb8c)" d="M 193.264978 211.654059 
L 193.113174 202.057012 
L 201.150485 194.754468 
L 201.262108 204.292457 
z
" style="fill:#3c038c;"/>
    <path clip-path="url(#p8e5742eb8c)" d="M 193.264978 211.654059 
L 201.262108 204.292457 
L 201.150293 194.738118 
L 193.112914 202.040559 
z
" style="fill:#1c0142;"/>
    <path clip-path="url(#p8e5742eb8c)" d="M 193.264978 211.654059 
L 201.262108 204.292457 
L 214.529606 208.524945 
L 206.61873 215.971129 
z
" style="fill:#240254;"/>
    <path clip-path="url(#p8e5742eb8c)" d="M 214.529606 208.524945 
L 222.285805 201.224351 
L 222.256661 173.182731 
L 214.388935 180.307208 
z
" style="fill:#3f0843;"/>
    <path clip-path="url(#p8e5742eb8c)" d="M 216.568864 130.616406 
L 230.058806 134.467536 
L 237.739411 127.825021 
L 224.338378 124.049356 
z
" style="fill:#b8613c;"/>
    <path clip-path="url(#p8e5742eb8c)" d="M 262.740181 213.961405 
L 270.077576 206.554656 
L 270.097455 205.698645 
L 262.757037 213.100129 
z
" style="fill:#070339;"/>
    <path clip-path="url(#p8e5742eb8c)" d="M 227.94922 212.80596 
L 235.617509 205.421836 
L 249.101427 209.667246 
L 241.523583 217.136342 
z
" style="fill:#0c044a;"/>
    <path clip-path="url(#p8e5742eb8c)" d="M 180.063228 207.386128 
L 193.264978 211.654059 
L 193.112914 202.040559 
L 179.847797 197.806842 
z
" style="fill:#3c038c;"/>
    <path clip-path="url(#p8e5742eb8c)" d="M 208.775305 154.407409 
L 222.241298 158.401727 
L 230.011049 151.512283 
L 216.63336 147.596355 
z
" style="fill:#9a345e;"/>
    <path clip-path="url(#p8e5742eb8c)" d="M 214.529606 208.524945 
L 214.502991 203.186216 
L 227.959074 207.448225 
L 227.94922 212.80596 
z
" style="fill:#14023e;"/>
    <path clip-path="url(#p8e5742eb8c)" d="M 227.951504 211.564288 
L 241.534514 215.89026 
L 249.117022 208.428789 
L 235.624572 204.187756 
z
" style="fill:#11056a;"/>
    <path clip-path="url(#p8e5742eb8c)" d="M 201.262108 204.292457 
L 214.529606 208.524945 
L 214.388935 180.307208 
L 200.933067 176.176579 
z
" style="fill:#86118d;"/>
    <path clip-path="url(#p8e5742eb8c)" d="M 237.82311 115.032051 
L 251.463444 118.801192 
L 258.947916 112.300149 
L 245.399265 108.605016 
z
" style="fill:#c28725;"/>
    <path clip-path="url(#p8e5742eb8c)" d="M 249.101427 209.667246 
L 249.105968 209.306596 
L 262.747264 213.599477 
L 262.740181 213.961405 
z
" style="fill:#050338;"/>
    <path clip-path="url(#p8e5742eb8c)" d="M 249.101427 209.667246 
L 262.740181 213.961405 
L 262.757037 213.100129 
L 249.112234 208.809014 
z
" style="fill:#0e0678;"/>
    <path clip-path="url(#p8e5742eb8c)" d="M 222.250882 167.623313 
L 235.810522 171.698633 
L 243.454977 164.66951 
L 229.985378 160.674263 
z
" style="fill:#851e70;"/>
    <path clip-path="url(#p8e5742eb8c)" d="M 227.94922 212.80596 
L 235.617509 205.421836 
L 235.717676 187.920593 
L 227.981608 195.195616 
z
" style="fill:#2c0046;"/>
    <path clip-path="url(#p8e5742eb8c)" d="M 230.047324 138.565284 
L 243.665895 142.476836 
L 251.240239 135.730208 
L 237.712779 131.895588 
z
" style="fill:#b25644;"/>
    <path clip-path="url(#p8e5742eb8c)" d="M 206.61873 215.971129 
L 206.57017 210.599427 
L 214.502991 203.186216 
L 214.529606 208.524945 
z
" style="fill:#2a0484;"/>
    <path clip-path="url(#p8e5742eb8c)" d="M 200.933067 176.176579 
L 214.388935 180.307208 
L 222.256661 173.182731 
L 208.888666 169.133376 
z
" style="fill:#740f7b;"/>
    <path clip-path="url(#p8e5742eb8c)" d="M 241.523583 217.136342 
L 241.526766 216.773473 
L 249.105968 209.306596 
L 249.101427 209.667246 
z
" style="fill:#0b0777;"/>
    <path clip-path="url(#p8e5742eb8c)" d="M 214.44213 190.977697 
L 227.981608 195.195616 
L 235.717676 187.920593 
L 222.267681 183.785697 
z
" style="fill:#520081;"/>
    <path clip-path="url(#p8e5742eb8c)" d="M 241.523583 217.136342 
L 249.101427 209.667246 
L 249.117022 208.428789 
L 241.534514 215.89026 
z
" style="fill:#09033a;"/>
    <path clip-path="url(#p8e5742eb8c)" d="M 193.113174 202.057012 
L 206.531662 206.339774 
L 214.481887 198.952915 
L 201.150485 194.754468 
z
" style="fill:#340279;"/>
    <path clip-path="url(#p8e5742eb8c)" d="M 214.529606 208.524945 
L 227.94922 212.80596 
L 227.981608 195.195616 
L 214.44213 190.977697 
z
" style="fill:#5e0094;"/>
    <path clip-path="url(#p8e5742eb8c)" d="M 206.61873 215.971129 
L 214.529606 208.524945 
L 214.481887 198.952915 
L 206.531662 206.339774 
z
" style="fill:#1c0142;"/>
    <path clip-path="url(#p8e5742eb8c)" d="M 206.61873 215.971129 
L 214.529606 208.524945 
L 227.94922 212.80596 
L 220.127123 220.338193 
z
" style="fill:#190350;"/>
    <path clip-path="url(#p8e5742eb8c)" d="M 227.94922 212.80596 
L 227.950319 212.208357 
L 241.528844 216.536618 
L 241.523583 217.136342 
z
" style="fill:#070339;"/>
    <path clip-path="url(#p8e5742eb8c)" d="M 227.94922 212.80596 
L 241.523583 217.136342 
L 241.534514 215.89026 
L 227.951504 211.564288 
z
" style="fill:#13067a;"/>
    <path clip-path="url(#p8e5742eb8c)" d="M 241.523583 217.136342 
L 249.101427 209.667246 
L 262.740181 213.961405 
L 255.255385 221.516949 
z
" style="fill:#070448;"/>
    <path clip-path="url(#p8e5742eb8c)" d="M 193.264978 211.654059 
L 206.61873 215.971129 
L 206.531662 206.339774 
L 193.113174 202.057012 
z
" style="fill:#3c038c;"/>
    <path clip-path="url(#p8e5742eb8c)" d="M 241.526766 216.773473 
L 255.261145 221.152792 
L 262.747264 213.599477 
L 249.105968 209.306596 
z
" style="fill:#0a0667;"/>
    <path clip-path="url(#p8e5742eb8c)" d="M 206.57017 210.599427 
L 220.115515 214.947339 
L 227.959074 207.448225 
L 214.502991 203.186216 
z
" style="fill:#240473;"/>
    <path clip-path="url(#p8e5742eb8c)" d="M 220.127123 220.338193 
L 220.125828 219.736911 
L 227.950319 212.208357 
L 227.94922 212.80596 
z
" style="fill:#0e0678;"/>
    <path clip-path="url(#p8e5742eb8c)" d="M 220.127123 220.338193 
L 227.94922 212.80596 
L 227.959074 207.448225 
L 220.115515 214.947339 
z
" style="fill:#14023e;"/>
    <path clip-path="url(#p8e5742eb8c)" d="M 255.255385 221.516949 
L 262.740181 213.961405 
L 262.747264 213.599477 
L 255.261145 221.152792 
z
" style="fill:#050338;"/>
    <path clip-path="url(#p8e5742eb8c)" d="M 220.127123 220.338193 
L 227.94922 212.80596 
L 241.523583 217.136342 
L 233.792858 224.756123 
z
" style="fill:#090449;"/>
    <path clip-path="url(#p8e5742eb8c)" d="M 220.125828 219.736911 
L 233.795782 224.152704 
L 241.528844 216.536618 
L 227.950319 212.208357 
z
" style="fill:#0c0668;"/>
    <path clip-path="url(#p8e5742eb8c)" d="M 206.61873 215.971129 
L 220.127123 220.338193 
L 220.115515 214.947339 
L 206.57017 210.599427 
z
" style="fill:#2a0484;"/>
    <path clip-path="url(#p8e5742eb8c)" d="M 241.523583 217.136342 
L 241.526698 216.781201 
L 255.261023 221.160546 
L 255.255385 221.516949 
z
" style="fill:#050338;"/>
    <path clip-path="url(#p8e5742eb8c)" d="M 241.523583 217.136342 
L 255.255385 221.516949 
L 255.261145 221.152792 
L 241.526766 216.773473 
z
" style="fill:#0b0777;"/>
    <path clip-path="url(#p8e5742eb8c)" d="M 233.792858 224.756123 
L 233.79459 224.398795 
L 241.526698 216.781201 
L 241.523583 217.136342 
z
" style="fill:#0b0777;"/>
    <path clip-path="url(#p8e5742eb8c)" d="M 233.792858 224.756123 
L 241.523583 217.136342 
L 241.528844 216.536618 
L 233.795782 224.152704 
z
" style="fill:#070339;"/>
    <path clip-path="url(#p8e5742eb8c)" d="M 220.127123 220.338193 
L 233.792858 224.756123 
L 233.795782 224.152704 
L 220.125828 219.736911 
z
" style="fill:#0e0678;"/>
    <path clip-path="url(#p8e5742eb8c)" d="M 233.792858 224.756123 
L 241.523583 217.136342 
L 255.255385 221.516949 
L 247.618703 229.225814 
z
" style="fill:#070448;"/>
    <path clip-path="url(#p8e5742eb8c)" d="M 233.79459 224.398795 
L 247.622991 228.867215 
L 255.261023 221.160546 
L 241.526698 216.781201 
z
" style="fill:#0a0667;"/>
    <path clip-path="url(#p8e5742eb8c)" d="M 247.618703 229.225814 
L 255.255385 221.516949 
L 255.261023 221.160546 
L 247.622991 228.867215 
z
" style="fill:#050338;"/>
    <path clip-path="url(#p8e5742eb8c)" d="M 233.792858 224.756123 
L 247.618703 229.225814 
L 247.622991 228.867215 
L 233.79459 224.398795 
z
" style="fill:#0b0777;"/>
   </g>
   <g id="text_17">
    <!-- W30__H40__A200_bars_extracted.txt -->
    <g transform="translate(110.101875 28.56)scale(0.12 -0.12)">
     <defs>
      <path d="M 3.328125 72.90625 
L 13.28125 72.90625 
L 28.609375 11.28125 
L 43.890625 72.90625 
L 54.984375 72.90625 
L 70.3125 11.28125 
L 85.59375 72.90625 
L 95.609375 72.90625 
L 77.296875 0 
L 64.890625 0 
L 49.515625 63.28125 
L 33.984375 0 
L 21.578125 0 
z
" id="DejaVuSans-87"/>
      <path d="M 40.578125 39.3125 
Q 47.65625 37.796875 51.625 33 
Q 55.609375 28.21875 55.609375 21.1875 
Q 55.609375 10.40625 48.1875 4.484375 
Q 40.765625 -1.421875 27.09375 -1.421875 
Q 22.515625 -1.421875 17.65625 -0.515625 
Q 12.796875 0.390625 7.625 2.203125 
L 7.625 11.71875 
Q 11.71875 9.328125 16.59375 8.109375 
Q 21.484375 6.890625 26.8125 6.890625 
Q 36.078125 6.890625 40.9375 10.546875 
Q 45.796875 14.203125 45.796875 21.1875 
Q 45.796875 27.640625 41.28125 31.265625 
Q 36.765625 34.90625 28.71875 34.90625 
L 20.21875 34.90625 
L 20.21875 43.015625 
L 29.109375 43.015625 
Q 36.375 43.015625 40.234375 45.921875 
Q 44.09375 48.828125 44.09375 54.296875 
Q 44.09375 59.90625 40.109375 62.90625 
Q 36.140625 65.921875 28.71875 65.921875 
Q 24.65625 65.921875 20.015625 65.03125 
Q 15.375 64.15625 9.8125 62.3125 
L 9.8125 71.09375 
Q 15.4375 72.65625 20.34375 73.4375 
Q 25.25 74.21875 29.59375 74.21875 
Q 40.828125 74.21875 47.359375 69.109375 
Q 53.90625 64.015625 53.90625 55.328125 
Q 53.90625 49.265625 50.4375 45.09375 
Q 46.96875 40.921875 40.578125 39.3125 
z
" id="DejaVuSans-51"/>
      <path d="M 50.984375 -16.609375 
L 50.984375 -23.578125 
L -0.984375 -23.578125 
L -0.984375 -16.609375 
z
" id="DejaVuSans-95"/>
      <path d="M 9.8125 72.90625 
L 19.671875 72.90625 
L 19.671875 43.015625 
L 55.515625 43.015625 
L 55.515625 72.90625 
L 65.375 72.90625 
L 65.375 0 
L 55.515625 0 
L 55.515625 34.71875 
L 19.671875 34.71875 
L 19.671875 0 
L 9.8125 0 
z
" id="DejaVuSans-72"/>
      <path d="M 34.1875 63.1875 
L 20.796875 26.90625 
L 47.609375 26.90625 
z
M 28.609375 72.90625 
L 39.796875 72.90625 
L 67.578125 0 
L 57.328125 0 
L 50.6875 18.703125 
L 17.828125 18.703125 
L 11.1875 0 
L 0.78125 0 
z
" id="DejaVuSans-65"/>
      <path d="M 48.6875 27.296875 
Q 48.6875 37.203125 44.609375 42.84375 
Q 40.53125 48.484375 33.40625 48.484375 
Q 26.265625 48.484375 22.1875 42.84375 
Q 18.109375 37.203125 18.109375 27.296875 
Q 18.109375 17.390625 22.1875 11.75 
Q 26.265625 6.109375 33.40625 6.109375 
Q 40.53125 6.109375 44.609375 11.75 
Q 48.6875 17.390625 48.6875 27.296875 
z
M 18.109375 46.390625 
Q 20.953125 51.265625 25.265625 53.625 
Q 29.59375 56 35.59375 56 
Q 45.5625 56 51.78125 48.09375 
Q 58.015625 40.1875 58.015625 27.296875 
Q 58.015625 14.40625 51.78125 6.484375 
Q 45.5625 -1.421875 35.59375 -1.421875 
Q 29.59375 -1.421875 25.265625 0.953125 
Q 20.953125 3.328125 18.109375 8.203125 
L 18.109375 0 
L 9.078125 0 
L 9.078125 75.984375 
L 18.109375 75.984375 
z
" id="DejaVuSans-98"/>
      <path d="M 34.28125 27.484375 
Q 23.390625 27.484375 19.1875 25 
Q 14.984375 22.515625 14.984375 16.5 
Q 14.984375 11.71875 18.140625 8.90625 
Q 21.296875 6.109375 26.703125 6.109375 
Q 34.1875 6.109375 38.703125 11.40625 
Q 43.21875 16.703125 43.21875 25.484375 
L 43.21875 27.484375 
z
M 52.203125 31.203125 
L 52.203125 0 
L 43.21875 0 
L 43.21875 8.296875 
Q 40.140625 3.328125 35.546875 0.953125 
Q 30.953125 -1.421875 24.3125 -1.421875 
Q 15.921875 -1.421875 10.953125 3.296875 
Q 6 8.015625 6 15.921875 
Q 6 25.140625 12.171875 29.828125 
Q 18.359375 34.515625 30.609375 34.515625 
L 43.21875 34.515625 
L 43.21875 35.40625 
Q 43.21875 41.609375 39.140625 45 
Q 35.0625 48.390625 27.6875 48.390625 
Q 23 48.390625 18.546875 47.265625 
Q 14.109375 46.140625 10.015625 43.890625 
L 10.015625 52.203125 
Q 14.9375 54.109375 19.578125 55.046875 
Q 24.21875 56 28.609375 56 
Q 40.484375 56 46.34375 49.84375 
Q 52.203125 43.703125 52.203125 31.203125 
z
" id="DejaVuSans-97"/>
      <path d="M 41.109375 46.296875 
Q 39.59375 47.171875 37.8125 47.578125 
Q 36.03125 48 33.890625 48 
Q 26.265625 48 22.1875 43.046875 
Q 18.109375 38.09375 18.109375 28.8125 
L 18.109375 0 
L 9.078125 0 
L 9.078125 54.6875 
L 18.109375 54.6875 
L 18.109375 46.1875 
Q 20.953125 51.171875 25.484375 53.578125 
Q 30.03125 56 36.53125 56 
Q 37.453125 56 38.578125 55.875 
Q 39.703125 55.765625 41.0625 55.515625 
z
" id="DejaVuSans-114"/>
      <path d="M 44.28125 53.078125 
L 44.28125 44.578125 
Q 40.484375 46.53125 36.375 47.5 
Q 32.28125 48.484375 27.875 48.484375 
Q 21.1875 48.484375 17.84375 46.4375 
Q 14.5 44.390625 14.5 40.28125 
Q 14.5 37.15625 16.890625 35.375 
Q 19.28125 33.59375 26.515625 31.984375 
L 29.59375 31.296875 
Q 39.15625 29.25 43.1875 25.515625 
Q 47.21875 21.78125 47.21875 15.09375 
Q 47.21875 7.46875 41.1875 3.015625 
Q 35.15625 -1.421875 24.609375 -1.421875 
Q 20.21875 -1.421875 15.453125 -0.5625 
Q 10.6875 0.296875 5.421875 2 
L 5.421875 11.28125 
Q 10.40625 8.6875 15.234375 7.390625 
Q 20.0625 6.109375 24.8125 6.109375 
Q 31.15625 6.109375 34.5625 8.28125 
Q 37.984375 10.453125 37.984375 14.40625 
Q 37.984375 18.0625 35.515625 20.015625 
Q 33.0625 21.96875 24.703125 23.78125 
L 21.578125 24.515625 
Q 13.234375 26.265625 9.515625 29.90625 
Q 5.8125 33.546875 5.8125 39.890625 
Q 5.8125 47.609375 11.28125 51.796875 
Q 16.75 56 26.8125 56 
Q 31.78125 56 36.171875 55.265625 
Q 40.578125 54.546875 44.28125 53.078125 
z
" id="DejaVuSans-115"/>
      <path d="M 56.203125 29.59375 
L 56.203125 25.203125 
L 14.890625 25.203125 
Q 15.484375 15.921875 20.484375 11.0625 
Q 25.484375 6.203125 34.421875 6.203125 
Q 39.59375 6.203125 44.453125 7.46875 
Q 49.3125 8.734375 54.109375 11.28125 
L 54.109375 2.78125 
Q 49.265625 0.734375 44.1875 -0.34375 
Q 39.109375 -1.421875 33.890625 -1.421875 
Q 20.796875 -1.421875 13.15625 6.1875 
Q 5.515625 13.8125 5.515625 26.8125 
Q 5.515625 40.234375 12.765625 48.109375 
Q 20.015625 56 32.328125 56 
Q 43.359375 56 49.78125 48.890625 
Q 56.203125 41.796875 56.203125 29.59375 
z
M 47.21875 32.234375 
Q 47.125 39.59375 43.09375 43.984375 
Q 39.0625 48.390625 32.421875 48.390625 
Q 24.90625 48.390625 20.390625 44.140625 
Q 15.875 39.890625 15.1875 32.171875 
z
" id="DejaVuSans-101"/>
      <path d="M 54.890625 54.6875 
L 35.109375 28.078125 
L 55.90625 0 
L 45.3125 0 
L 29.390625 21.484375 
L 13.484375 0 
L 2.875 0 
L 24.125 28.609375 
L 4.6875 54.6875 
L 15.28125 54.6875 
L 29.78125 35.203125 
L 44.28125 54.6875 
z
" id="DejaVuSans-120"/>
      <path d="M 18.3125 70.21875 
L 18.3125 54.6875 
L 36.8125 54.6875 
L 36.8125 47.703125 
L 18.3125 47.703125 
L 18.3125 18.015625 
Q 18.3125 11.328125 20.140625 9.421875 
Q 21.96875 7.515625 27.59375 7.515625 
L 36.8125 7.515625 
L 36.8125 0 
L 27.59375 0 
Q 17.1875 0 13.234375 3.875 
Q 9.28125 7.765625 9.28125 18.015625 
L 9.28125 47.703125 
L 2.6875 47.703125 
L 2.6875 54.6875 
L 9.28125 54.6875 
L 9.28125 70.21875 
z
" id="DejaVuSans-116"/>
      <path d="M 48.78125 52.59375 
L 48.78125 44.1875 
Q 44.96875 46.296875 41.140625 47.34375 
Q 37.3125 48.390625 33.40625 48.390625 
Q 24.65625 48.390625 19.8125 42.84375 
Q 14.984375 37.3125 14.984375 27.296875 
Q 14.984375 17.28125 19.8125 11.734375 
Q 24.65625 6.203125 33.40625 6.203125 
Q 37.3125 6.203125 41.140625 7.25 
Q 44.96875 8.296875 48.78125 10.40625 
L 48.78125 2.09375 
Q 45.015625 0.34375 40.984375 -0.53125 
Q 36.96875 -1.421875 32.421875 -1.421875 
Q 20.0625 -1.421875 12.78125 6.34375 
Q 5.515625 14.109375 5.515625 27.296875 
Q 5.515625 40.671875 12.859375 48.328125 
Q 20.21875 56 33.015625 56 
Q 37.15625 56 41.109375 55.140625 
Q 45.0625 54.296875 48.78125 52.59375 
z
" id="DejaVuSans-99"/>
      <path d="M 45.40625 46.390625 
L 45.40625 75.984375 
L 54.390625 75.984375 
L 54.390625 0 
L 45.40625 0 
L 45.40625 8.203125 
Q 42.578125 3.328125 38.25 0.953125 
Q 33.9375 -1.421875 27.875 -1.421875 
Q 17.96875 -1.421875 11.734375 6.484375 
Q 5.515625 14.40625 5.515625 27.296875 
Q 5.515625 40.1875 11.734375 48.09375 
Q 17.96875 56 27.875 56 
Q 33.9375 56 38.25 53.625 
Q 42.578125 51.265625 45.40625 46.390625 
z
M 14.796875 27.296875 
Q 14.796875 17.390625 18.875 11.75 
Q 22.953125 6.109375 30.078125 6.109375 
Q 37.203125 6.109375 41.296875 11.75 
Q 45.40625 17.390625 45.40625 27.296875 
Q 45.40625 37.203125 41.296875 42.84375 
Q 37.203125 48.484375 30.078125 48.484375 
Q 22.953125 48.484375 18.875 42.84375 
Q 14.796875 37.203125 14.796875 27.296875 
z
" id="DejaVuSans-100"/>
      <path d="M 10.6875 12.40625 
L 21 12.40625 
L 21 0 
L 10.6875 0 
z
" id="DejaVuSans-46"/>
     </defs>
     <use xlink:href="#DejaVuSans-87"/>
     <use x="98.876953" xlink:href="#DejaVuSans-51"/>
     <use x="162.5" xlink:href="#DejaVuSans-48"/>
     <use x="226.123047" xlink:href="#DejaVuSans-95"/>
     <use x="276.123047" xlink:href="#DejaVuSans-95"/>
     <use x="326.123047" xlink:href="#DejaVuSans-72"/>
     <use x="401.318359" xlink:href="#DejaVuSans-52"/>
     <use x="464.941406" xlink:href="#DejaVuSans-48"/>
     <use x="528.564453" xlink:href="#DejaVuSans-95"/>
     <use x="578.564453" xlink:href="#DejaVuSans-95"/>
     <use x="628.564453" xlink:href="#DejaVuSans-65"/>
     <use x="696.972656" xlink:href="#DejaVuSans-50"/>
     <use x="760.595703" xlink:href="#DejaVuSans-48"/>
     <use x="824.21875" xlink:href="#DejaVuSans-48"/>
     <use x="887.841797" xlink:href="#DejaVuSans-95"/>
     <use x="937.841797" xlink:href="#DejaVuSans-98"/>
     <use x="1001.318359" xlink:href="#DejaVuSans-97"/>
     <use x="1062.597656" xlink:href="#DejaVuSans-114"/>
     <use x="1103.710938" xlink:href="#DejaVuSans-115"/>
     <use x="1155.810547" xlink:href="#DejaVuSans-95"/>
     <use x="1205.810547" xlink:href="#DejaVuSans-101"/>
     <use x="1265.583984" xlink:href="#DejaVuSans-120"/>
     <use x="1324.763672" xlink:href="#DejaVuSans-116"/>
     <use x="1363.972656" xlink:href="#DejaVuSans-114"/>
     <use x="1405.085938" xlink:href="#DejaVuSans-97"/>
     <use x="1466.365234" xlink:href="#DejaVuSans-99"/>
     <use x="1521.345703" xlink:href="#DejaVuSans-116"/>
     <use x="1560.554688" xlink:href="#DejaVuSans-101"/>
     <use x="1622.078125" xlink:href="#DejaVuSans-100"/>
     <use x="1685.554688" xlink:href="#DejaVuSans-46"/>
     <use x="1717.341797" xlink:href="#DejaVuSans-116"/>
     <use x="1756.550781" xlink:href="#DejaVuSans-120"/>
     <use x="1815.730469" xlink:href="#DejaVuSans-116"/>
    </g>
   </g>
  </g>
 </g>
 <defs>
  <clipPath id="p8e5742eb8c">
   <rect height="217.44" width="217.44" x="112.68" y="34.56"/>
  </clipPath>
 </defs>
</svg>
