<?xml version="1.0" encoding="utf-8" standalone="no"?>
<!DOCTYPE svg PUBLIC "-//W3C//DTD SVG 1.1//EN"
  "http://www.w3.org/Graphics/SVG/1.1/DTD/svg11.dtd">
<!-- Created with matplotlib (https://matplotlib.org/) -->
<svg height="288pt" version="1.1" viewBox="0 0 432 288" width="432pt" xmlns="http://www.w3.org/2000/svg" xmlns:xlink="http://www.w3.org/1999/xlink">
 <metadata>
  <rdf:RDF xmlns:cc="http://creativecommons.org/ns#" xmlns:dc="http://purl.org/dc/elements/1.1/" xmlns:rdf="http://www.w3.org/1999/02/22-rdf-syntax-ns#">
   <cc:Work>
    <dc:type rdf:resource="http://purl.org/dc/dcmitype/StillImage"/>
    <dc:date>2021-06-13T21:58:26.874401</dc:date>
    <dc:format>image/svg+xml</dc:format>
    <dc:creator>
     <cc:Agent>
      <dc:title>Matplotlib v3.3.4, https://matplotlib.org/</dc:title>
     </cc:Agent>
    </dc:creator>
   </cc:Work>
  </rdf:RDF>
 </metadata>
 <defs>
  <style type="text/css">*{stroke-linecap:butt;stroke-linejoin:round;}</style>
 </defs>
 <g id="figure_1">
  <g id="patch_1">
   <path d="M 0 288 
L 432 288 
L 432 0 
L 0 0 
z
" style="fill:#ffffff;"/>
  </g>
  <g id="patch_2">
   <path d="M 112.68 252 
L 330.12 252 
L 330.12 34.56 
L 112.68 34.56 
z
" style="fill:#ffffff;"/>
  </g>
  <g id="pane3d_1">
   <g id="patch_3">
    <path d="M 129.09822 198.386264 
L 200.904009 138.197228 
L 199.90584 51.393878 
L 124.663773 106.302111 
" style="fill:#f2f2f2;opacity:0.5;stroke:#f2f2f2;stroke-linejoin:miter;"/>
   </g>
  </g>
  <g id="pane3d_2">
   <g id="patch_4">
    <path d="M 200.904009 138.197228 
L 316.12668 171.68791 
L 320.238571 81.894718 
L 199.90584 51.393878 
" style="fill:#e6e6e6;opacity:0.5;stroke:#e6e6e6;stroke-linejoin:miter;"/>
   </g>
  </g>
  <g id="pane3d_3">
   <g id="patch_5">
    <path d="M 129.09822 198.386264 
L 251.239879 238.27773 
L 316.12668 171.68791 
L 200.904009 138.197228 
" style="fill:#ececec;opacity:0.5;stroke:#ececec;stroke-linejoin:miter;"/>
   </g>
  </g>
  <g id="axis3d_1">
   <g id="line2d_1">
    <path d="M 129.09822 198.386264 
L 251.239879 238.27773 
" style="fill:none;stroke:#000000;stroke-linecap:square;stroke-width:0.8;"/>
   </g>
   <g id="Line3DCollection_1">
    <path d="M 136.495759 200.802301 
L 207.911499 140.234029 
L 207.209612 53.245171 
" style="fill:none;stroke:#b0b0b0;stroke-width:0.8;"/>
    <path d="M 162.23134 209.207541 
L 232.260894 147.311436 
L 232.60309 59.681678 
" style="fill:none;stroke:#b0b0b0;stroke-width:0.8;"/>
    <path d="M 188.559037 217.806167 
L 257.123632 154.538053 
L 258.555303 66.259807 
" style="fill:none;stroke:#b0b0b0;stroke-width:0.8;"/>
    <path d="M 215.499525 226.604931 
L 282.516121 161.918647 
L 285.084894 72.984285 
" style="fill:none;stroke:#b0b0b0;stroke-width:0.8;"/>
    <path d="M 243.074449 235.610901 
L 308.455474 169.458193 
L 312.21135 79.860051 
" style="fill:none;stroke:#b0b0b0;stroke-width:0.8;"/>
   </g>
   <g id="xtick_1">
    <g id="line2d_2">
     <path d="M 137.117644 200.274876 
L 135.249322 201.859414 
" style="fill:none;stroke:#000000;stroke-linecap:square;stroke-width:0.8;"/>
    </g>
    <g id="text_1">
     <!-- 0 -->
     <g transform="translate(125.77919 224.124533)scale(0.1 -0.1)">
      <defs>
       <path d="M 31.78125 66.40625 
Q 24.171875 66.40625 20.328125 58.90625 
Q 16.5 51.421875 16.5 36.375 
Q 16.5 21.390625 20.328125 13.890625 
Q 24.171875 6.390625 31.78125 6.390625 
Q 39.453125 6.390625 43.28125 13.890625 
Q 47.125 21.390625 47.125 36.375 
Q 47.125 51.421875 43.28125 58.90625 
Q 39.453125 66.40625 31.78125 66.40625 
z
M 31.78125 74.21875 
Q 44.046875 74.21875 50.515625 64.515625 
Q 56.984375 54.828125 56.984375 36.375 
Q 56.984375 17.96875 50.515625 8.265625 
Q 44.046875 -1.421875 31.78125 -1.421875 
Q 19.53125 -1.421875 13.0625 8.265625 
Q 6.59375 17.96875 6.59375 36.375 
Q 6.59375 54.828125 13.0625 64.515625 
Q 19.53125 74.21875 31.78125 74.21875 
z
" id="DejaVuSans-48"/>
      </defs>
      <use xlink:href="#DejaVuSans-48"/>
     </g>
    </g>
   </g>
   <g id="xtick_2">
    <g id="line2d_3">
     <path d="M 162.841716 208.668056 
L 161.007937 210.288854 
" style="fill:none;stroke:#000000;stroke-linecap:square;stroke-width:0.8;"/>
    </g>
    <g id="text_2">
     <!-- 2 -->
     <g transform="translate(151.547192 232.748132)scale(0.1 -0.1)">
      <defs>
       <path d="M 19.1875 8.296875 
L 53.609375 8.296875 
L 53.609375 0 
L 7.328125 0 
L 7.328125 8.296875 
Q 12.9375 14.109375 22.625 23.890625 
Q 32.328125 33.6875 34.8125 36.53125 
Q 39.546875 41.84375 41.421875 45.53125 
Q 43.3125 49.21875 43.3125 52.78125 
Q 43.3125 58.59375 39.234375 62.25 
Q 35.15625 65.921875 28.609375 65.921875 
Q 23.96875 65.921875 18.8125 64.3125 
Q 13.671875 62.703125 7.8125 59.421875 
L 7.8125 69.390625 
Q 13.765625 71.78125 18.9375 73 
Q 24.125 74.21875 28.421875 74.21875 
Q 39.75 74.21875 46.484375 68.546875 
Q 53.21875 62.890625 53.21875 53.421875 
Q 53.21875 48.921875 51.53125 44.890625 
Q 49.859375 40.875 45.40625 35.40625 
Q 44.1875 33.984375 37.640625 27.21875 
Q 31.109375 20.453125 19.1875 8.296875 
z
" id="DejaVuSans-50"/>
      </defs>
      <use xlink:href="#DejaVuSans-50"/>
     </g>
    </g>
   </g>
   <g id="xtick_3">
    <g id="line2d_4">
     <path d="M 189.15721 217.254202 
L 187.360066 218.91252 
" style="fill:none;stroke:#000000;stroke-linecap:square;stroke-width:0.8;"/>
    </g>
    <g id="text_3">
     <!-- 4 -->
     <g transform="translate(177.91082 241.571064)scale(0.1 -0.1)">
      <defs>
       <path d="M 37.796875 64.3125 
L 12.890625 25.390625 
L 37.796875 25.390625 
z
M 35.203125 72.90625 
L 47.609375 72.90625 
L 47.609375 25.390625 
L 58.015625 25.390625 
L 58.015625 17.1875 
L 47.609375 17.1875 
L 47.609375 0 
L 37.796875 0 
L 37.796875 17.1875 
L 4.890625 17.1875 
L 4.890625 26.703125 
z
" id="DejaVuSans-52"/>
      </defs>
      <use xlink:href="#DejaVuSans-52"/>
     </g>
    </g>
   </g>
   <g id="xtick_4">
    <g id="line2d_5">
     <path d="M 216.084757 226.040048 
L 214.326462 227.737204 
" style="fill:none;stroke:#000000;stroke-linecap:square;stroke-width:0.8;"/>
    </g>
    <g id="text_4">
     <!-- 6 -->
     <g transform="translate(204.890965 250.600322)scale(0.1 -0.1)">
      <defs>
       <path d="M 33.015625 40.375 
Q 26.375 40.375 22.484375 35.828125 
Q 18.609375 31.296875 18.609375 23.390625 
Q 18.609375 15.53125 22.484375 10.953125 
Q 26.375 6.390625 33.015625 6.390625 
Q 39.65625 6.390625 43.53125 10.953125 
Q 47.40625 15.53125 47.40625 23.390625 
Q 47.40625 31.296875 43.53125 35.828125 
Q 39.65625 40.375 33.015625 40.375 
z
M 52.59375 71.296875 
L 52.59375 62.3125 
Q 48.875 64.0625 45.09375 64.984375 
Q 41.3125 65.921875 37.59375 65.921875 
Q 27.828125 65.921875 22.671875 59.328125 
Q 17.53125 52.734375 16.796875 39.40625 
Q 19.671875 43.65625 24.015625 45.921875 
Q 28.375 48.1875 33.59375 48.1875 
Q 44.578125 48.1875 50.953125 41.515625 
Q 57.328125 34.859375 57.328125 23.390625 
Q 57.328125 12.15625 50.6875 5.359375 
Q 44.046875 -1.421875 33.015625 -1.421875 
Q 20.359375 -1.421875 13.671875 8.265625 
Q 6.984375 17.96875 6.984375 36.375 
Q 6.984375 53.65625 15.1875 63.9375 
Q 23.390625 74.21875 37.203125 74.21875 
Q 40.921875 74.21875 44.703125 73.484375 
Q 48.484375 72.75 52.59375 71.296875 
z
" id="DejaVuSans-54"/>
      </defs>
      <use xlink:href="#DejaVuSans-54"/>
     </g>
    </g>
   </g>
   <g id="xtick_5">
    <g id="line2d_6">
     <path d="M 243.645962 235.032643 
L 241.928856 236.770015 
" style="fill:none;stroke:#000000;stroke-linecap:square;stroke-width:0.8;"/>
    </g>
    <g id="text_5">
     <!-- 8 -->
     <g transform="translate(232.509511 259.84323)scale(0.1 -0.1)">
      <defs>
       <path d="M 31.78125 34.625 
Q 24.75 34.625 20.71875 30.859375 
Q 16.703125 27.09375 16.703125 20.515625 
Q 16.703125 13.921875 20.71875 10.15625 
Q 24.75 6.390625 31.78125 6.390625 
Q 38.8125 6.390625 42.859375 10.171875 
Q 46.921875 13.96875 46.921875 20.515625 
Q 46.921875 27.09375 42.890625 30.859375 
Q 38.875 34.625 31.78125 34.625 
z
M 21.921875 38.8125 
Q 15.578125 40.375 12.03125 44.71875 
Q 8.5 49.078125 8.5 55.328125 
Q 8.5 64.0625 14.71875 69.140625 
Q 20.953125 74.21875 31.78125 74.21875 
Q 42.671875 74.21875 48.875 69.140625 
Q 55.078125 64.0625 55.078125 55.328125 
Q 55.078125 49.078125 51.53125 44.71875 
Q 48 40.375 41.703125 38.8125 
Q 48.828125 37.15625 52.796875 32.3125 
Q 56.78125 27.484375 56.78125 20.515625 
Q 56.78125 9.90625 50.3125 4.234375 
Q 43.84375 -1.421875 31.78125 -1.421875 
Q 19.734375 -1.421875 13.25 4.234375 
Q 6.78125 9.90625 6.78125 20.515625 
Q 6.78125 27.484375 10.78125 32.3125 
Q 14.796875 37.15625 21.921875 38.8125 
z
M 18.3125 54.390625 
Q 18.3125 48.734375 21.84375 45.5625 
Q 25.390625 42.390625 31.78125 42.390625 
Q 38.140625 42.390625 41.71875 45.5625 
Q 45.3125 48.734375 45.3125 54.390625 
Q 45.3125 60.0625 41.71875 63.234375 
Q 38.140625 66.40625 31.78125 66.40625 
Q 25.390625 66.40625 21.84375 63.234375 
Q 18.3125 60.0625 18.3125 54.390625 
z
" id="DejaVuSans-56"/>
      </defs>
      <use xlink:href="#DejaVuSans-56"/>
     </g>
    </g>
   </g>
  </g>
  <g id="axis3d_2">
   <g id="line2d_7">
    <path d="M 316.12668 171.68791 
L 251.239879 238.27773 
" style="fill:none;stroke:#000000;stroke-linecap:square;stroke-width:0.8;"/>
   </g>
   <g id="Line3DCollection_2">
    <path d="M 129.866948 102.505071 
L 134.046245 194.238731 
L 255.729543 233.67023 
" style="fill:none;stroke:#b0b0b0;stroke-width:0.8;"/>
    <path d="M 147.250212 89.819556 
L 150.59591 180.366474 
L 270.72626 218.279909 
" style="fill:none;stroke:#b0b0b0;stroke-width:0.8;"/>
    <path d="M 163.958537 77.626582 
L 166.530371 167.009893 
L 285.136664 203.491289 
" style="fill:none;stroke:#b0b0b0;stroke-width:0.8;"/>
    <path d="M 180.030483 65.898008 
L 181.883306 154.140758 
L 298.994481 189.269761 
" style="fill:none;stroke:#b0b0b0;stroke-width:0.8;"/>
    <path d="M 195.501727 54.607799 
L 196.68598 141.732864 
L 312.330896 175.583317 
" style="fill:none;stroke:#b0b0b0;stroke-width:0.8;"/>
   </g>
   <g id="xtick_6">
    <g id="line2d_8">
     <path d="M 254.704115 233.337939 
L 257.783053 234.33567 
" style="fill:none;stroke:#000000;stroke-linecap:square;stroke-width:0.8;"/>
    </g>
    <g id="text_6">
     <!-- 0 -->
     <g transform="translate(265.430654 254.693759)scale(0.1 -0.1)">
      <use xlink:href="#DejaVuSans-48"/>
     </g>
    </g>
   </g>
   <g id="xtick_7">
    <g id="line2d_9">
     <path d="M 269.71494 217.960734 
L 272.751463 218.919068 
" style="fill:none;stroke:#000000;stroke-linecap:square;stroke-width:0.8;"/>
    </g>
    <g id="text_7">
     <!-- 2 -->
     <g transform="translate(280.181112 239.024526)scale(0.1 -0.1)">
      <use xlink:href="#DejaVuSans-50"/>
     </g>
    </g>
   </g>
   <g id="xtick_8">
    <g id="line2d_10">
     <path d="M 284.139145 203.184468 
L 287.134182 204.105694 
" style="fill:none;stroke:#000000;stroke-linecap:square;stroke-width:0.8;"/>
    </g>
    <g id="text_8">
     <!-- 4 -->
     <g transform="translate(294.35448 223.968328)scale(0.1 -0.1)">
      <use xlink:href="#DejaVuSans-52"/>
     </g>
    </g>
   </g>
   <g id="xtick_9">
    <g id="line2d_11">
     <path d="M 298.010457 188.97459 
L 300.964927 189.860821 
" style="fill:none;stroke:#000000;stroke-linecap:square;stroke-width:0.8;"/>
    </g>
    <g id="text_9">
     <!-- 6 -->
     <g transform="translate(307.983974 209.489882)scale(0.1 -0.1)">
      <use xlink:href="#DejaVuSans-54"/>
     </g>
    </g>
   </g>
   <g id="xtick_10">
    <g id="line2d_12">
     <path d="M 311.360068 175.299146 
L 314.274875 176.15234 
" style="fill:none;stroke:#000000;stroke-linecap:square;stroke-width:0.8;"/>
    </g>
    <g id="text_10">
     <!-- 8 -->
     <g transform="translate(321.10031 195.556556)scale(0.1 -0.1)">
      <use xlink:href="#DejaVuSans-56"/>
     </g>
    </g>
   </g>
  </g>
  <g id="axis3d_3">
   <g id="line2d_13">
    <path d="M 316.12668 171.68791 
L 320.238571 81.894718 
" style="fill:none;stroke:#000000;stroke-linecap:square;stroke-width:0.8;"/>
   </g>
   <g id="Line3DCollection_3">
    <path d="M 316.205459 169.967571 
L 200.884845 136.530725 
L 129.013401 196.624949 
" style="fill:none;stroke:#b0b0b0;stroke-width:0.8;"/>
    <path d="M 316.769713 157.645723 
L 200.747633 124.598411 
L 128.40573 184.006281 
" style="fill:none;stroke:#b0b0b0;stroke-width:0.8;"/>
    <path d="M 317.34094 145.171576 
L 200.608806 112.525658 
L 127.790263 171.225699 
" style="fill:none;stroke:#b0b0b0;stroke-width:0.8;"/>
    <path d="M 317.919272 132.54229 
L 200.468336 100.309973 
L 127.166847 158.280068 
" style="fill:none;stroke:#b0b0b0;stroke-width:0.8;"/>
    <path d="M 318.504841 119.754952 
L 200.326192 87.948801 
L 126.535328 145.166169 
" style="fill:none;stroke:#b0b0b0;stroke-width:0.8;"/>
    <path d="M 319.097785 106.806576 
L 200.182345 75.439529 
L 125.895547 131.880701 
" style="fill:none;stroke:#b0b0b0;stroke-width:0.8;"/>
    <path d="M 319.698243 93.694101 
L 200.036765 62.779478 
L 125.247341 118.420273 
" style="fill:none;stroke:#b0b0b0;stroke-width:0.8;"/>
   </g>
   <g id="xtick_11">
    <g id="line2d_14">
     <path d="M 315.237563 169.686933 
L 318.143556 170.529516 
" style="fill:none;stroke:#000000;stroke-linecap:square;stroke-width:0.8;"/>
    </g>
    <g id="text_11">
     <!-- 0 -->
     <g transform="translate(331.275915 174.966846)scale(0.1 -0.1)">
      <use xlink:href="#DejaVuSans-48"/>
     </g>
    </g>
   </g>
   <g id="xtick_12">
    <g id="line2d_15">
     <path d="M 315.795649 157.368274 
L 318.720173 158.201285 
" style="fill:none;stroke:#000000;stroke-linecap:square;stroke-width:0.8;"/>
    </g>
    <g id="text_12">
     <!-- 5000 -->
     <g transform="translate(322.406024 162.674591)scale(0.1 -0.1)">
      <defs>
       <path d="M 10.796875 72.90625 
L 49.515625 72.90625 
L 49.515625 64.59375 
L 19.828125 64.59375 
L 19.828125 46.734375 
Q 21.96875 47.46875 24.109375 47.828125 
Q 26.265625 48.1875 28.421875 48.1875 
Q 40.625 48.1875 47.75 41.5 
Q 54.890625 34.8125 54.890625 23.390625 
Q 54.890625 11.625 47.5625 5.09375 
Q 40.234375 -1.421875 26.90625 -1.421875 
Q 22.3125 -1.421875 17.546875 -0.640625 
Q 12.796875 0.140625 7.71875 1.703125 
L 7.71875 11.625 
Q 12.109375 9.234375 16.796875 8.0625 
Q 21.484375 6.890625 26.703125 6.890625 
Q 35.15625 6.890625 40.078125 11.328125 
Q 45.015625 15.765625 45.015625 23.390625 
Q 45.015625 31 40.078125 35.4375 
Q 35.15625 39.890625 26.703125 39.890625 
Q 22.75 39.890625 18.8125 39.015625 
Q 14.890625 38.140625 10.796875 36.28125 
z
" id="DejaVuSans-53"/>
      </defs>
      <use xlink:href="#DejaVuSans-53"/>
      <use x="63.623047" xlink:href="#DejaVuSans-48"/>
      <use x="127.246094" xlink:href="#DejaVuSans-48"/>
      <use x="190.869141" xlink:href="#DejaVuSans-48"/>
     </g>
    </g>
   </g>
   <g id="xtick_13">
    <g id="line2d_16">
     <path d="M 316.36063 144.897418 
L 319.303923 145.720555 
" style="fill:none;stroke:#000000;stroke-linecap:square;stroke-width:0.8;"/>
    </g>
    <g id="text_13">
     <!-- 10000 -->
     <g transform="translate(319.906931 150.230967)scale(0.1 -0.1)">
      <defs>
       <path d="M 12.40625 8.296875 
L 28.515625 8.296875 
L 28.515625 63.921875 
L 10.984375 60.40625 
L 10.984375 69.390625 
L 28.421875 72.90625 
L 38.28125 72.90625 
L 38.28125 8.296875 
L 54.390625 8.296875 
L 54.390625 0 
L 12.40625 0 
z
" id="DejaVuSans-49"/>
      </defs>
      <use xlink:href="#DejaVuSans-49"/>
      <use x="63.623047" xlink:href="#DejaVuSans-48"/>
      <use x="127.246094" xlink:href="#DejaVuSans-48"/>
      <use x="190.869141" xlink:href="#DejaVuSans-48"/>
      <use x="254.492188" xlink:href="#DejaVuSans-48"/>
     </g>
    </g>
   </g>
   <g id="xtick_14">
    <g id="line2d_17">
     <path d="M 316.932634 132.271525 
L 319.894939 133.084477 
" style="fill:none;stroke:#000000;stroke-linecap:square;stroke-width:0.8;"/>
    </g>
    <g id="text_14">
     <!-- 15000 -->
     <g transform="translate(320.59754 137.633162)scale(0.1 -0.1)">
      <use xlink:href="#DejaVuSans-49"/>
      <use x="63.623047" xlink:href="#DejaVuSans-53"/>
      <use x="127.246094" xlink:href="#DejaVuSans-48"/>
      <use x="190.869141" xlink:href="#DejaVuSans-48"/>
      <use x="254.492188" xlink:href="#DejaVuSans-48"/>
     </g>
    </g>
   </g>
   <g id="xtick_15">
    <g id="line2d_18">
     <path d="M 317.511795 119.487687 
L 320.493357 120.290133 
" style="fill:none;stroke:#000000;stroke-linecap:square;stroke-width:0.8;"/>
    </g>
    <g id="text_15">
     <!-- 20000 -->
     <g transform="translate(321.296759 124.878292)scale(0.1 -0.1)">
      <use xlink:href="#DejaVuSans-50"/>
      <use x="63.623047" xlink:href="#DejaVuSans-48"/>
      <use x="127.246094" xlink:href="#DejaVuSans-48"/>
      <use x="190.869141" xlink:href="#DejaVuSans-48"/>
      <use x="254.492188" xlink:href="#DejaVuSans-48"/>
     </g>
    </g>
   </g>
   <g id="xtick_16">
    <g id="line2d_19">
     <path d="M 318.098246 106.542921 
L 321.099318 107.334532 
" style="fill:none;stroke:#000000;stroke-linecap:square;stroke-width:0.8;"/>
    </g>
    <g id="text_16">
     <!-- 25000 -->
     <g transform="translate(322.004751 111.963401)scale(0.1 -0.1)">
      <use xlink:href="#DejaVuSans-50"/>
      <use x="63.623047" xlink:href="#DejaVuSans-53"/>
      <use x="127.246094" xlink:href="#DejaVuSans-48"/>
      <use x="190.869141" xlink:href="#DejaVuSans-48"/>
      <use x="254.492188" xlink:href="#DejaVuSans-48"/>
     </g>
    </g>
   </g>
   <g id="xtick_17">
    <g id="line2d_20">
     <path d="M 318.692126 93.434169 
L 321.712964 94.214605 
" style="fill:none;stroke:#000000;stroke-linecap:square;stroke-width:0.8;"/>
    </g>
    <g id="text_17">
     <!-- 30000 -->
     <g transform="translate(322.721681 98.885459)scale(0.1 -0.1)">
      <defs>
       <path d="M 40.578125 39.3125 
Q 47.65625 37.796875 51.625 33 
Q 55.609375 28.21875 55.609375 21.1875 
Q 55.609375 10.40625 48.1875 4.484375 
Q 40.765625 -1.421875 27.09375 -1.421875 
Q 22.515625 -1.421875 17.65625 -0.515625 
Q 12.796875 0.390625 7.625 2.203125 
L 7.625 11.71875 
Q 11.71875 9.328125 16.59375 8.109375 
Q 21.484375 6.890625 26.8125 6.890625 
Q 36.078125 6.890625 40.9375 10.546875 
Q 45.796875 14.203125 45.796875 21.1875 
Q 45.796875 27.640625 41.28125 31.265625 
Q 36.765625 34.90625 28.71875 34.90625 
L 20.21875 34.90625 
L 20.21875 43.015625 
L 29.109375 43.015625 
Q 36.375 43.015625 40.234375 45.921875 
Q 44.09375 48.828125 44.09375 54.296875 
Q 44.09375 59.90625 40.109375 62.90625 
Q 36.140625 65.921875 28.71875 65.921875 
Q 24.65625 65.921875 20.015625 65.03125 
Q 15.375 64.15625 9.8125 62.3125 
L 9.8125 71.09375 
Q 15.4375 72.65625 20.34375 73.4375 
Q 25.25 74.21875 29.59375 74.21875 
Q 40.828125 74.21875 47.359375 69.109375 
Q 53.90625 64.015625 53.90625 55.328125 
Q 53.90625 49.265625 50.4375 45.09375 
Q 46.96875 40.921875 40.578125 39.3125 
z
" id="DejaVuSans-51"/>
      </defs>
      <use xlink:href="#DejaVuSans-51"/>
      <use x="63.623047" xlink:href="#DejaVuSans-48"/>
      <use x="127.246094" xlink:href="#DejaVuSans-48"/>
      <use x="190.869141" xlink:href="#DejaVuSans-48"/>
      <use x="254.492188" xlink:href="#DejaVuSans-48"/>
     </g>
    </g>
   </g>
  </g>
  <g id="axes_1">
   <g id="Poly3DCollection_1">
    <path clip-path="url(#p49d1d476c4)" d="M 196.401162 148.290596 
L 203.700438 142.115361 
L 215.863902 145.66701 
L 208.637156 151.907182 
z
" style="fill:#743038;"/>
    <path clip-path="url(#p49d1d476c4)" d="M 208.637156 151.907182 
L 215.863902 145.66701 
L 228.155024 149.255935 
L 221.002748 155.562072 
z
" style="fill:#793733;"/>
    <path clip-path="url(#p49d1d476c4)" d="M 203.700438 142.115361 
L 203.224199 95.179103 
L 215.667301 98.562446 
L 215.863902 145.66701 
z
" style="fill:#5b262c;"/>
    <path clip-path="url(#p49d1d476c4)" d="M 196.401162 148.290596 
L 195.750498 101.062228 
L 203.224199 95.179103 
L 203.700438 142.115361 
z
" style="fill:#c1505c;"/>
    <path clip-path="url(#p49d1d476c4)" d="M 188.96817 154.578956 
L 196.401162 148.290596 
L 208.637156 151.907182 
L 201.27732 158.262275 
z
" style="fill:#814628;"/>
    <path clip-path="url(#p49d1d476c4)" d="M 221.002748 155.562072 
L 228.155024 149.255935 
L 240.575825 152.882725 
L 233.500008 159.25588 
z
" style="fill:#7d3e2e;"/>
    <path clip-path="url(#p49d1d476c4)" d="M 215.863902 145.66701 
L 215.653015 95.139479 
L 228.250512 98.546411 
L 228.155024 149.255935 
z
" style="fill:#5e2b28;"/>
    <path clip-path="url(#p49d1d476c4)" d="M 208.637156 151.907182 
L 215.863902 145.66701 
L 215.667301 98.562446 
L 208.2695 104.508881 
z
" style="fill:#5b262c;"/>
    <path clip-path="url(#p49d1d476c4)" d="M 201.27732 158.262275 
L 208.637156 151.907182 
L 221.002748 155.562072 
L 213.718049 161.984967 
z
" style="fill:#875a1c;"/>
    <path clip-path="url(#p49d1d476c4)" d="M 208.637156 151.907182 
L 208.242777 101.063787 
L 215.653015 95.139479 
L 215.863902 145.66701 
z
" style="fill:#c85a55;"/>
    <path clip-path="url(#p49d1d476c4)" d="M 233.500008 159.25588 
L 240.575825 152.882725 
L 253.128369 156.547983 
L 246.131049 162.989229 
z
" style="fill:#7d3e2e;"/>
    <path clip-path="url(#p49d1d476c4)" d="M 196.401162 148.290596 
L 208.637156 151.907182 
L 208.2695 104.508881 
L 195.750498 101.062228 
z
" style="fill:#c1505c;"/>
    <path clip-path="url(#p49d1d476c4)" d="M 181.397755 160.983577 
L 188.96817 154.578956 
L 201.27732 158.262275 
L 193.780682 164.735494 
z
" style="fill:#824827;"/>
    <path clip-path="url(#p49d1d476c4)" d="M 196.401162 148.290596 
L 195.592468 89.591668 
L 208.180192 92.995293 
L 208.637156 151.907182 
z
" style="fill:#65371f;"/>
    <path clip-path="url(#p49d1d476c4)" d="M 228.155024 149.255935 
L 228.257734 94.711017 
L 241.015161 98.140411 
L 240.575825 152.882725 
z
" style="fill:#623124;"/>
    <path clip-path="url(#p49d1d476c4)" d="M 213.718049 161.984967 
L 221.002748 155.562072 
L 233.500008 159.25588 
L 226.292478 165.747667 
z
" style="fill:#876118;"/>
    <path clip-path="url(#p49d1d476c4)" d="M 221.002748 155.562072 
L 228.155024 149.255935 
L 228.250512 98.546411 
L 220.91851 104.534924 
z
" style="fill:#5e2b28;"/>
    <path clip-path="url(#p49d1d476c4)" d="M 188.96817 154.578956 
L 187.934663 95.510408 
L 195.592468 89.591668 
L 196.401162 148.290596 
z
" style="fill:#d67543;"/>
    <path clip-path="url(#p49d1d476c4)" d="M 246.131049 162.989229 
L 253.128369 156.547983 
L 265.814761 160.252323 
L 258.898031 166.762758 
z
" style="fill:#540d54;"/>
    <path clip-path="url(#p49d1d476c4)" d="M 221.002748 155.562072 
L 220.912137 100.674554 
L 228.257734 94.711017 
L 228.155024 149.255935 
z
" style="fill:#cf674c;"/>
    <path clip-path="url(#p49d1d476c4)" d="M 208.637156 151.907182 
L 221.002748 155.562072 
L 220.91851 104.534924 
L 208.242777 101.063787 
z
" style="fill:#c85a55;"/>
    <path clip-path="url(#p49d1d476c4)" d="M 195.750498 101.062228 
L 208.2695 104.508881 
L 215.667301 98.562446 
L 203.224199 95.179103 
z
" style="fill:#a74650;"/>
    <path clip-path="url(#p49d1d476c4)" d="M 253.128369 156.547983 
L 253.532169 128.222193 
L 266.399642 131.825621 
L 265.814761 160.252323 
z
" style="fill:#410a42;"/>
    <path clip-path="url(#p49d1d476c4)" d="M 265.814761 160.252323 
L 265.960017 153.192523 
L 278.828339 156.911783 
L 278.637155 163.996376 
z
" style="fill:#180240;"/>
    <path clip-path="url(#p49d1d476c4)" d="M 193.780682 164.735494 
L 201.27732 158.262275 
L 213.718049 161.984967 
L 206.297214 168.527892 
z
" style="fill:#866e14;"/>
    <path clip-path="url(#p49d1d476c4)" d="M 240.575825 152.882725 
L 241.012155 98.514898 
L 253.906222 101.983067 
L 253.128369 156.547983 
z
" style="fill:#623024;"/>
    <path clip-path="url(#p49d1d476c4)" d="M 226.292478 165.747667 
L 233.500008 159.25588 
L 246.131049 162.989229 
L 239.002775 169.551023 
z
" style="fill:#876218;"/>
    <path clip-path="url(#p49d1d476c4)" d="M 246.131049 162.989229 
L 246.43958 134.488314 
L 253.532169 128.222193 
L 253.128369 156.547983 
z
" style="fill:#8b158b;"/>
    <path clip-path="url(#p49d1d476c4)" d="M 258.898031 166.762758 
L 259.020196 159.659937 
L 265.960017 153.192523 
L 265.814761 160.252323 
z
" style="fill:#320488;"/>
    <path clip-path="url(#p49d1d476c4)" d="M 201.27732 158.262275 
L 208.637156 151.907182 
L 208.180192 92.995293 
L 200.599795 98.978686 
z
" style="fill:#65371f;"/>
    <path clip-path="url(#p49d1d476c4)" d="M 208.637156 151.907182 
L 208.111114 84.089793 
L 220.890382 87.496562 
L 221.002748 155.562072 
z
" style="fill:#694716;"/>
    <path clip-path="url(#p49d1d476c4)" d="M 258.898031 166.762758 
L 265.814761 160.252323 
L 278.637155 163.996376 
L 271.803162 170.57712 
z
" style="fill:#1e0252;"/>
    <path clip-path="url(#p49d1d476c4)" d="M 233.500008 159.25588 
L 233.748529 104.545989 
L 241.012155 98.514898 
L 240.575825 152.882725 
z
" style="fill:#cf664c;"/>
    <path clip-path="url(#p49d1d476c4)" d="M 233.500008 159.25588 
L 240.575825 152.882725 
L 241.015161 98.140411 
L 233.750241 104.169051 
z
" style="fill:#623124;"/>
    <path clip-path="url(#p49d1d476c4)" d="M 173.686069 167.507715 
L 181.397755 160.983577 
L 193.780682 164.735494 
L 186.143392 171.330164 
z
" style="fill:#631b49;"/>
    <path clip-path="url(#p49d1d476c4)" d="M 278.637155 163.996376 
L 278.680028 162.407639 
L 291.651142 166.186481 
L 291.597749 167.780781 
z
" style="fill:#09033a;"/>
    <path clip-path="url(#p49d1d476c4)" d="M 188.96817 154.578956 
L 201.27732 158.262275 
L 200.599795 98.978686 
L 187.934663 95.510408 
z
" style="fill:#d67543;"/>
    <path clip-path="url(#p49d1d476c4)" d="M 188.96817 154.578956 
L 187.925639 94.994659 
L 200.593878 98.460977 
L 201.27732 158.262275 
z
" style="fill:#65381f;"/>
    <path clip-path="url(#p49d1d476c4)" d="M 201.27732 158.262275 
L 200.497344 90.014231 
L 208.111114 84.089793 
L 208.637156 151.907182 
z
" style="fill:#df962e;"/>
    <path clip-path="url(#p49d1d476c4)" d="M 221.002748 155.562072 
L 233.500008 159.25588 
L 233.750241 104.169051 
L 220.912137 100.674554 
z
" style="fill:#cf674c;"/>
    <path clip-path="url(#p49d1d476c4)" d="M 206.297214 168.527892 
L 213.718049 161.984967 
L 226.292478 165.747667 
L 218.949524 172.361429 
z
" style="fill:#857513;"/>
    <path clip-path="url(#p49d1d476c4)" d="M 271.803162 170.57712 
L 271.840991 168.978728 
L 278.680028 162.407639 
L 278.637155 163.996376 
z
" style="fill:#13067a;"/>
    <path clip-path="url(#p49d1d476c4)" d="M 208.242777 101.063787 
L 220.91851 104.534924 
L 228.250512 98.546411 
L 215.653015 95.139479 
z
" style="fill:#ad4f4a;"/>
    <path clip-path="url(#p49d1d476c4)" d="M 259.020196 159.659937 
L 271.971856 163.44929 
L 278.828339 156.911783 
L 265.960017 153.192523 
z
" style="fill:#2b0376;"/>
    <path clip-path="url(#p49d1d476c4)" d="M 181.397755 160.983577 
L 180.120039 101.022654 
L 187.925639 94.994659 
L 188.96817 154.578956 
z
" style="fill:#d77741;"/>
    <path clip-path="url(#p49d1d476c4)" d="M 239.002775 169.551023 
L 246.131049 162.989229 
L 258.898031 166.762758 
L 251.851153 173.395697 
z
" style="fill:#804529;"/>
    <path clip-path="url(#p49d1d476c4)" d="M 258.898031 166.762758 
L 265.814761 160.252323 
L 266.399642 131.825621 
L 259.389983 138.160006 
z
" style="fill:#410a42;"/>
    <path clip-path="url(#p49d1d476c4)" d="M 271.803162 170.57712 
L 278.637155 163.996376 
L 278.828339 156.911783 
L 271.971856 163.44929 
z
" style="fill:#180240;"/>
    <path clip-path="url(#p49d1d476c4)" d="M 181.397755 160.983577 
L 180.624784 124.709427 
L 193.22761 128.331089 
L 193.780682 164.735494 
z
" style="fill:#4d1539;"/>
    <path clip-path="url(#p49d1d476c4)" d="M 271.803162 170.57712 
L 278.637155 163.996376 
L 291.597749 167.780781 
L 284.848695 174.43298 
z
" style="fill:#0c044a;"/>
    <path clip-path="url(#p49d1d476c4)" d="M 246.131049 162.989229 
L 253.128369 156.547983 
L 253.906222 101.983067 
L 246.725455 108.080349 
z
" style="fill:#623024;"/>
    <path clip-path="url(#p49d1d476c4)" d="M 221.002748 155.562072 
L 220.885451 84.509739 
L 233.823951 87.9425 
L 233.500008 159.25588 
z
" style="fill:#6a4c13;"/>
    <path clip-path="url(#p49d1d476c4)" d="M 271.840991 168.978728 
L 284.897184 172.828977 
L 291.651142 166.186481 
L 278.680028 162.407639 
z
" style="fill:#11056a;"/>
    <path clip-path="url(#p49d1d476c4)" d="M 291.597749 167.780781 
L 291.613407 167.31324 
L 304.717599 171.137017 
L 304.698789 171.606197 
z
" style="fill:#050338;"/>
    <path clip-path="url(#p49d1d476c4)" d="M 246.131049 162.989229 
L 258.898031 166.762758 
L 259.389983 138.160006 
L 246.43958 134.488314 
z
" style="fill:#8b158b;"/>
    <path clip-path="url(#p49d1d476c4)" d="M 258.898031 166.762758 
L 271.803162 170.57712 
L 271.971856 163.44929 
L 259.020196 159.659937 
z
" style="fill:#320488;"/>
    <path clip-path="url(#p49d1d476c4)" d="M 186.143392 171.330164 
L 193.780682 164.735494 
L 206.297214 168.527892 
L 198.736391 175.194243 
z
" style="fill:#876517;"/>
    <path clip-path="url(#p49d1d476c4)" d="M 213.718049 161.984967 
L 221.002748 155.562072 
L 220.890382 87.496562 
L 213.356861 93.486352 
z
" style="fill:#694716;"/>
    <path clip-path="url(#p49d1d476c4)" d="M 173.686069 167.507715 
L 172.765618 131.007517 
L 180.624784 124.709427 
L 181.397755 160.983577 
z
" style="fill:#a42d79;"/>
    <path clip-path="url(#p49d1d476c4)" d="M 233.500008 159.25588 
L 246.131049 162.989229 
L 246.725455 108.080349 
L 233.748529 104.545989 
z
" style="fill:#cf664c;"/>
    <path clip-path="url(#p49d1d476c4)" d="M 218.949524 172.361429 
L 226.292478 165.747667 
L 239.002775 169.551023 
L 231.739835 176.23678 
z
" style="fill:#866f14;"/>
    <path clip-path="url(#p49d1d476c4)" d="M 213.718049 161.984967 
L 213.341006 90.479545 
L 220.885451 84.509739 
L 221.002748 155.562072 
z
" style="fill:#e0a128;"/>
    <path clip-path="url(#p49d1d476c4)" d="M 284.848695 174.43298 
L 284.862915 173.962596 
L 291.613407 167.31324 
L 291.597749 167.780781 
z
" style="fill:#0b0777;"/>
    <path clip-path="url(#p49d1d476c4)" d="M 284.848695 174.43298 
L 291.597749 167.780781 
L 291.651142 166.186481 
L 284.897184 172.828977 
z
" style="fill:#09033a;"/>
    <path clip-path="url(#p49d1d476c4)" d="M 246.43958 134.488314 
L 259.389983 138.160006 
L 266.399642 131.825621 
L 253.532169 128.222193 
z
" style="fill:#781279;"/>
    <path clip-path="url(#p49d1d476c4)" d="M 193.780682 164.735494 
L 201.27732 158.262275 
L 200.593878 98.460977 
L 192.8664 104.555464 
z
" style="fill:#65381f;"/>
    <path clip-path="url(#p49d1d476c4)" d="M 201.27732 158.262275 
L 213.718049 161.984967 
L 213.356861 93.486352 
L 200.497344 90.014231 
z
" style="fill:#df962e;"/>
    <path clip-path="url(#p49d1d476c4)" d="M 251.851153 173.395697 
L 258.898031 166.762758 
L 271.803162 170.57712 
L 264.839875 177.282368 
z
" style="fill:#440259;"/>
    <path clip-path="url(#p49d1d476c4)" d="M 173.686069 167.507715 
L 173.294483 151.979504 
L 185.846501 155.746908 
L 186.143392 171.330164 
z
" style="fill:#290046;"/>
    <path clip-path="url(#p49d1d476c4)" d="M 258.898031 166.762758 
L 259.273041 144.959164 
L 272.321023 148.69589 
L 271.803162 170.57712 
z
" style="fill:#350146;"/>
    <path clip-path="url(#p49d1d476c4)" d="M 165.82912 174.154745 
L 173.686069 167.507715 
L 186.143392 171.330164 
L 178.361455 178.049733 
z
" style="fill:#350059;"/>
    <path clip-path="url(#p49d1d476c4)" d="M 271.803162 170.57712 
L 284.848695 174.43298 
L 284.897184 172.828977 
L 271.840991 168.978728 
z
" style="fill:#13067a;"/>
    <path clip-path="url(#p49d1d476c4)" d="M 220.912137 100.674554 
L 233.750241 104.169051 
L 241.015161 98.140411 
L 228.257734 94.711017 
z
" style="fill:#b45a42;"/>
    <path clip-path="url(#p49d1d476c4)" d="M 284.848695 174.43298 
L 291.597749 167.780781 
L 304.698789 171.606197 
L 298.036935 178.33102 
z
" style="fill:#070448;"/>
    <path clip-path="url(#p49d1d476c4)" d="M 271.803162 170.57712 
L 271.884517 167.139637 
L 284.952975 170.98341 
L 284.848695 174.43298 
z
" style="fill:#0f023c;"/>
    <path clip-path="url(#p49d1d476c4)" d="M 284.862915 173.962596 
L 298.054348 177.858984 
L 304.717599 171.137017 
L 291.613407 167.31324 
z
" style="fill:#0a0667;"/>
    <path clip-path="url(#p49d1d476c4)" d="M 181.397755 160.983577 
L 193.780682 164.735494 
L 192.8664 104.555464 
L 180.120039 101.022654 
z
" style="fill:#d77741;"/>
    <path clip-path="url(#p49d1d476c4)" d="M 201.27732 158.262275 
L 200.402501 81.715455 
L 213.312932 85.155418 
L 213.718049 161.984967 
z
" style="fill:#69560f;"/>
    <path clip-path="url(#p49d1d476c4)" d="M 187.934663 95.510408 
L 200.599795 98.978686 
L 208.180192 92.995293 
L 195.592468 89.591668 
z
" style="fill:#ba653a;"/>
    <path clip-path="url(#p49d1d476c4)" d="M 165.82912 174.154745 
L 165.3725 158.531018 
L 173.294483 151.979504 
L 173.686069 167.507715 
z
" style="fill:#570093;"/>
    <path clip-path="url(#p49d1d476c4)" d="M 233.500008 159.25588 
L 233.826371 87.409687 
L 246.911671 90.878439 
L 246.131049 162.989229 
z
" style="fill:#6a4d13;"/>
    <path clip-path="url(#p49d1d476c4)" d="M 198.736391 175.194243 
L 206.297214 168.527892 
L 218.949524 172.361429 
L 211.467294 179.100638 
z
" style="fill:#808512;"/>
    <path clip-path="url(#p49d1d476c4)" d="M 251.851153 173.395697 
L 252.152536 151.457381 
L 259.273041 144.959164 
L 258.898031 166.762758 
z
" style="fill:#710394;"/>
    <path clip-path="url(#p49d1d476c4)" d="M 186.143392 171.330164 
L 193.780682 164.735494 
L 193.22761 128.331089 
L 185.445487 134.698509 
z
" style="fill:#4d1539;"/>
    <path clip-path="url(#p49d1d476c4)" d="M 264.839875 177.282368 
L 264.909952 173.823912 
L 271.884517 167.139637 
L 271.803162 170.57712 
z
" style="fill:#200580;"/>
    <path clip-path="url(#p49d1d476c4)" d="M 231.739835 176.23678 
L 239.002775 169.551023 
L 251.851153 173.395697 
L 244.670417 180.154631 
z
" style="fill:#867113;"/>
    <path clip-path="url(#p49d1d476c4)" d="M 193.780682 164.735494 
L 192.610293 87.697946 
L 200.402501 81.715455 
L 201.27732 158.262275 
z
" style="fill:#dfb621;"/>
    <path clip-path="url(#p49d1d476c4)" d="M 226.292478 165.747667 
L 233.500008 159.25588 
L 233.823951 87.9425 
L 226.362238 93.97862 
z
" style="fill:#6a4c13;"/>
    <path clip-path="url(#p49d1d476c4)" d="M 226.292478 165.747667 
L 226.36276 93.442225 
L 233.826371 87.409687 
L 233.500008 159.25588 
z
" style="fill:#e0a327;"/>
    <path clip-path="url(#p49d1d476c4)" d="M 298.036935 178.33102 
L 304.698789 171.606197 
L 304.717599 171.137017 
L 298.054348 177.858984 
z
" style="fill:#050338;"/>
    <path clip-path="url(#p49d1d476c4)" d="M 246.131049 162.989229 
L 246.768544 104.099962 
L 259.914596 107.65827 
L 258.898031 166.762758 
z
" style="fill:#643620;"/>
    <path clip-path="url(#p49d1d476c4)" d="M 173.686069 167.507715 
L 186.143392 171.330164 
L 185.445487 134.698509 
L 172.765618 131.007517 
z
" style="fill:#a42d79;"/>
    <path clip-path="url(#p49d1d476c4)" d="M 264.839875 177.282368 
L 271.803162 170.57712 
L 284.848695 174.43298 
L 277.971253 181.211726 
z
" style="fill:#13034d;"/>
    <path clip-path="url(#p49d1d476c4)" d="M 213.718049 161.984967 
L 226.292478 165.747667 
L 226.362238 93.97862 
L 213.341006 90.479545 
z
" style="fill:#e0a128;"/>
    <path clip-path="url(#p49d1d476c4)" d="M 284.848695 174.43298 
L 298.036935 178.33102 
L 298.054348 177.858984 
L 284.862915 173.962596 
z
" style="fill:#0b0777;"/>
    <path clip-path="url(#p49d1d476c4)" d="M 284.848695 174.43298 
L 284.867962 173.795644 
L 298.060529 177.691445 
L 298.036935 178.33102 
z
" style="fill:#050338;"/>
    <path clip-path="url(#p49d1d476c4)" d="M 239.002775 169.551023 
L 239.435881 110.288226 
L 246.768544 104.099962 
L 246.131049 162.989229 
z
" style="fill:#d57244;"/>
    <path clip-path="url(#p49d1d476c4)" d="M 178.361455 178.049733 
L 186.143392 171.330164 
L 198.736391 175.194243 
L 191.031582 181.987547 
z
" style="fill:#753137;"/>
    <path clip-path="url(#p49d1d476c4)" d="M 233.748529 104.545989 
L 246.725455 108.080349 
L 253.906222 101.983067 
L 241.012155 98.514898 
z
" style="fill:#b35942;"/>
    <path clip-path="url(#p49d1d476c4)" d="M 264.909952 173.823912 
L 278.064561 177.741081 
L 284.952975 170.98341 
L 271.884517 167.139637 
z
" style="fill:#1b046f;"/>
    <path clip-path="url(#p49d1d476c4)" d="M 165.82912 174.154745 
L 165.62045 167.014857 
L 178.196581 170.884636 
L 178.361455 178.049733 
z
" style="fill:#180240;"/>
    <path clip-path="url(#p49d1d476c4)" d="M 178.361455 178.049733 
L 186.143392 171.330164 
L 185.846501 155.746908 
L 178.000664 162.37048 
z
" style="fill:#290046;"/>
    <path clip-path="url(#p49d1d476c4)" d="M 211.467294 179.100638 
L 218.949524 172.361429 
L 231.739835 176.23678 
L 224.338378 183.050047 
z
" style="fill:#808512;"/>
    <path clip-path="url(#p49d1d476c4)" d="M 213.718049 161.984967 
L 213.299584 82.62395 
L 226.369904 86.092394 
L 226.292478 165.747667 
z
" style="fill:#685c0f;"/>
    <path clip-path="url(#p49d1d476c4)" d="M 264.839875 177.282368 
L 271.803162 170.57712 
L 272.321023 148.69589 
L 265.28599 155.265725 
z
" style="fill:#350146;"/>
    <path clip-path="url(#p49d1d476c4)" d="M 277.971253 181.211726 
L 277.988492 180.570504 
L 284.867962 173.795644 
L 284.848695 174.43298 
z
" style="fill:#0b0777;"/>
    <path clip-path="url(#p49d1d476c4)" d="M 165.3725 158.531018 
L 178.000664 162.37048 
L 185.846501 155.746908 
L 173.294483 151.979504 
z
" style="fill:#4c0080;"/>
    <path clip-path="url(#p49d1d476c4)" d="M 277.971253 181.211726 
L 284.848695 174.43298 
L 284.952975 170.98341 
L 278.064561 177.741081 
z
" style="fill:#0f023c;"/>
    <path clip-path="url(#p49d1d476c4)" d="M 244.670417 180.154631 
L 251.851153 173.395697 
L 264.839875 177.282368 
L 257.743589 184.115686 
z
" style="fill:#7a3932;"/>
    <path clip-path="url(#p49d1d476c4)" d="M 206.297214 168.527892 
L 213.718049 161.984967 
L 213.312932 85.155418 
L 205.602349 91.204807 
z
" style="fill:#69560f;"/>
    <path clip-path="url(#p49d1d476c4)" d="M 157.822766 180.928173 
L 157.583278 173.744543 
L 165.62045 167.014857 
L 165.82912 174.154745 
z
" style="fill:#320488;"/>
    <path clip-path="url(#p49d1d476c4)" d="M 165.82912 174.154745 
L 178.361455 178.049733 
L 178.000664 162.37048 
L 165.3725 158.531018 
z
" style="fill:#570093;"/>
    <path clip-path="url(#p49d1d476c4)" d="M 172.765618 131.007517 
L 185.445487 134.698509 
L 193.22761 128.331089 
L 180.624784 124.709427 
z
" style="fill:#8e2769;"/>
    <path clip-path="url(#p49d1d476c4)" d="M 239.002775 169.551023 
L 246.131049 162.989229 
L 246.911671 90.878439 
L 239.533152 96.978379 
z
" style="fill:#6a4d13;"/>
    <path clip-path="url(#p49d1d476c4)" d="M 206.297214 168.527892 
L 205.579445 88.65614 
L 213.299584 82.62395 
L 213.718049 161.984967 
z
" style="fill:#dcc220;"/>
    <path clip-path="url(#p49d1d476c4)" d="M 251.851153 173.395697 
L 264.839875 177.282368 
L 265.28599 155.265725 
L 252.152536 151.457381 
z
" style="fill:#710394;"/>
    <path clip-path="url(#p49d1d476c4)" d="M 193.780682 164.735494 
L 192.668117 91.504036 
L 205.636686 95.025755 
L 206.297214 168.527892 
z
" style="fill:#6a4f12;"/>
    <path clip-path="url(#p49d1d476c4)" d="M 157.822766 180.928173 
L 165.82912 174.154745 
L 178.361455 178.049733 
L 170.430723 184.897786 
z
" style="fill:#1e0252;"/>
    <path clip-path="url(#p49d1d476c4)" d="M 252.152536 151.457381 
L 265.28599 155.265725 
L 272.321023 148.69589 
L 259.273041 144.959164 
z
" style="fill:#620380;"/>
    <path clip-path="url(#p49d1d476c4)" d="M 277.971253 181.211726 
L 284.848695 174.43298 
L 298.036935 178.33102 
L 291.24765 185.184478 
z
" style="fill:#070448;"/>
    <path clip-path="url(#p49d1d476c4)" d="M 264.839875 177.282368 
L 277.971253 181.211726 
L 278.064561 177.741081 
L 264.909952 173.823912 
z
" style="fill:#200580;"/>
    <path clip-path="url(#p49d1d476c4)" d="M 277.988492 180.570504 
L 291.269276 184.540999 
L 298.060529 177.691445 
L 284.867962 173.795644 
z
" style="fill:#0a0667;"/>
    <path clip-path="url(#p49d1d476c4)" d="M 193.780682 164.735494 
L 206.297214 168.527892 
L 205.602349 91.204807 
L 192.610293 87.697946 
z
" style="fill:#dfb621;"/>
    <path clip-path="url(#p49d1d476c4)" d="M 180.120039 101.022654 
L 192.8664 104.555464 
L 200.593878 98.460977 
L 187.925639 94.994659 
z
" style="fill:#ba6738;"/>
    <path clip-path="url(#p49d1d476c4)" d="M 226.292478 165.747667 
L 239.002775 169.551023 
L 239.533152 96.978379 
L 226.36276 93.442225 
z
" style="fill:#e0a327;"/>
    <path clip-path="url(#p49d1d476c4)" d="M 200.497344 90.014231 
L 213.356861 93.486352 
L 220.890382 87.496562 
L 208.111114 84.089793 
z
" style="fill:#c28228;"/>
    <path clip-path="url(#p49d1d476c4)" d="M 251.851153 173.395697 
L 258.898031 166.762758 
L 259.914596 107.65827 
L 252.668275 113.915618 
z
" style="fill:#643620;"/>
    <path clip-path="url(#p49d1d476c4)" d="M 191.031582 181.987547 
L 198.736391 175.194243 
L 211.467294 179.100638 
L 203.841786 185.968896 
z
" style="fill:#847a14;"/>
    <path clip-path="url(#p49d1d476c4)" d="M 186.143392 171.330164 
L 184.739239 97.628906 
L 192.668117 91.504036 
L 193.780682 164.735494 
z
" style="fill:#e0a725;"/>
    <path clip-path="url(#p49d1d476c4)" d="M 226.292478 165.747667 
L 226.367525 88.539851 
L 239.56912 92.056868 
L 239.002775 169.551023 
z
" style="fill:#69570f;"/>
    <path clip-path="url(#p49d1d476c4)" d="M 264.839875 177.282368 
L 265.07776 165.542278 
L 278.288005 169.429991 
L 277.971253 181.211726 
z
" style="fill:#210144;"/>
    <path clip-path="url(#p49d1d476c4)" d="M 224.338378 183.050047 
L 231.739835 176.23678 
L 244.670417 180.154631 
L 237.351973 187.043183 
z
" style="fill:#818015;"/>
    <path clip-path="url(#p49d1d476c4)" d="M 291.24765 185.184478 
L 298.036935 178.33102 
L 298.060529 177.691445 
L 291.269276 184.540999 
z
" style="fill:#050338;"/>
    <path clip-path="url(#p49d1d476c4)" d="M 186.143392 171.330164 
L 185.213433 122.518421 
L 198.109565 126.20479 
L 198.736391 175.194243 
z
" style="fill:#5b262b;"/>
    <path clip-path="url(#p49d1d476c4)" d="M 239.002775 169.551023 
L 251.851153 173.395697 
L 252.668275 113.915618 
L 239.435881 110.288226 
z
" style="fill:#d57244;"/>
    <path clip-path="url(#p49d1d476c4)" d="M 157.583278 173.744543 
L 170.235553 177.688733 
L 178.196581 170.884636 
L 165.62045 167.014857 
z
" style="fill:#2b0376;"/>
    <path clip-path="url(#p49d1d476c4)" d="M 257.743589 184.115686 
L 264.839875 177.282368 
L 277.971253 181.211726 
L 270.961723 188.120663 
z
" style="fill:#2b0156;"/>
    <path clip-path="url(#p49d1d476c4)" d="M 218.949524 172.361429 
L 218.740546 94.656628 
L 226.367525 88.539851 
L 226.292478 165.747667 
z
" style="fill:#deb821;"/>
    <path clip-path="url(#p49d1d476c4)" d="M 170.430723 184.897786 
L 178.361455 178.049733 
L 178.196581 170.884636 
L 170.235553 177.688733 
z
" style="fill:#180240;"/>
    <path clip-path="url(#p49d1d476c4)" d="M 257.743589 184.115686 
L 257.941679 172.303334 
L 265.07776 165.542278 
L 264.839875 177.282368 
z
" style="fill:#46028f;"/>
    <path clip-path="url(#p49d1d476c4)" d="M 218.949524 172.361429 
L 226.292478 165.747667 
L 226.369904 86.092394 
L 218.733919 92.192499 
z
" style="fill:#685c0f;"/>
    <path clip-path="url(#p49d1d476c4)" d="M 277.971253 181.211726 
L 291.24765 185.184478 
L 291.269276 184.540999 
L 277.988492 180.570504 
z
" style="fill:#0b0777;"/>
    <path clip-path="url(#p49d1d476c4)" d="M 178.361455 178.049733 
L 177.231162 128.929583 
L 185.213433 122.518421 
L 186.143392 171.330164 
z
" style="fill:#c2515c;"/>
    <path clip-path="url(#p49d1d476c4)" d="M 277.971253 181.211726 
L 278.003469 180.013451 
L 291.288063 183.981983 
L 291.24765 185.184478 
z
" style="fill:#080339;"/>
    <path clip-path="url(#p49d1d476c4)" d="M 170.430723 184.897786 
L 178.361455 178.049733 
L 191.031582 181.987547 
L 183.178635 188.911464 
z
" style="fill:#41015a;"/>
    <path clip-path="url(#p49d1d476c4)" d="M 157.822766 180.928173 
L 157.705153 177.400269 
L 170.334875 181.357433 
L 170.430723 184.897786 
z
" style="fill:#0f023c;"/>
    <path clip-path="url(#p49d1d476c4)" d="M 178.361455 178.049733 
L 177.890905 157.600589 
L 190.688811 161.465353 
L 191.031582 181.987547 
z
" style="fill:#330146;"/>
    <path clip-path="url(#p49d1d476c4)" d="M 157.822766 180.928173 
L 170.430723 184.897786 
L 170.235553 177.688733 
L 157.583278 173.744543 
z
" style="fill:#320488;"/>
    <path clip-path="url(#p49d1d476c4)" d="M 203.841786 185.968896 
L 211.467294 179.100638 
L 224.338378 183.050047 
L 216.794403 189.994506 
z
" style="fill:#808413;"/>
    <path clip-path="url(#p49d1d476c4)" d="M 206.297214 168.527892 
L 218.949524 172.361429 
L 218.733919 92.192499 
L 205.579445 88.65614 
z
" style="fill:#dcc220;"/>
    <path clip-path="url(#p49d1d476c4)" d="M 251.851153 173.395697 
L 252.577888 120.495067 
L 265.915698 124.188383 
L 264.839875 177.282368 
z
" style="fill:#5f2c27;"/>
    <path clip-path="url(#p49d1d476c4)" d="M 270.961723 188.120663 
L 270.989997 186.915064 
L 278.003469 180.013451 
L 277.971253 181.211726 
z
" style="fill:#110679;"/>
    <path clip-path="url(#p49d1d476c4)" d="M 198.736391 175.194243 
L 206.297214 168.527892 
L 205.636686 95.025755 
L 197.789876 101.219657 
z
" style="fill:#6a4f12;"/>
    <path clip-path="url(#p49d1d476c4)" d="M 149.662704 187.831639 
L 149.529392 184.282135 
L 157.705153 177.400269 
L 157.822766 180.928173 
z
" style="fill:#200580;"/>
    <path clip-path="url(#p49d1d476c4)" d="M 170.430723 184.897786 
L 169.873676 164.321884 
L 177.890905 157.600589 
L 178.361455 178.049733 
z
" style="fill:#6c0295;"/>
    <path clip-path="url(#p49d1d476c4)" d="M 239.002775 169.551023 
L 239.574874 91.269504 
L 252.930563 94.82312 
L 251.851153 173.395697 
z
" style="fill:#69580f;"/>
    <path clip-path="url(#p49d1d476c4)" d="M 213.341006 90.479545 
L 226.362238 93.97862 
L 233.823951 87.9425 
L 220.885451 84.509739 
z
" style="fill:#c28c23;"/>
    <path clip-path="url(#p49d1d476c4)" d="M 237.351973 187.043183 
L 244.670417 180.154631 
L 257.743589 184.115686 
L 250.510457 191.080779 
z
" style="fill:#876a15;"/>
    <path clip-path="url(#p49d1d476c4)" d="M 206.297214 168.527892 
L 205.52368 82.450684 
L 218.717164 85.962506 
L 218.949524 172.361429 
z
" style="fill:#64680e;"/>
    <path clip-path="url(#p49d1d476c4)" d="M 244.670417 180.154631 
L 245.212713 126.918443 
L 252.577888 120.495067 
L 251.851153 173.395697 
z
" style="fill:#ca5e53;"/>
    <path clip-path="url(#p49d1d476c4)" d="M 186.143392 171.330164 
L 198.736391 175.194243 
L 197.789876 101.219657 
L 184.739239 97.628906 
z
" style="fill:#e0a725;"/>
    <path clip-path="url(#p49d1d476c4)" d="M 149.662704 187.831639 
L 157.822766 180.928173 
L 170.430723 184.897786 
L 162.346885 191.878042 
z
" style="fill:#13034d;"/>
    <path clip-path="url(#p49d1d476c4)" d="M 270.961723 188.120663 
L 277.971253 181.211726 
L 291.24765 185.184478 
L 284.327244 192.170297 
z
" style="fill:#0a0449;"/>
    <path clip-path="url(#p49d1d476c4)" d="M 231.739835 176.23678 
L 239.002775 169.551023 
L 239.56912 92.056868 
L 232.028488 98.242821 
z
" style="fill:#69570f;"/>
    <path clip-path="url(#p49d1d476c4)" d="M 270.961723 188.120663 
L 277.971253 181.211726 
L 278.288005 169.429991 
L 271.239737 176.266312 
z
" style="fill:#210144;"/>
    <path clip-path="url(#p49d1d476c4)" d="M 231.739835 176.23678 
L 232.031422 97.450087 
L 239.574874 91.269504 
L 239.002775 169.551023 
z
" style="fill:#debb20;"/>
    <path clip-path="url(#p49d1d476c4)" d="M 257.941679 172.303334 
L 271.239737 176.266312 
L 278.288005 169.429991 
L 265.07776 165.542278 
z
" style="fill:#3d027c;"/>
    <path clip-path="url(#p49d1d476c4)" d="M 270.989997 186.915064 
L 284.363827 190.960442 
L 291.288063 183.981983 
L 278.003469 180.013451 
z
" style="fill:#0f0569;"/>
    <path clip-path="url(#p49d1d476c4)" d="M 198.736391 175.194243 
L 197.627877 88.558636 
L 205.52368 82.450684 
L 206.297214 168.527892 
z
" style="fill:#d4dc1e;"/>
    <path clip-path="url(#p49d1d476c4)" d="M 191.031582 181.987547 
L 198.736391 175.194243 
L 198.109565 126.20479 
L 190.208158 132.688037 
z
" style="fill:#5b262b;"/>
    <path clip-path="url(#p49d1d476c4)" d="M 183.178635 188.911464 
L 191.031582 181.987547 
L 203.841786 185.968896 
L 196.068846 192.969946 
z
" style="fill:#7d3e2e;"/>
    <path clip-path="url(#p49d1d476c4)" d="M 149.529392 184.282135 
L 162.235599 188.315985 
L 170.334875 181.357433 
L 157.705153 177.400269 
z
" style="fill:#1b046f;"/>
    <path clip-path="url(#p49d1d476c4)" d="M 218.949524 172.361429 
L 231.739835 176.23678 
L 232.028488 98.242821 
L 218.740546 94.656628 
z
" style="fill:#deb821;"/>
    <path clip-path="url(#p49d1d476c4)" d="M 257.743589 184.115686 
L 270.961723 188.120663 
L 271.239737 176.266312 
L 257.941679 172.303334 
z
" style="fill:#46028f;"/>
    <path clip-path="url(#p49d1d476c4)" d="M 170.430723 184.897786 
L 170.227645 177.396599 
L 183.022716 181.38369 
L 183.178635 188.911464 
z
" style="fill:#180240;"/>
    <path clip-path="url(#p49d1d476c4)" d="M 216.794403 189.994506 
L 224.338378 183.050047 
L 237.351973 187.043183 
L 229.891821 194.06512 
z
" style="fill:#837b14;"/>
    <path clip-path="url(#p49d1d476c4)" d="M 178.361455 178.049733 
L 191.031582 181.987547 
L 190.208158 132.688037 
L 177.231162 128.929583 
z
" style="fill:#c2515c;"/>
    <path clip-path="url(#p49d1d476c4)" d="M 284.327244 192.170297 
L 291.24765 185.184478 
L 291.288063 183.981983 
L 284.363827 190.960442 
z
" style="fill:#080339;"/>
    <path clip-path="url(#p49d1d476c4)" d="M 239.435881 110.288226 
L 252.668275 113.915618 
L 259.914596 107.65827 
L 246.768544 104.099962 
z
" style="fill:#b9633b;"/>
    <path clip-path="url(#p49d1d476c4)" d="M 162.346885 191.878042 
L 170.430723 184.897786 
L 170.334875 181.357433 
L 162.235599 188.315985 
z
" style="fill:#0f023c;"/>
    <path clip-path="url(#p49d1d476c4)" d="M 183.178635 188.911464 
L 191.031582 181.987547 
L 190.688811 161.465353 
L 182.750931 168.26188 
z
" style="fill:#330146;"/>
    <path clip-path="url(#p49d1d476c4)" d="M 226.36276 93.442225 
L 239.533152 96.978379 
L 246.911671 90.878439 
L 233.826371 87.409687 
z
" style="fill:#c28d22;"/>
    <path clip-path="url(#p49d1d476c4)" d="M 250.510457 191.080779 
L 257.743589 184.115686 
L 270.961723 188.120663 
L 263.816264 195.163579 
z
" style="fill:#5e164d;"/>
    <path clip-path="url(#p49d1d476c4)" d="M 218.949524 172.361429 
L 218.717406 86.052512 
L 232.060458 89.604658 
L 231.739835 176.23678 
z
" style="fill:#64680e;"/>
    <path clip-path="url(#p49d1d476c4)" d="M 162.346885 191.878042 
L 162.111091 184.330724 
L 170.227645 177.396599 
L 170.430723 184.897786 
z
" style="fill:#330488;"/>
    <path clip-path="url(#p49d1d476c4)" d="M 149.662704 187.831639 
L 149.602137 186.218996 
L 162.296325 190.259704 
L 162.346885 191.878042 
z
" style="fill:#09033a;"/>
    <path clip-path="url(#p49d1d476c4)" d="M 192.610293 87.697946 
L 205.602349 91.204807 
L 213.312932 85.155418 
L 200.402501 81.715455 
z
" style="fill:#c19e1c;"/>
    <path clip-path="url(#p49d1d476c4)" d="M 257.743589 184.115686 
L 264.839875 177.282368 
L 265.915698 124.188383 
L 258.639618 130.684343 
z
" style="fill:#5f2c27;"/>
    <path clip-path="url(#p49d1d476c4)" d="M 270.961723 188.120663 
L 284.327244 192.170297 
L 284.363827 190.960442 
L 270.989997 186.915064 
z
" style="fill:#110679;"/>
    <path clip-path="url(#p49d1d476c4)" d="M 162.346885 191.878042 
L 170.430723 184.897786 
L 183.178635 188.911464 
L 175.173234 195.969799 
z
" style="fill:#1f0252;"/>
    <path clip-path="url(#p49d1d476c4)" d="M 149.662704 187.831639 
L 162.346885 191.878042 
L 162.235599 188.315985 
L 149.529392 184.282135 
z
" style="fill:#200580;"/>
    <path clip-path="url(#p49d1d476c4)" d="M 270.961723 188.120663 
L 271.022483 185.529884 
L 284.405859 189.570362 
L 284.327244 192.170297 
z
" style="fill:#0c033b;"/>
    <path clip-path="url(#p49d1d476c4)" d="M 170.430723 184.897786 
L 183.178635 188.911464 
L 182.750931 168.26188 
L 169.873676 164.321884 
z
" style="fill:#6c0295;"/>
    <path clip-path="url(#p49d1d476c4)" d="M 244.670417 180.154631 
L 251.851153 173.395697 
L 252.930563 94.82312 
L 245.475981 101.074024 
z
" style="fill:#69580f;"/>
    <path clip-path="url(#p49d1d476c4)" d="M 169.873676 164.321884 
L 182.750931 168.26188 
L 190.688811 161.465353 
L 177.890905 157.600589 
z
" style="fill:#5d0181;"/>
    <path clip-path="url(#p49d1d476c4)" d="M 211.467294 179.100638 
L 210.907402 92.230742 
L 218.717406 86.052512 
L 218.949524 172.361429 
z
" style="fill:#d4dc1e;"/>
    <path clip-path="url(#p49d1d476c4)" d="M 211.467294 179.100638 
L 218.949524 172.361429 
L 218.717164 85.962506 
L 210.906818 92.140114 
z
" style="fill:#64680e;"/>
    <path clip-path="url(#p49d1d476c4)" d="M 196.068846 192.969946 
L 203.841786 185.968896 
L 216.794403 189.994506 
L 209.103753 197.073984 
z
" style="fill:#876d14;"/>
    <path clip-path="url(#p49d1d476c4)" d="M 141.344465 194.868925 
L 141.276498 193.246401 
L 149.602137 186.218996 
L 149.662704 187.831639 
z
" style="fill:#13067a;"/>
    <path clip-path="url(#p49d1d476c4)" d="M 244.670417 180.154631 
L 257.743589 184.115686 
L 258.639618 130.684343 
L 245.212713 126.918443 
z
" style="fill:#ca5e53;"/>
    <path clip-path="url(#p49d1d476c4)" d="M 198.736391 175.194243 
L 197.685986 93.10011 
L 210.936205 96.699644 
L 211.467294 179.100638 
z
" style="fill:#675f10;"/>
    <path clip-path="url(#p49d1d476c4)" d="M 263.816264 195.163579 
L 263.868211 192.556914 
L 271.022483 185.529884 
L 270.961723 188.120663 
z
" style="fill:#1a057d;"/>
    <path clip-path="url(#p49d1d476c4)" d="M 231.739835 176.23678 
L 244.670417 180.154631 
L 245.475981 101.074024 
L 232.031422 97.450087 
z
" style="fill:#debb20;"/>
    <path clip-path="url(#p49d1d476c4)" d="M 257.743589 184.115686 
L 258.320601 149.707703 
L 271.771597 153.588168 
L 270.961723 188.120663 
z
" style="fill:#4a123c;"/>
    <path clip-path="url(#p49d1d476c4)" d="M 229.891821 194.06512 
L 237.351973 187.043183 
L 250.510457 191.080779 
L 243.136481 198.181496 
z
" style="fill:#876417;"/>
    <path clip-path="url(#p49d1d476c4)" d="M 198.736391 175.194243 
L 211.467294 179.100638 
L 210.906818 92.140114 
L 197.627877 88.558636 
z
" style="fill:#d4dc1e;"/>
    <path clip-path="url(#p49d1d476c4)" d="M 162.111091 184.330724 
L 174.985175 188.395673 
L 183.022716 181.38369 
L 170.227645 177.396599 
z
" style="fill:#2d0376;"/>
    <path clip-path="url(#p49d1d476c4)" d="M 191.031582 181.987547 
L 189.651511 99.360816 
L 197.685986 93.10011 
L 198.736391 175.194243 
z
" style="fill:#daca21;"/>
    <path clip-path="url(#p49d1d476c4)" d="M 141.344465 194.868925 
L 149.662704 187.831639 
L 162.346885 191.878042 
L 154.105465 198.994368 
z
" style="fill:#0c044a;"/>
    <path clip-path="url(#p49d1d476c4)" d="M 231.739835 176.23678 
L 232.052998 91.620135 
L 245.535604 95.220965 
L 244.670417 180.154631 
z
" style="fill:#656410;"/>
    <path clip-path="url(#p49d1d476c4)" d="M 263.816264 195.163579 
L 270.961723 188.120663 
L 284.327244 192.170297 
L 277.271882 199.292348 
z
" style="fill:#10034c;"/>
    <path clip-path="url(#p49d1d476c4)" d="M 175.173234 195.969799 
L 183.178635 188.911464 
L 183.022716 181.38369 
L 174.985175 188.395673 
z
" style="fill:#180240;"/>
    <path clip-path="url(#p49d1d476c4)" d="M 250.510457 191.080779 
L 250.966965 156.456733 
L 258.320601 149.707703 
L 257.743589 184.115686 
z
" style="fill:#9c257f;"/>
    <path clip-path="url(#p49d1d476c4)" d="M 141.276498 193.246401 
L 154.047625 197.366104 
L 162.296325 190.259704 
L 149.602137 186.218996 
z
" style="fill:#11056a;"/>
    <path clip-path="url(#p49d1d476c4)" d="M 191.031582 181.987547 
L 190.093484 125.822345 
L 203.261211 129.597201 
L 203.841786 185.968896 
z
" style="fill:#623024;"/>
    <path clip-path="url(#p49d1d476c4)" d="M 177.231162 128.929583 
L 190.208158 132.688037 
L 198.109565 126.20479 
L 185.213433 122.518421 
z
" style="fill:#a84650;"/>
    <path clip-path="url(#p49d1d476c4)" d="M 162.346885 191.878042 
L 162.262753 189.185134 
L 175.106135 193.267363 
L 175.173234 195.969799 
z
" style="fill:#0c033b;"/>
    <path clip-path="url(#p49d1d476c4)" d="M 175.173234 195.969799 
L 183.178635 188.911464 
L 196.068846 192.969946 
L 188.144156 200.107676 
z
" style="fill:#3f015a;"/>
    <path clip-path="url(#p49d1d476c4)" d="M 183.178635 188.911464 
L 182.762206 168.806218 
L 195.78122 172.792637 
L 196.068846 192.969946 
z
" style="fill:#310046;"/>
    <path clip-path="url(#p49d1d476c4)" d="M 263.868211 192.556914 
L 277.341928 196.676453 
L 284.405859 189.570362 
L 271.022483 185.529884 
z
" style="fill:#17056d;"/>
    <path clip-path="url(#p49d1d476c4)" d="M 224.338378 183.050047 
L 224.338378 97.883167 
L 232.052998 91.620135 
L 231.739835 176.23678 
z
" style="fill:#d6d422;"/>
    <path clip-path="url(#p49d1d476c4)" d="M 205.579445 88.65614 
L 218.733919 92.192499 
L 226.369904 86.092394 
L 213.299584 82.62395 
z
" style="fill:#bfa81c;"/>
    <path clip-path="url(#p49d1d476c4)" d="M 224.338378 183.050047 
L 231.739835 176.23678 
L 232.060458 89.604658 
L 224.338378 95.853745 
z
" style="fill:#64680e;"/>
    <path clip-path="url(#p49d1d476c4)" d="M 162.346885 191.878042 
L 175.173234 195.969799 
L 174.985175 188.395673 
L 162.111091 184.330724 
z
" style="fill:#330488;"/>
    <path clip-path="url(#p49d1d476c4)" d="M 209.103753 197.073984 
L 216.794403 189.994506 
L 229.891821 194.06512 
L 222.285805 201.224351 
z
" style="fill:#876c14;"/>
    <path clip-path="url(#p49d1d476c4)" d="M 183.178635 188.911464 
L 182.007893 132.387908 
L 190.093484 125.822345 
L 191.031582 181.987547 
z
" style="fill:#cf664c;"/>
    <path clip-path="url(#p49d1d476c4)" d="M 154.105465 198.994368 
L 162.346885 191.878042 
L 162.296325 190.259704 
L 154.047625 197.366104 
z
" style="fill:#09033a;"/>
    <path clip-path="url(#p49d1d476c4)" d="M 184.739239 97.628906 
L 197.789876 101.219657 
L 205.636686 95.025755 
L 192.668117 91.504036 
z
" style="fill:#c29121;"/>
    <path clip-path="url(#p49d1d476c4)" d="M 154.105465 198.994368 
L 154.009218 196.284929 
L 162.262753 189.185134 
L 162.346885 191.878042 
z
" style="fill:#1a057d;"/>
    <path clip-path="url(#p49d1d476c4)" d="M 244.670417 180.154631 
L 245.449373 103.686059 
L 259.03073 107.361867 
L 257.743589 184.115686 
z
" style="fill:#695310;"/>
    <path clip-path="url(#p49d1d476c4)" d="M 175.173234 195.969799 
L 174.670934 175.739515 
L 182.762206 168.806218 
L 183.178635 188.911464 
z
" style="fill:#690195;"/>
    <path clip-path="url(#p49d1d476c4)" d="M 277.271882 199.292348 
L 284.327244 192.170297 
L 284.405859 189.570362 
L 277.341928 196.676453 
z
" style="fill:#0c033b;"/>
    <path clip-path="url(#p49d1d476c4)" d="M 243.136481 198.181496 
L 250.510457 191.080779 
L 263.816264 195.163579 
L 256.530882 202.34441 
z
" style="fill:#7a3931;"/>
    <path clip-path="url(#p49d1d476c4)" d="M 211.467294 179.100638 
L 210.909694 92.586456 
L 224.338378 96.21088 
L 224.338378 183.050047 
z
" style="fill:#64670f;"/>
    <path clip-path="url(#p49d1d476c4)" d="M 211.467294 179.100638 
L 224.338378 183.050047 
L 224.338378 95.853745 
L 210.907402 92.230742 
z
" style="fill:#d4dc1e;"/>
    <path clip-path="url(#p49d1d476c4)" d="M 141.344465 194.868925 
L 154.105465 198.994368 
L 154.047625 197.366104 
L 141.276498 193.246401 
z
" style="fill:#13067a;"/>
    <path clip-path="url(#p49d1d476c4)" d="M 203.841786 185.968896 
L 211.467294 179.100638 
L 210.936205 96.699644 
L 202.987617 103.0323 
z
" style="fill:#675f10;"/>
    <path clip-path="url(#p49d1d476c4)" d="M 237.351973 187.043183 
L 237.855512 110.079546 
L 245.449373 103.686059 
L 244.670417 180.154631 
z
" style="fill:#e0af22;"/>
    <path clip-path="url(#p49d1d476c4)" d="M 154.105465 198.994368 
L 162.346885 191.878042 
L 175.173234 195.969799 
L 167.010898 203.166503 
z
" style="fill:#10034c;"/>
    <path clip-path="url(#p49d1d476c4)" d="M 263.816264 195.163579 
L 277.271882 199.292348 
L 277.341928 196.676453 
L 263.868211 192.556914 
z
" style="fill:#1a057d;"/>
    <path clip-path="url(#p49d1d476c4)" d="M 245.212713 126.918443 
L 258.639618 130.684343 
L 265.915698 124.188383 
L 252.577888 120.495067 
z
" style="fill:#af5148;"/>
    <path clip-path="url(#p49d1d476c4)" d="M 263.816264 195.163579 
L 270.961723 188.120663 
L 271.771597 153.588168 
L 264.508782 160.413928 
z
" style="fill:#4a123c;"/>
    <path clip-path="url(#p49d1d476c4)" d="M 203.841786 185.968896 
L 202.944962 98.890659 
L 210.909694 92.586456 
L 211.467294 179.100638 
z
" style="fill:#d4da20;"/>
    <path clip-path="url(#p49d1d476c4)" d="M 218.740546 94.656628 
L 232.028488 98.242821 
L 239.56912 92.056868 
L 226.367525 88.539851 
z
" style="fill:#c1a01c;"/>
    <path clip-path="url(#p49d1d476c4)" d="M 154.009218 196.284929 
L 166.931891 200.44746 
L 175.106135 193.267363 
L 162.262753 189.185134 
z
" style="fill:#17056d;"/>
    <path clip-path="url(#p49d1d476c4)" d="M 188.144156 200.107676 
L 196.068846 192.969946 
L 209.103753 197.073984 
L 201.262108 204.292457 
z
" style="fill:#722d3b;"/>
    <path clip-path="url(#p49d1d476c4)" d="M 175.173234 195.969799 
L 175.060894 191.445263 
L 188.060986 195.56709 
L 188.144156 200.107676 
z
" style="fill:#11023d;"/>
    <path clip-path="url(#p49d1d476c4)" d="M 191.031582 181.987547 
L 203.841786 185.968896 
L 202.987617 103.0323 
L 189.651511 99.360816 
z
" style="fill:#daca21;"/>
    <path clip-path="url(#p49d1d476c4)" d="M 237.351973 187.043183 
L 244.670417 180.154631 
L 245.535604 95.220965 
L 237.911277 101.556171 
z
" style="fill:#656410;"/>
    <path clip-path="url(#p49d1d476c4)" d="M 250.510457 191.080779 
L 263.816264 195.163579 
L 264.508782 160.413928 
L 250.966965 156.456733 
z
" style="fill:#9c257f;"/>
    <path clip-path="url(#p49d1d476c4)" d="M 263.816264 195.163579 
L 264.063279 182.768667 
L 277.604966 186.853199 
L 277.271882 199.292348 
z
" style="fill:#230144;"/>
    <path clip-path="url(#p49d1d476c4)" d="M 222.285805 201.224351 
L 229.891821 194.06512 
L 243.136481 198.181496 
L 235.617509 205.421836 
z
" style="fill:#855320;"/>
    <path clip-path="url(#p49d1d476c4)" d="M 196.068846 192.969946 
L 203.841786 185.968896 
L 203.261211 129.597201 
L 195.260136 136.237992 
z
" style="fill:#623024;"/>
    <path clip-path="url(#p49d1d476c4)" d="M 167.010898 203.166503 
L 175.173234 195.969799 
L 175.106135 193.267363 
L 166.931891 200.44746 
z
" style="fill:#0c033b;"/>
    <path clip-path="url(#p49d1d476c4)" d="M 224.338378 183.050047 
L 224.338378 99.332407 
L 237.901757 103.011197 
L 237.351973 187.043183 
z
" style="fill:#666010;"/>
    <path clip-path="url(#p49d1d476c4)" d="M 188.144156 200.107676 
L 196.068846 192.969946 
L 195.78122 172.792637 
L 187.772269 179.804723 
z
" style="fill:#310046;"/>
    <path clip-path="url(#p49d1d476c4)" d="M 167.010898 203.166503 
L 166.87862 198.614122 
L 175.060894 191.445263 
L 175.173234 195.969799 
z
" style="fill:#250582;"/>
    <path clip-path="url(#p49d1d476c4)" d="M 224.338378 183.050047 
L 237.351973 187.043183 
L 237.911277 101.556171 
L 224.338378 97.883167 
z
" style="fill:#d6d422;"/>
    <path clip-path="url(#p49d1d476c4)" d="M 256.530882 202.34441 
L 263.816264 195.163579 
L 277.271882 199.292348 
L 270.077576 206.554656 
z
" style="fill:#2c0157;"/>
    <path clip-path="url(#p49d1d476c4)" d="M 256.530882 202.34441 
L 256.734297 189.872746 
L 264.063279 182.768667 
L 263.816264 195.163579 
z
" style="fill:#490290;"/>
    <path clip-path="url(#p49d1d476c4)" d="M 183.178635 188.911464 
L 196.068846 192.969946 
L 195.260136 136.237992 
L 182.007893 132.387908 
z
" style="fill:#cf664c;"/>
    <path clip-path="url(#p49d1d476c4)" d="M 154.105465 198.994368 
L 167.010898 203.166503 
L 166.931891 200.44746 
L 154.009218 196.284929 
z
" style="fill:#1a057d;"/>
    <path clip-path="url(#p49d1d476c4)" d="M 250.510457 191.080779 
L 257.743589 184.115686 
L 259.03073 107.361867 
L 251.528999 113.829153 
z
" style="fill:#695310;"/>
    <path clip-path="url(#p49d1d476c4)" d="M 167.010898 203.166503 
L 175.173234 195.969799 
L 188.144156 200.107676 
L 180.063228 207.386128 
z
" style="fill:#16034f;"/>
    <path clip-path="url(#p49d1d476c4)" d="M 175.173234 195.969799 
L 188.144156 200.107676 
L 187.772269 179.804723 
L 174.670934 175.739515 
z
" style="fill:#690195;"/>
    <path clip-path="url(#p49d1d476c4)" d="M 216.794403 189.994506 
L 216.474341 105.731286 
L 224.338378 99.332407 
L 224.338378 183.050047 
z
" style="fill:#d9cd22;"/>
    <path clip-path="url(#p49d1d476c4)" d="M 174.670934 175.739515 
L 187.772269 179.804723 
L 195.78122 172.792637 
L 182.762206 168.806218 
z
" style="fill:#5b0181;"/>
    <path clip-path="url(#p49d1d476c4)" d="M 250.966965 156.456733 
L 264.508782 160.413928 
L 271.771597 153.588168 
L 258.320601 149.707703 
z
" style="fill:#87206e;"/>
    <path clip-path="url(#p49d1d476c4)" d="M 203.841786 185.968896 
L 203.03603 107.733044 
L 216.496123 111.465748 
L 216.794403 189.994506 
z
" style="fill:#695510;"/>
    <path clip-path="url(#p49d1d476c4)" d="M 216.794403 189.994506 
L 224.338378 183.050047 
L 224.338378 96.21088 
L 216.462402 102.588099 
z
" style="fill:#64670f;"/>
    <path clip-path="url(#p49d1d476c4)" d="M 237.351973 187.043183 
L 237.837624 112.813609 
L 251.492808 116.574017 
L 250.510457 191.080779 
z
" style="fill:#6a4e12;"/>
    <path clip-path="url(#p49d1d476c4)" d="M 201.262108 204.292457 
L 209.103753 197.073984 
L 222.285805 201.224351 
L 214.529606 208.524945 
z
" style="fill:#793733;"/>
    <path clip-path="url(#p49d1d476c4)" d="M 232.031422 97.450087 
L 245.475981 101.074024 
L 252.930563 94.82312 
L 239.574874 91.269504 
z
" style="fill:#c1a21c;"/>
    <path clip-path="url(#p49d1d476c4)" d="M 250.510457 191.080779 
L 251.22558 136.842055 
L 264.901158 140.725082 
L 263.816264 195.163579 
z
" style="fill:#602d27;"/>
    <path clip-path="url(#p49d1d476c4)" d="M 237.351973 187.043183 
L 250.510457 191.080779 
L 251.528999 113.829153 
L 237.855512 110.079546 
z
" style="fill:#e0af22;"/>
    <path clip-path="url(#p49d1d476c4)" d="M 166.87862 198.614122 
L 179.960484 202.81757 
L 188.060986 195.56709 
L 175.060894 191.445263 
z
" style="fill:#200471;"/>
    <path clip-path="url(#p49d1d476c4)" d="M 196.068846 192.969946 
L 195.394973 145.696992 
L 208.738512 149.627737 
L 209.103753 197.073984 
z
" style="fill:#59232e;"/>
    <path clip-path="url(#p49d1d476c4)" d="M 196.068846 192.969946 
L 194.946352 114.225741 
L 203.03603 107.733044 
L 203.841786 185.968896 
z
" style="fill:#dfb521;"/>
    <path clip-path="url(#p49d1d476c4)" d="M 235.617509 205.421836 
L 243.136481 198.181496 
L 256.530882 202.34441 
L 249.101427 209.667246 
z
" style="fill:#763336;"/>
    <path clip-path="url(#p49d1d476c4)" d="M 203.841786 185.968896 
L 216.794403 189.994506 
L 216.462402 102.588099 
L 202.944962 98.890659 
z
" style="fill:#d4da20;"/>
    <path clip-path="url(#p49d1d476c4)" d="M 229.891821 194.06512 
L 230.101151 119.354483 
L 237.837624 112.813609 
L 237.351973 187.043183 
z
" style="fill:#e0a626;"/>
    <path clip-path="url(#p49d1d476c4)" d="M 188.144156 200.107676 
L 187.921399 187.946422 
L 201.119276 192.087753 
L 201.262108 204.292457 
z
" style="fill:#220144;"/>
    <path clip-path="url(#p49d1d476c4)" d="M 197.627877 88.558636 
L 210.906818 92.140114 
L 218.717164 85.962506 
L 205.52368 82.450684 
z
" style="fill:#b8bf1a;"/>
    <path clip-path="url(#p49d1d476c4)" d="M 180.063228 207.386128 
L 188.144156 200.107676 
L 188.060986 195.56709 
L 179.960484 202.81757 
z
" style="fill:#11023d;"/>
    <path clip-path="url(#p49d1d476c4)" d="M 243.136481 198.181496 
L 243.655257 143.596093 
L 251.22558 136.842055 
L 250.510457 191.080779 
z
" style="fill:#ca5f52;"/>
    <path clip-path="url(#p49d1d476c4)" d="M 270.077576 206.554656 
L 277.271882 199.292348 
L 277.604966 186.853199 
L 270.368242 194.038396 
z
" style="fill:#230144;"/>
    <path clip-path="url(#p49d1d476c4)" d="M 188.144156 200.107676 
L 187.272754 152.534007 
L 195.394973 145.696992 
L 196.068846 192.969946 
z
" style="fill:#bc4a61;"/>
    <path clip-path="url(#p49d1d476c4)" d="M 256.734297 189.872746 
L 270.368242 194.038396 
L 277.604966 186.853199 
L 264.063279 182.768667 
z
" style="fill:#40017d;"/>
    <path clip-path="url(#p49d1d476c4)" d="M 180.063228 207.386128 
L 188.144156 200.107676 
L 201.262108 204.292457 
L 193.264978 211.654059 
z
" style="fill:#2b0157;"/>
    <path clip-path="url(#p49d1d476c4)" d="M 229.891821 194.06512 
L 237.351973 187.043183 
L 237.901757 103.011197 
L 230.128805 109.484506 
z
" style="fill:#666010;"/>
    <path clip-path="url(#p49d1d476c4)" d="M 180.063228 207.386128 
L 179.788035 195.149488 
L 187.921399 187.946422 
L 188.144156 200.107676 
z
" style="fill:#480290;"/>
    <path clip-path="url(#p49d1d476c4)" d="M 167.010898 203.166503 
L 180.063228 207.386128 
L 179.960484 202.81757 
L 166.87862 198.614122 
z
" style="fill:#250582;"/>
    <path clip-path="url(#p49d1d476c4)" d="M 216.794403 189.994506 
L 216.497921 111.939066 
L 230.111342 115.717038 
L 229.891821 194.06512 
z
" style="fill:#695510;"/>
    <path clip-path="url(#p49d1d476c4)" d="M 256.530882 202.34441 
L 270.077576 206.554656 
L 270.368242 194.038396 
L 256.734297 189.872746 
z
" style="fill:#490290;"/>
    <path clip-path="url(#p49d1d476c4)" d="M 214.529606 208.524945 
L 222.285805 201.224351 
L 235.617509 205.421836 
L 227.94922 212.80596 
z
" style="fill:#743038;"/>
    <path clip-path="url(#p49d1d476c4)" d="M 216.794403 189.994506 
L 229.891821 194.06512 
L 230.128805 109.484506 
L 216.474341 105.731286 
z
" style="fill:#d9cd22;"/>
    <path clip-path="url(#p49d1d476c4)" d="M 256.530882 202.34441 
L 256.830079 184.000206 
L 270.505116 188.144546 
L 270.077576 206.554656 
z
" style="fill:#2e0046;"/>
    <path clip-path="url(#p49d1d476c4)" d="M 209.103753 197.073984 
L 208.498972 118.510659 
L 216.497921 111.939066 
L 216.794403 189.994506 
z
" style="fill:#dfb321;"/>
    <path clip-path="url(#p49d1d476c4)" d="M 182.007893 132.387908 
L 195.260136 136.237992 
L 203.261211 129.597201 
L 190.093484 125.822345 
z
" style="fill:#b35942;"/>
    <path clip-path="url(#p49d1d476c4)" d="M 209.103753 197.073984 
L 216.794403 189.994506 
L 216.496123 111.465748 
L 208.495303 118.034078 
z
" style="fill:#695510;"/>
    <path clip-path="url(#p49d1d476c4)" d="M 249.101427 209.667246 
L 256.530882 202.34441 
L 270.077576 206.554656 
L 262.740181 213.961405 
z
" style="fill:#3a005a;"/>
    <path clip-path="url(#p49d1d476c4)" d="M 243.136481 198.181496 
L 250.510457 191.080779 
L 251.492808 116.574017 
L 243.849186 123.19105 
z
" style="fill:#6a4e12;"/>
    <path clip-path="url(#p49d1d476c4)" d="M 229.891821 194.06512 
L 230.080514 126.719662 
L 243.778912 130.585226 
L 243.136481 198.181496 
z
" style="fill:#684119;"/>
    <path clip-path="url(#p49d1d476c4)" d="M 210.907402 92.230742 
L 224.338378 95.853745 
L 232.060458 89.604658 
L 218.717406 86.052512 
z
" style="fill:#b8bf1a;"/>
    <path clip-path="url(#p49d1d476c4)" d="M 256.530882 202.34441 
L 263.816264 195.163579 
L 264.901158 140.725082 
L 257.424468 147.557432 
z
" style="fill:#602d27;"/>
    <path clip-path="url(#p49d1d476c4)" d="M 209.103753 197.073984 
L 208.693449 143.773925 
L 222.230204 147.727729 
L 222.285805 201.224351 
z
" style="fill:#5f2b28;"/>
    <path clip-path="url(#p49d1d476c4)" d="M 249.101427 209.667246 
L 249.333872 191.208693 
L 256.830079 184.000206 
L 256.530882 202.34441 
z
" style="fill:#610095;"/>
    <path clip-path="url(#p49d1d476c4)" d="M 201.262108 204.292457 
L 209.103753 197.073984 
L 208.738512 149.627737 
L 200.703305 156.543962 
z
" style="fill:#59232e;"/>
    <path clip-path="url(#p49d1d476c4)" d="M 196.068846 192.969946 
L 209.103753 197.073984 
L 208.495303 118.034078 
L 194.946352 114.225741 
z
" style="fill:#dfb521;"/>
    <path clip-path="url(#p49d1d476c4)" d="M 243.136481 198.181496 
L 243.620202 147.284648 
L 257.364076 151.260147 
L 256.530882 202.34441 
z
" style="fill:#5c282a;"/>
    <path clip-path="url(#p49d1d476c4)" d="M 229.891821 194.06512 
L 243.136481 198.181496 
L 243.849186 123.19105 
L 230.101151 119.354483 
z
" style="fill:#e0a626;"/>
    <path clip-path="url(#p49d1d476c4)" d="M 193.264978 211.654059 
L 201.262108 204.292457 
L 214.529606 208.524945 
L 206.61873 215.971129 
z
" style="fill:#40015a;"/>
    <path clip-path="url(#p49d1d476c4)" d="M 222.285805 201.224351 
L 222.215358 133.443629 
L 230.080514 126.719662 
L 229.891821 194.06512 
z
" style="fill:#dd8a35;"/>
    <path clip-path="url(#p49d1d476c4)" d="M 189.651511 99.360816 
L 202.987617 103.0323 
L 210.936205 96.699644 
L 197.685986 93.10011 
z
" style="fill:#bdaf1d;"/>
    <path clip-path="url(#p49d1d476c4)" d="M 193.264978 211.654059 
L 201.262108 204.292457 
L 201.119276 192.087753 
L 193.070729 199.37362 
z
" style="fill:#220144;"/>
    <path clip-path="url(#p49d1d476c4)" d="M 201.262108 204.292457 
L 201.018116 183.443813 
L 214.425297 187.601209 
L 214.529606 208.524945 
z
" style="fill:#320146;"/>
    <path clip-path="url(#p49d1d476c4)" d="M 179.788035 195.149488 
L 193.070729 199.37362 
L 201.119276 192.087753 
L 187.921399 187.946422 
z
" style="fill:#3e017d;"/>
    <path clip-path="url(#p49d1d476c4)" d="M 243.136481 198.181496 
L 256.530882 202.34441 
L 257.424468 147.557432 
L 243.655257 143.596093 
z
" style="fill:#ca5f52;"/>
    <path clip-path="url(#p49d1d476c4)" d="M 201.262108 204.292457 
L 200.634343 150.651301 
L 208.693449 143.773925 
L 209.103753 197.073984 
z
" style="fill:#c95c54;"/>
    <path clip-path="url(#p49d1d476c4)" d="M 188.144156 200.107676 
L 201.262108 204.292457 
L 200.703305 156.543962 
L 187.272754 152.534007 
z
" style="fill:#bc4a61;"/>
    <path clip-path="url(#p49d1d476c4)" d="M 227.94922 212.80596 
L 235.617509 205.421836 
L 249.101427 209.667246 
L 241.523583 217.136342 
z
" style="fill:#692243;"/>
    <path clip-path="url(#p49d1d476c4)" d="M 235.617509 205.421836 
L 235.910676 154.199771 
L 243.620202 147.284648 
L 243.136481 198.181496 
z
" style="fill:#c45459;"/>
    <path clip-path="url(#p49d1d476c4)" d="M 180.063228 207.386128 
L 193.264978 211.654059 
L 193.070729 199.37362 
L 179.788035 195.149488 
z
" style="fill:#480290;"/>
    <path clip-path="url(#p49d1d476c4)" d="M 193.264978 211.654059 
L 192.933138 190.675129 
L 201.018116 183.443813 
L 201.262108 204.292457 
z
" style="fill:#6a0195;"/>
    <path clip-path="url(#p49d1d476c4)" d="M 222.285805 201.224351 
L 229.891821 194.06512 
L 230.111342 115.717038 
L 222.203844 122.365613 
z
" style="fill:#695510;"/>
    <path clip-path="url(#p49d1d476c4)" d="M 224.338378 97.883167 
L 237.911277 101.556171 
L 245.535604 95.220965 
L 232.052998 91.620135 
z
" style="fill:#bab81e;"/>
    <path clip-path="url(#p49d1d476c4)" d="M 222.285805 201.224351 
L 222.23408 151.45654 
L 235.903401 155.47076 
L 235.617509 205.421836 
z
" style="fill:#5b262c;"/>
    <path clip-path="url(#p49d1d476c4)" d="M 237.855512 110.079546 
L 251.528999 113.829153 
L 259.03073 107.361867 
L 245.449373 103.686059 
z
" style="fill:#c2981e;"/>
    <path clip-path="url(#p49d1d476c4)" d="M 262.740181 213.961405 
L 270.077576 206.554656 
L 270.505116 188.144546 
L 263.102739 195.436414 
z
" style="fill:#2e0046;"/>
    <path clip-path="url(#p49d1d476c4)" d="M 209.103753 197.073984 
L 222.285805 201.224351 
L 222.203844 122.365613 
L 208.498972 118.510659 
z
" style="fill:#dfb321;"/>
    <path clip-path="url(#p49d1d476c4)" d="M 214.529606 208.524945 
L 214.279919 158.439124 
L 222.23408 151.45654 
L 222.285805 201.224351 
z
" style="fill:#c1505c;"/>
    <path clip-path="url(#p49d1d476c4)" d="M 206.61873 215.971129 
L 214.529606 208.524945 
L 227.94922 212.80596 
L 220.127123 220.338193 
z
" style="fill:#3f005a;"/>
    <path clip-path="url(#p49d1d476c4)" d="M 214.529606 208.524945 
L 214.429434 188.431068 
L 227.986309 192.639681 
L 227.94922 212.80596 
z
" style="fill:#310046;"/>
    <path clip-path="url(#p49d1d476c4)" d="M 235.617509 205.421836 
L 243.136481 198.181496 
L 243.778912 130.585226 
L 236.006897 137.387996 
z
" style="fill:#684119;"/>
    <path clip-path="url(#p49d1d476c4)" d="M 214.529606 208.524945 
L 222.285805 201.224351 
L 222.230204 147.727729 
L 214.261206 154.685482 
z
" style="fill:#5f2b28;"/>
    <path clip-path="url(#p49d1d476c4)" d="M 249.333872 191.208693 
L 263.102739 195.436414 
L 270.505116 188.144546 
L 256.830079 184.000206 
z
" style="fill:#540081;"/>
    <path clip-path="url(#p49d1d476c4)" d="M 249.101427 209.667246 
L 249.319363 192.36083 
L 263.080108 196.592756 
L 262.740181 213.961405 
z
" style="fill:#2c0046;"/>
    <path clip-path="url(#p49d1d476c4)" d="M 249.101427 209.667246 
L 262.740181 213.961405 
L 263.102739 195.436414 
L 249.333872 191.208693 
z
" style="fill:#610095;"/>
    <path clip-path="url(#p49d1d476c4)" d="M 235.617509 205.421836 
L 235.855756 163.795353 
L 249.627542 167.888277 
L 249.101427 209.667246 
z
" style="fill:#521a35;"/>
    <path clip-path="url(#p49d1d476c4)" d="M 241.523583 217.136342 
L 249.101427 209.667246 
L 262.740181 213.961405 
L 255.255385 221.516949 
z
" style="fill:#380059;"/>
    <path clip-path="url(#p49d1d476c4)" d="M 249.101427 209.667246 
L 256.530882 202.34441 
L 257.364076 151.260147 
L 249.748838 158.256116 
z
" style="fill:#5c282a;"/>
    <path clip-path="url(#p49d1d476c4)" d="M 222.285805 201.224351 
L 235.617509 205.421836 
L 236.006897 137.387996 
L 222.215358 133.443629 
z
" style="fill:#dd8a35;"/>
    <path clip-path="url(#p49d1d476c4)" d="M 202.944962 98.890659 
L 216.462402 102.588099 
L 224.338378 96.21088 
L 210.909694 92.586456 
z
" style="fill:#b8bd1c;"/>
    <path clip-path="url(#p49d1d476c4)" d="M 206.61873 215.971129 
L 206.435946 195.751637 
L 214.429434 188.431068 
L 214.529606 208.524945 
z
" style="fill:#680195;"/>
    <path clip-path="url(#p49d1d476c4)" d="M 206.61873 215.971129 
L 214.529606 208.524945 
L 214.425297 187.601209 
L 206.428396 194.916502 
z
" style="fill:#320146;"/>
    <path clip-path="url(#p49d1d476c4)" d="M 187.272754 152.534007 
L 200.703305 156.543962 
L 208.738512 149.627737 
L 195.394973 145.696992 
z
" style="fill:#a44054;"/>
    <path clip-path="url(#p49d1d476c4)" d="M 201.262108 204.292457 
L 214.529606 208.524945 
L 214.261206 154.685482 
L 200.634343 150.651301 
z
" style="fill:#c95c54;"/>
    <path clip-path="url(#p49d1d476c4)" d="M 241.523583 217.136342 
L 241.676351 199.721954 
L 249.319363 192.36083 
L 249.101427 209.667246 
z
" style="fill:#5d0094;"/>
    <path clip-path="url(#p49d1d476c4)" d="M 243.655257 143.596093 
L 257.424468 147.557432 
L 264.901158 140.725082 
L 251.22558 136.842055 
z
" style="fill:#b05247;"/>
    <path clip-path="url(#p49d1d476c4)" d="M 227.94922 212.80596 
L 228.026265 170.914891 
L 235.855756 163.795353 
L 235.617509 205.421836 
z
" style="fill:#ae386f;"/>
    <path clip-path="url(#p49d1d476c4)" d="M 235.617509 205.421836 
L 249.101427 209.667246 
L 249.748838 158.256116 
L 235.910676 154.199771 
z
" style="fill:#c45459;"/>
    <path clip-path="url(#p49d1d476c4)" d="M 193.264978 211.654059 
L 206.61873 215.971129 
L 206.428396 194.916502 
L 192.933138 190.675129 
z
" style="fill:#6a0195;"/>
    <path clip-path="url(#p49d1d476c4)" d="M 192.933138 190.675129 
L 206.428396 194.916502 
L 214.425297 187.601209 
L 201.018116 183.443813 
z
" style="fill:#5c0181;"/>
    <path clip-path="url(#p49d1d476c4)" d="M 227.94922 212.80596 
L 235.617509 205.421836 
L 235.903401 155.47076 
L 228.041676 162.535276 
z
" style="fill:#5b262c;"/>
    <path clip-path="url(#p49d1d476c4)" d="M 227.94922 212.80596 
L 227.984331 193.715453 
L 241.691659 197.97704 
L 241.523583 217.136342 
z
" style="fill:#2f0046;"/>
    <path clip-path="url(#p49d1d476c4)" d="M 220.127123 220.338193 
L 227.94922 212.80596 
L 241.523583 217.136342 
L 233.792858 224.756123 
z
" style="fill:#3c005a;"/>
    <path clip-path="url(#p49d1d476c4)" d="M 216.474341 105.731286 
L 230.128805 109.484506 
L 237.901757 103.011197 
L 224.338378 99.332407 
z
" style="fill:#bcb21d;"/>
    <path clip-path="url(#p49d1d476c4)" d="M 230.101151 119.354483 
L 243.849186 123.19105 
L 251.492808 116.574017 
L 237.837624 112.813609 
z
" style="fill:#c29021;"/>
    <path clip-path="url(#p49d1d476c4)" d="M 214.529606 208.524945 
L 227.94922 212.80596 
L 228.041676 162.535276 
L 214.279919 158.439124 
z
" style="fill:#c1505c;"/>
    <path clip-path="url(#p49d1d476c4)" d="M 220.127123 220.338193 
L 220.085759 201.128332 
L 227.984331 193.715453 
L 227.94922 212.80596 
z
" style="fill:#640095;"/>
    <path clip-path="url(#p49d1d476c4)" d="M 194.946352 114.225741 
L 208.495303 118.034078 
L 216.496123 111.465748 
L 203.03603 107.733044 
z
" style="fill:#c19d1d;"/>
    <path clip-path="url(#p49d1d476c4)" d="M 220.127123 220.338193 
L 227.94922 212.80596 
L 227.986309 192.639681 
L 220.083428 200.045723 
z
" style="fill:#310046;"/>
    <path clip-path="url(#p49d1d476c4)" d="M 255.255385 221.516949 
L 262.740181 213.961405 
L 263.080108 196.592756 
L 255.531831 204.039839 
z
" style="fill:#2c0046;"/>
    <path clip-path="url(#p49d1d476c4)" d="M 241.523583 217.136342 
L 241.614482 206.774505 
L 255.419872 211.118008 
L 255.255385 221.516949 
z
" style="fill:#1e0142;"/>
    <path clip-path="url(#p49d1d476c4)" d="M 241.523583 217.136342 
L 249.101427 209.667246 
L 249.627542 167.888277 
L 241.892423 175.091497 
z
" style="fill:#521a35;"/>
    <path clip-path="url(#p49d1d476c4)" d="M 206.61873 215.971129 
L 220.127123 220.338193 
L 220.083428 200.045723 
L 206.435946 195.751637 
z
" style="fill:#680195;"/>
    <path clip-path="url(#p49d1d476c4)" d="M 206.435946 195.751637 
L 220.083428 200.045723 
L 227.986309 192.639681 
L 214.429434 188.431068 
z
" style="fill:#5a0181;"/>
    <path clip-path="url(#p49d1d476c4)" d="M 241.676351 199.721954 
L 255.531831 204.039839 
L 263.080108 196.592756 
L 249.319363 192.36083 
z
" style="fill:#500081;"/>
    <path clip-path="url(#p49d1d476c4)" d="M 241.523583 217.136342 
L 255.255385 221.516949 
L 255.531831 204.039839 
L 241.676351 199.721954 
z
" style="fill:#5d0094;"/>
    <path clip-path="url(#p49d1d476c4)" d="M 200.634343 150.651301 
L 214.261206 154.685482 
L 222.230204 147.727729 
L 208.693449 143.773925 
z
" style="fill:#ae4f49;"/>
    <path clip-path="url(#p49d1d476c4)" d="M 233.792858 224.756123 
L 233.843374 214.329918 
L 241.614482 206.774505 
L 241.523583 217.136342 
z
" style="fill:#3f038d;"/>
    <path clip-path="url(#p49d1d476c4)" d="M 227.94922 212.80596 
L 241.523583 217.136342 
L 241.892423 175.091497 
L 228.026265 170.914891 
z
" style="fill:#ae386f;"/>
    <path clip-path="url(#p49d1d476c4)" d="M 235.910676 154.199771 
L 249.748838 158.256116 
L 257.364076 151.260147 
L 243.620202 147.284648 
z
" style="fill:#aa494e;"/>
    <path clip-path="url(#p49d1d476c4)" d="M 233.792858 224.756123 
L 241.523583 217.136342 
L 255.255385 221.516949 
L 247.618703 229.225814 
z
" style="fill:#260255;"/>
    <path clip-path="url(#p49d1d476c4)" d="M 208.498972 118.510659 
L 222.203844 122.365613 
L 230.111342 115.717038 
L 216.497921 111.939066 
z
" style="fill:#c29c1d;"/>
    <path clip-path="url(#p49d1d476c4)" d="M 233.792858 224.756123 
L 241.523583 217.136342 
L 241.691659 197.97704 
L 233.886268 205.476929 
z
" style="fill:#2f0046;"/>
    <path clip-path="url(#p49d1d476c4)" d="M 222.215358 133.443629 
L 236.006897 137.387996 
L 243.778912 130.585226 
L 230.080514 126.719662 
z
" style="fill:#c0782e;"/>
    <path clip-path="url(#p49d1d476c4)" d="M 214.279919 158.439124 
L 228.041676 162.535276 
L 235.903401 155.47076 
L 222.23408 151.45654 
z
" style="fill:#a74650;"/>
    <path clip-path="url(#p49d1d476c4)" d="M 220.085759 201.128332 
L 233.886268 205.476929 
L 241.691659 197.97704 
L 227.984331 193.715453 
z
" style="fill:#560081;"/>
    <path clip-path="url(#p49d1d476c4)" d="M 220.127123 220.338193 
L 233.792858 224.756123 
L 233.886268 205.476929 
L 220.085759 201.128332 
z
" style="fill:#640095;"/>
    <path clip-path="url(#p49d1d476c4)" d="M 228.026265 170.914891 
L 241.892423 175.091497 
L 249.627542 167.888277 
L 235.855756 163.795353 
z
" style="fill:#973161;"/>
    <path clip-path="url(#p49d1d476c4)" d="M 233.843374 214.329918 
L 247.743823 218.762227 
L 255.419872 211.118008 
L 241.614482 206.774505 
z
" style="fill:#37027a;"/>
    <path clip-path="url(#p49d1d476c4)" d="M 247.618703 229.225814 
L 255.255385 221.516949 
L 255.419872 211.118008 
L 247.743823 218.762227 
z
" style="fill:#1e0142;"/>
    <path clip-path="url(#p49d1d476c4)" d="M 233.792858 224.756123 
L 247.618703 229.225814 
L 247.743823 218.762227 
L 233.843374 214.329918 
z
" style="fill:#3f038d;"/>
   </g>
   <g id="text_18">
    <!-- W30__H30__A120_bars_extracted.txt -->
    <g transform="translate(110.101875 28.56)scale(0.12 -0.12)">
     <defs>
      <path d="M 3.328125 72.90625 
L 13.28125 72.90625 
L 28.609375 11.28125 
L 43.890625 72.90625 
L 54.984375 72.90625 
L 70.3125 11.28125 
L 85.59375 72.90625 
L 95.609375 72.90625 
L 77.296875 0 
L 64.890625 0 
L 49.515625 63.28125 
L 33.984375 0 
L 21.578125 0 
z
" id="DejaVuSans-87"/>
      <path d="M 50.984375 -16.609375 
L 50.984375 -23.578125 
L -0.984375 -23.578125 
L -0.984375 -16.609375 
z
" id="DejaVuSans-95"/>
      <path d="M 9.8125 72.90625 
L 19.671875 72.90625 
L 19.671875 43.015625 
L 55.515625 43.015625 
L 55.515625 72.90625 
L 65.375 72.90625 
L 65.375 0 
L 55.515625 0 
L 55.515625 34.71875 
L 19.671875 34.71875 
L 19.671875 0 
L 9.8125 0 
z
" id="DejaVuSans-72"/>
      <path d="M 34.1875 63.1875 
L 20.796875 26.90625 
L 47.609375 26.90625 
z
M 28.609375 72.90625 
L 39.796875 72.90625 
L 67.578125 0 
L 57.328125 0 
L 50.6875 18.703125 
L 17.828125 18.703125 
L 11.1875 0 
L 0.78125 0 
z
" id="DejaVuSans-65"/>
      <path d="M 48.6875 27.296875 
Q 48.6875 37.203125 44.609375 42.84375 
Q 40.53125 48.484375 33.40625 48.484375 
Q 26.265625 48.484375 22.1875 42.84375 
Q 18.109375 37.203125 18.109375 27.296875 
Q 18.109375 17.390625 22.1875 11.75 
Q 26.265625 6.109375 33.40625 6.109375 
Q 40.53125 6.109375 44.609375 11.75 
Q 48.6875 17.390625 48.6875 27.296875 
z
M 18.109375 46.390625 
Q 20.953125 51.265625 25.265625 53.625 
Q 29.59375 56 35.59375 56 
Q 45.5625 56 51.78125 48.09375 
Q 58.015625 40.1875 58.015625 27.296875 
Q 58.015625 14.40625 51.78125 6.484375 
Q 45.5625 -1.421875 35.59375 -1.421875 
Q 29.59375 -1.421875 25.265625 0.953125 
Q 20.953125 3.328125 18.109375 8.203125 
L 18.109375 0 
L 9.078125 0 
L 9.078125 75.984375 
L 18.109375 75.984375 
z
" id="DejaVuSans-98"/>
      <path d="M 34.28125 27.484375 
Q 23.390625 27.484375 19.1875 25 
Q 14.984375 22.515625 14.984375 16.5 
Q 14.984375 11.71875 18.140625 8.90625 
Q 21.296875 6.109375 26.703125 6.109375 
Q 34.1875 6.109375 38.703125 11.40625 
Q 43.21875 16.703125 43.21875 25.484375 
L 43.21875 27.484375 
z
M 52.203125 31.203125 
L 52.203125 0 
L 43.21875 0 
L 43.21875 8.296875 
Q 40.140625 3.328125 35.546875 0.953125 
Q 30.953125 -1.421875 24.3125 -1.421875 
Q 15.921875 -1.421875 10.953125 3.296875 
Q 6 8.015625 6 15.921875 
Q 6 25.140625 12.171875 29.828125 
Q 18.359375 34.515625 30.609375 34.515625 
L 43.21875 34.515625 
L 43.21875 35.40625 
Q 43.21875 41.609375 39.140625 45 
Q 35.0625 48.390625 27.6875 48.390625 
Q 23 48.390625 18.546875 47.265625 
Q 14.109375 46.140625 10.015625 43.890625 
L 10.015625 52.203125 
Q 14.9375 54.109375 19.578125 55.046875 
Q 24.21875 56 28.609375 56 
Q 40.484375 56 46.34375 49.84375 
Q 52.203125 43.703125 52.203125 31.203125 
z
" id="DejaVuSans-97"/>
      <path d="M 41.109375 46.296875 
Q 39.59375 47.171875 37.8125 47.578125 
Q 36.03125 48 33.890625 48 
Q 26.265625 48 22.1875 43.046875 
Q 18.109375 38.09375 18.109375 28.8125 
L 18.109375 0 
L 9.078125 0 
L 9.078125 54.6875 
L 18.109375 54.6875 
L 18.109375 46.1875 
Q 20.953125 51.171875 25.484375 53.578125 
Q 30.03125 56 36.53125 56 
Q 37.453125 56 38.578125 55.875 
Q 39.703125 55.765625 41.0625 55.515625 
z
" id="DejaVuSans-114"/>
      <path d="M 44.28125 53.078125 
L 44.28125 44.578125 
Q 40.484375 46.53125 36.375 47.5 
Q 32.28125 48.484375 27.875 48.484375 
Q 21.1875 48.484375 17.84375 46.4375 
Q 14.5 44.390625 14.5 40.28125 
Q 14.5 37.15625 16.890625 35.375 
Q 19.28125 33.59375 26.515625 31.984375 
L 29.59375 31.296875 
Q 39.15625 29.25 43.1875 25.515625 
Q 47.21875 21.78125 47.21875 15.09375 
Q 47.21875 7.46875 41.1875 3.015625 
Q 35.15625 -1.421875 24.609375 -1.421875 
Q 20.21875 -1.421875 15.453125 -0.5625 
Q 10.6875 0.296875 5.421875 2 
L 5.421875 11.28125 
Q 10.40625 8.6875 15.234375 7.390625 
Q 20.0625 6.109375 24.8125 6.109375 
Q 31.15625 6.109375 34.5625 8.28125 
Q 37.984375 10.453125 37.984375 14.40625 
Q 37.984375 18.0625 35.515625 20.015625 
Q 33.0625 21.96875 24.703125 23.78125 
L 21.578125 24.515625 
Q 13.234375 26.265625 9.515625 29.90625 
Q 5.8125 33.546875 5.8125 39.890625 
Q 5.8125 47.609375 11.28125 51.796875 
Q 16.75 56 26.8125 56 
Q 31.78125 56 36.171875 55.265625 
Q 40.578125 54.546875 44.28125 53.078125 
z
" id="DejaVuSans-115"/>
      <path d="M 56.203125 29.59375 
L 56.203125 25.203125 
L 14.890625 25.203125 
Q 15.484375 15.921875 20.484375 11.0625 
Q 25.484375 6.203125 34.421875 6.203125 
Q 39.59375 6.203125 44.453125 7.46875 
Q 49.3125 8.734375 54.109375 11.28125 
L 54.109375 2.78125 
Q 49.265625 0.734375 44.1875 -0.34375 
Q 39.109375 -1.421875 33.890625 -1.421875 
Q 20.796875 -1.421875 13.15625 6.1875 
Q 5.515625 13.8125 5.515625 26.8125 
Q 5.515625 40.234375 12.765625 48.109375 
Q 20.015625 56 32.328125 56 
Q 43.359375 56 49.78125 48.890625 
Q 56.203125 41.796875 56.203125 29.59375 
z
M 47.21875 32.234375 
Q 47.125 39.59375 43.09375 43.984375 
Q 39.0625 48.390625 32.421875 48.390625 
Q 24.90625 48.390625 20.390625 44.140625 
Q 15.875 39.890625 15.1875 32.171875 
z
" id="DejaVuSans-101"/>
      <path d="M 54.890625 54.6875 
L 35.109375 28.078125 
L 55.90625 0 
L 45.3125 0 
L 29.390625 21.484375 
L 13.484375 0 
L 2.875 0 
L 24.125 28.609375 
L 4.6875 54.6875 
L 15.28125 54.6875 
L 29.78125 35.203125 
L 44.28125 54.6875 
z
" id="DejaVuSans-120"/>
      <path d="M 18.3125 70.21875 
L 18.3125 54.6875 
L 36.8125 54.6875 
L 36.8125 47.703125 
L 18.3125 47.703125 
L 18.3125 18.015625 
Q 18.3125 11.328125 20.140625 9.421875 
Q 21.96875 7.515625 27.59375 7.515625 
L 36.8125 7.515625 
L 36.8125 0 
L 27.59375 0 
Q 17.1875 0 13.234375 3.875 
Q 9.28125 7.765625 9.28125 18.015625 
L 9.28125 47.703125 
L 2.6875 47.703125 
L 2.6875 54.6875 
L 9.28125 54.6875 
L 9.28125 70.21875 
z
" id="DejaVuSans-116"/>
      <path d="M 48.78125 52.59375 
L 48.78125 44.1875 
Q 44.96875 46.296875 41.140625 47.34375 
Q 37.3125 48.390625 33.40625 48.390625 
Q 24.65625 48.390625 19.8125 42.84375 
Q 14.984375 37.3125 14.984375 27.296875 
Q 14.984375 17.28125 19.8125 11.734375 
Q 24.65625 6.203125 33.40625 6.203125 
Q 37.3125 6.203125 41.140625 7.25 
Q 44.96875 8.296875 48.78125 10.40625 
L 48.78125 2.09375 
Q 45.015625 0.34375 40.984375 -0.53125 
Q 36.96875 -1.421875 32.421875 -1.421875 
Q 20.0625 -1.421875 12.78125 6.34375 
Q 5.515625 14.109375 5.515625 27.296875 
Q 5.515625 40.671875 12.859375 48.328125 
Q 20.21875 56 33.015625 56 
Q 37.15625 56 41.109375 55.140625 
Q 45.0625 54.296875 48.78125 52.59375 
z
" id="DejaVuSans-99"/>
      <path d="M 45.40625 46.390625 
L 45.40625 75.984375 
L 54.390625 75.984375 
L 54.390625 0 
L 45.40625 0 
L 45.40625 8.203125 
Q 42.578125 3.328125 38.25 0.953125 
Q 33.9375 -1.421875 27.875 -1.421875 
Q 17.96875 -1.421875 11.734375 6.484375 
Q 5.515625 14.40625 5.515625 27.296875 
Q 5.515625 40.1875 11.734375 48.09375 
Q 17.96875 56 27.875 56 
Q 33.9375 56 38.25 53.625 
Q 42.578125 51.265625 45.40625 46.390625 
z
M 14.796875 27.296875 
Q 14.796875 17.390625 18.875 11.75 
Q 22.953125 6.109375 30.078125 6.109375 
Q 37.203125 6.109375 41.296875 11.75 
Q 45.40625 17.390625 45.40625 27.296875 
Q 45.40625 37.203125 41.296875 42.84375 
Q 37.203125 48.484375 30.078125 48.484375 
Q 22.953125 48.484375 18.875 42.84375 
Q 14.796875 37.203125 14.796875 27.296875 
z
" id="DejaVuSans-100"/>
      <path d="M 10.6875 12.40625 
L 21 12.40625 
L 21 0 
L 10.6875 0 
z
" id="DejaVuSans-46"/>
     </defs>
     <use xlink:href="#DejaVuSans-87"/>
     <use x="98.876953" xlink:href="#DejaVuSans-51"/>
     <use x="162.5" xlink:href="#DejaVuSans-48"/>
     <use x="226.123047" xlink:href="#DejaVuSans-95"/>
     <use x="276.123047" xlink:href="#DejaVuSans-95"/>
     <use x="326.123047" xlink:href="#DejaVuSans-72"/>
     <use x="401.318359" xlink:href="#DejaVuSans-51"/>
     <use x="464.941406" xlink:href="#DejaVuSans-48"/>
     <use x="528.564453" xlink:href="#DejaVuSans-95"/>
     <use x="578.564453" xlink:href="#DejaVuSans-95"/>
     <use x="628.564453" xlink:href="#DejaVuSans-65"/>
     <use x="696.972656" xlink:href="#DejaVuSans-49"/>
     <use x="760.595703" xlink:href="#DejaVuSans-50"/>
     <use x="824.21875" xlink:href="#DejaVuSans-48"/>
     <use x="887.841797" xlink:href="#DejaVuSans-95"/>
     <use x="937.841797" xlink:href="#DejaVuSans-98"/>
     <use x="1001.318359" xlink:href="#DejaVuSans-97"/>
     <use x="1062.597656" xlink:href="#DejaVuSans-114"/>
     <use x="1103.710938" xlink:href="#DejaVuSans-115"/>
     <use x="1155.810547" xlink:href="#DejaVuSans-95"/>
     <use x="1205.810547" xlink:href="#DejaVuSans-101"/>
     <use x="1265.583984" xlink:href="#DejaVuSans-120"/>
     <use x="1324.763672" xlink:href="#DejaVuSans-116"/>
     <use x="1363.972656" xlink:href="#DejaVuSans-114"/>
     <use x="1405.085938" xlink:href="#DejaVuSans-97"/>
     <use x="1466.365234" xlink:href="#DejaVuSans-99"/>
     <use x="1521.345703" xlink:href="#DejaVuSans-116"/>
     <use x="1560.554688" xlink:href="#DejaVuSans-101"/>
     <use x="1622.078125" xlink:href="#DejaVuSans-100"/>
     <use x="1685.554688" xlink:href="#DejaVuSans-46"/>
     <use x="1717.341797" xlink:href="#DejaVuSans-116"/>
     <use x="1756.550781" xlink:href="#DejaVuSans-120"/>
     <use x="1815.730469" xlink:href="#DejaVuSans-116"/>
    </g>
   </g>
  </g>
 </g>
 <defs>
  <clipPath id="p49d1d476c4">
   <rect height="217.44" width="217.44" x="112.68" y="34.56"/>
  </clipPath>
 </defs>
</svg>
