<?xml version="1.0" encoding="utf-8" standalone="no"?>
<!DOCTYPE svg PUBLIC "-//W3C//DTD SVG 1.1//EN"
  "http://www.w3.org/Graphics/SVG/1.1/DTD/svg11.dtd">
<!-- Created with matplotlib (https://matplotlib.org/) -->
<svg height="288pt" version="1.1" viewBox="0 0 432 288" width="432pt" xmlns="http://www.w3.org/2000/svg" xmlns:xlink="http://www.w3.org/1999/xlink">
 <metadata>
  <rdf:RDF xmlns:cc="http://creativecommons.org/ns#" xmlns:dc="http://purl.org/dc/elements/1.1/" xmlns:rdf="http://www.w3.org/1999/02/22-rdf-syntax-ns#">
   <cc:Work>
    <dc:type rdf:resource="http://purl.org/dc/dcmitype/StillImage"/>
    <dc:date>2021-06-13T21:58:18.392817</dc:date>
    <dc:format>image/svg+xml</dc:format>
    <dc:creator>
     <cc:Agent>
      <dc:title>Matplotlib v3.3.4, https://matplotlib.org/</dc:title>
     </cc:Agent>
    </dc:creator>
   </cc:Work>
  </rdf:RDF>
 </metadata>
 <defs>
  <style type="text/css">*{stroke-linecap:butt;stroke-linejoin:round;}</style>
 </defs>
 <g id="figure_1">
  <g id="patch_1">
   <path d="M 0 288 
L 432 288 
L 432 0 
L 0 0 
z
" style="fill:#ffffff;"/>
  </g>
  <g id="patch_2">
   <path d="M 112.68 252 
L 330.12 252 
L 330.12 34.56 
L 112.68 34.56 
z
" style="fill:#ffffff;"/>
  </g>
  <g id="pane3d_1">
   <g id="patch_3">
    <path d="M 129.09822 198.386264 
L 200.904009 138.197228 
L 199.90584 51.393878 
L 124.663773 106.302111 
" style="fill:#f2f2f2;opacity:0.5;stroke:#f2f2f2;stroke-linejoin:miter;"/>
   </g>
  </g>
  <g id="pane3d_2">
   <g id="patch_4">
    <path d="M 200.904009 138.197228 
L 316.12668 171.68791 
L 320.238571 81.894718 
L 199.90584 51.393878 
" style="fill:#e6e6e6;opacity:0.5;stroke:#e6e6e6;stroke-linejoin:miter;"/>
   </g>
  </g>
  <g id="pane3d_3">
   <g id="patch_5">
    <path d="M 129.09822 198.386264 
L 251.239879 238.27773 
L 316.12668 171.68791 
L 200.904009 138.197228 
" style="fill:#ececec;opacity:0.5;stroke:#ececec;stroke-linejoin:miter;"/>
   </g>
  </g>
  <g id="axis3d_1">
   <g id="line2d_1">
    <path d="M 129.09822 198.386264 
L 251.239879 238.27773 
" style="fill:none;stroke:#000000;stroke-linecap:square;stroke-width:0.8;"/>
   </g>
   <g id="Line3DCollection_1">
    <path d="M 136.495759 200.802301 
L 207.911499 140.234029 
L 207.209612 53.245171 
" style="fill:none;stroke:#b0b0b0;stroke-width:0.8;"/>
    <path d="M 162.23134 209.207541 
L 232.260894 147.311436 
L 232.60309 59.681678 
" style="fill:none;stroke:#b0b0b0;stroke-width:0.8;"/>
    <path d="M 188.559037 217.806167 
L 257.123632 154.538053 
L 258.555303 66.259807 
" style="fill:none;stroke:#b0b0b0;stroke-width:0.8;"/>
    <path d="M 215.499525 226.604931 
L 282.516121 161.918647 
L 285.084894 72.984285 
" style="fill:none;stroke:#b0b0b0;stroke-width:0.8;"/>
    <path d="M 243.074449 235.610901 
L 308.455474 169.458193 
L 312.21135 79.860051 
" style="fill:none;stroke:#b0b0b0;stroke-width:0.8;"/>
   </g>
   <g id="xtick_1">
    <g id="line2d_2">
     <path d="M 137.117644 200.274876 
L 135.249322 201.859414 
" style="fill:none;stroke:#000000;stroke-linecap:square;stroke-width:0.8;"/>
    </g>
    <g id="text_1">
     <!-- 0 -->
     <g transform="translate(125.77919 224.124533)scale(0.1 -0.1)">
      <defs>
       <path d="M 31.78125 66.40625 
Q 24.171875 66.40625 20.328125 58.90625 
Q 16.5 51.421875 16.5 36.375 
Q 16.5 21.390625 20.328125 13.890625 
Q 24.171875 6.390625 31.78125 6.390625 
Q 39.453125 6.390625 43.28125 13.890625 
Q 47.125 21.390625 47.125 36.375 
Q 47.125 51.421875 43.28125 58.90625 
Q 39.453125 66.40625 31.78125 66.40625 
z
M 31.78125 74.21875 
Q 44.046875 74.21875 50.515625 64.515625 
Q 56.984375 54.828125 56.984375 36.375 
Q 56.984375 17.96875 50.515625 8.265625 
Q 44.046875 -1.421875 31.78125 -1.421875 
Q 19.53125 -1.421875 13.0625 8.265625 
Q 6.59375 17.96875 6.59375 36.375 
Q 6.59375 54.828125 13.0625 64.515625 
Q 19.53125 74.21875 31.78125 74.21875 
z
" id="DejaVuSans-48"/>
      </defs>
      <use xlink:href="#DejaVuSans-48"/>
     </g>
    </g>
   </g>
   <g id="xtick_2">
    <g id="line2d_3">
     <path d="M 162.841716 208.668056 
L 161.007937 210.288854 
" style="fill:none;stroke:#000000;stroke-linecap:square;stroke-width:0.8;"/>
    </g>
    <g id="text_2">
     <!-- 2 -->
     <g transform="translate(151.547192 232.748132)scale(0.1 -0.1)">
      <defs>
       <path d="M 19.1875 8.296875 
L 53.609375 8.296875 
L 53.609375 0 
L 7.328125 0 
L 7.328125 8.296875 
Q 12.9375 14.109375 22.625 23.890625 
Q 32.328125 33.6875 34.8125 36.53125 
Q 39.546875 41.84375 41.421875 45.53125 
Q 43.3125 49.21875 43.3125 52.78125 
Q 43.3125 58.59375 39.234375 62.25 
Q 35.15625 65.921875 28.609375 65.921875 
Q 23.96875 65.921875 18.8125 64.3125 
Q 13.671875 62.703125 7.8125 59.421875 
L 7.8125 69.390625 
Q 13.765625 71.78125 18.9375 73 
Q 24.125 74.21875 28.421875 74.21875 
Q 39.75 74.21875 46.484375 68.546875 
Q 53.21875 62.890625 53.21875 53.421875 
Q 53.21875 48.921875 51.53125 44.890625 
Q 49.859375 40.875 45.40625 35.40625 
Q 44.1875 33.984375 37.640625 27.21875 
Q 31.109375 20.453125 19.1875 8.296875 
z
" id="DejaVuSans-50"/>
      </defs>
      <use xlink:href="#DejaVuSans-50"/>
     </g>
    </g>
   </g>
   <g id="xtick_3">
    <g id="line2d_4">
     <path d="M 189.15721 217.254202 
L 187.360066 218.91252 
" style="fill:none;stroke:#000000;stroke-linecap:square;stroke-width:0.8;"/>
    </g>
    <g id="text_3">
     <!-- 4 -->
     <g transform="translate(177.91082 241.571064)scale(0.1 -0.1)">
      <defs>
       <path d="M 37.796875 64.3125 
L 12.890625 25.390625 
L 37.796875 25.390625 
z
M 35.203125 72.90625 
L 47.609375 72.90625 
L 47.609375 25.390625 
L 58.015625 25.390625 
L 58.015625 17.1875 
L 47.609375 17.1875 
L 47.609375 0 
L 37.796875 0 
L 37.796875 17.1875 
L 4.890625 17.1875 
L 4.890625 26.703125 
z
" id="DejaVuSans-52"/>
      </defs>
      <use xlink:href="#DejaVuSans-52"/>
     </g>
    </g>
   </g>
   <g id="xtick_4">
    <g id="line2d_5">
     <path d="M 216.084757 226.040048 
L 214.326462 227.737204 
" style="fill:none;stroke:#000000;stroke-linecap:square;stroke-width:0.8;"/>
    </g>
    <g id="text_4">
     <!-- 6 -->
     <g transform="translate(204.890965 250.600322)scale(0.1 -0.1)">
      <defs>
       <path d="M 33.015625 40.375 
Q 26.375 40.375 22.484375 35.828125 
Q 18.609375 31.296875 18.609375 23.390625 
Q 18.609375 15.53125 22.484375 10.953125 
Q 26.375 6.390625 33.015625 6.390625 
Q 39.65625 6.390625 43.53125 10.953125 
Q 47.40625 15.53125 47.40625 23.390625 
Q 47.40625 31.296875 43.53125 35.828125 
Q 39.65625 40.375 33.015625 40.375 
z
M 52.59375 71.296875 
L 52.59375 62.3125 
Q 48.875 64.0625 45.09375 64.984375 
Q 41.3125 65.921875 37.59375 65.921875 
Q 27.828125 65.921875 22.671875 59.328125 
Q 17.53125 52.734375 16.796875 39.40625 
Q 19.671875 43.65625 24.015625 45.921875 
Q 28.375 48.1875 33.59375 48.1875 
Q 44.578125 48.1875 50.953125 41.515625 
Q 57.328125 34.859375 57.328125 23.390625 
Q 57.328125 12.15625 50.6875 5.359375 
Q 44.046875 -1.421875 33.015625 -1.421875 
Q 20.359375 -1.421875 13.671875 8.265625 
Q 6.984375 17.96875 6.984375 36.375 
Q 6.984375 53.65625 15.1875 63.9375 
Q 23.390625 74.21875 37.203125 74.21875 
Q 40.921875 74.21875 44.703125 73.484375 
Q 48.484375 72.75 52.59375 71.296875 
z
" id="DejaVuSans-54"/>
      </defs>
      <use xlink:href="#DejaVuSans-54"/>
     </g>
    </g>
   </g>
   <g id="xtick_5">
    <g id="line2d_6">
     <path d="M 243.645962 235.032643 
L 241.928856 236.770015 
" style="fill:none;stroke:#000000;stroke-linecap:square;stroke-width:0.8;"/>
    </g>
    <g id="text_5">
     <!-- 8 -->
     <g transform="translate(232.509511 259.84323)scale(0.1 -0.1)">
      <defs>
       <path d="M 31.78125 34.625 
Q 24.75 34.625 20.71875 30.859375 
Q 16.703125 27.09375 16.703125 20.515625 
Q 16.703125 13.921875 20.71875 10.15625 
Q 24.75 6.390625 31.78125 6.390625 
Q 38.8125 6.390625 42.859375 10.171875 
Q 46.921875 13.96875 46.921875 20.515625 
Q 46.921875 27.09375 42.890625 30.859375 
Q 38.875 34.625 31.78125 34.625 
z
M 21.921875 38.8125 
Q 15.578125 40.375 12.03125 44.71875 
Q 8.5 49.078125 8.5 55.328125 
Q 8.5 64.0625 14.71875 69.140625 
Q 20.953125 74.21875 31.78125 74.21875 
Q 42.671875 74.21875 48.875 69.140625 
Q 55.078125 64.0625 55.078125 55.328125 
Q 55.078125 49.078125 51.53125 44.71875 
Q 48 40.375 41.703125 38.8125 
Q 48.828125 37.15625 52.796875 32.3125 
Q 56.78125 27.484375 56.78125 20.515625 
Q 56.78125 9.90625 50.3125 4.234375 
Q 43.84375 -1.421875 31.78125 -1.421875 
Q 19.734375 -1.421875 13.25 4.234375 
Q 6.78125 9.90625 6.78125 20.515625 
Q 6.78125 27.484375 10.78125 32.3125 
Q 14.796875 37.15625 21.921875 38.8125 
z
M 18.3125 54.390625 
Q 18.3125 48.734375 21.84375 45.5625 
Q 25.390625 42.390625 31.78125 42.390625 
Q 38.140625 42.390625 41.71875 45.5625 
Q 45.3125 48.734375 45.3125 54.390625 
Q 45.3125 60.0625 41.71875 63.234375 
Q 38.140625 66.40625 31.78125 66.40625 
Q 25.390625 66.40625 21.84375 63.234375 
Q 18.3125 60.0625 18.3125 54.390625 
z
" id="DejaVuSans-56"/>
      </defs>
      <use xlink:href="#DejaVuSans-56"/>
     </g>
    </g>
   </g>
  </g>
  <g id="axis3d_2">
   <g id="line2d_7">
    <path d="M 316.12668 171.68791 
L 251.239879 238.27773 
" style="fill:none;stroke:#000000;stroke-linecap:square;stroke-width:0.8;"/>
   </g>
   <g id="Line3DCollection_2">
    <path d="M 129.866948 102.505071 
L 134.046245 194.238731 
L 255.729543 233.67023 
" style="fill:none;stroke:#b0b0b0;stroke-width:0.8;"/>
    <path d="M 147.250212 89.819556 
L 150.59591 180.366474 
L 270.72626 218.279909 
" style="fill:none;stroke:#b0b0b0;stroke-width:0.8;"/>
    <path d="M 163.958537 77.626582 
L 166.530371 167.009893 
L 285.136664 203.491289 
" style="fill:none;stroke:#b0b0b0;stroke-width:0.8;"/>
    <path d="M 180.030483 65.898008 
L 181.883306 154.140758 
L 298.994481 189.269761 
" style="fill:none;stroke:#b0b0b0;stroke-width:0.8;"/>
    <path d="M 195.501727 54.607799 
L 196.68598 141.732864 
L 312.330896 175.583317 
" style="fill:none;stroke:#b0b0b0;stroke-width:0.8;"/>
   </g>
   <g id="xtick_6">
    <g id="line2d_8">
     <path d="M 254.704115 233.337939 
L 257.783053 234.33567 
" style="fill:none;stroke:#000000;stroke-linecap:square;stroke-width:0.8;"/>
    </g>
    <g id="text_6">
     <!-- 0 -->
     <g transform="translate(265.430654 254.693759)scale(0.1 -0.1)">
      <use xlink:href="#DejaVuSans-48"/>
     </g>
    </g>
   </g>
   <g id="xtick_7">
    <g id="line2d_9">
     <path d="M 269.71494 217.960734 
L 272.751463 218.919068 
" style="fill:none;stroke:#000000;stroke-linecap:square;stroke-width:0.8;"/>
    </g>
    <g id="text_7">
     <!-- 2 -->
     <g transform="translate(280.181112 239.024526)scale(0.1 -0.1)">
      <use xlink:href="#DejaVuSans-50"/>
     </g>
    </g>
   </g>
   <g id="xtick_8">
    <g id="line2d_10">
     <path d="M 284.139145 203.184468 
L 287.134182 204.105694 
" style="fill:none;stroke:#000000;stroke-linecap:square;stroke-width:0.8;"/>
    </g>
    <g id="text_8">
     <!-- 4 -->
     <g transform="translate(294.35448 223.968328)scale(0.1 -0.1)">
      <use xlink:href="#DejaVuSans-52"/>
     </g>
    </g>
   </g>
   <g id="xtick_9">
    <g id="line2d_11">
     <path d="M 298.010457 188.97459 
L 300.964927 189.860821 
" style="fill:none;stroke:#000000;stroke-linecap:square;stroke-width:0.8;"/>
    </g>
    <g id="text_9">
     <!-- 6 -->
     <g transform="translate(307.983974 209.489882)scale(0.1 -0.1)">
      <use xlink:href="#DejaVuSans-54"/>
     </g>
    </g>
   </g>
   <g id="xtick_10">
    <g id="line2d_12">
     <path d="M 311.360068 175.299146 
L 314.274875 176.15234 
" style="fill:none;stroke:#000000;stroke-linecap:square;stroke-width:0.8;"/>
    </g>
    <g id="text_10">
     <!-- 8 -->
     <g transform="translate(321.10031 195.556556)scale(0.1 -0.1)">
      <use xlink:href="#DejaVuSans-56"/>
     </g>
    </g>
   </g>
  </g>
  <g id="axis3d_3">
   <g id="line2d_13">
    <path d="M 316.12668 171.68791 
L 320.238571 81.894718 
" style="fill:none;stroke:#000000;stroke-linecap:square;stroke-width:0.8;"/>
   </g>
   <g id="Line3DCollection_3">
    <path d="M 316.205459 169.967571 
L 200.884845 136.530725 
L 129.013401 196.624949 
" style="fill:none;stroke:#b0b0b0;stroke-width:0.8;"/>
    <path d="M 316.84733 155.950756 
L 200.728765 122.957569 
L 128.322119 182.270027 
" style="fill:none;stroke:#b0b0b0;stroke-width:0.8;"/>
    <path d="M 317.498233 141.736693 
L 200.570593 109.202547 
L 127.620737 167.705385 
" style="fill:none;stroke:#b0b0b0;stroke-width:0.8;"/>
    <path d="M 318.158361 127.32119 
L 200.410288 95.26198 
L 126.909033 152.926393 
" style="fill:none;stroke:#b0b0b0;stroke-width:0.8;"/>
    <path d="M 318.827911 112.699932 
L 200.247805 81.132087 
L 126.186777 137.928284 
" style="fill:none;stroke:#b0b0b0;stroke-width:0.8;"/>
    <path d="M 319.507086 97.868485 
L 200.083101 66.808986 
L 125.453733 122.706148 
" style="fill:none;stroke:#b0b0b0;stroke-width:0.8;"/>
   </g>
   <g id="xtick_11">
    <g id="line2d_14">
     <path d="M 315.237563 169.686933 
L 318.143556 170.529516 
" style="fill:none;stroke:#000000;stroke-linecap:square;stroke-width:0.8;"/>
    </g>
    <g id="text_11">
     <!-- 0 -->
     <g transform="translate(331.275915 174.966846)scale(0.1 -0.1)">
      <use xlink:href="#DejaVuSans-48"/>
     </g>
    </g>
   </g>
   <g id="xtick_12">
    <g id="line2d_15">
     <path d="M 315.872418 155.673751 
L 318.799492 156.505431 
" style="fill:none;stroke:#000000;stroke-linecap:square;stroke-width:0.8;"/>
    </g>
    <g id="text_12">
     <!-- 10000 -->
     <g transform="translate(319.317466 160.983738)scale(0.1 -0.1)">
      <defs>
       <path d="M 12.40625 8.296875 
L 28.515625 8.296875 
L 28.515625 63.921875 
L 10.984375 60.40625 
L 10.984375 69.390625 
L 28.421875 72.90625 
L 38.28125 72.90625 
L 38.28125 8.296875 
L 54.390625 8.296875 
L 54.390625 0 
L 12.40625 0 
z
" id="DejaVuSans-49"/>
      </defs>
      <use xlink:href="#DejaVuSans-49"/>
      <use x="63.623047" xlink:href="#DejaVuSans-48"/>
      <use x="127.246094" xlink:href="#DejaVuSans-48"/>
      <use x="190.869141" xlink:href="#DejaVuSans-48"/>
      <use x="254.492188" xlink:href="#DejaVuSans-48"/>
     </g>
    </g>
   </g>
   <g id="xtick_13">
    <g id="line2d_16">
     <path d="M 316.516202 141.463451 
L 319.464666 142.283837 
" style="fill:none;stroke:#000000;stroke-linecap:square;stroke-width:0.8;"/>
    </g>
    <g id="text_13">
     <!-- 20000 -->
     <g transform="translate(320.094764 146.804589)scale(0.1 -0.1)">
      <use xlink:href="#DejaVuSans-50"/>
      <use x="63.623047" xlink:href="#DejaVuSans-48"/>
      <use x="127.246094" xlink:href="#DejaVuSans-48"/>
      <use x="190.869141" xlink:href="#DejaVuSans-48"/>
      <use x="254.492188" xlink:href="#DejaVuSans-48"/>
     </g>
    </g>
   </g>
   <g id="xtick_14">
    <g id="line2d_17">
     <path d="M 317.169107 127.051846 
L 320.139274 127.860532 
" style="fill:none;stroke:#000000;stroke-linecap:square;stroke-width:0.8;"/>
    </g>
    <g id="text_14">
     <!-- 30000 -->
     <g transform="translate(320.883037 132.425246)scale(0.1 -0.1)">
      <defs>
       <path d="M 40.578125 39.3125 
Q 47.65625 37.796875 51.625 33 
Q 55.609375 28.21875 55.609375 21.1875 
Q 55.609375 10.40625 48.1875 4.484375 
Q 40.765625 -1.421875 27.09375 -1.421875 
Q 22.515625 -1.421875 17.65625 -0.515625 
Q 12.796875 0.390625 7.625 2.203125 
L 7.625 11.71875 
Q 11.71875 9.328125 16.59375 8.109375 
Q 21.484375 6.890625 26.8125 6.890625 
Q 36.078125 6.890625 40.9375 10.546875 
Q 45.796875 14.203125 45.796875 21.1875 
Q 45.796875 27.640625 41.28125 31.265625 
Q 36.765625 34.90625 28.71875 34.90625 
L 20.21875 34.90625 
L 20.21875 43.015625 
L 29.109375 43.015625 
Q 36.375 43.015625 40.234375 45.921875 
Q 44.09375 48.828125 44.09375 54.296875 
Q 44.09375 59.90625 40.109375 62.90625 
Q 36.140625 65.921875 28.71875 65.921875 
Q 24.65625 65.921875 20.015625 65.03125 
Q 15.375 64.15625 9.8125 62.3125 
L 9.8125 71.09375 
Q 15.4375 72.65625 20.34375 73.4375 
Q 25.25 74.21875 29.59375 74.21875 
Q 40.828125 74.21875 47.359375 69.109375 
Q 53.90625 64.015625 53.90625 55.328125 
Q 53.90625 49.265625 50.4375 45.09375 
Q 46.96875 40.921875 40.578125 39.3125 
z
" id="DejaVuSans-51"/>
      </defs>
      <use xlink:href="#DejaVuSans-51"/>
      <use x="63.623047" xlink:href="#DejaVuSans-48"/>
      <use x="127.246094" xlink:href="#DejaVuSans-48"/>
      <use x="190.869141" xlink:href="#DejaVuSans-48"/>
      <use x="254.492188" xlink:href="#DejaVuSans-48"/>
     </g>
    </g>
   </g>
   <g id="xtick_15">
    <g id="line2d_18">
     <path d="M 317.831327 112.434627 
L 320.823518 113.231194 
" style="fill:none;stroke:#000000;stroke-linecap:square;stroke-width:0.8;"/>
    </g>
    <g id="text_15">
     <!-- 40000 -->
     <g transform="translate(321.682518 117.841441)scale(0.1 -0.1)">
      <use xlink:href="#DejaVuSans-52"/>
      <use x="63.623047" xlink:href="#DejaVuSans-48"/>
      <use x="127.246094" xlink:href="#DejaVuSans-48"/>
      <use x="190.869141" xlink:href="#DejaVuSans-48"/>
      <use x="254.492188" xlink:href="#DejaVuSans-48"/>
     </g>
    </g>
   </g>
   <g id="xtick_16">
    <g id="line2d_19">
     <path d="M 318.503063 97.607361 
L 321.517608 98.391376 
" style="fill:none;stroke:#000000;stroke-linecap:square;stroke-width:0.8;"/>
    </g>
    <g id="text_16">
     <!-- 50000 -->
     <g transform="translate(322.493448 103.048781)scale(0.1 -0.1)">
      <defs>
       <path d="M 10.796875 72.90625 
L 49.515625 72.90625 
L 49.515625 64.59375 
L 19.828125 64.59375 
L 19.828125 46.734375 
Q 21.96875 47.46875 24.109375 47.828125 
Q 26.265625 48.1875 28.421875 48.1875 
Q 40.625 48.1875 47.75 41.5 
Q 54.890625 34.8125 54.890625 23.390625 
Q 54.890625 11.625 47.5625 5.09375 
Q 40.234375 -1.421875 26.90625 -1.421875 
Q 22.3125 -1.421875 17.546875 -0.640625 
Q 12.796875 0.140625 7.71875 1.703125 
L 7.71875 11.625 
Q 12.109375 9.234375 16.796875 8.0625 
Q 21.484375 6.890625 26.703125 6.890625 
Q 35.15625 6.890625 40.078125 11.328125 
Q 45.015625 15.765625 45.015625 23.390625 
Q 45.015625 31 40.078125 35.4375 
Q 35.15625 39.890625 26.703125 39.890625 
Q 22.75 39.890625 18.8125 39.015625 
Q 14.890625 38.140625 10.796875 36.28125 
z
" id="DejaVuSans-53"/>
      </defs>
      <use xlink:href="#DejaVuSans-53"/>
      <use x="63.623047" xlink:href="#DejaVuSans-48"/>
      <use x="127.246094" xlink:href="#DejaVuSans-48"/>
      <use x="190.869141" xlink:href="#DejaVuSans-48"/>
      <use x="254.492188" xlink:href="#DejaVuSans-48"/>
     </g>
    </g>
   </g>
  </g>
  <g id="axes_1">
   <g id="Poly3DCollection_1">
    <path clip-path="url(#p188046bc06)" d="M 203.700438 142.115361 
L 203.542697 126.569077 
L 215.798789 130.066237 
L 215.863902 145.66701 
z
" style="fill:#2a0046;"/>
    <path clip-path="url(#p188046bc06)" d="M 196.401162 148.290596 
L 203.700438 142.115361 
L 215.863902 145.66701 
L 208.637156 151.907182 
z
" style="fill:#360059;"/>
    <path clip-path="url(#p188046bc06)" d="M 196.401162 148.290596 
L 196.185678 132.649751 
L 203.542697 126.569077 
L 203.700438 142.115361 
z
" style="fill:#5a0094;"/>
    <path clip-path="url(#p188046bc06)" d="M 215.863902 145.66701 
L 215.805801 131.746373 
L 228.181329 135.28648 
L 228.155024 149.255935 
z
" style="fill:#270045;"/>
    <path clip-path="url(#p188046bc06)" d="M 208.637156 151.907182 
L 215.863902 145.66701 
L 228.155024 149.255935 
L 221.002748 155.562072 
z
" style="fill:#320058;"/>
    <path clip-path="url(#p188046bc06)" d="M 208.637156 151.907182 
L 208.52852 137.901827 
L 215.805801 131.746373 
L 215.863902 145.66701 
z
" style="fill:#530193;"/>
    <path clip-path="url(#p188046bc06)" d="M 208.637156 151.907182 
L 215.863902 145.66701 
L 215.798789 130.066237 
L 208.515408 136.211347 
z
" style="fill:#2a0046;"/>
    <path clip-path="url(#p188046bc06)" d="M 196.185678 132.649751 
L 208.515408 136.211347 
L 215.798789 130.066237 
L 203.542697 126.569077 
z
" style="fill:#4e0080;"/>
    <path clip-path="url(#p188046bc06)" d="M 196.401162 148.290596 
L 208.637156 151.907182 
L 208.515408 136.211347 
L 196.185678 132.649751 
z
" style="fill:#5a0094;"/>
    <path clip-path="url(#p188046bc06)" d="M 228.155024 149.255935 
L 228.1748 138.754126 
L 240.660403 142.344118 
L 240.575825 152.882725 
z
" style="fill:#200143;"/>
    <path clip-path="url(#p188046bc06)" d="M 188.96817 154.578956 
L 196.401162 148.290596 
L 208.637156 151.907182 
L 201.27732 158.262275 
z
" style="fill:#5f174c;"/>
    <path clip-path="url(#p188046bc06)" d="M 221.002748 155.562072 
L 220.985306 144.996407 
L 228.1748 138.754126 
L 228.155024 149.255935 
z
" style="fill:#44028e;"/>
    <path clip-path="url(#p188046bc06)" d="M 221.002748 155.562072 
L 228.155024 149.255935 
L 240.575825 152.882725 
L 233.500008 159.25588 
z
" style="fill:#290156;"/>
    <path clip-path="url(#p188046bc06)" d="M 221.002748 155.562072 
L 228.155024 149.255935 
L 228.181329 135.28648 
L 220.979546 141.507456 
z
" style="fill:#270045;"/>
    <path clip-path="url(#p188046bc06)" d="M 208.52852 137.901827 
L 220.979546 141.507456 
L 228.181329 135.28648 
L 215.805801 131.746373 
z
" style="fill:#48017f;"/>
    <path clip-path="url(#p188046bc06)" d="M 196.401162 148.290596 
L 195.939066 114.749428 
L 208.376059 118.246525 
L 208.637156 151.907182 
z
" style="fill:#4a123c;"/>
    <path clip-path="url(#p188046bc06)" d="M 240.575825 152.882725 
L 240.63649 145.323755 
L 253.236503 148.962541 
L 253.128369 156.547983 
z
" style="fill:#190241;"/>
    <path clip-path="url(#p188046bc06)" d="M 208.637156 151.907182 
L 221.002748 155.562072 
L 220.979546 141.507456 
L 208.52852 137.901827 
z
" style="fill:#530193;"/>
    <path clip-path="url(#p188046bc06)" d="M 201.27732 158.262275 
L 208.637156 151.907182 
L 221.002748 155.562072 
L 213.718049 161.984967 
z
" style="fill:#61194b;"/>
    <path clip-path="url(#p188046bc06)" d="M 188.96817 154.578956 
L 188.377681 120.830419 
L 195.939066 114.749428 
L 196.401162 148.290596 
z
" style="fill:#9d267e;"/>
    <path clip-path="url(#p188046bc06)" d="M 233.500008 159.25588 
L 233.534553 151.650974 
L 240.63649 145.323755 
L 240.575825 152.882725 
z
" style="fill:#350389;"/>
    <path clip-path="url(#p188046bc06)" d="M 220.985306 144.996407 
L 233.548171 148.653086 
L 240.660403 142.344118 
L 228.1748 138.754126 
z
" style="fill:#3b027b;"/>
    <path clip-path="url(#p188046bc06)" d="M 233.500008 159.25588 
L 240.575825 152.882725 
L 240.660403 142.344118 
L 233.548171 148.653086 
z
" style="fill:#200143;"/>
    <path clip-path="url(#p188046bc06)" d="M 233.500008 159.25588 
L 240.575825 152.882725 
L 253.128369 156.547983 
L 246.131049 162.989229 
z
" style="fill:#200253;"/>
    <path clip-path="url(#p188046bc06)" d="M 253.128369 156.547983 
L 253.189273 152.275628 
L 265.902972 155.96502 
L 265.814761 160.252323 
z
" style="fill:#11023d;"/>
    <path clip-path="url(#p188046bc06)" d="M 221.002748 155.562072 
L 233.500008 159.25588 
L 233.548171 148.653086 
L 220.985306 144.996407 
z
" style="fill:#44028e;"/>
    <path clip-path="url(#p188046bc06)" d="M 181.397755 160.983577 
L 188.96817 154.578956 
L 201.27732 158.262275 
L 193.780682 164.735494 
z
" style="fill:#712c3c;"/>
    <path clip-path="url(#p188046bc06)" d="M 208.637156 151.907182 
L 208.369449 117.394319 
L 220.945569 120.925957 
L 221.002748 155.562072 
z
" style="fill:#4b133a;"/>
    <path clip-path="url(#p188046bc06)" d="M 246.131049 162.989229 
L 246.177579 158.690935 
L 253.189273 152.275628 
L 253.128369 156.547983 
z
" style="fill:#250582;"/>
    <path clip-path="url(#p188046bc06)" d="M 233.534553 151.650974 
L 246.213663 155.357617 
L 253.236503 148.962541 
L 240.63649 145.323755 
z
" style="fill:#2e0377;"/>
    <path clip-path="url(#p188046bc06)" d="M 213.718049 161.984967 
L 221.002748 155.562072 
L 233.500008 159.25588 
L 226.292478 165.747667 
z
" style="fill:#571052;"/>
    <path clip-path="url(#p188046bc06)" d="M 201.27732 158.262275 
L 208.637156 151.907182 
L 208.376059 118.246525 
L 200.890245 124.393131 
z
" style="fill:#4a123c;"/>
    <path clip-path="url(#p188046bc06)" d="M 201.27732 158.262275 
L 200.880443 123.535511 
L 208.369449 117.394319 
L 208.637156 151.907182 
z
" style="fill:#a0297c;"/>
    <path clip-path="url(#p188046bc06)" d="M 246.131049 162.989229 
L 253.128369 156.547983 
L 253.236503 148.962541 
L 246.213663 155.357617 
z
" style="fill:#190241;"/>
    <path clip-path="url(#p188046bc06)" d="M 246.131049 162.989229 
L 253.128369 156.547983 
L 265.814761 160.252323 
L 258.898031 166.762758 
z
" style="fill:#16034f;"/>
    <path clip-path="url(#p188046bc06)" d="M 188.96817 154.578956 
L 201.27732 158.262275 
L 200.890245 124.393131 
L 188.377681 120.830419 
z
" style="fill:#9d267e;"/>
    <path clip-path="url(#p188046bc06)" d="M 265.814761 160.252323 
L 265.848998 158.588324 
L 278.682216 162.326557 
L 278.637155 163.996376 
z
" style="fill:#0a033a;"/>
    <path clip-path="url(#p188046bc06)" d="M 233.500008 159.25588 
L 246.131049 162.989229 
L 246.213663 155.357617 
L 233.534553 151.650974 
z
" style="fill:#350389;"/>
    <path clip-path="url(#p188046bc06)" d="M 221.002748 155.562072 
L 220.953679 125.838544 
L 233.635509 129.426396 
L 233.500008 159.25588 
z
" style="fill:#440c40;"/>
    <path clip-path="url(#p188046bc06)" d="M 246.177579 158.690935 
L 258.972219 162.449385 
L 265.902972 155.96502 
L 253.189273 152.275628 
z
" style="fill:#200471;"/>
    <path clip-path="url(#p188046bc06)" d="M 193.780682 164.735494 
L 201.27732 158.262275 
L 213.718049 161.984967 
L 206.297214 168.527892 
z
" style="fill:#7d3d2f;"/>
    <path clip-path="url(#p188046bc06)" d="M 258.898031 166.762758 
L 258.926825 165.088661 
L 265.848998 158.588324 
L 265.814761 160.252323 
z
" style="fill:#16067b;"/>
    <path clip-path="url(#p188046bc06)" d="M 213.718049 161.984967 
L 213.560349 132.077562 
L 220.953679 125.838544 
L 221.002748 155.562072 
z
" style="fill:#901a88;"/>
    <path clip-path="url(#p188046bc06)" d="M 188.96817 154.578956 
L 188.181935 109.642869 
L 200.761915 113.164273 
L 201.27732 158.262275 
z
" style="fill:#58222f;"/>
    <path clip-path="url(#p188046bc06)" d="M 258.898031 166.762758 
L 265.814761 160.252323 
L 265.902972 155.96502 
L 258.972219 162.449385 
z
" style="fill:#11023d;"/>
    <path clip-path="url(#p188046bc06)" d="M 226.292478 165.747667 
L 233.500008 159.25588 
L 246.131049 162.989229 
L 239.002775 169.551023 
z
" style="fill:#440259;"/>
    <path clip-path="url(#p188046bc06)" d="M 213.718049 161.984967 
L 221.002748 155.562072 
L 220.945569 120.925957 
L 213.534281 127.1338 
z
" style="fill:#4b133a;"/>
    <path clip-path="url(#p188046bc06)" d="M 188.377681 120.830419 
L 200.890245 124.393131 
L 208.376059 118.246525 
L 195.939066 114.749428 
z
" style="fill:#88216e;"/>
    <path clip-path="url(#p188046bc06)" d="M 233.500008 159.25588 
L 233.596774 137.953594 
L 246.362471 141.611359 
L 246.131049 162.989229 
z
" style="fill:#350146;"/>
    <path clip-path="url(#p188046bc06)" d="M 258.898031 166.762758 
L 265.814761 160.252323 
L 278.637155 163.996376 
L 271.803162 170.57712 
z
" style="fill:#0d034a;"/>
    <path clip-path="url(#p188046bc06)" d="M 181.397755 160.983577 
L 180.434217 115.766484 
L 188.181935 109.642869 
L 188.96817 154.578956 
z
" style="fill:#bb4863;"/>
    <path clip-path="url(#p188046bc06)" d="M 246.131049 162.989229 
L 258.898031 166.762758 
L 258.972219 162.449385 
L 246.177579 158.690935 
z
" style="fill:#250582;"/>
    <path clip-path="url(#p188046bc06)" d="M 258.926825 165.088661 
L 271.842922 168.897153 
L 278.682216 162.326557 
L 265.848998 158.588324 
z
" style="fill:#13056b;"/>
    <path clip-path="url(#p188046bc06)" d="M 278.637155 163.996376 
L 278.655758 163.307004 
L 291.620917 167.088997 
L 291.597749 167.780781 
z
" style="fill:#070339;"/>
    <path clip-path="url(#p188046bc06)" d="M 173.686069 167.507715 
L 181.397755 160.983577 
L 193.780682 164.735494 
L 186.143392 171.330164 
z
" style="fill:#6d2640;"/>
    <path clip-path="url(#p188046bc06)" d="M 201.27732 158.262275 
L 213.718049 161.984967 
L 213.534281 127.1338 
L 200.880443 123.535511 
z
" style="fill:#a0297c;"/>
    <path clip-path="url(#p188046bc06)" d="M 226.292478 165.747667 
L 226.313311 144.314215 
L 233.596774 137.953594 
L 233.500008 159.25588 
z
" style="fill:#710394;"/>
    <path clip-path="url(#p188046bc06)" d="M 246.131049 162.989229 
L 246.266293 150.495926 
L 259.113668 154.225351 
L 258.898031 166.762758 
z
" style="fill:#230144;"/>
    <path clip-path="url(#p188046bc06)" d="M 206.297214 168.527892 
L 213.718049 161.984967 
L 226.292478 165.747667 
L 218.949524 172.361429 
z
" style="fill:#834d24;"/>
    <path clip-path="url(#p188046bc06)" d="M 271.803162 170.57712 
L 271.819576 169.883562 
L 278.655758 163.307004 
L 278.637155 163.996376 
z
" style="fill:#0e0678;"/>
    <path clip-path="url(#p188046bc06)" d="M 271.803162 170.57712 
L 278.637155 163.996376 
L 278.682216 162.326557 
L 271.842922 168.897153 
z
" style="fill:#0a033a;"/>
    <path clip-path="url(#p188046bc06)" d="M 226.292478 165.747667 
L 233.500008 159.25588 
L 233.635509 129.426396 
L 226.321652 135.733331 
z
" style="fill:#440c40;"/>
    <path clip-path="url(#p188046bc06)" d="M 239.002775 169.551023 
L 246.131049 162.989229 
L 258.898031 166.762758 
L 251.851153 173.395697 
z
" style="fill:#2d0157;"/>
    <path clip-path="url(#p188046bc06)" d="M 239.002775 169.551023 
L 239.094638 156.981187 
L 246.266293 150.495926 
L 246.131049 162.989229 
z
" style="fill:#4b0190;"/>
    <path clip-path="url(#p188046bc06)" d="M 200.880443 123.535511 
L 213.534281 127.1338 
L 220.945569 120.925957 
L 208.369449 117.394319 
z
" style="fill:#8b246c;"/>
    <path clip-path="url(#p188046bc06)" d="M 258.898031 166.762758 
L 271.803162 170.57712 
L 271.842922 168.897153 
L 258.926825 165.088661 
z
" style="fill:#16067b;"/>
    <path clip-path="url(#p188046bc06)" d="M 213.718049 161.984967 
L 226.292478 165.747667 
L 226.321652 135.733331 
L 213.560349 132.077562 
z
" style="fill:#901a88;"/>
    <path clip-path="url(#p188046bc06)" d="M 271.803162 170.57712 
L 278.637155 163.996376 
L 291.597749 167.780781 
L 284.848695 174.43298 
z
" style="fill:#090449;"/>
    <path clip-path="url(#p188046bc06)" d="M 193.780682 164.735494 
L 201.27732 158.262275 
L 200.761915 113.164273 
L 193.09124 119.354952 
z
" style="fill:#58222f;"/>
    <path clip-path="url(#p188046bc06)" d="M 271.819576 169.883562 
L 284.869735 173.736989 
L 291.620917 167.088997 
L 278.655758 163.307004 
z
" style="fill:#0c0668;"/>
    <path clip-path="url(#p188046bc06)" d="M 201.27732 158.262275 
L 200.657589 104.035679 
L 213.431077 107.561301 
L 213.718049 161.984967 
z
" style="fill:#613024;"/>
    <path clip-path="url(#p188046bc06)" d="M 258.898031 166.762758 
L 258.999178 160.881954 
L 271.942832 164.675629 
L 271.803162 170.57712 
z
" style="fill:#15023f;"/>
    <path clip-path="url(#p188046bc06)" d="M 291.597749 167.780781 
L 291.608204 167.468577 
L 304.711349 171.292898 
L 304.698789 171.606197 
z
" style="fill:#050338;"/>
    <path clip-path="url(#p188046bc06)" d="M 186.143392 171.330164 
L 193.780682 164.735494 
L 206.297214 168.527892 
L 198.736391 175.194243 
z
" style="fill:#7e3f2d;"/>
    <path clip-path="url(#p188046bc06)" d="M 239.002775 169.551023 
L 246.131049 162.989229 
L 246.362471 141.611359 
L 239.159973 148.041306 
z
" style="fill:#350146;"/>
    <path clip-path="url(#p188046bc06)" d="M 181.397755 160.983577 
L 180.498163 118.767361 
L 193.137001 122.367016 
L 193.780682 164.735494 
z
" style="fill:#551e32;"/>
    <path clip-path="url(#p188046bc06)" d="M 181.397755 160.983577 
L 193.780682 164.735494 
L 193.09124 119.354952 
L 180.434217 115.766484 
z
" style="fill:#bb4863;"/>
    <path clip-path="url(#p188046bc06)" d="M 193.780682 164.735494 
L 192.951651 110.166873 
L 200.657589 104.035679 
L 201.27732 158.262275 
z
" style="fill:#ce654d;"/>
    <path clip-path="url(#p188046bc06)" d="M 218.949524 172.361429 
L 226.292478 165.747667 
L 239.002775 169.551023 
L 231.739835 176.23678 
z
" style="fill:#80432b;"/>
    <path clip-path="url(#p188046bc06)" d="M 213.560349 132.077562 
L 226.321652 135.733331 
L 233.635509 129.426396 
L 220.953679 125.838544 
z
" style="fill:#7d1776;"/>
    <path clip-path="url(#p188046bc06)" d="M 251.851153 173.395697 
L 251.932435 167.478998 
L 258.999178 160.881954 
L 258.898031 166.762758 
z
" style="fill:#2d0486;"/>
    <path clip-path="url(#p188046bc06)" d="M 284.848695 174.43298 
L 284.85819 174.118877 
L 291.608204 167.468577 
L 291.597749 167.780781 
z
" style="fill:#0b0777;"/>
    <path clip-path="url(#p188046bc06)" d="M 284.848695 174.43298 
L 291.597749 167.780781 
L 291.620917 167.088997 
L 284.869735 173.736989 
z
" style="fill:#070339;"/>
    <path clip-path="url(#p188046bc06)" d="M 226.292478 165.747667 
L 239.002775 169.551023 
L 239.159973 148.041306 
L 226.313311 144.314215 
z
" style="fill:#710394;"/>
    <path clip-path="url(#p188046bc06)" d="M 173.686069 167.507715 
L 172.61481 125.027253 
L 180.498163 118.767361 
L 181.397755 160.983577 
z
" style="fill:#b43f6a;"/>
    <path clip-path="url(#p188046bc06)" d="M 226.313311 144.314215 
L 239.159973 148.041306 
L 246.362471 141.611359 
L 233.596774 137.953594 
z
" style="fill:#620380;"/>
    <path clip-path="url(#p188046bc06)" d="M 251.851153 173.395697 
L 258.898031 166.762758 
L 271.803162 170.57712 
L 264.839875 177.282368 
z
" style="fill:#1b0251;"/>
    <path clip-path="url(#p188046bc06)" d="M 251.851153 173.395697 
L 258.898031 166.762758 
L 259.113668 154.225351 
L 252.024445 160.78137 
z
" style="fill:#230144;"/>
    <path clip-path="url(#p188046bc06)" d="M 239.094638 156.981187 
L 252.024445 160.78137 
L 259.113668 154.225351 
L 246.266293 150.495926 
z
" style="fill:#41017d;"/>
    <path clip-path="url(#p188046bc06)" d="M 271.803162 170.57712 
L 284.848695 174.43298 
L 284.869735 173.736989 
L 271.819576 169.883562 
z
" style="fill:#0e0678;"/>
    <path clip-path="url(#p188046bc06)" d="M 165.82912 174.154745 
L 173.686069 167.507715 
L 186.143392 171.330164 
L 178.361455 178.049733 
z
" style="fill:#4d0857;"/>
    <path clip-path="url(#p188046bc06)" d="M 271.803162 170.57712 
L 271.8409 168.982569 
L 284.897067 172.832831 
L 284.848695 174.43298 
z
" style="fill:#09033a;"/>
    <path clip-path="url(#p188046bc06)" d="M 284.848695 174.43298 
L 291.597749 167.780781 
L 304.698789 171.606197 
L 298.036935 178.33102 
z
" style="fill:#070448;"/>
    <path clip-path="url(#p188046bc06)" d="M 284.85819 174.118877 
L 298.048563 178.015814 
L 304.711349 171.292898 
L 291.608204 167.468577 
z
" style="fill:#0a0667;"/>
    <path clip-path="url(#p188046bc06)" d="M 239.002775 169.551023 
L 251.851153 173.395697 
L 252.024445 160.78137 
L 239.094638 156.981187 
z
" style="fill:#4b0190;"/>
    <path clip-path="url(#p188046bc06)" d="M 198.736391 175.194243 
L 206.297214 168.527892 
L 218.949524 172.361429 
L 211.467294 179.100638 
z
" style="fill:#875b1b;"/>
    <path clip-path="url(#p188046bc06)" d="M 173.686069 167.507715 
L 173.044314 142.05914 
L 185.656815 145.790696 
L 186.143392 171.330164 
z
" style="fill:#3c0644;"/>
    <path clip-path="url(#p188046bc06)" d="M 251.932435 167.478998 
L 264.960185 171.344803 
L 271.942832 164.675629 
L 258.999178 160.881954 
z
" style="fill:#270374;"/>
    <path clip-path="url(#p188046bc06)" d="M 264.839875 177.282368 
L 264.872381 175.678103 
L 271.8409 168.982569 
L 271.803162 170.57712 
z
" style="fill:#13067a;"/>
    <path clip-path="url(#p188046bc06)" d="M 213.718049 161.984967 
L 213.389761 99.725917 
L 226.353216 103.260623 
L 226.292478 165.747667 
z
" style="fill:#673c1c;"/>
    <path clip-path="url(#p188046bc06)" d="M 206.297214 168.527892 
L 213.718049 161.984967 
L 213.431077 107.561301 
L 205.805044 113.760315 
z
" style="fill:#613024;"/>
    <path clip-path="url(#p188046bc06)" d="M 231.739835 176.23678 
L 239.002775 169.551023 
L 251.851153 173.395697 
L 244.670417 180.154631 
z
" style="fill:#6f293e;"/>
    <path clip-path="url(#p188046bc06)" d="M 264.839875 177.282368 
L 271.803162 170.57712 
L 271.942832 164.675629 
L 264.960185 171.344803 
z
" style="fill:#15023f;"/>
    <path clip-path="url(#p188046bc06)" d="M 298.036935 178.33102 
L 304.698789 171.606197 
L 304.711349 171.292898 
L 298.048563 178.015814 
z
" style="fill:#050338;"/>
    <path clip-path="url(#p188046bc06)" d="M 180.434217 115.766484 
L 193.09124 119.354952 
L 200.761915 113.164273 
L 188.181935 109.642869 
z
" style="fill:#a23f56;"/>
    <path clip-path="url(#p188046bc06)" d="M 165.82912 174.154745 
L 165.080749 148.548441 
L 173.044314 142.05914 
L 173.686069 167.507715 
z
" style="fill:#800d90;"/>
    <path clip-path="url(#p188046bc06)" d="M 186.143392 171.330164 
L 193.780682 164.735494 
L 193.137001 122.367016 
L 185.331128 128.696019 
z
" style="fill:#551e32;"/>
    <path clip-path="url(#p188046bc06)" d="M 264.839875 177.282368 
L 271.803162 170.57712 
L 284.848695 174.43298 
L 277.971253 181.211726 
z
" style="fill:#0c044a;"/>
    <path clip-path="url(#p188046bc06)" d="M 206.297214 168.527892 
L 205.734166 105.87314 
L 213.389761 99.725917 
L 213.718049 161.984967 
z
" style="fill:#da7f3c;"/>
    <path clip-path="url(#p188046bc06)" d="M 193.780682 164.735494 
L 206.297214 168.527892 
L 205.805044 113.760315 
L 192.951651 110.166873 
z
" style="fill:#ce654d;"/>
    <path clip-path="url(#p188046bc06)" d="M 251.851153 173.395697 
L 264.839875 177.282368 
L 264.960185 171.344803 
L 251.932435 167.478998 
z
" style="fill:#2d0486;"/>
    <path clip-path="url(#p188046bc06)" d="M 284.848695 174.43298 
L 298.036935 178.33102 
L 298.048563 178.015814 
L 284.85819 174.118877 
z
" style="fill:#0b0777;"/>
    <path clip-path="url(#p188046bc06)" d="M 193.780682 164.735494 
L 192.932709 108.920079 
L 205.793797 112.508789 
L 206.297214 168.527892 
z
" style="fill:#623123;"/>
    <path clip-path="url(#p188046bc06)" d="M 264.872381 175.678103 
L 278.014535 179.601815 
L 284.897067 172.832831 
L 271.8409 168.982569 
z
" style="fill:#11056a;"/>
    <path clip-path="url(#p188046bc06)" d="M 284.848695 174.43298 
L 284.862211 173.985863 
L 298.053487 177.882333 
L 298.036935 178.33102 
z
" style="fill:#050338;"/>
    <path clip-path="url(#p188046bc06)" d="M 178.361455 178.049733 
L 186.143392 171.330164 
L 198.736391 175.194243 
L 191.031582 181.987547 
z
" style="fill:#692243;"/>
    <path clip-path="url(#p188046bc06)" d="M 173.686069 167.507715 
L 186.143392 171.330164 
L 185.331128 128.696019 
L 172.61481 125.027253 
z
" style="fill:#b43f6a;"/>
    <path clip-path="url(#p188046bc06)" d="M 211.467294 179.100638 
L 218.949524 172.361429 
L 231.739835 176.23678 
L 224.338378 183.050047 
z
" style="fill:#847914;"/>
    <path clip-path="url(#p188046bc06)" d="M 226.292478 165.747667 
L 226.348639 107.969554 
L 239.426574 111.561657 
L 239.002775 169.551023 
z
" style="fill:#643421;"/>
    <path clip-path="url(#p188046bc06)" d="M 186.143392 171.330164 
L 185.073264 115.161242 
L 192.932709 108.920079 
L 193.780682 164.735494 
z
" style="fill:#d0684b;"/>
    <path clip-path="url(#p188046bc06)" d="M 277.971253 181.211726 
L 277.983347 180.761883 
L 284.862211 173.985863 
L 284.848695 174.43298 
z
" style="fill:#0b0777;"/>
    <path clip-path="url(#p188046bc06)" d="M 277.971253 181.211726 
L 284.848695 174.43298 
L 284.897067 172.832831 
L 278.014535 179.601815 
z
" style="fill:#09033a;"/>
    <path clip-path="url(#p188046bc06)" d="M 165.82912 174.154745 
L 165.479253 162.183683 
L 178.085016 166.036247 
L 178.361455 178.049733 
z
" style="fill:#220144;"/>
    <path clip-path="url(#p188046bc06)" d="M 244.670417 180.154631 
L 251.851153 173.395697 
L 264.839875 177.282368 
L 257.743589 184.115686 
z
" style="fill:#4a0558;"/>
    <path clip-path="url(#p188046bc06)" d="M 239.002775 169.551023 
L 239.322052 125.86368 
L 252.453493 129.550027 
L 251.851153 173.395697 
z
" style="fill:#562030;"/>
    <path clip-path="url(#p188046bc06)" d="M 178.361455 178.049733 
L 186.143392 171.330164 
L 185.656815 145.790696 
L 177.770124 152.351725 
z
" style="fill:#3c0644;"/>
    <path clip-path="url(#p188046bc06)" d="M 218.949524 172.361429 
L 218.793151 114.216681 
L 226.348639 107.969554 
L 226.292478 165.747667 
z
" style="fill:#d36f46;"/>
    <path clip-path="url(#p188046bc06)" d="M 157.822766 180.928173 
L 165.82912 174.154745 
L 178.361455 178.049733 
L 170.430723 184.897786 
z
" style="fill:#2b0157;"/>
    <path clip-path="url(#p188046bc06)" d="M 264.839875 177.282368 
L 277.971253 181.211726 
L 278.014535 179.601815 
L 264.872381 175.678103 
z
" style="fill:#13067a;"/>
    <path clip-path="url(#p188046bc06)" d="M 157.822766 180.928173 
L 157.42122 168.883496 
L 165.479253 162.183683 
L 165.82912 174.154745 
z
" style="fill:#480290;"/>
    <path clip-path="url(#p188046bc06)" d="M 251.851153 173.395697 
L 252.18707 148.94358 
L 265.337111 152.742781 
L 264.839875 177.282368 
z
" style="fill:#3a0445;"/>
    <path clip-path="url(#p188046bc06)" d="M 277.971253 181.211726 
L 284.848695 174.43298 
L 298.036935 178.33102 
L 291.24765 185.184478 
z
" style="fill:#070448;"/>
    <path clip-path="url(#p188046bc06)" d="M 277.983347 180.761883 
L 291.262821 184.733052 
L 298.053487 177.882333 
L 284.862211 173.985863 
z
" style="fill:#0a0667;"/>
    <path clip-path="url(#p188046bc06)" d="M 218.949524 172.361429 
L 226.292478 165.747667 
L 226.353216 103.260623 
L 218.780402 109.476485 
z
" style="fill:#673c1c;"/>
    <path clip-path="url(#p188046bc06)" d="M 186.143392 171.330164 
L 185.376281 131.065974 
L 198.219342 134.784401 
L 198.736391 175.194243 
z
" style="fill:#521a35;"/>
    <path clip-path="url(#p188046bc06)" d="M 264.839875 177.282368 
L 264.979963 170.368742 
L 278.157783 174.273667 
L 277.971253 181.211726 
z
" style="fill:#180240;"/>
    <path clip-path="url(#p188046bc06)" d="M 191.031582 181.987547 
L 198.736391 175.194243 
L 211.467294 179.100638 
L 203.841786 185.968896 
z
" style="fill:#824a26;"/>
    <path clip-path="url(#p188046bc06)" d="M 231.739835 176.23678 
L 231.902537 132.274671 
L 239.322052 125.86368 
L 239.002775 169.551023 
z
" style="fill:#b74367;"/>
    <path clip-path="url(#p188046bc06)" d="M 165.82912 174.154745 
L 178.361455 178.049733 
L 177.770124 152.351725 
L 165.080749 148.548441 
z
" style="fill:#800d90;"/>
    <path clip-path="url(#p188046bc06)" d="M 172.61481 125.027253 
L 185.331128 128.696019 
L 193.137001 122.367016 
L 180.498163 118.767361 
z
" style="fill:#9c375c;"/>
    <path clip-path="url(#p188046bc06)" d="M 244.670417 180.154631 
L 244.921047 155.55073 
L 252.18707 148.94358 
L 251.851153 173.395697 
z
" style="fill:#7b0992;"/>
    <path clip-path="url(#p188046bc06)" d="M 206.297214 168.527892 
L 218.949524 172.361429 
L 218.780402 109.476485 
L 205.734166 105.87314 
z
" style="fill:#da7f3c;"/>
    <path clip-path="url(#p188046bc06)" d="M 224.338378 183.050047 
L 231.739835 176.23678 
L 244.670417 180.154631 
L 237.351973 187.043183 
z
" style="fill:#847a14;"/>
    <path clip-path="url(#p188046bc06)" d="M 198.736391 175.194243 
L 206.297214 168.527892 
L 205.793797 112.508789 
L 198.015071 118.819698 
z
" style="fill:#623123;"/>
    <path clip-path="url(#p188046bc06)" d="M 165.080749 148.548441 
L 177.770124 152.351725 
L 185.656815 145.790696 
L 173.044314 142.05914 
z
" style="fill:#6f0b7d;"/>
    <path clip-path="url(#p188046bc06)" d="M 291.24765 185.184478 
L 298.036935 178.33102 
L 298.053487 177.882333 
L 291.262821 184.733052 
z
" style="fill:#050338;"/>
    <path clip-path="url(#p188046bc06)" d="M 178.361455 178.049733 
L 177.429129 137.532778 
L 185.376281 131.065974 
L 186.143392 171.330164 
z
" style="fill:#ae386f;"/>
    <path clip-path="url(#p188046bc06)" d="M 257.743589 184.115686 
L 257.860239 177.159666 
L 264.979963 170.368742 
L 264.839875 177.282368 
z
" style="fill:#320488;"/>
    <path clip-path="url(#p188046bc06)" d="M 192.951651 110.166873 
L 205.805044 113.760315 
L 213.431077 107.561301 
L 200.657589 104.035679 
z
" style="fill:#b35843;"/>
    <path clip-path="url(#p188046bc06)" d="M 206.297214 168.527892 
L 205.67625 99.428386 
L 218.763003 103.006845 
L 218.949524 172.361429 
z
" style="fill:#694715;"/>
    <path clip-path="url(#p188046bc06)" d="M 257.743589 184.115686 
L 264.839875 177.282368 
L 277.971253 181.211726 
L 270.961723 188.120663 
z
" style="fill:#1e0252;"/>
    <path clip-path="url(#p188046bc06)" d="M 178.361455 178.049733 
L 177.96718 160.915365 
L 190.744376 164.792127 
L 191.031582 181.987547 
z
" style="fill:#2c0046;"/>
    <path clip-path="url(#p188046bc06)" d="M 231.739835 176.23678 
L 239.002775 169.551023 
L 239.426574 111.561657 
L 231.955816 117.878768 
z
" style="fill:#643421;"/>
    <path clip-path="url(#p188046bc06)" d="M 186.143392 171.330164 
L 198.736391 175.194243 
L 198.015071 118.819698 
L 185.073264 115.161242 
z
" style="fill:#d0684b;"/>
    <path clip-path="url(#p188046bc06)" d="M 277.971253 181.211726 
L 291.24765 185.184478 
L 291.262821 184.733052 
L 277.983347 180.761883 
z
" style="fill:#0b0777;"/>
    <path clip-path="url(#p188046bc06)" d="M 277.971253 181.211726 
L 278.003489 180.012697 
L 291.288088 183.981226 
L 291.24765 185.184478 
z
" style="fill:#080339;"/>
    <path clip-path="url(#p188046bc06)" d="M 170.430723 184.897786 
L 178.361455 178.049733 
L 191.031582 181.987547 
L 183.178635 188.911464 
z
" style="fill:#39005a;"/>
    <path clip-path="url(#p188046bc06)" d="M 170.430723 184.897786 
L 178.361455 178.049733 
L 178.085016 166.036247 
L 170.103481 172.81032 
z
" style="fill:#220144;"/>
    <path clip-path="url(#p188046bc06)" d="M 157.42122 168.883496 
L 170.103481 172.81032 
L 178.085016 166.036247 
L 165.479253 162.183683 
z
" style="fill:#3e017d;"/>
    <path clip-path="url(#p188046bc06)" d="M 157.822766 180.928173 
L 157.632985 175.235539 
L 170.276062 179.185029 
L 170.430723 184.897786 
z
" style="fill:#15023f;"/>
    <path clip-path="url(#p188046bc06)" d="M 198.736391 175.194243 
L 197.846589 105.652026 
L 205.67625 99.428386 
L 206.297214 168.527892 
z
" style="fill:#df972d;"/>
    <path clip-path="url(#p188046bc06)" d="M 203.841786 185.968896 
L 211.467294 179.100638 
L 224.338378 183.050047 
L 216.794403 189.994506 
z
" style="fill:#867113;"/>
    <path clip-path="url(#p188046bc06)" d="M 170.430723 184.897786 
L 169.963979 167.65748 
L 177.96718 160.915365 
L 178.361455 178.049733 
z
" style="fill:#5e0094;"/>
    <path clip-path="url(#p188046bc06)" d="M 244.670417 180.154631 
L 251.851153 173.395697 
L 252.453493 129.550027 
L 245.11987 136.032735 
z
" style="fill:#562030;"/>
    <path clip-path="url(#p188046bc06)" d="M 218.949524 172.361429 
L 231.739835 176.23678 
L 231.955816 117.878768 
L 218.793151 114.216681 
z
" style="fill:#d36f46;"/>
    <path clip-path="url(#p188046bc06)" d="M 270.961723 188.120663 
L 270.990015 186.914306 
L 278.003489 180.012697 
L 277.971253 181.211726 
z
" style="fill:#110679;"/>
    <path clip-path="url(#p188046bc06)" d="M 157.822766 180.928173 
L 170.430723 184.897786 
L 170.103481 172.81032 
L 157.42122 168.883496 
z
" style="fill:#480290;"/>
    <path clip-path="url(#p188046bc06)" d="M 257.743589 184.115686 
L 264.839875 177.282368 
L 265.337111 152.742781 
L 258.157669 159.423545 
z
" style="fill:#3a0445;"/>
    <path clip-path="url(#p188046bc06)" d="M 257.860239 177.159666 
L 271.125437 181.140005 
L 278.157783 174.273667 
L 264.979963 170.368742 
z
" style="fill:#2b0376;"/>
    <path clip-path="url(#p188046bc06)" d="M 149.662704 187.831639 
L 149.447589 182.10409 
L 157.632985 175.235539 
L 157.822766 180.928173 
z
" style="fill:#2c0485;"/>
    <path clip-path="url(#p188046bc06)" d="M 237.351973 187.043183 
L 244.670417 180.154631 
L 257.743589 184.115686 
L 250.510457 191.080779 
z
" style="fill:#875a1c;"/>
    <path clip-path="url(#p188046bc06)" d="M 191.031582 181.987547 
L 198.736391 175.194243 
L 198.219342 134.784401 
L 190.352394 141.323609 
z
" style="fill:#521a35;"/>
    <path clip-path="url(#p188046bc06)" d="M 270.961723 188.120663 
L 277.971253 181.211726 
L 278.157783 174.273667 
L 271.125437 181.140005 
z
" style="fill:#180240;"/>
    <path clip-path="url(#p188046bc06)" d="M 231.739835 176.23678 
L 244.670417 180.154631 
L 245.11987 136.032735 
L 231.902537 132.274671 
z
" style="fill:#b74367;"/>
    <path clip-path="url(#p188046bc06)" d="M 149.662704 187.831639 
L 157.822766 180.928173 
L 170.430723 184.897786 
L 162.346885 191.878042 
z
" style="fill:#1a0250;"/>
    <path clip-path="url(#p188046bc06)" d="M 244.670417 180.154631 
L 257.743589 184.115686 
L 258.157669 159.423545 
L 244.921047 155.55073 
z
" style="fill:#7b0992;"/>
    <path clip-path="url(#p188046bc06)" d="M 270.961723 188.120663 
L 277.971253 181.211726 
L 291.24765 185.184478 
L 284.327244 192.170297 
z
" style="fill:#0a0449;"/>
    <path clip-path="url(#p188046bc06)" d="M 270.990015 186.914306 
L 284.36385 190.959681 
L 291.288088 183.981226 
L 278.003489 180.012697 
z
" style="fill:#0f0569;"/>
    <path clip-path="url(#p188046bc06)" d="M 178.361455 178.049733 
L 191.031582 181.987547 
L 190.352394 141.323609 
L 177.429129 137.532778 
z
" style="fill:#ae386f;"/>
    <path clip-path="url(#p188046bc06)" d="M 257.743589 184.115686 
L 270.961723 188.120663 
L 271.125437 181.140005 
L 257.860239 177.159666 
z
" style="fill:#320488;"/>
    <path clip-path="url(#p188046bc06)" d="M 183.178635 188.911464 
L 191.031582 181.987547 
L 203.841786 185.968896 
L 196.068846 192.969946 
z
" style="fill:#530c54;"/>
    <path clip-path="url(#p188046bc06)" d="M 244.921047 155.55073 
L 258.157669 159.423545 
L 265.337111 152.742781 
L 252.18707 148.94358 
z
" style="fill:#6b087e;"/>
    <path clip-path="url(#p188046bc06)" d="M 211.467294 179.100638 
L 218.949524 172.361429 
L 218.763003 103.006845 
L 211.017422 109.300876 
z
" style="fill:#694715;"/>
    <path clip-path="url(#p188046bc06)" d="M 198.736391 175.194243 
L 197.94418 113.279243 
L 211.066771 116.957637 
L 211.467294 179.100638 
z
" style="fill:#663a1e;"/>
    <path clip-path="url(#p188046bc06)" d="M 170.430723 184.897786 
L 170.208722 176.697664 
L 183.008188 180.682262 
L 183.178635 188.911464 
z
" style="fill:#1a0241;"/>
    <path clip-path="url(#p188046bc06)" d="M 149.447589 182.10409 
L 162.16731 186.130203 
L 170.276062 179.185029 
L 157.632985 175.235539 
z
" style="fill:#260473;"/>
    <path clip-path="url(#p188046bc06)" d="M 216.794403 189.994506 
L 224.338378 183.050047 
L 237.351973 187.043183 
L 229.891821 194.06512 
z
" style="fill:#808512;"/>
    <path clip-path="url(#p188046bc06)" d="M 183.178635 188.911464 
L 191.031582 181.987547 
L 190.744376 164.792127 
L 182.82027 171.609582 
z
" style="fill:#2c0046;"/>
    <path clip-path="url(#p188046bc06)" d="M 218.949524 172.361429 
L 218.729821 90.668724 
L 232.043305 94.239187 
L 231.739835 176.23678 
z
" style="fill:#675e10;"/>
    <path clip-path="url(#p188046bc06)" d="M 284.327244 192.170297 
L 291.24765 185.184478 
L 291.288088 183.981226 
L 284.36385 190.959681 
z
" style="fill:#080339;"/>
    <path clip-path="url(#p188046bc06)" d="M 205.734166 105.87314 
L 218.780402 109.476485 
L 226.353216 103.260623 
L 213.389761 99.725917 
z
" style="fill:#bd6e34;"/>
    <path clip-path="url(#p188046bc06)" d="M 191.031582 181.987547 
L 190.555737 153.498029 
L 203.547315 157.37683 
L 203.841786 185.968896 
z
" style="fill:#410a42;"/>
    <path clip-path="url(#p188046bc06)" d="M 162.346885 191.878042 
L 170.430723 184.897786 
L 170.276062 179.185029 
L 162.16731 186.130203 
z
" style="fill:#15023f;"/>
    <path clip-path="url(#p188046bc06)" d="M 198.736391 175.194243 
L 211.467294 179.100638 
L 211.017422 109.300876 
L 197.846589 105.652026 
z
" style="fill:#df972d;"/>
    <path clip-path="url(#p188046bc06)" d="M 250.510457 191.080779 
L 257.743589 184.115686 
L 270.961723 188.120663 
L 263.816264 195.163579 
z
" style="fill:#631b49;"/>
    <path clip-path="url(#p188046bc06)" d="M 169.963979 167.65748 
L 182.82027 171.609582 
L 190.744376 164.792127 
L 177.96718 160.915365 
z
" style="fill:#520081;"/>
    <path clip-path="url(#p188046bc06)" d="M 191.031582 181.987547 
L 189.990839 119.67685 
L 197.94418 113.279243 
L 198.736391 175.194243 
z
" style="fill:#d87a3f;"/>
    <path clip-path="url(#p188046bc06)" d="M 185.073264 115.161242 
L 198.015071 118.819698 
L 205.793797 112.508789 
L 192.932709 108.920079 
z
" style="fill:#b55b41;"/>
    <path clip-path="url(#p188046bc06)" d="M 162.346885 191.878042 
L 162.08912 183.627463 
L 170.208722 176.697664 
L 170.430723 184.897786 
z
" style="fill:#38038a;"/>
    <path clip-path="url(#p188046bc06)" d="M 170.430723 184.897786 
L 183.178635 188.911464 
L 182.82027 171.609582 
L 169.963979 167.65748 
z
" style="fill:#5e0094;"/>
    <path clip-path="url(#p188046bc06)" d="M 149.662704 187.831639 
L 149.565536 185.244469 
L 162.265771 189.28173 
L 162.346885 191.878042 
z
" style="fill:#0c033b;"/>
    <path clip-path="url(#p188046bc06)" d="M 211.467294 179.100638 
L 210.937359 96.878755 
L 218.729821 90.668724 
L 218.949524 172.361429 
z
" style="fill:#dbc821;"/>
    <path clip-path="url(#p188046bc06)" d="M 270.961723 188.120663 
L 284.327244 192.170297 
L 284.36385 190.959681 
L 270.990015 186.914306 
z
" style="fill:#110679;"/>
    <path clip-path="url(#p188046bc06)" d="M 162.346885 191.878042 
L 170.430723 184.897786 
L 183.178635 188.911464 
L 175.173234 195.969799 
z
" style="fill:#220253;"/>
    <path clip-path="url(#p188046bc06)" d="M 231.902537 132.274671 
L 245.11987 136.032735 
L 252.453493 129.550027 
L 239.322052 125.86368 
z
" style="fill:#9f3a59;"/>
    <path clip-path="url(#p188046bc06)" d="M 183.178635 188.911464 
L 182.584861 160.243999 
L 190.555737 153.498029 
L 191.031582 181.987547 
z
" style="fill:#8a148c;"/>
    <path clip-path="url(#p188046bc06)" d="M 149.662704 187.831639 
L 162.346885 191.878042 
L 162.16731 186.130203 
L 149.447589 182.10409 
z
" style="fill:#2c0485;"/>
    <path clip-path="url(#p188046bc06)" d="M 177.429129 137.532778 
L 190.352394 141.323609 
L 198.219342 134.784401 
L 185.376281 131.065974 
z
" style="fill:#973161;"/>
    <path clip-path="url(#p188046bc06)" d="M 196.068846 192.969946 
L 203.841786 185.968896 
L 216.794403 189.994506 
L 209.103753 197.073984 
z
" style="fill:#6f2a3d;"/>
    <path clip-path="url(#p188046bc06)" d="M 218.793151 114.216681 
L 231.955816 117.878768 
L 239.426574 111.561657 
L 226.348639 107.969554 
z
" style="fill:#b7603d;"/>
    <path clip-path="url(#p188046bc06)" d="M 270.961723 188.120663 
L 271.161335 179.609335 
L 284.585517 183.628748 
L 284.327244 192.170297 
z
" style="fill:#1a0241;"/>
    <path clip-path="url(#p188046bc06)" d="M 141.344465 194.868925 
L 141.235424 192.265892 
L 149.565536 185.244469 
L 149.662704 187.831639 
z
" style="fill:#1a057d;"/>
    <path clip-path="url(#p188046bc06)" d="M 229.891821 194.06512 
L 237.351973 187.043183 
L 250.510457 191.080779 
L 243.136481 198.181496 
z
" style="fill:#867213;"/>
    <path clip-path="url(#p188046bc06)" d="M 183.178635 188.911464 
L 182.97065 178.869935 
L 195.925196 182.89271 
L 196.068846 192.969946 
z
" style="fill:#1e0142;"/>
    <path clip-path="url(#p188046bc06)" d="M 257.743589 184.115686 
L 258.363253 147.164345 
L 271.831467 151.035344 
L 270.961723 188.120663 
z
" style="fill:#4d1539;"/>
    <path clip-path="url(#p188046bc06)" d="M 231.739835 176.23678 
L 232.04391 94.07594 
L 245.510488 97.686527 
L 244.670417 180.154631 
z
" style="fill:#675f10;"/>
    <path clip-path="url(#p188046bc06)" d="M 263.816264 195.163579 
L 263.986929 186.599815 
L 271.161335 179.609335 
L 270.961723 188.120663 
z
" style="fill:#38038a;"/>
    <path clip-path="url(#p188046bc06)" d="M 141.344465 194.868925 
L 149.662704 187.831639 
L 162.346885 191.878042 
L 154.105465 198.994368 
z
" style="fill:#10034c;"/>
    <path clip-path="url(#p188046bc06)" d="M 162.08912 183.627463 
L 174.967651 187.689898 
L 183.008188 180.682262 
L 170.208722 176.697664 
z
" style="fill:#300378;"/>
    <path clip-path="url(#p188046bc06)" d="M 263.816264 195.163579 
L 270.961723 188.120663 
L 284.327244 192.170297 
L 277.271882 199.292348 
z
" style="fill:#220253;"/>
    <path clip-path="url(#p188046bc06)" d="M 203.841786 185.968896 
L 211.467294 179.100638 
L 211.066771 116.957637 
L 203.197674 123.428046 
z
" style="fill:#663a1e;"/>
    <path clip-path="url(#p188046bc06)" d="M 175.173234 195.969799 
L 183.178635 188.911464 
L 183.008188 180.682262 
L 174.967651 187.689898 
z
" style="fill:#1a0241;"/>
    <path clip-path="url(#p188046bc06)" d="M 175.173234 195.969799 
L 174.922373 185.866316 
L 182.97065 178.869935 
L 183.178635 188.911464 
z
" style="fill:#3f038d;"/>
    <path clip-path="url(#p188046bc06)" d="M 141.235424 192.265892 
L 154.012671 196.382119 
L 162.265771 189.28173 
L 149.565536 185.244469 
z
" style="fill:#17056d;"/>
    <path clip-path="url(#p188046bc06)" d="M 250.510457 191.080779 
L 251.000715 153.896947 
L 258.363253 147.164345 
L 257.743589 184.115686 
z
" style="fill:#a42d79;"/>
    <path clip-path="url(#p188046bc06)" d="M 224.338378 183.050047 
L 231.739835 176.23678 
L 232.043305 94.239187 
L 224.338378 100.52028 
z
" style="fill:#675e10;"/>
    <path clip-path="url(#p188046bc06)" d="M 224.338378 183.050047 
L 224.338378 100.35591 
L 232.04391 94.07594 
L 231.739835 176.23678 
z
" style="fill:#daca21;"/>
    <path clip-path="url(#p188046bc06)" d="M 175.173234 195.969799 
L 183.178635 188.911464 
L 196.068846 192.969946 
L 188.144156 200.107676 
z
" style="fill:#260255;"/>
    <path clip-path="url(#p188046bc06)" d="M 162.346885 191.878042 
L 162.230113 188.140404 
L 175.080103 192.218925 
L 175.173234 195.969799 
z
" style="fill:#10023d;"/>
    <path clip-path="url(#p188046bc06)" d="M 196.068846 192.969946 
L 203.841786 185.968896 
L 203.547315 157.37683 
L 195.658719 164.199037 
z
" style="fill:#410a42;"/>
    <path clip-path="url(#p188046bc06)" d="M 244.670417 180.154631 
L 245.380588 110.438502 
L 258.917049 114.140804 
L 257.743589 184.115686 
z
" style="fill:#694716;"/>
    <path clip-path="url(#p188046bc06)" d="M 191.031582 181.987547 
L 203.841786 185.968896 
L 203.197674 123.428046 
L 189.990839 119.67685 
z
" style="fill:#d87a3f;"/>
    <path clip-path="url(#p188046bc06)" d="M 211.467294 179.100638 
L 210.958259 100.121502 
L 224.338378 103.775879 
L 224.338378 183.050047 
z
" style="fill:#69580f;"/>
    <path clip-path="url(#p188046bc06)" d="M 162.346885 191.878042 
L 175.173234 195.969799 
L 174.967651 187.689898 
L 162.08912 183.627463 
z
" style="fill:#38038a;"/>
    <path clip-path="url(#p188046bc06)" d="M 209.103753 197.073984 
L 216.794403 189.994506 
L 229.891821 194.06512 
L 222.285805 201.224351 
z
" style="fill:#804529;"/>
    <path clip-path="url(#p188046bc06)" d="M 154.105465 198.994368 
L 162.346885 191.878042 
L 162.265771 189.28173 
L 154.012671 196.382119 
z
" style="fill:#0c033b;"/>
    <path clip-path="url(#p188046bc06)" d="M 211.467294 179.100638 
L 224.338378 183.050047 
L 224.338378 100.52028 
L 210.937359 96.878755 
z
" style="fill:#dbc821;"/>
    <path clip-path="url(#p188046bc06)" d="M 154.105465 198.994368 
L 153.971878 195.233766 
L 162.230113 188.140404 
L 162.346885 191.878042 
z
" style="fill:#210581;"/>
    <path clip-path="url(#p188046bc06)" d="M 183.178635 188.911464 
L 196.068846 192.969946 
L 195.658719 164.199037 
L 182.584861 160.243999 
z
" style="fill:#8a148c;"/>
    <path clip-path="url(#p188046bc06)" d="M 203.841786 185.968896 
L 203.377166 140.855997 
L 216.622423 144.716899 
L 216.794403 189.994506 
z
" style="fill:#572130;"/>
    <path clip-path="url(#p188046bc06)" d="M 237.351973 187.043183 
L 237.811033 116.877983 
L 245.380588 110.438502 
L 244.670417 180.154631 
z
" style="fill:#df962e;"/>
    <path clip-path="url(#p188046bc06)" d="M 243.136481 198.181496 
L 250.510457 191.080779 
L 263.816264 195.163579 
L 256.530882 202.34441 
z
" style="fill:#763236;"/>
    <path clip-path="url(#p188046bc06)" d="M 263.986929 186.599815 
L 277.502011 190.698114 
L 284.585517 183.628748 
L 271.161335 179.609335 
z
" style="fill:#300378;"/>
    <path clip-path="url(#p188046bc06)" d="M 203.841786 185.968896 
L 203.023101 106.477705 
L 210.958259 100.121502 
L 211.467294 179.100638 
z
" style="fill:#debb20;"/>
    <path clip-path="url(#p188046bc06)" d="M 277.271882 199.292348 
L 284.327244 192.170297 
L 284.585517 183.628748 
L 277.502011 190.698114 
z
" style="fill:#1a0241;"/>
    <path clip-path="url(#p188046bc06)" d="M 141.344465 194.868925 
L 154.105465 198.994368 
L 154.012671 196.382119 
L 141.235424 192.265892 
z
" style="fill:#1a057d;"/>
    <path clip-path="url(#p188046bc06)" d="M 154.105465 198.994368 
L 162.346885 191.878042 
L 175.173234 195.969799 
L 167.010898 203.166503 
z
" style="fill:#14034e;"/>
    <path clip-path="url(#p188046bc06)" d="M 196.068846 192.969946 
L 195.866925 178.804938 
L 208.994321 182.858382 
L 209.103753 197.073984 
z
" style="fill:#260045;"/>
    <path clip-path="url(#p188046bc06)" d="M 196.068846 192.969946 
L 195.42169 147.571224 
L 203.377166 140.855997 
L 203.841786 185.968896 
z
" style="fill:#b94565;"/>
    <path clip-path="url(#p188046bc06)" d="M 182.584861 160.243999 
L 195.658719 164.199037 
L 203.547315 157.37683 
L 190.555737 153.498029 
z
" style="fill:#771279;"/>
    <path clip-path="url(#p188046bc06)" d="M 174.922373 185.866316 
L 187.958432 189.968193 
L 195.925196 182.89271 
L 182.97065 178.869935 
z
" style="fill:#37027a;"/>
    <path clip-path="url(#p188046bc06)" d="M 188.144156 200.107676 
L 196.068846 192.969946 
L 195.925196 182.89271 
L 187.958432 189.968193 
z
" style="fill:#1e0142;"/>
    <path clip-path="url(#p188046bc06)" d="M 263.816264 195.163579 
L 270.961723 188.120663 
L 271.831467 151.035344 
L 264.559986 157.844586 
z
" style="fill:#4d1539;"/>
    <path clip-path="url(#p188046bc06)" d="M 197.846589 105.652026 
L 211.017422 109.300876 
L 218.763003 103.006845 
L 205.67625 99.428386 
z
" style="fill:#c28327;"/>
    <path clip-path="url(#p188046bc06)" d="M 237.351973 187.043183 
L 244.670417 180.154631 
L 245.510488 97.686527 
L 237.895034 104.03878 
z
" style="fill:#675f10;"/>
    <path clip-path="url(#p188046bc06)" d="M 188.144156 200.107676 
L 196.068846 192.969946 
L 209.103753 197.073984 
L 201.262108 204.292457 
z
" style="fill:#300158;"/>
    <path clip-path="url(#p188046bc06)" d="M 263.816264 195.163579 
L 277.271882 199.292348 
L 277.502011 190.698114 
L 263.986929 186.599815 
z
" style="fill:#38038a;"/>
    <path clip-path="url(#p188046bc06)" d="M 175.173234 195.969799 
L 175.062796 191.521873 
L 188.062395 195.643973 
L 188.144156 200.107676 
z
" style="fill:#11023d;"/>
    <path clip-path="url(#p188046bc06)" d="M 153.971878 195.233766 
L 166.901239 199.392559 
L 175.080103 192.218925 
L 162.230113 188.140404 
z
" style="fill:#1d0470;"/>
    <path clip-path="url(#p188046bc06)" d="M 188.144156 200.107676 
L 187.883089 185.854884 
L 195.866925 178.804938 
L 196.068846 192.969946 
z
" style="fill:#500192;"/>
    <path clip-path="url(#p188046bc06)" d="M 222.285805 201.224351 
L 229.891821 194.06512 
L 243.136481 198.181496 
L 235.617509 205.421836 
z
" style="fill:#844d24;"/>
    <path clip-path="url(#p188046bc06)" d="M 175.173234 195.969799 
L 188.144156 200.107676 
L 187.958432 189.968193 
L 174.922373 185.866316 
z
" style="fill:#3f038d;"/>
    <path clip-path="url(#p188046bc06)" d="M 250.510457 191.080779 
L 263.816264 195.163579 
L 264.559986 157.844586 
L 251.000715 153.896947 
z
" style="fill:#a42d79;"/>
    <path clip-path="url(#p188046bc06)" d="M 224.338378 183.050047 
L 237.351973 187.043183 
L 237.895034 104.03878 
L 224.338378 100.35591 
z
" style="fill:#daca21;"/>
    <path clip-path="url(#p188046bc06)" d="M 167.010898 203.166503 
L 175.173234 195.969799 
L 175.080103 192.218925 
L 166.901239 199.392559 
z
" style="fill:#10023d;"/>
    <path clip-path="url(#p188046bc06)" d="M 263.816264 195.163579 
L 264.146744 178.580542 
L 277.717518 182.649929 
L 277.271882 199.292348 
z
" style="fill:#2b0046;"/>
    <path clip-path="url(#p188046bc06)" d="M 167.010898 203.166503 
L 166.88086 198.691204 
L 175.062796 191.521873 
L 175.173234 195.969799 
z
" style="fill:#250582;"/>
    <path clip-path="url(#p188046bc06)" d="M 250.510457 191.080779 
L 257.743589 184.115686 
L 258.917049 114.140804 
L 251.43901 120.654369 
z
" style="fill:#694716;"/>
    <path clip-path="url(#p188046bc06)" d="M 256.530882 202.34441 
L 263.816264 195.163579 
L 277.271882 199.292348 
L 270.077576 206.554656 
z
" style="fill:#370059;"/>
    <path clip-path="url(#p188046bc06)" d="M 224.338378 183.050047 
L 224.338378 95.762755 
L 237.925205 99.427272 
L 237.351973 187.043183 
z
" style="fill:#64680e;"/>
    <path clip-path="url(#p188046bc06)" d="M 216.794403 189.994506 
L 224.338378 183.050047 
L 224.338378 103.775879 
L 216.491336 110.205429 
z
" style="fill:#69580f;"/>
    <path clip-path="url(#p188046bc06)" d="M 167.010898 203.166503 
L 175.173234 195.969799 
L 188.144156 200.107676 
L 180.063228 207.386128 
z
" style="fill:#16034f;"/>
    <path clip-path="url(#p188046bc06)" d="M 154.105465 198.994368 
L 167.010898 203.166503 
L 166.901239 199.392559 
L 153.971878 195.233766 
z
" style="fill:#210581;"/>
    <path clip-path="url(#p188046bc06)" d="M 256.530882 202.34441 
L 256.803035 185.658342 
L 264.146744 178.580542 
L 263.816264 195.163579 
z
" style="fill:#5b0094;"/>
    <path clip-path="url(#p188046bc06)" d="M 209.103753 197.073984 
L 216.794403 189.994506 
L 216.622423 144.716899 
L 208.752994 151.509081 
z
" style="fill:#572130;"/>
    <path clip-path="url(#p188046bc06)" d="M 237.351973 187.043183 
L 250.510457 191.080779 
L 251.43901 120.654369 
L 237.811033 116.877983 
z
" style="fill:#df962e;"/>
    <path clip-path="url(#p188046bc06)" d="M 250.510457 191.080779 
L 251.17297 140.832229 
L 264.821334 144.73052 
L 263.816264 195.163579 
z
" style="fill:#5c272b;"/>
    <path clip-path="url(#p188046bc06)" d="M 216.794403 189.994506 
L 216.460688 102.136855 
L 224.338378 95.762755 
L 224.338378 183.050047 
z
" style="fill:#d4dc1e;"/>
    <path clip-path="url(#p188046bc06)" d="M 203.841786 185.968896 
L 216.794403 189.994506 
L 216.491336 110.205429 
L 203.023101 106.477705 
z
" style="fill:#debb20;"/>
    <path clip-path="url(#p188046bc06)" d="M 209.103753 197.073984 
L 208.959862 178.382041 
L 222.266308 182.465327 
L 222.285805 201.224351 
z
" style="fill:#2f0046;"/>
    <path clip-path="url(#p188046bc06)" d="M 201.262108 204.292457 
L 209.103753 197.073984 
L 222.285805 201.224351 
L 214.529606 208.524945 
z
" style="fill:#3c005a;"/>
    <path clip-path="url(#p188046bc06)" d="M 189.990839 119.67685 
L 203.197674 123.428046 
L 211.066771 116.957637 
L 197.94418 113.279243 
z
" style="fill:#bc6a36;"/>
    <path clip-path="url(#p188046bc06)" d="M 188.144156 200.107676 
L 188.054533 195.214759 
L 201.204643 199.382161 
L 201.262108 204.292457 
z
" style="fill:#12023e;"/>
    <path clip-path="url(#p188046bc06)" d="M 216.794403 189.994506 
L 216.565803 129.810666 
L 230.061072 133.65868 
L 229.891821 194.06512 
z
" style="fill:#643620;"/>
    <path clip-path="url(#p188046bc06)" d="M 251.000715 153.896947 
L 264.559986 157.844586 
L 271.831467 151.035344 
L 258.363253 147.164345 
z
" style="fill:#8e2769;"/>
    <path clip-path="url(#p188046bc06)" d="M 166.88086 198.691204 
L 179.962224 202.894928 
L 188.062395 195.643973 
L 175.062796 191.521873 
z
" style="fill:#200471;"/>
    <path clip-path="url(#p188046bc06)" d="M 201.262108 204.292457 
L 209.103753 197.073984 
L 208.994321 182.858382 
L 201.09471 189.988656 
z
" style="fill:#260045;"/>
    <path clip-path="url(#p188046bc06)" d="M 196.068846 192.969946 
L 209.103753 197.073984 
L 208.752994 151.509081 
L 195.42169 147.571224 
z
" style="fill:#b94565;"/>
    <path clip-path="url(#p188046bc06)" d="M 237.351973 187.043183 
L 237.878192 106.612987 
L 251.574886 110.348839 
L 250.510457 191.080779 
z
" style="fill:#68590f;"/>
    <path clip-path="url(#p188046bc06)" d="M 235.617509 205.421836 
L 243.136481 198.181496 
L 256.530882 202.34441 
L 249.101427 209.667246 
z
" style="fill:#702a3c;"/>
    <path clip-path="url(#p188046bc06)" d="M 187.883089 185.854884 
L 201.09471 189.988656 
L 208.994321 182.858382 
L 195.866925 178.804938 
z
" style="fill:#46017f;"/>
    <path clip-path="url(#p188046bc06)" d="M 243.136481 198.181496 
L 243.617083 147.612761 
L 251.17297 140.832229 
L 250.510457 191.080779 
z
" style="fill:#c3535a;"/>
    <path clip-path="url(#p188046bc06)" d="M 201.262108 204.292457 
L 201.041994 185.484123 
L 208.959862 178.382041 
L 209.103753 197.073984 
z
" style="fill:#640095;"/>
    <path clip-path="url(#p188046bc06)" d="M 180.063228 207.386128 
L 188.144156 200.107676 
L 188.062395 195.643973 
L 179.962224 202.894928 
z
" style="fill:#11023d;"/>
    <path clip-path="url(#p188046bc06)" d="M 180.063228 207.386128 
L 179.952512 202.46306 
L 188.054533 195.214759 
L 188.144156 200.107676 
z
" style="fill:#270483;"/>
    <path clip-path="url(#p188046bc06)" d="M 209.103753 197.073984 
L 208.637484 136.503845 
L 216.565803 129.810666 
L 216.794403 189.994506 
z
" style="fill:#d57244;"/>
    <path clip-path="url(#p188046bc06)" d="M 188.144156 200.107676 
L 201.262108 204.292457 
L 201.09471 189.988656 
L 187.883089 185.854884 
z
" style="fill:#500192;"/>
    <path clip-path="url(#p188046bc06)" d="M 229.891821 194.06512 
L 230.118644 113.111231 
L 237.878192 106.612987 
L 237.351973 187.043183 
z
" style="fill:#ddbe20;"/>
    <path clip-path="url(#p188046bc06)" d="M 180.063228 207.386128 
L 188.144156 200.107676 
L 201.262108 204.292457 
L 193.264978 211.654059 
z
" style="fill:#17034f;"/>
    <path clip-path="url(#p188046bc06)" d="M 270.077576 206.554656 
L 277.271882 199.292348 
L 277.717518 182.649929 
L 270.466468 189.808719 
z
" style="fill:#2b0046;"/>
    <path clip-path="url(#p188046bc06)" d="M 167.010898 203.166503 
L 180.063228 207.386128 
L 179.962224 202.894928 
L 166.88086 198.691204 
z
" style="fill:#250582;"/>
    <path clip-path="url(#p188046bc06)" d="M 229.891821 194.06512 
L 237.351973 187.043183 
L 237.925205 99.427272 
L 230.138917 105.875644 
z
" style="fill:#64680e;"/>
    <path clip-path="url(#p188046bc06)" d="M 214.529606 208.524945 
L 222.285805 201.224351 
L 235.617509 205.421836 
L 227.94922 212.80596 
z
" style="fill:#4a0558;"/>
    <path clip-path="url(#p188046bc06)" d="M 256.803035 185.658342 
L 270.466468 189.808719 
L 277.717518 182.649929 
L 264.146744 178.580542 
z
" style="fill:#4f0080;"/>
    <path clip-path="url(#p188046bc06)" d="M 210.937359 96.878755 
L 224.338378 100.52028 
L 232.043305 94.239187 
L 218.729821 90.668724 
z
" style="fill:#beae1d;"/>
    <path clip-path="url(#p188046bc06)" d="M 256.530882 202.34441 
L 256.780085 187.065409 
L 270.433673 191.220896 
L 270.077576 206.554656 
z
" style="fill:#280045;"/>
    <path clip-path="url(#p188046bc06)" d="M 201.262108 204.292457 
L 201.200511 199.029064 
L 214.503274 203.242833 
L 214.529606 208.524945 
z
" style="fill:#13023e;"/>
    <path clip-path="url(#p188046bc06)" d="M 256.530882 202.34441 
L 270.077576 206.554656 
L 270.466468 189.808719 
L 256.803035 185.658342 
z
" style="fill:#5b0094;"/>
    <path clip-path="url(#p188046bc06)" d="M 179.952512 202.46306 
L 193.186829 206.713474 
L 201.204643 199.382161 
L 188.054533 195.214759 
z
" style="fill:#220472;"/>
    <path clip-path="url(#p188046bc06)" d="M 222.285805 201.224351 
L 222.260157 176.546623 
L 235.759261 180.655021 
L 235.617509 205.421836 
z
" style="fill:#390445;"/>
    <path clip-path="url(#p188046bc06)" d="M 229.891821 194.06512 
L 230.072448 129.598616 
L 243.751444 133.475431 
L 243.136481 198.181496 
z
" style="fill:#673d1c;"/>
    <path clip-path="url(#p188046bc06)" d="M 249.101427 209.667246 
L 256.530882 202.34441 
L 270.077576 206.554656 
L 262.740181 213.961405 
z
" style="fill:#330059;"/>
    <path clip-path="url(#p188046bc06)" d="M 195.42169 147.571224 
L 208.752994 151.509081 
L 216.622423 144.716899 
L 203.377166 140.855997 
z
" style="fill:#a03c58;"/>
    <path clip-path="url(#p188046bc06)" d="M 256.530882 202.34441 
L 263.816264 195.163579 
L 264.821334 144.73052 
L 257.358704 151.589516 
z
" style="fill:#5c272b;"/>
    <path clip-path="url(#p188046bc06)" d="M 216.794403 189.994506 
L 229.891821 194.06512 
L 230.138917 105.875644 
L 216.460688 102.136855 
z
" style="fill:#d4dc1e;"/>
    <path clip-path="url(#p188046bc06)" d="M 214.529606 208.524945 
L 222.285805 201.224351 
L 222.266308 182.465327 
L 214.435506 189.648979 
z
" style="fill:#2f0046;"/>
    <path clip-path="url(#p188046bc06)" d="M 243.136481 198.181496 
L 243.574297 152.114768 
L 257.284995 156.108691 
L 256.530882 202.34441 
z
" style="fill:#57212f;"/>
    <path clip-path="url(#p188046bc06)" d="M 249.101427 209.667246 
L 249.295029 194.293239 
L 256.780085 187.065409 
L 256.530882 202.34441 
z
" style="fill:#540193;"/>
    <path clip-path="url(#p188046bc06)" d="M 193.264978 211.654059 
L 201.262108 204.292457 
L 201.204643 199.382161 
L 193.186829 206.713474 
z
" style="fill:#12023e;"/>
    <path clip-path="url(#p188046bc06)" d="M 222.285805 201.224351 
L 229.891821 194.06512 
L 230.061072 133.65868 
L 222.222619 140.429577 
z
" style="fill:#643620;"/>
    <path clip-path="url(#p188046bc06)" d="M 193.264978 211.654059 
L 193.181209 206.35819 
L 201.200511 199.029064 
L 201.262108 204.292457 
z
" style="fill:#280484;"/>
    <path clip-path="url(#p188046bc06)" d="M 214.529606 208.524945 
L 214.405812 183.692645 
L 222.260157 176.546623 
L 222.285805 201.224351 
z
" style="fill:#7a0892;"/>
    <path clip-path="url(#p188046bc06)" d="M 243.136481 198.181496 
L 250.510457 191.080779 
L 251.574886 110.348839 
L 243.908757 116.922977 
z
" style="fill:#68590f;"/>
    <path clip-path="url(#p188046bc06)" d="M 222.285805 201.224351 
L 222.218371 136.342112 
L 230.072448 129.598616 
L 229.891821 194.06512 
z
" style="fill:#da803b;"/>
    <path clip-path="url(#p188046bc06)" d="M 243.136481 198.181496 
L 256.530882 202.34441 
L 257.358704 151.589516 
L 243.617083 147.612761 
z
" style="fill:#c3535a;"/>
    <path clip-path="url(#p188046bc06)" d="M 201.041994 185.484123 
L 214.435506 189.648979 
L 222.266308 182.465327 
L 208.959862 178.382041 
z
" style="fill:#560081;"/>
    <path clip-path="url(#p188046bc06)" d="M 201.262108 204.292457 
L 214.529606 208.524945 
L 214.435506 189.648979 
L 201.041994 185.484123 
z
" style="fill:#640095;"/>
    <path clip-path="url(#p188046bc06)" d="M 193.264978 211.654059 
L 201.262108 204.292457 
L 214.529606 208.524945 
L 206.61873 215.971129 
z
" style="fill:#18034f;"/>
    <path clip-path="url(#p188046bc06)" d="M 180.063228 207.386128 
L 193.264978 211.654059 
L 193.186829 206.713474 
L 179.952512 202.46306 
z
" style="fill:#270483;"/>
    <path clip-path="url(#p188046bc06)" d="M 235.617509 205.421836 
L 235.882848 159.061868 
L 243.574297 152.114768 
L 243.136481 198.181496 
z
" style="fill:#b94664;"/>
    <path clip-path="url(#p188046bc06)" d="M 209.103753 197.073984 
L 222.285805 201.224351 
L 222.222619 140.429577 
L 208.637484 136.503845 
z
" style="fill:#d57244;"/>
    <path clip-path="url(#p188046bc06)" d="M 237.811033 116.877983 
L 251.43901 120.654369 
L 258.917049 114.140804 
L 245.380588 110.438502 
z
" style="fill:#c28228;"/>
    <path clip-path="url(#p188046bc06)" d="M 229.891821 194.06512 
L 243.136481 198.181496 
L 243.908757 116.922977 
L 230.118644 113.111231 
z
" style="fill:#ddbe20;"/>
    <path clip-path="url(#p188046bc06)" d="M 227.94922 212.80596 
L 235.617509 205.421836 
L 249.101427 209.667246 
L 241.523583 217.136342 
z
" style="fill:#4b0658;"/>
    <path clip-path="url(#p188046bc06)" d="M 224.338378 100.35591 
L 237.895034 104.03878 
L 245.510488 97.686527 
L 232.04391 94.07594 
z
" style="fill:#bdaf1d;"/>
    <path clip-path="url(#p188046bc06)" d="M 214.529606 208.524945 
L 214.503674 203.323182 
L 227.958821 207.58568 
L 227.94922 212.80596 
z
" style="fill:#13023e;"/>
    <path clip-path="url(#p188046bc06)" d="M 193.181209 206.35819 
L 206.570685 210.656395 
L 214.503274 203.242833 
L 201.200511 199.029064 
z
" style="fill:#230472;"/>
    <path clip-path="url(#p188046bc06)" d="M 235.617509 205.421836 
L 235.762585 180.074099 
L 249.42178 184.227855 
L 249.101427 209.667246 
z
" style="fill:#3b0545;"/>
    <path clip-path="url(#p188046bc06)" d="M 262.740181 213.961405 
L 270.077576 206.554656 
L 270.433673 191.220896 
L 263.04215 198.532201 
z
" style="fill:#280045;"/>
    <path clip-path="url(#p188046bc06)" d="M 206.61873 215.971129 
L 206.571416 210.737243 
L 214.503674 203.323182 
L 214.529606 208.524945 
z
" style="fill:#280484;"/>
    <path clip-path="url(#p188046bc06)" d="M 206.61873 215.971129 
L 214.529606 208.524945 
L 214.503274 203.242833 
L 206.570685 210.656395 
z
" style="fill:#13023e;"/>
    <path clip-path="url(#p188046bc06)" d="M 203.023101 106.477705 
L 216.491336 110.205429 
L 224.338378 103.775879 
L 210.958259 100.121502 
z
" style="fill:#c1a21c;"/>
    <path clip-path="url(#p188046bc06)" d="M 227.94922 212.80596 
L 235.617509 205.421836 
L 235.759261 180.655021 
L 227.995056 187.88384 
z
" style="fill:#390445;"/>
    <path clip-path="url(#p188046bc06)" d="M 227.94922 212.80596 
L 227.996131 187.2992 
L 235.762585 180.074099 
L 235.617509 205.421836 
z
" style="fill:#7c0a91;"/>
    <path clip-path="url(#p188046bc06)" d="M 249.295029 194.293239 
L 263.04215 198.532201 
L 270.433673 191.220896 
L 256.780085 187.065409 
z
" style="fill:#49007f;"/>
    <path clip-path="url(#p188046bc06)" d="M 235.617509 205.421836 
L 243.136481 198.181496 
L 243.751444 133.475431 
L 235.990243 140.297845 
z
" style="fill:#673d1c;"/>
    <path clip-path="url(#p188046bc06)" d="M 249.101427 209.667246 
L 249.255609 197.42354 
L 262.980664 201.673853 
L 262.740181 213.961405 
z
" style="fill:#220144;"/>
    <path clip-path="url(#p188046bc06)" d="M 206.61873 215.971129 
L 214.529606 208.524945 
L 227.94922 212.80596 
L 220.127123 220.338193 
z
" style="fill:#18034f;"/>
    <path clip-path="url(#p188046bc06)" d="M 249.101427 209.667246 
L 262.740181 213.961405 
L 263.04215 198.532201 
L 249.295029 194.293239 
z
" style="fill:#540193;"/>
    <path clip-path="url(#p188046bc06)" d="M 249.101427 209.667246 
L 256.530882 202.34441 
L 257.284995 156.108691 
L 249.687376 163.136814 
z
" style="fill:#57212f;"/>
    <path clip-path="url(#p188046bc06)" d="M 193.264978 211.654059 
L 206.61873 215.971129 
L 206.570685 210.656395 
L 193.181209 206.35819 
z
" style="fill:#280484;"/>
    <path clip-path="url(#p188046bc06)" d="M 214.529606 208.524945 
L 227.94922 212.80596 
L 227.995056 187.88384 
L 214.405812 183.692645 
z
" style="fill:#7a0892;"/>
    <path clip-path="url(#p188046bc06)" d="M 243.617083 147.612761 
L 257.358704 151.589516 
L 264.821334 144.73052 
L 251.17297 140.832229 
z
" style="fill:#a9484e;"/>
    <path clip-path="url(#p188046bc06)" d="M 222.285805 201.224351 
L 235.617509 205.421836 
L 235.990243 140.297845 
L 222.218371 136.342112 
z
" style="fill:#da803b;"/>
    <path clip-path="url(#p188046bc06)" d="M 241.523583 217.136342 
L 249.101427 209.667246 
L 262.740181 213.961405 
L 255.255385 221.516949 
z
" style="fill:#2b0157;"/>
    <path clip-path="url(#p188046bc06)" d="M 227.94922 212.80596 
L 227.955399 209.446452 
L 241.553159 213.764883 
L 241.523583 217.136342 
z
" style="fill:#0f023c;"/>
    <path clip-path="url(#p188046bc06)" d="M 241.523583 217.136342 
L 241.631658 204.816566 
L 249.255609 197.42354 
L 249.101427 209.667246 
z
" style="fill:#480290;"/>
    <path clip-path="url(#p188046bc06)" d="M 235.617509 205.421836 
L 249.101427 209.667246 
L 249.687376 163.136814 
L 235.882848 159.061868 
z
" style="fill:#b94664;"/>
    <path clip-path="url(#p188046bc06)" d="M 214.405812 183.692645 
L 227.995056 187.88384 
L 235.759261 180.655021 
L 222.260157 176.546623 
z
" style="fill:#6a077f;"/>
    <path clip-path="url(#p188046bc06)" d="M 206.571416 210.737243 
L 220.115813 215.085648 
L 227.958821 207.58568 
L 214.503674 203.323182 
z
" style="fill:#230472;"/>
    <path clip-path="url(#p188046bc06)" d="M 220.127123 220.338193 
L 220.119844 216.957953 
L 227.955399 209.446452 
L 227.94922 212.80596 
z
" style="fill:#200580;"/>
    <path clip-path="url(#p188046bc06)" d="M 220.127123 220.338193 
L 227.94922 212.80596 
L 227.958821 207.58568 
L 220.115813 215.085648 
z
" style="fill:#13023e;"/>
    <path clip-path="url(#p188046bc06)" d="M 208.637484 136.503845 
L 222.222619 140.429577 
L 230.061072 133.65868 
L 216.565803 129.810666 
z
" style="fill:#b9633b;"/>
    <path clip-path="url(#p188046bc06)" d="M 241.523583 217.136342 
L 249.101427 209.667246 
L 249.42178 184.227855 
L 241.748153 191.537183 
z
" style="fill:#3b0545;"/>
    <path clip-path="url(#p188046bc06)" d="M 220.127123 220.338193 
L 227.94922 212.80596 
L 241.523583 217.136342 
L 233.792858 224.756123 
z
" style="fill:#13034d;"/>
    <path clip-path="url(#p188046bc06)" d="M 206.61873 215.971129 
L 220.127123 220.338193 
L 220.115813 215.085648 
L 206.571416 210.737243 
z
" style="fill:#280484;"/>
    <path clip-path="url(#p188046bc06)" d="M 241.523583 217.136342 
L 241.533651 215.988661 
L 255.273603 220.365189 
L 255.255385 221.516949 
z
" style="fill:#080339;"/>
    <path clip-path="url(#p188046bc06)" d="M 227.94922 212.80596 
L 241.523583 217.136342 
L 241.748153 191.537183 
L 227.996131 187.2992 
z
" style="fill:#7c0a91;"/>
    <path clip-path="url(#p188046bc06)" d="M 220.119844 216.957953 
L 233.809294 221.363843 
L 241.553159 213.764883 
L 227.955399 209.446452 
z
" style="fill:#1b046f;"/>
    <path clip-path="url(#p188046bc06)" d="M 255.255385 221.516949 
L 262.740181 213.961405 
L 262.980664 201.673853 
L 255.450954 209.152987 
z
" style="fill:#220144;"/>
    <path clip-path="url(#p188046bc06)" d="M 241.631658 204.816566 
L 255.450954 209.152987 
L 262.980664 201.673853 
L 249.255609 197.42354 
z
" style="fill:#3e017d;"/>
    <path clip-path="url(#p188046bc06)" d="M 216.460688 102.136855 
L 230.138917 105.875644 
L 237.925205 99.427272 
L 224.338378 95.762755 
z
" style="fill:#b8bf1a;"/>
    <path clip-path="url(#p188046bc06)" d="M 227.996131 187.2992 
L 241.748153 191.537183 
L 249.42178 184.227855 
L 235.762585 180.074099 
z
" style="fill:#6c087e;"/>
    <path clip-path="url(#p188046bc06)" d="M 233.792858 224.756123 
L 233.798453 223.601368 
L 241.533651 215.988661 
L 241.523583 217.136342 
z
" style="fill:#110679;"/>
    <path clip-path="url(#p188046bc06)" d="M 235.882848 159.061868 
L 249.687376 163.136814 
L 257.284995 156.108691 
L 243.574297 152.114768 
z
" style="fill:#a13d57;"/>
    <path clip-path="url(#p188046bc06)" d="M 233.792858 224.756123 
L 241.523583 217.136342 
L 241.553159 213.764883 
L 233.809294 221.363843 
z
" style="fill:#0f023c;"/>
    <path clip-path="url(#p188046bc06)" d="M 241.523583 217.136342 
L 255.255385 221.516949 
L 255.450954 209.152987 
L 241.631658 204.816566 
z
" style="fill:#480290;"/>
    <path clip-path="url(#p188046bc06)" d="M 230.118644 113.111231 
L 243.908757 116.922977 
L 251.574886 110.348839 
L 237.878192 106.612987 
z
" style="fill:#c0a51c;"/>
    <path clip-path="url(#p188046bc06)" d="M 233.792858 224.756123 
L 241.523583 217.136342 
L 255.255385 221.516949 
L 247.618703 229.225814 
z
" style="fill:#0a0449;"/>
    <path clip-path="url(#p188046bc06)" d="M 220.127123 220.338193 
L 233.792858 224.756123 
L 233.809294 221.363843 
L 220.119844 216.957953 
z
" style="fill:#200580;"/>
    <path clip-path="url(#p188046bc06)" d="M 233.798453 223.601368 
L 247.63256 228.066951 
L 255.273603 220.365189 
L 241.533651 215.988661 
z
" style="fill:#0f0569;"/>
    <path clip-path="url(#p188046bc06)" d="M 222.218371 136.342112 
L 235.990243 140.297845 
L 243.751444 133.475431 
L 230.072448 129.598616 
z
" style="fill:#bd6f33;"/>
    <path clip-path="url(#p188046bc06)" d="M 247.618703 229.225814 
L 255.255385 221.516949 
L 255.273603 220.365189 
L 247.63256 228.066951 
z
" style="fill:#080339;"/>
    <path clip-path="url(#p188046bc06)" d="M 233.792858 224.756123 
L 247.618703 229.225814 
L 247.63256 228.066951 
L 233.798453 223.601368 
z
" style="fill:#110679;"/>
   </g>
   <g id="text_17">
    <!-- W30__H15__A100_bars_extracted.txt -->
    <g transform="translate(110.101875 28.56)scale(0.12 -0.12)">
     <defs>
      <path d="M 3.328125 72.90625 
L 13.28125 72.90625 
L 28.609375 11.28125 
L 43.890625 72.90625 
L 54.984375 72.90625 
L 70.3125 11.28125 
L 85.59375 72.90625 
L 95.609375 72.90625 
L 77.296875 0 
L 64.890625 0 
L 49.515625 63.28125 
L 33.984375 0 
L 21.578125 0 
z
" id="DejaVuSans-87"/>
      <path d="M 50.984375 -16.609375 
L 50.984375 -23.578125 
L -0.984375 -23.578125 
L -0.984375 -16.609375 
z
" id="DejaVuSans-95"/>
      <path d="M 9.8125 72.90625 
L 19.671875 72.90625 
L 19.671875 43.015625 
L 55.515625 43.015625 
L 55.515625 72.90625 
L 65.375 72.90625 
L 65.375 0 
L 55.515625 0 
L 55.515625 34.71875 
L 19.671875 34.71875 
L 19.671875 0 
L 9.8125 0 
z
" id="DejaVuSans-72"/>
      <path d="M 34.1875 63.1875 
L 20.796875 26.90625 
L 47.609375 26.90625 
z
M 28.609375 72.90625 
L 39.796875 72.90625 
L 67.578125 0 
L 57.328125 0 
L 50.6875 18.703125 
L 17.828125 18.703125 
L 11.1875 0 
L 0.78125 0 
z
" id="DejaVuSans-65"/>
      <path d="M 48.6875 27.296875 
Q 48.6875 37.203125 44.609375 42.84375 
Q 40.53125 48.484375 33.40625 48.484375 
Q 26.265625 48.484375 22.1875 42.84375 
Q 18.109375 37.203125 18.109375 27.296875 
Q 18.109375 17.390625 22.1875 11.75 
Q 26.265625 6.109375 33.40625 6.109375 
Q 40.53125 6.109375 44.609375 11.75 
Q 48.6875 17.390625 48.6875 27.296875 
z
M 18.109375 46.390625 
Q 20.953125 51.265625 25.265625 53.625 
Q 29.59375 56 35.59375 56 
Q 45.5625 56 51.78125 48.09375 
Q 58.015625 40.1875 58.015625 27.296875 
Q 58.015625 14.40625 51.78125 6.484375 
Q 45.5625 -1.421875 35.59375 -1.421875 
Q 29.59375 -1.421875 25.265625 0.953125 
Q 20.953125 3.328125 18.109375 8.203125 
L 18.109375 0 
L 9.078125 0 
L 9.078125 75.984375 
L 18.109375 75.984375 
z
" id="DejaVuSans-98"/>
      <path d="M 34.28125 27.484375 
Q 23.390625 27.484375 19.1875 25 
Q 14.984375 22.515625 14.984375 16.5 
Q 14.984375 11.71875 18.140625 8.90625 
Q 21.296875 6.109375 26.703125 6.109375 
Q 34.1875 6.109375 38.703125 11.40625 
Q 43.21875 16.703125 43.21875 25.484375 
L 43.21875 27.484375 
z
M 52.203125 31.203125 
L 52.203125 0 
L 43.21875 0 
L 43.21875 8.296875 
Q 40.140625 3.328125 35.546875 0.953125 
Q 30.953125 -1.421875 24.3125 -1.421875 
Q 15.921875 -1.421875 10.953125 3.296875 
Q 6 8.015625 6 15.921875 
Q 6 25.140625 12.171875 29.828125 
Q 18.359375 34.515625 30.609375 34.515625 
L 43.21875 34.515625 
L 43.21875 35.40625 
Q 43.21875 41.609375 39.140625 45 
Q 35.0625 48.390625 27.6875 48.390625 
Q 23 48.390625 18.546875 47.265625 
Q 14.109375 46.140625 10.015625 43.890625 
L 10.015625 52.203125 
Q 14.9375 54.109375 19.578125 55.046875 
Q 24.21875 56 28.609375 56 
Q 40.484375 56 46.34375 49.84375 
Q 52.203125 43.703125 52.203125 31.203125 
z
" id="DejaVuSans-97"/>
      <path d="M 41.109375 46.296875 
Q 39.59375 47.171875 37.8125 47.578125 
Q 36.03125 48 33.890625 48 
Q 26.265625 48 22.1875 43.046875 
Q 18.109375 38.09375 18.109375 28.8125 
L 18.109375 0 
L 9.078125 0 
L 9.078125 54.6875 
L 18.109375 54.6875 
L 18.109375 46.1875 
Q 20.953125 51.171875 25.484375 53.578125 
Q 30.03125 56 36.53125 56 
Q 37.453125 56 38.578125 55.875 
Q 39.703125 55.765625 41.0625 55.515625 
z
" id="DejaVuSans-114"/>
      <path d="M 44.28125 53.078125 
L 44.28125 44.578125 
Q 40.484375 46.53125 36.375 47.5 
Q 32.28125 48.484375 27.875 48.484375 
Q 21.1875 48.484375 17.84375 46.4375 
Q 14.5 44.390625 14.5 40.28125 
Q 14.5 37.15625 16.890625 35.375 
Q 19.28125 33.59375 26.515625 31.984375 
L 29.59375 31.296875 
Q 39.15625 29.25 43.1875 25.515625 
Q 47.21875 21.78125 47.21875 15.09375 
Q 47.21875 7.46875 41.1875 3.015625 
Q 35.15625 -1.421875 24.609375 -1.421875 
Q 20.21875 -1.421875 15.453125 -0.5625 
Q 10.6875 0.296875 5.421875 2 
L 5.421875 11.28125 
Q 10.40625 8.6875 15.234375 7.390625 
Q 20.0625 6.109375 24.8125 6.109375 
Q 31.15625 6.109375 34.5625 8.28125 
Q 37.984375 10.453125 37.984375 14.40625 
Q 37.984375 18.0625 35.515625 20.015625 
Q 33.0625 21.96875 24.703125 23.78125 
L 21.578125 24.515625 
Q 13.234375 26.265625 9.515625 29.90625 
Q 5.8125 33.546875 5.8125 39.890625 
Q 5.8125 47.609375 11.28125 51.796875 
Q 16.75 56 26.8125 56 
Q 31.78125 56 36.171875 55.265625 
Q 40.578125 54.546875 44.28125 53.078125 
z
" id="DejaVuSans-115"/>
      <path d="M 56.203125 29.59375 
L 56.203125 25.203125 
L 14.890625 25.203125 
Q 15.484375 15.921875 20.484375 11.0625 
Q 25.484375 6.203125 34.421875 6.203125 
Q 39.59375 6.203125 44.453125 7.46875 
Q 49.3125 8.734375 54.109375 11.28125 
L 54.109375 2.78125 
Q 49.265625 0.734375 44.1875 -0.34375 
Q 39.109375 -1.421875 33.890625 -1.421875 
Q 20.796875 -1.421875 13.15625 6.1875 
Q 5.515625 13.8125 5.515625 26.8125 
Q 5.515625 40.234375 12.765625 48.109375 
Q 20.015625 56 32.328125 56 
Q 43.359375 56 49.78125 48.890625 
Q 56.203125 41.796875 56.203125 29.59375 
z
M 47.21875 32.234375 
Q 47.125 39.59375 43.09375 43.984375 
Q 39.0625 48.390625 32.421875 48.390625 
Q 24.90625 48.390625 20.390625 44.140625 
Q 15.875 39.890625 15.1875 32.171875 
z
" id="DejaVuSans-101"/>
      <path d="M 54.890625 54.6875 
L 35.109375 28.078125 
L 55.90625 0 
L 45.3125 0 
L 29.390625 21.484375 
L 13.484375 0 
L 2.875 0 
L 24.125 28.609375 
L 4.6875 54.6875 
L 15.28125 54.6875 
L 29.78125 35.203125 
L 44.28125 54.6875 
z
" id="DejaVuSans-120"/>
      <path d="M 18.3125 70.21875 
L 18.3125 54.6875 
L 36.8125 54.6875 
L 36.8125 47.703125 
L 18.3125 47.703125 
L 18.3125 18.015625 
Q 18.3125 11.328125 20.140625 9.421875 
Q 21.96875 7.515625 27.59375 7.515625 
L 36.8125 7.515625 
L 36.8125 0 
L 27.59375 0 
Q 17.1875 0 13.234375 3.875 
Q 9.28125 7.765625 9.28125 18.015625 
L 9.28125 47.703125 
L 2.6875 47.703125 
L 2.6875 54.6875 
L 9.28125 54.6875 
L 9.28125 70.21875 
z
" id="DejaVuSans-116"/>
      <path d="M 48.78125 52.59375 
L 48.78125 44.1875 
Q 44.96875 46.296875 41.140625 47.34375 
Q 37.3125 48.390625 33.40625 48.390625 
Q 24.65625 48.390625 19.8125 42.84375 
Q 14.984375 37.3125 14.984375 27.296875 
Q 14.984375 17.28125 19.8125 11.734375 
Q 24.65625 6.203125 33.40625 6.203125 
Q 37.3125 6.203125 41.140625 7.25 
Q 44.96875 8.296875 48.78125 10.40625 
L 48.78125 2.09375 
Q 45.015625 0.34375 40.984375 -0.53125 
Q 36.96875 -1.421875 32.421875 -1.421875 
Q 20.0625 -1.421875 12.78125 6.34375 
Q 5.515625 14.109375 5.515625 27.296875 
Q 5.515625 40.671875 12.859375 48.328125 
Q 20.21875 56 33.015625 56 
Q 37.15625 56 41.109375 55.140625 
Q 45.0625 54.296875 48.78125 52.59375 
z
" id="DejaVuSans-99"/>
      <path d="M 45.40625 46.390625 
L 45.40625 75.984375 
L 54.390625 75.984375 
L 54.390625 0 
L 45.40625 0 
L 45.40625 8.203125 
Q 42.578125 3.328125 38.25 0.953125 
Q 33.9375 -1.421875 27.875 -1.421875 
Q 17.96875 -1.421875 11.734375 6.484375 
Q 5.515625 14.40625 5.515625 27.296875 
Q 5.515625 40.1875 11.734375 48.09375 
Q 17.96875 56 27.875 56 
Q 33.9375 56 38.25 53.625 
Q 42.578125 51.265625 45.40625 46.390625 
z
M 14.796875 27.296875 
Q 14.796875 17.390625 18.875 11.75 
Q 22.953125 6.109375 30.078125 6.109375 
Q 37.203125 6.109375 41.296875 11.75 
Q 45.40625 17.390625 45.40625 27.296875 
Q 45.40625 37.203125 41.296875 42.84375 
Q 37.203125 48.484375 30.078125 48.484375 
Q 22.953125 48.484375 18.875 42.84375 
Q 14.796875 37.203125 14.796875 27.296875 
z
" id="DejaVuSans-100"/>
      <path d="M 10.6875 12.40625 
L 21 12.40625 
L 21 0 
L 10.6875 0 
z
" id="DejaVuSans-46"/>
     </defs>
     <use xlink:href="#DejaVuSans-87"/>
     <use x="98.876953" xlink:href="#DejaVuSans-51"/>
     <use x="162.5" xlink:href="#DejaVuSans-48"/>
     <use x="226.123047" xlink:href="#DejaVuSans-95"/>
     <use x="276.123047" xlink:href="#DejaVuSans-95"/>
     <use x="326.123047" xlink:href="#DejaVuSans-72"/>
     <use x="401.318359" xlink:href="#DejaVuSans-49"/>
     <use x="464.941406" xlink:href="#DejaVuSans-53"/>
     <use x="528.564453" xlink:href="#DejaVuSans-95"/>
     <use x="578.564453" xlink:href="#DejaVuSans-95"/>
     <use x="628.564453" xlink:href="#DejaVuSans-65"/>
     <use x="696.972656" xlink:href="#DejaVuSans-49"/>
     <use x="760.595703" xlink:href="#DejaVuSans-48"/>
     <use x="824.21875" xlink:href="#DejaVuSans-48"/>
     <use x="887.841797" xlink:href="#DejaVuSans-95"/>
     <use x="937.841797" xlink:href="#DejaVuSans-98"/>
     <use x="1001.318359" xlink:href="#DejaVuSans-97"/>
     <use x="1062.597656" xlink:href="#DejaVuSans-114"/>
     <use x="1103.710938" xlink:href="#DejaVuSans-115"/>
     <use x="1155.810547" xlink:href="#DejaVuSans-95"/>
     <use x="1205.810547" xlink:href="#DejaVuSans-101"/>
     <use x="1265.583984" xlink:href="#DejaVuSans-120"/>
     <use x="1324.763672" xlink:href="#DejaVuSans-116"/>
     <use x="1363.972656" xlink:href="#DejaVuSans-114"/>
     <use x="1405.085938" xlink:href="#DejaVuSans-97"/>
     <use x="1466.365234" xlink:href="#DejaVuSans-99"/>
     <use x="1521.345703" xlink:href="#DejaVuSans-116"/>
     <use x="1560.554688" xlink:href="#DejaVuSans-101"/>
     <use x="1622.078125" xlink:href="#DejaVuSans-100"/>
     <use x="1685.554688" xlink:href="#DejaVuSans-46"/>
     <use x="1717.341797" xlink:href="#DejaVuSans-116"/>
     <use x="1756.550781" xlink:href="#DejaVuSans-120"/>
     <use x="1815.730469" xlink:href="#DejaVuSans-116"/>
    </g>
   </g>
  </g>
 </g>
 <defs>
  <clipPath id="p188046bc06">
   <rect height="217.44" width="217.44" x="112.68" y="34.56"/>
  </clipPath>
 </defs>
</svg>
