<?xml version="1.0" encoding="utf-8" standalone="no"?>
<!DOCTYPE svg PUBLIC "-//W3C//DTD SVG 1.1//EN"
  "http://www.w3.org/Graphics/SVG/1.1/DTD/svg11.dtd">
<!-- Created with matplotlib (https://matplotlib.org/) -->
<svg height="288pt" version="1.1" viewBox="0 0 432 288" width="432pt" xmlns="http://www.w3.org/2000/svg" xmlns:xlink="http://www.w3.org/1999/xlink">
 <metadata>
  <rdf:RDF xmlns:cc="http://creativecommons.org/ns#" xmlns:dc="http://purl.org/dc/elements/1.1/" xmlns:rdf="http://www.w3.org/1999/02/22-rdf-syntax-ns#">
   <cc:Work>
    <dc:type rdf:resource="http://purl.org/dc/dcmitype/StillImage"/>
    <dc:date>2021-06-13T21:58:12.440406</dc:date>
    <dc:format>image/svg+xml</dc:format>
    <dc:creator>
     <cc:Agent>
      <dc:title>Matplotlib v3.3.4, https://matplotlib.org/</dc:title>
     </cc:Agent>
    </dc:creator>
   </cc:Work>
  </rdf:RDF>
 </metadata>
 <defs>
  <style type="text/css">*{stroke-linecap:butt;stroke-linejoin:round;}</style>
 </defs>
 <g id="figure_1">
  <g id="patch_1">
   <path d="M 0 288 
L 432 288 
L 432 0 
L 0 0 
z
" style="fill:#ffffff;"/>
  </g>
  <g id="patch_2">
   <path d="M 112.68 252 
L 330.12 252 
L 330.12 34.56 
L 112.68 34.56 
z
" style="fill:#ffffff;"/>
  </g>
  <g id="pane3d_1">
   <g id="patch_3">
    <path d="M 129.09822 198.386264 
L 200.904009 138.197228 
L 199.90584 51.393878 
L 124.663773 106.302111 
" style="fill:#f2f2f2;opacity:0.5;stroke:#f2f2f2;stroke-linejoin:miter;"/>
   </g>
  </g>
  <g id="pane3d_2">
   <g id="patch_4">
    <path d="M 200.904009 138.197228 
L 316.12668 171.68791 
L 320.238571 81.894718 
L 199.90584 51.393878 
" style="fill:#e6e6e6;opacity:0.5;stroke:#e6e6e6;stroke-linejoin:miter;"/>
   </g>
  </g>
  <g id="pane3d_3">
   <g id="patch_5">
    <path d="M 129.09822 198.386264 
L 251.239879 238.27773 
L 316.12668 171.68791 
L 200.904009 138.197228 
" style="fill:#ececec;opacity:0.5;stroke:#ececec;stroke-linejoin:miter;"/>
   </g>
  </g>
  <g id="axis3d_1">
   <g id="line2d_1">
    <path d="M 129.09822 198.386264 
L 251.239879 238.27773 
" style="fill:none;stroke:#000000;stroke-linecap:square;stroke-width:0.8;"/>
   </g>
   <g id="Line3DCollection_1">
    <path d="M 136.495759 200.802301 
L 207.911499 140.234029 
L 207.209612 53.245171 
" style="fill:none;stroke:#b0b0b0;stroke-width:0.8;"/>
    <path d="M 162.23134 209.207541 
L 232.260894 147.311436 
L 232.60309 59.681678 
" style="fill:none;stroke:#b0b0b0;stroke-width:0.8;"/>
    <path d="M 188.559037 217.806167 
L 257.123632 154.538053 
L 258.555303 66.259807 
" style="fill:none;stroke:#b0b0b0;stroke-width:0.8;"/>
    <path d="M 215.499525 226.604931 
L 282.516121 161.918647 
L 285.084894 72.984285 
" style="fill:none;stroke:#b0b0b0;stroke-width:0.8;"/>
    <path d="M 243.074449 235.610901 
L 308.455474 169.458193 
L 312.21135 79.860051 
" style="fill:none;stroke:#b0b0b0;stroke-width:0.8;"/>
   </g>
   <g id="xtick_1">
    <g id="line2d_2">
     <path d="M 137.117644 200.274876 
L 135.249322 201.859414 
" style="fill:none;stroke:#000000;stroke-linecap:square;stroke-width:0.8;"/>
    </g>
    <g id="text_1">
     <!-- 0 -->
     <g transform="translate(125.77919 224.124533)scale(0.1 -0.1)">
      <defs>
       <path d="M 31.78125 66.40625 
Q 24.171875 66.40625 20.328125 58.90625 
Q 16.5 51.421875 16.5 36.375 
Q 16.5 21.390625 20.328125 13.890625 
Q 24.171875 6.390625 31.78125 6.390625 
Q 39.453125 6.390625 43.28125 13.890625 
Q 47.125 21.390625 47.125 36.375 
Q 47.125 51.421875 43.28125 58.90625 
Q 39.453125 66.40625 31.78125 66.40625 
z
M 31.78125 74.21875 
Q 44.046875 74.21875 50.515625 64.515625 
Q 56.984375 54.828125 56.984375 36.375 
Q 56.984375 17.96875 50.515625 8.265625 
Q 44.046875 -1.421875 31.78125 -1.421875 
Q 19.53125 -1.421875 13.0625 8.265625 
Q 6.59375 17.96875 6.59375 36.375 
Q 6.59375 54.828125 13.0625 64.515625 
Q 19.53125 74.21875 31.78125 74.21875 
z
" id="DejaVuSans-48"/>
      </defs>
      <use xlink:href="#DejaVuSans-48"/>
     </g>
    </g>
   </g>
   <g id="xtick_2">
    <g id="line2d_3">
     <path d="M 162.841716 208.668056 
L 161.007937 210.288854 
" style="fill:none;stroke:#000000;stroke-linecap:square;stroke-width:0.8;"/>
    </g>
    <g id="text_2">
     <!-- 2 -->
     <g transform="translate(151.547192 232.748132)scale(0.1 -0.1)">
      <defs>
       <path d="M 19.1875 8.296875 
L 53.609375 8.296875 
L 53.609375 0 
L 7.328125 0 
L 7.328125 8.296875 
Q 12.9375 14.109375 22.625 23.890625 
Q 32.328125 33.6875 34.8125 36.53125 
Q 39.546875 41.84375 41.421875 45.53125 
Q 43.3125 49.21875 43.3125 52.78125 
Q 43.3125 58.59375 39.234375 62.25 
Q 35.15625 65.921875 28.609375 65.921875 
Q 23.96875 65.921875 18.8125 64.3125 
Q 13.671875 62.703125 7.8125 59.421875 
L 7.8125 69.390625 
Q 13.765625 71.78125 18.9375 73 
Q 24.125 74.21875 28.421875 74.21875 
Q 39.75 74.21875 46.484375 68.546875 
Q 53.21875 62.890625 53.21875 53.421875 
Q 53.21875 48.921875 51.53125 44.890625 
Q 49.859375 40.875 45.40625 35.40625 
Q 44.1875 33.984375 37.640625 27.21875 
Q 31.109375 20.453125 19.1875 8.296875 
z
" id="DejaVuSans-50"/>
      </defs>
      <use xlink:href="#DejaVuSans-50"/>
     </g>
    </g>
   </g>
   <g id="xtick_3">
    <g id="line2d_4">
     <path d="M 189.15721 217.254202 
L 187.360066 218.91252 
" style="fill:none;stroke:#000000;stroke-linecap:square;stroke-width:0.8;"/>
    </g>
    <g id="text_3">
     <!-- 4 -->
     <g transform="translate(177.91082 241.571064)scale(0.1 -0.1)">
      <defs>
       <path d="M 37.796875 64.3125 
L 12.890625 25.390625 
L 37.796875 25.390625 
z
M 35.203125 72.90625 
L 47.609375 72.90625 
L 47.609375 25.390625 
L 58.015625 25.390625 
L 58.015625 17.1875 
L 47.609375 17.1875 
L 47.609375 0 
L 37.796875 0 
L 37.796875 17.1875 
L 4.890625 17.1875 
L 4.890625 26.703125 
z
" id="DejaVuSans-52"/>
      </defs>
      <use xlink:href="#DejaVuSans-52"/>
     </g>
    </g>
   </g>
   <g id="xtick_4">
    <g id="line2d_5">
     <path d="M 216.084757 226.040048 
L 214.326462 227.737204 
" style="fill:none;stroke:#000000;stroke-linecap:square;stroke-width:0.8;"/>
    </g>
    <g id="text_4">
     <!-- 6 -->
     <g transform="translate(204.890965 250.600322)scale(0.1 -0.1)">
      <defs>
       <path d="M 33.015625 40.375 
Q 26.375 40.375 22.484375 35.828125 
Q 18.609375 31.296875 18.609375 23.390625 
Q 18.609375 15.53125 22.484375 10.953125 
Q 26.375 6.390625 33.015625 6.390625 
Q 39.65625 6.390625 43.53125 10.953125 
Q 47.40625 15.53125 47.40625 23.390625 
Q 47.40625 31.296875 43.53125 35.828125 
Q 39.65625 40.375 33.015625 40.375 
z
M 52.59375 71.296875 
L 52.59375 62.3125 
Q 48.875 64.0625 45.09375 64.984375 
Q 41.3125 65.921875 37.59375 65.921875 
Q 27.828125 65.921875 22.671875 59.328125 
Q 17.53125 52.734375 16.796875 39.40625 
Q 19.671875 43.65625 24.015625 45.921875 
Q 28.375 48.1875 33.59375 48.1875 
Q 44.578125 48.1875 50.953125 41.515625 
Q 57.328125 34.859375 57.328125 23.390625 
Q 57.328125 12.15625 50.6875 5.359375 
Q 44.046875 -1.421875 33.015625 -1.421875 
Q 20.359375 -1.421875 13.671875 8.265625 
Q 6.984375 17.96875 6.984375 36.375 
Q 6.984375 53.65625 15.1875 63.9375 
Q 23.390625 74.21875 37.203125 74.21875 
Q 40.921875 74.21875 44.703125 73.484375 
Q 48.484375 72.75 52.59375 71.296875 
z
" id="DejaVuSans-54"/>
      </defs>
      <use xlink:href="#DejaVuSans-54"/>
     </g>
    </g>
   </g>
   <g id="xtick_5">
    <g id="line2d_6">
     <path d="M 243.645962 235.032643 
L 241.928856 236.770015 
" style="fill:none;stroke:#000000;stroke-linecap:square;stroke-width:0.8;"/>
    </g>
    <g id="text_5">
     <!-- 8 -->
     <g transform="translate(232.509511 259.84323)scale(0.1 -0.1)">
      <defs>
       <path d="M 31.78125 34.625 
Q 24.75 34.625 20.71875 30.859375 
Q 16.703125 27.09375 16.703125 20.515625 
Q 16.703125 13.921875 20.71875 10.15625 
Q 24.75 6.390625 31.78125 6.390625 
Q 38.8125 6.390625 42.859375 10.171875 
Q 46.921875 13.96875 46.921875 20.515625 
Q 46.921875 27.09375 42.890625 30.859375 
Q 38.875 34.625 31.78125 34.625 
z
M 21.921875 38.8125 
Q 15.578125 40.375 12.03125 44.71875 
Q 8.5 49.078125 8.5 55.328125 
Q 8.5 64.0625 14.71875 69.140625 
Q 20.953125 74.21875 31.78125 74.21875 
Q 42.671875 74.21875 48.875 69.140625 
Q 55.078125 64.0625 55.078125 55.328125 
Q 55.078125 49.078125 51.53125 44.71875 
Q 48 40.375 41.703125 38.8125 
Q 48.828125 37.15625 52.796875 32.3125 
Q 56.78125 27.484375 56.78125 20.515625 
Q 56.78125 9.90625 50.3125 4.234375 
Q 43.84375 -1.421875 31.78125 -1.421875 
Q 19.734375 -1.421875 13.25 4.234375 
Q 6.78125 9.90625 6.78125 20.515625 
Q 6.78125 27.484375 10.78125 32.3125 
Q 14.796875 37.15625 21.921875 38.8125 
z
M 18.3125 54.390625 
Q 18.3125 48.734375 21.84375 45.5625 
Q 25.390625 42.390625 31.78125 42.390625 
Q 38.140625 42.390625 41.71875 45.5625 
Q 45.3125 48.734375 45.3125 54.390625 
Q 45.3125 60.0625 41.71875 63.234375 
Q 38.140625 66.40625 31.78125 66.40625 
Q 25.390625 66.40625 21.84375 63.234375 
Q 18.3125 60.0625 18.3125 54.390625 
z
" id="DejaVuSans-56"/>
      </defs>
      <use xlink:href="#DejaVuSans-56"/>
     </g>
    </g>
   </g>
  </g>
  <g id="axis3d_2">
   <g id="line2d_7">
    <path d="M 316.12668 171.68791 
L 251.239879 238.27773 
" style="fill:none;stroke:#000000;stroke-linecap:square;stroke-width:0.8;"/>
   </g>
   <g id="Line3DCollection_2">
    <path d="M 129.866948 102.505071 
L 134.046245 194.238731 
L 255.729543 233.67023 
" style="fill:none;stroke:#b0b0b0;stroke-width:0.8;"/>
    <path d="M 147.250212 89.819556 
L 150.59591 180.366474 
L 270.72626 218.279909 
" style="fill:none;stroke:#b0b0b0;stroke-width:0.8;"/>
    <path d="M 163.958537 77.626582 
L 166.530371 167.009893 
L 285.136664 203.491289 
" style="fill:none;stroke:#b0b0b0;stroke-width:0.8;"/>
    <path d="M 180.030483 65.898008 
L 181.883306 154.140758 
L 298.994481 189.269761 
" style="fill:none;stroke:#b0b0b0;stroke-width:0.8;"/>
    <path d="M 195.501727 54.607799 
L 196.68598 141.732864 
L 312.330896 175.583317 
" style="fill:none;stroke:#b0b0b0;stroke-width:0.8;"/>
   </g>
   <g id="xtick_6">
    <g id="line2d_8">
     <path d="M 254.704115 233.337939 
L 257.783053 234.33567 
" style="fill:none;stroke:#000000;stroke-linecap:square;stroke-width:0.8;"/>
    </g>
    <g id="text_6">
     <!-- 0 -->
     <g transform="translate(265.430654 254.693759)scale(0.1 -0.1)">
      <use xlink:href="#DejaVuSans-48"/>
     </g>
    </g>
   </g>
   <g id="xtick_7">
    <g id="line2d_9">
     <path d="M 269.71494 217.960734 
L 272.751463 218.919068 
" style="fill:none;stroke:#000000;stroke-linecap:square;stroke-width:0.8;"/>
    </g>
    <g id="text_7">
     <!-- 2 -->
     <g transform="translate(280.181112 239.024526)scale(0.1 -0.1)">
      <use xlink:href="#DejaVuSans-50"/>
     </g>
    </g>
   </g>
   <g id="xtick_8">
    <g id="line2d_10">
     <path d="M 284.139145 203.184468 
L 287.134182 204.105694 
" style="fill:none;stroke:#000000;stroke-linecap:square;stroke-width:0.8;"/>
    </g>
    <g id="text_8">
     <!-- 4 -->
     <g transform="translate(294.35448 223.968328)scale(0.1 -0.1)">
      <use xlink:href="#DejaVuSans-52"/>
     </g>
    </g>
   </g>
   <g id="xtick_9">
    <g id="line2d_11">
     <path d="M 298.010457 188.97459 
L 300.964927 189.860821 
" style="fill:none;stroke:#000000;stroke-linecap:square;stroke-width:0.8;"/>
    </g>
    <g id="text_9">
     <!-- 6 -->
     <g transform="translate(307.983974 209.489882)scale(0.1 -0.1)">
      <use xlink:href="#DejaVuSans-54"/>
     </g>
    </g>
   </g>
   <g id="xtick_10">
    <g id="line2d_12">
     <path d="M 311.360068 175.299146 
L 314.274875 176.15234 
" style="fill:none;stroke:#000000;stroke-linecap:square;stroke-width:0.8;"/>
    </g>
    <g id="text_10">
     <!-- 8 -->
     <g transform="translate(321.10031 195.556556)scale(0.1 -0.1)">
      <use xlink:href="#DejaVuSans-56"/>
     </g>
    </g>
   </g>
  </g>
  <g id="axis3d_3">
   <g id="line2d_13">
    <path d="M 316.12668 171.68791 
L 320.238571 81.894718 
" style="fill:none;stroke:#000000;stroke-linecap:square;stroke-width:0.8;"/>
   </g>
   <g id="Line3DCollection_3">
    <path d="M 316.205459 169.967571 
L 200.884845 136.530725 
L 129.013401 196.624949 
" style="fill:none;stroke:#b0b0b0;stroke-width:0.8;"/>
    <path d="M 316.95472 153.60564 
L 200.702662 120.687554 
L 128.206427 179.867606 
" style="fill:none;stroke:#b0b0b0;stroke-width:0.8;"/>
    <path d="M 317.716302 136.974621 
L 200.517625 104.596322 
L 127.385673 162.824122 
" style="fill:none;stroke:#b0b0b0;stroke-width:0.8;"/>
    <path d="M 318.490514 120.067821 
L 200.329669 88.251155 
L 126.550783 145.487104 
" style="fill:none;stroke:#b0b0b0;stroke-width:0.8;"/>
    <path d="M 319.277671 102.878323 
L 200.138723 71.645996 
L 125.70139 127.848904 
" style="fill:none;stroke:#b0b0b0;stroke-width:0.8;"/>
    <path d="M 320.078101 85.398977 
L 199.944715 54.774591 
L 124.837112 109.901605 
" style="fill:none;stroke:#b0b0b0;stroke-width:0.8;"/>
   </g>
   <g id="xtick_11">
    <g id="line2d_14">
     <path d="M 315.237563 169.686933 
L 318.143556 170.529516 
" style="fill:none;stroke:#000000;stroke-linecap:square;stroke-width:0.8;"/>
    </g>
    <g id="text_11">
     <!-- 0 -->
     <g transform="translate(331.275915 174.966846)scale(0.1 -0.1)">
      <use xlink:href="#DejaVuSans-48"/>
     </g>
    </g>
   </g>
   <g id="xtick_12">
    <g id="line2d_15">
     <path d="M 315.978633 153.32925 
L 318.909236 154.159083 
" style="fill:none;stroke:#000000;stroke-linecap:square;stroke-width:0.8;"/>
    </g>
    <g id="text_12">
     <!-- 10000 -->
     <g transform="translate(319.445712 158.644331)scale(0.1 -0.1)">
      <defs>
       <path d="M 12.40625 8.296875 
L 28.515625 8.296875 
L 28.515625 63.921875 
L 10.984375 60.40625 
L 10.984375 69.390625 
L 28.421875 72.90625 
L 38.28125 72.90625 
L 38.28125 8.296875 
L 54.390625 8.296875 
L 54.390625 0 
L 12.40625 0 
z
" id="DejaVuSans-49"/>
      </defs>
      <use xlink:href="#DejaVuSans-49"/>
      <use x="63.623047" xlink:href="#DejaVuSans-48"/>
      <use x="127.246094" xlink:href="#DejaVuSans-48"/>
      <use x="190.869141" xlink:href="#DejaVuSans-48"/>
      <use x="254.492188" xlink:href="#DejaVuSans-48"/>
     </g>
    </g>
   </g>
   <g id="xtick_13">
    <g id="line2d_16">
     <path d="M 316.731886 136.702658 
L 319.687517 137.519206 
" style="fill:none;stroke:#000000;stroke-linecap:square;stroke-width:0.8;"/>
    </g>
    <g id="text_13">
     <!-- 20000 -->
     <g transform="translate(320.35517 142.054378)scale(0.1 -0.1)">
      <use xlink:href="#DejaVuSans-50"/>
      <use x="63.623047" xlink:href="#DejaVuSans-48"/>
      <use x="127.246094" xlink:href="#DejaVuSans-48"/>
      <use x="190.869141" xlink:href="#DejaVuSans-48"/>
      <use x="254.492188" xlink:href="#DejaVuSans-48"/>
     </g>
    </g>
   </g>
   <g id="xtick_14">
    <g id="line2d_17">
     <path d="M 317.497624 119.80047 
L 320.478715 120.603176 
" style="fill:none;stroke:#000000;stroke-linecap:square;stroke-width:0.8;"/>
    </g>
    <g id="text_14">
     <!-- 30000 -->
     <g transform="translate(321.279652 125.19036)scale(0.1 -0.1)">
      <defs>
       <path d="M 40.578125 39.3125 
Q 47.65625 37.796875 51.625 33 
Q 55.609375 28.21875 55.609375 21.1875 
Q 55.609375 10.40625 48.1875 4.484375 
Q 40.765625 -1.421875 27.09375 -1.421875 
Q 22.515625 -1.421875 17.65625 -0.515625 
Q 12.796875 0.390625 7.625 2.203125 
L 7.625 11.71875 
Q 11.71875 9.328125 16.59375 8.109375 
Q 21.484375 6.890625 26.8125 6.890625 
Q 36.078125 6.890625 40.9375 10.546875 
Q 45.796875 14.203125 45.796875 21.1875 
Q 45.796875 27.640625 41.28125 31.265625 
Q 36.765625 34.90625 28.71875 34.90625 
L 20.21875 34.90625 
L 20.21875 43.015625 
L 29.109375 43.015625 
Q 36.375 43.015625 40.234375 45.921875 
Q 44.09375 48.828125 44.09375 54.296875 
Q 44.09375 59.90625 40.109375 62.90625 
Q 36.140625 65.921875 28.71875 65.921875 
Q 24.65625 65.921875 20.015625 65.03125 
Q 15.375 64.15625 9.8125 62.3125 
L 9.8125 71.09375 
Q 15.4375 72.65625 20.34375 73.4375 
Q 25.25 74.21875 29.59375 74.21875 
Q 40.828125 74.21875 47.359375 69.109375 
Q 53.90625 64.015625 53.90625 55.328125 
Q 53.90625 49.265625 50.4375 45.09375 
Q 46.96875 40.921875 40.578125 39.3125 
z
" id="DejaVuSans-51"/>
      </defs>
      <use xlink:href="#DejaVuSans-51"/>
      <use x="63.623047" xlink:href="#DejaVuSans-48"/>
      <use x="127.246094" xlink:href="#DejaVuSans-48"/>
      <use x="190.869141" xlink:href="#DejaVuSans-48"/>
      <use x="254.492188" xlink:href="#DejaVuSans-48"/>
     </g>
    </g>
   </g>
   <g id="xtick_15">
    <g id="line2d_18">
     <path d="M 318.276161 102.615777 
L 321.283154 103.404061 
" style="fill:none;stroke:#000000;stroke-linecap:square;stroke-width:0.8;"/>
    </g>
    <g id="text_15">
     <!-- 40000 -->
     <g transform="translate(322.219533 108.045428)scale(0.1 -0.1)">
      <use xlink:href="#DejaVuSans-52"/>
      <use x="63.623047" xlink:href="#DejaVuSans-48"/>
      <use x="127.246094" xlink:href="#DejaVuSans-48"/>
      <use x="190.869141" xlink:href="#DejaVuSans-48"/>
      <use x="254.492188" xlink:href="#DejaVuSans-48"/>
     </g>
    </g>
   </g>
   <g id="xtick_16">
    <g id="line2d_19">
     <path d="M 319.06782 85.141437 
L 322.101168 85.914697 
" style="fill:none;stroke:#000000;stroke-linecap:square;stroke-width:0.8;"/>
    </g>
    <g id="text_16">
     <!-- 50000 -->
     <g transform="translate(323.175202 90.612505)scale(0.1 -0.1)">
      <defs>
       <path d="M 10.796875 72.90625 
L 49.515625 72.90625 
L 49.515625 64.59375 
L 19.828125 64.59375 
L 19.828125 46.734375 
Q 21.96875 47.46875 24.109375 47.828125 
Q 26.265625 48.1875 28.421875 48.1875 
Q 40.625 48.1875 47.75 41.5 
Q 54.890625 34.8125 54.890625 23.390625 
Q 54.890625 11.625 47.5625 5.09375 
Q 40.234375 -1.421875 26.90625 -1.421875 
Q 22.3125 -1.421875 17.546875 -0.640625 
Q 12.796875 0.140625 7.71875 1.703125 
L 7.71875 11.625 
Q 12.109375 9.234375 16.796875 8.0625 
Q 21.484375 6.890625 26.703125 6.890625 
Q 35.15625 6.890625 40.078125 11.328125 
Q 45.015625 15.765625 45.015625 23.390625 
Q 45.015625 31 40.078125 35.4375 
Q 35.15625 39.890625 26.703125 39.890625 
Q 22.75 39.890625 18.8125 39.015625 
Q 14.890625 38.140625 10.796875 36.28125 
z
" id="DejaVuSans-53"/>
      </defs>
      <use xlink:href="#DejaVuSans-53"/>
      <use x="63.623047" xlink:href="#DejaVuSans-48"/>
      <use x="127.246094" xlink:href="#DejaVuSans-48"/>
      <use x="190.869141" xlink:href="#DejaVuSans-48"/>
      <use x="254.492188" xlink:href="#DejaVuSans-48"/>
     </g>
    </g>
   </g>
  </g>
  <g id="axes_1">
   <g id="Poly3DCollection_1">
    <path clip-path="url(#p436f9f566b)" d="M 203.700438 142.115361 
L 203.699953 142.06761 
L 215.863702 145.619094 
L 215.863902 145.66701 
z
" style="fill:#050338;"/>
    <path clip-path="url(#p436f9f566b)" d="M 196.401162 148.290596 
L 196.4005 148.242559 
L 203.699953 142.06761 
L 203.700438 142.115361 
z
" style="fill:#0b0777;"/>
    <path clip-path="url(#p436f9f566b)" d="M 196.401162 148.290596 
L 203.700438 142.115361 
L 215.863902 145.66701 
L 208.637156 151.907182 
z
" style="fill:#070448;"/>
    <path clip-path="url(#p436f9f566b)" d="M 196.4005 148.242559 
L 208.636782 151.858977 
L 215.863702 145.619094 
L 203.699953 142.06761 
z
" style="fill:#0a0667;"/>
    <path clip-path="url(#p436f9f566b)" d="M 215.863902 145.66701 
L 215.863262 145.513764 
L 228.155314 149.102157 
L 228.155024 149.255935 
z
" style="fill:#050338;"/>
    <path clip-path="url(#p436f9f566b)" d="M 208.637156 151.907182 
L 215.863902 145.66701 
L 215.863702 145.619094 
L 208.636782 151.858977 
z
" style="fill:#050338;"/>
    <path clip-path="url(#p436f9f566b)" d="M 208.637156 151.907182 
L 208.63596 151.753013 
L 215.863262 145.513764 
L 215.863902 145.66701 
z
" style="fill:#0b0777;"/>
    <path clip-path="url(#p436f9f566b)" d="M 196.401162 148.290596 
L 208.637156 151.907182 
L 208.636782 151.858977 
L 196.4005 148.242559 
z
" style="fill:#0b0777;"/>
    <path clip-path="url(#p436f9f566b)" d="M 196.401162 148.290596 
L 196.400076 148.211788 
L 208.636543 151.8281 
L 208.637156 151.907182 
z
" style="fill:#050338;"/>
    <path clip-path="url(#p436f9f566b)" d="M 208.637156 151.907182 
L 215.863902 145.66701 
L 228.155024 149.255935 
L 221.002748 155.562072 
z
" style="fill:#070448;"/>
    <path clip-path="url(#p436f9f566b)" d="M 208.63596 151.753013 
L 221.002493 155.407367 
L 228.155314 149.102157 
L 215.863262 145.513764 
z
" style="fill:#0a0667;"/>
    <path clip-path="url(#p436f9f566b)" d="M 228.155024 149.255935 
L 228.155537 148.983543 
L 240.578019 152.609386 
L 240.575825 152.882725 
z
" style="fill:#050338;"/>
    <path clip-path="url(#p436f9f566b)" d="M 188.96817 154.578956 
L 188.966783 154.499673 
L 196.400076 148.211788 
L 196.401162 148.290596 
z
" style="fill:#0b0777;"/>
    <path clip-path="url(#p436f9f566b)" d="M 221.002748 155.562072 
L 228.155024 149.255935 
L 228.155314 149.102157 
L 221.002493 155.407367 
z
" style="fill:#050338;"/>
    <path clip-path="url(#p436f9f566b)" d="M 221.002748 155.562072 
L 221.002296 155.288037 
L 228.155537 148.983543 
L 228.155024 149.255935 
z
" style="fill:#0b0777;"/>
    <path clip-path="url(#p436f9f566b)" d="M 188.96817 154.578956 
L 196.401162 148.290596 
L 208.637156 151.907182 
L 201.27732 158.262275 
z
" style="fill:#070448;"/>
    <path clip-path="url(#p436f9f566b)" d="M 188.966783 154.499673 
L 201.276411 158.182715 
L 208.636543 151.8281 
L 196.400076 148.211788 
z
" style="fill:#0a0667;"/>
    <path clip-path="url(#p436f9f566b)" d="M 208.637156 151.907182 
L 221.002748 155.562072 
L 221.002493 155.407367 
L 208.63596 151.753013 
z
" style="fill:#0b0777;"/>
    <path clip-path="url(#p436f9f566b)" d="M 208.637156 151.907182 
L 208.635466 151.689256 
L 221.002387 155.343388 
L 221.002748 155.562072 
z
" style="fill:#050338;"/>
    <path clip-path="url(#p436f9f566b)" d="M 221.002748 155.562072 
L 228.155024 149.255935 
L 240.575825 152.882725 
L 233.500008 159.25588 
z
" style="fill:#070448;"/>
    <path clip-path="url(#p436f9f566b)" d="M 221.002296 155.288037 
L 233.501257 158.980889 
L 240.578019 152.609386 
L 228.155537 148.983543 
z
" style="fill:#0a0667;"/>
    <path clip-path="url(#p436f9f566b)" d="M 201.27732 158.262275 
L 208.637156 151.907182 
L 208.636543 151.8281 
L 201.276411 158.182715 
z
" style="fill:#050338;"/>
    <path clip-path="url(#p436f9f566b)" d="M 201.27732 158.262275 
L 201.274814 158.043032 
L 208.635466 151.689256 
L 208.637156 151.907182 
z
" style="fill:#0b0777;"/>
    <path clip-path="url(#p436f9f566b)" d="M 233.500008 159.25588 
L 240.575825 152.882725 
L 240.578019 152.609386 
L 233.501257 158.980889 
z
" style="fill:#050338;"/>
    <path clip-path="url(#p436f9f566b)" d="M 240.575825 152.882725 
L 240.643133 144.495988 
L 253.248345 148.131857 
L 253.128369 156.547983 
z
" style="fill:#1c0142;"/>
    <path clip-path="url(#p436f9f566b)" d="M 188.96817 154.578956 
L 201.27732 158.262275 
L 201.276411 158.182715 
L 188.966783 154.499673 
z
" style="fill:#0b0777;"/>
    <path clip-path="url(#p436f9f566b)" d="M 188.96817 154.578956 
L 188.966338 154.474236 
L 201.276119 158.15719 
L 201.27732 158.262275 
z
" style="fill:#050338;"/>
    <path clip-path="url(#p436f9f566b)" d="M 201.27732 158.262275 
L 208.637156 151.907182 
L 221.002748 155.562072 
L 213.718049 161.984967 
z
" style="fill:#070448;"/>
    <path clip-path="url(#p436f9f566b)" d="M 201.274814 158.043032 
L 213.716889 161.764959 
L 221.002387 155.343388 
L 208.635466 151.689256 
z
" style="fill:#0a0667;"/>
    <path clip-path="url(#p436f9f566b)" d="M 221.002748 155.562072 
L 233.500008 159.25588 
L 233.501257 158.980889 
L 221.002296 155.288037 
z
" style="fill:#0b0777;"/>
    <path clip-path="url(#p436f9f566b)" d="M 221.002748 155.562072 
L 221.001785 154.978932 
L 233.502666 158.670705 
L 233.500008 159.25588 
z
" style="fill:#070339;"/>
    <path clip-path="url(#p436f9f566b)" d="M 233.500008 159.25588 
L 233.538336 150.818145 
L 240.643133 144.495988 
L 240.575825 152.882725 
z
" style="fill:#3b038b;"/>
    <path clip-path="url(#p436f9f566b)" d="M 181.397755 160.983577 
L 181.39551 160.878224 
L 188.966338 154.474236 
L 188.96817 154.578956 
z
" style="fill:#0b0777;"/>
    <path clip-path="url(#p436f9f566b)" d="M 233.500008 159.25588 
L 240.575825 152.882725 
L 253.128369 156.547983 
L 246.131049 162.989229 
z
" style="fill:#240254;"/>
    <path clip-path="url(#p436f9f566b)" d="M 213.718049 161.984967 
L 221.002748 155.562072 
L 221.002387 155.343388 
L 213.716889 161.764959 
z
" style="fill:#050338;"/>
    <path clip-path="url(#p436f9f566b)" d="M 213.718049 161.984967 
L 213.714955 161.398297 
L 221.001785 154.978932 
L 221.002748 155.562072 
z
" style="fill:#0e0678;"/>
    <path clip-path="url(#p436f9f566b)" d="M 181.397755 160.983577 
L 188.96817 154.578956 
L 201.27732 158.262275 
L 193.780682 164.735494 
z
" style="fill:#070448;"/>
    <path clip-path="url(#p436f9f566b)" d="M 181.39551 160.878224 
L 193.779076 164.629772 
L 201.276119 158.15719 
L 188.966338 154.474236 
z
" style="fill:#0a0667;"/>
    <path clip-path="url(#p436f9f566b)" d="M 253.128369 156.547983 
L 253.248493 148.121481 
L 265.988745 151.796246 
L 265.814761 160.252323 
z
" style="fill:#1c0142;"/>
    <path clip-path="url(#p436f9f566b)" d="M 201.27732 158.262275 
L 213.718049 161.984967 
L 213.716889 161.764959 
L 201.274814 158.043032 
z
" style="fill:#0b0777;"/>
    <path clip-path="url(#p436f9f566b)" d="M 201.27732 158.262275 
L 201.274213 157.990417 
L 213.71661 161.71216 
L 213.718049 161.984967 
z
" style="fill:#050338;"/>
    <path clip-path="url(#p436f9f566b)" d="M 213.718049 161.984967 
L 221.002748 155.562072 
L 233.500008 159.25588 
L 226.292478 165.747667 
z
" style="fill:#090449;"/>
    <path clip-path="url(#p436f9f566b)" d="M 233.538336 150.818145 
L 246.222711 154.521845 
L 253.248345 148.131857 
L 240.643133 144.495988 
z
" style="fill:#330379;"/>
    <path clip-path="url(#p436f9f566b)" d="M 213.714955 161.398297 
L 226.29305 165.158946 
L 233.502666 158.670705 
L 221.001785 154.978932 
z
" style="fill:#0c0668;"/>
    <path clip-path="url(#p436f9f566b)" d="M 246.131049 162.989229 
L 253.128369 156.547983 
L 253.248345 148.131857 
L 246.222711 154.521845 
z
" style="fill:#1c0142;"/>
    <path clip-path="url(#p436f9f566b)" d="M 246.131049 162.989229 
L 246.222824 154.511405 
L 253.248493 148.121481 
L 253.128369 156.547983 
z
" style="fill:#3b038b;"/>
    <path clip-path="url(#p436f9f566b)" d="M 193.780682 164.735494 
L 201.27732 158.262275 
L 201.276119 158.15719 
L 193.779076 164.629772 
z
" style="fill:#050338;"/>
    <path clip-path="url(#p436f9f566b)" d="M 193.780682 164.735494 
L 193.776527 164.46199 
L 201.274213 157.990417 
L 201.27732 158.262275 
z
" style="fill:#0b0777;"/>
    <path clip-path="url(#p436f9f566b)" d="M 246.131049 162.989229 
L 253.128369 156.547983 
L 265.814761 160.252323 
L 258.898031 166.762758 
z
" style="fill:#240254;"/>
    <path clip-path="url(#p436f9f566b)" d="M 265.814761 160.252323 
L 265.820197 159.988137 
L 278.644309 163.731266 
L 278.637155 163.996376 
z
" style="fill:#050338;"/>
    <path clip-path="url(#p436f9f566b)" d="M 233.500008 159.25588 
L 246.131049 162.989229 
L 246.222711 154.521845 
L 233.538336 150.818145 
z
" style="fill:#3b038b;"/>
    <path clip-path="url(#p436f9f566b)" d="M 226.292478 165.747667 
L 233.500008 159.25588 
L 233.502666 158.670705 
L 226.29305 165.158946 
z
" style="fill:#070339;"/>
    <path clip-path="url(#p436f9f566b)" d="M 181.397755 160.983577 
L 193.780682 164.735494 
L 193.779076 164.629772 
L 181.39551 160.878224 
z
" style="fill:#0b0777;"/>
    <path clip-path="url(#p436f9f566b)" d="M 181.397755 160.983577 
L 181.395272 160.86705 
L 193.778905 164.61856 
L 193.780682 164.735494 
z
" style="fill:#050338;"/>
    <path clip-path="url(#p436f9f566b)" d="M 193.780682 164.735494 
L 201.27732 158.262275 
L 213.718049 161.984967 
L 206.297214 168.527892 
z
" style="fill:#070448;"/>
    <path clip-path="url(#p436f9f566b)" d="M 193.776527 164.46199 
L 206.294747 168.25343 
L 213.71661 161.71216 
L 201.274213 157.990417 
z
" style="fill:#0a0667;"/>
    <path clip-path="url(#p436f9f566b)" d="M 258.898031 166.762758 
L 258.902603 166.496971 
L 265.820197 159.988137 
L 265.814761 160.252323 
z
" style="fill:#0b0777;"/>
    <path clip-path="url(#p436f9f566b)" d="M 213.718049 161.984967 
L 226.292478 165.747667 
L 226.29305 165.158946 
L 213.714955 161.398297 
z
" style="fill:#0e0678;"/>
    <path clip-path="url(#p436f9f566b)" d="M 213.718049 161.984967 
L 213.713829 161.184709 
L 226.293258 164.94461 
L 226.292478 165.747667 
z
" style="fill:#080339;"/>
    <path clip-path="url(#p436f9f566b)" d="M 173.686069 167.507715 
L 173.683112 167.390481 
L 181.395272 160.86705 
L 181.397755 160.983577 
z
" style="fill:#0b0777;"/>
    <path clip-path="url(#p436f9f566b)" d="M 226.292478 165.747667 
L 233.500008 159.25588 
L 246.131049 162.989229 
L 239.002775 169.551023 
z
" style="fill:#4a0558;"/>
    <path clip-path="url(#p436f9f566b)" d="M 246.222824 154.511405 
L 259.044358 158.255097 
L 265.988745 151.796246 
L 253.248493 148.121481 
z
" style="fill:#330379;"/>
    <path clip-path="url(#p436f9f566b)" d="M 258.898031 166.762758 
L 265.814761 160.252323 
L 265.988745 151.796246 
L 259.044358 158.255097 
z
" style="fill:#1c0142;"/>
    <path clip-path="url(#p436f9f566b)" d="M 233.500008 159.25588 
L 233.606794 135.747653 
L 246.386437 139.397453 
L 246.131049 162.989229 
z
" style="fill:#390445;"/>
    <path clip-path="url(#p436f9f566b)" d="M 206.297214 168.527892 
L 213.718049 161.984967 
L 213.71661 161.71216 
L 206.294747 168.25343 
z
" style="fill:#050338;"/>
    <path clip-path="url(#p436f9f566b)" d="M 206.297214 168.527892 
L 206.289978 167.722777 
L 213.713829 161.184709 
L 213.718049 161.984967 
z
" style="fill:#110679;"/>
    <path clip-path="url(#p436f9f566b)" d="M 258.898031 166.762758 
L 265.814761 160.252323 
L 278.637155 163.996376 
L 271.803162 170.57712 
z
" style="fill:#070448;"/>
    <path clip-path="url(#p436f9f566b)" d="M 258.902603 166.496971 
L 271.809474 170.310401 
L 278.644309 163.731266 
L 265.820197 159.988137 
z
" style="fill:#0a0667;"/>
    <path clip-path="url(#p436f9f566b)" d="M 278.637155 163.996376 
L 278.640985 163.854449 
L 291.602518 167.638358 
L 291.597749 167.780781 
z
" style="fill:#050338;"/>
    <path clip-path="url(#p436f9f566b)" d="M 173.686069 167.507715 
L 181.397755 160.983577 
L 193.780682 164.735494 
L 186.143392 171.330164 
z
" style="fill:#070448;"/>
    <path clip-path="url(#p436f9f566b)" d="M 173.683112 167.390481 
L 186.141151 171.212519 
L 193.778905 164.61856 
L 181.395272 160.86705 
z
" style="fill:#0a0667;"/>
    <path clip-path="url(#p436f9f566b)" d="M 246.131049 162.989229 
L 258.898031 166.762758 
L 259.044358 158.255097 
L 246.222824 154.511405 
z
" style="fill:#3b038b;"/>
    <path clip-path="url(#p436f9f566b)" d="M 226.292478 165.747667 
L 226.315469 142.094451 
L 233.606794 135.747653 
L 233.500008 159.25588 
z
" style="fill:#7a0892;"/>
    <path clip-path="url(#p436f9f566b)" d="M 193.780682 164.735494 
L 206.297214 168.527892 
L 206.294747 168.25343 
L 193.776527 164.46199 
z
" style="fill:#0b0777;"/>
    <path clip-path="url(#p436f9f566b)" d="M 193.780682 164.735494 
L 193.773643 164.272204 
L 206.293036 168.06298 
L 206.297214 168.527892 
z
" style="fill:#070339;"/>
    <path clip-path="url(#p436f9f566b)" d="M 206.297214 168.527892 
L 213.718049 161.984967 
L 226.292478 165.747667 
L 218.949524 172.361429 
z
" style="fill:#0a0449;"/>
    <path clip-path="url(#p436f9f566b)" d="M 271.803162 170.57712 
L 271.806541 170.434332 
L 278.640985 163.854449 
L 278.637155 163.996376 
z
" style="fill:#0b0777;"/>
    <path clip-path="url(#p436f9f566b)" d="M 271.803162 170.57712 
L 278.637155 163.996376 
L 278.644309 163.731266 
L 271.809474 170.310401 
z
" style="fill:#050338;"/>
    <path clip-path="url(#p436f9f566b)" d="M 206.289978 167.722777 
L 218.947351 171.553492 
L 226.293258 164.94461 
L 213.713829 161.184709 
z
" style="fill:#0f0569;"/>
    <path clip-path="url(#p436f9f566b)" d="M 186.143392 171.330164 
L 193.780682 164.735494 
L 193.778905 164.61856 
L 186.141151 171.212519 
z
" style="fill:#050338;"/>
    <path clip-path="url(#p436f9f566b)" d="M 186.143392 171.330164 
L 186.134512 170.86406 
L 193.773643 164.272204 
L 193.780682 164.735494 
z
" style="fill:#0e0678;"/>
    <path clip-path="url(#p436f9f566b)" d="M 239.002775 169.551023 
L 246.131049 162.989229 
L 258.898031 166.762758 
L 251.851153 173.395697 
z
" style="fill:#4a0558;"/>
    <path clip-path="url(#p436f9f566b)" d="M 258.898031 166.762758 
L 271.803162 170.57712 
L 271.809474 170.310401 
L 258.902603 166.496971 
z
" style="fill:#0b0777;"/>
    <path clip-path="url(#p436f9f566b)" d="M 258.898031 166.762758 
L 258.908675 166.143928 
L 271.817859 169.956121 
L 271.803162 170.57712 
z
" style="fill:#070339;"/>
    <path clip-path="url(#p436f9f566b)" d="M 246.131049 162.989229 
L 246.387858 139.266224 
L 259.307507 142.955291 
L 258.898031 166.762758 
z
" style="fill:#390445;"/>
    <path clip-path="url(#p436f9f566b)" d="M 218.949524 172.361429 
L 226.292478 165.747667 
L 226.293258 164.94461 
L 218.947351 171.553492 
z
" style="fill:#080339;"/>
    <path clip-path="url(#p436f9f566b)" d="M 271.803162 170.57712 
L 278.637155 163.996376 
L 291.597749 167.780781 
L 284.848695 174.43298 
z
" style="fill:#070448;"/>
    <path clip-path="url(#p436f9f566b)" d="M 271.806541 170.434332 
L 284.853027 174.289692 
L 291.602518 167.638358 
L 278.640985 163.854449 
z
" style="fill:#0a0667;"/>
    <path clip-path="url(#p436f9f566b)" d="M 173.686069 167.507715 
L 186.143392 171.330164 
L 186.141151 171.212519 
L 173.683112 167.390481 
z
" style="fill:#0b0777;"/>
    <path clip-path="url(#p436f9f566b)" d="M 173.686069 167.507715 
L 173.682243 167.356007 
L 186.140492 171.177925 
L 186.143392 171.330164 
z
" style="fill:#050338;"/>
    <path clip-path="url(#p436f9f566b)" d="M 291.597749 167.780781 
L 291.600322 167.70394 
L 304.701881 171.529086 
L 304.698789 171.606197 
z
" style="fill:#050338;"/>
    <path clip-path="url(#p436f9f566b)" d="M 186.143392 171.330164 
L 193.780682 164.735494 
L 206.297214 168.527892 
L 198.736391 175.194243 
z
" style="fill:#090449;"/>
    <path clip-path="url(#p436f9f566b)" d="M 186.134512 170.86406 
L 198.730406 174.726504 
L 206.293036 168.06298 
L 193.773643 164.272204 
z
" style="fill:#0c0668;"/>
    <path clip-path="url(#p436f9f566b)" d="M 251.851153 173.395697 
L 251.859706 172.773105 
L 258.908675 166.143928 
L 258.898031 166.762758 
z
" style="fill:#0e0678;"/>
    <path clip-path="url(#p436f9f566b)" d="M 239.002775 169.551023 
L 246.131049 162.989229 
L 246.386437 139.397453 
L 239.176254 145.813502 
z
" style="fill:#390445;"/>
    <path clip-path="url(#p436f9f566b)" d="M 239.002775 169.551023 
L 239.177219 145.681448 
L 246.387858 139.266224 
L 246.131049 162.989229 
z
" style="fill:#7a0892;"/>
    <path clip-path="url(#p436f9f566b)" d="M 206.297214 168.527892 
L 218.949524 172.361429 
L 218.947351 171.553492 
L 206.289978 167.722777 
z
" style="fill:#110679;"/>
    <path clip-path="url(#p436f9f566b)" d="M 206.297214 168.527892 
L 206.282044 166.8398 
L 218.944968 170.667415 
L 218.949524 172.361429 
z
" style="fill:#0b033b;"/>
    <path clip-path="url(#p436f9f566b)" d="M 165.82912 174.154745 
L 165.82466 174.002115 
L 173.682243 167.356007 
L 173.686069 167.507715 
z
" style="fill:#0b0777;"/>
    <path clip-path="url(#p436f9f566b)" d="M 218.949524 172.361429 
L 226.292478 165.747667 
L 239.002775 169.551023 
L 231.739835 176.23678 
z
" style="fill:#6c2640;"/>
    <path clip-path="url(#p436f9f566b)" d="M 284.848695 174.43298 
L 284.851032 174.355672 
L 291.600322 167.70394 
L 291.597749 167.780781 
z
" style="fill:#0b0777;"/>
    <path clip-path="url(#p436f9f566b)" d="M 284.848695 174.43298 
L 291.597749 167.780781 
L 291.602518 167.638358 
L 284.853027 174.289692 
z
" style="fill:#050338;"/>
    <path clip-path="url(#p436f9f566b)" d="M 226.292478 165.747667 
L 239.002775 169.551023 
L 239.176254 145.813502 
L 226.315469 142.094451 
z
" style="fill:#7a0892;"/>
    <path clip-path="url(#p436f9f566b)" d="M 198.736391 175.194243 
L 206.297214 168.527892 
L 206.293036 168.06298 
L 198.730406 174.726504 
z
" style="fill:#070339;"/>
    <path clip-path="url(#p436f9f566b)" d="M 251.851153 173.395697 
L 258.898031 166.762758 
L 271.803162 170.57712 
L 264.839875 177.282368 
z
" style="fill:#090449;"/>
    <path clip-path="url(#p436f9f566b)" d="M 198.736391 175.194243 
L 198.71466 173.495874 
L 206.282044 166.8398 
L 206.297214 168.527892 
z
" style="fill:#18057c;"/>
    <path clip-path="url(#p436f9f566b)" d="M 251.859706 172.773105 
L 264.852534 176.657589 
L 271.817859 169.956121 
L 258.908675 166.143928 
z
" style="fill:#0c0668;"/>
    <path clip-path="url(#p436f9f566b)" d="M 271.803162 170.57712 
L 284.848695 174.43298 
L 284.853027 174.289692 
L 271.806541 170.434332 
z
" style="fill:#0b0777;"/>
    <path clip-path="url(#p436f9f566b)" d="M 271.803162 170.57712 
L 271.808314 170.359455 
L 284.855298 174.214552 
L 284.848695 174.43298 
z
" style="fill:#050338;"/>
    <path clip-path="url(#p436f9f566b)" d="M 226.315469 142.094451 
L 239.176254 145.813502 
L 246.386437 139.397453 
L 233.606794 135.747653 
z
" style="fill:#6a077f;"/>
    <path clip-path="url(#p436f9f566b)" d="M 165.82912 174.154745 
L 173.686069 167.507715 
L 186.143392 171.330164 
L 178.361455 178.049733 
z
" style="fill:#070448;"/>
    <path clip-path="url(#p436f9f566b)" d="M 165.82466 174.002115 
L 178.357931 177.896568 
L 186.140492 171.177925 
L 173.682243 167.356007 
z
" style="fill:#0a0667;"/>
    <path clip-path="url(#p436f9f566b)" d="M 284.848695 174.43298 
L 291.597749 167.780781 
L 304.698789 171.606197 
L 298.036935 178.33102 
z
" style="fill:#070448;"/>
    <path clip-path="url(#p436f9f566b)" d="M 284.851032 174.355672 
L 298.039797 178.25344 
L 304.701881 171.529086 
L 291.600322 167.70394 
z
" style="fill:#0a0667;"/>
    <path clip-path="url(#p436f9f566b)" d="M 186.143392 171.330164 
L 198.736391 175.194243 
L 198.730406 174.726504 
L 186.134512 170.86406 
z
" style="fill:#0e0678;"/>
    <path clip-path="url(#p436f9f566b)" d="M 186.143392 171.330164 
L 186.132003 170.732336 
L 198.728715 174.594318 
L 198.736391 175.194243 
z
" style="fill:#070339;"/>
    <path clip-path="url(#p436f9f566b)" d="M 198.736391 175.194243 
L 206.297214 168.527892 
L 218.949524 172.361429 
L 211.467294 179.100638 
z
" style="fill:#0e034b;"/>
    <path clip-path="url(#p436f9f566b)" d="M 264.839875 177.282368 
L 264.844312 177.063378 
L 271.808314 170.359455 
L 271.803162 170.57712 
z
" style="fill:#0b0777;"/>
    <path clip-path="url(#p436f9f566b)" d="M 264.839875 177.282368 
L 271.803162 170.57712 
L 271.817859 169.956121 
L 264.852534 176.657589 
z
" style="fill:#070339;"/>
    <path clip-path="url(#p436f9f566b)" d="M 251.851153 173.395697 
L 258.898031 166.762758 
L 259.307507 142.955291 
L 252.180238 149.440902 
z
" style="fill:#390445;"/>
    <path clip-path="url(#p436f9f566b)" d="M 198.71466 173.495874 
L 211.456309 177.396296 
L 218.944968 170.667415 
L 206.282044 166.8398 
z
" style="fill:#15056c;"/>
    <path clip-path="url(#p436f9f566b)" d="M 178.361455 178.049733 
L 186.143392 171.330164 
L 186.140492 171.177925 
L 178.357931 177.896568 
z
" style="fill:#050338;"/>
    <path clip-path="url(#p436f9f566b)" d="M 178.361455 178.049733 
L 178.347615 177.448266 
L 186.132003 170.732336 
L 186.143392 171.330164 
z
" style="fill:#0e0678;"/>
    <path clip-path="url(#p436f9f566b)" d="M 231.739835 176.23678 
L 239.002775 169.551023 
L 251.851153 173.395697 
L 244.670417 180.154631 
z
" style="fill:#6b2442;"/>
    <path clip-path="url(#p436f9f566b)" d="M 298.036935 178.33102 
L 304.698789 171.606197 
L 304.701881 171.529086 
L 298.039797 178.25344 
z
" style="fill:#050338;"/>
    <path clip-path="url(#p436f9f566b)" d="M 226.292478 165.747667 
L 226.333057 123.999922 
L 239.308979 127.652442 
L 239.002775 169.551023 
z
" style="fill:#541d32;"/>
    <path clip-path="url(#p436f9f566b)" d="M 251.851153 173.395697 
L 264.839875 177.282368 
L 264.852534 176.657589 
L 251.859706 172.773105 
z
" style="fill:#0e0678;"/>
    <path clip-path="url(#p436f9f566b)" d="M 251.851153 173.395697 
L 251.864564 172.419432 
L 264.859726 176.302673 
L 264.839875 177.282368 
z
" style="fill:#080339;"/>
    <path clip-path="url(#p436f9f566b)" d="M 239.002775 169.551023 
L 251.851153 173.395697 
L 252.180238 149.440902 
L 239.177219 145.681448 
z
" style="fill:#7a0892;"/>
    <path clip-path="url(#p436f9f566b)" d="M 264.839875 177.282368 
L 271.803162 170.57712 
L 284.848695 174.43298 
L 277.971253 181.211726 
z
" style="fill:#070448;"/>
    <path clip-path="url(#p436f9f566b)" d="M 264.844312 177.063378 
L 277.977161 180.991966 
L 284.855298 174.214552 
L 271.808314 170.359455 
z
" style="fill:#0a0667;"/>
    <path clip-path="url(#p436f9f566b)" d="M 211.467294 179.100638 
L 218.949524 172.361429 
L 218.944968 170.667415 
L 211.456309 177.396296 
z
" style="fill:#0b033b;"/>
    <path clip-path="url(#p436f9f566b)" d="M 165.82912 174.154745 
L 178.361455 178.049733 
L 178.357931 177.896568 
L 165.82466 174.002115 
z
" style="fill:#0b0777;"/>
    <path clip-path="url(#p436f9f566b)" d="M 165.82912 174.154745 
L 165.822444 173.926295 
L 178.35618 177.820481 
L 178.361455 178.049733 
z
" style="fill:#050338;"/>
    <path clip-path="url(#p436f9f566b)" d="M 284.848695 174.43298 
L 298.036935 178.33102 
L 298.039797 178.25344 
L 284.851032 174.355672 
z
" style="fill:#0b0777;"/>
    <path clip-path="url(#p436f9f566b)" d="M 284.848695 174.43298 
L 284.851854 174.328487 
L 298.040803 178.22616 
L 298.036935 178.33102 
z
" style="fill:#050338;"/>
    <path clip-path="url(#p436f9f566b)" d="M 218.949524 172.361429 
L 218.836545 130.351919 
L 226.333057 123.999922 
L 226.292478 165.747667 
z
" style="fill:#b33e6b;"/>
    <path clip-path="url(#p436f9f566b)" d="M 239.177219 145.681448 
L 252.180238 149.440902 
L 259.307507 142.955291 
L 246.387858 139.266224 
z
" style="fill:#6a077f;"/>
    <path clip-path="url(#p436f9f566b)" d="M 178.361455 178.049733 
L 186.143392 171.330164 
L 198.736391 175.194243 
L 191.031582 181.987547 
z
" style="fill:#090449;"/>
    <path clip-path="url(#p436f9f566b)" d="M 178.347615 177.448266 
L 191.021501 181.383964 
L 198.728715 174.594318 
L 186.132003 170.732336 
z
" style="fill:#0c0668;"/>
    <path clip-path="url(#p436f9f566b)" d="M 244.670417 180.154631 
L 244.680422 179.172415 
L 251.864564 172.419432 
L 251.851153 173.395697 
z
" style="fill:#110679;"/>
    <path clip-path="url(#p436f9f566b)" d="M 198.736391 175.194243 
L 211.467294 179.100638 
L 211.456309 177.396296 
L 198.71466 173.495874 
z
" style="fill:#18057c;"/>
    <path clip-path="url(#p436f9f566b)" d="M 157.822766 180.928173 
L 157.815104 180.698331 
L 165.822444 173.926295 
L 165.82912 174.154745 
z
" style="fill:#0b0777;"/>
    <path clip-path="url(#p436f9f566b)" d="M 198.736391 175.194243 
L 198.702244 172.525465 
L 211.450033 176.422467 
L 211.467294 179.100638 
z
" style="fill:#0e023c;"/>
    <path clip-path="url(#p436f9f566b)" d="M 211.467294 179.100638 
L 218.949524 172.361429 
L 231.739835 176.23678 
L 224.338378 183.050047 
z
" style="fill:#7f412c;"/>
    <path clip-path="url(#p436f9f566b)" d="M 277.971253 181.211726 
L 277.974079 181.106595 
L 284.851854 174.328487 
L 284.848695 174.43298 
z
" style="fill:#0b0777;"/>
    <path clip-path="url(#p436f9f566b)" d="M 277.971253 181.211726 
L 284.848695 174.43298 
L 284.855298 174.214552 
L 277.977161 180.991966 
z
" style="fill:#050338;"/>
    <path clip-path="url(#p436f9f566b)" d="M 191.031582 181.987547 
L 198.736391 175.194243 
L 198.728715 174.594318 
L 191.021501 181.383964 
z
" style="fill:#070339;"/>
    <path clip-path="url(#p436f9f566b)" d="M 244.670417 180.154631 
L 251.851153 173.395697 
L 264.839875 177.282368 
L 257.743589 184.115686 
z
" style="fill:#0a0449;"/>
    <path clip-path="url(#p436f9f566b)" d="M 239.002775 169.551023 
L 239.302202 128.579763 
L 252.416041 132.276256 
L 251.851153 173.395697 
z
" style="fill:#531c33;"/>
    <path clip-path="url(#p436f9f566b)" d="M 191.031582 181.987547 
L 190.986735 179.30247 
L 198.702244 172.525465 
L 198.736391 175.194243 
z
" style="fill:#1e057f;"/>
    <path clip-path="url(#p436f9f566b)" d="M 244.680422 179.172415 
L 257.760118 183.130011 
L 264.859726 176.302673 
L 251.864564 172.419432 
z
" style="fill:#0f0569;"/>
    <path clip-path="url(#p436f9f566b)" d="M 264.839875 177.282368 
L 264.844246 177.066647 
L 277.977073 180.995246 
L 277.971253 181.211726 
z
" style="fill:#050338;"/>
    <path clip-path="url(#p436f9f566b)" d="M 264.839875 177.282368 
L 277.971253 181.211726 
L 277.977161 180.991966 
L 264.844312 177.063378 
z
" style="fill:#0b0777;"/>
    <path clip-path="url(#p436f9f566b)" d="M 157.822766 180.928173 
L 165.82912 174.154745 
L 178.361455 178.049733 
L 170.430723 184.897786 
z
" style="fill:#070448;"/>
    <path clip-path="url(#p436f9f566b)" d="M 157.815104 180.698331 
L 170.424478 184.667135 
L 178.35618 177.820481 
L 165.822444 173.926295 
z
" style="fill:#0a0667;"/>
    <path clip-path="url(#p436f9f566b)" d="M 277.971253 181.211726 
L 284.848695 174.43298 
L 298.036935 178.33102 
L 291.24765 185.184478 
z
" style="fill:#070448;"/>
    <path clip-path="url(#p436f9f566b)" d="M 277.974079 181.106595 
L 291.251196 185.078978 
L 298.040803 178.22616 
L 284.851854 174.328487 
z
" style="fill:#0a0667;"/>
    <path clip-path="url(#p436f9f566b)" d="M 178.361455 178.049733 
L 191.031582 181.987547 
L 191.021501 181.383964 
L 178.347615 177.448266 
z
" style="fill:#0e0678;"/>
    <path clip-path="url(#p436f9f566b)" d="M 178.361455 178.049733 
L 178.346791 177.412446 
L 191.020901 181.348018 
L 191.031582 181.987547 
z
" style="fill:#070339;"/>
    <path clip-path="url(#p436f9f566b)" d="M 231.739835 176.23678 
L 231.89242 135.008364 
L 239.302202 128.579763 
L 239.002775 169.551023 
z
" style="fill:#b03b6d;"/>
    <path clip-path="url(#p436f9f566b)" d="M 231.739835 176.23678 
L 239.002775 169.551023 
L 239.308979 127.652442 
L 231.895874 134.075039 
z
" style="fill:#541d32;"/>
    <path clip-path="url(#p436f9f566b)" d="M 191.031582 181.987547 
L 198.736391 175.194243 
L 211.467294 179.100638 
L 203.841786 185.968896 
z
" style="fill:#12034d;"/>
    <path clip-path="url(#p436f9f566b)" d="M 257.743589 184.115686 
L 257.747228 183.898649 
L 264.844246 177.066647 
L 264.839875 177.282368 
z
" style="fill:#0b0777;"/>
    <path clip-path="url(#p436f9f566b)" d="M 257.743589 184.115686 
L 264.839875 177.282368 
L 264.859726 176.302673 
L 257.760118 183.130011 
z
" style="fill:#080339;"/>
    <path clip-path="url(#p436f9f566b)" d="M 170.430723 184.897786 
L 178.361455 178.049733 
L 178.35618 177.820481 
L 170.424478 184.667135 
z
" style="fill:#050338;"/>
    <path clip-path="url(#p436f9f566b)" d="M 190.986735 179.30247 
L 203.814035 183.274347 
L 211.450033 176.422467 
L 198.702244 172.525465 
z
" style="fill:#1a046e;"/>
    <path clip-path="url(#p436f9f566b)" d="M 170.430723 184.897786 
L 170.413364 184.25661 
L 178.346791 177.412446 
L 178.361455 178.049733 
z
" style="fill:#0e0678;"/>
    <path clip-path="url(#p436f9f566b)" d="M 224.338378 183.050047 
L 231.739835 176.23678 
L 244.670417 180.154631 
L 237.351973 187.043183 
z
" style="fill:#80432b;"/>
    <path clip-path="url(#p436f9f566b)" d="M 291.24765 185.184478 
L 298.036935 178.33102 
L 298.040803 178.22616 
L 291.251196 185.078978 
z
" style="fill:#050338;"/>
    <path clip-path="url(#p436f9f566b)" d="M 218.949524 172.361429 
L 231.739835 176.23678 
L 231.895874 134.075039 
L 218.836545 130.351919 
z
" style="fill:#b33e6b;"/>
    <path clip-path="url(#p436f9f566b)" d="M 244.670417 180.154631 
L 257.743589 184.115686 
L 257.760118 183.130011 
L 244.680422 179.172415 
z
" style="fill:#110679;"/>
    <path clip-path="url(#p436f9f566b)" d="M 244.670417 180.154631 
L 244.687137 178.513244 
L 257.771211 182.468517 
L 257.743589 184.115686 
z
" style="fill:#0a033a;"/>
    <path clip-path="url(#p436f9f566b)" d="M 257.743589 184.115686 
L 264.839875 177.282368 
L 277.971253 181.211726 
L 270.961723 188.120663 
z
" style="fill:#070448;"/>
    <path clip-path="url(#p436f9f566b)" d="M 257.747228 183.898649 
L 270.966831 187.902861 
L 277.977073 180.995246 
L 264.844246 177.066647 
z
" style="fill:#0a0667;"/>
    <path clip-path="url(#p436f9f566b)" d="M 157.822766 180.928173 
L 170.430723 184.897786 
L 170.424478 184.667135 
L 157.815104 180.698331 
z
" style="fill:#0b0777;"/>
    <path clip-path="url(#p436f9f566b)" d="M 157.822766 180.928173 
L 157.814397 180.677126 
L 170.423902 184.645856 
L 170.430723 184.897786 
z
" style="fill:#050338;"/>
    <path clip-path="url(#p436f9f566b)" d="M 203.841786 185.968896 
L 211.467294 179.100638 
L 211.450033 176.422467 
L 203.814035 183.274347 
z
" style="fill:#0e023c;"/>
    <path clip-path="url(#p436f9f566b)" d="M 277.971253 181.211726 
L 291.24765 185.184478 
L 291.251196 185.078978 
L 277.974079 181.106595 
z
" style="fill:#0b0777;"/>
    <path clip-path="url(#p436f9f566b)" d="M 277.971253 181.211726 
L 277.974536 181.089606 
L 291.251769 185.061929 
L 291.24765 185.184478 
z
" style="fill:#050338;"/>
    <path clip-path="url(#p436f9f566b)" d="M 170.430723 184.897786 
L 178.361455 178.049733 
L 191.031582 181.987547 
L 183.178635 188.911464 
z
" style="fill:#090449;"/>
    <path clip-path="url(#p436f9f566b)" d="M 170.413364 184.25661 
L 183.165307 188.268027 
L 191.020901 181.348018 
L 178.346791 177.412446 
z
" style="fill:#0c0668;"/>
    <path clip-path="url(#p436f9f566b)" d="M 237.351973 187.043183 
L 237.362777 185.391764 
L 244.687137 178.513244 
L 244.670417 180.154631 
z
" style="fill:#16067b;"/>
    <path clip-path="url(#p436f9f566b)" d="M 244.670417 180.154631 
L 251.851153 173.395697 
L 252.416041 132.276256 
L 245.091918 138.776674 
z
" style="fill:#531c33;"/>
    <path clip-path="url(#p436f9f566b)" d="M 149.662704 187.831639 
L 149.653218 187.579059 
L 157.814397 180.677126 
L 157.822766 180.928173 
z
" style="fill:#0b0777;"/>
    <path clip-path="url(#p436f9f566b)" d="M 191.031582 181.987547 
L 203.841786 185.968896 
L 203.814035 183.274347 
L 190.986735 179.30247 
z
" style="fill:#1e057f;"/>
    <path clip-path="url(#p436f9f566b)" d="M 218.949524 172.361429 
L 218.795676 115.155596 
L 231.952328 118.821274 
L 231.739835 176.23678 
z
" style="fill:#633322;"/>
    <path clip-path="url(#p436f9f566b)" d="M 203.841786 185.968896 
L 211.467294 179.100638 
L 224.338378 183.050047 
L 216.794403 189.994506 
z
" style="fill:#875c1b;"/>
    <path clip-path="url(#p436f9f566b)" d="M 191.031582 181.987547 
L 190.970208 178.312986 
L 203.803808 182.281362 
L 203.841786 185.968896 
z
" style="fill:#11023d;"/>
    <path clip-path="url(#p436f9f566b)" d="M 270.961723 188.120663 
L 270.964605 187.997797 
L 277.974536 181.089606 
L 277.971253 181.211726 
z
" style="fill:#0b0777;"/>
    <path clip-path="url(#p436f9f566b)" d="M 270.961723 188.120663 
L 277.971253 181.211726 
L 277.977073 180.995246 
L 270.966831 187.902861 
z
" style="fill:#050338;"/>
    <path clip-path="url(#p436f9f566b)" d="M 183.178635 188.911464 
L 191.031582 181.987547 
L 191.020901 181.348018 
L 183.165307 188.268027 
z
" style="fill:#070339;"/>
    <path clip-path="url(#p436f9f566b)" d="M 237.351973 187.043183 
L 244.670417 180.154631 
L 257.743589 184.115686 
L 250.510457 191.080779 
z
" style="fill:#0d034a;"/>
    <path clip-path="url(#p436f9f566b)" d="M 231.739835 176.23678 
L 244.670417 180.154631 
L 245.091918 138.776674 
L 231.89242 135.008364 
z
" style="fill:#b03b6d;"/>
    <path clip-path="url(#p436f9f566b)" d="M 218.836545 130.351919 
L 231.895874 134.075039 
L 239.308979 127.652442 
L 226.333057 123.999922 
z
" style="fill:#9b365c;"/>
    <path clip-path="url(#p436f9f566b)" d="M 211.467294 179.100638 
L 211.096247 121.53092 
L 218.795676 115.155596 
L 218.949524 172.361429 
z
" style="fill:#d26c49;"/>
    <path clip-path="url(#p436f9f566b)" d="M 183.178635 188.911464 
L 183.102059 185.214394 
L 190.970208 178.312986 
L 191.031582 181.987547 
z
" style="fill:#230581;"/>
    <path clip-path="url(#p436f9f566b)" d="M 257.743589 184.115686 
L 270.961723 188.120663 
L 270.966831 187.902861 
L 257.747228 183.898649 
z
" style="fill:#0b0777;"/>
    <path clip-path="url(#p436f9f566b)" d="M 257.743589 184.115686 
L 257.748548 183.819964 
L 270.968683 187.823899 
L 270.961723 188.120663 
z
" style="fill:#050338;"/>
    <path clip-path="url(#p436f9f566b)" d="M 237.362777 185.391764 
L 250.532307 189.423529 
L 257.771211 182.468517 
L 244.687137 178.513244 
z
" style="fill:#13056b;"/>
    <path clip-path="url(#p436f9f566b)" d="M 149.662704 187.831639 
L 157.822766 180.928173 
L 170.430723 184.897786 
L 162.346885 191.878042 
z
" style="fill:#070448;"/>
    <path clip-path="url(#p436f9f566b)" d="M 149.653218 187.579059 
L 162.338966 191.624571 
L 170.423902 184.645856 
L 157.814397 180.677126 
z
" style="fill:#0a0667;"/>
    <path clip-path="url(#p436f9f566b)" d="M 270.961723 188.120663 
L 277.971253 181.211726 
L 291.24765 185.184478 
L 284.327244 192.170297 
z
" style="fill:#070448;"/>
    <path clip-path="url(#p436f9f566b)" d="M 270.964605 187.997797 
L 284.330973 192.046998 
L 291.251769 185.061929 
L 277.974536 181.089606 
z
" style="fill:#0a0667;"/>
    <path clip-path="url(#p436f9f566b)" d="M 170.430723 184.897786 
L 183.178635 188.911464 
L 183.165307 188.268027 
L 170.413364 184.25661 
z
" style="fill:#0e0678;"/>
    <path clip-path="url(#p436f9f566b)" d="M 170.430723 184.897786 
L 170.411814 184.199349 
L 183.164117 188.210565 
L 183.178635 188.911464 
z
" style="fill:#070339;"/>
    <path clip-path="url(#p436f9f566b)" d="M 183.178635 188.911464 
L 191.031582 181.987547 
L 203.841786 185.968896 
L 196.068846 192.969946 
z
" style="fill:#15034e;"/>
    <path clip-path="url(#p436f9f566b)" d="M 250.510457 191.080779 
L 250.514379 190.783249 
L 257.748548 183.819964 
L 257.743589 184.115686 
z
" style="fill:#0b0777;"/>
    <path clip-path="url(#p436f9f566b)" d="M 250.510457 191.080779 
L 257.743589 184.115686 
L 257.771211 182.468517 
L 250.532307 189.423529 
z
" style="fill:#0a033a;"/>
    <path clip-path="url(#p436f9f566b)" d="M 162.346885 191.878042 
L 170.430723 184.897786 
L 170.423902 184.645856 
L 162.338966 191.624571 
z
" style="fill:#050338;"/>
    <path clip-path="url(#p436f9f566b)" d="M 162.346885 191.878042 
L 162.324931 191.175333 
L 170.411814 184.199349 
L 170.430723 184.897786 
z
" style="fill:#0e0678;"/>
    <path clip-path="url(#p436f9f566b)" d="M 216.794403 189.994506 
L 224.338378 183.050047 
L 237.351973 187.043183 
L 229.891821 194.06512 
z
" style="fill:#875d1a;"/>
    <path clip-path="url(#p436f9f566b)" d="M 231.739835 176.23678 
L 231.955981 117.834183 
L 245.267528 121.53744 
L 244.670417 180.154631 
z
" style="fill:#643421;"/>
    <path clip-path="url(#p436f9f566b)" d="M 284.327244 192.170297 
L 291.24765 185.184478 
L 291.251769 185.061929 
L 284.330973 192.046998 
z
" style="fill:#050338;"/>
    <path clip-path="url(#p436f9f566b)" d="M 183.102059 185.214394 
L 196.015958 189.259795 
L 203.803808 182.281362 
L 190.970208 178.312986 
z
" style="fill:#1f0470;"/>
    <path clip-path="url(#p436f9f566b)" d="M 237.351973 187.043183 
L 250.510457 191.080779 
L 250.532307 189.423529 
L 237.362777 185.391764 
z
" style="fill:#16067b;"/>
    <path clip-path="url(#p436f9f566b)" d="M 237.351973 187.043183 
L 237.365661 184.950919 
L 250.53814 188.981125 
L 250.510457 191.080779 
z
" style="fill:#0c033b;"/>
    <path clip-path="url(#p436f9f566b)" d="M 231.89242 135.008364 
L 245.091918 138.776674 
L 252.416041 132.276256 
L 239.302202 128.579763 
z
" style="fill:#99335f;"/>
    <path clip-path="url(#p436f9f566b)" d="M 250.510457 191.080779 
L 257.743589 184.115686 
L 270.961723 188.120663 
L 263.816264 195.163579 
z
" style="fill:#070448;"/>
    <path clip-path="url(#p436f9f566b)" d="M 250.514379 190.783249 
L 263.822214 194.864999 
L 270.968683 187.823899 
L 257.748548 183.819964 
z
" style="fill:#0a0667;"/>
    <path clip-path="url(#p436f9f566b)" d="M 149.662704 187.831639 
L 162.346885 191.878042 
L 162.338966 191.624571 
L 149.653218 187.579059 
z
" style="fill:#0b0777;"/>
    <path clip-path="url(#p436f9f566b)" d="M 149.662704 187.831639 
L 149.652722 187.565862 
L 162.338552 191.611327 
L 162.346885 191.878042 
z
" style="fill:#050338;"/>
    <path clip-path="url(#p436f9f566b)" d="M 224.338378 183.050047 
L 231.739835 176.23678 
L 231.952328 118.821274 
L 224.338378 125.268684 
z
" style="fill:#633322;"/>
    <path clip-path="url(#p436f9f566b)" d="M 196.068846 192.969946 
L 203.841786 185.968896 
L 203.803808 182.281362 
L 196.015958 189.259795 
z
" style="fill:#11023d;"/>
    <path clip-path="url(#p436f9f566b)" d="M 270.961723 188.120663 
L 270.964335 188.009273 
L 284.330624 192.058514 
L 284.327244 192.170297 
z
" style="fill:#050338;"/>
    <path clip-path="url(#p436f9f566b)" d="M 270.961723 188.120663 
L 284.327244 192.170297 
L 284.330973 192.046998 
L 270.964605 187.997797 
z
" style="fill:#0b0777;"/>
    <path clip-path="url(#p436f9f566b)" d="M 224.338378 183.050047 
L 224.338378 124.275026 
L 231.955981 117.834183 
L 231.739835 176.23678 
z
" style="fill:#d36f46;"/>
    <path clip-path="url(#p436f9f566b)" d="M 162.346885 191.878042 
L 170.430723 184.897786 
L 183.178635 188.911464 
L 175.173234 195.969799 
z
" style="fill:#090449;"/>
    <path clip-path="url(#p436f9f566b)" d="M 162.324931 191.175333 
L 175.155725 195.264607 
L 183.164117 188.210565 
L 170.411814 184.199349 
z
" style="fill:#0c0668;"/>
    <path clip-path="url(#p436f9f566b)" d="M 229.891821 194.06512 
L 229.897719 191.960035 
L 237.365661 184.950919 
L 237.351973 187.043183 
z
" style="fill:#1a057d;"/>
    <path clip-path="url(#p436f9f566b)" d="M 141.344465 194.868925 
L 141.333263 194.60152 
L 149.652722 187.565862 
L 149.662704 187.831639 
z
" style="fill:#0b0777;"/>
    <path clip-path="url(#p436f9f566b)" d="M 211.467294 179.100638 
L 224.338378 183.050047 
L 224.338378 125.268684 
L 211.096247 121.53092 
z
" style="fill:#d26c49;"/>
    <path clip-path="url(#p436f9f566b)" d="M 196.068846 192.969946 
L 203.841786 185.968896 
L 216.794403 189.994506 
L 209.103753 197.073984 
z
" style="fill:#847814;"/>
    <path clip-path="url(#p436f9f566b)" d="M 183.178635 188.911464 
L 196.068846 192.969946 
L 196.015958 189.259795 
L 183.102059 185.214394 
z
" style="fill:#230581;"/>
    <path clip-path="url(#p436f9f566b)" d="M 263.816264 195.163579 
L 263.818497 195.051507 
L 270.964335 188.009273 
L 270.961723 188.120663 
z
" style="fill:#0b0777;"/>
    <path clip-path="url(#p436f9f566b)" d="M 263.816264 195.163579 
L 270.961723 188.120663 
L 270.968683 187.823899 
L 263.822214 194.864999 
z
" style="fill:#050338;"/>
    <path clip-path="url(#p436f9f566b)" d="M 183.178635 188.911464 
L 183.077398 184.023749 
L 195.998925 188.064922 
L 196.068846 192.969946 
z
" style="fill:#13023e;"/>
    <path clip-path="url(#p436f9f566b)" d="M 175.173234 195.969799 
L 183.178635 188.911464 
L 183.164117 188.210565 
L 175.155725 195.264607 
z
" style="fill:#070339;"/>
    <path clip-path="url(#p436f9f566b)" d="M 229.891821 194.06512 
L 237.351973 187.043183 
L 250.510457 191.080779 
L 243.136481 198.181496 
z
" style="fill:#10034c;"/>
    <path clip-path="url(#p436f9f566b)" d="M 250.510457 191.080779 
L 263.816264 195.163579 
L 263.822214 194.864999 
L 250.514379 190.783249 
z
" style="fill:#0b0777;"/>
    <path clip-path="url(#p436f9f566b)" d="M 250.510457 191.080779 
L 250.517986 190.509723 
L 263.827684 194.590507 
L 263.816264 195.163579 
z
" style="fill:#070339;"/>
    <path clip-path="url(#p436f9f566b)" d="M 175.173234 195.969799 
L 175.051131 191.052052 
L 183.077398 184.023749 
L 183.178635 188.911464 
z
" style="fill:#280484;"/>
    <path clip-path="url(#p436f9f566b)" d="M 229.897719 191.960035 
L 243.156559 196.068962 
L 250.53814 188.981125 
L 237.365661 184.950919 
z
" style="fill:#17056d;"/>
    <path clip-path="url(#p436f9f566b)" d="M 141.344465 194.868925 
L 149.662704 187.831639 
L 162.346885 191.878042 
L 154.105465 198.994368 
z
" style="fill:#070448;"/>
    <path clip-path="url(#p436f9f566b)" d="M 141.333263 194.60152 
L 154.095933 198.726018 
L 162.338552 191.611327 
L 149.652722 187.565862 
z
" style="fill:#0a0667;"/>
    <path clip-path="url(#p436f9f566b)" d="M 263.816264 195.163579 
L 270.961723 188.120663 
L 284.327244 192.170297 
L 277.271882 199.292348 
z
" style="fill:#070448;"/>
    <path clip-path="url(#p436f9f566b)" d="M 263.818497 195.051507 
L 277.274893 199.17988 
L 284.330624 192.058514 
L 270.964335 188.009273 
z
" style="fill:#0a0667;"/>
    <path clip-path="url(#p436f9f566b)" d="M 211.467294 179.100638 
L 211.013866 108.749117 
L 224.338378 112.437403 
L 224.338378 183.050047 
z
" style="fill:#694815;"/>
    <path clip-path="url(#p436f9f566b)" d="M 162.346885 191.878042 
L 162.327187 191.247568 
L 175.157525 195.337097 
L 175.173234 195.969799 
z
" style="fill:#070339;"/>
    <path clip-path="url(#p436f9f566b)" d="M 162.346885 191.878042 
L 175.173234 195.969799 
L 175.155725 195.264607 
L 162.324931 191.175333 
z
" style="fill:#0e0678;"/>
    <path clip-path="url(#p436f9f566b)" d="M 237.351973 187.043183 
L 244.670417 180.154631 
L 245.267528 121.53744 
L 237.737929 128.05156 
z
" style="fill:#643421;"/>
    <path clip-path="url(#p436f9f566b)" d="M 175.173234 195.969799 
L 183.178635 188.911464 
L 196.068846 192.969946 
L 188.144156 200.107676 
z
" style="fill:#18034f;"/>
    <path clip-path="url(#p436f9f566b)" d="M 243.136481 198.181496 
L 243.141942 197.606941 
L 250.517986 190.509723 
L 250.510457 191.080779 
z
" style="fill:#0e0678;"/>
    <path clip-path="url(#p436f9f566b)" d="M 243.136481 198.181496 
L 250.510457 191.080779 
L 250.53814 188.981125 
L 243.156559 196.068962 
z
" style="fill:#0c033b;"/>
    <path clip-path="url(#p436f9f566b)" d="M 203.841786 185.968896 
L 203.112564 115.164186 
L 211.013866 108.749117 
L 211.467294 179.100638 
z
" style="fill:#df982d;"/>
    <path clip-path="url(#p436f9f566b)" d="M 154.105465 198.994368 
L 162.346885 191.878042 
L 162.338552 191.611327 
L 154.095933 198.726018 
z
" style="fill:#050338;"/>
    <path clip-path="url(#p436f9f566b)" d="M 154.105465 198.994368 
L 154.082932 198.360029 
L 162.327187 191.247568 
L 162.346885 191.878042 
z
" style="fill:#0e0678;"/>
    <path clip-path="url(#p436f9f566b)" d="M 209.103753 197.073984 
L 216.794403 189.994506 
L 229.891821 194.06512 
L 222.285805 201.224351 
z
" style="fill:#857513;"/>
    <path clip-path="url(#p436f9f566b)" d="M 224.338378 183.050047 
L 237.351973 187.043183 
L 237.737929 128.05156 
L 224.338378 124.275026 
z
" style="fill:#d36f46;"/>
    <path clip-path="url(#p436f9f566b)" d="M 277.271882 199.292348 
L 284.327244 192.170297 
L 284.330624 192.058514 
L 277.274893 199.17988 
z
" style="fill:#050338;"/>
    <path clip-path="url(#p436f9f566b)" d="M 175.051131 191.052052 
L 188.053758 195.172479 
L 195.998925 188.064922 
L 183.077398 184.023749 
z
" style="fill:#230472;"/>
    <path clip-path="url(#p436f9f566b)" d="M 229.891821 194.06512 
L 243.136481 198.181496 
L 243.156559 196.068962 
L 229.897719 191.960035 
z
" style="fill:#1a057d;"/>
    <path clip-path="url(#p436f9f566b)" d="M 243.136481 198.181496 
L 250.510457 191.080779 
L 263.816264 195.163579 
L 256.530882 202.34441 
z
" style="fill:#090449;"/>
    <path clip-path="url(#p436f9f566b)" d="M 229.891821 194.06512 
L 229.90236 190.303606 
L 243.172357 194.406654 
L 243.136481 198.181496 
z
" style="fill:#11023d;"/>
    <path clip-path="url(#p436f9f566b)" d="M 243.141942 197.606941 
L 256.540286 201.767823 
L 263.827684 194.590507 
L 250.517986 190.509723 
z
" style="fill:#0c0668;"/>
    <path clip-path="url(#p436f9f566b)" d="M 141.344465 194.868925 
L 154.105465 198.994368 
L 154.095933 198.726018 
L 141.333263 194.60152 
z
" style="fill:#0b0777;"/>
    <path clip-path="url(#p436f9f566b)" d="M 263.816264 195.163579 
L 277.271882 199.292348 
L 277.274893 199.17988 
L 263.818497 195.051507 
z
" style="fill:#0b0777;"/>
    <path clip-path="url(#p436f9f566b)" d="M 263.816264 195.163579 
L 263.820782 194.93686 
L 277.277974 199.064828 
L 277.271882 199.292348 
z
" style="fill:#050338;"/>
    <path clip-path="url(#p436f9f566b)" d="M 188.144156 200.107676 
L 196.068846 192.969946 
L 195.998925 188.064922 
L 188.053758 195.172479 
z
" style="fill:#13023e;"/>
    <path clip-path="url(#p436f9f566b)" d="M 154.105465 198.994368 
L 162.346885 191.878042 
L 175.173234 195.969799 
L 167.010898 203.166503 
z
" style="fill:#090449;"/>
    <path clip-path="url(#p436f9f566b)" d="M 154.082932 198.360029 
L 166.992401 202.52992 
L 175.157525 195.337097 
L 162.327187 191.247568 
z
" style="fill:#0c0668;"/>
    <path clip-path="url(#p436f9f566b)" d="M 224.338378 183.050047 
L 224.338378 111.992761 
L 237.818599 115.721597 
L 237.351973 187.043183 
z
" style="fill:#694914;"/>
    <path clip-path="url(#p436f9f566b)" d="M 211.096247 121.53092 
L 224.338378 125.268684 
L 231.952328 118.821274 
L 218.795676 115.155596 
z
" style="fill:#b65d3f;"/>
    <path clip-path="url(#p436f9f566b)" d="M 222.285805 201.224351 
L 222.281872 197.439714 
L 229.90236 190.303606 
L 229.891821 194.06512 
z
" style="fill:#230581;"/>
    <path clip-path="url(#p436f9f566b)" d="M 188.144156 200.107676 
L 196.068846 192.969946 
L 209.103753 197.073984 
L 201.262108 204.292457 
z
" style="fill:#808314;"/>
    <path clip-path="url(#p436f9f566b)" d="M 256.530882 202.34441 
L 256.534602 202.116301 
L 263.820782 194.93686 
L 263.816264 195.163579 
z
" style="fill:#0b0777;"/>
    <path clip-path="url(#p436f9f566b)" d="M 256.530882 202.34441 
L 263.816264 195.163579 
L 263.827684 194.590507 
L 256.540286 201.767823 
z
" style="fill:#070339;"/>
    <path clip-path="url(#p436f9f566b)" d="M 175.173234 195.969799 
L 175.058048 191.330652 
L 188.05888 195.452071 
L 188.144156 200.107676 
z
" style="fill:#12023e;"/>
    <path clip-path="url(#p436f9f566b)" d="M 175.173234 195.969799 
L 188.144156 200.107676 
L 188.053758 195.172479 
L 175.051131 191.052052 
z
" style="fill:#280484;"/>
    <path clip-path="url(#p436f9f566b)" d="M 216.794403 189.994506 
L 224.338378 183.050047 
L 224.338378 112.437403 
L 216.52446 118.926187 
z
" style="fill:#694815;"/>
    <path clip-path="url(#p436f9f566b)" d="M 216.794403 189.994506 
L 216.52276 118.478522 
L 224.338378 111.992761 
L 224.338378 183.050047 
z
" style="fill:#e09b2b;"/>
    <path clip-path="url(#p436f9f566b)" d="M 167.010898 203.166503 
L 175.173234 195.969799 
L 175.157525 195.337097 
L 166.992401 202.52992 
z
" style="fill:#070339;"/>
    <path clip-path="url(#p436f9f566b)" d="M 222.285805 201.224351 
L 229.891821 194.06512 
L 243.136481 198.181496 
L 235.617509 205.421836 
z
" style="fill:#15034e;"/>
    <path clip-path="url(#p436f9f566b)" d="M 243.136481 198.181496 
L 256.530882 202.34441 
L 256.540286 201.767823 
L 243.141942 197.606941 
z
" style="fill:#0e0678;"/>
    <path clip-path="url(#p436f9f566b)" d="M 243.136481 198.181496 
L 243.142098 197.590526 
L 256.540555 201.751349 
L 256.530882 202.34441 
z
" style="fill:#070339;"/>
    <path clip-path="url(#p436f9f566b)" d="M 167.010898 203.166503 
L 166.875269 198.498802 
L 175.058048 191.330652 
L 175.173234 195.969799 
z
" style="fill:#270483;"/>
    <path clip-path="url(#p436f9f566b)" d="M 256.530882 202.34441 
L 263.816264 195.163579 
L 277.271882 199.292348 
L 270.077576 206.554656 
z
" style="fill:#070448;"/>
    <path clip-path="url(#p436f9f566b)" d="M 256.534602 202.116301 
L 270.082892 206.325739 
L 277.277974 199.064828 
L 263.820782 194.93686 
z
" style="fill:#0a0667;"/>
    <path clip-path="url(#p436f9f566b)" d="M 203.841786 185.968896 
L 216.794403 189.994506 
L 216.52446 118.926187 
L 203.112564 115.164186 
z
" style="fill:#df982d;"/>
    <path clip-path="url(#p436f9f566b)" d="M 222.281872 197.439714 
L 235.639247 201.623764 
L 243.172357 194.406654 
L 229.90236 190.303606 
z
" style="fill:#1f0470;"/>
    <path clip-path="url(#p436f9f566b)" d="M 154.105465 198.994368 
L 167.010898 203.166503 
L 166.992401 202.52992 
L 154.082932 198.360029 
z
" style="fill:#0e0678;"/>
    <path clip-path="url(#p436f9f566b)" d="M 167.010898 203.166503 
L 175.173234 195.969799 
L 188.144156 200.107676 
L 180.063228 207.386128 
z
" style="fill:#17034f;"/>
    <path clip-path="url(#p436f9f566b)" d="M 235.617509 205.421836 
L 235.620912 204.827239 
L 243.142098 197.590526 
L 243.136481 198.181496 
z
" style="fill:#0e0678;"/>
    <path clip-path="url(#p436f9f566b)" d="M 235.617509 205.421836 
L 243.136481 198.181496 
L 243.172357 194.406654 
L 235.639247 201.623764 
z
" style="fill:#11023d;"/>
    <path clip-path="url(#p436f9f566b)" d="M 201.262108 204.292457 
L 209.103753 197.073984 
L 222.285805 201.224351 
L 214.529606 208.524945 
z
" style="fill:#808512;"/>
    <path clip-path="url(#p436f9f566b)" d="M 224.338378 124.275026 
L 237.737929 128.05156 
L 245.267528 121.53744 
L 231.955981 117.834183 
z
" style="fill:#b7603d;"/>
    <path clip-path="url(#p436f9f566b)" d="M 270.077576 206.554656 
L 277.271882 199.292348 
L 277.277974 199.064828 
L 270.082892 206.325739 
z
" style="fill:#050338;"/>
    <path clip-path="url(#p436f9f566b)" d="M 203.841786 185.968896 
L 202.992173 103.474643 
L 216.479884 107.190419 
L 216.794403 189.994506 
z
" style="fill:#675e0f;"/>
    <path clip-path="url(#p436f9f566b)" d="M 166.875269 198.498802 
L 179.957882 202.701839 
L 188.05888 195.452071 
L 175.058048 191.330652 
z
" style="fill:#220472;"/>
    <path clip-path="url(#p436f9f566b)" d="M 229.891821 194.06512 
L 237.351973 187.043183 
L 237.818599 115.721597 
L 230.092947 122.282333 
z
" style="fill:#694914;"/>
    <path clip-path="url(#p436f9f566b)" d="M 235.617509 205.421836 
L 243.136481 198.181496 
L 256.530882 202.34441 
L 249.101427 209.667246 
z
" style="fill:#090449;"/>
    <path clip-path="url(#p436f9f566b)" d="M 222.285805 201.224351 
L 235.617509 205.421836 
L 235.639247 201.623764 
L 222.281872 197.439714 
z
" style="fill:#230581;"/>
    <path clip-path="url(#p436f9f566b)" d="M 235.620912 204.827239 
L 249.108941 209.070542 
L 256.540555 201.751349 
L 243.142098 197.590526 
z
" style="fill:#0c0668;"/>
    <path clip-path="url(#p436f9f566b)" d="M 222.285805 201.224351 
L 222.280524 196.142771 
L 235.646696 200.322199 
L 235.617509 205.421836 
z
" style="fill:#14023e;"/>
    <path clip-path="url(#p436f9f566b)" d="M 256.530882 202.34441 
L 270.077576 206.554656 
L 270.082892 206.325739 
L 256.534602 202.116301 
z
" style="fill:#0b0777;"/>
    <path clip-path="url(#p436f9f566b)" d="M 256.530882 202.34441 
L 256.53487 202.099906 
L 270.083274 206.309287 
L 270.077576 206.554656 
z
" style="fill:#050338;"/>
    <path clip-path="url(#p436f9f566b)" d="M 180.063228 207.386128 
L 188.144156 200.107676 
L 188.05888 195.452071 
L 179.957882 202.701839 
z
" style="fill:#12023e;"/>
    <path clip-path="url(#p436f9f566b)" d="M 196.068846 192.969946 
L 194.88523 109.937953 
L 202.992173 103.474643 
L 203.841786 185.968896 
z
" style="fill:#dbc721;"/>
    <path clip-path="url(#p436f9f566b)" d="M 216.794403 189.994506 
L 229.891821 194.06512 
L 230.092947 122.282333 
L 216.52276 118.478522 
z
" style="fill:#e09b2b;"/>
    <path clip-path="url(#p436f9f566b)" d="M 214.529606 208.524945 
L 214.504117 203.412036 
L 222.280524 196.142771 
L 222.285805 201.224351 
z
" style="fill:#2a0484;"/>
    <path clip-path="url(#p436f9f566b)" d="M 180.063228 207.386128 
L 188.144156 200.107676 
L 201.262108 204.292457 
L 193.264978 211.654059 
z
" style="fill:#867213;"/>
    <path clip-path="url(#p436f9f566b)" d="M 249.101427 209.667246 
L 249.104525 209.421241 
L 256.53487 202.099906 
L 256.530882 202.34441 
z
" style="fill:#0b0777;"/>
    <path clip-path="url(#p436f9f566b)" d="M 249.101427 209.667246 
L 256.530882 202.34441 
L 256.540555 201.751349 
L 249.108941 209.070542 
z
" style="fill:#070339;"/>
    <path clip-path="url(#p436f9f566b)" d="M 167.010898 203.166503 
L 180.063228 207.386128 
L 179.957882 202.701839 
L 166.875269 198.498802 
z
" style="fill:#270483;"/>
    <path clip-path="url(#p436f9f566b)" d="M 214.529606 208.524945 
L 222.285805 201.224351 
L 235.617509 205.421836 
L 227.94922 212.80596 
z
" style="fill:#190350;"/>
    <path clip-path="url(#p436f9f566b)" d="M 216.794403 189.994506 
L 216.48471 108.461111 
L 230.121126 112.225243 
L 229.891821 194.06512 
z
" style="fill:#685c0f;"/>
    <path clip-path="url(#p436f9f566b)" d="M 235.617509 205.421836 
L 249.101427 209.667246 
L 249.108941 209.070542 
L 235.620912 204.827239 
z
" style="fill:#0e0678;"/>
    <path clip-path="url(#p436f9f566b)" d="M 235.617509 205.421836 
L 235.62165 204.698352 
L 249.11057 208.941198 
L 249.101427 209.667246 
z
" style="fill:#080339;"/>
    <path clip-path="url(#p436f9f566b)" d="M 249.101427 209.667246 
L 256.530882 202.34441 
L 270.077576 206.554656 
L 262.740181 213.961405 
z
" style="fill:#070448;"/>
    <path clip-path="url(#p436f9f566b)" d="M 249.104525 209.421241 
L 262.745012 213.714528 
L 270.083274 206.309287 
L 256.53487 202.099906 
z
" style="fill:#0a0667;"/>
    <path clip-path="url(#p436f9f566b)" d="M 209.103753 197.073984 
L 208.472014 115.008676 
L 216.48471 108.461111 
L 216.794403 189.994506 
z
" style="fill:#dcc220;"/>
    <path clip-path="url(#p436f9f566b)" d="M 209.103753 197.073984 
L 216.794403 189.994506 
L 216.479884 107.190419 
L 208.462164 113.729176 
z
" style="fill:#675e0f;"/>
    <path clip-path="url(#p436f9f566b)" d="M 214.504117 203.412036 
L 227.958657 207.674853 
L 235.646696 200.322199 
L 222.280524 196.142771 
z
" style="fill:#240473;"/>
    <path clip-path="url(#p436f9f566b)" d="M 227.94922 212.80596 
L 227.950559 212.078028 
L 235.62165 204.698352 
L 235.617509 205.421836 
z
" style="fill:#110679;"/>
    <path clip-path="url(#p436f9f566b)" d="M 227.94922 212.80596 
L 235.617509 205.421836 
L 235.646696 200.322199 
L 227.958657 207.674853 
z
" style="fill:#14023e;"/>
    <path clip-path="url(#p436f9f566b)" d="M 193.264978 211.654059 
L 201.262108 204.292457 
L 214.529606 208.524945 
L 206.61873 215.971129 
z
" style="fill:#866e14;"/>
    <path clip-path="url(#p436f9f566b)" d="M 203.112564 115.164186 
L 216.52446 118.926187 
L 224.338378 112.437403 
L 211.013866 108.749117 
z
" style="fill:#c28427;"/>
    <path clip-path="url(#p436f9f566b)" d="M 262.740181 213.961405 
L 270.077576 206.554656 
L 270.083274 206.309287 
L 262.745012 213.714528 
z
" style="fill:#050338;"/>
    <path clip-path="url(#p436f9f566b)" d="M 196.068846 192.969946 
L 209.103753 197.073984 
L 208.462164 113.729176 
L 194.88523 109.937953 
z
" style="fill:#dbc721;"/>
    <path clip-path="url(#p436f9f566b)" d="M 196.068846 192.969946 
L 194.824979 105.711237 
L 208.429496 109.485488 
L 209.103753 197.073984 
z
" style="fill:#646610;"/>
    <path clip-path="url(#p436f9f566b)" d="M 227.94922 212.80596 
L 235.617509 205.421836 
L 249.101427 209.667246 
L 241.523583 217.136342 
z
" style="fill:#0a0449;"/>
    <path clip-path="url(#p436f9f566b)" d="M 214.529606 208.524945 
L 214.507528 204.096262 
L 227.957394 208.361523 
L 227.94922 212.80596 
z
" style="fill:#12023e;"/>
    <path clip-path="url(#p436f9f566b)" d="M 227.950559 212.078028 
L 241.529991 216.405825 
L 249.11057 208.941198 
L 235.62165 204.698352 
z
" style="fill:#0f0569;"/>
    <path clip-path="url(#p436f9f566b)" d="M 214.529606 208.524945 
L 227.94922 212.80596 
L 227.958657 207.674853 
L 214.504117 203.412036 
z
" style="fill:#2a0484;"/>
    <path clip-path="url(#p436f9f566b)" d="M 249.101427 209.667246 
L 249.104156 209.450542 
L 262.744437 213.743933 
L 262.740181 213.961405 
z
" style="fill:#050338;"/>
    <path clip-path="url(#p436f9f566b)" d="M 249.101427 209.667246 
L 262.740181 213.961405 
L 262.745012 213.714528 
L 249.104525 209.421241 
z
" style="fill:#0b0777;"/>
    <path clip-path="url(#p436f9f566b)" d="M 188.144156 200.107676 
L 186.535363 112.276601 
L 194.824979 105.711237 
L 196.068846 192.969946 
z
" style="fill:#d5d921;"/>
    <path clip-path="url(#p436f9f566b)" d="M 222.285805 201.224351 
L 229.891821 194.06512 
L 230.121126 112.225243 
L 222.20019 118.849639 
z
" style="fill:#685c0f;"/>
    <path clip-path="url(#p436f9f566b)" d="M 206.61873 215.971129 
L 206.578448 211.515115 
L 214.507528 204.096262 
L 214.529606 208.524945 
z
" style="fill:#270483;"/>
    <path clip-path="url(#p436f9f566b)" d="M 241.523583 217.136342 
L 241.525495 216.918305 
L 249.104156 209.450542 
L 249.101427 209.667246 
z
" style="fill:#0b0777;"/>
    <path clip-path="url(#p436f9f566b)" d="M 241.523583 217.136342 
L 249.101427 209.667246 
L 249.11057 208.941198 
L 241.529991 216.405825 
z
" style="fill:#080339;"/>
    <path clip-path="url(#p436f9f566b)" d="M 206.61873 215.971129 
L 214.529606 208.524945 
L 227.94922 212.80596 
L 220.127123 220.338193 
z
" style="fill:#17034f;"/>
    <path clip-path="url(#p436f9f566b)" d="M 209.103753 197.073984 
L 222.285805 201.224351 
L 222.20019 118.849639 
L 208.472014 115.008676 
z
" style="fill:#dcc220;"/>
    <path clip-path="url(#p436f9f566b)" d="M 216.52276 118.478522 
L 230.092947 122.282333 
L 237.818599 115.721597 
L 224.338378 111.992761 
z
" style="fill:#c28626;"/>
    <path clip-path="url(#p436f9f566b)" d="M 227.94922 212.80596 
L 227.950456 212.134071 
L 241.529498 216.462068 
L 241.523583 217.136342 
z
" style="fill:#070339;"/>
    <path clip-path="url(#p436f9f566b)" d="M 227.94922 212.80596 
L 241.523583 217.136342 
L 241.529991 216.405825 
L 227.950559 212.078028 
z
" style="fill:#110679;"/>
    <path clip-path="url(#p436f9f566b)" d="M 241.523583 217.136342 
L 249.101427 209.667246 
L 262.740181 213.961405 
L 255.255385 221.516949 
z
" style="fill:#070448;"/>
    <path clip-path="url(#p436f9f566b)" d="M 241.525495 216.918305 
L 255.258846 221.298137 
L 262.744437 213.743933 
L 249.104156 209.450542 
z
" style="fill:#0a0667;"/>
    <path clip-path="url(#p436f9f566b)" d="M 209.103753 197.073984 
L 208.422991 108.640423 
L 222.193545 112.455764 
L 222.285805 201.224351 
z
" style="fill:#64680e;"/>
    <path clip-path="url(#p436f9f566b)" d="M 206.578448 211.515115 
L 220.117494 215.866304 
L 227.957394 208.361523 
L 214.507528 204.096262 
z
" style="fill:#220472;"/>
    <path clip-path="url(#p436f9f566b)" d="M 220.127123 220.338193 
L 220.125667 219.662167 
L 227.950456 212.134071 
L 227.94922 212.80596 
z
" style="fill:#0e0678;"/>
    <path clip-path="url(#p436f9f566b)" d="M 201.262108 204.292457 
L 209.103753 197.073984 
L 208.429496 109.485488 
L 200.230321 116.128434 
z
" style="fill:#646610;"/>
    <path clip-path="url(#p436f9f566b)" d="M 201.262108 204.292457 
L 200.220362 115.277443 
L 208.422991 108.640423 
L 209.103753 197.073984 
z
" style="fill:#d4dc1e;"/>
    <path clip-path="url(#p436f9f566b)" d="M 220.127123 220.338193 
L 227.94922 212.80596 
L 227.957394 208.361523 
L 220.117494 215.866304 
z
" style="fill:#12023e;"/>
    <path clip-path="url(#p436f9f566b)" d="M 188.144156 200.107676 
L 186.65463 118.787902 
L 200.306829 122.665943 
L 201.262108 204.292457 
z
" style="fill:#68590f;"/>
    <path clip-path="url(#p436f9f566b)" d="M 255.255385 221.516949 
L 262.740181 213.961405 
L 262.744437 213.743933 
L 255.258846 221.298137 
z
" style="fill:#050338;"/>
    <path clip-path="url(#p436f9f566b)" d="M 188.144156 200.107676 
L 201.262108 204.292457 
L 200.230321 116.128434 
L 186.535363 112.276601 
z
" style="fill:#d5d921;"/>
    <path clip-path="url(#p436f9f566b)" d="M 220.127123 220.338193 
L 227.94922 212.80596 
L 241.523583 217.136342 
L 233.792858 224.756123 
z
" style="fill:#090449;"/>
    <path clip-path="url(#p436f9f566b)" d="M 206.61873 215.971129 
L 220.127123 220.338193 
L 220.117494 215.866304 
L 206.578448 211.515115 
z
" style="fill:#270483;"/>
    <path clip-path="url(#p436f9f566b)" d="M 220.125667 219.662167 
L 233.796145 224.077695 
L 241.529498 216.462068 
L 227.950456 212.134071 
z
" style="fill:#0c0668;"/>
    <path clip-path="url(#p436f9f566b)" d="M 180.063228 207.386128 
L 178.222434 125.534015 
L 186.65463 118.787902 
L 188.144156 200.107676 
z
" style="fill:#ddbe20;"/>
    <path clip-path="url(#p436f9f566b)" d="M 241.523583 217.136342 
L 255.255385 221.516949 
L 255.258846 221.298137 
L 241.525495 216.918305 
z
" style="fill:#0b0777;"/>
    <path clip-path="url(#p436f9f566b)" d="M 241.523583 217.136342 
L 241.525643 216.901507 
L 255.259113 221.28128 
L 255.255385 221.516949 
z
" style="fill:#050338;"/>
    <path clip-path="url(#p436f9f566b)" d="M 233.792858 224.756123 
L 233.794003 224.519843 
L 241.525643 216.901507 
L 241.523583 217.136342 
z
" style="fill:#0b0777;"/>
    <path clip-path="url(#p436f9f566b)" d="M 233.792858 224.756123 
L 241.523583 217.136342 
L 241.529498 216.462068 
L 233.796145 224.077695 
z
" style="fill:#070339;"/>
    <path clip-path="url(#p436f9f566b)" d="M 201.262108 204.292457 
L 200.329295 124.585547 
L 214.130753 128.517335 
L 214.529606 208.524945 
z
" style="fill:#69560f;"/>
    <path clip-path="url(#p436f9f566b)" d="M 214.529606 208.524945 
L 222.285805 201.224351 
L 222.193545 112.455764 
L 214.084164 119.171711 
z
" style="fill:#64680e;"/>
    <path clip-path="url(#p436f9f566b)" d="M 194.88523 109.937953 
L 208.462164 113.729176 
L 216.479884 107.190419 
L 202.992173 103.474643 
z
" style="fill:#beac1c;"/>
    <path clip-path="url(#p436f9f566b)" d="M 220.127123 220.338193 
L 233.792858 224.756123 
L 233.796145 224.077695 
L 220.125667 219.662167 
z
" style="fill:#0e0678;"/>
    <path clip-path="url(#p436f9f566b)" d="M 193.264978 211.654059 
L 191.995935 131.425305 
L 200.329295 124.585547 
L 201.262108 204.292457 
z
" style="fill:#dfb621;"/>
    <path clip-path="url(#p436f9f566b)" d="M 233.792858 224.756123 
L 241.523583 217.136342 
L 255.255385 221.516949 
L 247.618703 229.225814 
z
" style="fill:#070448;"/>
    <path clip-path="url(#p436f9f566b)" d="M 233.794003 224.519843 
L 247.621538 228.988694 
L 255.259113 221.28128 
L 241.525643 216.901507 
z
" style="fill:#0a0667;"/>
    <path clip-path="url(#p436f9f566b)" d="M 201.262108 204.292457 
L 214.529606 208.524945 
L 214.084164 119.171711 
L 200.220362 115.277443 
z
" style="fill:#d4dc1e;"/>
    <path clip-path="url(#p436f9f566b)" d="M 193.264978 211.654059 
L 201.262108 204.292457 
L 200.306829 122.665943 
L 191.965359 129.49234 
z
" style="fill:#68590f;"/>
    <path clip-path="url(#p436f9f566b)" d="M 180.063228 207.386128 
L 193.264978 211.654059 
L 191.965359 129.49234 
L 178.222434 125.534015 
z
" style="fill:#ddbe20;"/>
    <path clip-path="url(#p436f9f566b)" d="M 247.618703 229.225814 
L 255.255385 221.516949 
L 255.259113 221.28128 
L 247.621538 228.988694 
z
" style="fill:#050338;"/>
    <path clip-path="url(#p436f9f566b)" d="M 208.472014 115.008676 
L 222.20019 118.849639 
L 230.121126 112.225243 
L 216.48471 108.461111 
z
" style="fill:#bfa81c;"/>
    <path clip-path="url(#p436f9f566b)" d="M 233.792858 224.756123 
L 247.618703 229.225814 
L 247.621538 228.988694 
L 233.794003 224.519843 
z
" style="fill:#0b0777;"/>
    <path clip-path="url(#p436f9f566b)" d="M 206.61873 215.971129 
L 214.529606 208.524945 
L 214.130753 128.517335 
L 205.890719 135.438901 
z
" style="fill:#69560f;"/>
    <path clip-path="url(#p436f9f566b)" d="M 193.264978 211.654059 
L 206.61873 215.971129 
L 205.890719 135.438901 
L 191.995935 131.425305 
z
" style="fill:#dfb621;"/>
    <path clip-path="url(#p436f9f566b)" d="M 186.535363 112.276601 
L 200.230321 116.128434 
L 208.429496 109.485488 
L 194.824979 105.711237 
z
" style="fill:#b9bc1d;"/>
    <path clip-path="url(#p436f9f566b)" d="M 200.220362 115.277443 
L 214.084164 119.171711 
L 222.193545 112.455764 
L 208.422991 108.640423 
z
" style="fill:#b8bf1a;"/>
    <path clip-path="url(#p436f9f566b)" d="M 178.222434 125.534015 
L 191.965359 129.49234 
L 200.306829 122.665943 
L 186.65463 118.787902 
z
" style="fill:#c0a51c;"/>
    <path clip-path="url(#p436f9f566b)" d="M 191.995935 131.425305 
L 205.890719 135.438901 
L 214.130753 128.517335 
L 200.329295 124.585547 
z
" style="fill:#c19e1c;"/>
   </g>
   <g id="text_17">
    <!-- W30__H05__A000_bars_extracted.txt -->
    <g transform="translate(110.101875 28.56)scale(0.12 -0.12)">
     <defs>
      <path d="M 3.328125 72.90625 
L 13.28125 72.90625 
L 28.609375 11.28125 
L 43.890625 72.90625 
L 54.984375 72.90625 
L 70.3125 11.28125 
L 85.59375 72.90625 
L 95.609375 72.90625 
L 77.296875 0 
L 64.890625 0 
L 49.515625 63.28125 
L 33.984375 0 
L 21.578125 0 
z
" id="DejaVuSans-87"/>
      <path d="M 50.984375 -16.609375 
L 50.984375 -23.578125 
L -0.984375 -23.578125 
L -0.984375 -16.609375 
z
" id="DejaVuSans-95"/>
      <path d="M 9.8125 72.90625 
L 19.671875 72.90625 
L 19.671875 43.015625 
L 55.515625 43.015625 
L 55.515625 72.90625 
L 65.375 72.90625 
L 65.375 0 
L 55.515625 0 
L 55.515625 34.71875 
L 19.671875 34.71875 
L 19.671875 0 
L 9.8125 0 
z
" id="DejaVuSans-72"/>
      <path d="M 34.1875 63.1875 
L 20.796875 26.90625 
L 47.609375 26.90625 
z
M 28.609375 72.90625 
L 39.796875 72.90625 
L 67.578125 0 
L 57.328125 0 
L 50.6875 18.703125 
L 17.828125 18.703125 
L 11.1875 0 
L 0.78125 0 
z
" id="DejaVuSans-65"/>
      <path d="M 48.6875 27.296875 
Q 48.6875 37.203125 44.609375 42.84375 
Q 40.53125 48.484375 33.40625 48.484375 
Q 26.265625 48.484375 22.1875 42.84375 
Q 18.109375 37.203125 18.109375 27.296875 
Q 18.109375 17.390625 22.1875 11.75 
Q 26.265625 6.109375 33.40625 6.109375 
Q 40.53125 6.109375 44.609375 11.75 
Q 48.6875 17.390625 48.6875 27.296875 
z
M 18.109375 46.390625 
Q 20.953125 51.265625 25.265625 53.625 
Q 29.59375 56 35.59375 56 
Q 45.5625 56 51.78125 48.09375 
Q 58.015625 40.1875 58.015625 27.296875 
Q 58.015625 14.40625 51.78125 6.484375 
Q 45.5625 -1.421875 35.59375 -1.421875 
Q 29.59375 -1.421875 25.265625 0.953125 
Q 20.953125 3.328125 18.109375 8.203125 
L 18.109375 0 
L 9.078125 0 
L 9.078125 75.984375 
L 18.109375 75.984375 
z
" id="DejaVuSans-98"/>
      <path d="M 34.28125 27.484375 
Q 23.390625 27.484375 19.1875 25 
Q 14.984375 22.515625 14.984375 16.5 
Q 14.984375 11.71875 18.140625 8.90625 
Q 21.296875 6.109375 26.703125 6.109375 
Q 34.1875 6.109375 38.703125 11.40625 
Q 43.21875 16.703125 43.21875 25.484375 
L 43.21875 27.484375 
z
M 52.203125 31.203125 
L 52.203125 0 
L 43.21875 0 
L 43.21875 8.296875 
Q 40.140625 3.328125 35.546875 0.953125 
Q 30.953125 -1.421875 24.3125 -1.421875 
Q 15.921875 -1.421875 10.953125 3.296875 
Q 6 8.015625 6 15.921875 
Q 6 25.140625 12.171875 29.828125 
Q 18.359375 34.515625 30.609375 34.515625 
L 43.21875 34.515625 
L 43.21875 35.40625 
Q 43.21875 41.609375 39.140625 45 
Q 35.0625 48.390625 27.6875 48.390625 
Q 23 48.390625 18.546875 47.265625 
Q 14.109375 46.140625 10.015625 43.890625 
L 10.015625 52.203125 
Q 14.9375 54.109375 19.578125 55.046875 
Q 24.21875 56 28.609375 56 
Q 40.484375 56 46.34375 49.84375 
Q 52.203125 43.703125 52.203125 31.203125 
z
" id="DejaVuSans-97"/>
      <path d="M 41.109375 46.296875 
Q 39.59375 47.171875 37.8125 47.578125 
Q 36.03125 48 33.890625 48 
Q 26.265625 48 22.1875 43.046875 
Q 18.109375 38.09375 18.109375 28.8125 
L 18.109375 0 
L 9.078125 0 
L 9.078125 54.6875 
L 18.109375 54.6875 
L 18.109375 46.1875 
Q 20.953125 51.171875 25.484375 53.578125 
Q 30.03125 56 36.53125 56 
Q 37.453125 56 38.578125 55.875 
Q 39.703125 55.765625 41.0625 55.515625 
z
" id="DejaVuSans-114"/>
      <path d="M 44.28125 53.078125 
L 44.28125 44.578125 
Q 40.484375 46.53125 36.375 47.5 
Q 32.28125 48.484375 27.875 48.484375 
Q 21.1875 48.484375 17.84375 46.4375 
Q 14.5 44.390625 14.5 40.28125 
Q 14.5 37.15625 16.890625 35.375 
Q 19.28125 33.59375 26.515625 31.984375 
L 29.59375 31.296875 
Q 39.15625 29.25 43.1875 25.515625 
Q 47.21875 21.78125 47.21875 15.09375 
Q 47.21875 7.46875 41.1875 3.015625 
Q 35.15625 -1.421875 24.609375 -1.421875 
Q 20.21875 -1.421875 15.453125 -0.5625 
Q 10.6875 0.296875 5.421875 2 
L 5.421875 11.28125 
Q 10.40625 8.6875 15.234375 7.390625 
Q 20.0625 6.109375 24.8125 6.109375 
Q 31.15625 6.109375 34.5625 8.28125 
Q 37.984375 10.453125 37.984375 14.40625 
Q 37.984375 18.0625 35.515625 20.015625 
Q 33.0625 21.96875 24.703125 23.78125 
L 21.578125 24.515625 
Q 13.234375 26.265625 9.515625 29.90625 
Q 5.8125 33.546875 5.8125 39.890625 
Q 5.8125 47.609375 11.28125 51.796875 
Q 16.75 56 26.8125 56 
Q 31.78125 56 36.171875 55.265625 
Q 40.578125 54.546875 44.28125 53.078125 
z
" id="DejaVuSans-115"/>
      <path d="M 56.203125 29.59375 
L 56.203125 25.203125 
L 14.890625 25.203125 
Q 15.484375 15.921875 20.484375 11.0625 
Q 25.484375 6.203125 34.421875 6.203125 
Q 39.59375 6.203125 44.453125 7.46875 
Q 49.3125 8.734375 54.109375 11.28125 
L 54.109375 2.78125 
Q 49.265625 0.734375 44.1875 -0.34375 
Q 39.109375 -1.421875 33.890625 -1.421875 
Q 20.796875 -1.421875 13.15625 6.1875 
Q 5.515625 13.8125 5.515625 26.8125 
Q 5.515625 40.234375 12.765625 48.109375 
Q 20.015625 56 32.328125 56 
Q 43.359375 56 49.78125 48.890625 
Q 56.203125 41.796875 56.203125 29.59375 
z
M 47.21875 32.234375 
Q 47.125 39.59375 43.09375 43.984375 
Q 39.0625 48.390625 32.421875 48.390625 
Q 24.90625 48.390625 20.390625 44.140625 
Q 15.875 39.890625 15.1875 32.171875 
z
" id="DejaVuSans-101"/>
      <path d="M 54.890625 54.6875 
L 35.109375 28.078125 
L 55.90625 0 
L 45.3125 0 
L 29.390625 21.484375 
L 13.484375 0 
L 2.875 0 
L 24.125 28.609375 
L 4.6875 54.6875 
L 15.28125 54.6875 
L 29.78125 35.203125 
L 44.28125 54.6875 
z
" id="DejaVuSans-120"/>
      <path d="M 18.3125 70.21875 
L 18.3125 54.6875 
L 36.8125 54.6875 
L 36.8125 47.703125 
L 18.3125 47.703125 
L 18.3125 18.015625 
Q 18.3125 11.328125 20.140625 9.421875 
Q 21.96875 7.515625 27.59375 7.515625 
L 36.8125 7.515625 
L 36.8125 0 
L 27.59375 0 
Q 17.1875 0 13.234375 3.875 
Q 9.28125 7.765625 9.28125 18.015625 
L 9.28125 47.703125 
L 2.6875 47.703125 
L 2.6875 54.6875 
L 9.28125 54.6875 
L 9.28125 70.21875 
z
" id="DejaVuSans-116"/>
      <path d="M 48.78125 52.59375 
L 48.78125 44.1875 
Q 44.96875 46.296875 41.140625 47.34375 
Q 37.3125 48.390625 33.40625 48.390625 
Q 24.65625 48.390625 19.8125 42.84375 
Q 14.984375 37.3125 14.984375 27.296875 
Q 14.984375 17.28125 19.8125 11.734375 
Q 24.65625 6.203125 33.40625 6.203125 
Q 37.3125 6.203125 41.140625 7.25 
Q 44.96875 8.296875 48.78125 10.40625 
L 48.78125 2.09375 
Q 45.015625 0.34375 40.984375 -0.53125 
Q 36.96875 -1.421875 32.421875 -1.421875 
Q 20.0625 -1.421875 12.78125 6.34375 
Q 5.515625 14.109375 5.515625 27.296875 
Q 5.515625 40.671875 12.859375 48.328125 
Q 20.21875 56 33.015625 56 
Q 37.15625 56 41.109375 55.140625 
Q 45.0625 54.296875 48.78125 52.59375 
z
" id="DejaVuSans-99"/>
      <path d="M 45.40625 46.390625 
L 45.40625 75.984375 
L 54.390625 75.984375 
L 54.390625 0 
L 45.40625 0 
L 45.40625 8.203125 
Q 42.578125 3.328125 38.25 0.953125 
Q 33.9375 -1.421875 27.875 -1.421875 
Q 17.96875 -1.421875 11.734375 6.484375 
Q 5.515625 14.40625 5.515625 27.296875 
Q 5.515625 40.1875 11.734375 48.09375 
Q 17.96875 56 27.875 56 
Q 33.9375 56 38.25 53.625 
Q 42.578125 51.265625 45.40625 46.390625 
z
M 14.796875 27.296875 
Q 14.796875 17.390625 18.875 11.75 
Q 22.953125 6.109375 30.078125 6.109375 
Q 37.203125 6.109375 41.296875 11.75 
Q 45.40625 17.390625 45.40625 27.296875 
Q 45.40625 37.203125 41.296875 42.84375 
Q 37.203125 48.484375 30.078125 48.484375 
Q 22.953125 48.484375 18.875 42.84375 
Q 14.796875 37.203125 14.796875 27.296875 
z
" id="DejaVuSans-100"/>
      <path d="M 10.6875 12.40625 
L 21 12.40625 
L 21 0 
L 10.6875 0 
z
" id="DejaVuSans-46"/>
     </defs>
     <use xlink:href="#DejaVuSans-87"/>
     <use x="98.876953" xlink:href="#DejaVuSans-51"/>
     <use x="162.5" xlink:href="#DejaVuSans-48"/>
     <use x="226.123047" xlink:href="#DejaVuSans-95"/>
     <use x="276.123047" xlink:href="#DejaVuSans-95"/>
     <use x="326.123047" xlink:href="#DejaVuSans-72"/>
     <use x="401.318359" xlink:href="#DejaVuSans-48"/>
     <use x="464.941406" xlink:href="#DejaVuSans-53"/>
     <use x="528.564453" xlink:href="#DejaVuSans-95"/>
     <use x="578.564453" xlink:href="#DejaVuSans-95"/>
     <use x="628.564453" xlink:href="#DejaVuSans-65"/>
     <use x="696.972656" xlink:href="#DejaVuSans-48"/>
     <use x="760.595703" xlink:href="#DejaVuSans-48"/>
     <use x="824.21875" xlink:href="#DejaVuSans-48"/>
     <use x="887.841797" xlink:href="#DejaVuSans-95"/>
     <use x="937.841797" xlink:href="#DejaVuSans-98"/>
     <use x="1001.318359" xlink:href="#DejaVuSans-97"/>
     <use x="1062.597656" xlink:href="#DejaVuSans-114"/>
     <use x="1103.710938" xlink:href="#DejaVuSans-115"/>
     <use x="1155.810547" xlink:href="#DejaVuSans-95"/>
     <use x="1205.810547" xlink:href="#DejaVuSans-101"/>
     <use x="1265.583984" xlink:href="#DejaVuSans-120"/>
     <use x="1324.763672" xlink:href="#DejaVuSans-116"/>
     <use x="1363.972656" xlink:href="#DejaVuSans-114"/>
     <use x="1405.085938" xlink:href="#DejaVuSans-97"/>
     <use x="1466.365234" xlink:href="#DejaVuSans-99"/>
     <use x="1521.345703" xlink:href="#DejaVuSans-116"/>
     <use x="1560.554688" xlink:href="#DejaVuSans-101"/>
     <use x="1622.078125" xlink:href="#DejaVuSans-100"/>
     <use x="1685.554688" xlink:href="#DejaVuSans-46"/>
     <use x="1717.341797" xlink:href="#DejaVuSans-116"/>
     <use x="1756.550781" xlink:href="#DejaVuSans-120"/>
     <use x="1815.730469" xlink:href="#DejaVuSans-116"/>
    </g>
   </g>
  </g>
 </g>
 <defs>
  <clipPath id="p436f9f566b">
   <rect height="217.44" width="217.44" x="112.68" y="34.56"/>
  </clipPath>
 </defs>
</svg>
