<?xml version="1.0" encoding="utf-8" standalone="no"?>
<!DOCTYPE svg PUBLIC "-//W3C//DTD SVG 1.1//EN"
  "http://www.w3.org/Graphics/SVG/1.1/DTD/svg11.dtd">
<!-- Created with matplotlib (https://matplotlib.org/) -->
<svg height="288pt" version="1.1" viewBox="0 0 432 288" width="432pt" xmlns="http://www.w3.org/2000/svg" xmlns:xlink="http://www.w3.org/1999/xlink">
 <metadata>
  <rdf:RDF xmlns:cc="http://creativecommons.org/ns#" xmlns:dc="http://purl.org/dc/elements/1.1/" xmlns:rdf="http://www.w3.org/1999/02/22-rdf-syntax-ns#">
   <cc:Work>
    <dc:type rdf:resource="http://purl.org/dc/dcmitype/StillImage"/>
    <dc:date>2021-06-13T21:58:32.137001</dc:date>
    <dc:format>image/svg+xml</dc:format>
    <dc:creator>
     <cc:Agent>
      <dc:title>Matplotlib v3.3.4, https://matplotlib.org/</dc:title>
     </cc:Agent>
    </dc:creator>
   </cc:Work>
  </rdf:RDF>
 </metadata>
 <defs>
  <style type="text/css">*{stroke-linecap:butt;stroke-linejoin:round;}</style>
 </defs>
 <g id="figure_1">
  <g id="patch_1">
   <path d="M 0 288 
L 432 288 
L 432 0 
L 0 0 
z
" style="fill:#ffffff;"/>
  </g>
  <g id="patch_2">
   <path d="M 112.68 252 
L 330.12 252 
L 330.12 34.56 
L 112.68 34.56 
z
" style="fill:#ffffff;"/>
  </g>
  <g id="pane3d_1">
   <g id="patch_3">
    <path d="M 129.09822 198.386264 
L 200.904009 138.197228 
L 199.90584 51.393878 
L 124.663773 106.302111 
" style="fill:#f2f2f2;opacity:0.5;stroke:#f2f2f2;stroke-linejoin:miter;"/>
   </g>
  </g>
  <g id="pane3d_2">
   <g id="patch_4">
    <path d="M 200.904009 138.197228 
L 316.12668 171.68791 
L 320.238571 81.894718 
L 199.90584 51.393878 
" style="fill:#e6e6e6;opacity:0.5;stroke:#e6e6e6;stroke-linejoin:miter;"/>
   </g>
  </g>
  <g id="pane3d_3">
   <g id="patch_5">
    <path d="M 129.09822 198.386264 
L 251.239879 238.27773 
L 316.12668 171.68791 
L 200.904009 138.197228 
" style="fill:#ececec;opacity:0.5;stroke:#ececec;stroke-linejoin:miter;"/>
   </g>
  </g>
  <g id="axis3d_1">
   <g id="line2d_1">
    <path d="M 129.09822 198.386264 
L 251.239879 238.27773 
" style="fill:none;stroke:#000000;stroke-linecap:square;stroke-width:0.8;"/>
   </g>
   <g id="Line3DCollection_1">
    <path d="M 136.495759 200.802301 
L 207.911499 140.234029 
L 207.209612 53.245171 
" style="fill:none;stroke:#b0b0b0;stroke-width:0.8;"/>
    <path d="M 162.23134 209.207541 
L 232.260894 147.311436 
L 232.60309 59.681678 
" style="fill:none;stroke:#b0b0b0;stroke-width:0.8;"/>
    <path d="M 188.559037 217.806167 
L 257.123632 154.538053 
L 258.555303 66.259807 
" style="fill:none;stroke:#b0b0b0;stroke-width:0.8;"/>
    <path d="M 215.499525 226.604931 
L 282.516121 161.918647 
L 285.084894 72.984285 
" style="fill:none;stroke:#b0b0b0;stroke-width:0.8;"/>
    <path d="M 243.074449 235.610901 
L 308.455474 169.458193 
L 312.21135 79.860051 
" style="fill:none;stroke:#b0b0b0;stroke-width:0.8;"/>
   </g>
   <g id="xtick_1">
    <g id="line2d_2">
     <path d="M 137.117644 200.274876 
L 135.249322 201.859414 
" style="fill:none;stroke:#000000;stroke-linecap:square;stroke-width:0.8;"/>
    </g>
    <g id="text_1">
     <!-- 0 -->
     <g transform="translate(125.77919 224.124533)scale(0.1 -0.1)">
      <defs>
       <path d="M 31.78125 66.40625 
Q 24.171875 66.40625 20.328125 58.90625 
Q 16.5 51.421875 16.5 36.375 
Q 16.5 21.390625 20.328125 13.890625 
Q 24.171875 6.390625 31.78125 6.390625 
Q 39.453125 6.390625 43.28125 13.890625 
Q 47.125 21.390625 47.125 36.375 
Q 47.125 51.421875 43.28125 58.90625 
Q 39.453125 66.40625 31.78125 66.40625 
z
M 31.78125 74.21875 
Q 44.046875 74.21875 50.515625 64.515625 
Q 56.984375 54.828125 56.984375 36.375 
Q 56.984375 17.96875 50.515625 8.265625 
Q 44.046875 -1.421875 31.78125 -1.421875 
Q 19.53125 -1.421875 13.0625 8.265625 
Q 6.59375 17.96875 6.59375 36.375 
Q 6.59375 54.828125 13.0625 64.515625 
Q 19.53125 74.21875 31.78125 74.21875 
z
" id="DejaVuSans-48"/>
      </defs>
      <use xlink:href="#DejaVuSans-48"/>
     </g>
    </g>
   </g>
   <g id="xtick_2">
    <g id="line2d_3">
     <path d="M 162.841716 208.668056 
L 161.007937 210.288854 
" style="fill:none;stroke:#000000;stroke-linecap:square;stroke-width:0.8;"/>
    </g>
    <g id="text_2">
     <!-- 2 -->
     <g transform="translate(151.547192 232.748132)scale(0.1 -0.1)">
      <defs>
       <path d="M 19.1875 8.296875 
L 53.609375 8.296875 
L 53.609375 0 
L 7.328125 0 
L 7.328125 8.296875 
Q 12.9375 14.109375 22.625 23.890625 
Q 32.328125 33.6875 34.8125 36.53125 
Q 39.546875 41.84375 41.421875 45.53125 
Q 43.3125 49.21875 43.3125 52.78125 
Q 43.3125 58.59375 39.234375 62.25 
Q 35.15625 65.921875 28.609375 65.921875 
Q 23.96875 65.921875 18.8125 64.3125 
Q 13.671875 62.703125 7.8125 59.421875 
L 7.8125 69.390625 
Q 13.765625 71.78125 18.9375 73 
Q 24.125 74.21875 28.421875 74.21875 
Q 39.75 74.21875 46.484375 68.546875 
Q 53.21875 62.890625 53.21875 53.421875 
Q 53.21875 48.921875 51.53125 44.890625 
Q 49.859375 40.875 45.40625 35.40625 
Q 44.1875 33.984375 37.640625 27.21875 
Q 31.109375 20.453125 19.1875 8.296875 
z
" id="DejaVuSans-50"/>
      </defs>
      <use xlink:href="#DejaVuSans-50"/>
     </g>
    </g>
   </g>
   <g id="xtick_3">
    <g id="line2d_4">
     <path d="M 189.15721 217.254202 
L 187.360066 218.91252 
" style="fill:none;stroke:#000000;stroke-linecap:square;stroke-width:0.8;"/>
    </g>
    <g id="text_3">
     <!-- 4 -->
     <g transform="translate(177.91082 241.571064)scale(0.1 -0.1)">
      <defs>
       <path d="M 37.796875 64.3125 
L 12.890625 25.390625 
L 37.796875 25.390625 
z
M 35.203125 72.90625 
L 47.609375 72.90625 
L 47.609375 25.390625 
L 58.015625 25.390625 
L 58.015625 17.1875 
L 47.609375 17.1875 
L 47.609375 0 
L 37.796875 0 
L 37.796875 17.1875 
L 4.890625 17.1875 
L 4.890625 26.703125 
z
" id="DejaVuSans-52"/>
      </defs>
      <use xlink:href="#DejaVuSans-52"/>
     </g>
    </g>
   </g>
   <g id="xtick_4">
    <g id="line2d_5">
     <path d="M 216.084757 226.040048 
L 214.326462 227.737204 
" style="fill:none;stroke:#000000;stroke-linecap:square;stroke-width:0.8;"/>
    </g>
    <g id="text_4">
     <!-- 6 -->
     <g transform="translate(204.890965 250.600322)scale(0.1 -0.1)">
      <defs>
       <path d="M 33.015625 40.375 
Q 26.375 40.375 22.484375 35.828125 
Q 18.609375 31.296875 18.609375 23.390625 
Q 18.609375 15.53125 22.484375 10.953125 
Q 26.375 6.390625 33.015625 6.390625 
Q 39.65625 6.390625 43.53125 10.953125 
Q 47.40625 15.53125 47.40625 23.390625 
Q 47.40625 31.296875 43.53125 35.828125 
Q 39.65625 40.375 33.015625 40.375 
z
M 52.59375 71.296875 
L 52.59375 62.3125 
Q 48.875 64.0625 45.09375 64.984375 
Q 41.3125 65.921875 37.59375 65.921875 
Q 27.828125 65.921875 22.671875 59.328125 
Q 17.53125 52.734375 16.796875 39.40625 
Q 19.671875 43.65625 24.015625 45.921875 
Q 28.375 48.1875 33.59375 48.1875 
Q 44.578125 48.1875 50.953125 41.515625 
Q 57.328125 34.859375 57.328125 23.390625 
Q 57.328125 12.15625 50.6875 5.359375 
Q 44.046875 -1.421875 33.015625 -1.421875 
Q 20.359375 -1.421875 13.671875 8.265625 
Q 6.984375 17.96875 6.984375 36.375 
Q 6.984375 53.65625 15.1875 63.9375 
Q 23.390625 74.21875 37.203125 74.21875 
Q 40.921875 74.21875 44.703125 73.484375 
Q 48.484375 72.75 52.59375 71.296875 
z
" id="DejaVuSans-54"/>
      </defs>
      <use xlink:href="#DejaVuSans-54"/>
     </g>
    </g>
   </g>
   <g id="xtick_5">
    <g id="line2d_6">
     <path d="M 243.645962 235.032643 
L 241.928856 236.770015 
" style="fill:none;stroke:#000000;stroke-linecap:square;stroke-width:0.8;"/>
    </g>
    <g id="text_5">
     <!-- 8 -->
     <g transform="translate(232.509511 259.84323)scale(0.1 -0.1)">
      <defs>
       <path d="M 31.78125 34.625 
Q 24.75 34.625 20.71875 30.859375 
Q 16.703125 27.09375 16.703125 20.515625 
Q 16.703125 13.921875 20.71875 10.15625 
Q 24.75 6.390625 31.78125 6.390625 
Q 38.8125 6.390625 42.859375 10.171875 
Q 46.921875 13.96875 46.921875 20.515625 
Q 46.921875 27.09375 42.890625 30.859375 
Q 38.875 34.625 31.78125 34.625 
z
M 21.921875 38.8125 
Q 15.578125 40.375 12.03125 44.71875 
Q 8.5 49.078125 8.5 55.328125 
Q 8.5 64.0625 14.71875 69.140625 
Q 20.953125 74.21875 31.78125 74.21875 
Q 42.671875 74.21875 48.875 69.140625 
Q 55.078125 64.0625 55.078125 55.328125 
Q 55.078125 49.078125 51.53125 44.71875 
Q 48 40.375 41.703125 38.8125 
Q 48.828125 37.15625 52.796875 32.3125 
Q 56.78125 27.484375 56.78125 20.515625 
Q 56.78125 9.90625 50.3125 4.234375 
Q 43.84375 -1.421875 31.78125 -1.421875 
Q 19.734375 -1.421875 13.25 4.234375 
Q 6.78125 9.90625 6.78125 20.515625 
Q 6.78125 27.484375 10.78125 32.3125 
Q 14.796875 37.15625 21.921875 38.8125 
z
M 18.3125 54.390625 
Q 18.3125 48.734375 21.84375 45.5625 
Q 25.390625 42.390625 31.78125 42.390625 
Q 38.140625 42.390625 41.71875 45.5625 
Q 45.3125 48.734375 45.3125 54.390625 
Q 45.3125 60.0625 41.71875 63.234375 
Q 38.140625 66.40625 31.78125 66.40625 
Q 25.390625 66.40625 21.84375 63.234375 
Q 18.3125 60.0625 18.3125 54.390625 
z
" id="DejaVuSans-56"/>
      </defs>
      <use xlink:href="#DejaVuSans-56"/>
     </g>
    </g>
   </g>
  </g>
  <g id="axis3d_2">
   <g id="line2d_7">
    <path d="M 316.12668 171.68791 
L 251.239879 238.27773 
" style="fill:none;stroke:#000000;stroke-linecap:square;stroke-width:0.8;"/>
   </g>
   <g id="Line3DCollection_2">
    <path d="M 129.866948 102.505071 
L 134.046245 194.238731 
L 255.729543 233.67023 
" style="fill:none;stroke:#b0b0b0;stroke-width:0.8;"/>
    <path d="M 147.250212 89.819556 
L 150.59591 180.366474 
L 270.72626 218.279909 
" style="fill:none;stroke:#b0b0b0;stroke-width:0.8;"/>
    <path d="M 163.958537 77.626582 
L 166.530371 167.009893 
L 285.136664 203.491289 
" style="fill:none;stroke:#b0b0b0;stroke-width:0.8;"/>
    <path d="M 180.030483 65.898008 
L 181.883306 154.140758 
L 298.994481 189.269761 
" style="fill:none;stroke:#b0b0b0;stroke-width:0.8;"/>
    <path d="M 195.501727 54.607799 
L 196.68598 141.732864 
L 312.330896 175.583317 
" style="fill:none;stroke:#b0b0b0;stroke-width:0.8;"/>
   </g>
   <g id="xtick_6">
    <g id="line2d_8">
     <path d="M 254.704115 233.337939 
L 257.783053 234.33567 
" style="fill:none;stroke:#000000;stroke-linecap:square;stroke-width:0.8;"/>
    </g>
    <g id="text_6">
     <!-- 0 -->
     <g transform="translate(265.430654 254.693759)scale(0.1 -0.1)">
      <use xlink:href="#DejaVuSans-48"/>
     </g>
    </g>
   </g>
   <g id="xtick_7">
    <g id="line2d_9">
     <path d="M 269.71494 217.960734 
L 272.751463 218.919068 
" style="fill:none;stroke:#000000;stroke-linecap:square;stroke-width:0.8;"/>
    </g>
    <g id="text_7">
     <!-- 2 -->
     <g transform="translate(280.181112 239.024526)scale(0.1 -0.1)">
      <use xlink:href="#DejaVuSans-50"/>
     </g>
    </g>
   </g>
   <g id="xtick_8">
    <g id="line2d_10">
     <path d="M 284.139145 203.184468 
L 287.134182 204.105694 
" style="fill:none;stroke:#000000;stroke-linecap:square;stroke-width:0.8;"/>
    </g>
    <g id="text_8">
     <!-- 4 -->
     <g transform="translate(294.35448 223.968328)scale(0.1 -0.1)">
      <use xlink:href="#DejaVuSans-52"/>
     </g>
    </g>
   </g>
   <g id="xtick_9">
    <g id="line2d_11">
     <path d="M 298.010457 188.97459 
L 300.964927 189.860821 
" style="fill:none;stroke:#000000;stroke-linecap:square;stroke-width:0.8;"/>
    </g>
    <g id="text_9">
     <!-- 6 -->
     <g transform="translate(307.983974 209.489882)scale(0.1 -0.1)">
      <use xlink:href="#DejaVuSans-54"/>
     </g>
    </g>
   </g>
   <g id="xtick_10">
    <g id="line2d_12">
     <path d="M 311.360068 175.299146 
L 314.274875 176.15234 
" style="fill:none;stroke:#000000;stroke-linecap:square;stroke-width:0.8;"/>
    </g>
    <g id="text_10">
     <!-- 8 -->
     <g transform="translate(321.10031 195.556556)scale(0.1 -0.1)">
      <use xlink:href="#DejaVuSans-56"/>
     </g>
    </g>
   </g>
  </g>
  <g id="axis3d_3">
   <g id="line2d_13">
    <path d="M 316.12668 171.68791 
L 320.238571 81.894718 
" style="fill:none;stroke:#000000;stroke-linecap:square;stroke-width:0.8;"/>
   </g>
   <g id="Line3DCollection_3">
    <path d="M 316.205459 169.967571 
L 200.884845 136.530725 
L 129.013401 196.624949 
" style="fill:none;stroke:#b0b0b0;stroke-width:0.8;"/>
    <path d="M 316.915706 154.457598 
L 200.712144 121.5122 
L 128.248458 180.740407 
" style="fill:none;stroke:#b0b0b0;stroke-width:0.8;"/>
    <path d="M 317.637021 138.705934 
L 200.536881 106.270855 
L 127.471138 164.598869 
" style="fill:none;stroke:#b0b0b0;stroke-width:0.8;"/>
    <path d="M 318.369663 122.706885 
L 200.358998 90.801695 
L 126.68114 148.194047 
" style="fill:none;stroke:#b0b0b0;stroke-width:0.8;"/>
    <path d="M 319.113904 106.454576 
L 200.178436 75.099573 
L 125.878151 131.519447 
" style="fill:none;stroke:#b0b0b0;stroke-width:0.8;"/>
    <path d="M 319.870019 89.942947 
L 199.995134 59.159186 
L 125.061846 114.568359 
" style="fill:none;stroke:#b0b0b0;stroke-width:0.8;"/>
   </g>
   <g id="xtick_11">
    <g id="line2d_14">
     <path d="M 315.237563 169.686933 
L 318.143556 170.529516 
" style="fill:none;stroke:#000000;stroke-linecap:square;stroke-width:0.8;"/>
    </g>
    <g id="text_11">
     <!-- 0 -->
     <g transform="translate(331.275915 174.966846)scale(0.1 -0.1)">
      <use xlink:href="#DejaVuSans-48"/>
     </g>
    </g>
   </g>
   <g id="xtick_12">
    <g id="line2d_15">
     <path d="M 315.940046 154.180985 
L 318.869367 155.01149 
" style="fill:none;stroke:#000000;stroke-linecap:square;stroke-width:0.8;"/>
    </g>
    <g id="text_12">
     <!-- 5000 -->
     <g transform="translate(322.580372 159.494213)scale(0.1 -0.1)">
      <defs>
       <path d="M 10.796875 72.90625 
L 49.515625 72.90625 
L 49.515625 64.59375 
L 19.828125 64.59375 
L 19.828125 46.734375 
Q 21.96875 47.46875 24.109375 47.828125 
Q 26.265625 48.1875 28.421875 48.1875 
Q 40.625 48.1875 47.75 41.5 
Q 54.890625 34.8125 54.890625 23.390625 
Q 54.890625 11.625 47.5625 5.09375 
Q 40.234375 -1.421875 26.90625 -1.421875 
Q 22.3125 -1.421875 17.546875 -0.640625 
Q 12.796875 0.140625 7.71875 1.703125 
L 7.71875 11.625 
Q 12.109375 9.234375 16.796875 8.0625 
Q 21.484375 6.890625 26.703125 6.890625 
Q 35.15625 6.890625 40.078125 11.328125 
Q 45.015625 15.765625 45.015625 23.390625 
Q 45.015625 31 40.078125 35.4375 
Q 35.15625 39.890625 26.703125 39.890625 
Q 22.75 39.890625 18.8125 39.015625 
Q 14.890625 38.140625 10.796875 36.28125 
z
" id="DejaVuSans-53"/>
      </defs>
      <use xlink:href="#DejaVuSans-53"/>
      <use x="63.623047" xlink:href="#DejaVuSans-48"/>
      <use x="127.246094" xlink:href="#DejaVuSans-48"/>
      <use x="190.869141" xlink:href="#DejaVuSans-48"/>
     </g>
    </g>
   </g>
   <g id="xtick_13">
    <g id="line2d_16">
     <path d="M 316.653471 138.433505 
L 319.606497 139.251451 
" style="fill:none;stroke:#000000;stroke-linecap:square;stroke-width:0.8;"/>
    </g>
    <g id="text_13">
     <!-- 10000 -->
     <g transform="translate(320.260496 143.781369)scale(0.1 -0.1)">
      <defs>
       <path d="M 12.40625 8.296875 
L 28.515625 8.296875 
L 28.515625 63.921875 
L 10.984375 60.40625 
L 10.984375 69.390625 
L 28.421875 72.90625 
L 38.28125 72.90625 
L 38.28125 8.296875 
L 54.390625 8.296875 
L 54.390625 0 
L 12.40625 0 
z
" id="DejaVuSans-49"/>
      </defs>
      <use xlink:href="#DejaVuSans-49"/>
      <use x="63.623047" xlink:href="#DejaVuSans-48"/>
      <use x="127.246094" xlink:href="#DejaVuSans-48"/>
      <use x="190.869141" xlink:href="#DejaVuSans-48"/>
      <use x="254.492188" xlink:href="#DejaVuSans-48"/>
     </g>
    </g>
   </g>
   <g id="xtick_14">
    <g id="line2d_17">
     <path d="M 317.378097 122.438806 
L 320.355213 123.243695 
" style="fill:none;stroke:#000000;stroke-linecap:square;stroke-width:0.8;"/>
    </g>
    <g id="text_14">
     <!-- 15000 -->
     <g transform="translate(321.135348 127.822677)scale(0.1 -0.1)">
      <use xlink:href="#DejaVuSans-49"/>
      <use x="63.623047" xlink:href="#DejaVuSans-53"/>
      <use x="127.246094" xlink:href="#DejaVuSans-48"/>
      <use x="190.869141" xlink:href="#DejaVuSans-48"/>
      <use x="254.492188" xlink:href="#DejaVuSans-48"/>
     </g>
    </g>
   </g>
   <g id="xtick_15">
    <g id="line2d_18">
     <path d="M 318.114188 106.191021 
L 321.115791 106.982334 
" style="fill:none;stroke:#000000;stroke-linecap:square;stroke-width:0.8;"/>
    </g>
    <g id="text_15">
     <!-- 20000 -->
     <g transform="translate(322.023997 111.612321)scale(0.1 -0.1)">
      <use xlink:href="#DejaVuSans-50"/>
      <use x="63.623047" xlink:href="#DejaVuSans-48"/>
      <use x="127.246094" xlink:href="#DejaVuSans-48"/>
      <use x="190.869141" xlink:href="#DejaVuSans-48"/>
      <use x="254.492188" xlink:href="#DejaVuSans-48"/>
     </g>
    </g>
   </g>
   <g id="xtick_16">
    <g id="line2d_19">
     <path d="M 318.862019 89.684094 
L 321.888514 90.461295 
" style="fill:none;stroke:#000000;stroke-linecap:square;stroke-width:0.8;"/>
    </g>
    <g id="text_16">
     <!-- 25000 -->
     <g transform="translate(322.92677 95.1443)scale(0.1 -0.1)">
      <use xlink:href="#DejaVuSans-50"/>
      <use x="63.623047" xlink:href="#DejaVuSans-53"/>
      <use x="127.246094" xlink:href="#DejaVuSans-48"/>
      <use x="190.869141" xlink:href="#DejaVuSans-48"/>
      <use x="254.492188" xlink:href="#DejaVuSans-48"/>
     </g>
    </g>
   </g>
  </g>
  <g id="axes_1">
   <g id="Poly3DCollection_1">
    <path clip-path="url(#p88ed6b5044)" d="M 203.700438 142.115361 
L 203.676983 139.803731 
L 215.85422 143.347357 
L 215.863902 145.66701 
z
" style="fill:#0b033b;"/>
    <path clip-path="url(#p88ed6b5044)" d="M 196.401162 148.290596 
L 196.369123 145.965043 
L 203.676983 139.803731 
L 203.700438 142.115361 
z
" style="fill:#18057c;"/>
    <path clip-path="url(#p88ed6b5044)" d="M 196.401162 148.290596 
L 203.700438 142.115361 
L 215.863902 145.66701 
L 208.637156 151.907182 
z
" style="fill:#0e034b;"/>
    <path clip-path="url(#p88ed6b5044)" d="M 196.369123 145.965043 
L 208.619055 149.573533 
L 215.85422 143.347357 
L 203.676983 139.803731 
z
" style="fill:#15056c;"/>
    <path clip-path="url(#p88ed6b5044)" d="M 215.863902 145.66701 
L 215.849148 142.13216 
L 228.161704 145.708784 
L 228.155024 149.255935 
z
" style="fill:#0e023c;"/>
    <path clip-path="url(#p88ed6b5044)" d="M 208.637156 151.907182 
L 215.863902 145.66701 
L 215.85422 143.347357 
L 208.619055 149.573533 
z
" style="fill:#0b033b;"/>
    <path clip-path="url(#p88ed6b5044)" d="M 208.637156 151.907182 
L 208.609572 148.350985 
L 215.849148 142.13216 
L 215.863902 145.66701 
z
" style="fill:#1e057f;"/>
    <path clip-path="url(#p88ed6b5044)" d="M 196.401162 148.290596 
L 208.637156 151.907182 
L 208.619055 149.573533 
L 196.369123 145.965043 
z
" style="fill:#18057c;"/>
    <path clip-path="url(#p88ed6b5044)" d="M 208.637156 151.907182 
L 215.863902 145.66701 
L 228.155024 149.255935 
L 221.002748 155.562072 
z
" style="fill:#12034d;"/>
    <path clip-path="url(#p88ed6b5044)" d="M 196.401162 148.290596 
L 196.32594 142.830659 
L 208.594657 146.428193 
L 208.637156 151.907182 
z
" style="fill:#14023e;"/>
    <path clip-path="url(#p88ed6b5044)" d="M 208.609572 148.350985 
L 220.996857 151.993465 
L 228.161704 145.708784 
L 215.849148 142.13216 
z
" style="fill:#1a046e;"/>
    <path clip-path="url(#p88ed6b5044)" d="M 188.96817 154.578956 
L 188.872061 149.085959 
L 196.32594 142.830659 
L 196.401162 148.290596 
z
" style="fill:#2a0484;"/>
    <path clip-path="url(#p88ed6b5044)" d="M 228.155024 149.255935 
L 228.174721 138.795801 
L 240.660068 142.38594 
L 240.575825 152.882725 
z
" style="fill:#1f0143;"/>
    <path clip-path="url(#p88ed6b5044)" d="M 221.002748 155.562072 
L 228.155024 149.255935 
L 228.161704 145.708784 
L 220.996857 151.993465 
z
" style="fill:#0e023c;"/>
    <path clip-path="url(#p88ed6b5044)" d="M 188.96817 154.578956 
L 196.401162 148.290596 
L 208.637156 151.907182 
L 201.27732 158.262275 
z
" style="fill:#190350;"/>
    <path clip-path="url(#p88ed6b5044)" d="M 221.002748 155.562072 
L 220.985375 145.038337 
L 228.174721 138.795801 
L 228.155024 149.255935 
z
" style="fill:#41028d;"/>
    <path clip-path="url(#p88ed6b5044)" d="M 221.002748 155.562072 
L 228.155024 149.255935 
L 240.575825 152.882725 
L 233.500008 159.25588 
z
" style="fill:#270155;"/>
    <path clip-path="url(#p88ed6b5044)" d="M 208.637156 151.907182 
L 221.002748 155.562072 
L 220.996857 151.993465 
L 208.609572 148.350985 
z
" style="fill:#1e057f;"/>
    <path clip-path="url(#p88ed6b5044)" d="M 188.872061 149.085959 
L 201.214323 152.750057 
L 208.594657 146.428193 
L 196.32594 142.830659 
z
" style="fill:#240473;"/>
    <path clip-path="url(#p88ed6b5044)" d="M 201.27732 158.262275 
L 208.637156 151.907182 
L 208.594657 146.428193 
L 201.214323 152.750057 
z
" style="fill:#14023e;"/>
    <path clip-path="url(#p88ed6b5044)" d="M 208.637156 151.907182 
L 208.505952 134.992321 
L 220.974726 138.587587 
L 221.002748 155.562072 
z
" style="fill:#2c0046;"/>
    <path clip-path="url(#p88ed6b5044)" d="M 201.27732 158.262275 
L 208.637156 151.907182 
L 221.002748 155.562072 
L 213.718049 161.984967 
z
" style="fill:#380059;"/>
    <path clip-path="url(#p88ed6b5044)" d="M 188.96817 154.578956 
L 201.27732 158.262275 
L 201.214323 152.750057 
L 188.872061 149.085959 
z
" style="fill:#2a0484;"/>
    <path clip-path="url(#p88ed6b5044)" d="M 220.985375 145.038337 
L 233.54798 148.695165 
L 240.660068 142.38594 
L 228.174721 138.795801 
z
" style="fill:#38027b;"/>
    <path clip-path="url(#p88ed6b5044)" d="M 240.575825 152.882725 
L 240.722875 134.559937 
L 253.390492 138.16051 
L 253.128369 156.547983 
z
" style="fill:#2f0046;"/>
    <path clip-path="url(#p88ed6b5044)" d="M 233.500008 159.25588 
L 240.575825 152.882725 
L 240.660068 142.38594 
L 233.54798 148.695165 
z
" style="fill:#1f0143;"/>
    <path clip-path="url(#p88ed6b5044)" d="M 233.500008 159.25588 
L 240.575825 152.882725 
L 253.128369 156.547983 
L 246.131049 162.989229 
z
" style="fill:#3c005a;"/>
    <path clip-path="url(#p88ed6b5044)" d="M 201.27732 158.262275 
L 201.082825 141.243944 
L 208.505952 134.992321 
L 208.637156 151.907182 
z
" style="fill:#5d0094;"/>
    <path clip-path="url(#p88ed6b5044)" d="M 221.002748 155.562072 
L 233.500008 159.25588 
L 233.54798 148.695165 
L 220.985375 145.038337 
z
" style="fill:#41028d;"/>
    <path clip-path="url(#p88ed6b5044)" d="M 233.500008 159.25588 
L 233.583749 140.82084 
L 240.722875 134.559937 
L 240.575825 152.882725 
z
" style="fill:#640095;"/>
    <path clip-path="url(#p88ed6b5044)" d="M 188.96817 154.578956 
L 188.66742 137.390024 
L 201.080182 141.012666 
L 201.27732 158.262275 
z
" style="fill:#2c0046;"/>
    <path clip-path="url(#p88ed6b5044)" d="M 181.397755 160.983577 
L 188.96817 154.578956 
L 201.27732 158.262275 
L 193.780682 164.735494 
z
" style="fill:#39005a;"/>
    <path clip-path="url(#p88ed6b5044)" d="M 213.718049 161.984967 
L 221.002748 155.562072 
L 233.500008 159.25588 
L 226.292478 165.747667 
z
" style="fill:#682144;"/>
    <path clip-path="url(#p88ed6b5044)" d="M 181.397755 160.983577 
L 181.02923 143.68935 
L 188.66742 137.390024 
L 188.96817 154.578956 
z
" style="fill:#5e0094;"/>
    <path clip-path="url(#p88ed6b5044)" d="M 246.131049 162.989229 
L 253.128369 156.547983 
L 265.814761 160.252323 
L 258.898031 166.762758 
z
" style="fill:#3e005a;"/>
    <path clip-path="url(#p88ed6b5044)" d="M 253.128369 156.547983 
L 253.399055 137.559895 
L 266.206824 141.197059 
L 265.814761 160.252323 
z
" style="fill:#300046;"/>
    <path clip-path="url(#p88ed6b5044)" d="M 213.718049 161.984967 
L 221.002748 155.562072 
L 220.974726 138.587587 
L 213.627995 144.906471 
z
" style="fill:#2c0046;"/>
    <path clip-path="url(#p88ed6b5044)" d="M 201.082825 141.243944 
L 213.627995 144.906471 
L 220.974726 138.587587 
L 208.505952 134.992321 
z
" style="fill:#500081;"/>
    <path clip-path="url(#p88ed6b5044)" d="M 246.131049 162.989229 
L 253.128369 156.547983 
L 253.390492 138.16051 
L 246.33132 144.488919 
z
" style="fill:#2f0046;"/>
    <path clip-path="url(#p88ed6b5044)" d="M 246.131049 162.989229 
L 246.337863 143.884566 
L 253.399055 137.559895 
L 253.128369 156.547983 
z
" style="fill:#660195;"/>
    <path clip-path="url(#p88ed6b5044)" d="M 201.27732 158.262275 
L 213.718049 161.984967 
L 213.627995 144.906471 
L 201.082825 141.243944 
z
" style="fill:#5d0094;"/>
    <path clip-path="url(#p88ed6b5044)" d="M 193.780682 164.735494 
L 201.27732 158.262275 
L 213.718049 161.984967 
L 206.297214 168.527892 
z
" style="fill:#7d3d2f;"/>
    <path clip-path="url(#p88ed6b5044)" d="M 221.002748 155.562072 
L 220.937432 115.997255 
L 233.680377 119.548996 
L 233.500008 159.25588 
z
" style="fill:#521a35;"/>
    <path clip-path="url(#p88ed6b5044)" d="M 233.583749 140.82084 
L 246.33132 144.488919 
L 253.390492 138.16051 
L 240.722875 134.559937 
z
" style="fill:#560081;"/>
    <path clip-path="url(#p88ed6b5044)" d="M 233.500008 159.25588 
L 246.131049 162.989229 
L 246.33132 144.488919 
L 233.583749 140.82084 
z
" style="fill:#640095;"/>
    <path clip-path="url(#p88ed6b5044)" d="M 226.292478 165.747667 
L 233.500008 159.25588 
L 246.131049 162.989229 
L 239.002775 169.551023 
z
" style="fill:#773435;"/>
    <path clip-path="url(#p88ed6b5044)" d="M 193.780682 164.735494 
L 201.27732 158.262275 
L 201.080182 141.012666 
L 193.51701 147.380043 
z
" style="fill:#2c0046;"/>
    <path clip-path="url(#p88ed6b5044)" d="M 265.814761 160.252323 
L 266.181058 142.449372 
L 279.119285 146.130395 
L 278.637155 163.996376 
z
" style="fill:#2e0046;"/>
    <path clip-path="url(#p88ed6b5044)" d="M 258.898031 166.762758 
L 265.814761 160.252323 
L 278.637155 163.996376 
L 271.803162 170.57712 
z
" style="fill:#3a005a;"/>
    <path clip-path="url(#p88ed6b5044)" d="M 181.02923 143.68935 
L 193.51701 147.380043 
L 201.080182 141.012666 
L 188.66742 137.390024 
z
" style="fill:#520081;"/>
    <path clip-path="url(#p88ed6b5044)" d="M 213.718049 161.984967 
L 213.508126 122.173597 
L 220.937432 115.997255 
L 221.002748 155.562072 
z
" style="fill:#ad3770;"/>
    <path clip-path="url(#p88ed6b5044)" d="M 181.397755 160.983577 
L 193.780682 164.735494 
L 193.51701 147.380043 
L 181.02923 143.68935 
z
" style="fill:#5e0094;"/>
    <path clip-path="url(#p88ed6b5044)" d="M 173.686069 167.507715 
L 181.397755 160.983577 
L 193.780682 164.735494 
L 186.143392 171.330164 
z
" style="fill:#722d3b;"/>
    <path clip-path="url(#p88ed6b5044)" d="M 258.898031 166.762758 
L 259.206113 148.850431 
L 266.181058 142.449372 
L 265.814761 160.252323 
z
" style="fill:#610095;"/>
    <path clip-path="url(#p88ed6b5044)" d="M 258.898031 166.762758 
L 265.814761 160.252323 
L 266.206824 141.197059 
L 259.227787 147.590313 
z
" style="fill:#300046;"/>
    <path clip-path="url(#p88ed6b5044)" d="M 206.297214 168.527892 
L 213.718049 161.984967 
L 226.292478 165.747667 
L 218.949524 172.361429 
z
" style="fill:#876517;"/>
    <path clip-path="url(#p88ed6b5044)" d="M 239.002775 169.551023 
L 246.131049 162.989229 
L 258.898031 166.762758 
L 251.851153 173.395697 
z
" style="fill:#732e3a;"/>
    <path clip-path="url(#p88ed6b5044)" d="M 246.131049 162.989229 
L 258.898031 166.762758 
L 259.227787 147.590313 
L 246.337863 143.884566 
z
" style="fill:#660195;"/>
    <path clip-path="url(#p88ed6b5044)" d="M 246.337863 143.884566 
L 259.227787 147.590313 
L 266.206824 141.197059 
L 253.399055 137.559895 
z
" style="fill:#590181;"/>
    <path clip-path="url(#p88ed6b5044)" d="M 278.637155 163.996376 
L 279.091493 147.160249 
L 292.163592 150.884999 
L 291.597749 167.780781 
z
" style="fill:#2c0046;"/>
    <path clip-path="url(#p88ed6b5044)" d="M 271.803162 170.57712 
L 278.637155 163.996376 
L 291.597749 167.780781 
L 284.848695 174.43298 
z
" style="fill:#380059;"/>
    <path clip-path="url(#p88ed6b5044)" d="M 226.292478 165.747667 
L 233.500008 159.25588 
L 233.680377 119.548996 
L 226.331314 125.7929 
z
" style="fill:#521a35;"/>
    <path clip-path="url(#p88ed6b5044)" d="M 201.27732 158.262275 
L 200.653531 103.680654 
L 213.429198 107.204935 
L 213.718049 161.984967 
z
" style="fill:#613024;"/>
    <path clip-path="url(#p88ed6b5044)" d="M 233.500008 159.25588 
L 233.725762 109.557905 
L 246.670995 113.111158 
L 246.131049 162.989229 
z
" style="fill:#5d282a;"/>
    <path clip-path="url(#p88ed6b5044)" d="M 186.143392 171.330164 
L 193.780682 164.735494 
L 206.297214 168.527892 
L 198.736391 175.194243 
z
" style="fill:#867113;"/>
    <path clip-path="url(#p88ed6b5044)" d="M 271.803162 170.57712 
L 272.204071 153.637473 
L 279.091493 147.160249 
L 278.637155 163.996376 
z
" style="fill:#5d0094;"/>
    <path clip-path="url(#p88ed6b5044)" d="M 271.803162 170.57712 
L 278.637155 163.996376 
L 279.119285 146.130395 
L 272.228597 152.601201 
z
" style="fill:#2e0046;"/>
    <path clip-path="url(#p88ed6b5044)" d="M 213.718049 161.984967 
L 226.292478 165.747667 
L 226.331314 125.7929 
L 213.508126 122.173597 
z
" style="fill:#ad3770;"/>
    <path clip-path="url(#p88ed6b5044)" d="M 181.397755 160.983577 
L 180.415883 114.906117 
L 193.07812 118.491369 
L 193.780682 164.735494 
z
" style="fill:#59232e;"/>
    <path clip-path="url(#p88ed6b5044)" d="M 218.949524 172.361429 
L 226.292478 165.747667 
L 239.002775 169.551023 
L 231.739835 176.23678 
z
" style="fill:#876118;"/>
    <path clip-path="url(#p88ed6b5044)" d="M 193.780682 164.735494 
L 192.946222 109.809519 
L 200.653531 103.680654 
L 201.27732 158.262275 
z
" style="fill:#ce654d;"/>
    <path clip-path="url(#p88ed6b5044)" d="M 226.292478 165.747667 
L 226.341089 115.73713 
L 233.725762 109.557905 
L 233.500008 159.25588 
z
" style="fill:#c45559;"/>
    <path clip-path="url(#p88ed6b5044)" d="M 291.597749 167.780781 
L 291.899903 158.758626 
L 305.061763 162.552215 
L 304.698789 171.606197 
z
" style="fill:#1b0141;"/>
    <path clip-path="url(#p88ed6b5044)" d="M 259.206113 148.850431 
L 272.228597 152.601201 
L 279.119285 146.130395 
L 266.181058 142.449372 
z
" style="fill:#540081;"/>
    <path clip-path="url(#p88ed6b5044)" d="M 258.898031 166.762758 
L 271.803162 170.57712 
L 272.228597 152.601201 
L 259.206113 148.850431 
z
" style="fill:#610095;"/>
    <path clip-path="url(#p88ed6b5044)" d="M 251.851153 173.395697 
L 258.898031 166.762758 
L 271.803162 170.57712 
L 264.839875 177.282368 
z
" style="fill:#6f293d;"/>
    <path clip-path="url(#p88ed6b5044)" d="M 173.686069 167.507715 
L 172.516808 121.14101 
L 180.415883 114.906117 
L 181.397755 160.983577 
z
" style="fill:#bc4a61;"/>
    <path clip-path="url(#p88ed6b5044)" d="M 284.848695 174.43298 
L 285.123103 165.3556 
L 291.899903 158.758626 
L 291.597749 167.780781 
z
" style="fill:#39038b;"/>
    <path clip-path="url(#p88ed6b5044)" d="M 165.82912 174.154745 
L 173.686069 167.507715 
L 186.143392 171.330164 
L 178.361455 178.049733 
z
" style="fill:#86571e;"/>
    <path clip-path="url(#p88ed6b5044)" d="M 284.848695 174.43298 
L 291.597749 167.780781 
L 304.698789 171.606197 
L 298.036935 178.33102 
z
" style="fill:#230254;"/>
    <path clip-path="url(#p88ed6b5044)" d="M 246.131049 162.989229 
L 246.637437 116.211116 
L 259.705503 119.815206 
L 258.898031 166.762758 
z
" style="fill:#5a242d;"/>
    <path clip-path="url(#p88ed6b5044)" d="M 198.736391 175.194243 
L 206.297214 168.527892 
L 218.949524 172.361429 
L 211.467294 179.100638 
z
" style="fill:#866e14;"/>
    <path clip-path="url(#p88ed6b5044)" d="M 284.848695 174.43298 
L 291.597749 167.780781 
L 292.163592 150.884999 
L 285.362597 157.43315 
z
" style="fill:#2c0046;"/>
    <path clip-path="url(#p88ed6b5044)" d="M 213.508126 122.173597 
L 226.331314 125.7929 
L 233.680377 119.548996 
L 220.937432 115.997255 
z
" style="fill:#963061;"/>
    <path clip-path="url(#p88ed6b5044)" d="M 239.002775 169.551023 
L 239.346789 122.478851 
L 246.637437 116.211116 
L 246.131049 162.989229 
z
" style="fill:#be4c60;"/>
    <path clip-path="url(#p88ed6b5044)" d="M 231.739835 176.23678 
L 239.002775 169.551023 
L 251.851153 173.395697 
L 244.670417 180.154631 
z
" style="fill:#86561e;"/>
    <path clip-path="url(#p88ed6b5044)" d="M 206.297214 168.527892 
L 213.718049 161.984967 
L 213.429198 107.204935 
L 205.801821 113.401606 
z
" style="fill:#613024;"/>
    <path clip-path="url(#p88ed6b5044)" d="M 239.002775 169.551023 
L 246.131049 162.989229 
L 246.670995 113.111158 
L 239.369592 119.358682 
z
" style="fill:#5d282a;"/>
    <path clip-path="url(#p88ed6b5044)" d="M 272.204071 153.637473 
L 285.362597 157.43315 
L 292.163592 150.884999 
L 279.091493 147.160249 
z
" style="fill:#500081;"/>
    <path clip-path="url(#p88ed6b5044)" d="M 271.803162 170.57712 
L 284.848695 174.43298 
L 285.362597 157.43315 
L 272.204071 153.637473 
z
" style="fill:#5d0094;"/>
    <path clip-path="url(#p88ed6b5044)" d="M 264.839875 177.282368 
L 271.803162 170.57712 
L 284.848695 174.43298 
L 277.971253 181.211726 
z
" style="fill:#641c48;"/>
    <path clip-path="url(#p88ed6b5044)" d="M 186.143392 171.330164 
L 193.780682 164.735494 
L 193.07812 118.491369 
L 185.256811 124.795229 
z
" style="fill:#59232e;"/>
    <path clip-path="url(#p88ed6b5044)" d="M 285.123103 165.3556 
L 298.372986 169.221539 
L 305.061763 162.552215 
L 291.899903 158.758626 
z
" style="fill:#320378;"/>
    <path clip-path="url(#p88ed6b5044)" d="M 193.780682 164.735494 
L 206.297214 168.527892 
L 205.801821 113.401606 
L 192.946222 109.809519 
z
" style="fill:#ce654d;"/>
    <path clip-path="url(#p88ed6b5044)" d="M 226.292478 165.747667 
L 239.002775 169.551023 
L 239.369592 119.358682 
L 226.341089 115.73713 
z
" style="fill:#c45559;"/>
    <path clip-path="url(#p88ed6b5044)" d="M 258.898031 166.762758 
L 259.658387 122.554599 
L 272.853222 126.208872 
L 271.803162 170.57712 
z
" style="fill:#572030;"/>
    <path clip-path="url(#p88ed6b5044)" d="M 298.036935 178.33102 
L 304.698789 171.606197 
L 305.061763 162.552215 
L 298.372986 169.221539 
z
" style="fill:#1b0141;"/>
    <path clip-path="url(#p88ed6b5044)" d="M 213.718049 161.984967 
L 213.332758 88.915321 
L 226.363765 92.408323 
L 226.292478 165.747667 
z
" style="fill:#6a4f12;"/>
    <path clip-path="url(#p88ed6b5044)" d="M 178.361455 178.049733 
L 186.143392 171.330164 
L 198.736391 175.194243 
L 191.031582 181.987547 
z
" style="fill:#808512;"/>
    <path clip-path="url(#p88ed6b5044)" d="M 173.686069 167.507715 
L 186.143392 171.330164 
L 185.256811 124.795229 
L 172.516808 121.14101 
z
" style="fill:#bc4a61;"/>
    <path clip-path="url(#p88ed6b5044)" d="M 211.467294 179.100638 
L 218.949524 172.361429 
L 231.739835 176.23678 
L 224.338378 183.050047 
z
" style="fill:#837c14;"/>
    <path clip-path="url(#p88ed6b5044)" d="M 251.851153 173.395697 
L 252.46229 128.909713 
L 259.658387 122.554599 
L 258.898031 166.762758 
z
" style="fill:#b84466;"/>
    <path clip-path="url(#p88ed6b5044)" d="M 284.848695 174.43298 
L 298.036935 178.33102 
L 298.372986 169.221539 
L 285.123103 165.3556 
z
" style="fill:#39038b;"/>
    <path clip-path="url(#p88ed6b5044)" d="M 206.297214 168.527892 
L 205.636366 94.990146 
L 213.332758 88.915321 
L 213.718049 161.984967 
z
" style="fill:#e0a725;"/>
    <path clip-path="url(#p88ed6b5044)" d="M 251.851153 173.395697 
L 258.898031 166.762758 
L 259.705503 119.815206 
L 252.500168 126.152498 
z
" style="fill:#5a242d;"/>
    <path clip-path="url(#p88ed6b5044)" d="M 244.670417 180.154631 
L 251.851153 173.395697 
L 264.839875 177.282368 
L 257.743589 184.115686 
z
" style="fill:#814728;"/>
    <path clip-path="url(#p88ed6b5044)" d="M 271.803162 170.57712 
L 272.678028 133.611368 
L 285.970194 137.33388 
L 284.848695 174.43298 
z
" style="fill:#4e1638;"/>
    <path clip-path="url(#p88ed6b5044)" d="M 284.848695 174.43298 
L 285.319592 158.855743 
L 298.613625 162.698418 
L 298.036935 178.33102 
z
" style="fill:#280045;"/>
    <path clip-path="url(#p88ed6b5044)" d="M 157.822766 180.928173 
L 165.82912 174.154745 
L 178.361455 178.049733 
L 170.430723 184.897786 
z
" style="fill:#855320;"/>
    <path clip-path="url(#p88ed6b5044)" d="M 277.971253 181.211726 
L 284.848695 174.43298 
L 298.036935 178.33102 
L 291.24765 185.184478 
z
" style="fill:#340059;"/>
    <path clip-path="url(#p88ed6b5044)" d="M 239.002775 169.551023 
L 251.851153 173.395697 
L 252.500168 126.152498 
L 239.346789 122.478851 
z
" style="fill:#be4c60;"/>
    <path clip-path="url(#p88ed6b5044)" d="M 193.780682 164.735494 
L 192.596749 86.806475 
L 205.594306 90.309845 
L 206.297214 168.527892 
z
" style="fill:#69580f;"/>
    <path clip-path="url(#p88ed6b5044)" d="M 226.292478 165.747667 
L 226.362469 93.740919 
L 239.530961 97.278235 
L 239.002775 169.551023 
z
" style="fill:#6a4c13;"/>
    <path clip-path="url(#p88ed6b5044)" d="M 264.839875 177.282368 
L 265.593587 140.085206 
L 272.678028 133.611368 
L 271.803162 170.57712 
z
" style="fill:#a52e78;"/>
    <path clip-path="url(#p88ed6b5044)" d="M 191.031582 181.987547 
L 198.736391 175.194243 
L 211.467294 179.100638 
L 203.841786 185.968896 
z
" style="fill:#857714;"/>
    <path clip-path="url(#p88ed6b5044)" d="M 277.971253 181.211726 
L 278.39263 165.538418 
L 285.319592 158.855743 
L 284.848695 174.43298 
z
" style="fill:#560093;"/>
    <path clip-path="url(#p88ed6b5044)" d="M 173.686069 167.507715 
L 171.984954 100.05051 
L 184.853464 103.624357 
L 186.143392 171.330164 
z
" style="fill:#694417;"/>
    <path clip-path="url(#p88ed6b5044)" d="M 224.338378 183.050047 
L 231.739835 176.23678 
L 244.670417 180.154631 
L 237.351973 187.043183 
z
" style="fill:#876b15;"/>
    <path clip-path="url(#p88ed6b5044)" d="M 186.143392 171.330164 
L 184.649134 92.89949 
L 192.596749 86.806475 
L 193.780682 164.735494 
z
" style="fill:#debb20;"/>
    <path clip-path="url(#p88ed6b5044)" d="M 218.949524 172.361429 
L 218.754629 99.892937 
L 226.362469 93.740919 
L 226.292478 165.747667 
z
" style="fill:#e0a128;"/>
    <path clip-path="url(#p88ed6b5044)" d="M 226.341089 115.73713 
L 239.369592 119.358682 
L 246.670995 113.111158 
L 233.725762 109.557905 
z
" style="fill:#ab4a4d;"/>
    <path clip-path="url(#p88ed6b5044)" d="M 264.839875 177.282368 
L 271.803162 170.57712 
L 272.853222 126.208872 
L 265.744552 132.63481 
z
" style="fill:#572030;"/>
    <path clip-path="url(#p88ed6b5044)" d="M 218.949524 172.361429 
L 226.292478 165.747667 
L 226.363765 92.408323 
L 218.75102 98.551336 
z
" style="fill:#6a4f12;"/>
    <path clip-path="url(#p88ed6b5044)" d="M 172.516808 121.14101 
L 185.256811 124.795229 
L 193.07812 118.491369 
L 180.415883 114.906117 
z
" style="fill:#a44054;"/>
    <path clip-path="url(#p88ed6b5044)" d="M 192.946222 109.809519 
L 205.801821 113.401606 
L 213.429198 107.204935 
L 200.653531 103.680654 
z
" style="fill:#b35843;"/>
    <path clip-path="url(#p88ed6b5044)" d="M 257.743589 184.115686 
L 264.839875 177.282368 
L 277.971253 181.211726 
L 270.961723 188.120663 
z
" style="fill:#753237;"/>
    <path clip-path="url(#p88ed6b5044)" d="M 165.82912 174.154745 
L 163.845002 106.26607 
L 171.984954 100.05051 
L 173.686069 167.507715 
z
" style="fill:#de9031;"/>
    <path clip-path="url(#p88ed6b5044)" d="M 251.851153 173.395697 
L 264.839875 177.282368 
L 265.744552 132.63481 
L 252.46229 128.909713 
z
" style="fill:#b84466;"/>
    <path clip-path="url(#p88ed6b5044)" d="M 239.002775 169.551023 
L 239.494431 102.276675 
L 252.778759 105.873229 
L 251.851153 173.395697 
z
" style="fill:#694418;"/>
    <path clip-path="url(#p88ed6b5044)" d="M 206.297214 168.527892 
L 218.949524 172.361429 
L 218.75102 98.551336 
L 205.636366 94.990146 
z
" style="fill:#e0a725;"/>
    <path clip-path="url(#p88ed6b5044)" d="M 170.430723 184.897786 
L 178.361455 178.049733 
L 191.031582 181.987547 
L 183.178635 188.911464 
z
" style="fill:#866f14;"/>
    <path clip-path="url(#p88ed6b5044)" d="M 206.297214 168.527892 
L 205.603299 91.310512 
L 218.741086 94.857304 
L 218.949524 172.361429 
z
" style="fill:#69560f;"/>
    <path clip-path="url(#p88ed6b5044)" d="M 277.971253 181.211726 
L 284.848695 174.43298 
L 285.970194 137.33388 
L 278.974917 143.880004 
z
" style="fill:#4e1638;"/>
    <path clip-path="url(#p88ed6b5044)" d="M 203.841786 185.968896 
L 211.467294 179.100638 
L 224.338378 183.050047 
L 216.794403 189.994506 
z
" style="fill:#827f15;"/>
    <path clip-path="url(#p88ed6b5044)" d="M 291.24765 185.184478 
L 298.036935 178.33102 
L 298.613625 162.698418 
L 291.776262 169.455328 
z
" style="fill:#280045;"/>
    <path clip-path="url(#p88ed6b5044)" d="M 239.346789 122.478851 
L 252.500168 126.152498 
L 259.705503 119.815206 
L 246.637437 116.211116 
z
" style="fill:#a54253;"/>
    <path clip-path="url(#p88ed6b5044)" d="M 231.739835 176.23678 
L 231.990409 108.5318 
L 239.494431 102.276675 
L 239.002775 169.551023 
z
" style="fill:#de8f32;"/>
    <path clip-path="url(#p88ed6b5044)" d="M 278.39263 165.538418 
L 291.776262 169.455328 
L 298.613625 162.698418 
L 285.319592 158.855743 
z
" style="fill:#4a0080;"/>
    <path clip-path="url(#p88ed6b5044)" d="M 198.736391 175.194243 
L 197.742016 97.479177 
L 205.603299 91.310512 
L 206.297214 168.527892 
z
" style="fill:#dfb621;"/>
    <path clip-path="url(#p88ed6b5044)" d="M 237.351973 187.043183 
L 244.670417 180.154631 
L 257.743589 184.115686 
L 250.510457 191.080779 
z
" style="fill:#876616;"/>
    <path clip-path="url(#p88ed6b5044)" d="M 198.736391 175.194243 
L 206.297214 168.527892 
L 205.594306 90.309845 
L 197.729125 96.471689 
z
" style="fill:#69580f;"/>
    <path clip-path="url(#p88ed6b5044)" d="M 231.739835 176.23678 
L 239.002775 169.551023 
L 239.530961 97.278235 
L 232.009033 103.499652 
z
" style="fill:#6a4c13;"/>
    <path clip-path="url(#p88ed6b5044)" d="M 264.839875 177.282368 
L 277.971253 181.211726 
L 278.974917 143.880004 
L 265.593587 140.085206 
z
" style="fill:#a52e78;"/>
    <path clip-path="url(#p88ed6b5044)" d="M 277.971253 181.211726 
L 291.24765 185.184478 
L 291.776262 169.455328 
L 278.39263 165.538418 
z
" style="fill:#560093;"/>
    <path clip-path="url(#p88ed6b5044)" d="M 251.851153 173.395697 
L 252.680885 112.997728 
L 266.068195 116.662402 
L 264.839875 177.282368 
z
" style="fill:#65381f;"/>
    <path clip-path="url(#p88ed6b5044)" d="M 149.662704 187.831639 
L 157.822766 180.928173 
L 170.430723 184.897786 
L 162.346885 191.878042 
z
" style="fill:#814628;"/>
    <path clip-path="url(#p88ed6b5044)" d="M 277.971253 181.211726 
L 278.444384 163.613404 
L 291.84119 167.52336 
L 291.24765 185.184478 
z
" style="fill:#2c0046;"/>
    <path clip-path="url(#p88ed6b5044)" d="M 270.961723 188.120663 
L 277.971253 181.211726 
L 291.24765 185.184478 
L 284.327244 192.170297 
z
" style="fill:#39005a;"/>
    <path clip-path="url(#p88ed6b5044)" d="M 178.361455 178.049733 
L 186.143392 171.330164 
L 184.853464 103.624357 
L 176.793508 109.910057 
z
" style="fill:#694417;"/>
    <path clip-path="url(#p88ed6b5044)" d="M 186.143392 171.330164 
L 198.736391 175.194243 
L 197.729125 96.471689 
L 184.649134 92.89949 
z
" style="fill:#debb20;"/>
    <path clip-path="url(#p88ed6b5044)" d="M 218.949524 172.361429 
L 231.739835 176.23678 
L 232.009033 103.499652 
L 218.754629 99.892937 
z
" style="fill:#e0a128;"/>
    <path clip-path="url(#p88ed6b5044)" d="M 183.178635 188.911464 
L 191.031582 181.987547 
L 203.841786 185.968896 
L 196.068846 192.969946 
z
" style="fill:#867113;"/>
    <path clip-path="url(#p88ed6b5044)" d="M 244.670417 180.154631 
L 245.289592 119.371386 
L 252.680885 112.997728 
L 251.851153 173.395697 
z
" style="fill:#d67642;"/>
    <path clip-path="url(#p88ed6b5044)" d="M 252.46229 128.909713 
L 265.744552 132.63481 
L 272.853222 126.208872 
L 259.658387 122.554599 
z
" style="fill:#a03b58;"/>
    <path clip-path="url(#p88ed6b5044)" d="M 270.961723 188.120663 
L 271.377003 170.413378 
L 278.444384 163.613404 
L 277.971253 181.211726 
z
" style="fill:#5e0094;"/>
    <path clip-path="url(#p88ed6b5044)" d="M 165.82912 174.154745 
L 163.891969 107.873078 
L 176.83063 111.523298 
L 178.361455 178.049733 
z
" style="fill:#684119;"/>
    <path clip-path="url(#p88ed6b5044)" d="M 264.839875 177.282368 
L 265.839562 127.945883 
L 279.302508 131.695116 
L 277.971253 181.211726 
z
" style="fill:#5c272b;"/>
    <path clip-path="url(#p88ed6b5044)" d="M 165.82912 174.154745 
L 178.361455 178.049733 
L 176.793508 109.910057 
L 163.845002 106.26607 
z
" style="fill:#de9031;"/>
    <path clip-path="url(#p88ed6b5044)" d="M 216.794403 189.994506 
L 224.338378 183.050047 
L 237.351973 187.043183 
L 229.891821 194.06512 
z
" style="fill:#827f15;"/>
    <path clip-path="url(#p88ed6b5044)" d="M 186.143392 171.330164 
L 184.498969 85.017625 
L 197.627877 88.558636 
L 198.736391 175.194243 
z
" style="fill:#64680e;"/>
    <path clip-path="url(#p88ed6b5044)" d="M 244.670417 180.154631 
L 251.851153 173.395697 
L 252.778759 105.873229 
L 245.362653 112.199143 
z
" style="fill:#694418;"/>
    <path clip-path="url(#p88ed6b5044)" d="M 218.949524 172.361429 
L 218.726124 89.294069 
L 232.048413 92.859089 
L 231.739835 176.23678 
z
" style="fill:#666110;"/>
    <path clip-path="url(#p88ed6b5044)" d="M 265.593587 140.085206 
L 278.974917 143.880004 
L 285.970194 137.33388 
L 272.678028 133.611368 
z
" style="fill:#8f2868;"/>
    <path clip-path="url(#p88ed6b5044)" d="M 157.822766 180.928173 
L 155.598898 114.2217 
L 163.891969 107.873078 
L 165.82912 174.154745 
z
" style="fill:#dd8a35;"/>
    <path clip-path="url(#p88ed6b5044)" d="M 211.467294 179.100638 
L 218.949524 172.361429 
L 218.741086 94.857304 
L 210.96454 101.096014 
z
" style="fill:#69560f;"/>
    <path clip-path="url(#p88ed6b5044)" d="M 257.743589 184.115686 
L 258.57619 134.46661 
L 265.839562 127.945883 
L 264.839875 177.282368 
z
" style="fill:#c2525b;"/>
    <path clip-path="url(#p88ed6b5044)" d="M 250.510457 191.080779 
L 257.743589 184.115686 
L 270.961723 188.120663 
L 263.816264 195.163579 
z
" style="fill:#7b3b30;"/>
    <path clip-path="url(#p88ed6b5044)" d="M 178.361455 178.049733 
L 176.362433 91.176452 
L 184.498969 85.017625 
L 186.143392 171.330164 
z
" style="fill:#d4dc1e;"/>
    <path clip-path="url(#p88ed6b5044)" d="M 231.739835 176.23678 
L 244.670417 180.154631 
L 245.362653 112.199143 
L 231.990409 108.5318 
z
" style="fill:#de8f32;"/>
    <path clip-path="url(#p88ed6b5044)" d="M 162.346885 191.878042 
L 170.430723 184.897786 
L 183.178635 188.911464 
L 175.173234 195.969799 
z
" style="fill:#86541f;"/>
    <path clip-path="url(#p88ed6b5044)" d="M 211.467294 179.100638 
L 210.928438 95.494651 
L 218.726124 89.294069 
L 218.949524 172.361429 
z
" style="fill:#d9ce22;"/>
    <path clip-path="url(#p88ed6b5044)" d="M 198.736391 175.194243 
L 211.467294 179.100638 
L 210.96454 101.096014 
L 197.742016 97.479177 
z
" style="fill:#dfb621;"/>
    <path clip-path="url(#p88ed6b5044)" d="M 196.068846 192.969946 
L 203.841786 185.968896 
L 216.794403 189.994506 
L 209.103753 197.073984 
z
" style="fill:#867213;"/>
    <path clip-path="url(#p88ed6b5044)" d="M 257.743589 184.115686 
L 264.839875 177.282368 
L 266.068195 116.662402 
L 258.766665 123.108348 
z
" style="fill:#65381f;"/>
    <path clip-path="url(#p88ed6b5044)" d="M 198.736391 175.194243 
L 197.695123 93.814218 
L 210.940826 97.416581 
L 211.467294 179.100638 
z
" style="fill:#685d0f;"/>
    <path clip-path="url(#p88ed6b5044)" d="M 284.327244 192.170297 
L 291.24765 185.184478 
L 291.84119 167.52336 
L 284.864579 174.39968 
z
" style="fill:#2c0046;"/>
    <path clip-path="url(#p88ed6b5044)" d="M 231.739835 176.23678 
L 232.022935 99.743225 
L 245.452529 103.3762 
L 244.670417 180.154631 
z
" style="fill:#695310;"/>
    <path clip-path="url(#p88ed6b5044)" d="M 229.891821 194.06512 
L 237.351973 187.043183 
L 250.510457 191.080779 
L 243.136481 198.181496 
z
" style="fill:#857313;"/>
    <path clip-path="url(#p88ed6b5044)" d="M 205.636366 94.990146 
L 218.75102 98.551336 
L 226.363765 92.408323 
L 213.332758 88.915321 
z
" style="fill:#c29121;"/>
    <path clip-path="url(#p88ed6b5044)" d="M 271.377003 170.413378 
L 284.864579 174.39968 
L 291.84119 167.52336 
L 278.444384 163.613404 
z
" style="fill:#520081;"/>
    <path clip-path="url(#p88ed6b5044)" d="M 244.670417 180.154631 
L 257.743589 184.115686 
L 258.766665 123.108348 
L 245.289592 119.371386 
z
" style="fill:#d67642;"/>
    <path clip-path="url(#p88ed6b5044)" d="M 191.031582 181.987547 
L 189.66352 100.079835 
L 197.695123 93.814218 
L 198.736391 175.194243 
z
" style="fill:#dbc520;"/>
    <path clip-path="url(#p88ed6b5044)" d="M 141.344465 194.868925 
L 149.662704 187.831639 
L 162.346885 191.878042 
L 154.105465 198.994368 
z
" style="fill:#743038;"/>
    <path clip-path="url(#p88ed6b5044)" d="M 270.961723 188.120663 
L 284.327244 192.170297 
L 284.864579 174.39968 
L 271.377003 170.413378 
z
" style="fill:#5e0094;"/>
    <path clip-path="url(#p88ed6b5044)" d="M 224.338378 183.050047 
L 224.338378 106.062062 
L 232.022935 99.743225 
L 231.739835 176.23678 
z
" style="fill:#dfb122;"/>
    <path clip-path="url(#p88ed6b5044)" d="M 170.430723 184.897786 
L 178.361455 178.049733 
L 176.83063 111.523298 
L 168.618103 117.944212 
z
" style="fill:#684119;"/>
    <path clip-path="url(#p88ed6b5044)" d="M 270.961723 188.120663 
L 277.971253 181.211726 
L 279.302508 131.695116 
L 272.130382 138.289808 
z
" style="fill:#5c272b;"/>
    <path clip-path="url(#p88ed6b5044)" d="M 263.816264 195.163579 
L 270.961723 188.120663 
L 284.327244 192.170297 
L 277.271882 199.292348 
z
" style="fill:#3d005a;"/>
    <path clip-path="url(#p88ed6b5044)" d="M 270.961723 188.120663 
L 271.414001 168.835806 
L 284.912454 172.81638 
L 284.327244 192.170297 
z
" style="fill:#300046;"/>
    <path clip-path="url(#p88ed6b5044)" d="M 157.822766 180.928173 
L 155.804798 120.397802 
L 168.785955 124.14423 
L 170.430723 184.897786 
z
" style="fill:#65371f;"/>
    <path clip-path="url(#p88ed6b5044)" d="M 178.361455 178.049733 
L 176.56168 99.835277 
L 189.720332 103.481209 
L 191.031582 181.987547 
z
" style="fill:#69570f;"/>
    <path clip-path="url(#p88ed6b5044)" d="M 191.031582 181.987547 
L 198.736391 175.194243 
L 197.627877 88.558636 
L 189.575133 94.787994 
z
" style="fill:#64680e;"/>
    <path clip-path="url(#p88ed6b5044)" d="M 175.173234 195.969799 
L 183.178635 188.911464 
L 196.068846 192.969946 
L 188.144156 200.107676 
z
" style="fill:#875a1c;"/>
    <path clip-path="url(#p88ed6b5044)" d="M 224.338378 183.050047 
L 231.739835 176.23678 
L 232.048413 92.859089 
L 224.338378 99.130673 
z
" style="fill:#666110;"/>
    <path clip-path="url(#p88ed6b5044)" d="M 157.822766 180.928173 
L 170.430723 184.897786 
L 168.618103 117.944212 
L 155.598898 114.2217 
z
" style="fill:#dd8a35;"/>
    <path clip-path="url(#p88ed6b5044)" d="M 257.743589 184.115686 
L 270.961723 188.120663 
L 272.130382 138.289808 
L 258.57619 134.46661 
z
" style="fill:#c2525b;"/>
    <path clip-path="url(#p88ed6b5044)" d="M 263.816264 195.163579 
L 264.202976 175.758894 
L 271.414001 168.835806 
L 270.961723 188.120663 
z
" style="fill:#650095;"/>
    <path clip-path="url(#p88ed6b5044)" d="M 149.662704 187.831639 
L 147.37476 126.913938 
L 155.804798 120.397802 
L 157.822766 180.928173 
z
" style="fill:#d67543;"/>
    <path clip-path="url(#p88ed6b5044)" d="M 209.103753 197.073984 
L 216.794403 189.994506 
L 229.891821 194.06512 
L 222.285805 201.224351 
z
" style="fill:#837c14;"/>
    <path clip-path="url(#p88ed6b5044)" d="M 170.430723 184.897786 
L 168.299525 106.176742 
L 176.56168 99.835277 
L 178.361455 178.049733 
z
" style="fill:#deb821;"/>
    <path clip-path="url(#p88ed6b5044)" d="M 244.670417 180.154631 
L 245.430775 105.511772 
L 258.999992 109.194769 
L 257.743589 184.115686 
z
" style="fill:#6a4f11;"/>
    <path clip-path="url(#p88ed6b5044)" d="M 178.361455 178.049733 
L 191.031582 181.987547 
L 189.575133 94.787994 
L 176.362433 91.176452 
z
" style="fill:#d4dc1e;"/>
    <path clip-path="url(#p88ed6b5044)" d="M 257.743589 184.115686 
L 258.662808 129.301519 
L 272.251978 133.105015 
L 270.961723 188.120663 
z
" style="fill:#602e26;"/>
    <path clip-path="url(#p88ed6b5044)" d="M 211.467294 179.100638 
L 224.338378 183.050047 
L 224.338378 99.130673 
L 210.928438 95.494651 
z
" style="fill:#d9ce22;"/>
    <path clip-path="url(#p88ed6b5044)" d="M 211.467294 179.100638 
L 210.920512 94.264908 
L 224.338378 97.896032 
L 224.338378 183.050047 
z
" style="fill:#656310;"/>
    <path clip-path="url(#p88ed6b5044)" d="M 218.754629 99.892937 
L 232.009033 103.499652 
L 239.530961 97.278235 
L 226.362469 93.740919 
z
" style="fill:#c28c23;"/>
    <path clip-path="url(#p88ed6b5044)" d="M 243.136481 198.181496 
L 250.510457 191.080779 
L 263.816264 195.163579 
L 256.530882 202.34441 
z
" style="fill:#793733;"/>
    <path clip-path="url(#p88ed6b5044)" d="M 163.845002 106.26607 
L 176.793508 109.910057 
L 184.853464 103.624357 
L 171.984954 100.05051 
z
" style="fill:#c17d2b;"/>
    <path clip-path="url(#p88ed6b5044)" d="M 237.351973 187.043183 
L 237.843486 111.917738 
L 245.430775 105.511772 
L 244.670417 180.154631 
z
" style="fill:#e0a825;"/>
    <path clip-path="url(#p88ed6b5044)" d="M 203.841786 185.968896 
L 211.467294 179.100638 
L 210.940826 97.416581 
L 202.995052 103.75418 
z
" style="fill:#685d0f;"/>
    <path clip-path="url(#p88ed6b5044)" d="M 154.105465 198.994368 
L 162.346885 191.878042 
L 175.173234 195.969799 
L 167.010898 203.166503 
z
" style="fill:#783634;"/>
    <path clip-path="url(#p88ed6b5044)" d="M 237.351973 187.043183 
L 244.670417 180.154631 
L 245.452529 103.3762 
L 237.857553 109.767566 
z
" style="fill:#695310;"/>
    <path clip-path="url(#p88ed6b5044)" d="M 184.649134 92.89949 
L 197.729125 96.471689 
L 205.594306 90.309845 
L 192.596749 86.806475 
z
" style="fill:#c1a21c;"/>
    <path clip-path="url(#p88ed6b5044)" d="M 250.510457 191.080779 
L 251.237777 135.916961 
L 258.662808 129.301519 
L 257.743589 184.115686 
z
" style="fill:#cc6250;"/>
    <path clip-path="url(#p88ed6b5044)" d="M 203.841786 185.968896 
L 202.962368 100.580742 
L 210.920512 94.264908 
L 211.467294 179.100638 
z
" style="fill:#d7d322;"/>
    <path clip-path="url(#p88ed6b5044)" d="M 191.031582 181.987547 
L 189.70484 102.553689 
L 203.020631 106.237853 
L 203.841786 185.968896 
z
" style="fill:#69580f;"/>
    <path clip-path="url(#p88ed6b5044)" d="M 188.144156 200.107676 
L 196.068846 192.969946 
L 209.103753 197.073984 
L 201.262108 204.292457 
z
" style="fill:#876815;"/>
    <path clip-path="url(#p88ed6b5044)" d="M 191.031582 181.987547 
L 203.841786 185.968896 
L 202.995052 103.75418 
L 189.66352 100.079835 
z
" style="fill:#dbc520;"/>
    <path clip-path="url(#p88ed6b5044)" d="M 149.662704 187.831639 
L 147.821953 138.820697 
L 160.810071 142.687506 
L 162.346885 191.878042 
z
" style="fill:#5b252c;"/>
    <path clip-path="url(#p88ed6b5044)" d="M 231.990409 108.5318 
L 245.362653 112.199143 
L 252.778759 105.873229 
L 239.494431 102.276675 
z
" style="fill:#c17c2b;"/>
    <path clip-path="url(#p88ed6b5044)" d="M 224.338378 183.050047 
L 237.351973 187.043183 
L 237.857553 109.767566 
L 224.338378 106.062062 
z
" style="fill:#dfb122;"/>
    <path clip-path="url(#p88ed6b5044)" d="M 170.430723 184.897786 
L 168.611578 117.703206 
L 181.781705 121.467497 
L 183.178635 188.911464 
z
" style="fill:#684219;"/>
    <path clip-path="url(#p88ed6b5044)" d="M 277.271882 199.292348 
L 284.327244 192.170297 
L 284.912454 172.81638 
L 277.793348 179.818021 
z
" style="fill:#300046;"/>
    <path clip-path="url(#p88ed6b5044)" d="M 162.346885 191.878042 
L 170.430723 184.897786 
L 168.785955 124.14423 
L 160.436652 130.735076 
z
" style="fill:#65371f;"/>
    <path clip-path="url(#p88ed6b5044)" d="M 222.285805 201.224351 
L 229.891821 194.06512 
L 243.136481 198.181496 
L 235.617509 205.421836 
z
" style="fill:#867113;"/>
    <path clip-path="url(#p88ed6b5044)" d="M 183.178635 188.911464 
L 191.031582 181.987547 
L 189.720332 103.481209 
L 181.542025 109.895715 
z
" style="fill:#69570f;"/>
    <path clip-path="url(#p88ed6b5044)" d="M 183.178635 188.911464 
L 181.522682 108.961819 
L 189.70484 102.553689 
L 191.031582 181.987547 
z
" style="fill:#debb20;"/>
    <path clip-path="url(#p88ed6b5044)" d="M 263.816264 195.163579 
L 264.115746 180.135945 
L 277.675718 184.210968 
L 277.271882 199.292348 
z
" style="fill:#270045;"/>
    <path clip-path="url(#p88ed6b5044)" d="M 141.344465 194.868925 
L 139.278348 145.546326 
L 147.821953 138.820697 
L 149.662704 187.831639 
z
" style="fill:#c04f5d;"/>
    <path clip-path="url(#p88ed6b5044)" d="M 224.338378 183.050047 
L 224.338378 98.110033 
L 237.909787 101.783944 
L 237.351973 187.043183 
z
" style="fill:#656310;"/>
    <path clip-path="url(#p88ed6b5044)" d="M 245.289592 119.371386 
L 258.766665 123.108348 
L 266.068195 116.662402 
L 252.680885 112.997728 
z
" style="fill:#ba6639;"/>
    <path clip-path="url(#p88ed6b5044)" d="M 258.57619 134.46661 
L 272.130382 138.289808 
L 279.302508 131.695116 
L 265.839562 127.945883 
z
" style="fill:#a9474f;"/>
    <path clip-path="url(#p88ed6b5044)" d="M 162.346885 191.878042 
L 160.234066 124.250656 
L 168.611578 117.703206 
L 170.430723 184.897786 
z
" style="fill:#dd8b34;"/>
    <path clip-path="url(#p88ed6b5044)" d="M 256.530882 202.34441 
L 263.816264 195.163579 
L 277.271882 199.292348 
L 270.077576 206.554656 
z
" style="fill:#320058;"/>
    <path clip-path="url(#p88ed6b5044)" d="M 263.816264 195.163579 
L 277.271882 199.292348 
L 277.793348 179.818021 
L 264.202976 175.758894 
z
" style="fill:#650095;"/>
    <path clip-path="url(#p88ed6b5044)" d="M 264.202976 175.758894 
L 277.793348 179.818021 
L 284.912454 172.81638 
L 271.414001 168.835806 
z
" style="fill:#580081;"/>
    <path clip-path="url(#p88ed6b5044)" d="M 149.662704 187.831639 
L 162.346885 191.878042 
L 160.436652 130.735076 
L 147.37476 126.913938 
z
" style="fill:#d67543;"/>
    <path clip-path="url(#p88ed6b5044)" d="M 170.430723 184.897786 
L 183.178635 188.911464 
L 181.542025 109.895715 
L 168.299525 106.176742 
z
" style="fill:#deb821;"/>
    <path clip-path="url(#p88ed6b5044)" d="M 250.510457 191.080779 
L 257.743589 184.115686 
L 258.999992 109.194769 
L 251.504667 115.674612 
z
" style="fill:#6a4f11;"/>
    <path clip-path="url(#p88ed6b5044)" d="M 197.742016 97.479177 
L 210.96454 101.096014 
L 218.741086 94.857304 
L 205.603299 91.310512 
z
" style="fill:#c19e1c;"/>
    <path clip-path="url(#p88ed6b5044)" d="M 256.530882 202.34441 
L 256.777506 187.223524 
L 264.115746 180.135945 
L 263.816264 195.163579 
z
" style="fill:#530193;"/>
    <path clip-path="url(#p88ed6b5044)" d="M 167.010898 203.166503 
L 175.173234 195.969799 
L 188.144156 200.107676 
L 180.063228 207.386128 
z
" style="fill:#7f422b;"/>
    <path clip-path="url(#p88ed6b5044)" d="M 263.816264 195.163579 
L 270.961723 188.120663 
L 272.251978 133.105015 
L 264.919664 139.796435 
z
" style="fill:#602e26;"/>
    <path clip-path="url(#p88ed6b5044)" d="M 216.794403 189.994506 
L 216.469666 104.500441 
L 224.338378 98.110033 
L 224.338378 183.050047 
z
" style="fill:#d7d322;"/>
    <path clip-path="url(#p88ed6b5044)" d="M 216.794403 189.994506 
L 224.338378 183.050047 
L 224.338378 97.896032 
L 216.468848 104.284956 
z
" style="fill:#656310;"/>
    <path clip-path="url(#p88ed6b5044)" d="M 203.841786 185.968896 
L 203.014722 105.664134 
L 216.488233 109.388627 
L 216.794403 189.994506 
z
" style="fill:#68590f;"/>
    <path clip-path="url(#p88ed6b5044)" d="M 201.262108 204.292457 
L 209.103753 197.073984 
L 222.285805 201.224351 
L 214.529606 208.524945 
z
" style="fill:#867113;"/>
    <path clip-path="url(#p88ed6b5044)" d="M 237.351973 187.043183 
L 250.510457 191.080779 
L 251.504667 115.674612 
L 237.843486 111.917738 
z
" style="fill:#e0a825;"/>
    <path clip-path="url(#p88ed6b5044)" d="M 250.510457 191.080779 
L 251.211395 137.91792 
L 264.879635 141.805071 
L 263.816264 195.163579 
z
" style="fill:#5f2b28;"/>
    <path clip-path="url(#p88ed6b5044)" d="M 250.510457 191.080779 
L 263.816264 195.163579 
L 264.919664 139.796435 
L 251.237777 135.916961 
z
" style="fill:#cc6250;"/>
    <path clip-path="url(#p88ed6b5044)" d="M 155.598898 114.2217 
L 168.618103 117.944212 
L 176.83063 111.523298 
L 163.891969 107.873078 
z
" style="fill:#c0782e;"/>
    <path clip-path="url(#p88ed6b5044)" d="M 203.841786 185.968896 
L 216.794403 189.994506 
L 216.468848 104.284956 
L 202.962368 100.580742 
z
" style="fill:#d7d322;"/>
    <path clip-path="url(#p88ed6b5044)" d="M 162.346885 191.878042 
L 160.707385 139.400713 
L 173.865474 143.299392 
L 175.173234 195.969799 
z
" style="fill:#5e2a28;"/>
    <path clip-path="url(#p88ed6b5044)" d="M 183.178635 188.911464 
L 181.722381 118.603333 
L 195.062874 122.399862 
L 196.068846 192.969946 
z
" style="fill:#694716;"/>
    <path clip-path="url(#p88ed6b5044)" d="M 237.351973 187.043183 
L 237.88108 106.171604 
L 251.580728 109.9057 
L 250.510457 191.080779 
z
" style="fill:#685a0f;"/>
    <path clip-path="url(#p88ed6b5044)" d="M 235.617509 205.421836 
L 243.136481 198.181496 
L 256.530882 202.34441 
L 249.101427 209.667246 
z
" style="fill:#682144;"/>
    <path clip-path="url(#p88ed6b5044)" d="M 196.068846 192.969946 
L 203.841786 185.968896 
L 203.020631 106.237853 
L 194.924892 112.720252 
z
" style="fill:#69580f;"/>
    <path clip-path="url(#p88ed6b5044)" d="M 196.068846 192.969946 
L 194.916657 112.142576 
L 203.014722 105.664134 
L 203.841786 185.968896 
z
" style="fill:#ddbe20;"/>
    <path clip-path="url(#p88ed6b5044)" d="M 243.136481 198.181496 
L 243.644964 144.679117 
L 251.211395 137.91792 
L 250.510457 191.080779 
z
" style="fill:#c95c54;"/>
    <path clip-path="url(#p88ed6b5044)" d="M 154.105465 198.994368 
L 162.346885 191.878042 
L 160.810071 142.687506 
L 152.346946 149.490562 
z
" style="fill:#5b252c;"/>
    <path clip-path="url(#p88ed6b5044)" d="M 175.173234 195.969799 
L 183.178635 188.911464 
L 181.781705 121.467497 
L 173.487855 128.090689 
z
" style="fill:#684219;"/>
    <path clip-path="url(#p88ed6b5044)" d="M 154.105465 198.994368 
L 152.229415 146.181984 
L 160.707385 139.400713 
L 162.346885 191.878042 
z
" style="fill:#c75956;"/>
    <path clip-path="url(#p88ed6b5044)" d="M 256.530882 202.34441 
L 256.612635 197.331986 
L 270.194393 201.524417 
L 270.077576 206.554656 
z
" style="fill:#11023d;"/>
    <path clip-path="url(#p88ed6b5044)" d="M 175.173234 195.969799 
L 173.416257 125.207056 
L 181.722381 118.603333 
L 183.178635 188.911464 
z
" style="fill:#df962e;"/>
    <path clip-path="url(#p88ed6b5044)" d="M 229.891821 194.06512 
L 230.119889 112.6668 
L 237.88108 106.171604 
L 237.351973 187.043183 
z
" style="fill:#ddbf20;"/>
    <path clip-path="url(#p88ed6b5044)" d="M 183.178635 188.911464 
L 196.068846 192.969946 
L 194.924892 112.720252 
L 181.522682 108.961819 
z
" style="fill:#debb20;"/>
    <path clip-path="url(#p88ed6b5044)" d="M 270.077576 206.554656 
L 277.271882 199.292348 
L 277.675718 184.210968 
L 270.429988 191.379586 
z
" style="fill:#270045;"/>
    <path clip-path="url(#p88ed6b5044)" d="M 180.063228 207.386128 
L 188.144156 200.107676 
L 201.262108 204.292457 
L 193.264978 211.654059 
z
" style="fill:#844d24;"/>
    <path clip-path="url(#p88ed6b5044)" d="M 141.344465 194.868925 
L 154.105465 198.994368 
L 152.346946 149.490562 
L 139.278348 145.546326 
z
" style="fill:#c04f5d;"/>
    <path clip-path="url(#p88ed6b5044)" d="M 229.891821 194.06512 
L 237.351973 187.043183 
L 237.909787 101.783944 
L 230.132268 108.248728 
z
" style="fill:#656310;"/>
    <path clip-path="url(#p88ed6b5044)" d="M 162.346885 191.878042 
L 175.173234 195.969799 
L 173.487855 128.090689 
L 160.234066 124.250656 
z
" style="fill:#dd8b34;"/>
    <path clip-path="url(#p88ed6b5044)" d="M 256.777506 187.223524 
L 270.429988 191.379586 
L 277.675718 184.210968 
L 264.115746 180.135945 
z
" style="fill:#48017f;"/>
    <path clip-path="url(#p88ed6b5044)" d="M 249.101427 209.667246 
L 249.164937 204.623914 
L 256.612635 197.331986 
L 256.530882 202.34441 
z
" style="fill:#250582;"/>
    <path clip-path="url(#p88ed6b5044)" d="M 214.529606 208.524945 
L 222.285805 201.224351 
L 235.617509 205.421836 
L 227.94922 212.80596 
z
" style="fill:#80432b;"/>
    <path clip-path="url(#p88ed6b5044)" d="M 256.530882 202.34441 
L 270.077576 206.554656 
L 270.429988 191.379586 
L 256.777506 187.223524 
z
" style="fill:#530193;"/>
    <path clip-path="url(#p88ed6b5044)" d="M 210.928438 95.494651 
L 224.338378 99.130673 
L 232.048413 92.859089 
L 218.726124 89.294069 
z
" style="fill:#bcb31d;"/>
    <path clip-path="url(#p88ed6b5044)" d="M 216.794403 189.994506 
L 216.473383 105.47911 
L 230.129515 109.23132 
L 229.891821 194.06512 
z
" style="fill:#666110;"/>
    <path clip-path="url(#p88ed6b5044)" d="M 176.362433 91.176452 
L 189.575133 94.787994 
L 197.627877 88.558636 
L 184.498969 85.017625 
z
" style="fill:#b8bf1a;"/>
    <path clip-path="url(#p88ed6b5044)" d="M 216.794403 189.994506 
L 229.891821 194.06512 
L 230.132268 108.248728 
L 216.469666 104.500441 
z
" style="fill:#d7d322;"/>
    <path clip-path="url(#p88ed6b5044)" d="M 243.136481 198.181496 
L 243.522532 157.561428 
L 257.195823 161.575966 
L 256.530882 202.34441 
z
" style="fill:#511a35;"/>
    <path clip-path="url(#p88ed6b5044)" d="M 249.101427 209.667246 
L 256.530882 202.34441 
L 270.077576 206.554656 
L 262.740181 213.961405 
z
" style="fill:#16034f;"/>
    <path clip-path="url(#p88ed6b5044)" d="M 209.103753 197.073984 
L 216.794403 189.994506 
L 216.488233 109.388627 
L 208.479203 115.942611 
z
" style="fill:#68590f;"/>
    <path clip-path="url(#p88ed6b5044)" d="M 147.37476 126.913938 
L 160.436652 130.735076 
L 168.785955 124.14423 
L 155.804798 120.397802 
z
" style="fill:#ba653a;"/>
    <path clip-path="url(#p88ed6b5044)" d="M 256.530882 202.34441 
L 263.816264 195.163579 
L 264.879635 141.805071 
L 257.406736 148.644622 
z
" style="fill:#5f2b28;"/>
    <path clip-path="url(#p88ed6b5044)" d="M 175.173234 195.969799 
L 173.701231 136.684454 
L 187.054211 140.602758 
L 188.144156 200.107676 
z
" style="fill:#633422;"/>
    <path clip-path="url(#p88ed6b5044)" d="M 209.103753 197.073984 
L 208.448899 112.005979 
L 216.473383 105.47911 
L 216.794403 189.994506 
z
" style="fill:#d9ce22;"/>
    <path clip-path="url(#p88ed6b5044)" d="M 196.068846 192.969946 
L 194.979301 116.537085 
L 208.513167 120.354603 
L 209.103753 197.073984 
z
" style="fill:#6a5111;"/>
    <path clip-path="url(#p88ed6b5044)" d="M 224.338378 106.062062 
L 237.857553 109.767566 
L 245.452529 103.3762 
L 232.022935 99.743225 
z
" style="fill:#c2991e;"/>
    <path clip-path="url(#p88ed6b5044)" d="M 167.010898 203.166503 
L 175.173234 195.969799 
L 173.865474 143.299392 
L 165.470677 150.159312 
z
" style="fill:#5e2a28;"/>
    <path clip-path="url(#p88ed6b5044)" d="M 235.617509 205.421836 
L 235.851469 164.544306 
L 243.522532 157.561428 
L 243.136481 198.181496 
z
" style="fill:#ac3671;"/>
    <path clip-path="url(#p88ed6b5044)" d="M 188.144156 200.107676 
L 196.068846 192.969946 
L 195.062874 122.399862 
L 186.843159 129.080531 
z
" style="fill:#694716;"/>
    <path clip-path="url(#p88ed6b5044)" d="M 243.136481 198.181496 
L 250.510457 191.080779 
L 251.580728 109.9057 
L 243.912998 116.47677 
z
" style="fill:#685a0f;"/>
    <path clip-path="url(#p88ed6b5044)" d="M 251.237777 135.916961 
L 264.919664 139.796435 
L 272.251978 133.105015 
L 258.662808 129.301519 
z
" style="fill:#b15545;"/>
    <path clip-path="url(#p88ed6b5044)" d="M 196.068846 192.969946 
L 209.103753 197.073984 
L 208.479203 115.942611 
L 194.916657 112.142576 
z
" style="fill:#ddbe20;"/>
    <path clip-path="url(#p88ed6b5044)" d="M 189.66352 100.079835 
L 202.995052 103.75418 
L 210.940826 97.416581 
L 197.695123 93.814218 
z
" style="fill:#bfab1c;"/>
    <path clip-path="url(#p88ed6b5044)" d="M 249.164937 204.623914 
L 262.839237 208.900119 
L 270.194393 201.524417 
L 256.612635 197.331986 
z
" style="fill:#200471;"/>
    <path clip-path="url(#p88ed6b5044)" d="M 193.264978 211.654059 
L 201.262108 204.292457 
L 214.529606 208.524945 
L 206.61873 215.971129 
z
" style="fill:#7f422b;"/>
    <path clip-path="url(#p88ed6b5044)" d="M 243.136481 198.181496 
L 256.530882 202.34441 
L 257.406736 148.644622 
L 243.644964 144.679117 
z
" style="fill:#c95c54;"/>
    <path clip-path="url(#p88ed6b5044)" d="M 235.617509 205.421836 
L 235.706606 189.85475 
L 249.298163 194.044314 
L 249.101427 209.667246 
z
" style="fill:#280045;"/>
    <path clip-path="url(#p88ed6b5044)" d="M 167.010898 203.166503 
L 165.277182 143.500122 
L 173.701231 136.684454 
L 175.173234 195.969799 
z
" style="fill:#d36e47;"/>
    <path clip-path="url(#p88ed6b5044)" d="M 188.144156 200.107676 
L 186.735035 123.177562 
L 194.979301 116.537085 
L 196.068846 192.969946 
z
" style="fill:#e0ac23;"/>
    <path clip-path="url(#p88ed6b5044)" d="M 154.105465 198.994368 
L 167.010898 203.166503 
L 165.470677 150.159312 
L 152.229415 146.181984 
z
" style="fill:#c75956;"/>
    <path clip-path="url(#p88ed6b5044)" d="M 229.891821 194.06512 
L 230.11606 114.033303 
L 243.899959 117.848729 
L 243.136481 198.181496 
z
" style="fill:#69580f;"/>
    <path clip-path="url(#p88ed6b5044)" d="M 262.740181 213.961405 
L 270.077576 206.554656 
L 270.194393 201.524417 
L 262.839237 208.900119 
z
" style="fill:#11023d;"/>
    <path clip-path="url(#p88ed6b5044)" d="M 175.173234 195.969799 
L 188.144156 200.107676 
L 186.843159 129.080531 
L 173.416257 125.207056 
z
" style="fill:#df962e;"/>
    <path clip-path="url(#p88ed6b5044)" d="M 229.891821 194.06512 
L 243.136481 198.181496 
L 243.912998 116.47677 
L 230.119889 112.6668 
z
" style="fill:#ddbf20;"/>
    <path clip-path="url(#p88ed6b5044)" d="M 227.94922 212.80596 
L 235.617509 205.421836 
L 249.101427 209.667246 
L 241.523583 217.136342 
z
" style="fill:#330059;"/>
    <path clip-path="url(#p88ed6b5044)" d="M 139.278348 145.546326 
L 152.346946 149.490562 
L 160.810071 142.687506 
L 147.821953 138.820697 
z
" style="fill:#a74551;"/>
    <path clip-path="url(#p88ed6b5044)" d="M 168.299525 106.176742 
L 181.542025 109.895715 
L 189.720332 103.481209 
L 176.56168 99.835277 
z
" style="fill:#c1a01c;"/>
    <path clip-path="url(#p88ed6b5044)" d="M 249.101427 209.667246 
L 249.117637 208.379961 
L 262.765464 212.669552 
L 262.740181 213.961405 
z
" style="fill:#070339;"/>
    <path clip-path="url(#p88ed6b5044)" d="M 227.94922 212.80596 
L 227.978029 197.141983 
L 235.706606 189.85475 
L 235.617509 205.421836 
z
" style="fill:#540193;"/>
    <path clip-path="url(#p88ed6b5044)" d="M 222.285805 201.224351 
L 222.202082 120.670234 
L 230.11606 114.033303 
L 229.891821 194.06512 
z
" style="fill:#debb20;"/>
    <path clip-path="url(#p88ed6b5044)" d="M 249.101427 209.667246 
L 262.740181 213.961405 
L 262.839237 208.900119 
L 249.164937 204.623914 
z
" style="fill:#250582;"/>
    <path clip-path="url(#p88ed6b5044)" d="M 237.843486 111.917738 
L 251.504667 115.674612 
L 258.999992 109.194769 
L 245.430775 105.511772 
z
" style="fill:#c29220;"/>
    <path clip-path="url(#p88ed6b5044)" d="M 222.285805 201.224351 
L 229.891821 194.06512 
L 230.129515 109.23132 
L 222.197057 115.834889 
z
" style="fill:#666110;"/>
    <path clip-path="url(#p88ed6b5044)" d="M 241.523583 217.136342 
L 241.534945 215.841131 
L 249.117637 208.379961 
L 249.101427 209.667246 
z
" style="fill:#0e0678;"/>
    <path clip-path="url(#p88ed6b5044)" d="M 249.101427 209.667246 
L 256.530882 202.34441 
L 257.195823 161.575966 
L 249.618074 168.640063 
z
" style="fill:#511a35;"/>
    <path clip-path="url(#p88ed6b5044)" d="M 209.103753 197.073984 
L 208.485032 116.6998 
L 222.201955 120.547528 
L 222.285805 201.224351 
z
" style="fill:#69580f;"/>
    <path clip-path="url(#p88ed6b5044)" d="M 206.61873 215.971129 
L 214.529606 208.524945 
L 227.94922 212.80596 
L 220.127123 220.338193 
z
" style="fill:#480459;"/>
    <path clip-path="url(#p88ed6b5044)" d="M 188.144156 200.107676 
L 186.952245 135.035993 
L 200.497735 138.978367 
L 201.262108 204.292457 
z
" style="fill:#673d1c;"/>
    <path clip-path="url(#p88ed6b5044)" d="M 222.285805 201.224351 
L 222.223394 141.175436 
L 235.962472 145.150016 
L 235.617509 205.421836 
z
" style="fill:#643421;"/>
    <path clip-path="url(#p88ed6b5044)" d="M 180.063228 207.386128 
L 188.144156 200.107676 
L 187.054211 140.602758 
L 178.716392 147.498197 
z
" style="fill:#633422;"/>
    <path clip-path="url(#p88ed6b5044)" d="M 209.103753 197.073984 
L 222.285805 201.224351 
L 222.197057 115.834889 
L 208.448899 112.005979 
z
" style="fill:#d9ce22;"/>
    <path clip-path="url(#p88ed6b5044)" d="M 201.262108 204.292457 
L 209.103753 197.073984 
L 208.513167 120.354603 
L 200.358407 127.073133 
z
" style="fill:#6a5111;"/>
    <path clip-path="url(#p88ed6b5044)" d="M 160.234066 124.250656 
L 173.487855 128.090689 
L 181.781705 121.467497 
L 168.611578 117.703206 
z
" style="fill:#c0792d;"/>
    <path clip-path="url(#p88ed6b5044)" d="M 235.617509 205.421836 
L 249.101427 209.667246 
L 249.618074 168.640063 
L 235.851469 164.544306 
z
" style="fill:#ac3671;"/>
    <path clip-path="url(#p88ed6b5044)" d="M 214.529606 208.524945 
L 214.408311 184.193838 
L 227.994131 188.386882 
L 227.94922 212.80596 
z
" style="fill:#380345;"/>
    <path clip-path="url(#p88ed6b5044)" d="M 202.962368 100.580742 
L 216.468848 104.284956 
L 224.338378 97.896032 
L 210.920512 94.264908 
z
" style="fill:#bbb71e;"/>
    <path clip-path="url(#p88ed6b5044)" d="M 241.523583 217.136342 
L 249.101427 209.667246 
L 262.740181 213.961405 
L 255.255385 221.516949 
z
" style="fill:#090449;"/>
    <path clip-path="url(#p88ed6b5044)" d="M 227.94922 212.80596 
L 227.956397 208.903837 
L 241.557936 213.220332 
L 241.523583 217.136342 
z
" style="fill:#0f023c;"/>
    <path clip-path="url(#p88ed6b5044)" d="M 201.262108 204.292457 
L 200.315339 123.393046 
L 208.485032 116.6998 
L 209.103753 197.073984 
z
" style="fill:#debb20;"/>
    <path clip-path="url(#p88ed6b5044)" d="M 180.063228 207.386128 
L 178.590353 141.893781 
L 186.952245 135.035993 
L 188.144156 200.107676 
z
" style="fill:#da803b;"/>
    <path clip-path="url(#p88ed6b5044)" d="M 241.534945 215.841131 
L 255.275945 220.217135 
L 262.765464 212.669552 
L 249.117637 208.379961 
z
" style="fill:#0c0668;"/>
    <path clip-path="url(#p88ed6b5044)" d="M 214.529606 208.524945 
L 214.228323 148.089218 
L 222.223394 141.175436 
L 222.285805 201.224351 
z
" style="fill:#d36f46;"/>
    <path clip-path="url(#p88ed6b5044)" d="M 241.523583 217.136342 
L 249.101427 209.667246 
L 249.298163 194.044314 
L 241.661489 201.416076 
z
" style="fill:#280045;"/>
    <path clip-path="url(#p88ed6b5044)" d="M 243.644964 144.679117 
L 257.406736 148.644622 
L 264.879635 141.805071 
L 251.211395 137.91792 
z
" style="fill:#ae4f49;"/>
    <path clip-path="url(#p88ed6b5044)" d="M 167.010898 203.166503 
L 180.063228 207.386128 
L 178.716392 147.498197 
L 165.277182 143.500122 
z
" style="fill:#d36e47;"/>
    <path clip-path="url(#p88ed6b5044)" d="M 181.522682 108.961819 
L 194.924892 112.720252 
L 203.020631 106.237853 
L 189.70484 102.553689 
z
" style="fill:#c1a21c;"/>
    <path clip-path="url(#p88ed6b5044)" d="M 188.144156 200.107676 
L 201.262108 204.292457 
L 200.358407 127.073133 
L 186.735035 123.177562 
z
" style="fill:#e0ac23;"/>
    <path clip-path="url(#p88ed6b5044)" d="M 235.617509 205.421836 
L 243.136481 198.181496 
L 243.899959 117.848729 
L 236.080295 124.563931 
z
" style="fill:#69580f;"/>
    <path clip-path="url(#p88ed6b5044)" d="M 206.61873 215.971129 
L 206.397397 191.487392 
L 214.408311 184.193838 
L 214.529606 208.524945 
z
" style="fill:#770693;"/>
    <path clip-path="url(#p88ed6b5044)" d="M 152.229415 146.181984 
L 165.470677 150.159312 
L 173.865474 143.299392 
L 160.707385 139.400713 
z
" style="fill:#ad4e4a;"/>
    <path clip-path="url(#p88ed6b5044)" d="M 227.978029 197.141983 
L 241.661489 201.416076 
L 249.298163 194.044314 
L 235.706606 189.85475 
z
" style="fill:#49007f;"/>
    <path clip-path="url(#p88ed6b5044)" d="M 220.127123 220.338193 
L 220.118668 216.411979 
L 227.956397 208.903837 
L 227.94922 212.80596 
z
" style="fill:#200580;"/>
    <path clip-path="url(#p88ed6b5044)" d="M 201.262108 204.292457 
L 200.562494 144.511936 
L 214.230482 148.522355 
L 214.529606 208.524945 
z
" style="fill:#633422;"/>
    <path clip-path="url(#p88ed6b5044)" d="M 227.94922 212.80596 
L 241.523583 217.136342 
L 241.661489 201.416076 
L 227.978029 197.141983 
z
" style="fill:#540193;"/>
    <path clip-path="url(#p88ed6b5044)" d="M 255.255385 221.516949 
L 262.740181 213.961405 
L 262.765464 212.669552 
L 255.275945 220.217135 
z
" style="fill:#070339;"/>
    <path clip-path="url(#p88ed6b5044)" d="M 222.285805 201.224351 
L 235.617509 205.421836 
L 236.080295 124.563931 
L 222.202082 120.670234 
z
" style="fill:#debb20;"/>
    <path clip-path="url(#p88ed6b5044)" d="M 220.127123 220.338193 
L 227.94922 212.80596 
L 241.523583 217.136342 
L 233.792858 224.756123 
z
" style="fill:#13034d;"/>
    <path clip-path="url(#p88ed6b5044)" d="M 235.851469 164.544306 
L 249.618074 168.640063 
L 257.195823 161.575966 
L 243.522532 157.561428 
z
" style="fill:#952f62;"/>
    <path clip-path="url(#p88ed6b5044)" d="M 193.264978 211.654059 
L 192.313286 151.488183 
L 200.562494 144.511936 
L 201.262108 204.292457 
z
" style="fill:#d36e47;"/>
    <path clip-path="url(#p88ed6b5044)" d="M 241.523583 217.136342 
L 241.530474 216.350809 
L 255.267855 220.728626 
L 255.255385 221.516949 
z
" style="fill:#050338;"/>
    <path clip-path="url(#p88ed6b5044)" d="M 241.523583 217.136342 
L 255.255385 221.516949 
L 255.275945 220.217135 
L 241.534945 215.841131 
z
" style="fill:#0e0678;"/>
    <path clip-path="url(#p88ed6b5044)" d="M 216.469666 104.500441 
L 230.132268 108.248728 
L 237.909787 101.783944 
L 224.338378 98.110033 
z
" style="fill:#bbb71e;"/>
    <path clip-path="url(#p88ed6b5044)" d="M 214.529606 208.524945 
L 222.285805 201.224351 
L 222.201955 120.547528 
L 214.124785 127.320055 
z
" style="fill:#69580f;"/>
    <path clip-path="url(#p88ed6b5044)" d="M 220.118668 216.411979 
L 233.811949 220.815918 
L 241.557936 213.220332 
L 227.956397 208.903837 
z
" style="fill:#1b046f;"/>
    <path clip-path="url(#p88ed6b5044)" d="M 193.264978 211.654059 
L 201.262108 204.292457 
L 200.497735 138.978367 
L 192.225164 145.917114 
z
" style="fill:#673d1c;"/>
    <path clip-path="url(#p88ed6b5044)" d="M 227.94922 212.80596 
L 235.617509 205.421836 
L 235.962472 145.150016 
L 228.060785 152.145341 
z
" style="fill:#643421;"/>
    <path clip-path="url(#p88ed6b5044)" d="M 173.416257 125.207056 
L 186.843159 129.080531 
L 195.062874 122.399862 
L 181.722381 118.603333 
z
" style="fill:#c28228;"/>
    <path clip-path="url(#p88ed6b5044)" d="M 233.792858 224.756123 
L 233.796688 223.96575 
L 241.530474 216.350809 
L 241.523583 217.136342 
z
" style="fill:#0b0777;"/>
    <path clip-path="url(#p88ed6b5044)" d="M 194.916657 112.142576 
L 208.479203 115.942611 
L 216.488233 109.388627 
L 203.014722 105.664134 
z
" style="fill:#c0a51c;"/>
    <path clip-path="url(#p88ed6b5044)" d="M 220.127123 220.338193 
L 227.94922 212.80596 
L 227.994131 188.386882 
L 220.074212 195.765777 
z
" style="fill:#380345;"/>
    <path clip-path="url(#p88ed6b5044)" d="M 233.792858 224.756123 
L 241.523583 217.136342 
L 241.557936 213.220332 
L 233.811949 220.815918 
z
" style="fill:#0f023c;"/>
    <path clip-path="url(#p88ed6b5044)" d="M 201.262108 204.292457 
L 214.529606 208.524945 
L 214.124785 127.320055 
L 200.315339 123.393046 
z
" style="fill:#debb20;"/>
    <path clip-path="url(#p88ed6b5044)" d="M 180.063228 207.386128 
L 193.264978 211.654059 
L 192.225164 145.917114 
L 178.590353 141.893781 
z
" style="fill:#da803b;"/>
    <path clip-path="url(#p88ed6b5044)" d="M 214.529606 208.524945 
L 227.94922 212.80596 
L 228.060785 152.145341 
L 214.228323 148.089218 
z
" style="fill:#d36f46;"/>
    <path clip-path="url(#p88ed6b5044)" d="M 230.119889 112.6668 
L 243.912998 116.47677 
L 251.580728 109.9057 
L 237.88108 106.171604 
z
" style="fill:#c0a61c;"/>
    <path clip-path="url(#p88ed6b5044)" d="M 206.61873 215.971129 
L 220.127123 220.338193 
L 220.074212 195.765777 
L 206.397397 191.487392 
z
" style="fill:#770693;"/>
    <path clip-path="url(#p88ed6b5044)" d="M 233.792858 224.756123 
L 241.523583 217.136342 
L 255.255385 221.516949 
L 247.618703 229.225814 
z
" style="fill:#070448;"/>
    <path clip-path="url(#p88ed6b5044)" d="M 220.127123 220.338193 
L 233.792858 224.756123 
L 233.811949 220.815918 
L 220.118668 216.411979 
z
" style="fill:#200580;"/>
    <path clip-path="url(#p88ed6b5044)" d="M 233.796688 223.96575 
L 247.628187 228.43263 
L 255.267855 220.728626 
L 241.530474 216.350809 
z
" style="fill:#0a0667;"/>
    <path clip-path="url(#p88ed6b5044)" d="M 206.61873 215.971129 
L 214.529606 208.524945 
L 214.230482 148.522355 
L 206.072805 155.581221 
z
" style="fill:#633422;"/>
    <path clip-path="url(#p88ed6b5044)" d="M 206.397397 191.487392 
L 220.074212 195.765777 
L 227.994131 188.386882 
L 214.408311 184.193838 
z
" style="fill:#67057f;"/>
    <path clip-path="url(#p88ed6b5044)" d="M 165.277182 143.500122 
L 178.716392 147.498197 
L 187.054211 140.602758 
L 173.701231 136.684454 
z
" style="fill:#b75f3e;"/>
    <path clip-path="url(#p88ed6b5044)" d="M 193.264978 211.654059 
L 206.61873 215.971129 
L 206.072805 155.581221 
L 192.313286 151.488183 
z
" style="fill:#d36e47;"/>
    <path clip-path="url(#p88ed6b5044)" d="M 247.618703 229.225814 
L 255.255385 221.516949 
L 255.267855 220.728626 
L 247.628187 228.43263 
z
" style="fill:#050338;"/>
    <path clip-path="url(#p88ed6b5044)" d="M 208.448899 112.005979 
L 222.197057 115.834889 
L 230.129515 109.23132 
L 216.473383 105.47911 
z
" style="fill:#bcb31d;"/>
    <path clip-path="url(#p88ed6b5044)" d="M 233.792858 224.756123 
L 247.618703 229.225814 
L 247.628187 228.43263 
L 233.796688 223.96575 
z
" style="fill:#0b0777;"/>
    <path clip-path="url(#p88ed6b5044)" d="M 186.735035 123.177562 
L 200.358407 127.073133 
L 208.513167 120.354603 
L 194.979301 116.537085 
z
" style="fill:#c2961f;"/>
    <path clip-path="url(#p88ed6b5044)" d="M 222.202082 120.670234 
L 236.080295 124.563931 
L 243.899959 117.848729 
L 230.11606 114.033303 
z
" style="fill:#c1a21c;"/>
    <path clip-path="url(#p88ed6b5044)" d="M 214.228323 148.089218 
L 228.060785 152.145341 
L 235.962472 145.150016 
L 222.223394 141.175436 
z
" style="fill:#b7603d;"/>
    <path clip-path="url(#p88ed6b5044)" d="M 178.590353 141.893781 
L 192.225164 145.917114 
L 200.497735 138.978367 
L 186.952245 135.035993 
z
" style="fill:#bd6f33;"/>
    <path clip-path="url(#p88ed6b5044)" d="M 192.313286 151.488183 
L 206.072805 155.581221 
L 214.230482 148.522355 
L 200.562494 144.511936 
z
" style="fill:#b75f3e;"/>
    <path clip-path="url(#p88ed6b5044)" d="M 200.315339 123.393046 
L 214.124785 127.320055 
L 222.201955 120.547528 
L 208.485032 116.6998 
z
" style="fill:#c1a21c;"/>
   </g>
   <g id="text_17">
    <!-- W30__H40__A060_bars_extracted.txt -->
    <g transform="translate(110.101875 28.56)scale(0.12 -0.12)">
     <defs>
      <path d="M 3.328125 72.90625 
L 13.28125 72.90625 
L 28.609375 11.28125 
L 43.890625 72.90625 
L 54.984375 72.90625 
L 70.3125 11.28125 
L 85.59375 72.90625 
L 95.609375 72.90625 
L 77.296875 0 
L 64.890625 0 
L 49.515625 63.28125 
L 33.984375 0 
L 21.578125 0 
z
" id="DejaVuSans-87"/>
      <path d="M 40.578125 39.3125 
Q 47.65625 37.796875 51.625 33 
Q 55.609375 28.21875 55.609375 21.1875 
Q 55.609375 10.40625 48.1875 4.484375 
Q 40.765625 -1.421875 27.09375 -1.421875 
Q 22.515625 -1.421875 17.65625 -0.515625 
Q 12.796875 0.390625 7.625 2.203125 
L 7.625 11.71875 
Q 11.71875 9.328125 16.59375 8.109375 
Q 21.484375 6.890625 26.8125 6.890625 
Q 36.078125 6.890625 40.9375 10.546875 
Q 45.796875 14.203125 45.796875 21.1875 
Q 45.796875 27.640625 41.28125 31.265625 
Q 36.765625 34.90625 28.71875 34.90625 
L 20.21875 34.90625 
L 20.21875 43.015625 
L 29.109375 43.015625 
Q 36.375 43.015625 40.234375 45.921875 
Q 44.09375 48.828125 44.09375 54.296875 
Q 44.09375 59.90625 40.109375 62.90625 
Q 36.140625 65.921875 28.71875 65.921875 
Q 24.65625 65.921875 20.015625 65.03125 
Q 15.375 64.15625 9.8125 62.3125 
L 9.8125 71.09375 
Q 15.4375 72.65625 20.34375 73.4375 
Q 25.25 74.21875 29.59375 74.21875 
Q 40.828125 74.21875 47.359375 69.109375 
Q 53.90625 64.015625 53.90625 55.328125 
Q 53.90625 49.265625 50.4375 45.09375 
Q 46.96875 40.921875 40.578125 39.3125 
z
" id="DejaVuSans-51"/>
      <path d="M 50.984375 -16.609375 
L 50.984375 -23.578125 
L -0.984375 -23.578125 
L -0.984375 -16.609375 
z
" id="DejaVuSans-95"/>
      <path d="M 9.8125 72.90625 
L 19.671875 72.90625 
L 19.671875 43.015625 
L 55.515625 43.015625 
L 55.515625 72.90625 
L 65.375 72.90625 
L 65.375 0 
L 55.515625 0 
L 55.515625 34.71875 
L 19.671875 34.71875 
L 19.671875 0 
L 9.8125 0 
z
" id="DejaVuSans-72"/>
      <path d="M 34.1875 63.1875 
L 20.796875 26.90625 
L 47.609375 26.90625 
z
M 28.609375 72.90625 
L 39.796875 72.90625 
L 67.578125 0 
L 57.328125 0 
L 50.6875 18.703125 
L 17.828125 18.703125 
L 11.1875 0 
L 0.78125 0 
z
" id="DejaVuSans-65"/>
      <path d="M 48.6875 27.296875 
Q 48.6875 37.203125 44.609375 42.84375 
Q 40.53125 48.484375 33.40625 48.484375 
Q 26.265625 48.484375 22.1875 42.84375 
Q 18.109375 37.203125 18.109375 27.296875 
Q 18.109375 17.390625 22.1875 11.75 
Q 26.265625 6.109375 33.40625 6.109375 
Q 40.53125 6.109375 44.609375 11.75 
Q 48.6875 17.390625 48.6875 27.296875 
z
M 18.109375 46.390625 
Q 20.953125 51.265625 25.265625 53.625 
Q 29.59375 56 35.59375 56 
Q 45.5625 56 51.78125 48.09375 
Q 58.015625 40.1875 58.015625 27.296875 
Q 58.015625 14.40625 51.78125 6.484375 
Q 45.5625 -1.421875 35.59375 -1.421875 
Q 29.59375 -1.421875 25.265625 0.953125 
Q 20.953125 3.328125 18.109375 8.203125 
L 18.109375 0 
L 9.078125 0 
L 9.078125 75.984375 
L 18.109375 75.984375 
z
" id="DejaVuSans-98"/>
      <path d="M 34.28125 27.484375 
Q 23.390625 27.484375 19.1875 25 
Q 14.984375 22.515625 14.984375 16.5 
Q 14.984375 11.71875 18.140625 8.90625 
Q 21.296875 6.109375 26.703125 6.109375 
Q 34.1875 6.109375 38.703125 11.40625 
Q 43.21875 16.703125 43.21875 25.484375 
L 43.21875 27.484375 
z
M 52.203125 31.203125 
L 52.203125 0 
L 43.21875 0 
L 43.21875 8.296875 
Q 40.140625 3.328125 35.546875 0.953125 
Q 30.953125 -1.421875 24.3125 -1.421875 
Q 15.921875 -1.421875 10.953125 3.296875 
Q 6 8.015625 6 15.921875 
Q 6 25.140625 12.171875 29.828125 
Q 18.359375 34.515625 30.609375 34.515625 
L 43.21875 34.515625 
L 43.21875 35.40625 
Q 43.21875 41.609375 39.140625 45 
Q 35.0625 48.390625 27.6875 48.390625 
Q 23 48.390625 18.546875 47.265625 
Q 14.109375 46.140625 10.015625 43.890625 
L 10.015625 52.203125 
Q 14.9375 54.109375 19.578125 55.046875 
Q 24.21875 56 28.609375 56 
Q 40.484375 56 46.34375 49.84375 
Q 52.203125 43.703125 52.203125 31.203125 
z
" id="DejaVuSans-97"/>
      <path d="M 41.109375 46.296875 
Q 39.59375 47.171875 37.8125 47.578125 
Q 36.03125 48 33.890625 48 
Q 26.265625 48 22.1875 43.046875 
Q 18.109375 38.09375 18.109375 28.8125 
L 18.109375 0 
L 9.078125 0 
L 9.078125 54.6875 
L 18.109375 54.6875 
L 18.109375 46.1875 
Q 20.953125 51.171875 25.484375 53.578125 
Q 30.03125 56 36.53125 56 
Q 37.453125 56 38.578125 55.875 
Q 39.703125 55.765625 41.0625 55.515625 
z
" id="DejaVuSans-114"/>
      <path d="M 44.28125 53.078125 
L 44.28125 44.578125 
Q 40.484375 46.53125 36.375 47.5 
Q 32.28125 48.484375 27.875 48.484375 
Q 21.1875 48.484375 17.84375 46.4375 
Q 14.5 44.390625 14.5 40.28125 
Q 14.5 37.15625 16.890625 35.375 
Q 19.28125 33.59375 26.515625 31.984375 
L 29.59375 31.296875 
Q 39.15625 29.25 43.1875 25.515625 
Q 47.21875 21.78125 47.21875 15.09375 
Q 47.21875 7.46875 41.1875 3.015625 
Q 35.15625 -1.421875 24.609375 -1.421875 
Q 20.21875 -1.421875 15.453125 -0.5625 
Q 10.6875 0.296875 5.421875 2 
L 5.421875 11.28125 
Q 10.40625 8.6875 15.234375 7.390625 
Q 20.0625 6.109375 24.8125 6.109375 
Q 31.15625 6.109375 34.5625 8.28125 
Q 37.984375 10.453125 37.984375 14.40625 
Q 37.984375 18.0625 35.515625 20.015625 
Q 33.0625 21.96875 24.703125 23.78125 
L 21.578125 24.515625 
Q 13.234375 26.265625 9.515625 29.90625 
Q 5.8125 33.546875 5.8125 39.890625 
Q 5.8125 47.609375 11.28125 51.796875 
Q 16.75 56 26.8125 56 
Q 31.78125 56 36.171875 55.265625 
Q 40.578125 54.546875 44.28125 53.078125 
z
" id="DejaVuSans-115"/>
      <path d="M 56.203125 29.59375 
L 56.203125 25.203125 
L 14.890625 25.203125 
Q 15.484375 15.921875 20.484375 11.0625 
Q 25.484375 6.203125 34.421875 6.203125 
Q 39.59375 6.203125 44.453125 7.46875 
Q 49.3125 8.734375 54.109375 11.28125 
L 54.109375 2.78125 
Q 49.265625 0.734375 44.1875 -0.34375 
Q 39.109375 -1.421875 33.890625 -1.421875 
Q 20.796875 -1.421875 13.15625 6.1875 
Q 5.515625 13.8125 5.515625 26.8125 
Q 5.515625 40.234375 12.765625 48.109375 
Q 20.015625 56 32.328125 56 
Q 43.359375 56 49.78125 48.890625 
Q 56.203125 41.796875 56.203125 29.59375 
z
M 47.21875 32.234375 
Q 47.125 39.59375 43.09375 43.984375 
Q 39.0625 48.390625 32.421875 48.390625 
Q 24.90625 48.390625 20.390625 44.140625 
Q 15.875 39.890625 15.1875 32.171875 
z
" id="DejaVuSans-101"/>
      <path d="M 54.890625 54.6875 
L 35.109375 28.078125 
L 55.90625 0 
L 45.3125 0 
L 29.390625 21.484375 
L 13.484375 0 
L 2.875 0 
L 24.125 28.609375 
L 4.6875 54.6875 
L 15.28125 54.6875 
L 29.78125 35.203125 
L 44.28125 54.6875 
z
" id="DejaVuSans-120"/>
      <path d="M 18.3125 70.21875 
L 18.3125 54.6875 
L 36.8125 54.6875 
L 36.8125 47.703125 
L 18.3125 47.703125 
L 18.3125 18.015625 
Q 18.3125 11.328125 20.140625 9.421875 
Q 21.96875 7.515625 27.59375 7.515625 
L 36.8125 7.515625 
L 36.8125 0 
L 27.59375 0 
Q 17.1875 0 13.234375 3.875 
Q 9.28125 7.765625 9.28125 18.015625 
L 9.28125 47.703125 
L 2.6875 47.703125 
L 2.6875 54.6875 
L 9.28125 54.6875 
L 9.28125 70.21875 
z
" id="DejaVuSans-116"/>
      <path d="M 48.78125 52.59375 
L 48.78125 44.1875 
Q 44.96875 46.296875 41.140625 47.34375 
Q 37.3125 48.390625 33.40625 48.390625 
Q 24.65625 48.390625 19.8125 42.84375 
Q 14.984375 37.3125 14.984375 27.296875 
Q 14.984375 17.28125 19.8125 11.734375 
Q 24.65625 6.203125 33.40625 6.203125 
Q 37.3125 6.203125 41.140625 7.25 
Q 44.96875 8.296875 48.78125 10.40625 
L 48.78125 2.09375 
Q 45.015625 0.34375 40.984375 -0.53125 
Q 36.96875 -1.421875 32.421875 -1.421875 
Q 20.0625 -1.421875 12.78125 6.34375 
Q 5.515625 14.109375 5.515625 27.296875 
Q 5.515625 40.671875 12.859375 48.328125 
Q 20.21875 56 33.015625 56 
Q 37.15625 56 41.109375 55.140625 
Q 45.0625 54.296875 48.78125 52.59375 
z
" id="DejaVuSans-99"/>
      <path d="M 45.40625 46.390625 
L 45.40625 75.984375 
L 54.390625 75.984375 
L 54.390625 0 
L 45.40625 0 
L 45.40625 8.203125 
Q 42.578125 3.328125 38.25 0.953125 
Q 33.9375 -1.421875 27.875 -1.421875 
Q 17.96875 -1.421875 11.734375 6.484375 
Q 5.515625 14.40625 5.515625 27.296875 
Q 5.515625 40.1875 11.734375 48.09375 
Q 17.96875 56 27.875 56 
Q 33.9375 56 38.25 53.625 
Q 42.578125 51.265625 45.40625 46.390625 
z
M 14.796875 27.296875 
Q 14.796875 17.390625 18.875 11.75 
Q 22.953125 6.109375 30.078125 6.109375 
Q 37.203125 6.109375 41.296875 11.75 
Q 45.40625 17.390625 45.40625 27.296875 
Q 45.40625 37.203125 41.296875 42.84375 
Q 37.203125 48.484375 30.078125 48.484375 
Q 22.953125 48.484375 18.875 42.84375 
Q 14.796875 37.203125 14.796875 27.296875 
z
" id="DejaVuSans-100"/>
      <path d="M 10.6875 12.40625 
L 21 12.40625 
L 21 0 
L 10.6875 0 
z
" id="DejaVuSans-46"/>
     </defs>
     <use xlink:href="#DejaVuSans-87"/>
     <use x="98.876953" xlink:href="#DejaVuSans-51"/>
     <use x="162.5" xlink:href="#DejaVuSans-48"/>
     <use x="226.123047" xlink:href="#DejaVuSans-95"/>
     <use x="276.123047" xlink:href="#DejaVuSans-95"/>
     <use x="326.123047" xlink:href="#DejaVuSans-72"/>
     <use x="401.318359" xlink:href="#DejaVuSans-52"/>
     <use x="464.941406" xlink:href="#DejaVuSans-48"/>
     <use x="528.564453" xlink:href="#DejaVuSans-95"/>
     <use x="578.564453" xlink:href="#DejaVuSans-95"/>
     <use x="628.564453" xlink:href="#DejaVuSans-65"/>
     <use x="696.972656" xlink:href="#DejaVuSans-48"/>
     <use x="760.595703" xlink:href="#DejaVuSans-54"/>
     <use x="824.21875" xlink:href="#DejaVuSans-48"/>
     <use x="887.841797" xlink:href="#DejaVuSans-95"/>
     <use x="937.841797" xlink:href="#DejaVuSans-98"/>
     <use x="1001.318359" xlink:href="#DejaVuSans-97"/>
     <use x="1062.597656" xlink:href="#DejaVuSans-114"/>
     <use x="1103.710938" xlink:href="#DejaVuSans-115"/>
     <use x="1155.810547" xlink:href="#DejaVuSans-95"/>
     <use x="1205.810547" xlink:href="#DejaVuSans-101"/>
     <use x="1265.583984" xlink:href="#DejaVuSans-120"/>
     <use x="1324.763672" xlink:href="#DejaVuSans-116"/>
     <use x="1363.972656" xlink:href="#DejaVuSans-114"/>
     <use x="1405.085938" xlink:href="#DejaVuSans-97"/>
     <use x="1466.365234" xlink:href="#DejaVuSans-99"/>
     <use x="1521.345703" xlink:href="#DejaVuSans-116"/>
     <use x="1560.554688" xlink:href="#DejaVuSans-101"/>
     <use x="1622.078125" xlink:href="#DejaVuSans-100"/>
     <use x="1685.554688" xlink:href="#DejaVuSans-46"/>
     <use x="1717.341797" xlink:href="#DejaVuSans-116"/>
     <use x="1756.550781" xlink:href="#DejaVuSans-120"/>
     <use x="1815.730469" xlink:href="#DejaVuSans-116"/>
    </g>
   </g>
  </g>
 </g>
 <defs>
  <clipPath id="p88ed6b5044">
   <rect height="217.44" width="217.44" x="112.68" y="34.56"/>
  </clipPath>
 </defs>
</svg>
