<?xml version="1.0" encoding="utf-8" standalone="no"?>
<!DOCTYPE svg PUBLIC "-//W3C//DTD SVG 1.1//EN"
  "http://www.w3.org/Graphics/SVG/1.1/DTD/svg11.dtd">
<!-- Created with matplotlib (https://matplotlib.org/) -->
<svg height="288pt" version="1.1" viewBox="0 0 432 288" width="432pt" xmlns="http://www.w3.org/2000/svg" xmlns:xlink="http://www.w3.org/1999/xlink">
 <metadata>
  <rdf:RDF xmlns:cc="http://creativecommons.org/ns#" xmlns:dc="http://purl.org/dc/elements/1.1/" xmlns:rdf="http://www.w3.org/1999/02/22-rdf-syntax-ns#">
   <cc:Work>
    <dc:type rdf:resource="http://purl.org/dc/dcmitype/StillImage"/>
    <dc:date>2021-06-13T21:58:32.052015</dc:date>
    <dc:format>image/svg+xml</dc:format>
    <dc:creator>
     <cc:Agent>
      <dc:title>Matplotlib v3.3.4, https://matplotlib.org/</dc:title>
     </cc:Agent>
    </dc:creator>
   </cc:Work>
  </rdf:RDF>
 </metadata>
 <defs>
  <style type="text/css">*{stroke-linecap:butt;stroke-linejoin:round;}</style>
 </defs>
 <g id="figure_1">
  <g id="patch_1">
   <path d="M 0 288 
L 432 288 
L 432 0 
L 0 0 
z
" style="fill:#ffffff;"/>
  </g>
  <g id="patch_2">
   <path d="M 112.68 252 
L 330.12 252 
L 330.12 34.56 
L 112.68 34.56 
z
" style="fill:#ffffff;"/>
  </g>
  <g id="pane3d_1">
   <g id="patch_3">
    <path d="M 129.09822 198.386264 
L 200.904009 138.197228 
L 199.90584 51.393878 
L 124.663773 106.302111 
" style="fill:#f2f2f2;opacity:0.5;stroke:#f2f2f2;stroke-linejoin:miter;"/>
   </g>
  </g>
  <g id="pane3d_2">
   <g id="patch_4">
    <path d="M 200.904009 138.197228 
L 316.12668 171.68791 
L 320.238571 81.894718 
L 199.90584 51.393878 
" style="fill:#e6e6e6;opacity:0.5;stroke:#e6e6e6;stroke-linejoin:miter;"/>
   </g>
  </g>
  <g id="pane3d_3">
   <g id="patch_5">
    <path d="M 129.09822 198.386264 
L 251.239879 238.27773 
L 316.12668 171.68791 
L 200.904009 138.197228 
" style="fill:#ececec;opacity:0.5;stroke:#ececec;stroke-linejoin:miter;"/>
   </g>
  </g>
  <g id="axis3d_1">
   <g id="line2d_1">
    <path d="M 129.09822 198.386264 
L 251.239879 238.27773 
" style="fill:none;stroke:#000000;stroke-linecap:square;stroke-width:0.8;"/>
   </g>
   <g id="Line3DCollection_1">
    <path d="M 136.495759 200.802301 
L 207.911499 140.234029 
L 207.209612 53.245171 
" style="fill:none;stroke:#b0b0b0;stroke-width:0.8;"/>
    <path d="M 162.23134 209.207541 
L 232.260894 147.311436 
L 232.60309 59.681678 
" style="fill:none;stroke:#b0b0b0;stroke-width:0.8;"/>
    <path d="M 188.559037 217.806167 
L 257.123632 154.538053 
L 258.555303 66.259807 
" style="fill:none;stroke:#b0b0b0;stroke-width:0.8;"/>
    <path d="M 215.499525 226.604931 
L 282.516121 161.918647 
L 285.084894 72.984285 
" style="fill:none;stroke:#b0b0b0;stroke-width:0.8;"/>
    <path d="M 243.074449 235.610901 
L 308.455474 169.458193 
L 312.21135 79.860051 
" style="fill:none;stroke:#b0b0b0;stroke-width:0.8;"/>
   </g>
   <g id="xtick_1">
    <g id="line2d_2">
     <path d="M 137.117644 200.274876 
L 135.249322 201.859414 
" style="fill:none;stroke:#000000;stroke-linecap:square;stroke-width:0.8;"/>
    </g>
    <g id="text_1">
     <!-- 0 -->
     <g transform="translate(125.77919 224.124533)scale(0.1 -0.1)">
      <defs>
       <path d="M 31.78125 66.40625 
Q 24.171875 66.40625 20.328125 58.90625 
Q 16.5 51.421875 16.5 36.375 
Q 16.5 21.390625 20.328125 13.890625 
Q 24.171875 6.390625 31.78125 6.390625 
Q 39.453125 6.390625 43.28125 13.890625 
Q 47.125 21.390625 47.125 36.375 
Q 47.125 51.421875 43.28125 58.90625 
Q 39.453125 66.40625 31.78125 66.40625 
z
M 31.78125 74.21875 
Q 44.046875 74.21875 50.515625 64.515625 
Q 56.984375 54.828125 56.984375 36.375 
Q 56.984375 17.96875 50.515625 8.265625 
Q 44.046875 -1.421875 31.78125 -1.421875 
Q 19.53125 -1.421875 13.0625 8.265625 
Q 6.59375 17.96875 6.59375 36.375 
Q 6.59375 54.828125 13.0625 64.515625 
Q 19.53125 74.21875 31.78125 74.21875 
z
" id="DejaVuSans-48"/>
      </defs>
      <use xlink:href="#DejaVuSans-48"/>
     </g>
    </g>
   </g>
   <g id="xtick_2">
    <g id="line2d_3">
     <path d="M 162.841716 208.668056 
L 161.007937 210.288854 
" style="fill:none;stroke:#000000;stroke-linecap:square;stroke-width:0.8;"/>
    </g>
    <g id="text_2">
     <!-- 2 -->
     <g transform="translate(151.547192 232.748132)scale(0.1 -0.1)">
      <defs>
       <path d="M 19.1875 8.296875 
L 53.609375 8.296875 
L 53.609375 0 
L 7.328125 0 
L 7.328125 8.296875 
Q 12.9375 14.109375 22.625 23.890625 
Q 32.328125 33.6875 34.8125 36.53125 
Q 39.546875 41.84375 41.421875 45.53125 
Q 43.3125 49.21875 43.3125 52.78125 
Q 43.3125 58.59375 39.234375 62.25 
Q 35.15625 65.921875 28.609375 65.921875 
Q 23.96875 65.921875 18.8125 64.3125 
Q 13.671875 62.703125 7.8125 59.421875 
L 7.8125 69.390625 
Q 13.765625 71.78125 18.9375 73 
Q 24.125 74.21875 28.421875 74.21875 
Q 39.75 74.21875 46.484375 68.546875 
Q 53.21875 62.890625 53.21875 53.421875 
Q 53.21875 48.921875 51.53125 44.890625 
Q 49.859375 40.875 45.40625 35.40625 
Q 44.1875 33.984375 37.640625 27.21875 
Q 31.109375 20.453125 19.1875 8.296875 
z
" id="DejaVuSans-50"/>
      </defs>
      <use xlink:href="#DejaVuSans-50"/>
     </g>
    </g>
   </g>
   <g id="xtick_3">
    <g id="line2d_4">
     <path d="M 189.15721 217.254202 
L 187.360066 218.91252 
" style="fill:none;stroke:#000000;stroke-linecap:square;stroke-width:0.8;"/>
    </g>
    <g id="text_3">
     <!-- 4 -->
     <g transform="translate(177.91082 241.571064)scale(0.1 -0.1)">
      <defs>
       <path d="M 37.796875 64.3125 
L 12.890625 25.390625 
L 37.796875 25.390625 
z
M 35.203125 72.90625 
L 47.609375 72.90625 
L 47.609375 25.390625 
L 58.015625 25.390625 
L 58.015625 17.1875 
L 47.609375 17.1875 
L 47.609375 0 
L 37.796875 0 
L 37.796875 17.1875 
L 4.890625 17.1875 
L 4.890625 26.703125 
z
" id="DejaVuSans-52"/>
      </defs>
      <use xlink:href="#DejaVuSans-52"/>
     </g>
    </g>
   </g>
   <g id="xtick_4">
    <g id="line2d_5">
     <path d="M 216.084757 226.040048 
L 214.326462 227.737204 
" style="fill:none;stroke:#000000;stroke-linecap:square;stroke-width:0.8;"/>
    </g>
    <g id="text_4">
     <!-- 6 -->
     <g transform="translate(204.890965 250.600322)scale(0.1 -0.1)">
      <defs>
       <path d="M 33.015625 40.375 
Q 26.375 40.375 22.484375 35.828125 
Q 18.609375 31.296875 18.609375 23.390625 
Q 18.609375 15.53125 22.484375 10.953125 
Q 26.375 6.390625 33.015625 6.390625 
Q 39.65625 6.390625 43.53125 10.953125 
Q 47.40625 15.53125 47.40625 23.390625 
Q 47.40625 31.296875 43.53125 35.828125 
Q 39.65625 40.375 33.015625 40.375 
z
M 52.59375 71.296875 
L 52.59375 62.3125 
Q 48.875 64.0625 45.09375 64.984375 
Q 41.3125 65.921875 37.59375 65.921875 
Q 27.828125 65.921875 22.671875 59.328125 
Q 17.53125 52.734375 16.796875 39.40625 
Q 19.671875 43.65625 24.015625 45.921875 
Q 28.375 48.1875 33.59375 48.1875 
Q 44.578125 48.1875 50.953125 41.515625 
Q 57.328125 34.859375 57.328125 23.390625 
Q 57.328125 12.15625 50.6875 5.359375 
Q 44.046875 -1.421875 33.015625 -1.421875 
Q 20.359375 -1.421875 13.671875 8.265625 
Q 6.984375 17.96875 6.984375 36.375 
Q 6.984375 53.65625 15.1875 63.9375 
Q 23.390625 74.21875 37.203125 74.21875 
Q 40.921875 74.21875 44.703125 73.484375 
Q 48.484375 72.75 52.59375 71.296875 
z
" id="DejaVuSans-54"/>
      </defs>
      <use xlink:href="#DejaVuSans-54"/>
     </g>
    </g>
   </g>
   <g id="xtick_5">
    <g id="line2d_6">
     <path d="M 243.645962 235.032643 
L 241.928856 236.770015 
" style="fill:none;stroke:#000000;stroke-linecap:square;stroke-width:0.8;"/>
    </g>
    <g id="text_5">
     <!-- 8 -->
     <g transform="translate(232.509511 259.84323)scale(0.1 -0.1)">
      <defs>
       <path d="M 31.78125 34.625 
Q 24.75 34.625 20.71875 30.859375 
Q 16.703125 27.09375 16.703125 20.515625 
Q 16.703125 13.921875 20.71875 10.15625 
Q 24.75 6.390625 31.78125 6.390625 
Q 38.8125 6.390625 42.859375 10.171875 
Q 46.921875 13.96875 46.921875 20.515625 
Q 46.921875 27.09375 42.890625 30.859375 
Q 38.875 34.625 31.78125 34.625 
z
M 21.921875 38.8125 
Q 15.578125 40.375 12.03125 44.71875 
Q 8.5 49.078125 8.5 55.328125 
Q 8.5 64.0625 14.71875 69.140625 
Q 20.953125 74.21875 31.78125 74.21875 
Q 42.671875 74.21875 48.875 69.140625 
Q 55.078125 64.0625 55.078125 55.328125 
Q 55.078125 49.078125 51.53125 44.71875 
Q 48 40.375 41.703125 38.8125 
Q 48.828125 37.15625 52.796875 32.3125 
Q 56.78125 27.484375 56.78125 20.515625 
Q 56.78125 9.90625 50.3125 4.234375 
Q 43.84375 -1.421875 31.78125 -1.421875 
Q 19.734375 -1.421875 13.25 4.234375 
Q 6.78125 9.90625 6.78125 20.515625 
Q 6.78125 27.484375 10.78125 32.3125 
Q 14.796875 37.15625 21.921875 38.8125 
z
M 18.3125 54.390625 
Q 18.3125 48.734375 21.84375 45.5625 
Q 25.390625 42.390625 31.78125 42.390625 
Q 38.140625 42.390625 41.71875 45.5625 
Q 45.3125 48.734375 45.3125 54.390625 
Q 45.3125 60.0625 41.71875 63.234375 
Q 38.140625 66.40625 31.78125 66.40625 
Q 25.390625 66.40625 21.84375 63.234375 
Q 18.3125 60.0625 18.3125 54.390625 
z
" id="DejaVuSans-56"/>
      </defs>
      <use xlink:href="#DejaVuSans-56"/>
     </g>
    </g>
   </g>
  </g>
  <g id="axis3d_2">
   <g id="line2d_7">
    <path d="M 316.12668 171.68791 
L 251.239879 238.27773 
" style="fill:none;stroke:#000000;stroke-linecap:square;stroke-width:0.8;"/>
   </g>
   <g id="Line3DCollection_2">
    <path d="M 129.866948 102.505071 
L 134.046245 194.238731 
L 255.729543 233.67023 
" style="fill:none;stroke:#b0b0b0;stroke-width:0.8;"/>
    <path d="M 147.250212 89.819556 
L 150.59591 180.366474 
L 270.72626 218.279909 
" style="fill:none;stroke:#b0b0b0;stroke-width:0.8;"/>
    <path d="M 163.958537 77.626582 
L 166.530371 167.009893 
L 285.136664 203.491289 
" style="fill:none;stroke:#b0b0b0;stroke-width:0.8;"/>
    <path d="M 180.030483 65.898008 
L 181.883306 154.140758 
L 298.994481 189.269761 
" style="fill:none;stroke:#b0b0b0;stroke-width:0.8;"/>
    <path d="M 195.501727 54.607799 
L 196.68598 141.732864 
L 312.330896 175.583317 
" style="fill:none;stroke:#b0b0b0;stroke-width:0.8;"/>
   </g>
   <g id="xtick_6">
    <g id="line2d_8">
     <path d="M 254.704115 233.337939 
L 257.783053 234.33567 
" style="fill:none;stroke:#000000;stroke-linecap:square;stroke-width:0.8;"/>
    </g>
    <g id="text_6">
     <!-- 0 -->
     <g transform="translate(265.430654 254.693759)scale(0.1 -0.1)">
      <use xlink:href="#DejaVuSans-48"/>
     </g>
    </g>
   </g>
   <g id="xtick_7">
    <g id="line2d_9">
     <path d="M 269.71494 217.960734 
L 272.751463 218.919068 
" style="fill:none;stroke:#000000;stroke-linecap:square;stroke-width:0.8;"/>
    </g>
    <g id="text_7">
     <!-- 2 -->
     <g transform="translate(280.181112 239.024526)scale(0.1 -0.1)">
      <use xlink:href="#DejaVuSans-50"/>
     </g>
    </g>
   </g>
   <g id="xtick_8">
    <g id="line2d_10">
     <path d="M 284.139145 203.184468 
L 287.134182 204.105694 
" style="fill:none;stroke:#000000;stroke-linecap:square;stroke-width:0.8;"/>
    </g>
    <g id="text_8">
     <!-- 4 -->
     <g transform="translate(294.35448 223.968328)scale(0.1 -0.1)">
      <use xlink:href="#DejaVuSans-52"/>
     </g>
    </g>
   </g>
   <g id="xtick_9">
    <g id="line2d_11">
     <path d="M 298.010457 188.97459 
L 300.964927 189.860821 
" style="fill:none;stroke:#000000;stroke-linecap:square;stroke-width:0.8;"/>
    </g>
    <g id="text_9">
     <!-- 6 -->
     <g transform="translate(307.983974 209.489882)scale(0.1 -0.1)">
      <use xlink:href="#DejaVuSans-54"/>
     </g>
    </g>
   </g>
   <g id="xtick_10">
    <g id="line2d_12">
     <path d="M 311.360068 175.299146 
L 314.274875 176.15234 
" style="fill:none;stroke:#000000;stroke-linecap:square;stroke-width:0.8;"/>
    </g>
    <g id="text_10">
     <!-- 8 -->
     <g transform="translate(321.10031 195.556556)scale(0.1 -0.1)">
      <use xlink:href="#DejaVuSans-56"/>
     </g>
    </g>
   </g>
  </g>
  <g id="axis3d_3">
   <g id="line2d_13">
    <path d="M 316.12668 171.68791 
L 320.238571 81.894718 
" style="fill:none;stroke:#000000;stroke-linecap:square;stroke-width:0.8;"/>
   </g>
   <g id="Line3DCollection_3">
    <path d="M 316.205459 169.967571 
L 200.884845 136.530725 
L 129.013401 196.624949 
" style="fill:none;stroke:#b0b0b0;stroke-width:0.8;"/>
    <path d="M 316.919401 154.376904 
L 200.711246 121.434091 
L 128.244477 180.65774 
" style="fill:none;stroke:#b0b0b0;stroke-width:0.8;"/>
    <path d="M 317.644527 138.542014 
L 200.535058 106.112305 
L 127.463047 164.430842 
" style="fill:none;stroke:#b0b0b0;stroke-width:0.8;"/>
    <path d="M 318.381101 122.457118 
L 200.356222 90.560293 
L 126.668804 147.937868 
" style="fill:none;stroke:#b0b0b0;stroke-width:0.8;"/>
    <path d="M 319.129397 106.116247 
L 200.174679 74.772825 
L 125.861429 131.172219 
" style="fill:none;stroke:#b0b0b0;stroke-width:0.8;"/>
    <path d="M 319.889697 89.513243 
L 199.990366 58.744513 
L 125.040596 114.127078 
" style="fill:none;stroke:#b0b0b0;stroke-width:0.8;"/>
   </g>
   <g id="xtick_11">
    <g id="line2d_14">
     <path d="M 315.237563 169.686933 
L 318.143556 170.529516 
" style="fill:none;stroke:#000000;stroke-linecap:square;stroke-width:0.8;"/>
    </g>
    <g id="text_11">
     <!-- 0 -->
     <g transform="translate(331.275915 174.966846)scale(0.1 -0.1)">
      <use xlink:href="#DejaVuSans-48"/>
     </g>
    </g>
   </g>
   <g id="xtick_12">
    <g id="line2d_15">
     <path d="M 315.943701 154.100312 
L 318.873143 154.930753 
" style="fill:none;stroke:#000000;stroke-linecap:square;stroke-width:0.8;"/>
    </g>
    <g id="text_12">
     <!-- 5000 -->
     <g transform="translate(322.584784 159.413715)scale(0.1 -0.1)">
      <defs>
       <path d="M 10.796875 72.90625 
L 49.515625 72.90625 
L 49.515625 64.59375 
L 19.828125 64.59375 
L 19.828125 46.734375 
Q 21.96875 47.46875 24.109375 47.828125 
Q 26.265625 48.1875 28.421875 48.1875 
Q 40.625 48.1875 47.75 41.5 
Q 54.890625 34.8125 54.890625 23.390625 
Q 54.890625 11.625 47.5625 5.09375 
Q 40.234375 -1.421875 26.90625 -1.421875 
Q 22.3125 -1.421875 17.546875 -0.640625 
Q 12.796875 0.140625 7.71875 1.703125 
L 7.71875 11.625 
Q 12.109375 9.234375 16.796875 8.0625 
Q 21.484375 6.890625 26.703125 6.890625 
Q 35.15625 6.890625 40.078125 11.328125 
Q 45.015625 15.765625 45.015625 23.390625 
Q 45.015625 31 40.078125 35.4375 
Q 35.15625 39.890625 26.703125 39.890625 
Q 22.75 39.890625 18.8125 39.015625 
Q 14.890625 38.140625 10.796875 36.28125 
z
" id="DejaVuSans-53"/>
      </defs>
      <use xlink:href="#DejaVuSans-53"/>
      <use x="63.623047" xlink:href="#DejaVuSans-48"/>
      <use x="127.246094" xlink:href="#DejaVuSans-48"/>
      <use x="190.869141" xlink:href="#DejaVuSans-48"/>
     </g>
    </g>
   </g>
   <g id="xtick_13">
    <g id="line2d_16">
     <path d="M 316.660896 138.269629 
L 319.614168 139.087443 
" style="fill:none;stroke:#000000;stroke-linecap:square;stroke-width:0.8;"/>
    </g>
    <g id="text_13">
     <!-- 10000 -->
     <g transform="translate(320.26946 143.617858)scale(0.1 -0.1)">
      <defs>
       <path d="M 12.40625 8.296875 
L 28.515625 8.296875 
L 28.515625 63.921875 
L 10.984375 60.40625 
L 10.984375 69.390625 
L 28.421875 72.90625 
L 38.28125 72.90625 
L 38.28125 8.296875 
L 54.390625 8.296875 
L 54.390625 0 
L 12.40625 0 
z
" id="DejaVuSans-49"/>
      </defs>
      <use xlink:href="#DejaVuSans-49"/>
      <use x="63.623047" xlink:href="#DejaVuSans-48"/>
      <use x="127.246094" xlink:href="#DejaVuSans-48"/>
      <use x="190.869141" xlink:href="#DejaVuSans-48"/>
      <use x="254.492188" xlink:href="#DejaVuSans-48"/>
     </g>
    </g>
   </g>
   <g id="xtick_14">
    <g id="line2d_17">
     <path d="M 317.389409 122.189108 
L 320.366901 122.993791 
" style="fill:none;stroke:#000000;stroke-linecap:square;stroke-width:0.8;"/>
    </g>
    <g id="text_14">
     <!-- 15000 -->
     <g transform="translate(321.149006 127.573548)scale(0.1 -0.1)">
      <use xlink:href="#DejaVuSans-49"/>
      <use x="63.623047" xlink:href="#DejaVuSans-53"/>
      <use x="127.246094" xlink:href="#DejaVuSans-48"/>
      <use x="190.869141" xlink:href="#DejaVuSans-48"/>
      <use x="254.492188" xlink:href="#DejaVuSans-48"/>
     </g>
    </g>
   </g>
   <g id="xtick_15">
    <g id="line2d_18">
     <path d="M 318.129511 105.852787 
L 321.131624 106.643815 
" style="fill:none;stroke:#000000;stroke-linecap:square;stroke-width:0.8;"/>
    </g>
    <g id="text_15">
     <!-- 20000 -->
     <g transform="translate(322.042496 111.274875)scale(0.1 -0.1)">
      <use xlink:href="#DejaVuSans-50"/>
      <use x="63.623047" xlink:href="#DejaVuSans-48"/>
      <use x="127.246094" xlink:href="#DejaVuSans-48"/>
      <use x="190.869141" xlink:href="#DejaVuSans-48"/>
      <use x="254.492188" xlink:href="#DejaVuSans-48"/>
     </g>
    </g>
   </g>
   <g id="xtick_16">
    <g id="line2d_19">
     <path d="M 318.881481 89.254513 
L 321.908624 90.031343 
" style="fill:none;stroke:#000000;stroke-linecap:square;stroke-width:0.8;"/>
    </g>
    <g id="text_16">
     <!-- 25000 -->
     <g transform="translate(322.950264 94.715744)scale(0.1 -0.1)">
      <use xlink:href="#DejaVuSans-50"/>
      <use x="63.623047" xlink:href="#DejaVuSans-53"/>
      <use x="127.246094" xlink:href="#DejaVuSans-48"/>
      <use x="190.869141" xlink:href="#DejaVuSans-48"/>
      <use x="254.492188" xlink:href="#DejaVuSans-48"/>
     </g>
    </g>
   </g>
  </g>
  <g id="axes_1">
   <g id="Poly3DCollection_1">
    <path clip-path="url(#pb31ae82721)" d="M 203.700438 142.115361 
L 203.692623 141.345172 
L 215.860676 144.894151 
L 215.863902 145.66701 
z
" style="fill:#050338;"/>
    <path clip-path="url(#pb31ae82721)" d="M 196.401162 148.290596 
L 196.390487 147.515774 
L 203.692623 141.345172 
L 203.700438 142.115361 
z
" style="fill:#0b0777;"/>
    <path clip-path="url(#pb31ae82721)" d="M 196.401162 148.290596 
L 203.700438 142.115361 
L 215.863902 145.66701 
L 208.637156 151.907182 
z
" style="fill:#070448;"/>
    <path clip-path="url(#pb31ae82721)" d="M 196.390487 147.515774 
L 208.631125 151.129666 
L 215.860676 144.894151 
L 203.692623 141.345172 
z
" style="fill:#0a0667;"/>
    <path clip-path="url(#pb31ae82721)" d="M 215.863902 145.66701 
L 215.858757 144.43431 
L 228.157354 148.018953 
L 228.155024 149.255935 
z
" style="fill:#070339;"/>
    <path clip-path="url(#pb31ae82721)" d="M 208.637156 151.907182 
L 215.863902 145.66701 
L 215.860676 144.894151 
L 208.631125 151.129666 
z
" style="fill:#050338;"/>
    <path clip-path="url(#pb31ae82721)" d="M 208.637156 151.907182 
L 208.627537 150.667051 
L 215.858757 144.43431 
L 215.863902 145.66701 
z
" style="fill:#0e0678;"/>
    <path clip-path="url(#pb31ae82721)" d="M 196.401162 148.290596 
L 208.637156 151.907182 
L 208.631125 151.129666 
L 196.390487 147.515774 
z
" style="fill:#0b0777;"/>
    <path clip-path="url(#pb31ae82721)" d="M 196.401162 148.290596 
L 196.38629 147.211098 
L 208.628754 150.823929 
L 208.637156 151.907182 
z
" style="fill:#070339;"/>
    <path clip-path="url(#pb31ae82721)" d="M 208.637156 151.907182 
L 215.863902 145.66701 
L 228.155024 149.255935 
L 221.002748 155.562072 
z
" style="fill:#090449;"/>
    <path clip-path="url(#pb31ae82721)" d="M 208.627537 150.667051 
L 221.000694 154.317621 
L 228.157354 148.018953 
L 215.858757 144.43431 
z
" style="fill:#0c0668;"/>
    <path clip-path="url(#pb31ae82721)" d="M 188.96817 154.578956 
L 188.949169 153.492943 
L 196.38629 147.211098 
L 196.401162 148.290596 
z
" style="fill:#0e0678;"/>
    <path clip-path="url(#pb31ae82721)" d="M 228.155024 149.255935 
L 228.164863 144.030919 
L 240.617905 147.639473 
L 240.575825 152.882725 
z
" style="fill:#13023e;"/>
    <path clip-path="url(#pb31ae82721)" d="M 221.002748 155.562072 
L 228.155024 149.255935 
L 228.157354 148.018953 
L 221.000694 154.317621 
z
" style="fill:#070339;"/>
    <path clip-path="url(#pb31ae82721)" d="M 188.96817 154.578956 
L 196.401162 148.290596 
L 208.637156 151.907182 
L 201.27732 158.262275 
z
" style="fill:#090449;"/>
    <path clip-path="url(#pb31ae82721)" d="M 221.002748 155.562072 
L 220.99407 150.305412 
L 228.164863 144.030919 
L 228.155024 149.255935 
z
" style="fill:#280484;"/>
    <path clip-path="url(#pb31ae82721)" d="M 188.949169 153.492943 
L 201.264865 157.172474 
L 208.628754 150.823929 
L 196.38629 147.211098 
z
" style="fill:#0c0668;"/>
    <path clip-path="url(#pb31ae82721)" d="M 208.637156 151.907182 
L 221.002748 155.562072 
L 221.000694 154.317621 
L 208.627537 150.667051 
z
" style="fill:#0e0678;"/>
    <path clip-path="url(#pb31ae82721)" d="M 208.637156 151.907182 
L 208.61499 149.049503 
L 220.998014 152.694426 
L 221.002748 155.562072 
z
" style="fill:#0c033b;"/>
    <path clip-path="url(#pb31ae82721)" d="M 221.002748 155.562072 
L 228.155024 149.255935 
L 240.575825 152.882725 
L 233.500008 159.25588 
z
" style="fill:#18034f;"/>
    <path clip-path="url(#pb31ae82721)" d="M 201.27732 158.262275 
L 208.637156 151.907182 
L 208.628754 150.823929 
L 201.264865 157.172474 
z
" style="fill:#070339;"/>
    <path clip-path="url(#pb31ae82721)" d="M 201.27732 158.262275 
L 201.244463 155.3873 
L 208.61499 149.049503 
L 208.637156 151.907182 
z
" style="fill:#1a057d;"/>
    <path clip-path="url(#pb31ae82721)" d="M 220.99407 150.305412 
L 233.52397 153.980821 
L 240.617905 147.639473 
L 228.164863 144.030919 
z
" style="fill:#230472;"/>
    <path clip-path="url(#pb31ae82721)" d="M 188.96817 154.578956 
L 201.27732 158.262275 
L 201.264865 157.172474 
L 188.949169 153.492943 
z
" style="fill:#0e0678;"/>
    <path clip-path="url(#pb31ae82721)" d="M 240.575825 152.882725 
L 240.671265 140.990671 
L 253.298492 144.614147 
L 253.128369 156.547983 
z
" style="fill:#220144;"/>
    <path clip-path="url(#pb31ae82721)" d="M 188.96817 154.578956 
L 188.922753 151.983185 
L 201.24755 155.657441 
L 201.27732 158.262275 
z
" style="fill:#0b033b;"/>
    <path clip-path="url(#pb31ae82721)" d="M 201.27732 158.262275 
L 208.637156 151.907182 
L 221.002748 155.562072 
L 213.718049 161.984967 
z
" style="fill:#10034c;"/>
    <path clip-path="url(#pb31ae82721)" d="M 233.500008 159.25588 
L 240.575825 152.882725 
L 240.617905 147.639473 
L 233.52397 153.980821 
z
" style="fill:#13023e;"/>
    <path clip-path="url(#pb31ae82721)" d="M 201.244463 155.3873 
L 213.702836 159.099936 
L 220.998014 152.694426 
L 208.61499 149.049503 
z
" style="fill:#17056d;"/>
    <path clip-path="url(#pb31ae82721)" d="M 233.500008 159.25588 
L 240.575825 152.882725 
L 253.128369 156.547983 
L 246.131049 162.989229 
z
" style="fill:#2b0157;"/>
    <path clip-path="url(#pb31ae82721)" d="M 233.500008 159.25588 
L 233.554357 147.291322 
L 240.671265 140.990671 
L 240.575825 152.882725 
z
" style="fill:#480290;"/>
    <path clip-path="url(#pb31ae82721)" d="M 181.397755 160.983577 
L 181.342106 158.37208 
L 188.922753 151.983185 
L 188.96817 154.578956 
z
" style="fill:#18057c;"/>
    <path clip-path="url(#pb31ae82721)" d="M 221.002748 155.562072 
L 233.500008 159.25588 
L 233.52397 153.980821 
L 220.99407 150.305412 
z
" style="fill:#280484;"/>
    <path clip-path="url(#pb31ae82721)" d="M 213.718049 161.984967 
L 221.002748 155.562072 
L 220.998014 152.694426 
L 213.702836 159.099936 
z
" style="fill:#0c033b;"/>
    <path clip-path="url(#pb31ae82721)" d="M 181.397755 160.983577 
L 188.96817 154.578956 
L 201.27732 158.262275 
L 193.780682 164.735494 
z
" style="fill:#0e034b;"/>
    <path clip-path="url(#pb31ae82721)" d="M 181.342106 158.37208 
L 193.740868 162.114854 
L 201.24755 155.657441 
L 188.922753 151.983185 
z
" style="fill:#15056c;"/>
    <path clip-path="url(#pb31ae82721)" d="M 253.128369 156.547983 
L 253.307482 143.983527 
L 266.074186 147.64363 
L 265.814761 160.252323 
z
" style="fill:#230144;"/>
    <path clip-path="url(#pb31ae82721)" d="M 201.27732 158.262275 
L 213.718049 161.984967 
L 213.702836 159.099936 
L 201.244463 155.3873 
z
" style="fill:#1a057d;"/>
    <path clip-path="url(#pb31ae82721)" d="M 213.718049 161.984967 
L 221.002748 155.562072 
L 233.500008 159.25588 
L 226.292478 165.747667 
z
" style="fill:#460359;"/>
    <path clip-path="url(#pb31ae82721)" d="M 221.002748 155.562072 
L 220.965541 133.023749 
L 233.602752 136.637643 
L 233.500008 159.25588 
z
" style="fill:#370245;"/>
    <path clip-path="url(#pb31ae82721)" d="M 246.131049 162.989229 
L 253.128369 156.547983 
L 265.814761 160.252323 
L 258.898031 166.762758 
z
" style="fill:#2d0157;"/>
    <path clip-path="url(#pb31ae82721)" d="M 246.131049 162.989229 
L 253.128369 156.547983 
L 253.298492 144.614147 
L 246.261025 150.982516 
z
" style="fill:#220144;"/>
    <path clip-path="url(#pb31ae82721)" d="M 246.131049 162.989229 
L 246.267894 150.348008 
L 253.307482 143.983527 
L 253.128369 156.547983 
z
" style="fill:#4b0190;"/>
    <path clip-path="url(#pb31ae82721)" d="M 193.780682 164.735494 
L 201.27732 158.262275 
L 201.24755 155.657441 
L 193.740868 162.114854 
z
" style="fill:#0b033b;"/>
    <path clip-path="url(#pb31ae82721)" d="M 233.554357 147.291322 
L 246.261025 150.982516 
L 253.298492 144.614147 
L 240.671265 140.990671 
z
" style="fill:#3e017d;"/>
    <path clip-path="url(#pb31ae82721)" d="M 201.27732 158.262275 
L 201.129037 145.287512 
L 213.649393 148.964474 
L 213.718049 161.984967 
z
" style="fill:#240144;"/>
    <path clip-path="url(#pb31ae82721)" d="M 213.718049 161.984967 
L 213.598474 139.307963 
L 220.965541 133.023749 
L 221.002748 155.562072 
z
" style="fill:#750593;"/>
    <path clip-path="url(#pb31ae82721)" d="M 233.500008 159.25588 
L 246.131049 162.989229 
L 246.261025 150.982516 
L 233.554357 147.291322 
z
" style="fill:#480290;"/>
    <path clip-path="url(#pb31ae82721)" d="M 181.397755 160.983577 
L 193.780682 164.735494 
L 193.740868 162.114854 
L 181.342106 158.37208 
z
" style="fill:#18057c;"/>
    <path clip-path="url(#pb31ae82721)" d="M 193.780682 164.735494 
L 201.27732 158.262275 
L 213.718049 161.984967 
L 206.297214 168.527892 
z
" style="fill:#2e0157;"/>
    <path clip-path="url(#pb31ae82721)" d="M 193.780682 164.735494 
L 193.582358 151.681376 
L 201.129037 145.287512 
L 201.27732 158.262275 
z
" style="fill:#4c0191;"/>
    <path clip-path="url(#pb31ae82721)" d="M 181.397755 160.983577 
L 181.272266 155.094593 
L 193.6909 158.825841 
L 193.780682 164.735494 
z
" style="fill:#15023f;"/>
    <path clip-path="url(#pb31ae82721)" d="M 265.814761 160.252323 
L 266.067103 147.987843 
L 278.96929 151.688656 
L 278.637155 163.996376 
z
" style="fill:#230144;"/>
    <path clip-path="url(#pb31ae82721)" d="M 226.292478 165.747667 
L 233.500008 159.25588 
L 246.131049 162.989229 
L 239.002775 169.551023 
z
" style="fill:#591251;"/>
    <path clip-path="url(#pb31ae82721)" d="M 173.686069 167.507715 
L 173.536658 161.582866 
L 181.272266 155.094593 
L 181.397755 160.983577 
z
" style="fill:#2c0485;"/>
    <path clip-path="url(#pb31ae82721)" d="M 258.898031 166.762758 
L 265.814761 160.252323 
L 278.637155 163.996376 
L 271.803162 170.57712 
z
" style="fill:#2c0157;"/>
    <path clip-path="url(#pb31ae82721)" d="M 258.898031 166.762758 
L 259.110264 154.423245 
L 266.067103 147.987843 
L 265.814761 160.252323 
z
" style="fill:#490290;"/>
    <path clip-path="url(#pb31ae82721)" d="M 258.898031 166.762758 
L 265.814761 160.252323 
L 266.074186 147.64363 
L 259.116221 154.076906 
z
" style="fill:#230144;"/>
    <path clip-path="url(#pb31ae82721)" d="M 246.267894 150.348008 
L 259.116221 154.076906 
L 266.074186 147.64363 
L 253.307482 143.983527 
z
" style="fill:#41017d;"/>
    <path clip-path="url(#pb31ae82721)" d="M 173.686069 167.507715 
L 181.397755 160.983577 
L 193.780682 164.735494 
L 186.143392 171.330164 
z
" style="fill:#1a0250;"/>
    <path clip-path="url(#pb31ae82721)" d="M 226.292478 165.747667 
L 233.500008 159.25588 
L 233.602752 136.637643 
L 226.314599 142.990023 
z
" style="fill:#370245;"/>
    <path clip-path="url(#pb31ae82721)" d="M 233.500008 159.25588 
L 233.641921 128.014751 
L 246.470453 131.636423 
L 246.131049 162.989229 
z
" style="fill:#460e3f;"/>
    <path clip-path="url(#pb31ae82721)" d="M 246.131049 162.989229 
L 258.898031 166.762758 
L 259.116221 154.076906 
L 246.267894 150.348008 
z
" style="fill:#4b0190;"/>
    <path clip-path="url(#pb31ae82721)" d="M 206.297214 168.527892 
L 213.718049 161.984967 
L 226.292478 165.747667 
L 218.949524 172.361429 
z
" style="fill:#722d3b;"/>
    <path clip-path="url(#pb31ae82721)" d="M 206.297214 168.527892 
L 213.718049 161.984967 
L 213.649393 148.964474 
L 206.179488 155.427637 
z
" style="fill:#240144;"/>
    <path clip-path="url(#pb31ae82721)" d="M 278.637155 163.996376 
L 278.924239 153.358075 
L 291.955284 157.104963 
L 291.597749 167.780781 
z
" style="fill:#1f0143;"/>
    <path clip-path="url(#pb31ae82721)" d="M 213.718049 161.984967 
L 226.292478 165.747667 
L 226.314599 142.990023 
L 213.598474 139.307963 
z
" style="fill:#750593;"/>
    <path clip-path="url(#pb31ae82721)" d="M 193.582358 151.681376 
L 206.179488 155.427637 
L 213.649393 148.964474 
L 201.129037 145.287512 
z
" style="fill:#42017e;"/>
    <path clip-path="url(#pb31ae82721)" d="M 226.292478 165.747667 
L 226.323033 134.312733 
L 233.641921 128.014751 
L 233.500008 159.25588 
z
" style="fill:#941d85;"/>
    <path clip-path="url(#pb31ae82721)" d="M 239.002775 169.551023 
L 246.131049 162.989229 
L 258.898031 166.762758 
L 251.851153 173.395697 
z
" style="fill:#5c154e;"/>
    <path clip-path="url(#pb31ae82721)" d="M 173.536658 161.582866 
L 186.030115 165.384466 
L 193.6909 158.825841 
L 181.272266 155.094593 
z
" style="fill:#260473;"/>
    <path clip-path="url(#pb31ae82721)" d="M 213.598474 139.307963 
L 226.314599 142.990023 
L 233.602752 136.637643 
L 220.965541 133.023749 
z
" style="fill:#650480;"/>
    <path clip-path="url(#pb31ae82721)" d="M 193.780682 164.735494 
L 206.297214 168.527892 
L 206.179488 155.427637 
L 193.582358 151.681376 
z
" style="fill:#4c0191;"/>
    <path clip-path="url(#pb31ae82721)" d="M 186.143392 171.330164 
L 193.780682 164.735494 
L 193.6909 158.825841 
L 186.030115 165.384466 
z
" style="fill:#15023f;"/>
    <path clip-path="url(#pb31ae82721)" d="M 271.803162 170.57712 
L 272.056479 159.873717 
L 278.924239 153.358075 
L 278.637155 163.996376 
z
" style="fill:#41028d;"/>
    <path clip-path="url(#pb31ae82721)" d="M 271.803162 170.57712 
L 278.637155 163.996376 
L 291.597749 167.780781 
L 284.848695 174.43298 
z
" style="fill:#270155;"/>
    <path clip-path="url(#pb31ae82721)" d="M 271.803162 170.57712 
L 278.637155 163.996376 
L 278.96929 151.688656 
L 272.096233 158.193985 
z
" style="fill:#230144;"/>
    <path clip-path="url(#pb31ae82721)" d="M 259.110264 154.423245 
L 272.096233 158.193985 
L 278.96929 151.688656 
L 266.067103 147.987843 
z
" style="fill:#40017d;"/>
    <path clip-path="url(#pb31ae82721)" d="M 186.143392 171.330164 
L 193.780682 164.735494 
L 206.297214 168.527892 
L 198.736391 175.194243 
z
" style="fill:#5f184c;"/>
    <path clip-path="url(#pb31ae82721)" d="M 173.686069 167.507715 
L 186.143392 171.330164 
L 186.030115 165.384466 
L 173.536658 161.582866 
z
" style="fill:#2c0485;"/>
    <path clip-path="url(#pb31ae82721)" d="M 246.131049 162.989229 
L 246.488374 129.980898 
L 259.467792 133.636084 
L 258.898031 166.762758 
z
" style="fill:#48103d;"/>
    <path clip-path="url(#pb31ae82721)" d="M 258.898031 166.762758 
L 271.803162 170.57712 
L 272.096233 158.193985 
L 259.110264 154.423245 
z
" style="fill:#490290;"/>
    <path clip-path="url(#pb31ae82721)" d="M 291.597749 167.780781 
L 291.836113 160.663335 
L 304.985132 164.46368 
L 304.698789 171.606197 
z
" style="fill:#170240;"/>
    <path clip-path="url(#pb31ae82721)" d="M 218.949524 172.361429 
L 226.292478 165.747667 
L 239.002775 169.551023 
L 231.739835 176.23678 
z
" style="fill:#793733;"/>
    <path clip-path="url(#pb31ae82721)" d="M 173.686069 167.507715 
L 173.367976 154.893829 
L 185.902223 158.671664 
L 186.143392 171.330164 
z
" style="fill:#230144;"/>
    <path clip-path="url(#pb31ae82721)" d="M 239.002775 169.551023 
L 246.131049 162.989229 
L 246.470453 131.636423 
L 239.233332 138.003388 
z
" style="fill:#460e3f;"/>
    <path clip-path="url(#pb31ae82721)" d="M 213.718049 161.984967 
L 213.475117 115.913424 
L 226.337422 119.509406 
L 226.292478 165.747667 
z
" style="fill:#59232e;"/>
    <path clip-path="url(#pb31ae82721)" d="M 251.851153 173.395697 
L 258.898031 166.762758 
L 271.803162 170.57712 
L 264.839875 177.282368 
z
" style="fill:#5c144f;"/>
    <path clip-path="url(#pb31ae82721)" d="M 239.002775 169.551023 
L 239.245508 136.337319 
L 246.488374 129.980898 
L 246.131049 162.989229 
z
" style="fill:#992282;"/>
    <path clip-path="url(#pb31ae82721)" d="M 284.848695 174.43298 
L 285.065169 167.272032 
L 291.836113 160.663335 
L 291.597749 167.780781 
z
" style="fill:#300487;"/>
    <path clip-path="url(#pb31ae82721)" d="M 193.780682 164.735494 
L 193.255431 130.16231 
L 205.985405 133.830516 
L 206.297214 168.527892 
z
" style="fill:#4b123b;"/>
    <path clip-path="url(#pb31ae82721)" d="M 165.82912 174.154745 
L 173.686069 167.507715 
L 186.143392 171.330164 
L 178.361455 178.049733 
z
" style="fill:#2c0157;"/>
    <path clip-path="url(#pb31ae82721)" d="M 272.056479 159.873717 
L 285.173401 163.691731 
L 291.955284 157.104963 
L 278.924239 153.358075 
z
" style="fill:#38027b;"/>
    <path clip-path="url(#pb31ae82721)" d="M 284.848695 174.43298 
L 291.597749 167.780781 
L 291.955284 157.104963 
L 285.173401 163.691731 
z
" style="fill:#1f0143;"/>
    <path clip-path="url(#pb31ae82721)" d="M 284.848695 174.43298 
L 291.597749 167.780781 
L 304.698789 171.606197 
L 298.036935 178.33102 
z
" style="fill:#1d0251;"/>
    <path clip-path="url(#pb31ae82721)" d="M 165.82912 174.154745 
L 165.458204 161.463443 
L 173.367976 154.893829 
L 173.686069 167.507715 
z
" style="fill:#490290;"/>
    <path clip-path="url(#pb31ae82721)" d="M 226.292478 165.747667 
L 239.002775 169.551023 
L 239.233332 138.003388 
L 226.323033 134.312733 
z
" style="fill:#941d85;"/>
    <path clip-path="url(#pb31ae82721)" d="M 206.297214 168.527892 
L 205.880591 122.167013 
L 213.475117 115.913424 
L 213.718049 161.984967 
z
" style="fill:#bc4a61;"/>
    <path clip-path="url(#pb31ae82721)" d="M 198.736391 175.194243 
L 206.297214 168.527892 
L 218.949524 172.361429 
L 211.467294 179.100638 
z
" style="fill:#86551f;"/>
    <path clip-path="url(#pb31ae82721)" d="M 186.143392 171.330164 
L 185.480599 136.541457 
L 193.255431 130.16231 
L 193.780682 164.735494 
z
" style="fill:#9e277e;"/>
    <path clip-path="url(#pb31ae82721)" d="M 271.803162 170.57712 
L 284.848695 174.43298 
L 285.173401 163.691731 
L 272.056479 159.873717 
z
" style="fill:#41028d;"/>
    <path clip-path="url(#pb31ae82721)" d="M 258.898031 166.762758 
L 259.46065 134.051339 
L 272.58012 137.748261 
L 271.803162 170.57712 
z
" style="fill:#48103d;"/>
    <path clip-path="url(#pb31ae82721)" d="M 231.739835 176.23678 
L 239.002775 169.551023 
L 251.851153 173.395697 
L 244.670417 180.154631 
z
" style="fill:#773535;"/>
    <path clip-path="url(#pb31ae82721)" d="M 226.323033 134.312733 
L 239.233332 138.003388 
L 246.470453 131.636423 
L 233.641921 128.014751 
z
" style="fill:#801974;"/>
    <path clip-path="url(#pb31ae82721)" d="M 285.065169 167.272032 
L 298.302037 171.144785 
L 304.985132 164.46368 
L 291.836113 160.663335 
z
" style="fill:#2a0375;"/>
    <path clip-path="url(#pb31ae82721)" d="M 251.851153 173.395697 
L 252.303334 140.480477 
L 259.46065 134.051339 
L 258.898031 166.762758 
z
" style="fill:#982182;"/>
    <path clip-path="url(#pb31ae82721)" d="M 264.839875 177.282368 
L 271.803162 170.57712 
L 284.848695 174.43298 
L 277.971253 181.211726 
z
" style="fill:#550e53;"/>
    <path clip-path="url(#pb31ae82721)" d="M 251.851153 173.395697 
L 258.898031 166.762758 
L 259.467792 133.636084 
L 252.309075 140.062569 
z
" style="fill:#48103d;"/>
    <path clip-path="url(#pb31ae82721)" d="M 298.036935 178.33102 
L 304.698789 171.606197 
L 304.985132 164.46368 
L 298.302037 171.144785 
z
" style="fill:#170240;"/>
    <path clip-path="url(#pb31ae82721)" d="M 178.361455 178.049733 
L 186.143392 171.330164 
L 198.736391 175.194243 
L 191.031582 181.987547 
z
" style="fill:#814728;"/>
    <path clip-path="url(#pb31ae82721)" d="M 226.292478 165.747667 
L 226.342719 114.059664 
L 239.381897 117.674884 
L 239.002775 169.551023 
z
" style="fill:#5e2b28;"/>
    <path clip-path="url(#pb31ae82721)" d="M 178.361455 178.049733 
L 186.143392 171.330164 
L 185.902223 158.671664 
L 178.068383 165.313429 
z
" style="fill:#230144;"/>
    <path clip-path="url(#pb31ae82721)" d="M 218.949524 172.361429 
L 226.292478 165.747667 
L 226.337422 119.509406 
L 218.824389 125.83227 
z
" style="fill:#59232e;"/>
    <path clip-path="url(#pb31ae82721)" d="M 165.458204 161.463443 
L 178.068383 165.313429 
L 185.902223 158.671664 
L 173.367976 154.893829 
z
" style="fill:#40017d;"/>
    <path clip-path="url(#pb31ae82721)" d="M 239.002775 169.551023 
L 251.851153 173.395697 
L 252.309075 140.062569 
L 239.245508 136.337319 
z
" style="fill:#992282;"/>
    <path clip-path="url(#pb31ae82721)" d="M 284.848695 174.43298 
L 298.036935 178.33102 
L 298.302037 171.144785 
L 285.065169 167.272032 
z
" style="fill:#300487;"/>
    <path clip-path="url(#pb31ae82721)" d="M 211.467294 179.100638 
L 218.949524 172.361429 
L 231.739835 176.23678 
L 224.338378 183.050047 
z
" style="fill:#86551f;"/>
    <path clip-path="url(#pb31ae82721)" d="M 271.803162 170.57712 
L 272.504243 140.954314 
L 285.7474 144.703906 
L 284.848695 174.43298 
z
" style="fill:#430b41;"/>
    <path clip-path="url(#pb31ae82721)" d="M 198.736391 175.194243 
L 206.297214 168.527892 
L 205.985405 133.830516 
L 198.289661 140.280211 
z
" style="fill:#4b123b;"/>
    <path clip-path="url(#pb31ae82721)" d="M 218.949524 172.361429 
L 218.809637 120.346917 
L 226.342719 114.059664 
L 226.292478 165.747667 
z
" style="fill:#c85a55;"/>
    <path clip-path="url(#pb31ae82721)" d="M 165.82912 174.154745 
L 178.361455 178.049733 
L 178.068383 165.313429 
L 165.458204 161.463443 
z
" style="fill:#490290;"/>
    <path clip-path="url(#pb31ae82721)" d="M 206.297214 168.527892 
L 218.949524 172.361429 
L 218.824389 125.83227 
L 205.880591 122.167013 
z
" style="fill:#bc4a61;"/>
    <path clip-path="url(#pb31ae82721)" d="M 244.670417 180.154631 
L 251.851153 173.395697 
L 264.839875 177.282368 
L 257.743589 184.115686 
z
" style="fill:#773435;"/>
    <path clip-path="url(#pb31ae82721)" d="M 284.848695 174.43298 
L 285.283172 160.060514 
L 298.569021 163.907519 
L 298.036935 178.33102 
z
" style="fill:#270045;"/>
    <path clip-path="url(#pb31ae82721)" d="M 264.839875 177.282368 
L 265.443847 147.475152 
L 272.504243 140.954314 
L 271.803162 170.57712 
z
" style="fill:#8d178a;"/>
    <path clip-path="url(#pb31ae82721)" d="M 186.143392 171.330164 
L 198.736391 175.194243 
L 198.289661 140.280211 
L 185.480599 136.541457 
z
" style="fill:#9e277e;"/>
    <path clip-path="url(#pb31ae82721)" d="M 157.822766 180.928173 
L 165.82912 174.154745 
L 178.361455 178.049733 
L 170.430723 184.897786 
z
" style="fill:#581051;"/>
    <path clip-path="url(#pb31ae82721)" d="M 264.839875 177.282368 
L 271.803162 170.57712 
L 272.58012 137.748261 
L 265.509225 144.248641 
z
" style="fill:#48103d;"/>
    <path clip-path="url(#pb31ae82721)" d="M 277.971253 181.211726 
L 284.848695 174.43298 
L 298.036935 178.33102 
L 291.24765 185.184478 
z
" style="fill:#310058;"/>
    <path clip-path="url(#pb31ae82721)" d="M 239.245508 136.337319 
L 252.309075 140.062569 
L 259.467792 133.636084 
L 246.488374 129.980898 
z
" style="fill:#851e70;"/>
    <path clip-path="url(#pb31ae82721)" d="M 277.971253 181.211726 
L 278.360038 166.750702 
L 285.283172 160.060514 
L 284.848695 174.43298 
z
" style="fill:#520192;"/>
    <path clip-path="url(#pb31ae82721)" d="M 239.002775 169.551023 
L 239.37255 118.953915 
L 252.548775 122.614271 
L 251.851153 173.395697 
z
" style="fill:#5d2929;"/>
    <path clip-path="url(#pb31ae82721)" d="M 191.031582 181.987547 
L 198.736391 175.194243 
L 211.467294 179.100638 
L 203.841786 185.968896 
z
" style="fill:#876b15;"/>
    <path clip-path="url(#pb31ae82721)" d="M 251.851153 173.395697 
L 264.839875 177.282368 
L 265.509225 144.248641 
L 252.303334 140.480477 
z
" style="fill:#982182;"/>
    <path clip-path="url(#pb31ae82721)" d="M 165.82912 174.154745 
L 164.928697 143.34582 
L 177.649969 147.130031 
L 178.361455 178.049733 
z
" style="fill:#450d40;"/>
    <path clip-path="url(#pb31ae82721)" d="M 224.338378 183.050047 
L 231.739835 176.23678 
L 244.670417 180.154631 
L 237.351973 187.043183 
z
" style="fill:#86561e;"/>
    <path clip-path="url(#pb31ae82721)" d="M 231.739835 176.23678 
L 231.928277 125.319792 
L 239.37255 118.953915 
L 239.002775 169.551023 
z
" style="fill:#c65757;"/>
    <path clip-path="url(#pb31ae82721)" d="M 231.739835 176.23678 
L 239.002775 169.551023 
L 239.381897 117.674884 
L 231.933042 124.03236 
z
" style="fill:#5e2b28;"/>
    <path clip-path="url(#pb31ae82721)" d="M 185.480599 136.541457 
L 198.289661 140.280211 
L 205.985405 133.830516 
L 193.255431 130.16231 
z
" style="fill:#89226d;"/>
    <path clip-path="url(#pb31ae82721)" d="M 206.297214 168.527892 
L 205.697554 101.799062 
L 218.769403 105.386701 
L 218.949524 172.361429 
z
" style="fill:#684218;"/>
    <path clip-path="url(#pb31ae82721)" d="M 257.743589 184.115686 
L 264.839875 177.282368 
L 277.971253 181.211726 
L 270.961723 188.120663 
z
" style="fill:#722d3b;"/>
    <path clip-path="url(#pb31ae82721)" d="M 157.822766 180.928173 
L 156.789246 149.927015 
L 164.928697 143.34582 
L 165.82912 174.154745 
z
" style="fill:#911b87;"/>
    <path clip-path="url(#pb31ae82721)" d="M 277.971253 181.211726 
L 284.848695 174.43298 
L 285.7474 144.703906 
L 278.775503 151.29729 
z
" style="fill:#430b41;"/>
    <path clip-path="url(#pb31ae82721)" d="M 205.880591 122.167013 
L 218.824389 125.83227 
L 226.337422 119.509406 
L 213.475117 115.913424 
z
" style="fill:#a44054;"/>
    <path clip-path="url(#pb31ae82721)" d="M 170.430723 184.897786 
L 178.361455 178.049733 
L 191.031582 181.987547 
L 183.178635 188.911464 
z
" style="fill:#876b15;"/>
    <path clip-path="url(#pb31ae82721)" d="M 218.949524 172.361429 
L 231.739835 176.23678 
L 231.933042 124.03236 
L 218.809637 120.346917 
z
" style="fill:#c85a55;"/>
    <path clip-path="url(#pb31ae82721)" d="M 252.303334 140.480477 
L 265.509225 144.248641 
L 272.58012 137.748261 
L 259.46065 134.051339 
z
" style="fill:#841d71;"/>
    <path clip-path="url(#pb31ae82721)" d="M 198.736391 175.194243 
L 197.877126 108.038638 
L 205.697554 101.799062 
L 206.297214 168.527892 
z
" style="fill:#dd8d33;"/>
    <path clip-path="url(#pb31ae82721)" d="M 186.143392 171.330164 
L 184.996276 111.120275 
L 197.963169 114.763275 
L 198.736391 175.194243 
z
" style="fill:#65381f;"/>
    <path clip-path="url(#pb31ae82721)" d="M 251.851153 173.395697 
L 252.543029 123.032521 
L 265.864088 126.735462 
L 264.839875 177.282368 
z
" style="fill:#5d282a;"/>
    <path clip-path="url(#pb31ae82721)" d="M 291.24765 185.184478 
L 298.036935 178.33102 
L 298.569021 163.907519 
L 291.735374 170.67198 
z
" style="fill:#270045;"/>
    <path clip-path="url(#pb31ae82721)" d="M 203.841786 185.968896 
L 211.467294 179.100638 
L 224.338378 183.050047 
L 216.794403 189.994506 
z
" style="fill:#857413;"/>
    <path clip-path="url(#pb31ae82721)" d="M 264.839875 177.282368 
L 277.971253 181.211726 
L 278.775503 151.29729 
L 265.443847 147.475152 
z
" style="fill:#8d178a;"/>
    <path clip-path="url(#pb31ae82721)" d="M 278.360038 166.750702 
L 291.735374 170.67198 
L 298.569021 163.907519 
L 285.283172 160.060514 
z
" style="fill:#47017f;"/>
    <path clip-path="url(#pb31ae82721)" d="M 277.971253 181.211726 
L 278.300032 168.982654 
L 291.660094 172.911952 
L 291.24765 185.184478 
z
" style="fill:#220144;"/>
    <path clip-path="url(#pb31ae82721)" d="M 178.361455 178.049733 
L 176.96715 117.456156 
L 184.996276 111.120275 
L 186.143392 171.330164 
z
" style="fill:#d67642;"/>
    <path clip-path="url(#pb31ae82721)" d="M 237.351973 187.043183 
L 244.670417 180.154631 
L 257.743589 184.115686 
L 250.510457 191.080779 
z
" style="fill:#844f23;"/>
    <path clip-path="url(#pb31ae82721)" d="M 244.670417 180.154631 
L 245.186695 129.472603 
L 252.543029 123.032521 
L 251.851153 173.395697 
z
" style="fill:#c45559;"/>
    <path clip-path="url(#pb31ae82721)" d="M 277.971253 181.211726 
L 291.24765 185.184478 
L 291.735374 170.67198 
L 278.360038 166.750702 
z
" style="fill:#520192;"/>
    <path clip-path="url(#pb31ae82721)" d="M 244.670417 180.154631 
L 251.851153 173.395697 
L 252.548775 122.614271 
L 245.190984 129.051603 
z
" style="fill:#5d2929;"/>
    <path clip-path="url(#pb31ae82721)" d="M 218.949524 172.361429 
L 218.769696 105.495647 
L 231.988217 109.124154 
L 231.739835 176.23678 
z
" style="fill:#684218;"/>
    <path clip-path="url(#pb31ae82721)" d="M 149.662704 187.831639 
L 157.822766 180.928173 
L 170.430723 184.897786 
L 162.346885 191.878042 
z
" style="fill:#793733;"/>
    <path clip-path="url(#pb31ae82721)" d="M 265.443847 147.475152 
L 278.775503 151.29729 
L 285.7474 144.703906 
L 272.504243 140.954314 
z
" style="fill:#7a1478;"/>
    <path clip-path="url(#pb31ae82721)" d="M 270.961723 188.120663 
L 277.971253 181.211726 
L 291.24765 185.184478 
L 284.327244 192.170297 
z
" style="fill:#2b0157;"/>
    <path clip-path="url(#pb31ae82721)" d="M 270.961723 188.120663 
L 271.250294 175.816191 
L 278.300032 168.982654 
L 277.971253 181.211726 
z
" style="fill:#480290;"/>
    <path clip-path="url(#pb31ae82721)" d="M 170.430723 184.897786 
L 178.361455 178.049733 
L 177.649969 147.130031 
L 169.588409 153.784864 
z
" style="fill:#450d40;"/>
    <path clip-path="url(#pb31ae82721)" d="M 231.739835 176.23678 
L 244.670417 180.154631 
L 245.190984 129.051603 
L 231.928277 125.319792 
z
" style="fill:#c65757;"/>
    <path clip-path="url(#pb31ae82721)" d="M 183.178635 188.911464 
L 191.031582 181.987547 
L 203.841786 185.968896 
L 196.068846 192.969946 
z
" style="fill:#866e14;"/>
    <path clip-path="url(#pb31ae82721)" d="M 264.839875 177.282368 
L 265.786043 130.587143 
L 279.231229 134.346359 
L 277.971253 181.211726 
z
" style="fill:#59232e;"/>
    <path clip-path="url(#pb31ae82721)" d="M 211.467294 179.100638 
L 211.033571 111.806446 
L 218.769696 105.495647 
L 218.949524 172.361429 
z
" style="fill:#dd8d33;"/>
    <path clip-path="url(#pb31ae82721)" d="M 211.467294 179.100638 
L 218.949524 172.361429 
L 218.769403 105.386701 
L 211.032864 111.696767 
z
" style="fill:#684218;"/>
    <path clip-path="url(#pb31ae82721)" d="M 157.822766 180.928173 
L 170.430723 184.897786 
L 169.588409 153.784864 
L 156.789246 149.927015 
z
" style="fill:#911b87;"/>
    <path clip-path="url(#pb31ae82721)" d="M 216.794403 189.994506 
L 224.338378 183.050047 
L 237.351973 187.043183 
L 229.891821 194.06512 
z
" style="fill:#857413;"/>
    <path clip-path="url(#pb31ae82721)" d="M 257.743589 184.115686 
L 258.531607 137.125197 
L 265.786043 130.587143 
L 264.839875 177.282368 
z
" style="fill:#bc4a61;"/>
    <path clip-path="url(#pb31ae82721)" d="M 198.736391 175.194243 
L 211.467294 179.100638 
L 211.032864 111.696767 
L 197.877126 108.038638 
z
" style="fill:#dd8d33;"/>
    <path clip-path="url(#pb31ae82721)" d="M 218.809637 120.346917 
L 231.933042 124.03236 
L 239.381897 117.674884 
L 226.342719 114.059664 
z
" style="fill:#ad4f4a;"/>
    <path clip-path="url(#pb31ae82721)" d="M 191.031582 181.987547 
L 198.736391 175.194243 
L 197.963169 114.763275 
L 190.015792 121.170796 
z
" style="fill:#65381f;"/>
    <path clip-path="url(#pb31ae82721)" d="M 250.510457 191.080779 
L 257.743589 184.115686 
L 270.961723 188.120663 
L 263.816264 195.163579 
z
" style="fill:#732e3a;"/>
    <path clip-path="url(#pb31ae82721)" d="M 257.743589 184.115686 
L 264.839875 177.282368 
L 265.864088 126.735462 
L 258.596622 133.248225 
z
" style="fill:#5d282a;"/>
    <path clip-path="url(#pb31ae82721)" d="M 231.739835 176.23678 
L 231.990632 108.471432 
L 245.363271 112.13854 
L 244.670417 180.154631 
z
" style="fill:#694418;"/>
    <path clip-path="url(#pb31ae82721)" d="M 162.346885 191.878042 
L 170.430723 184.897786 
L 183.178635 188.911464 
L 175.173234 195.969799 
z
" style="fill:#857313;"/>
    <path clip-path="url(#pb31ae82721)" d="M 156.789246 149.927015 
L 169.588409 153.784864 
L 177.649969 147.130031 
L 164.928697 143.34582 
z
" style="fill:#7e1875;"/>
    <path clip-path="url(#pb31ae82721)" d="M 198.736391 175.194243 
L 197.759346 98.833599 
L 210.973304 102.455767 
L 211.467294 179.100638 
z
" style="fill:#695310;"/>
    <path clip-path="url(#pb31ae82721)" d="M 284.327244 192.170297 
L 291.24765 185.184478 
L 291.660094 172.911952 
L 284.700623 179.822004 
z
" style="fill:#220144;"/>
    <path clip-path="url(#pb31ae82721)" d="M 270.961723 188.120663 
L 271.062876 183.807578 
L 284.458122 187.841949 
L 284.327244 192.170297 
z
" style="fill:#10023d;"/>
    <path clip-path="url(#pb31ae82721)" d="M 178.361455 178.049733 
L 191.031582 181.987547 
L 190.015792 121.170796 
L 176.96715 117.456156 
z
" style="fill:#d67642;"/>
    <path clip-path="url(#pb31ae82721)" d="M 271.250294 175.816191 
L 284.700623 179.822004 
L 291.660094 172.911952 
L 278.300032 168.982654 
z
" style="fill:#3e017d;"/>
    <path clip-path="url(#pb31ae82721)" d="M 244.670417 180.154631 
L 257.743589 184.115686 
L 258.596622 133.248225 
L 245.186695 129.472603 
z
" style="fill:#c45559;"/>
    <path clip-path="url(#pb31ae82721)" d="M 196.068846 192.969946 
L 203.841786 185.968896 
L 216.794403 189.994506 
L 209.103753 197.073984 
z
" style="fill:#827d15;"/>
    <path clip-path="url(#pb31ae82721)" d="M 224.338378 183.050047 
L 231.739835 176.23678 
L 231.988217 109.124154 
L 224.338378 115.506649 
z
" style="fill:#684218;"/>
    <path clip-path="url(#pb31ae82721)" d="M 224.338378 183.050047 
L 224.338378 114.849525 
L 231.990632 108.471432 
L 231.739835 176.23678 
z
" style="fill:#de8f32;"/>
    <path clip-path="url(#pb31ae82721)" d="M 191.031582 181.987547 
L 189.747931 105.1336 
L 197.759346 98.833599 
L 198.736391 175.194243 
z
" style="fill:#dfb122;"/>
    <path clip-path="url(#pb31ae82721)" d="M 270.961723 188.120663 
L 284.327244 192.170297 
L 284.700623 179.822004 
L 271.250294 175.816191 
z
" style="fill:#480290;"/>
    <path clip-path="url(#pb31ae82721)" d="M 157.822766 180.928173 
L 156.072414 128.425148 
L 169.00411 132.202344 
L 170.430723 184.897786 
z
" style="fill:#5f2b28;"/>
    <path clip-path="url(#pb31ae82721)" d="M 263.816264 195.163579 
L 263.902746 190.824012 
L 271.062876 183.807578 
L 270.961723 188.120663 
z
" style="fill:#210581;"/>
    <path clip-path="url(#pb31ae82721)" d="M 229.891821 194.06512 
L 237.351973 187.043183 
L 250.510457 191.080779 
L 243.136481 198.181496 
z
" style="fill:#876417;"/>
    <path clip-path="url(#pb31ae82721)" d="M 231.928277 125.319792 
L 245.190984 129.051603 
L 252.548775 122.614271 
L 239.37255 118.953915 
z
" style="fill:#ac4c4c;"/>
    <path clip-path="url(#pb31ae82721)" d="M 270.961723 188.120663 
L 277.971253 181.211726 
L 279.231229 134.346359 
L 272.067795 140.958478 
z
" style="fill:#59232e;"/>
    <path clip-path="url(#pb31ae82721)" d="M 211.467294 179.100638 
L 224.338378 183.050047 
L 224.338378 115.506649 
L 211.033571 111.806446 
z
" style="fill:#dd8d33;"/>
    <path clip-path="url(#pb31ae82721)" d="M 141.344465 194.868925 
L 149.662704 187.831639 
L 162.346885 191.878042 
L 154.105465 198.994368 
z
" style="fill:#80442a;"/>
    <path clip-path="url(#pb31ae82721)" d="M 263.816264 195.163579 
L 270.961723 188.120663 
L 284.327244 192.170297 
L 277.271882 199.292348 
z
" style="fill:#14034e;"/>
    <path clip-path="url(#pb31ae82721)" d="M 244.670417 180.154631 
L 245.326915 115.707536 
L 258.828345 119.430336 
L 257.743589 184.115686 
z
" style="fill:#673e1b;"/>
    <path clip-path="url(#pb31ae82721)" d="M 178.361455 178.049733 
L 176.600009 101.501002 
L 189.748263 105.153503 
L 191.031582 181.987547 
z
" style="fill:#695310;"/>
    <path clip-path="url(#pb31ae82721)" d="M 149.662704 187.831639 
L 147.678256 134.994692 
L 156.072414 128.425148 
L 157.822766 180.928173 
z
" style="fill:#c95c54;"/>
    <path clip-path="url(#pb31ae82721)" d="M 175.173234 195.969799 
L 183.178635 188.911464 
L 196.068846 192.969946 
L 188.144156 200.107676 
z
" style="fill:#847814;"/>
    <path clip-path="url(#pb31ae82721)" d="M 257.743589 184.115686 
L 270.961723 188.120663 
L 272.067795 140.958478 
L 258.531607 137.125197 
z
" style="fill:#bc4a61;"/>
    <path clip-path="url(#pb31ae82721)" d="M 257.743589 184.115686 
L 258.544661 136.346775 
L 272.08612 140.177108 
L 270.961723 188.120663 
z
" style="fill:#5a242d;"/>
    <path clip-path="url(#pb31ae82721)" d="M 263.902746 190.824012 
L 277.388495 194.937393 
L 284.458122 187.841949 
L 271.062876 183.807578 
z
" style="fill:#1d0470;"/>
    <path clip-path="url(#pb31ae82721)" d="M 237.351973 187.043183 
L 237.776327 122.182599 
L 245.326915 115.707536 
L 244.670417 180.154631 
z
" style="fill:#db8339;"/>
    <path clip-path="url(#pb31ae82721)" d="M 170.430723 184.897786 
L 168.344929 107.853871 
L 176.600009 101.501002 
L 178.361455 178.049733 
z
" style="fill:#dfb122;"/>
    <path clip-path="url(#pb31ae82721)" d="M 209.103753 197.073984 
L 216.794403 189.994506 
L 229.891821 194.06512 
L 222.285805 201.224351 
z
" style="fill:#808512;"/>
    <path clip-path="url(#pb31ae82721)" d="M 211.467294 179.100638 
L 210.948018 98.532576 
L 224.338378 102.180663 
L 224.338378 183.050047 
z
" style="fill:#685b0f;"/>
    <path clip-path="url(#pb31ae82721)" d="M 237.351973 187.043183 
L 244.670417 180.154631 
L 245.363271 112.13854 
L 237.799835 118.58953 
z
" style="fill:#694418;"/>
    <path clip-path="url(#pb31ae82721)" d="M 250.510457 191.080779 
L 251.144273 143.008797 
L 258.544661 136.346775 
L 257.743589 184.115686 
z
" style="fill:#be4c60;"/>
    <path clip-path="url(#pb31ae82721)" d="M 203.841786 185.968896 
L 211.467294 179.100638 
L 210.973304 102.455767 
L 203.047307 108.827968 
z
" style="fill:#695310;"/>
    <path clip-path="url(#pb31ae82721)" d="M 277.271882 199.292348 
L 284.327244 192.170297 
L 284.458122 187.841949 
L 277.388495 194.937393 
z
" style="fill:#10023d;"/>
    <path clip-path="url(#pb31ae82721)" d="M 243.136481 198.181496 
L 250.510457 191.080779 
L 263.816264 195.163579 
L 256.530882 202.34441 
z
" style="fill:#5c144f;"/>
    <path clip-path="url(#pb31ae82721)" d="M 245.186695 129.472603 
L 258.596622 133.248225 
L 265.864088 126.735462 
L 252.543029 123.032521 
z
" style="fill:#ab4a4d;"/>
    <path clip-path="url(#pb31ae82721)" d="M 203.841786 185.968896 
L 203.006624 104.87786 
L 210.948018 98.532576 
L 211.467294 179.100638 
z
" style="fill:#ddc120;"/>
    <path clip-path="url(#pb31ae82721)" d="M 224.338378 183.050047 
L 237.351973 187.043183 
L 237.799835 118.58953 
L 224.338378 114.849525 
z
" style="fill:#de8f32;"/>
    <path clip-path="url(#pb31ae82721)" d="M 154.105465 198.994368 
L 162.346885 191.878042 
L 175.173234 195.969799 
L 167.010898 203.166503 
z
" style="fill:#86581d;"/>
    <path clip-path="url(#pb31ae82721)" d="M 263.816264 195.163579 
L 263.853693 193.285407 
L 277.322352 197.407529 
L 277.271882 199.292348 
z
" style="fill:#09033a;"/>
    <path clip-path="url(#pb31ae82721)" d="M 197.877126 108.038638 
L 211.032864 111.696767 
L 218.769403 105.386701 
L 205.697554 101.799062 
z
" style="fill:#c07a2d;"/>
    <path clip-path="url(#pb31ae82721)" d="M 191.031582 181.987547 
L 203.841786 185.968896 
L 203.047307 108.827968 
L 189.747931 105.1336 
z
" style="fill:#dfb122;"/>
    <path clip-path="url(#pb31ae82721)" d="M 263.816264 195.163579 
L 277.271882 199.292348 
L 277.388495 194.937393 
L 263.902746 190.824012 
z
" style="fill:#210581;"/>
    <path clip-path="url(#pb31ae82721)" d="M 162.346885 191.878042 
L 170.430723 184.897786 
L 169.00411 132.202344 
L 160.690083 138.846913 
z
" style="fill:#5f2b28;"/>
    <path clip-path="url(#pb31ae82721)" d="M 191.031582 181.987547 
L 189.722195 103.592797 
L 203.031375 107.281075 
L 203.841786 185.968896 
z
" style="fill:#69560f;"/>
    <path clip-path="url(#pb31ae82721)" d="M 176.96715 117.456156 
L 190.015792 121.170796 
L 197.963169 114.763275 
L 184.996276 111.120275 
z
" style="fill:#ba6639;"/>
    <path clip-path="url(#pb31ae82721)" d="M 188.144156 200.107676 
L 196.068846 192.969946 
L 209.103753 197.073984 
L 201.262108 204.292457 
z
" style="fill:#818214;"/>
    <path clip-path="url(#pb31ae82721)" d="M 256.530882 202.34441 
L 256.561703 200.454706 
L 263.853693 193.285407 
L 263.816264 195.163579 
z
" style="fill:#13067a;"/>
    <path clip-path="url(#pb31ae82721)" d="M 250.510457 191.080779 
L 250.949758 157.761865 
L 264.482676 161.723917 
L 263.816264 195.163579 
z
" style="fill:#48103d;"/>
    <path clip-path="url(#pb31ae82721)" d="M 250.510457 191.080779 
L 257.743589 184.115686 
L 258.828345 119.430336 
L 251.368797 125.979699 
z
" style="fill:#673e1b;"/>
    <path clip-path="url(#pb31ae82721)" d="M 183.178635 188.911464 
L 191.031582 181.987547 
L 189.748263 105.153503 
L 181.5769 111.579484 
z
" style="fill:#695310;"/>
    <path clip-path="url(#pb31ae82721)" d="M 149.662704 187.831639 
L 162.346885 191.878042 
L 160.690083 138.846913 
L 147.678256 134.994692 
z
" style="fill:#c95c54;"/>
    <path clip-path="url(#pb31ae82721)" d="M 258.531607 137.125197 
L 272.067795 140.958478 
L 279.231229 134.346359 
L 265.786043 130.587143 
z
" style="fill:#a44054;"/>
    <path clip-path="url(#pb31ae82721)" d="M 222.285805 201.224351 
L 229.891821 194.06512 
L 243.136481 198.181496 
L 235.617509 205.421836 
z
" style="fill:#875c1b;"/>
    <path clip-path="url(#pb31ae82721)" d="M 183.178635 188.911464 
L 181.544352 110.008069 
L 189.722195 103.592797 
L 191.031582 181.987547 
z
" style="fill:#dfb621;"/>
    <path clip-path="url(#pb31ae82721)" d="M 224.338378 183.050047 
L 224.338378 102.170833 
L 237.883113 105.860921 
L 237.351973 187.043183 
z
" style="fill:#685b0f;"/>
    <path clip-path="url(#pb31ae82721)" d="M 263.816264 195.163579 
L 270.961723 188.120663 
L 272.08612 140.177108 
L 264.777792 146.915376 
z
" style="fill:#5a242d;"/>
    <path clip-path="url(#pb31ae82721)" d="M 243.136481 198.181496 
L 243.455133 164.653057 
L 250.949758 157.761865 
L 250.510457 191.080779 
z
" style="fill:#982182;"/>
    <path clip-path="url(#pb31ae82721)" d="M 149.662704 187.831639 
L 147.416508 128.025517 
L 160.471515 131.850953 
L 162.346885 191.878042 
z
" style="fill:#643520;"/>
    <path clip-path="url(#pb31ae82721)" d="M 256.530882 202.34441 
L 263.816264 195.163579 
L 277.271882 199.292348 
L 270.077576 206.554656 
z
" style="fill:#0c044a;"/>
    <path clip-path="url(#pb31ae82721)" d="M 237.351973 187.043183 
L 250.510457 191.080779 
L 251.368797 125.979699 
L 237.776327 122.182599 
z
" style="fill:#db8339;"/>
    <path clip-path="url(#pb31ae82721)" d="M 170.430723 184.897786 
L 183.178635 188.911464 
L 181.5769 111.579484 
L 168.344929 107.853871 
z
" style="fill:#dfb122;"/>
    <path clip-path="url(#pb31ae82721)" d="M 216.794403 189.994506 
L 224.338378 183.050047 
L 224.338378 102.180663 
L 216.485235 108.599225 
z
" style="fill:#685b0f;"/>
    <path clip-path="url(#pb31ae82721)" d="M 216.794403 189.994506 
L 216.485197 108.589326 
L 224.338378 102.170833 
L 224.338378 183.050047 
z
" style="fill:#ddc120;"/>
    <path clip-path="url(#pb31ae82721)" d="M 256.561703 200.454706 
L 270.121616 204.658253 
L 277.322352 197.407529 
L 263.853693 193.285407 
z
" style="fill:#11056a;"/>
    <path clip-path="url(#pb31ae82721)" d="M 170.430723 184.897786 
L 168.245982 104.199026 
L 181.500899 107.910148 
L 183.178635 188.911464 
z
" style="fill:#685a0f;"/>
    <path clip-path="url(#pb31ae82721)" d="M 167.010898 203.166503 
L 175.173234 195.969799 
L 188.144156 200.107676 
L 180.063228 207.386128 
z
" style="fill:#86561f;"/>
    <path clip-path="url(#pb31ae82721)" d="M 211.033571 111.806446 
L 224.338378 115.506649 
L 231.988217 109.124154 
L 218.769696 105.495647 
z
" style="fill:#c07a2d;"/>
    <path clip-path="url(#pb31ae82721)" d="M 250.510457 191.080779 
L 263.816264 195.163579 
L 264.777792 146.915376 
L 251.144273 143.008797 
z
" style="fill:#be4c60;"/>
    <path clip-path="url(#pb31ae82721)" d="M 141.344465 194.868925 
L 138.823131 134.679333 
L 147.416508 128.025517 
L 149.662704 187.831639 
z
" style="fill:#d47145;"/>
    <path clip-path="url(#pb31ae82721)" d="M 237.351973 187.043183 
L 237.838749 112.641705 
L 251.495084 116.401434 
L 250.510457 191.080779 
z
" style="fill:#6a4e12;"/>
    <path clip-path="url(#pb31ae82721)" d="M 201.262108 204.292457 
L 209.103753 197.073984 
L 222.285805 201.224351 
L 214.529606 208.524945 
z
" style="fill:#818214;"/>
    <path clip-path="url(#pb31ae82721)" d="M 203.841786 185.968896 
L 216.794403 189.994506 
L 216.485235 108.599225 
L 203.006624 104.87786 
z
" style="fill:#ddc120;"/>
    <path clip-path="url(#pb31ae82721)" d="M 162.346885 191.878042 
L 159.809284 110.654175 
L 168.245982 104.199026 
L 170.430723 184.897786 
z
" style="fill:#ddbf20;"/>
    <path clip-path="url(#pb31ae82721)" d="M 270.077576 206.554656 
L 277.271882 199.292348 
L 277.322352 197.407529 
L 270.121616 204.658253 
z
" style="fill:#09033a;"/>
    <path clip-path="url(#pb31ae82721)" d="M 243.136481 198.181496 
L 243.296063 181.390422 
L 256.805729 185.49315 
L 256.530882 202.34441 
z
" style="fill:#2a0046;"/>
    <path clip-path="url(#pb31ae82721)" d="M 203.841786 185.968896 
L 202.970502 101.370522 
L 216.471859 105.077896 
L 216.794403 189.994506 
z
" style="fill:#666210;"/>
    <path clip-path="url(#pb31ae82721)" d="M 235.617509 205.421836 
L 243.136481 198.181496 
L 256.530882 202.34441 
L 249.101427 209.667246 
z
" style="fill:#360059;"/>
    <path clip-path="url(#pb31ae82721)" d="M 196.068846 192.969946 
L 203.841786 185.968896 
L 203.031375 107.281075 
L 194.939865 113.770662 
z
" style="fill:#69560f;"/>
    <path clip-path="url(#pb31ae82721)" d="M 229.891821 194.06512 
L 230.101636 119.181401 
L 237.838749 112.641705 
L 237.351973 187.043183 
z
" style="fill:#e0a626;"/>
    <path clip-path="url(#pb31ae82721)" d="M 256.530882 202.34441 
L 256.549425 201.207492 
L 270.104072 205.41371 
L 270.077576 206.554656 
z
" style="fill:#070339;"/>
    <path clip-path="url(#pb31ae82721)" d="M 256.530882 202.34441 
L 270.077576 206.554656 
L 270.121616 204.658253 
L 256.561703 200.454706 
z
" style="fill:#13067a;"/>
    <path clip-path="url(#pb31ae82721)" d="M 235.617509 205.421836 
L 235.714209 188.526337 
L 243.296063 181.390422 
L 243.136481 198.181496 
z
" style="fill:#5a0094;"/>
    <path clip-path="url(#pb31ae82721)" d="M 256.530882 202.34441 
L 263.816264 195.163579 
L 264.482676 161.723917 
L 257.079723 168.694182 
z
" style="fill:#48103d;"/>
    <path clip-path="url(#pb31ae82721)" d="M 196.068846 192.969946 
L 194.855028 107.819245 
L 202.970502 101.370522 
L 203.841786 185.968896 
z
" style="fill:#d8d022;"/>
    <path clip-path="url(#pb31ae82721)" d="M 183.178635 188.911464 
L 196.068846 192.969946 
L 194.939865 113.770662 
L 181.544352 110.008069 
z
" style="fill:#dfb621;"/>
    <path clip-path="url(#pb31ae82721)" d="M 229.891821 194.06512 
L 237.351973 187.043183 
L 237.883113 105.860921 
L 230.120765 112.353969 
z
" style="fill:#685b0f;"/>
    <path clip-path="url(#pb31ae82721)" d="M 147.678256 134.994692 
L 160.690083 138.846913 
L 169.00411 132.202344 
L 156.072414 128.425148 
z
" style="fill:#ae4f49;"/>
    <path clip-path="url(#pb31ae82721)" d="M 180.063228 207.386128 
L 188.144156 200.107676 
L 201.262108 204.292457 
L 193.264978 211.654059 
z
" style="fill:#876019;"/>
    <path clip-path="url(#pb31ae82721)" d="M 183.178635 188.911464 
L 181.469883 106.412679 
L 194.888409 110.160953 
L 196.068846 192.969946 
z
" style="fill:#675e0f;"/>
    <path clip-path="url(#pb31ae82721)" d="M 224.338378 114.849525 
L 237.799835 118.58953 
L 245.363271 112.13854 
L 231.990632 108.471432 
z
" style="fill:#c17c2b;"/>
    <path clip-path="url(#pb31ae82721)" d="M 249.101427 209.667246 
L 249.115832 208.523339 
L 256.549425 201.207492 
L 256.530882 202.34441 
z
" style="fill:#0e0678;"/>
    <path clip-path="url(#pb31ae82721)" d="M 243.136481 198.181496 
L 256.530882 202.34441 
L 257.079723 168.694182 
L 243.455133 164.653057 
z
" style="fill:#982182;"/>
    <path clip-path="url(#pb31ae82721)" d="M 154.105465 198.994368 
L 162.346885 191.878042 
L 160.471515 131.850953 
L 151.959434 138.58178 
z
" style="fill:#643520;"/>
    <path clip-path="url(#pb31ae82721)" d="M 162.346885 191.878042 
L 160.174975 122.359259 
L 173.440709 126.19188 
L 175.173234 195.969799 
z
" style="fill:#694517;"/>
    <path clip-path="url(#pb31ae82721)" d="M 214.529606 208.524945 
L 222.285805 201.224351 
L 235.617509 205.421836 
L 227.94922 212.80596 
z
" style="fill:#793832;"/>
    <path clip-path="url(#pb31ae82721)" d="M 216.794403 189.994506 
L 229.891821 194.06512 
L 230.120765 112.353969 
L 216.485197 108.589326 
z
" style="fill:#ddc120;"/>
    <path clip-path="url(#pb31ae82721)" d="M 251.144273 143.008797 
L 264.777792 146.915376 
L 272.08612 140.177108 
L 258.544661 136.346775 
z
" style="fill:#a54253;"/>
    <path clip-path="url(#pb31ae82721)" d="M 175.173234 195.969799 
L 183.178635 188.911464 
L 181.500899 107.910148 
L 173.148932 114.440468 
z
" style="fill:#685a0f;"/>
    <path clip-path="url(#pb31ae82721)" d="M 175.173234 195.969799 
L 173.111494 112.932631 
L 181.469883 106.412679 
L 183.178635 188.911464 
z
" style="fill:#dbc721;"/>
    <path clip-path="url(#pb31ae82721)" d="M 141.344465 194.868925 
L 154.105465 198.994368 
L 151.959434 138.58178 
L 138.823131 134.679333 
z
" style="fill:#d47145;"/>
    <path clip-path="url(#pb31ae82721)" d="M 249.101427 209.667246 
L 256.530882 202.34441 
L 270.077576 206.554656 
L 262.740181 213.961405 
z
" style="fill:#090449;"/>
    <path clip-path="url(#pb31ae82721)" d="M 189.747931 105.1336 
L 203.047307 108.827968 
L 210.973304 102.455767 
L 197.759346 98.833599 
z
" style="fill:#c2991e;"/>
    <path clip-path="url(#pb31ae82721)" d="M 216.794403 189.994506 
L 216.460688 102.136855 
L 230.138917 105.875644 
L 229.891821 194.06512 
z
" style="fill:#64680e;"/>
    <path clip-path="url(#pb31ae82721)" d="M 154.105465 198.994368 
L 151.61998 129.025867 
L 160.174975 122.359259 
L 162.346885 191.878042 
z
" style="fill:#de9230;"/>
    <path clip-path="url(#pb31ae82721)" d="M 243.136481 198.181496 
L 250.510457 191.080779 
L 251.495084 116.401434 
L 243.850837 123.017284 
z
" style="fill:#6a4e12;"/>
    <path clip-path="url(#pb31ae82721)" d="M 249.115832 208.523339 
L 262.762648 212.81344 
L 270.104072 205.41371 
L 256.549425 201.207492 
z
" style="fill:#0c0668;"/>
    <path clip-path="url(#pb31ae82721)" d="M 162.346885 191.878042 
L 175.173234 195.969799 
L 173.148932 114.440468 
L 159.809284 110.654175 
z
" style="fill:#ddbf20;"/>
    <path clip-path="url(#pb31ae82721)" d="M 243.455133 164.653057 
L 257.079723 168.694182 
L 264.482676 161.723917 
L 250.949758 157.761865 
z
" style="fill:#841d71;"/>
    <path clip-path="url(#pb31ae82721)" d="M 237.776327 122.182599 
L 251.368797 125.979699 
L 258.828345 119.430336 
L 245.326915 115.707536 
z
" style="fill:#be7132;"/>
    <path clip-path="url(#pb31ae82721)" d="M 235.617509 205.421836 
L 235.666153 196.922781 
L 249.208836 201.137876 
L 249.101427 209.667246 
z
" style="fill:#1a0241;"/>
    <path clip-path="url(#pb31ae82721)" d="M 249.101427 209.667246 
L 256.530882 202.34441 
L 256.805729 185.49315 
L 249.314953 192.711071 
z
" style="fill:#2a0046;"/>
    <path clip-path="url(#pb31ae82721)" d="M 209.103753 197.073984 
L 216.794403 189.994506 
L 216.471859 105.077896 
L 208.445789 111.601973 
z
" style="fill:#666210;"/>
    <path clip-path="url(#pb31ae82721)" d="M 229.891821 194.06512 
L 230.091915 122.650644 
L 243.817735 126.500227 
L 243.136481 198.181496 
z
" style="fill:#694815;"/>
    <path clip-path="url(#pb31ae82721)" d="M 209.103753 197.073984 
L 208.422991 108.640423 
L 216.460688 102.136855 
L 216.794403 189.994506 
z
" style="fill:#d4dc1e;"/>
    <path clip-path="url(#pb31ae82721)" d="M 229.891821 194.06512 
L 243.136481 198.181496 
L 243.850837 123.017284 
L 230.101636 119.181401 
z
" style="fill:#e0a626;"/>
    <path clip-path="url(#pb31ae82721)" d="M 193.264978 211.654059 
L 201.262108 204.292457 
L 214.529606 208.524945 
L 206.61873 215.971129 
z
" style="fill:#86561e;"/>
    <path clip-path="url(#pb31ae82721)" d="M 235.714209 188.526337 
L 249.314953 192.711071 
L 256.805729 185.49315 
L 243.296063 181.390422 
z
" style="fill:#4e0080;"/>
    <path clip-path="url(#pb31ae82721)" d="M 262.740181 213.961405 
L 270.077576 206.554656 
L 270.104072 205.41371 
L 262.762648 212.81344 
z
" style="fill:#070339;"/>
    <path clip-path="url(#pb31ae82721)" d="M 227.94922 212.80596 
L 227.964948 204.254311 
L 235.666153 196.922781 
L 235.617509 205.421836 
z
" style="fill:#360389;"/>
    <path clip-path="url(#pb31ae82721)" d="M 235.617509 205.421836 
L 249.101427 209.667246 
L 249.314953 192.711071 
L 235.714209 188.526337 
z
" style="fill:#5a0094;"/>
    <path clip-path="url(#pb31ae82721)" d="M 196.068846 192.969946 
L 209.103753 197.073984 
L 208.445789 111.601973 
L 194.855028 107.819245 
z
" style="fill:#d8d022;"/>
    <path clip-path="url(#pb31ae82721)" d="M 175.173234 195.969799 
L 173.46811 127.295427 
L 186.881562 131.177116 
L 188.144156 200.107676 
z
" style="fill:#694318;"/>
    <path clip-path="url(#pb31ae82721)" d="M 222.285805 201.224351 
L 222.2111 129.34687 
L 230.091915 122.650644 
L 229.891821 194.06512 
z
" style="fill:#df982d;"/>
    <path clip-path="url(#pb31ae82721)" d="M 196.068846 192.969946 
L 194.828627 105.967173 
L 208.431474 109.742455 
L 209.103753 197.073984 
z
" style="fill:#656510;"/>
    <path clip-path="url(#pb31ae82721)" d="M 227.94922 212.80596 
L 235.617509 205.421836 
L 249.101427 209.667246 
L 241.523583 217.136342 
z
" style="fill:#210253;"/>
    <path clip-path="url(#pb31ae82721)" d="M 168.344929 107.853871 
L 181.5769 111.579484 
L 189.748263 105.153503 
L 176.600009 101.501002 
z
" style="fill:#c2991e;"/>
    <path clip-path="url(#pb31ae82721)" d="M 188.144156 200.107676 
L 196.068846 192.969946 
L 194.888409 110.160953 
L 186.617436 116.757331 
z
" style="fill:#675e0f;"/>
    <path clip-path="url(#pb31ae82721)" d="M 249.101427 209.667246 
L 262.740181 213.961405 
L 262.762648 212.81344 
L 249.115832 208.523339 
z
" style="fill:#0e0678;"/>
    <path clip-path="url(#pb31ae82721)" d="M 249.101427 209.667246 
L 249.116618 208.46094 
L 262.763873 212.750819 
L 262.740181 213.961405 
z
" style="fill:#070339;"/>
    <path clip-path="url(#pb31ae82721)" d="M 167.010898 203.166503 
L 165.00252 134.047537 
L 173.46811 127.295427 
L 175.173234 195.969799 
z
" style="fill:#de8e33;"/>
    <path clip-path="url(#pb31ae82721)" d="M 167.010898 203.166503 
L 175.173234 195.969799 
L 173.440709 126.19188 
L 164.970235 132.936462 
z
" style="fill:#694517;"/>
    <path clip-path="url(#pb31ae82721)" d="M 188.144156 200.107676 
L 186.540084 112.534327 
L 194.828627 105.967173 
L 196.068846 192.969946 
z
" style="fill:#d5d722;"/>
    <path clip-path="url(#pb31ae82721)" d="M 222.285805 201.224351 
L 222.229612 147.158102 
L 235.928098 151.155823 
L 235.617509 205.421836 
z
" style="fill:#5f2c27;"/>
    <path clip-path="url(#pb31ae82721)" d="M 175.173234 195.969799 
L 188.144156 200.107676 
L 186.617436 116.757331 
L 173.111494 112.932631 
z
" style="fill:#dbc721;"/>
    <path clip-path="url(#pb31ae82721)" d="M 241.523583 217.136342 
L 241.53423 215.922609 
L 249.116618 208.46094 
L 249.101427 209.667246 
z
" style="fill:#0e0678;"/>
    <path clip-path="url(#pb31ae82721)" d="M 203.006624 104.87786 
L 216.485235 108.599225 
L 224.338378 102.180663 
L 210.948018 98.532576 
z
" style="fill:#c0a71c;"/>
    <path clip-path="url(#pb31ae82721)" d="M 222.285805 201.224351 
L 229.891821 194.06512 
L 230.138917 105.875644 
L 222.193545 112.455764 
z
" style="fill:#64680e;"/>
    <path clip-path="url(#pb31ae82721)" d="M 154.105465 198.994368 
L 167.010898 203.166503 
L 164.970235 132.936462 
L 151.61998 129.025867 
z
" style="fill:#de9230;"/>
    <path clip-path="url(#pb31ae82721)" d="M 206.61873 215.971129 
L 214.529606 208.524945 
L 227.94922 212.80596 
L 220.127123 220.338193 
z
" style="fill:#4b0658;"/>
    <path clip-path="url(#pb31ae82721)" d="M 227.964948 204.254311 
L 241.59887 208.554141 
L 249.208836 201.137876 
L 235.666153 196.922781 
z
" style="fill:#2f0377;"/>
    <path clip-path="url(#pb31ae82721)" d="M 241.523583 217.136342 
L 249.101427 209.667246 
L 249.208836 201.137876 
L 241.59887 208.554141 
z
" style="fill:#1a0241;"/>
    <path clip-path="url(#pb31ae82721)" d="M 214.529606 208.524945 
L 214.258348 154.112049 
L 222.229612 147.158102 
L 222.285805 201.224351 
z
" style="fill:#c95d53;"/>
    <path clip-path="url(#pb31ae82721)" d="M 235.617509 205.421836 
L 243.136481 198.181496 
L 243.817735 126.500227 
L 236.030437 133.275088 
z
" style="fill:#694815;"/>
    <path clip-path="url(#pb31ae82721)" d="M 209.103753 197.073984 
L 208.432903 109.927971 
L 222.194888 113.74851 
L 222.285805 201.224351 
z
" style="fill:#656510;"/>
    <path clip-path="url(#pb31ae82721)" d="M 227.94922 212.80596 
L 227.954762 209.792705 
L 241.55011 214.112371 
L 241.523583 217.136342 
z
" style="fill:#0c033b;"/>
    <path clip-path="url(#pb31ae82721)" d="M 241.523583 217.136342 
L 249.101427 209.667246 
L 262.740181 213.961405 
L 255.255385 221.516949 
z
" style="fill:#090449;"/>
    <path clip-path="url(#pb31ae82721)" d="M 138.823131 134.679333 
L 151.959434 138.58178 
L 160.471515 131.850953 
L 147.416508 128.025517 
z
" style="fill:#b8623c;"/>
    <path clip-path="url(#pb31ae82721)" d="M 214.529606 208.524945 
L 214.400519 182.630913 
L 227.997016 186.818187 
L 227.94922 212.80596 
z
" style="fill:#3b0545;"/>
    <path clip-path="url(#pb31ae82721)" d="M 209.103753 197.073984 
L 222.285805 201.224351 
L 222.193545 112.455764 
L 208.422991 108.640423 
z
" style="fill:#d4dc1e;"/>
    <path clip-path="url(#pb31ae82721)" d="M 188.144156 200.107676 
L 186.798611 126.648476 
L 200.399189 130.55783 
L 201.262108 204.292457 
z
" style="fill:#6a4b13;"/>
    <path clip-path="url(#pb31ae82721)" d="M 241.53423 215.922609 
L 255.274652 220.298903 
L 262.763873 212.750819 
L 249.116618 208.46094 
z
" style="fill:#0c0668;"/>
    <path clip-path="url(#pb31ae82721)" d="M 181.544352 110.008069 
L 194.939865 113.770662 
L 203.031375 107.281075 
L 189.722195 103.592797 
z
" style="fill:#c19e1c;"/>
    <path clip-path="url(#pb31ae82721)" d="M 227.94922 212.80596 
L 241.523583 217.136342 
L 241.59887 208.554141 
L 227.964948 204.254311 
z
" style="fill:#360389;"/>
    <path clip-path="url(#pb31ae82721)" d="M 180.063228 207.386128 
L 188.144156 200.107676 
L 186.881562 131.177116 
L 178.502979 138.008621 
z
" style="fill:#694318;"/>
    <path clip-path="url(#pb31ae82721)" d="M 222.285805 201.224351 
L 235.617509 205.421836 
L 236.030437 133.275088 
L 222.2111 129.34687 
z
" style="fill:#df982d;"/>
    <path clip-path="url(#pb31ae82721)" d="M 201.262108 204.292457 
L 200.235535 116.574017 
L 208.432903 109.927971 
L 209.103753 197.073984 
z
" style="fill:#d5d722;"/>
    <path clip-path="url(#pb31ae82721)" d="M 201.262108 204.292457 
L 209.103753 197.073984 
L 208.431474 109.742455 
L 200.233349 116.387202 
z
" style="fill:#656510;"/>
    <path clip-path="url(#pb31ae82721)" d="M 220.127123 220.338193 
L 220.120594 217.306348 
L 227.954762 209.792705 
L 227.94922 212.80596 
z
" style="fill:#1a057d;"/>
    <path clip-path="url(#pb31ae82721)" d="M 206.61873 215.971129 
L 206.383178 189.914456 
L 214.400519 182.630913 
L 214.529606 208.524945 
z
" style="fill:#7c0a91;"/>
    <path clip-path="url(#pb31ae82721)" d="M 180.063228 207.386128 
L 178.400435 133.448946 
L 186.798611 126.648476 
L 188.144156 200.107676 
z
" style="fill:#e09f29;"/>
    <path clip-path="url(#pb31ae82721)" d="M 255.255385 221.516949 
L 262.740181 213.961405 
L 262.763873 212.750819 
L 255.274652 220.298903 
z
" style="fill:#070339;"/>
    <path clip-path="url(#pb31ae82721)" d="M 216.485197 108.589326 
L 230.120765 112.353969 
L 237.883113 105.860921 
L 224.338378 102.170833 
z
" style="fill:#c0a71c;"/>
    <path clip-path="url(#pb31ae82721)" d="M 167.010898 203.166503 
L 180.063228 207.386128 
L 178.502979 138.008621 
L 165.00252 134.047537 
z
" style="fill:#de8e33;"/>
    <path clip-path="url(#pb31ae82721)" d="M 188.144156 200.107676 
L 201.262108 204.292457 
L 200.233349 116.387202 
L 186.540084 112.534327 
z
" style="fill:#d5d722;"/>
    <path clip-path="url(#pb31ae82721)" d="M 220.127123 220.338193 
L 227.94922 212.80596 
L 241.523583 217.136342 
L 233.792858 224.756123 
z
" style="fill:#10034c;"/>
    <path clip-path="url(#pb31ae82721)" d="M 227.94922 212.80596 
L 235.617509 205.421836 
L 235.928098 151.155823 
L 228.049665 158.191543 
z
" style="fill:#5f2c27;"/>
    <path clip-path="url(#pb31ae82721)" d="M 241.523583 217.136342 
L 241.530313 216.369106 
L 255.267564 220.746987 
L 255.255385 221.516949 
z
" style="fill:#050338;"/>
    <path clip-path="url(#pb31ae82721)" d="M 201.262108 204.292457 
L 200.449654 134.869968 
L 214.182227 138.842627 
L 214.529606 208.524945 
z
" style="fill:#694418;"/>
    <path clip-path="url(#pb31ae82721)" d="M 241.523583 217.136342 
L 255.255385 221.516949 
L 255.274652 220.298903 
L 241.53423 215.922609 
z
" style="fill:#0e0678;"/>
    <path clip-path="url(#pb31ae82721)" d="M 220.120594 217.306348 
L 233.8076 221.713482 
L 241.55011 214.112371 
L 227.954762 209.792705 
z
" style="fill:#17056d;"/>
    <path clip-path="url(#pb31ae82721)" d="M 230.101636 119.181401 
L 243.850837 123.017284 
L 251.495084 116.401434 
L 237.838749 112.641705 
z
" style="fill:#c29021;"/>
    <path clip-path="url(#pb31ae82721)" d="M 159.809284 110.654175 
L 173.148932 114.440468 
L 181.500899 107.910148 
L 168.245982 104.199026 
z
" style="fill:#c0a61c;"/>
    <path clip-path="url(#pb31ae82721)" d="M 214.529606 208.524945 
L 227.94922 212.80596 
L 228.049665 158.191543 
L 214.258348 154.112049 
z
" style="fill:#c95d53;"/>
    <path clip-path="url(#pb31ae82721)" d="M 233.792858 224.756123 
L 233.796599 223.98416 
L 241.530313 216.369106 
L 241.523583 217.136342 
z
" style="fill:#0b0777;"/>
    <path clip-path="url(#pb31ae82721)" d="M 193.264978 211.654059 
L 192.159734 141.780673 
L 200.449654 134.869968 
L 201.262108 204.292457 
z
" style="fill:#de8f32;"/>
    <path clip-path="url(#pb31ae82721)" d="M 214.529606 208.524945 
L 222.285805 201.224351 
L 222.194888 113.74851 
L 214.090653 120.473542 
z
" style="fill:#656510;"/>
    <path clip-path="url(#pb31ae82721)" d="M 233.792858 224.756123 
L 241.523583 217.136342 
L 241.55011 214.112371 
L 233.8076 221.713482 
z
" style="fill:#0c033b;"/>
    <path clip-path="url(#pb31ae82721)" d="M 220.127123 220.338193 
L 227.94922 212.80596 
L 227.997016 186.818187 
L 220.070813 194.187023 
z
" style="fill:#3b0545;"/>
    <path clip-path="url(#pb31ae82721)" d="M 193.264978 211.654059 
L 201.262108 204.292457 
L 200.399189 130.55783 
L 192.091057 137.438918 
z
" style="fill:#6a4b13;"/>
    <path clip-path="url(#pb31ae82721)" d="M 194.855028 107.819245 
L 208.445789 111.601973 
L 216.471859 105.077896 
L 202.970502 101.370522 
z
" style="fill:#bcb41e;"/>
    <path clip-path="url(#pb31ae82721)" d="M 201.262108 204.292457 
L 214.529606 208.524945 
L 214.090653 120.473542 
L 200.235535 116.574017 
z
" style="fill:#d5d722;"/>
    <path clip-path="url(#pb31ae82721)" d="M 220.127123 220.338193 
L 233.792858 224.756123 
L 233.8076 221.713482 
L 220.120594 217.306348 
z
" style="fill:#1a057d;"/>
    <path clip-path="url(#pb31ae82721)" d="M 233.792858 224.756123 
L 241.523583 217.136342 
L 255.255385 221.516949 
L 247.618703 229.225814 
z
" style="fill:#070448;"/>
    <path clip-path="url(#pb31ae82721)" d="M 206.61873 215.971129 
L 220.127123 220.338193 
L 220.070813 194.187023 
L 206.383178 189.914456 
z
" style="fill:#7c0a91;"/>
    <path clip-path="url(#pb31ae82721)" d="M 233.796599 223.98416 
L 247.627966 228.451105 
L 255.267564 220.746987 
L 241.530313 216.369106 
z
" style="fill:#0a0667;"/>
    <path clip-path="url(#pb31ae82721)" d="M 151.61998 129.025867 
L 164.970235 132.936462 
L 173.440709 126.19188 
L 160.174975 122.359259 
z
" style="fill:#c17e2a;"/>
    <path clip-path="url(#pb31ae82721)" d="M 180.063228 207.386128 
L 193.264978 211.654059 
L 192.091057 137.438918 
L 178.400435 133.448946 
z
" style="fill:#e09f29;"/>
    <path clip-path="url(#pb31ae82721)" d="M 206.383178 189.914456 
L 220.070813 194.187023 
L 227.997016 186.818187 
L 214.400519 182.630913 
z
" style="fill:#6c087e;"/>
    <path clip-path="url(#pb31ae82721)" d="M 173.111494 112.932631 
L 186.617436 116.757331 
L 194.888409 110.160953 
L 181.469883 106.412679 
z
" style="fill:#beac1c;"/>
    <path clip-path="url(#pb31ae82721)" d="M 247.618703 229.225814 
L 255.255385 221.516949 
L 255.267564 220.746987 
L 247.627966 228.451105 
z
" style="fill:#050338;"/>
    <path clip-path="url(#pb31ae82721)" d="M 206.61873 215.971129 
L 214.529606 208.524945 
L 214.182227 138.842627 
L 205.984705 145.835569 
z
" style="fill:#694418;"/>
    <path clip-path="url(#pb31ae82721)" d="M 222.2111 129.34687 
L 236.030437 133.275088 
L 243.817735 126.500227 
L 230.091915 122.650644 
z
" style="fill:#c28427;"/>
    <path clip-path="url(#pb31ae82721)" d="M 233.792858 224.756123 
L 247.618703 229.225814 
L 247.627966 228.451105 
L 233.796599 223.98416 
z
" style="fill:#0b0777;"/>
    <path clip-path="url(#pb31ae82721)" d="M 193.264978 211.654059 
L 206.61873 215.971129 
L 205.984705 145.835569 
L 192.159734 141.780673 
z
" style="fill:#de8f32;"/>
    <path clip-path="url(#pb31ae82721)" d="M 165.00252 134.047537 
L 178.502979 138.008621 
L 186.881562 131.177116 
L 173.46811 127.295427 
z
" style="fill:#c07b2c;"/>
    <path clip-path="url(#pb31ae82721)" d="M 214.258348 154.112049 
L 228.049665 158.191543 
L 235.928098 151.155823 
L 222.229612 147.158102 
z
" style="fill:#af5048;"/>
    <path clip-path="url(#pb31ae82721)" d="M 208.422991 108.640423 
L 222.193545 112.455764 
L 230.138917 105.875644 
L 216.460688 102.136855 
z
" style="fill:#b8bf1a;"/>
    <path clip-path="url(#pb31ae82721)" d="M 186.540084 112.534327 
L 200.233349 116.387202 
L 208.431474 109.742455 
L 194.828627 105.967173 
z
" style="fill:#b9bb1d;"/>
    <path clip-path="url(#pb31ae82721)" d="M 178.400435 133.448946 
L 192.091057 137.438918 
L 200.399189 130.55783 
L 186.798611 126.648476 
z
" style="fill:#c28a24;"/>
    <path clip-path="url(#pb31ae82721)" d="M 200.235535 116.574017 
L 214.090653 120.473542 
L 222.194888 113.74851 
L 208.432903 109.927971 
z
" style="fill:#b9bb1d;"/>
    <path clip-path="url(#pb31ae82721)" d="M 192.159734 141.780673 
L 205.984705 145.835569 
L 214.182227 138.842627 
L 200.449654 134.869968 
z
" style="fill:#c17c2b;"/>
   </g>
   <g id="text_17">
    <!-- W30__H40__A040_bars_extracted.txt -->
    <g transform="translate(110.101875 28.56)scale(0.12 -0.12)">
     <defs>
      <path d="M 3.328125 72.90625 
L 13.28125 72.90625 
L 28.609375 11.28125 
L 43.890625 72.90625 
L 54.984375 72.90625 
L 70.3125 11.28125 
L 85.59375 72.90625 
L 95.609375 72.90625 
L 77.296875 0 
L 64.890625 0 
L 49.515625 63.28125 
L 33.984375 0 
L 21.578125 0 
z
" id="DejaVuSans-87"/>
      <path d="M 40.578125 39.3125 
Q 47.65625 37.796875 51.625 33 
Q 55.609375 28.21875 55.609375 21.1875 
Q 55.609375 10.40625 48.1875 4.484375 
Q 40.765625 -1.421875 27.09375 -1.421875 
Q 22.515625 -1.421875 17.65625 -0.515625 
Q 12.796875 0.390625 7.625 2.203125 
L 7.625 11.71875 
Q 11.71875 9.328125 16.59375 8.109375 
Q 21.484375 6.890625 26.8125 6.890625 
Q 36.078125 6.890625 40.9375 10.546875 
Q 45.796875 14.203125 45.796875 21.1875 
Q 45.796875 27.640625 41.28125 31.265625 
Q 36.765625 34.90625 28.71875 34.90625 
L 20.21875 34.90625 
L 20.21875 43.015625 
L 29.109375 43.015625 
Q 36.375 43.015625 40.234375 45.921875 
Q 44.09375 48.828125 44.09375 54.296875 
Q 44.09375 59.90625 40.109375 62.90625 
Q 36.140625 65.921875 28.71875 65.921875 
Q 24.65625 65.921875 20.015625 65.03125 
Q 15.375 64.15625 9.8125 62.3125 
L 9.8125 71.09375 
Q 15.4375 72.65625 20.34375 73.4375 
Q 25.25 74.21875 29.59375 74.21875 
Q 40.828125 74.21875 47.359375 69.109375 
Q 53.90625 64.015625 53.90625 55.328125 
Q 53.90625 49.265625 50.4375 45.09375 
Q 46.96875 40.921875 40.578125 39.3125 
z
" id="DejaVuSans-51"/>
      <path d="M 50.984375 -16.609375 
L 50.984375 -23.578125 
L -0.984375 -23.578125 
L -0.984375 -16.609375 
z
" id="DejaVuSans-95"/>
      <path d="M 9.8125 72.90625 
L 19.671875 72.90625 
L 19.671875 43.015625 
L 55.515625 43.015625 
L 55.515625 72.90625 
L 65.375 72.90625 
L 65.375 0 
L 55.515625 0 
L 55.515625 34.71875 
L 19.671875 34.71875 
L 19.671875 0 
L 9.8125 0 
z
" id="DejaVuSans-72"/>
      <path d="M 34.1875 63.1875 
L 20.796875 26.90625 
L 47.609375 26.90625 
z
M 28.609375 72.90625 
L 39.796875 72.90625 
L 67.578125 0 
L 57.328125 0 
L 50.6875 18.703125 
L 17.828125 18.703125 
L 11.1875 0 
L 0.78125 0 
z
" id="DejaVuSans-65"/>
      <path d="M 48.6875 27.296875 
Q 48.6875 37.203125 44.609375 42.84375 
Q 40.53125 48.484375 33.40625 48.484375 
Q 26.265625 48.484375 22.1875 42.84375 
Q 18.109375 37.203125 18.109375 27.296875 
Q 18.109375 17.390625 22.1875 11.75 
Q 26.265625 6.109375 33.40625 6.109375 
Q 40.53125 6.109375 44.609375 11.75 
Q 48.6875 17.390625 48.6875 27.296875 
z
M 18.109375 46.390625 
Q 20.953125 51.265625 25.265625 53.625 
Q 29.59375 56 35.59375 56 
Q 45.5625 56 51.78125 48.09375 
Q 58.015625 40.1875 58.015625 27.296875 
Q 58.015625 14.40625 51.78125 6.484375 
Q 45.5625 -1.421875 35.59375 -1.421875 
Q 29.59375 -1.421875 25.265625 0.953125 
Q 20.953125 3.328125 18.109375 8.203125 
L 18.109375 0 
L 9.078125 0 
L 9.078125 75.984375 
L 18.109375 75.984375 
z
" id="DejaVuSans-98"/>
      <path d="M 34.28125 27.484375 
Q 23.390625 27.484375 19.1875 25 
Q 14.984375 22.515625 14.984375 16.5 
Q 14.984375 11.71875 18.140625 8.90625 
Q 21.296875 6.109375 26.703125 6.109375 
Q 34.1875 6.109375 38.703125 11.40625 
Q 43.21875 16.703125 43.21875 25.484375 
L 43.21875 27.484375 
z
M 52.203125 31.203125 
L 52.203125 0 
L 43.21875 0 
L 43.21875 8.296875 
Q 40.140625 3.328125 35.546875 0.953125 
Q 30.953125 -1.421875 24.3125 -1.421875 
Q 15.921875 -1.421875 10.953125 3.296875 
Q 6 8.015625 6 15.921875 
Q 6 25.140625 12.171875 29.828125 
Q 18.359375 34.515625 30.609375 34.515625 
L 43.21875 34.515625 
L 43.21875 35.40625 
Q 43.21875 41.609375 39.140625 45 
Q 35.0625 48.390625 27.6875 48.390625 
Q 23 48.390625 18.546875 47.265625 
Q 14.109375 46.140625 10.015625 43.890625 
L 10.015625 52.203125 
Q 14.9375 54.109375 19.578125 55.046875 
Q 24.21875 56 28.609375 56 
Q 40.484375 56 46.34375 49.84375 
Q 52.203125 43.703125 52.203125 31.203125 
z
" id="DejaVuSans-97"/>
      <path d="M 41.109375 46.296875 
Q 39.59375 47.171875 37.8125 47.578125 
Q 36.03125 48 33.890625 48 
Q 26.265625 48 22.1875 43.046875 
Q 18.109375 38.09375 18.109375 28.8125 
L 18.109375 0 
L 9.078125 0 
L 9.078125 54.6875 
L 18.109375 54.6875 
L 18.109375 46.1875 
Q 20.953125 51.171875 25.484375 53.578125 
Q 30.03125 56 36.53125 56 
Q 37.453125 56 38.578125 55.875 
Q 39.703125 55.765625 41.0625 55.515625 
z
" id="DejaVuSans-114"/>
      <path d="M 44.28125 53.078125 
L 44.28125 44.578125 
Q 40.484375 46.53125 36.375 47.5 
Q 32.28125 48.484375 27.875 48.484375 
Q 21.1875 48.484375 17.84375 46.4375 
Q 14.5 44.390625 14.5 40.28125 
Q 14.5 37.15625 16.890625 35.375 
Q 19.28125 33.59375 26.515625 31.984375 
L 29.59375 31.296875 
Q 39.15625 29.25 43.1875 25.515625 
Q 47.21875 21.78125 47.21875 15.09375 
Q 47.21875 7.46875 41.1875 3.015625 
Q 35.15625 -1.421875 24.609375 -1.421875 
Q 20.21875 -1.421875 15.453125 -0.5625 
Q 10.6875 0.296875 5.421875 2 
L 5.421875 11.28125 
Q 10.40625 8.6875 15.234375 7.390625 
Q 20.0625 6.109375 24.8125 6.109375 
Q 31.15625 6.109375 34.5625 8.28125 
Q 37.984375 10.453125 37.984375 14.40625 
Q 37.984375 18.0625 35.515625 20.015625 
Q 33.0625 21.96875 24.703125 23.78125 
L 21.578125 24.515625 
Q 13.234375 26.265625 9.515625 29.90625 
Q 5.8125 33.546875 5.8125 39.890625 
Q 5.8125 47.609375 11.28125 51.796875 
Q 16.75 56 26.8125 56 
Q 31.78125 56 36.171875 55.265625 
Q 40.578125 54.546875 44.28125 53.078125 
z
" id="DejaVuSans-115"/>
      <path d="M 56.203125 29.59375 
L 56.203125 25.203125 
L 14.890625 25.203125 
Q 15.484375 15.921875 20.484375 11.0625 
Q 25.484375 6.203125 34.421875 6.203125 
Q 39.59375 6.203125 44.453125 7.46875 
Q 49.3125 8.734375 54.109375 11.28125 
L 54.109375 2.78125 
Q 49.265625 0.734375 44.1875 -0.34375 
Q 39.109375 -1.421875 33.890625 -1.421875 
Q 20.796875 -1.421875 13.15625 6.1875 
Q 5.515625 13.8125 5.515625 26.8125 
Q 5.515625 40.234375 12.765625 48.109375 
Q 20.015625 56 32.328125 56 
Q 43.359375 56 49.78125 48.890625 
Q 56.203125 41.796875 56.203125 29.59375 
z
M 47.21875 32.234375 
Q 47.125 39.59375 43.09375 43.984375 
Q 39.0625 48.390625 32.421875 48.390625 
Q 24.90625 48.390625 20.390625 44.140625 
Q 15.875 39.890625 15.1875 32.171875 
z
" id="DejaVuSans-101"/>
      <path d="M 54.890625 54.6875 
L 35.109375 28.078125 
L 55.90625 0 
L 45.3125 0 
L 29.390625 21.484375 
L 13.484375 0 
L 2.875 0 
L 24.125 28.609375 
L 4.6875 54.6875 
L 15.28125 54.6875 
L 29.78125 35.203125 
L 44.28125 54.6875 
z
" id="DejaVuSans-120"/>
      <path d="M 18.3125 70.21875 
L 18.3125 54.6875 
L 36.8125 54.6875 
L 36.8125 47.703125 
L 18.3125 47.703125 
L 18.3125 18.015625 
Q 18.3125 11.328125 20.140625 9.421875 
Q 21.96875 7.515625 27.59375 7.515625 
L 36.8125 7.515625 
L 36.8125 0 
L 27.59375 0 
Q 17.1875 0 13.234375 3.875 
Q 9.28125 7.765625 9.28125 18.015625 
L 9.28125 47.703125 
L 2.6875 47.703125 
L 2.6875 54.6875 
L 9.28125 54.6875 
L 9.28125 70.21875 
z
" id="DejaVuSans-116"/>
      <path d="M 48.78125 52.59375 
L 48.78125 44.1875 
Q 44.96875 46.296875 41.140625 47.34375 
Q 37.3125 48.390625 33.40625 48.390625 
Q 24.65625 48.390625 19.8125 42.84375 
Q 14.984375 37.3125 14.984375 27.296875 
Q 14.984375 17.28125 19.8125 11.734375 
Q 24.65625 6.203125 33.40625 6.203125 
Q 37.3125 6.203125 41.140625 7.25 
Q 44.96875 8.296875 48.78125 10.40625 
L 48.78125 2.09375 
Q 45.015625 0.34375 40.984375 -0.53125 
Q 36.96875 -1.421875 32.421875 -1.421875 
Q 20.0625 -1.421875 12.78125 6.34375 
Q 5.515625 14.109375 5.515625 27.296875 
Q 5.515625 40.671875 12.859375 48.328125 
Q 20.21875 56 33.015625 56 
Q 37.15625 56 41.109375 55.140625 
Q 45.0625 54.296875 48.78125 52.59375 
z
" id="DejaVuSans-99"/>
      <path d="M 45.40625 46.390625 
L 45.40625 75.984375 
L 54.390625 75.984375 
L 54.390625 0 
L 45.40625 0 
L 45.40625 8.203125 
Q 42.578125 3.328125 38.25 0.953125 
Q 33.9375 -1.421875 27.875 -1.421875 
Q 17.96875 -1.421875 11.734375 6.484375 
Q 5.515625 14.40625 5.515625 27.296875 
Q 5.515625 40.1875 11.734375 48.09375 
Q 17.96875 56 27.875 56 
Q 33.9375 56 38.25 53.625 
Q 42.578125 51.265625 45.40625 46.390625 
z
M 14.796875 27.296875 
Q 14.796875 17.390625 18.875 11.75 
Q 22.953125 6.109375 30.078125 6.109375 
Q 37.203125 6.109375 41.296875 11.75 
Q 45.40625 17.390625 45.40625 27.296875 
Q 45.40625 37.203125 41.296875 42.84375 
Q 37.203125 48.484375 30.078125 48.484375 
Q 22.953125 48.484375 18.875 42.84375 
Q 14.796875 37.203125 14.796875 27.296875 
z
" id="DejaVuSans-100"/>
      <path d="M 10.6875 12.40625 
L 21 12.40625 
L 21 0 
L 10.6875 0 
z
" id="DejaVuSans-46"/>
     </defs>
     <use xlink:href="#DejaVuSans-87"/>
     <use x="98.876953" xlink:href="#DejaVuSans-51"/>
     <use x="162.5" xlink:href="#DejaVuSans-48"/>
     <use x="226.123047" xlink:href="#DejaVuSans-95"/>
     <use x="276.123047" xlink:href="#DejaVuSans-95"/>
     <use x="326.123047" xlink:href="#DejaVuSans-72"/>
     <use x="401.318359" xlink:href="#DejaVuSans-52"/>
     <use x="464.941406" xlink:href="#DejaVuSans-48"/>
     <use x="528.564453" xlink:href="#DejaVuSans-95"/>
     <use x="578.564453" xlink:href="#DejaVuSans-95"/>
     <use x="628.564453" xlink:href="#DejaVuSans-65"/>
     <use x="696.972656" xlink:href="#DejaVuSans-48"/>
     <use x="760.595703" xlink:href="#DejaVuSans-52"/>
     <use x="824.21875" xlink:href="#DejaVuSans-48"/>
     <use x="887.841797" xlink:href="#DejaVuSans-95"/>
     <use x="937.841797" xlink:href="#DejaVuSans-98"/>
     <use x="1001.318359" xlink:href="#DejaVuSans-97"/>
     <use x="1062.597656" xlink:href="#DejaVuSans-114"/>
     <use x="1103.710938" xlink:href="#DejaVuSans-115"/>
     <use x="1155.810547" xlink:href="#DejaVuSans-95"/>
     <use x="1205.810547" xlink:href="#DejaVuSans-101"/>
     <use x="1265.583984" xlink:href="#DejaVuSans-120"/>
     <use x="1324.763672" xlink:href="#DejaVuSans-116"/>
     <use x="1363.972656" xlink:href="#DejaVuSans-114"/>
     <use x="1405.085938" xlink:href="#DejaVuSans-97"/>
     <use x="1466.365234" xlink:href="#DejaVuSans-99"/>
     <use x="1521.345703" xlink:href="#DejaVuSans-116"/>
     <use x="1560.554688" xlink:href="#DejaVuSans-101"/>
     <use x="1622.078125" xlink:href="#DejaVuSans-100"/>
     <use x="1685.554688" xlink:href="#DejaVuSans-46"/>
     <use x="1717.341797" xlink:href="#DejaVuSans-116"/>
     <use x="1756.550781" xlink:href="#DejaVuSans-120"/>
     <use x="1815.730469" xlink:href="#DejaVuSans-116"/>
    </g>
   </g>
  </g>
 </g>
 <defs>
  <clipPath id="pb31ae82721">
   <rect height="217.44" width="217.44" x="112.68" y="34.56"/>
  </clipPath>
 </defs>
</svg>
