<?xml version="1.0" encoding="utf-8" standalone="no"?>
<!DOCTYPE svg PUBLIC "-//W3C//DTD SVG 1.1//EN"
  "http://www.w3.org/Graphics/SVG/1.1/DTD/svg11.dtd">
<!-- Created with matplotlib (https://matplotlib.org/) -->
<svg height="288pt" version="1.1" viewBox="0 0 432 288" width="432pt" xmlns="http://www.w3.org/2000/svg" xmlns:xlink="http://www.w3.org/1999/xlink">
 <metadata>
  <rdf:RDF xmlns:cc="http://creativecommons.org/ns#" xmlns:dc="http://purl.org/dc/elements/1.1/" xmlns:rdf="http://www.w3.org/1999/02/22-rdf-syntax-ns#">
   <cc:Work>
    <dc:type rdf:resource="http://purl.org/dc/dcmitype/StillImage"/>
    <dc:date>2021-06-13T21:58:16.980256</dc:date>
    <dc:format>image/svg+xml</dc:format>
    <dc:creator>
     <cc:Agent>
      <dc:title>Matplotlib v3.3.4, https://matplotlib.org/</dc:title>
     </cc:Agent>
    </dc:creator>
   </cc:Work>
  </rdf:RDF>
 </metadata>
 <defs>
  <style type="text/css">*{stroke-linecap:butt;stroke-linejoin:round;}</style>
 </defs>
 <g id="figure_1">
  <g id="patch_1">
   <path d="M 0 288 
L 432 288 
L 432 0 
L 0 0 
z
" style="fill:#ffffff;"/>
  </g>
  <g id="patch_2">
   <path d="M 112.68 252 
L 330.12 252 
L 330.12 34.56 
L 112.68 34.56 
z
" style="fill:#ffffff;"/>
  </g>
  <g id="pane3d_1">
   <g id="patch_3">
    <path d="M 129.09822 198.386264 
L 200.904009 138.197228 
L 199.90584 51.393878 
L 124.663773 106.302111 
" style="fill:#f2f2f2;opacity:0.5;stroke:#f2f2f2;stroke-linejoin:miter;"/>
   </g>
  </g>
  <g id="pane3d_2">
   <g id="patch_4">
    <path d="M 200.904009 138.197228 
L 316.12668 171.68791 
L 320.238571 81.894718 
L 199.90584 51.393878 
" style="fill:#e6e6e6;opacity:0.5;stroke:#e6e6e6;stroke-linejoin:miter;"/>
   </g>
  </g>
  <g id="pane3d_3">
   <g id="patch_5">
    <path d="M 129.09822 198.386264 
L 251.239879 238.27773 
L 316.12668 171.68791 
L 200.904009 138.197228 
" style="fill:#ececec;opacity:0.5;stroke:#ececec;stroke-linejoin:miter;"/>
   </g>
  </g>
  <g id="axis3d_1">
   <g id="line2d_1">
    <path d="M 129.09822 198.386264 
L 251.239879 238.27773 
" style="fill:none;stroke:#000000;stroke-linecap:square;stroke-width:0.8;"/>
   </g>
   <g id="Line3DCollection_1">
    <path d="M 136.495759 200.802301 
L 207.911499 140.234029 
L 207.209612 53.245171 
" style="fill:none;stroke:#b0b0b0;stroke-width:0.8;"/>
    <path d="M 162.23134 209.207541 
L 232.260894 147.311436 
L 232.60309 59.681678 
" style="fill:none;stroke:#b0b0b0;stroke-width:0.8;"/>
    <path d="M 188.559037 217.806167 
L 257.123632 154.538053 
L 258.555303 66.259807 
" style="fill:none;stroke:#b0b0b0;stroke-width:0.8;"/>
    <path d="M 215.499525 226.604931 
L 282.516121 161.918647 
L 285.084894 72.984285 
" style="fill:none;stroke:#b0b0b0;stroke-width:0.8;"/>
    <path d="M 243.074449 235.610901 
L 308.455474 169.458193 
L 312.21135 79.860051 
" style="fill:none;stroke:#b0b0b0;stroke-width:0.8;"/>
   </g>
   <g id="xtick_1">
    <g id="line2d_2">
     <path d="M 137.117644 200.274876 
L 135.249322 201.859414 
" style="fill:none;stroke:#000000;stroke-linecap:square;stroke-width:0.8;"/>
    </g>
    <g id="text_1">
     <!-- 0 -->
     <g transform="translate(125.77919 224.124533)scale(0.1 -0.1)">
      <defs>
       <path d="M 31.78125 66.40625 
Q 24.171875 66.40625 20.328125 58.90625 
Q 16.5 51.421875 16.5 36.375 
Q 16.5 21.390625 20.328125 13.890625 
Q 24.171875 6.390625 31.78125 6.390625 
Q 39.453125 6.390625 43.28125 13.890625 
Q 47.125 21.390625 47.125 36.375 
Q 47.125 51.421875 43.28125 58.90625 
Q 39.453125 66.40625 31.78125 66.40625 
z
M 31.78125 74.21875 
Q 44.046875 74.21875 50.515625 64.515625 
Q 56.984375 54.828125 56.984375 36.375 
Q 56.984375 17.96875 50.515625 8.265625 
Q 44.046875 -1.421875 31.78125 -1.421875 
Q 19.53125 -1.421875 13.0625 8.265625 
Q 6.59375 17.96875 6.59375 36.375 
Q 6.59375 54.828125 13.0625 64.515625 
Q 19.53125 74.21875 31.78125 74.21875 
z
" id="DejaVuSans-48"/>
      </defs>
      <use xlink:href="#DejaVuSans-48"/>
     </g>
    </g>
   </g>
   <g id="xtick_2">
    <g id="line2d_3">
     <path d="M 162.841716 208.668056 
L 161.007937 210.288854 
" style="fill:none;stroke:#000000;stroke-linecap:square;stroke-width:0.8;"/>
    </g>
    <g id="text_2">
     <!-- 2 -->
     <g transform="translate(151.547192 232.748132)scale(0.1 -0.1)">
      <defs>
       <path d="M 19.1875 8.296875 
L 53.609375 8.296875 
L 53.609375 0 
L 7.328125 0 
L 7.328125 8.296875 
Q 12.9375 14.109375 22.625 23.890625 
Q 32.328125 33.6875 34.8125 36.53125 
Q 39.546875 41.84375 41.421875 45.53125 
Q 43.3125 49.21875 43.3125 52.78125 
Q 43.3125 58.59375 39.234375 62.25 
Q 35.15625 65.921875 28.609375 65.921875 
Q 23.96875 65.921875 18.8125 64.3125 
Q 13.671875 62.703125 7.8125 59.421875 
L 7.8125 69.390625 
Q 13.765625 71.78125 18.9375 73 
Q 24.125 74.21875 28.421875 74.21875 
Q 39.75 74.21875 46.484375 68.546875 
Q 53.21875 62.890625 53.21875 53.421875 
Q 53.21875 48.921875 51.53125 44.890625 
Q 49.859375 40.875 45.40625 35.40625 
Q 44.1875 33.984375 37.640625 27.21875 
Q 31.109375 20.453125 19.1875 8.296875 
z
" id="DejaVuSans-50"/>
      </defs>
      <use xlink:href="#DejaVuSans-50"/>
     </g>
    </g>
   </g>
   <g id="xtick_3">
    <g id="line2d_4">
     <path d="M 189.15721 217.254202 
L 187.360066 218.91252 
" style="fill:none;stroke:#000000;stroke-linecap:square;stroke-width:0.8;"/>
    </g>
    <g id="text_3">
     <!-- 4 -->
     <g transform="translate(177.91082 241.571064)scale(0.1 -0.1)">
      <defs>
       <path d="M 37.796875 64.3125 
L 12.890625 25.390625 
L 37.796875 25.390625 
z
M 35.203125 72.90625 
L 47.609375 72.90625 
L 47.609375 25.390625 
L 58.015625 25.390625 
L 58.015625 17.1875 
L 47.609375 17.1875 
L 47.609375 0 
L 37.796875 0 
L 37.796875 17.1875 
L 4.890625 17.1875 
L 4.890625 26.703125 
z
" id="DejaVuSans-52"/>
      </defs>
      <use xlink:href="#DejaVuSans-52"/>
     </g>
    </g>
   </g>
   <g id="xtick_4">
    <g id="line2d_5">
     <path d="M 216.084757 226.040048 
L 214.326462 227.737204 
" style="fill:none;stroke:#000000;stroke-linecap:square;stroke-width:0.8;"/>
    </g>
    <g id="text_4">
     <!-- 6 -->
     <g transform="translate(204.890965 250.600322)scale(0.1 -0.1)">
      <defs>
       <path d="M 33.015625 40.375 
Q 26.375 40.375 22.484375 35.828125 
Q 18.609375 31.296875 18.609375 23.390625 
Q 18.609375 15.53125 22.484375 10.953125 
Q 26.375 6.390625 33.015625 6.390625 
Q 39.65625 6.390625 43.53125 10.953125 
Q 47.40625 15.53125 47.40625 23.390625 
Q 47.40625 31.296875 43.53125 35.828125 
Q 39.65625 40.375 33.015625 40.375 
z
M 52.59375 71.296875 
L 52.59375 62.3125 
Q 48.875 64.0625 45.09375 64.984375 
Q 41.3125 65.921875 37.59375 65.921875 
Q 27.828125 65.921875 22.671875 59.328125 
Q 17.53125 52.734375 16.796875 39.40625 
Q 19.671875 43.65625 24.015625 45.921875 
Q 28.375 48.1875 33.59375 48.1875 
Q 44.578125 48.1875 50.953125 41.515625 
Q 57.328125 34.859375 57.328125 23.390625 
Q 57.328125 12.15625 50.6875 5.359375 
Q 44.046875 -1.421875 33.015625 -1.421875 
Q 20.359375 -1.421875 13.671875 8.265625 
Q 6.984375 17.96875 6.984375 36.375 
Q 6.984375 53.65625 15.1875 63.9375 
Q 23.390625 74.21875 37.203125 74.21875 
Q 40.921875 74.21875 44.703125 73.484375 
Q 48.484375 72.75 52.59375 71.296875 
z
" id="DejaVuSans-54"/>
      </defs>
      <use xlink:href="#DejaVuSans-54"/>
     </g>
    </g>
   </g>
   <g id="xtick_5">
    <g id="line2d_6">
     <path d="M 243.645962 235.032643 
L 241.928856 236.770015 
" style="fill:none;stroke:#000000;stroke-linecap:square;stroke-width:0.8;"/>
    </g>
    <g id="text_5">
     <!-- 8 -->
     <g transform="translate(232.509511 259.84323)scale(0.1 -0.1)">
      <defs>
       <path d="M 31.78125 34.625 
Q 24.75 34.625 20.71875 30.859375 
Q 16.703125 27.09375 16.703125 20.515625 
Q 16.703125 13.921875 20.71875 10.15625 
Q 24.75 6.390625 31.78125 6.390625 
Q 38.8125 6.390625 42.859375 10.171875 
Q 46.921875 13.96875 46.921875 20.515625 
Q 46.921875 27.09375 42.890625 30.859375 
Q 38.875 34.625 31.78125 34.625 
z
M 21.921875 38.8125 
Q 15.578125 40.375 12.03125 44.71875 
Q 8.5 49.078125 8.5 55.328125 
Q 8.5 64.0625 14.71875 69.140625 
Q 20.953125 74.21875 31.78125 74.21875 
Q 42.671875 74.21875 48.875 69.140625 
Q 55.078125 64.0625 55.078125 55.328125 
Q 55.078125 49.078125 51.53125 44.71875 
Q 48 40.375 41.703125 38.8125 
Q 48.828125 37.15625 52.796875 32.3125 
Q 56.78125 27.484375 56.78125 20.515625 
Q 56.78125 9.90625 50.3125 4.234375 
Q 43.84375 -1.421875 31.78125 -1.421875 
Q 19.734375 -1.421875 13.25 4.234375 
Q 6.78125 9.90625 6.78125 20.515625 
Q 6.78125 27.484375 10.78125 32.3125 
Q 14.796875 37.15625 21.921875 38.8125 
z
M 18.3125 54.390625 
Q 18.3125 48.734375 21.84375 45.5625 
Q 25.390625 42.390625 31.78125 42.390625 
Q 38.140625 42.390625 41.71875 45.5625 
Q 45.3125 48.734375 45.3125 54.390625 
Q 45.3125 60.0625 41.71875 63.234375 
Q 38.140625 66.40625 31.78125 66.40625 
Q 25.390625 66.40625 21.84375 63.234375 
Q 18.3125 60.0625 18.3125 54.390625 
z
" id="DejaVuSans-56"/>
      </defs>
      <use xlink:href="#DejaVuSans-56"/>
     </g>
    </g>
   </g>
  </g>
  <g id="axis3d_2">
   <g id="line2d_7">
    <path d="M 316.12668 171.68791 
L 251.239879 238.27773 
" style="fill:none;stroke:#000000;stroke-linecap:square;stroke-width:0.8;"/>
   </g>
   <g id="Line3DCollection_2">
    <path d="M 129.866948 102.505071 
L 134.046245 194.238731 
L 255.729543 233.67023 
" style="fill:none;stroke:#b0b0b0;stroke-width:0.8;"/>
    <path d="M 147.250212 89.819556 
L 150.59591 180.366474 
L 270.72626 218.279909 
" style="fill:none;stroke:#b0b0b0;stroke-width:0.8;"/>
    <path d="M 163.958537 77.626582 
L 166.530371 167.009893 
L 285.136664 203.491289 
" style="fill:none;stroke:#b0b0b0;stroke-width:0.8;"/>
    <path d="M 180.030483 65.898008 
L 181.883306 154.140758 
L 298.994481 189.269761 
" style="fill:none;stroke:#b0b0b0;stroke-width:0.8;"/>
    <path d="M 195.501727 54.607799 
L 196.68598 141.732864 
L 312.330896 175.583317 
" style="fill:none;stroke:#b0b0b0;stroke-width:0.8;"/>
   </g>
   <g id="xtick_6">
    <g id="line2d_8">
     <path d="M 254.704115 233.337939 
L 257.783053 234.33567 
" style="fill:none;stroke:#000000;stroke-linecap:square;stroke-width:0.8;"/>
    </g>
    <g id="text_6">
     <!-- 0 -->
     <g transform="translate(265.430654 254.693759)scale(0.1 -0.1)">
      <use xlink:href="#DejaVuSans-48"/>
     </g>
    </g>
   </g>
   <g id="xtick_7">
    <g id="line2d_9">
     <path d="M 269.71494 217.960734 
L 272.751463 218.919068 
" style="fill:none;stroke:#000000;stroke-linecap:square;stroke-width:0.8;"/>
    </g>
    <g id="text_7">
     <!-- 2 -->
     <g transform="translate(280.181112 239.024526)scale(0.1 -0.1)">
      <use xlink:href="#DejaVuSans-50"/>
     </g>
    </g>
   </g>
   <g id="xtick_8">
    <g id="line2d_10">
     <path d="M 284.139145 203.184468 
L 287.134182 204.105694 
" style="fill:none;stroke:#000000;stroke-linecap:square;stroke-width:0.8;"/>
    </g>
    <g id="text_8">
     <!-- 4 -->
     <g transform="translate(294.35448 223.968328)scale(0.1 -0.1)">
      <use xlink:href="#DejaVuSans-52"/>
     </g>
    </g>
   </g>
   <g id="xtick_9">
    <g id="line2d_11">
     <path d="M 298.010457 188.97459 
L 300.964927 189.860821 
" style="fill:none;stroke:#000000;stroke-linecap:square;stroke-width:0.8;"/>
    </g>
    <g id="text_9">
     <!-- 6 -->
     <g transform="translate(307.983974 209.489882)scale(0.1 -0.1)">
      <use xlink:href="#DejaVuSans-54"/>
     </g>
    </g>
   </g>
   <g id="xtick_10">
    <g id="line2d_12">
     <path d="M 311.360068 175.299146 
L 314.274875 176.15234 
" style="fill:none;stroke:#000000;stroke-linecap:square;stroke-width:0.8;"/>
    </g>
    <g id="text_10">
     <!-- 8 -->
     <g transform="translate(321.10031 195.556556)scale(0.1 -0.1)">
      <use xlink:href="#DejaVuSans-56"/>
     </g>
    </g>
   </g>
  </g>
  <g id="axis3d_3">
   <g id="line2d_13">
    <path d="M 316.12668 171.68791 
L 320.238571 81.894718 
" style="fill:none;stroke:#000000;stroke-linecap:square;stroke-width:0.8;"/>
   </g>
   <g id="Line3DCollection_3">
    <path d="M 316.205459 169.967571 
L 200.884845 136.530725 
L 129.013401 196.624949 
" style="fill:none;stroke:#b0b0b0;stroke-width:0.8;"/>
    <path d="M 317.244219 147.283715 
L 200.632307 114.569335 
L 127.894495 173.390145 
" style="fill:none;stroke:#b0b0b0;stroke-width:0.8;"/>
    <path d="M 318.306738 124.081011 
L 200.374271 92.129853 
L 126.74901 149.603412 
" style="fill:none;stroke:#b0b0b0;stroke-width:0.8;"/>
    <path d="M 319.393842 100.34145 
L 200.110555 69.196497 
L 125.575988 125.244846 
" style="fill:none;stroke:#b0b0b0;stroke-width:0.8;"/>
   </g>
   <g id="xtick_11">
    <g id="line2d_14">
     <path d="M 315.237563 169.686933 
L 318.143556 170.529516 
" style="fill:none;stroke:#000000;stroke-linecap:square;stroke-width:0.8;"/>
    </g>
    <g id="text_11">
     <!-- 0 -->
     <g transform="translate(331.275915 174.966846)scale(0.1 -0.1)">
      <use xlink:href="#DejaVuSans-48"/>
     </g>
    </g>
   </g>
   <g id="xtick_12">
    <g id="line2d_15">
     <path d="M 316.264966 147.008995 
L 319.205081 147.833817 
" style="fill:none;stroke:#000000;stroke-linecap:square;stroke-width:0.8;"/>
    </g>
    <g id="text_12">
     <!-- 20000 -->
     <g transform="translate(319.791429 152.337898)scale(0.1 -0.1)">
      <use xlink:href="#DejaVuSans-50"/>
      <use x="63.623047" xlink:href="#DejaVuSans-48"/>
      <use x="127.246094" xlink:href="#DejaVuSans-48"/>
      <use x="190.869141" xlink:href="#DejaVuSans-48"/>
      <use x="254.492188" xlink:href="#DejaVuSans-48"/>
     </g>
    </g>
   </g>
   <g id="xtick_13">
    <g id="line2d_16">
     <path d="M 317.31586 123.812555 
L 320.290907 124.618577 
" style="fill:none;stroke:#000000;stroke-linecap:square;stroke-width:0.8;"/>
    </g>
    <g id="text_13">
     <!-- 40000 -->
     <g transform="translate(321.060211 129.1933)scale(0.1 -0.1)">
      <use xlink:href="#DejaVuSans-52"/>
      <use x="63.623047" xlink:href="#DejaVuSans-48"/>
      <use x="127.246094" xlink:href="#DejaVuSans-48"/>
      <use x="190.869141" xlink:href="#DejaVuSans-48"/>
      <use x="254.492188" xlink:href="#DejaVuSans-48"/>
     </g>
    </g>
   </g>
   <g id="xtick_14">
    <g id="line2d_17">
     <path d="M 318.391059 100.079623 
L 321.401876 100.86575 
" style="fill:none;stroke:#000000;stroke-linecap:square;stroke-width:0.8;"/>
    </g>
    <g id="text_14">
     <!-- 60000 -->
     <g transform="translate(322.358238 105.515224)scale(0.1 -0.1)">
      <use xlink:href="#DejaVuSans-54"/>
      <use x="63.623047" xlink:href="#DejaVuSans-48"/>
      <use x="127.246094" xlink:href="#DejaVuSans-48"/>
      <use x="190.869141" xlink:href="#DejaVuSans-48"/>
      <use x="254.492188" xlink:href="#DejaVuSans-48"/>
     </g>
    </g>
   </g>
  </g>
  <g id="axes_1">
   <g id="Poly3DCollection_1">
    <path clip-path="url(#p73b54d43c0)" d="M 203.700438 142.115361 
L 203.698445 141.918953 
L 215.863079 145.469922 
L 215.863902 145.66701 
z
" style="fill:#050338;"/>
    <path clip-path="url(#p73b54d43c0)" d="M 196.401162 148.290596 
L 196.39844 148.093008 
L 203.698445 141.918953 
L 203.700438 142.115361 
z
" style="fill:#0b0777;"/>
    <path clip-path="url(#p73b54d43c0)" d="M 196.401162 148.290596 
L 203.700438 142.115361 
L 215.863902 145.66701 
L 208.637156 151.907182 
z
" style="fill:#070448;"/>
    <path clip-path="url(#p73b54d43c0)" d="M 196.39844 148.093008 
L 208.635618 151.708907 
L 215.863079 145.469922 
L 203.698445 141.918953 
z
" style="fill:#0a0667;"/>
    <path clip-path="url(#p73b54d43c0)" d="M 215.863902 145.66701 
L 215.861947 145.198584 
L 228.155909 148.785882 
L 228.155024 149.255935 
z
" style="fill:#050338;"/>
    <path clip-path="url(#p73b54d43c0)" d="M 208.637156 151.907182 
L 215.863902 145.66701 
L 215.863079 145.469922 
L 208.635618 151.708907 
z
" style="fill:#050338;"/>
    <path clip-path="url(#p73b54d43c0)" d="M 208.637156 151.907182 
L 208.633501 151.435933 
L 215.861947 145.198584 
L 215.863902 145.66701 
z
" style="fill:#0b0777;"/>
    <path clip-path="url(#p73b54d43c0)" d="M 196.401162 148.290596 
L 208.637156 151.907182 
L 208.635618 151.708907 
L 196.39844 148.093008 
z
" style="fill:#0b0777;"/>
    <path clip-path="url(#p73b54d43c0)" d="M 196.401162 148.290596 
L 196.3968 147.97399 
L 208.634692 151.589475 
L 208.637156 151.907182 
z
" style="fill:#050338;"/>
    <path clip-path="url(#p73b54d43c0)" d="M 208.637156 151.907182 
L 215.863902 145.66701 
L 228.155024 149.255935 
L 221.002748 155.562072 
z
" style="fill:#070448;"/>
    <path clip-path="url(#p73b54d43c0)" d="M 208.633501 151.435933 
L 221.001967 155.089183 
L 228.155909 148.785882 
L 215.861947 145.198584 
z
" style="fill:#0a0667;"/>
    <path clip-path="url(#p73b54d43c0)" d="M 228.155024 149.255935 
L 228.15739 147.999758 
L 240.585942 151.622177 
L 240.575825 152.882725 
z
" style="fill:#09033a;"/>
    <path clip-path="url(#p73b54d43c0)" d="M 188.96817 154.578956 
L 188.962597 154.26044 
L 196.3968 147.97399 
L 196.401162 148.290596 
z
" style="fill:#0b0777;"/>
    <path clip-path="url(#p73b54d43c0)" d="M 221.002748 155.562072 
L 228.155024 149.255935 
L 228.155909 148.785882 
L 221.001967 155.089183 
z
" style="fill:#050338;"/>
    <path clip-path="url(#p73b54d43c0)" d="M 221.002748 155.562072 
L 221.000662 154.29831 
L 228.15739 147.999758 
L 228.155024 149.255935 
z
" style="fill:#13067a;"/>
    <path clip-path="url(#p73b54d43c0)" d="M 188.96817 154.578956 
L 196.401162 148.290596 
L 208.637156 151.907182 
L 201.27732 158.262275 
z
" style="fill:#070448;"/>
    <path clip-path="url(#p73b54d43c0)" d="M 188.962597 154.26044 
L 201.273667 157.942649 
L 208.634692 151.589475 
L 196.3968 147.97399 
z
" style="fill:#0a0667;"/>
    <path clip-path="url(#p73b54d43c0)" d="M 208.637156 151.907182 
L 221.002748 155.562072 
L 221.001967 155.089183 
L 208.633501 151.435933 
z
" style="fill:#0b0777;"/>
    <path clip-path="url(#p73b54d43c0)" d="M 208.637156 151.907182 
L 208.627904 150.714428 
L 221.000772 154.365163 
L 221.002748 155.562072 
z
" style="fill:#09033a;"/>
    <path clip-path="url(#p73b54d43c0)" d="M 221.002748 155.562072 
L 228.155024 149.255935 
L 240.575825 152.882725 
L 233.500008 159.25588 
z
" style="fill:#0c044a;"/>
    <path clip-path="url(#p73b54d43c0)" d="M 221.000662 154.29831 
L 233.505768 157.987708 
L 240.585942 151.622177 
L 228.15739 147.999758 
z
" style="fill:#11056a;"/>
    <path clip-path="url(#p73b54d43c0)" d="M 201.27732 158.262275 
L 208.637156 151.907182 
L 208.634692 151.589475 
L 201.273667 157.942649 
z
" style="fill:#050338;"/>
    <path clip-path="url(#p73b54d43c0)" d="M 240.575825 152.882725 
L 240.595839 150.389026 
L 253.164042 154.045584 
L 253.128369 156.547983 
z
" style="fill:#0d023b;"/>
    <path clip-path="url(#p73b54d43c0)" d="M 201.27732 158.262275 
L 201.263606 157.062311 
L 208.627904 150.714428 
L 208.637156 151.907182 
z
" style="fill:#13067a;"/>
    <path clip-path="url(#p73b54d43c0)" d="M 233.500008 159.25588 
L 240.575825 152.882725 
L 240.585942 151.622177 
L 233.505768 157.987708 
z
" style="fill:#09033a;"/>
    <path clip-path="url(#p73b54d43c0)" d="M 188.96817 154.578956 
L 201.27732 158.262275 
L 201.273667 157.942649 
L 188.962597 154.26044 
z
" style="fill:#0b0777;"/>
    <path clip-path="url(#p73b54d43c0)" d="M 233.500008 159.25588 
L 233.511404 156.747085 
L 240.595839 150.389026 
L 240.575825 152.882725 
z
" style="fill:#1c057e;"/>
    <path clip-path="url(#p73b54d43c0)" d="M 188.96817 154.578956 
L 188.954425 153.793358 
L 201.26831 157.473938 
L 201.27732 158.262275 
z
" style="fill:#070339;"/>
    <path clip-path="url(#p73b54d43c0)" d="M 201.27732 158.262275 
L 208.637156 151.907182 
L 221.002748 155.562072 
L 213.718049 161.984967 
z
" style="fill:#0c044a;"/>
    <path clip-path="url(#p73b54d43c0)" d="M 201.263606 157.062311 
L 213.711699 160.780811 
L 221.000772 154.365163 
L 208.627904 150.714428 
z
" style="fill:#11056a;"/>
    <path clip-path="url(#p73b54d43c0)" d="M 221.002748 155.562072 
L 233.500008 159.25588 
L 233.505768 157.987708 
L 221.000662 154.29831 
z
" style="fill:#13067a;"/>
    <path clip-path="url(#p73b54d43c0)" d="M 181.397755 160.983577 
L 181.380913 160.193227 
L 188.954425 153.793358 
L 188.96817 154.578956 
z
" style="fill:#0e0678;"/>
    <path clip-path="url(#p73b54d43c0)" d="M 233.500008 159.25588 
L 240.575825 152.882725 
L 253.128369 156.547983 
L 246.131049 162.989229 
z
" style="fill:#11034c;"/>
    <path clip-path="url(#p73b54d43c0)" d="M 221.002748 155.562072 
L 220.997247 152.229892 
L 233.515197 155.912054 
L 233.500008 159.25588 
z
" style="fill:#0f023c;"/>
    <path clip-path="url(#p73b54d43c0)" d="M 233.511404 156.747085 
L 246.158302 160.471658 
L 253.164042 154.045584 
L 240.595839 150.389026 
z
" style="fill:#18046d;"/>
    <path clip-path="url(#p73b54d43c0)" d="M 213.718049 161.984967 
L 221.002748 155.562072 
L 221.000772 154.365163 
L 213.711699 160.780811 
z
" style="fill:#09033a;"/>
    <path clip-path="url(#p73b54d43c0)" d="M 253.128369 156.547983 
L 253.193124 152.005504 
L 265.90855 155.693948 
L 265.814761 160.252323 
z
" style="fill:#12023e;"/>
    <path clip-path="url(#p73b54d43c0)" d="M 213.718049 161.984967 
L 213.700372 158.632579 
L 220.997247 152.229892 
L 221.002748 155.562072 
z
" style="fill:#200580;"/>
    <path clip-path="url(#p73b54d43c0)" d="M 181.397755 160.983577 
L 188.96817 154.578956 
L 201.27732 158.262275 
L 193.780682 164.735494 
z
" style="fill:#090449;"/>
    <path clip-path="url(#p73b54d43c0)" d="M 181.380913 160.193227 
L 193.768633 163.94238 
L 201.26831 157.473938 
L 188.954425 153.793358 
z
" style="fill:#0c0668;"/>
    <path clip-path="url(#p73b54d43c0)" d="M 246.131049 162.989229 
L 253.128369 156.547983 
L 253.164042 154.045584 
L 246.158302 160.471658 
z
" style="fill:#0d023b;"/>
    <path clip-path="url(#p73b54d43c0)" d="M 201.27732 158.262275 
L 213.718049 161.984967 
L 213.711699 160.780811 
L 201.263606 157.062311 
z
" style="fill:#13067a;"/>
    <path clip-path="url(#p73b54d43c0)" d="M 246.131049 162.989229 
L 246.180521 158.419166 
L 253.193124 152.005504 
L 253.128369 156.547983 
z
" style="fill:#270483;"/>
    <path clip-path="url(#p73b54d43c0)" d="M 213.718049 161.984967 
L 221.002748 155.562072 
L 233.500008 159.25588 
L 226.292478 165.747667 
z
" style="fill:#13034d;"/>
    <path clip-path="url(#p73b54d43c0)" d="M 201.27732 158.262275 
L 201.233118 154.39458 
L 213.697583 158.103734 
L 213.718049 161.984967 
z
" style="fill:#11023d;"/>
    <path clip-path="url(#p73b54d43c0)" d="M 233.500008 159.25588 
L 246.131049 162.989229 
L 246.158302 160.471658 
L 233.511404 156.747085 
z
" style="fill:#1c057e;"/>
    <path clip-path="url(#p73b54d43c0)" d="M 193.780682 164.735494 
L 201.27732 158.262275 
L 201.26831 157.473938 
L 193.768633 163.94238 
z
" style="fill:#070339;"/>
    <path clip-path="url(#p73b54d43c0)" d="M 246.131049 162.989229 
L 253.128369 156.547983 
L 265.814761 160.252323 
L 258.898031 166.762758 
z
" style="fill:#17034f;"/>
    <path clip-path="url(#p73b54d43c0)" d="M 213.700372 158.632579 
L 226.295748 162.383531 
L 233.515197 155.912054 
L 220.997247 152.229892 
z
" style="fill:#1b046f;"/>
    <path clip-path="url(#p73b54d43c0)" d="M 193.780682 164.735494 
L 193.721565 160.844308 
L 201.233118 154.39458 
L 201.27732 158.262275 
z
" style="fill:#230581;"/>
    <path clip-path="url(#p73b54d43c0)" d="M 233.500008 159.25588 
L 233.535848 151.365826 
L 246.216761 155.071462 
L 246.131049 162.989229 
z
" style="fill:#1a0241;"/>
    <path clip-path="url(#p73b54d43c0)" d="M 181.397755 160.983577 
L 193.780682 164.735494 
L 193.768633 163.94238 
L 181.380913 160.193227 
z
" style="fill:#0e0678;"/>
    <path clip-path="url(#p73b54d43c0)" d="M 226.292478 165.747667 
L 233.500008 159.25588 
L 233.515197 155.912054 
L 226.295748 162.383531 
z
" style="fill:#0f023c;"/>
    <path clip-path="url(#p73b54d43c0)" d="M 246.180521 158.419166 
L 258.97691 162.176659 
L 265.90855 155.693948 
L 253.193124 152.005504 
z
" style="fill:#220472;"/>
    <path clip-path="url(#p73b54d43c0)" d="M 181.397755 160.983577 
L 181.349365 158.712734 
L 193.746061 162.456703 
L 193.780682 164.735494 
z
" style="fill:#0c033b;"/>
    <path clip-path="url(#p73b54d43c0)" d="M 265.814761 160.252323 
L 265.956074 153.384165 
L 278.823149 157.104102 
L 278.637155 163.996376 
z
" style="fill:#180240;"/>
    <path clip-path="url(#p73b54d43c0)" d="M 193.780682 164.735494 
L 201.27732 158.262275 
L 213.718049 161.984967 
L 206.297214 168.527892 
z
" style="fill:#15034e;"/>
    <path clip-path="url(#p73b54d43c0)" d="M 226.292478 165.747667 
L 226.300194 157.809523 
L 233.535848 151.365826 
L 233.500008 159.25588 
z
" style="fill:#38038a;"/>
    <path clip-path="url(#p73b54d43c0)" d="M 258.898031 166.762758 
L 265.814761 160.252323 
L 265.90855 155.693948 
L 258.97691 162.176659 
z
" style="fill:#12023e;"/>
    <path clip-path="url(#p73b54d43c0)" d="M 226.292478 165.747667 
L 233.500008 159.25588 
L 246.131049 162.989229 
L 239.002775 169.551023 
z
" style="fill:#220253;"/>
    <path clip-path="url(#p73b54d43c0)" d="M 213.718049 161.984967 
L 226.292478 165.747667 
L 226.295748 162.383531 
L 213.700372 158.632579 
z
" style="fill:#200580;"/>
    <path clip-path="url(#p73b54d43c0)" d="M 173.686069 167.507715 
L 173.628456 165.22308 
L 181.349365 158.712734 
L 181.397755 160.983577 
z
" style="fill:#1a057d;"/>
    <path clip-path="url(#p73b54d43c0)" d="M 258.898031 166.762758 
L 259.01688 159.852753 
L 265.956074 153.384165 
L 265.814761 160.252323 
z
" style="fill:#320488;"/>
    <path clip-path="url(#p73b54d43c0)" d="M 193.721565 160.844308 
L 206.262123 164.623049 
L 213.697583 158.103734 
L 201.233118 154.39458 
z
" style="fill:#1f0470;"/>
    <path clip-path="url(#p73b54d43c0)" d="M 258.898031 166.762758 
L 265.814761 160.252323 
L 278.637155 163.996376 
L 271.803162 170.57712 
z
" style="fill:#1e0252;"/>
    <path clip-path="url(#p73b54d43c0)" d="M 246.131049 162.989229 
L 258.898031 166.762758 
L 258.97691 162.176659 
L 246.180521 158.419166 
z
" style="fill:#270483;"/>
    <path clip-path="url(#p73b54d43c0)" d="M 206.297214 168.527892 
L 213.718049 161.984967 
L 213.697583 158.103734 
L 206.262123 164.623049 
z
" style="fill:#11023d;"/>
    <path clip-path="url(#p73b54d43c0)" d="M 213.718049 161.984967 
L 213.655408 150.10527 
L 226.304066 153.826069 
L 226.292478 165.747667 
z
" style="fill:#230144;"/>
    <path clip-path="url(#p73b54d43c0)" d="M 173.686069 167.507715 
L 181.397755 160.983577 
L 193.780682 164.735494 
L 186.143392 171.330164 
z
" style="fill:#10034c;"/>
    <path clip-path="url(#p73b54d43c0)" d="M 173.628456 165.22308 
L 186.099713 169.037512 
L 193.746061 162.456703 
L 181.349365 158.712734 
z
" style="fill:#17056d;"/>
    <path clip-path="url(#p73b54d43c0)" d="M 226.300194 157.809523 
L 239.060993 161.584922 
L 246.216761 155.071462 
L 233.535848 151.365826 
z
" style="fill:#300378;"/>
    <path clip-path="url(#p73b54d43c0)" d="M 206.297214 168.527892 
L 213.718049 161.984967 
L 226.292478 165.747667 
L 218.949524 172.361429 
z
" style="fill:#2c0157;"/>
    <path clip-path="url(#p73b54d43c0)" d="M 246.131049 162.989229 
L 246.280166 149.214395 
L 259.135788 152.939249 
L 258.898031 166.762758 
z
" style="fill:#270045;"/>
    <path clip-path="url(#p73b54d43c0)" d="M 193.780682 164.735494 
L 206.297214 168.527892 
L 206.262123 164.623049 
L 193.721565 160.844308 
z
" style="fill:#230581;"/>
    <path clip-path="url(#p73b54d43c0)" d="M 206.297214 168.527892 
L 206.189803 156.575486 
L 213.655408 150.10527 
L 213.718049 161.984967 
z
" style="fill:#490290;"/>
    <path clip-path="url(#p73b54d43c0)" d="M 278.637155 163.996376 
L 278.892245 154.543663 
L 291.915437 158.294763 
L 291.597749 167.780781 
z
" style="fill:#1d0142;"/>
    <path clip-path="url(#p73b54d43c0)" d="M 239.002775 169.551023 
L 246.131049 162.989229 
L 246.216761 155.071462 
L 239.060993 161.584922 
z
" style="fill:#1a0241;"/>
    <path clip-path="url(#p73b54d43c0)" d="M 259.01688 159.852753 
L 271.967276 163.642789 
L 278.823149 157.104102 
L 265.956074 153.384165 
z
" style="fill:#2b0376;"/>
    <path clip-path="url(#p73b54d43c0)" d="M 239.002775 169.551023 
L 246.131049 162.989229 
L 258.898031 166.762758 
L 251.851153 173.395697 
z
" style="fill:#310058;"/>
    <path clip-path="url(#p73b54d43c0)" d="M 186.143392 171.330164 
L 193.780682 164.735494 
L 193.746061 162.456703 
L 186.099713 169.037512 
z
" style="fill:#0c033b;"/>
    <path clip-path="url(#p73b54d43c0)" d="M 271.803162 170.57712 
L 278.637155 163.996376 
L 278.823149 157.104102 
L 271.967276 163.642789 
z
" style="fill:#180240;"/>
    <path clip-path="url(#p73b54d43c0)" d="M 239.002775 169.551023 
L 239.104062 155.691723 
L 246.280166 149.214395 
L 246.131049 162.989229 
z
" style="fill:#520192;"/>
    <path clip-path="url(#p73b54d43c0)" d="M 271.803162 170.57712 
L 272.028246 161.066613 
L 278.892245 154.543663 
L 278.637155 163.996376 
z
" style="fill:#3e038c;"/>
    <path clip-path="url(#p73b54d43c0)" d="M 226.292478 165.747667 
L 239.002775 169.551023 
L 239.060993 161.584922 
L 226.300194 157.809523 
z
" style="fill:#38038a;"/>
    <path clip-path="url(#p73b54d43c0)" d="M 271.803162 170.57712 
L 278.637155 163.996376 
L 291.597749 167.780781 
L 284.848695 174.43298 
z
" style="fill:#250255;"/>
    <path clip-path="url(#p73b54d43c0)" d="M 173.686069 167.507715 
L 186.143392 171.330164 
L 186.099713 169.037512 
L 173.628456 165.22308 
z
" style="fill:#1a057d;"/>
    <path clip-path="url(#p73b54d43c0)" d="M 258.898031 166.762758 
L 271.803162 170.57712 
L 271.967276 163.642789 
L 259.01688 159.852753 
z
" style="fill:#320488;"/>
    <path clip-path="url(#p73b54d43c0)" d="M 193.780682 164.735494 
L 193.494484 145.897336 
L 206.127323 149.622862 
L 206.297214 168.527892 
z
" style="fill:#300046;"/>
    <path clip-path="url(#p73b54d43c0)" d="M 186.143392 171.330164 
L 193.780682 164.735494 
L 206.297214 168.527892 
L 198.736391 175.194243 
z
" style="fill:#3e005a;"/>
    <path clip-path="url(#p73b54d43c0)" d="M 218.949524 172.361429 
L 226.292478 165.747667 
L 239.002775 169.551023 
L 231.739835 176.23678 
z
" style="fill:#4f0956;"/>
    <path clip-path="url(#p73b54d43c0)" d="M 218.949524 172.361429 
L 226.292478 165.747667 
L 226.304066 153.826069 
L 218.917266 160.366753 
z
" style="fill:#230144;"/>
    <path clip-path="url(#p73b54d43c0)" d="M 206.189803 156.575486 
L 218.917266 160.366753 
L 226.304066 153.826069 
L 213.655408 150.10527 
z
" style="fill:#40017d;"/>
    <path clip-path="url(#p73b54d43c0)" d="M 186.143392 171.330164 
L 185.782278 152.375963 
L 193.494484 145.897336 
L 193.780682 164.735494 
z
" style="fill:#660195;"/>
    <path clip-path="url(#p73b54d43c0)" d="M 291.597749 167.780781 
L 291.960052 156.962597 
L 305.134021 160.749798 
L 304.698789 171.606197 
z
" style="fill:#200143;"/>
    <path clip-path="url(#p73b54d43c0)" d="M 251.851153 173.395697 
L 258.898031 166.762758 
L 271.803162 170.57712 
L 264.839875 177.282368 
z
" style="fill:#40015a;"/>
    <path clip-path="url(#p73b54d43c0)" d="M 258.898031 166.762758 
L 259.238348 146.976252 
L 272.273113 150.720268 
L 271.803162 170.57712 
z
" style="fill:#320146;"/>
    <path clip-path="url(#p73b54d43c0)" d="M 226.292478 165.747667 
L 226.317762 139.736043 
L 239.193552 143.446522 
L 239.002775 169.551023 
z
" style="fill:#3e0743;"/>
    <path clip-path="url(#p73b54d43c0)" d="M 173.686069 167.507715 
L 173.281985 151.483899 
L 185.837025 155.249526 
L 186.143392 171.330164 
z
" style="fill:#2a0046;"/>
    <path clip-path="url(#p73b54d43c0)" d="M 251.851153 173.395697 
L 258.898031 166.762758 
L 259.135788 152.939249 
L 252.042223 159.487294 
z
" style="fill:#270045;"/>
    <path clip-path="url(#p73b54d43c0)" d="M 272.028246 161.066613 
L 285.137212 164.888876 
L 291.915437 158.294763 
L 278.892245 154.543663 
z
" style="fill:#36027a;"/>
    <path clip-path="url(#p73b54d43c0)" d="M 206.297214 168.527892 
L 218.949524 172.361429 
L 218.917266 160.366753 
L 206.189803 156.575486 
z
" style="fill:#490290;"/>
    <path clip-path="url(#p73b54d43c0)" d="M 165.82912 174.154745 
L 173.686069 167.507715 
L 186.143392 171.330164 
L 178.361455 178.049733 
z
" style="fill:#360059;"/>
    <path clip-path="url(#p73b54d43c0)" d="M 284.848695 174.43298 
L 291.597749 167.780781 
L 291.915437 158.294763 
L 285.137212 164.888876 
z
" style="fill:#1d0142;"/>
    <path clip-path="url(#p73b54d43c0)" d="M 284.848695 174.43298 
L 285.177731 163.548485 
L 291.960052 156.962597 
L 291.597749 167.780781 
z
" style="fill:#44028e;"/>
    <path clip-path="url(#p73b54d43c0)" d="M 284.848695 174.43298 
L 291.597749 167.780781 
L 304.698789 171.606197 
L 298.036935 178.33102 
z
" style="fill:#290156;"/>
    <path clip-path="url(#p73b54d43c0)" d="M 239.104062 155.691723 
L 252.042223 159.487294 
L 259.135788 152.939249 
L 246.280166 149.214395 
z
" style="fill:#47017f;"/>
    <path clip-path="url(#p73b54d43c0)" d="M 251.851153 173.395697 
L 252.124652 153.48712 
L 259.238348 146.976252 
L 258.898031 166.762758 
z
" style="fill:#6a0195;"/>
    <path clip-path="url(#p73b54d43c0)" d="M 218.949524 172.361429 
L 218.879136 146.188633 
L 226.317762 139.736043 
L 226.292478 165.747667 
z
" style="fill:#820e8f;"/>
    <path clip-path="url(#p73b54d43c0)" d="M 165.82912 174.154745 
L 165.357926 158.032327 
L 173.281985 151.483899 
L 173.686069 167.507715 
z
" style="fill:#5a0094;"/>
    <path clip-path="url(#p73b54d43c0)" d="M 198.736391 175.194243 
L 206.297214 168.527892 
L 218.949524 172.361429 
L 211.467294 179.100638 
z
" style="fill:#773435;"/>
    <path clip-path="url(#p73b54d43c0)" d="M 239.002775 169.551023 
L 251.851153 173.395697 
L 252.042223 159.487294 
L 239.104062 155.691723 
z
" style="fill:#520192;"/>
    <path clip-path="url(#p73b54d43c0)" d="M 271.803162 170.57712 
L 284.848695 174.43298 
L 285.137212 164.888876 
L 272.028246 161.066613 
z
" style="fill:#3e038c;"/>
    <path clip-path="url(#p73b54d43c0)" d="M 231.739835 176.23678 
L 239.002775 169.551023 
L 251.851153 173.395697 
L 244.670417 180.154631 
z
" style="fill:#6a2342;"/>
    <path clip-path="url(#p73b54d43c0)" d="M 198.736391 175.194243 
L 206.297214 168.527892 
L 206.127323 149.622862 
L 198.493006 156.172579 
z
" style="fill:#300046;"/>
    <path clip-path="url(#p73b54d43c0)" d="M 264.839875 177.282368 
L 271.803162 170.57712 
L 284.848695 174.43298 
L 277.971253 181.211726 
z
" style="fill:#4d0757;"/>
    <path clip-path="url(#p73b54d43c0)" d="M 185.782278 152.375963 
L 198.493006 156.172579 
L 206.127323 149.622862 
L 193.494484 145.897336 
z
" style="fill:#590181;"/>
    <path clip-path="url(#p73b54d43c0)" d="M 186.143392 171.330164 
L 198.736391 175.194243 
L 198.493006 156.172579 
L 185.782278 152.375963 
z
" style="fill:#660195;"/>
    <path clip-path="url(#p73b54d43c0)" d="M 178.361455 178.049733 
L 186.143392 171.330164 
L 198.736391 175.194243 
L 191.031582 181.987547 
z
" style="fill:#7b3a30;"/>
    <path clip-path="url(#p73b54d43c0)" d="M 285.177731 163.548485 
L 298.439888 167.407979 
L 305.134021 160.749798 
L 291.960052 156.962597 
z
" style="fill:#3b027b;"/>
    <path clip-path="url(#p73b54d43c0)" d="M 298.036935 178.33102 
L 304.698789 171.606197 
L 305.134021 160.749798 
L 298.439888 167.407979 
z
" style="fill:#200143;"/>
    <path clip-path="url(#p73b54d43c0)" d="M 271.803162 170.57712 
L 272.398618 145.417267 
L 285.611992 149.183176 
L 284.848695 174.43298 
z
" style="fill:#3c0544;"/>
    <path clip-path="url(#p73b54d43c0)" d="M 264.839875 177.282368 
L 271.803162 170.57712 
L 272.273113 150.720268 
L 265.244713 157.302822 
z
" style="fill:#320146;"/>
    <path clip-path="url(#p73b54d43c0)" d="M 231.739835 176.23678 
L 239.002775 169.551023 
L 239.193552 143.446522 
L 231.837047 149.970273 
z
" style="fill:#3e0743;"/>
    <path clip-path="url(#p73b54d43c0)" d="M 178.361455 178.049733 
L 186.143392 171.330164 
L 185.837025 155.249526 
L 177.989147 161.869995 
z
" style="fill:#2a0046;"/>
    <path clip-path="url(#p73b54d43c0)" d="M 211.467294 179.100638 
L 218.949524 172.361429 
L 231.739835 176.23678 
L 224.338378 183.050047 
z
" style="fill:#876616;"/>
    <path clip-path="url(#p73b54d43c0)" d="M 284.848695 174.43298 
L 298.036935 178.33102 
L 298.439888 167.407979 
L 285.177731 163.548485 
z
" style="fill:#44028e;"/>
    <path clip-path="url(#p73b54d43c0)" d="M 264.839875 177.282368 
L 265.352842 151.966422 
L 272.398618 145.417267 
L 271.803162 170.57712 
z
" style="fill:#7f0c90;"/>
    <path clip-path="url(#p73b54d43c0)" d="M 165.357926 158.032327 
L 177.989147 161.869995 
L 185.837025 155.249526 
L 173.281985 151.483899 
z
" style="fill:#4e0080;"/>
    <path clip-path="url(#p73b54d43c0)" d="M 239.002775 169.551023 
L 239.300321 128.837123 
L 252.412492 132.534576 
L 251.851153 173.395697 
z
" style="fill:#531b34;"/>
    <path clip-path="url(#p73b54d43c0)" d="M 244.670417 180.154631 
L 251.851153 173.395697 
L 264.839875 177.282368 
L 257.743589 184.115686 
z
" style="fill:#773435;"/>
    <path clip-path="url(#p73b54d43c0)" d="M 251.851153 173.395697 
L 264.839875 177.282368 
L 265.244713 157.302822 
L 252.124652 153.48712 
z
" style="fill:#6a0195;"/>
    <path clip-path="url(#p73b54d43c0)" d="M 218.949524 172.361429 
L 231.739835 176.23678 
L 231.837047 149.970273 
L 218.879136 146.188633 
z
" style="fill:#820e8f;"/>
    <path clip-path="url(#p73b54d43c0)" d="M 165.82912 174.154745 
L 178.361455 178.049733 
L 177.989147 161.869995 
L 165.357926 158.032327 
z
" style="fill:#5a0094;"/>
    <path clip-path="url(#p73b54d43c0)" d="M 252.124652 153.48712 
L 265.244713 157.302822 
L 272.273113 150.720268 
L 259.238348 146.976252 
z
" style="fill:#5c0181;"/>
    <path clip-path="url(#p73b54d43c0)" d="M 206.297214 168.527892 
L 205.849173 118.670898 
L 218.814952 122.322991 
L 218.949524 172.361429 
z
" style="fill:#5d282a;"/>
    <path clip-path="url(#p73b54d43c0)" d="M 165.82912 174.154745 
L 165.283152 155.473864 
L 177.930062 159.302305 
L 178.361455 178.049733 
z
" style="fill:#300046;"/>
    <path clip-path="url(#p73b54d43c0)" d="M 157.822766 180.928173 
L 165.82912 174.154745 
L 178.361455 178.049733 
L 170.430723 184.897786 
z
" style="fill:#3d005a;"/>
    <path clip-path="url(#p73b54d43c0)" d="M 277.971253 181.211726 
L 284.848695 174.43298 
L 298.036935 178.33102 
L 291.24765 185.184478 
z
" style="fill:#4d0757;"/>
    <path clip-path="url(#p73b54d43c0)" d="M 231.739835 176.23678 
L 231.891461 135.267389 
L 239.300321 128.837123 
L 239.002775 169.551023 
z
" style="fill:#b03a6e;"/>
    <path clip-path="url(#p73b54d43c0)" d="M 218.879136 146.188633 
L 231.837047 149.970273 
L 239.193552 143.446522 
L 226.317762 139.736043 
z
" style="fill:#710d7c;"/>
    <path clip-path="url(#p73b54d43c0)" d="M 191.031582 181.987547 
L 198.736391 175.194243 
L 211.467294 179.100638 
L 203.841786 185.968896 
z
" style="fill:#837c14;"/>
    <path clip-path="url(#p73b54d43c0)" d="M 198.736391 175.194243 
L 198.094435 125.022359 
L 205.849173 118.670898 
L 206.297214 168.527892 
z
" style="fill:#c45559;"/>
    <path clip-path="url(#p73b54d43c0)" d="M 157.822766 180.928173 
L 157.196131 162.131815 
L 165.283152 155.473864 
L 165.82912 174.154745 
z
" style="fill:#650095;"/>
    <path clip-path="url(#p73b54d43c0)" d="M 284.848695 174.43298 
L 285.616823 149.023359 
L 298.977659 152.830402 
L 298.036935 178.33102 
z
" style="fill:#3c0544;"/>
    <path clip-path="url(#p73b54d43c0)" d="M 224.338378 183.050047 
L 231.739835 176.23678 
L 244.670417 180.154631 
L 237.351973 187.043183 
z
" style="fill:#857613;"/>
    <path clip-path="url(#p73b54d43c0)" d="M 277.971253 181.211726 
L 284.848695 174.43298 
L 285.611992 149.183176 
L 278.654312 155.805029 
z
" style="fill:#3c0544;"/>
    <path clip-path="url(#p73b54d43c0)" d="M 277.971253 181.211726 
L 278.658636 155.644199 
L 285.616823 149.023359 
L 284.848695 174.43298 
z
" style="fill:#7f0c90;"/>
    <path clip-path="url(#p73b54d43c0)" d="M 257.743589 184.115686 
L 264.839875 177.282368 
L 277.971253 181.211726 
L 270.961723 188.120663 
z
" style="fill:#783534;"/>
    <path clip-path="url(#p73b54d43c0)" d="M 186.143392 171.330164 
L 185.119526 117.589422 
L 198.046258 121.257123 
L 198.736391 175.194243 
z
" style="fill:#602e26;"/>
    <path clip-path="url(#p73b54d43c0)" d="M 170.430723 184.897786 
L 178.361455 178.049733 
L 191.031582 181.987547 
L 183.178635 188.911464 
z
" style="fill:#722d3a;"/>
    <path clip-path="url(#p73b54d43c0)" d="M 264.839875 177.282368 
L 277.971253 181.211726 
L 278.654312 155.805029 
L 265.352842 151.966422 
z
" style="fill:#7f0c90;"/>
    <path clip-path="url(#p73b54d43c0)" d="M 157.822766 180.928173 
L 157.622262 174.913902 
L 170.267324 178.86225 
L 170.430723 184.897786 
z
" style="fill:#15023f;"/>
    <path clip-path="url(#p73b54d43c0)" d="M 244.670417 180.154631 
L 251.851153 173.395697 
L 252.412492 132.534576 
L 245.08927 139.036669 
z
" style="fill:#531b34;"/>
    <path clip-path="url(#p73b54d43c0)" d="M 178.361455 178.049733 
L 177.116997 123.968181 
L 185.119526 117.589422 
L 186.143392 171.330164 
z
" style="fill:#cc6150;"/>
    <path clip-path="url(#p73b54d43c0)" d="M 251.851153 173.395697 
L 252.540925 123.185659 
L 265.860973 126.88918 
L 264.839875 177.282368 
z
" style="fill:#5d282a;"/>
    <path clip-path="url(#p73b54d43c0)" d="M 203.841786 185.968896 
L 211.467294 179.100638 
L 224.338378 183.050047 
L 216.794403 189.994506 
z
" style="fill:#808512;"/>
    <path clip-path="url(#p73b54d43c0)" d="M 211.467294 179.100638 
L 218.949524 172.361429 
L 218.814952 122.322991 
L 211.142747 128.745615 
z
" style="fill:#5d282a;"/>
    <path clip-path="url(#p73b54d43c0)" d="M 170.430723 184.897786 
L 178.361455 178.049733 
L 177.930062 159.302305 
L 169.920035 166.034302 
z
" style="fill:#300046;"/>
    <path clip-path="url(#p73b54d43c0)" d="M 265.352842 151.966422 
L 278.654312 155.805029 
L 285.611992 149.183176 
L 272.398618 145.417267 
z
" style="fill:#6e0a7d;"/>
    <path clip-path="url(#p73b54d43c0)" d="M 149.662704 187.831639 
L 149.435435 181.780471 
L 157.622262 174.913902 
L 157.822766 180.928173 
z
" style="fill:#2d0486;"/>
    <path clip-path="url(#p73b54d43c0)" d="M 231.739835 176.23678 
L 244.670417 180.154631 
L 245.08927 139.036669 
L 231.891461 135.267389 
z
" style="fill:#b03a6e;"/>
    <path clip-path="url(#p73b54d43c0)" d="M 237.351973 187.043183 
L 244.670417 180.154631 
L 257.743589 184.115686 
L 250.510457 191.080779 
z
" style="fill:#875e1a;"/>
    <path clip-path="url(#p73b54d43c0)" d="M 244.670417 180.154631 
L 245.185125 129.626747 
L 252.540925 123.185659 
L 251.851153 173.395697 
z
" style="fill:#c45559;"/>
    <path clip-path="url(#p73b54d43c0)" d="M 198.736391 175.194243 
L 211.467294 179.100638 
L 211.142747 128.745615 
L 198.094435 125.022359 
z
" style="fill:#c45559;"/>
    <path clip-path="url(#p73b54d43c0)" d="M 157.196131 162.131815 
L 169.920035 166.034302 
L 177.930062 159.302305 
L 165.283152 155.473864 
z
" style="fill:#580081;"/>
    <path clip-path="url(#p73b54d43c0)" d="M 157.822766 180.928173 
L 170.430723 184.897786 
L 169.920035 166.034302 
L 157.196131 162.131815 
z
" style="fill:#650095;"/>
    <path clip-path="url(#p73b54d43c0)" d="M 291.24765 185.184478 
L 298.036935 178.33102 
L 298.977659 152.830402 
L 292.109986 159.525153 
z
" style="fill:#3c0544;"/>
    <path clip-path="url(#p73b54d43c0)" d="M 149.662704 187.831639 
L 157.822766 180.928173 
L 170.430723 184.897786 
L 162.346885 191.878042 
z
" style="fill:#1b0251;"/>
    <path clip-path="url(#p73b54d43c0)" d="M 270.961723 188.120663 
L 277.971253 181.211726 
L 291.24765 185.184478 
L 284.327244 192.170297 
z
" style="fill:#6c2541;"/>
    <path clip-path="url(#p73b54d43c0)" d="M 183.178635 188.911464 
L 191.031582 181.987547 
L 203.841786 185.968896 
L 196.068846 192.969946 
z
" style="fill:#793733;"/>
    <path clip-path="url(#p73b54d43c0)" d="M 218.949524 172.361429 
L 218.749886 98.12935 
L 232.015585 101.72917 
L 231.739835 176.23678 
z
" style="fill:#6a5011;"/>
    <path clip-path="url(#p73b54d43c0)" d="M 277.971253 181.211726 
L 291.24765 185.184478 
L 292.109986 159.525153 
L 278.658636 155.644199 
z
" style="fill:#7f0c90;"/>
    <path clip-path="url(#p73b54d43c0)" d="M 191.031582 181.987547 
L 198.736391 175.194243 
L 198.046258 121.257123 
L 190.124975 127.707778 
z
" style="fill:#602e26;"/>
    <path clip-path="url(#p73b54d43c0)" d="M 264.839875 177.282368 
L 265.876783 126.108926 
L 279.352082 129.851194 
L 277.971253 181.211726 
z
" style="fill:#5e2a29;"/>
    <path clip-path="url(#p73b54d43c0)" d="M 178.361455 178.049733 
L 177.282132 131.144595 
L 190.245294 134.911424 
L 191.031582 181.987547 
z
" style="fill:#59232d;"/>
    <path clip-path="url(#p73b54d43c0)" d="M 216.794403 189.994506 
L 224.338378 183.050047 
L 237.351973 187.043183 
L 229.891821 194.06512 
z
" style="fill:#875c1b;"/>
    <path clip-path="url(#p73b54d43c0)" d="M 149.435435 181.780471 
L 162.157164 185.805432 
L 170.267324 178.86225 
L 157.622262 174.913902 
z
" style="fill:#270374;"/>
    <path clip-path="url(#p73b54d43c0)" d="M 170.430723 184.897786 
L 170.166944 175.154484 
L 182.97611 179.133567 
L 183.178635 188.911464 
z
" style="fill:#1e0142;"/>
    <path clip-path="url(#p73b54d43c0)" d="M 278.658636 155.644199 
L 292.109986 159.525153 
L 298.977659 152.830402 
L 285.616823 149.023359 
z
" style="fill:#6e0a7d;"/>
    <path clip-path="url(#p73b54d43c0)" d="M 211.467294 179.100638 
L 210.985773 104.390348 
L 218.749886 98.12935 
L 218.949524 172.361429 
z
" style="fill:#e0aa24;"/>
    <path clip-path="url(#p73b54d43c0)" d="M 231.891461 135.267389 
L 245.08927 139.036669 
L 252.412492 132.534576 
L 239.300321 128.837123 
z
" style="fill:#98325f;"/>
    <path clip-path="url(#p73b54d43c0)" d="M 162.346885 191.878042 
L 170.430723 184.897786 
L 170.267324 178.86225 
L 162.157164 185.805432 
z
" style="fill:#15023f;"/>
    <path clip-path="url(#p73b54d43c0)" d="M 250.510457 191.080779 
L 257.743589 184.115686 
L 270.961723 188.120663 
L 263.816264 195.163579 
z
" style="fill:#7d3d2f;"/>
    <path clip-path="url(#p73b54d43c0)" d="M 178.361455 178.049733 
L 191.031582 181.987547 
L 190.124975 127.707778 
L 177.116997 123.968181 
z
" style="fill:#cc6150;"/>
    <path clip-path="url(#p73b54d43c0)" d="M 257.743589 184.115686 
L 264.839875 177.282368 
L 265.860973 126.88918 
L 258.594028 133.402955 
z
" style="fill:#5d282a;"/>
    <path clip-path="url(#p73b54d43c0)" d="M 257.743589 184.115686 
L 258.607198 132.617562 
L 265.876783 126.108926 
L 264.839875 177.282368 
z
" style="fill:#c75856;"/>
    <path clip-path="url(#p73b54d43c0)" d="M 170.430723 184.897786 
L 169.152837 137.695922 
L 177.282132 131.144595 
L 178.361455 178.049733 
z
" style="fill:#bd4b60;"/>
    <path clip-path="url(#p73b54d43c0)" d="M 149.662704 187.831639 
L 149.639552 187.215207 
L 162.327558 191.259435 
L 162.346885 191.878042 
z
" style="fill:#070339;"/>
    <path clip-path="url(#p73b54d43c0)" d="M 162.346885 191.878042 
L 162.040609 182.074713 
L 170.166944 175.154484 
L 170.430723 184.897786 
z
" style="fill:#3f038d;"/>
    <path clip-path="url(#p73b54d43c0)" d="M 162.346885 191.878042 
L 170.430723 184.897786 
L 183.178635 188.911464 
L 175.173234 195.969799 
z
" style="fill:#260255;"/>
    <path clip-path="url(#p73b54d43c0)" d="M 277.971253 181.211726 
L 279.109731 138.865531 
L 292.67596 142.684268 
L 291.24765 185.184478 
z
" style="fill:#541d33;"/>
    <path clip-path="url(#p73b54d43c0)" d="M 149.662704 187.831639 
L 162.346885 191.878042 
L 162.157164 185.805432 
L 149.435435 181.780471 
z
" style="fill:#2d0486;"/>
    <path clip-path="url(#p73b54d43c0)" d="M 244.670417 180.154631 
L 257.743589 184.115686 
L 258.594028 133.402955 
L 245.185125 129.626747 
z
" style="fill:#c45559;"/>
    <path clip-path="url(#p73b54d43c0)" d="M 141.344465 194.868925 
L 141.318485 194.248719 
L 149.639552 187.215207 
L 149.662704 187.831639 
z
" style="fill:#0e0678;"/>
    <path clip-path="url(#p73b54d43c0)" d="M 196.068846 192.969946 
L 203.841786 185.968896 
L 216.794403 189.994506 
L 209.103753 197.073984 
z
" style="fill:#6a2243;"/>
    <path clip-path="url(#p73b54d43c0)" d="M 198.094435 125.022359 
L 211.142747 128.745615 
L 218.814952 122.322991 
L 205.849173 118.670898 
z
" style="fill:#ab4a4d;"/>
    <path clip-path="url(#p73b54d43c0)" d="M 198.736391 175.194243 
L 197.671564 91.972998 
L 210.928911 95.568061 
L 211.467294 179.100638 
z
" style="fill:#666110;"/>
    <path clip-path="url(#p73b54d43c0)" d="M 270.961723 188.120663 
L 271.961116 145.507199 
L 279.109731 138.865531 
L 277.971253 181.211726 
z
" style="fill:#b23d6b;"/>
    <path clip-path="url(#p73b54d43c0)" d="M 229.891821 194.06512 
L 237.351973 187.043183 
L 250.510457 191.080779 
L 243.136481 198.181496 
z
" style="fill:#753137;"/>
    <path clip-path="url(#p73b54d43c0)" d="M 231.739835 176.23678 
L 232.039582 95.245317 
L 245.498529 98.860537 
L 244.670417 180.154631 
z
" style="fill:#685c0f;"/>
    <path clip-path="url(#p73b54d43c0)" d="M 183.178635 188.911464 
L 182.962834 178.492576 
L 195.919797 182.513998 
L 196.068846 192.969946 
z
" style="fill:#1f0143;"/>
    <path clip-path="url(#p73b54d43c0)" d="M 224.338378 183.050047 
L 231.739835 176.23678 
L 232.015585 101.72917 
L 224.338378 108.061554 
z
" style="fill:#6a5011;"/>
    <path clip-path="url(#p73b54d43c0)" d="M 141.344465 194.868925 
L 149.662704 187.831639 
L 162.346885 191.878042 
L 154.105465 198.994368 
z
" style="fill:#090449;"/>
    <path clip-path="url(#p73b54d43c0)" d="M 191.031582 181.987547 
L 190.160763 129.850449 
L 203.302855 133.640699 
L 203.841786 185.968896 
z
" style="fill:#5e2b28;"/>
    <path clip-path="url(#p73b54d43c0)" d="M 191.031582 181.987547 
L 189.632556 98.225942 
L 197.671564 91.972998 
L 198.736391 175.194243 
z
" style="fill:#d9ce22;"/>
    <path clip-path="url(#p73b54d43c0)" d="M 141.318485 194.248719 
L 154.083356 198.37197 
L 162.327558 191.259435 
L 149.639552 187.215207 
z
" style="fill:#0c0668;"/>
    <path clip-path="url(#p73b54d43c0)" d="M 263.816264 195.163579 
L 270.961723 188.120663 
L 284.327244 192.170297 
L 277.271882 199.292348 
z
" style="fill:#631b49;"/>
    <path clip-path="url(#p73b54d43c0)" d="M 162.040609 182.074713 
L 174.92896 186.131587 
L 182.97611 179.133567 
L 170.166944 175.154484 
z
" style="fill:#37027a;"/>
    <path clip-path="url(#p73b54d43c0)" d="M 270.961723 188.120663 
L 277.971253 181.211726 
L 279.352082 129.851194 
L 272.173912 136.433724 
z
" style="fill:#5e2a29;"/>
    <path clip-path="url(#p73b54d43c0)" d="M 183.178635 188.911464 
L 191.031582 181.987547 
L 190.245294 134.911424 
L 182.197395 141.537055 
z
" style="fill:#59232d;"/>
    <path clip-path="url(#p73b54d43c0)" d="M 175.173234 195.969799 
L 183.178635 188.911464 
L 182.97611 179.133567 
L 174.92896 186.131587 
z
" style="fill:#1e0142;"/>
    <path clip-path="url(#p73b54d43c0)" d="M 224.338378 183.050047 
L 224.338378 101.533332 
L 232.039582 95.245317 
L 231.739835 176.23678 
z
" style="fill:#dcc420;"/>
    <path clip-path="url(#p73b54d43c0)" d="M 162.346885 191.878042 
L 162.288036 189.994414 
L 175.1263 194.07951 
L 175.173234 195.969799 
z
" style="fill:#0b033b;"/>
    <path clip-path="url(#p73b54d43c0)" d="M 175.173234 195.969799 
L 174.912946 185.48661 
L 182.962834 178.492576 
L 183.178635 188.911464 
z
" style="fill:#42028e;"/>
    <path clip-path="url(#p73b54d43c0)" d="M 175.173234 195.969799 
L 183.178635 188.911464 
L 196.068846 192.969946 
L 188.144156 200.107676 
z
" style="fill:#280156;"/>
    <path clip-path="url(#p73b54d43c0)" d="M 211.467294 179.100638 
L 224.338378 183.050047 
L 224.338378 108.061554 
L 210.985773 104.390348 
z
" style="fill:#e0aa24;"/>
    <path clip-path="url(#p73b54d43c0)" d="M 183.178635 188.911464 
L 182.091879 136.442732 
L 190.160763 129.850449 
L 191.031582 181.987547 
z
" style="fill:#c85a55;"/>
    <path clip-path="url(#p73b54d43c0)" d="M 244.670417 180.154631 
L 245.396197 108.906272 
L 258.942844 112.602585 
L 257.743589 184.115686 
z
" style="fill:#6a4a14;"/>
    <path clip-path="url(#p73b54d43c0)" d="M 257.743589 184.115686 
L 270.961723 188.120663 
L 272.173912 136.433724 
L 258.607198 132.617562 
z
" style="fill:#c75856;"/>
    <path clip-path="url(#p73b54d43c0)" d="M 170.430723 184.897786 
L 183.178635 188.911464 
L 182.197395 141.537055 
L 169.152837 137.695922 
z
" style="fill:#bd4b60;"/>
    <path clip-path="url(#p73b54d43c0)" d="M 203.841786 185.968896 
L 203.417243 144.747346 
L 216.637259 148.622905 
L 216.794403 189.994506 
z
" style="fill:#521b34;"/>
    <path clip-path="url(#p73b54d43c0)" d="M 154.105465 198.994368 
L 162.346885 191.878042 
L 162.327558 191.259435 
L 154.083356 198.37197 
z
" style="fill:#070339;"/>
    <path clip-path="url(#p73b54d43c0)" d="M 209.103753 197.073984 
L 216.794403 189.994506 
L 229.891821 194.06512 
L 222.285805 201.224351 
z
" style="fill:#520b55;"/>
    <path clip-path="url(#p73b54d43c0)" d="M 162.346885 191.878042 
L 175.173234 195.969799 
L 174.92896 186.131587 
L 162.040609 182.074713 
z
" style="fill:#3f038d;"/>
    <path clip-path="url(#p73b54d43c0)" d="M 154.105465 198.994368 
L 154.038143 197.099184 
L 162.288036 189.994414 
L 162.346885 191.878042 
z
" style="fill:#18057c;"/>
    <path clip-path="url(#p73b54d43c0)" d="M 177.116997 123.968181 
L 190.124975 127.707778 
L 198.046258 121.257123 
L 185.119526 117.589422 
z
" style="fill:#b15446;"/>
    <path clip-path="url(#p73b54d43c0)" d="M 257.743589 184.115686 
L 258.677 128.455185 
L 272.271903 132.255438 
L 270.961723 188.120663 
z
" style="fill:#613024;"/>
    <path clip-path="url(#p73b54d43c0)" d="M 284.327244 192.170297 
L 291.24765 185.184478 
L 292.67596 142.684268 
L 285.620457 149.401434 
z
" style="fill:#541d33;"/>
    <path clip-path="url(#p73b54d43c0)" d="M 237.351973 187.043183 
L 237.821126 115.335355 
L 245.396197 108.906272 
L 244.670417 180.154631 
z
" style="fill:#e09c2b;"/>
    <path clip-path="url(#p73b54d43c0)" d="M 243.136481 198.181496 
L 250.510457 191.080779 
L 263.816264 195.163579 
L 256.530882 202.34441 
z
" style="fill:#5a1350;"/>
    <path clip-path="url(#p73b54d43c0)" d="M 211.467294 179.100638 
L 210.906818 92.140114 
L 224.338378 95.762755 
L 224.338378 183.050047 
z
" style="fill:#64680e;"/>
    <path clip-path="url(#p73b54d43c0)" d="M 245.185125 129.626747 
L 258.594028 133.402955 
L 265.860973 126.88918 
L 252.540925 123.185659 
z
" style="fill:#ab4a4d;"/>
    <path clip-path="url(#p73b54d43c0)" d="M 270.961723 188.120663 
L 271.831793 151.021437 
L 285.453096 154.936357 
L 284.327244 192.170297 
z
" style="fill:#4d1539;"/>
    <path clip-path="url(#p73b54d43c0)" d="M 196.068846 192.969946 
L 195.477524 151.488012 
L 203.417243 144.747346 
L 203.841786 185.968896 
z
" style="fill:#af396f;"/>
    <path clip-path="url(#p73b54d43c0)" d="M 141.344465 194.868925 
L 154.105465 198.994368 
L 154.083356 198.37197 
L 141.318485 194.248719 
z
" style="fill:#0e0678;"/>
    <path clip-path="url(#p73b54d43c0)" d="M 196.068846 192.969946 
L 195.908529 181.723546 
L 209.01687 185.787509 
L 209.103753 197.073984 
z
" style="fill:#210143;"/>
    <path clip-path="url(#p73b54d43c0)" d="M 216.794403 189.994506 
L 216.687729 161.910209 
L 229.970793 165.879495 
L 229.891821 194.06512 
z
" style="fill:#400942;"/>
    <path clip-path="url(#p73b54d43c0)" d="M 154.105465 198.994368 
L 162.346885 191.878042 
L 175.173234 195.969799 
L 167.010898 203.166503 
z
" style="fill:#0e034b;"/>
    <path clip-path="url(#p73b54d43c0)" d="M 203.841786 185.968896 
L 211.467294 179.100638 
L 210.928911 95.568061 
L 202.975882 101.892906 
z
" style="fill:#666110;"/>
    <path clip-path="url(#p73b54d43c0)" d="M 250.510457 191.080779 
L 251.24901 135.064998 
L 258.677 128.455185 
L 257.743589 184.115686 
z
" style="fill:#ce654d;"/>
    <path clip-path="url(#p73b54d43c0)" d="M 224.338378 183.050047 
L 224.338378 112.503663 
L 237.815243 116.2345 
L 237.351973 187.043183 
z
" style="fill:#694815;"/>
    <path clip-path="url(#p73b54d43c0)" d="M 270.961723 188.120663 
L 284.327244 192.170297 
L 285.620457 149.401434 
L 271.961116 145.507199 
z
" style="fill:#b23d6b;"/>
    <path clip-path="url(#p73b54d43c0)" d="M 237.351973 187.043183 
L 237.675047 137.662731 
L 251.16391 141.519378 
L 250.510457 191.080779 
z
" style="fill:#5b262b;"/>
    <path clip-path="url(#p73b54d43c0)" d="M 154.038143 197.099184 
L 166.955635 201.264606 
L 175.1263 194.07951 
L 162.288036 189.994414 
z
" style="fill:#15056c;"/>
    <path clip-path="url(#p73b54d43c0)" d="M 203.841786 185.968896 
L 202.940333 98.441219 
L 210.906818 92.140114 
L 211.467294 179.100638 
z
" style="fill:#d4dc1e;"/>
    <path clip-path="url(#p73b54d43c0)" d="M 174.912946 185.48661 
L 187.951452 189.587122 
L 195.919797 182.513998 
L 182.962834 178.492576 
z
" style="fill:#39027b;"/>
    <path clip-path="url(#p73b54d43c0)" d="M 237.351973 187.043183 
L 244.670417 180.154631 
L 245.498529 98.860537 
L 237.8873 105.220886 
z
" style="fill:#685c0f;"/>
    <path clip-path="url(#p73b54d43c0)" d="M 188.144156 200.107676 
L 196.068846 192.969946 
L 195.919797 182.513998 
L 187.951452 189.587122 
z
" style="fill:#1f0143;"/>
    <path clip-path="url(#p73b54d43c0)" d="M 263.816264 195.163579 
L 264.560265 157.830589 
L 271.831793 151.021437 
L 270.961723 188.120663 
z
" style="fill:#a42d79;"/>
    <path clip-path="url(#p73b54d43c0)" d="M 175.173234 195.969799 
L 175.109814 193.415537 
L 188.097204 197.544367 
L 188.144156 200.107676 
z
" style="fill:#0d023b;"/>
    <path clip-path="url(#p73b54d43c0)" d="M 188.144156 200.107676 
L 196.068846 192.969946 
L 209.103753 197.073984 
L 201.262108 204.292457 
z
" style="fill:#2a0156;"/>
    <path clip-path="url(#p73b54d43c0)" d="M 188.144156 200.107676 
L 187.936883 188.791742 
L 195.908529 181.723546 
L 196.068846 192.969946 
z
" style="fill:#45028f;"/>
    <path clip-path="url(#p73b54d43c0)" d="M 209.103753 197.073984 
L 208.886206 168.813865 
L 216.687729 161.910209 
L 216.794403 189.994506 
z
" style="fill:#87128d;"/>
    <path clip-path="url(#p73b54d43c0)" d="M 196.068846 192.969946 
L 203.841786 185.968896 
L 203.302855 133.640699 
L 195.318159 140.308366 
z
" style="fill:#5e2b28;"/>
    <path clip-path="url(#p73b54d43c0)" d="M 250.510457 191.080779 
L 250.937628 158.681856 
L 264.464274 162.647326 
L 263.816264 195.163579 
z
" style="fill:#470f3e;"/>
    <path clip-path="url(#p73b54d43c0)" d="M 191.031582 181.987547 
L 203.841786 185.968896 
L 202.975882 101.892906 
L 189.632556 98.225942 
z
" style="fill:#d9ce22;"/>
    <path clip-path="url(#p73b54d43c0)" d="M 216.794403 189.994506 
L 216.524714 118.992897 
L 224.338378 112.503663 
L 224.338378 183.050047 
z
" style="fill:#df982d;"/>
    <path clip-path="url(#p73b54d43c0)" d="M 229.891821 194.06512 
L 229.942091 176.123395 
L 243.307609 180.175474 
L 243.136481 198.181496 
z
" style="fill:#2e0046;"/>
    <path clip-path="url(#p73b54d43c0)" d="M 229.891821 194.06512 
L 230.031058 144.370658 
L 237.675047 137.662731 
L 237.351973 187.043183 
z
" style="fill:#c2515c;"/>
    <path clip-path="url(#p73b54d43c0)" d="M 222.285805 201.224351 
L 229.891821 194.06512 
L 243.136481 198.181496 
L 235.617509 205.421836 
z
" style="fill:#3a005a;"/>
    <path clip-path="url(#p73b54d43c0)" d="M 224.338378 183.050047 
L 237.351973 187.043183 
L 237.8873 105.220886 
L 224.338378 101.533332 
z
" style="fill:#dcc420;"/>
    <path clip-path="url(#p73b54d43c0)" d="M 167.010898 203.166503 
L 175.173234 195.969799 
L 175.1263 194.07951 
L 166.955635 201.264606 
z
" style="fill:#0b033b;"/>
    <path clip-path="url(#p73b54d43c0)" d="M 175.173234 195.969799 
L 188.144156 200.107676 
L 187.951452 189.587122 
L 174.912946 185.48661 
z
" style="fill:#42028e;"/>
    <path clip-path="url(#p73b54d43c0)" d="M 167.010898 203.166503 
L 166.936223 200.596546 
L 175.109814 193.415537 
L 175.173234 195.969799 
z
" style="fill:#1c057e;"/>
    <path clip-path="url(#p73b54d43c0)" d="M 169.152837 137.695922 
L 182.197395 141.537055 
L 190.245294 134.911424 
L 177.282132 131.144595 
z
" style="fill:#a44154;"/>
    <path clip-path="url(#p73b54d43c0)" d="M 263.816264 195.163579 
L 264.171283 177.349209 
L 277.750609 181.414125 
L 277.271882 199.292348 
z
" style="fill:#2d0046;"/>
    <path clip-path="url(#p73b54d43c0)" d="M 183.178635 188.911464 
L 196.068846 192.969946 
L 195.318159 140.308366 
L 182.091879 136.442732 
z
" style="fill:#c85a55;"/>
    <path clip-path="url(#p73b54d43c0)" d="M 243.136481 198.181496 
L 243.446334 165.578981 
L 250.937628 158.681856 
L 250.510457 191.080779 
z
" style="fill:#961f84;"/>
    <path clip-path="url(#p73b54d43c0)" d="M 250.510457 191.080779 
L 257.743589 184.115686 
L 258.942844 112.602585 
L 251.459429 119.105687 
z
" style="fill:#6a4a14;"/>
    <path clip-path="url(#p73b54d43c0)" d="M 256.530882 202.34441 
L 263.816264 195.163579 
L 277.271882 199.292348 
L 270.077576 206.554656 
z
" style="fill:#3a005a;"/>
    <path clip-path="url(#p73b54d43c0)" d="M 209.103753 197.073984 
L 209.032063 187.761147 
L 222.276092 191.878342 
L 222.285805 201.224351 
z
" style="fill:#1c0142;"/>
    <path clip-path="url(#p73b54d43c0)" d="M 222.285805 201.224351 
L 222.267042 183.171067 
L 229.942091 176.123395 
L 229.891821 194.06512 
z
" style="fill:#610095;"/>
    <path clip-path="url(#p73b54d43c0)" d="M 209.103753 197.073984 
L 216.794403 189.994506 
L 216.637259 148.622905 
L 208.78326 155.440668 
z
" style="fill:#521b34;"/>
    <path clip-path="url(#p73b54d43c0)" d="M 258.607198 132.617562 
L 272.173912 136.433724 
L 279.352082 129.851194 
L 265.876783 126.108926 
z
" style="fill:#ac4d4b;"/>
    <path clip-path="url(#p73b54d43c0)" d="M 154.105465 198.994368 
L 167.010898 203.166503 
L 166.955635 201.264606 
L 154.038143 197.099184 
z
" style="fill:#18057c;"/>
    <path clip-path="url(#p73b54d43c0)" d="M 167.010898 203.166503 
L 175.173234 195.969799 
L 188.144156 200.107676 
L 180.063228 207.386128 
z
" style="fill:#11034c;"/>
    <path clip-path="url(#p73b54d43c0)" d="M 263.816264 195.163579 
L 270.961723 188.120663 
L 272.271903 132.255438 
L 264.936708 138.941197 
z
" style="fill:#613024;"/>
    <path clip-path="url(#p73b54d43c0)" d="M 256.530882 202.34441 
L 256.823245 184.419249 
L 264.171283 177.349209 
L 263.816264 195.163579 
z
" style="fill:#5f0094;"/>
    <path clip-path="url(#p73b54d43c0)" d="M 271.961116 145.507199 
L 285.620457 149.401434 
L 292.67596 142.684268 
L 279.109731 138.865531 
z
" style="fill:#9b355d;"/>
    <path clip-path="url(#p73b54d43c0)" d="M 237.351973 187.043183 
L 250.510457 191.080779 
L 251.459429 119.105687 
L 237.821126 115.335355 
z
" style="fill:#e09c2b;"/>
    <path clip-path="url(#p73b54d43c0)" d="M 201.262108 204.292457 
L 201.152446 194.922067 
L 209.032063 187.761147 
L 209.103753 197.073984 
z
" style="fill:#3c038c;"/>
    <path clip-path="url(#p73b54d43c0)" d="M 216.794403 189.994506 
L 224.338378 183.050047 
L 224.338378 95.762755 
L 216.460688 102.136855 
z
" style="fill:#64680e;"/>
    <path clip-path="url(#p73b54d43c0)" d="M 243.136481 198.181496 
L 243.253676 185.850293 
L 256.732724 189.969165 
L 256.530882 202.34441 
z
" style="fill:#230144;"/>
    <path clip-path="url(#p73b54d43c0)" d="M 166.936223 200.596546 
L 180.005226 204.807054 
L 188.097204 197.544367 
L 175.109814 193.415537 
z
" style="fill:#18046d;"/>
    <path clip-path="url(#p73b54d43c0)" d="M 277.271882 199.292348 
L 284.327244 192.170297 
L 285.453096 154.936357 
L 278.275191 161.823464 
z
" style="fill:#4d1539;"/>
    <path clip-path="url(#p73b54d43c0)" d="M 196.068846 192.969946 
L 209.103753 197.073984 
L 208.78326 155.440668 
L 195.477524 151.488012 
z
" style="fill:#af396f;"/>
    <path clip-path="url(#p73b54d43c0)" d="M 201.262108 204.292457 
L 209.103753 197.073984 
L 222.285805 201.224351 
L 214.529606 208.524945 
z
" style="fill:#240254;"/>
    <path clip-path="url(#p73b54d43c0)" d="M 201.262108 204.292457 
L 209.103753 197.073984 
L 209.01687 185.787509 
L 201.129205 192.936121 
z
" style="fill:#210143;"/>
    <path clip-path="url(#p73b54d43c0)" d="M 188.144156 200.107676 
L 188.083744 196.809555 
L 201.223373 200.982637 
L 201.262108 204.292457 
z
" style="fill:#0f023c;"/>
    <path clip-path="url(#p73b54d43c0)" d="M 187.936883 188.791742 
L 201.129205 192.936121 
L 209.01687 185.787509 
L 195.908529 181.723546 
z
" style="fill:#3c027c;"/>
    <path clip-path="url(#p73b54d43c0)" d="M 222.285805 201.224351 
L 229.891821 194.06512 
L 229.970793 165.879495 
L 222.256327 172.862038 
z
" style="fill:#400942;"/>
    <path clip-path="url(#p73b54d43c0)" d="M 250.510457 191.080779 
L 263.816264 195.163579 
L 264.936708 138.941197 
L 251.24901 135.064998 
z
" style="fill:#ce654d;"/>
    <path clip-path="url(#p73b54d43c0)" d="M 229.891821 194.06512 
L 237.351973 187.043183 
L 237.815243 116.2345 
L 230.0915 122.79873 
z
" style="fill:#694815;"/>
    <path clip-path="url(#p73b54d43c0)" d="M 243.136481 198.181496 
L 250.510457 191.080779 
L 251.16391 141.519378 
L 243.610509 148.304456 
z
" style="fill:#5b262b;"/>
    <path clip-path="url(#p73b54d43c0)" d="M 235.617509 205.421836 
L 243.136481 198.181496 
L 256.530882 202.34441 
L 249.101427 209.667246 
z
" style="fill:#2c0157;"/>
    <path clip-path="url(#p73b54d43c0)" d="M 203.841786 185.968896 
L 216.794403 189.994506 
L 216.460688 102.136855 
L 202.940333 98.441219 
z
" style="fill:#d4dc1e;"/>
    <path clip-path="url(#p73b54d43c0)" d="M 235.617509 205.421836 
L 235.688523 193.01422 
L 243.253676 185.850293 
L 243.136481 198.181496 
z
" style="fill:#490290;"/>
    <path clip-path="url(#p73b54d43c0)" d="M 263.816264 195.163579 
L 277.271882 199.292348 
L 278.275191 161.823464 
L 264.560265 157.830589 
z
" style="fill:#a42d79;"/>
    <path clip-path="url(#p73b54d43c0)" d="M 180.063228 207.386128 
L 188.144156 200.107676 
L 188.097204 197.544367 
L 180.005226 204.807054 
z
" style="fill:#0d023b;"/>
    <path clip-path="url(#p73b54d43c0)" d="M 188.144156 200.107676 
L 201.262108 204.292457 
L 201.129205 192.936121 
L 187.936883 188.791742 
z
" style="fill:#45028f;"/>
    <path clip-path="url(#p73b54d43c0)" d="M 180.063228 207.386128 
L 179.988599 204.06771 
L 188.083744 196.809555 
L 188.144156 200.107676 
z
" style="fill:#200580;"/>
    <path clip-path="url(#p73b54d43c0)" d="M 210.985773 104.390348 
L 224.338378 108.061554 
L 232.015585 101.72917 
L 218.749886 98.12935 
z
" style="fill:#c29320;"/>
    <path clip-path="url(#p73b54d43c0)" d="M 209.103753 197.073984 
L 222.285805 201.224351 
L 222.256327 172.862038 
L 208.886206 168.813865 
z
" style="fill:#87128d;"/>
    <path clip-path="url(#p73b54d43c0)" d="M 222.285805 201.224351 
L 222.278758 194.444157 
L 235.656453 198.617516 
L 235.617509 205.421836 
z
" style="fill:#170240;"/>
    <path clip-path="url(#p73b54d43c0)" d="M 256.530882 202.34441 
L 263.816264 195.163579 
L 264.464274 162.647326 
L 257.064565 169.623555 
z
" style="fill:#470f3e;"/>
    <path clip-path="url(#p73b54d43c0)" d="M 216.794403 189.994506 
L 229.891821 194.06512 
L 230.0915 122.79873 
L 216.524714 118.992897 
z
" style="fill:#df982d;"/>
    <path clip-path="url(#p73b54d43c0)" d="M 235.617509 205.421836 
L 243.136481 198.181496 
L 243.307609 180.175474 
L 235.721207 187.303724 
z
" style="fill:#2e0046;"/>
    <path clip-path="url(#p73b54d43c0)" d="M 229.891821 194.06512 
L 243.136481 198.181496 
L 243.610509 148.304456 
L 230.031058 144.370658 
z
" style="fill:#c2515c;"/>
    <path clip-path="url(#p73b54d43c0)" d="M 167.010898 203.166503 
L 180.063228 207.386128 
L 180.005226 204.807054 
L 166.936223 200.596546 
z
" style="fill:#1c057e;"/>
    <path clip-path="url(#p73b54d43c0)" d="M 180.063228 207.386128 
L 188.144156 200.107676 
L 201.262108 204.292457 
L 193.264978 211.654059 
z
" style="fill:#13034d;"/>
    <path clip-path="url(#p73b54d43c0)" d="M 256.530882 202.34441 
L 256.668227 193.923569 
L 270.273831 198.103803 
L 270.077576 206.554656 
z
" style="fill:#1a0241;"/>
    <path clip-path="url(#p73b54d43c0)" d="M 208.886206 168.813865 
L 222.256327 172.862038 
L 229.970793 165.879495 
L 216.687729 161.910209 
z
" style="fill:#75107a;"/>
    <path clip-path="url(#p73b54d43c0)" d="M 214.529606 208.524945 
L 214.495597 201.702893 
L 222.278758 194.444157 
L 222.285805 201.224351 
z
" style="fill:#300487;"/>
    <path clip-path="url(#p73b54d43c0)" d="M 270.077576 206.554656 
L 277.271882 199.292348 
L 277.750609 181.414125 
L 270.495349 188.565116 
z
" style="fill:#2d0046;"/>
    <path clip-path="url(#p73b54d43c0)" d="M 201.152446 194.922067 
L 214.482726 199.121117 
L 222.276092 191.878342 
L 209.032063 187.761147 
z
" style="fill:#340279;"/>
    <path clip-path="url(#p73b54d43c0)" d="M 243.136481 198.181496 
L 256.530882 202.34441 
L 257.064565 169.623555 
L 243.446334 165.578981 
z
" style="fill:#961f84;"/>
    <path clip-path="url(#p73b54d43c0)" d="M 222.267042 183.171067 
L 235.721207 187.303724 
L 243.307609 180.175474 
L 229.942091 176.123395 
z
" style="fill:#540081;"/>
    <path clip-path="url(#p73b54d43c0)" d="M 182.091879 136.442732 
L 195.318159 140.308366 
L 203.302855 133.640699 
L 190.160763 129.850449 
z
" style="fill:#ad4f4a;"/>
    <path clip-path="url(#p73b54d43c0)" d="M 214.529606 208.524945 
L 222.285805 201.224351 
L 222.276092 191.878342 
L 214.482726 199.121117 
z
" style="fill:#1c0142;"/>
    <path clip-path="url(#p73b54d43c0)" d="M 222.285805 201.224351 
L 235.617509 205.421836 
L 235.721207 187.303724 
L 222.267042 183.171067 
z
" style="fill:#610095;"/>
    <path clip-path="url(#p73b54d43c0)" d="M 195.477524 151.488012 
L 208.78326 155.440668 
L 216.637259 148.622905 
L 203.417243 144.747346 
z
" style="fill:#983260;"/>
    <path clip-path="url(#p73b54d43c0)" d="M 214.529606 208.524945 
L 222.285805 201.224351 
L 235.617509 205.421836 
L 227.94922 212.80596 
z
" style="fill:#1d0251;"/>
    <path clip-path="url(#p73b54d43c0)" d="M 201.262108 204.292457 
L 201.223411 200.985814 
L 214.513063 205.206561 
L 214.529606 208.524945 
z
" style="fill:#0f023c;"/>
    <path clip-path="url(#p73b54d43c0)" d="M 179.988599 204.06771 
L 193.212302 208.323849 
L 201.223373 200.982637 
L 188.083744 196.809555 
z
" style="fill:#1b046f;"/>
    <path clip-path="url(#p73b54d43c0)" d="M 264.560265 157.830589 
L 278.275191 161.823464 
L 285.453096 154.936357 
L 271.831793 151.021437 
z
" style="fill:#8e2769;"/>
    <path clip-path="url(#p73b54d43c0)" d="M 256.823245 184.419249 
L 270.495349 188.565116 
L 277.750609 181.414125 
L 264.171283 177.349209 
z
" style="fill:#530081;"/>
    <path clip-path="url(#p73b54d43c0)" d="M 249.101427 209.667246 
L 249.208125 201.194335 
L 256.668227 193.923569 
L 256.530882 202.34441 
z
" style="fill:#38038a;"/>
    <path clip-path="url(#p73b54d43c0)" d="M 256.530882 202.34441 
L 270.077576 206.554656 
L 270.495349 188.565116 
L 256.823245 184.419249 
z
" style="fill:#5f0094;"/>
    <path clip-path="url(#p73b54d43c0)" d="M 249.101427 209.667246 
L 256.530882 202.34441 
L 270.077576 206.554656 
L 262.740181 213.961405 
z
" style="fill:#220253;"/>
    <path clip-path="url(#p73b54d43c0)" d="M 201.262108 204.292457 
L 214.529606 208.524945 
L 214.482726 199.121117 
L 201.152446 194.922067 
z
" style="fill:#3c038c;"/>
    <path clip-path="url(#p73b54d43c0)" d="M 249.101427 209.667246 
L 256.530882 202.34441 
L 256.732724 189.969165 
L 249.258233 197.215232 
z
" style="fill:#230144;"/>
    <path clip-path="url(#p73b54d43c0)" d="M 235.688523 193.01422 
L 249.258233 197.215232 
L 256.732724 189.969165 
L 243.253676 185.850293 
z
" style="fill:#40017d;"/>
    <path clip-path="url(#p73b54d43c0)" d="M 235.617509 205.421836 
L 235.648849 199.946096 
L 249.170627 204.172022 
L 249.101427 209.667246 
z
" style="fill:#14023e;"/>
    <path clip-path="url(#p73b54d43c0)" d="M 193.264978 211.654059 
L 193.212352 208.327046 
L 201.223411 200.985814 
L 201.262108 204.292457 
z
" style="fill:#200580;"/>
    <path clip-path="url(#p73b54d43c0)" d="M 193.264978 211.654059 
L 201.262108 204.292457 
L 201.223373 200.982637 
L 193.212302 208.323849 
z
" style="fill:#0f023c;"/>
    <path clip-path="url(#p73b54d43c0)" d="M 243.446334 165.578981 
L 257.064565 169.623555 
L 264.464274 162.647326 
L 250.937628 158.681856 
z
" style="fill:#821b72;"/>
    <path clip-path="url(#p73b54d43c0)" d="M 214.495597 201.702893 
L 227.961812 205.959591 
L 235.656453 198.617516 
L 222.278758 194.444157 
z
" style="fill:#2a0375;"/>
    <path clip-path="url(#p73b54d43c0)" d="M 235.617509 205.421836 
L 249.101427 209.667246 
L 249.258233 197.215232 
L 235.688523 193.01422 
z
" style="fill:#490290;"/>
    <path clip-path="url(#p73b54d43c0)" d="M 193.264978 211.654059 
L 201.262108 204.292457 
L 214.529606 208.524945 
L 206.61873 215.971129 
z
" style="fill:#13034d;"/>
    <path clip-path="url(#p73b54d43c0)" d="M 251.24901 135.064998 
L 264.936708 138.941197 
L 272.271903 132.255438 
L 258.677 128.455185 
z
" style="fill:#b35843;"/>
    <path clip-path="url(#p73b54d43c0)" d="M 180.063228 207.386128 
L 193.264978 211.654059 
L 193.212302 208.323849 
L 179.988599 204.06771 
z
" style="fill:#200580;"/>
    <path clip-path="url(#p73b54d43c0)" d="M 227.94922 212.80596 
L 227.959353 207.296419 
L 235.648849 199.946096 
L 235.617509 205.421836 
z
" style="fill:#2a0484;"/>
    <path clip-path="url(#p73b54d43c0)" d="M 227.94922 212.80596 
L 235.617509 205.421836 
L 235.656453 198.617516 
L 227.961812 205.959591 
z
" style="fill:#170240;"/>
    <path clip-path="url(#p73b54d43c0)" d="M 189.632556 98.225942 
L 202.975882 101.892906 
L 210.928911 95.568061 
L 197.671564 91.972998 
z
" style="fill:#bcb31d;"/>
    <path clip-path="url(#p73b54d43c0)" d="M 230.031058 144.370658 
L 243.610509 148.304456 
L 251.16391 141.519378 
L 237.675047 137.662731 
z
" style="fill:#a84650;"/>
    <path clip-path="url(#p73b54d43c0)" d="M 224.338378 101.533332 
L 237.8873 105.220886 
L 245.498529 98.860537 
L 232.039582 95.245317 
z
" style="fill:#bfaa1c;"/>
    <path clip-path="url(#p73b54d43c0)" d="M 227.94922 212.80596 
L 235.617509 205.421836 
L 249.101427 209.667246 
L 241.523583 217.136342 
z
" style="fill:#190350;"/>
    <path clip-path="url(#p73b54d43c0)" d="M 214.529606 208.524945 
L 214.513215 205.237086 
L 227.955289 209.506415 
L 227.94922 212.80596 
z
" style="fill:#0f023c;"/>
    <path clip-path="url(#p73b54d43c0)" d="M 249.208125 201.194335 
L 262.906599 205.458245 
L 270.273831 198.103803 
L 256.668227 193.923569 
z
" style="fill:#300378;"/>
    <path clip-path="url(#p73b54d43c0)" d="M 193.212352 208.327046 
L 206.588547 212.632284 
L 214.513063 205.206561 
L 201.223411 200.985814 
z
" style="fill:#1b046f;"/>
    <path clip-path="url(#p73b54d43c0)" d="M 237.821126 115.335355 
L 251.459429 119.105687 
L 258.942844 112.602585 
L 245.396197 108.906272 
z
" style="fill:#c28725;"/>
    <path clip-path="url(#p73b54d43c0)" d="M 262.740181 213.961405 
L 270.077576 206.554656 
L 270.273831 198.103803 
L 262.906599 205.458245 
z
" style="fill:#1a0241;"/>
    <path clip-path="url(#p73b54d43c0)" d="M 214.529606 208.524945 
L 227.94922 212.80596 
L 227.961812 205.959591 
L 214.495597 201.702893 
z
" style="fill:#300487;"/>
    <path clip-path="url(#p73b54d43c0)" d="M 249.101427 209.667246 
L 249.15355 205.528143 
L 262.821476 209.807579 
L 262.740181 213.961405 
z
" style="fill:#11023d;"/>
    <path clip-path="url(#p73b54d43c0)" d="M 206.61873 215.971129 
L 206.588824 212.662998 
L 214.513215 205.237086 
L 214.529606 208.524945 
z
" style="fill:#200580;"/>
    <path clip-path="url(#p73b54d43c0)" d="M 206.61873 215.971129 
L 214.529606 208.524945 
L 214.513063 205.206561 
L 206.588547 212.632284 
z
" style="fill:#0f023c;"/>
    <path clip-path="url(#p73b54d43c0)" d="M 227.959353 207.296419 
L 241.572088 211.607166 
L 249.170627 204.172022 
L 235.648849 199.946096 
z
" style="fill:#240473;"/>
    <path clip-path="url(#p73b54d43c0)" d="M 249.101427 209.667246 
L 262.740181 213.961405 
L 262.906599 205.458245 
L 249.208125 201.194335 
z
" style="fill:#38038a;"/>
    <path clip-path="url(#p73b54d43c0)" d="M 241.523583 217.136342 
L 241.560117 212.971695 
L 249.15355 205.528143 
L 249.101427 209.667246 
z
" style="fill:#230581;"/>
    <path clip-path="url(#p73b54d43c0)" d="M 206.61873 215.971129 
L 214.529606 208.524945 
L 227.94922 212.80596 
L 220.127123 220.338193 
z
" style="fill:#13034d;"/>
    <path clip-path="url(#p73b54d43c0)" d="M 193.264978 211.654059 
L 206.61873 215.971129 
L 206.588547 212.632284 
L 193.212352 208.327046 
z
" style="fill:#200580;"/>
    <path clip-path="url(#p73b54d43c0)" d="M 241.523583 217.136342 
L 249.101427 209.667246 
L 249.170627 204.172022 
L 241.572088 211.607166 
z
" style="fill:#14023e;"/>
    <path clip-path="url(#p73b54d43c0)" d="M 216.524714 118.992897 
L 230.0915 122.79873 
L 237.815243 116.2345 
L 224.338378 112.503663 
z
" style="fill:#c28427;"/>
    <path clip-path="url(#p73b54d43c0)" d="M 227.94922 212.80596 
L 227.953805 210.313245 
L 241.545528 214.634765 
L 241.523583 217.136342 
z
" style="fill:#0c033b;"/>
    <path clip-path="url(#p73b54d43c0)" d="M 241.523583 217.136342 
L 249.101427 209.667246 
L 262.740181 213.961405 
L 255.255385 221.516949 
z
" style="fill:#15034e;"/>
    <path clip-path="url(#p73b54d43c0)" d="M 206.588824 212.662998 
L 220.119974 217.018287 
L 227.955289 209.506415 
L 214.513215 205.237086 
z
" style="fill:#1b046f;"/>
    <path clip-path="url(#p73b54d43c0)" d="M 227.94922 212.80596 
L 241.523583 217.136342 
L 241.572088 211.607166 
L 227.959353 207.296419 
z
" style="fill:#2a0484;"/>
    <path clip-path="url(#p73b54d43c0)" d="M 202.940333 98.441219 
L 216.460688 102.136855 
L 224.338378 95.762755 
L 210.906818 92.140114 
z
" style="fill:#b8bf1a;"/>
    <path clip-path="url(#p73b54d43c0)" d="M 220.127123 220.338193 
L 220.121722 217.830106 
L 227.953805 210.313245 
L 227.94922 212.80596 
z
" style="fill:#1a057d;"/>
    <path clip-path="url(#p73b54d43c0)" d="M 241.560117 212.971695 
L 255.321495 217.337465 
L 262.821476 209.807579 
L 249.15355 205.528143 
z
" style="fill:#1f0470;"/>
    <path clip-path="url(#p73b54d43c0)" d="M 220.127123 220.338193 
L 227.94922 212.80596 
L 227.955289 209.506415 
L 220.119974 217.018287 
z
" style="fill:#0f023c;"/>
    <path clip-path="url(#p73b54d43c0)" d="M 255.255385 221.516949 
L 262.740181 213.961405 
L 262.821476 209.807579 
L 255.321495 217.337465 
z
" style="fill:#11023d;"/>
    <path clip-path="url(#p73b54d43c0)" d="M 220.127123 220.338193 
L 227.94922 212.80596 
L 241.523583 217.136342 
L 233.792858 224.756123 
z
" style="fill:#10034c;"/>
    <path clip-path="url(#p73b54d43c0)" d="M 206.61873 215.971129 
L 220.127123 220.338193 
L 220.119974 217.018287 
L 206.588824 212.662998 
z
" style="fill:#200580;"/>
    <path clip-path="url(#p73b54d43c0)" d="M 220.121722 217.830106 
L 233.805054 222.239109 
L 241.545528 214.634765 
L 227.953805 210.313245 
z
" style="fill:#17056d;"/>
    <path clip-path="url(#p73b54d43c0)" d="M 241.523583 217.136342 
L 241.544427 214.76019 
L 255.293104 219.132345 
L 255.255385 221.516949 
z
" style="fill:#0c033b;"/>
    <path clip-path="url(#p73b54d43c0)" d="M 241.523583 217.136342 
L 255.255385 221.516949 
L 255.321495 217.337465 
L 241.560117 212.971695 
z
" style="fill:#230581;"/>
    <path clip-path="url(#p73b54d43c0)" d="M 233.792858 224.756123 
L 233.804442 222.365309 
L 241.544427 214.76019 
L 241.523583 217.136342 
z
" style="fill:#1a057d;"/>
    <path clip-path="url(#p73b54d43c0)" d="M 233.792858 224.756123 
L 241.523583 217.136342 
L 241.545528 214.634765 
L 233.805054 222.239109 
z
" style="fill:#0c033b;"/>
    <path clip-path="url(#p73b54d43c0)" d="M 220.127123 220.338193 
L 233.792858 224.756123 
L 233.805054 222.239109 
L 220.121722 217.830106 
z
" style="fill:#1a057d;"/>
    <path clip-path="url(#p73b54d43c0)" d="M 233.792858 224.756123 
L 241.523583 217.136342 
L 255.255385 221.516949 
L 247.618703 229.225814 
z
" style="fill:#10034c;"/>
    <path clip-path="url(#p73b54d43c0)" d="M 233.804442 222.365309 
L 247.647393 226.826486 
L 255.293104 219.132345 
L 241.544427 214.76019 
z
" style="fill:#17056d;"/>
    <path clip-path="url(#p73b54d43c0)" d="M 247.618703 229.225814 
L 255.255385 221.516949 
L 255.293104 219.132345 
L 247.647393 226.826486 
z
" style="fill:#0c033b;"/>
    <path clip-path="url(#p73b54d43c0)" d="M 233.792858 224.756123 
L 247.618703 229.225814 
L 247.647393 226.826486 
L 233.804442 222.365309 
z
" style="fill:#1a057d;"/>
   </g>
   <g id="text_15">
    <!-- W30__H10__A260_bars_extracted.txt -->
    <g transform="translate(110.101875 28.56)scale(0.12 -0.12)">
     <defs>
      <path d="M 3.328125 72.90625 
L 13.28125 72.90625 
L 28.609375 11.28125 
L 43.890625 72.90625 
L 54.984375 72.90625 
L 70.3125 11.28125 
L 85.59375 72.90625 
L 95.609375 72.90625 
L 77.296875 0 
L 64.890625 0 
L 49.515625 63.28125 
L 33.984375 0 
L 21.578125 0 
z
" id="DejaVuSans-87"/>
      <path d="M 40.578125 39.3125 
Q 47.65625 37.796875 51.625 33 
Q 55.609375 28.21875 55.609375 21.1875 
Q 55.609375 10.40625 48.1875 4.484375 
Q 40.765625 -1.421875 27.09375 -1.421875 
Q 22.515625 -1.421875 17.65625 -0.515625 
Q 12.796875 0.390625 7.625 2.203125 
L 7.625 11.71875 
Q 11.71875 9.328125 16.59375 8.109375 
Q 21.484375 6.890625 26.8125 6.890625 
Q 36.078125 6.890625 40.9375 10.546875 
Q 45.796875 14.203125 45.796875 21.1875 
Q 45.796875 27.640625 41.28125 31.265625 
Q 36.765625 34.90625 28.71875 34.90625 
L 20.21875 34.90625 
L 20.21875 43.015625 
L 29.109375 43.015625 
Q 36.375 43.015625 40.234375 45.921875 
Q 44.09375 48.828125 44.09375 54.296875 
Q 44.09375 59.90625 40.109375 62.90625 
Q 36.140625 65.921875 28.71875 65.921875 
Q 24.65625 65.921875 20.015625 65.03125 
Q 15.375 64.15625 9.8125 62.3125 
L 9.8125 71.09375 
Q 15.4375 72.65625 20.34375 73.4375 
Q 25.25 74.21875 29.59375 74.21875 
Q 40.828125 74.21875 47.359375 69.109375 
Q 53.90625 64.015625 53.90625 55.328125 
Q 53.90625 49.265625 50.4375 45.09375 
Q 46.96875 40.921875 40.578125 39.3125 
z
" id="DejaVuSans-51"/>
      <path d="M 50.984375 -16.609375 
L 50.984375 -23.578125 
L -0.984375 -23.578125 
L -0.984375 -16.609375 
z
" id="DejaVuSans-95"/>
      <path d="M 9.8125 72.90625 
L 19.671875 72.90625 
L 19.671875 43.015625 
L 55.515625 43.015625 
L 55.515625 72.90625 
L 65.375 72.90625 
L 65.375 0 
L 55.515625 0 
L 55.515625 34.71875 
L 19.671875 34.71875 
L 19.671875 0 
L 9.8125 0 
z
" id="DejaVuSans-72"/>
      <path d="M 12.40625 8.296875 
L 28.515625 8.296875 
L 28.515625 63.921875 
L 10.984375 60.40625 
L 10.984375 69.390625 
L 28.421875 72.90625 
L 38.28125 72.90625 
L 38.28125 8.296875 
L 54.390625 8.296875 
L 54.390625 0 
L 12.40625 0 
z
" id="DejaVuSans-49"/>
      <path d="M 34.1875 63.1875 
L 20.796875 26.90625 
L 47.609375 26.90625 
z
M 28.609375 72.90625 
L 39.796875 72.90625 
L 67.578125 0 
L 57.328125 0 
L 50.6875 18.703125 
L 17.828125 18.703125 
L 11.1875 0 
L 0.78125 0 
z
" id="DejaVuSans-65"/>
      <path d="M 48.6875 27.296875 
Q 48.6875 37.203125 44.609375 42.84375 
Q 40.53125 48.484375 33.40625 48.484375 
Q 26.265625 48.484375 22.1875 42.84375 
Q 18.109375 37.203125 18.109375 27.296875 
Q 18.109375 17.390625 22.1875 11.75 
Q 26.265625 6.109375 33.40625 6.109375 
Q 40.53125 6.109375 44.609375 11.75 
Q 48.6875 17.390625 48.6875 27.296875 
z
M 18.109375 46.390625 
Q 20.953125 51.265625 25.265625 53.625 
Q 29.59375 56 35.59375 56 
Q 45.5625 56 51.78125 48.09375 
Q 58.015625 40.1875 58.015625 27.296875 
Q 58.015625 14.40625 51.78125 6.484375 
Q 45.5625 -1.421875 35.59375 -1.421875 
Q 29.59375 -1.421875 25.265625 0.953125 
Q 20.953125 3.328125 18.109375 8.203125 
L 18.109375 0 
L 9.078125 0 
L 9.078125 75.984375 
L 18.109375 75.984375 
z
" id="DejaVuSans-98"/>
      <path d="M 34.28125 27.484375 
Q 23.390625 27.484375 19.1875 25 
Q 14.984375 22.515625 14.984375 16.5 
Q 14.984375 11.71875 18.140625 8.90625 
Q 21.296875 6.109375 26.703125 6.109375 
Q 34.1875 6.109375 38.703125 11.40625 
Q 43.21875 16.703125 43.21875 25.484375 
L 43.21875 27.484375 
z
M 52.203125 31.203125 
L 52.203125 0 
L 43.21875 0 
L 43.21875 8.296875 
Q 40.140625 3.328125 35.546875 0.953125 
Q 30.953125 -1.421875 24.3125 -1.421875 
Q 15.921875 -1.421875 10.953125 3.296875 
Q 6 8.015625 6 15.921875 
Q 6 25.140625 12.171875 29.828125 
Q 18.359375 34.515625 30.609375 34.515625 
L 43.21875 34.515625 
L 43.21875 35.40625 
Q 43.21875 41.609375 39.140625 45 
Q 35.0625 48.390625 27.6875 48.390625 
Q 23 48.390625 18.546875 47.265625 
Q 14.109375 46.140625 10.015625 43.890625 
L 10.015625 52.203125 
Q 14.9375 54.109375 19.578125 55.046875 
Q 24.21875 56 28.609375 56 
Q 40.484375 56 46.34375 49.84375 
Q 52.203125 43.703125 52.203125 31.203125 
z
" id="DejaVuSans-97"/>
      <path d="M 41.109375 46.296875 
Q 39.59375 47.171875 37.8125 47.578125 
Q 36.03125 48 33.890625 48 
Q 26.265625 48 22.1875 43.046875 
Q 18.109375 38.09375 18.109375 28.8125 
L 18.109375 0 
L 9.078125 0 
L 9.078125 54.6875 
L 18.109375 54.6875 
L 18.109375 46.1875 
Q 20.953125 51.171875 25.484375 53.578125 
Q 30.03125 56 36.53125 56 
Q 37.453125 56 38.578125 55.875 
Q 39.703125 55.765625 41.0625 55.515625 
z
" id="DejaVuSans-114"/>
      <path d="M 44.28125 53.078125 
L 44.28125 44.578125 
Q 40.484375 46.53125 36.375 47.5 
Q 32.28125 48.484375 27.875 48.484375 
Q 21.1875 48.484375 17.84375 46.4375 
Q 14.5 44.390625 14.5 40.28125 
Q 14.5 37.15625 16.890625 35.375 
Q 19.28125 33.59375 26.515625 31.984375 
L 29.59375 31.296875 
Q 39.15625 29.25 43.1875 25.515625 
Q 47.21875 21.78125 47.21875 15.09375 
Q 47.21875 7.46875 41.1875 3.015625 
Q 35.15625 -1.421875 24.609375 -1.421875 
Q 20.21875 -1.421875 15.453125 -0.5625 
Q 10.6875 0.296875 5.421875 2 
L 5.421875 11.28125 
Q 10.40625 8.6875 15.234375 7.390625 
Q 20.0625 6.109375 24.8125 6.109375 
Q 31.15625 6.109375 34.5625 8.28125 
Q 37.984375 10.453125 37.984375 14.40625 
Q 37.984375 18.0625 35.515625 20.015625 
Q 33.0625 21.96875 24.703125 23.78125 
L 21.578125 24.515625 
Q 13.234375 26.265625 9.515625 29.90625 
Q 5.8125 33.546875 5.8125 39.890625 
Q 5.8125 47.609375 11.28125 51.796875 
Q 16.75 56 26.8125 56 
Q 31.78125 56 36.171875 55.265625 
Q 40.578125 54.546875 44.28125 53.078125 
z
" id="DejaVuSans-115"/>
      <path d="M 56.203125 29.59375 
L 56.203125 25.203125 
L 14.890625 25.203125 
Q 15.484375 15.921875 20.484375 11.0625 
Q 25.484375 6.203125 34.421875 6.203125 
Q 39.59375 6.203125 44.453125 7.46875 
Q 49.3125 8.734375 54.109375 11.28125 
L 54.109375 2.78125 
Q 49.265625 0.734375 44.1875 -0.34375 
Q 39.109375 -1.421875 33.890625 -1.421875 
Q 20.796875 -1.421875 13.15625 6.1875 
Q 5.515625 13.8125 5.515625 26.8125 
Q 5.515625 40.234375 12.765625 48.109375 
Q 20.015625 56 32.328125 56 
Q 43.359375 56 49.78125 48.890625 
Q 56.203125 41.796875 56.203125 29.59375 
z
M 47.21875 32.234375 
Q 47.125 39.59375 43.09375 43.984375 
Q 39.0625 48.390625 32.421875 48.390625 
Q 24.90625 48.390625 20.390625 44.140625 
Q 15.875 39.890625 15.1875 32.171875 
z
" id="DejaVuSans-101"/>
      <path d="M 54.890625 54.6875 
L 35.109375 28.078125 
L 55.90625 0 
L 45.3125 0 
L 29.390625 21.484375 
L 13.484375 0 
L 2.875 0 
L 24.125 28.609375 
L 4.6875 54.6875 
L 15.28125 54.6875 
L 29.78125 35.203125 
L 44.28125 54.6875 
z
" id="DejaVuSans-120"/>
      <path d="M 18.3125 70.21875 
L 18.3125 54.6875 
L 36.8125 54.6875 
L 36.8125 47.703125 
L 18.3125 47.703125 
L 18.3125 18.015625 
Q 18.3125 11.328125 20.140625 9.421875 
Q 21.96875 7.515625 27.59375 7.515625 
L 36.8125 7.515625 
L 36.8125 0 
L 27.59375 0 
Q 17.1875 0 13.234375 3.875 
Q 9.28125 7.765625 9.28125 18.015625 
L 9.28125 47.703125 
L 2.6875 47.703125 
L 2.6875 54.6875 
L 9.28125 54.6875 
L 9.28125 70.21875 
z
" id="DejaVuSans-116"/>
      <path d="M 48.78125 52.59375 
L 48.78125 44.1875 
Q 44.96875 46.296875 41.140625 47.34375 
Q 37.3125 48.390625 33.40625 48.390625 
Q 24.65625 48.390625 19.8125 42.84375 
Q 14.984375 37.3125 14.984375 27.296875 
Q 14.984375 17.28125 19.8125 11.734375 
Q 24.65625 6.203125 33.40625 6.203125 
Q 37.3125 6.203125 41.140625 7.25 
Q 44.96875 8.296875 48.78125 10.40625 
L 48.78125 2.09375 
Q 45.015625 0.34375 40.984375 -0.53125 
Q 36.96875 -1.421875 32.421875 -1.421875 
Q 20.0625 -1.421875 12.78125 6.34375 
Q 5.515625 14.109375 5.515625 27.296875 
Q 5.515625 40.671875 12.859375 48.328125 
Q 20.21875 56 33.015625 56 
Q 37.15625 56 41.109375 55.140625 
Q 45.0625 54.296875 48.78125 52.59375 
z
" id="DejaVuSans-99"/>
      <path d="M 45.40625 46.390625 
L 45.40625 75.984375 
L 54.390625 75.984375 
L 54.390625 0 
L 45.40625 0 
L 45.40625 8.203125 
Q 42.578125 3.328125 38.25 0.953125 
Q 33.9375 -1.421875 27.875 -1.421875 
Q 17.96875 -1.421875 11.734375 6.484375 
Q 5.515625 14.40625 5.515625 27.296875 
Q 5.515625 40.1875 11.734375 48.09375 
Q 17.96875 56 27.875 56 
Q 33.9375 56 38.25 53.625 
Q 42.578125 51.265625 45.40625 46.390625 
z
M 14.796875 27.296875 
Q 14.796875 17.390625 18.875 11.75 
Q 22.953125 6.109375 30.078125 6.109375 
Q 37.203125 6.109375 41.296875 11.75 
Q 45.40625 17.390625 45.40625 27.296875 
Q 45.40625 37.203125 41.296875 42.84375 
Q 37.203125 48.484375 30.078125 48.484375 
Q 22.953125 48.484375 18.875 42.84375 
Q 14.796875 37.203125 14.796875 27.296875 
z
" id="DejaVuSans-100"/>
      <path d="M 10.6875 12.40625 
L 21 12.40625 
L 21 0 
L 10.6875 0 
z
" id="DejaVuSans-46"/>
     </defs>
     <use xlink:href="#DejaVuSans-87"/>
     <use x="98.876953" xlink:href="#DejaVuSans-51"/>
     <use x="162.5" xlink:href="#DejaVuSans-48"/>
     <use x="226.123047" xlink:href="#DejaVuSans-95"/>
     <use x="276.123047" xlink:href="#DejaVuSans-95"/>
     <use x="326.123047" xlink:href="#DejaVuSans-72"/>
     <use x="401.318359" xlink:href="#DejaVuSans-49"/>
     <use x="464.941406" xlink:href="#DejaVuSans-48"/>
     <use x="528.564453" xlink:href="#DejaVuSans-95"/>
     <use x="578.564453" xlink:href="#DejaVuSans-95"/>
     <use x="628.564453" xlink:href="#DejaVuSans-65"/>
     <use x="696.972656" xlink:href="#DejaVuSans-50"/>
     <use x="760.595703" xlink:href="#DejaVuSans-54"/>
     <use x="824.21875" xlink:href="#DejaVuSans-48"/>
     <use x="887.841797" xlink:href="#DejaVuSans-95"/>
     <use x="937.841797" xlink:href="#DejaVuSans-98"/>
     <use x="1001.318359" xlink:href="#DejaVuSans-97"/>
     <use x="1062.597656" xlink:href="#DejaVuSans-114"/>
     <use x="1103.710938" xlink:href="#DejaVuSans-115"/>
     <use x="1155.810547" xlink:href="#DejaVuSans-95"/>
     <use x="1205.810547" xlink:href="#DejaVuSans-101"/>
     <use x="1265.583984" xlink:href="#DejaVuSans-120"/>
     <use x="1324.763672" xlink:href="#DejaVuSans-116"/>
     <use x="1363.972656" xlink:href="#DejaVuSans-114"/>
     <use x="1405.085938" xlink:href="#DejaVuSans-97"/>
     <use x="1466.365234" xlink:href="#DejaVuSans-99"/>
     <use x="1521.345703" xlink:href="#DejaVuSans-116"/>
     <use x="1560.554688" xlink:href="#DejaVuSans-101"/>
     <use x="1622.078125" xlink:href="#DejaVuSans-100"/>
     <use x="1685.554688" xlink:href="#DejaVuSans-46"/>
     <use x="1717.341797" xlink:href="#DejaVuSans-116"/>
     <use x="1756.550781" xlink:href="#DejaVuSans-120"/>
     <use x="1815.730469" xlink:href="#DejaVuSans-116"/>
    </g>
   </g>
  </g>
 </g>
 <defs>
  <clipPath id="p73b54d43c0">
   <rect height="217.44" width="217.44" x="112.68" y="34.56"/>
  </clipPath>
 </defs>
</svg>
