<?xml version="1.0" encoding="utf-8" standalone="no"?>
<!DOCTYPE svg PUBLIC "-//W3C//DTD SVG 1.1//EN"
  "http://www.w3.org/Graphics/SVG/1.1/DTD/svg11.dtd">
<!-- Created with matplotlib (https://matplotlib.org/) -->
<svg height="288pt" version="1.1" viewBox="0 0 432 288" width="432pt" xmlns="http://www.w3.org/2000/svg" xmlns:xlink="http://www.w3.org/1999/xlink">
 <metadata>
  <rdf:RDF xmlns:cc="http://creativecommons.org/ns#" xmlns:dc="http://purl.org/dc/elements/1.1/" xmlns:rdf="http://www.w3.org/1999/02/22-rdf-syntax-ns#">
   <cc:Work>
    <dc:type rdf:resource="http://purl.org/dc/dcmitype/StillImage"/>
    <dc:date>2021-06-13T21:59:03.209458</dc:date>
    <dc:format>image/svg+xml</dc:format>
    <dc:creator>
     <cc:Agent>
      <dc:title>Matplotlib v3.3.4, https://matplotlib.org/</dc:title>
     </cc:Agent>
    </dc:creator>
   </cc:Work>
  </rdf:RDF>
 </metadata>
 <defs>
  <style type="text/css">*{stroke-linecap:butt;stroke-linejoin:round;}</style>
 </defs>
 <g id="figure_1">
  <g id="patch_1">
   <path d="M 0 288 
L 432 288 
L 432 0 
L 0 0 
z
" style="fill:#ffffff;"/>
  </g>
  <g id="patch_2">
   <path d="M 112.68 252 
L 330.12 252 
L 330.12 34.56 
L 112.68 34.56 
z
" style="fill:#ffffff;"/>
  </g>
  <g id="pane3d_1">
   <g id="patch_3">
    <path d="M 129.09822 198.386264 
L 200.904009 138.197228 
L 199.90584 51.393878 
L 124.663773 106.302111 
" style="fill:#f2f2f2;opacity:0.5;stroke:#f2f2f2;stroke-linejoin:miter;"/>
   </g>
  </g>
  <g id="pane3d_2">
   <g id="patch_4">
    <path d="M 200.904009 138.197228 
L 316.12668 171.68791 
L 320.238571 81.894718 
L 199.90584 51.393878 
" style="fill:#e6e6e6;opacity:0.5;stroke:#e6e6e6;stroke-linejoin:miter;"/>
   </g>
  </g>
  <g id="pane3d_3">
   <g id="patch_5">
    <path d="M 129.09822 198.386264 
L 251.239879 238.27773 
L 316.12668 171.68791 
L 200.904009 138.197228 
" style="fill:#ececec;opacity:0.5;stroke:#ececec;stroke-linejoin:miter;"/>
   </g>
  </g>
  <g id="axis3d_1">
   <g id="line2d_1">
    <path d="M 129.09822 198.386264 
L 251.239879 238.27773 
" style="fill:none;stroke:#000000;stroke-linecap:square;stroke-width:0.8;"/>
   </g>
   <g id="Line3DCollection_1">
    <path d="M 136.495759 200.802301 
L 207.911499 140.234029 
L 207.209612 53.245171 
" style="fill:none;stroke:#b0b0b0;stroke-width:0.8;"/>
    <path d="M 162.23134 209.207541 
L 232.260894 147.311436 
L 232.60309 59.681678 
" style="fill:none;stroke:#b0b0b0;stroke-width:0.8;"/>
    <path d="M 188.559037 217.806167 
L 257.123632 154.538053 
L 258.555303 66.259807 
" style="fill:none;stroke:#b0b0b0;stroke-width:0.8;"/>
    <path d="M 215.499525 226.604931 
L 282.516121 161.918647 
L 285.084894 72.984285 
" style="fill:none;stroke:#b0b0b0;stroke-width:0.8;"/>
    <path d="M 243.074449 235.610901 
L 308.455474 169.458193 
L 312.21135 79.860051 
" style="fill:none;stroke:#b0b0b0;stroke-width:0.8;"/>
   </g>
   <g id="xtick_1">
    <g id="line2d_2">
     <path d="M 137.117644 200.274876 
L 135.249322 201.859414 
" style="fill:none;stroke:#000000;stroke-linecap:square;stroke-width:0.8;"/>
    </g>
    <g id="text_1">
     <!-- 0 -->
     <g transform="translate(125.77919 224.124533)scale(0.1 -0.1)">
      <defs>
       <path d="M 31.78125 66.40625 
Q 24.171875 66.40625 20.328125 58.90625 
Q 16.5 51.421875 16.5 36.375 
Q 16.5 21.390625 20.328125 13.890625 
Q 24.171875 6.390625 31.78125 6.390625 
Q 39.453125 6.390625 43.28125 13.890625 
Q 47.125 21.390625 47.125 36.375 
Q 47.125 51.421875 43.28125 58.90625 
Q 39.453125 66.40625 31.78125 66.40625 
z
M 31.78125 74.21875 
Q 44.046875 74.21875 50.515625 64.515625 
Q 56.984375 54.828125 56.984375 36.375 
Q 56.984375 17.96875 50.515625 8.265625 
Q 44.046875 -1.421875 31.78125 -1.421875 
Q 19.53125 -1.421875 13.0625 8.265625 
Q 6.59375 17.96875 6.59375 36.375 
Q 6.59375 54.828125 13.0625 64.515625 
Q 19.53125 74.21875 31.78125 74.21875 
z
" id="DejaVuSans-48"/>
      </defs>
      <use xlink:href="#DejaVuSans-48"/>
     </g>
    </g>
   </g>
   <g id="xtick_2">
    <g id="line2d_3">
     <path d="M 162.841716 208.668056 
L 161.007937 210.288854 
" style="fill:none;stroke:#000000;stroke-linecap:square;stroke-width:0.8;"/>
    </g>
    <g id="text_2">
     <!-- 2 -->
     <g transform="translate(151.547192 232.748132)scale(0.1 -0.1)">
      <defs>
       <path d="M 19.1875 8.296875 
L 53.609375 8.296875 
L 53.609375 0 
L 7.328125 0 
L 7.328125 8.296875 
Q 12.9375 14.109375 22.625 23.890625 
Q 32.328125 33.6875 34.8125 36.53125 
Q 39.546875 41.84375 41.421875 45.53125 
Q 43.3125 49.21875 43.3125 52.78125 
Q 43.3125 58.59375 39.234375 62.25 
Q 35.15625 65.921875 28.609375 65.921875 
Q 23.96875 65.921875 18.8125 64.3125 
Q 13.671875 62.703125 7.8125 59.421875 
L 7.8125 69.390625 
Q 13.765625 71.78125 18.9375 73 
Q 24.125 74.21875 28.421875 74.21875 
Q 39.75 74.21875 46.484375 68.546875 
Q 53.21875 62.890625 53.21875 53.421875 
Q 53.21875 48.921875 51.53125 44.890625 
Q 49.859375 40.875 45.40625 35.40625 
Q 44.1875 33.984375 37.640625 27.21875 
Q 31.109375 20.453125 19.1875 8.296875 
z
" id="DejaVuSans-50"/>
      </defs>
      <use xlink:href="#DejaVuSans-50"/>
     </g>
    </g>
   </g>
   <g id="xtick_3">
    <g id="line2d_4">
     <path d="M 189.15721 217.254202 
L 187.360066 218.91252 
" style="fill:none;stroke:#000000;stroke-linecap:square;stroke-width:0.8;"/>
    </g>
    <g id="text_3">
     <!-- 4 -->
     <g transform="translate(177.91082 241.571064)scale(0.1 -0.1)">
      <defs>
       <path d="M 37.796875 64.3125 
L 12.890625 25.390625 
L 37.796875 25.390625 
z
M 35.203125 72.90625 
L 47.609375 72.90625 
L 47.609375 25.390625 
L 58.015625 25.390625 
L 58.015625 17.1875 
L 47.609375 17.1875 
L 47.609375 0 
L 37.796875 0 
L 37.796875 17.1875 
L 4.890625 17.1875 
L 4.890625 26.703125 
z
" id="DejaVuSans-52"/>
      </defs>
      <use xlink:href="#DejaVuSans-52"/>
     </g>
    </g>
   </g>
   <g id="xtick_4">
    <g id="line2d_5">
     <path d="M 216.084757 226.040048 
L 214.326462 227.737204 
" style="fill:none;stroke:#000000;stroke-linecap:square;stroke-width:0.8;"/>
    </g>
    <g id="text_4">
     <!-- 6 -->
     <g transform="translate(204.890965 250.600322)scale(0.1 -0.1)">
      <defs>
       <path d="M 33.015625 40.375 
Q 26.375 40.375 22.484375 35.828125 
Q 18.609375 31.296875 18.609375 23.390625 
Q 18.609375 15.53125 22.484375 10.953125 
Q 26.375 6.390625 33.015625 6.390625 
Q 39.65625 6.390625 43.53125 10.953125 
Q 47.40625 15.53125 47.40625 23.390625 
Q 47.40625 31.296875 43.53125 35.828125 
Q 39.65625 40.375 33.015625 40.375 
z
M 52.59375 71.296875 
L 52.59375 62.3125 
Q 48.875 64.0625 45.09375 64.984375 
Q 41.3125 65.921875 37.59375 65.921875 
Q 27.828125 65.921875 22.671875 59.328125 
Q 17.53125 52.734375 16.796875 39.40625 
Q 19.671875 43.65625 24.015625 45.921875 
Q 28.375 48.1875 33.59375 48.1875 
Q 44.578125 48.1875 50.953125 41.515625 
Q 57.328125 34.859375 57.328125 23.390625 
Q 57.328125 12.15625 50.6875 5.359375 
Q 44.046875 -1.421875 33.015625 -1.421875 
Q 20.359375 -1.421875 13.671875 8.265625 
Q 6.984375 17.96875 6.984375 36.375 
Q 6.984375 53.65625 15.1875 63.9375 
Q 23.390625 74.21875 37.203125 74.21875 
Q 40.921875 74.21875 44.703125 73.484375 
Q 48.484375 72.75 52.59375 71.296875 
z
" id="DejaVuSans-54"/>
      </defs>
      <use xlink:href="#DejaVuSans-54"/>
     </g>
    </g>
   </g>
   <g id="xtick_5">
    <g id="line2d_6">
     <path d="M 243.645962 235.032643 
L 241.928856 236.770015 
" style="fill:none;stroke:#000000;stroke-linecap:square;stroke-width:0.8;"/>
    </g>
    <g id="text_5">
     <!-- 8 -->
     <g transform="translate(232.509511 259.84323)scale(0.1 -0.1)">
      <defs>
       <path d="M 31.78125 34.625 
Q 24.75 34.625 20.71875 30.859375 
Q 16.703125 27.09375 16.703125 20.515625 
Q 16.703125 13.921875 20.71875 10.15625 
Q 24.75 6.390625 31.78125 6.390625 
Q 38.8125 6.390625 42.859375 10.171875 
Q 46.921875 13.96875 46.921875 20.515625 
Q 46.921875 27.09375 42.890625 30.859375 
Q 38.875 34.625 31.78125 34.625 
z
M 21.921875 38.8125 
Q 15.578125 40.375 12.03125 44.71875 
Q 8.5 49.078125 8.5 55.328125 
Q 8.5 64.0625 14.71875 69.140625 
Q 20.953125 74.21875 31.78125 74.21875 
Q 42.671875 74.21875 48.875 69.140625 
Q 55.078125 64.0625 55.078125 55.328125 
Q 55.078125 49.078125 51.53125 44.71875 
Q 48 40.375 41.703125 38.8125 
Q 48.828125 37.15625 52.796875 32.3125 
Q 56.78125 27.484375 56.78125 20.515625 
Q 56.78125 9.90625 50.3125 4.234375 
Q 43.84375 -1.421875 31.78125 -1.421875 
Q 19.734375 -1.421875 13.25 4.234375 
Q 6.78125 9.90625 6.78125 20.515625 
Q 6.78125 27.484375 10.78125 32.3125 
Q 14.796875 37.15625 21.921875 38.8125 
z
M 18.3125 54.390625 
Q 18.3125 48.734375 21.84375 45.5625 
Q 25.390625 42.390625 31.78125 42.390625 
Q 38.140625 42.390625 41.71875 45.5625 
Q 45.3125 48.734375 45.3125 54.390625 
Q 45.3125 60.0625 41.71875 63.234375 
Q 38.140625 66.40625 31.78125 66.40625 
Q 25.390625 66.40625 21.84375 63.234375 
Q 18.3125 60.0625 18.3125 54.390625 
z
" id="DejaVuSans-56"/>
      </defs>
      <use xlink:href="#DejaVuSans-56"/>
     </g>
    </g>
   </g>
  </g>
  <g id="axis3d_2">
   <g id="line2d_7">
    <path d="M 316.12668 171.68791 
L 251.239879 238.27773 
" style="fill:none;stroke:#000000;stroke-linecap:square;stroke-width:0.8;"/>
   </g>
   <g id="Line3DCollection_2">
    <path d="M 129.866948 102.505071 
L 134.046245 194.238731 
L 255.729543 233.67023 
" style="fill:none;stroke:#b0b0b0;stroke-width:0.8;"/>
    <path d="M 147.250212 89.819556 
L 150.59591 180.366474 
L 270.72626 218.279909 
" style="fill:none;stroke:#b0b0b0;stroke-width:0.8;"/>
    <path d="M 163.958537 77.626582 
L 166.530371 167.009893 
L 285.136664 203.491289 
" style="fill:none;stroke:#b0b0b0;stroke-width:0.8;"/>
    <path d="M 180.030483 65.898008 
L 181.883306 154.140758 
L 298.994481 189.269761 
" style="fill:none;stroke:#b0b0b0;stroke-width:0.8;"/>
    <path d="M 195.501727 54.607799 
L 196.68598 141.732864 
L 312.330896 175.583317 
" style="fill:none;stroke:#b0b0b0;stroke-width:0.8;"/>
   </g>
   <g id="xtick_6">
    <g id="line2d_8">
     <path d="M 254.704115 233.337939 
L 257.783053 234.33567 
" style="fill:none;stroke:#000000;stroke-linecap:square;stroke-width:0.8;"/>
    </g>
    <g id="text_6">
     <!-- 0 -->
     <g transform="translate(265.430654 254.693759)scale(0.1 -0.1)">
      <use xlink:href="#DejaVuSans-48"/>
     </g>
    </g>
   </g>
   <g id="xtick_7">
    <g id="line2d_9">
     <path d="M 269.71494 217.960734 
L 272.751463 218.919068 
" style="fill:none;stroke:#000000;stroke-linecap:square;stroke-width:0.8;"/>
    </g>
    <g id="text_7">
     <!-- 2 -->
     <g transform="translate(280.181112 239.024526)scale(0.1 -0.1)">
      <use xlink:href="#DejaVuSans-50"/>
     </g>
    </g>
   </g>
   <g id="xtick_8">
    <g id="line2d_10">
     <path d="M 284.139145 203.184468 
L 287.134182 204.105694 
" style="fill:none;stroke:#000000;stroke-linecap:square;stroke-width:0.8;"/>
    </g>
    <g id="text_8">
     <!-- 4 -->
     <g transform="translate(294.35448 223.968328)scale(0.1 -0.1)">
      <use xlink:href="#DejaVuSans-52"/>
     </g>
    </g>
   </g>
   <g id="xtick_9">
    <g id="line2d_11">
     <path d="M 298.010457 188.97459 
L 300.964927 189.860821 
" style="fill:none;stroke:#000000;stroke-linecap:square;stroke-width:0.8;"/>
    </g>
    <g id="text_9">
     <!-- 6 -->
     <g transform="translate(307.983974 209.489882)scale(0.1 -0.1)">
      <use xlink:href="#DejaVuSans-54"/>
     </g>
    </g>
   </g>
   <g id="xtick_10">
    <g id="line2d_12">
     <path d="M 311.360068 175.299146 
L 314.274875 176.15234 
" style="fill:none;stroke:#000000;stroke-linecap:square;stroke-width:0.8;"/>
    </g>
    <g id="text_10">
     <!-- 8 -->
     <g transform="translate(321.10031 195.556556)scale(0.1 -0.1)">
      <use xlink:href="#DejaVuSans-56"/>
     </g>
    </g>
   </g>
  </g>
  <g id="axis3d_3">
   <g id="line2d_13">
    <path d="M 316.12668 171.68791 
L 320.238571 81.894718 
" style="fill:none;stroke:#000000;stroke-linecap:square;stroke-width:0.8;"/>
   </g>
   <g id="Line3DCollection_3">
    <path d="M 316.205459 169.967571 
L 200.884845 136.530725 
L 129.013401 196.624949 
" style="fill:none;stroke:#b0b0b0;stroke-width:0.8;"/>
    <path d="M 316.916242 154.445889 
L 200.712014 121.500865 
L 128.24788 180.728411 
" style="fill:none;stroke:#b0b0b0;stroke-width:0.8;"/>
    <path d="M 317.63811 138.682148 
L 200.536616 106.247848 
L 127.469964 164.574487 
" style="fill:none;stroke:#b0b0b0;stroke-width:0.8;"/>
    <path d="M 318.371323 122.670643 
L 200.358595 90.766667 
L 126.67935 148.156875 
" style="fill:none;stroke:#b0b0b0;stroke-width:0.8;"/>
    <path d="M 319.116152 106.405486 
L 200.177891 75.052162 
L 125.875724 131.469066 
" style="fill:none;stroke:#b0b0b0;stroke-width:0.8;"/>
    <path d="M 319.872874 89.880601 
L 199.994443 59.09902 
L 125.058763 114.504333 
" style="fill:none;stroke:#b0b0b0;stroke-width:0.8;"/>
   </g>
   <g id="xtick_11">
    <g id="line2d_14">
     <path d="M 315.237563 169.686933 
L 318.143556 170.529516 
" style="fill:none;stroke:#000000;stroke-linecap:square;stroke-width:0.8;"/>
    </g>
    <g id="text_11">
     <!-- 0 -->
     <g transform="translate(331.275915 174.966846)scale(0.1 -0.1)">
      <use xlink:href="#DejaVuSans-48"/>
     </g>
    </g>
   </g>
   <g id="xtick_12">
    <g id="line2d_15">
     <path d="M 315.940576 154.169278 
L 318.869915 154.999774 
" style="fill:none;stroke:#000000;stroke-linecap:square;stroke-width:0.8;"/>
    </g>
    <g id="text_12">
     <!-- 5000 -->
     <g transform="translate(322.581012 159.482532)scale(0.1 -0.1)">
      <defs>
       <path d="M 10.796875 72.90625 
L 49.515625 72.90625 
L 49.515625 64.59375 
L 19.828125 64.59375 
L 19.828125 46.734375 
Q 21.96875 47.46875 24.109375 47.828125 
Q 26.265625 48.1875 28.421875 48.1875 
Q 40.625 48.1875 47.75 41.5 
Q 54.890625 34.8125 54.890625 23.390625 
Q 54.890625 11.625 47.5625 5.09375 
Q 40.234375 -1.421875 26.90625 -1.421875 
Q 22.3125 -1.421875 17.546875 -0.640625 
Q 12.796875 0.140625 7.71875 1.703125 
L 7.71875 11.625 
Q 12.109375 9.234375 16.796875 8.0625 
Q 21.484375 6.890625 26.703125 6.890625 
Q 35.15625 6.890625 40.078125 11.328125 
Q 45.015625 15.765625 45.015625 23.390625 
Q 45.015625 31 40.078125 35.4375 
Q 35.15625 39.890625 26.703125 39.890625 
Q 22.75 39.890625 18.8125 39.015625 
Q 14.890625 38.140625 10.796875 36.28125 
z
" id="DejaVuSans-53"/>
      </defs>
      <use xlink:href="#DejaVuSans-53"/>
      <use x="63.623047" xlink:href="#DejaVuSans-48"/>
      <use x="127.246094" xlink:href="#DejaVuSans-48"/>
      <use x="190.869141" xlink:href="#DejaVuSans-48"/>
     </g>
    </g>
   </g>
   <g id="xtick_13">
    <g id="line2d_16">
     <path d="M 316.654549 138.409725 
L 319.60761 139.227652 
" style="fill:none;stroke:#000000;stroke-linecap:square;stroke-width:0.8;"/>
    </g>
    <g id="text_13">
     <!-- 10000 -->
     <g transform="translate(320.261797 143.757642)scale(0.1 -0.1)">
      <defs>
       <path d="M 12.40625 8.296875 
L 28.515625 8.296875 
L 28.515625 63.921875 
L 10.984375 60.40625 
L 10.984375 69.390625 
L 28.421875 72.90625 
L 38.28125 72.90625 
L 38.28125 8.296875 
L 54.390625 8.296875 
L 54.390625 0 
L 12.40625 0 
z
" id="DejaVuSans-49"/>
      </defs>
      <use xlink:href="#DejaVuSans-49"/>
      <use x="63.623047" xlink:href="#DejaVuSans-48"/>
      <use x="127.246094" xlink:href="#DejaVuSans-48"/>
      <use x="190.869141" xlink:href="#DejaVuSans-48"/>
      <use x="254.492188" xlink:href="#DejaVuSans-48"/>
     </g>
    </g>
   </g>
   <g id="xtick_14">
    <g id="line2d_17">
     <path d="M 317.379738 122.402574 
L 320.356909 123.207433 
" style="fill:none;stroke:#000000;stroke-linecap:square;stroke-width:0.8;"/>
    </g>
    <g id="text_14">
     <!-- 15000 -->
     <g transform="translate(321.13733 127.786527)scale(0.1 -0.1)">
      <use xlink:href="#DejaVuSans-49"/>
      <use x="63.623047" xlink:href="#DejaVuSans-53"/>
      <use x="127.246094" xlink:href="#DejaVuSans-48"/>
      <use x="190.869141" xlink:href="#DejaVuSans-48"/>
      <use x="254.492188" xlink:href="#DejaVuSans-48"/>
     </g>
    </g>
   </g>
   <g id="xtick_15">
    <g id="line2d_18">
     <path d="M 318.116411 106.141944 
L 321.118088 106.933216 
" style="fill:none;stroke:#000000;stroke-linecap:square;stroke-width:0.8;"/>
    </g>
    <g id="text_15">
     <!-- 20000 -->
     <g transform="translate(322.026681 111.563358)scale(0.1 -0.1)">
      <use xlink:href="#DejaVuSans-50"/>
      <use x="63.623047" xlink:href="#DejaVuSans-48"/>
      <use x="127.246094" xlink:href="#DejaVuSans-48"/>
      <use x="190.869141" xlink:href="#DejaVuSans-48"/>
      <use x="254.492188" xlink:href="#DejaVuSans-48"/>
     </g>
    </g>
   </g>
   <g id="xtick_16">
    <g id="line2d_19">
     <path d="M 318.864843 89.621765 
L 321.891432 90.398912 
" style="fill:none;stroke:#000000;stroke-linecap:square;stroke-width:0.8;"/>
    </g>
    <g id="text_16">
     <!-- 25000 -->
     <g transform="translate(322.930179 95.08212)scale(0.1 -0.1)">
      <use xlink:href="#DejaVuSans-50"/>
      <use x="63.623047" xlink:href="#DejaVuSans-53"/>
      <use x="127.246094" xlink:href="#DejaVuSans-48"/>
      <use x="190.869141" xlink:href="#DejaVuSans-48"/>
      <use x="254.492188" xlink:href="#DejaVuSans-48"/>
     </g>
    </g>
   </g>
  </g>
  <g id="axes_1">
   <g id="Poly3DCollection_1">
    <path clip-path="url(#p70240b7afb)" d="M 196.401162 148.290596 
L 203.700438 142.115361 
L 215.863902 145.66701 
L 208.637156 151.907182 
z
" style="fill:#814728;"/>
    <path clip-path="url(#p70240b7afb)" d="M 208.637156 151.907182 
L 215.863902 145.66701 
L 228.155024 149.255935 
L 221.002748 155.562072 
z
" style="fill:#834c25;"/>
    <path clip-path="url(#p70240b7afb)" d="M 188.96817 154.578956 
L 196.401162 148.290596 
L 208.637156 151.907182 
L 201.27732 158.262275 
z
" style="fill:#875d1a;"/>
    <path clip-path="url(#p70240b7afb)" d="M 203.700438 142.115361 
L 203.107426 83.670466 
L 215.619088 87.010807 
L 215.863902 145.66701 
z
" style="fill:#65381f;"/>
    <path clip-path="url(#p70240b7afb)" d="M 221.002748 155.562072 
L 228.155024 149.255935 
L 240.575825 152.882725 
L 233.500008 159.25588 
z
" style="fill:#86571e;"/>
    <path clip-path="url(#p70240b7afb)" d="M 196.401162 148.290596 
L 195.590915 89.478945 
L 203.107426 83.670466 
L 203.700438 142.115361 
z
" style="fill:#d67642;"/>
    <path clip-path="url(#p70240b7afb)" d="M 201.27732 158.262275 
L 208.637156 151.907182 
L 221.002748 155.562072 
L 213.718049 161.984967 
z
" style="fill:#867213;"/>
    <path clip-path="url(#p70240b7afb)" d="M 215.863902 145.66701 
L 215.609186 84.638354 
L 228.270361 88.0058 
L 228.155024 149.255935 
z
" style="fill:#673b1d;"/>
    <path clip-path="url(#p70240b7afb)" d="M 233.500008 159.25588 
L 240.575825 152.882725 
L 253.128369 156.547983 
L 246.131049 162.989229 
z
" style="fill:#855320;"/>
    <path clip-path="url(#p70240b7afb)" d="M 208.637156 151.907182 
L 215.863902 145.66701 
L 215.619088 87.010807 
L 208.179314 92.882143 
z
" style="fill:#65381f;"/>
    <path clip-path="url(#p70240b7afb)" d="M 208.637156 151.907182 
L 208.160791 90.494117 
L 215.609186 84.638354 
L 215.863902 145.66701 
z
" style="fill:#d97e3c;"/>
    <path clip-path="url(#p70240b7afb)" d="M 181.397755 160.983577 
L 188.96817 154.578956 
L 201.27732 158.262275 
L 193.780682 164.735494 
z
" style="fill:#844e23;"/>
    <path clip-path="url(#p70240b7afb)" d="M 196.401162 148.290596 
L 208.637156 151.907182 
L 208.179314 92.882143 
L 195.590915 89.478945 
z
" style="fill:#d67642;"/>
    <path clip-path="url(#p70240b7afb)" d="M 213.718049 161.984967 
L 221.002748 155.562072 
L 233.500008 159.25588 
L 226.292478 165.747667 
z
" style="fill:#867113;"/>
    <path clip-path="url(#p70240b7afb)" d="M 246.131049 162.989229 
L 253.128369 156.547983 
L 265.814761 160.252323 
L 258.898031 166.762758 
z
" style="fill:#7e402d;"/>
    <path clip-path="url(#p70240b7afb)" d="M 196.401162 148.290596 
L 195.453114 79.476632 
L 208.101433 82.841744 
L 208.637156 151.907182 
z
" style="fill:#694914;"/>
    <path clip-path="url(#p70240b7afb)" d="M 228.155024 149.255935 
L 228.280172 82.795496 
L 241.111152 86.179698 
L 240.575825 152.882725 
z
" style="fill:#694417;"/>
    <path clip-path="url(#p70240b7afb)" d="M 221.002748 155.562072 
L 228.155024 149.255935 
L 228.270361 88.0058 
L 220.900995 93.92535 
z
" style="fill:#673b1d;"/>
    <path clip-path="url(#p70240b7afb)" d="M 188.96817 154.578956 
L 187.756513 85.328514 
L 195.453114 79.476632 
L 196.401162 148.290596 
z
" style="fill:#e09b2b;"/>
    <path clip-path="url(#p70240b7afb)" d="M 193.780682 164.735494 
L 201.27732 158.262275 
L 213.718049 161.984967 
L 206.297214 168.527892 
z
" style="fill:#808413;"/>
    <path clip-path="url(#p70240b7afb)" d="M 221.002748 155.562072 
L 220.892336 88.680583 
L 228.280172 82.795496 
L 228.155024 149.255935 
z
" style="fill:#de9031;"/>
    <path clip-path="url(#p70240b7afb)" d="M 208.637156 151.907182 
L 221.002748 155.562072 
L 220.900995 93.92535 
L 208.160791 90.494117 
z
" style="fill:#d97e3c;"/>
    <path clip-path="url(#p70240b7afb)" d="M 226.292478 165.747667 
L 233.500008 159.25588 
L 246.131049 162.989229 
L 239.002775 169.551023 
z
" style="fill:#867213;"/>
    <path clip-path="url(#p70240b7afb)" d="M 258.898031 166.762758 
L 265.814761 160.252323 
L 278.637155 163.996376 
L 271.803162 170.57712 
z
" style="fill:#470359;"/>
    <path clip-path="url(#p70240b7afb)" d="M 240.575825 152.882725 
L 241.093148 88.42302 
L 254.050634 91.852893 
L 253.128369 156.547983 
z
" style="fill:#684119;"/>
    <path clip-path="url(#p70240b7afb)" d="M 265.814761 160.252323 
L 266.286714 137.314193 
L 279.258362 140.976722 
L 278.637155 163.996376 
z
" style="fill:#380345;"/>
    <path clip-path="url(#p70240b7afb)" d="M 173.686069 167.507715 
L 181.397755 160.983577 
L 193.780682 164.735494 
L 186.143392 171.330164 
z
" style="fill:#6d273f;"/>
    <path clip-path="url(#p70240b7afb)" d="M 278.637155 163.996376 
L 278.731463 160.501648 
L 291.715198 164.273796 
L 291.597749 167.780781 
z
" style="fill:#0e023c;"/>
    <path clip-path="url(#p70240b7afb)" d="M 195.590915 89.478945 
L 208.179314 92.882143 
L 215.619088 87.010807 
L 203.107426 83.670466 
z
" style="fill:#ba6639;"/>
    <path clip-path="url(#p70240b7afb)" d="M 201.27732 158.262275 
L 208.637156 151.907182 
L 208.101433 82.841744 
L 200.482986 88.757862 
z
" style="fill:#694914;"/>
    <path clip-path="url(#p70240b7afb)" d="M 208.637156 151.907182 
L 208.037884 74.648981 
L 220.874736 78.019293 
L 221.002748 155.562072 
z
" style="fill:#69590f;"/>
    <path clip-path="url(#p70240b7afb)" d="M 206.297214 168.527892 
L 213.718049 161.984967 
L 226.292478 165.747667 
L 218.949524 172.361429 
z
" style="fill:#847914;"/>
    <path clip-path="url(#p70240b7afb)" d="M 233.500008 159.25588 
L 233.794674 94.387632 
L 241.093148 88.42302 
L 240.575825 152.882725 
z
" style="fill:#dd8936;"/>
    <path clip-path="url(#p70240b7afb)" d="M 188.96817 154.578956 
L 187.871621 91.907316 
L 200.55846 95.361881 
L 201.27732 158.262275 
z
" style="fill:#673d1b;"/>
    <path clip-path="url(#p70240b7afb)" d="M 258.898031 166.762758 
L 259.294988 143.683155 
L 266.286714 137.314193 
L 265.814761 160.252323 
z
" style="fill:#760693;"/>
    <path clip-path="url(#p70240b7afb)" d="M 233.500008 159.25588 
L 240.575825 152.882725 
L 241.111152 86.179698 
L 233.804932 92.129406 
z
" style="fill:#694417;"/>
    <path clip-path="url(#p70240b7afb)" d="M 271.803162 170.57712 
L 271.886375 167.061123 
L 278.731463 160.501648 
L 278.637155 163.996376 
z
" style="fill:#1e057f;"/>
    <path clip-path="url(#p70240b7afb)" d="M 253.128369 156.547983 
L 253.923327 100.783211 
L 266.966295 104.28483 
L 265.814761 160.252323 
z
" style="fill:#623223;"/>
    <path clip-path="url(#p70240b7afb)" d="M 239.002775 169.551023 
L 246.131049 162.989229 
L 258.898031 166.762758 
L 251.851153 173.395697 
z
" style="fill:#876d14;"/>
    <path clip-path="url(#p70240b7afb)" d="M 188.96817 154.578956 
L 201.27732 158.262275 
L 200.482986 88.757862 
L 187.756513 85.328514 
z
" style="fill:#e09b2b;"/>
    <path clip-path="url(#p70240b7afb)" d="M 201.27732 158.262275 
L 200.388726 80.510128 
L 208.037884 74.648981 
L 208.637156 151.907182 
z
" style="fill:#debc20;"/>
    <path clip-path="url(#p70240b7afb)" d="M 181.397755 160.983577 
L 180.053815 97.914907 
L 187.871621 91.907316 
L 188.96817 154.578956 
z
" style="fill:#db823a;"/>
    <path clip-path="url(#p70240b7afb)" d="M 221.002748 155.562072 
L 233.500008 159.25588 
L 233.804932 92.129406 
L 220.892336 88.680583 
z
" style="fill:#de9031;"/>
    <path clip-path="url(#p70240b7afb)" d="M 271.803162 170.57712 
L 278.637155 163.996376 
L 291.597749 167.780781 
L 284.848695 174.43298 
z
" style="fill:#12034d;"/>
    <path clip-path="url(#p70240b7afb)" d="M 246.131049 162.989229 
L 246.738529 106.87262 
L 253.923327 100.783211 
L 253.128369 156.547983 
z
" style="fill:#d1694a;"/>
    <path clip-path="url(#p70240b7afb)" d="M 291.597749 167.780781 
L 291.619895 167.11951 
L 304.725392 170.942608 
L 304.698789 171.606197 
z
" style="fill:#050338;"/>
    <path clip-path="url(#p70240b7afb)" d="M 186.143392 171.330164 
L 193.780682 164.735494 
L 206.297214 168.527892 
L 198.736391 175.194243 
z
" style="fill:#827d15;"/>
    <path clip-path="url(#p70240b7afb)" d="M 181.397755 160.983577 
L 180.486467 118.218451 
L 193.128631 121.816063 
L 193.780682 164.735494 
z
" style="fill:#551e32;"/>
    <path clip-path="url(#p70240b7afb)" d="M 271.886375 167.061123 
L 284.955357 170.90462 
L 291.715198 164.273796 
L 278.731463 160.501648 
z
" style="fill:#1a046e;"/>
    <path clip-path="url(#p70240b7afb)" d="M 221.002748 155.562072 
L 220.874959 78.153981 
L 233.852934 81.56209 
L 233.500008 159.25588 
z
" style="fill:#69580f;"/>
    <path clip-path="url(#p70240b7afb)" d="M 218.949524 172.361429 
L 226.292478 165.747667 
L 239.002775 169.551023 
L 231.739835 176.23678 
z
" style="fill:#837b14;"/>
    <path clip-path="url(#p70240b7afb)" d="M 246.131049 162.989229 
L 253.128369 156.547983 
L 254.050634 91.852893 
L 246.835841 97.883289 
z
" style="fill:#684119;"/>
    <path clip-path="url(#p70240b7afb)" d="M 284.848695 174.43298 
L 284.868807 173.767688 
L 291.619895 167.11951 
L 291.597749 167.780781 
z
" style="fill:#0b0777;"/>
    <path clip-path="url(#p70240b7afb)" d="M 271.803162 170.57712 
L 278.637155 163.996376 
L 279.258362 140.976722 
L 272.351332 147.415258 
z
" style="fill:#380345;"/>
    <path clip-path="url(#p70240b7afb)" d="M 208.160791 90.494117 
L 220.900995 93.92535 
L 228.270361 88.0058 
L 215.609186 84.638354 
z
" style="fill:#bd6d34;"/>
    <path clip-path="url(#p70240b7afb)" d="M 284.848695 174.43298 
L 291.597749 167.780781 
L 291.715198 164.273796 
L 284.955357 170.90462 
z
" style="fill:#0e023c;"/>
    <path clip-path="url(#p70240b7afb)" d="M 173.686069 167.507715 
L 172.600878 124.474797 
L 180.486467 118.218451 
L 181.397755 160.983577 
z
" style="fill:#b54069;"/>
    <path clip-path="url(#p70240b7afb)" d="M 251.851153 173.395697 
L 258.898031 166.762758 
L 271.803162 170.57712 
L 264.839875 177.282368 
z
" style="fill:#793733;"/>
    <path clip-path="url(#p70240b7afb)" d="M 213.718049 161.984967 
L 213.307267 84.080989 
L 220.874959 78.153981 
L 221.002748 155.562072 
z
" style="fill:#debb20;"/>
    <path clip-path="url(#p70240b7afb)" d="M 213.718049 161.984967 
L 221.002748 155.562072 
L 220.874736 78.019293 
L 213.306552 83.94539 
z
" style="fill:#69590f;"/>
    <path clip-path="url(#p70240b7afb)" d="M 233.500008 159.25588 
L 246.131049 162.989229 
L 246.835841 97.883289 
L 233.794674 94.387632 
z
" style="fill:#dd8936;"/>
    <path clip-path="url(#p70240b7afb)" d="M 173.686069 167.507715 
L 173.255644 150.439361 
L 185.817053 154.201235 
L 186.143392 171.330164 
z
" style="fill:#2c0046;"/>
    <path clip-path="url(#p70240b7afb)" d="M 193.780682 164.735494 
L 201.27732 158.262275 
L 200.55846 95.361881 
L 192.819005 101.435837 
z
" style="fill:#673d1b;"/>
    <path clip-path="url(#p70240b7afb)" d="M 258.898031 166.762758 
L 271.803162 170.57712 
L 272.351332 147.415258 
L 259.294988 143.683155 
z
" style="fill:#760693;"/>
    <path clip-path="url(#p70240b7afb)" d="M 165.82912 174.154745 
L 173.686069 167.507715 
L 186.143392 171.330164 
L 178.361455 178.049733 
z
" style="fill:#380059;"/>
    <path clip-path="url(#p70240b7afb)" d="M 284.848695 174.43298 
L 291.597749 167.780781 
L 304.698789 171.606197 
L 298.036935 178.33102 
z
" style="fill:#070448;"/>
    <path clip-path="url(#p70240b7afb)" d="M 271.803162 170.57712 
L 284.848695 174.43298 
L 284.955357 170.90462 
L 271.886375 167.061123 
z
" style="fill:#1e057f;"/>
    <path clip-path="url(#p70240b7afb)" d="M 284.868807 173.767688 
L 298.061564 177.66339 
L 304.725392 170.942608 
L 291.619895 167.11951 
z
" style="fill:#0a0667;"/>
    <path clip-path="url(#p70240b7afb)" d="M 258.898031 166.762758 
L 265.814761 160.252323 
L 266.966295 104.28483 
L 259.866726 110.441479 
z
" style="fill:#623223;"/>
    <path clip-path="url(#p70240b7afb)" d="M 259.294988 143.683155 
L 272.351332 147.415258 
L 279.258362 140.976722 
L 266.286714 137.314193 
z
" style="fill:#660580;"/>
    <path clip-path="url(#p70240b7afb)" d="M 201.27732 158.262275 
L 213.718049 161.984967 
L 213.306552 83.94539 
L 200.388726 80.510128 
z
" style="fill:#debc20;"/>
    <path clip-path="url(#p70240b7afb)" d="M 198.736391 175.194243 
L 206.297214 168.527892 
L 218.949524 172.361429 
L 211.467294 179.100638 
z
" style="fill:#808512;"/>
    <path clip-path="url(#p70240b7afb)" d="M 165.82912 174.154745 
L 165.327208 156.981278 
L 173.255644 150.439361 
L 173.686069 167.507715 
z
" style="fill:#5d0094;"/>
    <path clip-path="url(#p70240b7afb)" d="M 181.397755 160.983577 
L 193.780682 164.735494 
L 192.819005 101.435837 
L 180.053815 97.914907 
z
" style="fill:#db823a;"/>
    <path clip-path="url(#p70240b7afb)" d="M 271.803162 170.57712 
L 272.019644 161.430074 
L 285.126185 165.253631 
L 284.848695 174.43298 
z
" style="fill:#1c0142;"/>
    <path clip-path="url(#p70240b7afb)" d="M 233.500008 159.25588 
L 233.854095 81.306455 
L 246.977997 84.751462 
L 246.131049 162.989229 
z
" style="fill:#69590f;"/>
    <path clip-path="url(#p70240b7afb)" d="M 246.131049 162.989229 
L 258.898031 166.762758 
L 259.866726 110.441479 
L 246.738529 106.87262 
z
" style="fill:#d1694a;"/>
    <path clip-path="url(#p70240b7afb)" d="M 201.27732 158.262275 
L 200.309 73.534127 
L 213.269624 76.942029 
L 213.718049 161.984967 
z
" style="fill:#64670f;"/>
    <path clip-path="url(#p70240b7afb)" d="M 231.739835 176.23678 
L 239.002775 169.551023 
L 251.851153 173.395697 
L 244.670417 180.154631 
z
" style="fill:#827e15;"/>
    <path clip-path="url(#p70240b7afb)" d="M 298.036935 178.33102 
L 304.698789 171.606197 
L 304.725392 170.942608 
L 298.061564 177.66339 
z
" style="fill:#050338;"/>
    <path clip-path="url(#p70240b7afb)" d="M 264.839875 177.282368 
L 265.026354 168.079268 
L 272.019644 161.430074 
L 271.803162 170.57712 
z
" style="fill:#3b038b;"/>
    <path clip-path="url(#p70240b7afb)" d="M 186.143392 171.330164 
L 193.780682 164.735494 
L 193.128631 121.816063 
L 185.320564 128.141501 
z
" style="fill:#551e32;"/>
    <path clip-path="url(#p70240b7afb)" d="M 264.839875 177.282368 
L 271.803162 170.57712 
L 284.848695 174.43298 
L 277.971253 181.211726 
z
" style="fill:#240254;"/>
    <path clip-path="url(#p70240b7afb)" d="M 226.292478 165.747667 
L 233.500008 159.25588 
L 233.852934 81.56209 
L 226.368482 87.555139 
z
" style="fill:#69580f;"/>
    <path clip-path="url(#p70240b7afb)" d="M 226.292478 165.747667 
L 226.368732 87.29777 
L 233.854095 81.306455 
L 233.500008 159.25588 
z
" style="fill:#debc20;"/>
    <path clip-path="url(#p70240b7afb)" d="M 193.780682 164.735494 
L 192.485153 79.460955 
L 200.309 73.534127 
L 201.27732 158.262275 
z
" style="fill:#d4da20;"/>
    <path clip-path="url(#p70240b7afb)" d="M 284.848695 174.43298 
L 298.036935 178.33102 
L 298.061564 177.66339 
L 284.868807 173.767688 
z
" style="fill:#0b0777;"/>
    <path clip-path="url(#p70240b7afb)" d="M 284.848695 174.43298 
L 284.885707 173.208631 
L 298.08226 177.102368 
L 298.036935 178.33102 
z
" style="fill:#070339;"/>
    <path clip-path="url(#p70240b7afb)" d="M 178.361455 178.049733 
L 186.143392 171.330164 
L 198.736391 175.194243 
L 191.031582 181.987547 
z
" style="fill:#824a26;"/>
    <path clip-path="url(#p70240b7afb)" d="M 187.756513 85.328514 
L 200.482986 88.757862 
L 208.101433 82.841744 
L 195.453114 79.476632 
z
" style="fill:#c28626;"/>
    <path clip-path="url(#p70240b7afb)" d="M 173.686069 167.507715 
L 186.143392 171.330164 
L 185.320564 128.141501 
L 172.600878 124.474797 
z
" style="fill:#b54069;"/>
    <path clip-path="url(#p70240b7afb)" d="M 220.892336 88.680583 
L 233.804932 92.129406 
L 241.111152 86.179698 
L 228.280172 82.795496 
z
" style="fill:#c17d2b;"/>
    <path clip-path="url(#p70240b7afb)" d="M 165.82912 174.154745 
L 165.657683 168.288837 
L 178.226 172.163135 
L 178.361455 178.049733 
z
" style="fill:#15023f;"/>
    <path clip-path="url(#p70240b7afb)" d="M 213.718049 161.984967 
L 226.292478 165.747667 
L 226.368482 87.555139 
L 213.307267 84.080989 
z
" style="fill:#debb20;"/>
    <path clip-path="url(#p70240b7afb)" d="M 211.467294 179.100638 
L 218.949524 172.361429 
L 231.739835 176.23678 
L 224.338378 183.050047 
z
" style="fill:#837c14;"/>
    <path clip-path="url(#p70240b7afb)" d="M 178.361455 178.049733 
L 186.143392 171.330164 
L 185.817053 154.201235 
L 177.964874 160.815159 
z
" style="fill:#2c0046;"/>
    <path clip-path="url(#p70240b7afb)" d="M 258.898031 166.762758 
L 259.790019 114.901327 
L 273.035033 118.526813 
L 271.803162 170.57712 
z
" style="fill:#5f2b28;"/>
    <path clip-path="url(#p70240b7afb)" d="M 213.718049 161.984967 
L 213.290756 80.949822 
L 226.371538 84.411694 
L 226.292478 165.747667 
z
" style="fill:#675e10;"/>
    <path clip-path="url(#p70240b7afb)" d="M 277.971253 181.211726 
L 278.00437 179.979909 
L 284.885707 173.208631 
L 284.848695 174.43298 
z
" style="fill:#0e0678;"/>
    <path clip-path="url(#p70240b7afb)" d="M 246.131049 162.989229 
L 246.958572 86.545918 
L 260.217681 90.036471 
L 258.898031 166.762758 
z
" style="fill:#695510;"/>
    <path clip-path="url(#p70240b7afb)" d="M 157.822766 180.928173 
L 157.626011 175.026364 
L 165.657683 168.288837 
L 165.82912 174.154745 
z
" style="fill:#2c0485;"/>
    <path clip-path="url(#p70240b7afb)" d="M 244.670417 180.154631 
L 251.851153 173.395697 
L 264.839875 177.282368 
L 257.743589 184.115686 
z
" style="fill:#876218;"/>
    <path clip-path="url(#p70240b7afb)" d="M 165.327208 156.981278 
L 177.964874 160.815159 
L 185.817053 154.201235 
L 173.255644 150.439361 
z
" style="fill:#500081;"/>
    <path clip-path="url(#p70240b7afb)" d="M 265.026354 168.079268 
L 278.219554 171.976045 
L 285.126185 165.253631 
L 272.019644 161.430074 
z
" style="fill:#330379;"/>
    <path clip-path="url(#p70240b7afb)" d="M 165.82912 174.154745 
L 178.361455 178.049733 
L 177.964874 160.815159 
L 165.327208 156.981278 
z
" style="fill:#5d0094;"/>
    <path clip-path="url(#p70240b7afb)" d="M 251.851153 173.395697 
L 252.568115 121.206473 
L 259.790019 114.901327 
L 258.898031 166.762758 
z
" style="fill:#c95c54;"/>
    <path clip-path="url(#p70240b7afb)" d="M 277.971253 181.211726 
L 284.848695 174.43298 
L 285.126185 165.253631 
L 278.219554 171.976045 
z
" style="fill:#1c0142;"/>
    <path clip-path="url(#p70240b7afb)" d="M 206.297214 168.527892 
L 205.564298 86.970603 
L 213.290756 80.949822 
L 213.718049 161.984967 
z
" style="fill:#dbc821;"/>
    <path clip-path="url(#p70240b7afb)" d="M 157.822766 180.928173 
L 165.82912 174.154745 
L 178.361455 178.049733 
L 170.430723 184.897786 
z
" style="fill:#1a0250;"/>
    <path clip-path="url(#p70240b7afb)" d="M 239.002775 169.551023 
L 239.565029 92.61656 
L 246.958572 86.545918 
L 246.131049 162.989229 
z
" style="fill:#dfb521;"/>
    <path clip-path="url(#p70240b7afb)" d="M 277.971253 181.211726 
L 284.848695 174.43298 
L 298.036935 178.33102 
L 291.24765 185.184478 
z
" style="fill:#090449;"/>
    <path clip-path="url(#p70240b7afb)" d="M 239.002775 169.551023 
L 246.131049 162.989229 
L 246.977997 84.751462 
L 239.578233 90.809917 
z
" style="fill:#69590f;"/>
    <path clip-path="url(#p70240b7afb)" d="M 206.297214 168.527892 
L 213.718049 161.984967 
L 213.269624 76.942029 
L 205.528035 82.935395 
z
" style="fill:#64670f;"/>
    <path clip-path="url(#p70240b7afb)" d="M 278.00437 179.979909 
L 291.289194 183.948323 
L 298.08226 177.102368 
L 284.885707 173.208631 
z
" style="fill:#0c0668;"/>
    <path clip-path="url(#p70240b7afb)" d="M 233.794674 94.387632 
L 246.835841 97.883289 
L 254.050634 91.852893 
L 241.093148 88.42302 
z
" style="fill:#bf772f;"/>
    <path clip-path="url(#p70240b7afb)" d="M 191.031582 181.987547 
L 198.736391 175.194243 
L 211.467294 179.100638 
L 203.841786 185.968896 
z
" style="fill:#837c14;"/>
    <path clip-path="url(#p70240b7afb)" d="M 264.839875 177.282368 
L 277.971253 181.211726 
L 278.219554 171.976045 
L 265.026354 168.079268 
z
" style="fill:#3b038b;"/>
    <path clip-path="url(#p70240b7afb)" d="M 246.738529 106.87262 
L 259.866726 110.441479 
L 266.966295 104.28483 
L 253.923327 100.783211 
z
" style="fill:#b55c40;"/>
    <path clip-path="url(#p70240b7afb)" d="M 172.600878 124.474797 
L 185.320564 128.141501 
L 193.128631 121.816063 
L 180.486467 118.218451 
z
" style="fill:#9d385b;"/>
    <path clip-path="url(#p70240b7afb)" d="M 193.780682 164.735494 
L 192.520676 81.799164 
L 205.549131 85.282844 
L 206.297214 168.527892 
z
" style="fill:#666210;"/>
    <path clip-path="url(#p70240b7afb)" d="M 180.053815 97.914907 
L 192.819005 101.435837 
L 200.55846 95.361881 
L 187.871621 91.907316 
z
" style="fill:#be7033;"/>
    <path clip-path="url(#p70240b7afb)" d="M 226.292478 165.747667 
L 239.002775 169.551023 
L 239.578233 90.809917 
L 226.368732 87.29777 
z
" style="fill:#debc20;"/>
    <path clip-path="url(#p70240b7afb)" d="M 193.780682 164.735494 
L 206.297214 168.527892 
L 205.528035 82.935395 
L 192.485153 79.460955 
z
" style="fill:#d4da20;"/>
    <path clip-path="url(#p70240b7afb)" d="M 224.338378 183.050047 
L 231.739835 176.23678 
L 244.670417 180.154631 
L 237.351973 187.043183 
z
" style="fill:#827f15;"/>
    <path clip-path="url(#p70240b7afb)" d="M 157.626011 175.026364 
L 170.270379 178.975112 
L 178.226 172.163135 
L 165.657683 168.288837 
z
" style="fill:#260473;"/>
    <path clip-path="url(#p70240b7afb)" d="M 291.24765 185.184478 
L 298.036935 178.33102 
L 298.08226 177.102368 
L 291.289194 183.948323 
z
" style="fill:#070339;"/>
    <path clip-path="url(#p70240b7afb)" d="M 226.292478 165.747667 
L 226.372395 83.529355 
L 239.605882 87.026678 
L 239.002775 169.551023 
z
" style="fill:#666010;"/>
    <path clip-path="url(#p70240b7afb)" d="M 170.430723 184.897786 
L 178.361455 178.049733 
L 178.226 172.163135 
L 170.270379 178.975112 
z
" style="fill:#15023f;"/>
    <path clip-path="url(#p70240b7afb)" d="M 186.143392 171.330164 
L 184.553084 87.857995 
L 192.520676 81.799164 
L 193.780682 164.735494 
z
" style="fill:#d8d022;"/>
    <path clip-path="url(#p70240b7afb)" d="M 257.743589 184.115686 
L 264.839875 177.282368 
L 277.971253 181.211726 
L 270.961723 188.120663 
z
" style="fill:#4f0956;"/>
    <path clip-path="url(#p70240b7afb)" d="M 264.839875 177.282368 
L 271.803162 170.57712 
L 273.035033 118.526813 
L 265.901229 124.902492 
z
" style="fill:#5f2b28;"/>
    <path clip-path="url(#p70240b7afb)" d="M 157.822766 180.928173 
L 157.759047 179.016871 
L 170.378796 182.979748 
L 170.430723 184.897786 
z
" style="fill:#09033a;"/>
    <path clip-path="url(#p70240b7afb)" d="M 277.971253 181.211726 
L 291.24765 185.184478 
L 291.289194 183.948323 
L 278.00437 179.979909 
z
" style="fill:#0e0678;"/>
    <path clip-path="url(#p70240b7afb)" d="M 218.949524 172.361429 
L 226.292478 165.747667 
L 226.371538 84.411694 
L 218.729368 90.500319 
z
" style="fill:#675e10;"/>
    <path clip-path="url(#p70240b7afb)" d="M 170.430723 184.897786 
L 178.361455 178.049733 
L 191.031582 181.987547 
L 183.178635 188.911464 
z
" style="fill:#520c55;"/>
    <path clip-path="url(#p70240b7afb)" d="M 277.971253 181.211726 
L 278.025995 179.175569 
L 291.316321 183.141144 
L 291.24765 185.184478 
z
" style="fill:#0a033a;"/>
    <path clip-path="url(#p70240b7afb)" d="M 218.949524 172.361429 
L 218.726979 89.611941 
L 226.372395 83.529355 
L 226.292478 165.747667 
z
" style="fill:#d9cd22;"/>
    <path clip-path="url(#p70240b7afb)" d="M 200.388726 80.510128 
L 213.306552 83.94539 
L 220.874736 78.019293 
L 208.037884 74.648981 
z
" style="fill:#c0a31c;"/>
    <path clip-path="url(#p70240b7afb)" d="M 251.851153 173.395697 
L 258.898031 166.762758 
L 260.217681 90.036471 
L 252.911985 96.175465 
z
" style="fill:#695510;"/>
    <path clip-path="url(#p70240b7afb)" d="M 157.822766 180.928173 
L 170.430723 184.897786 
L 170.270379 178.975112 
L 157.626011 175.026364 
z
" style="fill:#2c0485;"/>
    <path clip-path="url(#p70240b7afb)" d="M 264.839875 177.282368 
L 265.377232 150.76274 
L 278.686792 154.596945 
L 277.971253 181.211726 
z
" style="fill:#3e0743;"/>
    <path clip-path="url(#p70240b7afb)" d="M 186.143392 171.330164 
L 184.967689 109.619826 
L 197.943897 113.257064 
L 198.736391 175.194243 
z
" style="fill:#663a1e;"/>
    <path clip-path="url(#p70240b7afb)" d="M 203.841786 185.968896 
L 211.467294 179.100638 
L 224.338378 183.050047 
L 216.794403 189.994506 
z
" style="fill:#876417;"/>
    <path clip-path="url(#p70240b7afb)" d="M 251.851153 173.395697 
L 264.839875 177.282368 
L 265.901229 124.902492 
L 252.568115 121.206473 
z
" style="fill:#c95c54;"/>
    <path clip-path="url(#p70240b7afb)" d="M 149.662704 187.831639 
L 149.590481 185.908649 
L 157.759047 179.016871 
L 157.822766 180.928173 
z
" style="fill:#13067a;"/>
    <path clip-path="url(#p70240b7afb)" d="M 206.297214 168.527892 
L 218.949524 172.361429 
L 218.729368 90.500319 
L 205.564298 86.970603 
z
" style="fill:#dbc821;"/>
    <path clip-path="url(#p70240b7afb)" d="M 270.961723 188.120663 
L 271.009768 186.072052 
L 278.025995 179.175569 
L 277.971253 181.211726 
z
" style="fill:#16067b;"/>
    <path clip-path="url(#p70240b7afb)" d="M 239.002775 169.551023 
L 251.851153 173.395697 
L 252.911985 96.175465 
L 239.565029 92.61656 
z
" style="fill:#dfb521;"/>
    <path clip-path="url(#p70240b7afb)" d="M 178.361455 178.049733 
L 177.70982 149.731029 
L 190.55689 153.567065 
L 191.031582 181.987547 
z
" style="fill:#400942;"/>
    <path clip-path="url(#p70240b7afb)" d="M 257.743589 184.115686 
L 258.191085 157.430942 
L 265.377232 150.76274 
L 264.839875 177.282368 
z
" style="fill:#820e8f;"/>
    <path clip-path="url(#p70240b7afb)" d="M 237.351973 187.043183 
L 244.670417 180.154631 
L 257.743589 184.115686 
L 250.510457 191.080779 
z
" style="fill:#876417;"/>
    <path clip-path="url(#p70240b7afb)" d="M 206.297214 168.527892 
L 205.52368 82.450684 
L 218.717164 85.962506 
L 218.949524 172.361429 
z
" style="fill:#64680e;"/>
    <path clip-path="url(#p70240b7afb)" d="M 178.361455 178.049733 
L 176.932393 115.945705 
L 184.967689 109.619826 
L 186.143392 171.330164 
z
" style="fill:#d87a3f;"/>
    <path clip-path="url(#p70240b7afb)" d="M 239.002775 169.551023 
L 239.613418 85.995448 
L 253.003302 89.528256 
L 251.851153 173.395697 
z
" style="fill:#666310;"/>
    <path clip-path="url(#p70240b7afb)" d="M 149.662704 187.831639 
L 157.822766 180.928173 
L 170.430723 184.897786 
L 162.346885 191.878042 
z
" style="fill:#0c044a;"/>
    <path clip-path="url(#p70240b7afb)" d="M 170.430723 184.897786 
L 169.659275 156.40247 
L 177.70982 149.731029 
L 178.361455 178.049733 
z
" style="fill:#88138c;"/>
    <path clip-path="url(#p70240b7afb)" d="M 198.736391 175.194243 
L 206.297214 168.527892 
L 205.549131 85.282844 
L 197.664364 91.410285 
z
" style="fill:#666210;"/>
    <path clip-path="url(#p70240b7afb)" d="M 270.961723 188.120663 
L 277.971253 181.211726 
L 291.24765 185.184478 
L 284.327244 192.170297 
z
" style="fill:#0d034a;"/>
    <path clip-path="url(#p70240b7afb)" d="M 149.590481 185.908649 
L 162.286594 189.948261 
L 170.378796 182.979748 
L 157.759047 179.016871 
z
" style="fill:#11056a;"/>
    <path clip-path="url(#p70240b7afb)" d="M 198.736391 175.194243 
L 197.627877 88.558636 
L 205.52368 82.450684 
L 206.297214 168.527892 
z
" style="fill:#d4dc1e;"/>
    <path clip-path="url(#p70240b7afb)" d="M 271.009768 186.072052 
L 284.389408 190.11445 
L 291.316321 183.141144 
L 278.025995 179.175569 
z
" style="fill:#13056b;"/>
    <path clip-path="url(#p70240b7afb)" d="M 183.178635 188.911464 
L 191.031582 181.987547 
L 203.841786 185.968896 
L 196.068846 192.969946 
z
" style="fill:#814728;"/>
    <path clip-path="url(#p70240b7afb)" d="M 231.739835 176.23678 
L 239.002775 169.551023 
L 239.605882 87.026678 
L 232.047232 93.17822 
z
" style="fill:#666010;"/>
    <path clip-path="url(#p70240b7afb)" d="M 213.307267 84.080989 
L 226.368482 87.555139 
L 233.852934 81.56209 
L 220.874959 78.153981 
z
" style="fill:#c1a21c;"/>
    <path clip-path="url(#p70240b7afb)" d="M 231.739835 176.23678 
L 232.051075 92.139906 
L 239.613418 85.995448 
L 239.002775 169.551023 
z
" style="fill:#d8d122;"/>
    <path clip-path="url(#p70240b7afb)" d="M 186.143392 171.330164 
L 198.736391 175.194243 
L 197.664364 91.410285 
L 184.553084 87.857995 
z
" style="fill:#d8d022;"/>
    <path clip-path="url(#p70240b7afb)" d="M 170.430723 184.897786 
L 170.249299 178.196465 
L 183.039342 182.186406 
L 183.178635 188.911464 
z
" style="fill:#16023f;"/>
    <path clip-path="url(#p70240b7afb)" d="M 251.851153 173.395697 
L 252.851138 100.60459 
L 266.320285 104.221243 
L 264.839875 177.282368 
z
" style="fill:#6a4d13;"/>
    <path clip-path="url(#p70240b7afb)" d="M 216.794403 189.994506 
L 224.338378 183.050047 
L 237.351973 187.043183 
L 229.891821 194.06512 
z
" style="fill:#876716;"/>
    <path clip-path="url(#p70240b7afb)" d="M 162.346885 191.878042 
L 170.430723 184.897786 
L 170.378796 182.979748 
L 162.286594 189.948261 
z
" style="fill:#09033a;"/>
    <path clip-path="url(#p70240b7afb)" d="M 284.327244 192.170297 
L 291.24765 185.184478 
L 291.316321 183.141144 
L 284.389408 190.11445 
z
" style="fill:#0a033a;"/>
    <path clip-path="url(#p70240b7afb)" d="M 218.949524 172.361429 
L 231.739835 176.23678 
L 232.047232 93.17822 
L 218.726979 89.611941 
z
" style="fill:#d9cd22;"/>
    <path clip-path="url(#p70240b7afb)" d="M 218.949524 172.361429 
L 218.725844 89.190073 
L 232.048799 92.754681 
L 231.739835 176.23678 
z
" style="fill:#666110;"/>
    <path clip-path="url(#p70240b7afb)" d="M 270.961723 188.120663 
L 277.971253 181.211726 
L 278.686792 154.596945 
L 271.589799 161.33993 
z
" style="fill:#3e0743;"/>
    <path clip-path="url(#p70240b7afb)" d="M 162.346885 191.878042 
L 162.136235 185.135535 
L 170.249299 178.196465 
L 170.430723 184.897786 
z
" style="fill:#2f0486;"/>
    <path clip-path="url(#p70240b7afb)" d="M 250.510457 191.080779 
L 257.743589 184.115686 
L 270.961723 188.120663 
L 263.816264 195.163579 
z
" style="fill:#712c3b;"/>
    <path clip-path="url(#p70240b7afb)" d="M 191.031582 181.987547 
L 198.736391 175.194243 
L 197.943897 113.257064 
L 189.990466 119.654522 
z
" style="fill:#663a1e;"/>
    <path clip-path="url(#p70240b7afb)" d="M 244.670417 180.154631 
L 245.416686 106.894885 
L 252.851138 100.60459 
L 251.851153 173.395697 
z
" style="fill:#e0a327;"/>
    <path clip-path="url(#p70240b7afb)" d="M 149.662704 187.831639 
L 149.6185 186.65468 
L 162.309984 190.696929 
L 162.346885 191.878042 
z
" style="fill:#070339;"/>
    <path clip-path="url(#p70240b7afb)" d="M 149.662704 187.831639 
L 162.346885 191.878042 
L 162.286594 189.948261 
L 149.590481 185.908649 
z
" style="fill:#13067a;"/>
    <path clip-path="url(#p70240b7afb)" d="M 162.346885 191.878042 
L 170.430723 184.897786 
L 183.178635 188.911464 
L 175.173234 195.969799 
z
" style="fill:#1c0251;"/>
    <path clip-path="url(#p70240b7afb)" d="M 252.568115 121.206473 
L 265.901229 124.902492 
L 273.035033 118.526813 
L 259.790019 114.901327 
z
" style="fill:#ae4f49;"/>
    <path clip-path="url(#p70240b7afb)" d="M 270.961723 188.120663 
L 284.327244 192.170297 
L 284.389408 190.11445 
L 271.009768 186.072052 
z
" style="fill:#16067b;"/>
    <path clip-path="url(#p70240b7afb)" d="M 211.467294 179.100638 
L 210.927763 95.38994 
L 218.725844 89.190073 
L 218.949524 172.361429 
z
" style="fill:#d9ce22;"/>
    <path clip-path="url(#p70240b7afb)" d="M 183.178635 188.911464 
L 191.031582 181.987547 
L 190.55689 153.567065 
L 182.5863 160.313475 
z
" style="fill:#400942;"/>
    <path clip-path="url(#p70240b7afb)" d="M 257.743589 184.115686 
L 270.961723 188.120663 
L 271.589799 161.33993 
L 258.191085 157.430942 
z
" style="fill:#820e8f;"/>
    <path clip-path="url(#p70240b7afb)" d="M 270.961723 188.120663 
L 271.070449 183.484669 
L 284.46792 187.517893 
L 284.327244 192.170297 
z
" style="fill:#11023d;"/>
    <path clip-path="url(#p70240b7afb)" d="M 211.467294 179.100638 
L 218.949524 172.361429 
L 218.717164 85.962506 
L 210.906818 92.140114 
z
" style="fill:#64680e;"/>
    <path clip-path="url(#p70240b7afb)" d="M 178.361455 178.049733 
L 191.031582 181.987547 
L 189.990466 119.654522 
L 176.932393 115.945705 
z
" style="fill:#d87a3f;"/>
    <path clip-path="url(#p70240b7afb)" d="M 196.068846 192.969946 
L 203.841786 185.968896 
L 216.794403 189.994506 
L 209.103753 197.073984 
z
" style="fill:#814728;"/>
    <path clip-path="url(#p70240b7afb)" d="M 141.344465 194.868925 
L 141.29486 193.684757 
L 149.6185 186.65468 
L 149.662704 187.831639 
z
" style="fill:#0e0678;"/>
    <path clip-path="url(#p70240b7afb)" d="M 226.368732 87.29777 
L 239.578233 90.809917 
L 246.977997 84.751462 
L 233.854095 81.306455 
z
" style="fill:#c0a31c;"/>
    <path clip-path="url(#p70240b7afb)" d="M 244.670417 180.154631 
L 251.851153 173.395697 
L 253.003302 89.528256 
L 245.530288 95.742804 
z
" style="fill:#666310;"/>
    <path clip-path="url(#p70240b7afb)" d="M 198.736391 175.194243 
L 197.671902 91.999424 
L 210.929082 95.594593 
L 211.467294 179.100638 
z
" style="fill:#666110;"/>
    <path clip-path="url(#p70240b7afb)" d="M 170.430723 184.897786 
L 183.178635 188.911464 
L 182.5863 160.313475 
L 169.659275 156.40247 
z
" style="fill:#88138c;"/>
    <path clip-path="url(#p70240b7afb)" d="M 258.191085 157.430942 
L 271.589799 161.33993 
L 278.686792 154.596945 
L 265.377232 150.76274 
z
" style="fill:#710d7c;"/>
    <path clip-path="url(#p70240b7afb)" d="M 263.816264 195.163579 
L 263.909221 190.499112 
L 271.070449 183.484669 
L 270.961723 188.120663 
z
" style="fill:#250582;"/>
    <path clip-path="url(#p70240b7afb)" d="M 229.891821 194.06512 
L 237.351973 187.043183 
L 250.510457 191.080779 
L 243.136481 198.181496 
z
" style="fill:#876218;"/>
    <path clip-path="url(#p70240b7afb)" d="M 198.736391 175.194243 
L 211.467294 179.100638 
L 210.906818 92.140114 
L 197.627877 88.558636 
z
" style="fill:#d4dc1e;"/>
    <path clip-path="url(#p70240b7afb)" d="M 162.136235 185.135535 
L 175.005229 189.203358 
L 183.039342 182.186406 
L 170.249299 178.196465 
z
" style="fill:#290375;"/>
    <path clip-path="url(#p70240b7afb)" d="M 192.485153 79.460955 
L 205.528035 82.935395 
L 213.269624 76.942029 
L 200.309 73.534127 
z
" style="fill:#b8bd1c;"/>
    <path clip-path="url(#p70240b7afb)" d="M 231.739835 176.23678 
L 244.670417 180.154631 
L 245.530288 95.742804 
L 232.051075 92.139906 
z
" style="fill:#d8d122;"/>
    <path clip-path="url(#p70240b7afb)" d="M 231.739835 176.23678 
L 232.052163 91.845843 
L 245.533295 95.447572 
L 244.670417 180.154631 
z
" style="fill:#656310;"/>
    <path clip-path="url(#p70240b7afb)" d="M 141.344465 194.868925 
L 149.662704 187.831639 
L 162.346885 191.878042 
L 154.105465 198.994368 
z
" style="fill:#090449;"/>
    <path clip-path="url(#p70240b7afb)" d="M 191.031582 181.987547 
L 189.633 98.252551 
L 197.671902 91.999424 
L 198.736391 175.194243 
z
" style="fill:#d9ce22;"/>
    <path clip-path="url(#p70240b7afb)" d="M 175.173234 195.969799 
L 183.178635 188.911464 
L 183.039342 182.186406 
L 175.005229 189.203358 
z
" style="fill:#16023f;"/>
    <path clip-path="url(#p70240b7afb)" d="M 263.816264 195.163579 
L 270.961723 188.120663 
L 284.327244 192.170297 
L 277.271882 199.292348 
z
" style="fill:#16034f;"/>
    <path clip-path="url(#p70240b7afb)" d="M 169.659275 156.40247 
L 182.5863 160.313475 
L 190.55689 153.567065 
L 177.70982 149.731029 
z
" style="fill:#76117a;"/>
    <path clip-path="url(#p70240b7afb)" d="M 141.29486 193.684757 
L 154.063251 197.806012 
L 162.309984 190.696929 
L 149.6185 186.65468 
z
" style="fill:#0c0668;"/>
    <path clip-path="url(#p70240b7afb)" d="M 257.743589 184.115686 
L 264.839875 177.282368 
L 266.320285 104.221243 
L 258.976707 110.583315 
z
" style="fill:#6a4d13;"/>
    <path clip-path="url(#p70240b7afb)" d="M 162.346885 191.878042 
L 162.267168 189.326453 
L 175.109656 193.409182 
L 175.173234 195.969799 
z
" style="fill:#0b033b;"/>
    <path clip-path="url(#p70240b7afb)" d="M 211.467294 179.100638 
L 210.990904 105.186446 
L 224.338378 108.860779 
L 224.338378 183.050047 
z
" style="fill:#6a4e12;"/>
    <path clip-path="url(#p70240b7afb)" d="M 175.173234 195.969799 
L 183.178635 188.911464 
L 196.068846 192.969946 
L 188.144156 200.107676 
z
" style="fill:#540d54;"/>
    <path clip-path="url(#p70240b7afb)" d="M 257.743589 184.115686 
L 258.524202 137.566744 
L 272.0574 141.401695 
L 270.961723 188.120663 
z
" style="fill:#59222e;"/>
    <path clip-path="url(#p70240b7afb)" d="M 224.338378 183.050047 
L 231.739835 176.23678 
L 232.048799 92.754681 
L 224.338378 99.025545 
z
" style="fill:#666110;"/>
    <path clip-path="url(#p70240b7afb)" d="M 224.338378 183.050047 
L 224.338378 98.110434 
L 232.052163 91.845843 
L 231.739835 176.23678 
z
" style="fill:#d7d322;"/>
    <path clip-path="url(#p70240b7afb)" d="M 191.031582 181.987547 
L 190.012329 120.96348 
L 203.210976 124.719647 
L 203.841786 185.968896 
z
" style="fill:#65381f;"/>
    <path clip-path="url(#p70240b7afb)" d="M 162.346885 191.878042 
L 175.173234 195.969799 
L 175.005229 189.203358 
L 162.136235 185.135535 
z
" style="fill:#2f0486;"/>
    <path clip-path="url(#p70240b7afb)" d="M 239.565029 92.61656 
L 252.911985 96.175465 
L 260.217681 90.036471 
L 246.958572 86.545918 
z
" style="fill:#c19d1d;"/>
    <path clip-path="url(#p70240b7afb)" d="M 244.670417 180.154631 
L 257.743589 184.115686 
L 258.976707 110.583315 
L 245.416686 106.894885 
z
" style="fill:#e0a327;"/>
    <path clip-path="url(#p70240b7afb)" d="M 263.909221 190.499112 
L 277.397226 194.611337 
L 284.46792 187.517893 
L 271.070449 183.484669 
z
" style="fill:#200471;"/>
    <path clip-path="url(#p70240b7afb)" d="M 244.670417 180.154631 
L 245.424115 106.165544 
L 258.988986 109.85111 
L 257.743589 184.115686 
z
" style="fill:#6a4e12;"/>
    <path clip-path="url(#p70240b7afb)" d="M 209.103753 197.073984 
L 216.794403 189.994506 
L 229.891821 194.06512 
L 222.285805 201.224351 
z
" style="fill:#80432b;"/>
    <path clip-path="url(#p70240b7afb)" d="M 154.105465 198.994368 
L 162.346885 191.878042 
L 162.309984 190.696929 
L 154.063251 197.806012 
z
" style="fill:#070339;"/>
    <path clip-path="url(#p70240b7afb)" d="M 205.564298 86.970603 
L 218.729368 90.500319 
L 226.371538 84.411694 
L 213.290756 80.949822 
z
" style="fill:#beae1d;"/>
    <path clip-path="url(#p70240b7afb)" d="M 154.105465 198.994368 
L 154.014269 196.427116 
L 162.267168 189.326453 
L 162.346885 191.878042 
z
" style="fill:#18057c;"/>
    <path clip-path="url(#p70240b7afb)" d="M 203.841786 185.968896 
L 203.075622 111.577294 
L 210.990904 105.186446 
L 211.467294 179.100638 
z
" style="fill:#e0a626;"/>
    <path clip-path="url(#p70240b7afb)" d="M 250.510457 191.080779 
L 251.128082 144.236783 
L 258.524202 137.566744 
L 257.743589 184.115686 
z
" style="fill:#bc4962;"/>
    <path clip-path="url(#p70240b7afb)" d="M 211.467294 179.100638 
L 224.338378 183.050047 
L 224.338378 99.025545 
L 210.927763 95.38994 
z
" style="fill:#d9ce22;"/>
    <path clip-path="url(#p70240b7afb)" d="M 183.178635 188.911464 
L 182.572759 159.65969 
L 195.650359 163.612572 
L 196.068846 192.969946 
z
" style="fill:#410a42;"/>
    <path clip-path="url(#p70240b7afb)" d="M 183.178635 188.911464 
L 181.906582 127.496603 
L 190.012329 120.96348 
L 191.031582 181.987547 
z
" style="fill:#d67642;"/>
    <path clip-path="url(#p70240b7afb)" d="M 277.271882 199.292348 
L 284.327244 192.170297 
L 284.46792 187.517893 
L 277.397226 194.611337 
z
" style="fill:#11023d;"/>
    <path clip-path="url(#p70240b7afb)" d="M 243.136481 198.181496 
L 250.510457 191.080779 
L 263.816264 195.163579 
L 256.530882 202.34441 
z
" style="fill:#7d3e2e;"/>
    <path clip-path="url(#p70240b7afb)" d="M 237.351973 187.043183 
L 237.839179 112.575971 
L 245.424115 106.165544 
L 244.670417 180.154631 
z
" style="fill:#e0a626;"/>
    <path clip-path="url(#p70240b7afb)" d="M 141.344465 194.868925 
L 154.105465 198.994368 
L 154.063251 197.806012 
L 141.29486 193.684757 
z
" style="fill:#0e0678;"/>
    <path clip-path="url(#p70240b7afb)" d="M 154.105465 198.994368 
L 162.346885 191.878042 
L 175.173234 195.969799 
L 167.010898 203.166503 
z
" style="fill:#0e034b;"/>
    <path clip-path="url(#p70240b7afb)" d="M 203.841786 185.968896 
L 211.467294 179.100638 
L 210.929082 95.594593 
L 202.976157 101.919621 
z
" style="fill:#666110;"/>
    <path clip-path="url(#p70240b7afb)" d="M 175.173234 195.969799 
L 174.442388 166.534788 
L 182.572759 159.65969 
L 183.178635 188.911464 
z
" style="fill:#8b158b;"/>
    <path clip-path="url(#p70240b7afb)" d="M 263.816264 195.163579 
L 277.271882 199.292348 
L 277.397226 194.611337 
L 263.909221 190.499112 
z
" style="fill:#250582;"/>
    <path clip-path="url(#p70240b7afb)" d="M 154.014269 196.427116 
L 166.936037 200.590153 
L 175.109656 193.409182 
L 162.267168 189.326453 
z
" style="fill:#15056c;"/>
    <path clip-path="url(#p70240b7afb)" d="M 188.144156 200.107676 
L 196.068846 192.969946 
L 209.103753 197.073984 
L 201.262108 204.292457 
z
" style="fill:#641c48;"/>
    <path clip-path="url(#p70240b7afb)" d="M 224.338378 183.050047 
L 224.338378 107.503472 
L 237.848085 111.214665 
L 237.351973 187.043183 
z
" style="fill:#6a5111;"/>
    <path clip-path="url(#p70240b7afb)" d="M 176.932393 115.945705 
L 189.990466 119.654522 
L 197.943897 113.257064 
L 184.967689 109.619826 
z
" style="fill:#bc6a36;"/>
    <path clip-path="url(#p70240b7afb)" d="M 237.351973 187.043183 
L 244.670417 180.154631 
L 245.533295 95.447572 
L 237.909784 101.784347 
z
" style="fill:#656310;"/>
    <path clip-path="url(#p70240b7afb)" d="M 203.841786 185.968896 
L 203.212457 124.863405 
L 216.561445 128.663179 
L 216.794403 189.994506 
z
" style="fill:#65381f;"/>
    <path clip-path="url(#p70240b7afb)" d="M 191.031582 181.987547 
L 203.841786 185.968896 
L 202.976157 101.919621 
L 189.633 98.252551 
z
" style="fill:#d9ce22;"/>
    <path clip-path="url(#p70240b7afb)" d="M 184.553084 87.857995 
L 197.664364 91.410285 
L 205.549131 85.282844 
L 192.520676 81.799164 
z
" style="fill:#bcb41e;"/>
    <path clip-path="url(#p70240b7afb)" d="M 175.173234 195.969799 
L 174.983764 188.338823 
L 188.003883 192.449563 
L 188.144156 200.107676 
z
" style="fill:#180240;"/>
    <path clip-path="url(#p70240b7afb)" d="M 222.285805 201.224351 
L 229.891821 194.06512 
L 243.136481 198.181496 
L 235.617509 205.421836 
z
" style="fill:#7f422b;"/>
    <path clip-path="url(#p70240b7afb)" d="M 263.816264 195.163579 
L 264.114723 180.187312 
L 277.674337 184.262522 
L 277.271882 199.292348 
z
" style="fill:#270045;"/>
    <path clip-path="url(#p70240b7afb)" d="M 167.010898 203.166503 
L 175.173234 195.969799 
L 175.109656 193.409182 
L 166.936037 200.590153 
z
" style="fill:#0b033b;"/>
    <path clip-path="url(#p70240b7afb)" d="M 216.794403 189.994506 
L 224.338378 183.050047 
L 224.338378 108.860779 
L 216.510782 115.325192 
z
" style="fill:#6a4e12;"/>
    <path clip-path="url(#p70240b7afb)" d="M 218.726979 89.611941 
L 232.047232 93.17822 
L 239.605882 87.026678 
L 226.372395 83.529355 
z
" style="fill:#bcb21d;"/>
    <path clip-path="url(#p70240b7afb)" d="M 263.816264 195.163579 
L 270.961723 188.120663 
L 272.0574 141.401695 
L 264.753227 148.148026 
z
" style="fill:#59222e;"/>
    <path clip-path="url(#p70240b7afb)" d="M 216.794403 189.994506 
L 216.505592 113.958604 
L 224.338378 107.503472 
L 224.338378 183.050047 
z
" style="fill:#e0ab24;"/>
    <path clip-path="url(#p70240b7afb)" d="M 224.338378 183.050047 
L 237.351973 187.043183 
L 237.909784 101.784347 
L 224.338378 98.110434 
z
" style="fill:#d7d322;"/>
    <path clip-path="url(#p70240b7afb)" d="M 196.068846 192.969946 
L 195.192204 131.47253 
L 203.212457 124.863405 
L 203.841786 185.968896 
z
" style="fill:#d67642;"/>
    <path clip-path="url(#p70240b7afb)" d="M 196.068846 192.969946 
L 203.841786 185.968896 
L 203.210976 124.719647 
L 195.190141 131.327806 
z
" style="fill:#65381f;"/>
    <path clip-path="url(#p70240b7afb)" d="M 256.530882 202.34441 
L 263.816264 195.163579 
L 277.271882 199.292348 
L 270.077576 206.554656 
z
" style="fill:#320058;"/>
    <path clip-path="url(#p70240b7afb)" d="M 167.010898 203.166503 
L 166.787798 195.488445 
L 174.983764 188.338823 
L 175.173234 195.969799 
z
" style="fill:#330488;"/>
    <path clip-path="url(#p70240b7afb)" d="M 250.510457 191.080779 
L 257.743589 184.115686 
L 258.988986 109.85111 
L 251.495954 116.335442 
z
" style="fill:#6a4e12;"/>
    <path clip-path="url(#p70240b7afb)" d="M 256.530882 202.34441 
L 256.776663 187.275215 
L 264.114723 180.187312 
L 263.816264 195.163579 
z
" style="fill:#530193;"/>
    <path clip-path="url(#p70240b7afb)" d="M 154.105465 198.994368 
L 167.010898 203.166503 
L 166.936037 200.590153 
L 154.014269 196.427116 
z
" style="fill:#18057c;"/>
    <path clip-path="url(#p70240b7afb)" d="M 203.841786 185.968896 
L 216.794403 189.994506 
L 216.510782 115.325192 
L 203.075622 111.577294 
z
" style="fill:#e0a626;"/>
    <path clip-path="url(#p70240b7afb)" d="M 167.010898 203.166503 
L 175.173234 195.969799 
L 188.144156 200.107676 
L 180.063228 207.386128 
z
" style="fill:#1f0252;"/>
    <path clip-path="url(#p70240b7afb)" d="M 250.510457 191.080779 
L 263.816264 195.163579 
L 264.753227 148.148026 
L 251.128082 144.236783 
z
" style="fill:#bc4962;"/>
    <path clip-path="url(#p70240b7afb)" d="M 188.144156 200.107676 
L 196.068846 192.969946 
L 195.650359 163.612572 
L 187.603047 170.566158 
z
" style="fill:#410a42;"/>
    <path clip-path="url(#p70240b7afb)" d="M 196.068846 192.969946 
L 195.526481 154.922408 
L 208.809797 158.887969 
L 209.103753 197.073984 
z
" style="fill:#4e1638;"/>
    <path clip-path="url(#p70240b7afb)" d="M 183.178635 188.911464 
L 196.068846 192.969946 
L 195.190141 131.327806 
L 181.906582 127.496603 
z
" style="fill:#d67642;"/>
    <path clip-path="url(#p70240b7afb)" d="M 237.351973 187.043183 
L 237.834516 113.288753 
L 251.486519 117.051033 
L 250.510457 191.080779 
z
" style="fill:#6a4d13;"/>
    <path clip-path="url(#p70240b7afb)" d="M 237.351973 187.043183 
L 250.510457 191.080779 
L 251.495954 116.335442 
L 237.839179 112.575971 
z
" style="fill:#e0a626;"/>
    <path clip-path="url(#p70240b7afb)" d="M 201.262108 204.292457 
L 209.103753 197.073984 
L 222.285805 201.224351 
L 214.529606 208.524945 
z
" style="fill:#621b49;"/>
    <path clip-path="url(#p70240b7afb)" d="M 216.794403 189.994506 
L 216.569081 130.673463 
L 230.058645 134.524813 
L 229.891821 194.06512 
z
" style="fill:#643421;"/>
    <path clip-path="url(#p70240b7afb)" d="M 175.173234 195.969799 
L 188.144156 200.107676 
L 187.603047 170.566158 
L 174.442388 166.534788 
z
" style="fill:#8b158b;"/>
    <path clip-path="url(#p70240b7afb)" d="M 188.144156 200.107676 
L 187.442842 161.819847 
L 195.526481 154.922408 
L 196.068846 192.969946 
z
" style="fill:#a62f77;"/>
    <path clip-path="url(#p70240b7afb)" d="M 250.510457 191.080779 
L 251.260626 134.183926 
L 264.954335 138.056733 
L 263.816264 195.163579 
z
" style="fill:#623124;"/>
    <path clip-path="url(#p70240b7afb)" d="M 235.617509 205.421836 
L 243.136481 198.181496 
L 256.530882 202.34441 
L 249.101427 209.667246 
z
" style="fill:#732e3a;"/>
    <path clip-path="url(#p70240b7afb)" d="M 229.891821 194.06512 
L 230.09981 119.832877 
L 237.834516 113.288753 
L 237.351973 187.043183 
z
" style="fill:#e0a327;"/>
    <path clip-path="url(#p70240b7afb)" d="M 229.891821 194.06512 
L 237.351973 187.043183 
L 237.848085 111.214665 
L 230.105661 117.744582 
z
" style="fill:#6a5111;"/>
    <path clip-path="url(#p70240b7afb)" d="M 209.103753 197.073984 
L 208.64417 137.372432 
L 216.569081 130.673463 
L 216.794403 189.994506 
z
" style="fill:#d36f46;"/>
    <path clip-path="url(#p70240b7afb)" d="M 166.787798 195.488445 
L 179.889939 199.680716 
L 188.003883 192.449563 
L 174.983764 188.338823 
z
" style="fill:#2d0376;"/>
    <path clip-path="url(#p70240b7afb)" d="M 197.627877 88.558636 
L 210.906818 92.140114 
L 218.717164 85.962506 
L 205.52368 82.450684 
z
" style="fill:#b8bf1a;"/>
    <path clip-path="url(#p70240b7afb)" d="M 232.051075 92.139906 
L 245.530288 95.742804 
L 253.003302 89.528256 
L 239.613418 85.995448 
z
" style="fill:#bbb51e;"/>
    <path clip-path="url(#p70240b7afb)" d="M 209.103753 197.073984 
L 216.794403 189.994506 
L 216.561445 128.663179 
L 208.628591 135.348645 
z
" style="fill:#65381f;"/>
    <path clip-path="url(#p70240b7afb)" d="M 245.416686 106.894885 
L 258.976707 110.583315 
L 266.320285 104.221243 
L 252.851138 100.60459 
z
" style="fill:#c28d22;"/>
    <path clip-path="url(#p70240b7afb)" d="M 243.136481 198.181496 
L 243.680689 140.920227 
L 251.260626 134.183926 
L 250.510457 191.080779 
z
" style="fill:#cf674c;"/>
    <path clip-path="url(#p70240b7afb)" d="M 180.063228 207.386128 
L 188.144156 200.107676 
L 188.003883 192.449563 
L 179.889939 199.680716 
z
" style="fill:#180240;"/>
    <path clip-path="url(#p70240b7afb)" d="M 188.144156 200.107676 
L 187.851677 184.139988 
L 201.074568 188.267544 
L 201.262108 204.292457 
z
" style="fill:#290046;"/>
    <path clip-path="url(#p70240b7afb)" d="M 174.442388 166.534788 
L 187.603047 170.566158 
L 195.650359 163.612572 
L 182.572759 159.65969 
z
" style="fill:#781279;"/>
    <path clip-path="url(#p70240b7afb)" d="M 270.077576 206.554656 
L 277.271882 199.292348 
L 277.674337 184.262522 
L 270.428783 191.431463 
z
" style="fill:#270045;"/>
    <path clip-path="url(#p70240b7afb)" d="M 180.063228 207.386128 
L 188.144156 200.107676 
L 201.262108 204.292457 
L 193.264978 211.654059 
z
" style="fill:#350059;"/>
    <path clip-path="url(#p70240b7afb)" d="M 216.794403 189.994506 
L 229.891821 194.06512 
L 230.105661 117.744582 
L 216.505592 113.958604 
z
" style="fill:#e0ab24;"/>
    <path clip-path="url(#p70240b7afb)" d="M 209.103753 197.073984 
L 208.816945 159.816562 
L 222.246941 163.83124 
L 222.285805 201.224351 
z
" style="fill:#4d1539;"/>
    <path clip-path="url(#p70240b7afb)" d="M 196.068846 192.969946 
L 209.103753 197.073984 
L 208.628591 135.348645 
L 195.192204 131.47253 
z
" style="fill:#d67642;"/>
    <path clip-path="url(#p70240b7afb)" d="M 256.776663 187.275215 
L 270.428783 191.431463 
L 277.674337 184.262522 
L 264.114723 180.187312 
z
" style="fill:#48017f;"/>
    <path clip-path="url(#p70240b7afb)" d="M 167.010898 203.166503 
L 180.063228 207.386128 
L 179.889939 199.680716 
L 166.787798 195.488445 
z
" style="fill:#330488;"/>
    <path clip-path="url(#p70240b7afb)" d="M 180.063228 207.386128 
L 179.701893 191.319153 
L 187.851677 184.139988 
L 188.144156 200.107676 
z
" style="fill:#570093;"/>
    <path clip-path="url(#p70240b7afb)" d="M 251.128082 144.236783 
L 264.753227 148.148026 
L 272.0574 141.401695 
L 258.524202 137.566744 
z
" style="fill:#a33f55;"/>
    <path clip-path="url(#p70240b7afb)" d="M 214.529606 208.524945 
L 222.285805 201.224351 
L 235.617509 205.421836 
L 227.94922 212.80596 
z
" style="fill:#631b49;"/>
    <path clip-path="url(#p70240b7afb)" d="M 229.891821 194.06512 
L 230.056245 135.381568 
L 243.696269 139.280838 
L 243.136481 198.181496 
z
" style="fill:#633322;"/>
    <path clip-path="url(#p70240b7afb)" d="M 256.530882 202.34441 
L 270.077576 206.554656 
L 270.428783 191.431463 
L 256.776663 187.275215 
z
" style="fill:#530193;"/>
    <path clip-path="url(#p70240b7afb)" d="M 210.927763 95.38994 
L 224.338378 99.025545 
L 232.048799 92.754681 
L 218.725844 89.190073 
z
" style="fill:#bcb31d;"/>
    <path clip-path="url(#p70240b7afb)" d="M 201.262108 204.292457 
L 200.823328 166.799588 
L 208.816945 159.816562 
L 209.103753 197.073984 
z
" style="fill:#a32c79;"/>
    <path clip-path="url(#p70240b7afb)" d="M 201.262108 204.292457 
L 209.103753 197.073984 
L 208.809797 158.887969 
L 200.812389 165.86495 
z
" style="fill:#4e1638;"/>
    <path clip-path="url(#p70240b7afb)" d="M 256.530882 202.34441 
L 256.840213 183.378899 
L 270.519597 187.520973 
L 270.077576 206.554656 
z
" style="fill:#2e0046;"/>
    <path clip-path="url(#p70240b7afb)" d="M 249.101427 209.667246 
L 256.530882 202.34441 
L 270.077576 206.554656 
L 262.740181 213.961405 
z
" style="fill:#3b005a;"/>
    <path clip-path="url(#p70240b7afb)" d="M 243.136481 198.181496 
L 250.510457 191.080779 
L 251.486519 117.051033 
L 243.844621 123.671338 
z
" style="fill:#6a4d13;"/>
    <path clip-path="url(#p70240b7afb)" d="M 222.285805 201.224351 
L 222.224422 142.164043 
L 230.056245 135.381568 
L 229.891821 194.06512 
z
" style="fill:#d26d48;"/>
    <path clip-path="url(#p70240b7afb)" d="M 222.285805 201.224351 
L 229.891821 194.06512 
L 230.058645 134.524813 
L 222.223525 141.301535 
z
" style="fill:#643421;"/>
    <path clip-path="url(#p70240b7afb)" d="M 243.136481 198.181496 
L 243.595084 149.927515 
L 257.320806 153.913112 
L 256.530882 202.34441 
z
" style="fill:#5a242d;"/>
    <path clip-path="url(#p70240b7afb)" d="M 201.262108 204.292457 
L 201.080496 188.774113 
L 214.451967 192.950948 
L 214.529606 208.524945 
z
" style="fill:#280045;"/>
    <path clip-path="url(#p70240b7afb)" d="M 188.144156 200.107676 
L 201.262108 204.292457 
L 200.812389 165.86495 
L 187.442842 161.819847 
z
" style="fill:#a62f77;"/>
    <path clip-path="url(#p70240b7afb)" d="M 256.530882 202.34441 
L 263.816264 195.163579 
L 264.954335 138.056733 
L 257.46828 144.871245 
z
" style="fill:#623124;"/>
    <path clip-path="url(#p70240b7afb)" d="M 249.101427 209.667246 
L 249.341745 190.583454 
L 256.840213 183.378899 
L 256.530882 202.34441 
z
" style="fill:#620095;"/>
    <path clip-path="url(#p70240b7afb)" d="M 181.906582 127.496603 
L 195.190141 131.327806 
L 203.210976 124.719647 
L 190.012329 120.96348 
z
" style="fill:#ba6639;"/>
    <path clip-path="url(#p70240b7afb)" d="M 229.891821 194.06512 
L 243.136481 198.181496 
L 243.844621 123.671338 
L 230.09981 119.832877 
z
" style="fill:#e0a327;"/>
    <path clip-path="url(#p70240b7afb)" d="M 193.264978 211.654059 
L 201.262108 204.292457 
L 214.529606 208.524945 
L 206.61873 215.971129 
z
" style="fill:#330059;"/>
    <path clip-path="url(#p70240b7afb)" d="M 209.103753 197.073984 
L 222.285805 201.224351 
L 222.223525 141.301535 
L 208.64417 137.372432 
z
" style="fill:#d36f46;"/>
    <path clip-path="url(#p70240b7afb)" d="M 222.285805 201.224351 
L 222.246533 163.437992 
L 235.834566 167.497639 
L 235.617509 205.421836 
z
" style="fill:#4d1539;"/>
    <path clip-path="url(#p70240b7afb)" d="M 189.633 98.252551 
L 202.976157 101.919621 
L 210.929082 95.594593 
L 197.671902 91.999424 
z
" style="fill:#bcb31d;"/>
    <path clip-path="url(#p70240b7afb)" d="M 235.617509 205.421836 
L 235.895449 156.860164 
L 243.595084 149.927515 
L 243.136481 198.181496 
z
" style="fill:#be4c60;"/>
    <path clip-path="url(#p70240b7afb)" d="M 193.264978 211.654059 
L 193.017985 196.039157 
L 201.080496 188.774113 
L 201.262108 204.292457 
z
" style="fill:#540193;"/>
    <path clip-path="url(#p70240b7afb)" d="M 243.136481 198.181496 
L 256.530882 202.34441 
L 257.46828 144.871245 
L 243.680689 140.920227 
z
" style="fill:#cf674c;"/>
    <path clip-path="url(#p70240b7afb)" d="M 193.264978 211.654059 
L 201.262108 204.292457 
L 201.074568 188.267544 
L 193.009921 195.529395 
z
" style="fill:#290046;"/>
    <path clip-path="url(#p70240b7afb)" d="M 227.94922 212.80596 
L 235.617509 205.421836 
L 249.101427 209.667246 
L 241.523583 217.136342 
z
" style="fill:#621a4a;"/>
    <path clip-path="url(#p70240b7afb)" d="M 203.075622 111.577294 
L 216.510782 115.325192 
L 224.338378 108.860779 
L 210.990904 105.186446 
z
" style="fill:#c29021;"/>
    <path clip-path="url(#p70240b7afb)" d="M 179.701893 191.319153 
L 193.009921 195.529395 
L 201.074568 188.267544 
L 187.851677 184.139988 
z
" style="fill:#4c0080;"/>
    <path clip-path="url(#p70240b7afb)" d="M 214.529606 208.524945 
L 222.285805 201.224351 
L 222.246941 163.83124 
L 214.342015 170.895225 
z
" style="fill:#4d1539;"/>
    <path clip-path="url(#p70240b7afb)" d="M 214.529606 208.524945 
L 214.340042 170.499414 
L 222.246533 163.437992 
L 222.285805 201.224351 
z
" style="fill:#a42d79;"/>
    <path clip-path="url(#p70240b7afb)" d="M 224.338378 98.110434 
L 237.909784 101.784347 
L 245.533295 95.447572 
L 232.052163 91.845843 
z
" style="fill:#bbb71e;"/>
    <path clip-path="url(#p70240b7afb)" d="M 180.063228 207.386128 
L 193.264978 211.654059 
L 193.009921 195.529395 
L 179.701893 191.319153 
z
" style="fill:#570093;"/>
    <path clip-path="url(#p70240b7afb)" d="M 237.839179 112.575971 
L 251.495954 116.335442 
L 258.988986 109.85111 
L 245.424115 106.165544 
z
" style="fill:#c29021;"/>
    <path clip-path="url(#p70240b7afb)" d="M 187.442842 161.819847 
L 200.812389 165.86495 
L 208.809797 158.887969 
L 195.526481 154.922408 
z
" style="fill:#902967;"/>
    <path clip-path="url(#p70240b7afb)" d="M 235.617509 205.421836 
L 243.136481 198.181496 
L 243.696269 139.280838 
L 235.956791 146.14246 
z
" style="fill:#633322;"/>
    <path clip-path="url(#p70240b7afb)" d="M 214.529606 208.524945 
L 214.456872 193.934945 
L 227.97615 198.163624 
L 227.94922 212.80596 
z
" style="fill:#260045;"/>
    <path clip-path="url(#p70240b7afb)" d="M 201.262108 204.292457 
L 214.529606 208.524945 
L 214.342015 170.895225 
L 200.823328 166.799588 
z
" style="fill:#a32c79;"/>
    <path clip-path="url(#p70240b7afb)" d="M 262.740181 213.961405 
L 270.077576 206.554656 
L 270.519597 187.520973 
L 263.11502 194.80889 
z
" style="fill:#2e0046;"/>
    <path clip-path="url(#p70240b7afb)" d="M 195.192204 131.47253 
L 208.628591 135.348645 
L 216.561445 128.663179 
L 203.212457 124.863405 
z
" style="fill:#ba6639;"/>
    <path clip-path="url(#p70240b7afb)" d="M 206.61873 215.971129 
L 214.529606 208.524945 
L 227.94922 212.80596 
L 220.127123 220.338193 
z
" style="fill:#300158;"/>
    <path clip-path="url(#p70240b7afb)" d="M 222.285805 201.224351 
L 235.617509 205.421836 
L 235.956791 146.14246 
L 222.224422 142.164043 
z
" style="fill:#d26d48;"/>
    <path clip-path="url(#p70240b7afb)" d="M 235.617509 205.421836 
L 235.830774 168.160266 
L 249.572368 172.269653 
L 249.101427 209.667246 
z
" style="fill:#4c143a;"/>
    <path clip-path="url(#p70240b7afb)" d="M 206.61873 215.971129 
L 206.486015 201.29033 
L 214.456872 193.934945 
L 214.529606 208.524945 
z
" style="fill:#500192;"/>
    <path clip-path="url(#p70240b7afb)" d="M 249.101427 209.667246 
L 249.323062 192.067141 
L 263.085877 196.297996 
L 262.740181 213.961405 
z
" style="fill:#2c0046;"/>
    <path clip-path="url(#p70240b7afb)" d="M 249.101427 209.667246 
L 256.530882 202.34441 
L 257.320806 153.913112 
L 249.715207 160.926704 
z
" style="fill:#5a242d;"/>
    <path clip-path="url(#p70240b7afb)" d="M 206.61873 215.971129 
L 214.529606 208.524945 
L 214.451967 192.950948 
L 206.477064 200.300131 
z
" style="fill:#280045;"/>
    <path clip-path="url(#p70240b7afb)" d="M 249.341745 190.583454 
L 263.11502 194.80889 
L 270.519597 187.520973 
L 256.840213 183.378899 
z
" style="fill:#550081;"/>
    <path clip-path="url(#p70240b7afb)" d="M 249.101427 209.667246 
L 262.740181 213.961405 
L 263.11502 194.80889 
L 249.341745 190.583454 
z
" style="fill:#620095;"/>
    <path clip-path="url(#p70240b7afb)" d="M 241.523583 217.136342 
L 249.101427 209.667246 
L 262.740181 213.961405 
L 255.255385 221.516949 
z
" style="fill:#380059;"/>
    <path clip-path="url(#p70240b7afb)" d="M 193.017985 196.039157 
L 206.477064 200.300131 
L 214.451967 192.950948 
L 201.080496 188.774113 
z
" style="fill:#49007f;"/>
    <path clip-path="url(#p70240b7afb)" d="M 227.94922 212.80596 
L 228.018184 175.308373 
L 235.830774 168.160266 
L 235.617509 205.421836 
z
" style="fill:#a22b7a;"/>
    <path clip-path="url(#p70240b7afb)" d="M 216.505592 113.958604 
L 230.105661 117.744582 
L 237.848085 111.214665 
L 224.338378 107.503472 
z
" style="fill:#c2941f;"/>
    <path clip-path="url(#p70240b7afb)" d="M 227.94922 212.80596 
L 235.617509 205.421836 
L 235.834566 167.497639 
L 228.019411 174.641421 
z
" style="fill:#4d1539;"/>
    <path clip-path="url(#p70240b7afb)" d="M 235.617509 205.421836 
L 249.101427 209.667246 
L 249.715207 160.926704 
L 235.895449 156.860164 
z
" style="fill:#be4c60;"/>
    <path clip-path="url(#p70240b7afb)" d="M 241.523583 217.136342 
L 241.678944 199.426407 
L 249.323062 192.067141 
L 249.101427 209.667246 
z
" style="fill:#5d0094;"/>
    <path clip-path="url(#p70240b7afb)" d="M 193.264978 211.654059 
L 206.61873 215.971129 
L 206.477064 200.300131 
L 193.017985 196.039157 
z
" style="fill:#540193;"/>
    <path clip-path="url(#p70240b7afb)" d="M 200.823328 166.799588 
L 214.342015 170.895225 
L 222.246941 163.83124 
L 208.816945 159.816562 
z
" style="fill:#8d2669;"/>
    <path clip-path="url(#p70240b7afb)" d="M 227.94922 212.80596 
L 227.973746 199.470472 
L 241.640988 203.753023 
L 241.523583 217.136342 
z
" style="fill:#230144;"/>
    <path clip-path="url(#p70240b7afb)" d="M 208.64417 137.372432 
L 222.223525 141.301535 
L 230.058645 134.524813 
L 216.569081 130.673463 
z
" style="fill:#b7603d;"/>
    <path clip-path="url(#p70240b7afb)" d="M 214.529606 208.524945 
L 227.94922 212.80596 
L 228.019411 174.641421 
L 214.340042 170.499414 
z
" style="fill:#a42d79;"/>
    <path clip-path="url(#p70240b7afb)" d="M 243.680689 140.920227 
L 257.46828 144.871245 
L 264.954335 138.056733 
L 251.260626 134.183926 
z
" style="fill:#b45a42;"/>
    <path clip-path="url(#p70240b7afb)" d="M 220.127123 220.338193 
L 227.94922 212.80596 
L 241.523583 217.136342 
L 233.792858 224.756123 
z
" style="fill:#2d0157;"/>
    <path clip-path="url(#p70240b7afb)" d="M 220.127123 220.338193 
L 220.098229 206.919725 
L 227.973746 199.470472 
L 227.94922 212.80596 
z
" style="fill:#4b0190;"/>
    <path clip-path="url(#p70240b7afb)" d="M 220.127123 220.338193 
L 227.94922 212.80596 
L 227.97615 198.163624 
L 220.095398 205.604648 
z
" style="fill:#260045;"/>
    <path clip-path="url(#p70240b7afb)" d="M 230.09981 119.832877 
L 243.844621 123.671338 
L 251.486519 117.051033 
L 237.834516 113.288753 
z
" style="fill:#c28d22;"/>
    <path clip-path="url(#p70240b7afb)" d="M 206.486015 201.29033 
L 220.095398 205.604648 
L 227.97615 198.163624 
L 214.456872 193.934945 
z
" style="fill:#46017f;"/>
    <path clip-path="url(#p70240b7afb)" d="M 241.523583 217.136342 
L 249.101427 209.667246 
L 249.572368 172.269653 
L 241.853735 179.501593 
z
" style="fill:#4c143a;"/>
    <path clip-path="url(#p70240b7afb)" d="M 206.61873 215.971129 
L 220.127123 220.338193 
L 220.095398 205.604648 
L 206.486015 201.29033 
z
" style="fill:#500192;"/>
    <path clip-path="url(#p70240b7afb)" d="M 241.523583 217.136342 
L 241.603127 208.068868 
L 255.399324 212.417041 
L 255.255385 221.516949 
z
" style="fill:#1a0241;"/>
    <path clip-path="url(#p70240b7afb)" d="M 255.255385 221.516949 
L 262.740181 213.961405 
L 263.085877 196.297996 
L 255.536523 203.743211 
z
" style="fill:#2c0046;"/>
    <path clip-path="url(#p70240b7afb)" d="M 214.340042 170.499414 
L 228.019411 174.641421 
L 235.834566 167.497639 
L 222.246533 163.437992 
z
" style="fill:#8e2769;"/>
    <path clip-path="url(#p70240b7afb)" d="M 222.224422 142.164043 
L 235.956791 146.14246 
L 243.696269 139.280838 
L 230.056245 135.381568 
z
" style="fill:#b65e3e;"/>
    <path clip-path="url(#p70240b7afb)" d="M 235.895449 156.860164 
L 249.715207 160.926704 
L 257.320806 153.913112 
L 243.595084 149.927515 
z
" style="fill:#a54253;"/>
    <path clip-path="url(#p70240b7afb)" d="M 227.94922 212.80596 
L 241.523583 217.136342 
L 241.853735 179.501593 
L 228.018184 175.308373 
z
" style="fill:#a22b7a;"/>
    <path clip-path="url(#p70240b7afb)" d="M 241.678944 199.426407 
L 255.536523 203.743211 
L 263.085877 196.297996 
L 249.323062 192.067141 
z
" style="fill:#500081;"/>
    <path clip-path="url(#p70240b7afb)" d="M 233.792858 224.756123 
L 233.837064 215.632383 
L 241.603127 208.068868 
L 241.523583 217.136342 
z
" style="fill:#38038a;"/>
    <path clip-path="url(#p70240b7afb)" d="M 241.523583 217.136342 
L 255.255385 221.516949 
L 255.536523 203.743211 
L 241.678944 199.426407 
z
" style="fill:#5d0094;"/>
    <path clip-path="url(#p70240b7afb)" d="M 233.792858 224.756123 
L 241.523583 217.136342 
L 255.255385 221.516949 
L 247.618703 229.225814 
z
" style="fill:#220253;"/>
    <path clip-path="url(#p70240b7afb)" d="M 233.792858 224.756123 
L 241.523583 217.136342 
L 241.640988 203.753023 
L 233.858106 211.289457 
z
" style="fill:#230144;"/>
    <path clip-path="url(#p70240b7afb)" d="M 220.098229 206.919725 
L 233.858106 211.289457 
L 241.640988 203.753023 
L 227.973746 199.470472 
z
" style="fill:#41017d;"/>
    <path clip-path="url(#p70240b7afb)" d="M 220.127123 220.338193 
L 233.792858 224.756123 
L 233.858106 211.289457 
L 220.098229 206.919725 
z
" style="fill:#4b0190;"/>
    <path clip-path="url(#p70240b7afb)" d="M 228.018184 175.308373 
L 241.853735 179.501593 
L 249.572368 172.269653 
L 235.830774 168.160266 
z
" style="fill:#8d256a;"/>
    <path clip-path="url(#p70240b7afb)" d="M 233.837064 215.632383 
L 247.728193 220.069397 
L 255.399324 212.417041 
L 241.603127 208.068868 
z
" style="fill:#300378;"/>
    <path clip-path="url(#p70240b7afb)" d="M 247.618703 229.225814 
L 255.255385 221.516949 
L 255.399324 212.417041 
L 247.728193 220.069397 
z
" style="fill:#1a0241;"/>
    <path clip-path="url(#p70240b7afb)" d="M 233.792858 224.756123 
L 247.618703 229.225814 
L 247.728193 220.069397 
L 233.837064 215.632383 
z
" style="fill:#38038a;"/>
   </g>
   <g id="text_17">
    <!-- W35__H40__A130_bars_extracted.txt -->
    <g transform="translate(110.101875 28.56)scale(0.12 -0.12)">
     <defs>
      <path d="M 3.328125 72.90625 
L 13.28125 72.90625 
L 28.609375 11.28125 
L 43.890625 72.90625 
L 54.984375 72.90625 
L 70.3125 11.28125 
L 85.59375 72.90625 
L 95.609375 72.90625 
L 77.296875 0 
L 64.890625 0 
L 49.515625 63.28125 
L 33.984375 0 
L 21.578125 0 
z
" id="DejaVuSans-87"/>
      <path d="M 40.578125 39.3125 
Q 47.65625 37.796875 51.625 33 
Q 55.609375 28.21875 55.609375 21.1875 
Q 55.609375 10.40625 48.1875 4.484375 
Q 40.765625 -1.421875 27.09375 -1.421875 
Q 22.515625 -1.421875 17.65625 -0.515625 
Q 12.796875 0.390625 7.625 2.203125 
L 7.625 11.71875 
Q 11.71875 9.328125 16.59375 8.109375 
Q 21.484375 6.890625 26.8125 6.890625 
Q 36.078125 6.890625 40.9375 10.546875 
Q 45.796875 14.203125 45.796875 21.1875 
Q 45.796875 27.640625 41.28125 31.265625 
Q 36.765625 34.90625 28.71875 34.90625 
L 20.21875 34.90625 
L 20.21875 43.015625 
L 29.109375 43.015625 
Q 36.375 43.015625 40.234375 45.921875 
Q 44.09375 48.828125 44.09375 54.296875 
Q 44.09375 59.90625 40.109375 62.90625 
Q 36.140625 65.921875 28.71875 65.921875 
Q 24.65625 65.921875 20.015625 65.03125 
Q 15.375 64.15625 9.8125 62.3125 
L 9.8125 71.09375 
Q 15.4375 72.65625 20.34375 73.4375 
Q 25.25 74.21875 29.59375 74.21875 
Q 40.828125 74.21875 47.359375 69.109375 
Q 53.90625 64.015625 53.90625 55.328125 
Q 53.90625 49.265625 50.4375 45.09375 
Q 46.96875 40.921875 40.578125 39.3125 
z
" id="DejaVuSans-51"/>
      <path d="M 50.984375 -16.609375 
L 50.984375 -23.578125 
L -0.984375 -23.578125 
L -0.984375 -16.609375 
z
" id="DejaVuSans-95"/>
      <path d="M 9.8125 72.90625 
L 19.671875 72.90625 
L 19.671875 43.015625 
L 55.515625 43.015625 
L 55.515625 72.90625 
L 65.375 72.90625 
L 65.375 0 
L 55.515625 0 
L 55.515625 34.71875 
L 19.671875 34.71875 
L 19.671875 0 
L 9.8125 0 
z
" id="DejaVuSans-72"/>
      <path d="M 34.1875 63.1875 
L 20.796875 26.90625 
L 47.609375 26.90625 
z
M 28.609375 72.90625 
L 39.796875 72.90625 
L 67.578125 0 
L 57.328125 0 
L 50.6875 18.703125 
L 17.828125 18.703125 
L 11.1875 0 
L 0.78125 0 
z
" id="DejaVuSans-65"/>
      <path d="M 48.6875 27.296875 
Q 48.6875 37.203125 44.609375 42.84375 
Q 40.53125 48.484375 33.40625 48.484375 
Q 26.265625 48.484375 22.1875 42.84375 
Q 18.109375 37.203125 18.109375 27.296875 
Q 18.109375 17.390625 22.1875 11.75 
Q 26.265625 6.109375 33.40625 6.109375 
Q 40.53125 6.109375 44.609375 11.75 
Q 48.6875 17.390625 48.6875 27.296875 
z
M 18.109375 46.390625 
Q 20.953125 51.265625 25.265625 53.625 
Q 29.59375 56 35.59375 56 
Q 45.5625 56 51.78125 48.09375 
Q 58.015625 40.1875 58.015625 27.296875 
Q 58.015625 14.40625 51.78125 6.484375 
Q 45.5625 -1.421875 35.59375 -1.421875 
Q 29.59375 -1.421875 25.265625 0.953125 
Q 20.953125 3.328125 18.109375 8.203125 
L 18.109375 0 
L 9.078125 0 
L 9.078125 75.984375 
L 18.109375 75.984375 
z
" id="DejaVuSans-98"/>
      <path d="M 34.28125 27.484375 
Q 23.390625 27.484375 19.1875 25 
Q 14.984375 22.515625 14.984375 16.5 
Q 14.984375 11.71875 18.140625 8.90625 
Q 21.296875 6.109375 26.703125 6.109375 
Q 34.1875 6.109375 38.703125 11.40625 
Q 43.21875 16.703125 43.21875 25.484375 
L 43.21875 27.484375 
z
M 52.203125 31.203125 
L 52.203125 0 
L 43.21875 0 
L 43.21875 8.296875 
Q 40.140625 3.328125 35.546875 0.953125 
Q 30.953125 -1.421875 24.3125 -1.421875 
Q 15.921875 -1.421875 10.953125 3.296875 
Q 6 8.015625 6 15.921875 
Q 6 25.140625 12.171875 29.828125 
Q 18.359375 34.515625 30.609375 34.515625 
L 43.21875 34.515625 
L 43.21875 35.40625 
Q 43.21875 41.609375 39.140625 45 
Q 35.0625 48.390625 27.6875 48.390625 
Q 23 48.390625 18.546875 47.265625 
Q 14.109375 46.140625 10.015625 43.890625 
L 10.015625 52.203125 
Q 14.9375 54.109375 19.578125 55.046875 
Q 24.21875 56 28.609375 56 
Q 40.484375 56 46.34375 49.84375 
Q 52.203125 43.703125 52.203125 31.203125 
z
" id="DejaVuSans-97"/>
      <path d="M 41.109375 46.296875 
Q 39.59375 47.171875 37.8125 47.578125 
Q 36.03125 48 33.890625 48 
Q 26.265625 48 22.1875 43.046875 
Q 18.109375 38.09375 18.109375 28.8125 
L 18.109375 0 
L 9.078125 0 
L 9.078125 54.6875 
L 18.109375 54.6875 
L 18.109375 46.1875 
Q 20.953125 51.171875 25.484375 53.578125 
Q 30.03125 56 36.53125 56 
Q 37.453125 56 38.578125 55.875 
Q 39.703125 55.765625 41.0625 55.515625 
z
" id="DejaVuSans-114"/>
      <path d="M 44.28125 53.078125 
L 44.28125 44.578125 
Q 40.484375 46.53125 36.375 47.5 
Q 32.28125 48.484375 27.875 48.484375 
Q 21.1875 48.484375 17.84375 46.4375 
Q 14.5 44.390625 14.5 40.28125 
Q 14.5 37.15625 16.890625 35.375 
Q 19.28125 33.59375 26.515625 31.984375 
L 29.59375 31.296875 
Q 39.15625 29.25 43.1875 25.515625 
Q 47.21875 21.78125 47.21875 15.09375 
Q 47.21875 7.46875 41.1875 3.015625 
Q 35.15625 -1.421875 24.609375 -1.421875 
Q 20.21875 -1.421875 15.453125 -0.5625 
Q 10.6875 0.296875 5.421875 2 
L 5.421875 11.28125 
Q 10.40625 8.6875 15.234375 7.390625 
Q 20.0625 6.109375 24.8125 6.109375 
Q 31.15625 6.109375 34.5625 8.28125 
Q 37.984375 10.453125 37.984375 14.40625 
Q 37.984375 18.0625 35.515625 20.015625 
Q 33.0625 21.96875 24.703125 23.78125 
L 21.578125 24.515625 
Q 13.234375 26.265625 9.515625 29.90625 
Q 5.8125 33.546875 5.8125 39.890625 
Q 5.8125 47.609375 11.28125 51.796875 
Q 16.75 56 26.8125 56 
Q 31.78125 56 36.171875 55.265625 
Q 40.578125 54.546875 44.28125 53.078125 
z
" id="DejaVuSans-115"/>
      <path d="M 56.203125 29.59375 
L 56.203125 25.203125 
L 14.890625 25.203125 
Q 15.484375 15.921875 20.484375 11.0625 
Q 25.484375 6.203125 34.421875 6.203125 
Q 39.59375 6.203125 44.453125 7.46875 
Q 49.3125 8.734375 54.109375 11.28125 
L 54.109375 2.78125 
Q 49.265625 0.734375 44.1875 -0.34375 
Q 39.109375 -1.421875 33.890625 -1.421875 
Q 20.796875 -1.421875 13.15625 6.1875 
Q 5.515625 13.8125 5.515625 26.8125 
Q 5.515625 40.234375 12.765625 48.109375 
Q 20.015625 56 32.328125 56 
Q 43.359375 56 49.78125 48.890625 
Q 56.203125 41.796875 56.203125 29.59375 
z
M 47.21875 32.234375 
Q 47.125 39.59375 43.09375 43.984375 
Q 39.0625 48.390625 32.421875 48.390625 
Q 24.90625 48.390625 20.390625 44.140625 
Q 15.875 39.890625 15.1875 32.171875 
z
" id="DejaVuSans-101"/>
      <path d="M 54.890625 54.6875 
L 35.109375 28.078125 
L 55.90625 0 
L 45.3125 0 
L 29.390625 21.484375 
L 13.484375 0 
L 2.875 0 
L 24.125 28.609375 
L 4.6875 54.6875 
L 15.28125 54.6875 
L 29.78125 35.203125 
L 44.28125 54.6875 
z
" id="DejaVuSans-120"/>
      <path d="M 18.3125 70.21875 
L 18.3125 54.6875 
L 36.8125 54.6875 
L 36.8125 47.703125 
L 18.3125 47.703125 
L 18.3125 18.015625 
Q 18.3125 11.328125 20.140625 9.421875 
Q 21.96875 7.515625 27.59375 7.515625 
L 36.8125 7.515625 
L 36.8125 0 
L 27.59375 0 
Q 17.1875 0 13.234375 3.875 
Q 9.28125 7.765625 9.28125 18.015625 
L 9.28125 47.703125 
L 2.6875 47.703125 
L 2.6875 54.6875 
L 9.28125 54.6875 
L 9.28125 70.21875 
z
" id="DejaVuSans-116"/>
      <path d="M 48.78125 52.59375 
L 48.78125 44.1875 
Q 44.96875 46.296875 41.140625 47.34375 
Q 37.3125 48.390625 33.40625 48.390625 
Q 24.65625 48.390625 19.8125 42.84375 
Q 14.984375 37.3125 14.984375 27.296875 
Q 14.984375 17.28125 19.8125 11.734375 
Q 24.65625 6.203125 33.40625 6.203125 
Q 37.3125 6.203125 41.140625 7.25 
Q 44.96875 8.296875 48.78125 10.40625 
L 48.78125 2.09375 
Q 45.015625 0.34375 40.984375 -0.53125 
Q 36.96875 -1.421875 32.421875 -1.421875 
Q 20.0625 -1.421875 12.78125 6.34375 
Q 5.515625 14.109375 5.515625 27.296875 
Q 5.515625 40.671875 12.859375 48.328125 
Q 20.21875 56 33.015625 56 
Q 37.15625 56 41.109375 55.140625 
Q 45.0625 54.296875 48.78125 52.59375 
z
" id="DejaVuSans-99"/>
      <path d="M 45.40625 46.390625 
L 45.40625 75.984375 
L 54.390625 75.984375 
L 54.390625 0 
L 45.40625 0 
L 45.40625 8.203125 
Q 42.578125 3.328125 38.25 0.953125 
Q 33.9375 -1.421875 27.875 -1.421875 
Q 17.96875 -1.421875 11.734375 6.484375 
Q 5.515625 14.40625 5.515625 27.296875 
Q 5.515625 40.1875 11.734375 48.09375 
Q 17.96875 56 27.875 56 
Q 33.9375 56 38.25 53.625 
Q 42.578125 51.265625 45.40625 46.390625 
z
M 14.796875 27.296875 
Q 14.796875 17.390625 18.875 11.75 
Q 22.953125 6.109375 30.078125 6.109375 
Q 37.203125 6.109375 41.296875 11.75 
Q 45.40625 17.390625 45.40625 27.296875 
Q 45.40625 37.203125 41.296875 42.84375 
Q 37.203125 48.484375 30.078125 48.484375 
Q 22.953125 48.484375 18.875 42.84375 
Q 14.796875 37.203125 14.796875 27.296875 
z
" id="DejaVuSans-100"/>
      <path d="M 10.6875 12.40625 
L 21 12.40625 
L 21 0 
L 10.6875 0 
z
" id="DejaVuSans-46"/>
     </defs>
     <use xlink:href="#DejaVuSans-87"/>
     <use x="98.876953" xlink:href="#DejaVuSans-51"/>
     <use x="162.5" xlink:href="#DejaVuSans-53"/>
     <use x="226.123047" xlink:href="#DejaVuSans-95"/>
     <use x="276.123047" xlink:href="#DejaVuSans-95"/>
     <use x="326.123047" xlink:href="#DejaVuSans-72"/>
     <use x="401.318359" xlink:href="#DejaVuSans-52"/>
     <use x="464.941406" xlink:href="#DejaVuSans-48"/>
     <use x="528.564453" xlink:href="#DejaVuSans-95"/>
     <use x="578.564453" xlink:href="#DejaVuSans-95"/>
     <use x="628.564453" xlink:href="#DejaVuSans-65"/>
     <use x="696.972656" xlink:href="#DejaVuSans-49"/>
     <use x="760.595703" xlink:href="#DejaVuSans-51"/>
     <use x="824.21875" xlink:href="#DejaVuSans-48"/>
     <use x="887.841797" xlink:href="#DejaVuSans-95"/>
     <use x="937.841797" xlink:href="#DejaVuSans-98"/>
     <use x="1001.318359" xlink:href="#DejaVuSans-97"/>
     <use x="1062.597656" xlink:href="#DejaVuSans-114"/>
     <use x="1103.710938" xlink:href="#DejaVuSans-115"/>
     <use x="1155.810547" xlink:href="#DejaVuSans-95"/>
     <use x="1205.810547" xlink:href="#DejaVuSans-101"/>
     <use x="1265.583984" xlink:href="#DejaVuSans-120"/>
     <use x="1324.763672" xlink:href="#DejaVuSans-116"/>
     <use x="1363.972656" xlink:href="#DejaVuSans-114"/>
     <use x="1405.085938" xlink:href="#DejaVuSans-97"/>
     <use x="1466.365234" xlink:href="#DejaVuSans-99"/>
     <use x="1521.345703" xlink:href="#DejaVuSans-116"/>
     <use x="1560.554688" xlink:href="#DejaVuSans-101"/>
     <use x="1622.078125" xlink:href="#DejaVuSans-100"/>
     <use x="1685.554688" xlink:href="#DejaVuSans-46"/>
     <use x="1717.341797" xlink:href="#DejaVuSans-116"/>
     <use x="1756.550781" xlink:href="#DejaVuSans-120"/>
     <use x="1815.730469" xlink:href="#DejaVuSans-116"/>
    </g>
   </g>
  </g>
 </g>
 <defs>
  <clipPath id="p70240b7afb">
   <rect height="217.44" width="217.44" x="112.68" y="34.56"/>
  </clipPath>
 </defs>
</svg>
