<?xml version="1.0" encoding="utf-8" standalone="no"?>
<!DOCTYPE svg PUBLIC "-//W3C//DTD SVG 1.1//EN"
  "http://www.w3.org/Graphics/SVG/1.1/DTD/svg11.dtd">
<!-- Created with matplotlib (https://matplotlib.org/) -->
<svg height="288pt" version="1.1" viewBox="0 0 432 288" width="432pt" xmlns="http://www.w3.org/2000/svg" xmlns:xlink="http://www.w3.org/1999/xlink">
 <metadata>
  <rdf:RDF xmlns:cc="http://creativecommons.org/ns#" xmlns:dc="http://purl.org/dc/elements/1.1/" xmlns:rdf="http://www.w3.org/1999/02/22-rdf-syntax-ns#">
   <cc:Work>
    <dc:type rdf:resource="http://purl.org/dc/dcmitype/StillImage"/>
    <dc:date>2021-06-13T21:59:07.665312</dc:date>
    <dc:format>image/svg+xml</dc:format>
    <dc:creator>
     <cc:Agent>
      <dc:title>Matplotlib v3.3.4, https://matplotlib.org/</dc:title>
     </cc:Agent>
    </dc:creator>
   </cc:Work>
  </rdf:RDF>
 </metadata>
 <defs>
  <style type="text/css">*{stroke-linecap:butt;stroke-linejoin:round;}</style>
 </defs>
 <g id="figure_1">
  <g id="patch_1">
   <path d="M 0 288 
L 432 288 
L 432 0 
L 0 0 
z
" style="fill:#ffffff;"/>
  </g>
  <g id="patch_2">
   <path d="M 112.68 252 
L 330.12 252 
L 330.12 34.56 
L 112.68 34.56 
z
" style="fill:#ffffff;"/>
  </g>
  <g id="pane3d_1">
   <g id="patch_3">
    <path d="M 129.09822 198.386264 
L 200.904009 138.197228 
L 199.90584 51.393878 
L 124.663773 106.302111 
" style="fill:#f2f2f2;opacity:0.5;stroke:#f2f2f2;stroke-linejoin:miter;"/>
   </g>
  </g>
  <g id="pane3d_2">
   <g id="patch_4">
    <path d="M 200.904009 138.197228 
L 316.12668 171.68791 
L 320.238571 81.894718 
L 199.90584 51.393878 
" style="fill:#e6e6e6;opacity:0.5;stroke:#e6e6e6;stroke-linejoin:miter;"/>
   </g>
  </g>
  <g id="pane3d_3">
   <g id="patch_5">
    <path d="M 129.09822 198.386264 
L 251.239879 238.27773 
L 316.12668 171.68791 
L 200.904009 138.197228 
" style="fill:#ececec;opacity:0.5;stroke:#ececec;stroke-linejoin:miter;"/>
   </g>
  </g>
  <g id="axis3d_1">
   <g id="line2d_1">
    <path d="M 129.09822 198.386264 
L 251.239879 238.27773 
" style="fill:none;stroke:#000000;stroke-linecap:square;stroke-width:0.8;"/>
   </g>
   <g id="Line3DCollection_1">
    <path d="M 136.495759 200.802301 
L 207.911499 140.234029 
L 207.209612 53.245171 
" style="fill:none;stroke:#b0b0b0;stroke-width:0.8;"/>
    <path d="M 162.23134 209.207541 
L 232.260894 147.311436 
L 232.60309 59.681678 
" style="fill:none;stroke:#b0b0b0;stroke-width:0.8;"/>
    <path d="M 188.559037 217.806167 
L 257.123632 154.538053 
L 258.555303 66.259807 
" style="fill:none;stroke:#b0b0b0;stroke-width:0.8;"/>
    <path d="M 215.499525 226.604931 
L 282.516121 161.918647 
L 285.084894 72.984285 
" style="fill:none;stroke:#b0b0b0;stroke-width:0.8;"/>
    <path d="M 243.074449 235.610901 
L 308.455474 169.458193 
L 312.21135 79.860051 
" style="fill:none;stroke:#b0b0b0;stroke-width:0.8;"/>
   </g>
   <g id="xtick_1">
    <g id="line2d_2">
     <path d="M 137.117644 200.274876 
L 135.249322 201.859414 
" style="fill:none;stroke:#000000;stroke-linecap:square;stroke-width:0.8;"/>
    </g>
    <g id="text_1">
     <!-- 0 -->
     <g transform="translate(125.77919 224.124533)scale(0.1 -0.1)">
      <defs>
       <path d="M 31.78125 66.40625 
Q 24.171875 66.40625 20.328125 58.90625 
Q 16.5 51.421875 16.5 36.375 
Q 16.5 21.390625 20.328125 13.890625 
Q 24.171875 6.390625 31.78125 6.390625 
Q 39.453125 6.390625 43.28125 13.890625 
Q 47.125 21.390625 47.125 36.375 
Q 47.125 51.421875 43.28125 58.90625 
Q 39.453125 66.40625 31.78125 66.40625 
z
M 31.78125 74.21875 
Q 44.046875 74.21875 50.515625 64.515625 
Q 56.984375 54.828125 56.984375 36.375 
Q 56.984375 17.96875 50.515625 8.265625 
Q 44.046875 -1.421875 31.78125 -1.421875 
Q 19.53125 -1.421875 13.0625 8.265625 
Q 6.59375 17.96875 6.59375 36.375 
Q 6.59375 54.828125 13.0625 64.515625 
Q 19.53125 74.21875 31.78125 74.21875 
z
" id="DejaVuSans-48"/>
      </defs>
      <use xlink:href="#DejaVuSans-48"/>
     </g>
    </g>
   </g>
   <g id="xtick_2">
    <g id="line2d_3">
     <path d="M 162.841716 208.668056 
L 161.007937 210.288854 
" style="fill:none;stroke:#000000;stroke-linecap:square;stroke-width:0.8;"/>
    </g>
    <g id="text_2">
     <!-- 2 -->
     <g transform="translate(151.547192 232.748132)scale(0.1 -0.1)">
      <defs>
       <path d="M 19.1875 8.296875 
L 53.609375 8.296875 
L 53.609375 0 
L 7.328125 0 
L 7.328125 8.296875 
Q 12.9375 14.109375 22.625 23.890625 
Q 32.328125 33.6875 34.8125 36.53125 
Q 39.546875 41.84375 41.421875 45.53125 
Q 43.3125 49.21875 43.3125 52.78125 
Q 43.3125 58.59375 39.234375 62.25 
Q 35.15625 65.921875 28.609375 65.921875 
Q 23.96875 65.921875 18.8125 64.3125 
Q 13.671875 62.703125 7.8125 59.421875 
L 7.8125 69.390625 
Q 13.765625 71.78125 18.9375 73 
Q 24.125 74.21875 28.421875 74.21875 
Q 39.75 74.21875 46.484375 68.546875 
Q 53.21875 62.890625 53.21875 53.421875 
Q 53.21875 48.921875 51.53125 44.890625 
Q 49.859375 40.875 45.40625 35.40625 
Q 44.1875 33.984375 37.640625 27.21875 
Q 31.109375 20.453125 19.1875 8.296875 
z
" id="DejaVuSans-50"/>
      </defs>
      <use xlink:href="#DejaVuSans-50"/>
     </g>
    </g>
   </g>
   <g id="xtick_3">
    <g id="line2d_4">
     <path d="M 189.15721 217.254202 
L 187.360066 218.91252 
" style="fill:none;stroke:#000000;stroke-linecap:square;stroke-width:0.8;"/>
    </g>
    <g id="text_3">
     <!-- 4 -->
     <g transform="translate(177.91082 241.571064)scale(0.1 -0.1)">
      <defs>
       <path d="M 37.796875 64.3125 
L 12.890625 25.390625 
L 37.796875 25.390625 
z
M 35.203125 72.90625 
L 47.609375 72.90625 
L 47.609375 25.390625 
L 58.015625 25.390625 
L 58.015625 17.1875 
L 47.609375 17.1875 
L 47.609375 0 
L 37.796875 0 
L 37.796875 17.1875 
L 4.890625 17.1875 
L 4.890625 26.703125 
z
" id="DejaVuSans-52"/>
      </defs>
      <use xlink:href="#DejaVuSans-52"/>
     </g>
    </g>
   </g>
   <g id="xtick_4">
    <g id="line2d_5">
     <path d="M 216.084757 226.040048 
L 214.326462 227.737204 
" style="fill:none;stroke:#000000;stroke-linecap:square;stroke-width:0.8;"/>
    </g>
    <g id="text_4">
     <!-- 6 -->
     <g transform="translate(204.890965 250.600322)scale(0.1 -0.1)">
      <defs>
       <path d="M 33.015625 40.375 
Q 26.375 40.375 22.484375 35.828125 
Q 18.609375 31.296875 18.609375 23.390625 
Q 18.609375 15.53125 22.484375 10.953125 
Q 26.375 6.390625 33.015625 6.390625 
Q 39.65625 6.390625 43.53125 10.953125 
Q 47.40625 15.53125 47.40625 23.390625 
Q 47.40625 31.296875 43.53125 35.828125 
Q 39.65625 40.375 33.015625 40.375 
z
M 52.59375 71.296875 
L 52.59375 62.3125 
Q 48.875 64.0625 45.09375 64.984375 
Q 41.3125 65.921875 37.59375 65.921875 
Q 27.828125 65.921875 22.671875 59.328125 
Q 17.53125 52.734375 16.796875 39.40625 
Q 19.671875 43.65625 24.015625 45.921875 
Q 28.375 48.1875 33.59375 48.1875 
Q 44.578125 48.1875 50.953125 41.515625 
Q 57.328125 34.859375 57.328125 23.390625 
Q 57.328125 12.15625 50.6875 5.359375 
Q 44.046875 -1.421875 33.015625 -1.421875 
Q 20.359375 -1.421875 13.671875 8.265625 
Q 6.984375 17.96875 6.984375 36.375 
Q 6.984375 53.65625 15.1875 63.9375 
Q 23.390625 74.21875 37.203125 74.21875 
Q 40.921875 74.21875 44.703125 73.484375 
Q 48.484375 72.75 52.59375 71.296875 
z
" id="DejaVuSans-54"/>
      </defs>
      <use xlink:href="#DejaVuSans-54"/>
     </g>
    </g>
   </g>
   <g id="xtick_5">
    <g id="line2d_6">
     <path d="M 243.645962 235.032643 
L 241.928856 236.770015 
" style="fill:none;stroke:#000000;stroke-linecap:square;stroke-width:0.8;"/>
    </g>
    <g id="text_5">
     <!-- 8 -->
     <g transform="translate(232.509511 259.84323)scale(0.1 -0.1)">
      <defs>
       <path d="M 31.78125 34.625 
Q 24.75 34.625 20.71875 30.859375 
Q 16.703125 27.09375 16.703125 20.515625 
Q 16.703125 13.921875 20.71875 10.15625 
Q 24.75 6.390625 31.78125 6.390625 
Q 38.8125 6.390625 42.859375 10.171875 
Q 46.921875 13.96875 46.921875 20.515625 
Q 46.921875 27.09375 42.890625 30.859375 
Q 38.875 34.625 31.78125 34.625 
z
M 21.921875 38.8125 
Q 15.578125 40.375 12.03125 44.71875 
Q 8.5 49.078125 8.5 55.328125 
Q 8.5 64.0625 14.71875 69.140625 
Q 20.953125 74.21875 31.78125 74.21875 
Q 42.671875 74.21875 48.875 69.140625 
Q 55.078125 64.0625 55.078125 55.328125 
Q 55.078125 49.078125 51.53125 44.71875 
Q 48 40.375 41.703125 38.8125 
Q 48.828125 37.15625 52.796875 32.3125 
Q 56.78125 27.484375 56.78125 20.515625 
Q 56.78125 9.90625 50.3125 4.234375 
Q 43.84375 -1.421875 31.78125 -1.421875 
Q 19.734375 -1.421875 13.25 4.234375 
Q 6.78125 9.90625 6.78125 20.515625 
Q 6.78125 27.484375 10.78125 32.3125 
Q 14.796875 37.15625 21.921875 38.8125 
z
M 18.3125 54.390625 
Q 18.3125 48.734375 21.84375 45.5625 
Q 25.390625 42.390625 31.78125 42.390625 
Q 38.140625 42.390625 41.71875 45.5625 
Q 45.3125 48.734375 45.3125 54.390625 
Q 45.3125 60.0625 41.71875 63.234375 
Q 38.140625 66.40625 31.78125 66.40625 
Q 25.390625 66.40625 21.84375 63.234375 
Q 18.3125 60.0625 18.3125 54.390625 
z
" id="DejaVuSans-56"/>
      </defs>
      <use xlink:href="#DejaVuSans-56"/>
     </g>
    </g>
   </g>
  </g>
  <g id="axis3d_2">
   <g id="line2d_7">
    <path d="M 316.12668 171.68791 
L 251.239879 238.27773 
" style="fill:none;stroke:#000000;stroke-linecap:square;stroke-width:0.8;"/>
   </g>
   <g id="Line3DCollection_2">
    <path d="M 129.866948 102.505071 
L 134.046245 194.238731 
L 255.729543 233.67023 
" style="fill:none;stroke:#b0b0b0;stroke-width:0.8;"/>
    <path d="M 147.250212 89.819556 
L 150.59591 180.366474 
L 270.72626 218.279909 
" style="fill:none;stroke:#b0b0b0;stroke-width:0.8;"/>
    <path d="M 163.958537 77.626582 
L 166.530371 167.009893 
L 285.136664 203.491289 
" style="fill:none;stroke:#b0b0b0;stroke-width:0.8;"/>
    <path d="M 180.030483 65.898008 
L 181.883306 154.140758 
L 298.994481 189.269761 
" style="fill:none;stroke:#b0b0b0;stroke-width:0.8;"/>
    <path d="M 195.501727 54.607799 
L 196.68598 141.732864 
L 312.330896 175.583317 
" style="fill:none;stroke:#b0b0b0;stroke-width:0.8;"/>
   </g>
   <g id="xtick_6">
    <g id="line2d_8">
     <path d="M 254.704115 233.337939 
L 257.783053 234.33567 
" style="fill:none;stroke:#000000;stroke-linecap:square;stroke-width:0.8;"/>
    </g>
    <g id="text_6">
     <!-- 0 -->
     <g transform="translate(265.430654 254.693759)scale(0.1 -0.1)">
      <use xlink:href="#DejaVuSans-48"/>
     </g>
    </g>
   </g>
   <g id="xtick_7">
    <g id="line2d_9">
     <path d="M 269.71494 217.960734 
L 272.751463 218.919068 
" style="fill:none;stroke:#000000;stroke-linecap:square;stroke-width:0.8;"/>
    </g>
    <g id="text_7">
     <!-- 2 -->
     <g transform="translate(280.181112 239.024526)scale(0.1 -0.1)">
      <use xlink:href="#DejaVuSans-50"/>
     </g>
    </g>
   </g>
   <g id="xtick_8">
    <g id="line2d_10">
     <path d="M 284.139145 203.184468 
L 287.134182 204.105694 
" style="fill:none;stroke:#000000;stroke-linecap:square;stroke-width:0.8;"/>
    </g>
    <g id="text_8">
     <!-- 4 -->
     <g transform="translate(294.35448 223.968328)scale(0.1 -0.1)">
      <use xlink:href="#DejaVuSans-52"/>
     </g>
    </g>
   </g>
   <g id="xtick_9">
    <g id="line2d_11">
     <path d="M 298.010457 188.97459 
L 300.964927 189.860821 
" style="fill:none;stroke:#000000;stroke-linecap:square;stroke-width:0.8;"/>
    </g>
    <g id="text_9">
     <!-- 6 -->
     <g transform="translate(307.983974 209.489882)scale(0.1 -0.1)">
      <use xlink:href="#DejaVuSans-54"/>
     </g>
    </g>
   </g>
   <g id="xtick_10">
    <g id="line2d_12">
     <path d="M 311.360068 175.299146 
L 314.274875 176.15234 
" style="fill:none;stroke:#000000;stroke-linecap:square;stroke-width:0.8;"/>
    </g>
    <g id="text_10">
     <!-- 8 -->
     <g transform="translate(321.10031 195.556556)scale(0.1 -0.1)">
      <use xlink:href="#DejaVuSans-56"/>
     </g>
    </g>
   </g>
  </g>
  <g id="axis3d_3">
   <g id="line2d_13">
    <path d="M 316.12668 171.68791 
L 320.238571 81.894718 
" style="fill:none;stroke:#000000;stroke-linecap:square;stroke-width:0.8;"/>
   </g>
   <g id="Line3DCollection_3">
    <path d="M 316.205459 169.967571 
L 200.884845 136.530725 
L 129.013401 196.624949 
" style="fill:none;stroke:#b0b0b0;stroke-width:0.8;"/>
    <path d="M 316.975157 153.159345 
L 200.697694 120.25558 
L 128.184408 179.410381 
" style="fill:none;stroke:#b0b0b0;stroke-width:0.8;"/>
    <path d="M 317.757861 136.067087 
L 200.507532 103.718605 
L 127.34087 161.893774 
" style="fill:none;stroke:#b0b0b0;stroke-width:0.8;"/>
    <path d="M 318.553904 118.683537 
L 200.314286 86.913432 
L 126.482401 144.067107 
" style="fill:none;stroke:#b0b0b0;stroke-width:0.8;"/>
    <path d="M 319.36363 101.001185 
L 200.11788 69.833481 
L 125.608601 125.922076 
" style="fill:none;stroke:#b0b0b0;stroke-width:0.8;"/>
   </g>
   <g id="xtick_11">
    <g id="line2d_14">
     <path d="M 315.237563 169.686933 
L 318.143556 170.529516 
" style="fill:none;stroke:#000000;stroke-linecap:square;stroke-width:0.8;"/>
    </g>
    <g id="text_11">
     <!-- 0 -->
     <g transform="translate(331.275915 174.966846)scale(0.1 -0.1)">
      <use xlink:href="#DejaVuSans-48"/>
     </g>
    </g>
   </g>
   <g id="xtick_12">
    <g id="line2d_15">
     <path d="M 315.998847 152.883072 
L 318.930121 153.712553 
" style="fill:none;stroke:#000000;stroke-linecap:square;stroke-width:0.8;"/>
    </g>
    <g id="text_12">
     <!-- 5000 -->
     <g transform="translate(322.651368 158.199125)scale(0.1 -0.1)">
      <defs>
       <path d="M 10.796875 72.90625 
L 49.515625 72.90625 
L 49.515625 64.59375 
L 19.828125 64.59375 
L 19.828125 46.734375 
Q 21.96875 47.46875 24.109375 47.828125 
Q 26.265625 48.1875 28.421875 48.1875 
Q 40.625 48.1875 47.75 41.5 
Q 54.890625 34.8125 54.890625 23.390625 
Q 54.890625 11.625 47.5625 5.09375 
Q 40.234375 -1.421875 26.90625 -1.421875 
Q 22.3125 -1.421875 17.546875 -0.640625 
Q 12.796875 0.140625 7.71875 1.703125 
L 7.71875 11.625 
Q 12.109375 9.234375 16.796875 8.0625 
Q 21.484375 6.890625 26.703125 6.890625 
Q 35.15625 6.890625 40.078125 11.328125 
Q 45.015625 15.765625 45.015625 23.390625 
Q 45.015625 31 40.078125 35.4375 
Q 35.15625 39.890625 26.703125 39.890625 
Q 22.75 39.890625 18.8125 39.015625 
Q 14.890625 38.140625 10.796875 36.28125 
z
" id="DejaVuSans-53"/>
      </defs>
      <use xlink:href="#DejaVuSans-53"/>
      <use x="63.623047" xlink:href="#DejaVuSans-48"/>
      <use x="127.246094" xlink:href="#DejaVuSans-48"/>
      <use x="190.869141" xlink:href="#DejaVuSans-48"/>
     </g>
    </g>
   </g>
   <g id="xtick_13">
    <g id="line2d_16">
     <path d="M 316.77299 135.795368 
L 319.729988 136.611182 
" style="fill:none;stroke:#000000;stroke-linecap:square;stroke-width:0.8;"/>
    </g>
    <g id="text_13">
     <!-- 10000 -->
     <g transform="translate(320.404796 141.149114)scale(0.1 -0.1)">
      <defs>
       <path d="M 12.40625 8.296875 
L 28.515625 8.296875 
L 28.515625 63.921875 
L 10.984375 60.40625 
L 10.984375 69.390625 
L 28.421875 72.90625 
L 38.28125 72.90625 
L 38.28125 8.296875 
L 54.390625 8.296875 
L 54.390625 0 
L 12.40625 0 
z
" id="DejaVuSans-49"/>
      </defs>
      <use xlink:href="#DejaVuSans-49"/>
      <use x="63.623047" xlink:href="#DejaVuSans-48"/>
      <use x="127.246094" xlink:href="#DejaVuSans-48"/>
      <use x="190.869141" xlink:href="#DejaVuSans-48"/>
      <use x="254.492188" xlink:href="#DejaVuSans-48"/>
     </g>
    </g>
   </g>
   <g id="xtick_14">
    <g id="line2d_17">
     <path d="M 317.560321 118.416569 
L 320.543497 119.218126 
" style="fill:none;stroke:#000000;stroke-linecap:square;stroke-width:0.8;"/>
    </g>
    <g id="text_14">
     <!-- 15000 -->
     <g transform="translate(321.355343 123.809625)scale(0.1 -0.1)">
      <use xlink:href="#DejaVuSans-49"/>
      <use x="63.623047" xlink:href="#DejaVuSans-53"/>
      <use x="127.246094" xlink:href="#DejaVuSans-48"/>
      <use x="190.869141" xlink:href="#DejaVuSans-48"/>
      <use x="254.492188" xlink:href="#DejaVuSans-48"/>
     </g>
    </g>
   </g>
   <g id="xtick_15">
    <g id="line2d_18">
     <path d="M 318.361179 100.73917 
L 321.371001 101.525859 
" style="fill:none;stroke:#000000;stroke-linecap:square;stroke-width:0.8;"/>
    </g>
    <g id="text_15">
     <!-- 20000 -->
     <g transform="translate(322.322167 106.173222)scale(0.1 -0.1)">
      <use xlink:href="#DejaVuSans-50"/>
      <use x="63.623047" xlink:href="#DejaVuSans-48"/>
      <use x="127.246094" xlink:href="#DejaVuSans-48"/>
      <use x="190.869141" xlink:href="#DejaVuSans-48"/>
      <use x="254.492188" xlink:href="#DejaVuSans-48"/>
     </g>
    </g>
   </g>
  </g>
  <g id="axes_1">
   <g id="Poly3DCollection_1">
    <path clip-path="url(#pa14313cc16)" d="M 203.700438 142.115361 
L 203.653339 137.473461 
L 215.84446 141.008971 
L 215.863902 145.66701 
z
" style="fill:#12023e;"/>
    <path clip-path="url(#pa14313cc16)" d="M 196.401162 148.290596 
L 196.336825 143.620689 
L 203.653339 137.473461 
L 203.700438 142.115361 
z
" style="fill:#270483;"/>
    <path clip-path="url(#pa14313cc16)" d="M 196.401162 148.290596 
L 203.700438 142.115361 
L 215.863902 145.66701 
L 208.637156 151.907182 
z
" style="fill:#17034f;"/>
    <path clip-path="url(#pa14313cc16)" d="M 196.336825 143.620689 
L 208.600807 147.22099 
L 215.84446 141.008971 
L 203.653339 137.473461 
z
" style="fill:#220472;"/>
    <path clip-path="url(#pa14313cc16)" d="M 215.863902 145.66701 
L 215.823724 136.040653 
L 228.173214 139.595926 
L 228.155024 149.255935 
z
" style="fill:#1e0142;"/>
    <path clip-path="url(#pa14313cc16)" d="M 208.637156 151.907182 
L 215.863902 145.66701 
L 215.84446 141.008971 
L 208.600807 147.22099 
z
" style="fill:#12023e;"/>
    <path clip-path="url(#pa14313cc16)" d="M 208.637156 151.907182 
L 208.562034 142.222427 
L 215.823724 136.040653 
L 215.863902 145.66701 
z
" style="fill:#3f038d;"/>
    <path clip-path="url(#pa14313cc16)" d="M 208.637156 151.907182 
L 215.863902 145.66701 
L 228.155024 149.255935 
L 221.002748 155.562072 
z
" style="fill:#260255;"/>
    <path clip-path="url(#pa14313cc16)" d="M 196.401162 148.290596 
L 208.637156 151.907182 
L 208.600807 147.22099 
L 196.336825 143.620689 
z
" style="fill:#270483;"/>
    <path clip-path="url(#pa14313cc16)" d="M 196.401162 148.290596 
L 196.313025 141.893168 
L 208.58736 145.487416 
L 208.637156 151.907182 
z
" style="fill:#170240;"/>
    <path clip-path="url(#pa14313cc16)" d="M 188.96817 154.578956 
L 188.855558 148.142765 
L 196.313025 141.893168 
L 196.401162 148.290596 
z
" style="fill:#300487;"/>
    <path clip-path="url(#pa14313cc16)" d="M 228.155024 149.255935 
L 228.174042 139.156485 
L 240.657163 142.747898 
L 240.575825 152.882725 
z
" style="fill:#1f0143;"/>
    <path clip-path="url(#pa14313cc16)" d="M 188.96817 154.578956 
L 196.401162 148.290596 
L 208.637156 151.907182 
L 201.27732 158.262275 
z
" style="fill:#1d0251;"/>
    <path clip-path="url(#pa14313cc16)" d="M 208.562034 142.222427 
L 220.986704 145.843363 
L 228.173214 139.595926 
L 215.823724 136.040653 
z
" style="fill:#37027a;"/>
    <path clip-path="url(#pa14313cc16)" d="M 221.002748 155.562072 
L 228.155024 149.255935 
L 228.173214 139.595926 
L 220.986704 145.843363 
z
" style="fill:#1e0142;"/>
    <path clip-path="url(#pa14313cc16)" d="M 221.002748 155.562072 
L 220.985974 145.401231 
L 228.174042 139.156485 
L 228.155024 149.255935 
z
" style="fill:#41028d;"/>
    <path clip-path="url(#pa14313cc16)" d="M 221.002748 155.562072 
L 228.155024 149.255935 
L 240.575825 152.882725 
L 233.500008 159.25588 
z
" style="fill:#270155;"/>
    <path clip-path="url(#pa14313cc16)" d="M 208.637156 151.907182 
L 221.002748 155.562072 
L 220.986704 145.843363 
L 208.562034 142.222427 
z
" style="fill:#3f038d;"/>
    <path clip-path="url(#pa14313cc16)" d="M 188.855558 148.142765 
L 201.203506 151.803547 
L 208.58736 145.487416 
L 196.313025 141.893168 
z
" style="fill:#2a0375;"/>
    <path clip-path="url(#pa14313cc16)" d="M 201.27732 158.262275 
L 208.637156 151.907182 
L 208.58736 145.487416 
L 201.203506 151.803547 
z
" style="fill:#170240;"/>
    <path clip-path="url(#pa14313cc16)" d="M 240.575825 152.882725 
L 240.651638 143.436304 
L 253.263505 147.068434 
L 253.128369 156.547983 
z
" style="fill:#1d0142;"/>
    <path clip-path="url(#pa14313cc16)" d="M 201.27732 158.262275 
L 208.637156 151.907182 
L 221.002748 155.562072 
L 213.718049 161.984967 
z
" style="fill:#4e0857;"/>
    <path clip-path="url(#pa14313cc16)" d="M 188.96817 154.578956 
L 188.897301 150.528519 
L 201.230867 154.19768 
L 201.27732 158.262275 
z
" style="fill:#11023d;"/>
    <path clip-path="url(#pa14313cc16)" d="M 188.96817 154.578956 
L 201.27732 158.262275 
L 201.203506 151.803547 
L 188.855558 148.142765 
z
" style="fill:#300487;"/>
    <path clip-path="url(#pa14313cc16)" d="M 233.500008 159.25588 
L 233.543179 149.751971 
L 240.651638 143.436304 
L 240.575825 152.882725 
z
" style="fill:#3e038c;"/>
    <path clip-path="url(#pa14313cc16)" d="M 220.985974 145.401231 
L 233.546326 149.059344 
L 240.657163 142.747898 
L 228.174042 139.156485 
z
" style="fill:#38027b;"/>
    <path clip-path="url(#pa14313cc16)" d="M 233.500008 159.25588 
L 240.575825 152.882725 
L 240.657163 142.747898 
L 233.546326 149.059344 
z
" style="fill:#1f0143;"/>
    <path clip-path="url(#pa14313cc16)" d="M 233.500008 159.25588 
L 240.575825 152.882725 
L 253.128369 156.547983 
L 246.131049 162.989229 
z
" style="fill:#250255;"/>
    <path clip-path="url(#pa14313cc16)" d="M 208.637156 151.907182 
L 208.438479 126.293671 
L 220.960314 129.857688 
L 221.002748 155.562072 
z
" style="fill:#3d0644;"/>
    <path clip-path="url(#pa14313cc16)" d="M 181.397755 160.983577 
L 181.31092 156.908573 
L 188.897301 150.528519 
L 188.96817 154.578956 
z
" style="fill:#230581;"/>
    <path clip-path="url(#pa14313cc16)" d="M 221.002748 155.562072 
L 233.500008 159.25588 
L 233.546326 149.059344 
L 220.985974 145.401231 
z
" style="fill:#41028d;"/>
    <path clip-path="url(#pa14313cc16)" d="M 201.27732 158.262275 
L 200.982792 132.491062 
L 208.438479 126.293671 
L 208.637156 151.907182 
z
" style="fill:#810e90;"/>
    <path clip-path="url(#pa14313cc16)" d="M 181.397755 160.983577 
L 188.96817 154.578956 
L 201.27732 158.262275 
L 193.780682 164.735494 
z
" style="fill:#15034e;"/>
    <path clip-path="url(#pa14313cc16)" d="M 253.128369 156.547983 
L 253.281139 145.83144 
L 266.03603 149.498102 
L 265.814761 160.252323 
z
" style="fill:#200143;"/>
    <path clip-path="url(#pa14313cc16)" d="M 213.718049 161.984967 
L 221.002748 155.562072 
L 233.500008 159.25588 
L 226.292478 165.747667 
z
" style="fill:#530c54;"/>
    <path clip-path="url(#pa14313cc16)" d="M 181.31092 156.908573 
L 193.718556 160.646208 
L 201.230867 154.19768 
L 188.897301 150.528519 
z
" style="fill:#1f0470;"/>
    <path clip-path="url(#pa14313cc16)" d="M 233.543179 149.751971 
L 246.234293 153.451898 
L 253.263505 147.068434 
L 240.651638 143.436304 
z
" style="fill:#36027a;"/>
    <path clip-path="url(#pa14313cc16)" d="M 246.131049 162.989229 
L 253.128369 156.547983 
L 253.263505 147.068434 
L 246.234293 153.451898 
z
" style="fill:#1d0142;"/>
    <path clip-path="url(#pa14313cc16)" d="M 246.131049 162.989229 
L 246.247766 152.207303 
L 253.281139 145.83144 
L 253.128369 156.547983 
z
" style="fill:#44028e;"/>
    <path clip-path="url(#pa14313cc16)" d="M 246.131049 162.989229 
L 253.128369 156.547983 
L 265.814761 160.252323 
L 258.898031 166.762758 
z
" style="fill:#290156;"/>
    <path clip-path="url(#pa14313cc16)" d="M 193.780682 164.735494 
L 201.27732 158.262275 
L 201.230867 154.19768 
L 193.718556 160.646208 
z
" style="fill:#11023d;"/>
    <path clip-path="url(#pa14313cc16)" d="M 221.002748 155.562072 
L 220.95666 127.644523 
L 233.627275 131.238947 
L 233.500008 159.25588 
z
" style="fill:#410a42;"/>
    <path clip-path="url(#pa14313cc16)" d="M 233.500008 159.25588 
L 246.131049 162.989229 
L 246.234293 153.451898 
L 233.543179 149.751971 
z
" style="fill:#3e038c;"/>
    <path clip-path="url(#pa14313cc16)" d="M 265.814761 160.252323 
L 265.941566 154.089299 
L 278.804053 157.811723 
L 278.637155 163.996376 
z
" style="fill:#16023f;"/>
    <path clip-path="url(#pa14313cc16)" d="M 181.397755 160.983577 
L 181.353673 158.914875 
L 193.749143 162.659552 
L 193.780682 164.735494 
z
" style="fill:#0b033b;"/>
    <path clip-path="url(#pa14313cc16)" d="M 213.718049 161.984967 
L 221.002748 155.562072 
L 220.960314 129.857688 
L 213.581675 136.122046 
z
" style="fill:#3d0644;"/>
    <path clip-path="url(#pa14313cc16)" d="M 193.780682 164.735494 
L 201.27732 158.262275 
L 213.718049 161.984967 
L 206.297214 168.527892 
z
" style="fill:#661e46;"/>
    <path clip-path="url(#pa14313cc16)" d="M 181.397755 160.983577 
L 193.780682 164.735494 
L 193.718556 160.646208 
L 181.31092 156.908573 
z
" style="fill:#230581;"/>
    <path clip-path="url(#pa14313cc16)" d="M 213.718049 161.984967 
L 213.569932 133.894946 
L 220.95666 127.644523 
L 221.002748 155.562072 
z
" style="fill:#8a148c;"/>
    <path clip-path="url(#pa14313cc16)" d="M 226.292478 165.747667 
L 233.500008 159.25588 
L 246.131049 162.989229 
L 239.002775 169.551023 
z
" style="fill:#4f0956;"/>
    <path clip-path="url(#pa14313cc16)" d="M 258.898031 166.762758 
L 259.004678 160.562204 
L 265.941566 154.089299 
L 265.814761 160.252323 
z
" style="fill:#2f0486;"/>
    <path clip-path="url(#pa14313cc16)" d="M 201.27732 158.262275 
L 213.718049 161.984967 
L 213.581675 136.122046 
L 200.982792 132.491062 
z
" style="fill:#810e90;"/>
    <path clip-path="url(#pa14313cc16)" d="M 173.686069 167.507715 
L 173.633584 165.426451 
L 181.353673 158.914875 
L 181.397755 160.983577 
z
" style="fill:#18057c;"/>
    <path clip-path="url(#pa14313cc16)" d="M 246.247766 152.207303 
L 259.084128 155.942819 
L 266.03603 149.498102 
L 253.281139 145.83144 
z
" style="fill:#3b027b;"/>
    <path clip-path="url(#pa14313cc16)" d="M 258.898031 166.762758 
L 265.814761 160.252323 
L 266.03603 149.498102 
L 259.084128 155.942819 
z
" style="fill:#200143;"/>
    <path clip-path="url(#pa14313cc16)" d="M 258.898031 166.762758 
L 265.814761 160.252323 
L 278.637155 163.996376 
L 271.803162 170.57712 
z
" style="fill:#1c0251;"/>
    <path clip-path="url(#pa14313cc16)" d="M 233.500008 159.25588 
L 233.619598 132.929076 
L 246.41706 136.56866 
L 246.131049 162.989229 
z
" style="fill:#3e0743;"/>
    <path clip-path="url(#pa14313cc16)" d="M 200.982792 132.491062 
L 213.581675 136.122046 
L 220.960314 129.857688 
L 208.438479 126.293671 
z
" style="fill:#700c7d;"/>
    <path clip-path="url(#pa14313cc16)" d="M 278.637155 163.996376 
L 278.667598 162.868257 
L 291.635662 166.648713 
L 291.597749 167.780781 
z
" style="fill:#080339;"/>
    <path clip-path="url(#pa14313cc16)" d="M 173.686069 167.507715 
L 181.397755 160.983577 
L 193.780682 164.735494 
L 186.143392 171.330164 
z
" style="fill:#0e034b;"/>
    <path clip-path="url(#pa14313cc16)" d="M 201.27732 158.262275 
L 200.845759 120.500621 
L 213.518219 124.087733 
L 213.718049 161.984967 
z
" style="fill:#501837;"/>
    <path clip-path="url(#pa14313cc16)" d="M 246.131049 162.989229 
L 258.898031 166.762758 
L 259.084128 155.942819 
L 246.247766 152.207303 
z
" style="fill:#44028e;"/>
    <path clip-path="url(#pa14313cc16)" d="M 173.633584 165.426451 
L 186.103601 169.241597 
L 193.749143 162.659552 
L 181.353673 158.914875 
z
" style="fill:#15056c;"/>
    <path clip-path="url(#pa14313cc16)" d="M 226.292478 165.747667 
L 226.318226 139.258145 
L 233.619598 132.929076 
L 233.500008 159.25588 
z
" style="fill:#840f8f;"/>
    <path clip-path="url(#pa14313cc16)" d="M 206.297214 168.527892 
L 213.718049 161.984967 
L 226.292478 165.747667 
L 218.949524 172.361429 
z
" style="fill:#6f293e;"/>
    <path clip-path="url(#pa14313cc16)" d="M 226.292478 165.747667 
L 233.500008 159.25588 
L 233.627275 131.238947 
L 226.319879 137.55735 
z
" style="fill:#410a42;"/>
    <path clip-path="url(#pa14313cc16)" d="M 271.803162 170.57712 
L 271.830023 169.442148 
L 278.667598 162.868257 
L 278.637155 163.996376 
z
" style="fill:#110679;"/>
    <path clip-path="url(#pa14313cc16)" d="M 259.004678 160.562204 
L 271.950426 164.354749 
L 278.804053 157.811723 
L 265.941566 154.089299 
z
" style="fill:#290375;"/>
    <path clip-path="url(#pa14313cc16)" d="M 193.780682 164.735494 
L 193.203415 126.738547 
L 200.845759 120.500621 
L 201.27732 158.262275 
z
" style="fill:#a93274;"/>
    <path clip-path="url(#pa14313cc16)" d="M 239.002775 169.551023 
L 246.131049 162.989229 
L 258.898031 166.762758 
L 251.851153 173.395697 
z
" style="fill:#520b55;"/>
    <path clip-path="url(#pa14313cc16)" d="M 271.803162 170.57712 
L 278.637155 163.996376 
L 278.804053 157.811723 
L 271.950426 164.354749 
z
" style="fill:#16023f;"/>
    <path clip-path="url(#pa14313cc16)" d="M 186.143392 171.330164 
L 193.780682 164.735494 
L 193.749143 162.659552 
L 186.103601 169.241597 
z
" style="fill:#0b033b;"/>
    <path clip-path="url(#pa14313cc16)" d="M 213.718049 161.984967 
L 226.292478 165.747667 
L 226.319879 137.55735 
L 213.569932 133.894946 
z
" style="fill:#8a148c;"/>
    <path clip-path="url(#pa14313cc16)" d="M 271.803162 170.57712 
L 278.637155 163.996376 
L 291.597749 167.780781 
L 284.848695 174.43298 
z
" style="fill:#0a0449;"/>
    <path clip-path="url(#pa14313cc16)" d="M 271.830023 169.442148 
L 284.883126 173.294024 
L 291.635662 166.648713 
L 278.667598 162.868257 
z
" style="fill:#0f0569;"/>
    <path clip-path="url(#pa14313cc16)" d="M 246.131049 162.989229 
L 246.429111 135.455414 
L 259.373289 139.130632 
L 258.898031 166.762758 
z
" style="fill:#400942;"/>
    <path clip-path="url(#pa14313cc16)" d="M 173.686069 167.507715 
L 173.644121 165.844278 
L 186.111589 169.660893 
L 186.143392 171.330164 
z
" style="fill:#09033a;"/>
    <path clip-path="url(#pa14313cc16)" d="M 291.597749 167.780781 
L 291.610575 167.397786 
L 304.714197 171.221859 
L 304.698789 171.606197 
z
" style="fill:#050338;"/>
    <path clip-path="url(#pa14313cc16)" d="M 258.898031 166.762758 
L 271.803162 170.57712 
L 271.950426 164.354749 
L 259.004678 160.562204 
z
" style="fill:#2f0486;"/>
    <path clip-path="url(#pa14313cc16)" d="M 173.686069 167.507715 
L 186.143392 171.330164 
L 186.103601 169.241597 
L 173.633584 165.426451 
z
" style="fill:#18057c;"/>
    <path clip-path="url(#pa14313cc16)" d="M 186.143392 171.330164 
L 193.780682 164.735494 
L 206.297214 168.527892 
L 198.736391 175.194243 
z
" style="fill:#651d47;"/>
    <path clip-path="url(#pa14313cc16)" d="M 213.569932 133.894946 
L 226.319879 137.55735 
L 233.627275 131.238947 
L 220.95666 127.644523 
z
" style="fill:#771279;"/>
    <path clip-path="url(#pa14313cc16)" d="M 239.002775 169.551023 
L 246.131049 162.989229 
L 246.41706 136.56866 
L 239.197058 142.966884 
z
" style="fill:#3e0743;"/>
    <path clip-path="url(#pa14313cc16)" d="M 218.949524 172.361429 
L 226.292478 165.747667 
L 239.002775 169.551023 
L 231.739835 176.23678 
z
" style="fill:#6f2a3d;"/>
    <path clip-path="url(#pa14313cc16)" d="M 239.002775 169.551023 
L 239.205245 141.846602 
L 246.429111 135.455414 
L 246.131049 162.989229 
z
" style="fill:#87128d;"/>
    <path clip-path="url(#pa14313cc16)" d="M 165.82912 174.154745 
L 165.780209 172.481185 
L 173.644121 165.844278 
L 173.686069 167.507715 
z
" style="fill:#13067a;"/>
    <path clip-path="url(#pa14313cc16)" d="M 284.848695 174.43298 
L 284.860343 174.047656 
L 291.610575 167.397786 
L 291.597749 167.780781 
z
" style="fill:#0b0777;"/>
    <path clip-path="url(#pa14313cc16)" d="M 284.848695 174.43298 
L 291.597749 167.780781 
L 291.635662 166.648713 
L 284.883126 173.294024 
z
" style="fill:#080339;"/>
    <path clip-path="url(#pa14313cc16)" d="M 213.718049 161.984967 
L 213.488213 118.397102 
L 226.334999 122.002361 
L 226.292478 165.747667 
z
" style="fill:#562030;"/>
    <path clip-path="url(#pa14313cc16)" d="M 206.297214 168.527892 
L 213.718049 161.984967 
L 213.518219 124.087733 
L 205.954524 130.394104 
z
" style="fill:#501837;"/>
    <path clip-path="url(#pa14313cc16)" d="M 251.851153 173.395697 
L 258.898031 166.762758 
L 271.803162 170.57712 
L 264.839875 177.282368 
z
" style="fill:#41015a;"/>
    <path clip-path="url(#pa14313cc16)" d="M 258.898031 166.762758 
L 259.244197 146.6362 
L 272.28119 150.378989 
L 271.803162 170.57712 
z
" style="fill:#330146;"/>
    <path clip-path="url(#pa14313cc16)" d="M 226.292478 165.747667 
L 239.002775 169.551023 
L 239.197058 142.966884 
L 226.318226 139.258145 
z
" style="fill:#840f8f;"/>
    <path clip-path="url(#pa14313cc16)" d="M 271.803162 170.57712 
L 284.848695 174.43298 
L 284.883126 173.294024 
L 271.830023 169.442148 
z
" style="fill:#110679;"/>
    <path clip-path="url(#pa14313cc16)" d="M 165.82912 174.154745 
L 173.686069 167.507715 
L 186.143392 171.330164 
L 178.361455 178.049733 
z
" style="fill:#0c044a;"/>
    <path clip-path="url(#pa14313cc16)" d="M 206.297214 168.527892 
L 205.903055 124.666794 
L 213.488213 118.397102 
L 213.718049 161.984967 
z
" style="fill:#b74367;"/>
    <path clip-path="url(#pa14313cc16)" d="M 284.848695 174.43298 
L 291.597749 167.780781 
L 304.698789 171.606197 
L 298.036935 178.33102 
z
" style="fill:#070448;"/>
    <path clip-path="url(#pa14313cc16)" d="M 271.803162 170.57712 
L 271.880294 167.318054 
L 284.947563 171.162457 
L 284.848695 174.43298 
z
" style="fill:#0e023c;"/>
    <path clip-path="url(#pa14313cc16)" d="M 284.860343 174.047656 
L 298.051199 177.944342 
L 304.714197 171.221859 
L 291.610575 167.397786 
z
" style="fill:#0a0667;"/>
    <path clip-path="url(#pa14313cc16)" d="M 193.780682 164.735494 
L 193.214034 127.437491 
L 205.960828 131.095636 
L 206.297214 168.527892 
z
" style="fill:#4f1738;"/>
    <path clip-path="url(#pa14313cc16)" d="M 193.780682 164.735494 
L 206.297214 168.527892 
L 205.954524 130.394104 
L 193.203415 126.738547 
z
" style="fill:#a93274;"/>
    <path clip-path="url(#pa14313cc16)" d="M 165.780209 172.481185 
L 178.32281 176.37029 
L 186.111589 169.660893 
L 173.644121 165.844278 
z
" style="fill:#11056a;"/>
    <path clip-path="url(#pa14313cc16)" d="M 226.318226 139.258145 
L 239.197058 142.966884 
L 246.41706 136.56866 
L 233.619598 132.929076 
z
" style="fill:#720d7c;"/>
    <path clip-path="url(#pa14313cc16)" d="M 251.851153 173.395697 
L 252.129352 153.144938 
L 259.244197 146.6362 
L 258.898031 166.762758 
z
" style="fill:#6c0295;"/>
    <path clip-path="url(#pa14313cc16)" d="M 198.736391 175.194243 
L 206.297214 168.527892 
L 218.949524 172.361429 
L 211.467294 179.100638 
z
" style="fill:#80442a;"/>
    <path clip-path="url(#pa14313cc16)" d="M 264.839875 177.282368 
L 264.906315 174.003421 
L 271.880294 167.318054 
L 271.803162 170.57712 
z
" style="fill:#1e057f;"/>
    <path clip-path="url(#pa14313cc16)" d="M 186.143392 171.330164 
L 185.428353 133.799176 
L 193.214034 127.437491 
L 193.780682 164.735494 
z
" style="fill:#a73076;"/>
    <path clip-path="url(#pa14313cc16)" d="M 231.739835 176.23678 
L 239.002775 169.551023 
L 251.851153 173.395697 
L 244.670417 180.154631 
z
" style="fill:#6f293e;"/>
    <path clip-path="url(#pa14313cc16)" d="M 251.851153 173.395697 
L 258.898031 166.762758 
L 259.373289 139.130632 
L 252.233112 145.592076 
z
" style="fill:#400942;"/>
    <path clip-path="url(#pa14313cc16)" d="M 178.361455 178.049733 
L 186.143392 171.330164 
L 186.111589 169.660893 
L 178.32281 176.37029 
z
" style="fill:#09033a;"/>
    <path clip-path="url(#pa14313cc16)" d="M 298.036935 178.33102 
L 304.698789 171.606197 
L 304.714197 171.221859 
L 298.051199 177.944342 
z
" style="fill:#050338;"/>
    <path clip-path="url(#pa14313cc16)" d="M 226.292478 165.747667 
L 226.335717 121.26399 
L 239.329049 124.906297 
L 239.002775 169.551023 
z
" style="fill:#572130;"/>
    <path clip-path="url(#pa14313cc16)" d="M 264.839875 177.282368 
L 271.803162 170.57712 
L 284.848695 174.43298 
L 277.971253 181.211726 
z
" style="fill:#12034d;"/>
    <path clip-path="url(#pa14313cc16)" d="M 165.82912 174.154745 
L 165.792653 172.906983 
L 178.332643 176.797586 
L 178.361455 178.049733 
z
" style="fill:#080339;"/>
    <path clip-path="url(#pa14313cc16)" d="M 239.002775 169.551023 
L 251.851153 173.395697 
L 252.233112 145.592076 
L 239.205245 141.846602 
z
" style="fill:#87128d;"/>
    <path clip-path="url(#pa14313cc16)" d="M 165.82912 174.154745 
L 178.361455 178.049733 
L 178.32281 176.37029 
L 165.780209 172.481185 
z
" style="fill:#13067a;"/>
    <path clip-path="url(#pa14313cc16)" d="M 284.848695 174.43298 
L 298.036935 178.33102 
L 298.051199 177.944342 
L 284.860343 174.047656 
z
" style="fill:#0b0777;"/>
    <path clip-path="url(#pa14313cc16)" d="M 284.848695 174.43298 
L 284.873281 173.619693 
L 298.067042 177.514875 
L 298.036935 178.33102 
z
" style="fill:#070339;"/>
    <path clip-path="url(#pa14313cc16)" d="M 193.203415 126.738547 
L 205.954524 130.394104 
L 213.518219 124.087733 
L 200.845759 120.500621 
z
" style="fill:#922c65;"/>
    <path clip-path="url(#pa14313cc16)" d="M 178.361455 178.049733 
L 186.143392 171.330164 
L 198.736391 175.194243 
L 191.031582 181.987547 
z
" style="fill:#5a1250;"/>
    <path clip-path="url(#pa14313cc16)" d="M 218.949524 172.361429 
L 226.292478 165.747667 
L 226.334999 122.002361 
L 218.831138 128.341422 
z
" style="fill:#562030;"/>
    <path clip-path="url(#pa14313cc16)" d="M 218.949524 172.361429 
L 218.829139 127.59826 
L 226.335717 121.26399 
L 226.292478 165.747667 
z
" style="fill:#b94565;"/>
    <path clip-path="url(#pa14313cc16)" d="M 264.906315 174.003421 
L 278.059718 177.921224 
L 284.947563 171.162457 
L 271.880294 167.318054 
z
" style="fill:#1a046e;"/>
    <path clip-path="url(#pa14313cc16)" d="M 264.839875 177.282368 
L 271.803162 170.57712 
L 272.28119 150.378989 
L 265.251672 156.959401 
z
" style="fill:#330146;"/>
    <path clip-path="url(#pa14313cc16)" d="M 211.467294 179.100638 
L 218.949524 172.361429 
L 231.739835 176.23678 
L 224.338378 183.050047 
z
" style="fill:#845022;"/>
    <path clip-path="url(#pa14313cc16)" d="M 157.822766 180.928173 
L 157.780915 179.672802 
L 165.792653 172.906983 
L 165.82912 174.154745 
z
" style="fill:#110679;"/>
    <path clip-path="url(#pa14313cc16)" d="M 239.205245 141.846602 
L 252.233112 145.592076 
L 259.373289 139.130632 
L 246.429111 135.455414 
z
" style="fill:#75107a;"/>
    <path clip-path="url(#pa14313cc16)" d="M 277.971253 181.211726 
L 277.993251 180.39348 
L 284.873281 173.619693 
L 284.848695 174.43298 
z
" style="fill:#0e0678;"/>
    <path clip-path="url(#pa14313cc16)" d="M 206.297214 168.527892 
L 218.949524 172.361429 
L 218.831138 128.341422 
L 205.903055 124.666794 
z
" style="fill:#b74367;"/>
    <path clip-path="url(#pa14313cc16)" d="M 277.971253 181.211726 
L 284.848695 174.43298 
L 284.947563 171.162457 
L 278.059718 177.921224 
z
" style="fill:#0e023c;"/>
    <path clip-path="url(#pa14313cc16)" d="M 198.736391 175.194243 
L 206.297214 168.527892 
L 205.960828 131.095636 
L 198.254444 137.527769 
z
" style="fill:#4f1738;"/>
    <path clip-path="url(#pa14313cc16)" d="M 244.670417 180.154631 
L 251.851153 173.395697 
L 264.839875 177.282368 
L 257.743589 184.115686 
z
" style="fill:#692243;"/>
    <path clip-path="url(#pa14313cc16)" d="M 186.143392 171.330164 
L 185.539724 139.644773 
L 198.329515 143.394974 
L 198.736391 175.194243 
z
" style="fill:#460e3f;"/>
    <path clip-path="url(#pa14313cc16)" d="M 251.851153 173.395697 
L 264.839875 177.282368 
L 265.251672 156.959401 
L 252.129352 153.144938 
z
" style="fill:#6c0295;"/>
    <path clip-path="url(#pa14313cc16)" d="M 252.129352 153.144938 
L 265.251672 156.959401 
L 272.28119 150.378989 
L 259.244197 146.6362 
z
" style="fill:#5d0181;"/>
    <path clip-path="url(#pa14313cc16)" d="M 239.002775 169.551023 
L 239.323945 125.604625 
L 252.457065 129.290003 
L 251.851153 173.395697 
z
" style="fill:#562030;"/>
    <path clip-path="url(#pa14313cc16)" d="M 157.822766 180.928173 
L 165.82912 174.154745 
L 178.361455 178.049733 
L 170.430723 184.897786 
z
" style="fill:#0a0449;"/>
    <path clip-path="url(#pa14313cc16)" d="M 277.971253 181.211726 
L 284.848695 174.43298 
L 298.036935 178.33102 
L 291.24765 185.184478 
z
" style="fill:#090449;"/>
    <path clip-path="url(#pa14313cc16)" d="M 264.839875 177.282368 
L 277.971253 181.211726 
L 278.059718 177.921224 
L 264.906315 174.003421 
z
" style="fill:#1e057f;"/>
    <path clip-path="url(#pa14313cc16)" d="M 186.143392 171.330164 
L 198.736391 175.194243 
L 198.254444 137.527769 
L 185.428353 133.799176 
z
" style="fill:#a73076;"/>
    <path clip-path="url(#pa14313cc16)" d="M 157.780915 179.672802 
L 170.396616 183.637993 
L 178.332643 176.797586 
L 165.792653 172.906983 
z
" style="fill:#0f0569;"/>
    <path clip-path="url(#pa14313cc16)" d="M 277.993251 180.39348 
L 291.275246 184.363351 
L 298.067042 177.514875 
L 284.873281 173.619693 
z
" style="fill:#0c0668;"/>
    <path clip-path="url(#pa14313cc16)" d="M 178.361455 178.049733 
L 177.627803 146.166724 
L 185.539724 139.644773 
L 186.143392 171.330164 
z
" style="fill:#951e85;"/>
    <path clip-path="url(#pa14313cc16)" d="M 191.031582 181.987547 
L 198.736391 175.194243 
L 211.467294 179.100638 
L 203.841786 185.968896 
z
" style="fill:#845022;"/>
    <path clip-path="url(#pa14313cc16)" d="M 231.739835 176.23678 
L 231.903502 132.013933 
L 239.323945 125.604625 
L 239.002775 169.551023 
z
" style="fill:#b74367;"/>
    <path clip-path="url(#pa14313cc16)" d="M 231.739835 176.23678 
L 239.002775 169.551023 
L 239.329049 124.906297 
L 231.906104 131.311064 
z
" style="fill:#572130;"/>
    <path clip-path="url(#pa14313cc16)" d="M 206.297214 168.527892 
L 205.76828 109.669263 
L 218.790651 113.28716 
L 218.949524 172.361429 
z
" style="fill:#643520;"/>
    <path clip-path="url(#pa14313cc16)" d="M 264.839875 177.282368 
L 265.101886 164.351591 
L 278.320131 168.235038 
L 277.971253 181.211726 
z
" style="fill:#240144;"/>
    <path clip-path="url(#pa14313cc16)" d="M 224.338378 183.050047 
L 231.739835 176.23678 
L 244.670417 180.154631 
L 237.351973 187.043183 
z
" style="fill:#814628;"/>
    <path clip-path="url(#pa14313cc16)" d="M 170.430723 184.897786 
L 178.361455 178.049733 
L 178.332643 176.797586 
L 170.396616 183.637993 
z
" style="fill:#080339;"/>
    <path clip-path="url(#pa14313cc16)" d="M 291.24765 185.184478 
L 298.036935 178.33102 
L 298.067042 177.514875 
L 291.275246 184.363351 
z
" style="fill:#070339;"/>
    <path clip-path="url(#pa14313cc16)" d="M 218.949524 172.361429 
L 231.739835 176.23678 
L 231.906104 131.311064 
L 218.829139 127.59826 
z
" style="fill:#b94565;"/>
    <path clip-path="url(#pa14313cc16)" d="M 198.736391 175.194243 
L 197.978498 115.961365 
L 205.76828 109.669263 
L 206.297214 168.527892 
z
" style="fill:#d47145;"/>
    <path clip-path="url(#pa14313cc16)" d="M 251.851153 173.395697 
L 252.404178 133.139767 
L 265.658519 136.880694 
L 264.839875 177.282368 
z
" style="fill:#521a35;"/>
    <path clip-path="url(#pa14313cc16)" d="M 205.903055 124.666794 
L 218.831138 128.341422 
L 226.334999 122.002361 
L 213.488213 118.397102 
z
" style="fill:#9f3a59;"/>
    <path clip-path="url(#pa14313cc16)" d="M 257.743589 184.115686 
L 264.839875 177.282368 
L 277.971253 181.211726 
L 270.961723 188.120663 
z
" style="fill:#2e0157;"/>
    <path clip-path="url(#pa14313cc16)" d="M 257.743589 184.115686 
L 257.96177 171.105245 
L 265.101886 164.351591 
L 264.839875 177.282368 
z
" style="fill:#4c0191;"/>
    <path clip-path="url(#pa14313cc16)" d="M 157.822766 180.928173 
L 157.78695 179.853831 
L 170.401535 183.81966 
L 170.430723 184.897786 
z
" style="fill:#080339;"/>
    <path clip-path="url(#pa14313cc16)" d="M 157.822766 180.928173 
L 170.430723 184.897786 
L 170.396616 183.637993 
L 157.780915 179.672802 
z
" style="fill:#110679;"/>
    <path clip-path="url(#pa14313cc16)" d="M 185.428353 133.799176 
L 198.254444 137.527769 
L 205.960828 131.095636 
L 193.214034 127.437491 
z
" style="fill:#912a66;"/>
    <path clip-path="url(#pa14313cc16)" d="M 277.971253 181.211726 
L 291.24765 185.184478 
L 291.275246 184.363351 
L 277.993251 180.39348 
z
" style="fill:#0e0678;"/>
    <path clip-path="url(#pa14313cc16)" d="M 170.430723 184.897786 
L 178.361455 178.049733 
L 191.031582 181.987547 
L 183.178635 188.911464 
z
" style="fill:#3f015a;"/>
    <path clip-path="url(#pa14313cc16)" d="M 277.971253 181.211726 
L 278.010873 179.738057 
L 291.29735 183.705617 
L 291.24765 185.184478 
z
" style="fill:#09033a;"/>
    <path clip-path="url(#pa14313cc16)" d="M 178.361455 178.049733 
L 177.905262 158.22451 
L 190.69927 162.091537 
L 191.031582 181.987547 
z
" style="fill:#310046;"/>
    <path clip-path="url(#pa14313cc16)" d="M 244.670417 180.154631 
L 245.083065 139.645781 
L 252.404178 133.139767 
L 251.851153 173.395697 
z
" style="fill:#ae386f;"/>
    <path clip-path="url(#pa14313cc16)" d="M 191.031582 181.987547 
L 198.736391 175.194243 
L 198.329515 143.394974 
L 190.497138 149.989636 
z
" style="fill:#460e3f;"/>
    <path clip-path="url(#pa14313cc16)" d="M 203.841786 185.968896 
L 211.467294 179.100638 
L 224.338378 183.050047 
L 216.794403 189.994506 
z
" style="fill:#876915;"/>
    <path clip-path="url(#pa14313cc16)" d="M 149.662704 187.831639 
L 149.622108 186.750732 
L 157.78695 179.853831 
L 157.822766 180.928173 
z
" style="fill:#110679;"/>
    <path clip-path="url(#pa14313cc16)" d="M 244.670417 180.154631 
L 251.851153 173.395697 
L 252.457065 129.290003 
L 245.122536 135.771018 
z
" style="fill:#562030;"/>
    <path clip-path="url(#pa14313cc16)" d="M 270.961723 188.120663 
L 270.996496 186.637985 
L 278.010873 179.738057 
L 277.971253 181.211726 
z
" style="fill:#13067a;"/>
    <path clip-path="url(#pa14313cc16)" d="M 170.430723 184.897786 
L 169.890673 164.949732 
L 177.905262 158.22451 
L 178.361455 178.049733 
z
" style="fill:#690195;"/>
    <path clip-path="url(#pa14313cc16)" d="M 237.351973 187.043183 
L 244.670417 180.154631 
L 257.743589 184.115686 
L 250.510457 191.080779 
z
" style="fill:#7f422b;"/>
    <path clip-path="url(#pa14313cc16)" d="M 178.361455 178.049733 
L 191.031582 181.987547 
L 190.497138 149.989636 
L 177.627803 146.166724 
z
" style="fill:#951e85;"/>
    <path clip-path="url(#pa14313cc16)" d="M 218.949524 172.361429 
L 218.776275 107.941823 
L 231.979128 111.579791 
L 231.739835 176.23678 
z
" style="fill:#673e1b;"/>
    <path clip-path="url(#pa14313cc16)" d="M 231.739835 176.23678 
L 244.670417 180.154631 
L 245.122536 135.771018 
L 231.903502 132.013933 
z
" style="fill:#b74367;"/>
    <path clip-path="url(#pa14313cc16)" d="M 211.467294 179.100638 
L 218.949524 172.361429 
L 218.790651 113.28716 
L 211.084124 119.650072 
z
" style="fill:#643520;"/>
    <path clip-path="url(#pa14313cc16)" d="M 149.662704 187.831639 
L 157.822766 180.928173 
L 170.430723 184.897786 
L 162.346885 191.878042 
z
" style="fill:#0a0449;"/>
    <path clip-path="url(#pa14313cc16)" d="M 270.961723 188.120663 
L 277.971253 181.211726 
L 291.24765 185.184478 
L 284.327244 192.170297 
z
" style="fill:#0c044a;"/>
    <path clip-path="url(#pa14313cc16)" d="M 149.622108 186.750732 
L 162.312996 190.79332 
L 170.401535 183.81966 
L 157.78695 179.853831 
z
" style="fill:#0f0569;"/>
    <path clip-path="url(#pa14313cc16)" d="M 218.829139 127.59826 
L 231.906104 131.311064 
L 239.329049 124.906297 
L 226.335717 121.26399 
z
" style="fill:#a03c58;"/>
    <path clip-path="url(#pa14313cc16)" d="M 270.961723 188.120663 
L 277.971253 181.211726 
L 278.320131 168.235038 
L 271.267937 175.063919 
z
" style="fill:#240144;"/>
    <path clip-path="url(#pa14313cc16)" d="M 270.996496 186.637985 
L 284.372235 190.682384 
L 291.29735 183.705617 
L 278.010873 179.738057 
z
" style="fill:#11056a;"/>
    <path clip-path="url(#pa14313cc16)" d="M 211.467294 179.100638 
L 211.049443 114.269045 
L 218.776275 107.941823 
L 218.949524 172.361429 
z
" style="fill:#db8439;"/>
    <path clip-path="url(#pa14313cc16)" d="M 257.96177 171.105245 
L 271.267937 175.063919 
L 278.320131 168.235038 
L 265.101886 164.351591 
z
" style="fill:#42017e;"/>
    <path clip-path="url(#pa14313cc16)" d="M 183.178635 188.911464 
L 191.031582 181.987547 
L 203.841786 185.968896 
L 196.068846 192.969946 
z
" style="fill:#875b1b;"/>
    <path clip-path="url(#pa14313cc16)" d="M 198.736391 175.194243 
L 211.467294 179.100638 
L 211.084124 119.650072 
L 197.978498 115.961365 
z
" style="fill:#d47145;"/>
    <path clip-path="url(#pa14313cc16)" d="M 257.743589 184.115686 
L 264.839875 177.282368 
L 265.658519 136.880694 
L 258.425378 143.459767 
z
" style="fill:#521a35;"/>
    <path clip-path="url(#pa14313cc16)" d="M 177.627803 146.166724 
L 190.497138 149.989636 
L 198.329515 143.394974 
L 185.539724 139.644773 
z
" style="fill:#811a73;"/>
    <path clip-path="url(#pa14313cc16)" d="M 257.743589 184.115686 
L 270.961723 188.120663 
L 271.267937 175.063919 
L 257.96177 171.105245 
z
" style="fill:#4c0191;"/>
    <path clip-path="url(#pa14313cc16)" d="M 216.794403 189.994506 
L 224.338378 183.050047 
L 237.351973 187.043183 
L 229.891821 194.06512 
z
" style="fill:#876c14;"/>
    <path clip-path="url(#pa14313cc16)" d="M 162.346885 191.878042 
L 170.430723 184.897786 
L 170.401535 183.81966 
L 162.312996 190.79332 
z
" style="fill:#080339;"/>
    <path clip-path="url(#pa14313cc16)" d="M 198.736391 175.194243 
L 197.909113 110.538524 
L 211.049039 114.206339 
L 211.467294 179.100638 
z
" style="fill:#673e1b;"/>
    <path clip-path="url(#pa14313cc16)" d="M 284.327244 192.170297 
L 291.24765 185.184478 
L 291.29735 183.705617 
L 284.372235 190.682384 
z
" style="fill:#09033a;"/>
    <path clip-path="url(#pa14313cc16)" d="M 170.430723 184.897786 
L 170.122466 173.511562 
L 182.94196 177.484759 
L 183.178635 188.911464 
z
" style="fill:#210143;"/>
    <path clip-path="url(#pa14313cc16)" d="M 231.739835 176.23678 
L 231.962639 116.035344 
L 245.285922 119.731693 
L 244.670417 180.154631 
z
" style="fill:#65371f;"/>
    <path clip-path="url(#pa14313cc16)" d="M 183.178635 188.911464 
L 191.031582 181.987547 
L 190.69927 162.091537 
L 182.763983 168.892012 
z
" style="fill:#310046;"/>
    <path clip-path="url(#pa14313cc16)" d="M 244.670417 180.154631 
L 257.743589 184.115686 
L 258.425378 143.459767 
L 245.083065 139.645781 
z
" style="fill:#ae386f;"/>
    <path clip-path="url(#pa14313cc16)" d="M 250.510457 191.080779 
L 257.743589 184.115686 
L 270.961723 188.120663 
L 263.816264 195.163579 
z
" style="fill:#571052;"/>
    <path clip-path="url(#pa14313cc16)" d="M 149.662704 187.831639 
L 149.622678 186.76592 
L 162.313472 190.808562 
L 162.346885 191.878042 
z
" style="fill:#080339;"/>
    <path clip-path="url(#pa14313cc16)" d="M 149.662704 187.831639 
L 162.346885 191.878042 
L 162.312996 190.79332 
L 149.622108 186.750732 
z
" style="fill:#110679;"/>
    <path clip-path="url(#pa14313cc16)" d="M 191.031582 181.987547 
L 189.944755 116.917766 
L 197.909113 110.538524 
L 198.736391 175.194243 
z
" style="fill:#db8439;"/>
    <path clip-path="url(#pa14313cc16)" d="M 162.346885 191.878042 
L 170.430723 184.897786 
L 183.178635 188.911464 
L 175.173234 195.969799 
z
" style="fill:#2a0156;"/>
    <path clip-path="url(#pa14313cc16)" d="M 270.961723 188.120663 
L 284.327244 192.170297 
L 284.372235 190.682384 
L 270.996496 186.637985 
z
" style="fill:#13067a;"/>
    <path clip-path="url(#pa14313cc16)" d="M 162.346885 191.878042 
L 161.988961 180.421579 
L 170.122466 173.511562 
L 170.430723 184.897786 
z
" style="fill:#45028f;"/>
    <path clip-path="url(#pa14313cc16)" d="M 224.338378 183.050047 
L 224.338378 122.464196 
L 231.962639 116.035344 
L 231.739835 176.23678 
z
" style="fill:#d67543;"/>
    <path clip-path="url(#pa14313cc16)" d="M 170.430723 184.897786 
L 183.178635 188.911464 
L 182.763983 168.892012 
L 169.890673 164.949732 
z
" style="fill:#690195;"/>
    <path clip-path="url(#pa14313cc16)" d="M 231.903502 132.013933 
L 245.122536 135.771018 
L 252.457065 129.290003 
L 239.323945 125.604625 
z
" style="fill:#9f3a59;"/>
    <path clip-path="url(#pa14313cc16)" d="M 169.890673 164.949732 
L 182.763983 168.892012 
L 190.69927 162.091537 
L 177.905262 158.22451 
z
" style="fill:#5b0181;"/>
    <path clip-path="url(#pa14313cc16)" d="M 270.961723 188.120663 
L 271.045456 184.550358 
L 284.435582 188.587364 
L 284.327244 192.170297 
z
" style="fill:#0f023c;"/>
    <path clip-path="url(#pa14313cc16)" d="M 224.338378 183.050047 
L 231.739835 176.23678 
L 231.979128 111.579791 
L 224.338378 117.97881 
z
" style="fill:#673e1b;"/>
    <path clip-path="url(#pa14313cc16)" d="M 196.068846 192.969946 
L 203.841786 185.968896 
L 216.794403 189.994506 
L 209.103753 197.073984 
z
" style="fill:#867213;"/>
    <path clip-path="url(#pa14313cc16)" d="M 141.344465 194.868925 
L 141.299549 193.796679 
L 149.622678 186.76592 
L 149.662704 187.831639 
z
" style="fill:#110679;"/>
    <path clip-path="url(#pa14313cc16)" d="M 257.743589 184.115686 
L 258.256555 153.526873 
L 271.681696 157.421484 
L 270.961723 188.120663 
z
" style="fill:#440c40;"/>
    <path clip-path="url(#pa14313cc16)" d="M 263.816264 195.163579 
L 263.887852 191.571365 
L 271.045456 184.550358 
L 270.961723 188.120663 
z
" style="fill:#200580;"/>
    <path clip-path="url(#pa14313cc16)" d="M 229.891821 194.06512 
L 237.351973 187.043183 
L 250.510457 191.080779 
L 243.136481 198.181496 
z
" style="fill:#875f19;"/>
    <path clip-path="url(#pa14313cc16)" d="M 244.670417 180.154631 
L 245.259595 122.316193 
L 258.717092 126.064484 
L 257.743589 184.115686 
z
" style="fill:#633322;"/>
    <path clip-path="url(#pa14313cc16)" d="M 211.467294 179.100638 
L 224.338378 183.050047 
L 224.338378 117.97881 
L 211.049443 114.269045 
z
" style="fill:#db8439;"/>
    <path clip-path="url(#pa14313cc16)" d="M 250.510457 191.080779 
L 250.916287 160.300454 
L 258.256555 153.526873 
L 257.743589 184.115686 
z
" style="fill:#901a88;"/>
    <path clip-path="url(#pa14313cc16)" d="M 245.083065 139.645781 
L 258.425378 143.459767 
L 265.658519 136.880694 
L 252.404178 133.139767 
z
" style="fill:#973161;"/>
    <path clip-path="url(#pa14313cc16)" d="M 141.344465 194.868925 
L 149.662704 187.831639 
L 162.346885 191.878042 
L 154.105465 198.994368 
z
" style="fill:#0a0449;"/>
    <path clip-path="url(#pa14313cc16)" d="M 263.816264 195.163579 
L 270.961723 188.120663 
L 284.327244 192.170297 
L 277.271882 199.292348 
z
" style="fill:#13034d;"/>
    <path clip-path="url(#pa14313cc16)" d="M 141.299549 193.796679 
L 154.067241 197.91833 
L 162.313472 190.808562 
L 149.622678 186.76592 
z
" style="fill:#0f0569;"/>
    <path clip-path="url(#pa14313cc16)" d="M 237.351973 187.043183 
L 237.7328 128.835505 
L 245.259595 122.316193 
L 244.670417 180.154631 
z
" style="fill:#d26d48;"/>
    <path clip-path="url(#pa14313cc16)" d="M 203.841786 185.968896 
L 211.467294 179.100638 
L 211.049039 114.206339 
L 203.169148 120.658272 
z
" style="fill:#673e1b;"/>
    <path clip-path="url(#pa14313cc16)" d="M 175.173234 195.969799 
L 183.178635 188.911464 
L 196.068846 192.969946 
L 188.144156 200.107676 
z
" style="fill:#844d24;"/>
    <path clip-path="url(#pa14313cc16)" d="M 175.173234 195.969799 
L 183.178635 188.911464 
L 182.94196 177.484759 
L 174.887767 184.472516 
z
" style="fill:#210143;"/>
    <path clip-path="url(#pa14313cc16)" d="M 237.351973 187.043183 
L 244.670417 180.154631 
L 245.285922 119.731693 
L 237.749822 126.233751 
z
" style="fill:#65371f;"/>
    <path clip-path="url(#pa14313cc16)" d="M 161.988961 180.421579 
L 174.887767 184.472516 
L 182.94196 177.484759 
L 170.122466 173.511562 
z
" style="fill:#3c027c;"/>
    <path clip-path="url(#pa14313cc16)" d="M 211.467294 179.100638 
L 210.979112 103.356887 
L 224.338378 107.024028 
L 224.338378 183.050047 
z
" style="fill:#6a5210;"/>
    <path clip-path="url(#pa14313cc16)" d="M 197.978498 115.961365 
L 211.084124 119.650072 
L 218.790651 113.28716 
L 205.76828 109.669263 
z
" style="fill:#b8623c;"/>
    <path clip-path="url(#pa14313cc16)" d="M 263.887852 191.571365 
L 277.368412 195.687403 
L 284.435582 188.587364 
L 271.045456 184.550358 
z
" style="fill:#1b046f;"/>
    <path clip-path="url(#pa14313cc16)" d="M 162.346885 191.878042 
L 162.135632 185.116242 
L 175.004748 189.183996 
L 175.173234 195.969799 
z
" style="fill:#170240;"/>
    <path clip-path="url(#pa14313cc16)" d="M 209.103753 197.073984 
L 216.794403 189.994506 
L 229.891821 194.06512 
L 222.285805 201.224351 
z
" style="fill:#837b14;"/>
    <path clip-path="url(#pa14313cc16)" d="M 154.105465 198.994368 
L 162.346885 191.878042 
L 162.313472 190.808562 
L 154.067241 197.91833 
z
" style="fill:#080339;"/>
    <path clip-path="url(#pa14313cc16)" d="M 191.031582 181.987547 
L 203.841786 185.968896 
L 203.169148 120.658272 
L 189.944755 116.917766 
z
" style="fill:#db8439;"/>
    <path clip-path="url(#pa14313cc16)" d="M 162.346885 191.878042 
L 175.173234 195.969799 
L 174.887767 184.472516 
L 161.988961 180.421579 
z
" style="fill:#45028f;"/>
    <path clip-path="url(#pa14313cc16)" d="M 224.338378 183.050047 
L 237.351973 187.043183 
L 237.749822 126.233751 
L 224.338378 122.464196 
z
" style="fill:#d67543;"/>
    <path clip-path="url(#pa14313cc16)" d="M 203.841786 185.968896 
L 203.056651 109.735249 
L 210.979112 103.356887 
L 211.467294 179.100638 
z
" style="fill:#e0ae23;"/>
    <path clip-path="url(#pa14313cc16)" d="M 277.271882 199.292348 
L 284.327244 192.170297 
L 284.435582 188.587364 
L 277.368412 195.687403 
z
" style="fill:#0f023c;"/>
    <path clip-path="url(#pa14313cc16)" d="M 154.105465 198.994368 
L 153.863787 192.190923 
L 162.135632 185.116242 
L 162.346885 191.878042 
z
" style="fill:#300487;"/>
    <path clip-path="url(#pa14313cc16)" d="M 243.136481 198.181496 
L 250.510457 191.080779 
L 263.816264 195.163579 
L 256.530882 202.34441 
z
" style="fill:#773435;"/>
    <path clip-path="url(#pa14313cc16)" d="M 191.031582 181.987547 
L 189.860093 111.848906 
L 203.11674 115.56966 
L 203.841786 185.968896 
z
" style="fill:#694715;"/>
    <path clip-path="url(#pa14313cc16)" d="M 141.344465 194.868925 
L 154.105465 198.994368 
L 154.067241 197.91833 
L 141.299549 193.796679 
z
" style="fill:#110679;"/>
    <path clip-path="url(#pa14313cc16)" d="M 263.816264 195.163579 
L 270.961723 188.120663 
L 271.681696 157.421484 
L 264.431897 164.271927 
z
" style="fill:#440c40;"/>
    <path clip-path="url(#pa14313cc16)" d="M 154.105465 198.994368 
L 162.346885 191.878042 
L 175.173234 195.969799 
L 167.010898 203.166503 
z
" style="fill:#1d0251;"/>
    <path clip-path="url(#pa14313cc16)" d="M 263.816264 195.163579 
L 277.271882 199.292348 
L 277.368412 195.687403 
L 263.887852 191.571365 
z
" style="fill:#200580;"/>
    <path clip-path="url(#pa14313cc16)" d="M 250.510457 191.080779 
L 257.743589 184.115686 
L 258.717092 126.064484 
L 251.28074 132.658362 
z
" style="fill:#633322;"/>
    <path clip-path="url(#pa14313cc16)" d="M 183.178635 188.911464 
L 181.716524 118.320557 
L 189.860093 111.848906 
L 191.031582 181.987547 
z
" style="fill:#df972d;"/>
    <path clip-path="url(#pa14313cc16)" d="M 263.816264 195.163579 
L 263.961031 187.899343 
L 277.467089 192.002293 
L 277.271882 199.292348 
z
" style="fill:#180240;"/>
    <path clip-path="url(#pa14313cc16)" d="M 188.144156 200.107676 
L 196.068846 192.969946 
L 209.103753 197.073984 
L 201.262108 204.292457 
z
" style="fill:#867113;"/>
    <path clip-path="url(#pa14313cc16)" d="M 250.510457 191.080779 
L 263.816264 195.163579 
L 264.431897 164.271927 
L 250.916287 160.300454 
z
" style="fill:#901a88;"/>
    <path clip-path="url(#pa14313cc16)" d="M 224.338378 183.050047 
L 224.338378 105.733018 
L 237.859714 109.437222 
L 237.351973 187.043183 
z
" style="fill:#695410;"/>
    <path clip-path="url(#pa14313cc16)" d="M 222.285805 201.224351 
L 229.891821 194.06512 
L 243.136481 198.181496 
L 235.617509 205.421836 
z
" style="fill:#857714;"/>
    <path clip-path="url(#pa14313cc16)" d="M 237.351973 187.043183 
L 250.510457 191.080779 
L 251.28074 132.658362 
L 237.7328 128.835505 
z
" style="fill:#d26d48;"/>
    <path clip-path="url(#pa14313cc16)" d="M 153.863787 192.190923 
L 166.812508 196.338862 
L 175.004748 189.183996 
L 162.135632 185.116242 
z
" style="fill:#2a0375;"/>
    <path clip-path="url(#pa14313cc16)" d="M 256.530882 202.34441 
L 256.650093 195.035378 
L 263.961031 187.899343 
L 263.816264 195.163579 
z
" style="fill:#320488;"/>
    <path clip-path="url(#pa14313cc16)" d="M 216.794403 189.994506 
L 224.338378 183.050047 
L 224.338378 107.024028 
L 216.503758 113.475877 
z
" style="fill:#6a5210;"/>
    <path clip-path="url(#pa14313cc16)" d="M 216.794403 189.994506 
L 216.498821 112.176017 
L 224.338378 105.733018 
L 224.338378 183.050047 
z
" style="fill:#dfb222;"/>
    <path clip-path="url(#pa14313cc16)" d="M 167.010898 203.166503 
L 175.173234 195.969799 
L 175.004748 189.183996 
L 166.812508 196.338862 
z
" style="fill:#170240;"/>
    <path clip-path="url(#pa14313cc16)" d="M 256.530882 202.34441 
L 263.816264 195.163579 
L 277.271882 199.292348 
L 270.077576 206.554656 
z
" style="fill:#1e0252;"/>
    <path clip-path="url(#pa14313cc16)" d="M 211.049443 114.269045 
L 224.338378 117.97881 
L 231.979128 111.579791 
L 218.776275 107.941823 
z
" style="fill:#be7331;"/>
    <path clip-path="url(#pa14313cc16)" d="M 250.916287 160.300454 
L 264.431897 164.271927 
L 271.681696 157.421484 
L 258.256555 153.526873 
z
" style="fill:#7d1776;"/>
    <path clip-path="url(#pa14313cc16)" d="M 167.010898 203.166503 
L 175.173234 195.969799 
L 188.144156 200.107676 
L 180.063228 207.386128 
z
" style="fill:#712c3c;"/>
    <path clip-path="url(#pa14313cc16)" d="M 203.841786 185.968896 
L 216.794403 189.994506 
L 216.503758 113.475877 
L 203.056651 109.735249 
z
" style="fill:#e0ae23;"/>
    <path clip-path="url(#pa14313cc16)" d="M 237.351973 187.043183 
L 237.823961 114.902033 
L 251.465165 118.670663 
L 250.510457 191.080779 
z
" style="fill:#6a4a14;"/>
    <path clip-path="url(#pa14313cc16)" d="M 154.105465 198.994368 
L 167.010898 203.166503 
L 166.812508 196.338862 
L 153.863787 192.190923 
z
" style="fill:#300487;"/>
    <path clip-path="url(#pa14313cc16)" d="M 196.068846 192.969946 
L 203.841786 185.968896 
L 203.11674 115.56966 
L 195.058827 122.115976 
z
" style="fill:#694715;"/>
    <path clip-path="url(#pa14313cc16)" d="M 250.510457 191.080779 
L 251.188768 139.634046 
L 264.845303 143.527763 
L 263.816264 195.163579 
z
" style="fill:#5d2929;"/>
    <path clip-path="url(#pa14313cc16)" d="M 203.841786 185.968896 
L 203.016593 105.845793 
L 216.488926 109.571008 
L 216.794403 189.994506 
z
" style="fill:#68590f;"/>
    <path clip-path="url(#pa14313cc16)" d="M 183.178635 188.911464 
L 181.849263 124.72923 
L 195.150539 128.549691 
L 196.068846 192.969946 
z
" style="fill:#673d1c;"/>
    <path clip-path="url(#pa14313cc16)" d="M 201.262108 204.292457 
L 209.103753 197.073984 
L 222.285805 201.224351 
L 214.529606 208.524945 
z
" style="fill:#818115;"/>
    <path clip-path="url(#pa14313cc16)" d="M 224.338378 122.464196 
L 237.749822 126.233751 
L 245.285922 119.731693 
L 231.962639 116.035344 
z
" style="fill:#ba653a;"/>
    <path clip-path="url(#pa14313cc16)" d="M 256.650093 195.035378 
L 270.247918 199.219598 
L 277.467089 192.002293 
L 263.961031 187.899343 
z
" style="fill:#2b0376;"/>
    <path clip-path="url(#pa14313cc16)" d="M 229.891821 194.06512 
L 230.095259 121.457179 
L 237.823961 114.902033 
L 237.351973 187.043183 
z
" style="fill:#e09d2a;"/>
    <path clip-path="url(#pa14313cc16)" d="M 235.617509 205.421836 
L 243.136481 198.181496 
L 256.530882 202.34441 
L 249.101427 209.667246 
z
" style="fill:#855121;"/>
    <path clip-path="url(#pa14313cc16)" d="M 183.178635 188.911464 
L 196.068846 192.969946 
L 195.058827 122.115976 
L 181.716524 118.320557 
z
" style="fill:#df972d;"/>
    <path clip-path="url(#pa14313cc16)" d="M 189.944755 116.917766 
L 203.169148 120.658272 
L 211.049039 114.206339 
L 197.909113 110.538524 
z
" style="fill:#be7331;"/>
    <path clip-path="url(#pa14313cc16)" d="M 243.136481 198.181496 
L 243.628546 146.406639 
L 251.188768 139.634046 
L 250.510457 191.080779 
z
" style="fill:#c55658;"/>
    <path clip-path="url(#pa14313cc16)" d="M 196.068846 192.969946 
L 194.919265 112.325488 
L 203.016593 105.845793 
L 203.841786 185.968896 
z
" style="fill:#ddbe20;"/>
    <path clip-path="url(#pa14313cc16)" d="M 270.077576 206.554656 
L 277.271882 199.292348 
L 277.467089 192.002293 
L 270.247918 199.219598 
z
" style="fill:#180240;"/>
    <path clip-path="url(#pa14313cc16)" d="M 175.173234 195.969799 
L 173.569389 131.374496 
L 181.849263 124.72923 
L 183.178635 188.911464 
z
" style="fill:#da803b;"/>
    <path clip-path="url(#pa14313cc16)" d="M 229.891821 194.06512 
L 237.351973 187.043183 
L 237.859714 109.437222 
L 230.110676 115.954929 
z
" style="fill:#695410;"/>
    <path clip-path="url(#pa14313cc16)" d="M 256.530882 202.34441 
L 270.077576 206.554656 
L 270.247918 199.219598 
L 256.650093 195.035378 
z
" style="fill:#320488;"/>
    <path clip-path="url(#pa14313cc16)" d="M 180.063228 207.386128 
L 188.144156 200.107676 
L 201.262108 204.292457 
L 193.264978 211.654059 
z
" style="fill:#875a1c;"/>
    <path clip-path="url(#pa14313cc16)" d="M 216.794403 189.994506 
L 229.891821 194.06512 
L 230.110676 115.954929 
L 216.498821 112.176017 
z
" style="fill:#dfb222;"/>
    <path clip-path="url(#pa14313cc16)" d="M 237.7328 128.835505 
L 251.28074 132.658362 
L 258.717092 126.064484 
L 245.259595 122.316193 
z
" style="fill:#b65e3e;"/>
    <path clip-path="url(#pa14313cc16)" d="M 175.173234 195.969799 
L 174.011114 149.165101 
L 187.283694 153.131299 
L 188.144156 200.107676 
z
" style="fill:#58222f;"/>
    <path clip-path="url(#pa14313cc16)" d="M 214.529606 208.524945 
L 222.285805 201.224351 
L 235.617509 205.421836 
L 227.94922 212.80596 
z
" style="fill:#808512;"/>
    <path clip-path="url(#pa14313cc16)" d="M 256.530882 202.34441 
L 256.789193 186.506993 
L 270.446688 190.660454 
L 270.077576 206.554656 
z
" style="fill:#290046;"/>
    <path clip-path="url(#pa14313cc16)" d="M 216.794403 189.994506 
L 216.474702 105.826128 
L 230.128538 109.579728 
L 229.891821 194.06512 
z
" style="fill:#666010;"/>
    <path clip-path="url(#pa14313cc16)" d="M 243.136481 198.181496 
L 250.510457 191.080779 
L 251.465165 118.670663 
L 243.829123 125.302057 
z
" style="fill:#6a4a14;"/>
    <path clip-path="url(#pa14313cc16)" d="M 249.101427 209.667246 
L 256.530882 202.34441 
L 270.077576 206.554656 
L 262.740181 213.961405 
z
" style="fill:#350059;"/>
    <path clip-path="url(#pa14313cc16)" d="M 167.010898 203.166503 
L 165.642245 156.063895 
L 174.011114 149.165101 
L 175.173234 195.969799 
z
" style="fill:#bb4863;"/>
    <path clip-path="url(#pa14313cc16)" d="M 256.530882 202.34441 
L 263.816264 195.163579 
L 264.845303 143.527763 
L 257.378451 150.378775 
z
" style="fill:#5d2929;"/>
    <path clip-path="url(#pa14313cc16)" d="M 209.103753 197.073984 
L 216.794403 189.994506 
L 216.488926 109.571008 
L 208.480617 116.126254 
z
" style="fill:#68590f;"/>
    <path clip-path="url(#pa14313cc16)" d="M 188.144156 200.107676 
L 196.068846 192.969946 
L 195.150539 128.549691 
L 186.95657 135.272154 
z
" style="fill:#673d1c;"/>
    <path clip-path="url(#pa14313cc16)" d="M 249.101427 209.667246 
L 249.302105 193.731306 
L 256.789193 186.506993 
L 256.530882 202.34441 
z
" style="fill:#570093;"/>
    <path clip-path="url(#pa14313cc16)" d="M 209.103753 197.073984 
L 208.451589 112.35541 
L 216.474702 105.826128 
L 216.794403 189.994506 
z
" style="fill:#d9cd22;"/>
    <path clip-path="url(#pa14313cc16)" d="M 229.891821 194.06512 
L 243.136481 198.181496 
L 243.829123 125.302057 
L 230.095259 121.457179 
z
" style="fill:#e09d2a;"/>
    <path clip-path="url(#pa14313cc16)" d="M 196.068846 192.969946 
L 194.925073 112.732956 
L 208.483766 116.535346 
L 209.103753 197.073984 
z
" style="fill:#69580f;"/>
    <path clip-path="url(#pa14313cc16)" d="M 243.136481 198.181496 
L 256.530882 202.34441 
L 257.378451 150.378775 
L 243.628546 146.406639 
z
" style="fill:#c55658;"/>
    <path clip-path="url(#pa14313cc16)" d="M 196.068846 192.969946 
L 209.103753 197.073984 
L 208.480617 116.126254 
L 194.919265 112.325488 
z
" style="fill:#ddbe20;"/>
    <path clip-path="url(#pa14313cc16)" d="M 175.173234 195.969799 
L 188.144156 200.107676 
L 186.95657 135.272154 
L 173.569389 131.374496 
z
" style="fill:#da803b;"/>
    <path clip-path="url(#pa14313cc16)" d="M 193.264978 211.654059 
L 201.262108 204.292457 
L 214.529606 208.524945 
L 206.61873 215.971129 
z
" style="fill:#876815;"/>
    <path clip-path="url(#pa14313cc16)" d="M 227.94922 212.80596 
L 235.617509 205.421836 
L 249.101427 209.667246 
L 241.523583 217.136342 
z
" style="fill:#876317;"/>
    <path clip-path="url(#pa14313cc16)" d="M 188.144156 200.107676 
L 186.664874 119.347171 
L 194.925073 112.732956 
L 196.068846 192.969946 
z
" style="fill:#debb20;"/>
    <path clip-path="url(#pa14313cc16)" d="M 229.891821 194.06512 
L 230.123848 111.253648 
L 243.926482 115.057966 
L 243.136481 198.181496 
z
" style="fill:#685d0f;"/>
    <path clip-path="url(#pa14313cc16)" d="M 203.056651 109.735249 
L 216.503758 113.475877 
L 224.338378 107.024028 
L 210.979112 103.356887 
z
" style="fill:#c2971e;"/>
    <path clip-path="url(#pa14313cc16)" d="M 180.063228 207.386128 
L 188.144156 200.107676 
L 187.283694 153.131299 
L 179.00003 160.110335 
z
" style="fill:#58222f;"/>
    <path clip-path="url(#pa14313cc16)" d="M 243.136481 198.181496 
L 243.771043 131.413218 
L 257.623945 135.327234 
L 256.530882 202.34441 
z
" style="fill:#683f1a;"/>
    <path clip-path="url(#pa14313cc16)" d="M 222.285805 201.224351 
L 222.199173 117.871295 
L 230.123848 111.253648 
L 229.891821 194.06512 
z
" style="fill:#dbc520;"/>
    <path clip-path="url(#pa14313cc16)" d="M 181.716524 118.320557 
L 195.058827 122.115976 
L 203.11674 115.56966 
L 189.860093 111.848906 
z
" style="fill:#c28327;"/>
    <path clip-path="url(#pa14313cc16)" d="M 262.740181 213.961405 
L 270.077576 206.554656 
L 270.446688 190.660454 
L 263.053188 197.968225 
z
" style="fill:#290046;"/>
    <path clip-path="url(#pa14313cc16)" d="M 222.285805 201.224351 
L 229.891821 194.06512 
L 230.128538 109.579728 
L 222.197421 116.185725 
z
" style="fill:#666010;"/>
    <path clip-path="url(#pa14313cc16)" d="M 249.302105 193.731306 
L 263.053188 197.968225 
L 270.446688 190.660454 
L 256.789193 186.506993 
z
" style="fill:#4c0080;"/>
    <path clip-path="url(#pa14313cc16)" d="M 167.010898 203.166503 
L 180.063228 207.386128 
L 179.00003 160.110335 
L 165.642245 156.063895 
z
" style="fill:#bb4863;"/>
    <path clip-path="url(#pa14313cc16)" d="M 235.617509 205.421836 
L 236.002126 138.221624 
L 243.771043 131.413218 
L 243.136481 198.181496 
z
" style="fill:#dc8637;"/>
    <path clip-path="url(#pa14313cc16)" d="M 206.61873 215.971129 
L 214.529606 208.524945 
L 227.94922 212.80596 
L 220.127123 220.338193 
z
" style="fill:#876c14;"/>
    <path clip-path="url(#pa14313cc16)" d="M 249.101427 209.667246 
L 262.740181 213.961405 
L 263.053188 197.968225 
L 249.302105 193.731306 
z
" style="fill:#570093;"/>
    <path clip-path="url(#pa14313cc16)" d="M 209.103753 197.073984 
L 222.285805 201.224351 
L 222.197421 116.185725 
L 208.451589 112.35541 
z
" style="fill:#d9cd22;"/>
    <path clip-path="url(#pa14313cc16)" d="M 209.103753 197.073984 
L 208.434947 110.193586 
L 222.195166 114.015197 
L 222.285805 201.224351 
z
" style="fill:#656510;"/>
    <path clip-path="url(#pa14313cc16)" d="M 241.523583 217.136342 
L 249.101427 209.667246 
L 262.740181 213.961405 
L 255.255385 221.516949 
z
" style="fill:#520c55;"/>
    <path clip-path="url(#pa14313cc16)" d="M 188.144156 200.107676 
L 186.840481 128.934344 
L 200.426046 132.852737 
L 201.262108 204.292457 
z
" style="fill:#694716;"/>
    <path clip-path="url(#pa14313cc16)" d="M 201.262108 204.292457 
L 209.103753 197.073984 
L 208.483766 116.535346 
L 200.313401 123.227451 
z
" style="fill:#69580f;"/>
    <path clip-path="url(#pa14313cc16)" d="M 243.628546 146.406639 
L 257.378451 150.378775 
L 264.845303 143.527763 
L 251.188768 139.634046 
z
" style="fill:#ab4b4c;"/>
    <path clip-path="url(#pa14313cc16)" d="M 216.498821 112.176017 
L 230.110676 115.954929 
L 237.859714 109.437222 
L 224.338378 105.733018 
z
" style="fill:#c29b1d;"/>
    <path clip-path="url(#pa14313cc16)" d="M 201.262108 204.292457 
L 200.238666 116.841492 
L 208.434947 110.193586 
L 209.103753 197.073984 
z
" style="fill:#d6d622;"/>
    <path clip-path="url(#pa14313cc16)" d="M 180.063228 207.386128 
L 178.452195 135.750505 
L 186.840481 128.934344 
L 188.144156 200.107676 
z
" style="fill:#df962e;"/>
    <path clip-path="url(#pa14313cc16)" d="M 249.101427 209.667246 
L 249.465771 180.734573 
L 263.308486 184.923706 
L 262.740181 213.961405 
z
" style="fill:#400942;"/>
    <path clip-path="url(#pa14313cc16)" d="M 188.144156 200.107676 
L 201.262108 204.292457 
L 200.313401 123.227451 
L 186.664874 119.347171 
z
" style="fill:#debb20;"/>
    <path clip-path="url(#pa14313cc16)" d="M 235.617509 205.421836 
L 243.136481 198.181496 
L 243.926482 115.057966 
L 236.096379 121.753763 
z
" style="fill:#685d0f;"/>
    <path clip-path="url(#pa14313cc16)" d="M 173.569389 131.374496 
L 186.95657 135.272154 
L 195.150539 128.549691 
L 181.849263 124.72923 
z
" style="fill:#bd6f33;"/>
    <path clip-path="url(#pa14313cc16)" d="M 249.101427 209.667246 
L 256.530882 202.34441 
L 257.623945 135.327234 
L 249.950829 142.21587 
z
" style="fill:#683f1a;"/>
    <path clip-path="url(#pa14313cc16)" d="M 220.127123 220.338193 
L 227.94922 212.80596 
L 241.523583 217.136342 
L 233.792858 224.756123 
z
" style="fill:#86561e;"/>
    <path clip-path="url(#pa14313cc16)" d="M 241.523583 217.136342 
L 241.778995 188.021445 
L 249.465771 180.734573 
L 249.101427 209.667246 
z
" style="fill:#88138c;"/>
    <path clip-path="url(#pa14313cc16)" d="M 222.285805 201.224351 
L 235.617509 205.421836 
L 236.096379 121.753763 
L 222.199173 117.871295 
z
" style="fill:#dbc520;"/>
    <path clip-path="url(#pa14313cc16)" d="M 165.642245 156.063895 
L 179.00003 160.110335 
L 187.283694 153.131299 
L 174.011114 149.165101 
z
" style="fill:#a23f56;"/>
    <path clip-path="url(#pa14313cc16)" d="M 230.095259 121.457179 
L 243.829123 125.302057 
L 251.465165 118.670663 
L 237.823961 114.902033 
z
" style="fill:#c28924;"/>
    <path clip-path="url(#pa14313cc16)" d="M 222.285805 201.224351 
L 222.193545 112.455764 
L 236.127499 116.316377 
L 235.617509 205.421836 
z
" style="fill:#64680e;"/>
    <path clip-path="url(#pa14313cc16)" d="M 235.617509 205.421836 
L 249.101427 209.667246 
L 249.950829 142.21587 
L 236.002126 138.221624 
z
" style="fill:#dc8637;"/>
    <path clip-path="url(#pa14313cc16)" d="M 201.262108 204.292457 
L 200.35886 127.111799 
L 214.143397 131.053683 
L 214.529606 208.524945 
z
" style="fill:#6a5111;"/>
    <path clip-path="url(#pa14313cc16)" d="M 194.919265 112.325488 
L 208.480617 116.126254 
L 216.488926 109.571008 
L 203.016593 105.845793 
z
" style="fill:#c0a51c;"/>
    <path clip-path="url(#pa14313cc16)" d="M 214.529606 208.524945 
L 222.285805 201.224351 
L 222.195166 114.015197 
L 214.091992 120.7421 
z
" style="fill:#656510;"/>
    <path clip-path="url(#pa14313cc16)" d="M 193.264978 211.654059 
L 201.262108 204.292457 
L 200.426046 132.852737 
L 192.127607 139.749611 
z
" style="fill:#694716;"/>
    <path clip-path="url(#pa14313cc16)" d="M 214.529606 208.524945 
L 214.084164 119.171711 
L 222.193545 112.455764 
L 222.285805 201.224351 
z
" style="fill:#d4dc1e;"/>
    <path clip-path="url(#pa14313cc16)" d="M 235.617509 205.421836 
L 236.048464 130.125358 
L 250.053188 134.08757 
L 249.101427 209.667246 
z
" style="fill:#6a4d12;"/>
    <path clip-path="url(#pa14313cc16)" d="M 193.264978 211.654059 
L 192.036172 133.969083 
L 200.35886 127.111799 
L 201.262108 204.292457 
z
" style="fill:#e0ac23;"/>
    <path clip-path="url(#pa14313cc16)" d="M 201.262108 204.292457 
L 214.529606 208.524945 
L 214.091992 120.7421 
L 200.238666 116.841492 
z
" style="fill:#d6d622;"/>
    <path clip-path="url(#pa14313cc16)" d="M 233.792858 224.756123 
L 241.523583 217.136342 
L 255.255385 221.516949 
L 247.618703 229.225814 
z
" style="fill:#631b49;"/>
    <path clip-path="url(#pa14313cc16)" d="M 180.063228 207.386128 
L 193.264978 211.654059 
L 192.127607 139.749611 
L 178.452195 135.750505 
z
" style="fill:#df962e;"/>
    <path clip-path="url(#pa14313cc16)" d="M 255.255385 221.516949 
L 262.740181 213.961405 
L 263.308486 184.923706 
L 255.717588 192.296174 
z
" style="fill:#400942;"/>
    <path clip-path="url(#pa14313cc16)" d="M 227.94922 212.80596 
L 228.088607 137.018023 
L 236.048464 130.125358 
L 235.617509 205.421836 
z
" style="fill:#e0a427;"/>
    <path clip-path="url(#pa14313cc16)" d="M 241.523583 217.136342 
L 255.255385 221.516949 
L 255.717588 192.296174 
L 241.778995 188.021445 
z
" style="fill:#88138c;"/>
    <path clip-path="url(#pa14313cc16)" d="M 214.529606 208.524945 
L 214.134749 129.318836 
L 228.095443 133.300762 
L 227.94922 212.80596 
z
" style="fill:#695410;"/>
    <path clip-path="url(#pa14313cc16)" d="M 227.94922 212.80596 
L 235.617509 205.421836 
L 236.127499 116.316377 
L 228.114181 123.112669 
z
" style="fill:#64680e;"/>
    <path clip-path="url(#pa14313cc16)" d="M 241.523583 217.136342 
L 241.859321 178.86494 
L 255.862966 183.10533 
L 255.255385 221.516949 
z
" style="fill:#4d1539;"/>
    <path clip-path="url(#pa14313cc16)" d="M 241.778995 188.021445 
L 255.717588 192.296174 
L 263.308486 184.923706 
L 249.465771 180.734573 
z
" style="fill:#76117a;"/>
    <path clip-path="url(#pa14313cc16)" d="M 208.451589 112.35541 
L 222.197421 116.185725 
L 230.128538 109.579728 
L 216.474702 105.826128 
z
" style="fill:#bcb21d;"/>
    <path clip-path="url(#pa14313cc16)" d="M 206.61873 215.971129 
L 214.529606 208.524945 
L 214.143397 131.053683 
L 205.913807 137.992884 
z
" style="fill:#6a5111;"/>
    <path clip-path="url(#pa14313cc16)" d="M 206.61873 215.971129 
L 205.898015 136.245981 
L 214.134749 129.318836 
L 214.529606 208.524945 
z
" style="fill:#dfb222;"/>
    <path clip-path="url(#pa14313cc16)" d="M 214.529606 208.524945 
L 227.94922 212.80596 
L 228.114181 123.112669 
L 214.084164 119.171711 
z
" style="fill:#d4dc1e;"/>
    <path clip-path="url(#pa14313cc16)" d="M 241.523583 217.136342 
L 249.101427 209.667246 
L 250.053188 134.08757 
L 242.190943 141.062625 
z
" style="fill:#6a4d12;"/>
    <path clip-path="url(#pa14313cc16)" d="M 233.792858 224.756123 
L 233.979465 186.241442 
L 241.859321 178.86494 
L 241.523583 217.136342 
z
" style="fill:#a42d79;"/>
    <path clip-path="url(#pa14313cc16)" d="M 227.94922 212.80596 
L 228.078174 142.69036 
L 242.140985 146.757524 
L 241.523583 217.136342 
z
" style="fill:#694418;"/>
    <path clip-path="url(#pa14313cc16)" d="M 186.664874 119.347171 
L 200.313401 123.227451 
L 208.483766 116.535346 
L 194.925073 112.732956 
z
" style="fill:#c1a21c;"/>
    <path clip-path="url(#pa14313cc16)" d="M 193.264978 211.654059 
L 206.61873 215.971129 
L 205.913807 137.992884 
L 192.036172 133.969083 
z
" style="fill:#e0ac23;"/>
    <path clip-path="url(#pa14313cc16)" d="M 236.002126 138.221624 
L 249.950829 142.21587 
L 257.623945 135.327234 
L 243.771043 131.413218 
z
" style="fill:#bf7530;"/>
    <path clip-path="url(#pa14313cc16)" d="M 227.94922 212.80596 
L 241.523583 217.136342 
L 242.190943 141.062625 
L 228.088607 137.018023 
z
" style="fill:#e0a427;"/>
    <path clip-path="url(#pa14313cc16)" d="M 220.127123 220.338193 
L 219.975163 149.765832 
L 228.078174 142.69036 
L 227.94922 212.80596 
z
" style="fill:#de8f32;"/>
    <path clip-path="url(#pa14313cc16)" d="M 222.199173 117.871295 
L 236.096379 121.753763 
L 243.926482 115.057966 
L 230.123848 111.253648 
z
" style="fill:#bfab1c;"/>
    <path clip-path="url(#pa14313cc16)" d="M 220.127123 220.338193 
L 227.94922 212.80596 
L 228.095443 133.300762 
L 219.954805 140.311226 
z
" style="fill:#695410;"/>
    <path clip-path="url(#pa14313cc16)" d="M 178.452195 135.750505 
L 192.127607 139.749611 
L 200.426046 132.852737 
L 186.840481 128.934344 
z
" style="fill:#c28228;"/>
    <path clip-path="url(#pa14313cc16)" d="M 247.618703 229.225814 
L 255.255385 221.516949 
L 255.862966 183.10533 
L 248.080941 190.56978 
z
" style="fill:#4d1539;"/>
    <path clip-path="url(#pa14313cc16)" d="M 206.61873 215.971129 
L 220.127123 220.338193 
L 219.954805 140.311226 
L 205.898015 136.245981 
z
" style="fill:#dfb222;"/>
    <path clip-path="url(#pa14313cc16)" d="M 233.792858 224.756123 
L 247.618703 229.225814 
L 248.080941 190.56978 
L 233.979465 186.241442 
z
" style="fill:#a42d79;"/>
    <path clip-path="url(#pa14313cc16)" d="M 233.792858 224.756123 
L 241.523583 217.136342 
L 242.140985 146.757524 
L 234.136074 153.918215 
z
" style="fill:#694418;"/>
    <path clip-path="url(#pa14313cc16)" d="M 200.238666 116.841492 
L 214.091992 120.7421 
L 222.195166 114.015197 
L 208.434947 110.193586 
z
" style="fill:#bab91e;"/>
    <path clip-path="url(#pa14313cc16)" d="M 220.127123 220.338193 
L 233.792858 224.756123 
L 234.136074 153.918215 
L 219.975163 149.765832 
z
" style="fill:#de8f32;"/>
    <path clip-path="url(#pa14313cc16)" d="M 233.979465 186.241442 
L 248.080941 190.56978 
L 255.862966 183.10533 
L 241.859321 178.86494 
z
" style="fill:#8e2769;"/>
    <path clip-path="url(#pa14313cc16)" d="M 192.036172 133.969083 
L 205.913807 137.992884 
L 214.143397 131.053683 
L 200.35886 127.111799 
z
" style="fill:#c2961f;"/>
    <path clip-path="url(#pa14313cc16)" d="M 228.088607 137.018023 
L 242.190943 141.062625 
L 250.053188 134.08757 
L 236.048464 130.125358 
z
" style="fill:#c28e22;"/>
    <path clip-path="url(#pa14313cc16)" d="M 214.084164 119.171711 
L 228.114181 123.112669 
L 236.127499 116.316377 
L 222.193545 112.455764 
z
" style="fill:#b8bf1a;"/>
    <path clip-path="url(#pa14313cc16)" d="M 205.898015 136.245981 
L 219.954805 140.311226 
L 228.095443 133.300762 
L 214.134749 129.318836 
z
" style="fill:#c29b1d;"/>
    <path clip-path="url(#pa14313cc16)" d="M 219.975163 149.765832 
L 234.136074 153.918215 
L 242.140985 146.757524 
L 228.078174 142.69036 
z
" style="fill:#c17c2b;"/>
   </g>
   <g id="text_16">
    <!-- W35__H45__A330_bars_extracted.txt -->
    <g transform="translate(110.101875 28.56)scale(0.12 -0.12)">
     <defs>
      <path d="M 3.328125 72.90625 
L 13.28125 72.90625 
L 28.609375 11.28125 
L 43.890625 72.90625 
L 54.984375 72.90625 
L 70.3125 11.28125 
L 85.59375 72.90625 
L 95.609375 72.90625 
L 77.296875 0 
L 64.890625 0 
L 49.515625 63.28125 
L 33.984375 0 
L 21.578125 0 
z
" id="DejaVuSans-87"/>
      <path d="M 40.578125 39.3125 
Q 47.65625 37.796875 51.625 33 
Q 55.609375 28.21875 55.609375 21.1875 
Q 55.609375 10.40625 48.1875 4.484375 
Q 40.765625 -1.421875 27.09375 -1.421875 
Q 22.515625 -1.421875 17.65625 -0.515625 
Q 12.796875 0.390625 7.625 2.203125 
L 7.625 11.71875 
Q 11.71875 9.328125 16.59375 8.109375 
Q 21.484375 6.890625 26.8125 6.890625 
Q 36.078125 6.890625 40.9375 10.546875 
Q 45.796875 14.203125 45.796875 21.1875 
Q 45.796875 27.640625 41.28125 31.265625 
Q 36.765625 34.90625 28.71875 34.90625 
L 20.21875 34.90625 
L 20.21875 43.015625 
L 29.109375 43.015625 
Q 36.375 43.015625 40.234375 45.921875 
Q 44.09375 48.828125 44.09375 54.296875 
Q 44.09375 59.90625 40.109375 62.90625 
Q 36.140625 65.921875 28.71875 65.921875 
Q 24.65625 65.921875 20.015625 65.03125 
Q 15.375 64.15625 9.8125 62.3125 
L 9.8125 71.09375 
Q 15.4375 72.65625 20.34375 73.4375 
Q 25.25 74.21875 29.59375 74.21875 
Q 40.828125 74.21875 47.359375 69.109375 
Q 53.90625 64.015625 53.90625 55.328125 
Q 53.90625 49.265625 50.4375 45.09375 
Q 46.96875 40.921875 40.578125 39.3125 
z
" id="DejaVuSans-51"/>
      <path d="M 50.984375 -16.609375 
L 50.984375 -23.578125 
L -0.984375 -23.578125 
L -0.984375 -16.609375 
z
" id="DejaVuSans-95"/>
      <path d="M 9.8125 72.90625 
L 19.671875 72.90625 
L 19.671875 43.015625 
L 55.515625 43.015625 
L 55.515625 72.90625 
L 65.375 72.90625 
L 65.375 0 
L 55.515625 0 
L 55.515625 34.71875 
L 19.671875 34.71875 
L 19.671875 0 
L 9.8125 0 
z
" id="DejaVuSans-72"/>
      <path d="M 34.1875 63.1875 
L 20.796875 26.90625 
L 47.609375 26.90625 
z
M 28.609375 72.90625 
L 39.796875 72.90625 
L 67.578125 0 
L 57.328125 0 
L 50.6875 18.703125 
L 17.828125 18.703125 
L 11.1875 0 
L 0.78125 0 
z
" id="DejaVuSans-65"/>
      <path d="M 48.6875 27.296875 
Q 48.6875 37.203125 44.609375 42.84375 
Q 40.53125 48.484375 33.40625 48.484375 
Q 26.265625 48.484375 22.1875 42.84375 
Q 18.109375 37.203125 18.109375 27.296875 
Q 18.109375 17.390625 22.1875 11.75 
Q 26.265625 6.109375 33.40625 6.109375 
Q 40.53125 6.109375 44.609375 11.75 
Q 48.6875 17.390625 48.6875 27.296875 
z
M 18.109375 46.390625 
Q 20.953125 51.265625 25.265625 53.625 
Q 29.59375 56 35.59375 56 
Q 45.5625 56 51.78125 48.09375 
Q 58.015625 40.1875 58.015625 27.296875 
Q 58.015625 14.40625 51.78125 6.484375 
Q 45.5625 -1.421875 35.59375 -1.421875 
Q 29.59375 -1.421875 25.265625 0.953125 
Q 20.953125 3.328125 18.109375 8.203125 
L 18.109375 0 
L 9.078125 0 
L 9.078125 75.984375 
L 18.109375 75.984375 
z
" id="DejaVuSans-98"/>
      <path d="M 34.28125 27.484375 
Q 23.390625 27.484375 19.1875 25 
Q 14.984375 22.515625 14.984375 16.5 
Q 14.984375 11.71875 18.140625 8.90625 
Q 21.296875 6.109375 26.703125 6.109375 
Q 34.1875 6.109375 38.703125 11.40625 
Q 43.21875 16.703125 43.21875 25.484375 
L 43.21875 27.484375 
z
M 52.203125 31.203125 
L 52.203125 0 
L 43.21875 0 
L 43.21875 8.296875 
Q 40.140625 3.328125 35.546875 0.953125 
Q 30.953125 -1.421875 24.3125 -1.421875 
Q 15.921875 -1.421875 10.953125 3.296875 
Q 6 8.015625 6 15.921875 
Q 6 25.140625 12.171875 29.828125 
Q 18.359375 34.515625 30.609375 34.515625 
L 43.21875 34.515625 
L 43.21875 35.40625 
Q 43.21875 41.609375 39.140625 45 
Q 35.0625 48.390625 27.6875 48.390625 
Q 23 48.390625 18.546875 47.265625 
Q 14.109375 46.140625 10.015625 43.890625 
L 10.015625 52.203125 
Q 14.9375 54.109375 19.578125 55.046875 
Q 24.21875 56 28.609375 56 
Q 40.484375 56 46.34375 49.84375 
Q 52.203125 43.703125 52.203125 31.203125 
z
" id="DejaVuSans-97"/>
      <path d="M 41.109375 46.296875 
Q 39.59375 47.171875 37.8125 47.578125 
Q 36.03125 48 33.890625 48 
Q 26.265625 48 22.1875 43.046875 
Q 18.109375 38.09375 18.109375 28.8125 
L 18.109375 0 
L 9.078125 0 
L 9.078125 54.6875 
L 18.109375 54.6875 
L 18.109375 46.1875 
Q 20.953125 51.171875 25.484375 53.578125 
Q 30.03125 56 36.53125 56 
Q 37.453125 56 38.578125 55.875 
Q 39.703125 55.765625 41.0625 55.515625 
z
" id="DejaVuSans-114"/>
      <path d="M 44.28125 53.078125 
L 44.28125 44.578125 
Q 40.484375 46.53125 36.375 47.5 
Q 32.28125 48.484375 27.875 48.484375 
Q 21.1875 48.484375 17.84375 46.4375 
Q 14.5 44.390625 14.5 40.28125 
Q 14.5 37.15625 16.890625 35.375 
Q 19.28125 33.59375 26.515625 31.984375 
L 29.59375 31.296875 
Q 39.15625 29.25 43.1875 25.515625 
Q 47.21875 21.78125 47.21875 15.09375 
Q 47.21875 7.46875 41.1875 3.015625 
Q 35.15625 -1.421875 24.609375 -1.421875 
Q 20.21875 -1.421875 15.453125 -0.5625 
Q 10.6875 0.296875 5.421875 2 
L 5.421875 11.28125 
Q 10.40625 8.6875 15.234375 7.390625 
Q 20.0625 6.109375 24.8125 6.109375 
Q 31.15625 6.109375 34.5625 8.28125 
Q 37.984375 10.453125 37.984375 14.40625 
Q 37.984375 18.0625 35.515625 20.015625 
Q 33.0625 21.96875 24.703125 23.78125 
L 21.578125 24.515625 
Q 13.234375 26.265625 9.515625 29.90625 
Q 5.8125 33.546875 5.8125 39.890625 
Q 5.8125 47.609375 11.28125 51.796875 
Q 16.75 56 26.8125 56 
Q 31.78125 56 36.171875 55.265625 
Q 40.578125 54.546875 44.28125 53.078125 
z
" id="DejaVuSans-115"/>
      <path d="M 56.203125 29.59375 
L 56.203125 25.203125 
L 14.890625 25.203125 
Q 15.484375 15.921875 20.484375 11.0625 
Q 25.484375 6.203125 34.421875 6.203125 
Q 39.59375 6.203125 44.453125 7.46875 
Q 49.3125 8.734375 54.109375 11.28125 
L 54.109375 2.78125 
Q 49.265625 0.734375 44.1875 -0.34375 
Q 39.109375 -1.421875 33.890625 -1.421875 
Q 20.796875 -1.421875 13.15625 6.1875 
Q 5.515625 13.8125 5.515625 26.8125 
Q 5.515625 40.234375 12.765625 48.109375 
Q 20.015625 56 32.328125 56 
Q 43.359375 56 49.78125 48.890625 
Q 56.203125 41.796875 56.203125 29.59375 
z
M 47.21875 32.234375 
Q 47.125 39.59375 43.09375 43.984375 
Q 39.0625 48.390625 32.421875 48.390625 
Q 24.90625 48.390625 20.390625 44.140625 
Q 15.875 39.890625 15.1875 32.171875 
z
" id="DejaVuSans-101"/>
      <path d="M 54.890625 54.6875 
L 35.109375 28.078125 
L 55.90625 0 
L 45.3125 0 
L 29.390625 21.484375 
L 13.484375 0 
L 2.875 0 
L 24.125 28.609375 
L 4.6875 54.6875 
L 15.28125 54.6875 
L 29.78125 35.203125 
L 44.28125 54.6875 
z
" id="DejaVuSans-120"/>
      <path d="M 18.3125 70.21875 
L 18.3125 54.6875 
L 36.8125 54.6875 
L 36.8125 47.703125 
L 18.3125 47.703125 
L 18.3125 18.015625 
Q 18.3125 11.328125 20.140625 9.421875 
Q 21.96875 7.515625 27.59375 7.515625 
L 36.8125 7.515625 
L 36.8125 0 
L 27.59375 0 
Q 17.1875 0 13.234375 3.875 
Q 9.28125 7.765625 9.28125 18.015625 
L 9.28125 47.703125 
L 2.6875 47.703125 
L 2.6875 54.6875 
L 9.28125 54.6875 
L 9.28125 70.21875 
z
" id="DejaVuSans-116"/>
      <path d="M 48.78125 52.59375 
L 48.78125 44.1875 
Q 44.96875 46.296875 41.140625 47.34375 
Q 37.3125 48.390625 33.40625 48.390625 
Q 24.65625 48.390625 19.8125 42.84375 
Q 14.984375 37.3125 14.984375 27.296875 
Q 14.984375 17.28125 19.8125 11.734375 
Q 24.65625 6.203125 33.40625 6.203125 
Q 37.3125 6.203125 41.140625 7.25 
Q 44.96875 8.296875 48.78125 10.40625 
L 48.78125 2.09375 
Q 45.015625 0.34375 40.984375 -0.53125 
Q 36.96875 -1.421875 32.421875 -1.421875 
Q 20.0625 -1.421875 12.78125 6.34375 
Q 5.515625 14.109375 5.515625 27.296875 
Q 5.515625 40.671875 12.859375 48.328125 
Q 20.21875 56 33.015625 56 
Q 37.15625 56 41.109375 55.140625 
Q 45.0625 54.296875 48.78125 52.59375 
z
" id="DejaVuSans-99"/>
      <path d="M 45.40625 46.390625 
L 45.40625 75.984375 
L 54.390625 75.984375 
L 54.390625 0 
L 45.40625 0 
L 45.40625 8.203125 
Q 42.578125 3.328125 38.25 0.953125 
Q 33.9375 -1.421875 27.875 -1.421875 
Q 17.96875 -1.421875 11.734375 6.484375 
Q 5.515625 14.40625 5.515625 27.296875 
Q 5.515625 40.1875 11.734375 48.09375 
Q 17.96875 56 27.875 56 
Q 33.9375 56 38.25 53.625 
Q 42.578125 51.265625 45.40625 46.390625 
z
M 14.796875 27.296875 
Q 14.796875 17.390625 18.875 11.75 
Q 22.953125 6.109375 30.078125 6.109375 
Q 37.203125 6.109375 41.296875 11.75 
Q 45.40625 17.390625 45.40625 27.296875 
Q 45.40625 37.203125 41.296875 42.84375 
Q 37.203125 48.484375 30.078125 48.484375 
Q 22.953125 48.484375 18.875 42.84375 
Q 14.796875 37.203125 14.796875 27.296875 
z
" id="DejaVuSans-100"/>
      <path d="M 10.6875 12.40625 
L 21 12.40625 
L 21 0 
L 10.6875 0 
z
" id="DejaVuSans-46"/>
     </defs>
     <use xlink:href="#DejaVuSans-87"/>
     <use x="98.876953" xlink:href="#DejaVuSans-51"/>
     <use x="162.5" xlink:href="#DejaVuSans-53"/>
     <use x="226.123047" xlink:href="#DejaVuSans-95"/>
     <use x="276.123047" xlink:href="#DejaVuSans-95"/>
     <use x="326.123047" xlink:href="#DejaVuSans-72"/>
     <use x="401.318359" xlink:href="#DejaVuSans-52"/>
     <use x="464.941406" xlink:href="#DejaVuSans-53"/>
     <use x="528.564453" xlink:href="#DejaVuSans-95"/>
     <use x="578.564453" xlink:href="#DejaVuSans-95"/>
     <use x="628.564453" xlink:href="#DejaVuSans-65"/>
     <use x="696.972656" xlink:href="#DejaVuSans-51"/>
     <use x="760.595703" xlink:href="#DejaVuSans-51"/>
     <use x="824.21875" xlink:href="#DejaVuSans-48"/>
     <use x="887.841797" xlink:href="#DejaVuSans-95"/>
     <use x="937.841797" xlink:href="#DejaVuSans-98"/>
     <use x="1001.318359" xlink:href="#DejaVuSans-97"/>
     <use x="1062.597656" xlink:href="#DejaVuSans-114"/>
     <use x="1103.710938" xlink:href="#DejaVuSans-115"/>
     <use x="1155.810547" xlink:href="#DejaVuSans-95"/>
     <use x="1205.810547" xlink:href="#DejaVuSans-101"/>
     <use x="1265.583984" xlink:href="#DejaVuSans-120"/>
     <use x="1324.763672" xlink:href="#DejaVuSans-116"/>
     <use x="1363.972656" xlink:href="#DejaVuSans-114"/>
     <use x="1405.085938" xlink:href="#DejaVuSans-97"/>
     <use x="1466.365234" xlink:href="#DejaVuSans-99"/>
     <use x="1521.345703" xlink:href="#DejaVuSans-116"/>
     <use x="1560.554688" xlink:href="#DejaVuSans-101"/>
     <use x="1622.078125" xlink:href="#DejaVuSans-100"/>
     <use x="1685.554688" xlink:href="#DejaVuSans-46"/>
     <use x="1717.341797" xlink:href="#DejaVuSans-116"/>
     <use x="1756.550781" xlink:href="#DejaVuSans-120"/>
     <use x="1815.730469" xlink:href="#DejaVuSans-116"/>
    </g>
   </g>
  </g>
 </g>
 <defs>
  <clipPath id="pa14313cc16">
   <rect height="217.44" width="217.44" x="112.68" y="34.56"/>
  </clipPath>
 </defs>
</svg>
