<?xml version="1.0" encoding="utf-8" standalone="no"?>
<!DOCTYPE svg PUBLIC "-//W3C//DTD SVG 1.1//EN"
  "http://www.w3.org/Graphics/SVG/1.1/DTD/svg11.dtd">
<!-- Created with matplotlib (https://matplotlib.org/) -->
<svg height="288pt" version="1.1" viewBox="0 0 432 288" width="432pt" xmlns="http://www.w3.org/2000/svg" xmlns:xlink="http://www.w3.org/1999/xlink">
 <metadata>
  <rdf:RDF xmlns:cc="http://creativecommons.org/ns#" xmlns:dc="http://purl.org/dc/elements/1.1/" xmlns:rdf="http://www.w3.org/1999/02/22-rdf-syntax-ns#">
   <cc:Work>
    <dc:type rdf:resource="http://purl.org/dc/dcmitype/StillImage"/>
    <dc:date>2021-06-13T21:59:04.655897</dc:date>
    <dc:format>image/svg+xml</dc:format>
    <dc:creator>
     <cc:Agent>
      <dc:title>Matplotlib v3.3.4, https://matplotlib.org/</dc:title>
     </cc:Agent>
    </dc:creator>
   </cc:Work>
  </rdf:RDF>
 </metadata>
 <defs>
  <style type="text/css">*{stroke-linecap:butt;stroke-linejoin:round;}</style>
 </defs>
 <g id="figure_1">
  <g id="patch_1">
   <path d="M 0 288 
L 432 288 
L 432 0 
L 0 0 
z
" style="fill:#ffffff;"/>
  </g>
  <g id="patch_2">
   <path d="M 112.68 252 
L 330.12 252 
L 330.12 34.56 
L 112.68 34.56 
z
" style="fill:#ffffff;"/>
  </g>
  <g id="pane3d_1">
   <g id="patch_3">
    <path d="M 129.09822 198.386264 
L 200.904009 138.197228 
L 199.90584 51.393878 
L 124.663773 106.302111 
" style="fill:#f2f2f2;opacity:0.5;stroke:#f2f2f2;stroke-linejoin:miter;"/>
   </g>
  </g>
  <g id="pane3d_2">
   <g id="patch_4">
    <path d="M 200.904009 138.197228 
L 316.12668 171.68791 
L 320.238571 81.894718 
L 199.90584 51.393878 
" style="fill:#e6e6e6;opacity:0.5;stroke:#e6e6e6;stroke-linejoin:miter;"/>
   </g>
  </g>
  <g id="pane3d_3">
   <g id="patch_5">
    <path d="M 129.09822 198.386264 
L 251.239879 238.27773 
L 316.12668 171.68791 
L 200.904009 138.197228 
" style="fill:#ececec;opacity:0.5;stroke:#ececec;stroke-linejoin:miter;"/>
   </g>
  </g>
  <g id="axis3d_1">
   <g id="line2d_1">
    <path d="M 129.09822 198.386264 
L 251.239879 238.27773 
" style="fill:none;stroke:#000000;stroke-linecap:square;stroke-width:0.8;"/>
   </g>
   <g id="Line3DCollection_1">
    <path d="M 136.495759 200.802301 
L 207.911499 140.234029 
L 207.209612 53.245171 
" style="fill:none;stroke:#b0b0b0;stroke-width:0.8;"/>
    <path d="M 162.23134 209.207541 
L 232.260894 147.311436 
L 232.60309 59.681678 
" style="fill:none;stroke:#b0b0b0;stroke-width:0.8;"/>
    <path d="M 188.559037 217.806167 
L 257.123632 154.538053 
L 258.555303 66.259807 
" style="fill:none;stroke:#b0b0b0;stroke-width:0.8;"/>
    <path d="M 215.499525 226.604931 
L 282.516121 161.918647 
L 285.084894 72.984285 
" style="fill:none;stroke:#b0b0b0;stroke-width:0.8;"/>
    <path d="M 243.074449 235.610901 
L 308.455474 169.458193 
L 312.21135 79.860051 
" style="fill:none;stroke:#b0b0b0;stroke-width:0.8;"/>
   </g>
   <g id="xtick_1">
    <g id="line2d_2">
     <path d="M 137.117644 200.274876 
L 135.249322 201.859414 
" style="fill:none;stroke:#000000;stroke-linecap:square;stroke-width:0.8;"/>
    </g>
    <g id="text_1">
     <!-- 0 -->
     <g transform="translate(125.77919 224.124533)scale(0.1 -0.1)">
      <defs>
       <path d="M 31.78125 66.40625 
Q 24.171875 66.40625 20.328125 58.90625 
Q 16.5 51.421875 16.5 36.375 
Q 16.5 21.390625 20.328125 13.890625 
Q 24.171875 6.390625 31.78125 6.390625 
Q 39.453125 6.390625 43.28125 13.890625 
Q 47.125 21.390625 47.125 36.375 
Q 47.125 51.421875 43.28125 58.90625 
Q 39.453125 66.40625 31.78125 66.40625 
z
M 31.78125 74.21875 
Q 44.046875 74.21875 50.515625 64.515625 
Q 56.984375 54.828125 56.984375 36.375 
Q 56.984375 17.96875 50.515625 8.265625 
Q 44.046875 -1.421875 31.78125 -1.421875 
Q 19.53125 -1.421875 13.0625 8.265625 
Q 6.59375 17.96875 6.59375 36.375 
Q 6.59375 54.828125 13.0625 64.515625 
Q 19.53125 74.21875 31.78125 74.21875 
z
" id="DejaVuSans-48"/>
      </defs>
      <use xlink:href="#DejaVuSans-48"/>
     </g>
    </g>
   </g>
   <g id="xtick_2">
    <g id="line2d_3">
     <path d="M 162.841716 208.668056 
L 161.007937 210.288854 
" style="fill:none;stroke:#000000;stroke-linecap:square;stroke-width:0.8;"/>
    </g>
    <g id="text_2">
     <!-- 2 -->
     <g transform="translate(151.547192 232.748132)scale(0.1 -0.1)">
      <defs>
       <path d="M 19.1875 8.296875 
L 53.609375 8.296875 
L 53.609375 0 
L 7.328125 0 
L 7.328125 8.296875 
Q 12.9375 14.109375 22.625 23.890625 
Q 32.328125 33.6875 34.8125 36.53125 
Q 39.546875 41.84375 41.421875 45.53125 
Q 43.3125 49.21875 43.3125 52.78125 
Q 43.3125 58.59375 39.234375 62.25 
Q 35.15625 65.921875 28.609375 65.921875 
Q 23.96875 65.921875 18.8125 64.3125 
Q 13.671875 62.703125 7.8125 59.421875 
L 7.8125 69.390625 
Q 13.765625 71.78125 18.9375 73 
Q 24.125 74.21875 28.421875 74.21875 
Q 39.75 74.21875 46.484375 68.546875 
Q 53.21875 62.890625 53.21875 53.421875 
Q 53.21875 48.921875 51.53125 44.890625 
Q 49.859375 40.875 45.40625 35.40625 
Q 44.1875 33.984375 37.640625 27.21875 
Q 31.109375 20.453125 19.1875 8.296875 
z
" id="DejaVuSans-50"/>
      </defs>
      <use xlink:href="#DejaVuSans-50"/>
     </g>
    </g>
   </g>
   <g id="xtick_3">
    <g id="line2d_4">
     <path d="M 189.15721 217.254202 
L 187.360066 218.91252 
" style="fill:none;stroke:#000000;stroke-linecap:square;stroke-width:0.8;"/>
    </g>
    <g id="text_3">
     <!-- 4 -->
     <g transform="translate(177.91082 241.571064)scale(0.1 -0.1)">
      <defs>
       <path d="M 37.796875 64.3125 
L 12.890625 25.390625 
L 37.796875 25.390625 
z
M 35.203125 72.90625 
L 47.609375 72.90625 
L 47.609375 25.390625 
L 58.015625 25.390625 
L 58.015625 17.1875 
L 47.609375 17.1875 
L 47.609375 0 
L 37.796875 0 
L 37.796875 17.1875 
L 4.890625 17.1875 
L 4.890625 26.703125 
z
" id="DejaVuSans-52"/>
      </defs>
      <use xlink:href="#DejaVuSans-52"/>
     </g>
    </g>
   </g>
   <g id="xtick_4">
    <g id="line2d_5">
     <path d="M 216.084757 226.040048 
L 214.326462 227.737204 
" style="fill:none;stroke:#000000;stroke-linecap:square;stroke-width:0.8;"/>
    </g>
    <g id="text_4">
     <!-- 6 -->
     <g transform="translate(204.890965 250.600322)scale(0.1 -0.1)">
      <defs>
       <path d="M 33.015625 40.375 
Q 26.375 40.375 22.484375 35.828125 
Q 18.609375 31.296875 18.609375 23.390625 
Q 18.609375 15.53125 22.484375 10.953125 
Q 26.375 6.390625 33.015625 6.390625 
Q 39.65625 6.390625 43.53125 10.953125 
Q 47.40625 15.53125 47.40625 23.390625 
Q 47.40625 31.296875 43.53125 35.828125 
Q 39.65625 40.375 33.015625 40.375 
z
M 52.59375 71.296875 
L 52.59375 62.3125 
Q 48.875 64.0625 45.09375 64.984375 
Q 41.3125 65.921875 37.59375 65.921875 
Q 27.828125 65.921875 22.671875 59.328125 
Q 17.53125 52.734375 16.796875 39.40625 
Q 19.671875 43.65625 24.015625 45.921875 
Q 28.375 48.1875 33.59375 48.1875 
Q 44.578125 48.1875 50.953125 41.515625 
Q 57.328125 34.859375 57.328125 23.390625 
Q 57.328125 12.15625 50.6875 5.359375 
Q 44.046875 -1.421875 33.015625 -1.421875 
Q 20.359375 -1.421875 13.671875 8.265625 
Q 6.984375 17.96875 6.984375 36.375 
Q 6.984375 53.65625 15.1875 63.9375 
Q 23.390625 74.21875 37.203125 74.21875 
Q 40.921875 74.21875 44.703125 73.484375 
Q 48.484375 72.75 52.59375 71.296875 
z
" id="DejaVuSans-54"/>
      </defs>
      <use xlink:href="#DejaVuSans-54"/>
     </g>
    </g>
   </g>
   <g id="xtick_5">
    <g id="line2d_6">
     <path d="M 243.645962 235.032643 
L 241.928856 236.770015 
" style="fill:none;stroke:#000000;stroke-linecap:square;stroke-width:0.8;"/>
    </g>
    <g id="text_5">
     <!-- 8 -->
     <g transform="translate(232.509511 259.84323)scale(0.1 -0.1)">
      <defs>
       <path d="M 31.78125 34.625 
Q 24.75 34.625 20.71875 30.859375 
Q 16.703125 27.09375 16.703125 20.515625 
Q 16.703125 13.921875 20.71875 10.15625 
Q 24.75 6.390625 31.78125 6.390625 
Q 38.8125 6.390625 42.859375 10.171875 
Q 46.921875 13.96875 46.921875 20.515625 
Q 46.921875 27.09375 42.890625 30.859375 
Q 38.875 34.625 31.78125 34.625 
z
M 21.921875 38.8125 
Q 15.578125 40.375 12.03125 44.71875 
Q 8.5 49.078125 8.5 55.328125 
Q 8.5 64.0625 14.71875 69.140625 
Q 20.953125 74.21875 31.78125 74.21875 
Q 42.671875 74.21875 48.875 69.140625 
Q 55.078125 64.0625 55.078125 55.328125 
Q 55.078125 49.078125 51.53125 44.71875 
Q 48 40.375 41.703125 38.8125 
Q 48.828125 37.15625 52.796875 32.3125 
Q 56.78125 27.484375 56.78125 20.515625 
Q 56.78125 9.90625 50.3125 4.234375 
Q 43.84375 -1.421875 31.78125 -1.421875 
Q 19.734375 -1.421875 13.25 4.234375 
Q 6.78125 9.90625 6.78125 20.515625 
Q 6.78125 27.484375 10.78125 32.3125 
Q 14.796875 37.15625 21.921875 38.8125 
z
M 18.3125 54.390625 
Q 18.3125 48.734375 21.84375 45.5625 
Q 25.390625 42.390625 31.78125 42.390625 
Q 38.140625 42.390625 41.71875 45.5625 
Q 45.3125 48.734375 45.3125 54.390625 
Q 45.3125 60.0625 41.71875 63.234375 
Q 38.140625 66.40625 31.78125 66.40625 
Q 25.390625 66.40625 21.84375 63.234375 
Q 18.3125 60.0625 18.3125 54.390625 
z
" id="DejaVuSans-56"/>
      </defs>
      <use xlink:href="#DejaVuSans-56"/>
     </g>
    </g>
   </g>
  </g>
  <g id="axis3d_2">
   <g id="line2d_7">
    <path d="M 316.12668 171.68791 
L 251.239879 238.27773 
" style="fill:none;stroke:#000000;stroke-linecap:square;stroke-width:0.8;"/>
   </g>
   <g id="Line3DCollection_2">
    <path d="M 129.866948 102.505071 
L 134.046245 194.238731 
L 255.729543 233.67023 
" style="fill:none;stroke:#b0b0b0;stroke-width:0.8;"/>
    <path d="M 147.250212 89.819556 
L 150.59591 180.366474 
L 270.72626 218.279909 
" style="fill:none;stroke:#b0b0b0;stroke-width:0.8;"/>
    <path d="M 163.958537 77.626582 
L 166.530371 167.009893 
L 285.136664 203.491289 
" style="fill:none;stroke:#b0b0b0;stroke-width:0.8;"/>
    <path d="M 180.030483 65.898008 
L 181.883306 154.140758 
L 298.994481 189.269761 
" style="fill:none;stroke:#b0b0b0;stroke-width:0.8;"/>
    <path d="M 195.501727 54.607799 
L 196.68598 141.732864 
L 312.330896 175.583317 
" style="fill:none;stroke:#b0b0b0;stroke-width:0.8;"/>
   </g>
   <g id="xtick_6">
    <g id="line2d_8">
     <path d="M 254.704115 233.337939 
L 257.783053 234.33567 
" style="fill:none;stroke:#000000;stroke-linecap:square;stroke-width:0.8;"/>
    </g>
    <g id="text_6">
     <!-- 0 -->
     <g transform="translate(265.430654 254.693759)scale(0.1 -0.1)">
      <use xlink:href="#DejaVuSans-48"/>
     </g>
    </g>
   </g>
   <g id="xtick_7">
    <g id="line2d_9">
     <path d="M 269.71494 217.960734 
L 272.751463 218.919068 
" style="fill:none;stroke:#000000;stroke-linecap:square;stroke-width:0.8;"/>
    </g>
    <g id="text_7">
     <!-- 2 -->
     <g transform="translate(280.181112 239.024526)scale(0.1 -0.1)">
      <use xlink:href="#DejaVuSans-50"/>
     </g>
    </g>
   </g>
   <g id="xtick_8">
    <g id="line2d_10">
     <path d="M 284.139145 203.184468 
L 287.134182 204.105694 
" style="fill:none;stroke:#000000;stroke-linecap:square;stroke-width:0.8;"/>
    </g>
    <g id="text_8">
     <!-- 4 -->
     <g transform="translate(294.35448 223.968328)scale(0.1 -0.1)">
      <use xlink:href="#DejaVuSans-52"/>
     </g>
    </g>
   </g>
   <g id="xtick_9">
    <g id="line2d_11">
     <path d="M 298.010457 188.97459 
L 300.964927 189.860821 
" style="fill:none;stroke:#000000;stroke-linecap:square;stroke-width:0.8;"/>
    </g>
    <g id="text_9">
     <!-- 6 -->
     <g transform="translate(307.983974 209.489882)scale(0.1 -0.1)">
      <use xlink:href="#DejaVuSans-54"/>
     </g>
    </g>
   </g>
   <g id="xtick_10">
    <g id="line2d_12">
     <path d="M 311.360068 175.299146 
L 314.274875 176.15234 
" style="fill:none;stroke:#000000;stroke-linecap:square;stroke-width:0.8;"/>
    </g>
    <g id="text_10">
     <!-- 8 -->
     <g transform="translate(321.10031 195.556556)scale(0.1 -0.1)">
      <use xlink:href="#DejaVuSans-56"/>
     </g>
    </g>
   </g>
  </g>
  <g id="axis3d_3">
   <g id="line2d_13">
    <path d="M 316.12668 171.68791 
L 320.238571 81.894718 
" style="fill:none;stroke:#000000;stroke-linecap:square;stroke-width:0.8;"/>
   </g>
   <g id="Line3DCollection_3">
    <path d="M 316.205459 169.967571 
L 200.884845 136.530725 
L 129.013401 196.624949 
" style="fill:none;stroke:#b0b0b0;stroke-width:0.8;"/>
    <path d="M 316.89389 154.933999 
L 200.717447 121.973342 
L 128.27196 181.228451 
" style="fill:none;stroke:#b0b0b0;stroke-width:0.8;"/>
    <path d="M 317.592717 139.673409 
L 200.547642 107.206661 
L 127.518895 165.590566 
" style="fill:none;stroke:#b0b0b0;stroke-width:0.8;"/>
    <path d="M 318.302177 124.18062 
L 200.375378 92.226134 
L 126.75393 149.705573 
" style="fill:none;stroke:#b0b0b0;stroke-width:0.8;"/>
    <path d="M 319.022514 108.450293 
L 200.200601 77.027083 
L 125.976781 133.567568 
" style="fill:none;stroke:#b0b0b0;stroke-width:0.8;"/>
    <path d="M 319.753981 92.476921 
L 200.023256 61.60469 
L 125.187154 117.170458 
" style="fill:none;stroke:#b0b0b0;stroke-width:0.8;"/>
   </g>
   <g id="xtick_11">
    <g id="line2d_14">
     <path d="M 315.237563 169.686933 
L 318.143556 170.529516 
" style="fill:none;stroke:#000000;stroke-linecap:square;stroke-width:0.8;"/>
    </g>
    <g id="text_11">
     <!-- 0 -->
     <g transform="translate(331.275915 174.966846)scale(0.1 -0.1)">
      <use xlink:href="#DejaVuSans-48"/>
     </g>
    </g>
   </g>
   <g id="xtick_12">
    <g id="line2d_15">
     <path d="M 315.918469 154.65726 
L 318.847073 155.48814 
" style="fill:none;stroke:#000000;stroke-linecap:square;stroke-width:0.8;"/>
    </g>
    <g id="text_12">
     <!-- 5000 -->
     <g transform="translate(322.554319 159.969454)scale(0.1 -0.1)">
      <defs>
       <path d="M 10.796875 72.90625 
L 49.515625 72.90625 
L 49.515625 64.59375 
L 19.828125 64.59375 
L 19.828125 46.734375 
Q 21.96875 47.46875 24.109375 47.828125 
Q 26.265625 48.1875 28.421875 48.1875 
Q 40.625 48.1875 47.75 41.5 
Q 54.890625 34.8125 54.890625 23.390625 
Q 54.890625 11.625 47.5625 5.09375 
Q 40.234375 -1.421875 26.90625 -1.421875 
Q 22.3125 -1.421875 17.546875 -0.640625 
Q 12.796875 0.140625 7.71875 1.703125 
L 7.71875 11.625 
Q 12.109375 9.234375 16.796875 8.0625 
Q 21.484375 6.890625 26.703125 6.890625 
Q 35.15625 6.890625 40.078125 11.328125 
Q 45.015625 15.765625 45.015625 23.390625 
Q 45.015625 31 40.078125 35.4375 
Q 35.15625 39.890625 26.703125 39.890625 
Q 22.75 39.890625 18.8125 39.015625 
Q 14.890625 38.140625 10.796875 36.28125 
z
" id="DejaVuSans-53"/>
      </defs>
      <use xlink:href="#DejaVuSans-53"/>
      <use x="63.623047" xlink:href="#DejaVuSans-48"/>
      <use x="127.246094" xlink:href="#DejaVuSans-48"/>
      <use x="190.869141" xlink:href="#DejaVuSans-48"/>
     </g>
    </g>
   </g>
   <g id="xtick_13">
    <g id="line2d_16">
     <path d="M 316.609653 139.40072 
L 319.561222 140.219446 
" style="fill:none;stroke:#000000;stroke-linecap:square;stroke-width:0.8;"/>
    </g>
    <g id="text_13">
     <!-- 10000 -->
     <g transform="translate(320.207592 144.746434)scale(0.1 -0.1)">
      <defs>
       <path d="M 12.40625 8.296875 
L 28.515625 8.296875 
L 28.515625 63.921875 
L 10.984375 60.40625 
L 10.984375 69.390625 
L 28.421875 72.90625 
L 38.28125 72.90625 
L 38.28125 8.296875 
L 54.390625 8.296875 
L 54.390625 0 
L 12.40625 0 
z
" id="DejaVuSans-49"/>
      </defs>
      <use xlink:href="#DejaVuSans-49"/>
      <use x="63.623047" xlink:href="#DejaVuSans-48"/>
      <use x="127.246094" xlink:href="#DejaVuSans-48"/>
      <use x="190.869141" xlink:href="#DejaVuSans-48"/>
      <use x="254.492188" xlink:href="#DejaVuSans-48"/>
     </g>
    </g>
   </g>
   <g id="xtick_14">
    <g id="line2d_17">
     <path d="M 317.311349 123.912137 
L 320.286245 124.718241 
" style="fill:none;stroke:#000000;stroke-linecap:square;stroke-width:0.8;"/>
    </g>
    <g id="text_14">
     <!-- 15000 -->
     <g transform="translate(321.054765 129.292656)scale(0.1 -0.1)">
      <use xlink:href="#DejaVuSans-49"/>
      <use x="63.623047" xlink:href="#DejaVuSans-53"/>
      <use x="127.246094" xlink:href="#DejaVuSans-48"/>
      <use x="190.869141" xlink:href="#DejaVuSans-48"/>
      <use x="254.492188" xlink:href="#DejaVuSans-48"/>
     </g>
    </g>
   </g>
   <g id="xtick_15">
    <g id="line2d_18">
     <path d="M 318.023799 108.186176 
L 321.022394 108.979174 
" style="fill:none;stroke:#000000;stroke-linecap:square;stroke-width:0.8;"/>
    </g>
    <g id="text_15">
     <!-- 20000 -->
     <g transform="translate(321.914877 113.602833)scale(0.1 -0.1)">
      <use xlink:href="#DejaVuSans-50"/>
      <use x="63.623047" xlink:href="#DejaVuSans-48"/>
      <use x="127.246094" xlink:href="#DejaVuSans-48"/>
      <use x="190.869141" xlink:href="#DejaVuSans-48"/>
      <use x="254.492188" xlink:href="#DejaVuSans-48"/>
     </g>
    </g>
   </g>
   <g id="xtick_16">
    <g id="line2d_19">
     <path d="M 318.747253 92.217339 
L 321.769927 92.996727 
" style="fill:none;stroke:#000000;stroke-linecap:square;stroke-width:0.8;"/>
    </g>
    <g id="text_16">
     <!-- 25000 -->
     <g transform="translate(322.788229 97.671516)scale(0.1 -0.1)">
      <use xlink:href="#DejaVuSans-50"/>
      <use x="63.623047" xlink:href="#DejaVuSans-53"/>
      <use x="127.246094" xlink:href="#DejaVuSans-48"/>
      <use x="190.869141" xlink:href="#DejaVuSans-48"/>
      <use x="254.492188" xlink:href="#DejaVuSans-48"/>
     </g>
    </g>
   </g>
  </g>
  <g id="axes_1">
   <g id="Poly3DCollection_1">
    <path clip-path="url(#pf8a6ce29e5)" d="M 203.700438 142.115361 
L 203.609202 133.123519 
L 215.826242 136.643803 
L 215.863902 145.66701 
z
" style="fill:#1c0142;"/>
    <path clip-path="url(#pf8a6ce29e5)" d="M 196.401162 148.290596 
L 196.276532 139.244325 
L 203.609202 133.123519 
L 203.700438 142.115361 
z
" style="fill:#3b038b;"/>
    <path clip-path="url(#pf8a6ce29e5)" d="M 196.401162 148.290596 
L 203.700438 142.115361 
L 215.863902 145.66701 
L 208.637156 151.907182 
z
" style="fill:#240254;"/>
    <path clip-path="url(#pf8a6ce29e5)" d="M 196.276532 139.244325 
L 208.566741 142.829261 
L 215.826242 136.643803 
L 203.609202 133.123519 
z
" style="fill:#330379;"/>
    <path clip-path="url(#pf8a6ce29e5)" d="M 215.863902 145.66701 
L 215.793503 128.799858 
L 228.186897 132.329502 
L 228.155024 149.255935 
z
" style="fill:#2c0046;"/>
    <path clip-path="url(#pf8a6ce29e5)" d="M 208.637156 151.907182 
L 215.863902 145.66701 
L 215.826242 136.643803 
L 208.566741 142.829261 
z
" style="fill:#1c0142;"/>
    <path clip-path="url(#pf8a6ce29e5)" d="M 208.637156 151.907182 
L 215.863902 145.66701 
L 228.155024 149.255935 
L 221.002748 155.562072 
z
" style="fill:#39005a;"/>
    <path clip-path="url(#pf8a6ce29e5)" d="M 196.401162 148.290596 
L 208.637156 151.907182 
L 208.566741 142.829261 
L 196.276532 139.244325 
z
" style="fill:#3b038b;"/>
    <path clip-path="url(#pf8a6ce29e5)" d="M 208.637156 151.907182 
L 208.505524 134.937155 
L 215.793503 128.799858 
L 215.863902 145.66701 
z
" style="fill:#5e0094;"/>
    <path clip-path="url(#pf8a6ce29e5)" d="M 196.401162 148.290596 
L 196.195028 133.328369 
L 208.52069 136.892378 
L 208.637156 151.907182 
z
" style="fill:#280045;"/>
    <path clip-path="url(#pf8a6ce29e5)" d="M 188.96817 154.578956 
L 196.401162 148.290596 
L 208.637156 151.907182 
L 201.27732 158.262275 
z
" style="fill:#330059;"/>
    <path clip-path="url(#pf8a6ce29e5)" d="M 188.96817 154.578956 
L 188.704784 139.525488 
L 196.195028 133.328369 
L 196.401162 148.290596 
z
" style="fill:#540193;"/>
    <path clip-path="url(#pf8a6ce29e5)" d="M 221.002748 155.562072 
L 228.155024 149.255935 
L 240.575825 152.882725 
L 233.500008 159.25588 
z
" style="fill:#3f005a;"/>
    <path clip-path="url(#pf8a6ce29e5)" d="M 228.155024 149.255935 
L 228.191353 129.963495 
L 240.731203 133.522243 
L 240.575825 152.882725 
z
" style="fill:#310046;"/>
    <path clip-path="url(#pf8a6ce29e5)" d="M 221.002748 155.562072 
L 228.155024 149.255935 
L 228.186897 132.329502 
L 220.974634 138.532223 
z
" style="fill:#2c0046;"/>
    <path clip-path="url(#pf8a6ce29e5)" d="M 221.002748 155.562072 
L 220.970704 136.151553 
L 228.191353 129.963495 
L 228.155024 149.255935 
z
" style="fill:#680195;"/>
    <path clip-path="url(#pf8a6ce29e5)" d="M 208.505524 134.937155 
L 220.974634 138.532223 
L 228.186897 132.329502 
L 215.793503 128.799858 
z
" style="fill:#520081;"/>
    <path clip-path="url(#pf8a6ce29e5)" d="M 208.637156 151.907182 
L 221.002748 155.562072 
L 220.974634 138.532223 
L 208.505524 134.937155 
z
" style="fill:#5e0094;"/>
    <path clip-path="url(#pf8a6ce29e5)" d="M 201.27732 158.262275 
L 208.637156 151.907182 
L 221.002748 155.562072 
L 213.718049 161.984967 
z
" style="fill:#651e47;"/>
    <path clip-path="url(#pf8a6ce29e5)" d="M 201.27732 158.262275 
L 208.637156 151.907182 
L 208.52069 136.892378 
L 201.104674 143.155753 
z
" style="fill:#280045;"/>
    <path clip-path="url(#pf8a6ce29e5)" d="M 233.500008 159.25588 
L 240.575825 152.882725 
L 253.128369 156.547983 
L 246.131049 162.989229 
z
" style="fill:#42015a;"/>
    <path clip-path="url(#pf8a6ce29e5)" d="M 240.575825 152.882725 
L 240.741619 132.224424 
L 253.423906 135.816626 
L 253.128369 156.547983 
z
" style="fill:#330146;"/>
    <path clip-path="url(#pf8a6ce29e5)" d="M 188.704784 139.525488 
L 201.104674 143.155753 
L 208.52069 136.892378 
L 196.195028 133.328369 
z
" style="fill:#49007f;"/>
    <path clip-path="url(#pf8a6ce29e5)" d="M 188.96817 154.578956 
L 201.27732 158.262275 
L 201.104674 143.155753 
L 188.704784 139.525488 
z
" style="fill:#540193;"/>
    <path clip-path="url(#pf8a6ce29e5)" d="M 188.96817 154.578956 
L 188.685015 138.395663 
L 201.091716 142.021898 
L 201.27732 158.262275 
z
" style="fill:#2a0046;"/>
    <path clip-path="url(#pf8a6ce29e5)" d="M 233.500008 159.25588 
L 240.575825 152.882725 
L 240.731203 133.522243 
L 233.588492 139.776697 
z
" style="fill:#310046;"/>
    <path clip-path="url(#pf8a6ce29e5)" d="M 233.500008 159.25588 
L 233.594424 138.470799 
L 240.741619 132.224424 
L 240.575825 152.882725 
z
" style="fill:#6d0294;"/>
    <path clip-path="url(#pf8a6ce29e5)" d="M 181.397755 160.983577 
L 188.96817 154.578956 
L 201.27732 158.262275 
L 193.780682 164.735494 
z
" style="fill:#360059;"/>
    <path clip-path="url(#pf8a6ce29e5)" d="M 208.637156 151.907182 
L 208.346035 114.375777 
L 220.940567 117.896337 
L 221.002748 155.562072 
z
" style="fill:#4f1737;"/>
    <path clip-path="url(#pf8a6ce29e5)" d="M 181.397755 160.983577 
L 181.050792 144.701224 
L 188.685015 138.395663 
L 188.96817 154.578956 
z
" style="fill:#5a0094;"/>
    <path clip-path="url(#pf8a6ce29e5)" d="M 213.718049 161.984967 
L 221.002748 155.562072 
L 233.500008 159.25588 
L 226.292478 165.747667 
z
" style="fill:#743038;"/>
    <path clip-path="url(#pf8a6ce29e5)" d="M 221.002748 155.562072 
L 233.500008 159.25588 
L 233.588492 139.776697 
L 220.970704 136.151553 
z
" style="fill:#680195;"/>
    <path clip-path="url(#pf8a6ce29e5)" d="M 220.970704 136.151553 
L 233.588492 139.776697 
L 240.731203 133.522243 
L 228.191353 129.963495 
z
" style="fill:#5a0181;"/>
    <path clip-path="url(#pf8a6ce29e5)" d="M 201.27732 158.262275 
L 200.845726 120.497742 
L 208.346035 114.375777 
L 208.637156 151.907182 
z
" style="fill:#a83175;"/>
    <path clip-path="url(#pf8a6ce29e5)" d="M 246.131049 162.989229 
L 253.128369 156.547983 
L 265.814761 160.252323 
L 258.898031 166.762758 
z
" style="fill:#41015a;"/>
    <path clip-path="url(#pf8a6ce29e5)" d="M 253.128369 156.547983 
L 253.417765 136.24737 
L 266.233926 139.87982 
L 265.814761 160.252323 
z
" style="fill:#330146;"/>
    <path clip-path="url(#pf8a6ce29e5)" d="M 246.131049 162.989229 
L 246.35216 142.56386 
L 253.417765 136.24737 
L 253.128369 156.547983 
z
" style="fill:#6c0295;"/>
    <path clip-path="url(#pf8a6ce29e5)" d="M 246.131049 162.989229 
L 253.128369 156.547983 
L 253.423906 135.816626 
L 246.356852 142.130427 
z
" style="fill:#330146;"/>
    <path clip-path="url(#pf8a6ce29e5)" d="M 193.780682 164.735494 
L 201.27732 158.262275 
L 213.718049 161.984967 
L 206.297214 168.527892 
z
" style="fill:#743038;"/>
    <path clip-path="url(#pf8a6ce29e5)" d="M 265.814761 160.252323 
L 266.044059 149.10785 
L 278.938958 152.812645 
L 278.637155 163.996376 
z
" style="fill:#200143;"/>
    <path clip-path="url(#pf8a6ce29e5)" d="M 193.780682 164.735494 
L 201.27732 158.262275 
L 201.091716 142.021898 
L 193.532438 148.395543 
z
" style="fill:#2a0046;"/>
    <path clip-path="url(#pf8a6ce29e5)" d="M 226.292478 165.747667 
L 233.500008 159.25588 
L 246.131049 162.989229 
L 239.002775 169.551023 
z
" style="fill:#783634;"/>
    <path clip-path="url(#pf8a6ce29e5)" d="M 233.500008 159.25588 
L 246.131049 162.989229 
L 246.356852 142.130427 
L 233.594424 138.470799 
z
" style="fill:#6d0294;"/>
    <path clip-path="url(#pf8a6ce29e5)" d="M 233.594424 138.470799 
L 246.356852 142.130427 
L 253.423906 135.816626 
L 240.741619 132.224424 
z
" style="fill:#5e0281;"/>
    <path clip-path="url(#pf8a6ce29e5)" d="M 181.050792 144.701224 
L 193.532438 148.395543 
L 201.091716 142.021898 
L 188.685015 138.395663 
z
" style="fill:#4e0080;"/>
    <path clip-path="url(#pf8a6ce29e5)" d="M 213.718049 161.984967 
L 221.002748 155.562072 
L 220.940567 117.896337 
L 213.518204 124.084843 
z
" style="fill:#4f1737;"/>
    <path clip-path="url(#pf8a6ce29e5)" d="M 258.898031 166.762758 
L 265.814761 160.252323 
L 278.637155 163.996376 
L 271.803162 170.57712 
z
" style="fill:#290156;"/>
    <path clip-path="url(#pf8a6ce29e5)" d="M 258.898031 166.762758 
L 259.090882 155.550162 
L 266.044059 149.10785 
L 265.814761 160.252323 
z
" style="fill:#44028e;"/>
    <path clip-path="url(#pf8a6ce29e5)" d="M 221.002748 155.562072 
L 220.924576 108.209493 
L 233.715885 111.732296 
L 233.500008 159.25588 
z
" style="fill:#5b252c;"/>
    <path clip-path="url(#pf8a6ce29e5)" d="M 181.397755 160.983577 
L 193.780682 164.735494 
L 193.532438 148.395543 
L 181.050792 144.701224 
z
" style="fill:#5a0094;"/>
    <path clip-path="url(#pf8a6ce29e5)" d="M 181.397755 160.983577 
L 181.016754 143.103898 
L 193.508084 146.79249 
L 193.780682 164.735494 
z
" style="fill:#2e0046;"/>
    <path clip-path="url(#pf8a6ce29e5)" d="M 173.686069 167.507715 
L 181.397755 160.983577 
L 193.780682 164.735494 
L 186.143392 171.330164 
z
" style="fill:#3a005a;"/>
    <path clip-path="url(#pf8a6ce29e5)" d="M 278.637155 163.996376 
L 278.730351 160.542864 
L 291.713813 164.315157 
L 291.597749 167.780781 
z
" style="fill:#0e023c;"/>
    <path clip-path="url(#pf8a6ce29e5)" d="M 201.27732 158.262275 
L 213.718049 161.984967 
L 213.518204 124.084843 
L 200.845726 120.497742 
z
" style="fill:#a83175;"/>
    <path clip-path="url(#pf8a6ce29e5)" d="M 213.718049 161.984967 
L 213.466797 114.335604 
L 220.924576 108.209493 
L 221.002748 155.562072 
z
" style="fill:#c04f5d;"/>
    <path clip-path="url(#pf8a6ce29e5)" d="M 258.898031 166.762758 
L 265.814761 160.252323 
L 266.233926 139.87982 
L 259.250584 146.264849 
z
" style="fill:#330146;"/>
    <path clip-path="url(#pf8a6ce29e5)" d="M 206.297214 168.527892 
L 213.718049 161.984967 
L 226.292478 165.747667 
L 218.949524 172.361429 
z
" style="fill:#844f23;"/>
    <path clip-path="url(#pf8a6ce29e5)" d="M 173.686069 167.507715 
L 173.232413 149.518147 
L 181.016754 143.103898 
L 181.397755 160.983577 
z
" style="fill:#610095;"/>
    <path clip-path="url(#pf8a6ce29e5)" d="M 271.803162 170.57712 
L 271.885394 167.10259 
L 278.730351 160.542864 
L 278.637155 163.996376 
z
" style="fill:#1e057f;"/>
    <path clip-path="url(#pf8a6ce29e5)" d="M 239.002775 169.551023 
L 246.131049 162.989229 
L 258.898031 166.762758 
L 251.851153 173.395697 
z
" style="fill:#793733;"/>
    <path clip-path="url(#pf8a6ce29e5)" d="M 201.27732 158.262275 
L 200.734786 110.79048 
L 213.466828 114.341503 
L 213.718049 161.984967 
z
" style="fill:#5b252c;"/>
    <path clip-path="url(#pf8a6ce29e5)" d="M 246.131049 162.989229 
L 258.898031 166.762758 
L 259.250584 146.264849 
L 246.35216 142.56386 
z
" style="fill:#6c0295;"/>
    <path clip-path="url(#pf8a6ce29e5)" d="M 246.35216 142.56386 
L 259.250584 146.264849 
L 266.233926 139.87982 
L 253.417765 136.24737 
z
" style="fill:#5d0181;"/>
    <path clip-path="url(#pf8a6ce29e5)" d="M 271.803162 170.57712 
L 278.637155 163.996376 
L 291.597749 167.780781 
L 284.848695 174.43298 
z
" style="fill:#12034d;"/>
    <path clip-path="url(#pf8a6ce29e5)" d="M 271.803162 170.57712 
L 278.637155 163.996376 
L 278.938958 152.812645 
L 272.069467 159.32492 
z
" style="fill:#200143;"/>
    <path clip-path="url(#pf8a6ce29e5)" d="M 259.090882 155.550162 
L 272.069467 159.32492 
L 278.938958 152.812645 
L 266.044059 149.10785 
z
" style="fill:#3b027b;"/>
    <path clip-path="url(#pf8a6ce29e5)" d="M 193.780682 164.735494 
L 193.054943 116.965765 
L 200.734786 110.79048 
L 201.27732 158.262275 
z
" style="fill:#c04f5d;"/>
    <path clip-path="url(#pf8a6ce29e5)" d="M 200.845726 120.497742 
L 213.518204 124.084843 
L 220.940567 117.896337 
L 208.346035 114.375777 
z
" style="fill:#912b66;"/>
    <path clip-path="url(#pf8a6ce29e5)" d="M 186.143392 171.330164 
L 193.780682 164.735494 
L 206.297214 168.527892 
L 198.736391 175.194243 
z
" style="fill:#763336;"/>
    <path clip-path="url(#pf8a6ce29e5)" d="M 233.500008 159.25588 
L 233.732072 108.16877 
L 246.686089 111.716799 
L 246.131049 162.989229 
z
" style="fill:#5e2a28;"/>
    <path clip-path="url(#pf8a6ce29e5)" d="M 291.597749 167.780781 
L 291.677531 165.398526 
L 304.794629 169.215581 
L 304.698789 171.606197 
z
" style="fill:#0a033a;"/>
    <path clip-path="url(#pf8a6ce29e5)" d="M 271.885394 167.10259 
L 284.954099 170.946233 
L 291.713813 164.315157 
L 278.730351 160.542864 
z
" style="fill:#1a046e;"/>
    <path clip-path="url(#pf8a6ce29e5)" d="M 258.898031 166.762758 
L 271.803162 170.57712 
L 272.069467 159.32492 
L 259.090882 155.550162 
z
" style="fill:#44028e;"/>
    <path clip-path="url(#pf8a6ce29e5)" d="M 226.292478 165.747667 
L 233.500008 159.25588 
L 233.715885 111.732296 
L 226.338961 117.925676 
z
" style="fill:#5b252c;"/>
    <path clip-path="url(#pf8a6ce29e5)" d="M 218.949524 172.361429 
L 226.292478 165.747667 
L 239.002775 169.551023 
L 231.739835 176.23678 
z
" style="fill:#86591d;"/>
    <path clip-path="url(#pf8a6ce29e5)" d="M 186.143392 171.330164 
L 193.780682 164.735494 
L 193.508084 146.79249 
L 185.799439 153.276707 
z
" style="fill:#2e0046;"/>
    <path clip-path="url(#pf8a6ce29e5)" d="M 226.292478 165.747667 
L 226.342448 114.338929 
L 233.732072 108.16877 
L 233.500008 159.25588 
z
" style="fill:#c75956;"/>
    <path clip-path="url(#pf8a6ce29e5)" d="M 284.848695 174.43298 
L 284.921149 172.036218 
L 291.677531 165.398526 
L 291.597749 167.780781 
z
" style="fill:#16067b;"/>
    <path clip-path="url(#pf8a6ce29e5)" d="M 284.848695 174.43298 
L 291.597749 167.780781 
L 291.713813 164.315157 
L 284.954099 170.946233 
z
" style="fill:#0e023c;"/>
    <path clip-path="url(#pf8a6ce29e5)" d="M 251.851153 173.395697 
L 258.898031 166.762758 
L 271.803162 170.57712 
L 264.839875 177.282368 
z
" style="fill:#6a2342;"/>
    <path clip-path="url(#pf8a6ce29e5)" d="M 213.718049 161.984967 
L 226.292478 165.747667 
L 226.338961 117.925676 
L 213.466797 114.335604 
z
" style="fill:#c04f5d;"/>
    <path clip-path="url(#pf8a6ce29e5)" d="M 173.686069 167.507715 
L 173.281204 151.452937 
L 185.836433 155.218452 
L 186.143392 171.330164 
z
" style="fill:#2a0046;"/>
    <path clip-path="url(#pf8a6ce29e5)" d="M 173.232413 149.518147 
L 185.799439 153.276707 
L 193.508084 146.79249 
L 181.016754 143.103898 
z
" style="fill:#540081;"/>
    <path clip-path="url(#pf8a6ce29e5)" d="M 173.686069 167.507715 
L 186.143392 171.330164 
L 185.799439 153.276707 
L 173.232413 149.518147 
z
" style="fill:#610095;"/>
    <path clip-path="url(#pf8a6ce29e5)" d="M 165.82912 174.154745 
L 173.686069 167.507715 
L 186.143392 171.330164 
L 178.361455 178.049733 
z
" style="fill:#350059;"/>
    <path clip-path="url(#pf8a6ce29e5)" d="M 284.848695 174.43298 
L 291.597749 167.780781 
L 304.698789 171.606197 
L 298.036935 178.33102 
z
" style="fill:#0d034a;"/>
    <path clip-path="url(#pf8a6ce29e5)" d="M 271.803162 170.57712 
L 284.848695 174.43298 
L 284.954099 170.946233 
L 271.885394 167.10259 
z
" style="fill:#1e057f;"/>
    <path clip-path="url(#pf8a6ce29e5)" d="M 206.297214 168.527892 
L 213.718049 161.984967 
L 213.466828 114.341503 
L 205.866373 120.58487 
z
" style="fill:#5b252c;"/>
    <path clip-path="url(#pf8a6ce29e5)" d="M 165.82912 174.154745 
L 165.357015 158.001172 
L 173.281204 151.452937 
L 173.686069 167.507715 
z
" style="fill:#590094;"/>
    <path clip-path="url(#pf8a6ce29e5)" d="M 198.736391 175.194243 
L 206.297214 168.527892 
L 218.949524 172.361429 
L 211.467294 179.100638 
z
" style="fill:#876317;"/>
    <path clip-path="url(#pf8a6ce29e5)" d="M 284.921149 172.036218 
L 298.125663 175.925826 
L 304.794629 169.215581 
L 291.677531 165.398526 
z
" style="fill:#13056b;"/>
    <path clip-path="url(#pf8a6ce29e5)" d="M 246.131049 162.989229 
L 246.691484 111.218392 
L 259.791698 114.803704 
L 258.898031 166.762758 
z
" style="fill:#5f2b28;"/>
    <path clip-path="url(#pf8a6ce29e5)" d="M 231.739835 176.23678 
L 239.002775 169.551023 
L 251.851153 173.395697 
L 244.670417 180.154631 
z
" style="fill:#876417;"/>
    <path clip-path="url(#pf8a6ce29e5)" d="M 213.718049 161.984967 
L 213.383319 98.504204 
L 226.354408 102.034229 
L 226.292478 165.747667 
z
" style="fill:#673e1b;"/>
    <path clip-path="url(#pf8a6ce29e5)" d="M 193.780682 164.735494 
L 206.297214 168.527892 
L 205.866373 120.58487 
L 193.054943 116.965765 
z
" style="fill:#c04f5d;"/>
    <path clip-path="url(#pf8a6ce29e5)" d="M 239.002775 169.551023 
L 246.131049 162.989229 
L 246.686089 111.716799 
L 239.379849 117.955204 
z
" style="fill:#5e2a28;"/>
    <path clip-path="url(#pf8a6ce29e5)" d="M 193.780682 164.735494 
L 193.026192 115.073325 
L 205.849303 118.685313 
L 206.297214 168.527892 
z
" style="fill:#5c282a;"/>
    <path clip-path="url(#pf8a6ce29e5)" d="M 239.002775 169.551023 
L 239.383515 117.453532 
L 246.691484 111.218392 
L 246.131049 162.989229 
z
" style="fill:#c95c54;"/>
    <path clip-path="url(#pf8a6ce29e5)" d="M 298.036935 178.33102 
L 304.698789 171.606197 
L 304.794629 169.215581 
L 298.125663 175.925826 
z
" style="fill:#0a033a;"/>
    <path clip-path="url(#pf8a6ce29e5)" d="M 271.803162 170.57712 
L 272.208604 153.44595 
L 285.368407 157.240938 
L 284.848695 174.43298 
z
" style="fill:#2c0046;"/>
    <path clip-path="url(#pf8a6ce29e5)" d="M 264.839875 177.282368 
L 271.803162 170.57712 
L 284.848695 174.43298 
L 277.971253 181.211726 
z
" style="fill:#380059;"/>
    <path clip-path="url(#pf8a6ce29e5)" d="M 258.898031 166.762758 
L 259.604869 125.666224 
L 272.779304 129.332111 
L 271.803162 170.57712 
z
" style="fill:#531b34;"/>
    <path clip-path="url(#pf8a6ce29e5)" d="M 206.297214 168.527892 
L 205.723114 104.6433 
L 213.383319 98.504204 
L 213.718049 161.984967 
z
" style="fill:#db8339;"/>
    <path clip-path="url(#pf8a6ce29e5)" d="M 178.361455 178.049733 
L 186.143392 171.330164 
L 198.736391 175.194243 
L 191.031582 181.987547 
z
" style="fill:#793733;"/>
    <path clip-path="url(#pf8a6ce29e5)" d="M 226.292478 165.747667 
L 239.002775 169.551023 
L 239.379849 117.955204 
L 226.342448 114.338929 
z
" style="fill:#c75956;"/>
    <path clip-path="url(#pf8a6ce29e5)" d="M 186.143392 171.330164 
L 185.191265 121.354894 
L 193.026192 115.073325 
L 193.780682 164.735494 
z
" style="fill:#c45459;"/>
    <path clip-path="url(#pf8a6ce29e5)" d="M 284.848695 174.43298 
L 298.036935 178.33102 
L 298.125663 175.925826 
L 284.921149 172.036218 
z
" style="fill:#16067b;"/>
    <path clip-path="url(#pf8a6ce29e5)" d="M 165.82912 174.154745 
L 165.6902 169.401426 
L 178.251692 173.279663 
L 178.361455 178.049733 
z
" style="fill:#11023d;"/>
    <path clip-path="url(#pf8a6ce29e5)" d="M 264.839875 177.282368 
L 265.189138 160.045568 
L 272.208604 153.44595 
L 271.803162 170.57712 
z
" style="fill:#5d0094;"/>
    <path clip-path="url(#pf8a6ce29e5)" d="M 213.466797 114.335604 
L 226.338961 117.925676 
L 233.715885 111.732296 
L 220.924576 108.209493 
z
" style="fill:#a74551;"/>
    <path clip-path="url(#pf8a6ce29e5)" d="M 251.851153 173.395697 
L 252.419266 132.041495 
L 259.604869 125.666224 
L 258.898031 166.762758 
z
" style="fill:#b03a6e;"/>
    <path clip-path="url(#pf8a6ce29e5)" d="M 284.848695 174.43298 
L 285.017886 168.836156 
L 298.244131 172.714457 
L 298.036935 178.33102 
z
" style="fill:#13023e;"/>
    <path clip-path="url(#pf8a6ce29e5)" d="M 178.361455 178.049733 
L 186.143392 171.330164 
L 185.836433 155.218452 
L 177.988428 161.838727 
z
" style="fill:#2a0046;"/>
    <path clip-path="url(#pf8a6ce29e5)" d="M 211.467294 179.100638 
L 218.949524 172.361429 
L 231.739835 176.23678 
L 224.338378 183.050047 
z
" style="fill:#857613;"/>
    <path clip-path="url(#pf8a6ce29e5)" d="M 157.822766 180.928173 
L 157.663331 176.145788 
L 165.6902 169.401426 
L 165.82912 174.154745 
z
" style="fill:#250582;"/>
    <path clip-path="url(#pf8a6ce29e5)" d="M 165.357015 158.001172 
L 177.988428 161.838727 
L 185.836433 155.218452 
L 173.281204 151.452937 
z
" style="fill:#4d0080;"/>
    <path clip-path="url(#pf8a6ce29e5)" d="M 244.670417 180.154631 
L 251.851153 173.395697 
L 264.839875 177.282368 
L 257.743589 184.115686 
z
" style="fill:#875b1b;"/>
    <path clip-path="url(#pf8a6ce29e5)" d="M 277.971253 181.211726 
L 278.122644 175.580651 
L 285.017886 168.836156 
L 284.848695 174.43298 
z
" style="fill:#280484;"/>
    <path clip-path="url(#pf8a6ce29e5)" d="M 165.82912 174.154745 
L 178.361455 178.049733 
L 177.988428 161.838727 
L 165.357015 158.001172 
z
" style="fill:#590094;"/>
    <path clip-path="url(#pf8a6ce29e5)" d="M 251.851153 173.395697 
L 258.898031 166.762758 
L 259.791698 114.803704 
L 252.569465 121.10821 
z
" style="fill:#5f2b28;"/>
    <path clip-path="url(#pf8a6ce29e5)" d="M 157.822766 180.928173 
L 165.82912 174.154745 
L 178.361455 178.049733 
L 170.430723 184.897786 
z
" style="fill:#16034f;"/>
    <path clip-path="url(#pf8a6ce29e5)" d="M 226.292478 165.747667 
L 226.3588 97.515701 
L 239.503267 101.067658 
L 239.002775 169.551023 
z
" style="fill:#694516;"/>
    <path clip-path="url(#pf8a6ce29e5)" d="M 277.971253 181.211726 
L 284.848695 174.43298 
L 298.036935 178.33102 
L 291.24765 185.184478 
z
" style="fill:#18034f;"/>
    <path clip-path="url(#pf8a6ce29e5)" d="M 193.054943 116.965765 
L 205.866373 120.58487 
L 213.466828 114.341503 
L 200.734786 110.79048 
z
" style="fill:#a74551;"/>
    <path clip-path="url(#pf8a6ce29e5)" d="M 218.949524 172.361429 
L 226.292478 165.747667 
L 226.354408 102.034229 
L 218.777082 108.241913 
z
" style="fill:#673e1b;"/>
    <path clip-path="url(#pf8a6ce29e5)" d="M 191.031582 181.987547 
L 198.736391 175.194243 
L 211.467294 179.100638 
L 203.841786 185.968896 
z
" style="fill:#876019;"/>
    <path clip-path="url(#pf8a6ce29e5)" d="M 239.002775 169.551023 
L 251.851153 173.395697 
L 252.569465 121.10821 
L 239.383515 117.453532 
z
" style="fill:#c95c54;"/>
    <path clip-path="url(#pf8a6ce29e5)" d="M 198.736391 175.194243 
L 206.297214 168.527892 
L 205.849303 118.685313 
L 198.094621 125.036868 
z
" style="fill:#5c282a;"/>
    <path clip-path="url(#pf8a6ce29e5)" d="M 277.971253 181.211726 
L 284.848695 174.43298 
L 285.368407 157.240938 
L 278.436315 163.913521 
z
" style="fill:#2c0046;"/>
    <path clip-path="url(#pf8a6ce29e5)" d="M 218.949524 172.361429 
L 218.764849 103.693136 
L 226.3588 97.515701 
L 226.292478 165.747667 
z
" style="fill:#df9330;"/>
    <path clip-path="url(#pf8a6ce29e5)" d="M 157.663331 176.145788 
L 170.300793 180.098508 
L 178.251692 173.279663 
L 165.6902 169.401426 
z
" style="fill:#200471;"/>
    <path clip-path="url(#pf8a6ce29e5)" d="M 264.839875 177.282368 
L 271.803162 170.57712 
L 272.779304 129.332111 
L 265.680856 135.778322 
z
" style="fill:#531b34;"/>
    <path clip-path="url(#pf8a6ce29e5)" d="M 224.338378 183.050047 
L 231.739835 176.23678 
L 244.670417 180.154631 
L 237.351973 187.043183 
z
" style="fill:#827e15;"/>
    <path clip-path="url(#pf8a6ce29e5)" d="M 206.297214 168.527892 
L 218.949524 172.361429 
L 218.777082 108.241913 
L 205.723114 104.6433 
z
" style="fill:#db8339;"/>
    <path clip-path="url(#pf8a6ce29e5)" d="M 278.122644 175.580651 
L 291.437563 179.533498 
L 298.244131 172.714457 
L 285.017886 168.836156 
z
" style="fill:#230472;"/>
    <path clip-path="url(#pf8a6ce29e5)" d="M 265.189138 160.045568 
L 278.436315 163.913521 
L 285.368407 157.240938 
L 272.208604 153.44595 
z
" style="fill:#500081;"/>
    <path clip-path="url(#pf8a6ce29e5)" d="M 186.143392 171.330164 
L 198.736391 175.194243 
L 198.094621 125.036868 
L 185.191265 121.354894 
z
" style="fill:#c45459;"/>
    <path clip-path="url(#pf8a6ce29e5)" d="M 226.342448 114.338929 
L 239.379849 117.955204 
L 246.686089 111.716799 
L 233.732072 108.16877 
z
" style="fill:#ad4e4a;"/>
    <path clip-path="url(#pf8a6ce29e5)" d="M 170.430723 184.897786 
L 178.361455 178.049733 
L 178.251692 173.279663 
L 170.300793 180.098508 
z
" style="fill:#11023d;"/>
    <path clip-path="url(#pf8a6ce29e5)" d="M 264.839875 177.282368 
L 277.971253 181.211726 
L 278.436315 163.913521 
L 265.189138 160.045568 
z
" style="fill:#5d0094;"/>
    <path clip-path="url(#pf8a6ce29e5)" d="M 186.143392 171.330164 
L 185.154495 119.424862 
L 198.069832 123.09953 
L 198.736391 175.194243 
z
" style="fill:#5e2b28;"/>
    <path clip-path="url(#pf8a6ce29e5)" d="M 257.743589 184.115686 
L 264.839875 177.282368 
L 277.971253 181.211726 
L 270.961723 188.120663 
z
" style="fill:#793832;"/>
    <path clip-path="url(#pf8a6ce29e5)" d="M 251.851153 173.395697 
L 264.839875 177.282368 
L 265.680856 135.778322 
L 252.419266 132.041495 
z
" style="fill:#b03a6e;"/>
    <path clip-path="url(#pf8a6ce29e5)" d="M 291.24765 185.184478 
L 298.036935 178.33102 
L 298.244131 172.714457 
L 291.437563 179.533498 
z
" style="fill:#13023e;"/>
    <path clip-path="url(#pf8a6ce29e5)" d="M 157.822766 180.928173 
L 157.785026 179.796107 
L 170.399966 183.761733 
L 170.430723 184.897786 
z
" style="fill:#050338;"/>
    <path clip-path="url(#pf8a6ce29e5)" d="M 206.297214 168.527892 
L 205.642568 95.680277 
L 218.752884 99.244159 
L 218.949524 172.361429 
z
" style="fill:#6a4d12;"/>
    <path clip-path="url(#pf8a6ce29e5)" d="M 170.430723 184.897786 
L 178.361455 178.049733 
L 191.031582 181.987547 
L 183.178635 188.911464 
z
" style="fill:#6c2640;"/>
    <path clip-path="url(#pf8a6ce29e5)" d="M 157.822766 180.928173 
L 170.430723 184.897786 
L 170.300793 180.098508 
L 157.663331 176.145788 
z
" style="fill:#250582;"/>
    <path clip-path="url(#pf8a6ce29e5)" d="M 178.361455 178.049733 
L 177.15951 125.815714 
L 185.154495 119.424862 
L 186.143392 171.330164 
z
" style="fill:#c85a55;"/>
    <path clip-path="url(#pf8a6ce29e5)" d="M 277.971253 181.211726 
L 291.24765 185.184478 
L 291.437563 179.533498 
L 278.122644 175.580651 
z
" style="fill:#280484;"/>
    <path clip-path="url(#pf8a6ce29e5)" d="M 239.002775 169.551023 
L 239.538947 96.185533 
L 252.862763 99.758407 
L 251.851153 173.395697 
z
" style="fill:#6a4e12;"/>
    <path clip-path="url(#pf8a6ce29e5)" d="M 203.841786 185.968896 
L 211.467294 179.100638 
L 224.338378 183.050047 
L 216.794403 189.994506 
z
" style="fill:#866f14;"/>
    <path clip-path="url(#pf8a6ce29e5)" d="M 149.662704 187.831639 
L 149.619926 186.692655 
L 157.785026 179.796107 
L 157.822766 180.928173 
z
" style="fill:#0b0777;"/>
    <path clip-path="url(#pf8a6ce29e5)" d="M 198.736391 175.194243 
L 197.798308 101.878611 
L 205.642568 95.680277 
L 206.297214 168.527892 
z
" style="fill:#e0a427;"/>
    <path clip-path="url(#pf8a6ce29e5)" d="M 231.739835 176.23678 
L 239.002775 169.551023 
L 239.503267 101.067658 
L 231.994914 107.314651 
z
" style="fill:#694516;"/>
    <path clip-path="url(#pf8a6ce29e5)" d="M 237.351973 187.043183 
L 244.670417 180.154631 
L 257.743589 184.115686 
L 250.510457 191.080779 
z
" style="fill:#808314;"/>
    <path clip-path="url(#pf8a6ce29e5)" d="M 231.739835 176.23678 
L 232.013104 102.39955 
L 239.538947 96.185533 
L 239.002775 169.551023 
z
" style="fill:#e0a626;"/>
    <path clip-path="url(#pf8a6ce29e5)" d="M 149.662704 187.831639 
L 157.822766 180.928173 
L 170.430723 184.897786 
L 162.346885 191.878042 
z
" style="fill:#070448;"/>
    <path clip-path="url(#pf8a6ce29e5)" d="M 277.971253 181.211726 
L 278.455952 163.183128 
L 291.855702 167.091528 
L 291.24765 185.184478 
z
" style="fill:#2d0046;"/>
    <path clip-path="url(#pf8a6ce29e5)" d="M 239.383515 117.453532 
L 252.569465 121.10821 
L 259.791698 114.803704 
L 246.691484 111.218392 
z
" style="fill:#ae4f49;"/>
    <path clip-path="url(#pf8a6ce29e5)" d="M 218.949524 172.361429 
L 231.739835 176.23678 
L 231.994914 107.314651 
L 218.764849 103.693136 
z
" style="fill:#df9330;"/>
    <path clip-path="url(#pf8a6ce29e5)" d="M 252.419266 132.041495 
L 265.680856 135.778322 
L 272.779304 129.332111 
L 259.604869 125.666224 
z
" style="fill:#98325f;"/>
    <path clip-path="url(#pf8a6ce29e5)" d="M 270.961723 188.120663 
L 277.971253 181.211726 
L 291.24765 185.184478 
L 284.327244 192.170297 
z
" style="fill:#3a005a;"/>
    <path clip-path="url(#pf8a6ce29e5)" d="M 149.619926 186.692655 
L 162.311175 190.735038 
L 170.399966 183.761733 
L 157.785026 179.796107 
z
" style="fill:#0a0667;"/>
    <path clip-path="url(#pf8a6ce29e5)" d="M 183.178635 188.911464 
L 191.031582 181.987547 
L 203.841786 185.968896 
L 196.068846 192.969946 
z
" style="fill:#876915;"/>
    <path clip-path="url(#pf8a6ce29e5)" d="M 185.191265 121.354894 
L 198.094621 125.036868 
L 205.849303 118.685313 
L 193.026192 115.073325 
z
" style="fill:#aa494e;"/>
    <path clip-path="url(#pf8a6ce29e5)" d="M 178.361455 178.049733 
L 177.376698 135.254267 
L 190.314194 139.036563 
L 191.031582 181.987547 
z
" style="fill:#541d32;"/>
    <path clip-path="url(#pf8a6ce29e5)" d="M 251.851153 173.395697 
L 252.810343 103.574207 
L 266.259878 107.202443 
L 264.839875 177.282368 
z
" style="fill:#694715;"/>
    <path clip-path="url(#pf8a6ce29e5)" d="M 270.961723 188.120663 
L 271.387158 169.980401 
L 278.455952 163.183128 
L 277.971253 181.211726 
z
" style="fill:#5f0094;"/>
    <path clip-path="url(#pf8a6ce29e5)" d="M 191.031582 181.987547 
L 198.736391 175.194243 
L 198.069832 123.09953 
L 190.155951 129.562349 
z
" style="fill:#5e2b28;"/>
    <path clip-path="url(#pf8a6ce29e5)" d="M 216.794403 189.994506 
L 224.338378 183.050047 
L 237.351973 187.043183 
L 229.891821 194.06512 
z
" style="fill:#867014;"/>
    <path clip-path="url(#pf8a6ce29e5)" d="M 162.346885 191.878042 
L 170.430723 184.897786 
L 170.399966 183.761733 
L 162.311175 190.735038 
z
" style="fill:#050338;"/>
    <path clip-path="url(#pf8a6ce29e5)" d="M 218.949524 172.361429 
L 218.732841 91.791666 
L 232.039133 95.366567 
L 231.739835 176.23678 
z
" style="fill:#685c0f;"/>
    <path clip-path="url(#pf8a6ce29e5)" d="M 264.839875 177.282368 
L 265.91393 124.275648 
L 279.401557 128.010945 
L 277.971253 181.211726 
z
" style="fill:#5f2c27;"/>
    <path clip-path="url(#pf8a6ce29e5)" d="M 211.467294 179.100638 
L 218.949524 172.361429 
L 218.752884 99.244159 
L 210.993007 105.512727 
z
" style="fill:#6a4d12;"/>
    <path clip-path="url(#pf8a6ce29e5)" d="M 170.430723 184.897786 
L 169.264824 141.832439 
L 177.376698 135.254267 
L 178.361455 178.049733 
z
" style="fill:#b33e6b;"/>
    <path clip-path="url(#pf8a6ce29e5)" d="M 244.670417 180.154631 
L 245.386231 109.884611 
L 252.810343 103.574207 
L 251.851153 173.395697 
z
" style="fill:#df972d;"/>
    <path clip-path="url(#pf8a6ce29e5)" d="M 178.361455 178.049733 
L 191.031582 181.987547 
L 190.155951 129.562349 
L 177.15951 125.815714 
z
" style="fill:#c85a55;"/>
    <path clip-path="url(#pf8a6ce29e5)" d="M 205.723114 104.6433 
L 218.777082 108.241913 
L 226.354408 102.034229 
L 213.383319 98.504204 
z
" style="fill:#be7132;"/>
    <path clip-path="url(#pf8a6ce29e5)" d="M 250.510457 191.080779 
L 257.743589 184.115686 
L 270.961723 188.120663 
L 263.816264 195.163579 
z
" style="fill:#867113;"/>
    <path clip-path="url(#pf8a6ce29e5)" d="M 170.430723 184.897786 
L 170.023976 169.873609 
L 182.866338 173.83372 
L 183.178635 188.911464 
z
" style="fill:#270045;"/>
    <path clip-path="url(#pf8a6ce29e5)" d="M 244.670417 180.154631 
L 251.851153 173.395697 
L 252.862763 99.758407 
L 245.425364 106.042957 
z
" style="fill:#6a4e12;"/>
    <path clip-path="url(#pf8a6ce29e5)" d="M 149.662704 187.831639 
L 149.631881 187.010956 
L 162.321154 191.054463 
L 162.346885 191.878042 
z
" style="fill:#050338;"/>
    <path clip-path="url(#pf8a6ce29e5)" d="M 198.736391 175.194243 
L 197.81833 103.443471 
L 211.003132 107.083707 
L 211.467294 179.100638 
z
" style="fill:#6a4b13;"/>
    <path clip-path="url(#pf8a6ce29e5)" d="M 149.662704 187.831639 
L 162.346885 191.878042 
L 162.311175 190.735038 
L 149.619926 186.692655 
z
" style="fill:#0b0777;"/>
    <path clip-path="url(#pf8a6ce29e5)" d="M 211.467294 179.100638 
L 210.944646 98.009402 
L 218.732841 91.791666 
L 218.949524 172.361429 
z
" style="fill:#dcc420;"/>
    <path clip-path="url(#pf8a6ce29e5)" d="M 257.743589 184.115686 
L 258.638145 130.772185 
L 265.91393 124.275648 
L 264.839875 177.282368 
z
" style="fill:#c95d53;"/>
    <path clip-path="url(#pf8a6ce29e5)" d="M 198.736391 175.194243 
L 211.467294 179.100638 
L 210.993007 105.512727 
L 197.798308 101.878611 
z
" style="fill:#e0a427;"/>
    <path clip-path="url(#pf8a6ce29e5)" d="M 162.346885 191.878042 
L 170.430723 184.897786 
L 183.178635 188.911464 
L 175.173234 195.969799 
z
" style="fill:#320058;"/>
    <path clip-path="url(#pf8a6ce29e5)" d="M 162.346885 191.878042 
L 161.874595 176.760918 
L 170.023976 169.873609 
L 170.430723 184.897786 
z
" style="fill:#530193;"/>
    <path clip-path="url(#pf8a6ce29e5)" d="M 231.739835 176.23678 
L 244.670417 180.154631 
L 245.425364 106.042957 
L 232.013104 102.39955 
z
" style="fill:#e0a626;"/>
    <path clip-path="url(#pf8a6ce29e5)" d="M 141.344465 194.868925 
L 141.309876 194.043217 
L 149.631881 187.010956 
L 149.662704 187.831639 
z
" style="fill:#0b0777;"/>
    <path clip-path="url(#pf8a6ce29e5)" d="M 196.068846 192.969946 
L 203.841786 185.968896 
L 216.794403 189.994506 
L 209.103753 197.073984 
z
" style="fill:#867213;"/>
    <path clip-path="url(#pf8a6ce29e5)" d="M 191.031582 181.987547 
L 189.825451 109.774837 
L 197.81833 103.443471 
L 198.736391 175.194243 
z
" style="fill:#e09f29;"/>
    <path clip-path="url(#pf8a6ce29e5)" d="M 284.327244 192.170297 
L 291.24765 185.184478 
L 291.855702 167.091528 
L 284.877718 173.965132 
z
" style="fill:#2d0046;"/>
    <path clip-path="url(#pf8a6ce29e5)" d="M 229.891821 194.06512 
L 237.351973 187.043183 
L 250.510457 191.080779 
L 243.136481 198.181496 
z
" style="fill:#808512;"/>
    <path clip-path="url(#pf8a6ce29e5)" d="M 271.387158 169.980401 
L 284.877718 173.965132 
L 291.855702 167.091528 
L 278.455952 163.183128 
z
" style="fill:#530081;"/>
    <path clip-path="url(#pf8a6ce29e5)" d="M 183.178635 188.911464 
L 191.031582 181.987547 
L 190.314194 139.036563 
L 182.283396 145.689191 
z
" style="fill:#541d32;"/>
    <path clip-path="url(#pf8a6ce29e5)" d="M 231.739835 176.23678 
L 232.05131 92.076305 
L 245.530938 95.67895 
L 244.670417 180.154631 
z
" style="fill:#666310;"/>
    <path clip-path="url(#pf8a6ce29e5)" d="M 257.743589 184.115686 
L 264.839875 177.282368 
L 266.259878 107.202443 
L 258.926374 113.584749 
z
" style="fill:#694715;"/>
    <path clip-path="url(#pf8a6ce29e5)" d="M 141.344465 194.868925 
L 149.662704 187.831639 
L 162.346885 191.878042 
L 154.105465 198.994368 
z
" style="fill:#070448;"/>
    <path clip-path="url(#pf8a6ce29e5)" d="M 270.961723 188.120663 
L 284.327244 192.170297 
L 284.877718 173.965132 
L 271.387158 169.980401 
z
" style="fill:#5f0094;"/>
    <path clip-path="url(#pf8a6ce29e5)" d="M 263.816264 195.163579 
L 270.961723 188.120663 
L 284.327244 192.170297 
L 277.271882 199.292348 
z
" style="fill:#6d273f;"/>
    <path clip-path="url(#pf8a6ce29e5)" d="M 141.309876 194.043217 
L 154.07603 198.16574 
L 162.321154 191.054463 
L 149.631881 187.010956 
z
" style="fill:#0a0667;"/>
    <path clip-path="url(#pf8a6ce29e5)" d="M 224.338378 183.050047 
L 231.739835 176.23678 
L 232.039133 95.366567 
L 224.338378 101.655415 
z
" style="fill:#685c0f;"/>
    <path clip-path="url(#pf8a6ce29e5)" d="M 270.961723 188.120663 
L 277.971253 181.211726 
L 279.401557 128.010945 
L 272.217356 134.581306 
z
" style="fill:#5f2c27;"/>
    <path clip-path="url(#pf8a6ce29e5)" d="M 175.173234 195.969799 
L 183.178635 188.911464 
L 196.068846 192.969946 
L 188.144156 200.107676 
z
" style="fill:#814728;"/>
    <path clip-path="url(#pf8a6ce29e5)" d="M 162.346885 191.878042 
L 162.21759 187.739548 
L 175.070115 191.816645 
L 175.173234 195.969799 
z
" style="fill:#10023d;"/>
    <path clip-path="url(#pf8a6ce29e5)" d="M 170.430723 184.897786 
L 183.178635 188.911464 
L 182.283396 145.689191 
L 169.264824 141.832439 
z
" style="fill:#b33e6b;"/>
    <path clip-path="url(#pf8a6ce29e5)" d="M 224.338378 183.050047 
L 224.338378 98.342487 
L 232.05131 92.076305 
L 231.739835 176.23678 
z
" style="fill:#d8d122;"/>
    <path clip-path="url(#pf8a6ce29e5)" d="M 244.670417 180.154631 
L 257.743589 184.115686 
L 258.926374 113.584749 
L 245.386231 109.884611 
z
" style="fill:#df972d;"/>
    <path clip-path="url(#pf8a6ce29e5)" d="M 175.173234 195.969799 
L 183.178635 188.911464 
L 182.866338 173.83372 
L 174.796548 180.798656 
z
" style="fill:#270045;"/>
    <path clip-path="url(#pf8a6ce29e5)" d="M 218.764849 103.693136 
L 231.994914 107.314651 
L 239.503267 101.067658 
L 226.3588 97.515701 
z
" style="fill:#c18029;"/>
    <path clip-path="url(#pf8a6ce29e5)" d="M 211.467294 179.100638 
L 210.961866 100.681119 
L 224.338378 104.337707 
L 224.338378 183.050047 
z
" style="fill:#69570f;"/>
    <path clip-path="url(#pf8a6ce29e5)" d="M 177.15951 125.815714 
L 190.155951 129.562349 
L 198.069832 123.09953 
L 185.154495 119.424862 
z
" style="fill:#ad4f4a;"/>
    <path clip-path="url(#pf8a6ce29e5)" d="M 154.105465 198.994368 
L 162.346885 191.878042 
L 162.321154 191.054463 
L 154.07603 198.16574 
z
" style="fill:#050338;"/>
    <path clip-path="url(#pf8a6ce29e5)" d="M 209.103753 197.073984 
L 216.794403 189.994506 
L 229.891821 194.06512 
L 222.285805 201.224351 
z
" style="fill:#876616;"/>
    <path clip-path="url(#pf8a6ce29e5)" d="M 203.841786 185.968896 
L 211.467294 179.100638 
L 211.003132 107.083707 
L 203.095295 113.487469 
z
" style="fill:#6a4b13;"/>
    <path clip-path="url(#pf8a6ce29e5)" d="M 211.467294 179.100638 
L 224.338378 183.050047 
L 224.338378 101.655415 
L 210.944646 98.009402 
z
" style="fill:#dcc420;"/>
    <path clip-path="url(#pf8a6ce29e5)" d="M 257.743589 184.115686 
L 270.961723 188.120663 
L 272.217356 134.581306 
L 258.638145 130.772185 
z
" style="fill:#c95d53;"/>
    <path clip-path="url(#pf8a6ce29e5)" d="M 161.874595 176.760918 
L 174.796548 180.798656 
L 182.866338 173.83372 
L 170.023976 169.873609 
z
" style="fill:#48017f;"/>
    <path clip-path="url(#pf8a6ce29e5)" d="M 154.105465 198.994368 
L 153.95755 194.830439 
L 162.21759 187.739548 
L 162.346885 191.878042 
z
" style="fill:#210581;"/>
    <path clip-path="url(#pf8a6ce29e5)" d="M 243.136481 198.181496 
L 250.510457 191.080779 
L 263.816264 195.163579 
L 256.530882 202.34441 
z
" style="fill:#847914;"/>
    <path clip-path="url(#pf8a6ce29e5)" d="M 162.346885 191.878042 
L 175.173234 195.969799 
L 174.796548 180.798656 
L 161.874595 176.760918 
z
" style="fill:#530193;"/>
    <path clip-path="url(#pf8a6ce29e5)" d="M 203.841786 185.968896 
L 203.028904 107.041162 
L 210.961866 100.681119 
L 211.467294 179.100638 
z
" style="fill:#deb821;"/>
    <path clip-path="url(#pf8a6ce29e5)" d="M 141.344465 194.868925 
L 154.105465 198.994368 
L 154.07603 198.16574 
L 141.309876 194.043217 
z
" style="fill:#0b0777;"/>
    <path clip-path="url(#pf8a6ce29e5)" d="M 191.031582 181.987547 
L 203.841786 185.968896 
L 203.095295 113.487469 
L 189.825451 109.774837 
z
" style="fill:#e09f29;"/>
    <path clip-path="url(#pf8a6ce29e5)" d="M 154.105465 198.994368 
L 162.346885 191.878042 
L 175.173234 195.969799 
L 167.010898 203.166503 
z
" style="fill:#14034e;"/>
    <path clip-path="url(#pf8a6ce29e5)" d="M 244.670417 180.154631 
L 245.547992 94.00483 
L 259.193726 97.642212 
L 257.743589 184.115686 
z
" style="fill:#646610;"/>
    <path clip-path="url(#pf8a6ce29e5)" d="M 191.031582 181.987547 
L 189.760833 105.906076 
L 203.055294 109.603492 
L 203.841786 185.968896 
z
" style="fill:#6a5210;"/>
    <path clip-path="url(#pf8a6ce29e5)" d="M 270.961723 188.120663 
L 271.990218 144.266296 
L 285.65812 148.155852 
L 284.327244 192.170297 
z
" style="fill:#551e32;"/>
    <path clip-path="url(#pf8a6ce29e5)" d="M 188.144156 200.107676 
L 196.068846 192.969946 
L 209.103753 197.073984 
L 201.262108 204.292457 
z
" style="fill:#857413;"/>
    <path clip-path="url(#pf8a6ce29e5)" d="M 237.351973 187.043183 
L 244.670417 180.154631 
L 245.530938 95.67895 
L 237.90826 102.017327 
z
" style="fill:#666310;"/>
    <path clip-path="url(#pf8a6ce29e5)" d="M 169.264824 141.832439 
L 182.283396 145.689191 
L 190.314194 139.036563 
L 177.376698 135.254267 
z
" style="fill:#9b365c;"/>
    <path clip-path="url(#pf8a6ce29e5)" d="M 153.95755 194.830439 
L 166.889478 198.987797 
L 175.070115 191.816645 
L 162.21759 187.739548 
z
" style="fill:#1d0470;"/>
    <path clip-path="url(#pf8a6ce29e5)" d="M 237.351973 187.043183 
L 237.919289 100.331606 
L 245.547992 94.00483 
L 244.670417 180.154631 
z
" style="fill:#d5d921;"/>
    <path clip-path="url(#pf8a6ce29e5)" d="M 183.178635 188.911464 
L 181.592594 112.337212 
L 189.760833 105.906076 
L 191.031582 181.987547 
z
" style="fill:#e0ae23;"/>
    <path clip-path="url(#pf8a6ce29e5)" d="M 224.338378 183.050047 
L 224.338378 104.038458 
L 237.870845 107.735956 
L 237.351973 187.043183 
z
" style="fill:#69570f;"/>
    <path clip-path="url(#pf8a6ce29e5)" d="M 222.285805 201.224351 
L 229.891821 194.06512 
L 243.136481 198.181496 
L 235.617509 205.421836 
z
" style="fill:#876b15;"/>
    <path clip-path="url(#pf8a6ce29e5)" d="M 263.816264 195.163579 
L 264.695764 151.031429 
L 271.990218 144.266296 
L 270.961723 188.120663 
z
" style="fill:#b54069;"/>
    <path clip-path="url(#pf8a6ce29e5)" d="M 197.798308 101.878611 
L 210.993007 105.512727 
L 218.752884 99.244159 
L 205.642568 95.680277 
z
" style="fill:#c28e22;"/>
    <path clip-path="url(#pf8a6ce29e5)" d="M 167.010898 203.166503 
L 175.173234 195.969799 
L 175.070115 191.816645 
L 166.889478 198.987797 
z
" style="fill:#10023d;"/>
    <path clip-path="url(#pf8a6ce29e5)" d="M 224.338378 183.050047 
L 237.351973 187.043183 
L 237.90826 102.017327 
L 224.338378 98.342487 
z
" style="fill:#d8d122;"/>
    <path clip-path="url(#pf8a6ce29e5)" d="M 257.743589 184.115686 
L 259.078703 104.501165 
L 272.835876 108.207985 
L 270.961723 188.120663 
z
" style="fill:#69580f;"/>
    <path clip-path="url(#pf8a6ce29e5)" d="M 256.530882 202.34441 
L 263.816264 195.163579 
L 277.271882 199.292348 
L 270.077576 206.554656 
z
" style="fill:#844f23;"/>
    <path clip-path="url(#pf8a6ce29e5)" d="M 216.794403 189.994506 
L 224.338378 183.050047 
L 224.338378 104.337707 
L 216.493484 110.771122 
z
" style="fill:#69570f;"/>
    <path clip-path="url(#pf8a6ce29e5)" d="M 216.794403 189.994506 
L 216.49234 110.469815 
L 224.338378 104.038458 
L 224.338378 183.050047 
z
" style="fill:#deb920;"/>
    <path clip-path="url(#pf8a6ce29e5)" d="M 232.013104 102.39955 
L 245.425364 106.042957 
L 252.862763 99.758407 
L 239.538947 96.185533 
z
" style="fill:#c29021;"/>
    <path clip-path="url(#pf8a6ce29e5)" d="M 167.010898 203.166503 
L 175.173234 195.969799 
L 188.144156 200.107676 
L 180.063228 207.386128 
z
" style="fill:#4f0956;"/>
    <path clip-path="url(#pf8a6ce29e5)" d="M 154.105465 198.994368 
L 167.010898 203.166503 
L 166.889478 198.987797 
L 153.95755 194.830439 
z
" style="fill:#210581;"/>
    <path clip-path="url(#pf8a6ce29e5)" d="M 258.638145 130.772185 
L 272.217356 134.581306 
L 279.401557 128.010945 
L 265.91393 124.275648 
z
" style="fill:#af5048;"/>
    <path clip-path="url(#pf8a6ce29e5)" d="M 250.510457 191.080779 
L 251.566975 110.948787 
L 259.078703 104.501165 
L 257.743589 184.115686 
z
" style="fill:#debb20;"/>
    <path clip-path="url(#pf8a6ce29e5)" d="M 183.178635 188.911464 
L 181.907527 127.542181 
L 195.190794 131.373561 
L 196.068846 192.969946 
z
" style="fill:#65381f;"/>
    <path clip-path="url(#pf8a6ce29e5)" d="M 203.841786 185.968896 
L 216.794403 189.994506 
L 216.493484 110.771122 
L 203.028904 107.041162 
z
" style="fill:#deb821;"/>
    <path clip-path="url(#pf8a6ce29e5)" d="M 203.841786 185.968896 
L 203.015938 105.782185 
L 216.488683 109.507146 
L 216.794403 189.994506 
z
" style="fill:#68590f;"/>
    <path clip-path="url(#pf8a6ce29e5)" d="M 201.262108 204.292457 
L 209.103753 197.073984 
L 222.285805 201.224351 
L 214.529606 208.524945 
z
" style="fill:#876218;"/>
    <path clip-path="url(#pf8a6ce29e5)" d="M 175.173234 195.969799 
L 174.49562 168.678711 
L 187.642462 172.718006 
L 188.144156 200.107676 
z
" style="fill:#3e0743;"/>
    <path clip-path="url(#pf8a6ce29e5)" d="M 250.510457 191.080779 
L 257.743589 184.115686 
L 259.193726 97.642212 
L 251.658035 104.042362 
z
" style="fill:#646610;"/>
    <path clip-path="url(#pf8a6ce29e5)" d="M 196.068846 192.969946 
L 203.841786 185.968896 
L 203.055294 109.603492 
L 194.973199 116.109042 
z
" style="fill:#6a5210;"/>
    <path clip-path="url(#pf8a6ce29e5)" d="M 175.173234 195.969799 
L 173.639703 134.2064 
L 181.907527 127.542181 
L 183.178635 188.911464 
z
" style="fill:#d67642;"/>
    <path clip-path="url(#pf8a6ce29e5)" d="M 235.617509 205.421836 
L 243.136481 198.181496 
L 256.530882 202.34441 
L 249.101427 209.667246 
z
" style="fill:#876616;"/>
    <path clip-path="url(#pf8a6ce29e5)" d="M 277.271882 199.292348 
L 284.327244 192.170297 
L 285.65812 148.155852 
L 278.457939 154.998698 
z
" style="fill:#551e32;"/>
    <path clip-path="url(#pf8a6ce29e5)" d="M 245.386231 109.884611 
L 258.926374 113.584749 
L 266.259878 107.202443 
L 252.810343 103.574207 
z
" style="fill:#c28327;"/>
    <path clip-path="url(#pf8a6ce29e5)" d="M 196.068846 192.969946 
L 194.918352 112.261441 
L 203.015938 105.782185 
L 203.841786 185.968896 
z
" style="fill:#ddbe20;"/>
    <path clip-path="url(#pf8a6ce29e5)" d="M 167.010898 203.166503 
L 166.212935 175.704362 
L 174.49562 168.678711 
L 175.173234 195.969799 
z
" style="fill:#820e8f;"/>
    <path clip-path="url(#pf8a6ce29e5)" d="M 237.351973 187.043183 
L 250.510457 191.080779 
L 251.658035 104.042362 
L 237.919289 100.331606 
z
" style="fill:#d5d921;"/>
    <path clip-path="url(#pf8a6ce29e5)" d="M 183.178635 188.911464 
L 196.068846 192.969946 
L 194.973199 116.109042 
L 181.592594 112.337212 
z
" style="fill:#e0ae23;"/>
    <path clip-path="url(#pf8a6ce29e5)" d="M 237.351973 187.043183 
L 237.925205 99.427272 
L 251.670006 103.134397 
L 250.510457 191.080779 
z
" style="fill:#64680e;"/>
    <path clip-path="url(#pf8a6ce29e5)" d="M 229.891821 194.06512 
L 237.351973 187.043183 
L 237.870845 107.735956 
L 230.115475 114.241949 
z
" style="fill:#69570f;"/>
    <path clip-path="url(#pf8a6ce29e5)" d="M 263.816264 195.163579 
L 277.271882 199.292348 
L 278.457939 154.998698 
L 264.695764 151.031429 
z
" style="fill:#b54069;"/>
    <path clip-path="url(#pf8a6ce29e5)" d="M 180.063228 207.386128 
L 188.144156 200.107676 
L 201.262108 204.292457 
L 193.264978 211.654059 
z
" style="fill:#804529;"/>
    <path clip-path="url(#pf8a6ce29e5)" d="M 216.794403 189.994506 
L 216.507597 114.486686 
L 230.104176 118.274752 
L 229.891821 194.06512 
z
" style="fill:#6a4f11;"/>
    <path clip-path="url(#pf8a6ce29e5)" d="M 263.816264 195.163579 
L 270.961723 188.120663 
L 272.835876 108.207985 
L 265.419197 114.730568 
z
" style="fill:#69580f;"/>
    <path clip-path="url(#pf8a6ce29e5)" d="M 189.825451 109.774837 
L 203.095295 113.487469 
L 211.003132 107.083707 
L 197.81833 103.443471 
z
" style="fill:#c28a24;"/>
    <path clip-path="url(#pf8a6ce29e5)" d="M 229.891821 194.06512 
L 230.138917 105.875644 
L 237.925205 99.427272 
L 237.351973 187.043183 
z
" style="fill:#d4dc1e;"/>
    <path clip-path="url(#pf8a6ce29e5)" d="M 216.794403 189.994506 
L 229.891821 194.06512 
L 230.115475 114.241949 
L 216.49234 110.469815 
z
" style="fill:#deb920;"/>
    <path clip-path="url(#pf8a6ce29e5)" d="M 210.944646 98.009402 
L 224.338378 101.655415 
L 232.039133 95.366567 
L 218.732841 91.791666 
z
" style="fill:#bfaa1c;"/>
    <path clip-path="url(#pf8a6ce29e5)" d="M 214.529606 208.524945 
L 222.285805 201.224351 
L 235.617509 205.421836 
L 227.94922 212.80596 
z
" style="fill:#86541f;"/>
    <path clip-path="url(#pf8a6ce29e5)" d="M 209.103753 197.073984 
L 208.518719 121.075803 
L 216.507597 114.486686 
L 216.794403 189.994506 
z
" style="fill:#e0a825;"/>
    <path clip-path="url(#pf8a6ce29e5)" d="M 250.510457 191.080779 
L 263.816264 195.163579 
L 265.419197 114.730568 
L 251.566975 110.948787 
z
" style="fill:#debb20;"/>
    <path clip-path="url(#pf8a6ce29e5)" d="M 188.144156 200.107676 
L 196.068846 192.969946 
L 195.190794 131.373561 
L 187.008644 138.115089 
z
" style="fill:#65381f;"/>
    <path clip-path="url(#pf8a6ce29e5)" d="M 249.101427 209.667246 
L 256.530882 202.34441 
L 270.077576 206.554656 
L 262.740181 213.961405 
z
" style="fill:#855320;"/>
    <path clip-path="url(#pf8a6ce29e5)" d="M 209.103753 197.073984 
L 216.794403 189.994506 
L 216.488683 109.507146 
L 208.480122 116.061951 
z
" style="fill:#68590f;"/>
    <path clip-path="url(#pf8a6ce29e5)" d="M 250.510457 191.080779 
L 251.606485 107.95219 
L 265.479154 111.722009 
L 263.816264 195.163579 
z
" style="fill:#675e10;"/>
    <path clip-path="url(#pf8a6ce29e5)" d="M 180.063228 207.386128 
L 188.144156 200.107676 
L 187.642462 172.718006 
L 179.443389 179.824577 
z
" style="fill:#3e0743;"/>
    <path clip-path="url(#pf8a6ce29e5)" d="M 263.816264 195.163579 
L 265.124812 129.502395 
L 279.036642 133.386848 
L 277.271882 199.292348 
z
" style="fill:#673e1b;"/>
    <path clip-path="url(#pf8a6ce29e5)" d="M 175.173234 195.969799 
L 188.144156 200.107676 
L 187.008644 138.115089 
L 173.639703 134.2064 
z
" style="fill:#d67642;"/>
    <path clip-path="url(#pf8a6ce29e5)" d="M 264.695764 151.031429 
L 278.457939 154.998698 
L 285.65812 148.155852 
L 271.990218 144.266296 
z
" style="fill:#9d385b;"/>
    <path clip-path="url(#pf8a6ce29e5)" d="M 196.068846 192.969946 
L 209.103753 197.073984 
L 208.480122 116.061951 
L 194.918352 112.261441 
z
" style="fill:#ddbe20;"/>
    <path clip-path="url(#pf8a6ce29e5)" d="M 243.136481 198.181496 
L 243.931693 114.509712 
L 251.606485 107.95219 
L 250.510457 191.080779 
z
" style="fill:#dbc821;"/>
    <path clip-path="url(#pf8a6ce29e5)" d="M 193.264978 211.654059 
L 201.262108 204.292457 
L 214.529606 208.524945 
L 206.61873 215.971129 
z
" style="fill:#834b25;"/>
    <path clip-path="url(#pf8a6ce29e5)" d="M 196.068846 192.969946 
L 194.906722 111.445626 
L 208.473817 115.242878 
L 209.103753 197.073984 
z
" style="fill:#685b0f;"/>
    <path clip-path="url(#pf8a6ce29e5)" d="M 167.010898 203.166503 
L 180.063228 207.386128 
L 179.443389 179.824577 
L 166.212935 175.704362 
z
" style="fill:#820e8f;"/>
    <path clip-path="url(#pf8a6ce29e5)" d="M 229.891821 194.06512 
L 230.109823 116.259172 
L 243.87872 120.083461 
L 243.136481 198.181496 
z
" style="fill:#695310;"/>
    <path clip-path="url(#pf8a6ce29e5)" d="M 243.136481 198.181496 
L 250.510457 191.080779 
L 251.670006 103.134397 
L 243.9778 109.658346 
z
" style="fill:#64680e;"/>
    <path clip-path="url(#pf8a6ce29e5)" d="M 256.530882 202.34441 
L 257.608744 136.259239 
L 265.124812 129.502395 
L 263.816264 195.163579 
z
" style="fill:#db8339;"/>
    <path clip-path="url(#pf8a6ce29e5)" d="M 227.94922 212.80596 
L 235.617509 205.421836 
L 249.101427 209.667246 
L 241.523583 217.136342 
z
" style="fill:#855022;"/>
    <path clip-path="url(#pf8a6ce29e5)" d="M 188.144156 200.107676 
L 186.641131 118.050921 
L 194.906722 111.445626 
L 196.068846 192.969946 
z
" style="fill:#ddc120;"/>
    <path clip-path="url(#pf8a6ce29e5)" d="M 222.285805 201.224351 
L 229.891821 194.06512 
L 230.104176 118.274752 
L 222.206521 124.940961 
z
" style="fill:#6a4f11;"/>
    <path clip-path="url(#pf8a6ce29e5)" d="M 166.212935 175.704362 
L 179.443389 179.824577 
L 187.642462 172.718006 
L 174.49562 168.678711 
z
" style="fill:#710d7c;"/>
    <path clip-path="url(#pf8a6ce29e5)" d="M 224.338378 98.342487 
L 237.90826 102.017327 
L 245.530938 95.67895 
L 232.05131 92.076305 
z
" style="fill:#bbb51e;"/>
    <path clip-path="url(#pf8a6ce29e5)" d="M 222.285805 201.224351 
L 222.204412 122.91149 
L 230.109823 116.259172 
L 229.891821 194.06512 
z
" style="fill:#dfb122;"/>
    <path clip-path="url(#pf8a6ce29e5)" d="M 229.891821 194.06512 
L 243.136481 198.181496 
L 243.9778 109.658346 
L 230.138917 105.875644 
z
" style="fill:#d4dc1e;"/>
    <path clip-path="url(#pf8a6ce29e5)" d="M 209.103753 197.073984 
L 208.531944 122.793878 
L 222.208314 126.665849 
L 222.285805 201.224351 
z
" style="fill:#6a4d13;"/>
    <path clip-path="url(#pf8a6ce29e5)" d="M 203.028904 107.041162 
L 216.493484 110.771122 
L 224.338378 104.337707 
L 210.961866 100.681119 
z
" style="fill:#c1a01c;"/>
    <path clip-path="url(#pf8a6ce29e5)" d="M 209.103753 197.073984 
L 222.285805 201.224351 
L 222.206521 124.940961 
L 208.518719 121.075803 
z
" style="fill:#e0a825;"/>
    <path clip-path="url(#pf8a6ce29e5)" d="M 188.144156 200.107676 
L 187.026865 139.109857 
L 200.545597 143.068122 
L 201.262108 204.292457 
z
" style="fill:#643620;"/>
    <path clip-path="url(#pf8a6ce29e5)" d="M 256.530882 202.34441 
L 263.816264 195.163579 
L 265.479154 111.722009 
L 257.900738 118.356658 
z
" style="fill:#675e10;"/>
    <path clip-path="url(#pf8a6ce29e5)" d="M 206.61873 215.971129 
L 214.529606 208.524945 
L 227.94922 212.80596 
L 220.127123 220.338193 
z
" style="fill:#793832;"/>
    <path clip-path="url(#pf8a6ce29e5)" d="M 243.136481 198.181496 
L 243.856635 122.407252 
L 257.771414 126.285738 
L 256.530882 202.34441 
z
" style="fill:#6a4f11;"/>
    <path clip-path="url(#pf8a6ce29e5)" d="M 201.262108 204.292457 
L 200.387151 129.529209 
L 208.531944 122.793878 
L 209.103753 197.073984 
z
" style="fill:#e0a327;"/>
    <path clip-path="url(#pf8a6ce29e5)" d="M 180.063228 207.386128 
L 178.682592 145.995229 
L 187.026865 139.109857 
L 188.144156 200.107676 
z
" style="fill:#d57244;"/>
    <path clip-path="url(#pf8a6ce29e5)" d="M 270.077576 206.554656 
L 277.271882 199.292348 
L 279.036642 133.386848 
L 271.618004 140.222935 
z
" style="fill:#673e1b;"/>
    <path clip-path="url(#pf8a6ce29e5)" d="M 181.592594 112.337212 
L 194.973199 116.109042 
L 203.055294 109.603492 
L 189.760833 105.906076 
z
" style="fill:#c2971e;"/>
    <path clip-path="url(#pf8a6ce29e5)" d="M 241.523583 217.136342 
L 249.101427 209.667246 
L 262.740181 213.961405 
L 255.255385 221.516949 
z
" style="fill:#7f422b;"/>
    <path clip-path="url(#pf8a6ce29e5)" d="M 243.136481 198.181496 
L 256.530882 202.34441 
L 257.900738 118.356658 
L 243.931693 114.509712 
z
" style="fill:#dbc821;"/>
    <path clip-path="url(#pf8a6ce29e5)" d="M 201.262108 204.292457 
L 209.103753 197.073984 
L 208.473817 115.242878 
L 200.29817 121.926008 
z
" style="fill:#685b0f;"/>
    <path clip-path="url(#pf8a6ce29e5)" d="M 235.617509 205.421836 
L 236.054024 129.153982 
L 243.856635 122.407252 
L 243.136481 198.181496 
z
" style="fill:#e0a825;"/>
    <path clip-path="url(#pf8a6ce29e5)" d="M 222.285805 201.224351 
L 222.214754 132.862597 
L 236.010236 136.804679 
L 235.617509 205.421836 
z
" style="fill:#684219;"/>
    <path clip-path="url(#pf8a6ce29e5)" d="M 235.617509 205.421836 
L 243.136481 198.181496 
L 243.87872 120.083461 
L 236.067416 126.814145 
z
" style="fill:#695310;"/>
    <path clip-path="url(#pf8a6ce29e5)" d="M 256.530882 202.34441 
L 270.077576 206.554656 
L 271.618004 140.222935 
L 257.608744 136.259239 
z
" style="fill:#db8339;"/>
    <path clip-path="url(#pf8a6ce29e5)" d="M 237.919289 100.331606 
L 251.658035 104.042362 
L 259.193726 97.642212 
L 245.547992 94.00483 
z
" style="fill:#b9bc1d;"/>
    <path clip-path="url(#pf8a6ce29e5)" d="M 256.530882 202.34441 
L 257.637551 134.49303 
L 271.659182 138.449791 
L 270.077576 206.554656 
z
" style="fill:#684119;"/>
    <path clip-path="url(#pf8a6ce29e5)" d="M 173.639703 134.2064 
L 187.008644 138.115089 
L 195.190794 131.373561 
L 181.907527 127.542181 
z
" style="fill:#ba6639;"/>
    <path clip-path="url(#pf8a6ce29e5)" d="M 216.49234 110.469815 
L 230.115475 114.241949 
L 237.870845 107.735956 
L 224.338378 104.038458 
z
" style="fill:#c1a11c;"/>
    <path clip-path="url(#pf8a6ce29e5)" d="M 188.144156 200.107676 
L 201.262108 204.292457 
L 200.29817 121.926008 
L 186.641131 118.050921 
z
" style="fill:#ddc120;"/>
    <path clip-path="url(#pf8a6ce29e5)" d="M 214.529606 208.524945 
L 214.1866 139.71997 
L 222.214754 132.862597 
L 222.285805 201.224351 
z
" style="fill:#dd8b34;"/>
    <path clip-path="url(#pf8a6ce29e5)" d="M 222.285805 201.224351 
L 235.617509 205.421836 
L 236.067416 126.814145 
L 222.204412 122.91149 
z
" style="fill:#dfb122;"/>
    <path clip-path="url(#pf8a6ce29e5)" d="M 201.262108 204.292457 
L 200.513168 140.297127 
L 214.209388 144.291106 
L 214.529606 208.524945 
z
" style="fill:#663a1d;"/>
    <path clip-path="url(#pf8a6ce29e5)" d="M 220.127123 220.338193 
L 227.94922 212.80596 
L 241.523583 217.136342 
L 233.792858 224.756123 
z
" style="fill:#763336;"/>
    <path clip-path="url(#pf8a6ce29e5)" d="M 249.101427 209.667246 
L 249.961406 141.375975 
L 257.637551 134.49303 
L 256.530882 202.34441 
z
" style="fill:#dd8936;"/>
    <path clip-path="url(#pf8a6ce29e5)" d="M 251.566975 110.948787 
L 265.419197 114.730568 
L 272.835876 108.207985 
L 259.078703 104.501165 
z
" style="fill:#c1a21c;"/>
    <path clip-path="url(#pf8a6ce29e5)" d="M 214.529606 208.524945 
L 222.285805 201.224351 
L 222.208314 126.665849 
L 214.155497 133.48072 
z
" style="fill:#6a4d13;"/>
    <path clip-path="url(#pf8a6ce29e5)" d="M 193.264978 211.654059 
L 201.262108 204.292457 
L 200.545597 143.068122 
L 192.290293 150.034615 
z
" style="fill:#643620;"/>
    <path clip-path="url(#pf8a6ce29e5)" d="M 193.264978 211.654059 
L 192.246165 147.244839 
L 200.513168 140.297127 
L 201.262108 204.292457 
z
" style="fill:#d97c3e;"/>
    <path clip-path="url(#pf8a6ce29e5)" d="M 235.617509 205.421836 
L 235.999354 138.705958 
L 249.944706 142.702107 
L 249.101427 209.667246 
z
" style="fill:#683f1a;"/>
    <path clip-path="url(#pf8a6ce29e5)" d="M 249.101427 209.667246 
L 256.530882 202.34441 
L 257.771414 126.285738 
L 250.065469 133.112325 
z
" style="fill:#6a4f11;"/>
    <path clip-path="url(#pf8a6ce29e5)" d="M 201.262108 204.292457 
L 214.529606 208.524945 
L 214.155497 133.48072 
L 200.387151 129.529209 
z
" style="fill:#e0a327;"/>
    <path clip-path="url(#pf8a6ce29e5)" d="M 214.529606 208.524945 
L 214.258617 154.166024 
L 228.049565 158.245726 
L 227.94922 212.80596 
z
" style="fill:#5f2c27;"/>
    <path clip-path="url(#pf8a6ce29e5)" d="M 194.918352 112.261441 
L 208.480122 116.061951 
L 216.488683 109.507146 
L 203.015938 105.782185 
z
" style="fill:#c0a51c;"/>
    <path clip-path="url(#pf8a6ce29e5)" d="M 180.063228 207.386128 
L 193.264978 211.654059 
L 192.290293 150.034615 
L 178.682592 145.995229 
z
" style="fill:#d57244;"/>
    <path clip-path="url(#pf8a6ce29e5)" d="M 227.94922 212.80596 
L 228.072717 145.657532 
L 235.999354 138.705958 
L 235.617509 205.421836 
z
" style="fill:#dc8538;"/>
    <path clip-path="url(#pf8a6ce29e5)" d="M 235.617509 205.421836 
L 249.101427 209.667246 
L 250.065469 133.112325 
L 236.054024 129.153982 
z
" style="fill:#e0a825;"/>
    <path clip-path="url(#pf8a6ce29e5)" d="M 227.94922 212.80596 
L 235.617509 205.421836 
L 236.010236 136.804679 
L 228.076238 143.743265 
z
" style="fill:#684219;"/>
    <path clip-path="url(#pf8a6ce29e5)" d="M 206.61873 215.971129 
L 206.124167 161.262885 
L 214.258617 154.166024 
L 214.529606 208.524945 
z
" style="fill:#c95d53;"/>
    <path clip-path="url(#pf8a6ce29e5)" d="M 233.792858 224.756123 
L 241.523583 217.136342 
L 255.255385 221.516949 
L 247.618703 229.225814 
z
" style="fill:#702b3c;"/>
    <path clip-path="url(#pf8a6ce29e5)" d="M 262.740181 213.961405 
L 270.077576 206.554656 
L 271.659182 138.449791 
L 264.081736 145.414358 
z
" style="fill:#684119;"/>
    <path clip-path="url(#pf8a6ce29e5)" d="M 249.101427 209.667246 
L 249.858277 149.565498 
L 263.920827 153.635996 
L 262.740181 213.961405 
z
" style="fill:#633422;"/>
    <path clip-path="url(#pf8a6ce29e5)" d="M 208.518719 121.075803 
L 222.206521 124.940961 
L 230.104176 118.274752 
L 216.507597 114.486686 
z
" style="fill:#c29220;"/>
    <path clip-path="url(#pf8a6ce29e5)" d="M 214.529606 208.524945 
L 227.94922 212.80596 
L 228.076238 143.743265 
L 214.1866 139.71997 
z
" style="fill:#dd8b34;"/>
    <path clip-path="url(#pf8a6ce29e5)" d="M 206.61873 215.971129 
L 214.529606 208.524945 
L 214.209388 144.291106 
L 206.034295 151.321273 
z
" style="fill:#663a1d;"/>
    <path clip-path="url(#pf8a6ce29e5)" d="M 249.101427 209.667246 
L 262.740181 213.961405 
L 264.081736 145.414358 
L 249.961406 141.375975 
z
" style="fill:#dd8936;"/>
    <path clip-path="url(#pf8a6ce29e5)" d="M 227.94922 212.80596 
L 228.0442 161.163241 
L 241.978297 165.302566 
L 241.523583 217.136342 
z
" style="fill:#5c282a;"/>
    <path clip-path="url(#pf8a6ce29e5)" d="M 241.523583 217.136342 
L 242.054233 156.646484 
L 249.858277 149.565498 
L 249.101427 209.667246 
z
" style="fill:#d36e47;"/>
    <path clip-path="url(#pf8a6ce29e5)" d="M 230.138917 105.875644 
L 243.9778 109.658346 
L 251.670006 103.134397 
L 237.925205 99.427272 
z
" style="fill:#b8bf1a;"/>
    <path clip-path="url(#pf8a6ce29e5)" d="M 257.608744 136.259239 
L 271.618004 140.222935 
L 279.036642 133.386848 
L 265.124812 129.502395 
z
" style="fill:#be7132;"/>
    <path clip-path="url(#pf8a6ce29e5)" d="M 193.264978 211.654059 
L 206.61873 215.971129 
L 206.034295 151.321273 
L 192.246165 147.244839 
z
" style="fill:#d97c3e;"/>
    <path clip-path="url(#pf8a6ce29e5)" d="M 241.523583 217.136342 
L 249.101427 209.667246 
L 249.944706 142.702107 
L 242.114852 149.736423 
z
" style="fill:#683f1a;"/>
    <path clip-path="url(#pf8a6ce29e5)" d="M 220.127123 220.338193 
L 220.015209 168.363959 
L 228.0442 161.163241 
L 227.94922 212.80596 
z
" style="fill:#c45459;"/>
    <path clip-path="url(#pf8a6ce29e5)" d="M 220.127123 220.338193 
L 227.94922 212.80596 
L 228.049565 158.245726 
L 220.008885 165.426896 
z
" style="fill:#5f2c27;"/>
    <path clip-path="url(#pf8a6ce29e5)" d="M 243.931693 114.509712 
L 257.900738 118.356658 
L 265.479154 111.722009 
L 251.606485 107.95219 
z
" style="fill:#beae1d;"/>
    <path clip-path="url(#pf8a6ce29e5)" d="M 227.94922 212.80596 
L 241.523583 217.136342 
L 242.114852 149.736423 
L 228.072717 145.657532 
z
" style="fill:#dc8538;"/>
    <path clip-path="url(#pf8a6ce29e5)" d="M 241.523583 217.136342 
L 241.938325 169.859117 
L 256.005958 174.065247 
L 255.255385 221.516949 
z
" style="fill:#58222f;"/>
    <path clip-path="url(#pf8a6ce29e5)" d="M 206.61873 215.971129 
L 220.127123 220.338193 
L 220.008885 165.426896 
L 206.124167 161.262885 
z
" style="fill:#c95d53;"/>
    <path clip-path="url(#pf8a6ce29e5)" d="M 222.204412 122.91149 
L 236.067416 126.814145 
L 243.87872 120.083461 
L 230.109823 116.259172 
z
" style="fill:#c2991e;"/>
    <path clip-path="url(#pf8a6ce29e5)" d="M 178.682592 145.995229 
L 192.290293 150.034615 
L 200.545597 143.068122 
L 187.026865 139.109857 
z
" style="fill:#b9633b;"/>
    <path clip-path="url(#pf8a6ce29e5)" d="M 186.641131 118.050921 
L 200.29817 121.926008 
L 208.473817 115.242878 
L 194.906722 111.445626 
z
" style="fill:#c0a71c;"/>
    <path clip-path="url(#pf8a6ce29e5)" d="M 255.255385 221.516949 
L 262.740181 213.961405 
L 263.920827 153.635996 
L 256.215759 160.801478 
z
" style="fill:#633422;"/>
    <path clip-path="url(#pf8a6ce29e5)" d="M 233.792858 224.756123 
L 234.023387 177.176164 
L 241.938325 169.859117 
L 241.523583 217.136342 
z
" style="fill:#ba4763;"/>
    <path clip-path="url(#pf8a6ce29e5)" d="M 200.387151 129.529209 
L 214.155497 133.48072 
L 222.208314 126.665849 
L 208.531944 122.793878 
z
" style="fill:#c28d22;"/>
    <path clip-path="url(#pf8a6ce29e5)" d="M 233.792858 224.756123 
L 241.523583 217.136342 
L 241.978297 165.302566 
L 234.045612 172.589212 
z
" style="fill:#5c282a;"/>
    <path clip-path="url(#pf8a6ce29e5)" d="M 241.523583 217.136342 
L 255.255385 221.516949 
L 256.215759 160.801478 
L 242.054233 156.646484 
z
" style="fill:#d36e47;"/>
    <path clip-path="url(#pf8a6ce29e5)" d="M 236.054024 129.153982 
L 250.065469 133.112325 
L 257.771414 126.285738 
L 243.856635 122.407252 
z
" style="fill:#c29220;"/>
    <path clip-path="url(#pf8a6ce29e5)" d="M 220.127123 220.338193 
L 233.792858 224.756123 
L 234.045612 172.589212 
L 220.015209 168.363959 
z
" style="fill:#c45459;"/>
    <path clip-path="url(#pf8a6ce29e5)" d="M 214.1866 139.71997 
L 228.076238 143.743265 
L 236.010236 136.804679 
L 222.214754 132.862597 
z
" style="fill:#c0792d;"/>
    <path clip-path="url(#pf8a6ce29e5)" d="M 249.961406 141.375975 
L 264.081736 145.414358 
L 271.659182 138.449791 
L 257.637551 134.49303 
z
" style="fill:#bf772f;"/>
    <path clip-path="url(#pf8a6ce29e5)" d="M 192.246165 147.244839 
L 206.034295 151.321273 
L 214.209388 144.291106 
L 200.513168 140.297127 
z
" style="fill:#bc6b36;"/>
    <path clip-path="url(#pf8a6ce29e5)" d="M 247.618703 229.225814 
L 255.255385 221.516949 
L 256.005958 174.065247 
L 248.189755 181.469933 
z
" style="fill:#58222f;"/>
    <path clip-path="url(#pf8a6ce29e5)" d="M 206.124167 161.262885 
L 220.008885 165.426896 
L 228.049565 158.245726 
L 214.258617 154.166024 
z
" style="fill:#af5048;"/>
    <path clip-path="url(#pf8a6ce29e5)" d="M 233.792858 224.756123 
L 247.618703 229.225814 
L 248.189755 181.469933 
L 234.023387 177.176164 
z
" style="fill:#ba4763;"/>
    <path clip-path="url(#pf8a6ce29e5)" d="M 228.072717 145.657532 
L 242.114852 149.736423 
L 249.944706 142.702107 
L 235.999354 138.705958 
z
" style="fill:#bf7431;"/>
    <path clip-path="url(#pf8a6ce29e5)" d="M 242.054233 156.646484 
L 256.215759 160.801478 
L 263.920827 153.635996 
L 249.858277 149.565498 
z
" style="fill:#b75f3e;"/>
    <path clip-path="url(#pf8a6ce29e5)" d="M 220.015209 168.363959 
L 234.045612 172.589212 
L 241.978297 165.302566 
L 228.0442 161.163241 
z
" style="fill:#aa494e;"/>
    <path clip-path="url(#pf8a6ce29e5)" d="M 234.023387 177.176164 
L 248.189755 181.469933 
L 256.005958 174.065247 
L 241.938325 169.859117 
z
" style="fill:#a23e56;"/>
   </g>
   <g id="text_17">
    <!-- W35__H40__A300_bars_extracted.txt -->
    <g transform="translate(110.101875 28.56)scale(0.12 -0.12)">
     <defs>
      <path d="M 3.328125 72.90625 
L 13.28125 72.90625 
L 28.609375 11.28125 
L 43.890625 72.90625 
L 54.984375 72.90625 
L 70.3125 11.28125 
L 85.59375 72.90625 
L 95.609375 72.90625 
L 77.296875 0 
L 64.890625 0 
L 49.515625 63.28125 
L 33.984375 0 
L 21.578125 0 
z
" id="DejaVuSans-87"/>
      <path d="M 40.578125 39.3125 
Q 47.65625 37.796875 51.625 33 
Q 55.609375 28.21875 55.609375 21.1875 
Q 55.609375 10.40625 48.1875 4.484375 
Q 40.765625 -1.421875 27.09375 -1.421875 
Q 22.515625 -1.421875 17.65625 -0.515625 
Q 12.796875 0.390625 7.625 2.203125 
L 7.625 11.71875 
Q 11.71875 9.328125 16.59375 8.109375 
Q 21.484375 6.890625 26.8125 6.890625 
Q 36.078125 6.890625 40.9375 10.546875 
Q 45.796875 14.203125 45.796875 21.1875 
Q 45.796875 27.640625 41.28125 31.265625 
Q 36.765625 34.90625 28.71875 34.90625 
L 20.21875 34.90625 
L 20.21875 43.015625 
L 29.109375 43.015625 
Q 36.375 43.015625 40.234375 45.921875 
Q 44.09375 48.828125 44.09375 54.296875 
Q 44.09375 59.90625 40.109375 62.90625 
Q 36.140625 65.921875 28.71875 65.921875 
Q 24.65625 65.921875 20.015625 65.03125 
Q 15.375 64.15625 9.8125 62.3125 
L 9.8125 71.09375 
Q 15.4375 72.65625 20.34375 73.4375 
Q 25.25 74.21875 29.59375 74.21875 
Q 40.828125 74.21875 47.359375 69.109375 
Q 53.90625 64.015625 53.90625 55.328125 
Q 53.90625 49.265625 50.4375 45.09375 
Q 46.96875 40.921875 40.578125 39.3125 
z
" id="DejaVuSans-51"/>
      <path d="M 50.984375 -16.609375 
L 50.984375 -23.578125 
L -0.984375 -23.578125 
L -0.984375 -16.609375 
z
" id="DejaVuSans-95"/>
      <path d="M 9.8125 72.90625 
L 19.671875 72.90625 
L 19.671875 43.015625 
L 55.515625 43.015625 
L 55.515625 72.90625 
L 65.375 72.90625 
L 65.375 0 
L 55.515625 0 
L 55.515625 34.71875 
L 19.671875 34.71875 
L 19.671875 0 
L 9.8125 0 
z
" id="DejaVuSans-72"/>
      <path d="M 34.1875 63.1875 
L 20.796875 26.90625 
L 47.609375 26.90625 
z
M 28.609375 72.90625 
L 39.796875 72.90625 
L 67.578125 0 
L 57.328125 0 
L 50.6875 18.703125 
L 17.828125 18.703125 
L 11.1875 0 
L 0.78125 0 
z
" id="DejaVuSans-65"/>
      <path d="M 48.6875 27.296875 
Q 48.6875 37.203125 44.609375 42.84375 
Q 40.53125 48.484375 33.40625 48.484375 
Q 26.265625 48.484375 22.1875 42.84375 
Q 18.109375 37.203125 18.109375 27.296875 
Q 18.109375 17.390625 22.1875 11.75 
Q 26.265625 6.109375 33.40625 6.109375 
Q 40.53125 6.109375 44.609375 11.75 
Q 48.6875 17.390625 48.6875 27.296875 
z
M 18.109375 46.390625 
Q 20.953125 51.265625 25.265625 53.625 
Q 29.59375 56 35.59375 56 
Q 45.5625 56 51.78125 48.09375 
Q 58.015625 40.1875 58.015625 27.296875 
Q 58.015625 14.40625 51.78125 6.484375 
Q 45.5625 -1.421875 35.59375 -1.421875 
Q 29.59375 -1.421875 25.265625 0.953125 
Q 20.953125 3.328125 18.109375 8.203125 
L 18.109375 0 
L 9.078125 0 
L 9.078125 75.984375 
L 18.109375 75.984375 
z
" id="DejaVuSans-98"/>
      <path d="M 34.28125 27.484375 
Q 23.390625 27.484375 19.1875 25 
Q 14.984375 22.515625 14.984375 16.5 
Q 14.984375 11.71875 18.140625 8.90625 
Q 21.296875 6.109375 26.703125 6.109375 
Q 34.1875 6.109375 38.703125 11.40625 
Q 43.21875 16.703125 43.21875 25.484375 
L 43.21875 27.484375 
z
M 52.203125 31.203125 
L 52.203125 0 
L 43.21875 0 
L 43.21875 8.296875 
Q 40.140625 3.328125 35.546875 0.953125 
Q 30.953125 -1.421875 24.3125 -1.421875 
Q 15.921875 -1.421875 10.953125 3.296875 
Q 6 8.015625 6 15.921875 
Q 6 25.140625 12.171875 29.828125 
Q 18.359375 34.515625 30.609375 34.515625 
L 43.21875 34.515625 
L 43.21875 35.40625 
Q 43.21875 41.609375 39.140625 45 
Q 35.0625 48.390625 27.6875 48.390625 
Q 23 48.390625 18.546875 47.265625 
Q 14.109375 46.140625 10.015625 43.890625 
L 10.015625 52.203125 
Q 14.9375 54.109375 19.578125 55.046875 
Q 24.21875 56 28.609375 56 
Q 40.484375 56 46.34375 49.84375 
Q 52.203125 43.703125 52.203125 31.203125 
z
" id="DejaVuSans-97"/>
      <path d="M 41.109375 46.296875 
Q 39.59375 47.171875 37.8125 47.578125 
Q 36.03125 48 33.890625 48 
Q 26.265625 48 22.1875 43.046875 
Q 18.109375 38.09375 18.109375 28.8125 
L 18.109375 0 
L 9.078125 0 
L 9.078125 54.6875 
L 18.109375 54.6875 
L 18.109375 46.1875 
Q 20.953125 51.171875 25.484375 53.578125 
Q 30.03125 56 36.53125 56 
Q 37.453125 56 38.578125 55.875 
Q 39.703125 55.765625 41.0625 55.515625 
z
" id="DejaVuSans-114"/>
      <path d="M 44.28125 53.078125 
L 44.28125 44.578125 
Q 40.484375 46.53125 36.375 47.5 
Q 32.28125 48.484375 27.875 48.484375 
Q 21.1875 48.484375 17.84375 46.4375 
Q 14.5 44.390625 14.5 40.28125 
Q 14.5 37.15625 16.890625 35.375 
Q 19.28125 33.59375 26.515625 31.984375 
L 29.59375 31.296875 
Q 39.15625 29.25 43.1875 25.515625 
Q 47.21875 21.78125 47.21875 15.09375 
Q 47.21875 7.46875 41.1875 3.015625 
Q 35.15625 -1.421875 24.609375 -1.421875 
Q 20.21875 -1.421875 15.453125 -0.5625 
Q 10.6875 0.296875 5.421875 2 
L 5.421875 11.28125 
Q 10.40625 8.6875 15.234375 7.390625 
Q 20.0625 6.109375 24.8125 6.109375 
Q 31.15625 6.109375 34.5625 8.28125 
Q 37.984375 10.453125 37.984375 14.40625 
Q 37.984375 18.0625 35.515625 20.015625 
Q 33.0625 21.96875 24.703125 23.78125 
L 21.578125 24.515625 
Q 13.234375 26.265625 9.515625 29.90625 
Q 5.8125 33.546875 5.8125 39.890625 
Q 5.8125 47.609375 11.28125 51.796875 
Q 16.75 56 26.8125 56 
Q 31.78125 56 36.171875 55.265625 
Q 40.578125 54.546875 44.28125 53.078125 
z
" id="DejaVuSans-115"/>
      <path d="M 56.203125 29.59375 
L 56.203125 25.203125 
L 14.890625 25.203125 
Q 15.484375 15.921875 20.484375 11.0625 
Q 25.484375 6.203125 34.421875 6.203125 
Q 39.59375 6.203125 44.453125 7.46875 
Q 49.3125 8.734375 54.109375 11.28125 
L 54.109375 2.78125 
Q 49.265625 0.734375 44.1875 -0.34375 
Q 39.109375 -1.421875 33.890625 -1.421875 
Q 20.796875 -1.421875 13.15625 6.1875 
Q 5.515625 13.8125 5.515625 26.8125 
Q 5.515625 40.234375 12.765625 48.109375 
Q 20.015625 56 32.328125 56 
Q 43.359375 56 49.78125 48.890625 
Q 56.203125 41.796875 56.203125 29.59375 
z
M 47.21875 32.234375 
Q 47.125 39.59375 43.09375 43.984375 
Q 39.0625 48.390625 32.421875 48.390625 
Q 24.90625 48.390625 20.390625 44.140625 
Q 15.875 39.890625 15.1875 32.171875 
z
" id="DejaVuSans-101"/>
      <path d="M 54.890625 54.6875 
L 35.109375 28.078125 
L 55.90625 0 
L 45.3125 0 
L 29.390625 21.484375 
L 13.484375 0 
L 2.875 0 
L 24.125 28.609375 
L 4.6875 54.6875 
L 15.28125 54.6875 
L 29.78125 35.203125 
L 44.28125 54.6875 
z
" id="DejaVuSans-120"/>
      <path d="M 18.3125 70.21875 
L 18.3125 54.6875 
L 36.8125 54.6875 
L 36.8125 47.703125 
L 18.3125 47.703125 
L 18.3125 18.015625 
Q 18.3125 11.328125 20.140625 9.421875 
Q 21.96875 7.515625 27.59375 7.515625 
L 36.8125 7.515625 
L 36.8125 0 
L 27.59375 0 
Q 17.1875 0 13.234375 3.875 
Q 9.28125 7.765625 9.28125 18.015625 
L 9.28125 47.703125 
L 2.6875 47.703125 
L 2.6875 54.6875 
L 9.28125 54.6875 
L 9.28125 70.21875 
z
" id="DejaVuSans-116"/>
      <path d="M 48.78125 52.59375 
L 48.78125 44.1875 
Q 44.96875 46.296875 41.140625 47.34375 
Q 37.3125 48.390625 33.40625 48.390625 
Q 24.65625 48.390625 19.8125 42.84375 
Q 14.984375 37.3125 14.984375 27.296875 
Q 14.984375 17.28125 19.8125 11.734375 
Q 24.65625 6.203125 33.40625 6.203125 
Q 37.3125 6.203125 41.140625 7.25 
Q 44.96875 8.296875 48.78125 10.40625 
L 48.78125 2.09375 
Q 45.015625 0.34375 40.984375 -0.53125 
Q 36.96875 -1.421875 32.421875 -1.421875 
Q 20.0625 -1.421875 12.78125 6.34375 
Q 5.515625 14.109375 5.515625 27.296875 
Q 5.515625 40.671875 12.859375 48.328125 
Q 20.21875 56 33.015625 56 
Q 37.15625 56 41.109375 55.140625 
Q 45.0625 54.296875 48.78125 52.59375 
z
" id="DejaVuSans-99"/>
      <path d="M 45.40625 46.390625 
L 45.40625 75.984375 
L 54.390625 75.984375 
L 54.390625 0 
L 45.40625 0 
L 45.40625 8.203125 
Q 42.578125 3.328125 38.25 0.953125 
Q 33.9375 -1.421875 27.875 -1.421875 
Q 17.96875 -1.421875 11.734375 6.484375 
Q 5.515625 14.40625 5.515625 27.296875 
Q 5.515625 40.1875 11.734375 48.09375 
Q 17.96875 56 27.875 56 
Q 33.9375 56 38.25 53.625 
Q 42.578125 51.265625 45.40625 46.390625 
z
M 14.796875 27.296875 
Q 14.796875 17.390625 18.875 11.75 
Q 22.953125 6.109375 30.078125 6.109375 
Q 37.203125 6.109375 41.296875 11.75 
Q 45.40625 17.390625 45.40625 27.296875 
Q 45.40625 37.203125 41.296875 42.84375 
Q 37.203125 48.484375 30.078125 48.484375 
Q 22.953125 48.484375 18.875 42.84375 
Q 14.796875 37.203125 14.796875 27.296875 
z
" id="DejaVuSans-100"/>
      <path d="M 10.6875 12.40625 
L 21 12.40625 
L 21 0 
L 10.6875 0 
z
" id="DejaVuSans-46"/>
     </defs>
     <use xlink:href="#DejaVuSans-87"/>
     <use x="98.876953" xlink:href="#DejaVuSans-51"/>
     <use x="162.5" xlink:href="#DejaVuSans-53"/>
     <use x="226.123047" xlink:href="#DejaVuSans-95"/>
     <use x="276.123047" xlink:href="#DejaVuSans-95"/>
     <use x="326.123047" xlink:href="#DejaVuSans-72"/>
     <use x="401.318359" xlink:href="#DejaVuSans-52"/>
     <use x="464.941406" xlink:href="#DejaVuSans-48"/>
     <use x="528.564453" xlink:href="#DejaVuSans-95"/>
     <use x="578.564453" xlink:href="#DejaVuSans-95"/>
     <use x="628.564453" xlink:href="#DejaVuSans-65"/>
     <use x="696.972656" xlink:href="#DejaVuSans-51"/>
     <use x="760.595703" xlink:href="#DejaVuSans-48"/>
     <use x="824.21875" xlink:href="#DejaVuSans-48"/>
     <use x="887.841797" xlink:href="#DejaVuSans-95"/>
     <use x="937.841797" xlink:href="#DejaVuSans-98"/>
     <use x="1001.318359" xlink:href="#DejaVuSans-97"/>
     <use x="1062.597656" xlink:href="#DejaVuSans-114"/>
     <use x="1103.710938" xlink:href="#DejaVuSans-115"/>
     <use x="1155.810547" xlink:href="#DejaVuSans-95"/>
     <use x="1205.810547" xlink:href="#DejaVuSans-101"/>
     <use x="1265.583984" xlink:href="#DejaVuSans-120"/>
     <use x="1324.763672" xlink:href="#DejaVuSans-116"/>
     <use x="1363.972656" xlink:href="#DejaVuSans-114"/>
     <use x="1405.085938" xlink:href="#DejaVuSans-97"/>
     <use x="1466.365234" xlink:href="#DejaVuSans-99"/>
     <use x="1521.345703" xlink:href="#DejaVuSans-116"/>
     <use x="1560.554688" xlink:href="#DejaVuSans-101"/>
     <use x="1622.078125" xlink:href="#DejaVuSans-100"/>
     <use x="1685.554688" xlink:href="#DejaVuSans-46"/>
     <use x="1717.341797" xlink:href="#DejaVuSans-116"/>
     <use x="1756.550781" xlink:href="#DejaVuSans-120"/>
     <use x="1815.730469" xlink:href="#DejaVuSans-116"/>
    </g>
   </g>
  </g>
 </g>
 <defs>
  <clipPath id="pf8a6ce29e5">
   <rect height="217.44" width="217.44" x="112.68" y="34.56"/>
  </clipPath>
 </defs>
</svg>
