<?xml version="1.0" encoding="utf-8" standalone="no"?>
<!DOCTYPE svg PUBLIC "-//W3C//DTD SVG 1.1//EN"
  "http://www.w3.org/Graphics/SVG/1.1/DTD/svg11.dtd">
<!-- Created with matplotlib (https://matplotlib.org/) -->
<svg height="288pt" version="1.1" viewBox="0 0 432 288" width="432pt" xmlns="http://www.w3.org/2000/svg" xmlns:xlink="http://www.w3.org/1999/xlink">
 <metadata>
  <rdf:RDF xmlns:cc="http://creativecommons.org/ns#" xmlns:dc="http://purl.org/dc/elements/1.1/" xmlns:rdf="http://www.w3.org/1999/02/22-rdf-syntax-ns#">
   <cc:Work>
    <dc:type rdf:resource="http://purl.org/dc/dcmitype/StillImage"/>
    <dc:date>2021-06-13T21:58:53.812832</dc:date>
    <dc:format>image/svg+xml</dc:format>
    <dc:creator>
     <cc:Agent>
      <dc:title>Matplotlib v3.3.4, https://matplotlib.org/</dc:title>
     </cc:Agent>
    </dc:creator>
   </cc:Work>
  </rdf:RDF>
 </metadata>
 <defs>
  <style type="text/css">*{stroke-linecap:butt;stroke-linejoin:round;}</style>
 </defs>
 <g id="figure_1">
  <g id="patch_1">
   <path d="M 0 288 
L 432 288 
L 432 0 
L 0 0 
z
" style="fill:#ffffff;"/>
  </g>
  <g id="patch_2">
   <path d="M 112.68 252 
L 330.12 252 
L 330.12 34.56 
L 112.68 34.56 
z
" style="fill:#ffffff;"/>
  </g>
  <g id="pane3d_1">
   <g id="patch_3">
    <path d="M 129.09822 198.386264 
L 200.904009 138.197228 
L 199.90584 51.393878 
L 124.663773 106.302111 
" style="fill:#f2f2f2;opacity:0.5;stroke:#f2f2f2;stroke-linejoin:miter;"/>
   </g>
  </g>
  <g id="pane3d_2">
   <g id="patch_4">
    <path d="M 200.904009 138.197228 
L 316.12668 171.68791 
L 320.238571 81.894718 
L 199.90584 51.393878 
" style="fill:#e6e6e6;opacity:0.5;stroke:#e6e6e6;stroke-linejoin:miter;"/>
   </g>
  </g>
  <g id="pane3d_3">
   <g id="patch_5">
    <path d="M 129.09822 198.386264 
L 251.239879 238.27773 
L 316.12668 171.68791 
L 200.904009 138.197228 
" style="fill:#ececec;opacity:0.5;stroke:#ececec;stroke-linejoin:miter;"/>
   </g>
  </g>
  <g id="axis3d_1">
   <g id="line2d_1">
    <path d="M 129.09822 198.386264 
L 251.239879 238.27773 
" style="fill:none;stroke:#000000;stroke-linecap:square;stroke-width:0.8;"/>
   </g>
   <g id="Line3DCollection_1">
    <path d="M 136.495759 200.802301 
L 207.911499 140.234029 
L 207.209612 53.245171 
" style="fill:none;stroke:#b0b0b0;stroke-width:0.8;"/>
    <path d="M 162.23134 209.207541 
L 232.260894 147.311436 
L 232.60309 59.681678 
" style="fill:none;stroke:#b0b0b0;stroke-width:0.8;"/>
    <path d="M 188.559037 217.806167 
L 257.123632 154.538053 
L 258.555303 66.259807 
" style="fill:none;stroke:#b0b0b0;stroke-width:0.8;"/>
    <path d="M 215.499525 226.604931 
L 282.516121 161.918647 
L 285.084894 72.984285 
" style="fill:none;stroke:#b0b0b0;stroke-width:0.8;"/>
    <path d="M 243.074449 235.610901 
L 308.455474 169.458193 
L 312.21135 79.860051 
" style="fill:none;stroke:#b0b0b0;stroke-width:0.8;"/>
   </g>
   <g id="xtick_1">
    <g id="line2d_2">
     <path d="M 137.117644 200.274876 
L 135.249322 201.859414 
" style="fill:none;stroke:#000000;stroke-linecap:square;stroke-width:0.8;"/>
    </g>
    <g id="text_1">
     <!-- 0 -->
     <g transform="translate(125.77919 224.124533)scale(0.1 -0.1)">
      <defs>
       <path d="M 31.78125 66.40625 
Q 24.171875 66.40625 20.328125 58.90625 
Q 16.5 51.421875 16.5 36.375 
Q 16.5 21.390625 20.328125 13.890625 
Q 24.171875 6.390625 31.78125 6.390625 
Q 39.453125 6.390625 43.28125 13.890625 
Q 47.125 21.390625 47.125 36.375 
Q 47.125 51.421875 43.28125 58.90625 
Q 39.453125 66.40625 31.78125 66.40625 
z
M 31.78125 74.21875 
Q 44.046875 74.21875 50.515625 64.515625 
Q 56.984375 54.828125 56.984375 36.375 
Q 56.984375 17.96875 50.515625 8.265625 
Q 44.046875 -1.421875 31.78125 -1.421875 
Q 19.53125 -1.421875 13.0625 8.265625 
Q 6.59375 17.96875 6.59375 36.375 
Q 6.59375 54.828125 13.0625 64.515625 
Q 19.53125 74.21875 31.78125 74.21875 
z
" id="DejaVuSans-48"/>
      </defs>
      <use xlink:href="#DejaVuSans-48"/>
     </g>
    </g>
   </g>
   <g id="xtick_2">
    <g id="line2d_3">
     <path d="M 162.841716 208.668056 
L 161.007937 210.288854 
" style="fill:none;stroke:#000000;stroke-linecap:square;stroke-width:0.8;"/>
    </g>
    <g id="text_2">
     <!-- 2 -->
     <g transform="translate(151.547192 232.748132)scale(0.1 -0.1)">
      <defs>
       <path d="M 19.1875 8.296875 
L 53.609375 8.296875 
L 53.609375 0 
L 7.328125 0 
L 7.328125 8.296875 
Q 12.9375 14.109375 22.625 23.890625 
Q 32.328125 33.6875 34.8125 36.53125 
Q 39.546875 41.84375 41.421875 45.53125 
Q 43.3125 49.21875 43.3125 52.78125 
Q 43.3125 58.59375 39.234375 62.25 
Q 35.15625 65.921875 28.609375 65.921875 
Q 23.96875 65.921875 18.8125 64.3125 
Q 13.671875 62.703125 7.8125 59.421875 
L 7.8125 69.390625 
Q 13.765625 71.78125 18.9375 73 
Q 24.125 74.21875 28.421875 74.21875 
Q 39.75 74.21875 46.484375 68.546875 
Q 53.21875 62.890625 53.21875 53.421875 
Q 53.21875 48.921875 51.53125 44.890625 
Q 49.859375 40.875 45.40625 35.40625 
Q 44.1875 33.984375 37.640625 27.21875 
Q 31.109375 20.453125 19.1875 8.296875 
z
" id="DejaVuSans-50"/>
      </defs>
      <use xlink:href="#DejaVuSans-50"/>
     </g>
    </g>
   </g>
   <g id="xtick_3">
    <g id="line2d_4">
     <path d="M 189.15721 217.254202 
L 187.360066 218.91252 
" style="fill:none;stroke:#000000;stroke-linecap:square;stroke-width:0.8;"/>
    </g>
    <g id="text_3">
     <!-- 4 -->
     <g transform="translate(177.91082 241.571064)scale(0.1 -0.1)">
      <defs>
       <path d="M 37.796875 64.3125 
L 12.890625 25.390625 
L 37.796875 25.390625 
z
M 35.203125 72.90625 
L 47.609375 72.90625 
L 47.609375 25.390625 
L 58.015625 25.390625 
L 58.015625 17.1875 
L 47.609375 17.1875 
L 47.609375 0 
L 37.796875 0 
L 37.796875 17.1875 
L 4.890625 17.1875 
L 4.890625 26.703125 
z
" id="DejaVuSans-52"/>
      </defs>
      <use xlink:href="#DejaVuSans-52"/>
     </g>
    </g>
   </g>
   <g id="xtick_4">
    <g id="line2d_5">
     <path d="M 216.084757 226.040048 
L 214.326462 227.737204 
" style="fill:none;stroke:#000000;stroke-linecap:square;stroke-width:0.8;"/>
    </g>
    <g id="text_4">
     <!-- 6 -->
     <g transform="translate(204.890965 250.600322)scale(0.1 -0.1)">
      <defs>
       <path d="M 33.015625 40.375 
Q 26.375 40.375 22.484375 35.828125 
Q 18.609375 31.296875 18.609375 23.390625 
Q 18.609375 15.53125 22.484375 10.953125 
Q 26.375 6.390625 33.015625 6.390625 
Q 39.65625 6.390625 43.53125 10.953125 
Q 47.40625 15.53125 47.40625 23.390625 
Q 47.40625 31.296875 43.53125 35.828125 
Q 39.65625 40.375 33.015625 40.375 
z
M 52.59375 71.296875 
L 52.59375 62.3125 
Q 48.875 64.0625 45.09375 64.984375 
Q 41.3125 65.921875 37.59375 65.921875 
Q 27.828125 65.921875 22.671875 59.328125 
Q 17.53125 52.734375 16.796875 39.40625 
Q 19.671875 43.65625 24.015625 45.921875 
Q 28.375 48.1875 33.59375 48.1875 
Q 44.578125 48.1875 50.953125 41.515625 
Q 57.328125 34.859375 57.328125 23.390625 
Q 57.328125 12.15625 50.6875 5.359375 
Q 44.046875 -1.421875 33.015625 -1.421875 
Q 20.359375 -1.421875 13.671875 8.265625 
Q 6.984375 17.96875 6.984375 36.375 
Q 6.984375 53.65625 15.1875 63.9375 
Q 23.390625 74.21875 37.203125 74.21875 
Q 40.921875 74.21875 44.703125 73.484375 
Q 48.484375 72.75 52.59375 71.296875 
z
" id="DejaVuSans-54"/>
      </defs>
      <use xlink:href="#DejaVuSans-54"/>
     </g>
    </g>
   </g>
   <g id="xtick_5">
    <g id="line2d_6">
     <path d="M 243.645962 235.032643 
L 241.928856 236.770015 
" style="fill:none;stroke:#000000;stroke-linecap:square;stroke-width:0.8;"/>
    </g>
    <g id="text_5">
     <!-- 8 -->
     <g transform="translate(232.509511 259.84323)scale(0.1 -0.1)">
      <defs>
       <path d="M 31.78125 34.625 
Q 24.75 34.625 20.71875 30.859375 
Q 16.703125 27.09375 16.703125 20.515625 
Q 16.703125 13.921875 20.71875 10.15625 
Q 24.75 6.390625 31.78125 6.390625 
Q 38.8125 6.390625 42.859375 10.171875 
Q 46.921875 13.96875 46.921875 20.515625 
Q 46.921875 27.09375 42.890625 30.859375 
Q 38.875 34.625 31.78125 34.625 
z
M 21.921875 38.8125 
Q 15.578125 40.375 12.03125 44.71875 
Q 8.5 49.078125 8.5 55.328125 
Q 8.5 64.0625 14.71875 69.140625 
Q 20.953125 74.21875 31.78125 74.21875 
Q 42.671875 74.21875 48.875 69.140625 
Q 55.078125 64.0625 55.078125 55.328125 
Q 55.078125 49.078125 51.53125 44.71875 
Q 48 40.375 41.703125 38.8125 
Q 48.828125 37.15625 52.796875 32.3125 
Q 56.78125 27.484375 56.78125 20.515625 
Q 56.78125 9.90625 50.3125 4.234375 
Q 43.84375 -1.421875 31.78125 -1.421875 
Q 19.734375 -1.421875 13.25 4.234375 
Q 6.78125 9.90625 6.78125 20.515625 
Q 6.78125 27.484375 10.78125 32.3125 
Q 14.796875 37.15625 21.921875 38.8125 
z
M 18.3125 54.390625 
Q 18.3125 48.734375 21.84375 45.5625 
Q 25.390625 42.390625 31.78125 42.390625 
Q 38.140625 42.390625 41.71875 45.5625 
Q 45.3125 48.734375 45.3125 54.390625 
Q 45.3125 60.0625 41.71875 63.234375 
Q 38.140625 66.40625 31.78125 66.40625 
Q 25.390625 66.40625 21.84375 63.234375 
Q 18.3125 60.0625 18.3125 54.390625 
z
" id="DejaVuSans-56"/>
      </defs>
      <use xlink:href="#DejaVuSans-56"/>
     </g>
    </g>
   </g>
  </g>
  <g id="axis3d_2">
   <g id="line2d_7">
    <path d="M 316.12668 171.68791 
L 251.239879 238.27773 
" style="fill:none;stroke:#000000;stroke-linecap:square;stroke-width:0.8;"/>
   </g>
   <g id="Line3DCollection_2">
    <path d="M 129.866948 102.505071 
L 134.046245 194.238731 
L 255.729543 233.67023 
" style="fill:none;stroke:#b0b0b0;stroke-width:0.8;"/>
    <path d="M 147.250212 89.819556 
L 150.59591 180.366474 
L 270.72626 218.279909 
" style="fill:none;stroke:#b0b0b0;stroke-width:0.8;"/>
    <path d="M 163.958537 77.626582 
L 166.530371 167.009893 
L 285.136664 203.491289 
" style="fill:none;stroke:#b0b0b0;stroke-width:0.8;"/>
    <path d="M 180.030483 65.898008 
L 181.883306 154.140758 
L 298.994481 189.269761 
" style="fill:none;stroke:#b0b0b0;stroke-width:0.8;"/>
    <path d="M 195.501727 54.607799 
L 196.68598 141.732864 
L 312.330896 175.583317 
" style="fill:none;stroke:#b0b0b0;stroke-width:0.8;"/>
   </g>
   <g id="xtick_6">
    <g id="line2d_8">
     <path d="M 254.704115 233.337939 
L 257.783053 234.33567 
" style="fill:none;stroke:#000000;stroke-linecap:square;stroke-width:0.8;"/>
    </g>
    <g id="text_6">
     <!-- 0 -->
     <g transform="translate(265.430654 254.693759)scale(0.1 -0.1)">
      <use xlink:href="#DejaVuSans-48"/>
     </g>
    </g>
   </g>
   <g id="xtick_7">
    <g id="line2d_9">
     <path d="M 269.71494 217.960734 
L 272.751463 218.919068 
" style="fill:none;stroke:#000000;stroke-linecap:square;stroke-width:0.8;"/>
    </g>
    <g id="text_7">
     <!-- 2 -->
     <g transform="translate(280.181112 239.024526)scale(0.1 -0.1)">
      <use xlink:href="#DejaVuSans-50"/>
     </g>
    </g>
   </g>
   <g id="xtick_8">
    <g id="line2d_10">
     <path d="M 284.139145 203.184468 
L 287.134182 204.105694 
" style="fill:none;stroke:#000000;stroke-linecap:square;stroke-width:0.8;"/>
    </g>
    <g id="text_8">
     <!-- 4 -->
     <g transform="translate(294.35448 223.968328)scale(0.1 -0.1)">
      <use xlink:href="#DejaVuSans-52"/>
     </g>
    </g>
   </g>
   <g id="xtick_9">
    <g id="line2d_11">
     <path d="M 298.010457 188.97459 
L 300.964927 189.860821 
" style="fill:none;stroke:#000000;stroke-linecap:square;stroke-width:0.8;"/>
    </g>
    <g id="text_9">
     <!-- 6 -->
     <g transform="translate(307.983974 209.489882)scale(0.1 -0.1)">
      <use xlink:href="#DejaVuSans-54"/>
     </g>
    </g>
   </g>
   <g id="xtick_10">
    <g id="line2d_12">
     <path d="M 311.360068 175.299146 
L 314.274875 176.15234 
" style="fill:none;stroke:#000000;stroke-linecap:square;stroke-width:0.8;"/>
    </g>
    <g id="text_10">
     <!-- 8 -->
     <g transform="translate(321.10031 195.556556)scale(0.1 -0.1)">
      <use xlink:href="#DejaVuSans-56"/>
     </g>
    </g>
   </g>
  </g>
  <g id="axis3d_3">
   <g id="line2d_13">
    <path d="M 316.12668 171.68791 
L 320.238571 81.894718 
" style="fill:none;stroke:#000000;stroke-linecap:square;stroke-width:0.8;"/>
   </g>
   <g id="Line3DCollection_3">
    <path d="M 316.205459 169.967571 
L 200.884845 136.530725 
L 129.013401 196.624949 
" style="fill:none;stroke:#b0b0b0;stroke-width:0.8;"/>
    <path d="M 316.967291 153.331121 
L 200.699606 120.421843 
L 128.192883 179.586364 
" style="fill:none;stroke:#b0b0b0;stroke-width:0.8;"/>
    <path d="M 317.741863 136.416438 
L 200.511417 104.056474 
L 127.358117 162.251911 
" style="fill:none;stroke:#b0b0b0;stroke-width:0.8;"/>
    <path d="M 318.529499 119.216486 
L 200.320208 87.428445 
L 126.508729 144.613815 
" style="fill:none;stroke:#b0b0b0;stroke-width:0.8;"/>
    <path d="M 319.330531 101.723986 
L 200.125906 70.53138 
L 125.644331 126.664027 
" style="fill:none;stroke:#b0b0b0;stroke-width:0.8;"/>
    <path d="M 320.145305 83.93141 
L 199.928433 53.358696 
L 124.764521 108.394211 
" style="fill:none;stroke:#b0b0b0;stroke-width:0.8;"/>
   </g>
   <g id="xtick_11">
    <g id="line2d_14">
     <path d="M 315.237563 169.686933 
L 318.143556 170.529516 
" style="fill:none;stroke:#000000;stroke-linecap:square;stroke-width:0.8;"/>
    </g>
    <g id="text_11">
     <!-- 0 -->
     <g transform="translate(331.275915 174.966846)scale(0.1 -0.1)">
      <use xlink:href="#DejaVuSans-48"/>
     </g>
    </g>
   </g>
   <g id="xtick_12">
    <g id="line2d_15">
     <path d="M 315.991067 153.054803 
L 318.922082 153.884419 
" style="fill:none;stroke:#000000;stroke-linecap:square;stroke-width:0.8;"/>
    </g>
    <g id="text_12">
     <!-- 10000 -->
     <g transform="translate(319.460724 158.370481)scale(0.1 -0.1)">
      <defs>
       <path d="M 12.40625 8.296875 
L 28.515625 8.296875 
L 28.515625 63.921875 
L 10.984375 60.40625 
L 10.984375 69.390625 
L 28.421875 72.90625 
L 38.28125 72.90625 
L 38.28125 8.296875 
L 54.390625 8.296875 
L 54.390625 0 
L 12.40625 0 
z
" id="DejaVuSans-49"/>
      </defs>
      <use xlink:href="#DejaVuSans-49"/>
      <use x="63.623047" xlink:href="#DejaVuSans-48"/>
      <use x="127.246094" xlink:href="#DejaVuSans-48"/>
      <use x="190.869141" xlink:href="#DejaVuSans-48"/>
      <use x="254.492188" xlink:href="#DejaVuSans-48"/>
     </g>
    </g>
   </g>
   <g id="xtick_13">
    <g id="line2d_16">
     <path d="M 316.757167 136.144626 
L 319.713639 136.960722 
" style="fill:none;stroke:#000000;stroke-linecap:square;stroke-width:0.8;"/>
    </g>
    <g id="text_13">
     <!-- 20000 -->
     <g transform="translate(320.385693 141.497591)scale(0.1 -0.1)">
      <use xlink:href="#DejaVuSans-50"/>
      <use x="63.623047" xlink:href="#DejaVuSans-48"/>
      <use x="127.246094" xlink:href="#DejaVuSans-48"/>
      <use x="190.869141" xlink:href="#DejaVuSans-48"/>
      <use x="254.492188" xlink:href="#DejaVuSans-48"/>
     </g>
    </g>
   </g>
   <g id="xtick_14">
    <g id="line2d_17">
     <path d="M 317.536183 118.94937 
L 320.518556 119.75137 
" style="fill:none;stroke:#000000;stroke-linecap:square;stroke-width:0.8;"/>
    </g>
    <g id="text_14">
     <!-- 30000 -->
     <g transform="translate(321.326202 124.341207)scale(0.1 -0.1)">
      <defs>
       <path d="M 40.578125 39.3125 
Q 47.65625 37.796875 51.625 33 
Q 55.609375 28.21875 55.609375 21.1875 
Q 55.609375 10.40625 48.1875 4.484375 
Q 40.765625 -1.421875 27.09375 -1.421875 
Q 22.515625 -1.421875 17.65625 -0.515625 
Q 12.796875 0.390625 7.625 2.203125 
L 7.625 11.71875 
Q 11.71875 9.328125 16.59375 8.109375 
Q 21.484375 6.890625 26.8125 6.890625 
Q 36.078125 6.890625 40.9375 10.546875 
Q 45.796875 14.203125 45.796875 21.1875 
Q 45.796875 27.640625 41.28125 31.265625 
Q 36.765625 34.90625 28.71875 34.90625 
L 20.21875 34.90625 
L 20.21875 43.015625 
L 29.109375 43.015625 
Q 36.375 43.015625 40.234375 45.921875 
Q 44.09375 48.828125 44.09375 54.296875 
Q 44.09375 59.90625 40.109375 62.90625 
Q 36.140625 65.921875 28.71875 65.921875 
Q 24.65625 65.921875 20.015625 65.03125 
Q 15.375 64.15625 9.8125 62.3125 
L 9.8125 71.09375 
Q 15.4375 72.65625 20.34375 73.4375 
Q 25.25 74.21875 29.59375 74.21875 
Q 40.828125 74.21875 47.359375 69.109375 
Q 53.90625 64.015625 53.90625 55.328125 
Q 53.90625 49.265625 50.4375 45.09375 
Q 46.96875 40.921875 40.578125 39.3125 
z
" id="DejaVuSans-51"/>
      </defs>
      <use xlink:href="#DejaVuSans-51"/>
      <use x="63.623047" xlink:href="#DejaVuSans-48"/>
      <use x="127.246094" xlink:href="#DejaVuSans-48"/>
      <use x="190.869141" xlink:href="#DejaVuSans-48"/>
      <use x="254.492188" xlink:href="#DejaVuSans-48"/>
     </g>
    </g>
   </g>
   <g id="xtick_15">
    <g id="line2d_18">
     <path d="M 318.328443 101.461767 
L 321.337175 102.24907 
" style="fill:none;stroke:#000000;stroke-linecap:square;stroke-width:0.8;"/>
    </g>
    <g id="text_15">
     <!-- 40000 -->
     <g transform="translate(322.282647 106.894122)scale(0.1 -0.1)">
      <use xlink:href="#DejaVuSans-52"/>
      <use x="63.623047" xlink:href="#DejaVuSans-48"/>
      <use x="127.246094" xlink:href="#DejaVuSans-48"/>
      <use x="190.869141" xlink:href="#DejaVuSans-48"/>
      <use x="254.492188" xlink:href="#DejaVuSans-48"/>
     </g>
    </g>
   </g>
   <g id="xtick_16">
    <g id="line2d_19">
     <path d="M 319.134288 83.674295 
L 322.169849 84.446278 
" style="fill:none;stroke:#000000;stroke-linecap:square;stroke-width:0.8;"/>
    </g>
    <g id="text_16">
     <!-- 50000 -->
     <g transform="translate(323.255438 89.148886)scale(0.1 -0.1)">
      <defs>
       <path d="M 10.796875 72.90625 
L 49.515625 72.90625 
L 49.515625 64.59375 
L 19.828125 64.59375 
L 19.828125 46.734375 
Q 21.96875 47.46875 24.109375 47.828125 
Q 26.265625 48.1875 28.421875 48.1875 
Q 40.625 48.1875 47.75 41.5 
Q 54.890625 34.8125 54.890625 23.390625 
Q 54.890625 11.625 47.5625 5.09375 
Q 40.234375 -1.421875 26.90625 -1.421875 
Q 22.3125 -1.421875 17.546875 -0.640625 
Q 12.796875 0.140625 7.71875 1.703125 
L 7.71875 11.625 
Q 12.109375 9.234375 16.796875 8.0625 
Q 21.484375 6.890625 26.703125 6.890625 
Q 35.15625 6.890625 40.078125 11.328125 
Q 45.015625 15.765625 45.015625 23.390625 
Q 45.015625 31 40.078125 35.4375 
Q 35.15625 39.890625 26.703125 39.890625 
Q 22.75 39.890625 18.8125 39.015625 
Q 14.890625 38.140625 10.796875 36.28125 
z
" id="DejaVuSans-53"/>
      </defs>
      <use xlink:href="#DejaVuSans-53"/>
      <use x="63.623047" xlink:href="#DejaVuSans-48"/>
      <use x="127.246094" xlink:href="#DejaVuSans-48"/>
      <use x="190.869141" xlink:href="#DejaVuSans-48"/>
      <use x="254.492188" xlink:href="#DejaVuSans-48"/>
     </g>
    </g>
   </g>
  </g>
  <g id="axes_1">
   <g id="Poly3DCollection_1">
    <path clip-path="url(#p59da2b641f)" d="M 203.700438 142.115361 
L 203.699866 142.058972 
L 215.863666 145.610426 
L 215.863902 145.66701 
z
" style="fill:#050338;"/>
    <path clip-path="url(#p59da2b641f)" d="M 196.401162 148.290596 
L 196.40038 148.233868 
L 203.699866 142.058972 
L 203.700438 142.115361 
z
" style="fill:#0b0777;"/>
    <path clip-path="url(#p59da2b641f)" d="M 196.401162 148.290596 
L 203.700438 142.115361 
L 215.863902 145.66701 
L 208.637156 151.907182 
z
" style="fill:#070448;"/>
    <path clip-path="url(#p59da2b641f)" d="M 196.40038 148.233868 
L 208.636715 151.850256 
L 215.863666 145.610426 
L 203.699866 142.058972 
z
" style="fill:#0a0667;"/>
    <path clip-path="url(#p59da2b641f)" d="M 215.863902 145.66701 
L 215.863133 145.482748 
L 228.155372 149.071033 
L 228.155024 149.255935 
z
" style="fill:#050338;"/>
    <path clip-path="url(#p59da2b641f)" d="M 208.637156 151.907182 
L 215.863902 145.66701 
L 215.863666 145.610426 
L 208.636715 151.850256 
z
" style="fill:#050338;"/>
    <path clip-path="url(#p59da2b641f)" d="M 208.637156 151.907182 
L 208.635718 151.72181 
L 215.863133 145.482748 
L 215.863902 145.66701 
z
" style="fill:#0b0777;"/>
    <path clip-path="url(#p59da2b641f)" d="M 196.401162 148.290596 
L 208.637156 151.907182 
L 208.636715 151.850256 
L 196.40038 148.233868 
z
" style="fill:#0b0777;"/>
    <path clip-path="url(#p59da2b641f)" d="M 196.401162 148.290596 
L 196.400133 148.215892 
L 208.636575 151.832218 
L 208.637156 151.907182 
z
" style="fill:#050338;"/>
    <path clip-path="url(#p59da2b641f)" d="M 208.637156 151.907182 
L 215.863902 145.66701 
L 228.155024 149.255935 
L 221.002748 155.562072 
z
" style="fill:#070448;"/>
    <path clip-path="url(#p59da2b641f)" d="M 208.635718 151.72181 
L 221.002441 155.376055 
L 228.155372 149.071033 
L 215.863133 145.482748 
z
" style="fill:#0a0667;"/>
    <path clip-path="url(#p59da2b641f)" d="M 188.96817 154.578956 
L 188.966855 154.503801 
L 196.400133 148.215892 
L 196.401162 148.290596 
z
" style="fill:#0b0777;"/>
    <path clip-path="url(#p59da2b641f)" d="M 228.155024 149.255935 
L 228.166008 143.423093 
L 240.622801 147.029516 
L 240.575825 152.882725 
z
" style="fill:#16023f;"/>
    <path clip-path="url(#p59da2b641f)" d="M 221.002748 155.562072 
L 228.155024 149.255935 
L 228.155372 149.071033 
L 221.002441 155.376055 
z
" style="fill:#050338;"/>
    <path clip-path="url(#p59da2b641f)" d="M 188.96817 154.578956 
L 196.401162 148.290596 
L 208.637156 151.907182 
L 201.27732 158.262275 
z
" style="fill:#070448;"/>
    <path clip-path="url(#p59da2b641f)" d="M 188.966855 154.503801 
L 201.276458 158.186858 
L 208.636575 151.832218 
L 196.400133 148.215892 
z
" style="fill:#0a0667;"/>
    <path clip-path="url(#p59da2b641f)" d="M 221.002748 155.562072 
L 220.993061 149.693888 
L 228.166008 143.423093 
L 228.155024 149.255935 
z
" style="fill:#2f0486;"/>
    <path clip-path="url(#p59da2b641f)" d="M 208.637156 151.907182 
L 221.002748 155.562072 
L 221.002441 155.376055 
L 208.635718 151.72181 
z
" style="fill:#0b0777;"/>
    <path clip-path="url(#p59da2b641f)" d="M 208.637156 151.907182 
L 208.635018 151.631529 
L 221.002291 155.28546 
L 221.002748 155.562072 
z
" style="fill:#050338;"/>
    <path clip-path="url(#p59da2b641f)" d="M 221.002748 155.562072 
L 228.155024 149.255935 
L 240.575825 152.882725 
L 233.500008 159.25588 
z
" style="fill:#1c0251;"/>
    <path clip-path="url(#p59da2b641f)" d="M 201.27732 158.262275 
L 208.637156 151.907182 
L 208.636575 151.832218 
L 201.276458 158.186858 
z
" style="fill:#050338;"/>
    <path clip-path="url(#p59da2b641f)" d="M 201.27732 158.262275 
L 201.27415 157.984957 
L 208.635018 151.631529 
L 208.637156 151.907182 
z
" style="fill:#0b0777;"/>
    <path clip-path="url(#p59da2b641f)" d="M 220.993061 149.693888 
L 233.526757 153.367147 
L 240.622801 147.029516 
L 228.166008 143.423093 
z
" style="fill:#290375;"/>
    <path clip-path="url(#p59da2b641f)" d="M 240.575825 152.882725 
L 240.651245 143.485323 
L 253.262804 147.117626 
L 253.128369 156.547983 
z
" style="fill:#1e0142;"/>
    <path clip-path="url(#p59da2b641f)" d="M 188.96817 154.578956 
L 201.27732 158.262275 
L 201.276458 158.186858 
L 188.966855 154.503801 
z
" style="fill:#0b0777;"/>
    <path clip-path="url(#p59da2b641f)" d="M 188.96817 154.578956 
L 188.965822 154.444721 
L 201.27578 158.127572 
L 201.27732 158.262275 
z
" style="fill:#050338;"/>
    <path clip-path="url(#p59da2b641f)" d="M 201.27732 158.262275 
L 208.637156 151.907182 
L 221.002748 155.562072 
L 213.718049 161.984967 
z
" style="fill:#070448;"/>
    <path clip-path="url(#p59da2b641f)" d="M 201.27415 157.984957 
L 213.716581 161.706681 
L 221.002291 155.28546 
L 208.635018 151.631529 
z
" style="fill:#0a0667;"/>
    <path clip-path="url(#p59da2b641f)" d="M 233.500008 159.25588 
L 240.575825 152.882725 
L 240.622801 147.029516 
L 233.526757 153.367147 
z
" style="fill:#16023f;"/>
    <path clip-path="url(#p59da2b641f)" d="M 233.500008 159.25588 
L 233.542955 149.801291 
L 240.651245 143.485323 
L 240.575825 152.882725 
z
" style="fill:#3f038d;"/>
    <path clip-path="url(#p59da2b641f)" d="M 181.397755 160.983577 
L 181.394877 160.84853 
L 188.965822 154.444721 
L 188.96817 154.578956 
z
" style="fill:#0b0777;"/>
    <path clip-path="url(#p59da2b641f)" d="M 233.500008 159.25588 
L 240.575825 152.882725 
L 253.128369 156.547983 
L 246.131049 162.989229 
z
" style="fill:#260255;"/>
    <path clip-path="url(#p59da2b641f)" d="M 221.002748 155.562072 
L 233.500008 159.25588 
L 233.526757 153.367147 
L 220.993061 149.693888 
z
" style="fill:#2f0486;"/>
    <path clip-path="url(#p59da2b641f)" d="M 213.718049 161.984967 
L 221.002748 155.562072 
L 221.002291 155.28546 
L 213.716581 161.706681 
z
" style="fill:#050338;"/>
    <path clip-path="url(#p59da2b641f)" d="M 253.128369 156.547983 
L 253.208083 150.956191 
L 265.930215 154.640947 
L 265.814761 160.252323 
z
" style="fill:#15023f;"/>
    <path clip-path="url(#p59da2b641f)" d="M 221.002748 155.562072 
L 220.983055 143.632996 
L 233.554386 147.284841 
L 233.500008 159.25588 
z
" style="fill:#230144;"/>
    <path clip-path="url(#p59da2b641f)" d="M 181.397755 160.983577 
L 188.96817 154.578956 
L 201.27732 158.262275 
L 193.780682 164.735494 
z
" style="fill:#070448;"/>
    <path clip-path="url(#p59da2b641f)" d="M 181.394877 160.84853 
L 193.778623 164.599975 
L 201.27578 158.127572 
L 188.965822 154.444721 
z
" style="fill:#0a0667;"/>
    <path clip-path="url(#p59da2b641f)" d="M 201.27732 158.262275 
L 213.718049 161.984967 
L 213.716581 161.706681 
L 201.27415 157.984957 
z
" style="fill:#0b0777;"/>
    <path clip-path="url(#p59da2b641f)" d="M 201.27732 158.262275 
L 201.272554 157.845283 
L 213.715842 161.566519 
L 213.718049 161.984967 
z
" style="fill:#070339;"/>
    <path clip-path="url(#p59da2b641f)" d="M 213.718049 161.984967 
L 221.002748 155.562072 
L 233.500008 159.25588 
L 226.292478 165.747667 
z
" style="fill:#2d0157;"/>
    <path clip-path="url(#p59da2b641f)" d="M 246.131049 162.989229 
L 246.19195 157.363453 
L 253.208083 150.956191 
L 253.128369 156.547983 
z
" style="fill:#2d0486;"/>
    <path clip-path="url(#p59da2b641f)" d="M 213.718049 161.984967 
L 213.654764 149.983073 
L 220.983055 143.632996 
L 221.002748 155.562072 
z
" style="fill:#4b0190;"/>
    <path clip-path="url(#p59da2b641f)" d="M 233.542955 149.801291 
L 246.233758 153.501392 
L 253.262804 147.117626 
L 240.651245 143.485323 
z
" style="fill:#37027a;"/>
    <path clip-path="url(#p59da2b641f)" d="M 246.131049 162.989229 
L 253.128369 156.547983 
L 253.262804 147.117626 
L 246.233758 153.501392 
z
" style="fill:#1e0142;"/>
    <path clip-path="url(#p59da2b641f)" d="M 193.780682 164.735494 
L 201.27732 158.262275 
L 201.27578 158.127572 
L 193.778623 164.599975 
z
" style="fill:#050338;"/>
    <path clip-path="url(#p59da2b641f)" d="M 193.780682 164.735494 
L 193.774308 164.315976 
L 201.272554 157.845283 
L 201.27732 158.262275 
z
" style="fill:#0e0678;"/>
    <path clip-path="url(#p59da2b641f)" d="M 246.131049 162.989229 
L 253.128369 156.547983 
L 265.814761 160.252323 
L 258.898031 166.762758 
z
" style="fill:#1b0251;"/>
    <path clip-path="url(#p59da2b641f)" d="M 265.814761 160.252323 
L 265.825047 159.752398 
L 278.650693 163.494703 
L 278.637155 163.996376 
z
" style="fill:#070339;"/>
    <path clip-path="url(#p59da2b641f)" d="M 233.500008 159.25588 
L 246.131049 162.989229 
L 246.233758 153.501392 
L 233.542955 149.801291 
z
" style="fill:#3f038d;"/>
    <path clip-path="url(#p59da2b641f)" d="M 181.397755 160.983577 
L 193.780682 164.735494 
L 193.778623 164.599975 
L 181.394877 160.84853 
z
" style="fill:#0b0777;"/>
    <path clip-path="url(#p59da2b641f)" d="M 181.397755 160.983577 
L 181.394714 160.840859 
L 193.778506 164.592277 
L 193.780682 164.735494 
z
" style="fill:#050338;"/>
    <path clip-path="url(#p59da2b641f)" d="M 193.780682 164.735494 
L 201.27732 158.262275 
L 213.718049 161.984967 
L 206.297214 168.527892 
z
" style="fill:#090449;"/>
    <path clip-path="url(#p59da2b641f)" d="M 193.774308 164.315976 
L 206.29343 168.106905 
L 213.715842 161.566519 
L 201.272554 157.845283 
z
" style="fill:#0c0668;"/>
    <path clip-path="url(#p59da2b641f)" d="M 246.19195 157.363453 
L 258.995131 161.117226 
L 265.930215 154.640947 
L 253.208083 150.956191 
z
" style="fill:#270374;"/>
    <path clip-path="url(#p59da2b641f)" d="M 258.898031 166.762758 
L 258.906682 166.259802 
L 265.825047 159.752398 
L 265.814761 160.252323 
z
" style="fill:#0e0678;"/>
    <path clip-path="url(#p59da2b641f)" d="M 173.686069 167.507715 
L 173.682448 167.364131 
L 181.394714 160.840859 
L 181.397755 160.983577 
z
" style="fill:#0b0777;"/>
    <path clip-path="url(#p59da2b641f)" d="M 226.292478 165.747667 
L 233.500008 159.25588 
L 246.131049 162.989229 
L 239.002775 169.551023 
z
" style="fill:#4f0956;"/>
    <path clip-path="url(#p59da2b641f)" d="M 258.898031 166.762758 
L 265.814761 160.252323 
L 265.930215 154.640947 
L 258.995131 161.117226 
z
" style="fill:#15023f;"/>
    <path clip-path="url(#p59da2b641f)" d="M 226.292478 165.747667 
L 233.500008 159.25588 
L 233.554386 147.284841 
L 226.304185 153.703437 
z
" style="fill:#230144;"/>
    <path clip-path="url(#p59da2b641f)" d="M 213.654764 149.983073 
L 226.304185 153.703437 
L 233.554386 147.284841 
L 220.983055 143.632996 
z
" style="fill:#41017d;"/>
    <path clip-path="url(#p59da2b641f)" d="M 206.297214 168.527892 
L 213.718049 161.984967 
L 213.715842 161.566519 
L 206.29343 168.106905 
z
" style="fill:#070339;"/>
    <path clip-path="url(#p59da2b641f)" d="M 258.898031 166.762758 
L 265.814761 160.252323 
L 278.637155 163.996376 
L 271.803162 170.57712 
z
" style="fill:#090449;"/>
    <path clip-path="url(#p59da2b641f)" d="M 258.906682 166.259802 
L 271.815107 170.072401 
L 278.650693 163.494703 
L 265.825047 159.752398 
z
" style="fill:#0c0668;"/>
    <path clip-path="url(#p59da2b641f)" d="M 233.500008 159.25588 
L 233.618236 133.228897 
L 246.413802 136.86957 
L 246.131049 162.989229 
z
" style="fill:#3e0743;"/>
    <path clip-path="url(#p59da2b641f)" d="M 246.131049 162.989229 
L 258.898031 166.762758 
L 258.995131 161.117226 
L 246.19195 157.363453 
z
" style="fill:#2d0486;"/>
    <path clip-path="url(#p59da2b641f)" d="M 278.637155 163.996376 
L 278.642259 163.807222 
L 291.604106 167.590966 
L 291.597749 167.780781 
z
" style="fill:#050338;"/>
    <path clip-path="url(#p59da2b641f)" d="M 213.718049 161.984967 
L 226.292478 165.747667 
L 226.304185 153.703437 
L 213.654764 149.983073 
z
" style="fill:#4b0190;"/>
    <path clip-path="url(#p59da2b641f)" d="M 173.686069 167.507715 
L 181.397755 160.983577 
L 193.780682 164.735494 
L 186.143392 171.330164 
z
" style="fill:#070448;"/>
    <path clip-path="url(#p59da2b641f)" d="M 173.682448 167.364131 
L 186.140647 171.186076 
L 193.778506 164.592277 
L 181.394714 160.840859 
z
" style="fill:#0a0667;"/>
    <path clip-path="url(#p59da2b641f)" d="M 213.718049 161.984967 
L 213.642467 147.651118 
L 226.30646 151.363166 
L 226.292478 165.747667 
z
" style="fill:#280045;"/>
    <path clip-path="url(#p59da2b641f)" d="M 193.780682 164.735494 
L 206.297214 168.527892 
L 206.29343 168.106905 
L 193.774308 164.315976 
z
" style="fill:#0e0678;"/>
    <path clip-path="url(#p59da2b641f)" d="M 193.780682 164.735494 
L 193.773319 164.250835 
L 206.292843 168.041536 
L 206.297214 168.527892 
z
" style="fill:#070339;"/>
    <path clip-path="url(#p59da2b641f)" d="M 226.292478 165.747667 
L 226.317933 139.559856 
L 233.618236 133.228897 
L 233.500008 159.25588 
z
" style="fill:#840f8f;"/>
    <path clip-path="url(#p59da2b641f)" d="M 206.297214 168.527892 
L 213.718049 161.984967 
L 226.292478 165.747667 
L 218.949524 172.361429 
z
" style="fill:#330059;"/>
    <path clip-path="url(#p59da2b641f)" d="M 271.803162 170.57712 
L 271.807666 170.386818 
L 278.642259 163.807222 
L 278.637155 163.996376 
z
" style="fill:#0b0777;"/>
    <path clip-path="url(#p59da2b641f)" d="M 271.803162 170.57712 
L 278.637155 163.996376 
L 278.650693 163.494703 
L 271.815107 170.072401 
z
" style="fill:#070339;"/>
    <path clip-path="url(#p59da2b641f)" d="M 206.297214 168.527892 
L 206.167612 154.106148 
L 213.642467 147.651118 
L 213.718049 161.984967 
z
" style="fill:#540193;"/>
    <path clip-path="url(#p59da2b641f)" d="M 246.131049 162.989229 
L 246.319681 145.56416 
L 259.198795 149.275945 
L 258.898031 166.762758 
z
" style="fill:#2e0046;"/>
    <path clip-path="url(#p59da2b641f)" d="M 186.143392 171.330164 
L 193.780682 164.735494 
L 193.778506 164.592277 
L 186.140647 171.186076 
z
" style="fill:#050338;"/>
    <path clip-path="url(#p59da2b641f)" d="M 186.143392 171.330164 
L 186.134103 170.84256 
L 193.773319 164.250835 
L 193.780682 164.735494 
z
" style="fill:#0e0678;"/>
    <path clip-path="url(#p59da2b641f)" d="M 239.002775 169.551023 
L 246.131049 162.989229 
L 258.898031 166.762758 
L 251.851153 173.395697 
z
" style="fill:#3a005a;"/>
    <path clip-path="url(#p59da2b641f)" d="M 258.898031 166.762758 
L 271.803162 170.57712 
L 271.815107 170.072401 
L 258.906682 166.259802 
z
" style="fill:#0e0678;"/>
    <path clip-path="url(#p59da2b641f)" d="M 258.898031 166.762758 
L 258.914793 165.788225 
L 271.826307 169.599172 
L 271.803162 170.57712 
z
" style="fill:#080339;"/>
    <path clip-path="url(#p59da2b641f)" d="M 271.803162 170.57712 
L 278.637155 163.996376 
L 291.597749 167.780781 
L 284.848695 174.43298 
z
" style="fill:#070448;"/>
    <path clip-path="url(#p59da2b641f)" d="M 271.807666 170.386818 
L 284.854468 174.242011 
L 291.604106 167.590966 
L 278.642259 163.807222 
z
" style="fill:#0a0667;"/>
    <path clip-path="url(#p59da2b641f)" d="M 239.002775 169.551023 
L 239.130904 152.018808 
L 246.319681 145.56416 
L 246.131049 162.989229 
z
" style="fill:#610095;"/>
    <path clip-path="url(#p59da2b641f)" d="M 173.686069 167.507715 
L 173.682502 167.366271 
L 186.140688 171.188224 
L 186.143392 171.330164 
z
" style="fill:#050338;"/>
    <path clip-path="url(#p59da2b641f)" d="M 173.686069 167.507715 
L 186.143392 171.330164 
L 186.140647 171.186076 
L 173.682448 167.364131 
z
" style="fill:#0b0777;"/>
    <path clip-path="url(#p59da2b641f)" d="M 291.597749 167.780781 
L 291.601617 167.665282 
L 304.703436 171.490292 
L 304.698789 171.606197 
z
" style="fill:#050338;"/>
    <path clip-path="url(#p59da2b641f)" d="M 186.143392 171.330164 
L 193.780682 164.735494 
L 206.297214 168.527892 
L 198.736391 175.194243 
z
" style="fill:#090449;"/>
    <path clip-path="url(#p59da2b641f)" d="M 186.134103 170.84256 
L 198.73013 174.704929 
L 206.292843 168.041536 
L 193.773319 164.250835 
z
" style="fill:#0c0668;"/>
    <path clip-path="url(#p59da2b641f)" d="M 251.851153 173.395697 
L 251.864622 172.415238 
L 258.914793 165.788225 
L 258.898031 166.762758 
z
" style="fill:#110679;"/>
    <path clip-path="url(#p59da2b641f)" d="M 165.82912 174.154745 
L 165.824961 174.012441 
L 173.682502 167.366271 
L 173.686069 167.507715 
z
" style="fill:#0b0777;"/>
    <path clip-path="url(#p59da2b641f)" d="M 239.002775 169.551023 
L 246.131049 162.989229 
L 246.413802 136.86957 
L 239.194845 143.269694 
z
" style="fill:#3e0743;"/>
    <path clip-path="url(#p59da2b641f)" d="M 218.949524 172.361429 
L 226.292478 165.747667 
L 239.002775 169.551023 
L 231.739835 176.23678 
z
" style="fill:#6f2a3d;"/>
    <path clip-path="url(#p59da2b641f)" d="M 284.848695 174.43298 
L 284.852208 174.316779 
L 291.601617 167.665282 
L 291.597749 167.780781 
z
" style="fill:#0b0777;"/>
    <path clip-path="url(#p59da2b641f)" d="M 284.848695 174.43298 
L 291.597749 167.780781 
L 291.604106 167.590966 
L 284.854468 174.242011 
z
" style="fill:#050338;"/>
    <path clip-path="url(#p59da2b641f)" d="M 218.949524 172.361429 
L 226.292478 165.747667 
L 226.30646 151.363166 
L 218.910601 157.888586 
z
" style="fill:#280045;"/>
    <path clip-path="url(#p59da2b641f)" d="M 198.736391 175.194243 
L 206.297214 168.527892 
L 206.292843 168.041536 
L 198.73013 174.704929 
z
" style="fill:#070339;"/>
    <path clip-path="url(#p59da2b641f)" d="M 251.851153 173.395697 
L 258.898031 166.762758 
L 271.803162 170.57712 
L 264.839875 177.282368 
z
" style="fill:#0a0449;"/>
    <path clip-path="url(#p59da2b641f)" d="M 206.167612 154.106148 
L 218.910601 157.888586 
L 226.30646 151.363166 
L 213.642467 147.651118 
z
" style="fill:#49007f;"/>
    <path clip-path="url(#p59da2b641f)" d="M 226.292478 165.747667 
L 239.002775 169.551023 
L 239.194845 143.269694 
L 226.317933 139.559856 
z
" style="fill:#840f8f;"/>
    <path clip-path="url(#p59da2b641f)" d="M 251.864622 172.415238 
L 264.859811 176.298465 
L 271.826307 169.599172 
L 258.914793 165.788225 
z
" style="fill:#0f0569;"/>
    <path clip-path="url(#p59da2b641f)" d="M 271.803162 170.57712 
L 284.848695 174.43298 
L 284.854468 174.242011 
L 271.807666 170.386818 
z
" style="fill:#0b0777;"/>
    <path clip-path="url(#p59da2b641f)" d="M 271.803162 170.57712 
L 271.811717 170.215629 
L 284.859661 174.070222 
L 284.848695 174.43298 
z
" style="fill:#050338;"/>
    <path clip-path="url(#p59da2b641f)" d="M 206.297214 168.527892 
L 206.179791 155.461333 
L 218.914259 159.248622 
L 218.949524 172.361429 
z
" style="fill:#250045;"/>
    <path clip-path="url(#p59da2b641f)" d="M 165.82912 174.154745 
L 173.686069 167.507715 
L 186.143392 171.330164 
L 178.361455 178.049733 
z
" style="fill:#070448;"/>
    <path clip-path="url(#p59da2b641f)" d="M 165.824961 174.012441 
L 178.358169 177.90693 
L 186.140688 171.188224 
L 173.682502 167.366271 
z
" style="fill:#0a0667;"/>
    <path clip-path="url(#p59da2b641f)" d="M 206.297214 168.527892 
L 218.949524 172.361429 
L 218.910601 157.888586 
L 206.167612 154.106148 
z
" style="fill:#540193;"/>
    <path clip-path="url(#p59da2b641f)" d="M 284.848695 174.43298 
L 291.597749 167.780781 
L 304.698789 171.606197 
L 298.036935 178.33102 
z
" style="fill:#070448;"/>
    <path clip-path="url(#p59da2b641f)" d="M 284.852208 174.316779 
L 298.041236 178.214411 
L 304.703436 171.490292 
L 291.601617 167.665282 
z
" style="fill:#0a0667;"/>
    <path clip-path="url(#p59da2b641f)" d="M 251.851153 173.395697 
L 258.898031 166.762758 
L 259.198795 149.275945 
L 252.092862 155.80119 
z
" style="fill:#2e0046;"/>
    <path clip-path="url(#p59da2b641f)" d="M 186.143392 171.330164 
L 186.134667 170.872175 
L 198.730511 174.734648 
L 198.736391 175.194243 
z
" style="fill:#070339;"/>
    <path clip-path="url(#p59da2b641f)" d="M 186.143392 171.330164 
L 198.736391 175.194243 
L 198.73013 174.704929 
L 186.134103 170.84256 
z
" style="fill:#0e0678;"/>
    <path clip-path="url(#p59da2b641f)" d="M 226.317933 139.559856 
L 239.194845 143.269694 
L 246.413802 136.86957 
L 233.618236 133.228897 
z
" style="fill:#720d7c;"/>
    <path clip-path="url(#p59da2b641f)" d="M 198.736391 175.194243 
L 206.297214 168.527892 
L 218.949524 172.361429 
L 211.467294 179.100638 
z
" style="fill:#300158;"/>
    <path clip-path="url(#p59da2b641f)" d="M 264.839875 177.282368 
L 264.847244 176.918677 
L 271.811717 170.215629 
L 271.803162 170.57712 
z
" style="fill:#0b0777;"/>
    <path clip-path="url(#p59da2b641f)" d="M 264.839875 177.282368 
L 271.803162 170.57712 
L 271.826307 169.599172 
L 264.859811 176.298465 
z
" style="fill:#080339;"/>
    <path clip-path="url(#p59da2b641f)" d="M 198.736391 175.194243 
L 198.568176 162.047431 
L 206.179791 155.461333 
L 206.297214 168.527892 
z
" style="fill:#4f0192;"/>
    <path clip-path="url(#p59da2b641f)" d="M 239.130904 152.018808 
L 252.092862 155.80119 
L 259.198795 149.275945 
L 246.319681 145.56416 
z
" style="fill:#540081;"/>
    <path clip-path="url(#p59da2b641f)" d="M 239.002775 169.551023 
L 251.851153 173.395697 
L 252.092862 155.80119 
L 239.130904 152.018808 
z
" style="fill:#610095;"/>
    <path clip-path="url(#p59da2b641f)" d="M 178.361455 178.049733 
L 186.143392 171.330164 
L 186.140688 171.188224 
L 178.358169 177.90693 
z
" style="fill:#050338;"/>
    <path clip-path="url(#p59da2b641f)" d="M 178.361455 178.049733 
L 178.350853 177.588957 
L 186.134667 170.872175 
L 186.143392 171.330164 
z
" style="fill:#0e0678;"/>
    <path clip-path="url(#p59da2b641f)" d="M 231.739835 176.23678 
L 239.002775 169.551023 
L 251.851153 173.395697 
L 244.670417 180.154631 
z
" style="fill:#621a4a;"/>
    <path clip-path="url(#p59da2b641f)" d="M 298.036935 178.33102 
L 304.698789 171.606197 
L 304.703436 171.490292 
L 298.041236 178.214411 
z
" style="fill:#050338;"/>
    <path clip-path="url(#p59da2b641f)" d="M 226.292478 165.747667 
L 226.335443 121.545362 
L 239.326985 125.188721 
L 239.002775 169.551023 
z
" style="fill:#572130;"/>
    <path clip-path="url(#p59da2b641f)" d="M 251.851153 173.395697 
L 264.839875 177.282368 
L 264.859811 176.298465 
L 251.864622 172.415238 
z
" style="fill:#110679;"/>
    <path clip-path="url(#p59da2b641f)" d="M 264.839875 177.282368 
L 271.803162 170.57712 
L 284.848695 174.43298 
L 277.971253 181.211726 
z
" style="fill:#070448;"/>
    <path clip-path="url(#p59da2b641f)" d="M 251.851153 173.395697 
L 251.901572 169.72555 
L 264.914503 173.599301 
L 264.839875 177.282368 
z
" style="fill:#11023d;"/>
    <path clip-path="url(#p59da2b641f)" d="M 264.847244 176.918677 
L 277.981065 180.846756 
L 284.859661 174.070222 
L 271.811717 170.215629 
z
" style="fill:#0a0667;"/>
    <path clip-path="url(#p59da2b641f)" d="M 165.82912 174.154745 
L 178.361455 178.049733 
L 178.358169 177.90693 
L 165.824961 174.012441 
z
" style="fill:#0b0777;"/>
    <path clip-path="url(#p59da2b641f)" d="M 165.82912 174.154745 
L 165.821846 173.905849 
L 178.355708 177.799963 
L 178.361455 178.049733 
z
" style="fill:#050338;"/>
    <path clip-path="url(#p59da2b641f)" d="M 284.848695 174.43298 
L 298.036935 178.33102 
L 298.041236 178.214411 
L 284.852208 174.316779 
z
" style="fill:#0b0777;"/>
    <path clip-path="url(#p59da2b641f)" d="M 284.848695 174.43298 
L 284.853852 174.262389 
L 298.04325 178.159829 
L 298.036935 178.33102 
z
" style="fill:#050338;"/>
    <path clip-path="url(#p59da2b641f)" d="M 178.361455 178.049733 
L 186.143392 171.330164 
L 198.736391 175.194243 
L 191.031582 181.987547 
z
" style="fill:#090449;"/>
    <path clip-path="url(#p59da2b641f)" d="M 178.350853 177.588957 
L 191.023859 181.52515 
L 198.730511 174.734648 
L 186.134667 170.872175 
z
" style="fill:#0c0668;"/>
    <path clip-path="url(#p59da2b641f)" d="M 218.949524 172.361429 
L 218.8299 127.881458 
L 226.335443 121.545362 
L 226.292478 165.747667 
z
" style="fill:#b94565;"/>
    <path clip-path="url(#p59da2b641f)" d="M 244.670417 180.154631 
L 244.708031 176.462066 
L 251.901572 169.72555 
L 251.851153 173.395697 
z
" style="fill:#230581;"/>
    <path clip-path="url(#p59da2b641f)" d="M 157.822766 180.928173 
L 157.814418 180.67776 
L 165.821846 173.905849 
L 165.82912 174.154745 
z
" style="fill:#0b0777;"/>
    <path clip-path="url(#p59da2b641f)" d="M 211.467294 179.100638 
L 218.949524 172.361429 
L 231.739835 176.23678 
L 224.338378 183.050047 
z
" style="fill:#80442a;"/>
    <path clip-path="url(#p59da2b641f)" d="M 239.002775 169.551023 
L 239.263453 133.881821 
L 252.342932 137.598004 
L 251.851153 173.395697 
z
" style="fill:#4c143a;"/>
    <path clip-path="url(#p59da2b641f)" d="M 277.971253 181.211726 
L 277.975867 181.040094 
L 284.853852 174.262389 
L 284.848695 174.43298 
z
" style="fill:#0b0777;"/>
    <path clip-path="url(#p59da2b641f)" d="M 277.971253 181.211726 
L 284.848695 174.43298 
L 284.859661 174.070222 
L 277.981065 180.846756 
z
" style="fill:#050338;"/>
    <path clip-path="url(#p59da2b641f)" d="M 211.467294 179.100638 
L 218.949524 172.361429 
L 218.914259 159.248622 
L 211.38226 165.907174 
z
" style="fill:#250045;"/>
    <path clip-path="url(#p59da2b641f)" d="M 198.568176 162.047431 
L 211.38226 165.907174 
L 218.914259 159.248622 
L 206.179791 155.461333 
z
" style="fill:#44017e;"/>
    <path clip-path="url(#p59da2b641f)" d="M 191.031582 181.987547 
L 198.736391 175.194243 
L 198.730511 174.734648 
L 191.023859 181.52515 
z
" style="fill:#070339;"/>
    <path clip-path="url(#p59da2b641f)" d="M 244.670417 180.154631 
L 251.851153 173.395697 
L 264.839875 177.282368 
L 257.743589 184.115686 
z
" style="fill:#15034e;"/>
    <path clip-path="url(#p59da2b641f)" d="M 198.736391 175.194243 
L 198.619518 166.060086 
L 211.408214 169.934168 
L 211.467294 179.100638 
z
" style="fill:#1c0142;"/>
    <path clip-path="url(#p59da2b641f)" d="M 231.739835 176.23678 
L 231.872671 140.344597 
L 239.263453 133.881821 
L 239.002775 169.551023 
z
" style="fill:#a22b7a;"/>
    <path clip-path="url(#p59da2b641f)" d="M 264.839875 177.282368 
L 277.971253 181.211726 
L 277.981065 180.846756 
L 264.847244 176.918677 
z
" style="fill:#0b0777;"/>
    <path clip-path="url(#p59da2b641f)" d="M 264.839875 177.282368 
L 264.850007 176.782306 
L 277.984744 180.709905 
L 277.971253 181.211726 
z
" style="fill:#070339;"/>
    <path clip-path="url(#p59da2b641f)" d="M 198.736391 175.194243 
L 211.467294 179.100638 
L 211.38226 165.907174 
L 198.568176 162.047431 
z
" style="fill:#4f0192;"/>
    <path clip-path="url(#p59da2b641f)" d="M 157.822766 180.928173 
L 165.82912 174.154745 
L 178.361455 178.049733 
L 170.430723 184.897786 
z
" style="fill:#070448;"/>
    <path clip-path="url(#p59da2b641f)" d="M 157.814418 180.67776 
L 170.423919 184.646492 
L 178.355708 177.799963 
L 165.821846 173.905849 
z
" style="fill:#0a0667;"/>
    <path clip-path="url(#p59da2b641f)" d="M 277.971253 181.211726 
L 284.848695 174.43298 
L 298.036935 178.33102 
L 291.24765 185.184478 
z
" style="fill:#070448;"/>
    <path clip-path="url(#p59da2b641f)" d="M 277.975867 181.040094 
L 291.253439 185.012243 
L 298.04325 178.159829 
L 284.853852 174.262389 
z
" style="fill:#0a0667;"/>
    <path clip-path="url(#p59da2b641f)" d="M 244.708031 176.462066 
L 257.805731 180.410092 
L 264.914503 173.599301 
L 251.901572 169.72555 
z
" style="fill:#1f0470;"/>
    <path clip-path="url(#p59da2b641f)" d="M 178.361455 178.049733 
L 191.031582 181.987547 
L 191.023859 181.52515 
L 178.350853 177.588957 
z
" style="fill:#0e0678;"/>
    <path clip-path="url(#p59da2b641f)" d="M 178.361455 178.049733 
L 178.347313 177.435124 
L 191.021281 181.370776 
L 191.031582 181.987547 
z
" style="fill:#070339;"/>
    <path clip-path="url(#p59da2b641f)" d="M 191.031582 181.987547 
L 190.878083 172.797322 
L 198.619518 166.060086 
L 198.736391 175.194243 
z
" style="fill:#3c038c;"/>
    <path clip-path="url(#p59da2b641f)" d="M 191.031582 181.987547 
L 198.736391 175.194243 
L 211.467294 179.100638 
L 203.841786 185.968896 
z
" style="fill:#240254;"/>
    <path clip-path="url(#p59da2b641f)" d="M 257.743589 184.115686 
L 257.752026 183.612573 
L 264.850007 176.782306 
L 264.839875 177.282368 
z
" style="fill:#0e0678;"/>
    <path clip-path="url(#p59da2b641f)" d="M 231.739835 176.23678 
L 239.002775 169.551023 
L 239.326985 125.188721 
L 231.905052 131.595325 
z
" style="fill:#572130;"/>
    <path clip-path="url(#p59da2b641f)" d="M 257.743589 184.115686 
L 264.839875 177.282368 
L 264.914503 173.599301 
L 257.805731 180.410092 
z
" style="fill:#11023d;"/>
    <path clip-path="url(#p59da2b641f)" d="M 170.430723 184.897786 
L 178.361455 178.049733 
L 178.355708 177.799963 
L 170.423919 184.646492 
z
" style="fill:#050338;"/>
    <path clip-path="url(#p59da2b641f)" d="M 170.430723 184.897786 
L 170.413982 184.279426 
L 178.347313 177.435124 
L 178.361455 178.049733 
z
" style="fill:#0e0678;"/>
    <path clip-path="url(#p59da2b641f)" d="M 224.338378 183.050047 
L 231.739835 176.23678 
L 244.670417 180.154631 
L 237.351973 187.043183 
z
" style="fill:#7d3e2e;"/>
    <path clip-path="url(#p59da2b641f)" d="M 291.24765 185.184478 
L 298.036935 178.33102 
L 298.04325 178.159829 
L 291.253439 185.012243 
z
" style="fill:#050338;"/>
    <path clip-path="url(#p59da2b641f)" d="M 218.949524 172.361429 
L 231.739835 176.23678 
L 231.905052 131.595325 
L 218.8299 127.881458 
z
" style="fill:#b94565;"/>
    <path clip-path="url(#p59da2b641f)" d="M 257.743589 184.115686 
L 264.839875 177.282368 
L 277.971253 181.211726 
L 270.961723 188.120663 
z
" style="fill:#090449;"/>
    <path clip-path="url(#p59da2b641f)" d="M 244.670417 180.154631 
L 257.743589 184.115686 
L 257.805731 180.410092 
L 244.708031 176.462066 
z
" style="fill:#230581;"/>
    <path clip-path="url(#p59da2b641f)" d="M 257.752026 183.612573 
L 270.973564 187.615777 
L 277.984744 180.709905 
L 264.850007 176.782306 
z
" style="fill:#0c0668;"/>
    <path clip-path="url(#p59da2b641f)" d="M 157.822766 180.928173 
L 157.817174 180.760423 
L 170.426165 184.729446 
L 170.430723 184.897786 
z
" style="fill:#050338;"/>
    <path clip-path="url(#p59da2b641f)" d="M 157.822766 180.928173 
L 170.430723 184.897786 
L 170.423919 184.646492 
L 157.814418 180.67776 
z
" style="fill:#0b0777;"/>
    <path clip-path="url(#p59da2b641f)" d="M 244.670417 180.154631 
L 251.851153 173.395697 
L 252.342932 137.598004 
L 245.037357 144.13279 
z
" style="fill:#4c143a;"/>
    <path clip-path="url(#p59da2b641f)" d="M 277.971253 181.211726 
L 291.24765 185.184478 
L 291.253439 185.012243 
L 277.975867 181.040094 
z
" style="fill:#0b0777;"/>
    <path clip-path="url(#p59da2b641f)" d="M 277.971253 181.211726 
L 277.978879 180.928069 
L 291.257217 184.899823 
L 291.24765 185.184478 
z
" style="fill:#050338;"/>
    <path clip-path="url(#p59da2b641f)" d="M 170.430723 184.897786 
L 178.361455 178.049733 
L 191.031582 181.987547 
L 183.178635 188.911464 
z
" style="fill:#090449;"/>
    <path clip-path="url(#p59da2b641f)" d="M 170.413982 184.279426 
L 183.165782 188.290924 
L 191.021281 181.370776 
L 178.347313 177.435124 
z
" style="fill:#0c0668;"/>
    <path clip-path="url(#p59da2b641f)" d="M 190.878083 172.797322 
L 203.7468 176.746084 
L 211.408214 169.934168 
L 198.619518 166.060086 
z
" style="fill:#340279;"/>
    <path clip-path="url(#p59da2b641f)" d="M 244.670417 180.154631 
L 244.76971 170.407223 
L 257.90763 174.333721 
L 257.743589 184.115686 
z
" style="fill:#1e0142;"/>
    <path clip-path="url(#p59da2b641f)" d="M 203.841786 185.968896 
L 211.467294 179.100638 
L 211.408214 169.934168 
L 203.7468 176.746084 
z
" style="fill:#1c0142;"/>
    <path clip-path="url(#p59da2b641f)" d="M 149.662704 187.831639 
L 149.656366 187.662865 
L 157.817174 180.760423 
L 157.822766 180.928173 
z
" style="fill:#0b0777;"/>
    <path clip-path="url(#p59da2b641f)" d="M 203.841786 185.968896 
L 211.467294 179.100638 
L 224.338378 183.050047 
L 216.794403 189.994506 
z
" style="fill:#86541f;"/>
    <path clip-path="url(#p59da2b641f)" d="M 231.739835 176.23678 
L 244.670417 180.154631 
L 245.037357 144.13279 
L 231.872671 140.344597 
z
" style="fill:#a22b7a;"/>
    <path clip-path="url(#p59da2b641f)" d="M 270.961723 188.120663 
L 270.968416 187.835274 
L 277.978879 180.928069 
L 277.971253 181.211726 
z
" style="fill:#0b0777;"/>
    <path clip-path="url(#p59da2b641f)" d="M 270.961723 188.120663 
L 277.971253 181.211726 
L 277.984744 180.709905 
L 270.973564 187.615777 
z
" style="fill:#070339;"/>
    <path clip-path="url(#p59da2b641f)" d="M 218.949524 172.361429 
L 218.791029 113.427933 
L 231.958746 117.087 
L 231.739835 176.23678 
z
" style="fill:#643520;"/>
    <path clip-path="url(#p59da2b641f)" d="M 191.031582 181.987547 
L 190.917195 175.139044 
L 203.771003 179.096154 
L 203.841786 185.968896 
z
" style="fill:#180240;"/>
    <path clip-path="url(#p59da2b641f)" d="M 237.351973 187.043183 
L 237.416138 177.235814 
L 244.76971 170.407223 
L 244.670417 180.154631 
z
" style="fill:#3f038d;"/>
    <path clip-path="url(#p59da2b641f)" d="M 183.178635 188.911464 
L 191.031582 181.987547 
L 191.021281 181.370776 
L 183.165782 188.290924 
z
" style="fill:#070339;"/>
    <path clip-path="url(#p59da2b641f)" d="M 237.351973 187.043183 
L 244.670417 180.154631 
L 257.743589 184.115686 
L 250.510457 191.080779 
z
" style="fill:#260255;"/>
    <path clip-path="url(#p59da2b641f)" d="M 191.031582 181.987547 
L 203.841786 185.968896 
L 203.7468 176.746084 
L 190.878083 172.797322 
z
" style="fill:#3c038c;"/>
    <path clip-path="url(#p59da2b641f)" d="M 257.743589 184.115686 
L 270.961723 188.120663 
L 270.973564 187.615777 
L 257.752026 183.612573 
z
" style="fill:#0e0678;"/>
    <path clip-path="url(#p59da2b641f)" d="M 211.467294 179.100638 
L 211.085038 119.791781 
L 218.791029 113.427933 
L 218.949524 172.361429 
z
" style="fill:#d47145;"/>
    <path clip-path="url(#p59da2b641f)" d="M 257.743589 184.115686 
L 257.759967 183.139017 
L 270.984709 187.140551 
L 270.961723 188.120663 
z
" style="fill:#080339;"/>
    <path clip-path="url(#p59da2b641f)" d="M 149.662704 187.831639 
L 157.822766 180.928173 
L 170.430723 184.897786 
L 162.346885 191.878042 
z
" style="fill:#070448;"/>
    <path clip-path="url(#p59da2b641f)" d="M 149.656366 187.662865 
L 162.341593 191.708673 
L 170.426165 184.729446 
L 157.817174 180.760423 
z
" style="fill:#0a0667;"/>
    <path clip-path="url(#p59da2b641f)" d="M 270.961723 188.120663 
L 277.971253 181.211726 
L 291.24765 185.184478 
L 284.327244 192.170297 
z
" style="fill:#070448;"/>
    <path clip-path="url(#p59da2b641f)" d="M 218.8299 127.881458 
L 231.905052 131.595325 
L 239.326985 125.188721 
L 226.335443 121.545362 
z
" style="fill:#a03c58;"/>
    <path clip-path="url(#p59da2b641f)" d="M 183.178635 188.911464 
L 183.035914 182.020904 
L 190.917195 175.139044 
L 191.031582 181.987547 
z
" style="fill:#320488;"/>
    <path clip-path="url(#p59da2b641f)" d="M 270.968416 187.835274 
L 284.335904 191.883901 
L 291.257217 184.899823 
L 277.978879 180.928069 
z
" style="fill:#0a0667;"/>
    <path clip-path="url(#p59da2b641f)" d="M 170.430723 184.897786 
L 183.178635 188.911464 
L 183.165782 188.290924 
L 170.413982 184.279426 
z
" style="fill:#0e0678;"/>
    <path clip-path="url(#p59da2b641f)" d="M 170.430723 184.897786 
L 170.413347 184.255975 
L 183.165294 188.267391 
L 183.178635 188.911464 
z
" style="fill:#070339;"/>
    <path clip-path="url(#p59da2b641f)" d="M 183.178635 188.911464 
L 191.031582 181.987547 
L 203.841786 185.968896 
L 196.068846 192.969946 
z
" style="fill:#1e0252;"/>
    <path clip-path="url(#p59da2b641f)" d="M 231.872671 140.344597 
L 245.037357 144.13279 
L 252.342932 137.598004 
L 239.263453 133.881821 
z
" style="fill:#8d256a;"/>
    <path clip-path="url(#p59da2b641f)" d="M 250.510457 191.080779 
L 250.523412 190.098136 
L 257.759967 183.139017 
L 257.743589 184.115686 
z
" style="fill:#110679;"/>
    <path clip-path="url(#p59da2b641f)" d="M 231.739835 176.23678 
L 231.94512 120.768975 
L 245.237518 124.483464 
L 244.670417 180.154631 
z
" style="fill:#623024;"/>
    <path clip-path="url(#p59da2b641f)" d="M 162.346885 191.878042 
L 170.430723 184.897786 
L 170.426165 184.729446 
L 162.341593 191.708673 
z
" style="fill:#050338;"/>
    <path clip-path="url(#p59da2b641f)" d="M 162.346885 191.878042 
L 162.326711 191.232306 
L 170.413347 184.255975 
L 170.430723 184.897786 
z
" style="fill:#0e0678;"/>
    <path clip-path="url(#p59da2b641f)" d="M 216.794403 189.994506 
L 224.338378 183.050047 
L 237.351973 187.043183 
L 229.891821 194.06512 
z
" style="fill:#876019;"/>
    <path clip-path="url(#p59da2b641f)" d="M 284.327244 192.170297 
L 291.24765 185.184478 
L 291.257217 184.899823 
L 284.335904 191.883901 
z
" style="fill:#050338;"/>
    <path clip-path="url(#p59da2b641f)" d="M 237.416138 177.235814 
L 250.640224 181.238562 
L 257.90763 174.333721 
L 244.76971 170.407223 
z
" style="fill:#37027a;"/>
    <path clip-path="url(#p59da2b641f)" d="M 250.510457 191.080779 
L 257.743589 184.115686 
L 257.90763 174.333721 
L 250.640224 181.238562 
z
" style="fill:#1e0142;"/>
    <path clip-path="url(#p59da2b641f)" d="M 250.510457 191.080779 
L 257.743589 184.115686 
L 270.961723 188.120663 
L 263.816264 195.163579 
z
" style="fill:#0a0449;"/>
    <path clip-path="url(#p59da2b641f)" d="M 224.338378 183.050047 
L 224.338378 127.229314 
L 231.94512 120.768975 
L 231.739835 176.23678 
z
" style="fill:#cf664c;"/>
    <path clip-path="url(#p59da2b641f)" d="M 149.662704 187.831639 
L 149.656401 187.663799 
L 162.341623 191.70961 
L 162.346885 191.878042 
z
" style="fill:#050338;"/>
    <path clip-path="url(#p59da2b641f)" d="M 149.662704 187.831639 
L 162.346885 191.878042 
L 162.341593 191.708673 
L 149.656366 187.662865 
z
" style="fill:#0b0777;"/>
    <path clip-path="url(#p59da2b641f)" d="M 183.035914 182.020904 
L 195.970273 186.054945 
L 203.771003 179.096154 
L 190.917195 175.139044 
z
" style="fill:#2b0376;"/>
    <path clip-path="url(#p59da2b641f)" d="M 250.523412 190.098136 
L 263.835916 194.177465 
L 270.984709 187.140551 
L 257.759967 183.139017 
z
" style="fill:#0f0569;"/>
    <path clip-path="url(#p59da2b641f)" d="M 270.961723 188.120663 
L 284.327244 192.170297 
L 284.335904 191.883901 
L 270.968416 187.835274 
z
" style="fill:#0b0777;"/>
    <path clip-path="url(#p59da2b641f)" d="M 270.961723 188.120663 
L 270.969177 187.802837 
L 284.336889 191.85135 
L 284.327244 192.170297 
z
" style="fill:#050338;"/>
    <path clip-path="url(#p59da2b641f)" d="M 224.338378 183.050047 
L 231.739835 176.23678 
L 231.958746 117.087 
L 224.338378 123.522867 
z
" style="fill:#643520;"/>
    <path clip-path="url(#p59da2b641f)" d="M 162.346885 191.878042 
L 170.430723 184.897786 
L 183.178635 188.911464 
L 175.173234 195.969799 
z
" style="fill:#090449;"/>
    <path clip-path="url(#p59da2b641f)" d="M 162.326711 191.232306 
L 175.157144 195.321781 
L 183.165294 188.267391 
L 170.413347 184.255975 
z
" style="fill:#0c0668;"/>
    <path clip-path="url(#p59da2b641f)" d="M 196.068846 192.969946 
L 203.841786 185.968896 
L 203.771003 179.096154 
L 195.970273 186.054945 
z
" style="fill:#180240;"/>
    <path clip-path="url(#p59da2b641f)" d="M 237.351973 187.043183 
L 250.510457 191.080779 
L 250.640224 181.238562 
L 237.416138 177.235814 
z
" style="fill:#3f038d;"/>
    <path clip-path="url(#p59da2b641f)" d="M 141.344465 194.868925 
L 141.337391 194.700057 
L 149.656401 187.663799 
L 149.662704 187.831639 
z
" style="fill:#0b0777;"/>
    <path clip-path="url(#p59da2b641f)" d="M 196.068846 192.969946 
L 203.841786 185.968896 
L 216.794403 189.994506 
L 209.103753 197.073984 
z
" style="fill:#844e23;"/>
    <path clip-path="url(#p59da2b641f)" d="M 263.816264 195.163579 
L 263.822636 194.843808 
L 270.969177 187.802837 
L 270.961723 188.120663 
z
" style="fill:#0b0777;"/>
    <path clip-path="url(#p59da2b641f)" d="M 211.467294 179.100638 
L 224.338378 183.050047 
L 224.338378 123.522867 
L 211.085038 119.791781 
z
" style="fill:#d47145;"/>
    <path clip-path="url(#p59da2b641f)" d="M 263.816264 195.163579 
L 270.961723 188.120663 
L 270.984709 187.140551 
L 263.835916 194.177465 
z
" style="fill:#080339;"/>
    <path clip-path="url(#p59da2b641f)" d="M 183.178635 188.911464 
L 183.066862 183.51505 
L 195.991648 187.554413 
L 196.068846 192.969946 
z
" style="fill:#15023f;"/>
    <path clip-path="url(#p59da2b641f)" d="M 183.178635 188.911464 
L 196.068846 192.969946 
L 195.970273 186.054945 
L 183.035914 182.020904 
z
" style="fill:#320488;"/>
    <path clip-path="url(#p59da2b641f)" d="M 175.173234 195.969799 
L 183.178635 188.911464 
L 183.165294 188.267391 
L 175.157144 195.321781 
z
" style="fill:#070339;"/>
    <path clip-path="url(#p59da2b641f)" d="M 229.891821 194.06512 
L 237.351973 187.043183 
L 250.510457 191.080779 
L 243.136481 198.181496 
z
" style="fill:#3f005a;"/>
    <path clip-path="url(#p59da2b641f)" d="M 237.351973 187.043183 
L 237.479364 167.572019 
L 250.768098 171.5399 
L 250.510457 191.080779 
z
" style="fill:#310046;"/>
    <path clip-path="url(#p59da2b641f)" d="M 211.467294 179.100638 
L 211.036178 112.21103 
L 224.338378 115.912806 
L 224.338378 183.050047 
z
" style="fill:#684219;"/>
    <path clip-path="url(#p59da2b641f)" d="M 250.510457 191.080779 
L 263.816264 195.163579 
L 263.835916 194.177465 
L 250.523412 190.098136 
z
" style="fill:#110679;"/>
    <path clip-path="url(#p59da2b641f)" d="M 250.510457 191.080779 
L 250.528772 189.691628 
L 263.844046 193.769519 
L 263.816264 195.163579 
z
" style="fill:#0a033a;"/>
    <path clip-path="url(#p59da2b641f)" d="M 141.344465 194.868925 
L 149.662704 187.831639 
L 162.346885 191.878042 
L 154.105465 198.994368 
z
" style="fill:#070448;"/>
    <path clip-path="url(#p59da2b641f)" d="M 175.173234 195.969799 
L 175.038422 190.540214 
L 183.066862 183.51505 
L 183.178635 188.911464 
z
" style="fill:#2c0485;"/>
    <path clip-path="url(#p59da2b641f)" d="M 141.337391 194.700057 
L 154.099445 198.824903 
L 162.341623 191.70961 
L 149.656401 187.663799 
z
" style="fill:#0a0667;"/>
    <path clip-path="url(#p59da2b641f)" d="M 263.816264 195.163579 
L 270.961723 188.120663 
L 284.327244 192.170297 
L 277.271882 199.292348 
z
" style="fill:#070448;"/>
    <path clip-path="url(#p59da2b641f)" d="M 237.351973 187.043183 
L 244.670417 180.154631 
L 245.237518 124.483464 
L 237.718526 131.017195 
z
" style="fill:#623024;"/>
    <path clip-path="url(#p59da2b641f)" d="M 263.822636 194.843808 
L 277.280475 198.971446 
L 284.336889 191.85135 
L 270.969177 187.802837 
z
" style="fill:#0a0667;"/>
    <path clip-path="url(#p59da2b641f)" d="M 162.346885 191.878042 
L 162.332305 191.411364 
L 175.161606 195.501473 
L 175.173234 195.969799 
z
" style="fill:#070339;"/>
    <path clip-path="url(#p59da2b641f)" d="M 162.346885 191.878042 
L 175.173234 195.969799 
L 175.157144 195.321781 
L 162.326711 191.232306 
z
" style="fill:#0e0678;"/>
    <path clip-path="url(#p59da2b641f)" d="M 229.891821 194.06512 
L 229.946716 174.472991 
L 237.479364 167.572019 
L 237.351973 187.043183 
z
" style="fill:#680195;"/>
    <path clip-path="url(#p59da2b641f)" d="M 175.173234 195.969799 
L 183.178635 188.911464 
L 196.068846 192.969946 
L 188.144156 200.107676 
z
" style="fill:#1a0250;"/>
    <path clip-path="url(#p59da2b641f)" d="M 203.841786 185.968896 
L 203.14846 118.649518 
L 211.036178 112.21103 
L 211.467294 179.100638 
z
" style="fill:#dd8b34;"/>
    <path clip-path="url(#p59da2b641f)" d="M 243.136481 198.181496 
L 243.149765 196.783828 
L 250.528772 189.691628 
L 250.510457 191.080779 
z
" style="fill:#16067b;"/>
    <path clip-path="url(#p59da2b641f)" d="M 224.338378 183.050047 
L 237.351973 187.043183 
L 237.718526 131.017195 
L 224.338378 127.229314 
z
" style="fill:#cf664c;"/>
    <path clip-path="url(#p59da2b641f)" d="M 154.105465 198.994368 
L 162.346885 191.878042 
L 162.341623 191.70961 
L 154.099445 198.824903 
z
" style="fill:#050338;"/>
    <path clip-path="url(#p59da2b641f)" d="M 154.105465 198.994368 
L 154.088786 198.52483 
L 162.332305 191.411364 
L 162.346885 191.878042 
z
" style="fill:#0e0678;"/>
    <path clip-path="url(#p59da2b641f)" d="M 209.103753 197.073984 
L 216.794403 189.994506 
L 229.891821 194.06512 
L 222.285805 201.224351 
z
" style="fill:#847814;"/>
    <path clip-path="url(#p59da2b641f)" d="M 277.271882 199.292348 
L 284.327244 192.170297 
L 284.336889 191.85135 
L 277.280475 198.971446 
z
" style="fill:#050338;"/>
    <path clip-path="url(#p59da2b641f)" d="M 175.038422 190.540214 
L 188.04435 194.658816 
L 195.991648 187.554413 
L 183.066862 183.51505 
z
" style="fill:#260473;"/>
    <path clip-path="url(#p59da2b641f)" d="M 243.136481 198.181496 
L 250.510457 191.080779 
L 263.816264 195.163579 
L 256.530882 202.34441 
z
" style="fill:#0d034a;"/>
    <path clip-path="url(#p59da2b641f)" d="M 141.344465 194.868925 
L 154.105465 198.994368 
L 154.099445 198.824903 
L 141.337391 194.700057 
z
" style="fill:#0b0777;"/>
    <path clip-path="url(#p59da2b641f)" d="M 243.149765 196.783828 
L 256.553759 200.941794 
L 263.844046 193.769519 
L 250.528772 189.691628 
z
" style="fill:#13056b;"/>
    <path clip-path="url(#p59da2b641f)" d="M 263.816264 195.163579 
L 277.271882 199.292348 
L 277.280475 198.971446 
L 263.822636 194.843808 
z
" style="fill:#0b0777;"/>
    <path clip-path="url(#p59da2b641f)" d="M 263.816264 195.163579 
L 263.823922 194.779291 
L 277.282208 198.906702 
L 277.271882 199.292348 
z
" style="fill:#050338;"/>
    <path clip-path="url(#p59da2b641f)" d="M 154.105465 198.994368 
L 162.346885 191.878042 
L 175.173234 195.969799 
L 167.010898 203.166503 
z
" style="fill:#090449;"/>
    <path clip-path="url(#p59da2b641f)" d="M 188.144156 200.107676 
L 196.068846 192.969946 
L 195.991648 187.554413 
L 188.04435 194.658816 
z
" style="fill:#15023f;"/>
    <path clip-path="url(#p59da2b641f)" d="M 154.088786 198.52483 
L 166.997206 202.695304 
L 175.161606 195.501473 
L 162.332305 191.411364 
z
" style="fill:#0c0668;"/>
    <path clip-path="url(#p59da2b641f)" d="M 224.338378 183.050047 
L 224.338378 110.670137 
L 237.827286 114.393787 
L 237.351973 187.043183 
z
" style="fill:#6a4b13;"/>
    <path clip-path="url(#p59da2b641f)" d="M 243.136481 198.181496 
L 250.510457 191.080779 
L 250.768098 171.5399 
L 243.323352 178.519064 
z
" style="fill:#310046;"/>
    <path clip-path="url(#p59da2b641f)" d="M 188.144156 200.107676 
L 196.068846 192.969946 
L 209.103753 197.073984 
L 201.262108 204.292457 
z
" style="fill:#7c3c2f;"/>
    <path clip-path="url(#p59da2b641f)" d="M 175.173234 195.969799 
L 175.084682 192.403357 
L 188.078598 196.528593 
L 188.144156 200.107676 
z
" style="fill:#10023d;"/>
    <path clip-path="url(#p59da2b641f)" d="M 216.794403 189.994506 
L 224.338378 183.050047 
L 224.338378 115.912806 
L 216.537751 122.425153 
z
" style="fill:#684219;"/>
    <path clip-path="url(#p59da2b641f)" d="M 256.530882 202.34441 
L 256.537188 201.957765 
L 263.823922 194.779291 
L 263.816264 195.163579 
z
" style="fill:#0b0777;"/>
    <path clip-path="url(#p59da2b641f)" d="M 211.085038 119.791781 
L 224.338378 123.522867 
L 231.958746 117.087 
L 218.791029 113.427933 
z
" style="fill:#b8623c;"/>
    <path clip-path="url(#p59da2b641f)" d="M 256.530882 202.34441 
L 263.816264 195.163579 
L 263.844046 193.769519 
L 256.553759 200.941794 
z
" style="fill:#0a033a;"/>
    <path clip-path="url(#p59da2b641f)" d="M 175.173234 195.969799 
L 188.144156 200.107676 
L 188.04435 194.658816 
L 175.038422 190.540214 
z
" style="fill:#2c0485;"/>
    <path clip-path="url(#p59da2b641f)" d="M 167.010898 203.166503 
L 175.173234 195.969799 
L 175.161606 195.501473 
L 166.997206 202.695304 
z
" style="fill:#070339;"/>
    <path clip-path="url(#p59da2b641f)" d="M 222.285805 201.224351 
L 229.891821 194.06512 
L 243.136481 198.181496 
L 235.617509 205.421836 
z
" style="fill:#5e164d;"/>
    <path clip-path="url(#p59da2b641f)" d="M 216.794403 189.994506 
L 216.517702 117.146895 
L 224.338378 110.670137 
L 224.338378 183.050047 
z
" style="fill:#e09f29;"/>
    <path clip-path="url(#p59da2b641f)" d="M 229.891821 194.06512 
L 243.136481 198.181496 
L 243.323352 178.519064 
L 229.946716 174.472991 
z
" style="fill:#680195;"/>
    <path clip-path="url(#p59da2b641f)" d="M 203.841786 185.968896 
L 203.176911 121.412034 
L 216.548284 125.198427 
L 216.794403 189.994506 
z
" style="fill:#673d1b;"/>
    <path clip-path="url(#p59da2b641f)" d="M 229.946716 174.472991 
L 243.323352 178.519064 
L 250.768098 171.5399 
L 237.479364 167.572019 
z
" style="fill:#5a0181;"/>
    <path clip-path="url(#p59da2b641f)" d="M 167.010898 203.166503 
L 166.906631 199.578129 
L 175.084682 192.403357 
L 175.173234 195.969799 
z
" style="fill:#210581;"/>
    <path clip-path="url(#p59da2b641f)" d="M 203.841786 185.968896 
L 216.794403 189.994506 
L 216.537751 122.425153 
L 203.14846 118.649518 
z
" style="fill:#dd8b34;"/>
    <path clip-path="url(#p59da2b641f)" d="M 243.136481 198.181496 
L 256.530882 202.34441 
L 256.553759 200.941794 
L 243.149765 196.783828 
z
" style="fill:#16067b;"/>
    <path clip-path="url(#p59da2b641f)" d="M 243.136481 198.181496 
L 243.162636 195.429539 
L 256.575926 199.5827 
L 256.530882 202.34441 
z
" style="fill:#0e023c;"/>
    <path clip-path="url(#p59da2b641f)" d="M 256.530882 202.34441 
L 263.816264 195.163579 
L 277.271882 199.292348 
L 270.077576 206.554656 
z
" style="fill:#070448;"/>
    <path clip-path="url(#p59da2b641f)" d="M 256.537188 201.957765 
L 270.086586 206.166643 
L 277.282208 198.906702 
L 263.823922 194.779291 
z
" style="fill:#0a0667;"/>
    <path clip-path="url(#p59da2b641f)" d="M 154.105465 198.994368 
L 167.010898 203.166503 
L 166.997206 202.695304 
L 154.088786 198.52483 
z
" style="fill:#0e0678;"/>
    <path clip-path="url(#p59da2b641f)" d="M 196.068846 192.969946 
L 195.142674 127.997932 
L 203.176911 121.412034 
L 203.841786 185.968896 
z
" style="fill:#db823a;"/>
    <path clip-path="url(#p59da2b641f)" d="M 167.010898 203.166503 
L 175.173234 195.969799 
L 188.144156 200.107676 
L 180.063228 207.386128 
z
" style="fill:#14034e;"/>
    <path clip-path="url(#p59da2b641f)" d="M 224.338378 127.229314 
L 237.718526 131.017195 
L 245.237518 124.483464 
L 231.94512 120.768975 
z
" style="fill:#b35942;"/>
    <path clip-path="url(#p59da2b641f)" d="M 235.617509 205.421836 
L 235.633356 202.652959 
L 243.162636 195.429539 
L 243.136481 198.181496 
z
" style="fill:#1e057f;"/>
    <path clip-path="url(#p59da2b641f)" d="M 229.891821 194.06512 
L 229.987938 159.760697 
L 243.463692 163.752541 
L 243.136481 198.181496 
z
" style="fill:#4a123c;"/>
    <path clip-path="url(#p59da2b641f)" d="M 201.262108 204.292457 
L 209.103753 197.073984 
L 222.285805 201.224351 
L 214.529606 208.524945 
z
" style="fill:#808512;"/>
    <path clip-path="url(#p59da2b641f)" d="M 270.077576 206.554656 
L 277.271882 199.292348 
L 277.282208 198.906702 
L 270.086586 206.166643 
z
" style="fill:#050338;"/>
    <path clip-path="url(#p59da2b641f)" d="M 166.906631 199.578129 
L 179.982241 203.785013 
L 188.078598 196.528593 
L 175.084682 192.403357 
z
" style="fill:#1d0470;"/>
    <path clip-path="url(#p59da2b641f)" d="M 235.617509 205.421836 
L 243.136481 198.181496 
L 256.530882 202.34441 
L 249.101427 209.667246 
z
" style="fill:#12034d;"/>
    <path clip-path="url(#p59da2b641f)" d="M 229.891821 194.06512 
L 237.351973 187.043183 
L 237.827286 114.393787 
L 230.096693 120.945464 
z
" style="fill:#6a4b13;"/>
    <path clip-path="url(#p59da2b641f)" d="M 222.285805 201.224351 
L 222.249927 166.703842 
L 229.987938 159.760697 
L 229.891821 194.06512 
z
" style="fill:#9c257f;"/>
    <path clip-path="url(#p59da2b641f)" d="M 180.063228 207.386128 
L 188.144156 200.107676 
L 188.078598 196.528593 
L 179.982241 203.785013 
z
" style="fill:#10023d;"/>
    <path clip-path="url(#p59da2b641f)" d="M 256.530882 202.34441 
L 270.077576 206.554656 
L 270.086586 206.166643 
L 256.537188 201.957765 
z
" style="fill:#0b0777;"/>
    <path clip-path="url(#p59da2b641f)" d="M 256.530882 202.34441 
L 256.542983 201.602446 
L 270.094867 205.810064 
L 270.077576 206.554656 
z
" style="fill:#080339;"/>
    <path clip-path="url(#p59da2b641f)" d="M 235.633356 202.652959 
L 249.136419 206.888538 
L 256.575926 199.5827 
L 243.162636 195.429539 
z
" style="fill:#1a046e;"/>
    <path clip-path="url(#p59da2b641f)" d="M 196.068846 192.969946 
L 195.275555 137.319649 
L 208.673776 141.21836 
L 209.103753 197.073984 
z
" style="fill:#612f25;"/>
    <path clip-path="url(#p59da2b641f)" d="M 216.794403 189.994506 
L 229.891821 194.06512 
L 230.096693 120.945464 
L 216.517702 117.146895 
z
" style="fill:#e09f29;"/>
    <path clip-path="url(#p59da2b641f)" d="M 209.103753 197.073984 
L 216.794403 189.994506 
L 216.548284 125.198427 
L 208.60174 131.860528 
z
" style="fill:#673d1b;"/>
    <path clip-path="url(#p59da2b641f)" d="M 180.063228 207.386128 
L 188.144156 200.107676 
L 201.262108 204.292457 
L 193.264978 211.654059 
z
" style="fill:#6a2342;"/>
    <path clip-path="url(#p59da2b641f)" d="M 167.010898 203.166503 
L 180.063228 207.386128 
L 179.982241 203.785013 
L 166.906631 199.578129 
z
" style="fill:#210581;"/>
    <path clip-path="url(#p59da2b641f)" d="M 249.101427 209.667246 
L 249.110828 208.920723 
L 256.542983 201.602446 
L 256.530882 202.34441 
z
" style="fill:#110679;"/>
    <path clip-path="url(#p59da2b641f)" d="M 249.101427 209.667246 
L 256.530882 202.34441 
L 256.575926 199.5827 
L 249.136419 206.888538 
z
" style="fill:#0e023c;"/>
    <path clip-path="url(#p59da2b641f)" d="M 188.144156 200.107676 
L 187.118289 144.101063 
L 195.275555 137.319649 
L 196.068846 192.969946 
z
" style="fill:#ce644e;"/>
    <path clip-path="url(#p59da2b641f)" d="M 214.529606 208.524945 
L 222.285805 201.224351 
L 235.617509 205.421836 
L 227.94922 212.80596 
z
" style="fill:#722d3a;"/>
    <path clip-path="url(#p59da2b641f)" d="M 196.068846 192.969946 
L 209.103753 197.073984 
L 208.60174 131.860528 
L 195.142674 127.997932 
z
" style="fill:#db823a;"/>
    <path clip-path="url(#p59da2b641f)" d="M 216.794403 189.994506 
L 216.480629 107.386563 
L 230.124149 111.146404 
L 229.891821 194.06512 
z
" style="fill:#675e0f;"/>
    <path clip-path="url(#p59da2b641f)" d="M 235.617509 205.421836 
L 249.101427 209.667246 
L 249.136419 206.888538 
L 235.633356 202.652959 
z
" style="fill:#1e057f;"/>
    <path clip-path="url(#p59da2b641f)" d="M 249.101427 209.667246 
L 256.530882 202.34441 
L 270.077576 206.554656 
L 262.740181 213.961405 
z
" style="fill:#0a0449;"/>
    <path clip-path="url(#p59da2b641f)" d="M 235.617509 205.421836 
L 243.136481 198.181496 
L 243.463692 163.752541 
L 235.815804 170.775727 
z
" style="fill:#4a123c;"/>
    <path clip-path="url(#p59da2b641f)" d="M 249.110828 208.920723 
L 262.754843 213.212234 
L 270.094867 205.810064 
L 256.542983 201.602446 
z
" style="fill:#0f0569;"/>
    <path clip-path="url(#p59da2b641f)" d="M 235.617509 205.421836 
L 235.643856 200.818399 
L 249.159603 205.047441 
L 249.101427 209.667246 
z
" style="fill:#12023e;"/>
    <path clip-path="url(#p59da2b641f)" d="M 209.103753 197.073984 
L 208.463685 113.92668 
L 216.480629 107.386563 
L 216.794403 189.994506 
z
" style="fill:#dbc721;"/>
    <path clip-path="url(#p59da2b641f)" d="M 203.14846 118.649518 
L 216.537751 122.425153 
L 224.338378 115.912806 
L 211.036178 112.21103 
z
" style="fill:#c0792d;"/>
    <path clip-path="url(#p59da2b641f)" d="M 222.285805 201.224351 
L 235.617509 205.421836 
L 235.815804 170.775727 
L 222.249927 166.703842 
z
" style="fill:#9c257f;"/>
    <path clip-path="url(#p59da2b641f)" d="M 227.94922 212.80596 
L 227.957739 208.174127 
L 235.643856 200.818399 
L 235.617509 205.421836 
z
" style="fill:#270483;"/>
    <path clip-path="url(#p59da2b641f)" d="M 188.144156 200.107676 
L 187.377599 158.25794 
L 200.770547 162.289619 
L 201.262108 204.292457 
z
" style="fill:#531b34;"/>
    <path clip-path="url(#p59da2b641f)" d="M 193.264978 211.654059 
L 201.262108 204.292457 
L 214.529606 208.524945 
L 206.61873 215.971129 
z
" style="fill:#867213;"/>
    <path clip-path="url(#p59da2b641f)" d="M 262.740181 213.961405 
L 270.077576 206.554656 
L 270.094867 205.810064 
L 262.754843 213.212234 
z
" style="fill:#080339;"/>
    <path clip-path="url(#p59da2b641f)" d="M 201.262108 204.292457 
L 209.103753 197.073984 
L 208.673776 141.21836 
L 200.604236 148.078669 
z
" style="fill:#612f25;"/>
    <path clip-path="url(#p59da2b641f)" d="M 227.94922 212.80596 
L 235.617509 205.421836 
L 249.101427 209.667246 
L 241.523583 217.136342 
z
" style="fill:#17034f;"/>
    <path clip-path="url(#p59da2b641f)" d="M 180.063228 207.386128 
L 179.116083 165.270729 
L 187.377599 158.25794 
L 188.144156 200.107676 
z
" style="fill:#b03a6e;"/>
    <path clip-path="url(#p59da2b641f)" d="M 249.101427 209.667246 
L 249.110321 208.960931 
L 262.754053 213.252585 
L 262.740181 213.961405 
z
" style="fill:#070339;"/>
    <path clip-path="url(#p59da2b641f)" d="M 249.101427 209.667246 
L 262.740181 213.961405 
L 262.754843 213.212234 
L 249.110828 208.920723 
z
" style="fill:#110679;"/>
    <path clip-path="url(#p59da2b641f)" d="M 222.285805 201.224351 
L 222.236297 153.589931 
L 235.891144 157.6123 
L 235.617509 205.421836 
z
" style="fill:#59232d;"/>
    <path clip-path="url(#p59da2b641f)" d="M 222.249927 166.703842 
L 235.815804 170.775727 
L 243.463692 163.752541 
L 229.987938 159.760697 
z
" style="fill:#87206e;"/>
    <path clip-path="url(#p59da2b641f)" d="M 188.144156 200.107676 
L 201.262108 204.292457 
L 200.604236 148.078669 
L 187.118289 144.101063 
z
" style="fill:#ce644e;"/>
    <path clip-path="url(#p59da2b641f)" d="M 227.957739 208.174127 
L 241.56436 212.488014 
L 249.159603 205.047441 
L 235.643856 200.818399 
z
" style="fill:#220472;"/>
    <path clip-path="url(#p59da2b641f)" d="M 222.285805 201.224351 
L 229.891821 194.06512 
L 230.124149 111.146404 
L 222.199061 117.763306 
z
" style="fill:#675e0f;"/>
    <path clip-path="url(#p59da2b641f)" d="M 241.523583 217.136342 
L 241.529817 216.42568 
L 249.110321 208.960931 
L 249.101427 209.667246 
z
" style="fill:#0e0678;"/>
    <path clip-path="url(#p59da2b641f)" d="M 214.529606 208.524945 
L 214.290625 160.586658 
L 222.236297 153.589931 
L 222.285805 201.224351 
z
" style="fill:#bd4b60;"/>
    <path clip-path="url(#p59da2b641f)" d="M 241.523583 217.136342 
L 249.101427 209.667246 
L 249.159603 205.047441 
L 241.56436 212.488014 
z
" style="fill:#12023e;"/>
    <path clip-path="url(#p59da2b641f)" d="M 206.61873 215.971129 
L 214.529606 208.524945 
L 227.94922 212.80596 
L 220.127123 220.338193 
z
" style="fill:#773435;"/>
    <path clip-path="url(#p59da2b641f)" d="M 209.103753 197.073984 
L 222.285805 201.224351 
L 222.199061 117.763306 
L 208.463685 113.92668 
z
" style="fill:#dbc721;"/>
    <path clip-path="url(#p59da2b641f)" d="M 216.517702 117.146895 
L 230.096693 120.945464 
L 237.827286 114.393787 
L 224.338378 110.670137 
z
" style="fill:#c28a24;"/>
    <path clip-path="url(#p59da2b641f)" d="M 195.142674 127.997932 
L 208.60174 131.860528 
L 216.548284 125.198427 
L 203.176911 121.412034 
z
" style="fill:#be7033;"/>
    <path clip-path="url(#p59da2b641f)" d="M 241.523583 217.136342 
L 249.101427 209.667246 
L 262.740181 213.961405 
L 255.255385 221.516949 
z
" style="fill:#090449;"/>
    <path clip-path="url(#p59da2b641f)" d="M 209.103753 197.073984 
L 208.422991 108.640423 
L 222.193545 112.455764 
L 222.285805 201.224351 
z
" style="fill:#64680e;"/>
    <path clip-path="url(#p59da2b641f)" d="M 241.529817 216.42568 
L 255.266666 220.803762 
L 262.754053 213.252585 
L 249.110321 208.960931 
z
" style="fill:#0c0668;"/>
    <path clip-path="url(#p59da2b641f)" d="M 227.94922 212.80596 
L 241.523583 217.136342 
L 241.56436 212.488014 
L 227.957739 208.174127 
z
" style="fill:#270483;"/>
    <path clip-path="url(#p59da2b641f)" d="M 193.264978 211.654059 
L 201.262108 204.292457 
L 200.770547 162.289619 
L 192.596362 169.384243 
z
" style="fill:#531b34;"/>
    <path clip-path="url(#p59da2b641f)" d="M 227.94922 212.80596 
L 227.96209 205.808278 
L 241.585189 210.113692 
L 241.523583 217.136342 
z
" style="fill:#180240;"/>
    <path clip-path="url(#p59da2b641f)" d="M 201.262108 204.292457 
L 200.220362 115.277443 
L 208.422991 108.640423 
L 209.103753 197.073984 
z
" style="fill:#d4dc1e;"/>
    <path clip-path="url(#p59da2b641f)" d="M 180.063228 207.386128 
L 193.264978 211.654059 
L 192.596362 169.384243 
L 179.116083 165.270729 
z
" style="fill:#b03a6e;"/>
    <path clip-path="url(#p59da2b641f)" d="M 255.255385 221.516949 
L 262.740181 213.961405 
L 262.754053 213.252585 
L 255.266666 220.803762 
z
" style="fill:#070339;"/>
    <path clip-path="url(#p59da2b641f)" d="M 220.127123 220.338193 
L 220.111962 213.297197 
L 227.96209 205.808278 
L 227.94922 212.80596 
z
" style="fill:#320488;"/>
    <path clip-path="url(#p59da2b641f)" d="M 227.94922 212.80596 
L 235.617509 205.421836 
L 235.891144 157.6123 
L 228.037711 164.691038 
z
" style="fill:#59232d;"/>
    <path clip-path="url(#p59da2b641f)" d="M 220.127123 220.338193 
L 227.94922 212.80596 
L 241.523583 217.136342 
L 233.792858 224.756123 
z
" style="fill:#1e0252;"/>
    <path clip-path="url(#p59da2b641f)" d="M 187.118289 144.101063 
L 200.604236 148.078669 
L 208.673776 141.21836 
L 195.275555 137.319649 
z
" style="fill:#b25744;"/>
    <path clip-path="url(#p59da2b641f)" d="M 241.523583 217.136342 
L 255.255385 221.516949 
L 255.266666 220.803762 
L 241.529817 216.42568 
z
" style="fill:#0e0678;"/>
    <path clip-path="url(#p59da2b641f)" d="M 241.523583 217.136342 
L 241.534056 215.942427 
L 255.274337 220.318791 
L 255.255385 221.516949 
z
" style="fill:#09033a;"/>
    <path clip-path="url(#p59da2b641f)" d="M 214.529606 208.524945 
L 227.94922 212.80596 
L 228.037711 164.691038 
L 214.290625 160.586658 
z
" style="fill:#bd4b60;"/>
    <path clip-path="url(#p59da2b641f)" d="M 214.529606 208.524945 
L 214.271823 156.815239 
L 228.044674 160.905152 
L 227.94922 212.80596 
z
" style="fill:#5d282a;"/>
    <path clip-path="url(#p59da2b641f)" d="M 233.792858 224.756123 
L 233.798679 223.554849 
L 241.534056 215.942427 
L 241.523583 217.136342 
z
" style="fill:#13067a;"/>
    <path clip-path="url(#p59da2b641f)" d="M 220.111962 213.297197 
L 233.827095 217.689971 
L 241.585189 210.113692 
L 227.96209 205.808278 
z
" style="fill:#2b0376;"/>
    <path clip-path="url(#p59da2b641f)" d="M 214.529606 208.524945 
L 222.285805 201.224351 
L 222.193545 112.455764 
L 214.084164 119.171711 
z
" style="fill:#64680e;"/>
    <path clip-path="url(#p59da2b641f)" d="M 179.116083 165.270729 
L 192.596362 169.384243 
L 200.770547 162.289619 
L 187.377599 158.25794 
z
" style="fill:#98325f;"/>
    <path clip-path="url(#p59da2b641f)" d="M 201.262108 204.292457 
L 200.307799 122.748797 
L 214.12156 126.673221 
L 214.529606 208.524945 
z
" style="fill:#68590f;"/>
    <path clip-path="url(#p59da2b641f)" d="M 206.61873 215.971129 
L 206.148277 163.929823 
L 214.271823 156.815239 
L 214.529606 208.524945 
z
" style="fill:#c45559;"/>
    <path clip-path="url(#p59da2b641f)" d="M 233.792858 224.756123 
L 241.523583 217.136342 
L 241.585189 210.113692 
L 233.827095 217.689971 
z
" style="fill:#180240;"/>
    <path clip-path="url(#p59da2b641f)" d="M 233.792858 224.756123 
L 241.523583 217.136342 
L 255.255385 221.516949 
L 247.618703 229.225814 
z
" style="fill:#0c044a;"/>
    <path clip-path="url(#p59da2b641f)" d="M 201.262108 204.292457 
L 214.529606 208.524945 
L 214.084164 119.171711 
L 200.220362 115.277443 
z
" style="fill:#d4dc1e;"/>
    <path clip-path="url(#p59da2b641f)" d="M 193.264978 211.654059 
L 191.966679 129.575771 
L 200.307799 122.748797 
L 201.262108 204.292457 
z
" style="fill:#ddbe20;"/>
    <path clip-path="url(#p59da2b641f)" d="M 233.798679 223.554849 
L 247.633118 228.020266 
L 255.274337 220.318791 
L 241.534056 215.942427 
z
" style="fill:#11056a;"/>
    <path clip-path="url(#p59da2b641f)" d="M 220.127123 220.338193 
L 233.792858 224.756123 
L 233.827095 217.689971 
L 220.111962 213.297197 
z
" style="fill:#320488;"/>
    <path clip-path="url(#p59da2b641f)" d="M 214.290625 160.586658 
L 228.037711 164.691038 
L 235.891144 157.6123 
L 222.236297 153.589931 
z
" style="fill:#a44154;"/>
    <path clip-path="url(#p59da2b641f)" d="M 247.618703 229.225814 
L 255.255385 221.516949 
L 255.274337 220.318791 
L 247.633118 228.020266 
z
" style="fill:#09033a;"/>
    <path clip-path="url(#p59da2b641f)" d="M 208.463685 113.92668 
L 222.199061 117.763306 
L 230.124149 111.146404 
L 216.480629 107.386563 
z
" style="fill:#beac1c;"/>
    <path clip-path="url(#p59da2b641f)" d="M 220.127123 220.338193 
L 227.94922 212.80596 
L 228.044674 160.905152 
L 220.01465 168.104145 
z
" style="fill:#5d282a;"/>
    <path clip-path="url(#p59da2b641f)" d="M 233.792858 224.756123 
L 247.618703 229.225814 
L 247.633118 228.020266 
L 233.798679 223.554849 
z
" style="fill:#13067a;"/>
    <path clip-path="url(#p59da2b641f)" d="M 206.61873 215.971129 
L 214.529606 208.524945 
L 214.12156 126.673221 
L 205.873932 133.581925 
z
" style="fill:#68590f;"/>
    <path clip-path="url(#p59da2b641f)" d="M 206.61873 215.971129 
L 220.127123 220.338193 
L 220.01465 168.104145 
L 206.148277 163.929823 
z
" style="fill:#c45559;"/>
    <path clip-path="url(#p59da2b641f)" d="M 193.264978 211.654059 
L 206.61873 215.971129 
L 205.873932 133.581925 
L 191.966679 129.575771 
z
" style="fill:#ddbe20;"/>
    <path clip-path="url(#p59da2b641f)" d="M 206.148277 163.929823 
L 220.01465 168.104145 
L 228.044674 160.905152 
L 214.271823 156.815239 
z
" style="fill:#ab4a4d;"/>
    <path clip-path="url(#p59da2b641f)" d="M 200.220362 115.277443 
L 214.084164 119.171711 
L 222.193545 112.455764 
L 208.422991 108.640423 
z
" style="fill:#b8bf1a;"/>
    <path clip-path="url(#p59da2b641f)" d="M 191.966679 129.575771 
L 205.873932 133.581925 
L 214.12156 126.673221 
L 200.307799 122.748797 
z
" style="fill:#c0a51c;"/>
   </g>
   <g id="text_17">
    <!-- W35__H20__A340_bars_extracted.txt -->
    <g transform="translate(110.101875 28.56)scale(0.12 -0.12)">
     <defs>
      <path d="M 3.328125 72.90625 
L 13.28125 72.90625 
L 28.609375 11.28125 
L 43.890625 72.90625 
L 54.984375 72.90625 
L 70.3125 11.28125 
L 85.59375 72.90625 
L 95.609375 72.90625 
L 77.296875 0 
L 64.890625 0 
L 49.515625 63.28125 
L 33.984375 0 
L 21.578125 0 
z
" id="DejaVuSans-87"/>
      <path d="M 50.984375 -16.609375 
L 50.984375 -23.578125 
L -0.984375 -23.578125 
L -0.984375 -16.609375 
z
" id="DejaVuSans-95"/>
      <path d="M 9.8125 72.90625 
L 19.671875 72.90625 
L 19.671875 43.015625 
L 55.515625 43.015625 
L 55.515625 72.90625 
L 65.375 72.90625 
L 65.375 0 
L 55.515625 0 
L 55.515625 34.71875 
L 19.671875 34.71875 
L 19.671875 0 
L 9.8125 0 
z
" id="DejaVuSans-72"/>
      <path d="M 34.1875 63.1875 
L 20.796875 26.90625 
L 47.609375 26.90625 
z
M 28.609375 72.90625 
L 39.796875 72.90625 
L 67.578125 0 
L 57.328125 0 
L 50.6875 18.703125 
L 17.828125 18.703125 
L 11.1875 0 
L 0.78125 0 
z
" id="DejaVuSans-65"/>
      <path d="M 48.6875 27.296875 
Q 48.6875 37.203125 44.609375 42.84375 
Q 40.53125 48.484375 33.40625 48.484375 
Q 26.265625 48.484375 22.1875 42.84375 
Q 18.109375 37.203125 18.109375 27.296875 
Q 18.109375 17.390625 22.1875 11.75 
Q 26.265625 6.109375 33.40625 6.109375 
Q 40.53125 6.109375 44.609375 11.75 
Q 48.6875 17.390625 48.6875 27.296875 
z
M 18.109375 46.390625 
Q 20.953125 51.265625 25.265625 53.625 
Q 29.59375 56 35.59375 56 
Q 45.5625 56 51.78125 48.09375 
Q 58.015625 40.1875 58.015625 27.296875 
Q 58.015625 14.40625 51.78125 6.484375 
Q 45.5625 -1.421875 35.59375 -1.421875 
Q 29.59375 -1.421875 25.265625 0.953125 
Q 20.953125 3.328125 18.109375 8.203125 
L 18.109375 0 
L 9.078125 0 
L 9.078125 75.984375 
L 18.109375 75.984375 
z
" id="DejaVuSans-98"/>
      <path d="M 34.28125 27.484375 
Q 23.390625 27.484375 19.1875 25 
Q 14.984375 22.515625 14.984375 16.5 
Q 14.984375 11.71875 18.140625 8.90625 
Q 21.296875 6.109375 26.703125 6.109375 
Q 34.1875 6.109375 38.703125 11.40625 
Q 43.21875 16.703125 43.21875 25.484375 
L 43.21875 27.484375 
z
M 52.203125 31.203125 
L 52.203125 0 
L 43.21875 0 
L 43.21875 8.296875 
Q 40.140625 3.328125 35.546875 0.953125 
Q 30.953125 -1.421875 24.3125 -1.421875 
Q 15.921875 -1.421875 10.953125 3.296875 
Q 6 8.015625 6 15.921875 
Q 6 25.140625 12.171875 29.828125 
Q 18.359375 34.515625 30.609375 34.515625 
L 43.21875 34.515625 
L 43.21875 35.40625 
Q 43.21875 41.609375 39.140625 45 
Q 35.0625 48.390625 27.6875 48.390625 
Q 23 48.390625 18.546875 47.265625 
Q 14.109375 46.140625 10.015625 43.890625 
L 10.015625 52.203125 
Q 14.9375 54.109375 19.578125 55.046875 
Q 24.21875 56 28.609375 56 
Q 40.484375 56 46.34375 49.84375 
Q 52.203125 43.703125 52.203125 31.203125 
z
" id="DejaVuSans-97"/>
      <path d="M 41.109375 46.296875 
Q 39.59375 47.171875 37.8125 47.578125 
Q 36.03125 48 33.890625 48 
Q 26.265625 48 22.1875 43.046875 
Q 18.109375 38.09375 18.109375 28.8125 
L 18.109375 0 
L 9.078125 0 
L 9.078125 54.6875 
L 18.109375 54.6875 
L 18.109375 46.1875 
Q 20.953125 51.171875 25.484375 53.578125 
Q 30.03125 56 36.53125 56 
Q 37.453125 56 38.578125 55.875 
Q 39.703125 55.765625 41.0625 55.515625 
z
" id="DejaVuSans-114"/>
      <path d="M 44.28125 53.078125 
L 44.28125 44.578125 
Q 40.484375 46.53125 36.375 47.5 
Q 32.28125 48.484375 27.875 48.484375 
Q 21.1875 48.484375 17.84375 46.4375 
Q 14.5 44.390625 14.5 40.28125 
Q 14.5 37.15625 16.890625 35.375 
Q 19.28125 33.59375 26.515625 31.984375 
L 29.59375 31.296875 
Q 39.15625 29.25 43.1875 25.515625 
Q 47.21875 21.78125 47.21875 15.09375 
Q 47.21875 7.46875 41.1875 3.015625 
Q 35.15625 -1.421875 24.609375 -1.421875 
Q 20.21875 -1.421875 15.453125 -0.5625 
Q 10.6875 0.296875 5.421875 2 
L 5.421875 11.28125 
Q 10.40625 8.6875 15.234375 7.390625 
Q 20.0625 6.109375 24.8125 6.109375 
Q 31.15625 6.109375 34.5625 8.28125 
Q 37.984375 10.453125 37.984375 14.40625 
Q 37.984375 18.0625 35.515625 20.015625 
Q 33.0625 21.96875 24.703125 23.78125 
L 21.578125 24.515625 
Q 13.234375 26.265625 9.515625 29.90625 
Q 5.8125 33.546875 5.8125 39.890625 
Q 5.8125 47.609375 11.28125 51.796875 
Q 16.75 56 26.8125 56 
Q 31.78125 56 36.171875 55.265625 
Q 40.578125 54.546875 44.28125 53.078125 
z
" id="DejaVuSans-115"/>
      <path d="M 56.203125 29.59375 
L 56.203125 25.203125 
L 14.890625 25.203125 
Q 15.484375 15.921875 20.484375 11.0625 
Q 25.484375 6.203125 34.421875 6.203125 
Q 39.59375 6.203125 44.453125 7.46875 
Q 49.3125 8.734375 54.109375 11.28125 
L 54.109375 2.78125 
Q 49.265625 0.734375 44.1875 -0.34375 
Q 39.109375 -1.421875 33.890625 -1.421875 
Q 20.796875 -1.421875 13.15625 6.1875 
Q 5.515625 13.8125 5.515625 26.8125 
Q 5.515625 40.234375 12.765625 48.109375 
Q 20.015625 56 32.328125 56 
Q 43.359375 56 49.78125 48.890625 
Q 56.203125 41.796875 56.203125 29.59375 
z
M 47.21875 32.234375 
Q 47.125 39.59375 43.09375 43.984375 
Q 39.0625 48.390625 32.421875 48.390625 
Q 24.90625 48.390625 20.390625 44.140625 
Q 15.875 39.890625 15.1875 32.171875 
z
" id="DejaVuSans-101"/>
      <path d="M 54.890625 54.6875 
L 35.109375 28.078125 
L 55.90625 0 
L 45.3125 0 
L 29.390625 21.484375 
L 13.484375 0 
L 2.875 0 
L 24.125 28.609375 
L 4.6875 54.6875 
L 15.28125 54.6875 
L 29.78125 35.203125 
L 44.28125 54.6875 
z
" id="DejaVuSans-120"/>
      <path d="M 18.3125 70.21875 
L 18.3125 54.6875 
L 36.8125 54.6875 
L 36.8125 47.703125 
L 18.3125 47.703125 
L 18.3125 18.015625 
Q 18.3125 11.328125 20.140625 9.421875 
Q 21.96875 7.515625 27.59375 7.515625 
L 36.8125 7.515625 
L 36.8125 0 
L 27.59375 0 
Q 17.1875 0 13.234375 3.875 
Q 9.28125 7.765625 9.28125 18.015625 
L 9.28125 47.703125 
L 2.6875 47.703125 
L 2.6875 54.6875 
L 9.28125 54.6875 
L 9.28125 70.21875 
z
" id="DejaVuSans-116"/>
      <path d="M 48.78125 52.59375 
L 48.78125 44.1875 
Q 44.96875 46.296875 41.140625 47.34375 
Q 37.3125 48.390625 33.40625 48.390625 
Q 24.65625 48.390625 19.8125 42.84375 
Q 14.984375 37.3125 14.984375 27.296875 
Q 14.984375 17.28125 19.8125 11.734375 
Q 24.65625 6.203125 33.40625 6.203125 
Q 37.3125 6.203125 41.140625 7.25 
Q 44.96875 8.296875 48.78125 10.40625 
L 48.78125 2.09375 
Q 45.015625 0.34375 40.984375 -0.53125 
Q 36.96875 -1.421875 32.421875 -1.421875 
Q 20.0625 -1.421875 12.78125 6.34375 
Q 5.515625 14.109375 5.515625 27.296875 
Q 5.515625 40.671875 12.859375 48.328125 
Q 20.21875 56 33.015625 56 
Q 37.15625 56 41.109375 55.140625 
Q 45.0625 54.296875 48.78125 52.59375 
z
" id="DejaVuSans-99"/>
      <path d="M 45.40625 46.390625 
L 45.40625 75.984375 
L 54.390625 75.984375 
L 54.390625 0 
L 45.40625 0 
L 45.40625 8.203125 
Q 42.578125 3.328125 38.25 0.953125 
Q 33.9375 -1.421875 27.875 -1.421875 
Q 17.96875 -1.421875 11.734375 6.484375 
Q 5.515625 14.40625 5.515625 27.296875 
Q 5.515625 40.1875 11.734375 48.09375 
Q 17.96875 56 27.875 56 
Q 33.9375 56 38.25 53.625 
Q 42.578125 51.265625 45.40625 46.390625 
z
M 14.796875 27.296875 
Q 14.796875 17.390625 18.875 11.75 
Q 22.953125 6.109375 30.078125 6.109375 
Q 37.203125 6.109375 41.296875 11.75 
Q 45.40625 17.390625 45.40625 27.296875 
Q 45.40625 37.203125 41.296875 42.84375 
Q 37.203125 48.484375 30.078125 48.484375 
Q 22.953125 48.484375 18.875 42.84375 
Q 14.796875 37.203125 14.796875 27.296875 
z
" id="DejaVuSans-100"/>
      <path d="M 10.6875 12.40625 
L 21 12.40625 
L 21 0 
L 10.6875 0 
z
" id="DejaVuSans-46"/>
     </defs>
     <use xlink:href="#DejaVuSans-87"/>
     <use x="98.876953" xlink:href="#DejaVuSans-51"/>
     <use x="162.5" xlink:href="#DejaVuSans-53"/>
     <use x="226.123047" xlink:href="#DejaVuSans-95"/>
     <use x="276.123047" xlink:href="#DejaVuSans-95"/>
     <use x="326.123047" xlink:href="#DejaVuSans-72"/>
     <use x="401.318359" xlink:href="#DejaVuSans-50"/>
     <use x="464.941406" xlink:href="#DejaVuSans-48"/>
     <use x="528.564453" xlink:href="#DejaVuSans-95"/>
     <use x="578.564453" xlink:href="#DejaVuSans-95"/>
     <use x="628.564453" xlink:href="#DejaVuSans-65"/>
     <use x="696.972656" xlink:href="#DejaVuSans-51"/>
     <use x="760.595703" xlink:href="#DejaVuSans-52"/>
     <use x="824.21875" xlink:href="#DejaVuSans-48"/>
     <use x="887.841797" xlink:href="#DejaVuSans-95"/>
     <use x="937.841797" xlink:href="#DejaVuSans-98"/>
     <use x="1001.318359" xlink:href="#DejaVuSans-97"/>
     <use x="1062.597656" xlink:href="#DejaVuSans-114"/>
     <use x="1103.710938" xlink:href="#DejaVuSans-115"/>
     <use x="1155.810547" xlink:href="#DejaVuSans-95"/>
     <use x="1205.810547" xlink:href="#DejaVuSans-101"/>
     <use x="1265.583984" xlink:href="#DejaVuSans-120"/>
     <use x="1324.763672" xlink:href="#DejaVuSans-116"/>
     <use x="1363.972656" xlink:href="#DejaVuSans-114"/>
     <use x="1405.085938" xlink:href="#DejaVuSans-97"/>
     <use x="1466.365234" xlink:href="#DejaVuSans-99"/>
     <use x="1521.345703" xlink:href="#DejaVuSans-116"/>
     <use x="1560.554688" xlink:href="#DejaVuSans-101"/>
     <use x="1622.078125" xlink:href="#DejaVuSans-100"/>
     <use x="1685.554688" xlink:href="#DejaVuSans-46"/>
     <use x="1717.341797" xlink:href="#DejaVuSans-116"/>
     <use x="1756.550781" xlink:href="#DejaVuSans-120"/>
     <use x="1815.730469" xlink:href="#DejaVuSans-116"/>
    </g>
   </g>
  </g>
 </g>
 <defs>
  <clipPath id="p59da2b641f">
   <rect height="217.44" width="217.44" x="112.68" y="34.56"/>
  </clipPath>
 </defs>
</svg>
