<?xml version="1.0" encoding="utf-8" standalone="no"?>
<!DOCTYPE svg PUBLIC "-//W3C//DTD SVG 1.1//EN"
  "http://www.w3.org/Graphics/SVG/1.1/DTD/svg11.dtd">
<!-- Created with matplotlib (https://matplotlib.org/) -->
<svg height="288pt" version="1.1" viewBox="0 0 432 288" width="432pt" xmlns="http://www.w3.org/2000/svg" xmlns:xlink="http://www.w3.org/1999/xlink">
 <metadata>
  <rdf:RDF xmlns:cc="http://creativecommons.org/ns#" xmlns:dc="http://purl.org/dc/elements/1.1/" xmlns:rdf="http://www.w3.org/1999/02/22-rdf-syntax-ns#">
   <cc:Work>
    <dc:type rdf:resource="http://purl.org/dc/dcmitype/StillImage"/>
    <dc:date>2021-06-13T21:59:10.741801</dc:date>
    <dc:format>image/svg+xml</dc:format>
    <dc:creator>
     <cc:Agent>
      <dc:title>Matplotlib v3.3.4, https://matplotlib.org/</dc:title>
     </cc:Agent>
    </dc:creator>
   </cc:Work>
  </rdf:RDF>
 </metadata>
 <defs>
  <style type="text/css">*{stroke-linecap:butt;stroke-linejoin:round;}</style>
 </defs>
 <g id="figure_1">
  <g id="patch_1">
   <path d="M 0 288 
L 432 288 
L 432 0 
L 0 0 
z
" style="fill:#ffffff;"/>
  </g>
  <g id="patch_2">
   <path d="M 112.68 252 
L 330.12 252 
L 330.12 34.56 
L 112.68 34.56 
z
" style="fill:#ffffff;"/>
  </g>
  <g id="pane3d_1">
   <g id="patch_3">
    <path d="M 129.09822 198.386264 
L 200.904009 138.197228 
L 199.90584 51.393878 
L 124.663773 106.302111 
" style="fill:#f2f2f2;opacity:0.5;stroke:#f2f2f2;stroke-linejoin:miter;"/>
   </g>
  </g>
  <g id="pane3d_2">
   <g id="patch_4">
    <path d="M 200.904009 138.197228 
L 316.12668 171.68791 
L 320.238571 81.894718 
L 199.90584 51.393878 
" style="fill:#e6e6e6;opacity:0.5;stroke:#e6e6e6;stroke-linejoin:miter;"/>
   </g>
  </g>
  <g id="pane3d_3">
   <g id="patch_5">
    <path d="M 129.09822 198.386264 
L 251.239879 238.27773 
L 316.12668 171.68791 
L 200.904009 138.197228 
" style="fill:#ececec;opacity:0.5;stroke:#ececec;stroke-linejoin:miter;"/>
   </g>
  </g>
  <g id="axis3d_1">
   <g id="line2d_1">
    <path d="M 129.09822 198.386264 
L 251.239879 238.27773 
" style="fill:none;stroke:#000000;stroke-linecap:square;stroke-width:0.8;"/>
   </g>
   <g id="Line3DCollection_1">
    <path d="M 136.495759 200.802301 
L 207.911499 140.234029 
L 207.209612 53.245171 
" style="fill:none;stroke:#b0b0b0;stroke-width:0.8;"/>
    <path d="M 162.23134 209.207541 
L 232.260894 147.311436 
L 232.60309 59.681678 
" style="fill:none;stroke:#b0b0b0;stroke-width:0.8;"/>
    <path d="M 188.559037 217.806167 
L 257.123632 154.538053 
L 258.555303 66.259807 
" style="fill:none;stroke:#b0b0b0;stroke-width:0.8;"/>
    <path d="M 215.499525 226.604931 
L 282.516121 161.918647 
L 285.084894 72.984285 
" style="fill:none;stroke:#b0b0b0;stroke-width:0.8;"/>
    <path d="M 243.074449 235.610901 
L 308.455474 169.458193 
L 312.21135 79.860051 
" style="fill:none;stroke:#b0b0b0;stroke-width:0.8;"/>
   </g>
   <g id="xtick_1">
    <g id="line2d_2">
     <path d="M 137.117644 200.274876 
L 135.249322 201.859414 
" style="fill:none;stroke:#000000;stroke-linecap:square;stroke-width:0.8;"/>
    </g>
    <g id="text_1">
     <!-- 0 -->
     <g transform="translate(125.77919 224.124533)scale(0.1 -0.1)">
      <defs>
       <path d="M 31.78125 66.40625 
Q 24.171875 66.40625 20.328125 58.90625 
Q 16.5 51.421875 16.5 36.375 
Q 16.5 21.390625 20.328125 13.890625 
Q 24.171875 6.390625 31.78125 6.390625 
Q 39.453125 6.390625 43.28125 13.890625 
Q 47.125 21.390625 47.125 36.375 
Q 47.125 51.421875 43.28125 58.90625 
Q 39.453125 66.40625 31.78125 66.40625 
z
M 31.78125 74.21875 
Q 44.046875 74.21875 50.515625 64.515625 
Q 56.984375 54.828125 56.984375 36.375 
Q 56.984375 17.96875 50.515625 8.265625 
Q 44.046875 -1.421875 31.78125 -1.421875 
Q 19.53125 -1.421875 13.0625 8.265625 
Q 6.59375 17.96875 6.59375 36.375 
Q 6.59375 54.828125 13.0625 64.515625 
Q 19.53125 74.21875 31.78125 74.21875 
z
" id="DejaVuSans-48"/>
      </defs>
      <use xlink:href="#DejaVuSans-48"/>
     </g>
    </g>
   </g>
   <g id="xtick_2">
    <g id="line2d_3">
     <path d="M 162.841716 208.668056 
L 161.007937 210.288854 
" style="fill:none;stroke:#000000;stroke-linecap:square;stroke-width:0.8;"/>
    </g>
    <g id="text_2">
     <!-- 2 -->
     <g transform="translate(151.547192 232.748132)scale(0.1 -0.1)">
      <defs>
       <path d="M 19.1875 8.296875 
L 53.609375 8.296875 
L 53.609375 0 
L 7.328125 0 
L 7.328125 8.296875 
Q 12.9375 14.109375 22.625 23.890625 
Q 32.328125 33.6875 34.8125 36.53125 
Q 39.546875 41.84375 41.421875 45.53125 
Q 43.3125 49.21875 43.3125 52.78125 
Q 43.3125 58.59375 39.234375 62.25 
Q 35.15625 65.921875 28.609375 65.921875 
Q 23.96875 65.921875 18.8125 64.3125 
Q 13.671875 62.703125 7.8125 59.421875 
L 7.8125 69.390625 
Q 13.765625 71.78125 18.9375 73 
Q 24.125 74.21875 28.421875 74.21875 
Q 39.75 74.21875 46.484375 68.546875 
Q 53.21875 62.890625 53.21875 53.421875 
Q 53.21875 48.921875 51.53125 44.890625 
Q 49.859375 40.875 45.40625 35.40625 
Q 44.1875 33.984375 37.640625 27.21875 
Q 31.109375 20.453125 19.1875 8.296875 
z
" id="DejaVuSans-50"/>
      </defs>
      <use xlink:href="#DejaVuSans-50"/>
     </g>
    </g>
   </g>
   <g id="xtick_3">
    <g id="line2d_4">
     <path d="M 189.15721 217.254202 
L 187.360066 218.91252 
" style="fill:none;stroke:#000000;stroke-linecap:square;stroke-width:0.8;"/>
    </g>
    <g id="text_3">
     <!-- 4 -->
     <g transform="translate(177.91082 241.571064)scale(0.1 -0.1)">
      <defs>
       <path d="M 37.796875 64.3125 
L 12.890625 25.390625 
L 37.796875 25.390625 
z
M 35.203125 72.90625 
L 47.609375 72.90625 
L 47.609375 25.390625 
L 58.015625 25.390625 
L 58.015625 17.1875 
L 47.609375 17.1875 
L 47.609375 0 
L 37.796875 0 
L 37.796875 17.1875 
L 4.890625 17.1875 
L 4.890625 26.703125 
z
" id="DejaVuSans-52"/>
      </defs>
      <use xlink:href="#DejaVuSans-52"/>
     </g>
    </g>
   </g>
   <g id="xtick_4">
    <g id="line2d_5">
     <path d="M 216.084757 226.040048 
L 214.326462 227.737204 
" style="fill:none;stroke:#000000;stroke-linecap:square;stroke-width:0.8;"/>
    </g>
    <g id="text_4">
     <!-- 6 -->
     <g transform="translate(204.890965 250.600322)scale(0.1 -0.1)">
      <defs>
       <path d="M 33.015625 40.375 
Q 26.375 40.375 22.484375 35.828125 
Q 18.609375 31.296875 18.609375 23.390625 
Q 18.609375 15.53125 22.484375 10.953125 
Q 26.375 6.390625 33.015625 6.390625 
Q 39.65625 6.390625 43.53125 10.953125 
Q 47.40625 15.53125 47.40625 23.390625 
Q 47.40625 31.296875 43.53125 35.828125 
Q 39.65625 40.375 33.015625 40.375 
z
M 52.59375 71.296875 
L 52.59375 62.3125 
Q 48.875 64.0625 45.09375 64.984375 
Q 41.3125 65.921875 37.59375 65.921875 
Q 27.828125 65.921875 22.671875 59.328125 
Q 17.53125 52.734375 16.796875 39.40625 
Q 19.671875 43.65625 24.015625 45.921875 
Q 28.375 48.1875 33.59375 48.1875 
Q 44.578125 48.1875 50.953125 41.515625 
Q 57.328125 34.859375 57.328125 23.390625 
Q 57.328125 12.15625 50.6875 5.359375 
Q 44.046875 -1.421875 33.015625 -1.421875 
Q 20.359375 -1.421875 13.671875 8.265625 
Q 6.984375 17.96875 6.984375 36.375 
Q 6.984375 53.65625 15.1875 63.9375 
Q 23.390625 74.21875 37.203125 74.21875 
Q 40.921875 74.21875 44.703125 73.484375 
Q 48.484375 72.75 52.59375 71.296875 
z
" id="DejaVuSans-54"/>
      </defs>
      <use xlink:href="#DejaVuSans-54"/>
     </g>
    </g>
   </g>
   <g id="xtick_5">
    <g id="line2d_6">
     <path d="M 243.645962 235.032643 
L 241.928856 236.770015 
" style="fill:none;stroke:#000000;stroke-linecap:square;stroke-width:0.8;"/>
    </g>
    <g id="text_5">
     <!-- 8 -->
     <g transform="translate(232.509511 259.84323)scale(0.1 -0.1)">
      <defs>
       <path d="M 31.78125 34.625 
Q 24.75 34.625 20.71875 30.859375 
Q 16.703125 27.09375 16.703125 20.515625 
Q 16.703125 13.921875 20.71875 10.15625 
Q 24.75 6.390625 31.78125 6.390625 
Q 38.8125 6.390625 42.859375 10.171875 
Q 46.921875 13.96875 46.921875 20.515625 
Q 46.921875 27.09375 42.890625 30.859375 
Q 38.875 34.625 31.78125 34.625 
z
M 21.921875 38.8125 
Q 15.578125 40.375 12.03125 44.71875 
Q 8.5 49.078125 8.5 55.328125 
Q 8.5 64.0625 14.71875 69.140625 
Q 20.953125 74.21875 31.78125 74.21875 
Q 42.671875 74.21875 48.875 69.140625 
Q 55.078125 64.0625 55.078125 55.328125 
Q 55.078125 49.078125 51.53125 44.71875 
Q 48 40.375 41.703125 38.8125 
Q 48.828125 37.15625 52.796875 32.3125 
Q 56.78125 27.484375 56.78125 20.515625 
Q 56.78125 9.90625 50.3125 4.234375 
Q 43.84375 -1.421875 31.78125 -1.421875 
Q 19.734375 -1.421875 13.25 4.234375 
Q 6.78125 9.90625 6.78125 20.515625 
Q 6.78125 27.484375 10.78125 32.3125 
Q 14.796875 37.15625 21.921875 38.8125 
z
M 18.3125 54.390625 
Q 18.3125 48.734375 21.84375 45.5625 
Q 25.390625 42.390625 31.78125 42.390625 
Q 38.140625 42.390625 41.71875 45.5625 
Q 45.3125 48.734375 45.3125 54.390625 
Q 45.3125 60.0625 41.71875 63.234375 
Q 38.140625 66.40625 31.78125 66.40625 
Q 25.390625 66.40625 21.84375 63.234375 
Q 18.3125 60.0625 18.3125 54.390625 
z
" id="DejaVuSans-56"/>
      </defs>
      <use xlink:href="#DejaVuSans-56"/>
     </g>
    </g>
   </g>
  </g>
  <g id="axis3d_2">
   <g id="line2d_7">
    <path d="M 316.12668 171.68791 
L 251.239879 238.27773 
" style="fill:none;stroke:#000000;stroke-linecap:square;stroke-width:0.8;"/>
   </g>
   <g id="Line3DCollection_2">
    <path d="M 129.866948 102.505071 
L 134.046245 194.238731 
L 255.729543 233.67023 
" style="fill:none;stroke:#b0b0b0;stroke-width:0.8;"/>
    <path d="M 147.250212 89.819556 
L 150.59591 180.366474 
L 270.72626 218.279909 
" style="fill:none;stroke:#b0b0b0;stroke-width:0.8;"/>
    <path d="M 163.958537 77.626582 
L 166.530371 167.009893 
L 285.136664 203.491289 
" style="fill:none;stroke:#b0b0b0;stroke-width:0.8;"/>
    <path d="M 180.030483 65.898008 
L 181.883306 154.140758 
L 298.994481 189.269761 
" style="fill:none;stroke:#b0b0b0;stroke-width:0.8;"/>
    <path d="M 195.501727 54.607799 
L 196.68598 141.732864 
L 312.330896 175.583317 
" style="fill:none;stroke:#b0b0b0;stroke-width:0.8;"/>
   </g>
   <g id="xtick_6">
    <g id="line2d_8">
     <path d="M 254.704115 233.337939 
L 257.783053 234.33567 
" style="fill:none;stroke:#000000;stroke-linecap:square;stroke-width:0.8;"/>
    </g>
    <g id="text_6">
     <!-- 0 -->
     <g transform="translate(265.430654 254.693759)scale(0.1 -0.1)">
      <use xlink:href="#DejaVuSans-48"/>
     </g>
    </g>
   </g>
   <g id="xtick_7">
    <g id="line2d_9">
     <path d="M 269.71494 217.960734 
L 272.751463 218.919068 
" style="fill:none;stroke:#000000;stroke-linecap:square;stroke-width:0.8;"/>
    </g>
    <g id="text_7">
     <!-- 2 -->
     <g transform="translate(280.181112 239.024526)scale(0.1 -0.1)">
      <use xlink:href="#DejaVuSans-50"/>
     </g>
    </g>
   </g>
   <g id="xtick_8">
    <g id="line2d_10">
     <path d="M 284.139145 203.184468 
L 287.134182 204.105694 
" style="fill:none;stroke:#000000;stroke-linecap:square;stroke-width:0.8;"/>
    </g>
    <g id="text_8">
     <!-- 4 -->
     <g transform="translate(294.35448 223.968328)scale(0.1 -0.1)">
      <use xlink:href="#DejaVuSans-52"/>
     </g>
    </g>
   </g>
   <g id="xtick_9">
    <g id="line2d_11">
     <path d="M 298.010457 188.97459 
L 300.964927 189.860821 
" style="fill:none;stroke:#000000;stroke-linecap:square;stroke-width:0.8;"/>
    </g>
    <g id="text_9">
     <!-- 6 -->
     <g transform="translate(307.983974 209.489882)scale(0.1 -0.1)">
      <use xlink:href="#DejaVuSans-54"/>
     </g>
    </g>
   </g>
   <g id="xtick_10">
    <g id="line2d_12">
     <path d="M 311.360068 175.299146 
L 314.274875 176.15234 
" style="fill:none;stroke:#000000;stroke-linecap:square;stroke-width:0.8;"/>
    </g>
    <g id="text_10">
     <!-- 8 -->
     <g transform="translate(321.10031 195.556556)scale(0.1 -0.1)">
      <use xlink:href="#DejaVuSans-56"/>
     </g>
    </g>
   </g>
  </g>
  <g id="axis3d_3">
   <g id="line2d_13">
    <path d="M 316.12668 171.68791 
L 320.238571 81.894718 
" style="fill:none;stroke:#000000;stroke-linecap:square;stroke-width:0.8;"/>
   </g>
   <g id="Line3DCollection_3">
    <path d="M 316.205459 169.967571 
L 200.884845 136.530725 
L 129.013401 196.624949 
" style="fill:none;stroke:#b0b0b0;stroke-width:0.8;"/>
    <path d="M 316.932253 154.096248 
L 200.708122 121.16243 
L 128.230631 180.370219 
" style="fill:none;stroke:#b0b0b0;stroke-width:0.8;"/>
    <path d="M 317.670639 137.971794 
L 200.528716 105.560775 
L 127.434898 163.846325 
" style="fill:none;stroke:#b0b0b0;stroke-width:0.8;"/>
    <path d="M 318.420896 121.588105 
L 200.346564 89.720405 
L 126.62588 147.046524 
" style="fill:none;stroke:#b0b0b0;stroke-width:0.8;"/>
    <path d="M 319.183312 104.938879 
L 200.161604 73.635798 
L 125.803238 129.963848 
" style="fill:none;stroke:#b0b0b0;stroke-width:0.8;"/>
    <path d="M 319.958186 88.017609 
L 199.97377 57.301262 
L 124.966628 112.591092 
" style="fill:none;stroke:#b0b0b0;stroke-width:0.8;"/>
   </g>
   <g id="xtick_11">
    <g id="line2d_14">
     <path d="M 315.237563 169.686933 
L 318.143556 170.529516 
" style="fill:none;stroke:#000000;stroke-linecap:square;stroke-width:0.8;"/>
    </g>
    <g id="text_11">
     <!-- 0 -->
     <g transform="translate(331.275915 174.966846)scale(0.1 -0.1)">
      <use xlink:href="#DejaVuSans-48"/>
     </g>
    </g>
   </g>
   <g id="xtick_12">
    <g id="line2d_15">
     <path d="M 315.956412 153.819729 
L 318.886277 154.649949 
" style="fill:none;stroke:#000000;stroke-linecap:square;stroke-width:0.8;"/>
    </g>
    <g id="text_12">
     <!-- 10000 -->
     <g transform="translate(319.418882 159.133743)scale(0.1 -0.1)">
      <defs>
       <path d="M 12.40625 8.296875 
L 28.515625 8.296875 
L 28.515625 63.921875 
L 10.984375 60.40625 
L 10.984375 69.390625 
L 28.421875 72.90625 
L 38.28125 72.90625 
L 38.28125 8.296875 
L 54.390625 8.296875 
L 54.390625 0 
L 12.40625 0 
z
" id="DejaVuSans-49"/>
      </defs>
      <use xlink:href="#DejaVuSans-49"/>
      <use x="63.623047" xlink:href="#DejaVuSans-48"/>
      <use x="127.246094" xlink:href="#DejaVuSans-48"/>
      <use x="190.869141" xlink:href="#DejaVuSans-48"/>
      <use x="254.492188" xlink:href="#DejaVuSans-48"/>
     </g>
    </g>
   </g>
   <g id="xtick_13">
    <g id="line2d_16">
     <path d="M 316.686722 137.699562 
L 319.640852 138.516916 
" style="fill:none;stroke:#000000;stroke-linecap:square;stroke-width:0.8;"/>
    </g>
    <g id="text_13">
     <!-- 20000 -->
     <g transform="translate(320.300641 143.04906)scale(0.1 -0.1)">
      <use xlink:href="#DejaVuSans-50"/>
      <use x="63.623047" xlink:href="#DejaVuSans-48"/>
      <use x="127.246094" xlink:href="#DejaVuSans-48"/>
      <use x="190.869141" xlink:href="#DejaVuSans-48"/>
      <use x="254.492188" xlink:href="#DejaVuSans-48"/>
     </g>
    </g>
   </g>
   <g id="xtick_14">
    <g id="line2d_17">
     <path d="M 317.428768 121.320335 
L 320.407569 122.124299 
" style="fill:none;stroke:#000000;stroke-linecap:square;stroke-width:0.8;"/>
    </g>
    <g id="text_14">
     <!-- 30000 -->
     <g transform="translate(321.196523 126.706754)scale(0.1 -0.1)">
      <defs>
       <path d="M 40.578125 39.3125 
Q 47.65625 37.796875 51.625 33 
Q 55.609375 28.21875 55.609375 21.1875 
Q 55.609375 10.40625 48.1875 4.484375 
Q 40.765625 -1.421875 27.09375 -1.421875 
Q 22.515625 -1.421875 17.65625 -0.515625 
Q 12.796875 0.390625 7.625 2.203125 
L 7.625 11.71875 
Q 11.71875 9.328125 16.59375 8.109375 
Q 21.484375 6.890625 26.8125 6.890625 
Q 36.078125 6.890625 40.9375 10.546875 
Q 45.796875 14.203125 45.796875 21.1875 
Q 45.796875 27.640625 41.28125 31.265625 
Q 36.765625 34.90625 28.71875 34.90625 
L 20.21875 34.90625 
L 20.21875 43.015625 
L 29.109375 43.015625 
Q 36.375 43.015625 40.234375 45.921875 
Q 44.09375 48.828125 44.09375 54.296875 
Q 44.09375 59.90625 40.109375 62.90625 
Q 36.140625 65.921875 28.71875 65.921875 
Q 24.65625 65.921875 20.015625 65.03125 
Q 15.375 64.15625 9.8125 62.3125 
L 9.8125 71.09375 
Q 15.4375 72.65625 20.34375 73.4375 
Q 25.25 74.21875 29.59375 74.21875 
Q 40.828125 74.21875 47.359375 69.109375 
Q 53.90625 64.015625 53.90625 55.328125 
Q 53.90625 49.265625 50.4375 45.09375 
Q 46.96875 40.921875 40.578125 39.3125 
z
" id="DejaVuSans-51"/>
      </defs>
      <use xlink:href="#DejaVuSans-51"/>
      <use x="63.623047" xlink:href="#DejaVuSans-48"/>
      <use x="127.246094" xlink:href="#DejaVuSans-48"/>
      <use x="190.869141" xlink:href="#DejaVuSans-48"/>
      <use x="254.492188" xlink:href="#DejaVuSans-48"/>
     </g>
    </g>
   </g>
   <g id="xtick_15">
    <g id="line2d_18">
     <path d="M 318.182836 104.675751 
L 321.186723 105.465783 
" style="fill:none;stroke:#000000;stroke-linecap:square;stroke-width:0.8;"/>
    </g>
    <g id="text_15">
     <!-- 40000 -->
     <g transform="translate(322.10687 110.100585)scale(0.1 -0.1)">
      <use xlink:href="#DejaVuSans-52"/>
      <use x="63.623047" xlink:href="#DejaVuSans-48"/>
      <use x="127.246094" xlink:href="#DejaVuSans-48"/>
      <use x="190.869141" xlink:href="#DejaVuSans-48"/>
      <use x="254.492188" xlink:href="#DejaVuSans-48"/>
     </g>
    </g>
   </g>
   <g id="xtick_16">
    <g id="line2d_19">
     <path d="M 318.94922 87.759311 
L 321.978618 88.534845 
" style="fill:none;stroke:#000000;stroke-linecap:square;stroke-width:0.8;"/>
    </g>
    <g id="text_16">
     <!-- 50000 -->
     <g transform="translate(323.032035 93.224111)scale(0.1 -0.1)">
      <defs>
       <path d="M 10.796875 72.90625 
L 49.515625 72.90625 
L 49.515625 64.59375 
L 19.828125 64.59375 
L 19.828125 46.734375 
Q 21.96875 47.46875 24.109375 47.828125 
Q 26.265625 48.1875 28.421875 48.1875 
Q 40.625 48.1875 47.75 41.5 
Q 54.890625 34.8125 54.890625 23.390625 
Q 54.890625 11.625 47.5625 5.09375 
Q 40.234375 -1.421875 26.90625 -1.421875 
Q 22.3125 -1.421875 17.546875 -0.640625 
Q 12.796875 0.140625 7.71875 1.703125 
L 7.71875 11.625 
Q 12.109375 9.234375 16.796875 8.0625 
Q 21.484375 6.890625 26.703125 6.890625 
Q 35.15625 6.890625 40.078125 11.328125 
Q 45.015625 15.765625 45.015625 23.390625 
Q 45.015625 31 40.078125 35.4375 
Q 35.15625 39.890625 26.703125 39.890625 
Q 22.75 39.890625 18.8125 39.015625 
Q 14.890625 38.140625 10.796875 36.28125 
z
" id="DejaVuSans-53"/>
      </defs>
      <use xlink:href="#DejaVuSans-53"/>
      <use x="63.623047" xlink:href="#DejaVuSans-48"/>
      <use x="127.246094" xlink:href="#DejaVuSans-48"/>
      <use x="190.869141" xlink:href="#DejaVuSans-48"/>
      <use x="254.492188" xlink:href="#DejaVuSans-48"/>
     </g>
    </g>
   </g>
  </g>
  <g id="axes_1">
   <g id="Poly3DCollection_1">
    <path clip-path="url(#p5b3b6592b8)" d="M 203.700438 142.115361 
L 203.699804 142.052902 
L 215.86364 145.604335 
L 215.863902 145.66701 
z
" style="fill:#050338;"/>
    <path clip-path="url(#p5b3b6592b8)" d="M 196.401162 148.290596 
L 196.400296 148.227762 
L 203.699804 142.052902 
L 203.700438 142.115361 
z
" style="fill:#0b0777;"/>
    <path clip-path="url(#p5b3b6592b8)" d="M 196.401162 148.290596 
L 203.700438 142.115361 
L 215.863902 145.66701 
L 208.637156 151.907182 
z
" style="fill:#070448;"/>
    <path clip-path="url(#p5b3b6592b8)" d="M 196.400296 148.227762 
L 208.636667 151.844129 
L 215.86364 145.604335 
L 203.699804 142.052902 
z
" style="fill:#0a0667;"/>
    <path clip-path="url(#p5b3b6592b8)" d="M 215.863902 145.66701 
L 215.863172 145.492113 
L 228.155355 149.08043 
L 228.155024 149.255935 
z
" style="fill:#050338;"/>
    <path clip-path="url(#p5b3b6592b8)" d="M 208.637156 151.907182 
L 215.863902 145.66701 
L 215.86364 145.604335 
L 208.636667 151.844129 
z
" style="fill:#050338;"/>
    <path clip-path="url(#p5b3b6592b8)" d="M 208.637156 151.907182 
L 208.635791 151.731231 
L 215.863172 145.492113 
L 215.863902 145.66701 
z
" style="fill:#0b0777;"/>
    <path clip-path="url(#p5b3b6592b8)" d="M 196.401162 148.290596 
L 208.637156 151.907182 
L 208.636667 151.844129 
L 196.400296 148.227762 
z
" style="fill:#0b0777;"/>
    <path clip-path="url(#p5b3b6592b8)" d="M 196.401162 148.290596 
L 196.400288 148.227199 
L 208.636663 151.843564 
L 208.637156 151.907182 
z
" style="fill:#050338;"/>
    <path clip-path="url(#p5b3b6592b8)" d="M 208.637156 151.907182 
L 215.863902 145.66701 
L 228.155024 149.255935 
L 221.002748 155.562072 
z
" style="fill:#070448;"/>
    <path clip-path="url(#p5b3b6592b8)" d="M 208.635791 151.731231 
L 221.002457 155.385509 
L 228.155355 149.08043 
L 215.863172 145.492113 
z
" style="fill:#0a0667;"/>
    <path clip-path="url(#p5b3b6592b8)" d="M 228.155024 149.255935 
L 228.155547 148.978123 
L 240.578063 152.603947 
L 240.575825 152.882725 
z
" style="fill:#050338;"/>
    <path clip-path="url(#p5b3b6592b8)" d="M 188.96817 154.578956 
L 188.967054 154.515176 
L 196.400288 148.227199 
L 196.401162 148.290596 
z
" style="fill:#0b0777;"/>
    <path clip-path="url(#p5b3b6592b8)" d="M 221.002748 155.562072 
L 228.155024 149.255935 
L 228.155355 149.08043 
L 221.002457 155.385509 
z
" style="fill:#050338;"/>
    <path clip-path="url(#p5b3b6592b8)" d="M 221.002748 155.562072 
L 221.002287 155.282584 
L 228.155547 148.978123 
L 228.155024 149.255935 
z
" style="fill:#0b0777;"/>
    <path clip-path="url(#p5b3b6592b8)" d="M 188.96817 154.578956 
L 196.401162 148.290596 
L 208.637156 151.907182 
L 201.27732 158.262275 
z
" style="fill:#070448;"/>
    <path clip-path="url(#p5b3b6592b8)" d="M 188.967054 154.515176 
L 201.276588 158.198273 
L 208.636663 151.843564 
L 196.400288 148.227199 
z
" style="fill:#0a0667;"/>
    <path clip-path="url(#p5b3b6592b8)" d="M 208.637156 151.907182 
L 221.002748 155.562072 
L 221.002457 155.385509 
L 208.635791 151.731231 
z
" style="fill:#0b0777;"/>
    <path clip-path="url(#p5b3b6592b8)" d="M 208.637156 151.907182 
L 208.634654 151.584541 
L 221.002214 155.238309 
L 221.002748 155.562072 
z
" style="fill:#050338;"/>
    <path clip-path="url(#p5b3b6592b8)" d="M 221.002748 155.562072 
L 228.155024 149.255935 
L 240.575825 152.882725 
L 233.500008 159.25588 
z
" style="fill:#070448;"/>
    <path clip-path="url(#p5b3b6592b8)" d="M 221.002287 155.282584 
L 233.501282 158.975417 
L 240.578063 152.603947 
L 228.155547 148.978123 
z
" style="fill:#0a0667;"/>
    <path clip-path="url(#p5b3b6592b8)" d="M 201.27732 158.262275 
L 208.637156 151.907182 
L 208.636663 151.843564 
L 201.276588 158.198273 
z
" style="fill:#050338;"/>
    <path clip-path="url(#p5b3b6592b8)" d="M 201.27732 158.262275 
L 201.27361 157.937686 
L 208.634654 151.584541 
L 208.637156 151.907182 
z
" style="fill:#0b0777;"/>
    <path clip-path="url(#p5b3b6592b8)" d="M 240.575825 152.882725 
L 240.641039 144.756958 
L 253.244612 148.393748 
L 253.128369 156.547983 
z
" style="fill:#1b0141;"/>
    <path clip-path="url(#p5b3b6592b8)" d="M 233.500008 159.25588 
L 240.575825 152.882725 
L 240.578063 152.603947 
L 233.501282 158.975417 
z
" style="fill:#050338;"/>
    <path clip-path="url(#p5b3b6592b8)" d="M 188.96817 154.578956 
L 201.27732 158.262275 
L 201.276588 158.198273 
L 188.967054 154.515176 
z
" style="fill:#0b0777;"/>
    <path clip-path="url(#p5b3b6592b8)" d="M 188.96817 154.578956 
L 188.966531 154.485257 
L 201.276245 158.168249 
L 201.27732 158.262275 
z
" style="fill:#050338;"/>
    <path clip-path="url(#p5b3b6592b8)" d="M 201.27732 158.262275 
L 208.637156 151.907182 
L 221.002748 155.562072 
L 213.718049 161.984967 
z
" style="fill:#070448;"/>
    <path clip-path="url(#p5b3b6592b8)" d="M 201.27361 157.937686 
L 213.716331 161.659244 
L 221.002214 155.238309 
L 208.634654 151.584541 
z
" style="fill:#0a0667;"/>
    <path clip-path="url(#p5b3b6592b8)" d="M 221.002748 155.562072 
L 233.500008 159.25588 
L 233.501282 158.975417 
L 221.002287 155.282584 
z
" style="fill:#0b0777;"/>
    <path clip-path="url(#p5b3b6592b8)" d="M 233.500008 159.25588 
L 233.537144 151.080712 
L 240.641039 144.756958 
L 240.575825 152.882725 
z
" style="fill:#39038b;"/>
    <path clip-path="url(#p5b3b6592b8)" d="M 221.002748 155.562072 
L 221.001634 154.887277 
L 233.503084 158.578731 
L 233.500008 159.25588 
z
" style="fill:#070339;"/>
    <path clip-path="url(#p5b3b6592b8)" d="M 181.397755 160.983577 
L 181.395746 160.889311 
L 188.966531 154.485257 
L 188.96817 154.578956 
z
" style="fill:#0b0777;"/>
    <path clip-path="url(#p5b3b6592b8)" d="M 233.500008 159.25588 
L 240.575825 152.882725 
L 253.128369 156.547983 
L 246.131049 162.989229 
z
" style="fill:#230254;"/>
    <path clip-path="url(#p5b3b6592b8)" d="M 213.718049 161.984967 
L 221.002748 155.562072 
L 221.002214 155.238309 
L 213.716331 161.659244 
z
" style="fill:#050338;"/>
    <path clip-path="url(#p5b3b6592b8)" d="M 213.718049 161.984967 
L 213.714469 161.306088 
L 221.001634 154.887277 
L 221.002748 155.562072 
z
" style="fill:#0e0678;"/>
    <path clip-path="url(#p5b3b6592b8)" d="M 181.397755 160.983577 
L 188.96817 154.578956 
L 201.27732 158.262275 
L 193.780682 164.735494 
z
" style="fill:#070448;"/>
    <path clip-path="url(#p5b3b6592b8)" d="M 181.395746 160.889311 
L 193.779245 164.640899 
L 201.276245 158.168249 
L 188.966531 154.485257 
z
" style="fill:#0a0667;"/>
    <path clip-path="url(#p5b3b6592b8)" d="M 253.128369 156.547983 
L 253.255804 147.608657 
L 265.999334 151.28161 
L 265.814761 160.252323 
z
" style="fill:#1c0142;"/>
    <path clip-path="url(#p5b3b6592b8)" d="M 201.27732 158.262275 
L 201.274185 157.987936 
L 213.716597 161.70967 
L 213.718049 161.984967 
z
" style="fill:#050338;"/>
    <path clip-path="url(#p5b3b6592b8)" d="M 201.27732 158.262275 
L 213.718049 161.984967 
L 213.716331 161.659244 
L 201.27361 157.937686 
z
" style="fill:#0b0777;"/>
    <path clip-path="url(#p5b3b6592b8)" d="M 213.718049 161.984967 
L 221.002748 155.562072 
L 233.500008 159.25588 
L 226.292478 165.747667 
z
" style="fill:#090449;"/>
    <path clip-path="url(#p5b3b6592b8)" d="M 233.537144 151.080712 
L 246.219858 154.78534 
L 253.244612 148.393748 
L 240.641039 144.756958 
z
" style="fill:#320378;"/>
    <path clip-path="url(#p5b3b6592b8)" d="M 213.714469 161.306088 
L 226.29314 165.066413 
L 233.503084 158.578731 
L 221.001634 154.887277 
z
" style="fill:#0c0668;"/>
    <path clip-path="url(#p5b3b6592b8)" d="M 246.131049 162.989229 
L 253.128369 156.547983 
L 253.244612 148.393748 
L 246.219858 154.78534 
z
" style="fill:#1b0141;"/>
    <path clip-path="url(#p5b3b6592b8)" d="M 246.131049 162.989229 
L 246.228409 153.995437 
L 253.255804 147.608657 
L 253.128369 156.547983 
z
" style="fill:#3c038c;"/>
    <path clip-path="url(#p5b3b6592b8)" d="M 193.780682 164.735494 
L 201.27732 158.262275 
L 201.276245 158.168249 
L 193.779245 164.640899 
z
" style="fill:#050338;"/>
    <path clip-path="url(#p5b3b6592b8)" d="M 193.780682 164.735494 
L 193.776489 164.459493 
L 201.274185 157.987936 
L 201.27732 158.262275 
z
" style="fill:#0b0777;"/>
    <path clip-path="url(#p5b3b6592b8)" d="M 246.131049 162.989229 
L 253.128369 156.547983 
L 265.814761 160.252323 
L 258.898031 166.762758 
z
" style="fill:#240254;"/>
    <path clip-path="url(#p5b3b6592b8)" d="M 265.814761 160.252323 
L 265.821805 159.90996 
L 278.646426 163.652816 
L 278.637155 163.996376 
z
" style="fill:#050338;"/>
    <path clip-path="url(#p5b3b6592b8)" d="M 233.500008 159.25588 
L 246.131049 162.989229 
L 246.219858 154.78534 
L 233.537144 151.080712 
z
" style="fill:#39038b;"/>
    <path clip-path="url(#p5b3b6592b8)" d="M 226.292478 165.747667 
L 233.500008 159.25588 
L 233.503084 158.578731 
L 226.29314 165.066413 
z
" style="fill:#070339;"/>
    <path clip-path="url(#p5b3b6592b8)" d="M 181.397755 160.983577 
L 193.780682 164.735494 
L 193.779245 164.640899 
L 181.395746 160.889311 
z
" style="fill:#0b0777;"/>
    <path clip-path="url(#p5b3b6592b8)" d="M 181.397755 160.983577 
L 181.394418 160.827001 
L 193.778295 164.578371 
L 193.780682 164.735494 
z
" style="fill:#050338;"/>
    <path clip-path="url(#p5b3b6592b8)" d="M 193.780682 164.735494 
L 201.27732 158.262275 
L 213.718049 161.984967 
L 206.297214 168.527892 
z
" style="fill:#070448;"/>
    <path clip-path="url(#p5b3b6592b8)" d="M 193.776489 164.459493 
L 206.294725 168.250925 
L 213.716597 161.70967 
L 201.274185 157.987936 
z
" style="fill:#0a0667;"/>
    <path clip-path="url(#p5b3b6592b8)" d="M 258.898031 166.762758 
L 258.903956 166.418319 
L 265.821805 159.90996 
L 265.814761 160.252323 
z
" style="fill:#0b0777;"/>
    <path clip-path="url(#p5b3b6592b8)" d="M 213.718049 161.984967 
L 226.292478 165.747667 
L 226.29314 165.066413 
L 213.714469 161.306088 
z
" style="fill:#0e0678;"/>
    <path clip-path="url(#p5b3b6592b8)" d="M 213.718049 161.984967 
L 213.71317 161.059761 
L 226.29338 164.819224 
L 226.292478 165.747667 
z
" style="fill:#080339;"/>
    <path clip-path="url(#p5b3b6592b8)" d="M 173.686069 167.507715 
L 173.682096 167.350189 
L 181.394418 160.827001 
L 181.397755 160.983577 
z
" style="fill:#0b0777;"/>
    <path clip-path="url(#p5b3b6592b8)" d="M 226.292478 165.747667 
L 233.500008 159.25588 
L 246.131049 162.989229 
L 239.002775 169.551023 
z
" style="fill:#470359;"/>
    <path clip-path="url(#p5b3b6592b8)" d="M 246.228409 153.995437 
L 259.053264 157.7373 
L 265.999334 151.28161 
L 253.255804 147.608657 
z
" style="fill:#340279;"/>
    <path clip-path="url(#p5b3b6592b8)" d="M 233.500008 159.25588 
L 233.602711 136.646566 
L 246.376671 140.299614 
L 246.131049 162.989229 
z
" style="fill:#380345;"/>
    <path clip-path="url(#p5b3b6592b8)" d="M 258.898031 166.762758 
L 265.814761 160.252323 
L 265.999334 151.28161 
L 259.053264 157.7373 
z
" style="fill:#1c0142;"/>
    <path clip-path="url(#p5b3b6592b8)" d="M 206.297214 168.527892 
L 213.718049 161.984967 
L 213.716597 161.70967 
L 206.294725 168.250925 
z
" style="fill:#050338;"/>
    <path clip-path="url(#p5b3b6592b8)" d="M 258.898031 166.762758 
L 265.814761 160.252323 
L 278.637155 163.996376 
L 271.803162 170.57712 
z
" style="fill:#070448;"/>
    <path clip-path="url(#p5b3b6592b8)" d="M 206.297214 168.527892 
L 206.288849 167.59707 
L 213.71317 161.059761 
L 213.718049 161.984967 
z
" style="fill:#110679;"/>
    <path clip-path="url(#p5b3b6592b8)" d="M 258.903956 166.418319 
L 271.811342 170.231474 
L 278.646426 163.652816 
L 265.821805 159.90996 
z
" style="fill:#0a0667;"/>
    <path clip-path="url(#p5b3b6592b8)" d="M 278.637155 163.996376 
L 278.640502 163.872332 
L 291.601917 167.656303 
L 291.597749 167.780781 
z
" style="fill:#050338;"/>
    <path clip-path="url(#p5b3b6592b8)" d="M 173.686069 167.507715 
L 181.397755 160.983577 
L 193.780682 164.735494 
L 186.143392 171.330164 
z
" style="fill:#070448;"/>
    <path clip-path="url(#p5b3b6592b8)" d="M 173.682096 167.350189 
L 186.140381 171.172086 
L 193.778295 164.578371 
L 181.394418 160.827001 
z
" style="fill:#0a0667;"/>
    <path clip-path="url(#p5b3b6592b8)" d="M 226.292478 165.747667 
L 226.31459 142.999002 
L 233.602711 136.646566 
L 233.500008 159.25588 
z
" style="fill:#760693;"/>
    <path clip-path="url(#p5b3b6592b8)" d="M 246.131049 162.989229 
L 258.898031 166.762758 
L 259.053264 157.7373 
L 246.228409 153.995437 
z
" style="fill:#3c038c;"/>
    <path clip-path="url(#p5b3b6592b8)" d="M 193.780682 164.735494 
L 206.297214 168.527892 
L 206.294725 168.250925 
L 193.776489 164.459493 
z
" style="fill:#0b0777;"/>
    <path clip-path="url(#p5b3b6592b8)" d="M 193.780682 164.735494 
L 193.775114 164.369002 
L 206.293909 168.160117 
L 206.297214 168.527892 
z
" style="fill:#050338;"/>
    <path clip-path="url(#p5b3b6592b8)" d="M 206.297214 168.527892 
L 213.718049 161.984967 
L 226.292478 165.747667 
L 218.949524 172.361429 
z
" style="fill:#0a0449;"/>
    <path clip-path="url(#p5b3b6592b8)" d="M 271.803162 170.57712 
L 271.806116 170.452323 
L 278.640502 163.872332 
L 278.637155 163.996376 
z
" style="fill:#0b0777;"/>
    <path clip-path="url(#p5b3b6592b8)" d="M 271.803162 170.57712 
L 278.637155 163.996376 
L 278.646426 163.652816 
L 271.811342 170.231474 
z
" style="fill:#050338;"/>
    <path clip-path="url(#p5b3b6592b8)" d="M 206.288849 167.59707 
L 218.947012 171.427344 
L 226.29338 164.819224 
L 213.71317 161.059761 
z
" style="fill:#0f0569;"/>
    <path clip-path="url(#p5b3b6592b8)" d="M 186.143392 171.330164 
L 193.780682 164.735494 
L 193.778295 164.578371 
L 186.140381 171.172086 
z
" style="fill:#050338;"/>
    <path clip-path="url(#p5b3b6592b8)" d="M 186.143392 171.330164 
L 186.136368 170.961446 
L 193.775114 164.369002 
L 193.780682 164.735494 
z
" style="fill:#0b0777;"/>
    <path clip-path="url(#p5b3b6592b8)" d="M 239.002775 169.551023 
L 246.131049 162.989229 
L 258.898031 166.762758 
L 251.851153 173.395697 
z
" style="fill:#4b0658;"/>
    <path clip-path="url(#p5b3b6592b8)" d="M 258.898031 166.762758 
L 271.803162 170.57712 
L 271.811342 170.231474 
L 258.903956 166.418319 
z
" style="fill:#0b0777;"/>
    <path clip-path="url(#p5b3b6592b8)" d="M 258.898031 166.762758 
L 258.906098 166.293773 
L 271.8143 170.106492 
L 271.803162 170.57712 
z
" style="fill:#070339;"/>
    <path clip-path="url(#p5b3b6592b8)" d="M 246.131049 162.989229 
L 246.39416 138.684043 
L 259.317556 142.371 
L 258.898031 166.762758 
z
" style="fill:#3b0545;"/>
    <path clip-path="url(#p5b3b6592b8)" d="M 271.803162 170.57712 
L 278.637155 163.996376 
L 291.597749 167.780781 
L 284.848695 174.43298 
z
" style="fill:#070448;"/>
    <path clip-path="url(#p5b3b6592b8)" d="M 218.949524 172.361429 
L 226.292478 165.747667 
L 226.29338 164.819224 
L 218.947012 171.427344 
z
" style="fill:#080339;"/>
    <path clip-path="url(#p5b3b6592b8)" d="M 271.806116 170.452323 
L 284.852481 174.307746 
L 291.601917 167.656303 
L 278.640502 163.872332 
z
" style="fill:#0a0667;"/>
    <path clip-path="url(#p5b3b6592b8)" d="M 173.686069 167.507715 
L 186.143392 171.330164 
L 186.140381 171.172086 
L 173.682096 167.350189 
z
" style="fill:#0b0777;"/>
    <path clip-path="url(#p5b3b6592b8)" d="M 173.686069 167.507715 
L 173.681344 167.320342 
L 186.13981 171.142134 
L 186.143392 171.330164 
z
" style="fill:#050338;"/>
    <path clip-path="url(#p5b3b6592b8)" d="M 291.597749 167.780781 
L 291.600143 167.7093 
L 304.701665 171.534465 
L 304.698789 171.606197 
z
" style="fill:#050338;"/>
    <path clip-path="url(#p5b3b6592b8)" d="M 186.143392 171.330164 
L 193.780682 164.735494 
L 206.297214 168.527892 
L 198.736391 175.194243 
z
" style="fill:#070448;"/>
    <path clip-path="url(#p5b3b6592b8)" d="M 186.136368 170.961446 
L 198.731657 174.824232 
L 206.293909 168.160117 
L 193.775114 164.369002 
z
" style="fill:#0a0667;"/>
    <path clip-path="url(#p5b3b6592b8)" d="M 251.851153 173.395697 
L 251.857635 172.923861 
L 258.906098 166.293773 
L 258.898031 166.762758 
z
" style="fill:#0e0678;"/>
    <path clip-path="url(#p5b3b6592b8)" d="M 239.002775 169.551023 
L 246.131049 162.989229 
L 246.376671 140.299614 
L 239.169619 146.721332 
z
" style="fill:#380345;"/>
    <path clip-path="url(#p5b3b6592b8)" d="M 239.002775 169.551023 
L 239.1815 145.095604 
L 246.39416 138.684043 
L 246.131049 162.989229 
z
" style="fill:#7c0a91;"/>
    <path clip-path="url(#p5b3b6592b8)" d="M 206.297214 168.527892 
L 218.949524 172.361429 
L 218.947012 171.427344 
L 206.288849 167.59707 
z
" style="fill:#110679;"/>
    <path clip-path="url(#p5b3b6592b8)" d="M 206.297214 168.527892 
L 206.280152 166.629274 
L 218.9444 170.456148 
L 218.949524 172.361429 
z
" style="fill:#0b033b;"/>
    <path clip-path="url(#p5b3b6592b8)" d="M 165.82912 174.154745 
L 165.823611 173.966233 
L 173.681344 167.320342 
L 173.686069 167.507715 
z
" style="fill:#0b0777;"/>
    <path clip-path="url(#p5b3b6592b8)" d="M 218.949524 172.361429 
L 226.292478 165.747667 
L 239.002775 169.551023 
L 231.739835 176.23678 
z
" style="fill:#6a2243;"/>
    <path clip-path="url(#p5b3b6592b8)" d="M 284.848695 174.43298 
L 284.850869 174.361064 
L 291.600143 167.7093 
L 291.597749 167.780781 
z
" style="fill:#0b0777;"/>
    <path clip-path="url(#p5b3b6592b8)" d="M 284.848695 174.43298 
L 291.597749 167.780781 
L 291.601917 167.656303 
L 284.852481 174.307746 
z
" style="fill:#050338;"/>
    <path clip-path="url(#p5b3b6592b8)" d="M 226.292478 165.747667 
L 239.002775 169.551023 
L 239.169619 146.721332 
L 226.31459 142.999002 
z
" style="fill:#760693;"/>
    <path clip-path="url(#p5b3b6592b8)" d="M 198.736391 175.194243 
L 206.297214 168.527892 
L 206.293909 168.160117 
L 198.731657 174.824232 
z
" style="fill:#050338;"/>
    <path clip-path="url(#p5b3b6592b8)" d="M 251.851153 173.395697 
L 258.898031 166.762758 
L 271.803162 170.57712 
L 264.839875 177.282368 
z
" style="fill:#090449;"/>
    <path clip-path="url(#p5b3b6592b8)" d="M 251.857635 172.923861 
L 264.849469 176.808875 
L 271.8143 170.106492 
L 258.906098 166.293773 
z
" style="fill:#0c0668;"/>
    <path clip-path="url(#p5b3b6592b8)" d="M 198.736391 175.194243 
L 198.71195 173.284064 
L 206.280152 166.629274 
L 206.297214 168.527892 
z
" style="fill:#18057c;"/>
    <path clip-path="url(#p5b3b6592b8)" d="M 226.31459 142.999002 
L 239.169619 146.721332 
L 246.376671 140.299614 
L 233.602711 136.646566 
z
" style="fill:#660580;"/>
    <path clip-path="url(#p5b3b6592b8)" d="M 271.803162 170.57712 
L 284.848695 174.43298 
L 284.852481 174.307746 
L 271.806116 170.452323 
z
" style="fill:#0b0777;"/>
    <path clip-path="url(#p5b3b6592b8)" d="M 271.803162 170.57712 
L 271.808871 170.335904 
L 284.856013 174.190918 
L 284.848695 174.43298 
z
" style="fill:#050338;"/>
    <path clip-path="url(#p5b3b6592b8)" d="M 165.82912 174.154745 
L 173.686069 167.507715 
L 186.143392 171.330164 
L 178.361455 178.049733 
z
" style="fill:#070448;"/>
    <path clip-path="url(#p5b3b6592b8)" d="M 165.823611 173.966233 
L 178.357102 177.860559 
L 186.13981 171.142134 
L 173.681344 167.320342 
z
" style="fill:#0a0667;"/>
    <path clip-path="url(#p5b3b6592b8)" d="M 284.848695 174.43298 
L 291.597749 167.780781 
L 304.698789 171.606197 
L 298.036935 178.33102 
z
" style="fill:#070448;"/>
    <path clip-path="url(#p5b3b6592b8)" d="M 284.850869 174.361064 
L 298.039597 178.258852 
L 304.701665 171.534465 
L 291.600143 167.7093 
z
" style="fill:#0a0667;"/>
    <path clip-path="url(#p5b3b6592b8)" d="M 186.143392 171.330164 
L 198.736391 175.194243 
L 198.731657 174.824232 
L 186.136368 170.961446 
z
" style="fill:#0b0777;"/>
    <path clip-path="url(#p5b3b6592b8)" d="M 186.143392 171.330164 
L 186.135323 170.906603 
L 198.730953 174.769197 
L 198.736391 175.194243 
z
" style="fill:#070339;"/>
    <path clip-path="url(#p5b3b6592b8)" d="M 198.736391 175.194243 
L 206.297214 168.527892 
L 218.949524 172.361429 
L 211.467294 179.100638 
z
" style="fill:#0e034b;"/>
    <path clip-path="url(#p5b3b6592b8)" d="M 264.839875 177.282368 
L 264.844792 177.039684 
L 271.808871 170.335904 
L 271.803162 170.57712 
z
" style="fill:#0b0777;"/>
    <path clip-path="url(#p5b3b6592b8)" d="M 264.839875 177.282368 
L 271.803162 170.57712 
L 271.8143 170.106492 
L 264.849469 176.808875 
z
" style="fill:#070339;"/>
    <path clip-path="url(#p5b3b6592b8)" d="M 251.851153 173.395697 
L 258.898031 166.762758 
L 259.317556 142.371 
L 252.188315 148.852927 
z
" style="fill:#3b0545;"/>
    <path clip-path="url(#p5b3b6592b8)" d="M 198.71195 173.284064 
L 211.454939 177.183739 
L 218.9444 170.456148 
L 206.280152 166.629274 
z
" style="fill:#15056c;"/>
    <path clip-path="url(#p5b3b6592b8)" d="M 178.361455 178.049733 
L 186.143392 171.330164 
L 186.13981 171.142134 
L 178.357102 177.860559 
z
" style="fill:#050338;"/>
    <path clip-path="url(#p5b3b6592b8)" d="M 226.292478 165.747667 
L 226.331587 125.51238 
L 239.297885 129.170529 
L 239.002775 169.551023 
z
" style="fill:#521b34;"/>
    <path clip-path="url(#p5b3b6592b8)" d="M 178.361455 178.049733 
L 178.35165 177.623594 
L 186.135323 170.906603 
L 186.143392 171.330164 
z
" style="fill:#0e0678;"/>
    <path clip-path="url(#p5b3b6592b8)" d="M 231.739835 176.23678 
L 239.002775 169.551023 
L 251.851153 173.395697 
L 244.670417 180.154631 
z
" style="fill:#6c2541;"/>
    <path clip-path="url(#p5b3b6592b8)" d="M 298.036935 178.33102 
L 304.698789 171.606197 
L 304.701665 171.534465 
L 298.039597 178.258852 
z
" style="fill:#050338;"/>
    <path clip-path="url(#p5b3b6592b8)" d="M 251.851153 173.395697 
L 264.839875 177.282368 
L 264.849469 176.808875 
L 251.857635 172.923861 
z
" style="fill:#0e0678;"/>
    <path clip-path="url(#p5b3b6592b8)" d="M 251.851153 173.395697 
L 251.868968 172.098919 
L 264.866243 175.981033 
L 264.839875 177.282368 
z
" style="fill:#09033a;"/>
    <path clip-path="url(#p5b3b6592b8)" d="M 239.002775 169.551023 
L 251.851153 173.395697 
L 252.188315 148.852927 
L 239.1815 145.095604 
z
" style="fill:#7c0a91;"/>
    <path clip-path="url(#p5b3b6592b8)" d="M 264.839875 177.282368 
L 271.803162 170.57712 
L 284.848695 174.43298 
L 277.971253 181.211726 
z
" style="fill:#070448;"/>
    <path clip-path="url(#p5b3b6592b8)" d="M 264.844792 177.039684 
L 277.9778 180.968189 
L 284.856013 174.190918 
L 271.808871 170.335904 
z
" style="fill:#0a0667;"/>
    <path clip-path="url(#p5b3b6592b8)" d="M 211.467294 179.100638 
L 218.949524 172.361429 
L 218.9444 170.456148 
L 211.454939 177.183739 
z
" style="fill:#0b033b;"/>
    <path clip-path="url(#p5b3b6592b8)" d="M 165.82912 174.154745 
L 178.361455 178.049733 
L 178.357102 177.860559 
L 165.823611 173.966233 
z
" style="fill:#0b0777;"/>
    <path clip-path="url(#p5b3b6592b8)" d="M 165.82912 174.154745 
L 165.823044 173.946828 
L 178.356654 177.841086 
L 178.361455 178.049733 
z
" style="fill:#050338;"/>
    <path clip-path="url(#p5b3b6592b8)" d="M 218.949524 172.361429 
L 218.840638 131.874147 
L 226.331587 125.51238 
L 226.292478 165.747667 
z
" style="fill:#af396f;"/>
    <path clip-path="url(#p5b3b6592b8)" d="M 284.848695 174.43298 
L 298.036935 178.33102 
L 298.039597 178.258852 
L 284.850869 174.361064 
z
" style="fill:#0b0777;"/>
    <path clip-path="url(#p5b3b6592b8)" d="M 284.848695 174.43298 
L 284.851945 174.325469 
L 298.040915 178.223131 
L 298.036935 178.33102 
z
" style="fill:#050338;"/>
    <path clip-path="url(#p5b3b6592b8)" d="M 178.361455 178.049733 
L 186.143392 171.330164 
L 198.736391 175.194243 
L 191.031582 181.987547 
z
" style="fill:#090449;"/>
    <path clip-path="url(#p5b3b6592b8)" d="M 239.1815 145.095604 
L 252.188315 148.852927 
L 259.317556 142.371 
L 246.39416 138.684043 
z
" style="fill:#6c087e;"/>
    <path clip-path="url(#p5b3b6592b8)" d="M 178.35165 177.623594 
L 191.02444 181.559909 
L 198.730953 174.769197 
L 186.135323 170.906603 
z
" style="fill:#0c0668;"/>
    <path clip-path="url(#p5b3b6592b8)" d="M 244.670417 180.154631 
L 244.683707 178.849946 
L 251.868968 172.098919 
L 251.851153 173.395697 
z
" style="fill:#13067a;"/>
    <path clip-path="url(#p5b3b6592b8)" d="M 198.736391 175.194243 
L 211.467294 179.100638 
L 211.454939 177.183739 
L 198.71195 173.284064 
z
" style="fill:#18057c;"/>
    <path clip-path="url(#p5b3b6592b8)" d="M 157.822766 180.928173 
L 157.815793 180.718989 
L 165.823044 173.946828 
L 165.82912 174.154745 
z
" style="fill:#0b0777;"/>
    <path clip-path="url(#p5b3b6592b8)" d="M 198.736391 175.194243 
L 198.700707 172.405391 
L 211.449256 176.301969 
L 211.467294 179.100638 
z
" style="fill:#0e023c;"/>
    <path clip-path="url(#p5b3b6592b8)" d="M 211.467294 179.100638 
L 218.949524 172.361429 
L 231.739835 176.23678 
L 224.338378 183.050047 
z
" style="fill:#7e3f2d;"/>
    <path clip-path="url(#p5b3b6592b8)" d="M 277.971253 181.211726 
L 277.974161 181.103559 
L 284.851945 174.325469 
L 284.848695 174.43298 
z
" style="fill:#0b0777;"/>
    <path clip-path="url(#p5b3b6592b8)" d="M 277.971253 181.211726 
L 284.848695 174.43298 
L 284.856013 174.190918 
L 277.9778 180.968189 
z
" style="fill:#050338;"/>
    <path clip-path="url(#p5b3b6592b8)" d="M 191.031582 181.987547 
L 198.736391 175.194243 
L 198.730953 174.769197 
L 191.02444 181.559909 
z
" style="fill:#070339;"/>
    <path clip-path="url(#p5b3b6592b8)" d="M 244.670417 180.154631 
L 251.851153 173.395697 
L 264.839875 177.282368 
L 257.743589 184.115686 
z
" style="fill:#0c044a;"/>
    <path clip-path="url(#p5b3b6592b8)" d="M 239.002775 169.551023 
L 239.308169 127.763282 
L 252.4273 131.456729 
L 251.851153 173.395697 
z
" style="fill:#541d33;"/>
    <path clip-path="url(#p5b3b6592b8)" d="M 191.031582 181.987547 
L 190.984717 179.181661 
L 198.700707 172.405391 
L 198.736391 175.194243 
z
" style="fill:#1e057f;"/>
    <path clip-path="url(#p5b3b6592b8)" d="M 244.683707 178.849946 
L 257.765545 182.806406 
L 264.866243 175.981033 
L 251.868968 172.098919 
z
" style="fill:#11056a;"/>
    <path clip-path="url(#p5b3b6592b8)" d="M 264.839875 177.282368 
L 277.971253 181.211726 
L 277.9778 180.968189 
L 264.844792 177.039684 
z
" style="fill:#0b0777;"/>
    <path clip-path="url(#p5b3b6592b8)" d="M 264.839875 177.282368 
L 264.847602 176.901033 
L 277.981541 180.82905 
L 277.971253 181.211726 
z
" style="fill:#050338;"/>
    <path clip-path="url(#p5b3b6592b8)" d="M 157.822766 180.928173 
L 165.82912 174.154745 
L 178.361455 178.049733 
L 170.430723 184.897786 
z
" style="fill:#070448;"/>
    <path clip-path="url(#p5b3b6592b8)" d="M 157.815793 180.718989 
L 170.425039 184.687866 
L 178.356654 177.841086 
L 165.823044 173.946828 
z
" style="fill:#0a0667;"/>
    <path clip-path="url(#p5b3b6592b8)" d="M 277.971253 181.211726 
L 284.848695 174.43298 
L 298.036935 178.33102 
L 291.24765 185.184478 
z
" style="fill:#070448;"/>
    <path clip-path="url(#p5b3b6592b8)" d="M 277.974161 181.103559 
L 291.251298 185.075931 
L 298.040915 178.223131 
L 284.851945 174.325469 
z
" style="fill:#0a0667;"/>
    <path clip-path="url(#p5b3b6592b8)" d="M 231.739835 176.23678 
L 239.002775 169.551023 
L 239.297885 129.170529 
L 231.89022 135.602951 
z
" style="fill:#521b34;"/>
    <path clip-path="url(#p5b3b6592b8)" d="M 178.361455 178.049733 
L 191.031582 181.987547 
L 191.02444 181.559909 
L 178.35165 177.623594 
z
" style="fill:#0e0678;"/>
    <path clip-path="url(#p5b3b6592b8)" d="M 178.361455 178.049733 
L 178.349171 177.515869 
L 191.022634 181.451805 
L 191.031582 181.987547 
z
" style="fill:#070339;"/>
    <path clip-path="url(#p5b3b6592b8)" d="M 231.739835 176.23678 
L 231.895461 134.186597 
L 239.308169 127.763282 
L 239.002775 169.551023 
z
" style="fill:#b23d6b;"/>
    <path clip-path="url(#p5b3b6592b8)" d="M 191.031582 181.987547 
L 198.736391 175.194243 
L 211.467294 179.100638 
L 203.841786 185.968896 
z
" style="fill:#12034d;"/>
    <path clip-path="url(#p5b3b6592b8)" d="M 257.743589 184.115686 
L 257.750023 183.732025 
L 264.847602 176.901033 
L 264.839875 177.282368 
z
" style="fill:#0b0777;"/>
    <path clip-path="url(#p5b3b6592b8)" d="M 257.743589 184.115686 
L 264.839875 177.282368 
L 264.866243 175.981033 
L 257.765545 182.806406 
z
" style="fill:#09033a;"/>
    <path clip-path="url(#p5b3b6592b8)" d="M 170.430723 184.897786 
L 178.361455 178.049733 
L 178.356654 177.841086 
L 170.425039 184.687866 
z
" style="fill:#050338;"/>
    <path clip-path="url(#p5b3b6592b8)" d="M 218.949524 172.361429 
L 231.739835 176.23678 
L 231.89022 135.602951 
L 218.840638 131.874147 
z
" style="fill:#af396f;"/>
    <path clip-path="url(#p5b3b6592b8)" d="M 170.430723 184.897786 
L 170.416181 184.360664 
L 178.349171 177.515869 
L 178.361455 178.049733 
z
" style="fill:#0e0678;"/>
    <path clip-path="url(#p5b3b6592b8)" d="M 190.984717 179.181661 
L 203.812786 183.153111 
L 211.449256 176.301969 
L 198.700707 172.405391 
z
" style="fill:#1a046e;"/>
    <path clip-path="url(#p5b3b6592b8)" d="M 224.338378 183.050047 
L 231.739835 176.23678 
L 244.670417 180.154631 
L 237.351973 187.043183 
z
" style="fill:#7f422b;"/>
    <path clip-path="url(#p5b3b6592b8)" d="M 291.24765 185.184478 
L 298.036935 178.33102 
L 298.040915 178.223131 
L 291.251298 185.075931 
z
" style="fill:#050338;"/>
    <path clip-path="url(#p5b3b6592b8)" d="M 244.670417 180.154631 
L 257.743589 184.115686 
L 257.765545 182.806406 
L 244.683707 178.849946 
z
" style="fill:#13067a;"/>
    <path clip-path="url(#p5b3b6592b8)" d="M 244.670417 180.154631 
L 244.691664 178.06882 
L 257.77869 182.022524 
L 257.743589 184.115686 
z
" style="fill:#0c033b;"/>
    <path clip-path="url(#p5b3b6592b8)" d="M 257.743589 184.115686 
L 264.839875 177.282368 
L 277.971253 181.211726 
L 270.961723 188.120663 
z
" style="fill:#070448;"/>
    <path clip-path="url(#p5b3b6592b8)" d="M 257.750023 183.732025 
L 270.970753 187.73565 
L 277.981541 180.82905 
L 264.847602 176.901033 
z
" style="fill:#0a0667;"/>
    <path clip-path="url(#p5b3b6592b8)" d="M 157.822766 180.928173 
L 170.430723 184.897786 
L 170.425039 184.687866 
L 157.815793 180.718989 
z
" style="fill:#0b0777;"/>
    <path clip-path="url(#p5b3b6592b8)" d="M 157.822766 180.928173 
L 157.813946 180.663585 
L 170.423534 184.632267 
L 170.430723 184.897786 
z
" style="fill:#050338;"/>
    <path clip-path="url(#p5b3b6592b8)" d="M 203.841786 185.968896 
L 211.467294 179.100638 
L 211.449256 176.301969 
L 203.812786 183.153111 
z
" style="fill:#0e023c;"/>
    <path clip-path="url(#p5b3b6592b8)" d="M 277.971253 181.211726 
L 291.24765 185.184478 
L 291.251298 185.075931 
L 277.974161 181.103559 
z
" style="fill:#0b0777;"/>
    <path clip-path="url(#p5b3b6592b8)" d="M 277.971253 181.211726 
L 277.974252 181.100178 
L 291.251412 185.072538 
L 291.24765 185.184478 
z
" style="fill:#050338;"/>
    <path clip-path="url(#p5b3b6592b8)" d="M 170.430723 184.897786 
L 178.361455 178.049733 
L 191.031582 181.987547 
L 183.178635 188.911464 
z
" style="fill:#090449;"/>
    <path clip-path="url(#p5b3b6592b8)" d="M 170.416181 184.360664 
L 183.16747 188.372449 
L 191.022634 181.451805 
L 178.349171 177.515869 
z
" style="fill:#0c0668;"/>
    <path clip-path="url(#p5b3b6592b8)" d="M 237.351973 187.043183 
L 237.365703 184.944618 
L 244.691664 178.06882 
L 244.670417 180.154631 
z
" style="fill:#1a057d;"/>
    <path clip-path="url(#p5b3b6592b8)" d="M 218.949524 172.361429 
L 218.798827 116.327202 
L 231.947975 119.997354 
L 231.739835 176.23678 
z
" style="fill:#623123;"/>
    <path clip-path="url(#p5b3b6592b8)" d="M 244.670417 180.154631 
L 251.851153 173.395697 
L 252.4273 131.456729 
L 245.100321 137.951831 
z
" style="fill:#541d33;"/>
    <path clip-path="url(#p5b3b6592b8)" d="M 149.662704 187.831639 
L 149.652706 187.565436 
L 157.813946 180.663585 
L 157.822766 180.928173 
z
" style="fill:#0b0777;"/>
    <path clip-path="url(#p5b3b6592b8)" d="M 191.031582 181.987547 
L 203.841786 185.968896 
L 203.812786 183.153111 
L 190.984717 179.181661 
z
" style="fill:#1e057f;"/>
    <path clip-path="url(#p5b3b6592b8)" d="M 203.841786 185.968896 
L 211.467294 179.100638 
L 224.338378 183.050047 
L 216.794403 189.994506 
z
" style="fill:#875c1b;"/>
    <path clip-path="url(#p5b3b6592b8)" d="M 191.031582 181.987547 
L 190.968195 178.192478 
L 203.802563 182.160428 
L 203.841786 185.968896 
z
" style="fill:#11023d;"/>
    <path clip-path="url(#p5b3b6592b8)" d="M 270.961723 188.120663 
L 270.964355 188.008434 
L 277.974252 181.100178 
L 277.971253 181.211726 
z
" style="fill:#0b0777;"/>
    <path clip-path="url(#p5b3b6592b8)" d="M 270.961723 188.120663 
L 277.971253 181.211726 
L 277.981541 180.82905 
L 270.970753 187.73565 
z
" style="fill:#050338;"/>
    <path clip-path="url(#p5b3b6592b8)" d="M 218.840638 131.874147 
L 231.89022 135.602951 
L 239.297885 129.170529 
L 226.331587 125.51238 
z
" style="fill:#983260;"/>
    <path clip-path="url(#p5b3b6592b8)" d="M 183.178635 188.911464 
L 191.031582 181.987547 
L 191.022634 181.451805 
L 183.16747 188.372449 
z
" style="fill:#070339;"/>
    <path clip-path="url(#p5b3b6592b8)" d="M 237.351973 187.043183 
L 244.670417 180.154631 
L 257.743589 184.115686 
L 250.510457 191.080779 
z
" style="fill:#10034c;"/>
    <path clip-path="url(#p5b3b6592b8)" d="M 231.739835 176.23678 
L 244.670417 180.154631 
L 245.100321 137.951831 
L 231.895461 134.186597 
z
" style="fill:#b23d6b;"/>
    <path clip-path="url(#p5b3b6592b8)" d="M 211.467294 179.100638 
L 211.103848 122.710291 
L 218.798827 116.327202 
L 218.949524 172.361429 
z
" style="fill:#d0684b;"/>
    <path clip-path="url(#p5b3b6592b8)" d="M 183.178635 188.911464 
L 183.099548 185.093146 
L 190.968195 178.192478 
L 191.031582 181.987547 
z
" style="fill:#230581;"/>
    <path clip-path="url(#p5b3b6592b8)" d="M 257.743589 184.115686 
L 257.749431 183.767278 
L 270.969923 187.771027 
L 270.961723 188.120663 
z
" style="fill:#050338;"/>
    <path clip-path="url(#p5b3b6592b8)" d="M 257.743589 184.115686 
L 270.961723 188.120663 
L 270.970753 187.73565 
L 257.750023 183.732025 
z
" style="fill:#0b0777;"/>
    <path clip-path="url(#p5b3b6592b8)" d="M 237.365703 184.944618 
L 250.538223 188.974802 
L 257.77869 182.022524 
L 244.691664 178.06882 
z
" style="fill:#17056d;"/>
    <path clip-path="url(#p5b3b6592b8)" d="M 149.662704 187.831639 
L 157.822766 180.928173 
L 170.430723 184.897786 
L 162.346885 191.878042 
z
" style="fill:#070448;"/>
    <path clip-path="url(#p5b3b6592b8)" d="M 149.652706 187.565436 
L 162.338539 191.6109 
L 170.423534 184.632267 
L 157.813946 180.663585 
z
" style="fill:#0a0667;"/>
    <path clip-path="url(#p5b3b6592b8)" d="M 270.961723 188.120663 
L 277.971253 181.211726 
L 291.24765 185.184478 
L 284.327244 192.170297 
z
" style="fill:#070448;"/>
    <path clip-path="url(#p5b3b6592b8)" d="M 270.964355 188.008434 
L 284.33065 192.057672 
L 291.251412 185.072538 
L 277.974252 181.100178 
z
" style="fill:#0a0667;"/>
    <path clip-path="url(#p5b3b6592b8)" d="M 170.430723 184.897786 
L 183.178635 188.911464 
L 183.16747 188.372449 
L 170.416181 184.360664 
z
" style="fill:#0e0678;"/>
    <path clip-path="url(#p5b3b6592b8)" d="M 170.430723 184.897786 
L 170.41138 184.183318 
L 183.163784 188.194477 
L 183.178635 188.911464 
z
" style="fill:#070339;"/>
    <path clip-path="url(#p5b3b6592b8)" d="M 183.178635 188.911464 
L 191.031582 181.987547 
L 203.841786 185.968896 
L 196.068846 192.969946 
z
" style="fill:#15034e;"/>
    <path clip-path="url(#p5b3b6592b8)" d="M 250.510457 191.080779 
L 250.515078 190.730241 
L 257.749431 183.767278 
L 257.743589 184.115686 
z
" style="fill:#0b0777;"/>
    <path clip-path="url(#p5b3b6592b8)" d="M 250.510457 191.080779 
L 257.743589 184.115686 
L 257.77869 182.022524 
L 250.538223 188.974802 
z
" style="fill:#0c033b;"/>
    <path clip-path="url(#p5b3b6592b8)" d="M 162.346885 191.878042 
L 170.430723 184.897786 
L 170.423534 184.632267 
L 162.338539 191.6109 
z
" style="fill:#050338;"/>
    <path clip-path="url(#p5b3b6592b8)" d="M 162.346885 191.878042 
L 162.324427 191.159204 
L 170.41138 184.183318 
L 170.430723 184.897786 
z
" style="fill:#0e0678;"/>
    <path clip-path="url(#p5b3b6592b8)" d="M 216.794403 189.994506 
L 224.338378 183.050047 
L 237.351973 187.043183 
L 229.891821 194.06512 
z
" style="fill:#875d1b;"/>
    <path clip-path="url(#p5b3b6592b8)" d="M 231.739835 176.23678 
L 231.954513 118.23097 
L 245.26347 121.935748 
L 244.670417 180.154631 
z
" style="fill:#633422;"/>
    <path clip-path="url(#p5b3b6592b8)" d="M 284.327244 192.170297 
L 291.24765 185.184478 
L 291.251412 185.072538 
L 284.33065 192.057672 
z
" style="fill:#050338;"/>
    <path clip-path="url(#p5b3b6592b8)" d="M 183.099548 185.093146 
L 196.014224 189.138117 
L 203.802563 182.160428 
L 190.968195 178.192478 
z
" style="fill:#1f0470;"/>
    <path clip-path="url(#p5b3b6592b8)" d="M 237.351973 187.043183 
L 250.510457 191.080779 
L 250.538223 188.974802 
L 237.365703 184.944618 
z
" style="fill:#1a057d;"/>
    <path clip-path="url(#p5b3b6592b8)" d="M 237.351973 187.043183 
L 237.369565 184.354304 
L 250.546034 188.382399 
L 250.510457 191.080779 
z
" style="fill:#0d023b;"/>
    <path clip-path="url(#p5b3b6592b8)" d="M 250.510457 191.080779 
L 257.743589 184.115686 
L 270.961723 188.120663 
L 263.816264 195.163579 
z
" style="fill:#070448;"/>
    <path clip-path="url(#p5b3b6592b8)" d="M 250.515078 190.730241 
L 263.823274 194.811804 
L 270.969923 187.771027 
L 257.749431 183.767278 
z
" style="fill:#0a0667;"/>
    <path clip-path="url(#p5b3b6592b8)" d="M 224.338378 183.050047 
L 231.739835 176.23678 
L 231.947975 119.997354 
L 224.338378 126.452575 
z
" style="fill:#623123;"/>
    <path clip-path="url(#p5b3b6592b8)" d="M 231.895461 134.186597 
L 245.100321 137.951831 
L 252.4273 131.456729 
L 239.308169 127.763282 
z
" style="fill:#9b355d;"/>
    <path clip-path="url(#p5b3b6592b8)" d="M 149.662704 187.831639 
L 162.346885 191.878042 
L 162.338539 191.6109 
L 149.652706 187.565436 
z
" style="fill:#0b0777;"/>
    <path clip-path="url(#p5b3b6592b8)" d="M 149.662704 187.831639 
L 149.652605 187.562742 
L 162.338454 191.608197 
L 162.346885 191.878042 
z
" style="fill:#050338;"/>
    <path clip-path="url(#p5b3b6592b8)" d="M 224.338378 183.050047 
L 224.338378 124.674454 
L 231.954513 118.23097 
L 231.739835 176.23678 
z
" style="fill:#d36e47;"/>
    <path clip-path="url(#p5b3b6592b8)" d="M 270.961723 188.120663 
L 284.327244 192.170297 
L 284.33065 192.057672 
L 270.964355 188.008434 
z
" style="fill:#0b0777;"/>
    <path clip-path="url(#p5b3b6592b8)" d="M 196.068846 192.969946 
L 203.841786 185.968896 
L 203.802563 182.160428 
L 196.014224 189.138117 
z
" style="fill:#11023d;"/>
    <path clip-path="url(#p5b3b6592b8)" d="M 270.961723 188.120663 
L 270.966731 187.907126 
L 284.333724 191.956007 
L 284.327244 192.170297 
z
" style="fill:#050338;"/>
    <path clip-path="url(#p5b3b6592b8)" d="M 162.346885 191.878042 
L 170.430723 184.897786 
L 183.178635 188.911464 
L 175.173234 195.969799 
z
" style="fill:#090449;"/>
    <path clip-path="url(#p5b3b6592b8)" d="M 162.324427 191.159204 
L 175.155323 195.248421 
L 183.163784 188.194477 
L 170.41138 184.183318 
z
" style="fill:#0c0668;"/>
    <path clip-path="url(#p5b3b6592b8)" d="M 229.891821 194.06512 
L 229.899401 191.359756 
L 237.369565 184.354304 
L 237.351973 187.043183 
z
" style="fill:#1c057e;"/>
    <path clip-path="url(#p5b3b6592b8)" d="M 211.467294 179.100638 
L 224.338378 183.050047 
L 224.338378 126.452575 
L 211.103848 122.710291 
z
" style="fill:#d0684b;"/>
    <path clip-path="url(#p5b3b6592b8)" d="M 141.344465 194.868925 
L 141.333132 194.598382 
L 149.652605 187.562742 
L 149.662704 187.831639 
z
" style="fill:#0b0777;"/>
    <path clip-path="url(#p5b3b6592b8)" d="M 196.068846 192.969946 
L 203.841786 185.968896 
L 216.794403 189.994506 
L 209.103753 197.073984 
z
" style="fill:#857714;"/>
    <path clip-path="url(#p5b3b6592b8)" d="M 183.178635 188.911464 
L 196.068846 192.969946 
L 196.014224 189.138117 
L 183.099548 185.093146 
z
" style="fill:#230581;"/>
    <path clip-path="url(#p5b3b6592b8)" d="M 263.816264 195.163579 
L 263.820545 194.948735 
L 270.966731 187.907126 
L 270.961723 188.120663 
z
" style="fill:#0b0777;"/>
    <path clip-path="url(#p5b3b6592b8)" d="M 263.816264 195.163579 
L 270.961723 188.120663 
L 270.969923 187.771027 
L 263.823274 194.811804 
z
" style="fill:#050338;"/>
    <path clip-path="url(#p5b3b6592b8)" d="M 183.178635 188.911464 
L 183.080298 184.163774 
L 196.000928 188.205444 
L 196.068846 192.969946 
z
" style="fill:#13023e;"/>
    <path clip-path="url(#p5b3b6592b8)" d="M 175.173234 195.969799 
L 183.178635 188.911464 
L 183.163784 188.194477 
L 175.155323 195.248421 
z
" style="fill:#070339;"/>
    <path clip-path="url(#p5b3b6592b8)" d="M 229.891821 194.06512 
L 237.351973 187.043183 
L 250.510457 191.080779 
L 243.136481 198.181496 
z
" style="fill:#11034c;"/>
    <path clip-path="url(#p5b3b6592b8)" d="M 250.510457 191.080779 
L 263.816264 195.163579 
L 263.823274 194.811804 
L 250.515078 190.730241 
z
" style="fill:#0b0777;"/>
    <path clip-path="url(#p5b3b6592b8)" d="M 250.510457 191.080779 
L 250.518003 190.508379 
L 263.827711 194.589158 
L 263.816264 195.163579 
z
" style="fill:#070339;"/>
    <path clip-path="url(#p5b3b6592b8)" d="M 175.173234 195.969799 
L 175.054629 191.19294 
L 183.080298 184.163774 
L 183.178635 188.911464 
z
" style="fill:#280484;"/>
    <path clip-path="url(#p5b3b6592b8)" d="M 141.344465 194.868925 
L 149.662704 187.831639 
L 162.346885 191.878042 
L 154.105465 198.994368 
z
" style="fill:#070448;"/>
    <path clip-path="url(#p5b3b6592b8)" d="M 141.333132 194.598382 
L 154.095821 198.722869 
L 162.338454 191.608197 
L 149.652605 187.562742 
z
" style="fill:#0a0667;"/>
    <path clip-path="url(#p5b3b6592b8)" d="M 229.899401 191.359756 
L 243.162284 195.466555 
L 250.546034 188.382399 
L 237.369565 184.354304 
z
" style="fill:#18046d;"/>
    <path clip-path="url(#p5b3b6592b8)" d="M 263.816264 195.163579 
L 270.961723 188.120663 
L 284.327244 192.170297 
L 277.271882 199.292348 
z
" style="fill:#070448;"/>
    <path clip-path="url(#p5b3b6592b8)" d="M 263.820545 194.948735 
L 277.277655 199.076745 
L 284.333724 191.956007 
L 270.966731 187.907126 
z
" style="fill:#0a0667;"/>
    <path clip-path="url(#p5b3b6592b8)" d="M 211.467294 179.100638 
L 211.014 108.769925 
L 224.338378 112.458292 
L 224.338378 183.050047 
z
" style="fill:#694815;"/>
    <path clip-path="url(#p5b3b6592b8)" d="M 162.346885 191.878042 
L 175.173234 195.969799 
L 175.155323 195.248421 
L 162.324427 191.159204 
z
" style="fill:#0e0678;"/>
    <path clip-path="url(#p5b3b6592b8)" d="M 162.346885 191.878042 
L 162.322101 191.084754 
L 175.153468 195.173708 
L 175.173234 195.969799 
z
" style="fill:#080339;"/>
    <path clip-path="url(#p5b3b6592b8)" d="M 237.351973 187.043183 
L 244.670417 180.154631 
L 245.26347 121.935748 
L 237.735306 128.452524 
z
" style="fill:#633422;"/>
    <path clip-path="url(#p5b3b6592b8)" d="M 175.173234 195.969799 
L 183.178635 188.911464 
L 196.068846 192.969946 
L 188.144156 200.107676 
z
" style="fill:#18034f;"/>
    <path clip-path="url(#p5b3b6592b8)" d="M 243.136481 198.181496 
L 243.141955 197.605589 
L 250.518003 190.508379 
L 250.510457 191.080779 
z
" style="fill:#0e0678;"/>
    <path clip-path="url(#p5b3b6592b8)" d="M 243.136481 198.181496 
L 250.510457 191.080779 
L 250.546034 188.382399 
L 243.162284 195.466555 
z
" style="fill:#0d023b;"/>
    <path clip-path="url(#p5b3b6592b8)" d="M 203.841786 185.968896 
L 203.11278 115.185136 
L 211.014 108.769925 
L 211.467294 179.100638 
z
" style="fill:#df982d;"/>
    <path clip-path="url(#p5b3b6592b8)" d="M 154.105465 198.994368 
L 162.346885 191.878042 
L 162.338454 191.608197 
L 154.095821 198.722869 
z
" style="fill:#050338;"/>
    <path clip-path="url(#p5b3b6592b8)" d="M 154.105465 198.994368 
L 154.077113 198.196217 
L 162.322101 191.084754 
L 162.346885 191.878042 
z
" style="fill:#110679;"/>
    <path clip-path="url(#p5b3b6592b8)" d="M 209.103753 197.073984 
L 216.794403 189.994506 
L 229.891821 194.06512 
L 222.285805 201.224351 
z
" style="fill:#867213;"/>
    <path clip-path="url(#p5b3b6592b8)" d="M 224.338378 183.050047 
L 237.351973 187.043183 
L 237.735306 128.452524 
L 224.338378 124.674454 
z
" style="fill:#d36e47;"/>
    <path clip-path="url(#p5b3b6592b8)" d="M 277.271882 199.292348 
L 284.327244 192.170297 
L 284.333724 191.956007 
L 277.277655 199.076745 
z
" style="fill:#050338;"/>
    <path clip-path="url(#p5b3b6592b8)" d="M 175.054629 191.19294 
L 188.056348 195.313869 
L 196.000928 188.205444 
L 183.080298 184.163774 
z
" style="fill:#230472;"/>
    <path clip-path="url(#p5b3b6592b8)" d="M 229.891821 194.06512 
L 243.136481 198.181496 
L 243.162284 195.466555 
L 229.899401 191.359756 
z
" style="fill:#1c057e;"/>
    <path clip-path="url(#p5b3b6592b8)" d="M 243.136481 198.181496 
L 250.510457 191.080779 
L 263.816264 195.163579 
L 256.530882 202.34441 
z
" style="fill:#090449;"/>
    <path clip-path="url(#p5b3b6592b8)" d="M 229.891821 194.06512 
L 229.903032 190.063841 
L 243.174644 194.166037 
L 243.136481 198.181496 
z
" style="fill:#11023d;"/>
    <path clip-path="url(#p5b3b6592b8)" d="M 243.141955 197.605589 
L 256.540308 201.766466 
L 263.827711 194.589158 
L 250.518003 190.508379 
z
" style="fill:#0c0668;"/>
    <path clip-path="url(#p5b3b6592b8)" d="M 141.344465 194.868925 
L 154.105465 198.994368 
L 154.095821 198.722869 
L 141.333132 194.598382 
z
" style="fill:#0b0777;"/>
    <path clip-path="url(#p5b3b6592b8)" d="M 263.816264 195.163579 
L 263.819847 194.983763 
L 277.276714 199.111896 
L 277.271882 199.292348 
z
" style="fill:#050338;"/>
    <path clip-path="url(#p5b3b6592b8)" d="M 263.816264 195.163579 
L 277.271882 199.292348 
L 277.277655 199.076745 
L 263.820545 194.948735 
z
" style="fill:#0b0777;"/>
    <path clip-path="url(#p5b3b6592b8)" d="M 188.144156 200.107676 
L 196.068846 192.969946 
L 196.000928 188.205444 
L 188.056348 195.313869 
z
" style="fill:#13023e;"/>
    <path clip-path="url(#p5b3b6592b8)" d="M 154.105465 198.994368 
L 162.346885 191.878042 
L 175.173234 195.969799 
L 167.010898 203.166503 
z
" style="fill:#0a0449;"/>
    <path clip-path="url(#p5b3b6592b8)" d="M 154.077113 198.196217 
L 166.987624 202.365527 
L 175.153468 195.173708 
L 162.322101 191.084754 
z
" style="fill:#0f0569;"/>
    <path clip-path="url(#p5b3b6592b8)" d="M 211.103848 122.710291 
L 224.338378 126.452575 
L 231.947975 119.997354 
L 218.798827 116.327202 
z
" style="fill:#b55b41;"/>
    <path clip-path="url(#p5b3b6592b8)" d="M 224.338378 183.050047 
L 224.338378 112.039194 
L 237.818294 115.768212 
L 237.351973 187.043183 
z
" style="fill:#694815;"/>
    <path clip-path="url(#p5b3b6592b8)" d="M 222.285805 201.224351 
L 222.281621 197.198471 
L 229.903032 190.063841 
L 229.891821 194.06512 
z
" style="fill:#230581;"/>
    <path clip-path="url(#p5b3b6592b8)" d="M 188.144156 200.107676 
L 196.068846 192.969946 
L 209.103753 197.073984 
L 201.262108 204.292457 
z
" style="fill:#827d15;"/>
    <path clip-path="url(#p5b3b6592b8)" d="M 256.530882 202.34441 
L 256.533832 202.163491 
L 263.819847 194.983763 
L 263.816264 195.163579 
z
" style="fill:#0b0777;"/>
    <path clip-path="url(#p5b3b6592b8)" d="M 256.530882 202.34441 
L 263.816264 195.163579 
L 263.827711 194.589158 
L 256.540308 201.766466 
z
" style="fill:#070339;"/>
    <path clip-path="url(#p5b3b6592b8)" d="M 175.173234 195.969799 
L 188.144156 200.107676 
L 188.056348 195.313869 
L 175.054629 191.19294 
z
" style="fill:#280484;"/>
    <path clip-path="url(#p5b3b6592b8)" d="M 175.173234 195.969799 
L 175.044809 190.797425 
L 188.049078 194.916945 
L 188.144156 200.107676 
z
" style="fill:#14023e;"/>
    <path clip-path="url(#p5b3b6592b8)" d="M 216.794403 189.994506 
L 224.338378 183.050047 
L 224.338378 112.458292 
L 216.52454 118.947219 
z
" style="fill:#694815;"/>
    <path clip-path="url(#p5b3b6592b8)" d="M 216.794403 189.994506 
L 216.522937 118.525271 
L 224.338378 112.039194 
L 224.338378 183.050047 
z
" style="fill:#df992c;"/>
    <path clip-path="url(#p5b3b6592b8)" d="M 167.010898 203.166503 
L 175.173234 195.969799 
L 175.153468 195.173708 
L 166.987624 202.365527 
z
" style="fill:#080339;"/>
    <path clip-path="url(#p5b3b6592b8)" d="M 222.285805 201.224351 
L 229.891821 194.06512 
L 243.136481 198.181496 
L 235.617509 205.421836 
z
" style="fill:#15034e;"/>
    <path clip-path="url(#p5b3b6592b8)" d="M 243.136481 198.181496 
L 256.530882 202.34441 
L 256.540308 201.766466 
L 243.141955 197.605589 
z
" style="fill:#0e0678;"/>
    <path clip-path="url(#p5b3b6592b8)" d="M 243.136481 198.181496 
L 243.143685 197.423553 
L 256.543288 201.583786 
L 256.530882 202.34441 
z
" style="fill:#080339;"/>
    <path clip-path="url(#p5b3b6592b8)" d="M 167.010898 203.166503 
L 166.859679 197.96228 
L 175.044809 190.797425 
L 175.173234 195.969799 
z
" style="fill:#2a0484;"/>
    <path clip-path="url(#p5b3b6592b8)" d="M 256.530882 202.34441 
L 263.816264 195.163579 
L 277.271882 199.292348 
L 270.077576 206.554656 
z
" style="fill:#070448;"/>
    <path clip-path="url(#p5b3b6592b8)" d="M 256.533832 202.163491 
L 270.081792 206.373097 
L 277.276714 199.111896 
L 263.819847 194.983763 
z
" style="fill:#0a0667;"/>
    <path clip-path="url(#p5b3b6592b8)" d="M 203.841786 185.968896 
L 216.794403 189.994506 
L 216.52454 118.947219 
L 203.11278 115.185136 
z
" style="fill:#df982d;"/>
    <path clip-path="url(#p5b3b6592b8)" d="M 222.281621 197.198471 
L 235.640633 201.381662 
L 243.174644 194.166037 
L 229.903032 190.063841 
z
" style="fill:#1f0470;"/>
    <path clip-path="url(#p5b3b6592b8)" d="M 154.105465 198.994368 
L 167.010898 203.166503 
L 166.987624 202.365527 
L 154.077113 198.196217 
z
" style="fill:#110679;"/>
    <path clip-path="url(#p5b3b6592b8)" d="M 167.010898 203.166503 
L 175.173234 195.969799 
L 188.144156 200.107676 
L 180.063228 207.386128 
z
" style="fill:#190350;"/>
    <path clip-path="url(#p5b3b6592b8)" d="M 235.617509 205.421836 
L 235.621874 204.659241 
L 243.143685 197.423553 
L 243.136481 198.181496 
z
" style="fill:#110679;"/>
    <path clip-path="url(#p5b3b6592b8)" d="M 235.617509 205.421836 
L 243.136481 198.181496 
L 243.174644 194.166037 
L 235.640633 201.381662 
z
" style="fill:#11023d;"/>
    <path clip-path="url(#p5b3b6592b8)" d="M 224.338378 124.674454 
L 237.735306 128.452524 
L 245.26347 121.935748 
L 231.954513 118.23097 
z
" style="fill:#b75f3e;"/>
    <path clip-path="url(#p5b3b6592b8)" d="M 201.262108 204.292457 
L 209.103753 197.073984 
L 222.285805 201.224351 
L 214.529606 208.524945 
z
" style="fill:#808512;"/>
    <path clip-path="url(#p5b3b6592b8)" d="M 270.077576 206.554656 
L 277.271882 199.292348 
L 277.276714 199.111896 
L 270.081792 206.373097 
z
" style="fill:#050338;"/>
    <path clip-path="url(#p5b3b6592b8)" d="M 203.841786 185.968896 
L 202.995526 103.800288 
L 216.481125 107.517362 
L 216.794403 189.994506 
z
" style="fill:#685d0f;"/>
    <path clip-path="url(#p5b3b6592b8)" d="M 166.859679 197.96228 
L 179.945773 202.163402 
L 188.049078 194.916945 
L 175.044809 190.797425 
z
" style="fill:#240473;"/>
    <path clip-path="url(#p5b3b6592b8)" d="M 229.891821 194.06512 
L 237.351973 187.043183 
L 237.818294 115.768212 
L 230.092816 122.329265 
z
" style="fill:#694815;"/>
    <path clip-path="url(#p5b3b6592b8)" d="M 235.617509 205.421836 
L 243.136481 198.181496 
L 256.530882 202.34441 
L 249.101427 209.667246 
z
" style="fill:#0a0449;"/>
    <path clip-path="url(#p5b3b6592b8)" d="M 222.285805 201.224351 
L 235.617509 205.421836 
L 235.640633 201.381662 
L 222.281621 197.198471 
z
" style="fill:#230581;"/>
    <path clip-path="url(#p5b3b6592b8)" d="M 235.621874 204.659241 
L 249.111064 208.901948 
L 256.543288 201.583786 
L 243.143685 197.423553 
z
" style="fill:#0f0569;"/>
    <path clip-path="url(#p5b3b6592b8)" d="M 222.285805 201.224351 
L 222.2802 195.831319 
L 235.648485 200.009635 
L 235.617509 205.421836 
z
" style="fill:#15023f;"/>
    <path clip-path="url(#p5b3b6592b8)" d="M 256.530882 202.34441 
L 256.533651 202.174599 
L 270.081533 206.384244 
L 270.077576 206.554656 
z
" style="fill:#050338;"/>
    <path clip-path="url(#p5b3b6592b8)" d="M 256.530882 202.34441 
L 270.077576 206.554656 
L 270.081792 206.373097 
L 256.533832 202.163491 
z
" style="fill:#0b0777;"/>
    <path clip-path="url(#p5b3b6592b8)" d="M 196.068846 192.969946 
L 194.889905 110.265851 
L 202.995526 103.800288 
L 203.841786 185.968896 
z
" style="fill:#dbc520;"/>
    <path clip-path="url(#p5b3b6592b8)" d="M 180.063228 207.386128 
L 188.144156 200.107676 
L 188.049078 194.916945 
L 179.945773 202.163402 
z
" style="fill:#14023e;"/>
    <path clip-path="url(#p5b3b6592b8)" d="M 216.794403 189.994506 
L 229.891821 194.06512 
L 230.092816 122.329265 
L 216.522937 118.525271 
z
" style="fill:#df992c;"/>
    <path clip-path="url(#p5b3b6592b8)" d="M 180.063228 207.386128 
L 188.144156 200.107676 
L 201.262108 204.292457 
L 193.264978 211.654059 
z
" style="fill:#876c14;"/>
    <path clip-path="url(#p5b3b6592b8)" d="M 214.529606 208.524945 
L 214.502555 203.098656 
L 222.2802 195.831319 
L 222.285805 201.224351 
z
" style="fill:#2c0485;"/>
    <path clip-path="url(#p5b3b6592b8)" d="M 249.101427 209.667246 
L 249.103578 209.496392 
L 256.533651 202.174599 
L 256.530882 202.34441 
z
" style="fill:#0b0777;"/>
    <path clip-path="url(#p5b3b6592b8)" d="M 249.101427 209.667246 
L 256.530882 202.34441 
L 256.543288 201.583786 
L 249.111064 208.901948 
z
" style="fill:#080339;"/>
    <path clip-path="url(#p5b3b6592b8)" d="M 167.010898 203.166503 
L 180.063228 207.386128 
L 179.945773 202.163402 
L 166.859679 197.96228 
z
" style="fill:#2a0484;"/>
    <path clip-path="url(#p5b3b6592b8)" d="M 216.794403 189.994506 
L 216.488876 109.557909 
L 230.118041 113.326412 
L 229.891821 194.06512 
z
" style="fill:#68590f;"/>
    <path clip-path="url(#p5b3b6592b8)" d="M 214.529606 208.524945 
L 222.285805 201.224351 
L 235.617509 205.421836 
L 227.94922 212.80596 
z
" style="fill:#1a0250;"/>
    <path clip-path="url(#p5b3b6592b8)" d="M 235.617509 205.421836 
L 235.621421 204.738384 
L 249.110064 208.981371 
L 249.101427 209.667246 
z
" style="fill:#070339;"/>
    <path clip-path="url(#p5b3b6592b8)" d="M 235.617509 205.421836 
L 249.101427 209.667246 
L 249.111064 208.901948 
L 235.621874 204.659241 
z
" style="fill:#110679;"/>
    <path clip-path="url(#p5b3b6592b8)" d="M 249.101427 209.667246 
L 256.530882 202.34441 
L 270.077576 206.554656 
L 262.740181 213.961405 
z
" style="fill:#070448;"/>
    <path clip-path="url(#p5b3b6592b8)" d="M 249.103578 209.496392 
L 262.743536 213.789946 
L 270.081533 206.384244 
L 256.533651 202.174599 
z
" style="fill:#0a0667;"/>
    <path clip-path="url(#p5b3b6592b8)" d="M 209.103753 197.073984 
L 208.480515 116.113064 
L 216.488876 109.557909 
L 216.794403 189.994506 
z
" style="fill:#ddbe20;"/>
    <path clip-path="url(#p5b3b6592b8)" d="M 209.103753 197.073984 
L 216.794403 189.994506 
L 216.481125 107.517362 
L 208.464699 114.058387 
z
" style="fill:#685d0f;"/>
    <path clip-path="url(#p5b3b6592b8)" d="M 214.502555 203.098656 
L 227.959236 207.360352 
L 235.648485 200.009635 
L 222.2802 195.831319 
z
" style="fill:#260473;"/>
    <path clip-path="url(#p5b3b6592b8)" d="M 227.94922 212.80596 
L 227.950485 212.118305 
L 235.621421 204.738384 
L 235.617509 205.421836 
z
" style="fill:#0e0678;"/>
    <path clip-path="url(#p5b3b6592b8)" d="M 193.264978 211.654059 
L 201.262108 204.292457 
L 214.529606 208.524945 
L 206.61873 215.971129 
z
" style="fill:#867213;"/>
    <path clip-path="url(#p5b3b6592b8)" d="M 227.94922 212.80596 
L 235.617509 205.421836 
L 235.648485 200.009635 
L 227.959236 207.360352 
z
" style="fill:#15023f;"/>
    <path clip-path="url(#p5b3b6592b8)" d="M 203.11278 115.185136 
L 216.52454 118.947219 
L 224.338378 112.458292 
L 211.014 108.769925 
z
" style="fill:#c28427;"/>
    <path clip-path="url(#p5b3b6592b8)" d="M 262.740181 213.961405 
L 270.077576 206.554656 
L 270.081533 206.384244 
L 262.743536 213.789946 
z
" style="fill:#050338;"/>
    <path clip-path="url(#p5b3b6592b8)" d="M 196.068846 192.969946 
L 209.103753 197.073984 
L 208.464699 114.058387 
L 194.889905 110.265851 
z
" style="fill:#dbc520;"/>
    <path clip-path="url(#p5b3b6592b8)" d="M 196.068846 192.969946 
L 194.857208 107.972185 
L 208.446971 111.755527 
L 209.103753 197.073984 
z
" style="fill:#666210;"/>
    <path clip-path="url(#p5b3b6592b8)" d="M 227.94922 212.80596 
L 235.617509 205.421836 
L 249.101427 209.667246 
L 241.523583 217.136342 
z
" style="fill:#090449;"/>
    <path clip-path="url(#p5b3b6592b8)" d="M 227.950485 212.118305 
L 241.529636 216.446246 
L 249.110064 208.981371 
L 235.621421 204.738384 
z
" style="fill:#0c0668;"/>
    <path clip-path="url(#p5b3b6592b8)" d="M 214.529606 208.524945 
L 214.504508 203.490445 
L 227.958512 207.753542 
L 227.94922 212.80596 
z
" style="fill:#13023e;"/>
    <path clip-path="url(#p5b3b6592b8)" d="M 214.529606 208.524945 
L 227.94922 212.80596 
L 227.959236 207.360352 
L 214.502555 203.098656 
z
" style="fill:#2c0485;"/>
    <path clip-path="url(#p5b3b6592b8)" d="M 249.101427 209.667246 
L 262.740181 213.961405 
L 262.743536 213.789946 
L 249.103578 209.496392 
z
" style="fill:#0b0777;"/>
    <path clip-path="url(#p5b3b6592b8)" d="M 249.101427 209.667246 
L 249.104052 209.458757 
L 262.744275 213.752177 
L 262.740181 213.961405 
z
" style="fill:#050338;"/>
    <path clip-path="url(#p5b3b6592b8)" d="M 188.144156 200.107676 
L 186.577066 114.553332 
L 194.857208 107.972185 
L 196.068846 192.969946 
z
" style="fill:#d8d022;"/>
    <path clip-path="url(#p5b3b6592b8)" d="M 222.285805 201.224351 
L 229.891821 194.06512 
L 230.118041 113.326412 
L 222.201343 119.958447 
z
" style="fill:#68590f;"/>
    <path clip-path="url(#p5b3b6592b8)" d="M 206.61873 215.971129 
L 206.572937 210.905543 
L 214.504508 203.490445 
L 214.529606 208.524945 
z
" style="fill:#280484;"/>
    <path clip-path="url(#p5b3b6592b8)" d="M 241.523583 217.136342 
L 241.525423 216.92657 
L 249.104052 209.458757 
L 249.101427 209.667246 
z
" style="fill:#0b0777;"/>
    <path clip-path="url(#p5b3b6592b8)" d="M 241.523583 217.136342 
L 249.101427 209.667246 
L 249.110064 208.981371 
L 241.529636 216.446246 
z
" style="fill:#070339;"/>
    <path clip-path="url(#p5b3b6592b8)" d="M 209.103753 197.073984 
L 222.285805 201.224351 
L 222.201343 119.958447 
L 208.480515 116.113064 
z
" style="fill:#ddbe20;"/>
    <path clip-path="url(#p5b3b6592b8)" d="M 206.61873 215.971129 
L 214.529606 208.524945 
L 227.94922 212.80596 
L 220.127123 220.338193 
z
" style="fill:#18034f;"/>
    <path clip-path="url(#p5b3b6592b8)" d="M 216.522937 118.525271 
L 230.092816 122.329265 
L 237.818294 115.768212 
L 224.338378 112.039194 
z
" style="fill:#c28526;"/>
    <path clip-path="url(#p5b3b6592b8)" d="M 227.94922 212.80596 
L 227.95032 212.207982 
L 241.528847 216.536241 
L 241.523583 217.136342 
z
" style="fill:#070339;"/>
    <path clip-path="url(#p5b3b6592b8)" d="M 227.94922 212.80596 
L 241.523583 217.136342 
L 241.529636 216.446246 
L 227.950485 212.118305 
z
" style="fill:#0e0678;"/>
    <path clip-path="url(#p5b3b6592b8)" d="M 241.523583 217.136342 
L 249.101427 209.667246 
L 262.740181 213.961405 
L 255.255385 221.516949 
z
" style="fill:#070448;"/>
    <path clip-path="url(#p5b3b6592b8)" d="M 241.525423 216.92657 
L 255.258715 221.306432 
L 262.744275 213.752177 
L 249.104052 209.458757 
z
" style="fill:#0a0667;"/>
    <path clip-path="url(#p5b3b6592b8)" d="M 209.103753 197.073984 
L 208.422991 108.640423 
L 222.193545 112.455764 
L 222.285805 201.224351 
z
" style="fill:#64680e;"/>
    <path clip-path="url(#p5b3b6592b8)" d="M 206.572937 210.905543 
L 220.116176 215.254551 
L 227.958512 207.753542 
L 214.504508 203.490445 
z
" style="fill:#230472;"/>
    <path clip-path="url(#p5b3b6592b8)" d="M 220.127123 220.338193 
L 220.125827 219.736533 
L 227.95032 212.207982 
L 227.94922 212.80596 
z
" style="fill:#0e0678;"/>
    <path clip-path="url(#p5b3b6592b8)" d="M 201.262108 204.292457 
L 209.103753 197.073984 
L 208.446971 111.755527 
L 200.257073 118.414357 
z
" style="fill:#666210;"/>
    <path clip-path="url(#p5b3b6592b8)" d="M 188.144156 200.107676 
L 186.701808 121.363565 
L 200.337093 125.251906 
L 201.262108 204.292457 
z
" style="fill:#695510;"/>
    <path clip-path="url(#p5b3b6592b8)" d="M 201.262108 204.292457 
L 200.220362 115.277443 
L 208.422991 108.640423 
L 209.103753 197.073984 
z
" style="fill:#d4dc1e;"/>
    <path clip-path="url(#p5b3b6592b8)" d="M 220.127123 220.338193 
L 227.94922 212.80596 
L 227.958512 207.753542 
L 220.116176 215.254551 
z
" style="fill:#13023e;"/>
    <path clip-path="url(#p5b3b6592b8)" d="M 255.255385 221.516949 
L 262.740181 213.961405 
L 262.744275 213.752177 
L 255.258715 221.306432 
z
" style="fill:#050338;"/>
    <path clip-path="url(#p5b3b6592b8)" d="M 188.144156 200.107676 
L 201.262108 204.292457 
L 200.257073 118.414357 
L 186.577066 114.553332 
z
" style="fill:#d8d022;"/>
    <path clip-path="url(#p5b3b6592b8)" d="M 180.063228 207.386128 
L 178.280761 128.127558 
L 186.701808 121.363565 
L 188.144156 200.107676 
z
" style="fill:#dfb321;"/>
    <path clip-path="url(#p5b3b6592b8)" d="M 220.127123 220.338193 
L 227.94922 212.80596 
L 241.523583 217.136342 
L 233.792858 224.756123 
z
" style="fill:#090449;"/>
    <path clip-path="url(#p5b3b6592b8)" d="M 220.125827 219.736533 
L 233.795784 224.152326 
L 241.528847 216.536241 
L 227.95032 212.207982 
z
" style="fill:#0c0668;"/>
    <path clip-path="url(#p5b3b6592b8)" d="M 206.61873 215.971129 
L 220.127123 220.338193 
L 220.116176 215.254551 
L 206.572937 210.905543 
z
" style="fill:#280484;"/>
    <path clip-path="url(#p5b3b6592b8)" d="M 241.523583 217.136342 
L 255.255385 221.516949 
L 255.258715 221.306432 
L 241.525423 216.92657 
z
" style="fill:#0b0777;"/>
    <path clip-path="url(#p5b3b6592b8)" d="M 241.523583 217.136342 
L 241.526236 216.833868 
L 255.260187 221.2134 
L 255.255385 221.516949 
z
" style="fill:#050338;"/>
    <path clip-path="url(#p5b3b6592b8)" d="M 233.792858 224.756123 
L 233.794333 224.451786 
L 241.526236 216.833868 
L 241.523583 217.136342 
z
" style="fill:#0b0777;"/>
    <path clip-path="url(#p5b3b6592b8)" d="M 233.792858 224.756123 
L 241.523583 217.136342 
L 241.528847 216.536241 
L 233.795784 224.152326 
z
" style="fill:#070339;"/>
    <path clip-path="url(#p5b3b6592b8)" d="M 214.529606 208.524945 
L 222.285805 201.224351 
L 222.193545 112.455764 
L 214.084164 119.171711 
z
" style="fill:#64680e;"/>
    <path clip-path="url(#p5b3b6592b8)" d="M 201.262108 204.292457 
L 200.310939 123.017069 
L 214.122903 126.94257 
L 214.529606 208.524945 
z
" style="fill:#69590f;"/>
    <path clip-path="url(#p5b3b6592b8)" d="M 194.889905 110.265851 
L 208.464699 114.058387 
L 216.481125 107.517362 
L 202.995526 103.800288 
z
" style="fill:#bfab1c;"/>
    <path clip-path="url(#p5b3b6592b8)" d="M 220.127123 220.338193 
L 233.792858 224.756123 
L 233.795784 224.152326 
L 220.125827 219.736533 
z
" style="fill:#0e0678;"/>
    <path clip-path="url(#p5b3b6592b8)" d="M 193.264978 211.654059 
L 201.262108 204.292457 
L 200.337093 125.251906 
L 192.006548 132.096293 
z
" style="fill:#695510;"/>
    <path clip-path="url(#p5b3b6592b8)" d="M 233.792858 224.756123 
L 241.523583 217.136342 
L 255.255385 221.516949 
L 247.618703 229.225814 
z
" style="fill:#070448;"/>
    <path clip-path="url(#p5b3b6592b8)" d="M 201.262108 204.292457 
L 214.529606 208.524945 
L 214.084164 119.171711 
L 200.220362 115.277443 
z
" style="fill:#d4dc1e;"/>
    <path clip-path="url(#p5b3b6592b8)" d="M 233.794333 224.451786 
L 247.622355 228.920395 
L 255.260187 221.2134 
L 241.526236 216.833868 
z
" style="fill:#0a0667;"/>
    <path clip-path="url(#p5b3b6592b8)" d="M 193.264978 211.654059 
L 191.970952 129.845912 
L 200.310939 123.017069 
L 201.262108 204.292457 
z
" style="fill:#debc20;"/>
    <path clip-path="url(#p5b3b6592b8)" d="M 180.063228 207.386128 
L 193.264978 211.654059 
L 192.006548 132.096293 
L 178.280761 128.127558 
z
" style="fill:#dfb321;"/>
    <path clip-path="url(#p5b3b6592b8)" d="M 247.618703 229.225814 
L 255.255385 221.516949 
L 255.260187 221.2134 
L 247.622355 228.920395 
z
" style="fill:#050338;"/>
    <path clip-path="url(#p5b3b6592b8)" d="M 208.480515 116.113064 
L 222.201343 119.958447 
L 230.118041 113.326412 
L 216.488876 109.557909 
z
" style="fill:#c0a51c;"/>
    <path clip-path="url(#p5b3b6592b8)" d="M 233.792858 224.756123 
L 247.618703 229.225814 
L 247.622355 228.920395 
L 233.794333 224.451786 
z
" style="fill:#0b0777;"/>
    <path clip-path="url(#p5b3b6592b8)" d="M 206.61873 215.971129 
L 214.529606 208.524945 
L 214.122903 126.94257 
L 205.876384 133.853155 
z
" style="fill:#69590f;"/>
    <path clip-path="url(#p5b3b6592b8)" d="M 193.264978 211.654059 
L 206.61873 215.971129 
L 205.876384 133.853155 
L 191.970952 129.845912 
z
" style="fill:#debc20;"/>
    <path clip-path="url(#p5b3b6592b8)" d="M 186.577066 114.553332 
L 200.257073 118.414357 
L 208.446971 111.755527 
L 194.857208 107.972185 
z
" style="fill:#bcb41e;"/>
    <path clip-path="url(#p5b3b6592b8)" d="M 178.280761 128.127558 
L 192.006548 132.096293 
L 200.337093 125.251906 
L 186.701808 121.363565 
z
" style="fill:#c29c1d;"/>
    <path clip-path="url(#p5b3b6592b8)" d="M 200.220362 115.277443 
L 214.084164 119.171711 
L 222.193545 112.455764 
L 208.422991 108.640423 
z
" style="fill:#b8bf1a;"/>
    <path clip-path="url(#p5b3b6592b8)" d="M 191.970952 129.845912 
L 205.876384 133.853155 
L 214.122903 126.94257 
L 200.310939 123.017069 
z
" style="fill:#c0a31c;"/>
   </g>
   <g id="text_17">
    <!-- W40__H05__A000_bars_extracted.txt -->
    <g transform="translate(110.101875 28.56)scale(0.12 -0.12)">
     <defs>
      <path d="M 3.328125 72.90625 
L 13.28125 72.90625 
L 28.609375 11.28125 
L 43.890625 72.90625 
L 54.984375 72.90625 
L 70.3125 11.28125 
L 85.59375 72.90625 
L 95.609375 72.90625 
L 77.296875 0 
L 64.890625 0 
L 49.515625 63.28125 
L 33.984375 0 
L 21.578125 0 
z
" id="DejaVuSans-87"/>
      <path d="M 50.984375 -16.609375 
L 50.984375 -23.578125 
L -0.984375 -23.578125 
L -0.984375 -16.609375 
z
" id="DejaVuSans-95"/>
      <path d="M 9.8125 72.90625 
L 19.671875 72.90625 
L 19.671875 43.015625 
L 55.515625 43.015625 
L 55.515625 72.90625 
L 65.375 72.90625 
L 65.375 0 
L 55.515625 0 
L 55.515625 34.71875 
L 19.671875 34.71875 
L 19.671875 0 
L 9.8125 0 
z
" id="DejaVuSans-72"/>
      <path d="M 34.1875 63.1875 
L 20.796875 26.90625 
L 47.609375 26.90625 
z
M 28.609375 72.90625 
L 39.796875 72.90625 
L 67.578125 0 
L 57.328125 0 
L 50.6875 18.703125 
L 17.828125 18.703125 
L 11.1875 0 
L 0.78125 0 
z
" id="DejaVuSans-65"/>
      <path d="M 48.6875 27.296875 
Q 48.6875 37.203125 44.609375 42.84375 
Q 40.53125 48.484375 33.40625 48.484375 
Q 26.265625 48.484375 22.1875 42.84375 
Q 18.109375 37.203125 18.109375 27.296875 
Q 18.109375 17.390625 22.1875 11.75 
Q 26.265625 6.109375 33.40625 6.109375 
Q 40.53125 6.109375 44.609375 11.75 
Q 48.6875 17.390625 48.6875 27.296875 
z
M 18.109375 46.390625 
Q 20.953125 51.265625 25.265625 53.625 
Q 29.59375 56 35.59375 56 
Q 45.5625 56 51.78125 48.09375 
Q 58.015625 40.1875 58.015625 27.296875 
Q 58.015625 14.40625 51.78125 6.484375 
Q 45.5625 -1.421875 35.59375 -1.421875 
Q 29.59375 -1.421875 25.265625 0.953125 
Q 20.953125 3.328125 18.109375 8.203125 
L 18.109375 0 
L 9.078125 0 
L 9.078125 75.984375 
L 18.109375 75.984375 
z
" id="DejaVuSans-98"/>
      <path d="M 34.28125 27.484375 
Q 23.390625 27.484375 19.1875 25 
Q 14.984375 22.515625 14.984375 16.5 
Q 14.984375 11.71875 18.140625 8.90625 
Q 21.296875 6.109375 26.703125 6.109375 
Q 34.1875 6.109375 38.703125 11.40625 
Q 43.21875 16.703125 43.21875 25.484375 
L 43.21875 27.484375 
z
M 52.203125 31.203125 
L 52.203125 0 
L 43.21875 0 
L 43.21875 8.296875 
Q 40.140625 3.328125 35.546875 0.953125 
Q 30.953125 -1.421875 24.3125 -1.421875 
Q 15.921875 -1.421875 10.953125 3.296875 
Q 6 8.015625 6 15.921875 
Q 6 25.140625 12.171875 29.828125 
Q 18.359375 34.515625 30.609375 34.515625 
L 43.21875 34.515625 
L 43.21875 35.40625 
Q 43.21875 41.609375 39.140625 45 
Q 35.0625 48.390625 27.6875 48.390625 
Q 23 48.390625 18.546875 47.265625 
Q 14.109375 46.140625 10.015625 43.890625 
L 10.015625 52.203125 
Q 14.9375 54.109375 19.578125 55.046875 
Q 24.21875 56 28.609375 56 
Q 40.484375 56 46.34375 49.84375 
Q 52.203125 43.703125 52.203125 31.203125 
z
" id="DejaVuSans-97"/>
      <path d="M 41.109375 46.296875 
Q 39.59375 47.171875 37.8125 47.578125 
Q 36.03125 48 33.890625 48 
Q 26.265625 48 22.1875 43.046875 
Q 18.109375 38.09375 18.109375 28.8125 
L 18.109375 0 
L 9.078125 0 
L 9.078125 54.6875 
L 18.109375 54.6875 
L 18.109375 46.1875 
Q 20.953125 51.171875 25.484375 53.578125 
Q 30.03125 56 36.53125 56 
Q 37.453125 56 38.578125 55.875 
Q 39.703125 55.765625 41.0625 55.515625 
z
" id="DejaVuSans-114"/>
      <path d="M 44.28125 53.078125 
L 44.28125 44.578125 
Q 40.484375 46.53125 36.375 47.5 
Q 32.28125 48.484375 27.875 48.484375 
Q 21.1875 48.484375 17.84375 46.4375 
Q 14.5 44.390625 14.5 40.28125 
Q 14.5 37.15625 16.890625 35.375 
Q 19.28125 33.59375 26.515625 31.984375 
L 29.59375 31.296875 
Q 39.15625 29.25 43.1875 25.515625 
Q 47.21875 21.78125 47.21875 15.09375 
Q 47.21875 7.46875 41.1875 3.015625 
Q 35.15625 -1.421875 24.609375 -1.421875 
Q 20.21875 -1.421875 15.453125 -0.5625 
Q 10.6875 0.296875 5.421875 2 
L 5.421875 11.28125 
Q 10.40625 8.6875 15.234375 7.390625 
Q 20.0625 6.109375 24.8125 6.109375 
Q 31.15625 6.109375 34.5625 8.28125 
Q 37.984375 10.453125 37.984375 14.40625 
Q 37.984375 18.0625 35.515625 20.015625 
Q 33.0625 21.96875 24.703125 23.78125 
L 21.578125 24.515625 
Q 13.234375 26.265625 9.515625 29.90625 
Q 5.8125 33.546875 5.8125 39.890625 
Q 5.8125 47.609375 11.28125 51.796875 
Q 16.75 56 26.8125 56 
Q 31.78125 56 36.171875 55.265625 
Q 40.578125 54.546875 44.28125 53.078125 
z
" id="DejaVuSans-115"/>
      <path d="M 56.203125 29.59375 
L 56.203125 25.203125 
L 14.890625 25.203125 
Q 15.484375 15.921875 20.484375 11.0625 
Q 25.484375 6.203125 34.421875 6.203125 
Q 39.59375 6.203125 44.453125 7.46875 
Q 49.3125 8.734375 54.109375 11.28125 
L 54.109375 2.78125 
Q 49.265625 0.734375 44.1875 -0.34375 
Q 39.109375 -1.421875 33.890625 -1.421875 
Q 20.796875 -1.421875 13.15625 6.1875 
Q 5.515625 13.8125 5.515625 26.8125 
Q 5.515625 40.234375 12.765625 48.109375 
Q 20.015625 56 32.328125 56 
Q 43.359375 56 49.78125 48.890625 
Q 56.203125 41.796875 56.203125 29.59375 
z
M 47.21875 32.234375 
Q 47.125 39.59375 43.09375 43.984375 
Q 39.0625 48.390625 32.421875 48.390625 
Q 24.90625 48.390625 20.390625 44.140625 
Q 15.875 39.890625 15.1875 32.171875 
z
" id="DejaVuSans-101"/>
      <path d="M 54.890625 54.6875 
L 35.109375 28.078125 
L 55.90625 0 
L 45.3125 0 
L 29.390625 21.484375 
L 13.484375 0 
L 2.875 0 
L 24.125 28.609375 
L 4.6875 54.6875 
L 15.28125 54.6875 
L 29.78125 35.203125 
L 44.28125 54.6875 
z
" id="DejaVuSans-120"/>
      <path d="M 18.3125 70.21875 
L 18.3125 54.6875 
L 36.8125 54.6875 
L 36.8125 47.703125 
L 18.3125 47.703125 
L 18.3125 18.015625 
Q 18.3125 11.328125 20.140625 9.421875 
Q 21.96875 7.515625 27.59375 7.515625 
L 36.8125 7.515625 
L 36.8125 0 
L 27.59375 0 
Q 17.1875 0 13.234375 3.875 
Q 9.28125 7.765625 9.28125 18.015625 
L 9.28125 47.703125 
L 2.6875 47.703125 
L 2.6875 54.6875 
L 9.28125 54.6875 
L 9.28125 70.21875 
z
" id="DejaVuSans-116"/>
      <path d="M 48.78125 52.59375 
L 48.78125 44.1875 
Q 44.96875 46.296875 41.140625 47.34375 
Q 37.3125 48.390625 33.40625 48.390625 
Q 24.65625 48.390625 19.8125 42.84375 
Q 14.984375 37.3125 14.984375 27.296875 
Q 14.984375 17.28125 19.8125 11.734375 
Q 24.65625 6.203125 33.40625 6.203125 
Q 37.3125 6.203125 41.140625 7.25 
Q 44.96875 8.296875 48.78125 10.40625 
L 48.78125 2.09375 
Q 45.015625 0.34375 40.984375 -0.53125 
Q 36.96875 -1.421875 32.421875 -1.421875 
Q 20.0625 -1.421875 12.78125 6.34375 
Q 5.515625 14.109375 5.515625 27.296875 
Q 5.515625 40.671875 12.859375 48.328125 
Q 20.21875 56 33.015625 56 
Q 37.15625 56 41.109375 55.140625 
Q 45.0625 54.296875 48.78125 52.59375 
z
" id="DejaVuSans-99"/>
      <path d="M 45.40625 46.390625 
L 45.40625 75.984375 
L 54.390625 75.984375 
L 54.390625 0 
L 45.40625 0 
L 45.40625 8.203125 
Q 42.578125 3.328125 38.25 0.953125 
Q 33.9375 -1.421875 27.875 -1.421875 
Q 17.96875 -1.421875 11.734375 6.484375 
Q 5.515625 14.40625 5.515625 27.296875 
Q 5.515625 40.1875 11.734375 48.09375 
Q 17.96875 56 27.875 56 
Q 33.9375 56 38.25 53.625 
Q 42.578125 51.265625 45.40625 46.390625 
z
M 14.796875 27.296875 
Q 14.796875 17.390625 18.875 11.75 
Q 22.953125 6.109375 30.078125 6.109375 
Q 37.203125 6.109375 41.296875 11.75 
Q 45.40625 17.390625 45.40625 27.296875 
Q 45.40625 37.203125 41.296875 42.84375 
Q 37.203125 48.484375 30.078125 48.484375 
Q 22.953125 48.484375 18.875 42.84375 
Q 14.796875 37.203125 14.796875 27.296875 
z
" id="DejaVuSans-100"/>
      <path d="M 10.6875 12.40625 
L 21 12.40625 
L 21 0 
L 10.6875 0 
z
" id="DejaVuSans-46"/>
     </defs>
     <use xlink:href="#DejaVuSans-87"/>
     <use x="98.876953" xlink:href="#DejaVuSans-52"/>
     <use x="162.5" xlink:href="#DejaVuSans-48"/>
     <use x="226.123047" xlink:href="#DejaVuSans-95"/>
     <use x="276.123047" xlink:href="#DejaVuSans-95"/>
     <use x="326.123047" xlink:href="#DejaVuSans-72"/>
     <use x="401.318359" xlink:href="#DejaVuSans-48"/>
     <use x="464.941406" xlink:href="#DejaVuSans-53"/>
     <use x="528.564453" xlink:href="#DejaVuSans-95"/>
     <use x="578.564453" xlink:href="#DejaVuSans-95"/>
     <use x="628.564453" xlink:href="#DejaVuSans-65"/>
     <use x="696.972656" xlink:href="#DejaVuSans-48"/>
     <use x="760.595703" xlink:href="#DejaVuSans-48"/>
     <use x="824.21875" xlink:href="#DejaVuSans-48"/>
     <use x="887.841797" xlink:href="#DejaVuSans-95"/>
     <use x="937.841797" xlink:href="#DejaVuSans-98"/>
     <use x="1001.318359" xlink:href="#DejaVuSans-97"/>
     <use x="1062.597656" xlink:href="#DejaVuSans-114"/>
     <use x="1103.710938" xlink:href="#DejaVuSans-115"/>
     <use x="1155.810547" xlink:href="#DejaVuSans-95"/>
     <use x="1205.810547" xlink:href="#DejaVuSans-101"/>
     <use x="1265.583984" xlink:href="#DejaVuSans-120"/>
     <use x="1324.763672" xlink:href="#DejaVuSans-116"/>
     <use x="1363.972656" xlink:href="#DejaVuSans-114"/>
     <use x="1405.085938" xlink:href="#DejaVuSans-97"/>
     <use x="1466.365234" xlink:href="#DejaVuSans-99"/>
     <use x="1521.345703" xlink:href="#DejaVuSans-116"/>
     <use x="1560.554688" xlink:href="#DejaVuSans-101"/>
     <use x="1622.078125" xlink:href="#DejaVuSans-100"/>
     <use x="1685.554688" xlink:href="#DejaVuSans-46"/>
     <use x="1717.341797" xlink:href="#DejaVuSans-116"/>
     <use x="1756.550781" xlink:href="#DejaVuSans-120"/>
     <use x="1815.730469" xlink:href="#DejaVuSans-116"/>
    </g>
   </g>
  </g>
 </g>
 <defs>
  <clipPath id="p5b3b6592b8">
   <rect height="217.44" width="217.44" x="112.68" y="34.56"/>
  </clipPath>
 </defs>
</svg>
