<?xml version="1.0" encoding="utf-8" standalone="no"?>
<!DOCTYPE svg PUBLIC "-//W3C//DTD SVG 1.1//EN"
  "http://www.w3.org/Graphics/SVG/1.1/DTD/svg11.dtd">
<!-- Created with matplotlib (https://matplotlib.org/) -->
<svg height="288pt" version="1.1" viewBox="0 0 432 288" width="432pt" xmlns="http://www.w3.org/2000/svg" xmlns:xlink="http://www.w3.org/1999/xlink">
 <metadata>
  <rdf:RDF xmlns:cc="http://creativecommons.org/ns#" xmlns:dc="http://purl.org/dc/elements/1.1/" xmlns:rdf="http://www.w3.org/1999/02/22-rdf-syntax-ns#">
   <cc:Work>
    <dc:type rdf:resource="http://purl.org/dc/dcmitype/StillImage"/>
    <dc:date>2021-06-13T21:59:31.800939</dc:date>
    <dc:format>image/svg+xml</dc:format>
    <dc:creator>
     <cc:Agent>
      <dc:title>Matplotlib v3.3.4, https://matplotlib.org/</dc:title>
     </cc:Agent>
    </dc:creator>
   </cc:Work>
  </rdf:RDF>
 </metadata>
 <defs>
  <style type="text/css">*{stroke-linecap:butt;stroke-linejoin:round;}</style>
 </defs>
 <g id="figure_1">
  <g id="patch_1">
   <path d="M 0 288 
L 432 288 
L 432 0 
L 0 0 
z
" style="fill:#ffffff;"/>
  </g>
  <g id="patch_2">
   <path d="M 112.68 252 
L 330.12 252 
L 330.12 34.56 
L 112.68 34.56 
z
" style="fill:#ffffff;"/>
  </g>
  <g id="pane3d_1">
   <g id="patch_3">
    <path d="M 129.09822 198.386264 
L 200.904009 138.197228 
L 199.90584 51.393878 
L 124.663773 106.302111 
" style="fill:#f2f2f2;opacity:0.5;stroke:#f2f2f2;stroke-linejoin:miter;"/>
   </g>
  </g>
  <g id="pane3d_2">
   <g id="patch_4">
    <path d="M 200.904009 138.197228 
L 316.12668 171.68791 
L 320.238571 81.894718 
L 199.90584 51.393878 
" style="fill:#e6e6e6;opacity:0.5;stroke:#e6e6e6;stroke-linejoin:miter;"/>
   </g>
  </g>
  <g id="pane3d_3">
   <g id="patch_5">
    <path d="M 129.09822 198.386264 
L 251.239879 238.27773 
L 316.12668 171.68791 
L 200.904009 138.197228 
" style="fill:#ececec;opacity:0.5;stroke:#ececec;stroke-linejoin:miter;"/>
   </g>
  </g>
  <g id="axis3d_1">
   <g id="line2d_1">
    <path d="M 129.09822 198.386264 
L 251.239879 238.27773 
" style="fill:none;stroke:#000000;stroke-linecap:square;stroke-width:0.8;"/>
   </g>
   <g id="Line3DCollection_1">
    <path d="M 136.495759 200.802301 
L 207.911499 140.234029 
L 207.209612 53.245171 
" style="fill:none;stroke:#b0b0b0;stroke-width:0.8;"/>
    <path d="M 162.23134 209.207541 
L 232.260894 147.311436 
L 232.60309 59.681678 
" style="fill:none;stroke:#b0b0b0;stroke-width:0.8;"/>
    <path d="M 188.559037 217.806167 
L 257.123632 154.538053 
L 258.555303 66.259807 
" style="fill:none;stroke:#b0b0b0;stroke-width:0.8;"/>
    <path d="M 215.499525 226.604931 
L 282.516121 161.918647 
L 285.084894 72.984285 
" style="fill:none;stroke:#b0b0b0;stroke-width:0.8;"/>
    <path d="M 243.074449 235.610901 
L 308.455474 169.458193 
L 312.21135 79.860051 
" style="fill:none;stroke:#b0b0b0;stroke-width:0.8;"/>
   </g>
   <g id="xtick_1">
    <g id="line2d_2">
     <path d="M 137.117644 200.274876 
L 135.249322 201.859414 
" style="fill:none;stroke:#000000;stroke-linecap:square;stroke-width:0.8;"/>
    </g>
    <g id="text_1">
     <!-- 0 -->
     <g transform="translate(125.77919 224.124533)scale(0.1 -0.1)">
      <defs>
       <path d="M 31.78125 66.40625 
Q 24.171875 66.40625 20.328125 58.90625 
Q 16.5 51.421875 16.5 36.375 
Q 16.5 21.390625 20.328125 13.890625 
Q 24.171875 6.390625 31.78125 6.390625 
Q 39.453125 6.390625 43.28125 13.890625 
Q 47.125 21.390625 47.125 36.375 
Q 47.125 51.421875 43.28125 58.90625 
Q 39.453125 66.40625 31.78125 66.40625 
z
M 31.78125 74.21875 
Q 44.046875 74.21875 50.515625 64.515625 
Q 56.984375 54.828125 56.984375 36.375 
Q 56.984375 17.96875 50.515625 8.265625 
Q 44.046875 -1.421875 31.78125 -1.421875 
Q 19.53125 -1.421875 13.0625 8.265625 
Q 6.59375 17.96875 6.59375 36.375 
Q 6.59375 54.828125 13.0625 64.515625 
Q 19.53125 74.21875 31.78125 74.21875 
z
" id="DejaVuSans-48"/>
      </defs>
      <use xlink:href="#DejaVuSans-48"/>
     </g>
    </g>
   </g>
   <g id="xtick_2">
    <g id="line2d_3">
     <path d="M 162.841716 208.668056 
L 161.007937 210.288854 
" style="fill:none;stroke:#000000;stroke-linecap:square;stroke-width:0.8;"/>
    </g>
    <g id="text_2">
     <!-- 2 -->
     <g transform="translate(151.547192 232.748132)scale(0.1 -0.1)">
      <defs>
       <path d="M 19.1875 8.296875 
L 53.609375 8.296875 
L 53.609375 0 
L 7.328125 0 
L 7.328125 8.296875 
Q 12.9375 14.109375 22.625 23.890625 
Q 32.328125 33.6875 34.8125 36.53125 
Q 39.546875 41.84375 41.421875 45.53125 
Q 43.3125 49.21875 43.3125 52.78125 
Q 43.3125 58.59375 39.234375 62.25 
Q 35.15625 65.921875 28.609375 65.921875 
Q 23.96875 65.921875 18.8125 64.3125 
Q 13.671875 62.703125 7.8125 59.421875 
L 7.8125 69.390625 
Q 13.765625 71.78125 18.9375 73 
Q 24.125 74.21875 28.421875 74.21875 
Q 39.75 74.21875 46.484375 68.546875 
Q 53.21875 62.890625 53.21875 53.421875 
Q 53.21875 48.921875 51.53125 44.890625 
Q 49.859375 40.875 45.40625 35.40625 
Q 44.1875 33.984375 37.640625 27.21875 
Q 31.109375 20.453125 19.1875 8.296875 
z
" id="DejaVuSans-50"/>
      </defs>
      <use xlink:href="#DejaVuSans-50"/>
     </g>
    </g>
   </g>
   <g id="xtick_3">
    <g id="line2d_4">
     <path d="M 189.15721 217.254202 
L 187.360066 218.91252 
" style="fill:none;stroke:#000000;stroke-linecap:square;stroke-width:0.8;"/>
    </g>
    <g id="text_3">
     <!-- 4 -->
     <g transform="translate(177.91082 241.571064)scale(0.1 -0.1)">
      <defs>
       <path d="M 37.796875 64.3125 
L 12.890625 25.390625 
L 37.796875 25.390625 
z
M 35.203125 72.90625 
L 47.609375 72.90625 
L 47.609375 25.390625 
L 58.015625 25.390625 
L 58.015625 17.1875 
L 47.609375 17.1875 
L 47.609375 0 
L 37.796875 0 
L 37.796875 17.1875 
L 4.890625 17.1875 
L 4.890625 26.703125 
z
" id="DejaVuSans-52"/>
      </defs>
      <use xlink:href="#DejaVuSans-52"/>
     </g>
    </g>
   </g>
   <g id="xtick_4">
    <g id="line2d_5">
     <path d="M 216.084757 226.040048 
L 214.326462 227.737204 
" style="fill:none;stroke:#000000;stroke-linecap:square;stroke-width:0.8;"/>
    </g>
    <g id="text_4">
     <!-- 6 -->
     <g transform="translate(204.890965 250.600322)scale(0.1 -0.1)">
      <defs>
       <path d="M 33.015625 40.375 
Q 26.375 40.375 22.484375 35.828125 
Q 18.609375 31.296875 18.609375 23.390625 
Q 18.609375 15.53125 22.484375 10.953125 
Q 26.375 6.390625 33.015625 6.390625 
Q 39.65625 6.390625 43.53125 10.953125 
Q 47.40625 15.53125 47.40625 23.390625 
Q 47.40625 31.296875 43.53125 35.828125 
Q 39.65625 40.375 33.015625 40.375 
z
M 52.59375 71.296875 
L 52.59375 62.3125 
Q 48.875 64.0625 45.09375 64.984375 
Q 41.3125 65.921875 37.59375 65.921875 
Q 27.828125 65.921875 22.671875 59.328125 
Q 17.53125 52.734375 16.796875 39.40625 
Q 19.671875 43.65625 24.015625 45.921875 
Q 28.375 48.1875 33.59375 48.1875 
Q 44.578125 48.1875 50.953125 41.515625 
Q 57.328125 34.859375 57.328125 23.390625 
Q 57.328125 12.15625 50.6875 5.359375 
Q 44.046875 -1.421875 33.015625 -1.421875 
Q 20.359375 -1.421875 13.671875 8.265625 
Q 6.984375 17.96875 6.984375 36.375 
Q 6.984375 53.65625 15.1875 63.9375 
Q 23.390625 74.21875 37.203125 74.21875 
Q 40.921875 74.21875 44.703125 73.484375 
Q 48.484375 72.75 52.59375 71.296875 
z
" id="DejaVuSans-54"/>
      </defs>
      <use xlink:href="#DejaVuSans-54"/>
     </g>
    </g>
   </g>
   <g id="xtick_5">
    <g id="line2d_6">
     <path d="M 243.645962 235.032643 
L 241.928856 236.770015 
" style="fill:none;stroke:#000000;stroke-linecap:square;stroke-width:0.8;"/>
    </g>
    <g id="text_5">
     <!-- 8 -->
     <g transform="translate(232.509511 259.84323)scale(0.1 -0.1)">
      <defs>
       <path d="M 31.78125 34.625 
Q 24.75 34.625 20.71875 30.859375 
Q 16.703125 27.09375 16.703125 20.515625 
Q 16.703125 13.921875 20.71875 10.15625 
Q 24.75 6.390625 31.78125 6.390625 
Q 38.8125 6.390625 42.859375 10.171875 
Q 46.921875 13.96875 46.921875 20.515625 
Q 46.921875 27.09375 42.890625 30.859375 
Q 38.875 34.625 31.78125 34.625 
z
M 21.921875 38.8125 
Q 15.578125 40.375 12.03125 44.71875 
Q 8.5 49.078125 8.5 55.328125 
Q 8.5 64.0625 14.71875 69.140625 
Q 20.953125 74.21875 31.78125 74.21875 
Q 42.671875 74.21875 48.875 69.140625 
Q 55.078125 64.0625 55.078125 55.328125 
Q 55.078125 49.078125 51.53125 44.71875 
Q 48 40.375 41.703125 38.8125 
Q 48.828125 37.15625 52.796875 32.3125 
Q 56.78125 27.484375 56.78125 20.515625 
Q 56.78125 9.90625 50.3125 4.234375 
Q 43.84375 -1.421875 31.78125 -1.421875 
Q 19.734375 -1.421875 13.25 4.234375 
Q 6.78125 9.90625 6.78125 20.515625 
Q 6.78125 27.484375 10.78125 32.3125 
Q 14.796875 37.15625 21.921875 38.8125 
z
M 18.3125 54.390625 
Q 18.3125 48.734375 21.84375 45.5625 
Q 25.390625 42.390625 31.78125 42.390625 
Q 38.140625 42.390625 41.71875 45.5625 
Q 45.3125 48.734375 45.3125 54.390625 
Q 45.3125 60.0625 41.71875 63.234375 
Q 38.140625 66.40625 31.78125 66.40625 
Q 25.390625 66.40625 21.84375 63.234375 
Q 18.3125 60.0625 18.3125 54.390625 
z
" id="DejaVuSans-56"/>
      </defs>
      <use xlink:href="#DejaVuSans-56"/>
     </g>
    </g>
   </g>
  </g>
  <g id="axis3d_2">
   <g id="line2d_7">
    <path d="M 316.12668 171.68791 
L 251.239879 238.27773 
" style="fill:none;stroke:#000000;stroke-linecap:square;stroke-width:0.8;"/>
   </g>
   <g id="Line3DCollection_2">
    <path d="M 129.866948 102.505071 
L 134.046245 194.238731 
L 255.729543 233.67023 
" style="fill:none;stroke:#b0b0b0;stroke-width:0.8;"/>
    <path d="M 147.250212 89.819556 
L 150.59591 180.366474 
L 270.72626 218.279909 
" style="fill:none;stroke:#b0b0b0;stroke-width:0.8;"/>
    <path d="M 163.958537 77.626582 
L 166.530371 167.009893 
L 285.136664 203.491289 
" style="fill:none;stroke:#b0b0b0;stroke-width:0.8;"/>
    <path d="M 180.030483 65.898008 
L 181.883306 154.140758 
L 298.994481 189.269761 
" style="fill:none;stroke:#b0b0b0;stroke-width:0.8;"/>
    <path d="M 195.501727 54.607799 
L 196.68598 141.732864 
L 312.330896 175.583317 
" style="fill:none;stroke:#b0b0b0;stroke-width:0.8;"/>
   </g>
   <g id="xtick_6">
    <g id="line2d_8">
     <path d="M 254.704115 233.337939 
L 257.783053 234.33567 
" style="fill:none;stroke:#000000;stroke-linecap:square;stroke-width:0.8;"/>
    </g>
    <g id="text_6">
     <!-- 0 -->
     <g transform="translate(265.430654 254.693759)scale(0.1 -0.1)">
      <use xlink:href="#DejaVuSans-48"/>
     </g>
    </g>
   </g>
   <g id="xtick_7">
    <g id="line2d_9">
     <path d="M 269.71494 217.960734 
L 272.751463 218.919068 
" style="fill:none;stroke:#000000;stroke-linecap:square;stroke-width:0.8;"/>
    </g>
    <g id="text_7">
     <!-- 2 -->
     <g transform="translate(280.181112 239.024526)scale(0.1 -0.1)">
      <use xlink:href="#DejaVuSans-50"/>
     </g>
    </g>
   </g>
   <g id="xtick_8">
    <g id="line2d_10">
     <path d="M 284.139145 203.184468 
L 287.134182 204.105694 
" style="fill:none;stroke:#000000;stroke-linecap:square;stroke-width:0.8;"/>
    </g>
    <g id="text_8">
     <!-- 4 -->
     <g transform="translate(294.35448 223.968328)scale(0.1 -0.1)">
      <use xlink:href="#DejaVuSans-52"/>
     </g>
    </g>
   </g>
   <g id="xtick_9">
    <g id="line2d_11">
     <path d="M 298.010457 188.97459 
L 300.964927 189.860821 
" style="fill:none;stroke:#000000;stroke-linecap:square;stroke-width:0.8;"/>
    </g>
    <g id="text_9">
     <!-- 6 -->
     <g transform="translate(307.983974 209.489882)scale(0.1 -0.1)">
      <use xlink:href="#DejaVuSans-54"/>
     </g>
    </g>
   </g>
   <g id="xtick_10">
    <g id="line2d_12">
     <path d="M 311.360068 175.299146 
L 314.274875 176.15234 
" style="fill:none;stroke:#000000;stroke-linecap:square;stroke-width:0.8;"/>
    </g>
    <g id="text_10">
     <!-- 8 -->
     <g transform="translate(321.10031 195.556556)scale(0.1 -0.1)">
      <use xlink:href="#DejaVuSans-56"/>
     </g>
    </g>
   </g>
  </g>
  <g id="axis3d_3">
   <g id="line2d_13">
    <path d="M 316.12668 171.68791 
L 320.238571 81.894718 
" style="fill:none;stroke:#000000;stroke-linecap:square;stroke-width:0.8;"/>
   </g>
   <g id="Line3DCollection_3">
    <path d="M 316.205459 169.967571 
L 200.884845 136.530725 
L 129.013401 196.624949 
" style="fill:none;stroke:#b0b0b0;stroke-width:0.8;"/>
    <path d="M 316.802809 156.922991 
L 200.739588 123.898742 
L 128.370079 183.265958 
" style="fill:none;stroke:#b0b0b0;stroke-width:0.8;"/>
    <path d="M 317.407977 143.70766 
L 200.592519 111.109313 
L 127.718015 169.725429 
" style="fill:none;stroke:#b0b0b0;stroke-width:0.8;"/>
    <path d="M 318.021119 130.318204 
L 200.443607 98.159476 
L 127.05703 155.999637 
" style="fill:none;stroke:#b0b0b0;stroke-width:0.8;"/>
    <path d="M 318.642393 116.751159 
L 200.292814 85.046195 
L 126.386938 142.084753 
" style="fill:none;stroke:#b0b0b0;stroke-width:0.8;"/>
    <path d="M 319.271963 103.002968 
L 200.140107 71.766355 
L 125.707551 127.976844 
" style="fill:none;stroke:#b0b0b0;stroke-width:0.8;"/>
    <path d="M 319.909995 89.069979 
L 199.985447 58.316763 
L 125.018674 113.671863 
" style="fill:none;stroke:#b0b0b0;stroke-width:0.8;"/>
   </g>
   <g id="xtick_11">
    <g id="line2d_14">
     <path d="M 315.237563 169.686933 
L 318.143556 170.529516 
" style="fill:none;stroke:#000000;stroke-linecap:square;stroke-width:0.8;"/>
    </g>
    <g id="text_11">
     <!-- 0 -->
     <g transform="translate(331.275915 174.966846)scale(0.1 -0.1)">
      <use xlink:href="#DejaVuSans-48"/>
     </g>
    </g>
   </g>
   <g id="xtick_12">
    <g id="line2d_15">
     <path d="M 315.828383 156.645731 
L 318.753995 157.478175 
" style="fill:none;stroke:#000000;stroke-linecap:square;stroke-width:0.8;"/>
    </g>
    <g id="text_12">
     <!-- 5000 -->
     <g transform="translate(322.445548 161.953612)scale(0.1 -0.1)">
      <defs>
       <path d="M 10.796875 72.90625 
L 49.515625 72.90625 
L 49.515625 64.59375 
L 19.828125 64.59375 
L 19.828125 46.734375 
Q 21.96875 47.46875 24.109375 47.828125 
Q 26.265625 48.1875 28.421875 48.1875 
Q 40.625 48.1875 47.75 41.5 
Q 54.890625 34.8125 54.890625 23.390625 
Q 54.890625 11.625 47.5625 5.09375 
Q 40.234375 -1.421875 26.90625 -1.421875 
Q 22.3125 -1.421875 17.546875 -0.640625 
Q 12.796875 0.140625 7.71875 1.703125 
L 7.71875 11.625 
Q 12.109375 9.234375 16.796875 8.0625 
Q 21.484375 6.890625 26.703125 6.890625 
Q 35.15625 6.890625 40.078125 11.328125 
Q 45.015625 15.765625 45.015625 23.390625 
Q 45.015625 31 40.078125 35.4375 
Q 35.15625 39.890625 26.703125 39.890625 
Q 22.75 39.890625 18.8125 39.015625 
Q 14.890625 38.140625 10.796875 36.28125 
z
" id="DejaVuSans-53"/>
      </defs>
      <use xlink:href="#DejaVuSans-53"/>
      <use x="63.623047" xlink:href="#DejaVuSans-48"/>
      <use x="127.246094" xlink:href="#DejaVuSans-48"/>
      <use x="190.869141" xlink:href="#DejaVuSans-48"/>
     </g>
    </g>
   </g>
   <g id="xtick_13">
    <g id="line2d_16">
     <path d="M 316.426933 143.433892 
L 319.37243 144.255858 
" style="fill:none;stroke:#000000;stroke-linecap:square;stroke-width:0.8;"/>
    </g>
    <g id="text_13">
     <!-- 10000 -->
     <g transform="translate(319.986984 148.77067)scale(0.1 -0.1)">
      <defs>
       <path d="M 12.40625 8.296875 
L 28.515625 8.296875 
L 28.515625 63.921875 
L 10.984375 60.40625 
L 10.984375 69.390625 
L 28.421875 72.90625 
L 38.28125 72.90625 
L 38.28125 8.296875 
L 54.390625 8.296875 
L 54.390625 0 
L 12.40625 0 
z
" id="DejaVuSans-49"/>
      </defs>
      <use xlink:href="#DejaVuSans-49"/>
      <use x="63.623047" xlink:href="#DejaVuSans-48"/>
      <use x="127.246094" xlink:href="#DejaVuSans-48"/>
      <use x="190.869141" xlink:href="#DejaVuSans-48"/>
      <use x="254.492188" xlink:href="#DejaVuSans-48"/>
     </g>
    </g>
   </g>
   <g id="xtick_14">
    <g id="line2d_17">
     <path d="M 317.033367 130.048044 
L 319.999021 130.859182 
" style="fill:none;stroke:#000000;stroke-linecap:square;stroke-width:0.8;"/>
    </g>
    <g id="text_14">
     <!-- 15000 -->
     <g transform="translate(320.719156 135.414681)scale(0.1 -0.1)">
      <use xlink:href="#DejaVuSans-49"/>
      <use x="63.623047" xlink:href="#DejaVuSans-53"/>
      <use x="127.246094" xlink:href="#DejaVuSans-48"/>
      <use x="190.869141" xlink:href="#DejaVuSans-48"/>
      <use x="254.492188" xlink:href="#DejaVuSans-48"/>
     </g>
    </g>
   </g>
   <g id="xtick_15">
    <g id="line2d_18">
     <path d="M 317.647841 116.484726 
L 320.633929 117.284677 
" style="fill:none;stroke:#000000;stroke-linecap:square;stroke-width:0.8;"/>
    </g>
    <g id="text_15">
     <!-- 20000 -->
     <g transform="translate(321.461003 121.882213)scale(0.1 -0.1)">
      <use xlink:href="#DejaVuSans-50"/>
      <use x="63.623047" xlink:href="#DejaVuSans-48"/>
      <use x="127.246094" xlink:href="#DejaVuSans-48"/>
      <use x="190.869141" xlink:href="#DejaVuSans-48"/>
      <use x="254.492188" xlink:href="#DejaVuSans-48"/>
     </g>
    </g>
   </g>
   <g id="xtick_16">
    <g id="line2d_19">
     <path d="M 318.270516 102.740387 
L 321.277321 103.528777 
" style="fill:none;stroke:#000000;stroke-linecap:square;stroke-width:0.8;"/>
    </g>
    <g id="text_16">
     <!-- 25000 -->
     <g transform="translate(322.212718 108.169746)scale(0.1 -0.1)">
      <use xlink:href="#DejaVuSans-50"/>
      <use x="63.623047" xlink:href="#DejaVuSans-53"/>
      <use x="127.246094" xlink:href="#DejaVuSans-48"/>
      <use x="190.869141" xlink:href="#DejaVuSans-48"/>
      <use x="254.492188" xlink:href="#DejaVuSans-48"/>
     </g>
    </g>
   </g>
   <g id="xtick_17">
    <g id="line2d_20">
     <path d="M 318.901557 88.811377 
L 321.929368 89.587823 
" style="fill:none;stroke:#000000;stroke-linecap:square;stroke-width:0.8;"/>
    </g>
    <g id="text_17">
     <!-- 30000 -->
     <g transform="translate(322.974498 94.273665)scale(0.1 -0.1)">
      <defs>
       <path d="M 40.578125 39.3125 
Q 47.65625 37.796875 51.625 33 
Q 55.609375 28.21875 55.609375 21.1875 
Q 55.609375 10.40625 48.1875 4.484375 
Q 40.765625 -1.421875 27.09375 -1.421875 
Q 22.515625 -1.421875 17.65625 -0.515625 
Q 12.796875 0.390625 7.625 2.203125 
L 7.625 11.71875 
Q 11.71875 9.328125 16.59375 8.109375 
Q 21.484375 6.890625 26.8125 6.890625 
Q 36.078125 6.890625 40.9375 10.546875 
Q 45.796875 14.203125 45.796875 21.1875 
Q 45.796875 27.640625 41.28125 31.265625 
Q 36.765625 34.90625 28.71875 34.90625 
L 20.21875 34.90625 
L 20.21875 43.015625 
L 29.109375 43.015625 
Q 36.375 43.015625 40.234375 45.921875 
Q 44.09375 48.828125 44.09375 54.296875 
Q 44.09375 59.90625 40.109375 62.90625 
Q 36.140625 65.921875 28.71875 65.921875 
Q 24.65625 65.921875 20.015625 65.03125 
Q 15.375 64.15625 9.8125 62.3125 
L 9.8125 71.09375 
Q 15.4375 72.65625 20.34375 73.4375 
Q 25.25 74.21875 29.59375 74.21875 
Q 40.828125 74.21875 47.359375 69.109375 
Q 53.90625 64.015625 53.90625 55.328125 
Q 53.90625 49.265625 50.4375 45.09375 
Q 46.96875 40.921875 40.578125 39.3125 
z
" id="DejaVuSans-51"/>
      </defs>
      <use xlink:href="#DejaVuSans-51"/>
      <use x="63.623047" xlink:href="#DejaVuSans-48"/>
      <use x="127.246094" xlink:href="#DejaVuSans-48"/>
      <use x="190.869141" xlink:href="#DejaVuSans-48"/>
      <use x="254.492188" xlink:href="#DejaVuSans-48"/>
     </g>
    </g>
   </g>
  </g>
  <g id="axes_1">
   <g id="Poly3DCollection_1">
    <path clip-path="url(#p9dfa5e30d7)" d="M 203.700438 142.115361 
L 203.556945 127.973241 
L 215.80467 131.475373 
L 215.863902 145.66701 
z
" style="fill:#270045;"/>
    <path clip-path="url(#p9dfa5e30d7)" d="M 196.401162 148.290596 
L 203.700438 142.115361 
L 215.863902 145.66701 
L 208.637156 151.907182 
z
" style="fill:#320058;"/>
    <path clip-path="url(#p9dfa5e30d7)" d="M 196.401162 148.290596 
L 196.205142 134.062544 
L 203.556945 127.973241 
L 203.700438 142.115361 
z
" style="fill:#530193;"/>
    <path clip-path="url(#p9dfa5e30d7)" d="M 208.637156 151.907182 
L 215.863902 145.66701 
L 228.155024 149.255935 
L 221.002748 155.562072 
z
" style="fill:#7e3f2d;"/>
    <path clip-path="url(#p9dfa5e30d7)" d="M 208.637156 151.907182 
L 215.863902 145.66701 
L 215.80467 131.475373 
L 208.526405 137.62916 
z
" style="fill:#270045;"/>
    <path clip-path="url(#p9dfa5e30d7)" d="M 196.205142 134.062544 
L 208.526405 137.62916 
L 215.80467 131.475373 
L 203.556945 127.973241 
z
" style="fill:#48017f;"/>
    <path clip-path="url(#p9dfa5e30d7)" d="M 196.401162 148.290596 
L 196.258453 137.932105 
L 208.556527 141.512415 
L 208.637156 151.907182 
z
" style="fill:#1f0143;"/>
    <path clip-path="url(#p9dfa5e30d7)" d="M 196.401162 148.290596 
L 208.637156 151.907182 
L 208.526405 137.62916 
L 196.205142 134.062544 
z
" style="fill:#530193;"/>
    <path clip-path="url(#p9dfa5e30d7)" d="M 188.96817 154.578956 
L 188.785829 144.157515 
L 196.258453 137.932105 
L 196.401162 148.290596 
z
" style="fill:#42028e;"/>
    <path clip-path="url(#p9dfa5e30d7)" d="M 188.96817 154.578956 
L 196.401162 148.290596 
L 208.637156 151.907182 
L 201.27732 158.262275 
z
" style="fill:#280156;"/>
    <path clip-path="url(#p9dfa5e30d7)" d="M 221.002748 155.562072 
L 228.155024 149.255935 
L 240.575825 152.882725 
L 233.500008 159.25588 
z
" style="fill:#875d1a;"/>
    <path clip-path="url(#p9dfa5e30d7)" d="M 215.863902 145.66701 
L 215.635546 90.954106 
L 228.258423 94.345369 
L 228.155024 149.255935 
z
" style="fill:#623123;"/>
    <path clip-path="url(#p9dfa5e30d7)" d="M 188.785829 144.157515 
L 201.1578 147.804232 
L 208.556527 141.512415 
L 196.258453 137.932105 
z
" style="fill:#39027b;"/>
    <path clip-path="url(#p9dfa5e30d7)" d="M 201.27732 158.262275 
L 208.637156 151.907182 
L 208.556527 141.512415 
L 201.1578 147.804232 
z
" style="fill:#1f0143;"/>
    <path clip-path="url(#p9dfa5e30d7)" d="M 201.27732 158.262275 
L 208.637156 151.907182 
L 221.002748 155.562072 
L 213.718049 161.984967 
z
" style="fill:#7e402c;"/>
    <path clip-path="url(#p9dfa5e30d7)" d="M 188.96817 154.578956 
L 188.866334 148.758642 
L 201.210569 152.42159 
L 201.27732 158.262275 
z
" style="fill:#15023f;"/>
    <path clip-path="url(#p9dfa5e30d7)" d="M 233.500008 159.25588 
L 240.575825 152.882725 
L 253.128369 156.547983 
L 246.131049 162.989229 
z
" style="fill:#876517;"/>
    <path clip-path="url(#p9dfa5e30d7)" d="M 208.637156 151.907182 
L 208.210101 96.851214 
L 215.635546 90.954106 
L 215.863902 145.66701 
z
" style="fill:#d0684b;"/>
    <path clip-path="url(#p9dfa5e30d7)" d="M 188.96817 154.578956 
L 201.27732 158.262275 
L 201.1578 147.804232 
L 188.785829 144.157515 
z
" style="fill:#42028e;"/>
    <path clip-path="url(#p9dfa5e30d7)" d="M 181.397755 160.983577 
L 181.272976 155.127914 
L 188.866334 148.758642 
L 188.96817 154.578956 
z
" style="fill:#2d0486;"/>
    <path clip-path="url(#p9dfa5e30d7)" d="M 181.397755 160.983577 
L 188.96817 154.578956 
L 201.27732 158.262275 
L 193.780682 164.735494 
z
" style="fill:#1b0251;"/>
    <path clip-path="url(#p9dfa5e30d7)" d="M 213.718049 161.984967 
L 221.002748 155.562072 
L 233.500008 159.25588 
L 226.292478 165.747667 
z
" style="fill:#867113;"/>
    <path clip-path="url(#p9dfa5e30d7)" d="M 246.131049 162.989229 
L 253.128369 156.547983 
L 265.814761 160.252323 
L 258.898031 166.762758 
z
" style="fill:#845022;"/>
    <path clip-path="url(#p9dfa5e30d7)" d="M 181.272976 155.127914 
L 193.691408 158.85928 
L 201.210569 152.42159 
L 188.866334 148.758642 
z
" style="fill:#270374;"/>
    <path clip-path="url(#p9dfa5e30d7)" d="M 221.002748 155.562072 
L 228.155024 149.255935 
L 228.258423 94.345369 
L 220.911529 100.306518 
z
" style="fill:#623123;"/>
    <path clip-path="url(#p9dfa5e30d7)" d="M 193.780682 164.735494 
L 201.27732 158.262275 
L 201.210569 152.42159 
L 193.691408 158.85928 
z
" style="fill:#15023f;"/>
    <path clip-path="url(#p9dfa5e30d7)" d="M 228.155024 149.255935 
L 228.285173 80.139349 
L 241.13255 83.513377 
L 240.575825 152.882725 
z
" style="fill:#694914;"/>
    <path clip-path="url(#p9dfa5e30d7)" d="M 208.637156 151.907182 
L 221.002748 155.562072 
L 220.911529 100.306518 
L 208.210101 96.851214 
z
" style="fill:#d0684b;"/>
    <path clip-path="url(#p9dfa5e30d7)" d="M 208.637156 151.907182 
L 208.206024 96.325606 
L 220.910658 99.778927 
L 221.002748 155.562072 
z
" style="fill:#633223;"/>
    <path clip-path="url(#p9dfa5e30d7)" d="M 181.397755 160.983577 
L 181.33501 158.039085 
L 193.735791 161.780691 
L 193.780682 164.735494 
z
" style="fill:#0e023c;"/>
    <path clip-path="url(#p9dfa5e30d7)" d="M 193.780682 164.735494 
L 201.27732 158.262275 
L 213.718049 161.984967 
L 206.297214 168.527892 
z
" style="fill:#692243;"/>
    <path clip-path="url(#p9dfa5e30d7)" d="M 181.397755 160.983577 
L 193.780682 164.735494 
L 193.691408 158.85928 
L 181.272976 155.127914 
z
" style="fill:#2d0486;"/>
    <path clip-path="url(#p9dfa5e30d7)" d="M 221.002748 155.562072 
L 220.887922 86.006772 
L 228.285173 80.139349 
L 228.155024 149.255935 
z
" style="fill:#e09b2b;"/>
    <path clip-path="url(#p9dfa5e30d7)" d="M 226.292478 165.747667 
L 233.500008 159.25588 
L 246.131049 162.989229 
L 239.002775 169.551023 
z
" style="fill:#808512;"/>
    <path clip-path="url(#p9dfa5e30d7)" d="M 201.27732 158.262275 
L 200.638105 102.330858 
L 208.206024 96.325606 
L 208.637156 151.907182 
z
" style="fill:#d16b49;"/>
    <path clip-path="url(#p9dfa5e30d7)" d="M 173.686069 167.507715 
L 173.611364 164.54533 
L 181.33501 158.039085 
L 181.397755 160.983577 
z
" style="fill:#1e057f;"/>
    <path clip-path="url(#p9dfa5e30d7)" d="M 265.814761 160.252323 
L 266.16719 143.123361 
L 279.101032 146.806801 
L 278.637155 163.996376 
z
" style="fill:#2d0046;"/>
    <path clip-path="url(#p9dfa5e30d7)" d="M 258.898031 166.762758 
L 265.814761 160.252323 
L 278.637155 163.996376 
L 271.803162 170.57712 
z
" style="fill:#3a005a;"/>
    <path clip-path="url(#p9dfa5e30d7)" d="M 173.686069 167.507715 
L 181.397755 160.983577 
L 193.780682 164.735494 
L 186.143392 171.330164 
z
" style="fill:#12034d;"/>
    <path clip-path="url(#p9dfa5e30d7)" d="M 278.637155 163.996376 
L 278.684777 162.23167 
L 291.657056 166.009895 
L 291.597749 167.780781 
z
" style="fill:#0a033a;"/>
    <path clip-path="url(#p9dfa5e30d7)" d="M 258.898031 166.762758 
L 259.194449 149.528615 
L 266.16719 143.123361 
L 265.814761 160.252323 
z
" style="fill:#5f0094;"/>
    <path clip-path="url(#p9dfa5e30d7)" d="M 201.27732 158.262275 
L 200.82251 118.466313 
L 213.507453 122.045906 
L 213.718049 161.984967 
z
" style="fill:#521a35;"/>
    <path clip-path="url(#p9dfa5e30d7)" d="M 240.575825 152.882725 
L 241.155783 80.61854 
L 254.162318 84.01843 
L 253.128369 156.547983 
z
" style="fill:#6a4f12;"/>
    <path clip-path="url(#p9dfa5e30d7)" d="M 206.297214 168.527892 
L 213.718049 161.984967 
L 226.292478 165.747667 
L 218.949524 172.361429 
z
" style="fill:#876815;"/>
    <path clip-path="url(#p9dfa5e30d7)" d="M 173.611364 164.54533 
L 186.086755 168.357379 
L 193.735791 161.780691 
L 181.33501 158.039085 
z
" style="fill:#1a046e;"/>
    <path clip-path="url(#p9dfa5e30d7)" d="M 271.803162 170.57712 
L 271.845181 168.801689 
L 278.684777 162.23167 
L 278.637155 163.996376 
z
" style="fill:#16067b;"/>
    <path clip-path="url(#p9dfa5e30d7)" d="M 233.500008 159.25588 
L 240.575825 152.882725 
L 241.13255 83.513377 
L 233.817124 89.445309 
z
" style="fill:#694914;"/>
    <path clip-path="url(#p9dfa5e30d7)" d="M 239.002775 169.551023 
L 246.131049 162.989229 
L 258.898031 166.762758 
L 251.851153 173.395697 
z
" style="fill:#876915;"/>
    <path clip-path="url(#p9dfa5e30d7)" d="M 193.780682 164.735494 
L 193.172311 124.691188 
L 200.82251 118.466313 
L 201.27732 158.262275 
z
" style="fill:#ae386f;"/>
    <path clip-path="url(#p9dfa5e30d7)" d="M 213.718049 161.984967 
L 221.002748 155.562072 
L 220.910658 99.778927 
L 213.422053 105.850031 
z
" style="fill:#633223;"/>
    <path clip-path="url(#p9dfa5e30d7)" d="M 233.500008 159.25588 
L 233.830362 86.5311 
L 241.155783 80.61854 
L 240.575825 152.882725 
z
" style="fill:#e0a725;"/>
    <path clip-path="url(#p9dfa5e30d7)" d="M 186.143392 171.330164 
L 193.780682 164.735494 
L 193.735791 161.780691 
L 186.086755 168.357379 
z
" style="fill:#0e023c;"/>
    <path clip-path="url(#p9dfa5e30d7)" d="M 271.803162 170.57712 
L 278.637155 163.996376 
L 291.597749 167.780781 
L 284.848695 174.43298 
z
" style="fill:#0d034a;"/>
    <path clip-path="url(#p9dfa5e30d7)" d="M 208.210101 96.851214 
L 220.911529 100.306518 
L 228.258423 94.345369 
L 215.635546 90.954106 
z
" style="fill:#b55b41;"/>
    <path clip-path="url(#p9dfa5e30d7)" d="M 253.128369 156.547983 
L 254.030303 93.279046 
L 267.121281 96.752127 
L 265.814761 160.252323 
z
" style="fill:#673e1b;"/>
    <path clip-path="url(#p9dfa5e30d7)" d="M 221.002748 155.562072 
L 233.500008 159.25588 
L 233.817124 89.445309 
L 220.887922 86.006772 
z
" style="fill:#e09b2b;"/>
    <path clip-path="url(#p9dfa5e30d7)" d="M 173.686069 167.507715 
L 173.655368 166.290298 
L 186.120117 170.108478 
L 186.143392 171.330164 
z
" style="fill:#080339;"/>
    <path clip-path="url(#p9dfa5e30d7)" d="M 291.597749 167.780781 
L 291.615813 167.241382 
L 304.72049 171.064907 
L 304.698789 171.606197 
z
" style="fill:#050338;"/>
    <path clip-path="url(#p9dfa5e30d7)" d="M 271.845181 168.801689 
L 284.902555 172.651315 
L 291.657056 166.009895 
L 278.684777 162.23167 
z
" style="fill:#13056b;"/>
    <path clip-path="url(#p9dfa5e30d7)" d="M 201.27732 158.262275 
L 213.718049 161.984967 
L 213.422053 105.850031 
L 200.638105 102.330858 
z
" style="fill:#d16b49;"/>
    <path clip-path="url(#p9dfa5e30d7)" d="M 173.686069 167.507715 
L 186.143392 171.330164 
L 186.086755 168.357379 
L 173.611364 164.54533 
z
" style="fill:#1e057f;"/>
    <path clip-path="url(#p9dfa5e30d7)" d="M 186.143392 171.330164 
L 193.780682 164.735494 
L 206.297214 168.527892 
L 198.736391 175.194243 
z
" style="fill:#460359;"/>
    <path clip-path="url(#p9dfa5e30d7)" d="M 271.803162 170.57712 
L 278.637155 163.996376 
L 279.101032 146.806801 
L 272.212488 153.281823 
z
" style="fill:#2d0046;"/>
    <path clip-path="url(#p9dfa5e30d7)" d="M 193.780682 164.735494 
L 193.444273 142.592348 
L 206.097516 146.305946 
L 206.297214 168.527892 
z
" style="fill:#360246;"/>
    <path clip-path="url(#p9dfa5e30d7)" d="M 246.131049 162.989229 
L 246.8203 99.318915 
L 254.030303 93.279046 
L 253.128369 156.547983 
z
" style="fill:#db8439;"/>
    <path clip-path="url(#p9dfa5e30d7)" d="M 221.002748 155.562072 
L 220.874958 78.153462 
L 233.852937 81.561569 
L 233.500008 159.25588 
z
" style="fill:#69580f;"/>
    <path clip-path="url(#p9dfa5e30d7)" d="M 218.949524 172.361429 
L 226.292478 165.747667 
L 239.002775 169.551023 
L 231.739835 176.23678 
z
" style="fill:#857313;"/>
    <path clip-path="url(#p9dfa5e30d7)" d="M 165.82912 174.154745 
L 165.793324 172.929921 
L 173.655368 166.290298 
L 173.686069 167.507715 
z
" style="fill:#110679;"/>
    <path clip-path="url(#p9dfa5e30d7)" d="M 284.848695 174.43298 
L 284.8651 173.890301 
L 291.615813 167.241382 
L 291.597749 167.780781 
z
" style="fill:#0b0777;"/>
    <path clip-path="url(#p9dfa5e30d7)" d="M 259.194449 149.528615 
L 272.212488 153.281823 
L 279.101032 146.806801 
L 266.16719 143.123361 
z
" style="fill:#530081;"/>
    <path clip-path="url(#p9dfa5e30d7)" d="M 284.848695 174.43298 
L 291.597749 167.780781 
L 291.657056 166.009895 
L 284.902555 172.651315 
z
" style="fill:#0a033a;"/>
    <path clip-path="url(#p9dfa5e30d7)" d="M 258.898031 166.762758 
L 271.803162 170.57712 
L 272.212488 153.281823 
L 259.194449 149.528615 
z
" style="fill:#5f0094;"/>
    <path clip-path="url(#p9dfa5e30d7)" d="M 186.143392 171.330164 
L 185.718917 149.050274 
L 193.444273 142.592348 
L 193.780682 164.735494 
z
" style="fill:#730494;"/>
    <path clip-path="url(#p9dfa5e30d7)" d="M 251.851153 173.395697 
L 258.898031 166.762758 
L 271.803162 170.57712 
L 264.839875 177.282368 
z
" style="fill:#581051;"/>
    <path clip-path="url(#p9dfa5e30d7)" d="M 213.718049 161.984967 
L 213.307264 84.080466 
L 220.874958 78.153462 
L 221.002748 155.562072 
z
" style="fill:#debb20;"/>
    <path clip-path="url(#p9dfa5e30d7)" d="M 206.297214 168.527892 
L 213.718049 161.984967 
L 213.507453 122.045906 
L 205.936057 128.339152 
z
" style="fill:#521a35;"/>
    <path clip-path="url(#p9dfa5e30d7)" d="M 246.131049 162.989229 
L 253.128369 156.547983 
L 254.162318 84.01843 
L 246.921219 89.996446 
z
" style="fill:#6a4f12;"/>
    <path clip-path="url(#p9dfa5e30d7)" d="M 165.82912 174.154745 
L 173.686069 167.507715 
L 186.143392 171.330164 
L 178.361455 178.049733 
z
" style="fill:#0a0449;"/>
    <path clip-path="url(#p9dfa5e30d7)" d="M 271.803162 170.57712 
L 284.848695 174.43298 
L 284.902555 172.651315 
L 271.845181 168.801689 
z
" style="fill:#16067b;"/>
    <path clip-path="url(#p9dfa5e30d7)" d="M 271.803162 170.57712 
L 271.868867 167.800904 
L 284.932915 171.647008 
L 284.848695 174.43298 
z
" style="fill:#0d023b;"/>
    <path clip-path="url(#p9dfa5e30d7)" d="M 284.848695 174.43298 
L 291.597749 167.780781 
L 304.698789 171.606197 
L 298.036935 178.33102 
z
" style="fill:#070448;"/>
    <path clip-path="url(#p9dfa5e30d7)" d="M 165.793324 172.929921 
L 178.333172 176.820605 
L 186.120117 170.108478 
L 173.655368 166.290298 
z
" style="fill:#0f0569;"/>
    <path clip-path="url(#p9dfa5e30d7)" d="M 284.8651 173.890301 
L 298.057025 177.786434 
L 304.72049 171.064907 
L 291.615813 167.241382 
z
" style="fill:#0a0667;"/>
    <path clip-path="url(#p9dfa5e30d7)" d="M 193.780682 164.735494 
L 206.297214 168.527892 
L 205.936057 128.339152 
L 193.172311 124.691188 
z
" style="fill:#ae386f;"/>
    <path clip-path="url(#p9dfa5e30d7)" d="M 233.500008 159.25588 
L 246.131049 162.989229 
L 246.921219 89.996446 
L 233.830362 86.5311 
z
" style="fill:#e0a725;"/>
    <path clip-path="url(#p9dfa5e30d7)" d="M 198.736391 175.194243 
L 206.297214 168.527892 
L 218.949524 172.361429 
L 211.467294 179.100638 
z
" style="fill:#875d1a;"/>
    <path clip-path="url(#p9dfa5e30d7)" d="M 258.898031 166.762758 
L 259.420403 136.391336 
L 272.524536 140.096851 
L 271.803162 170.57712 
z
" style="fill:#450d40;"/>
    <path clip-path="url(#p9dfa5e30d7)" d="M 264.839875 177.282368 
L 264.896471 174.489223 
L 271.868867 167.800904 
L 271.803162 170.57712 
z
" style="fill:#1c057e;"/>
    <path clip-path="url(#p9dfa5e30d7)" d="M 258.898031 166.762758 
L 265.814761 160.252323 
L 267.121281 96.752127 
L 259.997142 102.858933 
z
" style="fill:#673e1b;"/>
    <path clip-path="url(#p9dfa5e30d7)" d="M 186.143392 171.330164 
L 185.989475 163.251343 
L 198.632657 167.086907 
L 198.736391 175.194243 
z
" style="fill:#1a0241;"/>
    <path clip-path="url(#p9dfa5e30d7)" d="M 231.739835 176.23678 
L 239.002775 169.551023 
L 251.851153 173.395697 
L 244.670417 180.154631 
z
" style="fill:#876716;"/>
    <path clip-path="url(#p9dfa5e30d7)" d="M 178.361455 178.049733 
L 186.143392 171.330164 
L 186.120117 170.108478 
L 178.333172 176.820605 
z
" style="fill:#080339;"/>
    <path clip-path="url(#p9dfa5e30d7)" d="M 298.036935 178.33102 
L 304.698789 171.606197 
L 304.72049 171.064907 
L 298.057025 177.786434 
z
" style="fill:#050338;"/>
    <path clip-path="url(#p9dfa5e30d7)" d="M 251.851153 173.395697 
L 252.270982 142.835386 
L 259.420403 136.391336 
L 258.898031 166.762758 
z
" style="fill:#911b87;"/>
    <path clip-path="url(#p9dfa5e30d7)" d="M 198.736391 175.194243 
L 206.297214 168.527892 
L 206.097516 146.305946 
L 198.4503 152.83485 
z
" style="fill:#360246;"/>
    <path clip-path="url(#p9dfa5e30d7)" d="M 264.839875 177.282368 
L 271.803162 170.57712 
L 284.848695 174.43298 
L 277.971253 181.211726 
z
" style="fill:#11034c;"/>
    <path clip-path="url(#p9dfa5e30d7)" d="M 233.500008 159.25588 
L 233.887451 73.96354 
L 247.057799 77.379717 
L 246.131049 162.989229 
z
" style="fill:#64680e;"/>
    <path clip-path="url(#p9dfa5e30d7)" d="M 246.131049 162.989229 
L 258.898031 166.762758 
L 259.997142 102.858933 
L 246.8203 99.318915 
z
" style="fill:#db8439;"/>
    <path clip-path="url(#p9dfa5e30d7)" d="M 226.292478 165.747667 
L 233.500008 159.25588 
L 233.852937 81.561569 
L 226.368483 87.554614 
z
" style="fill:#69580f;"/>
    <path clip-path="url(#p9dfa5e30d7)" d="M 178.361455 178.049733 
L 178.174417 169.921433 
L 185.989475 163.251343 
L 186.143392 171.330164 
z
" style="fill:#360389;"/>
    <path clip-path="url(#p9dfa5e30d7)" d="M 200.638105 102.330858 
L 213.422053 105.850031 
L 220.910658 99.778927 
L 208.206024 96.325606 
z
" style="fill:#b55c40;"/>
    <path clip-path="url(#p9dfa5e30d7)" d="M 165.82912 174.154745 
L 165.80309 173.264088 
L 178.340889 177.155947 
L 178.361455 178.049733 
z
" style="fill:#070339;"/>
    <path clip-path="url(#p9dfa5e30d7)" d="M 165.82912 174.154745 
L 178.361455 178.049733 
L 178.333172 176.820605 
L 165.793324 172.929921 
z
" style="fill:#110679;"/>
    <path clip-path="url(#p9dfa5e30d7)" d="M 284.848695 174.43298 
L 298.036935 178.33102 
L 298.057025 177.786434 
L 284.8651 173.890301 
z
" style="fill:#0b0777;"/>
    <path clip-path="url(#p9dfa5e30d7)" d="M 284.848695 174.43298 
L 284.86739 173.814563 
L 298.059828 177.71043 
L 298.036935 178.33102 
z
" style="fill:#050338;"/>
    <path clip-path="url(#p9dfa5e30d7)" d="M 178.361455 178.049733 
L 186.143392 171.330164 
L 198.736391 175.194243 
L 191.031582 181.987547 
z
" style="fill:#210253;"/>
    <path clip-path="url(#p9dfa5e30d7)" d="M 213.718049 161.984967 
L 213.326783 87.782281 
L 226.36487 91.270876 
L 226.292478 165.747667 
z
" style="fill:#6a5111;"/>
    <path clip-path="url(#p9dfa5e30d7)" d="M 264.896471 174.489223 
L 278.046611 178.408742 
L 284.932915 171.647008 
L 271.868867 167.800904 
z
" style="fill:#18046d;"/>
    <path clip-path="url(#p9dfa5e30d7)" d="M 186.143392 171.330164 
L 198.736391 175.194243 
L 198.4503 152.83485 
L 185.718917 149.050274 
z
" style="fill:#730494;"/>
    <path clip-path="url(#p9dfa5e30d7)" d="M 193.172311 124.691188 
L 205.936057 128.339152 
L 213.507453 122.045906 
L 200.82251 118.466313 
z
" style="fill:#973161;"/>
    <path clip-path="url(#p9dfa5e30d7)" d="M 226.292478 165.747667 
L 226.375918 79.904801 
L 233.887451 73.96354 
L 233.500008 159.25588 
z
" style="fill:#d4dc1e;"/>
    <path clip-path="url(#p9dfa5e30d7)" d="M 213.718049 161.984967 
L 226.292478 165.747667 
L 226.368483 87.554614 
L 213.307264 84.080466 
z
" style="fill:#debb20;"/>
    <path clip-path="url(#p9dfa5e30d7)" d="M 211.467294 179.100638 
L 218.949524 172.361429 
L 231.739835 176.23678 
L 224.338378 183.050047 
z
" style="fill:#876118;"/>
    <path clip-path="url(#p9dfa5e30d7)" d="M 157.822766 180.928173 
L 157.792893 180.032086 
L 165.80309 173.264088 
L 165.82912 174.154745 
z
" style="fill:#0e0678;"/>
    <path clip-path="url(#p9dfa5e30d7)" d="M 185.718917 149.050274 
L 198.4503 152.83485 
L 206.097516 146.305946 
L 193.444273 142.592348 
z
" style="fill:#640480;"/>
    <path clip-path="url(#p9dfa5e30d7)" d="M 277.971253 181.211726 
L 277.98798 180.589538 
L 284.86739 173.814563 
L 284.848695 174.43298 
z
" style="fill:#0b0777;"/>
    <path clip-path="url(#p9dfa5e30d7)" d="M 246.131049 162.989229 
L 246.940405 88.224129 
L 260.188704 91.72123 
L 258.898031 166.762758 
z
" style="fill:#6a5210;"/>
    <path clip-path="url(#p9dfa5e30d7)" d="M 220.887922 86.006772 
L 233.817124 89.445309 
L 241.13255 83.513377 
L 228.285173 80.139349 
z
" style="fill:#c28626;"/>
    <path clip-path="url(#p9dfa5e30d7)" d="M 206.297214 168.527892 
L 205.626115 93.849455 
L 213.326783 87.782281 
L 213.718049 161.984967 
z
" style="fill:#e0ac23;"/>
    <path clip-path="url(#p9dfa5e30d7)" d="M 277.971253 181.211726 
L 284.848695 174.43298 
L 284.932915 171.647008 
L 278.046611 178.408742 
z
" style="fill:#0d023b;"/>
    <path clip-path="url(#p9dfa5e30d7)" d="M 244.670417 180.154631 
L 251.851153 173.395697 
L 264.839875 177.282368 
L 257.743589 184.115686 
z
" style="fill:#6f293d;"/>
    <path clip-path="url(#p9dfa5e30d7)" d="M 264.839875 177.282368 
L 271.803162 170.57712 
L 272.524536 140.096851 
L 265.461332 146.612227 
z
" style="fill:#450d40;"/>
    <path clip-path="url(#p9dfa5e30d7)" d="M 239.002775 169.551023 
L 239.552682 94.30614 
L 246.940405 88.224129 
L 246.131049 162.989229 
z
" style="fill:#e0ae23;"/>
    <path clip-path="url(#p9dfa5e30d7)" d="M 157.822766 180.928173 
L 165.82912 174.154745 
L 178.361455 178.049733 
L 170.430723 184.897786 
z
" style="fill:#090449;"/>
    <path clip-path="url(#p9dfa5e30d7)" d="M 178.174417 169.921433 
L 190.895339 173.830487 
L 198.632657 167.086907 
L 185.989475 163.251343 
z
" style="fill:#2f0377;"/>
    <path clip-path="url(#p9dfa5e30d7)" d="M 264.839875 177.282368 
L 277.971253 181.211726 
L 278.046611 178.408742 
L 264.896471 174.489223 
z
" style="fill:#1c057e;"/>
    <path clip-path="url(#p9dfa5e30d7)" d="M 277.971253 181.211726 
L 284.848695 174.43298 
L 298.036935 178.33102 
L 291.24765 185.184478 
z
" style="fill:#070448;"/>
    <path clip-path="url(#p9dfa5e30d7)" d="M 157.792893 180.032086 
L 170.406378 183.998544 
L 178.340889 177.155947 
L 165.80309 173.264088 
z
" style="fill:#0c0668;"/>
    <path clip-path="url(#p9dfa5e30d7)" d="M 264.839875 177.282368 
L 264.922719 173.193857 
L 278.08156 177.108798 
L 277.971253 181.211726 
z
" style="fill:#11023d;"/>
    <path clip-path="url(#p9dfa5e30d7)" d="M 277.98798 180.589538 
L 291.268634 184.5601 
L 298.059828 177.71043 
L 284.86739 173.814563 
z
" style="fill:#0a0667;"/>
    <path clip-path="url(#p9dfa5e30d7)" d="M 191.031582 181.987547 
L 198.736391 175.194243 
L 198.632657 167.086907 
L 190.895339 173.830487 
z
" style="fill:#1a0241;"/>
    <path clip-path="url(#p9dfa5e30d7)" d="M 178.361455 178.049733 
L 178.297094 175.252725 
L 190.984701 179.180683 
L 191.031582 181.987547 
z
" style="fill:#0d023b;"/>
    <path clip-path="url(#p9dfa5e30d7)" d="M 191.031582 181.987547 
L 198.736391 175.194243 
L 211.467294 179.100638 
L 203.841786 185.968896 
z
" style="fill:#773535;"/>
    <path clip-path="url(#p9dfa5e30d7)" d="M 251.851153 173.395697 
L 264.839875 177.282368 
L 265.461332 146.612227 
L 252.270982 142.835386 
z
" style="fill:#911b87;"/>
    <path clip-path="url(#p9dfa5e30d7)" d="M 239.002775 169.551023 
L 246.131049 162.989229 
L 247.057799 77.379717 
L 239.632475 83.387793 
z
" style="fill:#64680e;"/>
    <path clip-path="url(#p9dfa5e30d7)" d="M 257.743589 184.115686 
L 257.812571 180.00216 
L 264.922719 173.193857 
L 264.839875 177.282368 
z
" style="fill:#230581;"/>
    <path clip-path="url(#p9dfa5e30d7)" d="M 178.361455 178.049733 
L 191.031582 181.987547 
L 190.895339 173.830487 
L 178.174417 169.921433 
z
" style="fill:#360389;"/>
    <path clip-path="url(#p9dfa5e30d7)" d="M 226.292478 165.747667 
L 226.369354 86.657995 
L 239.582927 90.167631 
L 239.002775 169.551023 
z
" style="fill:#685a0f;"/>
    <path clip-path="url(#p9dfa5e30d7)" d="M 224.338378 183.050047 
L 231.739835 176.23678 
L 244.670417 180.154631 
L 237.351973 187.043183 
z
" style="fill:#875b1b;"/>
    <path clip-path="url(#p9dfa5e30d7)" d="M 170.430723 184.897786 
L 178.361455 178.049733 
L 178.340889 177.155947 
L 170.406378 183.998544 
z
" style="fill:#070339;"/>
    <path clip-path="url(#p9dfa5e30d7)" d="M 291.24765 185.184478 
L 298.036935 178.33102 
L 298.059828 177.71043 
L 291.268634 184.5601 
z
" style="fill:#050338;"/>
    <path clip-path="url(#p9dfa5e30d7)" d="M 170.430723 184.897786 
L 170.354537 182.083677 
L 178.297094 175.252725 
L 178.361455 178.049733 
z
" style="fill:#1c057e;"/>
    <path clip-path="url(#p9dfa5e30d7)" d="M 218.949524 172.361429 
L 226.292478 165.747667 
L 226.36487 91.270876 
L 218.747941 97.406189 
z
" style="fill:#6a5111;"/>
    <path clip-path="url(#p9dfa5e30d7)" d="M 257.743589 184.115686 
L 264.839875 177.282368 
L 277.971253 181.211726 
L 270.961723 188.120663 
z
" style="fill:#15034e;"/>
    <path clip-path="url(#p9dfa5e30d7)" d="M 226.292478 165.747667 
L 239.002775 169.551023 
L 239.632475 83.387793 
L 226.375918 79.904801 
z
" style="fill:#d4dc1e;"/>
    <path clip-path="url(#p9dfa5e30d7)" d="M 252.270982 142.835386 
L 265.461332 146.612227 
L 272.524536 140.096851 
L 259.420403 136.391336 
z
" style="fill:#7e1875;"/>
    <path clip-path="url(#p9dfa5e30d7)" d="M 206.297214 168.527892 
L 205.666616 98.356373 
L 218.760109 101.930671 
L 218.949524 172.361429 
z
" style="fill:#694914;"/>
    <path clip-path="url(#p9dfa5e30d7)" d="M 233.830362 86.5311 
L 246.921219 89.996446 
L 254.162318 84.01843 
L 241.155783 80.61854 
z
" style="fill:#c29121;"/>
    <path clip-path="url(#p9dfa5e30d7)" d="M 157.822766 180.928173 
L 157.807184 180.460763 
L 170.418024 184.428731 
L 170.430723 184.897786 
z
" style="fill:#050338;"/>
    <path clip-path="url(#p9dfa5e30d7)" d="M 218.949524 172.361429 
L 218.735451 92.761958 
L 226.369354 86.657995 
L 226.292478 165.747667 
z
" style="fill:#ddbf20;"/>
    <path clip-path="url(#p9dfa5e30d7)" d="M 157.822766 180.928173 
L 170.430723 184.897786 
L 170.406378 183.998544 
L 157.792893 180.032086 
z
" style="fill:#0e0678;"/>
    <path clip-path="url(#p9dfa5e30d7)" d="M 251.851153 173.395697 
L 252.462074 128.925405 
L 265.744232 132.650561 
L 264.839875 177.282368 
z
" style="fill:#572030;"/>
    <path clip-path="url(#p9dfa5e30d7)" d="M 277.971253 181.211726 
L 277.984514 180.718472 
L 291.264285 184.689488 
L 291.24765 185.184478 
z
" style="fill:#050338;"/>
    <path clip-path="url(#p9dfa5e30d7)" d="M 277.971253 181.211726 
L 291.24765 185.184478 
L 291.268634 184.5601 
L 277.98798 180.589538 
z
" style="fill:#0b0777;"/>
    <path clip-path="url(#p9dfa5e30d7)" d="M 251.851153 173.395697 
L 258.898031 166.762758 
L 260.188704 91.72123 
L 252.888683 97.871667 
z
" style="fill:#6a5210;"/>
    <path clip-path="url(#p9dfa5e30d7)" d="M 170.430723 184.897786 
L 178.361455 178.049733 
L 191.031582 181.987547 
L 183.178635 188.911464 
z
" style="fill:#11034c;"/>
    <path clip-path="url(#p9dfa5e30d7)" d="M 206.297214 168.527892 
L 218.949524 172.361429 
L 218.747941 97.406189 
L 205.626115 93.849455 
z
" style="fill:#e0ac23;"/>
    <path clip-path="url(#p9dfa5e30d7)" d="M 246.8203 99.318915 
L 259.997142 102.858933 
L 267.121281 96.752127 
L 254.030303 93.279046 
z
" style="fill:#be7331;"/>
    <path clip-path="url(#p9dfa5e30d7)" d="M 257.812571 180.00216 
L 271.058537 183.9926 
L 278.08156 177.108798 
L 264.922719 173.193857 
z
" style="fill:#1f0470;"/>
    <path clip-path="url(#p9dfa5e30d7)" d="M 198.736391 175.194243 
L 197.83278 104.572789 
L 205.666616 98.356373 
L 206.297214 168.527892 
z
" style="fill:#e09b2b;"/>
    <path clip-path="url(#p9dfa5e30d7)" d="M 149.662704 187.831639 
L 149.645042 187.361375 
L 157.807184 180.460763 
L 157.822766 180.928173 
z
" style="fill:#0b0777;"/>
    <path clip-path="url(#p9dfa5e30d7)" d="M 170.354537 182.083677 
L 183.120142 186.087418 
L 190.984701 179.180683 
L 178.297094 175.252725 
z
" style="fill:#18046d;"/>
    <path clip-path="url(#p9dfa5e30d7)" d="M 203.841786 185.968896 
L 211.467294 179.100638 
L 224.338378 183.050047 
L 216.794403 189.994506 
z
" style="fill:#814628;"/>
    <path clip-path="url(#p9dfa5e30d7)" d="M 239.002775 169.551023 
L 239.54753 95.010973 
L 252.878962 98.579257 
L 251.851153 173.395697 
z
" style="fill:#6a5111;"/>
    <path clip-path="url(#p9dfa5e30d7)" d="M 244.670417 180.154631 
L 245.126274 135.404045 
L 252.462074 128.925405 
L 251.851153 173.395697 
z
" style="fill:#b84466;"/>
    <path clip-path="url(#p9dfa5e30d7)" d="M 270.961723 188.120663 
L 270.973362 187.624397 
L 277.984514 180.718472 
L 277.971253 181.211726 
z
" style="fill:#0b0777;"/>
    <path clip-path="url(#p9dfa5e30d7)" d="M 239.002775 169.551023 
L 251.851153 173.395697 
L 252.888683 97.871667 
L 239.552682 94.30614 
z
" style="fill:#e0ae23;"/>
    <path clip-path="url(#p9dfa5e30d7)" d="M 270.961723 188.120663 
L 277.971253 181.211726 
L 278.08156 177.108798 
L 271.058537 183.9926 
z
" style="fill:#11023d;"/>
    <path clip-path="url(#p9dfa5e30d7)" d="M 237.351973 187.043183 
L 244.670417 180.154631 
L 257.743589 184.115686 
L 250.510457 191.080779 
z
" style="fill:#7a3931;"/>
    <path clip-path="url(#p9dfa5e30d7)" d="M 183.178635 188.911464 
L 191.031582 181.987547 
L 190.984701 179.180683 
L 183.120142 186.087418 
z
" style="fill:#0d023b;"/>
    <path clip-path="url(#p9dfa5e30d7)" d="M 231.739835 176.23678 
L 232.017481 101.217022 
L 239.54753 95.010973 
L 239.002775 169.551023 
z
" style="fill:#e0ab24;"/>
    <path clip-path="url(#p9dfa5e30d7)" d="M 198.736391 175.194243 
L 198.083791 124.19046 
L 211.137365 127.910563 
L 211.467294 179.100638 
z
" style="fill:#5d2929;"/>
    <path clip-path="url(#p9dfa5e30d7)" d="M 149.662704 187.831639 
L 157.822766 180.928173 
L 170.430723 184.897786 
L 162.346885 191.878042 
z
" style="fill:#070448;"/>
    <path clip-path="url(#p9dfa5e30d7)" d="M 149.645042 187.361375 
L 162.332141 191.406119 
L 170.418024 184.428731 
L 157.807184 180.460763 
z
" style="fill:#0a0667;"/>
    <path clip-path="url(#p9dfa5e30d7)" d="M 270.961723 188.120663 
L 277.971253 181.211726 
L 291.24765 185.184478 
L 284.327244 192.170297 
z
" style="fill:#070448;"/>
    <path clip-path="url(#p9dfa5e30d7)" d="M 270.973362 187.624397 
L 284.342303 191.67228 
L 291.264285 184.689488 
L 277.984514 180.718472 
z
" style="fill:#0a0667;"/>
    <path clip-path="url(#p9dfa5e30d7)" d="M 257.743589 184.115686 
L 270.961723 188.120663 
L 271.058537 183.9926 
L 257.812571 180.00216 
z
" style="fill:#230581;"/>
    <path clip-path="url(#p9dfa5e30d7)" d="M 231.739835 176.23678 
L 239.002775 169.551023 
L 239.582927 90.167631 
L 232.035528 96.340688 
z
" style="fill:#685a0f;"/>
    <path clip-path="url(#p9dfa5e30d7)" d="M 218.949524 172.361429 
L 218.756298 100.513713 
L 232.006726 104.122851 
L 231.739835 176.23678 
z
" style="fill:#6a4c13;"/>
    <path clip-path="url(#p9dfa5e30d7)" d="M 170.430723 184.897786 
L 170.387672 183.307624 
L 183.145582 187.315692 
L 183.178635 188.911464 
z
" style="fill:#09033a;"/>
    <path clip-path="url(#p9dfa5e30d7)" d="M 257.743589 184.115686 
L 257.85131 177.692154 
L 271.112904 181.674388 
L 270.961723 188.120663 
z
" style="fill:#16023f;"/>
    <path clip-path="url(#p9dfa5e30d7)" d="M 170.430723 184.897786 
L 183.178635 188.911464 
L 183.120142 186.087418 
L 170.354537 182.083677 
z
" style="fill:#1c057e;"/>
    <path clip-path="url(#p9dfa5e30d7)" d="M 183.178635 188.911464 
L 191.031582 181.987547 
L 203.841786 185.968896 
L 196.068846 192.969946 
z
" style="fill:#530c54;"/>
    <path clip-path="url(#p9dfa5e30d7)" d="M 213.307264 84.080466 
L 226.368483 87.554614 
L 233.852937 81.561569 
L 220.874958 78.153462 
z
" style="fill:#c1a21c;"/>
    <path clip-path="url(#p9dfa5e30d7)" d="M 191.031582 181.987547 
L 190.174293 130.660466 
L 198.083791 124.19046 
L 198.736391 175.194243 
z
" style="fill:#c65757;"/>
    <path clip-path="url(#p9dfa5e30d7)" d="M 211.467294 179.100638 
L 218.949524 172.361429 
L 218.760109 101.930671 
L 211.010439 108.217432 
z
" style="fill:#694914;"/>
    <path clip-path="url(#p9dfa5e30d7)" d="M 162.346885 191.878042 
L 170.430723 184.897786 
L 170.418024 184.428731 
L 162.332141 191.406119 
z
" style="fill:#050338;"/>
    <path clip-path="url(#p9dfa5e30d7)" d="M 218.949524 172.361429 
L 231.739835 176.23678 
L 232.035528 96.340688 
L 218.735451 92.761958 
z
" style="fill:#ddbf20;"/>
    <path clip-path="url(#p9dfa5e30d7)" d="M 216.794403 189.994506 
L 224.338378 183.050047 
L 237.351973 187.043183 
L 229.891821 194.06512 
z
" style="fill:#7f422b;"/>
    <path clip-path="url(#p9dfa5e30d7)" d="M 211.467294 179.100638 
L 211.001245 106.790887 
L 218.756298 100.513713 
L 218.949524 172.361429 
z
" style="fill:#e0a029;"/>
    <path clip-path="url(#p9dfa5e30d7)" d="M 162.346885 191.878042 
L 162.296901 190.278146 
L 170.387672 183.307624 
L 170.430723 184.897786 
z
" style="fill:#13067a;"/>
    <path clip-path="url(#p9dfa5e30d7)" d="M 257.743589 184.115686 
L 264.839875 177.282368 
L 265.744232 132.650561 
L 258.496777 139.202106 
z
" style="fill:#572030;"/>
    <path clip-path="url(#p9dfa5e30d7)" d="M 284.327244 192.170297 
L 291.24765 185.184478 
L 291.264285 184.689488 
L 284.342303 191.67228 
z
" style="fill:#050338;"/>
    <path clip-path="url(#p9dfa5e30d7)" d="M 250.510457 191.080779 
L 250.595669 184.617786 
L 257.85131 177.692154 
L 257.743589 184.115686 
z
" style="fill:#2f0486;"/>
    <path clip-path="url(#p9dfa5e30d7)" d="M 191.031582 181.987547 
L 190.552298 153.292146 
L 203.545187 157.170188 
L 203.841786 185.968896 
z
" style="fill:#410a42;"/>
    <path clip-path="url(#p9dfa5e30d7)" d="M 250.510457 191.080779 
L 257.743589 184.115686 
L 270.961723 188.120663 
L 263.816264 195.163579 
z
" style="fill:#1c0251;"/>
    <path clip-path="url(#p9dfa5e30d7)" d="M 198.736391 175.194243 
L 211.467294 179.100638 
L 211.010439 108.217432 
L 197.83278 104.572789 
z
" style="fill:#e09b2b;"/>
    <path clip-path="url(#p9dfa5e30d7)" d="M 149.662704 187.831639 
L 149.649229 187.472854 
L 162.335636 191.517991 
L 162.346885 191.878042 
z
" style="fill:#050338;"/>
    <path clip-path="url(#p9dfa5e30d7)" d="M 149.662704 187.831639 
L 162.346885 191.878042 
L 162.332141 191.406119 
L 149.645042 187.361375 
z
" style="fill:#0b0777;"/>
    <path clip-path="url(#p9dfa5e30d7)" d="M 244.670417 180.154631 
L 251.851153 173.395697 
L 252.878962 98.579257 
L 245.437457 104.855789 
z
" style="fill:#6a5111;"/>
    <path clip-path="url(#p9dfa5e30d7)" d="M 244.670417 180.154631 
L 257.743589 184.115686 
L 258.496777 139.202106 
L 245.126274 135.404045 
z
" style="fill:#b84466;"/>
    <path clip-path="url(#p9dfa5e30d7)" d="M 270.961723 188.120663 
L 284.327244 192.170297 
L 284.342303 191.67228 
L 270.973362 187.624397 
z
" style="fill:#0b0777;"/>
    <path clip-path="url(#p9dfa5e30d7)" d="M 270.961723 188.120663 
L 270.973657 187.611798 
L 284.342685 191.659636 
L 284.327244 192.170297 
z
" style="fill:#050338;"/>
    <path clip-path="url(#p9dfa5e30d7)" d="M 162.346885 191.878042 
L 170.430723 184.897786 
L 183.178635 188.911464 
L 175.173234 195.969799 
z
" style="fill:#0c044a;"/>
    <path clip-path="url(#p9dfa5e30d7)" d="M 183.178635 188.911464 
L 182.58057 160.036801 
L 190.552298 153.292146 
L 191.031582 181.987547 
z
" style="fill:#8a148c;"/>
    <path clip-path="url(#p9dfa5e30d7)" d="M 231.739835 176.23678 
L 231.998402 106.372139 
L 245.384739 110.031076 
L 244.670417 180.154631 
z
" style="fill:#694715;"/>
    <path clip-path="url(#p9dfa5e30d7)" d="M 162.296901 190.278146 
L 175.13337 194.364247 
L 183.145582 187.315692 
L 170.387672 183.307624 
z
" style="fill:#11056a;"/>
    <path clip-path="url(#p9dfa5e30d7)" d="M 141.344465 194.868925 
L 141.329343 194.507943 
L 149.649229 187.472854 
L 149.662704 187.831639 
z
" style="fill:#0b0777;"/>
    <path clip-path="url(#p9dfa5e30d7)" d="M 196.068846 192.969946 
L 203.841786 185.968896 
L 216.794403 189.994506 
L 209.103753 197.073984 
z
" style="fill:#702a3c;"/>
    <path clip-path="url(#p9dfa5e30d7)" d="M 231.739835 176.23678 
L 244.670417 180.154631 
L 245.437457 104.855789 
L 232.017481 101.217022 
z
" style="fill:#e0ab24;"/>
    <path clip-path="url(#p9dfa5e30d7)" d="M 263.816264 195.163579 
L 263.826467 194.651599 
L 270.973657 187.611798 
L 270.961723 188.120663 
z
" style="fill:#0b0777;"/>
    <path clip-path="url(#p9dfa5e30d7)" d="M 244.670417 180.154631 
L 245.214427 126.750187 
L 258.64245 130.515445 
L 257.743589 184.115686 
z
" style="fill:#602d27;"/>
    <path clip-path="url(#p9dfa5e30d7)" d="M 203.841786 185.968896 
L 211.467294 179.100638 
L 211.137365 127.910563 
L 203.311229 134.4538 
z
" style="fill:#5d2929;"/>
    <path clip-path="url(#p9dfa5e30d7)" d="M 211.467294 179.100638 
L 211.079069 118.865658 
L 224.338378 122.59318 
L 224.338378 183.050047 
z
" style="fill:#65371f;"/>
    <path clip-path="url(#p9dfa5e30d7)" d="M 250.595669 184.617786 
L 263.94552 188.677656 
L 271.112904 181.674388 
L 257.85131 177.692154 
z
" style="fill:#290375;"/>
    <path clip-path="url(#p9dfa5e30d7)" d="M 224.338378 183.050047 
L 224.338378 112.736046 
L 231.998402 106.372139 
L 231.739835 176.23678 
z
" style="fill:#df972d;"/>
    <path clip-path="url(#p9dfa5e30d7)" d="M 229.891821 194.06512 
L 237.351973 187.043183 
L 250.510457 191.080779 
L 243.136481 198.181496 
z
" style="fill:#793832;"/>
    <path clip-path="url(#p9dfa5e30d7)" d="M 224.338378 183.050047 
L 231.739835 176.23678 
L 232.006726 104.122851 
L 224.338378 110.471513 
z
" style="fill:#6a4c13;"/>
    <path clip-path="url(#p9dfa5e30d7)" d="M 175.173234 195.969799 
L 183.178635 188.911464 
L 183.145582 187.315692 
L 175.13337 194.364247 
z
" style="fill:#09033a;"/>
    <path clip-path="url(#p9dfa5e30d7)" d="M 263.816264 195.163579 
L 270.961723 188.120663 
L 271.112904 181.674388 
L 263.94552 188.677656 
z
" style="fill:#16023f;"/>
    <path clip-path="url(#p9dfa5e30d7)" d="M 183.178635 188.911464 
L 182.92806 176.813704 
L 195.895779 180.829097 
L 196.068846 192.969946 
z
" style="fill:#220144;"/>
    <path clip-path="url(#p9dfa5e30d7)" d="M 191.031582 181.987547 
L 203.841786 185.968896 
L 203.311229 134.4538 
L 190.174293 130.660466 
z
" style="fill:#c65757;"/>
    <path clip-path="url(#p9dfa5e30d7)" d="M 237.351973 187.043183 
L 237.703598 133.29895 
L 245.214427 126.750187 
L 244.670417 180.154631 
z
" style="fill:#ca5f52;"/>
    <path clip-path="url(#p9dfa5e30d7)" d="M 205.626115 93.849455 
L 218.747941 97.406189 
L 226.36487 91.270876 
L 213.326783 87.782281 
z
" style="fill:#c2961f;"/>
    <path clip-path="url(#p9dfa5e30d7)" d="M 141.344465 194.868925 
L 149.662704 187.831639 
L 162.346885 191.878042 
L 154.105465 198.994368 
z
" style="fill:#070448;"/>
    <path clip-path="url(#p9dfa5e30d7)" d="M 203.841786 185.968896 
L 203.217456 125.348837 
L 211.079069 118.865658 
L 211.467294 179.100638 
z
" style="fill:#d67543;"/>
    <path clip-path="url(#p9dfa5e30d7)" d="M 141.329343 194.507943 
L 154.092597 198.63211 
L 162.335636 191.517991 
L 149.649229 187.472854 
z
" style="fill:#0a0667;"/>
    <path clip-path="url(#p9dfa5e30d7)" d="M 263.816264 195.163579 
L 270.961723 188.120663 
L 284.327244 192.170297 
L 277.271882 199.292348 
z
" style="fill:#070448;"/>
    <path clip-path="url(#p9dfa5e30d7)" d="M 263.826467 194.651599 
L 277.28564 198.778558 
L 284.342685 191.659636 
L 270.973657 187.611798 
z
" style="fill:#0a0667;"/>
    <path clip-path="url(#p9dfa5e30d7)" d="M 162.346885 191.878042 
L 162.326857 191.236992 
L 175.157261 195.326484 
L 175.173234 195.969799 
z
" style="fill:#050338;"/>
    <path clip-path="url(#p9dfa5e30d7)" d="M 211.467294 179.100638 
L 224.338378 183.050047 
L 224.338378 110.471513 
L 211.001245 106.790887 
z
" style="fill:#e0a029;"/>
    <path clip-path="url(#p9dfa5e30d7)" d="M 162.346885 191.878042 
L 175.173234 195.969799 
L 175.13337 194.364247 
L 162.296901 190.278146 
z
" style="fill:#13067a;"/>
    <path clip-path="url(#p9dfa5e30d7)" d="M 250.510457 191.080779 
L 263.816264 195.163579 
L 263.94552 188.677656 
L 250.595669 184.617786 
z
" style="fill:#2f0486;"/>
    <path clip-path="url(#p9dfa5e30d7)" d="M 226.375918 79.904801 
L 239.632475 83.387793 
L 247.057799 77.379717 
L 233.887451 73.96354 
z
" style="fill:#b8bf1a;"/>
    <path clip-path="url(#p9dfa5e30d7)" d="M 175.173234 195.969799 
L 183.178635 188.911464 
L 196.068846 192.969946 
L 188.144156 200.107676 
z
" style="fill:#2b0157;"/>
    <path clip-path="url(#p9dfa5e30d7)" d="M 239.552682 94.30614 
L 252.888683 97.871667 
L 260.188704 91.72123 
L 246.940405 88.224129 
z
" style="fill:#c2971e;"/>
    <path clip-path="url(#p9dfa5e30d7)" d="M 175.173234 195.969799 
L 174.871001 183.797276 
L 182.92806 176.813704 
L 183.178635 188.911464 
z
" style="fill:#480290;"/>
    <path clip-path="url(#p9dfa5e30d7)" d="M 196.068846 192.969946 
L 203.841786 185.968896 
L 203.545187 157.170188 
L 195.655754 163.991075 
z
" style="fill:#410a42;"/>
    <path clip-path="url(#p9dfa5e30d7)" d="M 245.126274 135.404045 
L 258.496777 139.202106 
L 265.744232 132.650561 
L 252.462074 128.925405 
z
" style="fill:#a03b58;"/>
    <path clip-path="url(#p9dfa5e30d7)" d="M 154.105465 198.994368 
L 162.346885 191.878042 
L 162.335636 191.517991 
L 154.092597 198.63211 
z
" style="fill:#050338;"/>
    <path clip-path="url(#p9dfa5e30d7)" d="M 154.105465 198.994368 
L 154.082554 198.349388 
L 162.326857 191.236992 
L 162.346885 191.878042 
z
" style="fill:#0b0777;"/>
    <path clip-path="url(#p9dfa5e30d7)" d="M 250.510457 191.080779 
L 250.6858 177.781806 
L 264.082242 181.817164 
L 263.816264 195.163579 
z
" style="fill:#250145;"/>
    <path clip-path="url(#p9dfa5e30d7)" d="M 209.103753 197.073984 
L 216.794403 189.994506 
L 229.891821 194.06512 
L 222.285805 201.224351 
z
" style="fill:#6f293d;"/>
    <path clip-path="url(#p9dfa5e30d7)" d="M 224.338378 183.050047 
L 224.338378 124.71037 
L 237.73507 128.488579 
L 237.351973 187.043183 
z
" style="fill:#633422;"/>
    <path clip-path="url(#p9dfa5e30d7)" d="M 277.271882 199.292348 
L 284.327244 192.170297 
L 284.342685 191.659636 
L 277.28564 198.778558 
z
" style="fill:#050338;"/>
    <path clip-path="url(#p9dfa5e30d7)" d="M 183.178635 188.911464 
L 196.068846 192.969946 
L 195.655754 163.991075 
L 182.58057 160.036801 
z
" style="fill:#8a148c;"/>
    <path clip-path="url(#p9dfa5e30d7)" d="M 203.841786 185.968896 
L 203.373355 140.485962 
L 216.621012 144.345466 
L 216.794403 189.994506 
z
" style="fill:#57212f;"/>
    <path clip-path="url(#p9dfa5e30d7)" d="M 237.351973 187.043183 
L 244.670417 180.154631 
L 245.384739 110.031076 
L 237.813717 116.467793 
z
" style="fill:#694715;"/>
    <path clip-path="url(#p9dfa5e30d7)" d="M 243.136481 198.181496 
L 250.510457 191.080779 
L 263.816264 195.163579 
L 256.530882 202.34441 
z
" style="fill:#2f0158;"/>
    <path clip-path="url(#p9dfa5e30d7)" d="M 141.344465 194.868925 
L 154.105465 198.994368 
L 154.092597 198.63211 
L 141.329343 194.507943 
z
" style="fill:#0b0777;"/>
    <path clip-path="url(#p9dfa5e30d7)" d="M 243.136481 198.181496 
L 243.263656 184.800207 
L 250.6858 177.781806 
L 250.510457 191.080779 
z
" style="fill:#4d0191;"/>
    <path clip-path="url(#p9dfa5e30d7)" d="M 216.794403 189.994506 
L 216.571391 131.281836 
L 224.338378 124.71037 
L 224.338378 183.050047 
z
" style="fill:#d36e47;"/>
    <path clip-path="url(#p9dfa5e30d7)" d="M 263.816264 195.163579 
L 263.8246 194.745253 
L 277.283123 198.872543 
L 277.271882 199.292348 
z
" style="fill:#050338;"/>
    <path clip-path="url(#p9dfa5e30d7)" d="M 263.816264 195.163579 
L 277.271882 199.292348 
L 277.28564 198.778558 
L 263.826467 194.651599 
z
" style="fill:#0b0777;"/>
    <path clip-path="url(#p9dfa5e30d7)" d="M 250.510457 191.080779 
L 257.743589 184.115686 
L 258.64245 130.515445 
L 251.221665 137.138948 
z
" style="fill:#602d27;"/>
    <path clip-path="url(#p9dfa5e30d7)" d="M 154.105465 198.994368 
L 162.346885 191.878042 
L 175.173234 195.969799 
L 167.010898 203.166503 
z
" style="fill:#070448;"/>
    <path clip-path="url(#p9dfa5e30d7)" d="M 216.794403 189.994506 
L 224.338378 183.050047 
L 224.338378 122.59318 
L 216.563296 129.150487 
z
" style="fill:#65371f;"/>
    <path clip-path="url(#p9dfa5e30d7)" d="M 154.082554 198.349388 
L 166.99209 202.519241 
L 175.157261 195.326484 
L 162.326857 191.236992 
z
" style="fill:#0a0667;"/>
    <path clip-path="url(#p9dfa5e30d7)" d="M 196.068846 192.969946 
L 195.416381 147.198762 
L 203.373355 140.485962 
L 203.841786 185.968896 
z
" style="fill:#b94664;"/>
    <path clip-path="url(#p9dfa5e30d7)" d="M 224.338378 183.050047 
L 237.351973 187.043183 
L 237.813717 116.467793 
L 224.338378 112.736046 
z
" style="fill:#df972d;"/>
    <path clip-path="url(#p9dfa5e30d7)" d="M 182.58057 160.036801 
L 195.655754 163.991075 
L 203.545187 157.170188 
L 190.552298 153.292146 
z
" style="fill:#771279;"/>
    <path clip-path="url(#p9dfa5e30d7)" d="M 175.173234 195.969799 
L 175.111922 193.50044 
L 188.098765 197.629572 
L 188.144156 200.107676 
z
" style="fill:#0c033b;"/>
    <path clip-path="url(#p9dfa5e30d7)" d="M 188.144156 200.107676 
L 196.068846 192.969946 
L 209.103753 197.073984 
L 201.262108 204.292457 
z
" style="fill:#520b55;"/>
    <path clip-path="url(#p9dfa5e30d7)" d="M 188.144156 200.107676 
L 196.068846 192.969946 
L 195.895779 180.829097 
L 187.920397 187.891709 
z
" style="fill:#220144;"/>
    <path clip-path="url(#p9dfa5e30d7)" d="M 237.351973 187.043183 
L 237.699521 133.921998 
L 251.213419 137.764379 
L 250.510457 191.080779 
z
" style="fill:#5f2c27;"/>
    <path clip-path="url(#p9dfa5e30d7)" d="M 256.530882 202.34441 
L 256.537746 201.923518 
L 263.8246 194.745253 
L 263.816264 195.163579 
z
" style="fill:#0b0777;"/>
    <path clip-path="url(#p9dfa5e30d7)" d="M 197.83278 104.572789 
L 211.010439 108.217432 
L 218.760109 101.930671 
L 205.666616 98.356373 
z
" style="fill:#c28626;"/>
    <path clip-path="url(#p9dfa5e30d7)" d="M 237.351973 187.043183 
L 250.510457 191.080779 
L 251.221665 137.138948 
L 237.703598 133.29895 
z
" style="fill:#ca5f52;"/>
    <path clip-path="url(#p9dfa5e30d7)" d="M 174.871001 183.797276 
L 187.920397 187.891709 
L 195.895779 180.829097 
L 182.92806 176.813704 
z
" style="fill:#3e017d;"/>
    <path clip-path="url(#p9dfa5e30d7)" d="M 190.174293 130.660466 
L 203.311229 134.4538 
L 211.137365 127.910563 
L 198.083791 124.19046 
z
" style="fill:#ac4c4c;"/>
    <path clip-path="url(#p9dfa5e30d7)" d="M 203.841786 185.968896 
L 216.794403 189.994506 
L 216.563296 129.150487 
L 203.217456 125.348837 
z
" style="fill:#d67543;"/>
    <path clip-path="url(#p9dfa5e30d7)" d="M 218.735451 92.761958 
L 232.035528 96.340688 
L 239.582927 90.167631 
L 226.369354 86.657995 
z
" style="fill:#c0a61c;"/>
    <path clip-path="url(#p9dfa5e30d7)" d="M 167.010898 203.166503 
L 175.173234 195.969799 
L 175.157261 195.326484 
L 166.99209 202.519241 
z
" style="fill:#050338;"/>
    <path clip-path="url(#p9dfa5e30d7)" d="M 222.285805 201.224351 
L 229.891821 194.06512 
L 243.136481 198.181496 
L 235.617509 205.421836 
z
" style="fill:#672045;"/>
    <path clip-path="url(#p9dfa5e30d7)" d="M 167.010898 203.166503 
L 166.938705 200.681972 
L 175.111922 193.50044 
L 175.173234 195.969799 
z
" style="fill:#1a057d;"/>
    <path clip-path="url(#p9dfa5e30d7)" d="M 196.068846 192.969946 
L 195.669359 164.945462 
L 208.887241 168.948301 
L 209.103753 197.073984 
z
" style="fill:#400942;"/>
    <path clip-path="url(#p9dfa5e30d7)" d="M 175.173234 195.969799 
L 188.144156 200.107676 
L 187.920397 187.891709 
L 174.871001 183.797276 
z
" style="fill:#480290;"/>
    <path clip-path="url(#p9dfa5e30d7)" d="M 229.891821 194.06512 
L 230.041609 140.605164 
L 237.699521 133.921998 
L 237.351973 187.043183 
z
" style="fill:#c95d53;"/>
    <path clip-path="url(#p9dfa5e30d7)" d="M 216.794403 189.994506 
L 216.623152 144.90892 
L 230.018607 148.814701 
L 229.891821 194.06512 
z
" style="fill:#572030;"/>
    <path clip-path="url(#p9dfa5e30d7)" d="M 256.530882 202.34441 
L 263.816264 195.163579 
L 277.271882 199.292348 
L 270.077576 206.554656 
z
" style="fill:#070448;"/>
    <path clip-path="url(#p9dfa5e30d7)" d="M 256.537746 201.923518 
L 270.087385 206.132274 
L 277.283123 198.872543 
L 263.8246 194.745253 
z
" style="fill:#0a0667;"/>
    <path clip-path="url(#p9dfa5e30d7)" d="M 154.105465 198.994368 
L 167.010898 203.166503 
L 166.99209 202.519241 
L 154.082554 198.349388 
z
" style="fill:#0b0777;"/>
    <path clip-path="url(#p9dfa5e30d7)" d="M 256.530882 202.34441 
L 263.816264 195.163579 
L 264.082242 181.817164 
L 256.749913 188.915288 
z
" style="fill:#250145;"/>
    <path clip-path="url(#p9dfa5e30d7)" d="M 229.891821 194.06512 
L 237.351973 187.043183 
L 237.73507 128.488579 
L 230.056934 135.135535 
z
" style="fill:#633422;"/>
    <path clip-path="url(#p9dfa5e30d7)" d="M 232.017481 101.217022 
L 245.437457 104.855789 
L 252.878962 98.579257 
L 239.54753 95.010973 
z
" style="fill:#c2941f;"/>
    <path clip-path="url(#p9dfa5e30d7)" d="M 243.263656 184.800207 
L 256.749913 188.915288 
L 264.082242 181.817164 
L 250.6858 177.781806 
z
" style="fill:#43017e;"/>
    <path clip-path="url(#p9dfa5e30d7)" d="M 167.010898 203.166503 
L 175.173234 195.969799 
L 188.144156 200.107676 
L 180.063228 207.386128 
z
" style="fill:#10034c;"/>
    <path clip-path="url(#p9dfa5e30d7)" d="M 188.144156 200.107676 
L 187.627618 171.907594 
L 195.669359 164.945462 
L 196.068846 192.969946 
z
" style="fill:#87128d;"/>
    <path clip-path="url(#p9dfa5e30d7)" d="M 209.103753 197.073984 
L 208.754482 151.702364 
L 216.623152 144.90892 
L 216.794403 189.994506 
z
" style="fill:#b84466;"/>
    <path clip-path="url(#p9dfa5e30d7)" d="M 209.103753 197.073984 
L 216.794403 189.994506 
L 216.621012 144.345466 
L 208.750116 151.135208 
z
" style="fill:#57212f;"/>
    <path clip-path="url(#p9dfa5e30d7)" d="M 166.938705 200.681972 
L 180.007154 204.892783 
L 188.098765 197.629572 
L 175.111922 193.50044 
z
" style="fill:#17056d;"/>
    <path clip-path="url(#p9dfa5e30d7)" d="M 243.136481 198.181496 
L 256.530882 202.34441 
L 256.749913 188.915288 
L 243.263656 184.800207 
z
" style="fill:#4d0191;"/>
    <path clip-path="url(#p9dfa5e30d7)" d="M 201.262108 204.292457 
L 209.103753 197.073984 
L 222.285805 201.224351 
L 214.529606 208.524945 
z
" style="fill:#4f0956;"/>
    <path clip-path="url(#p9dfa5e30d7)" d="M 216.794403 189.994506 
L 229.891821 194.06512 
L 230.056934 135.135535 
L 216.571391 131.281836 
z
" style="fill:#d36e47;"/>
    <path clip-path="url(#p9dfa5e30d7)" d="M 270.077576 206.554656 
L 277.271882 199.292348 
L 277.283123 198.872543 
L 270.087385 206.132274 
z
" style="fill:#050338;"/>
    <path clip-path="url(#p9dfa5e30d7)" d="M 196.068846 192.969946 
L 209.103753 197.073984 
L 208.750116 151.135208 
L 195.416381 147.198762 
z
" style="fill:#b94664;"/>
    <path clip-path="url(#p9dfa5e30d7)" d="M 211.001245 106.790887 
L 224.338378 110.471513 
L 232.006726 104.122851 
L 218.756298 100.513713 
z
" style="fill:#c28b23;"/>
    <path clip-path="url(#p9dfa5e30d7)" d="M 229.891821 194.06512 
L 230.003973 154.03746 
L 243.518289 158.007875 
L 243.136481 198.181496 
z
" style="fill:#511936;"/>
    <path clip-path="url(#p9dfa5e30d7)" d="M 243.136481 198.181496 
L 243.318325 179.047947 
L 256.844074 183.14215 
L 256.530882 202.34441 
z
" style="fill:#300046;"/>
    <path clip-path="url(#p9dfa5e30d7)" d="M 235.617509 205.421836 
L 243.136481 198.181496 
L 256.530882 202.34441 
L 249.101427 209.667246 
z
" style="fill:#3d005a;"/>
    <path clip-path="url(#p9dfa5e30d7)" d="M 188.144156 200.107676 
L 187.949372 189.473582 
L 201.137213 193.620416 
L 201.262108 204.292457 
z
" style="fill:#1f0143;"/>
    <path clip-path="url(#p9dfa5e30d7)" d="M 180.063228 207.386128 
L 188.144156 200.107676 
L 188.098765 197.629572 
L 180.007154 204.892783 
z
" style="fill:#0c033b;"/>
    <path clip-path="url(#p9dfa5e30d7)" d="M 209.103753 197.073984 
L 208.894161 169.847185 
L 222.257405 173.899176 
L 222.285805 201.224351 
z
" style="fill:#3e0743;"/>
    <path clip-path="url(#p9dfa5e30d7)" d="M 256.530882 202.34441 
L 256.536699 201.987749 
L 270.085888 206.196733 
L 270.077576 206.554656 
z
" style="fill:#050338;"/>
    <path clip-path="url(#p9dfa5e30d7)" d="M 243.136481 198.181496 
L 250.510457 191.080779 
L 251.213419 137.764379 
L 243.646433 144.524555 
z
" style="fill:#5f2c27;"/>
    <path clip-path="url(#p9dfa5e30d7)" d="M 256.530882 202.34441 
L 270.077576 206.554656 
L 270.087385 206.132274 
L 256.537746 201.923518 
z
" style="fill:#0b0777;"/>
    <path clip-path="url(#p9dfa5e30d7)" d="M 222.285805 201.224351 
L 222.24394 160.943416 
L 230.003973 154.03746 
L 229.891821 194.06512 
z
" style="fill:#ab3572;"/>
    <path clip-path="url(#p9dfa5e30d7)" d="M 237.703598 133.29895 
L 251.221665 137.138948 
L 258.64245 130.515445 
L 245.214427 126.750187 
z
" style="fill:#b05247;"/>
    <path clip-path="url(#p9dfa5e30d7)" d="M 235.617509 205.421836 
L 235.727701 186.169069 
L 243.318325 179.047947 
L 243.136481 198.181496 
z
" style="fill:#650095;"/>
    <path clip-path="url(#p9dfa5e30d7)" d="M 167.010898 203.166503 
L 180.063228 207.386128 
L 180.007154 204.892783 
L 166.938705 200.681972 
z
" style="fill:#1a057d;"/>
    <path clip-path="url(#p9dfa5e30d7)" d="M 180.063228 207.386128 
L 179.822594 196.686196 
L 187.949372 189.473582 
L 188.144156 200.107676 
z
" style="fill:#41028d;"/>
    <path clip-path="url(#p9dfa5e30d7)" d="M 201.262108 204.292457 
L 200.941474 176.894963 
L 208.894161 169.847185 
L 209.103753 197.073984 
z
" style="fill:#840f8f;"/>
    <path clip-path="url(#p9dfa5e30d7)" d="M 180.063228 207.386128 
L 188.144156 200.107676 
L 201.262108 204.292457 
L 193.264978 211.654059 
z
" style="fill:#270155;"/>
    <path clip-path="url(#p9dfa5e30d7)" d="M 201.262108 204.292457 
L 209.103753 197.073984 
L 208.887241 168.948301 
L 200.930887 175.990317 
z
" style="fill:#400942;"/>
    <path clip-path="url(#p9dfa5e30d7)" d="M 229.891821 194.06512 
L 243.136481 198.181496 
L 243.646433 144.524555 
L 230.041609 140.605164 
z
" style="fill:#c95d53;"/>
    <path clip-path="url(#p9dfa5e30d7)" d="M 249.101427 209.667246 
L 249.105946 209.308395 
L 256.536699 201.987749 
L 256.530882 202.34441 
z
" style="fill:#0b0777;"/>
    <path clip-path="url(#p9dfa5e30d7)" d="M 222.285805 201.224351 
L 229.891821 194.06512 
L 230.018607 148.814701 
L 222.238476 155.686437 
z
" style="fill:#572030;"/>
    <path clip-path="url(#p9dfa5e30d7)" d="M 203.217456 125.348837 
L 216.563296 129.150487 
L 224.338378 122.59318 
L 211.079069 118.865658 
z
" style="fill:#ba653a;"/>
    <path clip-path="url(#p9dfa5e30d7)" d="M 224.338378 112.736046 
L 237.813717 116.467793 
L 245.384739 110.031076 
L 231.998402 106.372139 
z
" style="fill:#c28327;"/>
    <path clip-path="url(#p9dfa5e30d7)" d="M 214.529606 208.524945 
L 222.285805 201.224351 
L 235.617509 205.421836 
L 227.94922 212.80596 
z
" style="fill:#4a0558;"/>
    <path clip-path="url(#p9dfa5e30d7)" d="M 188.144156 200.107676 
L 201.262108 204.292457 
L 200.930887 175.990317 
L 187.627618 171.907594 
z
" style="fill:#87128d;"/>
    <path clip-path="url(#p9dfa5e30d7)" d="M 209.103753 197.073984 
L 222.285805 201.224351 
L 222.238476 155.686437 
L 208.754482 151.702364 
z
" style="fill:#b84466;"/>
    <path clip-path="url(#p9dfa5e30d7)" d="M 222.285805 201.224351 
L 222.259779 176.183514 
L 235.761346 180.290575 
L 235.617509 205.421836 
z
" style="fill:#3a0445;"/>
    <path clip-path="url(#p9dfa5e30d7)" d="M 249.101427 209.667246 
L 256.530882 202.34441 
L 270.077576 206.554656 
L 262.740181 213.961405 
z
" style="fill:#070448;"/>
    <path clip-path="url(#p9dfa5e30d7)" d="M 249.105946 209.308395 
L 262.747229 213.601282 
L 270.085888 206.196733 
L 256.536699 201.987749 
z
" style="fill:#0a0667;"/>
    <path clip-path="url(#p9dfa5e30d7)" d="M 201.262108 204.292457 
L 201.145189 194.301978 
L 214.479624 198.498797 
L 214.529606 208.524945 
z
" style="fill:#1d0142;"/>
    <path clip-path="url(#p9dfa5e30d7)" d="M 195.416381 147.198762 
L 208.750116 151.135208 
L 216.621012 144.345466 
L 203.373355 140.485962 
z
" style="fill:#a13d57;"/>
    <path clip-path="url(#p9dfa5e30d7)" d="M 187.627618 171.907594 
L 200.930887 175.990317 
L 208.887241 168.948301 
L 195.669359 164.945462 
z
" style="fill:#75107a;"/>
    <path clip-path="url(#p9dfa5e30d7)" d="M 235.617509 205.421836 
L 243.136481 198.181496 
L 243.518289 158.007875 
L 235.848897 164.993673 
z
" style="fill:#511936;"/>
    <path clip-path="url(#p9dfa5e30d7)" d="M 214.529606 208.524945 
L 214.403991 183.327215 
L 222.259779 176.183514 
L 222.285805 201.224351 
z
" style="fill:#7b0992;"/>
    <path clip-path="url(#p9dfa5e30d7)" d="M 249.101427 209.667246 
L 256.530882 202.34441 
L 256.844074 183.14215 
L 249.344746 190.345205 
z
" style="fill:#300046;"/>
    <path clip-path="url(#p9dfa5e30d7)" d="M 193.264978 211.654059 
L 193.105972 201.601697 
L 201.145189 194.301978 
L 201.262108 204.292457 
z
" style="fill:#3e038c;"/>
    <path clip-path="url(#p9dfa5e30d7)" d="M 179.822594 196.686196 
L 193.095124 200.915876 
L 201.137213 193.620416 
L 187.949372 189.473582 
z
" style="fill:#38027b;"/>
    <path clip-path="url(#p9dfa5e30d7)" d="M 216.571391 131.281836 
L 230.056934 135.135535 
L 237.73507 128.488579 
L 224.338378 124.71037 
z
" style="fill:#b75f3e;"/>
    <path clip-path="url(#p9dfa5e30d7)" d="M 193.264978 211.654059 
L 201.262108 204.292457 
L 201.137213 193.620416 
L 193.095124 200.915876 
z
" style="fill:#1f0143;"/>
    <path clip-path="url(#p9dfa5e30d7)" d="M 214.529606 208.524945 
L 222.285805 201.224351 
L 222.257405 173.899176 
L 214.39253 181.028251 
z
" style="fill:#3e0743;"/>
    <path clip-path="url(#p9dfa5e30d7)" d="M 193.264978 211.654059 
L 201.262108 204.292457 
L 214.529606 208.524945 
L 206.61873 215.971129 
z
" style="fill:#250255;"/>
    <path clip-path="url(#p9dfa5e30d7)" d="M 262.740181 213.961405 
L 270.077576 206.554656 
L 270.085888 206.196733 
L 262.747229 213.601282 
z
" style="fill:#050338;"/>
    <path clip-path="url(#p9dfa5e30d7)" d="M 235.617509 205.421836 
L 235.71204 188.905424 
L 249.310162 193.091537 
L 249.101427 209.667246 
z
" style="fill:#2a0046;"/>
    <path clip-path="url(#p9dfa5e30d7)" d="M 222.285805 201.224351 
L 235.617509 205.421836 
L 235.848897 164.993673 
L 222.24394 160.943416 
z
" style="fill:#ab3572;"/>
    <path clip-path="url(#p9dfa5e30d7)" d="M 235.727701 186.169069 
L 249.344746 190.345205 
L 256.844074 183.14215 
L 243.318325 179.047947 
z
" style="fill:#580081;"/>
    <path clip-path="url(#p9dfa5e30d7)" d="M 235.617509 205.421836 
L 249.101427 209.667246 
L 249.344746 190.345205 
L 235.727701 186.169069 
z
" style="fill:#650095;"/>
    <path clip-path="url(#p9dfa5e30d7)" d="M 227.94922 212.80596 
L 235.617509 205.421836 
L 249.101427 209.667246 
L 241.523583 217.136342 
z
" style="fill:#360059;"/>
    <path clip-path="url(#p9dfa5e30d7)" d="M 180.063228 207.386128 
L 193.264978 211.654059 
L 193.095124 200.915876 
L 179.822594 196.686196 
z
" style="fill:#41028d;"/>
    <path clip-path="url(#p9dfa5e30d7)" d="M 201.262108 204.292457 
L 214.529606 208.524945 
L 214.39253 181.028251 
L 200.941474 176.894963 
z
" style="fill:#840f8f;"/>
    <path clip-path="url(#p9dfa5e30d7)" d="M 249.101427 209.667246 
L 262.740181 213.961405 
L 262.747229 213.601282 
L 249.105946 209.308395 
z
" style="fill:#0b0777;"/>
    <path clip-path="url(#p9dfa5e30d7)" d="M 249.101427 209.667246 
L 249.106077 209.297945 
L 262.747434 213.590795 
L 262.740181 213.961405 
z
" style="fill:#050338;"/>
    <path clip-path="url(#p9dfa5e30d7)" d="M 227.94922 212.80596 
L 227.979786 196.18667 
L 235.71204 188.905424 
L 235.617509 205.421836 
z
" style="fill:#5a0094;"/>
    <path clip-path="url(#p9dfa5e30d7)" d="M 230.041609 140.605164 
L 243.646433 144.524555 
L 251.213419 137.764379 
L 237.699521 133.921998 
z
" style="fill:#af5048;"/>
    <path clip-path="url(#p9dfa5e30d7)" d="M 208.754482 151.702364 
L 222.238476 155.686437 
L 230.018607 148.814701 
L 216.623152 144.90892 
z
" style="fill:#a03b58;"/>
    <path clip-path="url(#p9dfa5e30d7)" d="M 214.529606 208.524945 
L 214.484229 199.422565 
L 227.966021 203.671075 
L 227.94922 212.80596 
z
" style="fill:#1c0142;"/>
    <path clip-path="url(#p9dfa5e30d7)" d="M 200.941474 176.894963 
L 214.39253 181.028251 
L 222.257405 173.899176 
L 208.894161 169.847185 
z
" style="fill:#720d7c;"/>
    <path clip-path="url(#p9dfa5e30d7)" d="M 241.523583 217.136342 
L 241.526842 216.764769 
L 249.106077 209.297945 
L 249.101427 209.667246 
z
" style="fill:#0b0777;"/>
    <path clip-path="url(#p9dfa5e30d7)" d="M 227.94922 212.80596 
L 235.617509 205.421836 
L 235.761346 180.290575 
L 227.995731 187.517062 
z
" style="fill:#3a0445;"/>
    <path clip-path="url(#p9dfa5e30d7)" d="M 193.105972 201.601697 
L 206.527532 205.882818 
L 214.479624 198.498797 
L 201.145189 194.301978 
z
" style="fill:#36027a;"/>
    <path clip-path="url(#p9dfa5e30d7)" d="M 206.61873 215.971129 
L 206.535935 206.812357 
L 214.484229 199.422565 
L 214.529606 208.524945 
z
" style="fill:#3b038b;"/>
    <path clip-path="url(#p9dfa5e30d7)" d="M 206.61873 215.971129 
L 214.529606 208.524945 
L 214.479624 198.498797 
L 206.527532 205.882818 
z
" style="fill:#1d0142;"/>
    <path clip-path="url(#p9dfa5e30d7)" d="M 206.61873 215.971129 
L 214.529606 208.524945 
L 227.94922 212.80596 
L 220.127123 220.338193 
z
" style="fill:#240254;"/>
    <path clip-path="url(#p9dfa5e30d7)" d="M 222.24394 160.943416 
L 235.848897 164.993673 
L 243.518289 158.007875 
L 230.003973 154.03746 
z
" style="fill:#952e63;"/>
    <path clip-path="url(#p9dfa5e30d7)" d="M 214.529606 208.524945 
L 227.94922 212.80596 
L 227.995731 187.517062 
L 214.403991 183.327215 
z
" style="fill:#7b0992;"/>
    <path clip-path="url(#p9dfa5e30d7)" d="M 241.523583 217.136342 
L 249.101427 209.667246 
L 262.740181 213.961405 
L 255.255385 221.516949 
z
" style="fill:#070448;"/>
    <path clip-path="url(#p9dfa5e30d7)" d="M 241.526842 216.764769 
L 255.261283 221.144056 
L 262.747434 213.590795 
L 249.106077 209.297945 
z
" style="fill:#0a0667;"/>
    <path clip-path="url(#p9dfa5e30d7)" d="M 193.264978 211.654059 
L 206.61873 215.971129 
L 206.527532 205.882818 
L 193.105972 201.601697 
z
" style="fill:#3e038c;"/>
    <path clip-path="url(#p9dfa5e30d7)" d="M 227.94922 212.80596 
L 227.963521 205.030502 
L 241.592037 209.333123 
L 241.523583 217.136342 
z
" style="fill:#190241;"/>
    <path clip-path="url(#p9dfa5e30d7)" d="M 214.403991 183.327215 
L 227.995731 187.517062 
L 235.761346 180.290575 
L 222.259779 176.183514 
z
" style="fill:#6b087e;"/>
    <path clip-path="url(#p9dfa5e30d7)" d="M 241.523583 217.136342 
L 249.101427 209.667246 
L 249.310162 193.091537 
L 241.669901 200.457282 
z
" style="fill:#2a0046;"/>
    <path clip-path="url(#p9dfa5e30d7)" d="M 227.979786 196.18667 
L 241.669901 200.457282 
L 249.310162 193.091537 
L 235.71204 188.905424 
z
" style="fill:#4e0080;"/>
    <path clip-path="url(#p9dfa5e30d7)" d="M 255.255385 221.516949 
L 262.740181 213.961405 
L 262.747434 213.590795 
L 255.261283 221.144056 
z
" style="fill:#050338;"/>
    <path clip-path="url(#p9dfa5e30d7)" d="M 206.535935 206.812357 
L 220.107331 211.146664 
L 227.966021 203.671075 
L 214.484229 199.422565 
z
" style="fill:#330379;"/>
    <path clip-path="url(#p9dfa5e30d7)" d="M 220.127123 220.338193 
L 220.110276 212.514575 
L 227.963521 205.030502 
L 227.94922 212.80596 
z
" style="fill:#350389;"/>
    <path clip-path="url(#p9dfa5e30d7)" d="M 227.94922 212.80596 
L 241.523583 217.136342 
L 241.669901 200.457282 
L 227.979786 196.18667 
z
" style="fill:#5a0094;"/>
    <path clip-path="url(#p9dfa5e30d7)" d="M 220.127123 220.338193 
L 227.94922 212.80596 
L 227.966021 203.671075 
L 220.107331 211.146664 
z
" style="fill:#1c0142;"/>
    <path clip-path="url(#p9dfa5e30d7)" d="M 220.127123 220.338193 
L 227.94922 212.80596 
L 241.523583 217.136342 
L 233.792858 224.756123 
z
" style="fill:#200253;"/>
    <path clip-path="url(#p9dfa5e30d7)" d="M 241.523583 217.136342 
L 255.255385 221.516949 
L 255.261283 221.144056 
L 241.526842 216.764769 
z
" style="fill:#0b0777;"/>
    <path clip-path="url(#p9dfa5e30d7)" d="M 241.523583 217.136342 
L 241.526854 216.763383 
L 255.261305 221.142666 
L 255.255385 221.516949 
z
" style="fill:#050338;"/>
    <path clip-path="url(#p9dfa5e30d7)" d="M 206.61873 215.971129 
L 220.127123 220.338193 
L 220.107331 211.146664 
L 206.535935 206.812357 
z
" style="fill:#3b038b;"/>
    <path clip-path="url(#p9dfa5e30d7)" d="M 233.792858 224.756123 
L 233.794677 224.380868 
L 241.526854 216.763383 
L 241.523583 217.136342 
z
" style="fill:#0b0777;"/>
    <path clip-path="url(#p9dfa5e30d7)" d="M 220.110276 212.514575 
L 233.8309 216.904534 
L 241.592037 209.333123 
L 227.963521 205.030502 
z
" style="fill:#2e0377;"/>
    <path clip-path="url(#p9dfa5e30d7)" d="M 233.792858 224.756123 
L 241.523583 217.136342 
L 241.592037 209.333123 
L 233.8309 216.904534 
z
" style="fill:#190241;"/>
    <path clip-path="url(#p9dfa5e30d7)" d="M 233.792858 224.756123 
L 241.523583 217.136342 
L 255.255385 221.516949 
L 247.618703 229.225814 
z
" style="fill:#070448;"/>
    <path clip-path="url(#p9dfa5e30d7)" d="M 233.794677 224.380868 
L 247.623206 228.849225 
L 255.261305 221.142666 
L 241.526854 216.763383 
z
" style="fill:#0a0667;"/>
    <path clip-path="url(#p9dfa5e30d7)" d="M 220.127123 220.338193 
L 233.792858 224.756123 
L 233.8309 216.904534 
L 220.110276 212.514575 
z
" style="fill:#350389;"/>
    <path clip-path="url(#p9dfa5e30d7)" d="M 247.618703 229.225814 
L 255.255385 221.516949 
L 255.261305 221.142666 
L 247.623206 228.849225 
z
" style="fill:#050338;"/>
    <path clip-path="url(#p9dfa5e30d7)" d="M 233.792858 224.756123 
L 247.618703 229.225814 
L 247.623206 228.849225 
L 233.794677 224.380868 
z
" style="fill:#0b0777;"/>
   </g>
   <g id="text_18">
    <!-- W40__H35__A150_bars_extracted.txt -->
    <g transform="translate(110.101875 28.56)scale(0.12 -0.12)">
     <defs>
      <path d="M 3.328125 72.90625 
L 13.28125 72.90625 
L 28.609375 11.28125 
L 43.890625 72.90625 
L 54.984375 72.90625 
L 70.3125 11.28125 
L 85.59375 72.90625 
L 95.609375 72.90625 
L 77.296875 0 
L 64.890625 0 
L 49.515625 63.28125 
L 33.984375 0 
L 21.578125 0 
z
" id="DejaVuSans-87"/>
      <path d="M 50.984375 -16.609375 
L 50.984375 -23.578125 
L -0.984375 -23.578125 
L -0.984375 -16.609375 
z
" id="DejaVuSans-95"/>
      <path d="M 9.8125 72.90625 
L 19.671875 72.90625 
L 19.671875 43.015625 
L 55.515625 43.015625 
L 55.515625 72.90625 
L 65.375 72.90625 
L 65.375 0 
L 55.515625 0 
L 55.515625 34.71875 
L 19.671875 34.71875 
L 19.671875 0 
L 9.8125 0 
z
" id="DejaVuSans-72"/>
      <path d="M 34.1875 63.1875 
L 20.796875 26.90625 
L 47.609375 26.90625 
z
M 28.609375 72.90625 
L 39.796875 72.90625 
L 67.578125 0 
L 57.328125 0 
L 50.6875 18.703125 
L 17.828125 18.703125 
L 11.1875 0 
L 0.78125 0 
z
" id="DejaVuSans-65"/>
      <path d="M 48.6875 27.296875 
Q 48.6875 37.203125 44.609375 42.84375 
Q 40.53125 48.484375 33.40625 48.484375 
Q 26.265625 48.484375 22.1875 42.84375 
Q 18.109375 37.203125 18.109375 27.296875 
Q 18.109375 17.390625 22.1875 11.75 
Q 26.265625 6.109375 33.40625 6.109375 
Q 40.53125 6.109375 44.609375 11.75 
Q 48.6875 17.390625 48.6875 27.296875 
z
M 18.109375 46.390625 
Q 20.953125 51.265625 25.265625 53.625 
Q 29.59375 56 35.59375 56 
Q 45.5625 56 51.78125 48.09375 
Q 58.015625 40.1875 58.015625 27.296875 
Q 58.015625 14.40625 51.78125 6.484375 
Q 45.5625 -1.421875 35.59375 -1.421875 
Q 29.59375 -1.421875 25.265625 0.953125 
Q 20.953125 3.328125 18.109375 8.203125 
L 18.109375 0 
L 9.078125 0 
L 9.078125 75.984375 
L 18.109375 75.984375 
z
" id="DejaVuSans-98"/>
      <path d="M 34.28125 27.484375 
Q 23.390625 27.484375 19.1875 25 
Q 14.984375 22.515625 14.984375 16.5 
Q 14.984375 11.71875 18.140625 8.90625 
Q 21.296875 6.109375 26.703125 6.109375 
Q 34.1875 6.109375 38.703125 11.40625 
Q 43.21875 16.703125 43.21875 25.484375 
L 43.21875 27.484375 
z
M 52.203125 31.203125 
L 52.203125 0 
L 43.21875 0 
L 43.21875 8.296875 
Q 40.140625 3.328125 35.546875 0.953125 
Q 30.953125 -1.421875 24.3125 -1.421875 
Q 15.921875 -1.421875 10.953125 3.296875 
Q 6 8.015625 6 15.921875 
Q 6 25.140625 12.171875 29.828125 
Q 18.359375 34.515625 30.609375 34.515625 
L 43.21875 34.515625 
L 43.21875 35.40625 
Q 43.21875 41.609375 39.140625 45 
Q 35.0625 48.390625 27.6875 48.390625 
Q 23 48.390625 18.546875 47.265625 
Q 14.109375 46.140625 10.015625 43.890625 
L 10.015625 52.203125 
Q 14.9375 54.109375 19.578125 55.046875 
Q 24.21875 56 28.609375 56 
Q 40.484375 56 46.34375 49.84375 
Q 52.203125 43.703125 52.203125 31.203125 
z
" id="DejaVuSans-97"/>
      <path d="M 41.109375 46.296875 
Q 39.59375 47.171875 37.8125 47.578125 
Q 36.03125 48 33.890625 48 
Q 26.265625 48 22.1875 43.046875 
Q 18.109375 38.09375 18.109375 28.8125 
L 18.109375 0 
L 9.078125 0 
L 9.078125 54.6875 
L 18.109375 54.6875 
L 18.109375 46.1875 
Q 20.953125 51.171875 25.484375 53.578125 
Q 30.03125 56 36.53125 56 
Q 37.453125 56 38.578125 55.875 
Q 39.703125 55.765625 41.0625 55.515625 
z
" id="DejaVuSans-114"/>
      <path d="M 44.28125 53.078125 
L 44.28125 44.578125 
Q 40.484375 46.53125 36.375 47.5 
Q 32.28125 48.484375 27.875 48.484375 
Q 21.1875 48.484375 17.84375 46.4375 
Q 14.5 44.390625 14.5 40.28125 
Q 14.5 37.15625 16.890625 35.375 
Q 19.28125 33.59375 26.515625 31.984375 
L 29.59375 31.296875 
Q 39.15625 29.25 43.1875 25.515625 
Q 47.21875 21.78125 47.21875 15.09375 
Q 47.21875 7.46875 41.1875 3.015625 
Q 35.15625 -1.421875 24.609375 -1.421875 
Q 20.21875 -1.421875 15.453125 -0.5625 
Q 10.6875 0.296875 5.421875 2 
L 5.421875 11.28125 
Q 10.40625 8.6875 15.234375 7.390625 
Q 20.0625 6.109375 24.8125 6.109375 
Q 31.15625 6.109375 34.5625 8.28125 
Q 37.984375 10.453125 37.984375 14.40625 
Q 37.984375 18.0625 35.515625 20.015625 
Q 33.0625 21.96875 24.703125 23.78125 
L 21.578125 24.515625 
Q 13.234375 26.265625 9.515625 29.90625 
Q 5.8125 33.546875 5.8125 39.890625 
Q 5.8125 47.609375 11.28125 51.796875 
Q 16.75 56 26.8125 56 
Q 31.78125 56 36.171875 55.265625 
Q 40.578125 54.546875 44.28125 53.078125 
z
" id="DejaVuSans-115"/>
      <path d="M 56.203125 29.59375 
L 56.203125 25.203125 
L 14.890625 25.203125 
Q 15.484375 15.921875 20.484375 11.0625 
Q 25.484375 6.203125 34.421875 6.203125 
Q 39.59375 6.203125 44.453125 7.46875 
Q 49.3125 8.734375 54.109375 11.28125 
L 54.109375 2.78125 
Q 49.265625 0.734375 44.1875 -0.34375 
Q 39.109375 -1.421875 33.890625 -1.421875 
Q 20.796875 -1.421875 13.15625 6.1875 
Q 5.515625 13.8125 5.515625 26.8125 
Q 5.515625 40.234375 12.765625 48.109375 
Q 20.015625 56 32.328125 56 
Q 43.359375 56 49.78125 48.890625 
Q 56.203125 41.796875 56.203125 29.59375 
z
M 47.21875 32.234375 
Q 47.125 39.59375 43.09375 43.984375 
Q 39.0625 48.390625 32.421875 48.390625 
Q 24.90625 48.390625 20.390625 44.140625 
Q 15.875 39.890625 15.1875 32.171875 
z
" id="DejaVuSans-101"/>
      <path d="M 54.890625 54.6875 
L 35.109375 28.078125 
L 55.90625 0 
L 45.3125 0 
L 29.390625 21.484375 
L 13.484375 0 
L 2.875 0 
L 24.125 28.609375 
L 4.6875 54.6875 
L 15.28125 54.6875 
L 29.78125 35.203125 
L 44.28125 54.6875 
z
" id="DejaVuSans-120"/>
      <path d="M 18.3125 70.21875 
L 18.3125 54.6875 
L 36.8125 54.6875 
L 36.8125 47.703125 
L 18.3125 47.703125 
L 18.3125 18.015625 
Q 18.3125 11.328125 20.140625 9.421875 
Q 21.96875 7.515625 27.59375 7.515625 
L 36.8125 7.515625 
L 36.8125 0 
L 27.59375 0 
Q 17.1875 0 13.234375 3.875 
Q 9.28125 7.765625 9.28125 18.015625 
L 9.28125 47.703125 
L 2.6875 47.703125 
L 2.6875 54.6875 
L 9.28125 54.6875 
L 9.28125 70.21875 
z
" id="DejaVuSans-116"/>
      <path d="M 48.78125 52.59375 
L 48.78125 44.1875 
Q 44.96875 46.296875 41.140625 47.34375 
Q 37.3125 48.390625 33.40625 48.390625 
Q 24.65625 48.390625 19.8125 42.84375 
Q 14.984375 37.3125 14.984375 27.296875 
Q 14.984375 17.28125 19.8125 11.734375 
Q 24.65625 6.203125 33.40625 6.203125 
Q 37.3125 6.203125 41.140625 7.25 
Q 44.96875 8.296875 48.78125 10.40625 
L 48.78125 2.09375 
Q 45.015625 0.34375 40.984375 -0.53125 
Q 36.96875 -1.421875 32.421875 -1.421875 
Q 20.0625 -1.421875 12.78125 6.34375 
Q 5.515625 14.109375 5.515625 27.296875 
Q 5.515625 40.671875 12.859375 48.328125 
Q 20.21875 56 33.015625 56 
Q 37.15625 56 41.109375 55.140625 
Q 45.0625 54.296875 48.78125 52.59375 
z
" id="DejaVuSans-99"/>
      <path d="M 45.40625 46.390625 
L 45.40625 75.984375 
L 54.390625 75.984375 
L 54.390625 0 
L 45.40625 0 
L 45.40625 8.203125 
Q 42.578125 3.328125 38.25 0.953125 
Q 33.9375 -1.421875 27.875 -1.421875 
Q 17.96875 -1.421875 11.734375 6.484375 
Q 5.515625 14.40625 5.515625 27.296875 
Q 5.515625 40.1875 11.734375 48.09375 
Q 17.96875 56 27.875 56 
Q 33.9375 56 38.25 53.625 
Q 42.578125 51.265625 45.40625 46.390625 
z
M 14.796875 27.296875 
Q 14.796875 17.390625 18.875 11.75 
Q 22.953125 6.109375 30.078125 6.109375 
Q 37.203125 6.109375 41.296875 11.75 
Q 45.40625 17.390625 45.40625 27.296875 
Q 45.40625 37.203125 41.296875 42.84375 
Q 37.203125 48.484375 30.078125 48.484375 
Q 22.953125 48.484375 18.875 42.84375 
Q 14.796875 37.203125 14.796875 27.296875 
z
" id="DejaVuSans-100"/>
      <path d="M 10.6875 12.40625 
L 21 12.40625 
L 21 0 
L 10.6875 0 
z
" id="DejaVuSans-46"/>
     </defs>
     <use xlink:href="#DejaVuSans-87"/>
     <use x="98.876953" xlink:href="#DejaVuSans-52"/>
     <use x="162.5" xlink:href="#DejaVuSans-48"/>
     <use x="226.123047" xlink:href="#DejaVuSans-95"/>
     <use x="276.123047" xlink:href="#DejaVuSans-95"/>
     <use x="326.123047" xlink:href="#DejaVuSans-72"/>
     <use x="401.318359" xlink:href="#DejaVuSans-51"/>
     <use x="464.941406" xlink:href="#DejaVuSans-53"/>
     <use x="528.564453" xlink:href="#DejaVuSans-95"/>
     <use x="578.564453" xlink:href="#DejaVuSans-95"/>
     <use x="628.564453" xlink:href="#DejaVuSans-65"/>
     <use x="696.972656" xlink:href="#DejaVuSans-49"/>
     <use x="760.595703" xlink:href="#DejaVuSans-53"/>
     <use x="824.21875" xlink:href="#DejaVuSans-48"/>
     <use x="887.841797" xlink:href="#DejaVuSans-95"/>
     <use x="937.841797" xlink:href="#DejaVuSans-98"/>
     <use x="1001.318359" xlink:href="#DejaVuSans-97"/>
     <use x="1062.597656" xlink:href="#DejaVuSans-114"/>
     <use x="1103.710938" xlink:href="#DejaVuSans-115"/>
     <use x="1155.810547" xlink:href="#DejaVuSans-95"/>
     <use x="1205.810547" xlink:href="#DejaVuSans-101"/>
     <use x="1265.583984" xlink:href="#DejaVuSans-120"/>
     <use x="1324.763672" xlink:href="#DejaVuSans-116"/>
     <use x="1363.972656" xlink:href="#DejaVuSans-114"/>
     <use x="1405.085938" xlink:href="#DejaVuSans-97"/>
     <use x="1466.365234" xlink:href="#DejaVuSans-99"/>
     <use x="1521.345703" xlink:href="#DejaVuSans-116"/>
     <use x="1560.554688" xlink:href="#DejaVuSans-101"/>
     <use x="1622.078125" xlink:href="#DejaVuSans-100"/>
     <use x="1685.554688" xlink:href="#DejaVuSans-46"/>
     <use x="1717.341797" xlink:href="#DejaVuSans-116"/>
     <use x="1756.550781" xlink:href="#DejaVuSans-120"/>
     <use x="1815.730469" xlink:href="#DejaVuSans-116"/>
    </g>
   </g>
  </g>
 </g>
 <defs>
  <clipPath id="p9dfa5e30d7">
   <rect height="217.44" width="217.44" x="112.68" y="34.56"/>
  </clipPath>
 </defs>
</svg>
