<?xml version="1.0" encoding="utf-8" standalone="no"?>
<!DOCTYPE svg PUBLIC "-//W3C//DTD SVG 1.1//EN"
  "http://www.w3.org/Graphics/SVG/1.1/DTD/svg11.dtd">
<!-- Created with matplotlib (https://matplotlib.org/) -->
<svg height="288pt" version="1.1" viewBox="0 0 432 288" width="432pt" xmlns="http://www.w3.org/2000/svg" xmlns:xlink="http://www.w3.org/1999/xlink">
 <metadata>
  <rdf:RDF xmlns:cc="http://creativecommons.org/ns#" xmlns:dc="http://purl.org/dc/elements/1.1/" xmlns:rdf="http://www.w3.org/1999/02/22-rdf-syntax-ns#">
   <cc:Work>
    <dc:type rdf:resource="http://purl.org/dc/dcmitype/StillImage"/>
    <dc:date>2021-06-13T21:59:23.753313</dc:date>
    <dc:format>image/svg+xml</dc:format>
    <dc:creator>
     <cc:Agent>
      <dc:title>Matplotlib v3.3.4, https://matplotlib.org/</dc:title>
     </cc:Agent>
    </dc:creator>
   </cc:Work>
  </rdf:RDF>
 </metadata>
 <defs>
  <style type="text/css">*{stroke-linecap:butt;stroke-linejoin:round;}</style>
 </defs>
 <g id="figure_1">
  <g id="patch_1">
   <path d="M 0 288 
L 432 288 
L 432 0 
L 0 0 
z
" style="fill:#ffffff;"/>
  </g>
  <g id="patch_2">
   <path d="M 112.68 252 
L 330.12 252 
L 330.12 34.56 
L 112.68 34.56 
z
" style="fill:#ffffff;"/>
  </g>
  <g id="pane3d_1">
   <g id="patch_3">
    <path d="M 129.09822 198.386264 
L 200.904009 138.197228 
L 199.90584 51.393878 
L 124.663773 106.302111 
" style="fill:#f2f2f2;opacity:0.5;stroke:#f2f2f2;stroke-linejoin:miter;"/>
   </g>
  </g>
  <g id="pane3d_2">
   <g id="patch_4">
    <path d="M 200.904009 138.197228 
L 316.12668 171.68791 
L 320.238571 81.894718 
L 199.90584 51.393878 
" style="fill:#e6e6e6;opacity:0.5;stroke:#e6e6e6;stroke-linejoin:miter;"/>
   </g>
  </g>
  <g id="pane3d_3">
   <g id="patch_5">
    <path d="M 129.09822 198.386264 
L 251.239879 238.27773 
L 316.12668 171.68791 
L 200.904009 138.197228 
" style="fill:#ececec;opacity:0.5;stroke:#ececec;stroke-linejoin:miter;"/>
   </g>
  </g>
  <g id="axis3d_1">
   <g id="line2d_1">
    <path d="M 129.09822 198.386264 
L 251.239879 238.27773 
" style="fill:none;stroke:#000000;stroke-linecap:square;stroke-width:0.8;"/>
   </g>
   <g id="Line3DCollection_1">
    <path d="M 136.495759 200.802301 
L 207.911499 140.234029 
L 207.209612 53.245171 
" style="fill:none;stroke:#b0b0b0;stroke-width:0.8;"/>
    <path d="M 162.23134 209.207541 
L 232.260894 147.311436 
L 232.60309 59.681678 
" style="fill:none;stroke:#b0b0b0;stroke-width:0.8;"/>
    <path d="M 188.559037 217.806167 
L 257.123632 154.538053 
L 258.555303 66.259807 
" style="fill:none;stroke:#b0b0b0;stroke-width:0.8;"/>
    <path d="M 215.499525 226.604931 
L 282.516121 161.918647 
L 285.084894 72.984285 
" style="fill:none;stroke:#b0b0b0;stroke-width:0.8;"/>
    <path d="M 243.074449 235.610901 
L 308.455474 169.458193 
L 312.21135 79.860051 
" style="fill:none;stroke:#b0b0b0;stroke-width:0.8;"/>
   </g>
   <g id="xtick_1">
    <g id="line2d_2">
     <path d="M 137.117644 200.274876 
L 135.249322 201.859414 
" style="fill:none;stroke:#000000;stroke-linecap:square;stroke-width:0.8;"/>
    </g>
    <g id="text_1">
     <!-- 0 -->
     <g transform="translate(125.77919 224.124533)scale(0.1 -0.1)">
      <defs>
       <path d="M 31.78125 66.40625 
Q 24.171875 66.40625 20.328125 58.90625 
Q 16.5 51.421875 16.5 36.375 
Q 16.5 21.390625 20.328125 13.890625 
Q 24.171875 6.390625 31.78125 6.390625 
Q 39.453125 6.390625 43.28125 13.890625 
Q 47.125 21.390625 47.125 36.375 
Q 47.125 51.421875 43.28125 58.90625 
Q 39.453125 66.40625 31.78125 66.40625 
z
M 31.78125 74.21875 
Q 44.046875 74.21875 50.515625 64.515625 
Q 56.984375 54.828125 56.984375 36.375 
Q 56.984375 17.96875 50.515625 8.265625 
Q 44.046875 -1.421875 31.78125 -1.421875 
Q 19.53125 -1.421875 13.0625 8.265625 
Q 6.59375 17.96875 6.59375 36.375 
Q 6.59375 54.828125 13.0625 64.515625 
Q 19.53125 74.21875 31.78125 74.21875 
z
" id="DejaVuSans-48"/>
      </defs>
      <use xlink:href="#DejaVuSans-48"/>
     </g>
    </g>
   </g>
   <g id="xtick_2">
    <g id="line2d_3">
     <path d="M 162.841716 208.668056 
L 161.007937 210.288854 
" style="fill:none;stroke:#000000;stroke-linecap:square;stroke-width:0.8;"/>
    </g>
    <g id="text_2">
     <!-- 2 -->
     <g transform="translate(151.547192 232.748132)scale(0.1 -0.1)">
      <defs>
       <path d="M 19.1875 8.296875 
L 53.609375 8.296875 
L 53.609375 0 
L 7.328125 0 
L 7.328125 8.296875 
Q 12.9375 14.109375 22.625 23.890625 
Q 32.328125 33.6875 34.8125 36.53125 
Q 39.546875 41.84375 41.421875 45.53125 
Q 43.3125 49.21875 43.3125 52.78125 
Q 43.3125 58.59375 39.234375 62.25 
Q 35.15625 65.921875 28.609375 65.921875 
Q 23.96875 65.921875 18.8125 64.3125 
Q 13.671875 62.703125 7.8125 59.421875 
L 7.8125 69.390625 
Q 13.765625 71.78125 18.9375 73 
Q 24.125 74.21875 28.421875 74.21875 
Q 39.75 74.21875 46.484375 68.546875 
Q 53.21875 62.890625 53.21875 53.421875 
Q 53.21875 48.921875 51.53125 44.890625 
Q 49.859375 40.875 45.40625 35.40625 
Q 44.1875 33.984375 37.640625 27.21875 
Q 31.109375 20.453125 19.1875 8.296875 
z
" id="DejaVuSans-50"/>
      </defs>
      <use xlink:href="#DejaVuSans-50"/>
     </g>
    </g>
   </g>
   <g id="xtick_3">
    <g id="line2d_4">
     <path d="M 189.15721 217.254202 
L 187.360066 218.91252 
" style="fill:none;stroke:#000000;stroke-linecap:square;stroke-width:0.8;"/>
    </g>
    <g id="text_3">
     <!-- 4 -->
     <g transform="translate(177.91082 241.571064)scale(0.1 -0.1)">
      <defs>
       <path d="M 37.796875 64.3125 
L 12.890625 25.390625 
L 37.796875 25.390625 
z
M 35.203125 72.90625 
L 47.609375 72.90625 
L 47.609375 25.390625 
L 58.015625 25.390625 
L 58.015625 17.1875 
L 47.609375 17.1875 
L 47.609375 0 
L 37.796875 0 
L 37.796875 17.1875 
L 4.890625 17.1875 
L 4.890625 26.703125 
z
" id="DejaVuSans-52"/>
      </defs>
      <use xlink:href="#DejaVuSans-52"/>
     </g>
    </g>
   </g>
   <g id="xtick_4">
    <g id="line2d_5">
     <path d="M 216.084757 226.040048 
L 214.326462 227.737204 
" style="fill:none;stroke:#000000;stroke-linecap:square;stroke-width:0.8;"/>
    </g>
    <g id="text_4">
     <!-- 6 -->
     <g transform="translate(204.890965 250.600322)scale(0.1 -0.1)">
      <defs>
       <path d="M 33.015625 40.375 
Q 26.375 40.375 22.484375 35.828125 
Q 18.609375 31.296875 18.609375 23.390625 
Q 18.609375 15.53125 22.484375 10.953125 
Q 26.375 6.390625 33.015625 6.390625 
Q 39.65625 6.390625 43.53125 10.953125 
Q 47.40625 15.53125 47.40625 23.390625 
Q 47.40625 31.296875 43.53125 35.828125 
Q 39.65625 40.375 33.015625 40.375 
z
M 52.59375 71.296875 
L 52.59375 62.3125 
Q 48.875 64.0625 45.09375 64.984375 
Q 41.3125 65.921875 37.59375 65.921875 
Q 27.828125 65.921875 22.671875 59.328125 
Q 17.53125 52.734375 16.796875 39.40625 
Q 19.671875 43.65625 24.015625 45.921875 
Q 28.375 48.1875 33.59375 48.1875 
Q 44.578125 48.1875 50.953125 41.515625 
Q 57.328125 34.859375 57.328125 23.390625 
Q 57.328125 12.15625 50.6875 5.359375 
Q 44.046875 -1.421875 33.015625 -1.421875 
Q 20.359375 -1.421875 13.671875 8.265625 
Q 6.984375 17.96875 6.984375 36.375 
Q 6.984375 53.65625 15.1875 63.9375 
Q 23.390625 74.21875 37.203125 74.21875 
Q 40.921875 74.21875 44.703125 73.484375 
Q 48.484375 72.75 52.59375 71.296875 
z
" id="DejaVuSans-54"/>
      </defs>
      <use xlink:href="#DejaVuSans-54"/>
     </g>
    </g>
   </g>
   <g id="xtick_5">
    <g id="line2d_6">
     <path d="M 243.645962 235.032643 
L 241.928856 236.770015 
" style="fill:none;stroke:#000000;stroke-linecap:square;stroke-width:0.8;"/>
    </g>
    <g id="text_5">
     <!-- 8 -->
     <g transform="translate(232.509511 259.84323)scale(0.1 -0.1)">
      <defs>
       <path d="M 31.78125 34.625 
Q 24.75 34.625 20.71875 30.859375 
Q 16.703125 27.09375 16.703125 20.515625 
Q 16.703125 13.921875 20.71875 10.15625 
Q 24.75 6.390625 31.78125 6.390625 
Q 38.8125 6.390625 42.859375 10.171875 
Q 46.921875 13.96875 46.921875 20.515625 
Q 46.921875 27.09375 42.890625 30.859375 
Q 38.875 34.625 31.78125 34.625 
z
M 21.921875 38.8125 
Q 15.578125 40.375 12.03125 44.71875 
Q 8.5 49.078125 8.5 55.328125 
Q 8.5 64.0625 14.71875 69.140625 
Q 20.953125 74.21875 31.78125 74.21875 
Q 42.671875 74.21875 48.875 69.140625 
Q 55.078125 64.0625 55.078125 55.328125 
Q 55.078125 49.078125 51.53125 44.71875 
Q 48 40.375 41.703125 38.8125 
Q 48.828125 37.15625 52.796875 32.3125 
Q 56.78125 27.484375 56.78125 20.515625 
Q 56.78125 9.90625 50.3125 4.234375 
Q 43.84375 -1.421875 31.78125 -1.421875 
Q 19.734375 -1.421875 13.25 4.234375 
Q 6.78125 9.90625 6.78125 20.515625 
Q 6.78125 27.484375 10.78125 32.3125 
Q 14.796875 37.15625 21.921875 38.8125 
z
M 18.3125 54.390625 
Q 18.3125 48.734375 21.84375 45.5625 
Q 25.390625 42.390625 31.78125 42.390625 
Q 38.140625 42.390625 41.71875 45.5625 
Q 45.3125 48.734375 45.3125 54.390625 
Q 45.3125 60.0625 41.71875 63.234375 
Q 38.140625 66.40625 31.78125 66.40625 
Q 25.390625 66.40625 21.84375 63.234375 
Q 18.3125 60.0625 18.3125 54.390625 
z
" id="DejaVuSans-56"/>
      </defs>
      <use xlink:href="#DejaVuSans-56"/>
     </g>
    </g>
   </g>
  </g>
  <g id="axis3d_2">
   <g id="line2d_7">
    <path d="M 316.12668 171.68791 
L 251.239879 238.27773 
" style="fill:none;stroke:#000000;stroke-linecap:square;stroke-width:0.8;"/>
   </g>
   <g id="Line3DCollection_2">
    <path d="M 129.866948 102.505071 
L 134.046245 194.238731 
L 255.729543 233.67023 
" style="fill:none;stroke:#b0b0b0;stroke-width:0.8;"/>
    <path d="M 147.250212 89.819556 
L 150.59591 180.366474 
L 270.72626 218.279909 
" style="fill:none;stroke:#b0b0b0;stroke-width:0.8;"/>
    <path d="M 163.958537 77.626582 
L 166.530371 167.009893 
L 285.136664 203.491289 
" style="fill:none;stroke:#b0b0b0;stroke-width:0.8;"/>
    <path d="M 180.030483 65.898008 
L 181.883306 154.140758 
L 298.994481 189.269761 
" style="fill:none;stroke:#b0b0b0;stroke-width:0.8;"/>
    <path d="M 195.501727 54.607799 
L 196.68598 141.732864 
L 312.330896 175.583317 
" style="fill:none;stroke:#b0b0b0;stroke-width:0.8;"/>
   </g>
   <g id="xtick_6">
    <g id="line2d_8">
     <path d="M 254.704115 233.337939 
L 257.783053 234.33567 
" style="fill:none;stroke:#000000;stroke-linecap:square;stroke-width:0.8;"/>
    </g>
    <g id="text_6">
     <!-- 0 -->
     <g transform="translate(265.430654 254.693759)scale(0.1 -0.1)">
      <use xlink:href="#DejaVuSans-48"/>
     </g>
    </g>
   </g>
   <g id="xtick_7">
    <g id="line2d_9">
     <path d="M 269.71494 217.960734 
L 272.751463 218.919068 
" style="fill:none;stroke:#000000;stroke-linecap:square;stroke-width:0.8;"/>
    </g>
    <g id="text_7">
     <!-- 2 -->
     <g transform="translate(280.181112 239.024526)scale(0.1 -0.1)">
      <use xlink:href="#DejaVuSans-50"/>
     </g>
    </g>
   </g>
   <g id="xtick_8">
    <g id="line2d_10">
     <path d="M 284.139145 203.184468 
L 287.134182 204.105694 
" style="fill:none;stroke:#000000;stroke-linecap:square;stroke-width:0.8;"/>
    </g>
    <g id="text_8">
     <!-- 4 -->
     <g transform="translate(294.35448 223.968328)scale(0.1 -0.1)">
      <use xlink:href="#DejaVuSans-52"/>
     </g>
    </g>
   </g>
   <g id="xtick_9">
    <g id="line2d_11">
     <path d="M 298.010457 188.97459 
L 300.964927 189.860821 
" style="fill:none;stroke:#000000;stroke-linecap:square;stroke-width:0.8;"/>
    </g>
    <g id="text_9">
     <!-- 6 -->
     <g transform="translate(307.983974 209.489882)scale(0.1 -0.1)">
      <use xlink:href="#DejaVuSans-54"/>
     </g>
    </g>
   </g>
   <g id="xtick_10">
    <g id="line2d_12">
     <path d="M 311.360068 175.299146 
L 314.274875 176.15234 
" style="fill:none;stroke:#000000;stroke-linecap:square;stroke-width:0.8;"/>
    </g>
    <g id="text_10">
     <!-- 8 -->
     <g transform="translate(321.10031 195.556556)scale(0.1 -0.1)">
      <use xlink:href="#DejaVuSans-56"/>
     </g>
    </g>
   </g>
  </g>
  <g id="axis3d_3">
   <g id="line2d_13">
    <path d="M 316.12668 171.68791 
L 320.238571 81.894718 
" style="fill:none;stroke:#000000;stroke-linecap:square;stroke-width:0.8;"/>
   </g>
   <g id="Line3DCollection_3">
    <path d="M 316.205459 169.967571 
L 200.884845 136.530725 
L 129.013401 196.624949 
" style="fill:none;stroke:#b0b0b0;stroke-width:0.8;"/>
    <path d="M 317.038996 151.765259 
L 200.682178 118.906286 
L 128.115628 177.982105 
" style="fill:none;stroke:#b0b0b0;stroke-width:0.8;"/>
    <path d="M 317.887797 133.229612 
L 200.475978 100.974599 
L 127.200783 158.984764 
" style="fill:none;stroke:#b0b0b0;stroke-width:0.8;"/>
    <path d="M 318.752286 114.35139 
L 200.266152 82.727559 
L 126.268375 139.622719 
" style="fill:none;stroke:#b0b0b0;stroke-width:0.8;"/>
    <path d="M 319.632901 95.121007 
L 200.052603 64.156773 
L 125.317894 119.885365 
" style="fill:none;stroke:#b0b0b0;stroke-width:0.8;"/>
   </g>
   <g id="xtick_11">
    <g id="line2d_14">
     <path d="M 315.237563 169.686933 
L 318.143556 170.529516 
" style="fill:none;stroke:#000000;stroke-linecap:square;stroke-width:0.8;"/>
    </g>
    <g id="text_11">
     <!-- 0 -->
     <g transform="translate(331.275915 174.966846)scale(0.1 -0.1)">
      <use xlink:href="#DejaVuSans-48"/>
     </g>
    </g>
   </g>
   <g id="xtick_12">
    <g id="line2d_15">
     <path d="M 316.061988 151.489353 
L 318.995359 152.317732 
" style="fill:none;stroke:#000000;stroke-linecap:square;stroke-width:0.8;"/>
    </g>
    <g id="text_12">
     <!-- 10000 -->
     <g transform="translate(319.546355 156.808445)scale(0.1 -0.1)">
      <defs>
       <path d="M 12.40625 8.296875 
L 28.515625 8.296875 
L 28.515625 63.921875 
L 10.984375 60.40625 
L 10.984375 69.390625 
L 28.421875 72.90625 
L 38.28125 72.90625 
L 38.28125 8.296875 
L 54.390625 8.296875 
L 54.390625 0 
L 12.40625 0 
z
" id="DejaVuSans-49"/>
      </defs>
      <use xlink:href="#DejaVuSans-49"/>
      <use x="63.623047" xlink:href="#DejaVuSans-48"/>
      <use x="127.246094" xlink:href="#DejaVuSans-48"/>
      <use x="190.869141" xlink:href="#DejaVuSans-48"/>
      <use x="254.492188" xlink:href="#DejaVuSans-48"/>
     </g>
    </g>
   </g>
   <g id="xtick_13">
    <g id="line2d_16">
     <path d="M 316.901504 132.958661 
L 319.862774 133.772171 
" style="fill:none;stroke:#000000;stroke-linecap:square;stroke-width:0.8;"/>
    </g>
    <g id="text_13">
     <!-- 20000 -->
     <g transform="translate(320.559956 138.318756)scale(0.1 -0.1)">
      <use xlink:href="#DejaVuSans-50"/>
      <use x="63.623047" xlink:href="#DejaVuSans-48"/>
      <use x="127.246094" xlink:href="#DejaVuSans-48"/>
      <use x="190.869141" xlink:href="#DejaVuSans-48"/>
      <use x="254.492188" xlink:href="#DejaVuSans-48"/>
     </g>
    </g>
   </g>
   <g id="xtick_14">
    <g id="line2d_17">
     <path d="M 317.75653 114.085624 
L 320.746233 114.883572 
" style="fill:none;stroke:#000000;stroke-linecap:square;stroke-width:0.8;"/>
    </g>
    <g id="text_14">
     <!-- 30000 -->
     <g transform="translate(321.592219 119.48863)scale(0.1 -0.1)">
      <defs>
       <path d="M 40.578125 39.3125 
Q 47.65625 37.796875 51.625 33 
Q 55.609375 28.21875 55.609375 21.1875 
Q 55.609375 10.40625 48.1875 4.484375 
Q 40.765625 -1.421875 27.09375 -1.421875 
Q 22.515625 -1.421875 17.65625 -0.515625 
Q 12.796875 0.390625 7.625 2.203125 
L 7.625 11.71875 
Q 11.71875 9.328125 16.59375 8.109375 
Q 21.484375 6.890625 26.8125 6.890625 
Q 36.078125 6.890625 40.9375 10.546875 
Q 45.796875 14.203125 45.796875 21.1875 
Q 45.796875 27.640625 41.28125 31.265625 
Q 36.765625 34.90625 28.71875 34.90625 
L 20.21875 34.90625 
L 20.21875 43.015625 
L 29.109375 43.015625 
Q 36.375 43.015625 40.234375 45.921875 
Q 44.09375 48.828125 44.09375 54.296875 
Q 44.09375 59.90625 40.109375 62.90625 
Q 36.140625 65.921875 28.71875 65.921875 
Q 24.65625 65.921875 20.015625 65.03125 
Q 15.375 64.15625 9.8125 62.3125 
L 9.8125 71.09375 
Q 15.4375 72.65625 20.34375 73.4375 
Q 25.25 74.21875 29.59375 74.21875 
Q 40.828125 74.21875 47.359375 69.109375 
Q 53.90625 64.015625 53.90625 55.328125 
Q 53.90625 49.265625 50.4375 45.09375 
Q 46.96875 40.921875 40.578125 39.3125 
z
" id="DejaVuSans-51"/>
      </defs>
      <use xlink:href="#DejaVuSans-51"/>
      <use x="63.623047" xlink:href="#DejaVuSans-48"/>
      <use x="127.246094" xlink:href="#DejaVuSans-48"/>
      <use x="190.869141" xlink:href="#DejaVuSans-48"/>
      <use x="254.492188" xlink:href="#DejaVuSans-48"/>
     </g>
    </g>
   </g>
   <g id="xtick_15">
    <g id="line2d_18">
     <path d="M 318.6275 94.860667 
L 321.646186 95.642329 
" style="fill:none;stroke:#000000;stroke-linecap:square;stroke-width:0.8;"/>
    </g>
    <g id="text_15">
     <!-- 40000 -->
     <g transform="translate(322.643666 100.308577)scale(0.1 -0.1)">
      <use xlink:href="#DejaVuSans-52"/>
      <use x="63.623047" xlink:href="#DejaVuSans-48"/>
      <use x="127.246094" xlink:href="#DejaVuSans-48"/>
      <use x="190.869141" xlink:href="#DejaVuSans-48"/>
      <use x="254.492188" xlink:href="#DejaVuSans-48"/>
     </g>
    </g>
   </g>
  </g>
  <g id="axes_1">
   <g id="Poly3DCollection_1">
    <path clip-path="url(#pc5d398311b)" d="M 203.700438 142.115361 
L 203.696907 141.767371 
L 215.862444 145.317815 
L 215.863902 145.66701 
z
" style="fill:#050338;"/>
    <path clip-path="url(#pc5d398311b)" d="M 196.401162 148.290596 
L 196.396339 147.940514 
L 203.696907 141.767371 
L 203.700438 142.115361 
z
" style="fill:#0b0777;"/>
    <path clip-path="url(#pc5d398311b)" d="M 196.401162 148.290596 
L 203.700438 142.115361 
L 215.863902 145.66701 
L 208.637156 151.907182 
z
" style="fill:#070448;"/>
    <path clip-path="url(#pc5d398311b)" d="M 196.396339 147.940514 
L 208.634431 151.555883 
L 215.862444 145.317815 
L 203.696907 141.767371 
z
" style="fill:#0a0667;"/>
    <path clip-path="url(#pc5d398311b)" d="M 215.863902 145.66701 
L 215.858757 144.434368 
L 228.157353 148.019011 
L 228.155024 149.255935 
z
" style="fill:#09033a;"/>
    <path clip-path="url(#pc5d398311b)" d="M 208.637156 151.907182 
L 215.863902 145.66701 
L 215.862444 145.317815 
L 208.634431 151.555883 
z
" style="fill:#050338;"/>
    <path clip-path="url(#pc5d398311b)" d="M 208.637156 151.907182 
L 208.627537 150.667109 
L 215.858757 144.434368 
L 215.863902 145.66701 
z
" style="fill:#13067a;"/>
    <path clip-path="url(#pc5d398311b)" d="M 196.401162 148.290596 
L 208.637156 151.907182 
L 208.634431 151.555883 
L 196.396339 147.940514 
z
" style="fill:#0b0777;"/>
    <path clip-path="url(#pc5d398311b)" d="M 196.401162 148.290596 
L 196.395873 147.906683 
L 208.634168 151.521934 
L 208.637156 151.907182 
z
" style="fill:#070339;"/>
    <path clip-path="url(#pc5d398311b)" d="M 208.637156 151.907182 
L 215.863902 145.66701 
L 228.155024 149.255935 
L 221.002748 155.562072 
z
" style="fill:#0c044a;"/>
    <path clip-path="url(#pc5d398311b)" d="M 208.627537 150.667109 
L 221.000694 154.317679 
L 228.157353 148.019011 
L 215.858757 144.434368 
z
" style="fill:#11056a;"/>
    <path clip-path="url(#pc5d398311b)" d="M 188.96817 154.578956 
L 188.961413 154.192727 
L 196.395873 147.906683 
L 196.401162 148.290596 
z
" style="fill:#0e0678;"/>
    <path clip-path="url(#pc5d398311b)" d="M 221.002748 155.562072 
L 228.155024 149.255935 
L 228.157353 148.019011 
L 221.000694 154.317679 
z
" style="fill:#09033a;"/>
    <path clip-path="url(#pc5d398311b)" d="M 188.96817 154.578956 
L 196.401162 148.290596 
L 208.637156 151.907182 
L 201.27732 158.262275 
z
" style="fill:#090449;"/>
    <path clip-path="url(#pc5d398311b)" d="M 188.961413 154.192727 
L 201.27289 157.8747 
L 208.634168 151.521934 
L 196.395873 147.906683 
z
" style="fill:#0c0668;"/>
    <path clip-path="url(#pc5d398311b)" d="M 228.155024 149.255935 
L 228.183505 134.131133 
L 240.697637 137.704744 
L 240.575825 152.882725 
z
" style="fill:#2a0046;"/>
    <path clip-path="url(#pc5d398311b)" d="M 208.637156 151.907182 
L 208.628541 150.796558 
L 221.000908 154.447579 
L 221.002748 155.562072 
z
" style="fill:#09033a;"/>
    <path clip-path="url(#pc5d398311b)" d="M 208.637156 151.907182 
L 221.002748 155.562072 
L 221.000694 154.317679 
L 208.627537 150.667109 
z
" style="fill:#13067a;"/>
    <path clip-path="url(#pc5d398311b)" d="M 221.002748 155.562072 
L 228.155024 149.255935 
L 240.575825 152.882725 
L 233.500008 159.25588 
z
" style="fill:#350059;"/>
    <path clip-path="url(#pc5d398311b)" d="M 221.002748 155.562072 
L 220.977627 140.344985 
L 228.183505 134.131133 
L 228.155024 149.255935 
z
" style="fill:#590094;"/>
    <path clip-path="url(#pc5d398311b)" d="M 201.27732 158.262275 
L 208.637156 151.907182 
L 208.634168 151.521934 
L 201.27289 157.8747 
z
" style="fill:#070339;"/>
    <path clip-path="url(#pc5d398311b)" d="M 201.27732 158.262275 
L 201.26455 157.144937 
L 208.628541 150.796558 
L 208.637156 151.907182 
z
" style="fill:#13067a;"/>
    <path clip-path="url(#pc5d398311b)" d="M 188.96817 154.578956 
L 201.27732 158.262275 
L 201.27289 157.8747 
L 188.961413 154.192727 
z
" style="fill:#0e0678;"/>
    <path clip-path="url(#pc5d398311b)" d="M 188.96817 154.578956 
L 188.960777 154.156393 
L 201.272474 157.838239 
L 201.27732 158.262275 
z
" style="fill:#070339;"/>
    <path clip-path="url(#pc5d398311b)" d="M 201.27732 158.262275 
L 208.637156 151.907182 
L 221.002748 155.562072 
L 213.718049 161.984967 
z
" style="fill:#0c044a;"/>
    <path clip-path="url(#pc5d398311b)" d="M 201.26455 157.144937 
L 213.712136 160.863726 
L 221.000908 154.447579 
L 208.628541 150.796558 
z
" style="fill:#11056a;"/>
    <path clip-path="url(#pc5d398311b)" d="M 181.397755 160.983577 
L 181.388696 160.558458 
L 188.960777 154.156393 
L 188.96817 154.578956 
z
" style="fill:#0e0678;"/>
    <path clip-path="url(#pc5d398311b)" d="M 233.500008 159.25588 
L 240.575825 152.882725 
L 253.128369 156.547983 
L 246.131049 162.989229 
z
" style="fill:#847814;"/>
    <path clip-path="url(#pc5d398311b)" d="M 233.500008 159.25588 
L 240.575825 152.882725 
L 240.697637 137.704744 
L 233.569375 143.985132 
z
" style="fill:#2a0046;"/>
    <path clip-path="url(#pc5d398311b)" d="M 213.718049 161.984967 
L 221.002748 155.562072 
L 221.000908 154.447579 
L 213.712136 160.863726 
z
" style="fill:#09033a;"/>
    <path clip-path="url(#pc5d398311b)" d="M 220.977627 140.344985 
L 233.569375 143.985132 
L 240.697637 137.704744 
L 228.183505 134.131133 
z
" style="fill:#4d0080;"/>
    <path clip-path="url(#pc5d398311b)" d="M 181.397755 160.983577 
L 188.96817 154.578956 
L 201.27732 158.262275 
L 193.780682 164.735494 
z
" style="fill:#090449;"/>
    <path clip-path="url(#pc5d398311b)" d="M 181.388696 160.558458 
L 193.774201 164.308889 
L 201.272474 157.838239 
L 188.960777 154.156393 
z
" style="fill:#0c0668;"/>
    <path clip-path="url(#pc5d398311b)" d="M 221.002748 155.562072 
L 233.500008 159.25588 
L 233.569375 143.985132 
L 220.977627 140.344985 
z
" style="fill:#590094;"/>
    <path clip-path="url(#pc5d398311b)" d="M 221.002748 155.562072 
L 220.976985 139.95622 
L 233.571148 143.59498 
L 233.500008 159.25588 
z
" style="fill:#2a0046;"/>
    <path clip-path="url(#pc5d398311b)" d="M 201.27732 158.262275 
L 201.26497 157.181675 
L 213.712331 160.900593 
L 213.718049 161.984967 
z
" style="fill:#09033a;"/>
    <path clip-path="url(#pc5d398311b)" d="M 201.27732 158.262275 
L 213.718049 161.984967 
L 213.712136 160.863726 
L 201.26455 157.144937 
z
" style="fill:#13067a;"/>
    <path clip-path="url(#pc5d398311b)" d="M 213.718049 161.984967 
L 221.002748 155.562072 
L 233.500008 159.25588 
L 226.292478 165.747667 
z
" style="fill:#360059;"/>
    <path clip-path="url(#pc5d398311b)" d="M 213.718049 161.984967 
L 213.635256 146.283589 
L 220.976985 139.95622 
L 221.002748 155.562072 
z
" style="fill:#5a0094;"/>
    <path clip-path="url(#pc5d398311b)" d="M 193.780682 164.735494 
L 201.27732 158.262275 
L 201.272474 157.838239 
L 193.774201 164.308889 
z
" style="fill:#070339;"/>
    <path clip-path="url(#pc5d398311b)" d="M 246.131049 162.989229 
L 253.128369 156.547983 
L 265.814761 160.252323 
L 258.898031 166.762758 
z
" style="fill:#867113;"/>
    <path clip-path="url(#pc5d398311b)" d="M 193.780682 164.735494 
L 193.764165 163.648345 
L 201.26497 157.181675 
L 201.27732 158.262275 
z
" style="fill:#13067a;"/>
    <path clip-path="url(#pc5d398311b)" d="M 181.397755 160.983577 
L 181.391083 160.670472 
L 193.775908 164.421295 
L 193.780682 164.735494 
z
" style="fill:#050338;"/>
    <path clip-path="url(#pc5d398311b)" d="M 181.397755 160.983577 
L 193.780682 164.735494 
L 193.774201 164.308889 
L 181.388696 160.558458 
z
" style="fill:#0e0678;"/>
    <path clip-path="url(#pc5d398311b)" d="M 193.780682 164.735494 
L 201.27732 158.262275 
L 213.718049 161.984967 
L 206.297214 168.527892 
z
" style="fill:#0c044a;"/>
    <path clip-path="url(#pc5d398311b)" d="M 193.764165 163.648345 
L 206.28741 167.436935 
L 213.712331 160.900593 
L 201.26497 157.181675 
z
" style="fill:#11056a;"/>
    <path clip-path="url(#pc5d398311b)" d="M 173.686069 167.507715 
L 173.678125 167.192711 
L 181.391083 160.670472 
L 181.397755 160.983577 
z
" style="fill:#0b0777;"/>
    <path clip-path="url(#pc5d398311b)" d="M 226.292478 165.747667 
L 233.500008 159.25588 
L 246.131049 162.989229 
L 239.002775 169.551023 
z
" style="fill:#808512;"/>
    <path clip-path="url(#pc5d398311b)" d="M 265.814761 160.252323 
L 266.092975 146.730438 
L 279.003343 150.426772 
L 278.637155 163.996376 
z
" style="fill:#260045;"/>
    <path clip-path="url(#pc5d398311b)" d="M 226.292478 165.747667 
L 233.500008 159.25588 
L 233.571148 143.59498 
L 226.307794 149.990748 
z
" style="fill:#2a0046;"/>
    <path clip-path="url(#pc5d398311b)" d="M 258.898031 166.762758 
L 265.814761 160.252323 
L 278.637155 163.996376 
L 271.803162 170.57712 
z
" style="fill:#300158;"/>
    <path clip-path="url(#pc5d398311b)" d="M 206.297214 168.527892 
L 213.718049 161.984967 
L 213.712331 160.900593 
L 206.28741 167.436935 
z
" style="fill:#09033a;"/>
    <path clip-path="url(#pc5d398311b)" d="M 258.898031 166.762758 
L 259.132025 153.158068 
L 266.092975 146.730438 
L 265.814761 160.252323 
z
" style="fill:#500192;"/>
    <path clip-path="url(#pc5d398311b)" d="M 213.635256 146.283589 
L 226.307794 149.990748 
L 233.571148 143.59498 
L 220.976985 139.95622 
z
" style="fill:#4e0080;"/>
    <path clip-path="url(#pc5d398311b)" d="M 213.718049 161.984967 
L 213.651352 149.33608 
L 226.304816 153.05414 
L 226.292478 165.747667 
z
" style="fill:#250145;"/>
    <path clip-path="url(#pc5d398311b)" d="M 278.637155 163.996376 
L 278.666488 162.909391 
L 291.634279 166.689991 
L 291.597749 167.780781 
z
" style="fill:#09033a;"/>
    <path clip-path="url(#pc5d398311b)" d="M 173.686069 167.507715 
L 181.397755 160.983577 
L 193.780682 164.735494 
L 186.143392 171.330164 
z
" style="fill:#070448;"/>
    <path clip-path="url(#pc5d398311b)" d="M 173.678125 167.192711 
L 186.13737 171.014056 
L 193.775908 164.421295 
L 181.391083 160.670472 
z
" style="fill:#0a0667;"/>
    <path clip-path="url(#pc5d398311b)" d="M 213.718049 161.984967 
L 226.292478 165.747667 
L 226.307794 149.990748 
L 213.635256 146.283589 
z
" style="fill:#5a0094;"/>
    <path clip-path="url(#pc5d398311b)" d="M 193.780682 164.735494 
L 193.768369 163.925003 
L 206.289905 167.714563 
L 206.297214 168.527892 
z
" style="fill:#080339;"/>
    <path clip-path="url(#pc5d398311b)" d="M 193.780682 164.735494 
L 206.297214 168.527892 
L 206.28741 167.436935 
L 193.764165 163.648345 
z
" style="fill:#13067a;"/>
    <path clip-path="url(#pc5d398311b)" d="M 206.297214 168.527892 
L 213.718049 161.984967 
L 226.292478 165.747667 
L 218.949524 172.361429 
z
" style="fill:#2f0158;"/>
    <path clip-path="url(#pc5d398311b)" d="M 206.297214 168.527892 
L 206.182848 155.801542 
L 213.651352 149.33608 
L 213.718049 161.984967 
z
" style="fill:#4d0191;"/>
    <path clip-path="url(#pc5d398311b)" d="M 271.803162 170.57712 
L 271.829044 169.483532 
L 278.666488 162.909391 
L 278.637155 163.996376 
z
" style="fill:#13067a;"/>
    <path clip-path="url(#pc5d398311b)" d="M 186.143392 171.330164 
L 193.780682 164.735494 
L 193.775908 164.421295 
L 186.13737 171.014056 
z
" style="fill:#050338;"/>
    <path clip-path="url(#pc5d398311b)" d="M 239.002775 169.551023 
L 246.131049 162.989229 
L 258.898031 166.762758 
L 251.851153 173.395697 
z
" style="fill:#827d15;"/>
    <path clip-path="url(#pc5d398311b)" d="M 186.143392 171.330164 
L 186.127857 170.514748 
L 193.768369 163.925003 
L 193.780682 164.735494 
z
" style="fill:#110679;"/>
    <path clip-path="url(#pc5d398311b)" d="M 240.575825 152.882725 
L 241.21495 73.246201 
L 254.267823 76.617473 
L 253.128369 156.547983 
z
" style="fill:#675e0f;"/>
    <path clip-path="url(#pc5d398311b)" d="M 271.803162 170.57712 
L 278.637155 163.996376 
L 291.597749 167.780781 
L 284.848695 174.43298 
z
" style="fill:#0c044a;"/>
    <path clip-path="url(#pc5d398311b)" d="M 173.686069 167.507715 
L 173.681202 167.314714 
L 186.139702 171.136487 
L 186.143392 171.330164 
z
" style="fill:#050338;"/>
    <path clip-path="url(#pc5d398311b)" d="M 173.686069 167.507715 
L 186.143392 171.330164 
L 186.13737 171.014056 
L 173.678125 167.192711 
z
" style="fill:#0b0777;"/>
    <path clip-path="url(#pc5d398311b)" d="M 271.829044 169.483532 
L 284.88187 173.335554 
L 291.634279 166.689991 
L 278.666488 162.909391 
z
" style="fill:#11056a;"/>
    <path clip-path="url(#pc5d398311b)" d="M 271.803162 170.57712 
L 278.637155 163.996376 
L 279.003343 150.426772 
L 272.126283 156.924289 
z
" style="fill:#260045;"/>
    <path clip-path="url(#pc5d398311b)" d="M 291.597749 167.780781 
L 291.609745 167.422571 
L 304.7132 171.246731 
L 304.698789 171.606197 
z
" style="fill:#050338;"/>
    <path clip-path="url(#pc5d398311b)" d="M 233.500008 159.25588 
L 233.864077 79.109077 
L 241.21495 73.246201 
L 240.575825 152.882725 
z
" style="fill:#dbc721;"/>
    <path clip-path="url(#pc5d398311b)" d="M 186.143392 171.330164 
L 193.780682 164.735494 
L 206.297214 168.527892 
L 198.736391 175.194243 
z
" style="fill:#0a0449;"/>
    <path clip-path="url(#pc5d398311b)" d="M 259.132025 153.158068 
L 272.126283 156.924289 
L 279.003343 150.426772 
L 266.092975 146.730438 
z
" style="fill:#46017f;"/>
    <path clip-path="url(#pc5d398311b)" d="M 186.127857 170.514748 
L 198.725921 174.375966 
L 206.289905 167.714563 
L 193.768369 163.925003 
z
" style="fill:#0f0569;"/>
    <path clip-path="url(#pc5d398311b)" d="M 165.82912 174.154745 
L 165.823446 173.960571 
L 173.681202 167.314714 
L 173.686069 167.507715 
z
" style="fill:#0b0777;"/>
    <path clip-path="url(#pc5d398311b)" d="M 218.949524 172.361429 
L 226.292478 165.747667 
L 239.002775 169.551023 
L 231.739835 176.23678 
z
" style="fill:#837b14;"/>
    <path clip-path="url(#pc5d398311b)" d="M 258.898031 166.762758 
L 271.803162 170.57712 
L 272.126283 156.924289 
L 259.132025 153.158068 
z
" style="fill:#500192;"/>
    <path clip-path="url(#pc5d398311b)" d="M 258.898031 166.762758 
L 259.137114 152.862169 
L 272.133311 156.627332 
L 271.803162 170.57712 
z
" style="fill:#270045;"/>
    <path clip-path="url(#pc5d398311b)" d="M 284.848695 174.43298 
L 284.85959 174.072592 
L 291.609745 167.422571 
L 291.597749 167.780781 
z
" style="fill:#0b0777;"/>
    <path clip-path="url(#pc5d398311b)" d="M 218.949524 172.361429 
L 226.292478 165.747667 
L 226.304816 153.05414 
L 218.915177 159.590046 
z
" style="fill:#250145;"/>
    <path clip-path="url(#pc5d398311b)" d="M 284.848695 174.43298 
L 291.597749 167.780781 
L 291.634279 166.689991 
L 284.88187 173.335554 
z
" style="fill:#09033a;"/>
    <path clip-path="url(#pc5d398311b)" d="M 206.182848 155.801542 
L 218.915177 159.590046 
L 226.304816 153.05414 
L 213.651352 149.33608 
z
" style="fill:#43017e;"/>
    <path clip-path="url(#pc5d398311b)" d="M 253.128369 156.547983 
L 254.229948 79.274336 
L 267.410541 82.693359 
L 265.814761 160.252323 
z
" style="fill:#69580f;"/>
    <path clip-path="url(#pc5d398311b)" d="M 251.851153 173.395697 
L 258.898031 166.762758 
L 271.803162 170.57712 
L 264.839875 177.282368 
z
" style="fill:#310058;"/>
    <path clip-path="url(#pc5d398311b)" d="M 198.736391 175.194243 
L 206.297214 168.527892 
L 206.289905 167.714563 
L 198.725921 174.375966 
z
" style="fill:#080339;"/>
    <path clip-path="url(#pc5d398311b)" d="M 206.297214 168.527892 
L 206.204139 158.170774 
L 218.921572 161.967728 
L 218.949524 172.361429 
z
" style="fill:#1f0143;"/>
    <path clip-path="url(#pc5d398311b)" d="M 251.851153 173.395697 
L 252.043288 159.409735 
L 259.137114 152.862169 
L 258.898031 166.762758 
z
" style="fill:#520192;"/>
    <path clip-path="url(#pc5d398311b)" d="M 206.297214 168.527892 
L 218.949524 172.361429 
L 218.915177 159.590046 
L 206.182848 155.801542 
z
" style="fill:#4d0191;"/>
    <path clip-path="url(#pc5d398311b)" d="M 271.803162 170.57712 
L 284.848695 174.43298 
L 284.88187 173.335554 
L 271.829044 169.483532 
z
" style="fill:#13067a;"/>
    <path clip-path="url(#pc5d398311b)" d="M 271.803162 170.57712 
L 271.83361 169.290594 
L 284.887723 173.141938 
L 284.848695 174.43298 
z
" style="fill:#09033a;"/>
    <path clip-path="url(#pc5d398311b)" d="M 165.82912 174.154745 
L 173.686069 167.507715 
L 186.143392 171.330164 
L 178.361455 178.049733 
z
" style="fill:#070448;"/>
    <path clip-path="url(#pc5d398311b)" d="M 165.823446 173.960571 
L 178.356972 177.854878 
L 186.139702 171.136487 
L 173.681202 167.314714 
z
" style="fill:#0a0667;"/>
    <path clip-path="url(#pc5d398311b)" d="M 284.848695 174.43298 
L 291.597749 167.780781 
L 304.698789 171.606197 
L 298.036935 178.33102 
z
" style="fill:#070448;"/>
    <path clip-path="url(#pc5d398311b)" d="M 284.85959 174.072592 
L 298.050276 177.969366 
L 304.7132 171.246731 
L 291.609745 167.422571 
z
" style="fill:#0a0667;"/>
    <path clip-path="url(#pc5d398311b)" d="M 246.131049 162.989229 
L 246.972921 85.220358 
L 254.229948 79.274336 
L 253.128369 156.547983 
z
" style="fill:#debb20;"/>
    <path clip-path="url(#pc5d398311b)" d="M 186.143392 171.330164 
L 186.130387 170.647564 
L 198.727627 174.509248 
L 198.736391 175.194243 
z
" style="fill:#070339;"/>
    <path clip-path="url(#pc5d398311b)" d="M 186.143392 171.330164 
L 198.736391 175.194243 
L 198.725921 174.375966 
L 186.127857 170.514748 
z
" style="fill:#110679;"/>
    <path clip-path="url(#pc5d398311b)" d="M 246.131049 162.989229 
L 253.128369 156.547983 
L 254.267823 76.617473 
L 247.001878 82.545487 
z
" style="fill:#675e0f;"/>
    <path clip-path="url(#pc5d398311b)" d="M 198.736391 175.194243 
L 198.603058 164.773645 
L 206.204139 158.170774 
L 206.297214 168.527892 
z
" style="fill:#42028e;"/>
    <path clip-path="url(#pc5d398311b)" d="M 198.736391 175.194243 
L 206.297214 168.527892 
L 218.949524 172.361429 
L 211.467294 179.100638 
z
" style="fill:#280156;"/>
    <path clip-path="url(#pc5d398311b)" d="M 264.839875 177.282368 
L 264.866102 175.988006 
L 271.83361 169.290594 
L 271.803162 170.57712 
z
" style="fill:#13067a;"/>
    <path clip-path="url(#pc5d398311b)" d="M 178.361455 178.049733 
L 186.143392 171.330164 
L 186.139702 171.136487 
L 178.356972 177.854878 
z
" style="fill:#050338;"/>
    <path clip-path="url(#pc5d398311b)" d="M 178.361455 178.049733 
L 178.345653 177.362977 
L 186.130387 170.647564 
L 186.143392 171.330164 
z
" style="fill:#0e0678;"/>
    <path clip-path="url(#pc5d398311b)" d="M 231.739835 176.23678 
L 239.002775 169.551023 
L 251.851153 173.395697 
L 244.670417 180.154631 
z
" style="fill:#867213;"/>
    <path clip-path="url(#pc5d398311b)" d="M 298.036935 178.33102 
L 304.698789 171.606197 
L 304.7132 171.246731 
L 298.050276 177.969366 
z
" style="fill:#050338;"/>
    <path clip-path="url(#pc5d398311b)" d="M 233.500008 159.25588 
L 246.131049 162.989229 
L 247.001878 82.545487 
L 233.864077 79.109077 
z
" style="fill:#dbc721;"/>
    <path clip-path="url(#pc5d398311b)" d="M 264.839875 177.282368 
L 271.803162 170.57712 
L 284.848695 174.43298 
L 277.971253 181.211726 
z
" style="fill:#0c044a;"/>
    <path clip-path="url(#pc5d398311b)" d="M 233.500008 159.25588 
L 233.887451 73.96354 
L 247.057799 77.379717 
L 246.131049 162.989229 
z
" style="fill:#64680e;"/>
    <path clip-path="url(#pc5d398311b)" d="M 165.82912 174.154745 
L 165.825407 174.02767 
L 178.358521 177.922213 
L 178.361455 178.049733 
z
" style="fill:#050338;"/>
    <path clip-path="url(#pc5d398311b)" d="M 165.82912 174.154745 
L 178.361455 178.049733 
L 178.356972 177.854878 
L 165.823446 173.960571 
z
" style="fill:#0b0777;"/>
    <path clip-path="url(#pc5d398311b)" d="M 264.866102 175.988006 
L 278.006174 179.912809 
L 284.887723 173.141938 
L 271.83361 169.290594 
z
" style="fill:#11056a;"/>
    <path clip-path="url(#pc5d398311b)" d="M 264.839875 177.282368 
L 271.803162 170.57712 
L 272.133311 156.627332 
L 265.124273 163.246776 
z
" style="fill:#270045;"/>
    <path clip-path="url(#pc5d398311b)" d="M 284.848695 174.43298 
L 284.857784 174.132318 
L 298.048065 178.029302 
L 298.036935 178.33102 
z
" style="fill:#050338;"/>
    <path clip-path="url(#pc5d398311b)" d="M 284.848695 174.43298 
L 298.036935 178.33102 
L 298.050276 177.969366 
L 284.85959 174.072592 
z
" style="fill:#0b0777;"/>
    <path clip-path="url(#pc5d398311b)" d="M 178.361455 178.049733 
L 186.143392 171.330164 
L 198.736391 175.194243 
L 191.031582 181.987547 
z
" style="fill:#090449;"/>
    <path clip-path="url(#pc5d398311b)" d="M 178.345653 177.362977 
L 191.020072 181.298375 
L 198.727627 174.509248 
L 186.130387 170.647564 
z
" style="fill:#0c0668;"/>
    <path clip-path="url(#pc5d398311b)" d="M 252.043288 159.409735 
L 265.124273 163.246776 
L 272.133311 156.627332 
L 259.137114 152.862169 
z
" style="fill:#47017f;"/>
    <path clip-path="url(#pc5d398311b)" d="M 258.898031 166.762758 
L 265.814761 160.252323 
L 267.410541 82.693359 
L 260.240569 88.705727 
z
" style="fill:#69580f;"/>
    <path clip-path="url(#pc5d398311b)" d="M 226.292478 165.747667 
L 226.375918 79.904801 
L 233.887451 73.96354 
L 233.500008 159.25588 
z
" style="fill:#d4dc1e;"/>
    <path clip-path="url(#pc5d398311b)" d="M 198.603058 164.773645 
L 211.399894 168.64314 
L 218.921572 161.967728 
L 206.204139 158.170774 
z
" style="fill:#39027b;"/>
    <path clip-path="url(#pc5d398311b)" d="M 157.822766 180.928173 
L 157.818504 180.800324 
L 165.825407 174.02767 
L 165.82912 174.154745 
z
" style="fill:#0b0777;"/>
    <path clip-path="url(#pc5d398311b)" d="M 211.467294 179.100638 
L 218.949524 172.361429 
L 218.921572 161.967728 
L 211.399894 168.64314 
z
" style="fill:#1f0143;"/>
    <path clip-path="url(#pc5d398311b)" d="M 251.851153 173.395697 
L 252.024716 160.76167 
L 265.096781 164.603555 
L 264.839875 177.282368 
z
" style="fill:#240144;"/>
    <path clip-path="url(#pc5d398311b)" d="M 211.467294 179.100638 
L 218.949524 172.361429 
L 231.739835 176.23678 
L 224.338378 183.050047 
z
" style="fill:#876118;"/>
    <path clip-path="url(#pc5d398311b)" d="M 251.851153 173.395697 
L 264.839875 177.282368 
L 265.124273 163.246776 
L 252.043288 159.409735 
z
" style="fill:#520192;"/>
    <path clip-path="url(#pc5d398311b)" d="M 277.971253 181.211726 
L 277.979385 180.909231 
L 284.857784 174.132318 
L 284.848695 174.43298 
z
" style="fill:#0b0777;"/>
    <path clip-path="url(#pc5d398311b)" d="M 277.971253 181.211726 
L 284.848695 174.43298 
L 284.887723 173.141938 
L 278.006174 179.912809 
z
" style="fill:#09033a;"/>
    <path clip-path="url(#pc5d398311b)" d="M 198.736391 175.194243 
L 198.651887 168.589815 
L 211.424577 172.472893 
L 211.467294 179.100638 
z
" style="fill:#180240;"/>
    <path clip-path="url(#pc5d398311b)" d="M 246.131049 162.989229 
L 258.898031 166.762758 
L 260.240569 88.705727 
L 246.972921 85.220358 
z
" style="fill:#debb20;"/>
    <path clip-path="url(#pc5d398311b)" d="M 191.031582 181.987547 
L 198.736391 175.194243 
L 198.727627 174.509248 
L 191.020072 181.298375 
z
" style="fill:#070339;"/>
    <path clip-path="url(#pc5d398311b)" d="M 244.670417 180.154631 
L 251.851153 173.395697 
L 264.839875 177.282368 
L 257.743589 184.115686 
z
" style="fill:#2e0157;"/>
    <path clip-path="url(#pc5d398311b)" d="M 198.736391 175.194243 
L 211.467294 179.100638 
L 211.399894 168.64314 
L 198.603058 164.773645 
z
" style="fill:#42028e;"/>
    <path clip-path="url(#pc5d398311b)" d="M 244.670417 180.154631 
L 244.799906 167.442892 
L 252.024716 160.76167 
L 251.851153 173.395697 
z
" style="fill:#4c0191;"/>
    <path clip-path="url(#pc5d398311b)" d="M 246.131049 162.989229 
L 247.026075 80.310254 
L 260.325352 83.77634 
L 258.898031 166.762758 
z
" style="fill:#666210;"/>
    <path clip-path="url(#pc5d398311b)" d="M 264.839875 177.282368 
L 264.857773 176.39906 
L 277.995084 180.325311 
L 277.971253 181.211726 
z
" style="fill:#080339;"/>
    <path clip-path="url(#pc5d398311b)" d="M 264.839875 177.282368 
L 277.971253 181.211726 
L 278.006174 179.912809 
L 264.866102 175.988006 
z
" style="fill:#13067a;"/>
    <path clip-path="url(#pc5d398311b)" d="M 157.822766 180.928173 
L 165.82912 174.154745 
L 178.361455 178.049733 
L 170.430723 184.897786 
z
" style="fill:#070448;"/>
    <path clip-path="url(#pc5d398311b)" d="M 157.818504 180.800324 
L 170.427249 184.769488 
L 178.358521 177.922213 
L 165.825407 174.02767 
z
" style="fill:#0a0667;"/>
    <path clip-path="url(#pc5d398311b)" d="M 191.031582 181.987547 
L 190.920596 175.34266 
L 198.651887 168.589815 
L 198.736391 175.194243 
z
" style="fill:#320488;"/>
    <path clip-path="url(#pc5d398311b)" d="M 277.971253 181.211726 
L 284.848695 174.43298 
L 298.036935 178.33102 
L 291.24765 185.184478 
z
" style="fill:#070448;"/>
    <path clip-path="url(#pc5d398311b)" d="M 277.979385 180.909231 
L 291.257852 184.880919 
L 298.048065 178.029302 
L 284.857784 174.132318 
z
" style="fill:#0a0667;"/>
    <path clip-path="url(#pc5d398311b)" d="M 178.361455 178.049733 
L 178.353571 177.707082 
L 191.025839 181.643691 
L 191.031582 181.987547 
z
" style="fill:#050338;"/>
    <path clip-path="url(#pc5d398311b)" d="M 178.361455 178.049733 
L 191.031582 181.987547 
L 191.020072 181.298375 
L 178.345653 177.362977 
z
" style="fill:#0e0678;"/>
    <path clip-path="url(#pc5d398311b)" d="M 191.031582 181.987547 
L 198.736391 175.194243 
L 211.467294 179.100638 
L 203.841786 185.968896 
z
" style="fill:#1e0252;"/>
    <path clip-path="url(#pc5d398311b)" d="M 239.002775 169.551023 
L 239.610912 86.338419 
L 247.026075 80.310254 
L 246.131049 162.989229 
z
" style="fill:#d8d022;"/>
    <path clip-path="url(#pc5d398311b)" d="M 257.743589 184.115686 
L 257.758492 183.226988 
L 264.857773 176.39906 
L 264.839875 177.282368 
z
" style="fill:#110679;"/>
    <path clip-path="url(#pc5d398311b)" d="M 239.002775 169.551023 
L 246.131049 162.989229 
L 247.057799 77.379717 
L 239.632475 83.387793 
z
" style="fill:#64680e;"/>
    <path clip-path="url(#pc5d398311b)" d="M 170.430723 184.897786 
L 178.361455 178.049733 
L 178.358521 177.922213 
L 170.427249 184.769488 
z
" style="fill:#050338;"/>
    <path clip-path="url(#pc5d398311b)" d="M 170.430723 184.897786 
L 170.421389 184.553044 
L 178.353571 177.707082 
L 178.361455 178.049733 
z
" style="fill:#0b0777;"/>
    <path clip-path="url(#pc5d398311b)" d="M 224.338378 183.050047 
L 231.739835 176.23678 
L 244.670417 180.154631 
L 237.351973 187.043183 
z
" style="fill:#87591c;"/>
    <path clip-path="url(#pc5d398311b)" d="M 291.24765 185.184478 
L 298.036935 178.33102 
L 298.048065 178.029302 
L 291.257852 184.880919 
z
" style="fill:#050338;"/>
    <path clip-path="url(#pc5d398311b)" d="M 226.292478 165.747667 
L 226.372146 83.785889 
L 239.603999 87.284224 
L 239.002775 169.551023 
z
" style="fill:#676010;"/>
    <path clip-path="url(#pc5d398311b)" d="M 257.743589 184.115686 
L 264.839875 177.282368 
L 277.971253 181.211726 
L 270.961723 188.120663 
z
" style="fill:#0a0449;"/>
    <path clip-path="url(#pc5d398311b)" d="M 226.292478 165.747667 
L 239.002775 169.551023 
L 239.632475 83.387793 
L 226.375918 79.904801 
z
" style="fill:#d4dc1e;"/>
    <path clip-path="url(#pc5d398311b)" d="M 157.822766 180.928173 
L 157.818811 180.809532 
L 170.427499 184.778727 
L 170.430723 184.897786 
z
" style="fill:#050338;"/>
    <path clip-path="url(#pc5d398311b)" d="M 157.822766 180.928173 
L 170.430723 184.897786 
L 170.427249 184.769488 
L 157.818504 180.800324 
z
" style="fill:#0b0777;"/>
    <path clip-path="url(#pc5d398311b)" d="M 190.920596 175.34266 
L 203.773108 179.300494 
L 211.424577 172.472893 
L 198.651887 168.589815 
z
" style="fill:#2b0376;"/>
    <path clip-path="url(#pc5d398311b)" d="M 257.743589 184.115686 
L 264.839875 177.282368 
L 265.096781 164.603555 
L 257.957519 171.358777 
z
" style="fill:#240144;"/>
    <path clip-path="url(#pc5d398311b)" d="M 257.758492 183.226988 
L 270.982639 187.228832 
L 277.995084 180.325311 
L 264.857773 176.39906 
z
" style="fill:#0f0569;"/>
    <path clip-path="url(#pc5d398311b)" d="M 277.971253 181.211726 
L 291.24765 185.184478 
L 291.257852 184.880919 
L 277.979385 180.909231 
z
" style="fill:#0b0777;"/>
    <path clip-path="url(#pc5d398311b)" d="M 277.971253 181.211726 
L 277.980699 180.860361 
L 291.2595 184.831877 
L 291.24765 185.184478 
z
" style="fill:#050338;"/>
    <path clip-path="url(#pc5d398311b)" d="M 244.799906 167.442892 
L 257.957519 171.358777 
L 265.096781 164.603555 
L 252.024716 160.76167 
z
" style="fill:#42017e;"/>
    <path clip-path="url(#pc5d398311b)" d="M 170.430723 184.897786 
L 178.361455 178.049733 
L 191.031582 181.987547 
L 183.178635 188.911464 
z
" style="fill:#070448;"/>
    <path clip-path="url(#pc5d398311b)" d="M 218.949524 172.361429 
L 218.727674 89.870232 
L 226.372146 83.785889 
L 226.292478 165.747667 
z
" style="fill:#dacb21;"/>
    <path clip-path="url(#pc5d398311b)" d="M 170.421389 184.553044 
L 183.171469 188.565507 
L 191.025839 181.643691 
L 178.353571 177.707082 
z
" style="fill:#0a0667;"/>
    <path clip-path="url(#pc5d398311b)" d="M 203.841786 185.968896 
L 211.467294 179.100638 
L 211.424577 172.472893 
L 203.773108 179.300494 
z
" style="fill:#180240;"/>
    <path clip-path="url(#pc5d398311b)" d="M 244.670417 180.154631 
L 244.76784 170.590782 
L 257.90454 174.517936 
L 257.743589 184.115686 
z
" style="fill:#1e0142;"/>
    <path clip-path="url(#pc5d398311b)" d="M 149.662704 187.831639 
L 149.658221 187.712274 
L 157.818811 180.809532 
L 157.822766 180.928173 
z
" style="fill:#0b0777;"/>
    <path clip-path="url(#pc5d398311b)" d="M 244.670417 180.154631 
L 257.743589 184.115686 
L 257.957519 171.358777 
L 244.799906 167.442892 
z
" style="fill:#4c0191;"/>
    <path clip-path="url(#pc5d398311b)" d="M 203.841786 185.968896 
L 211.467294 179.100638 
L 224.338378 183.050047 
L 216.794403 189.994506 
z
" style="fill:#80432b;"/>
    <path clip-path="url(#pc5d398311b)" d="M 191.031582 181.987547 
L 190.96276 177.867084 
L 203.7992 181.833881 
L 203.841786 185.968896 
z
" style="fill:#11023d;"/>
    <path clip-path="url(#pc5d398311b)" d="M 270.961723 188.120663 
L 270.970014 187.767152 
L 277.980699 180.860361 
L 277.971253 181.211726 
z
" style="fill:#0b0777;"/>
    <path clip-path="url(#pc5d398311b)" d="M 251.851153 173.395697 
L 258.898031 166.762758 
L 260.325352 83.77634 
L 252.998572 89.872584 
z
" style="fill:#666210;"/>
    <path clip-path="url(#pc5d398311b)" d="M 270.961723 188.120663 
L 277.971253 181.211726 
L 277.995084 180.325311 
L 270.982639 187.228832 
z
" style="fill:#080339;"/>
    <path clip-path="url(#pc5d398311b)" d="M 191.031582 181.987547 
L 203.841786 185.968896 
L 203.773108 179.300494 
L 190.920596 175.34266 
z
" style="fill:#320488;"/>
    <path clip-path="url(#pc5d398311b)" d="M 237.351973 187.043183 
L 237.41493 177.420511 
L 244.76784 170.590782 
L 244.670417 180.154631 
z
" style="fill:#3f038d;"/>
    <path clip-path="url(#pc5d398311b)" d="M 239.002775 169.551023 
L 239.578897 90.719089 
L 252.938154 94.27054 
L 251.851153 173.395697 
z
" style="fill:#68590f;"/>
    <path clip-path="url(#pc5d398311b)" d="M 183.178635 188.911464 
L 191.031582 181.987547 
L 191.025839 181.643691 
L 183.171469 188.565507 
z
" style="fill:#050338;"/>
    <path clip-path="url(#pc5d398311b)" d="M 233.864077 79.109077 
L 247.001878 82.545487 
L 254.267823 76.617473 
L 241.21495 73.246201 
z
" style="fill:#beac1c;"/>
    <path clip-path="url(#pc5d398311b)" d="M 237.351973 187.043183 
L 244.670417 180.154631 
L 257.743589 184.115686 
L 250.510457 191.080779 
z
" style="fill:#260255;"/>
    <path clip-path="url(#pc5d398311b)" d="M 183.178635 188.911464 
L 183.092767 184.765752 
L 190.96276 177.867084 
L 191.031582 181.987547 
z
" style="fill:#250582;"/>
    <path clip-path="url(#pc5d398311b)" d="M 239.002775 169.551023 
L 251.851153 173.395697 
L 252.998572 89.872584 
L 239.610912 86.338419 
z
" style="fill:#d8d022;"/>
    <path clip-path="url(#pc5d398311b)" d="M 257.743589 184.115686 
L 257.756072 183.371268 
L 270.979243 187.373622 
L 270.961723 188.120663 
z
" style="fill:#080339;"/>
    <path clip-path="url(#pc5d398311b)" d="M 257.743589 184.115686 
L 270.961723 188.120663 
L 270.982639 187.228832 
L 257.758492 183.226988 
z
" style="fill:#110679;"/>
    <path clip-path="url(#pc5d398311b)" d="M 149.662704 187.831639 
L 157.822766 180.928173 
L 170.430723 184.897786 
L 162.346885 191.878042 
z
" style="fill:#070448;"/>
    <path clip-path="url(#pc5d398311b)" d="M 149.658221 187.712274 
L 162.343142 191.758256 
L 170.427499 184.778727 
L 157.818811 180.809532 
z
" style="fill:#0a0667;"/>
    <path clip-path="url(#pc5d398311b)" d="M 270.961723 188.120663 
L 277.971253 181.211726 
L 291.24765 185.184478 
L 284.327244 192.170297 
z
" style="fill:#070448;"/>
    <path clip-path="url(#pc5d398311b)" d="M 270.970014 187.767152 
L 284.337971 191.815539 
L 291.2595 184.831877 
L 277.980699 180.860361 
z
" style="fill:#0a0667;"/>
    <path clip-path="url(#pc5d398311b)" d="M 231.739835 176.23678 
L 232.033473 96.895914 
L 239.578897 90.719089 
L 239.002775 169.551023 
z
" style="fill:#ddbe20;"/>
    <path clip-path="url(#pc5d398311b)" d="M 170.430723 184.897786 
L 170.423651 184.636587 
L 183.173205 188.649344 
L 183.178635 188.911464 
z
" style="fill:#050338;"/>
    <path clip-path="url(#pc5d398311b)" d="M 170.430723 184.897786 
L 183.178635 188.911464 
L 183.171469 188.565507 
L 170.421389 184.553044 
z
" style="fill:#0b0777;"/>
    <path clip-path="url(#pc5d398311b)" d="M 218.949524 172.361429 
L 218.755289 100.138515 
L 232.00812 103.746188 
L 231.739835 176.23678 
z
" style="fill:#6a4c13;"/>
    <path clip-path="url(#pc5d398311b)" d="M 183.178635 188.911464 
L 191.031582 181.987547 
L 203.841786 185.968896 
L 196.068846 192.969946 
z
" style="fill:#16034f;"/>
    <path clip-path="url(#pc5d398311b)" d="M 231.739835 176.23678 
L 239.002775 169.551023 
L 239.603999 87.284224 
L 232.046272 93.437534 
z
" style="fill:#676010;"/>
    <path clip-path="url(#pc5d398311b)" d="M 250.510457 191.080779 
L 250.520331 190.331809 
L 257.756072 183.371268 
L 257.743589 184.115686 
z
" style="fill:#110679;"/>
    <path clip-path="url(#pc5d398311b)" d="M 162.346885 191.878042 
L 170.430723 184.897786 
L 170.427499 184.778727 
L 162.343142 191.758256 
z
" style="fill:#050338;"/>
    <path clip-path="url(#pc5d398311b)" d="M 162.346885 191.878042 
L 162.338674 191.615246 
L 170.423651 184.636587 
L 170.430723 184.897786 
z
" style="fill:#0b0777;"/>
    <path clip-path="url(#pc5d398311b)" d="M 216.794403 189.994506 
L 224.338378 183.050047 
L 237.351973 187.043183 
L 229.891821 194.06512 
z
" style="fill:#7d3e2e;"/>
    <path clip-path="url(#pc5d398311b)" d="M 246.972921 85.220358 
L 260.240569 88.705727 
L 267.410541 82.693359 
L 254.229948 79.274336 
z
" style="fill:#c1a21c;"/>
    <path clip-path="url(#pc5d398311b)" d="M 211.467294 179.100638 
L 210.99881 106.413147 
L 218.755289 100.138515 
L 218.949524 172.361429 
z
" style="fill:#e0a128;"/>
    <path clip-path="url(#pc5d398311b)" d="M 284.327244 192.170297 
L 291.24765 185.184478 
L 291.2595 184.831877 
L 284.337971 191.815539 
z
" style="fill:#050338;"/>
    <path clip-path="url(#pc5d398311b)" d="M 183.092767 184.765752 
L 196.00954 188.80956 
L 203.7992 181.833881 
L 190.96276 177.867084 
z
" style="fill:#200471;"/>
    <path clip-path="url(#pc5d398311b)" d="M 218.949524 172.361429 
L 231.739835 176.23678 
L 232.046272 93.437534 
L 218.727674 89.870232 
z
" style="fill:#dacb21;"/>
    <path clip-path="url(#pc5d398311b)" d="M 237.41493 177.420511 
L 250.63778 181.42392 
L 257.90454 174.517936 
L 244.76784 170.590782 
z
" style="fill:#37027a;"/>
    <path clip-path="url(#pc5d398311b)" d="M 250.510457 191.080779 
L 257.743589 184.115686 
L 257.90454 174.517936 
L 250.63778 181.42392 
z
" style="fill:#1e0142;"/>
    <path clip-path="url(#pc5d398311b)" d="M 250.510457 191.080779 
L 257.743589 184.115686 
L 270.961723 188.120663 
L 263.816264 195.163579 
z
" style="fill:#0a0449;"/>
    <path clip-path="url(#pc5d398311b)" d="M 149.662704 187.831639 
L 149.659527 187.747028 
L 162.344232 191.793133 
L 162.346885 191.878042 
z
" style="fill:#050338;"/>
    <path clip-path="url(#pc5d398311b)" d="M 149.662704 187.831639 
L 162.346885 191.878042 
L 162.343142 191.758256 
L 149.658221 187.712274 
z
" style="fill:#0b0777;"/>
    <path clip-path="url(#pc5d398311b)" d="M 250.520331 190.331809 
L 263.831242 194.411964 
L 270.979243 187.373622 
L 257.756072 183.371268 
z
" style="fill:#0f0569;"/>
    <path clip-path="url(#pc5d398311b)" d="M 270.961723 188.120663 
L 270.966249 187.927676 
L 284.3331 191.976629 
L 284.327244 192.170297 
z
" style="fill:#050338;"/>
    <path clip-path="url(#pc5d398311b)" d="M 270.961723 188.120663 
L 284.327244 192.170297 
L 284.337971 191.815539 
L 270.970014 187.767152 
z
" style="fill:#0b0777;"/>
    <path clip-path="url(#pc5d398311b)" d="M 196.068846 192.969946 
L 203.841786 185.968896 
L 203.7992 181.833881 
L 196.00954 188.80956 
z
" style="fill:#11023d;"/>
    <path clip-path="url(#pc5d398311b)" d="M 237.351973 187.043183 
L 237.398692 179.902332 
L 250.604941 183.914608 
L 250.510457 191.080779 
z
" style="fill:#180240;"/>
    <path clip-path="url(#pc5d398311b)" d="M 162.346885 191.878042 
L 170.430723 184.897786 
L 183.178635 188.911464 
L 175.173234 195.969799 
z
" style="fill:#070448;"/>
    <path clip-path="url(#pc5d398311b)" d="M 162.338674 191.615246 
L 175.166686 195.706074 
L 183.173205 188.649344 
L 170.423651 184.636587 
z
" style="fill:#0a0667;"/>
    <path clip-path="url(#pc5d398311b)" d="M 231.739835 176.23678 
L 231.994998 107.291789 
L 245.375334 110.954308 
L 244.670417 180.154631 
z
" style="fill:#694616;"/>
    <path clip-path="url(#pc5d398311b)" d="M 237.351973 187.043183 
L 250.510457 191.080779 
L 250.63778 181.42392 
L 237.41493 177.420511 
z
" style="fill:#3f038d;"/>
    <path clip-path="url(#pc5d398311b)" d="M 244.670417 180.154631 
L 251.851153 173.395697 
L 252.938154 94.27054 
L 245.481648 100.517662 
z
" style="fill:#68590f;"/>
    <path clip-path="url(#pc5d398311b)" d="M 183.178635 188.911464 
L 183.134174 186.764911 
L 196.038139 190.815807 
L 196.068846 192.969946 
z
" style="fill:#0c033b;"/>
    <path clip-path="url(#pc5d398311b)" d="M 141.344465 194.868925 
L 141.340899 194.783796 
L 149.659527 187.747028 
L 149.662704 187.831639 
z
" style="fill:#0b0777;"/>
    <path clip-path="url(#pc5d398311b)" d="M 196.068846 192.969946 
L 203.841786 185.968896 
L 216.794403 189.994506 
L 209.103753 197.073984 
z
" style="fill:#6f293e;"/>
    <path clip-path="url(#pc5d398311b)" d="M 211.467294 179.100638 
L 211.08998 120.558676 
L 224.338378 124.292708 
L 224.338378 183.050047 
z
" style="fill:#643421;"/>
    <path clip-path="url(#pc5d398311b)" d="M 263.816264 195.163579 
L 263.820133 194.969411 
L 270.966249 187.927676 
L 270.961723 188.120663 
z
" style="fill:#0b0777;"/>
    <path clip-path="url(#pc5d398311b)" d="M 183.178635 188.911464 
L 196.068846 192.969946 
L 196.00954 188.80956 
L 183.092767 184.765752 
z
" style="fill:#250582;"/>
    <path clip-path="url(#pc5d398311b)" d="M 263.816264 195.163579 
L 270.961723 188.120663 
L 270.979243 187.373622 
L 263.831242 194.411964 
z
" style="fill:#080339;"/>
    <path clip-path="url(#pc5d398311b)" d="M 229.891821 194.06512 
L 229.911952 186.880337 
L 237.398692 179.902332 
L 237.351973 187.043183 
z
" style="fill:#330488;"/>
    <path clip-path="url(#pc5d398311b)" d="M 224.338378 183.050047 
L 224.338378 113.661916 
L 231.994998 107.291789 
L 231.739835 176.23678 
z
" style="fill:#df942f;"/>
    <path clip-path="url(#pc5d398311b)" d="M 231.739835 176.23678 
L 244.670417 180.154631 
L 245.481648 100.517662 
L 232.033473 96.895914 
z
" style="fill:#ddbe20;"/>
    <path clip-path="url(#pc5d398311b)" d="M 175.173234 195.969799 
L 183.178635 188.911464 
L 183.173205 188.649344 
L 175.166686 195.706074 
z
" style="fill:#050338;"/>
    <path clip-path="url(#pc5d398311b)" d="M 229.891821 194.06512 
L 237.351973 187.043183 
L 250.510457 191.080779 
L 243.136481 198.181496 
z
" style="fill:#1f0252;"/>
    <path clip-path="url(#pc5d398311b)" d="M 224.338378 183.050047 
L 231.739835 176.23678 
L 232.00812 103.746188 
L 224.338378 110.092292 
z
" style="fill:#6a4c13;"/>
    <path clip-path="url(#pc5d398311b)" d="M 175.173234 195.969799 
L 175.11961 193.810085 
L 183.134174 186.764911 
L 183.178635 188.911464 
z
" style="fill:#1a057d;"/>
    <path clip-path="url(#pc5d398311b)" d="M 203.841786 185.968896 
L 203.235009 127.053156 
L 211.08998 120.558676 
L 211.467294 179.100638 
z
" style="fill:#d36f46;"/>
    <path clip-path="url(#pc5d398311b)" d="M 250.510457 191.080779 
L 250.519449 190.398716 
L 263.829904 194.479107 
L 263.816264 195.163579 
z
" style="fill:#070339;"/>
    <path clip-path="url(#pc5d398311b)" d="M 250.510457 191.080779 
L 263.816264 195.163579 
L 263.831242 194.411964 
L 250.520331 190.331809 
z
" style="fill:#110679;"/>
    <path clip-path="url(#pc5d398311b)" d="M 141.344465 194.868925 
L 149.662704 187.831639 
L 162.346885 191.878042 
L 154.105465 198.994368 
z
" style="fill:#070448;"/>
    <path clip-path="url(#pc5d398311b)" d="M 141.340899 194.783796 
L 154.102431 198.908938 
L 162.344232 191.793133 
L 149.659527 187.747028 
z
" style="fill:#0a0667;"/>
    <path clip-path="url(#pc5d398311b)" d="M 263.816264 195.163579 
L 270.961723 188.120663 
L 284.327244 192.170297 
L 277.271882 199.292348 
z
" style="fill:#070448;"/>
    <path clip-path="url(#pc5d398311b)" d="M 263.820133 194.969411 
L 277.277099 199.097494 
L 284.3331 191.976629 
L 270.966249 187.927676 
z
" style="fill:#0a0667;"/>
    <path clip-path="url(#pc5d398311b)" d="M 162.346885 191.878042 
L 162.340281 191.666668 
L 175.167967 195.757678 
L 175.173234 195.969799 
z
" style="fill:#050338;"/>
    <path clip-path="url(#pc5d398311b)" d="M 162.346885 191.878042 
L 175.173234 195.969799 
L 175.166686 195.706074 
L 162.338674 191.615246 
z
" style="fill:#0b0777;"/>
    <path clip-path="url(#pc5d398311b)" d="M 211.467294 179.100638 
L 224.338378 183.050047 
L 224.338378 110.092292 
L 210.99881 106.413147 
z
" style="fill:#e0a128;"/>
    <path clip-path="url(#pc5d398311b)" d="M 226.375918 79.904801 
L 239.632475 83.387793 
L 247.057799 77.379717 
L 233.887451 73.96354 
z
" style="fill:#b8bf1a;"/>
    <path clip-path="url(#pc5d398311b)" d="M 175.173234 195.969799 
L 183.178635 188.911464 
L 196.068846 192.969946 
L 188.144156 200.107676 
z
" style="fill:#10034c;"/>
    <path clip-path="url(#pc5d398311b)" d="M 243.136481 198.181496 
L 243.143003 197.495253 
L 250.519449 190.398716 
L 250.510457 191.080779 
z
" style="fill:#0e0678;"/>
    <path clip-path="url(#pc5d398311b)" d="M 229.911952 186.880337 
L 243.205008 190.971186 
L 250.604941 183.914608 
L 237.398692 179.902332 
z
" style="fill:#2d0376;"/>
    <path clip-path="url(#pc5d398311b)" d="M 224.338378 183.050047 
L 224.338378 126.781592 
L 237.721467 130.567756 
L 237.351973 187.043183 
z
" style="fill:#623124;"/>
    <path clip-path="url(#pc5d398311b)" d="M 175.11961 193.810085 
L 188.104457 197.940315 
L 196.038139 190.815807 
L 183.134174 186.764911 
z
" style="fill:#17056d;"/>
    <path clip-path="url(#pc5d398311b)" d="M 154.105465 198.994368 
L 162.346885 191.878042 
L 162.344232 191.793133 
L 154.102431 198.908938 
z
" style="fill:#050338;"/>
    <path clip-path="url(#pc5d398311b)" d="M 154.105465 198.994368 
L 154.097911 198.781698 
L 162.340281 191.666668 
L 162.346885 191.878042 
z
" style="fill:#0b0777;"/>
    <path clip-path="url(#pc5d398311b)" d="M 209.103753 197.073984 
L 216.794403 189.994506 
L 229.891821 194.06512 
L 222.285805 201.224351 
z
" style="fill:#6a2243;"/>
    <path clip-path="url(#pc5d398311b)" d="M 277.271882 199.292348 
L 284.327244 192.170297 
L 284.3331 191.976629 
L 277.277099 199.097494 
z
" style="fill:#050338;"/>
    <path clip-path="url(#pc5d398311b)" d="M 243.136481 198.181496 
L 250.510457 191.080779 
L 250.604941 183.914608 
L 243.205008 190.971186 
z
" style="fill:#180240;"/>
    <path clip-path="url(#pc5d398311b)" d="M 203.841786 185.968896 
L 203.384051 141.524555 
L 216.624972 145.387982 
L 216.794403 189.994506 
z
" style="fill:#562030;"/>
    <path clip-path="url(#pc5d398311b)" d="M 237.351973 187.043183 
L 244.670417 180.154631 
L 245.375334 110.954308 
L 237.807635 117.397284 
z
" style="fill:#694616;"/>
    <path clip-path="url(#pc5d398311b)" d="M 243.136481 198.181496 
L 250.510457 191.080779 
L 263.816264 195.163579 
L 256.530882 202.34441 
z
" style="fill:#090449;"/>
    <path clip-path="url(#pc5d398311b)" d="M 216.794403 189.994506 
L 216.579311 133.366866 
L 224.338378 126.781592 
L 224.338378 183.050047 
z
" style="fill:#cf674c;"/>
    <path clip-path="url(#pc5d398311b)" d="M 229.891821 194.06512 
L 229.903511 189.892815 
L 243.176275 193.994403 
L 243.136481 198.181496 
z
" style="fill:#11023d;"/>
    <path clip-path="url(#pc5d398311b)" d="M 188.144156 200.107676 
L 196.068846 192.969946 
L 196.038139 190.815807 
L 188.104457 197.940315 
z
" style="fill:#0c033b;"/>
    <path clip-path="url(#pc5d398311b)" d="M 243.143003 197.495253 
L 256.542114 201.65574 
L 263.829904 194.479107 
L 250.519449 190.398716 
z
" style="fill:#0c0668;"/>
    <path clip-path="url(#pc5d398311b)" d="M 141.344465 194.868925 
L 154.105465 198.994368 
L 154.102431 198.908938 
L 141.340899 194.783796 
z
" style="fill:#0b0777;"/>
    <path clip-path="url(#pc5d398311b)" d="M 263.816264 195.163579 
L 263.81941 195.005694 
L 277.276124 199.133905 
L 277.271882 199.292348 
z
" style="fill:#050338;"/>
    <path clip-path="url(#pc5d398311b)" d="M 216.794403 189.994506 
L 224.338378 183.050047 
L 224.338378 124.292708 
L 216.569794 130.861384 
z
" style="fill:#643421;"/>
    <path clip-path="url(#pc5d398311b)" d="M 263.816264 195.163579 
L 277.271882 199.292348 
L 277.277099 199.097494 
L 263.820133 194.969411 
z
" style="fill:#0b0777;"/>
    <path clip-path="url(#pc5d398311b)" d="M 239.610912 86.338419 
L 252.998572 89.872584 
L 260.325352 83.77634 
L 247.026075 80.310254 
z
" style="fill:#bcb41e;"/>
    <path clip-path="url(#pc5d398311b)" d="M 229.891821 194.06512 
L 243.136481 198.181496 
L 243.205008 190.971186 
L 229.911952 186.880337 
z
" style="fill:#330488;"/>
    <path clip-path="url(#pc5d398311b)" d="M 154.105465 198.994368 
L 162.346885 191.878042 
L 175.173234 195.969799 
L 167.010898 203.166503 
z
" style="fill:#070448;"/>
    <path clip-path="url(#pc5d398311b)" d="M 154.097911 198.781698 
L 167.004696 202.953081 
L 175.167967 195.757678 
L 162.340281 191.666668 
z
" style="fill:#0a0667;"/>
    <path clip-path="url(#pc5d398311b)" d="M 196.068846 192.969946 
L 195.431283 148.244164 
L 203.384051 141.524555 
L 203.841786 185.968896 
z
" style="fill:#b74367;"/>
    <path clip-path="url(#pc5d398311b)" d="M 224.338378 183.050047 
L 237.351973 187.043183 
L 237.807635 117.397284 
L 224.338378 113.661916 
z
" style="fill:#df942f;"/>
    <path clip-path="url(#pc5d398311b)" d="M 175.173234 195.969799 
L 175.158961 195.394951 
L 188.133589 199.530795 
L 188.144156 200.107676 
z
" style="fill:#070339;"/>
    <path clip-path="url(#pc5d398311b)" d="M 222.285805 201.224351 
L 222.281442 197.026389 
L 229.903511 189.892815 
L 229.891821 194.06512 
z
" style="fill:#250582;"/>
    <path clip-path="url(#pc5d398311b)" d="M 175.173234 195.969799 
L 188.144156 200.107676 
L 188.104457 197.940315 
L 175.11961 193.810085 
z
" style="fill:#1a057d;"/>
    <path clip-path="url(#pc5d398311b)" d="M 188.144156 200.107676 
L 196.068846 192.969946 
L 209.103753 197.073984 
L 201.262108 204.292457 
z
" style="fill:#4f0956;"/>
    <path clip-path="url(#pc5d398311b)" d="M 203.841786 185.968896 
L 216.794403 189.994506 
L 216.569794 130.861384 
L 203.235009 127.053156 
z
" style="fill:#d36f46;"/>
    <path clip-path="url(#pc5d398311b)" d="M 256.530882 202.34441 
L 256.533473 202.185556 
L 263.81941 195.005694 
L 263.816264 195.163579 
z
" style="fill:#0b0777;"/>
    <path clip-path="url(#pc5d398311b)" d="M 256.530882 202.34441 
L 263.816264 195.163579 
L 263.829904 194.479107 
L 256.542114 201.65574 
z
" style="fill:#070339;"/>
    <path clip-path="url(#pc5d398311b)" d="M 216.794403 189.994506 
L 216.638339 148.907146 
L 230.007362 152.828008 
L 229.891821 194.06512 
z
" style="fill:#521b34;"/>
    <path clip-path="url(#pc5d398311b)" d="M 167.010898 203.166503 
L 175.173234 195.969799 
L 175.167967 195.757678 
L 167.004696 202.953081 
z
" style="fill:#050338;"/>
    <path clip-path="url(#pc5d398311b)" d="M 167.010898 203.166503 
L 166.994092 202.588129 
L 175.158961 195.394951 
L 175.173234 195.969799 
z
" style="fill:#0e0678;"/>
    <path clip-path="url(#pc5d398311b)" d="M 222.285805 201.224351 
L 229.891821 194.06512 
L 243.136481 198.181496 
L 235.617509 205.421836 
z
" style="fill:#16034f;"/>
    <path clip-path="url(#pc5d398311b)" d="M 196.068846 192.969946 
L 195.683952 165.969156 
L 208.895151 169.975769 
L 209.103753 197.073984 
z
" style="fill:#3e0743;"/>
    <path clip-path="url(#pc5d398311b)" d="M 218.727674 89.870232 
L 232.046272 93.437534 
L 239.603999 87.284224 
L 226.372146 83.785889 
z
" style="fill:#bdb01d;"/>
    <path clip-path="url(#pc5d398311b)" d="M 243.136481 198.181496 
L 243.141523 197.651064 
L 256.539564 201.812102 
L 256.530882 202.34441 
z
" style="fill:#070339;"/>
    <path clip-path="url(#pc5d398311b)" d="M 243.136481 198.181496 
L 256.530882 202.34441 
L 256.542114 201.65574 
L 243.143003 197.495253 
z
" style="fill:#0e0678;"/>
    <path clip-path="url(#pc5d398311b)" d="M 256.530882 202.34441 
L 263.816264 195.163579 
L 277.271882 199.292348 
L 270.077576 206.554656 
z
" style="fill:#070448;"/>
    <path clip-path="url(#pc5d398311b)" d="M 256.533473 202.185556 
L 270.081278 206.39524 
L 277.276124 199.133905 
L 263.81941 195.005694 
z
" style="fill:#0a0667;"/>
    <path clip-path="url(#pc5d398311b)" d="M 229.891821 194.06512 
L 237.351973 187.043183 
L 237.721467 130.567756 
L 230.05107 137.228603 
z
" style="fill:#623124;"/>
    <path clip-path="url(#pc5d398311b)" d="M 154.105465 198.994368 
L 167.010898 203.166503 
L 167.004696 202.953081 
L 154.097911 198.781698 
z
" style="fill:#0b0777;"/>
    <path clip-path="url(#pc5d398311b)" d="M 209.103753 197.073984 
L 208.785462 155.726764 
L 216.638339 148.907146 
L 216.794403 189.994506 
z
" style="fill:#af396f;"/>
    <path clip-path="url(#pc5d398311b)" d="M 222.281442 197.026389 
L 235.641621 201.208967 
L 243.176275 193.994403 
L 229.903511 189.892815 
z
" style="fill:#200471;"/>
    <path clip-path="url(#pc5d398311b)" d="M 188.144156 200.107676 
L 187.646489 172.937839 
L 195.683952 165.969156 
L 196.068846 192.969946 
z
" style="fill:#840f8f;"/>
    <path clip-path="url(#pc5d398311b)" d="M 167.010898 203.166503 
L 175.173234 195.969799 
L 188.144156 200.107676 
L 180.063228 207.386128 
z
" style="fill:#090449;"/>
    <path clip-path="url(#pc5d398311b)" d="M 209.103753 197.073984 
L 216.794403 189.994506 
L 216.624972 145.387982 
L 208.758194 152.18457 
z
" style="fill:#562030;"/>
    <path clip-path="url(#pc5d398311b)" d="M 166.994092 202.588129 
L 180.050175 206.805705 
L 188.133589 199.530795 
L 175.158961 195.394951 
z
" style="fill:#0c0668;"/>
    <path clip-path="url(#pc5d398311b)" d="M 235.617509 205.421836 
L 235.620563 204.888149 
L 243.141523 197.651064 
L 243.136481 198.181496 
z
" style="fill:#0e0678;"/>
    <path clip-path="url(#pc5d398311b)" d="M 216.794403 189.994506 
L 229.891821 194.06512 
L 230.05107 137.228603 
L 216.579311 133.366866 
z
" style="fill:#cf674c;"/>
    <path clip-path="url(#pc5d398311b)" d="M 235.617509 205.421836 
L 243.136481 198.181496 
L 243.176275 193.994403 
L 235.641621 201.208967 
z
" style="fill:#11023d;"/>
    <path clip-path="url(#pc5d398311b)" d="M 201.262108 204.292457 
L 209.103753 197.073984 
L 222.285805 201.224351 
L 214.529606 208.524945 
z
" style="fill:#4b0658;"/>
    <path clip-path="url(#pc5d398311b)" d="M 270.077576 206.554656 
L 277.271882 199.292348 
L 277.276124 199.133905 
L 270.081278 206.39524 
z
" style="fill:#050338;"/>
    <path clip-path="url(#pc5d398311b)" d="M 232.033473 96.895914 
L 245.481648 100.517662 
L 252.938154 94.27054 
L 239.578897 90.719089 
z
" style="fill:#c0a51c;"/>
    <path clip-path="url(#pc5d398311b)" d="M 196.068846 192.969946 
L 209.103753 197.073984 
L 208.758194 152.18457 
L 195.431283 148.244164 
z
" style="fill:#b74367;"/>
    <path clip-path="url(#pc5d398311b)" d="M 210.99881 106.413147 
L 224.338378 110.092292 
L 232.00812 103.746188 
L 218.755289 100.138515 
z
" style="fill:#c28c23;"/>
    <path clip-path="url(#pc5d398311b)" d="M 222.285805 201.224351 
L 222.283656 199.156426 
L 235.629387 203.346581 
L 235.617509 205.421836 
z
" style="fill:#0c033b;"/>
    <path clip-path="url(#pc5d398311b)" d="M 209.103753 197.073984 
L 208.910974 172.031302 
L 222.259684 176.091341 
L 222.285805 201.224351 
z
" style="fill:#3b0545;"/>
    <path clip-path="url(#pc5d398311b)" d="M 180.063228 207.386128 
L 188.144156 200.107676 
L 188.133589 199.530795 
L 180.050175 206.805705 
z
" style="fill:#070339;"/>
    <path clip-path="url(#pc5d398311b)" d="M 235.617509 205.421836 
L 243.136481 198.181496 
L 256.530882 202.34441 
L 249.101427 209.667246 
z
" style="fill:#090449;"/>
    <path clip-path="url(#pc5d398311b)" d="M 188.144156 200.107676 
L 187.967735 190.476103 
L 201.148988 194.626541 
L 201.262108 204.292457 
z
" style="fill:#1d0142;"/>
    <path clip-path="url(#pc5d398311b)" d="M 235.620563 204.888149 
L 249.108171 209.131668 
L 256.539564 201.812102 
L 243.141523 197.651064 
z
" style="fill:#0c0668;"/>
    <path clip-path="url(#pc5d398311b)" d="M 222.285805 201.224351 
L 235.617509 205.421836 
L 235.641621 201.208967 
L 222.281442 197.026389 
z
" style="fill:#250582;"/>
    <path clip-path="url(#pc5d398311b)" d="M 256.530882 202.34441 
L 270.077576 206.554656 
L 270.081278 206.39524 
L 256.533473 202.185556 
z
" style="fill:#0b0777;"/>
    <path clip-path="url(#pc5d398311b)" d="M 256.530882 202.34441 
L 256.53423 202.139096 
L 270.08236 206.348615 
L 270.077576 206.554656 
z
" style="fill:#050338;"/>
    <path clip-path="url(#pc5d398311b)" d="M 214.529606 208.524945 
L 214.519233 206.444302 
L 222.283656 199.156426 
L 222.285805 201.224351 
z
" style="fill:#1a057d;"/>
    <path clip-path="url(#pc5d398311b)" d="M 222.285805 201.224351 
L 229.891821 194.06512 
L 230.007362 152.828008 
L 222.242675 159.726063 
z
" style="fill:#521b34;"/>
    <path clip-path="url(#pc5d398311b)" d="M 201.262108 204.292457 
L 200.967198 179.093046 
L 208.910974 172.031302 
L 209.103753 197.073984 
z
" style="fill:#7c0a91;"/>
    <path clip-path="url(#pc5d398311b)" d="M 167.010898 203.166503 
L 180.063228 207.386128 
L 180.050175 206.805705 
L 166.994092 202.588129 
z
" style="fill:#0e0678;"/>
    <path clip-path="url(#pc5d398311b)" d="M 180.063228 207.386128 
L 179.845281 197.694972 
L 187.967735 190.476103 
L 188.144156 200.107676 
z
" style="fill:#3e038c;"/>
    <path clip-path="url(#pc5d398311b)" d="M 201.262108 204.292457 
L 209.103753 197.073984 
L 208.895151 169.975769 
L 200.942989 177.024371 
z
" style="fill:#3e0743;"/>
    <path clip-path="url(#pc5d398311b)" d="M 180.063228 207.386128 
L 188.144156 200.107676 
L 201.262108 204.292457 
L 193.264978 211.654059 
z
" style="fill:#250255;"/>
    <path clip-path="url(#pc5d398311b)" d="M 203.235009 127.053156 
L 216.569794 130.861384 
L 224.338378 124.292708 
L 211.08998 120.558676 
z
" style="fill:#b7603d;"/>
    <path clip-path="url(#pc5d398311b)" d="M 249.101427 209.667246 
L 249.104028 209.460671 
L 256.53423 202.139096 
L 256.530882 202.34441 
z
" style="fill:#0b0777;"/>
    <path clip-path="url(#pc5d398311b)" d="M 249.101427 209.667246 
L 256.530882 202.34441 
L 256.539564 201.812102 
L 249.108171 209.131668 
z
" style="fill:#070339;"/>
    <path clip-path="url(#pc5d398311b)" d="M 224.338378 113.661916 
L 237.807635 117.397284 
L 245.375334 110.954308 
L 231.994998 107.291789 
z
" style="fill:#c18129;"/>
    <path clip-path="url(#pc5d398311b)" d="M 209.103753 197.073984 
L 222.285805 201.224351 
L 222.242675 159.726063 
L 208.785462 155.726764 
z
" style="fill:#af396f;"/>
    <path clip-path="url(#pc5d398311b)" d="M 214.529606 208.524945 
L 222.285805 201.224351 
L 235.617509 205.421836 
L 227.94922 212.80596 
z
" style="fill:#10034c;"/>
    <path clip-path="url(#pc5d398311b)" d="M 188.144156 200.107676 
L 201.262108 204.292457 
L 200.942989 177.024371 
L 187.646489 172.937839 
z
" style="fill:#840f8f;"/>
    <path clip-path="url(#pc5d398311b)" d="M 235.617509 205.421836 
L 235.618981 205.164553 
L 249.104678 209.409051 
L 249.101427 209.667246 
z
" style="fill:#050338;"/>
    <path clip-path="url(#pc5d398311b)" d="M 235.617509 205.421836 
L 249.101427 209.667246 
L 249.108171 209.131668 
L 235.620563 204.888149 
z
" style="fill:#0e0678;"/>
    <path clip-path="url(#pc5d398311b)" d="M 214.519233 206.444302 
L 227.95306 210.71793 
L 235.629387 203.346581 
L 222.283656 199.156426 
z
" style="fill:#17056d;"/>
    <path clip-path="url(#pc5d398311b)" d="M 195.431283 148.244164 
L 208.758194 152.18457 
L 216.624972 145.387982 
L 203.384051 141.524555 
z
" style="fill:#9f3a59;"/>
    <path clip-path="url(#pc5d398311b)" d="M 249.101427 209.667246 
L 256.530882 202.34441 
L 270.077576 206.554656 
L 262.740181 213.961405 
z
" style="fill:#070448;"/>
    <path clip-path="url(#pc5d398311b)" d="M 249.104028 209.460671 
L 262.744238 213.754098 
L 270.08236 206.348615 
L 256.53423 202.139096 
z
" style="fill:#0a0667;"/>
    <path clip-path="url(#pc5d398311b)" d="M 201.262108 204.292457 
L 201.149885 194.703185 
L 214.481631 198.901447 
L 214.529606 208.524945 
z
" style="fill:#1d0142;"/>
    <path clip-path="url(#pc5d398311b)" d="M 187.646489 172.937839 
L 200.942989 177.024371 
L 208.895151 169.975769 
L 195.683952 165.969156 
z
" style="fill:#720d7c;"/>
    <path clip-path="url(#pc5d398311b)" d="M 227.94922 212.80596 
L 227.949696 212.547095 
L 235.618981 205.164553 
L 235.617509 205.421836 
z
" style="fill:#0b0777;"/>
    <path clip-path="url(#pc5d398311b)" d="M 216.579311 133.366866 
L 230.05107 137.228603 
L 237.721467 130.567756 
L 224.338378 126.781592 
z
" style="fill:#b45a42;"/>
    <path clip-path="url(#pc5d398311b)" d="M 227.94922 212.80596 
L 235.617509 205.421836 
L 235.629387 203.346581 
L 227.95306 210.71793 
z
" style="fill:#0c033b;"/>
    <path clip-path="url(#pc5d398311b)" d="M 179.845281 197.694972 
L 193.111138 201.928287 
L 201.148988 194.626541 
L 187.967735 190.476103 
z
" style="fill:#36027a;"/>
    <path clip-path="url(#pc5d398311b)" d="M 214.529606 208.524945 
L 222.285805 201.224351 
L 222.259684 176.091341 
L 214.403528 183.234454 
z
" style="fill:#3b0545;"/>
    <path clip-path="url(#pc5d398311b)" d="M 193.264978 211.654059 
L 193.112358 202.005408 
L 201.149885 194.703185 
L 201.262108 204.292457 
z
" style="fill:#3e038c;"/>
    <path clip-path="url(#pc5d398311b)" d="M 193.264978 211.654059 
L 201.262108 204.292457 
L 201.148988 194.626541 
L 193.111138 201.928287 
z
" style="fill:#1d0142;"/>
    <path clip-path="url(#pc5d398311b)" d="M 193.264978 211.654059 
L 201.262108 204.292457 
L 214.529606 208.524945 
L 206.61873 215.971129 
z
" style="fill:#250255;"/>
    <path clip-path="url(#pc5d398311b)" d="M 262.740181 213.961405 
L 270.077576 206.554656 
L 270.08236 206.348615 
L 262.744238 213.754098 
z
" style="fill:#050338;"/>
    <path clip-path="url(#pc5d398311b)" d="M 214.529606 208.524945 
L 214.526013 207.804161 
L 227.95055 212.08262 
L 227.94922 212.80596 
z
" style="fill:#070339;"/>
    <path clip-path="url(#pc5d398311b)" d="M 208.785462 155.726764 
L 222.242675 159.726063 
L 230.007362 152.828008 
L 216.638339 148.907146 
z
" style="fill:#983260;"/>
    <path clip-path="url(#pc5d398311b)" d="M 214.529606 208.524945 
L 227.94922 212.80596 
L 227.95306 210.71793 
L 214.519233 206.444302 
z
" style="fill:#1a057d;"/>
    <path clip-path="url(#pc5d398311b)" d="M 201.262108 204.292457 
L 214.529606 208.524945 
L 214.403528 183.234454 
L 200.967198 179.093046 
z
" style="fill:#7c0a91;"/>
    <path clip-path="url(#pc5d398311b)" d="M 227.94922 212.80596 
L 235.617509 205.421836 
L 249.101427 209.667246 
L 241.523583 217.136342 
z
" style="fill:#070448;"/>
    <path clip-path="url(#pc5d398311b)" d="M 227.949696 212.547095 
L 241.525861 216.876558 
L 249.104678 209.409051 
L 235.618981 205.164553 
z
" style="fill:#0a0667;"/>
    <path clip-path="url(#pc5d398311b)" d="M 180.063228 207.386128 
L 193.264978 211.654059 
L 193.111138 201.928287 
L 179.845281 197.694972 
z
" style="fill:#3e038c;"/>
    <path clip-path="url(#pc5d398311b)" d="M 249.101427 209.667246 
L 249.103185 209.527586 
L 262.742924 213.82125 
L 262.740181 213.961405 
z
" style="fill:#050338;"/>
    <path clip-path="url(#pc5d398311b)" d="M 249.101427 209.667246 
L 262.740181 213.961405 
L 262.744238 213.754098 
L 249.104028 209.460671 
z
" style="fill:#0b0777;"/>
    <path clip-path="url(#pc5d398311b)" d="M 200.967198 179.093046 
L 214.403528 183.234454 
L 222.259684 176.091341 
L 208.910974 172.031302 
z
" style="fill:#6c087e;"/>
    <path clip-path="url(#pc5d398311b)" d="M 206.61873 215.971129 
L 206.612174 215.245911 
L 214.526013 207.804161 
L 214.529606 208.524945 
z
" style="fill:#0e0678;"/>
    <path clip-path="url(#pc5d398311b)" d="M 241.523583 217.136342 
L 241.524815 216.995823 
L 249.103185 209.527586 
L 249.101427 209.667246 
z
" style="fill:#0b0777;"/>
    <path clip-path="url(#pc5d398311b)" d="M 241.523583 217.136342 
L 249.101427 209.667246 
L 249.104678 209.409051 
L 241.525861 216.876558 
z
" style="fill:#050338;"/>
    <path clip-path="url(#pc5d398311b)" d="M 193.112358 202.005408 
L 206.531194 206.287985 
L 214.481631 198.901447 
L 201.149885 194.703185 
z
" style="fill:#36027a;"/>
    <path clip-path="url(#pc5d398311b)" d="M 206.61873 215.971129 
L 214.529606 208.524945 
L 214.481631 198.901447 
L 206.531194 206.287985 
z
" style="fill:#1d0142;"/>
    <path clip-path="url(#pc5d398311b)" d="M 206.61873 215.971129 
L 214.529606 208.524945 
L 227.94922 212.80596 
L 220.127123 220.338193 
z
" style="fill:#090449;"/>
    <path clip-path="url(#pc5d398311b)" d="M 206.612174 215.245911 
L 220.125555 219.610399 
L 227.95055 212.08262 
L 214.526013 207.804161 
z
" style="fill:#0c0668;"/>
    <path clip-path="url(#pc5d398311b)" d="M 227.94922 212.80596 
L 227.94951 212.648457 
L 241.524969 216.97828 
L 241.523583 217.136342 
z
" style="fill:#050338;"/>
    <path clip-path="url(#pc5d398311b)" d="M 227.94922 212.80596 
L 241.523583 217.136342 
L 241.525861 216.876558 
L 227.949696 212.547095 
z
" style="fill:#0b0777;"/>
    <path clip-path="url(#pc5d398311b)" d="M 241.523583 217.136342 
L 249.101427 209.667246 
L 262.740181 213.961405 
L 255.255385 221.516949 
z
" style="fill:#070448;"/>
    <path clip-path="url(#pc5d398311b)" d="M 241.524815 216.995823 
L 255.257616 221.375931 
L 262.742924 213.82125 
L 249.103185 209.527586 
z
" style="fill:#0a0667;"/>
    <path clip-path="url(#pc5d398311b)" d="M 193.264978 211.654059 
L 206.61873 215.971129 
L 206.531194 206.287985 
L 193.112358 202.005408 
z
" style="fill:#3e038c;"/>
    <path clip-path="url(#pc5d398311b)" d="M 220.127123 220.338193 
L 220.126781 220.179721 
L 227.94951 212.648457 
L 227.94922 212.80596 
z
" style="fill:#0b0777;"/>
    <path clip-path="url(#pc5d398311b)" d="M 220.127123 220.338193 
L 227.94922 212.80596 
L 227.95055 212.08262 
L 220.125555 219.610399 
z
" style="fill:#070339;"/>
    <path clip-path="url(#pc5d398311b)" d="M 255.255385 221.516949 
L 262.740181 213.961405 
L 262.742924 213.82125 
L 255.257616 221.375931 
z
" style="fill:#050338;"/>
    <path clip-path="url(#pc5d398311b)" d="M 206.61873 215.971129 
L 220.127123 220.338193 
L 220.125555 219.610399 
L 206.612174 215.245911 
z
" style="fill:#0e0678;"/>
    <path clip-path="url(#pc5d398311b)" d="M 220.127123 220.338193 
L 227.94922 212.80596 
L 241.523583 217.136342 
L 233.792858 224.756123 
z
" style="fill:#070448;"/>
    <path clip-path="url(#pc5d398311b)" d="M 220.126781 220.179721 
L 233.793629 224.597088 
L 241.524969 216.97828 
L 227.94951 212.648457 
z
" style="fill:#0a0667;"/>
    <path clip-path="url(#pc5d398311b)" d="M 241.523583 217.136342 
L 241.52419 217.067103 
L 255.256484 221.447464 
L 255.255385 221.516949 
z
" style="fill:#050338;"/>
    <path clip-path="url(#pc5d398311b)" d="M 241.523583 217.136342 
L 255.255385 221.516949 
L 255.257616 221.375931 
L 241.524815 216.995823 
z
" style="fill:#0b0777;"/>
    <path clip-path="url(#pc5d398311b)" d="M 233.792858 224.756123 
L 233.793196 224.686459 
L 241.52419 217.067103 
L 241.523583 217.136342 
z
" style="fill:#0b0777;"/>
    <path clip-path="url(#pc5d398311b)" d="M 233.792858 224.756123 
L 241.523583 217.136342 
L 241.524969 216.97828 
L 233.793629 224.597088 
z
" style="fill:#050338;"/>
    <path clip-path="url(#pc5d398311b)" d="M 220.127123 220.338193 
L 233.792858 224.756123 
L 233.793629 224.597088 
L 220.126781 220.179721 
z
" style="fill:#0b0777;"/>
    <path clip-path="url(#pc5d398311b)" d="M 233.792858 224.756123 
L 241.523583 217.136342 
L 255.255385 221.516949 
L 247.618703 229.225814 
z
" style="fill:#070448;"/>
    <path clip-path="url(#pc5d398311b)" d="M 233.793196 224.686459 
L 247.619539 229.155902 
L 255.256484 221.447464 
L 241.52419 217.067103 
z
" style="fill:#0a0667;"/>
    <path clip-path="url(#pc5d398311b)" d="M 247.618703 229.225814 
L 255.255385 221.516949 
L 255.256484 221.447464 
L 247.619539 229.155902 
z
" style="fill:#050338;"/>
    <path clip-path="url(#pc5d398311b)" d="M 233.792858 224.756123 
L 247.618703 229.225814 
L 247.619539 229.155902 
L 233.793196 224.686459 
z
" style="fill:#0b0777;"/>
   </g>
   <g id="text_16">
    <!-- W40__H20__A180_bars_extracted.txt -->
    <g transform="translate(110.101875 28.56)scale(0.12 -0.12)">
     <defs>
      <path d="M 3.328125 72.90625 
L 13.28125 72.90625 
L 28.609375 11.28125 
L 43.890625 72.90625 
L 54.984375 72.90625 
L 70.3125 11.28125 
L 85.59375 72.90625 
L 95.609375 72.90625 
L 77.296875 0 
L 64.890625 0 
L 49.515625 63.28125 
L 33.984375 0 
L 21.578125 0 
z
" id="DejaVuSans-87"/>
      <path d="M 50.984375 -16.609375 
L 50.984375 -23.578125 
L -0.984375 -23.578125 
L -0.984375 -16.609375 
z
" id="DejaVuSans-95"/>
      <path d="M 9.8125 72.90625 
L 19.671875 72.90625 
L 19.671875 43.015625 
L 55.515625 43.015625 
L 55.515625 72.90625 
L 65.375 72.90625 
L 65.375 0 
L 55.515625 0 
L 55.515625 34.71875 
L 19.671875 34.71875 
L 19.671875 0 
L 9.8125 0 
z
" id="DejaVuSans-72"/>
      <path d="M 34.1875 63.1875 
L 20.796875 26.90625 
L 47.609375 26.90625 
z
M 28.609375 72.90625 
L 39.796875 72.90625 
L 67.578125 0 
L 57.328125 0 
L 50.6875 18.703125 
L 17.828125 18.703125 
L 11.1875 0 
L 0.78125 0 
z
" id="DejaVuSans-65"/>
      <path d="M 48.6875 27.296875 
Q 48.6875 37.203125 44.609375 42.84375 
Q 40.53125 48.484375 33.40625 48.484375 
Q 26.265625 48.484375 22.1875 42.84375 
Q 18.109375 37.203125 18.109375 27.296875 
Q 18.109375 17.390625 22.1875 11.75 
Q 26.265625 6.109375 33.40625 6.109375 
Q 40.53125 6.109375 44.609375 11.75 
Q 48.6875 17.390625 48.6875 27.296875 
z
M 18.109375 46.390625 
Q 20.953125 51.265625 25.265625 53.625 
Q 29.59375 56 35.59375 56 
Q 45.5625 56 51.78125 48.09375 
Q 58.015625 40.1875 58.015625 27.296875 
Q 58.015625 14.40625 51.78125 6.484375 
Q 45.5625 -1.421875 35.59375 -1.421875 
Q 29.59375 -1.421875 25.265625 0.953125 
Q 20.953125 3.328125 18.109375 8.203125 
L 18.109375 0 
L 9.078125 0 
L 9.078125 75.984375 
L 18.109375 75.984375 
z
" id="DejaVuSans-98"/>
      <path d="M 34.28125 27.484375 
Q 23.390625 27.484375 19.1875 25 
Q 14.984375 22.515625 14.984375 16.5 
Q 14.984375 11.71875 18.140625 8.90625 
Q 21.296875 6.109375 26.703125 6.109375 
Q 34.1875 6.109375 38.703125 11.40625 
Q 43.21875 16.703125 43.21875 25.484375 
L 43.21875 27.484375 
z
M 52.203125 31.203125 
L 52.203125 0 
L 43.21875 0 
L 43.21875 8.296875 
Q 40.140625 3.328125 35.546875 0.953125 
Q 30.953125 -1.421875 24.3125 -1.421875 
Q 15.921875 -1.421875 10.953125 3.296875 
Q 6 8.015625 6 15.921875 
Q 6 25.140625 12.171875 29.828125 
Q 18.359375 34.515625 30.609375 34.515625 
L 43.21875 34.515625 
L 43.21875 35.40625 
Q 43.21875 41.609375 39.140625 45 
Q 35.0625 48.390625 27.6875 48.390625 
Q 23 48.390625 18.546875 47.265625 
Q 14.109375 46.140625 10.015625 43.890625 
L 10.015625 52.203125 
Q 14.9375 54.109375 19.578125 55.046875 
Q 24.21875 56 28.609375 56 
Q 40.484375 56 46.34375 49.84375 
Q 52.203125 43.703125 52.203125 31.203125 
z
" id="DejaVuSans-97"/>
      <path d="M 41.109375 46.296875 
Q 39.59375 47.171875 37.8125 47.578125 
Q 36.03125 48 33.890625 48 
Q 26.265625 48 22.1875 43.046875 
Q 18.109375 38.09375 18.109375 28.8125 
L 18.109375 0 
L 9.078125 0 
L 9.078125 54.6875 
L 18.109375 54.6875 
L 18.109375 46.1875 
Q 20.953125 51.171875 25.484375 53.578125 
Q 30.03125 56 36.53125 56 
Q 37.453125 56 38.578125 55.875 
Q 39.703125 55.765625 41.0625 55.515625 
z
" id="DejaVuSans-114"/>
      <path d="M 44.28125 53.078125 
L 44.28125 44.578125 
Q 40.484375 46.53125 36.375 47.5 
Q 32.28125 48.484375 27.875 48.484375 
Q 21.1875 48.484375 17.84375 46.4375 
Q 14.5 44.390625 14.5 40.28125 
Q 14.5 37.15625 16.890625 35.375 
Q 19.28125 33.59375 26.515625 31.984375 
L 29.59375 31.296875 
Q 39.15625 29.25 43.1875 25.515625 
Q 47.21875 21.78125 47.21875 15.09375 
Q 47.21875 7.46875 41.1875 3.015625 
Q 35.15625 -1.421875 24.609375 -1.421875 
Q 20.21875 -1.421875 15.453125 -0.5625 
Q 10.6875 0.296875 5.421875 2 
L 5.421875 11.28125 
Q 10.40625 8.6875 15.234375 7.390625 
Q 20.0625 6.109375 24.8125 6.109375 
Q 31.15625 6.109375 34.5625 8.28125 
Q 37.984375 10.453125 37.984375 14.40625 
Q 37.984375 18.0625 35.515625 20.015625 
Q 33.0625 21.96875 24.703125 23.78125 
L 21.578125 24.515625 
Q 13.234375 26.265625 9.515625 29.90625 
Q 5.8125 33.546875 5.8125 39.890625 
Q 5.8125 47.609375 11.28125 51.796875 
Q 16.75 56 26.8125 56 
Q 31.78125 56 36.171875 55.265625 
Q 40.578125 54.546875 44.28125 53.078125 
z
" id="DejaVuSans-115"/>
      <path d="M 56.203125 29.59375 
L 56.203125 25.203125 
L 14.890625 25.203125 
Q 15.484375 15.921875 20.484375 11.0625 
Q 25.484375 6.203125 34.421875 6.203125 
Q 39.59375 6.203125 44.453125 7.46875 
Q 49.3125 8.734375 54.109375 11.28125 
L 54.109375 2.78125 
Q 49.265625 0.734375 44.1875 -0.34375 
Q 39.109375 -1.421875 33.890625 -1.421875 
Q 20.796875 -1.421875 13.15625 6.1875 
Q 5.515625 13.8125 5.515625 26.8125 
Q 5.515625 40.234375 12.765625 48.109375 
Q 20.015625 56 32.328125 56 
Q 43.359375 56 49.78125 48.890625 
Q 56.203125 41.796875 56.203125 29.59375 
z
M 47.21875 32.234375 
Q 47.125 39.59375 43.09375 43.984375 
Q 39.0625 48.390625 32.421875 48.390625 
Q 24.90625 48.390625 20.390625 44.140625 
Q 15.875 39.890625 15.1875 32.171875 
z
" id="DejaVuSans-101"/>
      <path d="M 54.890625 54.6875 
L 35.109375 28.078125 
L 55.90625 0 
L 45.3125 0 
L 29.390625 21.484375 
L 13.484375 0 
L 2.875 0 
L 24.125 28.609375 
L 4.6875 54.6875 
L 15.28125 54.6875 
L 29.78125 35.203125 
L 44.28125 54.6875 
z
" id="DejaVuSans-120"/>
      <path d="M 18.3125 70.21875 
L 18.3125 54.6875 
L 36.8125 54.6875 
L 36.8125 47.703125 
L 18.3125 47.703125 
L 18.3125 18.015625 
Q 18.3125 11.328125 20.140625 9.421875 
Q 21.96875 7.515625 27.59375 7.515625 
L 36.8125 7.515625 
L 36.8125 0 
L 27.59375 0 
Q 17.1875 0 13.234375 3.875 
Q 9.28125 7.765625 9.28125 18.015625 
L 9.28125 47.703125 
L 2.6875 47.703125 
L 2.6875 54.6875 
L 9.28125 54.6875 
L 9.28125 70.21875 
z
" id="DejaVuSans-116"/>
      <path d="M 48.78125 52.59375 
L 48.78125 44.1875 
Q 44.96875 46.296875 41.140625 47.34375 
Q 37.3125 48.390625 33.40625 48.390625 
Q 24.65625 48.390625 19.8125 42.84375 
Q 14.984375 37.3125 14.984375 27.296875 
Q 14.984375 17.28125 19.8125 11.734375 
Q 24.65625 6.203125 33.40625 6.203125 
Q 37.3125 6.203125 41.140625 7.25 
Q 44.96875 8.296875 48.78125 10.40625 
L 48.78125 2.09375 
Q 45.015625 0.34375 40.984375 -0.53125 
Q 36.96875 -1.421875 32.421875 -1.421875 
Q 20.0625 -1.421875 12.78125 6.34375 
Q 5.515625 14.109375 5.515625 27.296875 
Q 5.515625 40.671875 12.859375 48.328125 
Q 20.21875 56 33.015625 56 
Q 37.15625 56 41.109375 55.140625 
Q 45.0625 54.296875 48.78125 52.59375 
z
" id="DejaVuSans-99"/>
      <path d="M 45.40625 46.390625 
L 45.40625 75.984375 
L 54.390625 75.984375 
L 54.390625 0 
L 45.40625 0 
L 45.40625 8.203125 
Q 42.578125 3.328125 38.25 0.953125 
Q 33.9375 -1.421875 27.875 -1.421875 
Q 17.96875 -1.421875 11.734375 6.484375 
Q 5.515625 14.40625 5.515625 27.296875 
Q 5.515625 40.1875 11.734375 48.09375 
Q 17.96875 56 27.875 56 
Q 33.9375 56 38.25 53.625 
Q 42.578125 51.265625 45.40625 46.390625 
z
M 14.796875 27.296875 
Q 14.796875 17.390625 18.875 11.75 
Q 22.953125 6.109375 30.078125 6.109375 
Q 37.203125 6.109375 41.296875 11.75 
Q 45.40625 17.390625 45.40625 27.296875 
Q 45.40625 37.203125 41.296875 42.84375 
Q 37.203125 48.484375 30.078125 48.484375 
Q 22.953125 48.484375 18.875 42.84375 
Q 14.796875 37.203125 14.796875 27.296875 
z
" id="DejaVuSans-100"/>
      <path d="M 10.6875 12.40625 
L 21 12.40625 
L 21 0 
L 10.6875 0 
z
" id="DejaVuSans-46"/>
     </defs>
     <use xlink:href="#DejaVuSans-87"/>
     <use x="98.876953" xlink:href="#DejaVuSans-52"/>
     <use x="162.5" xlink:href="#DejaVuSans-48"/>
     <use x="226.123047" xlink:href="#DejaVuSans-95"/>
     <use x="276.123047" xlink:href="#DejaVuSans-95"/>
     <use x="326.123047" xlink:href="#DejaVuSans-72"/>
     <use x="401.318359" xlink:href="#DejaVuSans-50"/>
     <use x="464.941406" xlink:href="#DejaVuSans-48"/>
     <use x="528.564453" xlink:href="#DejaVuSans-95"/>
     <use x="578.564453" xlink:href="#DejaVuSans-95"/>
     <use x="628.564453" xlink:href="#DejaVuSans-65"/>
     <use x="696.972656" xlink:href="#DejaVuSans-49"/>
     <use x="760.595703" xlink:href="#DejaVuSans-56"/>
     <use x="824.21875" xlink:href="#DejaVuSans-48"/>
     <use x="887.841797" xlink:href="#DejaVuSans-95"/>
     <use x="937.841797" xlink:href="#DejaVuSans-98"/>
     <use x="1001.318359" xlink:href="#DejaVuSans-97"/>
     <use x="1062.597656" xlink:href="#DejaVuSans-114"/>
     <use x="1103.710938" xlink:href="#DejaVuSans-115"/>
     <use x="1155.810547" xlink:href="#DejaVuSans-95"/>
     <use x="1205.810547" xlink:href="#DejaVuSans-101"/>
     <use x="1265.583984" xlink:href="#DejaVuSans-120"/>
     <use x="1324.763672" xlink:href="#DejaVuSans-116"/>
     <use x="1363.972656" xlink:href="#DejaVuSans-114"/>
     <use x="1405.085938" xlink:href="#DejaVuSans-97"/>
     <use x="1466.365234" xlink:href="#DejaVuSans-99"/>
     <use x="1521.345703" xlink:href="#DejaVuSans-116"/>
     <use x="1560.554688" xlink:href="#DejaVuSans-101"/>
     <use x="1622.078125" xlink:href="#DejaVuSans-100"/>
     <use x="1685.554688" xlink:href="#DejaVuSans-46"/>
     <use x="1717.341797" xlink:href="#DejaVuSans-116"/>
     <use x="1756.550781" xlink:href="#DejaVuSans-120"/>
     <use x="1815.730469" xlink:href="#DejaVuSans-116"/>
    </g>
   </g>
  </g>
 </g>
 <defs>
  <clipPath id="pc5d398311b">
   <rect height="217.44" width="217.44" x="112.68" y="34.56"/>
  </clipPath>
 </defs>
</svg>
