<?xml version="1.0" encoding="utf-8" standalone="no"?>
<!DOCTYPE svg PUBLIC "-//W3C//DTD SVG 1.1//EN"
  "http://www.w3.org/Graphics/SVG/1.1/DTD/svg11.dtd">
<!-- Created with matplotlib (https://matplotlib.org/) -->
<svg height="288pt" version="1.1" viewBox="0 0 432 288" width="432pt" xmlns="http://www.w3.org/2000/svg" xmlns:xlink="http://www.w3.org/1999/xlink">
 <metadata>
  <rdf:RDF xmlns:cc="http://creativecommons.org/ns#" xmlns:dc="http://purl.org/dc/elements/1.1/" xmlns:rdf="http://www.w3.org/1999/02/22-rdf-syntax-ns#">
   <cc:Work>
    <dc:type rdf:resource="http://purl.org/dc/dcmitype/StillImage"/>
    <dc:date>2021-06-13T21:59:28.154328</dc:date>
    <dc:format>image/svg+xml</dc:format>
    <dc:creator>
     <cc:Agent>
      <dc:title>Matplotlib v3.3.4, https://matplotlib.org/</dc:title>
     </cc:Agent>
    </dc:creator>
   </cc:Work>
  </rdf:RDF>
 </metadata>
 <defs>
  <style type="text/css">*{stroke-linecap:butt;stroke-linejoin:round;}</style>
 </defs>
 <g id="figure_1">
  <g id="patch_1">
   <path d="M 0 288 
L 432 288 
L 432 0 
L 0 0 
z
" style="fill:#ffffff;"/>
  </g>
  <g id="patch_2">
   <path d="M 112.68 252 
L 330.12 252 
L 330.12 34.56 
L 112.68 34.56 
z
" style="fill:#ffffff;"/>
  </g>
  <g id="pane3d_1">
   <g id="patch_3">
    <path d="M 129.09822 198.386264 
L 200.904009 138.197228 
L 199.90584 51.393878 
L 124.663773 106.302111 
" style="fill:#f2f2f2;opacity:0.5;stroke:#f2f2f2;stroke-linejoin:miter;"/>
   </g>
  </g>
  <g id="pane3d_2">
   <g id="patch_4">
    <path d="M 200.904009 138.197228 
L 316.12668 171.68791 
L 320.238571 81.894718 
L 199.90584 51.393878 
" style="fill:#e6e6e6;opacity:0.5;stroke:#e6e6e6;stroke-linejoin:miter;"/>
   </g>
  </g>
  <g id="pane3d_3">
   <g id="patch_5">
    <path d="M 129.09822 198.386264 
L 251.239879 238.27773 
L 316.12668 171.68791 
L 200.904009 138.197228 
" style="fill:#ececec;opacity:0.5;stroke:#ececec;stroke-linejoin:miter;"/>
   </g>
  </g>
  <g id="axis3d_1">
   <g id="line2d_1">
    <path d="M 129.09822 198.386264 
L 251.239879 238.27773 
" style="fill:none;stroke:#000000;stroke-linecap:square;stroke-width:0.8;"/>
   </g>
   <g id="Line3DCollection_1">
    <path d="M 136.495759 200.802301 
L 207.911499 140.234029 
L 207.209612 53.245171 
" style="fill:none;stroke:#b0b0b0;stroke-width:0.8;"/>
    <path d="M 162.23134 209.207541 
L 232.260894 147.311436 
L 232.60309 59.681678 
" style="fill:none;stroke:#b0b0b0;stroke-width:0.8;"/>
    <path d="M 188.559037 217.806167 
L 257.123632 154.538053 
L 258.555303 66.259807 
" style="fill:none;stroke:#b0b0b0;stroke-width:0.8;"/>
    <path d="M 215.499525 226.604931 
L 282.516121 161.918647 
L 285.084894 72.984285 
" style="fill:none;stroke:#b0b0b0;stroke-width:0.8;"/>
    <path d="M 243.074449 235.610901 
L 308.455474 169.458193 
L 312.21135 79.860051 
" style="fill:none;stroke:#b0b0b0;stroke-width:0.8;"/>
   </g>
   <g id="xtick_1">
    <g id="line2d_2">
     <path d="M 137.117644 200.274876 
L 135.249322 201.859414 
" style="fill:none;stroke:#000000;stroke-linecap:square;stroke-width:0.8;"/>
    </g>
    <g id="text_1">
     <!-- 0 -->
     <g transform="translate(125.77919 224.124533)scale(0.1 -0.1)">
      <defs>
       <path d="M 31.78125 66.40625 
Q 24.171875 66.40625 20.328125 58.90625 
Q 16.5 51.421875 16.5 36.375 
Q 16.5 21.390625 20.328125 13.890625 
Q 24.171875 6.390625 31.78125 6.390625 
Q 39.453125 6.390625 43.28125 13.890625 
Q 47.125 21.390625 47.125 36.375 
Q 47.125 51.421875 43.28125 58.90625 
Q 39.453125 66.40625 31.78125 66.40625 
z
M 31.78125 74.21875 
Q 44.046875 74.21875 50.515625 64.515625 
Q 56.984375 54.828125 56.984375 36.375 
Q 56.984375 17.96875 50.515625 8.265625 
Q 44.046875 -1.421875 31.78125 -1.421875 
Q 19.53125 -1.421875 13.0625 8.265625 
Q 6.59375 17.96875 6.59375 36.375 
Q 6.59375 54.828125 13.0625 64.515625 
Q 19.53125 74.21875 31.78125 74.21875 
z
" id="DejaVuSans-48"/>
      </defs>
      <use xlink:href="#DejaVuSans-48"/>
     </g>
    </g>
   </g>
   <g id="xtick_2">
    <g id="line2d_3">
     <path d="M 162.841716 208.668056 
L 161.007937 210.288854 
" style="fill:none;stroke:#000000;stroke-linecap:square;stroke-width:0.8;"/>
    </g>
    <g id="text_2">
     <!-- 2 -->
     <g transform="translate(151.547192 232.748132)scale(0.1 -0.1)">
      <defs>
       <path d="M 19.1875 8.296875 
L 53.609375 8.296875 
L 53.609375 0 
L 7.328125 0 
L 7.328125 8.296875 
Q 12.9375 14.109375 22.625 23.890625 
Q 32.328125 33.6875 34.8125 36.53125 
Q 39.546875 41.84375 41.421875 45.53125 
Q 43.3125 49.21875 43.3125 52.78125 
Q 43.3125 58.59375 39.234375 62.25 
Q 35.15625 65.921875 28.609375 65.921875 
Q 23.96875 65.921875 18.8125 64.3125 
Q 13.671875 62.703125 7.8125 59.421875 
L 7.8125 69.390625 
Q 13.765625 71.78125 18.9375 73 
Q 24.125 74.21875 28.421875 74.21875 
Q 39.75 74.21875 46.484375 68.546875 
Q 53.21875 62.890625 53.21875 53.421875 
Q 53.21875 48.921875 51.53125 44.890625 
Q 49.859375 40.875 45.40625 35.40625 
Q 44.1875 33.984375 37.640625 27.21875 
Q 31.109375 20.453125 19.1875 8.296875 
z
" id="DejaVuSans-50"/>
      </defs>
      <use xlink:href="#DejaVuSans-50"/>
     </g>
    </g>
   </g>
   <g id="xtick_3">
    <g id="line2d_4">
     <path d="M 189.15721 217.254202 
L 187.360066 218.91252 
" style="fill:none;stroke:#000000;stroke-linecap:square;stroke-width:0.8;"/>
    </g>
    <g id="text_3">
     <!-- 4 -->
     <g transform="translate(177.91082 241.571064)scale(0.1 -0.1)">
      <defs>
       <path d="M 37.796875 64.3125 
L 12.890625 25.390625 
L 37.796875 25.390625 
z
M 35.203125 72.90625 
L 47.609375 72.90625 
L 47.609375 25.390625 
L 58.015625 25.390625 
L 58.015625 17.1875 
L 47.609375 17.1875 
L 47.609375 0 
L 37.796875 0 
L 37.796875 17.1875 
L 4.890625 17.1875 
L 4.890625 26.703125 
z
" id="DejaVuSans-52"/>
      </defs>
      <use xlink:href="#DejaVuSans-52"/>
     </g>
    </g>
   </g>
   <g id="xtick_4">
    <g id="line2d_5">
     <path d="M 216.084757 226.040048 
L 214.326462 227.737204 
" style="fill:none;stroke:#000000;stroke-linecap:square;stroke-width:0.8;"/>
    </g>
    <g id="text_4">
     <!-- 6 -->
     <g transform="translate(204.890965 250.600322)scale(0.1 -0.1)">
      <defs>
       <path d="M 33.015625 40.375 
Q 26.375 40.375 22.484375 35.828125 
Q 18.609375 31.296875 18.609375 23.390625 
Q 18.609375 15.53125 22.484375 10.953125 
Q 26.375 6.390625 33.015625 6.390625 
Q 39.65625 6.390625 43.53125 10.953125 
Q 47.40625 15.53125 47.40625 23.390625 
Q 47.40625 31.296875 43.53125 35.828125 
Q 39.65625 40.375 33.015625 40.375 
z
M 52.59375 71.296875 
L 52.59375 62.3125 
Q 48.875 64.0625 45.09375 64.984375 
Q 41.3125 65.921875 37.59375 65.921875 
Q 27.828125 65.921875 22.671875 59.328125 
Q 17.53125 52.734375 16.796875 39.40625 
Q 19.671875 43.65625 24.015625 45.921875 
Q 28.375 48.1875 33.59375 48.1875 
Q 44.578125 48.1875 50.953125 41.515625 
Q 57.328125 34.859375 57.328125 23.390625 
Q 57.328125 12.15625 50.6875 5.359375 
Q 44.046875 -1.421875 33.015625 -1.421875 
Q 20.359375 -1.421875 13.671875 8.265625 
Q 6.984375 17.96875 6.984375 36.375 
Q 6.984375 53.65625 15.1875 63.9375 
Q 23.390625 74.21875 37.203125 74.21875 
Q 40.921875 74.21875 44.703125 73.484375 
Q 48.484375 72.75 52.59375 71.296875 
z
" id="DejaVuSans-54"/>
      </defs>
      <use xlink:href="#DejaVuSans-54"/>
     </g>
    </g>
   </g>
   <g id="xtick_5">
    <g id="line2d_6">
     <path d="M 243.645962 235.032643 
L 241.928856 236.770015 
" style="fill:none;stroke:#000000;stroke-linecap:square;stroke-width:0.8;"/>
    </g>
    <g id="text_5">
     <!-- 8 -->
     <g transform="translate(232.509511 259.84323)scale(0.1 -0.1)">
      <defs>
       <path d="M 31.78125 34.625 
Q 24.75 34.625 20.71875 30.859375 
Q 16.703125 27.09375 16.703125 20.515625 
Q 16.703125 13.921875 20.71875 10.15625 
Q 24.75 6.390625 31.78125 6.390625 
Q 38.8125 6.390625 42.859375 10.171875 
Q 46.921875 13.96875 46.921875 20.515625 
Q 46.921875 27.09375 42.890625 30.859375 
Q 38.875 34.625 31.78125 34.625 
z
M 21.921875 38.8125 
Q 15.578125 40.375 12.03125 44.71875 
Q 8.5 49.078125 8.5 55.328125 
Q 8.5 64.0625 14.71875 69.140625 
Q 20.953125 74.21875 31.78125 74.21875 
Q 42.671875 74.21875 48.875 69.140625 
Q 55.078125 64.0625 55.078125 55.328125 
Q 55.078125 49.078125 51.53125 44.71875 
Q 48 40.375 41.703125 38.8125 
Q 48.828125 37.15625 52.796875 32.3125 
Q 56.78125 27.484375 56.78125 20.515625 
Q 56.78125 9.90625 50.3125 4.234375 
Q 43.84375 -1.421875 31.78125 -1.421875 
Q 19.734375 -1.421875 13.25 4.234375 
Q 6.78125 9.90625 6.78125 20.515625 
Q 6.78125 27.484375 10.78125 32.3125 
Q 14.796875 37.15625 21.921875 38.8125 
z
M 18.3125 54.390625 
Q 18.3125 48.734375 21.84375 45.5625 
Q 25.390625 42.390625 31.78125 42.390625 
Q 38.140625 42.390625 41.71875 45.5625 
Q 45.3125 48.734375 45.3125 54.390625 
Q 45.3125 60.0625 41.71875 63.234375 
Q 38.140625 66.40625 31.78125 66.40625 
Q 25.390625 66.40625 21.84375 63.234375 
Q 18.3125 60.0625 18.3125 54.390625 
z
" id="DejaVuSans-56"/>
      </defs>
      <use xlink:href="#DejaVuSans-56"/>
     </g>
    </g>
   </g>
  </g>
  <g id="axis3d_2">
   <g id="line2d_7">
    <path d="M 316.12668 171.68791 
L 251.239879 238.27773 
" style="fill:none;stroke:#000000;stroke-linecap:square;stroke-width:0.8;"/>
   </g>
   <g id="Line3DCollection_2">
    <path d="M 129.866948 102.505071 
L 134.046245 194.238731 
L 255.729543 233.67023 
" style="fill:none;stroke:#b0b0b0;stroke-width:0.8;"/>
    <path d="M 147.250212 89.819556 
L 150.59591 180.366474 
L 270.72626 218.279909 
" style="fill:none;stroke:#b0b0b0;stroke-width:0.8;"/>
    <path d="M 163.958537 77.626582 
L 166.530371 167.009893 
L 285.136664 203.491289 
" style="fill:none;stroke:#b0b0b0;stroke-width:0.8;"/>
    <path d="M 180.030483 65.898008 
L 181.883306 154.140758 
L 298.994481 189.269761 
" style="fill:none;stroke:#b0b0b0;stroke-width:0.8;"/>
    <path d="M 195.501727 54.607799 
L 196.68598 141.732864 
L 312.330896 175.583317 
" style="fill:none;stroke:#b0b0b0;stroke-width:0.8;"/>
   </g>
   <g id="xtick_6">
    <g id="line2d_8">
     <path d="M 254.704115 233.337939 
L 257.783053 234.33567 
" style="fill:none;stroke:#000000;stroke-linecap:square;stroke-width:0.8;"/>
    </g>
    <g id="text_6">
     <!-- 0 -->
     <g transform="translate(265.430654 254.693759)scale(0.1 -0.1)">
      <use xlink:href="#DejaVuSans-48"/>
     </g>
    </g>
   </g>
   <g id="xtick_7">
    <g id="line2d_9">
     <path d="M 269.71494 217.960734 
L 272.751463 218.919068 
" style="fill:none;stroke:#000000;stroke-linecap:square;stroke-width:0.8;"/>
    </g>
    <g id="text_7">
     <!-- 2 -->
     <g transform="translate(280.181112 239.024526)scale(0.1 -0.1)">
      <use xlink:href="#DejaVuSans-50"/>
     </g>
    </g>
   </g>
   <g id="xtick_8">
    <g id="line2d_10">
     <path d="M 284.139145 203.184468 
L 287.134182 204.105694 
" style="fill:none;stroke:#000000;stroke-linecap:square;stroke-width:0.8;"/>
    </g>
    <g id="text_8">
     <!-- 4 -->
     <g transform="translate(294.35448 223.968328)scale(0.1 -0.1)">
      <use xlink:href="#DejaVuSans-52"/>
     </g>
    </g>
   </g>
   <g id="xtick_9">
    <g id="line2d_11">
     <path d="M 298.010457 188.97459 
L 300.964927 189.860821 
" style="fill:none;stroke:#000000;stroke-linecap:square;stroke-width:0.8;"/>
    </g>
    <g id="text_9">
     <!-- 6 -->
     <g transform="translate(307.983974 209.489882)scale(0.1 -0.1)">
      <use xlink:href="#DejaVuSans-54"/>
     </g>
    </g>
   </g>
   <g id="xtick_10">
    <g id="line2d_12">
     <path d="M 311.360068 175.299146 
L 314.274875 176.15234 
" style="fill:none;stroke:#000000;stroke-linecap:square;stroke-width:0.8;"/>
    </g>
    <g id="text_10">
     <!-- 8 -->
     <g transform="translate(321.10031 195.556556)scale(0.1 -0.1)">
      <use xlink:href="#DejaVuSans-56"/>
     </g>
    </g>
   </g>
  </g>
  <g id="axis3d_3">
   <g id="line2d_13">
    <path d="M 316.12668 171.68791 
L 320.238571 81.894718 
" style="fill:none;stroke:#000000;stroke-linecap:square;stroke-width:0.8;"/>
   </g>
   <g id="Line3DCollection_3">
    <path d="M 316.205459 169.967571 
L 200.884845 136.530725 
L 129.013401 196.624949 
" style="fill:none;stroke:#b0b0b0;stroke-width:0.8;"/>
    <path d="M 317.297795 146.113754 
L 200.619289 113.437271 
L 127.83676 172.191231 
" style="fill:none;stroke:#b0b0b0;stroke-width:0.8;"/>
    <path d="M 318.41642 121.685847 
L 200.34765 89.814869 
L 126.630708 147.14678 
" style="fill:none;stroke:#b0b0b0;stroke-width:0.8;"/>
    <path d="M 319.562294 96.662875 
L 200.069718 65.645137 
L 125.394128 121.468408 
" style="fill:none;stroke:#b0b0b0;stroke-width:0.8;"/>
   </g>
   <g id="xtick_11">
    <g id="line2d_14">
     <path d="M 315.237563 169.686933 
L 318.143556 170.529516 
" style="fill:none;stroke:#000000;stroke-linecap:square;stroke-width:0.8;"/>
    </g>
    <g id="text_11">
     <!-- 0 -->
     <g transform="translate(331.275915 174.966846)scale(0.1 -0.1)">
      <use xlink:href="#DejaVuSans-48"/>
     </g>
    </g>
   </g>
   <g id="xtick_12">
    <g id="line2d_15">
     <path d="M 316.317956 145.839344 
L 319.259832 146.663233 
" style="fill:none;stroke:#000000;stroke-linecap:square;stroke-width:0.8;"/>
    </g>
    <g id="text_12">
     <!-- 10000 -->
     <g transform="translate(319.855408 151.170819)scale(0.1 -0.1)">
      <defs>
       <path d="M 12.40625 8.296875 
L 28.515625 8.296875 
L 28.515625 63.921875 
L 10.984375 60.40625 
L 10.984375 69.390625 
L 28.421875 72.90625 
L 38.28125 72.90625 
L 38.28125 8.296875 
L 54.390625 8.296875 
L 54.390625 0 
L 12.40625 0 
z
" id="DejaVuSans-49"/>
      </defs>
      <use xlink:href="#DejaVuSans-49"/>
      <use x="63.623047" xlink:href="#DejaVuSans-48"/>
      <use x="127.246094" xlink:href="#DejaVuSans-48"/>
      <use x="190.869141" xlink:href="#DejaVuSans-48"/>
      <use x="254.492188" xlink:href="#DejaVuSans-48"/>
     </g>
    </g>
   </g>
   <g id="xtick_13">
    <g id="line2d_16">
     <path d="M 317.424341 121.41805 
L 320.402995 122.222095 
" style="fill:none;stroke:#000000;stroke-linecap:square;stroke-width:0.8;"/>
    </g>
    <g id="text_13">
     <!-- 20000 -->
     <g transform="translate(321.191179 126.804247)scale(0.1 -0.1)">
      <use xlink:href="#DejaVuSans-50"/>
      <use x="63.623047" xlink:href="#DejaVuSans-48"/>
      <use x="127.246094" xlink:href="#DejaVuSans-48"/>
      <use x="190.869141" xlink:href="#DejaVuSans-48"/>
      <use x="254.492188" xlink:href="#DejaVuSans-48"/>
     </g>
    </g>
   </g>
   <g id="xtick_14">
    <g id="line2d_17">
     <path d="M 318.557666 96.402095 
L 321.574029 97.185079 
" style="fill:none;stroke:#000000;stroke-linecap:square;stroke-width:0.8;"/>
    </g>
    <g id="text_14">
     <!-- 30000 -->
     <g transform="translate(322.559365 101.84636)scale(0.1 -0.1)">
      <defs>
       <path d="M 40.578125 39.3125 
Q 47.65625 37.796875 51.625 33 
Q 55.609375 28.21875 55.609375 21.1875 
Q 55.609375 10.40625 48.1875 4.484375 
Q 40.765625 -1.421875 27.09375 -1.421875 
Q 22.515625 -1.421875 17.65625 -0.515625 
Q 12.796875 0.390625 7.625 2.203125 
L 7.625 11.71875 
Q 11.71875 9.328125 16.59375 8.109375 
Q 21.484375 6.890625 26.8125 6.890625 
Q 36.078125 6.890625 40.9375 10.546875 
Q 45.796875 14.203125 45.796875 21.1875 
Q 45.796875 27.640625 41.28125 31.265625 
Q 36.765625 34.90625 28.71875 34.90625 
L 20.21875 34.90625 
L 20.21875 43.015625 
L 29.109375 43.015625 
Q 36.375 43.015625 40.234375 45.921875 
Q 44.09375 48.828125 44.09375 54.296875 
Q 44.09375 59.90625 40.109375 62.90625 
Q 36.140625 65.921875 28.71875 65.921875 
Q 24.65625 65.921875 20.015625 65.03125 
Q 15.375 64.15625 9.8125 62.3125 
L 9.8125 71.09375 
Q 15.4375 72.65625 20.34375 73.4375 
Q 25.25 74.21875 29.59375 74.21875 
Q 40.828125 74.21875 47.359375 69.109375 
Q 53.90625 64.015625 53.90625 55.328125 
Q 53.90625 49.265625 50.4375 45.09375 
Q 46.96875 40.921875 40.578125 39.3125 
z
" id="DejaVuSans-51"/>
      </defs>
      <use xlink:href="#DejaVuSans-51"/>
      <use x="63.623047" xlink:href="#DejaVuSans-48"/>
      <use x="127.246094" xlink:href="#DejaVuSans-48"/>
      <use x="190.869141" xlink:href="#DejaVuSans-48"/>
      <use x="254.492188" xlink:href="#DejaVuSans-48"/>
     </g>
    </g>
   </g>
  </g>
  <g id="axes_1">
   <g id="Poly3DCollection_1">
    <path clip-path="url(#pee642bad0b)" d="M 203.700438 142.115361 
L 203.699005 141.974115 
L 215.86331 145.525275 
L 215.863902 145.66701 
z
" style="fill:#050338;"/>
    <path clip-path="url(#pee642bad0b)" d="M 196.401162 148.290596 
L 196.399204 148.148501 
L 203.699005 141.974115 
L 203.700438 142.115361 
z
" style="fill:#0b0777;"/>
    <path clip-path="url(#pee642bad0b)" d="M 196.401162 148.290596 
L 203.700438 142.115361 
L 215.863902 145.66701 
L 208.637156 151.907182 
z
" style="fill:#070448;"/>
    <path clip-path="url(#pee642bad0b)" d="M 196.399204 148.148501 
L 208.63605 151.764593 
L 215.86331 145.525275 
L 203.699005 141.974115 
z
" style="fill:#0a0667;"/>
    <path clip-path="url(#pee642bad0b)" d="M 215.863902 145.66701 
L 215.862768 145.395433 
L 228.155537 148.983415 
L 228.155024 149.255935 
z
" style="fill:#050338;"/>
    <path clip-path="url(#pee642bad0b)" d="M 208.637156 151.907182 
L 215.863902 145.66701 
L 215.86331 145.525275 
L 208.63605 151.764593 
z
" style="fill:#050338;"/>
    <path clip-path="url(#pee642bad0b)" d="M 208.637156 151.907182 
L 208.635037 151.633969 
L 215.862768 145.395433 
L 215.863902 145.66701 
z
" style="fill:#0b0777;"/>
    <path clip-path="url(#pee642bad0b)" d="M 196.401162 148.290596 
L 208.637156 151.907182 
L 208.63605 151.764593 
L 196.399204 148.148501 
z
" style="fill:#0b0777;"/>
    <path clip-path="url(#pee642bad0b)" d="M 196.401162 148.290596 
L 196.398012 148.061992 
L 208.635377 151.677783 
L 208.637156 151.907182 
z
" style="fill:#050338;"/>
    <path clip-path="url(#pee642bad0b)" d="M 208.637156 151.907182 
L 215.863902 145.66701 
L 228.155024 149.255935 
L 221.002748 155.562072 
z
" style="fill:#070448;"/>
    <path clip-path="url(#pee642bad0b)" d="M 208.635037 151.633969 
L 221.002295 155.287908 
L 228.155537 148.983415 
L 215.862768 145.395433 
z
" style="fill:#0a0667;"/>
    <path clip-path="url(#pee642bad0b)" d="M 228.155024 149.255935 
L 228.158241 147.547725 
L 240.589582 151.168569 
L 240.575825 152.882725 
z
" style="fill:#0b033b;"/>
    <path clip-path="url(#pee642bad0b)" d="M 188.96817 154.578956 
L 188.964146 154.348973 
L 196.398012 148.061992 
L 196.401162 148.290596 
z
" style="fill:#0b0777;"/>
    <path clip-path="url(#pee642bad0b)" d="M 221.002748 155.562072 
L 228.155024 149.255935 
L 228.155537 148.983415 
L 221.002295 155.287908 
z
" style="fill:#050338;"/>
    <path clip-path="url(#pee642bad0b)" d="M 221.002748 155.562072 
L 220.999911 153.843544 
L 228.158241 147.547725 
L 228.155024 149.255935 
z
" style="fill:#18057c;"/>
    <path clip-path="url(#pee642bad0b)" d="M 188.96817 154.578956 
L 196.401162 148.290596 
L 208.637156 151.907182 
L 201.27732 158.262275 
z
" style="fill:#070448;"/>
    <path clip-path="url(#pee642bad0b)" d="M 188.964146 154.348973 
L 201.274682 158.03149 
L 208.635377 151.677783 
L 196.398012 148.061992 
z
" style="fill:#0a0667;"/>
    <path clip-path="url(#pee642bad0b)" d="M 208.637156 151.907182 
L 221.002748 155.562072 
L 221.002295 155.287908 
L 208.635037 151.633969 
z
" style="fill:#0b0777;"/>
    <path clip-path="url(#pee642bad0b)" d="M 208.637156 151.907182 
L 208.632926 151.361817 
L 221.001845 155.014808 
L 221.002748 155.562072 
z
" style="fill:#070339;"/>
    <path clip-path="url(#pee642bad0b)" d="M 221.002748 155.562072 
L 228.155024 149.255935 
L 240.575825 152.882725 
L 233.500008 159.25588 
z
" style="fill:#0e034b;"/>
    <path clip-path="url(#pee642bad0b)" d="M 220.999911 153.843544 
L 233.507841 157.531353 
L 240.589582 151.168569 
L 228.158241 147.547725 
z
" style="fill:#15056c;"/>
    <path clip-path="url(#pee642bad0b)" d="M 201.27732 158.262275 
L 208.637156 151.907182 
L 208.635377 151.677783 
L 201.274682 158.03149 
z
" style="fill:#050338;"/>
    <path clip-path="url(#pee642bad0b)" d="M 201.27732 158.262275 
L 201.271049 157.713615 
L 208.632926 151.361817 
L 208.637156 151.907182 
z
" style="fill:#0e0678;"/>
    <path clip-path="url(#pee642bad0b)" d="M 233.500008 159.25588 
L 240.575825 152.882725 
L 240.589582 151.168569 
L 233.507841 157.531353 
z
" style="fill:#0b033b;"/>
    <path clip-path="url(#pee642bad0b)" d="M 240.575825 152.882725 
L 240.656575 142.821139 
L 253.272305 146.451095 
L 253.128369 156.547983 
z
" style="fill:#1f0143;"/>
    <path clip-path="url(#pee642bad0b)" d="M 188.96817 154.578956 
L 201.27732 158.262275 
L 201.274682 158.03149 
L 188.964146 154.348973 
z
" style="fill:#0b0777;"/>
    <path clip-path="url(#pee642bad0b)" d="M 188.96817 154.578956 
L 188.962688 154.265596 
L 201.273726 157.947823 
L 201.27732 158.262275 
z
" style="fill:#050338;"/>
    <path clip-path="url(#pee642bad0b)" d="M 201.27732 158.262275 
L 208.637156 151.907182 
L 221.002748 155.562072 
L 213.718049 161.984967 
z
" style="fill:#090449;"/>
    <path clip-path="url(#pee642bad0b)" d="M 201.271049 157.713615 
L 213.715145 161.434391 
L 221.001845 155.014808 
L 208.632926 151.361817 
z
" style="fill:#0c0668;"/>
    <path clip-path="url(#pee642bad0b)" d="M 221.002748 155.562072 
L 233.500008 159.25588 
L 233.507841 157.531353 
L 220.999911 153.843544 
z
" style="fill:#18057c;"/>
    <path clip-path="url(#pee642bad0b)" d="M 233.500008 159.25588 
L 233.545991 149.133034 
L 240.656575 142.821139 
L 240.575825 152.882725 
z
" style="fill:#42028e;"/>
    <path clip-path="url(#pee642bad0b)" d="M 181.397755 160.983577 
L 181.391037 160.668322 
L 188.962688 154.265596 
L 188.96817 154.578956 
z
" style="fill:#0b0777;"/>
    <path clip-path="url(#pee642bad0b)" d="M 233.500008 159.25588 
L 240.575825 152.882725 
L 253.128369 156.547983 
L 246.131049 162.989229 
z
" style="fill:#280156;"/>
    <path clip-path="url(#pee642bad0b)" d="M 221.002748 155.562072 
L 220.990689 148.257216 
L 233.533306 151.925417 
L 233.500008 159.25588 
z
" style="fill:#190241;"/>
    <path clip-path="url(#pee642bad0b)" d="M 213.718049 161.984967 
L 221.002748 155.562072 
L 221.001845 155.014808 
L 213.715145 161.434391 
z
" style="fill:#070339;"/>
    <path clip-path="url(#pee642bad0b)" d="M 181.397755 160.983577 
L 188.96817 154.578956 
L 201.27732 158.262275 
L 193.780682 164.735494 
z
" style="fill:#070448;"/>
    <path clip-path="url(#pee642bad0b)" d="M 181.391037 160.668322 
L 193.775876 164.419137 
L 201.273726 157.947823 
L 188.962688 154.265596 
z
" style="fill:#0a0667;"/>
    <path clip-path="url(#pee642bad0b)" d="M 253.128369 156.547983 
L 253.256726 147.54395 
L 266.00067 151.216674 
L 265.814761 160.252323 
z
" style="fill:#1c0142;"/>
    <path clip-path="url(#pee642bad0b)" d="M 213.718049 161.984967 
L 213.679296 154.635676 
L 220.990689 148.257216 
L 221.002748 155.562072 
z
" style="fill:#350389;"/>
    <path clip-path="url(#pee642bad0b)" d="M 201.27732 158.262275 
L 213.718049 161.984967 
L 213.715145 161.434391 
L 201.271049 157.713615 
z
" style="fill:#0e0678;"/>
    <path clip-path="url(#pee642bad0b)" d="M 201.27732 158.262275 
L 201.259485 156.701702 
L 213.709791 160.418941 
L 213.718049 161.984967 
z
" style="fill:#0a033a;"/>
    <path clip-path="url(#pee642bad0b)" d="M 213.718049 161.984967 
L 221.002748 155.562072 
L 233.500008 159.25588 
L 226.292478 165.747667 
z
" style="fill:#200253;"/>
    <path clip-path="url(#pee642bad0b)" d="M 246.131049 162.989229 
L 246.229114 153.930332 
L 253.256726 147.54395 
L 253.128369 156.547983 
z
" style="fill:#3c038c;"/>
    <path clip-path="url(#pee642bad0b)" d="M 233.545991 149.133034 
L 246.241017 152.830767 
L 253.272305 146.451095 
L 240.656575 142.821139 
z
" style="fill:#39027b;"/>
    <path clip-path="url(#pee642bad0b)" d="M 246.131049 162.989229 
L 253.128369 156.547983 
L 253.272305 146.451095 
L 246.241017 152.830767 
z
" style="fill:#1f0143;"/>
    <path clip-path="url(#pee642bad0b)" d="M 193.780682 164.735494 
L 201.27732 158.262275 
L 201.273726 157.947823 
L 193.775876 164.419137 
z
" style="fill:#050338;"/>
    <path clip-path="url(#pee642bad0b)" d="M 246.131049 162.989229 
L 253.128369 156.547983 
L 265.814761 160.252323 
L 258.898031 166.762758 
z
" style="fill:#240254;"/>
    <path clip-path="url(#pee642bad0b)" d="M 193.780682 164.735494 
L 193.756829 163.165459 
L 201.259485 156.701702 
L 201.27732 158.262275 
z
" style="fill:#16067b;"/>
    <path clip-path="url(#pee642bad0b)" d="M 233.500008 159.25588 
L 246.131049 162.989229 
L 246.241017 152.830767 
L 233.545991 149.133034 
z
" style="fill:#42028e;"/>
    <path clip-path="url(#pee642bad0b)" d="M 181.397755 160.983577 
L 193.780682 164.735494 
L 193.775876 164.419137 
L 181.391037 160.668322 
z
" style="fill:#0b0777;"/>
    <path clip-path="url(#pee642bad0b)" d="M 181.397755 160.983577 
L 181.385779 160.421567 
L 193.772114 164.17152 
L 193.780682 164.735494 
z
" style="fill:#070339;"/>
    <path clip-path="url(#pee642bad0b)" d="M 213.679296 154.635676 
L 226.299647 158.372543 
L 233.533306 151.925417 
L 220.990689 148.257216 
z
" style="fill:#2e0377;"/>
    <path clip-path="url(#pee642bad0b)" d="M 193.780682 164.735494 
L 201.27732 158.262275 
L 213.718049 161.984967 
L 206.297214 168.527892 
z
" style="fill:#0d034a;"/>
    <path clip-path="url(#pee642bad0b)" d="M 265.814761 160.252323 
L 266.007166 150.90094 
L 278.890398 154.612095 
L 278.637155 163.996376 
z
" style="fill:#1d0142;"/>
    <path clip-path="url(#pee642bad0b)" d="M 226.292478 165.747667 
L 233.500008 159.25588 
L 233.533306 151.925417 
L 226.299647 158.372543 
z
" style="fill:#190241;"/>
    <path clip-path="url(#pee642bad0b)" d="M 193.756829 163.165459 
L 206.283055 166.952357 
L 213.709791 160.418941 
L 201.259485 156.701702 
z
" style="fill:#13056b;"/>
    <path clip-path="url(#pee642bad0b)" d="M 173.686069 167.507715 
L 173.67181 166.942296 
L 181.385779 160.421567 
L 181.397755 160.983577 
z
" style="fill:#0e0678;"/>
    <path clip-path="url(#pee642bad0b)" d="M 226.292478 165.747667 
L 233.500008 159.25588 
L 246.131049 162.989229 
L 239.002775 169.551023 
z
" style="fill:#4e0857;"/>
    <path clip-path="url(#pee642bad0b)" d="M 246.229114 153.930332 
L 259.054388 157.671965 
L 266.00067 151.216674 
L 253.256726 147.54395 
z
" style="fill:#340279;"/>
    <path clip-path="url(#pee642bad0b)" d="M 258.898031 166.762758 
L 265.814761 160.252323 
L 266.00067 151.216674 
L 259.054388 157.671965 
z
" style="fill:#1c0142;"/>
    <path clip-path="url(#pee642bad0b)" d="M 258.898031 166.762758 
L 259.059852 157.35429 
L 266.007166 150.90094 
L 265.814761 160.252323 
z
" style="fill:#3e038c;"/>
    <path clip-path="url(#pee642bad0b)" d="M 213.718049 161.984967 
L 226.292478 165.747667 
L 226.299647 158.372543 
L 213.679296 154.635676 
z
" style="fill:#350389;"/>
    <path clip-path="url(#pee642bad0b)" d="M 258.898031 166.762758 
L 265.814761 160.252323 
L 278.637155 163.996376 
L 271.803162 170.57712 
z
" style="fill:#250255;"/>
    <path clip-path="url(#pee642bad0b)" d="M 206.297214 168.527892 
L 213.718049 161.984967 
L 213.709791 160.418941 
L 206.283055 166.952357 
z
" style="fill:#0a033a;"/>
    <path clip-path="url(#pee642bad0b)" d="M 233.500008 159.25588 
L 233.615888 133.745841 
L 246.408186 137.388389 
L 246.131049 162.989229 
z
" style="fill:#3d0644;"/>
    <path clip-path="url(#pee642bad0b)" d="M 173.686069 167.507715 
L 181.397755 160.983577 
L 193.780682 164.735494 
L 186.143392 171.330164 
z
" style="fill:#090449;"/>
    <path clip-path="url(#pee642bad0b)" d="M 278.637155 163.996376 
L 278.681126 162.366965 
L 291.652509 166.145664 
L 291.597749 167.780781 
z
" style="fill:#0a033a;"/>
    <path clip-path="url(#pee642bad0b)" d="M 173.67181 166.942296 
L 186.132582 170.762763 
L 193.772114 164.17152 
L 181.385779 160.421567 
z
" style="fill:#0c0668;"/>
    <path clip-path="url(#pee642bad0b)" d="M 246.131049 162.989229 
L 258.898031 166.762758 
L 259.054388 157.671965 
L 246.229114 153.930332 
z
" style="fill:#3c038c;"/>
    <path clip-path="url(#pee642bad0b)" d="M 193.780682 164.735494 
L 206.297214 168.527892 
L 206.283055 166.952357 
L 193.756829 163.165459 
z
" style="fill:#16067b;"/>
    <path clip-path="url(#pee642bad0b)" d="M 213.718049 161.984967 
L 213.625426 144.419293 
L 226.309612 148.119769 
L 226.292478 165.747667 
z
" style="fill:#2e0046;"/>
    <path clip-path="url(#pee642bad0b)" d="M 226.292478 165.747667 
L 226.317427 140.080055 
L 233.615888 133.745841 
L 233.500008 159.25588 
z
" style="fill:#810e90;"/>
    <path clip-path="url(#pee642bad0b)" d="M 206.297214 168.527892 
L 213.718049 161.984967 
L 226.292478 165.747667 
L 218.949524 172.361429 
z
" style="fill:#3b005a;"/>
    <path clip-path="url(#pee642bad0b)" d="M 193.780682 164.735494 
L 193.735047 161.731698 
L 206.270125 165.513561 
L 206.297214 168.527892 
z
" style="fill:#0f023c;"/>
    <path clip-path="url(#pee642bad0b)" d="M 271.803162 170.57712 
L 271.84196 168.937807 
L 278.681126 162.366965 
L 278.637155 163.996376 
z
" style="fill:#16067b;"/>
    <path clip-path="url(#pee642bad0b)" d="M 186.143392 171.330164 
L 193.780682 164.735494 
L 193.772114 164.17152 
L 186.132582 170.762763 
z
" style="fill:#070339;"/>
    <path clip-path="url(#pee642bad0b)" d="M 239.002775 169.551023 
L 246.131049 162.989229 
L 258.898031 166.762758 
L 251.851153 173.395697 
z
" style="fill:#4c0658;"/>
    <path clip-path="url(#pee642bad0b)" d="M 206.297214 168.527892 
L 206.138389 150.854241 
L 213.625426 144.419293 
L 213.718049 161.984967 
z
" style="fill:#620095;"/>
    <path clip-path="url(#pee642bad0b)" d="M 186.143392 171.330164 
L 186.085816 168.308087 
L 193.735047 161.731698 
L 193.780682 164.735494 
z
" style="fill:#200580;"/>
    <path clip-path="url(#pee642bad0b)" d="M 259.059852 157.35429 
L 272.026617 161.135466 
L 278.890398 154.612095 
L 266.007166 150.90094 
z
" style="fill:#36027a;"/>
    <path clip-path="url(#pee642bad0b)" d="M 271.803162 170.57712 
L 278.637155 163.996376 
L 278.890398 154.612095 
L 272.026617 161.135466 
z
" style="fill:#1d0142;"/>
    <path clip-path="url(#pee642bad0b)" d="M 271.803162 170.57712 
L 278.637155 163.996376 
L 291.597749 167.780781 
L 284.848695 174.43298 
z
" style="fill:#0d034a;"/>
    <path clip-path="url(#pee642bad0b)" d="M 246.131049 162.989229 
L 246.398743 138.260733 
L 259.324863 141.946154 
L 258.898031 166.762758 
z
" style="fill:#3b0544;"/>
    <path clip-path="url(#pee642bad0b)" d="M 173.686069 167.507715 
L 186.143392 171.330164 
L 186.132582 170.762763 
L 173.67181 166.942296 
z
" style="fill:#0e0678;"/>
    <path clip-path="url(#pee642bad0b)" d="M 173.686069 167.507715 
L 173.661799 166.545291 
L 186.124992 170.364366 
L 186.143392 171.330164 
z
" style="fill:#080339;"/>
    <path clip-path="url(#pee642bad0b)" d="M 291.597749 167.780781 
L 291.601127 167.679921 
L 304.702847 171.504983 
L 304.698789 171.606197 
z
" style="fill:#050338;"/>
    <path clip-path="url(#pee642bad0b)" d="M 271.84196 168.937807 
L 284.898425 172.787911 
L 291.652509 166.145664 
L 278.681126 162.366965 
z
" style="fill:#13056b;"/>
    <path clip-path="url(#pee642bad0b)" d="M 186.143392 171.330164 
L 193.780682 164.735494 
L 206.297214 168.527892 
L 198.736391 175.194243 
z
" style="fill:#13034d;"/>
    <path clip-path="url(#pee642bad0b)" d="M 258.898031 166.762758 
L 271.803162 170.57712 
L 272.026617 161.135466 
L 259.059852 157.35429 
z
" style="fill:#3e038c;"/>
    <path clip-path="url(#pee642bad0b)" d="M 239.002775 169.551023 
L 239.184614 144.669628 
L 246.398743 138.260733 
L 246.131049 162.989229 
z
" style="fill:#7e0b91;"/>
    <path clip-path="url(#pee642bad0b)" d="M 239.002775 169.551023 
L 246.131049 162.989229 
L 246.408186 137.388389 
L 239.191029 143.791786 
z
" style="fill:#3d0644;"/>
    <path clip-path="url(#pee642bad0b)" d="M 218.949524 172.361429 
L 226.292478 165.747667 
L 239.002775 169.551023 
L 231.739835 176.23678 
z
" style="fill:#6e273f;"/>
    <path clip-path="url(#pee642bad0b)" d="M 165.82912 174.154745 
L 165.800822 173.186467 
L 173.661799 166.545291 
L 173.686069 167.507715 
z
" style="fill:#110679;"/>
    <path clip-path="url(#pee642bad0b)" d="M 186.085816 168.308087 
L 198.697587 172.161542 
L 206.270125 165.513561 
L 193.735047 161.731698 
z
" style="fill:#1b046f;"/>
    <path clip-path="url(#pee642bad0b)" d="M 284.848695 174.43298 
L 284.851763 174.331507 
L 291.601127 167.679921 
L 291.597749 167.780781 
z
" style="fill:#0b0777;"/>
    <path clip-path="url(#pee642bad0b)" d="M 284.848695 174.43298 
L 291.597749 167.780781 
L 291.652509 166.145664 
L 284.898425 172.787911 
z
" style="fill:#0a033a;"/>
    <path clip-path="url(#pee642bad0b)" d="M 251.851153 173.395697 
L 258.898031 166.762758 
L 271.803162 170.57712 
L 264.839875 177.282368 
z
" style="fill:#470359;"/>
    <path clip-path="url(#pee642bad0b)" d="M 226.292478 165.747667 
L 239.002775 169.551023 
L 239.191029 143.791786 
L 226.317427 140.080055 
z
" style="fill:#810e90;"/>
    <path clip-path="url(#pee642bad0b)" d="M 218.949524 172.361429 
L 226.292478 165.747667 
L 226.309612 148.119769 
L 218.901824 154.625001 
z
" style="fill:#2e0046;"/>
    <path clip-path="url(#pee642bad0b)" d="M 198.736391 175.194243 
L 206.297214 168.527892 
L 206.270125 165.513561 
L 198.697587 172.161542 
z
" style="fill:#0f023c;"/>
    <path clip-path="url(#pee642bad0b)" d="M 258.898031 166.762758 
L 259.289922 143.977699 
L 272.344336 147.710869 
L 271.803162 170.57712 
z
" style="fill:#380345;"/>
    <path clip-path="url(#pee642bad0b)" d="M 165.82912 174.154745 
L 173.686069 167.507715 
L 186.143392 171.330164 
L 178.361455 178.049733 
z
" style="fill:#0a0449;"/>
    <path clip-path="url(#pee642bad0b)" d="M 271.803162 170.57712 
L 284.848695 174.43298 
L 284.898425 172.787911 
L 271.84196 168.937807 
z
" style="fill:#16067b;"/>
    <path clip-path="url(#pee642bad0b)" d="M 271.803162 170.57712 
L 271.855159 168.380106 
L 284.915344 172.228249 
L 284.848695 174.43298 
z
" style="fill:#0c033b;"/>
    <path clip-path="url(#pee642bad0b)" d="M 284.848695 174.43298 
L 291.597749 167.780781 
L 304.698789 171.606197 
L 298.036935 178.33102 
z
" style="fill:#070448;"/>
    <path clip-path="url(#pee642bad0b)" d="M 284.851763 174.331507 
L 298.040691 178.22919 
L 304.702847 171.504983 
L 291.601127 167.679921 
z
" style="fill:#0a0667;"/>
    <path clip-path="url(#pee642bad0b)" d="M 165.800822 173.186467 
L 178.339096 177.078054 
L 186.124992 170.364366 
L 173.661799 166.545291 
z
" style="fill:#0f0569;"/>
    <path clip-path="url(#pee642bad0b)" d="M 226.317427 140.080055 
L 239.191029 143.791786 
L 246.408186 137.388389 
L 233.615888 133.745841 
z
" style="fill:#700c7d;"/>
    <path clip-path="url(#pee642bad0b)" d="M 206.138389 150.854241 
L 218.901824 154.625001 
L 226.309612 148.119769 
L 213.625426 144.419293 
z
" style="fill:#550081;"/>
    <path clip-path="url(#pee642bad0b)" d="M 206.297214 168.527892 
L 218.949524 172.361429 
L 218.901824 154.625001 
L 206.138389 150.854241 
z
" style="fill:#620095;"/>
    <path clip-path="url(#pee642bad0b)" d="M 198.736391 175.194243 
L 206.297214 168.527892 
L 218.949524 172.361429 
L 211.467294 179.100638 
z
" style="fill:#5d154e;"/>
    <path clip-path="url(#pee642bad0b)" d="M 186.143392 171.330164 
L 198.736391 175.194243 
L 198.697587 172.161542 
L 186.085816 168.308087 
z
" style="fill:#200580;"/>
    <path clip-path="url(#pee642bad0b)" d="M 251.851153 173.395697 
L 252.166104 150.469746 
L 259.289922 143.977699 
L 258.898031 166.762758 
z
" style="fill:#760693;"/>
    <path clip-path="url(#pee642bad0b)" d="M 186.143392 171.330164 
L 186.043976 166.112003 
L 198.669389 169.957705 
L 198.736391 175.194243 
z
" style="fill:#14023e;"/>
    <path clip-path="url(#pee642bad0b)" d="M 264.839875 177.282368 
L 264.884663 175.071963 
L 271.855159 168.380106 
L 271.803162 170.57712 
z
" style="fill:#1a057d;"/>
    <path clip-path="url(#pee642bad0b)" d="M 251.851153 173.395697 
L 258.898031 166.762758 
L 259.324863 141.946154 
L 252.194188 148.425402 
z
" style="fill:#3b0544;"/>
    <path clip-path="url(#pee642bad0b)" d="M 231.739835 176.23678 
L 239.002775 169.551023 
L 251.851153 173.395697 
L 244.670417 180.154631 
z
" style="fill:#6d2640;"/>
    <path clip-path="url(#pee642bad0b)" d="M 178.361455 178.049733 
L 186.143392 171.330164 
L 186.124992 170.364366 
L 178.339096 177.078054 
z
" style="fill:#080339;"/>
    <path clip-path="url(#pee642bad0b)" d="M 298.036935 178.33102 
L 304.698789 171.606197 
L 304.702847 171.504983 
L 298.040691 178.22919 
z
" style="fill:#050338;"/>
    <path clip-path="url(#pee642bad0b)" d="M 226.292478 165.747667 
L 226.334255 122.767899 
L 239.318017 126.415825 
L 239.002775 169.551023 
z
" style="fill:#561f31;"/>
    <path clip-path="url(#pee642bad0b)" d="M 178.361455 178.049733 
L 178.240648 172.799685 
L 186.043976 166.112003 
L 186.143392 171.330164 
z
" style="fill:#2a0484;"/>
    <path clip-path="url(#pee642bad0b)" d="M 264.839875 177.282368 
L 271.803162 170.57712 
L 284.848695 174.43298 
L 277.971253 181.211726 
z
" style="fill:#10034c;"/>
    <path clip-path="url(#pee642bad0b)" d="M 239.002775 169.551023 
L 251.851153 173.395697 
L 252.194188 148.425402 
L 239.184614 144.669628 
z
" style="fill:#7e0b91;"/>
    <path clip-path="url(#pee642bad0b)" d="M 165.82912 174.154745 
L 178.361455 178.049733 
L 178.339096 177.078054 
L 165.800822 173.186467 
z
" style="fill:#110679;"/>
    <path clip-path="url(#pee642bad0b)" d="M 206.297214 168.527892 
L 206.000631 135.524802 
L 218.860447 139.239741 
L 218.949524 172.361429 
z
" style="fill:#49113d;"/>
    <path clip-path="url(#pee642bad0b)" d="M 165.82912 174.154745 
L 165.781104 172.511827 
L 178.323518 176.40104 
L 178.361455 178.049733 
z
" style="fill:#0a033a;"/>
    <path clip-path="url(#pee642bad0b)" d="M 284.848695 174.43298 
L 298.036935 178.33102 
L 298.040691 178.22919 
L 284.851763 174.331507 
z
" style="fill:#0b0777;"/>
    <path clip-path="url(#pee642bad0b)" d="M 284.848695 174.43298 
L 284.85376 174.265425 
L 298.043137 178.162876 
L 298.036935 178.33102 
z
" style="fill:#050338;"/>
    <path clip-path="url(#pee642bad0b)" d="M 178.361455 178.049733 
L 186.143392 171.330164 
L 198.736391 175.194243 
L 191.031582 181.987547 
z
" style="fill:#190350;"/>
    <path clip-path="url(#pee642bad0b)" d="M 218.949524 172.361429 
L 218.83321 129.111921 
L 226.334255 122.767899 
L 226.292478 165.747667 
z
" style="fill:#b54168;"/>
    <path clip-path="url(#pee642bad0b)" d="M 264.884663 175.071963 
L 278.030889 178.993538 
L 284.915344 172.228249 
L 271.855159 168.380106 
z
" style="fill:#17056d;"/>
    <path clip-path="url(#pee642bad0b)" d="M 239.184614 144.669628 
L 252.194188 148.425402 
L 259.324863 141.946154 
L 246.398743 138.260733 
z
" style="fill:#6d097e;"/>
    <path clip-path="url(#pee642bad0b)" d="M 211.467294 179.100638 
L 218.949524 172.361429 
L 231.739835 176.23678 
L 224.338378 183.050047 
z
" style="fill:#814728;"/>
    <path clip-path="url(#pee642bad0b)" d="M 198.736391 175.194243 
L 198.311479 141.985341 
L 206.000631 135.524802 
L 206.297214 168.527892 
z
" style="fill:#9a2381;"/>
    <path clip-path="url(#pee642bad0b)" d="M 157.822766 180.928173 
L 157.767661 179.275234 
L 165.781104 172.511827 
L 165.82912 174.154745 
z
" style="fill:#16067b;"/>
    <path clip-path="url(#pee642bad0b)" d="M 277.971253 181.211726 
L 277.975785 181.043149 
L 284.85376 174.265425 
L 284.848695 174.43298 
z
" style="fill:#0b0777;"/>
    <path clip-path="url(#pee642bad0b)" d="M 264.839875 177.282368 
L 271.803162 170.57712 
L 272.344336 147.710869 
L 265.306075 154.274502 
z
" style="fill:#380345;"/>
    <path clip-path="url(#pee642bad0b)" d="M 277.971253 181.211726 
L 284.848695 174.43298 
L 284.915344 172.228249 
L 278.030889 178.993538 
z
" style="fill:#0c033b;"/>
    <path clip-path="url(#pee642bad0b)" d="M 178.240648 172.799685 
L 190.943584 176.718964 
L 198.669389 169.957705 
L 186.043976 166.112003 
z
" style="fill:#240473;"/>
    <path clip-path="url(#pee642bad0b)" d="M 244.670417 180.154631 
L 251.851153 173.395697 
L 264.839875 177.282368 
L 257.743589 184.115686 
z
" style="fill:#5f184c;"/>
    <path clip-path="url(#pee642bad0b)" d="M 239.002775 169.551023 
L 239.313522 127.030846 
L 252.437399 130.721558 
L 251.851153 173.395697 
z
" style="fill:#551e32;"/>
    <path clip-path="url(#pee642bad0b)" d="M 251.851153 173.395697 
L 264.839875 177.282368 
L 265.306075 154.274502 
L 252.166104 150.469746 
z
" style="fill:#760693;"/>
    <path clip-path="url(#pee642bad0b)" d="M 157.822766 180.928173 
L 165.82912 174.154745 
L 178.361455 178.049733 
L 170.430723 184.897786 
z
" style="fill:#0d034a;"/>
    <path clip-path="url(#pee642bad0b)" d="M 191.031582 181.987547 
L 198.736391 175.194243 
L 198.669389 169.957705 
L 190.943584 176.718964 
z
" style="fill:#14023e;"/>
    <path clip-path="url(#pee642bad0b)" d="M 264.839875 177.282368 
L 264.878192 175.39133 
L 278.022272 179.314031 
L 277.971253 181.211726 
z
" style="fill:#0b033b;"/>
    <path clip-path="url(#pee642bad0b)" d="M 264.839875 177.282368 
L 277.971253 181.211726 
L 278.030889 178.993538 
L 264.884663 175.071963 
z
" style="fill:#1a057d;"/>
    <path clip-path="url(#pee642bad0b)" d="M 277.971253 181.211726 
L 284.848695 174.43298 
L 298.036935 178.33102 
L 291.24765 185.184478 
z
" style="fill:#070448;"/>
    <path clip-path="url(#pee642bad0b)" d="M 277.975785 181.043149 
L 291.253336 185.015308 
L 298.043137 178.162876 
L 284.85376 174.265425 
z
" style="fill:#0a0667;"/>
    <path clip-path="url(#pee642bad0b)" d="M 157.767661 179.275234 
L 170.385815 183.239022 
L 178.323518 176.40104 
L 165.781104 172.511827 
z
" style="fill:#13056b;"/>
    <path clip-path="url(#pee642bad0b)" d="M 252.166104 150.469746 
L 265.306075 154.274502 
L 272.344336 147.710869 
L 259.289922 143.977699 
z
" style="fill:#660580;"/>
    <path clip-path="url(#pee642bad0b)" d="M 231.739835 176.23678 
L 231.89819 133.449413 
L 239.313522 127.030846 
L 239.002775 169.551023 
z
" style="fill:#b43f6a;"/>
    <path clip-path="url(#pee642bad0b)" d="M 191.031582 181.987547 
L 198.736391 175.194243 
L 211.467294 179.100638 
L 203.841786 185.968896 
z
" style="fill:#763336;"/>
    <path clip-path="url(#pee642bad0b)" d="M 231.739835 176.23678 
L 239.002775 169.551023 
L 239.318017 126.415825 
L 231.900481 132.830401 
z
" style="fill:#561f31;"/>
    <path clip-path="url(#pee642bad0b)" d="M 178.361455 178.049733 
L 191.031582 181.987547 
L 190.943584 176.718964 
L 178.240648 172.799685 
z
" style="fill:#2a0484;"/>
    <path clip-path="url(#pee642bad0b)" d="M 257.743589 184.115686 
L 257.775495 182.213098 
L 264.878192 175.39133 
L 264.839875 177.282368 
z
" style="fill:#18057c;"/>
    <path clip-path="url(#pee642bad0b)" d="M 251.851153 173.395697 
L 252.323823 138.98898 
L 265.539558 142.751635 
L 264.839875 177.282368 
z
" style="fill:#4b123b;"/>
    <path clip-path="url(#pee642bad0b)" d="M 224.338378 183.050047 
L 231.739835 176.23678 
L 244.670417 180.154631 
L 237.351973 187.043183 
z
" style="fill:#80442a;"/>
    <path clip-path="url(#pee642bad0b)" d="M 211.467294 179.100638 
L 218.949524 172.361429 
L 218.860447 139.239741 
L 211.252485 145.772063 
z
" style="fill:#49113d;"/>
    <path clip-path="url(#pee642bad0b)" d="M 170.430723 184.897786 
L 178.361455 178.049733 
L 178.323518 176.40104 
L 170.385815 183.239022 
z
" style="fill:#0a033a;"/>
    <path clip-path="url(#pee642bad0b)" d="M 291.24765 185.184478 
L 298.036935 178.33102 
L 298.043137 178.162876 
L 291.253336 185.015308 
z
" style="fill:#050338;"/>
    <path clip-path="url(#pee642bad0b)" d="M 178.361455 178.049733 
L 178.123914 167.726698 
L 190.858551 171.627924 
L 191.031582 181.987547 
z
" style="fill:#1f0143;"/>
    <path clip-path="url(#pee642bad0b)" d="M 218.949524 172.361429 
L 231.739835 176.23678 
L 231.900481 132.830401 
L 218.83321 129.111921 
z
" style="fill:#b54168;"/>
    <path clip-path="url(#pee642bad0b)" d="M 257.743589 184.115686 
L 264.839875 177.282368 
L 277.971253 181.211726 
L 270.961723 188.120663 
z
" style="fill:#0e034b;"/>
    <path clip-path="url(#pee642bad0b)" d="M 244.670417 180.154631 
L 245.023097 145.532704 
L 252.323823 138.98898 
L 251.851153 173.395697 
z
" style="fill:#9e277e;"/>
    <path clip-path="url(#pee642bad0b)" d="M 198.736391 175.194243 
L 211.467294 179.100638 
L 211.252485 145.772063 
L 198.311479 141.985341 
z
" style="fill:#9a2381;"/>
    <path clip-path="url(#pee642bad0b)" d="M 157.822766 180.928173 
L 170.430723 184.897786 
L 170.385815 183.239022 
L 157.767661 179.275234 
z
" style="fill:#16067b;"/>
    <path clip-path="url(#pee642bad0b)" d="M 277.971253 181.211726 
L 291.24765 185.184478 
L 291.253336 185.015308 
L 277.975785 181.043149 
z
" style="fill:#0b0777;"/>
    <path clip-path="url(#pee642bad0b)" d="M 277.971253 181.211726 
L 277.977417 180.982466 
L 291.255382 184.954412 
L 291.24765 185.184478 
z
" style="fill:#050338;"/>
    <path clip-path="url(#pee642bad0b)" d="M 157.822766 180.928173 
L 157.758763 179.008335 
L 170.378564 182.971182 
L 170.430723 184.897786 
z
" style="fill:#0b033b;"/>
    <path clip-path="url(#pee642bad0b)" d="M 170.430723 184.897786 
L 170.14953 174.511265 
L 178.123914 167.726698 
L 178.361455 178.049733 
z
" style="fill:#42028e;"/>
    <path clip-path="url(#pee642bad0b)" d="M 257.775495 182.213098 
L 271.006501 186.211363 
L 278.022272 179.314031 
L 264.878192 175.39133 
z
" style="fill:#15056c;"/>
    <path clip-path="url(#pee642bad0b)" d="M 170.430723 184.897786 
L 178.361455 178.049733 
L 191.031582 181.987547 
L 183.178635 188.911464 
z
" style="fill:#280156;"/>
    <path clip-path="url(#pee642bad0b)" d="M 244.670417 180.154631 
L 251.851153 173.395697 
L 252.437399 130.721558 
L 245.107858 137.211886 
z
" style="fill:#551e32;"/>
    <path clip-path="url(#pee642bad0b)" d="M 203.841786 185.968896 
L 211.467294 179.100638 
L 224.338378 183.050047 
L 216.794403 189.994506 
z
" style="fill:#875e1a;"/>
    <path clip-path="url(#pee642bad0b)" d="M 270.961723 188.120663 
L 270.967133 187.890003 
L 277.977417 180.982466 
L 277.971253 181.211726 
z
" style="fill:#0b0777;"/>
    <path clip-path="url(#pee642bad0b)" d="M 149.662704 187.831639 
L 149.590158 185.900062 
L 157.758763 179.008335 
L 157.822766 180.928173 
z
" style="fill:#18057c;"/>
    <path clip-path="url(#pee642bad0b)" d="M 270.961723 188.120663 
L 277.971253 181.211726 
L 278.022272 179.314031 
L 271.006501 186.211363 
z
" style="fill:#0b033b;"/>
    <path clip-path="url(#pee642bad0b)" d="M 218.949524 172.361429 
L 218.787484 112.109486 
L 231.963645 115.763498 
L 231.739835 176.23678 
z
" style="fill:#65381f;"/>
    <path clip-path="url(#pee642bad0b)" d="M 198.311479 141.985341 
L 211.252485 145.772063 
L 218.860447 139.239741 
L 206.000631 135.524802 
z
" style="fill:#861f70;"/>
    <path clip-path="url(#pee642bad0b)" d="M 237.351973 187.043183 
L 244.670417 180.154631 
L 257.743589 184.115686 
L 250.510457 191.080779 
z
" style="fill:#682144;"/>
    <path clip-path="url(#pee642bad0b)" d="M 231.739835 176.23678 
L 244.670417 180.154631 
L 245.107858 137.211886 
L 231.89819 133.449413 
z
" style="fill:#b43f6a;"/>
    <path clip-path="url(#pee642bad0b)" d="M 198.736391 175.194243 
L 198.098313 125.325393 
L 211.144707 129.049797 
L 211.467294 179.100638 
z
" style="fill:#5c282a;"/>
    <path clip-path="url(#pee642bad0b)" d="M 218.83321 129.111921 
L 231.900481 132.830401 
L 239.318017 126.415825 
L 226.334255 122.767899 
z
" style="fill:#9d395a;"/>
    <path clip-path="url(#pee642bad0b)" d="M 149.662704 187.831639 
L 157.822766 180.928173 
L 170.430723 184.897786 
L 162.346885 191.878042 
z
" style="fill:#0e034b;"/>
    <path clip-path="url(#pee642bad0b)" d="M 257.743589 184.115686 
L 270.961723 188.120663 
L 271.006501 186.211363 
L 257.775495 182.213098 
z
" style="fill:#18057c;"/>
    <path clip-path="url(#pee642bad0b)" d="M 257.743589 184.115686 
L 257.778331 182.043985 
L 271.010481 186.041652 
L 270.961723 188.120663 
z
" style="fill:#0c033b;"/>
    <path clip-path="url(#pee642bad0b)" d="M 211.467294 179.100638 
L 211.076484 118.464559 
L 218.787484 112.109486 
L 218.949524 172.361429 
z
" style="fill:#d67642;"/>
    <path clip-path="url(#pee642bad0b)" d="M 270.961723 188.120663 
L 277.971253 181.211726 
L 291.24765 185.184478 
L 284.327244 192.170297 
z
" style="fill:#070448;"/>
    <path clip-path="url(#pee642bad0b)" d="M 270.967133 187.890003 
L 284.334244 191.938823 
L 291.255382 184.954412 
L 277.977417 180.982466 
z
" style="fill:#0a0667;"/>
    <path clip-path="url(#pee642bad0b)" d="M 257.743589 184.115686 
L 264.839875 177.282368 
L 265.539558 142.751635 
L 258.326288 149.368628 
z
" style="fill:#4b123b;"/>
    <path clip-path="url(#pee642bad0b)" d="M 149.590158 185.900062 
L 162.286325 189.939642 
L 170.378564 182.971182 
L 157.758763 179.008335 
z
" style="fill:#15056c;"/>
    <path clip-path="url(#pee642bad0b)" d="M 170.14953 174.511265 
L 182.96274 178.488045 
L 190.858551 171.627924 
L 178.123914 167.726698 
z
" style="fill:#39027b;"/>
    <path clip-path="url(#pee642bad0b)" d="M 183.178635 188.911464 
L 191.031582 181.987547 
L 190.858551 171.627924 
L 182.96274 178.488045 
z
" style="fill:#1f0143;"/>
    <path clip-path="url(#pee642bad0b)" d="M 183.178635 188.911464 
L 191.031582 181.987547 
L 203.841786 185.968896 
L 196.068846 192.969946 
z
" style="fill:#855320;"/>
    <path clip-path="url(#pee642bad0b)" d="M 191.031582 181.987547 
L 190.193374 131.802864 
L 198.098313 125.325393 
L 198.736391 175.194243 
z
" style="fill:#c45459;"/>
    <path clip-path="url(#pee642bad0b)" d="M 250.510457 191.080779 
L 250.537939 188.996395 
L 257.778331 182.043985 
L 257.743589 184.115686 
z
" style="fill:#1a057d;"/>
    <path clip-path="url(#pee642bad0b)" d="M 244.670417 180.154631 
L 257.743589 184.115686 
L 258.326288 149.368628 
L 245.023097 145.532704 
z
" style="fill:#9e277e;"/>
    <path clip-path="url(#pee642bad0b)" d="M 216.794403 189.994506 
L 224.338378 183.050047 
L 237.351973 187.043183 
L 229.891821 194.06512 
z
" style="fill:#875c1b;"/>
    <path clip-path="url(#pee642bad0b)" d="M 231.739835 176.23678 
L 231.956486 117.697748 
L 245.268923 121.400481 
L 244.670417 180.154631 
z
" style="fill:#643521;"/>
    <path clip-path="url(#pee642bad0b)" d="M 284.327244 192.170297 
L 291.24765 185.184478 
L 291.255382 184.954412 
L 284.334244 191.938823 
z
" style="fill:#050338;"/>
    <path clip-path="url(#pee642bad0b)" d="M 162.346885 191.878042 
L 170.430723 184.897786 
L 170.378564 182.971182 
L 162.286325 189.939642 
z
" style="fill:#0b033b;"/>
    <path clip-path="url(#pee642bad0b)" d="M 170.430723 184.897786 
L 183.178635 188.911464 
L 182.96274 178.488045 
L 170.14953 174.511265 
z
" style="fill:#42028e;"/>
    <path clip-path="url(#pee642bad0b)" d="M 244.670417 180.154631 
L 245.074464 140.490082 
L 258.411166 144.307227 
L 257.743589 184.115686 
z
" style="fill:#511a35;"/>
    <path clip-path="url(#pee642bad0b)" d="M 250.510457 191.080779 
L 257.743589 184.115686 
L 270.961723 188.120663 
L 263.816264 195.163579 
z
" style="fill:#10034c;"/>
    <path clip-path="url(#pee642bad0b)" d="M 231.89819 133.449413 
L 245.107858 137.211886 
L 252.437399 130.721558 
L 239.313522 127.030846 
z
" style="fill:#9c375c;"/>
    <path clip-path="url(#pee642bad0b)" d="M 170.430723 184.897786 
L 169.94859 167.089045 
L 182.808454 171.039088 
L 183.178635 188.911464 
z
" style="fill:#2e0046;"/>
    <path clip-path="url(#pee642bad0b)" d="M 270.961723 188.120663 
L 284.327244 192.170297 
L 284.334244 191.938823 
L 270.967133 187.890003 
z
" style="fill:#0b0777;"/>
    <path clip-path="url(#pee642bad0b)" d="M 270.961723 188.120663 
L 270.968487 187.832268 
L 284.335995 191.880884 
L 284.327244 192.170297 
z
" style="fill:#050338;"/>
    <path clip-path="url(#pee642bad0b)" d="M 224.338378 183.050047 
L 224.338378 124.137682 
L 231.956486 117.697748 
L 231.739835 176.23678 
z
" style="fill:#d47046;"/>
    <path clip-path="url(#pee642bad0b)" d="M 149.662704 187.831639 
L 162.346885 191.878042 
L 162.286325 189.939642 
L 149.590158 185.900062 
z
" style="fill:#18057c;"/>
    <path clip-path="url(#pee642bad0b)" d="M 149.662704 187.831639 
L 149.574342 185.478945 
L 162.273122 189.517035 
L 162.346885 191.878042 
z
" style="fill:#0c033b;"/>
    <path clip-path="url(#pee642bad0b)" d="M 250.537939 188.996395 
L 263.85795 193.071826 
L 271.010481 186.041652 
L 257.778331 182.043985 
z
" style="fill:#17056d;"/>
    <path clip-path="url(#pee642bad0b)" d="M 162.346885 191.878042 
L 170.430723 184.897786 
L 183.178635 188.911464 
L 175.173234 195.969799 
z
" style="fill:#3a005a;"/>
    <path clip-path="url(#pee642bad0b)" d="M 224.338378 183.050047 
L 231.739835 176.23678 
L 231.963645 115.763498 
L 224.338378 122.190536 
z
" style="fill:#65381f;"/>
    <path clip-path="url(#pee642bad0b)" d="M 237.351973 187.043183 
L 237.613114 147.128902 
L 245.074464 140.490082 
L 244.670417 180.154631 
z
" style="fill:#ac3671;"/>
    <path clip-path="url(#pee642bad0b)" d="M 245.023097 145.532704 
L 258.326288 149.368628 
L 265.539558 142.751635 
L 252.323823 138.98898 
z
" style="fill:#89226d;"/>
    <path clip-path="url(#pee642bad0b)" d="M 196.068846 192.969946 
L 203.841786 185.968896 
L 216.794403 189.994506 
L 209.103753 197.073984 
z
" style="fill:#867213;"/>
    <path clip-path="url(#pee642bad0b)" d="M 203.841786 185.968896 
L 211.467294 179.100638 
L 211.144707 129.049797 
L 203.323039 135.600543 
z
" style="fill:#5c282a;"/>
    <path clip-path="url(#pee642bad0b)" d="M 162.346885 191.878042 
L 161.787053 173.958884 
L 169.94859 167.089045 
L 170.430723 184.897786 
z
" style="fill:#610095;"/>
    <path clip-path="url(#pee642bad0b)" d="M 263.816264 195.163579 
L 263.822046 194.873419 
L 270.968487 187.832268 
L 270.961723 188.120663 
z
" style="fill:#0b0777;"/>
    <path clip-path="url(#pee642bad0b)" d="M 141.344465 194.868925 
L 141.245307 192.501808 
L 149.574342 185.478945 
L 149.662704 187.831639 
z
" style="fill:#1a057d;"/>
    <path clip-path="url(#pee642bad0b)" d="M 263.816264 195.163579 
L 270.961723 188.120663 
L 271.010481 186.041652 
L 263.85795 193.071826 
z
" style="fill:#0c033b;"/>
    <path clip-path="url(#pee642bad0b)" d="M 211.467294 179.100638 
L 224.338378 183.050047 
L 224.338378 122.190536 
L 211.076484 118.464559 
z
" style="fill:#d67642;"/>
    <path clip-path="url(#pee642bad0b)" d="M 229.891821 194.06512 
L 237.351973 187.043183 
L 250.510457 191.080779 
L 243.136481 198.181496 
z
" style="fill:#61194b;"/>
    <path clip-path="url(#pee642bad0b)" d="M 191.031582 181.987547 
L 203.841786 185.968896 
L 203.323039 135.600543 
L 190.193374 131.802864 
z
" style="fill:#c45459;"/>
    <path clip-path="url(#pee642bad0b)" d="M 141.344465 194.868925 
L 149.662704 187.831639 
L 162.346885 191.878042 
L 154.105465 198.994368 
z
" style="fill:#10034c;"/>
    <path clip-path="url(#pee642bad0b)" d="M 250.510457 191.080779 
L 250.536022 189.141784 
L 263.855042 193.21773 
L 263.816264 195.163579 
z
" style="fill:#0b033b;"/>
    <path clip-path="url(#pee642bad0b)" d="M 250.510457 191.080779 
L 263.816264 195.163579 
L 263.85795 193.071826 
L 250.537939 188.996395 
z
" style="fill:#1a057d;"/>
    <path clip-path="url(#pee642bad0b)" d="M 263.816264 195.163579 
L 270.961723 188.120663 
L 284.327244 192.170297 
L 277.271882 199.292348 
z
" style="fill:#070448;"/>
    <path clip-path="url(#pee642bad0b)" d="M 263.822046 194.873419 
L 277.279679 199.001162 
L 284.335995 191.880884 
L 270.968487 187.832268 
z
" style="fill:#0a0667;"/>
    <path clip-path="url(#pee642bad0b)" d="M 211.467294 179.100638 
L 211.006661 107.631332 
L 224.338378 111.315247 
L 224.338378 183.050047 
z
" style="fill:#6a4a14;"/>
    <path clip-path="url(#pee642bad0b)" d="M 141.245307 192.501808 
L 154.021081 196.618871 
L 162.273122 189.517035 
L 149.574342 185.478945 
z
" style="fill:#17056d;"/>
    <path clip-path="url(#pee642bad0b)" d="M 237.351973 187.043183 
L 244.670417 180.154631 
L 245.268923 121.400481 
L 237.738831 127.913688 
z
" style="fill:#643521;"/>
    <path clip-path="url(#pee642bad0b)" d="M 175.173234 195.969799 
L 183.178635 188.911464 
L 196.068846 192.969946 
L 188.144156 200.107676 
z
" style="fill:#867014;"/>
    <path clip-path="url(#pee642bad0b)" d="M 250.510457 191.080779 
L 257.743589 184.115686 
L 258.411166 144.307227 
L 251.03863 151.021298 
z
" style="fill:#511a35;"/>
    <path clip-path="url(#pee642bad0b)" d="M 243.136481 198.181496 
L 243.155022 196.230608 
L 250.536022 189.141784 
L 250.510457 191.080779 
z
" style="fill:#18057c;"/>
    <path clip-path="url(#pee642bad0b)" d="M 203.841786 185.968896 
L 203.100974 114.038815 
L 211.006661 107.631332 
L 211.467294 179.100638 
z
" style="fill:#e09c2b;"/>
    <path clip-path="url(#pee642bad0b)" d="M 209.103753 197.073984 
L 216.794403 189.994506 
L 229.891821 194.06512 
L 222.285805 201.224351 
z
" style="fill:#876815;"/>
    <path clip-path="url(#pee642bad0b)" d="M 237.351973 187.043183 
L 237.585777 151.307345 
L 250.983332 155.215361 
L 250.510457 191.080779 
z
" style="fill:#4b133a;"/>
    <path clip-path="url(#pee642bad0b)" d="M 175.173234 195.969799 
L 183.178635 188.911464 
L 182.808454 171.039088 
L 174.726724 177.986467 
z
" style="fill:#2e0046;"/>
    <path clip-path="url(#pee642bad0b)" d="M 224.338378 183.050047 
L 237.351973 187.043183 
L 237.738831 127.913688 
L 224.338378 124.137682 
z
" style="fill:#d47046;"/>
    <path clip-path="url(#pee642bad0b)" d="M 277.271882 199.292348 
L 284.327244 192.170297 
L 284.335995 191.880884 
L 277.279679 199.001162 
z
" style="fill:#050338;"/>
    <path clip-path="url(#pee642bad0b)" d="M 154.105465 198.994368 
L 162.346885 191.878042 
L 162.273122 189.517035 
L 154.021081 196.618871 
z
" style="fill:#0c033b;"/>
    <path clip-path="url(#pee642bad0b)" d="M 191.031582 181.987547 
L 189.916219 115.209268 
L 203.151484 118.943132 
L 203.841786 185.968896 
z
" style="fill:#684119;"/>
    <path clip-path="url(#pee642bad0b)" d="M 237.351973 187.043183 
L 250.510457 191.080779 
L 251.03863 151.021298 
L 237.613114 147.128902 
z
" style="fill:#ac3671;"/>
    <path clip-path="url(#pee642bad0b)" d="M 243.136481 198.181496 
L 250.510457 191.080779 
L 263.816264 195.163579 
L 256.530882 202.34441 
z
" style="fill:#0e034b;"/>
    <path clip-path="url(#pee642bad0b)" d="M 161.787053 173.958884 
L 174.726724 177.986467 
L 182.808454 171.039088 
L 169.94859 167.089045 
z
" style="fill:#540081;"/>
    <path clip-path="url(#pee642bad0b)" d="M 229.891821 194.06512 
L 229.992578 158.104427 
L 237.585777 151.307345 
L 237.351973 187.043183 
z
" style="fill:#a0297c;"/>
    <path clip-path="url(#pee642bad0b)" d="M 162.346885 191.878042 
L 175.173234 195.969799 
L 174.726724 177.986467 
L 161.787053 173.958884 
z
" style="fill:#610095;"/>
    <path clip-path="url(#pee642bad0b)" d="M 263.816264 195.163579 
L 277.271882 199.292348 
L 277.279679 199.001162 
L 263.822046 194.873419 
z
" style="fill:#0b0777;"/>
    <path clip-path="url(#pee642bad0b)" d="M 263.816264 195.163579 
L 263.825096 194.720388 
L 277.283791 198.84759 
L 277.271882 199.292348 
z
" style="fill:#070339;"/>
    <path clip-path="url(#pee642bad0b)" d="M 141.344465 194.868925 
L 154.105465 198.994368 
L 154.021081 196.618871 
L 141.245307 192.501808 
z
" style="fill:#1a057d;"/>
    <path clip-path="url(#pee642bad0b)" d="M 243.155022 196.230608 
L 256.562814 200.386613 
L 263.855042 193.21773 
L 250.536022 189.141784 
z
" style="fill:#15056c;"/>
    <path clip-path="url(#pee642bad0b)" d="M 154.105465 198.994368 
L 162.346885 191.878042 
L 175.173234 195.969799 
L 167.010898 203.166503 
z
" style="fill:#470359;"/>
    <path clip-path="url(#pee642bad0b)" d="M 183.178635 188.911464 
L 181.786597 121.703676 
L 189.916219 115.209268 
L 191.031582 181.987547 
z
" style="fill:#dd8a35;"/>
    <path clip-path="url(#pee642bad0b)" d="M 224.338378 183.050047 
L 224.338378 112.494492 
L 237.815303 116.225294 
L 237.351973 187.043183 
z
" style="fill:#694815;"/>
    <path clip-path="url(#pee642bad0b)" d="M 162.346885 191.878042 
L 161.621551 168.661465 
L 174.594714 172.669728 
L 175.173234 195.969799 
z
" style="fill:#380345;"/>
    <path clip-path="url(#pee642bad0b)" d="M 188.144156 200.107676 
L 196.068846 192.969946 
L 209.103753 197.073984 
L 201.262108 204.292457 
z
" style="fill:#808512;"/>
    <path clip-path="url(#pee642bad0b)" d="M 190.193374 131.802864 
L 203.323039 135.600543 
L 211.144707 129.049797 
L 198.098313 125.325393 
z
" style="fill:#aa494e;"/>
    <path clip-path="url(#pee642bad0b)" d="M 256.530882 202.34441 
L 256.538155 201.898501 
L 263.825096 194.720388 
L 263.816264 195.163579 
z
" style="fill:#0e0678;"/>
    <path clip-path="url(#pee642bad0b)" d="M 256.530882 202.34441 
L 263.816264 195.163579 
L 263.855042 193.21773 
L 256.562814 200.386613 
z
" style="fill:#0b033b;"/>
    <path clip-path="url(#pee642bad0b)" d="M 211.076484 118.464559 
L 224.338378 122.190536 
L 231.963645 115.763498 
L 218.787484 112.109486 
z
" style="fill:#ba6639;"/>
    <path clip-path="url(#pee642bad0b)" d="M 216.794403 189.994506 
L 216.524679 118.983664 
L 224.338378 112.494492 
L 224.338378 183.050047 
z
" style="fill:#df982d;"/>
    <path clip-path="url(#pee642bad0b)" d="M 216.794403 189.994506 
L 224.338378 183.050047 
L 224.338378 111.315247 
L 216.520169 117.796399 
z
" style="fill:#6a4a14;"/>
    <path clip-path="url(#pee642bad0b)" d="M 222.285805 201.224351 
L 229.891821 194.06512 
L 243.136481 198.181496 
L 235.617509 205.421836 
z
" style="fill:#560f53;"/>
    <path clip-path="url(#pee642bad0b)" d="M 154.105465 198.994368 
L 153.275598 175.632918 
L 161.621551 168.661465 
L 162.346885 191.878042 
z
" style="fill:#760693;"/>
    <path clip-path="url(#pee642bad0b)" d="M 237.613114 147.128902 
L 251.03863 151.021298 
L 258.411166 144.307227 
L 245.074464 140.490082 
z
" style="fill:#952f62;"/>
    <path clip-path="url(#pee642bad0b)" d="M 243.136481 198.181496 
L 256.530882 202.34441 
L 256.562814 200.386613 
L 243.155022 196.230608 
z
" style="fill:#18057c;"/>
    <path clip-path="url(#pee642bad0b)" d="M 243.136481 198.181496 
L 243.15777 195.941538 
L 256.567545 200.096517 
L 256.530882 202.34441 
z
" style="fill:#0c033b;"/>
    <path clip-path="url(#pee642bad0b)" d="M 256.530882 202.34441 
L 263.816264 195.163579 
L 277.271882 199.292348 
L 270.077576 206.554656 
z
" style="fill:#090449;"/>
    <path clip-path="url(#pee642bad0b)" d="M 256.538155 201.898501 
L 270.087968 206.107168 
L 277.283791 198.84759 
L 263.825096 194.720388 
z
" style="fill:#0c0668;"/>
    <path clip-path="url(#pee642bad0b)" d="M 203.841786 185.968896 
L 216.794403 189.994506 
L 216.520169 117.796399 
L 203.100974 114.038815 
z
" style="fill:#e09c2b;"/>
    <path clip-path="url(#pee642bad0b)" d="M 243.136481 198.181496 
L 250.510457 191.080779 
L 250.983332 155.215361 
L 243.479492 162.090089 
z
" style="fill:#4b133a;"/>
    <path clip-path="url(#pee642bad0b)" d="M 167.010898 203.166503 
L 175.173234 195.969799 
L 188.144156 200.107676 
L 180.063228 207.386128 
z
" style="fill:#876118;"/>
    <path clip-path="url(#pee642bad0b)" d="M 229.891821 194.06512 
L 229.975532 164.188137 
L 243.421457 168.19643 
L 243.136481 198.181496 
z
" style="fill:#430b41;"/>
    <path clip-path="url(#pee642bad0b)" d="M 196.068846 192.969946 
L 203.841786 185.968896 
L 203.151484 118.943132 
L 195.107242 125.512344 
z
" style="fill:#684119;"/>
    <path clip-path="url(#pee642bad0b)" d="M 235.617509 205.421836 
L 235.630408 203.168112 
L 243.15777 195.941538 
L 243.136481 198.181496 
z
" style="fill:#1a057d;"/>
    <path clip-path="url(#pee642bad0b)" d="M 203.841786 185.968896 
L 203.013644 105.559481 
L 216.487834 109.283557 
L 216.794403 189.994506 
z
" style="fill:#68590f;"/>
    <path clip-path="url(#pee642bad0b)" d="M 201.262108 204.292457 
L 209.103753 197.073984 
L 222.285805 201.224351 
L 214.529606 208.524945 
z
" style="fill:#876c14;"/>
    <path clip-path="url(#pee642bad0b)" d="M 229.891821 194.06512 
L 243.136481 198.181496 
L 243.479492 162.090089 
L 229.992578 158.104427 
z
" style="fill:#a0297c;"/>
    <path clip-path="url(#pee642bad0b)" d="M 224.338378 124.137682 
L 237.738831 127.913688 
L 245.268923 121.400481 
L 231.956486 117.697748 
z
" style="fill:#b8613c;"/>
    <path clip-path="url(#pee642bad0b)" d="M 270.077576 206.554656 
L 277.271882 199.292348 
L 277.283791 198.84759 
L 270.087968 206.107168 
z
" style="fill:#070339;"/>
    <path clip-path="url(#pee642bad0b)" d="M 222.285805 201.224351 
L 222.254558 171.159827 
L 229.975532 164.188137 
L 229.891821 194.06512 
z
" style="fill:#8e1889;"/>
    <path clip-path="url(#pee642bad0b)" d="M 183.178635 188.911464 
L 196.068846 192.969946 
L 195.107242 125.512344 
L 181.786597 121.703676 
z
" style="fill:#dd8a35;"/>
    <path clip-path="url(#pee642bad0b)" d="M 229.891821 194.06512 
L 237.351973 187.043183 
L 237.815303 116.225294 
L 230.091526 122.789461 
z
" style="fill:#694815;"/>
    <path clip-path="url(#pee642bad0b)" d="M 235.617509 205.421836 
L 243.136481 198.181496 
L 256.530882 202.34441 
L 249.101427 209.667246 
z
" style="fill:#10034c;"/>
    <path clip-path="url(#pee642bad0b)" d="M 167.010898 203.166503 
L 175.173234 195.969799 
L 174.594714 172.669728 
L 166.329642 179.720857 
z
" style="fill:#380345;"/>
    <path clip-path="url(#pee642bad0b)" d="M 196.068846 192.969946 
L 194.915155 112.0372 
L 203.013644 105.559481 
L 203.841786 185.968896 
z
" style="fill:#ddbe20;"/>
    <path clip-path="url(#pee642bad0b)" d="M 256.530882 202.34441 
L 256.535833 202.040866 
L 270.08465 206.250038 
L 270.077576 206.554656 
z
" style="fill:#050338;"/>
    <path clip-path="url(#pee642bad0b)" d="M 256.530882 202.34441 
L 270.077576 206.554656 
L 270.087968 206.107168 
L 256.538155 201.898501 
z
" style="fill:#0e0678;"/>
    <path clip-path="url(#pee642bad0b)" d="M 235.630408 203.168112 
L 249.129908 207.405523 
L 256.567545 200.096517 
L 243.15777 195.941538 
z
" style="fill:#17056d;"/>
    <path clip-path="url(#pee642bad0b)" d="M 216.794403 189.994506 
L 229.891821 194.06512 
L 230.091526 122.789461 
L 216.524679 118.983664 
z
" style="fill:#df982d;"/>
    <path clip-path="url(#pee642bad0b)" d="M 154.105465 198.994368 
L 167.010898 203.166503 
L 166.329642 179.720857 
L 153.275598 175.632918 
z
" style="fill:#760693;"/>
    <path clip-path="url(#pee642bad0b)" d="M 183.178635 188.911464 
L 181.530969 109.361909 
L 194.930618 113.121934 
L 196.068846 192.969946 
z
" style="fill:#69570f;"/>
    <path clip-path="url(#pee642bad0b)" d="M 229.992578 158.104427 
L 243.479492 162.090089 
L 250.983332 155.215361 
L 237.585777 151.307345 
z
" style="fill:#8b246c;"/>
    <path clip-path="url(#pee642bad0b)" d="M 180.063228 207.386128 
L 188.144156 200.107676 
L 201.262108 204.292457 
L 193.264978 211.654059 
z
" style="fill:#876c14;"/>
    <path clip-path="url(#pee642bad0b)" d="M 249.101427 209.667246 
L 249.105273 209.361838 
L 256.535833 202.040866 
L 256.530882 202.34441 
z
" style="fill:#0b0777;"/>
    <path clip-path="url(#pee642bad0b)" d="M 216.794403 189.994506 
L 216.504408 113.647105 
L 230.106538 117.431849 
L 229.891821 194.06512 
z
" style="fill:#6a5111;"/>
    <path clip-path="url(#pee642bad0b)" d="M 153.275598 175.632918 
L 166.329642 179.720857 
L 174.594714 172.669728 
L 161.621551 168.661465 
z
" style="fill:#660580;"/>
    <path clip-path="url(#pee642bad0b)" d="M 249.101427 209.667246 
L 256.530882 202.34441 
L 256.567545 200.096517 
L 249.129908 207.405523 
z
" style="fill:#0c033b;"/>
    <path clip-path="url(#pee642bad0b)" d="M 214.529606 208.524945 
L 222.285805 201.224351 
L 235.617509 205.421836 
L 227.94922 212.80596 
z
" style="fill:#460359;"/>
    <path clip-path="url(#pee642bad0b)" d="M 175.173234 195.969799 
L 173.185227 115.902261 
L 181.530969 109.361909 
L 183.178635 188.911464 
z
" style="fill:#deb920;"/>
    <path clip-path="url(#pee642bad0b)" d="M 235.617509 205.421836 
L 243.136481 198.181496 
L 243.421457 168.19643 
L 235.790206 175.248311 
z
" style="fill:#430b41;"/>
    <path clip-path="url(#pee642bad0b)" d="M 222.285805 201.224351 
L 222.262239 178.549603 
L 235.747754 182.665363 
L 235.617509 205.421836 
z
" style="fill:#360246;"/>
    <path clip-path="url(#pee642bad0b)" d="M 209.103753 197.073984 
L 208.512211 120.230454 
L 216.504408 113.647105 
L 216.794403 189.994506 
z
" style="fill:#e0ac23;"/>
    <path clip-path="url(#pee642bad0b)" d="M 235.617509 205.421836 
L 235.627087 203.748295 
L 249.122576 207.987768 
L 249.101427 209.667246 
z
" style="fill:#0a033a;"/>
    <path clip-path="url(#pee642bad0b)" d="M 235.617509 205.421836 
L 249.101427 209.667246 
L 249.129908 207.405523 
L 235.630408 203.168112 
z
" style="fill:#1a057d;"/>
    <path clip-path="url(#pee642bad0b)" d="M 249.101427 209.667246 
L 256.530882 202.34441 
L 270.077576 206.554656 
L 262.740181 213.961405 
z
" style="fill:#070448;"/>
    <path clip-path="url(#pee642bad0b)" d="M 249.105273 209.361838 
L 262.746179 213.654914 
L 270.08465 206.250038 
L 256.535833 202.040866 
z
" style="fill:#0a0667;"/>
    <path clip-path="url(#pee642bad0b)" d="M 209.103753 197.073984 
L 216.794403 189.994506 
L 216.487834 109.283557 
L 208.478389 115.836815 
z
" style="fill:#68590f;"/>
    <path clip-path="url(#pee642bad0b)" d="M 222.285805 201.224351 
L 235.617509 205.421836 
L 235.790206 175.248311 
L 222.254558 171.159827 
z
" style="fill:#8e1889;"/>
    <path clip-path="url(#pee642bad0b)" d="M 214.529606 208.524945 
L 214.415861 185.708399 
L 222.262239 178.549603 
L 222.285805 201.224351 
z
" style="fill:#730494;"/>
    <path clip-path="url(#pee642bad0b)" d="M 227.94922 212.80596 
L 227.952317 211.122121 
L 235.627087 203.748295 
L 235.617509 205.421836 
z
" style="fill:#16067b;"/>
    <path clip-path="url(#pee642bad0b)" d="M 196.068846 192.969946 
L 209.103753 197.073984 
L 208.478389 115.836815 
L 194.915155 112.0372 
z
" style="fill:#ddbe20;"/>
    <path clip-path="url(#pee642bad0b)" d="M 193.264978 211.654059 
L 201.262108 204.292457 
L 214.529606 208.524945 
L 206.61873 215.971129 
z
" style="fill:#844f23;"/>
    <path clip-path="url(#pee642bad0b)" d="M 262.740181 213.961405 
L 270.077576 206.554656 
L 270.08465 206.250038 
L 262.746179 213.654914 
z
" style="fill:#050338;"/>
    <path clip-path="url(#pee642bad0b)" d="M 203.100974 114.038815 
L 216.520169 117.796399 
L 224.338378 111.315247 
L 211.006661 107.631332 
z
" style="fill:#c28725;"/>
    <path clip-path="url(#pee642bad0b)" d="M 222.254558 171.159827 
L 235.790206 175.248311 
L 243.421457 168.19643 
L 229.975532 164.188137 
z
" style="fill:#7b1577;"/>
    <path clip-path="url(#pee642bad0b)" d="M 227.94922 212.80596 
L 235.617509 205.421836 
L 249.101427 209.667246 
L 241.523583 217.136342 
z
" style="fill:#0d034a;"/>
    <path clip-path="url(#pee642bad0b)" d="M 196.068846 192.969946 
L 194.812981 104.869564 
L 208.422991 108.640423 
L 209.103753 197.073984 
z
" style="fill:#64680e;"/>
    <path clip-path="url(#pee642bad0b)" d="M 188.144156 200.107676 
L 196.068846 192.969946 
L 194.930618 113.121934 
L 186.672048 119.738841 
z
" style="fill:#69570f;"/>
    <path clip-path="url(#pee642bad0b)" d="M 175.173234 195.969799 
L 173.342795 122.248354 
L 186.788751 126.110151 
L 188.144156 200.107676 
z
" style="fill:#6a4c13;"/>
    <path clip-path="url(#pee642bad0b)" d="M 249.101427 209.667246 
L 249.104632 209.412726 
L 262.74518 213.705983 
L 262.740181 213.961405 
z
" style="fill:#050338;"/>
    <path clip-path="url(#pee642bad0b)" d="M 249.101427 209.667246 
L 262.740181 213.961405 
L 262.746179 213.654914 
L 249.105273 209.361838 
z
" style="fill:#0b0777;"/>
    <path clip-path="url(#pee642bad0b)" d="M 227.952317 211.122121 
L 241.538407 215.446521 
L 249.122576 207.987768 
L 235.627087 203.748295 
z
" style="fill:#13056b;"/>
    <path clip-path="url(#pee642bad0b)" d="M 222.285805 201.224351 
L 229.891821 194.06512 
L 230.106538 117.431849 
L 222.205639 124.092254 
z
" style="fill:#6a5111;"/>
    <path clip-path="url(#pee642bad0b)" d="M 181.786597 121.703676 
L 195.107242 125.512344 
L 203.151484 118.943132 
L 189.916219 115.209268 
z
" style="fill:#c0782e;"/>
    <path clip-path="url(#pee642bad0b)" d="M 188.144156 200.107676 
L 186.519839 111.429039 
L 194.812981 104.869564 
L 196.068846 192.969946 
z
" style="fill:#d4dc1e;"/>
    <path clip-path="url(#pee642bad0b)" d="M 175.173234 195.969799 
L 188.144156 200.107676 
L 186.672048 119.738841 
L 173.185227 115.902261 
z
" style="fill:#deb920;"/>
    <path clip-path="url(#pee642bad0b)" d="M 214.529606 208.524945 
L 214.461216 194.806403 
L 227.974541 199.038243 
L 227.94922 212.80596 
z
" style="fill:#250045;"/>
    <path clip-path="url(#pee642bad0b)" d="M 167.010898 203.166503 
L 164.854864 128.965935 
L 173.342795 122.248354 
L 175.173234 195.969799 
z
" style="fill:#e0a128;"/>
    <path clip-path="url(#pee642bad0b)" d="M 241.523583 217.136342 
L 241.525829 216.880256 
L 249.104632 209.412726 
L 249.101427 209.667246 
z
" style="fill:#0b0777;"/>
    <path clip-path="url(#pee642bad0b)" d="M 227.94922 212.80596 
L 235.617509 205.421836 
L 235.747754 182.665363 
L 227.991335 189.90702 
z
" style="fill:#360246;"/>
    <path clip-path="url(#pee642bad0b)" d="M 209.103753 197.073984 
L 222.285805 201.224351 
L 222.205639 124.092254 
L 208.512211 120.230454 
z
" style="fill:#e0ac23;"/>
    <path clip-path="url(#pee642bad0b)" d="M 241.523583 217.136342 
L 249.101427 209.667246 
L 249.122576 207.987768 
L 241.538407 215.446521 
z
" style="fill:#0a033a;"/>
    <path clip-path="url(#pee642bad0b)" d="M 209.103753 197.073984 
L 208.502969 119.029851 
L 222.204386 122.886873 
L 222.285805 201.224351 
z
" style="fill:#695410;"/>
    <path clip-path="url(#pee642bad0b)" d="M 206.61873 215.971129 
L 214.529606 208.524945 
L 227.94922 212.80596 
L 220.127123 220.338193 
z
" style="fill:#300158;"/>
    <path clip-path="url(#pee642bad0b)" d="M 216.524679 118.983664 
L 230.091526 122.789461 
L 237.815303 116.225294 
L 224.338378 112.494492 
z
" style="fill:#c28427;"/>
    <path clip-path="url(#pee642bad0b)" d="M 206.61873 215.971129 
L 206.493943 202.167273 
L 214.461216 194.806403 
L 214.529606 208.524945 
z
" style="fill:#4f0192;"/>
    <path clip-path="url(#pee642bad0b)" d="M 214.529606 208.524945 
L 227.94922 212.80596 
L 227.991335 189.90702 
L 214.415861 185.708399 
z
" style="fill:#730494;"/>
    <path clip-path="url(#pee642bad0b)" d="M 227.94922 212.80596 
L 227.951684 211.466529 
L 241.535374 215.792154 
L 241.523583 217.136342 
z
" style="fill:#09033a;"/>
    <path clip-path="url(#pee642bad0b)" d="M 227.94922 212.80596 
L 241.523583 217.136342 
L 241.538407 215.446521 
L 227.952317 211.122121 
z
" style="fill:#16067b;"/>
    <path clip-path="url(#pee642bad0b)" d="M 201.262108 204.292457 
L 200.342796 125.739232 
L 208.502969 119.029851 
L 209.103753 197.073984 
z
" style="fill:#dfb222;"/>
    <path clip-path="url(#pee642bad0b)" d="M 241.523583 217.136342 
L 249.101427 209.667246 
L 262.740181 213.961405 
L 255.255385 221.516949 
z
" style="fill:#070448;"/>
    <path clip-path="url(#pee642bad0b)" d="M 214.415861 185.708399 
L 227.991335 189.90702 
L 235.747754 182.665363 
L 222.262239 178.549603 
z
" style="fill:#640480;"/>
    <path clip-path="url(#pee642bad0b)" d="M 241.525829 216.880256 
L 255.25945 221.259954 
L 262.74518 213.705983 
L 249.104632 209.412726 
z
" style="fill:#0a0667;"/>
    <path clip-path="url(#pee642bad0b)" d="M 220.127123 220.338193 
L 220.124221 218.99051 
L 227.951684 211.466529 
L 227.94922 212.80596 
z
" style="fill:#13067a;"/>
    <path clip-path="url(#pee642bad0b)" d="M 188.144156 200.107676 
L 186.698657 121.191531 
L 200.335072 125.079185 
L 201.262108 204.292457 
z
" style="fill:#695510;"/>
    <path clip-path="url(#pee642bad0b)" d="M 201.262108 204.292457 
L 209.103753 197.073984 
L 208.422991 108.640423 
L 200.220362 115.277443 
z
" style="fill:#64680e;"/>
    <path clip-path="url(#pee642bad0b)" d="M 180.063228 207.386128 
L 188.144156 200.107676 
L 186.788751 126.110151 
L 178.388245 132.906919 
z
" style="fill:#6a4c13;"/>
    <path clip-path="url(#pee642bad0b)" d="M 255.255385 221.516949 
L 262.740181 213.961405 
L 262.74518 213.705983 
L 255.25945 221.259954 
z
" style="fill:#050338;"/>
    <path clip-path="url(#pee642bad0b)" d="M 180.063228 207.386128 
L 178.276865 127.954331 
L 186.698657 121.191531 
L 188.144156 200.107676 
z
" style="fill:#dfb321;"/>
    <path clip-path="url(#pee642bad0b)" d="M 220.127123 220.338193 
L 227.94922 212.80596 
L 241.523583 217.136342 
L 233.792858 224.756123 
z
" style="fill:#0c044a;"/>
    <path clip-path="url(#pee642bad0b)" d="M 188.144156 200.107676 
L 201.262108 204.292457 
L 200.220362 115.277443 
L 186.519839 111.429039 
z
" style="fill:#d4dc1e;"/>
    <path clip-path="url(#pee642bad0b)" d="M 201.262108 204.292457 
L 200.491791 138.47051 
L 214.200247 142.457332 
L 214.529606 208.524945 
z
" style="fill:#673e1b;"/>
    <path clip-path="url(#pee642bad0b)" d="M 220.127123 220.338193 
L 227.94922 212.80596 
L 227.974541 199.038243 
L 220.097293 206.484777 
z
" style="fill:#250045;"/>
    <path clip-path="url(#pee642bad0b)" d="M 220.124221 218.99051 
L 233.799411 223.403648 
L 241.535374 215.792154 
L 227.951684 211.466529 
z
" style="fill:#11056a;"/>
    <path clip-path="url(#pee642bad0b)" d="M 167.010898 203.166503 
L 180.063228 207.386128 
L 178.388245 132.906919 
L 164.854864 128.965935 
z
" style="fill:#e0a128;"/>
    <path clip-path="url(#pee642bad0b)" d="M 241.523583 217.136342 
L 255.255385 221.516949 
L 255.25945 221.259954 
L 241.525829 216.880256 
z
" style="fill:#0b0777;"/>
    <path clip-path="url(#pee642bad0b)" d="M 241.523583 217.136342 
L 241.52635 216.820908 
L 255.260392 221.200395 
L 255.255385 221.516949 
z
" style="fill:#050338;"/>
    <path clip-path="url(#pee642bad0b)" d="M 214.529606 208.524945 
L 222.285805 201.224351 
L 222.204386 122.886873 
L 214.136528 129.675635 
z
" style="fill:#695410;"/>
    <path clip-path="url(#pee642bad0b)" d="M 206.493943 202.167273 
L 220.097293 206.484777 
L 227.974541 199.038243 
L 214.461216 194.806403 
z
" style="fill:#44017e;"/>
    <path clip-path="url(#pee642bad0b)" d="M 193.264978 211.654059 
L 192.217076 145.4058 
L 200.491791 138.47051 
L 201.262108 204.292457 
z
" style="fill:#db8339;"/>
    <path clip-path="url(#pee642bad0b)" d="M 206.61873 215.971129 
L 220.127123 220.338193 
L 220.097293 206.484777 
L 206.493943 202.167273 
z
" style="fill:#4f0192;"/>
    <path clip-path="url(#pee642bad0b)" d="M 233.792858 224.756123 
L 233.794396 224.438747 
L 241.52635 216.820908 
L 241.523583 217.136342 
z
" style="fill:#0b0777;"/>
    <path clip-path="url(#pee642bad0b)" d="M 233.792858 224.756123 
L 241.523583 217.136342 
L 241.535374 215.792154 
L 233.799411 223.403648 
z
" style="fill:#09033a;"/>
    <path clip-path="url(#pee642bad0b)" d="M 194.915155 112.0372 
L 208.478389 115.836815 
L 216.487834 109.283557 
L 203.013644 105.559481 
z
" style="fill:#c0a51c;"/>
    <path clip-path="url(#pee642bad0b)" d="M 201.262108 204.292457 
L 214.529606 208.524945 
L 214.136528 129.675635 
L 200.342796 125.739232 
z
" style="fill:#dfb222;"/>
    <path clip-path="url(#pee642bad0b)" d="M 220.127123 220.338193 
L 233.792858 224.756123 
L 233.799411 223.403648 
L 220.124221 218.99051 
z
" style="fill:#13067a;"/>
    <path clip-path="url(#pee642bad0b)" d="M 193.264978 211.654059 
L 201.262108 204.292457 
L 200.335072 125.079185 
L 192.003797 131.922373 
z
" style="fill:#695510;"/>
    <path clip-path="url(#pee642bad0b)" d="M 233.792858 224.756123 
L 241.523583 217.136342 
L 255.255385 221.516949 
L 247.618703 229.225814 
z
" style="fill:#070448;"/>
    <path clip-path="url(#pee642bad0b)" d="M 233.794396 224.438747 
L 247.622511 228.90731 
L 255.260392 221.200395 
L 241.52635 216.820908 
z
" style="fill:#0a0667;"/>
    <path clip-path="url(#pee642bad0b)" d="M 208.512211 120.230454 
L 222.205639 124.092254 
L 230.106538 117.431849 
L 216.504408 113.647105 
z
" style="fill:#c2961f;"/>
    <path clip-path="url(#pee642bad0b)" d="M 173.185227 115.902261 
L 186.672048 119.738841 
L 194.930618 113.121934 
L 181.530969 109.361909 
z
" style="fill:#c1a11c;"/>
    <path clip-path="url(#pee642bad0b)" d="M 180.063228 207.386128 
L 193.264978 211.654059 
L 192.003797 131.922373 
L 178.276865 127.954331 
z
" style="fill:#dfb321;"/>
    <path clip-path="url(#pee642bad0b)" d="M 206.61873 215.971129 
L 214.529606 208.524945 
L 214.200247 142.457332 
L 206.017605 149.475004 
z
" style="fill:#673e1b;"/>
    <path clip-path="url(#pee642bad0b)" d="M 247.618703 229.225814 
L 255.255385 221.516949 
L 255.260392 221.200395 
L 247.622511 228.90731 
z
" style="fill:#050338;"/>
    <path clip-path="url(#pee642bad0b)" d="M 193.264978 211.654059 
L 206.61873 215.971129 
L 206.017605 149.475004 
L 192.217076 145.4058 
z
" style="fill:#db8339;"/>
    <path clip-path="url(#pee642bad0b)" d="M 233.792858 224.756123 
L 247.618703 229.225814 
L 247.622511 228.90731 
L 233.794396 224.438747 
z
" style="fill:#0b0777;"/>
    <path clip-path="url(#pee642bad0b)" d="M 164.854864 128.965935 
L 178.388245 132.906919 
L 186.788751 126.110151 
L 173.342795 122.248354 
z
" style="fill:#c28c23;"/>
    <path clip-path="url(#pee642bad0b)" d="M 186.519839 111.429039 
L 200.220362 115.277443 
L 208.422991 108.640423 
L 194.812981 104.869564 
z
" style="fill:#b8bf1a;"/>
    <path clip-path="url(#pee642bad0b)" d="M 200.342796 125.739232 
L 214.136528 129.675635 
L 222.204386 122.886873 
L 208.502969 119.029851 
z
" style="fill:#c29b1d;"/>
    <path clip-path="url(#pee642bad0b)" d="M 192.217076 145.4058 
L 206.017605 149.475004 
L 214.200247 142.457332 
L 200.491791 138.47051 
z
" style="fill:#be7132;"/>
    <path clip-path="url(#pee642bad0b)" d="M 178.276865 127.954331 
L 192.003797 131.922373 
L 200.335072 125.079185 
L 186.698657 121.191531 
z
" style="fill:#c29c1d;"/>
   </g>
   <g id="text_15">
    <!-- W40__H30__A020_bars_extracted.txt -->
    <g transform="translate(110.101875 28.56)scale(0.12 -0.12)">
     <defs>
      <path d="M 3.328125 72.90625 
L 13.28125 72.90625 
L 28.609375 11.28125 
L 43.890625 72.90625 
L 54.984375 72.90625 
L 70.3125 11.28125 
L 85.59375 72.90625 
L 95.609375 72.90625 
L 77.296875 0 
L 64.890625 0 
L 49.515625 63.28125 
L 33.984375 0 
L 21.578125 0 
z
" id="DejaVuSans-87"/>
      <path d="M 50.984375 -16.609375 
L 50.984375 -23.578125 
L -0.984375 -23.578125 
L -0.984375 -16.609375 
z
" id="DejaVuSans-95"/>
      <path d="M 9.8125 72.90625 
L 19.671875 72.90625 
L 19.671875 43.015625 
L 55.515625 43.015625 
L 55.515625 72.90625 
L 65.375 72.90625 
L 65.375 0 
L 55.515625 0 
L 55.515625 34.71875 
L 19.671875 34.71875 
L 19.671875 0 
L 9.8125 0 
z
" id="DejaVuSans-72"/>
      <path d="M 34.1875 63.1875 
L 20.796875 26.90625 
L 47.609375 26.90625 
z
M 28.609375 72.90625 
L 39.796875 72.90625 
L 67.578125 0 
L 57.328125 0 
L 50.6875 18.703125 
L 17.828125 18.703125 
L 11.1875 0 
L 0.78125 0 
z
" id="DejaVuSans-65"/>
      <path d="M 48.6875 27.296875 
Q 48.6875 37.203125 44.609375 42.84375 
Q 40.53125 48.484375 33.40625 48.484375 
Q 26.265625 48.484375 22.1875 42.84375 
Q 18.109375 37.203125 18.109375 27.296875 
Q 18.109375 17.390625 22.1875 11.75 
Q 26.265625 6.109375 33.40625 6.109375 
Q 40.53125 6.109375 44.609375 11.75 
Q 48.6875 17.390625 48.6875 27.296875 
z
M 18.109375 46.390625 
Q 20.953125 51.265625 25.265625 53.625 
Q 29.59375 56 35.59375 56 
Q 45.5625 56 51.78125 48.09375 
Q 58.015625 40.1875 58.015625 27.296875 
Q 58.015625 14.40625 51.78125 6.484375 
Q 45.5625 -1.421875 35.59375 -1.421875 
Q 29.59375 -1.421875 25.265625 0.953125 
Q 20.953125 3.328125 18.109375 8.203125 
L 18.109375 0 
L 9.078125 0 
L 9.078125 75.984375 
L 18.109375 75.984375 
z
" id="DejaVuSans-98"/>
      <path d="M 34.28125 27.484375 
Q 23.390625 27.484375 19.1875 25 
Q 14.984375 22.515625 14.984375 16.5 
Q 14.984375 11.71875 18.140625 8.90625 
Q 21.296875 6.109375 26.703125 6.109375 
Q 34.1875 6.109375 38.703125 11.40625 
Q 43.21875 16.703125 43.21875 25.484375 
L 43.21875 27.484375 
z
M 52.203125 31.203125 
L 52.203125 0 
L 43.21875 0 
L 43.21875 8.296875 
Q 40.140625 3.328125 35.546875 0.953125 
Q 30.953125 -1.421875 24.3125 -1.421875 
Q 15.921875 -1.421875 10.953125 3.296875 
Q 6 8.015625 6 15.921875 
Q 6 25.140625 12.171875 29.828125 
Q 18.359375 34.515625 30.609375 34.515625 
L 43.21875 34.515625 
L 43.21875 35.40625 
Q 43.21875 41.609375 39.140625 45 
Q 35.0625 48.390625 27.6875 48.390625 
Q 23 48.390625 18.546875 47.265625 
Q 14.109375 46.140625 10.015625 43.890625 
L 10.015625 52.203125 
Q 14.9375 54.109375 19.578125 55.046875 
Q 24.21875 56 28.609375 56 
Q 40.484375 56 46.34375 49.84375 
Q 52.203125 43.703125 52.203125 31.203125 
z
" id="DejaVuSans-97"/>
      <path d="M 41.109375 46.296875 
Q 39.59375 47.171875 37.8125 47.578125 
Q 36.03125 48 33.890625 48 
Q 26.265625 48 22.1875 43.046875 
Q 18.109375 38.09375 18.109375 28.8125 
L 18.109375 0 
L 9.078125 0 
L 9.078125 54.6875 
L 18.109375 54.6875 
L 18.109375 46.1875 
Q 20.953125 51.171875 25.484375 53.578125 
Q 30.03125 56 36.53125 56 
Q 37.453125 56 38.578125 55.875 
Q 39.703125 55.765625 41.0625 55.515625 
z
" id="DejaVuSans-114"/>
      <path d="M 44.28125 53.078125 
L 44.28125 44.578125 
Q 40.484375 46.53125 36.375 47.5 
Q 32.28125 48.484375 27.875 48.484375 
Q 21.1875 48.484375 17.84375 46.4375 
Q 14.5 44.390625 14.5 40.28125 
Q 14.5 37.15625 16.890625 35.375 
Q 19.28125 33.59375 26.515625 31.984375 
L 29.59375 31.296875 
Q 39.15625 29.25 43.1875 25.515625 
Q 47.21875 21.78125 47.21875 15.09375 
Q 47.21875 7.46875 41.1875 3.015625 
Q 35.15625 -1.421875 24.609375 -1.421875 
Q 20.21875 -1.421875 15.453125 -0.5625 
Q 10.6875 0.296875 5.421875 2 
L 5.421875 11.28125 
Q 10.40625 8.6875 15.234375 7.390625 
Q 20.0625 6.109375 24.8125 6.109375 
Q 31.15625 6.109375 34.5625 8.28125 
Q 37.984375 10.453125 37.984375 14.40625 
Q 37.984375 18.0625 35.515625 20.015625 
Q 33.0625 21.96875 24.703125 23.78125 
L 21.578125 24.515625 
Q 13.234375 26.265625 9.515625 29.90625 
Q 5.8125 33.546875 5.8125 39.890625 
Q 5.8125 47.609375 11.28125 51.796875 
Q 16.75 56 26.8125 56 
Q 31.78125 56 36.171875 55.265625 
Q 40.578125 54.546875 44.28125 53.078125 
z
" id="DejaVuSans-115"/>
      <path d="M 56.203125 29.59375 
L 56.203125 25.203125 
L 14.890625 25.203125 
Q 15.484375 15.921875 20.484375 11.0625 
Q 25.484375 6.203125 34.421875 6.203125 
Q 39.59375 6.203125 44.453125 7.46875 
Q 49.3125 8.734375 54.109375 11.28125 
L 54.109375 2.78125 
Q 49.265625 0.734375 44.1875 -0.34375 
Q 39.109375 -1.421875 33.890625 -1.421875 
Q 20.796875 -1.421875 13.15625 6.1875 
Q 5.515625 13.8125 5.515625 26.8125 
Q 5.515625 40.234375 12.765625 48.109375 
Q 20.015625 56 32.328125 56 
Q 43.359375 56 49.78125 48.890625 
Q 56.203125 41.796875 56.203125 29.59375 
z
M 47.21875 32.234375 
Q 47.125 39.59375 43.09375 43.984375 
Q 39.0625 48.390625 32.421875 48.390625 
Q 24.90625 48.390625 20.390625 44.140625 
Q 15.875 39.890625 15.1875 32.171875 
z
" id="DejaVuSans-101"/>
      <path d="M 54.890625 54.6875 
L 35.109375 28.078125 
L 55.90625 0 
L 45.3125 0 
L 29.390625 21.484375 
L 13.484375 0 
L 2.875 0 
L 24.125 28.609375 
L 4.6875 54.6875 
L 15.28125 54.6875 
L 29.78125 35.203125 
L 44.28125 54.6875 
z
" id="DejaVuSans-120"/>
      <path d="M 18.3125 70.21875 
L 18.3125 54.6875 
L 36.8125 54.6875 
L 36.8125 47.703125 
L 18.3125 47.703125 
L 18.3125 18.015625 
Q 18.3125 11.328125 20.140625 9.421875 
Q 21.96875 7.515625 27.59375 7.515625 
L 36.8125 7.515625 
L 36.8125 0 
L 27.59375 0 
Q 17.1875 0 13.234375 3.875 
Q 9.28125 7.765625 9.28125 18.015625 
L 9.28125 47.703125 
L 2.6875 47.703125 
L 2.6875 54.6875 
L 9.28125 54.6875 
L 9.28125 70.21875 
z
" id="DejaVuSans-116"/>
      <path d="M 48.78125 52.59375 
L 48.78125 44.1875 
Q 44.96875 46.296875 41.140625 47.34375 
Q 37.3125 48.390625 33.40625 48.390625 
Q 24.65625 48.390625 19.8125 42.84375 
Q 14.984375 37.3125 14.984375 27.296875 
Q 14.984375 17.28125 19.8125 11.734375 
Q 24.65625 6.203125 33.40625 6.203125 
Q 37.3125 6.203125 41.140625 7.25 
Q 44.96875 8.296875 48.78125 10.40625 
L 48.78125 2.09375 
Q 45.015625 0.34375 40.984375 -0.53125 
Q 36.96875 -1.421875 32.421875 -1.421875 
Q 20.0625 -1.421875 12.78125 6.34375 
Q 5.515625 14.109375 5.515625 27.296875 
Q 5.515625 40.671875 12.859375 48.328125 
Q 20.21875 56 33.015625 56 
Q 37.15625 56 41.109375 55.140625 
Q 45.0625 54.296875 48.78125 52.59375 
z
" id="DejaVuSans-99"/>
      <path d="M 45.40625 46.390625 
L 45.40625 75.984375 
L 54.390625 75.984375 
L 54.390625 0 
L 45.40625 0 
L 45.40625 8.203125 
Q 42.578125 3.328125 38.25 0.953125 
Q 33.9375 -1.421875 27.875 -1.421875 
Q 17.96875 -1.421875 11.734375 6.484375 
Q 5.515625 14.40625 5.515625 27.296875 
Q 5.515625 40.1875 11.734375 48.09375 
Q 17.96875 56 27.875 56 
Q 33.9375 56 38.25 53.625 
Q 42.578125 51.265625 45.40625 46.390625 
z
M 14.796875 27.296875 
Q 14.796875 17.390625 18.875 11.75 
Q 22.953125 6.109375 30.078125 6.109375 
Q 37.203125 6.109375 41.296875 11.75 
Q 45.40625 17.390625 45.40625 27.296875 
Q 45.40625 37.203125 41.296875 42.84375 
Q 37.203125 48.484375 30.078125 48.484375 
Q 22.953125 48.484375 18.875 42.84375 
Q 14.796875 37.203125 14.796875 27.296875 
z
" id="DejaVuSans-100"/>
      <path d="M 10.6875 12.40625 
L 21 12.40625 
L 21 0 
L 10.6875 0 
z
" id="DejaVuSans-46"/>
     </defs>
     <use xlink:href="#DejaVuSans-87"/>
     <use x="98.876953" xlink:href="#DejaVuSans-52"/>
     <use x="162.5" xlink:href="#DejaVuSans-48"/>
     <use x="226.123047" xlink:href="#DejaVuSans-95"/>
     <use x="276.123047" xlink:href="#DejaVuSans-95"/>
     <use x="326.123047" xlink:href="#DejaVuSans-72"/>
     <use x="401.318359" xlink:href="#DejaVuSans-51"/>
     <use x="464.941406" xlink:href="#DejaVuSans-48"/>
     <use x="528.564453" xlink:href="#DejaVuSans-95"/>
     <use x="578.564453" xlink:href="#DejaVuSans-95"/>
     <use x="628.564453" xlink:href="#DejaVuSans-65"/>
     <use x="696.972656" xlink:href="#DejaVuSans-48"/>
     <use x="760.595703" xlink:href="#DejaVuSans-50"/>
     <use x="824.21875" xlink:href="#DejaVuSans-48"/>
     <use x="887.841797" xlink:href="#DejaVuSans-95"/>
     <use x="937.841797" xlink:href="#DejaVuSans-98"/>
     <use x="1001.318359" xlink:href="#DejaVuSans-97"/>
     <use x="1062.597656" xlink:href="#DejaVuSans-114"/>
     <use x="1103.710938" xlink:href="#DejaVuSans-115"/>
     <use x="1155.810547" xlink:href="#DejaVuSans-95"/>
     <use x="1205.810547" xlink:href="#DejaVuSans-101"/>
     <use x="1265.583984" xlink:href="#DejaVuSans-120"/>
     <use x="1324.763672" xlink:href="#DejaVuSans-116"/>
     <use x="1363.972656" xlink:href="#DejaVuSans-114"/>
     <use x="1405.085938" xlink:href="#DejaVuSans-97"/>
     <use x="1466.365234" xlink:href="#DejaVuSans-99"/>
     <use x="1521.345703" xlink:href="#DejaVuSans-116"/>
     <use x="1560.554688" xlink:href="#DejaVuSans-101"/>
     <use x="1622.078125" xlink:href="#DejaVuSans-100"/>
     <use x="1685.554688" xlink:href="#DejaVuSans-46"/>
     <use x="1717.341797" xlink:href="#DejaVuSans-116"/>
     <use x="1756.550781" xlink:href="#DejaVuSans-120"/>
     <use x="1815.730469" xlink:href="#DejaVuSans-116"/>
    </g>
   </g>
  </g>
 </g>
 <defs>
  <clipPath id="pee642bad0b">
   <rect height="217.44" width="217.44" x="112.68" y="34.56"/>
  </clipPath>
 </defs>
</svg>
