<?xml version="1.0" encoding="utf-8" standalone="no"?>
<!DOCTYPE svg PUBLIC "-//W3C//DTD SVG 1.1//EN"
  "http://www.w3.org/Graphics/SVG/1.1/DTD/svg11.dtd">
<!-- Created with matplotlib (https://matplotlib.org/) -->
<svg height="288pt" version="1.1" viewBox="0 0 432 288" width="432pt" xmlns="http://www.w3.org/2000/svg" xmlns:xlink="http://www.w3.org/1999/xlink">
 <metadata>
  <rdf:RDF xmlns:cc="http://creativecommons.org/ns#" xmlns:dc="http://purl.org/dc/elements/1.1/" xmlns:rdf="http://www.w3.org/1999/02/22-rdf-syntax-ns#">
   <cc:Work>
    <dc:type rdf:resource="http://purl.org/dc/dcmitype/StillImage"/>
    <dc:date>2021-06-13T21:59:36.597017</dc:date>
    <dc:format>image/svg+xml</dc:format>
    <dc:creator>
     <cc:Agent>
      <dc:title>Matplotlib v3.3.4, https://matplotlib.org/</dc:title>
     </cc:Agent>
    </dc:creator>
   </cc:Work>
  </rdf:RDF>
 </metadata>
 <defs>
  <style type="text/css">*{stroke-linecap:butt;stroke-linejoin:round;}</style>
 </defs>
 <g id="figure_1">
  <g id="patch_1">
   <path d="M 0 288 
L 432 288 
L 432 0 
L 0 0 
z
" style="fill:#ffffff;"/>
  </g>
  <g id="patch_2">
   <path d="M 112.68 252 
L 330.12 252 
L 330.12 34.56 
L 112.68 34.56 
z
" style="fill:#ffffff;"/>
  </g>
  <g id="pane3d_1">
   <g id="patch_3">
    <path d="M 129.09822 198.386264 
L 200.904009 138.197228 
L 199.90584 51.393878 
L 124.663773 106.302111 
" style="fill:#f2f2f2;opacity:0.5;stroke:#f2f2f2;stroke-linejoin:miter;"/>
   </g>
  </g>
  <g id="pane3d_2">
   <g id="patch_4">
    <path d="M 200.904009 138.197228 
L 316.12668 171.68791 
L 320.238571 81.894718 
L 199.90584 51.393878 
" style="fill:#e6e6e6;opacity:0.5;stroke:#e6e6e6;stroke-linejoin:miter;"/>
   </g>
  </g>
  <g id="pane3d_3">
   <g id="patch_5">
    <path d="M 129.09822 198.386264 
L 251.239879 238.27773 
L 316.12668 171.68791 
L 200.904009 138.197228 
" style="fill:#ececec;opacity:0.5;stroke:#ececec;stroke-linejoin:miter;"/>
   </g>
  </g>
  <g id="axis3d_1">
   <g id="line2d_1">
    <path d="M 129.09822 198.386264 
L 251.239879 238.27773 
" style="fill:none;stroke:#000000;stroke-linecap:square;stroke-width:0.8;"/>
   </g>
   <g id="Line3DCollection_1">
    <path d="M 136.495759 200.802301 
L 207.911499 140.234029 
L 207.209612 53.245171 
" style="fill:none;stroke:#b0b0b0;stroke-width:0.8;"/>
    <path d="M 162.23134 209.207541 
L 232.260894 147.311436 
L 232.60309 59.681678 
" style="fill:none;stroke:#b0b0b0;stroke-width:0.8;"/>
    <path d="M 188.559037 217.806167 
L 257.123632 154.538053 
L 258.555303 66.259807 
" style="fill:none;stroke:#b0b0b0;stroke-width:0.8;"/>
    <path d="M 215.499525 226.604931 
L 282.516121 161.918647 
L 285.084894 72.984285 
" style="fill:none;stroke:#b0b0b0;stroke-width:0.8;"/>
    <path d="M 243.074449 235.610901 
L 308.455474 169.458193 
L 312.21135 79.860051 
" style="fill:none;stroke:#b0b0b0;stroke-width:0.8;"/>
   </g>
   <g id="xtick_1">
    <g id="line2d_2">
     <path d="M 137.117644 200.274876 
L 135.249322 201.859414 
" style="fill:none;stroke:#000000;stroke-linecap:square;stroke-width:0.8;"/>
    </g>
    <g id="text_1">
     <!-- 0 -->
     <g transform="translate(125.77919 224.124533)scale(0.1 -0.1)">
      <defs>
       <path d="M 31.78125 66.40625 
Q 24.171875 66.40625 20.328125 58.90625 
Q 16.5 51.421875 16.5 36.375 
Q 16.5 21.390625 20.328125 13.890625 
Q 24.171875 6.390625 31.78125 6.390625 
Q 39.453125 6.390625 43.28125 13.890625 
Q 47.125 21.390625 47.125 36.375 
Q 47.125 51.421875 43.28125 58.90625 
Q 39.453125 66.40625 31.78125 66.40625 
z
M 31.78125 74.21875 
Q 44.046875 74.21875 50.515625 64.515625 
Q 56.984375 54.828125 56.984375 36.375 
Q 56.984375 17.96875 50.515625 8.265625 
Q 44.046875 -1.421875 31.78125 -1.421875 
Q 19.53125 -1.421875 13.0625 8.265625 
Q 6.59375 17.96875 6.59375 36.375 
Q 6.59375 54.828125 13.0625 64.515625 
Q 19.53125 74.21875 31.78125 74.21875 
z
" id="DejaVuSans-48"/>
      </defs>
      <use xlink:href="#DejaVuSans-48"/>
     </g>
    </g>
   </g>
   <g id="xtick_2">
    <g id="line2d_3">
     <path d="M 162.841716 208.668056 
L 161.007937 210.288854 
" style="fill:none;stroke:#000000;stroke-linecap:square;stroke-width:0.8;"/>
    </g>
    <g id="text_2">
     <!-- 2 -->
     <g transform="translate(151.547192 232.748132)scale(0.1 -0.1)">
      <defs>
       <path d="M 19.1875 8.296875 
L 53.609375 8.296875 
L 53.609375 0 
L 7.328125 0 
L 7.328125 8.296875 
Q 12.9375 14.109375 22.625 23.890625 
Q 32.328125 33.6875 34.8125 36.53125 
Q 39.546875 41.84375 41.421875 45.53125 
Q 43.3125 49.21875 43.3125 52.78125 
Q 43.3125 58.59375 39.234375 62.25 
Q 35.15625 65.921875 28.609375 65.921875 
Q 23.96875 65.921875 18.8125 64.3125 
Q 13.671875 62.703125 7.8125 59.421875 
L 7.8125 69.390625 
Q 13.765625 71.78125 18.9375 73 
Q 24.125 74.21875 28.421875 74.21875 
Q 39.75 74.21875 46.484375 68.546875 
Q 53.21875 62.890625 53.21875 53.421875 
Q 53.21875 48.921875 51.53125 44.890625 
Q 49.859375 40.875 45.40625 35.40625 
Q 44.1875 33.984375 37.640625 27.21875 
Q 31.109375 20.453125 19.1875 8.296875 
z
" id="DejaVuSans-50"/>
      </defs>
      <use xlink:href="#DejaVuSans-50"/>
     </g>
    </g>
   </g>
   <g id="xtick_3">
    <g id="line2d_4">
     <path d="M 189.15721 217.254202 
L 187.360066 218.91252 
" style="fill:none;stroke:#000000;stroke-linecap:square;stroke-width:0.8;"/>
    </g>
    <g id="text_3">
     <!-- 4 -->
     <g transform="translate(177.91082 241.571064)scale(0.1 -0.1)">
      <defs>
       <path d="M 37.796875 64.3125 
L 12.890625 25.390625 
L 37.796875 25.390625 
z
M 35.203125 72.90625 
L 47.609375 72.90625 
L 47.609375 25.390625 
L 58.015625 25.390625 
L 58.015625 17.1875 
L 47.609375 17.1875 
L 47.609375 0 
L 37.796875 0 
L 37.796875 17.1875 
L 4.890625 17.1875 
L 4.890625 26.703125 
z
" id="DejaVuSans-52"/>
      </defs>
      <use xlink:href="#DejaVuSans-52"/>
     </g>
    </g>
   </g>
   <g id="xtick_4">
    <g id="line2d_5">
     <path d="M 216.084757 226.040048 
L 214.326462 227.737204 
" style="fill:none;stroke:#000000;stroke-linecap:square;stroke-width:0.8;"/>
    </g>
    <g id="text_4">
     <!-- 6 -->
     <g transform="translate(204.890965 250.600322)scale(0.1 -0.1)">
      <defs>
       <path d="M 33.015625 40.375 
Q 26.375 40.375 22.484375 35.828125 
Q 18.609375 31.296875 18.609375 23.390625 
Q 18.609375 15.53125 22.484375 10.953125 
Q 26.375 6.390625 33.015625 6.390625 
Q 39.65625 6.390625 43.53125 10.953125 
Q 47.40625 15.53125 47.40625 23.390625 
Q 47.40625 31.296875 43.53125 35.828125 
Q 39.65625 40.375 33.015625 40.375 
z
M 52.59375 71.296875 
L 52.59375 62.3125 
Q 48.875 64.0625 45.09375 64.984375 
Q 41.3125 65.921875 37.59375 65.921875 
Q 27.828125 65.921875 22.671875 59.328125 
Q 17.53125 52.734375 16.796875 39.40625 
Q 19.671875 43.65625 24.015625 45.921875 
Q 28.375 48.1875 33.59375 48.1875 
Q 44.578125 48.1875 50.953125 41.515625 
Q 57.328125 34.859375 57.328125 23.390625 
Q 57.328125 12.15625 50.6875 5.359375 
Q 44.046875 -1.421875 33.015625 -1.421875 
Q 20.359375 -1.421875 13.671875 8.265625 
Q 6.984375 17.96875 6.984375 36.375 
Q 6.984375 53.65625 15.1875 63.9375 
Q 23.390625 74.21875 37.203125 74.21875 
Q 40.921875 74.21875 44.703125 73.484375 
Q 48.484375 72.75 52.59375 71.296875 
z
" id="DejaVuSans-54"/>
      </defs>
      <use xlink:href="#DejaVuSans-54"/>
     </g>
    </g>
   </g>
   <g id="xtick_5">
    <g id="line2d_6">
     <path d="M 243.645962 235.032643 
L 241.928856 236.770015 
" style="fill:none;stroke:#000000;stroke-linecap:square;stroke-width:0.8;"/>
    </g>
    <g id="text_5">
     <!-- 8 -->
     <g transform="translate(232.509511 259.84323)scale(0.1 -0.1)">
      <defs>
       <path d="M 31.78125 34.625 
Q 24.75 34.625 20.71875 30.859375 
Q 16.703125 27.09375 16.703125 20.515625 
Q 16.703125 13.921875 20.71875 10.15625 
Q 24.75 6.390625 31.78125 6.390625 
Q 38.8125 6.390625 42.859375 10.171875 
Q 46.921875 13.96875 46.921875 20.515625 
Q 46.921875 27.09375 42.890625 30.859375 
Q 38.875 34.625 31.78125 34.625 
z
M 21.921875 38.8125 
Q 15.578125 40.375 12.03125 44.71875 
Q 8.5 49.078125 8.5 55.328125 
Q 8.5 64.0625 14.71875 69.140625 
Q 20.953125 74.21875 31.78125 74.21875 
Q 42.671875 74.21875 48.875 69.140625 
Q 55.078125 64.0625 55.078125 55.328125 
Q 55.078125 49.078125 51.53125 44.71875 
Q 48 40.375 41.703125 38.8125 
Q 48.828125 37.15625 52.796875 32.3125 
Q 56.78125 27.484375 56.78125 20.515625 
Q 56.78125 9.90625 50.3125 4.234375 
Q 43.84375 -1.421875 31.78125 -1.421875 
Q 19.734375 -1.421875 13.25 4.234375 
Q 6.78125 9.90625 6.78125 20.515625 
Q 6.78125 27.484375 10.78125 32.3125 
Q 14.796875 37.15625 21.921875 38.8125 
z
M 18.3125 54.390625 
Q 18.3125 48.734375 21.84375 45.5625 
Q 25.390625 42.390625 31.78125 42.390625 
Q 38.140625 42.390625 41.71875 45.5625 
Q 45.3125 48.734375 45.3125 54.390625 
Q 45.3125 60.0625 41.71875 63.234375 
Q 38.140625 66.40625 31.78125 66.40625 
Q 25.390625 66.40625 21.84375 63.234375 
Q 18.3125 60.0625 18.3125 54.390625 
z
" id="DejaVuSans-56"/>
      </defs>
      <use xlink:href="#DejaVuSans-56"/>
     </g>
    </g>
   </g>
  </g>
  <g id="axis3d_2">
   <g id="line2d_7">
    <path d="M 316.12668 171.68791 
L 251.239879 238.27773 
" style="fill:none;stroke:#000000;stroke-linecap:square;stroke-width:0.8;"/>
   </g>
   <g id="Line3DCollection_2">
    <path d="M 129.866948 102.505071 
L 134.046245 194.238731 
L 255.729543 233.67023 
" style="fill:none;stroke:#b0b0b0;stroke-width:0.8;"/>
    <path d="M 147.250212 89.819556 
L 150.59591 180.366474 
L 270.72626 218.279909 
" style="fill:none;stroke:#b0b0b0;stroke-width:0.8;"/>
    <path d="M 163.958537 77.626582 
L 166.530371 167.009893 
L 285.136664 203.491289 
" style="fill:none;stroke:#b0b0b0;stroke-width:0.8;"/>
    <path d="M 180.030483 65.898008 
L 181.883306 154.140758 
L 298.994481 189.269761 
" style="fill:none;stroke:#b0b0b0;stroke-width:0.8;"/>
    <path d="M 195.501727 54.607799 
L 196.68598 141.732864 
L 312.330896 175.583317 
" style="fill:none;stroke:#b0b0b0;stroke-width:0.8;"/>
   </g>
   <g id="xtick_6">
    <g id="line2d_8">
     <path d="M 254.704115 233.337939 
L 257.783053 234.33567 
" style="fill:none;stroke:#000000;stroke-linecap:square;stroke-width:0.8;"/>
    </g>
    <g id="text_6">
     <!-- 0 -->
     <g transform="translate(265.430654 254.693759)scale(0.1 -0.1)">
      <use xlink:href="#DejaVuSans-48"/>
     </g>
    </g>
   </g>
   <g id="xtick_7">
    <g id="line2d_9">
     <path d="M 269.71494 217.960734 
L 272.751463 218.919068 
" style="fill:none;stroke:#000000;stroke-linecap:square;stroke-width:0.8;"/>
    </g>
    <g id="text_7">
     <!-- 2 -->
     <g transform="translate(280.181112 239.024526)scale(0.1 -0.1)">
      <use xlink:href="#DejaVuSans-50"/>
     </g>
    </g>
   </g>
   <g id="xtick_8">
    <g id="line2d_10">
     <path d="M 284.139145 203.184468 
L 287.134182 204.105694 
" style="fill:none;stroke:#000000;stroke-linecap:square;stroke-width:0.8;"/>
    </g>
    <g id="text_8">
     <!-- 4 -->
     <g transform="translate(294.35448 223.968328)scale(0.1 -0.1)">
      <use xlink:href="#DejaVuSans-52"/>
     </g>
    </g>
   </g>
   <g id="xtick_9">
    <g id="line2d_11">
     <path d="M 298.010457 188.97459 
L 300.964927 189.860821 
" style="fill:none;stroke:#000000;stroke-linecap:square;stroke-width:0.8;"/>
    </g>
    <g id="text_9">
     <!-- 6 -->
     <g transform="translate(307.983974 209.489882)scale(0.1 -0.1)">
      <use xlink:href="#DejaVuSans-54"/>
     </g>
    </g>
   </g>
   <g id="xtick_10">
    <g id="line2d_12">
     <path d="M 311.360068 175.299146 
L 314.274875 176.15234 
" style="fill:none;stroke:#000000;stroke-linecap:square;stroke-width:0.8;"/>
    </g>
    <g id="text_10">
     <!-- 8 -->
     <g transform="translate(321.10031 195.556556)scale(0.1 -0.1)">
      <use xlink:href="#DejaVuSans-56"/>
     </g>
    </g>
   </g>
  </g>
  <g id="axis3d_3">
   <g id="line2d_13">
    <path d="M 316.12668 171.68791 
L 320.238571 81.894718 
" style="fill:none;stroke:#000000;stroke-linecap:square;stroke-width:0.8;"/>
   </g>
   <g id="Line3DCollection_3">
    <path d="M 316.205459 169.967571 
L 200.884845 136.530725 
L 129.013401 196.624949 
" style="fill:none;stroke:#b0b0b0;stroke-width:0.8;"/>
    <path d="M 316.979616 153.061976 
L 200.69661 120.161337 
L 128.179604 179.310627 
" style="fill:none;stroke:#b0b0b0;stroke-width:0.8;"/>
    <path d="M 317.76693 135.869036 
L 200.50533 103.527066 
L 127.331093 161.69074 
" style="fill:none;stroke:#b0b0b0;stroke-width:0.8;"/>
    <path d="M 318.567742 118.381361 
L 200.310928 86.621431 
L 126.467474 143.757126 
" style="fill:none;stroke:#b0b0b0;stroke-width:0.8;"/>
    <path d="M 319.3824 100.591307 
L 200.11333 69.437736 
L 125.588339 125.501331 
" style="fill:none;stroke:#b0b0b0;stroke-width:0.8;"/>
   </g>
   <g id="xtick_11">
    <g id="line2d_14">
     <path d="M 315.237563 169.686933 
L 318.143556 170.529516 
" style="fill:none;stroke:#000000;stroke-linecap:square;stroke-width:0.8;"/>
    </g>
    <g id="text_11">
     <!-- 0 -->
     <g transform="translate(331.275915 174.966846)scale(0.1 -0.1)">
      <use xlink:href="#DejaVuSans-48"/>
     </g>
    </g>
   </g>
   <g id="xtick_12">
    <g id="line2d_15">
     <path d="M 316.003257 152.785729 
L 318.934677 153.615134 
" style="fill:none;stroke:#000000;stroke-linecap:square;stroke-width:0.8;"/>
    </g>
    <g id="text_12">
     <!-- 5000 -->
     <g transform="translate(322.656693 158.101994)scale(0.1 -0.1)">
      <defs>
       <path d="M 10.796875 72.90625 
L 49.515625 72.90625 
L 49.515625 64.59375 
L 19.828125 64.59375 
L 19.828125 46.734375 
Q 21.96875 47.46875 24.109375 47.828125 
Q 26.265625 48.1875 28.421875 48.1875 
Q 40.625 48.1875 47.75 41.5 
Q 54.890625 34.8125 54.890625 23.390625 
Q 54.890625 11.625 47.5625 5.09375 
Q 40.234375 -1.421875 26.90625 -1.421875 
Q 22.3125 -1.421875 17.546875 -0.640625 
Q 12.796875 0.140625 7.71875 1.703125 
L 7.71875 11.625 
Q 12.109375 9.234375 16.796875 8.0625 
Q 21.484375 6.890625 26.703125 6.890625 
Q 35.15625 6.890625 40.078125 11.328125 
Q 45.015625 15.765625 45.015625 23.390625 
Q 45.015625 31 40.078125 35.4375 
Q 35.15625 39.890625 26.703125 39.890625 
Q 22.75 39.890625 18.8125 39.015625 
Q 14.890625 38.140625 10.796875 36.28125 
z
" id="DejaVuSans-53"/>
      </defs>
      <use xlink:href="#DejaVuSans-53"/>
      <use x="63.623047" xlink:href="#DejaVuSans-48"/>
      <use x="127.246094" xlink:href="#DejaVuSans-48"/>
      <use x="190.869141" xlink:href="#DejaVuSans-48"/>
     </g>
    </g>
   </g>
   <g id="xtick_13">
    <g id="line2d_16">
     <path d="M 316.78196 135.597371 
L 319.739256 136.413024 
" style="fill:none;stroke:#000000;stroke-linecap:square;stroke-width:0.8;"/>
    </g>
    <g id="text_13">
     <!-- 10000 -->
     <g transform="translate(320.415626 140.951559)scale(0.1 -0.1)">
      <defs>
       <path d="M 12.40625 8.296875 
L 28.515625 8.296875 
L 28.515625 63.921875 
L 10.984375 60.40625 
L 10.984375 69.390625 
L 28.421875 72.90625 
L 38.28125 72.90625 
L 38.28125 8.296875 
L 54.390625 8.296875 
L 54.390625 0 
L 12.40625 0 
z
" id="DejaVuSans-49"/>
      </defs>
      <use xlink:href="#DejaVuSans-49"/>
      <use x="63.623047" xlink:href="#DejaVuSans-48"/>
      <use x="127.246094" xlink:href="#DejaVuSans-48"/>
      <use x="190.869141" xlink:href="#DejaVuSans-48"/>
      <use x="254.492188" xlink:href="#DejaVuSans-48"/>
     </g>
    </g>
   </g>
   <g id="xtick_14">
    <g id="line2d_17">
     <path d="M 317.574007 118.114476 
L 320.557638 118.915782 
" style="fill:none;stroke:#000000;stroke-linecap:square;stroke-width:0.8;"/>
    </g>
    <g id="text_14">
     <!-- 15000 -->
     <g transform="translate(321.371866 123.508224)scale(0.1 -0.1)">
      <use xlink:href="#DejaVuSans-49"/>
      <use x="63.623047" xlink:href="#DejaVuSans-53"/>
      <use x="127.246094" xlink:href="#DejaVuSans-48"/>
      <use x="190.869141" xlink:href="#DejaVuSans-48"/>
      <use x="254.492188" xlink:href="#DejaVuSans-48"/>
     </g>
    </g>
   </g>
   <g id="xtick_15">
    <g id="line2d_18">
     <path d="M 318.379743 100.329409 
L 321.390183 101.115749 
" style="fill:none;stroke:#000000;stroke-linecap:square;stroke-width:0.8;"/>
    </g>
    <g id="text_15">
     <!-- 20000 -->
     <g transform="translate(322.344577 105.764423)scale(0.1 -0.1)">
      <use xlink:href="#DejaVuSans-50"/>
      <use x="63.623047" xlink:href="#DejaVuSans-48"/>
      <use x="127.246094" xlink:href="#DejaVuSans-48"/>
      <use x="190.869141" xlink:href="#DejaVuSans-48"/>
      <use x="254.492188" xlink:href="#DejaVuSans-48"/>
     </g>
    </g>
   </g>
  </g>
  <g id="axes_1">
   <g id="Poly3DCollection_1">
    <path clip-path="url(#pf5c9de9483)" d="M 203.700438 142.115361 
L 203.69756 141.831707 
L 215.862714 145.382373 
L 215.863902 145.66701 
z
" style="fill:#050338;"/>
    <path clip-path="url(#pf5c9de9483)" d="M 196.401162 148.290596 
L 196.39723 148.005236 
L 203.69756 141.831707 
L 203.700438 142.115361 
z
" style="fill:#0b0777;"/>
    <path clip-path="url(#pf5c9de9483)" d="M 196.401162 148.290596 
L 203.700438 142.115361 
L 215.863902 145.66701 
L 208.637156 151.907182 
z
" style="fill:#070448;"/>
    <path clip-path="url(#pf5c9de9483)" d="M 196.39723 148.005236 
L 208.634935 151.62083 
L 215.862714 145.382373 
L 203.69756 141.831707 
z
" style="fill:#0a0667;"/>
    <path clip-path="url(#pf5c9de9483)" d="M 215.863902 145.66701 
L 215.862223 145.264864 
L 228.155784 148.852392 
L 228.155024 149.255935 
z
" style="fill:#050338;"/>
    <path clip-path="url(#pf5c9de9483)" d="M 208.637156 151.907182 
L 215.863902 145.66701 
L 215.862714 145.382373 
L 208.634935 151.62083 
z
" style="fill:#050338;"/>
    <path clip-path="url(#pf5c9de9483)" d="M 208.637156 151.907182 
L 208.634018 151.502613 
L 215.862223 145.264864 
L 215.863902 145.66701 
z
" style="fill:#0b0777;"/>
    <path clip-path="url(#pf5c9de9483)" d="M 196.401162 148.290596 
L 208.637156 151.907182 
L 208.634935 151.62083 
L 196.39723 148.005236 
z
" style="fill:#0b0777;"/>
    <path clip-path="url(#pf5c9de9483)" d="M 196.401162 148.290596 
L 196.394948 147.839597 
L 208.633646 151.454614 
L 208.637156 151.907182 
z
" style="fill:#050338;"/>
    <path clip-path="url(#pf5c9de9483)" d="M 208.637156 151.907182 
L 215.863902 145.66701 
L 228.155024 149.255935 
L 221.002748 155.562072 
z
" style="fill:#070448;"/>
    <path clip-path="url(#pf5c9de9483)" d="M 208.634018 151.502613 
L 221.002078 155.156095 
L 228.155784 148.852392 
L 215.862223 145.264864 
z
" style="fill:#0a0667;"/>
    <path clip-path="url(#pf5c9de9483)" d="M 188.96817 154.578956 
L 188.960232 154.125236 
L 196.394948 147.839597 
L 196.401162 148.290596 
z
" style="fill:#0b0777;"/>
    <path clip-path="url(#pf5c9de9483)" d="M 228.155024 149.255935 
L 228.168013 142.358111 
L 240.631378 145.960796 
L 240.575825 152.882725 
z
" style="fill:#180240;"/>
    <path clip-path="url(#pf5c9de9483)" d="M 221.002748 155.562072 
L 228.155024 149.255935 
L 228.155784 148.852392 
L 221.002078 155.156095 
z
" style="fill:#050338;"/>
    <path clip-path="url(#pf5c9de9483)" d="M 188.96817 154.578956 
L 196.401162 148.290596 
L 208.637156 151.907182 
L 201.27732 158.262275 
z
" style="fill:#070448;"/>
    <path clip-path="url(#pf5c9de9483)" d="M 188.960232 154.125236 
L 201.272116 157.806973 
L 208.633646 151.454614 
L 196.394948 147.839597 
z
" style="fill:#0a0667;"/>
    <path clip-path="url(#pf5c9de9483)" d="M 221.002748 155.562072 
L 220.991292 148.622419 
L 228.168013 142.358111 
L 228.155024 149.255935 
z
" style="fill:#320488;"/>
    <path clip-path="url(#pf5c9de9483)" d="M 208.637156 151.907182 
L 221.002748 155.562072 
L 221.002078 155.156095 
L 208.634018 151.502613 
z
" style="fill:#0b0777;"/>
    <path clip-path="url(#pf5c9de9483)" d="M 208.637156 151.907182 
L 208.619391 149.616957 
L 220.998954 153.263862 
L 221.002748 155.562072 
z
" style="fill:#0c033b;"/>
    <path clip-path="url(#pf5c9de9483)" d="M 221.002748 155.562072 
L 228.155024 149.255935 
L 240.575825 152.882725 
L 233.500008 159.25588 
z
" style="fill:#1e0252;"/>
    <path clip-path="url(#pf5c9de9483)" d="M 201.27732 158.262275 
L 208.637156 151.907182 
L 208.633646 151.454614 
L 201.272116 157.806973 
z
" style="fill:#050338;"/>
    <path clip-path="url(#pf5c9de9483)" d="M 201.27732 158.262275 
L 201.250988 155.958194 
L 208.619391 149.616957 
L 208.637156 151.907182 
z
" style="fill:#1a057d;"/>
    <path clip-path="url(#pf5c9de9483)" d="M 240.575825 152.882725 
L 240.645418 144.211309 
L 253.252418 147.846174 
L 253.128369 156.547983 
z
" style="fill:#1c0142;"/>
    <path clip-path="url(#pf5c9de9483)" d="M 188.96817 154.578956 
L 201.27732 158.262275 
L 201.272116 157.806973 
L 188.960232 154.125236 
z
" style="fill:#0b0777;"/>
    <path clip-path="url(#pf5c9de9483)" d="M 188.96817 154.578956 
L 188.952503 153.683489 
L 201.26705 157.363686 
L 201.27732 158.262275 
z
" style="fill:#070339;"/>
    <path clip-path="url(#pf5c9de9483)" d="M 220.991292 148.622419 
L 233.531642 152.291907 
L 240.631378 145.960796 
L 228.168013 142.358111 
z
" style="fill:#2b0376;"/>
    <path clip-path="url(#pf5c9de9483)" d="M 201.27732 158.262275 
L 208.637156 151.907182 
L 221.002748 155.562072 
L 213.718049 161.984967 
z
" style="fill:#10034c;"/>
    <path clip-path="url(#pf5c9de9483)" d="M 233.500008 159.25588 
L 240.575825 152.882725 
L 240.631378 145.960796 
L 233.531642 152.291907 
z
" style="fill:#180240;"/>
    <path clip-path="url(#pf5c9de9483)" d="M 233.500008 159.25588 
L 233.539637 150.531723 
L 240.645418 144.211309 
L 240.575825 152.882725 
z
" style="fill:#3b038b;"/>
    <path clip-path="url(#pf5c9de9483)" d="M 201.250988 155.958194 
L 213.705857 159.67283 
L 220.998954 153.263862 
L 208.619391 149.616957 
z
" style="fill:#17056d;"/>
    <path clip-path="url(#pf5c9de9483)" d="M 233.500008 159.25588 
L 240.575825 152.882725 
L 253.128369 156.547983 
L 246.131049 162.989229 
z
" style="fill:#240254;"/>
    <path clip-path="url(#pf5c9de9483)" d="M 181.397755 160.983577 
L 181.378558 160.082693 
L 188.952503 153.683489 
L 188.96817 154.578956 
z
" style="fill:#0e0678;"/>
    <path clip-path="url(#pf5c9de9483)" d="M 221.002748 155.562072 
L 233.500008 159.25588 
L 233.531642 152.291907 
L 220.991292 148.622419 
z
" style="fill:#320488;"/>
    <path clip-path="url(#pf5c9de9483)" d="M 213.718049 161.984967 
L 221.002748 155.562072 
L 220.998954 153.263862 
L 213.705857 159.67283 
z
" style="fill:#0c033b;"/>
    <path clip-path="url(#pf5c9de9483)" d="M 181.397755 160.983577 
L 188.96817 154.578956 
L 201.27732 158.262275 
L 193.780682 164.735494 
z
" style="fill:#090449;"/>
    <path clip-path="url(#pf5c9de9483)" d="M 253.128369 156.547983 
L 253.245947 148.300103 
L 265.985057 151.975499 
L 265.814761 160.252323 
z
" style="fill:#1a0241;"/>
    <path clip-path="url(#pf5c9de9483)" d="M 181.378558 160.082693 
L 193.766947 163.831459 
L 201.26705 157.363686 
L 188.952503 153.683489 
z
" style="fill:#0c0668;"/>
    <path clip-path="url(#pf5c9de9483)" d="M 201.27732 158.262275 
L 213.718049 161.984967 
L 213.705857 159.67283 
L 201.250988 155.958194 
z
" style="fill:#1a057d;"/>
    <path clip-path="url(#pf5c9de9483)" d="M 213.718049 161.984967 
L 221.002748 155.562072 
L 233.500008 159.25588 
L 226.292478 165.747667 
z
" style="fill:#43015a;"/>
    <path clip-path="url(#pf5c9de9483)" d="M 233.539637 150.531723 
L 246.225822 154.23441 
L 253.252418 147.846174 
L 240.645418 144.211309 
z
" style="fill:#330379;"/>
    <path clip-path="url(#pf5c9de9483)" d="M 221.002748 155.562072 
L 220.968629 134.894415 
L 233.594223 138.515043 
L 233.500008 159.25588 
z
" style="fill:#340146;"/>
    <path clip-path="url(#pf5c9de9483)" d="M 246.131049 162.989229 
L 246.220878 154.691121 
L 253.245947 148.300103 
L 253.128369 156.547983 
z
" style="fill:#38038a;"/>
    <path clip-path="url(#pf5c9de9483)" d="M 246.131049 162.989229 
L 253.128369 156.547983 
L 253.252418 147.846174 
L 246.225822 154.23441 
z
" style="fill:#1c0142;"/>
    <path clip-path="url(#pf5c9de9483)" d="M 246.131049 162.989229 
L 253.128369 156.547983 
L 265.814761 160.252323 
L 258.898031 166.762758 
z
" style="fill:#220253;"/>
    <path clip-path="url(#pf5c9de9483)" d="M 193.780682 164.735494 
L 201.27732 158.262275 
L 201.26705 157.363686 
L 193.766947 163.831459 
z
" style="fill:#070339;"/>
    <path clip-path="url(#pf5c9de9483)" d="M 201.27732 158.262275 
L 201.170911 148.951455 
L 213.668781 152.641421 
L 213.718049 161.984967 
z
" style="fill:#1d0142;"/>
    <path clip-path="url(#pf5c9de9483)" d="M 213.718049 161.984967 
L 213.6084 141.190317 
L 220.968629 134.894415 
L 221.002748 155.562072 
z
" style="fill:#6e0294;"/>
    <path clip-path="url(#pf5c9de9483)" d="M 233.500008 159.25588 
L 246.131049 162.989229 
L 246.225822 154.23441 
L 233.539637 150.531723 
z
" style="fill:#3b038b;"/>
    <path clip-path="url(#pf5c9de9483)" d="M 181.397755 160.983577 
L 193.780682 164.735494 
L 193.766947 163.831459 
L 181.378558 160.082693 
z
" style="fill:#0e0678;"/>
    <path clip-path="url(#pf5c9de9483)" d="M 193.780682 164.735494 
L 193.638365 155.367886 
L 201.170911 148.951455 
L 201.27732 158.262275 
z
" style="fill:#3e038c;"/>
    <path clip-path="url(#pf5c9de9483)" d="M 181.397755 160.983577 
L 181.352007 158.8367 
L 193.747951 162.581103 
L 193.780682 164.735494 
z
" style="fill:#0b033b;"/>
    <path clip-path="url(#pf5c9de9483)" d="M 193.780682 164.735494 
L 201.27732 158.262275 
L 213.718049 161.984967 
L 206.297214 168.527892 
z
" style="fill:#250255;"/>
    <path clip-path="url(#pf5c9de9483)" d="M 265.814761 160.252323 
L 266.011375 150.696378 
L 278.895938 154.406809 
L 278.637155 163.996376 
z
" style="fill:#1d0142;"/>
    <path clip-path="url(#pf5c9de9483)" d="M 226.292478 165.747667 
L 233.500008 159.25588 
L 246.131049 162.989229 
L 239.002775 169.551023 
z
" style="fill:#460359;"/>
    <path clip-path="url(#pf5c9de9483)" d="M 246.220878 154.691121 
L 259.041256 158.43545 
L 265.985057 151.975499 
L 253.245947 148.300103 
z
" style="fill:#300378;"/>
    <path clip-path="url(#pf5c9de9483)" d="M 173.686069 167.507715 
L 173.631601 165.3478 
L 181.352007 158.8367 
L 181.397755 160.983577 
z
" style="fill:#18057c;"/>
    <path clip-path="url(#pf5c9de9483)" d="M 258.898031 166.762758 
L 265.814761 160.252323 
L 265.985057 151.975499 
L 259.041256 158.43545 
z
" style="fill:#1a0241;"/>
    <path clip-path="url(#pf5c9de9483)" d="M 233.500008 159.25588 
L 233.601272 136.963324 
L 246.37323 140.617516 
L 246.131049 162.989229 
z
" style="fill:#370245;"/>
    <path clip-path="url(#pf5c9de9483)" d="M 258.898031 166.762758 
L 259.063392 157.148471 
L 266.011375 150.696378 
L 265.814761 160.252323 
z
" style="fill:#3e038c;"/>
    <path clip-path="url(#pf5c9de9483)" d="M 258.898031 166.762758 
L 265.814761 160.252323 
L 278.637155 163.996376 
L 271.803162 170.57712 
z
" style="fill:#250255;"/>
    <path clip-path="url(#pf5c9de9483)" d="M 226.292478 165.747667 
L 233.500008 159.25588 
L 233.594223 138.515043 
L 226.312762 144.879176 
z
" style="fill:#340146;"/>
    <path clip-path="url(#pf5c9de9483)" d="M 173.686069 167.507715 
L 181.397755 160.983577 
L 193.780682 164.735494 
L 186.143392 171.330164 
z
" style="fill:#0e034b;"/>
    <path clip-path="url(#pf5c9de9483)" d="M 246.131049 162.989229 
L 258.898031 166.762758 
L 259.041256 158.43545 
L 246.220878 154.691121 
z
" style="fill:#38038a;"/>
    <path clip-path="url(#pf5c9de9483)" d="M 226.292478 165.747667 
L 226.31428 143.317745 
L 233.601272 136.963324 
L 233.500008 159.25588 
z
" style="fill:#750593;"/>
    <path clip-path="url(#pf5c9de9483)" d="M 193.638365 155.367886 
L 206.212735 159.12727 
L 213.668781 152.641421 
L 201.170911 148.951455 
z
" style="fill:#36027a;"/>
    <path clip-path="url(#pf5c9de9483)" d="M 173.631601 165.3478 
L 186.102097 169.16267 
L 193.747951 162.581103 
L 181.352007 158.8367 
z
" style="fill:#15056c;"/>
    <path clip-path="url(#pf5c9de9483)" d="M 206.297214 168.527892 
L 213.718049 161.984967 
L 213.668781 152.641421 
L 206.212735 159.12727 
z
" style="fill:#1d0142;"/>
    <path clip-path="url(#pf5c9de9483)" d="M 206.297214 168.527892 
L 213.718049 161.984967 
L 226.292478 165.747667 
L 218.949524 172.361429 
z
" style="fill:#631b49;"/>
    <path clip-path="url(#pf5c9de9483)" d="M 278.637155 163.996376 
L 278.864522 155.570963 
L 291.880911 159.325705 
L 291.597749 167.780781 
z
" style="fill:#1b0141;"/>
    <path clip-path="url(#pf5c9de9483)" d="M 213.718049 161.984967 
L 226.292478 165.747667 
L 226.312762 144.879176 
L 213.6084 141.190317 
z
" style="fill:#6e0294;"/>
    <path clip-path="url(#pf5c9de9483)" d="M 213.6084 141.190317 
L 226.312762 144.879176 
L 233.594223 138.515043 
L 220.968629 134.894415 
z
" style="fill:#600281;"/>
    <path clip-path="url(#pf5c9de9483)" d="M 239.002775 169.551023 
L 246.131049 162.989229 
L 258.898031 166.762758 
L 251.851153 173.395697 
z
" style="fill:#470359;"/>
    <path clip-path="url(#pf5c9de9483)" d="M 193.780682 164.735494 
L 206.297214 168.527892 
L 206.212735 159.12727 
L 193.638365 155.367886 
z
" style="fill:#3e038c;"/>
    <path clip-path="url(#pf5c9de9483)" d="M 186.143392 171.330164 
L 193.780682 164.735494 
L 193.747951 162.581103 
L 186.102097 169.16267 
z
" style="fill:#0b033b;"/>
    <path clip-path="url(#pf5c9de9483)" d="M 259.063392 157.148471 
L 272.031505 160.928916 
L 278.895938 154.406809 
L 266.011375 150.696378 
z
" style="fill:#36027a;"/>
    <path clip-path="url(#pf5c9de9483)" d="M 271.803162 170.57712 
L 272.003784 162.100234 
L 278.864522 155.570963 
L 278.637155 163.996376 
z
" style="fill:#39038b;"/>
    <path clip-path="url(#pf5c9de9483)" d="M 246.131049 162.989229 
L 246.378031 140.17398 
L 259.291837 143.866335 
L 258.898031 166.762758 
z
" style="fill:#380345;"/>
    <path clip-path="url(#pf5c9de9483)" d="M 271.803162 170.57712 
L 278.637155 163.996376 
L 278.895938 154.406809 
L 272.031505 160.928916 
z
" style="fill:#1d0142;"/>
    <path clip-path="url(#pf5c9de9483)" d="M 271.803162 170.57712 
L 278.637155 163.996376 
L 291.597749 167.780781 
L 284.848695 174.43298 
z
" style="fill:#230254;"/>
    <path clip-path="url(#pf5c9de9483)" d="M 291.597749 167.780781 
L 291.611686 167.364631 
L 304.715531 171.188588 
L 304.698789 171.606197 
z
" style="fill:#050338;"/>
    <path clip-path="url(#pf5c9de9483)" d="M 173.686069 167.507715 
L 186.143392 171.330164 
L 186.102097 169.16267 
L 173.631601 165.3478 
z
" style="fill:#18057c;"/>
    <path clip-path="url(#pf5c9de9483)" d="M 186.143392 171.330164 
L 193.780682 164.735494 
L 206.297214 168.527892 
L 198.736391 175.194243 
z
" style="fill:#43015a;"/>
    <path clip-path="url(#pf5c9de9483)" d="M 173.686069 167.507715 
L 173.603801 164.245395 
L 186.081021 168.056388 
L 186.143392 171.330164 
z
" style="fill:#0f023c;"/>
    <path clip-path="url(#pf5c9de9483)" d="M 213.718049 161.984967 
L 213.526881 125.730498 
L 226.327844 129.362958 
L 226.292478 165.747667 
z
" style="fill:#4d1539;"/>
    <path clip-path="url(#pf5c9de9483)" d="M 239.002775 169.551023 
L 246.131049 162.989229 
L 246.37323 140.617516 
L 239.167281 147.04123 
z
" style="fill:#370245;"/>
    <path clip-path="url(#pf5c9de9483)" d="M 239.002775 169.551023 
L 239.170543 146.594909 
L 246.378031 140.17398 
L 246.131049 162.989229 
z
" style="fill:#760693;"/>
    <path clip-path="url(#pf5c9de9483)" d="M 193.780682 164.735494 
L 193.464954 143.953588 
L 206.109793 147.672106 
L 206.297214 168.527892 
z
" style="fill:#340146;"/>
    <path clip-path="url(#pf5c9de9483)" d="M 258.898031 166.762758 
L 271.803162 170.57712 
L 272.031505 160.928916 
L 259.063392 157.148471 
z
" style="fill:#3e038c;"/>
    <path clip-path="url(#pf5c9de9483)" d="M 218.949524 172.361429 
L 226.292478 165.747667 
L 239.002775 169.551023 
L 231.739835 176.23678 
z
" style="fill:#672045;"/>
    <path clip-path="url(#pf5c9de9483)" d="M 284.848695 174.43298 
L 284.861352 174.0143 
L 291.611686 167.364631 
L 291.597749 167.780781 
z
" style="fill:#0b0777;"/>
    <path clip-path="url(#pf5c9de9483)" d="M 165.82912 174.154745 
L 165.733195 170.872547 
L 173.603801 164.245395 
L 173.686069 167.507715 
z
" style="fill:#200580;"/>
    <path clip-path="url(#pf5c9de9483)" d="M 226.292478 165.747667 
L 239.002775 169.551023 
L 239.167281 147.04123 
L 226.31428 143.317745 
z
" style="fill:#750593;"/>
    <path clip-path="url(#pf5c9de9483)" d="M 206.297214 168.527892 
L 205.969381 132.047402 
L 213.526881 125.730498 
L 213.718049 161.984967 
z
" style="fill:#a42d79;"/>
    <path clip-path="url(#pf5c9de9483)" d="M 186.143392 171.330164 
L 185.745014 150.420052 
L 193.464954 143.953588 
L 193.780682 164.735494 
z
" style="fill:#6e0294;"/>
    <path clip-path="url(#pf5c9de9483)" d="M 251.851153 173.395697 
L 258.898031 166.762758 
L 271.803162 170.57712 
L 264.839875 177.282368 
z
" style="fill:#4d0757;"/>
    <path clip-path="url(#pf5c9de9483)" d="M 272.003784 162.100234 
L 285.105854 165.926173 
L 291.880911 159.325705 
L 278.864522 155.570963 
z
" style="fill:#320378;"/>
    <path clip-path="url(#pf5c9de9483)" d="M 226.31428 143.317745 
L 239.167281 147.04123 
L 246.37323 140.617516 
L 233.601272 136.963324 
z
" style="fill:#650480;"/>
    <path clip-path="url(#pf5c9de9483)" d="M 284.848695 174.43298 
L 291.597749 167.780781 
L 291.880911 159.325705 
L 285.105854 165.926173 
z
" style="fill:#1b0141;"/>
    <path clip-path="url(#pf5c9de9483)" d="M 165.82912 174.154745 
L 173.686069 167.507715 
L 186.143392 171.330164 
L 178.361455 178.049733 
z
" style="fill:#13034d;"/>
    <path clip-path="url(#pf5c9de9483)" d="M 284.848695 174.43298 
L 291.597749 167.780781 
L 304.698789 171.606197 
L 298.036935 178.33102 
z
" style="fill:#070448;"/>
    <path clip-path="url(#pf5c9de9483)" d="M 258.898031 166.762758 
L 259.328367 141.742433 
L 272.39743 145.467487 
L 271.803162 170.57712 
z
" style="fill:#3c0544;"/>
    <path clip-path="url(#pf5c9de9483)" d="M 284.861352 174.0143 
L 298.052434 177.910869 
L 304.715531 171.188588 
L 291.611686 167.364631 
z
" style="fill:#0a0667;"/>
    <path clip-path="url(#pf5c9de9483)" d="M 198.736391 175.194243 
L 206.297214 168.527892 
L 218.949524 172.361429 
L 211.467294 179.100638 
z
" style="fill:#793832;"/>
    <path clip-path="url(#pf5c9de9483)" d="M 165.733195 170.872547 
L 178.285664 174.755982 
L 186.081021 168.056388 
L 173.603801 164.245395 
z
" style="fill:#1b046f;"/>
    <path clip-path="url(#pf5c9de9483)" d="M 271.803162 170.57712 
L 284.848695 174.43298 
L 285.105854 165.926173 
L 272.003784 162.100234 
z
" style="fill:#39038b;"/>
    <path clip-path="url(#pf5c9de9483)" d="M 251.851153 173.395697 
L 258.898031 166.762758 
L 259.291837 143.866335 
L 252.167643 150.357681 
z
" style="fill:#380345;"/>
    <path clip-path="url(#pf5c9de9483)" d="M 251.851153 173.395697 
L 252.197005 148.220395 
L 259.328367 141.742433 
L 258.898031 166.762758 
z
" style="fill:#7f0c90;"/>
    <path clip-path="url(#pf5c9de9483)" d="M 226.292478 165.747667 
L 226.330455 126.677169 
L 239.28934 130.339644 
L 239.002775 169.551023 
z
" style="fill:#511936;"/>
    <path clip-path="url(#pf5c9de9483)" d="M 231.739835 176.23678 
L 239.002775 169.551023 
L 251.851153 173.395697 
L 244.670417 180.154631 
z
" style="fill:#6b2442;"/>
    <path clip-path="url(#pf5c9de9483)" d="M 298.036935 178.33102 
L 304.698789 171.606197 
L 304.715531 171.188588 
L 298.052434 177.910869 
z
" style="fill:#050338;"/>
    <path clip-path="url(#pf5c9de9483)" d="M 178.361455 178.049733 
L 186.143392 171.330164 
L 186.081021 168.056388 
L 178.285664 174.755982 
z
" style="fill:#0f023c;"/>
    <path clip-path="url(#pf5c9de9483)" d="M 218.949524 172.361429 
L 226.292478 165.747667 
L 226.327844 129.362958 
L 218.851061 135.7495 
z
" style="fill:#4d1539;"/>
    <path clip-path="url(#pf5c9de9483)" d="M 239.002775 169.551023 
L 251.851153 173.395697 
L 252.167643 150.357681 
L 239.170543 146.594909 
z
" style="fill:#760693;"/>
    <path clip-path="url(#pf5c9de9483)" d="M 198.736391 175.194243 
L 206.297214 168.527892 
L 206.109793 147.672106 
L 198.46789 154.209594 
z
" style="fill:#340146;"/>
    <path clip-path="url(#pf5c9de9483)" d="M 271.803162 170.57712 
L 272.241812 152.0428 
L 285.410977 155.832731 
L 284.848695 174.43298 
z
" style="fill:#300046;"/>
    <path clip-path="url(#pf5c9de9483)" d="M 264.839875 177.282368 
L 271.803162 170.57712 
L 284.848695 174.43298 
L 277.971253 181.211726 
z
" style="fill:#3d005a;"/>
    <path clip-path="url(#pf5c9de9483)" d="M 218.949524 172.361429 
L 218.843791 133.046445 
L 226.330455 126.677169 
L 226.292478 165.747667 
z
" style="fill:#ab3572;"/>
    <path clip-path="url(#pf5c9de9483)" d="M 239.170543 146.594909 
L 252.167643 150.357681 
L 259.291837 143.866335 
L 246.378031 140.17398 
z
" style="fill:#660580;"/>
    <path clip-path="url(#pf5c9de9483)" d="M 284.848695 174.43298 
L 298.036935 178.33102 
L 298.052434 177.910869 
L 284.861352 174.0143 
z
" style="fill:#0b0777;"/>
    <path clip-path="url(#pf5c9de9483)" d="M 284.848695 174.43298 
L 284.864343 173.915356 
L 298.056097 177.811577 
L 298.036935 178.33102 
z
" style="fill:#050338;"/>
    <path clip-path="url(#pf5c9de9483)" d="M 178.361455 178.049733 
L 186.143392 171.330164 
L 198.736391 175.194243 
L 191.031582 181.987547 
z
" style="fill:#5e164d;"/>
    <path clip-path="url(#pf5c9de9483)" d="M 165.82912 174.154745 
L 178.361455 178.049733 
L 178.285664 174.755982 
L 165.733195 170.872547 
z
" style="fill:#200580;"/>
    <path clip-path="url(#pf5c9de9483)" d="M 206.297214 168.527892 
L 218.949524 172.361429 
L 218.851061 135.7495 
L 205.969381 132.047402 
z
" style="fill:#a42d79;"/>
    <path clip-path="url(#pf5c9de9483)" d="M 186.143392 171.330164 
L 198.736391 175.194243 
L 198.46789 154.209594 
L 185.745014 150.420052 
z
" style="fill:#6e0294;"/>
    <path clip-path="url(#pf5c9de9483)" d="M 165.82912 174.154745 
L 165.676182 168.921789 
L 178.240617 172.798329 
L 178.361455 178.049733 
z
" style="fill:#14023e;"/>
    <path clip-path="url(#pf5c9de9483)" d="M 264.839875 177.282368 
L 265.217747 158.633643 
L 272.241812 152.0428 
L 271.803162 170.57712 
z
" style="fill:#650095;"/>
    <path clip-path="url(#pf5c9de9483)" d="M 185.745014 150.420052 
L 198.46789 154.209594 
L 206.109793 147.672106 
L 193.464954 143.953588 
z
" style="fill:#600281;"/>
    <path clip-path="url(#pf5c9de9483)" d="M 211.467294 179.100638 
L 218.949524 172.361429 
L 231.739835 176.23678 
L 224.338378 183.050047 
z
" style="fill:#7b3a31;"/>
    <path clip-path="url(#pf5c9de9483)" d="M 277.971253 181.211726 
L 277.985254 180.690946 
L 284.864343 173.915356 
L 284.848695 174.43298 
z
" style="fill:#0b0777;"/>
    <path clip-path="url(#pf5c9de9483)" d="M 264.839875 177.282368 
L 271.803162 170.57712 
L 272.39743 145.467487 
L 265.351818 152.016959 
z
" style="fill:#3c0544;"/>
    <path clip-path="url(#pf5c9de9483)" d="M 157.822766 180.928173 
L 157.647242 175.663206 
L 165.676182 168.921789 
L 165.82912 174.154745 
z
" style="fill:#2a0484;"/>
    <path clip-path="url(#pf5c9de9483)" d="M 244.670417 180.154631 
L 251.851153 173.395697 
L 264.839875 177.282368 
L 257.743589 184.115686 
z
" style="fill:#6b2441;"/>
    <path clip-path="url(#pf5c9de9483)" d="M 239.002775 169.551023 
L 239.302783 128.500256 
L 252.417137 132.196453 
L 251.851153 173.395697 
z
" style="fill:#531c33;"/>
    <path clip-path="url(#pf5c9de9483)" d="M 186.143392 171.330164 
L 185.500416 137.581592 
L 198.303019 141.324187 
L 198.736391 175.194243 
z
" style="fill:#4a123c;"/>
    <path clip-path="url(#pf5c9de9483)" d="M 157.822766 180.928173 
L 165.82912 174.154745 
L 178.361455 178.049733 
L 170.430723 184.897786 
z
" style="fill:#190350;"/>
    <path clip-path="url(#pf5c9de9483)" d="M 206.297214 168.527892 
L 205.828888 116.413649 
L 218.808858 120.057209 
L 218.949524 172.361429 
z
" style="fill:#5f2c27;"/>
    <path clip-path="url(#pf5c9de9483)" d="M 277.971253 181.211726 
L 284.848695 174.43298 
L 298.036935 178.33102 
L 291.24765 185.184478 
z
" style="fill:#070448;"/>
    <path clip-path="url(#pf5c9de9483)" d="M 251.851153 173.395697 
L 264.839875 177.282368 
L 265.351818 152.016959 
L 252.197005 148.220395 
z
" style="fill:#7f0c90;"/>
    <path clip-path="url(#pf5c9de9483)" d="M 231.739835 176.23678 
L 239.002775 169.551023 
L 239.28934 130.339644 
L 231.885865 136.779618 
z
" style="fill:#511936;"/>
    <path clip-path="url(#pf5c9de9483)" d="M 205.969381 132.047402 
L 218.851061 135.7495 
L 226.327844 129.362958 
L 213.526881 125.730498 
z
" style="fill:#8e2769;"/>
    <path clip-path="url(#pf5c9de9483)" d="M 277.985254 180.690946 
L 291.265214 184.661865 
L 298.056097 177.811577 
L 284.864343 173.915356 
z
" style="fill:#0a0667;"/>
    <path clip-path="url(#pf5c9de9483)" d="M 231.739835 176.23678 
L 231.892716 134.928343 
L 239.302783 128.500256 
L 239.002775 169.551023 
z
" style="fill:#b03b6d;"/>
    <path clip-path="url(#pf5c9de9483)" d="M 191.031582 181.987547 
L 198.736391 175.194243 
L 211.467294 179.100638 
L 203.841786 185.968896 
z
" style="fill:#86561f;"/>
    <path clip-path="url(#pf5c9de9483)" d="M 178.361455 178.049733 
L 177.580023 144.090344 
L 185.500416 137.581592 
L 186.143392 171.330164 
z
" style="fill:#9c257f;"/>
    <path clip-path="url(#pf5c9de9483)" d="M 252.197005 148.220395 
L 265.351818 152.016959 
L 272.39743 145.467487 
L 259.328367 141.742433 
z
" style="fill:#6e0a7d;"/>
    <path clip-path="url(#pf5c9de9483)" d="M 198.736391 175.194243 
L 198.065364 122.750297 
L 205.828888 116.413649 
L 206.297214 168.527892 
z
" style="fill:#c95d53;"/>
    <path clip-path="url(#pf5c9de9483)" d="M 277.971253 181.211726 
L 284.848695 174.43298 
L 285.410977 155.832731 
L 278.474412 162.496493 
z
" style="fill:#300046;"/>
    <path clip-path="url(#pf5c9de9483)" d="M 218.949524 172.361429 
L 231.739835 176.23678 
L 231.885865 136.779618 
L 218.843791 133.046445 
z
" style="fill:#ab3572;"/>
    <path clip-path="url(#pf5c9de9483)" d="M 157.647242 175.663206 
L 170.287682 179.614214 
L 178.240617 172.798329 
L 165.676182 168.921789 
z
" style="fill:#240473;"/>
    <path clip-path="url(#pf5c9de9483)" d="M 224.338378 183.050047 
L 231.739835 176.23678 
L 244.670417 180.154631 
L 237.351973 187.043183 
z
" style="fill:#804529;"/>
    <path clip-path="url(#pf5c9de9483)" d="M 291.24765 185.184478 
L 298.036935 178.33102 
L 298.056097 177.811577 
L 291.265214 184.661865 
z
" style="fill:#050338;"/>
    <path clip-path="url(#pf5c9de9483)" d="M 170.430723 184.897786 
L 178.361455 178.049733 
L 178.240617 172.798329 
L 170.287682 179.614214 
z
" style="fill:#14023e;"/>
    <path clip-path="url(#pf5c9de9483)" d="M 265.217747 158.633643 
L 278.474412 162.496493 
L 285.410977 155.832731 
L 272.241812 152.0428 
z
" style="fill:#580081;"/>
    <path clip-path="url(#pf5c9de9483)" d="M 264.839875 177.282368 
L 277.971253 181.211726 
L 278.474412 162.496493 
L 265.217747 158.633643 
z
" style="fill:#650095;"/>
    <path clip-path="url(#pf5c9de9483)" d="M 257.743589 184.115686 
L 264.839875 177.282368 
L 277.971253 181.211726 
L 270.961723 188.120663 
z
" style="fill:#4b0658;"/>
    <path clip-path="url(#pf5c9de9483)" d="M 251.851153 173.395697 
L 252.421108 131.907403 
L 265.683583 135.643728 
L 264.839875 177.282368 
z
" style="fill:#541c33;"/>
    <path clip-path="url(#pf5c9de9483)" d="M 277.971253 181.211726 
L 291.24765 185.184478 
L 291.265214 184.661865 
L 277.985254 180.690946 
z
" style="fill:#0b0777;"/>
    <path clip-path="url(#pf5c9de9483)" d="M 277.971253 181.211726 
L 277.990226 180.506003 
L 291.271451 184.476271 
L 291.24765 185.184478 
z
" style="fill:#070339;"/>
    <path clip-path="url(#pf5c9de9483)" d="M 170.430723 184.897786 
L 178.361455 178.049733 
L 191.031582 181.987547 
L 183.178635 188.911464 
z
" style="fill:#722d3b;"/>
    <path clip-path="url(#pf5c9de9483)" d="M 264.839875 177.282368 
L 265.343332 152.435758 
L 278.641648 156.27608 
L 277.971253 181.211726 
z
" style="fill:#3b0545;"/>
    <path clip-path="url(#pf5c9de9483)" d="M 218.949524 172.361429 
L 218.806039 119.009104 
L 231.938012 122.689467 
L 231.739835 176.23678 
z
" style="fill:#602d26;"/>
    <path clip-path="url(#pf5c9de9483)" d="M 157.822766 180.928173 
L 170.430723 184.897786 
L 170.287682 179.614214 
L 157.647242 175.663206 
z
" style="fill:#2a0484;"/>
    <path clip-path="url(#pf5c9de9483)" d="M 244.670417 180.154631 
L 251.851153 173.395697 
L 252.417137 132.196453 
L 245.092736 138.696354 
z
" style="fill:#531c33;"/>
    <path clip-path="url(#pf5c9de9483)" d="M 244.670417 180.154631 
L 245.0957 138.405429 
L 252.421108 131.907403 
L 251.851153 173.395697 
z
" style="fill:#b13c6c;"/>
    <path clip-path="url(#pf5c9de9483)" d="M 203.841786 185.968896 
L 211.467294 179.100638 
L 224.338378 183.050047 
L 216.794403 189.994506 
z
" style="fill:#86561f;"/>
    <path clip-path="url(#pf5c9de9483)" d="M 191.031582 181.987547 
L 198.736391 175.194243 
L 198.303019 141.324187 
L 190.462329 147.905579 
z
" style="fill:#4a123c;"/>
    <path clip-path="url(#pf5c9de9483)" d="M 270.961723 188.120663 
L 270.978375 187.410629 
L 277.990226 180.506003 
L 277.971253 181.211726 
z
" style="fill:#0e0678;"/>
    <path clip-path="url(#pf5c9de9483)" d="M 218.843791 133.046445 
L 231.885865 136.779618 
L 239.28934 130.339644 
L 226.330455 126.677169 
z
" style="fill:#952e63;"/>
    <path clip-path="url(#pf5c9de9483)" d="M 157.822766 180.928173 
L 157.458466 170.000725 
L 170.133836 173.931552 
L 170.430723 184.897786 
z
" style="fill:#200143;"/>
    <path clip-path="url(#pf5c9de9483)" d="M 211.467294 179.100638 
L 218.949524 172.361429 
L 218.808858 120.057209 
L 211.128047 126.464932 
z
" style="fill:#5f2c27;"/>
    <path clip-path="url(#pf5c9de9483)" d="M 257.743589 184.115686 
L 258.162851 159.114576 
L 265.343332 152.435758 
L 264.839875 177.282368 
z
" style="fill:#7c0a91;"/>
    <path clip-path="url(#pf5c9de9483)" d="M 211.467294 179.100638 
L 211.121248 125.409918 
L 218.806039 119.009104 
L 218.949524 172.361429 
z
" style="fill:#cb6051;"/>
    <path clip-path="url(#pf5c9de9483)" d="M 237.351973 187.043183 
L 244.670417 180.154631 
L 257.743589 184.115686 
L 250.510457 191.080779 
z
" style="fill:#814728;"/>
    <path clip-path="url(#pf5c9de9483)" d="M 231.739835 176.23678 
L 244.670417 180.154631 
L 245.092736 138.696354 
L 231.892716 134.928343 
z
" style="fill:#b03b6d;"/>
    <path clip-path="url(#pf5c9de9483)" d="M 178.361455 178.049733 
L 191.031582 181.987547 
L 190.462329 147.905579 
L 177.580023 144.090344 
z
" style="fill:#9c257f;"/>
    <path clip-path="url(#pf5c9de9483)" d="M 149.662704 187.831639 
L 149.249764 176.836892 
L 157.458466 170.000725 
L 157.822766 180.928173 
z
" style="fill:#44028e;"/>
    <path clip-path="url(#pf5c9de9483)" d="M 149.662704 187.831639 
L 157.822766 180.928173 
L 170.430723 184.897786 
L 162.346885 191.878042 
z
" style="fill:#290156;"/>
    <path clip-path="url(#pf5c9de9483)" d="M 198.736391 175.194243 
L 211.467294 179.100638 
L 211.128047 126.464932 
L 198.065364 122.750297 
z
" style="fill:#c95d53;"/>
    <path clip-path="url(#pf5c9de9483)" d="M 270.961723 188.120663 
L 277.971253 181.211726 
L 291.24765 185.184478 
L 284.327244 192.170297 
z
" style="fill:#090449;"/>
    <path clip-path="url(#pf5c9de9483)" d="M 270.978375 187.410629 
L 284.34879 191.457757 
L 291.271451 184.476271 
L 277.990226 180.506003 
z
" style="fill:#0c0668;"/>
    <path clip-path="url(#pf5c9de9483)" d="M 183.178635 188.911464 
L 191.031582 181.987547 
L 203.841786 185.968896 
L 196.068846 192.969946 
z
" style="fill:#876915;"/>
    <path clip-path="url(#pf5c9de9483)" d="M 257.743589 184.115686 
L 264.839875 177.282368 
L 265.683583 135.643728 
L 258.446256 142.214769 
z
" style="fill:#541c33;"/>
    <path clip-path="url(#pf5c9de9483)" d="M 178.361455 178.049733 
L 177.289533 131.466255 
L 190.250687 135.234298 
L 191.031582 181.987547 
z
" style="fill:#59232e;"/>
    <path clip-path="url(#pf5c9de9483)" d="M 216.794403 189.994506 
L 224.338378 183.050047 
L 237.351973 187.043183 
L 229.891821 194.06512 
z
" style="fill:#876317;"/>
    <path clip-path="url(#pf5c9de9483)" d="M 177.580023 144.090344 
L 190.462329 147.905579 
L 198.303019 141.324187 
L 185.500416 137.581592 
z
" style="fill:#87206e;"/>
    <path clip-path="url(#pf5c9de9483)" d="M 284.327244 192.170297 
L 291.24765 185.184478 
L 291.271451 184.476271 
L 284.34879 191.457757 
z
" style="fill:#070339;"/>
    <path clip-path="url(#pf5c9de9483)" d="M 231.739835 176.23678 
L 231.959939 116.764784 
L 245.278463 120.463937 
L 244.670417 180.154631 
z
" style="fill:#643620;"/>
    <path clip-path="url(#pf5c9de9483)" d="M 270.961723 188.120663 
L 277.971253 181.211726 
L 278.641648 156.27608 
L 271.550168 163.029739 
z
" style="fill:#3b0545;"/>
    <path clip-path="url(#pf5c9de9483)" d="M 198.736391 175.194243 
L 197.873437 107.750331 
L 211.030998 111.407341 
L 211.467294 179.100638 
z
" style="fill:#694318;"/>
    <path clip-path="url(#pf5c9de9483)" d="M 224.338378 183.050047 
L 231.739835 176.23678 
L 231.938012 122.689467 
L 224.338378 129.162519 
z
" style="fill:#602d26;"/>
    <path clip-path="url(#pf5c9de9483)" d="M 231.892716 134.928343 
L 245.092736 138.696354 
L 252.417137 132.196453 
L 239.302783 128.500256 
z
" style="fill:#99335f;"/>
    <path clip-path="url(#pf5c9de9483)" d="M 250.510457 191.080779 
L 257.743589 184.115686 
L 270.961723 188.120663 
L 263.816264 195.163579 
z
" style="fill:#4f0956;"/>
    <path clip-path="url(#pf5c9de9483)" d="M 244.670417 180.154631 
L 257.743589 184.115686 
L 258.446256 142.214769 
L 245.0957 138.405429 
z
" style="fill:#b13c6c;"/>
    <path clip-path="url(#pf5c9de9483)" d="M 170.430723 184.897786 
L 169.161602 138.019689 
L 177.289533 131.466255 
L 178.361455 178.049733 
z
" style="fill:#bc4a61;"/>
    <path clip-path="url(#pf5c9de9483)" d="M 270.961723 188.120663 
L 284.327244 192.170297 
L 284.34879 191.457757 
L 270.978375 187.410629 
z
" style="fill:#0e0678;"/>
    <path clip-path="url(#pf5c9de9483)" d="M 270.961723 188.120663 
L 270.989022 186.956662 
L 284.362565 191.002187 
L 284.327244 192.170297 
z
" style="fill:#080339;"/>
    <path clip-path="url(#pf5c9de9483)" d="M 224.338378 183.050047 
L 224.338378 123.198502 
L 231.959939 116.764784 
L 231.739835 176.23678 
z
" style="fill:#d57244;"/>
    <path clip-path="url(#pf5c9de9483)" d="M 149.249764 176.836892 
L 162.002164 180.844182 
L 170.133836 173.931552 
L 157.458466 170.000725 
z
" style="fill:#3b027b;"/>
    <path clip-path="url(#pf5c9de9483)" d="M 162.346885 191.878042 
L 170.430723 184.897786 
L 170.133836 173.931552 
L 162.002164 180.844182 
z
" style="fill:#200143;"/>
    <path clip-path="url(#pf5c9de9483)" d="M 162.346885 191.878042 
L 170.430723 184.897786 
L 183.178635 188.911464 
L 175.173234 195.969799 
z
" style="fill:#814628;"/>
    <path clip-path="url(#pf5c9de9483)" d="M 257.743589 184.115686 
L 270.961723 188.120663 
L 271.550168 163.029739 
L 258.162851 159.114576 
z
" style="fill:#7c0a91;"/>
    <path clip-path="url(#pf5c9de9483)" d="M 191.031582 181.987547 
L 189.897872 114.110817 
L 197.873437 107.750331 
L 198.736391 175.194243 
z
" style="fill:#de8e33;"/>
    <path clip-path="url(#pf5c9de9483)" d="M 211.467294 179.100638 
L 224.338378 183.050047 
L 224.338378 129.162519 
L 211.121248 125.409918 
z
" style="fill:#cb6051;"/>
    <path clip-path="url(#pf5c9de9483)" d="M 257.743589 184.115686 
L 258.187471 157.646404 
L 271.584727 161.556184 
L 270.961723 188.120663 
z
" style="fill:#3e0743;"/>
    <path clip-path="url(#pf5c9de9483)" d="M 196.068846 192.969946 
L 203.841786 185.968896 
L 216.794403 189.994506 
L 209.103753 197.073984 
z
" style="fill:#867014;"/>
    <path clip-path="url(#pf5c9de9483)" d="M 258.162851 159.114576 
L 271.550168 163.029739 
L 278.641648 156.27608 
L 265.343332 152.435758 
z
" style="fill:#6c087e;"/>
    <path clip-path="url(#pf5c9de9483)" d="M 263.816264 195.163579 
L 263.839603 193.992449 
L 270.989022 186.956662 
L 270.961723 188.120663 
z
" style="fill:#110679;"/>
    <path clip-path="url(#pf5c9de9483)" d="M 149.662704 187.831639 
L 162.346885 191.878042 
L 162.002164 180.844182 
L 149.249764 176.836892 
z
" style="fill:#44028e;"/>
    <path clip-path="url(#pf5c9de9483)" d="M 198.065364 122.750297 
L 211.128047 126.464932 
L 218.808858 120.057209 
L 205.828888 116.413649 
z
" style="fill:#af5048;"/>
    <path clip-path="url(#pf5c9de9483)" d="M 250.510457 191.080779 
L 250.861625 164.446309 
L 258.187471 157.646404 
L 257.743589 184.115686 
z
" style="fill:#820e8f;"/>
    <path clip-path="url(#pf5c9de9483)" d="M 149.662704 187.831639 
L 149.128813 173.616513 
L 161.901191 177.612219 
L 162.346885 191.878042 
z
" style="fill:#270045;"/>
    <path clip-path="url(#pf5c9de9483)" d="M 229.891821 194.06512 
L 237.351973 187.043183 
L 250.510457 191.080779 
L 243.136481 198.181496 
z
" style="fill:#86581d;"/>
    <path clip-path="url(#pf5c9de9483)" d="M 244.670417 180.154631 
L 245.288779 119.451272 
L 258.765321 123.188543 
L 257.743589 184.115686 
z
" style="fill:#65381f;"/>
    <path clip-path="url(#pf5c9de9483)" d="M 211.467294 179.100638 
L 211.032235 111.599211 
L 224.338378 115.298608 
L 224.338378 183.050047 
z
" style="fill:#694318;"/>
    <path clip-path="url(#pf5c9de9483)" d="M 141.344465 194.868925 
L 149.662704 187.831639 
L 162.346885 191.878042 
L 154.105465 198.994368 
z
" style="fill:#310058;"/>
    <path clip-path="url(#pf5c9de9483)" d="M 263.816264 195.163579 
L 270.961723 188.120663 
L 284.327244 192.170297 
L 277.271882 199.292348 
z
" style="fill:#0a0449;"/>
    <path clip-path="url(#pf5c9de9483)" d="M 245.0957 138.405429 
L 258.446256 142.214769 
L 265.683583 135.643728 
L 252.421108 131.907403 
z
" style="fill:#9a345e;"/>
    <path clip-path="url(#pf5c9de9483)" d="M 141.344465 194.868925 
L 140.74531 180.565833 
L 149.128813 173.616513 
L 149.662704 187.831639 
z
" style="fill:#520192;"/>
    <path clip-path="url(#pf5c9de9483)" d="M 183.178635 188.911464 
L 191.031582 181.987547 
L 190.250687 135.234298 
L 182.204126 141.862048 
z
" style="fill:#59232e;"/>
    <path clip-path="url(#pf5c9de9483)" d="M 263.839603 193.992449 
L 277.303352 198.117075 
L 284.362565 191.002187 
L 270.989022 186.956662 
z
" style="fill:#0f0569;"/>
    <path clip-path="url(#pf5c9de9483)" d="M 237.351973 187.043183 
L 244.670417 180.154631 
L 245.278463 120.463937 
L 237.744999 126.970889 
z
" style="fill:#643620;"/>
    <path clip-path="url(#pf5c9de9483)" d="M 175.173234 195.969799 
L 183.178635 188.911464 
L 196.068846 192.969946 
L 188.144156 200.107676 
z
" style="fill:#857413;"/>
    <path clip-path="url(#pf5c9de9483)" d="M 237.351973 187.043183 
L 237.751669 125.951454 
L 245.288779 119.451272 
L 244.670417 180.154631 
z
" style="fill:#d67642;"/>
    <path clip-path="url(#pf5c9de9483)" d="M 203.841786 185.968896 
L 203.142116 118.033569 
L 211.032235 111.599211 
L 211.467294 179.100638 
z
" style="fill:#de8e33;"/>
    <path clip-path="url(#pf5c9de9483)" d="M 203.841786 185.968896 
L 211.467294 179.100638 
L 211.030998 111.407341 
L 203.140126 117.840402 
z
" style="fill:#694318;"/>
    <path clip-path="url(#pf5c9de9483)" d="M 170.430723 184.897786 
L 183.178635 188.911464 
L 182.204126 141.862048 
L 169.161602 138.019689 
z
" style="fill:#bc4a61;"/>
    <path clip-path="url(#pf5c9de9483)" d="M 209.103753 197.073984 
L 216.794403 189.994506 
L 229.891821 194.06512 
L 222.285805 201.224351 
z
" style="fill:#837b14;"/>
    <path clip-path="url(#pf5c9de9483)" d="M 224.338378 183.050047 
L 237.351973 187.043183 
L 237.744999 126.970889 
L 224.338378 123.198502 
z
" style="fill:#d57244;"/>
    <path clip-path="url(#pf5c9de9483)" d="M 277.271882 199.292348 
L 284.327244 192.170297 
L 284.362565 191.002187 
L 277.303352 198.117075 
z
" style="fill:#080339;"/>
    <path clip-path="url(#pf5c9de9483)" d="M 191.031582 181.987547 
L 203.841786 185.968896 
L 203.140126 117.840402 
L 189.897872 114.110817 
z
" style="fill:#de8e33;"/>
    <path clip-path="url(#pf5c9de9483)" d="M 263.816264 195.163579 
L 270.961723 188.120663 
L 271.584727 161.556184 
L 264.34897 168.433089 
z
" style="fill:#3e0743;"/>
    <path clip-path="url(#pf5c9de9483)" d="M 243.136481 198.181496 
L 250.510457 191.080779 
L 263.816264 195.163579 
L 256.530882 202.34441 
z
" style="fill:#480459;"/>
    <path clip-path="url(#pf5c9de9483)" d="M 211.121248 125.409918 
L 224.338378 129.162519 
L 231.938012 122.689467 
L 218.806039 119.009104 
z
" style="fill:#b05346;"/>
    <path clip-path="url(#pf5c9de9483)" d="M 263.816264 195.163579 
L 277.271882 199.292348 
L 277.303352 198.117075 
L 263.839603 193.992449 
z
" style="fill:#110679;"/>
    <path clip-path="url(#pf5c9de9483)" d="M 263.816264 195.163579 
L 263.841995 193.8724 
L 277.306578 197.996602 
L 277.271882 199.292348 
z
" style="fill:#09033a;"/>
    <path clip-path="url(#pf5c9de9483)" d="M 250.510457 191.080779 
L 250.822106 167.443666 
L 264.289017 171.441453 
L 263.816264 195.163579 
z
" style="fill:#380345;"/>
    <path clip-path="url(#pf5c9de9483)" d="M 154.105465 198.994368 
L 162.346885 191.878042 
L 175.173234 195.969799 
L 167.010898 203.166503 
z
" style="fill:#80442a;"/>
    <path clip-path="url(#pf5c9de9483)" d="M 191.031582 181.987547 
L 189.759108 105.802792 
L 203.054226 109.499801 
L 203.841786 185.968896 
z
" style="fill:#6a5210;"/>
    <path clip-path="url(#pf5c9de9483)" d="M 170.430723 184.897786 
L 168.788016 124.220365 
L 181.917215 128.00995 
L 183.178635 188.911464 
z
" style="fill:#65371f;"/>
    <path clip-path="url(#pf5c9de9483)" d="M 250.510457 191.080779 
L 263.816264 195.163579 
L 264.34897 168.433089 
L 250.861625 164.446309 
z
" style="fill:#820e8f;"/>
    <path clip-path="url(#pf5c9de9483)" d="M 154.105465 198.994368 
L 162.346885 191.878042 
L 161.901191 177.612219 
L 153.595562 184.640155 
z
" style="fill:#270045;"/>
    <path clip-path="url(#pf5c9de9483)" d="M 224.338378 183.050047 
L 224.338378 109.477763 
L 237.835118 113.196729 
L 237.351973 187.043183 
z
" style="fill:#6a4d12;"/>
    <path clip-path="url(#pf5c9de9483)" d="M 188.144156 200.107676 
L 196.068846 192.969946 
L 209.103753 197.073984 
L 201.262108 204.292457 
z
" style="fill:#827d15;"/>
    <path clip-path="url(#pf5c9de9483)" d="M 140.74531 180.565833 
L 153.595562 184.640155 
L 161.901191 177.612219 
L 149.128813 173.616513 
z
" style="fill:#47017f;"/>
    <path clip-path="url(#pf5c9de9483)" d="M 250.510457 191.080779 
L 257.743589 184.115686 
L 258.765321 123.188543 
L 251.318913 129.763176 
z
" style="fill:#65381f;"/>
    <path clip-path="url(#pf5c9de9483)" d="M 216.794403 189.994506 
L 224.338378 183.050047 
L 224.338378 115.298608 
L 216.535402 121.806799 
z
" style="fill:#694318;"/>
    <path clip-path="url(#pf5c9de9483)" d="M 256.530882 202.34441 
L 256.55207 201.045307 
L 263.841995 193.8724 
L 263.816264 195.163579 
z
" style="fill:#13067a;"/>
    <path clip-path="url(#pf5c9de9483)" d="M 243.136481 198.181496 
L 243.362529 174.396872 
L 250.822106 167.443666 
L 250.510457 191.080779 
z
" style="fill:#770693;"/>
    <path clip-path="url(#pf5c9de9483)" d="M 183.178635 188.911464 
L 181.59044 112.233221 
L 189.759108 105.802792 
L 191.031582 181.987547 
z
" style="fill:#e0ae23;"/>
    <path clip-path="url(#pf5c9de9483)" d="M 250.861625 164.446309 
L 264.34897 168.433089 
L 271.584727 161.556184 
L 258.187471 157.646404 
z
" style="fill:#710d7c;"/>
    <path clip-path="url(#pf5c9de9483)" d="M 162.346885 191.878042 
L 160.439047 130.811722 
L 168.788016 124.220365 
L 170.430723 184.897786 
z
" style="fill:#d67543;"/>
    <path clip-path="url(#pf5c9de9483)" d="M 141.344465 194.868925 
L 154.105465 198.994368 
L 153.595562 184.640155 
L 140.74531 180.565833 
z
" style="fill:#520192;"/>
    <path clip-path="url(#pf5c9de9483)" d="M 222.285805 201.224351 
L 229.891821 194.06512 
L 243.136481 198.181496 
L 235.617509 205.421836 
z
" style="fill:#876118;"/>
    <path clip-path="url(#pf5c9de9483)" d="M 216.794403 189.994506 
L 216.513142 115.946389 
L 224.338378 109.477763 
L 224.338378 183.050047 
z
" style="fill:#e0a427;"/>
    <path clip-path="url(#pf5c9de9483)" d="M 237.351973 187.043183 
L 250.510457 191.080779 
L 251.318913 129.763176 
L 237.751669 125.951454 
z
" style="fill:#d67642;"/>
    <path clip-path="url(#pf5c9de9483)" d="M 203.841786 185.968896 
L 216.794403 189.994506 
L 216.535402 121.806799 
L 203.142116 118.033569 
z
" style="fill:#de8e33;"/>
    <path clip-path="url(#pf5c9de9483)" d="M 169.161602 138.019689 
L 182.204126 141.862048 
L 190.250687 135.234298 
L 177.289533 131.466255 
z
" style="fill:#a44054;"/>
    <path clip-path="url(#pf5c9de9483)" d="M 256.530882 202.34441 
L 263.816264 195.163579 
L 277.271882 199.292348 
L 270.077576 206.554656 
z
" style="fill:#0c044a;"/>
    <path clip-path="url(#pf5c9de9483)" d="M 256.55207 201.045307 
L 270.107852 205.25095 
L 277.306578 197.996602 
L 263.841995 193.8724 
z
" style="fill:#11056a;"/>
    <path clip-path="url(#pf5c9de9483)" d="M 167.010898 203.166503 
L 175.173234 195.969799 
L 188.144156 200.107676 
L 180.063228 207.386128 
z
" style="fill:#876716;"/>
    <path clip-path="url(#pf5c9de9483)" d="M 237.351973 187.043183 
L 237.802865 118.126371 
L 251.422486 121.907647 
L 250.510457 191.080779 
z
" style="fill:#694517;"/>
    <path clip-path="url(#pf5c9de9483)" d="M 203.841786 185.968896 
L 203.027131 106.868934 
L 216.492828 110.598211 
L 216.794403 189.994506 
z
" style="fill:#69570f;"/>
    <path clip-path="url(#pf5c9de9483)" d="M 201.262108 204.292457 
L 209.103753 197.073984 
L 222.285805 201.224351 
L 214.529606 208.524945 
z
" style="fill:#808512;"/>
    <path clip-path="url(#pf5c9de9483)" d="M 270.077576 206.554656 
L 277.271882 199.292348 
L 277.306578 197.996602 
L 270.107852 205.25095 
z
" style="fill:#09033a;"/>
    <path clip-path="url(#pf5c9de9483)" d="M 256.530882 202.34441 
L 263.816264 195.163579 
L 264.289017 171.441453 
L 256.920212 178.474055 
z
" style="fill:#380345;"/>
    <path clip-path="url(#pf5c9de9483)" d="M 224.338378 123.198502 
L 237.744999 126.970889 
L 245.278463 120.463937 
L 231.959939 116.764784 
z
" style="fill:#b9633b;"/>
    <path clip-path="url(#pf5c9de9483)" d="M 229.891821 194.06512 
L 230.086164 124.70347 
L 237.802865 118.126371 
L 237.351973 187.043183 
z
" style="fill:#de9230;"/>
    <path clip-path="url(#pf5c9de9483)" d="M 243.136481 198.181496 
L 243.300213 180.953721 
L 256.812878 185.054862 
L 256.530882 202.34441 
z
" style="fill:#2c0046;"/>
    <path clip-path="url(#pf5c9de9483)" d="M 196.068846 192.969946 
L 203.841786 185.968896 
L 203.054226 109.499801 
L 194.971711 116.004639 
z
" style="fill:#6a5210;"/>
    <path clip-path="url(#pf5c9de9483)" d="M 175.173234 195.969799 
L 183.178635 188.911464 
L 181.917215 128.00995 
L 173.651395 134.677313 
z
" style="fill:#65371f;"/>
    <path clip-path="url(#pf5c9de9483)" d="M 235.617509 205.421836 
L 243.136481 198.181496 
L 256.530882 202.34441 
L 249.101427 209.667246 
z
" style="fill:#380059;"/>
    <path clip-path="url(#pf5c9de9483)" d="M 196.068846 192.969946 
L 194.93395 113.355682 
L 203.027131 106.868934 
L 203.841786 185.968896 
z
" style="fill:#deb920;"/>
    <path clip-path="url(#pf5c9de9483)" d="M 229.891821 194.06512 
L 237.351973 187.043183 
L 237.835118 113.196729 
L 230.10007 119.740224 
z
" style="fill:#6a4d12;"/>
    <path clip-path="url(#pf5c9de9483)" d="M 256.530882 202.34441 
L 256.548694 201.2523 
L 270.103028 205.458677 
L 270.077576 206.554656 
z
" style="fill:#080339;"/>
    <path clip-path="url(#pf5c9de9483)" d="M 256.530882 202.34441 
L 270.077576 206.554656 
L 270.107852 205.25095 
L 256.55207 201.045307 
z
" style="fill:#13067a;"/>
    <path clip-path="url(#pf5c9de9483)" d="M 243.136481 198.181496 
L 256.530882 202.34441 
L 256.920212 178.474055 
L 243.362529 174.396872 
z
" style="fill:#770693;"/>
    <path clip-path="url(#pf5c9de9483)" d="M 189.897872 114.110817 
L 203.140126 117.840402 
L 211.030998 111.407341 
L 197.873437 107.750331 
z
" style="fill:#c07b2c;"/>
    <path clip-path="url(#pf5c9de9483)" d="M 162.346885 191.878042 
L 160.478947 132.088843 
L 173.683228 135.959381 
L 175.173234 195.969799 
z
" style="fill:#643520;"/>
    <path clip-path="url(#pf5c9de9483)" d="M 235.617509 205.421836 
L 235.716725 188.086883 
L 243.300213 180.953721 
L 243.136481 198.181496 
z
" style="fill:#5d0094;"/>
    <path clip-path="url(#pf5c9de9483)" d="M 183.178635 188.911464 
L 196.068846 192.969946 
L 194.971711 116.004639 
L 181.59044 112.233221 
z
" style="fill:#e0ae23;"/>
    <path clip-path="url(#pf5c9de9483)" d="M 162.346885 191.878042 
L 175.173234 195.969799 
L 173.651395 134.677313 
L 160.439047 130.811722 
z
" style="fill:#d67543;"/>
    <path clip-path="url(#pf5c9de9483)" d="M 243.362529 174.396872 
L 256.920212 178.474055 
L 264.289017 171.441453 
L 250.822106 167.443666 
z
" style="fill:#67057f;"/>
    <path clip-path="url(#pf5c9de9483)" d="M 216.794403 189.994506 
L 229.891821 194.06512 
L 230.10007 119.740224 
L 216.513142 115.946389 
z
" style="fill:#e0a427;"/>
    <path clip-path="url(#pf5c9de9483)" d="M 180.063228 207.386128 
L 188.144156 200.107676 
L 201.262108 204.292457 
L 193.264978 211.654059 
z
" style="fill:#876b15;"/>
    <path clip-path="url(#pf5c9de9483)" d="M 183.178635 188.911464 
L 181.49762 107.751827 
L 194.907575 111.505442 
L 196.068846 192.969946 
z
" style="fill:#685b0f;"/>
    <path clip-path="url(#pf5c9de9483)" d="M 249.101427 209.667246 
L 249.115264 208.568423 
L 256.548694 201.2523 
L 256.530882 202.34441 
z
" style="fill:#110679;"/>
    <path clip-path="url(#pf5c9de9483)" d="M 154.105465 198.994368 
L 151.967941 138.821268 
L 160.478947 132.088843 
L 162.346885 191.878042 
z
" style="fill:#d47145;"/>
    <path clip-path="url(#pf5c9de9483)" d="M 214.529606 208.524945 
L 222.285805 201.224351 
L 235.617509 205.421836 
L 227.94922 212.80596 
z
" style="fill:#86581d;"/>
    <path clip-path="url(#pf5c9de9483)" d="M 175.173234 195.969799 
L 173.144974 114.281052 
L 181.49762 107.751827 
L 183.178635 188.911464 
z
" style="fill:#ddc120;"/>
    <path clip-path="url(#pf5c9de9483)" d="M 243.136481 198.181496 
L 250.510457 191.080779 
L 251.422486 121.907647 
L 243.798149 128.561127 
z
" style="fill:#694517;"/>
    <path clip-path="url(#pf5c9de9483)" d="M 216.794403 189.994506 
L 216.47534 105.994133 
L 230.128066 109.748406 
L 229.891821 194.06512 
z
" style="fill:#666010;"/>
    <path clip-path="url(#pf5c9de9483)" d="M 237.751669 125.951454 
L 251.318913 129.763176 
L 258.765321 123.188543 
L 245.288779 119.451272 
z
" style="fill:#ba6639;"/>
    <path clip-path="url(#pf5c9de9483)" d="M 249.101427 209.667246 
L 256.530882 202.34441 
L 270.077576 206.554656 
L 262.740181 213.961405 
z
" style="fill:#0a0449;"/>
    <path clip-path="url(#pf5c9de9483)" d="M 209.103753 197.073984 
L 216.794403 189.994506 
L 216.492828 110.598211 
L 208.488579 117.160555 
z
" style="fill:#69570f;"/>
    <path clip-path="url(#pf5c9de9483)" d="M 249.115264 208.568423 
L 262.761762 212.858684 
L 270.103028 205.458677 
L 256.548694 201.2523 
z
" style="fill:#0f0569;"/>
    <path clip-path="url(#pf5c9de9483)" d="M 229.891821 194.06512 
L 243.136481 198.181496 
L 243.798149 128.561127 
L 230.086164 124.70347 
z
" style="fill:#de9230;"/>
    <path clip-path="url(#pf5c9de9483)" d="M 209.103753 197.073984 
L 208.452891 112.524583 
L 216.47534 105.994133 
L 216.794403 189.994506 
z
" style="fill:#d9cd22;"/>
    <path clip-path="url(#pf5c9de9483)" d="M 203.142116 118.033569 
L 216.535402 121.806799 
L 224.338378 115.298608 
L 211.032235 111.599211 
z
" style="fill:#c07b2c;"/>
    <path clip-path="url(#pf5c9de9483)" d="M 249.101427 209.667246 
L 256.530882 202.34441 
L 256.812878 185.054862 
L 249.320507 192.270016 
z
" style="fill:#2c0046;"/>
    <path clip-path="url(#pf5c9de9483)" d="M 229.891821 194.06512 
L 230.097563 120.635041 
L 243.836967 124.476672 
L 243.136481 198.181496 
z
" style="fill:#6a4c13;"/>
    <path clip-path="url(#pf5c9de9483)" d="M 196.068846 192.969946 
L 209.103753 197.073984 
L 208.488579 117.160555 
L 194.93395 113.355682 
z
" style="fill:#deb920;"/>
    <path clip-path="url(#pf5c9de9483)" d="M 235.617509 205.421836 
L 235.68796 193.112566 
L 249.25699 197.313934 
L 249.101427 209.667246 
z
" style="fill:#220144;"/>
    <path clip-path="url(#pf5c9de9483)" d="M 193.264978 211.654059 
L 201.262108 204.292457 
L 214.529606 208.524945 
L 206.61873 215.971129 
z
" style="fill:#876a15;"/>
    <path clip-path="url(#pf5c9de9483)" d="M 235.716725 188.086883 
L 249.320507 192.270016 
L 256.812878 185.054862 
L 243.300213 180.953721 
z
" style="fill:#500081;"/>
    <path clip-path="url(#pf5c9de9483)" d="M 262.740181 213.961405 
L 270.077576 206.554656 
L 270.103028 205.458677 
L 262.761762 212.858684 
z
" style="fill:#080339;"/>
    <path clip-path="url(#pf5c9de9483)" d="M 196.068846 192.969946 
L 194.857229 107.973642 
L 208.446982 111.75699 
L 209.103753 197.073984 
z
" style="fill:#666210;"/>
    <path clip-path="url(#pf5c9de9483)" d="M 167.010898 203.166503 
L 175.173234 195.969799 
L 173.683228 135.959381 
L 165.255972 142.770172 
z
" style="fill:#643520;"/>
    <path clip-path="url(#pf5c9de9483)" d="M 235.617509 205.421836 
L 249.101427 209.667246 
L 249.320507 192.270016 
L 235.716725 188.086883 
z
" style="fill:#5d0094;"/>
    <path clip-path="url(#pf5c9de9483)" d="M 227.94922 212.80596 
L 235.617509 205.421836 
L 249.101427 209.667246 
L 241.523583 217.136342 
z
" style="fill:#2b0157;"/>
    <path clip-path="url(#pf5c9de9483)" d="M 222.285805 201.224351 
L 222.208991 127.317464 
L 230.097563 120.635041 
L 229.891821 194.06512 
z
" style="fill:#e0a029;"/>
    <path clip-path="url(#pf5c9de9483)" d="M 227.94922 212.80596 
L 227.971999 200.42028 
L 235.68796 193.112566 
L 235.617509 205.421836 
z
" style="fill:#480290;"/>
    <path clip-path="url(#pf5c9de9483)" d="M 188.144156 200.107676 
L 196.068846 192.969946 
L 194.907575 111.505442 
L 186.642234 118.111152 
z
" style="fill:#685b0f;"/>
    <path clip-path="url(#pf5c9de9483)" d="M 249.101427 209.667246 
L 262.740181 213.961405 
L 262.761762 212.858684 
L 249.115264 208.568423 
z
" style="fill:#110679;"/>
    <path clip-path="url(#pf5c9de9483)" d="M 249.101427 209.667246 
L 249.116581 208.463804 
L 262.763817 212.753692 
L 262.740181 213.961405 
z
" style="fill:#080339;"/>
    <path clip-path="url(#pf5c9de9483)" d="M 175.173234 195.969799 
L 173.273263 119.447934 
L 186.737253 123.298631 
L 188.144156 200.107676 
z
" style="fill:#6a5111;"/>
    <path clip-path="url(#pf5c9de9483)" d="M 154.105465 198.994368 
L 167.010898 203.166503 
L 165.255972 142.770172 
L 151.967941 138.821268 
z
" style="fill:#d47145;"/>
    <path clip-path="url(#pf5c9de9483)" d="M 188.144156 200.107676 
L 186.577093 114.554799 
L 194.857229 107.973642 
L 196.068846 192.969946 
z
" style="fill:#d8d022;"/>
    <path clip-path="url(#pf5c9de9483)" d="M 160.439047 130.811722 
L 173.651395 134.677313 
L 181.917215 128.00995 
L 168.788016 124.220365 
z
" style="fill:#ba653a;"/>
    <path clip-path="url(#pf5c9de9483)" d="M 175.173234 195.969799 
L 188.144156 200.107676 
L 186.642234 118.111152 
L 173.144974 114.281052 
z
" style="fill:#ddc120;"/>
    <path clip-path="url(#pf5c9de9483)" d="M 222.285805 201.224351 
L 229.891821 194.06512 
L 230.128066 109.748406 
L 222.197598 116.355579 
z
" style="fill:#666010;"/>
    <path clip-path="url(#pf5c9de9483)" d="M 241.523583 217.136342 
L 241.534205 215.92549 
L 249.116581 208.463804 
L 249.101427 209.667246 
z
" style="fill:#110679;"/>
    <path clip-path="url(#pf5c9de9483)" d="M 167.010898 203.166503 
L 164.772933 126.146246 
L 173.273263 119.447934 
L 175.173234 195.969799 
z
" style="fill:#e0ab24;"/>
    <path clip-path="url(#pf5c9de9483)" d="M 206.61873 215.971129 
L 214.529606 208.524945 
L 227.94922 212.80596 
L 220.127123 220.338193 
z
" style="fill:#773435;"/>
    <path clip-path="url(#pf5c9de9483)" d="M 209.103753 197.073984 
L 222.285805 201.224351 
L 222.197598 116.355579 
L 208.452891 112.524583 
z
" style="fill:#d9cd22;"/>
    <path clip-path="url(#pf5c9de9483)" d="M 181.59044 112.233221 
L 194.971711 116.004639 
L 203.054226 109.499801 
L 189.759108 105.802792 
z
" style="fill:#c2971e;"/>
    <path clip-path="url(#pf5c9de9483)" d="M 241.523583 217.136342 
L 249.101427 209.667246 
L 262.740181 213.961405 
L 255.255385 221.516949 
z
" style="fill:#0a0449;"/>
    <path clip-path="url(#pf5c9de9483)" d="M 216.513142 115.946389 
L 230.10007 119.740224 
L 237.835118 113.196729 
L 224.338378 109.477763 
z
" style="fill:#c28e22;"/>
    <path clip-path="url(#pf5c9de9483)" d="M 235.617509 205.421836 
L 243.136481 198.181496 
L 243.836967 124.476672 
L 236.042098 131.237646 
z
" style="fill:#6a4c13;"/>
    <path clip-path="url(#pf5c9de9483)" d="M 209.103753 197.073984 
L 208.422991 108.640423 
L 222.193545 112.455764 
L 222.285805 201.224351 
z
" style="fill:#64680e;"/>
    <path clip-path="url(#pf5c9de9483)" d="M 241.523583 217.136342 
L 249.101427 209.667246 
L 249.25699 197.313934 
L 241.632626 204.706272 
z
" style="fill:#220144;"/>
    <path clip-path="url(#pf5c9de9483)" d="M 227.971999 200.42028 
L 241.632626 204.706272 
L 249.25699 197.313934 
L 235.68796 193.112566 
z
" style="fill:#3e017d;"/>
    <path clip-path="url(#pf5c9de9483)" d="M 241.534205 215.92549 
L 255.274606 220.301794 
L 262.763817 212.753692 
L 249.116581 208.463804 
z
" style="fill:#0f0569;"/>
    <path clip-path="url(#pf5c9de9483)" d="M 227.94922 212.80596 
L 227.96303 205.296941 
L 241.589691 209.600519 
L 241.523583 217.136342 
z
" style="fill:#180240;"/>
    <path clip-path="url(#pf5c9de9483)" d="M 222.285805 201.224351 
L 222.213007 131.180947 
L 236.019898 135.116406 
L 235.617509 205.421836 
z
" style="fill:#694517;"/>
    <path clip-path="url(#pf5c9de9483)" d="M 201.262108 204.292457 
L 209.103753 197.073984 
L 208.446982 111.75699 
L 200.25709 118.41583 
z
" style="fill:#666210;"/>
    <path clip-path="url(#pf5c9de9483)" d="M 188.144156 200.107676 
L 186.710893 121.859566 
L 200.342921 125.749886 
L 201.262108 204.292457 
z
" style="fill:#695310;"/>
    <path clip-path="url(#pf5c9de9483)" d="M 222.285805 201.224351 
L 235.617509 205.421836 
L 236.042098 131.237646 
L 222.208991 127.317464 
z
" style="fill:#e0a029;"/>
    <path clip-path="url(#pf5c9de9483)" d="M 201.262108 204.292457 
L 200.220362 115.277443 
L 208.422991 108.640423 
L 209.103753 197.073984 
z
" style="fill:#d4dc1e;"/>
    <path clip-path="url(#pf5c9de9483)" d="M 227.94922 212.80596 
L 241.523583 217.136342 
L 241.632626 204.706272 
L 227.971999 200.42028 
z
" style="fill:#480290;"/>
    <path clip-path="url(#pf5c9de9483)" d="M 255.255385 221.516949 
L 262.740181 213.961405 
L 262.763817 212.753692 
L 255.274606 220.301794 
z
" style="fill:#080339;"/>
    <path clip-path="url(#pf5c9de9483)" d="M 220.127123 220.338193 
L 220.110854 212.782674 
L 227.96303 205.296941 
L 227.94922 212.80596 
z
" style="fill:#330488;"/>
    <path clip-path="url(#pf5c9de9483)" d="M 230.086164 124.70347 
L 243.798149 128.561127 
L 251.422486 121.907647 
L 237.802865 118.126371 
z
" style="fill:#c17e2a;"/>
    <path clip-path="url(#pf5c9de9483)" d="M 214.529606 208.524945 
L 214.17816 138.026824 
L 222.213007 131.180947 
L 222.285805 201.224351 
z
" style="fill:#de9230;"/>
    <path clip-path="url(#pf5c9de9483)" d="M 180.063228 207.386128 
L 188.144156 200.107676 
L 186.737253 123.298631 
L 178.32458 130.076013 
z
" style="fill:#6a5111;"/>
    <path clip-path="url(#pf5c9de9483)" d="M 188.144156 200.107676 
L 201.262108 204.292457 
L 200.25709 118.41583 
L 186.577093 114.554799 
z
" style="fill:#d8d022;"/>
    <path clip-path="url(#pf5c9de9483)" d="M 180.063228 207.386128 
L 178.291993 128.626994 
L 186.710893 121.859566 
L 188.144156 200.107676 
z
" style="fill:#dfb122;"/>
    <path clip-path="url(#pf5c9de9483)" d="M 220.127123 220.338193 
L 227.94922 212.80596 
L 241.523583 217.136342 
L 233.792858 224.756123 
z
" style="fill:#1f0252;"/>
    <path clip-path="url(#pf5c9de9483)" d="M 241.523583 217.136342 
L 241.529743 216.434082 
L 255.266533 220.812195 
L 255.255385 221.516949 
z
" style="fill:#070339;"/>
    <path clip-path="url(#pf5c9de9483)" d="M 241.523583 217.136342 
L 255.255385 221.516949 
L 255.274606 220.301794 
L 241.534205 215.92549 
z
" style="fill:#110679;"/>
    <path clip-path="url(#pf5c9de9483)" d="M 167.010898 203.166503 
L 180.063228 207.386128 
L 178.32458 130.076013 
L 164.772933 126.146246 
z
" style="fill:#e0ab24;"/>
    <path clip-path="url(#pf5c9de9483)" d="M 151.967941 138.821268 
L 165.255972 142.770172 
L 173.683228 135.959381 
L 160.478947 132.088843 
z
" style="fill:#b8623c;"/>
    <path clip-path="url(#pf5c9de9483)" d="M 214.529606 208.524945 
L 214.269294 156.30777 
L 228.045611 160.395731 
L 227.94922 212.80596 
z
" style="fill:#5d2929;"/>
    <path clip-path="url(#pf5c9de9483)" d="M 194.93395 113.355682 
L 208.488579 117.160555 
L 216.492828 110.598211 
L 203.027131 106.868934 
z
" style="fill:#c1a11c;"/>
    <path clip-path="url(#pf5c9de9483)" d="M 233.792858 224.756123 
L 233.796282 224.049537 
L 241.529743 216.434082 
L 241.523583 217.136342 
z
" style="fill:#0e0678;"/>
    <path clip-path="url(#pf5c9de9483)" d="M 201.262108 204.292457 
L 200.350828 126.425499 
L 214.139962 130.364644 
L 214.529606 208.524945 
z
" style="fill:#695310;"/>
    <path clip-path="url(#pf5c9de9483)" d="M 214.529606 208.524945 
L 222.285805 201.224351 
L 222.193545 112.455764 
L 214.084164 119.171711 
z
" style="fill:#64680e;"/>
    <path clip-path="url(#pf5c9de9483)" d="M 220.110854 212.782674 
L 233.829596 217.173598 
L 241.589691 209.600519 
L 227.96303 205.296941 
z
" style="fill:#2d0376;"/>
    <path clip-path="url(#pf5c9de9483)" d="M 206.61873 215.971129 
L 206.143658 163.418965 
L 214.269294 156.30777 
L 214.529606 208.524945 
z
" style="fill:#c55658;"/>
    <path clip-path="url(#pf5c9de9483)" d="M 233.792858 224.756123 
L 241.523583 217.136342 
L 241.589691 209.600519 
L 233.829596 217.173598 
z
" style="fill:#180240;"/>
    <path clip-path="url(#pf5c9de9483)" d="M 227.94922 212.80596 
L 235.617509 205.421836 
L 236.019898 135.116406 
L 228.079364 142.043428 
z
" style="fill:#694517;"/>
    <path clip-path="url(#pf5c9de9483)" d="M 193.264978 211.654059 
L 192.025241 133.278028 
L 200.350828 126.425499 
L 201.262108 204.292457 
z
" style="fill:#e0af22;"/>
    <path clip-path="url(#pf5c9de9483)" d="M 193.264978 211.654059 
L 201.262108 204.292457 
L 200.342921 125.749886 
L 192.01448 132.59773 
z
" style="fill:#695310;"/>
    <path clip-path="url(#pf5c9de9483)" d="M 233.792858 224.756123 
L 241.523583 217.136342 
L 255.255385 221.516949 
L 247.618703 229.225814 
z
" style="fill:#090449;"/>
    <path clip-path="url(#pf5c9de9483)" d="M 201.262108 204.292457 
L 214.529606 208.524945 
L 214.084164 119.171711 
L 200.220362 115.277443 
z
" style="fill:#d4dc1e;"/>
    <path clip-path="url(#pf5c9de9483)" d="M 233.796282 224.049537 
L 247.627182 228.516715 
L 255.266533 220.812195 
L 241.529743 216.434082 
z
" style="fill:#0c0668;"/>
    <path clip-path="url(#pf5c9de9483)" d="M 220.127123 220.338193 
L 233.792858 224.756123 
L 233.829596 217.173598 
L 220.110854 212.782674 
z
" style="fill:#330488;"/>
    <path clip-path="url(#pf5c9de9483)" d="M 214.529606 208.524945 
L 227.94922 212.80596 
L 228.079364 142.043428 
L 214.17816 138.026824 
z
" style="fill:#de9230;"/>
    <path clip-path="url(#pf5c9de9483)" d="M 180.063228 207.386128 
L 193.264978 211.654059 
L 192.01448 132.59773 
L 178.291993 128.626994 
z
" style="fill:#dfb122;"/>
    <path clip-path="url(#pf5c9de9483)" d="M 173.144974 114.281052 
L 186.642234 118.111152 
L 194.907575 111.505442 
L 181.49762 107.751827 
z
" style="fill:#c0a71c;"/>
    <path clip-path="url(#pf5c9de9483)" d="M 247.618703 229.225814 
L 255.255385 221.516949 
L 255.266533 220.812195 
L 247.627182 228.516715 
z
" style="fill:#070339;"/>
    <path clip-path="url(#pf5c9de9483)" d="M 220.127123 220.338193 
L 227.94922 212.80596 
L 228.045611 160.395731 
L 220.013546 167.591315 
z
" style="fill:#5d2929;"/>
    <path clip-path="url(#pf5c9de9483)" d="M 208.452891 112.524583 
L 222.197598 116.355579 
L 230.128066 109.748406 
L 216.47534 105.994133 
z
" style="fill:#bcb21d;"/>
    <path clip-path="url(#pf5c9de9483)" d="M 233.792858 224.756123 
L 247.618703 229.225814 
L 247.627182 228.516715 
L 233.796282 224.049537 
z
" style="fill:#0e0678;"/>
    <path clip-path="url(#pf5c9de9483)" d="M 206.61873 215.971129 
L 214.529606 208.524945 
L 214.139962 130.364644 
L 205.907535 137.29906 
z
" style="fill:#695310;"/>
    <path clip-path="url(#pf5c9de9483)" d="M 222.208991 127.317464 
L 236.042098 131.237646 
L 243.836967 124.476672 
L 230.097563 120.635041 
z
" style="fill:#c28b23;"/>
    <path clip-path="url(#pf5c9de9483)" d="M 206.61873 215.971129 
L 220.127123 220.338193 
L 220.013546 167.591315 
L 206.143658 163.418965 
z
" style="fill:#c55658;"/>
    <path clip-path="url(#pf5c9de9483)" d="M 193.264978 211.654059 
L 206.61873 215.971129 
L 205.907535 137.29906 
L 192.025241 133.278028 
z
" style="fill:#e0af22;"/>
    <path clip-path="url(#pf5c9de9483)" d="M 186.577093 114.554799 
L 200.25709 118.41583 
L 208.446982 111.75699 
L 194.857229 107.973642 
z
" style="fill:#bcb41e;"/>
    <path clip-path="url(#pf5c9de9483)" d="M 164.772933 126.146246 
L 178.32458 130.076013 
L 186.737253 123.298631 
L 173.273263 119.447934 
z
" style="fill:#c2941f;"/>
    <path clip-path="url(#pf5c9de9483)" d="M 214.17816 138.026824 
L 228.079364 142.043428 
L 236.019898 135.116406 
L 222.213007 131.180947 
z
" style="fill:#c17e2a;"/>
    <path clip-path="url(#pf5c9de9483)" d="M 206.143658 163.418965 
L 220.013546 167.591315 
L 228.045611 160.395731 
L 214.269294 156.30777 
z
" style="fill:#ab4b4c;"/>
    <path clip-path="url(#pf5c9de9483)" d="M 178.291993 128.626994 
L 192.01448 132.59773 
L 200.342921 125.749886 
L 186.710893 121.859566 
z
" style="fill:#c2991e;"/>
    <path clip-path="url(#pf5c9de9483)" d="M 200.220362 115.277443 
L 214.084164 119.171711 
L 222.193545 112.455764 
L 208.422991 108.640423 
z
" style="fill:#b8bf1a;"/>
    <path clip-path="url(#pf5c9de9483)" d="M 192.025241 133.278028 
L 205.907535 137.29906 
L 214.139962 130.364644 
L 200.350828 126.425499 
z
" style="fill:#c2981e;"/>
   </g>
   <g id="text_16">
    <!-- W40__H45__A020_bars_extracted.txt -->
    <g transform="translate(110.101875 28.56)scale(0.12 -0.12)">
     <defs>
      <path d="M 3.328125 72.90625 
L 13.28125 72.90625 
L 28.609375 11.28125 
L 43.890625 72.90625 
L 54.984375 72.90625 
L 70.3125 11.28125 
L 85.59375 72.90625 
L 95.609375 72.90625 
L 77.296875 0 
L 64.890625 0 
L 49.515625 63.28125 
L 33.984375 0 
L 21.578125 0 
z
" id="DejaVuSans-87"/>
      <path d="M 50.984375 -16.609375 
L 50.984375 -23.578125 
L -0.984375 -23.578125 
L -0.984375 -16.609375 
z
" id="DejaVuSans-95"/>
      <path d="M 9.8125 72.90625 
L 19.671875 72.90625 
L 19.671875 43.015625 
L 55.515625 43.015625 
L 55.515625 72.90625 
L 65.375 72.90625 
L 65.375 0 
L 55.515625 0 
L 55.515625 34.71875 
L 19.671875 34.71875 
L 19.671875 0 
L 9.8125 0 
z
" id="DejaVuSans-72"/>
      <path d="M 34.1875 63.1875 
L 20.796875 26.90625 
L 47.609375 26.90625 
z
M 28.609375 72.90625 
L 39.796875 72.90625 
L 67.578125 0 
L 57.328125 0 
L 50.6875 18.703125 
L 17.828125 18.703125 
L 11.1875 0 
L 0.78125 0 
z
" id="DejaVuSans-65"/>
      <path d="M 48.6875 27.296875 
Q 48.6875 37.203125 44.609375 42.84375 
Q 40.53125 48.484375 33.40625 48.484375 
Q 26.265625 48.484375 22.1875 42.84375 
Q 18.109375 37.203125 18.109375 27.296875 
Q 18.109375 17.390625 22.1875 11.75 
Q 26.265625 6.109375 33.40625 6.109375 
Q 40.53125 6.109375 44.609375 11.75 
Q 48.6875 17.390625 48.6875 27.296875 
z
M 18.109375 46.390625 
Q 20.953125 51.265625 25.265625 53.625 
Q 29.59375 56 35.59375 56 
Q 45.5625 56 51.78125 48.09375 
Q 58.015625 40.1875 58.015625 27.296875 
Q 58.015625 14.40625 51.78125 6.484375 
Q 45.5625 -1.421875 35.59375 -1.421875 
Q 29.59375 -1.421875 25.265625 0.953125 
Q 20.953125 3.328125 18.109375 8.203125 
L 18.109375 0 
L 9.078125 0 
L 9.078125 75.984375 
L 18.109375 75.984375 
z
" id="DejaVuSans-98"/>
      <path d="M 34.28125 27.484375 
Q 23.390625 27.484375 19.1875 25 
Q 14.984375 22.515625 14.984375 16.5 
Q 14.984375 11.71875 18.140625 8.90625 
Q 21.296875 6.109375 26.703125 6.109375 
Q 34.1875 6.109375 38.703125 11.40625 
Q 43.21875 16.703125 43.21875 25.484375 
L 43.21875 27.484375 
z
M 52.203125 31.203125 
L 52.203125 0 
L 43.21875 0 
L 43.21875 8.296875 
Q 40.140625 3.328125 35.546875 0.953125 
Q 30.953125 -1.421875 24.3125 -1.421875 
Q 15.921875 -1.421875 10.953125 3.296875 
Q 6 8.015625 6 15.921875 
Q 6 25.140625 12.171875 29.828125 
Q 18.359375 34.515625 30.609375 34.515625 
L 43.21875 34.515625 
L 43.21875 35.40625 
Q 43.21875 41.609375 39.140625 45 
Q 35.0625 48.390625 27.6875 48.390625 
Q 23 48.390625 18.546875 47.265625 
Q 14.109375 46.140625 10.015625 43.890625 
L 10.015625 52.203125 
Q 14.9375 54.109375 19.578125 55.046875 
Q 24.21875 56 28.609375 56 
Q 40.484375 56 46.34375 49.84375 
Q 52.203125 43.703125 52.203125 31.203125 
z
" id="DejaVuSans-97"/>
      <path d="M 41.109375 46.296875 
Q 39.59375 47.171875 37.8125 47.578125 
Q 36.03125 48 33.890625 48 
Q 26.265625 48 22.1875 43.046875 
Q 18.109375 38.09375 18.109375 28.8125 
L 18.109375 0 
L 9.078125 0 
L 9.078125 54.6875 
L 18.109375 54.6875 
L 18.109375 46.1875 
Q 20.953125 51.171875 25.484375 53.578125 
Q 30.03125 56 36.53125 56 
Q 37.453125 56 38.578125 55.875 
Q 39.703125 55.765625 41.0625 55.515625 
z
" id="DejaVuSans-114"/>
      <path d="M 44.28125 53.078125 
L 44.28125 44.578125 
Q 40.484375 46.53125 36.375 47.5 
Q 32.28125 48.484375 27.875 48.484375 
Q 21.1875 48.484375 17.84375 46.4375 
Q 14.5 44.390625 14.5 40.28125 
Q 14.5 37.15625 16.890625 35.375 
Q 19.28125 33.59375 26.515625 31.984375 
L 29.59375 31.296875 
Q 39.15625 29.25 43.1875 25.515625 
Q 47.21875 21.78125 47.21875 15.09375 
Q 47.21875 7.46875 41.1875 3.015625 
Q 35.15625 -1.421875 24.609375 -1.421875 
Q 20.21875 -1.421875 15.453125 -0.5625 
Q 10.6875 0.296875 5.421875 2 
L 5.421875 11.28125 
Q 10.40625 8.6875 15.234375 7.390625 
Q 20.0625 6.109375 24.8125 6.109375 
Q 31.15625 6.109375 34.5625 8.28125 
Q 37.984375 10.453125 37.984375 14.40625 
Q 37.984375 18.0625 35.515625 20.015625 
Q 33.0625 21.96875 24.703125 23.78125 
L 21.578125 24.515625 
Q 13.234375 26.265625 9.515625 29.90625 
Q 5.8125 33.546875 5.8125 39.890625 
Q 5.8125 47.609375 11.28125 51.796875 
Q 16.75 56 26.8125 56 
Q 31.78125 56 36.171875 55.265625 
Q 40.578125 54.546875 44.28125 53.078125 
z
" id="DejaVuSans-115"/>
      <path d="M 56.203125 29.59375 
L 56.203125 25.203125 
L 14.890625 25.203125 
Q 15.484375 15.921875 20.484375 11.0625 
Q 25.484375 6.203125 34.421875 6.203125 
Q 39.59375 6.203125 44.453125 7.46875 
Q 49.3125 8.734375 54.109375 11.28125 
L 54.109375 2.78125 
Q 49.265625 0.734375 44.1875 -0.34375 
Q 39.109375 -1.421875 33.890625 -1.421875 
Q 20.796875 -1.421875 13.15625 6.1875 
Q 5.515625 13.8125 5.515625 26.8125 
Q 5.515625 40.234375 12.765625 48.109375 
Q 20.015625 56 32.328125 56 
Q 43.359375 56 49.78125 48.890625 
Q 56.203125 41.796875 56.203125 29.59375 
z
M 47.21875 32.234375 
Q 47.125 39.59375 43.09375 43.984375 
Q 39.0625 48.390625 32.421875 48.390625 
Q 24.90625 48.390625 20.390625 44.140625 
Q 15.875 39.890625 15.1875 32.171875 
z
" id="DejaVuSans-101"/>
      <path d="M 54.890625 54.6875 
L 35.109375 28.078125 
L 55.90625 0 
L 45.3125 0 
L 29.390625 21.484375 
L 13.484375 0 
L 2.875 0 
L 24.125 28.609375 
L 4.6875 54.6875 
L 15.28125 54.6875 
L 29.78125 35.203125 
L 44.28125 54.6875 
z
" id="DejaVuSans-120"/>
      <path d="M 18.3125 70.21875 
L 18.3125 54.6875 
L 36.8125 54.6875 
L 36.8125 47.703125 
L 18.3125 47.703125 
L 18.3125 18.015625 
Q 18.3125 11.328125 20.140625 9.421875 
Q 21.96875 7.515625 27.59375 7.515625 
L 36.8125 7.515625 
L 36.8125 0 
L 27.59375 0 
Q 17.1875 0 13.234375 3.875 
Q 9.28125 7.765625 9.28125 18.015625 
L 9.28125 47.703125 
L 2.6875 47.703125 
L 2.6875 54.6875 
L 9.28125 54.6875 
L 9.28125 70.21875 
z
" id="DejaVuSans-116"/>
      <path d="M 48.78125 52.59375 
L 48.78125 44.1875 
Q 44.96875 46.296875 41.140625 47.34375 
Q 37.3125 48.390625 33.40625 48.390625 
Q 24.65625 48.390625 19.8125 42.84375 
Q 14.984375 37.3125 14.984375 27.296875 
Q 14.984375 17.28125 19.8125 11.734375 
Q 24.65625 6.203125 33.40625 6.203125 
Q 37.3125 6.203125 41.140625 7.25 
Q 44.96875 8.296875 48.78125 10.40625 
L 48.78125 2.09375 
Q 45.015625 0.34375 40.984375 -0.53125 
Q 36.96875 -1.421875 32.421875 -1.421875 
Q 20.0625 -1.421875 12.78125 6.34375 
Q 5.515625 14.109375 5.515625 27.296875 
Q 5.515625 40.671875 12.859375 48.328125 
Q 20.21875 56 33.015625 56 
Q 37.15625 56 41.109375 55.140625 
Q 45.0625 54.296875 48.78125 52.59375 
z
" id="DejaVuSans-99"/>
      <path d="M 45.40625 46.390625 
L 45.40625 75.984375 
L 54.390625 75.984375 
L 54.390625 0 
L 45.40625 0 
L 45.40625 8.203125 
Q 42.578125 3.328125 38.25 0.953125 
Q 33.9375 -1.421875 27.875 -1.421875 
Q 17.96875 -1.421875 11.734375 6.484375 
Q 5.515625 14.40625 5.515625 27.296875 
Q 5.515625 40.1875 11.734375 48.09375 
Q 17.96875 56 27.875 56 
Q 33.9375 56 38.25 53.625 
Q 42.578125 51.265625 45.40625 46.390625 
z
M 14.796875 27.296875 
Q 14.796875 17.390625 18.875 11.75 
Q 22.953125 6.109375 30.078125 6.109375 
Q 37.203125 6.109375 41.296875 11.75 
Q 45.40625 17.390625 45.40625 27.296875 
Q 45.40625 37.203125 41.296875 42.84375 
Q 37.203125 48.484375 30.078125 48.484375 
Q 22.953125 48.484375 18.875 42.84375 
Q 14.796875 37.203125 14.796875 27.296875 
z
" id="DejaVuSans-100"/>
      <path d="M 10.6875 12.40625 
L 21 12.40625 
L 21 0 
L 10.6875 0 
z
" id="DejaVuSans-46"/>
     </defs>
     <use xlink:href="#DejaVuSans-87"/>
     <use x="98.876953" xlink:href="#DejaVuSans-52"/>
     <use x="162.5" xlink:href="#DejaVuSans-48"/>
     <use x="226.123047" xlink:href="#DejaVuSans-95"/>
     <use x="276.123047" xlink:href="#DejaVuSans-95"/>
     <use x="326.123047" xlink:href="#DejaVuSans-72"/>
     <use x="401.318359" xlink:href="#DejaVuSans-52"/>
     <use x="464.941406" xlink:href="#DejaVuSans-53"/>
     <use x="528.564453" xlink:href="#DejaVuSans-95"/>
     <use x="578.564453" xlink:href="#DejaVuSans-95"/>
     <use x="628.564453" xlink:href="#DejaVuSans-65"/>
     <use x="696.972656" xlink:href="#DejaVuSans-48"/>
     <use x="760.595703" xlink:href="#DejaVuSans-50"/>
     <use x="824.21875" xlink:href="#DejaVuSans-48"/>
     <use x="887.841797" xlink:href="#DejaVuSans-95"/>
     <use x="937.841797" xlink:href="#DejaVuSans-98"/>
     <use x="1001.318359" xlink:href="#DejaVuSans-97"/>
     <use x="1062.597656" xlink:href="#DejaVuSans-114"/>
     <use x="1103.710938" xlink:href="#DejaVuSans-115"/>
     <use x="1155.810547" xlink:href="#DejaVuSans-95"/>
     <use x="1205.810547" xlink:href="#DejaVuSans-101"/>
     <use x="1265.583984" xlink:href="#DejaVuSans-120"/>
     <use x="1324.763672" xlink:href="#DejaVuSans-116"/>
     <use x="1363.972656" xlink:href="#DejaVuSans-114"/>
     <use x="1405.085938" xlink:href="#DejaVuSans-97"/>
     <use x="1466.365234" xlink:href="#DejaVuSans-99"/>
     <use x="1521.345703" xlink:href="#DejaVuSans-116"/>
     <use x="1560.554688" xlink:href="#DejaVuSans-101"/>
     <use x="1622.078125" xlink:href="#DejaVuSans-100"/>
     <use x="1685.554688" xlink:href="#DejaVuSans-46"/>
     <use x="1717.341797" xlink:href="#DejaVuSans-116"/>
     <use x="1756.550781" xlink:href="#DejaVuSans-120"/>
     <use x="1815.730469" xlink:href="#DejaVuSans-116"/>
    </g>
   </g>
  </g>
 </g>
 <defs>
  <clipPath id="pf5c9de9483">
   <rect height="217.44" width="217.44" x="112.68" y="34.56"/>
  </clipPath>
 </defs>
</svg>
