<?xml version="1.0" encoding="utf-8" standalone="no"?>
<!DOCTYPE svg PUBLIC "-//W3C//DTD SVG 1.1//EN"
  "http://www.w3.org/Graphics/SVG/1.1/DTD/svg11.dtd">
<!-- Created with matplotlib (https://matplotlib.org/) -->
<svg height="288pt" version="1.1" viewBox="0 0 432 288" width="432pt" xmlns="http://www.w3.org/2000/svg" xmlns:xlink="http://www.w3.org/1999/xlink">
 <metadata>
  <rdf:RDF xmlns:cc="http://creativecommons.org/ns#" xmlns:dc="http://purl.org/dc/elements/1.1/" xmlns:rdf="http://www.w3.org/1999/02/22-rdf-syntax-ns#">
   <cc:Work>
    <dc:type rdf:resource="http://purl.org/dc/dcmitype/StillImage"/>
    <dc:date>2021-06-13T21:59:27.736546</dc:date>
    <dc:format>image/svg+xml</dc:format>
    <dc:creator>
     <cc:Agent>
      <dc:title>Matplotlib v3.3.4, https://matplotlib.org/</dc:title>
     </cc:Agent>
    </dc:creator>
   </cc:Work>
  </rdf:RDF>
 </metadata>
 <defs>
  <style type="text/css">*{stroke-linecap:butt;stroke-linejoin:round;}</style>
 </defs>
 <g id="figure_1">
  <g id="patch_1">
   <path d="M 0 288 
L 432 288 
L 432 0 
L 0 0 
z
" style="fill:#ffffff;"/>
  </g>
  <g id="patch_2">
   <path d="M 112.68 252 
L 330.12 252 
L 330.12 34.56 
L 112.68 34.56 
z
" style="fill:#ffffff;"/>
  </g>
  <g id="pane3d_1">
   <g id="patch_3">
    <path d="M 129.09822 198.386264 
L 200.904009 138.197228 
L 199.90584 51.393878 
L 124.663773 106.302111 
" style="fill:#f2f2f2;opacity:0.5;stroke:#f2f2f2;stroke-linejoin:miter;"/>
   </g>
  </g>
  <g id="pane3d_2">
   <g id="patch_4">
    <path d="M 200.904009 138.197228 
L 316.12668 171.68791 
L 320.238571 81.894718 
L 199.90584 51.393878 
" style="fill:#e6e6e6;opacity:0.5;stroke:#e6e6e6;stroke-linejoin:miter;"/>
   </g>
  </g>
  <g id="pane3d_3">
   <g id="patch_5">
    <path d="M 129.09822 198.386264 
L 251.239879 238.27773 
L 316.12668 171.68791 
L 200.904009 138.197228 
" style="fill:#ececec;opacity:0.5;stroke:#ececec;stroke-linejoin:miter;"/>
   </g>
  </g>
  <g id="axis3d_1">
   <g id="line2d_1">
    <path d="M 129.09822 198.386264 
L 251.239879 238.27773 
" style="fill:none;stroke:#000000;stroke-linecap:square;stroke-width:0.8;"/>
   </g>
   <g id="Line3DCollection_1">
    <path d="M 136.495759 200.802301 
L 207.911499 140.234029 
L 207.209612 53.245171 
" style="fill:none;stroke:#b0b0b0;stroke-width:0.8;"/>
    <path d="M 162.23134 209.207541 
L 232.260894 147.311436 
L 232.60309 59.681678 
" style="fill:none;stroke:#b0b0b0;stroke-width:0.8;"/>
    <path d="M 188.559037 217.806167 
L 257.123632 154.538053 
L 258.555303 66.259807 
" style="fill:none;stroke:#b0b0b0;stroke-width:0.8;"/>
    <path d="M 215.499525 226.604931 
L 282.516121 161.918647 
L 285.084894 72.984285 
" style="fill:none;stroke:#b0b0b0;stroke-width:0.8;"/>
    <path d="M 243.074449 235.610901 
L 308.455474 169.458193 
L 312.21135 79.860051 
" style="fill:none;stroke:#b0b0b0;stroke-width:0.8;"/>
   </g>
   <g id="xtick_1">
    <g id="line2d_2">
     <path d="M 137.117644 200.274876 
L 135.249322 201.859414 
" style="fill:none;stroke:#000000;stroke-linecap:square;stroke-width:0.8;"/>
    </g>
    <g id="text_1">
     <!-- 0 -->
     <g transform="translate(125.77919 224.124533)scale(0.1 -0.1)">
      <defs>
       <path d="M 31.78125 66.40625 
Q 24.171875 66.40625 20.328125 58.90625 
Q 16.5 51.421875 16.5 36.375 
Q 16.5 21.390625 20.328125 13.890625 
Q 24.171875 6.390625 31.78125 6.390625 
Q 39.453125 6.390625 43.28125 13.890625 
Q 47.125 21.390625 47.125 36.375 
Q 47.125 51.421875 43.28125 58.90625 
Q 39.453125 66.40625 31.78125 66.40625 
z
M 31.78125 74.21875 
Q 44.046875 74.21875 50.515625 64.515625 
Q 56.984375 54.828125 56.984375 36.375 
Q 56.984375 17.96875 50.515625 8.265625 
Q 44.046875 -1.421875 31.78125 -1.421875 
Q 19.53125 -1.421875 13.0625 8.265625 
Q 6.59375 17.96875 6.59375 36.375 
Q 6.59375 54.828125 13.0625 64.515625 
Q 19.53125 74.21875 31.78125 74.21875 
z
" id="DejaVuSans-48"/>
      </defs>
      <use xlink:href="#DejaVuSans-48"/>
     </g>
    </g>
   </g>
   <g id="xtick_2">
    <g id="line2d_3">
     <path d="M 162.841716 208.668056 
L 161.007937 210.288854 
" style="fill:none;stroke:#000000;stroke-linecap:square;stroke-width:0.8;"/>
    </g>
    <g id="text_2">
     <!-- 2 -->
     <g transform="translate(151.547192 232.748132)scale(0.1 -0.1)">
      <defs>
       <path d="M 19.1875 8.296875 
L 53.609375 8.296875 
L 53.609375 0 
L 7.328125 0 
L 7.328125 8.296875 
Q 12.9375 14.109375 22.625 23.890625 
Q 32.328125 33.6875 34.8125 36.53125 
Q 39.546875 41.84375 41.421875 45.53125 
Q 43.3125 49.21875 43.3125 52.78125 
Q 43.3125 58.59375 39.234375 62.25 
Q 35.15625 65.921875 28.609375 65.921875 
Q 23.96875 65.921875 18.8125 64.3125 
Q 13.671875 62.703125 7.8125 59.421875 
L 7.8125 69.390625 
Q 13.765625 71.78125 18.9375 73 
Q 24.125 74.21875 28.421875 74.21875 
Q 39.75 74.21875 46.484375 68.546875 
Q 53.21875 62.890625 53.21875 53.421875 
Q 53.21875 48.921875 51.53125 44.890625 
Q 49.859375 40.875 45.40625 35.40625 
Q 44.1875 33.984375 37.640625 27.21875 
Q 31.109375 20.453125 19.1875 8.296875 
z
" id="DejaVuSans-50"/>
      </defs>
      <use xlink:href="#DejaVuSans-50"/>
     </g>
    </g>
   </g>
   <g id="xtick_3">
    <g id="line2d_4">
     <path d="M 189.15721 217.254202 
L 187.360066 218.91252 
" style="fill:none;stroke:#000000;stroke-linecap:square;stroke-width:0.8;"/>
    </g>
    <g id="text_3">
     <!-- 4 -->
     <g transform="translate(177.91082 241.571064)scale(0.1 -0.1)">
      <defs>
       <path d="M 37.796875 64.3125 
L 12.890625 25.390625 
L 37.796875 25.390625 
z
M 35.203125 72.90625 
L 47.609375 72.90625 
L 47.609375 25.390625 
L 58.015625 25.390625 
L 58.015625 17.1875 
L 47.609375 17.1875 
L 47.609375 0 
L 37.796875 0 
L 37.796875 17.1875 
L 4.890625 17.1875 
L 4.890625 26.703125 
z
" id="DejaVuSans-52"/>
      </defs>
      <use xlink:href="#DejaVuSans-52"/>
     </g>
    </g>
   </g>
   <g id="xtick_4">
    <g id="line2d_5">
     <path d="M 216.084757 226.040048 
L 214.326462 227.737204 
" style="fill:none;stroke:#000000;stroke-linecap:square;stroke-width:0.8;"/>
    </g>
    <g id="text_4">
     <!-- 6 -->
     <g transform="translate(204.890965 250.600322)scale(0.1 -0.1)">
      <defs>
       <path d="M 33.015625 40.375 
Q 26.375 40.375 22.484375 35.828125 
Q 18.609375 31.296875 18.609375 23.390625 
Q 18.609375 15.53125 22.484375 10.953125 
Q 26.375 6.390625 33.015625 6.390625 
Q 39.65625 6.390625 43.53125 10.953125 
Q 47.40625 15.53125 47.40625 23.390625 
Q 47.40625 31.296875 43.53125 35.828125 
Q 39.65625 40.375 33.015625 40.375 
z
M 52.59375 71.296875 
L 52.59375 62.3125 
Q 48.875 64.0625 45.09375 64.984375 
Q 41.3125 65.921875 37.59375 65.921875 
Q 27.828125 65.921875 22.671875 59.328125 
Q 17.53125 52.734375 16.796875 39.40625 
Q 19.671875 43.65625 24.015625 45.921875 
Q 28.375 48.1875 33.59375 48.1875 
Q 44.578125 48.1875 50.953125 41.515625 
Q 57.328125 34.859375 57.328125 23.390625 
Q 57.328125 12.15625 50.6875 5.359375 
Q 44.046875 -1.421875 33.015625 -1.421875 
Q 20.359375 -1.421875 13.671875 8.265625 
Q 6.984375 17.96875 6.984375 36.375 
Q 6.984375 53.65625 15.1875 63.9375 
Q 23.390625 74.21875 37.203125 74.21875 
Q 40.921875 74.21875 44.703125 73.484375 
Q 48.484375 72.75 52.59375 71.296875 
z
" id="DejaVuSans-54"/>
      </defs>
      <use xlink:href="#DejaVuSans-54"/>
     </g>
    </g>
   </g>
   <g id="xtick_5">
    <g id="line2d_6">
     <path d="M 243.645962 235.032643 
L 241.928856 236.770015 
" style="fill:none;stroke:#000000;stroke-linecap:square;stroke-width:0.8;"/>
    </g>
    <g id="text_5">
     <!-- 8 -->
     <g transform="translate(232.509511 259.84323)scale(0.1 -0.1)">
      <defs>
       <path d="M 31.78125 34.625 
Q 24.75 34.625 20.71875 30.859375 
Q 16.703125 27.09375 16.703125 20.515625 
Q 16.703125 13.921875 20.71875 10.15625 
Q 24.75 6.390625 31.78125 6.390625 
Q 38.8125 6.390625 42.859375 10.171875 
Q 46.921875 13.96875 46.921875 20.515625 
Q 46.921875 27.09375 42.890625 30.859375 
Q 38.875 34.625 31.78125 34.625 
z
M 21.921875 38.8125 
Q 15.578125 40.375 12.03125 44.71875 
Q 8.5 49.078125 8.5 55.328125 
Q 8.5 64.0625 14.71875 69.140625 
Q 20.953125 74.21875 31.78125 74.21875 
Q 42.671875 74.21875 48.875 69.140625 
Q 55.078125 64.0625 55.078125 55.328125 
Q 55.078125 49.078125 51.53125 44.71875 
Q 48 40.375 41.703125 38.8125 
Q 48.828125 37.15625 52.796875 32.3125 
Q 56.78125 27.484375 56.78125 20.515625 
Q 56.78125 9.90625 50.3125 4.234375 
Q 43.84375 -1.421875 31.78125 -1.421875 
Q 19.734375 -1.421875 13.25 4.234375 
Q 6.78125 9.90625 6.78125 20.515625 
Q 6.78125 27.484375 10.78125 32.3125 
Q 14.796875 37.15625 21.921875 38.8125 
z
M 18.3125 54.390625 
Q 18.3125 48.734375 21.84375 45.5625 
Q 25.390625 42.390625 31.78125 42.390625 
Q 38.140625 42.390625 41.71875 45.5625 
Q 45.3125 48.734375 45.3125 54.390625 
Q 45.3125 60.0625 41.71875 63.234375 
Q 38.140625 66.40625 31.78125 66.40625 
Q 25.390625 66.40625 21.84375 63.234375 
Q 18.3125 60.0625 18.3125 54.390625 
z
" id="DejaVuSans-56"/>
      </defs>
      <use xlink:href="#DejaVuSans-56"/>
     </g>
    </g>
   </g>
  </g>
  <g id="axis3d_2">
   <g id="line2d_7">
    <path d="M 316.12668 171.68791 
L 251.239879 238.27773 
" style="fill:none;stroke:#000000;stroke-linecap:square;stroke-width:0.8;"/>
   </g>
   <g id="Line3DCollection_2">
    <path d="M 129.866948 102.505071 
L 134.046245 194.238731 
L 255.729543 233.67023 
" style="fill:none;stroke:#b0b0b0;stroke-width:0.8;"/>
    <path d="M 147.250212 89.819556 
L 150.59591 180.366474 
L 270.72626 218.279909 
" style="fill:none;stroke:#b0b0b0;stroke-width:0.8;"/>
    <path d="M 163.958537 77.626582 
L 166.530371 167.009893 
L 285.136664 203.491289 
" style="fill:none;stroke:#b0b0b0;stroke-width:0.8;"/>
    <path d="M 180.030483 65.898008 
L 181.883306 154.140758 
L 298.994481 189.269761 
" style="fill:none;stroke:#b0b0b0;stroke-width:0.8;"/>
    <path d="M 195.501727 54.607799 
L 196.68598 141.732864 
L 312.330896 175.583317 
" style="fill:none;stroke:#b0b0b0;stroke-width:0.8;"/>
   </g>
   <g id="xtick_6">
    <g id="line2d_8">
     <path d="M 254.704115 233.337939 
L 257.783053 234.33567 
" style="fill:none;stroke:#000000;stroke-linecap:square;stroke-width:0.8;"/>
    </g>
    <g id="text_6">
     <!-- 0 -->
     <g transform="translate(265.430654 254.693759)scale(0.1 -0.1)">
      <use xlink:href="#DejaVuSans-48"/>
     </g>
    </g>
   </g>
   <g id="xtick_7">
    <g id="line2d_9">
     <path d="M 269.71494 217.960734 
L 272.751463 218.919068 
" style="fill:none;stroke:#000000;stroke-linecap:square;stroke-width:0.8;"/>
    </g>
    <g id="text_7">
     <!-- 2 -->
     <g transform="translate(280.181112 239.024526)scale(0.1 -0.1)">
      <use xlink:href="#DejaVuSans-50"/>
     </g>
    </g>
   </g>
   <g id="xtick_8">
    <g id="line2d_10">
     <path d="M 284.139145 203.184468 
L 287.134182 204.105694 
" style="fill:none;stroke:#000000;stroke-linecap:square;stroke-width:0.8;"/>
    </g>
    <g id="text_8">
     <!-- 4 -->
     <g transform="translate(294.35448 223.968328)scale(0.1 -0.1)">
      <use xlink:href="#DejaVuSans-52"/>
     </g>
    </g>
   </g>
   <g id="xtick_9">
    <g id="line2d_11">
     <path d="M 298.010457 188.97459 
L 300.964927 189.860821 
" style="fill:none;stroke:#000000;stroke-linecap:square;stroke-width:0.8;"/>
    </g>
    <g id="text_9">
     <!-- 6 -->
     <g transform="translate(307.983974 209.489882)scale(0.1 -0.1)">
      <use xlink:href="#DejaVuSans-54"/>
     </g>
    </g>
   </g>
   <g id="xtick_10">
    <g id="line2d_12">
     <path d="M 311.360068 175.299146 
L 314.274875 176.15234 
" style="fill:none;stroke:#000000;stroke-linecap:square;stroke-width:0.8;"/>
    </g>
    <g id="text_10">
     <!-- 8 -->
     <g transform="translate(321.10031 195.556556)scale(0.1 -0.1)">
      <use xlink:href="#DejaVuSans-56"/>
     </g>
    </g>
   </g>
  </g>
  <g id="axis3d_3">
   <g id="line2d_13">
    <path d="M 316.12668 171.68791 
L 320.238571 81.894718 
" style="fill:none;stroke:#000000;stroke-linecap:square;stroke-width:0.8;"/>
   </g>
   <g id="Line3DCollection_3">
    <path d="M 316.205459 169.967571 
L 200.884845 136.530725 
L 129.013401 196.624949 
" style="fill:none;stroke:#b0b0b0;stroke-width:0.8;"/>
    <path d="M 317.104385 150.337329 
L 200.666287 117.524327 
L 128.045173 176.519078 
" style="fill:none;stroke:#b0b0b0;stroke-width:0.8;"/>
    <path d="M 318.021077 130.319124 
L 200.443617 98.160365 
L 127.057075 156.000579 
" style="fill:none;stroke:#b0b0b0;stroke-width:0.8;"/>
    <path d="M 318.956067 109.90134 
L 200.216718 78.428651 
L 126.048488 135.05662 
" style="fill:none;stroke:#b0b0b0;stroke-width:0.8;"/>
    <path d="M 319.909907 89.071892 
L 199.985468 58.31861 
L 125.018769 113.673829 
" style="fill:none;stroke:#b0b0b0;stroke-width:0.8;"/>
   </g>
   <g id="xtick_11">
    <g id="line2d_14">
     <path d="M 315.237563 169.686933 
L 318.143556 170.529516 
" style="fill:none;stroke:#000000;stroke-linecap:square;stroke-width:0.8;"/>
    </g>
    <g id="text_11">
     <!-- 0 -->
     <g transform="translate(331.275915 174.966846)scale(0.1 -0.1)">
      <use xlink:href="#DejaVuSans-48"/>
     </g>
    </g>
   </g>
   <g id="xtick_12">
    <g id="line2d_15">
     <path d="M 316.126662 150.0618 
L 319.062182 150.889049 
" style="fill:none;stroke:#000000;stroke-linecap:square;stroke-width:0.8;"/>
    </g>
    <g id="text_12">
     <!-- 10000 -->
     <g transform="translate(319.624442 155.384011)scale(0.1 -0.1)">
      <defs>
       <path d="M 12.40625 8.296875 
L 28.515625 8.296875 
L 28.515625 63.921875 
L 10.984375 60.40625 
L 10.984375 69.390625 
L 28.421875 72.90625 
L 38.28125 72.90625 
L 38.28125 8.296875 
L 54.390625 8.296875 
L 54.390625 0 
L 12.40625 0 
z
" id="DejaVuSans-49"/>
      </defs>
      <use xlink:href="#DejaVuSans-49"/>
      <use x="63.623047" xlink:href="#DejaVuSans-48"/>
      <use x="127.246094" xlink:href="#DejaVuSans-48"/>
      <use x="190.869141" xlink:href="#DejaVuSans-48"/>
      <use x="254.492188" xlink:href="#DejaVuSans-48"/>
     </g>
    </g>
   </g>
   <g id="xtick_13">
    <g id="line2d_16">
     <path d="M 317.033325 130.048963 
L 319.998978 130.860102 
" style="fill:none;stroke:#000000;stroke-linecap:square;stroke-width:0.8;"/>
    </g>
    <g id="text_13">
     <!-- 20000 -->
     <g transform="translate(320.719106 135.415598)scale(0.1 -0.1)">
      <use xlink:href="#DejaVuSans-50"/>
      <use x="63.623047" xlink:href="#DejaVuSans-48"/>
      <use x="127.246094" xlink:href="#DejaVuSans-48"/>
      <use x="190.869141" xlink:href="#DejaVuSans-48"/>
      <use x="254.492188" xlink:href="#DejaVuSans-48"/>
     </g>
    </g>
   </g>
   <g id="xtick_14">
    <g id="line2d_17">
     <path d="M 317.958079 109.636816 
L 320.954488 110.431035 
" style="fill:none;stroke:#000000;stroke-linecap:square;stroke-width:0.8;"/>
    </g>
    <g id="text_14">
     <!-- 30000 -->
     <g transform="translate(321.835538 115.050106)scale(0.1 -0.1)">
      <defs>
       <path d="M 40.578125 39.3125 
Q 47.65625 37.796875 51.625 33 
Q 55.609375 28.21875 55.609375 21.1875 
Q 55.609375 10.40625 48.1875 4.484375 
Q 40.765625 -1.421875 27.09375 -1.421875 
Q 22.515625 -1.421875 17.65625 -0.515625 
Q 12.796875 0.390625 7.625 2.203125 
L 7.625 11.71875 
Q 11.71875 9.328125 16.59375 8.109375 
Q 21.484375 6.890625 26.8125 6.890625 
Q 36.078125 6.890625 40.9375 10.546875 
Q 45.796875 14.203125 45.796875 21.1875 
Q 45.796875 27.640625 41.28125 31.265625 
Q 36.765625 34.90625 28.71875 34.90625 
L 20.21875 34.90625 
L 20.21875 43.015625 
L 29.109375 43.015625 
Q 36.375 43.015625 40.234375 45.921875 
Q 44.09375 48.828125 44.09375 54.296875 
Q 44.09375 59.90625 40.109375 62.90625 
Q 36.140625 65.921875 28.71875 65.921875 
Q 24.65625 65.921875 20.015625 65.03125 
Q 15.375 64.15625 9.8125 62.3125 
L 9.8125 71.09375 
Q 15.4375 72.65625 20.34375 73.4375 
Q 25.25 74.21875 29.59375 74.21875 
Q 40.828125 74.21875 47.359375 69.109375 
Q 53.90625 64.015625 53.90625 55.328125 
Q 53.90625 49.265625 50.4375 45.09375 
Q 46.96875 40.921875 40.578125 39.3125 
z
" id="DejaVuSans-51"/>
      </defs>
      <use xlink:href="#DejaVuSans-51"/>
      <use x="63.623047" xlink:href="#DejaVuSans-48"/>
      <use x="127.246094" xlink:href="#DejaVuSans-48"/>
      <use x="190.869141" xlink:href="#DejaVuSans-48"/>
      <use x="254.492188" xlink:href="#DejaVuSans-48"/>
     </g>
    </g>
   </g>
   <g id="xtick_15">
    <g id="line2d_18">
     <path d="M 318.90147 88.81329 
L 321.929279 89.589737 
" style="fill:none;stroke:#000000;stroke-linecap:square;stroke-width:0.8;"/>
    </g>
    <g id="text_15">
     <!-- 40000 -->
     <g transform="translate(322.974394 94.275573)scale(0.1 -0.1)">
      <use xlink:href="#DejaVuSans-52"/>
      <use x="63.623047" xlink:href="#DejaVuSans-48"/>
      <use x="127.246094" xlink:href="#DejaVuSans-48"/>
      <use x="190.869141" xlink:href="#DejaVuSans-48"/>
      <use x="254.492188" xlink:href="#DejaVuSans-48"/>
     </g>
    </g>
   </g>
  </g>
  <g id="axes_1">
   <g id="Poly3DCollection_1">
    <path clip-path="url(#p93a274b665)" d="M 203.700438 142.115361 
L 203.698687 141.942795 
L 215.863179 145.493846 
L 215.863902 145.66701 
z
" style="fill:#050338;"/>
    <path clip-path="url(#p93a274b665)" d="M 196.401162 148.290596 
L 196.39877 148.116993 
L 203.698687 141.942795 
L 203.700438 142.115361 
z
" style="fill:#0b0777;"/>
    <path clip-path="url(#p93a274b665)" d="M 196.401162 148.290596 
L 203.700438 142.115361 
L 215.863902 145.66701 
L 208.637156 151.907182 
z
" style="fill:#070448;"/>
    <path clip-path="url(#p93a274b665)" d="M 196.39877 148.116993 
L 208.635805 151.732975 
L 215.863179 145.493846 
L 203.698687 141.942795 
z
" style="fill:#0a0667;"/>
    <path clip-path="url(#p93a274b665)" d="M 215.863902 145.66701 
L 215.852483 142.931187 
L 228.160194 146.510597 
L 228.155024 149.255935 
z
" style="fill:#0e023c;"/>
    <path clip-path="url(#p93a274b665)" d="M 208.637156 151.907182 
L 215.863902 145.66701 
L 215.863179 145.493846 
L 208.635805 151.732975 
z
" style="fill:#050338;"/>
    <path clip-path="url(#p93a274b665)" d="M 208.637156 151.907182 
L 208.615807 149.154848 
L 215.852483 142.931187 
L 215.863902 145.66701 
z
" style="fill:#1e057f;"/>
    <path clip-path="url(#p93a274b665)" d="M 196.401162 148.290596 
L 196.399114 148.141925 
L 208.635999 151.757994 
L 208.637156 151.907182 
z
" style="fill:#050338;"/>
    <path clip-path="url(#p93a274b665)" d="M 196.401162 148.290596 
L 208.637156 151.907182 
L 208.635805 151.732975 
L 196.39877 148.116993 
z
" style="fill:#0b0777;"/>
    <path clip-path="url(#p93a274b665)" d="M 208.637156 151.907182 
L 215.863902 145.66701 
L 228.155024 149.255935 
L 221.002748 155.562072 
z
" style="fill:#12034d;"/>
    <path clip-path="url(#p93a274b665)" d="M 188.96817 154.578956 
L 188.965553 154.429388 
L 196.399114 148.141925 
L 196.401162 148.290596 
z
" style="fill:#0b0777;"/>
    <path clip-path="url(#p93a274b665)" d="M 208.615807 149.154848 
L 220.998189 152.800139 
L 228.160194 146.510597 
L 215.852483 142.931187 
z
" style="fill:#1a046e;"/>
    <path clip-path="url(#p93a274b665)" d="M 228.155024 149.255935 
L 228.173098 139.657644 
L 240.653126 143.250825 
L 240.575825 152.882725 
z
" style="fill:#1e0142;"/>
    <path clip-path="url(#p93a274b665)" d="M 221.002748 155.562072 
L 228.155024 149.255935 
L 228.160194 146.510597 
L 220.998189 152.800139 
z
" style="fill:#0e023c;"/>
    <path clip-path="url(#p93a274b665)" d="M 188.96817 154.578956 
L 196.401162 148.290596 
L 208.637156 151.907182 
L 201.27732 158.262275 
z
" style="fill:#070448;"/>
    <path clip-path="url(#p93a274b665)" d="M 188.965553 154.429388 
L 201.275605 158.112186 
L 208.635999 151.757994 
L 196.399114 148.141925 
z
" style="fill:#0a0667;"/>
    <path clip-path="url(#p93a274b665)" d="M 221.002748 155.562072 
L 220.986806 145.905458 
L 228.173098 139.657644 
L 228.155024 149.255935 
z
" style="fill:#3f038d;"/>
    <path clip-path="url(#p93a274b665)" d="M 208.637156 151.907182 
L 221.002748 155.562072 
L 220.998189 152.800139 
L 208.615807 149.154848 
z
" style="fill:#1e057f;"/>
    <path clip-path="url(#p93a274b665)" d="M 221.002748 155.562072 
L 228.155024 149.255935 
L 240.575825 152.882725 
L 233.500008 159.25588 
z
" style="fill:#260255;"/>
    <path clip-path="url(#p93a274b665)" d="M 208.637156 151.907182 
L 208.607437 148.075736 
L 220.996401 151.717253 
L 221.002748 155.562072 
z
" style="fill:#11023d;"/>
    <path clip-path="url(#p93a274b665)" d="M 201.27732 158.262275 
L 208.637156 151.907182 
L 208.635999 151.757994 
L 201.275605 158.112186 
z
" style="fill:#050338;"/>
    <path clip-path="url(#p93a274b665)" d="M 201.27732 158.262275 
L 201.233267 154.407622 
L 208.607437 148.075736 
L 208.637156 151.907182 
z
" style="fill:#230581;"/>
    <path clip-path="url(#p93a274b665)" d="M 188.96817 154.578956 
L 201.27732 158.262275 
L 201.275605 158.112186 
L 188.965553 154.429388 
z
" style="fill:#0b0777;"/>
    <path clip-path="url(#p93a274b665)" d="M 188.96817 154.578956 
L 188.964915 154.392883 
L 201.275186 158.075553 
L 201.27732 158.262275 
z
" style="fill:#050338;"/>
    <path clip-path="url(#p93a274b665)" d="M 240.575825 152.882725 
L 240.662845 142.039812 
L 253.283483 145.667005 
L 253.128369 156.547983 
z
" style="fill:#210143;"/>
    <path clip-path="url(#p93a274b665)" d="M 201.27732 158.262275 
L 208.637156 151.907182 
L 221.002748 155.562072 
L 213.718049 161.984967 
z
" style="fill:#15034e;"/>
    <path clip-path="url(#p93a274b665)" d="M 220.986806 145.905458 
L 233.544027 149.565355 
L 240.653126 143.250825 
L 228.173098 139.657644 
z
" style="fill:#37027a;"/>
    <path clip-path="url(#p93a274b665)" d="M 233.500008 159.25588 
L 240.575825 152.882725 
L 240.653126 143.250825 
L 233.544027 149.565355 
z
" style="fill:#1e0142;"/>
    <path clip-path="url(#p93a274b665)" d="M 181.397755 160.983577 
L 181.393766 160.796379 
L 188.964915 154.392883 
L 188.96817 154.578956 
z
" style="fill:#0b0777;"/>
    <path clip-path="url(#p93a274b665)" d="M 233.500008 159.25588 
L 240.575825 152.882725 
L 253.128369 156.547983 
L 246.131049 162.989229 
z
" style="fill:#2a0156;"/>
    <path clip-path="url(#p93a274b665)" d="M 233.500008 159.25588 
L 233.549562 148.346912 
L 240.662845 142.039812 
L 240.575825 152.882725 
z
" style="fill:#45028f;"/>
    <path clip-path="url(#p93a274b665)" d="M 201.233267 154.407622 
L 213.697652 158.116821 
L 220.996401 151.717253 
L 208.607437 148.075736 
z
" style="fill:#1f0470;"/>
    <path clip-path="url(#p93a274b665)" d="M 221.002748 155.562072 
L 233.500008 159.25588 
L 233.544027 149.565355 
L 220.986806 145.905458 
z
" style="fill:#3f038d;"/>
    <path clip-path="url(#p93a274b665)" d="M 213.718049 161.984967 
L 221.002748 155.562072 
L 220.996401 151.717253 
L 213.697652 158.116821 
z
" style="fill:#11023d;"/>
    <path clip-path="url(#p93a274b665)" d="M 253.128369 156.547983 
L 253.217424 150.300927 
L 265.943745 153.983378 
L 265.814761 160.252323 
z
" style="fill:#170240;"/>
    <path clip-path="url(#p93a274b665)" d="M 181.397755 160.983577 
L 188.96817 154.578956 
L 201.27732 158.262275 
L 193.780682 164.735494 
z
" style="fill:#070448;"/>
    <path clip-path="url(#p93a274b665)" d="M 181.393766 160.796379 
L 193.777828 164.547641 
L 201.275186 158.075553 
L 188.964915 154.392883 
z
" style="fill:#0a0667;"/>
    <path clip-path="url(#p93a274b665)" d="M 201.27732 158.262275 
L 201.258414 156.60803 
L 213.709295 160.324942 
L 213.718049 161.984967 
z
" style="fill:#0a033a;"/>
    <path clip-path="url(#p93a274b665)" d="M 213.718049 161.984967 
L 221.002748 155.562072 
L 233.500008 159.25588 
L 226.292478 165.747667 
z
" style="fill:#4f0956;"/>
    <path clip-path="url(#p93a274b665)" d="M 201.27732 158.262275 
L 213.718049 161.984967 
L 213.697652 158.116821 
L 201.233267 154.407622 
z
" style="fill:#230581;"/>
    <path clip-path="url(#p93a274b665)" d="M 246.131049 162.989229 
L 246.199086 156.704188 
L 253.217424 150.300927 
L 253.128369 156.547983 
z
" style="fill:#300487;"/>
    <path clip-path="url(#p93a274b665)" d="M 193.780682 164.735494 
L 201.27732 158.262275 
L 201.275186 158.075553 
L 193.777828 164.547641 
z
" style="fill:#050338;"/>
    <path clip-path="url(#p93a274b665)" d="M 246.131049 162.989229 
L 253.128369 156.547983 
L 265.814761 160.252323 
L 258.898031 166.762758 
z
" style="fill:#1d0251;"/>
    <path clip-path="url(#p93a274b665)" d="M 246.131049 162.989229 
L 253.128369 156.547983 
L 253.283483 145.667005 
L 246.249558 152.041856 
z
" style="fill:#210143;"/>
    <path clip-path="url(#p93a274b665)" d="M 233.549562 148.346912 
L 246.249558 152.041856 
L 253.283483 145.667005 
L 240.662845 142.039812 
z
" style="fill:#3c027c;"/>
    <path clip-path="url(#p93a274b665)" d="M 193.780682 164.735494 
L 193.755397 163.071219 
L 201.258414 156.60803 
L 201.27732 158.262275 
z
" style="fill:#16067b;"/>
    <path clip-path="url(#p93a274b665)" d="M 221.002748 155.562072 
L 220.959453 129.335997 
L 233.619564 132.936559 
L 233.500008 159.25588 
z
" style="fill:#3e0743;"/>
    <path clip-path="url(#p93a274b665)" d="M 265.814761 160.252323 
L 265.832735 159.378743 
L 278.660812 163.119742 
L 278.637155 163.996376 
z
" style="fill:#080339;"/>
    <path clip-path="url(#p93a274b665)" d="M 181.397755 160.983577 
L 193.780682 164.735494 
L 193.777828 164.547641 
L 181.393766 160.796379 
z
" style="fill:#0b0777;"/>
    <path clip-path="url(#p93a274b665)" d="M 181.397755 160.983577 
L 181.392866 160.754133 
L 193.777184 164.505248 
L 193.780682 164.735494 
z
" style="fill:#050338;"/>
    <path clip-path="url(#p93a274b665)" d="M 233.500008 159.25588 
L 246.131049 162.989229 
L 246.249558 152.041856 
L 233.549562 148.346912 
z
" style="fill:#45028f;"/>
    <path clip-path="url(#p93a274b665)" d="M 213.718049 161.984967 
L 213.578907 135.597074 
L 220.959453 129.335997 
L 221.002748 155.562072 
z
" style="fill:#840f8f;"/>
    <path clip-path="url(#p93a274b665)" d="M 193.780682 164.735494 
L 201.27732 158.262275 
L 213.718049 161.984967 
L 206.297214 168.527892 
z
" style="fill:#0d034a;"/>
    <path clip-path="url(#p93a274b665)" d="M 258.898031 166.762758 
L 258.913148 165.88388 
L 265.832735 159.378743 
L 265.814761 160.252323 
z
" style="fill:#110679;"/>
    <path clip-path="url(#p93a274b665)" d="M 246.199086 156.704188 
L 259.00651 160.455635 
L 265.943745 153.983378 
L 253.217424 150.300927 
z
" style="fill:#2a0375;"/>
    <path clip-path="url(#p93a274b665)" d="M 193.755397 163.071219 
L 206.282205 166.857785 
L 213.709295 160.324942 
L 201.258414 156.60803 
z
" style="fill:#13056b;"/>
    <path clip-path="url(#p93a274b665)" d="M 173.686069 167.507715 
L 173.680248 167.276879 
L 181.392866 160.754133 
L 181.397755 160.983577 
z
" style="fill:#0b0777;"/>
    <path clip-path="url(#p93a274b665)" d="M 226.292478 165.747667 
L 233.500008 159.25588 
L 246.131049 162.989229 
L 239.002775 169.551023 
z
" style="fill:#530c54;"/>
    <path clip-path="url(#p93a274b665)" d="M 258.898031 166.762758 
L 265.814761 160.252323 
L 265.943745 153.983378 
L 259.00651 160.455635 
z
" style="fill:#170240;"/>
    <path clip-path="url(#p93a274b665)" d="M 258.898031 166.762758 
L 265.814761 160.252323 
L 278.637155 163.996376 
L 271.803162 170.57712 
z
" style="fill:#0a0449;"/>
    <path clip-path="url(#p93a274b665)" d="M 206.297214 168.527892 
L 213.718049 161.984967 
L 213.709295 160.324942 
L 206.282205 166.857785 
z
" style="fill:#0a033a;"/>
    <path clip-path="url(#p93a274b665)" d="M 258.913148 165.88388 
L 271.824035 169.695162 
L 278.660812 163.119742 
L 265.832735 159.378743 
z
" style="fill:#0f0569;"/>
    <path clip-path="url(#p93a274b665)" d="M 233.500008 159.25588 
L 233.625933 131.534456 
L 246.432212 135.16897 
L 246.131049 162.989229 
z
" style="fill:#410a42;"/>
    <path clip-path="url(#p93a274b665)" d="M 278.637155 163.996376 
L 278.64808 163.591524 
L 291.611355 167.374514 
L 291.597749 167.780781 
z
" style="fill:#050338;"/>
    <path clip-path="url(#p93a274b665)" d="M 246.131049 162.989229 
L 258.898031 166.762758 
L 259.00651 160.455635 
L 246.199086 156.704188 
z
" style="fill:#300487;"/>
    <path clip-path="url(#p93a274b665)" d="M 173.686069 167.507715 
L 181.397755 160.983577 
L 193.780682 164.735494 
L 186.143392 171.330164 
z
" style="fill:#070448;"/>
    <path clip-path="url(#p93a274b665)" d="M 173.680248 167.276879 
L 186.138979 171.098519 
L 193.777184 164.505248 
L 181.392866 160.754133 
z
" style="fill:#0a0667;"/>
    <path clip-path="url(#p93a274b665)" d="M 193.780682 164.735494 
L 193.762597 163.5451 
L 206.286479 167.333328 
L 206.297214 168.527892 
z
" style="fill:#09033a;"/>
    <path clip-path="url(#p93a274b665)" d="M 193.780682 164.735494 
L 206.297214 168.527892 
L 206.282205 166.857785 
L 193.755397 163.071219 
z
" style="fill:#16067b;"/>
    <path clip-path="url(#p93a274b665)" d="M 226.292478 165.747667 
L 233.500008 159.25588 
L 233.619564 132.936559 
L 226.318219 139.265675 
z
" style="fill:#3e0743;"/>
    <path clip-path="url(#p93a274b665)" d="M 206.297214 168.527892 
L 213.718049 161.984967 
L 226.292478 165.747667 
L 218.949524 172.361429 
z
" style="fill:#5f174c;"/>
    <path clip-path="url(#p93a274b665)" d="M 226.292478 165.747667 
L 226.31959 137.854726 
L 233.625933 131.534456 
L 233.500008 159.25588 
z
" style="fill:#8a148c;"/>
    <path clip-path="url(#p93a274b665)" d="M 271.803162 170.57712 
L 271.812802 170.169811 
L 278.64808 163.591524 
L 278.637155 163.996376 
z
" style="fill:#0b0777;"/>
    <path clip-path="url(#p93a274b665)" d="M 271.803162 170.57712 
L 278.637155 163.996376 
L 278.660812 163.119742 
L 271.824035 169.695162 
z
" style="fill:#080339;"/>
    <path clip-path="url(#p93a274b665)" d="M 186.143392 171.330164 
L 193.780682 164.735494 
L 193.777184 164.505248 
L 186.138979 171.098519 
z
" style="fill:#050338;"/>
    <path clip-path="url(#p93a274b665)" d="M 239.002775 169.551023 
L 246.131049 162.989229 
L 258.898031 166.762758 
L 251.851153 173.395697 
z
" style="fill:#41015a;"/>
    <path clip-path="url(#p93a274b665)" d="M 186.143392 171.330164 
L 186.120575 170.132535 
L 193.762597 163.5451 
L 193.780682 164.735494 
z
" style="fill:#13067a;"/>
    <path clip-path="url(#p93a274b665)" d="M 246.131049 162.989229 
L 246.347515 142.992896 
L 259.243178 146.695432 
L 258.898031 166.762758 
z
" style="fill:#330146;"/>
    <path clip-path="url(#p93a274b665)" d="M 213.718049 161.984967 
L 226.292478 165.747667 
L 226.318219 139.265675 
L 213.578907 135.597074 
z
" style="fill:#840f8f;"/>
    <path clip-path="url(#p93a274b665)" d="M 258.898031 166.762758 
L 271.803162 170.57712 
L 271.824035 169.695162 
L 258.913148 165.88388 
z
" style="fill:#110679;"/>
    <path clip-path="url(#p93a274b665)" d="M 258.898031 166.762758 
L 258.933918 164.676247 
L 271.852717 168.48329 
L 271.803162 170.57712 
z
" style="fill:#0c033b;"/>
    <path clip-path="url(#p93a274b665)" d="M 271.803162 170.57712 
L 278.637155 163.996376 
L 291.597749 167.780781 
L 284.848695 174.43298 
z
" style="fill:#070448;"/>
    <path clip-path="url(#p93a274b665)" d="M 271.812802 170.169811 
L 284.861051 174.024242 
L 291.611355 167.374514 
L 278.64808 163.591524 
z
" style="fill:#0a0667;"/>
    <path clip-path="url(#p93a274b665)" d="M 173.686069 167.507715 
L 173.680514 167.287425 
L 186.139181 171.109102 
L 186.143392 171.330164 
z
" style="fill:#050338;"/>
    <path clip-path="url(#p93a274b665)" d="M 173.686069 167.507715 
L 186.143392 171.330164 
L 186.138979 171.098519 
L 173.680248 167.276879 
z
" style="fill:#0b0777;"/>
    <path clip-path="url(#p93a274b665)" d="M 291.597749 167.780781 
L 291.605293 167.555525 
L 304.707851 171.380151 
L 304.698789 171.606197 
z
" style="fill:#050338;"/>
    <path clip-path="url(#p93a274b665)" d="M 213.718049 161.984967 
L 213.540548 128.322306 
L 226.325316 131.964311 
L 226.292478 165.747667 
z
" style="fill:#4a123c;"/>
    <path clip-path="url(#p93a274b665)" d="M 213.578907 135.597074 
L 226.318219 139.265675 
L 233.619564 132.936559 
L 220.959453 129.335997 
z
" style="fill:#720d7c;"/>
    <path clip-path="url(#p93a274b665)" d="M 239.002775 169.551023 
L 239.149813 149.431493 
L 246.347515 142.992896 
L 246.131049 162.989229 
z
" style="fill:#6c0295;"/>
    <path clip-path="url(#p93a274b665)" d="M 186.143392 171.330164 
L 193.780682 164.735494 
L 206.297214 168.527892 
L 198.736391 175.194243 
z
" style="fill:#0c044a;"/>
    <path clip-path="url(#p93a274b665)" d="M 186.120575 170.132535 
L 198.721014 173.99241 
L 206.286479 167.333328 
L 193.762597 163.5451 
z
" style="fill:#11056a;"/>
    <path clip-path="url(#p93a274b665)" d="M 251.851153 173.395697 
L 251.879991 171.296487 
L 258.933918 164.676247 
L 258.898031 166.762758 
z
" style="fill:#1a057d;"/>
    <path clip-path="url(#p93a274b665)" d="M 165.82912 174.154745 
L 165.822643 173.933116 
L 173.680514 167.287425 
L 173.686069 167.507715 
z
" style="fill:#0b0777;"/>
    <path clip-path="url(#p93a274b665)" d="M 218.949524 172.361429 
L 226.292478 165.747667 
L 239.002775 169.551023 
L 231.739835 176.23678 
z
" style="fill:#712c3b;"/>
    <path clip-path="url(#p93a274b665)" d="M 284.848695 174.43298 
L 284.855546 174.206354 
L 291.605293 167.555525 
L 291.597749 167.780781 
z
" style="fill:#0b0777;"/>
    <path clip-path="url(#p93a274b665)" d="M 239.002775 169.551023 
L 246.131049 162.989229 
L 246.432212 135.16897 
L 239.207352 141.558346 
z
" style="fill:#410a42;"/>
    <path clip-path="url(#p93a274b665)" d="M 206.297214 168.527892 
L 205.992821 134.655776 
L 213.540548 128.322306 
L 213.718049 161.984967 
z
" style="fill:#9d267e;"/>
    <path clip-path="url(#p93a274b665)" d="M 284.848695 174.43298 
L 291.597749 167.780781 
L 291.611355 167.374514 
L 284.861051 174.024242 
z
" style="fill:#050338;"/>
    <path clip-path="url(#p93a274b665)" d="M 251.851153 173.395697 
L 258.898031 166.762758 
L 271.803162 170.57712 
L 264.839875 177.282368 
z
" style="fill:#10034c;"/>
    <path clip-path="url(#p93a274b665)" d="M 198.736391 175.194243 
L 206.297214 168.527892 
L 206.286479 167.333328 
L 198.721014 173.99241 
z
" style="fill:#09033a;"/>
    <path clip-path="url(#p93a274b665)" d="M 226.292478 165.747667 
L 239.002775 169.551023 
L 239.207352 141.558346 
L 226.31959 137.854726 
z
" style="fill:#8a148c;"/>
    <path clip-path="url(#p93a274b665)" d="M 271.803162 170.57712 
L 284.848695 174.43298 
L 284.861051 174.024242 
L 271.812802 170.169811 
z
" style="fill:#0b0777;"/>
    <path clip-path="url(#p93a274b665)" d="M 271.803162 170.57712 
L 271.817592 169.967415 
L 284.867191 173.821137 
L 284.848695 174.43298 
z
" style="fill:#070339;"/>
    <path clip-path="url(#p93a274b665)" d="M 251.879991 171.296487 
L 264.88256 175.175777 
L 271.852717 168.48329 
L 258.933918 164.676247 
z
" style="fill:#17056d;"/>
    <path clip-path="url(#p93a274b665)" d="M 165.82912 174.154745 
L 173.686069 167.507715 
L 186.143392 171.330164 
L 178.361455 178.049733 
z
" style="fill:#070448;"/>
    <path clip-path="url(#p93a274b665)" d="M 165.822643 173.933116 
L 178.356338 177.827326 
L 186.139181 171.109102 
L 173.680514 167.287425 
z
" style="fill:#0a0667;"/>
    <path clip-path="url(#p93a274b665)" d="M 284.848695 174.43298 
L 291.597749 167.780781 
L 304.698789 171.606197 
L 298.036935 178.33102 
z
" style="fill:#070448;"/>
    <path clip-path="url(#p93a274b665)" d="M 284.855546 174.206354 
L 298.045324 178.103598 
L 304.707851 171.380151 
L 291.605293 167.555525 
z
" style="fill:#0a0667;"/>
    <path clip-path="url(#p93a274b665)" d="M 186.143392 171.330164 
L 186.120828 170.145819 
L 198.721184 174.005741 
L 198.736391 175.194243 
z
" style="fill:#09033a;"/>
    <path clip-path="url(#p93a274b665)" d="M 186.143392 171.330164 
L 198.736391 175.194243 
L 198.721014 173.99241 
L 186.120575 170.132535 
z
" style="fill:#13067a;"/>
    <path clip-path="url(#p93a274b665)" d="M 251.851153 173.395697 
L 258.898031 166.762758 
L 259.243178 146.695432 
L 252.128534 153.204541 
z
" style="fill:#330146;"/>
    <path clip-path="url(#p93a274b665)" d="M 198.736391 175.194243 
L 206.297214 168.527892 
L 218.949524 172.361429 
L 211.467294 179.100638 
z
" style="fill:#5e164d;"/>
    <path clip-path="url(#p93a274b665)" d="M 264.839875 177.282368 
L 264.852304 176.668952 
L 271.817592 169.967415 
L 271.803162 170.57712 
z
" style="fill:#0e0678;"/>
    <path clip-path="url(#p93a274b665)" d="M 226.31959 137.854726 
L 239.207352 141.558346 
L 246.432212 135.16897 
L 233.625933 131.534456 
z
" style="fill:#771279;"/>
    <path clip-path="url(#p93a274b665)" d="M 264.839875 177.282368 
L 271.803162 170.57712 
L 271.852717 168.48329 
L 264.88256 175.175777 
z
" style="fill:#0c033b;"/>
    <path clip-path="url(#p93a274b665)" d="M 178.361455 178.049733 
L 186.143392 171.330164 
L 186.139181 171.109102 
L 178.356338 177.827326 
z
" style="fill:#050338;"/>
    <path clip-path="url(#p93a274b665)" d="M 231.739835 176.23678 
L 239.002775 169.551023 
L 251.851153 173.395697 
L 244.670417 180.154631 
z
" style="fill:#682144;"/>
    <path clip-path="url(#p93a274b665)" d="M 178.361455 178.049733 
L 178.334037 176.858174 
L 186.120828 170.145819 
L 186.143392 171.330164 
z
" style="fill:#13067a;"/>
    <path clip-path="url(#p93a274b665)" d="M 298.036935 178.33102 
L 304.698789 171.606197 
L 304.707851 171.380151 
L 298.045324 178.103598 
z
" style="fill:#050338;"/>
    <path clip-path="url(#p93a274b665)" d="M 218.949524 172.361429 
L 226.292478 165.747667 
L 226.325316 131.964311 
L 218.858102 138.367511 
z
" style="fill:#4a123c;"/>
    <path clip-path="url(#p93a274b665)" d="M 239.002775 169.551023 
L 251.851153 173.395697 
L 252.128534 153.204541 
L 239.149813 149.431493 
z
" style="fill:#6c0295;"/>
    <path clip-path="url(#p93a274b665)" d="M 239.149813 149.431493 
L 252.128534 153.204541 
L 259.243178 146.695432 
L 246.347515 142.992896 
z
" style="fill:#5d0181;"/>
    <path clip-path="url(#p93a274b665)" d="M 226.292478 165.747667 
L 226.336716 120.235888 
L 239.33659 123.874347 
L 239.002775 169.551023 
z
" style="fill:#59222e;"/>
    <path clip-path="url(#p93a274b665)" d="M 251.851153 173.395697 
L 264.839875 177.282368 
L 264.88256 175.175777 
L 251.879991 171.296487 
z
" style="fill:#1a057d;"/>
    <path clip-path="url(#p93a274b665)" d="M 264.839875 177.282368 
L 271.803162 170.57712 
L 284.848695 174.43298 
L 277.971253 181.211726 
z
" style="fill:#090449;"/>
    <path clip-path="url(#p93a274b665)" d="M 264.852304 176.668952 
L 277.987803 180.596152 
L 284.867191 173.821137 
L 271.817592 169.967415 
z
" style="fill:#0c0668;"/>
    <path clip-path="url(#p93a274b665)" d="M 165.82912 174.154745 
L 178.361455 178.049733 
L 178.356338 177.827326 
L 165.822643 173.933116 
z
" style="fill:#0b0777;"/>
    <path clip-path="url(#p93a274b665)" d="M 165.82912 174.154745 
L 165.822601 173.931679 
L 178.356305 177.825884 
L 178.361455 178.049733 
z
" style="fill:#050338;"/>
    <path clip-path="url(#p93a274b665)" d="M 206.297214 168.527892 
L 205.996535 135.069038 
L 218.859217 138.782297 
L 218.949524 172.361429 
z
" style="fill:#49113c;"/>
    <path clip-path="url(#p93a274b665)" d="M 284.848695 174.43298 
L 298.036935 178.33102 
L 298.045324 178.103598 
L 284.855546 174.206354 
z
" style="fill:#0b0777;"/>
    <path clip-path="url(#p93a274b665)" d="M 206.297214 168.527892 
L 218.949524 172.361429 
L 218.858102 138.367511 
L 205.992821 134.655776 
z
" style="fill:#9d267e;"/>
    <path clip-path="url(#p93a274b665)" d="M 284.848695 174.43298 
L 284.858635 174.104189 
L 298.049106 178.001074 
L 298.036935 178.33102 
z
" style="fill:#050338;"/>
    <path clip-path="url(#p93a274b665)" d="M 178.361455 178.049733 
L 186.143392 171.330164 
L 198.736391 175.194243 
L 191.031582 181.987547 
z
" style="fill:#0c044a;"/>
    <path clip-path="url(#p93a274b665)" d="M 251.851153 173.395697 
L 251.976476 164.27313 
L 265.025375 168.12755 
L 264.839875 177.282368 
z
" style="fill:#1c0142;"/>
    <path clip-path="url(#p93a274b665)" d="M 178.334037 176.858174 
L 191.01161 180.791795 
L 198.721184 174.005741 
L 186.120828 170.145819 
z
" style="fill:#11056a;"/>
    <path clip-path="url(#p93a274b665)" d="M 218.949524 172.361429 
L 218.826356 126.563478 
L 226.336716 120.235888 
L 226.292478 165.747667 
z
" style="fill:#bc4962;"/>
    <path clip-path="url(#p93a274b665)" d="M 157.822766 180.928173 
L 157.815285 180.703748 
L 165.822601 173.931679 
L 165.82912 174.154745 
z
" style="fill:#0b0777;"/>
    <path clip-path="url(#p93a274b665)" d="M 211.467294 179.100638 
L 218.949524 172.361429 
L 231.739835 176.23678 
L 224.338378 183.050047 
z
" style="fill:#824926;"/>
    <path clip-path="url(#p93a274b665)" d="M 198.736391 175.194243 
L 198.30561 141.526662 
L 205.996535 135.069038 
L 206.297214 168.527892 
z
" style="fill:#9b2480;"/>
    <path clip-path="url(#p93a274b665)" d="M 277.971253 181.211726 
L 277.980146 180.88093 
L 284.858635 174.104189 
L 284.848695 174.43298 
z
" style="fill:#0b0777;"/>
    <path clip-path="url(#p93a274b665)" d="M 277.971253 181.211726 
L 284.848695 174.43298 
L 284.867191 173.821137 
L 277.987803 180.596152 
z
" style="fill:#070339;"/>
    <path clip-path="url(#p93a274b665)" d="M 244.670417 180.154631 
L 244.763915 170.976103 
L 251.976476 164.27313 
L 251.851153 173.395697 
z
" style="fill:#3c038c;"/>
    <path clip-path="url(#p93a274b665)" d="M 239.002775 169.551023 
L 239.293489 129.772015 
L 252.399601 133.472949 
L 251.851153 173.395697 
z
" style="fill:#521a35;"/>
    <path clip-path="url(#p93a274b665)" d="M 244.670417 180.154631 
L 251.851153 173.395697 
L 264.839875 177.282368 
L 257.743589 184.115686 
z
" style="fill:#240254;"/>
    <path clip-path="url(#p93a274b665)" d="M 191.031582 181.987547 
L 198.736391 175.194243 
L 198.721184 174.005741 
L 191.01161 180.791795 
z
" style="fill:#09033a;"/>
    <path clip-path="url(#p93a274b665)" d="M 205.992821 134.655776 
L 218.858102 138.367511 
L 226.325316 131.964311 
L 213.540548 128.322306 
z
" style="fill:#88216e;"/>
    <path clip-path="url(#p93a274b665)" d="M 264.839875 177.282368 
L 277.971253 181.211726 
L 277.987803 180.596152 
L 264.852304 176.668952 
z
" style="fill:#0e0678;"/>
    <path clip-path="url(#p93a274b665)" d="M 264.839875 177.282368 
L 264.863096 176.136338 
L 278.002172 180.061664 
L 277.971253 181.211726 
z
" style="fill:#09033a;"/>
    <path clip-path="url(#p93a274b665)" d="M 157.822766 180.928173 
L 165.82912 174.154745 
L 178.361455 178.049733 
L 170.430723 184.897786 
z
" style="fill:#070448;"/>
    <path clip-path="url(#p93a274b665)" d="M 157.815285 180.703748 
L 170.424625 184.672571 
L 178.356305 177.825884 
L 165.822601 173.931679 
z
" style="fill:#0a0667;"/>
    <path clip-path="url(#p93a274b665)" d="M 277.971253 181.211726 
L 284.848695 174.43298 
L 298.036935 178.33102 
L 291.24765 185.184478 
z
" style="fill:#070448;"/>
    <path clip-path="url(#p93a274b665)" d="M 277.980146 180.88093 
L 291.258806 184.852518 
L 298.049106 178.001074 
L 284.858635 174.104189 
z
" style="fill:#0a0667;"/>
    <path clip-path="url(#p93a274b665)" d="M 231.739835 176.23678 
L 231.887979 136.208324 
L 239.293489 129.772015 
L 239.002775 169.551023 
z
" style="fill:#ad3770;"/>
    <path clip-path="url(#p93a274b665)" d="M 178.361455 178.049733 
L 178.342772 177.237783 
L 191.017973 181.17274 
L 191.031582 181.987547 
z
" style="fill:#080339;"/>
    <path clip-path="url(#p93a274b665)" d="M 178.361455 178.049733 
L 191.031582 181.987547 
L 191.01161 180.791795 
L 178.334037 176.858174 
z
" style="fill:#13067a;"/>
    <path clip-path="url(#p93a274b665)" d="M 191.031582 181.987547 
L 198.736391 175.194243 
L 211.467294 179.100638 
L 203.841786 185.968896 
z
" style="fill:#480459;"/>
    <path clip-path="url(#p93a274b665)" d="M 257.743589 184.115686 
L 257.762925 182.96266 
L 264.863096 176.136338 
L 264.839875 177.282368 
z
" style="fill:#13067a;"/>
    <path clip-path="url(#p93a274b665)" d="M 231.739835 176.23678 
L 239.002775 169.551023 
L 239.33659 123.874347 
L 231.909948 130.272396 
z
" style="fill:#59222e;"/>
    <path clip-path="url(#p93a274b665)" d="M 198.736391 175.194243 
L 198.439598 151.998481 
L 211.317258 155.821925 
L 211.467294 179.100638 
z
" style="fill:#380345;"/>
    <path clip-path="url(#p93a274b665)" d="M 170.430723 184.897786 
L 178.361455 178.049733 
L 178.356305 177.825884 
L 170.424625 184.672571 
z
" style="fill:#050338;"/>
    <path clip-path="url(#p93a274b665)" d="M 170.430723 184.897786 
L 170.408607 184.080879 
L 178.342772 177.237783 
L 178.361455 178.049733 
z
" style="fill:#110679;"/>
    <path clip-path="url(#p93a274b665)" d="M 224.338378 183.050047 
L 231.739835 176.23678 
L 244.670417 180.154631 
L 237.351973 187.043183 
z
" style="fill:#824827;"/>
    <path clip-path="url(#p93a274b665)" d="M 211.467294 179.100638 
L 218.949524 172.361429 
L 218.859217 138.782297 
L 211.249518 145.311689 
z
" style="fill:#49113c;"/>
    <path clip-path="url(#p93a274b665)" d="M 291.24765 185.184478 
L 298.036935 178.33102 
L 298.049106 178.001074 
L 291.258806 184.852518 
z
" style="fill:#050338;"/>
    <path clip-path="url(#p93a274b665)" d="M 244.763915 170.976103 
L 257.898056 174.904632 
L 265.025375 168.12755 
L 251.976476 164.27313 
z
" style="fill:#340279;"/>
    <path clip-path="url(#p93a274b665)" d="M 257.743589 184.115686 
L 264.839875 177.282368 
L 265.025375 168.12755 
L 257.898056 174.904632 
z
" style="fill:#1c0142;"/>
    <path clip-path="url(#p93a274b665)" d="M 218.949524 172.361429 
L 231.739835 176.23678 
L 231.909948 130.272396 
L 218.826356 126.563478 
z
" style="fill:#bc4962;"/>
    <path clip-path="url(#p93a274b665)" d="M 257.743589 184.115686 
L 264.839875 177.282368 
L 277.971253 181.211726 
L 270.961723 188.120663 
z
" style="fill:#0c044a;"/>
    <path clip-path="url(#p93a274b665)" d="M 191.031582 181.987547 
L 190.641751 158.647844 
L 198.439598 151.998481 
L 198.736391 175.194243 
z
" style="fill:#770693;"/>
    <path clip-path="url(#p93a274b665)" d="M 157.822766 180.928173 
L 157.815572 180.712367 
L 170.42486 184.681221 
L 170.430723 184.897786 
z
" style="fill:#050338;"/>
    <path clip-path="url(#p93a274b665)" d="M 157.822766 180.928173 
L 170.430723 184.897786 
L 170.424625 184.672571 
L 157.815285 180.703748 
z
" style="fill:#0b0777;"/>
    <path clip-path="url(#p93a274b665)" d="M 257.762925 182.96266 
L 270.98886 186.963572 
L 278.002172 180.061664 
L 264.863096 176.136338 
z
" style="fill:#11056a;"/>
    <path clip-path="url(#p93a274b665)" d="M 198.736391 175.194243 
L 211.467294 179.100638 
L 211.249518 145.311689 
L 198.30561 141.526662 
z
" style="fill:#9b2480;"/>
    <path clip-path="url(#p93a274b665)" d="M 277.971253 181.211726 
L 291.24765 185.184478 
L 291.258806 184.852518 
L 277.980146 180.88093 
z
" style="fill:#0b0777;"/>
    <path clip-path="url(#p93a274b665)" d="M 277.971253 181.211726 
L 277.983265 180.764917 
L 291.262719 184.736096 
L 291.24765 185.184478 
z
" style="fill:#050338;"/>
    <path clip-path="url(#p93a274b665)" d="M 170.430723 184.897786 
L 178.361455 178.049733 
L 191.031582 181.987547 
L 183.178635 188.911464 
z
" style="fill:#0a0449;"/>
    <path clip-path="url(#p93a274b665)" d="M 170.408607 184.080879 
L 183.161655 188.091677 
L 191.017973 181.17274 
L 178.342772 177.237783 
z
" style="fill:#0f0569;"/>
    <path clip-path="url(#p93a274b665)" d="M 244.670417 180.154631 
L 257.743589 184.115686 
L 257.898056 174.904632 
L 244.763915 170.976103 
z
" style="fill:#3c038c;"/>
    <path clip-path="url(#p93a274b665)" d="M 244.670417 180.154631 
L 251.851153 173.395697 
L 252.399601 133.472949 
L 245.079649 139.981119 
z
" style="fill:#521a35;"/>
    <path clip-path="url(#p93a274b665)" d="M 149.662704 187.831639 
L 149.65455 187.614515 
L 157.815572 180.712367 
L 157.822766 180.928173 
z
" style="fill:#0b0777;"/>
    <path clip-path="url(#p93a274b665)" d="M 203.841786 185.968896 
L 211.467294 179.100638 
L 224.338378 183.050047 
L 216.794403 189.994506 
z
" style="fill:#87591c;"/>
    <path clip-path="url(#p93a274b665)" d="M 270.961723 188.120663 
L 270.972266 187.671125 
L 277.983265 180.764917 
L 277.971253 181.211726 
z
" style="fill:#0b0777;"/>
    <path clip-path="url(#p93a274b665)" d="M 270.961723 188.120663 
L 277.971253 181.211726 
L 278.002172 180.061664 
L 270.98886 186.963572 
z
" style="fill:#09033a;"/>
    <path clip-path="url(#p93a274b665)" d="M 218.949524 172.361429 
L 218.784755 111.094966 
L 231.967414 114.745081 
L 231.739835 176.23678 
z
" style="fill:#66391e;"/>
    <path clip-path="url(#p93a274b665)" d="M 231.739835 176.23678 
L 244.670417 180.154631 
L 245.079649 139.981119 
L 231.887979 136.208324 
z
" style="fill:#ad3770;"/>
    <path clip-path="url(#p93a274b665)" d="M 183.178635 188.911464 
L 191.031582 181.987547 
L 191.017973 181.17274 
L 183.161655 188.091677 
z
" style="fill:#080339;"/>
    <path clip-path="url(#p93a274b665)" d="M 237.351973 187.043183 
L 244.670417 180.154631 
L 257.743589 184.115686 
L 250.510457 191.080779 
z
" style="fill:#4b0658;"/>
    <path clip-path="url(#p93a274b665)" d="M 198.30561 141.526662 
L 211.249518 145.311689 
L 218.859217 138.782297 
L 205.996535 135.069038 
z
" style="fill:#871f6f;"/>
    <path clip-path="url(#p93a274b665)" d="M 257.743589 184.115686 
L 270.961723 188.120663 
L 270.98886 186.963572 
L 257.762925 182.96266 
z
" style="fill:#13067a;"/>
    <path clip-path="url(#p93a274b665)" d="M 149.662704 187.831639 
L 157.822766 180.928173 
L 170.430723 184.897786 
L 162.346885 191.878042 
z
" style="fill:#070448;"/>
    <path clip-path="url(#p93a274b665)" d="M 191.031582 181.987547 
L 190.806063 168.485371 
L 203.702232 172.418682 
L 203.841786 185.968896 
z
" style="fill:#250045;"/>
    <path clip-path="url(#p93a274b665)" d="M 149.65455 187.614515 
L 162.340077 191.660153 
L 170.42486 184.681221 
L 157.815572 180.712367 
z
" style="fill:#0a0667;"/>
    <path clip-path="url(#p93a274b665)" d="M 257.743589 184.115686 
L 257.785709 181.604026 
L 271.020836 185.600138 
L 270.961723 188.120663 
z
" style="fill:#0d023b;"/>
    <path clip-path="url(#p93a274b665)" d="M 244.670417 180.154631 
L 244.923218 155.337627 
L 258.161256 159.209663 
L 257.743589 184.115686 
z
" style="fill:#3b0545;"/>
    <path clip-path="url(#p93a274b665)" d="M 270.961723 188.120663 
L 277.971253 181.211726 
L 291.24765 185.184478 
L 284.327244 192.170297 
z
" style="fill:#070448;"/>
    <path clip-path="url(#p93a274b665)" d="M 211.467294 179.100638 
L 211.069901 117.443275 
L 218.784755 111.094966 
L 218.949524 172.361429 
z
" style="fill:#d87940;"/>
    <path clip-path="url(#p93a274b665)" d="M 203.841786 185.968896 
L 211.467294 179.100638 
L 211.317258 155.821925 
L 203.600547 162.545515 
z
" style="fill:#380345;"/>
    <path clip-path="url(#p93a274b665)" d="M 270.972266 187.671125 
L 284.340885 191.719173 
L 291.262719 184.736096 
L 277.983265 180.764917 
z
" style="fill:#0a0667;"/>
    <path clip-path="url(#p93a274b665)" d="M 170.430723 184.897786 
L 183.178635 188.911464 
L 183.161655 188.091677 
L 170.408607 184.080879 
z
" style="fill:#110679;"/>
    <path clip-path="url(#p93a274b665)" d="M 170.430723 184.897786 
L 170.408021 184.059256 
L 183.161205 188.069978 
L 183.178635 188.911464 
z
" style="fill:#080339;"/>
    <path clip-path="url(#p93a274b665)" d="M 218.826356 126.563478 
L 231.909948 130.272396 
L 239.33659 123.874347 
L 226.336716 120.235888 
z
" style="fill:#a33f55;"/>
    <path clip-path="url(#p93a274b665)" d="M 183.178635 188.911464 
L 191.031582 181.987547 
L 203.841786 185.968896 
L 196.068846 192.969946 
z
" style="fill:#300158;"/>
    <path clip-path="url(#p93a274b665)" d="M 183.178635 188.911464 
L 182.897245 175.325935 
L 190.806063 168.485371 
L 191.031582 181.987547 
z
" style="fill:#4f0192;"/>
    <path clip-path="url(#p93a274b665)" d="M 250.510457 191.080779 
L 250.543775 188.553737 
L 257.785709 181.604026 
L 257.743589 184.115686 
z
" style="fill:#1c057e;"/>
    <path clip-path="url(#p93a274b665)" d="M 237.351973 187.043183 
L 237.51535 162.071711 
L 244.923218 155.337627 
L 244.670417 180.154631 
z
" style="fill:#7c0a91;"/>
    <path clip-path="url(#p93a274b665)" d="M 191.031582 181.987547 
L 203.841786 185.968896 
L 203.600547 162.545515 
L 190.641751 158.647844 
z
" style="fill:#770693;"/>
    <path clip-path="url(#p93a274b665)" d="M 162.346885 191.878042 
L 170.430723 184.897786 
L 170.42486 184.681221 
L 162.340077 191.660153 
z
" style="fill:#050338;"/>
    <path clip-path="url(#p93a274b665)" d="M 216.794403 189.994506 
L 224.338378 183.050047 
L 237.351973 187.043183 
L 229.891821 194.06512 
z
" style="fill:#876616;"/>
    <path clip-path="url(#p93a274b665)" d="M 162.346885 191.878042 
L 162.320527 191.034382 
L 170.408021 184.059256 
L 170.430723 184.897786 
z
" style="fill:#110679;"/>
    <path clip-path="url(#p93a274b665)" d="M 284.327244 192.170297 
L 291.24765 185.184478 
L 291.262719 184.736096 
L 284.340885 191.719173 
z
" style="fill:#050338;"/>
    <path clip-path="url(#p93a274b665)" d="M 190.641751 158.647844 
L 203.600547 162.545515 
L 211.317258 155.821925 
L 198.439598 151.998481 
z
" style="fill:#67057f;"/>
    <path clip-path="url(#p93a274b665)" d="M 231.887979 136.208324 
L 245.079649 139.981119 
L 252.399601 133.472949 
L 239.293489 129.772015 
z
" style="fill:#963061;"/>
    <path clip-path="url(#p93a274b665)" d="M 231.739835 176.23678 
L 231.964296 115.587441 
L 245.290502 119.282067 
L 244.670417 180.154631 
z
" style="fill:#65381f;"/>
    <path clip-path="url(#p93a274b665)" d="M 250.510457 191.080779 
L 257.743589 184.115686 
L 270.961723 188.120663 
L 263.816264 195.163579 
z
" style="fill:#11034c;"/>
    <path clip-path="url(#p93a274b665)" d="M 149.662704 187.831639 
L 149.654572 187.615104 
L 162.340096 191.660743 
L 162.346885 191.878042 
z
" style="fill:#050338;"/>
    <path clip-path="url(#p93a274b665)" d="M 149.662704 187.831639 
L 162.346885 191.878042 
L 162.340077 191.660153 
L 149.65455 187.614515 
z
" style="fill:#0b0777;"/>
    <path clip-path="url(#p93a274b665)" d="M 270.961723 188.120663 
L 284.327244 192.170297 
L 284.340885 191.719173 
L 270.972266 187.671125 
z
" style="fill:#0b0777;"/>
    <path clip-path="url(#p93a274b665)" d="M 270.961723 188.120663 
L 270.978744 187.394898 
L 284.349267 191.441971 
L 284.327244 192.170297 
z
" style="fill:#070339;"/>
    <path clip-path="url(#p93a274b665)" d="M 162.346885 191.878042 
L 170.430723 184.897786 
L 183.178635 188.911464 
L 175.173234 195.969799 
z
" style="fill:#0a0449;"/>
    <path clip-path="url(#p93a274b665)" d="M 250.543775 188.553737 
L 263.866803 192.6276 
L 271.020836 185.600138 
L 257.785709 181.604026 
z
" style="fill:#18046d;"/>
    <path clip-path="url(#p93a274b665)" d="M 224.338378 183.050047 
L 224.338378 122.013302 
L 231.964296 115.587441 
L 231.739835 176.23678 
z
" style="fill:#d77741;"/>
    <path clip-path="url(#p93a274b665)" d="M 162.320527 191.034382 
L 175.152213 195.123158 
L 183.161205 188.069978 
L 170.408021 184.059256 
z
" style="fill:#0f0569;"/>
    <path clip-path="url(#p93a274b665)" d="M 224.338378 183.050047 
L 231.739835 176.23678 
L 231.967414 114.745081 
L 224.338378 121.165314 
z
" style="fill:#66391e;"/>
    <path clip-path="url(#p93a274b665)" d="M 141.344465 194.868925 
L 141.335339 194.651064 
L 149.654572 187.615104 
L 149.662704 187.831639 
z
" style="fill:#0b0777;"/>
    <path clip-path="url(#p93a274b665)" d="M 196.068846 192.969946 
L 203.841786 185.968896 
L 216.794403 189.994506 
L 209.103753 197.073984 
z
" style="fill:#86591d;"/>
    <path clip-path="url(#p93a274b665)" d="M 263.816264 195.163579 
L 263.830816 194.433371 
L 270.978744 187.394898 
L 270.961723 188.120663 
z
" style="fill:#0e0678;"/>
    <path clip-path="url(#p93a274b665)" d="M 196.068846 192.969946 
L 203.841786 185.968896 
L 203.702232 172.418682 
L 195.874495 179.335972 
z
" style="fill:#250045;"/>
    <path clip-path="url(#p93a274b665)" d="M 263.816264 195.163579 
L 270.961723 188.120663 
L 271.020836 185.600138 
L 263.866803 192.6276 
z
" style="fill:#0d023b;"/>
    <path clip-path="url(#p93a274b665)" d="M 250.510457 191.080779 
L 257.743589 184.115686 
L 258.161256 159.209663 
L 250.840883 166.019513 
z
" style="fill:#3b0545;"/>
    <path clip-path="url(#p93a274b665)" d="M 211.467294 179.100638 
L 224.338378 183.050047 
L 224.338378 121.165314 
L 211.069901 117.443275 
z
" style="fill:#d87940;"/>
    <path clip-path="url(#p93a274b665)" d="M 183.178635 188.911464 
L 183.033527 181.905662 
L 195.968625 185.939291 
L 196.068846 192.969946 
z
" style="fill:#180240;"/>
    <path clip-path="url(#p93a274b665)" d="M 182.897245 175.325935 
L 195.874495 179.335972 
L 203.702232 172.418682 
L 190.806063 168.485371 
z
" style="fill:#44017e;"/>
    <path clip-path="url(#p93a274b665)" d="M 229.891821 194.06512 
L 237.351973 187.043183 
L 250.510457 191.080779 
L 243.136481 198.181496 
z
" style="fill:#6e273f;"/>
    <path clip-path="url(#p93a274b665)" d="M 175.173234 195.969799 
L 183.178635 188.911464 
L 183.161205 188.069978 
L 175.152213 195.123158 
z
" style="fill:#080339;"/>
    <path clip-path="url(#p93a274b665)" d="M 141.344465 194.868925 
L 149.662704 187.831639 
L 162.346885 191.878042 
L 154.105465 198.994368 
z
" style="fill:#070448;"/>
    <path clip-path="url(#p93a274b665)" d="M 183.178635 188.911464 
L 196.068846 192.969946 
L 195.874495 179.335972 
L 182.897245 175.325935 
z
" style="fill:#4f0192;"/>
    <path clip-path="url(#p93a274b665)" d="M 141.335339 194.651064 
L 154.097699 198.775737 
L 162.340096 191.660743 
L 149.654572 187.615104 
z
" style="fill:#0a0667;"/>
    <path clip-path="url(#p93a274b665)" d="M 211.467294 179.100638 
L 211.021562 109.943245 
L 224.338378 113.636191 
L 224.338378 183.050047 
z
" style="fill:#694616;"/>
    <path clip-path="url(#p93a274b665)" d="M 250.510457 191.080779 
L 263.816264 195.163579 
L 263.866803 192.6276 
L 250.543775 188.553737 
z
" style="fill:#1c057e;"/>
    <path clip-path="url(#p93a274b665)" d="M 237.351973 187.043183 
L 250.510457 191.080779 
L 250.840883 166.019513 
L 237.51535 162.071711 
z
" style="fill:#7c0a91;"/>
    <path clip-path="url(#p93a274b665)" d="M 263.816264 195.163579 
L 270.961723 188.120663 
L 284.327244 192.170297 
L 277.271882 199.292348 
z
" style="fill:#090449;"/>
    <path clip-path="url(#p93a274b665)" d="M 175.173234 195.969799 
L 174.998215 188.920877 
L 183.033527 181.905662 
L 183.178635 188.911464 
z
" style="fill:#320488;"/>
    <path clip-path="url(#p93a274b665)" d="M 263.830816 194.433371 
L 277.291504 198.559558 
L 284.349267 191.441971 
L 270.978744 187.394898 
z
" style="fill:#0c0668;"/>
    <path clip-path="url(#p93a274b665)" d="M 162.346885 191.878042 
L 162.326279 191.218481 
L 175.1568 195.307908 
L 175.173234 195.969799 
z
" style="fill:#070339;"/>
    <path clip-path="url(#p93a274b665)" d="M 162.346885 191.878042 
L 175.173234 195.969799 
L 175.152213 195.123158 
L 162.320527 191.034382 
z
" style="fill:#110679;"/>
    <path clip-path="url(#p93a274b665)" d="M 250.510457 191.080779 
L 250.583109 185.570465 
L 263.926467 189.633729 
L 263.816264 195.163579 
z
" style="fill:#15023f;"/>
    <path clip-path="url(#p93a274b665)" d="M 175.173234 195.969799 
L 183.178635 188.911464 
L 196.068846 192.969946 
L 188.144156 200.107676 
z
" style="fill:#1e0252;"/>
    <path clip-path="url(#p93a274b665)" d="M 237.351973 187.043183 
L 244.670417 180.154631 
L 245.290502 119.282067 
L 237.752783 125.781116 
z
" style="fill:#65381f;"/>
    <path clip-path="url(#p93a274b665)" d="M 237.51535 162.071711 
L 250.840883 166.019513 
L 258.161256 159.209663 
L 244.923218 155.337627 
z
" style="fill:#6c087e;"/>
    <path clip-path="url(#p93a274b665)" d="M 203.841786 185.968896 
L 203.124946 116.366405 
L 211.021562 109.943245 
L 211.467294 179.100638 
z
" style="fill:#df942f;"/>
    <path clip-path="url(#p93a274b665)" d="M 154.105465 198.994368 
L 162.346885 191.878042 
L 162.340096 191.660743 
L 154.097699 198.775737 
z
" style="fill:#050338;"/>
    <path clip-path="url(#p93a274b665)" d="M 154.105465 198.994368 
L 154.081892 198.330764 
L 162.326279 191.218481 
L 162.346885 191.878042 
z
" style="fill:#0e0678;"/>
    <path clip-path="url(#p93a274b665)" d="M 209.103753 197.073984 
L 216.794403 189.994506 
L 229.891821 194.06512 
L 222.285805 201.224351 
z
" style="fill:#818115;"/>
    <path clip-path="url(#p93a274b665)" d="M 243.136481 198.181496 
L 243.189173 192.637286 
L 250.583109 185.570465 
L 250.510457 191.080779 
z
" style="fill:#2c0485;"/>
    <path clip-path="url(#p93a274b665)" d="M 277.271882 199.292348 
L 284.327244 192.170297 
L 284.349267 191.441971 
L 277.291504 198.559558 
z
" style="fill:#070339;"/>
    <path clip-path="url(#p93a274b665)" d="M 224.338378 183.050047 
L 237.351973 187.043183 
L 237.752783 125.781116 
L 224.338378 122.013302 
z
" style="fill:#d77741;"/>
    <path clip-path="url(#p93a274b665)" d="M 243.136481 198.181496 
L 250.510457 191.080779 
L 263.816264 195.163579 
L 256.530882 202.34441 
z
" style="fill:#1a0250;"/>
    <path clip-path="url(#p93a274b665)" d="M 141.344465 194.868925 
L 154.105465 198.994368 
L 154.097699 198.775737 
L 141.335339 194.651064 
z
" style="fill:#0b0777;"/>
    <path clip-path="url(#p93a274b665)" d="M 237.351973 187.043183 
L 237.63779 143.357347 
L 251.088544 147.23556 
L 250.510457 191.080779 
z
" style="fill:#561f31;"/>
    <path clip-path="url(#p93a274b665)" d="M 174.998215 188.920877 
L 188.014583 193.033699 
L 195.968625 185.939291 
L 183.033527 181.905662 
z
" style="fill:#2b0376;"/>
    <path clip-path="url(#p93a274b665)" d="M 263.816264 195.163579 
L 277.271882 199.292348 
L 277.291504 198.559558 
L 263.830816 194.433371 
z
" style="fill:#0e0678;"/>
    <path clip-path="url(#p93a274b665)" d="M 263.816264 195.163579 
L 263.838852 194.030102 
L 277.30234 198.154862 
L 277.271882 199.292348 
z
" style="fill:#080339;"/>
    <path clip-path="url(#p93a274b665)" d="M 154.105465 198.994368 
L 162.346885 191.878042 
L 175.173234 195.969799 
L 167.010898 203.166503 
z
" style="fill:#090449;"/>
    <path clip-path="url(#p93a274b665)" d="M 154.081892 198.330764 
L 166.991547 202.500551 
L 175.1568 195.307908 
L 162.326279 191.218481 
z
" style="fill:#0c0668;"/>
    <path clip-path="url(#p93a274b665)" d="M 188.144156 200.107676 
L 196.068846 192.969946 
L 195.968625 185.939291 
L 188.014583 193.033699 
z
" style="fill:#180240;"/>
    <path clip-path="url(#p93a274b665)" d="M 229.891821 194.06512 
L 230.014998 150.102705 
L 237.63779 143.357347 
L 237.351973 187.043183 
z
" style="fill:#b54168;"/>
    <path clip-path="url(#p93a274b665)" d="M 188.144156 200.107676 
L 196.068846 192.969946 
L 209.103753 197.073984 
L 201.262108 204.292457 
z
" style="fill:#7e402d;"/>
    <path clip-path="url(#p93a274b665)" d="M 224.338378 183.050047 
L 224.338378 108.417051 
L 237.842085 112.131843 
L 237.351973 187.043183 
z
" style="fill:#6a4f11;"/>
    <path clip-path="url(#p93a274b665)" d="M 243.189173 192.637286 
L 256.62163 196.780507 
L 263.926467 189.633729 
L 250.583109 185.570465 
z
" style="fill:#260473;"/>
    <path clip-path="url(#p93a274b665)" d="M 175.173234 195.969799 
L 175.05556 191.230462 
L 188.057038 195.351525 
L 188.144156 200.107676 
z
" style="fill:#12023e;"/>
    <path clip-path="url(#p93a274b665)" d="M 256.530882 202.34441 
L 256.549482 201.203978 
L 263.838852 194.030102 
L 263.816264 195.163579 
z
" style="fill:#110679;"/>
    <path clip-path="url(#p93a274b665)" d="M 216.794403 189.994506 
L 224.338378 183.050047 
L 224.338378 113.636191 
L 216.529045 120.133116 
z
" style="fill:#694616;"/>
    <path clip-path="url(#p93a274b665)" d="M 175.173234 195.969799 
L 188.144156 200.107676 
L 188.014583 193.033699 
L 174.998215 188.920877 
z
" style="fill:#320488;"/>
    <path clip-path="url(#p93a274b665)" d="M 167.010898 203.166503 
L 175.173234 195.969799 
L 175.1568 195.307908 
L 166.991547 202.500551 
z
" style="fill:#070339;"/>
    <path clip-path="url(#p93a274b665)" d="M 222.285805 201.224351 
L 229.891821 194.06512 
L 243.136481 198.181496 
L 235.617509 205.421836 
z
" style="fill:#855320;"/>
    <path clip-path="url(#p93a274b665)" d="M 211.069901 117.443275 
L 224.338378 121.165314 
L 231.967414 114.745081 
L 218.784755 111.094966 
z
" style="fill:#bb6937;"/>
    <path clip-path="url(#p93a274b665)" d="M 256.530882 202.34441 
L 263.816264 195.163579 
L 263.926467 189.633729 
L 256.62163 196.780507 
z
" style="fill:#15023f;"/>
    <path clip-path="url(#p93a274b665)" d="M 216.794403 189.994506 
L 216.509085 114.878432 
L 224.338378 108.417051 
L 224.338378 183.050047 
z
" style="fill:#e0a825;"/>
    <path clip-path="url(#p93a274b665)" d="M 167.010898 203.166503 
L 166.87234 198.397994 
L 175.05556 191.230462 
L 175.173234 195.969799 
z
" style="fill:#270483;"/>
    <path clip-path="url(#p93a274b665)" d="M 203.841786 185.968896 
L 203.126701 116.536863 
L 216.529695 120.304242 
L 216.794403 189.994506 
z
" style="fill:#694516;"/>
    <path clip-path="url(#p93a274b665)" d="M 203.841786 185.968896 
L 216.794403 189.994506 
L 216.529045 120.133116 
L 203.124946 116.366405 
z
" style="fill:#df942f;"/>
    <path clip-path="url(#p93a274b665)" d="M 256.530882 202.34441 
L 263.816264 195.163579 
L 277.271882 199.292348 
L 270.077576 206.554656 
z
" style="fill:#0a0449;"/>
    <path clip-path="url(#p93a274b665)" d="M 154.105465 198.994368 
L 167.010898 203.166503 
L 166.991547 202.500551 
L 154.081892 198.330764 
z
" style="fill:#0e0678;"/>
    <path clip-path="url(#p93a274b665)" d="M 256.549482 201.203978 
L 270.104154 205.410183 
L 277.30234 198.154862 
L 263.838852 194.030102 
z
" style="fill:#0f0569;"/>
    <path clip-path="url(#p93a274b665)" d="M 243.136481 198.181496 
L 256.530882 202.34441 
L 256.62163 196.780507 
L 243.189173 192.637286 
z
" style="fill:#2c0485;"/>
    <path clip-path="url(#p93a274b665)" d="M 167.010898 203.166503 
L 175.173234 195.969799 
L 188.144156 200.107676 
L 180.063228 207.386128 
z
" style="fill:#17034f;"/>
    <path clip-path="url(#p93a274b665)" d="M 196.068846 192.969946 
L 195.072708 123.089755 
L 203.126701 116.536863 
L 203.841786 185.968896 
z
" style="fill:#df9330;"/>
    <path clip-path="url(#p93a274b665)" d="M 243.136481 198.181496 
L 243.251228 186.107862 
L 256.728508 190.227663 
L 256.530882 202.34441 
z
" style="fill:#220144;"/>
    <path clip-path="url(#p93a274b665)" d="M 243.136481 198.181496 
L 250.510457 191.080779 
L 251.088544 147.23556 
L 243.555826 154.05828 
z
" style="fill:#561f31;"/>
    <path clip-path="url(#p93a274b665)" d="M 201.262108 204.292457 
L 209.103753 197.073984 
L 222.285805 201.224351 
L 214.529606 208.524945 
z
" style="fill:#808512;"/>
    <path clip-path="url(#p93a274b665)" d="M 270.077576 206.554656 
L 277.271882 199.292348 
L 277.30234 198.154862 
L 270.104154 205.410183 
z
" style="fill:#080339;"/>
    <path clip-path="url(#p93a274b665)" d="M 166.87234 198.397994 
L 179.955606 202.600671 
L 188.057038 195.351525 
L 175.05556 191.230462 
z
" style="fill:#220472;"/>
    <path clip-path="url(#p93a274b665)" d="M 224.338378 122.013302 
L 237.752783 125.781116 
L 245.290502 119.282067 
L 231.964296 115.587441 
z
" style="fill:#ba6738;"/>
    <path clip-path="url(#p93a274b665)" d="M 235.617509 205.421836 
L 243.136481 198.181496 
L 256.530882 202.34441 
L 249.101427 209.667246 
z
" style="fill:#2b0157;"/>
    <path clip-path="url(#p93a274b665)" d="M 235.617509 205.421836 
L 235.68704 193.273401 
L 243.251228 186.107862 
L 243.136481 198.181496 
z
" style="fill:#480290;"/>
    <path clip-path="url(#p93a274b665)" d="M 229.891821 194.06512 
L 243.136481 198.181496 
L 243.555826 154.05828 
L 230.014998 150.102705 
z
" style="fill:#b54168;"/>
    <path clip-path="url(#p93a274b665)" d="M 229.891821 194.06512 
L 237.351973 187.043183 
L 237.842085 112.131843 
L 230.103074 118.668048 
z
" style="fill:#6a4f11;"/>
    <path clip-path="url(#p93a274b665)" d="M 180.063228 207.386128 
L 188.144156 200.107676 
L 188.057038 195.351525 
L 179.955606 202.600671 
z
" style="fill:#12023e;"/>
    <path clip-path="url(#p93a274b665)" d="M 256.530882 202.34441 
L 270.077576 206.554656 
L 270.104154 205.410183 
L 256.549482 201.203978 
z
" style="fill:#110679;"/>
    <path clip-path="url(#p93a274b665)" d="M 256.530882 202.34441 
L 256.565856 200.200092 
L 270.12755 204.402735 
L 270.077576 206.554656 
z
" style="fill:#0b033b;"/>
    <path clip-path="url(#p93a274b665)" d="M 196.068846 192.969946 
L 195.250062 135.531292 
L 208.659956 139.423113 
L 209.103753 197.073984 
z
" style="fill:#623223;"/>
    <path clip-path="url(#p93a274b665)" d="M 180.063228 207.386128 
L 188.144156 200.107676 
L 201.262108 204.292457 
L 193.264978 211.654059 
z
" style="fill:#661f46;"/>
    <path clip-path="url(#p93a274b665)" d="M 216.794403 189.994506 
L 229.891821 194.06512 
L 230.103074 118.668048 
L 216.509085 114.878432 
z
" style="fill:#e0a825;"/>
    <path clip-path="url(#p93a274b665)" d="M 167.010898 203.166503 
L 180.063228 207.386128 
L 179.955606 202.600671 
L 166.87234 198.397994 
z
" style="fill:#270483;"/>
    <path clip-path="url(#p93a274b665)" d="M 249.101427 209.667246 
L 249.128596 207.509737 
L 256.565856 200.200092 
L 256.530882 202.34441 
z
" style="fill:#18057c;"/>
    <path clip-path="url(#p93a274b665)" d="M 209.103753 197.073984 
L 216.794403 189.994506 
L 216.529695 120.304242 
L 208.563808 126.933137 
z
" style="fill:#694516;"/>
    <path clip-path="url(#p93a274b665)" d="M 214.529606 208.524945 
L 222.285805 201.224351 
L 235.617509 205.421836 
L 227.94922 212.80596 
z
" style="fill:#867014;"/>
    <path clip-path="url(#p93a274b665)" d="M 188.144156 200.107676 
L 187.085312 142.300747 
L 195.250062 135.531292 
L 196.068846 192.969946 
z
" style="fill:#d1694a;"/>
    <path clip-path="url(#p93a274b665)" d="M 216.794403 189.994506 
L 216.466345 103.626086 
L 230.134727 107.370862 
L 229.891821 194.06512 
z
" style="fill:#656510;"/>
    <path clip-path="url(#p93a274b665)" d="M 196.068846 192.969946 
L 209.103753 197.073984 
L 208.563808 126.933137 
L 195.072708 123.089755 
z
" style="fill:#df9330;"/>
    <path clip-path="url(#p93a274b665)" d="M 249.101427 209.667246 
L 256.530882 202.34441 
L 270.077576 206.554656 
L 262.740181 213.961405 
z
" style="fill:#0e034b;"/>
    <path clip-path="url(#p93a274b665)" d="M 249.101427 209.667246 
L 256.530882 202.34441 
L 256.728508 190.227663 
L 249.254957 197.47535 
z
" style="fill:#220144;"/>
    <path clip-path="url(#p93a274b665)" d="M 235.68704 193.273401 
L 249.254957 197.47535 
L 256.728508 190.227663 
L 243.251228 186.107862 
z
" style="fill:#3e017d;"/>
    <path clip-path="url(#p93a274b665)" d="M 229.891821 194.06512 
L 230.080832 126.606128 
L 243.779995 130.471248 
L 243.136481 198.181496 
z
" style="fill:#684119;"/>
    <path clip-path="url(#p93a274b665)" d="M 230.014998 150.102705 
L 243.555826 154.05828 
L 251.088544 147.23556 
L 237.63779 143.357347 
z
" style="fill:#9d395a;"/>
    <path clip-path="url(#p93a274b665)" d="M 249.128596 207.509737 
L 262.782556 211.796234 
L 270.12755 204.402735 
L 256.565856 200.200092 
z
" style="fill:#15056c;"/>
    <path clip-path="url(#p93a274b665)" d="M 209.103753 197.073984 
L 208.434535 110.14005 
L 216.466345 103.626086 
L 216.794403 189.994506 
z
" style="fill:#d6d622;"/>
    <path clip-path="url(#p93a274b665)" d="M 188.144156 200.107676 
L 187.420181 160.582692 
L 200.797856 164.62314 
L 201.262108 204.292457 
z
" style="fill:#501837;"/>
    <path clip-path="url(#p93a274b665)" d="M 203.124946 116.366405 
L 216.529045 120.133116 
L 224.338378 113.636191 
L 211.021562 109.943245 
z
" style="fill:#c18129;"/>
    <path clip-path="url(#p93a274b665)" d="M 235.617509 205.421836 
L 249.101427 209.667246 
L 249.254957 197.47535 
L 235.68704 193.273401 
z
" style="fill:#480290;"/>
    <path clip-path="url(#p93a274b665)" d="M 193.264978 211.654059 
L 201.262108 204.292457 
L 214.529606 208.524945 
L 206.61873 215.971129 
z
" style="fill:#876218;"/>
    <path clip-path="url(#p93a274b665)" d="M 222.285805 201.224351 
L 222.215239 133.329324 
L 230.080832 126.606128 
L 229.891821 194.06512 
z
" style="fill:#dd8a35;"/>
    <path clip-path="url(#p93a274b665)" d="M 262.740181 213.961405 
L 270.077576 206.554656 
L 270.12755 204.402735 
L 262.782556 211.796234 
z
" style="fill:#0b033b;"/>
    <path clip-path="url(#p93a274b665)" d="M 180.063228 207.386128 
L 179.168708 167.6107 
L 187.420181 160.582692 
L 188.144156 200.107676 
z
" style="fill:#a93374;"/>
    <path clip-path="url(#p93a274b665)" d="M 227.94922 212.80596 
L 235.617509 205.421836 
L 249.101427 209.667246 
L 241.523583 217.136342 
z
" style="fill:#4a0558;"/>
    <path clip-path="url(#p93a274b665)" d="M 201.262108 204.292457 
L 209.103753 197.073984 
L 208.659956 139.423113 
L 200.583085 146.271393 
z
" style="fill:#623223;"/>
    <path clip-path="url(#p93a274b665)" d="M 249.101427 209.667246 
L 262.740181 213.961405 
L 262.782556 211.796234 
L 249.128596 207.509737 
z
" style="fill:#18057c;"/>
    <path clip-path="url(#p93a274b665)" d="M 235.617509 205.421836 
L 235.758952 180.708922 
L 249.413757 184.865019 
L 249.101427 209.667246 
z
" style="fill:#390445;"/>
    <path clip-path="url(#p93a274b665)" d="M 249.101427 209.667246 
L 249.142499 206.405664 
L 262.804241 210.688229 
L 262.740181 213.961405 
z
" style="fill:#0f023c;"/>
    <path clip-path="url(#p93a274b665)" d="M 188.144156 200.107676 
L 201.262108 204.292457 
L 200.583085 146.271393 
L 187.085312 142.300747 
z
" style="fill:#d1694a;"/>
    <path clip-path="url(#p93a274b665)" d="M 222.285805 201.224351 
L 229.891821 194.06512 
L 230.134727 107.370862 
L 222.19511 113.961445 
z
" style="fill:#656510;"/>
    <path clip-path="url(#p93a274b665)" d="M 227.94922 212.80596 
L 227.994956 187.938086 
L 235.758952 180.708922 
L 235.617509 205.421836 
z
" style="fill:#7a0892;"/>
    <path clip-path="url(#p93a274b665)" d="M 241.523583 217.136342 
L 241.552371 213.854646 
L 249.142499 206.405664 
L 249.101427 209.667246 
z
" style="fill:#200580;"/>
    <path clip-path="url(#p93a274b665)" d="M 206.61873 215.971129 
L 214.529606 208.524945 
L 227.94922 212.80596 
L 220.127123 220.338193 
z
" style="fill:#876218;"/>
    <path clip-path="url(#p93a274b665)" d="M 235.617509 205.421836 
L 243.136481 198.181496 
L 243.779995 130.471248 
L 236.007554 137.273241 
z
" style="fill:#684119;"/>
    <path clip-path="url(#p93a274b665)" d="M 209.103753 197.073984 
L 222.285805 201.224351 
L 222.19511 113.961445 
L 208.434535 110.14005 
z
" style="fill:#d6d622;"/>
    <path clip-path="url(#p93a274b665)" d="M 193.264978 211.654059 
L 201.262108 204.292457 
L 200.797856 164.62314 
L 192.633515 171.733066 
z
" style="fill:#501837;"/>
    <path clip-path="url(#p93a274b665)" d="M 241.523583 217.136342 
L 249.101427 209.667246 
L 262.740181 213.961405 
L 255.255385 221.516949 
z
" style="fill:#13034d;"/>
    <path clip-path="url(#p93a274b665)" d="M 209.103753 197.073984 
L 208.422991 108.640423 
L 222.193545 112.455764 
L 222.285805 201.224351 
z
" style="fill:#64680e;"/>
    <path clip-path="url(#p93a274b665)" d="M 216.509085 114.878432 
L 230.103074 118.668048 
L 237.842085 112.131843 
L 224.338378 108.417051 
z
" style="fill:#c29220;"/>
    <path clip-path="url(#p93a274b665)" d="M 222.285805 201.224351 
L 235.617509 205.421836 
L 236.007554 137.273241 
L 222.215239 133.329324 
z
" style="fill:#dd8a35;"/>
    <path clip-path="url(#p93a274b665)" d="M 241.552371 213.854646 
L 255.307479 218.22357 
L 262.804241 210.688229 
L 249.142499 206.405664 
z
" style="fill:#1b046f;"/>
    <path clip-path="url(#p93a274b665)" d="M 180.063228 207.386128 
L 193.264978 211.654059 
L 192.633515 171.733066 
L 179.168708 167.6107 
z
" style="fill:#a93374;"/>
    <path clip-path="url(#p93a274b665)" d="M 195.072708 123.089755 
L 208.563808 126.933137 
L 216.529695 120.304242 
L 203.126701 116.536863 
z
" style="fill:#c18029;"/>
    <path clip-path="url(#p93a274b665)" d="M 201.262108 204.292457 
L 200.220362 115.277443 
L 208.422991 108.640423 
L 209.103753 197.073984 
z
" style="fill:#d4dc1e;"/>
    <path clip-path="url(#p93a274b665)" d="M 241.523583 217.136342 
L 249.101427 209.667246 
L 249.413757 184.865019 
L 241.742527 192.178429 
z
" style="fill:#390445;"/>
    <path clip-path="url(#p93a274b665)" d="M 255.255385 221.516949 
L 262.740181 213.961405 
L 262.804241 210.688229 
L 255.307479 218.22357 
z
" style="fill:#0f023c;"/>
    <path clip-path="url(#p93a274b665)" d="M 222.285805 201.224351 
L 222.20239 120.966144 
L 236.078595 124.861025 
L 235.617509 205.421836 
z
" style="fill:#69570f;"/>
    <path clip-path="url(#p93a274b665)" d="M 220.127123 220.338193 
L 227.94922 212.80596 
L 241.523583 217.136342 
L 233.792858 224.756123 
z
" style="fill:#5d154e;"/>
    <path clip-path="url(#p93a274b665)" d="M 227.94922 212.80596 
L 241.523583 217.136342 
L 241.742527 192.178429 
L 227.994956 187.938086 
z
" style="fill:#7a0892;"/>
    <path clip-path="url(#p93a274b665)" d="M 241.523583 217.136342 
L 255.255385 221.516949 
L 255.307479 218.22357 
L 241.552371 213.854646 
z
" style="fill:#200580;"/>
    <path clip-path="url(#p93a274b665)" d="M 214.529606 208.524945 
L 214.126886 127.741581 
L 222.20239 120.966144 
L 222.285805 201.224351 
z
" style="fill:#deb920;"/>
    <path clip-path="url(#p93a274b665)" d="M 187.085312 142.300747 
L 200.583085 146.271393 
L 208.659956 139.423113 
L 195.250062 135.531292 
z
" style="fill:#b55c40;"/>
    <path clip-path="url(#p93a274b665)" d="M 241.523583 217.136342 
L 241.56276 212.670391 
L 255.326278 217.035085 
L 255.255385 221.516949 
z
" style="fill:#11023d;"/>
    <path clip-path="url(#p93a274b665)" d="M 201.262108 204.292457 
L 200.386273 129.454228 
L 214.155121 133.405441 
L 214.529606 208.524945 
z
" style="fill:#6a4d13;"/>
    <path clip-path="url(#p93a274b665)" d="M 227.994956 187.938086 
L 241.742527 192.178429 
L 249.413757 184.865019 
L 235.758952 180.708922 
z
" style="fill:#6a077f;"/>
    <path clip-path="url(#p93a274b665)" d="M 179.168708 167.6107 
L 192.633515 171.733066 
L 200.797856 164.62314 
L 187.420181 160.582692 
z
" style="fill:#932c64;"/>
    <path clip-path="url(#p93a274b665)" d="M 227.94922 212.80596 
L 228.01258 178.355887 
L 241.8269 182.560563 
L 241.523583 217.136342 
z
" style="fill:#49113d;"/>
    <path clip-path="url(#p93a274b665)" d="M 214.529606 208.524945 
L 222.285805 201.224351 
L 222.193545 112.455764 
L 214.084164 119.171711 
z
" style="fill:#64680e;"/>
    <path clip-path="url(#p93a274b665)" d="M 233.792858 224.756123 
L 233.81463 220.262567 
L 241.56276 212.670391 
L 241.523583 217.136342 
z
" style="fill:#250582;"/>
    <path clip-path="url(#p93a274b665)" d="M 193.264978 211.654059 
L 192.07348 136.327706 
L 200.386273 129.454228 
L 201.262108 204.292457 
z
" style="fill:#e0a327;"/>
    <path clip-path="url(#p93a274b665)" d="M 233.792858 224.756123 
L 241.523583 217.136342 
L 255.255385 221.516949 
L 247.618703 229.225814 
z
" style="fill:#16034f;"/>
    <path clip-path="url(#p93a274b665)" d="M 220.127123 220.338193 
L 220.052474 185.670017 
L 228.01258 178.355887 
L 227.94922 212.80596 
z
" style="fill:#9a2381;"/>
    <path clip-path="url(#p93a274b665)" d="M 201.262108 204.292457 
L 214.529606 208.524945 
L 214.084164 119.171711 
L 200.220362 115.277443 
z
" style="fill:#d4dc1e;"/>
    <path clip-path="url(#p93a274b665)" d="M 227.94922 212.80596 
L 235.617509 205.421836 
L 236.078595 124.861025 
L 228.098356 131.717178 
z
" style="fill:#69570f;"/>
    <path clip-path="url(#p93a274b665)" d="M 233.81463 220.262567 
L 247.672627 224.716227 
L 255.326278 217.035085 
L 241.56276 212.670391 
z
" style="fill:#200471;"/>
    <path clip-path="url(#p93a274b665)" d="M 214.529606 208.524945 
L 214.154498 133.280405 
L 228.088128 137.278162 
L 227.94922 212.80596 
z
" style="fill:#6a4d13;"/>
    <path clip-path="url(#p93a274b665)" d="M 222.215239 133.329324 
L 236.007554 137.273241 
L 243.779995 130.471248 
L 230.080832 126.606128 
z
" style="fill:#c0782e;"/>
    <path clip-path="url(#p93a274b665)" d="M 214.529606 208.524945 
L 227.94922 212.80596 
L 228.098356 131.717178 
L 214.126886 127.741581 
z
" style="fill:#deb920;"/>
    <path clip-path="url(#p93a274b665)" d="M 247.618703 229.225814 
L 255.255385 221.516949 
L 255.326278 217.035085 
L 247.672627 224.716227 
z
" style="fill:#11023d;"/>
    <path clip-path="url(#p93a274b665)" d="M 206.61873 215.971129 
L 214.529606 208.524945 
L 214.155121 133.405441 
L 205.935214 140.360933 
z
" style="fill:#6a4d13;"/>
    <path clip-path="url(#p93a274b665)" d="M 206.61873 215.971129 
L 205.934076 140.235032 
L 214.154498 133.280405 
L 214.529606 208.524945 
z
" style="fill:#e0a327;"/>
    <path clip-path="url(#p93a274b665)" d="M 233.792858 224.756123 
L 241.523583 217.136342 
L 241.8269 182.560563 
L 233.961443 189.96122 
z
" style="fill:#49113d;"/>
    <path clip-path="url(#p93a274b665)" d="M 208.434535 110.14005 
L 222.19511 113.961445 
L 230.134727 107.370862 
L 216.466345 103.626086 
z
" style="fill:#bab91e;"/>
    <path clip-path="url(#p93a274b665)" d="M 233.792858 224.756123 
L 247.618703 229.225814 
L 247.672627 224.716227 
L 233.81463 220.262567 
z
" style="fill:#250582;"/>
    <path clip-path="url(#p93a274b665)" d="M 193.264978 211.654059 
L 206.61873 215.971129 
L 205.935214 140.360933 
L 192.07348 136.327706 
z
" style="fill:#e0a327;"/>
    <path clip-path="url(#p93a274b665)" d="M 220.127123 220.338193 
L 233.792858 224.756123 
L 233.961443 189.96122 
L 220.052474 185.670017 
z
" style="fill:#9a2381;"/>
    <path clip-path="url(#p93a274b665)" d="M 220.127123 220.338193 
L 227.94922 212.80596 
L 228.088128 137.278162 
L 219.963429 144.316274 
z
" style="fill:#6a4d13;"/>
    <path clip-path="url(#p93a274b665)" d="M 220.052474 185.670017 
L 233.961443 189.96122 
L 241.8269 182.560563 
L 228.01258 178.355887 
z
" style="fill:#861f70;"/>
    <path clip-path="url(#p93a274b665)" d="M 206.61873 215.971129 
L 220.127123 220.338193 
L 219.963429 144.316274 
L 205.934076 140.235032 
z
" style="fill:#e0a327;"/>
    <path clip-path="url(#p93a274b665)" d="M 200.220362 115.277443 
L 214.084164 119.171711 
L 222.193545 112.455764 
L 208.422991 108.640423 
z
" style="fill:#b8bf1a;"/>
    <path clip-path="url(#p93a274b665)" d="M 214.126886 127.741581 
L 228.098356 131.717178 
L 236.078595 124.861025 
L 222.20239 120.966144 
z
" style="fill:#c1a11c;"/>
    <path clip-path="url(#p93a274b665)" d="M 192.07348 136.327706 
L 205.935214 140.360933 
L 214.155121 133.405441 
L 200.386273 129.454228 
z
" style="fill:#c28d22;"/>
    <path clip-path="url(#p93a274b665)" d="M 205.934076 140.235032 
L 219.963429 144.316274 
L 228.088128 137.278162 
L 214.154498 133.280405 
z
" style="fill:#c28d22;"/>
   </g>
   <g id="text_16">
    <!-- W40__H25__A330_bars_extracted.txt -->
    <g transform="translate(110.101875 28.56)scale(0.12 -0.12)">
     <defs>
      <path d="M 3.328125 72.90625 
L 13.28125 72.90625 
L 28.609375 11.28125 
L 43.890625 72.90625 
L 54.984375 72.90625 
L 70.3125 11.28125 
L 85.59375 72.90625 
L 95.609375 72.90625 
L 77.296875 0 
L 64.890625 0 
L 49.515625 63.28125 
L 33.984375 0 
L 21.578125 0 
z
" id="DejaVuSans-87"/>
      <path d="M 50.984375 -16.609375 
L 50.984375 -23.578125 
L -0.984375 -23.578125 
L -0.984375 -16.609375 
z
" id="DejaVuSans-95"/>
      <path d="M 9.8125 72.90625 
L 19.671875 72.90625 
L 19.671875 43.015625 
L 55.515625 43.015625 
L 55.515625 72.90625 
L 65.375 72.90625 
L 65.375 0 
L 55.515625 0 
L 55.515625 34.71875 
L 19.671875 34.71875 
L 19.671875 0 
L 9.8125 0 
z
" id="DejaVuSans-72"/>
      <path d="M 10.796875 72.90625 
L 49.515625 72.90625 
L 49.515625 64.59375 
L 19.828125 64.59375 
L 19.828125 46.734375 
Q 21.96875 47.46875 24.109375 47.828125 
Q 26.265625 48.1875 28.421875 48.1875 
Q 40.625 48.1875 47.75 41.5 
Q 54.890625 34.8125 54.890625 23.390625 
Q 54.890625 11.625 47.5625 5.09375 
Q 40.234375 -1.421875 26.90625 -1.421875 
Q 22.3125 -1.421875 17.546875 -0.640625 
Q 12.796875 0.140625 7.71875 1.703125 
L 7.71875 11.625 
Q 12.109375 9.234375 16.796875 8.0625 
Q 21.484375 6.890625 26.703125 6.890625 
Q 35.15625 6.890625 40.078125 11.328125 
Q 45.015625 15.765625 45.015625 23.390625 
Q 45.015625 31 40.078125 35.4375 
Q 35.15625 39.890625 26.703125 39.890625 
Q 22.75 39.890625 18.8125 39.015625 
Q 14.890625 38.140625 10.796875 36.28125 
z
" id="DejaVuSans-53"/>
      <path d="M 34.1875 63.1875 
L 20.796875 26.90625 
L 47.609375 26.90625 
z
M 28.609375 72.90625 
L 39.796875 72.90625 
L 67.578125 0 
L 57.328125 0 
L 50.6875 18.703125 
L 17.828125 18.703125 
L 11.1875 0 
L 0.78125 0 
z
" id="DejaVuSans-65"/>
      <path d="M 48.6875 27.296875 
Q 48.6875 37.203125 44.609375 42.84375 
Q 40.53125 48.484375 33.40625 48.484375 
Q 26.265625 48.484375 22.1875 42.84375 
Q 18.109375 37.203125 18.109375 27.296875 
Q 18.109375 17.390625 22.1875 11.75 
Q 26.265625 6.109375 33.40625 6.109375 
Q 40.53125 6.109375 44.609375 11.75 
Q 48.6875 17.390625 48.6875 27.296875 
z
M 18.109375 46.390625 
Q 20.953125 51.265625 25.265625 53.625 
Q 29.59375 56 35.59375 56 
Q 45.5625 56 51.78125 48.09375 
Q 58.015625 40.1875 58.015625 27.296875 
Q 58.015625 14.40625 51.78125 6.484375 
Q 45.5625 -1.421875 35.59375 -1.421875 
Q 29.59375 -1.421875 25.265625 0.953125 
Q 20.953125 3.328125 18.109375 8.203125 
L 18.109375 0 
L 9.078125 0 
L 9.078125 75.984375 
L 18.109375 75.984375 
z
" id="DejaVuSans-98"/>
      <path d="M 34.28125 27.484375 
Q 23.390625 27.484375 19.1875 25 
Q 14.984375 22.515625 14.984375 16.5 
Q 14.984375 11.71875 18.140625 8.90625 
Q 21.296875 6.109375 26.703125 6.109375 
Q 34.1875 6.109375 38.703125 11.40625 
Q 43.21875 16.703125 43.21875 25.484375 
L 43.21875 27.484375 
z
M 52.203125 31.203125 
L 52.203125 0 
L 43.21875 0 
L 43.21875 8.296875 
Q 40.140625 3.328125 35.546875 0.953125 
Q 30.953125 -1.421875 24.3125 -1.421875 
Q 15.921875 -1.421875 10.953125 3.296875 
Q 6 8.015625 6 15.921875 
Q 6 25.140625 12.171875 29.828125 
Q 18.359375 34.515625 30.609375 34.515625 
L 43.21875 34.515625 
L 43.21875 35.40625 
Q 43.21875 41.609375 39.140625 45 
Q 35.0625 48.390625 27.6875 48.390625 
Q 23 48.390625 18.546875 47.265625 
Q 14.109375 46.140625 10.015625 43.890625 
L 10.015625 52.203125 
Q 14.9375 54.109375 19.578125 55.046875 
Q 24.21875 56 28.609375 56 
Q 40.484375 56 46.34375 49.84375 
Q 52.203125 43.703125 52.203125 31.203125 
z
" id="DejaVuSans-97"/>
      <path d="M 41.109375 46.296875 
Q 39.59375 47.171875 37.8125 47.578125 
Q 36.03125 48 33.890625 48 
Q 26.265625 48 22.1875 43.046875 
Q 18.109375 38.09375 18.109375 28.8125 
L 18.109375 0 
L 9.078125 0 
L 9.078125 54.6875 
L 18.109375 54.6875 
L 18.109375 46.1875 
Q 20.953125 51.171875 25.484375 53.578125 
Q 30.03125 56 36.53125 56 
Q 37.453125 56 38.578125 55.875 
Q 39.703125 55.765625 41.0625 55.515625 
z
" id="DejaVuSans-114"/>
      <path d="M 44.28125 53.078125 
L 44.28125 44.578125 
Q 40.484375 46.53125 36.375 47.5 
Q 32.28125 48.484375 27.875 48.484375 
Q 21.1875 48.484375 17.84375 46.4375 
Q 14.5 44.390625 14.5 40.28125 
Q 14.5 37.15625 16.890625 35.375 
Q 19.28125 33.59375 26.515625 31.984375 
L 29.59375 31.296875 
Q 39.15625 29.25 43.1875 25.515625 
Q 47.21875 21.78125 47.21875 15.09375 
Q 47.21875 7.46875 41.1875 3.015625 
Q 35.15625 -1.421875 24.609375 -1.421875 
Q 20.21875 -1.421875 15.453125 -0.5625 
Q 10.6875 0.296875 5.421875 2 
L 5.421875 11.28125 
Q 10.40625 8.6875 15.234375 7.390625 
Q 20.0625 6.109375 24.8125 6.109375 
Q 31.15625 6.109375 34.5625 8.28125 
Q 37.984375 10.453125 37.984375 14.40625 
Q 37.984375 18.0625 35.515625 20.015625 
Q 33.0625 21.96875 24.703125 23.78125 
L 21.578125 24.515625 
Q 13.234375 26.265625 9.515625 29.90625 
Q 5.8125 33.546875 5.8125 39.890625 
Q 5.8125 47.609375 11.28125 51.796875 
Q 16.75 56 26.8125 56 
Q 31.78125 56 36.171875 55.265625 
Q 40.578125 54.546875 44.28125 53.078125 
z
" id="DejaVuSans-115"/>
      <path d="M 56.203125 29.59375 
L 56.203125 25.203125 
L 14.890625 25.203125 
Q 15.484375 15.921875 20.484375 11.0625 
Q 25.484375 6.203125 34.421875 6.203125 
Q 39.59375 6.203125 44.453125 7.46875 
Q 49.3125 8.734375 54.109375 11.28125 
L 54.109375 2.78125 
Q 49.265625 0.734375 44.1875 -0.34375 
Q 39.109375 -1.421875 33.890625 -1.421875 
Q 20.796875 -1.421875 13.15625 6.1875 
Q 5.515625 13.8125 5.515625 26.8125 
Q 5.515625 40.234375 12.765625 48.109375 
Q 20.015625 56 32.328125 56 
Q 43.359375 56 49.78125 48.890625 
Q 56.203125 41.796875 56.203125 29.59375 
z
M 47.21875 32.234375 
Q 47.125 39.59375 43.09375 43.984375 
Q 39.0625 48.390625 32.421875 48.390625 
Q 24.90625 48.390625 20.390625 44.140625 
Q 15.875 39.890625 15.1875 32.171875 
z
" id="DejaVuSans-101"/>
      <path d="M 54.890625 54.6875 
L 35.109375 28.078125 
L 55.90625 0 
L 45.3125 0 
L 29.390625 21.484375 
L 13.484375 0 
L 2.875 0 
L 24.125 28.609375 
L 4.6875 54.6875 
L 15.28125 54.6875 
L 29.78125 35.203125 
L 44.28125 54.6875 
z
" id="DejaVuSans-120"/>
      <path d="M 18.3125 70.21875 
L 18.3125 54.6875 
L 36.8125 54.6875 
L 36.8125 47.703125 
L 18.3125 47.703125 
L 18.3125 18.015625 
Q 18.3125 11.328125 20.140625 9.421875 
Q 21.96875 7.515625 27.59375 7.515625 
L 36.8125 7.515625 
L 36.8125 0 
L 27.59375 0 
Q 17.1875 0 13.234375 3.875 
Q 9.28125 7.765625 9.28125 18.015625 
L 9.28125 47.703125 
L 2.6875 47.703125 
L 2.6875 54.6875 
L 9.28125 54.6875 
L 9.28125 70.21875 
z
" id="DejaVuSans-116"/>
      <path d="M 48.78125 52.59375 
L 48.78125 44.1875 
Q 44.96875 46.296875 41.140625 47.34375 
Q 37.3125 48.390625 33.40625 48.390625 
Q 24.65625 48.390625 19.8125 42.84375 
Q 14.984375 37.3125 14.984375 27.296875 
Q 14.984375 17.28125 19.8125 11.734375 
Q 24.65625 6.203125 33.40625 6.203125 
Q 37.3125 6.203125 41.140625 7.25 
Q 44.96875 8.296875 48.78125 10.40625 
L 48.78125 2.09375 
Q 45.015625 0.34375 40.984375 -0.53125 
Q 36.96875 -1.421875 32.421875 -1.421875 
Q 20.0625 -1.421875 12.78125 6.34375 
Q 5.515625 14.109375 5.515625 27.296875 
Q 5.515625 40.671875 12.859375 48.328125 
Q 20.21875 56 33.015625 56 
Q 37.15625 56 41.109375 55.140625 
Q 45.0625 54.296875 48.78125 52.59375 
z
" id="DejaVuSans-99"/>
      <path d="M 45.40625 46.390625 
L 45.40625 75.984375 
L 54.390625 75.984375 
L 54.390625 0 
L 45.40625 0 
L 45.40625 8.203125 
Q 42.578125 3.328125 38.25 0.953125 
Q 33.9375 -1.421875 27.875 -1.421875 
Q 17.96875 -1.421875 11.734375 6.484375 
Q 5.515625 14.40625 5.515625 27.296875 
Q 5.515625 40.1875 11.734375 48.09375 
Q 17.96875 56 27.875 56 
Q 33.9375 56 38.25 53.625 
Q 42.578125 51.265625 45.40625 46.390625 
z
M 14.796875 27.296875 
Q 14.796875 17.390625 18.875 11.75 
Q 22.953125 6.109375 30.078125 6.109375 
Q 37.203125 6.109375 41.296875 11.75 
Q 45.40625 17.390625 45.40625 27.296875 
Q 45.40625 37.203125 41.296875 42.84375 
Q 37.203125 48.484375 30.078125 48.484375 
Q 22.953125 48.484375 18.875 42.84375 
Q 14.796875 37.203125 14.796875 27.296875 
z
" id="DejaVuSans-100"/>
      <path d="M 10.6875 12.40625 
L 21 12.40625 
L 21 0 
L 10.6875 0 
z
" id="DejaVuSans-46"/>
     </defs>
     <use xlink:href="#DejaVuSans-87"/>
     <use x="98.876953" xlink:href="#DejaVuSans-52"/>
     <use x="162.5" xlink:href="#DejaVuSans-48"/>
     <use x="226.123047" xlink:href="#DejaVuSans-95"/>
     <use x="276.123047" xlink:href="#DejaVuSans-95"/>
     <use x="326.123047" xlink:href="#DejaVuSans-72"/>
     <use x="401.318359" xlink:href="#DejaVuSans-50"/>
     <use x="464.941406" xlink:href="#DejaVuSans-53"/>
     <use x="528.564453" xlink:href="#DejaVuSans-95"/>
     <use x="578.564453" xlink:href="#DejaVuSans-95"/>
     <use x="628.564453" xlink:href="#DejaVuSans-65"/>
     <use x="696.972656" xlink:href="#DejaVuSans-51"/>
     <use x="760.595703" xlink:href="#DejaVuSans-51"/>
     <use x="824.21875" xlink:href="#DejaVuSans-48"/>
     <use x="887.841797" xlink:href="#DejaVuSans-95"/>
     <use x="937.841797" xlink:href="#DejaVuSans-98"/>
     <use x="1001.318359" xlink:href="#DejaVuSans-97"/>
     <use x="1062.597656" xlink:href="#DejaVuSans-114"/>
     <use x="1103.710938" xlink:href="#DejaVuSans-115"/>
     <use x="1155.810547" xlink:href="#DejaVuSans-95"/>
     <use x="1205.810547" xlink:href="#DejaVuSans-101"/>
     <use x="1265.583984" xlink:href="#DejaVuSans-120"/>
     <use x="1324.763672" xlink:href="#DejaVuSans-116"/>
     <use x="1363.972656" xlink:href="#DejaVuSans-114"/>
     <use x="1405.085938" xlink:href="#DejaVuSans-97"/>
     <use x="1466.365234" xlink:href="#DejaVuSans-99"/>
     <use x="1521.345703" xlink:href="#DejaVuSans-116"/>
     <use x="1560.554688" xlink:href="#DejaVuSans-101"/>
     <use x="1622.078125" xlink:href="#DejaVuSans-100"/>
     <use x="1685.554688" xlink:href="#DejaVuSans-46"/>
     <use x="1717.341797" xlink:href="#DejaVuSans-116"/>
     <use x="1756.550781" xlink:href="#DejaVuSans-120"/>
     <use x="1815.730469" xlink:href="#DejaVuSans-116"/>
    </g>
   </g>
  </g>
 </g>
 <defs>
  <clipPath id="p93a274b665">
   <rect height="217.44" width="217.44" x="112.68" y="34.56"/>
  </clipPath>
 </defs>
</svg>
