<?xml version="1.0" encoding="utf-8" standalone="no"?>
<!DOCTYPE svg PUBLIC "-//W3C//DTD SVG 1.1//EN"
  "http://www.w3.org/Graphics/SVG/1.1/DTD/svg11.dtd">
<!-- Created with matplotlib (https://matplotlib.org/) -->
<svg height="288pt" version="1.1" viewBox="0 0 432 288" width="432pt" xmlns="http://www.w3.org/2000/svg" xmlns:xlink="http://www.w3.org/1999/xlink">
 <metadata>
  <rdf:RDF xmlns:cc="http://creativecommons.org/ns#" xmlns:dc="http://purl.org/dc/elements/1.1/" xmlns:rdf="http://www.w3.org/1999/02/22-rdf-syntax-ns#">
   <cc:Work>
    <dc:type rdf:resource="http://purl.org/dc/dcmitype/StillImage"/>
    <dc:date>2021-06-13T21:59:53.581621</dc:date>
    <dc:format>image/svg+xml</dc:format>
    <dc:creator>
     <cc:Agent>
      <dc:title>Matplotlib v3.3.4, https://matplotlib.org/</dc:title>
     </cc:Agent>
    </dc:creator>
   </cc:Work>
  </rdf:RDF>
 </metadata>
 <defs>
  <style type="text/css">*{stroke-linecap:butt;stroke-linejoin:round;}</style>
 </defs>
 <g id="figure_1">
  <g id="patch_1">
   <path d="M 0 288 
L 432 288 
L 432 0 
L 0 0 
z
" style="fill:#ffffff;"/>
  </g>
  <g id="patch_2">
   <path d="M 112.68 252 
L 330.12 252 
L 330.12 34.56 
L 112.68 34.56 
z
" style="fill:#ffffff;"/>
  </g>
  <g id="pane3d_1">
   <g id="patch_3">
    <path d="M 129.09822 198.386264 
L 200.904009 138.197228 
L 199.90584 51.393878 
L 124.663773 106.302111 
" style="fill:#f2f2f2;opacity:0.5;stroke:#f2f2f2;stroke-linejoin:miter;"/>
   </g>
  </g>
  <g id="pane3d_2">
   <g id="patch_4">
    <path d="M 200.904009 138.197228 
L 316.12668 171.68791 
L 320.238571 81.894718 
L 199.90584 51.393878 
" style="fill:#e6e6e6;opacity:0.5;stroke:#e6e6e6;stroke-linejoin:miter;"/>
   </g>
  </g>
  <g id="pane3d_3">
   <g id="patch_5">
    <path d="M 129.09822 198.386264 
L 251.239879 238.27773 
L 316.12668 171.68791 
L 200.904009 138.197228 
" style="fill:#ececec;opacity:0.5;stroke:#ececec;stroke-linejoin:miter;"/>
   </g>
  </g>
  <g id="axis3d_1">
   <g id="line2d_1">
    <path d="M 129.09822 198.386264 
L 251.239879 238.27773 
" style="fill:none;stroke:#000000;stroke-linecap:square;stroke-width:0.8;"/>
   </g>
   <g id="Line3DCollection_1">
    <path d="M 136.495759 200.802301 
L 207.911499 140.234029 
L 207.209612 53.245171 
" style="fill:none;stroke:#b0b0b0;stroke-width:0.8;"/>
    <path d="M 162.23134 209.207541 
L 232.260894 147.311436 
L 232.60309 59.681678 
" style="fill:none;stroke:#b0b0b0;stroke-width:0.8;"/>
    <path d="M 188.559037 217.806167 
L 257.123632 154.538053 
L 258.555303 66.259807 
" style="fill:none;stroke:#b0b0b0;stroke-width:0.8;"/>
    <path d="M 215.499525 226.604931 
L 282.516121 161.918647 
L 285.084894 72.984285 
" style="fill:none;stroke:#b0b0b0;stroke-width:0.8;"/>
    <path d="M 243.074449 235.610901 
L 308.455474 169.458193 
L 312.21135 79.860051 
" style="fill:none;stroke:#b0b0b0;stroke-width:0.8;"/>
   </g>
   <g id="xtick_1">
    <g id="line2d_2">
     <path d="M 137.117644 200.274876 
L 135.249322 201.859414 
" style="fill:none;stroke:#000000;stroke-linecap:square;stroke-width:0.8;"/>
    </g>
    <g id="text_1">
     <!-- 0 -->
     <g transform="translate(125.77919 224.124533)scale(0.1 -0.1)">
      <defs>
       <path d="M 31.78125 66.40625 
Q 24.171875 66.40625 20.328125 58.90625 
Q 16.5 51.421875 16.5 36.375 
Q 16.5 21.390625 20.328125 13.890625 
Q 24.171875 6.390625 31.78125 6.390625 
Q 39.453125 6.390625 43.28125 13.890625 
Q 47.125 21.390625 47.125 36.375 
Q 47.125 51.421875 43.28125 58.90625 
Q 39.453125 66.40625 31.78125 66.40625 
z
M 31.78125 74.21875 
Q 44.046875 74.21875 50.515625 64.515625 
Q 56.984375 54.828125 56.984375 36.375 
Q 56.984375 17.96875 50.515625 8.265625 
Q 44.046875 -1.421875 31.78125 -1.421875 
Q 19.53125 -1.421875 13.0625 8.265625 
Q 6.59375 17.96875 6.59375 36.375 
Q 6.59375 54.828125 13.0625 64.515625 
Q 19.53125 74.21875 31.78125 74.21875 
z
" id="DejaVuSans-48"/>
      </defs>
      <use xlink:href="#DejaVuSans-48"/>
     </g>
    </g>
   </g>
   <g id="xtick_2">
    <g id="line2d_3">
     <path d="M 162.841716 208.668056 
L 161.007937 210.288854 
" style="fill:none;stroke:#000000;stroke-linecap:square;stroke-width:0.8;"/>
    </g>
    <g id="text_2">
     <!-- 2 -->
     <g transform="translate(151.547192 232.748132)scale(0.1 -0.1)">
      <defs>
       <path d="M 19.1875 8.296875 
L 53.609375 8.296875 
L 53.609375 0 
L 7.328125 0 
L 7.328125 8.296875 
Q 12.9375 14.109375 22.625 23.890625 
Q 32.328125 33.6875 34.8125 36.53125 
Q 39.546875 41.84375 41.421875 45.53125 
Q 43.3125 49.21875 43.3125 52.78125 
Q 43.3125 58.59375 39.234375 62.25 
Q 35.15625 65.921875 28.609375 65.921875 
Q 23.96875 65.921875 18.8125 64.3125 
Q 13.671875 62.703125 7.8125 59.421875 
L 7.8125 69.390625 
Q 13.765625 71.78125 18.9375 73 
Q 24.125 74.21875 28.421875 74.21875 
Q 39.75 74.21875 46.484375 68.546875 
Q 53.21875 62.890625 53.21875 53.421875 
Q 53.21875 48.921875 51.53125 44.890625 
Q 49.859375 40.875 45.40625 35.40625 
Q 44.1875 33.984375 37.640625 27.21875 
Q 31.109375 20.453125 19.1875 8.296875 
z
" id="DejaVuSans-50"/>
      </defs>
      <use xlink:href="#DejaVuSans-50"/>
     </g>
    </g>
   </g>
   <g id="xtick_3">
    <g id="line2d_4">
     <path d="M 189.15721 217.254202 
L 187.360066 218.91252 
" style="fill:none;stroke:#000000;stroke-linecap:square;stroke-width:0.8;"/>
    </g>
    <g id="text_3">
     <!-- 4 -->
     <g transform="translate(177.91082 241.571064)scale(0.1 -0.1)">
      <defs>
       <path d="M 37.796875 64.3125 
L 12.890625 25.390625 
L 37.796875 25.390625 
z
M 35.203125 72.90625 
L 47.609375 72.90625 
L 47.609375 25.390625 
L 58.015625 25.390625 
L 58.015625 17.1875 
L 47.609375 17.1875 
L 47.609375 0 
L 37.796875 0 
L 37.796875 17.1875 
L 4.890625 17.1875 
L 4.890625 26.703125 
z
" id="DejaVuSans-52"/>
      </defs>
      <use xlink:href="#DejaVuSans-52"/>
     </g>
    </g>
   </g>
   <g id="xtick_4">
    <g id="line2d_5">
     <path d="M 216.084757 226.040048 
L 214.326462 227.737204 
" style="fill:none;stroke:#000000;stroke-linecap:square;stroke-width:0.8;"/>
    </g>
    <g id="text_4">
     <!-- 6 -->
     <g transform="translate(204.890965 250.600322)scale(0.1 -0.1)">
      <defs>
       <path d="M 33.015625 40.375 
Q 26.375 40.375 22.484375 35.828125 
Q 18.609375 31.296875 18.609375 23.390625 
Q 18.609375 15.53125 22.484375 10.953125 
Q 26.375 6.390625 33.015625 6.390625 
Q 39.65625 6.390625 43.53125 10.953125 
Q 47.40625 15.53125 47.40625 23.390625 
Q 47.40625 31.296875 43.53125 35.828125 
Q 39.65625 40.375 33.015625 40.375 
z
M 52.59375 71.296875 
L 52.59375 62.3125 
Q 48.875 64.0625 45.09375 64.984375 
Q 41.3125 65.921875 37.59375 65.921875 
Q 27.828125 65.921875 22.671875 59.328125 
Q 17.53125 52.734375 16.796875 39.40625 
Q 19.671875 43.65625 24.015625 45.921875 
Q 28.375 48.1875 33.59375 48.1875 
Q 44.578125 48.1875 50.953125 41.515625 
Q 57.328125 34.859375 57.328125 23.390625 
Q 57.328125 12.15625 50.6875 5.359375 
Q 44.046875 -1.421875 33.015625 -1.421875 
Q 20.359375 -1.421875 13.671875 8.265625 
Q 6.984375 17.96875 6.984375 36.375 
Q 6.984375 53.65625 15.1875 63.9375 
Q 23.390625 74.21875 37.203125 74.21875 
Q 40.921875 74.21875 44.703125 73.484375 
Q 48.484375 72.75 52.59375 71.296875 
z
" id="DejaVuSans-54"/>
      </defs>
      <use xlink:href="#DejaVuSans-54"/>
     </g>
    </g>
   </g>
   <g id="xtick_5">
    <g id="line2d_6">
     <path d="M 243.645962 235.032643 
L 241.928856 236.770015 
" style="fill:none;stroke:#000000;stroke-linecap:square;stroke-width:0.8;"/>
    </g>
    <g id="text_5">
     <!-- 8 -->
     <g transform="translate(232.509511 259.84323)scale(0.1 -0.1)">
      <defs>
       <path d="M 31.78125 34.625 
Q 24.75 34.625 20.71875 30.859375 
Q 16.703125 27.09375 16.703125 20.515625 
Q 16.703125 13.921875 20.71875 10.15625 
Q 24.75 6.390625 31.78125 6.390625 
Q 38.8125 6.390625 42.859375 10.171875 
Q 46.921875 13.96875 46.921875 20.515625 
Q 46.921875 27.09375 42.890625 30.859375 
Q 38.875 34.625 31.78125 34.625 
z
M 21.921875 38.8125 
Q 15.578125 40.375 12.03125 44.71875 
Q 8.5 49.078125 8.5 55.328125 
Q 8.5 64.0625 14.71875 69.140625 
Q 20.953125 74.21875 31.78125 74.21875 
Q 42.671875 74.21875 48.875 69.140625 
Q 55.078125 64.0625 55.078125 55.328125 
Q 55.078125 49.078125 51.53125 44.71875 
Q 48 40.375 41.703125 38.8125 
Q 48.828125 37.15625 52.796875 32.3125 
Q 56.78125 27.484375 56.78125 20.515625 
Q 56.78125 9.90625 50.3125 4.234375 
Q 43.84375 -1.421875 31.78125 -1.421875 
Q 19.734375 -1.421875 13.25 4.234375 
Q 6.78125 9.90625 6.78125 20.515625 
Q 6.78125 27.484375 10.78125 32.3125 
Q 14.796875 37.15625 21.921875 38.8125 
z
M 18.3125 54.390625 
Q 18.3125 48.734375 21.84375 45.5625 
Q 25.390625 42.390625 31.78125 42.390625 
Q 38.140625 42.390625 41.71875 45.5625 
Q 45.3125 48.734375 45.3125 54.390625 
Q 45.3125 60.0625 41.71875 63.234375 
Q 38.140625 66.40625 31.78125 66.40625 
Q 25.390625 66.40625 21.84375 63.234375 
Q 18.3125 60.0625 18.3125 54.390625 
z
" id="DejaVuSans-56"/>
      </defs>
      <use xlink:href="#DejaVuSans-56"/>
     </g>
    </g>
   </g>
  </g>
  <g id="axis3d_2">
   <g id="line2d_7">
    <path d="M 316.12668 171.68791 
L 251.239879 238.27773 
" style="fill:none;stroke:#000000;stroke-linecap:square;stroke-width:0.8;"/>
   </g>
   <g id="Line3DCollection_2">
    <path d="M 129.866948 102.505071 
L 134.046245 194.238731 
L 255.729543 233.67023 
" style="fill:none;stroke:#b0b0b0;stroke-width:0.8;"/>
    <path d="M 147.250212 89.819556 
L 150.59591 180.366474 
L 270.72626 218.279909 
" style="fill:none;stroke:#b0b0b0;stroke-width:0.8;"/>
    <path d="M 163.958537 77.626582 
L 166.530371 167.009893 
L 285.136664 203.491289 
" style="fill:none;stroke:#b0b0b0;stroke-width:0.8;"/>
    <path d="M 180.030483 65.898008 
L 181.883306 154.140758 
L 298.994481 189.269761 
" style="fill:none;stroke:#b0b0b0;stroke-width:0.8;"/>
    <path d="M 195.501727 54.607799 
L 196.68598 141.732864 
L 312.330896 175.583317 
" style="fill:none;stroke:#b0b0b0;stroke-width:0.8;"/>
   </g>
   <g id="xtick_6">
    <g id="line2d_8">
     <path d="M 254.704115 233.337939 
L 257.783053 234.33567 
" style="fill:none;stroke:#000000;stroke-linecap:square;stroke-width:0.8;"/>
    </g>
    <g id="text_6">
     <!-- 0 -->
     <g transform="translate(265.430654 254.693759)scale(0.1 -0.1)">
      <use xlink:href="#DejaVuSans-48"/>
     </g>
    </g>
   </g>
   <g id="xtick_7">
    <g id="line2d_9">
     <path d="M 269.71494 217.960734 
L 272.751463 218.919068 
" style="fill:none;stroke:#000000;stroke-linecap:square;stroke-width:0.8;"/>
    </g>
    <g id="text_7">
     <!-- 2 -->
     <g transform="translate(280.181112 239.024526)scale(0.1 -0.1)">
      <use xlink:href="#DejaVuSans-50"/>
     </g>
    </g>
   </g>
   <g id="xtick_8">
    <g id="line2d_10">
     <path d="M 284.139145 203.184468 
L 287.134182 204.105694 
" style="fill:none;stroke:#000000;stroke-linecap:square;stroke-width:0.8;"/>
    </g>
    <g id="text_8">
     <!-- 4 -->
     <g transform="translate(294.35448 223.968328)scale(0.1 -0.1)">
      <use xlink:href="#DejaVuSans-52"/>
     </g>
    </g>
   </g>
   <g id="xtick_9">
    <g id="line2d_11">
     <path d="M 298.010457 188.97459 
L 300.964927 189.860821 
" style="fill:none;stroke:#000000;stroke-linecap:square;stroke-width:0.8;"/>
    </g>
    <g id="text_9">
     <!-- 6 -->
     <g transform="translate(307.983974 209.489882)scale(0.1 -0.1)">
      <use xlink:href="#DejaVuSans-54"/>
     </g>
    </g>
   </g>
   <g id="xtick_10">
    <g id="line2d_12">
     <path d="M 311.360068 175.299146 
L 314.274875 176.15234 
" style="fill:none;stroke:#000000;stroke-linecap:square;stroke-width:0.8;"/>
    </g>
    <g id="text_10">
     <!-- 8 -->
     <g transform="translate(321.10031 195.556556)scale(0.1 -0.1)">
      <use xlink:href="#DejaVuSans-56"/>
     </g>
    </g>
   </g>
  </g>
  <g id="axis3d_3">
   <g id="line2d_13">
    <path d="M 316.12668 171.68791 
L 320.238571 81.894718 
" style="fill:none;stroke:#000000;stroke-linecap:square;stroke-width:0.8;"/>
   </g>
   <g id="Line3DCollection_3">
    <path d="M 316.205459 169.967571 
L 200.884845 136.530725 
L 129.013401 196.624949 
" style="fill:none;stroke:#b0b0b0;stroke-width:0.8;"/>
    <path d="M 317.161531 149.089408 
L 200.6524 116.316658 
L 127.983598 175.240419 
" style="fill:none;stroke:#b0b0b0;stroke-width:0.8;"/>
    <path d="M 318.137712 127.772111 
L 200.4153 95.697901 
L 126.931301 153.388805 
" style="fill:none;stroke:#b0b0b0;stroke-width:0.8;"/>
    <path d="M 319.134643 106.001679 
L 200.173406 74.662179 
L 125.855767 131.054636 
" style="fill:none;stroke:#b0b0b0;stroke-width:0.8;"/>
   </g>
   <g id="xtick_11">
    <g id="line2d_14">
     <path d="M 315.237563 169.686933 
L 318.143556 170.529516 
" style="fill:none;stroke:#000000;stroke-linecap:square;stroke-width:0.8;"/>
    </g>
    <g id="text_11">
     <!-- 0 -->
     <g transform="translate(331.275915 174.966846)scale(0.1 -0.1)">
      <use xlink:href="#DejaVuSans-48"/>
     </g>
    </g>
   </g>
   <g id="xtick_12">
    <g id="line2d_15">
     <path d="M 316.183183 148.814209 
L 319.120581 149.640467 
" style="fill:none;stroke:#000000;stroke-linecap:square;stroke-width:0.8;"/>
    </g>
    <g id="text_12">
     <!-- 10000 -->
     <g transform="translate(319.692685 154.139151)scale(0.1 -0.1)">
      <defs>
       <path d="M 12.40625 8.296875 
L 28.515625 8.296875 
L 28.515625 63.921875 
L 10.984375 60.40625 
L 10.984375 69.390625 
L 28.421875 72.90625 
L 38.28125 72.90625 
L 38.28125 8.296875 
L 54.390625 8.296875 
L 54.390625 0 
L 12.40625 0 
z
" id="DejaVuSans-49"/>
      </defs>
      <use xlink:href="#DejaVuSans-49"/>
      <use x="63.623047" xlink:href="#DejaVuSans-48"/>
      <use x="127.246094" xlink:href="#DejaVuSans-48"/>
      <use x="190.869141" xlink:href="#DejaVuSans-48"/>
      <use x="254.492188" xlink:href="#DejaVuSans-48"/>
     </g>
    </g>
   </g>
   <g id="xtick_13">
    <g id="line2d_16">
     <path d="M 317.148684 127.502644 
L 320.118172 128.311699 
" style="fill:none;stroke:#000000;stroke-linecap:square;stroke-width:0.8;"/>
    </g>
    <g id="text_13">
     <!-- 20000 -->
     <g transform="translate(320.85838 132.875025)scale(0.1 -0.1)">
      <use xlink:href="#DejaVuSans-50"/>
      <use x="63.623047" xlink:href="#DejaVuSans-48"/>
      <use x="127.246094" xlink:href="#DejaVuSans-48"/>
      <use x="190.869141" xlink:href="#DejaVuSans-48"/>
      <use x="254.492188" xlink:href="#DejaVuSans-48"/>
     </g>
    </g>
   </g>
   <g id="xtick_14">
    <g id="line2d_17">
     <path d="M 318.1347 105.738251 
L 321.136985 106.529181 
" style="fill:none;stroke:#000000;stroke-linecap:square;stroke-width:0.8;"/>
    </g>
    <g id="text_14">
     <!-- 30000 -->
     <g transform="translate(322.04876 111.160606)scale(0.1 -0.1)">
      <defs>
       <path d="M 40.578125 39.3125 
Q 47.65625 37.796875 51.625 33 
Q 55.609375 28.21875 55.609375 21.1875 
Q 55.609375 10.40625 48.1875 4.484375 
Q 40.765625 -1.421875 27.09375 -1.421875 
Q 22.515625 -1.421875 17.65625 -0.515625 
Q 12.796875 0.390625 7.625 2.203125 
L 7.625 11.71875 
Q 11.71875 9.328125 16.59375 8.109375 
Q 21.484375 6.890625 26.8125 6.890625 
Q 36.078125 6.890625 40.9375 10.546875 
Q 45.796875 14.203125 45.796875 21.1875 
Q 45.796875 27.640625 41.28125 31.265625 
Q 36.765625 34.90625 28.71875 34.90625 
L 20.21875 34.90625 
L 20.21875 43.015625 
L 29.109375 43.015625 
Q 36.375 43.015625 40.234375 45.921875 
Q 44.09375 48.828125 44.09375 54.296875 
Q 44.09375 59.90625 40.109375 62.90625 
Q 36.140625 65.921875 28.71875 65.921875 
Q 24.65625 65.921875 20.015625 65.03125 
Q 15.375 64.15625 9.8125 62.3125 
L 9.8125 71.09375 
Q 15.4375 72.65625 20.34375 73.4375 
Q 25.25 74.21875 29.59375 74.21875 
Q 40.828125 74.21875 47.359375 69.109375 
Q 53.90625 64.015625 53.90625 55.328125 
Q 53.90625 49.265625 50.4375 45.09375 
Q 46.96875 40.921875 40.578125 39.3125 
z
" id="DejaVuSans-51"/>
      </defs>
      <use xlink:href="#DejaVuSans-51"/>
      <use x="63.623047" xlink:href="#DejaVuSans-48"/>
      <use x="127.246094" xlink:href="#DejaVuSans-48"/>
      <use x="190.869141" xlink:href="#DejaVuSans-48"/>
      <use x="254.492188" xlink:href="#DejaVuSans-48"/>
     </g>
    </g>
   </g>
  </g>
  <g id="axes_1">
   <g id="Poly3DCollection_1">
    <path clip-path="url(#pc53c83da31)" d="M 203.700438 142.115361 
L 203.570937 129.352252 
L 215.810446 132.859257 
L 215.863902 145.66701 
z
" style="fill:#230144;"/>
    <path clip-path="url(#pc53c83da31)" d="M 196.401162 148.290596 
L 203.700438 142.115361 
L 215.863902 145.66701 
L 208.637156 151.907182 
z
" style="fill:#2d0157;"/>
    <path clip-path="url(#pc53c83da31)" d="M 196.401162 148.290596 
L 196.224257 135.450013 
L 203.570937 129.352252 
L 203.700438 142.115361 
z
" style="fill:#4b0190;"/>
    <path clip-path="url(#pc53c83da31)" d="M 215.863902 145.66701 
L 215.805686 131.718823 
L 228.181381 135.258832 
L 228.155024 149.255935 
z
" style="fill:#260045;"/>
    <path clip-path="url(#pc53c83da31)" d="M 208.637156 151.907182 
L 215.863902 145.66701 
L 228.155024 149.255935 
L 221.002748 155.562072 
z
" style="fill:#300158;"/>
    <path clip-path="url(#pc53c83da31)" d="M 208.637156 151.907182 
L 215.863902 145.66701 
L 215.810446 132.859257 
L 208.537206 139.021548 
z
" style="fill:#230144;"/>
    <path clip-path="url(#pc53c83da31)" d="M 208.637156 151.907182 
L 208.528305 137.874107 
L 215.805686 131.718823 
L 215.863902 145.66701 
z
" style="fill:#500192;"/>
    <path clip-path="url(#pc53c83da31)" d="M 196.224257 135.450013 
L 208.537206 139.021548 
L 215.810446 132.859257 
L 203.570937 129.352252 
z
" style="fill:#41017d;"/>
    <path clip-path="url(#pc53c83da31)" d="M 196.401162 148.290596 
L 208.637156 151.907182 
L 208.537206 139.021548 
L 196.224257 135.450013 
z
" style="fill:#4b0190;"/>
    <path clip-path="url(#pc53c83da31)" d="M 188.96817 154.578956 
L 196.401162 148.290596 
L 208.637156 151.907182 
L 201.27732 158.262275 
z
" style="fill:#581051;"/>
    <path clip-path="url(#pc53c83da31)" d="M 228.155024 149.255935 
L 228.184907 133.386351 
L 240.703635 136.957312 
L 240.575825 152.882725 
z
" style="fill:#2a0046;"/>
    <path clip-path="url(#pc53c83da31)" d="M 221.002748 155.562072 
L 228.155024 149.255935 
L 240.575825 152.882725 
L 233.500008 159.25588 
z
" style="fill:#350059;"/>
    <path clip-path="url(#pc53c83da31)" d="M 221.002748 155.562072 
L 228.155024 149.255935 
L 228.181381 135.258832 
L 220.9795 141.479637 
z
" style="fill:#260045;"/>
    <path clip-path="url(#pc53c83da31)" d="M 221.002748 155.562072 
L 220.97639 139.595605 
L 228.184907 133.386351 
L 228.155024 149.255935 
z
" style="fill:#590094;"/>
    <path clip-path="url(#pc53c83da31)" d="M 196.401162 148.290596 
L 195.982512 117.902963 
L 208.400609 121.411545 
L 208.637156 151.907182 
z
" style="fill:#450d40;"/>
    <path clip-path="url(#pc53c83da31)" d="M 208.528305 137.874107 
L 220.9795 141.479637 
L 228.181381 135.258832 
L 215.805686 131.718823 
z
" style="fill:#46017f;"/>
    <path clip-path="url(#pc53c83da31)" d="M 208.637156 151.907182 
L 221.002748 155.562072 
L 220.9795 141.479637 
L 208.528305 137.874107 
z
" style="fill:#500192;"/>
    <path clip-path="url(#pc53c83da31)" d="M 188.96817 154.578956 
L 188.433206 124.003886 
L 195.982512 117.902963 
L 196.401162 148.290596 
z
" style="fill:#911b87;"/>
    <path clip-path="url(#pc53c83da31)" d="M 201.27732 158.262275 
L 208.637156 151.907182 
L 221.002748 155.562072 
L 213.718049 161.984967 
z
" style="fill:#651d47;"/>
    <path clip-path="url(#pc53c83da31)" d="M 240.575825 152.882725 
L 240.699562 137.46481 
L 253.348934 141.075756 
L 253.128369 156.547983 
z
" style="fill:#280045;"/>
    <path clip-path="url(#pc53c83da31)" d="M 233.500008 159.25588 
L 240.575825 152.882725 
L 253.128369 156.547983 
L 246.131049 162.989229 
z
" style="fill:#340059;"/>
    <path clip-path="url(#pc53c83da31)" d="M 233.500008 159.25588 
L 233.570472 143.743715 
L 240.699562 137.46481 
L 240.575825 152.882725 
z
" style="fill:#560093;"/>
    <path clip-path="url(#pc53c83da31)" d="M 233.500008 159.25588 
L 240.575825 152.882725 
L 240.703635 136.957312 
L 233.572792 143.233078 
z
" style="fill:#2a0046;"/>
    <path clip-path="url(#pc53c83da31)" d="M 181.397755 160.983577 
L 188.96817 154.578956 
L 201.27732 158.262275 
L 193.780682 164.735494 
z
" style="fill:#6d2640;"/>
    <path clip-path="url(#pc53c83da31)" d="M 220.97639 139.595605 
L 233.572792 143.233078 
L 240.703635 136.957312 
L 228.184907 133.386351 
z
" style="fill:#4d0080;"/>
    <path clip-path="url(#pc53c83da31)" d="M 208.637156 151.907182 
L 208.349392 114.808663 
L 220.941285 118.330815 
L 221.002748 155.562072 
z
" style="fill:#4f1738;"/>
    <path clip-path="url(#pc53c83da31)" d="M 221.002748 155.562072 
L 233.500008 159.25588 
L 233.572792 143.233078 
L 220.97639 139.595605 
z
" style="fill:#590094;"/>
    <path clip-path="url(#pc53c83da31)" d="M 201.27732 158.262275 
L 208.637156 151.907182 
L 208.400609 121.411545 
L 200.926645 127.578195 
z
" style="fill:#450d40;"/>
    <path clip-path="url(#pc53c83da31)" d="M 253.128369 156.547983 
L 253.306805 144.030987 
L 266.073206 147.691259 
L 265.814761 160.252323 
z
" style="fill:#230144;"/>
    <path clip-path="url(#pc53c83da31)" d="M 213.718049 161.984967 
L 221.002748 155.562072 
L 233.500008 159.25588 
L 226.292478 165.747667 
z
" style="fill:#6f2a3d;"/>
    <path clip-path="url(#pc53c83da31)" d="M 201.27732 158.262275 
L 200.850705 120.933391 
L 208.349392 114.808663 
L 208.637156 151.907182 
z
" style="fill:#a73076;"/>
    <path clip-path="url(#pc53c83da31)" d="M 246.131049 162.989229 
L 253.128369 156.547983 
L 265.814761 160.252323 
L 258.898031 166.762758 
z
" style="fill:#2c0157;"/>
    <path clip-path="url(#pc53c83da31)" d="M 188.96817 154.578956 
L 201.27732 158.262275 
L 200.926645 127.578195 
L 188.433206 124.003886 
z
" style="fill:#911b87;"/>
    <path clip-path="url(#pc53c83da31)" d="M 246.131049 162.989229 
L 246.267377 150.39576 
L 253.306805 144.030987 
L 253.128369 156.547983 
z
" style="fill:#490290;"/>
    <path clip-path="url(#pc53c83da31)" d="M 246.131049 162.989229 
L 253.128369 156.547983 
L 253.348934 141.075756 
L 246.299566 147.422263 
z
" style="fill:#280045;"/>
    <path clip-path="url(#pc53c83da31)" d="M 233.570472 143.743715 
L 246.299566 147.422263 
L 253.348934 141.075756 
L 240.699562 137.46481 
z
" style="fill:#4a0080;"/>
    <path clip-path="url(#pc53c83da31)" d="M 193.780682 164.735494 
L 201.27732 158.262275 
L 213.718049 161.984967 
L 206.297214 168.527892 
z
" style="fill:#7c3c30;"/>
    <path clip-path="url(#pc53c83da31)" d="M 188.433206 124.003886 
L 200.926645 127.578195 
L 208.400609 121.411545 
L 195.982512 117.902963 
z
" style="fill:#7e1875;"/>
    <path clip-path="url(#pc53c83da31)" d="M 188.96817 154.578956 
L 188.227654 112.255863 
L 200.791889 115.786974 
L 201.27732 158.262275 
z
" style="fill:#551e32;"/>
    <path clip-path="url(#pc53c83da31)" d="M 233.500008 159.25588 
L 246.131049 162.989229 
L 246.299566 147.422263 
L 233.570472 143.743715 
z
" style="fill:#560093;"/>
    <path clip-path="url(#pc53c83da31)" d="M 265.814761 160.252323 
L 266.020901 150.233419 
L 278.908476 153.942208 
L 278.637155 163.996376 
z
" style="fill:#1d0142;"/>
    <path clip-path="url(#pc53c83da31)" d="M 226.292478 165.747667 
L 233.500008 159.25588 
L 246.131049 162.989229 
L 239.002775 169.551023 
z
" style="fill:#753137;"/>
    <path clip-path="url(#pc53c83da31)" d="M 221.002748 155.562072 
L 220.929835 111.39495 
L 233.701361 114.929628 
L 233.500008 159.25588 
z
" style="fill:#572130;"/>
    <path clip-path="url(#pc53c83da31)" d="M 181.397755 160.983577 
L 180.490257 118.396327 
L 188.227654 112.255863 
L 188.96817 154.578956 
z
" style="fill:#b43f6a;"/>
    <path clip-path="url(#pc53c83da31)" d="M 213.718049 161.984967 
L 221.002748 155.562072 
L 220.941285 118.330815 
L 213.52051 124.5221 
z
" style="fill:#4f1738;"/>
    <path clip-path="url(#pc53c83da31)" d="M 258.898031 166.762758 
L 259.071403 156.682663 
L 266.020901 150.233419 
L 265.814761 160.252323 
z
" style="fill:#3e038c;"/>
    <path clip-path="url(#pc53c83da31)" d="M 258.898031 166.762758 
L 265.814761 160.252323 
L 278.637155 163.996376 
L 271.803162 170.57712 
z
" style="fill:#250255;"/>
    <path clip-path="url(#pc53c83da31)" d="M 258.898031 166.762758 
L 265.814761 160.252323 
L 266.073206 147.691259 
L 259.115397 154.124829 
z
" style="fill:#230144;"/>
    <path clip-path="url(#pc53c83da31)" d="M 246.267377 150.39576 
L 259.115397 154.124829 
L 266.073206 147.691259 
L 253.306805 144.030987 
z
" style="fill:#40017d;"/>
    <path clip-path="url(#pc53c83da31)" d="M 173.686069 167.507715 
L 181.397755 160.983577 
L 193.780682 164.735494 
L 186.143392 171.330164 
z
" style="fill:#702b3c;"/>
    <path clip-path="url(#pc53c83da31)" d="M 213.718049 161.984967 
L 213.483702 117.541675 
L 220.929835 111.39495 
L 221.002748 155.562072 
z
" style="fill:#b94565;"/>
    <path clip-path="url(#pc53c83da31)" d="M 201.27732 158.262275 
L 213.718049 161.984967 
L 213.52051 124.5221 
L 200.850705 120.933391 
z
" style="fill:#a73076;"/>
    <path clip-path="url(#pc53c83da31)" d="M 278.637155 163.996376 
L 278.773817 158.932191 
L 291.767945 162.698813 
L 291.597749 167.780781 
z
" style="fill:#11023d;"/>
    <path clip-path="url(#pc53c83da31)" d="M 246.131049 162.989229 
L 258.898031 166.762758 
L 259.115397 154.124829 
L 246.267377 150.39576 
z
" style="fill:#490290;"/>
    <path clip-path="url(#pc53c83da31)" d="M 206.297214 168.527892 
L 213.718049 161.984967 
L 226.292478 165.747667 
L 218.949524 172.361429 
z
" style="fill:#845022;"/>
    <path clip-path="url(#pc53c83da31)" d="M 239.002775 169.551023 
L 246.131049 162.989229 
L 258.898031 166.762758 
L 251.851153 173.395697 
z
" style="fill:#732e3a;"/>
    <path clip-path="url(#pc53c83da31)" d="M 271.803162 170.57712 
L 271.923746 165.482077 
L 278.773817 158.932191 
L 278.637155 163.996376 
z
" style="fill:#250582;"/>
    <path clip-path="url(#pc53c83da31)" d="M 193.780682 164.735494 
L 201.27732 158.262275 
L 200.791889 115.786974 
L 193.131343 121.994601 
z
" style="fill:#551e32;"/>
    <path clip-path="url(#pc53c83da31)" d="M 259.071403 156.682663 
L 272.042569 160.461452 
L 278.908476 153.942208 
L 266.020901 150.233419 
z
" style="fill:#36027a;"/>
    <path clip-path="url(#pc53c83da31)" d="M 271.803162 170.57712 
L 278.637155 163.996376 
L 278.908476 153.942208 
L 272.042569 160.461452 
z
" style="fill:#1d0142;"/>
    <path clip-path="url(#pc53c83da31)" d="M 271.803162 170.57712 
L 278.637155 163.996376 
L 291.597749 167.780781 
L 284.848695 174.43298 
z
" style="fill:#16034f;"/>
    <path clip-path="url(#pc53c83da31)" d="M 201.27732 158.262275 
L 200.661545 104.381857 
L 213.432909 107.908787 
L 213.718049 161.984967 
z
" style="fill:#612f25;"/>
    <path clip-path="url(#pc53c83da31)" d="M 233.500008 159.25588 
L 233.719204 111.001689 
L 246.655307 114.560359 
L 246.131049 162.989229 
z
" style="fill:#5b262b;"/>
    <path clip-path="url(#pc53c83da31)" d="M 200.850705 120.933391 
L 213.52051 124.5221 
L 220.941285 118.330815 
L 208.349392 114.808663 
z
" style="fill:#912a66;"/>
    <path clip-path="url(#pc53c83da31)" d="M 291.597749 167.780781 
L 291.642274 166.451266 
L 304.752276 170.272019 
L 304.698789 171.606197 
z
" style="fill:#070339;"/>
    <path clip-path="url(#pc53c83da31)" d="M 186.143392 171.330164 
L 193.780682 164.735494 
L 206.297214 168.527892 
L 198.736391 175.194243 
z
" style="fill:#814628;"/>
    <path clip-path="url(#pc53c83da31)" d="M 226.292478 165.747667 
L 233.500008 159.25588 
L 233.701361 114.929628 
L 226.335833 121.143743 
z
" style="fill:#572130;"/>
    <path clip-path="url(#pc53c83da31)" d="M 181.397755 160.983577 
L 193.780682 164.735494 
L 193.131343 121.994601 
L 180.490257 118.396327 
z
" style="fill:#b43f6a;"/>
    <path clip-path="url(#pc53c83da31)" d="M 258.898031 166.762758 
L 271.803162 170.57712 
L 272.042569 160.461452 
L 259.071403 156.682663 
z
" style="fill:#3e038c;"/>
    <path clip-path="url(#pc53c83da31)" d="M 181.397755 160.983577 
L 180.433025 115.710542 
L 193.090387 119.298801 
L 193.780682 164.735494 
z
" style="fill:#58222f;"/>
    <path clip-path="url(#pc53c83da31)" d="M 193.780682 164.735494 
L 192.956945 110.515321 
L 200.661545 104.381857 
L 201.27732 158.262275 
z
" style="fill:#cd634f;"/>
    <path clip-path="url(#pc53c83da31)" d="M 226.292478 165.747667 
L 226.339676 117.190318 
L 233.719204 111.001689 
L 233.500008 159.25588 
z
" style="fill:#c2515c;"/>
    <path clip-path="url(#pc53c83da31)" d="M 218.949524 172.361429 
L 226.292478 165.747667 
L 239.002775 169.551023 
L 231.739835 176.23678 
z
" style="fill:#876a15;"/>
    <path clip-path="url(#pc53c83da31)" d="M 271.923746 165.482077 
L 285.00326 169.32 
L 291.767945 162.698813 
L 278.773817 158.932191 
z
" style="fill:#200471;"/>
    <path clip-path="url(#pc53c83da31)" d="M 284.848695 174.43298 
L 284.889131 173.095375 
L 291.642274 166.451266 
L 291.597749 167.780781 
z
" style="fill:#0e0678;"/>
    <path clip-path="url(#pc53c83da31)" d="M 213.718049 161.984967 
L 226.292478 165.747667 
L 226.335833 121.143743 
L 213.483702 117.541675 
z
" style="fill:#b94565;"/>
    <path clip-path="url(#pc53c83da31)" d="M 251.851153 173.395697 
L 258.898031 166.762758 
L 271.803162 170.57712 
L 264.839875 177.282368 
z
" style="fill:#6c2541;"/>
    <path clip-path="url(#pc53c83da31)" d="M 284.848695 174.43298 
L 291.597749 167.780781 
L 291.767945 162.698813 
L 285.00326 169.32 
z
" style="fill:#11023d;"/>
    <path clip-path="url(#pc53c83da31)" d="M 173.686069 167.507715 
L 172.537225 121.950654 
L 180.433025 115.710542 
L 181.397755 160.983577 
z
" style="fill:#ba4763;"/>
    <path clip-path="url(#pc53c83da31)" d="M 165.82912 174.154745 
L 173.686069 167.507715 
L 186.143392 171.330164 
L 178.361455 178.049733 
z
" style="fill:#712c3b;"/>
    <path clip-path="url(#pc53c83da31)" d="M 284.848695 174.43298 
L 291.597749 167.780781 
L 304.698789 171.606197 
L 298.036935 178.33102 
z
" style="fill:#090449;"/>
    <path clip-path="url(#pc53c83da31)" d="M 246.131049 162.989229 
L 246.640125 115.962754 
L 259.709791 119.565913 
L 258.898031 166.762758 
z
" style="fill:#5a242d;"/>
    <path clip-path="url(#pc53c83da31)" d="M 271.803162 170.57712 
L 284.848695 174.43298 
L 285.00326 169.32 
L 271.923746 165.482077 
z
" style="fill:#250582;"/>
    <path clip-path="url(#pc53c83da31)" d="M 284.889131 173.095375 
L 298.086453 176.988713 
L 304.752276 170.272019 
L 291.642274 166.451266 
z
" style="fill:#0c0668;"/>
    <path clip-path="url(#pc53c83da31)" d="M 198.736391 175.194243 
L 206.297214 168.527892 
L 218.949524 172.361429 
L 211.467294 179.100638 
z
" style="fill:#875d1a;"/>
    <path clip-path="url(#pc53c83da31)" d="M 180.490257 118.396327 
L 193.131343 121.994601 
L 200.791889 115.786974 
L 188.227654 112.255863 
z
" style="fill:#9c375c;"/>
    <path clip-path="url(#pc53c83da31)" d="M 239.002775 169.551023 
L 239.348616 122.228873 
L 246.640125 115.962754 
L 246.131049 162.989229 
z
" style="fill:#be4c60;"/>
    <path clip-path="url(#pc53c83da31)" d="M 206.297214 168.527892 
L 213.718049 161.984967 
L 213.432909 107.908787 
L 205.808187 114.110085 
z
" style="fill:#612f25;"/>
    <path clip-path="url(#pc53c83da31)" d="M 239.002775 169.551023 
L 246.131049 162.989229 
L 246.655307 114.560359 
L 239.358932 120.817343 
z
" style="fill:#5b262b;"/>
    <path clip-path="url(#pc53c83da31)" d="M 231.739835 176.23678 
L 239.002775 169.551023 
L 251.851153 173.395697 
L 244.670417 180.154631 
z
" style="fill:#857714;"/>
    <path clip-path="url(#pc53c83da31)" d="M 213.718049 161.984967 
L 213.381878 98.23095 
L 226.354675 101.759926 
L 226.292478 165.747667 
z
" style="fill:#673e1b;"/>
    <path clip-path="url(#pc53c83da31)" d="M 298.036935 178.33102 
L 304.698789 171.606197 
L 304.752276 170.272019 
L 298.086453 176.988713 
z
" style="fill:#070339;"/>
    <path clip-path="url(#pc53c83da31)" d="M 264.839875 177.282368 
L 271.803162 170.57712 
L 284.848695 174.43298 
L 277.971253 181.211726 
z
" style="fill:#520b55;"/>
    <path clip-path="url(#pc53c83da31)" d="M 213.483702 117.541675 
L 226.335833 121.143743 
L 233.701361 114.929628 
L 220.929835 111.39495 
z
" style="fill:#a03c58;"/>
    <path clip-path="url(#pc53c83da31)" d="M 186.143392 171.330164 
L 193.780682 164.735494 
L 193.090387 119.298801 
L 185.272294 125.607911 
z
" style="fill:#58222f;"/>
    <path clip-path="url(#pc53c83da31)" d="M 258.898031 166.762758 
L 259.618916 124.84953 
L 272.798705 128.512373 
L 271.803162 170.57712 
z
" style="fill:#541d33;"/>
    <path clip-path="url(#pc53c83da31)" d="M 193.780682 164.735494 
L 206.297214 168.527892 
L 205.808187 114.110085 
L 192.956945 110.515321 
z
" style="fill:#cd634f;"/>
    <path clip-path="url(#pc53c83da31)" d="M 226.292478 165.747667 
L 239.002775 169.551023 
L 239.358932 120.817343 
L 226.339676 117.190318 
z
" style="fill:#c2515c;"/>
    <path clip-path="url(#pc53c83da31)" d="M 206.297214 168.527892 
L 205.720642 104.368227 
L 213.381878 98.23095 
L 213.718049 161.984967 
z
" style="fill:#db8439;"/>
    <path clip-path="url(#pc53c83da31)" d="M 284.848695 174.43298 
L 298.036935 178.33102 
L 298.086453 176.988713 
L 284.889131 173.095375 
z
" style="fill:#0e0678;"/>
    <path clip-path="url(#pc53c83da31)" d="M 178.361455 178.049733 
L 186.143392 171.330164 
L 198.736391 175.194243 
L 191.031582 181.987547 
z
" style="fill:#814628;"/>
    <path clip-path="url(#pc53c83da31)" d="M 193.780682 164.735494 
L 192.871984 104.923044 
L 205.757741 108.496524 
L 206.297214 168.527892 
z
" style="fill:#65371f;"/>
    <path clip-path="url(#pc53c83da31)" d="M 271.803162 170.57712 
L 272.462742 142.707829 
L 285.694197 146.463845 
L 284.848695 174.43298 
z
" style="fill:#400942;"/>
    <path clip-path="url(#pc53c83da31)" d="M 173.686069 167.507715 
L 186.143392 171.330164 
L 185.272294 125.607911 
L 172.537225 121.950654 
z
" style="fill:#ba4763;"/>
    <path clip-path="url(#pc53c83da31)" d="M 251.851153 173.395697 
L 252.430558 131.219519 
L 259.618916 124.84953 
L 258.898031 166.762758 
z
" style="fill:#b23d6b;"/>
    <path clip-path="url(#pc53c83da31)" d="M 173.686069 167.507715 
L 172.52718 121.552319 
L 185.264676 125.208082 
L 186.143392 171.330164 
z
" style="fill:#59222e;"/>
    <path clip-path="url(#pc53c83da31)" d="M 211.467294 179.100638 
L 218.949524 172.361429 
L 231.739835 176.23678 
L 224.338378 183.050047 
z
" style="fill:#808512;"/>
    <path clip-path="url(#pc53c83da31)" d="M 284.848695 174.43298 
L 285.1304 165.114196 
L 298.381923 168.979275 
L 298.036935 178.33102 
z
" style="fill:#1b0141;"/>
    <path clip-path="url(#pc53c83da31)" d="M 251.851153 173.395697 
L 258.898031 166.762758 
L 259.709791 119.565913 
L 252.503615 125.90158 
z
" style="fill:#5a242d;"/>
    <path clip-path="url(#pc53c83da31)" d="M 186.143392 171.330164 
L 184.996609 111.137769 
L 192.871984 104.923044 
L 193.780682 164.735494 
z
" style="fill:#d67543;"/>
    <path clip-path="url(#pc53c83da31)" d="M 244.670417 180.154631 
L 251.851153 173.395697 
L 264.839875 177.282368 
L 257.743589 184.115686 
z
" style="fill:#875d1a;"/>
    <path clip-path="url(#pc53c83da31)" d="M 264.839875 177.282368 
L 265.408091 149.239815 
L 272.462742 142.707829 
L 271.803162 170.57712 
z
" style="fill:#87128d;"/>
    <path clip-path="url(#pc53c83da31)" d="M 165.82912 174.154745 
L 164.477571 127.910074 
L 172.52718 121.552319 
L 173.686069 167.507715 
z
" style="fill:#bc4962;"/>
    <path clip-path="url(#pc53c83da31)" d="M 277.971253 181.211726 
L 278.223326 171.835748 
L 285.1304 165.114196 
L 284.848695 174.43298 
z
" style="fill:#39038b;"/>
    <path clip-path="url(#pc53c83da31)" d="M 157.822766 180.928173 
L 165.82912 174.154745 
L 178.361455 178.049733 
L 170.430723 184.897786 
z
" style="fill:#6d2640;"/>
    <path clip-path="url(#pc53c83da31)" d="M 277.971253 181.211726 
L 284.848695 174.43298 
L 298.036935 178.33102 
L 291.24765 185.184478 
z
" style="fill:#230254;"/>
    <path clip-path="url(#pc53c83da31)" d="M 239.002775 169.551023 
L 251.851153 173.395697 
L 252.503615 125.90158 
L 239.348616 122.228873 
z
" style="fill:#be4c60;"/>
    <path clip-path="url(#pc53c83da31)" d="M 218.949524 172.361429 
L 226.292478 165.747667 
L 226.354675 101.759926 
L 218.77634 107.96578 
z
" style="fill:#673e1b;"/>
    <path clip-path="url(#pc53c83da31)" d="M 191.031582 181.987547 
L 198.736391 175.194243 
L 211.467294 179.100638 
L 203.841786 185.968896 
z
" style="fill:#876616;"/>
    <path clip-path="url(#pc53c83da31)" d="M 226.292478 165.747667 
L 226.365838 90.274933 
L 239.55639 93.798738 
L 239.002775 169.551023 
z
" style="fill:#695310;"/>
    <path clip-path="url(#pc53c83da31)" d="M 226.339676 117.190318 
L 239.358932 120.817343 
L 246.655307 114.560359 
L 233.719204 111.001689 
z
" style="fill:#a84650;"/>
    <path clip-path="url(#pc53c83da31)" d="M 264.839875 177.282368 
L 271.803162 170.57712 
L 272.798705 128.512373 
L 265.697574 134.953272 
z
" style="fill:#541d33;"/>
    <path clip-path="url(#pc53c83da31)" d="M 224.338378 183.050047 
L 231.739835 176.23678 
L 244.670417 180.154631 
L 237.351973 187.043183 
z
" style="fill:#808314;"/>
    <path clip-path="url(#pc53c83da31)" d="M 206.297214 168.527892 
L 218.949524 172.361429 
L 218.77634 107.96578 
L 205.720642 104.368227 
z
" style="fill:#db8439;"/>
    <path clip-path="url(#pc53c83da31)" d="M 172.537225 121.950654 
L 185.272294 125.607911 
L 193.090387 119.298801 
L 180.433025 115.710542 
z
" style="fill:#a23e56;"/>
    <path clip-path="url(#pc53c83da31)" d="M 192.956945 110.515321 
L 205.808187 114.110085 
L 213.432909 107.908787 
L 200.661545 104.381857 
z
" style="fill:#b25644;"/>
    <path clip-path="url(#pc53c83da31)" d="M 218.949524 172.361429 
L 218.745244 96.403495 
L 226.365838 90.274933 
L 226.292478 165.747667 
z
" style="fill:#e0af22;"/>
    <path clip-path="url(#pc53c83da31)" d="M 198.736391 175.194243 
L 206.297214 168.527892 
L 205.757741 108.496524 
L 197.963393 114.780836 
z
" style="fill:#65371f;"/>
    <path clip-path="url(#pc53c83da31)" d="M 257.743589 184.115686 
L 264.839875 177.282368 
L 277.971253 181.211726 
L 270.961723 188.120663 
z
" style="fill:#6f2a3d;"/>
    <path clip-path="url(#pc53c83da31)" d="M 277.971253 181.211726 
L 284.848695 174.43298 
L 285.694197 146.463845 
L 278.727886 153.068437 
z
" style="fill:#400942;"/>
    <path clip-path="url(#pc53c83da31)" d="M 251.851153 173.395697 
L 264.839875 177.282368 
L 265.697574 134.953272 
L 252.430558 131.219519 
z
" style="fill:#b23d6b;"/>
    <path clip-path="url(#pc53c83da31)" d="M 178.361455 178.049733 
L 186.143392 171.330164 
L 185.264676 125.208082 
L 177.293458 131.636828 
z
" style="fill:#59222e;"/>
    <path clip-path="url(#pc53c83da31)" d="M 206.297214 168.527892 
L 205.663164 97.97221 
L 218.759072 101.545014 
L 218.949524 172.361429 
z
" style="fill:#694914;"/>
    <path clip-path="url(#pc53c83da31)" d="M 278.223326 171.835748 
L 291.563867 175.775258 
L 298.381923 168.979275 
L 285.1304 165.114196 
z
" style="fill:#320378;"/>
    <path clip-path="url(#pc53c83da31)" d="M 291.24765 185.184478 
L 298.036935 178.33102 
L 298.381923 168.979275 
L 291.563867 175.775258 
z
" style="fill:#1b0141;"/>
    <path clip-path="url(#pc53c83da31)" d="M 170.430723 184.897786 
L 178.361455 178.049733 
L 191.031582 181.987547 
L 183.178635 188.911464 
z
" style="fill:#7f422b;"/>
    <path clip-path="url(#pc53c83da31)" d="M 165.82912 174.154745 
L 164.568355 131.016359 
L 177.365205 134.75478 
L 178.361455 178.049733 
z
" style="fill:#551e32;"/>
    <path clip-path="url(#pc53c83da31)" d="M 186.143392 171.330164 
L 184.998646 111.244659 
L 197.964766 114.888136 
L 198.736391 175.194243 
z
" style="fill:#65371f;"/>
    <path clip-path="url(#pc53c83da31)" d="M 186.143392 171.330164 
L 198.736391 175.194243 
L 197.963393 114.780836 
L 184.996609 111.137769 
z
" style="fill:#d67543;"/>
    <path clip-path="url(#pc53c83da31)" d="M 264.839875 177.282368 
L 277.971253 181.211726 
L 278.727886 153.068437 
L 265.408091 149.239815 
z
" style="fill:#87128d;"/>
    <path clip-path="url(#pc53c83da31)" d="M 165.82912 174.154745 
L 178.361455 178.049733 
L 177.293458 131.636828 
L 164.477571 127.910074 
z
" style="fill:#bc4962;"/>
    <path clip-path="url(#pc53c83da31)" d="M 198.736391 175.194243 
L 197.827832 104.186034 
L 205.663164 97.97221 
L 206.297214 168.527892 
z
" style="fill:#e09b2b;"/>
    <path clip-path="url(#pc53c83da31)" d="M 203.841786 185.968896 
L 211.467294 179.100638 
L 224.338378 183.050047 
L 216.794403 189.994506 
z
" style="fill:#808314;"/>
    <path clip-path="url(#pc53c83da31)" d="M 239.348616 122.228873 
L 252.503615 125.90158 
L 259.709791 119.565913 
L 246.640125 115.962754 
z
" style="fill:#a54253;"/>
    <path clip-path="url(#pc53c83da31)" d="M 277.971253 181.211726 
L 291.24765 185.184478 
L 291.563867 175.775258 
L 278.223326 171.835748 
z
" style="fill:#39038b;"/>
    <path clip-path="url(#pc53c83da31)" d="M 157.822766 180.928173 
L 156.375556 137.518082 
L 164.568355 131.016359 
L 165.82912 174.154745 
z
" style="fill:#b43f6a;"/>
    <path clip-path="url(#pc53c83da31)" d="M 178.361455 178.049733 
L 176.970031 117.581369 
L 184.998646 111.244659 
L 186.143392 171.330164 
z
" style="fill:#d67543;"/>
    <path clip-path="url(#pc53c83da31)" d="M 237.351973 187.043183 
L 244.670417 180.154631 
L 257.743589 184.115686 
L 250.510457 191.080779 
z
" style="fill:#876d14;"/>
    <path clip-path="url(#pc53c83da31)" d="M 239.002775 169.551023 
L 239.592368 88.875816 
L 252.963576 92.420006 
L 251.851153 173.395697 
z
" style="fill:#685d0f;"/>
    <path clip-path="url(#pc53c83da31)" d="M 265.408091 149.239815 
L 278.727886 153.068437 
L 285.694197 146.463845 
L 272.462742 142.707829 
z
" style="fill:#75107a;"/>
    <path clip-path="url(#pc53c83da31)" d="M 277.971253 181.211726 
L 278.384767 165.830903 
L 291.766397 169.748867 
L 291.24765 185.184478 
z
" style="fill:#280045;"/>
    <path clip-path="url(#pc53c83da31)" d="M 231.739835 176.23678 
L 239.002775 169.551023 
L 239.55639 93.798738 
L 232.021998 99.99655 
z
" style="fill:#695310;"/>
    <path clip-path="url(#pc53c83da31)" d="M 149.662704 187.831639 
L 157.822766 180.928173 
L 170.430723 184.897786 
L 162.346885 191.878042 
z
" style="fill:#571052;"/>
    <path clip-path="url(#pc53c83da31)" d="M 270.961723 188.120663 
L 277.971253 181.211726 
L 291.24765 185.184478 
L 284.327244 192.170297 
z
" style="fill:#330059;"/>
    <path clip-path="url(#pc53c83da31)" d="M 252.430558 131.219519 
L 265.697574 134.953272 
L 272.798705 128.512373 
L 259.618916 124.84953 
z
" style="fill:#9b355d;"/>
    <path clip-path="url(#pc53c83da31)" d="M 231.739835 176.23678 
L 232.040341 95.040036 
L 239.592368 88.875816 
L 239.002775 169.551023 
z
" style="fill:#dbc520;"/>
    <path clip-path="url(#pc53c83da31)" d="M 264.839875 177.282368 
L 265.753529 132.191782 
L 279.187926 135.957045 
L 277.971253 181.211726 
z
" style="fill:#572130;"/>
    <path clip-path="url(#pc53c83da31)" d="M 183.178635 188.911464 
L 191.031582 181.987547 
L 203.841786 185.968896 
L 196.068846 192.969946 
z
" style="fill:#844e23;"/>
    <path clip-path="url(#pc53c83da31)" d="M 270.961723 188.120663 
L 271.324672 172.644773 
L 278.384767 165.830903 
L 277.971253 181.211726 
z
" style="fill:#540193;"/>
    <path clip-path="url(#pc53c83da31)" d="M 218.949524 172.361429 
L 231.739835 176.23678 
L 232.021998 99.99655 
L 218.745244 96.403495 
z
" style="fill:#e0af22;"/>
    <path clip-path="url(#pc53c83da31)" d="M 251.851153 173.395697 
L 252.822593 102.68248 
L 266.278017 106.307243 
L 264.839875 177.282368 
z
" style="fill:#694914;"/>
    <path clip-path="url(#pc53c83da31)" d="M 211.467294 179.100638 
L 218.949524 172.361429 
L 218.759072 101.545014 
L 211.007937 107.829168 
z
" style="fill:#694914;"/>
    <path clip-path="url(#pc53c83da31)" d="M 157.822766 180.928173 
L 156.794752 150.092178 
L 169.592897 153.950636 
L 170.430723 184.897786 
z
" style="fill:#440c40;"/>
    <path clip-path="url(#pc53c83da31)" d="M 216.794403 189.994506 
L 224.338378 183.050047 
L 237.351973 187.043183 
L 229.891821 194.06512 
z
" style="fill:#818015;"/>
    <path clip-path="url(#pc53c83da31)" d="M 257.743589 184.115686 
L 258.504521 138.740331 
L 265.753529 132.191782 
L 264.839875 177.282368 
z
" style="fill:#b94565;"/>
    <path clip-path="url(#pc53c83da31)" d="M 164.477571 127.910074 
L 177.293458 131.636828 
L 185.264676 125.208082 
L 172.52718 121.552319 
z
" style="fill:#a33f55;"/>
    <path clip-path="url(#pc53c83da31)" d="M 170.430723 184.897786 
L 178.361455 178.049733 
L 177.365205 134.75478 
L 169.251213 141.329698 
z
" style="fill:#551e32;"/>
    <path clip-path="url(#pc53c83da31)" d="M 191.031582 181.987547 
L 198.736391 175.194243 
L 197.964766 114.888136 
L 190.017891 121.29649 
z
" style="fill:#65371f;"/>
    <path clip-path="url(#pc53c83da31)" d="M 244.670417 180.154631 
L 245.395376 108.986855 
L 252.822593 102.68248 
L 251.851153 173.395697 
z
" style="fill:#e09b2b;"/>
    <path clip-path="url(#pc53c83da31)" d="M 250.510457 191.080779 
L 257.743589 184.115686 
L 270.961723 188.120663 
L 263.816264 195.163579 
z
" style="fill:#742f39;"/>
    <path clip-path="url(#pc53c83da31)" d="M 205.720642 104.368227 
L 218.77634 107.96578 
L 226.354675 101.759926 
L 213.381878 98.23095 
z
" style="fill:#be7331;"/>
    <path clip-path="url(#pc53c83da31)" d="M 218.949524 172.361429 
L 218.717164 85.962506 
L 232.060792 89.514293 
L 231.739835 176.23678 
z
" style="fill:#64680e;"/>
    <path clip-path="url(#pc53c83da31)" d="M 198.736391 175.194243 
L 211.467294 179.100638 
L 211.007937 107.829168 
L 197.827832 104.186034 
z
" style="fill:#e09b2b;"/>
    <path clip-path="url(#pc53c83da31)" d="M 149.662704 187.831639 
L 148.497323 156.802761 
L 156.794752 150.092178 
L 157.822766 180.928173 
z
" style="fill:#901a88;"/>
    <path clip-path="url(#pc53c83da31)" d="M 162.346885 191.878042 
L 170.430723 184.897786 
L 183.178635 188.911464 
L 175.173234 195.969799 
z
" style="fill:#641c48;"/>
    <path clip-path="url(#pc53c83da31)" d="M 178.361455 178.049733 
L 177.025736 120.002192 
L 190.05848 123.726617 
L 191.031582 181.987547 
z
" style="fill:#633322;"/>
    <path clip-path="url(#pc53c83da31)" d="M 198.736391 175.194243 
L 197.779524 100.410588 
L 210.983508 104.038949 
L 211.467294 179.100638 
z
" style="fill:#6a5011;"/>
    <path clip-path="url(#pc53c83da31)" d="M 157.822766 180.928173 
L 170.430723 184.897786 
L 169.251213 141.329698 
L 156.375556 137.518082 
z
" style="fill:#b43f6a;"/>
    <path clip-path="url(#pc53c83da31)" d="M 178.361455 178.049733 
L 191.031582 181.987547 
L 190.017891 121.29649 
L 176.970031 117.581369 
z
" style="fill:#d67543;"/>
    <path clip-path="url(#pc53c83da31)" d="M 184.996609 111.137769 
L 197.963393 114.780836 
L 205.757741 108.496524 
L 192.871984 104.923044 
z
" style="fill:#ba653a;"/>
    <path clip-path="url(#pc53c83da31)" d="M 211.467294 179.100638 
L 210.906818 92.140114 
L 218.717164 85.962506 
L 218.949524 172.361429 
z
" style="fill:#d4dc1e;"/>
    <path clip-path="url(#pc53c83da31)" d="M 244.670417 180.154631 
L 251.851153 173.395697 
L 252.963576 92.420006 
L 245.500628 98.654444 
z
" style="fill:#685d0f;"/>
    <path clip-path="url(#pc53c83da31)" d="M 196.068846 192.969946 
L 203.841786 185.968896 
L 216.794403 189.994506 
L 209.103753 197.073984 
z
" style="fill:#876c14;"/>
    <path clip-path="url(#pc53c83da31)" d="M 284.327244 192.170297 
L 291.24765 185.184478 
L 291.766397 169.748867 
L 284.796863 176.639153 
z
" style="fill:#280045;"/>
    <path clip-path="url(#pc53c83da31)" d="M 170.430723 184.897786 
L 168.849188 126.479916 
L 177.025736 120.002192 
L 178.361455 178.049733 
z
" style="fill:#d26d48;"/>
    <path clip-path="url(#pc53c83da31)" d="M 191.031582 181.987547 
L 189.77445 106.721341 
L 197.779524 100.410588 
L 198.736391 175.194243 
z
" style="fill:#e0aa24;"/>
    <path clip-path="url(#pc53c83da31)" d="M 271.324672 172.644773 
L 284.796863 176.639153 
L 291.766397 169.748867 
L 278.384767 165.830903 
z
" style="fill:#49007f;"/>
    <path clip-path="url(#pc53c83da31)" d="M 149.662704 187.831639 
L 149.111974 173.168167 
L 161.887133 177.162255 
L 162.346885 191.878042 
z
" style="fill:#260045;"/>
    <path clip-path="url(#pc53c83da31)" d="M 229.891821 194.06512 
L 237.351973 187.043183 
L 250.510457 191.080779 
L 243.136481 198.181496 
z
" style="fill:#876517;"/>
    <path clip-path="url(#pc53c83da31)" d="M 231.739835 176.23678 
L 244.670417 180.154631 
L 245.500628 98.654444 
L 232.040341 95.040036 
z
" style="fill:#dbc520;"/>
    <path clip-path="url(#pc53c83da31)" d="M 270.961723 188.120663 
L 277.971253 181.211726 
L 279.187926 135.957045 
L 272.029773 142.579718 
z
" style="fill:#572130;"/>
    <path clip-path="url(#pc53c83da31)" d="M 270.961723 188.120663 
L 284.327244 192.170297 
L 284.796863 176.639153 
L 271.324672 172.644773 
z
" style="fill:#540193;"/>
    <path clip-path="url(#pc53c83da31)" d="M 270.961723 188.120663 
L 271.331638 172.34774 
L 284.805877 176.341047 
L 284.327244 192.170297 
z
" style="fill:#280045;"/>
    <path clip-path="url(#pc53c83da31)" d="M 141.344465 194.868925 
L 149.662704 187.831639 
L 162.346885 191.878042 
L 154.105465 198.994368 
z
" style="fill:#300158;"/>
    <path clip-path="url(#pc53c83da31)" d="M 257.743589 184.115686 
L 264.839875 177.282368 
L 266.278017 106.307243 
L 258.941488 112.683483 
z
" style="fill:#694914;"/>
    <path clip-path="url(#pc53c83da31)" d="M 231.739835 176.23678 
L 232.058172 90.222129 
L 245.549901 93.817391 
L 244.670417 180.154631 
z
" style="fill:#646610;"/>
    <path clip-path="url(#pc53c83da31)" d="M 263.816264 195.163579 
L 270.961723 188.120663 
L 284.327244 192.170297 
L 277.271882 199.292348 
z
" style="fill:#340059;"/>
    <path clip-path="url(#pc53c83da31)" d="M 170.430723 184.897786 
L 169.399331 146.800792 
L 182.386688 150.676178 
L 183.178635 188.911464 
z
" style="fill:#4e1638;"/>
    <path clip-path="url(#pc53c83da31)" d="M 141.344465 194.868925 
L 140.726412 180.114679 
L 149.111974 173.168167 
L 149.662704 187.831639 
z
" style="fill:#500192;"/>
    <path clip-path="url(#pc53c83da31)" d="M 162.346885 191.878042 
L 170.430723 184.897786 
L 169.592897 153.950636 
L 161.373975 160.737033 
z
" style="fill:#440c40;"/>
    <path clip-path="url(#pc53c83da31)" d="M 257.743589 184.115686 
L 270.961723 188.120663 
L 272.029773 142.579718 
L 258.504521 138.740331 
z
" style="fill:#b94565;"/>
    <path clip-path="url(#pc53c83da31)" d="M 175.173234 195.969799 
L 183.178635 188.911464 
L 196.068846 192.969946 
L 188.144156 200.107676 
z
" style="fill:#6d2640;"/>
    <path clip-path="url(#pc53c83da31)" d="M 263.816264 195.163579 
L 264.132547 179.292921 
L 271.331638 172.34774 
L 270.961723 188.120663 
z
" style="fill:#560093;"/>
    <path clip-path="url(#pc53c83da31)" d="M 257.743589 184.115686 
L 258.558013 135.550565 
L 272.104864 139.377879 
L 270.961723 188.120663 
z
" style="fill:#5a252c;"/>
    <path clip-path="url(#pc53c83da31)" d="M 244.670417 180.154631 
L 257.743589 184.115686 
L 258.941488 112.683483 
L 245.395376 108.986855 
z
" style="fill:#e09b2b;"/>
    <path clip-path="url(#pc53c83da31)" d="M 156.375556 137.518082 
L 169.251213 141.329698 
L 177.365205 134.75478 
L 164.568355 131.016359 
z
" style="fill:#9c375c;"/>
    <path clip-path="url(#pc53c83da31)" d="M 224.338378 183.050047 
L 224.338378 96.475493 
L 232.058172 90.222129 
L 231.739835 176.23678 
z
" style="fill:#d5d921;"/>
    <path clip-path="url(#pc53c83da31)" d="M 224.338378 183.050047 
L 231.739835 176.23678 
L 232.060792 89.514293 
L 224.338378 95.762755 
z
" style="fill:#64680e;"/>
    <path clip-path="url(#pc53c83da31)" d="M 162.346885 191.878042 
L 161.149159 153.541071 
L 169.399331 146.800792 
L 170.430723 184.897786 
z
" style="fill:#a62f77;"/>
    <path clip-path="url(#pc53c83da31)" d="M 149.662704 187.831639 
L 162.346885 191.878042 
L 161.373975 160.737033 
L 148.497323 156.802761 
z
" style="fill:#901a88;"/>
    <path clip-path="url(#pc53c83da31)" d="M 209.103753 197.073984 
L 216.794403 189.994506 
L 229.891821 194.06512 
L 222.285805 201.224351 
z
" style="fill:#876d14;"/>
    <path clip-path="url(#pc53c83da31)" d="M 191.031582 181.987547 
L 189.953685 117.452396 
L 203.174675 121.194976 
L 203.841786 185.968896 
z
" style="fill:#673d1b;"/>
    <path clip-path="url(#pc53c83da31)" d="M 183.178635 188.911464 
L 191.031582 181.987547 
L 190.05848 123.726617 
L 181.964196 130.278216 
z
" style="fill:#633322;"/>
    <path clip-path="url(#pc53c83da31)" d="M 203.841786 185.968896 
L 211.467294 179.100638 
L 210.983508 104.038949 
L 203.063724 110.42197 
z
" style="fill:#6a5011;"/>
    <path clip-path="url(#pc53c83da31)" d="M 244.670417 180.154631 
L 245.46405 102.24528 
L 259.054987 105.915402 
L 257.743589 184.115686 
z
" style="fill:#695510;"/>
    <path clip-path="url(#pc53c83da31)" d="M 250.510457 191.080779 
L 251.15484 142.207347 
L 258.558013 135.550565 
L 257.743589 184.115686 
z
" style="fill:#bf4e5e;"/>
    <path clip-path="url(#pc53c83da31)" d="M 211.467294 179.100638 
L 210.912585 93.035009 
L 224.338378 96.661226 
L 224.338378 183.050047 
z
" style="fill:#646610;"/>
    <path clip-path="url(#pc53c83da31)" d="M 243.136481 198.181496 
L 250.510457 191.080779 
L 263.816264 195.163579 
L 256.530882 202.34441 
z
" style="fill:#742f39;"/>
    <path clip-path="url(#pc53c83da31)" d="M 162.346885 191.878042 
L 161.868567 176.567983 
L 174.79174 180.605023 
L 175.173234 195.969799 
z
" style="fill:#270045;"/>
    <path clip-path="url(#pc53c83da31)" d="M 211.467294 179.100638 
L 224.338378 183.050047 
L 224.338378 95.762755 
L 210.906818 92.140114 
z
" style="fill:#d4dc1e;"/>
    <path clip-path="url(#pc53c83da31)" d="M 183.178635 188.911464 
L 181.833371 123.961934 
L 189.953685 117.452396 
L 191.031582 181.987547 
z
" style="fill:#db823a;"/>
    <path clip-path="url(#pc53c83da31)" d="M 154.105465 198.994368 
L 162.346885 191.878042 
L 175.173234 195.969799 
L 167.010898 203.166503 
z
" style="fill:#320058;"/>
    <path clip-path="url(#pc53c83da31)" d="M 170.430723 184.897786 
L 183.178635 188.911464 
L 181.964196 130.278216 
L 168.849188 126.479916 
z
" style="fill:#d26d48;"/>
    <path clip-path="url(#pc53c83da31)" d="M 191.031582 181.987547 
L 203.841786 185.968896 
L 203.063724 110.42197 
L 189.77445 106.721341 
z
" style="fill:#e0aa24;"/>
    <path clip-path="url(#pc53c83da31)" d="M 148.497323 156.802761 
L 161.373975 160.737033 
L 169.592897 153.950636 
L 156.794752 150.092178 
z
" style="fill:#7d1776;"/>
    <path clip-path="url(#pc53c83da31)" d="M 237.351973 187.043183 
L 237.865003 108.628896 
L 245.46405 102.24528 
L 244.670417 180.154631 
z
" style="fill:#dfb521;"/>
    <path clip-path="url(#pc53c83da31)" d="M 218.745244 96.403495 
L 232.021998 99.99655 
L 239.55639 93.798738 
L 226.365838 90.274933 
z
" style="fill:#c2981e;"/>
    <path clip-path="url(#pc53c83da31)" d="M 203.841786 185.968896 
L 202.949614 99.342323 
L 210.912585 93.035009 
L 211.467294 179.100638 
z
" style="fill:#d5d921;"/>
    <path clip-path="url(#pc53c83da31)" d="M 154.105465 198.994368 
L 162.346885 191.878042 
L 161.887133 177.162255 
L 153.579478 184.187371 
z
" style="fill:#260045;"/>
    <path clip-path="url(#pc53c83da31)" d="M 176.970031 117.581369 
L 190.017891 121.29649 
L 197.964766 114.888136 
L 184.998646 111.244659 
z
" style="fill:#ba653a;"/>
    <path clip-path="url(#pc53c83da31)" d="M 154.105465 198.994368 
L 153.558235 183.58937 
L 161.868567 176.567983 
L 162.346885 191.878042 
z
" style="fill:#530193;"/>
    <path clip-path="url(#pc53c83da31)" d="M 188.144156 200.107676 
L 196.068846 192.969946 
L 209.103753 197.073984 
L 201.262108 204.292457 
z
" style="fill:#742f39;"/>
    <path clip-path="url(#pc53c83da31)" d="M 277.271882 199.292348 
L 284.327244 192.170297 
L 284.805877 176.341047 
L 277.698373 183.364892 
z
" style="fill:#280045;"/>
    <path clip-path="url(#pc53c83da31)" d="M 140.726412 180.114679 
L 153.579478 184.187371 
L 161.887133 177.162255 
L 149.111974 173.168167 
z
" style="fill:#46017f;"/>
    <path clip-path="url(#pc53c83da31)" d="M 183.178635 188.911464 
L 182.272802 145.177753 
L 195.443149 149.076569 
L 196.068846 192.969946 
z
" style="fill:#551e32;"/>
    <path clip-path="url(#pc53c83da31)" d="M 197.827832 104.186034 
L 211.007937 107.829168 
L 218.759072 101.545014 
L 205.663164 97.97221 
z
" style="fill:#c28626;"/>
    <path clip-path="url(#pc53c83da31)" d="M 258.504521 138.740331 
L 272.029773 142.579718 
L 279.187926 135.957045 
L 265.753529 132.191782 
z
" style="fill:#a03c58;"/>
    <path clip-path="url(#pc53c83da31)" d="M 237.351973 187.043183 
L 244.670417 180.154631 
L 245.549901 93.817391 
L 237.920523 100.142866 
z
" style="fill:#646610;"/>
    <path clip-path="url(#pc53c83da31)" d="M 175.173234 195.969799 
L 183.178635 188.911464 
L 182.386688 150.676178 
L 174.217897 157.493314 
z
" style="fill:#4e1638;"/>
    <path clip-path="url(#pc53c83da31)" d="M 264.132547 179.292921 
L 277.698373 183.364892 
L 284.805877 176.341047 
L 271.331638 172.34774 
z
" style="fill:#4a0080;"/>
    <path clip-path="url(#pc53c83da31)" d="M 141.344465 194.868925 
L 154.105465 198.994368 
L 153.579478 184.187371 
L 140.726412 180.114679 
z
" style="fill:#500192;"/>
    <path clip-path="url(#pc53c83da31)" d="M 222.285805 201.224351 
L 229.891821 194.06512 
L 243.136481 198.181496 
L 235.617509 205.421836 
z
" style="fill:#855320;"/>
    <path clip-path="url(#pc53c83da31)" d="M 263.816264 195.163579 
L 264.109429 180.452927 
L 277.667199 184.529098 
L 277.271882 199.292348 
z
" style="fill:#260045;"/>
    <path clip-path="url(#pc53c83da31)" d="M 263.816264 195.163579 
L 277.271882 199.292348 
L 277.698373 183.364892 
L 264.132547 179.292921 
z
" style="fill:#560093;"/>
    <path clip-path="url(#pc53c83da31)" d="M 175.173234 195.969799 
L 174.080485 151.95902 
L 182.272802 145.177753 
L 183.178635 188.911464 
z
" style="fill:#b43f6a;"/>
    <path clip-path="url(#pc53c83da31)" d="M 224.338378 183.050047 
L 224.338378 97.625547 
L 237.912969 101.297521 
L 237.351973 187.043183 
z
" style="fill:#656410;"/>
    <path clip-path="url(#pc53c83da31)" d="M 263.816264 195.163579 
L 270.961723 188.120663 
L 272.104864 139.377879 
L 264.793825 146.110877 
z
" style="fill:#5a252c;"/>
    <path clip-path="url(#pc53c83da31)" d="M 224.338378 183.050047 
L 237.351973 187.043183 
L 237.920523 100.142866 
L 224.338378 96.475493 
z
" style="fill:#d5d921;"/>
    <path clip-path="url(#pc53c83da31)" d="M 256.530882 202.34441 
L 263.816264 195.163579 
L 277.271882 199.292348 
L 270.077576 206.554656 
z
" style="fill:#300158;"/>
    <path clip-path="url(#pc53c83da31)" d="M 175.173234 195.969799 
L 174.78657 180.396794 
L 187.857886 184.478938 
L 188.144156 200.107676 
z
" style="fill:#280045;"/>
    <path clip-path="url(#pc53c83da31)" d="M 162.346885 191.878042 
L 175.173234 195.969799 
L 174.217897 157.493314 
L 161.149159 153.541071 
z
" style="fill:#a62f77;"/>
    <path clip-path="url(#pc53c83da31)" d="M 196.068846 192.969946 
L 203.841786 185.968896 
L 203.174675 121.194976 
L 195.139559 127.779409 
z
" style="fill:#673d1b;"/>
    <path clip-path="url(#pc53c83da31)" d="M 256.530882 202.34441 
L 256.772304 187.542497 
L 264.109429 180.452927 
L 263.816264 195.163579 
z
" style="fill:#500192;"/>
    <path clip-path="url(#pc53c83da31)" d="M 167.010898 203.166503 
L 175.173234 195.969799 
L 188.144156 200.107676 
L 180.063228 207.386128 
z
" style="fill:#330059;"/>
    <path clip-path="url(#pc53c83da31)" d="M 250.510457 191.080779 
L 257.743589 184.115686 
L 259.054987 105.915402 
L 251.548201 112.372756 
z
" style="fill:#695510;"/>
    <path clip-path="url(#pc53c83da31)" d="M 216.794403 189.994506 
L 216.467813 104.012593 
L 224.338378 97.625547 
L 224.338378 183.050047 
z
" style="fill:#d6d422;"/>
    <path clip-path="url(#pc53c83da31)" d="M 250.510457 191.080779 
L 263.816264 195.163579 
L 264.793825 146.110877 
L 251.15484 142.207347 
z
" style="fill:#bf4e5e;"/>
    <path clip-path="url(#pc53c83da31)" d="M 250.510457 191.080779 
L 251.156055 142.115166 
L 264.795669 146.018346 
L 263.816264 195.163579 
z
" style="fill:#5a252c;"/>
    <path clip-path="url(#pc53c83da31)" d="M 203.841786 185.968896 
L 203.041433 108.257602 
L 216.498123 111.992384 
L 216.794403 189.994506 
z
" style="fill:#695510;"/>
    <path clip-path="url(#pc53c83da31)" d="M 216.794403 189.994506 
L 224.338378 183.050047 
L 224.338378 96.661226 
L 216.464125 103.041575 
z
" style="fill:#646610;"/>
    <path clip-path="url(#pc53c83da31)" d="M 167.010898 203.166503 
L 175.173234 195.969799 
L 174.79174 180.605023 
L 166.561674 187.706337 
z
" style="fill:#270045;"/>
    <path clip-path="url(#pc53c83da31)" d="M 167.010898 203.166503 
L 166.555586 187.496799 
L 174.78657 180.396794 
L 175.173234 195.969799 
z
" style="fill:#540193;"/>
    <path clip-path="url(#pc53c83da31)" d="M 201.262108 204.292457 
L 209.103753 197.073984 
L 222.285805 201.224351 
L 214.529606 208.524945 
z
" style="fill:#793733;"/>
    <path clip-path="url(#pc53c83da31)" d="M 237.351973 187.043183 
L 237.841667 112.195676 
L 251.500988 115.953646 
L 250.510457 191.080779 
z
" style="fill:#6a4f12;"/>
    <path clip-path="url(#pc53c83da31)" d="M 183.178635 188.911464 
L 196.068846 192.969946 
L 195.139559 127.779409 
L 181.833371 123.961934 
z
" style="fill:#db823a;"/>
    <path clip-path="url(#pc53c83da31)" d="M 153.558235 183.58937 
L 166.561674 187.706337 
L 174.79174 180.605023 
L 161.868567 176.567983 
z
" style="fill:#48017f;"/>
    <path clip-path="url(#pc53c83da31)" d="M 237.351973 187.043183 
L 250.510457 191.080779 
L 251.548201 112.372756 
L 237.865003 108.628896 
z
" style="fill:#dfb521;"/>
    <path clip-path="url(#pc53c83da31)" d="M 243.136481 198.181496 
L 243.60481 148.904183 
L 251.156055 142.115166 
L 250.510457 191.080779 
z
" style="fill:#bf4e5e;"/>
    <path clip-path="url(#pc53c83da31)" d="M 232.040341 95.040036 
L 245.500628 98.654444 
L 252.963576 92.420006 
L 239.592368 88.875816 
z
" style="fill:#bfab1c;"/>
    <path clip-path="url(#pc53c83da31)" d="M 196.068846 192.969946 
L 194.953881 114.753907 
L 203.041433 108.257602 
L 203.841786 185.968896 
z
" style="fill:#dfb321;"/>
    <path clip-path="url(#pc53c83da31)" d="M 203.841786 185.968896 
L 216.794403 189.994506 
L 216.464125 103.041575 
L 202.949614 99.342323 
z
" style="fill:#d5d921;"/>
    <path clip-path="url(#pc53c83da31)" d="M 235.617509 205.421836 
L 243.136481 198.181496 
L 256.530882 202.34441 
L 249.101427 209.667246 
z
" style="fill:#6f293d;"/>
    <path clip-path="url(#pc53c83da31)" d="M 154.105465 198.994368 
L 167.010898 203.166503 
L 166.561674 187.706337 
L 153.558235 183.58937 
z
" style="fill:#530193;"/>
    <path clip-path="url(#pc53c83da31)" d="M 196.068846 192.969946 
L 195.370441 143.976006 
L 208.725213 147.900203 
L 209.103753 197.073984 
z
" style="fill:#5a252c;"/>
    <path clip-path="url(#pc53c83da31)" d="M 245.395376 108.986855 
L 258.941488 112.683483 
L 266.278017 106.307243 
L 252.822593 102.68248 
z
" style="fill:#c28626;"/>
    <path clip-path="url(#pc53c83da31)" d="M 229.891821 194.06512 
L 230.102894 118.732318 
L 237.841667 112.195676 
L 237.351973 187.043183 
z
" style="fill:#e0a725;"/>
    <path clip-path="url(#pc53c83da31)" d="M 161.149159 153.541071 
L 174.217897 157.493314 
L 182.386688 150.676178 
L 169.399331 146.800792 
z
" style="fill:#902967;"/>
    <path clip-path="url(#pc53c83da31)" d="M 168.849188 126.479916 
L 181.964196 130.278216 
L 190.05848 123.726617 
L 177.025736 120.002192 
z
" style="fill:#b65e3e;"/>
    <path clip-path="url(#pc53c83da31)" d="M 188.144156 200.107676 
L 196.068846 192.969946 
L 195.443149 149.076569 
L 187.335065 155.935817 
z
" style="fill:#551e32;"/>
    <path clip-path="url(#pc53c83da31)" d="M 188.144156 200.107676 
L 187.869579 185.117325 
L 201.086047 189.248425 
L 201.262108 204.292457 
z
" style="fill:#270045;"/>
    <path clip-path="url(#pc53c83da31)" d="M 188.144156 200.107676 
L 187.241023 150.801655 
L 195.370441 143.976006 
L 196.068846 192.969946 
z
" style="fill:#bf4e5e;"/>
    <path clip-path="url(#pc53c83da31)" d="M 270.077576 206.554656 
L 277.271882 199.292348 
L 277.667199 184.529098 
L 270.422553 191.699715 
z
" style="fill:#260045;"/>
    <path clip-path="url(#pc53c83da31)" d="M 180.063228 207.386128 
L 188.144156 200.107676 
L 201.262108 204.292457 
L 193.264978 211.654059 
z
" style="fill:#310058;"/>
    <path clip-path="url(#pc53c83da31)" d="M 175.173234 195.969799 
L 188.144156 200.107676 
L 187.335065 155.935817 
L 174.080485 151.95902 
z
" style="fill:#b43f6a;"/>
    <path clip-path="url(#pc53c83da31)" d="M 229.891821 194.06512 
L 237.351973 187.043183 
L 237.912969 101.297521 
L 230.13364 107.758922 
z
" style="fill:#656410;"/>
    <path clip-path="url(#pc53c83da31)" d="M 256.772304 187.542497 
L 270.422553 191.699715 
L 277.667199 184.529098 
L 264.109429 180.452927 
z
" style="fill:#46017f;"/>
    <path clip-path="url(#pc53c83da31)" d="M 216.794403 189.994506 
L 216.496031 111.441503 
L 230.112742 115.2175 
L 229.891821 194.06512 
z
" style="fill:#695510;"/>
    <path clip-path="url(#pc53c83da31)" d="M 180.063228 207.386128 
L 179.724011 192.30264 
L 187.869579 185.117325 
L 188.144156 200.107676 
z
" style="fill:#520192;"/>
    <path clip-path="url(#pc53c83da31)" d="M 180.063228 207.386128 
L 188.144156 200.107676 
L 187.857886 184.478938 
L 179.709564 191.660237 
z
" style="fill:#280045;"/>
    <path clip-path="url(#pc53c83da31)" d="M 214.529606 208.524945 
L 222.285805 201.224351 
L 235.617509 205.421836 
L 227.94922 212.80596 
z
" style="fill:#6b2442;"/>
    <path clip-path="url(#pc53c83da31)" d="M 256.530882 202.34441 
L 256.763463 188.084545 
L 270.40992 192.243727 
L 270.077576 206.554656 
z
" style="fill:#250045;"/>
    <path clip-path="url(#pc53c83da31)" d="M 256.530882 202.34441 
L 270.077576 206.554656 
L 270.422553 191.699715 
L 256.772304 187.542497 
z
" style="fill:#500192;"/>
    <path clip-path="url(#pc53c83da31)" d="M 251.15484 142.207347 
L 264.793825 146.110877 
L 272.104864 139.377879 
L 258.558013 135.550565 
z
" style="fill:#a64452;"/>
    <path clip-path="url(#pc53c83da31)" d="M 166.555586 187.496799 
L 179.709564 191.660237 
L 187.857886 184.478938 
L 174.78657 180.396794 
z
" style="fill:#49007f;"/>
    <path clip-path="url(#pc53c83da31)" d="M 189.77445 106.721341 
L 203.063724 110.42197 
L 210.983508 104.038949 
L 197.779524 100.410588 
z
" style="fill:#c29320;"/>
    <path clip-path="url(#pc53c83da31)" d="M 216.794403 189.994506 
L 229.891821 194.06512 
L 230.13364 107.758922 
L 216.467813 104.012593 
z
" style="fill:#d6d422;"/>
    <path clip-path="url(#pc53c83da31)" d="M 256.530882 202.34441 
L 263.816264 195.163579 
L 264.795669 146.018346 
L 257.33756 152.885875 
z
" style="fill:#5a252c;"/>
    <path clip-path="url(#pc53c83da31)" d="M 209.103753 197.073984 
L 216.794403 189.994506 
L 216.498123 111.992384 
L 208.499385 118.564344 
z
" style="fill:#695510;"/>
    <path clip-path="url(#pc53c83da31)" d="M 209.103753 197.073984 
L 208.495116 118.009666 
L 216.496031 111.441503 
L 216.794403 189.994506 
z
" style="fill:#dfb521;"/>
    <path clip-path="url(#pc53c83da31)" d="M 249.101427 209.667246 
L 256.530882 202.34441 
L 270.077576 206.554656 
L 262.740181 213.961405 
z
" style="fill:#300158;"/>
    <path clip-path="url(#pc53c83da31)" d="M 167.010898 203.166503 
L 180.063228 207.386128 
L 179.709564 191.660237 
L 166.555586 187.496799 
z
" style="fill:#540193;"/>
    <path clip-path="url(#pc53c83da31)" d="M 243.136481 198.181496 
L 250.510457 191.080779 
L 251.500988 115.953646 
L 243.855122 122.566422 
z
" style="fill:#6a4f12;"/>
    <path clip-path="url(#pc53c83da31)" d="M 229.891821 194.06512 
L 230.080272 126.806261 
L 243.778086 130.672164 
L 243.136481 198.181496 
z
" style="fill:#684119;"/>
    <path clip-path="url(#pc53c83da31)" d="M 249.101427 209.667246 
L 249.282114 195.318786 
L 256.763463 188.084545 
L 256.530882 202.34441 
z
" style="fill:#4f0192;"/>
    <path clip-path="url(#pc53c83da31)" d="M 210.906818 92.140114 
L 224.338378 95.762755 
L 232.060792 89.514293 
L 218.717164 85.962506 
z
" style="fill:#b8bf1a;"/>
    <path clip-path="url(#pc53c83da31)" d="M 243.136481 198.181496 
L 243.571473 152.411823 
L 257.280132 156.406875 
L 256.530882 202.34441 
z
" style="fill:#572030;"/>
    <path clip-path="url(#pc53c83da31)" d="M 201.262108 204.292457 
L 201.102934 190.691382 
L 214.461559 194.875168 
L 214.529606 208.524945 
z
" style="fill:#240144;"/>
    <path clip-path="url(#pc53c83da31)" d="M 209.103753 197.073984 
L 208.692602 143.663877 
L 222.230089 147.617259 
L 222.285805 201.224351 
z
" style="fill:#5f2b28;"/>
    <path clip-path="url(#pc53c83da31)" d="M 243.136481 198.181496 
L 256.530882 202.34441 
L 257.33756 152.885875 
L 243.60481 148.904183 
z
" style="fill:#bf4e5e;"/>
    <path clip-path="url(#pc53c83da31)" d="M 196.068846 192.969946 
L 209.103753 197.073984 
L 208.499385 118.564344 
L 194.953881 114.753907 
z
" style="fill:#dfb321;"/>
    <path clip-path="url(#pc53c83da31)" d="M 201.262108 204.292457 
L 209.103753 197.073984 
L 208.725213 147.900203 
L 200.682954 154.804998 
z
" style="fill:#5a252c;"/>
    <path clip-path="url(#pc53c83da31)" d="M 193.264978 211.654059 
L 201.262108 204.292457 
L 214.529606 208.524945 
L 206.61873 215.971129 
z
" style="fill:#2e0157;"/>
    <path clip-path="url(#pc53c83da31)" d="M 229.891821 194.06512 
L 243.136481 198.181496 
L 243.855122 122.566422 
L 230.102894 118.732318 
z
" style="fill:#e0a725;"/>
    <path clip-path="url(#pc53c83da31)" d="M 222.285805 201.224351 
L 222.215449 133.530817 
L 230.080272 126.806261 
L 229.891821 194.06512 
z
" style="fill:#dd8936;"/>
    <path clip-path="url(#pc53c83da31)" d="M 235.617509 205.421836 
L 235.881136 159.360881 
L 243.571473 152.411823 
L 243.136481 198.181496 
z
" style="fill:#b84466;"/>
    <path clip-path="url(#pc53c83da31)" d="M 193.264978 211.654059 
L 193.048503 197.968487 
L 201.102934 190.691382 
L 201.262108 204.292457 
z
" style="fill:#4c0191;"/>
    <path clip-path="url(#pc53c83da31)" d="M 201.262108 204.292457 
L 200.633047 150.54052 
L 208.692602 143.663877 
L 209.103753 197.073984 
z
" style="fill:#c95c54;"/>
    <path clip-path="url(#pc53c83da31)" d="M 174.080485 151.95902 
L 187.335065 155.935817 
L 195.443149 149.076569 
L 182.272802 145.177753 
z
" style="fill:#9c375c;"/>
    <path clip-path="url(#pc53c83da31)" d="M 193.264978 211.654059 
L 201.262108 204.292457 
L 201.086047 189.248425 
L 193.025535 196.516457 
z
" style="fill:#270045;"/>
    <path clip-path="url(#pc53c83da31)" d="M 181.833371 123.961934 
L 195.139559 127.779409 
L 203.174675 121.194976 
L 189.953685 117.452396 
z
" style="fill:#be7033;"/>
    <path clip-path="url(#pc53c83da31)" d="M 227.94922 212.80596 
L 235.617509 205.421836 
L 249.101427 209.667246 
L 241.523583 217.136342 
z
" style="fill:#4f0956;"/>
    <path clip-path="url(#pc53c83da31)" d="M 222.285805 201.224351 
L 222.241435 158.533223 
L 235.862744 162.574374 
L 235.617509 205.421836 
z
" style="fill:#531c33;"/>
    <path clip-path="url(#pc53c83da31)" d="M 188.144156 200.107676 
L 201.262108 204.292457 
L 200.682954 154.804998 
L 187.241023 150.801655 
z
" style="fill:#bf4e5e;"/>
    <path clip-path="url(#pc53c83da31)" d="M 179.724011 192.30264 
L 193.025535 196.516457 
L 201.086047 189.248425 
L 187.869579 185.117325 
z
" style="fill:#47017f;"/>
    <path clip-path="url(#pc53c83da31)" d="M 222.285805 201.224351 
L 229.891821 194.06512 
L 230.112742 115.2175 
L 222.203322 121.862623 
z
" style="fill:#695510;"/>
    <path clip-path="url(#pc53c83da31)" d="M 180.063228 207.386128 
L 193.264978 211.654059 
L 193.025535 196.516457 
L 179.724011 192.30264 
z
" style="fill:#520192;"/>
    <path clip-path="url(#pc53c83da31)" d="M 214.529606 208.524945 
L 214.482618 199.09941 
L 227.966617 203.346757 
L 227.94922 212.80596 
z
" style="fill:#1b0141;"/>
    <path clip-path="url(#pc53c83da31)" d="M 235.617509 205.421836 
L 235.775851 177.756374 
L 249.451075 181.901563 
L 249.101427 209.667246 
z
" style="fill:#3e0743;"/>
    <path clip-path="url(#pc53c83da31)" d="M 224.338378 96.475493 
L 237.920523 100.142866 
L 245.549901 93.817391 
L 232.058172 90.222129 
z
" style="fill:#b9bc1d;"/>
    <path clip-path="url(#pc53c83da31)" d="M 214.529606 208.524945 
L 214.31543 165.562546 
L 222.241435 158.533223 
L 222.285805 201.224351 
z
" style="fill:#b03b6d;"/>
    <path clip-path="url(#pc53c83da31)" d="M 262.740181 213.961405 
L 270.077576 206.554656 
L 270.40992 192.243727 
L 263.022006 199.561473 
z
" style="fill:#250045;"/>
    <path clip-path="url(#pc53c83da31)" d="M 249.282114 195.318786 
L 263.022006 199.561473 
L 270.40992 192.243727 
L 256.763463 188.084545 
z
" style="fill:#44017e;"/>
    <path clip-path="url(#pc53c83da31)" d="M 249.101427 209.667246 
L 249.218349 200.38237 
L 262.922547 204.64336 
L 262.740181 213.961405 
z
" style="fill:#1a0241;"/>
    <path clip-path="url(#pc53c83da31)" d="M 209.103753 197.073984 
L 222.285805 201.224351 
L 222.203322 121.862623 
L 208.495116 118.009666 
z
" style="fill:#dfb521;"/>
    <path clip-path="url(#pc53c83da31)" d="M 206.61873 215.971129 
L 206.532995 206.487183 
L 214.482618 199.09941 
L 214.529606 208.524945 
z
" style="fill:#39038b;"/>
    <path clip-path="url(#pc53c83da31)" d="M 237.865003 108.628896 
L 251.548201 112.372756 
L 259.054987 105.915402 
L 245.46405 102.24528 
z
" style="fill:#c19d1d;"/>
    <path clip-path="url(#pc53c83da31)" d="M 227.94922 212.80596 
L 228.000421 184.966609 
L 235.775851 177.756374 
L 235.617509 205.421836 
z
" style="fill:#820e8f;"/>
    <path clip-path="url(#pc53c83da31)" d="M 206.61873 215.971129 
L 214.529606 208.524945 
L 227.94922 212.80596 
L 220.127123 220.338193 
z
" style="fill:#230254;"/>
    <path clip-path="url(#pc53c83da31)" d="M 235.617509 205.421836 
L 243.136481 198.181496 
L 243.778086 130.672164 
L 236.006396 137.475526 
z
" style="fill:#684119;"/>
    <path clip-path="url(#pc53c83da31)" d="M 249.101427 209.667246 
L 262.740181 213.961405 
L 263.022006 199.561473 
L 249.282114 195.318786 
z
" style="fill:#4f0192;"/>
    <path clip-path="url(#pc53c83da31)" d="M 249.101427 209.667246 
L 256.530882 202.34441 
L 257.280132 156.406875 
L 249.683596 163.436967 
z
" style="fill:#572030;"/>
    <path clip-path="url(#pc53c83da31)" d="M 206.61873 215.971129 
L 214.529606 208.524945 
L 214.461559 194.875168 
L 206.494569 202.23647 
z
" style="fill:#240144;"/>
    <path clip-path="url(#pc53c83da31)" d="M 243.60481 148.904183 
L 257.33756 152.885875 
L 264.795669 146.018346 
L 251.156055 142.115166 
z
" style="fill:#a64452;"/>
    <path clip-path="url(#pc53c83da31)" d="M 214.529606 208.524945 
L 222.285805 201.224351 
L 222.230089 147.617259 
L 214.260652 154.574274 
z
" style="fill:#5f2b28;"/>
    <path clip-path="url(#pc53c83da31)" d="M 241.523583 217.136342 
L 241.605539 207.79392 
L 249.218349 200.38237 
L 249.101427 209.667246 
z
" style="fill:#38038a;"/>
    <path clip-path="url(#pc53c83da31)" d="M 193.048503 197.968487 
L 206.494569 202.23647 
L 214.461559 194.875168 
L 201.102934 190.691382 
z
" style="fill:#42017e;"/>
    <path clip-path="url(#pc53c83da31)" d="M 241.523583 217.136342 
L 249.101427 209.667246 
L 262.740181 213.961405 
L 255.255385 221.516949 
z
" style="fill:#220253;"/>
    <path clip-path="url(#pc53c83da31)" d="M 227.94922 212.80596 
L 227.956299 208.957233 
L 241.557466 213.273918 
L 241.523583 217.136342 
z
" style="fill:#0e023c;"/>
    <path clip-path="url(#pc53c83da31)" d="M 202.949614 99.342323 
L 216.464125 103.041575 
L 224.338378 96.661226 
L 210.912585 93.035009 
z
" style="fill:#b9bc1d;"/>
    <path clip-path="url(#pc53c83da31)" d="M 222.285805 201.224351 
L 235.617509 205.421836 
L 236.006396 137.475526 
L 222.215449 133.530817 
z
" style="fill:#dd8936;"/>
    <path clip-path="url(#pc53c83da31)" d="M 235.617509 205.421836 
L 249.101427 209.667246 
L 249.683596 163.436967 
L 235.881136 159.360881 
z
" style="fill:#b84466;"/>
    <path clip-path="url(#pc53c83da31)" d="M 193.264978 211.654059 
L 206.61873 215.971129 
L 206.494569 202.23647 
L 193.048503 197.968487 
z
" style="fill:#4c0191;"/>
    <path clip-path="url(#pc53c83da31)" d="M 201.262108 204.292457 
L 214.529606 208.524945 
L 214.260652 154.574274 
L 200.633047 150.54052 
z
" style="fill:#c95c54;"/>
    <path clip-path="url(#pc53c83da31)" d="M 187.241023 150.801655 
L 200.682954 154.804998 
L 208.725213 147.900203 
L 195.370441 143.976006 
z
" style="fill:#a64452;"/>
    <path clip-path="url(#pc53c83da31)" d="M 227.94922 212.80596 
L 235.617509 205.421836 
L 235.862744 162.574374 
L 228.028525 169.685886 
z
" style="fill:#531c33;"/>
    <path clip-path="url(#pc53c83da31)" d="M 220.127123 220.338193 
L 220.118784 216.465705 
L 227.956299 208.957233 
L 227.94922 212.80596 
z
" style="fill:#1e057f;"/>
    <path clip-path="url(#pc53c83da31)" d="M 206.532995 206.487183 
L 220.106628 210.820319 
L 227.966617 203.346757 
L 214.482618 199.09941 
z
" style="fill:#320378;"/>
    <path clip-path="url(#pc53c83da31)" d="M 220.127123 220.338193 
L 227.94922 212.80596 
L 227.966617 203.346757 
L 220.106628 210.820319 
z
" style="fill:#1b0141;"/>
    <path clip-path="url(#pc53c83da31)" d="M 241.523583 217.136342 
L 249.101427 209.667246 
L 249.451075 181.901563 
L 241.768691 189.19595 
z
" style="fill:#3e0743;"/>
    <path clip-path="url(#pc53c83da31)" d="M 220.127123 220.338193 
L 227.94922 212.80596 
L 241.523583 217.136342 
L 233.792858 224.756123 
z
" style="fill:#12034d;"/>
    <path clip-path="url(#pc53c83da31)" d="M 214.529606 208.524945 
L 227.94922 212.80596 
L 228.028525 169.685886 
L 214.31543 165.562546 
z
" style="fill:#b03b6d;"/>
    <path clip-path="url(#pc53c83da31)" d="M 241.605539 207.79392 
L 255.403689 212.141101 
L 262.922547 204.64336 
L 249.218349 200.38237 
z
" style="fill:#300378;"/>
    <path clip-path="url(#pc53c83da31)" d="M 241.523583 217.136342 
L 241.532553 216.113789 
L 255.271617 220.490762 
L 255.255385 221.516949 
z
" style="fill:#050338;"/>
    <path clip-path="url(#pc53c83da31)" d="M 255.255385 221.516949 
L 262.740181 213.961405 
L 262.922547 204.64336 
L 255.403689 212.141101 
z
" style="fill:#1a0241;"/>
    <path clip-path="url(#pc53c83da31)" d="M 216.467813 104.012593 
L 230.13364 107.758922 
L 237.912969 101.297521 
L 224.338378 97.625547 
z
" style="fill:#bab81e;"/>
    <path clip-path="url(#pc53c83da31)" d="M 206.61873 215.971129 
L 220.127123 220.338193 
L 220.106628 210.820319 
L 206.532995 206.487183 
z
" style="fill:#39038b;"/>
    <path clip-path="url(#pc53c83da31)" d="M 194.953881 114.753907 
L 208.499385 118.564344 
L 216.498123 111.992384 
L 203.041433 108.257602 
z
" style="fill:#c29c1d;"/>
    <path clip-path="url(#pc53c83da31)" d="M 220.118784 216.465705 
L 233.811688 220.869836 
L 241.557466 213.273918 
L 227.956299 208.957233 
z
" style="fill:#1a046e;"/>
    <path clip-path="url(#pc53c83da31)" d="M 230.102894 118.732318 
L 243.855122 122.566422 
L 251.500988 115.953646 
L 237.841667 112.195676 
z
" style="fill:#c29121;"/>
    <path clip-path="url(#pc53c83da31)" d="M 227.94922 212.80596 
L 241.523583 217.136342 
L 241.768691 189.19595 
L 228.000421 184.966609 
z
" style="fill:#820e8f;"/>
    <path clip-path="url(#pc53c83da31)" d="M 241.523583 217.136342 
L 255.255385 221.516949 
L 255.403689 212.141101 
L 241.605539 207.79392 
z
" style="fill:#38038a;"/>
    <path clip-path="url(#pc53c83da31)" d="M 233.792858 224.756123 
L 233.797843 223.727268 
L 241.532553 216.113789 
L 241.523583 217.136342 
z
" style="fill:#0b0777;"/>
    <path clip-path="url(#pc53c83da31)" d="M 235.881136 159.360881 
L 249.683596 163.436967 
L 257.280132 156.406875 
L 243.571473 152.411823 
z
" style="fill:#a03b58;"/>
    <path clip-path="url(#pc53c83da31)" d="M 233.792858 224.756123 
L 241.523583 217.136342 
L 241.557466 213.273918 
L 233.811688 220.869836 
z
" style="fill:#0e023c;"/>
    <path clip-path="url(#pc53c83da31)" d="M 228.000421 184.966609 
L 241.768691 189.19595 
L 249.451075 181.901563 
L 235.775851 177.756374 
z
" style="fill:#710d7c;"/>
    <path clip-path="url(#pc53c83da31)" d="M 200.633047 150.54052 
L 214.260652 154.574274 
L 222.230089 147.617259 
L 208.692602 143.663877 
z
" style="fill:#ae4f49;"/>
    <path clip-path="url(#pc53c83da31)" d="M 233.792858 224.756123 
L 241.523583 217.136342 
L 255.255385 221.516949 
L 247.618703 229.225814 
z
" style="fill:#070448;"/>
    <path clip-path="url(#pc53c83da31)" d="M 214.31543 165.562546 
L 228.028525 169.685886 
L 235.862744 162.574374 
L 222.241435 158.533223 
z
" style="fill:#99335f;"/>
    <path clip-path="url(#pc53c83da31)" d="M 220.127123 220.338193 
L 233.792858 224.756123 
L 233.811688 220.869836 
L 220.118784 216.465705 
z
" style="fill:#1e057f;"/>
    <path clip-path="url(#pc53c83da31)" d="M 233.797843 223.727268 
L 247.631049 228.193299 
L 255.271617 220.490762 
L 241.532553 216.113789 
z
" style="fill:#0a0667;"/>
    <path clip-path="url(#pc53c83da31)" d="M 208.495116 118.009666 
L 222.203322 121.862623 
L 230.112742 115.2175 
L 216.496031 111.441503 
z
" style="fill:#c19d1d;"/>
    <path clip-path="url(#pc53c83da31)" d="M 222.215449 133.530817 
L 236.006396 137.475526 
L 243.778086 130.672164 
L 230.080272 126.806261 
z
" style="fill:#bf772f;"/>
    <path clip-path="url(#pc53c83da31)" d="M 247.618703 229.225814 
L 255.255385 221.516949 
L 255.271617 220.490762 
L 247.631049 228.193299 
z
" style="fill:#050338;"/>
    <path clip-path="url(#pc53c83da31)" d="M 233.792858 224.756123 
L 247.618703 229.225814 
L 247.631049 228.193299 
L 233.797843 223.727268 
z
" style="fill:#0b0777;"/>
   </g>
   <g id="text_15">
    <!-- W45__H25__A090_bars_extracted.txt -->
    <g transform="translate(110.101875 28.56)scale(0.12 -0.12)">
     <defs>
      <path d="M 3.328125 72.90625 
L 13.28125 72.90625 
L 28.609375 11.28125 
L 43.890625 72.90625 
L 54.984375 72.90625 
L 70.3125 11.28125 
L 85.59375 72.90625 
L 95.609375 72.90625 
L 77.296875 0 
L 64.890625 0 
L 49.515625 63.28125 
L 33.984375 0 
L 21.578125 0 
z
" id="DejaVuSans-87"/>
      <path d="M 10.796875 72.90625 
L 49.515625 72.90625 
L 49.515625 64.59375 
L 19.828125 64.59375 
L 19.828125 46.734375 
Q 21.96875 47.46875 24.109375 47.828125 
Q 26.265625 48.1875 28.421875 48.1875 
Q 40.625 48.1875 47.75 41.5 
Q 54.890625 34.8125 54.890625 23.390625 
Q 54.890625 11.625 47.5625 5.09375 
Q 40.234375 -1.421875 26.90625 -1.421875 
Q 22.3125 -1.421875 17.546875 -0.640625 
Q 12.796875 0.140625 7.71875 1.703125 
L 7.71875 11.625 
Q 12.109375 9.234375 16.796875 8.0625 
Q 21.484375 6.890625 26.703125 6.890625 
Q 35.15625 6.890625 40.078125 11.328125 
Q 45.015625 15.765625 45.015625 23.390625 
Q 45.015625 31 40.078125 35.4375 
Q 35.15625 39.890625 26.703125 39.890625 
Q 22.75 39.890625 18.8125 39.015625 
Q 14.890625 38.140625 10.796875 36.28125 
z
" id="DejaVuSans-53"/>
      <path d="M 50.984375 -16.609375 
L 50.984375 -23.578125 
L -0.984375 -23.578125 
L -0.984375 -16.609375 
z
" id="DejaVuSans-95"/>
      <path d="M 9.8125 72.90625 
L 19.671875 72.90625 
L 19.671875 43.015625 
L 55.515625 43.015625 
L 55.515625 72.90625 
L 65.375 72.90625 
L 65.375 0 
L 55.515625 0 
L 55.515625 34.71875 
L 19.671875 34.71875 
L 19.671875 0 
L 9.8125 0 
z
" id="DejaVuSans-72"/>
      <path d="M 34.1875 63.1875 
L 20.796875 26.90625 
L 47.609375 26.90625 
z
M 28.609375 72.90625 
L 39.796875 72.90625 
L 67.578125 0 
L 57.328125 0 
L 50.6875 18.703125 
L 17.828125 18.703125 
L 11.1875 0 
L 0.78125 0 
z
" id="DejaVuSans-65"/>
      <path d="M 10.984375 1.515625 
L 10.984375 10.5 
Q 14.703125 8.734375 18.5 7.8125 
Q 22.3125 6.890625 25.984375 6.890625 
Q 35.75 6.890625 40.890625 13.453125 
Q 46.046875 20.015625 46.78125 33.40625 
Q 43.953125 29.203125 39.59375 26.953125 
Q 35.25 24.703125 29.984375 24.703125 
Q 19.046875 24.703125 12.671875 31.3125 
Q 6.296875 37.9375 6.296875 49.421875 
Q 6.296875 60.640625 12.9375 67.421875 
Q 19.578125 74.21875 30.609375 74.21875 
Q 43.265625 74.21875 49.921875 64.515625 
Q 56.59375 54.828125 56.59375 36.375 
Q 56.59375 19.140625 48.40625 8.859375 
Q 40.234375 -1.421875 26.421875 -1.421875 
Q 22.703125 -1.421875 18.890625 -0.6875 
Q 15.09375 0.046875 10.984375 1.515625 
z
M 30.609375 32.421875 
Q 37.25 32.421875 41.125 36.953125 
Q 45.015625 41.5 45.015625 49.421875 
Q 45.015625 57.28125 41.125 61.84375 
Q 37.25 66.40625 30.609375 66.40625 
Q 23.96875 66.40625 20.09375 61.84375 
Q 16.21875 57.28125 16.21875 49.421875 
Q 16.21875 41.5 20.09375 36.953125 
Q 23.96875 32.421875 30.609375 32.421875 
z
" id="DejaVuSans-57"/>
      <path d="M 48.6875 27.296875 
Q 48.6875 37.203125 44.609375 42.84375 
Q 40.53125 48.484375 33.40625 48.484375 
Q 26.265625 48.484375 22.1875 42.84375 
Q 18.109375 37.203125 18.109375 27.296875 
Q 18.109375 17.390625 22.1875 11.75 
Q 26.265625 6.109375 33.40625 6.109375 
Q 40.53125 6.109375 44.609375 11.75 
Q 48.6875 17.390625 48.6875 27.296875 
z
M 18.109375 46.390625 
Q 20.953125 51.265625 25.265625 53.625 
Q 29.59375 56 35.59375 56 
Q 45.5625 56 51.78125 48.09375 
Q 58.015625 40.1875 58.015625 27.296875 
Q 58.015625 14.40625 51.78125 6.484375 
Q 45.5625 -1.421875 35.59375 -1.421875 
Q 29.59375 -1.421875 25.265625 0.953125 
Q 20.953125 3.328125 18.109375 8.203125 
L 18.109375 0 
L 9.078125 0 
L 9.078125 75.984375 
L 18.109375 75.984375 
z
" id="DejaVuSans-98"/>
      <path d="M 34.28125 27.484375 
Q 23.390625 27.484375 19.1875 25 
Q 14.984375 22.515625 14.984375 16.5 
Q 14.984375 11.71875 18.140625 8.90625 
Q 21.296875 6.109375 26.703125 6.109375 
Q 34.1875 6.109375 38.703125 11.40625 
Q 43.21875 16.703125 43.21875 25.484375 
L 43.21875 27.484375 
z
M 52.203125 31.203125 
L 52.203125 0 
L 43.21875 0 
L 43.21875 8.296875 
Q 40.140625 3.328125 35.546875 0.953125 
Q 30.953125 -1.421875 24.3125 -1.421875 
Q 15.921875 -1.421875 10.953125 3.296875 
Q 6 8.015625 6 15.921875 
Q 6 25.140625 12.171875 29.828125 
Q 18.359375 34.515625 30.609375 34.515625 
L 43.21875 34.515625 
L 43.21875 35.40625 
Q 43.21875 41.609375 39.140625 45 
Q 35.0625 48.390625 27.6875 48.390625 
Q 23 48.390625 18.546875 47.265625 
Q 14.109375 46.140625 10.015625 43.890625 
L 10.015625 52.203125 
Q 14.9375 54.109375 19.578125 55.046875 
Q 24.21875 56 28.609375 56 
Q 40.484375 56 46.34375 49.84375 
Q 52.203125 43.703125 52.203125 31.203125 
z
" id="DejaVuSans-97"/>
      <path d="M 41.109375 46.296875 
Q 39.59375 47.171875 37.8125 47.578125 
Q 36.03125 48 33.890625 48 
Q 26.265625 48 22.1875 43.046875 
Q 18.109375 38.09375 18.109375 28.8125 
L 18.109375 0 
L 9.078125 0 
L 9.078125 54.6875 
L 18.109375 54.6875 
L 18.109375 46.1875 
Q 20.953125 51.171875 25.484375 53.578125 
Q 30.03125 56 36.53125 56 
Q 37.453125 56 38.578125 55.875 
Q 39.703125 55.765625 41.0625 55.515625 
z
" id="DejaVuSans-114"/>
      <path d="M 44.28125 53.078125 
L 44.28125 44.578125 
Q 40.484375 46.53125 36.375 47.5 
Q 32.28125 48.484375 27.875 48.484375 
Q 21.1875 48.484375 17.84375 46.4375 
Q 14.5 44.390625 14.5 40.28125 
Q 14.5 37.15625 16.890625 35.375 
Q 19.28125 33.59375 26.515625 31.984375 
L 29.59375 31.296875 
Q 39.15625 29.25 43.1875 25.515625 
Q 47.21875 21.78125 47.21875 15.09375 
Q 47.21875 7.46875 41.1875 3.015625 
Q 35.15625 -1.421875 24.609375 -1.421875 
Q 20.21875 -1.421875 15.453125 -0.5625 
Q 10.6875 0.296875 5.421875 2 
L 5.421875 11.28125 
Q 10.40625 8.6875 15.234375 7.390625 
Q 20.0625 6.109375 24.8125 6.109375 
Q 31.15625 6.109375 34.5625 8.28125 
Q 37.984375 10.453125 37.984375 14.40625 
Q 37.984375 18.0625 35.515625 20.015625 
Q 33.0625 21.96875 24.703125 23.78125 
L 21.578125 24.515625 
Q 13.234375 26.265625 9.515625 29.90625 
Q 5.8125 33.546875 5.8125 39.890625 
Q 5.8125 47.609375 11.28125 51.796875 
Q 16.75 56 26.8125 56 
Q 31.78125 56 36.171875 55.265625 
Q 40.578125 54.546875 44.28125 53.078125 
z
" id="DejaVuSans-115"/>
      <path d="M 56.203125 29.59375 
L 56.203125 25.203125 
L 14.890625 25.203125 
Q 15.484375 15.921875 20.484375 11.0625 
Q 25.484375 6.203125 34.421875 6.203125 
Q 39.59375 6.203125 44.453125 7.46875 
Q 49.3125 8.734375 54.109375 11.28125 
L 54.109375 2.78125 
Q 49.265625 0.734375 44.1875 -0.34375 
Q 39.109375 -1.421875 33.890625 -1.421875 
Q 20.796875 -1.421875 13.15625 6.1875 
Q 5.515625 13.8125 5.515625 26.8125 
Q 5.515625 40.234375 12.765625 48.109375 
Q 20.015625 56 32.328125 56 
Q 43.359375 56 49.78125 48.890625 
Q 56.203125 41.796875 56.203125 29.59375 
z
M 47.21875 32.234375 
Q 47.125 39.59375 43.09375 43.984375 
Q 39.0625 48.390625 32.421875 48.390625 
Q 24.90625 48.390625 20.390625 44.140625 
Q 15.875 39.890625 15.1875 32.171875 
z
" id="DejaVuSans-101"/>
      <path d="M 54.890625 54.6875 
L 35.109375 28.078125 
L 55.90625 0 
L 45.3125 0 
L 29.390625 21.484375 
L 13.484375 0 
L 2.875 0 
L 24.125 28.609375 
L 4.6875 54.6875 
L 15.28125 54.6875 
L 29.78125 35.203125 
L 44.28125 54.6875 
z
" id="DejaVuSans-120"/>
      <path d="M 18.3125 70.21875 
L 18.3125 54.6875 
L 36.8125 54.6875 
L 36.8125 47.703125 
L 18.3125 47.703125 
L 18.3125 18.015625 
Q 18.3125 11.328125 20.140625 9.421875 
Q 21.96875 7.515625 27.59375 7.515625 
L 36.8125 7.515625 
L 36.8125 0 
L 27.59375 0 
Q 17.1875 0 13.234375 3.875 
Q 9.28125 7.765625 9.28125 18.015625 
L 9.28125 47.703125 
L 2.6875 47.703125 
L 2.6875 54.6875 
L 9.28125 54.6875 
L 9.28125 70.21875 
z
" id="DejaVuSans-116"/>
      <path d="M 48.78125 52.59375 
L 48.78125 44.1875 
Q 44.96875 46.296875 41.140625 47.34375 
Q 37.3125 48.390625 33.40625 48.390625 
Q 24.65625 48.390625 19.8125 42.84375 
Q 14.984375 37.3125 14.984375 27.296875 
Q 14.984375 17.28125 19.8125 11.734375 
Q 24.65625 6.203125 33.40625 6.203125 
Q 37.3125 6.203125 41.140625 7.25 
Q 44.96875 8.296875 48.78125 10.40625 
L 48.78125 2.09375 
Q 45.015625 0.34375 40.984375 -0.53125 
Q 36.96875 -1.421875 32.421875 -1.421875 
Q 20.0625 -1.421875 12.78125 6.34375 
Q 5.515625 14.109375 5.515625 27.296875 
Q 5.515625 40.671875 12.859375 48.328125 
Q 20.21875 56 33.015625 56 
Q 37.15625 56 41.109375 55.140625 
Q 45.0625 54.296875 48.78125 52.59375 
z
" id="DejaVuSans-99"/>
      <path d="M 45.40625 46.390625 
L 45.40625 75.984375 
L 54.390625 75.984375 
L 54.390625 0 
L 45.40625 0 
L 45.40625 8.203125 
Q 42.578125 3.328125 38.25 0.953125 
Q 33.9375 -1.421875 27.875 -1.421875 
Q 17.96875 -1.421875 11.734375 6.484375 
Q 5.515625 14.40625 5.515625 27.296875 
Q 5.515625 40.1875 11.734375 48.09375 
Q 17.96875 56 27.875 56 
Q 33.9375 56 38.25 53.625 
Q 42.578125 51.265625 45.40625 46.390625 
z
M 14.796875 27.296875 
Q 14.796875 17.390625 18.875 11.75 
Q 22.953125 6.109375 30.078125 6.109375 
Q 37.203125 6.109375 41.296875 11.75 
Q 45.40625 17.390625 45.40625 27.296875 
Q 45.40625 37.203125 41.296875 42.84375 
Q 37.203125 48.484375 30.078125 48.484375 
Q 22.953125 48.484375 18.875 42.84375 
Q 14.796875 37.203125 14.796875 27.296875 
z
" id="DejaVuSans-100"/>
      <path d="M 10.6875 12.40625 
L 21 12.40625 
L 21 0 
L 10.6875 0 
z
" id="DejaVuSans-46"/>
     </defs>
     <use xlink:href="#DejaVuSans-87"/>
     <use x="98.876953" xlink:href="#DejaVuSans-52"/>
     <use x="162.5" xlink:href="#DejaVuSans-53"/>
     <use x="226.123047" xlink:href="#DejaVuSans-95"/>
     <use x="276.123047" xlink:href="#DejaVuSans-95"/>
     <use x="326.123047" xlink:href="#DejaVuSans-72"/>
     <use x="401.318359" xlink:href="#DejaVuSans-50"/>
     <use x="464.941406" xlink:href="#DejaVuSans-53"/>
     <use x="528.564453" xlink:href="#DejaVuSans-95"/>
     <use x="578.564453" xlink:href="#DejaVuSans-95"/>
     <use x="628.564453" xlink:href="#DejaVuSans-65"/>
     <use x="696.972656" xlink:href="#DejaVuSans-48"/>
     <use x="760.595703" xlink:href="#DejaVuSans-57"/>
     <use x="824.21875" xlink:href="#DejaVuSans-48"/>
     <use x="887.841797" xlink:href="#DejaVuSans-95"/>
     <use x="937.841797" xlink:href="#DejaVuSans-98"/>
     <use x="1001.318359" xlink:href="#DejaVuSans-97"/>
     <use x="1062.597656" xlink:href="#DejaVuSans-114"/>
     <use x="1103.710938" xlink:href="#DejaVuSans-115"/>
     <use x="1155.810547" xlink:href="#DejaVuSans-95"/>
     <use x="1205.810547" xlink:href="#DejaVuSans-101"/>
     <use x="1265.583984" xlink:href="#DejaVuSans-120"/>
     <use x="1324.763672" xlink:href="#DejaVuSans-116"/>
     <use x="1363.972656" xlink:href="#DejaVuSans-114"/>
     <use x="1405.085938" xlink:href="#DejaVuSans-97"/>
     <use x="1466.365234" xlink:href="#DejaVuSans-99"/>
     <use x="1521.345703" xlink:href="#DejaVuSans-116"/>
     <use x="1560.554688" xlink:href="#DejaVuSans-101"/>
     <use x="1622.078125" xlink:href="#DejaVuSans-100"/>
     <use x="1685.554688" xlink:href="#DejaVuSans-46"/>
     <use x="1717.341797" xlink:href="#DejaVuSans-116"/>
     <use x="1756.550781" xlink:href="#DejaVuSans-120"/>
     <use x="1815.730469" xlink:href="#DejaVuSans-116"/>
    </g>
   </g>
  </g>
 </g>
 <defs>
  <clipPath id="pc53c83da31">
   <rect height="217.44" width="217.44" x="112.68" y="34.56"/>
  </clipPath>
 </defs>
</svg>
