<?xml version="1.0" encoding="utf-8" standalone="no"?>
<!DOCTYPE svg PUBLIC "-//W3C//DTD SVG 1.1//EN"
  "http://www.w3.org/Graphics/SVG/1.1/DTD/svg11.dtd">
<!-- Created with matplotlib (https://matplotlib.org/) -->
<svg height="288pt" version="1.1" viewBox="0 0 432 288" width="432pt" xmlns="http://www.w3.org/2000/svg" xmlns:xlink="http://www.w3.org/1999/xlink">
 <metadata>
  <rdf:RDF xmlns:cc="http://creativecommons.org/ns#" xmlns:dc="http://purl.org/dc/elements/1.1/" xmlns:rdf="http://www.w3.org/1999/02/22-rdf-syntax-ns#">
   <cc:Work>
    <dc:type rdf:resource="http://purl.org/dc/dcmitype/StillImage"/>
    <dc:date>2021-06-13T21:59:51.363014</dc:date>
    <dc:format>image/svg+xml</dc:format>
    <dc:creator>
     <cc:Agent>
      <dc:title>Matplotlib v3.3.4, https://matplotlib.org/</dc:title>
     </cc:Agent>
    </dc:creator>
   </cc:Work>
  </rdf:RDF>
 </metadata>
 <defs>
  <style type="text/css">*{stroke-linecap:butt;stroke-linejoin:round;}</style>
 </defs>
 <g id="figure_1">
  <g id="patch_1">
   <path d="M 0 288 
L 432 288 
L 432 0 
L 0 0 
z
" style="fill:#ffffff;"/>
  </g>
  <g id="patch_2">
   <path d="M 112.68 252 
L 330.12 252 
L 330.12 34.56 
L 112.68 34.56 
z
" style="fill:#ffffff;"/>
  </g>
  <g id="pane3d_1">
   <g id="patch_3">
    <path d="M 129.09822 198.386264 
L 200.904009 138.197228 
L 199.90584 51.393878 
L 124.663773 106.302111 
" style="fill:#f2f2f2;opacity:0.5;stroke:#f2f2f2;stroke-linejoin:miter;"/>
   </g>
  </g>
  <g id="pane3d_2">
   <g id="patch_4">
    <path d="M 200.904009 138.197228 
L 316.12668 171.68791 
L 320.238571 81.894718 
L 199.90584 51.393878 
" style="fill:#e6e6e6;opacity:0.5;stroke:#e6e6e6;stroke-linejoin:miter;"/>
   </g>
  </g>
  <g id="pane3d_3">
   <g id="patch_5">
    <path d="M 129.09822 198.386264 
L 251.239879 238.27773 
L 316.12668 171.68791 
L 200.904009 138.197228 
" style="fill:#ececec;opacity:0.5;stroke:#ececec;stroke-linejoin:miter;"/>
   </g>
  </g>
  <g id="axis3d_1">
   <g id="line2d_1">
    <path d="M 129.09822 198.386264 
L 251.239879 238.27773 
" style="fill:none;stroke:#000000;stroke-linecap:square;stroke-width:0.8;"/>
   </g>
   <g id="Line3DCollection_1">
    <path d="M 136.495759 200.802301 
L 207.911499 140.234029 
L 207.209612 53.245171 
" style="fill:none;stroke:#b0b0b0;stroke-width:0.8;"/>
    <path d="M 162.23134 209.207541 
L 232.260894 147.311436 
L 232.60309 59.681678 
" style="fill:none;stroke:#b0b0b0;stroke-width:0.8;"/>
    <path d="M 188.559037 217.806167 
L 257.123632 154.538053 
L 258.555303 66.259807 
" style="fill:none;stroke:#b0b0b0;stroke-width:0.8;"/>
    <path d="M 215.499525 226.604931 
L 282.516121 161.918647 
L 285.084894 72.984285 
" style="fill:none;stroke:#b0b0b0;stroke-width:0.8;"/>
    <path d="M 243.074449 235.610901 
L 308.455474 169.458193 
L 312.21135 79.860051 
" style="fill:none;stroke:#b0b0b0;stroke-width:0.8;"/>
   </g>
   <g id="xtick_1">
    <g id="line2d_2">
     <path d="M 137.117644 200.274876 
L 135.249322 201.859414 
" style="fill:none;stroke:#000000;stroke-linecap:square;stroke-width:0.8;"/>
    </g>
    <g id="text_1">
     <!-- 0 -->
     <g transform="translate(125.77919 224.124533)scale(0.1 -0.1)">
      <defs>
       <path d="M 31.78125 66.40625 
Q 24.171875 66.40625 20.328125 58.90625 
Q 16.5 51.421875 16.5 36.375 
Q 16.5 21.390625 20.328125 13.890625 
Q 24.171875 6.390625 31.78125 6.390625 
Q 39.453125 6.390625 43.28125 13.890625 
Q 47.125 21.390625 47.125 36.375 
Q 47.125 51.421875 43.28125 58.90625 
Q 39.453125 66.40625 31.78125 66.40625 
z
M 31.78125 74.21875 
Q 44.046875 74.21875 50.515625 64.515625 
Q 56.984375 54.828125 56.984375 36.375 
Q 56.984375 17.96875 50.515625 8.265625 
Q 44.046875 -1.421875 31.78125 -1.421875 
Q 19.53125 -1.421875 13.0625 8.265625 
Q 6.59375 17.96875 6.59375 36.375 
Q 6.59375 54.828125 13.0625 64.515625 
Q 19.53125 74.21875 31.78125 74.21875 
z
" id="DejaVuSans-48"/>
      </defs>
      <use xlink:href="#DejaVuSans-48"/>
     </g>
    </g>
   </g>
   <g id="xtick_2">
    <g id="line2d_3">
     <path d="M 162.841716 208.668056 
L 161.007937 210.288854 
" style="fill:none;stroke:#000000;stroke-linecap:square;stroke-width:0.8;"/>
    </g>
    <g id="text_2">
     <!-- 2 -->
     <g transform="translate(151.547192 232.748132)scale(0.1 -0.1)">
      <defs>
       <path d="M 19.1875 8.296875 
L 53.609375 8.296875 
L 53.609375 0 
L 7.328125 0 
L 7.328125 8.296875 
Q 12.9375 14.109375 22.625 23.890625 
Q 32.328125 33.6875 34.8125 36.53125 
Q 39.546875 41.84375 41.421875 45.53125 
Q 43.3125 49.21875 43.3125 52.78125 
Q 43.3125 58.59375 39.234375 62.25 
Q 35.15625 65.921875 28.609375 65.921875 
Q 23.96875 65.921875 18.8125 64.3125 
Q 13.671875 62.703125 7.8125 59.421875 
L 7.8125 69.390625 
Q 13.765625 71.78125 18.9375 73 
Q 24.125 74.21875 28.421875 74.21875 
Q 39.75 74.21875 46.484375 68.546875 
Q 53.21875 62.890625 53.21875 53.421875 
Q 53.21875 48.921875 51.53125 44.890625 
Q 49.859375 40.875 45.40625 35.40625 
Q 44.1875 33.984375 37.640625 27.21875 
Q 31.109375 20.453125 19.1875 8.296875 
z
" id="DejaVuSans-50"/>
      </defs>
      <use xlink:href="#DejaVuSans-50"/>
     </g>
    </g>
   </g>
   <g id="xtick_3">
    <g id="line2d_4">
     <path d="M 189.15721 217.254202 
L 187.360066 218.91252 
" style="fill:none;stroke:#000000;stroke-linecap:square;stroke-width:0.8;"/>
    </g>
    <g id="text_3">
     <!-- 4 -->
     <g transform="translate(177.91082 241.571064)scale(0.1 -0.1)">
      <defs>
       <path d="M 37.796875 64.3125 
L 12.890625 25.390625 
L 37.796875 25.390625 
z
M 35.203125 72.90625 
L 47.609375 72.90625 
L 47.609375 25.390625 
L 58.015625 25.390625 
L 58.015625 17.1875 
L 47.609375 17.1875 
L 47.609375 0 
L 37.796875 0 
L 37.796875 17.1875 
L 4.890625 17.1875 
L 4.890625 26.703125 
z
" id="DejaVuSans-52"/>
      </defs>
      <use xlink:href="#DejaVuSans-52"/>
     </g>
    </g>
   </g>
   <g id="xtick_4">
    <g id="line2d_5">
     <path d="M 216.084757 226.040048 
L 214.326462 227.737204 
" style="fill:none;stroke:#000000;stroke-linecap:square;stroke-width:0.8;"/>
    </g>
    <g id="text_4">
     <!-- 6 -->
     <g transform="translate(204.890965 250.600322)scale(0.1 -0.1)">
      <defs>
       <path d="M 33.015625 40.375 
Q 26.375 40.375 22.484375 35.828125 
Q 18.609375 31.296875 18.609375 23.390625 
Q 18.609375 15.53125 22.484375 10.953125 
Q 26.375 6.390625 33.015625 6.390625 
Q 39.65625 6.390625 43.53125 10.953125 
Q 47.40625 15.53125 47.40625 23.390625 
Q 47.40625 31.296875 43.53125 35.828125 
Q 39.65625 40.375 33.015625 40.375 
z
M 52.59375 71.296875 
L 52.59375 62.3125 
Q 48.875 64.0625 45.09375 64.984375 
Q 41.3125 65.921875 37.59375 65.921875 
Q 27.828125 65.921875 22.671875 59.328125 
Q 17.53125 52.734375 16.796875 39.40625 
Q 19.671875 43.65625 24.015625 45.921875 
Q 28.375 48.1875 33.59375 48.1875 
Q 44.578125 48.1875 50.953125 41.515625 
Q 57.328125 34.859375 57.328125 23.390625 
Q 57.328125 12.15625 50.6875 5.359375 
Q 44.046875 -1.421875 33.015625 -1.421875 
Q 20.359375 -1.421875 13.671875 8.265625 
Q 6.984375 17.96875 6.984375 36.375 
Q 6.984375 53.65625 15.1875 63.9375 
Q 23.390625 74.21875 37.203125 74.21875 
Q 40.921875 74.21875 44.703125 73.484375 
Q 48.484375 72.75 52.59375 71.296875 
z
" id="DejaVuSans-54"/>
      </defs>
      <use xlink:href="#DejaVuSans-54"/>
     </g>
    </g>
   </g>
   <g id="xtick_5">
    <g id="line2d_6">
     <path d="M 243.645962 235.032643 
L 241.928856 236.770015 
" style="fill:none;stroke:#000000;stroke-linecap:square;stroke-width:0.8;"/>
    </g>
    <g id="text_5">
     <!-- 8 -->
     <g transform="translate(232.509511 259.84323)scale(0.1 -0.1)">
      <defs>
       <path d="M 31.78125 34.625 
Q 24.75 34.625 20.71875 30.859375 
Q 16.703125 27.09375 16.703125 20.515625 
Q 16.703125 13.921875 20.71875 10.15625 
Q 24.75 6.390625 31.78125 6.390625 
Q 38.8125 6.390625 42.859375 10.171875 
Q 46.921875 13.96875 46.921875 20.515625 
Q 46.921875 27.09375 42.890625 30.859375 
Q 38.875 34.625 31.78125 34.625 
z
M 21.921875 38.8125 
Q 15.578125 40.375 12.03125 44.71875 
Q 8.5 49.078125 8.5 55.328125 
Q 8.5 64.0625 14.71875 69.140625 
Q 20.953125 74.21875 31.78125 74.21875 
Q 42.671875 74.21875 48.875 69.140625 
Q 55.078125 64.0625 55.078125 55.328125 
Q 55.078125 49.078125 51.53125 44.71875 
Q 48 40.375 41.703125 38.8125 
Q 48.828125 37.15625 52.796875 32.3125 
Q 56.78125 27.484375 56.78125 20.515625 
Q 56.78125 9.90625 50.3125 4.234375 
Q 43.84375 -1.421875 31.78125 -1.421875 
Q 19.734375 -1.421875 13.25 4.234375 
Q 6.78125 9.90625 6.78125 20.515625 
Q 6.78125 27.484375 10.78125 32.3125 
Q 14.796875 37.15625 21.921875 38.8125 
z
M 18.3125 54.390625 
Q 18.3125 48.734375 21.84375 45.5625 
Q 25.390625 42.390625 31.78125 42.390625 
Q 38.140625 42.390625 41.71875 45.5625 
Q 45.3125 48.734375 45.3125 54.390625 
Q 45.3125 60.0625 41.71875 63.234375 
Q 38.140625 66.40625 31.78125 66.40625 
Q 25.390625 66.40625 21.84375 63.234375 
Q 18.3125 60.0625 18.3125 54.390625 
z
" id="DejaVuSans-56"/>
      </defs>
      <use xlink:href="#DejaVuSans-56"/>
     </g>
    </g>
   </g>
  </g>
  <g id="axis3d_2">
   <g id="line2d_7">
    <path d="M 316.12668 171.68791 
L 251.239879 238.27773 
" style="fill:none;stroke:#000000;stroke-linecap:square;stroke-width:0.8;"/>
   </g>
   <g id="Line3DCollection_2">
    <path d="M 129.866948 102.505071 
L 134.046245 194.238731 
L 255.729543 233.67023 
" style="fill:none;stroke:#b0b0b0;stroke-width:0.8;"/>
    <path d="M 147.250212 89.819556 
L 150.59591 180.366474 
L 270.72626 218.279909 
" style="fill:none;stroke:#b0b0b0;stroke-width:0.8;"/>
    <path d="M 163.958537 77.626582 
L 166.530371 167.009893 
L 285.136664 203.491289 
" style="fill:none;stroke:#b0b0b0;stroke-width:0.8;"/>
    <path d="M 180.030483 65.898008 
L 181.883306 154.140758 
L 298.994481 189.269761 
" style="fill:none;stroke:#b0b0b0;stroke-width:0.8;"/>
    <path d="M 195.501727 54.607799 
L 196.68598 141.732864 
L 312.330896 175.583317 
" style="fill:none;stroke:#b0b0b0;stroke-width:0.8;"/>
   </g>
   <g id="xtick_6">
    <g id="line2d_8">
     <path d="M 254.704115 233.337939 
L 257.783053 234.33567 
" style="fill:none;stroke:#000000;stroke-linecap:square;stroke-width:0.8;"/>
    </g>
    <g id="text_6">
     <!-- 0 -->
     <g transform="translate(265.430654 254.693759)scale(0.1 -0.1)">
      <use xlink:href="#DejaVuSans-48"/>
     </g>
    </g>
   </g>
   <g id="xtick_7">
    <g id="line2d_9">
     <path d="M 269.71494 217.960734 
L 272.751463 218.919068 
" style="fill:none;stroke:#000000;stroke-linecap:square;stroke-width:0.8;"/>
    </g>
    <g id="text_7">
     <!-- 2 -->
     <g transform="translate(280.181112 239.024526)scale(0.1 -0.1)">
      <use xlink:href="#DejaVuSans-50"/>
     </g>
    </g>
   </g>
   <g id="xtick_8">
    <g id="line2d_10">
     <path d="M 284.139145 203.184468 
L 287.134182 204.105694 
" style="fill:none;stroke:#000000;stroke-linecap:square;stroke-width:0.8;"/>
    </g>
    <g id="text_8">
     <!-- 4 -->
     <g transform="translate(294.35448 223.968328)scale(0.1 -0.1)">
      <use xlink:href="#DejaVuSans-52"/>
     </g>
    </g>
   </g>
   <g id="xtick_9">
    <g id="line2d_11">
     <path d="M 298.010457 188.97459 
L 300.964927 189.860821 
" style="fill:none;stroke:#000000;stroke-linecap:square;stroke-width:0.8;"/>
    </g>
    <g id="text_9">
     <!-- 6 -->
     <g transform="translate(307.983974 209.489882)scale(0.1 -0.1)">
      <use xlink:href="#DejaVuSans-54"/>
     </g>
    </g>
   </g>
   <g id="xtick_10">
    <g id="line2d_12">
     <path d="M 311.360068 175.299146 
L 314.274875 176.15234 
" style="fill:none;stroke:#000000;stroke-linecap:square;stroke-width:0.8;"/>
    </g>
    <g id="text_10">
     <!-- 8 -->
     <g transform="translate(321.10031 195.556556)scale(0.1 -0.1)">
      <use xlink:href="#DejaVuSans-56"/>
     </g>
    </g>
   </g>
  </g>
  <g id="axis3d_3">
   <g id="line2d_13">
    <path d="M 316.12668 171.68791 
L 320.238571 81.894718 
" style="fill:none;stroke:#000000;stroke-linecap:square;stroke-width:0.8;"/>
   </g>
   <g id="Line3DCollection_3">
    <path d="M 316.205459 169.967571 
L 200.884845 136.530725 
L 129.013401 196.624949 
" style="fill:none;stroke:#b0b0b0;stroke-width:0.8;"/>
    <path d="M 316.958703 153.51866 
L 200.701693 120.603365 
L 128.202135 179.778497 
" style="fill:none;stroke:#b0b0b0;stroke-width:0.8;"/>
    <path d="M 317.7244 136.797781 
L 200.515658 104.425289 
L 127.376943 162.642839 
" style="fill:none;stroke:#b0b0b0;stroke-width:0.8;"/>
    <path d="M 318.502864 119.798133 
L 200.326672 87.990531 
L 126.537461 145.210463 
" style="fill:none;stroke:#b0b0b0;stroke-width:0.8;"/>
    <path d="M 319.294415 102.512684 
L 200.134663 71.292932 
L 125.683317 127.473597 
" style="fill:none;stroke:#b0b0b0;stroke-width:0.8;"/>
    <path d="M 320.099386 84.934168 
L 199.939558 54.326137 
L 124.814121 109.424191 
" style="fill:none;stroke:#b0b0b0;stroke-width:0.8;"/>
   </g>
   <g id="xtick_11">
    <g id="line2d_14">
     <path d="M 315.237563 169.686933 
L 318.143556 170.529516 
" style="fill:none;stroke:#000000;stroke-linecap:square;stroke-width:0.8;"/>
    </g>
    <g id="text_11">
     <!-- 0 -->
     <g transform="translate(331.275915 174.966846)scale(0.1 -0.1)">
      <use xlink:href="#DejaVuSans-48"/>
     </g>
    </g>
   </g>
   <g id="xtick_12">
    <g id="line2d_15">
     <path d="M 315.982573 153.242293 
L 318.913306 154.072058 
" style="fill:none;stroke:#000000;stroke-linecap:square;stroke-width:0.8;"/>
    </g>
    <g id="text_12">
     <!-- 10000 -->
     <g transform="translate(319.450468 158.557564)scale(0.1 -0.1)">
      <defs>
       <path d="M 12.40625 8.296875 
L 28.515625 8.296875 
L 28.515625 63.921875 
L 10.984375 60.40625 
L 10.984375 69.390625 
L 28.421875 72.90625 
L 38.28125 72.90625 
L 38.28125 8.296875 
L 54.390625 8.296875 
L 54.390625 0 
L 12.40625 0 
z
" id="DejaVuSans-49"/>
      </defs>
      <use xlink:href="#DejaVuSans-49"/>
      <use x="63.623047" xlink:href="#DejaVuSans-48"/>
      <use x="127.246094" xlink:href="#DejaVuSans-48"/>
      <use x="190.869141" xlink:href="#DejaVuSans-48"/>
      <use x="254.492188" xlink:href="#DejaVuSans-48"/>
     </g>
    </g>
   </g>
   <g id="xtick_13">
    <g id="line2d_16">
     <path d="M 316.739895 136.525866 
L 319.695793 137.34227 
" style="fill:none;stroke:#000000;stroke-linecap:square;stroke-width:0.8;"/>
    </g>
    <g id="text_13">
     <!-- 20000 -->
     <g transform="translate(320.36484 141.87798)scale(0.1 -0.1)">
      <use xlink:href="#DejaVuSans-50"/>
      <use x="63.623047" xlink:href="#DejaVuSans-48"/>
      <use x="127.246094" xlink:href="#DejaVuSans-48"/>
      <use x="190.869141" xlink:href="#DejaVuSans-48"/>
      <use x="254.492188" xlink:href="#DejaVuSans-48"/>
     </g>
    </g>
   </g>
   <g id="xtick_14">
    <g id="line2d_17">
     <path d="M 317.509839 119.530856 
L 320.491336 120.333338 
" style="fill:none;stroke:#000000;stroke-linecap:square;stroke-width:0.8;"/>
    </g>
    <g id="text_14">
     <!-- 30000 -->
     <g transform="translate(321.294398 124.921362)scale(0.1 -0.1)">
      <defs>
       <path d="M 40.578125 39.3125 
Q 47.65625 37.796875 51.625 33 
Q 55.609375 28.21875 55.609375 21.1875 
Q 55.609375 10.40625 48.1875 4.484375 
Q 40.765625 -1.421875 27.09375 -1.421875 
Q 22.515625 -1.421875 17.65625 -0.515625 
Q 12.796875 0.390625 7.625 2.203125 
L 7.625 11.71875 
Q 11.71875 9.328125 16.59375 8.109375 
Q 21.484375 6.890625 26.8125 6.890625 
Q 36.078125 6.890625 40.9375 10.546875 
Q 45.796875 14.203125 45.796875 21.1875 
Q 45.796875 27.640625 41.28125 31.265625 
Q 36.765625 34.90625 28.71875 34.90625 
L 20.21875 34.90625 
L 20.21875 43.015625 
L 29.109375 43.015625 
Q 36.375 43.015625 40.234375 45.921875 
Q 44.09375 48.828125 44.09375 54.296875 
Q 44.09375 59.90625 40.109375 62.90625 
Q 36.140625 65.921875 28.71875 65.921875 
Q 24.65625 65.921875 20.015625 65.03125 
Q 15.375 64.15625 9.8125 62.3125 
L 9.8125 71.09375 
Q 15.4375 72.65625 20.34375 73.4375 
Q 25.25 74.21875 29.59375 74.21875 
Q 40.828125 74.21875 47.359375 69.109375 
Q 53.90625 64.015625 53.90625 55.328125 
Q 53.90625 49.265625 50.4375 45.09375 
Q 46.96875 40.921875 40.578125 39.3125 
z
" id="DejaVuSans-51"/>
      </defs>
      <use xlink:href="#DejaVuSans-51"/>
      <use x="63.623047" xlink:href="#DejaVuSans-48"/>
      <use x="127.246094" xlink:href="#DejaVuSans-48"/>
      <use x="190.869141" xlink:href="#DejaVuSans-48"/>
      <use x="254.492188" xlink:href="#DejaVuSans-48"/>
     </g>
    </g>
   </g>
   <g id="xtick_15">
    <g id="line2d_18">
     <path d="M 318.292722 102.250241 
L 321.300265 103.038215 
" style="fill:none;stroke:#000000;stroke-linecap:square;stroke-width:0.8;"/>
    </g>
    <g id="text_15">
     <!-- 40000 -->
     <g transform="translate(322.239525 107.680749)scale(0.1 -0.1)">
      <use xlink:href="#DejaVuSans-52"/>
      <use x="63.623047" xlink:href="#DejaVuSans-48"/>
      <use x="127.246094" xlink:href="#DejaVuSans-48"/>
      <use x="190.869141" xlink:href="#DejaVuSans-48"/>
      <use x="254.492188" xlink:href="#DejaVuSans-48"/>
     </g>
    </g>
   </g>
   <g id="xtick_16">
    <g id="line2d_19">
     <path d="M 319.088872 84.676762 
L 322.122921 85.449618 
" style="fill:none;stroke:#000000;stroke-linecap:square;stroke-width:0.8;"/>
    </g>
    <g id="text_16">
     <!-- 50000 -->
     <g transform="translate(323.200615 90.148946)scale(0.1 -0.1)">
      <defs>
       <path d="M 10.796875 72.90625 
L 49.515625 72.90625 
L 49.515625 64.59375 
L 19.828125 64.59375 
L 19.828125 46.734375 
Q 21.96875 47.46875 24.109375 47.828125 
Q 26.265625 48.1875 28.421875 48.1875 
Q 40.625 48.1875 47.75 41.5 
Q 54.890625 34.8125 54.890625 23.390625 
Q 54.890625 11.625 47.5625 5.09375 
Q 40.234375 -1.421875 26.90625 -1.421875 
Q 22.3125 -1.421875 17.546875 -0.640625 
Q 12.796875 0.140625 7.71875 1.703125 
L 7.71875 11.625 
Q 12.109375 9.234375 16.796875 8.0625 
Q 21.484375 6.890625 26.703125 6.890625 
Q 35.15625 6.890625 40.078125 11.328125 
Q 45.015625 15.765625 45.015625 23.390625 
Q 45.015625 31 40.078125 35.4375 
Q 35.15625 39.890625 26.703125 39.890625 
Q 22.75 39.890625 18.8125 39.015625 
Q 14.890625 38.140625 10.796875 36.28125 
z
" id="DejaVuSans-53"/>
      </defs>
      <use xlink:href="#DejaVuSans-53"/>
      <use x="63.623047" xlink:href="#DejaVuSans-48"/>
      <use x="127.246094" xlink:href="#DejaVuSans-48"/>
      <use x="190.869141" xlink:href="#DejaVuSans-48"/>
      <use x="254.492188" xlink:href="#DejaVuSans-48"/>
     </g>
    </g>
   </g>
  </g>
  <g id="axes_1">
   <g id="Poly3DCollection_1">
    <path clip-path="url(#p9343d93a63)" d="M 203.700438 142.115361 
L 203.689098 140.997736 
L 215.859221 144.545509 
L 215.863902 145.66701 
z
" style="fill:#09033a;"/>
    <path clip-path="url(#p9343d93a63)" d="M 196.401162 148.290596 
L 196.385672 147.166245 
L 203.689098 140.997736 
L 203.700438 142.115361 
z
" style="fill:#13067a;"/>
    <path clip-path="url(#p9343d93a63)" d="M 196.401162 148.290596 
L 203.700438 142.115361 
L 215.863902 145.66701 
L 208.637156 151.907182 
z
" style="fill:#0c044a;"/>
    <path clip-path="url(#p9343d93a63)" d="M 196.385672 147.166245 
L 208.628405 150.77892 
L 215.859221 144.545509 
L 203.689098 140.997736 
z
" style="fill:#11056a;"/>
    <path clip-path="url(#p9343d93a63)" d="M 215.863902 145.66701 
L 215.834032 138.510298 
L 228.168548 142.074251 
L 228.155024 149.255935 
z
" style="fill:#190241;"/>
    <path clip-path="url(#p9343d93a63)" d="M 208.637156 151.907182 
L 215.863902 145.66701 
L 215.859221 144.545509 
L 208.628405 150.77892 
z
" style="fill:#09033a;"/>
    <path clip-path="url(#p9343d93a63)" d="M 208.637156 151.907182 
L 208.581307 144.707135 
L 215.834032 138.510298 
L 215.863902 145.66701 
z
" style="fill:#350389;"/>
    <path clip-path="url(#p9343d93a63)" d="M 196.401162 148.290596 
L 196.387535 147.301512 
L 208.629457 150.914658 
L 208.637156 151.907182 
z
" style="fill:#080339;"/>
    <path clip-path="url(#p9343d93a63)" d="M 196.401162 148.290596 
L 208.637156 151.907182 
L 208.628405 150.77892 
L 196.385672 147.166245 
z
" style="fill:#13067a;"/>
    <path clip-path="url(#p9343d93a63)" d="M 208.637156 151.907182 
L 215.863902 145.66701 
L 228.155024 149.255935 
L 221.002748 155.562072 
z
" style="fill:#200253;"/>
    <path clip-path="url(#p9343d93a63)" d="M 188.96817 154.578956 
L 188.95076 153.583903 
L 196.387535 147.301512 
L 196.401162 148.290596 
z
" style="fill:#110679;"/>
    <path clip-path="url(#p9343d93a63)" d="M 208.581307 144.707135 
L 220.99082 148.336829 
L 228.168548 142.074251 
L 215.834032 138.510298 
z
" style="fill:#2e0377;"/>
    <path clip-path="url(#p9343d93a63)" d="M 188.96817 154.578956 
L 196.401162 148.290596 
L 208.637156 151.907182 
L 201.27732 158.262275 
z
" style="fill:#0a0449;"/>
    <path clip-path="url(#p9343d93a63)" d="M 188.95076 153.583903 
L 201.265908 157.263752 
L 208.629457 150.914658 
L 196.387535 147.301512 
z
" style="fill:#0f0569;"/>
    <path clip-path="url(#p9343d93a63)" d="M 221.002748 155.562072 
L 228.155024 149.255935 
L 228.168548 142.074251 
L 220.99082 148.336829 
z
" style="fill:#190241;"/>
    <path clip-path="url(#p9343d93a63)" d="M 221.002748 155.562072 
L 228.155024 149.255935 
L 240.575825 152.882725 
L 233.500008 159.25588 
z
" style="fill:#7a3932;"/>
    <path clip-path="url(#p9343d93a63)" d="M 208.637156 151.907182 
L 208.599578 147.062593 
L 220.994722 150.70056 
L 221.002748 155.562072 
z
" style="fill:#14023e;"/>
    <path clip-path="url(#p9343d93a63)" d="M 208.637156 151.907182 
L 221.002748 155.562072 
L 220.99082 148.336829 
L 208.581307 144.707135 
z
" style="fill:#350389;"/>
    <path clip-path="url(#p9343d93a63)" d="M 201.27732 158.262275 
L 208.637156 151.907182 
L 208.629457 150.914658 
L 201.265908 157.263752 
z
" style="fill:#080339;"/>
    <path clip-path="url(#p9343d93a63)" d="M 201.27732 158.262275 
L 201.221618 153.388319 
L 208.599578 147.062593 
L 208.637156 151.907182 
z
" style="fill:#2a0484;"/>
    <path clip-path="url(#p9343d93a63)" d="M 188.96817 154.578956 
L 188.957274 153.956216 
L 201.270178 157.637364 
L 201.27732 158.262275 
z
" style="fill:#070339;"/>
    <path clip-path="url(#p9343d93a63)" d="M 188.96817 154.578956 
L 201.27732 158.262275 
L 201.265908 157.263752 
L 188.95076 153.583903 
z
" style="fill:#110679;"/>
    <path clip-path="url(#p9343d93a63)" d="M 201.27732 158.262275 
L 208.637156 151.907182 
L 221.002748 155.562072 
L 213.718049 161.984967 
z
" style="fill:#190350;"/>
    <path clip-path="url(#p9343d93a63)" d="M 181.397755 160.983577 
L 181.384405 160.35707 
L 188.957274 153.956216 
L 188.96817 154.578956 
z
" style="fill:#0e0678;"/>
    <path clip-path="url(#p9343d93a63)" d="M 233.500008 159.25588 
L 240.575825 152.882725 
L 253.128369 156.547983 
L 246.131049 162.989229 
z
" style="fill:#866f14;"/>
    <path clip-path="url(#p9343d93a63)" d="M 201.221618 153.388319 
L 213.692259 157.093937 
L 220.994722 150.70056 
L 208.599578 147.062593 
z
" style="fill:#240473;"/>
    <path clip-path="url(#p9343d93a63)" d="M 213.718049 161.984967 
L 221.002748 155.562072 
L 220.994722 150.70056 
L 213.692259 157.093937 
z
" style="fill:#14023e;"/>
    <path clip-path="url(#p9343d93a63)" d="M 181.397755 160.983577 
L 188.96817 154.578956 
L 201.27732 158.262275 
L 193.780682 164.735494 
z
" style="fill:#090449;"/>
    <path clip-path="url(#p9343d93a63)" d="M 228.155024 149.255935 
L 228.251772 97.877471 
L 240.989653 101.318749 
L 240.575825 152.882725 
z
" style="fill:#5f2c27;"/>
    <path clip-path="url(#p9343d93a63)" d="M 181.384405 160.35707 
L 193.77113 164.106797 
L 201.270178 157.637364 
L 188.957274 153.956216 
z
" style="fill:#0c0668;"/>
    <path clip-path="url(#p9343d93a63)" d="M 201.27732 158.262275 
L 201.244391 155.380984 
L 213.702803 159.093598 
L 213.718049 161.984967 
z
" style="fill:#0e023c;"/>
    <path clip-path="url(#p9343d93a63)" d="M 213.718049 161.984967 
L 221.002748 155.562072 
L 233.500008 159.25588 
L 226.292478 165.747667 
z
" style="fill:#722d3a;"/>
    <path clip-path="url(#p9343d93a63)" d="M 201.27732 158.262275 
L 213.718049 161.984967 
L 213.692259 157.093937 
L 201.221618 153.388319 
z
" style="fill:#2a0484;"/>
    <path clip-path="url(#p9343d93a63)" d="M 221.002748 155.562072 
L 220.917398 103.861638 
L 228.251772 97.877471 
L 228.155024 149.255935 
z
" style="fill:#ca5e53;"/>
    <path clip-path="url(#p9343d93a63)" d="M 193.780682 164.735494 
L 201.27732 158.262275 
L 201.270178 157.637364 
L 193.77113 164.106797 
z
" style="fill:#070339;"/>
    <path clip-path="url(#p9343d93a63)" d="M 246.131049 162.989229 
L 253.128369 156.547983 
L 265.814761 160.252323 
L 258.898031 166.762758 
z
" style="fill:#661f46;"/>
    <path clip-path="url(#p9343d93a63)" d="M 193.780682 164.735494 
L 193.736642 161.836715 
L 201.244391 155.380984 
L 201.27732 158.262275 
z
" style="fill:#1e057f;"/>
    <path clip-path="url(#p9343d93a63)" d="M 265.814761 160.252323 
L 265.879323 157.114427 
L 278.72213 160.847493 
L 278.637155 163.996376 
z
" style="fill:#0f023c;"/>
    <path clip-path="url(#p9343d93a63)" d="M 181.397755 160.983577 
L 181.388814 160.564001 
L 193.774285 164.314451 
L 193.780682 164.735494 
z
" style="fill:#070339;"/>
    <path clip-path="url(#p9343d93a63)" d="M 181.397755 160.983577 
L 193.780682 164.735494 
L 193.77113 164.106797 
L 181.384405 160.35707 
z
" style="fill:#0e0678;"/>
    <path clip-path="url(#p9343d93a63)" d="M 193.780682 164.735494 
L 201.27732 158.262275 
L 213.718049 161.984967 
L 206.297214 168.527892 
z
" style="fill:#12034d;"/>
    <path clip-path="url(#p9343d93a63)" d="M 258.898031 166.762758 
L 258.952329 163.605798 
L 265.879323 157.114427 
L 265.814761 160.252323 
z
" style="fill:#200580;"/>
    <path clip-path="url(#p9343d93a63)" d="M 173.686069 167.507715 
L 173.675424 167.085594 
L 181.388814 160.564001 
L 181.397755 160.983577 
z
" style="fill:#0e0678;"/>
    <path clip-path="url(#p9343d93a63)" d="M 226.292478 165.747667 
L 233.500008 159.25588 
L 246.131049 162.989229 
L 239.002775 169.551023 
z
" style="fill:#808512;"/>
    <path clip-path="url(#p9343d93a63)" d="M 193.736642 161.836715 
L 206.271072 165.618948 
L 213.702803 159.093598 
L 201.244391 155.380984 
z
" style="fill:#1a046e;"/>
    <path clip-path="url(#p9343d93a63)" d="M 253.128369 156.547983 
L 253.666575 118.793822 
L 266.594342 122.362717 
L 265.814761 160.252323 
z
" style="fill:#501837;"/>
    <path clip-path="url(#p9343d93a63)" d="M 233.500008 159.25588 
L 240.575825 152.882725 
L 240.989653 101.318749 
L 233.735709 107.368144 
z
" style="fill:#5f2c27;"/>
    <path clip-path="url(#p9343d93a63)" d="M 221.002748 155.562072 
L 220.927389 109.913501 
L 233.708116 113.442663 
L 233.500008 159.25588 
z
" style="fill:#59232d;"/>
    <path clip-path="url(#p9343d93a63)" d="M 258.898031 166.762758 
L 265.814761 160.252323 
L 278.637155 163.996376 
L 271.803162 170.57712 
z
" style="fill:#13034d;"/>
    <path clip-path="url(#p9343d93a63)" d="M 206.297214 168.527892 
L 213.718049 161.984967 
L 213.702803 159.093598 
L 206.271072 165.618948 
z
" style="fill:#0e023c;"/>
    <path clip-path="url(#p9343d93a63)" d="M 278.637155 163.996376 
L 278.651956 163.44791 
L 291.616181 167.230396 
L 291.597749 167.780781 
z
" style="fill:#070339;"/>
    <path clip-path="url(#p9343d93a63)" d="M 173.686069 167.507715 
L 181.397755 160.983577 
L 193.780682 164.735494 
L 186.143392 171.330164 
z
" style="fill:#090449;"/>
    <path clip-path="url(#p9343d93a63)" d="M 173.675424 167.085594 
L 186.135322 170.906563 
L 193.774285 164.314451 
L 181.388814 160.564001 
z
" style="fill:#0c0668;"/>
    <path clip-path="url(#p9343d93a63)" d="M 246.131049 162.989229 
L 246.542294 125.000008 
L 253.666575 118.793822 
L 253.128369 156.547983 
z
" style="fill:#a93374;"/>
    <path clip-path="url(#p9343d93a63)" d="M 221.002748 155.562072 
L 233.500008 159.25588 
L 233.735709 107.368144 
L 220.917398 103.861638 
z
" style="fill:#ca5e53;"/>
    <path clip-path="url(#p9343d93a63)" d="M 258.952329 163.605798 
L 271.87814 167.409077 
L 278.72213 160.847493 
L 265.879323 157.114427 
z
" style="fill:#1b046f;"/>
    <path clip-path="url(#p9343d93a63)" d="M 213.718049 161.984967 
L 213.47584 116.050651 
L 220.927389 109.913501 
L 221.002748 155.562072 
z
" style="fill:#bd4b60;"/>
    <path clip-path="url(#p9343d93a63)" d="M 193.780682 164.735494 
L 193.756733 163.159153 
L 206.282998 166.946028 
L 206.297214 168.527892 
z
" style="fill:#0a033a;"/>
    <path clip-path="url(#p9343d93a63)" d="M 193.780682 164.735494 
L 206.297214 168.527892 
L 206.271072 165.618948 
L 193.736642 161.836715 
z
" style="fill:#1e057f;"/>
    <path clip-path="url(#p9343d93a63)" d="M 206.297214 168.527892 
L 213.718049 161.984967 
L 226.292478 165.747667 
L 218.949524 172.361429 
z
" style="fill:#5c154e;"/>
    <path clip-path="url(#p9343d93a63)" d="M 271.803162 170.57712 
L 271.816221 170.025324 
L 278.651956 163.44791 
L 278.637155 163.996376 
z
" style="fill:#0e0678;"/>
    <path clip-path="url(#p9343d93a63)" d="M 240.575825 152.882725 
L 241.188329 76.563205 
L 254.220353 79.947388 
L 253.128369 156.547983 
z
" style="fill:#69570f;"/>
    <path clip-path="url(#p9343d93a63)" d="M 271.803162 170.57712 
L 278.637155 163.996376 
L 278.72213 160.847493 
L 271.87814 167.409077 
z
" style="fill:#0f023c;"/>
    <path clip-path="url(#p9343d93a63)" d="M 186.143392 171.330164 
L 193.780682 164.735494 
L 193.774285 164.314451 
L 186.135322 170.906563 
z
" style="fill:#070339;"/>
    <path clip-path="url(#p9343d93a63)" d="M 239.002775 169.551023 
L 246.131049 162.989229 
L 258.898031 166.762758 
L 251.851153 173.395697 
z
" style="fill:#7a3932;"/>
    <path clip-path="url(#p9343d93a63)" d="M 186.143392 171.330164 
L 186.113177 169.74424 
L 193.756733 163.159153 
L 193.780682 164.735494 
z
" style="fill:#16067b;"/>
    <path clip-path="url(#p9343d93a63)" d="M 271.803162 170.57712 
L 278.637155 163.996376 
L 291.597749 167.780781 
L 284.848695 174.43298 
z
" style="fill:#090449;"/>
    <path clip-path="url(#p9343d93a63)" d="M 258.898031 166.762758 
L 271.803162 170.57712 
L 271.87814 167.409077 
L 258.952329 163.605798 
z
" style="fill:#200580;"/>
    <path clip-path="url(#p9343d93a63)" d="M 233.500008 159.25588 
L 233.848908 82.448497 
L 241.188329 76.563205 
L 240.575825 152.882725 
z
" style="fill:#deb821;"/>
    <path clip-path="url(#p9343d93a63)" d="M 271.816221 170.025324 
L 284.865434 173.879248 
L 291.616181 167.230396 
L 278.651956 163.44791 
z
" style="fill:#0c0668;"/>
    <path clip-path="url(#p9343d93a63)" d="M 173.686069 167.507715 
L 173.677475 167.166947 
L 186.136877 170.988201 
L 186.143392 171.330164 
z
" style="fill:#050338;"/>
    <path clip-path="url(#p9343d93a63)" d="M 173.686069 167.507715 
L 186.143392 171.330164 
L 186.135322 170.906563 
L 173.675424 167.085594 
z
" style="fill:#0e0678;"/>
    <path clip-path="url(#p9343d93a63)" d="M 258.898031 166.762758 
L 258.97997 161.998735 
L 271.916308 165.796353 
L 271.803162 170.57712 
z
" style="fill:#13023e;"/>
    <path clip-path="url(#p9343d93a63)" d="M 213.718049 161.984967 
L 213.547492 129.639172 
L 226.324031 133.286012 
L 226.292478 165.747667 
z
" style="fill:#48103d;"/>
    <path clip-path="url(#p9343d93a63)" d="M 291.597749 167.780781 
L 291.60314 167.619789 
L 304.705266 171.44464 
L 304.698789 171.606197 
z
" style="fill:#050338;"/>
    <path clip-path="url(#p9343d93a63)" d="M 186.143392 171.330164 
L 193.780682 164.735494 
L 206.297214 168.527892 
L 198.736391 175.194243 
z
" style="fill:#0d034a;"/>
    <path clip-path="url(#p9343d93a63)" d="M 258.898031 166.762758 
L 265.814761 160.252323 
L 266.594342 122.362717 
L 259.553776 128.636829 
z
" style="fill:#501837;"/>
    <path clip-path="url(#p9343d93a63)" d="M 226.292478 165.747667 
L 233.500008 159.25588 
L 233.708116 113.442663 
L 226.337288 119.647147 
z
" style="fill:#59232d;"/>
    <path clip-path="url(#p9343d93a63)" d="M 186.113177 169.74424 
L 198.716028 173.60275 
L 206.282998 166.946028 
L 193.756733 163.159153 
z
" style="fill:#13056b;"/>
    <path clip-path="url(#p9343d93a63)" d="M 165.82912 174.154745 
L 165.819101 173.811905 
L 173.677475 167.166947 
L 173.686069 167.507715 
z
" style="fill:#0b0777;"/>
    <path clip-path="url(#p9343d93a63)" d="M 251.851153 173.395697 
L 251.916999 168.60262 
L 258.97997 161.998735 
L 258.898031 166.762758 
z
" style="fill:#280484;"/>
    <path clip-path="url(#p9343d93a63)" d="M 206.297214 168.527892 
L 206.004731 135.981033 
L 213.547492 129.639172 
L 213.718049 161.984967 
z
" style="fill:#992282;"/>
    <path clip-path="url(#p9343d93a63)" d="M 218.949524 172.361429 
L 226.292478 165.747667 
L 239.002775 169.551023 
L 231.739835 176.23678 
z
" style="fill:#837b14;"/>
    <path clip-path="url(#p9343d93a63)" d="M 284.848695 174.43298 
L 284.853592 174.271009 
L 291.60314 167.619789 
L 291.597749 167.780781 
z
" style="fill:#0b0777;"/>
    <path clip-path="url(#p9343d93a63)" d="M 284.848695 174.43298 
L 291.597749 167.780781 
L 291.616181 167.230396 
L 284.865434 173.879248 
z
" style="fill:#070339;"/>
    <path clip-path="url(#p9343d93a63)" d="M 246.131049 162.989229 
L 258.898031 166.762758 
L 259.553776 128.636829 
L 246.542294 125.000008 
z
" style="fill:#a93374;"/>
    <path clip-path="url(#p9343d93a63)" d="M 213.718049 161.984967 
L 226.292478 165.747667 
L 226.337288 119.647147 
L 213.47584 116.050651 
z
" style="fill:#bd4b60;"/>
    <path clip-path="url(#p9343d93a63)" d="M 220.917398 103.861638 
L 233.735709 107.368144 
L 240.989653 101.318749 
L 228.251772 97.877471 
z
" style="fill:#af5148;"/>
    <path clip-path="url(#p9343d93a63)" d="M 251.851153 173.395697 
L 258.898031 166.762758 
L 271.803162 170.57712 
L 264.839875 177.282368 
z
" style="fill:#18034f;"/>
    <path clip-path="url(#p9343d93a63)" d="M 198.736391 175.194243 
L 206.297214 168.527892 
L 206.282998 166.946028 
L 198.716028 173.60275 
z
" style="fill:#0a033a;"/>
    <path clip-path="url(#p9343d93a63)" d="M 271.803162 170.57712 
L 271.814183 170.111455 
L 284.862822 173.965682 
L 284.848695 174.43298 
z
" style="fill:#070339;"/>
    <path clip-path="url(#p9343d93a63)" d="M 271.803162 170.57712 
L 284.848695 174.43298 
L 284.865434 173.879248 
L 271.816221 170.025324 
z
" style="fill:#0e0678;"/>
    <path clip-path="url(#p9343d93a63)" d="M 165.82912 174.154745 
L 173.686069 167.507715 
L 186.143392 171.330164 
L 178.361455 178.049733 
z
" style="fill:#070448;"/>
    <path clip-path="url(#p9343d93a63)" d="M 165.819101 173.811905 
L 178.353539 177.70569 
L 186.136877 170.988201 
L 173.677475 167.166947 
z
" style="fill:#0a0667;"/>
    <path clip-path="url(#p9343d93a63)" d="M 284.848695 174.43298 
L 291.597749 167.780781 
L 304.698789 171.606197 
L 298.036935 178.33102 
z
" style="fill:#070448;"/>
    <path clip-path="url(#p9343d93a63)" d="M 246.131049 162.989229 
L 253.128369 156.547983 
L 254.220353 79.947388 
L 246.965586 85.897962 
z
" style="fill:#69570f;"/>
    <path clip-path="url(#p9343d93a63)" d="M 284.853592 174.271009 
L 298.042931 178.16848 
L 304.705266 171.44464 
L 291.60314 167.619789 
z
" style="fill:#0a0667;"/>
    <path clip-path="url(#p9343d93a63)" d="M 186.143392 171.330164 
L 186.120751 170.14176 
L 198.721132 174.001667 
L 198.736391 175.194243 
z
" style="fill:#09033a;"/>
    <path clip-path="url(#p9343d93a63)" d="M 186.143392 171.330164 
L 198.736391 175.194243 
L 198.716028 173.60275 
L 186.113177 169.74424 
z
" style="fill:#16067b;"/>
    <path clip-path="url(#p9343d93a63)" d="M 251.916999 168.60262 
L 264.937337 172.472402 
L 271.916308 165.796353 
L 258.97997 161.998735 
z
" style="fill:#230472;"/>
    <path clip-path="url(#p9343d93a63)" d="M 206.297214 168.527892 
L 206.128215 149.722057 
L 218.898768 153.488738 
L 218.949524 172.361429 
z
" style="fill:#300046;"/>
    <path clip-path="url(#p9343d93a63)" d="M 198.736391 175.194243 
L 206.297214 168.527892 
L 218.949524 172.361429 
L 211.467294 179.100638 
z
" style="fill:#3e005a;"/>
    <path clip-path="url(#p9343d93a63)" d="M 246.131049 162.989229 
L 246.695302 110.86573 
L 259.797787 114.449711 
L 258.898031 166.762758 
z
" style="fill:#5f2c27;"/>
    <path clip-path="url(#p9343d93a63)" d="M 264.839875 177.282368 
L 264.849368 176.813868 
L 271.814183 170.111455 
L 271.803162 170.57712 
z
" style="fill:#0e0678;"/>
    <path clip-path="url(#p9343d93a63)" d="M 233.500008 159.25588 
L 246.131049 162.989229 
L 246.965586 85.897962 
L 233.848908 82.448497 
z
" style="fill:#deb821;"/>
    <path clip-path="url(#p9343d93a63)" d="M 178.361455 178.049733 
L 186.143392 171.330164 
L 186.136877 170.988201 
L 178.353539 177.70569 
z
" style="fill:#050338;"/>
    <path clip-path="url(#p9343d93a63)" d="M 264.839875 177.282368 
L 271.803162 170.57712 
L 271.916308 165.796353 
L 264.937337 172.472402 
z
" style="fill:#13023e;"/>
    <path clip-path="url(#p9343d93a63)" d="M 218.949524 172.361429 
L 226.292478 165.747667 
L 226.324031 133.286012 
L 218.861679 139.697652 
z
" style="fill:#48103d;"/>
    <path clip-path="url(#p9343d93a63)" d="M 246.542294 125.000008 
L 259.553776 128.636829 
L 266.594342 122.362717 
L 253.666575 118.793822 
z
" style="fill:#932c64;"/>
    <path clip-path="url(#p9343d93a63)" d="M 231.739835 176.23678 
L 239.002775 169.551023 
L 251.851153 173.395697 
L 244.670417 180.154631 
z
" style="fill:#814728;"/>
    <path clip-path="url(#p9343d93a63)" d="M 178.361455 178.049733 
L 178.333943 176.85409 
L 186.120751 170.14176 
L 186.143392 171.330164 
z
" style="fill:#13067a;"/>
    <path clip-path="url(#p9343d93a63)" d="M 298.036935 178.33102 
L 304.698789 171.606197 
L 304.705266 171.44464 
L 298.042931 178.16848 
z
" style="fill:#050338;"/>
    <path clip-path="url(#p9343d93a63)" d="M 198.736391 175.194243 
L 198.494284 156.272394 
L 206.128215 149.722057 
L 206.297214 168.527892 
z
" style="fill:#660195;"/>
    <path clip-path="url(#p9343d93a63)" d="M 239.002775 169.551023 
L 239.386109 117.098559 
L 246.695302 110.86573 
L 246.131049 162.989229 
z
" style="fill:#ca5e53;"/>
    <path clip-path="url(#p9343d93a63)" d="M 264.839875 177.282368 
L 271.803162 170.57712 
L 284.848695 174.43298 
L 277.971253 181.211726 
z
" style="fill:#090449;"/>
    <path clip-path="url(#p9343d93a63)" d="M 233.500008 159.25588 
L 233.887451 73.96354 
L 247.057799 77.379717 
L 246.131049 162.989229 
z
" style="fill:#64680e;"/>
    <path clip-path="url(#p9343d93a63)" d="M 264.849368 176.813868 
L 277.983893 180.741579 
L 284.862822 173.965682 
L 271.814183 170.111455 
z
" style="fill:#0c0668;"/>
    <path clip-path="url(#p9343d93a63)" d="M 165.82912 174.154745 
L 165.821467 173.892881 
L 178.355409 177.78695 
L 178.361455 178.049733 
z
" style="fill:#050338;"/>
    <path clip-path="url(#p9343d93a63)" d="M 165.82912 174.154745 
L 178.361455 178.049733 
L 178.353539 177.70569 
L 165.819101 173.811905 
z
" style="fill:#0b0777;"/>
    <path clip-path="url(#p9343d93a63)" d="M 251.851153 173.395697 
L 264.839875 177.282368 
L 264.937337 172.472402 
L 251.916999 168.60262 
z
" style="fill:#280484;"/>
    <path clip-path="url(#p9343d93a63)" d="M 206.297214 168.527892 
L 218.949524 172.361429 
L 218.861679 139.697652 
L 206.004731 135.981033 
z
" style="fill:#992282;"/>
    <path clip-path="url(#p9343d93a63)" d="M 251.851153 173.395697 
L 251.933018 167.436569 
L 264.961048 171.302224 
L 264.839875 177.282368 
z
" style="fill:#16023f;"/>
    <path clip-path="url(#p9343d93a63)" d="M 284.848695 174.43298 
L 298.036935 178.33102 
L 298.042931 178.16848 
L 284.853592 174.271009 
z
" style="fill:#0b0777;"/>
    <path clip-path="url(#p9343d93a63)" d="M 284.848695 174.43298 
L 284.853934 174.259695 
L 298.04335 178.157127 
L 298.036935 178.33102 
z
" style="fill:#050338;"/>
    <path clip-path="url(#p9343d93a63)" d="M 213.47584 116.050651 
L 226.337288 119.647147 
L 233.708116 113.442663 
L 220.927389 109.913501 
z
" style="fill:#a44154;"/>
    <path clip-path="url(#p9343d93a63)" d="M 178.361455 178.049733 
L 186.143392 171.330164 
L 198.736391 175.194243 
L 191.031582 181.987547 
z
" style="fill:#0c044a;"/>
    <path clip-path="url(#p9343d93a63)" d="M 178.333943 176.85409 
L 191.011542 180.787696 
L 198.721132 174.001667 
L 186.120751 170.14176 
z
" style="fill:#11056a;"/>
    <path clip-path="url(#p9343d93a63)" d="M 226.292478 165.747667 
L 226.375918 79.904801 
L 233.887451 73.96354 
L 233.500008 159.25588 
z
" style="fill:#d4dc1e;"/>
    <path clip-path="url(#p9343d93a63)" d="M 157.822766 180.928173 
L 157.813983 180.664714 
L 165.821467 173.892881 
L 165.82912 174.154745 
z
" style="fill:#0b0777;"/>
    <path clip-path="url(#p9343d93a63)" d="M 211.467294 179.100638 
L 218.949524 172.361429 
L 231.739835 176.23678 
L 224.338378 183.050047 
z
" style="fill:#875f19;"/>
    <path clip-path="url(#p9343d93a63)" d="M 244.670417 180.154631 
L 244.731491 174.159037 
L 251.933018 167.436569 
L 251.851153 173.395697 
z
" style="fill:#2f0486;"/>
    <path clip-path="url(#p9343d93a63)" d="M 277.971253 181.211726 
L 277.97594 181.037385 
L 284.853934 174.259695 
L 284.848695 174.43298 
z
" style="fill:#0b0777;"/>
    <path clip-path="url(#p9343d93a63)" d="M 277.971253 181.211726 
L 284.848695 174.43298 
L 284.862822 173.965682 
L 277.983893 180.741579 
z
" style="fill:#070339;"/>
    <path clip-path="url(#p9343d93a63)" d="M 198.736391 175.194243 
L 198.636288 167.370687 
L 211.416692 171.249434 
L 211.467294 179.100638 
z
" style="fill:#1a0241;"/>
    <path clip-path="url(#p9343d93a63)" d="M 206.004731 135.981033 
L 218.861679 139.697652 
L 226.324031 133.286012 
L 213.547492 129.639172 
z
" style="fill:#851e70;"/>
    <path clip-path="url(#p9343d93a63)" d="M 244.670417 180.154631 
L 251.851153 173.395697 
L 264.839875 177.282368 
L 257.743589 184.115686 
z
" style="fill:#1c0251;"/>
    <path clip-path="url(#p9343d93a63)" d="M 191.031582 181.987547 
L 198.736391 175.194243 
L 198.721132 174.001667 
L 191.011542 180.787696 
z
" style="fill:#09033a;"/>
    <path clip-path="url(#p9343d93a63)" d="M 211.467294 179.100638 
L 218.949524 172.361429 
L 218.898768 153.488738 
L 211.344905 160.111344 
z
" style="fill:#300046;"/>
    <path clip-path="url(#p9343d93a63)" d="M 264.839875 177.282368 
L 277.971253 181.211726 
L 277.983893 180.741579 
L 264.849368 176.813868 
z
" style="fill:#0e0678;"/>
    <path clip-path="url(#p9343d93a63)" d="M 264.839875 177.282368 
L 264.849608 176.80201 
L 277.984213 180.729679 
L 277.971253 181.211726 
z
" style="fill:#070339;"/>
    <path clip-path="url(#p9343d93a63)" d="M 251.851153 173.395697 
L 258.898031 166.762758 
L 259.797787 114.449711 
L 252.57436 120.751892 
z
" style="fill:#5f2c27;"/>
    <path clip-path="url(#p9343d93a63)" d="M 157.822766 180.928173 
L 165.82912 174.154745 
L 178.361455 178.049733 
L 170.430723 184.897786 
z
" style="fill:#070448;"/>
    <path clip-path="url(#p9343d93a63)" d="M 157.813983 180.664714 
L 170.423565 184.633399 
L 178.355409 177.78695 
L 165.821467 173.892881 
z
" style="fill:#0a0667;"/>
    <path clip-path="url(#p9343d93a63)" d="M 277.971253 181.211726 
L 284.848695 174.43298 
L 298.036935 178.33102 
L 291.24765 185.184478 
z
" style="fill:#070448;"/>
    <path clip-path="url(#p9343d93a63)" d="M 277.97594 181.037385 
L 291.25353 185.009524 
L 298.04335 178.157127 
L 284.853934 174.259695 
z
" style="fill:#0a0667;"/>
    <path clip-path="url(#p9343d93a63)" d="M 191.031582 181.987547 
L 190.900108 174.116018 
L 198.636288 167.370687 
L 198.736391 175.194243 
z
" style="fill:#360389;"/>
    <path clip-path="url(#p9343d93a63)" d="M 178.361455 178.049733 
L 178.349445 177.527779 
L 191.022834 181.463757 
L 191.031582 181.987547 
z
" style="fill:#070339;"/>
    <path clip-path="url(#p9343d93a63)" d="M 178.361455 178.049733 
L 191.031582 181.987547 
L 191.011542 180.787696 
L 178.333943 176.85409 
z
" style="fill:#13067a;"/>
    <path clip-path="url(#p9343d93a63)" d="M 198.494284 156.272394 
L 211.344905 160.111344 
L 218.898768 153.488738 
L 206.128215 149.722057 
z
" style="fill:#590181;"/>
    <path clip-path="url(#p9343d93a63)" d="M 198.736391 175.194243 
L 211.467294 179.100638 
L 211.344905 160.111344 
L 198.494284 156.272394 
z
" style="fill:#660195;"/>
    <path clip-path="url(#p9343d93a63)" d="M 191.031582 181.987547 
L 198.736391 175.194243 
L 211.467294 179.100638 
L 203.841786 185.968896 
z
" style="fill:#210253;"/>
    <path clip-path="url(#p9343d93a63)" d="M 239.002775 169.551023 
L 251.851153 173.395697 
L 252.57436 120.751892 
L 239.386109 117.098559 
z
" style="fill:#ca5e53;"/>
    <path clip-path="url(#p9343d93a63)" d="M 257.743589 184.115686 
L 257.751693 183.632397 
L 264.849608 176.80201 
L 264.839875 177.282368 
z
" style="fill:#0e0678;"/>
    <path clip-path="url(#p9343d93a63)" d="M 244.731491 174.159037 
L 257.844489 178.098899 
L 264.961048 171.302224 
L 251.933018 167.436569 
z
" style="fill:#290375;"/>
    <path clip-path="url(#p9343d93a63)" d="M 239.002775 169.551023 
L 246.131049 162.989229 
L 247.057799 77.379717 
L 239.632475 83.387793 
z
" style="fill:#64680e;"/>
    <path clip-path="url(#p9343d93a63)" d="M 170.430723 184.897786 
L 178.361455 178.049733 
L 178.355409 177.78695 
L 170.423565 184.633399 
z
" style="fill:#050338;"/>
    <path clip-path="url(#p9343d93a63)" d="M 170.430723 184.897786 
L 170.416506 184.372647 
L 178.349445 177.527779 
L 178.361455 178.049733 
z
" style="fill:#0e0678;"/>
    <path clip-path="url(#p9343d93a63)" d="M 224.338378 183.050047 
L 231.739835 176.23678 
L 244.670417 180.154631 
L 237.351973 187.043183 
z
" style="fill:#834b25;"/>
    <path clip-path="url(#p9343d93a63)" d="M 257.743589 184.115686 
L 264.839875 177.282368 
L 264.961048 171.302224 
L 257.844489 178.098899 
z
" style="fill:#16023f;"/>
    <path clip-path="url(#p9343d93a63)" d="M 291.24765 185.184478 
L 298.036935 178.33102 
L 298.04335 178.157127 
L 291.25353 185.009524 
z
" style="fill:#050338;"/>
    <path clip-path="url(#p9343d93a63)" d="M 239.002775 169.551023 
L 239.440094 109.711754 
L 252.676225 113.336939 
L 251.851153 173.395697 
z
" style="fill:#65381f;"/>
    <path clip-path="url(#p9343d93a63)" d="M 226.292478 165.747667 
L 226.372526 83.395087 
L 239.606867 86.89188 
L 239.002775 169.551023 
z
" style="fill:#666010;"/>
    <path clip-path="url(#p9343d93a63)" d="M 257.743589 184.115686 
L 264.839875 177.282368 
L 277.971253 181.211726 
L 270.961723 188.120663 
z
" style="fill:#090449;"/>
    <path clip-path="url(#p9343d93a63)" d="M 226.292478 165.747667 
L 239.002775 169.551023 
L 239.632475 83.387793 
L 226.375918 79.904801 
z
" style="fill:#d4dc1e;"/>
    <path clip-path="url(#p9343d93a63)" d="M 257.751693 183.632397 
L 270.973097 187.635671 
L 277.984213 180.729679 
L 264.849608 176.80201 
z
" style="fill:#0c0668;"/>
    <path clip-path="url(#p9343d93a63)" d="M 157.822766 180.928173 
L 157.818295 180.794041 
L 170.427078 184.763182 
L 170.430723 184.897786 
z
" style="fill:#050338;"/>
    <path clip-path="url(#p9343d93a63)" d="M 157.822766 180.928173 
L 170.430723 184.897786 
L 170.423565 184.633399 
L 157.813983 180.664714 
z
" style="fill:#0b0777;"/>
    <path clip-path="url(#p9343d93a63)" d="M 244.670417 180.154631 
L 257.743589 184.115686 
L 257.844489 178.098899 
L 244.731491 174.159037 
z
" style="fill:#2f0486;"/>
    <path clip-path="url(#p9343d93a63)" d="M 277.971253 181.211726 
L 277.975425 181.056535 
L 291.252884 185.028742 
L 291.24765 185.184478 
z
" style="fill:#050338;"/>
    <path clip-path="url(#p9343d93a63)" d="M 277.971253 181.211726 
L 291.24765 185.184478 
L 291.25353 185.009524 
L 277.97594 181.037385 
z
" style="fill:#0b0777;"/>
    <path clip-path="url(#p9343d93a63)" d="M 190.900108 174.116018 
L 203.76043 178.069484 
L 211.416692 171.249434 
L 198.636288 167.370687 
z
" style="fill:#2f0377;"/>
    <path clip-path="url(#p9343d93a63)" d="M 170.430723 184.897786 
L 178.361455 178.049733 
L 191.031582 181.987547 
L 183.178635 188.911464 
z
" style="fill:#090449;"/>
    <path clip-path="url(#p9343d93a63)" d="M 231.739835 176.23678 
L 231.962708 116.01658 
L 239.440094 109.711754 
L 239.002775 169.551023 
z
" style="fill:#d67642;"/>
    <path clip-path="url(#p9343d93a63)" d="M 218.949524 172.361429 
L 218.726615 89.476754 
L 226.372526 83.395087 
L 226.292478 165.747667 
z
" style="fill:#d9cd22;"/>
    <path clip-path="url(#p9343d93a63)" d="M 244.670417 180.154631 
L 244.754445 171.905722 
L 257.882411 175.837567 
L 257.743589 184.115686 
z
" style="fill:#1b0141;"/>
    <path clip-path="url(#p9343d93a63)" d="M 170.416506 184.372647 
L 183.167719 188.384474 
L 191.022834 181.463757 
L 178.349445 177.527779 
z
" style="fill:#0c0668;"/>
    <path clip-path="url(#p9343d93a63)" d="M 203.841786 185.968896 
L 211.467294 179.100638 
L 211.416692 171.249434 
L 203.76043 178.069484 
z
" style="fill:#1a0241;"/>
    <path clip-path="url(#p9343d93a63)" d="M 233.848908 82.448497 
L 246.965586 85.897962 
L 254.220353 79.947388 
L 241.188329 76.563205 
z
" style="fill:#c1a01c;"/>
    <path clip-path="url(#p9343d93a63)" d="M 149.662704 187.831639 
L 149.657636 187.696689 
L 157.818295 180.794041 
L 157.822766 180.928173 
z
" style="fill:#0b0777;"/>
    <path clip-path="url(#p9343d93a63)" d="M 191.031582 181.987547 
L 190.987758 179.363701 
L 203.814668 183.335794 
L 203.841786 185.968896 
z
" style="fill:#0d023b;"/>
    <path clip-path="url(#p9343d93a63)" d="M 203.841786 185.968896 
L 211.467294 179.100638 
L 224.338378 183.050047 
L 216.794403 189.994506 
z
" style="fill:#7a3932;"/>
    <path clip-path="url(#p9343d93a63)" d="M 270.961723 188.120663 
L 270.965385 187.964525 
L 277.975425 181.056535 
L 277.971253 181.211726 
z
" style="fill:#0b0777;"/>
    <path clip-path="url(#p9343d93a63)" d="M 270.961723 188.120663 
L 277.971253 181.211726 
L 277.984213 180.729679 
L 270.973097 187.635671 
z
" style="fill:#070339;"/>
    <path clip-path="url(#p9343d93a63)" d="M 237.351973 187.043183 
L 237.406273 178.743591 
L 244.754445 171.905722 
L 244.670417 180.154631 
z
" style="fill:#39038b;"/>
    <path clip-path="url(#p9343d93a63)" d="M 191.031582 181.987547 
L 203.841786 185.968896 
L 203.76043 178.069484 
L 190.900108 174.116018 
z
" style="fill:#360389;"/>
    <path clip-path="url(#p9343d93a63)" d="M 183.178635 188.911464 
L 191.031582 181.987547 
L 191.022834 181.463757 
L 183.167719 188.384474 
z
" style="fill:#070339;"/>
    <path clip-path="url(#p9343d93a63)" d="M 237.351973 187.043183 
L 244.670417 180.154631 
L 257.743589 184.115686 
L 250.510457 191.080779 
z
" style="fill:#230254;"/>
    <path clip-path="url(#p9343d93a63)" d="M 183.178635 188.911464 
L 183.123956 186.271558 
L 190.987758 179.363701 
L 191.031582 181.987547 
z
" style="fill:#1c057e;"/>
    <path clip-path="url(#p9343d93a63)" d="M 257.743589 184.115686 
L 270.961723 188.120663 
L 270.973097 187.635671 
L 257.751693 183.632397 
z
" style="fill:#0e0678;"/>
    <path clip-path="url(#p9343d93a63)" d="M 257.743589 184.115686 
L 257.753715 183.511834 
L 270.975935 187.514683 
L 270.961723 188.120663 
z
" style="fill:#070339;"/>
    <path clip-path="url(#p9343d93a63)" d="M 149.662704 187.831639 
L 157.822766 180.928173 
L 170.430723 184.897786 
L 162.346885 191.878042 
z
" style="fill:#070448;"/>
    <path clip-path="url(#p9343d93a63)" d="M 149.657636 187.696689 
L 162.342654 191.742616 
L 170.427078 184.763182 
L 157.818295 180.794041 
z
" style="fill:#0a0667;"/>
    <path clip-path="url(#p9343d93a63)" d="M 239.386109 117.098559 
L 252.57436 120.751892 
L 259.797787 114.449711 
L 246.695302 110.86573 
z
" style="fill:#af5148;"/>
    <path clip-path="url(#p9343d93a63)" d="M 270.961723 188.120663 
L 277.971253 181.211726 
L 291.24765 185.184478 
L 284.327244 192.170297 
z
" style="fill:#070448;"/>
    <path clip-path="url(#p9343d93a63)" d="M 270.965385 187.964525 
L 284.331982 192.013608 
L 291.252884 185.028742 
L 277.975425 181.056535 
z
" style="fill:#0a0667;"/>
    <path clip-path="url(#p9343d93a63)" d="M 170.430723 184.897786 
L 170.422489 184.593649 
L 183.172313 188.606256 
L 183.178635 188.911464 
z
" style="fill:#050338;"/>
    <path clip-path="url(#p9343d93a63)" d="M 170.430723 184.897786 
L 183.178635 188.911464 
L 183.167719 188.384474 
L 170.416506 184.372647 
z
" style="fill:#0e0678;"/>
    <path clip-path="url(#p9343d93a63)" d="M 218.949524 172.361429 
L 218.757684 101.029179 
L 232.004811 104.640327 
L 231.739835 176.23678 
z
" style="fill:#6a4a14;"/>
    <path clip-path="url(#p9343d93a63)" d="M 183.178635 188.911464 
L 191.031582 181.987547 
L 203.841786 185.968896 
L 196.068846 192.969946 
z
" style="fill:#11034c;"/>
    <path clip-path="url(#p9343d93a63)" d="M 244.670417 180.154631 
L 251.851153 173.395697 
L 252.676225 113.336939 
L 245.286114 119.712857 
z
" style="fill:#65381f;"/>
    <path clip-path="url(#p9343d93a63)" d="M 231.739835 176.23678 
L 239.002775 169.551023 
L 239.606867 86.89188 
L 232.047734 93.042497 
z
" style="fill:#666010;"/>
    <path clip-path="url(#p9343d93a63)" d="M 250.510457 191.080779 
L 250.518467 190.473234 
L 257.753715 183.511834 
L 257.743589 184.115686 
z
" style="fill:#0e0678;"/>
    <path clip-path="url(#p9343d93a63)" d="M 162.346885 191.878042 
L 170.430723 184.897786 
L 170.427078 184.763182 
L 162.342654 191.742616 
z
" style="fill:#050338;"/>
    <path clip-path="url(#p9343d93a63)" d="M 183.123956 186.271558 
L 196.031081 190.320708 
L 203.814668 183.335794 
L 190.987758 179.363701 
z
" style="fill:#18046d;"/>
    <path clip-path="url(#p9343d93a63)" d="M 162.346885 191.878042 
L 162.337325 191.572046 
L 170.422489 184.593649 
L 170.430723 184.897786 
z
" style="fill:#0b0777;"/>
    <path clip-path="url(#p9343d93a63)" d="M 211.467294 179.100638 
L 211.004589 107.309843 
L 218.757684 101.029179 
L 218.949524 172.361429 
z
" style="fill:#e09d2a;"/>
    <path clip-path="url(#p9343d93a63)" d="M 216.794403 189.994506 
L 224.338378 183.050047 
L 237.351973 187.043183 
L 229.891821 194.06512 
z
" style="fill:#7d3d2f;"/>
    <path clip-path="url(#p9343d93a63)" d="M 237.406273 178.743591 
L 250.620273 182.751731 
L 257.882411 175.837567 
L 244.754445 171.905722 
z
" style="fill:#320378;"/>
    <path clip-path="url(#p9343d93a63)" d="M 284.327244 192.170297 
L 291.24765 185.184478 
L 291.252884 185.028742 
L 284.331982 192.013608 
z
" style="fill:#050338;"/>
    <path clip-path="url(#p9343d93a63)" d="M 231.739835 176.23678 
L 244.670417 180.154631 
L 245.286114 119.712857 
L 231.962708 116.01658 
z
" style="fill:#d67642;"/>
    <path clip-path="url(#p9343d93a63)" d="M 218.949524 172.361429 
L 231.739835 176.23678 
L 232.047734 93.042497 
L 218.726615 89.476754 
z
" style="fill:#d9cd22;"/>
    <path clip-path="url(#p9343d93a63)" d="M 250.510457 191.080779 
L 257.743589 184.115686 
L 257.882411 175.837567 
L 250.620273 182.751731 
z
" style="fill:#1b0141;"/>
    <path clip-path="url(#p9343d93a63)" d="M 231.739835 176.23678 
L 231.969404 114.207365 
L 245.304615 117.896677 
L 244.670417 180.154631 
z
" style="fill:#663a1d;"/>
    <path clip-path="url(#p9343d93a63)" d="M 250.510457 191.080779 
L 257.743589 184.115686 
L 270.961723 188.120663 
L 263.816264 195.163579 
z
" style="fill:#090449;"/>
    <path clip-path="url(#p9343d93a63)" d="M 250.518467 190.473234 
L 263.828414 194.553889 
L 270.975935 187.514683 
L 257.753715 183.511834 
z
" style="fill:#0c0668;"/>
    <path clip-path="url(#p9343d93a63)" d="M 149.662704 187.831639 
L 149.659267 187.74013 
L 162.344016 191.78621 
L 162.346885 191.878042 
z
" style="fill:#050338;"/>
    <path clip-path="url(#p9343d93a63)" d="M 149.662704 187.831639 
L 162.346885 191.878042 
L 162.342654 191.742616 
L 149.657636 187.696689 
z
" style="fill:#0b0777;"/>
    <path clip-path="url(#p9343d93a63)" d="M 196.068846 192.969946 
L 203.841786 185.968896 
L 203.814668 183.335794 
L 196.031081 190.320708 
z
" style="fill:#0d023b;"/>
    <path clip-path="url(#p9343d93a63)" d="M 270.961723 188.120663 
L 284.327244 192.170297 
L 284.331982 192.013608 
L 270.965385 187.964525 
z
" style="fill:#0b0777;"/>
    <path clip-path="url(#p9343d93a63)" d="M 270.961723 188.120663 
L 270.966871 187.901172 
L 284.333905 191.950032 
L 284.327244 192.170297 
z
" style="fill:#050338;"/>
    <path clip-path="url(#p9343d93a63)" d="M 162.346885 191.878042 
L 170.430723 184.897786 
L 183.178635 188.911464 
L 175.173234 195.969799 
z
" style="fill:#070448;"/>
    <path clip-path="url(#p9343d93a63)" d="M 162.337325 191.572046 
L 175.16561 195.662722 
L 183.172313 188.606256 
L 170.422489 184.593649 
z
" style="fill:#0a0667;"/>
    <path clip-path="url(#p9343d93a63)" d="M 237.351973 187.043183 
L 250.510457 191.080779 
L 250.620273 182.751731 
L 237.406273 178.743591 
z
" style="fill:#39038b;"/>
    <path clip-path="url(#p9343d93a63)" d="M 211.467294 179.100638 
L 211.126093 126.161646 
L 224.338378 129.917113 
L 224.338378 183.050047 
z
" style="fill:#5f2c27;"/>
    <path clip-path="url(#p9343d93a63)" d="M 224.338378 183.050047 
L 224.338378 120.624001 
L 231.969404 114.207365 
L 231.739835 176.23678 
z
" style="fill:#d97c3e;"/>
    <path clip-path="url(#p9343d93a63)" d="M 183.178635 188.911464 
L 183.155198 187.779928 
L 196.052659 191.834414 
L 196.068846 192.969946 
z
" style="fill:#09033a;"/>
    <path clip-path="url(#p9343d93a63)" d="M 237.351973 187.043183 
L 237.433138 174.637406 
L 250.674606 178.63083 
L 250.510457 191.080779 
z
" style="fill:#230144;"/>
    <path clip-path="url(#p9343d93a63)" d="M 141.344465 194.868925 
L 141.340608 194.776855 
L 149.659267 187.74013 
L 149.662704 187.831639 
z
" style="fill:#0b0777;"/>
    <path clip-path="url(#p9343d93a63)" d="M 183.178635 188.911464 
L 196.068846 192.969946 
L 196.031081 190.320708 
L 183.123956 186.271558 
z
" style="fill:#1c057e;"/>
    <path clip-path="url(#p9343d93a63)" d="M 196.068846 192.969946 
L 203.841786 185.968896 
L 216.794403 189.994506 
L 209.103753 197.073984 
z
" style="fill:#5c144f;"/>
    <path clip-path="url(#p9343d93a63)" d="M 263.816264 195.163579 
L 263.820665 194.942745 
L 270.966871 187.901172 
L 270.961723 188.120663 
z
" style="fill:#0b0777;"/>
    <path clip-path="url(#p9343d93a63)" d="M 263.816264 195.163579 
L 270.961723 188.120663 
L 270.975935 187.514683 
L 263.828414 194.553889 
z
" style="fill:#070339;"/>
    <path clip-path="url(#p9343d93a63)" d="M 203.841786 185.968896 
L 203.293098 132.693332 
L 211.126093 126.161646 
L 211.467294 179.100638 
z
" style="fill:#ca5e53;"/>
    <path clip-path="url(#p9343d93a63)" d="M 175.173234 195.969799 
L 183.178635 188.911464 
L 183.172313 188.606256 
L 175.16561 195.662722 
z
" style="fill:#050338;"/>
    <path clip-path="url(#p9343d93a63)" d="M 224.338378 183.050047 
L 231.739835 176.23678 
L 232.004811 104.640327 
L 224.338378 110.9925 
z
" style="fill:#6a4a14;"/>
    <path clip-path="url(#p9343d93a63)" d="M 229.891821 194.06512 
L 237.351973 187.043183 
L 250.510457 191.080779 
L 243.136481 198.181496 
z
" style="fill:#2d0157;"/>
    <path clip-path="url(#p9343d93a63)" d="M 175.173234 195.969799 
L 175.144967 194.831331 
L 183.155198 187.779928 
L 183.178635 188.911464 
z
" style="fill:#13067a;"/>
    <path clip-path="url(#p9343d93a63)" d="M 229.891821 194.06512 
L 229.926795 181.582701 
L 237.433138 174.637406 
L 237.351973 187.043183 
z
" style="fill:#4b0190;"/>
    <path clip-path="url(#p9343d93a63)" d="M 250.510457 191.080779 
L 250.514867 190.746235 
L 263.822954 194.827854 
L 263.816264 195.163579 
z
" style="fill:#050338;"/>
    <path clip-path="url(#p9343d93a63)" d="M 250.510457 191.080779 
L 263.816264 195.163579 
L 263.828414 194.553889 
L 250.518467 190.473234 
z
" style="fill:#0e0678;"/>
    <path clip-path="url(#p9343d93a63)" d="M 141.344465 194.868925 
L 149.662704 187.831639 
L 162.346885 191.878042 
L 154.105465 198.994368 
z
" style="fill:#070448;"/>
    <path clip-path="url(#p9343d93a63)" d="M 141.340608 194.776855 
L 154.102183 198.901973 
L 162.344016 191.78621 
L 149.659267 187.74013 
z
" style="fill:#0a0667;"/>
    <path clip-path="url(#p9343d93a63)" d="M 263.816264 195.163579 
L 270.961723 188.120663 
L 284.327244 192.170297 
L 277.271882 199.292348 
z
" style="fill:#070448;"/>
    <path clip-path="url(#p9343d93a63)" d="M 263.820665 194.942745 
L 277.277816 199.070734 
L 284.333905 191.950032 
L 270.966871 187.901172 
z
" style="fill:#0a0667;"/>
    <path clip-path="url(#p9343d93a63)" d="M 162.346885 191.878042 
L 162.339995 191.657525 
L 175.167739 195.748503 
L 175.173234 195.969799 
z
" style="fill:#050338;"/>
    <path clip-path="url(#p9343d93a63)" d="M 162.346885 191.878042 
L 175.173234 195.969799 
L 175.16561 195.662722 
L 162.337325 191.572046 
z
" style="fill:#0b0777;"/>
    <path clip-path="url(#p9343d93a63)" d="M 203.841786 185.968896 
L 203.503205 153.093956 
L 216.669081 157.000667 
L 216.794403 189.994506 
z
" style="fill:#48103d;"/>
    <path clip-path="url(#p9343d93a63)" d="M 211.467294 179.100638 
L 224.338378 183.050047 
L 224.338378 110.9925 
L 211.004589 107.309843 
z
" style="fill:#e09d2a;"/>
    <path clip-path="url(#p9343d93a63)" d="M 226.375918 79.904801 
L 239.632475 83.387793 
L 247.057799 77.379717 
L 233.887451 73.96354 
z
" style="fill:#b8bf1a;"/>
    <path clip-path="url(#p9343d93a63)" d="M 175.173234 195.969799 
L 183.178635 188.911464 
L 196.068846 192.969946 
L 188.144156 200.107676 
z
" style="fill:#0c044a;"/>
    <path clip-path="url(#p9343d93a63)" d="M 243.136481 198.181496 
L 243.13968 197.844903 
L 250.514867 190.746235 
L 250.510457 191.080779 
z
" style="fill:#0b0777;"/>
    <path clip-path="url(#p9343d93a63)" d="M 175.144967 194.831331 
L 188.123229 198.96518 
L 196.052659 191.834414 
L 183.155198 187.779928 
z
" style="fill:#11056a;"/>
    <path clip-path="url(#p9343d93a63)" d="M 237.351973 187.043183 
L 244.670417 180.154631 
L 245.304615 117.896677 
L 237.761908 124.386444 
z
" style="fill:#663a1d;"/>
    <path clip-path="url(#p9343d93a63)" d="M 224.338378 183.050047 
L 224.338378 127.321736 
L 237.717919 131.109972 
L 237.351973 187.043183 
z
" style="fill:#613024;"/>
    <path clip-path="url(#p9343d93a63)" d="M 154.105465 198.994368 
L 162.346885 191.878042 
L 162.344016 191.78621 
L 154.102183 198.901973 
z
" style="fill:#050338;"/>
    <path clip-path="url(#p9343d93a63)" d="M 154.105465 198.994368 
L 154.097584 198.772499 
L 162.339995 191.657525 
L 162.346885 191.878042 
z
" style="fill:#0b0777;"/>
    <path clip-path="url(#p9343d93a63)" d="M 196.068846 192.969946 
L 195.597275 159.888686 
L 203.503205 153.093956 
L 203.841786 185.968896 
z
" style="fill:#982182;"/>
    <path clip-path="url(#p9343d93a63)" d="M 209.103753 197.073984 
L 216.794403 189.994506 
L 229.891821 194.06512 
L 222.285805 201.224351 
z
" style="fill:#6c2640;"/>
    <path clip-path="url(#p9343d93a63)" d="M 277.271882 199.292348 
L 284.327244 192.170297 
L 284.333905 191.950032 
L 277.277816 199.070734 
z
" style="fill:#050338;"/>
    <path clip-path="url(#p9343d93a63)" d="M 216.794403 189.994506 
L 224.338378 183.050047 
L 224.338378 129.917113 
L 216.5913 136.523213 
z
" style="fill:#5f2c27;"/>
    <path clip-path="url(#p9343d93a63)" d="M 231.962708 116.01658 
L 245.286114 119.712857 
L 252.676225 113.336939 
L 239.440094 109.711754 
z
" style="fill:#ba6639;"/>
    <path clip-path="url(#p9343d93a63)" d="M 224.338378 183.050047 
L 237.351973 187.043183 
L 237.761908 124.386444 
L 224.338378 120.624001 
z
" style="fill:#d97c3e;"/>
    <path clip-path="url(#p9343d93a63)" d="M 243.136481 198.181496 
L 250.510457 191.080779 
L 263.816264 195.163579 
L 256.530882 202.34441 
z
" style="fill:#070448;"/>
    <path clip-path="url(#p9343d93a63)" d="M 216.794403 189.994506 
L 216.581376 133.910606 
L 224.338378 127.321736 
L 224.338378 183.050047 
z
" style="fill:#ce654d;"/>
    <path clip-path="url(#p9343d93a63)" d="M 188.144156 200.107676 
L 196.068846 192.969946 
L 196.052659 191.834414 
L 188.123229 198.96518 
z
" style="fill:#09033a;"/>
    <path clip-path="url(#p9343d93a63)" d="M 243.13968 197.844903 
L 256.536391 202.006626 
L 263.822954 194.827854 
L 250.514867 190.746235 
z
" style="fill:#0a0667;"/>
    <path clip-path="url(#p9343d93a63)" d="M 243.136481 198.181496 
L 250.510457 191.080779 
L 250.674606 178.63083 
L 243.255537 185.654538 
z
" style="fill:#230144;"/>
    <path clip-path="url(#p9343d93a63)" d="M 141.344465 194.868925 
L 154.105465 198.994368 
L 154.102183 198.901973 
L 141.340608 194.776855 
z
" style="fill:#0b0777;"/>
    <path clip-path="url(#p9343d93a63)" d="M 229.926795 181.582701 
L 243.255537 185.654538 
L 250.674606 178.63083 
L 237.433138 174.637406 
z
" style="fill:#41017d;"/>
    <path clip-path="url(#p9343d93a63)" d="M 263.816264 195.163579 
L 277.271882 199.292348 
L 277.277816 199.070734 
L 263.820665 194.942745 
z
" style="fill:#0b0777;"/>
    <path clip-path="url(#p9343d93a63)" d="M 263.816264 195.163579 
L 263.821389 194.906368 
L 277.278793 199.034228 
L 277.271882 199.292348 
z
" style="fill:#050338;"/>
    <path clip-path="url(#p9343d93a63)" d="M 154.105465 198.994368 
L 162.346885 191.878042 
L 175.173234 195.969799 
L 167.010898 203.166503 
z
" style="fill:#070448;"/>
    <path clip-path="url(#p9343d93a63)" d="M 154.097584 198.772499 
L 167.004428 202.94385 
L 175.167739 195.748503 
L 162.339995 191.657525 
z
" style="fill:#0a0667;"/>
    <path clip-path="url(#p9343d93a63)" d="M 203.841786 185.968896 
L 216.794403 189.994506 
L 216.5913 136.523213 
L 203.293098 132.693332 
z
" style="fill:#ca5e53;"/>
    <path clip-path="url(#p9343d93a63)" d="M 175.173234 195.969799 
L 175.160669 195.463733 
L 188.134853 199.599821 
L 188.144156 200.107676 
z
" style="fill:#070339;"/>
    <path clip-path="url(#p9343d93a63)" d="M 196.068846 192.969946 
L 195.823177 175.735954 
L 208.970611 179.778286 
L 209.103753 197.073984 
z
" style="fill:#2c0046;"/>
    <path clip-path="url(#p9343d93a63)" d="M 175.173234 195.969799 
L 188.144156 200.107676 
L 188.123229 198.96518 
L 175.144967 194.831331 
z
" style="fill:#13067a;"/>
    <path clip-path="url(#p9343d93a63)" d="M 229.891821 194.06512 
L 243.136481 198.181496 
L 243.255537 185.654538 
L 229.926795 181.582701 
z
" style="fill:#4b0190;"/>
    <path clip-path="url(#p9343d93a63)" d="M 188.144156 200.107676 
L 196.068846 192.969946 
L 209.103753 197.073984 
L 201.262108 204.292457 
z
" style="fill:#39005a;"/>
    <path clip-path="url(#p9343d93a63)" d="M 229.891821 194.06512 
L 229.931176 180.018923 
L 243.270452 184.085118 
L 243.136481 198.181496 
z
" style="fill:#270045;"/>
    <path clip-path="url(#p9343d93a63)" d="M 256.530882 202.34441 
L 256.535103 202.085622 
L 263.821389 194.906368 
L 263.816264 195.163579 
z
" style="fill:#0b0777;"/>
    <path clip-path="url(#p9343d93a63)" d="M 256.530882 202.34441 
L 263.816264 195.163579 
L 263.822954 194.827854 
L 256.536391 202.006626 
z
" style="fill:#050338;"/>
    <path clip-path="url(#p9343d93a63)" d="M 167.010898 203.166503 
L 175.173234 195.969799 
L 175.167739 195.748503 
L 167.004428 202.94385 
z
" style="fill:#050338;"/>
    <path clip-path="url(#p9343d93a63)" d="M 209.103753 197.073984 
L 216.794403 189.994506 
L 216.669081 157.000667 
L 208.84817 163.872789 
z
" style="fill:#48103d;"/>
    <path clip-path="url(#p9343d93a63)" d="M 167.010898 203.166503 
L 166.996103 202.657333 
L 175.160669 195.463733 
L 175.173234 195.969799 
z
" style="fill:#0e0678;"/>
    <path clip-path="url(#p9343d93a63)" d="M 222.285805 201.224351 
L 229.891821 194.06512 
L 243.136481 198.181496 
L 235.617509 205.421836 
z
" style="fill:#310058;"/>
    <path clip-path="url(#p9343d93a63)" d="M 188.144156 200.107676 
L 187.826522 182.766619 
L 195.823177 175.735954 
L 196.068846 192.969946 
z
" style="fill:#5e0094;"/>
    <path clip-path="url(#p9343d93a63)" d="M 216.794403 189.994506 
L 216.631963 147.228697 
L 230.012083 151.143239 
L 229.891821 194.06512 
z
" style="fill:#541d32;"/>
    <path clip-path="url(#p9343d93a63)" d="M 218.726615 89.476754 
L 232.047734 93.042497 
L 239.606867 86.89188 
L 226.372526 83.395087 
z
" style="fill:#bcb21d;"/>
    <path clip-path="url(#p9343d93a63)" d="M 222.285805 201.224351 
L 222.271116 187.091089 
L 229.931176 180.018923 
L 229.891821 194.06512 
z
" style="fill:#520192;"/>
    <path clip-path="url(#p9343d93a63)" d="M 243.136481 198.181496 
L 256.530882 202.34441 
L 256.536391 202.006626 
L 243.13968 197.844903 
z
" style="fill:#0b0777;"/>
    <path clip-path="url(#p9343d93a63)" d="M 243.136481 198.181496 
L 243.140242 197.785768 
L 256.537359 201.947282 
L 256.530882 202.34441 
z
" style="fill:#070339;"/>
    <path clip-path="url(#p9343d93a63)" d="M 256.530882 202.34441 
L 263.816264 195.163579 
L 277.271882 199.292348 
L 270.077576 206.554656 
z
" style="fill:#070448;"/>
    <path clip-path="url(#p9343d93a63)" d="M 229.891821 194.06512 
L 237.351973 187.043183 
L 237.717919 131.109972 
L 230.04954 137.774434 
z
" style="fill:#613024;"/>
    <path clip-path="url(#p9343d93a63)" d="M 256.535103 202.085622 
L 270.083607 206.294952 
L 277.278793 199.034228 
L 263.821389 194.906368 
z
" style="fill:#0a0667;"/>
    <path clip-path="url(#p9343d93a63)" d="M 154.105465 198.994368 
L 167.010898 203.166503 
L 167.004428 202.94385 
L 154.097584 198.772499 
z
" style="fill:#0b0777;"/>
    <path clip-path="url(#p9343d93a63)" d="M 196.068846 192.969946 
L 209.103753 197.073984 
L 208.84817 163.872789 
L 195.597275 159.888686 
z
" style="fill:#982182;"/>
    <path clip-path="url(#p9343d93a63)" d="M 209.103753 197.073984 
L 208.772457 154.037347 
L 216.631963 147.228697 
L 216.794403 189.994506 
z
" style="fill:#b33e6b;"/>
    <path clip-path="url(#p9343d93a63)" d="M 167.010898 203.166503 
L 175.173234 195.969799 
L 188.144156 200.107676 
L 180.063228 207.386128 
z
" style="fill:#090449;"/>
    <path clip-path="url(#p9343d93a63)" d="M 166.996103 202.657333 
L 180.051736 206.875155 
L 188.134853 199.599821 
L 175.160669 195.463733 
z
" style="fill:#0c0668;"/>
    <path clip-path="url(#p9343d93a63)" d="M 235.617509 205.421836 
L 235.619788 205.02368 
L 243.140242 197.785768 
L 243.136481 198.181496 
z
" style="fill:#0e0678;"/>
    <path clip-path="url(#p9343d93a63)" d="M 216.794403 189.994506 
L 229.891821 194.06512 
L 230.04954 137.774434 
L 216.581376 133.910606 
z
" style="fill:#ce654d;"/>
    <path clip-path="url(#p9343d93a63)" d="M 201.262108 204.292457 
L 209.103753 197.073984 
L 222.285805 201.224351 
L 214.529606 208.524945 
z
" style="fill:#510a55;"/>
    <path clip-path="url(#p9343d93a63)" d="M 270.077576 206.554656 
L 277.271882 199.292348 
L 277.278793 199.034228 
L 270.083607 206.294952 
z
" style="fill:#050338;"/>
    <path clip-path="url(#p9343d93a63)" d="M 188.144156 200.107676 
L 188.045325 194.712057 
L 201.198739 198.877665 
L 201.262108 204.292457 
z
" style="fill:#15023f;"/>
    <path clip-path="url(#p9343d93a63)" d="M 211.004589 107.309843 
L 224.338378 110.9925 
L 232.004811 104.640327 
L 218.757684 101.029179 
z
" style="fill:#c28924;"/>
    <path clip-path="url(#p9343d93a63)" d="M 195.597275 159.888686 
L 208.84817 163.872789 
L 216.669081 157.000667 
L 203.503205 153.093956 
z
" style="fill:#841d71;"/>
    <path clip-path="url(#p9343d93a63)" d="M 203.293098 132.693332 
L 216.5913 136.523213 
L 224.338378 129.917113 
L 211.126093 126.161646 
z
" style="fill:#af5148;"/>
    <path clip-path="url(#p9343d93a63)" d="M 180.063228 207.386128 
L 188.144156 200.107676 
L 188.134853 199.599821 
L 180.051736 206.875155 
z
" style="fill:#070339;"/>
    <path clip-path="url(#p9343d93a63)" d="M 235.617509 205.421836 
L 243.136481 198.181496 
L 256.530882 202.34441 
L 249.101427 209.667246 
z
" style="fill:#090449;"/>
    <path clip-path="url(#p9343d93a63)" d="M 201.262108 204.292457 
L 209.103753 197.073984 
L 208.970611 179.778286 
L 201.058437 186.889183 
z
" style="fill:#2c0046;"/>
    <path clip-path="url(#p9343d93a63)" d="M 235.619788 205.02368 
L 249.106458 209.267678 
L 256.537359 201.947282 
L 243.140242 197.785768 
z
" style="fill:#0c0668;"/>
    <path clip-path="url(#p9343d93a63)" d="M 224.338378 120.624001 
L 237.761908 124.386444 
L 245.304615 117.896677 
L 231.969404 114.207365 
z
" style="fill:#bc6b36;"/>
    <path clip-path="url(#p9343d93a63)" d="M 209.103753 197.073984 
L 208.889783 169.278432 
L 222.256812 173.328323 
L 222.285805 201.224351 
z
" style="fill:#3f0843;"/>
    <path clip-path="url(#p9343d93a63)" d="M 235.617509 205.421836 
L 243.136481 198.181496 
L 243.270452 184.085118 
L 235.698689 191.237982 
z
" style="fill:#270045;"/>
    <path clip-path="url(#p9343d93a63)" d="M 256.530882 202.34441 
L 256.532796 202.22705 
L 270.080311 206.436881 
L 270.077576 206.554656 
z
" style="fill:#050338;"/>
    <path clip-path="url(#p9343d93a63)" d="M 256.530882 202.34441 
L 270.077576 206.554656 
L 270.083607 206.294952 
L 256.535103 202.085622 
z
" style="fill:#0b0777;"/>
    <path clip-path="url(#p9343d93a63)" d="M 180.063228 207.386128 
L 179.941136 201.957246 
L 188.045325 194.712057 
L 188.144156 200.107676 
z
" style="fill:#2c0485;"/>
    <path clip-path="url(#p9343d93a63)" d="M 222.271116 187.091089 
L 235.698689 191.237982 
L 243.270452 184.085118 
L 229.931176 180.018923 
z
" style="fill:#47017f;"/>
    <path clip-path="url(#p9343d93a63)" d="M 187.826522 182.766619 
L 201.058437 186.889183 
L 208.970611 179.778286 
L 195.823177 175.735954 
z
" style="fill:#520081;"/>
    <path clip-path="url(#p9343d93a63)" d="M 167.010898 203.166503 
L 180.063228 207.386128 
L 180.051736 206.875155 
L 166.996103 202.657333 
z
" style="fill:#0e0678;"/>
    <path clip-path="url(#p9343d93a63)" d="M 188.144156 200.107676 
L 201.262108 204.292457 
L 201.058437 186.889183 
L 187.826522 182.766619 
z
" style="fill:#5e0094;"/>
    <path clip-path="url(#p9343d93a63)" d="M 222.285805 201.224351 
L 222.273561 189.443108 
L 235.685179 193.598501 
L 235.617509 205.421836 
z
" style="fill:#220144;"/>
    <path clip-path="url(#p9343d93a63)" d="M 222.285805 201.224351 
L 229.891821 194.06512 
L 230.012083 151.143239 
L 222.240912 158.030265 
z
" style="fill:#541d32;"/>
    <path clip-path="url(#p9343d93a63)" d="M 180.063228 207.386128 
L 188.144156 200.107676 
L 201.262108 204.292457 
L 193.264978 211.654059 
z
" style="fill:#1a0250;"/>
    <path clip-path="url(#p9343d93a63)" d="M 201.262108 204.292457 
L 200.934775 176.322566 
L 208.889783 169.278432 
L 209.103753 197.073984 
z
" style="fill:#86118d;"/>
    <path clip-path="url(#p9343d93a63)" d="M 222.285805 201.224351 
L 235.617509 205.421836 
L 235.698689 191.237982 
L 222.271116 187.091089 
z
" style="fill:#520192;"/>
    <path clip-path="url(#p9343d93a63)" d="M 249.101427 209.667246 
L 249.102914 209.549165 
L 256.532796 202.22705 
L 256.530882 202.34441 
z
" style="fill:#0b0777;"/>
    <path clip-path="url(#p9343d93a63)" d="M 249.101427 209.667246 
L 256.530882 202.34441 
L 256.537359 201.947282 
L 249.106458 209.267678 
z
" style="fill:#070339;"/>
    <path clip-path="url(#p9343d93a63)" d="M 214.529606 208.524945 
L 222.285805 201.224351 
L 235.617509 205.421836 
L 227.94922 212.80596 
z
" style="fill:#2b0157;"/>
    <path clip-path="url(#p9343d93a63)" d="M 214.529606 208.524945 
L 214.47051 196.670672 
L 222.273561 189.443108 
L 222.285805 201.224351 
z
" style="fill:#480290;"/>
    <path clip-path="url(#p9343d93a63)" d="M 209.103753 197.073984 
L 222.285805 201.224351 
L 222.240912 158.030265 
L 208.772457 154.037347 
z
" style="fill:#b33e6b;"/>
    <path clip-path="url(#p9343d93a63)" d="M 235.617509 205.421836 
L 235.619273 205.113674 
L 249.105321 209.357991 
L 249.101427 209.667246 
z
" style="fill:#050338;"/>
    <path clip-path="url(#p9343d93a63)" d="M 235.617509 205.421836 
L 249.101427 209.667246 
L 249.106458 209.267678 
L 235.619788 205.02368 
z
" style="fill:#0e0678;"/>
    <path clip-path="url(#p9343d93a63)" d="M 179.941136 201.957246 
L 193.1788 206.205853 
L 201.198739 198.877665 
L 188.045325 194.712057 
z
" style="fill:#260473;"/>
    <path clip-path="url(#p9343d93a63)" d="M 249.101427 209.667246 
L 256.530882 202.34441 
L 270.077576 206.554656 
L 262.740181 213.961405 
z
" style="fill:#070448;"/>
    <path clip-path="url(#p9343d93a63)" d="M 249.102914 209.549165 
L 262.7425 213.842906 
L 270.080311 206.436881 
L 256.532796 202.22705 
z
" style="fill:#0a0667;"/>
    <path clip-path="url(#p9343d93a63)" d="M 201.262108 204.292457 
L 201.145776 194.352097 
L 214.479874 198.549097 
L 214.529606 208.524945 
z
" style="fill:#1e0142;"/>
    <path clip-path="url(#p9343d93a63)" d="M 193.264978 211.654059 
L 201.262108 204.292457 
L 201.198739 198.877665 
L 193.1788 206.205853 
z
" style="fill:#15023f;"/>
    <path clip-path="url(#p9343d93a63)" d="M 216.581376 133.910606 
L 230.04954 137.774434 
L 237.717919 131.109972 
L 224.338378 127.321736 
z
" style="fill:#b35843;"/>
    <path clip-path="url(#p9343d93a63)" d="M 227.94922 212.80596 
L 227.94979 212.495903 
L 235.619273 205.113674 
L 235.617509 205.421836 
z
" style="fill:#0b0777;"/>
    <path clip-path="url(#p9343d93a63)" d="M 193.264978 211.654059 
L 193.10677 201.652129 
L 201.145776 194.352097 
L 201.262108 204.292457 
z
" style="fill:#3f038d;"/>
    <path clip-path="url(#p9343d93a63)" d="M 193.264978 211.654059 
L 201.262108 204.292457 
L 214.529606 208.524945 
L 206.61873 215.971129 
z
" style="fill:#260255;"/>
    <path clip-path="url(#p9343d93a63)" d="M 214.529606 208.524945 
L 222.285805 201.224351 
L 222.256812 173.328323 
L 214.389666 180.453735 
z
" style="fill:#3f0843;"/>
    <path clip-path="url(#p9343d93a63)" d="M 262.740181 213.961405 
L 270.077576 206.554656 
L 270.080311 206.436881 
L 262.7425 213.842906 
z
" style="fill:#050338;"/>
    <path clip-path="url(#p9343d93a63)" d="M 180.063228 207.386128 
L 193.264978 211.654059 
L 193.1788 206.205853 
L 179.941136 201.957246 
z
" style="fill:#2c0485;"/>
    <path clip-path="url(#p9343d93a63)" d="M 227.94922 212.80596 
L 235.617509 205.421836 
L 249.101427 209.667246 
L 241.523583 217.136342 
z
" style="fill:#070448;"/>
    <path clip-path="url(#p9343d93a63)" d="M 227.94922 212.80596 
L 235.617509 205.421836 
L 235.685179 193.598501 
L 227.9711 200.90926 
z
" style="fill:#220144;"/>
    <path clip-path="url(#p9343d93a63)" d="M 227.94979 212.495903 
L 241.526312 216.825185 
L 249.105321 209.357991 
L 235.619273 205.113674 
z
" style="fill:#0a0667;"/>
    <path clip-path="url(#p9343d93a63)" d="M 214.47051 196.670672 
L 227.9711 200.90926 
L 235.685179 193.598501 
L 222.273561 189.443108 
z
" style="fill:#3e017d;"/>
    <path clip-path="url(#p9343d93a63)" d="M 208.772457 154.037347 
L 222.240912 158.030265 
L 230.012083 151.143239 
L 216.631963 147.228697 
z
" style="fill:#9b365c;"/>
    <path clip-path="url(#p9343d93a63)" d="M 201.262108 204.292457 
L 214.529606 208.524945 
L 214.389666 180.453735 
L 200.934775 176.322566 
z
" style="fill:#86118d;"/>
    <path clip-path="url(#p9343d93a63)" d="M 214.529606 208.524945 
L 214.500768 202.740142 
L 227.959897 207.000555 
L 227.94922 212.80596 
z
" style="fill:#15023f;"/>
    <path clip-path="url(#p9343d93a63)" d="M 249.101427 209.667246 
L 249.102482 209.583461 
L 262.741826 213.877324 
L 262.740181 213.961405 
z
" style="fill:#050338;"/>
    <path clip-path="url(#p9343d93a63)" d="M 249.101427 209.667246 
L 262.740181 213.961405 
L 262.7425 213.842906 
L 249.102914 209.549165 
z
" style="fill:#0b0777;"/>
    <path clip-path="url(#p9343d93a63)" d="M 214.529606 208.524945 
L 227.94922 212.80596 
L 227.9711 200.90926 
L 214.47051 196.670672 
z
" style="fill:#480290;"/>
    <path clip-path="url(#p9343d93a63)" d="M 200.934775 176.322566 
L 214.389666 180.453735 
L 222.256812 173.328323 
L 208.889783 169.278432 
z
" style="fill:#740f7b;"/>
    <path clip-path="url(#p9343d93a63)" d="M 206.61873 215.971129 
L 206.566112 210.150585 
L 214.500768 202.740142 
L 214.529606 208.524945 
z
" style="fill:#2d0486;"/>
    <path clip-path="url(#p9343d93a63)" d="M 241.523583 217.136342 
L 241.524322 217.052041 
L 249.102482 209.583461 
L 249.101427 209.667246 
z
" style="fill:#0b0777;"/>
    <path clip-path="url(#p9343d93a63)" d="M 241.523583 217.136342 
L 249.101427 209.667246 
L 249.105321 209.357991 
L 241.526312 216.825185 
z
" style="fill:#050338;"/>
    <path clip-path="url(#p9343d93a63)" d="M 193.10677 201.652129 
L 206.527989 205.933433 
L 214.479874 198.549097 
L 201.145776 194.352097 
z
" style="fill:#37027a;"/>
    <path clip-path="url(#p9343d93a63)" d="M 206.61873 215.971129 
L 214.529606 208.524945 
L 214.479874 198.549097 
L 206.527989 205.933433 
z
" style="fill:#1e0142;"/>
    <path clip-path="url(#p9343d93a63)" d="M 206.61873 215.971129 
L 214.529606 208.524945 
L 227.94922 212.80596 
L 220.127123 220.338193 
z
" style="fill:#1b0251;"/>
    <path clip-path="url(#p9343d93a63)" d="M 227.94922 212.80596 
L 227.949641 212.57709 
L 241.525597 216.90666 
L 241.523583 217.136342 
z
" style="fill:#050338;"/>
    <path clip-path="url(#p9343d93a63)" d="M 227.94922 212.80596 
L 241.523583 217.136342 
L 241.526312 216.825185 
L 227.94979 212.495903 
z
" style="fill:#0b0777;"/>
    <path clip-path="url(#p9343d93a63)" d="M 241.523583 217.136342 
L 249.101427 209.667246 
L 262.740181 213.961405 
L 255.255385 221.516949 
z
" style="fill:#070448;"/>
    <path clip-path="url(#p9343d93a63)" d="M 241.524322 217.052041 
L 255.256723 221.432349 
L 262.741826 213.877324 
L 249.102482 209.583461 
z
" style="fill:#0a0667;"/>
    <path clip-path="url(#p9343d93a63)" d="M 193.264978 211.654059 
L 206.61873 215.971129 
L 206.527989 205.933433 
L 193.10677 201.652129 
z
" style="fill:#3f038d;"/>
    <path clip-path="url(#p9343d93a63)" d="M 220.127123 220.338193 
L 220.126627 220.107914 
L 227.949641 212.57709 
L 227.94922 212.80596 
z
" style="fill:#0b0777;"/>
    <path clip-path="url(#p9343d93a63)" d="M 206.566112 210.150585 
L 220.114545 214.496889 
L 227.959897 207.000555 
L 214.500768 202.740142 
z
" style="fill:#270374;"/>
    <path clip-path="url(#p9343d93a63)" d="M 220.127123 220.338193 
L 227.94922 212.80596 
L 227.959897 207.000555 
L 220.114545 214.496889 
z
" style="fill:#15023f;"/>
    <path clip-path="url(#p9343d93a63)" d="M 255.255385 221.516949 
L 262.740181 213.961405 
L 262.741826 213.877324 
L 255.256723 221.432349 
z
" style="fill:#050338;"/>
    <path clip-path="url(#p9343d93a63)" d="M 220.127123 220.338193 
L 227.94922 212.80596 
L 241.523583 217.136342 
L 233.792858 224.756123 
z
" style="fill:#070448;"/>
    <path clip-path="url(#p9343d93a63)" d="M 220.126627 220.107914 
L 233.793978 224.525027 
L 241.525597 216.90666 
L 227.949641 212.57709 
z
" style="fill:#0a0667;"/>
    <path clip-path="url(#p9343d93a63)" d="M 206.61873 215.971129 
L 220.127123 220.338193 
L 220.114545 214.496889 
L 206.566112 210.150585 
z
" style="fill:#2d0486;"/>
    <path clip-path="url(#p9343d93a63)" d="M 241.523583 217.136342 
L 241.523986 217.09039 
L 255.256115 221.470834 
L 255.255385 221.516949 
z
" style="fill:#050338;"/>
    <path clip-path="url(#p9343d93a63)" d="M 241.523583 217.136342 
L 255.255385 221.516949 
L 255.256723 221.432349 
L 241.524322 217.052041 
z
" style="fill:#0b0777;"/>
    <path clip-path="url(#p9343d93a63)" d="M 233.792858 224.756123 
L 233.793082 224.709889 
L 241.523986 217.09039 
L 241.523583 217.136342 
z
" style="fill:#0b0777;"/>
    <path clip-path="url(#p9343d93a63)" d="M 233.792858 224.756123 
L 241.523583 217.136342 
L 241.525597 216.90666 
L 233.793978 224.525027 
z
" style="fill:#050338;"/>
    <path clip-path="url(#p9343d93a63)" d="M 220.127123 220.338193 
L 233.792858 224.756123 
L 233.793978 224.525027 
L 220.126627 220.107914 
z
" style="fill:#0b0777;"/>
    <path clip-path="url(#p9343d93a63)" d="M 233.792858 224.756123 
L 241.523583 217.136342 
L 255.255385 221.516949 
L 247.618703 229.225814 
z
" style="fill:#070448;"/>
    <path clip-path="url(#p9343d93a63)" d="M 233.793082 224.709889 
L 247.619257 229.179415 
L 255.256115 221.470834 
L 241.523986 217.09039 
z
" style="fill:#0a0667;"/>
    <path clip-path="url(#p9343d93a63)" d="M 247.618703 229.225814 
L 255.255385 221.516949 
L 255.256115 221.470834 
L 247.619257 229.179415 
z
" style="fill:#050338;"/>
    <path clip-path="url(#p9343d93a63)" d="M 233.792858 224.756123 
L 247.618703 229.225814 
L 247.619257 229.179415 
L 233.793082 224.709889 
z
" style="fill:#0b0777;"/>
   </g>
   <g id="text_17">
    <!-- W45__H20__A160_bars_extracted.txt -->
    <g transform="translate(110.101875 28.56)scale(0.12 -0.12)">
     <defs>
      <path d="M 3.328125 72.90625 
L 13.28125 72.90625 
L 28.609375 11.28125 
L 43.890625 72.90625 
L 54.984375 72.90625 
L 70.3125 11.28125 
L 85.59375 72.90625 
L 95.609375 72.90625 
L 77.296875 0 
L 64.890625 0 
L 49.515625 63.28125 
L 33.984375 0 
L 21.578125 0 
z
" id="DejaVuSans-87"/>
      <path d="M 50.984375 -16.609375 
L 50.984375 -23.578125 
L -0.984375 -23.578125 
L -0.984375 -16.609375 
z
" id="DejaVuSans-95"/>
      <path d="M 9.8125 72.90625 
L 19.671875 72.90625 
L 19.671875 43.015625 
L 55.515625 43.015625 
L 55.515625 72.90625 
L 65.375 72.90625 
L 65.375 0 
L 55.515625 0 
L 55.515625 34.71875 
L 19.671875 34.71875 
L 19.671875 0 
L 9.8125 0 
z
" id="DejaVuSans-72"/>
      <path d="M 34.1875 63.1875 
L 20.796875 26.90625 
L 47.609375 26.90625 
z
M 28.609375 72.90625 
L 39.796875 72.90625 
L 67.578125 0 
L 57.328125 0 
L 50.6875 18.703125 
L 17.828125 18.703125 
L 11.1875 0 
L 0.78125 0 
z
" id="DejaVuSans-65"/>
      <path d="M 48.6875 27.296875 
Q 48.6875 37.203125 44.609375 42.84375 
Q 40.53125 48.484375 33.40625 48.484375 
Q 26.265625 48.484375 22.1875 42.84375 
Q 18.109375 37.203125 18.109375 27.296875 
Q 18.109375 17.390625 22.1875 11.75 
Q 26.265625 6.109375 33.40625 6.109375 
Q 40.53125 6.109375 44.609375 11.75 
Q 48.6875 17.390625 48.6875 27.296875 
z
M 18.109375 46.390625 
Q 20.953125 51.265625 25.265625 53.625 
Q 29.59375 56 35.59375 56 
Q 45.5625 56 51.78125 48.09375 
Q 58.015625 40.1875 58.015625 27.296875 
Q 58.015625 14.40625 51.78125 6.484375 
Q 45.5625 -1.421875 35.59375 -1.421875 
Q 29.59375 -1.421875 25.265625 0.953125 
Q 20.953125 3.328125 18.109375 8.203125 
L 18.109375 0 
L 9.078125 0 
L 9.078125 75.984375 
L 18.109375 75.984375 
z
" id="DejaVuSans-98"/>
      <path d="M 34.28125 27.484375 
Q 23.390625 27.484375 19.1875 25 
Q 14.984375 22.515625 14.984375 16.5 
Q 14.984375 11.71875 18.140625 8.90625 
Q 21.296875 6.109375 26.703125 6.109375 
Q 34.1875 6.109375 38.703125 11.40625 
Q 43.21875 16.703125 43.21875 25.484375 
L 43.21875 27.484375 
z
M 52.203125 31.203125 
L 52.203125 0 
L 43.21875 0 
L 43.21875 8.296875 
Q 40.140625 3.328125 35.546875 0.953125 
Q 30.953125 -1.421875 24.3125 -1.421875 
Q 15.921875 -1.421875 10.953125 3.296875 
Q 6 8.015625 6 15.921875 
Q 6 25.140625 12.171875 29.828125 
Q 18.359375 34.515625 30.609375 34.515625 
L 43.21875 34.515625 
L 43.21875 35.40625 
Q 43.21875 41.609375 39.140625 45 
Q 35.0625 48.390625 27.6875 48.390625 
Q 23 48.390625 18.546875 47.265625 
Q 14.109375 46.140625 10.015625 43.890625 
L 10.015625 52.203125 
Q 14.9375 54.109375 19.578125 55.046875 
Q 24.21875 56 28.609375 56 
Q 40.484375 56 46.34375 49.84375 
Q 52.203125 43.703125 52.203125 31.203125 
z
" id="DejaVuSans-97"/>
      <path d="M 41.109375 46.296875 
Q 39.59375 47.171875 37.8125 47.578125 
Q 36.03125 48 33.890625 48 
Q 26.265625 48 22.1875 43.046875 
Q 18.109375 38.09375 18.109375 28.8125 
L 18.109375 0 
L 9.078125 0 
L 9.078125 54.6875 
L 18.109375 54.6875 
L 18.109375 46.1875 
Q 20.953125 51.171875 25.484375 53.578125 
Q 30.03125 56 36.53125 56 
Q 37.453125 56 38.578125 55.875 
Q 39.703125 55.765625 41.0625 55.515625 
z
" id="DejaVuSans-114"/>
      <path d="M 44.28125 53.078125 
L 44.28125 44.578125 
Q 40.484375 46.53125 36.375 47.5 
Q 32.28125 48.484375 27.875 48.484375 
Q 21.1875 48.484375 17.84375 46.4375 
Q 14.5 44.390625 14.5 40.28125 
Q 14.5 37.15625 16.890625 35.375 
Q 19.28125 33.59375 26.515625 31.984375 
L 29.59375 31.296875 
Q 39.15625 29.25 43.1875 25.515625 
Q 47.21875 21.78125 47.21875 15.09375 
Q 47.21875 7.46875 41.1875 3.015625 
Q 35.15625 -1.421875 24.609375 -1.421875 
Q 20.21875 -1.421875 15.453125 -0.5625 
Q 10.6875 0.296875 5.421875 2 
L 5.421875 11.28125 
Q 10.40625 8.6875 15.234375 7.390625 
Q 20.0625 6.109375 24.8125 6.109375 
Q 31.15625 6.109375 34.5625 8.28125 
Q 37.984375 10.453125 37.984375 14.40625 
Q 37.984375 18.0625 35.515625 20.015625 
Q 33.0625 21.96875 24.703125 23.78125 
L 21.578125 24.515625 
Q 13.234375 26.265625 9.515625 29.90625 
Q 5.8125 33.546875 5.8125 39.890625 
Q 5.8125 47.609375 11.28125 51.796875 
Q 16.75 56 26.8125 56 
Q 31.78125 56 36.171875 55.265625 
Q 40.578125 54.546875 44.28125 53.078125 
z
" id="DejaVuSans-115"/>
      <path d="M 56.203125 29.59375 
L 56.203125 25.203125 
L 14.890625 25.203125 
Q 15.484375 15.921875 20.484375 11.0625 
Q 25.484375 6.203125 34.421875 6.203125 
Q 39.59375 6.203125 44.453125 7.46875 
Q 49.3125 8.734375 54.109375 11.28125 
L 54.109375 2.78125 
Q 49.265625 0.734375 44.1875 -0.34375 
Q 39.109375 -1.421875 33.890625 -1.421875 
Q 20.796875 -1.421875 13.15625 6.1875 
Q 5.515625 13.8125 5.515625 26.8125 
Q 5.515625 40.234375 12.765625 48.109375 
Q 20.015625 56 32.328125 56 
Q 43.359375 56 49.78125 48.890625 
Q 56.203125 41.796875 56.203125 29.59375 
z
M 47.21875 32.234375 
Q 47.125 39.59375 43.09375 43.984375 
Q 39.0625 48.390625 32.421875 48.390625 
Q 24.90625 48.390625 20.390625 44.140625 
Q 15.875 39.890625 15.1875 32.171875 
z
" id="DejaVuSans-101"/>
      <path d="M 54.890625 54.6875 
L 35.109375 28.078125 
L 55.90625 0 
L 45.3125 0 
L 29.390625 21.484375 
L 13.484375 0 
L 2.875 0 
L 24.125 28.609375 
L 4.6875 54.6875 
L 15.28125 54.6875 
L 29.78125 35.203125 
L 44.28125 54.6875 
z
" id="DejaVuSans-120"/>
      <path d="M 18.3125 70.21875 
L 18.3125 54.6875 
L 36.8125 54.6875 
L 36.8125 47.703125 
L 18.3125 47.703125 
L 18.3125 18.015625 
Q 18.3125 11.328125 20.140625 9.421875 
Q 21.96875 7.515625 27.59375 7.515625 
L 36.8125 7.515625 
L 36.8125 0 
L 27.59375 0 
Q 17.1875 0 13.234375 3.875 
Q 9.28125 7.765625 9.28125 18.015625 
L 9.28125 47.703125 
L 2.6875 47.703125 
L 2.6875 54.6875 
L 9.28125 54.6875 
L 9.28125 70.21875 
z
" id="DejaVuSans-116"/>
      <path d="M 48.78125 52.59375 
L 48.78125 44.1875 
Q 44.96875 46.296875 41.140625 47.34375 
Q 37.3125 48.390625 33.40625 48.390625 
Q 24.65625 48.390625 19.8125 42.84375 
Q 14.984375 37.3125 14.984375 27.296875 
Q 14.984375 17.28125 19.8125 11.734375 
Q 24.65625 6.203125 33.40625 6.203125 
Q 37.3125 6.203125 41.140625 7.25 
Q 44.96875 8.296875 48.78125 10.40625 
L 48.78125 2.09375 
Q 45.015625 0.34375 40.984375 -0.53125 
Q 36.96875 -1.421875 32.421875 -1.421875 
Q 20.0625 -1.421875 12.78125 6.34375 
Q 5.515625 14.109375 5.515625 27.296875 
Q 5.515625 40.671875 12.859375 48.328125 
Q 20.21875 56 33.015625 56 
Q 37.15625 56 41.109375 55.140625 
Q 45.0625 54.296875 48.78125 52.59375 
z
" id="DejaVuSans-99"/>
      <path d="M 45.40625 46.390625 
L 45.40625 75.984375 
L 54.390625 75.984375 
L 54.390625 0 
L 45.40625 0 
L 45.40625 8.203125 
Q 42.578125 3.328125 38.25 0.953125 
Q 33.9375 -1.421875 27.875 -1.421875 
Q 17.96875 -1.421875 11.734375 6.484375 
Q 5.515625 14.40625 5.515625 27.296875 
Q 5.515625 40.1875 11.734375 48.09375 
Q 17.96875 56 27.875 56 
Q 33.9375 56 38.25 53.625 
Q 42.578125 51.265625 45.40625 46.390625 
z
M 14.796875 27.296875 
Q 14.796875 17.390625 18.875 11.75 
Q 22.953125 6.109375 30.078125 6.109375 
Q 37.203125 6.109375 41.296875 11.75 
Q 45.40625 17.390625 45.40625 27.296875 
Q 45.40625 37.203125 41.296875 42.84375 
Q 37.203125 48.484375 30.078125 48.484375 
Q 22.953125 48.484375 18.875 42.84375 
Q 14.796875 37.203125 14.796875 27.296875 
z
" id="DejaVuSans-100"/>
      <path d="M 10.6875 12.40625 
L 21 12.40625 
L 21 0 
L 10.6875 0 
z
" id="DejaVuSans-46"/>
     </defs>
     <use xlink:href="#DejaVuSans-87"/>
     <use x="98.876953" xlink:href="#DejaVuSans-52"/>
     <use x="162.5" xlink:href="#DejaVuSans-53"/>
     <use x="226.123047" xlink:href="#DejaVuSans-95"/>
     <use x="276.123047" xlink:href="#DejaVuSans-95"/>
     <use x="326.123047" xlink:href="#DejaVuSans-72"/>
     <use x="401.318359" xlink:href="#DejaVuSans-50"/>
     <use x="464.941406" xlink:href="#DejaVuSans-48"/>
     <use x="528.564453" xlink:href="#DejaVuSans-95"/>
     <use x="578.564453" xlink:href="#DejaVuSans-95"/>
     <use x="628.564453" xlink:href="#DejaVuSans-65"/>
     <use x="696.972656" xlink:href="#DejaVuSans-49"/>
     <use x="760.595703" xlink:href="#DejaVuSans-54"/>
     <use x="824.21875" xlink:href="#DejaVuSans-48"/>
     <use x="887.841797" xlink:href="#DejaVuSans-95"/>
     <use x="937.841797" xlink:href="#DejaVuSans-98"/>
     <use x="1001.318359" xlink:href="#DejaVuSans-97"/>
     <use x="1062.597656" xlink:href="#DejaVuSans-114"/>
     <use x="1103.710938" xlink:href="#DejaVuSans-115"/>
     <use x="1155.810547" xlink:href="#DejaVuSans-95"/>
     <use x="1205.810547" xlink:href="#DejaVuSans-101"/>
     <use x="1265.583984" xlink:href="#DejaVuSans-120"/>
     <use x="1324.763672" xlink:href="#DejaVuSans-116"/>
     <use x="1363.972656" xlink:href="#DejaVuSans-114"/>
     <use x="1405.085938" xlink:href="#DejaVuSans-97"/>
     <use x="1466.365234" xlink:href="#DejaVuSans-99"/>
     <use x="1521.345703" xlink:href="#DejaVuSans-116"/>
     <use x="1560.554688" xlink:href="#DejaVuSans-101"/>
     <use x="1622.078125" xlink:href="#DejaVuSans-100"/>
     <use x="1685.554688" xlink:href="#DejaVuSans-46"/>
     <use x="1717.341797" xlink:href="#DejaVuSans-116"/>
     <use x="1756.550781" xlink:href="#DejaVuSans-120"/>
     <use x="1815.730469" xlink:href="#DejaVuSans-116"/>
    </g>
   </g>
  </g>
 </g>
 <defs>
  <clipPath id="p9343d93a63">
   <rect height="217.44" width="217.44" x="112.68" y="34.56"/>
  </clipPath>
 </defs>
</svg>
