<?xml version="1.0" encoding="utf-8" standalone="no"?>
<!DOCTYPE svg PUBLIC "-//W3C//DTD SVG 1.1//EN"
  "http://www.w3.org/Graphics/SVG/1.1/DTD/svg11.dtd">
<!-- Created with matplotlib (https://matplotlib.org/) -->
<svg height="288pt" version="1.1" viewBox="0 0 432 288" width="432pt" xmlns="http://www.w3.org/2000/svg" xmlns:xlink="http://www.w3.org/1999/xlink">
 <metadata>
  <rdf:RDF xmlns:cc="http://creativecommons.org/ns#" xmlns:dc="http://purl.org/dc/elements/1.1/" xmlns:rdf="http://www.w3.org/1999/02/22-rdf-syntax-ns#">
   <cc:Work>
    <dc:type rdf:resource="http://purl.org/dc/dcmitype/StillImage"/>
    <dc:date>2021-06-13T21:59:58.379358</dc:date>
    <dc:format>image/svg+xml</dc:format>
    <dc:creator>
     <cc:Agent>
      <dc:title>Matplotlib v3.3.4, https://matplotlib.org/</dc:title>
     </cc:Agent>
    </dc:creator>
   </cc:Work>
  </rdf:RDF>
 </metadata>
 <defs>
  <style type="text/css">*{stroke-linecap:butt;stroke-linejoin:round;}</style>
 </defs>
 <g id="figure_1">
  <g id="patch_1">
   <path d="M 0 288 
L 432 288 
L 432 0 
L 0 0 
z
" style="fill:#ffffff;"/>
  </g>
  <g id="patch_2">
   <path d="M 112.68 252 
L 330.12 252 
L 330.12 34.56 
L 112.68 34.56 
z
" style="fill:#ffffff;"/>
  </g>
  <g id="pane3d_1">
   <g id="patch_3">
    <path d="M 129.09822 198.386264 
L 200.904009 138.197228 
L 199.90584 51.393878 
L 124.663773 106.302111 
" style="fill:#f2f2f2;opacity:0.5;stroke:#f2f2f2;stroke-linejoin:miter;"/>
   </g>
  </g>
  <g id="pane3d_2">
   <g id="patch_4">
    <path d="M 200.904009 138.197228 
L 316.12668 171.68791 
L 320.238571 81.894718 
L 199.90584 51.393878 
" style="fill:#e6e6e6;opacity:0.5;stroke:#e6e6e6;stroke-linejoin:miter;"/>
   </g>
  </g>
  <g id="pane3d_3">
   <g id="patch_5">
    <path d="M 129.09822 198.386264 
L 251.239879 238.27773 
L 316.12668 171.68791 
L 200.904009 138.197228 
" style="fill:#ececec;opacity:0.5;stroke:#ececec;stroke-linejoin:miter;"/>
   </g>
  </g>
  <g id="axis3d_1">
   <g id="line2d_1">
    <path d="M 129.09822 198.386264 
L 251.239879 238.27773 
" style="fill:none;stroke:#000000;stroke-linecap:square;stroke-width:0.8;"/>
   </g>
   <g id="Line3DCollection_1">
    <path d="M 136.495759 200.802301 
L 207.911499 140.234029 
L 207.209612 53.245171 
" style="fill:none;stroke:#b0b0b0;stroke-width:0.8;"/>
    <path d="M 162.23134 209.207541 
L 232.260894 147.311436 
L 232.60309 59.681678 
" style="fill:none;stroke:#b0b0b0;stroke-width:0.8;"/>
    <path d="M 188.559037 217.806167 
L 257.123632 154.538053 
L 258.555303 66.259807 
" style="fill:none;stroke:#b0b0b0;stroke-width:0.8;"/>
    <path d="M 215.499525 226.604931 
L 282.516121 161.918647 
L 285.084894 72.984285 
" style="fill:none;stroke:#b0b0b0;stroke-width:0.8;"/>
    <path d="M 243.074449 235.610901 
L 308.455474 169.458193 
L 312.21135 79.860051 
" style="fill:none;stroke:#b0b0b0;stroke-width:0.8;"/>
   </g>
   <g id="xtick_1">
    <g id="line2d_2">
     <path d="M 137.117644 200.274876 
L 135.249322 201.859414 
" style="fill:none;stroke:#000000;stroke-linecap:square;stroke-width:0.8;"/>
    </g>
    <g id="text_1">
     <!-- 0 -->
     <g transform="translate(125.77919 224.124533)scale(0.1 -0.1)">
      <defs>
       <path d="M 31.78125 66.40625 
Q 24.171875 66.40625 20.328125 58.90625 
Q 16.5 51.421875 16.5 36.375 
Q 16.5 21.390625 20.328125 13.890625 
Q 24.171875 6.390625 31.78125 6.390625 
Q 39.453125 6.390625 43.28125 13.890625 
Q 47.125 21.390625 47.125 36.375 
Q 47.125 51.421875 43.28125 58.90625 
Q 39.453125 66.40625 31.78125 66.40625 
z
M 31.78125 74.21875 
Q 44.046875 74.21875 50.515625 64.515625 
Q 56.984375 54.828125 56.984375 36.375 
Q 56.984375 17.96875 50.515625 8.265625 
Q 44.046875 -1.421875 31.78125 -1.421875 
Q 19.53125 -1.421875 13.0625 8.265625 
Q 6.59375 17.96875 6.59375 36.375 
Q 6.59375 54.828125 13.0625 64.515625 
Q 19.53125 74.21875 31.78125 74.21875 
z
" id="DejaVuSans-48"/>
      </defs>
      <use xlink:href="#DejaVuSans-48"/>
     </g>
    </g>
   </g>
   <g id="xtick_2">
    <g id="line2d_3">
     <path d="M 162.841716 208.668056 
L 161.007937 210.288854 
" style="fill:none;stroke:#000000;stroke-linecap:square;stroke-width:0.8;"/>
    </g>
    <g id="text_2">
     <!-- 2 -->
     <g transform="translate(151.547192 232.748132)scale(0.1 -0.1)">
      <defs>
       <path d="M 19.1875 8.296875 
L 53.609375 8.296875 
L 53.609375 0 
L 7.328125 0 
L 7.328125 8.296875 
Q 12.9375 14.109375 22.625 23.890625 
Q 32.328125 33.6875 34.8125 36.53125 
Q 39.546875 41.84375 41.421875 45.53125 
Q 43.3125 49.21875 43.3125 52.78125 
Q 43.3125 58.59375 39.234375 62.25 
Q 35.15625 65.921875 28.609375 65.921875 
Q 23.96875 65.921875 18.8125 64.3125 
Q 13.671875 62.703125 7.8125 59.421875 
L 7.8125 69.390625 
Q 13.765625 71.78125 18.9375 73 
Q 24.125 74.21875 28.421875 74.21875 
Q 39.75 74.21875 46.484375 68.546875 
Q 53.21875 62.890625 53.21875 53.421875 
Q 53.21875 48.921875 51.53125 44.890625 
Q 49.859375 40.875 45.40625 35.40625 
Q 44.1875 33.984375 37.640625 27.21875 
Q 31.109375 20.453125 19.1875 8.296875 
z
" id="DejaVuSans-50"/>
      </defs>
      <use xlink:href="#DejaVuSans-50"/>
     </g>
    </g>
   </g>
   <g id="xtick_3">
    <g id="line2d_4">
     <path d="M 189.15721 217.254202 
L 187.360066 218.91252 
" style="fill:none;stroke:#000000;stroke-linecap:square;stroke-width:0.8;"/>
    </g>
    <g id="text_3">
     <!-- 4 -->
     <g transform="translate(177.91082 241.571064)scale(0.1 -0.1)">
      <defs>
       <path d="M 37.796875 64.3125 
L 12.890625 25.390625 
L 37.796875 25.390625 
z
M 35.203125 72.90625 
L 47.609375 72.90625 
L 47.609375 25.390625 
L 58.015625 25.390625 
L 58.015625 17.1875 
L 47.609375 17.1875 
L 47.609375 0 
L 37.796875 0 
L 37.796875 17.1875 
L 4.890625 17.1875 
L 4.890625 26.703125 
z
" id="DejaVuSans-52"/>
      </defs>
      <use xlink:href="#DejaVuSans-52"/>
     </g>
    </g>
   </g>
   <g id="xtick_4">
    <g id="line2d_5">
     <path d="M 216.084757 226.040048 
L 214.326462 227.737204 
" style="fill:none;stroke:#000000;stroke-linecap:square;stroke-width:0.8;"/>
    </g>
    <g id="text_4">
     <!-- 6 -->
     <g transform="translate(204.890965 250.600322)scale(0.1 -0.1)">
      <defs>
       <path d="M 33.015625 40.375 
Q 26.375 40.375 22.484375 35.828125 
Q 18.609375 31.296875 18.609375 23.390625 
Q 18.609375 15.53125 22.484375 10.953125 
Q 26.375 6.390625 33.015625 6.390625 
Q 39.65625 6.390625 43.53125 10.953125 
Q 47.40625 15.53125 47.40625 23.390625 
Q 47.40625 31.296875 43.53125 35.828125 
Q 39.65625 40.375 33.015625 40.375 
z
M 52.59375 71.296875 
L 52.59375 62.3125 
Q 48.875 64.0625 45.09375 64.984375 
Q 41.3125 65.921875 37.59375 65.921875 
Q 27.828125 65.921875 22.671875 59.328125 
Q 17.53125 52.734375 16.796875 39.40625 
Q 19.671875 43.65625 24.015625 45.921875 
Q 28.375 48.1875 33.59375 48.1875 
Q 44.578125 48.1875 50.953125 41.515625 
Q 57.328125 34.859375 57.328125 23.390625 
Q 57.328125 12.15625 50.6875 5.359375 
Q 44.046875 -1.421875 33.015625 -1.421875 
Q 20.359375 -1.421875 13.671875 8.265625 
Q 6.984375 17.96875 6.984375 36.375 
Q 6.984375 53.65625 15.1875 63.9375 
Q 23.390625 74.21875 37.203125 74.21875 
Q 40.921875 74.21875 44.703125 73.484375 
Q 48.484375 72.75 52.59375 71.296875 
z
" id="DejaVuSans-54"/>
      </defs>
      <use xlink:href="#DejaVuSans-54"/>
     </g>
    </g>
   </g>
   <g id="xtick_5">
    <g id="line2d_6">
     <path d="M 243.645962 235.032643 
L 241.928856 236.770015 
" style="fill:none;stroke:#000000;stroke-linecap:square;stroke-width:0.8;"/>
    </g>
    <g id="text_5">
     <!-- 8 -->
     <g transform="translate(232.509511 259.84323)scale(0.1 -0.1)">
      <defs>
       <path d="M 31.78125 34.625 
Q 24.75 34.625 20.71875 30.859375 
Q 16.703125 27.09375 16.703125 20.515625 
Q 16.703125 13.921875 20.71875 10.15625 
Q 24.75 6.390625 31.78125 6.390625 
Q 38.8125 6.390625 42.859375 10.171875 
Q 46.921875 13.96875 46.921875 20.515625 
Q 46.921875 27.09375 42.890625 30.859375 
Q 38.875 34.625 31.78125 34.625 
z
M 21.921875 38.8125 
Q 15.578125 40.375 12.03125 44.71875 
Q 8.5 49.078125 8.5 55.328125 
Q 8.5 64.0625 14.71875 69.140625 
Q 20.953125 74.21875 31.78125 74.21875 
Q 42.671875 74.21875 48.875 69.140625 
Q 55.078125 64.0625 55.078125 55.328125 
Q 55.078125 49.078125 51.53125 44.71875 
Q 48 40.375 41.703125 38.8125 
Q 48.828125 37.15625 52.796875 32.3125 
Q 56.78125 27.484375 56.78125 20.515625 
Q 56.78125 9.90625 50.3125 4.234375 
Q 43.84375 -1.421875 31.78125 -1.421875 
Q 19.734375 -1.421875 13.25 4.234375 
Q 6.78125 9.90625 6.78125 20.515625 
Q 6.78125 27.484375 10.78125 32.3125 
Q 14.796875 37.15625 21.921875 38.8125 
z
M 18.3125 54.390625 
Q 18.3125 48.734375 21.84375 45.5625 
Q 25.390625 42.390625 31.78125 42.390625 
Q 38.140625 42.390625 41.71875 45.5625 
Q 45.3125 48.734375 45.3125 54.390625 
Q 45.3125 60.0625 41.71875 63.234375 
Q 38.140625 66.40625 31.78125 66.40625 
Q 25.390625 66.40625 21.84375 63.234375 
Q 18.3125 60.0625 18.3125 54.390625 
z
" id="DejaVuSans-56"/>
      </defs>
      <use xlink:href="#DejaVuSans-56"/>
     </g>
    </g>
   </g>
  </g>
  <g id="axis3d_2">
   <g id="line2d_7">
    <path d="M 316.12668 171.68791 
L 251.239879 238.27773 
" style="fill:none;stroke:#000000;stroke-linecap:square;stroke-width:0.8;"/>
   </g>
   <g id="Line3DCollection_2">
    <path d="M 129.866948 102.505071 
L 134.046245 194.238731 
L 255.729543 233.67023 
" style="fill:none;stroke:#b0b0b0;stroke-width:0.8;"/>
    <path d="M 147.250212 89.819556 
L 150.59591 180.366474 
L 270.72626 218.279909 
" style="fill:none;stroke:#b0b0b0;stroke-width:0.8;"/>
    <path d="M 163.958537 77.626582 
L 166.530371 167.009893 
L 285.136664 203.491289 
" style="fill:none;stroke:#b0b0b0;stroke-width:0.8;"/>
    <path d="M 180.030483 65.898008 
L 181.883306 154.140758 
L 298.994481 189.269761 
" style="fill:none;stroke:#b0b0b0;stroke-width:0.8;"/>
    <path d="M 195.501727 54.607799 
L 196.68598 141.732864 
L 312.330896 175.583317 
" style="fill:none;stroke:#b0b0b0;stroke-width:0.8;"/>
   </g>
   <g id="xtick_6">
    <g id="line2d_8">
     <path d="M 254.704115 233.337939 
L 257.783053 234.33567 
" style="fill:none;stroke:#000000;stroke-linecap:square;stroke-width:0.8;"/>
    </g>
    <g id="text_6">
     <!-- 0 -->
     <g transform="translate(265.430654 254.693759)scale(0.1 -0.1)">
      <use xlink:href="#DejaVuSans-48"/>
     </g>
    </g>
   </g>
   <g id="xtick_7">
    <g id="line2d_9">
     <path d="M 269.71494 217.960734 
L 272.751463 218.919068 
" style="fill:none;stroke:#000000;stroke-linecap:square;stroke-width:0.8;"/>
    </g>
    <g id="text_7">
     <!-- 2 -->
     <g transform="translate(280.181112 239.024526)scale(0.1 -0.1)">
      <use xlink:href="#DejaVuSans-50"/>
     </g>
    </g>
   </g>
   <g id="xtick_8">
    <g id="line2d_10">
     <path d="M 284.139145 203.184468 
L 287.134182 204.105694 
" style="fill:none;stroke:#000000;stroke-linecap:square;stroke-width:0.8;"/>
    </g>
    <g id="text_8">
     <!-- 4 -->
     <g transform="translate(294.35448 223.968328)scale(0.1 -0.1)">
      <use xlink:href="#DejaVuSans-52"/>
     </g>
    </g>
   </g>
   <g id="xtick_9">
    <g id="line2d_11">
     <path d="M 298.010457 188.97459 
L 300.964927 189.860821 
" style="fill:none;stroke:#000000;stroke-linecap:square;stroke-width:0.8;"/>
    </g>
    <g id="text_9">
     <!-- 6 -->
     <g transform="translate(307.983974 209.489882)scale(0.1 -0.1)">
      <use xlink:href="#DejaVuSans-54"/>
     </g>
    </g>
   </g>
   <g id="xtick_10">
    <g id="line2d_12">
     <path d="M 311.360068 175.299146 
L 314.274875 176.15234 
" style="fill:none;stroke:#000000;stroke-linecap:square;stroke-width:0.8;"/>
    </g>
    <g id="text_10">
     <!-- 8 -->
     <g transform="translate(321.10031 195.556556)scale(0.1 -0.1)">
      <use xlink:href="#DejaVuSans-56"/>
     </g>
    </g>
   </g>
  </g>
  <g id="axis3d_3">
   <g id="line2d_13">
    <path d="M 316.12668 171.68791 
L 320.238571 81.894718 
" style="fill:none;stroke:#000000;stroke-linecap:square;stroke-width:0.8;"/>
   </g>
   <g id="Line3DCollection_3">
    <path d="M 316.205459 169.967571 
L 200.884845 136.530725 
L 129.013401 196.624949 
" style="fill:none;stroke:#b0b0b0;stroke-width:0.8;"/>
    <path d="M 316.756743 157.928948 
L 200.750786 124.872605 
L 128.419701 184.296394 
" style="fill:none;stroke:#b0b0b0;stroke-width:0.8;"/>
    <path d="M 317.314683 145.744968 
L 200.615186 113.080444 
L 127.81856 171.813308 
" style="fill:none;stroke:#b0b0b0;stroke-width:0.8;"/>
    <path d="M 317.8794 133.412983 
L 200.478017 101.151919 
L 127.209836 159.172768 
" style="fill:none;stroke:#b0b0b0;stroke-width:0.8;"/>
    <path d="M 318.451019 120.930279 
L 200.339253 89.084648 
L 126.593386 146.371774 
" style="fill:none;stroke:#b0b0b0;stroke-width:0.8;"/>
    <path d="M 319.029668 108.294075 
L 200.198866 76.876198 
L 125.969061 133.407254 
" style="fill:none;stroke:#b0b0b0;stroke-width:0.8;"/>
    <path d="M 319.615476 95.501524 
L 200.056826 64.524076 
L 125.336709 120.276052 
" style="fill:none;stroke:#b0b0b0;stroke-width:0.8;"/>
   </g>
   <g id="xtick_11">
    <g id="line2d_14">
     <path d="M 315.237563 169.686933 
L 318.143556 170.529516 
" style="fill:none;stroke:#000000;stroke-linecap:square;stroke-width:0.8;"/>
    </g>
    <g id="text_11">
     <!-- 0 -->
     <g transform="translate(331.275915 174.966846)scale(0.1 -0.1)">
      <use xlink:href="#DejaVuSans-48"/>
     </g>
    </g>
   </g>
   <g id="xtick_12">
    <g id="line2d_15">
     <path d="M 315.782821 157.651426 
L 318.706919 158.484659 
" style="fill:none;stroke:#000000;stroke-linecap:square;stroke-width:0.8;"/>
    </g>
    <g id="text_12">
     <!-- 5000 -->
     <g transform="translate(322.390535 162.95713)scale(0.1 -0.1)">
      <defs>
       <path d="M 10.796875 72.90625 
L 49.515625 72.90625 
L 49.515625 64.59375 
L 19.828125 64.59375 
L 19.828125 46.734375 
Q 21.96875 47.46875 24.109375 47.828125 
Q 26.265625 48.1875 28.421875 48.1875 
Q 40.625 48.1875 47.75 41.5 
Q 54.890625 34.8125 54.890625 23.390625 
Q 54.890625 11.625 47.5625 5.09375 
Q 40.234375 -1.421875 26.90625 -1.421875 
Q 22.3125 -1.421875 17.546875 -0.640625 
Q 12.796875 0.140625 7.71875 1.703125 
L 7.71875 11.625 
Q 12.109375 9.234375 16.796875 8.0625 
Q 21.484375 6.890625 26.703125 6.890625 
Q 35.15625 6.890625 40.078125 11.328125 
Q 45.015625 15.765625 45.015625 23.390625 
Q 45.015625 31 40.078125 35.4375 
Q 35.15625 39.890625 26.703125 39.890625 
Q 22.75 39.890625 18.8125 39.015625 
Q 14.890625 38.140625 10.796875 36.28125 
z
" id="DejaVuSans-53"/>
      </defs>
      <use xlink:href="#DejaVuSans-53"/>
      <use x="63.623047" xlink:href="#DejaVuSans-48"/>
      <use x="127.246094" xlink:href="#DejaVuSans-48"/>
      <use x="190.869141" xlink:href="#DejaVuSans-48"/>
     </g>
    </g>
   </g>
   <g id="xtick_13">
    <g id="line2d_16">
     <path d="M 316.334659 145.470657 
L 319.27709 146.294252 
" style="fill:none;stroke:#000000;stroke-linecap:square;stroke-width:0.8;"/>
    </g>
    <g id="text_13">
     <!-- 10000 -->
     <g transform="translate(319.875575 150.802944)scale(0.1 -0.1)">
      <defs>
       <path d="M 12.40625 8.296875 
L 28.515625 8.296875 
L 28.515625 63.921875 
L 10.984375 60.40625 
L 10.984375 69.390625 
L 28.421875 72.90625 
L 38.28125 72.90625 
L 38.28125 8.296875 
L 54.390625 8.296875 
L 54.390625 0 
L 12.40625 0 
z
" id="DejaVuSans-49"/>
      </defs>
      <use xlink:href="#DejaVuSans-49"/>
      <use x="63.623047" xlink:href="#DejaVuSans-48"/>
      <use x="127.246094" xlink:href="#DejaVuSans-48"/>
      <use x="190.869141" xlink:href="#DejaVuSans-48"/>
      <use x="254.492188" xlink:href="#DejaVuSans-48"/>
     </g>
    </g>
   </g>
   <g id="xtick_14">
    <g id="line2d_17">
     <path d="M 316.893199 133.141982 
L 319.854193 133.955642 
" style="fill:none;stroke:#000000;stroke-linecap:square;stroke-width:0.8;"/>
    </g>
    <g id="text_14">
     <!-- 15000 -->
     <g transform="translate(320.549929 138.501666)scale(0.1 -0.1)">
      <use xlink:href="#DejaVuSans-49"/>
      <use x="63.623047" xlink:href="#DejaVuSans-53"/>
      <use x="127.246094" xlink:href="#DejaVuSans-48"/>
      <use x="190.869141" xlink:href="#DejaVuSans-48"/>
      <use x="254.492188" xlink:href="#DejaVuSans-48"/>
     </g>
    </g>
   </g>
   <g id="xtick_15">
    <g id="line2d_18">
     <path d="M 317.458562 120.662689 
L 320.438354 121.466109 
" style="fill:none;stroke:#000000;stroke-linecap:square;stroke-width:0.8;"/>
    </g>
    <g id="text_15">
     <!-- 20000 -->
     <g transform="translate(321.232493 126.05061)scale(0.1 -0.1)">
      <use xlink:href="#DejaVuSans-50"/>
      <use x="63.623047" xlink:href="#DejaVuSans-48"/>
      <use x="127.246094" xlink:href="#DejaVuSans-48"/>
      <use x="190.869141" xlink:href="#DejaVuSans-48"/>
      <use x="254.492188" xlink:href="#DejaVuSans-48"/>
     </g>
    </g>
   </g>
   <g id="xtick_16">
    <g id="line2d_19">
     <path d="M 318.030875 108.030003 
L 321.029705 108.822868 
" style="fill:none;stroke:#000000;stroke-linecap:square;stroke-width:0.8;"/>
    </g>
    <g id="text_16">
     <!-- 25000 -->
     <g transform="translate(321.923419 113.447023)scale(0.1 -0.1)">
      <use xlink:href="#DejaVuSans-50"/>
      <use x="63.623047" xlink:href="#DejaVuSans-53"/>
      <use x="127.246094" xlink:href="#DejaVuSans-48"/>
      <use x="190.869141" xlink:href="#DejaVuSans-48"/>
      <use x="254.492188" xlink:href="#DejaVuSans-48"/>
     </g>
    </g>
   </g>
   <g id="xtick_17">
    <g id="line2d_20">
     <path d="M 318.610265 95.241076 
L 321.628379 96.023064 
" style="fill:none;stroke:#000000;stroke-linecap:square;stroke-width:0.8;"/>
    </g>
    <g id="text_17">
     <!-- 30000 -->
     <g transform="translate(322.622861 100.688085)scale(0.1 -0.1)">
      <defs>
       <path d="M 40.578125 39.3125 
Q 47.65625 37.796875 51.625 33 
Q 55.609375 28.21875 55.609375 21.1875 
Q 55.609375 10.40625 48.1875 4.484375 
Q 40.765625 -1.421875 27.09375 -1.421875 
Q 22.515625 -1.421875 17.65625 -0.515625 
Q 12.796875 0.390625 7.625 2.203125 
L 7.625 11.71875 
Q 11.71875 9.328125 16.59375 8.109375 
Q 21.484375 6.890625 26.8125 6.890625 
Q 36.078125 6.890625 40.9375 10.546875 
Q 45.796875 14.203125 45.796875 21.1875 
Q 45.796875 27.640625 41.28125 31.265625 
Q 36.765625 34.90625 28.71875 34.90625 
L 20.21875 34.90625 
L 20.21875 43.015625 
L 29.109375 43.015625 
Q 36.375 43.015625 40.234375 45.921875 
Q 44.09375 48.828125 44.09375 54.296875 
Q 44.09375 59.90625 40.109375 62.90625 
Q 36.140625 65.921875 28.71875 65.921875 
Q 24.65625 65.921875 20.015625 65.03125 
Q 15.375 64.15625 9.8125 62.3125 
L 9.8125 71.09375 
Q 15.4375 72.65625 20.34375 73.4375 
Q 25.25 74.21875 29.59375 74.21875 
Q 40.828125 74.21875 47.359375 69.109375 
Q 53.90625 64.015625 53.90625 55.328125 
Q 53.90625 49.265625 50.4375 45.09375 
Q 46.96875 40.921875 40.578125 39.3125 
z
" id="DejaVuSans-51"/>
      </defs>
      <use xlink:href="#DejaVuSans-51"/>
      <use x="63.623047" xlink:href="#DejaVuSans-48"/>
      <use x="127.246094" xlink:href="#DejaVuSans-48"/>
      <use x="190.869141" xlink:href="#DejaVuSans-48"/>
      <use x="254.492188" xlink:href="#DejaVuSans-48"/>
     </g>
    </g>
   </g>
  </g>
  <g id="axes_1">
   <g id="Poly3DCollection_1">
    <path clip-path="url(#p88e360cd3e)" d="M 203.700438 142.115361 
L 203.698626 141.936818 
L 215.863154 145.487848 
L 215.863902 145.66701 
z
" style="fill:#050338;"/>
    <path clip-path="url(#p88e360cd3e)" d="M 196.401162 148.290596 
L 196.398687 148.110979 
L 203.698626 141.936818 
L 203.700438 142.115361 
z
" style="fill:#0b0777;"/>
    <path clip-path="url(#p88e360cd3e)" d="M 196.401162 148.290596 
L 203.700438 142.115361 
L 215.863902 145.66701 
L 208.637156 151.907182 
z
" style="fill:#070448;"/>
    <path clip-path="url(#p88e360cd3e)" d="M 196.398687 148.110979 
L 208.635758 151.726941 
L 215.863154 145.487848 
L 203.698626 141.936818 
z
" style="fill:#0a0667;"/>
    <path clip-path="url(#p88e360cd3e)" d="M 215.863902 145.66701 
L 215.841065 140.195475 
L 228.165363 143.765331 
L 228.155024 149.255935 
z
" style="fill:#15023f;"/>
    <path clip-path="url(#p88e360cd3e)" d="M 208.637156 151.907182 
L 215.863902 145.66701 
L 215.863154 145.487848 
L 208.635758 151.726941 
z
" style="fill:#050338;"/>
    <path clip-path="url(#p88e360cd3e)" d="M 208.637156 151.907182 
L 208.594458 146.402557 
L 215.841065 140.195475 
L 215.863902 145.66701 
z
" style="fill:#2c0485;"/>
    <path clip-path="url(#p88e360cd3e)" d="M 196.401162 148.290596 
L 208.637156 151.907182 
L 208.635758 151.726941 
L 196.398687 148.110979 
z
" style="fill:#0b0777;"/>
    <path clip-path="url(#p88e360cd3e)" d="M 196.401162 148.290596 
L 196.397248 148.006478 
L 208.634945 151.622076 
L 208.637156 151.907182 
z
" style="fill:#050338;"/>
    <path clip-path="url(#p88e360cd3e)" d="M 208.637156 151.907182 
L 215.863902 145.66701 
L 228.155024 149.255935 
L 221.002748 155.562072 
z
" style="fill:#1a0250;"/>
    <path clip-path="url(#p88e360cd3e)" d="M 188.96817 154.578956 
L 188.963169 154.293125 
L 196.397248 148.006478 
L 196.401162 148.290596 
z
" style="fill:#0b0777;"/>
    <path clip-path="url(#p88e360cd3e)" d="M 208.594458 146.402557 
L 220.993629 150.038208 
L 228.165363 143.765331 
L 215.841065 140.195475 
z
" style="fill:#260473;"/>
    <path clip-path="url(#p88e360cd3e)" d="M 228.155024 149.255935 
L 228.173981 139.188911 
L 240.656902 142.780439 
L 240.575825 152.882725 
z
" style="fill:#1f0143;"/>
    <path clip-path="url(#p88e360cd3e)" d="M 188.96817 154.578956 
L 196.401162 148.290596 
L 208.637156 151.907182 
L 201.27732 158.262275 
z
" style="fill:#070448;"/>
    <path clip-path="url(#p88e360cd3e)" d="M 221.002748 155.562072 
L 228.155024 149.255935 
L 228.165363 143.765331 
L 220.993629 150.038208 
z
" style="fill:#15023f;"/>
    <path clip-path="url(#p88e360cd3e)" d="M 188.963169 154.293125 
L 201.274042 157.975447 
L 208.634945 151.622076 
L 196.397248 148.006478 
z
" style="fill:#0a0667;"/>
    <path clip-path="url(#p88e360cd3e)" d="M 221.002748 155.562072 
L 220.986028 145.433856 
L 228.173981 139.188911 
L 228.155024 149.255935 
z
" style="fill:#42028e;"/>
    <path clip-path="url(#p88e360cd3e)" d="M 221.002748 155.562072 
L 228.155024 149.255935 
L 240.575825 152.882725 
L 233.500008 159.25588 
z
" style="fill:#280156;"/>
    <path clip-path="url(#p88e360cd3e)" d="M 208.637156 151.907182 
L 221.002748 155.562072 
L 220.993629 150.038208 
L 208.594458 146.402557 
z
" style="fill:#2c0485;"/>
    <path clip-path="url(#p88e360cd3e)" d="M 201.27732 158.262275 
L 208.637156 151.907182 
L 208.634945 151.622076 
L 201.274042 157.975447 
z
" style="fill:#050338;"/>
    <path clip-path="url(#p88e360cd3e)" d="M 208.637156 151.907182 
L 208.556415 141.498073 
L 220.985504 145.116449 
L 221.002748 155.562072 
z
" style="fill:#200143;"/>
    <path clip-path="url(#p88e360cd3e)" d="M 188.96817 154.578956 
L 188.963395 154.306038 
L 201.27419 157.988406 
L 201.27732 158.262275 
z
" style="fill:#050338;"/>
    <path clip-path="url(#p88e360cd3e)" d="M 188.96817 154.578956 
L 201.27732 158.262275 
L 201.274042 157.975447 
L 188.963169 154.293125 
z
" style="fill:#0b0777;"/>
    <path clip-path="url(#p88e360cd3e)" d="M 240.575825 152.882725 
L 240.658753 142.549688 
L 253.276189 146.178684 
L 253.128369 156.547983 
z
" style="fill:#1f0143;"/>
    <path clip-path="url(#p88e360cd3e)" d="M 201.27732 158.262275 
L 201.157635 147.789802 
L 208.556415 141.498073 
L 208.637156 151.907182 
z
" style="fill:#44028e;"/>
    <path clip-path="url(#p88e360cd3e)" d="M 201.27732 158.262275 
L 208.637156 151.907182 
L 221.002748 155.562072 
L 213.718049 161.984967 
z
" style="fill:#290156;"/>
    <path clip-path="url(#p88e360cd3e)" d="M 220.986028 145.433856 
L 233.546177 149.092085 
L 240.656902 142.780439 
L 228.173981 139.188911 
z
" style="fill:#39027b;"/>
    <path clip-path="url(#p88e360cd3e)" d="M 233.500008 159.25588 
L 240.575825 152.882725 
L 240.656902 142.780439 
L 233.546177 149.092085 
z
" style="fill:#1f0143;"/>
    <path clip-path="url(#p88e360cd3e)" d="M 181.397755 160.983577 
L 181.391904 160.709009 
L 188.963395 154.306038 
L 188.96817 154.578956 
z
" style="fill:#0b0777;"/>
    <path clip-path="url(#p88e360cd3e)" d="M 233.500008 159.25588 
L 233.547232 148.859918 
L 240.658753 142.549688 
L 240.575825 152.882725 
z
" style="fill:#42028e;"/>
    <path clip-path="url(#p88e360cd3e)" d="M 233.500008 159.25588 
L 240.575825 152.882725 
L 253.128369 156.547983 
L 246.131049 162.989229 
z
" style="fill:#280156;"/>
    <path clip-path="url(#p88e360cd3e)" d="M 221.002748 155.562072 
L 233.500008 159.25588 
L 233.546177 149.092085 
L 220.986028 145.433856 
z
" style="fill:#42028e;"/>
    <path clip-path="url(#p88e360cd3e)" d="M 181.397755 160.983577 
L 188.96817 154.578956 
L 201.27732 158.262275 
L 193.780682 164.735494 
z
" style="fill:#070448;"/>
    <path clip-path="url(#p88e360cd3e)" d="M 181.391904 160.709009 
L 193.776496 164.459966 
L 201.27419 157.988406 
L 188.963395 154.306038 
z
" style="fill:#0a0667;"/>
    <path clip-path="url(#p88e360cd3e)" d="M 253.128369 156.547983 
L 253.256295 147.57421 
L 266.000045 151.247041 
L 265.814761 160.252323 
z
" style="fill:#1c0142;"/>
    <path clip-path="url(#p88e360cd3e)" d="M 201.157635 147.789802 
L 213.662634 151.475653 
L 220.985504 145.116449 
L 208.556415 141.498073 
z
" style="fill:#3b027b;"/>
    <path clip-path="url(#p88e360cd3e)" d="M 213.718049 161.984967 
L 221.002748 155.562072 
L 220.985504 145.116449 
L 213.662634 151.475653 
z
" style="fill:#200143;"/>
    <path clip-path="url(#p88e360cd3e)" d="M 213.718049 161.984967 
L 221.002748 155.562072 
L 233.500008 159.25588 
L 226.292478 165.747667 
z
" style="fill:#4e0857;"/>
    <path clip-path="url(#p88e360cd3e)" d="M 246.131049 162.989229 
L 246.228785 153.960778 
L 253.256295 147.57421 
L 253.128369 156.547983 
z
" style="fill:#3c038c;"/>
    <path clip-path="url(#p88e360cd3e)" d="M 233.547232 148.859918 
L 246.243984 152.556682 
L 253.276189 146.178684 
L 240.658753 142.549688 
z
" style="fill:#39027b;"/>
    <path clip-path="url(#p88e360cd3e)" d="M 193.780682 164.735494 
L 201.27732 158.262275 
L 201.27419 157.988406 
L 193.776496 164.459966 
z
" style="fill:#050338;"/>
    <path clip-path="url(#p88e360cd3e)" d="M 246.131049 162.989229 
L 253.128369 156.547983 
L 253.276189 146.178684 
L 246.243984 152.556682 
z
" style="fill:#1f0143;"/>
    <path clip-path="url(#p88e360cd3e)" d="M 246.131049 162.989229 
L 253.128369 156.547983 
L 265.814761 160.252323 
L 258.898031 166.762758 
z
" style="fill:#240254;"/>
    <path clip-path="url(#p88e360cd3e)" d="M 221.002748 155.562072 
L 220.960852 130.183548 
L 233.6157 133.787181 
L 233.500008 159.25588 
z
" style="fill:#3d0644;"/>
    <path clip-path="url(#p88e360cd3e)" d="M 201.27732 158.262275 
L 201.167426 148.646509 
L 213.667167 152.335396 
L 213.718049 161.984967 
z
" style="fill:#1e0142;"/>
    <path clip-path="url(#p88e360cd3e)" d="M 201.27732 158.262275 
L 213.718049 161.984967 
L 213.662634 151.475653 
L 201.157635 147.789802 
z
" style="fill:#44028e;"/>
    <path clip-path="url(#p88e360cd3e)" d="M 265.814761 160.252323 
L 265.845507 158.758007 
L 278.677621 162.496834 
L 278.637155 163.996376 
z
" style="fill:#0a033a;"/>
    <path clip-path="url(#p88e360cd3e)" d="M 181.397755 160.983577 
L 193.780682 164.735494 
L 193.776496 164.459966 
L 181.391904 160.709009 
z
" style="fill:#0b0777;"/>
    <path clip-path="url(#p88e360cd3e)" d="M 181.397755 160.983577 
L 181.390116 160.625112 
L 193.775217 164.375776 
L 193.780682 164.735494 
z
" style="fill:#050338;"/>
    <path clip-path="url(#p88e360cd3e)" d="M 233.500008 159.25588 
L 246.131049 162.989229 
L 246.243984 152.556682 
L 233.547232 148.859918 
z
" style="fill:#42028e;"/>
    <path clip-path="url(#p88e360cd3e)" d="M 213.718049 161.984967 
L 213.583404 136.449954 
L 220.960852 130.183548 
L 221.002748 155.562072 
z
" style="fill:#810e90;"/>
    <path clip-path="url(#p88e360cd3e)" d="M 193.780682 164.735494 
L 193.633704 155.061067 
L 201.167426 148.646509 
L 201.27732 158.262275 
z
" style="fill:#3f038d;"/>
    <path clip-path="url(#p88e360cd3e)" d="M 193.780682 164.735494 
L 201.27732 158.262275 
L 213.718049 161.984967 
L 206.297214 168.527892 
z
" style="fill:#260255;"/>
    <path clip-path="url(#p88e360cd3e)" d="M 258.898031 166.762758 
L 258.923889 165.259375 
L 265.845507 158.758007 
L 265.814761 160.252323 
z
" style="fill:#16067b;"/>
    <path clip-path="url(#p88e360cd3e)" d="M 173.686069 167.507715 
L 173.676974 167.147076 
L 181.390116 160.625112 
L 181.397755 160.983577 
z
" style="fill:#0b0777;"/>
    <path clip-path="url(#p88e360cd3e)" d="M 226.292478 165.747667 
L 233.500008 159.25588 
L 246.131049 162.989229 
L 239.002775 169.551023 
z
" style="fill:#530c54;"/>
    <path clip-path="url(#p88e360cd3e)" d="M 246.228785 153.960778 
L 259.053862 157.702519 
L 266.000045 151.247041 
L 253.256295 147.57421 
z
" style="fill:#340279;"/>
    <path clip-path="url(#p88e360cd3e)" d="M 258.898031 166.762758 
L 265.814761 160.252323 
L 266.000045 151.247041 
L 259.053862 157.702519 
z
" style="fill:#1c0142;"/>
    <path clip-path="url(#p88e360cd3e)" d="M 258.898031 166.762758 
L 265.814761 160.252323 
L 278.637155 163.996376 
L 271.803162 170.57712 
z
" style="fill:#0d034a;"/>
    <path clip-path="url(#p88e360cd3e)" d="M 258.923889 165.259375 
L 271.838867 169.068466 
L 278.677621 162.496834 
L 265.845507 158.758007 
z
" style="fill:#13056b;"/>
    <path clip-path="url(#p88e360cd3e)" d="M 233.500008 159.25588 
L 233.626606 131.386217 
L 246.433822 135.020192 
L 246.131049 162.989229 
z
" style="fill:#410a42;"/>
    <path clip-path="url(#p88e360cd3e)" d="M 278.637155 163.996376 
L 278.654073 163.369457 
L 291.618818 167.151668 
L 291.597749 167.780781 
z
" style="fill:#070339;"/>
    <path clip-path="url(#p88e360cd3e)" d="M 173.686069 167.507715 
L 181.397755 160.983577 
L 193.780682 164.735494 
L 186.143392 171.330164 
z
" style="fill:#070448;"/>
    <path clip-path="url(#p88e360cd3e)" d="M 173.676974 167.147076 
L 186.136497 170.968261 
L 193.775217 164.375776 
L 181.390116 160.625112 
z
" style="fill:#0a0667;"/>
    <path clip-path="url(#p88e360cd3e)" d="M 246.131049 162.989229 
L 258.898031 166.762758 
L 259.053862 157.702519 
L 246.228785 153.960778 
z
" style="fill:#3c038c;"/>
    <path clip-path="url(#p88e360cd3e)" d="M 193.633704 155.061067 
L 206.209968 158.819361 
L 213.667167 152.335396 
L 201.167426 148.646509 
z
" style="fill:#37027a;"/>
    <path clip-path="url(#p88e360cd3e)" d="M 226.292478 165.747667 
L 233.500008 159.25588 
L 233.6157 133.787181 
L 226.317387 140.121655 
z
" style="fill:#3d0644;"/>
    <path clip-path="url(#p88e360cd3e)" d="M 206.297214 168.527892 
L 213.718049 161.984967 
L 213.667167 152.335396 
L 206.209968 158.819361 
z
" style="fill:#1e0142;"/>
    <path clip-path="url(#p88e360cd3e)" d="M 206.297214 168.527892 
L 213.718049 161.984967 
L 226.292478 165.747667 
L 218.949524 172.361429 
z
" style="fill:#6d273f;"/>
    <path clip-path="url(#p88e360cd3e)" d="M 226.292478 165.747667 
L 226.319735 137.705551 
L 233.626606 131.386217 
L 233.500008 159.25588 
z
" style="fill:#8a148c;"/>
    <path clip-path="url(#p88e360cd3e)" d="M 193.780682 164.735494 
L 193.716695 160.523753 
L 206.259232 164.301366 
L 206.297214 168.527892 
z
" style="fill:#11023d;"/>
    <path clip-path="url(#p88e360cd3e)" d="M 271.803162 170.57712 
L 271.818089 169.946394 
L 278.654073 163.369457 
L 278.637155 163.996376 
z
" style="fill:#0e0678;"/>
    <path clip-path="url(#p88e360cd3e)" d="M 271.803162 170.57712 
L 278.637155 163.996376 
L 278.677621 162.496834 
L 271.838867 169.068466 
z
" style="fill:#0a033a;"/>
    <path clip-path="url(#p88e360cd3e)" d="M 186.143392 171.330164 
L 193.780682 164.735494 
L 193.775217 164.375776 
L 186.136497 170.968261 
z
" style="fill:#050338;"/>
    <path clip-path="url(#p88e360cd3e)" d="M 239.002775 169.551023 
L 246.131049 162.989229 
L 258.898031 166.762758 
L 251.851153 173.395697 
z
" style="fill:#500a56;"/>
    <path clip-path="url(#p88e360cd3e)" d="M 213.718049 161.984967 
L 226.292478 165.747667 
L 226.317387 140.121655 
L 213.583404 136.449954 
z
" style="fill:#810e90;"/>
    <path clip-path="url(#p88e360cd3e)" d="M 193.780682 164.735494 
L 206.297214 168.527892 
L 206.209968 158.819361 
L 193.633704 155.061067 
z
" style="fill:#3f038d;"/>
    <path clip-path="url(#p88e360cd3e)" d="M 186.143392 171.330164 
L 186.062662 167.092767 
L 193.716695 160.523753 
L 193.780682 164.735494 
z
" style="fill:#250582;"/>
    <path clip-path="url(#p88e360cd3e)" d="M 258.898031 166.762758 
L 271.803162 170.57712 
L 271.838867 169.068466 
L 258.923889 165.259375 
z
" style="fill:#16067b;"/>
    <path clip-path="url(#p88e360cd3e)" d="M 271.803162 170.57712 
L 278.637155 163.996376 
L 291.597749 167.780781 
L 284.848695 174.43298 
z
" style="fill:#090449;"/>
    <path clip-path="url(#p88e360cd3e)" d="M 271.818089 169.946394 
L 284.867829 173.800041 
L 291.618818 167.151668 
L 278.654073 163.369457 
z
" style="fill:#0c0668;"/>
    <path clip-path="url(#p88e360cd3e)" d="M 173.686069 167.507715 
L 173.677921 167.184637 
L 186.137216 171.005954 
L 186.143392 171.330164 
z
" style="fill:#050338;"/>
    <path clip-path="url(#p88e360cd3e)" d="M 213.583404 136.449954 
L 226.317387 140.121655 
L 233.6157 133.787181 
L 220.960852 130.183548 
z
" style="fill:#700c7d;"/>
    <path clip-path="url(#p88e360cd3e)" d="M 173.686069 167.507715 
L 186.143392 171.330164 
L 186.136497 170.968261 
L 173.676974 167.147076 
z
" style="fill:#0b0777;"/>
    <path clip-path="url(#p88e360cd3e)" d="M 246.131049 162.989229 
L 246.417644 136.514678 
L 259.355004 140.193754 
L 258.898031 166.762758 
z
" style="fill:#3f0843;"/>
    <path clip-path="url(#p88e360cd3e)" d="M 291.597749 167.780781 
L 291.605635 167.545313 
L 304.708262 171.369903 
L 304.698789 171.606197 
z
" style="fill:#050338;"/>
    <path clip-path="url(#p88e360cd3e)" d="M 258.898031 166.762758 
L 259.011994 160.136838 
L 271.960529 163.927879 
L 271.803162 170.57712 
z
" style="fill:#170240;"/>
    <path clip-path="url(#p88e360cd3e)" d="M 186.143392 171.330164 
L 193.780682 164.735494 
L 206.297214 168.527892 
L 198.736391 175.194243 
z
" style="fill:#16034f;"/>
    <path clip-path="url(#p88e360cd3e)" d="M 165.82912 174.154745 
L 165.819621 173.829703 
L 173.677921 167.184637 
L 173.686069 167.507715 
z
" style="fill:#0b0777;"/>
    <path clip-path="url(#p88e360cd3e)" d="M 239.002775 169.551023 
L 239.197455 142.912561 
L 246.417644 136.514678 
L 246.131049 162.989229 
z
" style="fill:#85108e;"/>
    <path clip-path="url(#p88e360cd3e)" d="M 218.949524 172.361429 
L 226.292478 165.747667 
L 239.002775 169.551023 
L 231.739835 176.23678 
z
" style="fill:#732e3a;"/>
    <path clip-path="url(#p88e360cd3e)" d="M 284.848695 174.43298 
L 284.855857 174.196081 
L 291.605635 167.545313 
L 291.597749 167.780781 
z
" style="fill:#0b0777;"/>
    <path clip-path="url(#p88e360cd3e)" d="M 239.002775 169.551023 
L 246.131049 162.989229 
L 246.433822 135.020192 
L 239.208446 141.408627 
z
" style="fill:#410a42;"/>
    <path clip-path="url(#p88e360cd3e)" d="M 284.848695 174.43298 
L 291.597749 167.780781 
L 291.618818 167.151668 
L 284.867829 173.800041 
z
" style="fill:#070339;"/>
    <path clip-path="url(#p88e360cd3e)" d="M 251.851153 173.395697 
L 251.942734 166.72931 
L 259.011994 160.136838 
L 258.898031 166.762758 
z
" style="fill:#300487;"/>
    <path clip-path="url(#p88e360cd3e)" d="M 213.718049 161.984967 
L 213.493468 119.393631 
L 226.334027 123.002604 
L 226.292478 165.747667 
z
" style="fill:#551e32;"/>
    <path clip-path="url(#p88e360cd3e)" d="M 186.062662 167.092767 
L 198.681982 170.941935 
L 206.259232 164.301366 
L 193.716695 160.523753 
z
" style="fill:#200471;"/>
    <path clip-path="url(#p88e360cd3e)" d="M 251.851153 173.395697 
L 258.898031 166.762758 
L 271.803162 170.57712 
L 264.839875 177.282368 
z
" style="fill:#1d0251;"/>
    <path clip-path="url(#p88e360cd3e)" d="M 226.292478 165.747667 
L 239.002775 169.551023 
L 239.208446 141.408627 
L 226.319735 137.705551 
z
" style="fill:#8a148c;"/>
    <path clip-path="url(#p88e360cd3e)" d="M 198.736391 175.194243 
L 206.297214 168.527892 
L 206.259232 164.301366 
L 198.681982 170.941935 
z
" style="fill:#11023d;"/>
    <path clip-path="url(#p88e360cd3e)" d="M 271.803162 170.57712 
L 284.848695 174.43298 
L 284.867829 173.800041 
L 271.818089 169.946394 
z
" style="fill:#0e0678;"/>
    <path clip-path="url(#p88e360cd3e)" d="M 271.803162 170.57712 
L 271.823074 169.735767 
L 284.874218 173.588675 
L 284.848695 174.43298 
z
" style="fill:#080339;"/>
    <path clip-path="url(#p88e360cd3e)" d="M 206.297214 168.527892 
L 205.912069 125.669768 
L 213.493468 119.393631 
L 213.718049 161.984967 
z
" style="fill:#b54069;"/>
    <path clip-path="url(#p88e360cd3e)" d="M 165.82912 174.154745 
L 173.686069 167.507715 
L 186.143392 171.330164 
L 178.361455 178.049733 
z
" style="fill:#070448;"/>
    <path clip-path="url(#p88e360cd3e)" d="M 165.819621 173.829703 
L 178.35395 177.72355 
L 186.137216 171.005954 
L 173.677921 167.184637 
z
" style="fill:#0a0667;"/>
    <path clip-path="url(#p88e360cd3e)" d="M 284.848695 174.43298 
L 291.597749 167.780781 
L 304.698789 171.606197 
L 298.036935 178.33102 
z
" style="fill:#070448;"/>
    <path clip-path="url(#p88e360cd3e)" d="M 284.855857 174.196081 
L 298.045705 178.093288 
L 304.708262 171.369903 
L 291.605635 167.545313 
z
" style="fill:#0a0667;"/>
    <path clip-path="url(#p88e360cd3e)" d="M 198.736391 175.194243 
L 206.297214 168.527892 
L 218.949524 172.361429 
L 211.467294 179.100638 
z
" style="fill:#732f39;"/>
    <path clip-path="url(#p88e360cd3e)" d="M 186.143392 171.330164 
L 186.082494 168.133728 
L 198.695349 171.986568 
L 198.736391 175.194243 
z
" style="fill:#0f023c;"/>
    <path clip-path="url(#p88e360cd3e)" d="M 186.143392 171.330164 
L 198.736391 175.194243 
L 198.681982 170.941935 
L 186.062662 167.092767 
z
" style="fill:#250582;"/>
    <path clip-path="url(#p88e360cd3e)" d="M 264.839875 177.282368 
L 264.857027 176.435892 
L 271.823074 169.735767 
L 271.803162 170.57712 
z
" style="fill:#110679;"/>
    <path clip-path="url(#p88e360cd3e)" d="M 226.319735 137.705551 
L 239.208446 141.408627 
L 246.433822 135.020192 
L 233.626606 131.386217 
z
" style="fill:#771279;"/>
    <path clip-path="url(#p88e360cd3e)" d="M 251.942734 166.72931 
L 264.97543 170.592458 
L 271.960529 163.927879 
L 259.011994 160.136838 
z
" style="fill:#2a0375;"/>
    <path clip-path="url(#p88e360cd3e)" d="M 178.361455 178.049733 
L 186.143392 171.330164 
L 186.137216 171.005954 
L 178.35395 177.72355 
z
" style="fill:#050338;"/>
    <path clip-path="url(#p88e360cd3e)" d="M 251.851153 173.395697 
L 258.898031 166.762758 
L 259.355004 140.193754 
L 252.218414 146.661929 
z
" style="fill:#3f0843;"/>
    <path clip-path="url(#p88e360cd3e)" d="M 231.739835 176.23678 
L 239.002775 169.551023 
L 251.851153 173.395697 
L 244.670417 180.154631 
z
" style="fill:#722d3b;"/>
    <path clip-path="url(#p88e360cd3e)" d="M 298.036935 178.33102 
L 304.698789 171.606197 
L 304.708262 171.369903 
L 298.045705 178.093288 
z
" style="fill:#050338;"/>
    <path clip-path="url(#p88e360cd3e)" d="M 264.839875 177.282368 
L 271.803162 170.57712 
L 271.960529 163.927879 
L 264.97543 170.592458 
z
" style="fill:#170240;"/>
    <path clip-path="url(#p88e360cd3e)" d="M 178.361455 178.049733 
L 178.287454 174.833795 
L 186.082494 168.133728 
L 186.143392 171.330164 
z
" style="fill:#200580;"/>
    <path clip-path="url(#p88e360cd3e)" d="M 226.292478 165.747667 
L 226.337817 119.102987 
L 239.344901 122.737198 
L 239.002775 169.551023 
z
" style="fill:#5a242d;"/>
    <path clip-path="url(#p88e360cd3e)" d="M 264.839875 177.282368 
L 271.803162 170.57712 
L 284.848695 174.43298 
L 277.971253 181.211726 
z
" style="fill:#0a0449;"/>
    <path clip-path="url(#p88e360cd3e)" d="M 165.82912 174.154745 
L 178.361455 178.049733 
L 178.35395 177.72355 
L 165.819621 173.829703 
z
" style="fill:#0b0777;"/>
    <path clip-path="url(#p88e360cd3e)" d="M 264.857027 176.435892 
L 277.99409 180.362273 
L 284.874218 173.588675 
L 271.823074 169.735767 
z
" style="fill:#0f0569;"/>
    <path clip-path="url(#p88e360cd3e)" d="M 165.82912 174.154745 
L 165.816672 173.728823 
L 178.35162 177.622316 
L 178.361455 178.049733 
z
" style="fill:#050338;"/>
    <path clip-path="url(#p88e360cd3e)" d="M 239.002775 169.551023 
L 251.851153 173.395697 
L 252.218414 146.661929 
L 239.197455 142.912561 
z
" style="fill:#85108e;"/>
    <path clip-path="url(#p88e360cd3e)" d="M 284.848695 174.43298 
L 298.036935 178.33102 
L 298.045705 178.093288 
L 284.855857 174.196081 
z
" style="fill:#0b0777;"/>
    <path clip-path="url(#p88e360cd3e)" d="M 284.848695 174.43298 
L 284.864148 173.921787 
L 298.055859 177.818031 
L 298.036935 178.33102 
z
" style="fill:#070339;"/>
    <path clip-path="url(#p88e360cd3e)" d="M 251.851153 173.395697 
L 264.839875 177.282368 
L 264.97543 170.592458 
L 251.942734 166.72931 
z
" style="fill:#300487;"/>
    <path clip-path="url(#p88e360cd3e)" d="M 218.949524 172.361429 
L 226.292478 165.747667 
L 226.334027 123.002604 
L 218.833845 129.348146 
z
" style="fill:#551e32;"/>
    <path clip-path="url(#p88e360cd3e)" d="M 178.361455 178.049733 
L 186.143392 171.330164 
L 198.736391 175.194243 
L 191.031582 181.987547 
z
" style="fill:#13034d;"/>
    <path clip-path="url(#p88e360cd3e)" d="M 218.949524 172.361429 
L 218.823289 125.423205 
L 226.337817 119.102987 
L 226.292478 165.747667 
z
" style="fill:#be4c60;"/>
    <path clip-path="url(#p88e360cd3e)" d="M 239.197455 142.912561 
L 252.218414 146.661929 
L 259.355004 140.193754 
L 246.417644 136.514678 
z
" style="fill:#730e7b;"/>
    <path clip-path="url(#p88e360cd3e)" d="M 157.822766 180.928173 
L 157.80848 180.499655 
L 165.816672 173.728823 
L 165.82912 174.154745 
z
" style="fill:#0b0777;"/>
    <path clip-path="url(#p88e360cd3e)" d="M 211.467294 179.100638 
L 218.949524 172.361429 
L 231.739835 176.23678 
L 224.338378 183.050047 
z
" style="fill:#845022;"/>
    <path clip-path="url(#p88e360cd3e)" d="M 178.287454 174.833795 
L 190.977679 178.760273 
L 198.695349 171.986568 
L 186.082494 168.133728 
z
" style="fill:#1b046f;"/>
    <path clip-path="url(#p88e360cd3e)" d="M 277.971253 181.211726 
L 277.98508 180.697416 
L 284.864148 173.921787 
L 284.848695 174.43298 
z
" style="fill:#0e0678;"/>
    <path clip-path="url(#p88e360cd3e)" d="M 277.971253 181.211726 
L 284.848695 174.43298 
L 284.874218 173.588675 
L 277.99409 180.362273 
z
" style="fill:#080339;"/>
    <path clip-path="url(#p88e360cd3e)" d="M 206.297214 168.527892 
L 218.949524 172.361429 
L 218.833845 129.348146 
L 205.912069 125.669768 
z
" style="fill:#b54069;"/>
    <path clip-path="url(#p88e360cd3e)" d="M 244.670417 180.154631 
L 251.851153 173.395697 
L 264.839875 177.282368 
L 257.743589 184.115686 
z
" style="fill:#430259;"/>
    <path clip-path="url(#p88e360cd3e)" d="M 206.297214 168.527892 
L 205.874753 121.517423 
L 218.822636 125.180239 
L 218.949524 172.361429 
z
" style="fill:#5a242d;"/>
    <path clip-path="url(#p88e360cd3e)" d="M 251.851153 173.395697 
L 252.141963 152.226974 
L 265.270339 156.038111 
L 264.839875 177.282368 
z
" style="fill:#350146;"/>
    <path clip-path="url(#p88e360cd3e)" d="M 191.031582 181.987547 
L 198.736391 175.194243 
L 198.695349 171.986568 
L 190.977679 178.760273 
z
" style="fill:#0f023c;"/>
    <path clip-path="url(#p88e360cd3e)" d="M 264.839875 177.282368 
L 277.971253 181.211726 
L 277.99409 180.362273 
L 264.857027 176.435892 
z
" style="fill:#110679;"/>
    <path clip-path="url(#p88e360cd3e)" d="M 157.822766 180.928173 
L 165.82912 174.154745 
L 178.361455 178.049733 
L 170.430723 184.897786 
z
" style="fill:#070448;"/>
    <path clip-path="url(#p88e360cd3e)" d="M 157.80848 180.499655 
L 170.419081 184.46776 
L 178.35162 177.622316 
L 165.816672 173.728823 
z
" style="fill:#0a0667;"/>
    <path clip-path="url(#p88e360cd3e)" d="M 264.839875 177.282368 
L 264.887054 174.953963 
L 278.034073 178.875122 
L 277.971253 181.211726 
z
" style="fill:#0c033b;"/>
    <path clip-path="url(#p88e360cd3e)" d="M 239.002775 169.551023 
L 239.340973 123.274714 
L 252.489193 126.951353 
L 251.851153 173.395697 
z
" style="fill:#59232e;"/>
    <path clip-path="url(#p88e360cd3e)" d="M 277.971253 181.211726 
L 284.848695 174.43298 
L 298.036935 178.33102 
L 291.24765 185.184478 
z
" style="fill:#090449;"/>
    <path clip-path="url(#p88e360cd3e)" d="M 277.98508 180.697416 
L 291.264996 184.668358 
L 298.055859 177.818031 
L 284.864148 173.921787 
z
" style="fill:#0c0668;"/>
    <path clip-path="url(#p88e360cd3e)" d="M 198.736391 175.194243 
L 198.131095 127.887495 
L 205.874753 121.517423 
L 206.297214 168.527892 
z
" style="fill:#bf4d5f;"/>
    <path clip-path="url(#p88e360cd3e)" d="M 178.361455 178.049733 
L 178.306926 175.68001 
L 190.991863 179.609476 
L 191.031582 181.987547 
z
" style="fill:#0c033b;"/>
    <path clip-path="url(#p88e360cd3e)" d="M 191.031582 181.987547 
L 198.736391 175.194243 
L 211.467294 179.100638 
L 203.841786 185.968896 
z
" style="fill:#6e283e;"/>
    <path clip-path="url(#p88e360cd3e)" d="M 244.670417 180.154631 
L 244.88739 158.854837 
L 252.141963 152.226974 
L 251.851153 173.395697 
z
" style="fill:#6f0394;"/>
    <path clip-path="url(#p88e360cd3e)" d="M 178.361455 178.049733 
L 191.031582 181.987547 
L 190.977679 178.760273 
L 178.287454 174.833795 
z
" style="fill:#200580;"/>
    <path clip-path="url(#p88e360cd3e)" d="M 257.743589 184.115686 
L 257.782874 181.773055 
L 264.887054 174.953963 
L 264.839875 177.282368 
z
" style="fill:#1a057d;"/>
    <path clip-path="url(#p88e360cd3e)" d="M 231.739835 176.23678 
L 231.912181 129.668854 
L 239.340973 123.274714 
L 239.002775 169.551023 
z
" style="fill:#bc4a61;"/>
    <path clip-path="url(#p88e360cd3e)" d="M 231.739835 176.23678 
L 239.002775 169.551023 
L 239.344901 122.737198 
L 231.914184 129.127833 
z
" style="fill:#5a242d;"/>
    <path clip-path="url(#p88e360cd3e)" d="M 170.430723 184.897786 
L 178.361455 178.049733 
L 178.35162 177.622316 
L 170.419081 184.46776 
z
" style="fill:#050338;"/>
    <path clip-path="url(#p88e360cd3e)" d="M 224.338378 183.050047 
L 231.739835 176.23678 
L 244.670417 180.154631 
L 237.351973 187.043183 
z
" style="fill:#834b25;"/>
    <path clip-path="url(#p88e360cd3e)" d="M 291.24765 185.184478 
L 298.036935 178.33102 
L 298.055859 177.818031 
L 291.264996 184.668358 
z
" style="fill:#070339;"/>
    <path clip-path="url(#p88e360cd3e)" d="M 170.430723 184.897786 
L 170.366175 182.513579 
L 178.306926 175.68001 
L 178.361455 178.049733 
z
" style="fill:#1a057d;"/>
    <path clip-path="url(#p88e360cd3e)" d="M 205.912069 125.669768 
L 218.833845 129.348146 
L 226.334027 123.002604 
L 213.493468 119.393631 
z
" style="fill:#9d385b;"/>
    <path clip-path="url(#p88e360cd3e)" d="M 218.949524 172.361429 
L 231.739835 176.23678 
L 231.914184 129.127833 
L 218.823289 125.423205 
z
" style="fill:#be4c60;"/>
    <path clip-path="url(#p88e360cd3e)" d="M 257.743589 184.115686 
L 264.839875 177.282368 
L 277.971253 181.211726 
L 270.961723 188.120663 
z
" style="fill:#10034c;"/>
    <path clip-path="url(#p88e360cd3e)" d="M 157.822766 180.928173 
L 170.430723 184.897786 
L 170.419081 184.46776 
L 157.80848 180.499655 
z
" style="fill:#0b0777;"/>
    <path clip-path="url(#p88e360cd3e)" d="M 157.822766 180.928173 
L 157.807415 180.467696 
L 170.418212 184.435689 
L 170.430723 184.897786 
z
" style="fill:#050338;"/>
    <path clip-path="url(#p88e360cd3e)" d="M 277.971253 181.211726 
L 291.24765 185.184478 
L 291.264996 184.668358 
L 277.98508 180.697416 
z
" style="fill:#0e0678;"/>
    <path clip-path="url(#p88e360cd3e)" d="M 277.971253 181.211726 
L 277.988452 180.571991 
L 291.269226 184.542491 
L 291.24765 185.184478 
z
" style="fill:#070339;"/>
    <path clip-path="url(#p88e360cd3e)" d="M 170.430723 184.897786 
L 178.361455 178.049733 
L 191.031582 181.987547 
L 183.178635 188.911464 
z
" style="fill:#10034c;"/>
    <path clip-path="url(#p88e360cd3e)" d="M 257.782874 181.773055 
L 271.016858 185.769765 
L 278.034073 178.875122 
L 264.887054 174.953963 
z
" style="fill:#17056d;"/>
    <path clip-path="url(#p88e360cd3e)" d="M 211.467294 179.100638 
L 218.949524 172.361429 
L 218.822636 125.180239 
L 211.161283 131.621582 
z
" style="fill:#5a242d;"/>
    <path clip-path="url(#p88e360cd3e)" d="M 170.366175 182.513579 
L 183.129078 186.518841 
L 190.991863 179.609476 
L 178.306926 175.68001 
z
" style="fill:#17056d;"/>
    <path clip-path="url(#p88e360cd3e)" d="M 149.662704 187.831639 
L 149.645304 187.36835 
L 157.807415 180.467696 
L 157.822766 180.928173 
z
" style="fill:#0b0777;"/>
    <path clip-path="url(#p88e360cd3e)" d="M 203.841786 185.968896 
L 211.467294 179.100638 
L 224.338378 183.050047 
L 216.794403 189.994506 
z
" style="fill:#876317;"/>
    <path clip-path="url(#p88e360cd3e)" d="M 257.743589 184.115686 
L 264.839875 177.282368 
L 265.270339 156.038111 
L 258.102058 162.739697 
z
" style="fill:#350146;"/>
    <path clip-path="url(#p88e360cd3e)" d="M 270.961723 188.120663 
L 270.976818 187.47702 
L 277.988452 180.571991 
L 277.971253 181.211726 
z
" style="fill:#0e0678;"/>
    <path clip-path="url(#p88e360cd3e)" d="M 198.736391 175.194243 
L 198.175956 131.393576 
L 211.183965 135.140855 
L 211.467294 179.100638 
z
" style="fill:#561f31;"/>
    <path clip-path="url(#p88e360cd3e)" d="M 270.961723 188.120663 
L 277.971253 181.211726 
L 278.034073 178.875122 
L 271.016858 185.769765 
z
" style="fill:#0c033b;"/>
    <path clip-path="url(#p88e360cd3e)" d="M 244.670417 180.154631 
L 251.851153 173.395697 
L 252.489193 126.951353 
L 245.146514 133.417113 
z
" style="fill:#59232e;"/>
    <path clip-path="url(#p88e360cd3e)" d="M 237.351973 187.043183 
L 244.670417 180.154631 
L 257.743589 184.115686 
L 250.510457 191.080779 
z
" style="fill:#682144;"/>
    <path clip-path="url(#p88e360cd3e)" d="M 198.736391 175.194243 
L 211.467294 179.100638 
L 211.161283 131.621582 
L 198.131095 127.887495 
z
" style="fill:#bf4d5f;"/>
    <path clip-path="url(#p88e360cd3e)" d="M 218.949524 172.361429 
L 218.776717 108.106022 
L 231.978518 111.744624 
L 231.739835 176.23678 
z
" style="fill:#673e1b;"/>
    <path clip-path="url(#p88e360cd3e)" d="M 183.178635 188.911464 
L 191.031582 181.987547 
L 190.991863 179.609476 
L 183.129078 186.518841 
z
" style="fill:#0c033b;"/>
    <path clip-path="url(#p88e360cd3e)" d="M 244.670417 180.154631 
L 257.743589 184.115686 
L 258.102058 162.739697 
L 244.88739 158.854837 
z
" style="fill:#6f0394;"/>
    <path clip-path="url(#p88e360cd3e)" d="M 244.88739 158.854837 
L 258.102058 162.739697 
L 265.270339 156.038111 
L 252.141963 152.226974 
z
" style="fill:#610281;"/>
    <path clip-path="url(#p88e360cd3e)" d="M 149.662704 187.831639 
L 157.822766 180.928173 
L 170.430723 184.897786 
L 162.346885 191.878042 
z
" style="fill:#070448;"/>
    <path clip-path="url(#p88e360cd3e)" d="M 191.031582 181.987547 
L 190.29539 137.910751 
L 198.175956 131.393576 
L 198.736391 175.194243 
z
" style="fill:#b64267;"/>
    <path clip-path="url(#p88e360cd3e)" d="M 257.743589 184.115686 
L 270.961723 188.120663 
L 271.016858 185.769765 
L 257.782874 181.773055 
z
" style="fill:#1a057d;"/>
    <path clip-path="url(#p88e360cd3e)" d="M 149.645304 187.36835 
L 162.33236 191.413119 
L 170.418212 184.435689 
L 157.807415 180.467696 
z
" style="fill:#0a0667;"/>
    <path clip-path="url(#p88e360cd3e)" d="M 231.739835 176.23678 
L 244.670417 180.154631 
L 245.146514 133.417113 
L 231.912181 129.668854 
z
" style="fill:#bc4a61;"/>
    <path clip-path="url(#p88e360cd3e)" d="M 270.961723 188.120663 
L 277.971253 181.211726 
L 291.24765 185.184478 
L 284.327244 192.170297 
z
" style="fill:#090449;"/>
    <path clip-path="url(#p88e360cd3e)" d="M 270.976818 187.47702 
L 284.346775 191.524383 
L 291.269226 184.542491 
L 277.988452 180.571991 
z
" style="fill:#0c0668;"/>
    <path clip-path="url(#p88e360cd3e)" d="M 257.743589 184.115686 
L 257.820793 179.511887 
L 271.070075 183.500587 
L 270.961723 188.120663 
z
" style="fill:#12023e;"/>
    <path clip-path="url(#p88e360cd3e)" d="M 170.430723 184.897786 
L 170.385261 183.218541 
L 183.143731 187.226294 
L 183.178635 188.911464 
z
" style="fill:#0a033a;"/>
    <path clip-path="url(#p88e360cd3e)" d="M 211.467294 179.100638 
L 211.050508 114.434345 
L 218.776717 108.106022 
L 218.949524 172.361429 
z
" style="fill:#db8439;"/>
    <path clip-path="url(#p88e360cd3e)" d="M 170.430723 184.897786 
L 183.178635 188.911464 
L 183.129078 186.518841 
L 170.366175 182.513579 
z
" style="fill:#1a057d;"/>
    <path clip-path="url(#p88e360cd3e)" d="M 183.178635 188.911464 
L 191.031582 181.987547 
L 203.841786 185.968896 
L 196.068846 192.969946 
z
" style="fill:#5a1350;"/>
    <path clip-path="url(#p88e360cd3e)" d="M 218.823289 125.423205 
L 231.914184 129.127833 
L 239.344901 122.737198 
L 226.337817 119.102987 
z
" style="fill:#a54253;"/>
    <path clip-path="url(#p88e360cd3e)" d="M 250.510457 191.080779 
L 250.571529 186.448739 
L 257.820793 179.511887 
L 257.743589 184.115686 
z
" style="fill:#270483;"/>
    <path clip-path="url(#p88e360cd3e)" d="M 162.346885 191.878042 
L 170.430723 184.897786 
L 170.418212 184.435689 
L 162.33236 191.413119 
z
" style="fill:#050338;"/>
    <path clip-path="url(#p88e360cd3e)" d="M 216.794403 189.994506 
L 224.338378 183.050047 
L 237.351973 187.043183 
L 229.891821 194.06512 
z
" style="fill:#876c14;"/>
    <path clip-path="url(#p88e360cd3e)" d="M 162.346885 191.878042 
L 162.294101 190.188518 
L 170.385261 183.218541 
L 170.430723 184.897786 
z
" style="fill:#16067b;"/>
    <path clip-path="url(#p88e360cd3e)" d="M 284.327244 192.170297 
L 291.24765 185.184478 
L 291.269226 184.542491 
L 284.346775 191.524383 
z
" style="fill:#070339;"/>
    <path clip-path="url(#p88e360cd3e)" d="M 244.670417 180.154631 
L 245.079793 139.96697 
L 258.419971 143.782158 
L 257.743589 184.115686 
z
" style="fill:#521a35;"/>
    <path clip-path="url(#p88e360cd3e)" d="M 231.739835 176.23678 
L 231.971668 113.595481 
L 245.310872 117.282433 
L 244.670417 180.154631 
z
" style="fill:#663b1d;"/>
    <path clip-path="url(#p88e360cd3e)" d="M 250.510457 191.080779 
L 257.743589 184.115686 
L 270.961723 188.120663 
L 263.816264 195.163579 
z
" style="fill:#17034f;"/>
    <path clip-path="url(#p88e360cd3e)" d="M 191.031582 181.987547 
L 190.495857 149.912934 
L 203.510255 153.77851 
L 203.841786 185.968896 
z
" style="fill:#470f3e;"/>
    <path clip-path="url(#p88e360cd3e)" d="M 149.662704 187.831639 
L 149.650659 187.510915 
L 162.336829 191.556186 
L 162.346885 191.878042 
z
" style="fill:#050338;"/>
    <path clip-path="url(#p88e360cd3e)" d="M 149.662704 187.831639 
L 162.346885 191.878042 
L 162.33236 191.413119 
L 149.645304 187.36835 
z
" style="fill:#0b0777;"/>
    <path clip-path="url(#p88e360cd3e)" d="M 270.961723 188.120663 
L 284.327244 192.170297 
L 284.346775 191.524383 
L 270.976818 187.47702 
z
" style="fill:#0e0678;"/>
    <path clip-path="url(#p88e360cd3e)" d="M 270.961723 188.120663 
L 270.989715 186.927106 
L 284.363462 190.972527 
L 284.327244 192.170297 
z
" style="fill:#09033a;"/>
    <path clip-path="url(#p88e360cd3e)" d="M 162.346885 191.878042 
L 170.430723 184.897786 
L 183.178635 188.911464 
L 175.173234 195.969799 
z
" style="fill:#0d034a;"/>
    <path clip-path="url(#p88e360cd3e)" d="M 203.841786 185.968896 
L 211.467294 179.100638 
L 211.183965 135.140855 
L 203.386183 141.731533 
z
" style="fill:#561f31;"/>
    <path clip-path="url(#p88e360cd3e)" d="M 198.131095 127.887495 
L 211.161283 131.621582 
L 218.822636 125.180239 
L 205.874753 121.517423 
z
" style="fill:#a64352;"/>
    <path clip-path="url(#p88e360cd3e)" d="M 237.351973 187.043183 
L 237.616559 146.602395 
L 245.079793 139.96697 
L 244.670417 180.154631 
z
" style="fill:#ad3770;"/>
    <path clip-path="url(#p88e360cd3e)" d="M 224.338378 183.050047 
L 224.338378 120.00802 
L 231.971668 113.595481 
L 231.739835 176.23678 
z
" style="fill:#d97d3d;"/>
    <path clip-path="url(#p88e360cd3e)" d="M 162.294101 190.188518 
L 175.131136 194.274301 
L 183.143731 187.226294 
L 170.385261 183.218541 
z
" style="fill:#13056b;"/>
    <path clip-path="url(#p88e360cd3e)" d="M 224.338378 183.050047 
L 231.739835 176.23678 
L 231.978518 111.744624 
L 224.338378 118.14475 
z
" style="fill:#673e1b;"/>
    <path clip-path="url(#p88e360cd3e)" d="M 183.178635 188.911464 
L 182.51013 156.635953 
L 190.495857 149.912934 
L 191.031582 181.987547 
z
" style="fill:#961f84;"/>
    <path clip-path="url(#p88e360cd3e)" d="M 250.571529 186.448739 
L 263.908902 190.515129 
L 271.070075 183.500587 
L 257.820793 179.511887 
z
" style="fill:#220472;"/>
    <path clip-path="url(#p88e360cd3e)" d="M 231.912181 129.668854 
L 245.146514 133.417113 
L 252.489193 126.951353 
L 239.340973 123.274714 
z
" style="fill:#a44054;"/>
    <path clip-path="url(#p88e360cd3e)" d="M 141.344465 194.868925 
L 141.330948 194.546237 
L 149.650659 187.510915 
L 149.662704 187.831639 
z
" style="fill:#0b0777;"/>
    <path clip-path="url(#p88e360cd3e)" d="M 196.068846 192.969946 
L 203.841786 185.968896 
L 216.794403 189.994506 
L 209.103753 197.073984 
z
" style="fill:#876c14;"/>
    <path clip-path="url(#p88e360cd3e)" d="M 263.816264 195.163579 
L 263.840195 193.962712 
L 270.989715 186.927106 
L 270.961723 188.120663 
z
" style="fill:#13067a;"/>
    <path clip-path="url(#p88e360cd3e)" d="M 191.031582 181.987547 
L 203.841786 185.968896 
L 203.386183 141.731533 
L 190.29539 137.910751 
z
" style="fill:#b64267;"/>
    <path clip-path="url(#p88e360cd3e)" d="M 263.816264 195.163579 
L 270.961723 188.120663 
L 271.070075 183.500587 
L 263.908902 190.515129 
z
" style="fill:#12023e;"/>
    <path clip-path="url(#p88e360cd3e)" d="M 229.891821 194.06512 
L 237.351973 187.043183 
L 250.510457 191.080779 
L 243.136481 198.181496 
z
" style="fill:#834b25;"/>
    <path clip-path="url(#p88e360cd3e)" d="M 175.173234 195.969799 
L 183.178635 188.911464 
L 183.143731 187.226294 
L 175.131136 194.274301 
z
" style="fill:#0a033a;"/>
    <path clip-path="url(#p88e360cd3e)" d="M 211.467294 179.100638 
L 224.338378 183.050047 
L 224.338378 118.14475 
L 211.050508 114.434345 
z
" style="fill:#db8439;"/>
    <path clip-path="url(#p88e360cd3e)" d="M 141.344465 194.868925 
L 149.662704 187.831639 
L 162.346885 191.878042 
L 154.105465 198.994368 
z
" style="fill:#070448;"/>
    <path clip-path="url(#p88e360cd3e)" d="M 141.330948 194.546237 
L 154.093962 198.67054 
L 162.336829 191.556186 
L 149.650659 187.510915 
z
" style="fill:#0a0667;"/>
    <path clip-path="url(#p88e360cd3e)" d="M 263.816264 195.163579 
L 270.961723 188.120663 
L 284.327244 192.170297 
L 277.271882 199.292348 
z
" style="fill:#0c044a;"/>
    <path clip-path="url(#p88e360cd3e)" d="M 250.510457 191.080779 
L 263.816264 195.163579 
L 263.908902 190.515129 
L 250.571529 186.448739 
z
" style="fill:#270483;"/>
    <path clip-path="url(#p88e360cd3e)" d="M 263.840195 193.962712 
L 277.304151 198.087233 
L 284.363462 190.972527 
L 270.989715 186.927106 
z
" style="fill:#11056a;"/>
    <path clip-path="url(#p88e360cd3e)" d="M 162.346885 191.878042 
L 162.307462 190.616192 
L 175.141793 194.703489 
L 175.173234 195.969799 
z
" style="fill:#09033a;"/>
    <path clip-path="url(#p88e360cd3e)" d="M 162.346885 191.878042 
L 175.173234 195.969799 
L 175.131136 194.274301 
L 162.294101 190.188518 
z
" style="fill:#16067b;"/>
    <path clip-path="url(#p88e360cd3e)" d="M 211.467294 179.100638 
L 210.99373 105.625035 
L 224.338378 109.30109 
L 224.338378 183.050047 
z
" style="fill:#6a4d12;"/>
    <path clip-path="url(#p88e360cd3e)" d="M 183.178635 188.911464 
L 182.780751 169.701604 
L 195.79403 173.691281 
L 196.068846 192.969946 
z
" style="fill:#300046;"/>
    <path clip-path="url(#p88e360cd3e)" d="M 175.173234 195.969799 
L 183.178635 188.911464 
L 196.068846 192.969946 
L 188.144156 200.107676 
z
" style="fill:#3e005a;"/>
    <path clip-path="url(#p88e360cd3e)" d="M 250.510457 191.080779 
L 257.743589 184.115686 
L 258.419971 143.782158 
L 251.045598 150.492815 
z
" style="fill:#521a35;"/>
    <path clip-path="url(#p88e360cd3e)" d="M 237.351973 187.043183 
L 244.670417 180.154631 
L 245.310872 117.282433 
L 237.765954 123.768079 
z
" style="fill:#663b1d;"/>
    <path clip-path="url(#p88e360cd3e)" d="M 250.510457 191.080779 
L 250.659081 179.808329 
L 264.04171 183.850981 
L 263.816264 195.163579 
z
" style="fill:#210143;"/>
    <path clip-path="url(#p88e360cd3e)" d="M 196.068846 192.969946 
L 203.841786 185.968896 
L 203.510255 153.77851 
L 195.607096 160.577644 
z
" style="fill:#470f3e;"/>
    <path clip-path="url(#p88e360cd3e)" d="M 154.105465 198.994368 
L 162.346885 191.878042 
L 162.336829 191.556186 
L 154.093962 198.67054 
z
" style="fill:#050338;"/>
    <path clip-path="url(#p88e360cd3e)" d="M 209.103753 197.073984 
L 216.794403 189.994506 
L 229.891821 194.06512 
L 222.285805 201.224351 
z
" style="fill:#847a14;"/>
    <path clip-path="url(#p88e360cd3e)" d="M 154.105465 198.994368 
L 154.060366 197.72478 
L 162.307462 190.616192 
L 162.346885 191.878042 
z
" style="fill:#13067a;"/>
    <path clip-path="url(#p88e360cd3e)" d="M 203.841786 185.968896 
L 203.08017 112.018872 
L 210.99373 105.625035 
L 211.467294 179.100638 
z
" style="fill:#e0a427;"/>
    <path clip-path="url(#p88e360cd3e)" d="M 277.271882 199.292348 
L 284.327244 192.170297 
L 284.363462 190.972527 
L 277.304151 198.087233 
z
" style="fill:#09033a;"/>
    <path clip-path="url(#p88e360cd3e)" d="M 175.173234 195.969799 
L 174.693306 176.640554 
L 182.780751 169.701604 
L 183.178635 188.911464 
z
" style="fill:#660195;"/>
    <path clip-path="url(#p88e360cd3e)" d="M 190.29539 137.910751 
L 203.386183 141.731533 
L 211.183965 135.140855 
L 198.175956 131.393576 
z
" style="fill:#9e395a;"/>
    <path clip-path="url(#p88e360cd3e)" d="M 237.351973 187.043183 
L 250.510457 191.080779 
L 251.045598 150.492815 
L 237.616559 146.602395 
z
" style="fill:#ad3770;"/>
    <path clip-path="url(#p88e360cd3e)" d="M 224.338378 183.050047 
L 237.351973 187.043183 
L 237.765954 123.768079 
L 224.338378 120.00802 
z
" style="fill:#d97d3d;"/>
    <path clip-path="url(#p88e360cd3e)" d="M 243.136481 198.181496 
L 250.510457 191.080779 
L 263.816264 195.163579 
L 256.530882 202.34441 
z
" style="fill:#2a0156;"/>
    <path clip-path="url(#p88e360cd3e)" d="M 243.136481 198.181496 
L 243.244276 186.839386 
L 250.659081 179.808329 
L 250.510457 191.080779 
z
" style="fill:#45028f;"/>
    <path clip-path="url(#p88e360cd3e)" d="M 183.178635 188.911464 
L 196.068846 192.969946 
L 195.607096 160.577644 
L 182.51013 156.635953 
z
" style="fill:#961f84;"/>
    <path clip-path="url(#p88e360cd3e)" d="M 141.344465 194.868925 
L 154.105465 198.994368 
L 154.093962 198.67054 
L 141.330948 194.546237 
z
" style="fill:#0b0777;"/>
    <path clip-path="url(#p88e360cd3e)" d="M 263.816264 195.163579 
L 277.271882 199.292348 
L 277.304151 198.087233 
L 263.840195 193.962712 
z
" style="fill:#13067a;"/>
    <path clip-path="url(#p88e360cd3e)" d="M 154.105465 198.994368 
L 162.346885 191.878042 
L 175.173234 195.969799 
L 167.010898 203.166503 
z
" style="fill:#0c044a;"/>
    <path clip-path="url(#p88e360cd3e)" d="M 263.816264 195.163579 
L 263.854645 193.237648 
L 277.323635 197.359601 
L 277.271882 199.292348 
z
" style="fill:#0b033b;"/>
    <path clip-path="url(#p88e360cd3e)" d="M 154.060366 197.72478 
L 166.973877 201.89242 
L 175.141793 194.703489 
L 162.307462 190.616192 
z
" style="fill:#11056a;"/>
    <path clip-path="url(#p88e360cd3e)" d="M 188.144156 200.107676 
L 196.068846 192.969946 
L 209.103753 197.073984 
L 201.262108 204.292457 
z
" style="fill:#876616;"/>
    <path clip-path="url(#p88e360cd3e)" d="M 224.338378 183.050047 
L 224.338378 105.900393 
L 237.858615 109.605258 
L 237.351973 187.043183 
z
" style="fill:#695410;"/>
    <path clip-path="url(#p88e360cd3e)" d="M 256.530882 202.34441 
L 256.562487 200.406653 
L 263.854645 193.237648 
L 263.816264 195.163579 
z
" style="fill:#18057c;"/>
    <path clip-path="url(#p88e360cd3e)" d="M 182.51013 156.635953 
L 195.607096 160.577644 
L 203.510255 153.77851 
L 190.495857 149.912934 
z
" style="fill:#821b72;"/>
    <path clip-path="url(#p88e360cd3e)" d="M 222.285805 201.224351 
L 229.891821 194.06512 
L 243.136481 198.181496 
L 235.617509 205.421836 
z
" style="fill:#867113;"/>
    <path clip-path="url(#p88e360cd3e)" d="M 175.173234 195.969799 
L 174.944776 186.768607 
L 187.975018 190.873722 
L 188.144156 200.107676 
z
" style="fill:#1c0142;"/>
    <path clip-path="url(#p88e360cd3e)" d="M 167.010898 203.166503 
L 175.173234 195.969799 
L 175.141793 194.703489 
L 166.973877 201.89242 
z
" style="fill:#09033a;"/>
    <path clip-path="url(#p88e360cd3e)" d="M 216.794403 189.994506 
L 224.338378 183.050047 
L 224.338378 109.30109 
L 216.512466 115.76851 
z
" style="fill:#6a4d12;"/>
    <path clip-path="url(#p88e360cd3e)" d="M 188.144156 200.107676 
L 196.068846 192.969946 
L 195.79403 173.691281 
L 187.788833 180.709048 
z
" style="fill:#300046;"/>
    <path clip-path="url(#p88e360cd3e)" d="M 237.616559 146.602395 
L 251.045598 150.492815 
L 258.419971 143.782158 
L 245.079793 139.96697 
z
" style="fill:#963061;"/>
    <path clip-path="url(#p88e360cd3e)" d="M 237.351973 187.043183 
L 237.7635 124.143166 
L 251.342847 127.947883 
L 250.510457 191.080779 
z
" style="fill:#663a1d;"/>
    <path clip-path="url(#p88e360cd3e)" d="M 216.794403 189.994506 
L 216.499461 112.34454 
L 224.338378 105.900393 
L 224.338378 183.050047 
z
" style="fill:#dfb222;"/>
    <path clip-path="url(#p88e360cd3e)" d="M 211.050508 114.434345 
L 224.338378 118.14475 
L 231.978518 111.744624 
L 218.776717 108.106022 
z
" style="fill:#be7331;"/>
    <path clip-path="url(#p88e360cd3e)" d="M 256.530882 202.34441 
L 263.816264 195.163579 
L 277.271882 199.292348 
L 270.077576 206.554656 
z
" style="fill:#0e034b;"/>
    <path clip-path="url(#p88e360cd3e)" d="M 256.530882 202.34441 
L 263.816264 195.163579 
L 264.04171 183.850981 
L 256.716534 190.961823 
z
" style="fill:#210143;"/>
    <path clip-path="url(#p88e360cd3e)" d="M 243.244276 186.839386 
L 256.716534 190.961823 
L 264.04171 183.850981 
L 250.659081 179.808329 
z
" style="fill:#3c027c;"/>
    <path clip-path="url(#p88e360cd3e)" d="M 167.010898 203.166503 
L 166.741889 193.90847 
L 174.944776 186.768607 
L 175.173234 195.969799 
z
" style="fill:#3c038c;"/>
    <path clip-path="url(#p88e360cd3e)" d="M 154.105465 198.994368 
L 167.010898 203.166503 
L 166.973877 201.89242 
L 154.060366 197.72478 
z
" style="fill:#13067a;"/>
    <path clip-path="url(#p88e360cd3e)" d="M 203.841786 185.968896 
L 216.794403 189.994506 
L 216.512466 115.76851 
L 203.08017 112.018872 
z
" style="fill:#e0a427;"/>
    <path clip-path="url(#p88e360cd3e)" d="M 256.562487 200.406653 
L 270.122736 204.61003 
L 277.323635 197.359601 
L 263.854645 193.237648 
z
" style="fill:#15056c;"/>
    <path clip-path="url(#p88e360cd3e)" d="M 174.693306 176.640554 
L 187.788833 180.709048 
L 195.79403 173.691281 
L 182.780751 169.701604 
z
" style="fill:#590181;"/>
    <path clip-path="url(#p88e360cd3e)" d="M 175.173234 195.969799 
L 188.144156 200.107676 
L 187.788833 180.709048 
L 174.693306 176.640554 
z
" style="fill:#660195;"/>
    <path clip-path="url(#p88e360cd3e)" d="M 167.010898 203.166503 
L 175.173234 195.969799 
L 188.144156 200.107676 
L 180.063228 207.386128 
z
" style="fill:#240254;"/>
    <path clip-path="url(#p88e360cd3e)" d="M 229.891821 194.06512 
L 230.069191 130.760956 
L 237.7635 124.143166 
L 237.351973 187.043183 
z
" style="fill:#d97c3e;"/>
    <path clip-path="url(#p88e360cd3e)" d="M 203.841786 185.968896 
L 203.04443 108.548624 
L 216.499233 112.284558 
L 216.794403 189.994506 
z
" style="fill:#695410;"/>
    <path clip-path="url(#p88e360cd3e)" d="M 243.136481 198.181496 
L 256.530882 202.34441 
L 256.716534 190.961823 
L 243.244276 186.839386 
z
" style="fill:#45028f;"/>
    <path clip-path="url(#p88e360cd3e)" d="M 201.262108 204.292457 
L 209.103753 197.073984 
L 222.285805 201.224351 
L 214.529606 208.524945 
z
" style="fill:#818214;"/>
    <path clip-path="url(#p88e360cd3e)" d="M 270.077576 206.554656 
L 277.271882 199.292348 
L 277.323635 197.359601 
L 270.122736 204.61003 
z
" style="fill:#0b033b;"/>
    <path clip-path="url(#p88e360cd3e)" d="M 196.068846 192.969946 
L 194.958058 115.046929 
L 203.04443 108.548624 
L 203.841786 185.968896 
z
" style="fill:#dfb222;"/>
    <path clip-path="url(#p88e360cd3e)" d="M 235.617509 205.421836 
L 243.136481 198.181496 
L 256.530882 202.34441 
L 249.101427 209.667246 
z
" style="fill:#4c0658;"/>
    <path clip-path="url(#p88e360cd3e)" d="M 224.338378 120.00802 
L 237.765954 123.768079 
L 245.310872 117.282433 
L 231.971668 113.595481 
z
" style="fill:#bc6c35;"/>
    <path clip-path="url(#p88e360cd3e)" d="M 229.891821 194.06512 
L 237.351973 187.043183 
L 237.858615 109.605258 
L 230.110202 116.124121 
z
" style="fill:#695410;"/>
    <path clip-path="url(#p88e360cd3e)" d="M 256.530882 202.34441 
L 270.077576 206.554656 
L 270.122736 204.61003 
L 256.562487 200.406653 
z
" style="fill:#18057c;"/>
    <path clip-path="url(#p88e360cd3e)" d="M 256.530882 202.34441 
L 256.580664 199.2922 
L 270.148709 203.491615 
L 270.077576 206.554656 
z
" style="fill:#0e023c;"/>
    <path clip-path="url(#p88e360cd3e)" d="M 243.136481 198.181496 
L 243.379531 172.607873 
L 256.949498 176.678477 
L 256.530882 202.34441 
z
" style="fill:#3b0544;"/>
    <path clip-path="url(#p88e360cd3e)" d="M 166.741889 193.90847 
L 179.854279 198.09507 
L 187.975018 190.873722 
L 174.944776 186.768607 
z
" style="fill:#340279;"/>
    <path clip-path="url(#p88e360cd3e)" d="M 180.063228 207.386128 
L 188.144156 200.107676 
L 187.975018 190.873722 
L 179.854279 198.09507 
z
" style="fill:#1c0142;"/>
    <path clip-path="url(#p88e360cd3e)" d="M 180.063228 207.386128 
L 188.144156 200.107676 
L 201.262108 204.292457 
L 193.264978 211.654059 
z
" style="fill:#7c3c30;"/>
    <path clip-path="url(#p88e360cd3e)" d="M 243.136481 198.181496 
L 250.510457 191.080779 
L 251.342847 127.947883 
L 243.740354 134.642299 
z
" style="fill:#663a1d;"/>
    <path clip-path="url(#p88e360cd3e)" d="M 216.794403 189.994506 
L 229.891821 194.06512 
L 230.110202 116.124121 
L 216.499461 112.34454 
z
" style="fill:#dfb222;"/>
    <path clip-path="url(#p88e360cd3e)" d="M 249.101427 209.667246 
L 249.140099 206.596245 
L 256.580664 199.2922 
L 256.530882 202.34441 
z
" style="fill:#1e057f;"/>
    <path clip-path="url(#p88e360cd3e)" d="M 235.617509 205.421836 
L 235.764795 179.688045 
L 243.379531 172.607873 
L 243.136481 198.181496 
z
" style="fill:#7e0b91;"/>
    <path clip-path="url(#p88e360cd3e)" d="M 214.529606 208.524945 
L 222.285805 201.224351 
L 235.617509 205.421836 
L 227.94922 212.80596 
z
" style="fill:#808512;"/>
    <path clip-path="url(#p88e360cd3e)" d="M 167.010898 203.166503 
L 180.063228 207.386128 
L 179.854279 198.09507 
L 166.741889 193.90847 
z
" style="fill:#3c038c;"/>
    <path clip-path="url(#p88e360cd3e)" d="M 216.794403 189.994506 
L 216.478104 106.721899 
L 230.126018 110.479084 
L 229.891821 194.06512 
z
" style="fill:#675f10;"/>
    <path clip-path="url(#p88e360cd3e)" d="M 229.891821 194.06512 
L 243.136481 198.181496 
L 243.740354 134.642299 
L 230.069191 130.760956 
z
" style="fill:#d97c3e;"/>
    <path clip-path="url(#p88e360cd3e)" d="M 209.103753 197.073984 
L 216.794403 189.994506 
L 216.499233 112.284558 
L 208.50165 118.858531 
z
" style="fill:#695410;"/>
    <path clip-path="url(#p88e360cd3e)" d="M 249.101427 209.667246 
L 256.530882 202.34441 
L 270.077576 206.554656 
L 262.740181 213.961405 
z
" style="fill:#12034d;"/>
    <path clip-path="url(#p88e360cd3e)" d="M 209.103753 197.073984 
L 208.458533 113.257404 
L 216.478104 106.721899 
L 216.794403 189.994506 
z
" style="fill:#daca21;"/>
    <path clip-path="url(#p88e360cd3e)" d="M 196.068846 192.969946 
L 194.995494 117.673109 
L 208.521947 121.495128 
L 209.103753 197.073984 
z
" style="fill:#6a4f11;"/>
    <path clip-path="url(#p88e360cd3e)" d="M 249.140099 206.596245 
L 262.800498 210.879489 
L 270.148709 203.491615 
L 256.580664 199.2922 
z
" style="fill:#1a046e;"/>
    <path clip-path="url(#p88e360cd3e)" d="M 196.068846 192.969946 
L 209.103753 197.073984 
L 208.50165 118.858531 
L 194.958058 115.046929 
z
" style="fill:#dfb222;"/>
    <path clip-path="url(#p88e360cd3e)" d="M 193.264978 211.654059 
L 201.262108 204.292457 
L 214.529606 208.524945 
L 206.61873 215.971129 
z
" style="fill:#876915;"/>
    <path clip-path="url(#p88e360cd3e)" d="M 188.144156 200.107676 
L 186.755987 124.3214 
L 194.995494 117.673109 
L 196.068846 192.969946 
z
" style="fill:#e0a825;"/>
    <path clip-path="url(#p88e360cd3e)" d="M 262.740181 213.961405 
L 270.077576 206.554656 
L 270.148709 203.491615 
L 262.800498 210.879489 
z
" style="fill:#0e023c;"/>
    <path clip-path="url(#p88e360cd3e)" d="M 249.101427 209.667246 
L 256.530882 202.34441 
L 256.949498 176.678477 
L 249.42666 183.840376 
z
" style="fill:#3b0544;"/>
    <path clip-path="url(#p88e360cd3e)" d="M 229.891821 194.06512 
L 230.116693 113.807343 
L 243.902115 117.621868 
L 243.136481 198.181496 
z
" style="fill:#69580f;"/>
    <path clip-path="url(#p88e360cd3e)" d="M 227.94922 212.80596 
L 235.617509 205.421836 
L 249.101427 209.667246 
L 241.523583 217.136342 
z
" style="fill:#6b2441;"/>
    <path clip-path="url(#p88e360cd3e)" d="M 203.08017 112.018872 
L 216.512466 115.76851 
L 224.338378 109.30109 
L 210.99373 105.625035 
z
" style="fill:#c28e22;"/>
    <path clip-path="url(#p88e360cd3e)" d="M 249.101427 209.667246 
L 262.740181 213.961405 
L 262.800498 210.879489 
L 249.140099 206.596245 
z
" style="fill:#1e057f;"/>
    <path clip-path="url(#p88e360cd3e)" d="M 235.617509 205.421836 
L 249.101427 209.667246 
L 249.42666 183.840376 
L 235.764795 179.688045 
z
" style="fill:#7e0b91;"/>
    <path clip-path="url(#p88e360cd3e)" d="M 222.285805 201.224351 
L 222.201846 120.44271 
L 230.116693 113.807343 
L 229.891821 194.06512 
z
" style="fill:#debb20;"/>
    <path clip-path="url(#p88e360cd3e)" d="M 188.144156 200.107676 
L 187.123418 144.381075 
L 200.607525 148.359761 
L 201.262108 204.292457 
z
" style="fill:#612f25;"/>
    <path clip-path="url(#p88e360cd3e)" d="M 249.101427 209.667246 
L 249.19122 202.536736 
L 262.880232 206.805467 
L 262.740181 213.961405 
z
" style="fill:#180240;"/>
    <path clip-path="url(#p88e360cd3e)" d="M 222.285805 201.224351 
L 229.891821 194.06512 
L 230.126018 110.479084 
L 222.198363 117.091344 
z
" style="fill:#675f10;"/>
    <path clip-path="url(#p88e360cd3e)" d="M 235.764795 179.688045 
L 249.42666 183.840376 
L 256.949498 176.678477 
L 243.379531 172.607873 
z
" style="fill:#6d097e;"/>
    <path clip-path="url(#p88e360cd3e)" d="M 180.063228 207.386128 
L 178.801935 151.301891 
L 187.123418 144.381075 
L 188.144156 200.107676 
z
" style="fill:#cd634f;"/>
    <path clip-path="url(#p88e360cd3e)" d="M 206.61873 215.971129 
L 214.529606 208.524945 
L 227.94922 212.80596 
L 220.127123 220.338193 
z
" style="fill:#866e14;"/>
    <path clip-path="url(#p88e360cd3e)" d="M 241.523583 217.136342 
L 241.586522 209.961717 
L 249.19122 202.536736 
L 249.101427 209.667246 
z
" style="fill:#320488;"/>
    <path clip-path="url(#p88e360cd3e)" d="M 209.103753 197.073984 
L 222.285805 201.224351 
L 222.198363 117.091344 
L 208.458533 113.257404 
z
" style="fill:#daca21;"/>
    <path clip-path="url(#p88e360cd3e)" d="M 201.262108 204.292457 
L 209.103753 197.073984 
L 208.521947 121.495128 
L 200.371847 128.221521 
z
" style="fill:#6a4f11;"/>
    <path clip-path="url(#p88e360cd3e)" d="M 209.103753 197.073984 
L 208.432307 109.850585 
L 222.194808 113.670813 
L 222.285805 201.224351 
z
" style="fill:#656510;"/>
    <path clip-path="url(#p88e360cd3e)" d="M 241.523583 217.136342 
L 249.101427 209.667246 
L 262.740181 213.961405 
L 255.255385 221.516949 
z
" style="fill:#1e0252;"/>
    <path clip-path="url(#p88e360cd3e)" d="M 235.617509 205.421836 
L 235.86344 162.452769 
L 249.644513 166.540607 
L 249.101427 209.667246 
z
" style="fill:#541c33;"/>
    <path clip-path="url(#p88e360cd3e)" d="M 230.069191 130.760956 
L 243.740354 134.642299 
L 251.342847 127.947883 
L 237.7635 124.143166 
z
" style="fill:#bc6b36;"/>
    <path clip-path="url(#p88e360cd3e)" d="M 188.144156 200.107676 
L 201.262108 204.292457 
L 200.371847 128.221521 
L 186.755987 124.3214 
z
" style="fill:#e0a825;"/>
    <path clip-path="url(#p88e360cd3e)" d="M 216.499461 112.34454 
L 230.110202 116.124121 
L 237.858615 109.605258 
L 224.338378 105.900393 
z
" style="fill:#c29b1d;"/>
    <path clip-path="url(#p88e360cd3e)" d="M 235.617509 205.421836 
L 243.136481 198.181496 
L 243.902115 117.621868 
L 236.081602 124.335495 
z
" style="fill:#69580f;"/>
    <path clip-path="url(#p88e360cd3e)" d="M 201.262108 204.292457 
L 200.234623 116.49609 
L 208.432307 109.850585 
L 209.103753 197.073984 
z
" style="fill:#d5d722;"/>
    <path clip-path="url(#p88e360cd3e)" d="M 227.94922 212.80596 
L 228.02875 169.563481 
L 235.86344 162.452769 
L 235.617509 205.421836 
z
" style="fill:#b13c6c;"/>
    <path clip-path="url(#p88e360cd3e)" d="M 241.586522 209.961717 
L 255.369276 214.316701 
L 262.880232 206.805467 
L 249.19122 202.536736 
z
" style="fill:#2b0376;"/>
    <path clip-path="url(#p88e360cd3e)" d="M 222.285805 201.224351 
L 235.617509 205.421836 
L 236.081602 124.335495 
L 222.201846 120.44271 
z
" style="fill:#debb20;"/>
    <path clip-path="url(#p88e360cd3e)" d="M 193.264978 211.654059 
L 201.262108 204.292457 
L 200.607525 148.359761 
L 192.374559 155.361901 
z
" style="fill:#612f25;"/>
    <path clip-path="url(#p88e360cd3e)" d="M 220.127123 220.338193 
L 227.94922 212.80596 
L 241.523583 217.136342 
L 233.792858 224.756123 
z
" style="fill:#743038;"/>
    <path clip-path="url(#p88e360cd3e)" d="M 255.255385 221.516949 
L 262.740181 213.961405 
L 262.880232 206.805467 
L 255.369276 214.316701 
z
" style="fill:#180240;"/>
    <path clip-path="url(#p88e360cd3e)" d="M 222.285805 201.224351 
L 222.193545 112.455764 
L 236.127499 116.316377 
L 235.617509 205.421836 
z
" style="fill:#64680e;"/>
    <path clip-path="url(#p88e360cd3e)" d="M 194.958058 115.046929 
L 208.50165 118.858531 
L 216.499233 112.284558 
L 203.04443 108.548624 
z
" style="fill:#c29b1d;"/>
    <path clip-path="url(#p88e360cd3e)" d="M 180.063228 207.386128 
L 193.264978 211.654059 
L 192.374559 155.361901 
L 178.801935 151.301891 
z
" style="fill:#cd634f;"/>
    <path clip-path="url(#p88e360cd3e)" d="M 241.523583 217.136342 
L 255.255385 221.516949 
L 255.369276 214.316701 
L 241.586522 209.961717 
z
" style="fill:#320488;"/>
    <path clip-path="url(#p88e360cd3e)" d="M 241.523583 217.136342 
L 241.591938 209.344411 
L 255.379075 213.697176 
L 255.255385 221.516949 
z
" style="fill:#190241;"/>
    <path clip-path="url(#p88e360cd3e)" d="M 201.262108 204.292457 
L 200.351695 126.499593 
L 214.140333 130.439034 
L 214.529606 208.524945 
z
" style="fill:#6a5210;"/>
    <path clip-path="url(#p88e360cd3e)" d="M 214.529606 208.524945 
L 222.285805 201.224351 
L 222.194808 113.670813 
L 214.090263 120.395299 
z
" style="fill:#656510;"/>
    <path clip-path="url(#p88e360cd3e)" d="M 214.529606 208.524945 
L 214.084164 119.171711 
L 222.193545 112.455764 
L 222.285805 201.224351 
z
" style="fill:#d4dc1e;"/>
    <path clip-path="url(#p88e360cd3e)" d="M 241.523583 217.136342 
L 249.101427 209.667246 
L 249.644513 166.540607 
L 241.904324 173.734954 
z
" style="fill:#541c33;"/>
    <path clip-path="url(#p88e360cd3e)" d="M 233.792858 224.756123 
L 233.830845 216.915892 
L 241.591938 209.344411 
L 241.523583 217.136342 
z
" style="fill:#350389;"/>
    <path clip-path="url(#p88e360cd3e)" d="M 193.264978 211.654059 
L 192.026421 133.352636 
L 200.351695 126.499593 
L 201.262108 204.292457 
z
" style="fill:#e0ae23;"/>
    <path clip-path="url(#p88e360cd3e)" d="M 201.262108 204.292457 
L 214.529606 208.524945 
L 214.090263 120.395299 
L 200.234623 116.49609 
z
" style="fill:#d5d722;"/>
    <path clip-path="url(#p88e360cd3e)" d="M 233.792858 224.756123 
L 241.523583 217.136342 
L 255.255385 221.516949 
L 247.618703 229.225814 
z
" style="fill:#200253;"/>
    <path clip-path="url(#p88e360cd3e)" d="M 227.94922 212.80596 
L 241.523583 217.136342 
L 241.904324 173.734954 
L 228.02875 169.563481 
z
" style="fill:#b13c6c;"/>
    <path clip-path="url(#p88e360cd3e)" d="M 227.94922 212.80596 
L 228.041485 162.639445 
L 241.965297 166.784449 
L 241.523583 217.136342 
z
" style="fill:#5b262c;"/>
    <path clip-path="url(#p88e360cd3e)" d="M 214.529606 208.524945 
L 214.130531 128.472781 
L 228.097006 132.451314 
L 227.94922 212.80596 
z
" style="fill:#69560f;"/>
    <path clip-path="url(#p88e360cd3e)" d="M 227.94922 212.80596 
L 235.617509 205.421836 
L 236.127499 116.316377 
L 228.114181 123.112669 
z
" style="fill:#64680e;"/>
    <path clip-path="url(#p88e360cd3e)" d="M 233.830845 216.915892 
L 247.712789 221.357534 
L 255.379075 213.697176 
L 241.591938 209.344411 
z
" style="fill:#2e0377;"/>
    <path clip-path="url(#p88e360cd3e)" d="M 220.127123 220.338193 
L 220.018409 169.85002 
L 228.041485 162.639445 
L 227.94922 212.80596 
z
" style="fill:#c1505c;"/>
    <path clip-path="url(#p88e360cd3e)" d="M 208.458533 113.257404 
L 222.198363 117.091344 
L 230.126018 110.479084 
L 216.478104 106.721899 
z
" style="fill:#bdaf1d;"/>
    <path clip-path="url(#p88e360cd3e)" d="M 186.755987 124.3214 
L 200.371847 128.221521 
L 208.521947 121.495128 
L 194.995494 117.673109 
z
" style="fill:#c29220;"/>
    <path clip-path="url(#p88e360cd3e)" d="M 247.618703 229.225814 
L 255.255385 221.516949 
L 255.379075 213.697176 
L 247.712789 221.357534 
z
" style="fill:#190241;"/>
    <path clip-path="url(#p88e360cd3e)" d="M 178.801935 151.301891 
L 192.374559 155.361901 
L 200.607525 148.359761 
L 187.123418 144.381075 
z
" style="fill:#b25644;"/>
    <path clip-path="url(#p88e360cd3e)" d="M 206.61873 215.971129 
L 214.529606 208.524945 
L 214.140333 130.439034 
L 205.908212 137.373967 
z
" style="fill:#6a5210;"/>
    <path clip-path="url(#p88e360cd3e)" d="M 206.61873 215.971129 
L 205.890313 135.394037 
L 214.130531 128.472781 
L 214.529606 208.524945 
z
" style="fill:#dfb621;"/>
    <path clip-path="url(#p88e360cd3e)" d="M 214.529606 208.524945 
L 227.94922 212.80596 
L 228.114181 123.112669 
L 214.084164 119.171711 
z
" style="fill:#d4dc1e;"/>
    <path clip-path="url(#p88e360cd3e)" d="M 228.02875 169.563481 
L 241.904324 173.734954 
L 249.644513 166.540607 
L 235.86344 162.452769 
z
" style="fill:#9a345e;"/>
    <path clip-path="url(#p88e360cd3e)" d="M 233.792858 224.756123 
L 247.618703 229.225814 
L 247.712789 221.357534 
L 233.830845 216.915892 
z
" style="fill:#350389;"/>
    <path clip-path="url(#p88e360cd3e)" d="M 193.264978 211.654059 
L 206.61873 215.971129 
L 205.908212 137.373967 
L 192.026421 133.352636 
z
" style="fill:#e0ae23;"/>
    <path clip-path="url(#p88e360cd3e)" d="M 222.201846 120.44271 
L 236.081602 124.335495 
L 243.902115 117.621868 
L 230.116693 113.807343 
z
" style="fill:#c1a21c;"/>
    <path clip-path="url(#p88e360cd3e)" d="M 233.792858 224.756123 
L 241.523583 217.136342 
L 241.965297 166.784449 
L 234.038384 174.081006 
z
" style="fill:#5b262c;"/>
    <path clip-path="url(#p88e360cd3e)" d="M 220.127123 220.338193 
L 227.94922 212.80596 
L 228.097006 132.451314 
L 219.952963 139.455853 
z
" style="fill:#69560f;"/>
    <path clip-path="url(#p88e360cd3e)" d="M 220.127123 220.338193 
L 233.792858 224.756123 
L 234.038384 174.081006 
L 220.018409 169.85002 
z
" style="fill:#c1505c;"/>
    <path clip-path="url(#p88e360cd3e)" d="M 206.61873 215.971129 
L 220.127123 220.338193 
L 219.952963 139.455853 
L 205.890313 135.394037 
z
" style="fill:#dfb621;"/>
    <path clip-path="url(#p88e360cd3e)" d="M 200.234623 116.49609 
L 214.090263 120.395299 
L 222.194808 113.670813 
L 208.432307 109.850585 
z
" style="fill:#b9bb1d;"/>
    <path clip-path="url(#p88e360cd3e)" d="M 220.018409 169.85002 
L 234.038384 174.081006 
L 241.965297 166.784449 
L 228.041485 162.639445 
z
" style="fill:#a74650;"/>
    <path clip-path="url(#p88e360cd3e)" d="M 192.026421 133.352636 
L 205.908212 137.373967 
L 214.140333 130.439034 
L 200.351695 126.499593 
z
" style="fill:#c2971e;"/>
    <path clip-path="url(#p88e360cd3e)" d="M 214.084164 119.171711 
L 228.114181 123.112669 
L 236.127499 116.316377 
L 222.193545 112.455764 
z
" style="fill:#b8bf1a;"/>
    <path clip-path="url(#p88e360cd3e)" d="M 205.890313 135.394037 
L 219.952963 139.455853 
L 228.097006 132.451314 
L 214.130531 128.472781 
z
" style="fill:#c19e1c;"/>
   </g>
   <g id="text_18">
    <!-- W45__H30__A330_bars_extracted.txt -->
    <g transform="translate(110.101875 28.56)scale(0.12 -0.12)">
     <defs>
      <path d="M 3.328125 72.90625 
L 13.28125 72.90625 
L 28.609375 11.28125 
L 43.890625 72.90625 
L 54.984375 72.90625 
L 70.3125 11.28125 
L 85.59375 72.90625 
L 95.609375 72.90625 
L 77.296875 0 
L 64.890625 0 
L 49.515625 63.28125 
L 33.984375 0 
L 21.578125 0 
z
" id="DejaVuSans-87"/>
      <path d="M 50.984375 -16.609375 
L 50.984375 -23.578125 
L -0.984375 -23.578125 
L -0.984375 -16.609375 
z
" id="DejaVuSans-95"/>
      <path d="M 9.8125 72.90625 
L 19.671875 72.90625 
L 19.671875 43.015625 
L 55.515625 43.015625 
L 55.515625 72.90625 
L 65.375 72.90625 
L 65.375 0 
L 55.515625 0 
L 55.515625 34.71875 
L 19.671875 34.71875 
L 19.671875 0 
L 9.8125 0 
z
" id="DejaVuSans-72"/>
      <path d="M 34.1875 63.1875 
L 20.796875 26.90625 
L 47.609375 26.90625 
z
M 28.609375 72.90625 
L 39.796875 72.90625 
L 67.578125 0 
L 57.328125 0 
L 50.6875 18.703125 
L 17.828125 18.703125 
L 11.1875 0 
L 0.78125 0 
z
" id="DejaVuSans-65"/>
      <path d="M 48.6875 27.296875 
Q 48.6875 37.203125 44.609375 42.84375 
Q 40.53125 48.484375 33.40625 48.484375 
Q 26.265625 48.484375 22.1875 42.84375 
Q 18.109375 37.203125 18.109375 27.296875 
Q 18.109375 17.390625 22.1875 11.75 
Q 26.265625 6.109375 33.40625 6.109375 
Q 40.53125 6.109375 44.609375 11.75 
Q 48.6875 17.390625 48.6875 27.296875 
z
M 18.109375 46.390625 
Q 20.953125 51.265625 25.265625 53.625 
Q 29.59375 56 35.59375 56 
Q 45.5625 56 51.78125 48.09375 
Q 58.015625 40.1875 58.015625 27.296875 
Q 58.015625 14.40625 51.78125 6.484375 
Q 45.5625 -1.421875 35.59375 -1.421875 
Q 29.59375 -1.421875 25.265625 0.953125 
Q 20.953125 3.328125 18.109375 8.203125 
L 18.109375 0 
L 9.078125 0 
L 9.078125 75.984375 
L 18.109375 75.984375 
z
" id="DejaVuSans-98"/>
      <path d="M 34.28125 27.484375 
Q 23.390625 27.484375 19.1875 25 
Q 14.984375 22.515625 14.984375 16.5 
Q 14.984375 11.71875 18.140625 8.90625 
Q 21.296875 6.109375 26.703125 6.109375 
Q 34.1875 6.109375 38.703125 11.40625 
Q 43.21875 16.703125 43.21875 25.484375 
L 43.21875 27.484375 
z
M 52.203125 31.203125 
L 52.203125 0 
L 43.21875 0 
L 43.21875 8.296875 
Q 40.140625 3.328125 35.546875 0.953125 
Q 30.953125 -1.421875 24.3125 -1.421875 
Q 15.921875 -1.421875 10.953125 3.296875 
Q 6 8.015625 6 15.921875 
Q 6 25.140625 12.171875 29.828125 
Q 18.359375 34.515625 30.609375 34.515625 
L 43.21875 34.515625 
L 43.21875 35.40625 
Q 43.21875 41.609375 39.140625 45 
Q 35.0625 48.390625 27.6875 48.390625 
Q 23 48.390625 18.546875 47.265625 
Q 14.109375 46.140625 10.015625 43.890625 
L 10.015625 52.203125 
Q 14.9375 54.109375 19.578125 55.046875 
Q 24.21875 56 28.609375 56 
Q 40.484375 56 46.34375 49.84375 
Q 52.203125 43.703125 52.203125 31.203125 
z
" id="DejaVuSans-97"/>
      <path d="M 41.109375 46.296875 
Q 39.59375 47.171875 37.8125 47.578125 
Q 36.03125 48 33.890625 48 
Q 26.265625 48 22.1875 43.046875 
Q 18.109375 38.09375 18.109375 28.8125 
L 18.109375 0 
L 9.078125 0 
L 9.078125 54.6875 
L 18.109375 54.6875 
L 18.109375 46.1875 
Q 20.953125 51.171875 25.484375 53.578125 
Q 30.03125 56 36.53125 56 
Q 37.453125 56 38.578125 55.875 
Q 39.703125 55.765625 41.0625 55.515625 
z
" id="DejaVuSans-114"/>
      <path d="M 44.28125 53.078125 
L 44.28125 44.578125 
Q 40.484375 46.53125 36.375 47.5 
Q 32.28125 48.484375 27.875 48.484375 
Q 21.1875 48.484375 17.84375 46.4375 
Q 14.5 44.390625 14.5 40.28125 
Q 14.5 37.15625 16.890625 35.375 
Q 19.28125 33.59375 26.515625 31.984375 
L 29.59375 31.296875 
Q 39.15625 29.25 43.1875 25.515625 
Q 47.21875 21.78125 47.21875 15.09375 
Q 47.21875 7.46875 41.1875 3.015625 
Q 35.15625 -1.421875 24.609375 -1.421875 
Q 20.21875 -1.421875 15.453125 -0.5625 
Q 10.6875 0.296875 5.421875 2 
L 5.421875 11.28125 
Q 10.40625 8.6875 15.234375 7.390625 
Q 20.0625 6.109375 24.8125 6.109375 
Q 31.15625 6.109375 34.5625 8.28125 
Q 37.984375 10.453125 37.984375 14.40625 
Q 37.984375 18.0625 35.515625 20.015625 
Q 33.0625 21.96875 24.703125 23.78125 
L 21.578125 24.515625 
Q 13.234375 26.265625 9.515625 29.90625 
Q 5.8125 33.546875 5.8125 39.890625 
Q 5.8125 47.609375 11.28125 51.796875 
Q 16.75 56 26.8125 56 
Q 31.78125 56 36.171875 55.265625 
Q 40.578125 54.546875 44.28125 53.078125 
z
" id="DejaVuSans-115"/>
      <path d="M 56.203125 29.59375 
L 56.203125 25.203125 
L 14.890625 25.203125 
Q 15.484375 15.921875 20.484375 11.0625 
Q 25.484375 6.203125 34.421875 6.203125 
Q 39.59375 6.203125 44.453125 7.46875 
Q 49.3125 8.734375 54.109375 11.28125 
L 54.109375 2.78125 
Q 49.265625 0.734375 44.1875 -0.34375 
Q 39.109375 -1.421875 33.890625 -1.421875 
Q 20.796875 -1.421875 13.15625 6.1875 
Q 5.515625 13.8125 5.515625 26.8125 
Q 5.515625 40.234375 12.765625 48.109375 
Q 20.015625 56 32.328125 56 
Q 43.359375 56 49.78125 48.890625 
Q 56.203125 41.796875 56.203125 29.59375 
z
M 47.21875 32.234375 
Q 47.125 39.59375 43.09375 43.984375 
Q 39.0625 48.390625 32.421875 48.390625 
Q 24.90625 48.390625 20.390625 44.140625 
Q 15.875 39.890625 15.1875 32.171875 
z
" id="DejaVuSans-101"/>
      <path d="M 54.890625 54.6875 
L 35.109375 28.078125 
L 55.90625 0 
L 45.3125 0 
L 29.390625 21.484375 
L 13.484375 0 
L 2.875 0 
L 24.125 28.609375 
L 4.6875 54.6875 
L 15.28125 54.6875 
L 29.78125 35.203125 
L 44.28125 54.6875 
z
" id="DejaVuSans-120"/>
      <path d="M 18.3125 70.21875 
L 18.3125 54.6875 
L 36.8125 54.6875 
L 36.8125 47.703125 
L 18.3125 47.703125 
L 18.3125 18.015625 
Q 18.3125 11.328125 20.140625 9.421875 
Q 21.96875 7.515625 27.59375 7.515625 
L 36.8125 7.515625 
L 36.8125 0 
L 27.59375 0 
Q 17.1875 0 13.234375 3.875 
Q 9.28125 7.765625 9.28125 18.015625 
L 9.28125 47.703125 
L 2.6875 47.703125 
L 2.6875 54.6875 
L 9.28125 54.6875 
L 9.28125 70.21875 
z
" id="DejaVuSans-116"/>
      <path d="M 48.78125 52.59375 
L 48.78125 44.1875 
Q 44.96875 46.296875 41.140625 47.34375 
Q 37.3125 48.390625 33.40625 48.390625 
Q 24.65625 48.390625 19.8125 42.84375 
Q 14.984375 37.3125 14.984375 27.296875 
Q 14.984375 17.28125 19.8125 11.734375 
Q 24.65625 6.203125 33.40625 6.203125 
Q 37.3125 6.203125 41.140625 7.25 
Q 44.96875 8.296875 48.78125 10.40625 
L 48.78125 2.09375 
Q 45.015625 0.34375 40.984375 -0.53125 
Q 36.96875 -1.421875 32.421875 -1.421875 
Q 20.0625 -1.421875 12.78125 6.34375 
Q 5.515625 14.109375 5.515625 27.296875 
Q 5.515625 40.671875 12.859375 48.328125 
Q 20.21875 56 33.015625 56 
Q 37.15625 56 41.109375 55.140625 
Q 45.0625 54.296875 48.78125 52.59375 
z
" id="DejaVuSans-99"/>
      <path d="M 45.40625 46.390625 
L 45.40625 75.984375 
L 54.390625 75.984375 
L 54.390625 0 
L 45.40625 0 
L 45.40625 8.203125 
Q 42.578125 3.328125 38.25 0.953125 
Q 33.9375 -1.421875 27.875 -1.421875 
Q 17.96875 -1.421875 11.734375 6.484375 
Q 5.515625 14.40625 5.515625 27.296875 
Q 5.515625 40.1875 11.734375 48.09375 
Q 17.96875 56 27.875 56 
Q 33.9375 56 38.25 53.625 
Q 42.578125 51.265625 45.40625 46.390625 
z
M 14.796875 27.296875 
Q 14.796875 17.390625 18.875 11.75 
Q 22.953125 6.109375 30.078125 6.109375 
Q 37.203125 6.109375 41.296875 11.75 
Q 45.40625 17.390625 45.40625 27.296875 
Q 45.40625 37.203125 41.296875 42.84375 
Q 37.203125 48.484375 30.078125 48.484375 
Q 22.953125 48.484375 18.875 42.84375 
Q 14.796875 37.203125 14.796875 27.296875 
z
" id="DejaVuSans-100"/>
      <path d="M 10.6875 12.40625 
L 21 12.40625 
L 21 0 
L 10.6875 0 
z
" id="DejaVuSans-46"/>
     </defs>
     <use xlink:href="#DejaVuSans-87"/>
     <use x="98.876953" xlink:href="#DejaVuSans-52"/>
     <use x="162.5" xlink:href="#DejaVuSans-53"/>
     <use x="226.123047" xlink:href="#DejaVuSans-95"/>
     <use x="276.123047" xlink:href="#DejaVuSans-95"/>
     <use x="326.123047" xlink:href="#DejaVuSans-72"/>
     <use x="401.318359" xlink:href="#DejaVuSans-51"/>
     <use x="464.941406" xlink:href="#DejaVuSans-48"/>
     <use x="528.564453" xlink:href="#DejaVuSans-95"/>
     <use x="578.564453" xlink:href="#DejaVuSans-95"/>
     <use x="628.564453" xlink:href="#DejaVuSans-65"/>
     <use x="696.972656" xlink:href="#DejaVuSans-51"/>
     <use x="760.595703" xlink:href="#DejaVuSans-51"/>
     <use x="824.21875" xlink:href="#DejaVuSans-48"/>
     <use x="887.841797" xlink:href="#DejaVuSans-95"/>
     <use x="937.841797" xlink:href="#DejaVuSans-98"/>
     <use x="1001.318359" xlink:href="#DejaVuSans-97"/>
     <use x="1062.597656" xlink:href="#DejaVuSans-114"/>
     <use x="1103.710938" xlink:href="#DejaVuSans-115"/>
     <use x="1155.810547" xlink:href="#DejaVuSans-95"/>
     <use x="1205.810547" xlink:href="#DejaVuSans-101"/>
     <use x="1265.583984" xlink:href="#DejaVuSans-120"/>
     <use x="1324.763672" xlink:href="#DejaVuSans-116"/>
     <use x="1363.972656" xlink:href="#DejaVuSans-114"/>
     <use x="1405.085938" xlink:href="#DejaVuSans-97"/>
     <use x="1466.365234" xlink:href="#DejaVuSans-99"/>
     <use x="1521.345703" xlink:href="#DejaVuSans-116"/>
     <use x="1560.554688" xlink:href="#DejaVuSans-101"/>
     <use x="1622.078125" xlink:href="#DejaVuSans-100"/>
     <use x="1685.554688" xlink:href="#DejaVuSans-46"/>
     <use x="1717.341797" xlink:href="#DejaVuSans-116"/>
     <use x="1756.550781" xlink:href="#DejaVuSans-120"/>
     <use x="1815.730469" xlink:href="#DejaVuSans-116"/>
    </g>
   </g>
  </g>
 </g>
 <defs>
  <clipPath id="p88e360cd3e">
   <rect height="217.44" width="217.44" x="112.68" y="34.56"/>
  </clipPath>
 </defs>
</svg>
