<?xml version="1.0" encoding="utf-8" standalone="no"?>
<!DOCTYPE svg PUBLIC "-//W3C//DTD SVG 1.1//EN"
  "http://www.w3.org/Graphics/SVG/1.1/DTD/svg11.dtd">
<!-- Created with matplotlib (https://matplotlib.org/) -->
<svg height="288pt" version="1.1" viewBox="0 0 432 288" width="432pt" xmlns="http://www.w3.org/2000/svg" xmlns:xlink="http://www.w3.org/1999/xlink">
 <metadata>
  <rdf:RDF xmlns:cc="http://creativecommons.org/ns#" xmlns:dc="http://purl.org/dc/elements/1.1/" xmlns:rdf="http://www.w3.org/1999/02/22-rdf-syntax-ns#">
   <cc:Work>
    <dc:type rdf:resource="http://purl.org/dc/dcmitype/StillImage"/>
    <dc:date>2021-06-13T21:59:50.182737</dc:date>
    <dc:format>image/svg+xml</dc:format>
    <dc:creator>
     <cc:Agent>
      <dc:title>Matplotlib v3.3.4, https://matplotlib.org/</dc:title>
     </cc:Agent>
    </dc:creator>
   </cc:Work>
  </rdf:RDF>
 </metadata>
 <defs>
  <style type="text/css">*{stroke-linecap:butt;stroke-linejoin:round;}</style>
 </defs>
 <g id="figure_1">
  <g id="patch_1">
   <path d="M 0 288 
L 432 288 
L 432 0 
L 0 0 
z
" style="fill:#ffffff;"/>
  </g>
  <g id="patch_2">
   <path d="M 112.68 252 
L 330.12 252 
L 330.12 34.56 
L 112.68 34.56 
z
" style="fill:#ffffff;"/>
  </g>
  <g id="pane3d_1">
   <g id="patch_3">
    <path d="M 129.09822 198.386264 
L 200.904009 138.197228 
L 199.90584 51.393878 
L 124.663773 106.302111 
" style="fill:#f2f2f2;opacity:0.5;stroke:#f2f2f2;stroke-linejoin:miter;"/>
   </g>
  </g>
  <g id="pane3d_2">
   <g id="patch_4">
    <path d="M 200.904009 138.197228 
L 316.12668 171.68791 
L 320.238571 81.894718 
L 199.90584 51.393878 
" style="fill:#e6e6e6;opacity:0.5;stroke:#e6e6e6;stroke-linejoin:miter;"/>
   </g>
  </g>
  <g id="pane3d_3">
   <g id="patch_5">
    <path d="M 129.09822 198.386264 
L 251.239879 238.27773 
L 316.12668 171.68791 
L 200.904009 138.197228 
" style="fill:#ececec;opacity:0.5;stroke:#ececec;stroke-linejoin:miter;"/>
   </g>
  </g>
  <g id="axis3d_1">
   <g id="line2d_1">
    <path d="M 129.09822 198.386264 
L 251.239879 238.27773 
" style="fill:none;stroke:#000000;stroke-linecap:square;stroke-width:0.8;"/>
   </g>
   <g id="Line3DCollection_1">
    <path d="M 136.495759 200.802301 
L 207.911499 140.234029 
L 207.209612 53.245171 
" style="fill:none;stroke:#b0b0b0;stroke-width:0.8;"/>
    <path d="M 162.23134 209.207541 
L 232.260894 147.311436 
L 232.60309 59.681678 
" style="fill:none;stroke:#b0b0b0;stroke-width:0.8;"/>
    <path d="M 188.559037 217.806167 
L 257.123632 154.538053 
L 258.555303 66.259807 
" style="fill:none;stroke:#b0b0b0;stroke-width:0.8;"/>
    <path d="M 215.499525 226.604931 
L 282.516121 161.918647 
L 285.084894 72.984285 
" style="fill:none;stroke:#b0b0b0;stroke-width:0.8;"/>
    <path d="M 243.074449 235.610901 
L 308.455474 169.458193 
L 312.21135 79.860051 
" style="fill:none;stroke:#b0b0b0;stroke-width:0.8;"/>
   </g>
   <g id="xtick_1">
    <g id="line2d_2">
     <path d="M 137.117644 200.274876 
L 135.249322 201.859414 
" style="fill:none;stroke:#000000;stroke-linecap:square;stroke-width:0.8;"/>
    </g>
    <g id="text_1">
     <!-- 0 -->
     <g transform="translate(125.77919 224.124533)scale(0.1 -0.1)">
      <defs>
       <path d="M 31.78125 66.40625 
Q 24.171875 66.40625 20.328125 58.90625 
Q 16.5 51.421875 16.5 36.375 
Q 16.5 21.390625 20.328125 13.890625 
Q 24.171875 6.390625 31.78125 6.390625 
Q 39.453125 6.390625 43.28125 13.890625 
Q 47.125 21.390625 47.125 36.375 
Q 47.125 51.421875 43.28125 58.90625 
Q 39.453125 66.40625 31.78125 66.40625 
z
M 31.78125 74.21875 
Q 44.046875 74.21875 50.515625 64.515625 
Q 56.984375 54.828125 56.984375 36.375 
Q 56.984375 17.96875 50.515625 8.265625 
Q 44.046875 -1.421875 31.78125 -1.421875 
Q 19.53125 -1.421875 13.0625 8.265625 
Q 6.59375 17.96875 6.59375 36.375 
Q 6.59375 54.828125 13.0625 64.515625 
Q 19.53125 74.21875 31.78125 74.21875 
z
" id="DejaVuSans-48"/>
      </defs>
      <use xlink:href="#DejaVuSans-48"/>
     </g>
    </g>
   </g>
   <g id="xtick_2">
    <g id="line2d_3">
     <path d="M 162.841716 208.668056 
L 161.007937 210.288854 
" style="fill:none;stroke:#000000;stroke-linecap:square;stroke-width:0.8;"/>
    </g>
    <g id="text_2">
     <!-- 2 -->
     <g transform="translate(151.547192 232.748132)scale(0.1 -0.1)">
      <defs>
       <path d="M 19.1875 8.296875 
L 53.609375 8.296875 
L 53.609375 0 
L 7.328125 0 
L 7.328125 8.296875 
Q 12.9375 14.109375 22.625 23.890625 
Q 32.328125 33.6875 34.8125 36.53125 
Q 39.546875 41.84375 41.421875 45.53125 
Q 43.3125 49.21875 43.3125 52.78125 
Q 43.3125 58.59375 39.234375 62.25 
Q 35.15625 65.921875 28.609375 65.921875 
Q 23.96875 65.921875 18.8125 64.3125 
Q 13.671875 62.703125 7.8125 59.421875 
L 7.8125 69.390625 
Q 13.765625 71.78125 18.9375 73 
Q 24.125 74.21875 28.421875 74.21875 
Q 39.75 74.21875 46.484375 68.546875 
Q 53.21875 62.890625 53.21875 53.421875 
Q 53.21875 48.921875 51.53125 44.890625 
Q 49.859375 40.875 45.40625 35.40625 
Q 44.1875 33.984375 37.640625 27.21875 
Q 31.109375 20.453125 19.1875 8.296875 
z
" id="DejaVuSans-50"/>
      </defs>
      <use xlink:href="#DejaVuSans-50"/>
     </g>
    </g>
   </g>
   <g id="xtick_3">
    <g id="line2d_4">
     <path d="M 189.15721 217.254202 
L 187.360066 218.91252 
" style="fill:none;stroke:#000000;stroke-linecap:square;stroke-width:0.8;"/>
    </g>
    <g id="text_3">
     <!-- 4 -->
     <g transform="translate(177.91082 241.571064)scale(0.1 -0.1)">
      <defs>
       <path d="M 37.796875 64.3125 
L 12.890625 25.390625 
L 37.796875 25.390625 
z
M 35.203125 72.90625 
L 47.609375 72.90625 
L 47.609375 25.390625 
L 58.015625 25.390625 
L 58.015625 17.1875 
L 47.609375 17.1875 
L 47.609375 0 
L 37.796875 0 
L 37.796875 17.1875 
L 4.890625 17.1875 
L 4.890625 26.703125 
z
" id="DejaVuSans-52"/>
      </defs>
      <use xlink:href="#DejaVuSans-52"/>
     </g>
    </g>
   </g>
   <g id="xtick_4">
    <g id="line2d_5">
     <path d="M 216.084757 226.040048 
L 214.326462 227.737204 
" style="fill:none;stroke:#000000;stroke-linecap:square;stroke-width:0.8;"/>
    </g>
    <g id="text_4">
     <!-- 6 -->
     <g transform="translate(204.890965 250.600322)scale(0.1 -0.1)">
      <defs>
       <path d="M 33.015625 40.375 
Q 26.375 40.375 22.484375 35.828125 
Q 18.609375 31.296875 18.609375 23.390625 
Q 18.609375 15.53125 22.484375 10.953125 
Q 26.375 6.390625 33.015625 6.390625 
Q 39.65625 6.390625 43.53125 10.953125 
Q 47.40625 15.53125 47.40625 23.390625 
Q 47.40625 31.296875 43.53125 35.828125 
Q 39.65625 40.375 33.015625 40.375 
z
M 52.59375 71.296875 
L 52.59375 62.3125 
Q 48.875 64.0625 45.09375 64.984375 
Q 41.3125 65.921875 37.59375 65.921875 
Q 27.828125 65.921875 22.671875 59.328125 
Q 17.53125 52.734375 16.796875 39.40625 
Q 19.671875 43.65625 24.015625 45.921875 
Q 28.375 48.1875 33.59375 48.1875 
Q 44.578125 48.1875 50.953125 41.515625 
Q 57.328125 34.859375 57.328125 23.390625 
Q 57.328125 12.15625 50.6875 5.359375 
Q 44.046875 -1.421875 33.015625 -1.421875 
Q 20.359375 -1.421875 13.671875 8.265625 
Q 6.984375 17.96875 6.984375 36.375 
Q 6.984375 53.65625 15.1875 63.9375 
Q 23.390625 74.21875 37.203125 74.21875 
Q 40.921875 74.21875 44.703125 73.484375 
Q 48.484375 72.75 52.59375 71.296875 
z
" id="DejaVuSans-54"/>
      </defs>
      <use xlink:href="#DejaVuSans-54"/>
     </g>
    </g>
   </g>
   <g id="xtick_5">
    <g id="line2d_6">
     <path d="M 243.645962 235.032643 
L 241.928856 236.770015 
" style="fill:none;stroke:#000000;stroke-linecap:square;stroke-width:0.8;"/>
    </g>
    <g id="text_5">
     <!-- 8 -->
     <g transform="translate(232.509511 259.84323)scale(0.1 -0.1)">
      <defs>
       <path d="M 31.78125 34.625 
Q 24.75 34.625 20.71875 30.859375 
Q 16.703125 27.09375 16.703125 20.515625 
Q 16.703125 13.921875 20.71875 10.15625 
Q 24.75 6.390625 31.78125 6.390625 
Q 38.8125 6.390625 42.859375 10.171875 
Q 46.921875 13.96875 46.921875 20.515625 
Q 46.921875 27.09375 42.890625 30.859375 
Q 38.875 34.625 31.78125 34.625 
z
M 21.921875 38.8125 
Q 15.578125 40.375 12.03125 44.71875 
Q 8.5 49.078125 8.5 55.328125 
Q 8.5 64.0625 14.71875 69.140625 
Q 20.953125 74.21875 31.78125 74.21875 
Q 42.671875 74.21875 48.875 69.140625 
Q 55.078125 64.0625 55.078125 55.328125 
Q 55.078125 49.078125 51.53125 44.71875 
Q 48 40.375 41.703125 38.8125 
Q 48.828125 37.15625 52.796875 32.3125 
Q 56.78125 27.484375 56.78125 20.515625 
Q 56.78125 9.90625 50.3125 4.234375 
Q 43.84375 -1.421875 31.78125 -1.421875 
Q 19.734375 -1.421875 13.25 4.234375 
Q 6.78125 9.90625 6.78125 20.515625 
Q 6.78125 27.484375 10.78125 32.3125 
Q 14.796875 37.15625 21.921875 38.8125 
z
M 18.3125 54.390625 
Q 18.3125 48.734375 21.84375 45.5625 
Q 25.390625 42.390625 31.78125 42.390625 
Q 38.140625 42.390625 41.71875 45.5625 
Q 45.3125 48.734375 45.3125 54.390625 
Q 45.3125 60.0625 41.71875 63.234375 
Q 38.140625 66.40625 31.78125 66.40625 
Q 25.390625 66.40625 21.84375 63.234375 
Q 18.3125 60.0625 18.3125 54.390625 
z
" id="DejaVuSans-56"/>
      </defs>
      <use xlink:href="#DejaVuSans-56"/>
     </g>
    </g>
   </g>
  </g>
  <g id="axis3d_2">
   <g id="line2d_7">
    <path d="M 316.12668 171.68791 
L 251.239879 238.27773 
" style="fill:none;stroke:#000000;stroke-linecap:square;stroke-width:0.8;"/>
   </g>
   <g id="Line3DCollection_2">
    <path d="M 129.866948 102.505071 
L 134.046245 194.238731 
L 255.729543 233.67023 
" style="fill:none;stroke:#b0b0b0;stroke-width:0.8;"/>
    <path d="M 147.250212 89.819556 
L 150.59591 180.366474 
L 270.72626 218.279909 
" style="fill:none;stroke:#b0b0b0;stroke-width:0.8;"/>
    <path d="M 163.958537 77.626582 
L 166.530371 167.009893 
L 285.136664 203.491289 
" style="fill:none;stroke:#b0b0b0;stroke-width:0.8;"/>
    <path d="M 180.030483 65.898008 
L 181.883306 154.140758 
L 298.994481 189.269761 
" style="fill:none;stroke:#b0b0b0;stroke-width:0.8;"/>
    <path d="M 195.501727 54.607799 
L 196.68598 141.732864 
L 312.330896 175.583317 
" style="fill:none;stroke:#b0b0b0;stroke-width:0.8;"/>
   </g>
   <g id="xtick_6">
    <g id="line2d_8">
     <path d="M 254.704115 233.337939 
L 257.783053 234.33567 
" style="fill:none;stroke:#000000;stroke-linecap:square;stroke-width:0.8;"/>
    </g>
    <g id="text_6">
     <!-- 0 -->
     <g transform="translate(265.430654 254.693759)scale(0.1 -0.1)">
      <use xlink:href="#DejaVuSans-48"/>
     </g>
    </g>
   </g>
   <g id="xtick_7">
    <g id="line2d_9">
     <path d="M 269.71494 217.960734 
L 272.751463 218.919068 
" style="fill:none;stroke:#000000;stroke-linecap:square;stroke-width:0.8;"/>
    </g>
    <g id="text_7">
     <!-- 2 -->
     <g transform="translate(280.181112 239.024526)scale(0.1 -0.1)">
      <use xlink:href="#DejaVuSans-50"/>
     </g>
    </g>
   </g>
   <g id="xtick_8">
    <g id="line2d_10">
     <path d="M 284.139145 203.184468 
L 287.134182 204.105694 
" style="fill:none;stroke:#000000;stroke-linecap:square;stroke-width:0.8;"/>
    </g>
    <g id="text_8">
     <!-- 4 -->
     <g transform="translate(294.35448 223.968328)scale(0.1 -0.1)">
      <use xlink:href="#DejaVuSans-52"/>
     </g>
    </g>
   </g>
   <g id="xtick_9">
    <g id="line2d_11">
     <path d="M 298.010457 188.97459 
L 300.964927 189.860821 
" style="fill:none;stroke:#000000;stroke-linecap:square;stroke-width:0.8;"/>
    </g>
    <g id="text_9">
     <!-- 6 -->
     <g transform="translate(307.983974 209.489882)scale(0.1 -0.1)">
      <use xlink:href="#DejaVuSans-54"/>
     </g>
    </g>
   </g>
   <g id="xtick_10">
    <g id="line2d_12">
     <path d="M 311.360068 175.299146 
L 314.274875 176.15234 
" style="fill:none;stroke:#000000;stroke-linecap:square;stroke-width:0.8;"/>
    </g>
    <g id="text_10">
     <!-- 8 -->
     <g transform="translate(321.10031 195.556556)scale(0.1 -0.1)">
      <use xlink:href="#DejaVuSans-56"/>
     </g>
    </g>
   </g>
  </g>
  <g id="axis3d_3">
   <g id="line2d_13">
    <path d="M 316.12668 171.68791 
L 320.238571 81.894718 
" style="fill:none;stroke:#000000;stroke-linecap:square;stroke-width:0.8;"/>
   </g>
   <g id="Line3DCollection_3">
    <path d="M 316.205459 169.967571 
L 200.884845 136.530725 
L 129.013401 196.624949 
" style="fill:none;stroke:#b0b0b0;stroke-width:0.8;"/>
    <path d="M 316.86851 155.48823 
L 200.723616 122.509835 
L 128.299302 181.796216 
" style="fill:none;stroke:#b0b0b0;stroke-width:0.8;"/>
    <path d="M 317.541202 140.79836 
L 200.560155 108.294841 
L 127.574423 166.743635 
" style="fill:none;stroke:#b0b0b0;stroke-width:0.8;"/>
    <path d="M 318.223747 125.893336 
L 200.394415 93.881683 
L 126.838518 151.4621 
" style="fill:none;stroke:#b0b0b0;stroke-width:0.8;"/>
    <path d="M 318.916362 110.768396 
L 200.226349 79.266188 
L 126.091334 135.946348 
" style="fill:none;stroke:#b0b0b0;stroke-width:0.8;"/>
    <path d="M 319.619272 95.418637 
L 200.055906 64.444066 
L 125.33261 120.19095 
" style="fill:none;stroke:#b0b0b0;stroke-width:0.8;"/>
   </g>
   <g id="xtick_11">
    <g id="line2d_14">
     <path d="M 315.237563 169.686933 
L 318.143556 170.529516 
" style="fill:none;stroke:#000000;stroke-linecap:square;stroke-width:0.8;"/>
    </g>
    <g id="text_11">
     <!-- 0 -->
     <g transform="translate(331.275915 174.966846)scale(0.1 -0.1)">
      <use xlink:href="#DejaVuSans-48"/>
     </g>
    </g>
   </g>
   <g id="xtick_12">
    <g id="line2d_15">
     <path d="M 315.893366 155.211346 
L 318.821137 156.042663 
" style="fill:none;stroke:#000000;stroke-linecap:square;stroke-width:0.8;"/>
    </g>
    <g id="text_12">
     <!-- 10000 -->
     <g transform="translate(319.34276 160.522336)scale(0.1 -0.1)">
      <defs>
       <path d="M 12.40625 8.296875 
L 28.515625 8.296875 
L 28.515625 63.921875 
L 10.984375 60.40625 
L 10.984375 69.390625 
L 28.421875 72.90625 
L 38.28125 72.90625 
L 38.28125 8.296875 
L 54.390625 8.296875 
L 54.390625 0 
L 12.40625 0 
z
" id="DejaVuSans-49"/>
      </defs>
      <use xlink:href="#DejaVuSans-49"/>
      <use x="63.623047" xlink:href="#DejaVuSans-48"/>
      <use x="127.246094" xlink:href="#DejaVuSans-48"/>
      <use x="190.869141" xlink:href="#DejaVuSans-48"/>
      <use x="254.492188" xlink:href="#DejaVuSans-48"/>
     </g>
    </g>
   </g>
   <g id="xtick_13">
    <g id="line2d_16">
     <path d="M 316.558701 140.52537 
L 319.508577 141.345001 
" style="fill:none;stroke:#000000;stroke-linecap:square;stroke-width:0.8;"/>
    </g>
    <g id="text_13">
     <!-- 20000 -->
     <g transform="translate(320.146076 145.868586)scale(0.1 -0.1)">
      <use xlink:href="#DejaVuSans-50"/>
      <use x="63.623047" xlink:href="#DejaVuSans-48"/>
      <use x="127.246094" xlink:href="#DejaVuSans-48"/>
      <use x="190.869141" xlink:href="#DejaVuSans-48"/>
      <use x="254.492188" xlink:href="#DejaVuSans-48"/>
     </g>
    </g>
   </g>
   <g id="xtick_14">
    <g id="line2d_17">
     <path d="M 317.233777 125.624383 
L 320.206094 126.431897 
" style="fill:none;stroke:#000000;stroke-linecap:square;stroke-width:0.8;"/>
    </g>
    <g id="text_14">
     <!-- 30000 -->
     <g transform="translate(320.961113 131.001016)scale(0.1 -0.1)">
      <defs>
       <path d="M 40.578125 39.3125 
Q 47.65625 37.796875 51.625 33 
Q 55.609375 28.21875 55.609375 21.1875 
Q 55.609375 10.40625 48.1875 4.484375 
Q 40.765625 -1.421875 27.09375 -1.421875 
Q 22.515625 -1.421875 17.65625 -0.515625 
Q 12.796875 0.390625 7.625 2.203125 
L 7.625 11.71875 
Q 11.71875 9.328125 16.59375 8.109375 
Q 21.484375 6.890625 26.8125 6.890625 
Q 36.078125 6.890625 40.9375 10.546875 
Q 45.796875 14.203125 45.796875 21.1875 
Q 45.796875 27.640625 41.28125 31.265625 
Q 36.765625 34.90625 28.71875 34.90625 
L 20.21875 34.90625 
L 20.21875 43.015625 
L 29.109375 43.015625 
Q 36.375 43.015625 40.234375 45.921875 
Q 44.09375 48.828125 44.09375 54.296875 
Q 44.09375 59.90625 40.109375 62.90625 
Q 36.140625 65.921875 28.71875 65.921875 
Q 24.65625 65.921875 20.015625 65.03125 
Q 15.375 64.15625 9.8125 62.3125 
L 9.8125 71.09375 
Q 15.4375 72.65625 20.34375 73.4375 
Q 25.25 74.21875 29.59375 74.21875 
Q 40.828125 74.21875 47.359375 69.109375 
Q 53.90625 64.015625 53.90625 55.328125 
Q 53.90625 49.265625 50.4375 45.09375 
Q 46.96875 40.921875 40.578125 39.3125 
z
" id="DejaVuSans-51"/>
      </defs>
      <use xlink:href="#DejaVuSans-51"/>
      <use x="63.623047" xlink:href="#DejaVuSans-48"/>
      <use x="127.246094" xlink:href="#DejaVuSans-48"/>
      <use x="190.869141" xlink:href="#DejaVuSans-48"/>
      <use x="254.492188" xlink:href="#DejaVuSans-48"/>
     </g>
    </g>
   </g>
   <g id="xtick_15">
    <g id="line2d_18">
     <path d="M 317.918809 110.50363 
L 320.913911 111.298577 
" style="fill:none;stroke:#000000;stroke-linecap:square;stroke-width:0.8;"/>
    </g>
    <g id="text_15">
     <!-- 40000 -->
     <g transform="translate(321.78813 115.914911)scale(0.1 -0.1)">
      <use xlink:href="#DejaVuSans-52"/>
      <use x="63.623047" xlink:href="#DejaVuSans-48"/>
      <use x="127.246094" xlink:href="#DejaVuSans-48"/>
      <use x="190.869141" xlink:href="#DejaVuSans-48"/>
      <use x="254.492188" xlink:href="#DejaVuSans-48"/>
     </g>
    </g>
   </g>
   <g id="xtick_16">
    <g id="line2d_19">
     <path d="M 318.61402 95.158212 
L 321.632258 95.940129 
" style="fill:none;stroke:#000000;stroke-linecap:square;stroke-width:0.8;"/>
    </g>
    <g id="text_16">
     <!-- 50000 -->
     <g transform="translate(322.627393 100.605417)scale(0.1 -0.1)">
      <defs>
       <path d="M 10.796875 72.90625 
L 49.515625 72.90625 
L 49.515625 64.59375 
L 19.828125 64.59375 
L 19.828125 46.734375 
Q 21.96875 47.46875 24.109375 47.828125 
Q 26.265625 48.1875 28.421875 48.1875 
Q 40.625 48.1875 47.75 41.5 
Q 54.890625 34.8125 54.890625 23.390625 
Q 54.890625 11.625 47.5625 5.09375 
Q 40.234375 -1.421875 26.90625 -1.421875 
Q 22.3125 -1.421875 17.546875 -0.640625 
Q 12.796875 0.140625 7.71875 1.703125 
L 7.71875 11.625 
Q 12.109375 9.234375 16.796875 8.0625 
Q 21.484375 6.890625 26.703125 6.890625 
Q 35.15625 6.890625 40.078125 11.328125 
Q 45.015625 15.765625 45.015625 23.390625 
Q 45.015625 31 40.078125 35.4375 
Q 35.15625 39.890625 26.703125 39.890625 
Q 22.75 39.890625 18.8125 39.015625 
Q 14.890625 38.140625 10.796875 36.28125 
z
" id="DejaVuSans-53"/>
      </defs>
      <use xlink:href="#DejaVuSans-53"/>
      <use x="63.623047" xlink:href="#DejaVuSans-48"/>
      <use x="127.246094" xlink:href="#DejaVuSans-48"/>
      <use x="190.869141" xlink:href="#DejaVuSans-48"/>
      <use x="254.492188" xlink:href="#DejaVuSans-48"/>
     </g>
    </g>
   </g>
  </g>
  <g id="axes_1">
   <g id="Poly3DCollection_1">
    <path clip-path="url(#pc0114f5f98)" d="M 203.700438 142.115361 
L 203.699787 142.051253 
L 215.863633 145.60268 
L 215.863902 145.66701 
z
" style="fill:#050338;"/>
    <path clip-path="url(#pc0114f5f98)" d="M 196.401162 148.290596 
L 196.400273 148.226103 
L 203.699787 142.051253 
L 203.700438 142.115361 
z
" style="fill:#0b0777;"/>
    <path clip-path="url(#pc0114f5f98)" d="M 196.401162 148.290596 
L 203.700438 142.115361 
L 215.863902 145.66701 
L 208.637156 151.907182 
z
" style="fill:#070448;"/>
    <path clip-path="url(#pc0114f5f98)" d="M 196.400273 148.226103 
L 208.636654 151.842465 
L 215.863633 145.60268 
L 203.699787 142.051253 
z
" style="fill:#0a0667;"/>
    <path clip-path="url(#pc0114f5f98)" d="M 215.863902 145.66701 
L 215.863197 145.498122 
L 228.155343 149.08646 
L 228.155024 149.255935 
z
" style="fill:#050338;"/>
    <path clip-path="url(#pc0114f5f98)" d="M 208.637156 151.907182 
L 215.863902 145.66701 
L 215.863633 145.60268 
L 208.636654 151.842465 
z
" style="fill:#050338;"/>
    <path clip-path="url(#pc0114f5f98)" d="M 208.637156 151.907182 
L 208.635838 151.737276 
L 215.863197 145.498122 
L 215.863902 145.66701 
z
" style="fill:#0b0777;"/>
    <path clip-path="url(#pc0114f5f98)" d="M 196.401162 148.290596 
L 208.637156 151.907182 
L 208.636654 151.842465 
L 196.400273 148.226103 
z
" style="fill:#0b0777;"/>
    <path clip-path="url(#pc0114f5f98)" d="M 196.401162 148.290596 
L 196.400141 148.21647 
L 208.636579 151.832798 
L 208.637156 151.907182 
z
" style="fill:#050338;"/>
    <path clip-path="url(#pc0114f5f98)" d="M 208.637156 151.907182 
L 215.863902 145.66701 
L 228.155024 149.255935 
L 221.002748 155.562072 
z
" style="fill:#070448;"/>
    <path clip-path="url(#pc0114f5f98)" d="M 208.635838 151.737276 
L 221.002467 155.391575 
L 228.155343 149.08646 
L 215.863197 145.498122 
z
" style="fill:#0a0667;"/>
    <path clip-path="url(#pc0114f5f98)" d="M 228.155024 149.255935 
L 228.15665 148.39236 
L 240.58278 152.016146 
L 240.575825 152.882725 
z
" style="fill:#080339;"/>
    <path clip-path="url(#pc0114f5f98)" d="M 188.96817 154.578956 
L 188.966866 154.504383 
L 196.400141 148.21647 
L 196.401162 148.290596 
z
" style="fill:#0b0777;"/>
    <path clip-path="url(#pc0114f5f98)" d="M 221.002748 155.562072 
L 228.155024 149.255935 
L 228.155343 149.08646 
L 221.002467 155.391575 
z
" style="fill:#050338;"/>
    <path clip-path="url(#pc0114f5f98)" d="M 221.002748 155.562072 
L 221.001314 154.693285 
L 228.15665 148.39236 
L 228.155024 149.255935 
z
" style="fill:#110679;"/>
    <path clip-path="url(#pc0114f5f98)" d="M 188.96817 154.578956 
L 196.401162 148.290596 
L 208.637156 151.907182 
L 201.27732 158.262275 
z
" style="fill:#070448;"/>
    <path clip-path="url(#pc0114f5f98)" d="M 188.966866 154.504383 
L 201.276465 158.187442 
L 208.636579 151.832798 
L 196.400141 148.21647 
z
" style="fill:#0a0667;"/>
    <path clip-path="url(#pc0114f5f98)" d="M 208.637156 151.907182 
L 221.002748 155.562072 
L 221.002467 155.391575 
L 208.635838 151.737276 
z
" style="fill:#0b0777;"/>
    <path clip-path="url(#pc0114f5f98)" d="M 208.637156 151.907182 
L 208.635162 151.65005 
L 221.002322 155.304045 
L 221.002748 155.562072 
z
" style="fill:#050338;"/>
    <path clip-path="url(#pc0114f5f98)" d="M 221.002748 155.562072 
L 228.155024 149.255935 
L 240.575825 152.882725 
L 233.500008 159.25588 
z
" style="fill:#0a0449;"/>
    <path clip-path="url(#pc0114f5f98)" d="M 221.001314 154.693285 
L 233.503968 158.384061 
L 240.58278 152.016146 
L 228.15665 148.39236 
z
" style="fill:#0f0569;"/>
    <path clip-path="url(#pc0114f5f98)" d="M 201.27732 158.262275 
L 208.637156 151.907182 
L 208.636579 151.832798 
L 201.276465 158.187442 
z
" style="fill:#050338;"/>
    <path clip-path="url(#pc0114f5f98)" d="M 201.27732 158.262275 
L 201.274363 158.00359 
L 208.635162 151.65005 
L 208.637156 151.907182 
z
" style="fill:#0b0777;"/>
    <path clip-path="url(#pc0114f5f98)" d="M 233.500008 159.25588 
L 240.575825 152.882725 
L 240.58278 152.016146 
L 233.503968 158.384061 
z
" style="fill:#080339;"/>
    <path clip-path="url(#pc0114f5f98)" d="M 188.96817 154.578956 
L 201.27732 158.262275 
L 201.276465 158.187442 
L 188.966866 154.504383 
z
" style="fill:#0b0777;"/>
    <path clip-path="url(#pc0114f5f98)" d="M 188.96817 154.578956 
L 188.966627 154.49077 
L 201.276308 158.173781 
L 201.27732 158.262275 
z
" style="fill:#050338;"/>
    <path clip-path="url(#pc0114f5f98)" d="M 240.575825 152.882725 
L 240.658028 142.640081 
L 253.274896 146.269397 
L 253.128369 156.547983 
z
" style="fill:#1f0143;"/>
    <path clip-path="url(#pc0114f5f98)" d="M 201.27732 158.262275 
L 208.637156 151.907182 
L 221.002748 155.562072 
L 213.718049 161.984967 
z
" style="fill:#070448;"/>
    <path clip-path="url(#pc0114f5f98)" d="M 201.274363 158.00359 
L 213.71668 161.725379 
L 221.002322 155.304045 
L 208.635162 151.65005 
z
" style="fill:#0a0667;"/>
    <path clip-path="url(#pc0114f5f98)" d="M 221.002748 155.562072 
L 233.500008 159.25588 
L 233.503968 158.384061 
L 221.001314 154.693285 
z
" style="fill:#110679;"/>
    <path clip-path="url(#pc0114f5f98)" d="M 221.002748 155.562072 
L 221.000123 153.971924 
L 233.507256 157.660182 
L 233.500008 159.25588 
z
" style="fill:#0a033a;"/>
    <path clip-path="url(#pc0114f5f98)" d="M 181.397755 160.983577 
L 181.395864 160.894858 
L 188.966627 154.49077 
L 188.96817 154.578956 
z
" style="fill:#0b0777;"/>
    <path clip-path="url(#pc0114f5f98)" d="M 233.500008 159.25588 
L 233.546818 148.950866 
L 240.658028 142.640081 
L 240.575825 152.882725 
z
" style="fill:#42028e;"/>
    <path clip-path="url(#pc0114f5f98)" d="M 233.500008 159.25588 
L 240.575825 152.882725 
L 253.128369 156.547983 
L 246.131049 162.989229 
z
" style="fill:#280156;"/>
    <path clip-path="url(#pc0114f5f98)" d="M 213.718049 161.984967 
L 221.002748 155.562072 
L 221.002322 155.304045 
L 213.71668 161.725379 
z
" style="fill:#050338;"/>
    <path clip-path="url(#pc0114f5f98)" d="M 213.718049 161.984967 
L 213.709613 160.385188 
L 221.000123 153.971924 
L 221.002748 155.562072 
z
" style="fill:#16067b;"/>
    <path clip-path="url(#pc0114f5f98)" d="M 253.128369 156.547983 
L 253.200166 151.511573 
L 265.918748 155.198282 
L 265.814761 160.252323 
z
" style="fill:#14023e;"/>
    <path clip-path="url(#pc0114f5f98)" d="M 181.397755 160.983577 
L 188.96817 154.578956 
L 201.27732 158.262275 
L 193.780682 164.735494 
z
" style="fill:#070448;"/>
    <path clip-path="url(#pc0114f5f98)" d="M 181.395864 160.894858 
L 193.779329 164.646464 
L 201.276308 158.173781 
L 188.966627 154.49077 
z
" style="fill:#0a0667;"/>
    <path clip-path="url(#pc0114f5f98)" d="M 201.27732 158.262275 
L 201.275062 158.064756 
L 213.717003 161.786759 
L 213.718049 161.984967 
z
" style="fill:#050338;"/>
    <path clip-path="url(#pc0114f5f98)" d="M 201.27732 158.262275 
L 213.718049 161.984967 
L 213.71668 161.725379 
L 201.274363 158.00359 
z
" style="fill:#0b0777;"/>
    <path clip-path="url(#pc0114f5f98)" d="M 213.718049 161.984967 
L 221.002748 155.562072 
L 233.500008 159.25588 
L 226.292478 165.747667 
z
" style="fill:#0d034a;"/>
    <path clip-path="url(#pc0114f5f98)" d="M 246.131049 162.989229 
L 246.185901 157.922223 
L 253.200166 151.511573 
L 253.128369 156.547983 
z
" style="fill:#2a0484;"/>
    <path clip-path="url(#pc0114f5f98)" d="M 213.709613 160.385188 
L 226.294038 164.14229 
L 233.507256 157.660182 
L 221.000123 153.971924 
z
" style="fill:#13056b;"/>
    <path clip-path="url(#pc0114f5f98)" d="M 233.546818 148.950866 
L 246.242996 152.647952 
L 253.274896 146.269397 
L 240.658028 142.640081 
z
" style="fill:#39027b;"/>
    <path clip-path="url(#pc0114f5f98)" d="M 193.780682 164.735494 
L 201.27732 158.262275 
L 201.276308 158.173781 
L 193.779329 164.646464 
z
" style="fill:#050338;"/>
    <path clip-path="url(#pc0114f5f98)" d="M 193.780682 164.735494 
L 193.777663 164.536779 
L 201.275062 158.064756 
L 201.27732 158.262275 
z
" style="fill:#0b0777;"/>
    <path clip-path="url(#pc0114f5f98)" d="M 246.131049 162.989229 
L 253.128369 156.547983 
L 253.274896 146.269397 
L 246.242996 152.647952 
z
" style="fill:#1f0143;"/>
    <path clip-path="url(#pc0114f5f98)" d="M 246.131049 162.989229 
L 253.128369 156.547983 
L 265.814761 160.252323 
L 258.898031 166.762758 
z
" style="fill:#190350;"/>
    <path clip-path="url(#pc0114f5f98)" d="M 265.814761 160.252323 
L 265.821624 159.918766 
L 278.646188 163.661653 
L 278.637155 163.996376 
z
" style="fill:#050338;"/>
    <path clip-path="url(#pc0114f5f98)" d="M 226.292478 165.747667 
L 233.500008 159.25588 
L 233.507256 157.660182 
L 226.294038 164.14229 
z
" style="fill:#0a033a;"/>
    <path clip-path="url(#pc0114f5f98)" d="M 181.397755 160.983577 
L 193.780682 164.735494 
L 193.779329 164.646464 
L 181.395864 160.894858 
z
" style="fill:#0b0777;"/>
    <path clip-path="url(#pc0114f5f98)" d="M 181.397755 160.983577 
L 181.395598 160.882382 
L 193.779139 164.633945 
L 193.780682 164.735494 
z
" style="fill:#050338;"/>
    <path clip-path="url(#pc0114f5f98)" d="M 233.500008 159.25588 
L 246.131049 162.989229 
L 246.242996 152.647952 
L 233.546818 148.950866 
z
" style="fill:#42028e;"/>
    <path clip-path="url(#pc0114f5f98)" d="M 193.780682 164.735494 
L 201.27732 158.262275 
L 213.718049 161.984967 
L 206.297214 168.527892 
z
" style="fill:#070448;"/>
    <path clip-path="url(#pc0114f5f98)" d="M 246.185901 157.922223 
L 258.985487 161.677966 
L 265.918748 155.198282 
L 253.200166 151.511573 
z
" style="fill:#240473;"/>
    <path clip-path="url(#pc0114f5f98)" d="M 193.777663 164.536779 
L 206.295422 168.328481 
L 213.717003 161.786759 
L 201.275062 158.064756 
z
" style="fill:#0a0667;"/>
    <path clip-path="url(#pc0114f5f98)" d="M 258.898031 166.762758 
L 258.903803 166.427179 
L 265.821624 159.918766 
L 265.814761 160.252323 
z
" style="fill:#0b0777;"/>
    <path clip-path="url(#pc0114f5f98)" d="M 213.718049 161.984967 
L 226.292478 165.747667 
L 226.294038 164.14229 
L 213.709613 160.385188 
z
" style="fill:#16067b;"/>
    <path clip-path="url(#pc0114f5f98)" d="M 213.718049 161.984967 
L 213.70617 159.732182 
L 226.294675 163.486994 
L 226.292478 165.747667 
z
" style="fill:#0c033b;"/>
    <path clip-path="url(#pc0114f5f98)" d="M 173.686069 167.507715 
L 173.683501 167.405906 
L 181.395598 160.882382 
L 181.397755 160.983577 
z
" style="fill:#0b0777;"/>
    <path clip-path="url(#pc0114f5f98)" d="M 226.292478 165.747667 
L 233.500008 159.25588 
L 246.131049 162.989229 
L 239.002775 169.551023 
z
" style="fill:#500a56;"/>
    <path clip-path="url(#pc0114f5f98)" d="M 258.898031 166.762758 
L 265.814761 160.252323 
L 265.918748 155.198282 
L 258.985487 161.677966 
z
" style="fill:#14023e;"/>
    <path clip-path="url(#pc0114f5f98)" d="M 206.297214 168.527892 
L 213.718049 161.984967 
L 213.717003 161.786759 
L 206.295422 168.328481 
z
" style="fill:#050338;"/>
    <path clip-path="url(#pc0114f5f98)" d="M 258.898031 166.762758 
L 265.814761 160.252323 
L 278.637155 163.996376 
L 271.803162 170.57712 
z
" style="fill:#070448;"/>
    <path clip-path="url(#pc0114f5f98)" d="M 258.903803 166.427179 
L 271.811132 170.240365 
L 278.646188 163.661653 
L 265.821624 159.918766 
z
" style="fill:#0a0667;"/>
    <path clip-path="url(#pc0114f5f98)" d="M 206.297214 168.527892 
L 206.276846 166.26142 
L 213.70617 159.732182 
L 213.718049 161.984967 
z
" style="fill:#1a057d;"/>
    <path clip-path="url(#pc0114f5f98)" d="M 233.500008 159.25588 
L 233.620395 132.753641 
L 246.418966 136.392588 
L 246.131049 162.989229 
z
" style="fill:#3f0843;"/>
    <path clip-path="url(#pc0114f5f98)" d="M 246.131049 162.989229 
L 258.898031 166.762758 
L 258.985487 161.677966 
L 246.185901 157.922223 
z
" style="fill:#2a0484;"/>
    <path clip-path="url(#pc0114f5f98)" d="M 278.637155 163.996376 
L 278.641941 163.819022 
L 291.603709 167.602808 
L 291.597749 167.780781 
z
" style="fill:#050338;"/>
    <path clip-path="url(#pc0114f5f98)" d="M 173.686069 167.507715 
L 181.397755 160.983577 
L 193.780682 164.735494 
L 186.143392 171.330164 
z
" style="fill:#070448;"/>
    <path clip-path="url(#pc0114f5f98)" d="M 173.683501 167.405906 
L 186.141446 171.227998 
L 193.779139 164.633945 
L 181.395598 160.882382 
z
" style="fill:#0a0667;"/>
    <path clip-path="url(#pc0114f5f98)" d="M 193.780682 164.735494 
L 206.297214 168.527892 
L 206.295422 168.328481 
L 193.777663 164.536779 
z
" style="fill:#0b0777;"/>
    <path clip-path="url(#pc0114f5f98)" d="M 193.780682 164.735494 
L 193.774085 164.301255 
L 206.293298 168.092133 
L 206.297214 168.527892 
z
" style="fill:#070339;"/>
    <path clip-path="url(#pc0114f5f98)" d="M 226.292478 165.747667 
L 226.318398 139.081604 
L 233.620395 132.753641 
L 233.500008 159.25588 
z
" style="fill:#85108e;"/>
    <path clip-path="url(#pc0114f5f98)" d="M 206.297214 168.527892 
L 213.718049 161.984967 
L 226.292478 165.747667 
L 218.949524 172.361429 
z
" style="fill:#10034c;"/>
    <path clip-path="url(#pc0114f5f98)" d="M 271.803162 170.57712 
L 271.807385 170.39869 
L 278.641941 163.819022 
L 278.637155 163.996376 
z
" style="fill:#0b0777;"/>
    <path clip-path="url(#pc0114f5f98)" d="M 271.803162 170.57712 
L 278.637155 163.996376 
L 278.646188 163.661653 
L 271.811132 170.240365 
z
" style="fill:#050338;"/>
    <path clip-path="url(#pc0114f5f98)" d="M 246.131049 162.989229 
L 246.304789 146.939814 
L 259.17505 150.656532 
L 258.898031 166.762758 
z
" style="fill:#2b0046;"/>
    <path clip-path="url(#pc0114f5f98)" d="M 206.276846 166.26142 
L 218.943408 170.087002 
L 226.294675 163.486994 
L 213.70617 159.732182 
z
" style="fill:#17056d;"/>
    <path clip-path="url(#pc0114f5f98)" d="M 186.143392 171.330164 
L 193.780682 164.735494 
L 193.779139 164.633945 
L 186.141446 171.227998 
z
" style="fill:#050338;"/>
    <path clip-path="url(#pc0114f5f98)" d="M 186.143392 171.330164 
L 186.135069 170.893287 
L 193.774085 164.301255 
L 193.780682 164.735494 
z
" style="fill:#0e0678;"/>
    <path clip-path="url(#pc0114f5f98)" d="M 239.002775 169.551023 
L 246.131049 162.989229 
L 258.898031 166.762758 
L 251.851153 173.395697 
z
" style="fill:#370059;"/>
    <path clip-path="url(#pc0114f5f98)" d="M 258.898031 166.762758 
L 271.803162 170.57712 
L 271.811132 170.240365 
L 258.903803 166.427179 
z
" style="fill:#0b0777;"/>
    <path clip-path="url(#pc0114f5f98)" d="M 258.898031 166.762758 
L 258.908951 166.127868 
L 271.818241 169.940005 
L 271.803162 170.57712 
z
" style="fill:#070339;"/>
    <path clip-path="url(#pc0114f5f98)" d="M 239.002775 169.551023 
L 239.120788 153.403024 
L 246.304789 146.939814 
L 246.131049 162.989229 
z
" style="fill:#5b0094;"/>
    <path clip-path="url(#pc0114f5f98)" d="M 271.803162 170.57712 
L 278.637155 163.996376 
L 291.597749 167.780781 
L 284.848695 174.43298 
z
" style="fill:#070448;"/>
    <path clip-path="url(#pc0114f5f98)" d="M 271.807385 170.39869 
L 284.854108 174.253925 
L 291.603709 167.602808 
L 278.641941 163.819022 
z
" style="fill:#0a0667;"/>
    <path clip-path="url(#pc0114f5f98)" d="M 173.686069 167.507715 
L 186.143392 171.330164 
L 186.141446 171.227998 
L 173.683501 167.405906 
z
" style="fill:#0b0777;"/>
    <path clip-path="url(#pc0114f5f98)" d="M 173.686069 167.507715 
L 173.683138 167.391513 
L 186.141171 171.213554 
L 186.143392 171.330164 
z
" style="fill:#050338;"/>
    <path clip-path="url(#pc0114f5f98)" d="M 218.949524 172.361429 
L 226.292478 165.747667 
L 226.294675 163.486994 
L 218.943408 170.087002 
z
" style="fill:#0c033b;"/>
    <path clip-path="url(#pc0114f5f98)" d="M 291.597749 167.780781 
L 291.600696 167.692785 
L 304.702329 171.517892 
L 304.698789 171.606197 
z
" style="fill:#050338;"/>
    <path clip-path="url(#pc0114f5f98)" d="M 186.143392 171.330164 
L 193.780682 164.735494 
L 206.297214 168.527892 
L 198.736391 175.194243 
z
" style="fill:#090449;"/>
    <path clip-path="url(#pc0114f5f98)" d="M 186.135069 170.893287 
L 198.730782 174.755834 
L 206.293298 168.092133 
L 193.774085 164.301255 
z
" style="fill:#0c0668;"/>
    <path clip-path="url(#pc0114f5f98)" d="M 251.851153 173.395697 
L 251.859928 172.756947 
L 258.908951 166.127868 
L 258.898031 166.762758 
z
" style="fill:#0e0678;"/>
    <path clip-path="url(#pc0114f5f98)" d="M 206.297214 168.527892 
L 218.949524 172.361429 
L 218.943408 170.087002 
L 206.276846 166.26142 
z
" style="fill:#1a057d;"/>
    <path clip-path="url(#pc0114f5f98)" d="M 165.82912 174.154745 
L 165.825704 174.037836 
L 173.683138 167.391513 
L 173.686069 167.507715 
z
" style="fill:#0b0777;"/>
    <path clip-path="url(#pc0114f5f98)" d="M 239.002775 169.551023 
L 246.131049 162.989229 
L 246.418966 136.392588 
L 239.198352 142.7897 
z
" style="fill:#3f0843;"/>
    <path clip-path="url(#pc0114f5f98)" d="M 206.297214 168.527892 
L 206.270517 165.55713 
L 218.941507 169.380234 
L 218.949524 172.361429 
z
" style="fill:#0f023c;"/>
    <path clip-path="url(#pc0114f5f98)" d="M 218.949524 172.361429 
L 226.292478 165.747667 
L 239.002775 169.551023 
L 231.739835 176.23678 
z
" style="fill:#682144;"/>
    <path clip-path="url(#pc0114f5f98)" d="M 284.848695 174.43298 
L 284.851371 174.344449 
L 291.600696 167.692785 
L 291.597749 167.780781 
z
" style="fill:#0b0777;"/>
    <path clip-path="url(#pc0114f5f98)" d="M 284.848695 174.43298 
L 291.597749 167.780781 
L 291.603709 167.602808 
L 284.854108 174.253925 
z
" style="fill:#050338;"/>
    <path clip-path="url(#pc0114f5f98)" d="M 198.736391 175.194243 
L 206.297214 168.527892 
L 206.293298 168.092133 
L 198.730782 174.755834 
z
" style="fill:#070339;"/>
    <path clip-path="url(#pc0114f5f98)" d="M 251.851153 173.395697 
L 258.898031 166.762758 
L 271.803162 170.57712 
L 264.839875 177.282368 
z
" style="fill:#090449;"/>
    <path clip-path="url(#pc0114f5f98)" d="M 251.859928 172.756947 
L 264.852863 176.641374 
L 271.818241 169.940005 
L 258.908951 166.127868 
z
" style="fill:#0c0668;"/>
    <path clip-path="url(#pc0114f5f98)" d="M 226.292478 165.747667 
L 239.002775 169.551023 
L 239.198352 142.7897 
L 226.318398 139.081604 
z
" style="fill:#85108e;"/>
    <path clip-path="url(#pc0114f5f98)" d="M 198.736391 175.194243 
L 198.698148 172.205377 
L 206.270517 165.55713 
L 206.297214 168.527892 
z
" style="fill:#200580;"/>
    <path clip-path="url(#pc0114f5f98)" d="M 271.803162 170.57712 
L 284.848695 174.43298 
L 284.854108 174.253925 
L 271.807385 170.39869 
z
" style="fill:#0b0777;"/>
    <path clip-path="url(#pc0114f5f98)" d="M 271.803162 170.57712 
L 271.808982 170.33122 
L 284.856155 174.186218 
L 284.848695 174.43298 
z
" style="fill:#050338;"/>
    <path clip-path="url(#pc0114f5f98)" d="M 165.82912 174.154745 
L 173.686069 167.507715 
L 186.143392 171.330164 
L 178.361455 178.049733 
z
" style="fill:#070448;"/>
    <path clip-path="url(#pc0114f5f98)" d="M 165.825704 174.037836 
L 178.358756 177.932415 
L 186.141171 171.213554 
L 173.683138 167.391513 
z
" style="fill:#0a0667;"/>
    <path clip-path="url(#pc0114f5f98)" d="M 251.851153 173.395697 
L 258.898031 166.762758 
L 259.17505 150.656532 
L 252.073777 157.190385 
z
" style="fill:#2b0046;"/>
    <path clip-path="url(#pc0114f5f98)" d="M 284.848695 174.43298 
L 291.597749 167.780781 
L 304.698789 171.606197 
L 298.036935 178.33102 
z
" style="fill:#070448;"/>
    <path clip-path="url(#pc0114f5f98)" d="M 284.851371 174.344449 
L 298.040212 178.242178 
L 304.702329 171.517892 
L 291.600696 167.692785 
z
" style="fill:#0a0667;"/>
    <path clip-path="url(#pc0114f5f98)" d="M 186.143392 171.330164 
L 186.135598 170.921038 
L 198.731138 174.783682 
L 198.736391 175.194243 
z
" style="fill:#070339;"/>
    <path clip-path="url(#pc0114f5f98)" d="M 186.143392 171.330164 
L 198.736391 175.194243 
L 198.730782 174.755834 
L 186.135069 170.893287 
z
" style="fill:#0e0678;"/>
    <path clip-path="url(#pc0114f5f98)" d="M 226.318398 139.081604 
L 239.198352 142.7897 
L 246.418966 136.392588 
L 233.620395 132.753641 
z
" style="fill:#730e7b;"/>
    <path clip-path="url(#pc0114f5f98)" d="M 198.736391 175.194243 
L 206.297214 168.527892 
L 218.949524 172.361429 
L 211.467294 179.100638 
z
" style="fill:#13034d;"/>
    <path clip-path="url(#pc0114f5f98)" d="M 239.120788 153.403024 
L 252.073777 157.190385 
L 259.17505 150.656532 
L 246.304789 146.939814 
z
" style="fill:#4f0080;"/>
    <path clip-path="url(#pc0114f5f98)" d="M 264.839875 177.282368 
L 264.844888 177.034971 
L 271.808982 170.33122 
L 271.803162 170.57712 
z
" style="fill:#0b0777;"/>
    <path clip-path="url(#pc0114f5f98)" d="M 264.839875 177.282368 
L 271.803162 170.57712 
L 271.818241 169.940005 
L 264.852863 176.641374 
z
" style="fill:#070339;"/>
    <path clip-path="url(#pc0114f5f98)" d="M 239.002775 169.551023 
L 251.851153 173.395697 
L 252.073777 157.190385 
L 239.120788 153.403024 
z
" style="fill:#5b0094;"/>
    <path clip-path="url(#pc0114f5f98)" d="M 226.292478 165.747667 
L 226.330902 126.217138 
L 239.292715 129.877905 
L 239.002775 169.551023 
z
" style="fill:#521a35;"/>
    <path clip-path="url(#pc0114f5f98)" d="M 178.361455 178.049733 
L 186.143392 171.330164 
L 186.141171 171.213554 
L 178.358756 177.932415 
z
" style="fill:#050338;"/>
    <path clip-path="url(#pc0114f5f98)" d="M 178.361455 178.049733 
L 178.351984 177.638117 
L 186.135598 170.921038 
L 186.143392 171.330164 
z
" style="fill:#0e0678;"/>
    <path clip-path="url(#pc0114f5f98)" d="M 231.739835 176.23678 
L 239.002775 169.551023 
L 251.851153 173.395697 
L 244.670417 180.154631 
z
" style="fill:#581051;"/>
    <path clip-path="url(#pc0114f5f98)" d="M 198.698148 172.205377 
L 211.447962 176.101249 
L 218.941507 169.380234 
L 206.270517 165.55713 
z
" style="fill:#1b046f;"/>
    <path clip-path="url(#pc0114f5f98)" d="M 298.036935 178.33102 
L 304.698789 171.606197 
L 304.702329 171.517892 
L 298.040212 178.242178 
z
" style="fill:#050338;"/>
    <path clip-path="url(#pc0114f5f98)" d="M 251.851153 173.395697 
L 264.839875 177.282368 
L 264.852863 176.641374 
L 251.859928 172.756947 
z
" style="fill:#0e0678;"/>
    <path clip-path="url(#pc0114f5f98)" d="M 251.851153 173.395697 
L 251.869893 172.03157 
L 264.867613 175.913447 
L 264.839875 177.282368 
z
" style="fill:#0a033a;"/>
    <path clip-path="url(#pc0114f5f98)" d="M 264.839875 177.282368 
L 271.803162 170.57712 
L 284.848695 174.43298 
L 277.971253 181.211726 
z
" style="fill:#070448;"/>
    <path clip-path="url(#pc0114f5f98)" d="M 264.844888 177.034971 
L 277.977928 180.963459 
L 284.856155 174.186218 
L 271.808982 170.33122 
z
" style="fill:#0a0667;"/>
    <path clip-path="url(#pc0114f5f98)" d="M 218.949524 172.361429 
L 218.842546 132.583449 
L 226.330902 126.217138 
L 226.292478 165.747667 
z
" style="fill:#ad3770;"/>
    <path clip-path="url(#pc0114f5f98)" d="M 165.82912 174.154745 
L 178.361455 178.049733 
L 178.358756 177.932415 
L 165.825704 174.037836 
z
" style="fill:#0b0777;"/>
    <path clip-path="url(#pc0114f5f98)" d="M 165.82912 174.154745 
L 165.823757 173.971238 
L 178.357218 177.865582 
L 178.361455 178.049733 
z
" style="fill:#050338;"/>
    <path clip-path="url(#pc0114f5f98)" d="M 211.467294 179.100638 
L 218.949524 172.361429 
L 218.941507 169.380234 
L 211.447962 176.101249 
z
" style="fill:#0f023c;"/>
    <path clip-path="url(#pc0114f5f98)" d="M 284.848695 174.43298 
L 298.036935 178.33102 
L 298.040212 178.242178 
L 284.851371 174.344449 
z
" style="fill:#0b0777;"/>
    <path clip-path="url(#pc0114f5f98)" d="M 284.848695 174.43298 
L 284.852489 174.307473 
L 298.041581 178.205072 
L 298.036935 178.33102 
z
" style="fill:#050338;"/>
    <path clip-path="url(#pc0114f5f98)" d="M 178.361455 178.049733 
L 186.143392 171.330164 
L 198.736391 175.194243 
L 191.031582 181.987547 
z
" style="fill:#090449;"/>
    <path clip-path="url(#pc0114f5f98)" d="M 178.351984 177.638117 
L 191.024683 181.574483 
L 198.731138 174.783682 
L 186.135598 170.921038 
z
" style="fill:#0c0668;"/>
    <path clip-path="url(#pc0114f5f98)" d="M 239.002775 169.551023 
L 239.224132 139.262225 
L 252.268745 142.998232 
L 251.851153 173.395697 
z
" style="fill:#450d40;"/>
    <path clip-path="url(#pc0114f5f98)" d="M 244.670417 180.154631 
L 244.684397 178.782186 
L 251.869893 172.03157 
L 251.851153 173.395697 
z
" style="fill:#16067b;"/>
    <path clip-path="url(#pc0114f5f98)" d="M 157.822766 180.928173 
L 157.816611 180.743548 
L 165.823757 173.971238 
L 165.82912 174.154745 
z
" style="fill:#0b0777;"/>
    <path clip-path="url(#pc0114f5f98)" d="M 198.736391 175.194243 
L 211.467294 179.100638 
L 211.447962 176.101249 
L 198.698148 172.205377 
z
" style="fill:#200580;"/>
    <path clip-path="url(#pc0114f5f98)" d="M 211.467294 179.100638 
L 218.949524 172.361429 
L 231.739835 176.23678 
L 224.338378 183.050047 
z
" style="fill:#783634;"/>
    <path clip-path="url(#pc0114f5f98)" d="M 198.736391 175.194243 
L 198.694151 171.892971 
L 211.445942 175.78774 
L 211.467294 179.100638 
z
" style="fill:#0f023c;"/>
    <path clip-path="url(#pc0114f5f98)" d="M 277.971253 181.211726 
L 277.974648 181.085453 
L 284.852489 174.307473 
L 284.848695 174.43298 
z
" style="fill:#0b0777;"/>
    <path clip-path="url(#pc0114f5f98)" d="M 277.971253 181.211726 
L 284.848695 174.43298 
L 284.856155 174.186218 
L 277.977928 180.963459 
z
" style="fill:#050338;"/>
    <path clip-path="url(#pc0114f5f98)" d="M 231.739835 176.23678 
L 231.852631 145.759407 
L 239.224132 139.262225 
L 239.002775 169.551023 
z
" style="fill:#911b87;"/>
    <path clip-path="url(#pc0114f5f98)" d="M 191.031582 181.987547 
L 198.736391 175.194243 
L 198.731138 174.783682 
L 191.024683 181.574483 
z
" style="fill:#070339;"/>
    <path clip-path="url(#pc0114f5f98)" d="M 244.670417 180.154631 
L 251.851153 173.395697 
L 264.839875 177.282368 
L 257.743589 184.115686 
z
" style="fill:#0d034a;"/>
    <path clip-path="url(#pc0114f5f98)" d="M 191.031582 181.987547 
L 190.976106 178.666103 
L 198.694151 171.892971 
L 198.736391 175.194243 
z
" style="fill:#200580;"/>
    <path clip-path="url(#pc0114f5f98)" d="M 244.684397 178.782186 
L 257.766685 182.738407 
L 264.867613 175.913447 
L 251.869893 172.03157 
z
" style="fill:#13056b;"/>
    <path clip-path="url(#pc0114f5f98)" d="M 264.839875 177.282368 
L 277.971253 181.211726 
L 277.977928 180.963459 
L 264.844888 177.034971 
z
" style="fill:#0b0777;"/>
    <path clip-path="url(#pc0114f5f98)" d="M 264.839875 177.282368 
L 264.848864 176.838736 
L 277.983222 180.766534 
L 277.971253 181.211726 
z
" style="fill:#070339;"/>
    <path clip-path="url(#pc0114f5f98)" d="M 157.822766 180.928173 
L 165.82912 174.154745 
L 178.361455 178.049733 
L 170.430723 184.897786 
z
" style="fill:#070448;"/>
    <path clip-path="url(#pc0114f5f98)" d="M 157.816611 180.743548 
L 170.425707 184.712512 
L 178.357218 177.865582 
L 165.823757 173.971238 
z
" style="fill:#0a0667;"/>
    <path clip-path="url(#pc0114f5f98)" d="M 277.971253 181.211726 
L 284.848695 174.43298 
L 298.036935 178.33102 
L 291.24765 185.184478 
z
" style="fill:#070448;"/>
    <path clip-path="url(#pc0114f5f98)" d="M 277.974648 181.085453 
L 291.251909 185.057761 
L 298.041581 178.205072 
L 284.852489 174.307473 
z
" style="fill:#0a0667;"/>
    <path clip-path="url(#pc0114f5f98)" d="M 231.739835 176.23678 
L 239.002775 169.551023 
L 239.292715 129.877905 
L 231.887585 136.314898 
z
" style="fill:#521a35;"/>
    <path clip-path="url(#pc0114f5f98)" d="M 178.361455 178.049733 
L 178.352056 177.641242 
L 191.024736 181.577619 
L 191.031582 181.987547 
z
" style="fill:#070339;"/>
    <path clip-path="url(#pc0114f5f98)" d="M 178.361455 178.049733 
L 191.031582 181.987547 
L 191.024683 181.574483 
L 178.351984 177.638117 
z
" style="fill:#0e0678;"/>
    <path clip-path="url(#pc0114f5f98)" d="M 191.031582 181.987547 
L 198.736391 175.194243 
L 211.467294 179.100638 
L 203.841786 185.968896 
z
" style="fill:#13034d;"/>
    <path clip-path="url(#pc0114f5f98)" d="M 257.743589 184.115686 
L 257.751074 183.669347 
L 264.848864 176.838736 
L 264.839875 177.282368 
z
" style="fill:#0e0678;"/>
    <path clip-path="url(#pc0114f5f98)" d="M 257.743589 184.115686 
L 264.839875 177.282368 
L 264.867613 175.913447 
L 257.766685 182.738407 
z
" style="fill:#0a033a;"/>
    <path clip-path="url(#pc0114f5f98)" d="M 218.949524 172.361429 
L 231.739835 176.23678 
L 231.887585 136.314898 
L 218.842546 132.583449 
z
" style="fill:#ad3770;"/>
    <path clip-path="url(#pc0114f5f98)" d="M 170.430723 184.897786 
L 178.361455 178.049733 
L 178.357218 177.865582 
L 170.425707 184.712512 
z
" style="fill:#050338;"/>
    <path clip-path="url(#pc0114f5f98)" d="M 170.430723 184.897786 
L 170.419596 184.486802 
L 178.352056 177.641242 
L 178.361455 178.049733 
z
" style="fill:#0e0678;"/>
    <path clip-path="url(#pc0114f5f98)" d="M 224.338378 183.050047 
L 231.739835 176.23678 
L 244.670417 180.154631 
L 237.351973 187.043183 
z
" style="fill:#742f39;"/>
    <path clip-path="url(#pc0114f5f98)" d="M 190.976106 178.666103 
L 203.807458 182.635729 
L 211.445942 175.78774 
L 198.694151 171.892971 
z
" style="fill:#1b046f;"/>
    <path clip-path="url(#pc0114f5f98)" d="M 291.24765 185.184478 
L 298.036935 178.33102 
L 298.041581 178.205072 
L 291.251909 185.057761 
z
" style="fill:#050338;"/>
    <path clip-path="url(#pc0114f5f98)" d="M 244.670417 180.154631 
L 251.851153 173.395697 
L 252.268745 142.998232 
L 244.981995 149.567615 
z
" style="fill:#450d40;"/>
    <path clip-path="url(#pc0114f5f98)" d="M 244.670417 180.154631 
L 257.743589 184.115686 
L 257.766685 182.738407 
L 244.684397 178.782186 
z
" style="fill:#16067b;"/>
    <path clip-path="url(#pc0114f5f98)" d="M 257.743589 184.115686 
L 264.839875 177.282368 
L 277.971253 181.211726 
L 270.961723 188.120663 
z
" style="fill:#090449;"/>
    <path clip-path="url(#pc0114f5f98)" d="M 244.670417 180.154631 
L 244.704297 176.828652 
L 257.799561 180.777975 
L 257.743589 184.115686 
z
" style="fill:#0f023c;"/>
    <path clip-path="url(#pc0114f5f98)" d="M 257.751074 183.669347 
L 270.972228 187.672752 
L 277.983222 180.766534 
L 264.848864 176.838736 
z
" style="fill:#0c0668;"/>
    <path clip-path="url(#pc0114f5f98)" d="M 157.822766 180.928173 
L 157.817057 180.756928 
L 170.42607 184.725938 
L 170.430723 184.897786 
z
" style="fill:#050338;"/>
    <path clip-path="url(#pc0114f5f98)" d="M 157.822766 180.928173 
L 170.430723 184.897786 
L 170.425707 184.712512 
L 157.816611 180.743548 
z
" style="fill:#0b0777;"/>
    <path clip-path="url(#pc0114f5f98)" d="M 203.841786 185.968896 
L 211.467294 179.100638 
L 211.445942 175.78774 
L 203.807458 182.635729 
z
" style="fill:#0f023c;"/>
    <path clip-path="url(#pc0114f5f98)" d="M 277.971253 181.211726 
L 291.24765 185.184478 
L 291.251909 185.057761 
L 277.974648 181.085453 
z
" style="fill:#0b0777;"/>
    <path clip-path="url(#pc0114f5f98)" d="M 277.971253 181.211726 
L 277.975271 181.062265 
L 291.252691 185.034491 
L 291.24765 185.184478 
z
" style="fill:#050338;"/>
    <path clip-path="url(#pc0114f5f98)" d="M 218.949524 172.361429 
L 218.811709 121.117353 
L 231.93018 124.805716 
L 231.739835 176.23678 
z
" style="fill:#5e2a28;"/>
    <path clip-path="url(#pc0114f5f98)" d="M 170.430723 184.897786 
L 178.361455 178.049733 
L 191.031582 181.987547 
L 183.178635 188.911464 
z
" style="fill:#090449;"/>
    <path clip-path="url(#pc0114f5f98)" d="M 170.419596 184.486802 
L 183.170092 188.499032 
L 191.024736 181.577619 
L 178.352056 177.641242 
z
" style="fill:#0c0668;"/>
    <path clip-path="url(#pc0114f5f98)" d="M 231.739835 176.23678 
L 244.670417 180.154631 
L 244.981995 149.567615 
L 231.852631 145.759407 
z
" style="fill:#911b87;"/>
    <path clip-path="url(#pc0114f5f98)" d="M 237.351973 187.043183 
L 237.373866 183.696848 
L 244.704297 176.828652 
L 244.670417 180.154631 
z
" style="fill:#200580;"/>
    <path clip-path="url(#pc0114f5f98)" d="M 149.662704 187.831639 
L 149.656233 187.659348 
L 157.817057 180.756928 
L 157.822766 180.928173 
z
" style="fill:#0b0777;"/>
    <path clip-path="url(#pc0114f5f98)" d="M 203.841786 185.968896 
L 211.467294 179.100638 
L 224.338378 183.050047 
L 216.794403 189.994506 
z
" style="fill:#7f422b;"/>
    <path clip-path="url(#pc0114f5f98)" d="M 191.031582 181.987547 
L 203.841786 185.968896 
L 203.807458 182.635729 
L 190.976106 178.666103 
z
" style="fill:#200580;"/>
    <path clip-path="url(#pc0114f5f98)" d="M 191.031582 181.987547 
L 190.966979 178.11964 
L 203.80181 182.087331 
L 203.841786 185.968896 
z
" style="fill:#11023d;"/>
    <path clip-path="url(#pc0114f5f98)" d="M 270.961723 188.120663 
L 270.96525 187.970289 
L 277.975271 181.062265 
L 277.971253 181.211726 
z
" style="fill:#0b0777;"/>
    <path clip-path="url(#pc0114f5f98)" d="M 270.961723 188.120663 
L 277.971253 181.211726 
L 277.983222 180.766534 
L 270.972228 187.672752 
z
" style="fill:#070339;"/>
    <path clip-path="url(#pc0114f5f98)" d="M 211.467294 179.100638 
L 211.134925 127.532054 
L 218.811709 121.117353 
L 218.949524 172.361429 
z
" style="fill:#c75956;"/>
    <path clip-path="url(#pc0114f5f98)" d="M 218.842546 132.583449 
L 231.887585 136.314898 
L 239.292715 129.877905 
L 226.330902 126.217138 
z
" style="fill:#963061;"/>
    <path clip-path="url(#pc0114f5f98)" d="M 183.178635 188.911464 
L 191.031582 181.987547 
L 191.024736 181.577619 
L 183.170092 188.499032 
z
" style="fill:#070339;"/>
    <path clip-path="url(#pc0114f5f98)" d="M 237.351973 187.043183 
L 244.670417 180.154631 
L 257.743589 184.115686 
L 250.510457 191.080779 
z
" style="fill:#13034d;"/>
    <path clip-path="url(#pc0114f5f98)" d="M 231.852631 145.759407 
L 244.981995 149.567615 
L 252.268745 142.998232 
L 239.224132 139.262225 
z
" style="fill:#7e1875;"/>
    <path clip-path="url(#pc0114f5f98)" d="M 183.178635 188.911464 
L 183.09803 185.01986 
L 190.966979 178.11964 
L 191.031582 181.987547 
z
" style="fill:#230581;"/>
    <path clip-path="url(#pc0114f5f98)" d="M 257.743589 184.115686 
L 270.961723 188.120663 
L 270.972228 187.672752 
L 257.751074 183.669347 
z
" style="fill:#0e0678;"/>
    <path clip-path="url(#pc0114f5f98)" d="M 257.743589 184.115686 
L 257.753254 183.539319 
L 270.975288 187.542265 
L 270.961723 188.120663 
z
" style="fill:#070339;"/>
    <path clip-path="url(#pc0114f5f98)" d="M 149.662704 187.831639 
L 157.822766 180.928173 
L 170.430723 184.897786 
L 162.346885 191.878042 
z
" style="fill:#070448;"/>
    <path clip-path="url(#pc0114f5f98)" d="M 149.656233 187.659348 
L 162.341483 191.705144 
L 170.42607 184.725938 
L 157.817057 180.756928 
z
" style="fill:#0a0667;"/>
    <path clip-path="url(#pc0114f5f98)" d="M 270.961723 188.120663 
L 277.971253 181.211726 
L 291.24765 185.184478 
L 284.327244 192.170297 
z
" style="fill:#070448;"/>
    <path clip-path="url(#pc0114f5f98)" d="M 270.96525 187.970289 
L 284.331807 192.019393 
L 291.252691 185.034491 
L 277.975271 181.062265 
z
" style="fill:#0a0667;"/>
    <path clip-path="url(#pc0114f5f98)" d="M 231.739835 176.23678 
L 231.916715 128.443886 
L 245.159039 132.187523 
L 244.670417 180.154631 
z
" style="fill:#5a252c;"/>
    <path clip-path="url(#pc0114f5f98)" d="M 237.373866 183.696848 
L 250.554733 187.722614 
L 257.799561 180.777975 
L 244.704297 176.828652 
z
" style="fill:#1b046f;"/>
    <path clip-path="url(#pc0114f5f98)" d="M 170.430723 184.897786 
L 183.178635 188.911464 
L 183.170092 188.499032 
L 170.419596 184.486802 
z
" style="fill:#0e0678;"/>
    <path clip-path="url(#pc0114f5f98)" d="M 170.430723 184.897786 
L 170.415612 184.33966 
L 183.167034 188.35137 
L 183.178635 188.911464 
z
" style="fill:#070339;"/>
    <path clip-path="url(#pc0114f5f98)" d="M 183.178635 188.911464 
L 191.031582 181.987547 
L 203.841786 185.968896 
L 196.068846 192.969946 
z
" style="fill:#15034e;"/>
    <path clip-path="url(#pc0114f5f98)" d="M 250.510457 191.080779 
L 250.518102 190.500888 
L 257.753254 183.539319 
L 257.743589 184.115686 
z
" style="fill:#0e0678;"/>
    <path clip-path="url(#pc0114f5f98)" d="M 250.510457 191.080779 
L 257.743589 184.115686 
L 257.799561 180.777975 
L 250.554733 187.722614 
z
" style="fill:#0f023c;"/>
    <path clip-path="url(#pc0114f5f98)" d="M 224.338378 183.050047 
L 224.338378 134.95482 
L 231.916715 128.443886 
L 231.739835 176.23678 
z
" style="fill:#bf4e5e;"/>
    <path clip-path="url(#pc0114f5f98)" d="M 162.346885 191.878042 
L 170.430723 184.897786 
L 170.42607 184.725938 
L 162.341483 191.705144 
z
" style="fill:#050338;"/>
    <path clip-path="url(#pc0114f5f98)" d="M 162.346885 191.878042 
L 162.329341 191.316502 
L 170.415612 184.33966 
L 170.430723 184.897786 
z
" style="fill:#0e0678;"/>
    <path clip-path="url(#pc0114f5f98)" d="M 216.794403 189.994506 
L 224.338378 183.050047 
L 237.351973 187.043183 
L 229.891821 194.06512 
z
" style="fill:#844e23;"/>
    <path clip-path="url(#pc0114f5f98)" d="M 284.327244 192.170297 
L 291.24765 185.184478 
L 291.252691 185.034491 
L 284.331807 192.019393 
z
" style="fill:#050338;"/>
    <path clip-path="url(#pc0114f5f98)" d="M 183.09803 185.01986 
L 196.013175 189.06457 
L 203.80181 182.087331 
L 190.966979 178.11964 
z
" style="fill:#1f0470;"/>
    <path clip-path="url(#pc0114f5f98)" d="M 224.338378 183.050047 
L 231.739835 176.23678 
L 231.93018 124.805716 
L 224.338378 131.292737 
z
" style="fill:#5e2a28;"/>
    <path clip-path="url(#pc0114f5f98)" d="M 250.510457 191.080779 
L 257.743589 184.115686 
L 270.961723 188.120663 
L 263.816264 195.163579 
z
" style="fill:#090449;"/>
    <path clip-path="url(#pc0114f5f98)" d="M 237.351973 187.043183 
L 250.510457 191.080779 
L 250.554733 187.722614 
L 237.373866 183.696848 
z
" style="fill:#200580;"/>
    <path clip-path="url(#pc0114f5f98)" d="M 250.518102 190.500888 
L 263.827861 194.581641 
L 270.975288 187.542265 
L 257.753254 183.539319 
z
" style="fill:#0c0668;"/>
    <path clip-path="url(#pc0114f5f98)" d="M 149.662704 187.831639 
L 162.346885 191.878042 
L 162.341483 191.705144 
L 149.656233 187.659348 
z
" style="fill:#0b0777;"/>
    <path clip-path="url(#pc0114f5f98)" d="M 149.662704 187.831639 
L 149.655119 187.629666 
L 162.340552 191.675357 
L 162.346885 191.878042 
z
" style="fill:#050338;"/>
    <path clip-path="url(#pc0114f5f98)" d="M 270.961723 188.120663 
L 284.327244 192.170297 
L 284.331807 192.019393 
L 270.96525 187.970289 
z
" style="fill:#0b0777;"/>
    <path clip-path="url(#pc0114f5f98)" d="M 270.961723 188.120663 
L 270.966305 187.925282 
L 284.333173 191.974227 
L 284.327244 192.170297 
z
" style="fill:#050338;"/>
    <path clip-path="url(#pc0114f5f98)" d="M 196.068846 192.969946 
L 203.841786 185.968896 
L 203.80181 182.087331 
L 196.013175 189.06457 
z
" style="fill:#11023d;"/>
    <path clip-path="url(#pc0114f5f98)" d="M 237.351973 187.043183 
L 237.396265 180.273323 
L 250.600032 184.286921 
L 250.510457 191.080779 
z
" style="fill:#180240;"/>
    <path clip-path="url(#pc0114f5f98)" d="M 211.467294 179.100638 
L 224.338378 183.050047 
L 224.338378 131.292737 
L 211.134925 127.532054 
z
" style="fill:#c75956;"/>
    <path clip-path="url(#pc0114f5f98)" d="M 162.346885 191.878042 
L 170.430723 184.897786 
L 183.178635 188.911464 
L 175.173234 195.969799 
z
" style="fill:#090449;"/>
    <path clip-path="url(#pc0114f5f98)" d="M 162.329341 191.316502 
L 175.159242 195.406275 
L 183.167034 188.35137 
L 170.415612 184.33966 
z
" style="fill:#0c0668;"/>
    <path clip-path="url(#pc0114f5f98)" d="M 141.344465 194.868925 
L 141.335952 194.665715 
L 149.655119 187.629666 
L 149.662704 187.831639 
z
" style="fill:#0b0777;"/>
    <path clip-path="url(#pc0114f5f98)" d="M 196.068846 192.969946 
L 203.841786 185.968896 
L 216.794403 189.994506 
L 209.103753 197.073984 
z
" style="fill:#80432b;"/>
    <path clip-path="url(#pc0114f5f98)" d="M 211.467294 179.100638 
L 211.095164 121.362938 
L 224.338378 125.100058 
L 224.338378 183.050047 
z
" style="fill:#633322;"/>
    <path clip-path="url(#pc0114f5f98)" d="M 183.178635 188.911464 
L 183.099561 185.093776 
L 196.014233 189.138749 
L 196.068846 192.969946 
z
" style="fill:#11023d;"/>
    <path clip-path="url(#pc0114f5f98)" d="M 183.178635 188.911464 
L 196.068846 192.969946 
L 196.013175 189.06457 
L 183.09803 185.01986 
z
" style="fill:#230581;"/>
    <path clip-path="url(#pc0114f5f98)" d="M 263.816264 195.163579 
L 263.820181 194.967002 
L 270.966305 187.925282 
L 270.961723 188.120663 
z
" style="fill:#0b0777;"/>
    <path clip-path="url(#pc0114f5f98)" d="M 263.816264 195.163579 
L 270.961723 188.120663 
L 270.975288 187.542265 
L 263.827861 194.581641 
z
" style="fill:#070339;"/>
    <path clip-path="url(#pc0114f5f98)" d="M 229.891821 194.06512 
L 229.910906 187.253623 
L 237.396265 180.273323 
L 237.351973 187.043183 
z
" style="fill:#320488;"/>
    <path clip-path="url(#pc0114f5f98)" d="M 237.351973 187.043183 
L 244.670417 180.154631 
L 245.159039 132.187523 
L 237.667789 138.772144 
z
" style="fill:#5a252c;"/>
    <path clip-path="url(#pc0114f5f98)" d="M 175.173234 195.969799 
L 183.178635 188.911464 
L 183.167034 188.35137 
L 175.159242 195.406275 
z
" style="fill:#070339;"/>
    <path clip-path="url(#pc0114f5f98)" d="M 229.891821 194.06512 
L 237.351973 187.043183 
L 250.510457 191.080779 
L 243.136481 198.181496 
z
" style="fill:#1e0252;"/>
    <path clip-path="url(#pc0114f5f98)" d="M 203.841786 185.968896 
L 203.243348 127.862778 
L 211.095164 121.362938 
L 211.467294 179.100638 
z
" style="fill:#d26d48;"/>
    <path clip-path="url(#pc0114f5f98)" d="M 175.173234 195.969799 
L 175.077862 192.128673 
L 183.099561 185.093776 
L 183.178635 188.911464 
z
" style="fill:#230581;"/>
    <path clip-path="url(#pc0114f5f98)" d="M 250.510457 191.080779 
L 263.816264 195.163579 
L 263.827861 194.581641 
L 250.518102 190.500888 
z
" style="fill:#0e0678;"/>
    <path clip-path="url(#pc0114f5f98)" d="M 250.510457 191.080779 
L 250.521414 190.249742 
L 263.832884 194.329608 
L 263.816264 195.163579 
z
" style="fill:#080339;"/>
    <path clip-path="url(#pc0114f5f98)" d="M 141.344465 194.868925 
L 149.662704 187.831639 
L 162.346885 191.878042 
L 154.105465 198.994368 
z
" style="fill:#070448;"/>
    <path clip-path="url(#pc0114f5f98)" d="M 141.335952 194.665715 
L 154.098221 198.79044 
L 162.340552 191.675357 
L 149.655119 187.629666 
z
" style="fill:#0a0667;"/>
    <path clip-path="url(#pc0114f5f98)" d="M 263.816264 195.163579 
L 270.961723 188.120663 
L 284.327244 192.170297 
L 277.271882 199.292348 
z
" style="fill:#070448;"/>
    <path clip-path="url(#pc0114f5f98)" d="M 263.820181 194.967002 
L 277.277164 199.095077 
L 284.333173 191.974227 
L 270.966305 187.925282 
z
" style="fill:#0a0667;"/>
    <path clip-path="url(#pc0114f5f98)" d="M 224.338378 183.050047 
L 237.351973 187.043183 
L 237.667789 138.772144 
L 224.338378 134.95482 
z
" style="fill:#bf4e5e;"/>
    <path clip-path="url(#pc0114f5f98)" d="M 162.346885 191.878042 
L 162.332463 191.416444 
L 175.161732 195.50657 
L 175.173234 195.969799 
z
" style="fill:#070339;"/>
    <path clip-path="url(#pc0114f5f98)" d="M 162.346885 191.878042 
L 175.173234 195.969799 
L 175.159242 195.406275 
L 162.329341 191.316502 
z
" style="fill:#0e0678;"/>
    <path clip-path="url(#pc0114f5f98)" d="M 175.173234 195.969799 
L 183.178635 188.911464 
L 196.068846 192.969946 
L 188.144156 200.107676 
z
" style="fill:#15034e;"/>
    <path clip-path="url(#pc0114f5f98)" d="M 243.136481 198.181496 
L 243.144428 197.345366 
L 250.521414 190.249742 
L 250.510457 191.080779 
z
" style="fill:#110679;"/>
    <path clip-path="url(#pc0114f5f98)" d="M 229.910906 187.253623 
L 243.201447 191.345804 
L 250.600032 184.286921 
L 237.396265 180.273323 
z
" style="fill:#2b0376;"/>
    <path clip-path="url(#pc0114f5f98)" d="M 154.105465 198.994368 
L 162.346885 191.878042 
L 162.340552 191.675357 
L 154.098221 198.79044 
z
" style="fill:#050338;"/>
    <path clip-path="url(#pc0114f5f98)" d="M 154.105465 198.994368 
L 154.088968 198.529941 
L 162.332463 191.416444 
L 162.346885 191.878042 
z
" style="fill:#0e0678;"/>
    <path clip-path="url(#pc0114f5f98)" d="M 209.103753 197.073984 
L 216.794403 189.994506 
L 229.891821 194.06512 
L 222.285805 201.224351 
z
" style="fill:#866e14;"/>
    <path clip-path="url(#pc0114f5f98)" d="M 277.271882 199.292348 
L 284.327244 192.170297 
L 284.333173 191.974227 
L 277.277164 199.095077 
z
" style="fill:#050338;"/>
    <path clip-path="url(#pc0114f5f98)" d="M 243.136481 198.181496 
L 250.510457 191.080779 
L 250.600032 184.286921 
L 243.201447 191.345804 
z
" style="fill:#180240;"/>
    <path clip-path="url(#pc0114f5f98)" d="M 175.077862 192.128673 
L 188.073549 196.252932 
L 196.014233 189.138749 
L 183.099561 185.093776 
z
" style="fill:#1f0470;"/>
    <path clip-path="url(#pc0114f5f98)" d="M 211.134925 127.532054 
L 224.338378 131.292737 
L 231.93018 124.805716 
L 218.811709 121.117353 
z
" style="fill:#ad4e4a;"/>
    <path clip-path="url(#pc0114f5f98)" d="M 243.136481 198.181496 
L 250.510457 191.080779 
L 263.816264 195.163579 
L 256.530882 202.34441 
z
" style="fill:#0a0449;"/>
    <path clip-path="url(#pc0114f5f98)" d="M 224.338378 183.050047 
L 224.338378 118.906794 
L 237.773187 122.662585 
L 237.351973 187.043183 
z
" style="fill:#673d1b;"/>
    <path clip-path="url(#pc0114f5f98)" d="M 141.344465 194.868925 
L 154.105465 198.994368 
L 154.098221 198.79044 
L 141.335952 194.665715 
z
" style="fill:#0b0777;"/>
    <path clip-path="url(#pc0114f5f98)" d="M 243.144428 197.345366 
L 256.544567 201.505322 
L 263.832884 194.329608 
L 250.521414 190.249742 
z
" style="fill:#0f0569;"/>
    <path clip-path="url(#pc0114f5f98)" d="M 216.794403 189.994506 
L 224.338378 183.050047 
L 224.338378 125.100058 
L 216.572881 131.674125 
z
" style="fill:#633322;"/>
    <path clip-path="url(#pc0114f5f98)" d="M 188.144156 200.107676 
L 196.068846 192.969946 
L 196.014233 189.138749 
L 188.073549 196.252932 
z
" style="fill:#11023d;"/>
    <path clip-path="url(#pc0114f5f98)" d="M 263.816264 195.163579 
L 277.271882 199.292348 
L 277.277164 199.095077 
L 263.820181 194.967002 
z
" style="fill:#0b0777;"/>
    <path clip-path="url(#pc0114f5f98)" d="M 263.816264 195.163579 
L 263.820552 194.948376 
L 277.277665 199.076385 
L 277.271882 199.292348 
z
" style="fill:#050338;"/>
    <path clip-path="url(#pc0114f5f98)" d="M 229.891821 194.06512 
L 243.136481 198.181496 
L 243.201447 191.345804 
L 229.910906 187.253623 
z
" style="fill:#320488;"/>
    <path clip-path="url(#pc0114f5f98)" d="M 154.105465 198.994368 
L 162.346885 191.878042 
L 175.173234 195.969799 
L 167.010898 203.166503 
z
" style="fill:#090449;"/>
    <path clip-path="url(#pc0114f5f98)" d="M 154.088968 198.529941 
L 166.997355 202.700433 
L 175.161732 195.50657 
L 162.332463 191.416444 
z
" style="fill:#0c0668;"/>
    <path clip-path="url(#pc0114f5f98)" d="M 229.891821 194.06512 
L 229.921807 183.362885 
L 243.238557 187.441128 
L 243.136481 198.181496 
z
" style="fill:#200143;"/>
    <path clip-path="url(#pc0114f5f98)" d="M 216.794403 189.994506 
L 216.5492 125.439345 
L 224.338378 118.906794 
L 224.338378 183.050047 
z
" style="fill:#db823a;"/>
    <path clip-path="url(#pc0114f5f98)" d="M 188.144156 200.107676 
L 196.068846 192.969946 
L 209.103753 197.073984 
L 201.262108 204.292457 
z
" style="fill:#7d3e2e;"/>
    <path clip-path="url(#pc0114f5f98)" d="M 203.841786 185.968896 
L 216.794403 189.994506 
L 216.572881 131.674125 
L 203.243348 127.862778 
z
" style="fill:#d26d48;"/>
    <path clip-path="url(#pc0114f5f98)" d="M 175.173234 195.969799 
L 175.082359 192.309763 
L 188.076878 196.434666 
L 188.144156 200.107676 
z
" style="fill:#10023d;"/>
    <path clip-path="url(#pc0114f5f98)" d="M 203.841786 185.968896 
L 203.236516 127.199418 
L 216.570352 131.008209 
L 216.794403 189.994506 
z
" style="fill:#643421;"/>
    <path clip-path="url(#pc0114f5f98)" d="M 175.173234 195.969799 
L 188.144156 200.107676 
L 188.073549 196.252932 
L 175.077862 192.128673 
z
" style="fill:#230581;"/>
    <path clip-path="url(#pc0114f5f98)" d="M 256.530882 202.34441 
L 256.534413 202.127888 
L 263.820552 194.948376 
L 263.816264 195.163579 
z
" style="fill:#0b0777;"/>
    <path clip-path="url(#pc0114f5f98)" d="M 256.530882 202.34441 
L 263.816264 195.163579 
L 263.832884 194.329608 
L 256.544567 201.505322 
z
" style="fill:#080339;"/>
    <path clip-path="url(#pc0114f5f98)" d="M 224.338378 134.95482 
L 237.667789 138.772144 
L 245.159039 132.187523 
L 231.916715 128.443886 
z
" style="fill:#a64452;"/>
    <path clip-path="url(#pc0114f5f98)" d="M 222.285805 201.224351 
L 222.274613 190.455956 
L 229.921807 183.362885 
L 229.891821 194.06512 
z
" style="fill:#44028e;"/>
    <path clip-path="url(#pc0114f5f98)" d="M 167.010898 203.166503 
L 175.173234 195.969799 
L 175.161732 195.50657 
L 166.997355 202.700433 
z
" style="fill:#070339;"/>
    <path clip-path="url(#pc0114f5f98)" d="M 222.285805 201.224351 
L 229.891821 194.06512 
L 243.136481 198.181496 
L 235.617509 205.421836 
z
" style="fill:#290156;"/>
    <path clip-path="url(#pc0114f5f98)" d="M 167.010898 203.166503 
L 166.903895 199.483958 
L 175.082359 192.309763 
L 175.173234 195.969799 
z
" style="fill:#210581;"/>
    <path clip-path="url(#pc0114f5f98)" d="M 196.068846 192.969946 
L 195.225727 133.824196 
L 203.236516 127.199418 
L 203.841786 185.968896 
z
" style="fill:#d36f46;"/>
    <path clip-path="url(#pc0114f5f98)" d="M 243.136481 198.181496 
L 256.530882 202.34441 
L 256.544567 201.505322 
L 243.144428 197.345366 
z
" style="fill:#110679;"/>
    <path clip-path="url(#pc0114f5f98)" d="M 243.136481 198.181496 
L 243.145757 197.205495 
L 256.546857 201.364955 
L 256.530882 202.34441 
z
" style="fill:#080339;"/>
    <path clip-path="url(#pc0114f5f98)" d="M 256.530882 202.34441 
L 263.816264 195.163579 
L 277.271882 199.292348 
L 270.077576 206.554656 
z
" style="fill:#070448;"/>
    <path clip-path="url(#pc0114f5f98)" d="M 256.534413 202.127888 
L 270.082622 206.337367 
L 277.277665 199.076385 
L 263.820552 194.948376 
z
" style="fill:#0a0667;"/>
    <path clip-path="url(#pc0114f5f98)" d="M 154.105465 198.994368 
L 167.010898 203.166503 
L 166.997355 202.700433 
L 154.088968 198.529941 
z
" style="fill:#0e0678;"/>
    <path clip-path="url(#pc0114f5f98)" d="M 167.010898 203.166503 
L 175.173234 195.969799 
L 188.144156 200.107676 
L 180.063228 207.386128 
z
" style="fill:#14034e;"/>
    <path clip-path="url(#pc0114f5f98)" d="M 235.617509 205.421836 
L 235.623129 204.439843 
L 243.145757 197.205495 
L 243.136481 198.181496 
z
" style="fill:#110679;"/>
    <path clip-path="url(#pc0114f5f98)" d="M 229.891821 194.06512 
L 237.351973 187.043183 
L 237.773187 122.662585 
L 230.073368 129.270394 
z
" style="fill:#673d1b;"/>
    <path clip-path="url(#pc0114f5f98)" d="M 201.262108 204.292457 
L 209.103753 197.073984 
L 222.285805 201.224351 
L 214.529606 208.524945 
z
" style="fill:#808512;"/>
    <path clip-path="url(#pc0114f5f98)" d="M 270.077576 206.554656 
L 277.271882 199.292348 
L 277.277665 199.076385 
L 270.082622 206.337367 
z
" style="fill:#050338;"/>
    <path clip-path="url(#pc0114f5f98)" d="M 166.903895 199.483958 
L 179.980116 203.690506 
L 188.076878 196.434666 
L 175.082359 192.309763 
z
" style="fill:#1d0470;"/>
    <path clip-path="url(#pc0114f5f98)" d="M 222.274613 190.455956 
L 235.679361 194.614999 
L 243.238557 187.441128 
L 229.921807 183.362885 
z
" style="fill:#3b027b;"/>
    <path clip-path="url(#pc0114f5f98)" d="M 235.617509 205.421836 
L 243.136481 198.181496 
L 243.238557 187.441128 
L 235.679361 194.614999 
z
" style="fill:#200143;"/>
    <path clip-path="url(#pc0114f5f98)" d="M 235.617509 205.421836 
L 243.136481 198.181496 
L 256.530882 202.34441 
L 249.101427 209.667246 
z
" style="fill:#0a0449;"/>
    <path clip-path="url(#pc0114f5f98)" d="M 216.794403 189.994506 
L 229.891821 194.06512 
L 230.073368 129.270394 
L 216.5492 125.439345 
z
" style="fill:#db823a;"/>
    <path clip-path="url(#pc0114f5f98)" d="M 235.623129 204.439843 
L 249.113837 208.681772 
L 256.546857 201.364955 
L 243.145757 197.205495 
z
" style="fill:#0f0569;"/>
    <path clip-path="url(#pc0114f5f98)" d="M 180.063228 207.386128 
L 188.144156 200.107676 
L 188.076878 196.434666 
L 179.980116 203.690506 
z
" style="fill:#10023d;"/>
    <path clip-path="url(#pc0114f5f98)" d="M 209.103753 197.073984 
L 216.794403 189.994506 
L 216.570352 131.008209 
L 208.646764 137.709423 
z
" style="fill:#643421;"/>
    <path clip-path="url(#pc0114f5f98)" d="M 256.530882 202.34441 
L 270.077576 206.554656 
L 270.082622 206.337367 
L 256.534413 202.127888 
z
" style="fill:#0b0777;"/>
    <path clip-path="url(#pc0114f5f98)" d="M 256.530882 202.34441 
L 256.536383 202.007107 
L 270.085437 206.216159 
L 270.077576 206.554656 
z
" style="fill:#050338;"/>
    <path clip-path="url(#pc0114f5f98)" d="M 222.285805 201.224351 
L 235.617509 205.421836 
L 235.679361 194.614999 
L 222.274613 190.455956 
z
" style="fill:#44028e;"/>
    <path clip-path="url(#pc0114f5f98)" d="M 196.068846 192.969946 
L 195.259068 136.163065 
L 208.664838 140.057322 
L 209.103753 197.073984 
z
" style="fill:#623124;"/>
    <path clip-path="url(#pc0114f5f98)" d="M 203.243348 127.862778 
L 216.572881 131.674125 
L 224.338378 125.100058 
L 211.095164 121.362938 
z
" style="fill:#b65e3e;"/>
    <path clip-path="url(#pc0114f5f98)" d="M 180.063228 207.386128 
L 188.144156 200.107676 
L 201.262108 204.292457 
L 193.264978 211.654059 
z
" style="fill:#702b3c;"/>
    <path clip-path="url(#pc0114f5f98)" d="M 167.010898 203.166503 
L 180.063228 207.386128 
L 179.980116 203.690506 
L 166.903895 199.483958 
z
" style="fill:#210581;"/>
    <path clip-path="url(#pc0114f5f98)" d="M 196.068846 192.969946 
L 209.103753 197.073984 
L 208.646764 137.709423 
L 195.225727 133.824196 
z
" style="fill:#d36f46;"/>
    <path clip-path="url(#pc0114f5f98)" d="M 249.101427 209.667246 
L 249.1057 209.327871 
L 256.536383 202.007107 
L 256.530882 202.34441 
z
" style="fill:#0b0777;"/>
    <path clip-path="url(#pc0114f5f98)" d="M 222.285805 201.224351 
L 222.27005 186.065848 
L 235.704579 190.209026 
L 235.617509 205.421836 
z
" style="fill:#280045;"/>
    <path clip-path="url(#pc0114f5f98)" d="M 249.101427 209.667246 
L 256.530882 202.34441 
L 256.546857 201.364955 
L 249.113837 208.681772 
z
" style="fill:#080339;"/>
    <path clip-path="url(#pc0114f5f98)" d="M 216.794403 189.994506 
L 216.494561 111.054564 
L 230.11383 114.829023 
L 229.891821 194.06512 
z
" style="fill:#69560f;"/>
    <path clip-path="url(#pc0114f5f98)" d="M 214.529606 208.524945 
L 222.285805 201.224351 
L 235.617509 205.421836 
L 227.94922 212.80596 
z
" style="fill:#340059;"/>
    <path clip-path="url(#pc0114f5f98)" d="M 188.144156 200.107676 
L 187.096962 142.936749 
L 195.259068 136.163065 
L 196.068846 192.969946 
z
" style="fill:#cf674c;"/>
    <path clip-path="url(#pc0114f5f98)" d="M 235.617509 205.421836 
L 249.101427 209.667246 
L 249.113837 208.681772 
L 235.623129 204.439843 
z
" style="fill:#110679;"/>
    <path clip-path="url(#pc0114f5f98)" d="M 214.529606 208.524945 
L 214.453568 193.27222 
L 222.27005 186.065848 
L 222.285805 201.224351 
z
" style="fill:#560093;"/>
    <path clip-path="url(#pc0114f5f98)" d="M 235.617509 205.421836 
L 235.626215 203.900775 
L 249.120649 208.140789 
L 249.101427 209.667246 
z
" style="fill:#0a033a;"/>
    <path clip-path="url(#pc0114f5f98)" d="M 249.101427 209.667246 
L 256.530882 202.34441 
L 270.077576 206.554656 
L 262.740181 213.961405 
z
" style="fill:#070448;"/>
    <path clip-path="url(#pc0114f5f98)" d="M 209.103753 197.073984 
L 208.492116 117.620058 
L 216.494561 111.054564 
L 216.794403 189.994506 
z
" style="fill:#dfb621;"/>
    <path clip-path="url(#pc0114f5f98)" d="M 249.1057 209.327871 
L 262.746846 213.620827 
L 270.085437 206.216159 
L 256.536383 202.007107 
z
" style="fill:#0a0667;"/>
    <path clip-path="url(#pc0114f5f98)" d="M 227.94922 212.80596 
L 227.952035 211.27554 
L 235.626215 203.900775 
L 235.617509 205.421836 
z
" style="fill:#16067b;"/>
    <path clip-path="url(#pc0114f5f98)" d="M 193.264978 211.654059 
L 201.262108 204.292457 
L 214.529606 208.524945 
L 206.61873 215.971129 
z
" style="fill:#827e15;"/>
    <path clip-path="url(#pc0114f5f98)" d="M 262.740181 213.961405 
L 270.077576 206.554656 
L 270.085437 206.216159 
L 262.746846 213.620827 
z
" style="fill:#050338;"/>
    <path clip-path="url(#pc0114f5f98)" d="M 188.144156 200.107676 
L 187.294257 153.707943 
L 200.717096 157.722369 
L 201.262108 204.292457 
z
" style="fill:#58222f;"/>
    <path clip-path="url(#pc0114f5f98)" d="M 227.94922 212.80596 
L 235.617509 205.421836 
L 249.101427 209.667246 
L 241.523583 217.136342 
z
" style="fill:#0d034a;"/>
    <path clip-path="url(#pc0114f5f98)" d="M 201.262108 204.292457 
L 209.103753 197.073984 
L 208.664838 140.057322 
L 200.590557 146.909855 
z
" style="fill:#623124;"/>
    <path clip-path="url(#pc0114f5f98)" d="M 227.952035 211.27554 
L 241.537056 215.600485 
L 249.120649 208.140789 
L 235.626215 203.900775 
z
" style="fill:#13056b;"/>
    <path clip-path="url(#pc0114f5f98)" d="M 249.101427 209.667246 
L 249.105063 209.378515 
L 262.745851 213.671651 
L 262.740181 213.961405 
z
" style="fill:#050338;"/>
    <path clip-path="url(#pc0114f5f98)" d="M 249.101427 209.667246 
L 262.740181 213.961405 
L 262.746846 213.620827 
L 249.1057 209.327871 
z
" style="fill:#0b0777;"/>
    <path clip-path="url(#pc0114f5f98)" d="M 227.94922 212.80596 
L 235.617509 205.421836 
L 235.704579 190.209026 
L 227.977373 197.498492 
z
" style="fill:#280045;"/>
    <path clip-path="url(#pc0114f5f98)" d="M 216.5492 125.439345 
L 230.073368 129.270394 
L 237.773187 122.662585 
L 224.338378 118.906794 
z
" style="fill:#be7033;"/>
    <path clip-path="url(#pc0114f5f98)" d="M 222.285805 201.224351 
L 229.891821 194.06512 
L 230.11383 114.829023 
L 222.202915 121.47146 
z
" style="fill:#69560f;"/>
    <path clip-path="url(#pc0114f5f98)" d="M 180.063228 207.386128 
L 179.013084 160.690789 
L 187.294257 153.707943 
L 188.144156 200.107676 
z
" style="fill:#ba4763;"/>
    <path clip-path="url(#pc0114f5f98)" d="M 214.453568 193.27222 
L 227.977373 197.498492 
L 235.704579 190.209026 
L 222.27005 186.065848 
z
" style="fill:#4a0080;"/>
    <path clip-path="url(#pc0114f5f98)" d="M 188.144156 200.107676 
L 201.262108 204.292457 
L 200.590557 146.909855 
L 187.096962 142.936749 
z
" style="fill:#cf674c;"/>
    <path clip-path="url(#pc0114f5f98)" d="M 195.225727 133.824196 
L 208.646764 137.709423 
L 216.570352 131.008209 
L 203.236516 127.199418 
z
" style="fill:#b7603d;"/>
    <path clip-path="url(#pc0114f5f98)" d="M 241.523583 217.136342 
L 241.526131 216.845835 
L 249.105063 209.378515 
L 249.101427 209.667246 
z
" style="fill:#0b0777;"/>
    <path clip-path="url(#pc0114f5f98)" d="M 214.529606 208.524945 
L 227.94922 212.80596 
L 227.977373 197.498492 
L 214.453568 193.27222 
z
" style="fill:#560093;"/>
    <path clip-path="url(#pc0114f5f98)" d="M 241.523583 217.136342 
L 249.101427 209.667246 
L 249.120649 208.140789 
L 241.537056 215.600485 
z
" style="fill:#0a033a;"/>
    <path clip-path="url(#pc0114f5f98)" d="M 209.103753 197.073984 
L 222.285805 201.224351 
L 222.202915 121.47146 
L 208.492116 117.620058 
z
" style="fill:#dfb621;"/>
    <path clip-path="url(#pc0114f5f98)" d="M 214.529606 208.524945 
L 214.435512 189.650179 
L 227.984059 193.863252 
L 227.94922 212.80596 
z
" style="fill:#2f0046;"/>
    <path clip-path="url(#pc0114f5f98)" d="M 206.61873 215.971129 
L 214.529606 208.524945 
L 227.94922 212.80596 
L 220.127123 220.338193 
z
" style="fill:#3c005a;"/>
    <path clip-path="url(#pc0114f5f98)" d="M 227.94922 212.80596 
L 241.523583 217.136342 
L 241.537056 215.600485 
L 227.952035 211.27554 
z
" style="fill:#16067b;"/>
    <path clip-path="url(#pc0114f5f98)" d="M 227.94922 212.80596 
L 227.952384 211.085642 
L 241.538728 215.409912 
L 241.523583 217.136342 
z
" style="fill:#0a033a;"/>
    <path clip-path="url(#pc0114f5f98)" d="M 241.523583 217.136342 
L 249.101427 209.667246 
L 262.740181 213.961405 
L 255.255385 221.516949 
z
" style="fill:#070448;"/>
    <path clip-path="url(#pc0114f5f98)" d="M 209.103753 197.073984 
L 208.422991 108.640423 
L 222.193545 112.455764 
L 222.285805 201.224351 
z
" style="fill:#64680e;"/>
    <path clip-path="url(#pc0114f5f98)" d="M 241.526131 216.845835 
L 255.259997 221.22541 
L 262.745851 213.671651 
L 249.105063 209.378515 
z
" style="fill:#0a0667;"/>
    <path clip-path="url(#pc0114f5f98)" d="M 206.61873 215.971129 
L 206.447036 196.978486 
L 214.435512 189.650179 
L 214.529606 208.524945 
z
" style="fill:#640095;"/>
    <path clip-path="url(#pc0114f5f98)" d="M 193.264978 211.654059 
L 201.262108 204.292457 
L 200.717096 157.722369 
L 192.523642 164.786886 
z
" style="fill:#58222f;"/>
    <path clip-path="url(#pc0114f5f98)" d="M 220.127123 220.338193 
L 220.123395 218.607273 
L 227.952384 211.085642 
L 227.94922 212.80596 
z
" style="fill:#16067b;"/>
    <path clip-path="url(#pc0114f5f98)" d="M 201.262108 204.292457 
L 200.220362 115.277443 
L 208.422991 108.640423 
L 209.103753 197.073984 
z
" style="fill:#d4dc1e;"/>
    <path clip-path="url(#pc0114f5f98)" d="M 255.255385 221.516949 
L 262.740181 213.961405 
L 262.745851 213.671651 
L 255.259997 221.22541 
z
" style="fill:#050338;"/>
    <path clip-path="url(#pc0114f5f98)" d="M 180.063228 207.386128 
L 193.264978 211.654059 
L 192.523642 164.786886 
L 179.013084 160.690789 
z
" style="fill:#ba4763;"/>
    <path clip-path="url(#pc0114f5f98)" d="M 220.127123 220.338193 
L 227.94922 212.80596 
L 241.523583 217.136342 
L 233.792858 224.756123 
z
" style="fill:#0d034a;"/>
    <path clip-path="url(#pc0114f5f98)" d="M 241.523583 217.136342 
L 255.255385 221.516949 
L 255.259997 221.22541 
L 241.526131 216.845835 
z
" style="fill:#0b0777;"/>
    <path clip-path="url(#pc0114f5f98)" d="M 241.523583 217.136342 
L 241.527805 216.654962 
L 255.263027 221.033859 
L 255.255385 221.516949 
z
" style="fill:#070339;"/>
    <path clip-path="url(#pc0114f5f98)" d="M 220.123395 218.607273 
L 233.801275 223.019047 
L 241.538728 215.409912 
L 227.952384 211.085642 
z
" style="fill:#13056b;"/>
    <path clip-path="url(#pc0114f5f98)" d="M 187.096962 142.936749 
L 200.590557 146.909855 
L 208.664838 140.057322 
L 195.259068 136.163065 
z
" style="fill:#b45a42;"/>
    <path clip-path="url(#pc0114f5f98)" d="M 220.127123 220.338193 
L 227.94922 212.80596 
L 227.984059 193.863252 
L 220.086079 201.277069 
z
" style="fill:#2f0046;"/>
    <path clip-path="url(#pc0114f5f98)" d="M 233.792858 224.756123 
L 233.795205 224.271778 
L 241.527805 216.654962 
L 241.523583 217.136342 
z
" style="fill:#0e0678;"/>
    <path clip-path="url(#pc0114f5f98)" d="M 233.792858 224.756123 
L 241.523583 217.136342 
L 241.538728 215.409912 
L 233.801275 223.019047 
z
" style="fill:#0a033a;"/>
    <path clip-path="url(#pc0114f5f98)" d="M 214.529606 208.524945 
L 222.285805 201.224351 
L 222.193545 112.455764 
L 214.084164 119.171711 
z
" style="fill:#64680e;"/>
    <path clip-path="url(#pc0114f5f98)" d="M 206.447036 196.978486 
L 220.086079 201.277069 
L 227.984059 193.863252 
L 214.435512 189.650179 
z
" style="fill:#560081;"/>
    <path clip-path="url(#pc0114f5f98)" d="M 206.61873 215.971129 
L 220.127123 220.338193 
L 220.086079 201.277069 
L 206.447036 196.978486 
z
" style="fill:#640095;"/>
    <path clip-path="url(#pc0114f5f98)" d="M 201.262108 204.292457 
L 200.251892 117.971648 
L 214.097649 121.876828 
L 214.529606 208.524945 
z
" style="fill:#666310;"/>
    <path clip-path="url(#pc0114f5f98)" d="M 220.127123 220.338193 
L 233.792858 224.756123 
L 233.801275 223.019047 
L 220.123395 218.607273 
z
" style="fill:#16067b;"/>
    <path clip-path="url(#pc0114f5f98)" d="M 233.792858 224.756123 
L 241.523583 217.136342 
L 255.255385 221.516949 
L 247.618703 229.225814 
z
" style="fill:#090449;"/>
    <path clip-path="url(#pc0114f5f98)" d="M 201.262108 204.292457 
L 214.529606 208.524945 
L 214.084164 119.171711 
L 200.220362 115.277443 
z
" style="fill:#d4dc1e;"/>
    <path clip-path="url(#pc0114f5f98)" d="M 233.795205 224.271778 
L 247.624515 228.739747 
L 255.263027 221.033859 
L 241.527805 216.654962 
z
" style="fill:#0c0668;"/>
    <path clip-path="url(#pc0114f5f98)" d="M 179.013084 160.690789 
L 192.523642 164.786886 
L 200.717096 157.722369 
L 187.294257 153.707943 
z
" style="fill:#a23e56;"/>
    <path clip-path="url(#pc0114f5f98)" d="M 193.264978 211.654059 
L 191.890587 124.765214 
L 200.251892 117.971648 
L 201.262108 204.292457 
z
" style="fill:#d8d122;"/>
    <path clip-path="url(#pc0114f5f98)" d="M 208.492116 117.620058 
L 222.202915 121.47146 
L 230.11383 114.829023 
L 216.494561 111.054564 
z
" style="fill:#c19e1c;"/>
    <path clip-path="url(#pc0114f5f98)" d="M 247.618703 229.225814 
L 255.255385 221.516949 
L 255.263027 221.033859 
L 247.624515 228.739747 
z
" style="fill:#070339;"/>
    <path clip-path="url(#pc0114f5f98)" d="M 233.792858 224.756123 
L 247.618703 229.225814 
L 247.624515 228.739747 
L 233.795205 224.271778 
z
" style="fill:#0e0678;"/>
    <path clip-path="url(#pc0114f5f98)" d="M 206.61873 215.971129 
L 214.529606 208.524945 
L 214.097649 121.876828 
L 205.830268 128.751916 
z
" style="fill:#666310;"/>
    <path clip-path="url(#pc0114f5f98)" d="M 193.264978 211.654059 
L 206.61873 215.971129 
L 205.830268 128.751916 
L 191.890587 124.765214 
z
" style="fill:#d8d122;"/>
    <path clip-path="url(#pc0114f5f98)" d="M 200.220362 115.277443 
L 214.084164 119.171711 
L 222.193545 112.455764 
L 208.422991 108.640423 
z
" style="fill:#b8bf1a;"/>
    <path clip-path="url(#pc0114f5f98)" d="M 191.890587 124.765214 
L 205.830268 128.751916 
L 214.097649 121.876828 
L 200.251892 117.971648 
z
" style="fill:#bbb51e;"/>
   </g>
   <g id="text_17">
    <!-- W45__H15__A350_bars_extracted.txt -->
    <g transform="translate(110.101875 28.56)scale(0.12 -0.12)">
     <defs>
      <path d="M 3.328125 72.90625 
L 13.28125 72.90625 
L 28.609375 11.28125 
L 43.890625 72.90625 
L 54.984375 72.90625 
L 70.3125 11.28125 
L 85.59375 72.90625 
L 95.609375 72.90625 
L 77.296875 0 
L 64.890625 0 
L 49.515625 63.28125 
L 33.984375 0 
L 21.578125 0 
z
" id="DejaVuSans-87"/>
      <path d="M 50.984375 -16.609375 
L 50.984375 -23.578125 
L -0.984375 -23.578125 
L -0.984375 -16.609375 
z
" id="DejaVuSans-95"/>
      <path d="M 9.8125 72.90625 
L 19.671875 72.90625 
L 19.671875 43.015625 
L 55.515625 43.015625 
L 55.515625 72.90625 
L 65.375 72.90625 
L 65.375 0 
L 55.515625 0 
L 55.515625 34.71875 
L 19.671875 34.71875 
L 19.671875 0 
L 9.8125 0 
z
" id="DejaVuSans-72"/>
      <path d="M 34.1875 63.1875 
L 20.796875 26.90625 
L 47.609375 26.90625 
z
M 28.609375 72.90625 
L 39.796875 72.90625 
L 67.578125 0 
L 57.328125 0 
L 50.6875 18.703125 
L 17.828125 18.703125 
L 11.1875 0 
L 0.78125 0 
z
" id="DejaVuSans-65"/>
      <path d="M 48.6875 27.296875 
Q 48.6875 37.203125 44.609375 42.84375 
Q 40.53125 48.484375 33.40625 48.484375 
Q 26.265625 48.484375 22.1875 42.84375 
Q 18.109375 37.203125 18.109375 27.296875 
Q 18.109375 17.390625 22.1875 11.75 
Q 26.265625 6.109375 33.40625 6.109375 
Q 40.53125 6.109375 44.609375 11.75 
Q 48.6875 17.390625 48.6875 27.296875 
z
M 18.109375 46.390625 
Q 20.953125 51.265625 25.265625 53.625 
Q 29.59375 56 35.59375 56 
Q 45.5625 56 51.78125 48.09375 
Q 58.015625 40.1875 58.015625 27.296875 
Q 58.015625 14.40625 51.78125 6.484375 
Q 45.5625 -1.421875 35.59375 -1.421875 
Q 29.59375 -1.421875 25.265625 0.953125 
Q 20.953125 3.328125 18.109375 8.203125 
L 18.109375 0 
L 9.078125 0 
L 9.078125 75.984375 
L 18.109375 75.984375 
z
" id="DejaVuSans-98"/>
      <path d="M 34.28125 27.484375 
Q 23.390625 27.484375 19.1875 25 
Q 14.984375 22.515625 14.984375 16.5 
Q 14.984375 11.71875 18.140625 8.90625 
Q 21.296875 6.109375 26.703125 6.109375 
Q 34.1875 6.109375 38.703125 11.40625 
Q 43.21875 16.703125 43.21875 25.484375 
L 43.21875 27.484375 
z
M 52.203125 31.203125 
L 52.203125 0 
L 43.21875 0 
L 43.21875 8.296875 
Q 40.140625 3.328125 35.546875 0.953125 
Q 30.953125 -1.421875 24.3125 -1.421875 
Q 15.921875 -1.421875 10.953125 3.296875 
Q 6 8.015625 6 15.921875 
Q 6 25.140625 12.171875 29.828125 
Q 18.359375 34.515625 30.609375 34.515625 
L 43.21875 34.515625 
L 43.21875 35.40625 
Q 43.21875 41.609375 39.140625 45 
Q 35.0625 48.390625 27.6875 48.390625 
Q 23 48.390625 18.546875 47.265625 
Q 14.109375 46.140625 10.015625 43.890625 
L 10.015625 52.203125 
Q 14.9375 54.109375 19.578125 55.046875 
Q 24.21875 56 28.609375 56 
Q 40.484375 56 46.34375 49.84375 
Q 52.203125 43.703125 52.203125 31.203125 
z
" id="DejaVuSans-97"/>
      <path d="M 41.109375 46.296875 
Q 39.59375 47.171875 37.8125 47.578125 
Q 36.03125 48 33.890625 48 
Q 26.265625 48 22.1875 43.046875 
Q 18.109375 38.09375 18.109375 28.8125 
L 18.109375 0 
L 9.078125 0 
L 9.078125 54.6875 
L 18.109375 54.6875 
L 18.109375 46.1875 
Q 20.953125 51.171875 25.484375 53.578125 
Q 30.03125 56 36.53125 56 
Q 37.453125 56 38.578125 55.875 
Q 39.703125 55.765625 41.0625 55.515625 
z
" id="DejaVuSans-114"/>
      <path d="M 44.28125 53.078125 
L 44.28125 44.578125 
Q 40.484375 46.53125 36.375 47.5 
Q 32.28125 48.484375 27.875 48.484375 
Q 21.1875 48.484375 17.84375 46.4375 
Q 14.5 44.390625 14.5 40.28125 
Q 14.5 37.15625 16.890625 35.375 
Q 19.28125 33.59375 26.515625 31.984375 
L 29.59375 31.296875 
Q 39.15625 29.25 43.1875 25.515625 
Q 47.21875 21.78125 47.21875 15.09375 
Q 47.21875 7.46875 41.1875 3.015625 
Q 35.15625 -1.421875 24.609375 -1.421875 
Q 20.21875 -1.421875 15.453125 -0.5625 
Q 10.6875 0.296875 5.421875 2 
L 5.421875 11.28125 
Q 10.40625 8.6875 15.234375 7.390625 
Q 20.0625 6.109375 24.8125 6.109375 
Q 31.15625 6.109375 34.5625 8.28125 
Q 37.984375 10.453125 37.984375 14.40625 
Q 37.984375 18.0625 35.515625 20.015625 
Q 33.0625 21.96875 24.703125 23.78125 
L 21.578125 24.515625 
Q 13.234375 26.265625 9.515625 29.90625 
Q 5.8125 33.546875 5.8125 39.890625 
Q 5.8125 47.609375 11.28125 51.796875 
Q 16.75 56 26.8125 56 
Q 31.78125 56 36.171875 55.265625 
Q 40.578125 54.546875 44.28125 53.078125 
z
" id="DejaVuSans-115"/>
      <path d="M 56.203125 29.59375 
L 56.203125 25.203125 
L 14.890625 25.203125 
Q 15.484375 15.921875 20.484375 11.0625 
Q 25.484375 6.203125 34.421875 6.203125 
Q 39.59375 6.203125 44.453125 7.46875 
Q 49.3125 8.734375 54.109375 11.28125 
L 54.109375 2.78125 
Q 49.265625 0.734375 44.1875 -0.34375 
Q 39.109375 -1.421875 33.890625 -1.421875 
Q 20.796875 -1.421875 13.15625 6.1875 
Q 5.515625 13.8125 5.515625 26.8125 
Q 5.515625 40.234375 12.765625 48.109375 
Q 20.015625 56 32.328125 56 
Q 43.359375 56 49.78125 48.890625 
Q 56.203125 41.796875 56.203125 29.59375 
z
M 47.21875 32.234375 
Q 47.125 39.59375 43.09375 43.984375 
Q 39.0625 48.390625 32.421875 48.390625 
Q 24.90625 48.390625 20.390625 44.140625 
Q 15.875 39.890625 15.1875 32.171875 
z
" id="DejaVuSans-101"/>
      <path d="M 54.890625 54.6875 
L 35.109375 28.078125 
L 55.90625 0 
L 45.3125 0 
L 29.390625 21.484375 
L 13.484375 0 
L 2.875 0 
L 24.125 28.609375 
L 4.6875 54.6875 
L 15.28125 54.6875 
L 29.78125 35.203125 
L 44.28125 54.6875 
z
" id="DejaVuSans-120"/>
      <path d="M 18.3125 70.21875 
L 18.3125 54.6875 
L 36.8125 54.6875 
L 36.8125 47.703125 
L 18.3125 47.703125 
L 18.3125 18.015625 
Q 18.3125 11.328125 20.140625 9.421875 
Q 21.96875 7.515625 27.59375 7.515625 
L 36.8125 7.515625 
L 36.8125 0 
L 27.59375 0 
Q 17.1875 0 13.234375 3.875 
Q 9.28125 7.765625 9.28125 18.015625 
L 9.28125 47.703125 
L 2.6875 47.703125 
L 2.6875 54.6875 
L 9.28125 54.6875 
L 9.28125 70.21875 
z
" id="DejaVuSans-116"/>
      <path d="M 48.78125 52.59375 
L 48.78125 44.1875 
Q 44.96875 46.296875 41.140625 47.34375 
Q 37.3125 48.390625 33.40625 48.390625 
Q 24.65625 48.390625 19.8125 42.84375 
Q 14.984375 37.3125 14.984375 27.296875 
Q 14.984375 17.28125 19.8125 11.734375 
Q 24.65625 6.203125 33.40625 6.203125 
Q 37.3125 6.203125 41.140625 7.25 
Q 44.96875 8.296875 48.78125 10.40625 
L 48.78125 2.09375 
Q 45.015625 0.34375 40.984375 -0.53125 
Q 36.96875 -1.421875 32.421875 -1.421875 
Q 20.0625 -1.421875 12.78125 6.34375 
Q 5.515625 14.109375 5.515625 27.296875 
Q 5.515625 40.671875 12.859375 48.328125 
Q 20.21875 56 33.015625 56 
Q 37.15625 56 41.109375 55.140625 
Q 45.0625 54.296875 48.78125 52.59375 
z
" id="DejaVuSans-99"/>
      <path d="M 45.40625 46.390625 
L 45.40625 75.984375 
L 54.390625 75.984375 
L 54.390625 0 
L 45.40625 0 
L 45.40625 8.203125 
Q 42.578125 3.328125 38.25 0.953125 
Q 33.9375 -1.421875 27.875 -1.421875 
Q 17.96875 -1.421875 11.734375 6.484375 
Q 5.515625 14.40625 5.515625 27.296875 
Q 5.515625 40.1875 11.734375 48.09375 
Q 17.96875 56 27.875 56 
Q 33.9375 56 38.25 53.625 
Q 42.578125 51.265625 45.40625 46.390625 
z
M 14.796875 27.296875 
Q 14.796875 17.390625 18.875 11.75 
Q 22.953125 6.109375 30.078125 6.109375 
Q 37.203125 6.109375 41.296875 11.75 
Q 45.40625 17.390625 45.40625 27.296875 
Q 45.40625 37.203125 41.296875 42.84375 
Q 37.203125 48.484375 30.078125 48.484375 
Q 22.953125 48.484375 18.875 42.84375 
Q 14.796875 37.203125 14.796875 27.296875 
z
" id="DejaVuSans-100"/>
      <path d="M 10.6875 12.40625 
L 21 12.40625 
L 21 0 
L 10.6875 0 
z
" id="DejaVuSans-46"/>
     </defs>
     <use xlink:href="#DejaVuSans-87"/>
     <use x="98.876953" xlink:href="#DejaVuSans-52"/>
     <use x="162.5" xlink:href="#DejaVuSans-53"/>
     <use x="226.123047" xlink:href="#DejaVuSans-95"/>
     <use x="276.123047" xlink:href="#DejaVuSans-95"/>
     <use x="326.123047" xlink:href="#DejaVuSans-72"/>
     <use x="401.318359" xlink:href="#DejaVuSans-49"/>
     <use x="464.941406" xlink:href="#DejaVuSans-53"/>
     <use x="528.564453" xlink:href="#DejaVuSans-95"/>
     <use x="578.564453" xlink:href="#DejaVuSans-95"/>
     <use x="628.564453" xlink:href="#DejaVuSans-65"/>
     <use x="696.972656" xlink:href="#DejaVuSans-51"/>
     <use x="760.595703" xlink:href="#DejaVuSans-53"/>
     <use x="824.21875" xlink:href="#DejaVuSans-48"/>
     <use x="887.841797" xlink:href="#DejaVuSans-95"/>
     <use x="937.841797" xlink:href="#DejaVuSans-98"/>
     <use x="1001.318359" xlink:href="#DejaVuSans-97"/>
     <use x="1062.597656" xlink:href="#DejaVuSans-114"/>
     <use x="1103.710938" xlink:href="#DejaVuSans-115"/>
     <use x="1155.810547" xlink:href="#DejaVuSans-95"/>
     <use x="1205.810547" xlink:href="#DejaVuSans-101"/>
     <use x="1265.583984" xlink:href="#DejaVuSans-120"/>
     <use x="1324.763672" xlink:href="#DejaVuSans-116"/>
     <use x="1363.972656" xlink:href="#DejaVuSans-114"/>
     <use x="1405.085938" xlink:href="#DejaVuSans-97"/>
     <use x="1466.365234" xlink:href="#DejaVuSans-99"/>
     <use x="1521.345703" xlink:href="#DejaVuSans-116"/>
     <use x="1560.554688" xlink:href="#DejaVuSans-101"/>
     <use x="1622.078125" xlink:href="#DejaVuSans-100"/>
     <use x="1685.554688" xlink:href="#DejaVuSans-46"/>
     <use x="1717.341797" xlink:href="#DejaVuSans-116"/>
     <use x="1756.550781" xlink:href="#DejaVuSans-120"/>
     <use x="1815.730469" xlink:href="#DejaVuSans-116"/>
    </g>
   </g>
  </g>
 </g>
 <defs>
  <clipPath id="pc0114f5f98">
   <rect height="217.44" width="217.44" x="112.68" y="34.56"/>
  </clipPath>
 </defs>
</svg>
