<?xml version="1.0" encoding="utf-8" standalone="no"?>
<!DOCTYPE svg PUBLIC "-//W3C//DTD SVG 1.1//EN"
  "http://www.w3.org/Graphics/SVG/1.1/DTD/svg11.dtd">
<!-- Created with matplotlib (https://matplotlib.org/) -->
<svg height="288pt" version="1.1" viewBox="0 0 432 288" width="432pt" xmlns="http://www.w3.org/2000/svg" xmlns:xlink="http://www.w3.org/1999/xlink">
 <metadata>
  <rdf:RDF xmlns:cc="http://creativecommons.org/ns#" xmlns:dc="http://purl.org/dc/elements/1.1/" xmlns:rdf="http://www.w3.org/1999/02/22-rdf-syntax-ns#">
   <cc:Work>
    <dc:type rdf:resource="http://purl.org/dc/dcmitype/StillImage"/>
    <dc:date>2021-06-13T22:00:09.463493</dc:date>
    <dc:format>image/svg+xml</dc:format>
    <dc:creator>
     <cc:Agent>
      <dc:title>Matplotlib v3.3.4, https://matplotlib.org/</dc:title>
     </cc:Agent>
    </dc:creator>
   </cc:Work>
  </rdf:RDF>
 </metadata>
 <defs>
  <style type="text/css">*{stroke-linecap:butt;stroke-linejoin:round;}</style>
 </defs>
 <g id="figure_1">
  <g id="patch_1">
   <path d="M 0 288 
L 432 288 
L 432 0 
L 0 0 
z
" style="fill:#ffffff;"/>
  </g>
  <g id="patch_2">
   <path d="M 112.68 252 
L 330.12 252 
L 330.12 34.56 
L 112.68 34.56 
z
" style="fill:#ffffff;"/>
  </g>
  <g id="pane3d_1">
   <g id="patch_3">
    <path d="M 129.09822 198.386264 
L 200.904009 138.197228 
L 199.90584 51.393878 
L 124.663773 106.302111 
" style="fill:#f2f2f2;opacity:0.5;stroke:#f2f2f2;stroke-linejoin:miter;"/>
   </g>
  </g>
  <g id="pane3d_2">
   <g id="patch_4">
    <path d="M 200.904009 138.197228 
L 316.12668 171.68791 
L 320.238571 81.894718 
L 199.90584 51.393878 
" style="fill:#e6e6e6;opacity:0.5;stroke:#e6e6e6;stroke-linejoin:miter;"/>
   </g>
  </g>
  <g id="pane3d_3">
   <g id="patch_5">
    <path d="M 129.09822 198.386264 
L 251.239879 238.27773 
L 316.12668 171.68791 
L 200.904009 138.197228 
" style="fill:#ececec;opacity:0.5;stroke:#ececec;stroke-linejoin:miter;"/>
   </g>
  </g>
  <g id="axis3d_1">
   <g id="line2d_1">
    <path d="M 129.09822 198.386264 
L 251.239879 238.27773 
" style="fill:none;stroke:#000000;stroke-linecap:square;stroke-width:0.8;"/>
   </g>
   <g id="Line3DCollection_1">
    <path d="M 136.495759 200.802301 
L 207.911499 140.234029 
L 207.209612 53.245171 
" style="fill:none;stroke:#b0b0b0;stroke-width:0.8;"/>
    <path d="M 162.23134 209.207541 
L 232.260894 147.311436 
L 232.60309 59.681678 
" style="fill:none;stroke:#b0b0b0;stroke-width:0.8;"/>
    <path d="M 188.559037 217.806167 
L 257.123632 154.538053 
L 258.555303 66.259807 
" style="fill:none;stroke:#b0b0b0;stroke-width:0.8;"/>
    <path d="M 215.499525 226.604931 
L 282.516121 161.918647 
L 285.084894 72.984285 
" style="fill:none;stroke:#b0b0b0;stroke-width:0.8;"/>
    <path d="M 243.074449 235.610901 
L 308.455474 169.458193 
L 312.21135 79.860051 
" style="fill:none;stroke:#b0b0b0;stroke-width:0.8;"/>
   </g>
   <g id="xtick_1">
    <g id="line2d_2">
     <path d="M 137.117644 200.274876 
L 135.249322 201.859414 
" style="fill:none;stroke:#000000;stroke-linecap:square;stroke-width:0.8;"/>
    </g>
    <g id="text_1">
     <!-- 0 -->
     <g transform="translate(125.77919 224.124533)scale(0.1 -0.1)">
      <defs>
       <path d="M 31.78125 66.40625 
Q 24.171875 66.40625 20.328125 58.90625 
Q 16.5 51.421875 16.5 36.375 
Q 16.5 21.390625 20.328125 13.890625 
Q 24.171875 6.390625 31.78125 6.390625 
Q 39.453125 6.390625 43.28125 13.890625 
Q 47.125 21.390625 47.125 36.375 
Q 47.125 51.421875 43.28125 58.90625 
Q 39.453125 66.40625 31.78125 66.40625 
z
M 31.78125 74.21875 
Q 44.046875 74.21875 50.515625 64.515625 
Q 56.984375 54.828125 56.984375 36.375 
Q 56.984375 17.96875 50.515625 8.265625 
Q 44.046875 -1.421875 31.78125 -1.421875 
Q 19.53125 -1.421875 13.0625 8.265625 
Q 6.59375 17.96875 6.59375 36.375 
Q 6.59375 54.828125 13.0625 64.515625 
Q 19.53125 74.21875 31.78125 74.21875 
z
" id="DejaVuSans-48"/>
      </defs>
      <use xlink:href="#DejaVuSans-48"/>
     </g>
    </g>
   </g>
   <g id="xtick_2">
    <g id="line2d_3">
     <path d="M 162.841716 208.668056 
L 161.007937 210.288854 
" style="fill:none;stroke:#000000;stroke-linecap:square;stroke-width:0.8;"/>
    </g>
    <g id="text_2">
     <!-- 2 -->
     <g transform="translate(151.547192 232.748132)scale(0.1 -0.1)">
      <defs>
       <path d="M 19.1875 8.296875 
L 53.609375 8.296875 
L 53.609375 0 
L 7.328125 0 
L 7.328125 8.296875 
Q 12.9375 14.109375 22.625 23.890625 
Q 32.328125 33.6875 34.8125 36.53125 
Q 39.546875 41.84375 41.421875 45.53125 
Q 43.3125 49.21875 43.3125 52.78125 
Q 43.3125 58.59375 39.234375 62.25 
Q 35.15625 65.921875 28.609375 65.921875 
Q 23.96875 65.921875 18.8125 64.3125 
Q 13.671875 62.703125 7.8125 59.421875 
L 7.8125 69.390625 
Q 13.765625 71.78125 18.9375 73 
Q 24.125 74.21875 28.421875 74.21875 
Q 39.75 74.21875 46.484375 68.546875 
Q 53.21875 62.890625 53.21875 53.421875 
Q 53.21875 48.921875 51.53125 44.890625 
Q 49.859375 40.875 45.40625 35.40625 
Q 44.1875 33.984375 37.640625 27.21875 
Q 31.109375 20.453125 19.1875 8.296875 
z
" id="DejaVuSans-50"/>
      </defs>
      <use xlink:href="#DejaVuSans-50"/>
     </g>
    </g>
   </g>
   <g id="xtick_3">
    <g id="line2d_4">
     <path d="M 189.15721 217.254202 
L 187.360066 218.91252 
" style="fill:none;stroke:#000000;stroke-linecap:square;stroke-width:0.8;"/>
    </g>
    <g id="text_3">
     <!-- 4 -->
     <g transform="translate(177.91082 241.571064)scale(0.1 -0.1)">
      <defs>
       <path d="M 37.796875 64.3125 
L 12.890625 25.390625 
L 37.796875 25.390625 
z
M 35.203125 72.90625 
L 47.609375 72.90625 
L 47.609375 25.390625 
L 58.015625 25.390625 
L 58.015625 17.1875 
L 47.609375 17.1875 
L 47.609375 0 
L 37.796875 0 
L 37.796875 17.1875 
L 4.890625 17.1875 
L 4.890625 26.703125 
z
" id="DejaVuSans-52"/>
      </defs>
      <use xlink:href="#DejaVuSans-52"/>
     </g>
    </g>
   </g>
   <g id="xtick_4">
    <g id="line2d_5">
     <path d="M 216.084757 226.040048 
L 214.326462 227.737204 
" style="fill:none;stroke:#000000;stroke-linecap:square;stroke-width:0.8;"/>
    </g>
    <g id="text_4">
     <!-- 6 -->
     <g transform="translate(204.890965 250.600322)scale(0.1 -0.1)">
      <defs>
       <path d="M 33.015625 40.375 
Q 26.375 40.375 22.484375 35.828125 
Q 18.609375 31.296875 18.609375 23.390625 
Q 18.609375 15.53125 22.484375 10.953125 
Q 26.375 6.390625 33.015625 6.390625 
Q 39.65625 6.390625 43.53125 10.953125 
Q 47.40625 15.53125 47.40625 23.390625 
Q 47.40625 31.296875 43.53125 35.828125 
Q 39.65625 40.375 33.015625 40.375 
z
M 52.59375 71.296875 
L 52.59375 62.3125 
Q 48.875 64.0625 45.09375 64.984375 
Q 41.3125 65.921875 37.59375 65.921875 
Q 27.828125 65.921875 22.671875 59.328125 
Q 17.53125 52.734375 16.796875 39.40625 
Q 19.671875 43.65625 24.015625 45.921875 
Q 28.375 48.1875 33.59375 48.1875 
Q 44.578125 48.1875 50.953125 41.515625 
Q 57.328125 34.859375 57.328125 23.390625 
Q 57.328125 12.15625 50.6875 5.359375 
Q 44.046875 -1.421875 33.015625 -1.421875 
Q 20.359375 -1.421875 13.671875 8.265625 
Q 6.984375 17.96875 6.984375 36.375 
Q 6.984375 53.65625 15.1875 63.9375 
Q 23.390625 74.21875 37.203125 74.21875 
Q 40.921875 74.21875 44.703125 73.484375 
Q 48.484375 72.75 52.59375 71.296875 
z
" id="DejaVuSans-54"/>
      </defs>
      <use xlink:href="#DejaVuSans-54"/>
     </g>
    </g>
   </g>
   <g id="xtick_5">
    <g id="line2d_6">
     <path d="M 243.645962 235.032643 
L 241.928856 236.770015 
" style="fill:none;stroke:#000000;stroke-linecap:square;stroke-width:0.8;"/>
    </g>
    <g id="text_5">
     <!-- 8 -->
     <g transform="translate(232.509511 259.84323)scale(0.1 -0.1)">
      <defs>
       <path d="M 31.78125 34.625 
Q 24.75 34.625 20.71875 30.859375 
Q 16.703125 27.09375 16.703125 20.515625 
Q 16.703125 13.921875 20.71875 10.15625 
Q 24.75 6.390625 31.78125 6.390625 
Q 38.8125 6.390625 42.859375 10.171875 
Q 46.921875 13.96875 46.921875 20.515625 
Q 46.921875 27.09375 42.890625 30.859375 
Q 38.875 34.625 31.78125 34.625 
z
M 21.921875 38.8125 
Q 15.578125 40.375 12.03125 44.71875 
Q 8.5 49.078125 8.5 55.328125 
Q 8.5 64.0625 14.71875 69.140625 
Q 20.953125 74.21875 31.78125 74.21875 
Q 42.671875 74.21875 48.875 69.140625 
Q 55.078125 64.0625 55.078125 55.328125 
Q 55.078125 49.078125 51.53125 44.71875 
Q 48 40.375 41.703125 38.8125 
Q 48.828125 37.15625 52.796875 32.3125 
Q 56.78125 27.484375 56.78125 20.515625 
Q 56.78125 9.90625 50.3125 4.234375 
Q 43.84375 -1.421875 31.78125 -1.421875 
Q 19.734375 -1.421875 13.25 4.234375 
Q 6.78125 9.90625 6.78125 20.515625 
Q 6.78125 27.484375 10.78125 32.3125 
Q 14.796875 37.15625 21.921875 38.8125 
z
M 18.3125 54.390625 
Q 18.3125 48.734375 21.84375 45.5625 
Q 25.390625 42.390625 31.78125 42.390625 
Q 38.140625 42.390625 41.71875 45.5625 
Q 45.3125 48.734375 45.3125 54.390625 
Q 45.3125 60.0625 41.71875 63.234375 
Q 38.140625 66.40625 31.78125 66.40625 
Q 25.390625 66.40625 21.84375 63.234375 
Q 18.3125 60.0625 18.3125 54.390625 
z
" id="DejaVuSans-56"/>
      </defs>
      <use xlink:href="#DejaVuSans-56"/>
     </g>
    </g>
   </g>
  </g>
  <g id="axis3d_2">
   <g id="line2d_7">
    <path d="M 316.12668 171.68791 
L 251.239879 238.27773 
" style="fill:none;stroke:#000000;stroke-linecap:square;stroke-width:0.8;"/>
   </g>
   <g id="Line3DCollection_2">
    <path d="M 129.866948 102.505071 
L 134.046245 194.238731 
L 255.729543 233.67023 
" style="fill:none;stroke:#b0b0b0;stroke-width:0.8;"/>
    <path d="M 147.250212 89.819556 
L 150.59591 180.366474 
L 270.72626 218.279909 
" style="fill:none;stroke:#b0b0b0;stroke-width:0.8;"/>
    <path d="M 163.958537 77.626582 
L 166.530371 167.009893 
L 285.136664 203.491289 
" style="fill:none;stroke:#b0b0b0;stroke-width:0.8;"/>
    <path d="M 180.030483 65.898008 
L 181.883306 154.140758 
L 298.994481 189.269761 
" style="fill:none;stroke:#b0b0b0;stroke-width:0.8;"/>
    <path d="M 195.501727 54.607799 
L 196.68598 141.732864 
L 312.330896 175.583317 
" style="fill:none;stroke:#b0b0b0;stroke-width:0.8;"/>
   </g>
   <g id="xtick_6">
    <g id="line2d_8">
     <path d="M 254.704115 233.337939 
L 257.783053 234.33567 
" style="fill:none;stroke:#000000;stroke-linecap:square;stroke-width:0.8;"/>
    </g>
    <g id="text_6">
     <!-- 0 -->
     <g transform="translate(265.430654 254.693759)scale(0.1 -0.1)">
      <use xlink:href="#DejaVuSans-48"/>
     </g>
    </g>
   </g>
   <g id="xtick_7">
    <g id="line2d_9">
     <path d="M 269.71494 217.960734 
L 272.751463 218.919068 
" style="fill:none;stroke:#000000;stroke-linecap:square;stroke-width:0.8;"/>
    </g>
    <g id="text_7">
     <!-- 2 -->
     <g transform="translate(280.181112 239.024526)scale(0.1 -0.1)">
      <use xlink:href="#DejaVuSans-50"/>
     </g>
    </g>
   </g>
   <g id="xtick_8">
    <g id="line2d_10">
     <path d="M 284.139145 203.184468 
L 287.134182 204.105694 
" style="fill:none;stroke:#000000;stroke-linecap:square;stroke-width:0.8;"/>
    </g>
    <g id="text_8">
     <!-- 4 -->
     <g transform="translate(294.35448 223.968328)scale(0.1 -0.1)">
      <use xlink:href="#DejaVuSans-52"/>
     </g>
    </g>
   </g>
   <g id="xtick_9">
    <g id="line2d_11">
     <path d="M 298.010457 188.97459 
L 300.964927 189.860821 
" style="fill:none;stroke:#000000;stroke-linecap:square;stroke-width:0.8;"/>
    </g>
    <g id="text_9">
     <!-- 6 -->
     <g transform="translate(307.983974 209.489882)scale(0.1 -0.1)">
      <use xlink:href="#DejaVuSans-54"/>
     </g>
    </g>
   </g>
   <g id="xtick_10">
    <g id="line2d_12">
     <path d="M 311.360068 175.299146 
L 314.274875 176.15234 
" style="fill:none;stroke:#000000;stroke-linecap:square;stroke-width:0.8;"/>
    </g>
    <g id="text_10">
     <!-- 8 -->
     <g transform="translate(321.10031 195.556556)scale(0.1 -0.1)">
      <use xlink:href="#DejaVuSans-56"/>
     </g>
    </g>
   </g>
  </g>
  <g id="axis3d_3">
   <g id="line2d_13">
    <path d="M 316.12668 171.68791 
L 320.238571 81.894718 
" style="fill:none;stroke:#000000;stroke-linecap:square;stroke-width:0.8;"/>
   </g>
   <g id="Line3DCollection_3">
    <path d="M 316.205459 169.967571 
L 200.884845 136.530725 
L 129.013401 196.624949 
" style="fill:none;stroke:#b0b0b0;stroke-width:0.8;"/>
    <path d="M 317.063898 151.221472 
L 200.676126 118.379995 
L 128.088797 177.424962 
" style="fill:none;stroke:#b0b0b0;stroke-width:0.8;"/>
    <path d="M 317.93853 132.121728 
L 200.463659 99.903309 
L 127.146082 157.848866 
" style="fill:none;stroke:#b0b0b0;stroke-width:0.8;"/>
    <path d="M 318.82982 112.658236 
L 200.247342 81.091806 
L 126.184717 137.885501 
" style="fill:none;stroke:#b0b0b0;stroke-width:0.8;"/>
    <path d="M 319.738247 92.820506 
L 200.027069 61.936302 
L 125.204144 117.523261 
" style="fill:none;stroke:#b0b0b0;stroke-width:0.8;"/>
   </g>
   <g id="xtick_11">
    <g id="line2d_14">
     <path d="M 315.237563 169.686933 
L 318.143556 170.529516 
" style="fill:none;stroke:#000000;stroke-linecap:square;stroke-width:0.8;"/>
    </g>
    <g id="text_11">
     <!-- 0 -->
     <g transform="translate(331.275915 174.966846)scale(0.1 -0.1)">
      <use xlink:href="#DejaVuSans-48"/>
     </g>
    </g>
   </g>
   <g id="xtick_12">
    <g id="line2d_15">
     <path d="M 316.086617 150.94571 
L 319.020807 151.773659 
" style="fill:none;stroke:#000000;stroke-linecap:square;stroke-width:0.8;"/>
    </g>
    <g id="text_12">
     <!-- 5000 -->
     <g transform="translate(322.757342 156.265988)scale(0.1 -0.1)">
      <defs>
       <path d="M 10.796875 72.90625 
L 49.515625 72.90625 
L 49.515625 64.59375 
L 19.828125 64.59375 
L 19.828125 46.734375 
Q 21.96875 47.46875 24.109375 47.828125 
Q 26.265625 48.1875 28.421875 48.1875 
Q 40.625 48.1875 47.75 41.5 
Q 54.890625 34.8125 54.890625 23.390625 
Q 54.890625 11.625 47.5625 5.09375 
Q 40.234375 -1.421875 26.90625 -1.421875 
Q 22.3125 -1.421875 17.546875 -0.640625 
Q 12.796875 0.140625 7.71875 1.703125 
L 7.71875 11.625 
Q 12.109375 9.234375 16.796875 8.0625 
Q 21.484375 6.890625 26.703125 6.890625 
Q 35.15625 6.890625 40.078125 11.328125 
Q 45.015625 15.765625 45.015625 23.390625 
Q 45.015625 31 40.078125 35.4375 
Q 35.15625 39.890625 26.703125 39.890625 
Q 22.75 39.890625 18.8125 39.015625 
Q 14.890625 38.140625 10.796875 36.28125 
z
" id="DejaVuSans-53"/>
      </defs>
      <use xlink:href="#DejaVuSans-53"/>
      <use x="63.623047" xlink:href="#DejaVuSans-48"/>
      <use x="127.246094" xlink:href="#DejaVuSans-48"/>
      <use x="190.869141" xlink:href="#DejaVuSans-48"/>
     </g>
    </g>
   </g>
   <g id="xtick_13">
    <g id="line2d_16">
     <path d="M 316.951682 131.851077 
L 319.91462 132.663686 
" style="fill:none;stroke:#000000;stroke-linecap:square;stroke-width:0.8;"/>
    </g>
    <g id="text_13">
     <!-- 10000 -->
     <g transform="translate(320.620537 137.213658)scale(0.1 -0.1)">
      <defs>
       <path d="M 12.40625 8.296875 
L 28.515625 8.296875 
L 28.515625 63.921875 
L 10.984375 60.40625 
L 10.984375 69.390625 
L 28.421875 72.90625 
L 38.28125 72.90625 
L 38.28125 8.296875 
L 54.390625 8.296875 
L 54.390625 0 
L 12.40625 0 
z
" id="DejaVuSans-49"/>
      </defs>
      <use xlink:href="#DejaVuSans-49"/>
      <use x="63.623047" xlink:href="#DejaVuSans-48"/>
      <use x="127.246094" xlink:href="#DejaVuSans-48"/>
      <use x="190.869141" xlink:href="#DejaVuSans-48"/>
      <use x="254.492188" xlink:href="#DejaVuSans-48"/>
     </g>
    </g>
   </g>
   <g id="xtick_14">
    <g id="line2d_17">
     <path d="M 317.833216 112.392942 
L 320.82547 113.189474 
" style="fill:none;stroke:#000000;stroke-linecap:square;stroke-width:0.8;"/>
    </g>
    <g id="text_14">
     <!-- 15000 -->
     <g transform="translate(321.684798 117.799853)scale(0.1 -0.1)">
      <use xlink:href="#DejaVuSans-49"/>
      <use x="63.623047" xlink:href="#DejaVuSans-53"/>
      <use x="127.246094" xlink:href="#DejaVuSans-48"/>
      <use x="190.869141" xlink:href="#DejaVuSans-48"/>
      <use x="254.492188" xlink:href="#DejaVuSans-48"/>
     </g>
    </g>
   </g>
   <g id="xtick_15">
    <g id="line2d_18">
     <path d="M 318.731692 92.560826 
L 321.753847 93.340509 
" style="fill:none;stroke:#000000;stroke-linecap:square;stroke-width:0.8;"/>
    </g>
    <g id="text_15">
     <!-- 20000 -->
     <g transform="translate(322.769444 98.014187)scale(0.1 -0.1)">
      <use xlink:href="#DejaVuSans-50"/>
      <use x="63.623047" xlink:href="#DejaVuSans-48"/>
      <use x="127.246094" xlink:href="#DejaVuSans-48"/>
      <use x="190.869141" xlink:href="#DejaVuSans-48"/>
      <use x="254.492188" xlink:href="#DejaVuSans-48"/>
     </g>
    </g>
   </g>
  </g>
  <g id="axes_1">
   <g id="Poly3DCollection_1">
    <path clip-path="url(#p506841f823)" d="M 203.700438 142.115361 
L 203.615557 133.749814 
L 215.828865 137.272296 
L 215.863902 145.66701 
z
" style="fill:#1a0241;"/>
    <path clip-path="url(#p506841f823)" d="M 196.401162 148.290596 
L 196.285213 139.874434 
L 203.615557 133.749814 
L 203.700438 142.115361 
z
" style="fill:#360389;"/>
    <path clip-path="url(#p506841f823)" d="M 196.401162 148.290596 
L 203.700438 142.115361 
L 215.863902 145.66701 
L 208.637156 151.907182 
z
" style="fill:#210253;"/>
    <path clip-path="url(#p506841f823)" d="M 215.863902 145.66701 
L 215.81869 134.834508 
L 228.175494 138.385531 
L 228.155024 149.255935 
z
" style="fill:#1f0143;"/>
    <path clip-path="url(#p506841f823)" d="M 196.285213 139.874434 
L 208.571646 143.461589 
L 215.828865 137.272296 
L 203.615557 133.749814 
z
" style="fill:#2f0377;"/>
    <path clip-path="url(#p506841f823)" d="M 208.637156 151.907182 
L 215.863902 145.66701 
L 215.828865 137.272296 
L 208.571646 143.461589 
z
" style="fill:#1a0241;"/>
    <path clip-path="url(#p506841f823)" d="M 208.637156 151.907182 
L 215.863902 145.66701 
L 228.155024 149.255935 
L 221.002748 155.562072 
z
" style="fill:#280156;"/>
    <path clip-path="url(#p506841f823)" d="M 208.637156 151.907182 
L 208.552621 141.008906 
L 215.81869 134.834508 
L 215.863902 145.66701 
z
" style="fill:#42028e;"/>
    <path clip-path="url(#p506841f823)" d="M 196.401162 148.290596 
L 208.637156 151.907182 
L 208.571646 143.461589 
L 196.285213 139.874434 
z
" style="fill:#360389;"/>
    <path clip-path="url(#p506841f823)" d="M 228.155024 149.255935 
L 228.176898 137.639926 
L 240.669377 141.22598 
L 240.575825 152.882725 
z
" style="fill:#210143;"/>
    <path clip-path="url(#p506841f823)" d="M 188.96817 154.578956 
L 196.401162 148.290596 
L 208.637156 151.907182 
L 201.27732 158.262275 
z
" style="fill:#3d005a;"/>
    <path clip-path="url(#p506841f823)" d="M 196.401162 148.290596 
L 196.143719 129.604146 
L 208.491699 133.154886 
L 208.637156 151.907182 
z
" style="fill:#300046;"/>
    <path clip-path="url(#p506841f823)" d="M 221.002748 155.562072 
L 228.155024 149.255935 
L 240.575825 152.882725 
L 233.500008 159.25588 
z
" style="fill:#2a0156;"/>
    <path clip-path="url(#p506841f823)" d="M 221.002748 155.562072 
L 228.155024 149.255935 
L 228.175494 138.385531 
L 220.984693 144.625552 
z
" style="fill:#1f0143;"/>
    <path clip-path="url(#p506841f823)" d="M 208.552621 141.008906 
L 220.984693 144.625552 
L 228.175494 138.385531 
L 215.81869 134.834508 
z
" style="fill:#39027b;"/>
    <path clip-path="url(#p506841f823)" d="M 221.002748 155.562072 
L 220.983455 143.875373 
L 228.176898 137.639926 
L 228.155024 149.255935 
z
" style="fill:#45028f;"/>
    <path clip-path="url(#p506841f823)" d="M 188.96817 154.578956 
L 188.639219 135.778239 
L 196.143719 129.604146 
L 196.401162 148.290596 
z
" style="fill:#650095;"/>
    <path clip-path="url(#p506841f823)" d="M 208.637156 151.907182 
L 221.002748 155.562072 
L 220.984693 144.625552 
L 208.552621 141.008906 
z
" style="fill:#42028e;"/>
    <path clip-path="url(#p506841f823)" d="M 240.575825 152.882725 
L 240.662892 142.034009 
L 253.283566 145.661181 
L 253.128369 156.547983 
z
" style="fill:#1f0143;"/>
    <path clip-path="url(#p506841f823)" d="M 201.27732 158.262275 
L 208.637156 151.907182 
L 221.002748 155.562072 
L 213.718049 161.984967 
z
" style="fill:#560f52;"/>
    <path clip-path="url(#p506841f823)" d="M 233.500008 159.25588 
L 240.575825 152.882725 
L 253.128369 156.547983 
L 246.131049 162.989229 
z
" style="fill:#280156;"/>
    <path clip-path="url(#p506841f823)" d="M 233.500008 159.25588 
L 233.549588 148.341073 
L 240.662892 142.034009 
L 240.575825 152.882725 
z
" style="fill:#42028e;"/>
    <path clip-path="url(#p506841f823)" d="M 233.500008 159.25588 
L 240.575825 152.882725 
L 240.669377 141.22598 
L 233.553281 147.528079 
z
" style="fill:#210143;"/>
    <path clip-path="url(#p506841f823)" d="M 220.983455 143.875373 
L 233.553281 147.528079 
L 240.669377 141.22598 
L 228.176898 137.639926 
z
" style="fill:#3c027c;"/>
    <path clip-path="url(#p506841f823)" d="M 201.27732 158.262275 
L 208.637156 151.907182 
L 208.491699 133.154886 
L 201.061696 139.395111 
z
" style="fill:#300046;"/>
    <path clip-path="url(#p506841f823)" d="M 208.637156 151.907182 
L 208.405538 122.046992 
L 220.953278 125.59561 
L 221.002748 155.562072 
z
" style="fill:#440c40;"/>
    <path clip-path="url(#p506841f823)" d="M 221.002748 155.562072 
L 233.500008 159.25588 
L 233.553281 147.528079 
L 220.983455 143.875373 
z
" style="fill:#45028f;"/>
    <path clip-path="url(#p506841f823)" d="M 181.397755 160.983577 
L 188.96817 154.578956 
L 201.27732 158.262275 
L 193.780682 164.735494 
z
" style="fill:#4b0658;"/>
    <path clip-path="url(#p506841f823)" d="M 188.96817 154.578956 
L 201.27732 158.262275 
L 201.061696 139.395111 
L 188.639219 135.778239 
z
" style="fill:#650095;"/>
    <path clip-path="url(#p506841f823)" d="M 188.639219 135.778239 
L 201.061696 139.395111 
L 208.491699 133.154886 
L 196.143719 129.604146 
z
" style="fill:#580081;"/>
    <path clip-path="url(#p506841f823)" d="M 201.27732 158.262275 
L 200.933954 128.217656 
L 208.405538 122.046992 
L 208.637156 151.907182 
z
" style="fill:#8f1988;"/>
    <path clip-path="url(#p506841f823)" d="M 253.128369 156.547983 
L 253.282216 145.75592 
L 266.037589 149.422315 
L 265.814761 160.252323 
z
" style="fill:#1f0143;"/>
    <path clip-path="url(#p506841f823)" d="M 213.718049 161.984967 
L 221.002748 155.562072 
L 233.500008 159.25588 
L 226.292478 165.747667 
z
" style="fill:#571052;"/>
    <path clip-path="url(#p506841f823)" d="M 188.96817 154.578956 
L 188.537038 129.938253 
L 200.994713 133.534106 
L 201.27732 158.262275 
z
" style="fill:#3b0545;"/>
    <path clip-path="url(#p506841f823)" d="M 246.131049 162.989229 
L 253.128369 156.547983 
L 265.814761 160.252323 
L 258.898031 166.762758 
z
" style="fill:#270155;"/>
    <path clip-path="url(#p506841f823)" d="M 246.131049 162.989229 
L 246.248589 152.131319 
L 253.282216 145.75592 
L 253.128369 156.547983 
z
" style="fill:#41028d;"/>
    <path clip-path="url(#p506841f823)" d="M 246.131049 162.989229 
L 253.128369 156.547983 
L 253.283566 145.661181 
L 246.249621 152.035997 
z
" style="fill:#1f0143;"/>
    <path clip-path="url(#p506841f823)" d="M 233.549588 148.341073 
L 246.249621 152.035997 
L 253.283566 145.661181 
L 240.662892 142.034009 
z
" style="fill:#39027b;"/>
    <path clip-path="url(#p506841f823)" d="M 181.397755 160.983577 
L 180.869448 136.191086 
L 188.537038 129.938253 
L 188.96817 154.578956 
z
" style="fill:#7c0a91;"/>
    <path clip-path="url(#p506841f823)" d="M 221.002748 155.562072 
L 220.953023 125.441104 
L 233.637321 129.027508 
L 233.500008 159.25588 
z
" style="fill:#440c40;"/>
    <path clip-path="url(#p506841f823)" d="M 233.500008 159.25588 
L 246.131049 162.989229 
L 246.249621 152.035997 
L 233.549588 148.341073 
z
" style="fill:#42028e;"/>
    <path clip-path="url(#p506841f823)" d="M 193.780682 164.735494 
L 201.27732 158.262275 
L 213.718049 161.984967 
L 206.297214 168.527892 
z
" style="fill:#742f39;"/>
    <path clip-path="url(#p506841f823)" d="M 265.814761 160.252323 
L 266.023668 150.098931 
L 278.912118 153.807244 
L 278.637155 163.996376 
z
" style="fill:#1d0142;"/>
    <path clip-path="url(#p506841f823)" d="M 213.718049 161.984967 
L 221.002748 155.562072 
L 220.953278 125.59561 
L 213.55906 131.833092 
z
" style="fill:#440c40;"/>
    <path clip-path="url(#p506841f823)" d="M 213.718049 161.984967 
L 213.55824 131.677608 
L 220.953023 125.441104 
L 221.002748 155.562072 
z
" style="fill:#901a88;"/>
    <path clip-path="url(#p506841f823)" d="M 226.292478 165.747667 
L 233.500008 159.25588 
L 246.131049 162.989229 
L 239.002775 169.551023 
z
" style="fill:#560f52;"/>
    <path clip-path="url(#p506841f823)" d="M 258.898031 166.762758 
L 259.073731 156.547348 
L 266.023668 150.098931 
L 265.814761 160.252323 
z
" style="fill:#3e038c;"/>
    <path clip-path="url(#p506841f823)" d="M 201.27732 158.262275 
L 213.718049 161.984967 
L 213.55906 131.833092 
L 200.933954 128.217656 
z
" style="fill:#8f1988;"/>
    <path clip-path="url(#p506841f823)" d="M 258.898031 166.762758 
L 265.814761 160.252323 
L 278.637155 163.996376 
L 271.803162 170.57712 
z
" style="fill:#250255;"/>
    <path clip-path="url(#p506841f823)" d="M 258.898031 166.762758 
L 265.814761 160.252323 
L 266.037589 149.422315 
L 259.08544 155.866565 
z
" style="fill:#1f0143;"/>
    <path clip-path="url(#p506841f823)" d="M 246.248589 152.131319 
L 259.08544 155.866565 
L 266.037589 149.422315 
L 253.282216 145.75592 
z
" style="fill:#38027b;"/>
    <path clip-path="url(#p506841f823)" d="M 193.780682 164.735494 
L 201.27732 158.262275 
L 200.994713 133.534106 
L 193.402682 139.854738 
z
" style="fill:#3b0545;"/>
    <path clip-path="url(#p506841f823)" d="M 181.397755 160.983577 
L 180.998426 142.243791 
L 193.49497 145.929294 
L 193.780682 164.735494 
z
" style="fill:#2f0046;"/>
    <path clip-path="url(#p506841f823)" d="M 173.686069 167.507715 
L 181.397755 160.983577 
L 193.780682 164.735494 
L 186.143392 171.330164 
z
" style="fill:#3c005a;"/>
    <path clip-path="url(#p506841f823)" d="M 233.500008 159.25588 
L 233.635674 129.390045 
L 246.45551 133.016743 
L 246.131049 162.989229 
z
" style="fill:#440c40;"/>
    <path clip-path="url(#p506841f823)" d="M 278.637155 163.996376 
L 278.708867 161.338971 
L 291.687058 165.114062 
L 291.597749 167.780781 
z
" style="fill:#0b033b;"/>
    <path clip-path="url(#p506841f823)" d="M 246.131049 162.989229 
L 258.898031 166.762758 
L 259.08544 155.866565 
L 246.248589 152.131319 
z
" style="fill:#41028d;"/>
    <path clip-path="url(#p506841f823)" d="M 206.297214 168.527892 
L 213.718049 161.984967 
L 226.292478 165.747667 
L 218.949524 172.361429 
z
" style="fill:#743038;"/>
    <path clip-path="url(#p506841f823)" d="M 181.397755 160.983577 
L 193.780682 164.735494 
L 193.402682 139.854738 
L 180.869448 136.191086 
z
" style="fill:#7c0a91;"/>
    <path clip-path="url(#p506841f823)" d="M 200.933954 128.217656 
L 213.55906 131.833092 
L 220.953278 125.59561 
L 208.405538 122.046992 
z
" style="fill:#7c1676;"/>
    <path clip-path="url(#p506841f823)" d="M 173.686069 167.507715 
L 173.210588 148.652679 
L 180.998426 142.243791 
L 181.397755 160.983577 
z
" style="fill:#640095;"/>
    <path clip-path="url(#p506841f823)" d="M 226.292478 165.747667 
L 226.321688 135.69675 
L 233.635674 129.390045 
L 233.500008 159.25588 
z
" style="fill:#8f1988;"/>
    <path clip-path="url(#p506841f823)" d="M 271.803162 170.57712 
L 271.866437 167.903553 
L 278.708867 161.338971 
L 278.637155 163.996376 
z
" style="fill:#18057c;"/>
    <path clip-path="url(#p506841f823)" d="M 226.292478 165.747667 
L 233.500008 159.25588 
L 233.637321 129.027508 
L 226.322042 135.331915 
z
" style="fill:#440c40;"/>
    <path clip-path="url(#p506841f823)" d="M 239.002775 169.551023 
L 246.131049 162.989229 
L 258.898031 166.762758 
L 251.851153 173.395697 
z
" style="fill:#591151;"/>
    <path clip-path="url(#p506841f823)" d="M 180.869448 136.191086 
L 193.402682 139.854738 
L 200.994713 133.534106 
L 188.537038 129.938253 
z
" style="fill:#6c087e;"/>
    <path clip-path="url(#p506841f823)" d="M 201.27732 158.262275 
L 200.736697 110.957661 
L 213.467713 114.509309 
L 213.718049 161.984967 
z
" style="fill:#5a252c;"/>
    <path clip-path="url(#p506841f823)" d="M 259.073731 156.547348 
L 272.045783 160.325656 
L 278.912118 153.807244 
L 266.023668 150.098931 
z
" style="fill:#36027a;"/>
    <path clip-path="url(#p506841f823)" d="M 271.803162 170.57712 
L 278.637155 163.996376 
L 278.912118 153.807244 
L 272.045783 160.325656 
z
" style="fill:#1d0142;"/>
    <path clip-path="url(#p506841f823)" d="M 213.718049 161.984967 
L 226.292478 165.747667 
L 226.322042 135.331915 
L 213.55824 131.677608 
z
" style="fill:#901a88;"/>
    <path clip-path="url(#p506841f823)" d="M 271.803162 170.57712 
L 278.637155 163.996376 
L 291.597749 167.780781 
L 284.848695 174.43298 
z
" style="fill:#0e034b;"/>
    <path clip-path="url(#p506841f823)" d="M 193.780682 164.735494 
L 193.057499 117.134032 
L 200.736697 110.957661 
L 201.27732 158.262275 
z
" style="fill:#bf4e5e;"/>
    <path clip-path="url(#p506841f823)" d="M 291.597749 167.780781 
L 291.632032 166.757092 
L 304.739973 170.578918 
L 304.698789 171.606197 
z
" style="fill:#050338;"/>
    <path clip-path="url(#p506841f823)" d="M 186.143392 171.330164 
L 193.780682 164.735494 
L 206.297214 168.527892 
L 198.736391 175.194243 
z
" style="fill:#7f422b;"/>
    <path clip-path="url(#p506841f823)" d="M 271.866437 167.903553 
L 284.929801 171.750018 
L 291.687058 165.114062 
L 278.708867 161.338971 
z
" style="fill:#15056c;"/>
    <path clip-path="url(#p506841f823)" d="M 246.131049 162.989229 
L 246.469045 131.76649 
L 259.436968 135.428228 
L 258.898031 166.762758 
z
" style="fill:#450d3f;"/>
    <path clip-path="url(#p506841f823)" d="M 258.898031 166.762758 
L 271.803162 170.57712 
L 272.045783 160.325656 
L 259.073731 156.547348 
z
" style="fill:#3e038c;"/>
    <path clip-path="url(#p506841f823)" d="M 218.949524 172.361429 
L 226.292478 165.747667 
L 239.002775 169.551023 
L 231.739835 176.23678 
z
" style="fill:#732f39;"/>
    <path clip-path="url(#p506841f823)" d="M 213.55824 131.677608 
L 226.322042 135.331915 
L 233.637321 129.027508 
L 220.953023 125.441104 
z
" style="fill:#7d1776;"/>
    <path clip-path="url(#p506841f823)" d="M 173.686069 167.507715 
L 173.428184 157.28139 
L 185.947873 161.067736 
L 186.143392 171.330164 
z
" style="fill:#1d0142;"/>
    <path clip-path="url(#p506841f823)" d="M 284.848695 174.43298 
L 284.879829 173.403063 
L 291.632032 166.757092 
L 291.597749 167.780781 
z
" style="fill:#0b0777;"/>
    <path clip-path="url(#p506841f823)" d="M 186.143392 171.330164 
L 193.780682 164.735494 
L 193.49497 145.929294 
L 185.78289 152.408121 
z
" style="fill:#2f0046;"/>
    <path clip-path="url(#p506841f823)" d="M 239.002775 169.551023 
L 246.131049 162.989229 
L 246.45551 133.016743 
L 239.22318 139.392479 
z
" style="fill:#440c40;"/>
    <path clip-path="url(#p506841f823)" d="M 284.848695 174.43298 
L 291.597749 167.780781 
L 291.687058 165.114062 
L 284.929801 171.750018 
z
" style="fill:#0b033b;"/>
    <path clip-path="url(#p506841f823)" d="M 239.002775 169.551023 
L 239.232375 138.134282 
L 246.469045 131.76649 
L 246.131049 162.989229 
z
" style="fill:#931c86;"/>
    <path clip-path="url(#p506841f823)" d="M 251.851153 173.395697 
L 258.898031 166.762758 
L 271.803162 170.57712 
L 264.839875 177.282368 
z
" style="fill:#591251;"/>
    <path clip-path="url(#p506841f823)" d="M 213.718049 161.984967 
L 213.465421 114.074615 
L 226.339216 117.663708 
L 226.292478 165.747667 
z
" style="fill:#5b252c;"/>
    <path clip-path="url(#p506841f823)" d="M 165.82912 174.154745 
L 165.528414 163.865773 
L 173.428184 157.28139 
L 173.686069 167.507715 
z
" style="fill:#3e038c;"/>
    <path clip-path="url(#p506841f823)" d="M 173.210588 148.652679 
L 185.78289 152.408121 
L 193.49497 145.929294 
L 180.998426 142.243791 
z
" style="fill:#560081;"/>
    <path clip-path="url(#p506841f823)" d="M 173.686069 167.507715 
L 186.143392 171.330164 
L 185.78289 152.408121 
L 173.210588 148.652679 
z
" style="fill:#640095;"/>
    <path clip-path="url(#p506841f823)" d="M 165.82912 174.154745 
L 173.686069 167.507715 
L 186.143392 171.330164 
L 178.361455 178.049733 
z
" style="fill:#250255;"/>
    <path clip-path="url(#p506841f823)" d="M 226.292478 165.747667 
L 239.002775 169.551023 
L 239.22318 139.392479 
L 226.321688 135.69675 
z
" style="fill:#8f1988;"/>
    <path clip-path="url(#p506841f823)" d="M 271.803162 170.57712 
L 284.848695 174.43298 
L 284.929801 171.750018 
L 271.866437 167.903553 
z
" style="fill:#18057c;"/>
    <path clip-path="url(#p506841f823)" d="M 284.848695 174.43298 
L 291.597749 167.780781 
L 304.698789 171.606197 
L 298.036935 178.33102 
z
" style="fill:#070448;"/>
    <path clip-path="url(#p506841f823)" d="M 284.879829 173.403063 
L 298.075062 177.297484 
L 304.739973 170.578918 
L 291.632032 166.757092 
z
" style="fill:#0a0667;"/>
    <path clip-path="url(#p506841f823)" d="M 206.297214 168.527892 
L 213.718049 161.984967 
L 213.467713 114.509309 
L 205.867891 120.753769 
z
" style="fill:#5a252c;"/>
    <path clip-path="url(#p506841f823)" d="M 206.297214 168.527892 
L 205.863959 120.316245 
L 213.465421 114.074615 
L 213.718049 161.984967 
z
" style="fill:#c04f5d;"/>
    <path clip-path="url(#p506841f823)" d="M 198.736391 175.194243 
L 206.297214 168.527892 
L 218.949524 172.361429 
L 211.467294 179.100638 
z
" style="fill:#855221;"/>
    <path clip-path="url(#p506841f823)" d="M 258.898031 166.762758 
L 259.438317 135.3498 
L 272.549277 139.051494 
L 271.803162 170.57712 
z
" style="fill:#460e3f;"/>
    <path clip-path="url(#p506841f823)" d="M 231.739835 176.23678 
L 239.002775 169.551023 
L 251.851153 173.395697 
L 244.670417 180.154631 
z
" style="fill:#753237;"/>
    <path clip-path="url(#p506841f823)" d="M 226.321688 135.69675 
L 239.22318 139.392479 
L 246.45551 133.016743 
L 233.635674 129.390045 
z
" style="fill:#7c1676;"/>
    <path clip-path="url(#p506841f823)" d="M 271.803162 170.57712 
L 272.131679 156.696289 
L 285.269797 160.502949 
L 284.848695 174.43298 
z
" style="fill:#250145;"/>
    <path clip-path="url(#p506841f823)" d="M 193.780682 164.735494 
L 206.297214 168.527892 
L 205.867891 120.753769 
L 193.057499 117.134032 
z
" style="fill:#bf4e5e;"/>
    <path clip-path="url(#p506841f823)" d="M 298.036935 178.33102 
L 304.698789 171.606197 
L 304.739973 170.578918 
L 298.075062 177.297484 
z
" style="fill:#050338;"/>
    <path clip-path="url(#p506841f823)" d="M 251.851153 173.395697 
L 258.898031 166.762758 
L 259.436968 135.428228 
L 252.284298 141.866147 
z
" style="fill:#450d3f;"/>
    <path clip-path="url(#p506841f823)" d="M 251.851153 173.395697 
L 252.285382 141.787219 
L 259.438317 135.3498 
L 258.898031 166.762758 
z
" style="fill:#941d85;"/>
    <path clip-path="url(#p506841f823)" d="M 264.839875 177.282368 
L 271.803162 170.57712 
L 284.848695 174.43298 
L 277.971253 181.211726 
z
" style="fill:#2f0158;"/>
    <path clip-path="url(#p506841f823)" d="M 226.292478 165.747667 
L 226.33854 118.359024 
L 239.350358 121.990443 
L 239.002775 169.551023 
z
" style="fill:#5a242d;"/>
    <path clip-path="url(#p506841f823)" d="M 264.839875 177.282368 
L 265.122867 163.316162 
L 272.131679 156.696289 
L 271.803162 170.57712 
z
" style="fill:#4d0191;"/>
    <path clip-path="url(#p506841f823)" d="M 165.528414 163.865773 
L 178.12386 167.724345 
L 185.947873 161.067736 
L 173.428184 157.28139 
z
" style="fill:#36027a;"/>
    <path clip-path="url(#p506841f823)" d="M 178.361455 178.049733 
L 186.143392 171.330164 
L 185.947873 161.067736 
L 178.12386 167.724345 
z
" style="fill:#1d0142;"/>
    <path clip-path="url(#p506841f823)" d="M 284.848695 174.43298 
L 298.036935 178.33102 
L 298.075062 177.297484 
L 284.879829 173.403063 
z
" style="fill:#0b0777;"/>
    <path clip-path="url(#p506841f823)" d="M 178.361455 178.049733 
L 186.143392 171.330164 
L 198.736391 175.194243 
L 191.031582 181.987547 
z
" style="fill:#80432b;"/>
    <path clip-path="url(#p506841f823)" d="M 193.780682 164.735494 
L 192.909432 107.387915 
L 205.779976 110.970797 
L 206.297214 168.527892 
z
" style="fill:#633322;"/>
    <path clip-path="url(#p506841f823)" d="M 284.848695 174.43298 
L 284.928836 171.781939 
L 298.135076 175.670651 
L 298.036935 178.33102 
z
" style="fill:#0b033b;"/>
    <path clip-path="url(#p506841f823)" d="M 165.82912 174.154745 
L 165.7025 169.822291 
L 178.261411 173.702017 
L 178.361455 178.049733 
z
" style="fill:#10023d;"/>
    <path clip-path="url(#p506841f823)" d="M 239.002775 169.551023 
L 251.851153 173.395697 
L 252.284298 141.866147 
L 239.232375 138.134282 
z
" style="fill:#931c86;"/>
    <path clip-path="url(#p506841f823)" d="M 218.949524 172.361429 
L 218.821275 124.674394 
L 226.33854 118.359024 
L 226.292478 165.747667 
z
" style="fill:#bf4d5f;"/>
    <path clip-path="url(#p506841f823)" d="M 218.949524 172.361429 
L 226.292478 165.747667 
L 226.339216 117.663708 
L 218.819393 123.974542 
z
" style="fill:#5b252c;"/>
    <path clip-path="url(#p506841f823)" d="M 211.467294 179.100638 
L 218.949524 172.361429 
L 231.739835 176.23678 
L 224.338378 183.050047 
z
" style="fill:#855121;"/>
    <path clip-path="url(#p506841f823)" d="M 165.82912 174.154745 
L 178.361455 178.049733 
L 178.12386 167.724345 
L 165.528414 163.865773 
z
" style="fill:#3e038c;"/>
    <path clip-path="url(#p506841f823)" d="M 186.143392 171.330164 
L 185.043881 113.618961 
L 192.909432 107.387915 
L 193.780682 164.735494 
z
" style="fill:#d26d48;"/>
    <path clip-path="url(#p506841f823)" d="M 277.971253 181.211726 
L 278.042961 178.544498 
L 284.928836 171.781939 
L 284.848695 174.43298 
z
" style="fill:#18057c;"/>
    <path clip-path="url(#p506841f823)" d="M 157.822766 180.928173 
L 157.677448 176.569235 
L 165.7025 169.822291 
L 165.82912 174.154745 
z
" style="fill:#210581;"/>
    <path clip-path="url(#p506841f823)" d="M 244.670417 180.154631 
L 251.851153 173.395697 
L 264.839875 177.282368 
L 257.743589 184.115686 
z
" style="fill:#743038;"/>
    <path clip-path="url(#p506841f823)" d="M 206.297214 168.527892 
L 218.949524 172.361429 
L 218.819393 123.974542 
L 205.863959 120.316245 
z
" style="fill:#c04f5d;"/>
    <path clip-path="url(#p506841f823)" d="M 239.232375 138.134282 
L 252.284298 141.866147 
L 259.436968 135.428228 
L 246.469045 131.76649 
z
" style="fill:#7f1874;"/>
    <path clip-path="url(#p506841f823)" d="M 157.822766 180.928173 
L 165.82912 174.154745 
L 178.361455 178.049733 
L 170.430723 184.897786 
z
" style="fill:#14034e;"/>
    <path clip-path="url(#p506841f823)" d="M 264.839875 177.282368 
L 271.803162 170.57712 
L 272.549277 139.051494 
L 265.482649 145.560201 
z
" style="fill:#460e3f;"/>
    <path clip-path="url(#p506841f823)" d="M 277.971253 181.211726 
L 284.848695 174.43298 
L 298.036935 178.33102 
L 291.24765 185.184478 
z
" style="fill:#0e034b;"/>
    <path clip-path="url(#p506841f823)" d="M 193.057499 117.134032 
L 205.867891 120.753769 
L 213.467713 114.509309 
L 200.736697 110.957661 
z
" style="fill:#a64452;"/>
    <path clip-path="url(#p506841f823)" d="M 239.002775 169.551023 
L 239.363141 120.241416 
L 252.531021 123.906634 
L 251.851153 173.395697 
z
" style="fill:#5c272b;"/>
    <path clip-path="url(#p506841f823)" d="M 277.971253 181.211726 
L 284.848695 174.43298 
L 285.269797 160.502949 
L 278.348069 167.195893 
z
" style="fill:#250145;"/>
    <path clip-path="url(#p506841f823)" d="M 191.031582 181.987547 
L 198.736391 175.194243 
L 211.467294 179.100638 
L 203.841786 185.968896 
z
" style="fill:#876d14;"/>
    <path clip-path="url(#p506841f823)" d="M 278.042961 178.544498 
L 291.337604 182.507844 
L 298.135076 175.670651 
L 284.928836 171.781939 
z
" style="fill:#15056c;"/>
    <path clip-path="url(#p506841f823)" d="M 265.122867 163.316162 
L 278.348069 167.195893 
L 285.269797 160.502949 
L 272.131679 156.696289 
z
" style="fill:#43017e;"/>
    <path clip-path="url(#p506841f823)" d="M 251.851153 173.395697 
L 264.839875 177.282368 
L 265.482649 145.560201 
L 252.285382 141.787219 
z
" style="fill:#941d85;"/>
    <path clip-path="url(#p506841f823)" d="M 157.677448 176.569235 
L 170.312297 180.523456 
L 178.261411 173.702017 
L 165.7025 169.822291 
z
" style="fill:#1d0470;"/>
    <path clip-path="url(#p506841f823)" d="M 231.739835 176.23678 
L 239.002775 169.551023 
L 239.350358 121.990443 
L 231.916966 128.376201 
z
" style="fill:#5a242d;"/>
    <path clip-path="url(#p506841f823)" d="M 224.338378 183.050047 
L 231.739835 176.23678 
L 244.670417 180.154631 
L 237.351973 187.043183 
z
" style="fill:#855320;"/>
    <path clip-path="url(#p506841f823)" d="M 231.739835 176.23678 
L 231.923481 126.615733 
L 239.363141 120.241416 
L 239.002775 169.551023 
z
" style="fill:#c2525b;"/>
    <path clip-path="url(#p506841f823)" d="M 264.839875 177.282368 
L 277.971253 181.211726 
L 278.348069 167.195893 
L 265.122867 163.316162 
z
" style="fill:#4d0191;"/>
    <path clip-path="url(#p506841f823)" d="M 206.297214 168.527892 
L 205.71002 103.186195 
L 218.773148 106.779192 
L 218.949524 172.361429 
z
" style="fill:#68401a;"/>
    <path clip-path="url(#p506841f823)" d="M 198.736391 175.194243 
L 206.297214 168.527892 
L 205.779976 110.970797 
L 197.995262 117.271529 
z
" style="fill:#633322;"/>
    <path clip-path="url(#p506841f823)" d="M 291.24765 185.184478 
L 298.036935 178.33102 
L 298.135076 175.670651 
L 291.337604 182.507844 
z
" style="fill:#0b033b;"/>
    <path clip-path="url(#p506841f823)" d="M 170.430723 184.897786 
L 178.361455 178.049733 
L 178.261411 173.702017 
L 170.312297 180.523456 
z
" style="fill:#10023d;"/>
    <path clip-path="url(#p506841f823)" d="M 257.743589 184.115686 
L 264.839875 177.282368 
L 277.971253 181.211726 
L 270.961723 188.120663 
z
" style="fill:#641c48;"/>
    <path clip-path="url(#p506841f823)" d="M 218.949524 172.361429 
L 231.739835 176.23678 
L 231.916966 128.376201 
L 218.821275 124.674394 
z
" style="fill:#bf4d5f;"/>
    <path clip-path="url(#p506841f823)" d="M 252.285382 141.787219 
L 265.482649 145.560201 
L 272.549277 139.051494 
L 259.438317 135.3498 
z
" style="fill:#801974;"/>
    <path clip-path="url(#p506841f823)" d="M 157.822766 180.928173 
L 157.758592 179.003213 
L 170.378425 182.966042 
L 170.430723 184.897786 
z
" style="fill:#080339;"/>
    <path clip-path="url(#p506841f823)" d="M 170.430723 184.897786 
L 178.361455 178.049733 
L 191.031582 181.987547 
L 183.178635 188.911464 
z
" style="fill:#722d3b;"/>
    <path clip-path="url(#p506841f823)" d="M 198.736391 175.194243 
L 197.894994 109.435072 
L 205.71002 103.186195 
L 206.297214 168.527892 
z
" style="fill:#dc8836;"/>
    <path clip-path="url(#p506841f823)" d="M 186.143392 171.330164 
L 198.736391 175.194243 
L 197.995262 117.271529 
L 185.043881 113.618961 
z
" style="fill:#d26d48;"/>
    <path clip-path="url(#p506841f823)" d="M 186.143392 171.330164 
L 185.034197 113.110655 
L 197.988734 116.761279 
L 198.736391 175.194243 
z
" style="fill:#643421;"/>
    <path clip-path="url(#p506841f823)" d="M 277.971253 181.211726 
L 291.24765 185.184478 
L 291.337604 182.507844 
L 278.042961 178.544498 
z
" style="fill:#18057c;"/>
    <path clip-path="url(#p506841f823)" d="M 157.822766 180.928173 
L 170.430723 184.897786 
L 170.312297 180.523456 
L 157.677448 176.569235 
z
" style="fill:#210581;"/>
    <path clip-path="url(#p506841f823)" d="M 251.851153 173.395697 
L 252.514368 125.118805 
L 265.821655 128.829633 
L 264.839875 177.282368 
z
" style="fill:#5b252c;"/>
    <path clip-path="url(#p506841f823)" d="M 205.863959 120.316245 
L 218.819393 123.974542 
L 226.339216 117.663708 
L 213.465421 114.074615 
z
" style="fill:#a74551;"/>
    <path clip-path="url(#p506841f823)" d="M 277.971253 181.211726 
L 278.130552 175.286541 
L 291.447483 179.238343 
L 291.24765 185.184478 
z
" style="fill:#14023e;"/>
    <path clip-path="url(#p506841f823)" d="M 203.841786 185.968896 
L 211.467294 179.100638 
L 224.338378 183.050047 
L 216.794403 189.994506 
z
" style="fill:#876915;"/>
    <path clip-path="url(#p506841f823)" d="M 149.662704 187.831639 
L 149.589965 185.894908 
L 157.758592 179.003213 
L 157.822766 180.928173 
z
" style="fill:#110679;"/>
    <path clip-path="url(#p506841f823)" d="M 178.361455 178.049733 
L 177.013255 119.459771 
L 185.034197 113.110655 
L 186.143392 171.330164 
z
" style="fill:#d36f46;"/>
    <path clip-path="url(#p506841f823)" d="M 244.670417 180.154631 
L 245.165304 131.572575 
L 252.514368 125.118805 
L 251.851153 173.395697 
z
" style="fill:#c04f5d;"/>
    <path clip-path="url(#p506841f823)" d="M 237.351973 187.043183 
L 244.670417 180.154631 
L 257.743589 184.115686 
L 250.510457 191.080779 
z
" style="fill:#86581d;"/>
    <path clip-path="url(#p506841f823)" d="M 244.670417 180.154631 
L 251.851153 173.395697 
L 252.531021 123.906634 
L 245.177732 130.352456 
z
" style="fill:#5c272b;"/>
    <path clip-path="url(#p506841f823)" d="M 270.961723 188.120663 
L 271.101536 182.159127 
L 278.130552 175.286541 
L 277.971253 181.211726 
z
" style="fill:#2a0484;"/>
    <path clip-path="url(#p506841f823)" d="M 218.949524 172.361429 
L 218.773844 107.038022 
L 231.982486 110.672498 
L 231.739835 176.23678 
z
" style="fill:#683f1a;"/>
    <path clip-path="url(#p506841f823)" d="M 264.839875 177.282368 
L 265.603759 139.583216 
L 278.988463 143.376146 
L 277.971253 181.211726 
z
" style="fill:#4e1638;"/>
    <path clip-path="url(#p506841f823)" d="M 149.662704 187.831639 
L 157.822766 180.928173 
L 170.430723 184.897786 
L 162.346885 191.878042 
z
" style="fill:#0a0449;"/>
    <path clip-path="url(#p506841f823)" d="M 270.961723 188.120663 
L 277.971253 181.211726 
L 291.24765 185.184478 
L 284.327244 192.170297 
z
" style="fill:#190350;"/>
    <path clip-path="url(#p506841f823)" d="M 149.589965 185.894908 
L 162.286164 189.934471 
L 170.378425 182.966042 
L 157.758592 179.003213 
z
" style="fill:#0f0569;"/>
    <path clip-path="url(#p506841f823)" d="M 231.739835 176.23678 
L 244.670417 180.154631 
L 245.177732 130.352456 
L 231.923481 126.615733 
z
" style="fill:#c2525b;"/>
    <path clip-path="url(#p506841f823)" d="M 211.467294 179.100638 
L 211.043578 113.359183 
L 218.773844 107.038022 
L 218.949524 172.361429 
z
" style="fill:#dc8637;"/>
    <path clip-path="url(#p506841f823)" d="M 183.178635 188.911464 
L 191.031582 181.987547 
L 203.841786 185.968896 
L 196.068846 192.969946 
z
" style="fill:#857613;"/>
    <path clip-path="url(#p506841f823)" d="M 211.467294 179.100638 
L 218.949524 172.361429 
L 218.773148 106.779192 
L 211.041899 113.098615 
z
" style="fill:#68401a;"/>
    <path clip-path="url(#p506841f823)" d="M 257.743589 184.115686 
L 258.379764 146.179786 
L 265.603759 139.583216 
L 264.839875 177.282368 
z
" style="fill:#a62f77;"/>
    <path clip-path="url(#p506841f823)" d="M 218.821275 124.674394 
L 231.916966 128.376201 
L 239.350358 121.990443 
L 226.33854 118.359024 
z
" style="fill:#a64352;"/>
    <path clip-path="url(#p506841f823)" d="M 178.361455 178.049733 
L 177.279799 131.043228 
L 190.243595 134.809674 
L 191.031582 181.987547 
z
" style="fill:#59232e;"/>
    <path clip-path="url(#p506841f823)" d="M 216.794403 189.994506 
L 224.338378 183.050047 
L 237.351973 187.043183 
L 229.891821 194.06512 
z
" style="fill:#876a15;"/>
    <path clip-path="url(#p506841f823)" d="M 162.346885 191.878042 
L 170.430723 184.897786 
L 170.378425 182.966042 
L 162.286164 189.934471 
z
" style="fill:#080339;"/>
    <path clip-path="url(#p506841f823)" d="M 271.101536 182.159127 
L 284.508144 186.187636 
L 291.447483 179.238343 
L 278.130552 175.286541 
z
" style="fill:#240473;"/>
    <path clip-path="url(#p506841f823)" d="M 198.736391 175.194243 
L 211.467294 179.100638 
L 211.041899 113.098615 
L 197.894994 109.435072 
z
" style="fill:#dc8836;"/>
    <path clip-path="url(#p506841f823)" d="M 191.031582 181.987547 
L 198.736391 175.194243 
L 197.988734 116.761279 
L 190.049386 123.182115 
z
" style="fill:#643421;"/>
    <path clip-path="url(#p506841f823)" d="M 257.743589 184.115686 
L 264.839875 177.282368 
L 265.821655 128.829633 
L 258.561273 135.356164 
z
" style="fill:#5b252c;"/>
    <path clip-path="url(#p506841f823)" d="M 250.510457 191.080779 
L 257.743589 184.115686 
L 270.961723 188.120663 
L 263.816264 195.163579 
z
" style="fill:#834c25;"/>
    <path clip-path="url(#p506841f823)" d="M 284.327244 192.170297 
L 291.24765 185.184478 
L 291.447483 179.238343 
L 284.508144 186.187636 
z
" style="fill:#14023e;"/>
    <path clip-path="url(#p506841f823)" d="M 170.430723 184.897786 
L 169.150074 137.59389 
L 177.279799 131.043228 
L 178.361455 178.049733 
z
" style="fill:#bc4a61;"/>
    <path clip-path="url(#p506841f823)" d="M 149.662704 187.831639 
L 149.601677 186.206754 
L 162.295941 190.24742 
L 162.346885 191.878042 
z
" style="fill:#070339;"/>
    <path clip-path="url(#p506841f823)" d="M 231.739835 176.23678 
L 231.986257 109.653522 
L 245.351182 113.325221 
L 244.670417 180.154631 
z
" style="fill:#684119;"/>
    <path clip-path="url(#p506841f823)" d="M 149.662704 187.831639 
L 162.346885 191.878042 
L 162.286164 189.934471 
L 149.589965 185.894908 
z
" style="fill:#110679;"/>
    <path clip-path="url(#p506841f823)" d="M 185.043881 113.618961 
L 197.995262 117.271529 
L 205.779976 110.970797 
L 192.909432 107.387915 
z
" style="fill:#b65e3e;"/>
    <path clip-path="url(#p506841f823)" d="M 162.346885 191.878042 
L 170.430723 184.897786 
L 183.178635 188.911464 
L 175.173234 195.969799 
z
" style="fill:#540d54;"/>
    <path clip-path="url(#p506841f823)" d="M 178.361455 178.049733 
L 191.031582 181.987547 
L 190.049386 123.182115 
L 177.013255 119.459771 
z
" style="fill:#d36f46;"/>
    <path clip-path="url(#p506841f823)" d="M 244.670417 180.154631 
L 257.743589 184.115686 
L 258.561273 135.356164 
L 245.165304 131.572575 
z
" style="fill:#c04f5d;"/>
    <path clip-path="url(#p506841f823)" d="M 198.736391 175.194243 
L 197.747358 97.896673 
L 210.967242 101.515155 
L 211.467294 179.100638 
z
" style="fill:#695510;"/>
    <path clip-path="url(#p506841f823)" d="M 270.961723 188.120663 
L 284.327244 192.170297 
L 284.508144 186.187636 
L 271.101536 182.159127 
z
" style="fill:#2a0484;"/>
    <path clip-path="url(#p506841f823)" d="M 224.338378 183.050047 
L 231.739835 176.23678 
L 231.982486 110.672498 
L 224.338378 117.065419 
z
" style="fill:#683f1a;"/>
    <path clip-path="url(#p506841f823)" d="M 196.068846 192.969946 
L 203.841786 185.968896 
L 216.794403 189.994506 
L 209.103753 197.073984 
z
" style="fill:#857513;"/>
    <path clip-path="url(#p506841f823)" d="M 270.961723 188.120663 
L 277.971253 181.211726 
L 278.988463 143.376146 
L 271.854644 150.04711 
z
" style="fill:#4e1638;"/>
    <path clip-path="url(#p506841f823)" d="M 141.344465 194.868925 
L 141.275982 193.234085 
L 149.601677 186.206754 
L 149.662704 187.831639 
z
" style="fill:#0e0678;"/>
    <path clip-path="url(#p506841f823)" d="M 224.338378 183.050047 
L 224.338378 116.039584 
L 231.986257 109.653522 
L 231.739835 176.23678 
z
" style="fill:#dd8a35;"/>
    <path clip-path="url(#p506841f823)" d="M 170.430723 184.897786 
L 169.623626 155.085677 
L 182.558926 158.991829 
L 183.178635 188.911464 
z
" style="fill:#420b41;"/>
    <path clip-path="url(#p506841f823)" d="M 231.923481 126.615733 
L 245.177732 130.352456 
L 252.531021 123.906634 
L 239.363141 120.241416 
z
" style="fill:#a9474f;"/>
    <path clip-path="url(#p506841f823)" d="M 191.031582 181.987547 
L 189.732175 104.190274 
L 197.747358 97.896673 
L 198.736391 175.194243 
z
" style="fill:#dfb521;"/>
    <path clip-path="url(#p506841f823)" d="M 229.891821 194.06512 
L 237.351973 187.043183 
L 250.510457 191.080779 
L 243.136481 198.181496 
z
" style="fill:#867014;"/>
    <path clip-path="url(#p506841f823)" d="M 211.467294 179.100638 
L 224.338378 183.050047 
L 224.338378 117.065419 
L 211.043578 113.359183 
z
" style="fill:#dc8637;"/>
    <path clip-path="url(#p506841f823)" d="M 257.743589 184.115686 
L 270.961723 188.120663 
L 271.854644 150.04711 
L 258.379764 146.179786 
z
" style="fill:#a62f77;"/>
    <path clip-path="url(#p506841f823)" d="M 141.344465 194.868925 
L 149.662704 187.831639 
L 162.346885 191.878042 
L 154.105465 198.994368 
z
" style="fill:#090449;"/>
    <path clip-path="url(#p506841f823)" d="M 263.816264 195.163579 
L 270.961723 188.120663 
L 284.327244 192.170297 
L 277.271882 199.292348 
z
" style="fill:#3d005a;"/>
    <path clip-path="url(#p506841f823)" d="M 270.961723 188.120663 
L 271.422382 168.478449 
L 284.923298 172.457723 
L 284.327244 192.170297 
z
" style="fill:#300046;"/>
    <path clip-path="url(#p506841f823)" d="M 162.346885 191.878042 
L 161.409664 161.879349 
L 169.623626 155.085677 
L 170.430723 184.897786 
z
" style="fill:#8c168a;"/>
    <path clip-path="url(#p506841f823)" d="M 141.275982 193.234085 
L 154.047186 197.353744 
L 162.295941 190.24742 
L 149.601677 186.206754 
z
" style="fill:#0c0668;"/>
    <path clip-path="url(#p506841f823)" d="M 183.178635 188.911464 
L 191.031582 181.987547 
L 190.243595 134.809674 
L 182.195273 141.434637 
z
" style="fill:#59232e;"/>
    <path clip-path="url(#p506841f823)" d="M 175.173234 195.969799 
L 183.178635 188.911464 
L 196.068846 192.969946 
L 188.144156 200.107676 
z
" style="fill:#867213;"/>
    <path clip-path="url(#p506841f823)" d="M 244.670417 180.154631 
L 245.372839 111.199285 
L 258.904241 114.904556 
L 257.743589 184.115686 
z
" style="fill:#694517;"/>
    <path clip-path="url(#p506841f823)" d="M 211.467294 179.100638 
L 210.978356 103.239633 
L 224.338378 106.906313 
L 224.338378 183.050047 
z
" style="fill:#6a5210;"/>
    <path clip-path="url(#p506841f823)" d="M 263.816264 195.163579 
L 264.210142 175.399281 
L 271.422382 168.478449 
L 270.961723 188.120663 
z
" style="fill:#650095;"/>
    <path clip-path="url(#p506841f823)" d="M 170.430723 184.897786 
L 183.178635 188.911464 
L 182.195273 141.434637 
L 169.150074 137.59389 
z
" style="fill:#bc4a61;"/>
    <path clip-path="url(#p506841f823)" d="M 209.103753 197.073984 
L 216.794403 189.994506 
L 229.891821 194.06512 
L 222.285805 201.224351 
z
" style="fill:#866e14;"/>
    <path clip-path="url(#p506841f823)" d="M 154.105465 198.994368 
L 162.346885 191.878042 
L 162.295941 190.24742 
L 154.047186 197.353744 
z
" style="fill:#070339;"/>
    <path clip-path="url(#p506841f823)" d="M 237.351973 187.043183 
L 244.670417 180.154631 
L 245.351182 113.325221 
L 237.792019 119.784229 
z
" style="fill:#684119;"/>
    <path clip-path="url(#p506841f823)" d="M 237.351973 187.043183 
L 237.806022 117.64392 
L 245.372839 111.199285 
L 244.670417 180.154631 
z
" style="fill:#de9230;"/>
    <path clip-path="url(#p506841f823)" d="M 245.165304 131.572575 
L 258.561273 135.356164 
L 265.821655 128.829633 
L 252.514368 125.118805 
z
" style="fill:#a74551;"/>
    <path clip-path="url(#p506841f823)" d="M 203.841786 185.968896 
L 203.055435 109.617194 
L 210.978356 103.239633 
L 211.467294 179.100638 
z
" style="fill:#e0ae23;"/>
    <path clip-path="url(#p506841f823)" d="M 258.379764 146.179786 
L 271.854644 150.04711 
L 278.988463 143.376146 
L 265.603759 139.583216 
z
" style="fill:#902967;"/>
    <path clip-path="url(#p506841f823)" d="M 162.346885 191.878042 
L 161.930021 178.535028 
L 174.840756 182.579173 
L 175.173234 195.969799 
z
" style="fill:#230144;"/>
    <path clip-path="url(#p506841f823)" d="M 203.841786 185.968896 
L 211.467294 179.100638 
L 210.967242 101.515155 
L 203.037553 107.880915 
z
" style="fill:#695510;"/>
    <path clip-path="url(#p506841f823)" d="M 243.136481 198.181496 
L 250.510457 191.080779 
L 263.816264 195.163579 
L 256.530882 202.34441 
z
" style="fill:#857714;"/>
    <path clip-path="url(#p506841f823)" d="M 197.894994 109.435072 
L 211.041899 113.098615 
L 218.773148 106.779192 
L 205.71002 103.186195 
z
" style="fill:#bf762f;"/>
    <path clip-path="url(#p506841f823)" d="M 141.344465 194.868925 
L 154.105465 198.994368 
L 154.047186 197.353744 
L 141.275982 193.234085 
z
" style="fill:#0e0678;"/>
    <path clip-path="url(#p506841f823)" d="M 224.338378 183.050047 
L 237.351973 187.043183 
L 237.792019 119.784229 
L 224.338378 116.039584 
z
" style="fill:#dd8a35;"/>
    <path clip-path="url(#p506841f823)" d="M 154.105465 198.994368 
L 162.346885 191.878042 
L 175.173234 195.969799 
L 167.010898 203.166503 
z
" style="fill:#2d0157;"/>
    <path clip-path="url(#p506841f823)" d="M 177.013255 119.459771 
L 190.049386 123.182115 
L 197.988734 116.761279 
L 185.034197 113.110655 
z
" style="fill:#b7603d;"/>
    <path clip-path="url(#p506841f823)" d="M 257.743589 184.115686 
L 258.810167 120.514288 
L 272.458855 124.283923 
L 270.961723 188.120663 
z
" style="fill:#673b1d;"/>
    <path clip-path="url(#p506841f823)" d="M 154.105465 198.994368 
L 153.628548 185.568743 
L 161.930021 178.535028 
L 162.346885 191.878042 
z
" style="fill:#4b0190;"/>
    <path clip-path="url(#p506841f823)" d="M 175.173234 195.969799 
L 183.178635 188.911464 
L 182.558926 158.991829 
L 174.4257 165.862645 
z
" style="fill:#420b41;"/>
    <path clip-path="url(#p506841f823)" d="M 191.031582 181.987547 
L 203.841786 185.968896 
L 203.037553 107.880915 
L 189.732175 104.190274 
z
" style="fill:#dfb521;"/>
    <path clip-path="url(#p506841f823)" d="M 188.144156 200.107676 
L 196.068846 192.969946 
L 209.103753 197.073984 
L 201.262108 204.292457 
z
" style="fill:#857613;"/>
    <path clip-path="url(#p506841f823)" d="M 191.031582 181.987547 
L 189.673035 100.649478 
L 203.000942 104.326086 
L 203.841786 185.968896 
z
" style="fill:#685c0f;"/>
    <path clip-path="url(#p506841f823)" d="M 224.338378 183.050047 
L 224.338378 106.27455 
L 237.856157 109.980893 
L 237.351973 187.043183 
z
" style="fill:#695310;"/>
    <path clip-path="url(#p506841f823)" d="M 250.510457 191.080779 
L 251.354409 127.070954 
L 258.810167 120.514288 
L 257.743589 184.115686 
z
" style="fill:#d97e3c;"/>
    <path clip-path="url(#p506841f823)" d="M 277.271882 199.292348 
L 284.327244 192.170297 
L 284.923298 172.457723 
L 277.803013 179.457098 
z
" style="fill:#300046;"/>
    <path clip-path="url(#p506841f823)" d="M 162.346885 191.878042 
L 175.173234 195.969799 
L 174.4257 165.862645 
L 161.409664 161.879349 
z
" style="fill:#8c168a;"/>
    <path clip-path="url(#p506841f823)" d="M 222.285805 201.224351 
L 229.891821 194.06512 
L 243.136481 198.181496 
L 235.617509 205.421836 
z
" style="fill:#808512;"/>
    <path clip-path="url(#p506841f823)" d="M 250.510457 191.080779 
L 257.743589 184.115686 
L 258.904241 114.904556 
L 251.428872 121.423307 
z
" style="fill:#694517;"/>
    <path clip-path="url(#p506841f823)" d="M 183.178635 188.911464 
L 181.482969 107.044491 
L 189.673035 100.649478 
L 191.031582 181.987547 
z
" style="fill:#dcc420;"/>
    <path clip-path="url(#p506841f823)" d="M 216.794403 189.994506 
L 224.338378 183.050047 
L 224.338378 106.906313 
L 216.503308 113.357356 
z
" style="fill:#6a5210;"/>
    <path clip-path="url(#p506841f823)" d="M 216.794403 189.994506 
L 216.500892 112.721263 
L 224.338378 106.27455 
L 224.338378 183.050047 
z
" style="fill:#e0af22;"/>
    <path clip-path="url(#p506841f823)" d="M 169.150074 137.59389 
L 182.195273 141.434637 
L 190.243595 134.809674 
L 177.279799 131.043228 
z
" style="fill:#a44054;"/>
    <path clip-path="url(#p506841f823)" d="M 256.530882 202.34441 
L 263.816264 195.163579 
L 277.271882 199.292348 
L 270.077576 206.554656 
z
" style="fill:#6d2640;"/>
    <path clip-path="url(#p506841f823)" d="M 263.816264 195.163579 
L 277.271882 199.292348 
L 277.803013 179.457098 
L 264.210142 175.399281 
z
" style="fill:#650095;"/>
    <path clip-path="url(#p506841f823)" d="M 264.210142 175.399281 
L 277.803013 179.457098 
L 284.923298 172.457723 
L 271.422382 168.478449 
z
" style="fill:#580081;"/>
    <path clip-path="url(#p506841f823)" d="M 211.043578 113.359183 
L 224.338378 117.065419 
L 231.982486 110.672498 
L 218.773844 107.038022 
z
" style="fill:#bf7530;"/>
    <path clip-path="url(#p506841f823)" d="M 161.409664 161.879349 
L 174.4257 165.862645 
L 182.558926 158.991829 
L 169.623626 155.085677 
z
" style="fill:#791378;"/>
    <path clip-path="url(#p506841f823)" d="M 167.010898 203.166503 
L 175.173234 195.969799 
L 188.144156 200.107676 
L 180.063228 207.386128 
z
" style="fill:#844d24;"/>
    <path clip-path="url(#p506841f823)" d="M 237.351973 187.043183 
L 250.510457 191.080779 
L 251.428872 121.423307 
L 237.806022 117.64392 
z
" style="fill:#de9230;"/>
    <path clip-path="url(#p506841f823)" d="M 203.841786 185.968896 
L 216.794403 189.994506 
L 216.503308 113.357356 
L 203.055435 109.617194 
z
" style="fill:#e0ae23;"/>
    <path clip-path="url(#p506841f823)" d="M 167.010898 203.166503 
L 175.173234 195.969799 
L 174.840756 182.579173 
L 166.619397 189.692875 
z
" style="fill:#230144;"/>
    <path clip-path="url(#p506841f823)" d="M 153.628548 185.568743 
L 166.619397 189.692875 
L 174.840756 182.579173 
L 161.930021 178.535028 
z
" style="fill:#41017d;"/>
    <path clip-path="url(#p506841f823)" d="M 201.262108 204.292457 
L 209.103753 197.073984 
L 222.285805 201.224351 
L 214.529606 208.524945 
z
" style="fill:#847914;"/>
    <path clip-path="url(#p506841f823)" d="M 203.841786 185.968896 
L 203.005025 104.722532 
L 216.484642 108.44328 
L 216.794403 189.994506 
z
" style="fill:#685c0f;"/>
    <path clip-path="url(#p506841f823)" d="M 263.816264 195.163579 
L 270.961723 188.120663 
L 272.458855 124.283923 
L 265.096636 130.91622 
z
" style="fill:#673b1d;"/>
    <path clip-path="url(#p506841f823)" d="M 154.105465 198.994368 
L 167.010898 203.166503 
L 166.619397 189.692875 
L 153.628548 185.568743 
z
" style="fill:#4b0190;"/>
    <path clip-path="url(#p506841f823)" d="M 237.351973 187.043183 
L 237.871447 107.643927 
L 251.561239 111.383877 
L 250.510457 191.080779 
z
" style="fill:#69570f;"/>
    <path clip-path="url(#p506841f823)" d="M 235.617509 205.421836 
L 243.136481 198.181496 
L 256.530882 202.34441 
L 249.101427 209.667246 
z
" style="fill:#808413;"/>
    <path clip-path="url(#p506841f823)" d="M 196.068846 192.969946 
L 194.903142 111.194472 
L 203.005025 104.722532 
L 203.841786 185.968896 
z
" style="fill:#dcc220;"/>
    <path clip-path="url(#p506841f823)" d="M 196.068846 192.969946 
L 203.841786 185.968896 
L 203.000942 104.326086 
L 194.897452 110.795286 
z
" style="fill:#685c0f;"/>
    <path clip-path="url(#p506841f823)" d="M 229.891821 194.06512 
L 237.351973 187.043183 
L 237.856157 109.980893 
L 230.109142 116.502339 
z
" style="fill:#695310;"/>
    <path clip-path="url(#p506841f823)" d="M 250.510457 191.080779 
L 263.816264 195.163579 
L 265.096636 130.91622 
L 251.354409 127.070954 
z
" style="fill:#d97e3c;"/>
    <path clip-path="url(#p506841f823)" d="M 229.891821 194.06512 
L 230.115735 114.149286 
L 237.871447 107.643927 
L 237.351973 187.043183 
z
" style="fill:#deb920;"/>
    <path clip-path="url(#p506841f823)" d="M 263.816264 195.163579 
L 264.690594 151.29087 
L 278.450965 155.259122 
L 277.271882 199.292348 
z
" style="fill:#551e32;"/>
    <path clip-path="url(#p506841f823)" d="M 183.178635 188.911464 
L 181.519542 108.810208 
L 194.922722 112.568039 
L 196.068846 192.969946 
z
" style="fill:#69590f;"/>
    <path clip-path="url(#p506841f823)" d="M 224.338378 116.039584 
L 237.792019 119.784229 
L 245.351182 113.325221 
L 231.986257 109.653522 
z
" style="fill:#c0782e;"/>
    <path clip-path="url(#p506841f823)" d="M 180.063228 207.386128 
L 188.144156 200.107676 
L 201.262108 204.292457 
L 193.264978 211.654059 
z
" style="fill:#87591c;"/>
    <path clip-path="url(#p506841f823)" d="M 183.178635 188.911464 
L 196.068846 192.969946 
L 194.897452 110.795286 
L 181.482969 107.044491 
z
" style="fill:#dcc420;"/>
    <path clip-path="url(#p506841f823)" d="M 216.794403 189.994506 
L 229.891821 194.06512 
L 230.109142 116.502339 
L 216.500892 112.721263 
z
" style="fill:#e0af22;"/>
    <path clip-path="url(#p506841f823)" d="M 216.794403 189.994506 
L 216.4942 110.959457 
L 230.114098 114.733538 
L 229.891821 194.06512 
z
" style="fill:#69560f;"/>
    <path clip-path="url(#p506841f823)" d="M 256.530882 202.34441 
L 257.250997 158.193163 
L 264.690594 151.29087 
L 263.816264 195.163579 
z
" style="fill:#b43f6a;"/>
    <path clip-path="url(#p506841f823)" d="M 214.529606 208.524945 
L 222.285805 201.224351 
L 235.617509 205.421836 
L 227.94922 212.80596 
z
" style="fill:#818115;"/>
    <path clip-path="url(#p506841f823)" d="M 175.173234 195.969799 
L 173.171434 115.346751 
L 181.519542 108.810208 
L 183.178635 188.911464 
z
" style="fill:#debc20;"/>
    <path clip-path="url(#p506841f823)" d="M 249.101427 209.667246 
L 256.530882 202.34441 
L 270.077576 206.554656 
L 262.740181 213.961405 
z
" style="fill:#86571e;"/>
    <path clip-path="url(#p506841f823)" d="M 209.103753 197.073984 
L 208.491379 117.524294 
L 216.4942 110.959457 
L 216.794403 189.994506 
z
" style="fill:#dfb621;"/>
    <path clip-path="url(#p506841f823)" d="M 250.510457 191.080779 
L 251.596308 108.724018 
L 265.463711 112.496922 
L 263.816264 195.163579 
z
" style="fill:#685d0f;"/>
    <path clip-path="url(#p506841f823)" d="M 189.732175 104.190274 
L 203.037553 107.880915 
L 210.967242 101.515155 
L 197.747358 97.896673 
z
" style="fill:#c19d1d;"/>
    <path clip-path="url(#p506841f823)" d="M 209.103753 197.073984 
L 216.794403 189.994506 
L 216.484642 108.44328 
L 208.471876 114.990721 
z
" style="fill:#685c0f;"/>
    <path clip-path="url(#p506841f823)" d="M 243.136481 198.181496 
L 250.510457 191.080779 
L 251.561239 111.383877 
L 243.898852 117.965174 
z
" style="fill:#69570f;"/>
    <path clip-path="url(#p506841f823)" d="M 243.136481 198.181496 
L 243.924306 115.286898 
L 251.596308 108.724018 
L 250.510457 191.080779 
z
" style="fill:#dbc520;"/>
    <path clip-path="url(#p506841f823)" d="M 193.264978 211.654059 
L 201.262108 204.292457 
L 214.529606 208.524945 
L 206.61873 215.971129 
z
" style="fill:#875b1b;"/>
    <path clip-path="url(#p506841f823)" d="M 175.173234 195.969799 
L 173.56436 131.171934 
L 186.952846 135.068801 
L 188.144156 200.107676 
z
" style="fill:#673d1c;"/>
    <path clip-path="url(#p506841f823)" d="M 196.068846 192.969946 
L 209.103753 197.073984 
L 208.471876 114.990721 
L 194.903142 111.194472 
z
" style="fill:#dcc220;"/>
    <path clip-path="url(#p506841f823)" d="M 196.068846 192.969946 
L 194.897006 110.764035 
L 208.468549 114.558564 
L 209.103753 197.073984 
z
" style="fill:#685c0f;"/>
    <path clip-path="url(#p506841f823)" d="M 237.806022 117.64392 
L 251.428872 121.423307 
L 258.904241 114.904556 
L 245.372839 111.199285 
z
" style="fill:#c17e2a;"/>
    <path clip-path="url(#p506841f823)" d="M 229.891821 194.06512 
L 243.136481 198.181496 
L 243.898852 117.965174 
L 230.115735 114.149286 
z
" style="fill:#deb920;"/>
    <path clip-path="url(#p506841f823)" d="M 270.077576 206.554656 
L 277.271882 199.292348 
L 278.450965 155.259122 
L 271.106665 162.24149 
z
" style="fill:#551e32;"/>
    <path clip-path="url(#p506841f823)" d="M 227.94922 212.80596 
L 235.617509 205.421836 
L 249.101427 209.667246 
L 241.523583 217.136342 
z
" style="fill:#827f15;"/>
    <path clip-path="url(#p506841f823)" d="M 188.144156 200.107676 
L 196.068846 192.969946 
L 194.922722 112.568039 
L 186.661833 119.181112 
z
" style="fill:#69590f;"/>
    <path clip-path="url(#p506841f823)" d="M 167.010898 203.166503 
L 165.115924 137.950392 
L 173.56436 131.171934 
L 175.173234 195.969799 
z
" style="fill:#da803b;"/>
    <path clip-path="url(#p506841f823)" d="M 188.144156 200.107676 
L 186.62856 117.364602 
L 194.897006 110.764035 
L 196.068846 192.969946 
z
" style="fill:#dcc420;"/>
    <path clip-path="url(#p506841f823)" d="M 203.055435 109.617194 
L 216.503308 113.357356 
L 224.338378 106.906313 
L 210.978356 103.239633 
z
" style="fill:#c2971e;"/>
    <path clip-path="url(#p506841f823)" d="M 222.285805 201.224351 
L 229.891821 194.06512 
L 230.114098 114.733538 
L 222.202815 121.375315 
z
" style="fill:#69560f;"/>
    <path clip-path="url(#p506841f823)" d="M 229.891821 194.06512 
L 230.138917 105.875644 
L 243.9778 109.658346 
L 243.136481 198.181496 
z
" style="fill:#64680e;"/>
    <path clip-path="url(#p506841f823)" d="M 256.530882 202.34441 
L 270.077576 206.554656 
L 271.106665 162.24149 
L 257.250997 158.193163 
z
" style="fill:#b43f6a;"/>
    <path clip-path="url(#p506841f823)" d="M 251.354409 127.070954 
L 265.096636 130.91622 
L 272.458855 124.283923 
L 258.810167 120.514288 
z
" style="fill:#bd6d34;"/>
    <path clip-path="url(#p506841f823)" d="M 175.173234 195.969799 
L 188.144156 200.107676 
L 186.661833 119.181112 
L 173.171434 115.346751 
z
" style="fill:#debc20;"/>
    <path clip-path="url(#p506841f823)" d="M 209.103753 197.073984 
L 222.285805 201.224351 
L 222.202815 121.375315 
L 208.491379 117.524294 
z
" style="fill:#dfb621;"/>
    <path clip-path="url(#p506841f823)" d="M 222.285805 201.224351 
L 222.193545 112.455764 
L 230.138917 105.875644 
L 229.891821 194.06512 
z
" style="fill:#d4dc1e;"/>
    <path clip-path="url(#p506841f823)" d="M 256.530882 202.34441 
L 263.816264 195.163579 
L 265.463711 112.496922 
L 257.888011 119.136963 
z
" style="fill:#685d0f;"/>
    <path clip-path="url(#p506841f823)" d="M 206.61873 215.971129 
L 214.529606 208.524945 
L 227.94922 212.80596 
L 220.127123 220.338193 
z
" style="fill:#87591c;"/>
    <path clip-path="url(#p506841f823)" d="M 209.103753 197.073984 
L 208.459165 113.339539 
L 222.198448 117.173809 
L 222.285805 201.224351 
z
" style="fill:#675e10;"/>
    <path clip-path="url(#p506841f823)" d="M 188.144156 200.107676 
L 186.84922 129.411421 
L 200.431651 133.331697 
L 201.262108 204.292457 
z
" style="fill:#694616;"/>
    <path clip-path="url(#p506841f823)" d="M 241.523583 217.136342 
L 249.101427 209.667246 
L 262.740181 213.961405 
L 255.255385 221.516949 
z
" style="fill:#876b15;"/>
    <path clip-path="url(#p506841f823)" d="M 243.136481 198.181496 
L 256.530882 202.34441 
L 257.888011 119.136963 
L 243.924306 115.286898 
z
" style="fill:#dbc520;"/>
    <path clip-path="url(#p506841f823)" d="M 180.063228 207.386128 
L 188.144156 200.107676 
L 186.952846 135.068801 
L 178.591096 141.926811 
z
" style="fill:#673d1c;"/>
    <path clip-path="url(#p506841f823)" d="M 201.262108 204.292457 
L 209.103753 197.073984 
L 208.468549 114.558564 
L 200.290106 121.236935 
z
" style="fill:#685c0f;"/>
    <path clip-path="url(#p506841f823)" d="M 201.262108 204.292457 
L 200.27574 120.009421 
L 208.459165 113.339539 
L 209.103753 197.073984 
z
" style="fill:#dbc821;"/>
    <path clip-path="url(#p506841f823)" d="M 216.500892 112.721263 
L 230.109142 116.502339 
L 237.856157 109.980893 
L 224.338378 106.27455 
z
" style="fill:#c2981e;"/>
    <path clip-path="url(#p506841f823)" d="M 243.136481 198.181496 
L 243.973822 110.076837 
L 257.973331 113.905922 
L 256.530882 202.34441 
z
" style="fill:#64670f;"/>
    <path clip-path="url(#p506841f823)" d="M 180.063228 207.386128 
L 178.462998 136.23085 
L 186.84922 129.411421 
L 188.144156 200.107676 
z
" style="fill:#df942f;"/>
    <path clip-path="url(#p506841f823)" d="M 181.482969 107.044491 
L 194.897452 110.795286 
L 203.000942 104.326086 
L 189.673035 100.649478 
z
" style="fill:#bfaa1c;"/>
    <path clip-path="url(#p506841f823)" d="M 257.250997 158.193163 
L 271.106665 162.24149 
L 278.450965 155.259122 
L 264.690594 151.29087 
z
" style="fill:#9c375c;"/>
    <path clip-path="url(#p506841f823)" d="M 167.010898 203.166503 
L 180.063228 207.386128 
L 178.591096 141.926811 
L 165.115924 137.950392 
z
" style="fill:#da803b;"/>
    <path clip-path="url(#p506841f823)" d="M 256.530882 202.34441 
L 257.667864 132.634518 
L 271.702513 136.583961 
L 270.077576 206.554656 
z
" style="fill:#694417;"/>
    <path clip-path="url(#p506841f823)" d="M 188.144156 200.107676 
L 201.262108 204.292457 
L 200.290106 121.236935 
L 186.62856 117.364602 
z
" style="fill:#dcc420;"/>
    <path clip-path="url(#p506841f823)" d="M 235.617509 205.421836 
L 236.125087 116.737806 
L 243.973822 110.076837 
L 243.136481 198.181496 
z
" style="fill:#d4da20;"/>
    <path clip-path="url(#p506841f823)" d="M 235.617509 205.421836 
L 243.136481 198.181496 
L 243.9778 109.658346 
L 236.127499 116.316377 
z
" style="fill:#64680e;"/>
    <path clip-path="url(#p506841f823)" d="M 220.127123 220.338193 
L 227.94922 212.80596 
L 241.523583 217.136342 
L 233.792858 224.756123 
z
" style="fill:#86581d;"/>
    <path clip-path="url(#p506841f823)" d="M 249.101427 209.667246 
L 249.98497 139.504761 
L 257.667864 132.634518 
L 256.530882 202.34441 
z
" style="fill:#de9031;"/>
    <path clip-path="url(#p506841f823)" d="M 222.285805 201.224351 
L 222.195072 113.925527 
L 236.119053 117.792088 
L 235.617509 205.421836 
z
" style="fill:#656510;"/>
    <path clip-path="url(#p506841f823)" d="M 201.262108 204.292457 
L 200.42359 132.642901 
L 214.17108 136.606761 
L 214.529606 208.524945 
z
" style="fill:#694715;"/>
    <path clip-path="url(#p506841f823)" d="M 222.285805 201.224351 
L 235.617509 205.421836 
L 236.127499 116.316377 
L 222.193545 112.455764 
z
" style="fill:#d4dc1e;"/>
    <path clip-path="url(#p506841f823)" d="M 214.529606 208.524945 
L 222.285805 201.224351 
L 222.198448 117.173809 
L 214.107849 123.922826 
z
" style="fill:#675e10;"/>
    <path clip-path="url(#p506841f823)" d="M 214.529606 208.524945 
L 214.091542 120.651801 
L 222.195072 113.925527 
L 222.285805 201.224351 
z
" style="fill:#d6d622;"/>
    <path clip-path="url(#p506841f823)" d="M 193.264978 211.654059 
L 201.262108 204.292457 
L 200.431651 133.331697 
L 192.135235 140.231858 
z
" style="fill:#694616;"/>
    <path clip-path="url(#p506841f823)" d="M 194.903142 111.194472 
L 208.471876 114.990721 
L 216.484642 108.44328 
L 203.005025 104.722532 
z
" style="fill:#bfa81c;"/>
    <path clip-path="url(#p506841f823)" d="M 193.264978 211.654059 
L 192.124265 139.538333 
L 200.42359 132.642901 
L 201.262108 204.292457 
z
" style="fill:#df972d;"/>
    <path clip-path="url(#p506841f823)" d="M 230.115735 114.149286 
L 243.898852 117.965174 
L 251.561239 111.383877 
L 237.871447 107.643927 
z
" style="fill:#c1a11c;"/>
    <path clip-path="url(#p506841f823)" d="M 201.262108 204.292457 
L 214.529606 208.524945 
L 214.107849 123.922826 
L 200.27574 120.009421 
z
" style="fill:#dbc821;"/>
    <path clip-path="url(#p506841f823)" d="M 249.101427 209.667246 
L 256.530882 202.34441 
L 257.973331 113.905922 
L 250.222452 120.646214 
z
" style="fill:#64670f;"/>
    <path clip-path="url(#p506841f823)" d="M 180.063228 207.386128 
L 193.264978 211.654059 
L 192.135235 140.231858 
L 178.462998 136.23085 
z
" style="fill:#df942f;"/>
    <path clip-path="url(#p506841f823)" d="M 233.792858 224.756123 
L 241.523583 217.136342 
L 255.255385 221.516949 
L 247.618703 229.225814 
z
" style="fill:#86541f;"/>
    <path clip-path="url(#p506841f823)" d="M 262.740181 213.961405 
L 270.077576 206.554656 
L 271.702513 136.583961 
L 264.118502 143.53575 
z
" style="fill:#694417;"/>
    <path clip-path="url(#p506841f823)" d="M 235.617509 205.421836 
L 236.115043 118.492812 
L 250.200262 122.408332 
L 249.101427 209.667246 
z
" style="fill:#656310;"/>
    <path clip-path="url(#p506841f823)" d="M 214.529606 208.524945 
L 214.174884 137.369635 
L 228.080578 141.383637 
L 227.94922 212.80596 
z
" style="fill:#694616;"/>
    <path clip-path="url(#p506841f823)" d="M 173.171434 115.346751 
L 186.661833 119.181112 
L 194.922722 112.568039 
L 181.519542 108.810208 
z
" style="fill:#c0a31c;"/>
    <path clip-path="url(#p506841f823)" d="M 235.617509 205.421836 
L 249.101427 209.667246 
L 250.222452 120.646214 
L 236.125087 116.737806 
z
" style="fill:#d4da20;"/>
    <path clip-path="url(#p506841f823)" d="M 208.491379 117.524294 
L 222.202815 121.375315 
L 230.114098 114.733538 
L 216.4942 110.959457 
z
" style="fill:#c19e1c;"/>
    <path clip-path="url(#p506841f823)" d="M 249.101427 209.667246 
L 262.740181 213.961405 
L 264.118502 143.53575 
L 249.98497 139.504761 
z
" style="fill:#de9031;"/>
    <path clip-path="url(#p506841f823)" d="M 227.94922 212.80596 
L 228.11015 125.304421 
L 236.115043 118.492812 
L 235.617509 205.421836 
z
" style="fill:#d7d322;"/>
    <path clip-path="url(#p506841f823)" d="M 227.94922 212.80596 
L 235.617509 205.421836 
L 236.119053 117.792088 
L 228.111448 124.598771 
z
" style="fill:#656510;"/>
    <path clip-path="url(#p506841f823)" d="M 206.61873 215.971129 
L 205.971297 144.352461 
L 214.174884 137.369635 
L 214.529606 208.524945 
z
" style="fill:#df942f;"/>
    <path clip-path="url(#p506841f823)" d="M 206.61873 215.971129 
L 214.529606 208.524945 
L 214.17108 136.606761 
L 205.964353 143.58434 
z
" style="fill:#694715;"/>
    <path clip-path="url(#p506841f823)" d="M 165.115924 137.950392 
L 178.591096 141.926811 
L 186.952846 135.068801 
L 173.56436 131.171934 
z
" style="fill:#bd6f33;"/>
    <path clip-path="url(#p506841f823)" d="M 249.101427 209.667246 
L 250.093929 130.852318 
L 264.288516 134.848854 
L 262.740181 213.961405 
z
" style="fill:#695310;"/>
    <path clip-path="url(#p506841f823)" d="M 243.924306 115.286898 
L 257.888011 119.136963 
L 265.463711 112.496922 
L 251.596308 108.724018 
z
" style="fill:#bfab1c;"/>
    <path clip-path="url(#p506841f823)" d="M 214.529606 208.524945 
L 227.94922 212.80596 
L 228.111448 124.598771 
L 214.091542 120.651801 
z
" style="fill:#d6d622;"/>
    <path clip-path="url(#p506841f823)" d="M 193.264978 211.654059 
L 206.61873 215.971129 
L 205.964353 143.58434 
L 192.124265 139.538333 
z
" style="fill:#df972d;"/>
    <path clip-path="url(#p506841f823)" d="M 241.523583 217.136342 
L 242.219522 137.804921 
L 250.093929 130.852318 
L 249.101427 209.667246 
z
" style="fill:#dfb122;"/>
    <path clip-path="url(#p506841f823)" d="M 227.94922 212.80596 
L 228.079675 141.874601 
L 242.148169 145.938533 
L 241.523583 217.136342 
z
" style="fill:#694517;"/>
    <path clip-path="url(#p506841f823)" d="M 186.62856 117.364602 
L 200.290106 121.236935 
L 208.468549 114.558564 
L 194.897006 110.764035 
z
" style="fill:#bfaa1c;"/>
    <path clip-path="url(#p506841f823)" d="M 241.523583 217.136342 
L 249.101427 209.667246 
L 250.200262 122.408332 
L 242.294116 129.301832 
z
" style="fill:#656310;"/>
    <path clip-path="url(#p506841f823)" d="M 220.127123 220.338193 
L 219.973394 148.944462 
L 228.079675 141.874601 
L 227.94922 212.80596 
z
" style="fill:#de9230;"/>
    <path clip-path="url(#p506841f823)" d="M 220.127123 220.338193 
L 227.94922 212.80596 
L 228.080578 141.383637 
L 219.97233 148.450117 
z
" style="fill:#694616;"/>
    <path clip-path="url(#p506841f823)" d="M 227.94922 212.80596 
L 241.523583 217.136342 
L 242.294116 129.301832 
L 228.11015 125.304421 
z
" style="fill:#d7d322;"/>
    <path clip-path="url(#p506841f823)" d="M 206.61873 215.971129 
L 220.127123 220.338193 
L 219.97233 148.450117 
L 205.971297 144.352461 
z
" style="fill:#df942f;"/>
    <path clip-path="url(#p506841f823)" d="M 178.462998 136.23085 
L 192.135235 140.231858 
L 200.431651 133.331697 
L 186.84922 129.411421 
z
" style="fill:#c18129;"/>
    <path clip-path="url(#p506841f823)" d="M 241.523583 217.136342 
L 242.131258 147.866318 
L 256.355187 151.986756 
L 255.255385 221.516949 
z
" style="fill:#684219;"/>
    <path clip-path="url(#p506841f823)" d="M 222.193545 112.455764 
L 236.127499 116.316377 
L 243.9778 109.658346 
L 230.138917 105.875644 
z
" style="fill:#b8bf1a;"/>
    <path clip-path="url(#p506841f823)" d="M 255.255385 221.516949 
L 262.740181 213.961405 
L 264.288516 134.848854 
L 256.51497 141.885198 
z
" style="fill:#695310;"/>
    <path clip-path="url(#p506841f823)" d="M 200.27574 120.009421 
L 214.107849 123.922826 
L 222.198448 117.173809 
L 208.459165 113.339539 
z
" style="fill:#beae1d;"/>
    <path clip-path="url(#p506841f823)" d="M 233.792858 224.756123 
L 234.130665 155.03464 
L 242.131258 147.866318 
L 241.523583 217.136342 
z
" style="fill:#dd8b34;"/>
    <path clip-path="url(#p506841f823)" d="M 249.98497 139.504761 
L 264.118502 143.53575 
L 271.702513 136.583961 
L 257.667864 132.634518 
z
" style="fill:#c17d2b;"/>
    <path clip-path="url(#p506841f823)" d="M 241.523583 217.136342 
L 255.255385 221.516949 
L 256.51497 141.885198 
L 242.219522 137.804921 
z
" style="fill:#dfb122;"/>
    <path clip-path="url(#p506841f823)" d="M 233.792858 224.756123 
L 241.523583 217.136342 
L 242.148169 145.938533 
L 234.14007 153.093579 
z
" style="fill:#694517;"/>
    <path clip-path="url(#p506841f823)" d="M 220.127123 220.338193 
L 233.792858 224.756123 
L 234.14007 153.093579 
L 219.973394 148.944462 
z
" style="fill:#de9230;"/>
    <path clip-path="url(#p506841f823)" d="M 236.125087 116.737806 
L 250.222452 120.646214 
L 257.973331 113.905922 
L 243.973822 110.076837 
z
" style="fill:#b8bd1c;"/>
    <path clip-path="url(#p506841f823)" d="M 192.124265 139.538333 
L 205.964353 143.58434 
L 214.17108 136.606761 
L 200.42359 132.642901 
z
" style="fill:#c28327;"/>
    <path clip-path="url(#p506841f823)" d="M 247.618703 229.225814 
L 255.255385 221.516949 
L 256.355187 151.986756 
L 248.455552 159.24189 
z
" style="fill:#684219;"/>
    <path clip-path="url(#p506841f823)" d="M 214.091542 120.651801 
L 228.111448 124.598771 
L 236.119053 117.792088 
L 222.195072 113.925527 
z
" style="fill:#bab91e;"/>
    <path clip-path="url(#p506841f823)" d="M 233.792858 224.756123 
L 247.618703 229.225814 
L 248.455552 159.24189 
L 234.130665 155.03464 
z
" style="fill:#dd8b34;"/>
    <path clip-path="url(#p506841f823)" d="M 205.971297 144.352461 
L 219.97233 148.450117 
L 228.080578 141.383637 
L 214.174884 137.369635 
z
" style="fill:#c18129;"/>
    <path clip-path="url(#p506841f823)" d="M 228.11015 125.304421 
L 242.294116 129.301832 
L 250.200262 122.408332 
L 236.115043 118.492812 
z
" style="fill:#bbb71e;"/>
    <path clip-path="url(#p506841f823)" d="M 242.219522 137.804921 
L 256.51497 141.885198 
L 264.288516 134.848854 
L 250.093929 130.852318 
z
" style="fill:#c2991e;"/>
    <path clip-path="url(#p506841f823)" d="M 219.973394 148.944462 
L 234.14007 153.093579 
L 242.148169 145.938533 
L 228.079675 141.874601 
z
" style="fill:#c17e2a;"/>
    <path clip-path="url(#p506841f823)" d="M 234.130665 155.03464 
L 248.455552 159.24189 
L 256.355187 151.986756 
L 242.131258 147.866318 
z
" style="fill:#c0792d;"/>
   </g>
   <g id="text_16">
    <!-- W45__H50__A320_bars_extracted.txt -->
    <g transform="translate(110.101875 28.56)scale(0.12 -0.12)">
     <defs>
      <path d="M 3.328125 72.90625 
L 13.28125 72.90625 
L 28.609375 11.28125 
L 43.890625 72.90625 
L 54.984375 72.90625 
L 70.3125 11.28125 
L 85.59375 72.90625 
L 95.609375 72.90625 
L 77.296875 0 
L 64.890625 0 
L 49.515625 63.28125 
L 33.984375 0 
L 21.578125 0 
z
" id="DejaVuSans-87"/>
      <path d="M 50.984375 -16.609375 
L 50.984375 -23.578125 
L -0.984375 -23.578125 
L -0.984375 -16.609375 
z
" id="DejaVuSans-95"/>
      <path d="M 9.8125 72.90625 
L 19.671875 72.90625 
L 19.671875 43.015625 
L 55.515625 43.015625 
L 55.515625 72.90625 
L 65.375 72.90625 
L 65.375 0 
L 55.515625 0 
L 55.515625 34.71875 
L 19.671875 34.71875 
L 19.671875 0 
L 9.8125 0 
z
" id="DejaVuSans-72"/>
      <path d="M 34.1875 63.1875 
L 20.796875 26.90625 
L 47.609375 26.90625 
z
M 28.609375 72.90625 
L 39.796875 72.90625 
L 67.578125 0 
L 57.328125 0 
L 50.6875 18.703125 
L 17.828125 18.703125 
L 11.1875 0 
L 0.78125 0 
z
" id="DejaVuSans-65"/>
      <path d="M 40.578125 39.3125 
Q 47.65625 37.796875 51.625 33 
Q 55.609375 28.21875 55.609375 21.1875 
Q 55.609375 10.40625 48.1875 4.484375 
Q 40.765625 -1.421875 27.09375 -1.421875 
Q 22.515625 -1.421875 17.65625 -0.515625 
Q 12.796875 0.390625 7.625 2.203125 
L 7.625 11.71875 
Q 11.71875 9.328125 16.59375 8.109375 
Q 21.484375 6.890625 26.8125 6.890625 
Q 36.078125 6.890625 40.9375 10.546875 
Q 45.796875 14.203125 45.796875 21.1875 
Q 45.796875 27.640625 41.28125 31.265625 
Q 36.765625 34.90625 28.71875 34.90625 
L 20.21875 34.90625 
L 20.21875 43.015625 
L 29.109375 43.015625 
Q 36.375 43.015625 40.234375 45.921875 
Q 44.09375 48.828125 44.09375 54.296875 
Q 44.09375 59.90625 40.109375 62.90625 
Q 36.140625 65.921875 28.71875 65.921875 
Q 24.65625 65.921875 20.015625 65.03125 
Q 15.375 64.15625 9.8125 62.3125 
L 9.8125 71.09375 
Q 15.4375 72.65625 20.34375 73.4375 
Q 25.25 74.21875 29.59375 74.21875 
Q 40.828125 74.21875 47.359375 69.109375 
Q 53.90625 64.015625 53.90625 55.328125 
Q 53.90625 49.265625 50.4375 45.09375 
Q 46.96875 40.921875 40.578125 39.3125 
z
" id="DejaVuSans-51"/>
      <path d="M 48.6875 27.296875 
Q 48.6875 37.203125 44.609375 42.84375 
Q 40.53125 48.484375 33.40625 48.484375 
Q 26.265625 48.484375 22.1875 42.84375 
Q 18.109375 37.203125 18.109375 27.296875 
Q 18.109375 17.390625 22.1875 11.75 
Q 26.265625 6.109375 33.40625 6.109375 
Q 40.53125 6.109375 44.609375 11.75 
Q 48.6875 17.390625 48.6875 27.296875 
z
M 18.109375 46.390625 
Q 20.953125 51.265625 25.265625 53.625 
Q 29.59375 56 35.59375 56 
Q 45.5625 56 51.78125 48.09375 
Q 58.015625 40.1875 58.015625 27.296875 
Q 58.015625 14.40625 51.78125 6.484375 
Q 45.5625 -1.421875 35.59375 -1.421875 
Q 29.59375 -1.421875 25.265625 0.953125 
Q 20.953125 3.328125 18.109375 8.203125 
L 18.109375 0 
L 9.078125 0 
L 9.078125 75.984375 
L 18.109375 75.984375 
z
" id="DejaVuSans-98"/>
      <path d="M 34.28125 27.484375 
Q 23.390625 27.484375 19.1875 25 
Q 14.984375 22.515625 14.984375 16.5 
Q 14.984375 11.71875 18.140625 8.90625 
Q 21.296875 6.109375 26.703125 6.109375 
Q 34.1875 6.109375 38.703125 11.40625 
Q 43.21875 16.703125 43.21875 25.484375 
L 43.21875 27.484375 
z
M 52.203125 31.203125 
L 52.203125 0 
L 43.21875 0 
L 43.21875 8.296875 
Q 40.140625 3.328125 35.546875 0.953125 
Q 30.953125 -1.421875 24.3125 -1.421875 
Q 15.921875 -1.421875 10.953125 3.296875 
Q 6 8.015625 6 15.921875 
Q 6 25.140625 12.171875 29.828125 
Q 18.359375 34.515625 30.609375 34.515625 
L 43.21875 34.515625 
L 43.21875 35.40625 
Q 43.21875 41.609375 39.140625 45 
Q 35.0625 48.390625 27.6875 48.390625 
Q 23 48.390625 18.546875 47.265625 
Q 14.109375 46.140625 10.015625 43.890625 
L 10.015625 52.203125 
Q 14.9375 54.109375 19.578125 55.046875 
Q 24.21875 56 28.609375 56 
Q 40.484375 56 46.34375 49.84375 
Q 52.203125 43.703125 52.203125 31.203125 
z
" id="DejaVuSans-97"/>
      <path d="M 41.109375 46.296875 
Q 39.59375 47.171875 37.8125 47.578125 
Q 36.03125 48 33.890625 48 
Q 26.265625 48 22.1875 43.046875 
Q 18.109375 38.09375 18.109375 28.8125 
L 18.109375 0 
L 9.078125 0 
L 9.078125 54.6875 
L 18.109375 54.6875 
L 18.109375 46.1875 
Q 20.953125 51.171875 25.484375 53.578125 
Q 30.03125 56 36.53125 56 
Q 37.453125 56 38.578125 55.875 
Q 39.703125 55.765625 41.0625 55.515625 
z
" id="DejaVuSans-114"/>
      <path d="M 44.28125 53.078125 
L 44.28125 44.578125 
Q 40.484375 46.53125 36.375 47.5 
Q 32.28125 48.484375 27.875 48.484375 
Q 21.1875 48.484375 17.84375 46.4375 
Q 14.5 44.390625 14.5 40.28125 
Q 14.5 37.15625 16.890625 35.375 
Q 19.28125 33.59375 26.515625 31.984375 
L 29.59375 31.296875 
Q 39.15625 29.25 43.1875 25.515625 
Q 47.21875 21.78125 47.21875 15.09375 
Q 47.21875 7.46875 41.1875 3.015625 
Q 35.15625 -1.421875 24.609375 -1.421875 
Q 20.21875 -1.421875 15.453125 -0.5625 
Q 10.6875 0.296875 5.421875 2 
L 5.421875 11.28125 
Q 10.40625 8.6875 15.234375 7.390625 
Q 20.0625 6.109375 24.8125 6.109375 
Q 31.15625 6.109375 34.5625 8.28125 
Q 37.984375 10.453125 37.984375 14.40625 
Q 37.984375 18.0625 35.515625 20.015625 
Q 33.0625 21.96875 24.703125 23.78125 
L 21.578125 24.515625 
Q 13.234375 26.265625 9.515625 29.90625 
Q 5.8125 33.546875 5.8125 39.890625 
Q 5.8125 47.609375 11.28125 51.796875 
Q 16.75 56 26.8125 56 
Q 31.78125 56 36.171875 55.265625 
Q 40.578125 54.546875 44.28125 53.078125 
z
" id="DejaVuSans-115"/>
      <path d="M 56.203125 29.59375 
L 56.203125 25.203125 
L 14.890625 25.203125 
Q 15.484375 15.921875 20.484375 11.0625 
Q 25.484375 6.203125 34.421875 6.203125 
Q 39.59375 6.203125 44.453125 7.46875 
Q 49.3125 8.734375 54.109375 11.28125 
L 54.109375 2.78125 
Q 49.265625 0.734375 44.1875 -0.34375 
Q 39.109375 -1.421875 33.890625 -1.421875 
Q 20.796875 -1.421875 13.15625 6.1875 
Q 5.515625 13.8125 5.515625 26.8125 
Q 5.515625 40.234375 12.765625 48.109375 
Q 20.015625 56 32.328125 56 
Q 43.359375 56 49.78125 48.890625 
Q 56.203125 41.796875 56.203125 29.59375 
z
M 47.21875 32.234375 
Q 47.125 39.59375 43.09375 43.984375 
Q 39.0625 48.390625 32.421875 48.390625 
Q 24.90625 48.390625 20.390625 44.140625 
Q 15.875 39.890625 15.1875 32.171875 
z
" id="DejaVuSans-101"/>
      <path d="M 54.890625 54.6875 
L 35.109375 28.078125 
L 55.90625 0 
L 45.3125 0 
L 29.390625 21.484375 
L 13.484375 0 
L 2.875 0 
L 24.125 28.609375 
L 4.6875 54.6875 
L 15.28125 54.6875 
L 29.78125 35.203125 
L 44.28125 54.6875 
z
" id="DejaVuSans-120"/>
      <path d="M 18.3125 70.21875 
L 18.3125 54.6875 
L 36.8125 54.6875 
L 36.8125 47.703125 
L 18.3125 47.703125 
L 18.3125 18.015625 
Q 18.3125 11.328125 20.140625 9.421875 
Q 21.96875 7.515625 27.59375 7.515625 
L 36.8125 7.515625 
L 36.8125 0 
L 27.59375 0 
Q 17.1875 0 13.234375 3.875 
Q 9.28125 7.765625 9.28125 18.015625 
L 9.28125 47.703125 
L 2.6875 47.703125 
L 2.6875 54.6875 
L 9.28125 54.6875 
L 9.28125 70.21875 
z
" id="DejaVuSans-116"/>
      <path d="M 48.78125 52.59375 
L 48.78125 44.1875 
Q 44.96875 46.296875 41.140625 47.34375 
Q 37.3125 48.390625 33.40625 48.390625 
Q 24.65625 48.390625 19.8125 42.84375 
Q 14.984375 37.3125 14.984375 27.296875 
Q 14.984375 17.28125 19.8125 11.734375 
Q 24.65625 6.203125 33.40625 6.203125 
Q 37.3125 6.203125 41.140625 7.25 
Q 44.96875 8.296875 48.78125 10.40625 
L 48.78125 2.09375 
Q 45.015625 0.34375 40.984375 -0.53125 
Q 36.96875 -1.421875 32.421875 -1.421875 
Q 20.0625 -1.421875 12.78125 6.34375 
Q 5.515625 14.109375 5.515625 27.296875 
Q 5.515625 40.671875 12.859375 48.328125 
Q 20.21875 56 33.015625 56 
Q 37.15625 56 41.109375 55.140625 
Q 45.0625 54.296875 48.78125 52.59375 
z
" id="DejaVuSans-99"/>
      <path d="M 45.40625 46.390625 
L 45.40625 75.984375 
L 54.390625 75.984375 
L 54.390625 0 
L 45.40625 0 
L 45.40625 8.203125 
Q 42.578125 3.328125 38.25 0.953125 
Q 33.9375 -1.421875 27.875 -1.421875 
Q 17.96875 -1.421875 11.734375 6.484375 
Q 5.515625 14.40625 5.515625 27.296875 
Q 5.515625 40.1875 11.734375 48.09375 
Q 17.96875 56 27.875 56 
Q 33.9375 56 38.25 53.625 
Q 42.578125 51.265625 45.40625 46.390625 
z
M 14.796875 27.296875 
Q 14.796875 17.390625 18.875 11.75 
Q 22.953125 6.109375 30.078125 6.109375 
Q 37.203125 6.109375 41.296875 11.75 
Q 45.40625 17.390625 45.40625 27.296875 
Q 45.40625 37.203125 41.296875 42.84375 
Q 37.203125 48.484375 30.078125 48.484375 
Q 22.953125 48.484375 18.875 42.84375 
Q 14.796875 37.203125 14.796875 27.296875 
z
" id="DejaVuSans-100"/>
      <path d="M 10.6875 12.40625 
L 21 12.40625 
L 21 0 
L 10.6875 0 
z
" id="DejaVuSans-46"/>
     </defs>
     <use xlink:href="#DejaVuSans-87"/>
     <use x="98.876953" xlink:href="#DejaVuSans-52"/>
     <use x="162.5" xlink:href="#DejaVuSans-53"/>
     <use x="226.123047" xlink:href="#DejaVuSans-95"/>
     <use x="276.123047" xlink:href="#DejaVuSans-95"/>
     <use x="326.123047" xlink:href="#DejaVuSans-72"/>
     <use x="401.318359" xlink:href="#DejaVuSans-53"/>
     <use x="464.941406" xlink:href="#DejaVuSans-48"/>
     <use x="528.564453" xlink:href="#DejaVuSans-95"/>
     <use x="578.564453" xlink:href="#DejaVuSans-95"/>
     <use x="628.564453" xlink:href="#DejaVuSans-65"/>
     <use x="696.972656" xlink:href="#DejaVuSans-51"/>
     <use x="760.595703" xlink:href="#DejaVuSans-50"/>
     <use x="824.21875" xlink:href="#DejaVuSans-48"/>
     <use x="887.841797" xlink:href="#DejaVuSans-95"/>
     <use x="937.841797" xlink:href="#DejaVuSans-98"/>
     <use x="1001.318359" xlink:href="#DejaVuSans-97"/>
     <use x="1062.597656" xlink:href="#DejaVuSans-114"/>
     <use x="1103.710938" xlink:href="#DejaVuSans-115"/>
     <use x="1155.810547" xlink:href="#DejaVuSans-95"/>
     <use x="1205.810547" xlink:href="#DejaVuSans-101"/>
     <use x="1265.583984" xlink:href="#DejaVuSans-120"/>
     <use x="1324.763672" xlink:href="#DejaVuSans-116"/>
     <use x="1363.972656" xlink:href="#DejaVuSans-114"/>
     <use x="1405.085938" xlink:href="#DejaVuSans-97"/>
     <use x="1466.365234" xlink:href="#DejaVuSans-99"/>
     <use x="1521.345703" xlink:href="#DejaVuSans-116"/>
     <use x="1560.554688" xlink:href="#DejaVuSans-101"/>
     <use x="1622.078125" xlink:href="#DejaVuSans-100"/>
     <use x="1685.554688" xlink:href="#DejaVuSans-46"/>
     <use x="1717.341797" xlink:href="#DejaVuSans-116"/>
     <use x="1756.550781" xlink:href="#DejaVuSans-120"/>
     <use x="1815.730469" xlink:href="#DejaVuSans-116"/>
    </g>
   </g>
  </g>
 </g>
 <defs>
  <clipPath id="p506841f823">
   <rect height="217.44" width="217.44" x="112.68" y="34.56"/>
  </clipPath>
 </defs>
</svg>
