<?xml version="1.0" encoding="utf-8" standalone="no"?>
<!DOCTYPE svg PUBLIC "-//W3C//DTD SVG 1.1//EN"
  "http://www.w3.org/Graphics/SVG/1.1/DTD/svg11.dtd">
<!-- Created with matplotlib (https://matplotlib.org/) -->
<svg height="288pt" version="1.1" viewBox="0 0 432 288" width="432pt" xmlns="http://www.w3.org/2000/svg" xmlns:xlink="http://www.w3.org/1999/xlink">
 <metadata>
  <rdf:RDF xmlns:cc="http://creativecommons.org/ns#" xmlns:dc="http://purl.org/dc/elements/1.1/" xmlns:rdf="http://www.w3.org/1999/02/22-rdf-syntax-ns#">
   <cc:Work>
    <dc:type rdf:resource="http://purl.org/dc/dcmitype/StillImage"/>
    <dc:date>2021-06-13T21:59:54.327106</dc:date>
    <dc:format>image/svg+xml</dc:format>
    <dc:creator>
     <cc:Agent>
      <dc:title>Matplotlib v3.3.4, https://matplotlib.org/</dc:title>
     </cc:Agent>
    </dc:creator>
   </cc:Work>
  </rdf:RDF>
 </metadata>
 <defs>
  <style type="text/css">*{stroke-linecap:butt;stroke-linejoin:round;}</style>
 </defs>
 <g id="figure_1">
  <g id="patch_1">
   <path d="M 0 288 
L 432 288 
L 432 0 
L 0 0 
z
" style="fill:#ffffff;"/>
  </g>
  <g id="patch_2">
   <path d="M 112.68 252 
L 330.12 252 
L 330.12 34.56 
L 112.68 34.56 
z
" style="fill:#ffffff;"/>
  </g>
  <g id="pane3d_1">
   <g id="patch_3">
    <path d="M 129.09822 198.386264 
L 200.904009 138.197228 
L 199.90584 51.393878 
L 124.663773 106.302111 
" style="fill:#f2f2f2;opacity:0.5;stroke:#f2f2f2;stroke-linejoin:miter;"/>
   </g>
  </g>
  <g id="pane3d_2">
   <g id="patch_4">
    <path d="M 200.904009 138.197228 
L 316.12668 171.68791 
L 320.238571 81.894718 
L 199.90584 51.393878 
" style="fill:#e6e6e6;opacity:0.5;stroke:#e6e6e6;stroke-linejoin:miter;"/>
   </g>
  </g>
  <g id="pane3d_3">
   <g id="patch_5">
    <path d="M 129.09822 198.386264 
L 251.239879 238.27773 
L 316.12668 171.68791 
L 200.904009 138.197228 
" style="fill:#ececec;opacity:0.5;stroke:#ececec;stroke-linejoin:miter;"/>
   </g>
  </g>
  <g id="axis3d_1">
   <g id="line2d_1">
    <path d="M 129.09822 198.386264 
L 251.239879 238.27773 
" style="fill:none;stroke:#000000;stroke-linecap:square;stroke-width:0.8;"/>
   </g>
   <g id="Line3DCollection_1">
    <path d="M 136.495759 200.802301 
L 207.911499 140.234029 
L 207.209612 53.245171 
" style="fill:none;stroke:#b0b0b0;stroke-width:0.8;"/>
    <path d="M 162.23134 209.207541 
L 232.260894 147.311436 
L 232.60309 59.681678 
" style="fill:none;stroke:#b0b0b0;stroke-width:0.8;"/>
    <path d="M 188.559037 217.806167 
L 257.123632 154.538053 
L 258.555303 66.259807 
" style="fill:none;stroke:#b0b0b0;stroke-width:0.8;"/>
    <path d="M 215.499525 226.604931 
L 282.516121 161.918647 
L 285.084894 72.984285 
" style="fill:none;stroke:#b0b0b0;stroke-width:0.8;"/>
    <path d="M 243.074449 235.610901 
L 308.455474 169.458193 
L 312.21135 79.860051 
" style="fill:none;stroke:#b0b0b0;stroke-width:0.8;"/>
   </g>
   <g id="xtick_1">
    <g id="line2d_2">
     <path d="M 137.117644 200.274876 
L 135.249322 201.859414 
" style="fill:none;stroke:#000000;stroke-linecap:square;stroke-width:0.8;"/>
    </g>
    <g id="text_1">
     <!-- 0 -->
     <g transform="translate(125.77919 224.124533)scale(0.1 -0.1)">
      <defs>
       <path d="M 31.78125 66.40625 
Q 24.171875 66.40625 20.328125 58.90625 
Q 16.5 51.421875 16.5 36.375 
Q 16.5 21.390625 20.328125 13.890625 
Q 24.171875 6.390625 31.78125 6.390625 
Q 39.453125 6.390625 43.28125 13.890625 
Q 47.125 21.390625 47.125 36.375 
Q 47.125 51.421875 43.28125 58.90625 
Q 39.453125 66.40625 31.78125 66.40625 
z
M 31.78125 74.21875 
Q 44.046875 74.21875 50.515625 64.515625 
Q 56.984375 54.828125 56.984375 36.375 
Q 56.984375 17.96875 50.515625 8.265625 
Q 44.046875 -1.421875 31.78125 -1.421875 
Q 19.53125 -1.421875 13.0625 8.265625 
Q 6.59375 17.96875 6.59375 36.375 
Q 6.59375 54.828125 13.0625 64.515625 
Q 19.53125 74.21875 31.78125 74.21875 
z
" id="DejaVuSans-48"/>
      </defs>
      <use xlink:href="#DejaVuSans-48"/>
     </g>
    </g>
   </g>
   <g id="xtick_2">
    <g id="line2d_3">
     <path d="M 162.841716 208.668056 
L 161.007937 210.288854 
" style="fill:none;stroke:#000000;stroke-linecap:square;stroke-width:0.8;"/>
    </g>
    <g id="text_2">
     <!-- 2 -->
     <g transform="translate(151.547192 232.748132)scale(0.1 -0.1)">
      <defs>
       <path d="M 19.1875 8.296875 
L 53.609375 8.296875 
L 53.609375 0 
L 7.328125 0 
L 7.328125 8.296875 
Q 12.9375 14.109375 22.625 23.890625 
Q 32.328125 33.6875 34.8125 36.53125 
Q 39.546875 41.84375 41.421875 45.53125 
Q 43.3125 49.21875 43.3125 52.78125 
Q 43.3125 58.59375 39.234375 62.25 
Q 35.15625 65.921875 28.609375 65.921875 
Q 23.96875 65.921875 18.8125 64.3125 
Q 13.671875 62.703125 7.8125 59.421875 
L 7.8125 69.390625 
Q 13.765625 71.78125 18.9375 73 
Q 24.125 74.21875 28.421875 74.21875 
Q 39.75 74.21875 46.484375 68.546875 
Q 53.21875 62.890625 53.21875 53.421875 
Q 53.21875 48.921875 51.53125 44.890625 
Q 49.859375 40.875 45.40625 35.40625 
Q 44.1875 33.984375 37.640625 27.21875 
Q 31.109375 20.453125 19.1875 8.296875 
z
" id="DejaVuSans-50"/>
      </defs>
      <use xlink:href="#DejaVuSans-50"/>
     </g>
    </g>
   </g>
   <g id="xtick_3">
    <g id="line2d_4">
     <path d="M 189.15721 217.254202 
L 187.360066 218.91252 
" style="fill:none;stroke:#000000;stroke-linecap:square;stroke-width:0.8;"/>
    </g>
    <g id="text_3">
     <!-- 4 -->
     <g transform="translate(177.91082 241.571064)scale(0.1 -0.1)">
      <defs>
       <path d="M 37.796875 64.3125 
L 12.890625 25.390625 
L 37.796875 25.390625 
z
M 35.203125 72.90625 
L 47.609375 72.90625 
L 47.609375 25.390625 
L 58.015625 25.390625 
L 58.015625 17.1875 
L 47.609375 17.1875 
L 47.609375 0 
L 37.796875 0 
L 37.796875 17.1875 
L 4.890625 17.1875 
L 4.890625 26.703125 
z
" id="DejaVuSans-52"/>
      </defs>
      <use xlink:href="#DejaVuSans-52"/>
     </g>
    </g>
   </g>
   <g id="xtick_4">
    <g id="line2d_5">
     <path d="M 216.084757 226.040048 
L 214.326462 227.737204 
" style="fill:none;stroke:#000000;stroke-linecap:square;stroke-width:0.8;"/>
    </g>
    <g id="text_4">
     <!-- 6 -->
     <g transform="translate(204.890965 250.600322)scale(0.1 -0.1)">
      <defs>
       <path d="M 33.015625 40.375 
Q 26.375 40.375 22.484375 35.828125 
Q 18.609375 31.296875 18.609375 23.390625 
Q 18.609375 15.53125 22.484375 10.953125 
Q 26.375 6.390625 33.015625 6.390625 
Q 39.65625 6.390625 43.53125 10.953125 
Q 47.40625 15.53125 47.40625 23.390625 
Q 47.40625 31.296875 43.53125 35.828125 
Q 39.65625 40.375 33.015625 40.375 
z
M 52.59375 71.296875 
L 52.59375 62.3125 
Q 48.875 64.0625 45.09375 64.984375 
Q 41.3125 65.921875 37.59375 65.921875 
Q 27.828125 65.921875 22.671875 59.328125 
Q 17.53125 52.734375 16.796875 39.40625 
Q 19.671875 43.65625 24.015625 45.921875 
Q 28.375 48.1875 33.59375 48.1875 
Q 44.578125 48.1875 50.953125 41.515625 
Q 57.328125 34.859375 57.328125 23.390625 
Q 57.328125 12.15625 50.6875 5.359375 
Q 44.046875 -1.421875 33.015625 -1.421875 
Q 20.359375 -1.421875 13.671875 8.265625 
Q 6.984375 17.96875 6.984375 36.375 
Q 6.984375 53.65625 15.1875 63.9375 
Q 23.390625 74.21875 37.203125 74.21875 
Q 40.921875 74.21875 44.703125 73.484375 
Q 48.484375 72.75 52.59375 71.296875 
z
" id="DejaVuSans-54"/>
      </defs>
      <use xlink:href="#DejaVuSans-54"/>
     </g>
    </g>
   </g>
   <g id="xtick_5">
    <g id="line2d_6">
     <path d="M 243.645962 235.032643 
L 241.928856 236.770015 
" style="fill:none;stroke:#000000;stroke-linecap:square;stroke-width:0.8;"/>
    </g>
    <g id="text_5">
     <!-- 8 -->
     <g transform="translate(232.509511 259.84323)scale(0.1 -0.1)">
      <defs>
       <path d="M 31.78125 34.625 
Q 24.75 34.625 20.71875 30.859375 
Q 16.703125 27.09375 16.703125 20.515625 
Q 16.703125 13.921875 20.71875 10.15625 
Q 24.75 6.390625 31.78125 6.390625 
Q 38.8125 6.390625 42.859375 10.171875 
Q 46.921875 13.96875 46.921875 20.515625 
Q 46.921875 27.09375 42.890625 30.859375 
Q 38.875 34.625 31.78125 34.625 
z
M 21.921875 38.8125 
Q 15.578125 40.375 12.03125 44.71875 
Q 8.5 49.078125 8.5 55.328125 
Q 8.5 64.0625 14.71875 69.140625 
Q 20.953125 74.21875 31.78125 74.21875 
Q 42.671875 74.21875 48.875 69.140625 
Q 55.078125 64.0625 55.078125 55.328125 
Q 55.078125 49.078125 51.53125 44.71875 
Q 48 40.375 41.703125 38.8125 
Q 48.828125 37.15625 52.796875 32.3125 
Q 56.78125 27.484375 56.78125 20.515625 
Q 56.78125 9.90625 50.3125 4.234375 
Q 43.84375 -1.421875 31.78125 -1.421875 
Q 19.734375 -1.421875 13.25 4.234375 
Q 6.78125 9.90625 6.78125 20.515625 
Q 6.78125 27.484375 10.78125 32.3125 
Q 14.796875 37.15625 21.921875 38.8125 
z
M 18.3125 54.390625 
Q 18.3125 48.734375 21.84375 45.5625 
Q 25.390625 42.390625 31.78125 42.390625 
Q 38.140625 42.390625 41.71875 45.5625 
Q 45.3125 48.734375 45.3125 54.390625 
Q 45.3125 60.0625 41.71875 63.234375 
Q 38.140625 66.40625 31.78125 66.40625 
Q 25.390625 66.40625 21.84375 63.234375 
Q 18.3125 60.0625 18.3125 54.390625 
z
" id="DejaVuSans-56"/>
      </defs>
      <use xlink:href="#DejaVuSans-56"/>
     </g>
    </g>
   </g>
  </g>
  <g id="axis3d_2">
   <g id="line2d_7">
    <path d="M 316.12668 171.68791 
L 251.239879 238.27773 
" style="fill:none;stroke:#000000;stroke-linecap:square;stroke-width:0.8;"/>
   </g>
   <g id="Line3DCollection_2">
    <path d="M 129.866948 102.505071 
L 134.046245 194.238731 
L 255.729543 233.67023 
" style="fill:none;stroke:#b0b0b0;stroke-width:0.8;"/>
    <path d="M 147.250212 89.819556 
L 150.59591 180.366474 
L 270.72626 218.279909 
" style="fill:none;stroke:#b0b0b0;stroke-width:0.8;"/>
    <path d="M 163.958537 77.626582 
L 166.530371 167.009893 
L 285.136664 203.491289 
" style="fill:none;stroke:#b0b0b0;stroke-width:0.8;"/>
    <path d="M 180.030483 65.898008 
L 181.883306 154.140758 
L 298.994481 189.269761 
" style="fill:none;stroke:#b0b0b0;stroke-width:0.8;"/>
    <path d="M 195.501727 54.607799 
L 196.68598 141.732864 
L 312.330896 175.583317 
" style="fill:none;stroke:#b0b0b0;stroke-width:0.8;"/>
   </g>
   <g id="xtick_6">
    <g id="line2d_8">
     <path d="M 254.704115 233.337939 
L 257.783053 234.33567 
" style="fill:none;stroke:#000000;stroke-linecap:square;stroke-width:0.8;"/>
    </g>
    <g id="text_6">
     <!-- 0 -->
     <g transform="translate(265.430654 254.693759)scale(0.1 -0.1)">
      <use xlink:href="#DejaVuSans-48"/>
     </g>
    </g>
   </g>
   <g id="xtick_7">
    <g id="line2d_9">
     <path d="M 269.71494 217.960734 
L 272.751463 218.919068 
" style="fill:none;stroke:#000000;stroke-linecap:square;stroke-width:0.8;"/>
    </g>
    <g id="text_7">
     <!-- 2 -->
     <g transform="translate(280.181112 239.024526)scale(0.1 -0.1)">
      <use xlink:href="#DejaVuSans-50"/>
     </g>
    </g>
   </g>
   <g id="xtick_8">
    <g id="line2d_10">
     <path d="M 284.139145 203.184468 
L 287.134182 204.105694 
" style="fill:none;stroke:#000000;stroke-linecap:square;stroke-width:0.8;"/>
    </g>
    <g id="text_8">
     <!-- 4 -->
     <g transform="translate(294.35448 223.968328)scale(0.1 -0.1)">
      <use xlink:href="#DejaVuSans-52"/>
     </g>
    </g>
   </g>
   <g id="xtick_9">
    <g id="line2d_11">
     <path d="M 298.010457 188.97459 
L 300.964927 189.860821 
" style="fill:none;stroke:#000000;stroke-linecap:square;stroke-width:0.8;"/>
    </g>
    <g id="text_9">
     <!-- 6 -->
     <g transform="translate(307.983974 209.489882)scale(0.1 -0.1)">
      <use xlink:href="#DejaVuSans-54"/>
     </g>
    </g>
   </g>
   <g id="xtick_10">
    <g id="line2d_12">
     <path d="M 311.360068 175.299146 
L 314.274875 176.15234 
" style="fill:none;stroke:#000000;stroke-linecap:square;stroke-width:0.8;"/>
    </g>
    <g id="text_10">
     <!-- 8 -->
     <g transform="translate(321.10031 195.556556)scale(0.1 -0.1)">
      <use xlink:href="#DejaVuSans-56"/>
     </g>
    </g>
   </g>
  </g>
  <g id="axis3d_3">
   <g id="line2d_13">
    <path d="M 316.12668 171.68791 
L 320.238571 81.894718 
" style="fill:none;stroke:#000000;stroke-linecap:square;stroke-width:0.8;"/>
   </g>
   <g id="Line3DCollection_3">
    <path d="M 316.205459 169.967571 
L 200.884845 136.530725 
L 129.013401 196.624949 
" style="fill:none;stroke:#b0b0b0;stroke-width:0.8;"/>
    <path d="M 317.177987 148.730061 
L 200.648401 115.968916 
L 127.965866 174.87221 
" style="fill:none;stroke:#b0b0b0;stroke-width:0.8;"/>
    <path d="M 318.171325 127.038089 
L 200.407141 94.988301 
L 126.895052 152.636074 
" style="fill:none;stroke:#b0b0b0;stroke-width:0.8;"/>
    <path d="M 319.18615 104.876909 
L 200.160916 73.575953 
L 125.800176 129.900245 
" style="fill:none;stroke:#b0b0b0;stroke-width:0.8;"/>
   </g>
   <g id="xtick_11">
    <g id="line2d_14">
     <path d="M 315.237563 169.686933 
L 318.143556 170.529516 
" style="fill:none;stroke:#000000;stroke-linecap:square;stroke-width:0.8;"/>
    </g>
    <g id="text_11">
     <!-- 0 -->
     <g transform="translate(331.275915 174.966846)scale(0.1 -0.1)">
      <use xlink:href="#DejaVuSans-48"/>
     </g>
    </g>
   </g>
   <g id="xtick_12">
    <g id="line2d_15">
     <path d="M 316.199458 148.454958 
L 319.137397 149.28093 
" style="fill:none;stroke:#000000;stroke-linecap:square;stroke-width:0.8;"/>
    </g>
    <g id="text_12">
     <!-- 10000 -->
     <g transform="translate(319.712336 153.780687)scale(0.1 -0.1)">
      <defs>
       <path d="M 12.40625 8.296875 
L 28.515625 8.296875 
L 28.515625 63.921875 
L 10.984375 60.40625 
L 10.984375 69.390625 
L 28.421875 72.90625 
L 38.28125 72.90625 
L 38.28125 8.296875 
L 54.390625 8.296875 
L 54.390625 0 
L 12.40625 0 
z
" id="DejaVuSans-49"/>
      </defs>
      <use xlink:href="#DejaVuSans-49"/>
      <use x="63.623047" xlink:href="#DejaVuSans-48"/>
      <use x="127.246094" xlink:href="#DejaVuSans-48"/>
      <use x="190.869141" xlink:href="#DejaVuSans-48"/>
      <use x="254.492188" xlink:href="#DejaVuSans-48"/>
     </g>
    </g>
   </g>
   <g id="xtick_13">
    <g id="line2d_16">
     <path d="M 317.181929 126.768823 
L 320.152522 127.577276 
" style="fill:none;stroke:#000000;stroke-linecap:square;stroke-width:0.8;"/>
    </g>
    <g id="text_13">
     <!-- 20000 -->
     <g transform="translate(320.898517 132.142863)scale(0.1 -0.1)">
      <use xlink:href="#DejaVuSans-50"/>
      <use x="63.623047" xlink:href="#DejaVuSans-48"/>
      <use x="127.246094" xlink:href="#DejaVuSans-48"/>
      <use x="190.869141" xlink:href="#DejaVuSans-48"/>
      <use x="254.492188" xlink:href="#DejaVuSans-48"/>
     </g>
    </g>
   </g>
   <g id="xtick_14">
    <g id="line2d_17">
     <path d="M 318.185643 104.613799 
L 321.189623 105.403778 
" style="fill:none;stroke:#000000;stroke-linecap:square;stroke-width:0.8;"/>
    </g>
    <g id="text_14">
     <!-- 30000 -->
     <g transform="translate(322.110258 110.038777)scale(0.1 -0.1)">
      <defs>
       <path d="M 40.578125 39.3125 
Q 47.65625 37.796875 51.625 33 
Q 55.609375 28.21875 55.609375 21.1875 
Q 55.609375 10.40625 48.1875 4.484375 
Q 40.765625 -1.421875 27.09375 -1.421875 
Q 22.515625 -1.421875 17.65625 -0.515625 
Q 12.796875 0.390625 7.625 2.203125 
L 7.625 11.71875 
Q 11.71875 9.328125 16.59375 8.109375 
Q 21.484375 6.890625 26.8125 6.890625 
Q 36.078125 6.890625 40.9375 10.546875 
Q 45.796875 14.203125 45.796875 21.1875 
Q 45.796875 27.640625 41.28125 31.265625 
Q 36.765625 34.90625 28.71875 34.90625 
L 20.21875 34.90625 
L 20.21875 43.015625 
L 29.109375 43.015625 
Q 36.375 43.015625 40.234375 45.921875 
Q 44.09375 48.828125 44.09375 54.296875 
Q 44.09375 59.90625 40.109375 62.90625 
Q 36.140625 65.921875 28.71875 65.921875 
Q 24.65625 65.921875 20.015625 65.03125 
Q 15.375 64.15625 9.8125 62.3125 
L 9.8125 71.09375 
Q 15.4375 72.65625 20.34375 73.4375 
Q 25.25 74.21875 29.59375 74.21875 
Q 40.828125 74.21875 47.359375 69.109375 
Q 53.90625 64.015625 53.90625 55.328125 
Q 53.90625 49.265625 50.4375 45.09375 
Q 46.96875 40.921875 40.578125 39.3125 
z
" id="DejaVuSans-51"/>
      </defs>
      <use xlink:href="#DejaVuSans-51"/>
      <use x="63.623047" xlink:href="#DejaVuSans-48"/>
      <use x="127.246094" xlink:href="#DejaVuSans-48"/>
      <use x="190.869141" xlink:href="#DejaVuSans-48"/>
      <use x="254.492188" xlink:href="#DejaVuSans-48"/>
     </g>
    </g>
   </g>
  </g>
  <g id="axes_1">
   <g id="Poly3DCollection_1">
    <path clip-path="url(#p2df7dd3115)" d="M 203.700438 142.115361 
L 203.692953 141.377715 
L 215.860812 144.926807 
L 215.863902 145.66701 
z
" style="fill:#070339;"/>
    <path clip-path="url(#p2df7dd3115)" d="M 196.401162 148.290596 
L 196.390938 147.548513 
L 203.692953 141.377715 
L 203.700438 142.115361 
z
" style="fill:#0e0678;"/>
    <path clip-path="url(#p2df7dd3115)" d="M 196.401162 148.290596 
L 203.700438 142.115361 
L 215.863902 145.66701 
L 208.637156 151.907182 
z
" style="fill:#090449;"/>
    <path clip-path="url(#p2df7dd3115)" d="M 196.390938 147.548513 
L 208.63138 151.162518 
L 215.860812 144.926807 
L 203.692953 141.377715 
z
" style="fill:#0c0668;"/>
    <path clip-path="url(#p2df7dd3115)" d="M 215.863902 145.66701 
L 215.854178 143.337161 
L 228.159427 146.917986 
L 228.155024 149.255935 
z
" style="fill:#0d023b;"/>
    <path clip-path="url(#p2df7dd3115)" d="M 208.637156 151.907182 
L 215.863902 145.66701 
L 215.860812 144.926807 
L 208.63138 151.162518 
z
" style="fill:#070339;"/>
    <path clip-path="url(#p2df7dd3115)" d="M 208.637156 151.907182 
L 208.618975 149.563276 
L 215.854178 143.337161 
L 215.863902 145.66701 
z
" style="fill:#1c057e;"/>
    <path clip-path="url(#p2df7dd3115)" d="M 196.401162 148.290596 
L 196.39416 147.782334 
L 208.6332 151.397153 
L 208.637156 151.907182 
z
" style="fill:#070339;"/>
    <path clip-path="url(#p2df7dd3115)" d="M 196.401162 148.290596 
L 208.637156 151.907182 
L 208.63138 151.162518 
L 196.390938 147.548513 
z
" style="fill:#0e0678;"/>
    <path clip-path="url(#p2df7dd3115)" d="M 208.637156 151.907182 
L 215.863902 145.66701 
L 228.155024 149.255935 
L 221.002748 155.562072 
z
" style="fill:#11034c;"/>
    <path clip-path="url(#p2df7dd3115)" d="M 208.618975 149.563276 
L 220.998865 153.209994 
L 228.159427 146.917986 
L 215.854178 143.337161 
z
" style="fill:#18046d;"/>
    <path clip-path="url(#p2df7dd3115)" d="M 188.96817 154.578956 
L 188.959224 154.067628 
L 196.39416 147.782334 
L 196.401162 148.290596 
z
" style="fill:#0e0678;"/>
    <path clip-path="url(#p2df7dd3115)" d="M 221.002748 155.562072 
L 228.155024 149.255935 
L 228.159427 146.917986 
L 220.998865 153.209994 
z
" style="fill:#0d023b;"/>
    <path clip-path="url(#p2df7dd3115)" d="M 188.96817 154.578956 
L 196.401162 148.290596 
L 208.637156 151.907182 
L 201.27732 158.262275 
z
" style="fill:#090449;"/>
    <path clip-path="url(#p2df7dd3115)" d="M 188.959224 154.067628 
L 201.271456 157.749164 
L 208.6332 151.397153 
L 196.39416 147.782334 
z
" style="fill:#0c0668;"/>
    <path clip-path="url(#p2df7dd3115)" d="M 208.637156 151.907182 
L 208.62068 149.783104 
L 220.999229 153.430589 
L 221.002748 155.562072 
z
" style="fill:#0c033b;"/>
    <path clip-path="url(#p2df7dd3115)" d="M 208.637156 151.907182 
L 221.002748 155.562072 
L 220.998865 153.209994 
L 208.618975 149.563276 
z
" style="fill:#1c057e;"/>
    <path clip-path="url(#p2df7dd3115)" d="M 221.002748 155.562072 
L 228.155024 149.255935 
L 240.575825 152.882725 
L 233.500008 159.25588 
z
" style="fill:#520c55;"/>
    <path clip-path="url(#p2df7dd3115)" d="M 201.27732 158.262275 
L 208.637156 151.907182 
L 208.6332 151.397153 
L 201.271456 157.749164 
z
" style="fill:#070339;"/>
    <path clip-path="url(#p2df7dd3115)" d="M 201.27732 158.262275 
L 201.252898 156.125347 
L 208.62068 149.783104 
L 208.637156 151.907182 
z
" style="fill:#1a057d;"/>
    <path clip-path="url(#p2df7dd3115)" d="M 228.155024 149.255935 
L 228.206383 121.981707 
L 240.795492 125.511735 
L 240.575825 152.882725 
z
" style="fill:#400942;"/>
    <path clip-path="url(#p2df7dd3115)" d="M 188.96817 154.578956 
L 188.961777 154.213526 
L 201.273129 157.895571 
L 201.27732 158.262275 
z
" style="fill:#050338;"/>
    <path clip-path="url(#p2df7dd3115)" d="M 188.96817 154.578956 
L 201.27732 158.262275 
L 201.271456 157.749164 
L 188.959224 154.067628 
z
" style="fill:#0e0678;"/>
    <path clip-path="url(#p2df7dd3115)" d="M 201.27732 158.262275 
L 208.637156 151.907182 
L 221.002748 155.562072 
L 213.718049 161.984967 
z
" style="fill:#10034c;"/>
    <path clip-path="url(#p2df7dd3115)" d="M 221.002748 155.562072 
L 220.957445 128.119921 
L 228.206383 121.981707 
L 228.155024 149.255935 
z
" style="fill:#88138c;"/>
    <path clip-path="url(#p2df7dd3115)" d="M 201.252898 156.125347 
L 213.706741 159.840569 
L 220.999229 153.430589 
L 208.62068 149.783104 
z
" style="fill:#17056d;"/>
    <path clip-path="url(#p2df7dd3115)" d="M 181.397755 160.983577 
L 181.389921 160.615937 
L 188.961777 154.213526 
L 188.96817 154.578956 
z
" style="fill:#0b0777;"/>
    <path clip-path="url(#p2df7dd3115)" d="M 233.500008 159.25588 
L 240.575825 152.882725 
L 253.128369 156.547983 
L 246.131049 162.989229 
z
" style="fill:#867213;"/>
    <path clip-path="url(#p2df7dd3115)" d="M 213.718049 161.984967 
L 221.002748 155.562072 
L 220.999229 153.430589 
L 213.706741 159.840569 
z
" style="fill:#0c033b;"/>
    <path clip-path="url(#p2df7dd3115)" d="M 181.397755 160.983577 
L 188.96817 154.578956 
L 201.27732 158.262275 
L 193.780682 164.735494 
z
" style="fill:#070448;"/>
    <path clip-path="url(#p2df7dd3115)" d="M 181.389921 160.615937 
L 193.775077 164.366569 
L 201.273129 157.895571 
L 188.961777 154.213526 
z
" style="fill:#0a0667;"/>
    <path clip-path="url(#p2df7dd3115)" d="M 201.27732 158.262275 
L 201.258169 156.586552 
L 213.709182 160.303388 
L 213.718049 161.984967 
z
" style="fill:#0a033a;"/>
    <path clip-path="url(#p2df7dd3115)" d="M 201.27732 158.262275 
L 213.718049 161.984967 
L 213.706741 159.840569 
L 201.252898 156.125347 
z
" style="fill:#1a057d;"/>
    <path clip-path="url(#p2df7dd3115)" d="M 213.718049 161.984967 
L 221.002748 155.562072 
L 233.500008 159.25588 
L 226.292478 165.747667 
z
" style="fill:#540d54;"/>
    <path clip-path="url(#p2df7dd3115)" d="M 233.500008 159.25588 
L 240.575825 152.882725 
L 240.795492 125.511735 
L 233.625108 131.716071 
z
" style="fill:#400942;"/>
    <path clip-path="url(#p2df7dd3115)" d="M 193.780682 164.735494 
L 201.27732 158.262275 
L 201.273129 157.895571 
L 193.775077 164.366569 
z
" style="fill:#050338;"/>
    <path clip-path="url(#p2df7dd3115)" d="M 246.131049 162.989229 
L 253.128369 156.547983 
L 265.814761 160.252323 
L 258.898031 166.762758 
z
" style="fill:#867014;"/>
    <path clip-path="url(#p2df7dd3115)" d="M 193.780682 164.735494 
L 193.755069 163.049609 
L 201.258169 156.586552 
L 201.27732 158.262275 
z
" style="fill:#16067b;"/>
    <path clip-path="url(#p2df7dd3115)" d="M 221.002748 155.562072 
L 233.500008 159.25588 
L 233.625108 131.716071 
L 220.957445 128.119921 
z
" style="fill:#88138c;"/>
    <path clip-path="url(#p2df7dd3115)" d="M 221.002748 155.562072 
L 220.956235 127.387066 
L 233.628449 130.980554 
L 233.500008 159.25588 
z
" style="fill:#410a42;"/>
    <path clip-path="url(#p2df7dd3115)" d="M 181.397755 160.983577 
L 193.780682 164.735494 
L 193.775077 164.366569 
L 181.389921 160.615937 
z
" style="fill:#0b0777;"/>
    <path clip-path="url(#p2df7dd3115)" d="M 181.397755 160.983577 
L 181.389591 160.600461 
L 193.774841 164.351039 
L 193.780682 164.735494 
z
" style="fill:#050338;"/>
    <path clip-path="url(#p2df7dd3115)" d="M 193.780682 164.735494 
L 201.27732 158.262275 
L 213.718049 161.984967 
L 206.297214 168.527892 
z
" style="fill:#0d034a;"/>
    <path clip-path="url(#p2df7dd3115)" d="M 220.957445 128.119921 
L 233.625108 131.716071 
L 240.795492 125.511735 
L 228.206383 121.981707 
z
" style="fill:#76117a;"/>
    <path clip-path="url(#p2df7dd3115)" d="M 213.718049 161.984967 
L 213.568566 133.635865 
L 220.956235 127.387066 
L 221.002748 155.562072 
z
" style="fill:#8b158b;"/>
    <path clip-path="url(#p2df7dd3115)" d="M 193.755069 163.049609 
L 206.28201 166.836101 
L 213.709182 160.303388 
L 201.258169 156.586552 
z
" style="fill:#13056b;"/>
    <path clip-path="url(#p2df7dd3115)" d="M 173.686069 167.507715 
L 173.676349 167.122275 
L 181.389591 160.600461 
L 181.397755 160.983577 
z
" style="fill:#0b0777;"/>
    <path clip-path="url(#p2df7dd3115)" d="M 226.292478 165.747667 
L 233.500008 159.25588 
L 246.131049 162.989229 
L 239.002775 169.551023 
z
" style="fill:#808512;"/>
    <path clip-path="url(#p2df7dd3115)" d="M 258.898031 166.762758 
L 265.814761 160.252323 
L 278.637155 163.996376 
L 271.803162 170.57712 
z
" style="fill:#500a56;"/>
    <path clip-path="url(#p2df7dd3115)" d="M 206.297214 168.527892 
L 213.718049 161.984967 
L 213.709182 160.303388 
L 206.28201 166.836101 
z
" style="fill:#0a033a;"/>
    <path clip-path="url(#p2df7dd3115)" d="M 173.686069 167.507715 
L 181.397755 160.983577 
L 193.780682 164.735494 
L 186.143392 171.330164 
z
" style="fill:#070448;"/>
    <path clip-path="url(#p2df7dd3115)" d="M 278.637155 163.996376 
L 278.690434 162.022031 
L 291.664102 165.79952 
L 291.597749 167.780781 
z
" style="fill:#0b033b;"/>
    <path clip-path="url(#p2df7dd3115)" d="M 173.676349 167.122275 
L 186.136023 170.943373 
L 193.774841 164.351039 
L 181.389591 160.600461 
z
" style="fill:#0a0667;"/>
    <path clip-path="url(#p2df7dd3115)" d="M 265.814761 160.252323 
L 266.358426 133.828842 
L 279.352758 137.478737 
L 278.637155 163.996376 
z
" style="fill:#3f0843;"/>
    <path clip-path="url(#p2df7dd3115)" d="M 193.780682 164.735494 
L 193.762182 163.517773 
L 206.286232 167.305906 
L 206.297214 168.527892 
z
" style="fill:#09033a;"/>
    <path clip-path="url(#p2df7dd3115)" d="M 193.780682 164.735494 
L 206.297214 168.527892 
L 206.28201 166.836101 
L 193.755069 163.049609 
z
" style="fill:#16067b;"/>
    <path clip-path="url(#p2df7dd3115)" d="M 206.297214 168.527892 
L 213.718049 161.984967 
L 226.292478 165.747667 
L 218.949524 172.361429 
z
" style="fill:#4f0956;"/>
    <path clip-path="url(#p2df7dd3115)" d="M 226.292478 165.747667 
L 233.500008 159.25588 
L 233.628449 130.980554 
L 226.320132 137.297324 
z
" style="fill:#410a42;"/>
    <path clip-path="url(#p2df7dd3115)" d="M 271.803162 170.57712 
L 271.850173 168.590773 
L 278.690434 162.022031 
L 278.637155 163.996376 
z
" style="fill:#18057c;"/>
    <path clip-path="url(#p2df7dd3115)" d="M 240.575825 152.882725 
L 241.195611 75.655837 
L 254.233339 79.036494 
L 253.128369 156.547983 
z
" style="fill:#69590f;"/>
    <path clip-path="url(#p2df7dd3115)" d="M 186.143392 171.330164 
L 193.780682 164.735494 
L 193.774841 164.351039 
L 186.136023 170.943373 
z
" style="fill:#050338;"/>
    <path clip-path="url(#p2df7dd3115)" d="M 258.898031 166.762758 
L 259.355311 140.175879 
L 266.358426 133.828842 
L 265.814761 160.252323 
z
" style="fill:#85108e;"/>
    <path clip-path="url(#p2df7dd3115)" d="M 239.002775 169.551023 
L 246.131049 162.989229 
L 258.898031 166.762758 
L 251.851153 173.395697 
z
" style="fill:#808512;"/>
    <path clip-path="url(#p2df7dd3115)" d="M 186.143392 171.330164 
L 186.120051 170.105042 
L 193.762182 163.517773 
L 193.780682 164.735494 
z
" style="fill:#13067a;"/>
    <path clip-path="url(#p2df7dd3115)" d="M 213.718049 161.984967 
L 213.582052 136.19341 
L 226.317637 139.864179 
L 226.292478 165.747667 
z
" style="fill:#3e0743;"/>
    <path clip-path="url(#p2df7dd3115)" d="M 213.718049 161.984967 
L 226.292478 165.747667 
L 226.320132 137.297324 
L 213.568566 133.635865 
z
" style="fill:#8b158b;"/>
    <path clip-path="url(#p2df7dd3115)" d="M 271.803162 170.57712 
L 278.637155 163.996376 
L 291.597749 167.780781 
L 284.848695 174.43298 
z
" style="fill:#0e034b;"/>
    <path clip-path="url(#p2df7dd3115)" d="M 233.500008 159.25588 
L 233.853057 81.535007 
L 241.195611 75.655837 
L 240.575825 152.882725 
z
" style="fill:#debc20;"/>
    <path clip-path="url(#p2df7dd3115)" d="M 173.686069 167.507715 
L 173.678672 167.214396 
L 186.137784 171.035817 
L 186.143392 171.330164 
z
" style="fill:#050338;"/>
    <path clip-path="url(#p2df7dd3115)" d="M 173.686069 167.507715 
L 186.143392 171.330164 
L 186.136023 170.943373 
L 173.676349 167.122275 
z
" style="fill:#0b0777;"/>
    <path clip-path="url(#p2df7dd3115)" d="M 291.597749 167.780781 
L 291.612393 167.343502 
L 304.716381 171.167385 
L 304.698789 171.606197 
z
" style="fill:#050338;"/>
    <path clip-path="url(#p2df7dd3115)" d="M 206.297214 168.527892 
L 206.064004 142.576802 
L 213.582052 136.19341 
L 213.718049 161.984967 
z
" style="fill:#820e8f;"/>
    <path clip-path="url(#p2df7dd3115)" d="M 271.850173 168.590773 
L 284.908953 172.439657 
L 291.664102 165.79952 
L 278.690434 162.022031 
z
" style="fill:#15056c;"/>
    <path clip-path="url(#p2df7dd3115)" d="M 186.143392 171.330164 
L 193.780682 164.735494 
L 206.297214 168.527892 
L 198.736391 175.194243 
z
" style="fill:#0c044a;"/>
    <path clip-path="url(#p2df7dd3115)" d="M 186.120051 170.105042 
L 198.720661 173.964821 
L 206.286232 167.305906 
L 193.762182 163.517773 
z
" style="fill:#11056a;"/>
    <path clip-path="url(#p2df7dd3115)" d="M 213.568566 133.635865 
L 226.320132 137.297324 
L 233.628449 130.980554 
L 220.956235 127.387066 
z
" style="fill:#781279;"/>
    <path clip-path="url(#p2df7dd3115)" d="M 165.82912 174.154745 
L 165.820496 173.859643 
L 173.678672 167.214396 
L 173.686069 167.507715 
z
" style="fill:#0b0777;"/>
    <path clip-path="url(#p2df7dd3115)" d="M 218.949524 172.361429 
L 226.292478 165.747667 
L 239.002775 169.551023 
L 231.739835 176.23678 
z
" style="fill:#857714;"/>
    <path clip-path="url(#p2df7dd3115)" d="M 284.848695 174.43298 
L 284.861994 173.993042 
L 291.612393 167.343502 
L 291.597749 167.780781 
z
" style="fill:#0b0777;"/>
    <path clip-path="url(#p2df7dd3115)" d="M 284.848695 174.43298 
L 291.597749 167.780781 
L 291.664102 165.79952 
L 284.908953 172.439657 
z
" style="fill:#0b033b;"/>
    <path clip-path="url(#p2df7dd3115)" d="M 253.128369 156.547983 
L 254.225104 79.614147 
L 267.403522 83.034495 
L 265.814761 160.252323 
z
" style="fill:#69570f;"/>
    <path clip-path="url(#p2df7dd3115)" d="M 271.803162 170.57712 
L 278.637155 163.996376 
L 279.352758 137.478737 
L 272.43464 143.895229 
z
" style="fill:#3f0843;"/>
    <path clip-path="url(#p2df7dd3115)" d="M 251.851153 173.395697 
L 258.898031 166.762758 
L 271.803162 170.57712 
L 264.839875 177.282368 
z
" style="fill:#571052;"/>
    <path clip-path="url(#p2df7dd3115)" d="M 198.736391 175.194243 
L 206.297214 168.527892 
L 206.286232 167.305906 
L 198.720661 173.964821 
z
" style="fill:#09033a;"/>
    <path clip-path="url(#p2df7dd3115)" d="M 165.82912 174.154745 
L 173.686069 167.507715 
L 186.143392 171.330164 
L 178.361455 178.049733 
z
" style="fill:#070448;"/>
    <path clip-path="url(#p2df7dd3115)" d="M 271.803162 170.57712 
L 271.840826 168.985711 
L 284.896972 172.835984 
L 284.848695 174.43298 
z
" style="fill:#0a033a;"/>
    <path clip-path="url(#p2df7dd3115)" d="M 271.803162 170.57712 
L 284.848695 174.43298 
L 284.908953 172.439657 
L 271.850173 168.590773 
z
" style="fill:#18057c;"/>
    <path clip-path="url(#p2df7dd3115)" d="M 165.820496 173.859643 
L 178.354641 177.753595 
L 186.137784 171.035817 
L 173.678672 167.214396 
z
" style="fill:#0a0667;"/>
    <path clip-path="url(#p2df7dd3115)" d="M 284.848695 174.43298 
L 291.597749 167.780781 
L 304.698789 171.606197 
L 298.036935 178.33102 
z
" style="fill:#070448;"/>
    <path clip-path="url(#p2df7dd3115)" d="M 246.131049 162.989229 
L 246.969218 85.562468 
L 254.225104 79.614147 
L 253.128369 156.547983 
z
" style="fill:#deb920;"/>
    <path clip-path="url(#p2df7dd3115)" d="M 284.861994 173.993042 
L 298.053221 177.889537 
L 304.716381 171.167385 
L 291.612393 167.343502 
z
" style="fill:#0a0667;"/>
    <path clip-path="url(#p2df7dd3115)" d="M 246.131049 162.989229 
L 253.128369 156.547983 
L 254.233339 79.036494 
L 246.975514 84.980907 
z
" style="fill:#69590f;"/>
    <path clip-path="url(#p2df7dd3115)" d="M 258.898031 166.762758 
L 271.803162 170.57712 
L 272.43464 143.895229 
L 259.355311 140.175879 
z
" style="fill:#85108e;"/>
    <path clip-path="url(#p2df7dd3115)" d="M 186.143392 171.330164 
L 186.130816 170.670053 
L 198.727915 174.531816 
L 198.736391 175.194243 
z
" style="fill:#070339;"/>
    <path clip-path="url(#p2df7dd3115)" d="M 186.143392 171.330164 
L 198.736391 175.194243 
L 198.720661 173.964821 
L 186.120051 170.105042 
z
" style="fill:#13067a;"/>
    <path clip-path="url(#p2df7dd3115)" d="M 218.949524 172.361429 
L 226.292478 165.747667 
L 226.317637 139.864179 
L 218.879482 146.317579 
z
" style="fill:#3e0743;"/>
    <path clip-path="url(#p2df7dd3115)" d="M 198.736391 175.194243 
L 206.297214 168.527892 
L 218.949524 172.361429 
L 211.467294 179.100638 
z
" style="fill:#4a0558;"/>
    <path clip-path="url(#p2df7dd3115)" d="M 258.898031 166.762758 
L 259.41083 136.947913 
L 272.511315 140.655467 
L 271.803162 170.57712 
z
" style="fill:#440c40;"/>
    <path clip-path="url(#p2df7dd3115)" d="M 264.839875 177.282368 
L 264.872317 175.681264 
L 271.840826 168.985711 
L 271.803162 170.57712 
z
" style="fill:#16067b;"/>
    <path clip-path="url(#p2df7dd3115)" d="M 206.297214 168.527892 
L 206.08491 144.903197 
L 218.885762 148.652439 
L 218.949524 172.361429 
z
" style="fill:#390445;"/>
    <path clip-path="url(#p2df7dd3115)" d="M 233.500008 159.25588 
L 246.131049 162.989229 
L 246.975514 84.980907 
L 233.853057 81.535007 
z
" style="fill:#debc20;"/>
    <path clip-path="url(#p2df7dd3115)" d="M 259.355311 140.175879 
L 272.43464 143.895229 
L 279.352758 137.478737 
L 266.358426 133.828842 
z
" style="fill:#730e7b;"/>
    <path clip-path="url(#p2df7dd3115)" d="M 178.361455 178.049733 
L 186.143392 171.330164 
L 186.137784 171.035817 
L 178.354641 177.753595 
z
" style="fill:#050338;"/>
    <path clip-path="url(#p2df7dd3115)" d="M 178.361455 178.049733 
L 178.346173 177.385603 
L 186.130816 170.670053 
L 186.143392 171.330164 
z
" style="fill:#0e0678;"/>
    <path clip-path="url(#p2df7dd3115)" d="M 231.739835 176.23678 
L 239.002775 169.551023 
L 251.851153 173.395697 
L 244.670417 180.154631 
z
" style="fill:#867213;"/>
    <path clip-path="url(#p2df7dd3115)" d="M 206.297214 168.527892 
L 218.949524 172.361429 
L 218.879482 146.317579 
L 206.064004 142.576802 
z
" style="fill:#820e8f;"/>
    <path clip-path="url(#p2df7dd3115)" d="M 298.036935 178.33102 
L 304.698789 171.606197 
L 304.716381 171.167385 
L 298.053221 177.889537 
z
" style="fill:#050338;"/>
    <path clip-path="url(#p2df7dd3115)" d="M 251.851153 173.395697 
L 252.263288 143.395503 
L 259.41083 136.947913 
L 258.898031 166.762758 
z
" style="fill:#901a88;"/>
    <path clip-path="url(#p2df7dd3115)" d="M 264.839875 177.282368 
L 271.803162 170.57712 
L 284.848695 174.43298 
L 277.971253 181.211726 
z
" style="fill:#0d034a;"/>
    <path clip-path="url(#p2df7dd3115)" d="M 233.500008 159.25588 
L 233.887229 74.012366 
L 247.057268 77.428735 
L 246.131049 162.989229 
z
" style="fill:#64680e;"/>
    <path clip-path="url(#p2df7dd3115)" d="M 198.736391 175.194243 
L 198.432238 151.423269 
L 206.08491 144.903197 
L 206.297214 168.527892 
z
" style="fill:#7a0892;"/>
    <path clip-path="url(#p2df7dd3115)" d="M 165.82912 174.154745 
L 165.822054 173.912971 
L 178.355873 177.807111 
L 178.361455 178.049733 
z
" style="fill:#050338;"/>
    <path clip-path="url(#p2df7dd3115)" d="M 165.82912 174.154745 
L 178.361455 178.049733 
L 178.354641 177.753595 
L 165.820496 173.859643 
z
" style="fill:#0b0777;"/>
    <path clip-path="url(#p2df7dd3115)" d="M 206.064004 142.576802 
L 218.879482 146.317579 
L 226.317637 139.864179 
L 213.582052 136.19341 
z
" style="fill:#710d7c;"/>
    <path clip-path="url(#p2df7dd3115)" d="M 264.872317 175.681264 
L 278.01445 179.604987 
L 284.896972 172.835984 
L 271.840826 168.985711 
z
" style="fill:#13056b;"/>
    <path clip-path="url(#p2df7dd3115)" d="M 284.848695 174.43298 
L 284.860043 174.057592 
L 298.050831 177.954313 
L 298.036935 178.33102 
z
" style="fill:#050338;"/>
    <path clip-path="url(#p2df7dd3115)" d="M 284.848695 174.43298 
L 298.036935 178.33102 
L 298.053221 177.889537 
L 284.861994 173.993042 
z
" style="fill:#0b0777;"/>
    <path clip-path="url(#p2df7dd3115)" d="M 178.361455 178.049733 
L 186.143392 171.330164 
L 198.736391 175.194243 
L 191.031582 181.987547 
z
" style="fill:#090449;"/>
    <path clip-path="url(#p2df7dd3115)" d="M 178.346173 177.385603 
L 191.020451 181.321081 
L 198.727915 174.531816 
L 186.130816 170.670053 
z
" style="fill:#0c0668;"/>
    <path clip-path="url(#p2df7dd3115)" d="M 258.898031 166.762758 
L 265.814761 160.252323 
L 267.403522 83.034495 
L 260.234662 89.049176 
z
" style="fill:#69570f;"/>
    <path clip-path="url(#p2df7dd3115)" d="M 226.292478 165.747667 
L 226.375871 79.95396 
L 233.887229 74.012366 
L 233.500008 159.25588 
z
" style="fill:#d4dc1e;"/>
    <path clip-path="url(#p2df7dd3115)" d="M 157.822766 180.928173 
L 157.814657 180.684926 
L 165.822054 173.912971 
L 165.82912 174.154745 
z
" style="fill:#0b0777;"/>
    <path clip-path="url(#p2df7dd3115)" d="M 211.467294 179.100638 
L 218.949524 172.361429 
L 231.739835 176.23678 
L 224.338378 183.050047 
z
" style="fill:#876517;"/>
    <path clip-path="url(#p2df7dd3115)" d="M 277.971253 181.211726 
L 277.981407 180.834049 
L 284.860043 174.057592 
L 284.848695 174.43298 
z
" style="fill:#0b0777;"/>
    <path clip-path="url(#p2df7dd3115)" d="M 277.971253 181.211726 
L 284.848695 174.43298 
L 284.896972 172.835984 
L 278.01445 179.604987 
z
" style="fill:#0a033a;"/>
    <path clip-path="url(#p2df7dd3115)" d="M 246.131049 162.989229 
L 258.898031 166.762758 
L 260.234662 89.049176 
L 246.969218 85.562468 
z
" style="fill:#deb920;"/>
    <path clip-path="url(#p2df7dd3115)" d="M 191.031582 181.987547 
L 198.736391 175.194243 
L 198.727915 174.531816 
L 191.020451 181.321081 
z
" style="fill:#070339;"/>
    <path clip-path="url(#p2df7dd3115)" d="M 244.670417 180.154631 
L 251.851153 173.395697 
L 264.839875 177.282368 
L 257.743589 184.115686 
z
" style="fill:#4f0956;"/>
    <path clip-path="url(#p2df7dd3115)" d="M 264.839875 177.282368 
L 271.803162 170.57712 
L 272.511315 140.655467 
L 265.449941 147.174403 
z
" style="fill:#440c40;"/>
    <path clip-path="url(#p2df7dd3115)" d="M 264.839875 177.282368 
L 264.865748 176.005464 
L 278.005703 179.93033 
L 277.971253 181.211726 
z
" style="fill:#09033a;"/>
    <path clip-path="url(#p2df7dd3115)" d="M 157.822766 180.928173 
L 165.82912 174.154745 
L 178.361455 178.049733 
L 170.430723 184.897786 
z
" style="fill:#070448;"/>
    <path clip-path="url(#p2df7dd3115)" d="M 264.839875 177.282368 
L 277.971253 181.211726 
L 278.01445 179.604987 
L 264.872317 175.681264 
z
" style="fill:#16067b;"/>
    <path clip-path="url(#p2df7dd3115)" d="M 157.814657 180.684926 
L 170.424114 184.653683 
L 178.355873 177.807111 
L 165.822054 173.912971 
z
" style="fill:#0a0667;"/>
    <path clip-path="url(#p2df7dd3115)" d="M 277.971253 181.211726 
L 284.848695 174.43298 
L 298.036935 178.33102 
L 291.24765 185.184478 
z
" style="fill:#070448;"/>
    <path clip-path="url(#p2df7dd3115)" d="M 246.131049 162.989229 
L 247.057799 77.379717 
L 260.375954 80.834232 
L 258.898031 166.762758 
z
" style="fill:#64680e;"/>
    <path clip-path="url(#p2df7dd3115)" d="M 277.981407 180.834049 
L 291.260388 184.805472 
L 298.050831 177.954313 
L 284.860043 174.057592 
z
" style="fill:#0a0667;"/>
    <path clip-path="url(#p2df7dd3115)" d="M 211.467294 179.100638 
L 218.949524 172.361429 
L 218.885762 148.652439 
L 211.313538 155.244618 
z
" style="fill:#390445;"/>
    <path clip-path="url(#p2df7dd3115)" d="M 251.851153 173.395697 
L 252.216277 146.81754 
L 265.380348 150.608982 
L 264.839875 177.282368 
z
" style="fill:#3e0743;"/>
    <path clip-path="url(#p2df7dd3115)" d="M 178.361455 178.049733 
L 178.350601 177.578027 
L 191.023676 181.514181 
L 191.031582 181.987547 
z
" style="fill:#070339;"/>
    <path clip-path="url(#p2df7dd3115)" d="M 178.361455 178.049733 
L 191.031582 181.987547 
L 191.020451 181.321081 
L 178.346173 177.385603 
z
" style="fill:#0e0678;"/>
    <path clip-path="url(#p2df7dd3115)" d="M 198.736391 175.194243 
L 198.500121 156.728629 
L 211.347856 160.569228 
L 211.467294 179.100638 
z
" style="fill:#300046;"/>
    <path clip-path="url(#p2df7dd3115)" d="M 191.031582 181.987547 
L 198.736391 175.194243 
L 211.467294 179.100638 
L 203.841786 185.968896 
z
" style="fill:#3d005a;"/>
    <path clip-path="url(#p2df7dd3115)" d="M 251.851153 173.395697 
L 264.839875 177.282368 
L 265.449941 147.174403 
L 252.263288 143.395503 
z
" style="fill:#901a88;"/>
    <path clip-path="url(#p2df7dd3115)" d="M 257.743589 184.115686 
L 257.765133 182.830987 
L 264.865748 176.005464 
L 264.839875 177.282368 
z
" style="fill:#13067a;"/>
    <path clip-path="url(#p2df7dd3115)" d="M 239.002775 169.551023 
L 246.131049 162.989229 
L 247.057268 77.428735 
L 239.632115 83.437147 
z
" style="fill:#64680e;"/>
    <path clip-path="url(#p2df7dd3115)" d="M 239.002775 169.551023 
L 239.632475 83.387793 
L 247.057799 77.379717 
L 246.131049 162.989229 
z
" style="fill:#d4dc1e;"/>
    <path clip-path="url(#p2df7dd3115)" d="M 198.736391 175.194243 
L 211.467294 179.100638 
L 211.313538 155.244618 
L 198.432238 151.423269 
z
" style="fill:#7a0892;"/>
    <path clip-path="url(#p2df7dd3115)" d="M 170.430723 184.897786 
L 178.361455 178.049733 
L 178.355873 177.807111 
L 170.424114 184.653683 
z
" style="fill:#050338;"/>
    <path clip-path="url(#p2df7dd3115)" d="M 244.670417 180.154631 
L 244.942842 153.411223 
L 252.216277 146.81754 
L 251.851153 173.395697 
z
" style="fill:#840f8f;"/>
    <path clip-path="url(#p2df7dd3115)" d="M 170.430723 184.897786 
L 170.417874 184.423201 
L 178.350601 177.578027 
L 178.361455 178.049733 
z
" style="fill:#0e0678;"/>
    <path clip-path="url(#p2df7dd3115)" d="M 224.338378 183.050047 
L 231.739835 176.23678 
L 244.670417 180.154631 
L 237.351973 187.043183 
z
" style="fill:#86591d;"/>
    <path clip-path="url(#p2df7dd3115)" d="M 226.292478 165.747667 
L 226.370541 85.437377 
L 239.591882 88.942216 
L 239.002775 169.551023 
z
" style="fill:#685d0f;"/>
    <path clip-path="url(#p2df7dd3115)" d="M 291.24765 185.184478 
L 298.036935 178.33102 
L 298.050831 177.954313 
L 291.260388 184.805472 
z
" style="fill:#050338;"/>
    <path clip-path="url(#p2df7dd3115)" d="M 191.031582 181.987547 
L 190.721254 163.407763 
L 198.500121 156.728629 
L 198.736391 175.194243 
z
" style="fill:#650095;"/>
    <path clip-path="url(#p2df7dd3115)" d="M 198.432238 151.423269 
L 211.313538 155.244618 
L 218.885762 148.652439 
L 206.08491 144.903197 
z
" style="fill:#6a077f;"/>
    <path clip-path="url(#p2df7dd3115)" d="M 252.263288 143.395503 
L 265.449941 147.174403 
L 272.511315 140.655467 
L 259.41083 136.947913 
z
" style="fill:#7d1776;"/>
    <path clip-path="url(#p2df7dd3115)" d="M 257.743589 184.115686 
L 264.839875 177.282368 
L 277.971253 181.211726 
L 270.961723 188.120663 
z
" style="fill:#0c044a;"/>
    <path clip-path="url(#p2df7dd3115)" d="M 226.292478 165.747667 
L 239.002775 169.551023 
L 239.632115 83.437147 
L 226.375871 79.95396 
z
" style="fill:#d4dc1e;"/>
    <path clip-path="url(#p2df7dd3115)" d="M 157.822766 180.928173 
L 157.818612 180.803558 
L 170.427337 184.772733 
L 170.430723 184.897786 
z
" style="fill:#050338;"/>
    <path clip-path="url(#p2df7dd3115)" d="M 157.822766 180.928173 
L 170.430723 184.897786 
L 170.424114 184.653683 
L 157.814657 180.684926 
z
" style="fill:#0b0777;"/>
    <path clip-path="url(#p2df7dd3115)" d="M 257.765133 182.830987 
L 270.991959 186.831434 
L 278.005703 179.93033 
L 264.865748 176.005464 
z
" style="fill:#11056a;"/>
    <path clip-path="url(#p2df7dd3115)" d="M 218.949524 172.361429 
L 218.732145 91.533011 
L 226.370541 85.437377 
L 226.292478 165.747667 
z
" style="fill:#dbc520;"/>
    <path clip-path="url(#p2df7dd3115)" d="M 277.971253 181.211726 
L 277.979651 180.899345 
L 291.258185 184.870998 
L 291.24765 185.184478 
z
" style="fill:#050338;"/>
    <path clip-path="url(#p2df7dd3115)" d="M 277.971253 181.211726 
L 291.24765 185.184478 
L 291.260388 184.805472 
L 277.981407 180.834049 
z
" style="fill:#0b0777;"/>
    <path clip-path="url(#p2df7dd3115)" d="M 170.430723 184.897786 
L 178.361455 178.049733 
L 191.031582 181.987547 
L 183.178635 188.911464 
z
" style="fill:#090449;"/>
    <path clip-path="url(#p2df7dd3115)" d="M 170.417874 184.423201 
L 183.16877 188.435206 
L 191.023676 181.514181 
L 178.350601 177.578027 
z
" style="fill:#0c0668;"/>
    <path clip-path="url(#p2df7dd3115)" d="M 149.662704 187.831639 
L 149.657996 187.706263 
L 157.818612 180.803558 
L 157.822766 180.928173 
z
" style="fill:#0b0777;"/>
    <path clip-path="url(#p2df7dd3115)" d="M 203.841786 185.968896 
L 211.467294 179.100638 
L 224.338378 183.050047 
L 216.794403 189.994506 
z
" style="fill:#814628;"/>
    <path clip-path="url(#p2df7dd3115)" d="M 233.853057 81.535007 
L 246.975514 84.980907 
L 254.233339 79.036494 
L 241.195611 75.655837 
z
" style="fill:#c0a31c;"/>
    <path clip-path="url(#p2df7dd3115)" d="M 270.961723 188.120663 
L 270.969094 187.806374 
L 277.979651 180.899345 
L 277.971253 181.211726 
z
" style="fill:#0b0777;"/>
    <path clip-path="url(#p2df7dd3115)" d="M 270.961723 188.120663 
L 277.971253 181.211726 
L 278.005703 179.93033 
L 270.991959 186.831434 
z
" style="fill:#09033a;"/>
    <path clip-path="url(#p2df7dd3115)" d="M 251.851153 173.395697 
L 258.898031 166.762758 
L 260.375954 80.834232 
L 253.039268 86.910257 
z
" style="fill:#64680e;"/>
    <path clip-path="url(#p2df7dd3115)" d="M 239.002775 169.551023 
L 239.576367 91.065193 
L 252.933381 94.618005 
L 251.851153 173.395697 
z
" style="fill:#69590f;"/>
    <path clip-path="url(#p2df7dd3115)" d="M 257.743589 184.115686 
L 264.839875 177.282368 
L 265.380348 150.608982 
L 258.19368 157.276206 
z
" style="fill:#3e0743;"/>
    <path clip-path="url(#p2df7dd3115)" d="M 183.178635 188.911464 
L 191.031582 181.987547 
L 191.023676 181.514181 
L 183.16877 188.435206 
z
" style="fill:#070339;"/>
    <path clip-path="url(#p2df7dd3115)" d="M 237.351973 187.043183 
L 244.670417 180.154631 
L 257.743589 184.115686 
L 250.510457 191.080779 
z
" style="fill:#440259;"/>
    <path clip-path="url(#p2df7dd3115)" d="M 203.841786 185.968896 
L 211.467294 179.100638 
L 211.347856 160.569228 
L 203.649748 167.322745 
z
" style="fill:#300046;"/>
    <path clip-path="url(#p2df7dd3115)" d="M 244.670417 180.154631 
L 244.892514 158.351744 
L 258.110526 162.234773 
L 257.743589 184.115686 
z
" style="fill:#350146;"/>
    <path clip-path="url(#p2df7dd3115)" d="M 257.743589 184.115686 
L 257.763433 182.932342 
L 270.989573 186.933147 
L 270.961723 188.120663 
z
" style="fill:#09033a;"/>
    <path clip-path="url(#p2df7dd3115)" d="M 191.031582 181.987547 
L 190.813327 168.920327 
L 203.706727 172.855201 
L 203.841786 185.968896 
z
" style="fill:#250145;"/>
    <path clip-path="url(#p2df7dd3115)" d="M 257.743589 184.115686 
L 270.961723 188.120663 
L 270.991959 186.831434 
L 257.765133 182.830987 
z
" style="fill:#13067a;"/>
    <path clip-path="url(#p2df7dd3115)" d="M 149.662704 187.831639 
L 157.822766 180.928173 
L 170.430723 184.897786 
L 162.346885 191.878042 
z
" style="fill:#070448;"/>
    <path clip-path="url(#p2df7dd3115)" d="M 149.657996 187.706263 
L 162.342954 191.752224 
L 170.427337 184.772733 
L 157.818612 180.803558 
z
" style="fill:#0a0667;"/>
    <path clip-path="url(#p2df7dd3115)" d="M 270.961723 188.120663 
L 277.971253 181.211726 
L 291.24765 185.184478 
L 284.327244 192.170297 
z
" style="fill:#070448;"/>
    <path clip-path="url(#p2df7dd3115)" d="M 239.002775 169.551023 
L 251.851153 173.395697 
L 253.039268 86.910257 
L 239.632475 83.387793 
z
" style="fill:#d4dc1e;"/>
    <path clip-path="url(#p2df7dd3115)" d="M 270.969094 187.806374 
L 284.336781 191.854899 
L 291.258185 184.870998 
L 277.979651 180.899345 
z
" style="fill:#0a0667;"/>
    <path clip-path="url(#p2df7dd3115)" d="M 231.739835 176.23678 
L 232.032183 97.244381 
L 239.576367 91.065193 
L 239.002775 169.551023 
z
" style="fill:#debc20;"/>
    <path clip-path="url(#p2df7dd3115)" d="M 170.430723 184.897786 
L 170.421361 184.551983 
L 183.171447 188.564443 
L 183.178635 188.911464 
z
" style="fill:#050338;"/>
    <path clip-path="url(#p2df7dd3115)" d="M 244.670417 180.154631 
L 257.743589 184.115686 
L 258.19368 157.276206 
L 244.942842 153.411223 
z
" style="fill:#840f8f;"/>
    <path clip-path="url(#p2df7dd3115)" d="M 170.430723 184.897786 
L 183.178635 188.911464 
L 183.16877 188.435206 
L 170.417874 184.423201 
z
" style="fill:#0e0678;"/>
    <path clip-path="url(#p2df7dd3115)" d="M 190.721254 163.407763 
L 203.649748 167.322745 
L 211.347856 160.569228 
L 198.500121 156.728629 
z
" style="fill:#580081;"/>
    <path clip-path="url(#p2df7dd3115)" d="M 231.739835 176.23678 
L 239.002775 169.551023 
L 239.591882 88.942216 
L 232.040094 95.10689 
z
" style="fill:#685d0f;"/>
    <path clip-path="url(#p2df7dd3115)" d="M 191.031582 181.987547 
L 203.841786 185.968896 
L 203.649748 167.322745 
L 190.721254 163.407763 
z
" style="fill:#650095;"/>
    <path clip-path="url(#p2df7dd3115)" d="M 218.949524 172.361429 
L 218.751872 98.867853 
L 232.012841 102.470562 
L 231.739835 176.23678 
z
" style="fill:#6a4f12;"/>
    <path clip-path="url(#p2df7dd3115)" d="M 183.178635 188.911464 
L 191.031582 181.987547 
L 203.841786 185.968896 
L 196.068846 192.969946 
z
" style="fill:#2f0158;"/>
    <path clip-path="url(#p2df7dd3115)" d="M 237.351973 187.043183 
L 237.495505 165.104906 
L 244.892514 158.351744 
L 244.670417 180.154631 
z
" style="fill:#710394;"/>
    <path clip-path="url(#p2df7dd3115)" d="M 250.510457 191.080779 
L 250.526154 189.890196 
L 257.763433 182.932342 
L 257.743589 184.115686 
z
" style="fill:#13067a;"/>
    <path clip-path="url(#p2df7dd3115)" d="M 183.178635 188.911464 
L 182.90631 175.763603 
L 190.813327 168.920327 
L 191.031582 181.987547 
z
" style="fill:#4d0191;"/>
    <path clip-path="url(#p2df7dd3115)" d="M 244.942842 153.411223 
L 258.19368 157.276206 
L 265.380348 150.608982 
L 252.216277 146.81754 
z
" style="fill:#720d7c;"/>
    <path clip-path="url(#p2df7dd3115)" d="M 162.346885 191.878042 
L 170.430723 184.897786 
L 170.427337 184.772733 
L 162.342954 191.752224 
z
" style="fill:#050338;"/>
    <path clip-path="url(#p2df7dd3115)" d="M 162.346885 191.878042 
L 162.336015 191.530125 
L 170.421361 184.551983 
L 170.430723 184.897786 
z
" style="fill:#0b0777;"/>
    <path clip-path="url(#p2df7dd3115)" d="M 246.969218 85.562468 
L 260.234662 89.049176 
L 267.403522 83.034495 
L 254.225104 79.614147 
z
" style="fill:#c1a11c;"/>
    <path clip-path="url(#p2df7dd3115)" d="M 216.794403 189.994506 
L 224.338378 183.050047 
L 237.351973 187.043183 
L 229.891821 194.06512 
z
" style="fill:#7e402d;"/>
    <path clip-path="url(#p2df7dd3115)" d="M 218.949524 172.361429 
L 231.739835 176.23678 
L 232.040094 95.10689 
L 218.732145 91.533011 
z
" style="fill:#dbc520;"/>
    <path clip-path="url(#p2df7dd3115)" d="M 284.327244 192.170297 
L 291.24765 185.184478 
L 291.258185 184.870998 
L 284.336781 191.854899 
z
" style="fill:#050338;"/>
    <path clip-path="url(#p2df7dd3115)" d="M 211.467294 179.100638 
L 210.990565 105.133866 
L 218.751872 98.867853 
L 218.949524 172.361429 
z
" style="fill:#e0a725;"/>
    <path clip-path="url(#p2df7dd3115)" d="M 250.510457 191.080779 
L 257.743589 184.115686 
L 270.961723 188.120663 
L 263.816264 195.163579 
z
" style="fill:#0c044a;"/>
    <path clip-path="url(#p2df7dd3115)" d="M 149.662704 187.831639 
L 149.65813 187.709835 
L 162.343066 191.755809 
L 162.346885 191.878042 
z
" style="fill:#050338;"/>
    <path clip-path="url(#p2df7dd3115)" d="M 149.662704 187.831639 
L 162.346885 191.878042 
L 162.342954 191.752224 
L 149.657996 187.706263 
z
" style="fill:#0b0777;"/>
    <path clip-path="url(#p2df7dd3115)" d="M 250.526154 189.890196 
L 263.840074 193.96879 
L 270.989573 186.933147 
L 257.763433 182.932342 
z
" style="fill:#11056a;"/>
    <path clip-path="url(#p2df7dd3115)" d="M 270.961723 188.120663 
L 284.327244 192.170297 
L 284.336781 191.854899 
L 270.969094 187.806374 
z
" style="fill:#0b0777;"/>
    <path clip-path="url(#p2df7dd3115)" d="M 270.961723 188.120663 
L 270.970731 187.736588 
L 284.338899 191.784867 
L 284.327244 192.170297 
z
" style="fill:#050338;"/>
    <path clip-path="url(#p2df7dd3115)" d="M 162.346885 191.878042 
L 170.430723 184.897786 
L 183.178635 188.911464 
L 175.173234 195.969799 
z
" style="fill:#070448;"/>
    <path clip-path="url(#p2df7dd3115)" d="M 231.739835 176.23678 
L 231.993858 107.599764 
L 245.372185 111.263482 
L 244.670417 180.154631 
z
" style="fill:#694516;"/>
    <path clip-path="url(#p2df7dd3115)" d="M 162.336015 191.530125 
L 175.164565 195.620653 
L 183.171447 188.564443 
L 170.421361 184.551983 
z
" style="fill:#0a0667;"/>
    <path clip-path="url(#p2df7dd3115)" d="M 244.670417 180.154631 
L 251.851153 173.395697 
L 252.933381 94.618005 
L 245.478084 100.867506 
z
" style="fill:#69590f;"/>
    <path clip-path="url(#p2df7dd3115)" d="M 141.344465 194.868925 
L 141.339331 194.746375 
L 149.65813 187.709835 
L 149.662704 187.831639 
z
" style="fill:#0b0777;"/>
    <path clip-path="url(#p2df7dd3115)" d="M 196.068846 192.969946 
L 203.841786 185.968896 
L 216.794403 189.994506 
L 209.103753 197.073984 
z
" style="fill:#6d273f;"/>
    <path clip-path="url(#p2df7dd3115)" d="M 250.510457 191.080779 
L 257.743589 184.115686 
L 258.110526 162.234773 
L 250.800744 169.063802 
z
" style="fill:#350146;"/>
    <path clip-path="url(#p2df7dd3115)" d="M 263.816264 195.163579 
L 263.823965 194.777153 
L 270.970731 187.736588 
L 270.961723 188.120663 
z
" style="fill:#0b0777;"/>
    <path clip-path="url(#p2df7dd3115)" d="M 263.816264 195.163579 
L 270.961723 188.120663 
L 270.989573 186.933147 
L 263.840074 193.96879 
z
" style="fill:#09033a;"/>
    <path clip-path="url(#p2df7dd3115)" d="M 196.068846 192.969946 
L 203.841786 185.968896 
L 203.706727 172.855201 
L 195.880756 179.775217 
z
" style="fill:#250145;"/>
    <path clip-path="url(#p2df7dd3115)" d="M 211.467294 179.100638 
L 211.079313 118.90355 
L 224.338378 122.631217 
L 224.338378 183.050047 
z
" style="fill:#65371f;"/>
    <path clip-path="url(#p2df7dd3115)" d="M 224.338378 183.050047 
L 224.338378 113.971972 
L 231.993858 107.599764 
L 231.739835 176.23678 
z
" style="fill:#df9330;"/>
    <path clip-path="url(#p2df7dd3115)" d="M 182.90631 175.763603 
L 195.880756 179.775217 
L 203.706727 172.855201 
L 190.813327 168.920327 
z
" style="fill:#43017e;"/>
    <path clip-path="url(#p2df7dd3115)" d="M 183.178635 188.911464 
L 183.027205 181.600413 
L 195.964258 185.632953 
L 196.068846 192.969946 
z
" style="fill:#180240;"/>
    <path clip-path="url(#p2df7dd3115)" d="M 237.351973 187.043183 
L 237.469869 169.0233 
L 250.748894 172.996451 
L 250.510457 191.080779 
z
" style="fill:#2e0046;"/>
    <path clip-path="url(#p2df7dd3115)" d="M 231.739835 176.23678 
L 244.670417 180.154631 
L 245.478084 100.867506 
L 232.032183 97.244381 
z
" style="fill:#debc20;"/>
    <path clip-path="url(#p2df7dd3115)" d="M 175.173234 195.969799 
L 183.178635 188.911464 
L 183.171447 188.564443 
L 175.164565 195.620653 
z
" style="fill:#050338;"/>
    <path clip-path="url(#p2df7dd3115)" d="M 229.891821 194.06512 
L 237.351973 187.043183 
L 250.510457 191.080779 
L 243.136481 198.181496 
z
" style="fill:#3b005a;"/>
    <path clip-path="url(#p2df7dd3115)" d="M 224.338378 183.050047 
L 231.739835 176.23678 
L 232.012841 102.470562 
L 224.338378 108.807993 
z
" style="fill:#6a4f12;"/>
    <path clip-path="url(#p2df7dd3115)" d="M 237.351973 187.043183 
L 250.510457 191.080779 
L 250.800744 169.063802 
L 237.495505 165.104906 
z
" style="fill:#710394;"/>
    <path clip-path="url(#p2df7dd3115)" d="M 250.510457 191.080779 
L 250.521076 190.27532 
L 263.832372 194.355275 
L 263.816264 195.163579 
z
" style="fill:#080339;"/>
    <path clip-path="url(#p2df7dd3115)" d="M 250.510457 191.080779 
L 263.816264 195.163579 
L 263.840074 193.96879 
L 250.526154 189.890196 
z
" style="fill:#13067a;"/>
    <path clip-path="url(#p2df7dd3115)" d="M 183.178635 188.911464 
L 196.068846 192.969946 
L 195.880756 179.775217 
L 182.90631 175.763603 
z
" style="fill:#4d0191;"/>
    <path clip-path="url(#p2df7dd3115)" d="M 141.344465 194.868925 
L 149.662704 187.831639 
L 162.346885 191.878042 
L 154.105465 198.994368 
z
" style="fill:#070448;"/>
    <path clip-path="url(#p2df7dd3115)" d="M 141.339331 194.746375 
L 154.101097 198.871385 
L 162.343066 191.755809 
L 149.65813 187.709835 
z
" style="fill:#0a0667;"/>
    <path clip-path="url(#p2df7dd3115)" d="M 203.841786 185.968896 
L 203.217849 125.386982 
L 211.079313 118.90355 
L 211.467294 179.100638 
z
" style="fill:#d67543;"/>
    <path clip-path="url(#p2df7dd3115)" d="M 237.495505 165.104906 
L 250.800744 169.063802 
L 258.110526 162.234773 
L 244.892514 158.351744 
z
" style="fill:#620380;"/>
    <path clip-path="url(#p2df7dd3115)" d="M 263.816264 195.163579 
L 270.961723 188.120663 
L 284.327244 192.170297 
L 277.271882 199.292348 
z
" style="fill:#070448;"/>
    <path clip-path="url(#p2df7dd3115)" d="M 175.173234 195.969799 
L 174.990589 188.613739 
L 183.027205 181.600413 
L 183.178635 188.911464 
z
" style="fill:#330488;"/>
    <path clip-path="url(#p2df7dd3115)" d="M 263.823965 194.777153 
L 277.282266 198.904556 
L 284.338899 191.784867 
L 270.970731 187.736588 
z
" style="fill:#0a0667;"/>
    <path clip-path="url(#p2df7dd3115)" d="M 229.891821 194.06512 
L 229.942624 175.933417 
L 237.469869 169.0233 
L 237.351973 187.043183 
z
" style="fill:#620095;"/>
    <path clip-path="url(#p2df7dd3115)" d="M 162.346885 191.878042 
L 162.340554 191.675395 
L 175.168185 195.766436 
L 175.173234 195.969799 
z
" style="fill:#050338;"/>
    <path clip-path="url(#p2df7dd3115)" d="M 162.346885 191.878042 
L 175.173234 195.969799 
L 175.164565 195.620653 
L 162.336015 191.530125 
z
" style="fill:#0b0777;"/>
    <path clip-path="url(#p2df7dd3115)" d="M 226.375871 79.95396 
L 239.632115 83.437147 
L 247.057268 77.428735 
L 233.887229 74.012366 
z
" style="fill:#b8bf1a;"/>
    <path clip-path="url(#p2df7dd3115)" d="M 211.467294 179.100638 
L 224.338378 183.050047 
L 224.338378 108.807993 
L 210.990565 105.133866 
z
" style="fill:#e0a725;"/>
    <path clip-path="url(#p2df7dd3115)" d="M 175.173234 195.969799 
L 183.178635 188.911464 
L 196.068846 192.969946 
L 188.144156 200.107676 
z
" style="fill:#1f0252;"/>
    <path clip-path="url(#p2df7dd3115)" d="M 243.136481 198.181496 
L 243.144183 197.371101 
L 250.521076 190.27532 
L 250.510457 191.080779 
z
" style="fill:#110679;"/>
    <path clip-path="url(#p2df7dd3115)" d="M 224.338378 183.050047 
L 224.338378 126.162906 
L 237.72553 129.946696 
L 237.351973 187.043183 
z
" style="fill:#623223;"/>
    <path clip-path="url(#p2df7dd3115)" d="M 154.105465 198.994368 
L 162.346885 191.878042 
L 162.343066 191.755809 
L 154.101097 198.871385 
z
" style="fill:#050338;"/>
    <path clip-path="url(#p2df7dd3115)" d="M 154.105465 198.994368 
L 154.098223 198.790479 
L 162.340554 191.675395 
L 162.346885 191.878042 
z
" style="fill:#0b0777;"/>
    <path clip-path="url(#p2df7dd3115)" d="M 209.103753 197.073984 
L 216.794403 189.994506 
L 229.891821 194.06512 
L 222.285805 201.224351 
z
" style="fill:#6c2640;"/>
    <path clip-path="url(#p2df7dd3115)" d="M 277.271882 199.292348 
L 284.327244 192.170297 
L 284.338899 191.784867 
L 277.282266 198.904556 
z
" style="fill:#050338;"/>
    <path clip-path="url(#p2df7dd3115)" d="M 203.841786 185.968896 
L 203.393837 142.474687 
L 216.628594 146.341697 
L 216.794403 189.994506 
z
" style="fill:#551e32;"/>
    <path clip-path="url(#p2df7dd3115)" d="M 237.351973 187.043183 
L 244.670417 180.154631 
L 245.372185 111.263482 
L 237.805599 117.708551 
z
" style="fill:#694516;"/>
    <path clip-path="url(#p2df7dd3115)" d="M 243.136481 198.181496 
L 250.510457 191.080779 
L 263.816264 195.163579 
L 256.530882 202.34441 
z
" style="fill:#0a0449;"/>
    <path clip-path="url(#p2df7dd3115)" d="M 216.794403 189.994506 
L 216.576945 132.74406 
L 224.338378 126.162906 
L 224.338378 183.050047 
z
" style="fill:#d1694a;"/>
    <path clip-path="url(#p2df7dd3115)" d="M 141.344465 194.868925 
L 154.105465 198.994368 
L 154.101097 198.871385 
L 141.339331 194.746375 
z
" style="fill:#0b0777;"/>
    <path clip-path="url(#p2df7dd3115)" d="M 243.144183 197.371101 
L 256.544146 201.531147 
L 263.832372 194.355275 
L 250.521076 190.27532 
z
" style="fill:#0f0569;"/>
    <path clip-path="url(#p2df7dd3115)" d="M 174.990589 188.613739 
L 188.008937 192.725462 
L 195.964258 185.632953 
L 183.027205 181.600413 
z
" style="fill:#2d0376;"/>
    <path clip-path="url(#p2df7dd3115)" d="M 263.816264 195.163579 
L 263.822351 194.858112 
L 277.28009 198.985802 
L 277.271882 199.292348 
z
" style="fill:#050338;"/>
    <path clip-path="url(#p2df7dd3115)" d="M 263.816264 195.163579 
L 277.271882 199.292348 
L 277.282266 198.904556 
L 263.823965 194.777153 
z
" style="fill:#0b0777;"/>
    <path clip-path="url(#p2df7dd3115)" d="M 196.068846 192.969946 
L 195.444916 149.200514 
L 203.393837 142.474687 
L 203.841786 185.968896 
z
" style="fill:#b54069;"/>
    <path clip-path="url(#p2df7dd3115)" d="M 154.105465 198.994368 
L 162.346885 191.878042 
L 175.173234 195.969799 
L 167.010898 203.166503 
z
" style="fill:#070448;"/>
    <path clip-path="url(#p2df7dd3115)" d="M 216.794403 189.994506 
L 224.338378 183.050047 
L 224.338378 122.631217 
L 216.563441 129.188779 
z
" style="fill:#65371f;"/>
    <path clip-path="url(#p2df7dd3115)" d="M 154.098223 198.790479 
L 167.004952 202.961893 
L 175.168185 195.766436 
L 162.340554 191.675395 
z
" style="fill:#0a0667;"/>
    <path clip-path="url(#p2df7dd3115)" d="M 224.338378 183.050047 
L 237.351973 187.043183 
L 237.805599 117.708551 
L 224.338378 113.971972 
z
" style="fill:#df9330;"/>
    <path clip-path="url(#p2df7dd3115)" d="M 188.144156 200.107676 
L 196.068846 192.969946 
L 195.964258 185.632953 
L 188.008937 192.725462 
z
" style="fill:#180240;"/>
    <path clip-path="url(#p2df7dd3115)" d="M 243.136481 198.181496 
L 250.510457 191.080779 
L 250.748894 172.996451 
L 243.309421 179.984806 
z
" style="fill:#2e0046;"/>
    <path clip-path="url(#p2df7dd3115)" d="M 239.632475 83.387793 
L 253.039268 86.910257 
L 260.375954 80.834232 
L 247.057799 77.379717 
z
" style="fill:#b8bf1a;"/>
    <path clip-path="url(#p2df7dd3115)" d="M 175.173234 195.969799 
L 175.106256 193.272251 
L 188.09457 197.400574 
L 188.144156 200.107676 
z
" style="fill:#0d023b;"/>
    <path clip-path="url(#p2df7dd3115)" d="M 229.891821 194.06512 
L 229.928561 180.952538 
L 243.261547 185.022104 
L 243.136481 198.181496 
z
" style="fill:#250145;"/>
    <path clip-path="url(#p2df7dd3115)" d="M 188.144156 200.107676 
L 196.068846 192.969946 
L 209.103753 197.073984 
L 201.262108 204.292457 
z
" style="fill:#4c0658;"/>
    <path clip-path="url(#p2df7dd3115)" d="M 256.530882 202.34441 
L 256.535894 202.03707 
L 263.822351 194.858112 
L 263.816264 195.163579 
z
" style="fill:#0b0777;"/>
    <path clip-path="url(#p2df7dd3115)" d="M 256.530882 202.34441 
L 263.816264 195.163579 
L 263.832372 194.355275 
L 256.544146 201.531147 
z
" style="fill:#080339;"/>
    <path clip-path="url(#p2df7dd3115)" d="M 203.841786 185.968896 
L 216.794403 189.994506 
L 216.563441 129.188779 
L 203.217849 125.386982 
z
" style="fill:#d67543;"/>
    <path clip-path="url(#p2df7dd3115)" d="M 229.942624 175.933417 
L 243.309421 179.984806 
L 250.748894 172.996451 
L 237.469869 169.0233 
z
" style="fill:#550081;"/>
    <path clip-path="url(#p2df7dd3115)" d="M 175.173234 195.969799 
L 188.144156 200.107676 
L 188.008937 192.725462 
L 174.990589 188.613739 
z
" style="fill:#330488;"/>
    <path clip-path="url(#p2df7dd3115)" d="M 229.891821 194.06512 
L 243.136481 198.181496 
L 243.309421 179.984806 
L 229.942624 175.933417 
z
" style="fill:#620095;"/>
    <path clip-path="url(#p2df7dd3115)" d="M 218.732145 91.533011 
L 232.040094 95.10689 
L 239.591882 88.942216 
L 226.370541 85.437377 
z
" style="fill:#bfab1c;"/>
    <path clip-path="url(#p2df7dd3115)" d="M 167.010898 203.166503 
L 175.173234 195.969799 
L 175.168185 195.766436 
L 167.004952 202.961893 
z
" style="fill:#050338;"/>
    <path clip-path="url(#p2df7dd3115)" d="M 196.068846 192.969946 
L 195.708636 167.700831 
L 208.90853 171.713817 
L 209.103753 197.073984 
z
" style="fill:#3b0544;"/>
    <path clip-path="url(#p2df7dd3115)" d="M 222.285805 201.224351 
L 229.891821 194.06512 
L 243.136481 198.181496 
L 235.617509 205.421836 
z
" style="fill:#2f0158;"/>
    <path clip-path="url(#p2df7dd3115)" d="M 216.794403 189.994506 
L 216.632193 147.289101 
L 230.011913 151.203871 
L 229.891821 194.06512 
z
" style="fill:#541d32;"/>
    <path clip-path="url(#p2df7dd3115)" d="M 167.010898 203.166503 
L 166.932034 200.452378 
L 175.106256 193.272251 
L 175.173234 195.969799 
z
" style="fill:#1c057e;"/>
    <path clip-path="url(#p2df7dd3115)" d="M 222.285805 201.224351 
L 222.272092 188.030552 
L 229.928561 180.952538 
L 229.891821 194.06512 
z
" style="fill:#4d0191;"/>
    <path clip-path="url(#p2df7dd3115)" d="M 243.136481 198.181496 
L 243.143285 197.465657 
L 256.542598 201.626038 
L 256.530882 202.34441 
z
" style="fill:#070339;"/>
    <path clip-path="url(#p2df7dd3115)" d="M 243.136481 198.181496 
L 256.530882 202.34441 
L 256.544146 201.531147 
L 243.144183 197.371101 
z
" style="fill:#110679;"/>
    <path clip-path="url(#p2df7dd3115)" d="M 256.530882 202.34441 
L 263.816264 195.163579 
L 277.271882 199.292348 
L 270.077576 206.554656 
z
" style="fill:#070448;"/>
    <path clip-path="url(#p2df7dd3115)" d="M 256.535894 202.03707 
L 270.084738 206.246228 
L 277.28009 198.985802 
L 263.822351 194.858112 
z
" style="fill:#0a0667;"/>
    <path clip-path="url(#p2df7dd3115)" d="M 229.891821 194.06512 
L 237.351973 187.043183 
L 237.72553 129.946696 
L 230.052821 136.603399 
z
" style="fill:#623223;"/>
    <path clip-path="url(#p2df7dd3115)" d="M 154.105465 198.994368 
L 167.010898 203.166503 
L 167.004952 202.961893 
L 154.098223 198.790479 
z
" style="fill:#0b0777;"/>
    <path clip-path="url(#p2df7dd3115)" d="M 188.144156 200.107676 
L 187.67841 174.680573 
L 195.708636 167.700831 
L 196.068846 192.969946 
z
" style="fill:#7e0b91;"/>
    <path clip-path="url(#p2df7dd3115)" d="M 209.103753 197.073984 
L 208.772925 154.098146 
L 216.632193 147.289101 
L 216.794403 189.994506 
z
" style="fill:#b33e6b;"/>
    <path clip-path="url(#p2df7dd3115)" d="M 209.103753 197.073984 
L 216.794403 189.994506 
L 216.628594 146.341697 
L 208.765584 153.144538 
z
" style="fill:#551e32;"/>
    <path clip-path="url(#p2df7dd3115)" d="M 167.010898 203.166503 
L 175.173234 195.969799 
L 188.144156 200.107676 
L 180.063228 207.386128 
z
" style="fill:#11034c;"/>
    <path clip-path="url(#p2df7dd3115)" d="M 235.617509 205.421836 
L 235.621631 204.701603 
L 243.143285 197.465657 
L 243.136481 198.181496 
z
" style="fill:#0e0678;"/>
    <path clip-path="url(#p2df7dd3115)" d="M 216.794403 189.994506 
L 229.891821 194.06512 
L 230.052821 136.603399 
L 216.576945 132.74406 
z
" style="fill:#d1694a;"/>
    <path clip-path="url(#p2df7dd3115)" d="M 166.932034 200.452378 
L 180.001973 204.662373 
L 188.09457 197.400574 
L 175.106256 193.272251 
z
" style="fill:#18046d;"/>
    <path clip-path="url(#p2df7dd3115)" d="M 201.262108 204.292457 
L 209.103753 197.073984 
L 222.285805 201.224351 
L 214.529606 208.524945 
z
" style="fill:#4c0658;"/>
    <path clip-path="url(#p2df7dd3115)" d="M 232.032183 97.244381 
L 245.478084 100.867506 
L 252.933381 94.618005 
L 239.576367 91.065193 
z
" style="fill:#c0a31c;"/>
    <path clip-path="url(#p2df7dd3115)" d="M 270.077576 206.554656 
L 277.271882 199.292348 
L 277.28009 198.985802 
L 270.084738 206.246228 
z
" style="fill:#050338;"/>
    <path clip-path="url(#p2df7dd3115)" d="M 196.068846 192.969946 
L 209.103753 197.073984 
L 208.765584 153.144538 
L 195.444916 149.200514 
z
" style="fill:#b54069;"/>
    <path clip-path="url(#p2df7dd3115)" d="M 209.103753 197.073984 
L 208.908459 171.704544 
L 222.259343 175.763381 
L 222.285805 201.224351 
z
" style="fill:#3b0544;"/>
    <path clip-path="url(#p2df7dd3115)" d="M 235.617509 205.421836 
L 243.136481 198.181496 
L 256.530882 202.34441 
L 249.101427 209.667246 
z
" style="fill:#090449;"/>
    <path clip-path="url(#p2df7dd3115)" d="M 188.144156 200.107676 
L 187.971545 190.684116 
L 201.151431 194.835302 
L 201.262108 204.292457 
z
" style="fill:#1c0142;"/>
    <path clip-path="url(#p2df7dd3115)" d="M 210.990565 105.133866 
L 224.338378 108.807993 
L 232.012841 102.470562 
L 218.751872 98.867853 
z
" style="fill:#c29121;"/>
    <path clip-path="url(#p2df7dd3115)" d="M 235.621631 204.701603 
L 249.110529 208.94446 
L 256.542598 201.626038 
L 243.143285 197.465657 
z
" style="fill:#0c0668;"/>
    <path clip-path="url(#p2df7dd3115)" d="M 180.063228 207.386128 
L 188.144156 200.107676 
L 188.09457 197.400574 
L 180.001973 204.662373 
z
" style="fill:#0d023b;"/>
    <path clip-path="url(#p2df7dd3115)" d="M 235.617509 205.421836 
L 243.136481 198.181496 
L 243.261547 185.022104 
L 235.693293 192.180844 
z
" style="fill:#250145;"/>
    <path clip-path="url(#p2df7dd3115)" d="M 256.530882 202.34441 
L 256.535257 202.076166 
L 270.083827 206.285462 
L 270.077576 206.554656 
z
" style="fill:#050338;"/>
    <path clip-path="url(#p2df7dd3115)" d="M 256.530882 202.34441 
L 270.077576 206.554656 
L 270.084738 206.246228 
L 256.535894 202.03707 
z
" style="fill:#0b0777;"/>
    <path clip-path="url(#p2df7dd3115)" d="M 222.272092 188.030552 
L 235.693293 192.180844 
L 243.261547 185.022104 
L 229.928561 180.952538 
z
" style="fill:#43017e;"/>
    <path clip-path="url(#p2df7dd3115)" d="M 222.285805 201.224351 
L 222.278079 193.790604 
L 235.660207 197.961623 
L 235.617509 205.421836 
z
" style="fill:#180240;"/>
    <path clip-path="url(#p2df7dd3115)" d="M 201.262108 204.292457 
L 209.103753 197.073984 
L 208.90853 171.713817 
L 200.963459 178.773534 
z
" style="fill:#3b0544;"/>
    <path clip-path="url(#p2df7dd3115)" d="M 201.262108 204.292457 
L 200.96335 178.764202 
L 208.908459 171.704544 
L 209.103753 197.073984 
z
" style="fill:#7e0b91;"/>
    <path clip-path="url(#p2df7dd3115)" d="M 180.063228 207.386128 
L 179.849988 197.904281 
L 187.971545 190.684116 
L 188.144156 200.107676 
z
" style="fill:#3c038c;"/>
    <path clip-path="url(#p2df7dd3115)" d="M 222.285805 201.224351 
L 229.891821 194.06512 
L 230.011913 151.203871 
L 222.240975 158.091294 
z
" style="fill:#541d32;"/>
    <path clip-path="url(#p2df7dd3115)" d="M 167.010898 203.166503 
L 180.063228 207.386128 
L 180.001973 204.662373 
L 166.932034 200.452378 
z
" style="fill:#1c057e;"/>
    <path clip-path="url(#p2df7dd3115)" d="M 222.285805 201.224351 
L 235.617509 205.421836 
L 235.693293 192.180844 
L 222.272092 188.030552 
z
" style="fill:#4d0191;"/>
    <path clip-path="url(#p2df7dd3115)" d="M 180.063228 207.386128 
L 188.144156 200.107676 
L 201.262108 204.292457 
L 193.264978 211.654059 
z
" style="fill:#240254;"/>
    <path clip-path="url(#p2df7dd3115)" d="M 249.101427 209.667246 
L 249.104825 209.397354 
L 256.535257 202.076166 
L 256.530882 202.34441 
z
" style="fill:#0b0777;"/>
    <path clip-path="url(#p2df7dd3115)" d="M 249.101427 209.667246 
L 256.530882 202.34441 
L 256.542598 201.626038 
L 249.110529 208.94446 
z
" style="fill:#070339;"/>
    <path clip-path="url(#p2df7dd3115)" d="M 214.529606 208.524945 
L 214.492318 201.045281 
L 222.278079 193.790604 
L 222.285805 201.224351 
z
" style="fill:#330488;"/>
    <path clip-path="url(#p2df7dd3115)" d="M 203.217849 125.386982 
L 216.563441 129.188779 
L 224.338378 122.631217 
L 211.079313 118.90355 
z
" style="fill:#ba653a;"/>
    <path clip-path="url(#p2df7dd3115)" d="M 224.338378 113.971972 
L 237.805599 117.708551 
L 245.372185 111.263482 
L 231.993858 107.599764 
z
" style="fill:#c18029;"/>
    <path clip-path="url(#p2df7dd3115)" d="M 188.144156 200.107676 
L 201.262108 204.292457 
L 200.963459 178.773534 
L 187.67841 174.680573 
z
" style="fill:#7e0b91;"/>
    <path clip-path="url(#p2df7dd3115)" d="M 214.529606 208.524945 
L 222.285805 201.224351 
L 235.617509 205.421836 
L 227.94922 212.80596 
z
" style="fill:#1f0252;"/>
    <path clip-path="url(#p2df7dd3115)" d="M 209.103753 197.073984 
L 222.285805 201.224351 
L 222.240975 158.091294 
L 208.772925 154.098146 
z
" style="fill:#b33e6b;"/>
    <path clip-path="url(#p2df7dd3115)" d="M 195.444916 149.200514 
L 208.765584 153.144538 
L 216.628594 146.341697 
L 203.393837 142.474687 
z
" style="fill:#9d385b;"/>
    <path clip-path="url(#p2df7dd3115)" d="M 235.617509 205.421836 
L 235.619592 205.057967 
L 249.106025 209.302087 
L 249.101427 209.667246 
z
" style="fill:#050338;"/>
    <path clip-path="url(#p2df7dd3115)" d="M 235.617509 205.421836 
L 249.101427 209.667246 
L 249.110529 208.94446 
L 235.621631 204.701603 
z
" style="fill:#0e0678;"/>
    <path clip-path="url(#p2df7dd3115)" d="M 187.67841 174.680573 
L 200.963459 178.773534 
L 208.90853 171.713817 
L 195.708636 167.700831 
z
" style="fill:#6d097e;"/>
    <path clip-path="url(#p2df7dd3115)" d="M 249.101427 209.667246 
L 256.530882 202.34441 
L 270.077576 206.554656 
L 262.740181 213.961405 
z
" style="fill:#070448;"/>
    <path clip-path="url(#p2df7dd3115)" d="M 201.262108 204.292457 
L 201.154399 195.088967 
L 214.483561 199.288617 
L 214.529606 208.524945 
z
" style="fill:#1c0142;"/>
    <path clip-path="url(#p2df7dd3115)" d="M 249.104825 209.397354 
L 262.745481 213.690557 
L 270.083827 206.285462 
L 256.535257 202.076166 
z
" style="fill:#0a0667;"/>
    <path clip-path="url(#p2df7dd3115)" d="M 227.94922 212.80596 
L 227.949893 212.439854 
L 235.619592 205.057967 
L 235.617509 205.421836 
z
" style="fill:#0b0777;"/>
    <path clip-path="url(#p2df7dd3115)" d="M 179.849988 197.904281 
L 193.114461 202.13835 
L 201.151431 194.835302 
L 187.971545 190.684116 
z
" style="fill:#340279;"/>
    <path clip-path="url(#p2df7dd3115)" d="M 216.576945 132.74406 
L 230.052821 136.603399 
L 237.72553 129.946696 
L 224.338378 126.162906 
z
" style="fill:#b55c40;"/>
    <path clip-path="url(#p2df7dd3115)" d="M 214.529606 208.524945 
L 222.285805 201.224351 
L 222.259343 175.763381 
L 214.401883 182.904396 
z
" style="fill:#3b0544;"/>
    <path clip-path="url(#p2df7dd3115)" d="M 193.264978 211.654059 
L 193.118498 202.393597 
L 201.154399 195.088967 
L 201.262108 204.292457 
z
" style="fill:#3c038c;"/>
    <path clip-path="url(#p2df7dd3115)" d="M 193.264978 211.654059 
L 201.262108 204.292457 
L 201.151431 194.835302 
L 193.114461 202.13835 
z
" style="fill:#1c0142;"/>
    <path clip-path="url(#p2df7dd3115)" d="M 214.492318 201.045281 
L 227.963026 205.299621 
L 235.660207 197.961623 
L 222.278079 193.790604 
z
" style="fill:#2d0376;"/>
    <path clip-path="url(#p2df7dd3115)" d="M 193.264978 211.654059 
L 201.262108 204.292457 
L 214.529606 208.524945 
L 206.61873 215.971129 
z
" style="fill:#240254;"/>
    <path clip-path="url(#p2df7dd3115)" d="M 262.740181 213.961405 
L 270.077576 206.554656 
L 270.083827 206.285462 
L 262.745481 213.690557 
z
" style="fill:#050338;"/>
    <path clip-path="url(#p2df7dd3115)" d="M 227.94922 212.80596 
L 235.617509 205.421836 
L 235.660207 197.961623 
L 227.963026 205.299621 
z
" style="fill:#180240;"/>
    <path clip-path="url(#p2df7dd3115)" d="M 214.529606 208.524945 
L 214.516469 205.889804 
L 227.954084 210.161459 
L 227.94922 212.80596 
z
" style="fill:#0d023b;"/>
    <path clip-path="url(#p2df7dd3115)" d="M 201.262108 204.292457 
L 214.529606 208.524945 
L 214.401883 182.904396 
L 200.96335 178.764202 
z
" style="fill:#7e0b91;"/>
    <path clip-path="url(#p2df7dd3115)" d="M 227.94922 212.80596 
L 235.617509 205.421836 
L 249.101427 209.667246 
L 241.523583 217.136342 
z
" style="fill:#070448;"/>
    <path clip-path="url(#p2df7dd3115)" d="M 180.063228 207.386128 
L 193.264978 211.654059 
L 193.114461 202.13835 
L 179.849988 197.904281 
z
" style="fill:#3c038c;"/>
    <path clip-path="url(#p2df7dd3115)" d="M 227.949893 212.439854 
L 241.526806 216.768936 
L 249.106025 209.302087 
L 235.619592 205.057967 
z
" style="fill:#0a0667;"/>
    <path clip-path="url(#p2df7dd3115)" d="M 208.772925 154.098146 
L 222.240975 158.091294 
L 230.011913 151.203871 
L 216.632193 147.289101 
z
" style="fill:#9b365c;"/>
    <path clip-path="url(#p2df7dd3115)" d="M 249.101427 209.667246 
L 249.103809 209.478094 
L 262.743896 213.771583 
L 262.740181 213.961405 
z
" style="fill:#050338;"/>
    <path clip-path="url(#p2df7dd3115)" d="M 249.101427 209.667246 
L 262.740181 213.961405 
L 262.745481 213.690557 
L 249.104825 209.397354 
z
" style="fill:#0b0777;"/>
    <path clip-path="url(#p2df7dd3115)" d="M 214.529606 208.524945 
L 227.94922 212.80596 
L 227.963026 205.299621 
L 214.492318 201.045281 
z
" style="fill:#330488;"/>
    <path clip-path="url(#p2df7dd3115)" d="M 200.96335 178.764202 
L 214.401883 182.904396 
L 222.259343 175.763381 
L 208.908459 171.704544 
z
" style="fill:#6d097e;"/>
    <path clip-path="url(#p2df7dd3115)" d="M 206.61873 215.971129 
L 206.594761 213.31975 
L 214.516469 205.889804 
L 214.529606 208.524945 
z
" style="fill:#1c057e;"/>
    <path clip-path="url(#p2df7dd3115)" d="M 241.523583 217.136342 
L 241.525252 216.946026 
L 249.103809 209.478094 
L 249.101427 209.667246 
z
" style="fill:#0b0777;"/>
    <path clip-path="url(#p2df7dd3115)" d="M 241.523583 217.136342 
L 249.101427 209.667246 
L 249.106025 209.302087 
L 241.526806 216.768936 
z
" style="fill:#050338;"/>
    <path clip-path="url(#p2df7dd3115)" d="M 193.118498 202.393597 
L 206.534716 206.677572 
L 214.483561 199.288617 
L 201.154399 195.088967 
z
" style="fill:#340279;"/>
    <path clip-path="url(#p2df7dd3115)" d="M 206.61873 215.971129 
L 214.529606 208.524945 
L 214.483561 199.288617 
L 206.534716 206.677572 
z
" style="fill:#1c0142;"/>
    <path clip-path="url(#p2df7dd3115)" d="M 206.61873 215.971129 
L 214.529606 208.524945 
L 227.94922 212.80596 
L 220.127123 220.338193 
z
" style="fill:#11034c;"/>
    <path clip-path="url(#p2df7dd3115)" d="M 227.94922 212.80596 
L 227.949803 212.48916 
L 241.526372 216.818418 
L 241.523583 217.136342 
z
" style="fill:#050338;"/>
    <path clip-path="url(#p2df7dd3115)" d="M 227.94922 212.80596 
L 241.523583 217.136342 
L 241.526806 216.768936 
L 227.949893 212.439854 
z
" style="fill:#0b0777;"/>
    <path clip-path="url(#p2df7dd3115)" d="M 206.594761 213.31975 
L 220.121393 217.677382 
L 227.954084 210.161459 
L 214.516469 205.889804 
z
" style="fill:#18046d;"/>
    <path clip-path="url(#p2df7dd3115)" d="M 241.523583 217.136342 
L 249.101427 209.667246 
L 262.740181 213.961405 
L 255.255385 221.516949 
z
" style="fill:#070448;"/>
    <path clip-path="url(#p2df7dd3115)" d="M 193.264978 211.654059 
L 206.61873 215.971129 
L 206.534716 206.677572 
L 193.118498 202.393597 
z
" style="fill:#3c038c;"/>
    <path clip-path="url(#p2df7dd3115)" d="M 241.525252 216.946026 
L 255.258406 221.325957 
L 262.743896 213.771583 
L 249.103809 209.478094 
z
" style="fill:#0a0667;"/>
    <path clip-path="url(#p2df7dd3115)" d="M 220.127123 220.338193 
L 220.126436 220.019443 
L 227.949803 212.48916 
L 227.94922 212.80596 
z
" style="fill:#0b0777;"/>
    <path clip-path="url(#p2df7dd3115)" d="M 220.127123 220.338193 
L 227.94922 212.80596 
L 227.954084 210.161459 
L 220.121393 217.677382 
z
" style="fill:#0d023b;"/>
    <path clip-path="url(#p2df7dd3115)" d="M 255.255385 221.516949 
L 262.740181 213.961405 
L 262.743896 213.771583 
L 255.258406 221.325957 
z
" style="fill:#050338;"/>
    <path clip-path="url(#p2df7dd3115)" d="M 206.61873 215.971129 
L 220.127123 220.338193 
L 220.121393 217.677382 
L 206.594761 213.31975 
z
" style="fill:#1c057e;"/>
    <path clip-path="url(#p2df7dd3115)" d="M 220.127123 220.338193 
L 227.94922 212.80596 
L 241.523583 217.136342 
L 233.792858 224.756123 
z
" style="fill:#070448;"/>
    <path clip-path="url(#p2df7dd3115)" d="M 220.126436 220.019443 
L 233.794408 224.436241 
L 241.526372 216.818418 
L 227.949803 212.48916 
z
" style="fill:#0a0667;"/>
    <path clip-path="url(#p2df7dd3115)" d="M 241.523583 217.136342 
L 241.524888 216.987561 
L 255.257747 221.36764 
L 255.255385 221.516949 
z
" style="fill:#050338;"/>
    <path clip-path="url(#p2df7dd3115)" d="M 241.523583 217.136342 
L 255.255385 221.516949 
L 255.258406 221.325957 
L 241.525252 216.946026 
z
" style="fill:#0b0777;"/>
    <path clip-path="url(#p2df7dd3115)" d="M 233.792858 224.756123 
L 233.793584 224.606427 
L 241.524888 216.987561 
L 241.523583 217.136342 
z
" style="fill:#0b0777;"/>
    <path clip-path="url(#p2df7dd3115)" d="M 233.792858 224.756123 
L 241.523583 217.136342 
L 241.526372 216.818418 
L 233.794408 224.436241 
z
" style="fill:#050338;"/>
    <path clip-path="url(#p2df7dd3115)" d="M 220.127123 220.338193 
L 233.792858 224.756123 
L 233.794408 224.436241 
L 220.126436 220.019443 
z
" style="fill:#0b0777;"/>
    <path clip-path="url(#p2df7dd3115)" d="M 233.792858 224.756123 
L 241.523583 217.136342 
L 255.255385 221.516949 
L 247.618703 229.225814 
z
" style="fill:#070448;"/>
    <path clip-path="url(#p2df7dd3115)" d="M 233.793584 224.606427 
L 247.620499 229.075586 
L 255.257747 221.36764 
L 241.524888 216.987561 
z
" style="fill:#0a0667;"/>
    <path clip-path="url(#p2df7dd3115)" d="M 247.618703 229.225814 
L 255.255385 221.516949 
L 255.257747 221.36764 
L 247.620499 229.075586 
z
" style="fill:#050338;"/>
    <path clip-path="url(#p2df7dd3115)" d="M 233.792858 224.756123 
L 247.618703 229.225814 
L 247.620499 229.075586 
L 233.793584 224.606427 
z
" style="fill:#0b0777;"/>
   </g>
   <g id="text_15">
    <!-- W45__H25__A180_bars_extracted.txt -->
    <g transform="translate(110.101875 28.56)scale(0.12 -0.12)">
     <defs>
      <path d="M 3.328125 72.90625 
L 13.28125 72.90625 
L 28.609375 11.28125 
L 43.890625 72.90625 
L 54.984375 72.90625 
L 70.3125 11.28125 
L 85.59375 72.90625 
L 95.609375 72.90625 
L 77.296875 0 
L 64.890625 0 
L 49.515625 63.28125 
L 33.984375 0 
L 21.578125 0 
z
" id="DejaVuSans-87"/>
      <path d="M 10.796875 72.90625 
L 49.515625 72.90625 
L 49.515625 64.59375 
L 19.828125 64.59375 
L 19.828125 46.734375 
Q 21.96875 47.46875 24.109375 47.828125 
Q 26.265625 48.1875 28.421875 48.1875 
Q 40.625 48.1875 47.75 41.5 
Q 54.890625 34.8125 54.890625 23.390625 
Q 54.890625 11.625 47.5625 5.09375 
Q 40.234375 -1.421875 26.90625 -1.421875 
Q 22.3125 -1.421875 17.546875 -0.640625 
Q 12.796875 0.140625 7.71875 1.703125 
L 7.71875 11.625 
Q 12.109375 9.234375 16.796875 8.0625 
Q 21.484375 6.890625 26.703125 6.890625 
Q 35.15625 6.890625 40.078125 11.328125 
Q 45.015625 15.765625 45.015625 23.390625 
Q 45.015625 31 40.078125 35.4375 
Q 35.15625 39.890625 26.703125 39.890625 
Q 22.75 39.890625 18.8125 39.015625 
Q 14.890625 38.140625 10.796875 36.28125 
z
" id="DejaVuSans-53"/>
      <path d="M 50.984375 -16.609375 
L 50.984375 -23.578125 
L -0.984375 -23.578125 
L -0.984375 -16.609375 
z
" id="DejaVuSans-95"/>
      <path d="M 9.8125 72.90625 
L 19.671875 72.90625 
L 19.671875 43.015625 
L 55.515625 43.015625 
L 55.515625 72.90625 
L 65.375 72.90625 
L 65.375 0 
L 55.515625 0 
L 55.515625 34.71875 
L 19.671875 34.71875 
L 19.671875 0 
L 9.8125 0 
z
" id="DejaVuSans-72"/>
      <path d="M 34.1875 63.1875 
L 20.796875 26.90625 
L 47.609375 26.90625 
z
M 28.609375 72.90625 
L 39.796875 72.90625 
L 67.578125 0 
L 57.328125 0 
L 50.6875 18.703125 
L 17.828125 18.703125 
L 11.1875 0 
L 0.78125 0 
z
" id="DejaVuSans-65"/>
      <path d="M 48.6875 27.296875 
Q 48.6875 37.203125 44.609375 42.84375 
Q 40.53125 48.484375 33.40625 48.484375 
Q 26.265625 48.484375 22.1875 42.84375 
Q 18.109375 37.203125 18.109375 27.296875 
Q 18.109375 17.390625 22.1875 11.75 
Q 26.265625 6.109375 33.40625 6.109375 
Q 40.53125 6.109375 44.609375 11.75 
Q 48.6875 17.390625 48.6875 27.296875 
z
M 18.109375 46.390625 
Q 20.953125 51.265625 25.265625 53.625 
Q 29.59375 56 35.59375 56 
Q 45.5625 56 51.78125 48.09375 
Q 58.015625 40.1875 58.015625 27.296875 
Q 58.015625 14.40625 51.78125 6.484375 
Q 45.5625 -1.421875 35.59375 -1.421875 
Q 29.59375 -1.421875 25.265625 0.953125 
Q 20.953125 3.328125 18.109375 8.203125 
L 18.109375 0 
L 9.078125 0 
L 9.078125 75.984375 
L 18.109375 75.984375 
z
" id="DejaVuSans-98"/>
      <path d="M 34.28125 27.484375 
Q 23.390625 27.484375 19.1875 25 
Q 14.984375 22.515625 14.984375 16.5 
Q 14.984375 11.71875 18.140625 8.90625 
Q 21.296875 6.109375 26.703125 6.109375 
Q 34.1875 6.109375 38.703125 11.40625 
Q 43.21875 16.703125 43.21875 25.484375 
L 43.21875 27.484375 
z
M 52.203125 31.203125 
L 52.203125 0 
L 43.21875 0 
L 43.21875 8.296875 
Q 40.140625 3.328125 35.546875 0.953125 
Q 30.953125 -1.421875 24.3125 -1.421875 
Q 15.921875 -1.421875 10.953125 3.296875 
Q 6 8.015625 6 15.921875 
Q 6 25.140625 12.171875 29.828125 
Q 18.359375 34.515625 30.609375 34.515625 
L 43.21875 34.515625 
L 43.21875 35.40625 
Q 43.21875 41.609375 39.140625 45 
Q 35.0625 48.390625 27.6875 48.390625 
Q 23 48.390625 18.546875 47.265625 
Q 14.109375 46.140625 10.015625 43.890625 
L 10.015625 52.203125 
Q 14.9375 54.109375 19.578125 55.046875 
Q 24.21875 56 28.609375 56 
Q 40.484375 56 46.34375 49.84375 
Q 52.203125 43.703125 52.203125 31.203125 
z
" id="DejaVuSans-97"/>
      <path d="M 41.109375 46.296875 
Q 39.59375 47.171875 37.8125 47.578125 
Q 36.03125 48 33.890625 48 
Q 26.265625 48 22.1875 43.046875 
Q 18.109375 38.09375 18.109375 28.8125 
L 18.109375 0 
L 9.078125 0 
L 9.078125 54.6875 
L 18.109375 54.6875 
L 18.109375 46.1875 
Q 20.953125 51.171875 25.484375 53.578125 
Q 30.03125 56 36.53125 56 
Q 37.453125 56 38.578125 55.875 
Q 39.703125 55.765625 41.0625 55.515625 
z
" id="DejaVuSans-114"/>
      <path d="M 44.28125 53.078125 
L 44.28125 44.578125 
Q 40.484375 46.53125 36.375 47.5 
Q 32.28125 48.484375 27.875 48.484375 
Q 21.1875 48.484375 17.84375 46.4375 
Q 14.5 44.390625 14.5 40.28125 
Q 14.5 37.15625 16.890625 35.375 
Q 19.28125 33.59375 26.515625 31.984375 
L 29.59375 31.296875 
Q 39.15625 29.25 43.1875 25.515625 
Q 47.21875 21.78125 47.21875 15.09375 
Q 47.21875 7.46875 41.1875 3.015625 
Q 35.15625 -1.421875 24.609375 -1.421875 
Q 20.21875 -1.421875 15.453125 -0.5625 
Q 10.6875 0.296875 5.421875 2 
L 5.421875 11.28125 
Q 10.40625 8.6875 15.234375 7.390625 
Q 20.0625 6.109375 24.8125 6.109375 
Q 31.15625 6.109375 34.5625 8.28125 
Q 37.984375 10.453125 37.984375 14.40625 
Q 37.984375 18.0625 35.515625 20.015625 
Q 33.0625 21.96875 24.703125 23.78125 
L 21.578125 24.515625 
Q 13.234375 26.265625 9.515625 29.90625 
Q 5.8125 33.546875 5.8125 39.890625 
Q 5.8125 47.609375 11.28125 51.796875 
Q 16.75 56 26.8125 56 
Q 31.78125 56 36.171875 55.265625 
Q 40.578125 54.546875 44.28125 53.078125 
z
" id="DejaVuSans-115"/>
      <path d="M 56.203125 29.59375 
L 56.203125 25.203125 
L 14.890625 25.203125 
Q 15.484375 15.921875 20.484375 11.0625 
Q 25.484375 6.203125 34.421875 6.203125 
Q 39.59375 6.203125 44.453125 7.46875 
Q 49.3125 8.734375 54.109375 11.28125 
L 54.109375 2.78125 
Q 49.265625 0.734375 44.1875 -0.34375 
Q 39.109375 -1.421875 33.890625 -1.421875 
Q 20.796875 -1.421875 13.15625 6.1875 
Q 5.515625 13.8125 5.515625 26.8125 
Q 5.515625 40.234375 12.765625 48.109375 
Q 20.015625 56 32.328125 56 
Q 43.359375 56 49.78125 48.890625 
Q 56.203125 41.796875 56.203125 29.59375 
z
M 47.21875 32.234375 
Q 47.125 39.59375 43.09375 43.984375 
Q 39.0625 48.390625 32.421875 48.390625 
Q 24.90625 48.390625 20.390625 44.140625 
Q 15.875 39.890625 15.1875 32.171875 
z
" id="DejaVuSans-101"/>
      <path d="M 54.890625 54.6875 
L 35.109375 28.078125 
L 55.90625 0 
L 45.3125 0 
L 29.390625 21.484375 
L 13.484375 0 
L 2.875 0 
L 24.125 28.609375 
L 4.6875 54.6875 
L 15.28125 54.6875 
L 29.78125 35.203125 
L 44.28125 54.6875 
z
" id="DejaVuSans-120"/>
      <path d="M 18.3125 70.21875 
L 18.3125 54.6875 
L 36.8125 54.6875 
L 36.8125 47.703125 
L 18.3125 47.703125 
L 18.3125 18.015625 
Q 18.3125 11.328125 20.140625 9.421875 
Q 21.96875 7.515625 27.59375 7.515625 
L 36.8125 7.515625 
L 36.8125 0 
L 27.59375 0 
Q 17.1875 0 13.234375 3.875 
Q 9.28125 7.765625 9.28125 18.015625 
L 9.28125 47.703125 
L 2.6875 47.703125 
L 2.6875 54.6875 
L 9.28125 54.6875 
L 9.28125 70.21875 
z
" id="DejaVuSans-116"/>
      <path d="M 48.78125 52.59375 
L 48.78125 44.1875 
Q 44.96875 46.296875 41.140625 47.34375 
Q 37.3125 48.390625 33.40625 48.390625 
Q 24.65625 48.390625 19.8125 42.84375 
Q 14.984375 37.3125 14.984375 27.296875 
Q 14.984375 17.28125 19.8125 11.734375 
Q 24.65625 6.203125 33.40625 6.203125 
Q 37.3125 6.203125 41.140625 7.25 
Q 44.96875 8.296875 48.78125 10.40625 
L 48.78125 2.09375 
Q 45.015625 0.34375 40.984375 -0.53125 
Q 36.96875 -1.421875 32.421875 -1.421875 
Q 20.0625 -1.421875 12.78125 6.34375 
Q 5.515625 14.109375 5.515625 27.296875 
Q 5.515625 40.671875 12.859375 48.328125 
Q 20.21875 56 33.015625 56 
Q 37.15625 56 41.109375 55.140625 
Q 45.0625 54.296875 48.78125 52.59375 
z
" id="DejaVuSans-99"/>
      <path d="M 45.40625 46.390625 
L 45.40625 75.984375 
L 54.390625 75.984375 
L 54.390625 0 
L 45.40625 0 
L 45.40625 8.203125 
Q 42.578125 3.328125 38.25 0.953125 
Q 33.9375 -1.421875 27.875 -1.421875 
Q 17.96875 -1.421875 11.734375 6.484375 
Q 5.515625 14.40625 5.515625 27.296875 
Q 5.515625 40.1875 11.734375 48.09375 
Q 17.96875 56 27.875 56 
Q 33.9375 56 38.25 53.625 
Q 42.578125 51.265625 45.40625 46.390625 
z
M 14.796875 27.296875 
Q 14.796875 17.390625 18.875 11.75 
Q 22.953125 6.109375 30.078125 6.109375 
Q 37.203125 6.109375 41.296875 11.75 
Q 45.40625 17.390625 45.40625 27.296875 
Q 45.40625 37.203125 41.296875 42.84375 
Q 37.203125 48.484375 30.078125 48.484375 
Q 22.953125 48.484375 18.875 42.84375 
Q 14.796875 37.203125 14.796875 27.296875 
z
" id="DejaVuSans-100"/>
      <path d="M 10.6875 12.40625 
L 21 12.40625 
L 21 0 
L 10.6875 0 
z
" id="DejaVuSans-46"/>
     </defs>
     <use xlink:href="#DejaVuSans-87"/>
     <use x="98.876953" xlink:href="#DejaVuSans-52"/>
     <use x="162.5" xlink:href="#DejaVuSans-53"/>
     <use x="226.123047" xlink:href="#DejaVuSans-95"/>
     <use x="276.123047" xlink:href="#DejaVuSans-95"/>
     <use x="326.123047" xlink:href="#DejaVuSans-72"/>
     <use x="401.318359" xlink:href="#DejaVuSans-50"/>
     <use x="464.941406" xlink:href="#DejaVuSans-53"/>
     <use x="528.564453" xlink:href="#DejaVuSans-95"/>
     <use x="578.564453" xlink:href="#DejaVuSans-95"/>
     <use x="628.564453" xlink:href="#DejaVuSans-65"/>
     <use x="696.972656" xlink:href="#DejaVuSans-49"/>
     <use x="760.595703" xlink:href="#DejaVuSans-56"/>
     <use x="824.21875" xlink:href="#DejaVuSans-48"/>
     <use x="887.841797" xlink:href="#DejaVuSans-95"/>
     <use x="937.841797" xlink:href="#DejaVuSans-98"/>
     <use x="1001.318359" xlink:href="#DejaVuSans-97"/>
     <use x="1062.597656" xlink:href="#DejaVuSans-114"/>
     <use x="1103.710938" xlink:href="#DejaVuSans-115"/>
     <use x="1155.810547" xlink:href="#DejaVuSans-95"/>
     <use x="1205.810547" xlink:href="#DejaVuSans-101"/>
     <use x="1265.583984" xlink:href="#DejaVuSans-120"/>
     <use x="1324.763672" xlink:href="#DejaVuSans-116"/>
     <use x="1363.972656" xlink:href="#DejaVuSans-114"/>
     <use x="1405.085938" xlink:href="#DejaVuSans-97"/>
     <use x="1466.365234" xlink:href="#DejaVuSans-99"/>
     <use x="1521.345703" xlink:href="#DejaVuSans-116"/>
     <use x="1560.554688" xlink:href="#DejaVuSans-101"/>
     <use x="1622.078125" xlink:href="#DejaVuSans-100"/>
     <use x="1685.554688" xlink:href="#DejaVuSans-46"/>
     <use x="1717.341797" xlink:href="#DejaVuSans-116"/>
     <use x="1756.550781" xlink:href="#DejaVuSans-120"/>
     <use x="1815.730469" xlink:href="#DejaVuSans-116"/>
    </g>
   </g>
  </g>
 </g>
 <defs>
  <clipPath id="p2df7dd3115">
   <rect height="217.44" width="217.44" x="112.68" y="34.56"/>
  </clipPath>
 </defs>
</svg>
