<?xml version="1.0" encoding="utf-8" standalone="no"?>
<!DOCTYPE svg PUBLIC "-//W3C//DTD SVG 1.1//EN"
  "http://www.w3.org/Graphics/SVG/1.1/DTD/svg11.dtd">
<!-- Created with matplotlib (https://matplotlib.org/) -->
<svg height="288pt" version="1.1" viewBox="0 0 432 288" width="432pt" xmlns="http://www.w3.org/2000/svg" xmlns:xlink="http://www.w3.org/1999/xlink">
 <metadata>
  <rdf:RDF xmlns:cc="http://creativecommons.org/ns#" xmlns:dc="http://purl.org/dc/elements/1.1/" xmlns:rdf="http://www.w3.org/1999/02/22-rdf-syntax-ns#">
   <cc:Work>
    <dc:type rdf:resource="http://purl.org/dc/dcmitype/StillImage"/>
    <dc:date>2021-06-13T22:00:30.541045</dc:date>
    <dc:format>image/svg+xml</dc:format>
    <dc:creator>
     <cc:Agent>
      <dc:title>Matplotlib v3.3.4, https://matplotlib.org/</dc:title>
     </cc:Agent>
    </dc:creator>
   </cc:Work>
  </rdf:RDF>
 </metadata>
 <defs>
  <style type="text/css">*{stroke-linecap:butt;stroke-linejoin:round;}</style>
 </defs>
 <g id="figure_1">
  <g id="patch_1">
   <path d="M 0 288 
L 432 288 
L 432 0 
L 0 0 
z
" style="fill:#ffffff;"/>
  </g>
  <g id="patch_2">
   <path d="M 112.68 252 
L 330.12 252 
L 330.12 34.56 
L 112.68 34.56 
z
" style="fill:#ffffff;"/>
  </g>
  <g id="pane3d_1">
   <g id="patch_3">
    <path d="M 129.09822 198.386264 
L 200.904009 138.197228 
L 199.90584 51.393878 
L 124.663773 106.302111 
" style="fill:#f2f2f2;opacity:0.5;stroke:#f2f2f2;stroke-linejoin:miter;"/>
   </g>
  </g>
  <g id="pane3d_2">
   <g id="patch_4">
    <path d="M 200.904009 138.197228 
L 316.12668 171.68791 
L 320.238571 81.894718 
L 199.90584 51.393878 
" style="fill:#e6e6e6;opacity:0.5;stroke:#e6e6e6;stroke-linejoin:miter;"/>
   </g>
  </g>
  <g id="pane3d_3">
   <g id="patch_5">
    <path d="M 129.09822 198.386264 
L 251.239879 238.27773 
L 316.12668 171.68791 
L 200.904009 138.197228 
" style="fill:#ececec;opacity:0.5;stroke:#ececec;stroke-linejoin:miter;"/>
   </g>
  </g>
  <g id="axis3d_1">
   <g id="line2d_1">
    <path d="M 129.09822 198.386264 
L 251.239879 238.27773 
" style="fill:none;stroke:#000000;stroke-linecap:square;stroke-width:0.8;"/>
   </g>
   <g id="Line3DCollection_1">
    <path d="M 136.495759 200.802301 
L 207.911499 140.234029 
L 207.209612 53.245171 
" style="fill:none;stroke:#b0b0b0;stroke-width:0.8;"/>
    <path d="M 162.23134 209.207541 
L 232.260894 147.311436 
L 232.60309 59.681678 
" style="fill:none;stroke:#b0b0b0;stroke-width:0.8;"/>
    <path d="M 188.559037 217.806167 
L 257.123632 154.538053 
L 258.555303 66.259807 
" style="fill:none;stroke:#b0b0b0;stroke-width:0.8;"/>
    <path d="M 215.499525 226.604931 
L 282.516121 161.918647 
L 285.084894 72.984285 
" style="fill:none;stroke:#b0b0b0;stroke-width:0.8;"/>
    <path d="M 243.074449 235.610901 
L 308.455474 169.458193 
L 312.21135 79.860051 
" style="fill:none;stroke:#b0b0b0;stroke-width:0.8;"/>
   </g>
   <g id="xtick_1">
    <g id="line2d_2">
     <path d="M 137.117644 200.274876 
L 135.249322 201.859414 
" style="fill:none;stroke:#000000;stroke-linecap:square;stroke-width:0.8;"/>
    </g>
    <g id="text_1">
     <!-- 0 -->
     <g transform="translate(125.77919 224.124533)scale(0.1 -0.1)">
      <defs>
       <path d="M 31.78125 66.40625 
Q 24.171875 66.40625 20.328125 58.90625 
Q 16.5 51.421875 16.5 36.375 
Q 16.5 21.390625 20.328125 13.890625 
Q 24.171875 6.390625 31.78125 6.390625 
Q 39.453125 6.390625 43.28125 13.890625 
Q 47.125 21.390625 47.125 36.375 
Q 47.125 51.421875 43.28125 58.90625 
Q 39.453125 66.40625 31.78125 66.40625 
z
M 31.78125 74.21875 
Q 44.046875 74.21875 50.515625 64.515625 
Q 56.984375 54.828125 56.984375 36.375 
Q 56.984375 17.96875 50.515625 8.265625 
Q 44.046875 -1.421875 31.78125 -1.421875 
Q 19.53125 -1.421875 13.0625 8.265625 
Q 6.59375 17.96875 6.59375 36.375 
Q 6.59375 54.828125 13.0625 64.515625 
Q 19.53125 74.21875 31.78125 74.21875 
z
" id="DejaVuSans-48"/>
      </defs>
      <use xlink:href="#DejaVuSans-48"/>
     </g>
    </g>
   </g>
   <g id="xtick_2">
    <g id="line2d_3">
     <path d="M 162.841716 208.668056 
L 161.007937 210.288854 
" style="fill:none;stroke:#000000;stroke-linecap:square;stroke-width:0.8;"/>
    </g>
    <g id="text_2">
     <!-- 2 -->
     <g transform="translate(151.547192 232.748132)scale(0.1 -0.1)">
      <defs>
       <path d="M 19.1875 8.296875 
L 53.609375 8.296875 
L 53.609375 0 
L 7.328125 0 
L 7.328125 8.296875 
Q 12.9375 14.109375 22.625 23.890625 
Q 32.328125 33.6875 34.8125 36.53125 
Q 39.546875 41.84375 41.421875 45.53125 
Q 43.3125 49.21875 43.3125 52.78125 
Q 43.3125 58.59375 39.234375 62.25 
Q 35.15625 65.921875 28.609375 65.921875 
Q 23.96875 65.921875 18.8125 64.3125 
Q 13.671875 62.703125 7.8125 59.421875 
L 7.8125 69.390625 
Q 13.765625 71.78125 18.9375 73 
Q 24.125 74.21875 28.421875 74.21875 
Q 39.75 74.21875 46.484375 68.546875 
Q 53.21875 62.890625 53.21875 53.421875 
Q 53.21875 48.921875 51.53125 44.890625 
Q 49.859375 40.875 45.40625 35.40625 
Q 44.1875 33.984375 37.640625 27.21875 
Q 31.109375 20.453125 19.1875 8.296875 
z
" id="DejaVuSans-50"/>
      </defs>
      <use xlink:href="#DejaVuSans-50"/>
     </g>
    </g>
   </g>
   <g id="xtick_3">
    <g id="line2d_4">
     <path d="M 189.15721 217.254202 
L 187.360066 218.91252 
" style="fill:none;stroke:#000000;stroke-linecap:square;stroke-width:0.8;"/>
    </g>
    <g id="text_3">
     <!-- 4 -->
     <g transform="translate(177.91082 241.571064)scale(0.1 -0.1)">
      <defs>
       <path d="M 37.796875 64.3125 
L 12.890625 25.390625 
L 37.796875 25.390625 
z
M 35.203125 72.90625 
L 47.609375 72.90625 
L 47.609375 25.390625 
L 58.015625 25.390625 
L 58.015625 17.1875 
L 47.609375 17.1875 
L 47.609375 0 
L 37.796875 0 
L 37.796875 17.1875 
L 4.890625 17.1875 
L 4.890625 26.703125 
z
" id="DejaVuSans-52"/>
      </defs>
      <use xlink:href="#DejaVuSans-52"/>
     </g>
    </g>
   </g>
   <g id="xtick_4">
    <g id="line2d_5">
     <path d="M 216.084757 226.040048 
L 214.326462 227.737204 
" style="fill:none;stroke:#000000;stroke-linecap:square;stroke-width:0.8;"/>
    </g>
    <g id="text_4">
     <!-- 6 -->
     <g transform="translate(204.890965 250.600322)scale(0.1 -0.1)">
      <defs>
       <path d="M 33.015625 40.375 
Q 26.375 40.375 22.484375 35.828125 
Q 18.609375 31.296875 18.609375 23.390625 
Q 18.609375 15.53125 22.484375 10.953125 
Q 26.375 6.390625 33.015625 6.390625 
Q 39.65625 6.390625 43.53125 10.953125 
Q 47.40625 15.53125 47.40625 23.390625 
Q 47.40625 31.296875 43.53125 35.828125 
Q 39.65625 40.375 33.015625 40.375 
z
M 52.59375 71.296875 
L 52.59375 62.3125 
Q 48.875 64.0625 45.09375 64.984375 
Q 41.3125 65.921875 37.59375 65.921875 
Q 27.828125 65.921875 22.671875 59.328125 
Q 17.53125 52.734375 16.796875 39.40625 
Q 19.671875 43.65625 24.015625 45.921875 
Q 28.375 48.1875 33.59375 48.1875 
Q 44.578125 48.1875 50.953125 41.515625 
Q 57.328125 34.859375 57.328125 23.390625 
Q 57.328125 12.15625 50.6875 5.359375 
Q 44.046875 -1.421875 33.015625 -1.421875 
Q 20.359375 -1.421875 13.671875 8.265625 
Q 6.984375 17.96875 6.984375 36.375 
Q 6.984375 53.65625 15.1875 63.9375 
Q 23.390625 74.21875 37.203125 74.21875 
Q 40.921875 74.21875 44.703125 73.484375 
Q 48.484375 72.75 52.59375 71.296875 
z
" id="DejaVuSans-54"/>
      </defs>
      <use xlink:href="#DejaVuSans-54"/>
     </g>
    </g>
   </g>
   <g id="xtick_5">
    <g id="line2d_6">
     <path d="M 243.645962 235.032643 
L 241.928856 236.770015 
" style="fill:none;stroke:#000000;stroke-linecap:square;stroke-width:0.8;"/>
    </g>
    <g id="text_5">
     <!-- 8 -->
     <g transform="translate(232.509511 259.84323)scale(0.1 -0.1)">
      <defs>
       <path d="M 31.78125 34.625 
Q 24.75 34.625 20.71875 30.859375 
Q 16.703125 27.09375 16.703125 20.515625 
Q 16.703125 13.921875 20.71875 10.15625 
Q 24.75 6.390625 31.78125 6.390625 
Q 38.8125 6.390625 42.859375 10.171875 
Q 46.921875 13.96875 46.921875 20.515625 
Q 46.921875 27.09375 42.890625 30.859375 
Q 38.875 34.625 31.78125 34.625 
z
M 21.921875 38.8125 
Q 15.578125 40.375 12.03125 44.71875 
Q 8.5 49.078125 8.5 55.328125 
Q 8.5 64.0625 14.71875 69.140625 
Q 20.953125 74.21875 31.78125 74.21875 
Q 42.671875 74.21875 48.875 69.140625 
Q 55.078125 64.0625 55.078125 55.328125 
Q 55.078125 49.078125 51.53125 44.71875 
Q 48 40.375 41.703125 38.8125 
Q 48.828125 37.15625 52.796875 32.3125 
Q 56.78125 27.484375 56.78125 20.515625 
Q 56.78125 9.90625 50.3125 4.234375 
Q 43.84375 -1.421875 31.78125 -1.421875 
Q 19.734375 -1.421875 13.25 4.234375 
Q 6.78125 9.90625 6.78125 20.515625 
Q 6.78125 27.484375 10.78125 32.3125 
Q 14.796875 37.15625 21.921875 38.8125 
z
M 18.3125 54.390625 
Q 18.3125 48.734375 21.84375 45.5625 
Q 25.390625 42.390625 31.78125 42.390625 
Q 38.140625 42.390625 41.71875 45.5625 
Q 45.3125 48.734375 45.3125 54.390625 
Q 45.3125 60.0625 41.71875 63.234375 
Q 38.140625 66.40625 31.78125 66.40625 
Q 25.390625 66.40625 21.84375 63.234375 
Q 18.3125 60.0625 18.3125 54.390625 
z
" id="DejaVuSans-56"/>
      </defs>
      <use xlink:href="#DejaVuSans-56"/>
     </g>
    </g>
   </g>
  </g>
  <g id="axis3d_2">
   <g id="line2d_7">
    <path d="M 316.12668 171.68791 
L 251.239879 238.27773 
" style="fill:none;stroke:#000000;stroke-linecap:square;stroke-width:0.8;"/>
   </g>
   <g id="Line3DCollection_2">
    <path d="M 129.866948 102.505071 
L 134.046245 194.238731 
L 255.729543 233.67023 
" style="fill:none;stroke:#b0b0b0;stroke-width:0.8;"/>
    <path d="M 147.250212 89.819556 
L 150.59591 180.366474 
L 270.72626 218.279909 
" style="fill:none;stroke:#b0b0b0;stroke-width:0.8;"/>
    <path d="M 163.958537 77.626582 
L 166.530371 167.009893 
L 285.136664 203.491289 
" style="fill:none;stroke:#b0b0b0;stroke-width:0.8;"/>
    <path d="M 180.030483 65.898008 
L 181.883306 154.140758 
L 298.994481 189.269761 
" style="fill:none;stroke:#b0b0b0;stroke-width:0.8;"/>
    <path d="M 195.501727 54.607799 
L 196.68598 141.732864 
L 312.330896 175.583317 
" style="fill:none;stroke:#b0b0b0;stroke-width:0.8;"/>
   </g>
   <g id="xtick_6">
    <g id="line2d_8">
     <path d="M 254.704115 233.337939 
L 257.783053 234.33567 
" style="fill:none;stroke:#000000;stroke-linecap:square;stroke-width:0.8;"/>
    </g>
    <g id="text_6">
     <!-- 0 -->
     <g transform="translate(265.430654 254.693759)scale(0.1 -0.1)">
      <use xlink:href="#DejaVuSans-48"/>
     </g>
    </g>
   </g>
   <g id="xtick_7">
    <g id="line2d_9">
     <path d="M 269.71494 217.960734 
L 272.751463 218.919068 
" style="fill:none;stroke:#000000;stroke-linecap:square;stroke-width:0.8;"/>
    </g>
    <g id="text_7">
     <!-- 2 -->
     <g transform="translate(280.181112 239.024526)scale(0.1 -0.1)">
      <use xlink:href="#DejaVuSans-50"/>
     </g>
    </g>
   </g>
   <g id="xtick_8">
    <g id="line2d_10">
     <path d="M 284.139145 203.184468 
L 287.134182 204.105694 
" style="fill:none;stroke:#000000;stroke-linecap:square;stroke-width:0.8;"/>
    </g>
    <g id="text_8">
     <!-- 4 -->
     <g transform="translate(294.35448 223.968328)scale(0.1 -0.1)">
      <use xlink:href="#DejaVuSans-52"/>
     </g>
    </g>
   </g>
   <g id="xtick_9">
    <g id="line2d_11">
     <path d="M 298.010457 188.97459 
L 300.964927 189.860821 
" style="fill:none;stroke:#000000;stroke-linecap:square;stroke-width:0.8;"/>
    </g>
    <g id="text_9">
     <!-- 6 -->
     <g transform="translate(307.983974 209.489882)scale(0.1 -0.1)">
      <use xlink:href="#DejaVuSans-54"/>
     </g>
    </g>
   </g>
   <g id="xtick_10">
    <g id="line2d_12">
     <path d="M 311.360068 175.299146 
L 314.274875 176.15234 
" style="fill:none;stroke:#000000;stroke-linecap:square;stroke-width:0.8;"/>
    </g>
    <g id="text_10">
     <!-- 8 -->
     <g transform="translate(321.10031 195.556556)scale(0.1 -0.1)">
      <use xlink:href="#DejaVuSans-56"/>
     </g>
    </g>
   </g>
  </g>
  <g id="axis3d_3">
   <g id="line2d_13">
    <path d="M 316.12668 171.68791 
L 320.238571 81.894718 
" style="fill:none;stroke:#000000;stroke-linecap:square;stroke-width:0.8;"/>
   </g>
   <g id="Line3DCollection_3">
    <path d="M 316.205459 169.967571 
L 200.884845 136.530725 
L 129.013401 196.624949 
" style="fill:none;stroke:#b0b0b0;stroke-width:0.8;"/>
    <path d="M 317.278911 146.526125 
L 200.623877 113.836277 
L 127.85711 172.613813 
" style="fill:none;stroke:#b0b0b0;stroke-width:0.8;"/>
    <path d="M 318.377746 122.530383 
L 200.357036 90.631104 
L 126.672422 148.013014 
" style="fill:none;stroke:#b0b0b0;stroke-width:0.8;"/>
    <path d="M 319.502875 97.960449 
L 200.084122 66.897767 
L 125.45828 122.800561 
" style="fill:none;stroke:#b0b0b0;stroke-width:0.8;"/>
   </g>
   <g id="xtick_11">
    <g id="line2d_14">
     <path d="M 315.237563 169.686933 
L 318.143556 170.529516 
" style="fill:none;stroke:#000000;stroke-linecap:square;stroke-width:0.8;"/>
    </g>
    <g id="text_11">
     <!-- 0 -->
     <g transform="translate(331.275915 174.966846)scale(0.1 -0.1)">
      <use xlink:href="#DejaVuSans-48"/>
     </g>
    </g>
   </g>
   <g id="xtick_12">
    <g id="line2d_15">
     <path d="M 316.299279 146.251606 
L 319.240534 147.075824 
" style="fill:none;stroke:#000000;stroke-linecap:square;stroke-width:0.8;"/>
    </g>
    <g id="text_12">
     <!-- 10000 -->
     <g transform="translate(319.832858 151.582174)scale(0.1 -0.1)">
      <defs>
       <path d="M 12.40625 8.296875 
L 28.515625 8.296875 
L 28.515625 63.921875 
L 10.984375 60.40625 
L 10.984375 69.390625 
L 28.421875 72.90625 
L 38.28125 72.90625 
L 38.28125 8.296875 
L 54.390625 8.296875 
L 54.390625 0 
L 12.40625 0 
z
" id="DejaVuSans-49"/>
      </defs>
      <use xlink:href="#DejaVuSans-49"/>
      <use x="63.623047" xlink:href="#DejaVuSans-48"/>
      <use x="127.246094" xlink:href="#DejaVuSans-48"/>
      <use x="190.869141" xlink:href="#DejaVuSans-48"/>
      <use x="254.492188" xlink:href="#DejaVuSans-48"/>
     </g>
    </g>
   </g>
   <g id="xtick_13">
    <g id="line2d_16">
     <path d="M 317.386091 122.262353 
L 320.363473 123.067096 
" style="fill:none;stroke:#000000;stroke-linecap:square;stroke-width:0.8;"/>
    </g>
    <g id="text_13">
     <!-- 20000 -->
     <g transform="translate(321.145 127.646625)scale(0.1 -0.1)">
      <use xlink:href="#DejaVuSans-50"/>
      <use x="63.623047" xlink:href="#DejaVuSans-48"/>
      <use x="127.246094" xlink:href="#DejaVuSans-48"/>
      <use x="190.869141" xlink:href="#DejaVuSans-48"/>
      <use x="254.492188" xlink:href="#DejaVuSans-48"/>
     </g>
    </g>
   </g>
   <g id="xtick_14">
    <g id="line2d_17">
     <path d="M 318.498898 97.699299 
L 321.513304 98.483393 
" style="fill:none;stroke:#000000;stroke-linecap:square;stroke-width:0.8;"/>
    </g>
    <g id="text_14">
     <!-- 30000 -->
     <g transform="translate(322.48842 103.140503)scale(0.1 -0.1)">
      <defs>
       <path d="M 40.578125 39.3125 
Q 47.65625 37.796875 51.625 33 
Q 55.609375 28.21875 55.609375 21.1875 
Q 55.609375 10.40625 48.1875 4.484375 
Q 40.765625 -1.421875 27.09375 -1.421875 
Q 22.515625 -1.421875 17.65625 -0.515625 
Q 12.796875 0.390625 7.625 2.203125 
L 7.625 11.71875 
Q 11.71875 9.328125 16.59375 8.109375 
Q 21.484375 6.890625 26.8125 6.890625 
Q 36.078125 6.890625 40.9375 10.546875 
Q 45.796875 14.203125 45.796875 21.1875 
Q 45.796875 27.640625 41.28125 31.265625 
Q 36.765625 34.90625 28.71875 34.90625 
L 20.21875 34.90625 
L 20.21875 43.015625 
L 29.109375 43.015625 
Q 36.375 43.015625 40.234375 45.921875 
Q 44.09375 48.828125 44.09375 54.296875 
Q 44.09375 59.90625 40.109375 62.90625 
Q 36.140625 65.921875 28.71875 65.921875 
Q 24.65625 65.921875 20.015625 65.03125 
Q 15.375 64.15625 9.8125 62.3125 
L 9.8125 71.09375 
Q 15.4375 72.65625 20.34375 73.4375 
Q 25.25 74.21875 29.59375 74.21875 
Q 40.828125 74.21875 47.359375 69.109375 
Q 53.90625 64.015625 53.90625 55.328125 
Q 53.90625 49.265625 50.4375 45.09375 
Q 46.96875 40.921875 40.578125 39.3125 
z
" id="DejaVuSans-51"/>
      </defs>
      <use xlink:href="#DejaVuSans-51"/>
      <use x="63.623047" xlink:href="#DejaVuSans-48"/>
      <use x="127.246094" xlink:href="#DejaVuSans-48"/>
      <use x="190.869141" xlink:href="#DejaVuSans-48"/>
      <use x="254.492188" xlink:href="#DejaVuSans-48"/>
     </g>
    </g>
   </g>
  </g>
  <g id="axes_1">
   <g id="Poly3DCollection_1">
    <path clip-path="url(#pacfbc2e361)" d="M 203.700438 142.115361 
L 203.673441 139.454693 
L 215.852758 142.997105 
L 215.863902 145.66701 
z
" style="fill:#0d023b;"/>
    <path clip-path="url(#pacfbc2e361)" d="M 196.401162 148.290596 
L 196.364285 145.613898 
L 203.673441 139.454693 
L 203.700438 142.115361 
z
" style="fill:#1c057e;"/>
    <path clip-path="url(#pacfbc2e361)" d="M 196.401162 148.290596 
L 203.700438 142.115361 
L 215.863902 145.66701 
L 208.637156 151.907182 
z
" style="fill:#11034c;"/>
    <path clip-path="url(#pacfbc2e361)" d="M 196.364285 145.613898 
L 208.616321 149.221164 
L 215.852758 142.997105 
L 203.673441 139.454693 
z
" style="fill:#18046d;"/>
    <path clip-path="url(#pacfbc2e361)" d="M 208.637156 151.907182 
L 215.863902 145.66701 
L 215.852758 142.997105 
L 208.616321 149.221164 
z
" style="fill:#0d023b;"/>
    <path clip-path="url(#pacfbc2e361)" d="M 215.863902 145.66701 
L 215.819255 134.969763 
L 228.175238 138.521263 
L 228.155024 149.255935 
z
" style="fill:#200143;"/>
    <path clip-path="url(#pacfbc2e361)" d="M 196.401162 148.290596 
L 196.370619 146.073665 
L 208.6199 149.682533 
L 208.637156 151.907182 
z
" style="fill:#0b033b;"/>
    <path clip-path="url(#pacfbc2e361)" d="M 196.401162 148.290596 
L 208.637156 151.907182 
L 208.616321 149.221164 
L 196.364285 145.613898 
z
" style="fill:#1c057e;"/>
    <path clip-path="url(#pacfbc2e361)" d="M 208.637156 151.907182 
L 215.863902 145.66701 
L 228.155024 149.255935 
L 221.002748 155.562072 
z
" style="fill:#290156;"/>
    <path clip-path="url(#pacfbc2e361)" d="M 208.637156 151.907182 
L 208.553677 141.14499 
L 215.819255 134.969763 
L 215.863902 145.66701 
z
" style="fill:#44028e;"/>
    <path clip-path="url(#pacfbc2e361)" d="M 188.96817 154.578956 
L 188.929147 152.348634 
L 196.370619 146.073665 
L 196.401162 148.290596 
z
" style="fill:#18057c;"/>
    <path clip-path="url(#pacfbc2e361)" d="M 228.155024 149.255935 
L 228.176531 137.83472 
L 240.667808 141.421463 
L 240.575825 152.882725 
z
" style="fill:#210144;"/>
    <path clip-path="url(#pacfbc2e361)" d="M 188.96817 154.578956 
L 196.401162 148.290596 
L 208.637156 151.907182 
L 201.27732 158.262275 
z
" style="fill:#0e034b;"/>
    <path clip-path="url(#pacfbc2e361)" d="M 188.929147 152.348634 
L 201.251741 156.024168 
L 208.6199 149.682533 
L 196.370619 146.073665 
z
" style="fill:#15056c;"/>
    <path clip-path="url(#pacfbc2e361)" d="M 221.002748 155.562072 
L 228.155024 149.255935 
L 240.575825 152.882725 
L 233.500008 159.25588 
z
" style="fill:#2b0156;"/>
    <path clip-path="url(#pacfbc2e361)" d="M 221.002748 155.562072 
L 228.155024 149.255935 
L 228.175238 138.521263 
L 220.984919 144.762117 
z
" style="fill:#200143;"/>
    <path clip-path="url(#pacfbc2e361)" d="M 208.553677 141.14499 
L 220.984919 144.762117 
L 228.175238 138.521263 
L 215.819255 134.969763 
z
" style="fill:#3b027b;"/>
    <path clip-path="url(#pacfbc2e361)" d="M 221.002748 155.562072 
L 220.983779 144.071363 
L 228.176531 137.83472 
L 228.155024 149.255935 
z
" style="fill:#46028f;"/>
    <path clip-path="url(#pacfbc2e361)" d="M 201.27732 158.262275 
L 208.637156 151.907182 
L 208.6199 149.682533 
L 201.251741 156.024168 
z
" style="fill:#0b033b;"/>
    <path clip-path="url(#pacfbc2e361)" d="M 208.637156 151.907182 
L 221.002748 155.562072 
L 220.984919 144.762117 
L 208.553677 141.14499 
z
" style="fill:#44028e;"/>
    <path clip-path="url(#pacfbc2e361)" d="M 188.96817 154.578956 
L 188.953351 153.731957 
L 201.267606 157.412323 
L 201.27732 158.262275 
z
" style="fill:#070339;"/>
    <path clip-path="url(#pacfbc2e361)" d="M 240.575825 152.882725 
L 240.670249 141.11735 
L 253.29668 144.741275 
L 253.128369 156.547983 
z
" style="fill:#220144;"/>
    <path clip-path="url(#pacfbc2e361)" d="M 188.96817 154.578956 
L 201.27732 158.262275 
L 201.251741 156.024168 
L 188.929147 152.348634 
z
" style="fill:#18057c;"/>
    <path clip-path="url(#pacfbc2e361)" d="M 201.27732 158.262275 
L 208.637156 151.907182 
L 221.002748 155.562072 
L 213.718049 161.984967 
z
" style="fill:#4b0658;"/>
    <path clip-path="url(#pacfbc2e361)" d="M 208.637156 151.907182 
L 208.450359 127.825284 
L 220.962851 131.394832 
L 221.002748 155.562072 
z
" style="fill:#3b0545;"/>
    <path clip-path="url(#pacfbc2e361)" d="M 233.500008 159.25588 
L 240.575825 152.882725 
L 253.128369 156.547983 
L 246.131049 162.989229 
z
" style="fill:#2b0157;"/>
    <path clip-path="url(#pacfbc2e361)" d="M 181.397755 160.983577 
L 181.379597 160.131454 
L 188.953351 153.731957 
L 188.96817 154.578956 
z
" style="fill:#0e0678;"/>
    <path clip-path="url(#pacfbc2e361)" d="M 233.500008 159.25588 
L 240.575825 152.882725 
L 240.667808 141.421463 
L 233.552388 147.724763 
z
" style="fill:#210144;"/>
    <path clip-path="url(#pacfbc2e361)" d="M 233.500008 159.25588 
L 233.553778 147.41878 
L 240.670249 141.11735 
L 240.575825 152.882725 
z
" style="fill:#480290;"/>
    <path clip-path="url(#pacfbc2e361)" d="M 220.983779 144.071363 
L 233.552388 147.724763 
L 240.667808 141.421463 
L 228.176531 137.83472 
z
" style="fill:#3d027c;"/>
    <path clip-path="url(#pacfbc2e361)" d="M 201.27732 158.262275 
L 201.000406 134.032274 
L 208.450359 127.825284 
L 208.637156 151.907182 
z
" style="fill:#7c0a91;"/>
    <path clip-path="url(#pacfbc2e361)" d="M 221.002748 155.562072 
L 233.500008 159.25588 
L 233.552388 147.724763 
L 220.983779 144.071363 
z
" style="fill:#46028f;"/>
    <path clip-path="url(#pacfbc2e361)" d="M 181.397755 160.983577 
L 188.96817 154.578956 
L 201.27732 158.262275 
L 193.780682 164.735494 
z
" style="fill:#090449;"/>
    <path clip-path="url(#pacfbc2e361)" d="M 253.128369 156.547983 
L 253.250189 148.002555 
L 265.991201 151.676899 
L 265.814761 160.252323 
z
" style="fill:#1b0141;"/>
    <path clip-path="url(#pacfbc2e361)" d="M 181.379597 160.131454 
L 193.767691 163.880391 
L 201.267606 157.412323 
L 188.953351 153.731957 
z
" style="fill:#0c0668;"/>
    <path clip-path="url(#pacfbc2e361)" d="M 213.718049 161.984967 
L 221.002748 155.562072 
L 233.500008 159.25588 
L 226.292478 165.747667 
z
" style="fill:#5a1350;"/>
    <path clip-path="url(#pacfbc2e361)" d="M 246.131049 162.989229 
L 246.224119 154.391749 
L 253.250189 148.002555 
L 253.128369 156.547983 
z
" style="fill:#39038b;"/>
    <path clip-path="url(#pacfbc2e361)" d="M 246.131049 162.989229 
L 253.128369 156.547983 
L 265.814761 160.252323 
L 258.898031 166.762758 
z
" style="fill:#230254;"/>
    <path clip-path="url(#pacfbc2e361)" d="M 193.780682 164.735494 
L 201.27732 158.262275 
L 201.267606 157.412323 
L 193.767691 163.880391 
z
" style="fill:#070339;"/>
    <path clip-path="url(#pacfbc2e361)" d="M 246.131049 162.989229 
L 253.128369 156.547983 
L 253.29668 144.741275 
L 246.259641 151.110427 
z
" style="fill:#220144;"/>
    <path clip-path="url(#pacfbc2e361)" d="M 233.553778 147.41878 
L 246.259641 151.110427 
L 253.29668 144.741275 
L 240.670249 141.11735 
z
" style="fill:#3e017d;"/>
    <path clip-path="url(#pacfbc2e361)" d="M 265.814761 160.252323 
L 265.843135 158.873283 
L 278.6745 162.612513 
L 278.637155 163.996376 
z
" style="fill:#09033a;"/>
    <path clip-path="url(#pacfbc2e361)" d="M 221.002748 155.562072 
L 220.950899 124.154704 
L 233.643186 127.736414 
L 233.500008 159.25588 
z
" style="fill:#470f3e;"/>
    <path clip-path="url(#pacfbc2e361)" d="M 213.718049 161.984967 
L 221.002748 155.562072 
L 220.962851 131.394832 
L 213.589831 137.668842 
z
" style="fill:#3b0545;"/>
    <path clip-path="url(#pacfbc2e361)" d="M 181.397755 160.983577 
L 181.384108 160.343132 
L 193.770918 164.09281 
L 193.780682 164.735494 
z
" style="fill:#050338;"/>
    <path clip-path="url(#pacfbc2e361)" d="M 181.397755 160.983577 
L 193.780682 164.735494 
L 193.767691 163.880391 
L 181.379597 160.131454 
z
" style="fill:#0e0678;"/>
    <path clip-path="url(#pacfbc2e361)" d="M 233.500008 159.25588 
L 246.131049 162.989229 
L 246.259641 151.110427 
L 233.553778 147.41878 
z
" style="fill:#480290;"/>
    <path clip-path="url(#pacfbc2e361)" d="M 193.780682 164.735494 
L 201.27732 158.262275 
L 213.718049 161.984967 
L 206.297214 168.527892 
z
" style="fill:#4c0658;"/>
    <path clip-path="url(#pacfbc2e361)" d="M 258.898031 166.762758 
L 258.921894 165.37535 
L 265.843135 158.873283 
L 265.814761 160.252323 
z
" style="fill:#13067a;"/>
    <path clip-path="url(#pacfbc2e361)" d="M 213.718049 161.984967 
L 213.551414 130.383062 
L 220.950899 124.154704 
L 221.002748 155.562072 
z
" style="fill:#961f84;"/>
    <path clip-path="url(#pacfbc2e361)" d="M 201.27732 158.262275 
L 213.718049 161.984967 
L 213.589831 137.668842 
L 201.000406 134.032274 
z
" style="fill:#7c0a91;"/>
    <path clip-path="url(#pacfbc2e361)" d="M 173.686069 167.507715 
L 173.66982 166.863384 
L 181.384108 160.343132 
L 181.397755 160.983577 
z
" style="fill:#0b0777;"/>
    <path clip-path="url(#pacfbc2e361)" d="M 226.292478 165.747667 
L 233.500008 159.25588 
L 246.131049 162.989229 
L 239.002775 169.551023 
z
" style="fill:#5d154e;"/>
    <path clip-path="url(#pacfbc2e361)" d="M 201.27732 158.262275 
L 200.996051 133.651213 
L 213.587815 137.286401 
L 213.718049 161.984967 
z
" style="fill:#3b0544;"/>
    <path clip-path="url(#pacfbc2e361)" d="M 246.224119 154.391749 
L 259.046424 158.135018 
L 265.991201 151.676899 
L 253.250189 148.002555 
z
" style="fill:#320378;"/>
    <path clip-path="url(#pacfbc2e361)" d="M 258.898031 166.762758 
L 265.814761 160.252323 
L 265.991201 151.676899 
L 259.046424 158.135018 
z
" style="fill:#1b0141;"/>
    <path clip-path="url(#pacfbc2e361)" d="M 201.000406 134.032274 
L 213.589831 137.668842 
L 220.962851 131.394832 
L 208.450359 127.825284 
z
" style="fill:#6c087e;"/>
    <path clip-path="url(#pacfbc2e361)" d="M 258.898031 166.762758 
L 265.814761 160.252323 
L 278.637155 163.996376 
L 271.803162 170.57712 
z
" style="fill:#0c044a;"/>
    <path clip-path="url(#pacfbc2e361)" d="M 193.780682 164.735494 
L 193.404473 139.97258 
L 200.996051 133.651213 
L 201.27732 158.262275 
z
" style="fill:#7e0b91;"/>
    <path clip-path="url(#pacfbc2e361)" d="M 258.921894 165.37535 
L 271.836113 169.184849 
L 278.6745 162.612513 
L 265.843135 158.873283 
z
" style="fill:#11056a;"/>
    <path clip-path="url(#pacfbc2e361)" d="M 278.637155 163.996376 
L 278.653407 163.394116 
L 291.617989 167.176414 
L 291.597749 167.780781 
z
" style="fill:#050338;"/>
    <path clip-path="url(#pacfbc2e361)" d="M 173.686069 167.507715 
L 181.397755 160.983577 
L 193.780682 164.735494 
L 186.143392 171.330164 
z
" style="fill:#070448;"/>
    <path clip-path="url(#pacfbc2e361)" d="M 173.66982 166.863384 
L 186.131074 170.683575 
L 193.770918 164.09281 
L 181.384108 160.343132 
z
" style="fill:#0a0667;"/>
    <path clip-path="url(#pacfbc2e361)" d="M 246.131049 162.989229 
L 258.898031 166.762758 
L 259.046424 158.135018 
L 246.224119 154.391749 
z
" style="fill:#39038b;"/>
    <path clip-path="url(#pacfbc2e361)" d="M 233.500008 159.25588 
L 233.649892 126.260089 
L 246.489517 129.875335 
L 246.131049 162.989229 
z
" style="fill:#49113d;"/>
    <path clip-path="url(#pacfbc2e361)" d="M 206.297214 168.527892 
L 213.718049 161.984967 
L 226.292478 165.747667 
L 218.949524 172.361429 
z
" style="fill:#783534;"/>
    <path clip-path="url(#pacfbc2e361)" d="M 271.803162 170.57712 
L 271.817502 169.971203 
L 278.653407 163.394116 
L 278.637155 163.996376 
z
" style="fill:#0b0777;"/>
    <path clip-path="url(#pacfbc2e361)" d="M 271.803162 170.57712 
L 278.637155 163.996376 
L 278.6745 162.612513 
L 271.836113 169.184849 
z
" style="fill:#09033a;"/>
    <path clip-path="url(#pacfbc2e361)" d="M 226.292478 165.747667 
L 233.500008 159.25588 
L 233.643186 127.736414 
L 226.323305 134.032629 
z
" style="fill:#470f3e;"/>
    <path clip-path="url(#pacfbc2e361)" d="M 186.143392 171.330164 
L 193.780682 164.735494 
L 193.770918 164.09281 
L 186.131074 170.683575 
z
" style="fill:#050338;"/>
    <path clip-path="url(#pacfbc2e361)" d="M 239.002775 169.551023 
L 246.131049 162.989229 
L 258.898031 166.762758 
L 251.851153 173.395697 
z
" style="fill:#550e53;"/>
    <path clip-path="url(#pacfbc2e361)" d="M 226.292478 165.747667 
L 226.324749 132.546917 
L 233.649892 126.260089 
L 233.500008 159.25588 
z
" style="fill:#9a2381;"/>
    <path clip-path="url(#pacfbc2e361)" d="M 258.898031 166.762758 
L 271.803162 170.57712 
L 271.836113 169.184849 
L 258.921894 165.37535 
z
" style="fill:#13067a;"/>
    <path clip-path="url(#pacfbc2e361)" d="M 271.803162 170.57712 
L 278.637155 163.996376 
L 291.597749 167.780781 
L 284.848695 174.43298 
z
" style="fill:#070448;"/>
    <path clip-path="url(#pacfbc2e361)" d="M 193.780682 164.735494 
L 193.550141 149.560804 
L 206.160363 153.299485 
L 206.297214 168.527892 
z
" style="fill:#280045;"/>
    <path clip-path="url(#pacfbc2e361)" d="M 213.718049 161.984967 
L 226.292478 165.747667 
L 226.323305 134.032629 
L 213.551414 130.383062 
z
" style="fill:#961f84;"/>
    <path clip-path="url(#pacfbc2e361)" d="M 271.817502 169.971203 
L 284.867076 173.824938 
L 291.617989 167.176414 
L 278.653407 163.394116 
z
" style="fill:#0a0667;"/>
    <path clip-path="url(#pacfbc2e361)" d="M 173.686069 167.507715 
L 173.672229 166.958888 
L 186.132899 170.779414 
L 186.143392 171.330164 
z
" style="fill:#050338;"/>
    <path clip-path="url(#pacfbc2e361)" d="M 173.686069 167.507715 
L 186.143392 171.330164 
L 186.131074 170.683575 
L 173.66982 166.863384 
z
" style="fill:#0b0777;"/>
    <path clip-path="url(#pacfbc2e361)" d="M 206.297214 168.527892 
L 213.718049 161.984967 
L 213.587815 137.286401 
L 206.073888 143.67668 
z
" style="fill:#3b0544;"/>
    <path clip-path="url(#pacfbc2e361)" d="M 291.597749 167.780781 
L 291.611752 167.36265 
L 304.715611 171.1866 
L 304.698789 171.606197 
z
" style="fill:#050338;"/>
    <path clip-path="url(#pacfbc2e361)" d="M 186.143392 171.330164 
L 193.780682 164.735494 
L 206.297214 168.527892 
L 198.736391 175.194243 
z
" style="fill:#340059;"/>
    <path clip-path="url(#pacfbc2e361)" d="M 246.131049 162.989229 
L 246.445966 133.898391 
L 259.400166 137.567928 
L 258.898031 166.762758 
z
" style="fill:#430b41;"/>
    <path clip-path="url(#pacfbc2e361)" d="M 258.898031 166.762758 
L 259.025002 159.380484 
L 271.978493 163.168847 
L 271.803162 170.57712 
z
" style="fill:#180240;"/>
    <path clip-path="url(#pacfbc2e361)" d="M 186.143392 171.330164 
L 185.852509 156.062259 
L 193.550141 149.560804 
L 193.780682 164.735494 
z
" style="fill:#560093;"/>
    <path clip-path="url(#pacfbc2e361)" d="M 165.82912 174.154745 
L 165.812983 173.602581 
L 173.672229 166.958888 
L 173.686069 167.507715 
z
" style="fill:#0b0777;"/>
    <path clip-path="url(#pacfbc2e361)" d="M 218.949524 172.361429 
L 226.292478 165.747667 
L 239.002775 169.551023 
L 231.739835 176.23678 
z
" style="fill:#7a3932;"/>
    <path clip-path="url(#pacfbc2e361)" d="M 193.780682 164.735494 
L 206.297214 168.527892 
L 206.073888 143.67668 
L 193.404473 139.97258 
z
" style="fill:#7e0b91;"/>
    <path clip-path="url(#pacfbc2e361)" d="M 284.848695 174.43298 
L 284.861412 174.012307 
L 291.611752 167.36265 
L 291.597749 167.780781 
z
" style="fill:#0b0777;"/>
    <path clip-path="url(#pacfbc2e361)" d="M 284.848695 174.43298 
L 291.597749 167.780781 
L 291.617989 167.176414 
L 284.867076 173.824938 
z
" style="fill:#050338;"/>
    <path clip-path="url(#pacfbc2e361)" d="M 239.002775 169.551023 
L 239.216696 140.27972 
L 246.445966 133.898391 
L 246.131049 162.989229 
z
" style="fill:#8d178a;"/>
    <path clip-path="url(#pacfbc2e361)" d="M 251.851153 173.395697 
L 251.953188 165.96831 
L 259.025002 159.380484 
L 258.898031 166.762758 
z
" style="fill:#330488;"/>
    <path clip-path="url(#pacfbc2e361)" d="M 213.551414 130.383062 
L 226.323305 134.032629 
L 233.643186 127.736414 
L 220.950899 124.154704 
z
" style="fill:#821b72;"/>
    <path clip-path="url(#pacfbc2e361)" d="M 193.404473 139.97258 
L 206.073888 143.67668 
L 213.587815 137.286401 
L 200.996051 133.651213 
z
" style="fill:#6d097e;"/>
    <path clip-path="url(#pacfbc2e361)" d="M 251.851153 173.395697 
L 258.898031 166.762758 
L 271.803162 170.57712 
L 264.839875 177.282368 
z
" style="fill:#1f0252;"/>
    <path clip-path="url(#pacfbc2e361)" d="M 239.002775 169.551023 
L 246.131049 162.989229 
L 246.489517 129.875335 
L 239.246284 136.231083 
z
" style="fill:#49113d;"/>
    <path clip-path="url(#pacfbc2e361)" d="M 271.803162 170.57712 
L 284.848695 174.43298 
L 284.867076 173.824938 
L 271.817502 169.971203 
z
" style="fill:#0b0777;"/>
    <path clip-path="url(#pacfbc2e361)" d="M 213.718049 161.984967 
L 213.451412 111.417844 
L 226.341808 114.99695 
L 226.292478 165.747667 
z
" style="fill:#5e2a29;"/>
    <path clip-path="url(#pacfbc2e361)" d="M 271.803162 170.57712 
L 271.832835 169.323358 
L 284.886729 173.174818 
L 284.848695 174.43298 
z
" style="fill:#080339;"/>
    <path clip-path="url(#pacfbc2e361)" d="M 165.82912 174.154745 
L 173.686069 167.507715 
L 186.143392 171.330164 
L 178.361455 178.049733 
z
" style="fill:#070448;"/>
    <path clip-path="url(#pacfbc2e361)" d="M 165.812983 173.602581 
L 178.348705 177.49563 
L 186.132899 170.779414 
L 173.672229 166.958888 
z
" style="fill:#0a0667;"/>
    <path clip-path="url(#pacfbc2e361)" d="M 284.848695 174.43298 
L 291.597749 167.780781 
L 304.698789 171.606197 
L 298.036935 178.33102 
z
" style="fill:#070448;"/>
    <path clip-path="url(#pacfbc2e361)" d="M 284.861412 174.012307 
L 298.052508 177.908869 
L 304.715611 171.1866 
L 291.611752 167.36265 
z
" style="fill:#0a0667;"/>
    <path clip-path="url(#pacfbc2e361)" d="M 226.292478 165.747667 
L 239.002775 169.551023 
L 239.246284 136.231083 
L 226.324749 132.546917 
z
" style="fill:#9a2381;"/>
    <path clip-path="url(#pacfbc2e361)" d="M 198.736391 175.194243 
L 206.297214 168.527892 
L 218.949524 172.361429 
L 211.467294 179.100638 
z
" style="fill:#844e23;"/>
    <path clip-path="url(#pacfbc2e361)" d="M 206.297214 168.527892 
L 205.839928 117.642139 
L 213.451412 111.417844 
L 213.718049 161.984967 
z
" style="fill:#c75856;"/>
    <path clip-path="url(#pacfbc2e361)" d="M 264.839875 177.282368 
L 264.865434 176.02097 
L 271.832835 169.323358 
L 271.803162 170.57712 
z
" style="fill:#110679;"/>
    <path clip-path="url(#pacfbc2e361)" d="M 186.143392 171.330164 
L 186.03319 165.545868 
L 198.66212 169.389568 
L 198.736391 175.194243 
z
" style="fill:#15023f;"/>
    <path clip-path="url(#pacfbc2e361)" d="M 198.736391 175.194243 
L 206.297214 168.527892 
L 206.160363 153.299485 
L 198.540343 159.872149 
z
" style="fill:#280045;"/>
    <path clip-path="url(#pacfbc2e361)" d="M 251.953188 165.96831 
L 264.990905 169.828757 
L 271.978493 163.168847 
L 259.025002 159.380484 
z
" style="fill:#2d0376;"/>
    <path clip-path="url(#pacfbc2e361)" d="M 178.361455 178.049733 
L 186.143392 171.330164 
L 186.132899 170.779414 
L 178.348705 177.49563 
z
" style="fill:#050338;"/>
    <path clip-path="url(#pacfbc2e361)" d="M 231.739835 176.23678 
L 239.002775 169.551023 
L 251.851153 173.395697 
L 244.670417 180.154631 
z
" style="fill:#793733;"/>
    <path clip-path="url(#pacfbc2e361)" d="M 298.036935 178.33102 
L 304.698789 171.606197 
L 304.715611 171.1866 
L 298.052508 177.908869 
z
" style="fill:#050338;"/>
    <path clip-path="url(#pacfbc2e361)" d="M 251.851153 173.395697 
L 258.898031 166.762758 
L 259.400166 137.567928 
L 252.254716 144.019458 
z
" style="fill:#430b41;"/>
    <path clip-path="url(#pacfbc2e361)" d="M 264.839875 177.282368 
L 271.803162 170.57712 
L 271.978493 163.168847 
L 264.990905 169.828757 
z
" style="fill:#180240;"/>
    <path clip-path="url(#pacfbc2e361)" d="M 185.852509 156.062259 
L 198.540343 159.872149 
L 206.160363 153.299485 
L 193.550141 149.560804 
z
" style="fill:#4a0080;"/>
    <path clip-path="url(#pacfbc2e361)" d="M 178.361455 178.049733 
L 178.227541 172.230074 
L 186.03319 165.545868 
L 186.143392 171.330164 
z
" style="fill:#2c0485;"/>
    <path clip-path="url(#pacfbc2e361)" d="M 264.839875 177.282368 
L 271.803162 170.57712 
L 284.848695 174.43298 
L 277.971253 181.211726 
z
" style="fill:#0a0449;"/>
    <path clip-path="url(#pacfbc2e361)" d="M 226.324749 132.546917 
L 239.246284 136.231083 
L 246.489517 129.875335 
L 233.649892 126.260089 
z
" style="fill:#861f70;"/>
    <path clip-path="url(#pacfbc2e361)" d="M 186.143392 171.330164 
L 198.736391 175.194243 
L 198.540343 159.872149 
L 185.852509 156.062259 
z
" style="fill:#560093;"/>
    <path clip-path="url(#pacfbc2e361)" d="M 165.82912 174.154745 
L 165.814564 173.65668 
L 178.349954 177.549919 
L 178.361455 178.049733 
z
" style="fill:#050338;"/>
    <path clip-path="url(#pacfbc2e361)" d="M 165.82912 174.154745 
L 178.361455 178.049733 
L 178.348705 177.49563 
L 165.812983 173.602581 
z
" style="fill:#0b0777;"/>
    <path clip-path="url(#pacfbc2e361)" d="M 264.865434 176.02097 
L 278.005285 179.94589 
L 284.886729 173.174818 
L 271.832835 169.323358 
z
" style="fill:#0f0569;"/>
    <path clip-path="url(#pacfbc2e361)" d="M 284.848695 174.43298 
L 298.036935 178.33102 
L 298.052508 177.908869 
L 284.861412 174.012307 
z
" style="fill:#0b0777;"/>
    <path clip-path="url(#pacfbc2e361)" d="M 284.848695 174.43298 
L 284.870604 173.708242 
L 298.063764 177.603736 
L 298.036935 178.33102 
z
" style="fill:#050338;"/>
    <path clip-path="url(#pacfbc2e361)" d="M 178.361455 178.049733 
L 186.143392 171.330164 
L 198.736391 175.194243 
L 191.031582 181.987547 
z
" style="fill:#1a0250;"/>
    <path clip-path="url(#pacfbc2e361)" d="M 239.002775 169.551023 
L 251.851153 173.395697 
L 252.254716 144.019458 
L 239.216696 140.27972 
z
" style="fill:#8d178a;"/>
    <path clip-path="url(#pacfbc2e361)" d="M 251.851153 173.395697 
L 264.839875 177.282368 
L 264.990905 169.828757 
L 251.953188 165.96831 
z
" style="fill:#330488;"/>
    <path clip-path="url(#pacfbc2e361)" d="M 226.292478 165.747667 
L 226.34336 113.400058 
L 239.386736 117.012784 
L 239.002775 169.551023 
z
" style="fill:#5f2c27;"/>
    <path clip-path="url(#pacfbc2e361)" d="M 157.822766 180.928173 
L 157.806061 180.427072 
L 165.814564 173.65668 
L 165.82912 174.154745 
z
" style="fill:#0b0777;"/>
    <path clip-path="url(#pacfbc2e361)" d="M 211.467294 179.100638 
L 218.949524 172.361429 
L 231.739835 176.23678 
L 224.338378 183.050047 
z
" style="fill:#875f19;"/>
    <path clip-path="url(#pacfbc2e361)" d="M 277.971253 181.211726 
L 277.990856 180.482569 
L 284.870604 173.708242 
L 284.848695 174.43298 
z
" style="fill:#0b0777;"/>
    <path clip-path="url(#pacfbc2e361)" d="M 218.949524 172.361429 
L 226.292478 165.747667 
L 226.341808 114.99695 
L 218.812174 121.290347 
z
" style="fill:#5e2a29;"/>
    <path clip-path="url(#pacfbc2e361)" d="M 277.971253 181.211726 
L 284.848695 174.43298 
L 284.886729 173.174818 
L 278.005285 179.94589 
z
" style="fill:#080339;"/>
    <path clip-path="url(#pacfbc2e361)" d="M 218.949524 172.361429 
L 218.807852 119.682982 
L 226.34336 113.400058 
L 226.292478 165.747667 
z
" style="fill:#ca5e53;"/>
    <path clip-path="url(#pacfbc2e361)" d="M 239.216696 140.27972 
L 252.254716 144.019458 
L 259.400166 137.567928 
L 246.445966 133.898391 
z
" style="fill:#7a1478;"/>
    <path clip-path="url(#pacfbc2e361)" d="M 178.227541 172.230074 
L 190.934036 176.147334 
L 198.66212 169.389568 
L 186.03319 165.545868 
z
" style="fill:#260473;"/>
    <path clip-path="url(#pacfbc2e361)" d="M 244.670417 180.154631 
L 251.851153 173.395697 
L 264.839875 177.282368 
L 257.743589 184.115686 
z
" style="fill:#4b0658;"/>
    <path clip-path="url(#pacfbc2e361)" d="M 206.297214 168.527892 
L 218.949524 172.361429 
L 218.812174 121.290347 
L 205.839928 117.642139 
z
" style="fill:#c75856;"/>
    <path clip-path="url(#pacfbc2e361)" d="M 264.839875 177.282368 
L 277.971253 181.211726 
L 278.005285 179.94589 
L 264.865434 176.02097 
z
" style="fill:#110679;"/>
    <path clip-path="url(#pacfbc2e361)" d="M 157.822766 180.928173 
L 165.82912 174.154745 
L 178.361455 178.049733 
L 170.430723 184.897786 
z
" style="fill:#070448;"/>
    <path clip-path="url(#pacfbc2e361)" d="M 191.031582 181.987547 
L 198.736391 175.194243 
L 198.66212 169.389568 
L 190.934036 176.147334 
z
" style="fill:#15023f;"/>
    <path clip-path="url(#pacfbc2e361)" d="M 157.806061 180.427072 
L 170.417109 184.394921 
L 178.349954 177.549919 
L 165.814564 173.65668 
z
" style="fill:#0a0667;"/>
    <path clip-path="url(#pacfbc2e361)" d="M 251.851153 173.395697 
L 252.190332 148.706072 
L 265.341941 152.504408 
L 264.839875 177.282368 
z
" style="fill:#3b0545;"/>
    <path clip-path="url(#pacfbc2e361)" d="M 277.971253 181.211726 
L 284.848695 174.43298 
L 298.036935 178.33102 
L 291.24765 185.184478 
z
" style="fill:#070448;"/>
    <path clip-path="url(#pacfbc2e361)" d="M 264.839875 177.282368 
L 264.909102 173.86589 
L 278.063429 177.783207 
L 277.971253 181.211726 
z
" style="fill:#0f023c;"/>
    <path clip-path="url(#pacfbc2e361)" d="M 277.990856 180.482569 
L 291.272241 184.452754 
L 298.063764 177.603736 
L 284.870604 173.708242 
z
" style="fill:#0a0667;"/>
    <path clip-path="url(#pacfbc2e361)" d="M 178.361455 178.049733 
L 178.300005 175.379236 
L 190.986821 179.307641 
L 191.031582 181.987547 
z
" style="fill:#0c033b;"/>
    <path clip-path="url(#pacfbc2e361)" d="M 191.031582 181.987547 
L 198.736391 175.194243 
L 211.467294 179.100638 
L 203.841786 185.968896 
z
" style="fill:#783534;"/>
    <path clip-path="url(#pacfbc2e361)" d="M 239.002775 169.551023 
L 239.380954 117.803957 
L 252.564633 121.459962 
L 251.851153 173.395697 
z
" style="fill:#5e2b28;"/>
    <path clip-path="url(#pacfbc2e361)" d="M 178.361455 178.049733 
L 191.031582 181.987547 
L 190.934036 176.147334 
L 178.227541 172.230074 
z
" style="fill:#2c0485;"/>
    <path clip-path="url(#pacfbc2e361)" d="M 244.670417 180.154631 
L 244.923482 155.31172 
L 252.190332 148.706072 
L 251.851153 173.395697 
z
" style="fill:#7c0a91;"/>
    <path clip-path="url(#pacfbc2e361)" d="M 257.743589 184.115686 
L 257.801232 180.678315 
L 264.909102 173.86589 
L 264.839875 177.282368 
z
" style="fill:#200580;"/>
    <path clip-path="url(#pacfbc2e361)" d="M 170.430723 184.897786 
L 178.361455 178.049733 
L 178.349954 177.549919 
L 170.417109 184.394921 
z
" style="fill:#050338;"/>
    <path clip-path="url(#pacfbc2e361)" d="M 224.338378 183.050047 
L 231.739835 176.23678 
L 244.670417 180.154631 
L 237.351973 187.043183 
z
" style="fill:#86561f;"/>
    <path clip-path="url(#pacfbc2e361)" d="M 206.297214 168.527892 
L 205.725965 104.960579 
L 218.777939 108.560414 
L 218.949524 172.361429 
z
" style="fill:#673d1b;"/>
    <path clip-path="url(#pacfbc2e361)" d="M 291.24765 185.184478 
L 298.036935 178.33102 
L 298.063764 177.603736 
L 291.272241 184.452754 
z
" style="fill:#050338;"/>
    <path clip-path="url(#pacfbc2e361)" d="M 170.430723 184.897786 
L 170.357983 182.210964 
L 178.300005 175.379236 
L 178.361455 178.049733 
z
" style="fill:#1a057d;"/>
    <path clip-path="url(#pacfbc2e361)" d="M 231.739835 176.23678 
L 231.932561 124.162282 
L 239.380954 117.803957 
L 239.002775 169.551023 
z
" style="fill:#c85a55;"/>
    <path clip-path="url(#pacfbc2e361)" d="M 231.739835 176.23678 
L 239.002775 169.551023 
L 239.386736 117.012784 
L 231.935508 123.365906 
z
" style="fill:#5f2c27;"/>
    <path clip-path="url(#pacfbc2e361)" d="M 257.743589 184.115686 
L 264.839875 177.282368 
L 277.971253 181.211726 
L 270.961723 188.120663 
z
" style="fill:#13034d;"/>
    <path clip-path="url(#pacfbc2e361)" d="M 157.822766 180.928173 
L 170.430723 184.897786 
L 170.417109 184.394921 
L 157.806061 180.427072 
z
" style="fill:#0b0777;"/>
    <path clip-path="url(#pacfbc2e361)" d="M 157.822766 180.928173 
L 157.801728 180.297096 
L 170.413577 184.264488 
L 170.430723 184.897786 
z
" style="fill:#050338;"/>
    <path clip-path="url(#pacfbc2e361)" d="M 198.736391 175.194243 
L 197.917849 111.221326 
L 205.725965 104.960579 
L 206.297214 168.527892 
z
" style="fill:#db823a;"/>
    <path clip-path="url(#pacfbc2e361)" d="M 277.971253 181.211726 
L 291.24765 185.184478 
L 291.272241 184.452754 
L 277.990856 180.482569 
z
" style="fill:#0b0777;"/>
    <path clip-path="url(#pacfbc2e361)" d="M 277.971253 181.211726 
L 278.003345 180.018041 
L 291.287908 183.986588 
L 291.24765 185.184478 
z
" style="fill:#080339;"/>
    <path clip-path="url(#pacfbc2e361)" d="M 170.430723 184.897786 
L 178.361455 178.049733 
L 191.031582 181.987547 
L 183.178635 188.911464 
z
" style="fill:#10034c;"/>
    <path clip-path="url(#pacfbc2e361)" d="M 218.949524 172.361429 
L 231.739835 176.23678 
L 231.935508 123.365906 
L 218.807852 119.682982 
z
" style="fill:#ca5e53;"/>
    <path clip-path="url(#pacfbc2e361)" d="M 257.801232 180.678315 
L 271.042623 184.671151 
L 278.063429 177.783207 
L 264.909102 173.86589 
z
" style="fill:#1b046f;"/>
    <path clip-path="url(#pacfbc2e361)" d="M 170.357983 182.210964 
L 183.122787 186.215155 
L 190.986821 179.307641 
L 178.300005 175.379236 
z
" style="fill:#17056d;"/>
    <path clip-path="url(#pacfbc2e361)" d="M 149.662704 187.831639 
L 149.638858 187.196707 
L 157.801728 180.297096 
L 157.822766 180.928173 
z
" style="fill:#0b0777;"/>
    <path clip-path="url(#pacfbc2e361)" d="M 203.841786 185.968896 
L 211.467294 179.100638 
L 224.338378 183.050047 
L 216.794403 189.994506 
z
" style="fill:#857313;"/>
    <path clip-path="url(#pacfbc2e361)" d="M 270.961723 188.120663 
L 270.989889 186.919682 
L 278.003345 180.018041 
L 277.971253 181.211726 
z
" style="fill:#110679;"/>
    <path clip-path="url(#pacfbc2e361)" d="M 205.839928 117.642139 
L 218.812174 121.290347 
L 226.341808 114.99695 
L 213.451412 111.417844 
z
" style="fill:#ac4d4b;"/>
    <path clip-path="url(#pacfbc2e361)" d="M 257.743589 184.115686 
L 264.839875 177.282368 
L 265.341941 152.504408 
L 258.161692 159.183661 
z
" style="fill:#3b0545;"/>
    <path clip-path="url(#pacfbc2e361)" d="M 270.961723 188.120663 
L 277.971253 181.211726 
L 278.063429 177.783207 
L 271.042623 184.671151 
z
" style="fill:#0f023c;"/>
    <path clip-path="url(#pacfbc2e361)" d="M 237.351973 187.043183 
L 244.670417 180.154631 
L 257.743589 184.115686 
L 250.510457 191.080779 
z
" style="fill:#783634;"/>
    <path clip-path="url(#pacfbc2e361)" d="M 183.178635 188.911464 
L 191.031582 181.987547 
L 190.986821 179.307641 
L 183.122787 186.215155 
z
" style="fill:#0c033b;"/>
    <path clip-path="url(#pacfbc2e361)" d="M 244.670417 180.154631 
L 251.851153 173.395697 
L 252.564633 121.459962 
L 245.20282 127.889698 
z
" style="fill:#5e2b28;"/>
    <path clip-path="url(#pacfbc2e361)" d="M 198.736391 175.194243 
L 198.080763 123.953796 
L 211.135834 127.673002 
L 211.467294 179.100638 
z
" style="fill:#5e2a29;"/>
    <path clip-path="url(#pacfbc2e361)" d="M 149.662704 187.831639 
L 157.822766 180.928173 
L 170.430723 184.897786 
L 162.346885 191.878042 
z
" style="fill:#070448;"/>
    <path clip-path="url(#pacfbc2e361)" d="M 149.638858 187.196707 
L 162.326978 191.24087 
L 170.413577 184.264488 
L 157.801728 180.297096 
z
" style="fill:#0a0667;"/>
    <path clip-path="url(#pacfbc2e361)" d="M 244.670417 180.154631 
L 257.743589 184.115686 
L 258.161692 159.183661 
L 244.923482 155.31172 
z
" style="fill:#7c0a91;"/>
    <path clip-path="url(#pacfbc2e361)" d="M 270.961723 188.120663 
L 277.971253 181.211726 
L 291.24765 185.184478 
L 284.327244 192.170297 
z
" style="fill:#0a0449;"/>
    <path clip-path="url(#pacfbc2e361)" d="M 257.743589 184.115686 
L 270.961723 188.120663 
L 271.042623 184.671151 
L 257.801232 180.678315 
z
" style="fill:#200580;"/>
    <path clip-path="url(#pacfbc2e361)" d="M 218.949524 172.361429 
L 218.758281 101.251094 
L 232.003987 104.863108 
L 231.739835 176.23678 
z
" style="fill:#6a4a14;"/>
    <path clip-path="url(#pacfbc2e361)" d="M 270.989889 186.919682 
L 284.363687 190.965076 
L 291.287908 183.986588 
L 278.003345 180.018041 
z
" style="fill:#0f0569;"/>
    <path clip-path="url(#pacfbc2e361)" d="M 211.467294 179.100638 
L 218.949524 172.361429 
L 218.777939 108.560414 
L 211.053456 114.89178 
z
" style="fill:#673d1b;"/>
    <path clip-path="url(#pacfbc2e361)" d="M 170.430723 184.897786 
L 170.380777 183.052909 
L 183.140288 187.060078 
L 183.178635 188.911464 
z
" style="fill:#0a033a;"/>
    <path clip-path="url(#pacfbc2e361)" d="M 170.430723 184.897786 
L 183.178635 188.911464 
L 183.122787 186.215155 
L 170.357983 182.210964 
z
" style="fill:#1a057d;"/>
    <path clip-path="url(#pacfbc2e361)" d="M 183.178635 188.911464 
L 191.031582 181.987547 
L 203.841786 185.968896 
L 196.068846 192.969946 
z
" style="fill:#591151;"/>
    <path clip-path="url(#pacfbc2e361)" d="M 231.739835 176.23678 
L 244.670417 180.154631 
L 245.20282 127.889698 
L 231.932561 124.162282 
z
" style="fill:#c85a55;"/>
    <path clip-path="url(#pacfbc2e361)" d="M 244.923482 155.31172 
L 258.161692 159.183661 
L 265.341941 152.504408 
L 252.190332 148.706072 
z
" style="fill:#6c087e;"/>
    <path clip-path="url(#pacfbc2e361)" d="M 191.031582 181.987547 
L 190.170314 130.422244 
L 198.080763 123.953796 
L 198.736391 175.194243 
z
" style="fill:#c75856;"/>
    <path clip-path="url(#pacfbc2e361)" d="M 257.743589 184.115686 
L 257.906405 174.406751 
L 271.19023 178.377264 
L 270.961723 188.120663 
z
" style="fill:#1d0142;"/>
    <path clip-path="url(#pacfbc2e361)" d="M 211.467294 179.100638 
L 211.006029 107.53326 
L 218.758281 101.251094 
L 218.949524 172.361429 
z
" style="fill:#e09d2a;"/>
    <path clip-path="url(#pacfbc2e361)" d="M 162.346885 191.878042 
L 170.430723 184.897786 
L 170.413577 184.264488 
L 162.326978 191.24087 
z
" style="fill:#050338;"/>
    <path clip-path="url(#pacfbc2e361)" d="M 216.794403 189.994506 
L 224.338378 183.050047 
L 237.351973 187.043183 
L 229.891821 194.06512 
z
" style="fill:#837b14;"/>
    <path clip-path="url(#pacfbc2e361)" d="M 198.736391 175.194243 
L 211.467294 179.100638 
L 211.053456 114.89178 
L 197.917849 111.221326 
z
" style="fill:#db823a;"/>
    <path clip-path="url(#pacfbc2e361)" d="M 162.346885 191.878042 
L 162.288894 190.02187 
L 170.380777 183.052909 
L 170.430723 184.897786 
z
" style="fill:#16067b;"/>
    <path clip-path="url(#pacfbc2e361)" d="M 284.327244 192.170297 
L 291.24765 185.184478 
L 291.287908 183.986588 
L 284.363687 190.965076 
z
" style="fill:#080339;"/>
    <path clip-path="url(#pacfbc2e361)" d="M 250.510457 191.080779 
L 250.639255 181.312045 
L 257.906405 174.406751 
L 257.743589 184.115686 
z
" style="fill:#3e038c;"/>
    <path clip-path="url(#pacfbc2e361)" d="M 218.807852 119.682982 
L 231.935508 123.365906 
L 239.386736 117.012784 
L 226.34336 113.400058 
z
" style="fill:#af5148;"/>
    <path clip-path="url(#pacfbc2e361)" d="M 250.510457 191.080779 
L 257.743589 184.115686 
L 270.961723 188.120663 
L 263.816264 195.163579 
z
" style="fill:#250255;"/>
    <path clip-path="url(#pacfbc2e361)" d="M 191.031582 181.987547 
L 190.508539 150.672218 
L 203.518104 154.540601 
L 203.841786 185.968896 
z
" style="fill:#450d3f;"/>
    <path clip-path="url(#pacfbc2e361)" d="M 149.662704 187.831639 
L 149.645249 187.366869 
L 162.332313 191.411632 
L 162.346885 191.878042 
z
" style="fill:#050338;"/>
    <path clip-path="url(#pacfbc2e361)" d="M 149.662704 187.831639 
L 162.346885 191.878042 
L 162.326978 191.24087 
L 149.638858 187.196707 
z
" style="fill:#0b0777;"/>
    <path clip-path="url(#pacfbc2e361)" d="M 231.739835 176.23678 
L 231.98914 108.87464 
L 245.359147 112.543315 
L 244.670417 180.154631 
z
" style="fill:#694318;"/>
    <path clip-path="url(#pacfbc2e361)" d="M 270.961723 188.120663 
L 284.327244 192.170297 
L 284.363687 190.965076 
L 270.989889 186.919682 
z
" style="fill:#110679;"/>
    <path clip-path="url(#pacfbc2e361)" d="M 162.346885 191.878042 
L 170.430723 184.897786 
L 183.178635 188.911464 
L 175.173234 195.969799 
z
" style="fill:#0d034a;"/>
    <path clip-path="url(#pacfbc2e361)" d="M 270.961723 188.120663 
L 271.025622 185.396039 
L 284.409921 189.436043 
L 284.327244 192.170297 
z
" style="fill:#0d023b;"/>
    <path clip-path="url(#pacfbc2e361)" d="M 162.288894 190.02187 
L 175.126984 194.107064 
L 183.140288 187.060078 
L 170.380777 183.052909 
z
" style="fill:#13056b;"/>
    <path clip-path="url(#pacfbc2e361)" d="M 183.178635 188.911464 
L 182.525957 157.400109 
L 190.508539 150.672218 
L 191.031582 181.987547 
z
" style="fill:#931c86;"/>
    <path clip-path="url(#pacfbc2e361)" d="M 141.344465 194.868925 
L 141.324877 194.40131 
L 149.645249 187.366869 
L 149.662704 187.831639 
z
" style="fill:#0b0777;"/>
    <path clip-path="url(#pacfbc2e361)" d="M 196.068846 192.969946 
L 203.841786 185.968896 
L 216.794403 189.994506 
L 209.103753 197.073984 
z
" style="fill:#857413;"/>
    <path clip-path="url(#pacfbc2e361)" d="M 244.670417 180.154631 
L 245.198508 128.31292 
L 258.616144 132.084133 
L 257.743589 184.115686 
z
" style="fill:#5e2a28;"/>
    <path clip-path="url(#pacfbc2e361)" d="M 224.338378 183.050047 
L 224.338378 115.255452 
L 231.98914 108.87464 
L 231.739835 176.23678 
z
" style="fill:#de8e33;"/>
    <path clip-path="url(#pacfbc2e361)" d="M 203.841786 185.968896 
L 211.467294 179.100638 
L 211.135834 127.673002 
L 203.308766 134.214672 
z
" style="fill:#5e2a29;"/>
    <path clip-path="url(#pacfbc2e361)" d="M 263.816264 195.163579 
L 263.870895 192.422247 
L 271.025622 185.396039 
L 270.961723 188.120663 
z
" style="fill:#1c057e;"/>
    <path clip-path="url(#pacfbc2e361)" d="M 224.338378 183.050047 
L 231.739835 176.23678 
L 232.003987 104.863108 
L 224.338378 111.216792 
z
" style="fill:#6a4a14;"/>
    <path clip-path="url(#pacfbc2e361)" d="M 229.891821 194.06512 
L 237.351973 187.043183 
L 250.510457 191.080779 
L 243.136481 198.181496 
z
" style="fill:#876616;"/>
    <path clip-path="url(#pacfbc2e361)" d="M 175.173234 195.969799 
L 183.178635 188.911464 
L 183.140288 187.060078 
L 175.126984 194.107064 
z
" style="fill:#0a033a;"/>
    <path clip-path="url(#pacfbc2e361)" d="M 237.351973 187.043183 
L 237.693306 134.872019 
L 245.198508 128.31292 
L 244.670417 180.154631 
z
" style="fill:#c75956;"/>
    <path clip-path="url(#pacfbc2e361)" d="M 250.639255 181.312045 
L 264.011635 185.360094 
L 271.19023 178.377264 
L 257.906405 174.406751 
z
" style="fill:#36027a;"/>
    <path clip-path="url(#pacfbc2e361)" d="M 191.031582 181.987547 
L 203.841786 185.968896 
L 203.308766 134.214672 
L 190.170314 130.422244 
z
" style="fill:#c75856;"/>
    <path clip-path="url(#pacfbc2e361)" d="M 231.932561 124.162282 
L 245.20282 127.889698 
L 252.564633 121.459962 
L 239.380954 117.803957 
z
" style="fill:#ad4f4a;"/>
    <path clip-path="url(#pacfbc2e361)" d="M 141.344465 194.868925 
L 149.662704 187.831639 
L 162.346885 191.878042 
L 154.105465 198.994368 
z
" style="fill:#070448;"/>
    <path clip-path="url(#pacfbc2e361)" d="M 263.816264 195.163579 
L 270.961723 188.120663 
L 271.19023 178.377264 
L 264.011635 185.360094 
z
" style="fill:#1d0142;"/>
    <path clip-path="url(#pacfbc2e361)" d="M 141.324877 194.40131 
L 154.088796 198.5251 
L 162.332313 191.411632 
L 149.645249 187.366869 
z
" style="fill:#0a0667;"/>
    <path clip-path="url(#pacfbc2e361)" d="M 263.816264 195.163579 
L 270.961723 188.120663 
L 284.327244 192.170297 
L 277.271882 199.292348 
z
" style="fill:#11034c;"/>
    <path clip-path="url(#pacfbc2e361)" d="M 183.178635 188.911464 
L 182.848926 172.993097 
L 195.84112 176.994711 
L 196.068846 192.969946 
z
" style="fill:#2a0046;"/>
    <path clip-path="url(#pacfbc2e361)" d="M 211.467294 179.100638 
L 224.338378 183.050047 
L 224.338378 111.216792 
L 211.006029 107.53326 
z
" style="fill:#e09d2a;"/>
    <path clip-path="url(#pacfbc2e361)" d="M 162.346885 191.878042 
L 162.321342 191.060464 
L 175.152863 195.149333 
L 175.173234 195.969799 
z
" style="fill:#070339;"/>
    <path clip-path="url(#pacfbc2e361)" d="M 162.346885 191.878042 
L 175.173234 195.969799 
L 175.126984 194.107064 
L 162.288894 190.02187 
z
" style="fill:#16067b;"/>
    <path clip-path="url(#pacfbc2e361)" d="M 175.173234 195.969799 
L 183.178635 188.911464 
L 196.068846 192.969946 
L 188.144156 200.107676 
z
" style="fill:#350059;"/>
    <path clip-path="url(#pacfbc2e361)" d="M 263.870895 192.422247 
L 277.345547 196.541308 
L 284.409921 189.436043 
L 271.025622 185.396039 
z
" style="fill:#18046d;"/>
    <path clip-path="url(#pacfbc2e361)" d="M 250.510457 191.080779 
L 263.816264 195.163579 
L 264.011635 185.360094 
L 250.639255 181.312045 
z
" style="fill:#3e038c;"/>
    <path clip-path="url(#pacfbc2e361)" d="M 196.068846 192.969946 
L 203.841786 185.968896 
L 203.518104 154.540601 
L 195.618029 161.344632 
z
" style="fill:#450d3f;"/>
    <path clip-path="url(#pacfbc2e361)" d="M 175.173234 195.969799 
L 174.775545 179.95276 
L 182.848926 172.993097 
L 183.178635 188.911464 
z
" style="fill:#590094;"/>
    <path clip-path="url(#pacfbc2e361)" d="M 154.105465 198.994368 
L 162.346885 191.878042 
L 162.332313 191.411632 
L 154.088796 198.5251 
z
" style="fill:#050338;"/>
    <path clip-path="url(#pacfbc2e361)" d="M 211.467294 179.100638 
L 210.950711 98.95039 
L 224.338378 102.600133 
L 224.338378 183.050047 
z
" style="fill:#685a0f;"/>
    <path clip-path="url(#pacfbc2e361)" d="M 154.105465 198.994368 
L 154.076245 198.171778 
L 162.321342 191.060464 
L 162.346885 191.878042 
z
" style="fill:#0e0678;"/>
    <path clip-path="url(#pacfbc2e361)" d="M 209.103753 197.073984 
L 216.794403 189.994506 
L 229.891821 194.06512 
L 222.285805 201.224351 
z
" style="fill:#808512;"/>
    <path clip-path="url(#pacfbc2e361)" d="M 237.351973 187.043183 
L 244.670417 180.154631 
L 245.359147 112.543315 
L 237.797169 118.997041 
z
" style="fill:#694318;"/>
    <path clip-path="url(#pacfbc2e361)" d="M 277.271882 199.292348 
L 284.327244 192.170297 
L 284.409921 189.436043 
L 277.345547 196.541308 
z
" style="fill:#0d023b;"/>
    <path clip-path="url(#pacfbc2e361)" d="M 197.917849 111.221326 
L 211.053456 114.89178 
L 218.777939 108.560414 
L 205.725965 104.960579 
z
" style="fill:#be7033;"/>
    <path clip-path="url(#pacfbc2e361)" d="M 243.136481 198.181496 
L 250.510457 191.080779 
L 263.816264 195.163579 
L 256.530882 202.34441 
z
" style="fill:#520b55;"/>
    <path clip-path="url(#pacfbc2e361)" d="M 183.178635 188.911464 
L 196.068846 192.969946 
L 195.618029 161.344632 
L 182.525957 157.400109 
z
" style="fill:#931c86;"/>
    <path clip-path="url(#pacfbc2e361)" d="M 141.344465 194.868925 
L 154.105465 198.994368 
L 154.088796 198.5251 
L 141.324877 194.40131 
z
" style="fill:#0b0777;"/>
    <path clip-path="url(#pacfbc2e361)" d="M 203.841786 185.968896 
L 203.010957 105.298547 
L 210.950711 98.95039 
L 211.467294 179.100638 
z
" style="fill:#ddbf20;"/>
    <path clip-path="url(#pacfbc2e361)" d="M 250.510457 191.080779 
L 257.743589 184.115686 
L 258.616144 132.084133 
L 251.200845 138.71803 
z
" style="fill:#5e2a28;"/>
    <path clip-path="url(#pacfbc2e361)" d="M 224.338378 183.050047 
L 237.351973 187.043183 
L 237.797169 118.997041 
L 224.338378 115.255452 
z
" style="fill:#de8e33;"/>
    <path clip-path="url(#pacfbc2e361)" d="M 154.105465 198.994368 
L 162.346885 191.878042 
L 175.173234 195.969799 
L 167.010898 203.166503 
z
" style="fill:#090449;"/>
    <path clip-path="url(#pacfbc2e361)" d="M 263.816264 195.163579 
L 277.271882 199.292348 
L 277.345547 196.541308 
L 263.870895 192.422247 
z
" style="fill:#1c057e;"/>
    <path clip-path="url(#pacfbc2e361)" d="M 154.076245 198.171778 
L 166.986911 202.341002 
L 175.152863 195.149333 
L 162.321342 191.060464 
z
" style="fill:#0c0668;"/>
    <path clip-path="url(#pacfbc2e361)" d="M 263.816264 195.163579 
L 263.913132 190.302866 
L 277.402499 194.414392 
L 277.271882 199.292348 
z
" style="fill:#12023e;"/>
    <path clip-path="url(#pacfbc2e361)" d="M 250.510457 191.080779 
L 250.880937 162.981605 
L 264.378268 166.962988 
L 263.816264 195.163579 
z
" style="fill:#400942;"/>
    <path clip-path="url(#pacfbc2e361)" d="M 188.144156 200.107676 
L 196.068846 192.969946 
L 209.103753 197.073984 
L 201.262108 204.292457 
z
" style="fill:#855121;"/>
    <path clip-path="url(#pacfbc2e361)" d="M 237.351973 187.043183 
L 250.510457 191.080779 
L 251.200845 138.71803 
L 237.693306 134.872019 
z
" style="fill:#c75956;"/>
    <path clip-path="url(#pacfbc2e361)" d="M 182.525957 157.400109 
L 195.618029 161.344632 
L 203.518104 154.540601 
L 190.508539 150.672218 
z
" style="fill:#7f1874;"/>
    <path clip-path="url(#pacfbc2e361)" d="M 190.170314 130.422244 
L 203.308766 134.214672 
L 211.135834 127.673002 
L 198.080763 123.953796 
z
" style="fill:#ac4d4b;"/>
    <path clip-path="url(#pacfbc2e361)" d="M 175.173234 195.969799 
L 174.998811 188.944852 
L 188.015023 193.057759 
L 188.144156 200.107676 
z
" style="fill:#170240;"/>
    <path clip-path="url(#pacfbc2e361)" d="M 188.144156 200.107676 
L 196.068846 192.969946 
L 195.84112 176.994711 
L 187.849723 184.033295 
z
" style="fill:#2a0046;"/>
    <path clip-path="url(#pacfbc2e361)" d="M 256.530882 202.34441 
L 256.610649 197.45378 
L 263.913132 190.302866 
L 263.816264 195.163579 
z
" style="fill:#270483;"/>
    <path clip-path="url(#pacfbc2e361)" d="M 167.010898 203.166503 
L 175.173234 195.969799 
L 175.152863 195.149333 
L 166.986911 202.341002 
z
" style="fill:#070339;"/>
    <path clip-path="url(#pacfbc2e361)" d="M 222.285805 201.224351 
L 229.891821 194.06512 
L 243.136481 198.181496 
L 235.617509 205.421836 
z
" style="fill:#837b14;"/>
    <path clip-path="url(#pacfbc2e361)" d="M 243.136481 198.181496 
L 243.405207 169.906345 
L 250.880937 162.981605 
L 250.510457 191.080779 
z
" style="fill:#87128d;"/>
    <path clip-path="url(#pacfbc2e361)" d="M 224.338378 183.050047 
L 224.338378 99.579071 
L 237.900137 103.258844 
L 237.351973 187.043183 
z
" style="fill:#666010;"/>
    <path clip-path="url(#pacfbc2e361)" d="M 174.775545 179.95276 
L 187.849723 184.033295 
L 195.84112 176.994711 
L 182.848926 172.993097 
z
" style="fill:#4d0080;"/>
    <path clip-path="url(#pacfbc2e361)" d="M 256.530882 202.34441 
L 263.816264 195.163579 
L 277.271882 199.292348 
L 270.077576 206.554656 
z
" style="fill:#17034f;"/>
    <path clip-path="url(#pacfbc2e361)" d="M 167.010898 203.166503 
L 166.805516 196.098234 
L 174.998811 188.944852 
L 175.173234 195.969799 
z
" style="fill:#300487;"/>
    <path clip-path="url(#pacfbc2e361)" d="M 175.173234 195.969799 
L 188.144156 200.107676 
L 187.849723 184.033295 
L 174.775545 179.95276 
z
" style="fill:#590094;"/>
    <path clip-path="url(#pacfbc2e361)" d="M 216.794403 189.994506 
L 224.338378 183.050047 
L 224.338378 102.600133 
L 216.486839 109.021586 
z
" style="fill:#685a0f;"/>
    <path clip-path="url(#pacfbc2e361)" d="M 154.105465 198.994368 
L 167.010898 203.166503 
L 166.986911 202.341002 
L 154.076245 198.171778 
z
" style="fill:#0e0678;"/>
    <path clip-path="url(#pacfbc2e361)" d="M 167.010898 203.166503 
L 175.173234 195.969799 
L 188.144156 200.107676 
L 180.063228 207.386128 
z
" style="fill:#1d0251;"/>
    <path clip-path="url(#pacfbc2e361)" d="M 216.794403 189.994506 
L 216.475285 105.979658 
L 224.338378 99.579071 
L 224.338378 183.050047 
z
" style="fill:#d9cd22;"/>
    <path clip-path="url(#pacfbc2e361)" d="M 256.610649 197.45378 
L 270.191555 201.646646 
L 277.402499 194.414392 
L 263.913132 190.302866 
z
" style="fill:#220472;"/>
    <path clip-path="url(#pacfbc2e361)" d="M 203.841786 185.968896 
L 216.794403 189.994506 
L 216.486839 109.021586 
L 203.010957 105.298547 
z
" style="fill:#ddbf20;"/>
    <path clip-path="url(#pacfbc2e361)" d="M 203.841786 185.968896 
L 203.009424 105.149658 
L 216.486271 108.872104 
L 216.794403 189.994506 
z
" style="fill:#685b0f;"/>
    <path clip-path="url(#pacfbc2e361)" d="M 201.262108 204.292457 
L 209.103753 197.073984 
L 222.285805 201.224351 
L 214.529606 208.524945 
z
" style="fill:#818015;"/>
    <path clip-path="url(#pacfbc2e361)" d="M 237.351973 187.043183 
L 237.843679 111.888202 
L 251.505058 115.644958 
L 250.510457 191.080779 
z
" style="fill:#6a4f11;"/>
    <path clip-path="url(#pacfbc2e361)" d="M 211.006029 107.53326 
L 224.338378 111.216792 
L 232.003987 104.863108 
L 218.758281 101.251094 
z
" style="fill:#c28924;"/>
    <path clip-path="url(#pacfbc2e361)" d="M 270.077576 206.554656 
L 277.271882 199.292348 
L 277.402499 194.414392 
L 270.191555 201.646646 
z
" style="fill:#12023e;"/>
    <path clip-path="url(#pacfbc2e361)" d="M 235.617509 205.421836 
L 243.136481 198.181496 
L 256.530882 202.34441 
L 249.101427 209.667246 
z
" style="fill:#753237;"/>
    <path clip-path="url(#pacfbc2e361)" d="M 256.530882 202.34441 
L 263.816264 195.163579 
L 264.378268 166.962988 
L 256.993723 173.966978 
z
" style="fill:#400942;"/>
    <path clip-path="url(#pacfbc2e361)" d="M 166.805516 196.098234 
L 179.903702 200.292691 
L 188.015023 193.057759 
L 174.998811 188.944852 
z
" style="fill:#2a0375;"/>
    <path clip-path="url(#pacfbc2e361)" d="M 196.068846 192.969946 
L 194.909273 111.624548 
L 203.009424 105.149658 
L 203.841786 185.968896 
z
" style="fill:#ddc120;"/>
    <path clip-path="url(#pacfbc2e361)" d="M 229.891821 194.06512 
L 230.103761 118.422737 
L 237.843679 111.888202 
L 237.351973 187.043183 
z
" style="fill:#e0a825;"/>
    <path clip-path="url(#pacfbc2e361)" d="M 237.693306 134.872019 
L 251.200845 138.71803 
L 258.616144 132.084133 
L 245.198508 128.31292 
z
" style="fill:#ad4e4a;"/>
    <path clip-path="url(#pacfbc2e361)" d="M 180.063228 207.386128 
L 188.144156 200.107676 
L 188.015023 193.057759 
L 179.903702 200.292691 
z
" style="fill:#170240;"/>
    <path clip-path="url(#pacfbc2e361)" d="M 256.530882 202.34441 
L 270.077576 206.554656 
L 270.191555 201.646646 
L 256.610649 197.45378 
z
" style="fill:#270483;"/>
    <path clip-path="url(#pacfbc2e361)" d="M 243.136481 198.181496 
L 256.530882 202.34441 
L 256.993723 173.966978 
L 243.405207 169.906345 
z
" style="fill:#87128d;"/>
    <path clip-path="url(#pacfbc2e361)" d="M 180.063228 207.386128 
L 188.144156 200.107676 
L 201.262108 204.292457 
L 193.264978 211.654059 
z
" style="fill:#6a2342;"/>
    <path clip-path="url(#pacfbc2e361)" d="M 229.891821 194.06512 
L 237.351973 187.043183 
L 237.900137 103.258844 
L 230.128106 109.733872 
z
" style="fill:#666010;"/>
    <path clip-path="url(#pacfbc2e361)" d="M 224.338378 115.255452 
L 237.797169 118.997041 
L 245.359147 112.543315 
L 231.98914 108.87464 
z
" style="fill:#c07b2c;"/>
    <path clip-path="url(#pacfbc2e361)" d="M 256.530882 202.34441 
L 256.68952 192.618086 
L 270.304257 196.79363 
L 270.077576 206.554656 
z
" style="fill:#1c0142;"/>
    <path clip-path="url(#pacfbc2e361)" d="M 167.010898 203.166503 
L 180.063228 207.386128 
L 179.903702 200.292691 
L 166.805516 196.098234 
z
" style="fill:#300487;"/>
    <path clip-path="url(#pacfbc2e361)" d="M 214.529606 208.524945 
L 222.285805 201.224351 
L 235.617509 205.421836 
L 227.94922 212.80596 
z
" style="fill:#847a14;"/>
    <path clip-path="url(#pacfbc2e361)" d="M 243.405207 169.906345 
L 256.993723 173.966978 
L 264.378268 166.962988 
L 250.880937 162.981605 
z
" style="fill:#75107a;"/>
    <path clip-path="url(#pacfbc2e361)" d="M 196.068846 192.969946 
L 195.122538 126.585357 
L 208.590823 130.442437 
L 209.103753 197.073984 
z
" style="fill:#683f1a;"/>
    <path clip-path="url(#pacfbc2e361)" d="M 216.794403 189.994506 
L 229.891821 194.06512 
L 230.128106 109.733872 
L 216.475285 105.979658 
z
" style="fill:#d9cd22;"/>
    <path clip-path="url(#pacfbc2e361)" d="M 249.101427 209.667246 
L 249.224667 199.880715 
L 256.68952 192.618086 
L 256.530882 202.34441 
z
" style="fill:#3c038c;"/>
    <path clip-path="url(#pacfbc2e361)" d="M 249.101427 209.667246 
L 256.530882 202.34441 
L 270.077576 206.554656 
L 262.740181 213.961405 
z
" style="fill:#240254;"/>
    <path clip-path="url(#pacfbc2e361)" d="M 216.794403 189.994506 
L 216.460688 102.136855 
L 230.138917 105.875644 
L 229.891821 194.06512 
z
" style="fill:#64680e;"/>
    <path clip-path="url(#pacfbc2e361)" d="M 209.103753 197.073984 
L 216.794403 189.994506 
L 216.486271 108.872104 
L 208.4752 115.422515 
z
" style="fill:#685b0f;"/>
    <path clip-path="url(#pacfbc2e361)" d="M 243.136481 198.181496 
L 250.510457 191.080779 
L 251.505058 115.644958 
L 243.858076 122.255614 
z
" style="fill:#6a4f11;"/>
    <path clip-path="url(#pacfbc2e361)" d="M 188.144156 200.107676 
L 186.920346 133.294511 
L 195.122538 126.585357 
L 196.068846 192.969946 
z
" style="fill:#dc8637;"/>
    <path clip-path="url(#pacfbc2e361)" d="M 243.136481 198.181496 
L 243.613933 147.944256 
L 257.353277 151.922279 
L 256.530882 202.34441 
z
" style="fill:#5c272b;"/>
    <path clip-path="url(#pacfbc2e361)" d="M 209.103753 197.073984 
L 208.422991 108.640423 
L 216.460688 102.136855 
L 216.794403 189.994506 
z
" style="fill:#d4dc1e;"/>
    <path clip-path="url(#pacfbc2e361)" d="M 188.144156 200.107676 
L 187.377061 158.228601 
L 200.770203 162.260169 
L 201.262108 204.292457 
z
" style="fill:#531b34;"/>
    <path clip-path="url(#pacfbc2e361)" d="M 196.068846 192.969946 
L 209.103753 197.073984 
L 208.4752 115.422515 
L 194.909273 111.624548 
z
" style="fill:#ddc120;"/>
    <path clip-path="url(#pacfbc2e361)" d="M 193.264978 211.654059 
L 201.262108 204.292457 
L 214.529606 208.524945 
L 206.61873 215.971129 
z
" style="fill:#875b1b;"/>
    <path clip-path="url(#pacfbc2e361)" d="M 229.891821 194.06512 
L 243.136481 198.181496 
L 243.858076 122.255614 
L 230.103761 118.422737 
z
" style="fill:#e0a825;"/>
    <path clip-path="url(#pacfbc2e361)" d="M 235.617509 205.421836 
L 235.906875 154.863759 
L 243.613933 147.944256 
L 243.136481 198.181496 
z
" style="fill:#c2525b;"/>
    <path clip-path="url(#pacfbc2e361)" d="M 227.94922 212.80596 
L 235.617509 205.421836 
L 249.101427 209.667246 
L 241.523583 217.136342 
z
" style="fill:#86591d;"/>
    <path clip-path="url(#pacfbc2e361)" d="M 180.063228 207.386128 
L 179.115419 165.241198 
L 187.377061 158.228601 
L 188.144156 200.107676 
z
" style="fill:#b03a6e;"/>
    <path clip-path="url(#pacfbc2e361)" d="M 229.891821 194.06512 
L 230.128672 109.531884 
L 243.942911 113.3293 
L 243.136481 198.181496 
z
" style="fill:#666010;"/>
    <path clip-path="url(#pacfbc2e361)" d="M 249.224667 199.880715 
L 262.9324 204.139899 
L 270.304257 196.79363 
L 256.68952 192.618086 
z
" style="fill:#340279;"/>
    <path clip-path="url(#pacfbc2e361)" d="M 262.740181 213.961405 
L 270.077576 206.554656 
L 270.304257 196.79363 
L 262.9324 204.139899 
z
" style="fill:#1c0142;"/>
    <path clip-path="url(#pacfbc2e361)" d="M 201.262108 204.292457 
L 209.103753 197.073984 
L 208.590823 130.442437 
L 200.477274 137.230062 
z
" style="fill:#683f1a;"/>
    <path clip-path="url(#pacfbc2e361)" d="M 222.285805 201.224351 
L 222.197371 116.137548 
L 230.128672 109.531884 
L 229.891821 194.06512 
z
" style="fill:#d9cd22;"/>
    <path clip-path="url(#pacfbc2e361)" d="M 249.101427 209.667246 
L 262.740181 213.961405 
L 262.9324 204.139899 
L 249.224667 199.880715 
z
" style="fill:#3c038c;"/>
    <path clip-path="url(#pacfbc2e361)" d="M 203.010957 105.298547 
L 216.486839 109.021586 
L 224.338378 102.600133 
L 210.950711 98.95039 
z
" style="fill:#c0a61c;"/>
    <path clip-path="url(#pacfbc2e361)" d="M 222.285805 201.224351 
L 229.891821 194.06512 
L 230.138917 105.875644 
L 222.193545 112.455764 
z
" style="fill:#64680e;"/>
    <path clip-path="url(#pacfbc2e361)" d="M 206.61873 215.971129 
L 214.529606 208.524945 
L 227.94922 212.80596 
L 220.127123 220.338193 
z
" style="fill:#876517;"/>
    <path clip-path="url(#pacfbc2e361)" d="M 188.144156 200.107676 
L 201.262108 204.292457 
L 200.477274 137.230062 
L 186.920346 133.294511 
z
" style="fill:#dc8637;"/>
    <path clip-path="url(#pacfbc2e361)" d="M 209.103753 197.073984 
L 208.438313 110.630799 
L 222.195622 114.454173 
L 222.285805 201.224351 
z
" style="fill:#656410;"/>
    <path clip-path="url(#pacfbc2e361)" d="M 249.101427 209.667246 
L 249.344 190.404445 
L 263.118537 194.629226 
L 262.740181 213.961405 
z
" style="fill:#300046;"/>
    <path clip-path="url(#pacfbc2e361)" d="M 249.101427 209.667246 
L 256.530882 202.34441 
L 257.353277 151.922279 
L 249.740444 158.922653 
z
" style="fill:#5c272b;"/>
    <path clip-path="url(#pacfbc2e361)" d="M 241.523583 217.136342 
L 249.101427 209.667246 
L 262.740181 213.961405 
L 255.255385 221.516949 
z
" style="fill:#3d005a;"/>
    <path clip-path="url(#pacfbc2e361)" d="M 209.103753 197.073984 
L 222.285805 201.224351 
L 222.193545 112.455764 
L 208.422991 108.640423 
z
" style="fill:#d4dc1e;"/>
    <path clip-path="url(#pacfbc2e361)" d="M 193.264978 211.654059 
L 201.262108 204.292457 
L 200.770203 162.260169 
L 192.595893 169.3546 
z
" style="fill:#531b34;"/>
    <path clip-path="url(#pacfbc2e361)" d="M 201.262108 204.292457 
L 200.243818 117.281765 
L 208.438313 110.630799 
L 209.103753 197.073984 
z
" style="fill:#d6d422;"/>
    <path clip-path="url(#pacfbc2e361)" d="M 241.523583 217.136342 
L 241.693622 197.753172 
L 249.344 190.404445 
L 249.101427 209.667246 
z
" style="fill:#650095;"/>
    <path clip-path="url(#pacfbc2e361)" d="M 235.617509 205.421836 
L 249.101427 209.667246 
L 249.740444 158.922653 
L 235.906875 154.863759 
z
" style="fill:#c2525b;"/>
    <path clip-path="url(#pacfbc2e361)" d="M 180.063228 207.386128 
L 193.264978 211.654059 
L 192.595893 169.3546 
L 179.115419 165.241198 
z
" style="fill:#b03a6e;"/>
    <path clip-path="url(#pacfbc2e361)" d="M 235.617509 205.421836 
L 243.136481 198.181496 
L 243.942911 113.3293 
L 236.106342 120.013038 
z
" style="fill:#666010;"/>
    <path clip-path="url(#pacfbc2e361)" d="M 220.127123 220.338193 
L 227.94922 212.80596 
L 241.523583 217.136342 
L 233.792858 224.756123 
z
" style="fill:#86551f;"/>
    <path clip-path="url(#pacfbc2e361)" d="M 216.475285 105.979658 
L 230.128106 109.733872 
L 237.900137 103.258844 
L 224.338378 99.579071 
z
" style="fill:#bcb21d;"/>
    <path clip-path="url(#pacfbc2e361)" d="M 222.285805 201.224351 
L 222.198067 116.806918 
L 236.102495 120.685104 
L 235.617509 205.421836 
z
" style="fill:#675f10;"/>
    <path clip-path="url(#pacfbc2e361)" d="M 222.285805 201.224351 
L 235.617509 205.421836 
L 236.106342 120.013038 
L 222.197371 116.137548 
z
" style="fill:#d9cd22;"/>
    <path clip-path="url(#pacfbc2e361)" d="M 201.262108 204.292457 
L 200.424399 132.712008 
L 214.171426 136.676142 
L 214.529606 208.524945 
z
" style="fill:#694715;"/>
    <path clip-path="url(#pacfbc2e361)" d="M 230.103761 118.422737 
L 243.858076 122.255614 
L 251.505058 115.644958 
L 237.843679 111.888202 
z
" style="fill:#c29220;"/>
    <path clip-path="url(#pacfbc2e361)" d="M 214.529606 208.524945 
L 214.106007 123.553372 
L 222.198067 116.806918 
L 222.285805 201.224351 
z
" style="fill:#daca21;"/>
    <path clip-path="url(#pacfbc2e361)" d="M 235.617509 205.421836 
L 236.020961 134.930796 
L 249.992434 138.912067 
L 249.101427 209.667246 
z
" style="fill:#694516;"/>
    <path clip-path="url(#pacfbc2e361)" d="M 214.529606 208.524945 
L 222.285805 201.224351 
L 222.195622 114.454173 
L 214.094196 121.184155 
z
" style="fill:#656410;"/>
    <path clip-path="url(#pacfbc2e361)" d="M 194.909273 111.624548 
L 208.4752 115.422515 
L 216.486271 108.872104 
L 203.009424 105.149658 
z
" style="fill:#c0a71c;"/>
    <path clip-path="url(#pacfbc2e361)" d="M 255.255385 221.516949 
L 262.740181 213.961405 
L 263.118537 194.629226 
L 255.563087 202.063851 
z
" style="fill:#300046;"/>
    <path clip-path="url(#pacfbc2e361)" d="M 193.264978 211.654059 
L 192.125366 139.607915 
L 200.424399 132.712008 
L 201.262108 204.292457 
z
" style="fill:#df972d;"/>
    <path clip-path="url(#pacfbc2e361)" d="M 179.115419 165.241198 
L 192.595893 169.3546 
L 200.770203 162.260169 
L 187.377061 158.228601 
z
" style="fill:#98325f;"/>
    <path clip-path="url(#pacfbc2e361)" d="M 227.94922 212.80596 
L 228.079708 141.856544 
L 236.020961 134.930796 
L 235.617509 205.421836 
z
" style="fill:#df9330;"/>
    <path clip-path="url(#pacfbc2e361)" d="M 201.262108 204.292457 
L 214.529606 208.524945 
L 214.094196 121.184155 
L 200.243818 117.281765 
z
" style="fill:#d6d422;"/>
    <path clip-path="url(#pacfbc2e361)" d="M 235.906875 154.863759 
L 249.740444 158.922653 
L 257.353277 151.922279 
L 243.613933 147.944256 
z
" style="fill:#a9474f;"/>
    <path clip-path="url(#pacfbc2e361)" d="M 241.693622 197.753172 
L 255.563087 202.063851 
L 263.118537 194.629226 
L 249.344 190.404445 
z
" style="fill:#580081;"/>
    <path clip-path="url(#pacfbc2e361)" d="M 241.523583 217.136342 
L 255.255385 221.516949 
L 255.563087 202.063851 
L 241.693622 197.753172 
z
" style="fill:#650095;"/>
    <path clip-path="url(#pacfbc2e361)" d="M 233.792858 224.756123 
L 241.523583 217.136342 
L 255.255385 221.516949 
L 247.618703 229.225814 
z
" style="fill:#540d54;"/>
    <path clip-path="url(#pacfbc2e361)" d="M 186.920346 133.294511 
L 200.477274 137.230062 
L 208.590823 130.442437 
L 195.122538 126.585357 
z
" style="fill:#bf7530;"/>
    <path clip-path="url(#pacfbc2e361)" d="M 241.523583 217.136342 
L 241.788722 186.91264 
L 255.735192 191.183238 
L 255.255385 221.516949 
z
" style="fill:#420b41;"/>
    <path clip-path="url(#pacfbc2e361)" d="M 214.529606 208.524945 
L 214.149119 132.201458 
L 228.090121 136.194913 
L 227.94922 212.80596 
z
" style="fill:#6a4f12;"/>
    <path clip-path="url(#pacfbc2e361)" d="M 227.94922 212.80596 
L 235.617509 205.421836 
L 236.102495 120.685104 
L 228.10609 127.512094 
z
" style="fill:#675f10;"/>
    <path clip-path="url(#pacfbc2e361)" d="M 206.61873 215.971129 
L 214.529606 208.524945 
L 214.171426 136.676142 
L 205.964985 143.654198 
z
" style="fill:#694715;"/>
    <path clip-path="url(#pacfbc2e361)" d="M 233.792858 224.756123 
L 233.94022 194.34156 
L 241.788722 186.91264 
L 241.523583 217.136342 
z
" style="fill:#8c168a;"/>
    <path clip-path="url(#pacfbc2e361)" d="M 206.61873 215.971129 
L 205.924255 139.148617 
L 214.149119 132.201458 
L 214.529606 208.524945 
z
" style="fill:#e0a725;"/>
    <path clip-path="url(#pacfbc2e361)" d="M 214.529606 208.524945 
L 227.94922 212.80596 
L 228.10609 127.512094 
L 214.106007 123.553372 
z
" style="fill:#daca21;"/>
    <path clip-path="url(#pacfbc2e361)" d="M 241.523583 217.136342 
L 249.101427 209.667246 
L 249.992434 138.912067 
L 242.148328 145.920404 
z
" style="fill:#694516;"/>
    <path clip-path="url(#pacfbc2e361)" d="M 193.264978 211.654059 
L 206.61873 215.971129 
L 205.964985 143.654198 
L 192.125366 139.607915 
z
" style="fill:#df972d;"/>
    <path clip-path="url(#pacfbc2e361)" d="M 208.422991 108.640423 
L 222.193545 112.455764 
L 230.138917 105.875644 
L 216.460688 102.136855 
z
" style="fill:#b8bf1a;"/>
    <path clip-path="url(#pacfbc2e361)" d="M 227.94922 212.80596 
L 228.076841 143.415212 
L 242.134601 147.485245 
L 241.523583 217.136342 
z
" style="fill:#684218;"/>
    <path clip-path="url(#pacfbc2e361)" d="M 227.94922 212.80596 
L 241.523583 217.136342 
L 242.148328 145.920404 
L 228.079708 141.856544 
z
" style="fill:#df9330;"/>
    <path clip-path="url(#pacfbc2e361)" d="M 220.127123 220.338193 
L 219.976735 150.495665 
L 228.076841 143.415212 
L 227.94922 212.80596 
z
" style="fill:#dd8d33;"/>
    <path clip-path="url(#pacfbc2e361)" d="M 247.618703 229.225814 
L 255.255385 221.516949 
L 255.735192 191.183238 
L 247.983718 198.700369 
z
" style="fill:#420b41;"/>
    <path clip-path="url(#pacfbc2e361)" d="M 220.127123 220.338193 
L 227.94922 212.80596 
L 228.090121 136.194913 
L 219.96108 143.225512 
z
" style="fill:#6a4f12;"/>
    <path clip-path="url(#pacfbc2e361)" d="M 222.197371 116.137548 
L 236.106342 120.013038 
L 243.942911 113.3293 
L 230.128672 109.531884 
z
" style="fill:#bcb21d;"/>
    <path clip-path="url(#pacfbc2e361)" d="M 233.792858 224.756123 
L 247.618703 229.225814 
L 247.983718 198.700369 
L 233.94022 194.34156 
z
" style="fill:#8c168a;"/>
    <path clip-path="url(#pacfbc2e361)" d="M 206.61873 215.971129 
L 220.127123 220.338193 
L 219.96108 143.225512 
L 205.924255 139.148617 
z
" style="fill:#e0a725;"/>
    <path clip-path="url(#pacfbc2e361)" d="M 233.792858 224.756123 
L 241.523583 217.136342 
L 242.134601 147.485245 
L 234.132524 154.650946 
z
" style="fill:#684218;"/>
    <path clip-path="url(#pacfbc2e361)" d="M 233.94022 194.34156 
L 247.983718 198.700369 
L 255.735192 191.183238 
L 241.788722 186.91264 
z
" style="fill:#791378;"/>
    <path clip-path="url(#pacfbc2e361)" d="M 200.243818 117.281765 
L 214.094196 121.184155 
L 222.195622 114.454173 
L 208.438313 110.630799 
z
" style="fill:#bab81e;"/>
    <path clip-path="url(#pacfbc2e361)" d="M 220.127123 220.338193 
L 233.792858 224.756123 
L 234.132524 154.650946 
L 219.976735 150.495665 
z
" style="fill:#dd8d33;"/>
    <path clip-path="url(#pacfbc2e361)" d="M 192.125366 139.607915 
L 205.964985 143.654198 
L 214.171426 136.676142 
L 200.424399 132.712008 
z
" style="fill:#c28327;"/>
    <path clip-path="url(#pacfbc2e361)" d="M 228.079708 141.856544 
L 242.148328 145.920404 
L 249.992434 138.912067 
L 236.020961 134.930796 
z
" style="fill:#c18029;"/>
    <path clip-path="url(#pacfbc2e361)" d="M 214.106007 123.553372 
L 228.10609 127.512094 
L 236.102495 120.685104 
L 222.198067 116.806918 
z
" style="fill:#bdaf1d;"/>
    <path clip-path="url(#pacfbc2e361)" d="M 205.924255 139.148617 
L 219.96108 143.225512 
L 228.090121 136.194913 
L 214.149119 132.201458 
z
" style="fill:#c29121;"/>
    <path clip-path="url(#pacfbc2e361)" d="M 219.976735 150.495665 
L 234.132524 154.650946 
L 242.134601 147.485245 
L 228.076841 143.415212 
z
" style="fill:#c07a2d;"/>
   </g>
   <g id="text_15">
    <!-- W50__H30__A320_bars_extracted.txt -->
    <g transform="translate(110.101875 28.56)scale(0.12 -0.12)">
     <defs>
      <path d="M 3.328125 72.90625 
L 13.28125 72.90625 
L 28.609375 11.28125 
L 43.890625 72.90625 
L 54.984375 72.90625 
L 70.3125 11.28125 
L 85.59375 72.90625 
L 95.609375 72.90625 
L 77.296875 0 
L 64.890625 0 
L 49.515625 63.28125 
L 33.984375 0 
L 21.578125 0 
z
" id="DejaVuSans-87"/>
      <path d="M 10.796875 72.90625 
L 49.515625 72.90625 
L 49.515625 64.59375 
L 19.828125 64.59375 
L 19.828125 46.734375 
Q 21.96875 47.46875 24.109375 47.828125 
Q 26.265625 48.1875 28.421875 48.1875 
Q 40.625 48.1875 47.75 41.5 
Q 54.890625 34.8125 54.890625 23.390625 
Q 54.890625 11.625 47.5625 5.09375 
Q 40.234375 -1.421875 26.90625 -1.421875 
Q 22.3125 -1.421875 17.546875 -0.640625 
Q 12.796875 0.140625 7.71875 1.703125 
L 7.71875 11.625 
Q 12.109375 9.234375 16.796875 8.0625 
Q 21.484375 6.890625 26.703125 6.890625 
Q 35.15625 6.890625 40.078125 11.328125 
Q 45.015625 15.765625 45.015625 23.390625 
Q 45.015625 31 40.078125 35.4375 
Q 35.15625 39.890625 26.703125 39.890625 
Q 22.75 39.890625 18.8125 39.015625 
Q 14.890625 38.140625 10.796875 36.28125 
z
" id="DejaVuSans-53"/>
      <path d="M 50.984375 -16.609375 
L 50.984375 -23.578125 
L -0.984375 -23.578125 
L -0.984375 -16.609375 
z
" id="DejaVuSans-95"/>
      <path d="M 9.8125 72.90625 
L 19.671875 72.90625 
L 19.671875 43.015625 
L 55.515625 43.015625 
L 55.515625 72.90625 
L 65.375 72.90625 
L 65.375 0 
L 55.515625 0 
L 55.515625 34.71875 
L 19.671875 34.71875 
L 19.671875 0 
L 9.8125 0 
z
" id="DejaVuSans-72"/>
      <path d="M 34.1875 63.1875 
L 20.796875 26.90625 
L 47.609375 26.90625 
z
M 28.609375 72.90625 
L 39.796875 72.90625 
L 67.578125 0 
L 57.328125 0 
L 50.6875 18.703125 
L 17.828125 18.703125 
L 11.1875 0 
L 0.78125 0 
z
" id="DejaVuSans-65"/>
      <path d="M 48.6875 27.296875 
Q 48.6875 37.203125 44.609375 42.84375 
Q 40.53125 48.484375 33.40625 48.484375 
Q 26.265625 48.484375 22.1875 42.84375 
Q 18.109375 37.203125 18.109375 27.296875 
Q 18.109375 17.390625 22.1875 11.75 
Q 26.265625 6.109375 33.40625 6.109375 
Q 40.53125 6.109375 44.609375 11.75 
Q 48.6875 17.390625 48.6875 27.296875 
z
M 18.109375 46.390625 
Q 20.953125 51.265625 25.265625 53.625 
Q 29.59375 56 35.59375 56 
Q 45.5625 56 51.78125 48.09375 
Q 58.015625 40.1875 58.015625 27.296875 
Q 58.015625 14.40625 51.78125 6.484375 
Q 45.5625 -1.421875 35.59375 -1.421875 
Q 29.59375 -1.421875 25.265625 0.953125 
Q 20.953125 3.328125 18.109375 8.203125 
L 18.109375 0 
L 9.078125 0 
L 9.078125 75.984375 
L 18.109375 75.984375 
z
" id="DejaVuSans-98"/>
      <path d="M 34.28125 27.484375 
Q 23.390625 27.484375 19.1875 25 
Q 14.984375 22.515625 14.984375 16.5 
Q 14.984375 11.71875 18.140625 8.90625 
Q 21.296875 6.109375 26.703125 6.109375 
Q 34.1875 6.109375 38.703125 11.40625 
Q 43.21875 16.703125 43.21875 25.484375 
L 43.21875 27.484375 
z
M 52.203125 31.203125 
L 52.203125 0 
L 43.21875 0 
L 43.21875 8.296875 
Q 40.140625 3.328125 35.546875 0.953125 
Q 30.953125 -1.421875 24.3125 -1.421875 
Q 15.921875 -1.421875 10.953125 3.296875 
Q 6 8.015625 6 15.921875 
Q 6 25.140625 12.171875 29.828125 
Q 18.359375 34.515625 30.609375 34.515625 
L 43.21875 34.515625 
L 43.21875 35.40625 
Q 43.21875 41.609375 39.140625 45 
Q 35.0625 48.390625 27.6875 48.390625 
Q 23 48.390625 18.546875 47.265625 
Q 14.109375 46.140625 10.015625 43.890625 
L 10.015625 52.203125 
Q 14.9375 54.109375 19.578125 55.046875 
Q 24.21875 56 28.609375 56 
Q 40.484375 56 46.34375 49.84375 
Q 52.203125 43.703125 52.203125 31.203125 
z
" id="DejaVuSans-97"/>
      <path d="M 41.109375 46.296875 
Q 39.59375 47.171875 37.8125 47.578125 
Q 36.03125 48 33.890625 48 
Q 26.265625 48 22.1875 43.046875 
Q 18.109375 38.09375 18.109375 28.8125 
L 18.109375 0 
L 9.078125 0 
L 9.078125 54.6875 
L 18.109375 54.6875 
L 18.109375 46.1875 
Q 20.953125 51.171875 25.484375 53.578125 
Q 30.03125 56 36.53125 56 
Q 37.453125 56 38.578125 55.875 
Q 39.703125 55.765625 41.0625 55.515625 
z
" id="DejaVuSans-114"/>
      <path d="M 44.28125 53.078125 
L 44.28125 44.578125 
Q 40.484375 46.53125 36.375 47.5 
Q 32.28125 48.484375 27.875 48.484375 
Q 21.1875 48.484375 17.84375 46.4375 
Q 14.5 44.390625 14.5 40.28125 
Q 14.5 37.15625 16.890625 35.375 
Q 19.28125 33.59375 26.515625 31.984375 
L 29.59375 31.296875 
Q 39.15625 29.25 43.1875 25.515625 
Q 47.21875 21.78125 47.21875 15.09375 
Q 47.21875 7.46875 41.1875 3.015625 
Q 35.15625 -1.421875 24.609375 -1.421875 
Q 20.21875 -1.421875 15.453125 -0.5625 
Q 10.6875 0.296875 5.421875 2 
L 5.421875 11.28125 
Q 10.40625 8.6875 15.234375 7.390625 
Q 20.0625 6.109375 24.8125 6.109375 
Q 31.15625 6.109375 34.5625 8.28125 
Q 37.984375 10.453125 37.984375 14.40625 
Q 37.984375 18.0625 35.515625 20.015625 
Q 33.0625 21.96875 24.703125 23.78125 
L 21.578125 24.515625 
Q 13.234375 26.265625 9.515625 29.90625 
Q 5.8125 33.546875 5.8125 39.890625 
Q 5.8125 47.609375 11.28125 51.796875 
Q 16.75 56 26.8125 56 
Q 31.78125 56 36.171875 55.265625 
Q 40.578125 54.546875 44.28125 53.078125 
z
" id="DejaVuSans-115"/>
      <path d="M 56.203125 29.59375 
L 56.203125 25.203125 
L 14.890625 25.203125 
Q 15.484375 15.921875 20.484375 11.0625 
Q 25.484375 6.203125 34.421875 6.203125 
Q 39.59375 6.203125 44.453125 7.46875 
Q 49.3125 8.734375 54.109375 11.28125 
L 54.109375 2.78125 
Q 49.265625 0.734375 44.1875 -0.34375 
Q 39.109375 -1.421875 33.890625 -1.421875 
Q 20.796875 -1.421875 13.15625 6.1875 
Q 5.515625 13.8125 5.515625 26.8125 
Q 5.515625 40.234375 12.765625 48.109375 
Q 20.015625 56 32.328125 56 
Q 43.359375 56 49.78125 48.890625 
Q 56.203125 41.796875 56.203125 29.59375 
z
M 47.21875 32.234375 
Q 47.125 39.59375 43.09375 43.984375 
Q 39.0625 48.390625 32.421875 48.390625 
Q 24.90625 48.390625 20.390625 44.140625 
Q 15.875 39.890625 15.1875 32.171875 
z
" id="DejaVuSans-101"/>
      <path d="M 54.890625 54.6875 
L 35.109375 28.078125 
L 55.90625 0 
L 45.3125 0 
L 29.390625 21.484375 
L 13.484375 0 
L 2.875 0 
L 24.125 28.609375 
L 4.6875 54.6875 
L 15.28125 54.6875 
L 29.78125 35.203125 
L 44.28125 54.6875 
z
" id="DejaVuSans-120"/>
      <path d="M 18.3125 70.21875 
L 18.3125 54.6875 
L 36.8125 54.6875 
L 36.8125 47.703125 
L 18.3125 47.703125 
L 18.3125 18.015625 
Q 18.3125 11.328125 20.140625 9.421875 
Q 21.96875 7.515625 27.59375 7.515625 
L 36.8125 7.515625 
L 36.8125 0 
L 27.59375 0 
Q 17.1875 0 13.234375 3.875 
Q 9.28125 7.765625 9.28125 18.015625 
L 9.28125 47.703125 
L 2.6875 47.703125 
L 2.6875 54.6875 
L 9.28125 54.6875 
L 9.28125 70.21875 
z
" id="DejaVuSans-116"/>
      <path d="M 48.78125 52.59375 
L 48.78125 44.1875 
Q 44.96875 46.296875 41.140625 47.34375 
Q 37.3125 48.390625 33.40625 48.390625 
Q 24.65625 48.390625 19.8125 42.84375 
Q 14.984375 37.3125 14.984375 27.296875 
Q 14.984375 17.28125 19.8125 11.734375 
Q 24.65625 6.203125 33.40625 6.203125 
Q 37.3125 6.203125 41.140625 7.25 
Q 44.96875 8.296875 48.78125 10.40625 
L 48.78125 2.09375 
Q 45.015625 0.34375 40.984375 -0.53125 
Q 36.96875 -1.421875 32.421875 -1.421875 
Q 20.0625 -1.421875 12.78125 6.34375 
Q 5.515625 14.109375 5.515625 27.296875 
Q 5.515625 40.671875 12.859375 48.328125 
Q 20.21875 56 33.015625 56 
Q 37.15625 56 41.109375 55.140625 
Q 45.0625 54.296875 48.78125 52.59375 
z
" id="DejaVuSans-99"/>
      <path d="M 45.40625 46.390625 
L 45.40625 75.984375 
L 54.390625 75.984375 
L 54.390625 0 
L 45.40625 0 
L 45.40625 8.203125 
Q 42.578125 3.328125 38.25 0.953125 
Q 33.9375 -1.421875 27.875 -1.421875 
Q 17.96875 -1.421875 11.734375 6.484375 
Q 5.515625 14.40625 5.515625 27.296875 
Q 5.515625 40.1875 11.734375 48.09375 
Q 17.96875 56 27.875 56 
Q 33.9375 56 38.25 53.625 
Q 42.578125 51.265625 45.40625 46.390625 
z
M 14.796875 27.296875 
Q 14.796875 17.390625 18.875 11.75 
Q 22.953125 6.109375 30.078125 6.109375 
Q 37.203125 6.109375 41.296875 11.75 
Q 45.40625 17.390625 45.40625 27.296875 
Q 45.40625 37.203125 41.296875 42.84375 
Q 37.203125 48.484375 30.078125 48.484375 
Q 22.953125 48.484375 18.875 42.84375 
Q 14.796875 37.203125 14.796875 27.296875 
z
" id="DejaVuSans-100"/>
      <path d="M 10.6875 12.40625 
L 21 12.40625 
L 21 0 
L 10.6875 0 
z
" id="DejaVuSans-46"/>
     </defs>
     <use xlink:href="#DejaVuSans-87"/>
     <use x="98.876953" xlink:href="#DejaVuSans-53"/>
     <use x="162.5" xlink:href="#DejaVuSans-48"/>
     <use x="226.123047" xlink:href="#DejaVuSans-95"/>
     <use x="276.123047" xlink:href="#DejaVuSans-95"/>
     <use x="326.123047" xlink:href="#DejaVuSans-72"/>
     <use x="401.318359" xlink:href="#DejaVuSans-51"/>
     <use x="464.941406" xlink:href="#DejaVuSans-48"/>
     <use x="528.564453" xlink:href="#DejaVuSans-95"/>
     <use x="578.564453" xlink:href="#DejaVuSans-95"/>
     <use x="628.564453" xlink:href="#DejaVuSans-65"/>
     <use x="696.972656" xlink:href="#DejaVuSans-51"/>
     <use x="760.595703" xlink:href="#DejaVuSans-50"/>
     <use x="824.21875" xlink:href="#DejaVuSans-48"/>
     <use x="887.841797" xlink:href="#DejaVuSans-95"/>
     <use x="937.841797" xlink:href="#DejaVuSans-98"/>
     <use x="1001.318359" xlink:href="#DejaVuSans-97"/>
     <use x="1062.597656" xlink:href="#DejaVuSans-114"/>
     <use x="1103.710938" xlink:href="#DejaVuSans-115"/>
     <use x="1155.810547" xlink:href="#DejaVuSans-95"/>
     <use x="1205.810547" xlink:href="#DejaVuSans-101"/>
     <use x="1265.583984" xlink:href="#DejaVuSans-120"/>
     <use x="1324.763672" xlink:href="#DejaVuSans-116"/>
     <use x="1363.972656" xlink:href="#DejaVuSans-114"/>
     <use x="1405.085938" xlink:href="#DejaVuSans-97"/>
     <use x="1466.365234" xlink:href="#DejaVuSans-99"/>
     <use x="1521.345703" xlink:href="#DejaVuSans-116"/>
     <use x="1560.554688" xlink:href="#DejaVuSans-101"/>
     <use x="1622.078125" xlink:href="#DejaVuSans-100"/>
     <use x="1685.554688" xlink:href="#DejaVuSans-46"/>
     <use x="1717.341797" xlink:href="#DejaVuSans-116"/>
     <use x="1756.550781" xlink:href="#DejaVuSans-120"/>
     <use x="1815.730469" xlink:href="#DejaVuSans-116"/>
    </g>
   </g>
  </g>
 </g>
 <defs>
  <clipPath id="pacfbc2e361">
   <rect height="217.44" width="217.44" x="112.68" y="34.56"/>
  </clipPath>
 </defs>
</svg>
