<?xml version="1.0" encoding="utf-8" standalone="no"?>
<!DOCTYPE svg PUBLIC "-//W3C//DTD SVG 1.1//EN"
  "http://www.w3.org/Graphics/SVG/1.1/DTD/svg11.dtd">
<!-- Created with matplotlib (https://matplotlib.org/) -->
<svg height="288pt" version="1.1" viewBox="0 0 432 288" width="432pt" xmlns="http://www.w3.org/2000/svg" xmlns:xlink="http://www.w3.org/1999/xlink">
 <metadata>
  <rdf:RDF xmlns:cc="http://creativecommons.org/ns#" xmlns:dc="http://purl.org/dc/elements/1.1/" xmlns:rdf="http://www.w3.org/1999/02/22-rdf-syntax-ns#">
   <cc:Work>
    <dc:type rdf:resource="http://purl.org/dc/dcmitype/StillImage"/>
    <dc:date>2021-06-13T22:00:40.198569</dc:date>
    <dc:format>image/svg+xml</dc:format>
    <dc:creator>
     <cc:Agent>
      <dc:title>Matplotlib v3.3.4, https://matplotlib.org/</dc:title>
     </cc:Agent>
    </dc:creator>
   </cc:Work>
  </rdf:RDF>
 </metadata>
 <defs>
  <style type="text/css">*{stroke-linecap:butt;stroke-linejoin:round;}</style>
 </defs>
 <g id="figure_1">
  <g id="patch_1">
   <path d="M 0 288 
L 432 288 
L 432 0 
L 0 0 
z
" style="fill:#ffffff;"/>
  </g>
  <g id="patch_2">
   <path d="M 112.68 252 
L 330.12 252 
L 330.12 34.56 
L 112.68 34.56 
z
" style="fill:#ffffff;"/>
  </g>
  <g id="pane3d_1">
   <g id="patch_3">
    <path d="M 129.09822 198.386264 
L 200.904009 138.197228 
L 199.90584 51.393878 
L 124.663773 106.302111 
" style="fill:#f2f2f2;opacity:0.5;stroke:#f2f2f2;stroke-linejoin:miter;"/>
   </g>
  </g>
  <g id="pane3d_2">
   <g id="patch_4">
    <path d="M 200.904009 138.197228 
L 316.12668 171.68791 
L 320.238571 81.894718 
L 199.90584 51.393878 
" style="fill:#e6e6e6;opacity:0.5;stroke:#e6e6e6;stroke-linejoin:miter;"/>
   </g>
  </g>
  <g id="pane3d_3">
   <g id="patch_5">
    <path d="M 129.09822 198.386264 
L 251.239879 238.27773 
L 316.12668 171.68791 
L 200.904009 138.197228 
" style="fill:#ececec;opacity:0.5;stroke:#ececec;stroke-linejoin:miter;"/>
   </g>
  </g>
  <g id="axis3d_1">
   <g id="line2d_1">
    <path d="M 129.09822 198.386264 
L 251.239879 238.27773 
" style="fill:none;stroke:#000000;stroke-linecap:square;stroke-width:0.8;"/>
   </g>
   <g id="Line3DCollection_1">
    <path d="M 136.495759 200.802301 
L 207.911499 140.234029 
L 207.209612 53.245171 
" style="fill:none;stroke:#b0b0b0;stroke-width:0.8;"/>
    <path d="M 162.23134 209.207541 
L 232.260894 147.311436 
L 232.60309 59.681678 
" style="fill:none;stroke:#b0b0b0;stroke-width:0.8;"/>
    <path d="M 188.559037 217.806167 
L 257.123632 154.538053 
L 258.555303 66.259807 
" style="fill:none;stroke:#b0b0b0;stroke-width:0.8;"/>
    <path d="M 215.499525 226.604931 
L 282.516121 161.918647 
L 285.084894 72.984285 
" style="fill:none;stroke:#b0b0b0;stroke-width:0.8;"/>
    <path d="M 243.074449 235.610901 
L 308.455474 169.458193 
L 312.21135 79.860051 
" style="fill:none;stroke:#b0b0b0;stroke-width:0.8;"/>
   </g>
   <g id="xtick_1">
    <g id="line2d_2">
     <path d="M 137.117644 200.274876 
L 135.249322 201.859414 
" style="fill:none;stroke:#000000;stroke-linecap:square;stroke-width:0.8;"/>
    </g>
    <g id="text_1">
     <!-- 0 -->
     <g transform="translate(125.77919 224.124533)scale(0.1 -0.1)">
      <defs>
       <path d="M 31.78125 66.40625 
Q 24.171875 66.40625 20.328125 58.90625 
Q 16.5 51.421875 16.5 36.375 
Q 16.5 21.390625 20.328125 13.890625 
Q 24.171875 6.390625 31.78125 6.390625 
Q 39.453125 6.390625 43.28125 13.890625 
Q 47.125 21.390625 47.125 36.375 
Q 47.125 51.421875 43.28125 58.90625 
Q 39.453125 66.40625 31.78125 66.40625 
z
M 31.78125 74.21875 
Q 44.046875 74.21875 50.515625 64.515625 
Q 56.984375 54.828125 56.984375 36.375 
Q 56.984375 17.96875 50.515625 8.265625 
Q 44.046875 -1.421875 31.78125 -1.421875 
Q 19.53125 -1.421875 13.0625 8.265625 
Q 6.59375 17.96875 6.59375 36.375 
Q 6.59375 54.828125 13.0625 64.515625 
Q 19.53125 74.21875 31.78125 74.21875 
z
" id="DejaVuSans-48"/>
      </defs>
      <use xlink:href="#DejaVuSans-48"/>
     </g>
    </g>
   </g>
   <g id="xtick_2">
    <g id="line2d_3">
     <path d="M 162.841716 208.668056 
L 161.007937 210.288854 
" style="fill:none;stroke:#000000;stroke-linecap:square;stroke-width:0.8;"/>
    </g>
    <g id="text_2">
     <!-- 2 -->
     <g transform="translate(151.547192 232.748132)scale(0.1 -0.1)">
      <defs>
       <path d="M 19.1875 8.296875 
L 53.609375 8.296875 
L 53.609375 0 
L 7.328125 0 
L 7.328125 8.296875 
Q 12.9375 14.109375 22.625 23.890625 
Q 32.328125 33.6875 34.8125 36.53125 
Q 39.546875 41.84375 41.421875 45.53125 
Q 43.3125 49.21875 43.3125 52.78125 
Q 43.3125 58.59375 39.234375 62.25 
Q 35.15625 65.921875 28.609375 65.921875 
Q 23.96875 65.921875 18.8125 64.3125 
Q 13.671875 62.703125 7.8125 59.421875 
L 7.8125 69.390625 
Q 13.765625 71.78125 18.9375 73 
Q 24.125 74.21875 28.421875 74.21875 
Q 39.75 74.21875 46.484375 68.546875 
Q 53.21875 62.890625 53.21875 53.421875 
Q 53.21875 48.921875 51.53125 44.890625 
Q 49.859375 40.875 45.40625 35.40625 
Q 44.1875 33.984375 37.640625 27.21875 
Q 31.109375 20.453125 19.1875 8.296875 
z
" id="DejaVuSans-50"/>
      </defs>
      <use xlink:href="#DejaVuSans-50"/>
     </g>
    </g>
   </g>
   <g id="xtick_3">
    <g id="line2d_4">
     <path d="M 189.15721 217.254202 
L 187.360066 218.91252 
" style="fill:none;stroke:#000000;stroke-linecap:square;stroke-width:0.8;"/>
    </g>
    <g id="text_3">
     <!-- 4 -->
     <g transform="translate(177.91082 241.571064)scale(0.1 -0.1)">
      <defs>
       <path d="M 37.796875 64.3125 
L 12.890625 25.390625 
L 37.796875 25.390625 
z
M 35.203125 72.90625 
L 47.609375 72.90625 
L 47.609375 25.390625 
L 58.015625 25.390625 
L 58.015625 17.1875 
L 47.609375 17.1875 
L 47.609375 0 
L 37.796875 0 
L 37.796875 17.1875 
L 4.890625 17.1875 
L 4.890625 26.703125 
z
" id="DejaVuSans-52"/>
      </defs>
      <use xlink:href="#DejaVuSans-52"/>
     </g>
    </g>
   </g>
   <g id="xtick_4">
    <g id="line2d_5">
     <path d="M 216.084757 226.040048 
L 214.326462 227.737204 
" style="fill:none;stroke:#000000;stroke-linecap:square;stroke-width:0.8;"/>
    </g>
    <g id="text_4">
     <!-- 6 -->
     <g transform="translate(204.890965 250.600322)scale(0.1 -0.1)">
      <defs>
       <path d="M 33.015625 40.375 
Q 26.375 40.375 22.484375 35.828125 
Q 18.609375 31.296875 18.609375 23.390625 
Q 18.609375 15.53125 22.484375 10.953125 
Q 26.375 6.390625 33.015625 6.390625 
Q 39.65625 6.390625 43.53125 10.953125 
Q 47.40625 15.53125 47.40625 23.390625 
Q 47.40625 31.296875 43.53125 35.828125 
Q 39.65625 40.375 33.015625 40.375 
z
M 52.59375 71.296875 
L 52.59375 62.3125 
Q 48.875 64.0625 45.09375 64.984375 
Q 41.3125 65.921875 37.59375 65.921875 
Q 27.828125 65.921875 22.671875 59.328125 
Q 17.53125 52.734375 16.796875 39.40625 
Q 19.671875 43.65625 24.015625 45.921875 
Q 28.375 48.1875 33.59375 48.1875 
Q 44.578125 48.1875 50.953125 41.515625 
Q 57.328125 34.859375 57.328125 23.390625 
Q 57.328125 12.15625 50.6875 5.359375 
Q 44.046875 -1.421875 33.015625 -1.421875 
Q 20.359375 -1.421875 13.671875 8.265625 
Q 6.984375 17.96875 6.984375 36.375 
Q 6.984375 53.65625 15.1875 63.9375 
Q 23.390625 74.21875 37.203125 74.21875 
Q 40.921875 74.21875 44.703125 73.484375 
Q 48.484375 72.75 52.59375 71.296875 
z
" id="DejaVuSans-54"/>
      </defs>
      <use xlink:href="#DejaVuSans-54"/>
     </g>
    </g>
   </g>
   <g id="xtick_5">
    <g id="line2d_6">
     <path d="M 243.645962 235.032643 
L 241.928856 236.770015 
" style="fill:none;stroke:#000000;stroke-linecap:square;stroke-width:0.8;"/>
    </g>
    <g id="text_5">
     <!-- 8 -->
     <g transform="translate(232.509511 259.84323)scale(0.1 -0.1)">
      <defs>
       <path d="M 31.78125 34.625 
Q 24.75 34.625 20.71875 30.859375 
Q 16.703125 27.09375 16.703125 20.515625 
Q 16.703125 13.921875 20.71875 10.15625 
Q 24.75 6.390625 31.78125 6.390625 
Q 38.8125 6.390625 42.859375 10.171875 
Q 46.921875 13.96875 46.921875 20.515625 
Q 46.921875 27.09375 42.890625 30.859375 
Q 38.875 34.625 31.78125 34.625 
z
M 21.921875 38.8125 
Q 15.578125 40.375 12.03125 44.71875 
Q 8.5 49.078125 8.5 55.328125 
Q 8.5 64.0625 14.71875 69.140625 
Q 20.953125 74.21875 31.78125 74.21875 
Q 42.671875 74.21875 48.875 69.140625 
Q 55.078125 64.0625 55.078125 55.328125 
Q 55.078125 49.078125 51.53125 44.71875 
Q 48 40.375 41.703125 38.8125 
Q 48.828125 37.15625 52.796875 32.3125 
Q 56.78125 27.484375 56.78125 20.515625 
Q 56.78125 9.90625 50.3125 4.234375 
Q 43.84375 -1.421875 31.78125 -1.421875 
Q 19.734375 -1.421875 13.25 4.234375 
Q 6.78125 9.90625 6.78125 20.515625 
Q 6.78125 27.484375 10.78125 32.3125 
Q 14.796875 37.15625 21.921875 38.8125 
z
M 18.3125 54.390625 
Q 18.3125 48.734375 21.84375 45.5625 
Q 25.390625 42.390625 31.78125 42.390625 
Q 38.140625 42.390625 41.71875 45.5625 
Q 45.3125 48.734375 45.3125 54.390625 
Q 45.3125 60.0625 41.71875 63.234375 
Q 38.140625 66.40625 31.78125 66.40625 
Q 25.390625 66.40625 21.84375 63.234375 
Q 18.3125 60.0625 18.3125 54.390625 
z
" id="DejaVuSans-56"/>
      </defs>
      <use xlink:href="#DejaVuSans-56"/>
     </g>
    </g>
   </g>
  </g>
  <g id="axis3d_2">
   <g id="line2d_7">
    <path d="M 316.12668 171.68791 
L 251.239879 238.27773 
" style="fill:none;stroke:#000000;stroke-linecap:square;stroke-width:0.8;"/>
   </g>
   <g id="Line3DCollection_2">
    <path d="M 129.866948 102.505071 
L 134.046245 194.238731 
L 255.729543 233.67023 
" style="fill:none;stroke:#b0b0b0;stroke-width:0.8;"/>
    <path d="M 147.250212 89.819556 
L 150.59591 180.366474 
L 270.72626 218.279909 
" style="fill:none;stroke:#b0b0b0;stroke-width:0.8;"/>
    <path d="M 163.958537 77.626582 
L 166.530371 167.009893 
L 285.136664 203.491289 
" style="fill:none;stroke:#b0b0b0;stroke-width:0.8;"/>
    <path d="M 180.030483 65.898008 
L 181.883306 154.140758 
L 298.994481 189.269761 
" style="fill:none;stroke:#b0b0b0;stroke-width:0.8;"/>
    <path d="M 195.501727 54.607799 
L 196.68598 141.732864 
L 312.330896 175.583317 
" style="fill:none;stroke:#b0b0b0;stroke-width:0.8;"/>
   </g>
   <g id="xtick_6">
    <g id="line2d_8">
     <path d="M 254.704115 233.337939 
L 257.783053 234.33567 
" style="fill:none;stroke:#000000;stroke-linecap:square;stroke-width:0.8;"/>
    </g>
    <g id="text_6">
     <!-- 0 -->
     <g transform="translate(265.430654 254.693759)scale(0.1 -0.1)">
      <use xlink:href="#DejaVuSans-48"/>
     </g>
    </g>
   </g>
   <g id="xtick_7">
    <g id="line2d_9">
     <path d="M 269.71494 217.960734 
L 272.751463 218.919068 
" style="fill:none;stroke:#000000;stroke-linecap:square;stroke-width:0.8;"/>
    </g>
    <g id="text_7">
     <!-- 2 -->
     <g transform="translate(280.181112 239.024526)scale(0.1 -0.1)">
      <use xlink:href="#DejaVuSans-50"/>
     </g>
    </g>
   </g>
   <g id="xtick_8">
    <g id="line2d_10">
     <path d="M 284.139145 203.184468 
L 287.134182 204.105694 
" style="fill:none;stroke:#000000;stroke-linecap:square;stroke-width:0.8;"/>
    </g>
    <g id="text_8">
     <!-- 4 -->
     <g transform="translate(294.35448 223.968328)scale(0.1 -0.1)">
      <use xlink:href="#DejaVuSans-52"/>
     </g>
    </g>
   </g>
   <g id="xtick_9">
    <g id="line2d_11">
     <path d="M 298.010457 188.97459 
L 300.964927 189.860821 
" style="fill:none;stroke:#000000;stroke-linecap:square;stroke-width:0.8;"/>
    </g>
    <g id="text_9">
     <!-- 6 -->
     <g transform="translate(307.983974 209.489882)scale(0.1 -0.1)">
      <use xlink:href="#DejaVuSans-54"/>
     </g>
    </g>
   </g>
   <g id="xtick_10">
    <g id="line2d_12">
     <path d="M 311.360068 175.299146 
L 314.274875 176.15234 
" style="fill:none;stroke:#000000;stroke-linecap:square;stroke-width:0.8;"/>
    </g>
    <g id="text_10">
     <!-- 8 -->
     <g transform="translate(321.10031 195.556556)scale(0.1 -0.1)">
      <use xlink:href="#DejaVuSans-56"/>
     </g>
    </g>
   </g>
  </g>
  <g id="axis3d_3">
   <g id="line2d_13">
    <path d="M 316.12668 171.68791 
L 320.238571 81.894718 
" style="fill:none;stroke:#000000;stroke-linecap:square;stroke-width:0.8;"/>
   </g>
   <g id="Line3DCollection_3">
    <path d="M 316.205459 169.967571 
L 200.884845 136.530725 
L 129.013401 196.624949 
" style="fill:none;stroke:#b0b0b0;stroke-width:0.8;"/>
    <path d="M 317.03559 151.839639 
L 200.683006 118.978274 
L 128.119297 178.058312 
" style="fill:none;stroke:#b0b0b0;stroke-width:0.8;"/>
    <path d="M 317.88086 133.381104 
L 200.477663 101.121092 
L 127.208263 159.140084 
" style="fill:none;stroke:#b0b0b0;stroke-width:0.8;"/>
    <path d="M 318.741687 114.582839 
L 200.268723 82.951171 
L 126.279811 139.860183 
" style="fill:none;stroke:#b0b0b0;stroke-width:0.8;"/>
    <path d="M 319.618505 95.435377 
L 200.056092 64.460225 
L 125.333438 120.208138 
" style="fill:none;stroke:#b0b0b0;stroke-width:0.8;"/>
   </g>
   <g id="xtick_11">
    <g id="line2d_14">
     <path d="M 315.237563 169.686933 
L 318.143556 170.529516 
" style="fill:none;stroke:#000000;stroke-linecap:square;stroke-width:0.8;"/>
    </g>
    <g id="text_11">
     <!-- 0 -->
     <g transform="translate(331.275915 174.966846)scale(0.1 -0.1)">
      <use xlink:href="#DejaVuSans-48"/>
     </g>
    </g>
   </g>
   <g id="xtick_12">
    <g id="line2d_15">
     <path d="M 316.058619 151.563714 
L 318.991879 152.392152 
" style="fill:none;stroke:#000000;stroke-linecap:square;stroke-width:0.8;"/>
    </g>
    <g id="text_12">
     <!-- 5000 -->
     <g transform="translate(322.723537 156.882643)scale(0.1 -0.1)">
      <defs>
       <path d="M 10.796875 72.90625 
L 49.515625 72.90625 
L 49.515625 64.59375 
L 19.828125 64.59375 
L 19.828125 46.734375 
Q 21.96875 47.46875 24.109375 47.828125 
Q 26.265625 48.1875 28.421875 48.1875 
Q 40.625 48.1875 47.75 41.5 
Q 54.890625 34.8125 54.890625 23.390625 
Q 54.890625 11.625 47.5625 5.09375 
Q 40.234375 -1.421875 26.90625 -1.421875 
Q 22.3125 -1.421875 17.546875 -0.640625 
Q 12.796875 0.140625 7.71875 1.703125 
L 7.71875 11.625 
Q 12.109375 9.234375 16.796875 8.0625 
Q 21.484375 6.890625 26.703125 6.890625 
Q 35.15625 6.890625 40.078125 11.328125 
Q 45.015625 15.765625 45.015625 23.390625 
Q 45.015625 31 40.078125 35.4375 
Q 35.15625 39.890625 26.703125 39.890625 
Q 22.75 39.890625 18.8125 39.015625 
Q 14.890625 38.140625 10.796875 36.28125 
z
" id="DejaVuSans-53"/>
      </defs>
      <use xlink:href="#DejaVuSans-53"/>
      <use x="63.623047" xlink:href="#DejaVuSans-48"/>
      <use x="127.246094" xlink:href="#DejaVuSans-48"/>
      <use x="190.869141" xlink:href="#DejaVuSans-48"/>
     </g>
    </g>
   </g>
   <g id="xtick_13">
    <g id="line2d_16">
     <path d="M 316.894643 133.110112 
L 319.855685 133.923746 
" style="fill:none;stroke:#000000;stroke-linecap:square;stroke-width:0.8;"/>
    </g>
    <g id="text_13">
     <!-- 10000 -->
     <g transform="translate(320.551672 138.469867)scale(0.1 -0.1)">
      <defs>
       <path d="M 12.40625 8.296875 
L 28.515625 8.296875 
L 28.515625 63.921875 
L 10.984375 60.40625 
L 10.984375 69.390625 
L 28.421875 72.90625 
L 38.28125 72.90625 
L 38.28125 8.296875 
L 54.390625 8.296875 
L 54.390625 0 
L 12.40625 0 
z
" id="DejaVuSans-49"/>
      </defs>
      <use xlink:href="#DejaVuSans-49"/>
      <use x="63.623047" xlink:href="#DejaVuSans-48"/>
      <use x="127.246094" xlink:href="#DejaVuSans-48"/>
      <use x="190.869141" xlink:href="#DejaVuSans-48"/>
      <use x="254.492188" xlink:href="#DejaVuSans-48"/>
     </g>
    </g>
   </g>
   <g id="xtick_14">
    <g id="line2d_17">
     <path d="M 317.746048 114.317008 
L 320.735402 115.11515 
" style="fill:none;stroke:#000000;stroke-linecap:square;stroke-width:0.8;"/>
    </g>
    <g id="text_14">
     <!-- 15000 -->
     <g transform="translate(321.579564 119.719481)scale(0.1 -0.1)">
      <use xlink:href="#DejaVuSans-49"/>
      <use x="63.623047" xlink:href="#DejaVuSans-53"/>
      <use x="127.246094" xlink:href="#DejaVuSans-48"/>
      <use x="190.869141" xlink:href="#DejaVuSans-48"/>
      <use x="254.492188" xlink:href="#DejaVuSans-48"/>
     </g>
    </g>
   </g>
   <g id="xtick_15">
    <g id="line2d_18">
     <path d="M 318.613261 95.174947 
L 321.631474 95.956879 
" style="fill:none;stroke:#000000;stroke-linecap:square;stroke-width:0.8;"/>
    </g>
    <g id="text_15">
     <!-- 20000 -->
     <g transform="translate(322.626478 100.622113)scale(0.1 -0.1)">
      <use xlink:href="#DejaVuSans-50"/>
      <use x="63.623047" xlink:href="#DejaVuSans-48"/>
      <use x="127.246094" xlink:href="#DejaVuSans-48"/>
      <use x="190.869141" xlink:href="#DejaVuSans-48"/>
      <use x="254.492188" xlink:href="#DejaVuSans-48"/>
     </g>
    </g>
   </g>
  </g>
  <g id="axes_1">
   <g id="Poly3DCollection_1">
    <path clip-path="url(#p56b2eaffff)" d="M 196.401162 148.290596 
L 203.700438 142.115361 
L 215.863902 145.66701 
L 208.637156 151.907182 
z
" style="fill:#804529;"/>
    <path clip-path="url(#p56b2eaffff)" d="M 208.637156 151.907182 
L 215.863902 145.66701 
L 228.155024 149.255935 
L 221.002748 155.562072 
z
" style="fill:#875f19;"/>
    <path clip-path="url(#p56b2eaffff)" d="M 188.96817 154.578956 
L 196.401162 148.290596 
L 208.637156 151.907182 
L 201.27732 158.262275 
z
" style="fill:#86561f;"/>
    <path clip-path="url(#p56b2eaffff)" d="M 203.700438 142.115361 
L 203.114262 84.344191 
L 215.62191 87.687069 
L 215.863902 145.66701 
z
" style="fill:#643620;"/>
    <path clip-path="url(#p56b2eaffff)" d="M 221.002748 155.562072 
L 228.155024 149.255935 
L 240.575825 152.882725 
L 233.500008 159.25588 
z
" style="fill:#855221;"/>
    <path clip-path="url(#p56b2eaffff)" d="M 196.401162 148.290596 
L 195.600258 90.157073 
L 203.114262 84.344191 
L 203.700438 142.115361 
z
" style="fill:#d57244;"/>
    <path clip-path="url(#p56b2eaffff)" d="M 201.27732 158.262275 
L 208.637156 151.907182 
L 221.002748 155.562072 
L 213.718049 161.984967 
z
" style="fill:#827d15;"/>
    <path clip-path="url(#p56b2eaffff)" d="M 233.500008 159.25588 
L 240.575825 152.882725 
L 253.128369 156.547983 
L 246.131049 162.989229 
z
" style="fill:#876218;"/>
    <path clip-path="url(#p56b2eaffff)" d="M 208.637156 151.907182 
L 215.863902 145.66701 
L 215.62191 87.687069 
L 208.184594 93.562835 
z
" style="fill:#643620;"/>
    <path clip-path="url(#p56b2eaffff)" d="M 215.863902 145.66701 
L 215.574155 76.245167 
L 228.286226 79.580642 
L 228.155024 149.255935 
z
" style="fill:#6a4a14;"/>
    <path clip-path="url(#p56b2eaffff)" d="M 181.397755 160.983577 
L 188.96817 154.578956 
L 201.27732 158.262275 
L 193.780682 164.735494 
z
" style="fill:#814629;"/>
    <path clip-path="url(#p56b2eaffff)" d="M 196.401162 148.290596 
L 208.637156 151.907182 
L 208.184594 93.562835 
L 195.600258 90.157073 
z
" style="fill:#d57244;"/>
    <path clip-path="url(#p56b2eaffff)" d="M 208.637156 151.907182 
L 208.095256 82.045427 
L 215.574155 76.245167 
L 215.863902 145.66701 
z
" style="fill:#e09d2a;"/>
    <path clip-path="url(#p56b2eaffff)" d="M 213.718049 161.984967 
L 221.002748 155.562072 
L 233.500008 159.25588 
L 226.292478 165.747667 
z
" style="fill:#827f15;"/>
    <path clip-path="url(#p56b2eaffff)" d="M 196.401162 148.290596 
L 195.494662 82.492406 
L 208.124915 85.869056 
L 208.637156 151.907182 
z
" style="fill:#694318;"/>
    <path clip-path="url(#p56b2eaffff)" d="M 246.131049 162.989229 
L 253.128369 156.547983 
L 265.814761 160.252323 
L 258.898031 166.762758 
z
" style="fill:#86541f;"/>
    <path clip-path="url(#p56b2eaffff)" d="M 228.155024 149.255935 
L 228.275543 85.253426 
L 241.09135 88.647012 
L 240.575825 152.882725 
z
" style="fill:#68401a;"/>
    <path clip-path="url(#p56b2eaffff)" d="M 188.96817 154.578956 
L 187.80963 88.364319 
L 195.494662 82.492406 
L 196.401162 148.290596 
z
" style="fill:#de8e33;"/>
    <path clip-path="url(#p56b2eaffff)" d="M 221.002748 155.562072 
L 220.896421 91.154802 
L 228.275543 85.253426 
L 228.155024 149.255935 
z
" style="fill:#dc8836;"/>
    <path clip-path="url(#p56b2eaffff)" d="M 193.780682 164.735494 
L 201.27732 158.262275 
L 213.718049 161.984967 
L 206.297214 168.527892 
z
" style="fill:#837b14;"/>
    <path clip-path="url(#p56b2eaffff)" d="M 221.002748 155.562072 
L 228.155024 149.255935 
L 228.286226 79.580642 
L 220.886994 85.444341 
z
" style="fill:#6a4a14;"/>
    <path clip-path="url(#p56b2eaffff)" d="M 226.292478 165.747667 
L 233.500008 159.25588 
L 246.131049 162.989229 
L 239.002775 169.551023 
z
" style="fill:#867213;"/>
    <path clip-path="url(#p56b2eaffff)" d="M 258.898031 166.762758 
L 265.814761 160.252323 
L 278.637155 163.996376 
L 271.803162 170.57712 
z
" style="fill:#753237;"/>
    <path clip-path="url(#p56b2eaffff)" d="M 208.637156 151.907182 
L 221.002748 155.562072 
L 220.886994 85.444341 
L 208.095256 82.045427 
z
" style="fill:#e09d2a;"/>
    <path clip-path="url(#p56b2eaffff)" d="M 173.686069 167.507715 
L 181.397755 160.983577 
L 193.780682 164.735494 
L 186.143392 171.330164 
z
" style="fill:#641c48;"/>
    <path clip-path="url(#p56b2eaffff)" d="M 201.27732 158.262275 
L 208.637156 151.907182 
L 208.124915 85.869056 
L 200.517814 91.805331 
z
" style="fill:#694318;"/>
    <path clip-path="url(#p56b2eaffff)" d="M 188.96817 154.578956 
L 187.941497 95.901009 
L 200.604276 99.370768 
L 201.27732 158.262275 
z
" style="fill:#653620;"/>
    <path clip-path="url(#p56b2eaffff)" d="M 195.600258 90.157073 
L 208.184594 93.562835 
L 215.62191 87.687069 
L 203.114262 84.344191 
z
" style="fill:#b9633b;"/>
    <path clip-path="url(#p56b2eaffff)" d="M 240.575825 152.882725 
L 241.149524 81.398394 
L 254.151158 84.801294 
L 253.128369 156.547983 
z
" style="fill:#6a4d13;"/>
    <path clip-path="url(#p56b2eaffff)" d="M 233.500008 159.25588 
L 240.575825 152.882725 
L 241.09135 88.647012 
L 233.79365 94.613109 
z
" style="fill:#68401a;"/>
    <path clip-path="url(#p56b2eaffff)" d="M 206.297214 168.527892 
L 213.718049 161.984967 
L 226.292478 165.747667 
L 218.949524 172.361429 
z
" style="fill:#808512;"/>
    <path clip-path="url(#p56b2eaffff)" d="M 208.637156 151.907182 
L 208.001745 69.989985 
L 220.867015 73.342134 
L 221.002748 155.562072 
z
" style="fill:#666210;"/>
    <path clip-path="url(#p56b2eaffff)" d="M 188.96817 154.578956 
L 201.27732 158.262275 
L 200.517814 91.805331 
L 187.80963 88.364319 
z
" style="fill:#de8e33;"/>
    <path clip-path="url(#p56b2eaffff)" d="M 278.637155 163.996376 
L 278.941583 152.715383 
L 291.976885 156.459985 
L 291.597749 167.780781 
z
" style="fill:#200143;"/>
    <path clip-path="url(#p56b2eaffff)" d="M 181.397755 160.983577 
L 180.13948 101.934978 
L 187.941497 95.901009 
L 188.96817 154.578956 
z
" style="fill:#d57343;"/>
    <path clip-path="url(#p56b2eaffff)" d="M 239.002775 169.551023 
L 246.131049 162.989229 
L 258.898031 166.762758 
L 251.851153 173.395697 
z
" style="fill:#876b15;"/>
    <path clip-path="url(#p56b2eaffff)" d="M 233.500008 159.25588 
L 233.826796 87.316181 
L 241.149524 81.398394 
L 240.575825 152.882725 
z
" style="fill:#e0a327;"/>
    <path clip-path="url(#p56b2eaffff)" d="M 221.002748 155.562072 
L 233.500008 159.25588 
L 233.79365 94.613109 
L 220.896421 91.154802 
z
" style="fill:#dc8836;"/>
    <path clip-path="url(#p56b2eaffff)" d="M 201.27732 158.262275 
L 200.33512 75.819597 
L 208.001745 69.989985 
L 208.637156 151.907182 
z
" style="fill:#d8d022;"/>
    <path clip-path="url(#p56b2eaffff)" d="M 271.803162 170.57712 
L 278.637155 163.996376 
L 291.597749 167.780781 
L 284.848695 174.43298 
z
" style="fill:#290156;"/>
    <path clip-path="url(#p56b2eaffff)" d="M 181.397755 160.983577 
L 180.615856 124.290472 
L 193.221221 127.910589 
L 193.780682 164.735494 
z
" style="fill:#4e1638;"/>
    <path clip-path="url(#p56b2eaffff)" d="M 271.803162 170.57712 
L 272.071783 159.227057 
L 278.941583 152.715383 
L 278.637155 163.996376 
z
" style="fill:#44028e;"/>
    <path clip-path="url(#p56b2eaffff)" d="M 253.128369 156.547983 
L 254.060966 91.128075 
L 267.165707 94.592921 
L 265.814761 160.252323 
z
" style="fill:#684219;"/>
    <path clip-path="url(#p56b2eaffff)" d="M 291.597749 167.780781 
L 291.645607 166.351748 
L 304.75628 170.172152 
L 304.698789 171.606197 
z
" style="fill:#070339;"/>
    <path clip-path="url(#p56b2eaffff)" d="M 186.143392 171.330164 
L 193.780682 164.735494 
L 206.297214 168.527892 
L 198.736391 175.194243 
z
" style="fill:#876417;"/>
    <path clip-path="url(#p56b2eaffff)" d="M 265.814761 160.252323 
L 266.813602 111.706107 
L 279.951966 115.274304 
L 278.637155 163.996376 
z
" style="fill:#5c272b;"/>
    <path clip-path="url(#p56b2eaffff)" d="M 173.686069 167.507715 
L 172.754985 130.585879 
L 180.615856 124.290472 
L 181.397755 160.983577 
z
" style="fill:#a52e78;"/>
    <path clip-path="url(#p56b2eaffff)" d="M 218.949524 172.361429 
L 226.292478 165.747667 
L 239.002775 169.551023 
L 231.739835 176.23678 
z
" style="fill:#847914;"/>
    <path clip-path="url(#p56b2eaffff)" d="M 246.131049 162.989229 
L 246.84374 97.153648 
L 254.060966 91.128075 
L 253.128369 156.547983 
z
" style="fill:#dd8b34;"/>
    <path clip-path="url(#p56b2eaffff)" d="M 284.848695 174.43298 
L 284.892157 172.995251 
L 291.645607 166.351748 
L 291.597749 167.780781 
z
" style="fill:#0e0678;"/>
    <path clip-path="url(#p56b2eaffff)" d="M 221.002748 155.562072 
L 220.865943 72.692639 
L 233.87784 76.079394 
L 233.500008 159.25588 
z
" style="fill:#656310;"/>
    <path clip-path="url(#p56b2eaffff)" d="M 193.780682 164.735494 
L 201.27732 158.262275 
L 200.604276 99.370768 
L 192.880313 105.471266 
z
" style="fill:#653620;"/>
    <path clip-path="url(#p56b2eaffff)" d="M 258.898031 166.762758 
L 259.738249 117.911344 
L 266.813602 111.706107 
L 265.814761 160.252323 
z
" style="fill:#c2525b;"/>
    <path clip-path="url(#p56b2eaffff)" d="M 251.851153 173.395697 
L 258.898031 166.762758 
L 271.803162 170.57712 
L 264.839875 177.282368 
z
" style="fill:#87591c;"/>
    <path clip-path="url(#p56b2eaffff)" d="M 246.131049 162.989229 
L 253.128369 156.547983 
L 254.151158 84.801294 
L 246.912687 90.78457 
z
" style="fill:#6a4d13;"/>
    <path clip-path="url(#p56b2eaffff)" d="M 173.686069 167.507715 
L 173.251564 150.277539 
L 185.813959 154.038831 
L 186.143392 171.330164 
z
" style="fill:#2c0046;"/>
    <path clip-path="url(#p56b2eaffff)" d="M 165.82912 174.154745 
L 173.686069 167.507715 
L 186.143392 171.330164 
L 178.361455 178.049733 
z
" style="fill:#39005a;"/>
    <path clip-path="url(#p56b2eaffff)" d="M 213.718049 161.984967 
L 221.002748 155.562072 
L 220.867015 73.342134 
L 213.281722 79.236491 
z
" style="fill:#666210;"/>
    <path clip-path="url(#p56b2eaffff)" d="M 284.848695 174.43298 
L 291.597749 167.780781 
L 304.698789 171.606197 
L 298.036935 178.33102 
z
" style="fill:#090449;"/>
    <path clip-path="url(#p56b2eaffff)" d="M 284.848695 174.43298 
L 291.597749 167.780781 
L 291.976885 156.459985 
L 285.193019 163.042765 
z
" style="fill:#200143;"/>
    <path clip-path="url(#p56b2eaffff)" d="M 213.718049 161.984967 
L 213.278274 78.582572 
L 220.865943 72.692639 
L 221.002748 155.562072 
z
" style="fill:#d7d322;"/>
    <path clip-path="url(#p56b2eaffff)" d="M 181.397755 160.983577 
L 193.780682 164.735494 
L 192.880313 105.471266 
L 180.13948 101.934978 
z
" style="fill:#d57343;"/>
    <path clip-path="url(#p56b2eaffff)" d="M 272.071783 159.227057 
L 285.193019 163.042765 
L 291.976885 156.459985 
L 278.941583 152.715383 
z
" style="fill:#3b027b;"/>
    <path clip-path="url(#p56b2eaffff)" d="M 284.892157 172.995251 
L 298.090159 176.888237 
L 304.75628 170.172152 
L 291.645607 166.351748 
z
" style="fill:#0c0668;"/>
    <path clip-path="url(#p56b2eaffff)" d="M 233.500008 159.25588 
L 246.131049 162.989229 
L 246.912687 90.78457 
L 233.826796 87.316181 
z
" style="fill:#e0a327;"/>
    <path clip-path="url(#p56b2eaffff)" d="M 198.736391 175.194243 
L 206.297214 168.527892 
L 218.949524 172.361429 
L 211.467294 179.100638 
z
" style="fill:#857413;"/>
    <path clip-path="url(#p56b2eaffff)" d="M 165.82912 174.154745 
L 165.322449 156.818445 
L 173.251564 150.277539 
L 173.686069 167.507715 
z
" style="fill:#5e0094;"/>
    <path clip-path="url(#p56b2eaffff)" d="M 201.27732 158.262275 
L 200.348069 76.952638 
L 213.28772 80.37398 
L 213.718049 161.984967 
z
" style="fill:#676010;"/>
    <path clip-path="url(#p56b2eaffff)" d="M 208.095256 82.045427 
L 220.886994 85.444341 
L 228.286226 79.580642 
L 215.574155 76.245167 
z
" style="fill:#c28924;"/>
    <path clip-path="url(#p56b2eaffff)" d="M 201.27732 158.262275 
L 213.718049 161.984967 
L 213.281722 79.236491 
L 200.33512 75.819597 
z
" style="fill:#d8d022;"/>
    <path clip-path="url(#p56b2eaffff)" d="M 271.803162 170.57712 
L 284.848695 174.43298 
L 285.193019 163.042765 
L 272.071783 159.227057 
z
" style="fill:#44028e;"/>
    <path clip-path="url(#p56b2eaffff)" d="M 186.143392 171.330164 
L 193.780682 164.735494 
L 193.221221 127.910589 
L 185.437425 134.27531 
z
" style="fill:#4e1638;"/>
    <path clip-path="url(#p56b2eaffff)" d="M 233.500008 159.25588 
L 233.8552 81.063331 
L 246.98064 84.507388 
L 246.131049 162.989229 
z
" style="fill:#68590f;"/>
    <path clip-path="url(#p56b2eaffff)" d="M 231.739835 176.23678 
L 239.002775 169.551023 
L 251.851153 173.395697 
L 244.670417 180.154631 
z
" style="fill:#857513;"/>
    <path clip-path="url(#p56b2eaffff)" d="M 258.898031 166.762758 
L 265.814761 160.252323 
L 267.165707 94.592921 
L 260.034526 100.685342 
z
" style="fill:#684219;"/>
    <path clip-path="url(#p56b2eaffff)" d="M 298.036935 178.33102 
L 304.698789 171.606197 
L 304.75628 170.172152 
L 298.090159 176.888237 
z
" style="fill:#070339;"/>
    <path clip-path="url(#p56b2eaffff)" d="M 193.780682 164.735494 
L 192.537443 82.9028 
L 200.348069 76.952638 
L 201.27732 158.262275 
z
" style="fill:#dacb21;"/>
    <path clip-path="url(#p56b2eaffff)" d="M 187.80963 88.364319 
L 200.517814 91.805331 
L 208.124915 85.869056 
L 195.494662 82.492406 
z
" style="fill:#c07b2c;"/>
    <path clip-path="url(#p56b2eaffff)" d="M 271.803162 170.57712 
L 278.637155 163.996376 
L 279.951966 115.274304 
L 272.963526 121.54819 
z
" style="fill:#5c272b;"/>
    <path clip-path="url(#p56b2eaffff)" d="M 264.839875 177.282368 
L 271.803162 170.57712 
L 284.848695 174.43298 
L 277.971253 181.211726 
z
" style="fill:#4d0757;"/>
    <path clip-path="url(#p56b2eaffff)" d="M 173.686069 167.507715 
L 186.143392 171.330164 
L 185.437425 134.27531 
L 172.754985 130.585879 
z
" style="fill:#a52e78;"/>
    <path clip-path="url(#p56b2eaffff)" d="M 226.292478 165.747667 
L 226.36897 87.052997 
L 233.8552 81.063331 
L 233.500008 159.25588 
z
" style="fill:#ddbe20;"/>
    <path clip-path="url(#p56b2eaffff)" d="M 220.896421 91.154802 
L 233.79365 94.613109 
L 241.09135 88.647012 
L 228.275543 85.253426 
z
" style="fill:#bf762f;"/>
    <path clip-path="url(#p56b2eaffff)" d="M 246.131049 162.989229 
L 258.898031 166.762758 
L 260.034526 100.685342 
L 246.84374 97.153648 
z
" style="fill:#dd8b34;"/>
    <path clip-path="url(#p56b2eaffff)" d="M 284.848695 174.43298 
L 298.036935 178.33102 
L 298.090159 176.888237 
L 284.892157 172.995251 
z
" style="fill:#0e0678;"/>
    <path clip-path="url(#p56b2eaffff)" d="M 178.361455 178.049733 
L 186.143392 171.330164 
L 198.736391 175.194243 
L 191.031582 181.987547 
z
" style="fill:#834b25;"/>
    <path clip-path="url(#p56b2eaffff)" d="M 284.848695 174.43298 
L 284.898109 172.798375 
L 298.097448 176.690668 
L 298.036935 178.33102 
z
" style="fill:#080339;"/>
    <path clip-path="url(#p56b2eaffff)" d="M 226.292478 165.747667 
L 233.500008 159.25588 
L 233.87784 76.079394 
L 226.373848 82.035129 
z
" style="fill:#656310;"/>
    <path clip-path="url(#p56b2eaffff)" d="M 165.82912 174.154745 
L 165.675881 168.911487 
L 178.240379 172.78799 
L 178.361455 178.049733 
z
" style="fill:#12023e;"/>
    <path clip-path="url(#p56b2eaffff)" d="M 271.803162 170.57712 
L 272.410979 144.894992 
L 285.627838 148.658997 
L 284.848695 174.43298 
z
" style="fill:#3c0544;"/>
    <path clip-path="url(#p56b2eaffff)" d="M 258.898031 166.762758 
L 271.803162 170.57712 
L 272.963526 121.54819 
L 259.738249 117.911344 
z
" style="fill:#c2525b;"/>
    <path clip-path="url(#p56b2eaffff)" d="M 211.467294 179.100638 
L 218.949524 172.361429 
L 231.739835 176.23678 
L 224.338378 183.050047 
z
" style="fill:#847914;"/>
    <path clip-path="url(#p56b2eaffff)" d="M 178.361455 178.049733 
L 186.143392 171.330164 
L 185.813959 154.038831 
L 177.961114 160.65174 
z
" style="fill:#2c0046;"/>
    <path clip-path="url(#p56b2eaffff)" d="M 246.131049 162.989229 
L 246.946419 87.668562 
L 260.198297 91.163498 
L 258.898031 166.762758 
z
" style="fill:#695310;"/>
    <path clip-path="url(#p56b2eaffff)" d="M 277.971253 181.211726 
L 278.015467 179.567148 
L 284.898109 172.798375 
L 284.848695 174.43298 
z
" style="fill:#110679;"/>
    <path clip-path="url(#p56b2eaffff)" d="M 213.718049 161.984967 
L 226.292478 165.747667 
L 226.373848 82.035129 
L 213.278274 78.582572 
z
" style="fill:#d7d322;"/>
    <path clip-path="url(#p56b2eaffff)" d="M 157.822766 180.928173 
L 157.646897 175.65284 
L 165.675881 168.911487 
L 165.82912 174.154745 
z
" style="fill:#270483;"/>
    <path clip-path="url(#p56b2eaffff)" d="M 264.839875 177.282368 
L 265.363492 151.440842 
L 272.410979 144.894992 
L 271.803162 170.57712 
z
" style="fill:#7f0c90;"/>
    <path clip-path="url(#p56b2eaffff)" d="M 244.670417 180.154631 
L 251.851153 173.395697 
L 264.839875 177.282368 
L 257.743589 184.115686 
z
" style="fill:#876a15;"/>
    <path clip-path="url(#p56b2eaffff)" d="M 213.718049 161.984967 
L 213.267085 76.460621 
L 226.375918 79.904801 
L 226.292478 165.747667 
z
" style="fill:#64680e;"/>
    <path clip-path="url(#p56b2eaffff)" d="M 165.322449 156.818445 
L 177.961114 160.65174 
L 185.813959 154.038831 
L 173.251564 150.277539 
z
" style="fill:#520081;"/>
    <path clip-path="url(#p56b2eaffff)" d="M 172.754985 130.585879 
L 185.437425 134.27531 
L 193.221221 127.910589 
L 180.615856 124.290472 
z
" style="fill:#8f2868;"/>
    <path clip-path="url(#p56b2eaffff)" d="M 165.82912 174.154745 
L 178.361455 178.049733 
L 177.961114 160.65174 
L 165.322449 156.818445 
z
" style="fill:#5e0094;"/>
    <path clip-path="url(#p56b2eaffff)" d="M 193.780682 164.735494 
L 192.674113 91.89874 
L 205.640246 95.421995 
L 206.297214 168.527892 
z
" style="fill:#6a4e12;"/>
    <path clip-path="url(#p56b2eaffff)" d="M 157.822766 180.928173 
L 165.82912 174.154745 
L 178.361455 178.049733 
L 170.430723 184.897786 
z
" style="fill:#17034f;"/>
    <path clip-path="url(#p56b2eaffff)" d="M 239.002775 169.551023 
L 239.556769 93.746813 
L 246.946419 87.668562 
L 246.131049 162.989229 
z
" style="fill:#dfb122;"/>
    <path clip-path="url(#p56b2eaffff)" d="M 206.297214 168.527892 
L 213.718049 161.984967 
L 213.28772 80.37398 
L 205.559088 86.390832 
z
" style="fill:#676010;"/>
    <path clip-path="url(#p56b2eaffff)" d="M 277.971253 181.211726 
L 284.848695 174.43298 
L 298.036935 178.33102 
L 291.24765 185.184478 
z
" style="fill:#0a0449;"/>
    <path clip-path="url(#p56b2eaffff)" d="M 180.13948 101.934978 
L 192.880313 105.471266 
L 200.604276 99.370768 
L 187.941497 95.901009 
z
" style="fill:#b9643a;"/>
    <path clip-path="url(#p56b2eaffff)" d="M 239.002775 169.551023 
L 246.131049 162.989229 
L 246.98064 84.507388 
L 239.580029 90.564183 
z
" style="fill:#68590f;"/>
    <path clip-path="url(#p56b2eaffff)" d="M 206.297214 168.527892 
L 205.52368 82.450684 
L 213.267085 76.460621 
L 213.718049 161.984967 
z
" style="fill:#d4dc1e;"/>
    <path clip-path="url(#p56b2eaffff)" d="M 278.015467 179.567148 
L 291.303114 183.534106 
L 298.097448 176.690668 
L 284.898109 172.798375 
z
" style="fill:#0f0569;"/>
    <path clip-path="url(#p56b2eaffff)" d="M 191.031582 181.987547 
L 198.736391 175.194243 
L 211.467294 179.100638 
L 203.841786 185.968896 
z
" style="fill:#86551f;"/>
    <path clip-path="url(#p56b2eaffff)" d="M 258.898031 166.762758 
L 260.07678 98.228667 
L 273.431133 101.790343 
L 271.803162 170.57712 
z
" style="fill:#694616;"/>
    <path clip-path="url(#p56b2eaffff)" d="M 186.143392 171.330164 
L 184.74681 98.026277 
L 192.674113 91.89874 
L 193.780682 164.735494 
z
" style="fill:#e0a626;"/>
    <path clip-path="url(#p56b2eaffff)" d="M 193.780682 164.735494 
L 206.297214 168.527892 
L 205.559088 86.390832 
L 192.537443 82.9028 
z
" style="fill:#dacb21;"/>
    <path clip-path="url(#p56b2eaffff)" d="M 157.646897 175.65284 
L 170.2874 179.603812 
L 178.240379 172.78799 
L 165.675881 168.911487 
z
" style="fill:#220472;"/>
    <path clip-path="url(#p56b2eaffff)" d="M 226.292478 165.747667 
L 239.002775 169.551023 
L 239.580029 90.564183 
L 226.36897 87.052997 
z
" style="fill:#ddbe20;"/>
    <path clip-path="url(#p56b2eaffff)" d="M 224.338378 183.050047 
L 231.739835 176.23678 
L 244.670417 180.154631 
L 237.351973 187.043183 
z
" style="fill:#876c14;"/>
    <path clip-path="url(#p56b2eaffff)" d="M 226.292478 165.747667 
L 226.371327 84.628427 
L 239.597818 88.130082 
L 239.002775 169.551023 
z
" style="fill:#675e10;"/>
    <path clip-path="url(#p56b2eaffff)" d="M 291.24765 185.184478 
L 298.036935 178.33102 
L 298.097448 176.690668 
L 291.303114 183.534106 
z
" style="fill:#080339;"/>
    <path clip-path="url(#p56b2eaffff)" d="M 251.851153 173.395697 
L 252.798681 104.423047 
L 260.07678 98.228667 
L 258.898031 166.762758 
z
" style="fill:#df942f;"/>
    <path clip-path="url(#p56b2eaffff)" d="M 170.430723 184.897786 
L 178.361455 178.049733 
L 178.240379 172.78799 
L 170.2874 179.603812 
z
" style="fill:#12023e;"/>
    <path clip-path="url(#p56b2eaffff)" d="M 277.971253 181.211726 
L 284.848695 174.43298 
L 285.627838 148.658997 
L 278.668494 155.277528 
z
" style="fill:#3c0544;"/>
    <path clip-path="url(#p56b2eaffff)" d="M 259.738249 117.911344 
L 272.963526 121.54819 
L 279.951966 115.274304 
L 266.813602 111.706107 
z
" style="fill:#a9474f;"/>
    <path clip-path="url(#p56b2eaffff)" d="M 257.743589 184.115686 
L 264.839875 177.282368 
L 277.971253 181.211726 
L 270.961723 188.120663 
z
" style="fill:#6c2640;"/>
    <path clip-path="url(#p56b2eaffff)" d="M 233.826796 87.316181 
L 246.912687 90.78457 
L 254.151158 84.801294 
L 241.149524 81.398394 
z
" style="fill:#c28d22;"/>
    <path clip-path="url(#p56b2eaffff)" d="M 157.822766 180.928173 
L 157.761925 179.103179 
L 170.381141 183.06636 
L 170.430723 184.897786 
z
" style="fill:#09033a;"/>
    <path clip-path="url(#p56b2eaffff)" d="M 218.949524 172.361429 
L 218.729955 90.718534 
L 226.371327 84.628427 
L 226.292478 165.747667 
z
" style="fill:#dbc821;"/>
    <path clip-path="url(#p56b2eaffff)" d="M 170.430723 184.897786 
L 178.361455 178.049733 
L 191.031582 181.987547 
L 183.178635 188.911464 
z
" style="fill:#5c154e;"/>
    <path clip-path="url(#p56b2eaffff)" d="M 251.851153 173.395697 
L 258.898031 166.762758 
L 260.198297 91.163498 
L 252.896397 97.310149 
z
" style="fill:#695310;"/>
    <path clip-path="url(#p56b2eaffff)" d="M 277.971253 181.211726 
L 291.24765 185.184478 
L 291.303114 183.534106 
L 278.015467 179.567148 
z
" style="fill:#110679;"/>
    <path clip-path="url(#p56b2eaffff)" d="M 277.971253 181.211726 
L 278.058395 177.970447 
L 291.356965 181.931763 
L 291.24765 185.184478 
z
" style="fill:#0d023b;"/>
    <path clip-path="url(#p56b2eaffff)" d="M 157.822766 180.928173 
L 170.430723 184.897786 
L 170.2874 179.603812 
L 157.646897 175.65284 
z
" style="fill:#270483;"/>
    <path clip-path="url(#p56b2eaffff)" d="M 264.839875 177.282368 
L 277.971253 181.211726 
L 278.668494 155.277528 
L 265.363492 151.440842 
z
" style="fill:#7f0c90;"/>
    <path clip-path="url(#p56b2eaffff)" d="M 218.949524 172.361429 
L 226.292478 165.747667 
L 226.375918 79.904801 
L 218.717164 85.962506 
z
" style="fill:#64680e;"/>
    <path clip-path="url(#p56b2eaffff)" d="M 186.143392 171.330164 
L 184.956655 109.040653 
L 197.936457 112.675664 
L 198.736391 175.194243 
z
" style="fill:#663b1d;"/>
    <path clip-path="url(#p56b2eaffff)" d="M 246.84374 97.153648 
L 260.034526 100.685342 
L 267.165707 94.592921 
L 254.060966 91.128075 
z
" style="fill:#c0792d;"/>
    <path clip-path="url(#p56b2eaffff)" d="M 206.297214 168.527892 
L 205.582587 89.005749 
L 218.734863 92.543484 
L 218.949524 172.361429 
z
" style="fill:#685b0f;"/>
    <path clip-path="url(#p56b2eaffff)" d="M 203.841786 185.968896 
L 211.467294 179.100638 
L 224.338378 183.050047 
L 216.794403 189.994506 
z
" style="fill:#86581d;"/>
    <path clip-path="url(#p56b2eaffff)" d="M 149.662704 187.831639 
L 149.593742 185.995486 
L 157.761925 179.103179 
L 157.822766 180.928173 
z
" style="fill:#13067a;"/>
    <path clip-path="url(#p56b2eaffff)" d="M 198.736391 175.194243 
L 206.297214 168.527892 
L 205.640246 95.421995 
L 197.794981 101.618581 
z
" style="fill:#6a4e12;"/>
    <path clip-path="url(#p56b2eaffff)" d="M 239.002775 169.551023 
L 251.851153 173.395697 
L 252.896397 97.310149 
L 239.556769 93.746813 
z
" style="fill:#dfb122;"/>
    <path clip-path="url(#p56b2eaffff)" d="M 265.363492 151.440842 
L 278.668494 155.277528 
L 285.627838 148.658997 
L 272.410979 144.894992 
z
" style="fill:#6e0a7d;"/>
    <path clip-path="url(#p56b2eaffff)" d="M 270.961723 188.120663 
L 271.038205 184.85954 
L 278.058395 177.970447 
L 277.971253 181.211726 
z
" style="fill:#1c057e;"/>
    <path clip-path="url(#p56b2eaffff)" d="M 200.33512 75.819597 
L 213.281722 79.236491 
L 220.867015 73.342134 
L 208.001745 69.989985 
z
" style="fill:#bcb41e;"/>
    <path clip-path="url(#p56b2eaffff)" d="M 237.351973 187.043183 
L 244.670417 180.154631 
L 257.743589 184.115686 
L 250.510457 191.080779 
z
" style="fill:#875b1b;"/>
    <path clip-path="url(#p56b2eaffff)" d="M 206.297214 168.527892 
L 218.949524 172.361429 
L 218.717164 85.962506 
L 205.52368 82.450684 
z
" style="fill:#d4dc1e;"/>
    <path clip-path="url(#p56b2eaffff)" d="M 239.002775 169.551023 
L 239.588276 89.435631 
L 252.955855 92.982028 
L 251.851153 173.395697 
z
" style="fill:#685c0f;"/>
    <path clip-path="url(#p56b2eaffff)" d="M 178.361455 178.049733 
L 176.918977 115.362666 
L 184.956655 109.040653 
L 186.143392 171.330164 
z
" style="fill:#d97d3d;"/>
    <path clip-path="url(#p56b2eaffff)" d="M 198.736391 175.194243 
L 197.712325 95.158691 
L 205.582587 89.005749 
L 206.297214 168.527892 
z
" style="fill:#ddc120;"/>
    <path clip-path="url(#p56b2eaffff)" d="M 178.361455 178.049733 
L 177.590195 144.53236 
L 190.469739 148.349231 
L 191.031582 181.987547 
z
" style="fill:#48103d;"/>
    <path clip-path="url(#p56b2eaffff)" d="M 264.839875 177.282368 
L 271.803162 170.57712 
L 273.431133 101.790343 
L 266.242612 108.054585 
z
" style="fill:#694616;"/>
    <path clip-path="url(#p56b2eaffff)" d="M 186.143392 171.330164 
L 198.736391 175.194243 
L 197.794981 101.618581 
L 184.74681 98.026277 
z
" style="fill:#e0a626;"/>
    <path clip-path="url(#p56b2eaffff)" d="M 149.662704 187.831639 
L 157.822766 180.928173 
L 170.430723 184.897786 
L 162.346885 191.878042 
z
" style="fill:#0c044a;"/>
    <path clip-path="url(#p56b2eaffff)" d="M 270.961723 188.120663 
L 277.971253 181.211726 
L 291.24765 185.184478 
L 284.327244 192.170297 
z
" style="fill:#11034c;"/>
    <path clip-path="url(#p56b2eaffff)" d="M 264.839875 177.282368 
L 265.709236 134.37772 
L 279.128936 138.151196 
L 277.971253 181.211726 
z
" style="fill:#541d32;"/>
    <path clip-path="url(#p56b2eaffff)" d="M 149.593742 185.995486 
L 162.289317 190.035404 
L 170.381141 183.06636 
L 157.761925 179.103179 
z
" style="fill:#11056a;"/>
    <path clip-path="url(#p56b2eaffff)" d="M 231.739835 176.23678 
L 232.038255 95.603683 
L 239.588276 89.435631 
L 239.002775 169.551023 
z
" style="fill:#dcc220;"/>
    <path clip-path="url(#p56b2eaffff)" d="M 231.739835 176.23678 
L 239.002775 169.551023 
L 239.597818 88.130082 
L 232.04312 94.289193 
z
" style="fill:#675e10;"/>
    <path clip-path="url(#p56b2eaffff)" d="M 183.178635 188.911464 
L 191.031582 181.987547 
L 203.841786 185.968896 
L 196.068846 192.969946 
z
" style="fill:#763236;"/>
    <path clip-path="url(#p56b2eaffff)" d="M 170.430723 184.897786 
L 169.517632 151.17054 
L 177.590195 144.53236 
L 178.361455 178.049733 
z
" style="fill:#992282;"/>
    <path clip-path="url(#p56b2eaffff)" d="M 251.851153 173.395697 
L 264.839875 177.282368 
L 266.242612 108.054585 
L 252.798681 104.423047 
z
" style="fill:#df942f;"/>
    <path clip-path="url(#p56b2eaffff)" d="M 271.038205 184.85954 
L 284.4262 188.897643 
L 291.356965 181.931763 
L 278.058395 177.970447 
z
" style="fill:#18046d;"/>
    <path clip-path="url(#p56b2eaffff)" d="M 257.743589 184.115686 
L 258.467625 140.940525 
L 265.709236 134.37772 
L 264.839875 177.282368 
z
" style="fill:#b33e6b;"/>
    <path clip-path="url(#p56b2eaffff)" d="M 216.794403 189.994506 
L 224.338378 183.050047 
L 237.351973 187.043183 
L 229.891821 194.06512 
z
" style="fill:#855022;"/>
    <path clip-path="url(#p56b2eaffff)" d="M 162.346885 191.878042 
L 170.430723 184.897786 
L 170.381141 183.06636 
L 162.289317 190.035404 
z
" style="fill:#09033a;"/>
    <path clip-path="url(#p56b2eaffff)" d="M 218.949524 172.361429 
L 231.739835 176.23678 
L 232.04312 94.289193 
L 218.729955 90.718534 
z
" style="fill:#dbc821;"/>
    <path clip-path="url(#p56b2eaffff)" d="M 218.949524 172.361429 
L 218.729714 90.628821 
L 232.043454 94.199125 
L 231.739835 176.23678 
z
" style="fill:#675e10;"/>
    <path clip-path="url(#p56b2eaffff)" d="M 251.851153 173.395697 
L 252.895879 97.347818 
L 266.386534 100.951712 
L 264.839875 177.282368 
z
" style="fill:#695310;"/>
    <path clip-path="url(#p56b2eaffff)" d="M 170.430723 184.897786 
L 170.094568 172.481079 
L 182.920539 176.450576 
L 183.178635 188.911464 
z
" style="fill:#220144;"/>
    <path clip-path="url(#p56b2eaffff)" d="M 198.736391 175.194243 
L 197.876162 107.963281 
L 211.032376 111.621117 
L 211.467294 179.100638 
z
" style="fill:#684218;"/>
    <path clip-path="url(#p56b2eaffff)" d="M 284.327244 192.170297 
L 291.24765 185.184478 
L 291.356965 181.931763 
L 284.4262 188.897643 
z
" style="fill:#0d023b;"/>
    <path clip-path="url(#p56b2eaffff)" d="M 213.278274 78.582572 
L 226.373848 82.035129 
L 233.87784 76.079394 
L 220.865943 72.692639 
z
" style="fill:#bbb71e;"/>
    <path clip-path="url(#p56b2eaffff)" d="M 250.510457 191.080779 
L 257.743589 184.115686 
L 270.961723 188.120663 
L 263.816264 195.163579 
z
" style="fill:#7c3c30;"/>
    <path clip-path="url(#p56b2eaffff)" d="M 191.031582 181.987547 
L 198.736391 175.194243 
L 197.936457 112.675664 
L 189.98069 119.069232 
z
" style="fill:#663b1d;"/>
    <path clip-path="url(#p56b2eaffff)" d="M 149.662704 187.831639 
L 149.631804 187.008908 
L 162.32109 191.052408 
L 162.346885 191.878042 
z
" style="fill:#050338;"/>
    <path clip-path="url(#p56b2eaffff)" d="M 211.467294 179.100638 
L 218.949524 172.361429 
L 218.734863 92.543484 
L 210.949525 98.766372 
z
" style="fill:#685b0f;"/>
    <path clip-path="url(#p56b2eaffff)" d="M 149.662704 187.831639 
L 162.346885 191.878042 
L 162.289317 190.035404 
L 149.593742 185.995486 
z
" style="fill:#13067a;"/>
    <path clip-path="url(#p56b2eaffff)" d="M 211.467294 179.100638 
L 210.9371 96.838578 
L 218.729714 90.628821 
L 218.949524 172.361429 
z
" style="fill:#dbc821;"/>
    <path clip-path="url(#p56b2eaffff)" d="M 162.346885 191.878042 
L 170.430723 184.897786 
L 183.178635 188.911464 
L 175.173234 195.969799 
z
" style="fill:#2b0157;"/>
    <path clip-path="url(#p56b2eaffff)" d="M 244.670417 180.154631 
L 245.450087 103.615963 
L 252.895879 97.347818 
L 251.851153 173.395697 
z
" style="fill:#e0af22;"/>
    <path clip-path="url(#p56b2eaffff)" d="M 162.346885 191.878042 
L 161.956566 179.384676 
L 170.094568 172.481079 
L 170.430723 184.897786 
z
" style="fill:#480290;"/>
    <path clip-path="url(#p56b2eaffff)" d="M 191.031582 181.987547 
L 189.901453 114.325202 
L 197.876162 107.963281 
L 198.736391 175.194243 
z
" style="fill:#dd8d33;"/>
    <path clip-path="url(#p56b2eaffff)" d="M 270.961723 188.120663 
L 284.327244 192.170297 
L 284.4262 188.897643 
L 271.038205 184.85954 
z
" style="fill:#1c057e;"/>
    <path clip-path="url(#p56b2eaffff)" d="M 244.670417 180.154631 
L 251.851153 173.395697 
L 252.955855 92.982028 
L 245.494864 99.220322 
z
" style="fill:#685c0f;"/>
    <path clip-path="url(#p56b2eaffff)" d="M 178.361455 178.049733 
L 191.031582 181.987547 
L 189.98069 119.069232 
L 176.918977 115.362666 
z
" style="fill:#d97d3d;"/>
    <path clip-path="url(#p56b2eaffff)" d="M 198.736391 175.194243 
L 211.467294 179.100638 
L 210.949525 98.766372 
L 197.712325 95.158691 
z
" style="fill:#ddc120;"/>
    <path clip-path="url(#p56b2eaffff)" d="M 196.068846 192.969946 
L 203.841786 185.968896 
L 216.794403 189.994506 
L 209.103753 197.073984 
z
" style="fill:#783634;"/>
    <path clip-path="url(#p56b2eaffff)" d="M 141.344465 194.868925 
L 141.30979 194.041156 
L 149.631804 187.008908 
L 149.662704 187.831639 
z
" style="fill:#0b0777;"/>
    <path clip-path="url(#p56b2eaffff)" d="M 183.178635 188.911464 
L 191.031582 181.987547 
L 190.469739 148.349231 
L 182.477533 155.062201 
z
" style="fill:#48103d;"/>
    <path clip-path="url(#p56b2eaffff)" d="M 226.36897 87.052997 
L 239.580029 90.564183 
L 246.98064 84.507388 
L 233.8552 81.063331 
z
" style="fill:#c0a51c;"/>
    <path clip-path="url(#p56b2eaffff)" d="M 192.537443 82.9028 
L 205.559088 86.390832 
L 213.28772 80.37398 
L 200.348069 76.952638 
z
" style="fill:#bdb01d;"/>
    <path clip-path="url(#p56b2eaffff)" d="M 231.739835 176.23678 
L 232.024534 99.311213 
L 245.456947 102.942487 
L 244.670417 180.154631 
z
" style="fill:#695410;"/>
    <path clip-path="url(#p56b2eaffff)" d="M 270.961723 188.120663 
L 271.217179 177.228177 
L 284.657775 181.239062 
L 284.327244 192.170297 
z
" style="fill:#1f0143;"/>
    <path clip-path="url(#p56b2eaffff)" d="M 270.961723 188.120663 
L 277.971253 181.211726 
L 279.128936 138.151196 
L 271.977978 144.788207 
z
" style="fill:#541d32;"/>
    <path clip-path="url(#p56b2eaffff)" d="M 229.891821 194.06512 
L 237.351973 187.043183 
L 250.510457 191.080779 
L 243.136481 198.181496 
z
" style="fill:#834c25;"/>
    <path clip-path="url(#p56b2eaffff)" d="M 231.739835 176.23678 
L 244.670417 180.154631 
L 245.494864 99.220322 
L 232.038255 95.603683 
z
" style="fill:#dcc220;"/>
    <path clip-path="url(#p56b2eaffff)" d="M 191.031582 181.987547 
L 190.196593 131.995632 
L 203.325032 135.794043 
L 203.841786 185.968896 
z
" style="fill:#5c272b;"/>
    <path clip-path="url(#p56b2eaffff)" d="M 170.430723 184.897786 
L 183.178635 188.911464 
L 182.477533 155.062201 
L 169.517632 151.17054 
z
" style="fill:#992282;"/>
    <path clip-path="url(#p56b2eaffff)" d="M 141.344465 194.868925 
L 149.662704 187.831639 
L 162.346885 191.878042 
L 154.105465 198.994368 
z
" style="fill:#070448;"/>
    <path clip-path="url(#p56b2eaffff)" d="M 211.467294 179.100638 
L 211.023909 110.307335 
L 224.338378 114.001701 
L 224.338378 183.050047 
z
" style="fill:#694517;"/>
    <path clip-path="url(#p56b2eaffff)" d="M 224.338378 183.050047 
L 224.338378 105.627098 
L 232.024534 99.311213 
L 231.739835 176.23678 
z
" style="fill:#dfb222;"/>
    <path clip-path="url(#p56b2eaffff)" d="M 263.816264 195.163579 
L 264.034678 184.203861 
L 271.217179 177.228177 
L 270.961723 188.120663 
z
" style="fill:#41028d;"/>
    <path clip-path="url(#p56b2eaffff)" d="M 263.816264 195.163579 
L 270.961723 188.120663 
L 284.327244 192.170297 
L 277.271882 199.292348 
z
" style="fill:#270155;"/>
    <path clip-path="url(#p56b2eaffff)" d="M 141.30979 194.041156 
L 154.075957 198.163673 
L 162.32109 191.052408 
L 149.631804 187.008908 
z
" style="fill:#0a0667;"/>
    <path clip-path="url(#p56b2eaffff)" d="M 257.743589 184.115686 
L 270.961723 188.120663 
L 271.977978 144.788207 
L 258.467625 140.940525 
z
" style="fill:#b33e6b;"/>
    <path clip-path="url(#p56b2eaffff)" d="M 162.346885 191.878042 
L 162.263538 189.210252 
L 175.106761 193.29257 
L 175.173234 195.969799 
z
" style="fill:#0b033b;"/>
    <path clip-path="url(#p56b2eaffff)" d="M 224.338378 183.050047 
L 231.739835 176.23678 
L 232.043454 94.199125 
L 224.338378 100.479943 
z
" style="fill:#675e10;"/>
    <path clip-path="url(#p56b2eaffff)" d="M 175.173234 195.969799 
L 183.178635 188.911464 
L 196.068846 192.969946 
L 188.144156 200.107676 
z
" style="fill:#5a1350;"/>
    <path clip-path="url(#p56b2eaffff)" d="M 257.743589 184.115686 
L 264.839875 177.282368 
L 266.386534 100.951712 
L 259.03191 107.291495 
z
" style="fill:#695310;"/>
    <path clip-path="url(#p56b2eaffff)" d="M 183.178635 188.911464 
L 182.136604 138.602081 
L 190.196593 131.995632 
L 191.031582 181.987547 
z
" style="fill:#c3535a;"/>
    <path clip-path="url(#p56b2eaffff)" d="M 175.173234 195.969799 
L 183.178635 188.911464 
L 182.920539 176.450576 
L 174.861929 183.431883 
z
" style="fill:#220144;"/>
    <path clip-path="url(#p56b2eaffff)" d="M 203.841786 185.968896 
L 211.467294 179.100638 
L 211.032376 111.621117 
L 203.142343 118.055623 
z
" style="fill:#684218;"/>
    <path clip-path="url(#p56b2eaffff)" d="M 244.670417 180.154631 
L 245.38329 110.173288 
L 258.921514 113.874555 
L 257.743589 184.115686 
z
" style="fill:#694715;"/>
    <path clip-path="url(#p56b2eaffff)" d="M 239.556769 93.746813 
L 252.896397 97.310149 
L 260.198297 91.163498 
L 246.946419 87.668562 
z
" style="fill:#c2991e;"/>
    <path clip-path="url(#p56b2eaffff)" d="M 161.956566 179.384676 
L 174.861929 183.431883 
L 182.920539 176.450576 
L 170.094568 172.481079 
z
" style="fill:#3e017d;"/>
    <path clip-path="url(#p56b2eaffff)" d="M 203.841786 185.968896 
L 203.128721 116.732959 
L 211.023909 110.307335 
L 211.467294 179.100638 
z
" style="fill:#de9230;"/>
    <path clip-path="url(#p56b2eaffff)" d="M 209.103753 197.073984 
L 216.794403 189.994506 
L 229.891821 194.06512 
L 222.285805 201.224351 
z
" style="fill:#783534;"/>
    <path clip-path="url(#p56b2eaffff)" d="M 154.105465 198.994368 
L 162.346885 191.878042 
L 162.32109 191.052408 
L 154.075957 198.163673 
z
" style="fill:#050338;"/>
    <path clip-path="url(#p56b2eaffff)" d="M 169.517632 151.17054 
L 182.477533 155.062201 
L 190.469739 148.349231 
L 177.590195 144.53236 
z
" style="fill:#851e70;"/>
    <path clip-path="url(#p56b2eaffff)" d="M 184.74681 98.026277 
L 197.794981 101.618581 
L 205.640246 95.421995 
L 192.674113 91.89874 
z
" style="fill:#c29021;"/>
    <path clip-path="url(#p56b2eaffff)" d="M 154.105465 198.994368 
L 154.010116 196.310201 
L 162.263538 189.210252 
L 162.346885 191.878042 
z
" style="fill:#18057c;"/>
    <path clip-path="url(#p56b2eaffff)" d="M 211.467294 179.100638 
L 224.338378 183.050047 
L 224.338378 100.479943 
L 210.9371 96.838578 
z
" style="fill:#dbc821;"/>
    <path clip-path="url(#p56b2eaffff)" d="M 244.670417 180.154631 
L 257.743589 184.115686 
L 259.03191 107.291495 
L 245.450087 103.615963 
z
" style="fill:#e0af22;"/>
    <path clip-path="url(#p56b2eaffff)" d="M 257.743589 184.115686 
L 258.669827 128.882932 
L 272.261833 132.684825 
L 270.961723 188.120663 
z
" style="fill:#612f25;"/>
    <path clip-path="url(#p56b2eaffff)" d="M 162.346885 191.878042 
L 175.173234 195.969799 
L 174.861929 183.431883 
L 161.956566 179.384676 
z
" style="fill:#480290;"/>
    <path clip-path="url(#p56b2eaffff)" d="M 191.031582 181.987547 
L 203.841786 185.968896 
L 203.142343 118.055623 
L 189.901453 114.325202 
z
" style="fill:#dd8d33;"/>
    <path clip-path="url(#p56b2eaffff)" d="M 237.351973 187.043183 
L 237.81278 116.61097 
L 245.38329 110.173288 
L 244.670417 180.154631 
z
" style="fill:#df972d;"/>
    <path clip-path="url(#p56b2eaffff)" d="M 252.798681 104.423047 
L 266.242612 108.054585 
L 273.431133 101.790343 
L 260.07678 98.228667 
z
" style="fill:#c18129;"/>
    <path clip-path="url(#p56b2eaffff)" d="M 243.136481 198.181496 
L 250.510457 191.080779 
L 263.816264 195.163579 
L 256.530882 202.34441 
z
" style="fill:#783534;"/>
    <path clip-path="url(#p56b2eaffff)" d="M 224.338378 183.050047 
L 224.338378 117.580308 
L 237.781899 121.330948 
L 237.351973 187.043183 
z
" style="fill:#683f1a;"/>
    <path clip-path="url(#p56b2eaffff)" d="M 183.178635 188.911464 
L 182.500468 156.169459 
L 195.600421 160.109419 
L 196.068846 192.969946 
z
" style="fill:#470f3e;"/>
    <path clip-path="url(#p56b2eaffff)" d="M 141.344465 194.868925 
L 154.105465 198.994368 
L 154.075957 198.163673 
L 141.30979 194.041156 
z
" style="fill:#0b0777;"/>
    <path clip-path="url(#p56b2eaffff)" d="M 205.52368 82.450684 
L 218.717164 85.962506 
L 226.375918 79.904801 
L 213.267085 76.460621 
z
" style="fill:#b8bf1a;"/>
    <path clip-path="url(#p56b2eaffff)" d="M 154.105465 198.994368 
L 162.346885 191.878042 
L 175.173234 195.969799 
L 167.010898 203.166503 
z
" style="fill:#0e034b;"/>
    <path clip-path="url(#p56b2eaffff)" d="M 203.841786 185.968896 
L 203.302162 133.57342 
L 216.594656 137.406664 
L 216.794403 189.994506 
z
" style="fill:#5e2a28;"/>
    <path clip-path="url(#p56b2eaffff)" d="M 237.351973 187.043183 
L 244.670417 180.154631 
L 245.456947 102.942487 
L 237.86041 109.330882 
z
" style="fill:#695410;"/>
    <path clip-path="url(#p56b2eaffff)" d="M 250.510457 191.080779 
L 251.243332 135.495591 
L 258.669827 128.882932 
L 257.743589 184.115686 
z
" style="fill:#cd634f;"/>
    <path clip-path="url(#p56b2eaffff)" d="M 264.034678 184.203861 
L 277.566398 188.29356 
L 284.657775 181.239062 
L 271.217179 177.228177 
z
" style="fill:#38027b;"/>
    <path clip-path="url(#p56b2eaffff)" d="M 277.271882 199.292348 
L 284.327244 192.170297 
L 284.657775 181.239062 
L 277.566398 188.29356 
z
" style="fill:#1f0143;"/>
    <path clip-path="url(#p56b2eaffff)" d="M 258.467625 140.940525 
L 271.977978 144.788207 
L 279.128936 138.151196 
L 265.709236 134.37772 
z
" style="fill:#9b365c;"/>
    <path clip-path="url(#p56b2eaffff)" d="M 216.794403 189.994506 
L 216.544127 124.103918 
L 224.338378 117.580308 
L 224.338378 183.050047 
z
" style="fill:#dc8538;"/>
    <path clip-path="url(#p56b2eaffff)" d="M 175.173234 195.969799 
L 174.355172 163.022132 
L 182.500468 156.169459 
L 183.178635 188.911464 
z
" style="fill:#961f84;"/>
    <path clip-path="url(#p56b2eaffff)" d="M 154.010116 196.310201 
L 166.932628 200.472822 
L 175.106761 193.29257 
L 162.263538 189.210252 
z
" style="fill:#15056c;"/>
    <path clip-path="url(#p56b2eaffff)" d="M 188.144156 200.107676 
L 196.068846 192.969946 
L 209.103753 197.073984 
L 201.262108 204.292457 
z
" style="fill:#5a1350;"/>
    <path clip-path="url(#p56b2eaffff)" d="M 196.068846 192.969946 
L 203.841786 185.968896 
L 203.325032 135.794043 
L 195.349058 142.475957 
z
" style="fill:#5c272b;"/>
    <path clip-path="url(#p56b2eaffff)" d="M 176.918977 115.362666 
L 189.98069 119.069232 
L 197.936457 112.675664 
L 184.956655 109.040653 
z
" style="fill:#bc6c35;"/>
    <path clip-path="url(#p56b2eaffff)" d="M 196.068846 192.969946 
L 195.317193 140.240641 
L 203.302162 133.57342 
L 203.841786 185.968896 
z
" style="fill:#c75956;"/>
    <path clip-path="url(#p56b2eaffff)" d="M 224.338378 183.050047 
L 237.351973 187.043183 
L 237.86041 109.330882 
L 224.338378 105.627098 
z
" style="fill:#dfb222;"/>
    <path clip-path="url(#p56b2eaffff)" d="M 216.794403 189.994506 
L 224.338378 183.050047 
L 224.338378 114.001701 
L 216.530442 120.501105 
z
" style="fill:#694517;"/>
    <path clip-path="url(#p56b2eaffff)" d="M 263.816264 195.163579 
L 277.271882 199.292348 
L 277.566398 188.29356 
L 264.034678 184.203861 
z
" style="fill:#41028d;"/>
    <path clip-path="url(#p56b2eaffff)" d="M 222.285805 201.224351 
L 229.891821 194.06512 
L 243.136481 198.181496 
L 235.617509 205.421836 
z
" style="fill:#763236;"/>
    <path clip-path="url(#p56b2eaffff)" d="M 218.729955 90.718534 
L 232.04312 94.289193 
L 239.597818 88.130082 
L 226.371327 84.628427 
z
" style="fill:#beae1d;"/>
    <path clip-path="url(#p56b2eaffff)" d="M 167.010898 203.166503 
L 175.173234 195.969799 
L 175.106761 193.29257 
L 166.932628 200.472822 
z
" style="fill:#0b033b;"/>
    <path clip-path="url(#p56b2eaffff)" d="M 175.173234 195.969799 
L 174.90047 184.98414 
L 187.942215 189.082846 
L 188.144156 200.107676 
z
" style="fill:#1f0143;"/>
    <path clip-path="url(#p56b2eaffff)" d="M 183.178635 188.911464 
L 196.068846 192.969946 
L 195.349058 142.475957 
L 182.136604 138.602081 
z
" style="fill:#c3535a;"/>
    <path clip-path="url(#p56b2eaffff)" d="M 250.510457 191.080779 
L 257.743589 184.115686 
L 258.921514 113.874555 
L 251.442544 120.38631 
z
" style="fill:#694715;"/>
    <path clip-path="url(#p56b2eaffff)" d="M 263.816264 195.163579 
L 264.180646 176.879347 
L 277.763237 180.942554 
L 277.271882 199.292348 
z
" style="fill:#2d0046;"/>
    <path clip-path="url(#p56b2eaffff)" d="M 203.841786 185.968896 
L 216.794403 189.994506 
L 216.530442 120.501105 
L 203.128721 116.732959 
z
" style="fill:#de9230;"/>
    <path clip-path="url(#p56b2eaffff)" d="M 237.351973 187.043183 
L 237.769223 123.26846 
L 251.354424 127.069781 
L 250.510457 191.080779 
z
" style="fill:#673b1d;"/>
    <path clip-path="url(#p56b2eaffff)" d="M 256.530882 202.34441 
L 263.816264 195.163579 
L 277.271882 199.292348 
L 270.077576 206.554656 
z
" style="fill:#3a005a;"/>
    <path clip-path="url(#p56b2eaffff)" d="M 196.068846 192.969946 
L 195.600421 160.109419 
L 208.849876 164.094342 
L 209.103753 197.073984 
z
" style="fill:#470f3e;"/>
    <path clip-path="url(#p56b2eaffff)" d="M 154.105465 198.994368 
L 167.010898 203.166503 
L 166.932628 200.472822 
L 154.010116 196.310201 
z
" style="fill:#18057c;"/>
    <path clip-path="url(#p56b2eaffff)" d="M 216.794403 189.994506 
L 216.596842 137.982305 
L 230.038088 141.861744 
L 229.891821 194.06512 
z
" style="fill:#5e2a29;"/>
    <path clip-path="url(#p56b2eaffff)" d="M 167.010898 203.166503 
L 166.689714 192.112882 
L 174.90047 184.98414 
L 175.173234 195.969799 
z
" style="fill:#41028d;"/>
    <path clip-path="url(#p56b2eaffff)" d="M 167.010898 203.166503 
L 175.173234 195.969799 
L 188.144156 200.107676 
L 180.063228 207.386128 
z
" style="fill:#270155;"/>
    <path clip-path="url(#p56b2eaffff)" d="M 263.816264 195.163579 
L 270.961723 188.120663 
L 272.261833 132.684825 
L 264.928094 139.373446 
z
" style="fill:#612f25;"/>
    <path clip-path="url(#p56b2eaffff)" d="M 237.351973 187.043183 
L 250.510457 191.080779 
L 251.442544 120.38631 
L 237.81278 116.61097 
z
" style="fill:#df972d;"/>
    <path clip-path="url(#p56b2eaffff)" d="M 256.530882 202.34441 
L 256.830956 183.946422 
L 264.180646 176.879347 
L 263.816264 195.163579 
z
" style="fill:#5f0094;"/>
    <path clip-path="url(#p56b2eaffff)" d="M 197.712325 95.158691 
L 210.949525 98.766372 
L 218.734863 92.543484 
L 205.582587 89.005749 
z
" style="fill:#c0a71c;"/>
    <path clip-path="url(#p56b2eaffff)" d="M 229.891821 194.06512 
L 230.071659 129.880355 
L 237.769223 123.26846 
L 237.351973 187.043183 
z
" style="fill:#d97e3c;"/>
    <path clip-path="url(#p56b2eaffff)" d="M 229.891821 194.06512 
L 237.351973 187.043183 
L 237.781899 121.330948 
L 230.077124 127.929762 
z
" style="fill:#683f1a;"/>
    <path clip-path="url(#p56b2eaffff)" d="M 188.144156 200.107676 
L 196.068846 192.969946 
L 195.600421 160.109419 
L 187.538467 167.040461 
z
" style="fill:#470f3e;"/>
    <path clip-path="url(#p56b2eaffff)" d="M 188.144156 200.107676 
L 187.538467 167.040461 
L 195.600421 160.109419 
L 196.068846 192.969946 
z
" style="fill:#961f84;"/>
    <path clip-path="url(#p56b2eaffff)" d="M 250.510457 191.080779 
L 251.198291 138.911794 
L 264.859752 142.802749 
L 263.816264 195.163579 
z
" style="fill:#5e2a29;"/>
    <path clip-path="url(#p56b2eaffff)" d="M 201.262108 204.292457 
L 209.103753 197.073984 
L 222.285805 201.224351 
L 214.529606 208.524945 
z
" style="fill:#591251;"/>
    <path clip-path="url(#p56b2eaffff)" d="M 209.103753 197.073984 
L 208.700809 144.730029 
L 216.596842 137.982305 
L 216.794403 189.994506 
z
" style="fill:#c75856;"/>
    <path clip-path="url(#p56b2eaffff)" d="M 209.103753 197.073984 
L 216.794403 189.994506 
L 216.594656 137.406664 
L 208.696348 144.150567 
z
" style="fill:#5e2a28;"/>
    <path clip-path="url(#p56b2eaffff)" d="M 250.510457 191.080779 
L 263.816264 195.163579 
L 264.928094 139.373446 
L 251.243332 135.495591 
z
" style="fill:#cd634f;"/>
    <path clip-path="url(#p56b2eaffff)" d="M 232.038255 95.603683 
L 245.494864 99.220322 
L 252.955855 92.982028 
L 239.588276 89.435631 
z
" style="fill:#bfa81c;"/>
    <path clip-path="url(#p56b2eaffff)" d="M 235.617509 205.421836 
L 243.136481 198.181496 
L 256.530882 202.34441 
L 249.101427 209.667246 
z
" style="fill:#6f2a3d;"/>
    <path clip-path="url(#p56b2eaffff)" d="M 216.794403 189.994506 
L 229.891821 194.06512 
L 230.077124 127.929762 
L 216.544127 124.103918 
z
" style="fill:#dc8538;"/>
    <path clip-path="url(#p56b2eaffff)" d="M 175.173234 195.969799 
L 188.144156 200.107676 
L 187.538467 167.040461 
L 174.355172 163.022132 
z
" style="fill:#961f84;"/>
    <path clip-path="url(#p56b2eaffff)" d="M 243.136481 198.181496 
L 243.635456 145.679594 
L 251.198291 138.911794 
L 250.510457 191.080779 
z
" style="fill:#c75856;"/>
    <path clip-path="url(#p56b2eaffff)" d="M 188.144156 200.107676 
L 187.914619 187.576229 
L 201.114928 191.716224 
L 201.262108 204.292457 
z
" style="fill:#220144;"/>
    <path clip-path="url(#p56b2eaffff)" d="M 196.068846 192.969946 
L 209.103753 197.073984 
L 208.696348 144.150567 
L 195.317193 140.240641 
z
" style="fill:#c75956;"/>
    <path clip-path="url(#p56b2eaffff)" d="M 189.901453 114.325202 
L 203.142343 118.055623 
L 211.032376 111.621117 
L 197.876162 107.963281 
z
" style="fill:#c07a2d;"/>
    <path clip-path="url(#p56b2eaffff)" d="M 209.103753 197.073984 
L 208.856376 164.938761 
L 222.252285 168.972565 
L 222.285805 201.224351 
z
" style="fill:#460e3f;"/>
    <path clip-path="url(#p56b2eaffff)" d="M 229.891821 194.06512 
L 230.033247 143.589444 
L 243.617962 147.520259 
L 243.136481 198.181496 
z
" style="fill:#5c272b;"/>
    <path clip-path="url(#p56b2eaffff)" d="M 166.689714 192.112882 
L 179.813752 196.293019 
L 187.942215 189.082846 
L 174.90047 184.98414 
z
" style="fill:#38027b;"/>
    <path clip-path="url(#p56b2eaffff)" d="M 182.136604 138.602081 
L 195.349058 142.475957 
L 203.325032 135.794043 
L 190.196593 131.995632 
z
" style="fill:#a9484e;"/>
    <path clip-path="url(#p56b2eaffff)" d="M 180.063228 207.386128 
L 188.144156 200.107676 
L 187.942215 189.082846 
L 179.813752 196.293019 
z
" style="fill:#1f0143;"/>
    <path clip-path="url(#p56b2eaffff)" d="M 180.063228 207.386128 
L 188.144156 200.107676 
L 201.262108 204.292457 
L 193.264978 211.654059 
z
" style="fill:#2b0157;"/>
    <path clip-path="url(#p56b2eaffff)" d="M 180.063228 207.386128 
L 179.779657 194.776977 
L 187.914619 187.576229 
L 188.144156 200.107676 
z
" style="fill:#480290;"/>
    <path clip-path="url(#p56b2eaffff)" d="M 245.450087 103.615963 
L 259.03191 107.291495 
L 266.386534 100.951712 
L 252.895879 97.347818 
z
" style="fill:#c2981e;"/>
    <path clip-path="url(#p56b2eaffff)" d="M 270.077576 206.554656 
L 277.271882 199.292348 
L 277.763237 180.942554 
L 270.506369 188.090566 
z
" style="fill:#2d0046;"/>
    <path clip-path="url(#p56b2eaffff)" d="M 243.136481 198.181496 
L 250.510457 191.080779 
L 251.354424 127.069781 
L 243.748755 133.758268 
z
" style="fill:#673b1d;"/>
    <path clip-path="url(#p56b2eaffff)" d="M 174.355172 163.022132 
L 187.538467 167.040461 
L 195.600421 160.109419 
L 182.500468 156.169459 
z
" style="fill:#821b72;"/>
    <path clip-path="url(#p56b2eaffff)" d="M 201.262108 204.292457 
L 200.883661 171.954979 
L 208.856376 164.938761 
L 209.103753 197.073984 
z
" style="fill:#941d85;"/>
    <path clip-path="url(#p56b2eaffff)" d="M 201.262108 204.292457 
L 209.103753 197.073984 
L 208.849876 164.094342 
L 200.873715 171.105106 
z
" style="fill:#470f3e;"/>
    <path clip-path="url(#p56b2eaffff)" d="M 214.529606 208.524945 
L 222.285805 201.224351 
L 235.617509 205.421836 
L 227.94922 212.80596 
z
" style="fill:#560f53;"/>
    <path clip-path="url(#p56b2eaffff)" d="M 222.285805 201.224351 
L 222.233009 150.426671 
L 230.033247 143.589444 
L 229.891821 194.06512 
z
" style="fill:#c3535a;"/>
    <path clip-path="url(#p56b2eaffff)" d="M 210.9371 96.838578 
L 224.338378 100.479943 
L 232.043454 94.199125 
L 218.729714 90.628821 
z
" style="fill:#beae1d;"/>
    <path clip-path="url(#p56b2eaffff)" d="M 167.010898 203.166503 
L 180.063228 207.386128 
L 179.813752 196.293019 
L 166.689714 192.112882 
z
" style="fill:#41028d;"/>
    <path clip-path="url(#p56b2eaffff)" d="M 222.285805 201.224351 
L 229.891821 194.06512 
L 230.038088 141.861744 
L 222.231202 148.687502 
z
" style="fill:#5e2a29;"/>
    <path clip-path="url(#p56b2eaffff)" d="M 256.830956 183.946422 
L 270.506369 188.090566 
L 277.763237 180.942554 
L 264.180646 176.879347 
z
" style="fill:#530081;"/>
    <path clip-path="url(#p56b2eaffff)" d="M 256.530882 202.34441 
L 270.077576 206.554656 
L 270.506369 188.090566 
L 256.830956 183.946422 
z
" style="fill:#5f0094;"/>
    <path clip-path="url(#p56b2eaffff)" d="M 229.891821 194.06512 
L 243.136481 198.181496 
L 243.748755 133.758268 
L 230.071659 129.880355 
z
" style="fill:#d97e3c;"/>
    <path clip-path="url(#p56b2eaffff)" d="M 249.101427 209.667246 
L 256.530882 202.34441 
L 270.077576 206.554656 
L 262.740181 213.961405 
z
" style="fill:#40015a;"/>
    <path clip-path="url(#p56b2eaffff)" d="M 188.144156 200.107676 
L 201.262108 204.292457 
L 200.873715 171.105106 
L 187.538467 167.040461 
z
" style="fill:#961f84;"/>
    <path clip-path="url(#p56b2eaffff)" d="M 256.530882 202.34441 
L 256.875011 181.245382 
L 270.569325 185.379657 
L 270.077576 206.554656 
z
" style="fill:#320146;"/>
    <path clip-path="url(#p56b2eaffff)" d="M 256.530882 202.34441 
L 263.816264 195.163579 
L 264.859752 142.802749 
L 257.390355 149.648941 
z
" style="fill:#5e2a29;"/>
    <path clip-path="url(#p56b2eaffff)" d="M 201.262108 204.292457 
L 201.121056 192.2398 
L 214.469306 196.429184 
L 214.529606 208.524945 
z
" style="fill:#210143;"/>
    <path clip-path="url(#p56b2eaffff)" d="M 243.136481 198.181496 
L 243.573505 152.197999 
L 257.283633 156.192239 
L 256.530882 202.34441 
z
" style="fill:#572130;"/>
    <path clip-path="url(#p56b2eaffff)" d="M 209.103753 197.073984 
L 222.285805 201.224351 
L 222.231202 148.687502 
L 208.700809 144.730029 
z
" style="fill:#c75856;"/>
    <path clip-path="url(#p56b2eaffff)" d="M 222.285805 201.224351 
L 222.253839 170.468019 
L 235.79418 174.553934 
L 235.617509 205.421836 
z
" style="fill:#430b41;"/>
    <path clip-path="url(#p56b2eaffff)" d="M 224.338378 105.627098 
L 237.86041 109.330882 
L 245.456947 102.942487 
L 232.024534 99.311213 
z
" style="fill:#c29b1d;"/>
    <path clip-path="url(#p56b2eaffff)" d="M 203.128721 116.732959 
L 216.530442 120.501105 
L 224.338378 114.001701 
L 211.023909 110.307335 
z
" style="fill:#c17e2a;"/>
    <path clip-path="url(#p56b2eaffff)" d="M 251.243332 135.495591 
L 264.928094 139.373446 
L 272.261833 132.684825 
L 258.669827 128.882932 
z
" style="fill:#b25644;"/>
    <path clip-path="url(#p56b2eaffff)" d="M 249.101427 209.667246 
L 249.368783 188.436404 
L 256.875011 181.245382 
L 256.530882 202.34441 
z
" style="fill:#6a0195;"/>
    <path clip-path="url(#p56b2eaffff)" d="M 243.136481 198.181496 
L 256.530882 202.34441 
L 257.390355 149.648941 
L 243.635456 145.679594 
z
" style="fill:#c75856;"/>
    <path clip-path="url(#p56b2eaffff)" d="M 193.264978 211.654059 
L 201.262108 204.292457 
L 214.529606 208.524945 
L 206.61873 215.971129 
z
" style="fill:#2a0156;"/>
    <path clip-path="url(#p56b2eaffff)" d="M 193.264978 211.654059 
L 193.073149 199.526619 
L 201.121056 192.2398 
L 201.262108 204.292457 
z
" style="fill:#45028f;"/>
    <path clip-path="url(#p56b2eaffff)" d="M 193.264978 211.654059 
L 201.262108 204.292457 
L 201.114928 191.716224 
L 193.064815 198.999761 
z
" style="fill:#220144;"/>
    <path clip-path="url(#p56b2eaffff)" d="M 235.617509 205.421836 
L 235.882368 159.145648 
L 243.573505 152.197999 
L 243.136481 198.181496 
z
" style="fill:#b94565;"/>
    <path clip-path="url(#p56b2eaffff)" d="M 179.779657 194.776977 
L 193.064815 198.999761 
L 201.114928 191.716224 
L 187.914619 187.576229 
z
" style="fill:#3e017d;"/>
    <path clip-path="url(#p56b2eaffff)" d="M 214.529606 208.524945 
L 214.375315 177.575026 
L 222.253839 170.468019 
L 222.285805 201.224351 
z
" style="fill:#8e1889;"/>
    <path clip-path="url(#p56b2eaffff)" d="M 195.317193 140.240641 
L 208.696348 144.150567 
L 216.594656 137.406664 
L 203.302162 133.57342 
z
" style="fill:#ad4e4a;"/>
    <path clip-path="url(#p56b2eaffff)" d="M 187.538467 167.040461 
L 200.873715 171.105106 
L 208.849876 164.094342 
L 195.600421 160.109419 
z
" style="fill:#821b72;"/>
    <path clip-path="url(#p56b2eaffff)" d="M 214.529606 208.524945 
L 222.285805 201.224351 
L 222.252285 168.972565 
L 214.367812 176.069917 
z
" style="fill:#460e3f;"/>
    <path clip-path="url(#p56b2eaffff)" d="M 237.81278 116.61097 
L 251.442544 120.38631 
L 258.921514 113.874555 
L 245.38329 110.173288 
z
" style="fill:#c28327;"/>
    <path clip-path="url(#p56b2eaffff)" d="M 227.94922 212.80596 
L 235.617509 205.421836 
L 249.101427 209.667246 
L 241.523583 217.136342 
z
" style="fill:#520b55;"/>
    <path clip-path="url(#p56b2eaffff)" d="M 235.617509 205.421836 
L 243.136481 198.181496 
L 243.617962 147.520259 
L 235.909318 154.436948 
z
" style="fill:#5c272b;"/>
    <path clip-path="url(#p56b2eaffff)" d="M 180.063228 207.386128 
L 193.264978 211.654059 
L 193.064815 198.999761 
L 179.779657 194.776977 
z
" style="fill:#480290;"/>
    <path clip-path="url(#p56b2eaffff)" d="M 201.262108 204.292457 
L 214.529606 208.524945 
L 214.367812 176.069917 
L 200.883661 171.954979 
z
" style="fill:#941d85;"/>
    <path clip-path="url(#p56b2eaffff)" d="M 216.544127 124.103918 
L 230.077124 127.929762 
L 237.781899 121.330948 
L 224.338378 117.580308 
z
" style="fill:#bf7431;"/>
    <path clip-path="url(#p56b2eaffff)" d="M 214.529606 208.524945 
L 214.474359 197.442644 
L 227.969675 201.68402 
L 227.94922 212.80596 
z
" style="fill:#1f0143;"/>
    <path clip-path="url(#p56b2eaffff)" d="M 222.285805 201.224351 
L 235.617509 205.421836 
L 235.909318 154.436948 
L 222.233009 150.426671 
z
" style="fill:#c3535a;"/>
    <path clip-path="url(#p56b2eaffff)" d="M 235.617509 205.421836 
L 235.782783 176.545131 
L 249.466384 180.68583 
L 249.101427 209.667246 
z
" style="fill:#400942;"/>
    <path clip-path="url(#p56b2eaffff)" d="M 262.740181 213.961405 
L 270.077576 206.554656 
L 270.569325 185.379657 
L 263.157195 192.653974 
z
" style="fill:#320146;"/>
    <path clip-path="url(#p56b2eaffff)" d="M 206.61873 215.971129 
L 206.517924 204.820058 
L 214.474359 197.442644 
L 214.529606 208.524945 
z
" style="fill:#41028d;"/>
    <path clip-path="url(#p56b2eaffff)" d="M 206.61873 215.971129 
L 214.529606 208.524945 
L 227.94922 212.80596 
L 220.127123 220.338193 
z
" style="fill:#270155;"/>
    <path clip-path="url(#p56b2eaffff)" d="M 206.61873 215.971129 
L 214.529606 208.524945 
L 214.469306 196.429184 
L 206.508705 203.800246 
z
" style="fill:#210143;"/>
    <path clip-path="url(#p56b2eaffff)" d="M 227.94922 212.80596 
L 228.002663 183.747576 
L 235.782783 176.545131 
L 235.617509 205.421836 
z
" style="fill:#87128d;"/>
    <path clip-path="url(#p56b2eaffff)" d="M 193.073149 199.526619 
L 206.508705 203.800246 
L 214.469306 196.429184 
L 201.121056 192.2398 
z
" style="fill:#3c027c;"/>
    <path clip-path="url(#p56b2eaffff)" d="M 249.101427 209.667246 
L 256.530882 202.34441 
L 257.283633 156.192239 
L 249.686317 163.220914 
z
" style="fill:#572130;"/>
    <path clip-path="url(#p56b2eaffff)" d="M 200.883661 171.954979 
L 214.367812 176.069917 
L 222.252285 168.972565 
L 208.856376 164.938761 
z
" style="fill:#801974;"/>
    <path clip-path="url(#p56b2eaffff)" d="M 249.101427 209.667246 
L 249.307435 193.308061 
L 263.061502 197.543439 
L 262.740181 213.961405 
z
" style="fill:#290046;"/>
    <path clip-path="url(#p56b2eaffff)" d="M 208.700809 144.730029 
L 222.231202 148.687502 
L 230.038088 141.861744 
L 216.596842 137.982305 
z
" style="fill:#ac4d4b;"/>
    <path clip-path="url(#p56b2eaffff)" d="M 227.94922 212.80596 
L 235.617509 205.421836 
L 235.79418 174.553934 
L 228.006349 181.74354 
z
" style="fill:#430b41;"/>
    <path clip-path="url(#p56b2eaffff)" d="M 241.523583 217.136342 
L 249.101427 209.667246 
L 262.740181 213.961405 
L 255.255385 221.516949 
z
" style="fill:#350059;"/>
    <path clip-path="url(#p56b2eaffff)" d="M 249.101427 209.667246 
L 262.740181 213.961405 
L 263.157195 192.653974 
L 249.368783 188.436404 
z
" style="fill:#6a0195;"/>
    <path clip-path="url(#p56b2eaffff)" d="M 193.264978 211.654059 
L 206.61873 215.971129 
L 206.508705 203.800246 
L 193.073149 199.526619 
z
" style="fill:#45028f;"/>
    <path clip-path="url(#p56b2eaffff)" d="M 243.635456 145.679594 
L 257.390355 149.648941 
L 264.859752 142.802749 
L 251.198291 138.911794 
z
" style="fill:#ac4d4b;"/>
    <path clip-path="url(#p56b2eaffff)" d="M 249.368783 188.436404 
L 263.157195 192.653974 
L 270.569325 185.379657 
L 256.875011 181.245382 
z
" style="fill:#5c0181;"/>
    <path clip-path="url(#p56b2eaffff)" d="M 230.071659 129.880355 
L 243.748755 133.758268 
L 251.354424 127.069781 
L 237.769223 123.26846 
z
" style="fill:#bd6d34;"/>
    <path clip-path="url(#p56b2eaffff)" d="M 235.617509 205.421836 
L 249.101427 209.667246 
L 249.686317 163.220914 
L 235.882368 159.145648 
z
" style="fill:#b94565;"/>
    <path clip-path="url(#p56b2eaffff)" d="M 241.523583 217.136342 
L 241.667989 200.675175 
L 249.307435 193.308061 
L 249.101427 209.667246 
z
" style="fill:#570093;"/>
    <path clip-path="url(#p56b2eaffff)" d="M 214.529606 208.524945 
L 227.94922 212.80596 
L 228.006349 181.74354 
L 214.375315 177.575026 
z
" style="fill:#8e1889;"/>
    <path clip-path="url(#p56b2eaffff)" d="M 227.94922 212.80596 
L 227.969624 201.711815 
L 241.621255 206.002479 
L 241.523583 217.136342 
z
" style="fill:#1f0143;"/>
    <path clip-path="url(#p56b2eaffff)" d="M 222.233009 150.426671 
L 235.909318 154.436948 
L 243.617962 147.520259 
L 230.033247 143.589444 
z
" style="fill:#a9484e;"/>
    <path clip-path="url(#p56b2eaffff)" d="M 206.517924 204.820058 
L 220.103026 209.147174 
L 227.969675 201.68402 
L 214.474359 197.442644 
z
" style="fill:#38027b;"/>
    <path clip-path="url(#p56b2eaffff)" d="M 214.375315 177.575026 
L 228.006349 181.74354 
L 235.79418 174.553934 
L 222.253839 170.468019 
z
" style="fill:#7b1577;"/>
    <path clip-path="url(#p56b2eaffff)" d="M 220.127123 220.338193 
L 220.103086 209.175143 
L 227.969624 201.711815 
L 227.94922 212.80596 
z
" style="fill:#41028d;"/>
    <path clip-path="url(#p56b2eaffff)" d="M 220.127123 220.338193 
L 227.94922 212.80596 
L 227.969675 201.68402 
L 220.103026 209.147174 
z
" style="fill:#1f0143;"/>
    <path clip-path="url(#p56b2eaffff)" d="M 220.127123 220.338193 
L 227.94922 212.80596 
L 241.523583 217.136342 
L 233.792858 224.756123 
z
" style="fill:#270155;"/>
    <path clip-path="url(#p56b2eaffff)" d="M 241.523583 217.136342 
L 249.101427 209.667246 
L 249.466384 180.68583 
L 241.779425 187.972388 
z
" style="fill:#400942;"/>
    <path clip-path="url(#p56b2eaffff)" d="M 206.61873 215.971129 
L 220.127123 220.338193 
L 220.103026 209.147174 
L 206.517924 204.820058 
z
" style="fill:#41028d;"/>
    <path clip-path="url(#p56b2eaffff)" d="M 227.94922 212.80596 
L 241.523583 217.136342 
L 241.779425 187.972388 
L 228.002663 183.747576 
z
" style="fill:#87128d;"/>
    <path clip-path="url(#p56b2eaffff)" d="M 241.523583 217.136342 
L 241.591594 209.383542 
L 255.378454 213.736447 
L 255.255385 221.516949 
z
" style="fill:#180240;"/>
    <path clip-path="url(#p56b2eaffff)" d="M 255.255385 221.516949 
L 262.740181 213.961405 
L 263.061502 197.543439 
L 255.516699 204.996539 
z
" style="fill:#290046;"/>
    <path clip-path="url(#p56b2eaffff)" d="M 235.882368 159.145648 
L 249.686317 163.220914 
L 257.283633 156.192239 
L 243.573505 152.197999 
z
" style="fill:#a03c58;"/>
    <path clip-path="url(#p56b2eaffff)" d="M 241.667989 200.675175 
L 255.516699 204.996539 
L 263.061502 197.543439 
L 249.307435 193.308061 
z
" style="fill:#4c0080;"/>
    <path clip-path="url(#p56b2eaffff)" d="M 228.002663 183.747576 
L 241.779425 187.972388 
L 249.466384 180.68583 
L 235.782783 176.545131 
z
" style="fill:#75107a;"/>
    <path clip-path="url(#p56b2eaffff)" d="M 233.792858 224.756123 
L 233.830654 216.955267 
L 241.591594 209.383542 
L 241.523583 217.136342 
z
" style="fill:#320488;"/>
    <path clip-path="url(#p56b2eaffff)" d="M 241.523583 217.136342 
L 255.255385 221.516949 
L 255.516699 204.996539 
L 241.667989 200.675175 
z
" style="fill:#570093;"/>
    <path clip-path="url(#p56b2eaffff)" d="M 220.103086 209.175143 
L 233.847138 213.553052 
L 241.621255 206.002479 
L 227.969624 201.711815 
z
" style="fill:#38027b;"/>
    <path clip-path="url(#p56b2eaffff)" d="M 233.792858 224.756123 
L 241.523583 217.136342 
L 241.621255 206.002479 
L 233.847138 213.553052 
z
" style="fill:#1f0143;"/>
    <path clip-path="url(#p56b2eaffff)" d="M 233.792858 224.756123 
L 241.523583 217.136342 
L 255.255385 221.516949 
L 247.618703 229.225814 
z
" style="fill:#1e0252;"/>
    <path clip-path="url(#p56b2eaffff)" d="M 220.127123 220.338193 
L 233.792858 224.756123 
L 233.847138 213.553052 
L 220.103086 209.175143 
z
" style="fill:#41028d;"/>
    <path clip-path="url(#p56b2eaffff)" d="M 233.830654 216.955267 
L 247.712317 221.39705 
L 255.378454 213.736447 
L 241.591594 209.383542 
z
" style="fill:#2b0376;"/>
    <path clip-path="url(#p56b2eaffff)" d="M 247.618703 229.225814 
L 255.255385 221.516949 
L 255.378454 213.736447 
L 247.712317 221.39705 
z
" style="fill:#180240;"/>
    <path clip-path="url(#p56b2eaffff)" d="M 233.792858 224.756123 
L 247.618703 229.225814 
L 247.712317 221.39705 
L 233.830654 216.955267 
z
" style="fill:#320488;"/>
   </g>
   <g id="text_16">
    <!-- W50__H50__A140_bars_extracted.txt -->
    <g transform="translate(110.101875 28.56)scale(0.12 -0.12)">
     <defs>
      <path d="M 3.328125 72.90625 
L 13.28125 72.90625 
L 28.609375 11.28125 
L 43.890625 72.90625 
L 54.984375 72.90625 
L 70.3125 11.28125 
L 85.59375 72.90625 
L 95.609375 72.90625 
L 77.296875 0 
L 64.890625 0 
L 49.515625 63.28125 
L 33.984375 0 
L 21.578125 0 
z
" id="DejaVuSans-87"/>
      <path d="M 50.984375 -16.609375 
L 50.984375 -23.578125 
L -0.984375 -23.578125 
L -0.984375 -16.609375 
z
" id="DejaVuSans-95"/>
      <path d="M 9.8125 72.90625 
L 19.671875 72.90625 
L 19.671875 43.015625 
L 55.515625 43.015625 
L 55.515625 72.90625 
L 65.375 72.90625 
L 65.375 0 
L 55.515625 0 
L 55.515625 34.71875 
L 19.671875 34.71875 
L 19.671875 0 
L 9.8125 0 
z
" id="DejaVuSans-72"/>
      <path d="M 34.1875 63.1875 
L 20.796875 26.90625 
L 47.609375 26.90625 
z
M 28.609375 72.90625 
L 39.796875 72.90625 
L 67.578125 0 
L 57.328125 0 
L 50.6875 18.703125 
L 17.828125 18.703125 
L 11.1875 0 
L 0.78125 0 
z
" id="DejaVuSans-65"/>
      <path d="M 48.6875 27.296875 
Q 48.6875 37.203125 44.609375 42.84375 
Q 40.53125 48.484375 33.40625 48.484375 
Q 26.265625 48.484375 22.1875 42.84375 
Q 18.109375 37.203125 18.109375 27.296875 
Q 18.109375 17.390625 22.1875 11.75 
Q 26.265625 6.109375 33.40625 6.109375 
Q 40.53125 6.109375 44.609375 11.75 
Q 48.6875 17.390625 48.6875 27.296875 
z
M 18.109375 46.390625 
Q 20.953125 51.265625 25.265625 53.625 
Q 29.59375 56 35.59375 56 
Q 45.5625 56 51.78125 48.09375 
Q 58.015625 40.1875 58.015625 27.296875 
Q 58.015625 14.40625 51.78125 6.484375 
Q 45.5625 -1.421875 35.59375 -1.421875 
Q 29.59375 -1.421875 25.265625 0.953125 
Q 20.953125 3.328125 18.109375 8.203125 
L 18.109375 0 
L 9.078125 0 
L 9.078125 75.984375 
L 18.109375 75.984375 
z
" id="DejaVuSans-98"/>
      <path d="M 34.28125 27.484375 
Q 23.390625 27.484375 19.1875 25 
Q 14.984375 22.515625 14.984375 16.5 
Q 14.984375 11.71875 18.140625 8.90625 
Q 21.296875 6.109375 26.703125 6.109375 
Q 34.1875 6.109375 38.703125 11.40625 
Q 43.21875 16.703125 43.21875 25.484375 
L 43.21875 27.484375 
z
M 52.203125 31.203125 
L 52.203125 0 
L 43.21875 0 
L 43.21875 8.296875 
Q 40.140625 3.328125 35.546875 0.953125 
Q 30.953125 -1.421875 24.3125 -1.421875 
Q 15.921875 -1.421875 10.953125 3.296875 
Q 6 8.015625 6 15.921875 
Q 6 25.140625 12.171875 29.828125 
Q 18.359375 34.515625 30.609375 34.515625 
L 43.21875 34.515625 
L 43.21875 35.40625 
Q 43.21875 41.609375 39.140625 45 
Q 35.0625 48.390625 27.6875 48.390625 
Q 23 48.390625 18.546875 47.265625 
Q 14.109375 46.140625 10.015625 43.890625 
L 10.015625 52.203125 
Q 14.9375 54.109375 19.578125 55.046875 
Q 24.21875 56 28.609375 56 
Q 40.484375 56 46.34375 49.84375 
Q 52.203125 43.703125 52.203125 31.203125 
z
" id="DejaVuSans-97"/>
      <path d="M 41.109375 46.296875 
Q 39.59375 47.171875 37.8125 47.578125 
Q 36.03125 48 33.890625 48 
Q 26.265625 48 22.1875 43.046875 
Q 18.109375 38.09375 18.109375 28.8125 
L 18.109375 0 
L 9.078125 0 
L 9.078125 54.6875 
L 18.109375 54.6875 
L 18.109375 46.1875 
Q 20.953125 51.171875 25.484375 53.578125 
Q 30.03125 56 36.53125 56 
Q 37.453125 56 38.578125 55.875 
Q 39.703125 55.765625 41.0625 55.515625 
z
" id="DejaVuSans-114"/>
      <path d="M 44.28125 53.078125 
L 44.28125 44.578125 
Q 40.484375 46.53125 36.375 47.5 
Q 32.28125 48.484375 27.875 48.484375 
Q 21.1875 48.484375 17.84375 46.4375 
Q 14.5 44.390625 14.5 40.28125 
Q 14.5 37.15625 16.890625 35.375 
Q 19.28125 33.59375 26.515625 31.984375 
L 29.59375 31.296875 
Q 39.15625 29.25 43.1875 25.515625 
Q 47.21875 21.78125 47.21875 15.09375 
Q 47.21875 7.46875 41.1875 3.015625 
Q 35.15625 -1.421875 24.609375 -1.421875 
Q 20.21875 -1.421875 15.453125 -0.5625 
Q 10.6875 0.296875 5.421875 2 
L 5.421875 11.28125 
Q 10.40625 8.6875 15.234375 7.390625 
Q 20.0625 6.109375 24.8125 6.109375 
Q 31.15625 6.109375 34.5625 8.28125 
Q 37.984375 10.453125 37.984375 14.40625 
Q 37.984375 18.0625 35.515625 20.015625 
Q 33.0625 21.96875 24.703125 23.78125 
L 21.578125 24.515625 
Q 13.234375 26.265625 9.515625 29.90625 
Q 5.8125 33.546875 5.8125 39.890625 
Q 5.8125 47.609375 11.28125 51.796875 
Q 16.75 56 26.8125 56 
Q 31.78125 56 36.171875 55.265625 
Q 40.578125 54.546875 44.28125 53.078125 
z
" id="DejaVuSans-115"/>
      <path d="M 56.203125 29.59375 
L 56.203125 25.203125 
L 14.890625 25.203125 
Q 15.484375 15.921875 20.484375 11.0625 
Q 25.484375 6.203125 34.421875 6.203125 
Q 39.59375 6.203125 44.453125 7.46875 
Q 49.3125 8.734375 54.109375 11.28125 
L 54.109375 2.78125 
Q 49.265625 0.734375 44.1875 -0.34375 
Q 39.109375 -1.421875 33.890625 -1.421875 
Q 20.796875 -1.421875 13.15625 6.1875 
Q 5.515625 13.8125 5.515625 26.8125 
Q 5.515625 40.234375 12.765625 48.109375 
Q 20.015625 56 32.328125 56 
Q 43.359375 56 49.78125 48.890625 
Q 56.203125 41.796875 56.203125 29.59375 
z
M 47.21875 32.234375 
Q 47.125 39.59375 43.09375 43.984375 
Q 39.0625 48.390625 32.421875 48.390625 
Q 24.90625 48.390625 20.390625 44.140625 
Q 15.875 39.890625 15.1875 32.171875 
z
" id="DejaVuSans-101"/>
      <path d="M 54.890625 54.6875 
L 35.109375 28.078125 
L 55.90625 0 
L 45.3125 0 
L 29.390625 21.484375 
L 13.484375 0 
L 2.875 0 
L 24.125 28.609375 
L 4.6875 54.6875 
L 15.28125 54.6875 
L 29.78125 35.203125 
L 44.28125 54.6875 
z
" id="DejaVuSans-120"/>
      <path d="M 18.3125 70.21875 
L 18.3125 54.6875 
L 36.8125 54.6875 
L 36.8125 47.703125 
L 18.3125 47.703125 
L 18.3125 18.015625 
Q 18.3125 11.328125 20.140625 9.421875 
Q 21.96875 7.515625 27.59375 7.515625 
L 36.8125 7.515625 
L 36.8125 0 
L 27.59375 0 
Q 17.1875 0 13.234375 3.875 
Q 9.28125 7.765625 9.28125 18.015625 
L 9.28125 47.703125 
L 2.6875 47.703125 
L 2.6875 54.6875 
L 9.28125 54.6875 
L 9.28125 70.21875 
z
" id="DejaVuSans-116"/>
      <path d="M 48.78125 52.59375 
L 48.78125 44.1875 
Q 44.96875 46.296875 41.140625 47.34375 
Q 37.3125 48.390625 33.40625 48.390625 
Q 24.65625 48.390625 19.8125 42.84375 
Q 14.984375 37.3125 14.984375 27.296875 
Q 14.984375 17.28125 19.8125 11.734375 
Q 24.65625 6.203125 33.40625 6.203125 
Q 37.3125 6.203125 41.140625 7.25 
Q 44.96875 8.296875 48.78125 10.40625 
L 48.78125 2.09375 
Q 45.015625 0.34375 40.984375 -0.53125 
Q 36.96875 -1.421875 32.421875 -1.421875 
Q 20.0625 -1.421875 12.78125 6.34375 
Q 5.515625 14.109375 5.515625 27.296875 
Q 5.515625 40.671875 12.859375 48.328125 
Q 20.21875 56 33.015625 56 
Q 37.15625 56 41.109375 55.140625 
Q 45.0625 54.296875 48.78125 52.59375 
z
" id="DejaVuSans-99"/>
      <path d="M 45.40625 46.390625 
L 45.40625 75.984375 
L 54.390625 75.984375 
L 54.390625 0 
L 45.40625 0 
L 45.40625 8.203125 
Q 42.578125 3.328125 38.25 0.953125 
Q 33.9375 -1.421875 27.875 -1.421875 
Q 17.96875 -1.421875 11.734375 6.484375 
Q 5.515625 14.40625 5.515625 27.296875 
Q 5.515625 40.1875 11.734375 48.09375 
Q 17.96875 56 27.875 56 
Q 33.9375 56 38.25 53.625 
Q 42.578125 51.265625 45.40625 46.390625 
z
M 14.796875 27.296875 
Q 14.796875 17.390625 18.875 11.75 
Q 22.953125 6.109375 30.078125 6.109375 
Q 37.203125 6.109375 41.296875 11.75 
Q 45.40625 17.390625 45.40625 27.296875 
Q 45.40625 37.203125 41.296875 42.84375 
Q 37.203125 48.484375 30.078125 48.484375 
Q 22.953125 48.484375 18.875 42.84375 
Q 14.796875 37.203125 14.796875 27.296875 
z
" id="DejaVuSans-100"/>
      <path d="M 10.6875 12.40625 
L 21 12.40625 
L 21 0 
L 10.6875 0 
z
" id="DejaVuSans-46"/>
     </defs>
     <use xlink:href="#DejaVuSans-87"/>
     <use x="98.876953" xlink:href="#DejaVuSans-53"/>
     <use x="162.5" xlink:href="#DejaVuSans-48"/>
     <use x="226.123047" xlink:href="#DejaVuSans-95"/>
     <use x="276.123047" xlink:href="#DejaVuSans-95"/>
     <use x="326.123047" xlink:href="#DejaVuSans-72"/>
     <use x="401.318359" xlink:href="#DejaVuSans-53"/>
     <use x="464.941406" xlink:href="#DejaVuSans-48"/>
     <use x="528.564453" xlink:href="#DejaVuSans-95"/>
     <use x="578.564453" xlink:href="#DejaVuSans-95"/>
     <use x="628.564453" xlink:href="#DejaVuSans-65"/>
     <use x="696.972656" xlink:href="#DejaVuSans-49"/>
     <use x="760.595703" xlink:href="#DejaVuSans-52"/>
     <use x="824.21875" xlink:href="#DejaVuSans-48"/>
     <use x="887.841797" xlink:href="#DejaVuSans-95"/>
     <use x="937.841797" xlink:href="#DejaVuSans-98"/>
     <use x="1001.318359" xlink:href="#DejaVuSans-97"/>
     <use x="1062.597656" xlink:href="#DejaVuSans-114"/>
     <use x="1103.710938" xlink:href="#DejaVuSans-115"/>
     <use x="1155.810547" xlink:href="#DejaVuSans-95"/>
     <use x="1205.810547" xlink:href="#DejaVuSans-101"/>
     <use x="1265.583984" xlink:href="#DejaVuSans-120"/>
     <use x="1324.763672" xlink:href="#DejaVuSans-116"/>
     <use x="1363.972656" xlink:href="#DejaVuSans-114"/>
     <use x="1405.085938" xlink:href="#DejaVuSans-97"/>
     <use x="1466.365234" xlink:href="#DejaVuSans-99"/>
     <use x="1521.345703" xlink:href="#DejaVuSans-116"/>
     <use x="1560.554688" xlink:href="#DejaVuSans-101"/>
     <use x="1622.078125" xlink:href="#DejaVuSans-100"/>
     <use x="1685.554688" xlink:href="#DejaVuSans-46"/>
     <use x="1717.341797" xlink:href="#DejaVuSans-116"/>
     <use x="1756.550781" xlink:href="#DejaVuSans-120"/>
     <use x="1815.730469" xlink:href="#DejaVuSans-116"/>
    </g>
   </g>
  </g>
 </g>
 <defs>
  <clipPath id="p56b2eaffff">
   <rect height="217.44" width="217.44" x="112.68" y="34.56"/>
  </clipPath>
 </defs>
</svg>
